<svg width="128" height="128" viewBox="0 0 128 128" fill="none" xmlns="http://www.w3.org/2000/svg">
<path opacity="0.2" d="M49.8535 123.492C47.8751 123.023 46.2193 121.926 43.9021 119.549C40.0315 115.578 36.8904 113.925 31.4309 112.985C25.7674 112.01 23.2506 109.905 21.7375 104.877C19.8698 98.6708 17.9177 95.6985 13.6285 92.5305C8.7629 88.9366 7.51452 85.7674 8.70211 80.0242C9.80208 74.7048 9.38087 70.9229 7.14689 66.0604C4.48145 60.2587 4.81049 57.1586 8.5962 52.4053C12.0668 48.0478 13.1561 45.1674 13.6759 38.9737C14.2004 32.7233 15.9394 30.159 21.0608 28.0837C25.3351 26.3518 28.9917 23.3452 31.0189 19.8957C33.3632 15.9068 33.7054 15.4495 35.1579 14.3658C37.5018 12.6171 39.3969 12.1325 43.0061 12.3588C49.2755 12.7519 52.6358 11.9991 56.846 9.25832C62.3354 5.68473 65.6639 5.68473 71.1534 9.25832C75.3636 11.9991 78.7239 12.7519 84.9933 12.3588C90.922 11.987 93.389 13.5434 97.0028 19.9355C98.7937 23.1032 102.454 26.1862 106.461 27.9007C112.167 30.3428 113.825 32.5717 114.246 38.3638C114.702 44.6367 115.988 48.144 119.395 52.4053C123.189 57.1501 123.52 60.2531 120.852 66.0604C118.619 70.9229 118.197 74.7048 119.297 80.0242C120.485 85.7674 119.236 88.9366 114.371 92.5305C110.082 95.6985 108.13 98.6708 106.262 104.877C104.749 109.905 102.232 112.01 96.5685 112.985C91.0974 113.927 87.9527 115.585 84.0973 119.562C79.8233 123.969 76.7594 124.697 70.7842 122.721C65.8971 121.106 62.1344 121.099 57.2668 122.697C53.8571 123.816 52.0396 124.011 49.8535 123.492V123.492Z" fill="black"/>
<path d="M49.8535 122.321C47.8751 121.851 46.2193 120.754 43.9021 118.377C40.0315 114.407 36.8904 112.753 31.4309 111.814C25.7674 110.839 23.2506 108.733 21.7375 103.706C19.8698 97.499 17.9177 94.5267 13.6285 91.3586C8.7629 87.7647 7.51452 84.5955 8.70211 78.8524C9.80208 73.5329 9.38087 69.751 7.14689 64.8885C4.48145 59.0868 4.81049 55.9867 8.5962 51.2335C12.0668 46.8759 13.1561 43.9955 13.6759 37.8018C14.2004 31.5514 15.9394 28.9871 21.0608 26.9119C25.3351 25.1799 28.9917 22.1733 31.0189 18.7238C33.3632 14.7349 33.7054 14.2776 35.1579 13.194C37.5018 11.4452 39.3969 10.9606 43.0061 11.1869C49.2755 11.58 52.6358 10.8273 56.846 8.08645C62.3354 4.51285 65.6639 4.51285 71.1534 8.08645C75.3636 10.8273 78.7239 11.58 84.9933 11.1869C90.922 10.8151 93.389 12.3715 97.0028 18.7636C98.7937 21.9314 102.454 25.0143 106.461 26.7289C112.167 29.1709 113.825 31.3998 114.246 37.192C114.702 43.4648 115.988 46.9721 119.395 51.2335C123.189 55.9782 123.52 59.0812 120.852 64.8885C118.619 69.751 118.197 73.5329 119.297 78.8524C120.485 84.5955 119.236 87.7647 114.371 91.3586C110.082 94.5267 108.13 97.499 106.262 103.706C104.749 108.733 102.232 110.839 96.5685 111.814C91.0974 112.755 87.9527 114.414 84.0973 118.39C79.8233 122.798 76.7594 123.525 70.7842 121.55C65.8971 119.934 62.1344 119.927 57.2668 121.525C53.8571 122.644 52.0396 122.839 49.8535 122.321V122.321Z" fill="#073042"/>
<path d="M85.5877 56.7805C85.2366 56.0558 85.5354 55.1742 86.2675 54.8156C86.9922 54.4645 87.8738 54.7633 88.2324 55.4955C88.5835 56.2202 88.2847 57.1017 87.5525 57.4604C86.8204 57.819 85.9463 57.5127 85.5877 56.7805ZM92.6776 71.3712C92.3265 70.6465 92.6253 69.765 93.3575 69.4064C94.0896 69.0478 94.9637 69.3541 95.3223 70.0862C95.6809 70.8184 95.3746 71.6925 94.6425 72.0511C93.9103 72.4097 93.0362 72.1034 92.6776 71.3712ZM93.3052 52.4474C88.6433 49.1153 82.547 48.2487 76.9139 50.4227L92.319 82.1219C97.5188 79.0364 100.597 73.7096 100.858 67.9794L106.708 68.3978C107.044 68.4202 107.336 68.1662 107.358 67.83C107.38 67.4938 107.126 67.2024 106.79 67.18L100.866 66.7542C100.806 64.2589 100.208 61.7113 99.0204 59.2683C97.8325 56.8178 96.1964 54.7783 94.2689 53.187L97.6009 48.2711C97.7877 47.9947 97.713 47.6137 97.4366 47.4269C97.1602 47.2401 96.7791 47.3148 96.5924 47.5913L93.3052 52.4474Z" fill="#3DDC84"/>
<path d="M61.1426 38.6112C61.1426 37.0348 62.4201 35.7573 63.9965 35.7573C65.5728 35.7573 66.8504 37.0348 66.8504 38.6112C66.8504 40.1876 65.5728 41.4651 63.9965 41.4651C62.4201 41.4651 61.1426 40.1876 61.1426 38.6112Z" fill="white"/>
<path d="M94.7469 88.8756C94.7171 87.6504 94.4332 86.4625 93.8953 85.3643L73.3726 43.1311C74.0375 41.7639 74.4185 40.2324 74.4185 38.6112C74.4185 34.4275 71.9307 30.819 68.3596 29.1605V23.363C68.3596 20.9574 66.4022 19 63.9966 19C61.591 19 59.6336 20.9574 59.6336 23.363V29.1605C56.0625 30.8115 53.5747 34.42 53.5747 38.6112C53.5747 40.2324 53.9557 41.7564 54.6206 43.1311L45.9244 61.024C42.9361 58.8425 40.4109 56.1903 38.3937 53.1123C37.9754 52.4772 37.3104 52.0364 36.5559 51.8945C35.8013 51.76 35.0169 51.9393 34.4043 52.395L28.8085 56.519C27.5982 57.408 27.3143 59.089 28.1511 60.3441C31.3486 65.118 35.5622 69.2719 40.381 72.4321L34.0979 85.3568C33.56 86.4625 33.2761 87.6429 33.2463 88.8681L33.1193 94.4713C33.0894 95.6667 33.7468 96.735 34.8226 97.2654C35.8984 97.7884 37.1461 97.639 38.0725 96.8844L42.4056 93.3208C43.3395 92.5513 44.1165 91.5726 44.6469 90.4818L50.9748 77.4525C55.2033 78.7898 59.5962 79.4697 64.0489 79.4697C68.5016 79.4697 72.8571 78.8048 77.0334 77.4824L83.3463 90.4818C83.8842 91.5875 84.6388 92.5363 85.5876 93.3208L89.9207 96.8844C90.4811 97.3401 91.1534 97.5792 91.8333 97.5792C92.2815 97.5792 92.7373 97.4746 93.1631 97.2654C94.2389 96.7425 94.8889 95.6741 94.8665 94.4713L94.7395 88.8681L94.7469 88.8756ZM62.3082 23.3705C62.3082 22.4366 63.0702 21.6746 64.0041 21.6746C64.9379 21.6746 65.7 22.4366 65.7 23.3705V28.3461C65.1471 28.2565 64.5793 28.1967 64.0041 28.1967C63.4288 28.1967 62.861 28.2565 62.3082 28.3461V23.3705ZM64.0041 30.8564C68.2774 30.8564 71.7589 34.3378 71.7589 38.6112C71.7589 42.8846 68.2849 46.366 64.0041 46.366C59.7232 46.366 56.2493 42.8846 56.2493 38.6112C56.2493 34.3378 59.7307 30.8564 64.0041 30.8564ZM71.475 66.0444C66.6264 67.2547 61.464 67.2547 56.5481 66.0145L64.0041 50.6693L71.475 66.0444ZM92.0051 94.8747C91.908 94.9196 91.7661 94.9495 91.6166 94.8299L87.2835 91.2663C86.6335 90.7358 86.118 90.0784 85.752 89.3238L78.408 74.2176L77.2874 74.6061C73.0514 76.0704 68.5987 76.8175 64.0564 76.8175C59.514 76.8175 55.024 76.0629 50.7357 74.5762L49.6151 74.1877L42.2562 89.3313C41.8976 90.0784 41.3672 90.7508 40.7247 91.2738L36.3915 94.8299C36.2421 94.9569 36.0927 94.9196 36.003 94.8747C35.9059 94.8299 35.7938 94.7328 35.8013 94.5386L35.9283 88.9354C35.9507 88.0911 36.145 87.2843 36.5111 86.5297L43.84 71.4459L42.809 70.8109C37.8857 67.7852 33.5899 63.6537 30.3774 58.8649C30.3326 58.7976 30.3401 58.708 30.3998 58.6706L35.9956 54.5467C35.9956 54.5467 36.0553 54.5168 36.1002 54.5243C36.1525 54.5317 36.1674 54.5616 36.1749 54.5766C38.6702 58.3793 41.8827 61.5918 45.7227 64.1244L46.9928 64.9611L56.3613 45.6787C57.8181 47.255 59.7531 48.3906 61.9421 48.8314L52.7753 67.6955L54.262 68.1512C57.4595 69.1299 60.7542 69.6305 64.0564 69.6305C67.3585 69.6305 70.6233 69.1449 73.7611 68.1886L75.2553 67.7329L66.0735 48.8314C68.2625 48.3906 70.19 47.255 71.6543 45.6787L91.512 86.5372C91.8781 87.2917 92.0724 88.0986 92.0948 88.9428L92.2218 94.546C92.2218 94.7403 92.1097 94.8374 92.0201 94.8822L92.0051 94.8747Z" fill="white"/>
</svg>
