<svg width="128" height="128" viewBox="0 0 128 128" fill="none" xmlns="http://www.w3.org/2000/svg">
<path opacity="0.2" d="M49.8535 123.492C47.8751 123.023 46.2193 121.926 43.9021 119.549C40.0315 115.578 36.8904 113.925 31.4309 112.985C25.7674 112.01 23.2506 109.905 21.7375 104.877C19.8698 98.6708 17.9177 95.6985 13.6285 92.5305C8.7629 88.9366 7.51452 85.7674 8.70211 80.0242C9.80208 74.7048 9.38087 70.9229 7.14689 66.0604C4.48145 60.2587 4.81049 57.1586 8.5962 52.4053C12.0668 48.0478 13.1561 45.1674 13.6759 38.9737C14.2004 32.7233 15.9394 30.159 21.0608 28.0837C25.3351 26.3518 28.9917 23.3452 31.0189 19.8957C33.3632 15.9068 33.7054 15.4495 35.1579 14.3658C37.5018 12.6171 39.3969 12.1325 43.006 12.3588C49.2755 12.7519 52.6358 11.9991 56.846 9.25832C62.3354 5.68473 65.6639 5.68473 71.1534 9.25832C75.3636 11.9991 78.7239 12.7519 84.9933 12.3588C90.922 11.987 93.389 13.5434 97.0028 19.9355C98.7937 23.1032 102.454 26.1862 106.461 27.9007C112.167 30.3428 113.825 32.5717 114.246 38.3638C114.702 44.6367 115.988 48.144 119.395 52.4053C123.189 57.1501 123.52 60.2531 120.852 66.0604C118.619 70.9229 118.197 74.7048 119.297 80.0242C120.485 85.7674 119.236 88.9366 114.371 92.5305C110.082 95.6985 108.13 98.6708 106.262 104.877C104.749 109.905 102.232 112.01 96.5684 112.985C91.0974 113.927 87.9527 115.585 84.0973 119.562C79.8233 123.969 76.7594 124.697 70.7842 122.721C65.8971 121.106 62.1344 121.099 57.2668 122.697C53.8571 123.816 52.0396 124.011 49.8535 123.492V123.492Z" fill="black"/>
<path d="M49.8535 122.321C47.8751 121.851 46.2193 120.754 43.9021 118.377C40.0315 114.407 36.8904 112.753 31.4309 111.814C25.7674 110.839 23.2506 108.733 21.7375 103.706C19.8698 97.499 17.9177 94.5267 13.6285 91.3586C8.7629 87.7647 7.51452 84.5955 8.70211 78.8524C9.80208 73.5329 9.38087 69.751 7.14689 64.8885C4.48145 59.0868 4.81049 55.9867 8.5962 51.2335C12.0668 46.8759 13.1561 43.9955 13.6759 37.8018C14.2004 31.5514 15.9394 28.9871 21.0608 26.9119C25.3351 25.1799 28.9917 22.1733 31.0189 18.7238C33.3632 14.7349 33.7054 14.2776 35.1579 13.194C37.5018 11.4452 39.3969 10.9606 43.006 11.1869C49.2755 11.58 52.6358 10.8273 56.846 8.08645C62.3354 4.51285 65.6639 4.51285 71.1534 8.08645C75.3636 10.8273 78.7239 11.58 84.9933 11.1869C90.922 10.8151 93.389 12.3715 97.0028 18.7636C98.7937 21.9314 102.454 25.0143 106.461 26.7289C112.167 29.1709 113.825 31.3998 114.246 37.192C114.702 43.4648 115.988 46.9721 119.395 51.2335C123.189 55.9782 123.52 59.0812 120.852 64.8885C118.619 69.751 118.197 73.5329 119.297 78.8524C120.485 84.5955 119.236 87.7647 114.371 91.3586C110.082 94.5267 108.13 97.499 106.262 103.706C104.749 108.733 102.232 110.839 96.5684 111.814C91.0974 112.755 87.9527 114.414 84.0973 118.39C79.8233 122.798 76.7594 123.525 70.7842 121.55C65.8971 119.934 62.1344 119.927 57.2668 121.525C53.8571 122.644 52.0396 122.839 49.8535 122.321V122.321Z" fill="#202124"/>
<path d="M90.8889 99.0051C91.0965 99.7377 90.7266 100.51 90.0256 100.808C89.3249 101.105 88.512 100.835 88.1293 100.177L84.6604 94.2107L89.0071 92.3656L90.8889 99.0051Z" fill="white"/>
<mask id="mask0_1081_1692" style="mask-type:alpha" maskUnits="userSpaceOnUse" x="78" y="51" width="21" height="26">
<path d="M88.2863 75.566C88.7404 75.2597 89.1709 74.9262 89.575 74.5685C89.9171 74.266 90.2406 73.9457 90.5451 73.6107C90.9355 73.1799 91.2949 72.7238 91.6205 72.2465C92.0193 71.6615 92.3675 71.0441 92.6611 70.4015C92.7845 70.1318 92.8988 69.858 93.0023 69.5801C93.2281 68.9781 93.4072 68.3578 93.5382 67.7256C93.5472 67.7273 93.5568 67.7283 93.5658 67.7303C94.0599 67.8154 94.5535 67.9015 95.0476 67.9869C95.53 68.0707 96.0125 68.1545 96.4949 68.2383C96.8412 68.2986 97.1882 68.3586 97.5343 68.4183C97.6166 68.4326 97.698 68.4375 97.7783 68.4344C98.0017 68.425 98.2128 68.3504 98.389 68.2265C98.4326 68.1957 98.474 68.1623 98.513 68.126C98.5519 68.0896 98.5884 68.0504 98.6222 68.0088C98.7376 67.8662 98.8199 67.6931 98.8554 67.5004C98.8869 67.3299 98.8787 67.1553 98.8335 66.9896C98.8146 66.9205 98.789 66.8531 98.7574 66.7885C98.731 66.7349 98.7003 66.6836 98.666 66.6342C98.5421 66.4582 98.3683 66.317 98.1613 66.233C98.0869 66.2029 98.0085 66.1803 97.9263 66.166C97.58 66.1056 97.233 66.0455 96.8869 65.9857L95.4396 65.7346C94.9455 65.6492 94.4519 65.5631 93.9578 65.4777C93.9041 65.4685 93.85 65.4588 93.7955 65.4498C93.7964 65.4088 93.7976 65.3681 93.7982 65.3273C93.8136 63.8469 93.5642 62.3387 93.0203 60.8666C93.0052 60.8263 92.9906 60.7865 92.9751 60.7463C92.4783 59.4424 91.7859 58.2687 90.9435 57.2465C90.846 57.1281 90.7464 57.0123 90.6449 56.8986C90.6777 56.8594 90.7101 56.8197 90.7429 56.7804C91.0628 56.3951 91.3822 56.0092 91.7023 55.6238C92.0144 55.247 92.3267 54.8703 92.639 54.4935C92.863 54.223 93.0876 53.9521 93.3121 53.6822C93.3652 53.6179 93.4099 53.5498 93.447 53.4787C93.5498 53.2806 93.59 53.0603 93.5697 52.8463C93.5636 52.7863 93.5537 52.7275 93.5386 52.6697C93.5207 52.6 93.4962 52.5322 93.4658 52.4672C93.3929 52.3119 93.2855 52.1738 93.1501 52.0648C92.9978 51.9414 92.823 51.8637 92.6421 51.8297C92.5894 51.8199 92.5361 51.8138 92.4828 51.8115C92.4296 51.8092 92.3763 51.8101 92.3232 51.8154C92.1087 51.8357 91.8998 51.916 91.7238 52.0539C91.6607 52.1035 91.6019 52.1601 91.5488 52.2244C91.3246 52.4949 91.1 52.7656 90.8757 53.0357C90.5634 53.4125 90.2513 53.7892 89.939 54.166C89.6189 54.5513 89.2998 54.9371 88.9796 55.3226C88.9769 55.3256 88.9742 55.3291 88.9714 55.332C88.5005 54.9662 88.0062 54.6349 87.4906 54.3406C87.1816 54.1644 86.8658 54.0012 86.5435 53.8519C85.9025 53.5545 85.2363 53.3111 84.5521 53.1248C83.9939 52.9726 83.4248 52.8588 82.8472 52.7855C82.3978 52.7283 81.9437 52.6949 81.4867 52.6869C80.9468 52.6773 80.4027 52.7029 79.8582 52.7646C79.316 52.8263 78.7732 52.9246 78.2341 53.0592L86.8585 76.3949C87.3505 76.1502 87.8296 75.8742 88.2863 75.566Z" fill="#34A853"/>
</mask>
<g mask="url(#mask0_1081_1692)">
<path d="M100.878 71.3725L91.6791 46.4518L77.658 51.6272L86.8566 76.548L100.878 71.3725Z" fill="#4FAF53"/>
<g opacity="0.8" filter="url(#filter0_f_1081_1692)">
<path d="M92.338 62.0865C91.5076 65.1996 88.7503 58.3184 83.9515 57.0383C79.1529 55.7582 73.3345 60.3518 74.165 57.2387C75.6935 54.9418 79.8503 53.1436 84.649 54.4238C89.4476 55.7039 92.3454 59.7033 92.338 62.0865Z" fill="url(#paint0_linear_1081_1692)" fill-opacity="0.3"/>
</g>
<g opacity="0.7" filter="url(#filter1_f_1081_1692)">
<path d="M91.7117 60.3916C89.0578 58.5646 91.4326 65.5871 88.6163 69.6779C85.8001 73.7689 78.3927 74.0572 81.0466 75.884C83.7009 76.6371 88.029 75.3033 90.8453 71.2123C93.6615 67.1215 93.2658 62.1984 91.7117 60.3916Z" fill="url(#paint1_linear_1081_1692)" fill-opacity="0.4"/>
</g>
<g opacity="0.6" filter="url(#filter2_f_1081_1692)">
<path d="M81.3675 51.5449C78.0328 51.6979 75.3437 52.1354 75.3613 52.5221C75.3791 52.9088 78.097 53.0985 81.4318 52.9455C84.7668 52.7926 89.4656 55.5049 89.4478 55.1182C89.4302 54.7315 84.7025 51.3922 81.3675 51.5449Z" fill="#8BD8A0"/>
</g>
<g opacity="0.5" filter="url(#filter3_f_1081_1692)">
<path d="M90.1672 75.3826C87.5327 77.4332 85.2043 78.8479 84.9665 78.5422C84.7288 78.2367 86.6715 76.3268 89.3061 74.2764C91.9405 72.2258 93.7502 67.1111 93.9881 67.4166C94.2258 67.7221 92.8016 73.3322 90.1672 75.3826Z" fill="#8BD8A0"/>
</g>
<g opacity="0.7" filter="url(#filter4_f_1081_1692)">
<path d="M91.0819 53.3599C89.8856 54.8691 89.3018 55.5519 89.1684 55.4463C89.035 55.3404 89.4024 54.4861 90.5987 52.9769C91.3221 51.097 93.5658 51.9748 93.6992 52.0806C93.8326 52.1863 92.611 51.209 91.0819 53.3599Z" fill="#0D652D"/>
</g>
<g opacity="0.1" filter="url(#filter5_f_1081_1692)">
<path d="M88.9344 55.3246C89.0493 55.4098 89.9366 54.408 90.9163 53.087C91.8961 51.7661 92.5972 50.6262 92.4824 50.541C92.3675 50.4558 91.4802 51.4576 90.5004 52.7786C89.5207 54.0995 88.8196 55.2394 88.9344 55.3246Z" fill="black"/>
</g>
<g opacity="0.3" filter="url(#filter6_f_1081_1692)">
<path d="M92.2996 54.2422C91.0478 55.8209 90.4853 56.5734 90.592 56.658C90.6988 56.7426 91.4345 56.1273 92.6861 54.5486C94.4923 52.8053 92.5758 51.5705 92.4023 51.8264C91.8912 52.3883 94.0988 52.1502 92.2996 54.2422Z" fill="white"/>
</g>
<path opacity="0.15" d="M91.6664 50.808C91.1192 51.2115 91.0605 52.0605 91.5352 52.7043C92.01 53.3482 92.8384 53.5431 93.3856 53.1396C93.9328 52.7361 93.9915 51.8871 93.5167 51.2433C93.042 50.5994 92.2136 50.4045 91.6664 50.808Z" fill="url(#paint2_radial_1081_1692)" fill-opacity="0.9"/>
<path opacity="0.15" d="M97.3464 65.6479C96.7993 66.0514 96.7405 66.9004 97.2153 67.5442C97.69 68.1881 98.5184 68.383 99.0656 67.9795C99.6128 67.576 99.6715 66.727 99.1968 66.0832C98.7221 65.4393 97.8936 65.2444 97.3464 65.6479Z" fill="url(#paint3_radial_1081_1692)" fill-opacity="0.9"/>
<g opacity="0.1" filter="url(#filter7_f_1081_1692)">
<path d="M93.408 67.6924C93.4377 67.5525 94.766 67.7161 96.3747 68.0577C97.9835 68.3993 99.2635 68.7897 99.2338 68.9295C99.2041 69.0694 97.8759 68.9059 96.2672 68.5642C94.6584 68.2226 93.3783 67.8323 93.408 67.6924Z" fill="black"/>
</g>
<mask id="mask1_1081_1692" style="mask-type:alpha" maskUnits="userSpaceOnUse" x="93" y="64" width="3" height="6">
<path d="M93.4519 67.8797C93.5925 67.1994 93.7185 65.7182 93.764 65.0625L95.2158 64.9489L95.0953 69.1186C94.4888 68.9891 93.3111 68.56 93.4519 67.8797Z" fill="black"/>
</mask>
<g mask="url(#mask1_1081_1692)">
<g style="mix-blend-mode:multiply" opacity="0.3" filter="url(#filter8_f_1081_1692)">
<path d="M93.7876 68.174C93.8408 67.0307 93.7679 66.0982 93.6251 66.0916C93.4824 66.0849 93.4119 66.9635 93.3587 68.1068C93.3056 69.2502 93.2902 70.2256 93.433 70.2322C93.5757 70.2389 93.7345 69.3174 93.7876 68.174Z" fill="#0D652D"/>
</g>
<g style="mix-blend-mode:screen" opacity="0.3" filter="url(#filter9_f_1081_1692)">
<path d="M93.8291 65.8584C93.8627 65.5328 93.8385 65.2635 93.7748 65.257C93.7114 65.2504 93.6721 65.4996 93.6385 65.825C93.6049 66.1506 93.5893 66.4293 93.653 66.4357C93.7164 66.4424 93.7953 66.1838 93.8291 65.8584Z" fill="#81C995"/>
</g>
</g>
<mask id="mask2_1081_1692" style="mask-type:alpha" maskUnits="userSpaceOnUse" x="88" y="53" width="4" height="5">
<path d="M88.6336 55.1608C89.1913 55.575 90.2708 56.5971 90.7409 57.0565L91.9004 56.1756L89.0366 53.1424C88.67 53.6426 88.076 54.7465 88.6336 55.1608Z" fill="black"/>
</mask>
<g mask="url(#mask2_1081_1692)">
<g style="mix-blend-mode:multiply" opacity="0.3" filter="url(#filter10_f_1081_1692)">
<path d="M88.6884 54.718C89.4888 55.5363 90.0546 56.2809 89.9525 56.3809C89.8501 56.4809 89.2132 55.8719 88.4128 55.0535C87.6126 54.2351 86.9521 53.5172 87.0544 53.4172C87.1566 53.3172 87.8882 53.8996 88.6884 54.718Z" fill="#0D652D"/>
</g>
<g style="mix-blend-mode:screen" opacity="0.3" filter="url(#filter11_f_1081_1692)">
<path d="M90.2599 56.4184C90.5015 56.6391 90.6624 56.8562 90.6195 56.9033C90.5763 56.9506 90.3814 56.7906 90.1398 56.5699C89.898 56.3494 89.7011 56.1516 89.7441 56.1043C89.7872 56.0572 90.0181 56.1978 90.2599 56.4184Z" fill="#81C995"/>
</g>
</g>
<g opacity="0.7" filter="url(#filter12_f_1081_1692)">
<path d="M96.376 67.9062C94.4777 67.5805 93.5875 67.4613 93.5586 67.6291C93.5299 67.7969 94.3734 68.1881 96.2715 68.5139C98.0648 69.4314 99.1502 67.2805 99.1791 67.1127C99.2078 66.9449 98.95 68.4881 96.376 67.9062Z" fill="#0D652D"/>
</g>
<g opacity="0.3" filter="url(#filter13_f_1081_1692)">
<path d="M96.683 66.3844C94.7514 66.0529 93.8557 65.8709 93.8799 65.7299C93.9041 65.5891 94.8389 65.5426 96.7705 65.874C99.9236 65.9008 100.325 68.1127 98.6869 68.3301C97.9664 68.291 99.3459 66.724 96.683 66.3844Z" fill="white"/>
</g>
</g>
<path d="M85.2883 57.7532C85.1361 58.1406 85.1852 58.5224 85.398 58.606C85.6107 58.6896 85.9065 58.4432 86.0587 58.0558C86.2109 57.6684 86.1618 57.2866 85.949 57.203C85.7363 57.1195 85.4405 57.3658 85.2883 57.7532Z" fill="url(#paint4_radial_1081_1692)" fill-opacity="0.7"/>
<path d="M89.1408 68.231C88.7735 68.0355 88.5628 67.7134 88.6702 67.5118C88.7776 67.3101 89.1624 67.3052 89.5296 67.5008C89.8969 67.6963 90.1075 68.0183 90.0001 68.22C89.8928 68.4216 89.508 68.4266 89.1408 68.231Z" fill="url(#paint5_radial_1081_1692)" fill-opacity="0.7"/>
<g style="mix-blend-mode:multiply" opacity="0.09" filter="url(#filter14_f_1081_1692)">
<path d="M84.2876 58.8853C85.2885 58.9152 85.6932 58.3457 85.7706 58.0572C86.3418 57.0976 85.3827 56.4429 84.937 56.306C84.4913 56.1689 83.7362 56.0109 83.0327 56.6969C82.3292 57.383 83.0364 58.848 84.2876 58.8853Z" fill="#011B04"/>
</g>
<g style="mix-blend-mode:multiply" opacity="0.09" filter="url(#filter15_f_1081_1692)">
<path d="M87.6453 68.0223C88.3822 67.351 89.057 67.5221 89.3023 67.6916C90.3558 68.0516 90.0554 69.1715 89.8076 69.5647C89.5595 69.9578 89.0916 70.5674 88.1156 70.5014C87.1394 70.4352 86.7242 68.8617 87.6453 68.0223Z" fill="#011B04"/>
</g>
<path d="M87.8324 70.2144C88.3994 70.6273 89.2631 70.409 89.7615 69.7264C90.2598 69.0439 90.2041 68.1558 89.6371 67.743C89.0699 67.3299 88.2063 67.5484 87.708 68.2308C87.2098 68.9135 87.2654 69.8016 87.8324 70.2144Z" fill="black"/>
<g filter="url(#filter16_d_1081_1692)">
<path d="M84.2118 58.6785C85.0346 58.8738 85.8301 58.4922 85.9889 57.826C86.1475 57.1597 85.6092 56.4613 84.7864 56.2658C83.9635 56.0703 83.1678 56.4519 83.0092 57.1181C82.8504 57.7845 83.3889 58.483 84.2118 58.6785Z" fill="black"/>
</g>
<g filter="url(#filter17_d_1081_1692)">
<path d="M87.7241 68.2238C88.2223 67.5416 89.0751 67.3154 89.6288 67.7187C90.1827 68.122 90.2278 69.0021 89.7296 69.6843C89.2315 70.3666 88.3788 70.5926 87.8249 70.1894C87.2712 69.7861 87.226 68.906 87.7241 68.2238Z" fill="black"/>
</g>
<mask id="mask3_1081_1692" style="mask-type:alpha" maskUnits="userSpaceOnUse" x="82" y="56" width="5" height="3">
<path d="M84.2119 58.6783C85.0347 58.8739 85.8302 58.4922 85.989 57.826C86.1476 57.1598 85.6093 56.4612 84.7865 56.2656C83.9636 56.0703 83.1679 56.452 83.0093 57.1182C82.8505 57.7844 83.389 58.4828 84.2119 58.6783Z" fill="#202124"/>
</mask>
<g mask="url(#mask3_1081_1692)">
<g filter="url(#filter18_f_1081_1692)">
<path d="M84.8789 56.4093C84.2087 56.1795 83.591 56.3539 83.3542 56.4998C83.8136 56.2095 84.3169 56.0675 84.9558 56.2931C85.3084 56.4175 85.5839 56.7031 85.748 56.9256C85.7757 56.9603 85.7978 56.9935 85.8167 57.0244C85.8544 57.0822 85.882 57.1316 85.8988 57.167C85.8734 57.1275 85.8501 57.0793 85.8167 57.0244C85.7966 56.9935 85.7738 56.9603 85.748 56.9256C85.6265 56.7726 85.3994 56.5881 84.8789 56.4093Z" fill="#D8D8D8" fill-opacity="0.29"/>
</g>
<g opacity="0.8" filter="url(#filter19_f_1081_1692)">
<path d="M85.4525 58.3511C86.1166 57.9076 85.973 57.2859 85.8183 57.0306C86.0092 57.2295 86.0353 57.7049 85.8953 57.9613C85.7832 58.1666 85.5533 58.3066 85.4525 58.3511Z" fill="url(#paint6_linear_1081_1692)"/>
</g>
</g>
<mask id="mask4_1081_1692" style="mask-type:alpha" maskUnits="userSpaceOnUse" x="87" y="67" width="4" height="4">
<path d="M87.7254 68.2238C88.2237 67.5416 89.0764 67.3154 89.6301 67.7187C90.184 68.122 90.2291 69.0021 89.7309 69.6843C89.2329 70.3666 88.3799 70.5926 87.8262 70.1894C87.2725 69.7861 87.2274 68.906 87.7254 68.2238Z" fill="#202124"/>
</mask>
<g mask="url(#mask4_1081_1692)">
<path d="M89.8058 68.2411C89.5359 67.6301 88.9728 67.6057 88.725 67.6698C88.8961 67.6786 89.2929 67.7879 89.5109 68.1559C89.7287 68.5239 89.4689 69.2141 89.3117 69.5131L89.6041 69.6291C89.7838 69.4209 90.0758 68.852 89.8058 68.2411Z" fill="url(#paint7_linear_1081_1692)"/>
<g filter="url(#filter20_f_1081_1692)">
<path d="M89.701 69.5183C89.341 70.1283 88.7584 70.3971 88.4838 70.4398C89.0213 70.3621 89.4959 70.1432 89.8347 69.5568C90.0218 69.2334 90.0459 68.8373 90.0261 68.5617C90.0246 68.5174 90.0199 68.4777 90.014 68.4418C90.0052 68.3734 89.9941 68.318 89.9838 68.2805C89.9902 68.3267 90.0039 68.3785 90.014 68.4418C90.0189 68.4783 90.023 68.5185 90.0261 68.5617C90.0332 68.7568 89.9804 69.0447 89.701 69.5183Z" fill="#D8D8D8" fill-opacity="0.29"/>
</g>
</g>
<g opacity="0.8" filter="url(#filter21_f_1081_1692)">
<path d="M85.2816 56.8922C85.1426 56.6658 84.8183 56.5774 84.6736 56.5613L84.5355 56.7512C84.5838 56.7565 84.7137 56.7824 84.8474 56.8442C84.9812 56.9059 85.1412 57.0133 85.2045 57.0594L85.2816 56.8922Z" fill="#E2DCE1"/>
</g>
<g opacity="0.8" filter="url(#filter22_f_1081_1692)">
<path d="M89.6984 68.8996C89.7408 69.1586 89.5617 69.4305 89.4668 69.5342L89.2465 69.4781C89.2781 69.4438 89.3558 69.3418 89.4138 69.2106C89.4718 69.0793 89.5199 68.8969 89.5367 68.8221L89.6984 68.8996Z" fill="#E2DCE1"/>
</g>
<g opacity="0.8" filter="url(#filter23_f_1081_1692)">
<path d="M84.3307 58.3824C84.2215 58.2894 84.0707 58.1386 84.009 58.0746L83.7715 58.0791C83.8977 58.2406 84.0545 58.3386 84.1172 58.3676L84.3307 58.3824Z" fill="#E2DCE1"/>
<path d="M85.3901 58.4072C85.4432 58.3709 85.5163 58.2983 85.5461 58.2664L85.4637 58.2969C85.4114 58.3578 85.3075 58.4274 85.262 58.4545C85.2825 58.4539 85.337 58.4436 85.3901 58.4072Z" fill="#E2DCE1"/>
</g>
<g opacity="0.8" filter="url(#filter24_f_1081_1692)">
<path d="M87.9925 68.3625C87.9699 68.5041 87.9535 68.717 87.9482 68.8058L87.7648 68.9568C87.7556 68.7519 87.8111 68.5752 87.84 68.5125L87.9925 68.3625Z" fill="#E2DCE1"/>
<path d="M88.7817 67.6547C88.8456 67.6479 88.9483 67.6557 88.9918 67.6606L88.9094 67.6911C88.8299 67.6786 88.7057 67.6932 88.6536 67.7022C88.6696 67.6893 88.7176 67.6618 88.7817 67.6547Z" fill="#E2DCE1"/>
</g>
<g opacity="0.3" filter="url(#filter25_f_1081_1692)">
<path d="M90.3229 71.8811C87.3003 72.9967 91.3342 66.7774 89.6145 62.1182C87.8946 57.4588 80.7874 55.352 83.8098 54.2363C86.5678 54.1615 90.4333 56.5219 92.153 61.1811C93.8727 65.8404 92.2747 70.5135 90.3229 71.8811Z" fill="url(#paint8_linear_1081_1692)" fill-opacity="0.4"/>
</g>
<g opacity="0.2" filter="url(#filter26_f_1081_1692)">
<path d="M90.3229 71.8811C87.3003 72.9967 91.3342 66.7774 89.6145 62.1182C87.8946 57.4588 80.7874 55.352 83.8098 54.2363C86.5678 54.1615 90.4333 56.5219 92.153 61.1811C93.8727 65.8404 92.2747 70.5135 90.3229 71.8811Z" fill="url(#paint9_linear_1081_1692)" fill-opacity="0.4"/>
</g>
<path fill-rule="evenodd" clip-rule="evenodd" d="M36.3342 56.8799C37.6671 57.199 38.7818 58.0242 39.4328 59.1742L39.4322 59.1746C46.2072 70.2976 62.1791 75.1008 74.9845 69.6291L79.1873 79.4646C61.8654 86.8664 39.9677 80.7469 30.2339 64.6342L30.2346 64.6338C29.5866 63.4844 29.3423 61.9098 29.7537 60.6055C30.166 59.2982 31.0909 58.1715 32.325 57.4726C33.559 56.774 35.0012 56.5607 36.3342 56.8799Z" fill="#202124"/>
<mask id="mask5_1081_1692" style="mask-type:luminance" maskUnits="userSpaceOnUse" x="29" y="56" width="51" height="27">
<path fill-rule="evenodd" clip-rule="evenodd" d="M36.3342 56.8799C37.6671 57.199 38.7818 58.0242 39.4328 59.1742L39.4322 59.1746C46.2072 70.2976 62.1791 75.1008 74.9845 69.6291L79.1873 79.4646C61.8654 86.8664 39.9677 80.7469 30.2339 64.6342L30.2346 64.6338C29.5866 63.4844 29.3423 61.9098 29.7537 60.6055C30.166 59.2982 31.0909 58.1715 32.325 57.4726C33.559 56.774 35.0012 56.5607 36.3342 56.8799Z" fill="white"/>
</mask>
<g mask="url(#mask5_1081_1692)">
<path d="M39.4329 59.1742L40.5301 60.7901L42.0196 59.7787L41.1327 58.2119L39.4329 59.1742ZM39.4323 59.1746L38.335 57.5588L36.7971 58.6031L37.7643 60.1906L39.4323 59.1746ZM74.9846 69.6291L76.7805 68.8617L76.0131 67.0656L74.217 67.833L74.9846 69.6291ZM79.1873 79.4647L79.9547 81.2608L81.7508 80.4934L80.9834 78.6973L79.1873 79.4647ZM30.234 64.6342L29.2242 62.9623L27.5522 63.9721L28.5622 65.644L30.234 64.6342ZM30.2346 64.6338L31.2444 66.3055L32.8668 65.3256L31.936 63.6746L30.2346 64.6338ZM41.1327 58.2119C40.2036 56.5709 38.6268 55.4203 36.7889 54.9805L35.8796 58.7793C36.7077 58.9776 37.3602 59.4776 37.7332 60.1365L41.1327 58.2119ZM40.5293 60.7904L40.5301 60.7901L38.3358 57.5584L38.335 57.5588L40.5293 60.7904ZM37.7643 60.1906C45.0832 72.2069 62.1245 77.2481 75.752 71.4252L74.217 67.833C62.2338 72.9535 47.3311 68.3883 41.1002 58.1586L37.7643 60.1906ZM73.1885 70.3965L77.3912 80.2322L80.9834 78.6973L76.7805 68.8617L73.1885 70.3965ZM78.42 77.6688C61.9155 84.7211 41.0934 78.8328 31.9058 63.6242L28.5622 65.644C38.8422 82.6608 61.8157 89.0115 79.9547 81.2608L78.42 77.6688ZM31.2438 66.3059L31.2444 66.3055L29.2249 62.9619L29.2242 62.9623L31.2438 66.3059ZM27.8911 60.018C27.2965 61.9033 27.6554 64.0358 28.5333 65.5928L31.936 63.6746C31.518 62.9332 31.3883 61.9164 31.6164 61.193L27.8911 60.018ZM31.3628 55.7731C29.7152 56.7059 28.4576 58.2217 27.8911 60.018L31.6164 61.193C31.8745 60.3748 32.4668 59.6369 33.2873 59.1723L31.3628 55.7731ZM36.7889 54.9805C34.9573 54.542 33.0105 54.8403 31.3628 55.7731L33.2873 59.1723C34.1078 58.7078 35.0453 58.5797 35.8796 58.7793L36.7889 54.9805Z" fill="white"/>
</g>
<path d="M37.3355 99.0049C37.1285 99.7377 37.4986 100.51 38.1998 100.808C38.9008 101.105 39.7137 100.835 40.0971 100.177L43.5465 94.2543L39.1998 92.4092L37.3355 99.0049Z" fill="white"/>
<path d="M66.7344 26.4023C66.7344 24.8383 65.4664 23.5703 63.9023 23.5703C62.3383 23.5703 61.0703 24.8383 61.0703 26.4023V33.6289C61.0703 35.193 62.3383 36.4609 63.9023 36.4609C65.4664 36.4609 66.7344 35.193 66.7344 33.6289V26.4023Z" fill="#202124"/>
<path fill-rule="evenodd" clip-rule="evenodd" d="M63.9023 24.5469C62.8776 24.5469 62.0469 25.3776 62.0469 26.4023V33.6289C62.0469 34.6537 62.8776 35.4844 63.9023 35.4844C64.9271 35.4844 65.7578 34.6537 65.7578 33.6289V26.4023C65.7578 25.3776 64.9271 24.5469 63.9023 24.5469ZM60.0938 26.4023C60.0938 24.2989 61.7989 22.5938 63.9023 22.5938C66.0058 22.5938 67.7109 24.2989 67.7109 26.4023V33.6289C67.7109 35.7323 66.0058 37.4375 63.9023 37.4375C61.7989 37.4375 60.0938 35.7323 60.0938 33.6289V26.4023Z" fill="white"/>
<path d="M56.4372 37.7047C57.3964 35.0692 60.3105 33.7104 62.9459 34.6696C65.5813 35.6288 66.9402 38.5429 65.981 41.1783L48.2119 89.9983C47.2527 92.6337 44.3387 93.9926 41.7032 93.0334C39.0678 92.0741 37.709 89.1601 38.6682 86.5247L56.4372 37.7047Z" fill="#202124"/>
<path fill-rule="evenodd" clip-rule="evenodd" d="M62.6119 35.5873C64.7405 36.3621 65.8381 38.7157 65.0633 40.8444L47.2943 89.6643C46.5196 91.793 44.1659 92.8905 42.0373 92.1157C39.9087 91.341 38.8111 88.9873 39.5859 86.8587L57.3549 38.0387C58.1297 35.9101 60.4833 34.8126 62.6119 35.5873ZM66.8987 41.5124C68.0423 38.3701 66.4222 34.8957 63.2799 33.752C60.1377 32.6083 56.6632 34.2285 55.5196 37.3707L37.7506 86.1907C36.6069 89.3329 38.227 92.8074 41.3693 93.9511C44.5115 95.0947 47.986 93.4746 49.1297 90.3323L66.8987 41.5124Z" fill="white"/>
<path d="M71.6834 37.6727L89.6049 86.5838C90.558 89.1854 89.2184 92.0666 86.6146 93.0143C84.0189 93.959 81.1482 92.6242 80.198 90.0305L62.2766 41.1194C61.3232 38.5178 62.6631 35.6365 65.2668 34.6889C67.8625 33.7441 70.733 35.0789 71.6834 37.6727Z" fill="#202124"/>
<path fill-rule="evenodd" clip-rule="evenodd" d="M70.7665 38.0086C70.0013 35.9205 67.6905 34.8459 65.6008 35.6065L65.6008 35.6065C63.5047 36.3694 62.4261 38.689 63.1935 40.7833L63.1935 40.7833L81.115 89.6945L81.115 89.6945C81.88 91.7825 84.191 92.8571 86.2807 92.0966C88.3768 91.3337 89.4553 89.0141 88.688 86.9197L70.7665 38.0086ZM64.9328 33.7712C68.0346 32.6422 71.4647 34.2373 72.6004 37.3366L72.6004 37.3367L90.5219 86.2478L89.6049 86.5838L90.5219 86.2478C91.6608 89.3565 90.06 92.7995 86.9487 93.9319C83.847 95.0608 80.4166 93.4659 79.2811 90.3664M79.2811 90.3664L61.3596 41.4553C61.3596 41.4553 61.3596 41.4553 61.3596 41.4553C60.2205 38.3465 61.8216 34.9036 64.9328 33.7712" fill="white"/>
<path d="M64 48.1276C68.099 48.1276 71.4219 44.8047 71.4219 40.7057C71.4219 36.6067 68.099 33.2838 64 33.2838C59.901 33.2838 56.5781 36.6067 56.5781 40.7057C56.5781 44.8047 59.901 48.1276 64 48.1276Z" fill="#202124"/>
<path fill-rule="evenodd" clip-rule="evenodd" d="M64 35.2369C60.9797 35.2369 58.5312 37.6854 58.5312 40.7057C58.5312 43.726 60.9797 46.1744 64 46.1744C67.0203 46.1744 69.4688 43.726 69.4688 40.7057C69.4688 37.6854 67.0203 35.2369 64 35.2369ZM54.625 40.7057C54.625 35.528 58.8223 31.3307 64 31.3307C69.1777 31.3307 73.375 35.528 73.375 40.7057C73.375 45.8834 69.1777 50.0807 64 50.0807C58.8223 50.0807 54.625 45.8834 54.625 40.7057Z" fill="white"/>
<defs>
<filter id="filter0_f_1081_1692" x="73.6169" y="53.5294" width="19.1893" height="9.82605" filterUnits="userSpaceOnUse" color-interpolation-filters="sRGB">
<feFlood flood-opacity="0" result="BackgroundImageFix"/>
<feBlend mode="normal" in="SourceGraphic" in2="BackgroundImageFix" result="shape"/>
<feGaussianBlur stdDeviation="0.23413" result="effect1_foregroundBlur_1081_1692"/>
</filter>
<filter id="filter1_f_1081_1692" x="79.7795" y="59.3918" width="13.845" height="17.3947" filterUnits="userSpaceOnUse" color-interpolation-filters="sRGB">
<feFlood flood-opacity="0" result="BackgroundImageFix"/>
<feBlend mode="normal" in="SourceGraphic" in2="BackgroundImageFix" result="shape"/>
<feGaussianBlur stdDeviation="0.351196" result="effect1_foregroundBlur_1081_1692"/>
</filter>
<filter id="filter2_f_1081_1692" x="75.01" y="51.1887" width="14.7891" height="4.31848" filterUnits="userSpaceOnUse" color-interpolation-filters="sRGB">
<feFlood flood-opacity="0" result="BackgroundImageFix"/>
<feBlend mode="normal" in="SourceGraphic" in2="BackgroundImageFix" result="shape"/>
<feGaussianBlur stdDeviation="0.175598" result="effect1_foregroundBlur_1081_1692"/>
</filter>
<filter id="filter3_f_1081_1692" x="84.5956" y="67.0523" width="9.76941" height="11.8826" filterUnits="userSpaceOnUse" color-interpolation-filters="sRGB">
<feFlood flood-opacity="0" result="BackgroundImageFix"/>
<feBlend mode="normal" in="SourceGraphic" in2="BackgroundImageFix" result="shape"/>
<feGaussianBlur stdDeviation="0.175598" result="effect1_foregroundBlur_1081_1692"/>
</filter>
<filter id="filter4_f_1081_1692" x="88.6742" y="51.3159" width="5.50329" height="4.60925" filterUnits="userSpaceOnUse" color-interpolation-filters="sRGB">
<feFlood flood-opacity="0" result="BackgroundImageFix"/>
<feBlend mode="normal" in="SourceGraphic" in2="BackgroundImageFix" result="shape"/>
<feGaussianBlur stdDeviation="0.23413" result="effect1_foregroundBlur_1081_1692"/>
</filter>
<filter id="filter5_f_1081_1692" x="88.8051" y="50.4189" width="3.80664" height="5.02783" filterUnits="userSpaceOnUse" color-interpolation-filters="sRGB">
<feFlood flood-opacity="0" result="BackgroundImageFix"/>
<feBlend mode="normal" in="SourceGraphic" in2="BackgroundImageFix" result="shape"/>
<feGaussianBlur stdDeviation="0.0585327" result="effect1_foregroundBlur_1081_1692"/>
</filter>
<filter id="filter6_f_1081_1692" x="90.228" y="51.4416" width="3.57886" height="5.5752" filterUnits="userSpaceOnUse" color-interpolation-filters="sRGB">
<feFlood flood-opacity="0" result="BackgroundImageFix"/>
<feBlend mode="normal" in="SourceGraphic" in2="BackgroundImageFix" result="shape"/>
<feGaussianBlur stdDeviation="0.175598" result="effect1_foregroundBlur_1081_1692"/>
</filter>
<filter id="filter7_f_1081_1692" x="93.2905" y="67.5253" width="6.06091" height="1.57129" filterUnits="userSpaceOnUse" color-interpolation-filters="sRGB">
<feFlood flood-opacity="0" result="BackgroundImageFix"/>
<feBlend mode="normal" in="SourceGraphic" in2="BackgroundImageFix" result="shape"/>
<feGaussianBlur stdDeviation="0.0585327" result="effect1_foregroundBlur_1081_1692"/>
</filter>
<filter id="filter8_f_1081_1692" x="93.0865" y="65.8574" width="0.952636" height="4.60895" filterUnits="userSpaceOnUse" color-interpolation-filters="sRGB">
<feFlood flood-opacity="0" result="BackgroundImageFix"/>
<feBlend mode="normal" in="SourceGraphic" in2="BackgroundImageFix" result="shape"/>
<feGaussianBlur stdDeviation="0.117065" result="effect1_foregroundBlur_1081_1692"/>
</filter>
<filter id="filter9_f_1081_1692" x="93.4688" y="65.1164" width="0.515942" height="1.45991" filterUnits="userSpaceOnUse" color-interpolation-filters="sRGB">
<feFlood flood-opacity="0" result="BackgroundImageFix"/>
<feBlend mode="normal" in="SourceGraphic" in2="BackgroundImageFix" result="shape"/>
<feGaussianBlur stdDeviation="0.0702391" result="effect1_foregroundBlur_1081_1692"/>
</filter>
<filter id="filter10_f_1081_1692" x="86.8098" y="53.1719" width="3.38867" height="3.45386" filterUnits="userSpaceOnUse" color-interpolation-filters="sRGB">
<feFlood flood-opacity="0" result="BackgroundImageFix"/>
<feBlend mode="normal" in="SourceGraphic" in2="BackgroundImageFix" result="shape"/>
<feGaussianBlur stdDeviation="0.117065" result="effect1_foregroundBlur_1081_1692"/>
</filter>
<filter id="filter11_f_1081_1692" x="89.5977" y="55.9547" width="1.16926" height="1.09736" filterUnits="userSpaceOnUse" color-interpolation-filters="sRGB">
<feFlood flood-opacity="0" result="BackgroundImageFix"/>
<feBlend mode="normal" in="SourceGraphic" in2="BackgroundImageFix" result="shape"/>
<feGaussianBlur stdDeviation="0.0702391" result="effect1_foregroundBlur_1081_1692"/>
</filter>
<filter id="filter12_f_1081_1692" x="93.0896" y="66.6316" width="6.55969" height="2.57739" filterUnits="userSpaceOnUse" color-interpolation-filters="sRGB">
<feFlood flood-opacity="0" result="BackgroundImageFix"/>
<feBlend mode="normal" in="SourceGraphic" in2="BackgroundImageFix" result="shape"/>
<feGaussianBlur stdDeviation="0.23413" result="effect1_foregroundBlur_1081_1692"/>
</filter>
<filter id="filter13_f_1081_1692" x="93.5282" y="65.2717" width="6.45471" height="3.40955" filterUnits="userSpaceOnUse" color-interpolation-filters="sRGB">
<feFlood flood-opacity="0" result="BackgroundImageFix"/>
<feBlend mode="normal" in="SourceGraphic" in2="BackgroundImageFix" result="shape"/>
<feGaussianBlur stdDeviation="0.175598" result="effect1_foregroundBlur_1081_1692"/>
</filter>
<filter id="filter14_f_1081_1692" x="82.684" y="56.116" width="3.33335" height="2.84067" filterUnits="userSpaceOnUse" color-interpolation-filters="sRGB">
<feFlood flood-opacity="0" result="BackgroundImageFix"/>
<feBlend mode="normal" in="SourceGraphic" in2="BackgroundImageFix" result="shape"/>
<feGaussianBlur stdDeviation="0.0351196" result="effect1_foregroundBlur_1081_1692"/>
</filter>
<filter id="filter15_f_1081_1692" x="87.0611" y="67.4685" width="3.05515" height="3.10813" filterUnits="userSpaceOnUse" color-interpolation-filters="sRGB">
<feFlood flood-opacity="0" result="BackgroundImageFix"/>
<feBlend mode="normal" in="SourceGraphic" in2="BackgroundImageFix" result="shape"/>
<feGaussianBlur stdDeviation="0.0351196" result="effect1_foregroundBlur_1081_1692"/>
</filter>
<filter id="filter16_d_1081_1692" x="82.9463" y="56.2146" width="3.08198" height="2.56184" filterUnits="userSpaceOnUse" color-interpolation-filters="sRGB">
<feFlood flood-opacity="0" result="BackgroundImageFix"/>
<feColorMatrix in="SourceAlpha" type="matrix" values="0 0 0 0 0 0 0 0 0 0 0 0 0 0 0 0 0 0 127 0" result="hardAlpha"/>
<feOffset dx="-0.0117065" dy="0.023413"/>
<feGaussianBlur stdDeviation="0.0117065"/>
<feComposite in2="hardAlpha" operator="out"/>
<feColorMatrix type="matrix" values="0 0 0 0 0.0156863 0 0 0 0 0.231373 0 0 0 0 0.0666667 0 0 0 0.7 0"/>
<feBlend mode="normal" in2="BackgroundImageFix" result="effect1_dropShadow_1081_1692"/>
<feBlend mode="normal" in="SourceGraphic" in2="effect1_dropShadow_1081_1692" result="shape"/>
</filter>
<filter id="filter17_d_1081_1692" x="87.3431" y="67.5188" width="2.74421" height="2.91731" filterUnits="userSpaceOnUse" color-interpolation-filters="sRGB">
<feFlood flood-opacity="0" result="BackgroundImageFix"/>
<feColorMatrix in="SourceAlpha" type="matrix" values="0 0 0 0 0 0 0 0 0 0 0 0 0 0 0 0 0 0 127 0" result="hardAlpha"/>
<feOffset dx="-0.0117065" dy="0.023413"/>
<feGaussianBlur stdDeviation="0.0117065"/>
<feComposite in2="hardAlpha" operator="out"/>
<feColorMatrix type="matrix" values="0 0 0 0 0.0156863 0 0 0 0 0.231373 0 0 0 0 0.0666667 0 0 0 0.7 0"/>
<feBlend mode="normal" in2="BackgroundImageFix" result="effect1_dropShadow_1081_1692"/>
<feBlend mode="normal" in="SourceGraphic" in2="effect1_dropShadow_1081_1692" result="shape"/>
</filter>
<filter id="filter18_f_1081_1692" x="83.3308" y="56.1585" width="2.59138" height="1.03187" filterUnits="userSpaceOnUse" color-interpolation-filters="sRGB">
<feFlood flood-opacity="0" result="BackgroundImageFix"/>
<feBlend mode="normal" in="SourceGraphic" in2="BackgroundImageFix" result="shape"/>
<feGaussianBlur stdDeviation="0.0117065" result="effect1_foregroundBlur_1081_1692"/>
</filter>
<filter id="filter19_f_1081_1692" x="85.4467" y="57.0248" width="0.543079" height="1.3322" filterUnits="userSpaceOnUse" color-interpolation-filters="sRGB">
<feFlood flood-opacity="0" result="BackgroundImageFix"/>
<feBlend mode="normal" in="SourceGraphic" in2="BackgroundImageFix" result="shape"/>
<feGaussianBlur stdDeviation="0.00292663" result="effect1_foregroundBlur_1081_1692"/>
</filter>
<filter id="filter20_f_1081_1692" x="88.4604" y="68.257" width="1.59492" height="2.20619" filterUnits="userSpaceOnUse" color-interpolation-filters="sRGB">
<feFlood flood-opacity="0" result="BackgroundImageFix"/>
<feBlend mode="normal" in="SourceGraphic" in2="BackgroundImageFix" result="shape"/>
<feGaussianBlur stdDeviation="0.0117065" result="effect1_foregroundBlur_1081_1692"/>
</filter>
<filter id="filter21_f_1081_1692" x="84.5121" y="56.5379" width="0.79292" height="0.544873" filterUnits="userSpaceOnUse" color-interpolation-filters="sRGB">
<feFlood flood-opacity="0" result="BackgroundImageFix"/>
<feBlend mode="normal" in="SourceGraphic" in2="BackgroundImageFix" result="shape"/>
<feGaussianBlur stdDeviation="0.0117065" result="effect1_foregroundBlur_1081_1692"/>
</filter>
<filter id="filter22_f_1081_1692" x="89.223" y="68.7987" width="0.5052" height="0.758923" filterUnits="userSpaceOnUse" color-interpolation-filters="sRGB">
<feFlood flood-opacity="0" result="BackgroundImageFix"/>
<feBlend mode="normal" in="SourceGraphic" in2="BackgroundImageFix" result="shape"/>
<feGaussianBlur stdDeviation="0.0117065" result="effect1_foregroundBlur_1081_1692"/>
</filter>
<filter id="filter23_f_1081_1692" x="83.7598" y="58.0629" width="1.79807" height="0.403357" filterUnits="userSpaceOnUse" color-interpolation-filters="sRGB">
<feFlood flood-opacity="0" result="BackgroundImageFix"/>
<feBlend mode="normal" in="SourceGraphic" in2="BackgroundImageFix" result="shape"/>
<feGaussianBlur stdDeviation="0.00585327" result="effect1_foregroundBlur_1081_1692"/>
</filter>
<filter id="filter24_f_1081_1692" x="87.7521" y="67.6403" width="1.25144" height="1.32822" filterUnits="userSpaceOnUse" color-interpolation-filters="sRGB">
<feFlood flood-opacity="0" result="BackgroundImageFix"/>
<feBlend mode="normal" in="SourceGraphic" in2="BackgroundImageFix" result="shape"/>
<feGaussianBlur stdDeviation="0.00585327" result="effect1_foregroundBlur_1081_1692"/>
</filter>
<filter id="filter25_f_1081_1692" x="82.6021" y="53.7664" width="10.7512" height="18.7145" filterUnits="userSpaceOnUse" color-interpolation-filters="sRGB">
<feFlood flood-opacity="0" result="BackgroundImageFix"/>
<feBlend mode="normal" in="SourceGraphic" in2="BackgroundImageFix" result="shape"/>
<feGaussianBlur stdDeviation="0.23413" result="effect1_foregroundBlur_1081_1692"/>
</filter>
<filter id="filter26_f_1081_1692" x="82.6021" y="53.7664" width="10.7512" height="18.7145" filterUnits="userSpaceOnUse" color-interpolation-filters="sRGB">
<feFlood flood-opacity="0" result="BackgroundImageFix"/>
<feBlend mode="normal" in="SourceGraphic" in2="BackgroundImageFix" result="shape"/>
<feGaussianBlur stdDeviation="0.23413" result="effect1_foregroundBlur_1081_1692"/>
</filter>
<linearGradient id="paint0_linear_1081_1692" x1="84.6935" y1="54.2568" x2="83.5333" y2="58.6057" gradientUnits="userSpaceOnUse">
<stop stop-color="#A8F0B9"/>
<stop offset="1" stop-color="#ADEEBC" stop-opacity="0"/>
</linearGradient>
<linearGradient id="paint1_linear_1081_1692" x1="90.9874" y1="71.3103" x2="87.28" y2="68.758" gradientUnits="userSpaceOnUse">
<stop stop-color="#A8F0B9"/>
<stop offset="1" stop-color="#ADEEBC" stop-opacity="0"/>
</linearGradient>
<radialGradient id="paint2_radial_1081_1692" cx="0" cy="0" r="1" gradientUnits="userSpaceOnUse" gradientTransform="translate(92.526 51.9738) rotate(-126.921) scale(0.910514 0.659809)">
<stop stop-color="white"/>
<stop offset="0.948484" stop-color="white" stop-opacity="0"/>
</radialGradient>
<radialGradient id="paint3_radial_1081_1692" cx="0" cy="0" r="1" gradientUnits="userSpaceOnUse" gradientTransform="translate(98.206 66.8137) rotate(-126.921) scale(0.910514 0.659809)">
<stop stop-color="white"/>
<stop offset="0.948484" stop-color="white" stop-opacity="0"/>
</radialGradient>
<radialGradient id="paint4_radial_1081_1692" cx="0" cy="0" r="1" gradientUnits="userSpaceOnUse" gradientTransform="translate(85.6735 57.9045) rotate(-157.024) scale(0.355231 0.646987)">
<stop stop-color="#93E19F"/>
<stop offset="1" stop-color="#93E19F" stop-opacity="0"/>
</radialGradient>
<radialGradient id="paint5_radial_1081_1692" cx="0" cy="0" r="1" gradientUnits="userSpaceOnUse" gradientTransform="translate(89.3352 67.8659) rotate(116.504) scale(0.355084 0.646723)">
<stop stop-color="#93E19F"/>
<stop offset="1" stop-color="#93E19F" stop-opacity="0"/>
</radialGradient>
<linearGradient id="paint6_linear_1081_1692" x1="86.1367" y1="56.9969" x2="85.1211" y2="57.4246" gradientUnits="userSpaceOnUse">
<stop stop-color="#E2DDE2"/>
<stop offset="1" stop-color="#E2DDE2" stop-opacity="0"/>
</linearGradient>
<linearGradient id="paint7_linear_1081_1692" x1="89.864" y1="68.3913" x2="89.0135" y2="68.7053" gradientUnits="userSpaceOnUse">
<stop stop-color="#373637"/>
<stop offset="1" stop-color="#373637" stop-opacity="0"/>
</linearGradient>
<linearGradient id="paint8_linear_1081_1692" x1="92.3151" y1="61.1213" x2="88.0926" y2="62.6799" gradientUnits="userSpaceOnUse">
<stop stop-color="#A8F0B9"/>
<stop offset="1" stop-color="#ADEEBC" stop-opacity="0"/>
</linearGradient>
<linearGradient id="paint9_linear_1081_1692" x1="92.3151" y1="61.1213" x2="88.0926" y2="62.6799" gradientUnits="userSpaceOnUse">
<stop stop-color="#A8F0B9"/>
<stop offset="1" stop-color="#ADEEBC" stop-opacity="0"/>
</linearGradient>
</defs>
</svg>
