<svg width="128" height="128" viewBox="0 0 128 128" fill="none" xmlns="http://www.w3.org/2000/svg">
<g clip-path="url(#clip0_1081_1692)">
<ellipse opacity="0.2" cx="64" cy="64.5547" rx="62.5" ry="62.4297" fill="black"/>
<ellipse cx="64" cy="63.5547" rx="62.5" ry="62.4297" fill="#073042"/>
<path d="M88.2859 58.1697C87.8893 57.3513 88.2268 56.3556 89.0537 55.9506C89.8722 55.554 90.8678 55.8915 91.2728 56.7184C91.6694 57.5369 91.3319 58.5326 90.505 58.9376C89.6781 59.3426 88.6909 58.9966 88.2859 58.1697ZM96.2933 74.6487C95.8967 73.8302 96.2342 72.8346 97.0611 72.4295C97.888 72.0245 98.8752 72.3705 99.2803 73.1974C99.6853 74.0243 99.3393 75.0115 98.5124 75.4165C97.6855 75.8215 96.6983 75.4756 96.2933 74.6487ZM97.0021 53.2758C91.7369 49.5126 84.8517 48.5338 78.4896 50.9892L95.8883 86.7906C101.761 83.3058 105.237 77.2897 105.533 70.8179L112.139 71.2904C112.519 71.3158 112.848 71.0289 112.873 70.6492C112.899 70.2695 112.612 69.9404 112.232 69.9151L105.541 69.4341C105.474 66.6159 104.799 63.7387 103.457 60.9795C102.115 58.2119 100.267 55.9084 98.0905 54.1112L101.854 48.5591C102.065 48.2469 101.98 47.8166 101.668 47.6057C101.356 47.3947 100.926 47.4791 100.715 47.7913L97.0021 53.2758" fill="#3DDC84"/>
<path d="M60.6772 37.6491C60.6772 35.8688 62.1201 34.4259 63.9005 34.4259C65.6808 34.4259 67.1237 35.8688 67.1237 37.6491C67.1237 39.4295 65.6808 40.8723 63.9005 40.8723C62.1201 40.8723 60.6772 39.4295 60.6772 37.6491Z" fill="white"/>
<path d="M98.6304 94.4183C98.5966 93.0345 98.276 91.6929 97.6685 90.4526L74.4899 42.7539C75.2409 41.2098 75.6712 39.4801 75.6712 37.6491C75.6712 32.924 72.8615 28.8485 68.8282 26.9753V20.4276C68.8282 17.7107 66.6175 15.5 63.9006 15.5C61.1836 15.5 58.9729 17.7107 58.9729 20.4276V26.9753C54.9397 28.8401 52.1299 32.9155 52.1299 37.6491C52.1299 39.4801 52.5602 41.2014 53.3112 42.7539L43.4896 62.9624C40.1145 60.4985 37.2626 57.5031 34.9844 54.0268C34.5119 53.3096 33.7609 52.8117 32.9087 52.6514C32.0565 52.4995 31.1705 52.7021 30.4786 53.2168L24.1587 57.8744C22.7918 58.8785 22.4712 60.777 23.4162 62.1945C27.0276 67.5863 31.7865 72.2776 37.2288 75.8468L30.1327 90.4441C29.5252 91.6929 29.2045 93.0261 29.1708 94.4099L29.0273 100.738C28.9936 102.088 29.7361 103.295 30.9511 103.894C32.1662 104.485 33.5753 104.316 34.6216 103.464L39.5155 99.4388C40.5702 98.5697 41.4477 97.4643 42.0468 96.2324L49.1936 81.517C53.9693 83.0273 58.9307 83.7952 63.9596 83.7952C68.9885 83.7952 73.9077 83.0442 78.6245 81.5507L85.7544 96.2324C86.3619 97.4812 87.2141 98.5528 88.2857 99.4388L93.1796 103.464C93.8124 103.978 94.5718 104.248 95.3396 104.248C95.8459 104.248 96.3606 104.13 96.8416 103.894C98.0566 103.303 98.7907 102.097 98.7654 100.738L98.6219 94.4099L98.6304 94.4183ZM61.9936 20.4361C61.9936 19.3814 62.8543 18.5207 63.909 18.5207C64.9637 18.5207 65.8244 19.3814 65.8244 20.4361V26.0556C65.2 25.9544 64.5587 25.8869 63.909 25.8869C63.2593 25.8869 62.618 25.9544 61.9936 26.0556V20.4361ZM63.909 28.8907C68.7354 28.8907 72.6674 32.8227 72.6674 37.6491C72.6674 42.4755 68.7438 46.4075 63.909 46.4075C59.0742 46.4075 55.1506 42.4755 55.1506 37.6491C55.1506 32.8227 59.0826 28.8907 63.909 28.8907ZM72.3468 68.6325C66.8707 69.9995 61.0402 69.9994 55.4881 68.5988L63.909 51.2676L72.3468 68.6325ZM95.5337 101.194C95.424 101.244 95.2637 101.278 95.095 101.143L90.2011 97.1184C89.467 96.5193 88.8848 95.7768 88.4713 94.9246L80.177 77.8634L78.9113 78.3022C74.1271 79.956 69.0982 80.7998 63.9681 80.7998C58.8379 80.7998 53.7668 79.9476 48.9236 78.2685L47.6579 77.8297L39.3467 94.933C38.9417 95.7768 38.3426 96.5362 37.617 97.1268L32.7231 101.143C32.5543 101.287 32.3856 101.244 32.2843 101.194C32.1746 101.143 32.048 101.034 32.0565 100.814L32.1999 94.4858C32.2252 93.5323 32.4446 92.6211 32.8581 91.7689L41.1355 74.733L39.9711 74.0158C34.4106 70.5985 29.5589 65.9325 25.9307 60.5239C25.88 60.4479 25.8885 60.3467 25.956 60.3045L32.2759 55.6468C32.2759 55.6468 32.3434 55.6131 32.394 55.6215C32.4531 55.63 32.4699 55.6637 32.4784 55.6806C35.2966 59.9754 38.9248 63.6036 43.2618 66.464L44.6962 67.4091L55.2772 45.6312C56.9225 47.4116 59.1079 48.6941 61.5802 49.192L51.2271 70.4973L52.9062 71.012C56.5175 72.1173 60.2386 72.6827 63.9681 72.6827C67.6976 72.6827 71.3849 72.1342 74.9287 71.0542L76.6163 70.5395L66.2463 49.192C68.7185 48.6941 70.8955 47.4116 72.5493 45.6312L94.9768 91.7773C95.3903 92.6295 95.6097 93.5408 95.635 94.4942L95.7784 100.823C95.7784 101.042 95.6518 101.152 95.5506 101.202L95.5337 101.194Z" fill="white"/>
</g>
<defs>
<clipPath id="clip0_1081_1692">
<rect width="128" height="128" fill="white"/>
</clipPath>
</defs>
</svg>
