<svg width="16" height="16" viewBox="0 0 16 16" fill="none" xmlns="http://www.w3.org/2000/svg">
<g clip-path="url(#clip0_1081_1702)">
<rect width="16" height="16" fill="#073042"/>
<path fill-rule="evenodd" clip-rule="evenodd" d="M11.38 4.43301C11.518 4.19386 11.8238 4.11192 12.063 4.24999C12.3021 4.38806 12.3841 4.69386 12.246 4.93301L11.124 6.87642C12.7149 7.84855 13.8179 9.5409 13.9794 11.5001C14.0021 11.7754 13.7761 12 13.5 12C13.2238 12 13.0026 11.7755 12.9754 11.5007C12.7248 8.9737 10.5929 6.99999 7.99997 6.99999C5.40706 6.99999 3.27513 8.9737 3.02459 11.5007C2.99734 11.7755 2.77611 12 2.49997 12C2.22383 12 1.9978 11.7754 2.02049 11.5001C2.18198 9.5421 3.28365 7.85064 4.87304 6.87821L3.74997 4.93301C3.6119 4.69386 3.69384 4.38806 3.93298 4.24999C4.17213 4.11192 4.47792 4.19386 4.61599 4.43301L5.76825 6.42877C6.45811 6.15217 7.21127 5.99999 7.99997 5.99999C8.78744 5.99999 9.53948 6.1517 10.2285 6.42747L11.38 4.43301Z" fill="white"/>
<path d="M2.5 11.5H13.5" stroke="white"/>
<rect x="5" y="9" width="1" height="1" rx="0.5" fill="white"/>
<rect x="10" y="9" width="1" height="1" rx="0.5" fill="white"/>
</g>
<defs>
<clipPath id="clip0_1081_1702">
<rect width="16" height="16" fill="white"/>
</clipPath>
</defs>
</svg>
