<svg width="22" height="22" viewBox="0 0 22 22" fill="none" xmlns="http://www.w3.org/2000/svg">
<path d="M21.0866 9.23535C19.2596 6.63104 16.8324 4.50489 14.0103 3.03661C11.1881 1.56834 8.05395 0.801119 4.87271 0.799805C4.29556 0.799805 3.71157 0.825205 3.13833 0.875985C3.03338 0.885234 2.93273 0.921966 2.8465 0.982482C2.76027 1.043 2.6915 1.12516 2.64712 1.2207C1.18578 4.3729 0.576794 7.85327 0.880957 11.3144C1.18512 14.7755 2.39179 18.0963 4.38052 20.9453C4.43583 21.0242 4.50937 21.0886 4.59489 21.1329C4.68041 21.1773 4.77538 21.2004 4.87173 21.2002C4.88933 21.2005 4.90693 21.1998 4.92446 21.1982C8.38584 20.8899 11.7055 19.6778 14.5512 17.6832C17.3969 15.6887 19.6687 12.9816 21.1393 9.833C21.1838 9.73754 21.2024 9.63203 21.1931 9.5271C21.1839 9.42218 21.1471 9.32155 21.0866 9.23535ZM19.3852 8.97882L13.6295 8.98041C11.5785 6.09857 8.8981 3.72165 5.79171 2.02991C8.41907 2.16575 10.9881 2.85498 13.3307 4.05247C15.6732 5.24997 17.7364 6.92872 19.3852 8.97882ZM3.51132 2.24188C7.18343 3.86039 10.3489 6.44285 12.6717 9.71521C11.8292 14.3009 6.59561 18.5605 5.02529 19.7459C3.35509 17.1768 2.34328 14.236 2.07923 11.1832C1.81518 8.13039 2.30703 5.05953 3.51132 2.24188ZM7.05734 19.659C9.39108 17.7017 12.9676 14.1498 13.8131 10.1797H19.6172C18.3412 12.5797 16.5558 14.6717 14.3862 16.3092C12.2166 17.9466 9.71526 19.0899 7.05734 19.659Z" fill="#0C0C0D"/>
</svg>
