<svg width="16" height="16" viewBox="0 0 16 16" fill="none" xmlns="http://www.w3.org/2000/svg">
<path fill-rule="evenodd" clip-rule="evenodd" d="M5.85363 2.35355C6.04889 2.15829 6.04889 1.84171 5.85363 1.64645C5.65837 1.45118 5.34178 1.45118 5.14652 1.64645L1.64652 5.14645L1.29297 5.5L1.64652 5.85355L5.14652 9.35355C5.34178 9.54882 5.65837 9.54882 5.85363 9.35355C6.04889 9.15829 6.04889 8.84171 5.85363 8.64645L3.20718 6H10.5001C12.4331 6 14.0001 7.567 14.0001 9.5C14.0001 11.433 12.4331 13 10.5001 13H5.50008C5.22393 13 5.00008 13.2239 5.00008 13.5C5.00008 13.7761 5.22393 14 5.50008 14H10.5001C12.9854 14 15.0001 11.9853 15.0001 9.5C15.0001 7.01472 12.9854 5 10.5001 5H3.20718L5.85363 2.35355Z" fill="#CED0D6"/>
</svg>
