<svg xmlns="http://www.w3.org/2000/svg" width="16" height="16" viewBox="0 0 16 16">
  <g fill="none" fill-rule="evenodd">
    <path fill="#B99BF8" fill-opacity=".6" d="M12.9481676,4.77609315 L14.8812259,6.7091515 C14.9592202,7.12753245 15,7.55900381 15,8 C15,11.866 11.866,15 8,15 C4.134,15 1,11.866 1,8 C1,4.134 4.134,1 8,1 C8.44099619,1 8.87246755,1.04077979 9.29084882,1.1187741 L11.10969,2.93761552 L9.041923,5.00538247 L10.8804006,6.8438601 L12.9481676,4.77609315 Z"/>
    <path fill="#231F20" fill-opacity=".7" d="M0.9974,2.8021 C0.9974,3.83569336 1.23855513,4.8771 2.5354,4.8771 C3.83224487,4.8771 4,3.4641 4,2.7921 C4,2.1061 3.90228271,0.7461 2.5244,0.7461 C1.14651729,0.7461 0.9974,1.76850664 0.9974,2.8021 Z M1,5 C1.008,5.074 1.00713333,6.074 0.9974,8 L0.0004,8 L0.0004,0.0001 L0.9974,0.0001 L0.9974,0.7461 C1.36693099,0.248766667 1.93993099,0.0001 2.7164,0.0001 C3.88110352,0.0001 5.0004,0.578186035 5.0004,2.8021 C5.0004,5.02601396 3.65454102,5.6231 2.7164,5.6231 C2.09097266,5.6231 1.51883932,5.4154 1,5 Z" transform="translate(6 5)"/>
    <path fill="#231F20" fill-opacity=".7" d="M13.4360355,2.44974747 L16.4360355,2.44974747 L16.4360355,3.44974747 L13.4360355,3.44974747 L13.4360355,6.44974747 L12.4360355,6.44974747 L12.4360355,3.44974747 L9.43603547,3.44974747 L9.43603547,2.44974747 L12.4360355,2.44974747 L12.4360355,-0.550252532 L13.4360355,-0.550252532 L13.4360355,2.44974747 Z" transform="rotate(45 12.936 2.95)"/>
  </g>
</svg>
