<!-- Copyright 2000-2024 JetBrains s.r.o. and contributors. Use of this source code is governed by the Apache 2.0 license. -->
<svg width="32" height="32" viewBox="0 0 32 32" fill="none" xmlns="http://www.w3.org/2000/svg">
<path fill-rule="evenodd" clip-rule="evenodd" d="M16 2C22 2 22 4 22 8L22 13C22 14.6569 20.6569 16 19 16H13C10.2386 16 8 18.2386 8 21V22C4 22 2 22 2 16C2 9.99997 4 9.99997 8 9.99997L15 10C15.5523 10 16 9.55228 16 9C16 8.44771 15.5523 8 15 8H10C10 4 10 2 16 2ZM13 6C13.5523 6 14 5.55228 14 5C14 4.44772 13.5523 4 13 4C12.4477 4 12 4.44772 12 5C12 5.55228 12.4477 6 13 6Z" fill="#548AF7"/>
<path fill-rule="evenodd" clip-rule="evenodd" d="M24 10V13C24 15.7614 21.7614 18 19 18H13C11.3431 18 10 19.3431 10 21L10 24C9.99893 28 10 30 16 30C22 30 22 28 22 24.0001L17 24C16.4477 24 16 23.5523 16 23C16 22.4477 16.4477 22 17 22L24 22C28 22.0011 30 22 30 16C30 10 27.9999 10 24 10ZM19 28C19.5523 28 20 27.5523 20 27C20 26.4477 19.5523 26 19 26C18.4477 26 18 26.4477 18 27C18 27.5523 18.4477 28 19 28Z" fill="#F2C55C"/>
</svg>
