<svg xmlns="http://www.w3.org/2000/svg" width="16" height="16" viewBox="0 0 16 16">
  <g fill="none" fill-opacity=".9" transform="translate(1 1)">
    <path fill="#40A0CF" d="M6.91022782,0.0258929487 C6.37000109,0.0264652608 5.83075904,0.0719962659 5.2980847,0.162014559 C3.87043029,0.411472936 3.61125094,0.933622118 3.61125094,1.89655803 L3.61125094,3.1683132 L6.98491847,3.1683132 L6.98491847,3.5922176 L2.34509057,3.5922176 C1.32502959,3.56974186 0.436201508,4.28320156 0.237499481,5.28397479 C-0.0791784114,6.39223146 -0.0791784114,7.56702328 0.237499481,8.67527995 C0.330009274,9.60726159 1.09474199,10.3288099 2.03052265,10.3670511 L3.19043766,10.3670511 L3.19043766,8.84246671 C3.22234371,7.69765451 4.15284456,6.78248066 5.29802875,6.76959139 L8.6678079,6.76959139 C9.1164415,6.76870271 9.54631584,6.58948597 9.86271951,6.27142682 C10.1791232,5.95336768 10.3560942,5.52256395 10.3546417,5.07393182 L10.3546417,1.89655803 C10.2917932,0.983846775 9.57841181,0.250288445 8.6678079,0.162014559 C8.08672368,0.068085904 7.49884511,0.0225557014 6.91022782,0.0258929487 Z M5.08567792,1.04873523 C5.34294325,1.04759898 5.57554486,1.20159413 5.67496446,1.43887557 C5.77438406,1.67615701 5.72102999,1.949966 5.53979414,2.13255928 C5.3585583,2.31515256 5.08515505,2.37054826 4.84713837,2.27290199 C4.60912168,2.17525572 4.45339517,1.94380967 4.45261173,1.68654303 C4.45189759,1.33584511 4.73498444,1.05063797 5.08567792,1.04873523 Z"/>
    <path fill="#FFC900" d="M10.7754409,5.07395919 C10.7562488,6.23123984 9.82504854,7.16601208 8.66784986,7.18963478 L5.29807071,7.18963478 C4.36858581,7.20292244 3.61967392,7.95575276 3.61123695,8.88529435 L3.61123695,12.0626542 C3.72150753,12.9461818 4.41513055,13.643434 5.29807071,13.7583137 C6.39569633,14.0976882 7.57022424,14.0976882 8.66784986,13.7583137 C9.55558536,13.6532156 10.2542196,12.950926 10.3546836,12.0626542 L10.3546836,10.7909689 L6.98493245,10.7909689 L6.98493245,10.3670645 L12.0415733,10.3670645 C13.0220629,10.3670645 13.3874457,9.6906246 13.7284071,8.67529334 C14.0745871,7.57136148 14.0745871,6.38792004 13.7284071,5.28398818 C13.674705,4.37470095 12.9506997,3.64857649 12.0415733,3.592217 L10.7754409,3.592217 L10.7754409,5.07395919 Z M8.88020069,11.6388057 C9.13781865,11.6376679 9.37066703,11.7920816 9.46986085,12.0298397 C9.56905467,12.2675977 9.51499058,12.5417128 9.33295012,12.7240026 C9.15090967,12.9062924 8.87686891,12.9607317 8.63897529,12.8618634 C8.40108167,12.7629952 8.24634933,12.5303584 8.24713449,12.2727391 C8.24694519,12.1047081 8.31355397,11.9434925 8.43229119,11.8245979 C8.55102841,11.7057033 8.71215558,11.638881 8.8801867,11.6388477 L8.88020069,11.6388057 Z"/>
  </g>
</svg>
