<!-- Copyright 2000-2025 JetBrains s.r.o. and contributors. Use of this source code is governed by the Apache 2.0 license. -->
<svg width="20" height="20" viewBox="0 0 20 20" fill="none" xmlns="http://www.w3.org/2000/svg">
<path fill-rule="evenodd" clip-rule="evenodd" d="M9.02832 0.540382C9.63237 0.204801 10.3676 0.204801 10.9717 0.540382L17.9717 4.42905C18.6063 4.78185 19 5.45095 19 6.1771V13.8236L18.9951 13.9593C18.9494 14.6323 18.5666 15.241 17.9717 15.5716L10.9717 19.4603L10.8564 19.5199C10.2759 19.7951 9.59454 19.7749 9.02832 19.4603L2.02832 15.5716C1.43343 15.241 1.0506 14.6323 1.00488 13.9593L1 13.8236V6.1771C1.00002 5.49628 1.34583 4.86524 1.91211 4.49839L2.02832 4.42905L9.02832 0.540382ZM2.5 13.8236C2.50005 14.0051 2.59818 14.1729 2.75684 14.2611L9.25 17.8675V15.139L5.51465 13.0638C5.237 12.9096 5.05094 12.6341 5.00879 12.3246L5 12.1898V8.07944L2.5 6.69077V13.8236ZM15 8.07944V12.1898L14.9912 12.3246C14.9491 12.6341 14.763 12.9096 14.4854 13.0638L10.75 15.139V17.8675L17.2432 14.2611C17.4018 14.1729 17.4999 14.0051 17.5 13.8236V6.69077L15 8.07944ZM7 8.39878V11.6009L10 13.2669L13 11.6009V8.39878L10 6.73276L7 8.39878ZM10.2432 1.85093C10.0922 1.76703 9.90785 1.76703 9.75684 1.85093L3.31543 5.42905L5.77148 6.79331L9.51465 4.71421C9.81649 4.54667 10.1835 4.54667 10.4854 4.71421L14.2275 6.79331L16.6836 5.42808L10.2432 1.85093Z" fill="#6C707E"/>
</svg>
