<!-- Copyright 2000-2025 JetBrains s.r.o. and contributors. Use of this source code is governed by the Apache 2.0 license. -->
<svg fill="none" width="16" height="16" viewBox="0 0 16 16" xmlns="http://www.w3.org/2000/svg">
    <path d="m8.58 0.574a1.08 1.08 0 0 0-1.08 0l-5.73 3.3a1.08 1.08 0 0 0-0.259 0.208l2.4 1.38c0.0579-0.0627 0.126-0.117 0.202-0.161l3.5-2.02a0.864 0.864 0 0 1 0.864 0l3.5 2.02c0.0759 0.0439 0.143 0.0984 0.202 0.161l2.4-1.38a1.08 1.08 0 0 0-0.259-0.208zm6.21 3.88-2.42 1.38c0.0164 0.0671 0.0251 0.137 0.0251 0.207v3.85a0.864 0.864 0 0 1-0.423 0.744l-3.51 2.08a0.864 0.864 0 0 1-0.208 0.0888v2.73a1.08 1.08 0 0 0 0.309-0.123l5.75-3.4a1.08 1.08 0 0 0 0.531-0.928v-6.28c0-0.122-0.021-0.242-0.0601-0.355zm-13.6 0.355c0-0.122 0.021-0.242 0.0601-0.355l2.42 1.38c-0.0164 0.0671-0.0251 0.137-0.0251 0.207v4.03a0.864 0.864 0 0 0 0.45 0.759l3.47 1.9c0.0692 0.0376 0.142 0.0653 0.217 0.0832v2.74a1.08 1.08 0 0 1-0.328-0.115l-5.71-3.1a1.08 1.08 0 0 1-0.563-0.944zm6.06-4.61a1.52 1.52 0 0 1 1.51 0l5.73 3.3a1.51 1.51 0 0 1 0.757 1.31v6.28a1.51 1.51 0 0 1-0.743 1.3l-5.75 3.4a1.52 1.52 0 0 1-1.5 0.0259l-5.71-3.1a1.51 1.51 0 0 1-0.788-1.33v-6.58a1.51 1.51 0 0 1 0.757-1.31l5.73-3.3zm-1.86 5.96 2.29-1.32c0.203-0.117 0.455-0.117 0.658 0l2.29 1.32a0.648 0.648 0 0 1 0.325 0.561v2.52c0 0.228-0.121 0.44-0.318 0.557l-2.3 1.36a0.659 0.659 0 0 1-0.651 0.0112l-2.27-1.24a0.648 0.648 0 0 1-0.338-0.568v-2.64c0-0.231 0.124-0.445 0.325-0.561z" clip-rule="evenodd" fill="#CED0D6" fill-rule="evenodd"/>
</svg>
