<!-- Copyright 2000-2025 JetBrains s.r.o. and contributors. Use of this source code is governed by the Apache 2.0 license. -->
<svg fill="none" width="20" height="20" viewBox="0 0 20 20" xmlns="http://www.w3.org/2000/svg">
    <path d="m10.7 0.72a1.35 1.35 0 0 0-1.35 0l-7.16 4.12a1.35 1.35 0 0 0-0.324 0.26l3 1.72c0.0724-0.0784 0.157-0.146 0.252-0.201l4.37-2.52a1.08 1.08 0 0 1 1.08 0l4.37 2.52c0.0949 0.0549 0.179 0.123 0.252 0.201l3-1.72a1.35 1.35 0 0 0-0.324-0.26zm7.76 4.85-3.02 1.73c0.0205 0.0838 0.0314 0.171 0.0314 0.259v4.81a1.08 1.08 0 0 1-0.529 0.93l-4.39 2.6a1.08 1.08 0 0 1-0.26 0.111v3.41a1.35 1.35 0 0 0 0.386-0.154l7.19-4.25a1.35 1.35 0 0 0 0.663-1.16v-7.85c0-0.153-0.0262-0.303-0.0751-0.443zm-17 0.444c0-0.153 0.0262-0.303 0.0751-0.443l3.02 1.73c-0.0205 0.0838-0.0314 0.171-0.0314 0.259v5.04a1.08 1.08 0 0 0 0.562 0.948l4.34 2.38c0.0865 0.047 0.177 0.0816 0.271 0.104v3.42a1.35 1.35 0 0 1-0.41-0.144l-7.13-3.88a1.35 1.35 0 0 1-0.704-1.18zm7.57-5.76a1.9 1.9 0 0 1 1.89 0l7.16 4.12a1.89 1.89 0 0 1 0.946 1.64v7.85a1.89 1.89 0 0 1-0.928 1.62l-7.19 4.25a1.9 1.9 0 0 1-1.87 0.0324l-7.13-3.88a1.89 1.89 0 0 1-0.985-1.66v-8.22a1.89 1.89 0 0 1 0.946-1.64l7.16-4.12zm-2.33 7.45 2.86-1.65c0.254-0.146 0.568-0.146 0.822 0l2.86 1.65a0.81 0.81 0 0 1 0.406 0.701v3.15c0 0.285-0.151 0.55-0.398 0.696l-2.88 1.7a0.823 0.823 0 0 1-0.813 0.014l-2.84-1.55a0.81 0.81 0 0 1-0.423-0.71v-3.3c0-0.289 0.155-0.556 0.406-0.701z"
          clip-rule="evenodd" fill="#CED0D6" fill-rule="evenodd"/>
</svg>
