<svg width="16" height="16" viewBox="0 0 16 16" fill="none" xmlns="http://www.w3.org/2000/svg">
<path d="M7.49971 1C7.77586 1 7.99971 1.22386 7.99971 1.5V2.56574L8.72236 2.08397C8.95213 1.9308 9.26256 1.99289 9.41574 2.22265C9.56892 2.45241 9.50683 2.76285 9.27706 2.91603L7.99971 3.76759V7.13413L10.9154 5.45076L11.0142 3.91876C11.032 3.64319 11.2698 3.43421 11.5453 3.45198C11.8209 3.46975 12.0299 3.70755 12.0121 3.98312L11.9562 4.84984L12.8792 4.31697C13.1183 4.1789 13.4241 4.26083 13.5622 4.49998C13.7003 4.73913 13.6183 5.04492 13.3792 5.18299L12.4562 5.71586L13.2348 6.10081C13.4823 6.22321 13.5837 6.52309 13.4614 6.77063C13.339 7.01817 13.0391 7.11962 12.7915 6.99722L11.4154 6.31679L8.49965 8.00019L11.4147 9.68321L12.7909 9.00278C13.0384 8.88038 13.3383 8.98183 13.4607 9.22937C13.5831 9.4769 13.4817 9.77679 13.2341 9.89919L12.4556 10.2841L13.3785 10.817C13.6177 10.9551 13.6996 11.2609 13.5615 11.5C13.4235 11.7392 13.1177 11.8211 12.8785 11.683L11.9556 11.1502L12.0115 12.0169C12.0292 12.2924 11.8203 12.5302 11.5447 12.548C11.2691 12.5658 11.0313 12.3568 11.0135 12.0812L10.9147 10.5492L7.99971 8.86625V12.2324L9.27706 13.084C9.50683 13.2372 9.56892 13.5476 9.41574 13.7774C9.26256 14.0071 8.95213 14.0692 8.72236 13.916L7.99971 13.4343V14.5C7.99971 14.7761 7.77586 15 7.49971 15C7.22357 15 6.99971 14.7761 6.99971 14.5V13.4343L6.27706 13.916C6.0473 14.0692 5.73687 14.0071 5.58369 13.7774C5.43051 13.5476 5.4926 13.2372 5.72236 13.084L6.99971 12.2324V8.86618L4.08464 10.5492L3.98583 12.0812C3.96806 12.3568 3.73026 12.5658 3.45469 12.548C3.17912 12.5302 2.97013 12.2924 2.98791 12.0168L3.0438 11.1501L2.12085 11.683C1.8817 11.8211 1.5759 11.7391 1.43783 11.5C1.29976 11.2608 1.3817 10.955 1.62085 10.817L2.5438 10.2841L1.76526 9.89915C1.51772 9.77675 1.41627 9.47687 1.53867 9.22933C1.66106 8.98179 1.96095 8.88034 2.20848 9.00274L3.58464 9.68317L6.49965 8.00019L3.58399 6.31683L2.20784 6.99726C1.9603 7.11966 1.66041 7.01821 1.53802 6.77067C1.41563 6.52313 1.51708 6.22325 1.76461 6.10085L2.54316 5.7159L1.6202 5.18303C1.38105 5.04496 1.29912 4.73917 1.43719 4.50002C1.57526 4.26087 1.88105 4.17894 2.1202 4.31701L3.04316 4.84988L2.98726 3.98316C2.96949 3.70759 3.17848 3.46979 3.45405 3.45202C3.72962 3.43425 3.96742 3.64323 3.98519 3.9188L4.08399 5.4508L6.99971 7.1342V3.76759L5.72236 2.91603C5.4926 2.76285 5.43051 2.45241 5.58369 2.22265C5.73687 1.99289 6.0473 1.9308 6.27706 2.08397L6.99971 2.56574V1.5C6.99971 1.22386 7.22357 1 7.49971 1Z" fill="#3574F0"/>
</svg>
