<!-- Copyright 2000-2025 JetBrains s.r.o. and contributors. Use of this source code is governed by the Apache 2.0 license. -->
<svg width="16" height="16" viewBox="0 0 16 16" fill="none" xmlns="http://www.w3.org/2000/svg">
<path fill-rule="evenodd" clip-rule="evenodd" d="M11 3C11.5523 3 12 3.44772 12 4V5H15.5C15.7761 5 16 5.22386 16 5.5C16 5.77614 15.7761 6 15.5 6H12V8H11V4H7C5.34315 4 4 5.34315 4 7V9C4 10.6569 5.34315 12 7 12H8V13H7C5.13616 13 3.57002 11.7252 3.12598 10H1C0.447715 10 0 9.55228 0 9V7C0 6.44772 0.447715 6 1 6H3.12598C3.57002 4.27477 5.13616 3 7 3H11ZM1 9H3V7H1V9Z" fill="#6C707E"/>
<path d="M11 8C9.34315 8 8 9.34315 8 11V12H7C5.34315 12 4 10.6569 4 9V7C4 5.34315 5.34315 4 7 4H11V8Z" fill="#EBECF0"/>
<path d="M3 9H1V7H3V9Z" fill="#EBECF0"/>
<g clip-path="url(#clip0_22004_11216)">
<rect x="10" y="10" width="5" height="5" rx="1" fill="#EDF3FF"/>
<path fill-rule="evenodd" clip-rule="evenodd" d="M14 9C15.1046 9 16 9.89543 16 11V14C16 15.1046 15.1046 16 14 16H11C9.89543 16 9 15.1046 9 14V11C9 9.89543 9.89543 9 11 9H14ZM13 12H13.5C13.7761 12 14 12.2239 14 12.5V12.5C14 12.7761 13.7761 13 13.5 13H13V15H14C14.5523 15 15 14.5523 15 14V11C15 10.4477 14.5523 10 14 10H13V12ZM11 10C10.4477 10 10 10.4477 10 11V14C10 14.5523 10.4477 15 11 15H12V14H11.5C11.2239 14 11 13.7761 11 13.5V13.5C11 13.2239 11.2239 13 11.5 13H12V12H11.5C11.2239 12 11 11.7761 11 11.5V11.5C11 11.2239 11.2239 11 11.5 11H12V10H11Z" fill="#3574F0"/>
</g>
<defs>
<clipPath id="clip0_22004_11216">
<rect width="7" height="7" fill="white" transform="translate(9 9)"/>
</clipPath>
</defs>
</svg>
