<!-- Copyright 2000-2024 JetBrains s.r.o. and contributors. Use of this source code is governed by the Apache 2.0 license. -->
<svg width="16" height="16" viewBox="0 0 16 16" fill="none" xmlns="http://www.w3.org/2000/svg">
<path d="M11.32 15.9996V15.1428L13.7017 12.7678C13.9379 12.5271 14.1335 12.3134 14.2887 12.1268C14.4439 11.9401 14.5608 11.7613 14.6396 11.5904C14.7183 11.4172 14.7576 11.2339 14.7576 11.0405C14.7576 10.8178 14.7059 10.6267 14.6025 10.467C14.5012 10.3073 14.3618 10.1836 14.1841 10.0959C14.0065 10.0082 13.8063 9.96431 13.5836 9.96431C13.3497 9.96431 13.1451 10.0127 12.9696 10.1094C12.7942 10.2038 12.6581 10.3388 12.5614 10.5142C12.467 10.6896 12.4197 10.8977 12.4197 11.1383H11.293C11.293 10.7065 11.3919 10.3298 11.5898 10.0082C11.7878 9.68655 12.0599 9.43803 12.4063 9.26261C12.7549 9.08493 13.1529 8.99609 13.6005 8.99609C14.0548 8.99609 14.454 9.08268 14.7981 9.25586C15.1422 9.42904 15.4099 9.66519 15.601 9.96431C15.7944 10.2634 15.8912 10.6042 15.8912 10.9865C15.8912 11.2429 15.8428 11.4959 15.7461 11.7456C15.6494 11.993 15.4785 12.2685 15.2333 12.5721C14.9882 12.8757 14.6463 13.2423 14.2077 13.6719L12.9595 14.9538V15.0044H15.9991V15.9996H11.32Z" fill="#3574F0"/>
<path fill-rule="evenodd" clip-rule="evenodd" d="M7 4H11V9.12125C11.2618 8.81018 11.5824 8.5591 11.9533 8.37108C11.9688 8.36317 11.9844 8.3554 12 8.34776V6H15.5C15.7761 6 16 5.77614 16 5.5C16 5.22386 15.7761 5 15.5 5H12V4C12 3.44772 11.5523 3 11 3H7C5.13616 3 3.57006 4.27477 3.12602 6H1C0.447715 6 0 6.44772 0 7V9C0 9.55228 0.447715 10 1 10H3.12602C3.57006 11.7252 5.13616 13 7 13H10V12H7C5.34315 12 4 10.6569 4 9V7C4 5.34315 5.34315 4 7 4ZM3 9V7H1V9H3Z" fill="#6C707E"/>
</svg>
