<!-- Copyright 2000-2024 JetBrains s.r.o. and contributors. Use of this source code is governed by the Apache 2.0 license. -->
<svg width="16" height="16" viewBox="0 0 16 16" xmlns="http://www.w3.org/2000/svg">
 <path d="m15.3 8.37c0.0124-0.929-1.07-1.86-2.82-1.84-0.0497-2.83-0.0562-3.05-0.0562-3.05l-3-0.00669c0.0454-2.11-0.878-2.92-2.03-2.97-2.46 0.102-2.04 3.02-2.04 3.02l-2.85-0.00103 0.00656 2.94c3.88-0.315 3.83 4.54-0.0312 4.17l-0.0147 2.83 6.37 0.017" fill="none" stroke="#6c707e" stroke-linejoin="round"/>
 <g fill="#3574f0">
  <path d="m14 11.5c0 0.276-0.224 0.5-0.5 0.5h-1c-0.276 0-0.5-0.224-0.5-0.5s0.224-0.5 0.5-0.5h1c0.276 0 0.5 0.224 0.5 0.5z"/>
  <path d="m13.5 14c0.276 0 0.5-0.224 0.5-0.5s-0.224-0.5-0.5-0.5h-1c-0.276 0-0.5 0.224-0.5 0.5s0.224 0.5 0.5 0.5z"/>
  <path d="m10 9.49c0-0.276 0.224-0.5 0.5-0.5h5c0.276 0 0.5 0.224 0.5 0.5v6c0 0.276-0.224 0.5-0.5 0.5h-5c-0.276 0-0.5-0.224-0.5-0.5zm1 0.5v5h4v-5z" clip-rule="evenodd" fill-rule="evenodd"/>
 </g>
</svg>
