<!-- Copyright 2000-2023 JetBrains s.r.o. and contributors. Use of this source code is governed by the Apache 2.0 license. -->
<svg width="16" height="16" viewBox="0 0 16 16" fill="none" xmlns="http://www.w3.org/2000/svg">
<path fill-rule="evenodd" clip-rule="evenodd" d="M9.05001 12C9.28164 10.8589 10.2905 10 11.5 10H13.5C13.7761 10 14 10.2239 14 10.5V11H15.5C15.7761 11 16 11.2239 16 11.5C16 11.7761 15.7761 12 15.5 12H14V14H15.5C15.7761 14 16 14.2239 16 14.5C16 14.7761 15.7761 15 15.5 15H14V15.5C14 15.7761 13.7761 16 13.5 16H11.5C10.2905 16 9.28164 15.1411 9.05001 14H8.5C8.22386 14 8 13.7761 8 13.5V12.5C8 12.2239 8.22386 12 8.5 12H9.05001ZM10 13.5V12.5C10 11.6716 10.6716 11 11.5 11H13V15H11.5C10.6716 15 10 14.3284 10 13.5Z" fill="#3574F0"/>
<path d="M1 3.86667C1 2.83574 1.73127 2 2.63333 2H6.1217C6.39413 2 6.65477 2.11115 6.84336 2.30775L8.46667 4L13 4C14.1046 4 15 4.89543 15 6V10H14.9146C14.7087 9.4174 14.1531 9 13.5 9H11.5C10.0995 9 8.89257 9.82183 8.33277 11.0092C7.58305 11.0924 7 11.7281 7 12.5V13.5C7 13.6753 7.03008 13.8436 7.08535 14H2.63333C1.73127 14 1 13.1643 1 12.1333V3.86667Z" fill="#EBECF0"/>
<path d="M2.63333 3L6.1217 3L8.04022 5H13C13.5523 5 14 5.44771 14 6V9.08535C14.4262 9.236 14.764 9.57379 14.9146 10H15V6C15 4.89543 14.1046 4 13 4L8.46667 4L6.84336 2.30775C6.65477 2.11115 6.39413 2 6.1217 2H2.63333C1.73127 2 1 2.83574 1 3.86667V12.1333C1 13.1643 1.73127 14 2.63333 14H7.08535C7.03008 13.8436 7 13.6753 7 13.5V13H2.63333C2.40481 13 2 12.7416 2 12.1333V3.86667C2 3.25841 2.40481 3 2.63333 3Z" fill="#6C707E"/>
</svg>
