<!-- Copyright 2000-2026 JetBrains s.r.o. and contributors. Use of this source code is governed by the Apache 2.0 license. -->
<svg width="16" height="16" viewBox="0 0 16 16" fill="none" xmlns="http://www.w3.org/2000/svg"><defs><mask id="cutout-mask"><rect width="16" height="16" fill="white"/><g stroke="black" stroke-width="3" stroke-linejoin="round" stroke-linecap="round"><path d="M8.14645 12.1464C7.95118 12.3417 7.95118 12.6583 8.14645 12.8536C8.34171 13.0488 8.65829 13.0488 8.85355 12.8536L12 9.70711V11C12 11.2761 12.2239 11.5 12.5 11.5C12.7761 11.5 13 11.2761 13 11V8.5C13 8.22386 12.7761 8 12.5 8H10C9.72386 8 9.5 8.22386 9.5 8.5C9.5 8.77614 9.72386 9 10 9H11.2929L8.14645 12.1464ZM12.7071 15L15.8536 11.8536C16.0488 11.6583 16.0488 11.3417 15.8536 11.1464C15.6583 10.9512 15.3417 10.9512 15.1464 11.1464L12 14.2929V13C12 12.7239 11.7761 12.5 11.5 12.5C11.2239 12.5 11 12.7239 11 13V15.5C11 15.7761 11.2239 16 11.5 16H14C14.2761 16 14.5 15.7761 14.5 15.5C14.5 15.2239 14.2761 15 14 15H12.7071Z" fill="black" stroke="black"/></g></mask></defs><g mask="url(#cutout-mask)"><path fill-rule="evenodd" clip-rule="evenodd" d="M11 4H7C5.34315 4 4 5.34315 4 7V9C4 10.6569 5.34315 12 7 12H11V11V10V6V5V4ZM12 5V4C12 3.44772 11.5523 3 11 3H7C5.13616 3 3.57006 4.27477 3.12602 6H1C0.447715 6 0 6.44772 0 7V9C0 9.55228 0.447715 10 1 10H3.12602C3.57006 11.7252 5.13616 13 7 13H11C11.5523 13 12 12.5523 12 12V11H15.5C15.7761 11 16 10.7761 16 10.5C16 10.2239 15.7761 10 15.5 10H12V6H15.5C15.7761 6 16 5.77614 16 5.5C16 5.22386 15.7761 5 15.5 5H12ZM3 7V9H1V7L3 7Z" fill="#6C707E"/><path d="M11 12H7C5.34315 12 4 10.6569 4 9V7C4 5.34315 5.34315 4 7 4H11V12Z" fill="#EBECF0"/><path d="M3 9H1V7H3V9Z" fill="#EBECF0"/></g><g><path fill-rule="evenodd" clip-rule="evenodd" d="M8.14645 12.1464C7.95118 12.3417 7.95118 12.6583 8.14645 12.8536C8.34171 13.0488 8.65829 13.0488 8.85355 12.8536L12 9.70711V11C12 11.2761 12.2239 11.5 12.5 11.5C12.7761 11.5 13 11.2761 13 11V8.5C13 8.22386 12.7761 8 12.5 8H10C9.72386 8 9.5 8.22386 9.5 8.5C9.5 8.77614 9.72386 9 10 9H11.2929L8.14645 12.1464ZM12.7071 15L15.8536 11.8536C16.0488 11.6583 16.0488 11.3417 15.8536 11.1464C15.6583 10.9512 15.3417 10.9512 15.1464 11.1464L12 14.2929V13C12 12.7239 11.7761 12.5 11.5 12.5C11.2239 12.5 11 12.7239 11 13V15.5C11 15.7761 11.2239 16 11.5 16H14C14.2761 16 14.5 15.7761 14.5 15.5C14.5 15.2239 14.2761 15 14 15H12.7071Z" fill="#3574F0"/></g></svg>