<svg width="20" height="20" viewBox="0 0 20 20" fill="none" xmlns="http://www.w3.org/2000/svg">
    <path d="M7.80833 4.59167C7.65833 5.125 7.58333 5.68333 7.58333 6.25C7.58333 9.65 10.35 12.4167 13.75 12.4167C14.3167 12.4167 14.875 12.3417 15.4083 12.1917C14.5417 14.325 12.4417 15.8333 10 15.8333C6.78333 15.8333 4.16667 13.2167 4.16667 10C4.16667 7.55833 5.675 5.45833 7.80833 4.59167ZM10 2.5C5.85833 2.5 2.5 5.85833 2.5 10C2.5 14.1417 5.85833 17.5 10 17.5C14.1417 17.5 17.5 14.1417 17.5 10C17.5 9.61667 17.4667 9.23333 17.4167 8.86667C16.6 10.0083 15.2667 10.75 13.75 10.75C11.2667 10.75 9.25 8.73333 9.25 6.25C9.25 4.74167 9.99167 3.4 11.1333 2.58333C10.7667 2.53333 10.3833 2.5 10 2.5Z"
          fill="#A8ADBD"/>
</svg>
