<svg width="24" height="24" fill="none" viewBox="0 0 24 24" xmlns="http://www.w3.org/2000/svg">
    <path d="m17.75 3 .184.005a3.25 3.25 0 0 1 3.062 3.06l.005.185v11.5l-.005.184a3.25 3.25 0 0 1-3.06 3.06L17.75 21H6.25a3.25 3.25 0 0 1-3.245-3.066L3 17.75V6.25a3.25 3.25 0 0 1 3.066-3.245L6.25 3h11.5ZM19 8H5.001L5 17.75c0 .647.492 1.18 1.122 1.244L6.25 19h11.501l.128-.006a1.25 1.25 0 0 0 1.116-1.116L19 17.75 19 8Zm-8.75 1.5a.75.75 0 0 1 .743.648l.007.102v7a.75.75 0 0 1-.648.743L10.25 18h-3.5a.75.75 0 0 1-.743-.648L6 17.25v-7a.75.75 0 0 1 .648-.743L6.75 9.5h3.5ZM9.5 11h-2v5.5h2V11Zm6.75 1.503a.75.75 0 0 1 .102 1.493l-.102.007h-3.496a.75.75 0 0 1-.101-1.493l.101-.007h3.496Zm1-3.003a.75.75 0 0 1 .102 1.493L17.25 11h-4.496a.75.75 0 0 1-.101-1.493l.101-.007h4.496Z"
          fill="#6C707E"/>
</svg>