<svg width="20" height="20" viewBox="0 0 20 20" fill="none" xmlns="http://www.w3.org/2000/svg">
    <path d="M9.99992 7.50001C11.3749 7.50001 12.4999 8.62501 12.4999 10C12.4999 11.375 11.3749 12.5 9.99992 12.5C8.62492 12.5 7.49992 11.375 7.49992 10C7.49992 8.62501 8.62492 7.50001 9.99992 7.50001ZM9.99992 5.83334C7.69992 5.83334 5.83325 7.70001 5.83325 10C5.83325 12.3 7.69992 14.1667 9.99992 14.1667C12.2999 14.1667 14.1666 12.3 14.1666 10C14.1666 7.70001 12.2999 5.83334 9.99992 5.83334ZM1.66659 10.8333H3.33325C3.79159 10.8333 4.16658 10.4583 4.16658 10C4.16658 9.54168 3.79159 9.16668 3.33325 9.16668H1.66659C1.20825 9.16668 0.833252 9.54168 0.833252 10C0.833252 10.4583 1.20825 10.8333 1.66659 10.8333ZM16.6666 10.8333H18.3333C18.7916 10.8333 19.1666 10.4583 19.1666 10C19.1666 9.54168 18.7916 9.16668 18.3333 9.16668H16.6666C16.2083 9.16668 15.8333 9.54168 15.8333 10C15.8333 10.4583 16.2083 10.8333 16.6666 10.8333ZM9.16658 1.66668V3.33334C9.16658 3.79168 9.54158 4.16668 9.99992 4.16668C10.4583 4.16668 10.8333 3.79168 10.8333 3.33334V1.66668C10.8333 1.20834 10.4583 0.833344 9.99992 0.833344C9.54158 0.833344 9.16658 1.20834 9.16658 1.66668ZM9.16658 16.6667V18.3333C9.16658 18.7917 9.54158 19.1667 9.99992 19.1667C10.4583 19.1667 10.8333 18.7917 10.8333 18.3333V16.6667C10.8333 16.2083 10.4583 15.8333 9.99992 15.8333C9.54158 15.8333 9.16658 16.2083 9.16658 16.6667ZM4.99158 3.81668C4.66658 3.49168 4.13325 3.49168 3.81658 3.81668C3.49158 4.14168 3.49158 4.67501 3.81658 4.99168L4.69992 5.87501C5.02492 6.20001 5.55825 6.20001 5.87492 5.87501C6.19158 5.55001 6.19992 5.01668 5.87492 4.70001L4.99158 3.81668ZM15.2999 14.125C14.9749 13.8 14.4416 13.8 14.1249 14.125C13.7999 14.45 13.7999 14.9833 14.1249 15.3L15.0083 16.1833C15.3333 16.5083 15.8666 16.5083 16.1833 16.1833C16.5083 15.8583 16.5083 15.325 16.1833 15.0083L15.2999 14.125ZM16.1833 4.99168C16.5083 4.66668 16.5083 4.13334 16.1833 3.81668C15.8583 3.49168 15.3249 3.49168 15.0083 3.81668L14.1249 4.70001C13.7999 5.02501 13.7999 5.55834 14.1249 5.87501C14.4499 6.19168 14.9833 6.20001 15.2999 5.87501L16.1833 4.99168ZM5.87492 15.3C6.19992 14.975 6.19992 14.4417 5.87492 14.125C5.54992 13.8 5.01658 13.8 4.69992 14.125L3.81658 15.0083C3.49158 15.3333 3.49158 15.8667 3.81658 16.1833C4.14158 16.5 4.67492 16.5083 4.99158 16.1833L5.87492 15.3Z"
          fill="#CED0D6"/>
</svg>
