<svg width="40" height="40" viewBox="0 0 40 40" fill="none" xmlns="http://www.w3.org/2000/svg">
<circle cx="18" cy="18" r="12.5" fill="#25324D" stroke="#548AF7" stroke-width="3"/>
<path fill-rule="evenodd" clip-rule="evenodd" d="M20.98 16.992C19.484 16.992 18.5 15.736 18.5 14.112V14.096C18.5 12.472 19.508 11.2 20.996 11.2C22.476 11.2 23.476 12.456 23.476 14.08V14.096C23.476 15.72 22.476 16.992 20.98 16.992ZM21.002 15.88C21.746 15.88 22.218 15.128 22.218 14.112V14.096C22.218 13.08 21.722 12.312 20.986 12.312C20.25 12.312 19.77 13.056 19.77 14.08V14.096C19.77 15.12 20.258 15.88 21.002 15.88Z" fill="#CED0D6"/>
<path fill-rule="evenodd" clip-rule="evenodd" d="M14.98 24.7919C13.484 24.7919 12.5 23.5359 12.5 21.9119V21.8959C12.5 20.2719 13.508 18.9999 14.996 18.9999C16.476 18.9999 17.476 20.2559 17.476 21.8799V21.8959C17.476 23.5199 16.476 24.7919 14.98 24.7919ZM15.002 23.6799C15.746 23.6799 16.218 22.9279 16.218 21.9119V21.8959C16.218 20.8799 15.722 20.1119 14.986 20.1119C14.25 20.1119 13.77 20.8559 13.77 21.8799V21.8959C13.77 22.9199 14.258 23.6799 15.002 23.6799Z" fill="#CED0D6"/>
<path d="M16.91 16.0919H15.858V11.3513H15.018L13.0825 11.9724L13.3385 12.8858L14.642 12.5048V16.0919H13.41V16.9919H16.91V16.0919Z" fill="#CED0D6"/>
<path d="M21.8621 23.7406H22.9141V24.6406H19.4141V23.7406H20.6461V20.1534L19.3426 20.5345L19.0866 19.621L21.0221 19H21.8621V23.7406Z" fill="#CED0D6"/>
<path d="M36.5 36.5L27 27" stroke="#548AF7" stroke-width="3" stroke-linecap="round"/>
</svg>
