<svg width="16" height="16" viewBox="0 0 16 16" fill="none" xmlns="http://www.w3.org/2000/svg">
<path d="M11.3845 2.50924L11.3865 2.50918C12.0809 2.4899 12.7757 2.501 13.469 2.54244C13.4778 2.71486 13.4867 2.93495 13.4927 3.19413C13.5084 3.87028 13.5041 4.80948 13.4242 5.86077C13.2628 7.98462 12.7984 10.4803 11.6398 12.2143L11.6389 12.2157C11.4596 12.486 11.2576 12.7405 11.035 12.9764C9.06119 15.054 5.58403 15.0133 3.31159 12.8135C1.04386 10.6181 0.903969 7.16604 2.90039 5.10327C3.60123 4.4178 4.43928 3.88843 5.35945 3.55002L5.3595 3.55015L5.37034 3.54587C5.41915 3.52661 5.4766 3.50615 5.53195 3.48643C5.5651 3.47463 5.5975 3.46309 5.62684 3.45223L5.62692 3.45221C7.45076 2.7773 9.54826 2.56596 11.2375 2.51381C11.2546 2.51328 11.2729 2.51267 11.2911 2.51207C11.325 2.51096 11.3586 2.50985 11.3845 2.50924ZM11.3726 2.0095L11.3726 2.00937L11.3726 2.0095Z" stroke="#6C707E"/>
<path d="M5.33959 7.1012C4.42275 8.0461 4.50092 9.60729 5.51254 10.5866C6.52416 11.5659 8.0963 11.6023 9.00299 10.6476C9.10327 10.5414 9.19429 10.4267 9.27506 10.305" stroke="#6C707E" stroke-linecap="round"/>
</svg>
