<svg width="16" height="16" viewBox="0 0 16 16" fill="none" xmlns="http://www.w3.org/2000/svg">
<circle cx="12.5" cy="12.5" r="3.5" fill="#E55765"/>
<path d="M12.5 10C12.2239 10 12 10.2239 12 10.5V12.5C12 12.7761 12.2239 13 12.5 13C12.7761 13 13 12.7761 13 12.5V10.5C13 10.2239 12.7761 10 12.5 10Z" fill="white"/>
<path d="M12.5 15C12.7761 15 13 14.7761 13 14.5C13 14.2239 12.7761 14 12.5 14C12.2239 14 12 14.2239 12 14.5C12 14.7761 12.2239 15 12.5 15Z" fill="white"/>
<path fill-rule="evenodd" clip-rule="evenodd" d="M11.271 2.01246C11.3065 2.0113 11.3446 2.01004 11.3726 2.00937C12.229 1.98559 13.0861 2.00707 13.9403 2.07374C13.9403 2.07374 14.1457 4.4502 13.7946 7.15322C13.4747 7.07604 13.1439 7.02683 12.8049 7.00831C12.8566 6.60795 12.8962 6.21062 12.9257 5.82288C13.004 4.79187 13.0083 3.86971 12.9929 3.20574C12.9914 3.14091 12.9897 3.0786 12.9878 3.01895C12.459 2.99762 11.9296 2.99429 11.4004 3.00899L11.3963 3.0091C11.3726 3.00966 11.3432 3.01063 11.3112 3.01169L11.2529 3.01357L12.9878 3.01895L11.2528 3.01357C9.58352 3.06512 7.54922 3.274 5.80044 3.92113L5.80029 3.92119C5.77621 3.93009 5.73984 3.94308 5.70663 3.95494L5.70662 3.95495L5.66746 3.96895C5.61838 3.98658 5.579 4.00105 5.55382 4.01099L5.54297 4.01527L5.53203 4.01929C4.68027 4.33254 3.90433 4.82211 3.25496 5.45588C1.47735 7.29832 1.56845 10.4301 3.65936 12.4542C4.68523 13.4473 5.96278 13.9538 7.20613 13.9968C7.30446 14.3453 7.43628 14.6797 7.59789 14.9964C5.96798 15.0529 4.27196 14.4391 2.96382 13.1727C0.519352 10.8063 0.330475 7.03384 2.54592 4.75058C3.29819 4.01345 4.19833 3.4443 5.18687 3.08075C5.24202 3.05899 5.31762 3.032 5.3786 3.01023L5.37865 3.01021C5.40841 2.99959 5.43468 2.99021 5.45339 2.98328C7.35228 2.28061 9.51301 2.06681 11.2221 2.01404L11.271 2.01246L11.271 2.01246Z" fill="#6C707E"/>
<path fill-rule="evenodd" clip-rule="evenodd" d="M5.69845 7.44938C5.89075 7.2512 5.88598 6.93465 5.6878 6.74235C5.48961 6.55006 5.17307 6.55483 4.98077 6.75301C3.84948 7.91893 3.97808 9.79704 5.16479 10.9459C5.69263 11.4568 6.36173 11.7566 7.04078 11.8269C7.08217 11.4877 7.15442 11.1581 7.25465 10.8409C6.76701 10.8203 6.26577 10.6199 5.86033 10.2274C5.02379 9.41755 4.99606 8.17327 5.69845 7.44938Z" fill="#6C707E"/>
</svg>
