<svg xmlns="http://www.w3.org/2000/svg" width="16" height="16" viewBox="0 0 16 16">
  <g fill="none" fill-rule="evenodd">
    <path fill="#F26522" fill-opacity=".7" d="M10.7326626,5.73728931 C12.9227837,8.01688759 14.0050293,10.5114916 11.5520191,12.9645018 C9.34802416,15.1684968 4.73730455,15.5159976 2.66922156,14.3842712 L10.7326626,5.73728931 Z M1.90106226,13.741742 C0.559628197,11.9089508 0.653278146,6.89268002 3.06673772,4.47922045 C5.4321166,2.11384157 7.80904474,3.00851739 10.0180058,5.03738572 L1.90106114,13.7417432 Z M8.0034185,12.9987763 C8.55570325,12.9987763 9.0034185,12.5510611 9.0034185,11.9987763 C9.0034185,11.4464916 8.55570325,10.9987763 8.0034185,10.9987763 C7.45113375,10.9987763 7.0034185,11.4464916 7.0034185,11.9987763 C7.0034185,12.5510611 7.45113375,12.9987763 8.0034185,12.9987763 Z M6,7 C6.55228475,7 7,6.55228475 7,6 C7,5.44771525 6.55228475,5 6,5 C5.44771525,5 5,5.44771525 5,6 C5,6.55228475 5.44771525,7 6,7 Z M3,10 C3.55228475,10 4,9.55228475 4,9 C4,8.44771525 3.55228475,8 3,8 C2.44771525,8 2,8.44771525 2,9 C2,9.55228475 2.44771525,10 3,10 Z"/>
    <path fill="#9AA7B0" d="M13.0374617,5 C13.0740154,5.18715418 13.0931688,5.38053487 13.0931688,5.57838907 C13.0931688,6.07873677 12.9706794,6.55047555 12.7540513,6.96525478 C12.1329844,5.91433212 11.1717601,4.93534325 10.1254817,4.0880837 C9.58471577,3.65018009 9.06422978,3.28228659 8.55843325,3.00014181 C9.0074518,2.73228153 9.53233852,2.57838907 10.0931688,2.57838907 C10.4092449,2.57838907 10.7139043,2.62726982 11,2.71788435 L11,1 L12,1 L12,3.26224953 C12.2530624,3.47083065 12.4713525,3.72008154 12.6448679,4 L15,4 L15,5 L13.0374617,5 Z"/>
  </g>
</svg>
