<svg width="16" height="16" viewBox="0 0 16 16" fill="none" xmlns="http://www.w3.org/2000/svg">
<g id="bug">
<path id="Vector" d="M15 10.36V8.80444H12.6122C12.5733 8.50111 12.5189 8.20556 12.4411 7.91778L14.4478 6.75889L13.67 5.41333L11.8267 6.47111C11.6089 6.09778 11.3444 5.76333 11.0567 5.46778C11.0878 5.28889 11.1111 5.11 11.1111 4.91556C11.1111 4.29333 10.9244 3.71 10.6056 3.22L11.8889 1.93667L10.7922 0.84L9.45444 2.17778C8.14778 1.48556 7.04333 1.92111 6.55333 2.17778L5.20778 0.84L4.11111 1.93667L5.39444 3.22C5.07556 3.71 4.88889 4.29333 4.88889 4.91556C4.88889 5.11 4.91222 5.28889 4.94333 5.47556C4.65556 5.77111 4.39111 6.10556 4.17333 6.47111L2.33 5.40556L1.55222 6.75111L3.55889 7.91C3.48111 8.19778 3.42667 8.49333 3.38778 8.79667H1V10.3522H3.38778C3.42667 10.6556 3.48111 10.9511 3.55889 11.2389L1.55222 12.3978L2.33 13.7433L4.17333 12.6933C5.01333 14.1011 6.41333 15.0267 8 15.0267C9.58667 15.0267 10.9867 14.1011 11.8267 12.6933L13.67 13.7589L14.4478 12.4133L12.4411 11.2544C12.5189 10.9667 12.5733 10.6711 12.6122 10.3678H15V10.36ZM8.75 12H7.25V7H8.75V12Z" fill="#F26522" fill-opacity="0.7"/>
</g>
</svg>
