<!-- Copyright 2000-2023 JetBrains s.r.o. and contributors. Use of this source code is governed by the Apache 2.0 license. -->
<svg width="16" height="16" viewBox="0 0 16 16" fill="none" xmlns="http://www.w3.org/2000/svg">
<path d="M12.8385 8.63227L15.3385 10.9364C15.4414 11.0312 15.5 11.1649 15.5 11.3051V14.999C15.5 15.2762 15.2757 15.5 15 15.5H10C9.72432 15.5 9.5 15.2762 9.5 14.999V11.3051C9.5 11.1649 9.55863 11.0312 9.6615 10.9364L12.1615 8.63227C12.3528 8.45591 12.6472 8.45591 12.8385 8.63227Z" fill="#43454A" stroke="#CED0D6" stroke-linejoin="round"/>
<path d="M14.9776 8.56388C14.9924 8.37787 15 8.18982 15 8C15 4.13401 11.866 1 8 1C4.13401 1 1 4.13401 1 8C1 11.866 4.13401 15 8 15C8 14.9997 8 15.0003 8 15V11.3051C8 10.7461 8.23374 10.2124 8.64493 9.83342L11.1449 7.52928C11.9106 6.82357 13.0894 6.82357 13.8551 7.52928L14.9776 8.56388Z" fill="#253627"/>
<path d="M14.9776 8.56388C14.9924 8.37787 15 8.18982 15 8C15 4.13401 11.866 1 8 1C4.13401 1 1 4.13401 1 8C1 11.866 4.13401 15 8 15C8 14.9997 8 15.0003 8 15V14C4.68629 14 2 11.3137 2 8C2 4.68629 4.68629 2 8 2C11.1975 2 13.8108 4.5012 13.9902 7.6538L14.9776 8.56388Z" fill="#57965C"/>
<path d="M8 11.5H6V10.5H7.5V5.5H6V4.5H10V5.5H8.5V9.98158C8.17927 10.3454 8 10.8156 8 11.3051V11.5Z" fill="#57965C"/>
</svg>
