<!-- Copyright 2000-2023 JetBrains s.r.o. and contributors. Use of this source code is governed by the Apache 2.0 license. -->
<svg width="16" height="16" viewBox="0 0 16 16" fill="none" xmlns="http://www.w3.org/2000/svg">
<path fill-rule="evenodd" clip-rule="evenodd" d="M14 9C14 10.1046 13.1046 11 12 11C10.8954 11 10 10.1046 10 9C10 7.89543 10.8954 7 12 7C13.1046 7 14 7.89543 14 9ZM13 9C13 9.55228 12.5523 10 12 10C11.4477 10 11 9.55228 11 9C11 8.44772 11.4477 8 12 8C12.5523 8 13 8.44772 13 9Z" fill="#548AF7"/>
<path fill-rule="evenodd" clip-rule="evenodd" d="M13 12H11C9.34315 12 8 13.3431 8 15C8 15.5523 8.44772 16 9 16H15C15.5523 16 16 15.5523 16 15C16 13.3431 14.6569 12 13 12ZM9 15C9 13.8954 9.89543 13 11 13H13C14.1046 13 15 13.8954 15 15H9Z" fill="#548AF7"/>
<path d="M12 10C12.5523 10 13 9.55228 13 9C13 8.44772 12.5523 8 12 8C11.4477 8 11 8.44772 11 9C11 9.55228 11.4477 10 12 10Z" fill="#25324D"/>
<path d="M11 13C9.89543 13 9 13.8954 9 15H15C15 13.8954 14.1046 13 13 13H11Z" fill="#25324D"/>
<path fill-rule="evenodd" clip-rule="evenodd" d="M8 1C11.866 1 15 4.13401 15 8C15 8.20381 14.9913 8.40558 14.9742 8.60496C14.8691 7.8058 14.4494 7.10574 13.8436 6.63317C13.7934 6.41741 13.7314 6.20612 13.6586 6H10.8758C10.8845 6.06882 10.8929 6.13809 10.9008 6.20778C10.5473 6.34703 10.2267 6.55145 9.95367 6.80624C9.93192 6.52981 9.90283 6.26068 9.86707 6H6.13293C6.04739 6.62355 6 7.29542 6 8C6 8.70458 6.04739 9.37645 6.13293 10H9.17071C9.30241 10.3726 9.50564 10.7115 9.76389 11H6.31105C6.44122 11.586 6.60693 12.1104 6.79782 12.5558C6.96159 12.9379 7.1347 13.2404 7.30368 13.4685C7.11653 13.9196 7.00959 14.4125 7.00062 14.9292C3.60802 14.4442 1 11.5267 1 8C1 4.13401 4.13401 1 8 1ZM5.12423 10H2.34141C2.12031 9.37444 2 8.70127 2 8C2 7.29873 2.12031 6.62556 2.34141 6H5.12423C5.0434 6.63371 5 7.30503 5 8C5 8.69497 5.0434 9.36629 5.12423 10ZM2.80269 11H5.2887C5.51457 12.1094 5.86182 13.0582 6.2904 13.7529C4.80644 13.3126 3.56266 12.3137 2.80269 11ZM6.31105 5H9.68895C9.55878 4.41404 9.39307 3.8896 9.20218 3.44417C8.96249 2.8849 8.70277 2.4962 8.4653 2.26184C8.23213 2.03173 8.07605 2 8 2C7.92395 2 7.76787 2.03173 7.5347 2.26184C7.29723 2.4962 7.03751 2.8849 6.79782 3.44417C6.60693 3.8896 6.44122 4.41404 6.31105 5ZM10.7113 5H13.1973C12.4373 3.68625 11.1936 2.6874 9.7096 2.24707C10.1382 2.9418 10.4854 3.89059 10.7113 5ZM6.2904 2.24707C5.86182 2.9418 5.51457 3.89059 5.2887 5H2.80269C3.56266 3.68625 4.80644 2.6874 6.2904 2.24707Z" fill="#CED0D6"/>
</svg>
