<svg width="40" height="40" viewBox="0 0 40 40" fill="none" xmlns="http://www.w3.org/2000/svg">
<path d="M33.3513 7.00262C38.6847 7.00262 39.6112 11.5327 38.6847 15.6147L35.2508 31.3171C35.0039 32.4463 33.8517 33.1692 32.6772 32.9318C31.5028 32.6944 30.7509 31.5866 30.9978 30.4574L34.2341 15.6147C35.7101 9.14194 27.3416 9.94026 23.9463 14.7466L20.284 31.3287C20.0371 32.4578 18.8848 33.1807 17.7104 32.9433C17.6622 32.9336 17.6148 32.9224 17.568 32.9098C16.4501 32.6322 15.7465 31.5549 15.9865 30.4574L19.2354 15.6043C19.9117 12.6818 18.5227 11.2445 16.5053 10.9928C14.1041 10.7328 10.8151 12.1598 8.97951 14.7581L8.97708 14.7406L8.9731 14.7466L5.29894 31.3447C5.04942 32.4734 3.89553 33.1938 2.72164 32.9539C1.54776 32.714 0.798414 31.6046 1.04793 30.476L5.77709 9.08482C6.02661 7.9562 7.1805 7.23574 8.35438 7.47564C9.68862 7.7483 10.2377 8.98354 9.98059 10.1684C12.4368 8.21477 15.2992 6.83453 18.5712 7.01602C21.7653 7.08081 23.3269 8.8135 23.8376 11.08C26.7826 8.53839 29.2709 7.00262 33.3513 7.00262Z" fill="#4682FA"/>
</svg>
