<svg width="14" height="14" viewBox="0 0 14 14" fill="none" xmlns="http://www.w3.org/2000/svg">
<path d="M1.7504 2.62497C3.20015 1.17522 5.55065 1.17522 7.0004 2.62497C8.45014 1.17522 10.8007 1.17522 12.2504 2.62497C13.4087 3.78324 13.6415 5.51647 12.949 6.90594C12.7302 6.70712 12.2646 6.5908 12.2646 6.29361C12.6672 5.27399 12.4562 4.06823 11.6317 3.24369C10.5236 2.13565 8.72715 2.13565 7.61912 3.24369L7.0004 3.86241L6.38168 3.24369C5.27364 2.13565 3.47715 2.13565 2.36912 3.24369C1.26108 4.35173 1.26108 6.14821 2.36911 7.25625L7.0004 11.8875L12.2646 6.29361C12.2675 6.66438 12.8253 6.55207 12.949 6.90594L7.0004 13.125L1.75039 7.87497C0.300647 6.42522 0.300651 4.07472 1.7504 2.62497Z" fill="#6F737A"/>
</svg>
