<svg width="16" height="16" viewBox="0 0 16 16" fill="none" xmlns="http://www.w3.org/2000/svg">
<path d="M8.00027 10.6611C7.40405 10.6567 6.94198 10.4757 6.59127 10.2064C5.89858 9.67362 5.64062 8.79567 5.64062 8.2562C5.64062 7.82435 5.93776 7.97076 6.41165 8.20428C6.83088 8.41085 7.38843 8.68558 8.00098 8.68845C8.61352 8.68558 9.17108 8.41085 9.5903 8.20428C10.0642 7.97076 10.3613 7.82435 10.3613 8.2562C10.3613 8.79567 10.1034 9.67362 9.41068 10.2064C9.05997 10.4757 8.5979 10.6567 8.00168 10.6611H8.00027Z" fill="#6C707E"/>
<path d="M12.2465 7.12289C12.5693 7.12289 12.8309 6.86125 12.8309 6.53849C12.8309 6.21574 12.5693 5.9541 12.2465 5.9541C11.9237 5.9541 11.6621 6.21574 11.6621 6.53849C11.6621 6.86125 11.9237 7.12289 12.2465 7.12289Z" fill="#6C707E"/>
<path d="M4.40316 6.53849C4.40316 6.86125 4.14152 7.12289 3.81877 7.12289C3.49601 7.12289 3.23438 6.86125 3.23438 6.53849C3.23438 6.21574 3.49601 5.9541 3.81877 5.9541C4.14152 5.9541 4.40316 6.21574 4.40316 6.53849Z" fill="#6C707E"/>
<path d="M10.1844 6.2838C10.283 6.31851 10.3563 6.42438 10.426 6.52507C10.5202 6.66115 10.6079 6.78777 10.7425 6.71643C11.1858 6.48131 11.3541 5.93223 11.1184 5.49004C10.8827 5.04785 10.3321 4.88 9.88878 5.11511C9.44542 5.35023 9.27712 5.89927 9.51285 6.34146C9.57522 6.45846 9.71358 6.40326 9.85962 6.34499C9.97413 6.2993 10.0934 6.25173 10.1844 6.2838Z" fill="#6C707E"/>
<path d="M5.66029 6.52508C5.73001 6.42439 5.80333 6.31851 5.90188 6.2838C5.99292 6.25173 6.11216 6.2993 6.22667 6.34499C6.37272 6.40326 6.51108 6.45846 6.57344 6.34146C6.80918 5.89927 6.64087 5.35023 6.19751 5.11511C5.75416 4.88 5.20366 5.04785 4.96793 5.49004C4.7322 5.93223 4.9005 6.48131 5.34386 6.71643C5.47839 6.78777 5.56606 6.66116 5.66029 6.52508Z" fill="#6C707E"/>
<path fill-rule="evenodd" clip-rule="evenodd" d="M15 8C15 8.73737 14.886 9.44812 14.6746 10.1156C14.7117 10.1116 14.7481 10.1096 14.7837 10.1096C15.0643 10.1096 15.3178 10.2164 15.497 10.4106C15.7273 10.6597 15.8296 10.9659 15.785 11.2723C15.7639 11.4182 15.7148 11.549 15.6415 11.6701C15.7961 11.7944 15.9099 11.9675 15.965 12.1756C16.0081 12.3388 16.0522 12.6786 15.8216 13.0287C15.8363 13.0515 15.85 13.0753 15.8629 13.0996C16.0016 13.3611 16.0104 13.6567 15.888 13.932C15.7025 14.3491 15.2414 14.6778 14.346 15.0306C13.789 15.2501 13.2794 15.3904 13.2749 15.3917C12.5384 15.5815 11.8724 15.6779 11.2958 15.6779C10.3421 15.6779 9.6322 15.4167 9.18146 14.9007C8.79739 14.966 8.40266 15 8 15C7.5972 15 7.20235 14.966 6.81816 14.9007C6.36739 15.4166 5.65747 15.6779 4.70369 15.6779C4.12712 15.6779 3.4611 15.5815 2.72468 15.3917C2.72016 15.3904 2.21055 15.2501 1.65352 15.0306C0.758145 14.6778 0.297061 14.3491 0.111506 13.932C-0.0108713 13.6567 -0.00200206 13.3611 0.136668 13.0996C0.149522 13.0753 0.16328 13.0515 0.177942 13.0287C-0.0526889 12.6786 -0.0085181 12.3388 0.0345655 12.1756C0.0896009 11.9675 0.20347 11.7944 0.358069 11.6701C0.284752 11.549 0.235692 11.4182 0.21451 11.2723C0.169978 10.9659 0.27226 10.6597 0.50253 10.4106C0.681752 10.2164 0.935193 10.1096 1.21579 10.1096C1.25154 10.1096 1.28811 10.1116 1.32539 10.1156C1.11402 9.44815 1 8.73739 1 8C1 4.13401 4.13401 1 8 1C11.866 1 15 4.13401 15 8ZM13.6914 10.3841C13.6689 10.5082 13.5533 10.6758 13.3944 10.862C13.2984 10.9719 13.188 11.0879 13.0732 11.2049L13.063 11.221C12.9871 11.2992 12.9093 11.3779 12.8325 11.4555C12.4337 11.8584 12.0635 12.2326 12.1425 12.365C12.1719 12.4143 12.2151 12.4343 12.266 12.4343C12.4874 12.4343 12.8534 12.0559 12.8534 12.0559C12.8534 12.0559 14.2097 10.8294 14.7837 10.8292C14.8585 10.8292 14.9201 10.8501 14.9635 10.8972C15.2978 11.2589 14.8064 11.549 14.0329 12.0057C13.933 12.0647 13.8283 12.1265 13.7201 12.1917C12.7745 12.7603 12.7128 12.9355 12.8469 13.1507C12.8549 13.1632 12.8695 13.1692 12.89 13.1692C12.9989 13.1692 13.2749 13.0045 13.6023 12.8092C14.0798 12.5243 14.6667 12.1741 15.0044 12.1741C15.1362 12.174 15.23 12.2272 15.2646 12.3584C15.3704 12.7585 14.7386 12.9906 14.1583 13.2039C13.6634 13.3857 13.2059 13.5538 13.2749 13.8007C13.2966 13.8784 13.3527 13.9363 13.428 13.9363C13.5861 13.9363 13.8426 13.796 14.1149 13.647C14.4228 13.4785 14.7508 13.2991 14.9794 13.2991C15.0861 13.2991 15.1708 13.3379 15.2222 13.4349C15.5282 14.012 13.1139 14.6449 13.0943 14.6499C12.6971 14.7523 11.9872 14.8734 11.2958 14.8734C10.8567 14.8734 10.4246 14.8454 10.0836 14.6847L10.0854 14.6841C9.90335 14.5876 9.74664 14.4576 9.6277 14.286C9.54893 14.1723 9.48339 14.0631 9.43154 13.9571C9.17165 13.3982 9.29252 12.9271 9.85973 12.3638C10.5433 11.685 10.9412 10.6919 10.9412 10.6919C10.9412 10.6919 11.077 10.1648 11.3847 10.1648C11.3988 10.1648 11.4135 10.1659 11.4284 10.1682C11.7669 10.2213 12.0156 11.0832 11.3065 11.6105C10.8349 11.961 11.0529 12.2368 11.332 12.2368C11.4727 12.2368 11.6289 12.1666 11.7203 12.0007C11.9932 11.5057 12.7383 10.2328 13.1244 9.98942C13.2488 9.91098 13.3616 9.87196 13.4539 9.87196C13.6482 9.87196 13.7532 10.0441 13.6914 10.3841ZM13.4539 9.15234C13.6032 9.15234 13.7444 9.18339 13.8712 9.24252C13.9556 8.84163 14 8.426 14 8C14 4.68629 11.3137 2 8 2C4.68629 2 2 4.68629 2 8C2 8.42593 2.04438 8.8415 2.12877 9.24233C2.25544 9.18332 2.39651 9.15234 2.54564 9.15234C2.78026 9.15234 3.02156 9.22951 3.26308 9.38171C3.42329 9.48282 3.60033 9.662 3.78264 9.88724C3.95153 9.65446 4.18795 9.49972 4.45843 9.45747C4.51017 9.44935 4.56267 9.44522 4.61465 9.44522C5.23213 9.44522 5.60379 9.97755 5.74426 10.4564C5.81396 10.6182 6.1485 11.3551 6.65179 11.8548C7.33289 12.5313 7.56019 13.2267 7.33604 13.9637C7.55406 13.9877 7.77559 14 8 14C8.22426 14 8.44565 13.9877 8.66353 13.9637C8.43935 13.2268 8.66664 12.5313 9.34777 11.8548C9.85103 11.3551 10.1856 10.6182 10.2553 10.4564C10.3957 9.97755 10.7674 9.44522 11.3849 9.44522C11.4369 9.44522 11.4894 9.44935 11.5411 9.45747C11.8116 9.49972 12.048 9.65446 12.2169 9.88724C12.3992 9.662 12.5763 9.48282 12.7365 9.38171C12.978 9.22951 13.2193 9.15234 13.4539 9.15234ZM6.13983 12.3638C6.70147 12.9216 6.82548 13.389 6.57552 13.9407C6.52248 14.0518 6.45427 14.1664 6.37142 14.286C6.25256 14.4575 6.09597 14.5874 5.91409 14.6839L5.91608 14.6846C5.57513 14.8453 5.14291 14.8734 4.70369 14.8734C4.01235 14.8734 3.3024 14.7523 2.90521 14.6499C2.88567 14.6449 0.471395 14.012 0.777335 13.4349C0.828748 13.3379 0.91347 13.2991 1.0201 13.2991C1.24876 13.2991 1.57679 13.4786 1.88467 13.647C2.15693 13.796 2.41343 13.9363 2.57153 13.9363C2.64684 13.9363 2.70296 13.8784 2.72468 13.8007C2.79368 13.5538 2.33615 13.3857 1.84127 13.2039C1.2609 12.9906 0.629153 12.7585 0.734974 12.3584C0.76955 12.2272 0.863324 12.174 0.995117 12.1741C1.33283 12.1741 1.9197 12.5243 2.39717 12.8091C2.72461 13.0045 3.00064 13.1692 3.10957 13.1692C3.13 13.1692 3.14466 13.1632 3.15264 13.1507C3.28678 12.9355 3.22499 12.7603 2.27948 12.1917C2.17158 12.1267 2.06676 12.0648 1.96706 12.006C1.19362 11.5493 0.701787 11.2588 1.03603 10.8972C1.07947 10.8501 1.14103 10.8292 1.21579 10.8292C1.78984 10.8294 3.1461 12.0559 3.1461 12.0559C3.1461 12.0559 3.51216 12.4343 3.73358 12.4343C3.78443 12.4343 3.82771 12.4143 3.85702 12.365C3.93605 12.2326 3.5658 11.8584 3.16709 11.4555C3.0909 11.3785 3.01317 11.3 2.93786 11.2224L2.92834 11.2074C2.82072 11.0977 2.71681 10.9889 2.625 10.885C2.45591 10.6897 2.33156 10.5133 2.30813 10.3841C2.2464 10.0441 2.3514 9.87196 2.54564 9.87196C2.63797 9.87196 2.75075 9.91098 2.87511 9.98942C3.26125 10.2328 4.00637 11.5057 4.27919 12.0007C4.3706 12.1666 4.52686 12.2368 4.6675 12.2368C4.94665 12.2368 5.1646 11.961 4.69303 11.6105C3.98393 11.0832 4.23267 10.2213 4.5712 10.1682C4.58603 10.1659 4.60069 10.1648 4.61483 10.1648C4.92257 10.1648 5.05836 10.6919 5.05836 10.6919C5.05836 10.6919 5.45623 11.685 6.13983 12.3638Z" fill="#6C707E"/>
</svg>
