<svg width="20" height="20" viewBox="0 0 20 20" fill="none" xmlns="http://www.w3.org/2000/svg">
<path d="M12.7318 7.78594C12.8584 7.83051 12.9525 7.96648 13.0421 8.0958C13.1631 8.27057 13.2757 8.43318 13.4485 8.34156C14.0179 8.0396 14.2341 7.33442 13.9313 6.76651C13.6286 6.19861 12.9215 5.98303 12.3521 6.28499C11.7827 6.58695 11.5666 7.29209 11.8693 7.85999C11.9494 8.01025 12.1271 7.93935 12.3147 7.86452C12.4618 7.80585 12.6149 7.74475 12.7318 7.78594Z" fill="#6C707E"/>
<path d="M5.3043 8.11211C5.3043 8.52677 4.96817 8.8629 4.55352 8.8629C4.13887 8.8629 3.80273 8.52677 3.80273 8.11211C3.80273 7.69746 4.13887 7.36133 4.55352 7.36133C4.96817 7.36133 5.3043 7.69746 5.3043 8.11211Z" fill="#6C707E"/>
<path d="M16.1285 8.11211C16.1285 8.52677 15.7924 8.8629 15.3777 8.8629C14.9631 8.8629 14.627 8.52677 14.627 8.11211C14.627 7.69746 14.9631 7.36133 15.3777 7.36133C15.7924 7.36133 16.1285 7.69746 16.1285 8.11211Z" fill="#6C707E"/>
<path d="M12.0127 10.2516C12.6214 9.95167 13.003 9.76363 13.003 10.3183C13.003 11.0111 12.6715 12.1379 11.7818 12.8221L11.7825 12.8247C11.3321 13.1706 10.7387 13.4031 9.97297 13.4087H9.97169C9.20597 13.403 8.61253 13.1706 8.16211 12.8247L8.16004 12.8231C7.26919 12.1391 6.9375 11.0116 6.9375 10.3183C6.9375 9.76369 7.31911 9.95173 7.92773 10.2516C8.46644 10.5171 9.18299 10.8702 9.97019 10.8735C10.7574 10.8701 11.474 10.517 12.0127 10.2516Z" fill="#6C707E"/>
<path d="M7.23092 7.78594C7.10435 7.83051 7.01018 7.96649 6.92064 8.09581C6.79962 8.27058 6.68703 8.43318 6.51425 8.34156C5.94484 8.0396 5.72869 7.33442 6.03144 6.76651C6.33419 6.19861 7.04119 5.98303 7.6106 6.28499C8.18 6.58695 8.39615 7.29209 8.0934 7.85999C8.01331 8.01025 7.83561 7.93935 7.64805 7.86452C7.50098 7.80585 7.34784 7.74475 7.23092 7.78594Z" fill="#6C707E"/>
<path fill-rule="evenodd" clip-rule="evenodd" d="M19 10C19 10.9432 18.8549 11.8526 18.5858 12.707C18.8869 12.7393 19.1559 12.8709 19.3541 13.0857C19.6499 13.4057 19.7812 13.7989 19.724 14.1924C19.6969 14.3798 19.6338 14.5478 19.5396 14.7032C19.7382 14.8629 19.8845 15.0852 19.9552 15.3525C20.0105 15.5621 20.0672 15.9985 19.771 16.4481C19.7898 16.4775 19.8075 16.508 19.824 16.5392C20.0021 16.8751 20.0135 17.2547 19.8563 17.6082C19.618 18.144 19.0259 18.5661 17.8759 19.0192C17.1605 19.3011 16.506 19.4813 16.5002 19.4829C15.5544 19.7267 14.6991 19.8505 13.9586 19.8505C12.7683 19.8505 11.8738 19.5337 11.293 18.9078C10.8707 18.9686 10.439 19 10 19C9.56082 19 9.12898 18.9685 8.70663 18.9078C8.1258 19.5337 7.23124 19.8505 6.04095 19.8505C5.30047 19.8505 4.4451 19.7267 3.49931 19.4829C3.4935 19.4813 2.83902 19.3011 2.12362 19.0192C0.973686 18.5661 0.381516 18.144 0.143207 17.6082C-0.013962 17.2547 -0.00257125 16.8751 0.175523 16.5392C0.192031 16.508 0.2097 16.4775 0.228532 16.4481C-0.0676684 15.9985 -0.0109398 15.5621 0.0443925 15.3525C0.115075 15.0852 0.261317 14.8629 0.459869 14.7032C0.365707 14.5478 0.3027 14.3798 0.275495 14.1924C0.218303 13.7989 0.349663 13.4057 0.645399 13.0857C0.843766 12.8708 1.11293 12.7392 1.4142 12.7069C1.1451 11.8526 1 10.9432 1 10C1 5.02944 5.02944 1 10 1C14.9706 1 19 5.02944 19 10ZM16.7302 11.4697C16.9456 11.4697 17.148 11.5201 17.3256 11.6154C17.4398 11.0951 17.5 10.5546 17.5 10C17.5 5.85786 14.1421 2.5 10 2.5C5.85786 2.5 2.5 5.85786 2.5 10C2.5 10.5545 2.56017 11.0949 2.67435 11.6151C2.85189 11.52 3.05409 11.4697 3.26937 11.4697C3.57069 11.4697 3.8806 11.5688 4.19077 11.7643C4.39654 11.8942 4.62391 12.1243 4.85805 12.4136C5.07495 12.1146 5.37858 11.9159 5.72596 11.8616C5.79242 11.8512 5.85984 11.8459 5.92661 11.8459C6.71963 11.8459 7.19695 12.5295 7.37736 13.1446C7.46688 13.3523 7.89653 14.2987 8.5429 14.9405C9.36583 15.7579 9.67295 16.5968 9.46673 17.4813C9.64288 17.4937 9.82071 17.5 10 17.5C10.1791 17.5 10.3568 17.4937 10.5328 17.4814C10.3266 16.5968 10.6337 15.7579 11.4567 14.9405C12.103 14.2987 12.5326 13.3523 12.6222 13.1446C12.8026 12.5295 13.2799 11.8459 14.073 11.8459C14.1397 11.8459 14.2071 11.8512 14.2736 11.8616C14.6209 11.9159 14.9246 12.1146 15.1415 12.4136C15.3756 12.1243 15.603 11.8942 15.8088 11.7643C16.1189 11.5688 16.4288 11.4697 16.7302 11.4697ZM3.26937 12.3939C3.38794 12.3939 3.53279 12.444 3.6925 12.5448C4.18843 12.8574 5.14538 14.4921 5.49576 15.1279C5.61316 15.3409 5.81385 15.431 5.99447 15.431C6.35299 15.431 6.63289 15.0769 6.02726 14.6268C5.11657 13.9495 5.43602 12.8426 5.8708 12.7745C5.88984 12.7714 5.90867 12.7701 5.92683 12.7701C6.32206 12.7701 6.49645 13.447 6.49645 13.447C6.49645 13.447 7.00745 14.7224 7.88539 15.5942C8.7633 16.4661 8.80863 17.166 8.16879 18.0985C7.73238 18.7343 6.89703 18.8173 6.04095 18.8173C5.15307 18.8173 4.24127 18.6617 3.73116 18.5302C3.70607 18.5238 0.605413 17.711 0.998332 16.9698C1.06436 16.8453 1.17317 16.7954 1.31011 16.7954C1.60378 16.7954 2.02507 17.0259 2.42049 17.2422C2.77015 17.4335 3.09957 17.6138 3.30262 17.6138C3.39934 17.6138 3.47141 17.5394 3.49931 17.4396C3.58792 17.1226 3.00033 16.9067 2.36476 16.6731C1.61939 16.3993 0.808022 16.1012 0.943928 15.5872C0.988333 15.4188 1.10877 15.3504 1.27803 15.3506C1.71178 15.3506 2.46552 15.8003 3.07875 16.1662C3.49928 16.4171 3.85373 16.6285 3.99362 16.6285C4.01987 16.6285 4.03869 16.6209 4.04894 16.6048C4.22121 16.3284 4.14186 16.1034 2.92754 15.3731C2.78861 15.2895 2.65411 15.2101 2.52577 15.1343C1.53244 14.5478 0.901306 14.1751 1.33057 13.7107C1.38637 13.6501 1.46542 13.6233 1.56144 13.6233C2.29869 13.6235 4.04054 15.1988 4.04054 15.1988C4.04054 15.1988 4.51067 15.6847 4.79504 15.6847C4.86034 15.6847 4.91593 15.6591 4.95357 15.5958C5.05508 15.4257 4.57956 14.9451 4.06749 14.4277C3.5627 13.9176 3.02239 13.3716 2.96433 13.0517C2.88505 12.615 3.0199 12.3939 3.26937 12.3939ZM16.7302 12.3939C16.6116 12.3939 16.4667 12.444 16.307 12.5448C15.8111 12.8574 14.8541 14.4921 14.5038 15.1279C14.3864 15.3409 14.1857 15.431 14.005 15.431C13.6465 15.431 13.3666 15.0769 13.9723 14.6268C14.883 13.9495 14.5635 12.8426 14.1288 12.7745C14.1097 12.7714 14.0909 12.7701 14.0727 12.7701C13.6775 12.7701 13.5031 13.447 13.5031 13.447C13.5031 13.447 12.9921 14.7224 12.1142 15.5942C11.2362 16.4661 11.1909 17.166 11.8307 18.0985C12.2671 18.7343 13.1025 18.8173 13.9586 18.8173C14.8465 18.8173 15.7582 18.6617 16.2684 18.5302C16.2935 18.5238 19.3941 17.711 19.0012 16.9698C18.9352 16.8453 18.8264 16.7954 18.6894 16.7954C18.3958 16.7954 17.9745 17.0259 17.5791 17.2422C17.2294 17.4335 16.9 17.6138 16.6969 17.6138C16.6002 17.6138 16.5281 17.5394 16.5002 17.4396C16.4116 17.1226 16.9992 16.9067 17.6348 16.6731C18.3802 16.3993 19.1915 16.1012 19.0556 15.5872C19.0112 15.4188 18.8908 15.3504 18.7215 15.3506C18.2878 15.3506 17.534 15.8003 16.9208 16.1662C16.5003 16.4171 16.1458 16.6285 16.0059 16.6285C15.9797 16.6285 15.9608 16.6209 15.9506 16.6048C15.7783 16.3284 15.8577 16.1034 17.072 15.3731C17.2109 15.2895 17.3454 15.2101 17.4737 15.1343C18.4671 14.5478 19.0983 14.1751 18.6689 13.7107C18.6132 13.6501 18.5341 13.6233 18.4381 13.6233C17.7009 13.6235 15.959 15.1988 15.959 15.1988C15.959 15.1988 15.4888 15.6847 15.2045 15.6847C15.1392 15.6847 15.0836 15.6591 15.0459 15.5958C14.9444 15.4257 15.42 14.9451 15.932 14.4277C16.4368 13.9176 16.9772 13.3716 17.0352 13.0517C17.1145 12.615 16.9796 12.3939 16.7302 12.3939Z" fill="#6C707E"/>
</svg>
