<svg xmlns="http://www.w3.org/2000/svg" width="13" height="13" viewBox="0 0 13 13">
  <g fill="none" fill-rule="evenodd">
    <rect width="5" height="1" x="4" fill="#AFB1B3"/>
    <rect width="1.4" height="3" x="5.8" y="5" fill="#AFB1B3"/>
    <path fill="#AFB1B3" fill-rule="nonzero" d="M6.5,11.5 C8.709139,11.5 10.5,9.709139 10.5,7.5 C10.5,5.290861 8.709139,3.5 6.5,3.5 C4.290861,3.5 2.5,5.290861 2.5,7.5 C2.5,9.709139 4.290861,11.5 6.5,11.5 Z M6.5,13 C3.46243388,13 1,10.5375661 1,7.5 C1,4.46243388 3.46243388,2 6.5,2 C9.53756612,2 12,4.46243388 12,7.5 C12,10.5375661 9.53756612,13 6.5,13 Z"/>
    <rect width="1.4" height="2" x="9.701" y="2.301" fill="#AFB1B3" transform="rotate(45 10.4 3.3)"/>
  </g>
</svg>
