<svg xmlns="http://www.w3.org/2000/svg" width="16" height="16" viewBox="0 0 16 16">
  <g fill="none" transform="translate(1)">
    <path fill="#000" d="M6.14383562,11.9492084 C6.45104096,12.1461933 6.73316376,12.2955439 6.99020401,12.3972603 C7.17712988,12.4712309 7.62999112,12.5560487 8.05049504,12.5751246 C8.4973384,12.5953952 8.85742945,12.3573808 8.96172802,12.2111618 C9.44367849,11.5355026 9.26027397,10.8806536 9.05314937,10.4737524 C8.95997749,10.290714 8.81379116,10.0414723 8.61459039,9.7260274 C8.74103367,9.31050228 8.82346145,8.94843321 8.86187374,8.63982017 C8.90858836,8.26450431 8.96172802,7.44278798 8.96172802,7.44278798 C9.1506971,7.44278798 9.69365894,7.37695268 10.2487348,7.10032623 C10.8038107,6.82369978 11.2583937,6.05761055 11.3539651,5.71917808 C11.4495365,5.38074561 11.5069777,4.96803639 11.5162684,4.58828287 C11.5220222,4.35309781 11.4610547,3.92435777 11.2837778,3.50585102 C11.1144957,3.10621803 10.7893157,2.71591615 10.5488902,2.51238711 C10.0566845,2.09571682 9.72088483,1.9824439 9.05314937,1.92001206 C8.33167418,1.85255568 7.58826189,2.13509126 7.39191886,2.24657534 C6.9759523,2.48276223 6.514698,3.02550025 6.32191781,3.31506849 C6.12913762,3.60463674 5.84899651,4.24006752 5.38210789,4.40019396 C4.91521927,4.5603204 4.25840449,4.7264626 4.1012449,4.77189505 C3.32608997,4.99598056 2.59238306,5.33238163 2.07430922,5.84066048 C1.41218845,6.49026283 0.91762809,7.42692739 0.91762809,8.44677468 C0.91762809,8.59101781 0.900128374,9.07893464 0.91762809,9.21895666 C0.919924148,9.23732831 0.728453564,9.29025265 0.532067714,9.5085249 C0.330196189,9.73289418 -0.0462728498,10.1841841 0.0501172442,10.8068148 C0.108800507,11.1858786 0.557812779,11.5849434 1.11040828,11.7908189 C1.47642456,11.9271823 1.8273857,12.0605573 2.2670894,12.1440967 C2.34461081,12.158825 2.46238203,12.18118 2.62040308,12.2111618 C3.03311915,12.8493611 3.33303833,13.1741414 3.52016063,13.1855028 C3.7043957,13.1966889 3.91486193,13.2245774 4.22257837,13.0095191 C4.34572906,12.923451 4.59176188,12.7193647 4.96067683,12.3972603 L6.14383562,11.9492084 Z"/>
    <path fill="#000" d="M10.5017685,3.7255743 C10.6976589,3.71376238 10.802009,3.8146154 10.8910501,3.8146154 C10.9800912,3.8146154 10.7867,3.49315068 10.5017685,3.49315068 C10.216837,3.49315068 10.0896803,3.8146154 10.1787213,3.8146154 C10.2677624,3.8146154 10.3058781,3.73738623 10.5017685,3.7255743 Z"/>
    <path fill="#AA8359" d="M4.89726027,12.0410959 C5.14275021,12.0410959 5.56142637,11.9171397 6.15328873,11.6692273 C6.38442958,11.857779 6.61872146,11.9989709 6.85616438,12.0928031 C7.02883861,12.1610401 7.44717269,12.290622 7.83561644,12.3082192 C8.24839145,12.3269186 8.62968079,12.2276883 8.7260274,12.0928031 C9.17123288,11.4695154 9.08219178,10.9726027 8.7260274,10.4383562 C8.36986301,9.90410959 8.24558444,9.81216539 8.26783932,9.77699233 C8.47660202,9.4470502 8.49443782,9.01369863 8.54794521,8.74657534 C8.60145259,8.47945205 8.6369863,7.14383562 8.6369863,7.14383562 C8.99315068,7.14383562 10.2575075,6.89225185 10.6114985,6.38026207 C11.130137,5.63013699 11.2191781,5.09471468 11.2191781,4.61513895 C11.2191781,3.49315068 10.3287671,2.24657534 8.90410959,2.24657534 C7.47945205,2.24657534 6.85616438,3.2260274 6.71688584,3.40410959 C6.57760729,3.58219178 6.47139498,3.84931507 6.29331279,4.11643836 C6.1152306,4.38356164 5.95657886,4.51248778 5.78767123,4.65068493 C5.5766077,4.82337328 5.16438356,4.95342458 4.89726027,5.00684932 C3.93644068,5.19901351 2.95028873,5.54202965 2.31506849,6.16438356 C1.70342931,6.76363406 1.24657534,7.62769606 1.24657534,8.56849315 C1.24657534,8.70155574 1.23040984,9.15165325 1.24657534,9.28082192 C1.24869634,9.29776955 1.07182391,9.34659163 0.890410959,9.54794521 C0.703930574,9.75492322 0.356164384,10.1712329 0.445205479,10.7456023 C0.499414598,11.0952842 0.914193162,11.3169316 1.42465753,11.5068493 C1.76276791,11.6326429 2.08697098,11.7987602 2.49315068,11.8758243 C2.56476168,11.8894109 2.67355376,11.9073831 2.81952692,11.9297406 C3.2007766,12.5277433 3.47782927,12.831985 3.65068493,12.8424658 C4.24297896,12.8783783 4.69835231,12.0410959 4.89726027,12.0410959 Z"/>
    <path fill="#000" d="M10.3510836,3.23242362 C10.546974,3.2206117 10.6513241,3.32146472 10.7403652,3.32146472 C10.8294063,3.32146472 10.6360151,3 10.3510836,3 C10.066152,3 9.93899532,3.32146472 10.0280364,3.32146472 C10.1170775,3.32146472 10.1551931,3.24423554 10.3510836,3.23242362 Z"/>
    <path fill="#000" d="M8.50841506,1.66957992 C8.84684726,1.65122453 9.02712889,1.80794722 9.18096171,1.80794722 C9.33479453,1.80794722 9.11263715,1.40920691 8.62037213,1.40920691 C8.29219545,1.40920691 8.06883779,1.54212034 7.95029915,1.80794722 C8.09675495,1.72793928 8.28279359,1.68181684 8.50841506,1.66957992 Z" transform="rotate(48 8.59 1.609)"/>
    <path fill="#000" d="M9.22074382,1.66957992 C9.55917603,1.65122453 9.73945766,1.80794722 9.89329048,1.80794722 C10.0471233,1.80794722 9.82496592,1.40920691 9.3327009,1.40920691 C9.00452421,1.40920691 8.78116655,1.54212034 8.66262792,1.80794722 C8.80908372,1.72793928 8.99512235,1.68181684 9.22074382,1.66957992 Z" transform="scale(-1 1) rotate(48 0 -19.284)"/>
    <path fill="#000" d="M8,4.5 C8,4.25 8.25,4 8.5,4 C8.75,4 9,4.25 9,4.5 C9,4.75 8.75,5 8.5,5 C8.25,5 8,4.75 8,4.5 Z"/>
    <path fill="#FFF" d="M8.12865003,4.35620018 C8.12865003,4.23120018 8.25365003,4.10620018 8.37865003,4.10620018 C8.50365003,4.10620018 8.62865003,4.23120018 8.62865003,4.35620018 C8.62865003,4.48120018 8.50365003,4.60620018 8.37865003,4.60620018 C8.25365003,4.60620018 8.12865003,4.48120018 8.12865003,4.35620018 Z"/>
    <path fill="#000" d="M10,4.48630137 C10,4.23630137 10.25,3.98630137 10.5,3.98630137 C10.75,3.98630137 11,4.23630137 11,4.48630137 C11,4.73630137 10.75,4.98630137 10.5,4.98630137 C10.25,4.98630137 10,4.73630137 10,4.48630137 Z"/>
    <path fill="#FFF" d="M10.1358333,4.32683887 C10.1358333,4.20183887 10.2608333,4.07683887 10.3858333,4.07683887 C10.5108333,4.07683887 10.6358333,4.20183887 10.6358333,4.32683887 C10.6358333,4.45183887 10.5108333,4.57683887 10.3858333,4.57683887 C10.2608333,4.57683887 10.1358333,4.45183887 10.1358333,4.32683887 Z"/>
    <path fill="#000" d="M9.88660725,13.1701574 C9.95524338,13.1701574 10.0969256,13.1420971 10.2498975,13.074549 C10.5078517,12.9606435 10.833336,12.7343818 11.1529506,12.547957 C11.3684524,12.4222591 11.5570161,12.2814396 11.7154278,12.2032111 C11.7738585,12.1743563 12.0314153,11.9855484 12.0205479,11.8630137 C12.0101319,11.7455677 11.7703377,11.7337291 11.6308733,11.7681742 C11.5068319,11.79881 11.3266031,11.8434963 11.0901869,11.9022332 C11.1904668,11.7539234 11.2763175,11.6199677 11.3477393,11.500366 C11.5145481,11.2210308 11.7598911,10.682338 11.7501779,10.4112937 C11.7470012,10.3226467 11.6185747,10.3079817 11.5753425,10.2900918 C11.5265021,10.2698813 11.1515042,10.5000674 11.0901869,10.5688225 C10.9879263,10.6834876 10.8470728,10.8381818 10.7744964,10.9176725 C10.7369509,10.958795 10.6180548,11.1255069 10.4178082,11.4178082 C10.4139373,11.1216847 10.4139373,10.9366718 10.4178082,10.8627694 C10.424354,10.7377975 10.3905434,10.5460999 10.3206025,10.456731 C10.2962301,10.4255885 10.1789375,10.4125455 10.1506849,10.4112937 C10.0252058,10.4057341 9.84654288,10.8016728 9.79452055,10.9726027 C9.76722953,11.0622729 9.73036132,11.1767382 9.70564311,11.250474 C9.66151672,11.3821053 9.61984029,11.5417802 9.58061382,11.7294986 C9.42084934,11.6415956 9.31406638,11.5852039 9.26026494,11.5603234 C9.09969928,11.4860697 8.90410959,11.446892 8.66052642,11.5068493 C8.41694326,11.5668066 8.35888312,11.7960984 8.35097086,11.9085523 C8.34127764,12.0463184 8.41474666,12.1930602 8.43014785,12.2032111 C8.46804425,12.2281885 8.51040433,12.2668248 8.55498458,12.3134878 C8.62128478,12.3828855 8.69249551,12.4037929 8.76123687,12.4254413 C8.83429691,12.4484497 8.95482267,12.4983441 9.12281416,12.5751246 C9.17139944,12.653994 9.20373004,12.7073892 9.21980598,12.73531 C9.25730531,12.8004393 9.35005923,12.9321715 9.41203231,12.994667 C9.54307815,13.1268175 9.71739844,13.1701574 9.88660725,13.1701574 Z"/>
    <path fill="#F38021" d="M9.89628143,13.0094401 C9.95063963,13.0094401 10.0628486,13.0136483 10.1839988,12.9606345 C10.3882924,12.8712379 10.6460684,12.6870754 10.8991956,12.5407634 C11.069868,12.4421118 11.2467272,12.3144592 11.3721856,12.253063 C11.4628152,12.2087112 11.7323659,12.066988 11.8424658,11.9671984 C11.9068165,11.9088737 11.8578382,11.864874 11.8424658,11.8630137 C11.7265562,11.8489867 11.50339,11.8968164 11.2776991,11.9520548 C11.1794613,11.9760987 11.0072599,12.0387392 10.761095,12.1399761 C10.8911979,11.9898409 10.9845315,11.8678397 11.0410959,11.7739726 C11.2652237,11.4020382 11.5225229,10.888627 11.6057479,10.6164384 C11.6228474,10.5605144 11.6628389,10.3341657 11.4863014,10.4383562 C11.249198,10.5782919 10.8116218,11.094615 10.5958904,11.3287671 C10.332165,11.6150114 10.2463436,11.8921058 10.239726,11.7739726 C10.2346003,11.6824717 10.2703441,11.4827459 10.2814003,11.273567 C10.2964143,10.9895075 10.2885251,10.6880154 10.2814003,10.6164384 C10.2793385,10.5957246 10.176178,10.5031892 10.1284452,10.6164384 C10.0651525,10.7666047 9.9584553,11.0267496 9.88135743,11.2777847 C9.80186676,11.5366109 9.74908957,11.8127183 9.70782132,11.9361519 C9.69857883,11.9637962 9.65592542,12.0878187 9.57986109,12.3082192 C9.58657803,12.0633276 9.58657803,11.93828 9.57986109,11.9330764 C9.52917417,11.8938094 9.46414725,11.8468382 9.40023303,11.8175477 C9.2730688,11.7592711 9.23508757,11.7426969 9.10214528,11.7104064 C8.89241407,11.6594646 8.64122934,11.6511365 8.54794521,11.7739726 C8.39553107,11.9746708 8.55713331,12.1670221 8.6369863,12.2191781 C8.83374396,12.3476904 9.28824718,12.4556712 9.28824718,12.4751935 C9.28824718,12.5728658 9.35932656,12.6644162 9.40509772,12.7431949 C9.4975958,12.9023972 9.69889745,13.0094401 9.89628143,13.0094401 Z"/>
    <path fill="#000" d="M5.06926441,14.4042747 C5.1652306,14.4042747 5.41867515,14.4400523 5.65961465,14.2339969 C6.37071432,13.625853 7.34920774,12.3651995 7.03424658,12.0629246 C6.83218925,11.869006 6.14383562,12.4863014 6.05479452,12.5751246 C6.02170417,12.6081339 6.67002202,10.8828985 6.23287671,10.6663004 C5.79573141,10.4497023 5.16991797,12.3339887 5.12508808,12.3339887 C5.09435661,12.3339887 5.26666774,12.3947199 5.17517276,12.0629246 C5.12401709,11.8774149 5.00535395,11.1693661 4.72284026,11.2440154 C4.44032656,11.3186646 4.42154262,11.9797355 4.4319033,12.1746263 C4.4365152,12.2613789 4.4365152,12.3355902 4.4319033,12.3972603 C4.38006858,12.3230926 4.34035794,12.2750268 4.31277137,12.253063 C4.21872894,12.1781886 3.95285059,12.1679397 3.82876712,12.2191781 C3.73295922,12.2587405 3.68433844,12.3465687 3.65100151,12.3972603 C3.57448898,12.5136038 3.56408111,13.0071238 3.91525012,13.3129468 C4.01818532,13.4025901 4.17680717,13.5141401 4.39111568,13.6475968 C4.39017817,13.680792 4.38970941,13.7062198 4.38970941,13.7238803 C4.38970941,14.0996518 4.69006729,14.4042747 5.06926441,14.4042747 Z"/>
    <path fill="#F38021" d="M5.15547186,14.1337023 C5.23014389,14.1337023 5.38391424,14.1617949 5.57139115,14 C6.12470334,13.5224846 6.97161773,12.4225123 6.94520548,12.2425851 C6.91300837,12.0232499 5.90104411,12.9117782 5.82483003,12.9315068 C5.79004158,12.9405121 6.32191781,10.9726027 6.14383562,10.8835616 C5.96575342,10.7945205 5.19035435,12.7798359 5.15547186,12.7798359 C5.13155947,12.7798359 5.12360364,12.5557974 5.05241068,12.2952714 C5.01260605,12.1496089 4.87733436,11.5299585 4.80821918,11.5068493 C4.76258586,11.4915915 4.71683538,11.5018484 4.6792493,11.5360387 C4.62300973,11.5871971 4.65147448,12.2299512 4.65953621,12.3829797 C4.68101285,12.7906514 4.76959319,13.3684659 4.74970302,13.3819882 C4.72953222,13.3957014 4.61057571,12.6676993 4.36017543,12.4665187 C4.2739726,12.3972603 4.04150499,12.3283085 3.91780822,12.3972603 C3.80861049,12.4581299 3.82417726,12.6643836 3.82417726,12.7534247 C3.82417726,12.7863429 3.87027869,13.0366577 4.14352603,13.2767903 C4.22362071,13.3471783 4.3705661,13.4347675 4.58436221,13.5395579 C4.58363273,13.5656228 4.58326799,13.5855888 4.58326799,13.5994558 C4.58326799,13.894512 4.86041562,14.1337023 5.15547186,14.1337023 Z"/>
    <path fill="#000" d="M12.7624325,9.23752966 C12.7946642,9.20357605 13.115581,8.45048863 12.3694319,7.05479452 C12.1781309,6.69696036 11.55727,6.16125377 10.5068493,5.44767474 C10.1520345,5.61211471 9.93661563,5.91584228 9.83857469,6.08028225 C10.6440436,6.64537835 11.1816804,7.07292227 11.4514851,7.36291401 C12.468268,8.45577345 12.7273071,9.2745316 12.7624325,9.23752966 Z"/>
    <path fill="#F38021" d="M12.7328767,8.92465753 C12.7613365,8.89401549 12.840208,7.98037272 12.0205479,6.87671233 C11.8112831,6.59494019 11.3067169,6.17941507 10.5068493,5.63013699 C10.1935566,5.77853881 10.1482116,5.92694064 10.0616438,6.07534247 C10.8325453,6.58532367 11.3371115,6.97116842 11.5753425,7.23287671 C12.4731367,8.21914749 12.7018618,8.9580506 12.7328767,8.92465753 Z"/>
    <path fill="#000" d="M8.35108355,3.23242362 C8.54697396,3.2206117 8.65132409,3.32146472 8.74036518,3.32146472 C8.82940628,3.32146472 8.63601506,3 8.35108355,3 C8.06615204,3 7.93899532,3.32146472 8.02803641,3.32146472 C8.11707751,3.32146472 8.15519314,3.24423554 8.35108355,3.23242362 Z"/>
    <path fill="#000" d="M2.45200902,6.02009687 C2.34103256,5.80195228 2.554345,5.45921513 3.09194635,4.99188541 C2.86208982,5.27035038 2.69650547,5.53227126 2.59519331,5.77764806 C2.55107702,5.88449717 2.66219593,6.19899343 3.06539694,5.84849614 C3.08398395,5.83233869 2.8721149,5.980007 2.74073154,6.26856061 C2.65649754,6.45356141 2.55009086,6.72596029 2.51725422,6.90947988 C2.50573197,6.97387615 2.46558323,7.18745652 2.57542016,7.21060391 C2.60035588,7.21585894 2.67285701,7.21836266 2.75400435,7.17334365 C2.78217935,7.15771269 2.83138141,7.12666111 2.90161052,7.0801889 C2.80734607,7.23224906 2.75082172,7.33577661 2.73203747,7.39077152 C2.66551689,7.58552484 2.6820278,7.69876354 2.70707839,7.7266029 C2.72525964,7.74680819 2.81472239,7.7866067 2.8975893,7.75641081 C2.93081093,7.74430517 2.96155312,7.7336823 2.98981586,7.72454219 C2.94816617,7.799777 2.91916233,7.86491109 2.90280432,7.91994445 C2.89444457,7.9480692 2.86168094,8.15289515 2.86199754,8.15609471 C2.86807372,8.21750151 2.86647304,8.25921564 2.92231251,8.28424761 C2.96147847,8.30180511 3.00616767,8.27648227 3.05638012,8.2082791 C2.96373303,8.32727556 2.89575075,8.34704478 2.85243327,8.26758678 C2.83644991,8.23826822 2.8121209,8.18909312 2.81902441,8.08565672 C2.82165808,8.04619591 2.8396624,7.96590985 2.87303737,7.84479854 C2.71000926,7.87244276 2.61241895,7.85627463 2.58026644,7.79629414 C2.51483785,7.67423714 2.56197001,7.49543049 2.72166294,7.25987418 C2.6277004,7.30043842 2.56640148,7.3191405 2.53776616,7.31598043 C2.47242231,7.30876936 2.38905327,7.29831144 2.38880932,7.11441062 C2.38858251,6.94342081 2.51478923,6.60523323 2.76742948,6.09984788 C2.62154793,6.17326812 2.51640778,6.14668445 2.45200902,6.02009687 Z" transform="rotate(41 2.74 6.654)"/>
    <path fill="#000" d="M1.90134237,11.4993609 C2.05558266,11.4914717 2.27233054,11.5459062 2.55158602,11.6626644 C2.8308415,11.7794226 3.14751936,11.814211 3.5016196,11.7670294 L3.5016196,12.0875773 C3.02188239,12.0164107 2.65978033,11.9358978 2.41531344,11.8460387 C2.17084655,11.7561797 1.99952286,11.6406204 1.90134237,11.4993609 Z" transform="rotate(56 2.701 11.793)"/>
    <path fill="#000" d="M6.67808219,6.16438356 C7.14469695,6.54520231 7.50397225,6.79337068 7.75590811,6.90888868 C7.91028263,6.97967271 8.10238714,7.06287677 8.33222162,7.10488203 C8.42905521,7.12257963 8.58937483,7.13444249 8.81318046,7.14047061 L8.81318046,7.49953629 C8.52287525,7.533291 8.15402172,7.44759669 7.70661986,7.24245334 C7.259218,7.03731 6.91637211,6.6779534 6.67808219,6.16438356 Z"/>
    <path fill="#000" d="M6.07480594,10.3841258 C6.5414207,10.7649445 6.90069601,11.0131129 7.15263187,11.1286309 C7.30700639,11.1994149 7.49911089,11.282619 7.72894537,11.3246242 C7.82577896,11.3423218 7.98609858,11.3541847 8.20990422,11.3602128 L8.20990422,11.7192785 C7.919599,11.7530332 7.55074547,11.6673389 7.10334361,11.4621955 C6.65594176,11.2570522 6.31309587,10.8976956 6.07480594,10.3841258 Z" transform="scale(-1 1) rotate(20 0 -29.451)"/>
    <path fill="#000" d="M0.926882588,9.20297134 L1.24494552,9.20297134 C1.23531348,9.2772827 1.26800708,9.42077461 1.34302631,9.63344708 C1.41804555,9.84611955 1.44525596,10.0253815 1.42465753,10.1712329 C1.32074801,10.0383067 1.21647868,9.88990484 1.11184955,9.7260274 C1.00722043,9.56214996 0.945564773,9.38779794 0.926882588,9.20297134 Z"/>
  </g>
</svg>
