<svg width="16" height="16" viewBox="0 0 16 16" fill="none" xmlns="http://www.w3.org/2000/svg">
<path fill-rule="evenodd" clip-rule="evenodd" d="M11 0C12.1046 0 13 0.89543 13 2C13 3.10457 12.1046 4 11 4C10.2601 4 9.61546 3.59733 9.26953 3H9C7.34315 3 6 4.34315 6 6V13H4V6C4 3.23858 6.23858 1 9 1H9.26953C9.61546 0.402669 10.2601 0 11 0ZM11 1.25C10.5858 1.25 10.25 1.58579 10.25 2C10.25 2.41421 10.5858 2.75 11 2.75C11.4142 2.75 11.75 2.41421 11.75 2C11.75 1.58579 11.4142 1.25 11 1.25Z" fill="#FF6600"/>
<path fill-rule="evenodd" clip-rule="evenodd" d="M11 5C12.1046 5 13 5.89543 13 7C13 8.10457 12.1046 9 11 9C10.2601 9 9.61546 8.59733 9.26953 8H9C7.34315 8 6 9.34315 6 11V12.2695C6.59733 12.6155 7 13.2601 7 14C7 15.1046 6.10457 16 5 16C3.89543 16 3 15.1046 3 14C3 13.2601 3.40267 12.6155 4 12.2695V11C4 8.23858 6.23858 6 9 6H9.26953C9.61546 5.40267 10.2601 5 11 5ZM5 13.25C4.58579 13.25 4.25 13.5858 4.25 14C4.25 14.4142 4.58579 14.75 5 14.75C5.41421 14.75 5.75 14.4142 5.75 14C5.75 13.5858 5.41421 13.25 5 13.25ZM11 6.25C10.5858 6.25 10.25 6.58579 10.25 7C10.25 7.41421 10.5858 7.75 11 7.75C11.4142 7.75 11.75 7.41421 11.75 7C11.75 6.58579 11.4142 6.25 11 6.25Z" fill="#D40000"/>
</svg>
