<svg xmlns="http://www.w3.org/2000/svg" width="16" height="16" viewBox="0 0 16 16">
  <defs>
    <linearGradient id="jira-a" x1="50%" y1="29.171%" y2="100%">
      <stop offset="0%" stop-color="#2684FF"/>
      <stop offset="100%" stop-color="#0042A4"/>
    </linearGradient>
  </defs>
  <g fill="none" transform="rotate(45 2.793 10.157)">
    <rect width="2.97" height="9.9" x="6.93" fill="url(#jira-a)"/>
    <rect width="2.97" height="9.9" fill="url(#jira-a)" transform="matrix(1 0 0 -1 0 9.9)"/>
    <path fill="#2684FF" d="M0,6.93 L9.9,6.93 L9.9,9.9 L3.6,9.9 C2.56999577,9.9 1.57139374,9.71096487 0.9,9.1575 C0.398089114,8.74374869 0.0984216094,8.21443365 0,6.93 Z" transform="rotate(180 4.95 8.415)"/>
    <path fill="#2684FF" d="M0,0 L9.9,0 L9.9,2.97 L3.6,2.97 C2.56999577,2.97 1.57139374,2.78096487 0.9,2.2275 C0.398089114,1.81374869 0.0984216094,1.28443365 0,0 Z"/>
  </g>
</svg>
