<svg xmlns="http://www.w3.org/2000/svg" xmlns:xlink="http://www.w3.org/1999/xlink" width="16" height="16" viewBox="0 0 16 16">
  <defs>
    <polygon id="lighthouse-a" points=".509 0 5.6 0 6.109 5.6 3.055 6.618 0 5.6"/>
    <linearGradient id="lighthouse-c" x1="50%" x2="52.267%" y1="0%" y2="50%">
      <stop offset="0%" stop-color="#3C83C0"/>
      <stop offset="100%" stop-color="#1F5B8E"/>
    </linearGradient>
  </defs>
  <g fill="none" fill-rule="evenodd" transform="translate(1 1)">
    <circle cx="7" cy="7" r="7" fill="#2B6FA1" fill-rule="nonzero"/>
    <path fill="#1F5B8E" fill-rule="nonzero" d="M9.41717081,5.71138628 L9.41818182,5.71138628 L9.41818182,7.38181818 C9.41818182,7.52484424 9.17282163,7.65684973 8.75863052,7.76311749 L9.16363636,12.2181818 L6.10909091,13.2363636 L3.05454545,12.2181818 L3.4595513,7.76311749 C3.04536019,7.65684973 2.8,7.52484424 2.8,7.38181818 L2.8,5.71138628 L2.80101101,5.71138628 C2.82319712,5.53725569 3.20910831,5.38047316 3.81818182,5.26807 L3.81818182,2.03636364 L8.4,2.03636364 L8.4,5.26807 C9.00907351,5.38047316 9.39498469,5.53725569 9.41717081,5.71138628 Z"/>
    <g transform="translate(4.073 6.618)">
      <mask id="lighthouse-b" fill="#fff">
        <use xlink:href="#lighthouse-a"/>
      </mask>
      <use fill="#DA7F14" fill-rule="nonzero" xlink:href="#lighthouse-a"/>
      <path fill="#CE6801" fill-rule="nonzero" d="M2.92727273,6.10909091 C-1.92279153,6.10909091 -5.85454545,2.17733698 -5.85454545,-2.67272727 C-5.85454545,-7.52279153 -1.92279153,-11.4545455 2.92727273,-11.4545455 C7.77733698,-11.4545455 11.7090909,-7.52279153 11.7090909,-2.67272727 C11.7090909,2.17733698 7.77733698,6.10909091 2.92727273,6.10909091 Z M2.92727273,4.58181818 C6.86355676,4.58181818 10.0545455,1.39082949 10.0545455,-2.54545455 C10.0545455,-6.48173858 6.86355676,-9.67272727 2.92727273,-9.67272727 C-1.00901131,-9.67272727 -4.2,-6.48173858 -4.2,-2.54545455 C-4.2,1.39082949 -1.00901131,4.58181818 2.92727273,4.58181818 Z" mask="url(#lighthouse-b)" opacity=".566"/>
    </g>
    <path fill="#579DD1" fill-rule="nonzero" d="M7,14 C3.13400675,14 0,10.8659932 0,7 C0,3.13400675 3.13400675,0 7,0 C10.8659932,0 14,3.13400675 14,7 C14,10.8659932 10.8659932,14 7,14 Z M7.12727273,12.7272727 C10.2200673,12.7272727 12.7272727,10.2200673 12.7272727,7.12727273 C12.7272727,4.03447813 10.2200673,1.52727273 7.12727273,1.52727273 C4.03447813,1.52727273 1.52727273,4.03447813 1.52727273,7.12727273 C1.52727273,10.2200673 4.03447813,12.7272727 7.12727273,12.7272727 Z"/>
    <path fill="url(#lighthouse-c)" fill-rule="nonzero" d="M8.4,2.11317913 L8.4,6.87272727 L3.81818182,6.87272727 L3.81818182,2.11317913 C3.47878788,2.02280796 3.13939394,1.91235431 2.8,1.78181818 L5.96963623,0.0750909836 L6.19504894,0.0462850957 L9.41818182,1.78181818 C9.07878788,1.91235431 8.73939394,2.02280796 8.4,2.11317913 Z"/>
    <path fill="#F6E5C1" fill-rule="nonzero" d="M3.81818182,7.38181818 L3.81818182,5.71138628 L10.4363636,5.71138628 L10.4363636,7.38181818 C10.4363636,7.73327211 8.95483317,8.01818182 7.12727273,8.01818182 C5.29971228,8.01818182 3.81818182,7.73327211 3.81818182,7.38181818 Z"/>
    <ellipse cx="7.127" cy="5.727" fill="#FFFDDC" fill-rule="nonzero" rx="3.309" ry="1"/>
    <rect width="4.582" height="4.836" x="4.836" y="2.036" fill="#FFFDDC" fill-rule="nonzero"/>
    <path fill="#8C8C8C" fill-rule="nonzero" d="M7.12727273,-1.77635684e-15 L10.4363636,1.78181818 C9.33333333,2.20606061 8.23030303,2.41818182 7.12727273,2.41818182 C6.02424242,2.41818182 4.92121212,2.20606061 3.81818182,1.78181818 L7.12727273,-1.77635684e-15 Z"/>
    <circle cx="6.109" cy="3.818" r="1.018" fill="#E0BB63" fill-rule="nonzero"/>
    <path fill="#FFCB55" fill-rule="nonzero" d="M5.98181818,4.83636364 C6.47385369,4.83636364 6.87272727,4.31021732 6.87272727,3.81818182 C6.87272727,3.32614631 6.47385369,2.8 5.98181818,2.8 C5.48978268,2.8 5.09090909,3.32614631 5.09090909,3.81818182 C5.09090909,4.31021732 5.48978268,4.83636364 5.98181818,4.83636364 Z"/>
  </g>
</svg>
