<svg xmlns="http://www.w3.org/2000/svg" width="16" height="16" viewBox="0 0 16 16">
  <defs>
    <linearGradient id="mantis-a" x1="90.875%" x2="50%" y1="46.515%" y2="46.515%">
      <stop offset="0%" stop-color="#65B12D"/>
      <stop offset="100%" stop-color="#3D883F"/>
    </linearGradient>
    <linearGradient id="mantis-b" x1="37.428%" x2="86.74%" y1="28.184%" y2="30.466%">
      <stop offset="0%" stop-color="#3C8640"/>
      <stop offset="100%" stop-color="#65B12D"/>
    </linearGradient>
    <linearGradient id="mantis-c" x1="50%" x2="50%" y1="24.56%" y2="100%">
      <stop offset="0%" stop-color="#6FBB29"/>
      <stop offset="100%" stop-color="#246D4B"/>
    </linearGradient>
    <linearGradient id="mantis-d" x1="25.438%" x2="80.792%" y1="9.469%" y2="100%">
      <stop offset="0%" stop-color="#FEF000"/>
      <stop offset="100%" stop-color="#FDB901"/>
    </linearGradient>
  </defs>
  <g fill="none" transform="translate(-.178 .72)">
    <g fill="#016338" transform="translate(8.96 2.347)">
      <path d="M2.70705863,9.01395304 C2.91707253,9.01395304 3.39758192,8.96730624 3.46437154,7.84919288 C3.47608554,7.65309087 3.54978916,5.96292698 3.57394688,5.78591705 C3.8751676,3.57879408 4.39071134,0.405087193 3.93584108,0.405087193 C3.85003369,0.405087193 3.71915258,0.122417234 3.52442686,0.174734884 C3.4789214,0.186960998 3.35837052,0.224619222 3.26986279,0.315430085 C3.19399863,0.393268367 3.15246927,0.53687074 3.13483094,0.570928183 C3.0164551,0.799497266 2.93796233,1.17979936 2.85625498,1.61555581 C2.78956865,1.97120314 2.7396151,2.356164 2.65300007,2.73020175 C2.54854013,3.18130086 1.88941812,6.64561787 1.79465089,7.59161479 C1.75585832,7.97885468 1.73059704,8.20953857 1.76834608,8.32794518 C1.89831309,8.73560992 2.21862825,9.01395304 2.70705863,9.01395304 Z" transform="rotate(22 2.933 4.591)"/>
      <path d="M5.99432601,11.7310418 C5.98824815,9.50017678 5.95026594,7.55176864 5.88037938,5.88581733 C5.85083178,5.18146372 5.55680508,3.82147983 5.55680508,3.31284682 C5.55680508,1.6440486 5.75750941,1.17294982 5.60150709,0.965736515 C5.54126942,0.88572459 5.41932219,0.731663429 5.22476537,0.731663429 C4.99887131,0.731663429 4.42102845,1.14559843 3.98887498,1.94587025 C3.69340975,2.49301962 3.50160061,3.27590426 3.39629727,4.01243432 C3.17942613,5.52931035 3.82019904,7.3423097 4.14641626,8.23145715 C4.42952098,9.00309588 5.0454909,10.1696241 5.99432601,11.7310418 Z" transform="scale(-1 1) rotate(-11 0 54.766)"/>
    </g>
    <polygon fill="#016338" points="8.926 6.979 10.206 6.979 10.206 10.179 8.971 10.192" transform="rotate(-16 9.566 8.586)"/>
    <polygon fill="#2E7746" points="9.137 6.98 9.991 6.98 9.991 10.18 9.137 10.18" transform="rotate(-16 9.564 8.58)"/>
    <g transform="translate(0 2.56)">
      <g transform="translate(9.173)">
        <path fill="url(#mantis-a)" d="M2.46505783,8.59472686 C3.05416157,8.59472686 3.08811676,8.0345486 3.08811676,7.150893 C3.08811676,6.2672374 3.97063592,0.160850185 3.38153218,0.160850185 C3.29670382,0.160850185 3.1395685,0.12500383 3.05251658,0.362807342 C2.82397645,0.98712029 2.65925063,2.45990693 2.41777598,3.65641302 C2.1124687,5.16920958 1.7821112,6.48201536 1.7821112,6.90437462 C1.7821112,7.28294793 1.64187449,7.71101436 1.707887,8.00395643 C1.79595912,8.39479184 2.1283363,8.59472686 2.46505783,8.59472686 Z" transform="rotate(22 2.637 4.377)"/>
        <path fill="#65B12D" d="M5.58715309,11.0393929 C5.52239598,8.9586592 5.46054328,7.2394557 5.401595,5.8817824 C5.37667204,5.30776677 5.16387675,4.20919806 5.16387675,3.79468567 C5.16387675,1.90955373 5.6125056,0.704543619 5.02340187,0.704543619 C4.43429813,0.704543619 3.28777329,2.33147809 3.28777329,4.21661004 C3.28777329,5.00560403 3.40733424,6.2223874 4.01151356,7.81345369 C4.2503082,8.44230359 4.77552138,9.51761665 5.58715309,11.0393929 Z" transform="scale(-1 1) rotate(-11 0 51.957)"/>
        <path fill="#016338" d="M3.98657304,2.13362817 C3.67489752,4.56092306 3.5232189,6.33915156 3.53153718,7.46831366 C3.53985546,8.59747577 3.80272735,9.77197822 4.32015284,10.991821 C3.67937241,9.82621696 3.35771696,8.6215187 3.35518649,7.37772623 C3.35265601,6.13393376 3.5631182,4.38590107 3.98657304,2.13362817 Z" transform="rotate(-162 3.838 6.563)"/>
      </g>
      <path fill="#016338" d="M4.83411645,13.1733477 C5.09756708,12.2624262 5.1694435,11.3780471 5.04974572,10.5202102 C4.95926052,9.87173091 4.88546388,8.92274922 4.85014239,8.23329984 C4.81782731,7.60253341 4.86418169,6.52482516 4.86418169,6.06933147 C4.86418169,3.99782355 5.21803455,2.93577714 4.45420332,2.93577714 C3.6903721,2.93577714 2.59721172,4.60540166 2.59721172,6.67690958 C2.59721172,7.5982096 2.7806025,8.98906412 3.44429622,10.6086288 C3.66507373,11.1473765 4.12834714,12.0022828 4.83411645,13.1733477 Z" transform="rotate(-32 3.852 8.055)"/>
      <path fill="#016338" d="M4.67139043,9.86920803 C4.69639731,9.86920803 4.84555391,9.85140794 4.97153449,9.74130692 C5.07468179,9.6511611 5.15450902,9.48802397 5.20330135,9.31546909 C5.4949745,8.28396213 7.08232173,1.90095682 6.74585411,1.90095682 C6.64719314,1.90095682 6.58962814,1.79112699 6.39019855,1.86837121 C6.34348562,1.88646433 6.23630571,1.96981079 6.15512315,2.12603919 C5.86892088,2.67680922 5.44240191,4.00049499 5.00525183,5.06388333 C4.44856749,6.41804443 4.02064416,7.48568528 3.84507921,7.8690491 C3.70905051,8.16608151 3.48279373,8.8711909 3.58859033,9.06480135 C3.63774521,9.15475601 3.71069897,9.29138821 3.72640056,9.31546751 C3.82362564,9.46456778 3.95219515,9.60519586 4.01881047,9.66134368 C4.19609531,9.81077111 4.43335014,9.86920803 4.67139043,9.86920803 Z" transform="scale(-1 1) rotate(35 0 -10.564)"/>
    </g>
    <path fill="#016338" d="M6.94379338,6.91473266 L8.22379338,6.91473266 C8.21469795,8.91564041 8.20950143,9.96899582 8.20820383,10.0747989 C8.20690623,10.180602 8.19792509,10.2832569 8.18126041,10.3827636 L7.95228735,10.7547327 L6.94379338,10.7547327 L6.94379338,6.91473266 Z" transform="rotate(-5 7.584 8.835)"/>
    <polygon fill="#2E7746" points="7.157 6.915 8.01 6.915 8.01 10.386 7.829 10.755 7.157 10.755" transform="rotate(-5 7.584 8.835)"/>
    <g transform="translate(.427 4.48)">
      <path fill="#65B12D" d="M4.28715976,10.9193043 C4.36375559,10.3691664 4.40824509,9.9810291 4.42062825,9.75489226 C4.43689926,9.45775709 4.4041124,9.17280963 4.40066534,8.96819993 C4.38541771,8.06313294 4.228947,7.10280244 4.19479837,6.31630475 C4.16987541,5.74228912 4.20562616,4.76154353 4.20562616,4.34703114 C4.20562616,2.46189919 4.65425502,1.25688908 4.06515128,1.25688908 C3.47604755,1.25688908 2.3295227,2.88382356 2.3295227,4.7689555 C2.3295227,5.60442116 2.53181746,6.88953059 3.10858012,8.42622127 C3.30247099,8.9428121 3.69533087,9.77383978 4.28715976,10.9193043 Z" transform="rotate(-32 3.377 6.088)"/>
      <path fill="url(#mantis-b)" d="M4.23075649,7.83157884 C4.26986124,7.83157884 4.57038109,7.87126746 4.66357066,7.48795998 C4.91435022,6.45645302 6.27914583,0.0734477003 5.98985215,0.0734477003 C5.90502379,0.0734477003 5.70707806,-0.0146335832 5.62002614,0.223169929 C5.50529961,0.536573352 5.07788545,2.04097962 4.59541091,3.40600284 C4.11677566,4.76016394 3.47545319,6.39829227 3.43776102,6.55228362 C3.3765216,6.80247719 3.3791094,7.1258941 3.43199835,7.22893382 C3.50979419,7.38049783 3.59763362,7.50587094 3.69598423,7.60228494 C3.84841312,7.75171237 4.02609029,7.83157884 4.23075649,7.83157884 Z" transform="scale(-1 1) rotate(38 0 -9.737)"/>
    </g>
    <path fill="#016338" d="M4.53112639,6.34613018 C4.21945087,8.77342506 4.06777225,10.5516536 4.07609053,11.6808157 C4.08440881,12.8099778 4.3472807,13.9844802 4.8647062,15.204323 C4.22392577,14.038719 3.90227031,12.8340207 3.89973984,11.5902282 C3.89720936,10.3464358 4.10767155,8.59840307 4.53112639,6.34613018 Z" transform="scale(1 -1) rotate(37 36.586 0)"/>
    <path fill="#016338" d="M8.14674925,8.32 C9.17333333,8.32 11.3026113,6.3508731 11.3026113,5.15936329 C11.3026113,3.96785348 9.72665364,2.88 7.78261132,2.88 C5.838569,2.88 4.26261132,3.96785348 4.26261132,5.15936329 C4.26261132,6.3508731 6.94104166,8.32 8.14674925,8.32 Z"/>
    <path fill="url(#mantis-c)" d="M8.12873563,8.10666667 C8.92689655,8.10666667 11.0933333,6.34596376 11.0933333,5.22666667 C11.0933333,4.10736957 9.61288824,2.944 7.78666667,2.944 C5.96044509,2.944 4.48,4.10736957 4.48,5.22666667 C4.48,6.34596376 7.33057471,8.10666667 8.12873563,8.10666667 Z"/>
    <path fill="#016338" d="M5.55675802,6.60014588 C4.92635388,6.46404963 4.45332944,5.89068432 4.45332944,5.15890871 C4.45332944,4.3184049 5.07736178,3.63704193 5.84714468,3.63704193 C6.36675505,3.63704193 6.81995605,3.94749618 7.05964775,4.4077905 C7.50449044,5.0431206 7.75405814,6.38492269 7.62109136,6.54991231 C7.45756461,6.75282176 6.28111034,6.80806355 5.59976989,6.61254915 C5.58508953,6.60833653 5.57075608,6.60421844 5.55675802,6.60014588 Z"/>
    <path fill="url(#mantis-d)" d="M5.18862608,6.35326933 C5.03674644,6.29542967 4.9021605,6.20800838 4.79255407,6.0842919 C4.60108592,5.86817534 4.45332944,5.52158066 4.45332944,5.20033889 C4.45332944,4.49970603 4.98257541,3.86918719 5.66908579,3.85078822 C5.67933553,3.85051352 5.7429077,3.85037526 5.7532022,3.85037526 C5.92318609,3.85037526 6.2964551,3.89893942 6.56650074,4.18459383 C6.6187025,4.23981288 6.66721524,4.30339716 6.71159966,4.37149279 C7.10129451,4.87673471 7.44451017,6.30738497 7.32785647,6.43153808 C7.1824732,6.58626772 6.13654785,6.62839264 5.5308029,6.47930213 C5.47082034,6.46453877 5.33787215,6.42336863 5.21008327,6.36351056 C5.20291001,6.36015051 5.195753,6.3567325 5.18862608,6.35326933 Z"/>
    <path fill="#000" d="M6.14104298,6.13809576 C5.8815047,6.24290312 5.54359828,6.0124295 5.38630787,5.62331852 C5.22901746,5.23420754 5.31190574,4.83380761 5.57144402,4.72900025 C5.8309823,4.62419289 6.16888872,4.85466651 6.32617913,5.24377749 C6.48346954,5.63288847 6.40058126,6.0332884 6.14104298,6.13809576 Z"/>
    <path fill="#016338" d="M9.12048469,6.60278926 C8.49008055,6.466693 8.01705611,5.8933277 8.01705611,5.16155209 C8.01705611,4.32104828 8.64108845,3.63968531 9.41087136,3.63968531 C9.93048172,3.63968531 10.3836827,3.95013956 10.6233744,4.41043388 C11.0682171,5.04576398 11.3177848,6.38756606 11.184818,6.55255569 C11.0212913,6.75546514 9.84483701,6.81070693 9.16349657,6.61519253 C9.1488162,6.61097991 9.13448275,6.60686182 9.12048469,6.60278926 Z" transform="matrix(-1 0 0 1 19.238 0)"/>
    <path fill="url(#mantis-d)" d="M9.00281293,6.35974561 C8.85093329,6.30190595 8.71634735,6.21448466 8.60674092,6.09076818 C8.41527277,5.87465162 8.26751629,5.52805694 8.26751629,5.20681517 C8.26751629,4.50618231 8.79676226,3.87566347 9.48327264,3.85726449 C9.49352238,3.85698979 9.55709455,3.85685154 9.56738905,3.85685154 C9.73737294,3.85685154 10.1106419,3.90541569 10.3806876,4.19107011 C10.4328894,4.24628915 10.4814021,4.30987344 10.5257865,4.37796907 C10.9154814,4.88321099 11.258697,6.31386125 11.1420433,6.43801436 C10.99666,6.592744 9.9507347,6.63486892 9.34498975,6.4857784 C9.28500719,6.47101505 9.152059,6.42984491 9.02427012,6.36998684 C9.01709686,6.36662679 9.00993986,6.36320878 9.00281293,6.35974561 Z" transform="matrix(-1 0 0 1 19.433 0)"/>
    <path fill="#000" d="M9.95522983,6.14457204 C9.69569155,6.2493794 9.35778513,6.01890577 9.20049472,5.6297948 C9.04320431,5.24068382 9.12609259,4.84028389 9.38563087,4.73547653 C9.64516915,4.63066917 9.98307557,4.86114279 10.140366,5.25025377 C10.2976564,5.63936475 10.2147681,6.03976467 9.95522983,6.14457204 Z" transform="matrix(-1 0 0 1 19.34 0)"/>
    <path fill="#016338" d="M10.6617133,-0.0413196704 C9.78309463,0.239753128 9.26997831,0.715515015 9.12236437,1.38596599 C9.0674736,1.63527562 9.00708304,2.29157003 9.15357193,2.81280334 C9.37597454,3.60415104 9.82344371,4.23034741 9.82327513,4.24672978 C9.82289726,4.2477461 9.80216193,4.27628583 9.76106914,4.33234898 C9.34364541,3.62133716 9.09253724,3.11581144 9.00774463,2.8157718 C8.81616164,2.13785314 8.93649156,1.54257313 8.99850751,1.29891735 C9.16627804,0.639760134 9.72067998,0.193014462 10.6617133,-0.0413196704 Z" transform="rotate(54 9.783 2.146)"/>
    <path fill="#016338" d="M6.54395995,-0.0352545992 C5.66534125,0.245818199 5.15222493,0.721580087 5.00461099,1.39203106 C4.94972022,1.64134069 4.88932966,2.2976351 5.03581855,2.81886841 C5.25822116,3.61021611 5.70569033,4.23641248 5.70552175,4.25279485 C5.70514388,4.25381117 5.68440855,4.2823509 5.64331576,4.33841405 C5.22589203,3.62740223 4.97478386,3.12187651 4.88999125,2.82183687 C4.69840826,2.14391821 4.81873818,1.5486382 4.88075413,1.30498242 C5.04852466,0.645825205 5.6029266,0.199079533 6.54395995,-0.0352545992 Z" transform="scale(-1 1) rotate(54 0 -8.967)"/>
  </g>
</svg>
