<svg xmlns="http://www.w3.org/2000/svg" width="16" height="16" viewBox="0 0 16 16">
  <g fill="none" fill-rule="evenodd" transform="translate(.758 .73)">
    <path fill="#DE752C" d="M5.41296273 3.47936525L6.97269489 6.18134491C7.22066024 6.11514421 7.49120248 6.13427742 7.73725468 6.24907612L8.55691775 4.8286331 7.18622069 2.45536046 5.3968909 3.48854911 5.41296273 3.47936525M3.06150182 6.97460423L6.1817319 6.97460423C6.20660568 6.88199979 6.24257521 6.79054379 6.29308637 6.70329673 6.37765501 6.55597163 6.49130582 6.4365808 6.6217935 6.34589006L5.80213042 4.92544671 3.05997113 4.92544671 3.05997113 6.99182429 3.06149944 6.99182429 3.06149944 6.97460313M8.23318538 7.82373211C8.14823411 7.97067458 8.03496593 8.08968278 7.90447825 8.18037351L8.72528922 9.60234756 11.4663002 9.60234756 11.4663002 7.55318987 8.34415722 7.55318987C8.31890136 7.64579431 8.28369654 7.73725087 8.23318538 7.82373211M8.05371651 6.47178562C8.24351697 6.66005556 8.35563726 6.90763828 8.37859678 7.16708367L10.0183056 7.16708367 11.3890026 4.79304554 9.6149793 3.76865806 8.05371651 6.47178562M4.91129223 10.7587536L6.47217261 8.05447796C6.28428531 7.86620802 6.17101713 7.61939056 6.14805761 7.36071099L4.50758328 7.36071099 3.13650364 9.7336005 4.92583337 10.767172 4.91129228 10.7587552M9.11369176 11.0476638L7.55357686 8.34568393C7.30675941 8.41264989 7.03621717 8.39351557 6.78978234 8.27757008L5.969354 9.69839569 7.33966844 12.072051 9.12899811 11.0388621 9.11369287 11.0476665"/>
    <path fill="#517A9E" fill-rule="nonzero" d="M7.26351823,0.276862971 C3.41087263,0.276862971 0.276866965,3.41086866 0.276866965,7.26274916 C0.276866965,11.1161602 3.41087263,14.2509311 7.26351823,14.2509311 C11.1161641,14.2509311 14.2505523,11.1161602 14.2505523,7.26274916 C14.2505523,3.41086866 11.1161641,0.276862971 7.26351823,0.276862971 Z M7.26351823,1.69156615 C10.3405074,1.69156615 12.8354667,4.18576014 12.8354667,7.26274916 C12.8354667,10.3408862 10.3405074,12.8358455 7.26351823,12.8358455 C4.18614681,12.8358455 1.69157013,10.3408862 1.69157013,7.26274916 C1.69157013,4.18576014 4.18614681,1.69156615 7.26351823,1.69156615 Z"/>
  </g>
</svg>
