<svg xmlns="http://www.w3.org/2000/svg" width="16" height="16" viewBox="0 0 16 16">
  <g fill="none" fill-rule="evenodd" transform="translate(1 3)">
    <polygon fill="#4C4C4C" points="0 9.526 3.031 9.526 3.247 6.928 .433 6.279 0 9.526"/>
    <polygon fill="#4C4C4C" points=".541 5.845 3.247 6.495 3.897 4.222 1.624 3.031 .541 5.845"/>
    <polygon fill="#4C4C4C" points="1.84 2.598 4.005 3.789 5.737 2.598 4.113 .758"/>
    <polygon fill="#4C4C4C" points="13.964 9.526 10.933 9.526 10.716 6.928 13.531 6.279 13.964 9.526"/>
    <polygon fill="#4C4C4C" points="13.422 5.845 10.716 6.495 10.067 4.222 12.34 3.031 13.422 5.845"/>
    <polygon fill="#4C4C4C" points="12.124 2.598 9.959 3.789 8.227 2.598 9.851 .758"/>
    <polygon fill="#4C4C4C" points="4.655 .433 6.278 2.381 7.794 2.381 9.201 .433 7.794 0 6.24 0 4.655 .433"/>
    <polygon fill="#9C0000" points="0 9.526 3.031 9.526 3.247 6.928 .433 6.279 0 9.526"/>
    <polygon fill="#B50808" points=".541 5.845 3.247 6.495 3.897 4.222 1.624 3.031 .541 5.845"/>
    <polygon fill="#C61818" points="1.84 2.598 4.005 3.789 5.737 2.598 4.113 .758"/>
    <polygon fill="#9C0000" points="13.964 9.526 10.933 9.526 10.716 6.928 13.531 6.279 13.964 9.526"/>
    <polygon fill="#B50808" points="13.422 5.845 10.716 6.495 10.067 4.222 12.34 3.031 13.422 5.845"/>
    <polygon fill="#C61818" points="12.124 2.598 9.959 3.789 8.227 2.598 9.851 .758"/>
    <polygon fill="#CE3129" points="4.655 .433 6.278 2.381 7.794 2.381 9.201 .433 7.794 0 6.24 0 4.655 .433"/>
  </g>
</svg>
