<svg xmlns="http://www.w3.org/2000/svg" width="16" height="16" viewBox="0 0 16 16">
  <path fill="#D94949" fill-rule="evenodd" d="M9.44920943,14.5877998 C9.34996499,14.3655551 9.32511308,13.9958693 9.3858104,13.7106172 C9.42996698,13.4938141 9.74428426,13.3118978 9.80805686,13.15241 C9.78125439,13.0481285 9.7868635,12.7086101 9.72831298,12.6653907 C9.68512028,12.6335077 9.36044245,12.6863064 9.09036199,12.7138187 C8.9367454,12.7294672 8.82642438,12.7229745 8.73151456,12.7229745 C8.37322778,12.7229745 8.32007727,12.4791068 8.11338995,12.3336168 C8.02795344,12.2731868 7.43281855,11.8374685 7.17650902,11.6372764 C7.04691593,11.5357484 6.80548866,11.4333254 6.69804578,11.3730387 C6.59812081,11.3154852 6.41697598,11.2075333 6.38826285,11.0327982 C6.31089837,10.5619931 6.40241871,8.67515863 6.41894222,8.61598042 C6.43546573,8.55680221 6.28396666,8.11934428 6.33919835,7.96841266 C6.36681419,7.8998204 6.39095653,7.84433202 6.41857237,7.83058493 C6.48746814,7.79492841 6.90084277,7.79492841 7.03043586,7.83058493 C7.15168666,7.86624145 7.19023378,7.9238074 7.19023378,8.06929745 C7.19023378,8.12958418 7.20950733,8.20104042 7.23151371,8.23111218 C7.28386874,8.30242522 7.28113592,8.37101748 7.2204386,8.50820201 C7.18735712,8.57679427 7.13226927,8.63994497 7.08264706,8.66729596 C7.01375129,8.7002317 6.99721055,8.72772588 6.99721055,8.79631814 C6.99721055,8.91335936 7.02568939,9.48238396 7.08264706,10.5033919 C7.55539744,10.6239654 7.87907897,10.7428205 8.05369163,10.8599571 C8.08850172,10.8842999 8.17313851,10.9419136 8.307602,11.0327982 C8.3039991,10.8402949 8.3039991,10.7248504 8.307602,10.6864645 C8.3186771,10.5273706 8.28769635,10.327241 8.307602,9.93274442 C8.34039581,9.28282616 8.307602,9.38175095 8.307602,9.08547247 C8.307602,8.89893207 8.307602,8.71286303 8.307602,8.52726536 C7.88484854,8.08524608 7.39475145,7.67095086 7.41574064,6.86619805 L7.17650902,6.57653083 C6.93947305,6.22812797 6.70669823,6.00735895 6.53855803,5.49699815 C6.46348115,5.26959739 6.31728405,4.97720319 6.09996673,4.61981554 C5.16003367,4.57323925 4.49550139,4.35587437 4.10636988,3.96772089 C3.82739759,3.68944977 3.19964975,3.1854998 2.92679948,3.19108456 C2.33981901,3.20483165 2.22949948,3.30103822 2.1331317,3.24619305 C1.99534015,3.1638537 1.9760666,3.10084619 1.98153223,2.70017574 C1.98426505,2.34618812 1.98153223,2.33802578 1.89063009,2.13769056 C1.79972794,1.94007611 1.79699512,1.92632902 1.79699512,1.57792615 C1.79699512,1.20747066 1.82734378,1.06484458 1.92097875,1.01544097 C2.00641526,0.971478914 2.09185177,0.916513623 2.16621317,1.10582254 C2.23237613,1.26491649 2.33640563,1.84413286 2.66980938,2.26112799 C2.90123589,2.55468568 3.34851639,2.81208024 4.45631438,3.10291716 C4.74042544,3.17781088 5.15570604,3.30903383 5.61372479,3.43636527 C6.06210172,3.56101625 6.55537681,3.63306563 6.64393208,3.69376073 C6.7596305,3.77305953 7.35757136,4.31061337 7.5422523,4.46154498 C8.13196558,4.94441159 8.56571384,5.17835381 8.97074618,5.93558946 C9.0479363,6.08193871 9.12768017,6.17497323 9.2099778,6.21469302 C9.65479468,5.89556552 10.0269328,5.71772005 10.326392,5.68115661 C11.3625614,5.5549984 11.2499455,5.50832576 11.2499455,5.48913711 C11.2499455,5.47539002 10.995565,5.19462311 10.9360834,5.13030163 C10.74934,4.9283634 10.1521793,3.47177063 9.72831298,2.70596257 C9.66400878,2.58978283 9.52886758,2.52476828 9.44920943,2.46673095 C9.34863378,2.39345356 9.34766318,2.29400408 9.32959361,2.26112799 C9.25747672,2.13154715 9.4374458,1.928057 9.64856911,1.70921227 C9.80841011,1.54352539 9.99036829,1.34234445 10.0699436,1.31044478 C10.4751197,1.14576607 10.6108781,0.952290265 10.9360834,1.01544097 C11.1840506,1.06484458 11.2998358,1.12799529 11.3136437,1.2157762 C11.3247188,1.28164768 11.2474807,1.34193441 11.0160542,1.4572095 C10.871994,1.52936254 10.6421066,1.82599776 10.326392,2.34711514 C11.5600073,3.87538724 12.1979583,4.71269791 12.240245,4.85904716 C12.2799628,4.99993054 12.521954,5.34594248 12.5990924,5.57674203 C12.6375713,5.6918714 12.6304127,5.8348201 12.5897641,5.97368535 C12.5310057,6.17441795 11.8970112,6.86933802 11.1727074,7.33110725 C10.9848554,7.45086954 10.6172674,7.6173621 10.0699436,7.83058493 C10.1123784,8.10422082 10.1712799,8.37731636 10.2466482,8.64987155 C10.3568239,9.05598356 10.6453675,9.45156499 10.7535795,9.77078649 C10.8617914,10.090008 10.9876742,10.6233138 11.004215,10.6864645 C11.0125572,10.7110947 11.107063,10.6059223 11.2035746,10.5208622 C11.3551741,10.3863985 12.2080344,9.72043419 12.4396047,9.64367959 C12.552657,9.60530229 12.7541458,9.80553184 12.845048,9.84935069 C12.9001358,9.87684488 13.0043753,10.0178941 13.1174276,10.1221428 C13.3566592,10.6006061 13.5502656,10.8704286 13.8151983,11.4777887 C13.948462,11.7832968 13.9669416,11.8258157 14.0827267,11.9465323 C14.184704,12.0507811 14.2287167,12.1276789 14.264531,12.2428108 C14.3086876,12.3937424 14.3086876,12.4046255 14.2590654,12.4952704 C14.2039775,12.5995192 14.0605765,12.7202358 13.9089771,12.7915489 C13.8208077,12.8326469 13.7988014,12.8355109 13.738104,12.8025752 C13.7022897,12.7833865 13.6637426,12.7450092 13.6526675,12.7147943 C13.6443252,12.6873001 13.6223189,12.6653907 13.6003125,12.6653907 C13.5810389,12.6653907 13.5368824,12.6434812 13.5038009,12.615987 C13.42383,12.5528363 13.3990908,12.2949352 13.4597881,12.108347 C13.4983352,11.9766041 13.4983352,11.9738833 13.4074331,11.8010422 C13.2861823,11.5704921 12.8011791,10.9798683 12.7542897,10.9195816 L12.5310616,10.6864645 L12.240245,11.0790693 C12.163007,11.1751558 12.0016142,11.3075431 11.8887056,11.3980448 C11.7481813,11.5575326 11.602294,11.5974045 11.5624221,11.7170203 C11.3473504,12.0758677 11.3074785,12.1166705 11.0733191,12.2676021 C11.0200052,12.3023517 10.8906453,12.358056 10.6852395,12.4347152 C10.6796779,12.5958616 10.6796779,12.6974851 10.6852395,12.7395856 C10.6934379,12.8246457 10.613199,12.8713285 10.9163979,12.8492759 C11.0431143,12.8411136 11.0872709,12.8740493 11.0872709,12.9837397 C11.0872709,13.0166754 11.1065445,13.0633582 11.1314275,13.0852677 C11.1535777,13.1098979 11.164509,13.1401128 11.1561667,13.1565807 C11.1479682,13.1703278 11.1479682,13.2005428 11.1616323,13.2170106 C11.1727074,13.2361993 11.178173,13.2856029 11.1727074,13.326701 C11.1672418,13.3952932 11.1754402,13.4034556 11.2499455,13.4034556 C11.2939582,13.4034556 11.3408476,13.4144819 11.3491899,13.4309497 C11.3573884,13.4446968 11.3082015,13.508662 11.2833185,13.5910013 C11.2391619,13.7336274 11.1285508,13.8070795 11.1727074,13.9498488 C11.2139873,14.078871 11.2310467,14.2113836 11.2035746,14.3485681 C11.1292132,14.7025558 11.0264297,14.7309449 10.7535795,14.8270314 C10.6044252,14.8790126 9.96754461,15.066263 9.44920943,14.5877998 Z" transform="scale(1 -1) rotate(-1 -901.756 0)"/>
</svg>
