<svg xmlns="http://www.w3.org/2000/svg" width="16" height="16" viewBox="0 0 16 16">
  <path fill="#C00000" fill-rule="evenodd" d="M.150608735 9.59439692C.451972036 10.2877465 1.07665729 11.0612451 1.61910939 10.9981827 2.16156149 10.9352166 2.76429731 9.48545508 2.6437483 9.2333306 2.5231993 8.98120612 2.02989254 7.07300749 1.24108673 7.09596647.452287378 7.1189158-.150754566 8.90104737.150608735 9.59439692zM1.4471929 5.48406497C1.68282315 6.38364997 2.73477322 7.74146955 3.67163284 7.64406987 4.60848323 7.54666055 4.35668019 6.16566022 4.10467431 5.22611637 4.06827172 5.09041638 4.17029671 4.59434433 3.98260391 4.08864898 3.79491112 3.58295364 3.39189164 3.17163984 2.99780685 3.19186033 1.88034501 3.24918545 1.1458296 4.79071542 1.4471929 5.48406497zM5.32547045 6.2746117C5.62683375 6.96795161 5.56131277 7.56960988 6.2681021 7.74717795 6.97489143 7.92474602 7.97783448 6.34694068 8.14727987 5.63856799 8.31671605 4.93019531 8.10068861 3.15447606 6.87609362 3.15749418 5.65148941 3.16050267 5.22131552 4.58449926 5.32547045 6.2746117zM7.49467951 9.29927619C7.43450643 10.0269919 7.82912602 10.6630067 8.66738144 10.6686958 9.50559077 10.6744813 10.2727376 8.64038921 10.1521333 8.38826473 10.0316211 8.13614025 9.96560225 6.98411257 9.17675956 7.0070619 8.38796297 7.03002088 7.4562484 8.33095889 7.49467951 9.29927619zM2.20312757 12.9770325C3.14180362 13.7257786 3.81879225 12.6863087 5.07575125 12.6919014 6.33271947 12.6974941 7.18364389 13.5418947 7.81284259 12.5591231 8.6192688 11.2995132 7.49938197 11.1947948 6.81128262 10.3285635 6.12318328 9.46230325 6.53131092 8.82202645 5.12354118 8.7663502 3.60570616 8.70632516 3.9261467 10.4058584 3.22787713 10.787878 2.21398934 11.3426155 1.62407003 12.5150566 2.20312757 12.9770325zM.000322441683 6.24023591C.0210241752 6.52930111.388085856 6.91197644.641312539 6.87414861.894539221 6.83632078.957519024 6.56359975.941420006 6.2022538.925320987 5.84091749.536447625 5.27700026.342169537 5.29995923.147890527 5.32290857-.020379255 5.95117072.000322441683 6.24023591zM2.20746121 2.26628858C2.22816127 2.55535378 2.22640937 3.05856134 2.61794008 3.0207335 3.0094708 2.98289603 3.18771257 2.75839754 3.17161355 2.39705158 3.15550531 2.03570562 2.85884447 1.42358611 2.66456823 1.44653834 2.47029198 1.46949153 2.18676116 1.97722339 2.20746121 2.26628858zM6.56415439 1.97701125C6.58485444 2.26607645 6.92887185 2.84160334 7.18209484 2.80377551 7.43531783 2.76593803 7.68271346 2.3003751 7.66661444 1.93902914 7.65050621 1.577688 7.30774279.917350303 7.11346655.940303252 6.91919031.963256204 6.54345433 1.68794413 6.56415439 1.97701125zM9.07674463 6.24385188C9.09744469 6.53291707 9.18789794 6.84327308 9.44113937 6.80544525 9.69433471 6.76760777 10.010875 6.61542861 9.99483128 6.25408265 9.97869538 5.8927367 9.93563557 5.06365823 9.74126713 5.08660756 9.54699088 5.10956654 9.05604458 5.95478669 9.07674463 6.24385188z" transform="rotate(-15.703 7.872 -2.64)"/>
</svg>
