<!-- Copyright 2000-2023 JetBrains s.r.o. and contributors. Use of this source code is governed by the Apache 2.0 license. -->
<svg width="16" height="16" viewBox="0 0 16 16" fill="none" xmlns="http://www.w3.org/2000/svg">
<path d="M7 0C6.44772 0 6 0.447715 6 1V3C6 3.55228 6.44772 4 7 4H9C9.55228 4 10 3.55228 10 3V1C10 0.447715 9.55228 0 9 0H7Z" fill="#43454A"/>
<path d="M6 5C5.44772 5 5 5.44772 5 6V10C5 10.5523 5.44772 11 6 11H10C10.5523 11 11 10.5523 11 10V6C11 5.44772 10.5523 5 10 5H6Z" fill="#43454A"/>
<path d="M11 12C10.4477 12 10 12.4477 10 13V15C10 15.5523 10.4477 16 11 16H13C13.5523 16 14 15.5523 14 15V13C14 12.4477 13.5523 12 13 12H11Z" fill="#43454A"/>
<path d="M2 13C2 12.4477 2.44772 12 3 12H5C5.55228 12 6 12.4477 6 13V15C6 15.5523 5.55228 16 5 16H3C2.44772 16 2 15.5523 2 15V13Z" fill="#43454A"/>
<path fill-rule="evenodd" clip-rule="evenodd" d="M6 1C6 0.447715 6.44772 0 7 0H9C9.55228 0 10 0.447715 10 1V3C10 3.55228 9.55228 4 9 4H8.50004V5H10C10.5523 5 11 5.44772 11 6V10C11 10.3511 10.8191 10.6599 10.5454 10.8383L11.7071 12H13C13.5523 12 14 12.4477 14 13V15C14 15.5523 13.5523 16 13 16H11C10.4477 16 10 15.5523 10 15V13C10 12.6489 10.1809 12.3401 10.4546 12.1617L9.29293 11H6.70714L5.54544 12.1617C5.8191 12.3401 6 12.6489 6 13V15C6 15.5523 5.55228 16 5 16H3C2.44772 16 2 15.5523 2 15V13C2 12.4477 2.44772 12 3 12H4.29293L5.45461 10.8383C5.18092 10.6599 5 10.3511 5 10V6C5 5.44772 5.44772 5 6 5H7.50004V4H7C6.44772 4 6 3.55228 6 3V1ZM7 1H9V3H7V1ZM6 10V6H10V10H6ZM13 13H11V15H13V13ZM3 13H5V15H3V13Z" fill="#CED0D6"/>
</svg>
