<!-- Copyright 2000-2023 JetBrains s.r.o. and contributors. Use of this source code is governed by the Apache 2.0 license. -->
<svg width="16" height="16" viewBox="0 0 16 16" fill="none" xmlns="http://www.w3.org/2000/svg">
<path fill-rule="evenodd" clip-rule="evenodd" d="M10 2H6V6H10V2Z" fill="#43454A"/>
<path fill-rule="evenodd" clip-rule="evenodd" d="M6 1C5.44772 1 5 1.44772 5 2V6C5 6.55228 5.44772 7 6 7H6.53967L3.73967 11H3C2.44772 11 2 11.4477 2 12V14C2 14.5523 2.44772 15 3 15H5C5.55228 15 6 14.5523 6 14V12C6 11.4477 5.55228 11 5 11H4.96033L7.76032 7H8.23967L11.0397 11H11C10.4477 11 10 11.4477 10 12V14C10 14.5523 10.4477 15 11 15H13C13.5523 15 14 14.5523 14 14V12C14 11.4477 13.5523 11 13 11H12.2603L9.46032 7H10C10.5523 7 11 6.55228 11 6V2C11 1.44772 10.5523 1 10 1H6ZM10 6V2H6V6H10ZM11.9939 12C11.9982 12.0001 12.0026 12.0001 12.007 12H13V14H11V12H11.9939ZM3.99299 12C3.99737 12.0001 4.00175 12.0001 4.00613 12H5V14H3V12H3.99299Z" fill="#CED0D6"/>
</svg>
