<!-- Copyright 2000-2023 JetBrains s.r.o. and contributors. Use of this source code is governed by the Apache 2.0 license. -->
<svg width="16" height="16" viewBox="0 0 16 16" fill="none" xmlns="http://www.w3.org/2000/svg">
<path fill-rule="evenodd" clip-rule="evenodd" d="M10 10H6V14H10V10Z" fill="#43454A"/>
<path fill-rule="evenodd" clip-rule="evenodd" d="M3.73966 5H3C2.44772 5 2 4.55228 2 4V2C2 1.44772 2.44772 1 3 1H5C5.55228 1 6 1.44772 6 2V4C6 4.55228 5.55228 5 5 5H4.96032L7.76032 9H8.23968L11.0397 5H11C10.4477 5 10 4.55228 10 4V2C10 1.44772 10.4477 1 11 1H13C13.5523 1 14 1.44772 14 2V4C14 4.55228 13.5523 5 13 5H12.2603L9.46033 9H10C10.5523 9 11 9.44771 11 10V14C11 14.5523 10.5523 15 10 15H6C5.44772 15 5 14.5523 5 14V10C5 9.44771 5.44772 9 6 9H6.53966L3.73966 5ZM3 2H5V4H4.00509C4.00141 3.99996 3.99772 3.99996 3.99403 4H3V2ZM7.49647 10H6V14H10V10H8.50352L8.5 10H7.5L7.49647 10ZM12.006 4H13V2H11V4H11.9949C11.9986 3.99996 12.0023 3.99996 12.006 4Z" fill="#CED0D6"/>
</svg>
