<svg width="16" height="16" viewBox="0 0 16 16" fill="none" xmlns="http://www.w3.org/2000/svg">
<g clip-path="url(#clip0_1081_1664)">
<path d="M12.9712 10.6006C12.9681 10.5802 12.9649 10.5599 12.9615 10.5397C12.9408 10.4143 12.9152 10.2902 12.8852 10.1679C12.8329 9.95427 12.7668 9.74572 12.6881 9.54375C12.6216 9.37271 12.5459 9.20631 12.4618 9.04503C12.3536 8.83794 12.2316 8.63913 12.0968 8.45007C11.9317 8.21837 11.7472 8.00129 11.5457 7.80127C11.4612 7.71722 11.3737 7.63608 11.2833 7.55837C11.0877 7.38953 10.8787 7.23579 10.6584 7.09838C10.6604 7.09522 10.6621 7.0918 10.664 7.08864C10.7649 6.91444 10.866 6.74048 10.9669 6.56628C11.0655 6.39623 11.1642 6.22617 11.2629 6.05611C11.3338 5.93405 11.4047 5.81175 11.4753 5.68969C11.4921 5.66069 11.5053 5.63073 11.5153 5.60003C11.5428 5.51451 11.544 5.42461 11.5219 5.34104C11.5163 5.32034 11.5094 5.30011 11.5012 5.28038C11.4929 5.26064 11.4831 5.2414 11.4722 5.22288C11.4344 5.15954 11.3806 5.10447 11.3128 5.06427C11.2529 5.0287 11.1859 5.00751 11.1172 5.00142C11.0884 4.99898 11.0594 4.99922 11.0307 5.00215C11.0068 5.00458 10.9832 5.00897 10.9598 5.01506C10.8762 5.03723 10.7988 5.08303 10.7383 5.1493C10.7166 5.17318 10.6972 5.19949 10.6803 5.22848C10.6094 5.35055 10.5385 5.47285 10.4679 5.59491L10.1719 6.10508C10.071 6.27928 9.96991 6.45324 9.86904 6.62744C9.85808 6.64644 9.84687 6.66544 9.83591 6.68469C9.82056 6.6786 9.80545 6.67251 9.7901 6.66666C9.23389 6.4547 8.6304 6.33873 7.99963 6.33873C7.98233 6.33873 7.96528 6.33873 7.94798 6.33897C7.38713 6.34458 6.84821 6.44203 6.34559 6.61696C6.28736 6.63718 6.22987 6.65862 6.17286 6.68104C6.16262 6.66325 6.15215 6.64547 6.14191 6.62768C6.04105 6.45348 5.93994 6.27953 5.83908 6.10533C5.7404 5.93527 5.64173 5.76521 5.54306 5.59516C5.47216 5.47309 5.40126 5.35079 5.33061 5.22873C5.3138 5.19974 5.29431 5.17342 5.27262 5.14955C5.2122 5.08328 5.13473 5.03747 5.05116 5.0153C5.02777 5.00921 5.00414 5.00483 4.98026 5.00239C4.95151 4.99947 4.92252 4.99922 4.89377 5.00166C4.82507 5.00751 4.75807 5.0287 4.69813 5.06452C4.6304 5.10472 4.5768 5.15978 4.5388 5.22312C4.52783 5.24164 4.51809 5.26089 4.5098 5.28062C4.50152 5.30036 4.49446 5.32058 4.4891 5.34129C4.46692 5.42485 4.46814 5.51476 4.49567 5.60027C4.50566 5.63097 4.51882 5.66094 4.53563 5.68993C4.60653 5.81199 4.67742 5.9343 4.74808 6.05636C4.84675 6.22641 4.94542 6.39647 5.0441 6.56653C5.14496 6.74073 5.24607 6.91468 5.34693 7.08888C5.34766 7.09034 5.34864 7.0918 5.34937 7.09327C5.14593 7.21971 4.95224 7.3598 4.76952 7.51305C4.66013 7.6049 4.55463 7.70114 4.45352 7.80176C4.25228 8.00178 4.06785 8.21886 3.90242 8.45056C3.76745 8.63962 3.64539 8.83818 3.53746 9.04551C3.4534 9.2068 3.37763 9.3732 3.31112 9.54423C3.23243 9.74621 3.1664 9.95476 3.11402 10.1684C3.08405 10.2907 3.05871 10.4145 3.03776 10.5402C3.03435 10.5604 3.03118 10.5809 3.02802 10.6011C3.01681 10.674 3.00731 10.7473 2.99927 10.8211H12.9993C12.9912 10.7473 12.9817 10.674 12.9705 10.6011L12.9712 10.6006Z" fill="#34A853"/>
<path d="M10.6005 9.43901C10.8006 9.30589 10.8296 8.9979 10.6654 8.75112C10.5012 8.50433 10.2059 8.4122 10.0058 8.54533C9.80575 8.67845 9.77668 8.98644 9.94089 9.23322C10.1051 9.48001 10.4004 9.57214 10.6005 9.43901Z" fill="#202124"/>
<path d="M6.06641 9.23399C6.23063 8.9872 6.20156 8.67922 6.00148 8.54609C5.80141 8.41296 5.5061 8.5051 5.34189 8.75189C5.17768 8.99867 5.20675 9.30665 5.40682 9.43978C5.60689 9.57291 5.9022 9.48077 6.06641 9.23399Z" fill="#202124"/>
</g>
<defs>
<clipPath id="clip0_1081_1664">
<rect width="10" height="5.82093" fill="white" transform="translate(3 5)"/>
</clipPath>
</defs>
</svg>
