<svg width="128" height="128" viewBox="0 0 128 128" fill="none" xmlns="http://www.w3.org/2000/svg">
<g clip-path="url(#clip0_1081_1678)">
<ellipse opacity="0.2" cx="64" cy="64.5547" rx="62.5" ry="62.4297" fill="black"/>
<ellipse cx="64" cy="63.5547" rx="62.5" ry="62.4297" fill="white"/>
<path d="M88.3705 58.8567C87.9538 58.0063 88.311 56.9857 89.1615 56.569C90.0119 56.1523 91.0325 56.5095 91.4492 57.3599C91.866 58.2104 91.5088 59.231 90.6583 59.6477C89.8078 60.0644 88.7873 59.7072 88.3705 58.8567ZM96.6456 75.8661C96.2288 75.0156 96.586 73.995 97.4365 73.5783C98.287 73.1616 99.3075 73.5188 99.7242 74.3692C100.141 75.2197 99.7838 76.2403 98.9333 76.657C98.0829 77.0737 97.0623 76.7165 96.6456 75.8661ZM97.3685 53.7965C91.9255 49.9098 84.8241 48.9063 78.25 51.4492L96.2203 88.4019C102.276 84.8044 105.865 78.5875 106.171 71.9114L112.992 72.3962C113.383 72.4217 113.723 72.1325 113.748 71.7328C113.774 71.3416 113.485 71.0014 113.085 70.9759L106.179 70.4826C106.111 67.574 105.414 64.6059 104.028 61.7483C102.641 58.8993 100.736 56.518 98.4911 54.664L102.369 48.9233C102.59 48.6001 102.505 48.1579 102.182 47.9368C101.859 47.7156 101.417 47.8007 101.196 48.1239L97.3685 53.788" fill="#3DDC84"/>
<path d="M80.8012 67.71C75.7325 70.1594 70.281 71.4011 64.5999 71.4011C51.8004 71.4011 40.1745 64.9035 33.3963 54.5618C32.8605 53.7454 31.7549 53.5498 30.964 54.1281L24.4409 58.9332C23.701 59.4775 23.5309 60.5151 24.0497 61.2805C32.9541 74.5733 48.0328 82.8993 64.5999 82.8993C72.0244 82.8993 79.1599 81.275 85.802 78.0687L80.8012 67.71V67.71Z" fill="#4285F4"/>
<path d="M64.5404 26.8282H68.0699V19.0294C68.0699 17.0819 66.488 15.5 64.5404 15.5C62.5929 15.5 61.011 17.0819 61.011 19.0294V26.8282H64.5404Z" fill="#4285F4"/>
<path d="M55.3553 42.0515L31.0915 91.9909C30.5642 93.071 30.2836 94.2446 30.2581 95.4438L30.1135 101.984C30.0795 103.676 32.0355 104.629 33.3452 103.557L38.397 99.4069C39.324 98.65 40.0724 97.6975 40.5997 96.6174L64.5148 47.384L55.3638 42.06L55.3553 42.0515Z" fill="#4285F4"/>
<path d="M98.831 95.4353C98.8055 94.2361 98.5163 93.0625 97.9975 91.9824L73.7338 42.043L64.5828 47.384L88.4978 96.6004C89.0251 97.6805 89.7735 98.6245 90.7005 99.3899L95.7523 103.54C97.062 104.612 99.0266 103.659 98.9841 101.967L98.8395 95.4268L98.831 95.4353Z" fill="#4285F4"/>
<path d="M64.5401 26.2074C58.6974 26.2074 53.9518 30.9615 53.9518 36.7957C53.9518 42.6299 58.7059 47.384 64.5401 47.384C70.3743 47.384 75.1284 42.6299 75.1284 36.7957C75.1284 30.9615 70.3743 26.2074 64.5401 26.2074V26.2074ZM64.5401 42.6213C61.3338 42.6213 58.7144 40.0104 58.7144 36.7957C58.7144 33.5809 61.3253 30.97 64.5401 30.97C67.7548 30.97 70.3658 33.5809 70.3658 36.7957C70.3658 40.0104 67.7548 42.6213 64.5401 42.6213Z" fill="#073042"/>
</g>
<defs>
<clipPath id="clip0_1081_1678">
<rect width="128" height="128" fill="white"/>
</clipPath>
</defs>
</svg>
