<svg width="16" height="16" viewBox="0 0 16 16" fill="none" xmlns="http://www.w3.org/2000/svg">
<g clip-path="url(#clip0_1081_1664)">
<path fill-rule="evenodd" clip-rule="evenodd" d="M2.0823 11.0042C1.9913 11.5489 2.44775 12 3.00004 12H13C13.5523 12 14.0088 11.5489 13.9178 11.0042C13.4434 8.16441 10.9745 6 8.00004 6C5.02558 6 2.55665 8.16441 2.0823 11.0042Z" fill="#3DDC84"/>
<path fill-rule="evenodd" clip-rule="evenodd" d="M11.3801 4.43301C11.5181 4.19386 11.8239 4.11192 12.0631 4.24999C12.3022 4.38806 12.3842 4.69386 12.2461 4.93301L11.1241 6.87641C12.715 7.84854 13.818 9.54089 13.9796 11.5001C14.0023 11.7754 13.7762 12 13.5001 12C13.2239 12 13.0027 11.7755 12.9755 11.5007C12.7249 8.9737 10.593 6.99999 8.00009 6.99999C5.40718 6.99999 3.27525 8.9737 3.02471 11.5007C2.99746 11.7755 2.77623 12 2.50009 12C2.22395 12 1.99792 11.7754 2.02062 11.5001C2.1821 9.54211 3.28376 7.85065 4.87314 6.87823L3.75006 4.93301C3.61199 4.69386 3.69393 4.38806 3.93307 4.24999C4.17222 4.11192 4.47802 4.19386 4.61609 4.43301L5.76835 6.42878C6.45821 6.15217 7.21138 5.99999 8.00009 5.99999C8.78756 5.99999 9.53959 6.15169 10.2286 6.42746L11.3801 4.43301Z" fill="#3DDC84"/>
<path d="M2.5 11.5H13.5" stroke="#3DDC84"/>
<rect x="5" y="9" width="1" height="1" rx="0.5" fill="#F2F2F2"/>
<rect x="10" y="9" width="1" height="1" rx="0.5" fill="#F2F2F2"/>
</g>
<defs>
<clipPath id="clip0_1081_1664">
<rect width="16" height="16" fill="white"/>
</clipPath>
</defs>
</svg>
