<svg width="128" height="128" viewBox="0 0 128 128" fill="none" xmlns="http://www.w3.org/2000/svg">
<path opacity="0.2" d="M49.8535 123.492C47.8751 123.023 46.2193 121.926 43.9021 119.549C40.0315 115.578 36.8904 113.925 31.4309 112.985C25.7674 112.01 23.2506 109.905 21.7375 104.877C19.8698 98.6708 17.9177 95.6985 13.6285 92.5305C8.7629 88.9366 7.51452 85.7674 8.70211 80.0242C9.80208 74.7048 9.38087 70.9229 7.14689 66.0604C4.48145 60.2587 4.81049 57.1586 8.5962 52.4053C12.0668 48.0478 13.1561 45.1674 13.6759 38.9737C14.2004 32.7233 15.9394 30.159 21.0608 28.0837C25.3351 26.3518 28.9917 23.3452 31.0189 19.8957C33.3632 15.9068 33.7054 15.4495 35.1579 14.3658C37.5018 12.6171 39.3969 12.1325 43.006 12.3588C49.2755 12.7519 52.6358 11.9991 56.846 9.25832C62.3354 5.68473 65.6639 5.68473 71.1534 9.25832C75.3636 11.9991 78.7239 12.7519 84.9933 12.3588C90.922 11.987 93.389 13.5434 97.0028 19.9355C98.7937 23.1032 102.454 26.1862 106.461 27.9007C112.167 30.3428 113.825 32.5717 114.246 38.3638C114.702 44.6367 115.988 48.144 119.395 52.4053C123.189 57.1501 123.52 60.2531 120.852 66.0604C118.619 70.9229 118.197 74.7048 119.297 80.0242C120.485 85.7674 119.236 88.9366 114.371 92.5305C110.082 95.6985 108.13 98.6708 106.262 104.877C104.749 109.905 102.232 112.01 96.5684 112.985C91.0974 113.927 87.9527 115.585 84.0973 119.562C79.8233 123.969 76.7594 124.697 70.7842 122.721C65.8971 121.106 62.1344 121.099 57.2668 122.697C53.8571 123.816 52.0396 124.011 49.8535 123.492V123.492Z" fill="black"/>
<path d="M49.8535 122.321C47.8751 121.851 46.2193 120.754 43.9021 118.377C40.0315 114.407 36.8904 112.753 31.4309 111.814C25.7674 110.839 23.2506 108.733 21.7375 103.706C19.8698 97.499 17.9177 94.5267 13.6285 91.3586C8.7629 87.7647 7.51452 84.5955 8.70211 78.8524C9.80208 73.5329 9.38087 69.751 7.14689 64.8885C4.48145 59.0868 4.81049 55.9867 8.5962 51.2335C12.0668 46.8759 13.1561 43.9955 13.6759 37.8018C14.2004 31.5514 15.9394 28.9871 21.0608 26.9119C25.3351 25.1799 28.9917 22.1733 31.0189 18.7238C33.3632 14.7349 33.7054 14.2776 35.1579 13.194C37.5018 11.4452 39.3969 10.9606 43.006 11.1869C49.2755 11.58 52.6358 10.8273 56.846 8.08645C62.3354 4.51285 65.6639 4.51285 71.1534 8.08645C75.3636 10.8273 78.7239 11.58 84.9933 11.1869C90.922 10.8151 93.389 12.3715 97.0028 18.7636C98.7937 21.9314 102.454 25.0143 106.461 26.7289C112.167 29.1709 113.825 31.3998 114.246 37.192C114.702 43.4648 115.988 46.9721 119.395 51.2335C123.189 55.9782 123.52 59.0812 120.852 64.8885C118.619 69.751 118.197 73.5329 119.297 78.8524C120.485 84.5955 119.236 87.7647 114.371 91.3586C110.082 94.5267 108.13 97.499 106.262 103.706C104.749 108.733 102.232 110.839 96.5684 111.814C91.0974 112.755 87.9527 114.414 84.0973 118.39C79.8233 122.798 76.7594 123.525 70.7842 121.55C65.8971 119.934 62.1344 119.927 57.2668 121.525C53.8571 122.644 52.0396 122.839 49.8535 122.321V122.321Z" fill="white"/>
<path d="M90.8473 99.0176C91.0768 99.7371 90.7207 100.513 90.0256 100.808C89.3307 101.103 88.5252 100.82 88.1672 100.155L84.6455 93.6166C84.0447 92.5012 84.533 91.1105 85.6992 90.6154C86.8656 90.1203 88.2051 90.7352 88.5903 91.9422L90.8473 99.0176Z" fill="#034ECA"/>
<path d="M90.8473 99.0176C91.0768 99.7371 90.7207 100.513 90.0256 100.808C89.3307 101.103 88.5252 100.82 88.1672 100.155L84.6455 93.6166C84.0447 92.5012 84.533 91.1105 85.6992 90.6154C86.8656 90.1203 88.2051 90.7352 88.5903 91.9422L90.8473 99.0176Z" fill="url(#paint0_linear_1081_1678)"/>
<mask id="mask0_1081_1678" style="mask-type:alpha" maskUnits="userSpaceOnUse" x="78" y="51" width="21" height="26">
<path d="M88.0952 75.5494C88.5536 75.2498 88.9887 74.9222 89.3979 74.5705C89.7444 74.2728 90.0725 73.9574 90.3817 73.6267C90.7784 73.2015 91.1442 72.7506 91.4766 72.2781C91.8838 71.6988 92.2409 71.0865 92.5436 70.4484C92.6709 70.1804 92.7891 69.9082 92.8967 69.6318C93.1311 69.0332 93.319 68.4154 93.459 67.7851C93.4682 67.7871 93.4776 67.7882 93.4866 67.7902C93.9793 67.8826 94.4717 67.9757 94.9645 68.0681C95.4457 68.159 95.9268 68.2496 96.4081 68.3402C96.7536 68.4054 97.0997 68.4707 97.4448 68.5353C97.5268 68.5507 97.6081 68.5568 97.6885 68.5549C97.9122 68.5486 98.1243 68.4771 98.3022 68.3558C98.3463 68.3256 98.3881 68.2927 98.4276 68.257C98.467 68.2213 98.5042 68.1826 98.5385 68.1414C98.6561 68.0004 98.7407 67.8285 98.779 67.6365C98.8129 67.4664 98.8071 67.2916 98.7645 67.1255C98.7463 67.056 98.7219 66.9882 98.6911 66.9232C98.6657 66.8691 98.6358 66.8174 98.602 66.7675C98.4807 66.5898 98.3088 66.4461 98.1032 66.3591C98.0291 66.3281 97.9512 66.3041 97.8692 66.2886C97.5237 66.2234 97.1776 66.1584 96.8325 66.0937L95.3889 65.8216C94.8961 65.7293 94.4038 65.6361 93.911 65.5435C93.8573 65.5336 93.8034 65.523 93.7491 65.5132C93.7506 65.4722 93.7524 65.4318 93.7534 65.391C93.7903 63.9107 93.5626 62.3992 93.0397 60.9195C93.0252 60.8789 93.0112 60.839 92.9963 60.7986C92.5182 59.4877 91.8428 58.3041 91.0153 57.2699C90.9196 57.1502 90.8215 57.033 90.7215 56.9177C90.7549 56.8791 90.7879 56.8398 90.8213 56.8009C91.1469 56.4203 91.4715 56.039 91.7971 55.6584C92.1149 55.2861 92.4325 54.9138 92.7501 54.5416C92.978 54.2742 93.2065 54.0068 93.4346 53.74C93.4887 53.6765 93.5344 53.6089 93.5725 53.5384C93.6782 53.3418 93.7215 53.1222 93.7043 52.9078C93.6993 52.8478 93.6899 52.7888 93.6758 52.7308C93.6588 52.6609 93.6354 52.5927 93.6059 52.5273C93.5352 52.3711 93.4299 52.2314 93.2961 52.1205C93.1456 51.9949 92.9717 51.9146 92.7915 51.8779C92.7389 51.8675 92.6856 51.8607 92.6325 51.8576C92.5791 51.8545 92.5258 51.8547 92.4727 51.8591C92.2581 51.8763 92.0481 51.9537 91.87 52.089C91.8061 52.1379 91.7467 52.1935 91.6924 52.257C91.4645 52.5242 91.236 52.7918 91.0079 53.0586C90.6903 53.4308 90.3727 53.8031 90.0551 54.1752C89.7295 54.556 89.4047 54.9373 89.0791 55.3179C89.0764 55.3209 89.0737 55.3244 89.0709 55.3273C88.6053 54.9548 88.1157 54.6164 87.6043 54.3146C87.2979 54.1341 86.9844 53.9664 86.6643 53.8125C86.0278 53.5058 85.3651 53.2529 84.6836 53.0568C84.1278 52.8966 83.5602 52.7746 82.9838 52.6931C82.5354 52.6295 82.0817 52.5894 81.6249 52.575C81.0852 52.5576 80.5407 52.5754 79.9956 52.6293C79.4524 52.6832 78.9081 52.7736 78.3674 52.9004L86.6555 76.3576C87.151 76.1199 87.634 75.8509 88.0952 75.5494Z" fill="#34A853"/>
</mask>
<g mask="url(#mask0_1081_1678)">
<path d="M100.745 71.5373L91.9056 46.4869L77.8116 51.4604L86.6514 76.5107L100.745 71.5373Z" fill="#4FAF53"/>
<g opacity="0.8" filter="url(#filter0_f_1081_1678)">
<path d="M92.3396 62.1295C91.4646 65.2303 88.8066 58.3102 84.0267 56.9614C79.2468 55.6123 73.3632 60.1219 74.2382 57.0211C75.7996 54.7465 79.9818 53.0082 84.7617 54.3571C89.5413 55.7061 92.3814 59.7467 92.3396 62.1295Z" fill="url(#paint1_linear_1081_1678)" fill-opacity="0.3"/>
</g>
<g opacity="0.7" filter="url(#filter1_f_1081_1678)">
<path d="M91.7377 60.4258C89.1105 58.5609 91.3842 65.6168 88.5095 69.6668C85.6347 73.7168 78.224 73.8986 80.8513 75.7635C83.4945 76.5545 87.8414 75.283 90.716 71.233C93.5908 67.183 93.2658 62.2547 91.7377 60.4258Z" fill="url(#paint2_linear_1081_1678)" fill-opacity="0.4"/>
</g>
<g opacity="0.6" filter="url(#filter2_f_1081_1678)">
<path d="M81.5221 51.4314C78.1854 51.5365 75.4903 51.9354 75.5024 52.3223C75.5145 52.7092 78.2293 52.9377 81.566 52.8328C84.9027 52.7277 89.5623 55.5072 89.5502 55.1203C89.5379 54.7334 84.8588 51.3266 81.5221 51.4314Z" fill="#8BD8A0"/>
</g>
<g opacity="0.5" filter="url(#filter3_f_1081_1678)">
<path d="M89.9781 75.3932C87.3145 77.4055 84.966 78.7865 84.7326 78.4776C84.4992 78.1688 86.4694 76.2869 89.133 74.2744C91.7967 72.2621 93.6797 67.1738 93.9131 67.4826C94.1465 67.7916 92.6418 73.3807 89.9781 75.3932Z" fill="#8BD8A0"/>
</g>
<g opacity="0.7" filter="url(#filter4_f_1081_1678)">
<path d="M91.2092 53.3859C89.9914 54.8777 89.3979 55.5521 89.266 55.4443C89.1342 55.3367 89.5137 54.4877 90.7317 52.9959C91.4821 51.1266 93.7129 52.0365 93.8448 52.1441C93.9766 52.2519 92.7692 51.257 91.2092 53.3859Z" fill="#0D652D"/>
</g>
<g opacity="0.1" filter="url(#filter5_f_1081_1678)">
<path d="M89.0336 55.3194C89.1472 55.4062 90.0489 54.4172 91.0475 53.1105C92.0461 51.8038 92.7635 50.6741 92.6499 50.5873C92.5363 50.5004 91.6347 51.4894 90.6361 52.7961C89.6374 54.1028 88.92 55.2325 89.0336 55.3194Z" fill="black"/>
</g>
<g opacity="0.3" filter="url(#filter6_f_1081_1678)">
<path d="M92.4141 54.2854C91.1398 55.8461 90.5666 56.5904 90.6721 56.6766C90.7775 56.7627 91.5221 56.158 92.7961 54.5975C94.6273 52.8801 92.7285 51.6182 92.5514 51.8713C92.0324 52.4258 94.2432 52.2195 92.4141 54.2854Z" fill="white"/>
</g>
<path opacity="0.15" d="M91.8301 50.8427C91.2771 51.2382 91.2062 52.0863 91.6716 52.7369C92.1371 53.3875 92.9626 53.5943 93.5156 53.1988C94.0685 52.8032 94.1394 51.9551 93.674 51.3045C93.2086 50.6539 92.383 50.4471 91.8301 50.8427Z" fill="url(#paint3_radial_1081_1678)" fill-opacity="0.9"/>
<path opacity="0.15" d="M97.2965 65.7624C96.7436 66.158 96.6726 67.0061 97.1381 67.6567C97.6035 68.3073 98.4291 68.514 98.982 68.1185C99.5349 67.7229 99.6058 66.8749 99.1404 66.2242C98.675 65.5736 97.8494 65.3669 97.2965 65.7624Z" fill="url(#paint4_radial_1081_1678)" fill-opacity="0.9"/>
<g opacity="0.1" filter="url(#filter7_f_1081_1678)">
<path d="M93.3291 67.7502C93.3608 67.6108 94.6865 67.7934 96.2902 68.1582C97.8939 68.5229 99.1682 68.9315 99.1365 69.071C99.1048 69.2104 97.7791 69.0278 96.1754 68.6631C94.5717 68.2984 93.2974 67.8897 93.3291 67.7502Z" fill="black"/>
</g>
<mask id="mask1_1081_1678" style="mask-type:alpha" maskUnits="userSpaceOnUse" x="93" y="65" width="3" height="5">
<path d="M93.3703 67.9381C93.5207 67.26 93.6679 65.7807 93.7228 65.1256L95.1761 65.0328L94.9956 69.2004C94.3912 69.0621 93.2199 68.6162 93.3703 67.9381Z" fill="black"/>
</mask>
<g mask="url(#mask1_1081_1678)">
<g style="mix-blend-mode:multiply" opacity="0.3" filter="url(#filter8_f_1081_1678)">
<path d="M93.702 68.2371C93.7715 67.0945 93.7121 66.1613 93.5694 66.1527C93.4266 66.1439 93.3436 67.0213 93.274 68.1638C93.2045 69.3064 93.175 70.2814 93.3176 70.2902C93.4604 70.2988 93.6324 69.3797 93.702 68.2371Z" fill="#0D652D"/>
</g>
<g style="mix-blend-mode:screen" opacity="0.3" filter="url(#filter9_f_1081_1678)">
<path d="M93.7765 65.9223C93.8148 65.5973 93.7945 65.3278 93.731 65.3204C93.6675 65.3129 93.6248 65.5614 93.5865 65.8864C93.548 66.2114 93.5287 66.4897 93.5921 66.4973C93.6556 66.5047 93.738 66.2473 93.7765 65.9223Z" fill="#81C995"/>
</g>
</g>
<mask id="mask2_1081_1678" style="mask-type:alpha" maskUnits="userSpaceOnUse" x="88" y="53" width="4" height="5">
<path d="M88.7351 55.1512C89.2869 55.5734 90.3515 56.6109 90.8148 57.0769L91.9871 56.2129L89.167 53.1389C88.7933 53.6338 88.1836 54.7289 88.7351 55.1512Z" fill="black"/>
</mask>
<g mask="url(#mask2_1081_1678)">
<g style="mix-blend-mode:multiply" opacity="0.3" filter="url(#filter10_f_1081_1678)">
<path d="M88.7967 54.7094C89.5852 55.539 90.1402 56.2916 90.0367 56.39C89.933 56.4887 89.3047 55.8705 88.5162 55.0408C87.7279 54.2109 87.0777 53.4836 87.1814 53.3851C87.2852 53.2867 88.0082 53.8795 88.7967 54.7094Z" fill="#0D652D"/>
</g>
<g style="mix-blend-mode:screen" opacity="0.3" filter="url(#filter11_f_1081_1678)">
<path d="M90.3435 56.4323C90.582 56.6563 90.7398 56.8756 90.696 56.9223C90.6523 56.9688 90.4597 56.8061 90.2212 56.5821C89.9826 56.3578 89.7886 56.1573 89.8324 56.1108C89.8761 56.0641 90.105 56.208 90.3435 56.4323Z" fill="#81C995"/>
</g>
</g>
<g opacity="0.7" filter="url(#filter12_f_1081_1678)">
<path d="M96.2938 68.0067C94.4004 67.6535 93.5119 67.5217 93.4807 67.6891C93.4494 67.8565 94.2875 68.2598 96.1807 68.6129C97.9606 69.5561 99.0768 67.4209 99.108 67.2535C99.1393 67.0862 98.8592 68.6254 96.2938 68.0067Z" fill="#0D652D"/>
</g>
<g opacity="0.3" filter="url(#filter13_f_1081_1678)">
<path d="M96.6227 66.4894C94.6961 66.1301 93.8031 65.9351 93.8293 65.7947C93.8555 65.6541 94.791 65.6211 96.7176 65.9803C99.8701 66.0523 100.239 68.2697 98.5986 68.4637C97.8785 68.4142 99.2805 66.8672 96.6227 66.4894Z" fill="white"/>
</g>
</g>
<path d="M85.353 57.6954C85.1953 58.0806 85.2389 58.463 85.4504 58.5496C85.6619 58.6363 85.9612 58.3942 86.119 58.009C86.2767 57.6238 86.2331 57.2413 86.0216 57.1547C85.8101 57.0681 85.5107 57.3102 85.353 57.6954Z" fill="url(#paint5_radial_1081_1678)" fill-opacity="0.7"/>
<path d="M89.0545 68.2274C88.6901 68.0266 88.4841 67.7016 88.5944 67.5015C88.7047 67.3014 89.0894 67.302 89.4538 67.5028C89.8182 67.7036 90.0243 68.0286 89.914 68.2287C89.8037 68.4288 89.4189 68.4282 89.0545 68.2274Z" fill="url(#paint6_radial_1081_1678)" fill-opacity="0.7"/>
<g style="mix-blend-mode:multiply" opacity="0.09" filter="url(#filter14_f_1081_1678)">
<path d="M84.3364 58.8131C85.3368 58.8572 85.7497 58.2937 85.8309 58.0062C86.4159 57.0551 85.4663 56.3867 85.0225 56.2433C84.579 56.0998 83.8262 55.931 83.1129 56.6068C82.3997 57.2826 83.0858 58.7578 84.3364 58.8131Z" fill="#011B04"/>
</g>
<g style="mix-blend-mode:multiply" opacity="0.09" filter="url(#filter15_f_1081_1678)">
<path d="M87.5623 67.9972C88.3088 67.3365 88.9811 67.5173 89.224 67.6904C90.2723 68.0656 89.9557 69.1808 89.7022 69.5705C89.4486 69.9601 88.9719 70.5628 87.9969 70.4828C87.0219 70.4025 86.6293 68.8232 87.5623 67.9972Z" fill="#011B04"/>
</g>
<path d="M87.7178 70.192C88.2789 70.6129 89.1455 70.4068 89.6537 69.7316C90.1617 69.0562 90.1187 68.1675 89.5578 67.7465C88.9967 67.3254 88.1299 67.5314 87.6219 68.2068C87.1139 68.882 87.1566 69.7709 87.7178 70.192Z" fill="black"/>
<g filter="url(#filter16_d_1081_1678)">
<path d="M84.2631 58.6051C85.0832 58.8123 85.8842 58.4422 86.0524 57.7783C86.2207 57.1143 85.6924 56.4082 84.8725 56.201C84.0526 55.9936 83.2514 56.3639 83.0832 57.0277C82.9151 57.6916 83.4432 58.3979 84.2631 58.6051Z" fill="black"/>
</g>
<g filter="url(#filter17_d_1081_1678)">
<path d="M87.6381 68.1998C88.1461 67.5248 89.0019 67.311 89.55 67.7223C90.0978 68.1334 90.1303 69.0141 89.6224 69.6891C89.1146 70.3641 88.2586 70.5779 87.7107 70.1666C87.1627 69.7555 87.1303 68.8748 87.6381 68.1998Z" fill="black"/>
</g>
<mask id="mask3_1081_1678" style="mask-type:alpha" maskUnits="userSpaceOnUse" x="83" y="56" width="4" height="3">
<path d="M84.2633 58.6049C85.0835 58.8121 85.8844 58.442 86.0526 57.7781C86.221 57.1143 85.6926 56.408 84.8727 56.2008C84.0528 55.9936 83.2516 56.3637 83.0835 57.0276C82.9153 57.6914 83.4434 58.3977 84.2633 58.6049Z" fill="#202124"/>
</mask>
<g mask="url(#mask3_1081_1678)">
<g filter="url(#filter18_f_1081_1678)">
<path d="M84.9628 56.3457C84.2962 56.1062 83.6761 56.2717 83.4373 56.4143C83.9007 56.1307 84.406 55.9959 85.0416 56.2307C85.3921 56.3602 85.6636 56.6496 85.8248 56.8744C85.8517 56.9096 85.8736 56.943 85.8919 56.9742C85.9289 57.0326 85.9556 57.0824 85.9718 57.118C85.9472 57.0781 85.9246 57.0295 85.8919 56.9742C85.8724 56.9432 85.8498 56.9096 85.8248 56.8744C85.7052 56.7197 85.4808 56.5318 84.9628 56.3457Z" fill="#D8D8D8" fill-opacity="0.29"/>
</g>
<g opacity="0.8" filter="url(#filter19_f_1081_1678)">
<path d="M85.5084 58.2955C86.1789 57.8617 86.0444 57.2381 85.8934 56.9805C86.0813 57.1822 86.1006 57.6578 85.9569 57.9121C85.842 58.1158 85.61 58.2525 85.5084 58.2955Z" fill="url(#paint7_linear_1081_1678)"/>
</g>
</g>
<mask id="mask4_1081_1678" style="mask-type:alpha" maskUnits="userSpaceOnUse" x="87" y="67" width="3" height="4">
<path d="M87.6394 68.1998C88.1474 67.5248 89.0033 67.311 89.5513 67.7223C90.0992 68.1334 90.1316 69.0141 89.6238 69.6891C89.1158 70.3641 88.2599 70.5779 87.7121 70.1666C87.164 69.7555 87.1316 68.8748 87.6394 68.1998Z" fill="#202124"/>
</mask>
<g mask="url(#mask4_1081_1678)">
<path d="M89.7196 68.247C89.4584 67.6324 88.8957 67.5998 88.6471 67.6603C88.818 67.6715 89.2133 67.7865 89.4258 68.1576C89.6385 68.5287 89.3686 69.215 89.2071 69.5119L89.4979 69.632C89.6805 69.4263 89.9807 68.8617 89.7196 68.247Z" fill="url(#paint8_linear_1081_1678)"/>
<g filter="url(#filter20_f_1081_1678)">
<path d="M89.5962 69.5229C89.2277 70.1274 88.6412 70.3877 88.366 70.4266C88.9046 70.3566 89.3822 70.1443 89.7296 69.5631C89.9212 69.2424 89.9509 68.8467 89.9351 68.5707C89.9343 68.5264 89.9302 68.4867 89.925 68.4508C89.9169 68.3822 89.9066 68.3268 89.897 68.2889C89.9027 68.3354 89.9156 68.3873 89.925 68.4508C89.9291 68.4873 89.9328 68.5275 89.9351 68.5707C89.9394 68.766 89.8826 69.0531 89.5962 69.5229Z" fill="#D8D8D8" fill-opacity="0.29"/>
</g>
</g>
<g opacity="0.8" filter="url(#filter21_f_1081_1678)">
<path d="M85.3588 56.8342C85.2231 56.6061 84.9002 56.5127 84.7557 56.4948L84.6149 56.6824C84.6629 56.6885 84.7926 56.7164 84.9254 56.7801C85.0584 56.8436 85.2168 56.9535 85.2793 57.0004L85.3588 56.8342Z" fill="#E2DCE1"/>
</g>
<g opacity="0.8" filter="url(#filter22_f_1081_1678)">
<path d="M89.6025 68.9041C89.6412 69.1635 89.4582 69.4328 89.3619 69.5352L89.1423 69.476C89.1744 69.442 89.2537 69.3412 89.3136 69.2107C89.3736 69.0805 89.4242 68.8986 89.4419 68.8242L89.6025 68.9041Z" fill="#E2DCE1"/>
</g>
<g opacity="0.8" filter="url(#filter23_f_1081_1678)">
<path d="M84.3865 58.3107C84.2787 58.2162 84.1302 58.0631 84.0693 57.9984L83.8318 57.9994C83.9556 58.1627 84.1111 58.2631 84.1732 58.2927L84.3865 58.3107Z" fill="#E2DCE1"/>
<path d="M85.4455 58.3508C85.4992 58.3152 85.5732 58.2435 85.6035 58.2123L85.5207 58.2414C85.4674 58.3015 85.3625 58.3697 85.3168 58.3963C85.3373 58.3959 85.3918 58.3863 85.4455 58.3508Z" fill="#E2DCE1"/>
</g>
<g opacity="0.8" filter="url(#filter24_f_1081_1678)">
<path d="M87.9047 68.3424C87.8801 68.4838 87.8607 68.6965 87.8541 68.785L87.6686 68.9334C87.6623 68.7283 87.7203 68.5526 87.75 68.4903L87.9047 68.3424Z" fill="#E2DCE1"/>
<path d="M88.7039 67.6461C88.768 67.64 88.8705 67.6494 88.9139 67.6549L88.8311 67.6842C88.752 67.6707 88.6273 67.6834 88.5752 67.6916C88.5914 67.6789 88.6398 67.6521 88.7039 67.6461Z" fill="#E2DCE1"/>
</g>
<g opacity="0.3" filter="url(#filter25_f_1081_1678)">
<path d="M90.1842 71.8941C87.1459 72.9662 91.2687 66.8055 89.616 62.1219C87.9633 57.4385 80.8869 55.2297 83.9252 54.1574C86.684 54.1223 90.515 56.5381 92.1678 61.2215C93.8205 65.9049 92.1555 70.5547 90.1842 71.8941Z" fill="url(#paint9_linear_1081_1678)" fill-opacity="0.4"/>
</g>
<g opacity="0.2" filter="url(#filter26_f_1081_1678)">
<path d="M90.1842 71.8941C87.1459 72.9662 91.2687 66.8055 89.616 62.1219C87.9633 57.4385 80.8869 55.2297 83.9252 54.1574C86.684 54.1223 90.515 56.5381 92.1678 61.2215C93.8205 65.9049 92.1555 70.5547 90.1842 71.8941Z" fill="url(#paint10_linear_1081_1678)" fill-opacity="0.4"/>
</g>
<path d="M39.4329 59.1742C38.7819 58.0242 37.6672 57.199 36.3343 56.8799C35.0013 56.5607 33.5592 56.774 32.3251 57.4726C31.091 58.1715 30.1661 59.2982 29.7538 60.6055C29.3415 61.9127 29.5878 63.4912 30.2388 64.641L34.9942 62.1871L39.4329 59.1742Z" fill="#4386F5"/>
<path fill-rule="evenodd" clip-rule="evenodd" d="M39.3892 59.1035C46.2719 70.4966 60.6788 75.3718 73.2703 69.9914L77.4731 79.827C59.91 87.3318 39.8353 80.5272 30.2341 64.6341L39.3892 59.1035Z" fill="url(#paint11_linear_1081_1678)"/>
<path d="M37.3782 99.0176C37.1487 99.7371 37.5047 100.513 38.1998 100.808C38.895 101.103 39.7002 100.82 40.0582 100.155L43.5799 93.6166C44.1809 92.5012 43.6926 91.1105 42.5262 90.6154C41.36 90.1203 40.0203 90.7352 39.6354 91.9422L37.3782 99.0176Z" fill="#034ECA"/>
<path d="M37.3782 99.0176C37.1487 99.7371 37.5047 100.513 38.1998 100.808C38.895 101.103 39.7002 100.82 40.0582 100.155L43.5799 93.6166C44.1809 92.5012 43.6926 91.1105 42.5262 90.6154C41.36 90.1203 40.0203 90.7352 39.6354 91.9422L37.3782 99.0176Z" fill="url(#paint12_linear_1081_1678)"/>
<path d="M55.347 37.3708C56.4906 34.2285 59.9651 32.6084 63.1073 33.7521C66.2496 34.8957 67.8697 38.3702 66.7261 41.5124L48.957 90.3324C47.8134 93.4747 44.3389 95.0948 41.1967 93.9511C38.0544 92.8074 36.4343 89.333 37.578 86.1908L55.347 37.3708Z" fill="#4285F4"/>
<path d="M42.8131 94.2853C45.4979 94.5602 48.1283 92.9961 49.0934 90.3447L63.5268 50.6891C64.383 48.3367 63.685 45.7974 61.9571 44.1965L42.8131 94.2853Z" fill="url(#paint13_linear_1081_1678)"/>
<path d="M67.9238 26.3502C67.9238 24.2467 66.2187 22.5416 64.1152 22.5416C62.0118 22.5416 60.3066 24.2467 60.3066 26.3502V33.5767C60.3066 35.6802 62.0118 37.3853 64.1152 37.3853C66.2187 37.3853 67.9238 35.6802 67.9238 33.5767V26.3502Z" fill="#4285F4"/>
<path d="M67.9238 26.3502C67.9238 24.2467 66.2187 22.5416 64.1152 22.5416C62.0118 22.5416 60.3066 24.2467 60.3066 26.3502V33.5767C60.3066 35.6802 62.0118 37.3853 64.1152 37.3853C66.2187 37.3853 67.9238 35.6802 67.9238 33.5767V26.3502Z" fill="url(#paint14_linear_1081_1678)"/>
<g opacity="0.5" filter="url(#filter27_f_1081_1678)">
<path d="M71.6615 81.4869C70.1722 81.6145 72.5718 79.7729 72.205 75.4885C71.9576 72.5996 72.9644 70.1545 74.4535 70.027C75.9427 69.8994 77.3505 72.1379 77.598 75.0268C78.831 79.6547 73.1507 81.3594 71.6615 81.4869Z" fill="#044FCB"/>
</g>
<path d="M61.3822 41.4555C60.2431 38.3467 61.8441 34.9037 64.9552 33.7712C68.057 32.6423 71.4873 34.2373 72.6228 37.3367L90.5443 86.2479C91.6834 89.3564 90.0824 92.7996 86.9712 93.9318C83.8695 95.0609 80.4392 93.4658 79.3037 90.3664L61.3822 41.4555Z" fill="url(#paint15_linear_1081_1678)"/>
<path d="M59.3299 35.4323C57.1508 35.9881 55.2752 37.5754 54.4478 39.8471L37.6029 86.1059C36.5763 88.9252 37.6029 91.9752 39.7986 93.3424L59.3299 35.4323Z" fill="url(#paint16_linear_1081_1678)"/>
<path opacity="0.3" d="M60.9986 26.9461C61.8522 27.7997 63.3911 27.6447 64.4358 26.6C65.4805 25.5552 65.6355 24.0163 64.7819 23.1628C63.9283 22.3092 62.3894 22.4641 61.3447 23.5088C60.2999 24.5536 60.145 26.0925 60.9986 26.9461Z" fill="url(#paint17_radial_1081_1678)" fill-opacity="0.9"/>
<path opacity="0.3" d="M53.0139 53.1128C55.5663 54.5865 59.5 52.5516 61.8 48.5678C64.1 44.5841 63.8954 40.16 61.3431 38.6864C58.7907 37.2127 54.857 39.2476 52.557 43.2314C50.257 47.2151 50.4615 51.6392 53.0139 53.1128Z" fill="url(#paint18_radial_1081_1678)" fill-opacity="0.9"/>
<path d="M64.0176 48.1276C68.1166 48.1276 71.4395 44.8047 71.4395 40.7057C71.4395 36.6067 68.1166 33.2838 64.0176 33.2838C59.9186 33.2838 56.5957 36.6067 56.5957 40.7057C56.5957 44.8047 59.9186 48.1276 64.0176 48.1276Z" fill="white"/>
<path fill-rule="evenodd" clip-rule="evenodd" d="M64.0176 35.2369C60.9973 35.2369 58.5488 37.6854 58.5488 40.7057C58.5488 43.726 60.9973 46.1744 64.0176 46.1744C67.0379 46.1744 69.4863 43.726 69.4863 40.7057C69.4863 37.6854 67.0379 35.2369 64.0176 35.2369ZM54.6426 40.7057C54.6426 35.528 58.8399 31.3307 64.0176 31.3307C69.1952 31.3307 73.3926 35.528 73.3926 40.7057C73.3926 45.8834 69.1952 50.0807 64.0176 50.0807C58.8399 50.0807 54.6426 45.8834 54.6426 40.7057Z" fill="#202124"/>
<defs>
<filter id="filter0_f_1081_1678" x="73.6827" y="53.4158" width="19.1256" height="9.97332" filterUnits="userSpaceOnUse" color-interpolation-filters="sRGB">
<feFlood flood-opacity="0" result="BackgroundImageFix"/>
<feBlend mode="normal" in="SourceGraphic" in2="BackgroundImageFix" result="shape"/>
<feGaussianBlur stdDeviation="0.23413" result="effect1_foregroundBlur_1081_1678"/>
</filter>
<filter id="filter1_f_1081_1678" x="79.5947" y="59.4157" width="13.9961" height="17.2729" filterUnits="userSpaceOnUse" color-interpolation-filters="sRGB">
<feFlood flood-opacity="0" result="BackgroundImageFix"/>
<feBlend mode="normal" in="SourceGraphic" in2="BackgroundImageFix" result="shape"/>
<feGaussianBlur stdDeviation="0.351196" result="effect1_foregroundBlur_1081_1678"/>
</filter>
<filter id="filter2_f_1081_1678" x="75.1511" y="51.0779" width="14.7504" height="4.4306" filterUnits="userSpaceOnUse" color-interpolation-filters="sRGB">
<feFlood flood-opacity="0" result="BackgroundImageFix"/>
<feBlend mode="normal" in="SourceGraphic" in2="BackgroundImageFix" result="shape"/>
<feGaussianBlur stdDeviation="0.175598" result="effect1_foregroundBlur_1081_1678"/>
</filter>
<filter id="filter3_f_1081_1678" x="84.3627" y="67.118" width="9.92529" height="11.754" filterUnits="userSpaceOnUse" color-interpolation-filters="sRGB">
<feFlood flood-opacity="0" result="BackgroundImageFix"/>
<feBlend mode="normal" in="SourceGraphic" in2="BackgroundImageFix" result="shape"/>
<feGaussianBlur stdDeviation="0.175598" result="effect1_foregroundBlur_1081_1678"/>
</filter>
<filter id="filter4_f_1081_1678" x="88.773" y="51.3602" width="5.54992" height="4.56347" filterUnits="userSpaceOnUse" color-interpolation-filters="sRGB">
<feFlood flood-opacity="0" result="BackgroundImageFix"/>
<feBlend mode="normal" in="SourceGraphic" in2="BackgroundImageFix" result="shape"/>
<feGaussianBlur stdDeviation="0.23413" result="effect1_foregroundBlur_1081_1678"/>
</filter>
<filter id="filter5_f_1081_1678" x="88.9047" y="50.4649" width="3.87415" height="4.97681" filterUnits="userSpaceOnUse" color-interpolation-filters="sRGB">
<feFlood flood-opacity="0" result="BackgroundImageFix"/>
<feBlend mode="normal" in="SourceGraphic" in2="BackgroundImageFix" result="shape"/>
<feGaussianBlur stdDeviation="0.0585327" result="effect1_foregroundBlur_1081_1678"/>
</filter>
<filter id="filter6_f_1081_1678" x="90.3086" y="51.4877" width="3.62952" height="5.54804" filterUnits="userSpaceOnUse" color-interpolation-filters="sRGB">
<feFlood flood-opacity="0" result="BackgroundImageFix"/>
<feBlend mode="normal" in="SourceGraphic" in2="BackgroundImageFix" result="shape"/>
<feGaussianBlur stdDeviation="0.175598" result="effect1_foregroundBlur_1081_1678"/>
</filter>
<filter id="filter7_f_1081_1678" x="93.2114" y="67.5864" width="6.04272" height="1.6485" filterUnits="userSpaceOnUse" color-interpolation-filters="sRGB">
<feFlood flood-opacity="0" result="BackgroundImageFix"/>
<feBlend mode="normal" in="SourceGraphic" in2="BackgroundImageFix" result="shape"/>
<feGaussianBlur stdDeviation="0.0585327" result="effect1_foregroundBlur_1081_1678"/>
</filter>
<filter id="filter8_f_1081_1678" x="92.9821" y="65.9185" width="0.983154" height="4.6059" filterUnits="userSpaceOnUse" color-interpolation-filters="sRGB">
<feFlood flood-opacity="0" result="BackgroundImageFix"/>
<feBlend mode="normal" in="SourceGraphic" in2="BackgroundImageFix" result="shape"/>
<feGaussianBlur stdDeviation="0.117065" result="effect1_foregroundBlur_1081_1678"/>
</filter>
<filter id="filter9_f_1081_1678" x="93.4104" y="65.1797" width="0.525952" height="1.4582" filterUnits="userSpaceOnUse" color-interpolation-filters="sRGB">
<feFlood flood-opacity="0" result="BackgroundImageFix"/>
<feBlend mode="normal" in="SourceGraphic" in2="BackgroundImageFix" result="shape"/>
<feGaussianBlur stdDeviation="0.0702391" result="effect1_foregroundBlur_1081_1678"/>
</filter>
<filter id="filter10_f_1081_1678" x="86.9364" y="53.1403" width="3.34692" height="3.4942" filterUnits="userSpaceOnUse" color-interpolation-filters="sRGB">
<feFlood flood-opacity="0" result="BackgroundImageFix"/>
<feBlend mode="normal" in="SourceGraphic" in2="BackgroundImageFix" result="shape"/>
<feGaussianBlur stdDeviation="0.117065" result="effect1_foregroundBlur_1081_1678"/>
</filter>
<filter id="filter11_f_1081_1678" x="89.6857" y="55.9615" width="1.15815" height="1.1092" filterUnits="userSpaceOnUse" color-interpolation-filters="sRGB">
<feFlood flood-opacity="0" result="BackgroundImageFix"/>
<feBlend mode="normal" in="SourceGraphic" in2="BackgroundImageFix" result="shape"/>
<feGaussianBlur stdDeviation="0.0702391" result="effect1_foregroundBlur_1081_1678"/>
</filter>
<filter id="filter12_f_1081_1678" x="93.0116" y="66.7725" width="6.56689" height="2.54821" filterUnits="userSpaceOnUse" color-interpolation-filters="sRGB">
<feFlood flood-opacity="0" result="BackgroundImageFix"/>
<feBlend mode="normal" in="SourceGraphic" in2="BackgroundImageFix" result="shape"/>
<feGaussianBlur stdDeviation="0.23413" result="effect1_foregroundBlur_1081_1678"/>
</filter>
<filter id="filter13_f_1081_1678" x="93.4775" y="65.3444" width="6.42957" height="3.47052" filterUnits="userSpaceOnUse" color-interpolation-filters="sRGB">
<feFlood flood-opacity="0" result="BackgroundImageFix"/>
<feBlend mode="normal" in="SourceGraphic" in2="BackgroundImageFix" result="shape"/>
<feGaussianBlur stdDeviation="0.175598" result="effect1_foregroundBlur_1081_1678"/>
</filter>
<filter id="filter14_f_1081_1678" x="82.7543" y="56.043" width="3.33188" height="2.84269" filterUnits="userSpaceOnUse" color-interpolation-filters="sRGB">
<feFlood flood-opacity="0" result="BackgroundImageFix"/>
<feBlend mode="normal" in="SourceGraphic" in2="BackgroundImageFix" result="shape"/>
<feGaussianBlur stdDeviation="0.0351196" result="effect1_foregroundBlur_1081_1678"/>
</filter>
<filter id="filter15_f_1081_1678" x="86.9611" y="67.4591" width="3.06223" height="3.10117" filterUnits="userSpaceOnUse" color-interpolation-filters="sRGB">
<feFlood flood-opacity="0" result="BackgroundImageFix"/>
<feBlend mode="normal" in="SourceGraphic" in2="BackgroundImageFix" result="shape"/>
<feGaussianBlur stdDeviation="0.0351196" result="effect1_foregroundBlur_1081_1678"/>
</filter>
<filter id="filter16_d_1081_1678" x="83.0169" y="56.1434" width="3.07844" height="2.56611" filterUnits="userSpaceOnUse" color-interpolation-filters="sRGB">
<feFlood flood-opacity="0" result="BackgroundImageFix"/>
<feColorMatrix in="SourceAlpha" type="matrix" values="0 0 0 0 0 0 0 0 0 0 0 0 0 0 0 0 0 0 127 0" result="hardAlpha"/>
<feOffset dx="-0.0117065" dy="0.023413"/>
<feGaussianBlur stdDeviation="0.0117065"/>
<feComposite in2="hardAlpha" operator="out"/>
<feColorMatrix type="matrix" values="0 0 0 0 0.0156863 0 0 0 0 0.231373 0 0 0 0 0.0666667 0 0 0 0.7 0"/>
<feBlend mode="normal" in2="BackgroundImageFix" result="effect1_dropShadow_1081_1678"/>
<feBlend mode="normal" in="SourceGraphic" in2="effect1_dropShadow_1081_1678" result="shape"/>
</filter>
<filter id="filter17_d_1081_1678" x="87.2423" y="67.5131" width="2.75239" height="2.90962" filterUnits="userSpaceOnUse" color-interpolation-filters="sRGB">
<feFlood flood-opacity="0" result="BackgroundImageFix"/>
<feColorMatrix in="SourceAlpha" type="matrix" values="0 0 0 0 0 0 0 0 0 0 0 0 0 0 0 0 0 0 127 0" result="hardAlpha"/>
<feOffset dx="-0.0117065" dy="0.023413"/>
<feGaussianBlur stdDeviation="0.0117065"/>
<feComposite in2="hardAlpha" operator="out"/>
<feColorMatrix type="matrix" values="0 0 0 0 0.0156863 0 0 0 0 0.231373 0 0 0 0 0.0666667 0 0 0 0.7 0"/>
<feBlend mode="normal" in2="BackgroundImageFix" result="effect1_dropShadow_1081_1678"/>
<feBlend mode="normal" in="SourceGraphic" in2="effect1_dropShadow_1081_1678" result="shape"/>
</filter>
<filter id="filter18_f_1081_1678" x="83.4138" y="56.0871" width="2.58137" height="1.05433" filterUnits="userSpaceOnUse" color-interpolation-filters="sRGB">
<feFlood flood-opacity="0" result="BackgroundImageFix"/>
<feBlend mode="normal" in="SourceGraphic" in2="BackgroundImageFix" result="shape"/>
<feGaussianBlur stdDeviation="0.0117065" result="effect1_foregroundBlur_1081_1678"/>
</filter>
<filter id="filter19_f_1081_1678" x="85.5026" y="56.9746" width="0.554675" height="1.32677" filterUnits="userSpaceOnUse" color-interpolation-filters="sRGB">
<feFlood flood-opacity="0" result="BackgroundImageFix"/>
<feBlend mode="normal" in="SourceGraphic" in2="BackgroundImageFix" result="shape"/>
<feGaussianBlur stdDeviation="0.00292663" result="effect1_foregroundBlur_1081_1678"/>
</filter>
<filter id="filter20_f_1081_1678" x="88.3426" y="68.2655" width="1.61958" height="2.18452" filterUnits="userSpaceOnUse" color-interpolation-filters="sRGB">
<feFlood flood-opacity="0" result="BackgroundImageFix"/>
<feBlend mode="normal" in="SourceGraphic" in2="BackgroundImageFix" result="shape"/>
<feGaussianBlur stdDeviation="0.0117065" result="effect1_foregroundBlur_1081_1678"/>
</filter>
<filter id="filter21_f_1081_1678" x="84.5915" y="56.4713" width="0.790723" height="0.552502" filterUnits="userSpaceOnUse" color-interpolation-filters="sRGB">
<feFlood flood-opacity="0" result="BackgroundImageFix"/>
<feBlend mode="normal" in="SourceGraphic" in2="BackgroundImageFix" result="shape"/>
<feGaussianBlur stdDeviation="0.0117065" result="effect1_foregroundBlur_1081_1678"/>
</filter>
<filter id="filter22_f_1081_1678" x="89.1189" y="68.8008" width="0.51228" height="0.757764" filterUnits="userSpaceOnUse" color-interpolation-filters="sRGB">
<feFlood flood-opacity="0" result="BackgroundImageFix"/>
<feBlend mode="normal" in="SourceGraphic" in2="BackgroundImageFix" result="shape"/>
<feGaussianBlur stdDeviation="0.0117065" result="effect1_foregroundBlur_1081_1678"/>
</filter>
<filter id="filter23_f_1081_1678" x="83.8201" y="57.9867" width="1.79514" height="0.42124" filterUnits="userSpaceOnUse" color-interpolation-filters="sRGB">
<feFlood flood-opacity="0" result="BackgroundImageFix"/>
<feBlend mode="normal" in="SourceGraphic" in2="BackgroundImageFix" result="shape"/>
<feGaussianBlur stdDeviation="0.00585327" result="effect1_foregroundBlur_1081_1678"/>
</filter>
<filter id="filter24_f_1081_1678" x="87.6564" y="67.6324" width="1.26914" height="1.31272" filterUnits="userSpaceOnUse" color-interpolation-filters="sRGB">
<feFlood flood-opacity="0" result="BackgroundImageFix"/>
<feBlend mode="normal" in="SourceGraphic" in2="BackgroundImageFix" result="shape"/>
<feGaussianBlur stdDeviation="0.00585327" result="effect1_foregroundBlur_1081_1678"/>
</filter>
<filter id="filter25_f_1081_1678" x="82.7078" y="53.6888" width="10.6027" height="18.7966" filterUnits="userSpaceOnUse" color-interpolation-filters="sRGB">
<feFlood flood-opacity="0" result="BackgroundImageFix"/>
<feBlend mode="normal" in="SourceGraphic" in2="BackgroundImageFix" result="shape"/>
<feGaussianBlur stdDeviation="0.23413" result="effect1_foregroundBlur_1081_1678"/>
</filter>
<filter id="filter26_f_1081_1678" x="82.7078" y="53.6888" width="10.6027" height="18.7966" filterUnits="userSpaceOnUse" color-interpolation-filters="sRGB">
<feFlood flood-opacity="0" result="BackgroundImageFix"/>
<feBlend mode="normal" in="SourceGraphic" in2="BackgroundImageFix" result="shape"/>
<feGaussianBlur stdDeviation="0.23413" result="effect1_foregroundBlur_1081_1678"/>
</filter>
<filter id="filter27_f_1081_1678" x="70.5833" y="69.4359" width="7.77454" height="12.6432" filterUnits="userSpaceOnUse" color-interpolation-filters="sRGB">
<feFlood flood-opacity="0" result="BackgroundImageFix"/>
<feBlend mode="normal" in="SourceGraphic" in2="BackgroundImageFix" result="shape"/>
<feGaussianBlur stdDeviation="0.292969" result="effect1_foregroundBlur_1081_1678"/>
</filter>
<linearGradient id="paint0_linear_1081_1678" x1="89.8965" y1="100.561" x2="86.0401" y2="98.3742" gradientUnits="userSpaceOnUse">
<stop stop-color="#4285F4"/>
<stop offset="1" stop-color="#034ECA"/>
</linearGradient>
<linearGradient id="paint1_linear_1081_1678" x1="84.8085" y1="54.1908" x2="83.5861" y2="58.5227" gradientUnits="userSpaceOnUse">
<stop stop-color="#A8F0B9"/>
<stop offset="1" stop-color="#ADEEBC" stop-opacity="0"/>
</linearGradient>
<linearGradient id="paint2_linear_1081_1678" x1="90.8568" y1="71.333" x2="87.1865" y2="68.7277" gradientUnits="userSpaceOnUse">
<stop stop-color="#A8F0B9"/>
<stop offset="1" stop-color="#ADEEBC" stop-opacity="0"/>
</linearGradient>
<radialGradient id="paint3_radial_1081_1678" cx="0" cy="0" r="1" gradientUnits="userSpaceOnUse" gradientTransform="translate(92.6728 52.0207) rotate(-126.097) scale(0.910514 0.659809)">
<stop stop-color="white"/>
<stop offset="0.948484" stop-color="white" stop-opacity="0"/>
</radialGradient>
<radialGradient id="paint4_radial_1081_1678" cx="0" cy="0" r="1" gradientUnits="userSpaceOnUse" gradientTransform="translate(98.1392 66.9405) rotate(-126.097) scale(0.910514 0.659808)">
<stop stop-color="white"/>
<stop offset="0.948484" stop-color="white" stop-opacity="0"/>
</radialGradient>
<radialGradient id="paint5_radial_1081_1678" cx="0" cy="0" r="1" gradientUnits="userSpaceOnUse" gradientTransform="translate(85.736 57.8522) rotate(-156.201) scale(0.35523 0.646989)">
<stop stop-color="#93E19F"/>
<stop offset="1" stop-color="#93E19F" stop-opacity="0"/>
</radialGradient>
<radialGradient id="paint6_radial_1081_1678" cx="0" cy="0" r="1" gradientUnits="userSpaceOnUse" gradientTransform="translate(89.2542 67.8651) rotate(117.327) scale(0.355084 0.646723)">
<stop stop-color="#93E19F"/>
<stop offset="1" stop-color="#93E19F" stop-opacity="0"/>
</radialGradient>
<linearGradient id="paint7_linear_1081_1678" x1="86.2121" y1="56.9514" x2="85.1905" y2="57.3643" gradientUnits="userSpaceOnUse">
<stop stop-color="#E2DDE2"/>
<stop offset="1" stop-color="#E2DDE2" stop-opacity="0"/>
</linearGradient>
<linearGradient id="paint8_linear_1081_1678" x1="89.7756" y1="68.398" x2="88.9205" y2="68.6998" gradientUnits="userSpaceOnUse">
<stop stop-color="#373637"/>
<stop offset="1" stop-color="#373637" stop-opacity="0"/>
</linearGradient>
<linearGradient id="paint9_linear_1081_1678" x1="92.3307" y1="61.1641" x2="88.0861" y2="62.6617" gradientUnits="userSpaceOnUse">
<stop stop-color="#A8F0B9"/>
<stop offset="1" stop-color="#ADEEBC" stop-opacity="0"/>
</linearGradient>
<linearGradient id="paint10_linear_1081_1678" x1="92.3307" y1="61.1641" x2="88.0861" y2="62.6617" gradientUnits="userSpaceOnUse">
<stop stop-color="#A8F0B9"/>
<stop offset="1" stop-color="#ADEEBC" stop-opacity="0"/>
</linearGradient>
<linearGradient id="paint11_linear_1081_1678" x1="60.209" y1="75.0807" x2="78.7637" y2="73.6158" gradientUnits="userSpaceOnUse">
<stop stop-color="#4285F4"/>
<stop offset="0.703125" stop-color="#044FCB"/>
</linearGradient>
<linearGradient id="paint12_linear_1081_1678" x1="39.0176" y1="99.5848" x2="43.0178" y2="97.2234" gradientUnits="userSpaceOnUse">
<stop stop-color="#4285F4"/>
<stop offset="1" stop-color="#034ECA"/>
</linearGradient>
<linearGradient id="paint13_linear_1081_1678" x1="57.3719" y1="65.9994" x2="55.2397" y2="65.2598" gradientUnits="userSpaceOnUse">
<stop stop-color="#73A7FF"/>
<stop offset="1" stop-color="#5893F6" stop-opacity="0"/>
</linearGradient>
<linearGradient id="paint14_linear_1081_1678" x1="64.1152" y1="26.8021" x2="67.4676" y2="29.818" gradientUnits="userSpaceOnUse">
<stop stop-color="#4285F4"/>
<stop offset="1" stop-color="#034ECA"/>
</linearGradient>
<linearGradient id="paint15_linear_1081_1678" x1="67.8658" y1="46.5311" x2="78.0039" y2="67.7197" gradientUnits="userSpaceOnUse">
<stop stop-color="#034DC9"/>
<stop offset="1" stop-color="#4285F4"/>
</linearGradient>
<linearGradient id="paint16_linear_1081_1678" x1="43.3332" y1="63.9905" x2="48.675" y2="65.8231" gradientUnits="userSpaceOnUse">
<stop stop-color="#9BC0FF"/>
<stop offset="1" stop-color="#5893F6" stop-opacity="0"/>
</linearGradient>
<radialGradient id="paint17_radial_1081_1678" cx="0" cy="0" r="1" gradientUnits="userSpaceOnUse" gradientTransform="translate(62.8902 25.0544) rotate(134.502) scale(1.68167 1.17158)">
<stop stop-color="white"/>
<stop offset="0.948484" stop-color="white" stop-opacity="0"/>
</radialGradient>
<radialGradient id="paint18_radial_1081_1678" cx="0" cy="0" r="1" gradientUnits="userSpaceOnUse" gradientTransform="translate(57.1785 45.8996) rotate(119.61) scale(5.23574 2.86041)">
<stop stop-color="white"/>
<stop offset="0.948484" stop-color="white" stop-opacity="0"/>
</radialGradient>
</defs>
</svg>
