<svg width="128" height="128" viewBox="0 0 128 128" xmlns="http://www.w3.org/2000/svg"><defs><linearGradient x1="31.677%" y1="34.912%" x2="78.46%" y2="88.594%" id="a"><stop stop-color="#E6E6E6" offset="0%"/><stop stop-color="#FFF" stop-opacity="0" offset="92.575%"/></linearGradient></defs><g transform="translate(6.5 6)" fill-rule="nonzero" fill="none"><ellipse fill="#000" opacity=".2" cx="57.54" cy="58.396" rx="57.54" ry="57.475"/><ellipse fill="#FFF" cx="57.54" cy="57.475" rx="57.54" ry="57.475"/><path d="M114.59 64.987L68.636 19.084l-37.02 60.613 34.637 34.598c25.198-3.824 45.026-23.972 48.337-49.308z" fill="#FFF"/><path d="M83.058 46.114L37.104.211.085 60.824l34.637 34.598c25.197-3.824 45.025-23.972 48.336-49.308z" fill="url(#a)" transform="translate(31.532 18.873)"/><path d="M79.185 41.314h-2.246c-.521-6.21-4.074-11.467-9.266-14.292l-1.128-.563c-2.342-1.069-4.973-1.664-7.78-1.664-2.807 0-5.438.595-7.78 1.664l-.01-.016c-.387.172-.777.334-1.174.483l.056.096a17.836 17.836 0 0 0-3.686 2.666h-10.5c-3.196 0-5.812 2.616-5.812 5.813 0 .078.002.156.005.234-.011-.16-.011-.252-.011-.252v40.175c0 3.198 2.616 5.814 5.813 5.814h10.187l-2.502 5.33c-.878 1.885.498 4.044 2.577 4.044a2.843 2.843 0 0 0 2.578-1.643l3.618-7.731h13.118l3.67 7.626a2.84 2.84 0 0 0 2.558 1.606c2.093 0 3.468-2.188 2.56-4.074l-2.476-5.158h8.156l-.014 8.992c0 .16.13.29.29.29l2.46.013c2.877 0 5.231-2.354 5.231-5.23v-38.62c0-6.333-8.492-5.603-8.492-5.603zM36.04 41.314h4.55-4.549z" fill="#CCC"/><g><path d="M49.693 27.832H33.82c-3.197 0-5.813 2.616-5.813 5.813 0 3.197 2.423 5.813 5.62 5.813H49.83l-.136-11.626z" fill="#073042"/><path d="M85.826 79.616H33.814c-3.197 0-5.813-2.616-5.813-5.814V33.627s-.017 5.831 6.195 5.831h43.137s8.493-.73 8.493 5.603v34.555z" fill="#4285F4"/><path d="M54.712 59.112L45.08 79.637h6.271l4.465-9.542c.82-1.74 3.291-1.747 4.12-.012l4.598 9.554h6.311l-9.91-20.65a5.232 5.232 0 0 0 2.049-4.148c0-2.445-1.684-4.5-3.953-5.076v-3.407a1.008 1.008 0 0 0-2.015 0v3.296c-2.548.355-4.518 2.543-4.518 5.187 0 1.763.877 3.322 2.214 4.273zm3.029-7.501a3.229 3.229 0 1 1 0 6.457 3.229 3.229 0 0 1 0-6.457z" fill="#3870B2"/><path fill="#FFF" d="M46.253 30.687h22.254v4.075H46.253z"/><path d="M65.278 34.284c-.834 0-1.513-.68-1.513-1.514 0-.835.679-1.514 1.513-1.514.835 0 1.514.68 1.514 1.514 0 .835-.679 1.514-1.514 1.514m-16.73 0c-.834 0-1.513-.68-1.513-1.514 0-.835.679-1.514 1.513-1.514.835 0 1.514.68 1.514 1.514 0 .835-.68 1.514-1.514 1.514m17.273-9.118l3.025-5.239a.63.63 0 0 0-1.09-.63l-3.063 5.306c-2.342-1.069-4.973-1.664-7.78-1.664-2.807 0-5.437.595-7.78 1.664l-3.063-5.305a.63.63 0 0 0-1.09.63l3.025 5.238c-5.194 2.825-8.747 8.084-9.267 14.297h36.35c-.52-6.213-4.073-11.472-9.267-14.297" fill="#3DDC84"/><path d="M80.595 50.617h-2.403a.29.29 0 0 0-.289.29l-.058 37.7c0 .16.13.29.289.29l2.46.014c2.878 0 5.232-2.354 5.232-5.23V45.38c0 2.877-2.354 5.236-5.231 5.236zM56.63 51.658a3.229 3.229 0 1 1 0 6.457 3.229 3.229 0 0 1 0-6.457zm1.29-1.93v-3.325a1.008 1.008 0 0 0-2.014 0v3.296c-2.549.355-4.519 2.543-4.519 5.187 0 1.763.877 3.322 2.215 4.273L41.499 84.946c-.878 1.885.498 4.044 2.578 4.044a2.843 2.843 0 0 0 2.578-1.643l8.05-17.205c.82-1.74 3.292-1.747 4.121-.012l8.234 17.112a2.84 2.84 0 0 0 2.558 1.606c2.094 0 3.468-2.188 2.56-4.074l-12.353-25.74a5.232 5.232 0 0 0 2.048-4.148c0-2.445-1.684-4.5-3.953-5.076" fill="#073042"/></g></g></svg>