<!-- Copyright 2000-2022 JetBrains s.r.o. and contributors. Use of this source code is governed by the Apache 2.0 license. -->
<svg width="16" height="16" viewBox="0 0 16 16" fill="none" xmlns="http://www.w3.org/2000/svg">
<path d="M11.6716 2.68707C11.4637 2.86878 11.4424 3.18464 11.6241 3.39258C11.8058 3.60052 12.1217 3.62178 12.3296 3.44008L11.6716 2.68707ZM3.57564 6.46982L4.05406 6.32429L4.05154 6.31646L3.57564 6.46982ZM7.92629 7.91658C8.13147 7.73176 8.14797 7.41561 7.96315 7.21043C7.77834 7.00526 7.46219 6.98875 7.25701 7.17357L7.92629 7.91658ZM5.77023 8.82391L5.53237 8.38404L5.52541 8.38795L5.77023 8.82391ZM4.15687 8.38056L3.67852 8.52607L3.68086 8.53378L3.68345 8.54141L4.15687 8.38056ZM12.5643 9.10175L12.2648 8.70137L12.2645 8.70153L12.5643 9.10175ZM0.936422 12.757L0.439067 12.8084L0.936422 12.757ZM2.43568 12.6784L2.91809 12.8099L2.43568 12.6784ZM3.9237 4.96165L3.7026 4.5132L3.9237 4.96165ZM3.45956 6.10957L2.98366 6.26293L3.45956 6.10957ZM5.30432 12.6779L5.78668 12.5462L5.30432 12.6779ZM9.66556 12.6753L10.1483 12.5451L9.66556 12.6753ZM11.1147 12.7459L10.6149 12.7317L11.1147 12.7459ZM6.79573 12.6779L6.31337 12.5462L6.79573 12.6779ZM15.3453 3.32875C15.1146 2.84755 14.6299 2.32954 13.9726 2.10841C13.2757 1.87397 12.4599 1.99828 11.6716 2.68707L12.3296 3.44008C12.8789 2.96009 13.3287 2.94689 13.6537 3.05622C14.0183 3.17885 14.3116 3.48587 14.4435 3.76097L15.3453 3.32875ZM14.4517 3.77723C14.5734 4.00913 14.5589 4.44317 14.2837 4.86422C14.0245 5.26063 13.5754 5.56982 12.9631 5.56982V6.56982C13.9508 6.56982 14.6986 6.05713 15.1207 5.41137C15.5267 4.79024 15.6779 3.96181 15.3371 3.3125L14.4517 3.77723ZM12.9631 5.56982C12.5694 5.56982 12.1339 5.40495 11.5646 5.11942C11.0274 4.84999 10.3612 4.46663 9.63588 4.17173C8.12037 3.55555 6.23124 3.2665 3.7026 4.5132L4.1448 5.41011C6.38033 4.30793 7.96768 4.57296 9.25924 5.09808C9.93744 5.37383 10.5074 5.70793 11.1163 6.0133C11.6931 6.30255 12.3136 6.56982 12.9631 6.56982V5.56982ZM4.63523 8.23505L4.054 6.32431L3.09728 6.61533L3.67852 8.52607L4.63523 8.23505ZM11.6145 12.76C11.6517 11.4439 12.023 10.1318 12.864 9.50197L12.2645 8.70153C11.0398 9.6187 10.6542 11.3431 10.6149 12.7317L11.6145 12.76ZM12.8638 9.50213C14.7956 8.05707 15.4583 6.54908 15.6003 5.35416C15.6702 4.76559 15.6117 4.27083 15.5339 3.91951C15.495 3.74374 15.4511 3.60304 15.4156 3.50329C15.3978 3.45338 15.382 3.41356 15.3699 3.38458C15.3639 3.37009 15.3587 3.35828 15.3547 3.34926C15.3527 3.34475 15.351 3.34093 15.3495 3.33782C15.3488 3.33626 15.3482 3.33488 15.3476 3.33368C15.3473 3.33308 15.3471 3.33252 15.3468 3.33201C15.3467 3.33175 15.3465 3.3314 15.3465 3.33127C15.3463 3.33093 15.3462 3.3306 14.8944 3.54486C14.4426 3.75912 14.4425 3.75881 14.4423 3.75852C14.4423 3.75843 14.4422 3.75814 14.4421 3.75797C14.4419 3.75763 14.4418 3.75733 14.4417 3.75707C14.4414 3.75655 14.4412 3.7562 14.4412 3.75601C14.441 3.75562 14.4411 3.75588 14.4415 3.75678C14.4423 3.75858 14.4442 3.76292 14.4471 3.76971C14.4527 3.78331 14.4621 3.80665 14.4736 3.83907C14.4968 3.90398 14.5286 4.00464 14.5575 4.13562C14.6156 4.39782 14.6617 4.77821 14.6073 5.23614C14.5006 6.13424 13.9982 7.40469 12.2648 8.70137L12.8638 9.50213ZM8.22997 12.0836C8.68427 12.0836 9.0694 12.3849 9.1828 12.8054L10.1483 12.5451C9.9168 11.6865 9.13459 11.0836 8.22997 11.0836V12.0836ZM11.0142 12.3441H9.87321V13.3441H11.0142V12.3441ZM7.27809 12.8095C7.39358 12.3863 7.78044 12.0836 8.22997 12.0836V11.0836C7.32411 11.0836 6.54615 11.6933 6.31337 12.5462L7.27809 12.8095ZM3.87008 12.0836C4.31962 12.0836 4.70647 12.3863 4.82196 12.8095L5.78668 12.5462C5.55391 11.6933 4.77594 11.0836 3.87008 11.0836V12.0836ZM6.58832 12.3459H5.51173V13.3459H6.58832V12.3459ZM2.91809 12.8099C3.03346 12.3865 3.42041 12.0836 3.87008 12.0836V11.0836C2.96395 11.0836 2.18579 11.6937 1.95327 12.547L2.91809 12.8099ZM3.30809 6.04743C2.17283 6.76654 1.36788 7.70552 0.892746 8.85728C0.420167 10.0028 0.286222 11.3283 0.439067 12.8084L1.43378 12.7057C1.29293 11.3418 1.42401 10.1917 1.81718 9.23863C2.20778 8.29178 2.86929 7.50911 3.8432 6.89221L3.30809 6.04743ZM2.22825 12.3466H1.03554V13.3466H2.22825V12.3466ZM7.25701 7.17357C6.731 7.64738 6.15747 8.0461 5.5324 8.3841L6.00805 9.26373C6.69854 8.89035 7.33785 8.44663 7.92629 7.91658L7.25701 7.17357ZM4.05154 6.31646L3.93546 5.95622L2.98366 6.26293L3.09974 6.62317L4.05154 6.31646ZM5.52541 8.38795C5.37365 8.47317 5.15074 8.50741 4.95387 8.46389C4.76484 8.42211 4.66744 8.32903 4.63029 8.21971L3.68345 8.54141C3.86227 9.06771 4.30677 9.34499 4.73803 9.44032C5.16145 9.53392 5.63724 9.47203 6.01504 9.25988L5.52541 8.38795ZM0.439067 12.8084C0.470507 13.1128 0.727167 13.3466 1.03554 13.3466V12.3466C1.24198 12.3466 1.41281 12.5026 1.43378 12.7057L0.439067 12.8084ZM1.95327 12.547C1.97734 12.4587 2.06829 12.3466 2.22825 12.3466V13.3466C2.5859 13.3466 2.84205 13.089 2.91809 12.8099L1.95327 12.547ZM3.7026 4.5132C3.04148 4.83915 2.7699 5.59959 2.98366 6.26293L3.93546 5.95622C3.86134 5.7262 3.96409 5.49921 4.1448 5.41011L3.7026 4.5132ZM4.82196 12.8095C4.8981 13.0885 5.15421 13.3459 5.51173 13.3459V12.3459C5.67164 12.3459 5.76258 12.4579 5.78668 12.5462L4.82196 12.8095ZM9.1828 12.8054C9.25822 13.0851 9.51449 13.3441 9.87321 13.3441V12.3441C10.0337 12.3441 10.1245 12.4568 10.1483 12.5451L9.1828 12.8054ZM10.6149 12.7317C10.621 12.519 10.7949 12.3441 11.0142 12.3441V13.3441C11.3426 13.3441 11.6055 13.0819 11.6145 12.76L10.6149 12.7317ZM6.31337 12.5462C6.33747 12.4579 6.42842 12.3459 6.58832 12.3459V13.3459C6.94585 13.3459 7.20196 13.0885 7.27809 12.8095L6.31337 12.5462Z" fill="#6C707E"/>
<path fill-rule="evenodd" clip-rule="evenodd" d="M9.25933 7.32003C9.16406 7.25882 9.1068 7.14729 9.14402 7.04034C9.24352 6.75444 9.50016 6.54321 9.8117 6.50936C10.1856 6.46872 10.5372 6.69461 10.6556 7.05159C10.7543 7.34903 10.6688 7.67024 10.4501 7.87955C10.3683 7.95785 10.2431 7.95212 10.1478 7.89091L9.25933 7.32003Z" fill="#6C707E"/>
</svg>
