<!-- Copyright 2000-2022 JetBrains s.r.o. and contributors. Use of this source code is governed by the Apache 2.0 license. -->
<svg width="20" height="20" viewBox="0 0 20 20" fill="none" xmlns="http://www.w3.org/2000/svg">
<path d="M14.6604 3.46512C14.3485 3.73768 14.3166 4.21148 14.5891 4.52339C14.8617 4.83529 15.3355 4.86719 15.6474 4.59463L14.6604 3.46512ZM4.24258 8.44135L4.96021 8.22305L4.95643 8.21132L4.24258 8.44135ZM9.94572 10.3912C10.2535 10.114 10.2782 9.63973 10.001 9.33197C9.72379 9.0242 9.24957 8.99945 8.9418 9.27667L9.94572 10.3912ZM7.08481 11.4902L6.72803 10.8304L6.71759 10.8362L7.08481 11.4902ZM4.99534 10.916L4.2778 11.1342L4.28132 11.1458L4.28521 11.1573L4.99534 10.916ZM15.8839 11.85L15.4346 11.2494L15.4343 11.2497L15.8839 11.85ZM2.75349 16.5314L3.48206 16.7094L2.75349 16.5314ZM4.01951 7.7491L4.73336 7.51907L4.01951 7.7491ZM6.49413 16.5306L5.76564 16.709L6.49413 16.5306ZM12.1423 16.5275L11.4132 16.7034L12.1423 16.5275ZM14.0058 16.5986L14.7555 16.6177L14.0058 16.5986ZM8.40024 16.5306L9.12873 16.709L8.40024 16.5306ZM19.578 4.32904C19.2691 3.68471 18.6217 2.99221 17.7404 2.69574C16.7998 2.3793 15.7057 2.55167 14.6604 3.46512L15.6474 4.59463C16.3343 3.99439 16.8794 3.98868 17.2622 4.11745C17.7043 4.26618 18.0647 4.64219 18.2253 4.97737L19.578 4.32904ZM18.2375 5.00175C18.3727 5.25933 18.368 5.78106 18.0249 6.30586C17.706 6.79372 17.155 7.17331 16.4004 7.17331V8.67331C17.7181 8.67331 18.7171 7.98848 19.2805 7.1266C19.8197 6.30167 20.0295 5.18835 19.5657 4.30466L18.2375 5.00175ZM16.4004 7.17331C15.9105 7.17331 15.3589 6.96528 14.6105 6.58849C13.9095 6.23556 13.0267 5.72818 12.0627 5.34309C10.0377 4.53419 7.51159 4.19112 4.13577 5.92929L4.82242 7.2629C7.76576 5.74741 9.83369 6.06795 11.5063 6.73607C12.391 7.08949 13.1329 7.52397 13.936 7.92828C14.6917 8.30872 15.5237 8.67331 16.4004 8.67331V7.17331ZM5.71287 10.6977L4.96011 8.22308L3.52504 8.65962L4.2778 11.1342L5.71287 10.6977ZM14.7555 16.6177C14.7991 14.9128 15.2774 13.2411 16.3334 12.4503L15.4343 11.2497C13.8001 12.4735 13.3023 14.7669 13.256 16.5795L14.7555 16.6177ZM16.3331 12.4506C18.8553 10.5638 19.7301 8.5865 19.9176 7.00854C20.0098 6.23289 19.9326 5.58041 19.8299 5.11628C19.7785 4.88404 19.7204 4.69772 19.6731 4.56497C19.6494 4.49853 19.6284 4.44528 19.612 4.40617C19.6039 4.38661 19.5969 4.37055 19.5913 4.35813C19.5886 4.35192 19.5862 4.34661 19.5841 4.34222C19.5831 4.34002 19.5822 4.33806 19.5814 4.33632C19.581 4.33546 19.5806 4.33465 19.5803 4.3339C19.5801 4.33352 19.5798 4.333 19.5798 4.33281C19.5795 4.33231 19.5793 4.33182 18.9016 4.6532C18.224 4.97459 18.2238 4.97413 18.2235 4.97368C18.2235 4.97354 18.2233 4.97311 18.2232 4.97284C18.2229 4.97231 18.2227 4.97184 18.2225 4.97141C18.2221 4.97056 18.2218 4.96993 18.2216 4.9695C18.2212 4.96864 18.2212 4.96862 18.2215 4.96941C18.2223 4.971 18.2244 4.97585 18.2277 4.98386C18.2344 4.99989 18.2459 5.02844 18.2602 5.06863C18.2889 5.14913 18.3288 5.27539 18.3654 5.44044C18.4385 5.77089 18.497 6.25183 18.4281 6.83151C18.2935 7.96424 17.6593 9.58529 15.4346 11.2494L16.3331 12.4506ZM10.2705 15.8143C10.8235 15.8143 11.2889 16.1879 11.4132 16.7034L12.8714 16.3516C12.5835 15.1584 11.5122 14.3143 10.2705 14.3143V15.8143ZM13.9054 15.9468H12.3477V17.4468H13.9054V15.9468ZM9.12873 16.709C9.25593 16.1893 9.72437 15.8143 10.2705 15.8143V14.3143C9.02656 14.3143 7.96165 15.168 7.67175 16.3523L9.12873 16.709ZM4.62391 15.8143C5.17 15.8143 5.63844 16.1893 5.76564 16.709L7.22262 16.3523C6.93272 15.168 5.86781 14.3143 4.62391 14.3143V15.8143ZM8.19504 15.9491H6.69933V17.4491H8.19504V15.9491ZM3.48206 16.7094C3.60909 16.1896 4.07765 15.8143 4.62391 15.8143V14.3143C3.37963 14.3143 2.31445 15.1686 2.02493 16.3534L3.48206 16.7094ZM3.84124 7.80776C2.35083 8.75184 1.2922 9.98758 0.668797 11.5051C0.0492678 13.0131 -0.121894 14.7534 0.0813376 16.6887L1.57313 16.532C1.38818 14.7708 1.55562 13.2938 2.05628 12.0751C2.55306 10.8658 3.3962 9.86528 4.64391 9.07494L3.84124 7.80776ZM2.54828 15.95H0.926436V17.45H2.54828V15.95ZM8.9418 9.27667C8.26695 9.88456 7.5309 10.3963 6.72807 10.8304L7.44155 12.1499C8.34252 11.6627 9.17723 11.0834 9.94572 10.3912L8.9418 9.27667ZM4.95643 8.21132L4.73336 7.51907L3.30566 7.97913L3.52872 8.67138L4.95643 8.21132ZM6.71759 10.8362C6.5442 10.9336 6.28141 10.9751 6.04965 10.9239C5.82964 10.8752 5.73906 10.7736 5.70547 10.6747L4.28521 11.1573C4.53131 11.8816 5.14254 12.2596 5.72589 12.3885C6.29748 12.5149 6.93958 12.4319 7.45203 12.1441L6.71759 10.8362ZM0.0813376 16.6887C0.126425 17.118 0.488446 17.45 0.926436 17.45V15.95C1.2625 15.95 1.53869 16.2041 1.57313 16.532L0.0813376 16.6887ZM2.02493 16.3534C2.07387 16.1531 2.26244 15.95 2.54828 15.95V17.45C3.0318 17.45 3.38619 17.1017 3.48206 16.7094L2.02493 16.3534ZM4.13577 5.92929C3.37197 6.32256 3.05629 7.20526 3.30566 7.97913L4.73336 7.51907C4.69486 7.3996 4.75176 7.29928 4.82242 7.2629L4.13577 5.92929ZM5.76564 16.709C5.86164 17.1011 6.21598 17.4491 6.69933 17.4491V15.9491C6.98506 15.9491 7.17362 16.1521 7.22262 16.3523L5.76564 16.709ZM11.4132 16.7034C11.5081 17.0967 11.8628 17.4468 12.3477 17.4468V15.9468C12.6344 15.9468 12.823 16.151 12.8714 16.3516L11.4132 16.7034ZM13.256 16.5795C13.2649 16.2302 13.5504 15.9468 13.9054 15.9468V17.4468C14.3695 17.4468 14.7438 17.0762 14.7555 16.6177L13.256 16.5795ZM7.67175 16.3523C7.72075 16.1521 7.90931 15.9491 8.19504 15.9491V17.4491C8.67839 17.4491 9.03273 17.1011 9.12873 16.709L7.67175 16.3523Z" fill="#6C707E"/>
<path fill-rule="evenodd" clip-rule="evenodd" d="M11.5569 9.51311C11.4617 9.4519 11.4054 9.34103 11.4369 9.23226C11.5518 8.83583 11.8961 8.53852 12.3182 8.49265C12.8024 8.44002 13.2577 8.73257 13.4111 9.19491C13.5448 9.59792 13.4175 10.0346 13.1046 10.3038C13.0188 10.3777 12.8946 10.3726 12.7993 10.3114L11.5569 9.51311Z" fill="#6C707E"/>
</svg>
