<!-- Copyright 2000-2023 JetBrains s.r.o. and contributors. Use of this source code is governed by the Apache 2.0 license. -->
<svg width="16" height="16" viewBox="0 0 16 16" fill="none" xmlns="http://www.w3.org/2000/svg">
<path fill-rule="evenodd" clip-rule="evenodd" d="M11 10.5C11 10.2239 11.2239 10 11.5 10H15.5C15.7761 10 16 10.2239 16 10.5V14.5C16 14.7761 15.7761 15 15.5 15C15.2239 15 15 14.7761 15 14.5V11.7071L10.8536 15.8536C10.6583 16.0488 10.3417 16.0488 10.1464 15.8536C9.95118 15.6583 9.95118 15.3417 10.1464 15.1464L14.2929 11H11.5C11.2239 11 11 10.7761 11 10.5Z" fill="#3574F0"/>
<path d="M13.9725 2.10846C14.6262 2.32836 15.1092 2.84187 15.3414 3.32081C15.4079 3.44938 15.4552 3.58488 15.4853 3.72433C15.5017 3.78344 15.5182 3.84864 15.5339 3.91956C15.6117 4.27088 15.6702 4.76563 15.6003 5.35421C15.4747 6.41124 14.9416 7.71327 13.4829 9H11.9216C12.0278 8.89321 12.142 8.79335 12.2645 8.70158C13.4649 7.80367 14.0751 6.91818 14.3723 6.16035C13.9864 6.41167 13.5118 6.56986 12.9631 6.56986C12.3136 6.56986 11.693 6.3026 11.1163 6.01334C10.9342 5.92201 10.7555 5.8281 10.5764 5.73396C10.1568 5.51334 9.73457 5.2914 9.25922 5.09813C7.96767 4.57301 6.38031 4.30797 4.14479 5.41016C3.96408 5.49925 3.86133 5.72625 3.93545 5.95627L4.05405 6.32433L4.63233 8.2256C4.67094 8.33239 4.7682 8.4229 4.95385 8.46394C5.15073 8.50746 5.37364 8.47321 5.5254 8.38799L5.53236 8.38409C6.15742 8.04609 6.73098 7.64743 7.257 7.17361C7.46217 6.9888 7.77832 7.0053 7.96314 7.21048C8.14796 7.41566 8.13145 7.73181 7.92628 7.91662C7.33875 8.44585 6.70052 8.88902 6.01126 9.26203C5.63407 9.47248 5.16003 9.53365 4.73802 9.44037C4.30675 9.34504 3.86226 9.06775 3.68344 8.54146L3.68085 8.53383L3.29932 7.2796C2.61709 7.82667 2.13015 8.47996 1.81716 9.23868C1.45899 10.1069 1.31833 11.1387 1.40261 12.3466H2.01951C2.3114 11.5998 3.0366 11.0837 3.87007 11.0837C4.70328 11.0837 5.4283 11.5995 5.72037 12.346H6.37966C6.67173 11.5995 7.39674 11.0837 8.22996 11.0837C9.06221 11.0837 9.79085 11.5939 10.0824 12.3442H10.6347C10.6487 12.1552 10.6694 11.9622 10.698 11.7678C10.9299 11.9149 11.205 12 11.5 12H11.6748C11.6646 12.0765 11.6557 12.1535 11.648 12.2308L10.5346 13.3442H9.87319C9.51447 13.3442 9.2582 13.0852 9.18279 12.8055C9.06939 12.3849 8.68426 12.0837 8.22996 12.0837C7.78042 12.0837 7.39357 12.3864 7.27807 12.8096C7.20194 13.0885 6.94583 13.346 6.58831 13.346H5.51172C5.15419 13.346 4.89808 13.0885 4.82195 12.8096C4.70646 12.3864 4.3196 12.0837 3.87007 12.0837C3.42039 12.0837 3.03345 12.3866 2.91808 12.8099C2.84203 13.089 2.58589 13.3466 2.22824 13.3466H1.03552C0.727153 13.3466 0.470493 13.1129 0.439053 12.8084C0.286208 11.3284 0.420154 10.0029 0.892733 8.85733C1.32137 7.81828 2.01842 6.9524 2.98427 6.2649L2.98364 6.26297C2.76989 5.59964 3.04147 4.83919 3.70259 4.51324C6.23123 3.26654 8.12036 3.55559 9.63586 4.17177C10.1591 4.38451 10.6516 4.64329 11.0871 4.87212C11.2552 4.96049 11.4149 5.0444 11.5646 5.11946C12.1339 5.405 12.5694 5.56986 12.9631 5.56986C13.5754 5.56986 14.0245 5.26068 14.2837 4.86426C14.501 4.53184 14.5557 4.19132 14.5092 3.94857C14.4963 3.90511 14.4841 3.86846 14.4736 3.83911C14.4638 3.81151 14.4532 3.78419 14.4417 3.75726C14.309 3.48313 14.0166 3.17834 13.6537 3.05626C13.3287 2.94694 12.8789 2.96014 12.3296 3.44012C12.1217 3.62183 11.8058 3.60056 11.6241 3.39262C11.4424 3.18469 11.4637 2.86882 11.6716 2.68712C12.4598 1.99833 13.2757 1.87402 13.9725 2.10846Z" fill="#6C707E"/>
<path d="M9.1438 7.04057C9.10658 7.14752 9.16384 7.25906 9.2591 7.32027L10.1476 7.89114C10.2428 7.95236 10.3681 7.95809 10.4499 7.87979C10.6686 7.67047 10.7541 7.34926 10.6554 7.05183C10.5369 6.69484 10.1854 6.46896 9.81148 6.50959C9.49993 6.54345 9.2433 6.75467 9.1438 7.04057Z" fill="#6C707E"/>
</svg>
