<!-- Copyright 2000-2023 JetBrains s.r.o. and contributors. Use of this source code is governed by the Apache 2.0 license. -->
<svg width="20" height="20" viewBox="0 0 20 20" fill="none" xmlns="http://www.w3.org/2000/svg">
<path d="M18.9016 4.65326C18.4322 3.67376 16.8861 2.51625 15.1539 4.02994M18.9016 4.65326C19.5006 5.79453 18.4726 7.92337 16.4004 7.92337C13.6672 7.92337 10.7983 3.3425 4.47909 6.59615C4.06186 6.81098 3.87557 7.30249 4.01951 7.74917L4.24258 8.44141M18.9016 4.65326C18.9016 4.65326 20.6308 8.2992 15.8839 11.8501C14.5388 12.8574 14.0507 14.8399 14.0058 16.5987C14.0044 16.6533 13.9599 16.6969 13.9054 16.6969H12.3477C12.2486 16.6969 12.1656 16.6239 12.1423 16.5276C11.9362 15.6732 11.1678 15.0644 10.2705 15.0644C9.37546 15.0644 8.60879 15.6787 8.40024 16.5307C8.37674 16.6267 8.29385 16.6992 8.19504 16.6992H6.69933C6.60052 16.6992 6.51763 16.6267 6.49413 16.5307C6.28558 15.6787 5.51891 15.0644 4.62391 15.0644C3.72864 15.0644 2.96177 15.6791 2.75349 16.5315C2.73003 16.6275 2.64712 16.7 2.54828 16.7H0.926436C0.875473 16.7 0.832559 16.6611 0.827236 16.6104C0.43905 12.9139 1.50445 10.1758 4.24258 8.44141M4.24258 8.44141L4.99534 10.916C5.27503 11.7392 6.39897 11.8754 7.08481 11.4902C7.93671 11.0296 8.72209 10.484 9.44376 9.83399" stroke="#CED0D6" stroke-width="1.5" stroke-linecap="round"/>
<path fill-rule="evenodd" clip-rule="evenodd" d="M11.5569 9.51317C11.4617 9.45196 11.4054 9.34109 11.4369 9.23233C11.5518 8.83589 11.8961 8.53859 12.3182 8.49271C12.8024 8.44009 13.2577 8.73263 13.4111 9.19497C13.5448 9.59798 13.4175 10.0347 13.1046 10.3039C13.0188 10.3778 12.8946 10.3726 12.7993 10.3114L11.5569 9.51317Z" fill="#CED0D6"/>
</svg>
