<?xml version="1.0" encoding="utf-8"?>
<!-- Generator: Adobe Illustrator 21.1.0, SVG Export Plug-In . SVG Version: 6.00 Build 0)  -->
<svg version="1.1" id="Layer_1" xmlns="http://www.w3.org/2000/svg" xmlns:xlink="http://www.w3.org/1999/xlink" x="0px" y="0px"
	 viewBox="0 0 138 138.7" style="enable-background:new 0 0 138 138.7;" xml:space="preserve">
<style type="text/css">
	.st0{fill:#43B02A;}
</style>
<g>
	<path class="st0" d="M27.1,104.4V104c0-3.9,0.4-7.6,1-11.3v-0.4l-0.4-0.2c-3.5-1.4-6.8-3.1-10.2-4.9L17.2,87L17,87.4
		c-2.1,4.3-3.9,9-5.5,13.7l-0.2,0.4l0.4,0.2c4.9,1.4,9.8,2.3,14.9,2.7L27.1,104.4z"/>
	<path class="st0" d="M37.3,37.6C37.3,37.4,37.3,37.4,37.3,37.6c-2.9,0-5.7,0.2-8.6,0.4c0.4,2.9,0.8,5.7,1.6,8.6
		C32.2,43.3,34.6,40.1,37.3,37.6z"/>
	<path class="st0" d="M27.1,107.9v-0.4h-0.4c-4.1-0.4-8.4-1.2-12.7-2.1l-1.2-0.2l0.6,1c3.7,5.7,8.4,10.7,13.9,15.2l0.8,0.8l0-1.4
		C27.5,116.3,27.1,112,27.1,107.9z"/>
	<path class="st0" d="M47.6,6.9c-5.1,1.8-10,4.1-14.5,7c3.3,0.6,6.6,1.4,10,2.3C44.5,13.2,45.9,10,47.6,6.9z"/>
	<path class="st0" d="M68.9,3.4c-2.5,0-5.1,0.2-7.4,0.4c3.5,2.3,6.8,5.1,10,8l2.5,2.3l-2.5,2.5c-2.1,2-4.3,4.3-6.3,6.6v0.2
		c0,0-0.4,0.4-1,1.2c1.6-0.2,3.1-0.2,4.7-0.2c24.8,0,44.9,20.1,44.9,44.9s-20.1,44.9-44.9,44.9c-8.6,0-16.6-2.3-23.5-6.6
		c-3.3,0.4-6.8,0.6-10.2,0.6c-1.6,0-3.1,0-4.7-0.2c0.2,5.1,0.6,10.4,1.4,15.8c10.6,7.2,23.3,11.3,36.9,11.3
		c36.5,0,66.1-29.5,66.1-66.1C135,32.9,105.5,3.4,68.9,3.4z"/>
	<path class="st0" d="M60.2,19c1.4-1.6,2.7-3.1,4.1-4.5c-3.1-2.5-6.4-5.1-9.8-7.2c-2.1,3.5-3.9,7.2-5.5,10.9
		c2.9,1.2,5.9,2.3,8.8,3.7C59,20.4,60,19.2,60.2,19z"/>
	<path class="st0" d="M15.4,56.7l0.2,0.4l0.4-0.2c3.1-2.1,6.3-4.3,9.6-6.1l0.4-0.2v-0.4c-1-3.7-1.8-7.6-2.1-11.5v-0.4h-0.4
		c-4.9,1-9.8,2.1-14.3,3.9l-0.4,0.2L9,42.9C10.3,47.6,12.7,52.3,15.4,56.7z"/>
	<path class="st0" d="M14.6,63l-0.4,0.4c-3.5,2.9-6.8,6.1-10,9.6l-0.4,0.4l0.4,0.4c3.5,2.9,7,5.7,10.9,8.2l0.4,0.2l0.2-0.4
		c1.8-3.1,3.7-6.1,5.9-9l0.2-0.4l-0.2-0.2c-2.3-2.7-4.7-5.5-6.8-8.6L14.6,63z"/>
	<path class="st0" d="M40.6,104.6h1.2l-1-0.8c-3.5-2.9-6.6-6.3-9-10.2v-0.2L31,93.1v0.6c-0.4,3.3-0.8,6.8-0.8,10.4v0.4h0.4
		c1.6,0,3.1,0.2,4.7,0.2C37.1,104.8,38.9,104.8,40.6,104.6z"/>
	<path class="st0" d="M38.5,31.7c0.8-3.3,1.6-6.4,2.7-9.6c-4.1-1.2-8.4-2.1-12.7-2.7c-0.4,4.3-0.4,8.6-0.2,12.9
		C31.6,31.9,34.9,31.7,38.5,31.7z"/>
	<path class="st0" d="M44.7,31.5c2.9-1.8,6.1-3.3,9.2-4.5c-2.3-1.2-4.7-2.1-7-2.9C46.1,26.5,45.3,29,44.7,31.5z"/>
	<path class="st0" d="M14,85.1l-0.4-0.2c-3.3-2.1-6.6-4.5-9.8-7l-1-0.8l0.2,1.2c0.8,6.3,2.5,12.5,5.3,18.4l0.4,1l0.4-1
		c1.4-3.7,2.9-7.4,4.7-10.9L14,85.1z"/>
	<path class="st0" d="M22.4,22.5c-3.9,3.9-7.4,8.4-10.2,13.1c3.3-1,6.8-1.8,10.4-2.5C22.4,29.6,22.4,26.1,22.4,22.5z"/>
	<path class="st0" d="M24.4,68.9v-1.2c0.2-4.1,0.8-8,2-11.7l0.4-1.2l-1,0.6c-2.5,1.6-5.1,3.1-7.6,4.9l-0.4,0.2l0.6,0.4
		c1.8,2.3,3.5,4.9,5.5,7L24.4,68.9z"/>
	<path class="st0" d="M25,75.7l-0.2-1.2l-0.6,1c-1.8,2.5-3.5,5.3-5.1,8l-0.2,0.4l0.4,0.2c2.7,1.6,5.7,2.9,8.6,4.3l1,0.4l-0.4-1
		C26.7,83.9,25.6,79.8,25,75.7z"/>
	<path class="st0" d="M12.1,59.9l0.4-0.2l-0.2-0.4c-2.1-3.3-3.9-6.8-5.7-10.4l-0.4-1l-0.4,1.2c-2,6.1-2.9,12.1-3.1,18.6v1.2l0.8-0.8
		C6,65,9,62.2,12.1,59.9z"/>
</g>
</svg>
