<!-- Copyright 2000-2025 JetBrains s.r.o. and contributors. Use of this source code is governed by the Apache 2.0 license. -->
<svg xmlns="http://www.w3.org/2000/svg" width="16" height="16" data-name="Layer 1"><path fill="#ced0d6" d="M12 10a2 2 0 0 0-.654.118L9.615 7.521A2.99 2.99 0 0 0 11 5a3 3 0 1 0-6 0 2.99 2.99 0 0 0 1.385 2.521l-1.731 2.597A1.993 1.993 0 0 0 4.001 10a2 2 0 1 0 2 2c0-.512-.198-.974-.514-1.328l1.837-2.756c.218.051.443.083.677.083s.459-.033.677-.083l1.837 2.756a1.987 1.987 0 0 0-.514 1.327 2 2 0 1 0 2-2Zm-8 3c-.551 0-1-.449-1-1s.449-1 1-1 1 .449 1 1-.449 1-1 1Zm2-8c0-1.103.897-2 2-2s2 .897 2 2-.897 2-2 2-2-.897-2-2Zm6 8c-.551 0-1-.449-1-1s.449-1 1-1 1 .449 1 1-.449 1-1 1Z"/></svg>