<!-- Copyright 2000-2024 JetBrains s.r.o. and contributors. Use of this source code is governed by the Apache 2.0 license. -->
<svg width="16" height="16" viewBox="0 0 16 16" fill="none" xmlns="http://www.w3.org/2000/svg">
  <path d="M9.14535 3.14742C8.95009 3.34269 8.95009 3.65927 9.14535 3.85453L12.2916 7.00074L2.49805 7.00074C2.2219 7.00074 1.99805 7.2246 1.99805 7.50074C1.99805 7.77688 2.2219 8.00074 2.49805 8.00074L12.292 8.00074L9.14535 11.1474C8.95008 11.3427 8.95008 11.6593 9.14535 11.8545C9.34061 12.0498 9.65719 12.0498 9.85245 11.8545L13.8525 7.85453C13.9462 7.76076 13.9989 7.63359 13.9989 7.50098C13.9989 7.36837 13.9462 7.24119 13.8525 7.14742L9.85245 3.14742C9.65719 2.95216 9.34061 2.95216 9.14535 3.14742Z" fill="#3574F0"/>
</svg>
