<!-- Copyright 2000-2024 JetBrains s.r.o. and contributors. Use of this source code is governed by the Apache 2.0 license. -->
<svg width="16" height="16" viewBox="0 0 16 16" fill="none" xmlns="http://www.w3.org/2000/svg">
  <path d="M6.8516 3.14742C7.04686 3.34269 7.04686 3.65927 6.8516 3.85453L3.70539 7.00074L13.4989 7.00074C13.775 7.00074 13.9989 7.2246 13.9989 7.50074C13.9989 7.77688 13.775 8.00074 13.4989 8.00074L3.70491 8.00074L6.8516 11.1474C7.04686 11.3427 7.04686 11.6593 6.8516 11.8545C6.65634 12.0498 6.33976 12.0498 6.1445 11.8545L2.14449 7.85453C2.05073 7.76076 1.99805 7.63359 1.99805 7.50098C1.99805 7.36837 2.05073 7.24119 2.14449 7.14742L6.1445 3.14742C6.33976 2.95216 6.65634 2.95216 6.8516 3.14742Z" fill="#57965C"/>
</svg>
