<!-- Copyright 2000-2022 JetBrains s.r.o. and contributors. Use of this source code is governed by the Apache 2.0 license. -->
<svg width="12" height="12" viewBox="0 0 12 12" fill="none" xmlns="http://www.w3.org/2000/svg">
<path d="M2.72934 8.98247C3.08566 9.33878 3.5787 9.32635 3.95573 8.94932L7.08385 5.8212L7.7509 5.08785L7.65975 6.07394V7.48263C7.65561 7.70222 7.70118 7.92181 7.88763 8.10825C8.20665 8.42728 8.68727 8.43556 9.02701 8.09582C9.18445 7.93838 9.27146 7.72707 9.26732 7.48263L9.27146 3.31871C9.27146 3.10326 9.16788 2.8671 9.00629 2.70551C8.84471 2.54393 8.6044 2.4362 8.3931 2.44035L4.22918 2.44449C3.98887 2.44449 3.77343 2.52735 3.61599 2.6848C3.27624 3.02454 3.28453 3.50515 3.60356 3.82418C3.79 4.01062 4.00959 4.0562 4.23332 4.0562L5.63373 4.04791L6.61981 3.95676L5.88646 4.62382L2.75834 7.75193C2.38131 8.12897 2.36888 8.62201 2.72934 8.98247Z" fill="#5FAD65"/>
</svg>
