<!-- Copyright 2000-2022 JetBrains s.r.o. and contributors. Use of this source code is governed by the Apache 2.0 license. -->
<svg width="16" height="16" viewBox="0 0 16 16" fill="none" xmlns="http://www.w3.org/2000/svg">
<path fill-rule="evenodd" clip-rule="evenodd" d="M6.5 11C6.5 12.1046 5.60457 13 4.5 13C3.39543 13 2.5 12.1046 2.5 11C2.5 9.89543 3.39543 9 4.5 9C5.60457 9 6.5 9.89543 6.5 11ZM4.5 14C6.15685 14 7.5 12.6569 7.5 11C7.5 9.34315 6.15685 8 4.5 8C2.84315 8 1.5 9.34315 1.5 11C1.5 12.6569 2.84315 14 4.5 14ZM13.5 11C13.5 12.1046 12.6046 13 11.5 13C10.3954 13 9.5 12.1046 9.5 11C9.5 9.89543 10.3954 9 11.5 9C12.6046 9 13.5 9.89543 13.5 11ZM11.5 14C13.1569 14 14.5 12.6569 14.5 11C14.5 9.34315 13.1569 8 11.5 8C9.84315 8 8.5 9.34315 8.5 11C8.5 12.6569 9.84315 14 11.5 14Z" fill="#CED0D6"/>
<path fill-rule="evenodd" clip-rule="evenodd" d="M11.8537 1.14647C11.7934 1.08617 11.7216 1.04449 11.6453 1.02143C11.5869 1.00372 11.5244 0.996452 11.46 1.00164L11.4585 1.00175L11.4577 1.00183C8.89299 1.21581 7.10682 2.51359 5.92996 4.03112C4.76214 5.53699 4.18349 7.26955 4.00588 8.424C3.9639 8.69693 4.15111 8.95222 4.42404 8.99421C4.69697 9.0362 4.95227 8.84899 4.99426 8.57606C5.14998 7.56384 5.67133 5.9964 6.72018 4.64394C7.43375 3.72381 8.38624 2.9082 9.6361 2.42686L10.8329 1.87283L10.1507 2.48553C9.63716 3.45813 9.48624 4.482 9.53842 5.42758C9.61459 6.8079 10.1221 8.0385 10.5761 8.76503C10.7225 8.9992 11.031 9.07038 11.2651 8.92403C11.4993 8.77767 11.5705 8.4692 11.4241 8.23503C11.0449 7.62822 10.6024 6.55883 10.5369 5.37248C10.4723 4.20114 10.7737 2.93361 11.8537 1.85358C12.049 1.65832 12.049 1.34174 11.8537 1.14647Z" fill="#CED0D6"/>
</svg>
