<!-- Copyright 2000-2023 JetBrains s.r.o. and contributors. Use of this source code is governed by the Apache 2.0 license. -->
<svg width="16" height="16" viewBox="0 0 16 16" fill="none" xmlns="http://www.w3.org/2000/svg">
<path fill-rule="evenodd" clip-rule="evenodd" d="M8.99473 1.91396C8.68314 1.86945 8.36877 1.97424 8.1462 2.19681L1.70695 8.63614C1.31643 9.02666 1.31643 9.65982 1.70696 10.0503L5.9496 14.293C6.34012 14.6835 6.97329 14.6835 7.36381 14.293L13.8031 7.85366C14.0256 7.63109 14.1304 7.31672 14.0859 7.00513L13.5556 3.29282C13.4927 2.85284 13.147 2.50714 12.707 2.44429L8.99473 1.91396ZM10.5 6.50001C11.0523 6.50001 11.5 6.05229 11.5 5.50001C11.5 4.94772 11.0523 4.50001 10.5 4.50001C9.9477 4.50001 9.49998 4.94772 9.49998 5.50001C9.49998 6.05229 9.9477 6.50001 10.5 6.50001Z" fill="#F2C55C"/>
</svg>
