<!-- Copyright 2000-2023 JetBrains s.r.o. and contributors. Use of this source code is governed by the Apache 2.0 license. -->
<svg width="16" height="16" viewBox="0 0 16 16" fill="none" xmlns="http://www.w3.org/2000/svg">
<path fill-rule="evenodd" clip-rule="evenodd" d="M1.29497 8.705L7.70708 2.29289C7.89461 2.10536 8.14897 2 8.41418 2H13C13.5523 2 14 2.44772 14 3V7.58579C14 7.851 13.8946 8.10536 13.7071 8.29289L7.29497 14.705C6.90444 15.0955 6.27128 15.0955 5.88075 14.705L1.29497 10.1192C0.904444 9.72869 0.904444 9.09553 1.29497 8.705ZM11 6C11 6.55228 10.5523 7 10 7C9.44771 7 9 6.55228 9 6C9 5.44772 9.44771 5 10 5C10.5523 5 11 5.44772 11 6Z" fill="#F2C55C"/>
</svg>
