<!-- Copyright 2000-2022 JetBrains s.r.o. and contributors. Use of this source code is governed by the Apache 2.0 license. -->
<svg width="16" height="16" viewBox="0 0 16 16" fill="none" xmlns="http://www.w3.org/2000/svg">
<path fill-rule="evenodd" clip-rule="evenodd" d="M8.99476 1.91387C8.68317 1.86936 8.3688 1.97415 8.14623 2.19672L1.70698 8.63604C1.31646 9.02657 1.31646 9.65973 1.70699 10.0503L5.94963 14.2929C6.34015 14.6834 6.97332 14.6834 7.36384 14.2929L13.8031 7.85356C14.0257 7.631 14.1304 7.31663 14.0859 7.00504L13.5556 3.29273C13.4927 2.85275 13.147 2.50705 12.7071 2.4442L8.99476 1.91387ZM10.5 6.49991C11.0523 6.49991 11.5 6.0522 11.5 5.49991C11.5 4.94763 11.0523 4.49991 10.5 4.49991C9.94773 4.49991 9.50001 4.94763 9.50001 5.49991C9.50001 6.0522 9.94773 6.49991 10.5 6.49991Z" fill="#F2C55C"/>
</svg>
