<!-- Copyright 2000-2021 JetBrains s.r.o. and contributors. Use of this source code is governed by the Apache 2.0 license that can be found in the LICENSE file. -->
<svg width="16" height="16" viewBox="0 0 16 16" fill="none" xmlns="http://www.w3.org/2000/svg">
<path fill-rule="evenodd" clip-rule="evenodd" d="M5.85355 7.14645C5.65829 6.95118 5.34171 6.95118 5.14645 7.14645C4.95118 7.34171 4.95118 7.65829 5.14645 7.85355L7.29289 10H0.5C0.223858 10 0 10.2239 0 10.5C0 10.7761 0.223858 11 0.5 11H7.29289L5.14645 13.1464C4.95118 13.3417 4.95118 13.6583 5.14645 13.8536C5.34171 14.0488 5.65829 14.0488 5.85355 13.8536L8.85355 10.8536L9.20711 10.5L8.85355 10.1464L5.85355 7.14645Z" fill="#CED0D6"/>
<path fill-rule="evenodd" clip-rule="evenodd" d="M10.1464 2.14645C10.3417 1.95118 10.6583 1.95118 10.8536 2.14645C11.0488 2.34171 11.0488 2.65829 10.8536 2.85355L8.70711 5H15.5C15.7761 5 16 5.22386 16 5.5C16 5.77614 15.7761 6 15.5 6H8.70711L10.8536 8.14645C11.0488 8.34171 11.0488 8.65829 10.8536 8.85355C10.6583 9.04882 10.3417 9.04882 10.1464 8.85355L7.14645 5.85355L6.79289 5.5L7.14645 5.14645L10.1464 2.14645Z" fill="#CED0D6"/>
</svg>
