<!-- Copyright 2000-2023 JetBrains s.r.o. and contributors. Use of this source code is governed by the Apache 2.0 license. -->
<svg width="20" height="20" viewBox="0 0 20 20" fill="none" xmlns="http://www.w3.org/2000/svg">
<path d="M14.8536 5.14645C15.0488 5.34171 15.0488 5.65829 14.8536 5.85355L13.4393 7.26777C13.2441 7.46303 12.9275 7.46303 12.7322 7.26777C12.537 7.0725 12.537 6.75592 12.7322 6.56066L14.1464 5.14645C14.3417 4.95118 14.6583 4.95118 14.8536 5.14645Z" fill="#CED0D6"/>
<path d="M12.0251 7.97487C12.2204 8.17014 12.2204 8.48672 12.0251 8.68198L10.6109 10.0962C10.4157 10.2915 10.0991 10.2915 9.90381 10.0962C9.70854 9.90093 9.70854 9.58435 9.90381 9.38909L11.318 7.97487C11.5133 7.77961 11.8299 7.77961 12.0251 7.97487Z" fill="#CED0D6"/>
<path d="M9.1967 10.8033C9.39196 10.9986 9.39196 11.3151 9.1967 11.5104L7.78249 12.9246C7.58722 13.1199 7.27064 13.1199 7.07538 12.9246C6.88012 12.7294 6.88012 12.4128 7.07538 12.2175L8.48959 10.8033C8.68485 10.608 9.00144 10.608 9.1967 10.8033Z" fill="#CED0D6"/>
<path d="M5.5 7C5.77614 7 6 7.22386 6 7.5V9.5C6 9.77614 5.77614 10 5.5 10C5.22386 10 5 9.77614 5 9.5V7.5C5 7.22386 5.22386 7 5.5 7Z" fill="#CED0D6"/>
<path d="M5.5 11C5.77614 11 6 11.2239 6 11.5V14H8.5C8.77614 14 9 14.2239 9 14.5C9 14.7761 8.77614 15 8.5 15H5.5C5.22386 15 5 14.7761 5 14.5V11.5C5 11.2239 5.22386 11 5.5 11Z" fill="#CED0D6"/>
<path d="M10 14.5C10 14.2239 10.2239 14 10.5 14H12.5C12.7761 14 13 14.2239 13 14.5C13 14.7761 12.7761 15 12.5 15H10.5C10.2239 15 10 14.7761 10 14.5Z" fill="#CED0D6"/>
</svg>
