<!-- Copyright 2000-2025 JetBrains s.r.o. and contributors. Use of this source code is governed by the Apache 2.0 license. -->
<svg width="20" height="20" viewBox="0 0 20 20" fill="none" xmlns="http://www.w3.org/2000/svg">
<path d="M4.75 11.0001C5.16419 11.0002 5.5 11.3359 5.5 11.7501V14.5001H8.25C8.66419 14.5002 9 14.8359 9 15.2501C8.99993 15.6643 8.66414 16.0001 8.25 16.0001H4.75C4.33583 16.0001 4.00007 15.6643 4 15.2501V11.7501C4 11.3359 4.33579 11.0001 4.75 11.0001Z" fill="#6C707E"/>
<path d="M13.25 14.5001C13.6642 14.5002 14 14.8359 14 15.2501C13.9999 15.6643 13.6641 16.0001 13.25 16.0001H10.75L10.6738 15.9962C10.2955 15.958 10.0001 15.6385 10 15.2501C10 14.8616 10.2954 14.5422 10.6738 14.504L10.75 14.5001H13.25Z" fill="#6C707E"/>
<path d="M8.58594 10.3536C8.87881 10.0608 9.3536 10.0608 9.64648 10.3536C9.93908 10.6465 9.93924 11.1214 9.64648 11.4142L8.06543 12.9952C7.77262 13.2879 7.29776 13.2878 7.00488 12.9952C6.71211 12.7024 6.71213 12.2276 7.00488 11.9347L8.58594 10.3536Z" fill="#6C707E"/>
<path d="M4.75 6.00012C5.16419 6.00015 5.5 6.33593 5.5 6.75012V9.25012C5.49993 9.66425 5.16414 10.0001 4.75 10.0001C4.33583 10.0001 4.00007 9.66427 4 9.25012V6.75012C4 6.33591 4.33579 6.00012 4.75 6.00012Z" fill="#6C707E"/>
<path d="M11.6191 7.38684C11.912 7.09405 12.3868 7.09414 12.6797 7.38684C12.9721 7.67975 12.9724 8.15463 12.6797 8.44738L11.4141 9.6466C11.1213 9.9393 10.6464 9.93918 10.3535 9.6466C10.0609 9.35373 10.0608 8.87889 10.3535 8.58606L11.6191 7.38684Z" fill="#6C707E"/>
<path d="M14.7197 4.21985C15.0126 3.92698 15.4874 3.92703 15.7803 4.21985C16.0729 4.51276 16.0731 4.98759 15.7803 5.28039L14.4141 6.6466C14.1213 6.9393 13.6464 6.93918 13.3535 6.6466C13.0607 6.35374 13.0608 5.87893 13.3535 5.58606L14.7197 4.21985Z" fill="#6C707E"/>
</svg>
