<!-- Copyright 2000-2022 JetBrains s.r.o. and contributors. Use of this source code is governed by the Apache 2.0 license. -->
<svg width="16" height="16" viewBox="0 0 16 16" fill="none" xmlns="http://www.w3.org/2000/svg">
<path fill-rule="evenodd" clip-rule="evenodd" d="M1.14645 10.6536C0.951185 10.4583 0.951185 10.1417 1.14645 9.94645C1.34171 9.75118 1.65829 9.75118 1.85355 9.94645L4 12.0929L4 2.5C4 2.22386 4.22386 2 4.5 2C4.77614 2 5 2.22386 5 2.5L5 12.0929L7.14645 9.94645C7.34171 9.75118 7.65829 9.75118 7.85355 9.94645C8.04882 10.1417 8.04882 10.4583 7.85355 10.6536L4.85355 13.6536L4.5 14.0071L4.14645 13.6536L1.14645 10.6536Z" fill="#CED0D6"/>
<path fill-rule="evenodd" clip-rule="evenodd" d="M11 2.5C11 2.22386 11.2239 2 11.5 2C11.7761 2 12 2.22386 12 2.5V3.5C12 3.52101 11.9987 3.54171 11.9962 3.56203C12.8607 3.78273 13.5 4.56671 13.5 5.5C13.5 6.43329 12.8607 7.21727 11.9962 7.43797C11.9987 7.45829 12 7.47899 12 7.5V8.5C12 8.52101 11.9987 8.54171 11.9962 8.56203C12.8607 8.78273 13.5 9.56671 13.5 10.5C13.5 11.4333 12.8607 12.2173 11.9962 12.438C11.9987 12.4583 12 12.479 12 12.5V13.5C12 13.7761 11.7761 14 11.5 14C11.2239 14 11 13.7761 11 13.5V12.5C11 12.479 11.0013 12.4583 11.0038 12.438C10.1393 12.2173 9.5 11.4333 9.5 10.5C9.5 9.56671 10.1393 8.78273 11.0038 8.56203C11.0013 8.54171 11 8.52101 11 8.5V7.5C11 7.47899 11.0013 7.45829 11.0038 7.43797C10.1393 7.21727 9.5 6.43329 9.5 5.5C9.5 4.56671 10.1393 3.78273 11.0038 3.56203C11.0013 3.54171 11 3.52101 11 3.5V2.5ZM11.5 6.5C12.0523 6.5 12.5 6.05228 12.5 5.5C12.5 4.94772 12.0523 4.5 11.5 4.5C10.9477 4.5 10.5 4.94772 10.5 5.5C10.5 6.05228 10.9477 6.5 11.5 6.5ZM12.5 10.5C12.5 11.0523 12.0523 11.5 11.5 11.5C10.9477 11.5 10.5 11.0523 10.5 10.5C10.5 9.94772 10.9477 9.5 11.5 9.5C12.0523 9.5 12.5 9.94772 12.5 10.5Z" fill="#CED0D6"/>
</svg>
