<!-- Copyright 2000-2022 JetBrains s.r.o. and contributors. Use of this source code is governed by the Apache 2.0 license. -->
<svg width="16" height="16" viewBox="0 0 16 16" fill="none" xmlns="http://www.w3.org/2000/svg">
<path fill-rule="evenodd" clip-rule="evenodd" d="M7.99998 1C7.72383 1 7.49998 1.22386 7.49998 1.5V5.5H3.5C3.22386 5.5 3 5.72386 3 6C3 6.27614 3.22386 6.5 3.5 6.5H7.49998V10.5C7.49998 10.7761 7.72383 11 7.99998 11C8.27612 11 8.49998 10.7761 8.49998 10.5V6.5H12.5C12.7761 6.5 13 6.27614 13 6C13 5.72386 12.7761 5.5 12.5 5.5H8.49998V1.5C8.49998 1.22386 8.27612 1 7.99998 1Z" fill="#6C707E"/>
<rect x="13" y="13" width="1" height="10" rx="0.5" transform="rotate(90 13 13)" fill="#6C707E"/>
</svg>
