<!-- Copyright 2000-2024 JetBrains s.r.o. and contributors. Use of this source code is governed by the Apache 2.0 license. -->
<svg width="16" height="16" viewBox="0 0 16 16" fill="none" xmlns="http://www.w3.org/2000/svg">
<path fill-rule="evenodd" clip-rule="evenodd" d="M5.85363 1.85355C6.04889 1.65829 6.04889 1.34171 5.85363 1.14645C5.65837 0.951184 5.34178 0.951184 5.14652 1.14645L1.64652 4.64645L1.29297 5L1.64652 5.35355L5.14652 8.85355C5.34178 9.04882 5.65837 9.04882 5.85363 8.85355C6.04889 8.65829 6.04889 8.34171 5.85363 8.14645L3.20718 5.5H10.5001C12.4331 5.5 14.0001 7.067 14.0001 9C14.0001 10.933 12.4331 12.5 10.5001 12.5H5.50008C5.22393 12.5 5.00008 12.7239 5.00008 13C5.00008 13.2761 5.22393 13.5 5.50008 13.5H10.5001C12.9854 13.5 15.0001 11.4853 15.0001 9C15.0001 6.51472 12.9854 4.5 10.5001 4.5H3.20718L5.85363 1.85355Z" fill="#CED0D6"/>
</svg>
