<!-- Copyright 2000-2021 JetBrains s.r.o. and contributors. Use of this source code is governed by the Apache 2.0 license that can be found in the LICENSE file. -->
<svg width="16" height="16" viewBox="0 0 16 16" fill="none" xmlns="http://www.w3.org/2000/svg">
<path fill-rule="evenodd" clip-rule="evenodd" d="M5.85363 1.35355C6.04889 1.15829 6.04889 0.841709 5.85363 0.646447C5.65837 0.451184 5.34178 0.451184 5.14652 0.646447L1.64652 4.14645L1.29297 4.5L1.64652 4.85355L5.14652 8.35355C5.34178 8.54882 5.65837 8.54882 5.85363 8.35355C6.04889 8.15829 6.04889 7.84171 5.85363 7.64645L3.20718 5H10.5001C12.4331 5 14.0001 6.567 14.0001 8.5C14.0001 10.433 12.4331 12 10.5001 12H6.50008C6.22393 12 6.00008 12.2239 6.00008 12.5C6.00008 12.7761 6.22393 13 6.50008 13H10.5001C12.9854 13 15.0001 10.9853 15.0001 8.5C15.0001 6.01472 12.9854 4 10.5001 4H3.20718L5.85363 1.35355Z" fill="#767A8A"/>
</svg>
