<!-- Copyright 2000-2022 JetBrains s.r.o. and contributors. Use of this source code is governed by the Apache 2.0 license. -->
<svg width="16" height="16" viewBox="0 0 16 16" fill="none" xmlns="http://www.w3.org/2000/svg">
<path d="M4.64645 5.14645C4.45118 5.34171 4.45118 5.65829 4.64645 5.85355L7.64645 8.85355C7.84171 9.04882 8.15829 9.04882 8.35355 8.85355L11.3536 5.85355C11.5488 5.65829 11.5488 5.34171 11.3536 5.14645C11.1583 4.95118 10.8417 4.95118 10.6464 5.14645L8.5 7.29289V1.5C8.5 1.22386 8.27614 1 8 1C7.72386 1 7.5 1.22386 7.5 1.5V7.29289L5.35355 5.14645C5.15829 4.95118 4.84171 4.95118 4.64645 5.14645Z" fill="#6C707E"/>
<path fill-rule="evenodd" clip-rule="evenodd" d="M4.77639 8.55279L5.5 10H10.5L11.2236 8.55279C11.393 8.214 11.7393 8 12.118 8H14C14.5523 8 15 8.44772 15 9V13C15 13.5523 14.5523 14 14 14H2C1.44772 14 1 13.5523 1 13V9C1 8.44772 1.44772 8 2 8H3.88197C4.26074 8 4.607 8.214 4.77639 8.55279ZM3.88197 9L4.88197 11H11.118L12.118 9H14V13H2V9H3.88197Z" fill="#6C707E"/>
</svg>
