<!-- Copyright 2000-2022 JetBrains s.r.o. and contributors. Use of this source code is governed by the Apache 2.0 license. -->
<svg width="16" height="16" viewBox="0 0 16 16" fill="none" xmlns="http://www.w3.org/2000/svg">
<path fill-rule="evenodd" clip-rule="evenodd" d="M4.64645 5.85355C4.45118 5.65829 4.45118 5.34171 4.64645 5.14645C4.84171 4.95118 5.15829 4.95118 5.35355 5.14645L7.5 7.29289L7.5 1.5C7.5 1.22386 7.72386 1 8 1C8.27614 1 8.5 1.22386 8.5 1.5L8.5 7.29289L10.6464 5.14645C10.8417 4.95118 11.1583 4.95118 11.3536 5.14645C11.5488 5.34171 11.5488 5.65829 11.3536 5.85355L8.35355 8.85355L8 9.20711L7.64645 8.85355L4.64645 5.85355Z" fill="#767A8A"/>
<path d="M5.55279 10.7236L5.69098 11H6H10H10.309L10.4472 10.7236L11.1708 9.27639C11.2555 9.107 11.4286 9 11.618 9H14C14.2761 9 14.5 9.22386 14.5 9.5V13C14.5 13.2761 14.2761 13.5 14 13.5H2C1.72386 13.5 1.5 13.2761 1.5 13V9.5C1.5 9.22386 1.72386 9 2 9H4.38197C4.57135 9 4.74448 9.107 4.82918 9.27639L5.55279 10.7236Z" stroke="#767A8A"/>
</svg>
