<!-- Copyright 2000-2022 JetBrains s.r.o. and contributors. Use of this source code is governed by the Apache 2.0 license. -->
<svg width="16" height="16" viewBox="0 0 16 16" fill="none" xmlns="http://www.w3.org/2000/svg">
<path d="M11.3536 4.85355C11.5488 4.65829 11.5488 4.34171 11.3536 4.14645L8.35355 1.14645C8.15829 0.951184 7.84171 0.951184 7.64645 1.14645L4.64645 4.14645C4.45118 4.34171 4.45118 4.65829 4.64645 4.85355C4.84171 5.04882 5.15829 5.04882 5.35355 4.85355L7.5 2.70711L7.5 8.5C7.5 8.77614 7.72386 9 8 9C8.27614 9 8.5 8.77614 8.5 8.5V2.70711L10.6464 4.85355C10.8417 5.04882 11.1583 5.04882 11.3536 4.85355Z" fill="#CED0D6"/>
<path fill-rule="evenodd" clip-rule="evenodd" d="M4.77639 8.55279L5.5 10H10.5L11.2236 8.55279C11.393 8.214 11.7393 8 12.118 8H14C14.5523 8 15 8.44772 15 9V13C15 13.5523 14.5523 14 14 14H2C1.44772 14 1 13.5523 1 13V9C1 8.44772 1.44772 8 2 8H3.88197C4.26074 8 4.607 8.214 4.77639 8.55279ZM4.60557 10.4472C4.77496 10.786 5.12123 11 5.5 11H10.5C10.8788 11 11.225 10.786 11.3944 10.4472L12.118 9H14V13H2V9H3.88197L4.60557 10.4472Z" fill="#CED0D6"/>
</svg>
