<!-- Copyright 2000-2023 JetBrains s.r.o. and contributors. Use of this source code is governed by the Apache 2.0 license. -->
<svg width="20" height="20" viewBox="0 0 20 20" fill="none" xmlns="http://www.w3.org/2000/svg">
<path fill-rule="evenodd" clip-rule="evenodd" d="M14.8536 5.85355C15.0488 5.65829 15.0488 5.34171 14.8536 5.14645C14.6583 4.95118 14.3417 4.95118 14.1464 5.14645L6 13.2929V7.5C6 7.22386 5.77614 7 5.5 7C5.22386 7 5 7.22386 5 7.5V14.5C5 14.5683 5.01368 14.6333 5.03844 14.6926C5.06171 14.7484 5.09556 14.8009 5.13998 14.847C5.14425 14.8514 5.1486 14.8557 5.15303 14.86C5.24295 14.9467 5.36525 15 5.5 15H12.5C12.7761 15 13 14.7761 13 14.5C13 14.2239 12.7761 14 12.5 14H6.70711L14.8536 5.85355Z" fill="#6C707E"/>
</svg>
