<!-- Copyright 2000-2024 JetBrains s.r.o. and contributors. Use of this source code is governed by the Apache 2.0 license. -->
<svg width="16" height="16" viewBox="0 0 16 16" fill="none" xmlns="http://www.w3.org/2000/svg">
<path fill-rule="evenodd" clip-rule="evenodd" d="M12.8536 3.85355C13.0488 3.65829 13.0488 3.34171 12.8536 3.14645C12.6583 2.95118 12.3417 2.95118 12.1464 3.14645L4 11.2929V5.5C4 5.22386 3.77614 5 3.5 5C3.22386 5 3 5.22386 3 5.5V12.5C3 12.5683 3.01368 12.6333 3.03844 12.6926C3.06171 12.7484 3.09556 12.8009 3.13998 12.847C3.14425 12.8514 3.1486 12.8557 3.15303 12.86C3.24295 12.9467 3.36525 13 3.5 13H10.5C10.7761 13 11 12.7761 11 12.5C11 12.2239 10.7761 12 10.5 12H4.70711L12.8536 3.85355Z" fill="#CED0D6"/>
</svg>
