<svg width="100%" height="100%" viewBox="0 0 20 20" fill="none" xmlns="http://www.w3.org/2000/svg">
    <rect x="3" y="3" width="14" height="14" rx="2" fill="#2B2D30"/>
    <path fill-rule="evenodd" clip-rule="evenodd" d="M4.444,2.222c-1.227,0 -2.222,0.995 -2.222,2.222l0,11.112c0,1.227 0.995,2.222 2.222,2.222l11.112,-0c1.227,-0 2.222,-0.995 2.222,-2.222l-0,-11.112c-0,-1.227 -0.995,-2.222 -2.222,-2.222l-11.112,0Zm0,1.111c-0.613,0 -1.111,0.498 -1.111,1.111l0,11.112c0,0.613 0.498,1.111 1.111,1.111l11.112,-0c0.613,-0 1.111,-0.498 1.111,-1.111l-0,-11.112c-0,-0.613 -0.498,-1.111 -1.111,-1.111l-11.112,0Z" fill="#6f737a"/>
</svg>
