<!-- Copyright 2000-2022 JetBrains s.r.o. and contributors. Use of this source code is governed by the Apache 2.0 license. -->
<svg width="16" height="16" viewBox="0 0 16 16" fill="none" xmlns="http://www.w3.org/2000/svg">
<path fill-rule="evenodd" clip-rule="evenodd" d="M3 2C1.89543 2 1 2.89543 1 4V12C1 13.1046 1.89543 14 3 14H10L11 9H15V4C15 2.89543 14.1046 2 13 2H3Z" fill="#EBECF0"/>
<path fill-rule="evenodd" clip-rule="evenodd" d="M3 3H13C13.5523 3 14 3.44772 14 4V9H15V4C15 2.89543 14.1046 2 13 2H3C1.89543 2 1 2.89543 1 4V12C1 13.1046 1.89543 14 3 14H10L10.2 13H3C2.44772 13 2 12.5523 2 12V4C2 3.44772 2.44772 3 3 3Z" fill="#6C707E"/>
<path d="M2 5.5H14.5" stroke="#6C707E" stroke-linecap="round"/>
<path d="M10.6464 15.1464C10.4512 15.3417 10.4512 15.6583 10.6464 15.8536C10.8417 16.0488 11.1583 16.0488 11.3536 15.8536L10.6464 15.1464ZM11.3536 15.8536L15.8536 11.3536L15.1464 10.6464L10.6464 15.1464L11.3536 15.8536Z" fill="#3574F0"/>
<path d="M15.5 11H16C16 10.7239 15.7761 10.5 15.5 10.5V11ZM12.5 10.5C12.2239 10.5 12 10.7239 12 11C12 11.2761 12.2239 11.5 12.5 11.5V10.5ZM15 14C15 14.2761 15.2239 14.5 15.5 14.5C15.7761 14.5 16 14.2761 16 14H15ZM15.5 10.5H12.5V11.5H15.5V10.5ZM15 11V14H16V11H15Z" fill="#3574F0"/>
</svg>
