<!-- Copyright 2000-2023 JetBrains s.r.o. and contributors. Use of this source code is governed by the Apache 2.0 license. -->
<svg width="16" height="16" viewBox="0 0 16 16" fill="none" xmlns="http://www.w3.org/2000/svg">
<g clip-path="url(#clip0_2772_38568)">
<path d="M3 2C1.89543 2 1 2.89543 1 4V12C1 13.1046 1.89543 14 3 14H10.8787L11.9736 12.905C11.4048 12.6919 11 12.1432 11 11.5C11 10.6716 11.6716 10 12.5 10H15V4C15 2.89543 14.1046 2 13 2H3Z" fill="#43454A"/>
<path d="M3 3H13C13.5523 3 14 3.44772 14 4V10H15V4C15 2.89543 14.1046 2 13 2H3C1.89543 2 1 2.89543 1 4V12C1 13.1046 1.89543 14 3 14H10.8787L11.8787 13H3C2.44772 13 2 12.5523 2 12V4C2 3.44772 2.44772 3 3 3Z" fill="#CED0D6"/>
<path d="M4 5.5H5" stroke="#CED0D6" stroke-linecap="round"/>
<path d="M7 5.5H8" stroke="#CED0D6" stroke-linecap="round"/>
<path fill-rule="evenodd" clip-rule="evenodd" d="M12.5 11C12.2239 11 12 11.2239 12 11.5C12 11.7761 12.2239 12 12.5 12H14.2929L11.1464 15.1464C10.9512 15.3417 10.9512 15.6583 11.1464 15.8535C11.3417 16.0488 11.6583 16.0488 11.8536 15.8535L15 12.7071V14.5C15 14.7761 15.2239 15 15.5 15C15.7761 15 16 14.7761 16 14.5V11.5C16 11.2239 15.7761 11 15.5 11H12.5Z" fill="#548AF7"/>
</g>
<defs>
<clipPath id="clip0_2772_38568">
<rect width="16" height="16" fill="white"/>
</clipPath>
</defs>
</svg>
