<!-- Copyright 2000-2022 JetBrains s.r.o. and contributors. Use of this source code is governed by the Apache 2.0 license. -->
<svg width="16" height="16" viewBox="0 0 16 16" fill="none" xmlns="http://www.w3.org/2000/svg">
<g clip-path="url(#clip0_2344_33411)">
<path fill-rule="evenodd" clip-rule="evenodd" d="M1 3.86667C1 2.83574 1.7835 2 2.75 2H6.03823C6.29871 2 6.5489 2.10163 6.73559 2.28327L8.5 4L13 4C14.1046 4 15 4.89543 15 6V9.64986C13.7064 8.9418 11.7984 7.90494 10.9432 7.44046C10.6513 7.28194 10.3261 7.19989 9.99394 7.19989C8.89276 7.19989 8.00008 8.09179 8.00008 9.19297L8.00008 14H2.75C1.7835 14 1 13.1643 1 12.1333V3.86667Z" fill="#EBECF0"/>
<path fill-rule="evenodd" clip-rule="evenodd" d="M7.80265 4.71673L8.09379 5H8.5H13C13.5523 5 14 5.44772 14 6V9.10371C14.353 9.29625 14.6937 9.48232 15 9.64996V6C15 4.89543 14.1046 4 13 4L8.5 4L6.73559 2.28327C6.5489 2.10163 6.29871 2 6.03823 2H2.75C1.7835 2 1 2.83574 1 3.86667V12.1333C1 13.1643 1.7835 14 2.75 14H8L8 13H2.75C2.3956 13 2 12.6738 2 12.1333V3.86667C2 3.32624 2.3956 3 2.75 3H6.03823L7.80265 4.71673Z" fill="#6C707E"/>
<path d="M15.4412 11.513C15.8571 11.7379 15.8615 12.3331 15.4491 12.5642L10.3933 15.397C9.99333 15.6211 9.5 15.332 9.5 14.8736L9.5 9.30673C9.5 8.85225 9.98564 8.56277 10.3854 8.77896L15.4412 11.513Z" fill="#DFF2E0" stroke="#5FB865" stroke-linecap="round"/>
</g>
<defs>
<clipPath id="clip0_2344_33411">
<rect width="16" height="16" fill="white"/>
</clipPath>
</defs>
</svg>
