<!-- Copyright 2000-2022 JetBrains s.r.o. and contributors. Use of this source code is governed by the Apache 2.0 license. -->
<svg width="16" height="16" viewBox="0 0 16 16" fill="none" xmlns="http://www.w3.org/2000/svg">
<g clip-path="url(#clip0_2344_33430)">
<path fill-rule="evenodd" clip-rule="evenodd" d="M1 3.86667C1 2.83574 1.7835 2 2.75 2H6.03823C6.29871 2 6.5489 2.10163 6.73559 2.28327L8.5 4L13 4C14.1046 4 15 4.89543 15 6V9.64986C13.7064 8.9418 11.7984 7.90494 10.9432 7.44046C10.6513 7.28194 10.3261 7.19989 9.99394 7.19989C8.89276 7.19989 8.00008 8.09179 8.00008 9.19297L8.00008 14H2.75C1.7835 14 1 13.1643 1 12.1333V3.86667Z" fill="#43454A"/>
<path fill-rule="evenodd" clip-rule="evenodd" d="M7.80265 4.71673L8.09379 5H8.5H13C13.5523 5 14 5.44772 14 6V9.10371C14.353 9.29625 14.6937 9.48232 15 9.64996V6C15 4.89543 14.1046 4 13 4L8.5 4L6.73559 2.28327C6.5489 2.10163 6.29871 2 6.03823 2H2.75C1.7835 2 1 2.83574 1 3.86667V12.1333C1 13.1643 1.7835 14 2.75 14H8L8 13H2.75C2.3956 13 2 12.6738 2 12.1333V3.86667C2 3.32624 2.3956 3 2.75 3H6.03823L7.80265 4.71673Z" fill="#CED0D6"/>
<path d="M15.601 11.5994C15.9476 11.7869 15.9513 12.2829 15.6075 12.4755L10.2444 15.4804C9.91111 15.6672 9.5 15.4263 9.5 15.0442L9.5 9.13896C9.5 8.76023 9.9047 8.519 10.2378 8.69915L15.601 11.5994Z" fill="#375239" stroke="#57965C"/>
</g>
<defs>
<clipPath id="clip0_2344_33430">
<rect width="16" height="16" fill="white"/>
</clipPath>
</defs>
</svg>
