<!-- Copyright 2000-2023 JetBrains s.r.o. and contributors. Use of this source code is governed by the Apache 2.0 license. -->
<svg width="16" height="16" viewBox="0 0 16 16" fill="none" xmlns="http://www.w3.org/2000/svg">
<path fill-rule="evenodd" clip-rule="evenodd" d="M16 12.5C16 14.433 14.433 16 12.5 16C10.567 16 9 14.433 9 12.5C9 10.567 10.567 9 12.5 9C14.433 9 16 10.567 16 12.5ZM15 12.5C15 13.8807 13.8807 15 12.5 15C11.9905 15 11.5165 14.8476 11.1213 14.5858L14.5858 11.1213C14.8476 11.5165 15 11.9905 15 12.5ZM10.4142 13.8787L13.8787 10.4142C13.4835 10.1524 13.0096 10 12.5 10C11.1193 10 10 11.1193 10 12.5C10 13.0096 10.1524 13.4835 10.4142 13.8787Z" fill="#CED0D6"/>
<path d="M14.9621 8.73269C14.9872 8.49188 15 8.24744 15 8C15 4.13401 11.866 1 8 1C4.13401 1 1 4.13401 1 8C1 11.866 4.13401 15 8 15C8.24744 15 8.49188 14.9872 8.73269 14.9621C8.2694 14.2547 8 13.4088 8 12.5C8 10.0147 10.0147 8 12.5 8C13.4088 8 14.2547 8.2694 14.9621 8.73269Z" fill="#402929"/>
<path d="M14.9621 8.73269C14.9872 8.49188 15 8.24744 15 8C15 4.13401 11.866 1 8 1C4.13401 1 1 4.13401 1 8C1 11.866 4.13401 15 8 15C8.24744 15 8.49188 14.9872 8.73269 14.9621C8.53652 14.6626 8.37511 14.3382 8.25419 13.9947C8.1699 13.9982 8.08516 14 8 14C4.68629 14 2 11.3137 2 8C2 4.68629 4.68629 2 8 2C11.3137 2 14 4.68629 14 8C14 8.08516 13.9982 8.1699 13.9947 8.25419C14.3382 8.37511 14.6626 8.53652 14.9621 8.73269Z" fill="#DB5C5C"/>
<path d="M8.49409 10.4479V7.58989C8.49409 6.68056 9.01971 6.10763 9.82392 6.10763C10.5756 6.10763 11.0013 6.61748 11.0013 7.43746V8.25559C11.3193 8.1433 11.6537 8.06574 12 8.02746V7.35861C12 6.07084 11.2168 5.24561 10.0657 5.24561C9.25361 5.24561 8.636 5.64718 8.29593 6.31525C8.00368 5.64245 7.40552 5.24561 6.6071 5.24561C5.84915 5.24561 5.28147 5.60934 4.96189 6.2485V5.37176H4V10.7541H4.99869V7.58989C4.99869 6.68056 5.5138 6.10763 6.32852 6.10763C7.0749 6.10763 7.50591 6.61748 7.50591 7.43746V10.7541H8.35121C8.39508 10.65 8.44277 10.5479 8.49409 10.4479Z" fill="#DB5C5C"/>
</svg>
