<!-- Copyright 2000-2022 JetBrains s.r.o. and contributors. Use of this source code is governed by the Apache 2.0 license. -->
<svg width="16" height="16" viewBox="0 0 16 16" fill="none" xmlns="http://www.w3.org/2000/svg">
<path d="M15.1464 0.146447C15.3417 -0.0488155 15.6583 -0.0488155 15.8536 0.146447C16.0488 0.341709 16.0488 0.658291 15.8536 0.853553L10.9038 5.8033C10.7085 5.99856 10.392 5.99856 10.1967 5.8033C10.0014 5.60804 10.0014 5.29146 10.1967 5.09619L15.1464 0.146447Z" fill="#DB5C5C"/>
<path d="M10.1464 0.146447C10.3417 -0.0488155 10.6583 -0.0488155 10.8536 0.146447L15.8033 5.09619C15.9986 5.29146 15.9986 5.60804 15.8033 5.8033C15.608 5.99856 15.2915 5.99856 15.0962 5.8033L10.1464 0.853553C9.95118 0.658291 9.95118 0.341709 10.1464 0.146447Z" fill="#DB5C5C"/>
</svg>
