<!-- Copyright 2000-2022 JetBrains s.r.o. and contributors. Use of this source code is governed by the Apache 2.0 license. -->
<svg width="16" height="16" viewBox="0 0 16 16" fill="none" xmlns="http://www.w3.org/2000/svg">
<path fill-rule="evenodd" clip-rule="evenodd" d="M2 2H10L12.293 2.60598L9.5 5V7.5H12L14 5.5V14H2V2Z" fill="#F7E018"/>
<path d="M10.0615 11.3751C10.3032 11.7697 10.6177 12.0598 11.1739 12.0598C11.6411 12.0598 11.9396 11.8263 11.9396 11.5037C11.9396 11.117 11.6329 10.98 11.1186 10.7551L10.8367 10.6341C10.023 10.2875 9.48244 9.85318 9.48244 8.93508C9.48244 8.08937 10.1268 7.44556 11.1339 7.44556C11.8508 7.44556 12.3662 7.69508 12.7377 8.34841L11.8596 8.91222C11.6662 8.56556 11.4577 8.42898 11.1339 8.42898C10.8036 8.42898 10.5942 8.63851 10.5942 8.91222C10.5942 9.25051 10.8038 9.38746 11.2876 9.59699L11.5695 9.71775C12.5276 10.1286 13.0685 10.5475 13.0685 11.4892C13.0685 12.5044 12.271 13.0606 11.2 13.0606C10.1527 13.0606 9.47615 12.5616 9.1451 11.9075L10.0615 11.3751ZM6.07806 11.4728C6.2552 11.7871 6.41634 12.0528 6.80377 12.0528C7.17425 12.0528 7.40796 11.9078 7.40796 11.3442V7.50994H8.53558V11.3595C8.53558 12.5271 7.85101 13.0585 6.85177 13.0585C5.94892 13.0585 5.42606 12.5913 5.16016 12.0285L6.07806 11.4728Z" fill="black"/>
<path d="M10.6464 5.64645C10.4512 5.84171 10.4512 6.15829 10.6464 6.35355C10.8417 6.54882 11.1583 6.54882 11.3536 6.35355L10.6464 5.64645ZM11.3536 6.35355L15.8536 1.85355L15.1464 1.14645L10.6464 5.64645L11.3536 6.35355Z" fill="#548AF7"/>
<path d="M15.5 1.5H16C16 1.22386 15.7761 1 15.5 1V1.5ZM12.5 1C12.2239 1 12 1.22386 12 1.5C12 1.77614 12.2239 2 12.5 2V1ZM15 4.5C15 4.77614 15.2239 5 15.5 5C15.7761 5 16 4.77614 16 4.5H15ZM15.5 1H12.5V2H15.5V1ZM15 1.5V4.5H16V1.5H15Z" fill="#548AF7"/>
</svg>
