<!-- Copyright 2000-2022 JetBrains s.r.o. and contributors. Use of this source code is governed by the Apache 2.0 license. -->
<svg width="16" height="16" viewBox="0 0 16 16" fill="none" xmlns="http://www.w3.org/2000/svg">
<path d="M15 4.91465C14.5826 4.76712 14.25 4.44011 14.0949 4.02635L12.5607 5.56064C11.9749 6.14642 11.0251 6.14642 10.4393 5.56064C9.85355 4.97485 9.85355 4.0251 10.4393 3.43932L11.9736 1.90504C11.5599 1.74997 11.2329 1.41737 11.0854 1H1V15H15V4.91465Z" fill="#3D3223"/>
<path d="M15 4.91465C14.5826 4.76712 14.25 4.44011 14.0949 4.02635L14 4.1213V14H2V2H11.8787L11.9736 1.90504C11.5599 1.74997 11.2329 1.41737 11.0854 1H1V15H15V4.91465Z" fill="#F2C55C"/>
<path d="M9.57788 10.4719C9.85296 10.9211 10.2108 11.2512 10.8438 11.2512C11.3755 11.2512 11.7152 10.9855 11.7152 10.6183C11.7152 10.1782 11.3662 10.0224 10.7809 9.76635L10.4601 9.62871C9.53409 9.23419 8.9189 8.73995 8.9189 7.69513C8.9189 6.73268 9.65223 6 10.7983 6C11.6142 6 12.2008 6.28397 12.6235 7.02748L11.6242 7.66912C11.4042 7.2746 11.1668 7.11918 10.7983 7.11918C10.4224 7.11918 10.1842 7.35762 10.1842 7.66912C10.1842 8.0541 10.4226 8.20995 10.9732 8.4484L11.294 8.58583C12.3844 9.0534 13 9.53008 13 10.6018C13 11.7572 12.0924 12.3901 10.8735 12.3901C9.68171 12.3901 8.91175 11.8222 8.53501 11.0778L9.57788 10.4719ZM5.04461 10.5831C5.2462 10.9408 5.42959 11.2432 5.87049 11.2432C6.29211 11.2432 6.55808 11.0782 6.55808 10.4368V6.07327H7.84135V10.4542C7.84135 11.783 7.06228 12.3877 5.92512 12.3877C4.89764 12.3877 4.30261 11.856 4 11.2156L5.04461 10.5831Z" fill="white"/>
<path fill-rule="evenodd" clip-rule="evenodd" d="M12.5 0C12.2239 0 12 0.223858 12 0.5C12 0.776142 12.2239 1 12.5 1H14.2929L11.1464 4.14642C10.9512 4.34169 10.9512 4.65827 11.1464 4.85353C11.3417 5.04879 11.6583 5.04879 11.8536 4.85353L15 1.70708V3.5C15 3.77614 15.2239 4 15.5 4C15.7761 4 16 3.77614 16 3.5V0.5C16 0.223858 15.7761 0 15.5 0H12.5Z" fill="#548AF7"/>
</svg>
