<!-- Copyright 2000-2022 JetBrains s.r.o. and contributors. Use of this source code is governed by the Apache 2.0 license. -->
<svg width="16" height="16" viewBox="0 0 16 16" fill="none" xmlns="http://www.w3.org/2000/svg">
<g clip-path="url(#clip0_2772_38585)">
<path fill-rule="evenodd" clip-rule="evenodd" d="M3 2C1.89543 2 1 2.89543 1 4V12C1 13.1046 1.89543 14 3 14H6.59971C6.21628 13.2499 6 12.4002 6 11.5C6 8.46243 8.46243 6 11.5 6C12.8296 6 14.0491 6.47182 15 7.25716V4C15 2.89543 14.1046 2 13 2H3Z" fill="#43454A"/>
<path d="M12.9001 11.5C12.9001 12.6563 12.6956 13.6792 12.385 14.3944C12.2293 14.7528 12.0569 15.0112 11.8908 15.173C11.727 15.3325 11.5957 15.375 11.5001 15.375C11.4045 15.375 11.2732 15.3325 11.1094 15.173C10.9433 15.0112 10.7709 14.7528 10.6152 14.3944C10.3046 13.6792 10.1001 12.6563 10.1001 11.5C10.1001 10.3437 10.3046 9.32077 10.6152 8.60558C10.7709 8.24719 10.9433 7.98875 11.1094 7.827C11.2732 7.66751 11.4045 7.625 11.5001 7.625C11.5957 7.625 11.727 7.66751 11.8908 7.827C12.0569 7.98875 12.2293 8.24719 12.385 8.60558C12.6956 9.32077 12.9001 10.3437 12.9001 11.5Z" stroke="#3574F0"/>
<circle cx="11.5" cy="11.5" r="3.875" stroke="#3574F0"/>
<path d="M15.3886 11.5H7.61084" stroke="#3574F0"/>
<path fill-rule="evenodd" clip-rule="evenodd" d="M3 3H13C13.5523 3 14 3.44772 14 4V6.59971C14.3578 6.78261 14.6929 7.00353 15 7.25716V4C15 2.89543 14.1046 2 13 2H3C1.89543 2 1 2.89543 1 4V12C1 13.1046 1.89543 14 3 14H6.59971C6.43777 13.6832 6.30564 13.3486 6.20703 13H3C2.44772 13 2 12.5523 2 12V4C2 3.44772 2.44772 3 3 3Z" fill="#CED0D6"/>
<path d="M4 5.5H5" stroke="#CED0D6" stroke-linecap="round"/>
<path d="M7 5.5H8" stroke="#CED0D6" stroke-linecap="round"/>
</g>
<defs>
<clipPath id="clip0_2772_38585">
<rect width="16" height="16" fill="white"/>
</clipPath>
</defs>
</svg>
