<svg width="16" height="16" viewBox="0 0 16 16" fill="none" xmlns="http://www.w3.org/2000/svg">
<g clip-path="url(#clip0)">
<path fill-rule="evenodd" clip-rule="evenodd" d="M2 1H14V14.5L9.5 12H2V1Z" fill="#9AA7B0" fill-opacity="0.8"/>
<path d="M4.9 10L6.88 6.61L6.83 6.58C6.70333 6.77333 6.53 6.92667 6.31 7.04C6.09667 7.14667 5.84667 7.2 5.56 7.2C5.17333 7.2 4.83 7.10667 4.53 6.92C4.23 6.73333 3.99667 6.47333 3.83 6.14C3.66333 5.80667 3.58 5.42 3.58 4.98C3.58 4.50667 3.68 4.09333 3.88 3.74C4.08667 3.38 4.37 3.1 4.73 2.9C5.09667 2.7 5.51667 2.6 5.99 2.6C6.47 2.6 6.89333 2.7 7.26 2.9C7.62667 3.1 7.91 3.38 8.11 3.74C8.31667 4.09333 8.42 4.50333 8.42 4.97C8.42 5.29 8.35667 5.62333 8.23 5.97C8.11 6.31 7.94667 6.67 7.74 7.05L6.1 10H4.9ZM6 6.38C6.4 6.38 6.72333 6.25 6.97 5.99C7.22333 5.73 7.35 5.38667 7.35 4.96C7.35 4.53333 7.22333 4.19 6.97 3.93C6.72333 3.66333 6.4 3.53 6 3.53C5.6 3.53 5.27333 3.66333 5.02 3.93C4.77333 4.19 4.65 4.53333 4.65 4.96C4.65 5.38667 4.77333 5.73 5.02 5.99C5.27333 6.25 5.6 6.38 6 6.38Z" fill="#3C3F41"/>
<path d="M10.47 9.06V7.19H8.62V6.21H10.47V4.33H11.53V6.21H13.38V7.19H11.53V9.06H10.47Z" fill="#3C3F41"/>
</g>
<defs>
<clipPath id="clip0">
<rect width="16" height="16" fill="white"/>
</clipPath>
</defs>
</svg>
