<svg fill="none" width="40" height="40" viewBox="0 0 40 40" xmlns="http://www.w3.org/2000/svg">
  <g transform="matrix(2.69 0 0 2.69 -1.56 -2)" stroke="#CED0D6">
    <path d="m8.22 1.9 5.61 2.74c0.374 0.183 0.374 0.716 0 0.898l-5.61 2.74c-0.139 0.0677-0.301 0.0677-0.439 0l-5.61-2.74c-0.374-0.183-0.374-0.716 1e-5 -0.898l5.61-2.74c0.139-0.0677 0.301-0.0677 0.439 0z"/>
    <path d="m14.3 8.32-5.84 2.84c-0.276 0.134-0.598 0.134-0.874 0l-5.84-2.84" stroke-linecap="round"/>
    <path d="m14.3 11.5-5.84 2.84c-0.276 0.134-0.598 0.134-0.874 0l-5.84-2.84" stroke-linecap="round"/>
  </g>
</svg>
