<!-- Copyright 2000-2023 JetBrains s.r.o. and contributors. Use of this source code is governed by the Apache 2.0 license. -->
<svg xmlns="http://www.w3.org/2000/svg" width="16" height="16" viewBox="0 0 16 16">
  <path d="M4.46068797,11.6895819 C3.9018187,11.250015 3.30565973,10.8285666 2.89828379,10.2351176 C2.04109152,9.18858247 1.38109405,7.976923 0.929892726,6.703618 C0.657172284,5.87565491 0.563770235,4.98797671 0.212197521,4.19200688 C-0.155582644,3.61388955 0.275221688,2.98191246 0.908476186,2.79814674 C1.19041453,2.74403411 1.68615012,2.47810369 1.08774684,2.66817747 C0.551259551,3.0617885 0.49933927,2.31088701 1.04946508,2.26333884 C1.42489963,2.21343601 1.56310586,1.90609128 1.43471828,1.6294126 C1.03170954,1.3666049 2.41195857,1.07777463 1.71747249,0.68562803 C0.994006047,-0.0949114535 2.72944734,-0.24516736 2.30128723,0.641286314 C2.19879944,1.32293286 3.51393946,0.516353916 3.20879621,1.30350767 C3.51894119,1.68152605 4.37020911,1.38954558 4.34909049,1.91987032 C4.80089057,1.950927 4.9559499,2.33107035 5.38007127,2.36025509 C5.8196305,2.5587583 6.6164815,2.71518098 6.76605592,3.21051536 C6.32996323,3.55576873 5.32012716,2.49735666 5.27161255,3.45305745 C5.40335085,4.86484949 5.36978832,6.31917952 5.88632274,7.66362638 C6.13064016,8.47769724 6.72292646,9.11852654 7.25782499,9.75256168 C7.76961278,10.3735188 8.46285146,10.8106453 9.16943441,11.1787281 C9.78925653,11.4710474 10.4574958,11.664924 11.1329981,11.7865758 C11.4069825,11.5770104 11.8906958,10.7978958 12.318111,11.1264315 C12.3383891,11.4955764 11.4697731,11.8981035 12.2772462,11.8573047 C12.7513864,11.7142705 13.0802483,12.2239908 13.4706943,11.7642225 C13.8304089,12.1903108 14.9658222,11.4919848 14.7098773,12.3629154 C14.3637825,12.5862064 13.859023,12.4512802 13.512358,12.7584526 C12.9408003,12.4729804 12.4857579,13.0138903 11.8530029,12.9454836 C11.1503016,13.0713456 10.4354149,13.1221518 9.72298869,13.1232554 C8.55421157,13.0309106 7.36068139,12.9919852 6.24880318,12.5850553 C5.62244323,12.403048 5.01118883,12.0463978 4.46068797,11.6895819 Z M5.44777499,12.1172695 C6.05939546,12.3817691 6.65744985,12.6605332 7.32774355,12.7446203 C8.39117392,12.892527 9.48936097,13.1200244 10.5566025,12.9125035 C10.0735822,12.6943973 9.57421778,12.9974739 9.09301716,12.756544 C8.51587555,12.8807322 7.89653769,12.7249077 7.3098092,12.6481897 C6.64259909,12.3509909 5.92256595,12.1466288 5.29775162,11.7608588 C4.51702112,11.4756943 5.70153502,12.1265633 5.91237509,12.1792788 C6.40043127,12.4563016 5.37566999,12.0372683 5.23120213,11.9221083 C4.82242576,11.6928044 4.77033104,11.7407181 5.19072341,11.9735921 C5.27539681,12.0231512 5.35906869,12.0750679 5.44777499,12.1172695 Z M4.28397236,11.294809 C4.8766509,11.5143373 4.28135845,10.8780251 4.00976991,10.914999 C3.88944224,10.7062433 3.55004921,10.5743668 3.78945876,10.462229 C3.35880692,10.6117343 3.33833196,9.89369731 3.13590497,9.9962851 C2.68031188,9.85242505 2.95858783,9.34280759 2.41589646,9.0298517 C2.36635901,8.70008424 1.87670946,8.41406173 1.72053267,7.9166581 C1.65155607,7.66198789 1.16733479,6.93066184 1.46479272,7.61127226 C1.71806342,8.26647345 2.1636727,8.82757475 2.53450537,9.38803447 C2.82245593,9.92165828 3.16246444,10.4793567 3.68687819,10.8122439 C3.86365351,10.9818201 4.0343338,11.2416529 4.28397236,11.294809 Z M6.89503988,12.3971318 C7.13776716,12.550314 8.31247506,12.7328799 7.57689432,12.4599446 C7.4538143,12.4858926 6.2129483,12.1089658 6.89503988,12.3971318 Z M4.21196083,10.2187243 C4.49678721,10.4371544 5.36064348,10.2467152 4.6481576,10.0883313 C4.32387381,9.9154727 3.59301022,9.79715235 4.09118129,10.192566 L4.21196014,10.2187266 L4.21196083,10.2187243 Z M5.59076476,10.9492767 C6.2872336,11.1462937 5.00509764,10.5088419 5.41892609,10.8767796 L5.51064537,10.9182844 L5.59076553,10.9492814 L5.59076476,10.9492767 Z M6.79745504,11.6642125 C7.45705137,11.6724125 6.20168685,11.5457265 6.79745504,11.6642135 L6.79745504,11.6642125 Z M5.59667253,10.5802278 C6.10263006,10.6454619 4.9946589,10.2360877 5.4856613,10.5435978 L5.59667176,10.5802308 L5.59667253,10.5802278 Z M7.35510899,11.6614459 C7.8274802,11.3790465 7.6717463,12.3227329 8.15651323,11.7411678 C8.6346955,11.3920262 7.7435635,12.1728162 8.33290053,11.8034196 C8.75910627,11.5183625 9.38862655,11.9385469 9.78631876,12.0756466 C10.0723129,12.061597 10.3503409,12.322944 10.6435306,12.1639477 C11.2079227,12.0119312 9.53987476,11.9384817 9.97712706,11.6687711 C9.46070469,11.8190731 9.07914871,11.4895865 8.82503337,11.1587999 C8.24575904,11.0250363 7.5759849,10.728879 7.28688264,10.2162401 C7.16901125,10.0237641 7.45716571,10.2433561 7.1851306,9.92872719 C6.83607195,9.61826166 6.66177516,9.265837 6.42745213,8.8884444 C6.14752388,8.73911019 6.1149122,8.29955173 6.08661355,8.87370875 C6.08883146,8.51135033 5.74863753,8.26745731 5.66560339,8.36884021 C5.66411455,8.01986828 6.02967474,8.19479438 5.77377048,7.93659547 C5.71869041,7.57489859 5.53733316,7.19800175 5.48282176,6.78963059 C5.39812688,6.59278021 5.47089495,6.17117759 5.19375557,6.61679961 C5.09278632,7.08775489 5.16024292,6.03804945 5.31725999,6.38420103 C5.52335113,6.03098514 5.24327092,6.07252754 5.2317969,6.12157398 C5.36604627,5.82355098 5.3167673,5.40082405 5.19676778,5.56209121 C5.26830334,5.24622289 5.3097805,4.39960643 5.08970197,4.54963748 C5.22310869,4.21933372 5.34270299,3.03823157 4.76356911,3.48854742 C4.52885791,3.49184281 4.12240666,3.57374843 3.93027828,3.66929863 C4.53268192,4.00135974 3.86968545,3.78921733 3.62446743,3.7364405 C3.59251553,4.04369675 3.34963192,3.91080989 3.04619055,3.91382233 C3.53085104,3.97378556 2.81018277,4.40951011 2.53214787,4.24025419 C2.17105864,4.41283314 2.84377692,4.8436199 2.53939252,4.97681311 C2.57680017,5.17762049 1.986203,4.90429707 2.0325868,5.3680328 C1.68203932,5.220565 1.9843177,5.91813205 2.15969613,5.68220968 C2.75591265,5.84357277 2.57941837,6.21146138 2.59460136,6.56092447 C2.49745604,6.76455749 2.11498896,6.08227789 2.50942,6.11387654 C2.1982442,5.60838254 2.16520452,5.93116321 1.90662772,6.16599428 C1.84647126,6.18304838 2.56619796,6.50012005 2.11453225,6.65690382 C2.51190474,6.71821782 2.52321031,7.06595647 2.60410521,7.28600277 C2.8429477,7.53477059 2.79406441,7.01131154 3.07984787,7.31027159 C2.89900111,7.04393089 2.12193998,6.559837 2.74757877,6.7150974 C2.74423426,6.44703687 2.63442622,6.23087919 2.82610496,6.23612312 C3.0159215,5.89236596 2.62730797,7.08368591 3.05516525,6.64679968 C3.1736034,6.59508331 3.20293925,6.30260661 3.41582793,6.67441914 C3.72503762,6.9786047 3.52751604,7.19902475 3.09134108,6.92049784 C3.16937671,7.18522384 3.67483188,7.27982717 3.57984453,7.69380756 C3.68054057,8.05791268 3.82142325,7.92380605 3.94422585,7.90275589 C4.04055745,8.25652587 4.09525963,7.99639147 4.09982921,7.82804159 C4.54090545,7.92246226 4.43759127,8.18319296 4.57560142,8.36535373 C4.87954032,8.5025424 4.14056196,7.43543445 4.66237292,8.04448168 C5.21136837,8.54014168 4.86826199,8.74704707 4.37559095,8.66764063 C4.68741248,8.64245012 4.78796992,9.08920028 5.1780046,9.07350456 C5.53368013,9.24270784 5.77448881,9.89258835 5.16141788,9.62205666 C4.94877969,9.43033356 4.19630341,9.19381642 4.81090339,9.55849482 C5.37854713,9.82136131 5.82938853,9.97861705 6.37685853,10.3085802 C6.76866446,10.5882851 6.93793834,10.9086491 7.08644064,10.9720652 C6.75714362,11.1293493 6.09407002,10.8464695 6.58644153,10.7597769 C6.27933585,10.703835 5.93391795,10.5485317 6.22807611,10.9311697 C6.47820537,11.1400114 7.11424737,11.1178868 7.22826774,11.1415501 C7.13162071,11.354506 6.9657489,11.3714419 7.23222774,11.3879588 C6.93493995,11.546388 7.3275563,11.5709192 7.35510592,11.6614459 L7.35510899,11.6614459 Z M6.74717992,9.94468384 C6.56630769,9.75552861 6.51954132,9.40123217 6.71506095,9.7095197 C6.81532569,9.74978431 7.03625302,10.2884993 6.74718376,9.94468384 L6.74717992,9.94468384 Z M5.58798509,8.03561159 C5.37244827,7.55271952 5.74058016,7.77184259 5.63567009,8.11475326 L5.58798509,8.03561159 Z M3.60375011,6.7123277 C3.50738827,6.55390314 3.3479876,6.08906131 3.39930498,5.94715593 C3.44573023,6.17826338 3.89076815,6.94172682 3.61760927,6.26341566 C3.31574476,5.69481184 3.97844547,6.44797852 4.04661326,6.589801 C4.0783565,6.73088521 3.86037131,6.55125624 4.00807294,6.88206435 C3.73871551,6.50542998 3.84906152,7.09010863 3.60375011,6.7123277 Z M2.60280885,5.87141787 C2.37449827,5.64454517 2.20927932,5.43540959 2.6134911,5.73061224 C2.76924204,5.73669038 2.26745141,5.25502468 2.6509999,5.57765724 C3.05431439,5.65119505 2.85015873,6.23894193 2.60280885,5.87141787 Z M2.73947827,5.52361935 C2.07576078,4.93295688 3.57348105,5.8324771 2.84791013,5.63312563 L2.73947405,5.52362473 L2.73947827,5.52361935 Z M4.6411286,6.62851845 C4.35391302,6.45630603 4.56501548,5.41615447 4.66296255,6.12754391 C4.94218046,6.03721984 4.64754625,6.49493982 4.85580411,6.49070354 C4.82298292,6.77949575 4.72981395,6.88332219 4.6411286,6.62851845 Z M2.86967731,5.3295264 C2.44328309,4.74123179 4.10889047,5.9246108 3.1427758,5.47874012 C3.04182404,5.45233705 2.92035518,5.4429098 2.86967731,5.3295264 Z M4.23206406,6.04765935 C4.17948616,5.55230556 4.34948096,6.12976873 4.23204486,6.04765782 L4.23206406,6.04765935 Z M2.93499575,5.10500361 C3.18841825,5.05079988 3.98521653,5.55007307 3.25350131,5.24761887 C3.17219883,5.15761405 2.9988793,5.19850719 2.93499575,5.10500361 Z M5.11163954,6.1896384 C5.14693554,5.68312524 5.30877754,5.88708749 5.11285954,6.2621417 L5.11164954,6.18963917 L5.11164454,6.1896384 L5.11163954,6.1896384 Z M3.12363948,4.9287513 C3.22689541,4.77728821 2.84953757,4.24395809 3.17803538,4.73744362 C3.31997705,4.85022726 3.5890084,4.92638466 3.35147854,4.97383229 C3.72504959,5.30338426 3.26036447,5.06313275 3.12363948,4.9287513 Z M4.58951887,4.96922687 C4.54752827,4.77351477 4.73223177,5.21510466 4.58951157,4.96922618 L4.58951887,4.96922687 Z M4.77539616,4.6573758 C4.64365478,4.4252152 4.9417599,3.63429345 4.97502467,4.12481581 C4.83597571,4.50702151 4.93491202,4.72083488 5.03191437,4.20818978 C5.21104834,3.80473339 4.99321918,5.00433811 4.77539309,4.65737787 L4.77539616,4.6573758 Z M5.32155383,10.3117521 C5.69882748,10.4085533 5.6968989,10.2530527 5.35592141,10.2068558 C5.17251816,10.0362412 4.59381519,9.85527226 5.11178357,10.1856851 C5.14608746,10.2725803 5.25448478,10.2705558 5.32155383,10.3117521 Z M3.982046,9.42205824 C4.18988798,9.57704773 4.76492978,9.86132277 4.27813934,9.48104996 C4.44226353,9.29036598 3.9639996,9.18886796 4.12265048,9.06131528 C3.71911612,8.81438703 3.80431851,8.83635275 4.08703266,8.84412156 C3.6020566,8.6273484 4.15703586,8.64356368 4.13090431,8.53248875 C3.9439013,8.49555484 3.20206375,8.20274661 3.6384833,8.55654114 C3.19483383,8.33033689 3.53276028,8.64080549 3.39866693,8.607982 C2.94500626,8.48428726 3.80267841,8.95350275 3.32661603,8.83702349 C3.58688067,9.04327349 4.02716007,9.3653251 3.43665077,9.05528933 C3.35884629,9.16728519 3.85922521,9.33704487 3.982046,9.42205824 Z M8.69589132,12.186479 C8.89488669,11.9936554 8.7040262,12.4936261 9.02562655,12.1392744 C9.02910306,11.8856011 9.01572348,11.7357665 8.65605495,12.0439182 C8.55690606,12.0989039 8.51264232,12.3326974 8.69589132,12.186479 Z M5.43717048,10.0942629 C5.65853141,10.2908807 6.45384753,10.2385297 5.70602916,10.118458 C5.59527118,9.95469666 5.00273392,9.9941094 5.43717048,10.0942629 Z M9.26358648,12.3776065 C9.64086243,11.9778722 8.89801862,12.4012491 9.26358341,12.3776065 L9.26358648,12.3776065 Z M1.79113325,7.6451341 C1.46957941,7.1863374 1.59124642,6.98011196 1.2811577,6.60549826 C1.22245507,6.31902833 0.74919217,5.668969 1.03637605,6.35765521 C1.29941982,6.76043633 1.37758485,7.38405805 1.79113325,7.6451341 Z M9.5644659,12.3163793 C9.90100911,12.0993881 9.48692664,12.1327036 9.50346732,12.3363351 L9.56446667,12.3163793 L9.5644659,12.3163793 Z M10.1044825,12.463019 C10.5356359,12.1519878 9.8431225,12.4034701 10.0139804,12.521947 L10.1044825,12.463019 Z M2.8694995,7.85191517 C3.18560611,7.92273931 4.13273904,8.63040052 3.57397014,7.90085647 C3.28779177,7.81614317 3.45942139,7.11660303 3.16751682,7.24041212 C3.36344258,7.5677184 3.32871499,7.70703059 2.91735825,7.50068235 C2.4003474,7.2483068 2.62681335,7.62575235 2.72785437,7.72977756 C2.5901611,7.7610677 2.90998566,7.84928361 2.8694995,7.85191517 Z M1.42932731,6.71454638 C1.48591901,6.48048352 0.908248563,5.42687026 1.15654287,6.18661084 C1.24616941,6.34575756 1.23705696,6.64737296 1.42932731,6.71454638 Z M7.94705148,10.6504267 C7.8808013,10.4296877 7.68517806,10.6453067 7.94705762,10.6504307 L7.94705148,10.6504267 Z M11.3183315,12.1732276 C11.6311792,12.1097985 12.3440989,12.3324633 12.4593272,12.0902778 C12.0794097,12.081054 11.1449034,11.8222388 11.1006896,12.1520408 L11.1838557,12.1651426 L11.3183315,12.1732268 L11.3183315,12.1732276 Z M1.57354499,5.36982554 C1.88900089,5.24591054 0.998941772,5.11351224 1.50908808,5.34641396 L1.57354499,5.36982554 Z M0.588388926,4.26768786 C0.531370681,3.94082593 0.539169809,3.36708984 1.0845503,3.56098265 C0.356557863,3.70551797 1.58840197,4.46580389 1.43284281,3.86553144 C1.73894667,3.88051912 2.03165229,3.6846236 1.87101274,3.98190655 C2.47412688,3.91529582 2.89225753,3.39231075 3.47482571,3.46559623 C3.92861853,3.40554444 4.42477921,3.35999968 4.91379892,3.17733301 C5.31586555,3.14836746 5.7029095,2.71548174 5.48252553,2.4589013 C4.93422209,2.41250844 4.36026537,2.48111053 3.75423786,2.6015682 C3.08268333,2.74117485 2.47268563,3.00641734 1.79510269,3.12027187 C1.13465059,3.20899122 1.92794672,3.36471477 1.73876678,3.3994079 C1.39413312,3.51898577 2.14976934,3.59962212 1.69408769,3.72568028 C1.41266722,3.67217124 1.11974449,3.57547778 1.23995482,3.27891223 C0.607299691,3.36100733 0.051377393,3.62358027 0.551213198,4.26738855 L0.588388235,4.26767251 L0.588388926,4.26765286 L0.588388926,4.26768786 Z M2.11285777,3.49128227 C2.26119323,2.94482806 2.90756139,3.94094749 2.35598734,3.56386508 C2.29010607,3.51456024 2.18175502,3.47433624 2.11285777,3.49128227 Z M2.41356075,3.23066078 C2.43288747,2.97920999 3.03586033,3.36377741 2.51298415,3.32118047 L2.41356075,3.23066078 Z M2.88054859,3.01744679 C3.10666605,2.74575579 4.16107215,2.84404997 3.38928319,2.99095546 C3.18241593,2.83521365 3.02384295,3.08278563 2.88054859,3.01744679 Z M4.64701219,2.80319805 C4.78975806,2.4291541 5.20095725,2.65310376 4.71306837,2.72803425 C4.7236629,2.76783809 4.69876171,2.9211359 4.64701219,2.80319805 Z M1.49582408,4.78682367 C1.92233219,4.52564694 1.0430376,4.56023332 1.49582408,4.78682367 Z M13.8277927,12.1779604 C14.1685323,12.1791115 14.8602054,12.0721424 14.1188197,12.0724816 C14.0024801,12.0906247 13.4409299,12.0867338 13.8277935,12.1779581 L13.8277927,12.1779604 Z M2.08857783,4.72118061 C2.36433949,4.70223961 2.52002297,4.41699513 2.03524584,4.43339168 C1.28392417,4.3556083 2.69812436,4.69064809 1.93886297,4.5948484 C1.8368417,4.66240983 2.08265133,4.7398735 2.08857783,4.72118061 Z M1.7024314,2.54291968 C2.19458258,2.37549218 2.86759171,2.18735719 3.09996873,2.62535706 C2.8634747,2.34071824 3.0045289,2.0605078 3.22789815,2.47667233 C3.54374468,2.89774228 3.70186372,2.28515806 3.49643265,2.14392328 C3.73053834,2.43480262 3.99680812,2.57225415 3.6531772,2.16230842 C4.02659085,1.71313015 2.9054807,2.2211277 2.65065984,2.21601209 C2.5280561,2.27104243 1.38487378,2.50755481 1.7024314,2.54291968 Z M1.99085984,1.99052777 C2.27153819,1.77868189 2.96159459,2.11654088 2.51878908,1.7799903 C2.47549638,1.74174929 1.54904364,2.03520117 1.99085984,1.99052777 Z M3.0141276,2.03277337 C3.34262257,2.04115575 2.87243327,1.59147227 3.26387651,1.79523791 C3.19958821,1.5852177 2.80812671,1.54589943 2.61674528,1.46199071 C2.5084996,1.65400881 2.83707608,2.03535435 3.0141276,2.03277337 Z M2.58851048,1.20400416 C3.11788167,1.13379082 2.4535718,0.976032328 2.4818396,1.19836192 L2.58851048,1.20400416 L2.58851048,1.20400347 L2.58851048,1.20400416 Z M1.80760071,0.59296096 C1.43486448,0.106387088 2.50858111,0.674752535 2.12988109,0.165292779 C1.81114299,-0.0885190465 1.50485364,0.450917372 1.80760071,0.59296096 Z M6.59107534,3.16947832 C6.76203223,2.86641645 5.88526137,2.76096818 6.47588999,3.06206885 C6.53026939,3.08024041 6.51796192,3.19043885 6.59107534,3.16947832 Z" transform="translate(1 1.4)"/>
</svg>
