<!-- Copyright 2000-2022 JetBrains s.r.o. and contributors. Use of this source code is governed by the Apache 2.0 license. -->
<svg width="16" height="16" viewBox="0 0 16 16" fill="none" xmlns="http://www.w3.org/2000/svg">
<circle opacity="0.2" cx="8" cy="8" r="8" fill="#313547"/>
<path fill-rule="evenodd" clip-rule="evenodd" d="M11.494 4.48796C11.3002 4.28019 10.9725 4.2756 10.773 4.47787L8.0008 7.28861L5.22878 4.478C5.02928 4.27573 4.70149 4.28032 4.50774 4.4881C4.32512 4.68394 4.32939 4.98894 4.51742 5.17959L7.29914 8.00003L4.51762 10.8203C4.32959 11.0109 4.32532 11.3159 4.50794 11.5118C4.7017 11.7195 5.02949 11.7241 5.22898 11.5219L8.0008 8.71146L10.7728 11.522C10.9722 11.7243 11.3 11.7197 11.4938 11.5119C11.6764 11.3161 11.6721 11.0111 11.4841 10.8204L8.70246 8.00003L11.4843 5.17946C11.6723 4.98881 11.6766 4.6838 11.494 4.48796Z" fill="#818594"/>
</svg>
