<!-- Copyright 2000-2024 JetBrains s.r.o. and contributors. Use of this source code is governed by the Apache 2.0 license. -->
<svg width="16" height="16" viewBox="0 0 16 16" fill="none" xmlns="http://www.w3.org/2000/svg">
<circle opacity="0.13" cx="8" cy="8" r="8" fill="#F0F1F2"/>
<path fill-rule="evenodd" clip-rule="evenodd" d="M4.14645 4.14645C4.34171 3.95118 4.65829 3.95118 4.85355 4.14645L8 7.29289L11.1464 4.14645C11.3417 3.95118 11.6583 3.95118 11.8536 4.14645C12.0488 4.34171 12.0488 4.65829 11.8536 4.85355L8.70711 8L11.8536 11.1464C12.0488 11.3417 12.0488 11.6583 11.8536 11.8536C11.6583 12.0488 11.3417 12.0488 11.1464 11.8536L8 8.70711L4.85355 11.8536C4.65829 12.0488 4.34171 12.0488 4.14645 11.8536C3.95118 11.6583 3.95118 11.3417 4.14645 11.1464L7.29289 8L4.14645 4.85355C3.95118 4.65829 3.95118 4.34171 4.14645 4.14645Z" fill="#868A91"/>
</svg>
