<svg width="16" height="16" viewBox="0 0 64 64" xmlns="http://www.w3.org/2000/svg">
  <!-- Background circle -->
  <circle cx="32" cy="32" r="30" fill="#2B2B2B" stroke="#4A90E2" stroke-width="2"/>
  
  <!-- Python snake body -->
  <path d="M15 25 Q20 20 25 25 Q30 30 35 25 Q40 20 45 25 Q50 30 55 25" 
        fill="none" stroke="#FFD43B" stroke-width="4" stroke-linecap="round"/>
  
  <!-- Python snake head -->
  <circle cx="52" cy="25" r="4" fill="#FFD43B"/>
  <circle cx="54" cy="23" r="1" fill="#2B2B2B"/>
  
  <!-- Version indicators (dots representing multiple versions) -->
  <circle cx="20" cy="40" r="2" fill="#4A90E2"/>
  <circle cx="28" cy="42" r="2" fill="#4A90E2"/>
  <circle cx="36" cy="40" r="2" fill="#4A90E2"/>
  <circle cx="44" cy="42" r="2" fill="#4A90E2"/>
  
  <!-- ASDF text -->
  <text x="32" y="55" text-anchor="middle" font-family="monospace" font-size="8" fill="#FFFFFF" font-weight="bold">asdf</text>
  
  <!-- Python logo inspired elements -->
  <path d="M25 15 Q30 10 35 15 Q40 20 35 25 Q30 30 25 25 Q20 20 25 15" 
        fill="#306998" opacity="0.7"/>
  <path d="M29 15 Q34 10 39 15 Q44 20 39 25 Q34 30 29 25 Q24 20 29 15" 
        fill="#FFD43B" opacity="0.7"/>
</svg>