<svg width="16" height="16" viewBox="0 0 16 16" fill="none" xmlns="http://www.w3.org/2000/svg">
<path fill-rule="evenodd" clip-rule="evenodd" d="M8 1C8.8936 1 9.69357 1.3928 10.2432 2.0127C10.3276 2.00408 10.4133 2 10.5 2C11.3526 2 12.1044 2.42752 12.5557 3.0791C13.3898 3.31996 14 4.08833 14 5C14 5.73976 13.5971 6.3835 13 6.72949V7H14C15.1046 7 16 7.89543 16 9V10C16 11.1046 15.1046 12 14 12H13V13.5C13 13.6461 12.9361 13.7836 12.8271 13.8779L12.7773 13.916L12.7754 13.917L12.7734 13.9189C12.7717 13.9201 12.7691 13.9212 12.7666 13.9229C12.7616 13.9261 12.755 13.9306 12.7471 13.9355C12.7312 13.9455 12.7093 13.9585 12.6816 13.9746C12.6258 14.0072 12.5461 14.0517 12.4424 14.1035C12.235 14.2072 11.932 14.3417 11.5332 14.4746C10.735 14.7407 9.55659 15 8 15C6.44341 15 5.26501 14.7407 4.4668 14.4746C4.06804 14.3417 3.76501 14.2072 3.55762 14.1035C3.45393 14.0517 3.37418 14.0072 3.31836 13.9746C3.29073 13.9585 3.26883 13.9455 3.25293 13.9355C3.24504 13.9306 3.23836 13.9261 3.2334 13.9229C3.2309 13.9212 3.22831 13.9201 3.22656 13.9189L3.22461 13.917L3.22266 13.916C3.08356 13.8233 3 13.6672 3 13.5V6.72949C2.4029 6.3835 2 5.73976 2 5C2 4.08866 2.60972 3.32025 3.44336 3.0791C3.89456 2.42726 4.64722 2 5.5 2C5.58637 2 5.67174 2.00415 5.75586 2.0127C6.30546 1.39252 7.10617 1 8 1ZM12 7H8V7.5C7.99999 8.32842 7.32842 9 6.5 9C5.67159 8.99999 5.00001 8.32841 5 7.5V7H4V13.2061L4.00488 13.209C4.17249 13.2928 4.43196 13.4083 4.7832 13.5254C5.48499 13.7593 6.55659 14 8 14C9.44341 14 10.515 13.7593 11.2168 13.5254C11.568 13.4083 11.8275 13.2928 11.9951 13.209L12 13.2061V7ZM13 11H14C14.5523 11 15 10.5523 15 10V9C15 8.44772 14.5523 8 14 8H13V11ZM8 2C7.40615 2 6.87308 2.2592 6.50391 2.67578C6.29055 2.91647 5.97429 3.04034 5.6543 3.00781C5.60565 3.00288 5.55425 3 5.5 3C4.9896 3 4.53828 3.25453 4.26562 3.64844C4.1347 3.83753 3.9426 3.97605 3.72168 4.04004C3.30379 4.16092 3 4.54625 3 5C3 5.55228 3.44772 6 4 6H5C5.55228 6 6 6.44772 6 7V7.5C6.00001 7.77614 6.22388 7.99999 6.5 8C6.74169 8 6.9437 7.82856 6.99023 7.60059L7 7.5V7C7 6.44772 7.44772 6 8 6H12C12.5523 6 13 5.55228 13 5C13 4.54635 12.6966 4.16087 12.2783 4.04004C12.0571 3.97616 11.8645 3.83773 11.7334 3.64844C11.4603 3.25416 11.0096 3 10.5 3C10.4446 3 10.3929 3.00289 10.3447 3.00781C10.0246 3.04047 9.70856 2.91653 9.49512 2.67578C9.12556 2.25899 8.59309 2 8 2Z" fill="#CED0D6"/>
<path d="M5 7V7.5C5.00001 8.32841 5.67159 8.99999 6.5 9C7.32842 9 7.99999 8.32842 8 7.5V7H12V13.2061L11.9951 13.209C11.8275 13.2928 11.568 13.4083 11.2168 13.5254C10.515 13.7593 9.44341 14 8 14C6.55659 14 5.48499 13.7593 4.7832 13.5254C4.43196 13.4083 4.17249 13.2928 4.00488 13.209L4 13.2061V7H5Z" fill="#43454A"/>
<path d="M8 2C8.59309 2 9.12556 2.25899 9.49512 2.67578C9.70856 2.91653 10.0246 3.04047 10.3447 3.00781C10.3929 3.00289 10.4446 3 10.5 3C11.0096 3 11.4603 3.25416 11.7334 3.64844C11.8645 3.83773 12.0571 3.97616 12.2783 4.04004C12.6966 4.16087 13 4.54635 13 5C13 5.55228 12.5523 6 12 6H8C7.44772 6 7 6.44772 7 7V7.5L6.99023 7.60059C6.9437 7.82856 6.74169 8 6.5 8C6.22388 7.99999 6.00001 7.77614 6 7.5V7C6 6.44772 5.55228 6 5 6H4C3.44772 6 3 5.55228 3 5C3 4.54625 3.30379 4.16092 3.72168 4.04004C3.9426 3.97605 4.1347 3.83753 4.26562 3.64844C4.53828 3.25453 4.9896 3 5.5 3C5.55425 3 5.60565 3.00288 5.6543 3.00781C5.97429 3.04034 6.29055 2.91647 6.50391 2.67578C6.87308 2.2592 7.40615 2 8 2Z" fill="#43454A"/>
<path d="M11 12.54C10.9678 12.5514 10.9349 12.5656 10.9004 12.5771C10.2948 12.779 9.32978 13 8 13C6.67021 13 5.70515 12.779 5.09961 12.5771C5.06509 12.5656 5.03224 12.5514 5 12.54V9.49609C5.41817 9.81083 5.93631 10 6.5 10C7.70949 10 8.71858 9.14114 8.9502 8H11V12.54Z" fill="#F2C55C"/>
</svg>
