<!-- Copyright 2000-2022 JetBrains s.r.o. and contributors. Use of this source code is governed by the Apache 2.0 license. -->
<svg width="12" height="12" viewBox="0 0 12 12" fill="none" xmlns="http://www.w3.org/2000/svg">
<g clip-path="url(#clip0_4499_49324)">
<path fill-rule="evenodd" clip-rule="evenodd" d="M9.8787 10.5858C9.48348 10.8476 9.00954 11 8.5 11C7.11929 11 6 9.88071 6 8.5C6 7.11929 7.11929 6 8.5 6C9.88071 6 11 7.11929 11 8.5C11 9.00954 10.8476 9.48348 10.5858 9.8787L12.0037 11.2966L11.2966 12.0037L9.8787 10.5858ZM10 8.5C10 9.32843 9.32843 10 8.5 10C7.67157 10 7 9.32843 7 8.5C7 7.67157 7.67157 7 8.5 7C9.32843 7 10 7.67157 10 8.5Z" fill="#9AA7B0"/>
<path fill-rule="evenodd" clip-rule="evenodd" d="M0 1H12V8.5C12 7.54635 11.6186 6.68178 11 6.05051V3H9V5.03544C8.8367 5.01209 8.66976 5 8.5 5C8.33024 5 8.1633 5.01209 8 5.03544V3H5V6H6.05051C5.75757 6.28706 5.51486 6.6252 5.33682 7H5V10H5.33682C5.51486 10.3748 5.75757 10.7129 6.05051 11H0V1ZM4 3H1V6H4V3ZM4 7H1V10H4V7Z" fill="#9AA7B0"/>
</g>
<defs>
<clipPath id="clip0_4499_49324">
<rect width="12" height="12" fill="white"/>
</clipPath>
</defs>
</svg>
