<!-- Copyright 2000-2021 JetBrains s.r.o. Use of this source code is governed by the Apache 2.0 license that can be found in the LICENSE file. -->
<svg xmlns="http://www.w3.org/2000/svg" width="12" height="12" viewBox="0 0 12 12">
  <path fill="#AFB1B3" fill-rule="evenodd" d="M4.535125,3.451375 C4.341375,3.563875 4.181375,3.717625 4.057625,3.905125 C3.938875,4.090125 3.851375,4.301375 3.798875,4.532625 C3.746375,4.761375 3.720125,4.995125 3.720125,5.230125 C3.720125,5.732625 3.811375,6.090125 3.996375,6.322625 C4.186375,6.560125 4.442625,6.681375 4.756375,6.681375 C4.962625,6.681375 5.143875,6.633875 5.296375,6.538875 C5.446375,6.447625 5.571375,6.316375 5.666375,6.150125 C5.757625,5.991375 5.828875,5.800125 5.876375,5.580125 C5.923875,5.367625 5.955125,5.126375 5.966375,4.866375 L6.052625,3.373875 L6.000125,3.361375 C5.856375,3.327625 5.747625,3.310125 5.625125,3.296375 C5.502625,3.283875 5.380125,3.277625 5.252625,3.277625 C4.972625,3.277625 4.732625,3.335125 4.535125,3.451375 Z M0.002625,5.00075 C0.002625,0.001375 4.58427429,0.001375 5.395125,0.001375 C5.81382056,0.001375 10.000125,0.108036255 10.000125,4.446375 C10.000125,7.511375 8.093875,7.5 7.712625,7.5 C7.0916473,7.4625 6.6428973,7.217125 6.366375,6.763875 C5.85325496,7.254625 5.3515883,7.5 4.861375,7.5 C3.84956488,7.5 2.500125,7.401375 2.500125,5.000125 C2.500125,2.90054321 4.31991577,2.500125 5.000125,2.500125 C5.191375,2.500125 7.181375,2.568875 7.280125,2.598875 L7.180125,5.235125 C7.11963232,6.07307003 7.32338232,6.51348669 7.791375,6.556375 C8.69506836,6.556375 8.825125,4.728875 8.825125,4.433875 C8.825125,1.13426208 5.885125,0.931375 5.395125,0.931375 C4.713875,0.931375 1.1794281,1.06361389 1.1794281,5.00075 C1.1794281,5.73002889 1.1794281,9.057625 4.861375,9.057625 C5.112625,9.057625 7.180125,8.80378723 7.702625,8.535125 L7.702625,9.472625 C7.318875,9.628875 6.366375,10.000125 4.872625,10.000125 C3.94470215,10.000125 0.002625,10.000125 0.002625,5.00075 Z" transform="translate(1 1)"/>
</svg>
