<svg xmlns="http://www.w3.org/2000/svg" width="12" height="12" viewBox="0 0 12 12">
  <g fill="none" fill-rule="evenodd">
    <path fill="#AFB1B3" d="M3.42264973,1.71458865 L3.92283286,2.58093125 C2.76991405,3.28285824 2,4.55151759 2,6 C2,8.209139 3.790861,10 6,10 C8.209139,10 10,8.209139 10,6 C10,4.4073603 9.0692118,3.03211783 7.721942,2.3885792 L8.7269037,1.80836429 C10.095387,2.70046414 11,4.24459023 11,6 C11,8.76142375 8.76142375,11 6,11 C3.23857625,11 1,8.76142375 1,6 C1,4.18140622 1.97090599,2.58957969 3.42264973,1.71458865 Z"/>
    <circle cx="6" cy="6" r="2" fill="#499C54"/>
    <polygon fill="#AFB1B3" points="7 1 11 1 7 5"/>
  </g>
</svg>
