<!-- Copyright 2000-2021 JetBrains s.r.o. Use of this source code is governed by the Apache 2.0 license that can be found in the LICENSE file. -->
<svg width="13" height="12" viewBox="0 0 13 12" fill="none" xmlns="http://www.w3.org/2000/svg">
<path fill-rule="evenodd" clip-rule="evenodd" d="M2.90763 0C3.72773 0 4.37076 0.286 4.79013 0.77C5.13495 1.188 5.33066 1.76 5.33066 2.431C5.33066 3.718 4.68762 4.477 3.78365 4.785L4.651 6.221L3.806 7.067L2.58145 5.016H1.14628V7.7H0V0H2.90763ZM1.353 3.817H2.77744C3.47384 3.817 3.917 3.311 3.917 2.53V2.508C3.917 1.683 3.48967 1.232 2.76953 1.232H1.353V3.817Z" fill="#C4C4C4"/>
<path fill-rule="evenodd" clip-rule="evenodd" d="M10.1184 6.962L8.04803 4.89158L3.01001 9.90139V11.9718H5.08043L10.1184 6.962ZM11.8438 5.23665C12.0654 5.01501 12.0654 4.42309 11.8438 4.20144L10.8086 3.16623C10.587 2.94459 9.995 2.94459 9.77337 3.16623L8.73816 4.20144L10.8086 6.27186L11.8438 5.23665Z" fill="#C4C4C4"/>
</svg>
