<!-- Copyright 2000-2021 JetBrains s.r.o. Use of this source code is governed by the Apache 2.0 license that can be found in the LICENSE file. -->
<svg xmlns="http://www.w3.org/2000/svg" width="12" height="12" viewBox="0 0 12 12">
  <g fill="none" fill-rule="evenodd">
    <path fill="#6E6E6E" d="M2.90763025,2.30926389e-14 C3.72773109,2.30926389e-14 4.37076471,0.286 4.79013445,0.77 C5.13494958,1.188 5.33065546,1.76 5.33065546,2.431 C5.33065546,3.718 4.68762185,4.477 3.78364706,4.785 L4.651,6.221 L3.806,7.067 L2.58145378,5.016 L1.14627731,5.016 L1.14627731,7.7 L-1.86517468e-14,7.7 L-1.86517468e-14,2.30926389e-14 L2.90763025,2.30926389e-14 Z M1.353,3.817 L2.77744444,3.817 C3.47383951,3.817 3.917,3.311 3.917,2.53 L3.917,2.508 C3.917,1.683 3.48966667,1.232 2.76953086,1.232 L1.353,1.232 L1.353,3.817 Z"/>
    <path fill="#389FD6" d="M10.118434,6.96199965 L8.04801633,4.89158197 L3.01,9.90139228 L3.01,11.97181 L5.08041768,11.97181 L10.118434,6.96199965 Z M11.8437821,5.23665158 C12.065406,5.01500638 12.065406,4.42308794 11.8437821,4.20144274 L10.8085732,3.1662339 C10.5869494,2.9445887 9.99498829,2.9445887 9.7733644,3.1662339 L8.73815556,4.20144274 L10.8085732,6.27186042 L11.8437821,5.23665158 Z"/>
  </g>
</svg>
