<!-- Copyright 2000-2021 JetBrains s.r.o. Use of this source code is governed by the Apache 2.0 license that can be found in the LICENSE file. -->
<svg width="12" height="12" viewBox="0 0 12 12" xmlns="http://www.w3.org/2000/svg">
  <path d="m6 0c-3.31 0-6 2.69-6 6s2.69 6 6 6 6-2.69 6-6-2.69-6-6-6zm-0.6 10.8c-2.37-0.294-4.2-2.31-4.2-4.76 0-0.372 0.048-0.726 0.126-1.07l2.87 2.87v0.6c0 0.66 0.54 1.2 1.2 1.2zm4.14-1.52c-0.156-0.486-0.6-0.834-1.14-0.834h-0.6v-1.8c0-0.33-0.27-0.6-0.6-0.6h-3.6v-1.2h1.2c0.33 0 0.6-0.27 0.6-0.6v-1.2h1.2c0.66 0 1.2-0.54 1.2-1.2v-0.246c1.76 0.714 3 2.44 3 4.45 0 1.25-0.48 2.38-1.26 3.23z" fill="#9AA7B0" fill-opacity=".7" fill-rule="evenodd" stroke-width=".857"/>
</svg>
