<svg width="16" height="16" viewBox="0 0 16 16" fill="none" xmlns="http://www.w3.org/2000/svg">
<g clip-path="url(#clip0)">
<path fill-rule="evenodd" clip-rule="evenodd" d="M13.4364 6.70316C13.5824 6.06737 13.6504 5.43186 13.6465 4.80668L8.69095 3.66842C8.65751 3.91264 8.61285 4.15748 8.55661 4.40236C7.61544 8.49983 3.76088 11.1711 -0.317939 10.7318C0.727397 11.758 2.06031 12.5175 3.59268 12.8695C4.77887 13.1419 5.96405 13.1425 7.083 12.9122C7.02848 12.6164 6.99998 12.3115 6.99998 12C6.99998 9.23858 9.23856 7 12 7C12.4546 7 12.895 7.06067 13.3136 7.17435C13.3588 7.01951 13.3998 6.86241 13.4364 6.70316Z" fill="#E05555"/>
<path d="M8 4L14.4172 6.07115L10.8791 -0.0569972L10.0036 0.448449L10.1391 2.7048L8 4Z" fill="#62B543"/>
<path fill-rule="evenodd" clip-rule="evenodd" d="M15.8136 13.2317L14.9039 12.579C14.9411 12.3918 14.9606 12.1982 14.9606 12C14.9606 11.8018 14.9411 11.6082 14.9039 11.421L15.8136 10.7683C15.6385 10.2268 15.3511 9.73586 14.9789 9.32286L13.9588 9.78303C13.6685 9.5272 13.3275 9.32751 12.9529 9.20092L12.8418 8.08728C12.5725 8.03009 12.2931 8 12.0068 8C11.7204 8 11.4411 8.03009 11.1718 8.08728L11.0607 9.20092C10.686 9.32751 10.3451 9.5272 10.0548 9.78303L9.03472 9.32287C8.66247 9.73586 8.37508 10.2268 8.20001 10.7683L9.10968 11.421C9.07246 11.6082 9.05295 11.8018 9.05295 12C9.05295 12.1982 9.07246 12.3918 9.10968 12.579L8.20001 13.2317C8.37508 13.7732 8.66247 14.2641 9.03472 14.6771L10.0548 14.217C10.3451 14.4728 10.686 14.6725 11.0607 14.7991L11.1718 15.9127C11.4411 15.9699 11.7204 16 12.0068 16C12.2931 16 12.5725 15.9699 12.8418 15.9127L12.9529 14.7991C13.3275 14.6725 13.6685 14.4728 13.9588 14.217L14.9789 14.6771C15.3511 14.2641 15.6385 13.7732 15.8136 13.2317ZM13.4222 12.0001C13.4222 12.7819 12.7885 13.4156 12.0068 13.4156C11.2251 13.4156 10.5914 12.7819 10.5914 12.0001C10.5914 11.2184 11.2251 10.5846 12.0068 10.5846C12.7885 10.5846 13.4222 11.2184 13.4222 12.0001Z" fill="#9AA7B0" fill-opacity="0.8"/>
</g>
<defs>
<clipPath id="clip0">
<rect width="16" height="16" fill="white"/>
</clipPath>
</defs>
</svg>
