<svg xmlns="http://www.w3.org/2000/svg" width="11" height="11" viewBox="0 0 11 11">
  <path fill="#AFB1B3" fill-rule="evenodd" d="M10,11 L8,11 L8,10 L10,10 L10,8 L11,8 L11,11 L10,11 Z M11,1 L11,3 L10,3 L10,1 L8,1 L8,0 L11,0 L11,1 Z M1,10 L3,10 L3,11 L1,11 L-1.17239551e-13,11 L-1.17239551e-13,8 L1,8 L1,10 Z M1,1 L1,3 L-1.17239551e-13,3 L-1.17239551e-13,1 L-1.17239551e-13,0 L3,0 L3,1 L1,1 Z M6,5 L8.5,5 L8.5,3 L11,5.5 L8.5,8 L8.5,6 L6,6 L6,8.5 L8,8.5 L5.5,11 L3,8.5 L5,8.5 L5,6 L2.5,6 L2.5,8 L-4.01456646e-13,5.5 L2.5,3 L2.5,5 L5,5 L5,2.5 L3,2.5 L5.5,0 L8,2.5 L6,2.5 L6,5 Z"/>
</svg>
