<svg width="48" height="48" viewBox="0 0 48 48" fill="none" xmlns="http://www.w3.org/2000/svg">
<g filter="url(#filter0_d)">
<path fill-rule="evenodd" clip-rule="evenodd" d="M24 45C35.598 45 45 35.598 45 24C45 12.402 35.598 3 24 3C12.402 3 3 12.402 3 24C3 35.598 12.402 45 24 45ZM25.1506 30.9284C25.1495 30.9273 25.1477 30.9273 25.1466 30.9284L22.9091 33.166C22.5185 33.5565 21.8854 33.5565 21.4948 33.166L12.7072 24.3783C12.3166 23.9878 12.3166 23.3546 12.7072 22.9641L15.3427 20.3285C15.7333 19.938 16.3664 19.938 16.7569 20.3285L21.4989 25.0704C21.8894 25.4609 22.5226 25.4609 22.9131 25.0704L32.2014 15.7821C32.5919 15.3916 33.2251 15.3916 33.6156 15.7821L36.2512 18.4177C36.6417 18.8082 36.6417 19.4414 36.2512 19.8319L25.1546 30.9284C25.1535 30.9296 25.1517 30.9296 25.1506 30.9284V30.9284Z" fill="url(#paint0_linear)"/>
</g>
<defs>
<filter id="filter0_d" x="3" y="3" width="42" height="42.5" filterUnits="userSpaceOnUse" color-interpolation-filters="sRGB">
<feFlood flood-opacity="0" result="BackgroundImageFix"/>
<feColorMatrix in="SourceAlpha" type="matrix" values="0 0 0 0 0 0 0 0 0 0 0 0 0 0 0 0 0 0 127 0" result="hardAlpha"/>
<feOffset dy="0.5"/>
<feColorMatrix type="matrix" values="0 0 0 0 0 0 0 0 0 0 0 0 0 0 0 0 0 0 0.2 0"/>
<feBlend mode="normal" in2="BackgroundImageFix" result="effect1_dropShadow"/>
<feBlend mode="normal" in="SourceGraphic" in2="effect1_dropShadow" result="shape"/>
</filter>
<linearGradient id="paint0_linear" x1="9" y1="7.5" x2="39" y2="39.75" gradientUnits="userSpaceOnUse">
<stop stop-color="#C7F059"/>
<stop offset="0.291667" stop-color="#63E176"/>
<stop offset="0.625" stop-color="#16C3A7"/>
<stop offset="1" stop-color="#0FB6BB"/>
</linearGradient>
</defs>
</svg>
