<!-- Copyright 2000-2023 JetBrains s.r.o. and contributors. Use of this source code is governed by the Apache 2.0 license. -->
<svg width="16" height="16" viewBox="0 0 16 16" fill="none" xmlns="http://www.w3.org/2000/svg">
<path d="M10.8753 15.5504C11.3813 15.8501 11.9502 16 12.5818 16C13.1845 16 13.7259 15.8663 14.2061 15.5988C14.6895 15.328 15.0666 14.9558 15.3373 14.482C15.6113 14.0051 15.7482 13.4701 15.7482 12.8771V12.3356H12.9686V13.2977H14.5775C14.5524 13.596 14.4608 13.8651 14.3028 14.105C14.1288 14.3693 13.8919 14.5755 13.5922 14.7238C13.2957 14.8688 12.9637 14.9413 12.5963 14.9413C12.187 14.9413 11.8196 14.8381 11.4941 14.6319C11.1686 14.4224 10.914 14.134 10.7303 13.7666C10.5498 13.396 10.4596 12.9738 10.4596 12.5C10.4596 12.0262 10.5498 11.6057 10.7303 11.2383C10.914 10.8676 11.167 10.5792 11.4893 10.3729C11.8148 10.1635 12.1806 10.0587 12.5867 10.0587C12.9089 10.0587 13.2087 10.1215 13.4858 10.2472C13.7662 10.3729 13.9983 10.5421 14.182 10.7548C14.3689 10.9675 14.4897 11.2044 14.5445 11.4655H15.7095C15.6548 11.0078 15.4823 10.5921 15.1923 10.2182C14.9022 9.84116 14.5284 9.54467 14.0708 9.32873C13.6131 9.10958 13.1168 9 12.5818 9C11.9502 9 11.3813 9.15148 10.8753 9.45442C10.3694 9.75414 9.97294 10.1715 9.68611 10.7065C9.39927 11.2383 9.25586 11.8361 9.25586 12.5C9.25586 13.1639 9.39927 13.7634 9.68611 14.2983C9.97294 14.8301 10.3694 15.2475 10.8753 15.5504Z" fill="#57965C"/>
<path d="M14.9669 8.68248C15.1627 6.67098 14.4904 4.59088 12.9497 3.05025C10.2161 0.316582 5.78392 0.316582 3.05025 3.05025C0.316582 5.78392 0.316582 10.2161 3.05025 12.9497C4.64674 14.5462 6.82252 15.2104 8.90097 14.9421C8.86797 14.8867 8.83601 14.8304 8.80511 14.7731L8.80391 14.7709C8.43203 14.0772 8.25499 13.313 8.25499 12.5C8.25499 11.6875 8.43182 10.9243 8.80451 10.2329C9.17422 9.54376 9.69596 8.99073 10.3628 8.59524C11.0345 8.19355 11.7825 8 12.581 8C13.2561 8 13.9002 8.13919 14.4992 8.42556C14.662 8.5025 14.818 8.58813 14.9669 8.68248Z" fill="#25324D"/>
<path d="M7.06068 2.07351L6.90504 1.08569C5.49398 1.30801 4.13786 1.96286 3.05049 3.05024C1.96311 4.13762 1.30826 5.49374 1.08594 6.9048L2.07375 7.06044C2.26427 5.85123 2.82468 4.69026 3.75759 3.75735C4.6905 2.82444 5.85147 2.26402 7.06068 2.07351Z" fill="#548AF7"/>
<path d="M13.9267 7.06044L14.9145 6.9048C14.6922 5.49374 14.0374 4.13762 12.95 3.05024C11.8626 1.96286 10.5065 1.30801 9.09542 1.08569L8.93979 2.07351C10.149 2.26402 11.31 2.82444 12.2429 3.75735C13.1758 4.69026 13.7362 5.85123 13.9267 7.06044Z" fill="#548AF7"/>
<path d="M1.08594 9.09518C1.30826 10.5062 1.96311 11.8624 3.05049 12.9497C4.13786 14.0371 5.49398 14.692 6.90504 14.9143L7.06068 13.9265C5.85147 13.736 4.6905 13.1755 3.75759 12.2426C2.82468 11.3097 2.26427 10.1487 2.07375 8.93954L1.08594 9.09518Z" fill="#548AF7"/>
<path d="M8.35234 11.4935C8.27986 11.4978 8.20676 11.5 8.13315 11.5C6.21395 11.5 4.78784 10.0062 4.78784 8C4.78784 5.99378 6.21395 4.5 8.13315 4.5C9.6221 4.5 10.8983 5.39917 11.2126 6.67541H10.1974C9.88315 5.94544 9.10483 5.42334 8.13315 5.42334C6.79406 5.42334 5.82721 6.49655 5.82721 8C5.82721 9.50345 6.79406 10.5767 8.13315 10.5767C8.31688 10.5767 8.49371 10.558 8.66179 10.5228C8.52217 10.8338 8.41955 11.158 8.35234 11.4935Z" fill="#548AF7"/>
</svg>
