<svg width="16" height="16" viewBox="0 0 16 16" fill="none" xmlns="http://www.w3.org/2000/svg">
<path d="M10.8745 15.5504C11.3805 15.8501 11.9493 16 12.581 16C13.1836 16 13.7251 15.8663 14.2053 15.5988C14.6887 15.328 15.0657 14.9558 15.3364 14.482C15.6105 14.0051 15.7474 13.4701 15.7474 12.8771V12.3356H12.9677V13.2977H14.5767C14.5515 13.596 14.4599 13.8651 14.302 14.105C14.1279 14.3693 13.8911 14.5755 13.5913 14.7238C13.2948 14.8688 12.9629 14.9413 12.5955 14.9413C12.1862 14.9413 11.8188 14.8381 11.4933 14.6319C11.1678 14.4224 10.9132 14.134 10.7295 13.7666C10.549 13.396 10.4587 12.9738 10.4587 12.5C10.4587 12.0262 10.549 11.6057 10.7295 11.2383C10.9132 10.8676 11.1661 10.5792 11.4884 10.3729C11.8139 10.1635 12.1797 10.0587 12.5858 10.0587C12.9081 10.0587 13.2078 10.1215 13.485 10.2472C13.7654 10.3729 13.9974 10.5421 14.1811 10.7548C14.368 10.9675 14.4889 11.2044 14.5437 11.4655H15.7087C15.654 11.0078 15.4815 10.5921 15.1914 10.2182C14.9014 9.84116 14.5276 9.54467 14.0699 9.32873C13.6123 9.10958 13.116 9 12.581 9C11.9493 9 11.3805 9.15148 10.8745 9.45442C10.3685 9.75414 9.97209 10.1715 9.68525 10.7065C9.39842 11.2383 9.255 11.8361 9.255 12.5C9.255 13.1639 9.39842 13.7634 9.68525 14.2983C9.97209 14.8301 10.3685 15.2475 10.8745 15.5504Z" fill="#CED0D6"/>
<path d="M14.9669 8.68247C15.1627 6.67097 14.4904 4.59088 12.9497 3.05025C10.2161 0.316582 5.78392 0.316582 3.05025 3.05025C0.316582 5.78392 0.316582 10.2161 3.05025 12.9497C4.64674 14.5462 6.82253 15.2104 8.90099 14.9421C8.86799 14.8867 8.83603 14.8304 8.80513 14.7731L8.80393 14.7709C8.43205 14.0772 8.255 13.313 8.255 12.5C8.255 11.6875 8.43184 10.9243 8.80453 10.2329C9.17423 9.54376 9.69598 8.99073 10.3628 8.59524C11.0346 8.19355 11.7825 8 12.581 8C13.2562 8 13.9002 8.13919 14.4992 8.42556C14.662 8.5025 14.818 8.58812 14.9669 8.68247Z" fill="#2F2936"/>
<path d="M7.06044 2.07351L6.9048 1.08569C5.49374 1.30801 4.13762 1.96286 3.05024 3.05024C1.96286 4.13762 1.30801 5.49374 1.08569 6.9048L2.07351 7.06044C2.26402 5.85123 2.82444 4.69026 3.75735 3.75735C4.69026 2.82444 5.85123 2.26402 7.06044 2.07351Z" fill="#A571E6"/>
<path d="M13.9265 7.06044L14.9143 6.9048C14.692 5.49374 14.0371 4.13762 12.9497 3.05024C11.8624 1.96286 10.5062 1.30801 9.09518 1.08569L8.93954 2.07351C10.1487 2.26402 11.3097 2.82444 12.2426 3.75735C13.1755 4.69026 13.736 5.85123 13.9265 7.06044Z" fill="#A571E6"/>
<path d="M1.08569 9.09518C1.30801 10.5062 1.96286 11.8624 3.05024 12.9497C4.13762 14.0371 5.49374 14.692 6.9048 14.9143L7.06043 13.9265C5.85123 13.736 4.69026 13.1755 3.75735 12.2426C2.82444 11.3097 2.26402 10.1487 2.07351 8.93954L1.08569 9.09518Z" fill="#A571E6"/>
<path fill-rule="evenodd" clip-rule="evenodd" d="M6.68247 5.99832C7.06317 5.37098 7.72684 5 8.57063 5C10.029 5 11.0472 6.1155 11.0472 7.74269C11.0472 7.92935 11.0338 8.10928 11.0079 8.28156C10.7861 8.36646 10.5708 8.47087 10.3628 8.59524C9.69598 8.99073 9.17423 9.54376 8.80453 10.2329C8.76008 10.3153 8.71841 10.3988 8.6795 10.4833C8.64349 10.4847 8.6072 10.4854 8.57063 10.4854C7.74168 10.4854 7.08671 10.1272 6.70294 9.52032V12H5.70001V5.12281H6.68247V5.99832ZM6.70294 7.74269C6.70294 8.8326 7.38349 9.5848 8.36083 9.5848C9.33305 9.5848 10.0034 8.8326 10.0034 7.74269C10.0034 6.65278 9.33305 5.90058 8.36083 5.90058C7.38349 5.90058 6.70294 6.65278 6.70294 7.74269Z" fill="#A571E6"/>
</svg>
