<svg width="16" height="16" viewBox="0 0 16 16" fill="none" xmlns="http://www.w3.org/2000/svg">
<path d="M10.8745 15.5504C11.3805 15.8501 11.9493 16 12.581 16C13.1836 16 13.7251 15.8663 14.2053 15.5988C14.6887 15.328 15.0657 14.9558 15.3364 14.482C15.6105 14.0051 15.7474 13.4701 15.7474 12.8771V12.3356H12.9677V13.2977H14.5767C14.5515 13.596 14.4599 13.8651 14.302 14.105C14.1279 14.3693 13.8911 14.5755 13.5913 14.7238C13.2948 14.8688 12.9629 14.9413 12.5955 14.9413C12.1862 14.9413 11.8188 14.8381 11.4933 14.6319C11.1678 14.4224 10.9132 14.134 10.7295 13.7666C10.549 13.396 10.4587 12.9738 10.4587 12.5C10.4587 12.0262 10.549 11.6057 10.7295 11.2383C10.9132 10.8676 11.1661 10.5792 11.4884 10.3729C11.8139 10.1635 12.1797 10.0587 12.5858 10.0587C12.9081 10.0587 13.2078 10.1215 13.485 10.2472C13.7654 10.3729 13.9974 10.5421 14.1811 10.7548C14.368 10.9675 14.4889 11.2044 14.5437 11.4655H15.7087C15.654 11.0078 15.4815 10.5921 15.1914 10.2182C14.9014 9.84116 14.5276 9.54467 14.0699 9.32873C13.6123 9.10958 13.116 9 12.581 9C11.9493 9 11.3805 9.15148 10.8745 9.45442C10.3685 9.75414 9.97209 10.1715 9.68525 10.7065C9.39842 11.2383 9.255 11.8361 9.255 12.5C9.255 13.1639 9.39842 13.7634 9.68525 14.2983C9.97209 14.8301 10.3685 15.2475 10.8745 15.5504Z" fill="#6C707E"/>
<path d="M14.9671 8.68265C14.9889 8.45804 15 8.23032 15 8C15 4.13401 11.866 1 8 1C4.13401 1 1 4.13401 1 8C1 11.866 4.13401 15 8 15C8.30537 15 8.60618 14.9804 8.90123 14.9425C8.86814 14.887 8.8361 14.8305 8.80513 14.7731L8.80393 14.7709C8.43205 14.0772 8.255 13.313 8.255 12.5C8.255 11.6875 8.43184 10.9243 8.80453 10.2329C9.17423 9.54376 9.69598 8.99073 10.3628 8.59524C11.0346 8.19355 11.7825 8 12.581 8C13.2562 8 13.9002 8.13919 14.4992 8.42556C14.6621 8.50255 14.8182 8.58823 14.9671 8.68265Z" fill="#F2FCF3"/>
<path fill-rule="evenodd" clip-rule="evenodd" d="M9.72989 6.35862V5.38506H10.6552V8.32184C10.6552 8.35973 10.6565 8.39709 10.6591 8.43392C10.5588 8.48336 10.46 8.53712 10.3628 8.59524C9.69598 8.99073 9.17423 9.54376 8.80453 10.2329C8.72518 10.3801 8.65471 10.5305 8.59293 10.6841C8.36685 10.744 8.12498 10.7759 7.87126 10.7759C6.38276 10.7759 5.26437 9.60115 5.26437 8.04023C5.26437 6.47931 6.38276 5.3046 7.87126 5.3046C8.71609 5.3046 9.35494 5.69 9.70012 6.35862H9.72989ZM6.27011 8.04023C6.27011 9.09425 6.99425 9.8908 7.95977 9.8908C8.92529 9.8908 9.64943 9.09425 9.64943 8.04023C9.64943 6.98621 8.92529 6.18966 7.95977 6.18966C6.99425 6.18966 6.27011 6.98621 6.27011 8.04023Z" fill="#208A3C"/>
<path d="M14.9252 8.6564C14.9744 8.42489 15 8.17851 15 7.91954C15 4.11379 11.854 1 8 1C4.14598 1 1 4.18621 1 8.08046C1 11.8862 4.14598 15 8 15C8.30591 15 8.60677 14.9791 8.90002 14.9405C8.86736 14.8856 8.83573 14.8298 8.80513 14.7731L8.80393 14.7709C8.66665 14.5148 8.55591 14.2491 8.47084 13.9749C8.31695 13.9876 8.15993 13.9943 8 13.9943C4.70115 13.9943 2.00575 11.331 2.00575 8.08046C2.00575 4.74138 4.70115 2.00575 8 2.00575C11.2989 2.00575 13.9943 4.66897 13.9943 7.91954C13.9943 8.02172 13.9886 8.12089 13.9775 8.21676C14.1548 8.27458 14.3288 8.34412 14.4992 8.42556C14.6469 8.49535 14.789 8.57229 14.9252 8.6564Z" fill="#208A3C"/>
</svg>
