<svg width="16" height="16" viewBox="0 0 16 16" fill="none" xmlns="http://www.w3.org/2000/svg">
<path d="M10.8745 15.5504C11.3805 15.8501 11.9493 16 12.581 16C13.1836 16 13.7251 15.8663 14.2053 15.5988C14.6887 15.328 15.0657 14.9558 15.3364 14.482C15.6105 14.0051 15.7474 13.4701 15.7474 12.8771V12.3356H12.9677V13.2977H14.5767C14.5515 13.596 14.4599 13.8651 14.302 14.105C14.1279 14.3693 13.8911 14.5755 13.5913 14.7238C13.2948 14.8688 12.9629 14.9413 12.5955 14.9413C12.1862 14.9413 11.8188 14.8381 11.4933 14.6319C11.1678 14.4224 10.9132 14.134 10.7295 13.7666C10.549 13.396 10.4587 12.9738 10.4587 12.5C10.4587 12.0262 10.549 11.6057 10.7295 11.2383C10.9132 10.8676 11.1661 10.5792 11.4884 10.3729C11.8139 10.1635 12.1797 10.0587 12.5858 10.0587C12.9081 10.0587 13.2078 10.1215 13.485 10.2472C13.7654 10.3729 13.9974 10.5421 14.1811 10.7548C14.368 10.9675 14.4889 11.2044 14.5437 11.4655H15.7087C15.654 11.0078 15.4815 10.5921 15.1914 10.2182C14.9014 9.84116 14.5276 9.54467 14.0699 9.32873C13.6123 9.10958 13.116 9 12.581 9C11.9493 9 11.3805 9.15148 10.8745 9.45442C10.3685 9.75414 9.97209 10.1715 9.68525 10.7065C9.39842 11.2383 9.255 11.8361 9.255 12.5C9.255 13.1639 9.39842 13.7634 9.68525 14.2983C9.97209 14.8301 10.3685 15.2475 10.8745 15.5504Z" fill="#CED0D6"/>
<path d="M14.9671 8.68265C14.9889 8.45804 15 8.23032 15 8C15 4.13401 11.866 1 8 1C4.13401 1 1 4.13401 1 8C1 11.866 4.13401 15 8 15C8.30537 15 8.60618 14.9804 8.90123 14.9425C8.86814 14.887 8.8361 14.8305 8.80513 14.7731L8.80393 14.7709C8.43205 14.0772 8.255 13.313 8.255 12.5C8.255 11.6875 8.43184 10.9243 8.80453 10.2329C9.17423 9.54376 9.69598 8.99073 10.3628 8.59524C11.0346 8.19355 11.7825 8 12.581 8C13.2562 8 13.9002 8.13919 14.4992 8.42556C14.6621 8.50255 14.8182 8.58823 14.9671 8.68265Z" fill="#45322B"/>
<path d="M14.9671 8.68265C14.9889 8.45804 15 8.23032 15 8C15 4.13401 11.866 1 8 1C4.13401 1 1 4.13401 1 8C1 11.866 4.13401 15 8 15C8.30537 15 8.60618 14.9804 8.90123 14.9425C8.86814 14.887 8.8361 14.8305 8.80513 14.7731L8.80393 14.7709C8.66777 14.5169 8.55773 14.2535 8.47293 13.9816C8.31689 13.9938 8.15917 14 8 14C4.68629 14 2 11.3137 2 8C2 4.68629 4.68629 2 8 2C11.3137 2 14 4.68629 14 8C14 8.0746 13.9986 8.14888 13.9959 8.22281C14.1669 8.27941 14.3348 8.34694 14.4992 8.42556C14.6621 8.50255 14.8182 8.58823 14.9671 8.68265Z" fill="#C77D55"/>
<path d="M9.79391 8.99999C9.45877 9.28392 9.17317 9.61865 8.93844 9.99999H5.00002C4.72388 9.99999 4.50002 9.77614 4.50002 9.49999C4.50002 9.22385 4.72388 8.99999 5.00002 8.99999H9.79391Z" fill="#C77D55"/>
<path d="M4.5 6.5C4.5 6.22386 4.72386 6 5 6H11C11.2761 6 11.5 6.22386 11.5 6.5C11.5 6.77614 11.2761 7 11 7H5C4.72386 7 4.5 6.77614 4.5 6.5Z" fill="#C77D55"/>
</svg>
