<!-- Copyright 2000-2022 JetBrains s.r.o. and contributors. Use of this source code is governed by the Apache 2.0 license. -->
<svg width="16" height="16" viewBox="0 0 16 16" fill="none" xmlns="http://www.w3.org/2000/svg">
<rect x="2.5" y="2.5" width="11" height="11" rx="1.5" fill="#F2FCF3" stroke="#5FB865"/>
<path d="M7.94995 11.62C7.29662 11.62 6.70828 11.465 6.18495 11.155C5.66162 10.8417 5.25162 10.41 4.95495 9.86C4.65828 9.30667 4.50995 8.68667 4.50995 8C4.50995 7.31334 4.65828 6.695 4.95495 6.145C5.25162 5.59167 5.66162 5.16 6.18495 4.85C6.70828 4.53667 7.29662 4.38 7.94995 4.38C8.50328 4.38 9.01662 4.49334 9.48995 4.72C9.96328 4.94334 10.3499 5.25 10.6499 5.64C10.9499 6.02667 11.1283 6.45667 11.1849 6.93H9.97995C9.92328 6.66 9.79828 6.415 9.60495 6.195C9.41495 5.975 9.17495 5.8 8.88495 5.67C8.59828 5.54 8.28828 5.475 7.95495 5.475C7.53495 5.475 7.15662 5.58334 6.81995 5.8C6.48662 6.01334 6.22495 6.31167 6.03495 6.695C5.84828 7.075 5.75495 7.51 5.75495 8C5.75495 8.49 5.84828 8.92667 6.03495 9.31C6.22495 9.69 6.48828 9.98834 6.82495 10.205C7.16162 10.4183 7.54162 10.525 7.96495 10.525C8.34495 10.525 8.68828 10.45 8.99495 10.3C9.30495 10.1467 9.54995 9.93334 9.72995 9.66C9.90995 9.38667 10.0066 9.07667 10.0199 8.73L10.0249 8.825H8.34995V7.83H11.2249V8.39C11.2249 9.00334 11.0833 9.55667 10.7999 10.05C10.5199 10.54 10.1299 10.925 9.62995 11.205C9.13328 11.4817 8.57328 11.62 7.94995 11.62Z" fill="#5FB865"/>
</svg>
