<svg width="16" height="16" viewBox="0 0 16 16" fill="none" xmlns="http://www.w3.org/2000/svg">
<rect x="2.5" y="2.5" width="11" height="11" rx="1.5" fill="#253627" stroke="#57965C"/>
<path d="M6.18495 11.155C6.70828 11.465 7.29662 11.62 7.94995 11.62C8.57328 11.62 9.13328 11.4817 9.62995 11.205C10.1299 10.925 10.5199 10.54 10.7999 10.05C11.0833 9.55667 11.2249 9.00335 11.2249 8.39001V7.83H8.34995V8.825H10.0141C9.98806 9.13355 9.89334 9.41189 9.72995 9.66C9.54995 9.93334 9.30495 10.1467 8.99495 10.3C8.68828 10.45 8.34495 10.525 7.96495 10.525C7.54162 10.525 7.16162 10.4183 6.82495 10.205C6.48828 9.98834 6.22495 9.69001 6.03495 9.31001C5.84828 8.92668 5.75495 8.49 5.75495 8C5.75495 7.51 5.84828 7.07501 6.03495 6.695C6.22495 6.31167 6.48662 6.01335 6.81995 5.8C7.15662 5.58334 7.53495 5.475 7.95495 5.475C8.28828 5.475 8.59828 5.54 8.88495 5.67C9.17495 5.8 9.41495 5.975 9.60495 6.195C9.79828 6.415 9.92328 6.66 9.97995 6.93H11.1849C11.1283 6.45667 10.9499 6.02667 10.6499 5.64C10.3499 5.25 9.96328 4.94334 9.48995 4.72C9.01662 4.49334 8.50328 4.38 7.94995 4.38C7.29662 4.38 6.70828 4.53667 6.18495 4.85C5.66162 5.16 5.25162 5.59167 4.95495 6.145C4.65828 6.695 4.50995 7.31334 4.50995 8C4.50995 8.68667 4.65828 9.30667 4.95495 9.86C5.25162 10.41 5.66162 10.8417 6.18495 11.155Z" fill="#57965C"/>
</svg>
