<!-- Copyright 2000-2023 JetBrains s.r.o. and contributors. Use of this source code is governed by the Apache 2.0 license. -->
<svg width="16" height="16" viewBox="0 0 16 16" fill="none" xmlns="http://www.w3.org/2000/svg">
<path d="M14.9671 8.68265C14.9889 8.45804 15 8.23032 15 8C15 4.13401 11.866 1 8 1C4.13401 1 1 4.13401 1 8C1 11.866 4.13401 15 8 15C8.30537 15 8.60618 14.9804 8.90123 14.9425C8.86814 14.887 8.8361 14.8305 8.80513 14.7731L8.80393 14.7709C8.43205 14.0772 8.255 13.313 8.255 12.5C8.255 11.6875 8.43184 10.9243 8.80453 10.2329C9.17423 9.54376 9.69598 8.99073 10.3628 8.59524C11.0346 8.19355 11.7825 8 12.581 8C13.2562 8 13.9002 8.13919 14.4992 8.42556C14.6621 8.50255 14.8182 8.58823 14.9671 8.68265Z" fill="#F2FCF3"/>
<path d="M14.9671 8.68265C14.9889 8.45804 15 8.23032 15 8C15 4.13401 11.866 1 8 1C4.13401 1 1 4.13401 1 8C1 11.866 4.13401 15 8 15C8.30537 15 8.60618 14.9804 8.90123 14.9425C8.86814 14.887 8.8361 14.8305 8.80513 14.7731L8.80393 14.7709C8.66777 14.5169 8.55773 14.2535 8.47293 13.9816C8.31689 13.9938 8.15917 14 8 14C4.68629 14 2 11.3137 2 8C2 4.68629 4.68629 2 8 2C11.3137 2 14 4.68629 14 8C14 8.0746 13.9986 8.14888 13.9959 8.22281C14.1669 8.27941 14.3348 8.34694 14.4992 8.42556C14.6621 8.50255 14.8182 8.58823 14.9671 8.68265Z" fill="#208A3C"/>
<path d="M8.27809 12H7.5V6H5V5H11V6H8.5V10.9366C8.38589 11.278 8.31256 11.6332 8.27809 12Z" fill="#208A3C"/>
<path d="M10.8753 15.5504C11.3813 15.8501 11.9502 16 12.5818 16C13.1845 16 13.7259 15.8663 14.2061 15.5988C14.6895 15.328 15.0666 14.9558 15.3373 14.482C15.6113 14.0051 15.7482 13.4701 15.7482 12.8771V12.3356H12.9686V13.2977H14.5775C14.5524 13.596 14.4608 13.8651 14.3028 14.105C14.1288 14.3693 13.8919 14.5755 13.5922 14.7238C13.2957 14.8688 12.9637 14.9413 12.5963 14.9413C12.187 14.9413 11.8196 14.8381 11.4941 14.6319C11.1686 14.4224 10.914 14.134 10.7303 13.7666C10.5498 13.396 10.4596 12.9738 10.4596 12.5C10.4596 12.0262 10.5498 11.6057 10.7303 11.2383C10.914 10.8676 11.167 10.5792 11.4893 10.3729C11.8148 10.1635 12.1806 10.0587 12.5867 10.0587C12.9089 10.0587 13.2087 10.1215 13.4858 10.2472C13.7662 10.3729 13.9983 10.5421 14.182 10.7548C14.3689 10.9675 14.4897 11.2044 14.5445 11.4655H15.7095C15.6548 11.0078 15.4823 10.5921 15.1923 10.2182C14.9022 9.84116 14.5284 9.54467 14.0708 9.32873C13.6131 9.10958 13.1168 9 12.5818 9C11.9502 9 11.3813 9.15148 10.8753 9.45442C10.3694 9.75414 9.97294 10.1715 9.68611 10.7065C9.39927 11.2383 9.25586 11.8361 9.25586 12.5C9.25586 13.1639 9.39927 13.7634 9.68611 14.2983C9.97294 14.8301 10.3694 15.2475 10.8753 15.5504Z" fill="#208A3C"/>
</svg>
