<!-- Copyright 2000-2023 JetBrains s.r.o. and contributors. Use of this source code is governed by the Apache 2.0 license. -->
<svg width="16" height="16" viewBox="0 0 16 16" fill="none" xmlns="http://www.w3.org/2000/svg">
<path d="M14.2834 7.3576L13.8168 7.53738L13.8176 7.53927L14.2834 7.3576ZM14.2657 7.31157L14.7322 7.13179L14.7313 7.12953L14.2657 7.31157ZM12.0382 2.5L12.4895 2.28489C12.4047 2.10698 12.2234 1.99548 12.0263 2.00014C11.8293 2.0048 11.6534 2.12477 11.5771 2.30648L12.0382 2.5ZM10.4187 6.5V7H10.7791L10.893 6.65806L10.4187 6.5ZM5.58161 6.5L5.10725 6.65806L5.22119 7H5.58161V6.5ZM3.96196 2.50225L4.42294 2.3086C4.34663 2.12697 4.17078 2.00707 3.97382 2.00239C3.77686 1.99772 3.59552 2.10914 3.51069 2.28695L3.96196 2.50225ZM1.73514 7.31208L2.19921 7.49824L2.20092 7.49387L1.73514 7.31208ZM1.71688 7.3576L1.2528 7.17145L1.25109 7.17582L1.71688 7.3576ZM2.80708 11.0796L3.12341 10.6923L3.11404 10.6847L3.10431 10.6775L2.80708 11.0796ZM2.81334 11.0847L2.49701 11.4719L2.50895 11.4816L2.52147 11.4906L2.81334 11.0847ZM2.82899 11.0959L3.12505 10.693L3.12085 10.69L2.82899 11.0959ZM5.52058 13.0735L5.81828 12.6718L5.81663 12.6706L5.52058 13.0735ZM6.85595 14.0631L7.15387 13.6615L7.15364 13.6613L6.85595 14.0631ZM7.66655 14.6645L7.36864 15.066L7.36874 15.0661L7.66655 14.6645ZM7.99727 14.7733V14.2733V14.7733ZM8.32798 14.6645L8.03018 14.2628L8.03016 14.2628L8.32798 14.6645ZM9.13911 14.0631L8.84142 13.6613L8.84131 13.6614L9.13911 14.0631ZM10.4745 13.0735L10.1787 12.6704L10.1768 12.6718L10.4745 13.0735ZM13.1854 11.0842L12.8985 10.6745L12.8896 10.6811L13.1854 11.0842ZM13.1927 11.0791L13.4795 11.4888L13.4899 11.4811L13.1927 11.0791ZM14.75 7.17782L14.7322 7.13179L13.7991 7.49136L13.8168 7.53738L14.75 7.17782ZM10.4187 6H5.58161V7H10.4187V6ZM1.27108 7.12594L1.25282 7.17145L2.18094 7.54374L2.19919 7.49823L1.27108 7.12594ZM1.25109 7.17582C0.95637 7.93102 0.920012 8.76021 1.14776 9.53773L2.10744 9.25663C1.94188 8.69143 1.9682 8.08893 2.18267 7.53938L1.25109 7.17582ZM1.14776 9.53773C1.37546 10.3151 1.85426 10.997 2.50985 11.4816L3.10431 10.6775C2.62217 10.3211 2.27303 9.82196 2.10744 9.25663L1.14776 9.53773ZM2.49075 11.4668L2.49701 11.4719L3.12967 10.6975L3.12341 10.6923L2.49075 11.4668ZM2.52147 11.4906L2.53712 11.5019L3.12085 10.69L3.1052 10.6787L2.52147 11.4906ZM2.53294 11.4989L5.22454 13.4764L5.81663 12.6706L3.12503 10.693L2.53294 11.4989ZM5.22289 13.4752L6.55826 14.4648L7.15364 13.6613L5.81827 12.6718L5.22289 13.4752ZM6.55803 14.4646L7.36864 15.066L7.96447 14.2629L7.15387 13.6615L6.55803 14.4646ZM7.36874 15.0661C7.55077 15.2011 7.77146 15.2733 7.99727 15.2733V14.2733C7.98431 14.2733 7.97277 14.2691 7.96437 14.2628L7.36874 15.0661ZM7.99727 15.2733C8.22307 15.2733 8.44377 15.2011 8.62579 15.0661L8.03016 14.2628C8.02176 14.2691 8.01022 14.2733 7.99727 14.2733V15.2733ZM8.62577 15.0661L9.4369 14.4647L8.84131 13.6614L8.03018 14.2628L8.62577 15.0661ZM9.4368 14.4648L10.7722 13.4752L10.1768 12.6718L8.84142 13.6613L9.4368 14.4648ZM10.7703 13.4766L13.4812 11.4873L12.8896 10.6811L10.1787 12.6704L10.7703 13.4766ZM13.4721 11.4938L13.4794 11.4886L12.9059 10.6695L12.8986 10.6746L13.4721 11.4938ZM13.4899 11.4811C14.1454 10.9966 14.6243 10.3149 14.8521 9.53762L13.8924 9.25636C13.7268 9.8216 13.3776 10.3206 12.8955 10.677L13.4899 11.4811ZM14.8521 9.53762C15.0799 8.76022 15.0437 7.93112 14.7492 7.17593L13.8176 7.53927C14.0319 8.08881 14.0581 8.69125 13.8924 9.25636L14.8521 9.53762ZM3.96196 2.50225C3.51069 2.28695 3.51068 2.28697 3.51066 2.28701C3.51065 2.28704 3.51062 2.28709 3.51059 2.28715C3.51053 2.28728 3.51044 2.28746 3.51033 2.28771C3.51009 2.28821 3.50974 2.28895 3.50927 2.28993C3.50834 2.29188 3.50695 2.29479 3.50512 2.29863C3.50146 2.30631 3.49603 2.3177 3.48894 2.33258C3.47475 2.36234 3.45393 2.40607 3.42732 2.46197C3.37411 2.57379 3.29777 2.73436 3.20521 2.92947C3.02012 3.31965 2.77009 3.84818 2.51044 4.40132C1.99622 5.49678 1.42978 6.71926 1.26935 7.1303L2.20092 7.49387C2.34585 7.12253 2.89282 5.9401 3.41567 4.82624C3.67456 4.27471 3.92398 3.74748 4.10871 3.35806C4.20106 3.16338 4.27722 3.00319 4.33028 2.8917C4.35681 2.83595 4.37756 2.79238 4.39168 2.76277C4.39873 2.74796 4.40413 2.73664 4.40776 2.72903C4.40957 2.72522 4.41094 2.72235 4.41186 2.72042C4.41232 2.71946 4.41266 2.71874 4.41289 2.71826C4.41301 2.71802 4.41309 2.71784 4.41315 2.71772C4.41318 2.71766 4.4132 2.71762 4.41321 2.71759C4.41323 2.71756 4.41323 2.71755 3.96196 2.50225ZM6.05597 6.34194C5.93446 5.97726 5.52068 4.95714 5.14817 4.05279C4.95966 3.59515 4.77838 3.15918 4.64426 2.83768C4.57719 2.67691 4.52189 2.54471 4.48334 2.45267C4.46407 2.40665 4.44898 2.37067 4.43871 2.34618C4.43357 2.33393 4.42963 2.32456 4.42698 2.31823C4.42565 2.31507 4.42465 2.31267 4.42397 2.31106C4.42363 2.31025 4.42337 2.30964 4.4232 2.30923C4.42312 2.30903 4.42305 2.30887 4.42301 2.30877C4.42298 2.30871 4.42297 2.30867 4.42295 2.30865C4.42294 2.30862 4.42294 2.3086 3.96196 2.50225C3.50098 2.6959 3.50099 2.69591 3.501 2.69593C3.50101 2.69596 3.50102 2.69599 3.50104 2.69604C3.50108 2.69614 3.50114 2.69628 3.50122 2.69648C3.50139 2.69687 3.50164 2.69746 3.50197 2.69825C3.50263 2.69982 3.50362 2.70218 3.50493 2.70531C3.50755 2.71155 3.51145 2.72085 3.51656 2.73301C3.52676 2.75734 3.54177 2.79314 3.56097 2.83898C3.59936 2.93064 3.65448 3.06241 3.72135 3.2227C3.85511 3.54332 4.03578 3.97783 4.22354 4.43366C4.60356 5.35626 4.99961 6.335 5.10725 6.65806L6.05597 6.34194ZM12.0382 2.5C11.5771 2.30648 11.5771 2.3065 11.5771 2.30653C11.5771 2.30655 11.5771 2.3066 11.5771 2.30665C11.577 2.30675 11.577 2.30691 11.5769 2.30712C11.5767 2.30753 11.5764 2.30814 11.5761 2.30894C11.5754 2.31056 11.5744 2.31296 11.5731 2.31612C11.5704 2.32245 11.5665 2.33183 11.5614 2.34409C11.5511 2.3686 11.536 2.40461 11.5167 2.45067C11.4782 2.54277 11.4229 2.67508 11.3558 2.83597C11.2217 3.15771 11.0404 3.59401 10.8519 4.05196C10.4794 4.95694 10.0657 5.97756 9.9443 6.34194L10.893 6.65806C11.0006 6.33515 11.3967 5.35578 11.7767 4.43258C11.9644 3.97644 12.1451 3.5416 12.2788 3.22073C12.3457 3.06032 12.4008 2.92845 12.4392 2.83671C12.4584 2.79084 12.4734 2.755 12.4836 2.73065C12.4887 2.71848 12.4926 2.70918 12.4953 2.70293C12.4966 2.6998 12.4976 2.69744 12.4982 2.69586C12.4985 2.69508 12.4988 2.69448 12.499 2.69409C12.499 2.6939 12.4991 2.69375 12.4991 2.69365C12.4992 2.69361 12.4992 2.69357 12.4992 2.69355C12.4992 2.69353 12.4992 2.69352 12.0382 2.5ZM14.7313 7.12953C14.5739 6.72674 14.0073 5.50389 13.4922 4.40607C13.2322 3.85173 12.9815 3.3215 12.7959 2.92991C12.7031 2.73409 12.6265 2.57289 12.5732 2.46063C12.5465 2.40449 12.5256 2.36059 12.5113 2.3307C12.5042 2.31576 12.4988 2.30432 12.4951 2.29661C12.4933 2.29276 12.4919 2.28983 12.4909 2.28787C12.4905 2.28689 12.4901 2.28615 12.4899 2.28565C12.4898 2.2854 12.4897 2.28521 12.4896 2.28508C12.4896 2.28502 12.4896 2.28497 12.4896 2.28494C12.4895 2.28491 12.4895 2.28489 12.0382 2.5C11.5868 2.71511 11.5868 2.71513 11.5868 2.71515C11.5868 2.71518 11.5869 2.71523 11.5869 2.71529C11.5869 2.71541 11.587 2.71559 11.5871 2.71583C11.5874 2.71631 11.5877 2.71704 11.5882 2.718C11.5891 2.71993 11.5905 2.72282 11.5923 2.72665C11.5959 2.73429 11.6014 2.74566 11.6084 2.76053C11.6226 2.79028 11.6434 2.83403 11.67 2.89001C11.7233 3.00197 11.7997 3.1628 11.8923 3.3582C12.0775 3.74905 12.3276 4.27804 12.5869 4.83082C13.1107 5.94722 13.6579 7.13015 13.8 7.49362L14.7313 7.12953Z" fill="#CED0D6"/>
</svg>
