<!-- Copyright 2000-2023 JetBrains s.r.o. and contributors. Use of this source code is governed by the Apache 2.0 license. -->
<svg width="20" height="20" viewBox="0 0 20 20" fill="none" xmlns="http://www.w3.org/2000/svg">
<path d="M18.1646 8.83341L17.4648 9.10309L17.4659 9.10591L18.1646 8.83341ZM18.1415 8.77341L18.8413 8.50372L18.84 8.50034L18.1415 8.77341ZM15.2377 2.50098L15.9147 2.17831C15.7874 1.9111 15.5148 1.74379 15.2189 1.75121C14.923 1.75864 14.6591 1.93941 14.5453 2.21267L15.2377 2.50098ZM13.1265 7.75V8.5H13.6671L13.838 7.98709L13.1265 7.75ZM6.82084 7.75L6.10931 7.98709L6.28021 8.5H6.82084V7.75ZM4.70944 2.50391L5.40173 2.2154C5.2879 1.94227 5.02411 1.76159 4.7283 1.75415C4.43249 1.74671 4.15995 1.9139 4.03254 2.18097L4.70944 2.50391ZM1.80653 8.77407L2.50264 9.0533L2.5052 9.04676L1.80653 8.77407ZM1.78273 8.83341L1.08661 8.55418L1.08405 8.56074L1.78273 8.83341ZM3.20393 13.6854L3.67842 13.1046L3.66437 13.0931L3.64977 13.0823L3.20393 13.6854ZM3.21209 13.6921L2.73759 14.2729L2.75549 14.2875L2.77426 14.301L3.21209 13.6921ZM3.23249 13.7067L3.67658 13.1023L3.67031 13.0978L3.23249 13.7067ZM6.74129 16.2847L7.18783 15.6822L7.18535 15.6803L6.74129 16.2847ZM8.48208 17.5747L8.92896 16.9724L8.92862 16.9722L8.48208 17.5747ZM9.5388 18.3587L9.09192 18.9611L9.09208 18.9612L9.5388 18.3587ZM9.96992 18.5006V17.7506V18.5006ZM10.401 18.3587L9.95435 17.7563L9.95432 17.7563L10.401 18.3587ZM11.4584 17.5747L11.0119 16.9722L11.0118 16.9723L11.4584 17.5747ZM13.1992 16.2847L12.7555 15.6801L12.7527 15.6822L13.1992 16.2847ZM16.7332 13.6914L16.3031 13.077L16.2962 13.0818L16.2895 13.0867L16.7332 13.6914ZM16.7427 13.6847L17.1729 14.2991L17.1808 14.2936L17.1885 14.2879L16.7427 13.6847ZM18.8644 8.56373L18.8413 8.50373L17.4416 9.04309L17.4648 9.10309L18.8644 8.56373ZM13.1265 7H6.82084V8.5H13.1265V7ZM1.11044 8.49486L1.08664 8.55419L2.47881 9.11263L2.50261 9.05329L1.11044 8.49486ZM1.08405 8.56074C0.691962 9.56542 0.643579 10.6686 0.946577 11.7031L2.3861 11.2814C2.17639 10.5655 2.2097 9.80229 2.48141 9.10607L1.08405 8.56074ZM0.946577 11.7031C1.24952 12.7373 1.88642 13.6441 2.75808 14.2885L3.64977 13.0823C3.03827 12.6303 2.59586 11.9976 2.3861 11.2814L0.946577 11.7031ZM2.72943 14.2662L2.73759 14.2729L3.68658 13.1112L3.67842 13.1046L2.72943 14.2662ZM2.77426 14.301L2.79466 14.3157L3.67031 13.0978L3.64991 13.0831L2.77426 14.301ZM2.78842 14.3111L6.29722 16.8891L7.18535 15.6803L3.67656 13.1023L2.78842 14.3111ZM6.29475 16.8873L8.03555 18.1773L8.92862 16.9722L7.18782 15.6822L6.29475 16.8873ZM8.0352 18.1771L9.09192 18.9611L9.98568 17.7564L8.92896 16.9724L8.0352 18.1771ZM9.09208 18.9612C9.34642 19.1498 9.65466 19.2506 9.96992 19.2506V17.7506C9.97394 17.7506 9.97942 17.7518 9.98553 17.7563L9.09208 18.9612ZM9.96992 19.2506C10.2852 19.2506 10.5934 19.1498 10.8478 18.9612L9.95432 17.7563C9.96042 17.7518 9.96591 17.7506 9.96992 17.7506V19.2506ZM10.8477 18.9612L11.9051 18.1772L11.0118 16.9723L9.95435 17.7563L10.8477 18.9612ZM11.905 18.1773L13.6458 16.8873L12.7527 15.6822L11.0119 16.9722L11.905 18.1773ZM13.643 16.8894L17.1769 14.2961L16.2895 13.0867L12.7555 15.6801L13.643 16.8894ZM17.1633 14.3058L17.1729 14.2991L16.3126 13.0704L16.3031 13.077L17.1633 14.3058ZM17.1885 14.2879C18.0601 13.6436 18.6971 12.737 19.0002 11.7029L17.5607 11.281C17.3509 11.9971 16.9084 12.6297 16.2969 13.0816L17.1885 14.2879ZM19.0002 11.7029C19.3033 10.6687 19.2552 9.56557 18.8633 8.56091L17.4659 9.10591C17.7374 9.80211 17.7705 10.5652 17.5607 11.281L19.0002 11.7029ZM4.70944 2.50391C4.03254 2.18097 4.03252 2.18099 4.0325 2.18103C4.03248 2.18108 4.03245 2.18114 4.03241 2.18122C4.03233 2.18139 4.03222 2.18163 4.03206 2.18196C4.03175 2.18261 4.03129 2.18357 4.03068 2.18485C4.02947 2.1874 4.02765 2.1912 4.02527 2.19621C4.02049 2.20622 4.01341 2.22108 4.00416 2.24049C3.98567 2.2793 3.95851 2.33631 3.92382 2.40921C3.85443 2.55501 3.75489 2.76436 3.63422 3.01876C3.39289 3.52748 3.06689 4.2166 2.72834 4.93783C2.05884 6.36409 1.3185 7.96166 1.10785 8.50139L2.5052 9.04676C2.69261 8.56657 3.40373 7.02906 4.08618 5.57522C4.4236 4.8564 4.74869 4.16922 4.98946 3.66165C5.10984 3.40789 5.2091 3.19911 5.27826 3.05379C5.31283 2.98114 5.33988 2.92436 5.35827 2.88577C5.36747 2.86647 5.3745 2.85172 5.37923 2.8418C5.38159 2.83685 5.38338 2.8331 5.38457 2.8306C5.38517 2.82935 5.38561 2.82841 5.38591 2.82778C5.38606 2.82747 5.38617 2.82724 5.38625 2.82708C5.38628 2.82701 5.38631 2.82695 5.38633 2.82691C5.38634 2.82688 5.38635 2.82686 4.70944 2.50391ZM7.53238 7.51291C7.37299 7.03456 6.83239 5.69304 6.34731 4.50687C6.10153 3.90584 5.86517 3.33307 5.69031 2.91067C5.60286 2.69943 5.53076 2.52571 5.4805 2.40477C5.45537 2.34429 5.4357 2.297 5.4223 2.26481C5.4156 2.24871 5.41047 2.23638 5.40701 2.22807C5.40528 2.22392 5.40396 2.22076 5.40308 2.21864C5.40264 2.21758 5.4023 2.21678 5.40208 2.21624C5.40197 2.21597 5.40188 2.21576 5.40182 2.21562C5.40179 2.21555 5.40177 2.2155 5.40176 2.21546C5.40174 2.21543 5.40173 2.2154 4.70944 2.50391C4.01716 2.79242 4.01716 2.79243 4.01717 2.79246C4.01719 2.79249 4.0172 2.79254 4.01723 2.7926C4.01728 2.79273 4.01736 2.79292 4.01747 2.79318C4.01768 2.79369 4.01801 2.79447 4.01844 2.7955C4.0193 2.79757 4.02059 2.80066 4.0223 2.80476C4.02571 2.81297 4.0308 2.82517 4.03745 2.84115C4.05075 2.87311 4.07031 2.92015 4.09533 2.98035C4.14537 3.10077 4.21721 3.27387 4.30437 3.48441C4.47872 3.90556 4.7142 4.47622 4.95892 5.07464C5.45486 6.28738 5.96996 7.5689 6.10931 7.98709L7.53238 7.51291ZM15.2377 2.50098C14.5453 2.21267 14.5453 2.21269 14.5453 2.21272C14.5453 2.21276 14.5453 2.21281 14.5452 2.21288C14.5452 2.21302 14.5451 2.21323 14.545 2.2135C14.5448 2.21404 14.5444 2.21484 14.544 2.2159C14.5431 2.21803 14.5418 2.22118 14.54 2.22534C14.5366 2.23366 14.5315 2.246 14.5248 2.26211C14.5114 2.29433 14.4917 2.34165 14.4666 2.40217C14.4163 2.52322 14.3442 2.69707 14.2568 2.90846C14.0819 3.33119 13.8455 3.90437 13.5998 4.5058C13.1147 5.69281 12.5742 7.03497 12.4149 7.51291L13.838 7.98709C13.9773 7.56909 14.4924 6.28673 14.9883 5.07322C15.233 4.47439 15.4685 3.9033 15.6428 3.48182C15.73 3.27112 15.8019 3.09789 15.8519 2.97737C15.8769 2.91712 15.8965 2.87004 15.9098 2.83806C15.9164 2.82207 15.9215 2.80985 15.9249 2.80164C15.9266 2.79754 15.9279 2.79443 15.9288 2.79237C15.9292 2.79133 15.9295 2.79056 15.9298 2.79004C15.9299 2.78978 15.9299 2.78959 15.93 2.78947C15.93 2.7894 15.93 2.78936 15.93 2.78933C15.9301 2.7893 15.9301 2.78929 15.2377 2.50098ZM18.84 8.50034C18.6332 7.97141 17.8927 6.37335 17.2221 4.94404C16.883 4.22125 16.5562 3.52991 16.3142 3.01935C16.1932 2.76404 16.0934 2.55387 16.0238 2.40749C15.989 2.33429 15.9618 2.27704 15.9432 2.23807C15.9339 2.21859 15.9268 2.20367 15.922 2.19361C15.9196 2.18858 15.9178 2.18477 15.9166 2.1822C15.916 2.18092 15.9155 2.17995 15.9152 2.1793C15.9151 2.17898 15.9149 2.17873 15.9149 2.17857C15.9148 2.17848 15.9148 2.17842 15.9148 2.17838C15.9147 2.17833 15.9147 2.17831 15.2377 2.50098C14.5607 2.82365 14.5607 2.82366 14.5607 2.8237C14.5607 2.82374 14.5607 2.82379 14.5608 2.82387C14.5608 2.82402 14.5609 2.82426 14.5611 2.82457C14.5614 2.8252 14.5618 2.82614 14.5624 2.8274C14.5636 2.82992 14.5654 2.83368 14.5678 2.83866C14.5726 2.84862 14.5796 2.86344 14.5888 2.88282C14.6073 2.92158 14.6344 2.97861 14.6691 3.05156C14.7385 3.19748 14.8381 3.4071 14.9588 3.66179C15.2002 4.17124 15.5262 4.86071 15.8642 5.58117C16.5478 7.03834 17.2592 8.57651 17.443 9.04647L18.84 8.50034Z" fill="#CED0D6"/>
</svg>
