<!-- Copyright 2000-2025 JetBrains s.r.o. and contributors. Use of this source code is governed by the Apache 2.0 license. -->
<svg width="16" height="16" viewBox="0 0 16 16" xmlns="http://www.w3.org/2000/svg">
  <path fill="#EBECF0" stroke="#6C707E" stroke-linecap="round" stroke-linejoin="round" d="M4.5 9c-.55 0-1-.45-1-1s.45-1 1-1V3c0-.83.67-1.5 1.5-1.5h4c.83 0 1.5.67 1.5 1.5v4c.55 0 1 .45 1 1s-.45 1-1 1h-.04c-.24 1.69-1.7 3-3.46 3s-3.22-1.31-3.46-3H4.5Z"/>
  <path fill="none" stroke="#6C707E" stroke-linecap="round" stroke-linejoin="round" d="M5.93 11.32c-1.28.39-2.7 1.26-2.91 3.18m9.95 0c-.21-1.92-1.63-2.79-2.91-3.18M3 5.5h10"/>
</svg>
