<!-- Copyright 2000-2025 JetBrains s.r.o. and contributors. Use of this source code is governed by the Apache 2.0 license. -->
<svg width="16" height="16" viewBox="0 0 16 16" xmlns="http://www.w3.org/2000/svg">
  <path d="M10.2041 0.0107C11.2128 0.113 12 0.9643 12 2V7.5361C11.6904 7.357 11.3549 7.2173 11 7.126V2C11 1.4823 10.6067 1.0562 10.1025 1.0049L10 1H2C1.4477 1 1 1.4477 1 2V12C1 12.5523 1.4477 13 2 13H6.5361C6.754 13.3765 7.0313 13.714 7.3555 14H2L1.7959 13.9893C0.8543 13.8938 0.1062 13.1457 0.0107 12.2041L0 12V2C0 0.9643 0.7872 0.113 1.7959 0.0107L2 0H10L10.2041 0.0107Z" fill="#CED0D6"/>
  <path d="M6.5361 9C6.357 9.3096 6.2173 9.6451 6.126 10H3.5C3.2239 10 3 9.7761 3 9.5C3 9.2239 3.2239 9 3.5 9H6.5361Z" fill="#CED0D6"/>
  <path d="M8.5 6.5C8.7761 6.5 9 6.7239 9 7C9 7.0455 8.9918 7.089 8.9805 7.1309C8.6568 7.2159 8.3496 7.3414 8.0635 7.5H3.5C3.2239 7.5 3 7.2761 3 7C3 6.7239 3.2239 6.5 3.5 6.5H8.5Z" fill="#CED0D6"/>
  <path d="M8.5 4C8.7761 4 9 4.2239 9 4.5C9 4.7761 8.7761 5 8.5 5H3.5C3.2239 5 3 4.7761 3 4.5C3 4.2239 3.2239 4 3.5 4H8.5Z" fill="#CED0D6"/>
  <path fill-rule="evenodd" clip-rule="evenodd" d="M11.7383 13.4454C11.2479 13.7946 10.6479 14 10 14C8.3431 14 7 12.6569 7 11C7 9.3431 8.3431 8 10 8C11.6569 8 13 9.3431 13 11C13 11.6479 12.7946 12.2479 12.4454 12.7383L13.8536 14.1464C14.0488 14.3417 14.0488 14.6583 13.8536 14.8536C13.6583 15.0488 13.3417 15.0488 13.1464 14.8536L11.7383 13.4454ZM12 11C12 12.1046 11.1046 13 10 13C8.8954 13 8 12.1046 8 11C8 9.8954 8.8954 9 10 9C11.1046 9 12 9.8954 12 11Z" fill="#CED0D6"/>
</svg>