<svg width="20" height="20" viewBox="0 0 20 20" fill="none" xmlns="http://www.w3.org/2000/svg">
    <path fill-rule="evenodd" clip-rule="evenodd" d="M1.00074 10.1163C1.00025 10.0776 1 10.0389 1 10.0001C1 6.08528 3.4995 2.75426 6.9897 1.51585L7.05155 1.49416C7.70387 1.26808 8.39024 1.11492 9.10094 1.04443C8.67682 1.55777 8.3245 2.13262 8.05935 2.75359C7.69929 3.59686 7.5 4.5252 7.5 5.50009C7.5 9.36608 10.634 12.5001 14.5 12.5001C15.4749 12.5001 16.4032 12.3008 17.2465 11.9407C17.8675 11.6756 18.4423 11.3233 18.9557 10.8991C18.9249 11.2089 18.8785 11.5141 18.8172 11.8138C17.9779 15.915 14.3492 19 10 19C5.29642 19 1.43558 15.3918 1.0344 10.7923C1.01494 10.5692 1.00362 10.3438 1.00074 10.1163ZM6.23352 3.51301C4.00086 4.81213 2.5 7.23083 2.5 10.0001C2.5 14.1422 5.85786 17.5001 10 17.5001C12.7693 17.5001 15.188 15.9992 16.4871 13.7666C15.8496 13.9192 15.1843 14.0001 14.5 14.0001C9.80558 14.0001 6 10.1945 6 5.50009C6 4.81583 6.08085 4.15046 6.23352 3.51301Z" fill="#CED0D6"/>
</svg>
