<svg xmlns="http://www.w3.org/2000/svg" width="24" height="24" viewBox="0 0 24 24" version="1.1">
<g id="surface1">
<path style=" stroke:none;fill-rule:evenodd;fill:#dbe1e5;fill-opacity:1;" d="M 23.566406 10.65625 C 24.105469 9.40625 24.09375 8.175781 23.761719 7.199219 C 23.355469 6 21.6875 4.425781 21.152344 5.050781 C 21.082031 5.136719 20.121094 5.023438 19.96875 5.230469 C 19.742188 5.53125 19.871094 5.628906 19.984375 5.730469 C 20.320312 6.03125 21.1875 6.363281 21.566406 7.382812 C 21.730469 7.8125 22.109375 8.824219 21.453125 9.429688 C 20.703125 10.113281 19.863281 10.269531 16.425781 7.070312 C 12.765625 3.65625 7.835938 5.050781 6.210938 5.585938 C 4.578125 6.128906 3.832031 6.664062 4.472656 7.925781 C 5.347656 9.636719 5.0625 9.109375 5.90625 10.519531 C 7.253906 12.765625 10.203125 9.484375 10.203125 9.484375 C 8.007812 12.792969 6.125 11.988281 5.398438 10.839844 C 4.757812 9.792969 4.238281 8.59375 4.238281 8.59375 C -1.320312 10.605469 0.183594 19.460938 0.183594 19.460938 L 2.945312 19.460938 C 3.652344 16.203125 6.167969 16.324219 6.597656 19.460938 L 8.707031 19.460938 C 10.566406 13.09375 14.558594 19.460938 14.558594 19.460938 L 16.933594 19.460938 C 16.933594 16.066406 16.578125 14.785156 18.316406 14.550781 C 21.289062 14.144531 22.667969 12.753906 23.570312 10.664062 Z M 23.566406 10.65625 "/>
<path style=" stroke:none;fill-rule:evenodd;fill:#dbe1e5;fill-opacity:1;" d="M 23.992188 8.351562 C 23.488281 8.394531 22.992188 8.480469 22.503906 8.609375 C 22.488281 8.628906 22.480469 8.644531 22.460938 8.671875 C 22.246094 8.914062 21.980469 9.152344 21.667969 9.285156 C 21.628906 9.308594 21.585938 9.328125 21.546875 9.34375 C 21.519531 9.371094 21.496094 9.40625 21.457031 9.429688 C 20.707031 10.113281 19.800781 10.269531 16.429688 7.070312 C 12.800781 3.632812 7.847656 5.058594 6.214844 5.59375 C 4.582031 6.128906 3.839844 6.664062 4.476562 7.925781 C 5.351562 9.636719 5.066406 9.109375 5.914062 10.519531 C 7.261719 12.765625 10.207031 9.484375 10.207031 9.484375 C 8.011719 12.792969 6.128906 11.988281 5.402344 10.839844 C 4.761719 9.792969 4.246094 8.59375 4.246094 8.59375 C -1.320312 10.605469 0.183594 19.460938 0.183594 19.460938 L 2.945312 19.460938 C 3.652344 16.203125 6.167969 16.324219 6.597656 19.460938 L 8.707031 19.460938 C 10.566406 13.09375 14.558594 19.460938 14.558594 19.460938 L 16.933594 19.460938 C 16.933594 16.066406 16.578125 14.785156 18.316406 14.550781 C 21.277344 14.144531 22.660156 12.761719 23.558594 10.664062 C 23.914062 9.859375 24.035156 9.074219 23.992188 8.355469 Z M 23.992188 8.351562 "/>
<path style=" stroke:none;fill-rule:evenodd;fill:rgb(100%,100%,100%);fill-opacity:1;" d="M 13.949219 9.242188 L 16.941406 10.234375 C 16.84375 10.691406 15.988281 11.574219 14.882812 11.203125 C 13.433594 10.71875 13.949219 9.242188 13.949219 9.242188 Z M 13.949219 9.242188 "/>
<path style=" stroke:none;fill-rule:evenodd;fill:#dbe1e5;fill-opacity:1;" d="M 16.175781 10.085938 C 16.132812 9.675781 15.753906 9.382812 15.332031 9.425781 C 14.910156 9.472656 14.601562 9.839844 14.644531 10.246094 C 14.6875 10.65625 15.066406 10.949219 15.488281 10.90625 C 15.910156 10.859375 16.21875 10.492188 16.175781 10.085938 Z M 16.175781 10.085938 "/>
<path style=" stroke:none;fill-rule:evenodd;fill:#dbe1e5;fill-opacity:1;" d="M 19.996094 5.734375 C 20.089844 5.820312 20.210938 5.898438 20.332031 5.976562 C 20.914062 5.5 21.65625 5.507812 22.277344 5.25 C 21.714844 4.730469 20.832031 4.332031 20.550781 4.671875 C 20.480469 4.757812 20.136719 5.023438 19.972656 5.230469 C 19.746094 5.535156 19.878906 5.628906 19.988281 5.734375 Z M 19.996094 5.734375 "/>
</g>
</svg>
