<svg width="20" height="20" viewBox="0 0 20 20" fill="none" xmlns="http://www.w3.org/2000/svg">
    <path d="M10.75 2C10.75 1.58579 10.4142 1.25 10 1.25C9.58579 1.25 9.25 1.58579 9.25 2V4.29847C9.49547 4.26649 9.74581 4.25 10 4.25C10.2542 4.25 10.5045 4.26649 10.75 4.29847V2Z" fill="#6C707E"/>
    <path d="M13.5012 5.43849C13.8992 5.7444 14.2559 6.10122 14.5618 6.4992L16.1876 4.87347C16.4804 4.58058 16.4805 4.1057 16.1876 3.81281C15.8947 3.51992 15.4198 3.51992 15.1269 3.81281L13.5012 5.43849Z" fill="#6C707E"/>
    <path d="M15.7015 9.25C15.7335 9.49547 15.75 9.74581 15.75 10C15.75 10.2542 15.7335 10.5045 15.7015 10.75H18C18.4142 10.75 18.75 10.4142 18.75 10C18.75 9.58579 18.4142 9.25 18 9.25H15.7015Z" fill="#6C707E"/>
    <path d="M14.5618 13.5008C14.2559 13.8988 13.8992 14.2556 13.5012 14.5615L15.1269 16.1872C15.4198 16.4801 15.8947 16.4801 16.1876 16.1872C16.4804 15.8943 16.4804 15.4194 16.1876 15.1265L14.5618 13.5008Z" fill="#6C707E"/>
    <path d="M10.75 15.7015C10.5045 15.7335 10.2542 15.75 10 15.75C9.74581 15.75 9.49547 15.7335 9.25 15.7015V18C9.25 18.4142 9.58579 18.75 10 18.75C10.4142 18.75 10.75 18.4142 10.75 18V15.7015Z" fill="#6C707E"/>
    <path d="M6.4992 14.5618C6.10122 14.2559 5.7444 13.8992 5.43849 13.5012L3.81319 15.1265C3.52029 15.4194 3.52029 15.8943 3.81319 16.1872C4.10608 16.4801 4.58095 16.4801 4.87385 16.1872L6.4992 14.5618Z" fill="#6C707E"/>
    <path d="M4.29847 10.75C4.26649 10.5045 4.25 10.2542 4.25 10C4.25 9.74581 4.26649 9.49547 4.29847 9.25H2C1.58579 9.25 1.25 9.58578 1.25 10C1.25 10.4142 1.58579 10.75 2 10.75H4.29847Z" fill="#6C707E"/>
    <path d="M5.43849 6.49879C5.7444 6.10083 6.10122 5.74405 6.4992 5.43818L4.87385 3.81282C4.58096 3.51993 4.10608 3.51993 3.81319 3.81282C3.5203 4.10571 3.5203 4.58059 3.81319 4.87348L5.43849 6.49879Z" fill="#6C707E"/>
    <path fill-rule="evenodd" clip-rule="evenodd" d="M14.5 10C14.5 12.4853 12.4853 14.5 10 14.5C7.51472 14.5 5.5 12.4853 5.5 10C5.5 7.51472 7.51472 5.5 10 5.5C12.4853 5.5 14.5 7.51472 14.5 10ZM10 13C11.6569 13 13 11.6569 13 10C13 8.34315 11.6569 7 10 7C8.34315 7 7 8.34315 7 10C7 11.6569 8.34315 13 10 13Z" fill="#6C707E"/>
</svg>
