<svg xmlns="http://www.w3.org/2000/svg" width="16" height="16" viewBox="0 0 16 16">
  <g fill="none" fill-rule="evenodd">
    <rect width="2" height="10" x="5" y="3" fill="#AFB1B3"/>
    <rect width="2" height="10" x="5" y="3" fill="#AFB1B3" transform="rotate(90 6 8)"/>
    <rect width="2" height="1" x="14" y="11" fill="#AFB1B3"/>
    <rect width="2" height="1" x="14" y="14" fill="#AFB1B3"/>
    <path fill="#AFB1B3" d="M11.5,10 L14,10 L14,16 L11.5,16 C10.6715729,16 10,15.3284271 10,14.5 L10,11.5 C10,10.6715729 10.6715729,10 11.5,10 Z"/>
    <path fill="#AFB1B3" d="M12,12.1000004 L12,14.3000002 L10.0999997,14.3000002 C9.71340031,14.3000002 9.39999962,14.6134009 9.39999962,15.0000002 L9.39999962,16 L8,16 L8,14.1000004 C8,12.9954309 8.8954305,12.1000004 10,12.1000004 L12,12.1000004 Z"/>
  </g>
</svg>
