<!-- Copyright 2000-2024 JetBrains s.r.o. and contributors. Use of this source code is governed by the Apache 2.0 license. -->
<svg width="16" height="16" viewBox="0 0 16 16" xmlns="http://www.w3.org/2000/svg">
  <path fill="#6e6e6e" d="M12.12 2.5c.26.54.38 1.07.38 1.63 0 1.06-.44 2.15-.91 3.31-.55 1.37-1.12 2.79-1.12 4.43 0 .56.07 1.1.2 1.63H3.88a3.67 3.67 0 0 1-.38-1.63c0-1.06.44-2.15.91-3.31.55-1.37 1.12-2.79 1.12-4.43 0-.56-.07-1.1-.2-1.63h6.8M13 1H3.01c.74 1.11 1.01 2.15 1.01 3.13 0 2.69-2.03 5.04-2.03 7.74 0 .99.27 2.02 1.01 3.13h9.97c-.74-1.11-1.01-2.15-1.01-3.13 0-2.69 2.03-5.04 2.03-7.74 0-.99-.27-2.02-1.01-3.13Z"/>
</svg>
