<svg xmlns="http://www.w3.org/2000/svg" width="16" height="16" viewBox="0 0 16 16">
  <g fill="none" fill-rule="evenodd">
    <path fill="#9AA7B0" d="M13,10.0002 L13,15.6252 L13,16.0002 L12,16.0002 L10.4246667,16.0002 C9.638,16.0002 9,15.1932 9,14.1972 L9,11.80245 C9,10.8072 9.638,10.0002 10.4246667,10.0002 L13,10.0002 Z"/>
    <polygon fill="#9AA7B0" points="14 12 16 12 16 11 14 11"/>
    <polygon fill="#9AA7B0" points="14 15 16 15 16 14 14 14"/>
    <path fill="#9AA7B0" fill-opacity=".8" d="M7.9844,4 L6.6964,2.711 C6.3044,2.32 5.5324,2 4.9784,2 L1.0504,2 C1.0234,2 1.0004,2.022 1.0004,2.051 L1.0004,13 L8.0004,13 L8.0004,9 L15.0004,9 L15.0004,4 L7.9844,4 Z"/>
  </g>
</svg>
