<svg width="16" height="16" viewBox="0 0 16 16" fill="none" xmlns="http://www.w3.org/2000/svg">
<path d="M3 5.41421V13C3 14.1046 3.89543 15 5 15H11C12.1046 15 13 14.1056 13 13.001C13 10.6779 13 6.69027 13 3C13 1.89543 12.1046 1 11 1H7.41421C7.149 1 6.89464 1.10536 6.70711 1.29289L3.29289 4.70711C3.10536 4.89464 3 5.149 3 5.41421Z" fill="#43454A"/>
<path fill-rule="evenodd" clip-rule="evenodd" d="M3 13V5.41421C3 5.149 3.10536 4.89464 3.29289 4.70711L6.70711 1.29289C6.89464 1.10536 7.149 1 7.41421 1H11C12.1046 1 13 1.89543 13 3V13C13 14.1046 12.1046 15 11 15H5C3.89543 15 3 14.1046 3 13ZM11 14C11.5523 14 12 13.5523 12 13V3C12 2.44772 11.5523 2 11 2L8 2V4C8 5.10457 7.10457 6 6 6H4L4 13C4 13.5523 4.44772 14 5 14H11ZM4.41421 5L7 2.41421V4C7 4.55228 6.55228 5 6 5H4.41421Z" fill="#CED0D6"/>
</svg>
