<!-- Copyright 2000-2023 JetBrains s.r.o. and contributors. Use of this source code is governed by the Apache 2.0 license. -->
<svg width="16" height="16" viewBox="0 0 16 16" fill="none" xmlns="http://www.w3.org/2000/svg">
<path d="M1.58627 9.41416L6.58597 14.4139C7.36702 15.1949 8.63335 15.1949 9.4144 14.4139L14.4141 9.41416C15.1951 8.63311 15.1951 7.36678 14.4141 6.58573L9.4144 1.58603C8.63335 0.804982 7.36702 0.804982 6.58597 1.58603L1.58628 6.58573C0.805227 7.36678 0.805226 8.63311 1.58627 9.41416Z" fill="#43454A"/>
<path fill-rule="evenodd" clip-rule="evenodd" d="M2.29338 8.70705L7.29308 13.7067C7.6836 14.0973 8.31677 14.0973 8.70729 13.7067L13.707 8.70705C14.0975 8.31652 14.0975 7.68336 13.707 7.29284L8.70729 2.29314L9.25918 1.74125L8.70729 2.29314C8.31677 1.90261 7.6836 1.90261 7.29308 2.29314L6.58597 1.58603C7.36702 0.804982 8.63335 0.804982 9.4144 1.58603L14.4141 6.58573C15.1951 7.36678 15.1951 8.63311 14.4141 9.41416L9.4144 14.4139C8.63335 15.1949 7.36702 15.1949 6.58597 14.4139L1.58627 9.41416C0.805226 8.63311 0.805227 7.36678 1.58628 6.58573L6.58597 1.58603L7.29308 2.29314L2.29338 7.29284C1.90286 7.68336 1.90286 8.31653 2.29338 8.70705Z" fill="#CED0D6"/>
</svg>
