<svg width="128" height="128" fill="none" xmlns="http://www.w3.org/2000/svg"><path opacity=".2" d="M49.853 123.492c-1.978-.469-3.634-1.566-5.95-3.943-3.871-3.971-7.013-5.624-12.472-6.564-5.664-.975-8.18-3.08-9.694-8.108-1.867-6.206-3.82-9.178-8.108-12.346-4.866-3.594-6.114-6.764-4.927-12.507 1.1-5.32.679-9.101-1.555-13.964C4.48 60.26 4.81 57.16 8.597 52.405c3.47-4.357 4.56-7.238 5.079-13.431.524-6.25 2.263-8.815 7.385-10.89 4.274-1.732 7.93-4.739 9.958-8.188 2.344-3.99 2.686-4.447 4.139-5.53 2.344-1.749 4.239-2.233 7.848-2.007 6.27.393 9.63-.36 13.84-3.1 5.49-3.574 8.818-3.574 14.307 0 4.21 2.74 7.57 3.493 13.84 3.1 5.929-.372 8.396 1.184 12.01 7.577 1.79 3.167 5.451 6.25 9.458 7.965 5.706 2.442 7.364 4.67 7.785 10.463.456 6.273 1.742 9.78 5.149 14.041 3.794 4.745 4.125 7.848 1.457 13.655-2.233 4.863-2.655 8.645-1.555 13.964 1.188 5.743-.061 8.913-4.926 12.507-4.289 3.167-6.241 6.14-8.109 12.346-1.513 5.028-4.03 7.133-9.694 8.108-5.47.942-8.615 2.6-12.47 6.577-4.275 4.407-7.339 5.135-13.314 3.159-4.887-1.615-8.65-1.622-13.517-.024-3.41 1.119-5.227 1.314-7.414.795Z" fill="#000"/><path d="M49.853 122.321c-1.978-.47-3.634-1.567-5.95-3.944-3.871-3.97-7.013-5.624-12.472-6.563-5.664-.975-8.18-3.081-9.694-8.108-1.867-6.207-3.82-9.18-8.108-12.347-4.866-3.594-6.114-6.763-4.927-12.507 1.1-5.32.679-9.101-1.555-13.964-2.666-5.801-2.337-8.901 1.45-13.655 3.47-4.357 4.56-7.237 5.079-13.431.524-6.25 2.263-8.815 7.385-10.89 4.274-1.732 7.93-4.739 9.958-8.188 2.344-3.99 2.686-4.446 4.139-5.53 2.344-1.749 4.239-2.233 7.848-2.007 6.27.393 9.63-.36 13.84-3.1 5.49-3.574 8.818-3.574 14.307 0 4.21 2.74 7.57 3.493 13.84 3.1 5.929-.372 8.396 1.184 12.01 7.577 1.79 3.167 5.451 6.25 9.458 7.965 5.706 2.442 7.364 4.67 7.785 10.463.456 6.273 1.742 9.78 5.149 14.041 3.794 4.745 4.125 7.848 1.457 13.655-2.233 4.863-2.655 8.645-1.555 13.964 1.188 5.743-.061 8.913-4.926 12.507-4.289 3.168-6.241 6.14-8.109 12.347-1.513 5.027-4.03 7.133-9.694 8.108-5.47.941-8.615 2.6-12.47 6.576-4.275 4.408-7.339 5.135-13.314 3.16-4.887-1.616-8.65-1.623-13.517-.025-3.41 1.119-5.227 1.314-7.414.796Z" fill="#fff"/><path d="M90.847 99.018a1.462 1.462 0 0 1-2.68 1.137l-3.522-6.538a2.152 2.152 0 1 1 3.945-1.675l2.257 7.076Z" fill="#034ECA"/><path d="M90.847 99.018a1.462 1.462 0 0 1-2.68 1.137l-3.522-6.538a2.152 2.152 0 1 1 3.945-1.675l2.257 7.076Z" fill="url(#a)"/><mask id="b" style="mask-type:alpha" maskUnits="userSpaceOnUse" x="78" y="51" width="21" height="26"><path d="M88.095 75.55a12.443 12.443 0 0 0 3.382-3.272 12.496 12.496 0 0 0 1.42-2.646c.234-.599.422-1.217.562-1.847l.028.005 1.478.278a2295.78 2295.78 0 0 0 2.48.467 1.146 1.146 0 0 0 1.32-1.41 1.156 1.156 0 0 0-.163-.358 1.144 1.144 0 0 0-.733-.478c-.345-.066-.691-.13-1.037-.195l-1.443-.272-1.478-.279-.162-.03.004-.122c.037-1.48-.19-2.992-.713-4.472l-.044-.12a12.483 12.483 0 0 0-2.274-3.881l.1-.117.975-1.143.953-1.116.685-.802a1.14 1.14 0 0 0-.139-1.62 1.14 1.14 0 0 0-1.604.137l-.684.802-.953 1.116-.976 1.143-.008.01a12.59 12.59 0 0 0-6.087-2.635 12.477 12.477 0 0 0-4.617.207l8.288 23.458a12.56 12.56 0 0 0 1.44-.809Z" fill="#fff"/></mask><g mask="url(#b)"><path d="m100.745 71.537-8.84-25.05-14.093 4.973 8.84 25.05 14.093-4.973Z" fill="#4FAF53"/><g opacity=".8" filter="url(#c)"><path d="M92.34 62.13c-.875 3.1-3.533-3.82-8.313-5.169-4.78-1.349-10.664 3.16-9.789.06 1.562-2.275 5.744-4.013 10.524-2.664 4.78 1.35 7.62 5.39 7.578 7.773Z" fill="url(#d)" fill-opacity=".3"/></g><g opacity=".7" filter="url(#e)"><path d="M91.738 60.426c-2.627-1.865-.354 5.19-3.228 9.24-2.875 4.05-10.286 4.233-7.659 6.097 2.644.791 6.99-.48 9.865-4.53 2.875-4.05 2.55-8.978 1.022-10.807Z" fill="url(#f)" fill-opacity=".4"/></g><g opacity=".6" filter="url(#g)"><path d="M81.522 51.431c-3.337.105-6.032.504-6.02.891.013.387 2.727.616 6.064.51 3.337-.104 7.996 2.675 7.984 2.288-.012-.387-4.691-3.793-8.028-3.689Z" fill="#8BD8A0"/></g><g opacity=".5" filter="url(#h)"><path d="M89.978 75.393c-2.663 2.013-5.012 3.394-5.245 3.085-.234-.31 1.736-2.191 4.4-4.204 2.664-2.012 4.547-7.1 4.78-6.791.234.309-1.271 5.898-3.935 7.91Z" fill="#8BD8A0"/></g><g opacity=".7" filter="url(#i)"><path d="M91.21 53.386c-1.219 1.492-1.812 2.166-1.944 2.058-.132-.107.248-.956 1.466-2.448.75-1.87 2.98-.96 3.113-.852.132.108-1.076-.887-2.636 1.242Z" fill="#0D652D"/></g><g opacity=".1" filter="url(#j)"><path d="M89.034 55.32c.113.086 1.015-.903 2.013-2.21 1-1.306 1.716-2.436 1.603-2.523-.114-.087-1.015.902-2.014 2.21-.999 1.306-1.716 2.436-1.602 2.522Z" fill="#000"/></g><g opacity=".3" filter="url(#k)"><path d="M92.414 54.285c-1.274 1.561-1.847 2.305-1.742 2.392.106.086.85-.519 2.124-2.08 1.831-1.717-.068-2.979-.245-2.726-.519.555 1.692.348-.137 2.414Z" fill="#fff"/></g><path opacity=".15" d="M91.83 50.843c-.553.395-.624 1.243-.158 1.894.465.65 1.29.857 1.844.462.552-.396.623-1.244.158-1.895-.465-.65-1.291-.857-1.844-.461Z" fill="url(#l)" fill-opacity=".9"/><path opacity=".15" d="M97.296 65.762c-.552.396-.623 1.244-.158 1.895.465.65 1.291.857 1.844.462.553-.396.624-1.244.158-1.895-.465-.65-1.29-.857-1.844-.462Z" fill="url(#m)" fill-opacity=".9"/><g opacity=".1" filter="url(#n)"><path d="M93.33 67.75c.03-.14 1.356.043 2.96.408 1.604.365 2.878.773 2.846.913-.031.14-1.357-.043-2.96-.408-1.604-.365-2.879-.773-2.847-.913Z" fill="#000"/></g><mask id="o" style="mask-type:alpha" maskUnits="userSpaceOnUse" x="93" y="65" width="3" height="5"><path d="M93.37 67.938c.15-.678.298-2.157.353-2.812l1.453-.093-.18 4.167c-.605-.138-1.776-.584-1.626-1.262Z" fill="#000"/></mask><g mask="url(#o)"><g style="mix-blend-mode:multiply" opacity=".3" filter="url(#p)"><path d="M93.702 68.237c.07-1.142.01-2.076-.133-2.084-.142-.01-.225.868-.295 2.01-.07 1.143-.099 2.118.044 2.127.142.009.314-.91.384-2.053Z" fill="#0D652D"/></g><g style="mix-blend-mode:screen" opacity=".3" filter="url(#q)"><path d="M93.776 65.922c.039-.325.019-.594-.045-.602-.063-.007-.106.241-.144.566-.039.325-.058.604.005.611.064.008.146-.25.184-.575Z" fill="#81C995"/></g></g><mask id="r" style="mask-type:alpha" maskUnits="userSpaceOnUse" x="88" y="53" width="4" height="5"><path d="M88.735 55.151c.552.422 1.617 1.46 2.08 1.926l1.172-.864-2.82-3.074c-.374.495-.983 1.59-.432 2.012Z" fill="#000"/></mask><g mask="url(#r)"><g style="mix-blend-mode:multiply" opacity=".3" filter="url(#s)"><path d="M88.797 54.71c.788.829 1.343 1.582 1.24 1.68-.104.099-.732-.52-1.52-1.35-.79-.83-1.44-1.556-1.336-1.655.104-.098.827.495 1.616 1.324Z" fill="#0D652D"/></g><g style="mix-blend-mode:screen" opacity=".3" filter="url(#t)"><path d="M90.344 56.432c.238.224.396.444.352.49-.044.047-.236-.116-.475-.34-.238-.224-.432-.425-.389-.471.044-.047.273.097.512.321Z" fill="#81C995"/></g></g><g opacity=".7" filter="url(#u)"><path d="M96.294 68.007c-1.894-.354-2.782-.485-2.813-.318-.032.168.806.57 2.7.924 1.78.943 2.896-1.192 2.927-1.36.031-.167-.249 1.372-2.814.754Z" fill="#0D652D"/></g><g opacity=".3" filter="url(#v)"><path d="M96.623 66.49c-1.927-.36-2.82-.555-2.794-.695.027-.14.962-.174 2.889.185 3.152.072 3.521 2.29 1.88 2.484-.72-.05.683-1.597-1.975-1.975Z" fill="#fff"/></g></g><path d="M85.353 57.695c-.158.386-.114.768.097.855.212.086.511-.156.669-.541.158-.385.114-.768-.097-.854-.212-.087-.511.155-.669.54Z" fill="url(#w)" fill-opacity=".7"/><path d="M89.055 68.227c-.365-.2-.57-.525-.46-.726.11-.2.494-.199.859.002.364.2.57.526.46.726-.11.2-.495.2-.86-.002Z" fill="url(#x)" fill-opacity=".7"/><g style="mix-blend-mode:multiply" opacity=".09" filter="url(#y)"><path d="M84.336 58.813c1 .044 1.414-.52 1.495-.807.585-.95-.365-1.62-.809-1.763-.443-.143-1.196-.312-1.91.364-.712.676-.026 2.15 1.224 2.206Z" fill="#011B04"/></g><g style="mix-blend-mode:multiply" opacity=".09" filter="url(#z)"><path d="M87.562 67.997c.747-.66 1.42-.48 1.662-.307 1.048.376.732 1.49.478 1.88-.253.39-.73.993-1.705.913-.975-.08-1.368-1.66-.435-2.486Z" fill="#011B04"/></g><path d="M87.718 70.192c.56.42 1.427.215 1.936-.46.508-.676.465-1.564-.096-1.986-.561-.42-1.428-.215-1.936.46-.508.676-.465 1.565.096 1.986Z" fill="#000"/><g filter="url(#A)"><path d="M84.263 58.605c.82.207 1.621-.163 1.79-.827.168-.664-.36-1.37-1.18-1.577-.82-.207-1.622.163-1.79.827-.168.664.36 1.37 1.18 1.577Z" fill="#000"/></g><g filter="url(#B)"><path d="M87.638 68.2c.508-.675 1.364-.889 1.912-.478.548.411.58 1.292.072 1.967-.507.675-1.363.889-1.911.478-.548-.412-.58-1.292-.073-1.967Z" fill="#000"/></g><mask id="C" style="mask-type:alpha" maskUnits="userSpaceOnUse" x="83" y="56" width="4" height="3"><path d="M84.263 58.605c.82.207 1.621-.163 1.79-.827.168-.664-.36-1.37-1.18-1.577-.82-.207-1.621.163-1.79.827-.168.663.36 1.37 1.18 1.577Z" fill="#202124"/></mask><g mask="url(#C)"><g filter="url(#D)"><path d="M84.963 56.346c-.667-.24-1.287-.074-1.526.068.464-.283.969-.418 1.605-.183.35.13.622.419.783.643a.981.981 0 0 1 .067.1c.037.059.064.108.08.144-.025-.04-.047-.089-.08-.144a2.167 2.167 0 0 0-.067-.1c-.12-.154-.344-.342-.862-.528Z" fill="#D8D8D8" fill-opacity=".29"/></g><g opacity=".8" filter="url(#E)"><path d="M85.508 58.295c.67-.433.536-1.057.385-1.315.188.202.208.678.064.932-.115.204-.347.34-.449.383Z" fill="url(#F)"/></g></g><mask id="G" style="mask-type:alpha" maskUnits="userSpaceOnUse" x="87" y="67" width="3" height="4"><path d="M87.64 68.2c.507-.675 1.363-.889 1.911-.478.548.411.58 1.292.073 1.967-.508.675-1.364.889-1.912.478-.548-.412-.58-1.292-.073-1.967Z" fill="#202124"/></mask><g mask="url(#G)"><path d="M89.72 68.247a.932.932 0 0 0-1.073-.587c.171.011.566.127.779.498.212.37-.057 1.057-.219 1.354l.29.12c.183-.206.484-.77.223-1.385Z" fill="url(#H)"/><g filter="url(#I)"><path d="M89.596 69.523c-.368.604-.955.865-1.23.904.539-.07 1.016-.283 1.364-.864.191-.32.22-.716.205-.992a.947.947 0 0 0-.01-.12 1.317 1.317 0 0 0-.028-.162c.006.046.019.098.028.162.004.036.008.077.01.12.004.195-.052.482-.339.952Z" fill="#D8D8D8" fill-opacity=".29"/></g></g><g opacity=".8" filter="url(#J)"><path d="M85.359 56.834c-.136-.228-.459-.321-.603-.34l-.141.188c.048.006.178.034.31.098.133.064.292.173.354.22l.08-.166Z" fill="#E2DCE1"/></g><g opacity=".8" filter="url(#K)"><path d="M89.603 68.904c.038.26-.145.529-.241.631l-.22-.059c.032-.034.112-.135.172-.265.06-.13.11-.312.128-.387l.16.08Z" fill="#E2DCE1"/></g><g opacity=".8" filter="url(#L)" fill="#E2DCE1"><path d="M84.386 58.31a5.615 5.615 0 0 1-.317-.312l-.237.001c.124.164.28.264.341.294l.213.018ZM85.445 58.35a1.21 1.21 0 0 0 .159-.138l-.083.03a.988.988 0 0 1-.204.154.27.27 0 0 0 .129-.045Z"/></g><g opacity=".8" filter="url(#M)" fill="#E2DCE1"><path d="M87.905 68.342a5.526 5.526 0 0 0-.05.443l-.186.148c-.007-.205.051-.38.081-.443l.155-.148ZM88.704 67.646c.064-.006.167.003.21.009l-.083.03a.97.97 0 0 0-.256.007.268.268 0 0 1 .129-.046Z"/></g><g opacity=".3" filter="url(#N)"><path d="M90.184 71.894c-3.038 1.072 1.085-5.089-.568-9.772-1.653-4.684-8.73-6.892-5.69-7.965 2.758-.035 6.589 2.381 8.242 7.065 1.652 4.683-.013 9.333-1.984 10.672Z" fill="url(#O)" fill-opacity=".4"/></g><g opacity=".2" filter="url(#P)"><path d="M90.184 71.894c-3.038 1.072 1.085-5.089-.568-9.772-1.653-4.684-8.73-6.892-5.69-7.965 2.758-.035 6.589 2.381 8.242 7.065 1.652 4.683-.013 9.333-1.984 10.672Z" fill="url(#Q)" fill-opacity=".4"/></g><path d="M39.433 59.174c-.651-1.15-1.766-1.975-3.099-2.294-1.333-.32-2.775-.106-4.009.593-1.234.699-2.159 1.825-2.571 3.133-.413 1.307-.166 2.885.485 4.035l4.755-2.454 4.439-3.013Z" fill="#4386F5"/><path fill-rule="evenodd" clip-rule="evenodd" d="M39.39 59.103c6.882 11.394 21.289 16.269 33.88 10.888l4.203 9.836c-17.563 7.505-37.638.7-47.239-15.193l9.155-5.53Z" fill="url(#R)"/><path d="M37.378 99.018a1.462 1.462 0 0 0 2.68 1.137l3.522-6.538a2.152 2.152 0 1 0-3.945-1.675l-2.257 7.076Z" fill="#034ECA"/><path d="M37.378 99.018a1.462 1.462 0 0 0 2.68 1.137l3.522-6.538a2.152 2.152 0 1 0-3.945-1.675l-2.257 7.076Z" fill="url(#S)"/><path d="M55.347 37.37a6.055 6.055 0 1 1 11.38 4.142l-17.77 48.82a6.055 6.055 0 1 1-11.379-4.141l17.769-48.82Z" fill="#4285F4"/><path d="M42.813 94.285a6.036 6.036 0 0 0 6.28-3.94l14.434-39.656a6.035 6.035 0 0 0-1.57-6.492L42.813 94.285Z" fill="url(#T)"/><path d="M67.924 26.35a3.809 3.809 0 1 0-7.617 0v7.227a3.809 3.809 0 1 0 7.617 0V26.35Z" fill="#4285F4"/><path d="M67.924 26.35a3.809 3.809 0 1 0-7.617 0v7.227a3.809 3.809 0 1 0 7.617 0V26.35Z" fill="url(#U)"/><g opacity=".5" filter="url(#V)"><path d="M71.662 81.487c-1.49.128.91-1.714.543-5.998-.247-2.89.76-5.335 2.249-5.462 1.489-.128 2.897 2.11 3.144 5 1.233 4.628-4.447 6.332-5.936 6.46Z" fill="#044FCB"/></g><path d="M61.382 41.456a5.986 5.986 0 0 1 11.24-4.12l17.922 48.912a5.986 5.986 0 1 1-11.24 4.118l-17.922-48.91Z" fill="url(#W)"/><path d="M59.33 35.432a7.034 7.034 0 0 0-4.882 4.415L37.603 86.106c-1.027 2.82 0 5.87 2.196 7.236l19.53-57.91Z" fill="url(#X)"/><path opacity=".3" d="M60.999 26.946c.853.854 2.392.699 3.437-.346 1.044-1.045 1.2-2.584.346-3.437-.854-.854-2.393-.699-3.437.346-1.045 1.045-1.2 2.584-.346 3.437Z" fill="url(#Y)" fill-opacity=".9"/><path opacity=".3" d="M53.014 53.113c2.552 1.474 6.486-.561 8.786-4.545s2.095-8.408-.457-9.882c-2.552-1.473-6.486.562-8.786 4.545-2.3 3.984-2.096 8.408.457 9.882Z" fill="url(#Z)" fill-opacity=".9"/><path d="M64.018 48.128a7.422 7.422 0 1 0 0-14.844 7.422 7.422 0 0 0 0 14.844Z" fill="#fff"/><path fill-rule="evenodd" clip-rule="evenodd" d="M64.018 35.237a5.469 5.469 0 1 0 0 10.938 5.469 5.469 0 0 0 0-10.938Zm-9.375 5.469a9.375 9.375 0 1 1 18.75 0 9.375 9.375 0 0 1-18.75 0Z" fill="#202124"/><defs><filter id="c" x="73.683" y="53.416" width="19.126" height="9.973" filterUnits="userSpaceOnUse" color-interpolation-filters="sRGB"><feFlood flood-opacity="0" result="BackgroundImageFix"/><feBlend in="SourceGraphic" in2="BackgroundImageFix" result="shape"/><feGaussianBlur stdDeviation=".234" result="effect1_foregroundBlur_1081_1678"/></filter><filter id="e" x="79.595" y="59.416" width="13.996" height="17.273" filterUnits="userSpaceOnUse" color-interpolation-filters="sRGB"><feFlood flood-opacity="0" result="BackgroundImageFix"/><feBlend in="SourceGraphic" in2="BackgroundImageFix" result="shape"/><feGaussianBlur stdDeviation=".351" result="effect1_foregroundBlur_1081_1678"/></filter><filter id="g" x="75.151" y="51.078" width="14.75" height="4.431" filterUnits="userSpaceOnUse" color-interpolation-filters="sRGB"><feFlood flood-opacity="0" result="BackgroundImageFix"/><feBlend in="SourceGraphic" in2="BackgroundImageFix" result="shape"/><feGaussianBlur stdDeviation=".176" result="effect1_foregroundBlur_1081_1678"/></filter><filter id="h" x="84.363" y="67.118" width="9.925" height="11.754" filterUnits="userSpaceOnUse" color-interpolation-filters="sRGB"><feFlood flood-opacity="0" result="BackgroundImageFix"/><feBlend in="SourceGraphic" in2="BackgroundImageFix" result="shape"/><feGaussianBlur stdDeviation=".176" result="effect1_foregroundBlur_1081_1678"/></filter><filter id="i" x="88.773" y="51.36" width="5.55" height="4.563" filterUnits="userSpaceOnUse" color-interpolation-filters="sRGB"><feFlood flood-opacity="0" result="BackgroundImageFix"/><feBlend in="SourceGraphic" in2="BackgroundImageFix" result="shape"/><feGaussianBlur stdDeviation=".234" result="effect1_foregroundBlur_1081_1678"/></filter><filter id="j" x="88.905" y="50.465" width="3.874" height="4.977" filterUnits="userSpaceOnUse" color-interpolation-filters="sRGB"><feFlood flood-opacity="0" result="BackgroundImageFix"/><feBlend in="SourceGraphic" in2="BackgroundImageFix" result="shape"/><feGaussianBlur stdDeviation=".059" result="effect1_foregroundBlur_1081_1678"/></filter><filter id="k" x="90.309" y="51.488" width="3.63" height="5.548" filterUnits="userSpaceOnUse" color-interpolation-filters="sRGB"><feFlood flood-opacity="0" result="BackgroundImageFix"/><feBlend in="SourceGraphic" in2="BackgroundImageFix" result="shape"/><feGaussianBlur stdDeviation=".176" result="effect1_foregroundBlur_1081_1678"/></filter><filter id="n" x="93.211" y="67.586" width="6.043" height="1.649" filterUnits="userSpaceOnUse" color-interpolation-filters="sRGB"><feFlood flood-opacity="0" result="BackgroundImageFix"/><feBlend in="SourceGraphic" in2="BackgroundImageFix" result="shape"/><feGaussianBlur stdDeviation=".059" result="effect1_foregroundBlur_1081_1678"/></filter><filter id="p" x="92.982" y="65.918" width=".983" height="4.606" filterUnits="userSpaceOnUse" color-interpolation-filters="sRGB"><feFlood flood-opacity="0" result="BackgroundImageFix"/><feBlend in="SourceGraphic" in2="BackgroundImageFix" result="shape"/><feGaussianBlur stdDeviation=".117" result="effect1_foregroundBlur_1081_1678"/></filter><filter id="q" x="93.41" y="65.18" width=".526" height="1.458" filterUnits="userSpaceOnUse" color-interpolation-filters="sRGB"><feFlood flood-opacity="0" result="BackgroundImageFix"/><feBlend in="SourceGraphic" in2="BackgroundImageFix" result="shape"/><feGaussianBlur stdDeviation=".07" result="effect1_foregroundBlur_1081_1678"/></filter><filter id="s" x="86.936" y="53.14" width="3.347" height="3.494" filterUnits="userSpaceOnUse" color-interpolation-filters="sRGB"><feFlood flood-opacity="0" result="BackgroundImageFix"/><feBlend in="SourceGraphic" in2="BackgroundImageFix" result="shape"/><feGaussianBlur stdDeviation=".117" result="effect1_foregroundBlur_1081_1678"/></filter><filter id="t" x="89.686" y="55.962" width="1.158" height="1.109" filterUnits="userSpaceOnUse" color-interpolation-filters="sRGB"><feFlood flood-opacity="0" result="BackgroundImageFix"/><feBlend in="SourceGraphic" in2="BackgroundImageFix" result="shape"/><feGaussianBlur stdDeviation=".07" result="effect1_foregroundBlur_1081_1678"/></filter><filter id="u" x="93.012" y="66.772" width="6.567" height="2.548" filterUnits="userSpaceOnUse" color-interpolation-filters="sRGB"><feFlood flood-opacity="0" result="BackgroundImageFix"/><feBlend in="SourceGraphic" in2="BackgroundImageFix" result="shape"/><feGaussianBlur stdDeviation=".234" result="effect1_foregroundBlur_1081_1678"/></filter><filter id="v" x="93.478" y="65.344" width="6.43" height="3.471" filterUnits="userSpaceOnUse" color-interpolation-filters="sRGB"><feFlood flood-opacity="0" result="BackgroundImageFix"/><feBlend in="SourceGraphic" in2="BackgroundImageFix" result="shape"/><feGaussianBlur stdDeviation=".176" result="effect1_foregroundBlur_1081_1678"/></filter><filter id="y" x="82.754" y="56.043" width="3.332" height="2.843" filterUnits="userSpaceOnUse" color-interpolation-filters="sRGB"><feFlood flood-opacity="0" result="BackgroundImageFix"/><feBlend in="SourceGraphic" in2="BackgroundImageFix" result="shape"/><feGaussianBlur stdDeviation=".035" result="effect1_foregroundBlur_1081_1678"/></filter><filter id="z" x="86.961" y="67.459" width="3.062" height="3.101" filterUnits="userSpaceOnUse" color-interpolation-filters="sRGB"><feFlood flood-opacity="0" result="BackgroundImageFix"/><feBlend in="SourceGraphic" in2="BackgroundImageFix" result="shape"/><feGaussianBlur stdDeviation=".035" result="effect1_foregroundBlur_1081_1678"/></filter><filter id="A" x="83.017" y="56.143" width="3.078" height="2.566" filterUnits="userSpaceOnUse" color-interpolation-filters="sRGB"><feFlood flood-opacity="0" result="BackgroundImageFix"/><feColorMatrix in="SourceAlpha" values="0 0 0 0 0 0 0 0 0 0 0 0 0 0 0 0 0 0 127 0" result="hardAlpha"/><feOffset dx="-.012" dy=".023"/><feGaussianBlur stdDeviation=".012"/><feComposite in2="hardAlpha" operator="out"/><feColorMatrix values="0 0 0 0 0.0156863 0 0 0 0 0.231373 0 0 0 0 0.0666667 0 0 0 0.7 0"/><feBlend in2="BackgroundImageFix" result="effect1_dropShadow_1081_1678"/><feBlend in="SourceGraphic" in2="effect1_dropShadow_1081_1678" result="shape"/></filter><filter id="B" x="87.242" y="67.513" width="2.752" height="2.91" filterUnits="userSpaceOnUse" color-interpolation-filters="sRGB"><feFlood flood-opacity="0" result="BackgroundImageFix"/><feColorMatrix in="SourceAlpha" values="0 0 0 0 0 0 0 0 0 0 0 0 0 0 0 0 0 0 127 0" result="hardAlpha"/><feOffset dx="-.012" dy=".023"/><feGaussianBlur stdDeviation=".012"/><feComposite in2="hardAlpha" operator="out"/><feColorMatrix values="0 0 0 0 0.0156863 0 0 0 0 0.231373 0 0 0 0 0.0666667 0 0 0 0.7 0"/><feBlend in2="BackgroundImageFix" result="effect1_dropShadow_1081_1678"/><feBlend in="SourceGraphic" in2="effect1_dropShadow_1081_1678" result="shape"/></filter><filter id="D" x="83.414" y="56.087" width="2.581" height="1.054" filterUnits="userSpaceOnUse" color-interpolation-filters="sRGB"><feFlood flood-opacity="0" result="BackgroundImageFix"/><feBlend in="SourceGraphic" in2="BackgroundImageFix" result="shape"/><feGaussianBlur stdDeviation=".012" result="effect1_foregroundBlur_1081_1678"/></filter><filter id="E" x="85.503" y="56.975" width=".555" height="1.327" filterUnits="userSpaceOnUse" color-interpolation-filters="sRGB"><feFlood flood-opacity="0" result="BackgroundImageFix"/><feBlend in="SourceGraphic" in2="BackgroundImageFix" result="shape"/><feGaussianBlur stdDeviation=".003" result="effect1_foregroundBlur_1081_1678"/></filter><filter id="I" x="88.343" y="68.266" width="1.62" height="2.185" filterUnits="userSpaceOnUse" color-interpolation-filters="sRGB"><feFlood flood-opacity="0" result="BackgroundImageFix"/><feBlend in="SourceGraphic" in2="BackgroundImageFix" result="shape"/><feGaussianBlur stdDeviation=".012" result="effect1_foregroundBlur_1081_1678"/></filter><filter id="J" x="84.591" y="56.471" width=".791" height=".553" filterUnits="userSpaceOnUse" color-interpolation-filters="sRGB"><feFlood flood-opacity="0" result="BackgroundImageFix"/><feBlend in="SourceGraphic" in2="BackgroundImageFix" result="shape"/><feGaussianBlur stdDeviation=".012" result="effect1_foregroundBlur_1081_1678"/></filter><filter id="K" x="89.119" y="68.801" width=".512" height=".758" filterUnits="userSpaceOnUse" color-interpolation-filters="sRGB"><feFlood flood-opacity="0" result="BackgroundImageFix"/><feBlend in="SourceGraphic" in2="BackgroundImageFix" result="shape"/><feGaussianBlur stdDeviation=".012" result="effect1_foregroundBlur_1081_1678"/></filter><filter id="L" x="83.82" y="57.987" width="1.795" height=".421" filterUnits="userSpaceOnUse" color-interpolation-filters="sRGB"><feFlood flood-opacity="0" result="BackgroundImageFix"/><feBlend in="SourceGraphic" in2="BackgroundImageFix" result="shape"/><feGaussianBlur stdDeviation=".006" result="effect1_foregroundBlur_1081_1678"/></filter><filter id="M" x="87.656" y="67.632" width="1.269" height="1.313" filterUnits="userSpaceOnUse" color-interpolation-filters="sRGB"><feFlood flood-opacity="0" result="BackgroundImageFix"/><feBlend in="SourceGraphic" in2="BackgroundImageFix" result="shape"/><feGaussianBlur stdDeviation=".006" result="effect1_foregroundBlur_1081_1678"/></filter><filter id="N" x="82.708" y="53.689" width="10.603" height="18.797" filterUnits="userSpaceOnUse" color-interpolation-filters="sRGB"><feFlood flood-opacity="0" result="BackgroundImageFix"/><feBlend in="SourceGraphic" in2="BackgroundImageFix" result="shape"/><feGaussianBlur stdDeviation=".234" result="effect1_foregroundBlur_1081_1678"/></filter><filter id="P" x="82.708" y="53.689" width="10.603" height="18.797" filterUnits="userSpaceOnUse" color-interpolation-filters="sRGB"><feFlood flood-opacity="0" result="BackgroundImageFix"/><feBlend in="SourceGraphic" in2="BackgroundImageFix" result="shape"/><feGaussianBlur stdDeviation=".234" result="effect1_foregroundBlur_1081_1678"/></filter><filter id="V" x="70.583" y="69.436" width="7.775" height="12.643" filterUnits="userSpaceOnUse" color-interpolation-filters="sRGB"><feFlood flood-opacity="0" result="BackgroundImageFix"/><feBlend in="SourceGraphic" in2="BackgroundImageFix" result="shape"/><feGaussianBlur stdDeviation=".293" result="effect1_foregroundBlur_1081_1678"/></filter><linearGradient id="a" x1="89.897" y1="100.561" x2="86.04" y2="98.374" gradientUnits="userSpaceOnUse"><stop stop-color="#4285F4"/><stop offset="1" stop-color="#034ECA"/></linearGradient><linearGradient id="d" x1="84.808" y1="54.191" x2="83.586" y2="58.523" gradientUnits="userSpaceOnUse"><stop stop-color="#A8F0B9"/><stop offset="1" stop-color="#ADEEBC" stop-opacity="0"/></linearGradient><linearGradient id="f" x1="90.857" y1="71.333" x2="87.186" y2="68.728" gradientUnits="userSpaceOnUse"><stop stop-color="#A8F0B9"/><stop offset="1" stop-color="#ADEEBC" stop-opacity="0"/></linearGradient><linearGradient id="F" x1="86.212" y1="56.951" x2="85.191" y2="57.364" gradientUnits="userSpaceOnUse"><stop stop-color="#E2DDE2"/><stop offset="1" stop-color="#E2DDE2" stop-opacity="0"/></linearGradient><linearGradient id="H" x1="89.776" y1="68.398" x2="88.921" y2="68.7" gradientUnits="userSpaceOnUse"><stop stop-color="#373637"/><stop offset="1" stop-color="#373637" stop-opacity="0"/></linearGradient><linearGradient id="O" x1="92.331" y1="61.164" x2="88.086" y2="62.662" gradientUnits="userSpaceOnUse"><stop stop-color="#A8F0B9"/><stop offset="1" stop-color="#ADEEBC" stop-opacity="0"/></linearGradient><linearGradient id="Q" x1="92.331" y1="61.164" x2="88.086" y2="62.662" gradientUnits="userSpaceOnUse"><stop stop-color="#A8F0B9"/><stop offset="1" stop-color="#ADEEBC" stop-opacity="0"/></linearGradient><linearGradient id="R" x1="60.209" y1="75.081" x2="78.764" y2="73.616" gradientUnits="userSpaceOnUse"><stop stop-color="#4285F4"/><stop offset=".703" stop-color="#044FCB"/></linearGradient><linearGradient id="S" x1="39.018" y1="99.585" x2="43.018" y2="97.223" gradientUnits="userSpaceOnUse"><stop stop-color="#4285F4"/><stop offset="1" stop-color="#034ECA"/></linearGradient><linearGradient id="T" x1="57.372" y1="65.999" x2="55.24" y2="65.26" gradientUnits="userSpaceOnUse"><stop stop-color="#73A7FF"/><stop offset="1" stop-color="#5893F6" stop-opacity="0"/></linearGradient><linearGradient id="U" x1="64.115" y1="26.802" x2="67.468" y2="29.818" gradientUnits="userSpaceOnUse"><stop stop-color="#4285F4"/><stop offset="1" stop-color="#034ECA"/></linearGradient><linearGradient id="W" x1="67.866" y1="46.531" x2="78.004" y2="67.72" gradientUnits="userSpaceOnUse"><stop stop-color="#034DC9"/><stop offset="1" stop-color="#4285F4"/></linearGradient><linearGradient id="X" x1="43.333" y1="63.99" x2="48.675" y2="65.823" gradientUnits="userSpaceOnUse"><stop stop-color="#9BC0FF"/><stop offset="1" stop-color="#5893F6" stop-opacity="0"/></linearGradient><radialGradient id="l" cx="0" cy="0" r="1" gradientUnits="userSpaceOnUse" gradientTransform="matrix(-.53643 -.73571 .53314 -.38873 92.673 52.02)"><stop stop-color="#fff"/><stop offset=".948" stop-color="#fff" stop-opacity="0"/></radialGradient><radialGradient id="m" cx="0" cy="0" r="1" gradientUnits="userSpaceOnUse" gradientTransform="rotate(-126.097 66.088 8.52) scale(.91051 .65981)"><stop stop-color="#fff"/><stop offset=".948" stop-color="#fff" stop-opacity="0"/></radialGradient><radialGradient id="w" cx="0" cy="0" r="1" gradientUnits="userSpaceOnUse" gradientTransform="matrix(-.32502 -.14335 .26108 -.59197 85.736 57.852)"><stop stop-color="#93E19F"/><stop offset="1" stop-color="#93E19F" stop-opacity="0"/></radialGradient><radialGradient id="x" cx="0" cy="0" r="1" gradientUnits="userSpaceOnUse" gradientTransform="rotate(117.327 23.966 61.105) scale(.35508 .64673)"><stop stop-color="#93E19F"/><stop offset="1" stop-color="#93E19F" stop-opacity="0"/></radialGradient><radialGradient id="Y" cx="0" cy="0" r="1" gradientUnits="userSpaceOnUse" gradientTransform="matrix(-1.17874 1.19941 -.8356 -.8212 62.89 25.054)"><stop stop-color="#fff"/><stop offset=".948" stop-color="#fff" stop-opacity="0"/></radialGradient><radialGradient id="Z" cx="0" cy="0" r="1" gradientUnits="userSpaceOnUse" gradientTransform="matrix(-2.58695 4.552 -2.48687 -1.41331 57.178 45.9)"><stop stop-color="#fff"/><stop offset=".948" stop-color="#fff" stop-opacity="0"/></radialGradient></defs></svg>