<svg width="14" height="14" viewBox="0 0 14 14" fill="none" xmlns="http://www.w3.org/2000/svg">
<path fill-rule="evenodd" clip-rule="evenodd" d="M9.54104 7.35368C9.73631 7.15843 9.73632 6.84184 9.54106 6.64658C9.3458 6.45131 9.02922 6.4513 8.83396 6.64656L7.5 7.98045L7.5 2.1875C7.5 1.91136 7.27614 1.6875 7 1.6875C6.72386 1.6875 6.5 1.91136 6.5 2.1875L6.5 7.98048L5.16594 6.64645C4.97068 6.45119 4.6541 6.45119 4.45884 6.64645C4.26358 6.84172 4.26358 7.1583 4.45884 7.35356L6.64642 9.5411C6.84168 9.73635 7.15825 9.73636 7.35351 9.5411L9.54104 7.35368Z" fill="#6F737A"/>
<rect width="10.5" height="0.875" rx="0.4375" transform="matrix(1 0 0 -1 1.75 12.25)" fill="#6F737A"/>
<rect x="1.75" y="8.75" width="0.875" height="3.5" rx="0.4375" fill="#6F737A"/>
<rect x="11.375" y="8.75" width="0.875" height="3.5" rx="0.4375" fill="#6F737A"/>
</svg>
