<svg xmlns="http://www.w3.org/2000/svg" width="16" height="16" viewBox="0 0 16 16">
  <g fill="none" fill-rule="evenodd">
    <path fill="#F26522" fill-opacity=".6" d="M5.63948104,13 C6.44137794,12.6407046 7,11.8355889 7,10.9 L7,10.5 C7,9.22974508 5.97025492,8.2 4.7,8.2 L3,8.2 L3,3 L13,3 L13,13 L5.63948104,13 Z"/>
    <path fill="#231F20" fill-opacity=".7" d="M1.9,2.5 C2.564,2.5 3,2.38439941 3,1.75 C3,1.11560059 2.557,1 1.9,1 L1,1 L1,2.5 L1.9,2.5 Z M0,0 L1.971,0 C3.142,0 4,0.642 4,1.65 C4,3.28582764 2.971,3.5 1.872,3.5 L1,3.5 L1,5 L0,5 L0,0 Z" transform="translate(2 9)"/>
  </g>
</svg>
