<svg xmlns="http://www.w3.org/2000/svg" width="16" height="16" viewBox="0 0 16 16">
  <g fill="none" fill-rule="evenodd">
    <path fill="#F26522" fill-opacity=".6" d="M10,13 L5.63948104,13 C6.44137794,12.6407046 7,11.8355889 7,10.9 L7,10.5 C7,9.22974508 5.97025492,8.2 4.7,8.2 L3,8.2 L3,7.4317582 C3.38479604,7.60456946 3.80704956,7.7 4.25,7.7 C5.49794533,7.7 6.42251969,7.14168445 7.02372308,6.02505335 L6,5 L4.01186154,5 L4,4 L6,4 L7.02372308,3 L13,3 L13,8 L8.5,8 L8.5,11 L10,11 L10,13 Z"/>
    <path fill="#231F20" fill-opacity=".7" d="M0,2.501 C0,1 0.931,2.02832126e-16 2.256,0 C3.20239258,0 3.55,0.311 3.969,0.753 L3.42669678,1.42712402 C3.07669678,1.06812402 2.75,1 2.25,1 C1.418,1 1,1.73791504 1,2.487 C1,3.23608496 1.412,4 2.25,4 C2.787,4 3.05169678,3.89340869 3.42669678,3.50640869 L4,4.144 C3.544,4.669 3.19732666,5 2.225,5 C0.949,5 7.35277938e-17,4.002 0,2.501 Z" transform="translate(2 2)"/>
    <path fill="#231F20" fill-opacity=".7" d="M1.9,2.5 C2.564,2.5 3,2.38439941 3,1.75 C3,1.11560059 2.557,1 1.9,1 L1,1 L1,2.5 L1.9,2.5 Z M0,0 L1.971,0 C3.142,0 4,0.642 4,1.65 C4,3.28582764 2.971,3.5 1.872,3.5 L1,3.5 L1,5 L0,5 L0,0 Z" transform="translate(2 9)"/>
    <polygon fill="#231F20" fill-opacity=".7" points="2 1 .5 1 .5 0 4.5 0 4.5 1 3 1 3 5 2 5" transform="translate(9 9)"/>
  </g>
</svg>
