<!-- Copyright 2000-2022 JetBrains s.r.o. and contributors. Use of this source code is governed by the Apache 2.0 license. -->
<svg width="12" height="12" viewBox="0 0 12 12" fill="none" xmlns="http://www.w3.org/2000/svg">
<path d="M7.9996 2.01567L7.91245 2.06472L7.9996 2.01567L7.31736 0.803526C7.21641 0.624166 7.04094 0.492524 6.83189 0.461385C6.5604 0.420946 6.28259 0.4 5.99996 0.4C5.71729 0.4 5.43945 0.420952 5.16792 0.461403C4.95887 0.492546 4.78341 0.624186 4.68246 0.803541L4.00023 2.01567C3.9087 2.17829 3.73582 2.2781 3.54922 2.27606L2.15916 2.26083C1.95374 2.25858 1.75239 2.3444 1.62082 2.50924C1.27535 2.94207 0.992672 3.42731 0.786638 3.95117C0.709376 4.14761 0.735743 4.36507 0.840453 4.54193L1.54954 5.73961C1.64461 5.90019 1.64461 6.09981 1.54954 6.26039L0.840453 7.45807C0.735744 7.63493 0.709376 7.85239 0.786639 8.04884C0.992673 8.57269 1.27535 9.05793 1.62082 9.49076C1.75239 9.65561 1.95375 9.74142 2.15916 9.73917L3.54922 9.72394C3.73582 9.7219 3.9087 9.82171 4.00023 9.98433L4.68246 11.1965C4.7834 11.3758 4.95887 11.5075 5.16792 11.5386C5.43945 11.579 5.71729 11.6 5.99996 11.6C6.2826 11.6 6.5604 11.5791 6.83189 11.5386C7.04094 11.5075 7.21641 11.3758 7.31736 11.1965L7.9996 9.98433C8.09113 9.82171 8.26401 9.7219 8.45061 9.72394L9.84076 9.73917C10.0462 9.74142 10.2475 9.65561 10.3791 9.49076C10.7246 9.05796 11.0072 8.57276 11.2132 8.04895C11.2905 7.8525 11.2641 7.63503 11.1594 7.45817L10.4503 6.26039C10.3552 6.09981 10.3552 5.90019 10.4503 5.73961L11.1594 4.54183C11.2641 4.36497 11.2905 4.1475 11.2132 3.95105C11.0072 3.42724 10.7246 2.94204 10.3791 2.50924C10.2475 2.34439 10.0462 2.25858 9.84076 2.26083L8.45061 2.27606C8.26401 2.2781 8.09113 2.17829 7.9996 2.01567ZM2.39774 5.23743L1.76391 4.16686C1.90584 3.83943 2.0848 3.5314 2.29567 3.2481L3.53842 3.26171C4.08489 3.2677 4.59119 2.97539 4.85923 2.49914L5.46895 1.41586C5.6429 1.39597 5.82007 1.38571 5.99996 1.38571C6.17982 1.38571 6.35696 1.39596 6.53088 1.41584L7.1406 2.49914C7.40865 2.97539 7.91494 3.2677 8.46141 3.26171L9.70426 3.2481C9.91511 3.53137 10.0941 3.83937 10.236 4.16677L9.60209 5.23743C9.32367 5.70769 9.32367 6.29231 9.60209 6.76257L10.236 7.83324C10.0941 8.16063 9.91511 8.46863 9.70426 8.75191L8.46141 8.73829C7.91494 8.7323 7.40865 9.02461 7.1406 9.50086L6.53088 10.5842C6.35696 10.604 6.17983 10.6143 5.99996 10.6143C5.82007 10.6143 5.6429 10.604 5.46894 10.5841L4.85923 9.50086C4.59119 9.02461 4.08489 8.7323 3.53843 8.73829L2.29567 8.7519C2.0848 8.46861 1.90584 8.16057 1.76391 7.83314L2.39774 6.76257C2.67616 6.29231 2.67616 5.70769 2.39774 5.23743ZM5.9999 8.18294C7.2055 8.18294 8.18283 7.20561 8.18283 6.00001C8.18283 4.79441 7.2055 3.81708 5.9999 3.81708C4.7943 3.81708 3.81697 4.79441 3.81697 6.00001C3.81697 7.20561 4.7943 8.18294 5.9999 8.18294ZM7.19711 6.00001C7.19711 6.66121 6.6611 7.19722 5.9999 7.19722C5.3387 7.19722 4.80269 6.66121 4.80269 6.00001C4.80269 5.33881 5.3387 4.8028 5.9999 4.8028C6.6611 4.8028 7.19711 5.33881 7.19711 6.00001Z" fill="#818594" stroke="#818594" stroke-width="0.2"/>
</svg>
