<!-- Copyright 2000-2023 JetBrains s.r.o. and contributors. Use of this source code is governed by the Apache 2.0 license. -->
<svg width="12" height="12" viewBox="0 0 12 12" fill="none" xmlns="http://www.w3.org/2000/svg">
<path d="M3.32162 2.54657C3.74755 2.55124 4.14217 2.32341 4.35109 1.9522L5.09534 0.629884C5.12166 0.583113 5.15824 0.564157 5.18389 0.560336C5.45049 0.52062 5.72359 0.5 6.00183 0.5C6.28002 0.5 6.55308 0.520613 6.81964 0.560318C6.84529 0.564139 6.88187 0.583095 6.90819 0.629866L7.65245 1.9522C7.86138 2.3234 8.256 2.55124 8.68193 2.54657L10.1985 2.52996C10.252 2.52937 10.2868 2.55148 10.303 2.57186C10.6425 2.99718 10.92 3.47369 11.1222 3.98773C11.1317 4.01176 11.1335 4.05283 11.1062 4.09897L10.3326 5.40563C10.1156 5.77217 10.1156 6.22784 10.3326 6.59437L11.1062 7.90104C11.1335 7.94718 11.1317 7.98825 11.1222 8.01227C10.92 8.52631 10.6425 9.00282 10.303 9.42814C10.2868 9.44853 10.252 9.47063 10.1985 9.47004L8.68193 9.45343C8.256 9.44876 7.86138 9.6766 7.65245 10.0478L6.9082 11.3701C6.88187 11.4169 6.84529 11.4359 6.81964 11.4397C6.55308 11.4794 6.28002 11.5 6.00183 11.5C5.72359 11.5 5.45049 11.4794 5.18389 11.4397C5.15824 11.4358 5.12166 11.4169 5.09534 11.3701L4.35109 10.0478C4.14217 9.6766 3.74755 9.44876 3.32162 9.45343L1.80519 9.47004C1.75167 9.47063 1.71689 9.44852 1.70062 9.42814C1.36113 9.00279 1.08358 8.52625 0.881387 8.01216C0.871939 7.98814 0.870071 7.94707 0.897388 7.90093L1.67094 6.59437C1.88794 6.22784 1.88794 5.77217 1.67094 5.40563L0.897387 4.09907C0.870071 4.05293 0.871938 4.01187 0.881386 3.98784C1.08358 3.47376 1.36112 2.99721 1.70062 2.57186C1.71689 2.55148 1.75167 2.52937 1.80519 2.52996L3.32162 2.54657Z" stroke="#9DA0A8"/>
<circle cx="6" cy="6" r="1.5" stroke="#9DA0A8"/>
</svg>
