<!-- Copyright 2000-2022 JetBrains s.r.o. and contributors. Use of this source code is governed by the Apache 2.0 license. -->
<svg width="16" height="16" viewBox="0 0 16 16" fill="none" xmlns="http://www.w3.org/2000/svg">
<rect x="5.70142" y="12" width="4.6" height="1" fill="#CED0D6"/>
<path d="M6 14H10V14C10 14.5523 9.55228 15 9 15H7C6.44772 15 6 14.5523 6 14V14Z" fill="#CED0D6"/>
<path fill-rule="evenodd" clip-rule="evenodd" d="M9.96499 8.57574L10.2718 8.34643C11.2014 7.65181 11.8 6.54594 11.8 5.3C11.8 3.20132 10.0986 1.5 7.99995 1.5C5.90127 1.5 4.19995 3.20132 4.19995 5.3C4.19995 6.54593 4.79852 7.65179 5.72804 8.34641L6.03489 8.57572L6.31974 9.99999H9.68013L9.96499 8.57574ZM10.4999 11H5.49994L5.12943 9.14746C3.95817 8.27218 3.19995 6.87464 3.19995 5.3C3.19995 2.64903 5.34898 0.5 7.99995 0.5C10.6509 0.5 12.8 2.64903 12.8 5.3C12.8 6.87465 12.0417 8.27221 10.8704 9.14748L10.4999 11Z" fill="#CED0D6"/>
</svg>
