<svg width="16" height="16" viewBox="0 0 16 16" fill="none" xmlns="http://www.w3.org/2000/svg">
<path fill-rule="evenodd" clip-rule="evenodd" d="M8 4C6.88202 4 5.90549 4.61107 5.38842 5.52221L5.13918 5.96142L4.63778 6.02154C3.15216 6.1997 2 7.46604 2 9C2 10.6569 3.34315 12 5 12H11.5C12.8807 12 14 10.8807 14 9.5C14 8.21144 13.0243 7.14944 11.7721 7.01455L11.0795 6.93995L10.9094 6.26445C10.5817 4.96266 9.402 4 8 4ZM3.91338 4.1186C4.81752 2.83853 6.31032 2 8 2C10.1077 2 11.909 3.30344 12.6452 5.14722C14.5761 5.65404 16 7.4102 16 9.5C16 11.9853 13.9853 14 11.5 14H5C2.23858 14 0 11.7614 0 9C0 6.61144 1.6741 4.61517 3.91338 4.1186Z" fill="#9AA7B0" fill-opacity="0.6"/>
</svg>
