<?xml version="1.0" encoding="utf-8"?>
<!-- Uploaded to: SVG Repo, www.svgrepo.com, Generator: SVG Repo Mixer Tools -->
<svg width="16px" height="16px" viewBox="-68.09 0 288.873 288.873" xmlns="http://www.w3.org/2000/svg"><defs><style>.a{fill:#ffffff;}.b{fill:#211715;}.c{fill:#f8b8b4;}</style></defs><path class="a" d="M79.73,56H71.883c.367-14.274,1.13-30.642-5.078-44.06-1.537-3.323-4.634-8.1-8.875-9.2a8.606,8.606,0,0,0-7.441,1.22A14.557,14.557,0,0,0,45.548,10.8,40.107,40.107,0,0,0,43.017,24.2a53.783,53.783,0,0,0,1.44,13.428,100.237,100.237,0,0,0,6.7,20.3,38.04,38.04,0,0,0-12.23,9.042c-6.866,7.185-12.76,20.346-12.753,29.733a30.409,30.409,0,0,0-5.819,23.5A25.16,25.16,0,0,0,34.5,138.473c.249.109.5.214.753.314a92.358,92.358,0,0,0-21.1,61.731,50.918,50.918,0,0,0-5.761,9.062c-3.345,7.525-5.4,13.405-5.878,21.96-.459,8.182.727,13.5,3.943,19.227a44.006,44.006,0,0,0,6.864,8.654c8.174,7.118,21.158,9.71,29.2,11.859-.554,2.726-1.295,5.9-.813,7.382a11.166,11.166,0,0,0,7.289,6.788,18.384,18.384,0,0,0,9.066.786c1.907-.221,4.686-.741,6.233-2.013,1.992-1.637,4.889-5.24,5.333-7.963a11.8,11.8,0,0,0,.018-3H82.544a11.8,11.8,0,0,0,.018,3c.444,2.723,3.341,6.326,5.333,7.963,1.547,1.272,4.326,1.792,6.233,2.013a18.384,18.384,0,0,0,9.066-.786,11.166,11.166,0,0,0,7.289-6.788c.441-1.361-.305-4.422-.967-7.212,7.973-2.185,21.431-4.723,29.822-12.029a44.006,44.006,0,0,0,6.864-8.654c3.216-5.727,4.4-11.045,3.943-19.227-.48-8.555-2.533-14.435-5.878-21.96a54.043,54.043,0,0,0-6.3-9.778,92.442,92.442,0,0,0-21.1-60.994c.27-.107.539-.218.806-.335a25.16,25.16,0,0,0,14.136-18.262,30.409,30.409,0,0,0-5.819-23.5c.007-9.387-5.887-22.548-12.753-29.733a37.968,37.968,0,0,0-12.166-9.009,100.126,100.126,0,0,0,6.721-20.336,53.783,53.783,0,0,0,1.44-13.428A40.107,40.107,0,0,0,106.7,10.8a14.557,14.557,0,0,0-4.941-6.834,8.606,8.606,0,0,0-7.441-1.22c-4.241,1.1-7.338,5.877-8.875,9.2C79.232,25.361,80,41.729,80.362,56Z"/><path class="b" d="M49.113,56.291C36.465,62.879,27.875,75.523,24.7,89.3,24,92.3,28.627,93.586,29.323,90.573a51.427,51.427,0,0,1,8.41-18.421,39.043,39.043,0,0,1,13.8-11.716c2.741-1.428.317-5.572-2.423-4.145Z"/><path class="b" d="M23.575,96.214a32.822,32.822,0,0,0-5.844,22.567,28.178,28.178,0,0,0,10.333,18.575c3.751,2.94,8.02,4.27,12.5,5.706,2.949.945,4.211-3.688,1.276-4.629-3.431-1.1-6.823-2.025-9.827-4.089a21.987,21.987,0,0,1-6.075-6.439,24.657,24.657,0,0,1-3-18.542A30.391,30.391,0,0,1,27.72,98.637a2.423,2.423,0,0,0-.861-3.284,2.449,2.449,0,0,0-3.284.861Z"/><path class="b" d="M78.687,118.358c-1.837.568-6.058.211-6.408-3.254.04-4.581,5.145-4.838,7.541-3.3C81.782,113.06,82.589,116.771,78.687,118.358Z"/><path class="b" d="M53.359,100.112c-.748,2.42-.278,7.981,4.288,8.442,6.036-.052,6.374-6.778,4.35-9.935C60.34,96.034,55.45,94.971,53.359,100.112Z"/><path class="b" d="M98.886,100.112c.748,2.42.278,7.982-4.288,8.443-6.036-.053-6.374-6.78-4.35-9.936C91.905,96.034,96.794,94.97,98.886,100.112Z"/><path class="b" d="M75.4,126.734a26.108,26.108,0,0,1,2.86-2.57l-.486.376q.195-.15.392-.3l-2.908-.375a34.1,34.1,0,0,1,3.2,2.81,2.4,2.4,0,0,0,3.394-3.394,33.832,33.832,0,0,0-3.195-2.81,2.692,2.692,0,0,0-1.378-.66,2.207,2.207,0,0,0-1.531.285,30.428,30.428,0,0,0-3.737,3.242,2.4,2.4,0,1,0,3.394,3.394Z"/><path class="b" d="M74.558,119.03v2.621a2.658,2.658,0,0,0,.7,1.7,1.785,1.785,0,0,0,.772.5,1.8,1.8,0,0,0,.925.207l.638-.086a2.4,2.4,0,0,0,1.059-.617,2.494,2.494,0,0,0,.7-1.7V119.03a2.469,2.469,0,0,0-2.4-2.4l-.638.086a2.4,2.4,0,0,0-1.059.617,2.491,2.491,0,0,0-.7,1.7Z"/><path class="b" d="M100.629,60.436a39.039,39.039,0,0,1,13.8,11.716,51.429,51.429,0,0,1,8.411,18.421c.694,3.008,5.323,1.735,4.628-1.276-3.18-13.774-11.77-26.418-24.419-33.006-2.736-1.425-5.166,2.716-2.422,4.145Z"/><path class="b" d="M74.283,56c.219-8.442.534-16.919-.332-25.337-.815-7.917-2.472-16.507-6.924-23.266-2.021-3.07-4.793-6-8.459-6.972A11.541,11.541,0,0,0,46.881,3.976c-2.911,3.216-4.365,7.5-5.265,11.676a47.855,47.855,0,0,0-.818,14.1,82.118,82.118,0,0,0,3.15,15.509,86.645,86.645,0,0,0,5.577,14.77,2.423,2.423,0,0,0,3.283.861,2.449,2.449,0,0,0,.861-3.284,88.781,88.781,0,0,1-7.533-23.7,48.442,48.442,0,0,1-.559-12.65A30.672,30.672,0,0,1,48.563,9.911c1.543-2.924,4.13-5.492,7.683-5.068,2.935.349,5.089,2.628,6.637,4.979,3.862,5.865,5.441,13.326,6.2,20.207.95,8.625.624,17.319.4,25.974-.08,3.09,4.72,3.088,4.8,0Z"/><path class="b" d="M82.762,56a222.351,222.351,0,0,1,.122-22.992c.558-7.182,1.864-14.775,5.3-21.2,1.33-2.489,3.14-5.163,5.772-6.408,3.13-1.48,6.353-.153,8.4,2.405,2.314,2.889,3.273,6.9,3.914,10.464a44.77,44.77,0,0,1,.29,12.44,79.1,79.1,0,0,1-3.014,13.71A78.8,78.8,0,0,1,98.576,57.61a2.46,2.46,0,0,0,.861,3.284,2.422,2.422,0,0,0,3.283-.861,83.829,83.829,0,0,0,5.064-13.016,94,94,0,0,0,3.222-13.5,51.931,51.931,0,0,0,.229-14.294c-.575-4.341-1.647-8.976-3.983-12.739C104.976,2.817,101.29-.029,96.822,0A12.953,12.953,0,0,0,86.94,5.082c-5.054,6.132-7.17,14.472-8.231,22.192-1.31,9.532-1,19.139-.747,28.729.08,3.083,4.881,3.095,4.8,0Z"/><path class="b" d="M124.445,98.637a28.715,28.715,0,0,1,5.265,19.529A23.416,23.416,0,0,1,121,133.735c-3.17,2.47-6.908,3.492-10.671,4.7-2.93.94-1.677,5.576,1.276,4.629,3.864-1.238,7.759-2.325,11.126-4.677a27.861,27.861,0,0,0,7.546-7.9,29.546,29.546,0,0,0,3.674-21.993,33.931,33.931,0,0,0-5.357-12.277,2.463,2.463,0,0,0-3.284-.861,2.421,2.421,0,0,0-.861,3.284Z"/><path class="c" d="M98.356,26.809a3.142,3.142,0,0,0-2-2.436,3.035,3.035,0,0,0-2.9.966,7.366,7.366,0,0,0-1.7,2.713,91.884,91.884,0,0,0-4.194,24.82,1.793,1.793,0,0,0,.6,1.551,11.6,11.6,0,0,0,4.066,1.467,2.283,2.283,0,0,0,1.506-.157,1.425,1.425,0,0,0,.667-.941c1.354-5.337,2.3-9.933,3.271-15.031a53.06,53.06,0,0,0,.943-10.709A10.361,10.361,0,0,0,98.356,26.809Z"/><path class="c" d="M53.829,26.809a3.139,3.139,0,0,1,2-2.436,3.033,3.033,0,0,1,2.9.966,7.368,7.368,0,0,1,1.7,2.713,91.922,91.922,0,0,1,4.194,24.82,1.793,1.793,0,0,1-.6,1.551,11.594,11.594,0,0,1-4.067,1.467,2.281,2.281,0,0,1-1.5-.157,1.419,1.419,0,0,1-.667-.941c-1.354-5.337-2.3-9.933-3.271-15.031a52.988,52.988,0,0,1-.943-10.709A10.361,10.361,0,0,1,53.829,26.809Z"/><path class="b" d="M138.528,204.611A53.205,53.205,0,0,1,147.8,236.7a29.866,29.866,0,0,1-13.177,23.27c-5.261,3.392-11.282,5.329-17.278,6.964-2.977.812-1.713,5.444,1.276,4.629a71.411,71.411,0,0,0,16.7-6.4,30.015,30.015,0,0,0,6.712-4.993,48.444,48.444,0,0,0,4.983-6.214c6.6-9.551,6.728-21.988,3.982-32.911a58.334,58.334,0,0,0-8.324-18.849,2.464,2.464,0,0,0-3.284-.861,2.422,2.422,0,0,0-.861,3.284Z"/><path class="b" d="M9.98,202.188a58.835,58.835,0,0,0-7.7,16.6,54.216,54.216,0,0,0-2.2,18.3A32.784,32.784,0,0,0,4.64,252.421,35.865,35.865,0,0,0,15.272,263.89c5.652,3.743,12.27,5.9,18.761,7.668,2.984.814,4.257-3.816,1.276-4.629a66.807,66.807,0,0,1-15.377-5.819A30.352,30.352,0,0,1,9.6,251.255c-5.807-8.562-5.742-19.608-3.216-29.32a54.518,54.518,0,0,1,7.744-17.324,2.423,2.423,0,0,0-.861-3.284,2.45,2.45,0,0,0-3.284.861Z"/><path class="b" d="M33.531,137.106a96.386,96.386,0,0,0-21.456,51.768,88.475,88.475,0,0,0-.07,15.763,2.463,2.463,0,0,0,2.4,2.4,2.418,2.418,0,0,0,2.4-2.4,89.362,89.362,0,0,1,11.47-51.486,91.3,91.3,0,0,1,8.65-12.651,2.471,2.471,0,0,0,0-3.394,2.418,2.418,0,0,0-3.394,0Z"/><path class="b" d="M115.162,140.5a90.7,90.7,0,0,1,20.106,48.986,88.317,88.317,0,0,1,.013,15.151,2.42,2.42,0,0,0,2.4,2.4,2.448,2.448,0,0,0,2.4-2.4,93.864,93.864,0,0,0-12.228-54.09,98.687,98.687,0,0,0-9.3-13.441,2.417,2.417,0,0,0-3.394,0,2.455,2.455,0,0,0,0,3.394Z"/><path class="b" d="M109.287,245.387c-.667,3.8-1.36,7.6-1.919,11.417-.258,1.755-.494,3.515-.688,5.278a31.913,31.913,0,0,0-.385,5.1,42.886,42.886,0,0,0,1.38,6.937,19.162,19.162,0,0,1,.524,2.986c.012.223.011.444.014.668.011.627.153-.427,0,.1a6.463,6.463,0,0,1-.921,1.876c-3.3,4.739-10.556,4.971-15.6,3.612-2.649-.713-4.429-2.864-5.8-5.185a6.2,6.2,0,0,1-1.037-3.1c-.021-1.826.355-3.617.472-5.432.417-6.475.6-12.97.963-19.448.175-3.087-4.626-3.077-4.8,0-.355,6.305-.649,12.612-.937,18.92-.081,1.788-.443,3.552-.492,5.341a10.811,10.811,0,0,0,1.09,5.023,17.207,17.207,0,0,0,6.345,7.37c2.958,1.655,6.9,2.066,10.227,2.011a18.419,18.419,0,0,0,10.1-3.063c2.558-1.8,5.01-4.654,5.178-7.923.132-2.579-.767-5.286-1.346-7.772-.161-.693-.321-1.387-.45-2.087-.025-.135-.129-.866-.081-.424a6.881,6.881,0,0,1-.048-.772,53.31,53.31,0,0,1,.615-6.584c.577-4.546,1.425-9.055,2.217-13.567a2.469,2.469,0,0,0-1.676-2.952,2.42,2.42,0,0,0-2.953,1.676Z"/><path class="b" d="M92.69,281.066c.017.036.033.073.049.11L92.5,280.6a4.47,4.47,0,0,1,.279,1.074l-.086-.638a6.676,6.676,0,0,1-.007,1.683l.085-.638a6.91,6.91,0,0,1-.471,1.753,2.4,2.4,0,0,0,.242,1.85,2.4,2.4,0,0,0,3.283.861l.486-.375a2.4,2.4,0,0,0,.617-1.059,8.68,8.68,0,0,0,.614-3.1,9.252,9.252,0,0,0-.16-1.78,6.4,6.4,0,0,0-.545-1.587,2.408,2.408,0,0,0-1.434-1.1,2.455,2.455,0,0,0-1.849.242,2.422,2.422,0,0,0-1.1,1.435l-.086.638a2.375,2.375,0,0,0,.328,1.211Z"/><path class="b" d="M100.992,279.887a4.18,4.18,0,0,1,.262,1l-.086-.638a8.589,8.589,0,0,1-.049,2.219l.085-.638a8.307,8.307,0,0,1-.282,1.494l.242-.573a.457.457,0,0,1-.072.127,2.4,2.4,0,0,0,2.711,3.526,2.675,2.675,0,0,0,1.434-1.1,4.344,4.344,0,0,0,.532-1.77,18.861,18.861,0,0,0,.235-1.91,7.37,7.37,0,0,0-.026-1.3,6.388,6.388,0,0,0-.357-1.717,2.69,2.69,0,0,0-1.1-1.434,2.4,2.4,0,0,0-3.284.861,2.321,2.321,0,0,0-.242,1.849Z"/><path class="b" d="M38.264,246.663c.63,3.622,1.126,7.265,1.523,10.92q.323,2.956.56,5.922a36.119,36.119,0,0,1,.262,4.692,1.622,1.622,0,0,1-.028.347c-.045.327-.106.653-.166.978-.123.67-.264,1.337-.4,2-.3,1.459-.591,2.919-.765,4.4a9.785,9.785,0,0,0,3,8.113c4.93,5.092,13.189,5.734,19.7,3.9,3.327-.938,5.57-3.191,7.552-5.923a14.666,14.666,0,0,0,2.262-4.367,13.741,13.741,0,0,0,.161-5.521c-.339-2.871-.408-5.754-.544-8.64q-.312-6.649-.686-13.3c-.175-3.072-4.976-3.092-4.8,0q.524,9.249.92,18.506c.107,2.594,1.154,5.7.15,8.2-.87,2.158-2.885,4.96-5,5.967a17.98,17.98,0,0,1-8.476,1.154A12.451,12.451,0,0,1,45.89,280.9a7.989,7.989,0,0,1-1.879-2.871c-.043-.107-.106-.681-.054-.149a5.914,5.914,0,0,1-.012-.717,10.71,10.71,0,0,1,.173-1.648,64.771,64.771,0,0,0,1.3-7.426,37.533,37.533,0,0,0-.287-4.794q-.249-3.079-.591-6.15c-.437-3.932-.969-7.856-1.646-11.753a2.42,2.42,0,0,0-2.953-1.676,2.454,2.454,0,0,0-1.676,2.952Z"/><path class="b" d="M55.346,278.643a6.451,6.451,0,0,0-.539,1.554,9.116,9.116,0,0,0-.166,1.813,8.684,8.684,0,0,0,.614,3.1,2.682,2.682,0,0,0,1.1,1.434,2.456,2.456,0,0,0,1.85.242,2.426,2.426,0,0,0,1.434-1.1,2.308,2.308,0,0,0,.242-1.85,6.91,6.91,0,0,1-.471-1.753l.085.638a6.676,6.676,0,0,1-.007-1.683l-.086.638a4.47,4.47,0,0,1,.279-1.074l-.242.573c.016-.037.032-.074.049-.11a1.777,1.777,0,0,0,.285-.892,1.812,1.812,0,0,0-.043-.957,2.4,2.4,0,0,0-2.952-1.677,2.342,2.342,0,0,0-1.434,1.1Z"/><path class="b" d="M46.559,278.611a6.388,6.388,0,0,0-.357,1.717,7.37,7.37,0,0,0-.026,1.3,18.861,18.861,0,0,0,.235,1.91,4.344,4.344,0,0,0,.532,1.77,2.562,2.562,0,0,0,1.434,1.1,2.458,2.458,0,0,0,1.85-.242,2.43,2.43,0,0,0,1.1-1.435,2.393,2.393,0,0,0-.242-1.849.457.457,0,0,1-.072-.127l.242.573a8.4,8.4,0,0,1-.283-1.494l.086.638a8.589,8.589,0,0,1-.049-2.219l-.086.638a4.18,4.18,0,0,1,.262-1,2.4,2.4,0,0,0-.242-1.849,2.4,2.4,0,0,0-3.284-.861l-.486.375a2.4,2.4,0,0,0-.617,1.059Z"/><path class="b" d="M70.458,145.886a20.3,20.3,0,0,0,11.329-.008,2.4,2.4,0,0,0-1.276-4.629,22.507,22.507,0,0,1-2.445.555c-.56.095.414-.034-.1.014-.215.02-.429.044-.645.06q-.6.045-1.195.045-.552,0-1.1-.036-.322-.022-.645-.056c-.092-.01-.185-.02-.277-.032q.495.069.082.009a23.869,23.869,0,0,1-2.446-.551,2.4,2.4,0,0,0-1.276,4.629Z"/></svg>