<!-- Copyright 2000-2024 JetBrains s.r.o. and contributors. Use of this source code is governed by the Apache 2.0 license. -->
<svg width="16" height="16" viewBox="0 0 16 16" fill="none" xmlns="http://www.w3.org/2000/svg">
<path d="M12 15.5H11C10.1716 15.5 9.5 14.8284 9.5 14V13.5H9C8.17157 13.5 7.5 12.8284 7.5 12V11C7.5 10.1716 8.17157 9.5 9 9.5H9.5V9C9.5 8.17157 10.1716 7.5 11 7.5H12C12.8284 7.5 13.5 8.17157 13.5 9V9.5H14C14.8284 9.5 15.5 10.1716 15.5 11V12C15.5 12.8284 14.8284 13.5 14 13.5H13.5V14C13.5 14.8284 12.8284 15.5 12 15.5Z" stroke="#6C707E"/>
<path d="M9.5 13.5V13C9.5 12.1716 10.1716 11.5 11 11.5H12C12.8284 11.5 13.5 10.8284 13.5 10V9.5" stroke="#6C707E"/>
<rect x="11.25" y="9.25" width="0.5" height="0.5" stroke="#6C707E" stroke-width="0.5"/>
<rect x="11.25" y="13.25" width="0.5" height="0.5" stroke="#6C707E" stroke-width="0.5"/>
<path d="M8.2095 1.04602C8.07656 0.98466 7.92339 0.98466 7.79045 1.04602L1.29047 4.04602C1.12528 4.12226 1.01551 4.28162 1.00152 4.461C1.00055 4.47334 1.00005 4.48567 1 4.49796C1 4.49864 1 4.49932 1 4.5V11.5199C1 11.7154 1.11392 11.8929 1.29162 11.9744L6 14.1331V13.033L2 11.1991V5.28152L7.29059 7.72333C7.54132 7.83905 7.83838 7.72961 7.9541 7.47888C8.06982 7.22815 7.96038 6.93109 7.70965 6.81537L2.69315 4.5L7.99998 2.05069L13.3068 4.5L12.2235 5L12.1239 5.04614C11.8732 5.16186 11.7638 5.45892 11.8795 5.70965C11.9952 5.96038 12.2923 6.06982 12.543 5.9541L14 5.28163V6.76389C14.4044 7.12583 14.71 7.59585 14.8715 8.12854C14.9147 8.14165 14.9576 8.15571 15 8.17071V4.51528C15.0023 4.44019 14.9877 4.36344 14.9541 4.29059C14.9109 4.19696 14.8424 4.12303 14.7604 4.07317C14.7441 4.06323 14.7271 4.05415 14.7095 4.04602L8.2095 1.04602Z" fill="#6C707E"/>
</svg>
