<!-- Copyright 2000-2021 JetBrains s.r.o. Use of this source code is governed by the Apache 2.0 license that can be found in the LICENSE file. -->
<svg xmlns="http://www.w3.org/2000/svg" width="16" height="16" viewBox="0 0 16 16">
  <g fill="none" fill-rule="evenodd">
    <rect width="1" height="3" x="12" y="10" fill="#AFB1B3" transform="matrix(0 1 1 0 1 -1)"/>
    <rect width="3" height="1" x="10" y="10" fill="#AFB1B3" transform="matrix(0 1 1 0 1 -1)"/>
    <path fill="#AFB1B3" d="M11.5,15 C13.4329966,15 15,13.4329966 15,11.5 C15,9.56700338 13.4329966,8 11.5,8 C9.56700338,8 8,9.56700338 8,11.5 C8,13.4329966 9.56700338,15 11.5,15 Z M11.5,16 C9.01471863,16 7,13.9852814 7,11.5 C7,9.01471863 9.01471863,7 11.5,7 C13.9852814,7 16,9.01471863 16,11.5 C16,13.9852814 13.9852814,16 11.5,16 Z" transform="matrix(0 1 1 0 0 0)"/>
    <path fill="#AFB1B3" d="M6.8089452,13.8705788 C4.40112426,13.3847167 2.51559147,11.457246 2.0917128,9.02753834 L3.95124851,9.09247476 C4.27347383,10.2741349 5.09873465,11.2482998 6.18269677,11.770636 C6.24958553,12.5246627 6.46863898,13.2349476 6.8089452,13.8705788 Z M13.7240153,6.17833542 C13.0869437,5.92037437 12.3905424,5.7783185 11.6609622,5.7783185 C11.633392,5.7783185 11.6058692,5.77852136 11.5783952,5.77892566 C10.838332,4.58219813 9.51410889,3.78486844 8.00365886,3.78486844 C6.70217891,3.78486844 5.53896152,4.3768391 4.76857445,5.30621344 L6.95832727,7.2778343 L1.9651796,7.53951408 L1.70350529,2.54647077 L3.43136161,4.10220689 C4.53189662,2.80931852 6.17125988,1.98922961 8.00216403,1.98922961 C10.6847236,1.98922961 12.956106,3.74969902 13.7240153,6.17833542 Z" transform="rotate(3 7.714 7.93)"/>
  </g>
</svg>
