<svg xmlns="http://www.w3.org/2000/svg" width="16" height="16" viewBox="0 0 16 16">
  <g fill="none" fill-rule="evenodd">
    <rect width="1" height="1" x="9" y="8" fill="#AFB1B3"/>
    <rect width="1" height="1" x="11" y="8" fill="#AFB1B3"/>
    <rect width="1" height="1" x="9" y="15" fill="#AFB1B3"/>
    <rect width="1" height="1" x="11" y="15" fill="#AFB1B3"/>
    <rect width="1" height="6" x="10" y="9" fill="#AFB1B3"/>
    <rect width="1" height="1" x="13" y="8" fill="#AFB1B3"/>
    <rect width="1" height="1" x="15" y="8" fill="#AFB1B3"/>
    <rect width="1" height="1" x="13" y="15" fill="#AFB1B3"/>
    <rect width="1" height="1" x="15" y="15" fill="#AFB1B3"/>
    <rect width="1" height="6" x="14" y="9" fill="#AFB1B3"/>
    <path fill="#AFB1B3" d="M7.13241513,2 L6.09688482,3 L1,3 L1,9 L7,9 L7,7.64218765 L8,6.67649887 L8,10 L0,10 L0,2 L7.13241513,2 Z"/>
    <polygon fill="#AFB1B3" fill-rule="nonzero" points="8.968 2 10 2.98 4.478 8.222 1.667 5.553 2.699 4.573 4.478 6.262"/>
  </g>
</svg>
