<svg xmlns="http://www.w3.org/2000/svg" width="16" height="16" viewBox="0 0 16 16">
  <g fill="none" fill-rule="evenodd">
    <rect width="1" height="1" x="9" y="8" fill="#6E6E6E"/>
    <rect width="1" height="1" x="11" y="8" fill="#6E6E6E"/>
    <rect width="1" height="1" x="9" y="15" fill="#6E6E6E"/>
    <rect width="1" height="1" x="11" y="15" fill="#6E6E6E"/>
    <rect width="1" height="6" x="10" y="9" fill="#6E6E6E"/>
    <rect width="1" height="1" x="13" y="8" fill="#6E6E6E"/>
    <rect width="1" height="1" x="15" y="8" fill="#6E6E6E"/>
    <rect width="1" height="1" x="13" y="15" fill="#6E6E6E"/>
    <rect width="1" height="1" x="15" y="15" fill="#6E6E6E"/>
    <rect width="1" height="6" x="14" y="9" fill="#6E6E6E"/>
    <path fill="#6E6E6E" d="M7.13241513,1.11022302e-16 L6.09688482,1 L1,1 L1,7 L7,7 L7,5.64218765 L8,4.67649887 L8,8 L0,8 L0,0 L7.13241513,0 Z"/>
    <polygon fill="#6E6E6E" fill-rule="nonzero" points="7.968 0 9 .98 3.478 6.222 .667 3.553 1.699 2.573 3.478 4.262" transform="translate(1)"/>
  </g>
</svg>
