<svg xmlns="http://www.w3.org/2000/svg" width="16" height="16" viewBox="0 0 16 16">
  <g fill="none" fill-rule="evenodd">
    <rect width="3" height="3" x="1" y="6" fill="#AFB1B3"/>
    <rect width="3" height="3" x="5" y="6" fill="#AFB1B3"/>
    <rect width="1" height="2" x="2" y="4" fill="#AFB1B3"/>
    <rect width="1" height="3" x="6" y="3" fill="#AFB1B3"/>
    <rect width="9" height="1" x="2" y="4" fill="#AFB1B3"/>
    <rect width="3" height="3" x="5" fill="#AFB1B3"/>
    <g fill="#3592C4" transform="translate(4 3)">
      <path d="M9.40000027,4.39999992 L12.5999999,4.39999992 L8.4000001,8.59999973 L4.20000029,4.39999992 L7.40000027,4.39999992 L7.40000027,1.39999992 L9.40000027,1.39999992 L9.40000027,4.39999992 Z" transform="rotate(90 8.4 5)"/>
      <path d="M4.5999999,8.4000001 L7.79999971,8.4000001 L3.5999999,12.5999999 L-0.599999905,8.4000001 L2.5999999,8.4000001 L2.5999999,5.4000001 L4.5999999,5.4000001 L4.5999999,8.4000001 Z" transform="matrix(0 1 1 0 -5.4 5.4)"/>
    </g>
  </g>
</svg>
