<!-- Copyright 2000-2021 JetBrains s.r.o. Use of this source code is governed by the Apache 2.0 license that can be found in the LICENSE file. -->
<svg xmlns="http://www.w3.org/2000/svg" width="16" height="16" viewBox="0 0 16 16">
  <g fill="none" fill-rule="evenodd">
    <path fill="#6E6E6E" fill-rule="nonzero" d="M8.5680324,4.97553028 L6.07248899,2.47998684 L0,8.51847817 L0,11 L2.49554344,11 L8.5680324,4.97553028 Z M10.647652,2.89591075 C10.9147826,2.6287544 10.9147826,1.91529537 10.647652,1.64813903 L9.3998802,0.400367308 C9.1327496,0.133210961 8.4192392,0.133210961 8.1521085,0.400367308 L6.9043368,1.64813903 L9.3998802,4.14368247 L10.647652,2.89591075 Z" transform="translate(2 2)"/>
    <g fill="#6E6E6E" transform="translate(7 10)">
      <polygon points="0 3.6 0 2.4 4 0 4 1.2 1.067 3 4 4.8 4 6"/>
      <polygon points="0 4.8 2.933 3 0 1.2 0 0 4 2.4 4 3.6 0 6" transform="translate(5)"/>
    </g>
  </g>
</svg>
