<!-- Copyright 2000-2023 JetBrains s.r.o. and contributors. Use of this source code is governed by the Apache 2.0 license. -->
<svg width="16" height="16" viewBox="0 0 16 16" fill="none" xmlns="http://www.w3.org/2000/svg">
<g clip-path="url(#clip0_659_75852)">
<path d="M7.49998 0.523674C8.50002 5.49999 10.5 7.49999 15.554 8.5C10.5 9.49999 8.5 11.5 7.50005 16.4763C6.50002 11.5 4.50002 9.49999 -0.553986 8.49998C4.5 7.49999 6.5 5.49999 7.49998 0.523674Z" fill="url(#paint0_linear_659_75852)"/>
<path d="M12.9933 4.90705C14.0451 4.90705 14.8979 4.05433 14.8979 3.00245C14.8979 1.95056 14.0451 1.09784 12.9933 1.09784C11.9414 1.09784 11.0886 1.95056 11.0886 3.00245C11.0886 4.05433 11.9414 4.90705 12.9933 4.90705Z" fill="url(#paint1_linear_659_75852)"/>
</g>
<defs>
<linearGradient id="paint0_linear_659_75852" x1="7.50002" y1="0.523674" x2="7.50002" y2="16.4763" gradientUnits="userSpaceOnUse">
<stop stop-color="#3573F0"/>
<stop offset="1" stop-color="#EA33EC"/>
</linearGradient>
<linearGradient id="paint1_linear_659_75852" x1="7.50002" y1="0.523674" x2="7.50002" y2="16.4763" gradientUnits="userSpaceOnUse">
<stop stop-color="#3573F0"/>
<stop offset="1" stop-color="#EA33EC"/>
</linearGradient>
<clipPath id="clip0_659_75852">
<rect width="16" height="16" fill="white"/>
</clipPath>
</defs>
</svg>
