<!-- Copyright 2000-2021 JetBrains s.r.o. Use of this source code is governed by the Apache 2.0 license that can be found in the LICENSE file. -->
<svg xmlns="http://www.w3.org/2000/svg" width="16" height="16" viewBox="0 0 16 16">
  <g fill="none" fill-rule="evenodd">
    <path fill="#AFB1B3" d="M8.5,10.8009928 L8.5,8.29953425 C9.12058727,7.63046487 9.5,6.73454073 9.5,5.75 C9.5,3.67893219 7.82106781,2 5.75,2 C3.67893219,2 2,3.67893219 2,5.75 C2,6.59420444 2.27895862,7.3732546 2.74972536,8 L0.456887333,8 C0.162750276,7.30892136 -4e-16,6.54846686 -4e-16,5.75 C-4e-16,2.57436269 2.57436269,0 5.75,0 C8.92563731,0 11.5,2.57436269 11.5,5.75 C11.5,6.91437025 11.1539091,7.99790665 10.5589858,8.9033508 L14.2417785,12.5861436 L12.6861436,14.1417785 L9.02274643,10.4783814 C8.85478378,10.5948562 8.68031666,10.7026117 8.5,10.8009928 Z" transform="translate(1 1)"/>
    <path fill="#AFB1B3" d="M4,13.8 L4,16 L1,13 L4,10 L4,12.2 L9,12.2 L9,13.8 L4,13.8 Z" transform="matrix(-1 0 0 1 10 0)"/>
  </g>
</svg>
