<!-- Copyright 2000-2021 JetBrains s.r.o. Use of this source code is governed by the Apache 2.0 license that can be found in the LICENSE file. -->
<svg width="16" height="16" viewBox="0 0 16 16" fill="none" xmlns="http://www.w3.org/2000/svg">
<path fill-rule="evenodd" clip-rule="evenodd" d="M6 10.9998C6.14456 8.10337 8.60294 5.86848 11.5 5.9998C12.7596 5.99209 13.9877 6.39319 15 7.14287V3.9998H7.98462L6.69629 2.71123C6.22159 2.28544 5.61575 2.03445 4.979 1.9998H1.05127C1.02298 1.9998 1.00003 2.02271 1 2.051V12.9998H6.46069C6.15837 12.3764 6.00088 11.6927 6 10.9998Z" fill="#6E6E6E"/>
<path fill-rule="evenodd" clip-rule="evenodd" d="M16 10.9995L15.9999 11.0019C14.5951 10.2506 12.9089 10.2467 11.5006 10.9915V10.9864C11.5008 10.1097 12.7719 9.12795 13.5495 8.90735C15.5117 8.35085 16 10.262 16 10.9995ZM9.45193 13.0925C10.2296 12.8721 11.5006 11.8903 11.5008 11.0136V11.0084C10.0926 11.7531 8.40634 11.7492 7.00153 10.9981V11.0004C7.00153 11.7379 7.48983 13.649 9.45193 13.0925Z" fill="#6E6E6E"/>
<path fill-rule="evenodd" clip-rule="evenodd" d="M9.25062 7.37755L9.25282 7.37645C9.25113 8.11996 9.45995 8.84875 9.85512 9.47855C10.2581 10.1217 10.8228 10.6478 11.4929 11.0041L11.4881 11.0066C10.4605 11.2949 9.357 11.0676 8.52702 10.3966C7.02752 9.095 8.56372 7.74635 9.25062 7.37755ZM14.4744 11.6031C13.6445 10.9322 12.541 10.7048 11.5134 10.9929L11.5086 10.9955C12.1787 11.3519 12.7434 11.878 13.1462 12.5211C13.5414 13.1509 13.7503 13.8797 13.7486 14.6232L13.7508 14.6221C14.4377 14.2533 15.9739 12.9046 14.4744 11.6031Z" fill="#6E6E6E"/>
<path fill-rule="evenodd" clip-rule="evenodd" d="M9.25143 14.6227L9.24933 14.6214C9.92774 14.2649 10.4995 13.7349 10.9064 13.0855C11.2977 12.4615 11.5063 11.7405 11.5086 11.0041L11.5134 11.0067C12.2881 11.6676 12.6383 12.6999 12.4255 13.6958C11.9629 15.5538 9.93843 14.9914 9.25143 14.6227ZM10.5757 8.30405C10.3631 9.29991 10.7133 10.3322 11.4879 10.9932L11.4928 10.9958C11.495 10.2593 11.7037 9.53819 12.0951 8.91435C12.502 8.26487 13.0737 7.73487 13.7521 7.37835L13.7498 7.37715C13.0629 7.00845 11.0384 6.44605 10.5757 8.30405V8.30405Z" fill="#6E6E6E"/>
</svg>
