<svg xmlns="http://www.w3.org/2000/svg" width="16" height="16" viewBox="0 0 16 16">
  <g fill="none" fill-rule="evenodd">
    <rect width="1" height="12" x="1" y="2" fill="#AFB1B3"/>
    <rect width="2" height="1" x="2" y="2" fill="#AFB1B3"/>
    <rect width="2" height="1" x="2" y="13" fill="#AFB1B3"/>
    <rect width="1" height="12" x="14" y="2" fill="#AFB1B3"/>
    <rect width="3" height="1" x="12" y="2" fill="#AFB1B3"/>
    <rect width="2" height="1" x="12" y="13" fill="#AFB1B3"/>
    <path fill="#AFB1B3" d="M5,6 L8,6 L8,3 L11,3 L11,12 L5,12 L5,6 Z M7,3 L7,5 L5,5 L7,3 Z M6,8 L6,9 L10,9 L10,8 L6,8 Z M6,10 L6,11 L10,11 L10,10 L6,10 Z"/>
  </g>
</svg>
