<!-- Copyright 2000-2021 JetBrains s.r.o. Use of this source code is governed by the Apache 2.0 license that can be found in the LICENSE file. -->
<svg width="12" height="12" viewBox="0 0 12 12" fill="none" xmlns="http://www.w3.org/2000/svg">
<path fill-rule="evenodd" clip-rule="evenodd" d="M6 0.75C3.102 0.75 0.75 3.102 0.75 6C0.75 8.898 3.102 11.25 6 11.25C8.898 11.25 11.25 8.898 11.25 6C11.25 3.102 8.898 0.75 6 0.75ZM5.47499 10.1632C3.40124 9.906 1.79999 8.142 1.79999 6C1.79999 5.6745 1.84199 5.36475 1.91024 5.06025L4.42499 7.575V8.1C4.42499 8.6775 4.89749 9.15 5.47499 9.15V10.1632ZM9.0975 8.82975C8.961 8.4045 8.5725 8.1 8.1 8.1H7.575V6.525C7.575 6.23625 7.33875 6 7.05 6H3.9V4.95H4.95C5.23875 4.95 5.475 4.71375 5.475 4.425V3.375H6.525C7.1025 3.375 7.575 2.9025 7.575 2.325V2.10975C9.11325 2.7345 10.2 4.24125 10.2 6C10.2 7.092 9.78 8.08425 9.0975 8.82975Z" fill="#7F8B91" fill-opacity="0.9"/>
</svg>
