<svg xmlns="http://www.w3.org/2000/svg" width="16" height="16" viewBox="0 0 16 16">
  <path fill="#7F8B91" fill-opacity=".9" fill-rule="evenodd" d="M4.99657241 4.80843938L4.0437018 8.90087073 5.9562982 8.90087073 4.99657241 4.80843938zM3.76263925 3L6.23736075 3 9 13 6.97772065 13 6.3470437 10.5284662 3.63924593 10.5284662 3.02227935 13 1 13 3.76263925 3zM15 8.95024263L15 13 13.2348354 13 13.2348354 12.0680936C13.0205073 12.3673441 12.7455245 12.5978444 12.4098787 12.7596014 12.0742329 12.9213584 11.7042192 13.0022357 11.2998267 13.0022357 10.5274369 13.0022357 9.92591203 12.7980205 9.49523397 12.3895841 9.06455591 11.9811476 8.8492201 11.4109626 8.8492201 10.6790121 8.8492201 9.88640274 9.10600552 9.30105331 9.61958406 8.92294627 10.1331626 8.54483924 10.927782 8.35578856 12.0034662 8.35578856L13.2348354 8.35578856 13.2348354 8.05856153C13.2348354 7.77144282 13.1307058 7.55408508 12.9224437 7.4064818 12.7141815 7.25887852 12.4078588 7.18507799 12.0034662 7.18507799 11.578854 7.18507799 11.1673908 7.2386592 10.7690641 7.34582322 10.3707375 7.45298725 9.95523036 7.62384054 9.52253033 7.85838821L9.52253033 6.34192374C9.9147911 6.18016672 10.3131118 6.06087271 10.7175043 5.98403813 11.1218969 5.90720354 11.5505466 5.86878683 12.0034662 5.86878683 13.1074579 5.86878683 13.8828689 6.09322133 14.3297227 6.54209705 14.7765765 6.99097278 15 7.79367995 15 8.95024263zM12.52513 9.63568458C11.8619262 9.63568458 11.3989037 9.72060574 11.1360485 9.89045061 10.8731934 10.0602955 10.7417678 10.3514537 10.7417678 10.7639341 10.7417678 11.0712725 10.8327547 11.3159263 11.0147314 11.4979029 11.196708 11.6798796 11.4433838 11.7708666 11.754766 11.7708666 12.2238614 11.7708666 12.5878092 11.5939475 12.8466205 11.240104 13.1054317 10.8862605 13.2348354 10.391898 13.2348354 9.75700173L13.2348354 9.63568458 12.52513 9.63568458z"/>
</svg>
