<?xml version="1.0" encoding="utf-8"?>
<svg version="1.1" id="Layer_1" xmlns="http://www.w3.org/2000/svg" xmlns:xlink="http://www.w3.org/1999/xlink" x="0px" y="0px" width="16px" height="16px"
	 viewBox="0 0 32 32" enable-background="new 0 0 32 32" xml:space="preserve">
<g>
	<path fill-rule="evenodd" clip-rule="evenodd" fill="#717171" d="M20,19c0-0.6-0.1-1.2-0.4-1.7L28,1h-2l-9.4,14.1
		C16.4,15,16.2,15,16,15c-0.2,0-0.4,0-0.6,0.1L6,1H4l8.4,16.2C12.1,17.8,12,18.4,12,19c0,0.3,0,0.5,0.1,0.8L10,21l2,6l3.1-4.1
		C15.4,23,15.7,23,16,23c0.3,0,0.6,0,0.9-0.1L20,27l2-6l-2.1-1.3C19.9,19.5,20,19.2,20,19z M16,21c-1.1,0-2-0.9-2-2c0-1.1,0.9-2,2-2
		c1.1,0,2,0.9,2,2C18,20.1,17.1,21,16,21z"/>
	<path fill="#A784BB" d="M8,19c-3.3,0-6,2.7-6,6c0,3.3,2.7,6,6,6c3.3,0,6-2.7,6-6C14,21.7,11.3,19,8,19z M8,27c-1.1,0-2-0.9-2-2
		c0-1.1,0.9-2,2-2c1.1,0,2,0.9,2,2C10,26.1,9.1,27,8,27z"/>
	<path fill="#A784BB" d="M24,19c-3.3,0-6,2.7-6,6c0,3.3,2.7,6,6,6s6-2.7,6-6C30,21.7,27.3,19,24,19z M24,27c-1.1,0-2-0.9-2-2
		c0-1.1,0.9-2,2-2s2,0.9,2,2C26,26.1,25.1,27,24,27z"/>
</g>
</svg>
