<!-- Copyright 2000-2021 JetBrains s.r.o. Use of this source code is governed by the Apache 2.0 license that can be found in the LICENSE file. -->
<svg xmlns="http://www.w3.org/2000/svg" width="16" height="16" viewBox="0 0 16 16">
  <g fill="none" fill-rule="evenodd">
    <path fill="#6E6E6E" d="M4.8,2.7 L7.5,2.7 L7.5,4.3 L4.8,4.3 L4.8,7 L3.2,7 L3.2,4.3 L0.5,4.3 L0.5,2.7 L3.2,2.7 L3.2,0 L4.8,0 L4.8,2.7 Z" transform="translate(4 4.5)"/>
    <path fill="#6E6E6E" d="M15,11 C15,11.6531094 15.4174038,12.2087289 16,12.4146471 L16,13.9585208 C14.5811433,13.7204817 13.5,12.4864981 13.5,11 L13.5,4 C13.5,3.17157288 12.8345323,2.5 12.0136364,2.5 L4.08636364,2.5 C3.26546767,2.5 2.6,3.17157288 2.6,4 L2.6,11 C2.6,12.5212307 1.46774378,13.7780089 1.42177936e-13,13.9735657 L1.42108547e-14,12.4146471 C0.582596186,12.2087289 1,11.6531094 1,11 L1,4 C1,2.34314575 2.34314575,1 4,1 L12,1 C13.6568542,1 15,2.34314575 15,4 L15,11 Z"/>
  </g>
</svg>
