<svg xmlns="http://www.w3.org/2000/svg" width="16" height="16" viewBox="0 0 16 16">
  <g fill="none" fill-rule="evenodd">
    <rect width="16" height="16" fill="#D8D8D8" opacity="0"/>
    <polygon fill="#7F8B91" fill-opacity=".5" points="6 5 8.5 2 11 5" transform="rotate(90 8.5 3.5)"/>
    <path fill="#7F8B91" fill-opacity=".5" d="M4.92775 5L7 13 5.4835 13 5.01025 11.0224 2.97925 11.0224 2.5165 13 1 13 3.07225 5 4.92775 5zM4.03181862 6.48148148L3.30232558 9.81481481 4.76744186 9.81481481 4.03181862 6.48148148zM12.92775 5L15 13 13.4835 13 13.01025 11.0224 10.97925 11.0224 10.5165 13 9 13 11.07225 5 12.92775 5zM12.032 6.483L11.3023256 9.81481481 12.7674419 9.81481481 12.032 6.483zM12.0325849 6.48148148L12.0318186 6.48148148 12.032 6.483 12.0325849 6.48148148z"/>
  </g>
</svg>
