<svg xmlns="http://www.w3.org/2000/svg" width="16" height="16" viewBox="0 0 16 16">
  <g fill="none" fill-rule="evenodd">
    <rect width="1.76" height="4.994" x="9.126" y="10.429" fill="#AFB1B3" transform="rotate(-45 10.006 12.926)"/>
    <path fill="#AFB1B3" d="M5.6,13.2 C3.05949015,13.2 1,11.1405098 1,8.6 C1,6.05949015 3.05949015,4 5.6,4 C8.14050985,4 10.2,6.05949015 10.2,8.6 C10.2,11.1405098 8.14050985,13.2 5.6,13.2 Z M5.6,11.6 C7.25685425,11.6 8.6,10.2568542 8.6,8.6 C8.6,6.94314575 7.25685425,5.6 5.6,5.6 C3.94314575,5.6 2.6,6.94314575 2.6,8.6 C2.6,10.2568542 3.94314575,11.6 5.6,11.6 Z"/>
    <path fill="#AFB1B3" d="M9.88969094,5 C9.57081021,4.62042576 9.20247796,4.2837855 8.79461496,4 L13,4 L13,3 L8,3 L8,3.53890499 C7.38650137,3.24746356 6.71160471,3.06428711 6,3.01406563 L6,1 L15,1 L15,11 L10.6610948,11 C11.006647,10.2725957 11.1999998,9.45887778 11.1999998,8.5999999 C11.1999998,8.39730439 11.1892308,8.19712411 11.1682337,8 L13,8 L13,7 L10.9680969,7 C10.8642932,6.65121416 10.7274236,6.31666911 10.5611234,6 L13,6 L13,5 L9.88969094,5 Z"/>
  </g>
</svg>
