<svg xmlns="http://www.w3.org/2000/svg" width="16" height="16" viewBox="0 0 16 16">
  <g fill="none" fill-rule="evenodd">
    <path fill="#AFB1B3" d="M11.9794631,7 L10.5572742,7 C10.308553,4.70256077 8.36269622,2.91412873 5.99912877,2.91412873 C3.46690317,2.91412873 1.41412873,4.96690317 1.41412873,7.49912877 C1.41412873,10.0313544 3.46690317,12.0841288 5.99912877,12.0841288 C5.99941918,12.0841288 5.9997096,12.0841288 6,12.0841287 L6,13.5 C2.6862915,13.5 0,10.8137085 0,7.5 C0,4.1862915 2.6862915,1.5 6,1.5 C9.14533189,1.5 11.7253877,3.92023474 11.9794631,7 Z"/>
    <rect width="1.257" height="3.143" x="5.761" y="4.696" fill="#AFB1B3"/>
    <polygon fill="#AFB1B3" points="6.136 6.935 7.025 7.824 4.803 10.046 3.914 9.158"/>
    <path fill="#AFB1B3" d="M14,16 L14,14 L10,14 L10,16 L8,16 L8,8 L16,8 L16,16 L14,16 Z M9.5,9.5 L9.5,12 L14.5,12 L14.5,9.5 L9.5,9.5 Z M11,15 L13,15 L13,16 L11,16 L11,15 Z"/>
  </g>
</svg>
