<svg xmlns="http://www.w3.org/2000/svg" width="16" height="16" viewBox="0 0 16 16">
  <g fill="none" fill-rule="evenodd" transform="translate(1 1)">
    <g fill="#AFB1B3" transform="translate(0 .5)">
      <path d="M11.9794631,5.5 L10.5572742,5.5 C10.308553,3.20256077 8.36269622,1.41412873 5.99912877,1.41412873 C3.46690317,1.41412873 1.41412873,3.46690317 1.41412873,5.99912877 C1.41412873,8.53135437 3.46690317,10.5841288 5.99912877,10.5841288 C5.99941918,10.5841288 5.9997096,10.5841288 6,10.5841287 L6,12 C2.6862915,12 0,9.3137085 0,6 C0,2.6862915 2.6862915,0 6,0 C9.14533189,0 11.7253877,2.42023474 11.9794631,5.5 Z"/>
      <g transform="translate(3.9 2.3)">
        <rect width="1.257" height="3.143" x="1.861" y=".896"/>
        <polygon points="2.236 3.135 3.125 4.024 .903 6.246 .014 5.358"/>
      </g>
    </g>
    <polygon fill="#499C54" points="8 6 15 10.5 8 15"/>
  </g>
</svg>
