<svg xmlns="http://www.w3.org/2000/svg" width="16" height="16" viewBox="0 0 16 16">
  <g fill="#6E6E6E" fill-rule="evenodd" transform="translate(0 1)">
    <path d="M11.9794631,6 L10.5572742,6 C10.308553,3.70256077 8.36269622,1.91412873 5.99912877,1.91412873 C3.46690317,1.91412873 1.41412873,3.96690317 1.41412873,6.49912877 C1.41412873,9.03135437 3.46690317,11.0841288 5.99912877,11.0841288 C5.99941918,11.0841288 5.9997096,11.0841288 6,11.0841287 L6,12.5 C2.6862915,12.5 0,9.8137085 0,6.5 C0,3.1862915 2.6862915,0.5 6,0.5 C9.14533189,0.5 11.7253877,2.92023474 11.9794631,6 Z"/>
    <rect width="1.257" height="3.143" x="5.761" y="3.696"/>
    <polygon points="6.136 5.935 7.025 6.824 4.803 9.046 3.914 8.158"/>
    <path d="M14,15 L14,13 L10,13 L10,15 L8,15 L8,7 L16,7 L16,15 L14,15 Z M9.5,8.5 L9.5,11 L14.5,11 L14.5,8.5 L9.5,8.5 Z M11,14 L13,14 L13,15 L11,15 L11,14 Z"/>
  </g>
</svg>
