<!-- Copyright 2000-2021 JetBrains s.r.o. and contributors. Use of this source code is governed by the Apache 2.0 license that can be found in the LICENSE file. -->
<svg width="16" height="16" viewBox="0 0 16 16" fill="none" xmlns="http://www.w3.org/2000/svg">
<path d="M12.949 3.051L11.962 4.038C12.97 5.053 13.6 6.453 13.6 8C13.6 11.094 11.094 13.6 8 13.6C4.906 13.6 2.4 11.094 2.4 8C2.4 5.144 4.535 2.792 7.3 2.449V3.863C5.312 4.199 3.8 5.921 3.8 8C3.8 10.317 5.683 12.2 8 12.2C10.317 12.2 12.2 10.317 12.2 8C12.2 6.838 11.731 5.788 10.968 5.032L9.981 6.019C10.485 6.53 10.8 7.23 10.8 8C10.8 9.547 9.547 10.8 8 10.8C6.453 10.8 5.2 9.547 5.2 8C5.2 6.698 6.096 5.613 7.3 5.298V6.796C6.88 7.041 6.6 7.482 6.6 8C6.6 8.77 7.23 9.4 8 9.4C8.77 9.4 9.4 8.77 9.4 8C9.4 7.482 9.12 7.034 8.7 6.796V1H8C4.136 1 1 4.136 1 8C1 11.864 4.136 15 8 15C11.864 15 15 11.864 15 8C15 6.068 14.216 4.318 12.949 3.051Z" fill="#499C54"/>
</svg>
