<!-- Copyright 2000-2021 JetBrains s.r.o. Use of this source code is governed by the Apache 2.0 license that can be found in the LICENSE file. -->
<svg xmlns="http://www.w3.org/2000/svg" width="16" height="16" viewBox="0 0 16 16">
  <g fill="#6E6E6E" fill-rule="evenodd" transform="translate(3 4)">
    <path d="M10.108434 3.96199965L8.03801633 1.89158197 3 6.90139228 3 8.97180996 5.07041768 8.97180996 10.108434 3.96199965zM11.8337821 2.23665158C12.055406 2.01500638 12.055406 1.42308794 11.8337821 1.20144274L10.7985732.1662339C10.5769494-.0554112999 9.98498829-.0554112999 9.7633644.1662339L8.72815556 1.20144274 10.7985732 3.27186042 11.8337821 2.23665158zM5.86396103 2L4.86396103 3 0 3 0 2 5.86396103 2zM7.86396103 4.4408921e-16L6.86396103 1 0 1 0 0 7.86396103 0zM3.86396103 4L2.86396103 5 0 5 0 4 3.86396103 4z"/>
  </g>
</svg>
