<!-- Copyright 2000-2021 JetBrains s.r.o. Use of this source code is governed by the Apache 2.0 license that can be found in the LICENSE file. -->
<svg xmlns="http://www.w3.org/2000/svg" width="16" height="16" viewBox="0 0 16 16">
  <g fill="none" fill-rule="evenodd">
    <rect width="2.2" height="6.242" x="11.157" y="9.036" fill="#AFB1B3" transform="rotate(-45 12.257 12.157)"/>
    <path fill="#AFB1B3" d="M1.00533709,7 C1.0017911,6.91710914 1,6.83376374 1,6.75 C1,3.57436269 3.57436269,1 6.75,1 C9.92563731,1 12.5,3.57436269 12.5,6.75 C12.5,9.49635877 10.5745933,11.7930147 8,12.3637477 L8,10.2866179 C9.45649047,9.77182236 10.5,8.38277353 10.5,6.75 C10.5,4.67893219 8.82106781,3 6.75,3 C4.67893219,3 3,4.67893219 3,6.75 C3,6.83400714 3.00276234,6.9173691 3.00820114,7 L1.00533709,7 Z"/>
    <path fill="#AFB1B3" d="M2.83861031,12.8757306 L4.89799426,12.8757306 L3.8961318,9.9591977 L3.87386819,9.9591977 L2.83861031,12.8757306 Z M3.00558739,8 L4.79780801,8 L7.76999998,15.9481089 L5.95551574,15.9481089 L5.35439827,14.1781518 L2.3822063,14.1781518 L1.75882521,15.9481089 L0,15.9481089 L3.00558739,8 Z"/>
  </g>
</svg>
