<!-- Copyright 2000-2022 JetBrains s.r.o. and contributors. Use of this source code is governed by the Apache 2.0 license. -->
<svg width="16" height="16" viewBox="0 0 16 16" fill="none" xmlns="http://www.w3.org/2000/svg">
<path fill-rule="evenodd" clip-rule="evenodd" d="M11.9002 0C12.3145 0 12.6502 0.335786 12.6502 0.75V4.75V5.5H11.9002H7.9002C7.48598 5.5 7.1502 5.16421 7.1502 4.75C7.1502 4.33579 7.48598 4 7.9002 4H10.1644C9.29715 3.07584 8.06586 2.49999 6.7002 2.49999C4.07684 2.49999 1.9502 4.62664 1.9502 7.24999C1.9502 9.80628 3.9695 11.8909 6.5 11.9958V13.4968C3.14087 13.3911 0.450195 10.6348 0.450195 7.24999C0.450195 3.79821 3.24842 0.999988 6.7002 0.999988C8.4422 0.999988 10.0175 1.71311 11.1502 2.8615V0.75C11.1502 0.335786 11.486 0 11.9002 0Z" fill="white"/>
<path d="M14.5 11.0341C15.1667 11.419 15.1667 12.3812 14.5 12.7661L10.3 15.191C9.63333 15.5759 8.8 15.0948 8.8 14.325L8.8 9.47523C8.8 8.70543 9.63333 8.2243 10.3 8.6092L14.5 11.0341Z" stroke="white" stroke-width="1.4"/>
</svg>
