<svg xmlns="http://www.w3.org/2000/svg" width="16" height="16" viewBox="0 0 16 16">
  <g fill="none" fill-rule="evenodd">
    <path fill="#59A869" d="M6.5,13.9635123 C5.36721782,13.8150762 4.37598681,13.2242619 3.68690909,12.3846154 L1,12.3846154 L1,10.7692308 L2.85345455,10.7692308 C2.76181818,10.4224615 2.69745455,10.066 2.69745455,9.69230769 L2.69745455,9.15384615 L1,9.15384615 L1,7.53846154 L2.69745455,7.53846154 L2.69745455,6.46153846 C2.69745455,6.27738462 2.73018182,6.10184615 2.75309091,5.92307692 L1,5.92307692 L1,4.30769231 L3.30727273,4.30769231 C3.724,3.60446154 4.33272727,3.03261538 5.06690909,2.65461538 L3.53418182,1.14261538 L4.69163636,0 L6.89090909,2.17107692 C6.94872727,2.16892308 6.94218182,2.16030769 7,2.16030769 C7.02072727,2.16030769 7.09927261,2.16892315 7.11999989,2.17000008 L9.30836364,0 L10.4658182,1.14261538 L8.97672727,2.61261538 C9.74581818,2.98846154 10.3829091,3.57861538 10.8149091,4.30769231 L13,4.30769231 L13,5.92307692 L11.3690909,5.92307692 C11.392,6.10184615 11.4247273,6.27738462 11.4247273,6.46153846 L11.4247273,7.5 L6.5,7.5 L6.5,9 L5.19999981,9 L5.19999981,10.5 L6.5,10.5 L6.5,13.9635123 Z M5.19999981,6 L5.19999981,7.5 L8.79999971,7.5 L8.79999971,6 L5.19999981,6 Z"/>
    <rect width="5" height="5" x="8" y="9" fill="#6E6E6E"/>
  </g>
</svg>
