<!-- Copyright 2000-2021 JetBrains s.r.o. Use of this source code is governed by the Apache 2.0 license that can be found in the LICENSE file. -->
<svg xmlns="http://www.w3.org/2000/svg" width="16" height="16" viewBox="0 0 16 16">
  <path fill="#7F8B91" fill-opacity=".9" fill-rule="evenodd" d="M11.038136,9.94904865 L13.9980971,12.9090097 L12.9374369,13.9696699 L9.98176525,11.0139983 C9.14925083,11.6334368 8.11743313,12 7,12 C4.23857625,12 2,9.76142375 2,7 C2,4.23857625 4.23857625,2 7,2 C9.76142375,2 12,4.23857625 12,7 C12,8.1028408 11.642948,9.12228765 11.038136,9.94904865 Z M7,11 C9.209139,11 11,9.209139 11,7 C11,4.790861 9.209139,3 7,3 C4.790861,3 3,4.790861 3,7 C3,9.209139 4.790861,11 7,11 Z"/>
</svg>
