<!-- Copyright 2000-2021 JetBrains s.r.o. Use of this source code is governed by the Apache 2.0 license that can be found in the LICENSE file. -->
<svg xmlns="http://www.w3.org/2000/svg" width="16" height="16" viewBox="0 0 16 16">
  <g fill="none" fill-opacity=".9" fill-rule="evenodd">
    <path fill="#7F8B91" d="M9.03813598,9.94904865 L11.9980971,12.9090097 L10.9374369,13.9696699 L7.98176525,11.0139983 C7.14925083,11.6334368 6.11743313,12 5,12 C2.23857625,12 -1.77635684e-15,9.76142375 -1.77635684e-15,7 C-1.77635684e-15,4.23857625 2.23857625,2 5,2 C7.76142375,2 10,4.23857625 10,7 C10,8.1028408 9.64294803,9.12228765 9.03813598,9.94904865 Z M5,11 C7.209139,11 9,9.209139 9,7 C9,4.790861 7.209139,3 5,3 C2.790861,3 1,4.790861 1,7 C1,9.209139 2.790861,11 5,11 Z"/>
    <polygon fill="#7F8B91" points="16 7 13.5 10 11 7"/>
  </g>
</svg>
