<!-- Copyright 2000-2021 JetBrains s.r.o. Use of this source code is governed by the Apache 2.0 license that can be found in the LICENSE file. -->
<svg xmlns="http://www.w3.org/2000/svg" width="16" height="16" viewBox="0 0 16 16">
  <g fill="none" fill-rule="evenodd">
    <rect width="2.2" height="6.242" x="11.157" y="9.036" fill="#AFB1B3" transform="rotate(-45 12.257 12.157)"/>
    <path fill="#AFB1B3" d="M1.00533709,7 C1.0017911,6.91710914 1,6.83376374 1,6.75 C1,3.57436269 3.57436269,1 6.75,1 C9.92563731,1 12.5,3.57436269 12.5,6.75 C12.5,9.49635877 10.5745933,11.7930147 8,12.3637477 L8,10.2866179 C9.45649047,9.77182236 10.5,8.38277353 10.5,6.75 C10.5,4.67893219 8.82106781,3 6.75,3 C4.67893219,3 3,4.67893219 3,6.75 C3,6.83400714 3.00276234,6.9173691 3.00820114,7 L1.00533709,7 Z"/>
    <rect width="3" height="3" x="2" y="8" fill="#AFB1B3"/>
    <rect width="3" height="3" y="12" fill="#AFB1B3"/>
    <rect width="3" height="3" x="4" y="12" fill="#AFB1B3"/>
  </g>
</svg>
