<!-- Copyright 2000-2021 JetBrains s.r.o. Use of this source code is governed by the Apache 2.0 license that can be found in the LICENSE file. -->
<svg xmlns="http://www.w3.org/2000/svg" width="16" height="16" viewBox="0 0 16 16">
  <g fill="none" fill-rule="evenodd">
    <g fill="#6E6E6E" transform="translate(1 1)">
      <rect width="2.2" height="6.242" x="10.157" y="8.036" transform="rotate(-45 11.257 11.157)"/>
      <path d="M0.00533709299,6 C0.00179110081,5.91710914 -4e-16,5.83376374 -4e-16,5.75 C-4e-16,2.57436269 2.57436269,0 5.75,0 C8.92563731,0 11.5,2.57436269 11.5,5.75 C11.5,8.49635877 9.57459329,10.7930147 7,11.3637477 L7,9.28661787 C8.45649047,8.77182236 9.5,7.38277353 9.5,5.75 C9.5,3.67893219 7.82106781,2 5.75,2 C3.67893219,2 2,3.67893219 2,5.75 C2,5.83400714 2.00276234,5.9173691 2.00820114,6 L0.00533709299,6 Z"/>
    </g>
    <rect width="3" height="3" x="2" y="8" fill="#6E6E6E"/>
    <rect width="3" height="3" y="12" fill="#6E6E6E"/>
    <rect width="3" height="3" x="4" y="12" fill="#6E6E6E"/>
  </g>
</svg>
