<!-- Copyright 2000-2021 JetBrains s.r.o. Use of this source code is governed by the Apache 2.0 license that can be found in the LICENSE file. -->
<svg xmlns="http://www.w3.org/2000/svg" width="16" height="16" viewBox="0 0 16 16">
  <g fill="none" fill-rule="evenodd">
    <path fill="#6E6E6E" fill-rule="nonzero" d="M14,5 L10.5,5 C10.5,3.068 8.932,1.5 7,1.5 C5.068,1.5 3.5,3.068 3.5,5 C3.5,6.932 5.068,8.5 7,8.5 L7,10 C3.81818182,10 1.10090909,7.92666667 1.77635684e-15,5 C1.10090909,2.07333333 3.81818182,8.8817842e-16 7,8.8817842e-16 C10.1818182,8.8817842e-16 12.8990909,2.07333333 14,5 Z M9,5 L7,5 L7,7 C5.89333333,7 5,6.10666667 5,5 C5,3.89333333 5.89333333,3 7,3 C8.10666667,3 9,3.89333333 9,5 Z" transform="translate(1 2)"/>
    <path fill="#6E6E6E" d="M9,8 L16,8 L16,16 L9,16 L9,8 Z M10.5,12 L10.5,13 L14.5,13 L14.5,12 L10.5,12 Z M10.5,10 L10.5,11 L14.5,11 L14.5,10 L10.5,10 Z"/>
  </g>
</svg>
