<!-- Copyright 2000-2021 JetBrains s.r.o. Use of this source code is governed by the Apache 2.0 license that can be found in the LICENSE file. -->
<svg xmlns="http://www.w3.org/2000/svg" width="16" height="16" viewBox="0 0 16 16">
  <g fill="none" fill-rule="evenodd">
    <path fill="#6E6E6E" fill-rule="nonzero" d="M4.98791895,12.3413874 C3.17156786,11.5070291 1.7302217,9.94122795 1,8 C2.10090909,5.07333333 4.81818182,3 8,3 C11.1818182,3 13.8990909,5.07333333 15,8 C14.7672185,8.61882856 14.462171,9.19950551 14.0957464,9.73049762 L13,9 L11.3548737,9 C11.4492905,8.68310674 11.5,8.3474393 11.5,8 C11.5,6.068 9.932,4.5 8,4.5 C6.068,4.5 4.5,6.068 4.5,8 C4.5,9.45482225 5.3891022,10.7032458 6.65322161,11.2311856 L4.98791895,12.3413874 Z M9.48048042,9.34634639 L8.67364033,9.88423978 C8.46326127,9.95920094 8.23650216,10 8,10 C6.89333333,10 6,9.10666667 6,8 C6,6.89333333 6.89333333,6 8,6 C9.10666667,6 10,6.89333333 10,8 C10,8.51911994 9.80343088,8.991298 9.48048042,9.34634639 Z"/>
    <g fill="#6E6E6E" transform="translate(7 10)">
      <polygon points="0 3.6 0 2.4 4 0 4 1.2 1.067 3 4 4.8 4 6"/>
      <polygon points="0 4.8 2.933 3 0 1.2 0 0 4 2.4 4 3.6 0 6" transform="translate(5)"/>
    </g>
  </g>
</svg>
