<!-- Copyright 2000-2021 JetBrains s.r.o. Use of this source code is governed by the Apache 2.0 license that can be found in the LICENSE file. -->
<svg xmlns="http://www.w3.org/2000/svg" width="16" height="16" viewBox="0 0 16 16">
  <path fill="#6E6E6E" d="M8,3 C4.81818182,3 2.10090909,5.07333333 1,8 C2.10090909,10.9266667 4.81818182,13 8,13 C11.1818182,13 13.8990909,10.9266667 15,8 C13.8990909,5.07333333 11.1818182,3 8,3 Z M8,11.5 C6.068,11.5 4.5,9.932 4.5,8 C4.5,6.068 6.068,4.5 8,4.5 C9.932,4.5 11.5,6.068 11.5,8 C11.5,9.932 9.932,11.5 8,11.5 Z M8,6 C6.89333333,6 6,6.89333333 6,8 C6,9.10666667 6.89333333,10 8,10 C9.10666667,10 10,9.10666667 10,8 C10,6.89333333 9.10666667,6 8,6 Z"/>
</svg>
