<!-- Copyright 2000-2022 JetBrains s.r.o. and contributors. Use of this source code is governed by the Apache 2.0 license. -->
<svg width="16" height="16" viewBox="0 0 16 16" fill="none" xmlns="http://www.w3.org/2000/svg">
<path d="M13.842 13.7496C14.2007 13.9567 14.6594 13.8338 14.8665 13.475C15.0736 13.1163 14.9507 12.6576 14.592 12.4505L13.842 13.7496ZM11.625 12.4696L13.842 13.7496L14.592 12.4505L12.375 11.1705L11.625 12.4696Z" fill="white"/>
<path d="M14.9004 9.75C15.3146 9.75 15.6504 9.41421 15.6504 9C15.6504 8.58579 15.3146 8.25 14.9004 8.25L14.9004 9.75ZM12.4004 9.75L14.9004 9.75L14.9004 8.25L12.4004 8.25L12.4004 9.75Z" fill="white"/>
<path d="M14.574 5.45959C14.9383 5.26243 15.0738 4.80729 14.8766 4.44301C14.6794 4.07873 14.2243 3.94326 13.86 4.14043L14.574 5.45959ZM12.357 6.65958L14.574 5.45959L13.86 4.14043L11.643 5.34042L12.357 6.65958Z" fill="white"/>
<path d="M2.15489 13.7495C1.79617 13.9566 1.33748 13.8337 1.13037 13.475C0.923267 13.1163 1.04617 12.6576 1.40489 12.4505L2.15489 13.7495ZM4.375 12.4678L2.15489 13.7495L1.40489 12.4505L3.625 11.1687L4.375 12.4678Z" fill="white"/>
<path d="M1.09961 9.74988C0.685396 9.74988 0.349609 9.41409 0.349609 8.99988C0.349609 8.58566 0.685396 8.24988 1.09961 8.24988L1.09961 9.74988ZM3.59961 9.74988L1.09961 9.74988L1.09961 8.24988L3.59961 8.24988L3.59961 9.74988Z" fill="white"/>
<path d="M1.42328 5.45981C1.05889 5.26285 0.923154 4.80779 1.12011 4.4434C1.31707 4.079 1.77213 3.94327 2.13652 4.14023L1.42328 5.45981ZM3.64338 6.65979L1.42328 5.45981L2.13652 4.14023L4.35662 5.34021L3.64338 6.65979Z" fill="white"/>
<path d="M10.2434 4.75357C10.3443 4.48836 10.3996 4.20064 10.3996 3.9C10.3996 2.57452 9.32509 1.5 7.99961 1.5C6.67413 1.5 5.59961 2.57452 5.59961 3.9C5.59961 4.22223 5.66311 4.52963 5.77829 4.81036" stroke="white" stroke-width="1.5"/>
<path d="M4 7.5C4 5.84315 5.34315 4.5 7 4.5H9C10.6569 4.5 12 5.84315 12 7.5V10C12 12.2091 10.2091 14 8 14V14C5.79086 14 4 12.2091 4 10V7.5Z" stroke="white" stroke-width="1.5"/>
</svg>
