<!-- Copyright 2000-2021 JetBrains s.r.o. Use of this source code is governed by the Apache 2.0 license that can be found in the LICENSE file. -->
<svg xmlns="http://www.w3.org/2000/svg" width="16" height="16" viewBox="0 0 16 16">
  <g fill="none" fill-rule="evenodd">
    <rect width="5" height="2" x="2" y="12" fill="#AFB1B3"/>
    <path fill="#3592C4" d="M6.99768582,6.32116052 L10.6609505,6.32190823 L5.99595397,11.0038095 L1.32904584,6.3200035 L4.99850209,6.32075247 L4.99850209,1.32095414 L6.99768582,1.32095414 L6.99768582,6.32116052 Z" transform="matrix(1 0 0 -1 0 12.325)"/>
    <g fill="#AFB1B3" transform="translate(8 7)">
      <path d="M3.3896,8 C1.7792,7.70093458 1.3304,7.10280374 1.3304,6.14953271 C1.3304,6.00934579 1.3568,5.6635514 1.3568,5.5046729 C1.3568,4.77570093 1.0752,4.54205607 0.3888,4.54205607 L0,4.54205607 L0,3.45794393 L0.3888,3.45794393 C1.0752,3.45794393 1.3568,3.22429907 1.3568,2.4953271 C1.3568,2.3364486 1.3304,1.99065421 1.3304,1.85046729 C1.3304,0.897196262 1.7792,0.299065421 3.3896,0 L3.6272,0.943925234 C2.6944,1.22429907 2.5536,1.48598131 2.5536,2.05607477 C2.5536,2.24299065 2.58,2.55140187 2.58,2.74766355 C2.58,3.42990654 2.2544,3.79439252 1.6648,4 C2.2544,4.20560748 2.58,4.57009346 2.58,5.25233645 C2.58,5.44859813 2.5536,5.75700935 2.5536,5.94392523 C2.5536,6.51401869 2.6944,6.77570093 3.6272,7.05607477 L3.3896,8 Z"/>
      <path d="M7.7596,8 C6.1492,7.70093458 5.7004,7.10280374 5.7004,6.14953271 C5.7004,6.00934579 5.7268,5.6635514 5.7268,5.5046729 C5.7268,4.77570093 5.4452,4.54205607 4.7588,4.54205607 L4.37,4.54205607 L4.37,3.45794393 L4.7588,3.45794393 C5.4452,3.45794393 5.7268,3.22429907 5.7268,2.4953271 C5.7268,2.3364486 5.7004,1.99065421 5.7004,1.85046729 C5.7004,0.897196262 6.1492,0.299065421 7.7596,0 L7.9972,0.943925234 C7.0644,1.22429907 6.9236,1.48598131 6.9236,2.05607477 C6.9236,2.24299065 6.95,2.55140187 6.95,2.74766355 C6.95,3.42990654 6.6244,3.79439252 6.0348,4 C6.6244,4.20560748 6.95,4.57009346 6.95,5.25233645 C6.95,5.44859813 6.9236,5.75700935 6.9236,5.94392523 C6.9236,6.51401869 7.0644,6.77570093 7.9972,7.05607477 L7.7596,8 Z" transform="matrix(-1 0 0 1 12.367 0)"/>
    </g>
  </g>
</svg>
