<!-- Copyright 2000-2021 JetBrains s.r.o. Use of this source code is governed by the Apache 2.0 license that can be found in the LICENSE file. -->
<svg xmlns="http://www.w3.org/2000/svg" width="16" height="16" viewBox="0 0 16 16">
  <g fill="none" fill-rule="evenodd">
    <path fill="#6E6E6E"
          d="M8,14.0043898 C7.89542487,14.0043245 7.79028414,14.0015555 7.68464819,13.9960194 C4.72911834,13.8411266 2.38553691,11.5725148 2.04197189,8.73179884 L3.89556066,8.89396684 C4.28760146,10.6991324 5.84700632,12.0928498 7.78057528,12.1941838 C7.85407547,12.1980358 7.92723318,12.1999741 8,12.2000422 L8,14.0043898 Z M3.63755669,3.88332919 C4.80424801,2.64981022 6.48428471,1.91664286 8.31267967,2.01246498 C11.2286232,2.16528311 13.5489014,4.37557732 13.9404778,7.16285173 L12.0807886,7.00015001 C11.6518242,5.24657149 10.1158219,3.90506672 8.22019598,3.80572118 C6.92049966,3.73760698 5.72789507,4.26788828 4.90992409,5.15567 L6.99348927,7.23919163 L1.99348927,7.23919163 L1.99348927,2.23929614 L3.63755669,3.88332919 Z"/>
    <rect width="6" height="6" x="9" y="8" fill="#DB5860"/>
  </g>
</svg>
