<!-- Copyright 2000-2023 JetBrains s.r.o. and contributors. Use of this source code is governed by the Apache 2.0 license. -->
<svg xmlns="http://www.w3.org/2000/svg" width="16" height="16" viewBox="0 0 16 16">
  <g fill="none" fill-rule="evenodd">
    <rect width="6" height="1" x="5" fill="#9AA7B0"/>
    <rect width="1.5" height="4" x="7.25" y="5" fill="#9AA7B0"/>
    <rect width="1.5" height="3.5" x="12.156" y="2.056" fill="#9AA7B0" transform="rotate(45 12.906 3.806)"/>
    <path fill="#9AA7B0" d="M12.5961941,13.0961941 C10.0577862,15.634602 5.94221382,15.634602 3.40380592,13.0961941 C0.865398026,10.5577862 0.865398026,6.44221382 3.40380592,3.90380592 C5.94221382,1.36539803 10.0577862,1.36539803 12.5961941,3.90380592 C15.134602,6.44221382 15.134602,10.5577862 12.5961941,13.0961941 Z M7.99999981,13.2076115 C10.595738,13.2076115 12.6999996,11.1033499 12.6999996,8.50761165 C12.6999996,5.91187344 10.595738,3.80761184 7.99999981,3.80761184 C5.40426159,3.80761184 3.3,5.91187344 3.3,8.50761165 C3.3,11.1033499 5.40426159,13.2076115 7.99999981,13.2076115 Z"/>
  </g>
</svg>
