<!-- Copyright 2000-2021 JetBrains s.r.o. Use of this source code is governed by the Apache 2.0 license that can be found in the LICENSE file. -->
<svg xmlns="http://www.w3.org/2000/svg" width="16" height="16" viewBox="0 0 16 16">
  <g fill="none" fill-rule="evenodd">
    <path fill="#6E6E6E" d="M5.89763025,2 C6.71773109,2 7.36076471,2.286 7.78013445,2.77 C8.12494958,3.188 8.32065546,3.76 8.32065546,4.431 C8.32065546,5.718 7.67762185,6.477 6.77364706,6.785 L7.641,8.221 L6.796,9.067 L5.57145378,7.016 L4.13627731,7.016 L4.13627731,9.7 L2.99,9.7 L2.99,2 L5.89763025,2 Z M4.343,5.817 L5.76744444,5.817 C6.46383951,5.817 6.907,5.311 6.907,4.53 L6.907,4.508 C6.907,3.683 6.47966667,3.232 5.75953086,3.232 L4.343,3.232 L4.343,5.817 Z"/>
    <path fill="#389FD6" d="M13.108434,8.96199965 L11.0380163,6.89158197 L6,11.9013923 L6,13.97181 L8.07041768,13.97181 L13.108434,8.96199965 Z M14.8337821,7.23665158 C15.055406,7.01500638 15.055406,6.42308794 14.8337821,6.20144274 L13.7985732,5.1662339 C13.5769494,4.9445887 12.9849883,4.9445887 12.7633644,5.1662339 L11.7281556,6.20144274 L13.7985732,8.27186042 L14.8337821,7.23665158 Z"/>
  </g>
</svg>
