<svg width="64" height="64" xmlns="http://www.w3.org/2000/svg">
    <defs>
        <linearGradient x1="31.677%" y1="34.912%" x2="78.46%" y2="88.594%" id="a">
            <stop stop-color="#E6E6E6" offset="0%"/>
            <stop stop-color="#FFF" stop-opacity="0" offset="92.575%"/>
        </linearGradient>
    </defs>
    <g transform="translate(3.25 3)" fill-rule="nonzero" fill="none">
        <ellipse fill="#000" opacity=".2" cx="28.77" cy="29.198" rx="28.77" ry="28.737"/>
        <ellipse fill="#FFF" cx="28.77" cy="28.737" rx="28.77" ry="28.737"/>
        <path d="M57.295 32.494L34.318 9.542l-18.51 30.306 17.319 17.3c12.599-1.913 22.512-11.987 24.168-24.654z" fill="#FFF"/>
        <path d="M41.53 23.057L18.551.106.042 30.412l17.319 17.299c12.599-1.912 22.513-11.986 24.168-24.654z" fill="url(#a)"
              transform="translate(15.766 9.437)"/>
        <path d="M39.592 20.657H38.47c-.261-3.105-2.037-5.734-4.634-7.146l-.564-.281a9.336 9.336 0 0 0-3.89-.832 9.336 9.336 0 0 0-3.89.832l-.004-.009c-.194.087-.39.167-.587.242l.028.048a8.918 8.918 0 0 0-1.843 1.333h-5.25a2.915 2.915 0 0 0-2.907 2.907c0 .039.002.078.003.116-.006-.08-.006-.125-.006-.125v20.087a2.915 2.915 0 0 0 2.907 2.907h5.093l-1.25 2.665a1.422 1.422 0 1 0 2.577 1.2l1.809-3.865h6.559l1.835 3.813a1.42 1.42 0 0 0 2.559-1.234l-1.238-2.58h4.078l-.007 4.497c0 .08.065.145.145.145l1.23.007a2.623 2.623 0 0 0 2.616-2.616v-19.31c0-3.166-4.247-2.8-4.247-2.8zM18.02 20.657h2.275-2.275z"
              fill="#CCC"/>
        <g>
            <path d="M24.847 13.916H16.91a2.915 2.915 0 0 0-2.907 2.906c0 1.6 1.212 2.907 2.81 2.907h8.102l-.068-5.813z" fill="#073042"/>
            <path d="M42.913 39.808H16.907a2.915 2.915 0 0 1-2.906-2.907V16.814s-.01 2.915 3.097 2.915h21.569s4.246-.365 4.246 2.802v17.277z"
                  fill="#4285F4"/>
            <path d="M27.356 29.556L22.54 39.818h3.136l2.232-4.77c.41-.87 1.646-.874 2.06-.006l2.299 4.776h3.156l-4.955-10.324a2.616 2.616 0 0 0-.953-4.612v-1.704a.504.504 0 0 0-1.007 0v1.648a2.623 2.623 0 0 0-2.26 2.594c0 .881.44 1.66 1.108 2.136zm1.514-3.75a1.614 1.614 0 1 1 0 3.228 1.614 1.614 0 0 1 0-3.229z"
                  fill="#3870B2"/>
            <path fill="#FFF" d="M23.126 15.344h11.127v2.037H23.126z"/>
            <path d="M32.64 17.142a.758.758 0 0 1 0-1.514.758.758 0 0 1 0 1.514m-8.366 0a.758.758 0 0 1 0-1.514.758.758 0 0 1 0 1.514m8.637-4.559l1.512-2.62a.315.315 0 0 0-.545-.314l-1.531 2.653a9.336 9.336 0 0 0-3.89-.833 9.336 9.336 0 0 0-3.89.833l-1.532-2.653a.315.315 0 0 0-.545.315l1.513 2.62c-2.598 1.412-4.374 4.041-4.634 7.148h18.175c-.26-3.107-2.036-5.736-4.633-7.149"
                  fill="#3DDC84"/>
            <path d="M40.297 25.309h-1.2a.145.145 0 0 0-.146.144l-.029 18.85c0 .08.065.146.145.146l1.23.007a2.623 2.623 0 0 0 2.616-2.616V22.691a2.625 2.625 0 0 1-2.616 2.618zM28.315 25.829a1.614 1.614 0 1 1 0 3.229 1.614 1.614 0 0 1 0-3.23zm.645-.965v-1.662a.504.504 0 0 0-1.007 0v1.648a2.623 2.623 0 0 0-2.26 2.593c0 .881.439 1.66 1.108 2.136L20.75 42.473a1.422 1.422 0 1 0 2.577 1.2l4.026-8.602c.41-.87 1.645-.873 2.06-.006l4.117 8.556a1.42 1.42 0 0 0 2.559-1.234l-6.176-12.87a2.616 2.616 0 0 0-.953-4.612"
                  fill="#073042"/>
        </g>
    </g>
</svg>
