<svg width="16" height="16" viewBox="0 0 16 16" fill="none" xmlns="http://www.w3.org/2000/svg">
<path fill-rule="evenodd" clip-rule="evenodd" d="M15 8C15 11.866 11.866 15 8 15C4.13401 15 1 11.866 1 8C1 4.13401 4.13401 1 8 1C11.866 1 15 4.13401 15 8ZM14 8C14 11.3137 11.3137 14 8 14C6.52316 14 5.17094 13.4664 4.1256 12.5815L12.5815 4.1256C13.4664 5.17094 14 6.52316 14 8ZM3.41849 11.8744L11.8744 3.41849C10.8291 2.53359 9.47686 2 8 2C4.68629 2 2 4.68629 2 8C2 9.47686 2.53359 10.8291 3.41849 11.8744Z" fill="#CED0D6"/>
</svg>
