<svg xmlns="http://www.w3.org/2000/svg" width="16" height="16" viewBox="0 0 16 16">
  <g fill="none" fill-rule="evenodd">
    <circle cx="8" cy="8" r="7.85" fill="#0073D9" stroke="#004281" stroke-width=".3"/>
    <path fill="#FFF" fill-rule="nonzero" d="M7.30000305,13.0478701 L8.30000305,13.0478701 L8.30000305,12 L7.30000305,12 L7.30000305,13.0478701 Z M8.30000305,3 C6.80000305,3 6.06625,3.70001221 6,3.70001221 L6,4.90002441 C6.5,4.40002441 7.30000305,4 8.30000305,4 C9.30000305,4 9.80000305,4.9521299 9.80000305,5.4521299 C9.80000305,5.57725021 9.80000305,5.68824508 9.80000305,5.81788963 C9.80000305,6.77055567 8.04084713,7.92616385 7.80000305,8.20001221 C7.63157887,8.39151655 7.30000305,8.9521299 7.30000305,9.5 C7.30000305,9.55210548 7.30000305,10.3897821 7.30000305,11 L8.30000305,11 C8.30000305,10.5957402 8.30000305,8.9521299 8.30000305,9.5 C8.30000305,9.4021421 8.40000153,8.79998779 8.80000305,8.5 C9.14228271,8.18853411 10.8000031,6.83590345 10.8000031,5.81788963 C10.8000031,5.6870458 10.8000031,5.57836787 10.8000031,5.4521299 C10.8000031,3.9521299 9.80000305,3 8.30000305,3 Z"/>
  </g>
</svg>
