<!-- Copyright 2000-2024 JetBrains s.r.o. and contributors. Use of this source code is governed by the Apache 2.0 license. -->
<svg width="16" height="16" viewBox="0 0 16 16" fill="none" xmlns="http://www.w3.org/2000/svg">
<g clip-path="url(#clip0_950_5084)">
<path d="M1.45703 12.0132L1.45747 14.982C1.45747 15.5444 1.91332 16.0001 2.47565 16.0001H5.3523C5.64947 16.0001 5.93194 15.8702 6.12539 15.6446L14.3027 6.10421C14.4608 5.91963 14.5478 5.68458 14.5478 5.44152V2.47265C14.5478 1.91032 14.0919 1.45447 13.5296 1.45447H10.6525C10.3554 1.45447 10.0729 1.58436 9.87943 1.80996L1.70212 11.3503C1.54387 11.5349 1.45703 11.77 1.45703 12.0132Z" fill="#00D886"/>
<path d="M1.45703 12.3701V14.9818C1.45703 15.5441 1.91289 16 2.47521 16H5.74838C5.79652 16 5.84467 15.9965 5.89238 15.9898L15.1283 14.6705C15.63 14.5988 16.0025 14.1693 16.0025 13.6625V9.74426C16.0025 9.18178 15.5465 8.72593 14.984 8.72607L10.3494 8.72724C10.24 8.72724 10.1314 8.74484 10.0276 8.77946L2.15318 11.4043C1.73747 11.5429 1.45703 11.932 1.45703 12.3703V12.3701Z" fill="url(#paint0_linear_950_5084)"/>
<path d="M0 1.01818V9.51025C0 9.91753 0.242764 10.2857 0.617018 10.4461L9.98967 14.4631C10.1164 14.5174 10.2529 14.5455 10.3908 14.5455H14.9818C15.5441 14.5455 16 14.0896 16 13.5273V9.03578C16 8.83462 15.9404 8.63796 15.8287 8.47054L10.478 0.453382C10.289 0.170327 9.97134 0.000436364 9.63113 0.000436364L1.01818 0C0.455854 0 0 0.455854 0 1.01818Z" fill="url(#paint1_linear_950_5084)"/>
<path d="M13.3346 2.66663H2.66797V13.3333H13.3346V2.66663Z" fill="black"/>
<path d="M4.11328 4.06811H5.82284C6.10155 4.06811 6.34719 4.11931 6.55961 4.22171C6.77202 4.32411 6.93507 4.46811 7.0489 4.65402C7.16456 4.83992 7.22246 5.05509 7.22246 5.29966C7.22246 5.54423 7.16364 5.7661 7.04616 5.95383C6.9305 6.14156 6.76456 6.2877 6.54833 6.39192C6.33408 6.49432 6.08463 6.54552 5.80029 6.54552H4.89012V8.05029H4.11359V4.06811H4.11328ZM5.77149 5.90004C5.90239 5.90004 6.01606 5.87627 6.11282 5.82888C6.21141 5.77951 6.2873 5.71048 6.34033 5.62118C6.39336 5.53021 6.42002 5.42491 6.42002 5.30545C6.42002 5.18598 6.39351 5.07962 6.34033 4.99261C6.28715 4.90331 6.21141 4.83505 6.11282 4.78781C6.01606 4.73844 5.90239 4.7139 5.77149 4.7139H4.88966V5.90004H5.77149ZM9.47115 8.11871C9.09004 8.11871 8.7449 8.02941 8.43572 7.85128C8.12654 7.67101 7.88395 7.42461 7.70749 7.11177C7.53119 6.79711 7.44296 6.44617 7.44296 6.05928C7.44296 5.67238 7.53119 5.32251 7.70749 5.00968C7.8838 4.69501 8.12654 4.4483 8.43572 4.27017C8.74475 4.0899 9.08989 4 9.47115 4C9.79343 4 10.0894 4.05973 10.3586 4.1792C10.6279 4.29867 10.8516 4.46644 11.0299 4.68267C11.21 4.89707 11.3303 5.14347 11.3911 5.42217H10.5776C10.5244 5.27817 10.4449 5.152 10.3387 5.04381C10.2343 4.93394 10.1083 4.84937 9.96029 4.79071C9.81233 4.73204 9.65111 4.70248 9.47679 4.70248C9.24166 4.70248 9.02924 4.76114 8.83968 4.87878C8.64997 4.99642 8.50124 5.15855 8.39305 5.36518C8.28684 5.56998 8.23382 5.80145 8.23382 6.05928C8.23382 6.31711 8.28684 6.54964 8.39305 6.75611C8.50109 6.96092 8.64997 7.12198 8.83968 7.23962C9.02924 7.35726 9.24166 7.41592 9.47679 7.41592C9.65126 7.41592 9.81248 7.38636 9.96029 7.3277C10.1081 7.26903 10.2343 7.18552 10.3387 7.07733C10.4449 6.96747 10.5244 6.84023 10.5776 6.69623H11.3911C11.3305 6.97493 11.21 7.2224 11.0299 7.43863C10.8516 7.65303 10.6279 7.81973 10.3586 7.9392C10.0894 8.05867 9.79343 8.1184 9.47115 8.1184V8.11871Z" fill="white"/>
<path d="M8 11.3334H4V12H8V11.3334Z" fill="white"/>
</g>
<defs>
<linearGradient id="paint0_linear_950_5084" x1="1.90779" y1="16.1793" x2="15.3143" y2="9.96346" gradientUnits="userSpaceOnUse">
<stop offset="0.1" stop-color="#00D886"/>
<stop offset="0.59" stop-color="#F0EB18"/>
</linearGradient>
<linearGradient id="paint1_linear_950_5084" x1="15.0047" y1="14.9444" x2="0.328292" y2="0.268073" gradientUnits="userSpaceOnUse">
<stop offset="0.3" stop-color="#F0EB18"/>
<stop offset="0.7" stop-color="#00C4F4"/>
</linearGradient>
<clipPath id="clip0_950_5084">
<rect width="16" height="16" fill="white"/>
</clipPath>
</defs>
</svg>
