<!-- Copyright 2000-2021 JetBrains s.r.o. Use of this source code is governed by the Apache 2.0 license that can be found in the LICENSE file. -->
<svg xmlns="http://www.w3.org/2000/svg" width="24" height="24" viewBox="0 0 24 24">
  <path fill="#AFB1B3" fill-rule="evenodd" d="M16.1715,14.607 C16.6065,15.042 16.6095,15.7395 16.1745,16.176 C15.744,16.6065 15.0435,16.6095 14.607,16.173 L11.9985,13.566 L9.3915,16.173 C8.955,16.6065 8.259,16.6095 7.824,16.176 C7.392,15.7425 7.3905,15.045 7.827,14.607 L10.434,12 L7.827,9.393 C7.395,8.9595 7.3905,8.262 7.824,7.8255 C8.256,7.392 8.9535,7.3905 9.3915,7.8255 L11.9985,10.4325 L14.607,7.8255 C15.0405,7.3935 15.741,7.3905 16.1745,7.8255 C16.6065,8.2575 16.6095,8.9535 16.1715,9.393 L13.566,12 L16.1715,14.607 Z M12,1.5 C6.2025,1.5 1.5,6.2025 1.5,12 C1.5,17.7975 6.2025,22.5 12,22.5 C17.799,22.5 22.5,17.7975 22.5,12 C22.5,6.2025 17.799,1.5 12,1.5 L12,1.5 Z"/>
</svg>
