<!-- Copyright 2000-2021 JetBrains s.r.o. Use of this source code is governed by the Apache 2.0 license that can be found in the LICENSE file. -->
<svg xmlns="http://www.w3.org/2000/svg" width="16" height="16" viewBox="0 0 16 16">
  <path fill="#AFB1B3" d="M10.2848209,8.8267205 C10.2690992,8.86435323 10.2504724,8.90131564 10.228869,8.93732137 L7.22886896,13.9373214 C6.98734303,14.3398646 6.46522184,14.4703949 6.06267863,14.228869 C5.66013542,13.987343 5.52960512,13.4652218 5.77113104,13.0626786 L8.77113104,8.06267863 C8.78414364,8.04099097 8.79797072,8.02009288 8.81254969,8 C8.79797072,7.97990712 8.78414364,7.95900903 8.77113104,7.93732137 L5.77113104,2.93732137 C5.52960512,2.53477816 5.66013542,2.01265697 6.06267863,1.77113104 C6.46522184,1.52960512 6.98734303,1.66013542 7.22886896,2.06267863 L10.228869,7.06267863 C10.2504724,7.09868436 10.2690992,7.13564677 10.2848209,7.1732795 L10.7372112,8 L10.2848209,8.8267205 Z"/>
</svg>
