<!-- Copyright 2000-2021 JetBrains s.r.o. Use of this source code is governed by the Apache 2.0 license that can be found in the LICENSE file. -->
<svg xmlns="http://www.w3.org/2000/svg" width="16" height="16" viewBox="0 0 16 16">
  <path fill="#AFB1B3" fill-rule="evenodd" d="M5.60426146,11.8099521 C6.29798602,12.2470915 7.11945804,12.5 8,12.5 C10.4852814,12.5 12.5,10.4852814 12.5,8 C12.5,7.11945804 12.2470915,6.29798602 11.8099521,5.60426146 L5.60426146,11.8099521 Z M4.1900479,10.3957385 L10.3957385,4.1900479 C9.70201398,3.75290847 8.88054196,3.5 8,3.5 C5.51471863,3.5 3.5,5.51471863 3.5,8 C3.5,8.88054196 3.75290847,9.70201398 4.1900479,10.3957385 Z M8,14.5 C4.41014913,14.5 1.5,11.5898509 1.5,8 C1.5,4.41014913 4.41014913,1.5 8,1.5 C11.5898509,1.5 14.5,4.41014913 14.5,8 C14.5,11.5898509 11.5898509,14.5 8,14.5 Z"/>
</svg>
