<svg xmlns="http://www.w3.org/2000/svg" width="16" height="16" viewBox="0 0 16 16">
  <path fill="#F43D3D" fill-opacity=".7" fill-rule="evenodd" d="M8 1.4707031 C6.0125706 1.4707031 4.2500132 2.7626384 3.6523438 4.6582031 C3.0546923 6.553711 3.7567463 8.6237204 5.3847656 9.7636719 C6.4749584 10.592582 7.5282654 12.241478 7.5 14.021484 C7.48958 14.68815 8.48958 14.703775 8.5 14.037109 C8.529617 12.215486 9.4582928 10.579528 10.615234 9.7636719 L10.615234 9.7617188 C12.242296 8.6215614 12.945142 6.5531886 12.347656 4.6582031 C11.749986 2.7626382 9.9874297 1.4707029 8 1.4707031z M8 2.4707031 C9.555129 2.4707029 10.926932 3.4759509 11.394531 4.9589844 C11.862147 6.4420746 11.314891 8.051383 10.041016 8.9433594 C10.041016 8.9433594 10.041016 8.9453125 10.041016 8.9453125 C9.0758357 9.6254117 8.426749 10.759825 7.9960938 12.025391 C7.5448762 10.757131 6.8658236 9.6281997 5.9726562 8.9550781 C5.9681697 8.9510901 5.9636116 8.9471833 5.9589844 8.9433594 C4.68511 8.0513828 4.1378523 6.4420743 4.6054688 4.9589844 C5.0730674 3.4759515 6.4448714 2.4707031 8 2.4707031z M8 5.0253906 C7.4072739 5.0251071 6.9372164 5.4951645 6.9375 6.0878906 C6.9379573 6.680075 7.4078155 7.1487209 8 7.1484375 C8.5921845 7.1487209 9.0620427 6.680075 9.0625 6.0878906 C9.0627836 5.4951645 8.5927261 5.0251071 8 5.0253906z"/>
</svg>
