<svg xmlns="http://www.w3.org/2000/svg" width="16" height="16" viewBox="0 0 16 16">
  <path fill="#F43D3D" fill-opacity=".7" fill-rule="evenodd" d="M8 1.9707031 C6.2287192 1.9707031 4.6615408 3.1192933 4.1289062 4.8085938 C3.5962717 6.4978944 4.2209267 8.3375506 5.671875 9.3535156 C6.8940307 10.274574 8.0314964 12.045822 8 14.029297 C8.0322486 12.045822 9.0209764 10.274574 10.328125 9.3535156 C11.779074 8.3375507 12.403728 6.4978944 11.871094 4.8085938 C11.338459 3.1192929 9.7712811 1.9707029 8 1.9707031z M8 4.5253906 A1.561753 1.561753 0 0 1 9.5625 6.0878906 A1.561753 1.561753 0 0 1 8 7.6484375 A1.561753 1.561753 0 0 1 6.4375 6.0878906 A1.561753 1.561753 0 0 1 8 4.5253906z"/>
</svg>
