<svg width="16" height="16" viewBox="0 0 16 16" fill="none" xmlns="http://www.w3.org/2000/svg">
<path fill-rule="evenodd" clip-rule="evenodd" d="M13 12.5C13 14.433 11.433 16 9.5 16C7.567 16 6 14.433 6 12.5C6 10.567 7.567 9 9.5 9C11.433 9 13 10.567 13 12.5" fill="#389FD6"/>
<path fill-rule="evenodd" clip-rule="evenodd" d="M12.3335 15.9961C13.3502 15.1711 14 13.9114 14 12.5C14 11.0886 13.3502 9.82894 12.3335 9.00389C12.3887 9.00131 12.4442 9 12.5 9C14.433 9 16 10.567 16 12.5C16 14.433 14.433 16 12.5 16C12.4442 16 12.3887 15.9987 12.3335 15.9961Z" fill="#59A869"/>
</svg>
