<svg xmlns="http://www.w3.org/2000/svg" width="40" height="40" viewBox="0 0 40 40">
  <path fill="#6DB33F" d="M29,4.41608877 C31.5404513,5.88281901 32.8029686,8.91334331 32.9587044,12.5233193 C36.0071758,14.4630118 38,17.0714007 38,20.004546 C38,22.9378604 36.0069462,25.5463808 32.9587401,27.48621 C32.8029686,31.0957488 31.5404513,34.1262731 29,35.5930033 C26.4595373,37.0597401 23.2037498,36.6378396 19.999537,34.9677041 C16.79574,36.6379058 13.5402636,37.0596252 11,35.5930033 C8.45954869,34.1262731 7.19703142,31.0957488 7.04129556,27.4857728 C3.99282417,25.5460803 2,22.9376914 2,20.004546 C2,17.0712317 3.99305383,14.4627112 7.04125986,12.522882 C7.19703142,8.91334331 8.45954869,5.88281901 11,4.41608877 C13.5404109,2.94938185 16.7961174,3.37123521 20.0002669,5.04128571 C23.20426,3.37118631 26.4597364,2.94946687 29,4.41608877 Z M31.8069396,28.1621598 L31.5766955,28.2828346 C29.8972506,29.1594571 27.9842627,29.8537142 25.957714,30.3216123 C24.4734754,31.9126222 22.8370114,33.2727116 21.1604189,34.3074751 C23.866009,35.5500031 26.4896246,35.7721986 28.45,34.6403754 C30.4101665,33.5086727 31.5295176,31.1258447 31.8069396,28.1621598 Z M8.19263277,28.1605305 L8.20688131,28.3025937 C8.50616459,31.2010399 9.62089136,33.526604 11.55,34.6403754 C13.510313,35.7721626 16.133824,35.5500172 18.839376,34.308184 C17.163212,33.2728225 15.5271493,31.9131276 14.0434575,30.3220125 C11.9230867,29.832512 9.92700496,29.0952236 8.19263277,28.1605305 Z M24.0567219,30.6886567 L23.6126607,30.7534615 C22.4230769,30.9181678 21.2115385,31.004546 20,31.004546 C18.6378489,31.004546 17.2756978,30.8953567 15.9447492,30.6884189 C17.2458346,31.9182533 18.6228756,32.9417392 20.0001588,33.7153731 C21.3778099,32.9420295 22.7552478,31.9185008 24.0567219,30.6886567 Z M20,10.104546 C18.1446026,10.104546 16.3276236,10.3082082 14.6138263,10.6779978 C13.4382845,11.976859 12.3537783,13.4481905 11.4263485,15.054546 C10.4990491,16.6606757 9.76716721,18.3353061 9.23057853,20.0036798 C9.7665743,21.6724293 10.4986735,23.3477658 11.4263485,24.954546 C12.3535834,26.560564 13.4378287,28.0316147 14.6142938,29.3304347 C16.3281461,29.7009424 18.1448694,29.904546 20,29.904546 C21.8553974,29.904546 23.6723764,29.7008839 25.3861737,29.3310943 C26.5621713,28.0316147 27.6464166,26.560564 28.5736515,24.954546 C29.5007657,23.3487372 30.2325404,21.6744549 30.7690999,20.0064119 C30.233658,18.3371945 29.5014737,16.6615812 28.5736515,15.054546 C27.6462217,13.4481905 26.5617155,11.976859 25.3849644,10.6778384 C23.671146,10.3080703 21.8547692,10.104546 20,10.104546 Z M8.71886863,21.8319469 L8.66902293,22.0476004 C8.28874367,23.7150259 8.10768943,25.3447893 8.12573217,26.859834 C9.48473731,27.6665418 11.0601378,28.3477786 12.776268,28.8600102 C11.9312718,27.8104837 11.1551646,26.6848417 10.4737206,25.504546 C9.79217773,24.3240792 9.20532547,23.0889428 8.71886863,21.8319469 Z M31.2811269,21.8338575 C30.7943022,23.0897265 30.207606,24.3244537 29.5262794,25.504546 C28.8448354,26.6848417 28.0687282,27.8104837 27.2235089,28.8601355 C28.9397876,28.3477846 30.514955,27.6666664 31.8738257,26.8604156 C31.892921,25.2806193 31.6953914,23.5759538 31.2811269,21.8338575 Z M32.9670365,13.857439 C32.9111569,15.759072 32.5739068,17.7802069 31.9777638,19.790781 L31.9129629,20.0031387 C32.5494816,22.0845005 32.9091668,24.1821609 32.9669325,26.1518441 C35.3957071,24.4292961 36.9,22.2682364 36.9,20.004546 C36.9,17.7407884 35.3956176,15.5796674 32.9670365,13.857439 Z M7.03306753,13.857248 L6.88706418,13.9622411 C4.54427533,15.6669362 3.1,17.7864732 3.1,20.004546 C3.1,22.2683037 4.60438239,24.4294246 7.03296349,26.1516531 C7.0908213,24.1825684 7.45036961,22.0853686 8.08664208,20.0044306 C7.45040325,17.9239198 7.090824,15.8266158 7.03306753,13.857248 Z M20,16.004546 C22.209139,16.004546 24,17.795407 24,20.004546 C24,22.213685 22.209139,24.004546 20,24.004546 C17.790861,24.004546 16,22.213685 16,20.004546 C16,17.795407 17.790861,16.004546 20,16.004546 Z M27.223732,11.1490819 L27.3030962,11.2482747 C28.1174804,12.2695071 28.8662794,13.3613925 29.5262794,14.504546 C30.2078223,15.6850128 30.7946745,16.9201493 31.2811314,18.1771451 C31.6952901,16.4346742 31.8930877,14.7295592 31.8742678,13.1492581 C30.5152627,12.3425503 28.9398622,11.6613134 27.223732,11.1490819 Z M12.7764911,11.1489566 C11.0602124,11.6613074 9.48504502,12.3424257 8.12617434,13.1486764 C8.10716737,14.7287798 8.30473806,16.4335157 8.71899511,18.1755584 C9.20569784,16.9193656 9.79239395,15.6846383 10.4737206,14.504546 C11.1551646,13.3242503 11.9312718,12.1986084 12.7764911,11.1489566 Z M21.2897608,5.6423818 L21.160343,5.70157006 C22.8212451,6.7266394 24.4427682,8.07097491 25.9156958,9.64337509 L25.95655,9.68721103 C28.0769184,10.1766694 30.0729985,10.9139293 31.8073696,11.8486029 C31.5297691,8.88378295 30.4103867,6.50054651 28.45,5.36871671 C26.5208914,4.25494532 23.9495304,4.45234565 21.2897608,5.6423818 Z M11.55,5.36871671 C9.58961328,6.50054651 8.47023088,8.88378295 8.1929669,11.8479314 C9.92736449,10.9136255 11.9231547,10.1766097 14.0431011,9.68725957 C15.5272064,8.09590327 17.1633379,6.73616495 18.8395811,5.70161694 C16.133991,4.45908898 13.5103754,4.23689343 11.55,5.36871671 Z M19.9998412,6.29371901 L19.9089722,6.34480797 C18.5620086,7.11196976 17.2168422,8.11710465 15.9442793,9.31948928 C17.2754427,9.11375585 18.6377213,9.00454603 20,9.00454603 C21.3621511,9.00454603 22.7243022,9.1137354 24.0552508,9.32067318 C22.7541654,8.09083879 21.3771244,7.06735289 19.9998412,6.29371901 Z"/>
</svg>
