<svg width="16" height="16" viewBox="0 0 16 16" fill="none" xmlns="http://www.w3.org/2000/svg">
<path d="M13.9062 1H2.09375C1.48969 1 1 1.48969 1 2.09375V13.9062C1 14.5103 1.48969 15 2.09375 15H13.9062C14.5103 15 15 14.5103 15 13.9062V2.09375C15 1.48969 14.5103 1 13.9062 1Z" fill="#3178C6"/>
<path fill-rule="evenodd" clip-rule="evenodd" d="M9.23145 11.9635V13.4739C9.47711 13.5998 9.76766 13.6942 10.1031 13.7572C10.4385 13.8201 10.792 13.8516 11.1636 13.8516C11.5258 13.8516 11.8699 13.8169 12.1958 13.7477C12.5217 13.6785 12.8076 13.5644 13.0532 13.4055C13.2988 13.2466 13.4933 13.0389 13.6366 12.7824C13.7799 12.526 13.8516 12.209 13.8516 11.8314C13.8516 11.5576 13.8106 11.3176 13.7287 11.1115C13.6469 10.9054 13.5287 10.7221 13.3744 10.5616C13.2201 10.4011 13.0351 10.2572 12.8194 10.1297C12.6036 10.0023 12.3603 9.88191 12.0895 9.76865C11.8911 9.68678 11.7132 9.60737 11.5557 9.53027C11.3982 9.45316 11.2644 9.37452 11.1542 9.29423C11.0439 9.21401 10.9589 9.12902 10.899 9.03934C10.8392 8.94965 10.8093 8.8482 10.8093 8.73489C10.8093 8.63104 10.836 8.53747 10.8896 8.45407C10.9431 8.37067 11.0188 8.29909 11.1164 8.23931C11.214 8.17948 11.3336 8.13311 11.4754 8.10002C11.6171 8.06699 11.7746 8.05048 11.9478 8.05048C12.0738 8.05048 12.2068 8.05994 12.3469 8.0788C12.4871 8.09767 12.628 8.12677 12.7698 8.16614C12.9115 8.20546 13.0492 8.25501 13.1831 8.31484C13.3169 8.37461 13.4406 8.44384 13.554 8.52248V7.11116C13.324 7.02306 13.0729 6.95777 12.8005 6.91527C12.5281 6.87278 12.2155 6.85156 11.8627 6.85156C11.5037 6.85156 11.1636 6.89012 10.8424 6.96723C10.5211 7.04428 10.2385 7.16465 9.9944 7.32827C9.75033 7.49195 9.55744 7.70042 9.41569 7.95373C9.274 8.20705 9.20312 8.50991 9.20312 8.86237C9.20312 9.31234 9.33301 9.69624 9.59288 10.0141C9.8527 10.3319 10.2471 10.6009 10.7762 10.8212C10.9841 10.9062 11.1778 10.9895 11.3573 11.0714C11.5368 11.1532 11.6919 11.2382 11.8226 11.3263C11.9533 11.4144 12.0564 11.5103 12.132 11.6142C12.2076 11.718 12.2454 11.8361 12.2454 11.9682C12.2454 12.0657 12.2218 12.1562 12.1745 12.2396C12.1273 12.323 12.0556 12.3954 11.9596 12.4568C11.8636 12.5181 11.7439 12.5661 11.6006 12.6007C11.4573 12.6353 11.2896 12.6526 11.0974 12.6526C10.7699 12.6526 10.4456 12.5952 10.1243 12.4803C9.80305 12.3655 9.50544 12.1932 9.23145 11.9635V11.9635ZM6.71386 8.20464H8.65625V6.96094H3.24219V8.20464H5.1751V13.7422H6.71386V8.20464Z" fill="white"/>
</svg>
