<svg width="40" height="40" viewBox="0 0 40 40" fill="none" xmlns="http://www.w3.org/2000/svg">
<path d="M28 8V20C28 23.866 24.866 27 21 27H13.2422L11.1211 24.8789C10.1508 23.9088 8.68276 23.7441 7.54102 24.3809C6.57728 23.1815 6 21.6583 6 20V8H28Z" fill="#45322B"/>
<path d="M34 8V12.1455C34 12.7136 33.679 13.2332 33.1709 13.4873L31 14.5723V8H34Z" fill="#45322B"/>
<path d="M31.5 32C32.3284 32 33 32.6716 33 33.5C33 34.3284 32.3284 35 31.5 35H17.2363C17.9866 34.1625 18.1806 33.006 17.8252 32H31.5Z" fill="#C77D55"/>
<path fill-rule="evenodd" clip-rule="evenodd" d="M34.5 5C35.8807 5 37 6.11929 37 7.5V12.1455C37 13.8499 36.0371 15.4086 34.5127 16.1709L31 17.9268V20C31 25.5228 26.5228 30 21 30H16.2422L13.2422 27H21C24.866 27 28 23.866 28 20V8H6V20C6 21.6583 6.57728 23.1815 7.54102 24.3809C7.34712 24.489 7.16118 24.618 6.99023 24.7725L6.87891 24.8789L5.33496 26.4219C3.87784 24.6845 3 22.4449 3 20V8C3 6.34315 4.34315 5 6 5H34.5ZM31 14.5723L33.1709 13.4873C33.679 13.2332 34 12.7136 34 12.1455V8H31V14.5723Z" fill="#C77D55"/>
<path d="M0.293015 26.293C0.68354 25.9024 1.31655 25.9024 1.70708 26.293L7.70708 32.293C8.0976 32.6835 8.0976 33.3165 7.70708 33.707L1.70708 39.707C1.31655 40.0975 0.68354 40.0975 0.293015 39.707C-0.097509 39.3165 -0.097509 38.6835 0.293015 38.293L5.58598 33L0.293015 27.707C-0.097509 27.3165 -0.097509 26.6835 0.293015 26.293ZM8.29302 26.293C8.68354 25.9024 9.31655 25.9024 9.70708 26.293L15.7071 32.293C16.0976 32.6835 16.0976 33.3165 15.7071 33.707L9.70708 39.707C9.31655 40.0975 8.68354 40.0975 8.29302 39.707C7.90249 39.3165 7.90249 38.6835 8.29302 38.293L13.586 33L8.29302 27.707C7.90249 27.3165 7.90249 26.6835 8.29302 26.293Z" fill="#CED0D6"/>
</svg>
