<svg width="12" height="12" viewBox="0 0 12 12" fill="none" xmlns="http://www.w3.org/2000/svg">
<path d="M8.85355 4.85355C9.04882 4.65829 9.04882 4.34171 8.85355 4.14645C8.65829 3.95118 8.34171 3.95118 8.14645 4.14645L5.5 6.79289L4.35355 5.64645C4.15829 5.45118 3.84171 5.45118 3.64645 5.64645C3.45118 5.84171 3.45118 6.15829 3.64645 6.35355L5.14645 7.85355C5.34171 8.04882 5.65829 8.04882 5.85355 7.85355L8.85355 4.85355Z" fill="#6C707E"/>
<path fill-rule="evenodd" clip-rule="evenodd" d="M11 6C11 10 6 12 6 12C6 12 0.999891 10 1 6V2L6 0L11 2V6ZM2 6V2.67703L6 1.07703L10 2.67703V6C10 7.55177 9.03024 8.79519 7.87531 9.71913C7.31111 10.1705 6.74151 10.5129 6.31066 10.7426C6.19527 10.8042 6.09073 10.8572 6 10.9016C5.90926 10.8572 5.80471 10.8042 5.68932 10.7426C5.25846 10.5129 4.68885 10.1705 4.12465 9.71913C2.96971 8.79518 1.99996 7.55175 2 6Z" fill="#6C707E"/>
</svg>
