<svg id="Layer_1" data-name="Layer 1" xmlns="http://www.w3.org/2000/svg" viewBox="0 0 16 16">
  <title>pythonFile</title>
  <g>
    <g>
      <polygon points="6 0 2 4 6 4 6 0" fill="#9aa7b0" opacity="0.7" style="isolation: isolate"/>
      <path d="M7.582,14.57227V14.35938H7.45215a2.31252,2.31252,0,0,1-2.25391-1.97363,5.40552,5.40552,0,0,1,0-2.89746A2.48963,2.48963,0,0,1,7.582,7.51758V7.30371a2.0813,2.0813,0,0,1,2.0332-2.22559,8.01647,8.01647,0,0,1,1.32324-.11133h0.002a8.61252,8.61252,0,0,1,1.41992.11035A2.64271,2.64271,0,0,1,13,5.27637V0H7V5H2V15H7.63208A2.006,2.006,0,0,1,7.582,14.57227Z" fill="#9aa7b0" opacity="0.7" style="isolation: isolate"/>
    </g>
    <g>
      <path id="path1948" d="M10.94046,5.96633a6.96136,6.96136,0,0,0-1.1526.09732c-1.0207.17835-1.206,0.55166-1.206,1.24011V8.213h2.412V8.51607H7.67662A1.50249,1.50249,0,0,0,6.1698,9.72559a4.41243,4.41243,0,0,0,0,2.42461,1.34334,1.34334,0,0,0,1.28192,1.20953H8.281v-1.09a1.52457,1.52457,0,0,1,1.50682-1.482h2.40922a1.2084,1.2084,0,0,0,1.206-1.21231V7.30376a1.33829,1.33829,0,0,0-1.206-1.24011A7.60448,7.60448,0,0,0,10.94046,5.96633ZM9.636,6.69761a0.45462,0.45462,0,1,1-.45261.456A0.45508,0.45508,0,0,1,9.636,6.69761Z" fill="#40a0cf" opacity="0.9"/>
      <path id="path1950" d="M13.70389,8.51607V9.57544a1.53843,1.53843,0,0,1-1.50682,1.5126H9.78785a1.22354,1.22354,0,0,0-1.206,1.21231V14.572a1.397,1.397,0,0,0,1.206,1.21231,4.078,4.078,0,0,0,2.40922,0,1.37656,1.37656,0,0,0,1.206-1.21231V13.66281H10.99387V13.35974h3.61524c0.701,0,.96223-0.48362,1.206-1.20953a4.05154,4.05154,0,0,0,0-2.42461,1.28793,1.28793,0,0,0-1.206-1.20953H13.70389Zm-1.355,5.7529a0.45462,0.45462,0,1,1-.45261.45323A0.45269,0.45269,0,0,1,12.34888,14.269Z" fill="#ffc900" opacity="0.9"/>
    </g>
  </g>
</svg>
