<svg id="Layer_1" data-name="Layer 1" xmlns="http://www.w3.org/2000/svg" viewBox="0 0 32 32">
  <title>pythonFile@2x</title>
  <g>
    <g>
      <polygon points="12 0 4 8 12 8 12 0" fill="#9aa7b0" opacity="0.7" style="isolation: isolate"/>
      <path d="M15.16406,29.14453V28.71875H14.9043c-2.22461,0-3.91016-1.47656-4.50781-3.94727a10.811,10.811,0,0,1,0-5.79492,4.97926,4.97926,0,0,1,4.76758-3.94141V14.60742c0-2.55078,1.293-3.96484,4.06641-4.45117A16.03293,16.03293,0,0,1,21.877,9.93359h0.00391a17.225,17.225,0,0,1,2.83984.2207A5.28542,5.28542,0,0,1,26,10.55273V0H14V10H4V30H15.26416A4.012,4.012,0,0,1,15.16406,29.14453Z" fill="#9aa7b0" opacity="0.7" style="isolation: isolate"/>
    </g>
    <g>
      <path id="path1948" d="M21.88091,11.93266a13.92271,13.92271,0,0,0-2.30521.19464c-2.0414.35671-2.412,1.10333-2.412,2.48023V16.426h4.82407v0.60615h-6.6345a3.005,3.005,0,0,0-3.01364,2.41905,8.82486,8.82486,0,0,0,0,4.84923c0.34291,1.41257,1.16183,2.41905,2.56384,2.41905h1.65863V24.53954a3.04914,3.04914,0,0,1,3.01364-2.964h4.81845a2.4168,2.4168,0,0,0,2.412-2.42461V14.60752a2.67657,2.67657,0,0,0-2.412-2.48023A15.209,15.209,0,0,0,21.88091,11.93266Zm-2.60882,1.46255a0.90924,0.90924,0,1,1-.90522.912A0.91016,0.91016,0,0,1,19.27209,13.39521Z" fill="#40a0cf" opacity="0.9"/>
      <path id="path1950" d="M27.40779,17.03213v2.11876a3.07686,3.07686,0,0,1-3.01364,3.02521H19.57571a2.44707,2.44707,0,0,0-2.412,2.42461v4.54337c0,1.29307,1.13683,2.05364,2.412,2.42461a8.15609,8.15609,0,0,0,4.81845,0c1.21448-.34779,2.412-1.04772,2.412-2.42461V27.32562H21.98774V26.71947h7.23048c1.402,0,1.92445-.96725,2.412-2.41905a8.10308,8.10308,0,0,0,0-4.84923c-0.34648-1.38046-1.00824-2.41905-2.412-2.41905H27.40779Zm-2.71,11.5058a0.90924,0.90924,0,1,1-.90522.90645A0.90539,0.90539,0,0,1,24.69776,28.53793Z" fill="#ffc900" opacity="0.9"/>
    </g>
  </g>
</svg>
