<!-- Copyright 2000-2021 JetBrains s.r.o. Use of this source code is governed by the Apache 2.0 license that can be found in the LICENSE file. -->
<svg xmlns="http://www.w3.org/2000/svg" width="16" height="16" viewBox="0 0 16 16">
  <g fill="none" fill-rule="evenodd">
    <path fill="#935E2D" fill-opacity=".7" d="M6.34364231,5.71927648 L1.18693679,0.646125199 C2.58799263,-0.463749634 4.38406421,-0.0677171692 5.72661772,1.25370296 C7.06867121,2.57413915 7.47168727,4.34128028 6.34364231,5.71927648 Z M5.81312116,6.24174415 C4.41256535,7.35211095 2.61649376,6.95558652 1.27394026,5.63465836 C-0.0681132327,4.31422217 -0.471129295,2.54708103 0.656915663,1.16859287 L5.81312116,6.24174415 Z" transform="translate(9 9)"/>
    <path fill="#40B6E0" fill-opacity=".6" d="M14.8839685,9.27604806 C13.1424466,7.90026185 10.7538438,7.88301043 9.31842712,9.31842712 C7.88301043,10.7538438 7.90026185,13.1424466 9.27604806,14.8839685 C8.86229408,14.9601759 8.43579784,15 8,15 C4.134,15 1,11.866 1,8 C1,4.134 4.134,1 8,1 C11.866,1 15,4.134 15,8 C15,8.43579784 14.9601759,8.86229408 14.8839685,9.27604806 Z"/>
    <path fill="#231F20" fill-opacity=".7" d="M8.36980312,10.9886061 C8.25249657,10.9964032 8.13009939,11.0004 8.0022,11.0004 C6.3642,11.0004 5.0002,9.6824 5.0002,8.0004 C5.0002,6.3584 6.3402,5.0004 8.0982,5.0004 C9.28826904,5.0004 9.8293999,5.2701752 10.5162,5.83673096 L9.9,6.55426025 C9.54833171,6.18475342 8.94833171,6 8.1,6 C6.971,6 6,6.7124 6,8.0004 C6,9.2794 7.061,10.022 8.1,10 C8.3793443,9.99337761 8.62008807,9.96732192 8.83297792,9.92161298 C8.62153563,10.2518498 8.46739297,10.6117461 8.36980312,10.9886061 Z"/>
  </g>
</svg>
