<!-- Copyright 2000-2021 JetBrains s.r.o. Use of this source code is governed by the Apache 2.0 license that can be found in the LICENSE file. -->
<svg xmlns="http://www.w3.org/2000/svg" width="16" height="16" viewBox="0 0 16 16">
  <g fill="none" fill-rule="evenodd">
    <path fill="#935E2D" fill-opacity=".7" d="M9.06065145,8 L3.3735,2.3134 C6.1755,0.0574 9.7675,0.8624 12.4525,3.5484 C13.7823455,4.87824548 14.651157,6.4309977 14.9149195,8 L9.06065145,8 Z M6,14.2514228 C5.13568714,13.8195738 4.30545465,13.2113546 3.5475,12.4534 C0.8635,9.7694 0.0575,6.1774 2.3135,3.3754 L6.9381,8 L6,8 L6,14.2514228 Z"/>
    <path fill="#9AA7B0" d="M7,9 L16,9 L16,16 L7,16 L7,9 Z M8,10 L8,15 L15,15 L15,10 L8,10 Z"/>
    <path fill="#9AA7B0" fill-opacity=".6" d="M10,11 L10,10 L11,10 L11,11 L15,11 L15,12 L11,12 L11,13 L15,13 L15,14 L11,14 L11,15 L10,15 L10,14 L8,14 L8,13 L10,13 L10,12 L8,12 L8,11 L10,11 Z"/>
  </g>
</svg>
