<!-- Copyright 2000-2021 JetBrains s.r.o. Use of this source code is governed by the Apache 2.0 license that can be found in the LICENSE file. -->
<svg xmlns="http://www.w3.org/2000/svg" width="16" height="16" viewBox="0 0 16 16">
  <g fill="none" fill-rule="evenodd">
    <path fill="#F4AF3D" fill-opacity=".6" d="M14.776954,6.24025221 C14.3813349,6.08515562 13.950612,6 13.5,6 C11.5670034,6 10,7.56700338 10,9.5 C10,10.6893726 10.593258,11.7401823 11.5,12.3726554 L11.5,14.0635278 C10.4703939,14.6591214 9.27500599,15 8,15 C4.134,15 1,11.866 1,8 C1,4.134 4.134,1 8,1 C11.2582142,1 13.9964963,3.22604816 14.776954,6.24025221 Z"/>
    <path fill="#9AA7B0" d="M13.8541667,10.6666667 C13.5125,9.69583333 12.5875,9 11.5,9 C10.1208333,9 9,10.1208333 9,11.5 C9,12.8791667 10.1208333,14 11.5,14 C12.5875,14 13.5125,13.3041667 13.8541667,12.3333333 L15.5,12.3333333 L15.5,14 L17,14 L17,12.3333333 L18,12.3333333 L18,10.6666667 L13.8541667,10.6666667 Z M11.5,12.3333333 C11.0416667,12.3333333 10.6666667,11.9583333 10.6666667,11.5 C10.6666667,11.0416667 11.0416667,10.6666667 11.5,10.6666667 C11.9583333,10.6666667 12.3333333,11.0416667 12.3333333,11.5 C12.3333333,11.9583333 11.9583333,12.3333333 11.5,12.3333333 Z" transform="matrix(0 1 1 0 2 -2)"/>
    <path fill="#231F20" fill-opacity=".7" d="M2.131,6 C1.075,6 0,5.516 0,4.35 L0,4.328 C0,3.129 0.998,2.391 2.439,2.391 C3.165,2.391 3.494,2.59 4,2.733 L4,2.535 C4,1.512 3.561,1 2.494,1 C1.823,1 1.295,1.16 0.767,1.402 L0.514,0.509 C1.141,0.223 1.56722876,1.49068735e-16 2.582,0 C3.59677124,0 4.04440234,0.405669434 4.46240234,0.823669434 C4.84740234,1.20866943 5.002,1.798 5.002,2.524 L5.002,6 L4,6 L4,5.142 C3.604,5.659 3.132,6 2.131,6 Z M2.296,5.1 C3.341,5.1 4.03930664,4.61367798 4,3.91 L4,3.6 C3.59963989,3.39935303 3.16821289,3.118 2.527,3.118 C1.68933105,3.118 1,3.58 1,4.295 L1,4.317 C1,4.812 1.526,5.1 2.296,5.1 Z" transform="translate(5 5)"/>
  </g>
</svg>
