<svg xmlns="http://www.w3.org/2000/svg" width="16" height="16" viewBox="0 0 16 16">
  <g fill="none" fill-rule="evenodd">
    <circle cx="8" cy="8" r="7" fill="#F4AF3D" fill-opacity=".6"/>
    <path fill="#231F20" fill-opacity=".7" d="M2.131,6 C1.075,6 0,5.516 0,4.35 L0,4.328 C0,3.129 0.998,2.391 2.439,2.391 C3.165,2.391 3.494,2.59 4,2.733 L4,2.535 C4,1.512 3.561,1 2.494,1 C1.823,1 1.295,1.16 0.767,1.402 L0.514,0.509 C1.141,0.223 1.56722876,1.49068735e-16 2.582,0 C3.59677124,0 4.04440234,0.405669434 4.46240234,0.823669434 C4.84740234,1.20866943 5.002,1.798 5.002,2.524 L5.002,6 L4,6 L4,5.142 C3.604,5.659 3.132,6 2.131,6 Z M2.296,5.1 C3.341,5.1 4.03930664,4.61367798 4,3.91 L4,3.6 C3.59963989,3.39935303 3.16821289,3.118 2.527,3.118 C1.68933105,3.118 1,3.58 1,4.295 L1,4.317 C1,4.812 1.526,5.1 2.296,5.1 Z" transform="translate(5 5)"/>
  </g>
</svg>
