<!-- Copyright 2000-2021 JetBrains s.r.o. Use of this source code is governed by the Apache 2.0 license that can be found in the LICENSE file. -->
<svg xmlns="http://www.w3.org/2000/svg" width="16" height="16" viewBox="0 0 16 16">
  <g fill="none" fill-rule="evenodd">
    <path fill="#9AA7B0" d="M13.8541667,10.6666667 C13.5125,9.69583333 12.5875,9 11.5,9 C10.1208333,9 9,10.1208333 9,11.5 C9,12.8791667 10.1208333,14 11.5,14 C12.5875,14 13.5125,13.3041667 13.8541667,12.3333333 L15.5,12.3333333 L15.5,14 L17,14 L17,12.3333333 L18,12.3333333 L18,10.6666667 L13.8541667,10.6666667 Z M11.5,12.3333333 C11.0416667,12.3333333 10.6666667,11.9583333 10.6666667,11.5 C10.6666667,11.0416667 11.0416667,10.6666667 11.5,10.6666667 C11.9583333,10.6666667 12.3333333,11.0416667 12.3333333,11.5 C12.3333333,11.9583333 11.9583333,12.3333333 11.5,12.3333333 Z" transform="matrix(0 1 1 0 2 -2)"/>
    <path fill="#9AA7B0" d="M11.0288165,11.9785585 C10.1882746,12.619431 9.13858064,13 8,13 C7.8885457,13 7.77794313,12.9963533 7.6683051,12.9891727 C7.81326294,12.6813028 7.91466804,12.3488797 7.96457754,11.9998464 C7.97637291,11.9999487 7.98818047,12 8,12 C8.91319551,12 9.75491729,11.6939846 10.4282124,11.1789066 C10.5897579,11.4738493 10.7925455,11.7429861 11.0288165,11.9785585 Z M3.01082728,8.3316949 C3.00364669,8.22205687 3,8.1114543 3,8 C3,5.23857625 5.23857625,3 8,3 C8.1114543,3 8.22205687,3.00364669 8.3316949,3.01082728 C8.18673706,3.31869724 8.08533196,3.65112029 8.03542246,4.00015358 C8.02362709,4.00005126 8.01181953,4 8,4 C5.790861,4 4,5.790861 4,8 C4,8.01181953 4.00005126,8.02362709 4.00015358,8.03542246 C3.65112029,8.08533196 3.31869724,8.18673706 3.01082728,8.3316949 Z"/>
    <path fill="#F4AF3D" fill-opacity=".7" d="M10.4227584,7.83108974 C9.01685811,7.37677036 8,6.05713515 8,4.5 C8,2.56700338 9.56700338,1 11.5,1 C13.4329966,1 15,2.56700338 15,4.5 C15,5.10430606 14.8468484,5.67284163 14.5772416,6.16891026 C14.2378852,6.05924659 13.8758615,6 13.5,6 C12.1713094,6 11.0155442,6.74038131 10.4227584,7.83108974 Z"/>
    <circle cx="4.5" cy="11.5" r="3.5" fill="#F4AF3D" fill-opacity=".7"/>
  </g>
</svg>
