<!-- Copyright 2000-2021 JetBrains s.r.o. Use of this source code is governed by the Apache 2.0 license that can be found in the LICENSE file. -->
<svg xmlns="http://www.w3.org/2000/svg" width="16" height="16" viewBox="0 0 16 16">
  <g fill="none" fill-rule="evenodd">
    <path fill="#935E2D" fill-opacity=".7" d="M4,5.75828571 L11.3031429,13.0614286 C9.30314286,14.6728571 6.73742857,14.0985714 4.82028571,12.18 C4.51066897,11.8706138 4.23606161,11.5443368 4,11.2062723 L4,5.75828571 Z M12,12.2404407 L4.69671429,4.93857143 C6.69671429,3.32571429 9.26242857,3.90142857 11.181,5.82 C11.4900369,6.12903693 11.7642177,6.45492656 12,6.79258276 L12,12.2404407 Z"/>
    <g fill="#9AA7B0" transform="translate(1 1)">
      <polygon points="2 10.814 0 10.814 0 5 2 5"/>
      <polygon points="14 10.814 12 10.814 12 5 14 5"/>
      <path d="M2,7.998 C2.002,4.143 3.146,1 6.997,1 C10.854,1 11.998,4.143 12,7.998 L13,7.998 C12.998,3.592 12,0 6.997,0 C2.595,0 1.002,3.592 1,7.998 L2,7.998 Z"/>
    </g>
  </g>
</svg>
