<!-- Copyright 2000-2021 JetBrains s.r.o. Use of this source code is governed by the Apache 2.0 license that can be found in the LICENSE file. -->
<svg xmlns="http://www.w3.org/2000/svg" width="16" height="16" viewBox="0 0 16 16">
  <g fill="none" fill-rule="evenodd">
    <path fill="#62B543" fill-opacity=".6" d="M14.9291115,9 L10,9 L10,14.7101226 C9.36629085,14.8987229 8.69497293,15 8,15 C4.134,15 1,11.866 1,8 C1,4.134 4.134,1 8,1 C11.866,1 15,4.134 15,8 C15,8.33952142 14.9758282,8.67339709 14.9291115,9 Z"/>
    <path fill="#9AA7B0" d="M11,16 L11,10 L13.6832001,10 C14.4400002,10 15.0334002,10.2035997 15.4204002,10.5819998 C15.7386002,10.9087998 16,11.3554001 16,11.8800001 C16,12.8862002 15.3258002,13.4801999 14.4916002,13.7209999 L16.1170002,16 L14.8614002,16 L13.3822001,14 L12,14 L12,16 L11,16 Z M12,13 L13.6058001,13 C14.3626001,13 15,12.5685998 15,11.9579998 L15,11.9407998 C15,11.2957998 14.3798001,11 13.5972001,11 L12,11 L12,13 Z"/>
    <polygon fill="#231F20" fill-rule="nonzero" points="2.6 5 2.6 1 4 1 4 0 0 0 0 1 1.4 1 1.4 5 0 5.006 0 6 4 6 4 5" opacity=".7" transform="translate(6 5)"/>
  </g>
</svg>
