<svg id="Layer_1" data-name="Layer 1" xmlns="http://www.w3.org/2000/svg" viewBox="0 0 16 16">
  <title>jira</title>
  <g opacity="0.9">
    <g>
      <path d="M10.57616,14.86792c-0.36906,0-.73822-0.00433-1.10713.00208-0.148.00257-.19883-0.00061-0.17138-0.16749a1.81616,1.81616,0,0,0-.2243-1.1132,7.25563,7.25563,0,0,0-1.16177-1.59584C6.99782,10.99013,5.93477,10.10867,4.92116,9.186A10.21168,10.21168,0,0,1,2.36007,5.86924,3.35518,3.35518,0,0,1,2,4.48729c0.0017-.28356.19916-0.39336,0.479-0.246a5.06521,5.06521,0,0,0,1.04815.46843,4.5372,4.5372,0,0,0,1.08135.18829,0.26713,0.26713,0,0,1,.29652.19157,5.47932,5.47932,0,0,0,1.11491,1.75A16.84474,16.84474,0,0,0,7.95009,8.68419a0.1,0.1,0,0,0,.16034.0098,13.16689,13.16689,0,0,0,2.6441-2.88373,2.517,2.517,0,0,0,.32459-0.70182,0.24126,0.24126,0,0,1,.266-0.179,4.2487,4.2487,0,0,0,2.10567-.65594,0.39839,0.39839,0,0,1,.39149-0.06466,0.33539,0.33539,0,0,1,.15062.38532,4.7908,4.7908,0,0,1-.43437,1.44853A9.74672,9.74672,0,0,1,11.8821,8.43164a21.79831,21.79831,0,0,1-1.85434,1.73844c-0.0763.0656-.09771,0.101-0.01622,0.18993a7.25316,7.25316,0,0,1,1.49211,2.39942,5.87354,5.87354,0,0,1,.39231,1.96314c0.00152,0.12449-.04185.15089-0.17577,0.14813C11.339,14.86286,10.95753,14.86793,10.57616,14.86792Z" fill="#4e7098"/>
      <path d="M5.38056,14.99639c-0.381,0-.7622-0.00436-1.14309.00239-0.12673.00225-.15463-0.039-0.15183-0.13964A6.60388,6.60388,0,0,1,5.16228,11.485c0.11919-.18931.25744-0.36947,0.38492-0.55489,0.05508-.08011.102-0.07666,0.175-0.00988,0.608,0.55625,1.20572,1.12007,1.75435,1.7223,0.0655,0.0719.01515,0.10828-.02442,0.16276a4.35242,4.35242,0,0,0-.70821,1.31249,2.051,2.051,0,0,0-.05355.729c0.008,0.11558-.02243.1567-0.16676,0.153C6.14287,14.98989,5.7616,14.9964,5.38056,14.99639Z" fill="#4e7098"/>
    </g>
    <path d="M7.99188,2.96711A1.054,1.054,0,0,1,6.86281,1.9913,1.07823,1.07823,0,0,1,8.0205,1.0001a1.08122,1.08122,0,0,1,1.11669.98942A1.06746,1.06746,0,0,1,7.99188,2.96711Z" fill="#4e7098"/>
    <path d="M3.54258,2.77874a1.07832,1.07832,0,0,1,1.14357-.98042A1.08757,1.08757,0,0,1,5.80649,2.79977a1.10788,1.10788,0,0,1-1.176.97374A1.06321,1.06321,0,0,1,3.54258,2.77874Zm6.64836-.03344a1.08812,1.08812,0,0,0,1.09255,1.02892,1.11722,1.11722,0,0,0,1.17236-.92443,1.05454,1.05454,0,0,0-1.13533-1.0429A1.0683,1.0683,0,0,0,10.19094,2.7453Z" fill="#4e7098"/>
    <path d="M7.98211,5.00548c0.39967,0,.8003.01492,1.19874-0.00433C9.551,4.98326,9.5773,5.17693,9.50141,5.41126a1.82381,1.82381,0,0,1-.40176.59792,9.98162,9.98162,0,0,1-1.01187.951C8.02865,7.01194,7.9947,7.0349,7.92092,6.96843A8.13488,8.13488,0,0,1,6.5898,5.52868,0.71318,0.71318,0,0,1,6.52,5.41771c-0.1285-.29861-0.04027-0.412.31844-0.41221Q7.41027,5.00521,7.98211,5.00548Z" fill="#4e7098"/>
  </g>
</svg>
