<svg id="Layer_1" data-name="Layer 1" xmlns="http://www.w3.org/2000/svg" viewBox="0 0 32 32">
  <title>jira@2x</title>
  <g opacity="0.9">
    <g>
      <path d="M21.15233,29.73583c-0.73812,0-1.47644-.00865-2.21427.00415-0.296.00514-.39766-0.00121-0.34276-0.335a3.63233,3.63233,0,0,0-.44861-2.2264,14.51125,14.51125,0,0,0-2.32354-3.19169c-1.82751-2.00667-3.9536-3.76957-5.98082-5.615a20.42336,20.42336,0,0,1-5.12218-6.63343,6.71035,6.71035,0,0,1-.72007-2.76389c0.0034-.56713.39831-0.78672,0.958-0.4919a10.13043,10.13043,0,0,0,2.09629.93686A9.07441,9.07441,0,0,0,9.217,9.79613a0.53426,0.53426,0,0,1,.593.38314,10.95864,10.95864,0,0,0,2.22981,3.5,33.68949,33.68949,0,0,0,3.8603,3.68913,0.2,0.2,0,0,0,.32069.0196,26.33378,26.33378,0,0,0,5.28819-5.76747,5.03406,5.03406,0,0,0,.64919-1.40363,0.48251,0.48251,0,0,1,.53192-0.358A8.49739,8.49739,0,0,0,26.90151,8.547a0.79678,0.79678,0,0,1,.783-0.12932,0.67077,0.67077,0,0,1,.30123.77063,9.58159,9.58159,0,0,1-.86875,2.89706,19.49343,19.49343,0,0,1-3.35278,4.77786,43.59662,43.59662,0,0,1-3.70868,3.47689c-0.15259.13119-.19542,0.202-0.03245,0.37986a14.50633,14.50633,0,0,1,2.98421,4.79884,11.74708,11.74708,0,0,1,.78462,3.92628c0.003,0.249-.08369.30177-0.35155,0.29626C22.67805,29.72573,21.91505,29.73586,21.15233,29.73583Z" fill="#4e7098"/>
      <path d="M10.76111,29.99277c-0.7621,0-1.5244-.00872-2.28618.00479-0.25347.00449-.30925-0.07807-0.30365-0.27929A13.20775,13.20775,0,0,1,10.32457,22.97c0.23839-.37862.51488-0.73895,0.76983-1.10978,0.11016-.16022.204-0.15331,0.35-0.01976,1.2159,1.11249,2.41143,2.24015,3.50869,3.44459,0.131,0.14381.03031,0.21655-.04884,0.32551a8.70483,8.70483,0,0,0-1.41642,2.625,4.102,4.102,0,0,0-.10709,1.45805c0.016,0.23115-.04486.31339-0.33352,0.3059C12.28575,29.97979,11.52321,29.99281,10.76111,29.99277Z" fill="#4e7098"/>
    </g>
    <path d="M15.98376,5.93422A2.108,2.108,0,0,1,13.72563,3.9826,2.15646,2.15646,0,0,1,16.041,2.00021,2.16244,2.16244,0,0,1,18.27438,3.979,2.13493,2.13493,0,0,1,15.98376,5.93422Z" fill="#4e7098"/>
    <path d="M7.08516,5.55748A2.15665,2.15665,0,0,1,9.3723,3.59665,2.17514,2.17514,0,0,1,11.613,5.59954,2.21575,2.21575,0,0,1,9.26091,7.547,2.12642,2.12642,0,0,1,7.08516,5.55748ZM20.38188,5.4906A2.17623,2.17623,0,0,0,22.567,7.54844,2.23443,2.23443,0,0,0,24.9117,5.69958,2.10907,2.10907,0,0,0,22.641,3.61378,2.13661,2.13661,0,0,0,20.38188,5.4906Z" fill="#4e7098"/>
    <path d="M15.96423,10.011c0.79935,0,1.60059.02985,2.39748-.00866,0.74039-.03578.79289,0.35157,0.64111,0.82022a3.64762,3.64762,0,0,1-.80352,1.19585,19.96323,19.96323,0,0,1-2.02373,1.902c-0.11827.10351-.18617,0.14944-0.33373,0.01649a16.26976,16.26976,0,0,1-2.66223-2.87949A1.42635,1.42635,0,0,1,13.04,10.83542c-0.257-.59722-0.08053-0.82405.63688-0.82442Q14.82054,10.01043,15.96423,10.011Z" fill="#4e7098"/>
  </g>
</svg>
