<svg enable-background="new 0 0 697.5 697.5" viewBox="0 0 697.5 697.5" xmlns="http://www.w3.org/2000/svg"><path d="m348.6 697.5c-192.5 0-348.6-156-348.6-348.6 0-192.5 156.1-348.5 348.6-348.5s348.6 156.1 348.6 348.6-156.1 348.5-348.6 348.5z" fill="#fefefe"/><g fill="#3ddc84"><path d="m348.9 697.5c-88.4-1-166.4-30-232.5-89-58.4-52.2-94.8-117.3-110.1-194.1-3.4-17.6-5.4-35.5-5.8-53.5-2.4-80.4 19.6-153.4 67.1-218 51.9-70.5 121.1-115.3 206.5-134.7 29.4-6.7 59.6-9.3 89.8-7.7 72.8 3.5 138.5 27.1 196.6 71.2 40.7 30.8 74 70.3 97.5 115.5 19 36.1 31.5 74.5 36.5 115 12 97.7-12 185.8-72.7 263.6-7.1 8.9-14.6 17.5-22.5 25.7-1.7 1.8-2.6 2.1-4.5.2-17.2-17.4-34.5-34.7-51.9-51.9-1.5-1.5-1.7-2.2-.1-3.9 36.5-38.2 59.9-83.2 70.1-135 5-25.3 6.2-51.2 3.6-76.8-5.2-52.7-23.9-100.1-57-141.4-40.8-50.9-93.2-83.1-157.3-96.4-21.2-4.5-42.8-6.2-64.4-5.1-72.8 3.7-134.7 31.7-184.8 84.7-36.7 38.8-59.8 84.7-68.5 137.4-12.8 77.3 4 147.9 51.8 210.2 41.1 53.6 95.5 87 162 99.9 61.3 11.8 119.8 3 175.3-25.7 2.6-1.4 4.1-1.2 6.2 1 17.4 17.6 34.9 35.1 52.4 52.4 2.2 2.2 2.3 3.1-.5 4.8-39.9 24.5-84.3 40.7-130.5 47.6-17.4 2.7-34.8 4-52.3 4z"/><path d="m159.1 356.7c-.6-13.9.3-27.8 2.8-41.5 6.5-37.3 24.3-71.8 50.9-98.8 27.5-28.2 60.5-46.8 99.2-53.9 62.2-11.5 117.6 3.6 164.7 45.8 32.8 29.4 52.9 66.3 59.6 109.9 8.8 56.6-5.5 107.3-41.5 151.9-3.1 3.9-6.2 7.9-10.3 10.9-3.3-3.2-213.8-213.4-221.2-221.2-2.5-2.6-3.8-2.9-6.5-.1-31.2 31.4-62.4 62.7-93.8 93.9-1 1.2-2 2.4-2.9 3.6z"/><path d="m417 526.2c-13.9 5.4-28.4 9.1-43.1 11-38.4 4.9-75-1.2-109.6-18.5-32.4-16.2-58-39.8-77.2-70.5-1.6-2.6-1.9-4.1.6-6.5 23.4-23.2 46.8-46.6 70-70 2-2.1 3.1-2.1 5.1 0 50.6 50.8 101.3 101.5 152 152.1.6.7 1.2 1.3 2.2 2.4z"/></g></svg>