<svg enable-background="new 0 0 24 24" viewBox="0 0 24 24" xmlns="http://www.w3.org/2000/svg"><path d="m11.0818 1.6713c.505-.3251 1.3314-.3251 1.8364 0l.5208.3353c.505.3251 1.4076.5476 2.0059.4944l.617-.0548c.5982-.0532 1.3299.3309 1.626.8534l.3053.5389c.2961.5225.9919 1.139 1.5464 1.3699l.5718.2382c.5544.2309 1.0238.911 1.0432 1.5113l.0199.6191c.0193.6003.349 1.4695.7326 1.9317l.3956.4766c.3836.4621.4832 1.2825.2213 1.823l-.27.5574c-.2618.5405-.3739 1.4634-.249 2.0508l.1288.6058c.1249.5875-.1681 1.3601-.6512 1.717l-.4982.3681c-.483.3569-1.0111 1.122-1.1736 1.7002l-.1675.5963c-.1624.5782-.781 1.1262-1.3745 1.2177l-.6121.0944c-.5936.0915-1.4167.5236-1.8293.9601l-.4254.4502c-.4125.4365-1.2149.6343-1.783.4395l-.5859-.2009c-.5681-.1948-1.4978-.1948-2.0659 0l-.5859.2009c-.5681.1948-1.3705-.003-1.783-.4395l-.4256-.4503c-.4125-.4365-1.2357-.8685-1.8293-.9601l-.6121-.0944c-.5936-.0915-1.2121-.6395-1.3745-1.2177l-.1675-.5963c-.1624-.5782-.6905-1.3433-1.1736-1.7002l-.4982-.3681c-.483-.3569-.7761-1.1296-.6512-1.717l.1288-.6058c.1249-.5875.0128-1.5103-.249-2.0508l-.27-.5574c-.2618-.5405-.1622-1.3608.2213-1.823l.3956-.4767c.3836-.4621.7133-1.3314.7326-1.9317l.0199-.6191c.0193-.6003.4888-1.2804 1.0432-1.5113l.5718-.2382c.5544-.2309 1.2503-.8474 1.5464-1.3699l.3053-.5389c.2961-.5224 1.0278-.9065 1.626-.8533l.617.0548c.5982.0532 1.5009-.1693 2.0059-.4944z" fill="#3ddc84"/><g fill="none" stroke-miterlimit="10"><path d="m6.841 7.0861h2.7562v10.9198" stroke="#073042" stroke-width="2"/><path d="m12.3052 7.0861h3.6399l-1.82 3.6399c1.7157.251 3.0338 1.7242 3.0338 3.5096 0 1.9615-1.5901 3.5516-3.5516 3.5516-.4597 0-.899-.0873-1.3022-.2463" stroke="#073042" stroke-width="2"/><g stroke="#fff" stroke-width=".5"><path d="m6.841 7.0861h2.7562v10.9198"/><path d="m12.3052 7.0861h3.6399l-1.82 3.6399c1.7157.251 3.0338 1.7242 3.0338 3.5096 0 1.9615-1.5901 3.5516-3.5516 3.5516-.4597 0-.899-.0873-1.3022-.2463"/></g></g></svg>