<svg viewBox="0 0 456.56 460.37" xmlns="http://www.w3.org/2000/svg"><linearGradient id="a" gradientUnits="userSpaceOnUse" x1="228.28" x2="228.28" y1="-2.1" y2="326.51"><stop offset="0" stop-color="#073042"/><stop offset="1" stop-color="#073042"/></linearGradient><clipPath id="b"><circle cx="228.28" cy="232.09" r="200"/></clipPath><circle cx="228.28" cy="232.09" fill="url(#a)" r="200"/><g clip-path="url(#b)"><path d="m167.55 163.73 2.25-6.69c13.91 78.13 50.84 284.38 50.84 50.33 0-.97.72-1.81 1.61-1.81h12.7c.9 0 1.62.83 1.62 1.8-.2 409.91-69.03-43.64-69.03-43.64z" fill="#3ddc84"/><path d="m131.06 156.76-33.17 57.45c-1.9 3.3-.77 7.52 2.53 9.42s7.52.77 9.42-2.53l33.59-58.17c54.27 24.33 116.34 24.33 170.61 0l33.59 58.17c1.97 3.26 6.21 4.3 9.47 2.33 3.17-1.92 4.26-5.99 2.47-9.23l-33.16-57.45c56.95-30.97 95.91-88.64 101.61-156.76h-398.57c5.7 68.12 44.66 125.79 101.61 156.76z" fill="#fff"/><rect fill="#3ddc84" height="32.32" rx="2.13" width="16.16" x="220.42" y="163.74"/><rect fill="#3ddc84" height="8.08" rx="1.98" width="16.16" x="220.42" y="146.37"/><g fill="#fff"><path d="m144.2 192.91h4.04v4.04h-4.04z"/><path d="m161.08 251.81h4.04v4.04h-4.04z"/><path d="m341.32 313.72h4.04v4.04h-4.04z"/><path d="m258.21 228.31h4.04v4.04h-4.04z"/><path d="m291.24 194.93h4.04v4.04h-4.04z"/><path d="m266.34 264.64h4.04v4.04h-4.04z"/><path d="m303.1 249.4h8.08v8.08h-8.08z"/><path d="m161.08 275.03h4.04v4.04h-4.04z"/><path d="m192.42 215.03h8.08v8.08h-8.08z"/><path d="m244.38 294.99h8.08v8.08h-8.08z"/><path d="m265.62 325.33h8.08v8.08h-8.08z"/><path d="m133.33 230.33h8.08v8.08h-8.08z"/><path d="m351.2 168.09h8.08v8.08h-8.08z"/><path d="m110.15 299.79h8.08v8.08h-8.08z"/></g></g><circle cx="228.28" cy="232.09" fill="none" r="200" stroke="#f86734" stroke-miterlimit="10" stroke-width="56.56"/><path d="m228.5 102.65c-6.69 0-12.12 5.27-12.12 11.77v14.52c0 1.26 1.02 2.27 2.27 2.27 1.26 0 2.27-1.02 2.27-2.27v-3.91c0-2.51 2.03-4.55 4.55-4.55h6.06c2.51 0 4.55 2.03 4.55 4.55v3.91c0 1.26 1.02 2.27 2.27 2.27s2.27-1.02 2.27-2.27v-14.52c0-6.5-5.43-11.77-12.12-11.77z" fill="#3ddc84"/><g fill="#fff"><path d="m65.62 92.45 3.85-4.36 29.64 9.76-4.44 5.03-6.23-2.1-7.86 8.91 2.86 5.92-4.43 5.03-13.39-28.18zm17.09 6.4-8.86-3.02 4.11 8.42 4.76-5.39z"/><path d="m125.9 76.94-21.71-6.2 10.38 14.38-5.21 3.76-16.78-23.26 4.49-3.24 21.65 6.19-10.35-14.35 5.24-3.78 16.78 23.26z"/><path d="m133.75 39.23 8.99-3.84c7.43-3.18 15.96.12 19.09 7.44s-.38 15.76-7.81 18.94l-8.99 3.84zm17.95 17.11c4.46-1.91 5.96-6.72 4.15-10.96s-6.33-6.48-10.79-4.57l-3.08 1.32 6.64 15.53z"/><path d="m176.51 23.66 11.1-2.2c5.31-1.05 9.47 2.08 10.4 6.75.72 3.65-.76 6.37-4.07 8.34l12.4 10.44-7.57 1.5-11.65-9.76-1.03.2 2.3 11.61-6.3 1.25-5.57-28.14zm12.55 9.13c1.86-.37 3-1.71 2.68-3.33-.34-1.7-1.88-2.43-3.74-2.06l-4.04.8 1.07 5.39 4.04-.8z"/><path d="m216.58 31.68c.13-8.16 6.87-14.72 15.06-14.58 8.16.13 14.71 6.9 14.58 15.06s-6.91 14.71-15.06 14.58c-8.2-.13-14.71-6.9-14.58-15.06zm23.14.38c.08-4.64-3.54-8.66-8.18-8.74-4.69-.08-8.42 3.82-8.5 8.47s3.54 8.66 8.22 8.74c4.64.08 8.38-3.82 8.46-8.47z"/><path d="m266.67 20.92 6.31 1.23-5.49 28.16-6.31-1.23z"/><path d="m294.22 27.5 9.13 3.48c7.55 2.88 11.39 11.17 8.56 18.61s-11.22 11.07-18.77 8.19l-9.14-3.48zm1.02 24.77c4.53 1.73 8.96-.69 10.6-5 1.64-4.3-.05-9.05-4.58-10.78l-3.13-1.19-6.01 15.78 3.13 1.19z"/><path d="m353.69 65.32-4.21-3.21 3.65-4.79 9.06 6.91-17.4 22.8-4.85-3.7 13.75-18.02z"/><path d="m370.24 102.46-9.56-10.26 3.61-3.36 22.8-1.25 3.75 4.02-12.35 11.51 2.51 2.69-4.08 3.8-2.51-2.69-4.55 4.24-4.16-4.46 4.55-4.24zm9.87-9.2-10.28.58 4.49 4.82z"/></g></svg>
