<svg fill="none" height="512" viewBox="0 0 512 512" width="512" xmlns="http://www.w3.org/2000/svg">
    <mask id="a" height="365" maskUnits="userSpaceOnUse" width="400" x="56" y="82">
        <path d="m256.001 446.355c-26.375 0-43.811-18.296-61.202-48.418s-103.2634-178.857-120.6544-208.979-24.518-54.37-11.331-77.211 37.7504-28.793 72.5324-28.793h241.308c34.782 0 59.345 5.952 72.532 28.793s6.06 47.089-11.331 77.211-103.263 178.857-120.654 208.979-34.827 48.418-61.201 48.418z"
              fill="#fff"/>
    </mask>
    <path d="m256.001 446.355c-26.375 0-43.811-18.296-61.202-48.418s-103.2634-178.857-120.6544-208.979-24.518-54.37-11.331-77.211 37.7504-28.793 72.5324-28.793h241.308c34.782 0 59.345 5.952 72.532 28.793s6.06 47.089-11.331 77.211-103.263 178.857-120.654 208.979-34.827 48.418-61.201 48.418z"
          fill="#202124"/>
    <g mask="url(#a)">
        <path d="m344.016 285.041c-57.687-22.876-81.835-97.559-85.016-132.041h-3v246l193-78.636c-10.958-2.243-47.296-12.447-104.984-35.323z"
              fill="#c6ff00"/>
        <path d="m167.984 285.041c57.687-22.876 81.835-97.559 85.016-132.041h3v246l-193-78.636c10.9579-2.243 47.296-12.447 104.984-35.323z"
              fill="#c6ff00"/>
        <g fill="#fff">
            <path d="m297.5 284.816c-27.2-22.837-37-97.393-38.5-131.816h-3v245.58l91-78.502c-5.167-2.238-22.3-12.425-49.5-35.262z"/>
            <path d="m214.5 284.816c27.2-22.837 37-97.393 38.5-131.816h3v245.58l-91-78.502c5.167-2.238 22.3-12.425 49.5-35.262z"/>
            <circle cx="256" cy="153" r="3"/>
        </g>
        <path d="m151 350h199v104h-199z" fill="#5f6368"/>
        <path d="m358.423 350.438c-.067-.422-.13-.838-.201-1.257-.425-2.585-.955-5.139-1.572-7.66-1.079-4.405-2.437-8.702-4.059-12.865-1.371-3.526-2.93-6.956-4.663-10.28-2.229-4.268-4.743-8.366-7.519-12.263-3.402-4.775-7.2-9.249-11.35-13.372-1.743-1.732-3.544-3.404-5.407-5.006-4.03-3.479-8.337-6.648-12.872-9.48.04-.065.073-.136.114-.201 2.078-3.591 4.16-7.176 6.238-10.766 2.034-3.505 4.066-7.01 6.097-10.515 1.462-2.516 2.923-5.037 4.378-7.553.345-.597.617-1.215.821-1.847.57-1.763.594-3.616.138-5.339-.117-.426-.255-.843-.426-1.25s-.372-.803-.6-1.185c-.778-1.306-1.887-2.44-3.282-3.269-1.234-.733-2.615-1.17-4.029-1.296-.594-.05-1.19-.045-1.784.015-.489.05-.975.141-1.457.267-1.724.457-3.319 1.401-4.563 2.766-.446.493-.848 1.035-1.196 1.632-1.458 2.515-2.92 5.036-4.375 7.552l-6.097 10.515c-2.079 3.59-4.161 7.176-6.239 10.766-.228.392-.459.783-.683 1.18-.316-.126-.627-.251-.943-.371-11.461-4.369-23.891-6.759-36.885-6.759-.357 0-.708 0-1.064.004-11.554.116-22.655 2.125-33.009 5.73-1.2.417-2.384.859-3.559 1.321-.21-.367-.426-.734-.637-1.1-2.078-3.591-4.161-7.176-6.238-10.766-2.033-3.505-4.066-7.01-6.098-10.515-1.461-2.516-2.921-5.037-4.377-7.552-.346-.598-.747-1.14-1.195-1.632-1.245-1.366-2.84-2.31-4.562-2.767-.482-.125-.969-.216-1.46-.266-.592-.06-1.19-.065-1.782-.015-1.415.121-2.796.558-4.03 1.296-1.396.829-2.499 1.963-3.283 3.269-.226.381-.426.778-.597 1.185-.17.407-.316.824-.426 1.25-.457 1.723-.432 3.576.135 5.339.206.632.477 1.25.824 1.847 1.46 2.516 2.921 5.037 4.376 7.553 2.033 3.505 4.065 7.01 6.098 10.514 2.078 3.591 4.161 7.176 6.238 10.767.015.03.036.06.051.09-4.191 2.607-8.182 5.494-11.945 8.652-2.254 1.893-4.427 3.877-6.51 5.95-4.145 4.123-7.945 8.597-11.353 13.372-2.78 3.897-5.295 7.989-7.518 12.263-1.731 3.324-3.292 6.754-4.663 10.28-1.621 4.163-2.981 8.461-4.06 12.865-.617 2.521-1.139 5.068-1.571 7.66-.07.419-.136.841-.201 1.257-.23 1.502-.426 3.014-.592 4.536h206.001c-.164-1.522-.362-3.034-.593-4.536z"
              fill="#5f6368"/>
    </g>
    <g fill="#fff">
        <path d="m131.04 134.343h-4.04v4.04h4.04z"/>
        <path d="m167.04 256h-4.04v4.04h4.04z"/>
        <path d="m373.487 127h-4.04v4.04h4.04z"/>
        <path d="m292.04 226h-4.04v4.04h4.04z"/>
        <path d="m319.039 186.91h-4.04v4.04h4.04z"/>
        <path d="m355.04 222h-4.04v4.04h4.04z"/>
        <path d="m192.04 136h-4.04v4.04h4.04z"/>
        <path d="m336.08 196h-8.08v8.08h8.08z"/>
        <path d="m222.04 212h-4.04v4.04h4.04z"/>
        <path d="m163.08 175h-8.08v8.08h8.08z"/>
        <path d="m211.08 143h-8.08v8.08h8.08z"/>
        <path d="m369.08 204h-8.08v8.08h8.08z"/>
        <path d="m169.211 204.343h-8.08v8.08h8.08z"/>
        <path d="m383.035 160.067h-8.08v8.08h8.08z"/>
        <path d="m192.08 183h-8.08v8.08h8.08z"/>
    </g>
    <path d="m256.001 446.355c-26.375 0-43.811-18.296-61.202-48.418s-103.2634-178.857-120.6544-208.979-24.518-54.37-11.331-77.211 37.7504-28.793 72.5324-28.793h241.308c34.782 0 59.345 5.952 72.532 28.793s6.06 47.089-11.331 77.211-103.263 178.857-120.654 208.979-34.827 48.418-61.201 48.418z"
          stroke="#34a853" stroke-miterlimit="10" stroke-width="55"/>
    <path d="m170.11 91.706c.864 2.196 1.296 3.294 1.296 3.294s-1.038 0-3.114 0-3.114 0-3.114 0-.252-.726-.756-2.178l-4.716-13.194-.882-2.88h-.216l-.792 2.88-4.536 13.194c-.456 1.452-.684 2.178-.684 2.178s-1.056 0-3.168 0c-2.1 0-3.15 0-3.15 0s.426-1.11 1.278-3.33l7.65-19.8c.684-1.8 1.026-2.7 1.026-2.7h2.484 2.7s.348.9 1.044 2.7zm-4.068-1.584h-7.398v-4.212h5.778zm-7.398 0h-7.56l1.548-4.212h6.012zm45.202 2.34v2.538s-.9 0-2.7 0c-1.764 0-2.646 0-2.646 0s-.474-.738-1.422-2.214l-9-14.04h-.198l.126 3.708v9.792 2.754s-.972 0-2.916 0-2.916 0-2.916 0 0-.918 0-2.754l-.018-19.35c0-2.448 0-3.672 0-3.672h3.096 2.988s.462.732 1.386 2.196l8.532 13.428h.198l-.144-3.762v-9.198c0-1.776 0-2.664 0-2.664h2.826 2.808v2.664zm22.676 2.538h-6.354c-1.932 0-2.898 0-2.898 0s0-.984 0-2.952v-19.854c0-1.98 0-2.97 0-2.97h2.898 6.354c3.936 0 7.104 1.182 9.504 3.546 2.4 2.352 3.6 5.46 3.6 9.324 0 3.888-1.2 7.014-3.6 9.378-2.4 2.352-5.568 3.528-9.504 3.528zm-3.348-20.358v15.102h3.006c2.28.024 4.092-.63 5.436-1.962 1.344-1.344 2.016-3.216 2.016-5.616 0-2.388-.672-4.236-2.016-5.544-1.332-1.32-3.144-1.98-5.436-1.98zm34.338 17.586v2.772s-.972 0-2.916 0c-1.932 0-2.898 0-2.898 0s0-.912 0-2.736v-20.07c0-1.98 0-2.97 0-2.97h2.898 7.29c2.556 0 4.71.756 6.462 2.268s2.628 3.534 2.628 6.066c0 2.34-.834 4.272-2.502 5.796-1.668 1.512-3.822 2.268-6.462 2.268h-7.992v-4.212h7.308c1.068 0 1.962-.33 2.682-.99.72-.672 1.08-1.542 1.08-2.61 0-.972-.348-1.782-1.044-2.43-.696-.66-1.554-.99-2.574-.99h-3.96zm7.254.594-6.102-9.36 6.138-.216 6.426 9.378c1.14 1.584 1.71 2.376 1.71 2.376s-1.122 0-3.366 0c-2.268 0-3.402 0-3.402 0s-.468-.726-1.404-2.178zm31.276 2.754c-3.708 0-6.882-1.242-9.522-3.726-2.628-2.484-3.942-5.736-3.942-9.756s1.32-7.266 3.96-9.738c2.652-2.472 5.82-3.708 9.504-3.708 3.672 0 6.828 1.254 9.468 3.762 2.652 2.496 3.978 5.724 3.978 9.684 0 3.936-1.32 7.17-3.96 9.702-2.628 2.52-5.79 3.78-9.486 3.78zm0-5.742c2.148 0 3.936-.732 5.364-2.196 1.44-1.464 2.16-3.312 2.16-5.544 0-2.256-.726-4.104-2.178-5.544-1.44-1.44-3.222-2.16-5.346-2.16s-3.912.726-5.364 2.178c-1.44 1.44-2.16 3.282-2.16 5.526 0 2.256.714 4.11 2.142 5.562 1.44 1.452 3.234 2.178 5.382 2.178zm31.597 2.214v2.952s-1.008 0-3.024 0c-2.028 0-3.042 0-3.042 0s0-.984 0-2.952v-19.872c0-1.968 0-2.952 0-2.952h3.024 3.042v2.952zm22.673 2.952h-6.354c-1.932 0-2.898 0-2.898 0s0-.984 0-2.952v-19.854c0-1.98 0-2.97 0-2.97h2.898 6.354c3.936 0 7.104 1.182 9.504 3.546 2.4 2.352 3.6 5.46 3.6 9.324 0 3.888-1.2 7.014-3.6 9.378-2.4 2.352-5.568 3.528-9.504 3.528zm-3.348-20.358v15.102h3.006c2.28.024 4.092-.63 5.436-1.962 1.344-1.344 2.016-3.216 2.016-5.616 0-2.388-.672-4.236-2.016-5.544-1.332-1.32-3.144-1.98-5.436-1.98z"
          fill="#e9f3eb"/>
    <path d="m236.586 363.25v3.75s-1.266 0-3.8 0c-2.466 0-3.7 0-3.7 0s0-1.25 0-3.75v-57.4l-12.45 8.9c-1.633 1.167-2.45 1.75-2.45 1.75s-.65-1-1.95-3c-1.266-1.9-1.9-2.85-1.9-2.85 0-.033.867-.667 2.6-1.9l14.7-10.55c2.667-1.967 4-2.95 4-2.95h1.4 3.55v3.65zm10.502-33.25 4.1-31c.333-2.4.5-3.6.5-3.6h3.25 29.6 3.65v3.55 3.8s-1.217 0-3.65 0h-27.05l-3.3 24.7.2.05c1.7-1.733 3.883-3.117 6.55-4.15 2.667-1.067 5.717-1.6 9.15-1.6 6.467 0 11.9 2.217 16.3 6.65 4.4 4.4 6.6 9.917 6.6 16.55 0 6.8-2.183 12.45-6.55 16.95-4.333 4.467-10.017 6.7-17.05 6.7-6.3 0-11.617-1.6-15.95-4.8s-7.183-6.95-8.55-11.25c-.633-2.233-.95-3.35-.95-3.35s1.15-.433 3.45-1.3c2.4-.9 3.6-1.35 3.6-1.35s.317 1.183.95 3.55c.867 2.633 2.767 5.167 5.7 7.6 2.967 2.433 6.8 3.65 11.5 3.65 5.133 0 9.1-1.467 11.9-4.4 2.8-2.967 4.2-6.917 4.2-11.85 0-4.733-1.567-8.583-4.7-11.55-3.1-2.967-7.133-4.45-12.1-4.45-2.967 0-5.483.417-7.55 1.25-2.067.8-3.8 1.933-5.2 3.4-1.3 1.5-1.95 2.25-1.95 2.25s-1.183-.483-3.55-1.45c-2.333-.933-3.5-1.4-3.5-1.4s.133-1.05.4-3.15z"
          fill="#e9f3eb"/>
    <path d="m256.12 121c-6.694 0-12.12 5.27-12.12 11.771v14.519c0 1.255 1.017 2.273 2.273 2.273 1.255 0 2.273-1.017 2.273-2.273v-3.914c0-2.51 2.035-4.545 4.545-4.545h6.06c2.51 0 4.545 2.035 4.545 4.545v3.914c0 1.255 1.017 2.273 2.273 2.273s2.273-1.017 2.273-2.273v-14.519c0-6.501-5.426-11.771-12.12-11.771z"
          fill="#e9f3eb"/>
</svg>
