<svg viewBox="0 0 631.48 523.64" xmlns="http://www.w3.org/2000/svg" xmlns:xlink="http://www.w3.org/1999/xlink"><filter id="a" filterUnits="userSpaceOnUse"><feOffset dx="0" dy="0"/><feGaussianBlur result="c" stdDeviation="4"/><feFlood flood-color="#00baed"/><feComposite in2="c" operator="in"/><feComposite in="SourceGraphic"/></filter><filter id="b" filterUnits="userSpaceOnUse"><feOffset dx="0" dy="0"/><feGaussianBlur result="e" stdDeviation="4"/><feFlood flood-color="#00baed"/><feComposite in2="e" operator="in"/><feComposite in="SourceGraphic"/></filter><filter id="c" filterUnits="userSpaceOnUse"><feOffset dx="0" dy="0"/><feGaussianBlur result="g" stdDeviation="4"/><feFlood flood-color="#00baed"/><feComposite in2="g" operator="in"/><feComposite in="SourceGraphic"/></filter><filter id="d" filterUnits="userSpaceOnUse"><feOffset dx="0" dy="0"/><feGaussianBlur result="i" stdDeviation="4"/><feFlood flood-color="#00baed"/><feComposite in2="i" operator="in"/><feComposite in="SourceGraphic"/></filter><linearGradient id="e" gradientUnits="userSpaceOnUse" x1="299.73" x2="330.73" y1="463.96" y2="463.96"><stop offset="0" stop-color="#00baed"/><stop offset=".5" stop-color="#006aa7"/><stop offset="1" stop-color="#00baed"/></linearGradient><filter id="f" filterUnits="userSpaceOnUse"><feOffset dx="0" dy="0"/><feGaussianBlur result="l" stdDeviation="4"/><feFlood flood-color="#00baed"/><feComposite in2="l" operator="in"/><feComposite in="SourceGraphic"/></filter><filter id="g" filterUnits="userSpaceOnUse"><feOffset dx="0" dy="0"/><feGaussianBlur result="n" stdDeviation="4"/><feFlood flood-color="#00baed"/><feComposite in2="n" operator="in"/><feComposite in="SourceGraphic"/></filter><filter id="h" filterUnits="userSpaceOnUse"><feOffset dx="0" dy="0"/><feGaussianBlur result="p" stdDeviation="4"/><feFlood flood-color="#00baed"/><feComposite in2="p" operator="in"/><feComposite in="SourceGraphic"/></filter><filter id="i" filterUnits="userSpaceOnUse"><feOffset dx="0" dy="0"/><feGaussianBlur result="r" stdDeviation="6"/><feFlood flood-color="#00baed"/><feComposite in2="r" operator="in"/><feComposite in="SourceGraphic"/></filter><filter id="j" filterUnits="userSpaceOnUse"><feOffset dx="0" dy="0"/><feGaussianBlur result="t" stdDeviation="6"/><feFlood flood-color="#00baed"/><feComposite in2="t" operator="in"/><feComposite in="SourceGraphic"/></filter><filter id="k" filterUnits="userSpaceOnUse"><feOffset dx="0" dy="0"/><feGaussianBlur result="v" stdDeviation="4"/><feFlood flood-color="#00baed"/><feComposite in2="v" operator="in"/><feComposite in="SourceGraphic"/></filter><linearGradient id="l" gradientUnits="userSpaceOnUse" x1="202.87" x2="428.58" y1="164.26" y2="164.26"><stop offset="0" stop-color="#00baed"/><stop offset=".02" stop-color="#00ade0"/><stop offset=".07" stop-color="#008dc1"/><stop offset=".13" stop-color="#0073a7"/><stop offset=".19" stop-color="#005f93"/><stop offset=".27" stop-color="#005085"/><stop offset=".35" stop-color="#00487d"/><stop offset=".5" stop-color="#00467b"/><stop offset=".65" stop-color="#00487d"/><stop offset=".73" stop-color="#005085"/><stop offset=".81" stop-color="#005f93"/><stop offset=".87" stop-color="#0073a7"/><stop offset=".93" stop-color="#008dc1"/><stop offset=".98" stop-color="#00ade0"/><stop offset="1" stop-color="#00baed"/></linearGradient><linearGradient id="m" x2="428.58" xlink:href="#l" y1="348.85" y2="348.85"/><linearGradient id="n" xlink:href="#l" y1="256.55" y2="256.55"/><filter id="o" filterUnits="userSpaceOnUse"><feOffset dx="0" dy="0"/><feGaussianBlur result="ac" stdDeviation="4"/><feFlood flood-color="#00baed"/><feComposite in2="ac" operator="in"/><feComposite in="SourceGraphic"/></filter><g fill="#584dd4"><path d="m202.87 141.18-94.16 94.16c-13 13-13 34.08 0 47.08s34.08 13 47.08 0l94.16-94.15c13-13 13-34.08 0-47.08" opacity=".25"/><path d="m244.04 141.46h-185.23c-25.57 0-46.31 20.73-46.31 46.31 0 25.57 20.74 46.31 46.31 46.31h185.23c25.57 0 46.31-20.73 46.3-46.31" opacity=".25"/><path d="m381.51 141.18c-13 13-13 34.08 0 47.08l94.16 94.15c13 13 34.08 13 47.08 0s13-34.08 0-47.08l-94.16-94.16" opacity=".25"/><path d="m341.1 187.77c0 25.57 20.73 46.31 46.3 46.31h185.23c25.57 0 46.31-20.73 46.31-46.31 0-25.57-20.74-46.31-46.31-46.31h-185.23" opacity=".25"/></g><g fill="none" stroke="#58baed"><path d="m202.87 141.18-94.16 94.16c-13 13-13 34.08 0 47.08s34.08 13 47.08 0l94.16-94.15c13-13 13-34.08 0-47.08" filter="url(#a)"/><path d="m244.04 141.46h-185.23c-25.57 0-46.31 20.73-46.31 46.31 0 25.57 20.74 46.31 46.31 46.31h185.23c25.57 0 46.31-20.73 46.3-46.31" filter="url(#b)"/><path d="m381.51 141.18c-13 13-13 34.08 0 47.08l94.16 94.15c13 13 34.08 13 47.08 0s13-34.08 0-47.08l-94.16-94.16" filter="url(#c)"/><path d="m341.1 187.77c0 25.57 20.73 46.31 46.3 46.31h185.23c25.57 0 46.31-20.73 46.31-46.31 0-25.57-20.74-46.31-46.31-46.31h-185.23" filter="url(#d)"/></g><path d="m296.58 416.36c19.25 35.45 19.15 95.2 19.15 95.2s-.1-59.75 19.15-95.2h-38.29z" fill="url(#e)" filter="url(#f)"/><path d="m428.52 327.08c.02-.41.06-.81.06-1.23v-184.67h-225.72v184.67c0 .42.04.82.06 1.23-.04.92-.06 1.85-.06 2.78v.06c0 15.12 4.46 29.4 12.34 42 18.69 29.87 56.69 50.31 100.52 50.31s81.83-20.45 100.52-50.31c7.89-12.61 12.34-26.89 12.34-42.03 0-.94-.03-1.88-.06-2.82z" filter="url(#g)" stroke="#58baed" stroke-width="3"/><path d="m371.34 50.58 20-29.99c1.4-2.1.83-4.93-1.26-6.32-2.1-1.4-4.93-.83-6.34 1.26l-20.51 30.78c-.15.23-.19.49-.3.74-14.36-5.42-30.34-8.47-47.2-8.47s-32.84 3.05-47.2 8.47c-.11-.24-.15-.51-.3-.74l-20.52-30.78c-1.4-2.1-4.23-2.66-6.33-1.26-2.09 1.39-2.66 4.22-1.27 6.32l20 29.99c-34.17 15.87-57.24 45.89-57.24 80.34h225.72c0-34.45-23.08-64.47-57.24-80.34z" filter="url(#h)" stroke="#58baed" stroke-width="3"/><path d="m266.93 98.5c-6.8 0-12.31-5.52-12.31-12.31s5.51-12.31 12.31-12.31 12.31 5.52 12.31 12.31-5.51 12.31-12.31 12.31z" fill="#80ccff" filter="url(#i)"/><path d="m364.52 98.5c-6.8 0-12.31-5.52-12.31-12.31s5.51-12.31 12.31-12.31 12.31 5.52 12.31 12.31-5.52 12.31-12.31 12.31z" fill="#80ccff" filter="url(#j)"/><g filter="url(#k)"><path d="m202.87 141.18h225.72v46.15h-225.72z" fill="url(#l)"/><path d="m202.87 325.86c0 .42.04.82.06 1.23-.04.92-.06 1.85-.06 2.78v.06c0 15.12 4.46 29.4 12.34 42h201.04c7.89-12.61 12.34-26.89 12.34-42.03 0-.94-.03-1.88-.06-2.82.02-.41.06-.81.06-1.23v-.08h-225.72v.08z" fill="url(#m)"/><path d="m202.87 233.48h225.72v46.15h-225.72z" fill="url(#n)"/></g><path d="m202.87 329.9s0 .02 0 .03v-.06s0 .02 0 .03z" fill="#96bf3d" filter="url(#o)"/></svg>