<svg height="724" viewBox="0 0 971 724" width="971" xmlns="http://www.w3.org/2000/svg">
    <g transform="matrix(.13333333 0 0 -.13333333 0 724)">
        <path d="m1526.27 4173.25c-188.55 139.58-156.98 148.05-311.01 329.25-62.4 75-123 87.11-179.26 149.13-45.09 49.71-123.34 111.51-213.516 55.84-56.613-40.85-74.804-129.95-107.941-216.46-36.367-115.59 124.875-316.18 201.762-417.84 55.144-72.92 133.805-132.62 189.035-202.2-648.926-569.43-1066.4884-1036.74-1102.47672-2135.86 8.71092-684.09 329.43372-1206.442 846.51972-1517.09 398.777-219.25828 881.077-253.852 1331.727-170.3598 295.53 54.7538 587.37 91.7848 846.55 200.3198 57.36 24.024 131.05 43.461 194.57 53.512 117.72 21.817 116.18 36.738 212.12 57.137 116.55 25.832 879.07-11.574 1029.3-31.52 199.65-29.972 911.6-51.371 1064.23-.855 287.16 105.144 358.03-19.25 803.16 301.336 292.01 243.488 643.86 492.32 761.25 865.18 48.59 154.37 130.83 270.43 156.51 425.38 79.73 480.85-20.57 954.08-236.78 1384.39-258.94 515.32-648.71 808.94-1123.85 1099.31 19.92 179.75 151.05 455.31 114.5 879.19-98.38 221.47-401.13 149.61-442.04 51.95-29.23-119.54-58.47-239.07-87.7-358.61-32.42-118.02-77.24-234.96-123.23-346.56-668.4 203.84-1581.62 255.09-2413.53 72.5-459.94-100.96-1000.21-284.98-1409.9-527.07"
              fill="#231f20"/>
        <path d="m1264.33 4139.61c-17.75 50.48-64.22 151.85-92.54 205.18-40.61 78.65-96.21 136.6-131.34 150.78-20.77 8.4-36.85-6.34-72.434 4.94-26.758 11.99-51.848 20.87-78.243-7.2-77.14-90.88 207.327-436.67 230.067-454.38 50.25-53.54 77.7-109.82 159.72-75.32 87.39 65.25 6.65 102.02-15.23 176zm4172.93 304.49c-43.03-116.21-86.84-234.9-181.53-199.1-100.37 55.93-14.93 152.45 9.58 229.93-294.98 221.43-1758.65 192.52-2150.39 105.48-635.87-141.27-1250.67-351.47-1726.44-674.76-504.71-342.96-843.57-747.78-1093.562-1307.56-156.02-349.37-251.3516-1169.84 6.418-1498.6 109.387-127.9 133.531-258.209 250.527-344.861 125.875-255.887 548.497-407.066 798.567-459.172 241.69-63.039 790.88-85.039 1226.75-27.883 164.55 25.821 389.59 149.461 564.48 192.899 43.29 7.16 43.75 17.082 41.45 27.925-140.59 36.192-432.41-18.543-458.86 54.942-24.67 72.406 144.58 100.609 222.31 115.269 357.69 67.457 601.49-9.886 1010.01-10.75 204.23.586 1231.36-98.562 1291.82-94.847 33.05.074 40.31 17.644 69.66 19.562 702.32 20.563 827.13 59.336 1258.39 509.336 140.32 146.43 245.68 222.38 345.83 451.48 245.14 560.74 192.04 1495.52-255.22 2005.41-225.72 269.7-728.68 787.57-1093.55 786.01 2.35 4.74 17.54 27.03 19.77 31.87 52.44 113.89 164.64 434.19 187.4 576.68 14.51 90.84 27.05 37.67 45.24-13.11 26.93 118.33 59.11 259.99-68.31 293.01-7.11 19.47-28.84 91.67-61.55 11.65-77.71-199.71-212.86-607.31-258.79-780.81"
              fill="#f00"/>
        <path d="m3736.46 1690.27c410.25 260.85 168.95 458.84 34.46 274.78-71.74-98.2-91.3-142.81-229.55-175.41-465.99-109.64-412.55 236.48-592.18 171.32-209.07-115.67 296.11-550.48 787.27-270.69zm-1801.05 936.55c114.99-41.24 260.23 303.45 396.1 312.64 81.52 15.06 324.4-163.45 401.86-96.72 113.29 164.94-411.88 485.79-713.33 121.89-77.58-93.66-219.86-249.75-84.63-337.81zm2155.19 401.08c96.21-100.68 173.63 80.37 278.68 122.21 108.3 26.73 330.41-171.92 391.21-125.31 126.21 121.88-176.23 323.8-305.12 341.75-158.85 23.5-458.81-175.45-364.77-338.65"
              fill="#231f20"/>
        <path d="m6663.76 1288c103.56-29.45 295.83 421.09 312.36 536.34 34.19 182.73 72.53 518.73 38.59 806.42-32.62-338.89-37.51-775.99-198.23-1075.66-45.31-84.49-136.13-194-152.72-267.1zm-3604.15 3112.23c-529.2-149.44-933.36-341.99-1354.35-708.55-168.76-166.23-524.45-412.57-355.91-586.8 149.9-149.77 465.2 121.32 668.79 247.64 522.07 323.91 871.91 437.59 1463.75 585.4 107.7 26.9 453.43 76.85 490.79 268.96 66.23 380.64-707.01 251.53-913.07 193.35"
              fill="#ff8080"/>
        <path d="m551.863 754.629c116.16-244.399 548.817-418.039 810.307-469.527 406.81-74.11 812.3-58.997 1180.51-24.036 114.15 9.973-62.2 25.676-83.04 26.379 110 74.391 520.82 251.508 684.09 195.356 19.11-7.34 33.39-.18 39.38 5.597-151.65 66.805-446.91-21.066-450.11 67.836 8.47 75.172 158.62 71.145 236.35 85.801 357.69 67.461 579.38-2.289 987.91-3.152 161.88-.336 1256.91-106.621 1311.38-94.156 16.47 9.285 32.94 18.562 49.41 27.847-80.28-12.394-170.21-20.636-166.86 21.078 12.4 54.676 52.38 59.75 211.57 87.883 436.06 79.731 606.76 128.942 1021.94 511.605 366.84 356.69 523.9 872.48 476.28 1339.17-42.22 395.65-139.53 633.2-221.82 999.86-8.83 22.24-23.77 32.35 2.24 37.29-336.18 401.68-392.93 481.7-887.45 728.57-10.65-35.48-18.29-70.45-51.09-40.11-61.71 90.16 87.96 432.52 123.05 662.33-5.36 14.97-10.71 29.93-16.07 44.9-10.4 25.17-19.34 29.8-29.17-31.79-22.76-142.49-134.96-462.79-187.4-576.68-37.85-82.21-97.96-149.81-17.25-244.98 200.13 26.18 113.64-49.78 237.6 69.45 722.57-712.58 496.86-2420.58-812.66-2786.26-1118.07-297.56-1609.31-45.05-1942.32-119.22-220.04-49.01-376.48-238.5-561.05-364.756-602.87-412.469-1438.53-480.848-1945.727-156.285zm423.352 3743.871c25.685-71.01 6.055-98.54 101.975-237.95 51.49-66.65 98.84-158.86 154.47-199.96 41.57-21.64 28.25 48.86 31.86 81.32-18.32 51.21-63.83 150.35-91.73 202.88-40.61 78.65-96.21 136.6-131.34 150.78-19.32 7.81-34.57-4.39-65.235 2.93"
              fill="#800000"/>
        <path d="m5442.72 4464.28 5.83-102.56c46.79-11.97 162.84 479.03 237.74 622.65 34.41 65.99 72.34 136.26 71.31 228.89-7.11 19.47-28.84 91.67-61.55 11.65-74.84-192.34-202.94-577.46-253.33-760.63zm-3676.72-987.68c55.5-47.34 161.58 25.16 228.24 60.33 218.2 115.15 413.51 255.29 616.37 353.27 383.58 183.76 882.54 224.33 881.06 405.2-11.8 91.74-351.45 8.38-536.16-28.59-292.18-62.53-682.3-277.4-889.17-435.24-120.06-91.27-366.96-281.16-300.34-354.97zm-861.285 1006.31c-20.184-33.19 37.445-159.7 59.176-140.93 15.793 47.9-23.512 175.68-59.176 140.93"
              fill="#fff"/>
    </g>
</svg>
