<svg viewBox="0 0 48 48" xmlns="http://www.w3.org/2000/svg"><path d="m24 0c-13.25 0-24 10.75-24 24 0 6.63 2.69 12.63 7.03 16.97l33.94-33.94c-4.34-4.34-10.34-7.03-16.97-7.03z" fill="#e1bee7"/><path d="m40.97 7.03-33.94 33.94c4.34 4.34 10.34 7.03 16.97 7.03 13.25 0 24-10.75 24-24 0-6.63-2.69-12.63-7.03-16.97z" fill="#f3e5f5"/><path d="m47.9 26.09-12.99-12.99-21.82 21.82 12.99 12.99c11.59-1 20.82-10.23 21.82-21.82z" fill="#f2daf5"/><path d="m34.86 13.2c-.79-.79-4.24-2.38-10.86-2.38s-10.06 1.59-10.86 2.38c-.79.79-2.38 4.24-2.38 10.86s1.59 10.06 2.38 10.86c.79.79 4.24 2.38 10.86 2.38s10.06-1.59 10.86-2.38c.79-.79 2.38-4.24 2.38-10.86s-1.59-10.06-2.38-10.86z" fill="#fff"/><path d="m34.68 13.66c0 .78-1.2 1.49-3.13 2.01s-4.6.83-7.55.83-5.62-.32-7.55-.83-3.13-1.22-3.13-2.01 1.2-1.49 3.13-2.01 4.6-.83 7.55-.83 5.62.32 7.55.83 3.13 1.22 3.13 2.01z" fill="#ebebeb"/><g fill="#fff"><path d="m30 12.97c-.06 0-.13 0-.2-.02-.44-.11-.72-.56-.61-1l1.34-5.46c.11-.44.55-.72 1-.61.44.11.72.56.61 1l-1.34 5.46c-.09.38-.43.63-.8.63z"/><path d="m18 12.97c-.37 0-.71-.25-.8-.63l-1.34-5.46c-.11-.44.16-.89.61-1 .44-.11.89.16 1 .61l1.34 5.46c.11.44-.16.89-.61 1-.07.02-.13.02-.2.02z"/></g></svg>