<svg enable-background="new 0 0 372.6 500" height="500" viewBox="0 0 372.6 500" width="373"
     xmlns="http://www.w3.org/2000/svg">
    <path d="m156.8 500h-156.8v-313.7c0-75.6 45.1-143.1 115-172 69.8-28.9 149.5-13.1 203 40.4s69.3 133.1 40.4 203c-28.9 69.8-96.5 115-172.1 115h-29.4v127.3zm0-284.3h29.4c11.9 0 22.6-7.1 27.2-18.2 4.6-11 2.1-23.6-6.4-32-8.4-8.4-21-10.9-32-6.4-11 4.6-18.2 15.2-18.2 27.2z"
          fill="#75be5e"/>
    <path d="m117.6 500h-78.4v-313.7c0-59.7 35.6-113 90.8-135.8 55.1-22.8 118-10.3 160.2 31.9s54.7 105.1 31.9 160.2-76.2 90.8-135.8 90.8h-29.4v-78.4h29.4c27.9 0 52.7-16.6 63.4-42.4 10.7-25.7 4.8-55.1-14.9-74.8s-49-25.5-74.8-14.9c-25.7 10.7-42.4 35.5-42.4 63.4z"
          fill="#fff"/>
</svg>
