<!-- Copyright 2000-2021 JetBrains s.r.o. and contributors. Use of this source code is governed by the Apache 2.0 license that can be found in the LICENSE file. -->
<svg width="20" height="20" viewBox="0 0 20 20" fill="none" xmlns="http://www.w3.org/2000/svg">
<path d="M15.5001 18V17V13.4L13.0076 12.3484" stroke="#CED0D6" stroke-width="1.5" stroke-linecap="round" stroke-linejoin="round"/>
<path d="M4.49747 18V17V13.4L6.99 12.3484" stroke="#CED0D6" stroke-width="1.5" stroke-linecap="round" stroke-linejoin="round"/>
<path d="M15.5 5.5V8.5L12.5 10.5" stroke="#CED0D6" stroke-width="1.5" stroke-linecap="round" stroke-linejoin="round"/>
<path d="M4.5 5.5V8.5L7.5 10.5" stroke="#CED0D6" stroke-width="1.5" stroke-linecap="round" stroke-linejoin="round"/>
<path d="M10 18L10 17.25H10L10 18ZM11.7125 5.78154C11.7125 6.59633 11.5294 6.84636 11.395 6.95165C11.2088 7.09757 10.8346 7.20312 10.0125 7.20312V8.70312C10.8441 8.70312 11.6949 8.62238 12.3203 8.13226C12.9975 7.60151 13.2125 6.76575 13.2125 5.78154H11.7125ZM10.0125 3.70312C10.3398 3.70312 10.7666 3.82554 11.1027 4.1287C11.4184 4.41344 11.7125 4.90971 11.7125 5.78154H13.2125C13.2125 4.53179 12.7716 3.61384 12.1073 3.01478C11.4634 2.43412 10.6652 2.20312 10.0125 2.20312V3.70312ZM8.3125 5.78154C8.3125 4.90971 8.60656 4.41344 8.92229 4.1287C9.25844 3.82554 9.68522 3.70312 10.0125 3.70312V2.20312C9.35978 2.20312 8.56156 2.43412 7.91771 3.01478C7.25344 3.61384 6.8125 4.53179 6.8125 5.78154H8.3125ZM10.0125 7.20312C9.19039 7.20312 8.81617 7.09757 8.62998 6.95165C8.49564 6.84636 8.3125 6.59633 8.3125 5.78154H6.8125C6.8125 6.76575 7.02748 7.60151 7.7047 8.13226C8.33008 8.62238 9.18086 8.70312 10.0125 8.70312V7.20312ZM12.25 13.0769C12.25 13.7671 12.0269 14.8861 11.5754 15.8155C11.1014 16.7912 10.5399 17.25 10 17.25L10 18.75C11.4601 18.75 12.3986 17.5536 12.9246 16.4709C13.4731 15.342 13.75 13.9994 13.75 13.0769H12.25ZM10 10.75C11.1884 10.75 12.25 11.7122 12.25 13.0769H13.75C13.75 10.8731 12.0061 9.24998 10 9.24998V10.75ZM7.75 13.0769C7.75 11.7122 8.81163 10.75 10 10.75V9.24998C7.99393 9.24998 6.25 10.8731 6.25 13.0769H7.75ZM10 17.25C9.46014 17.25 8.89863 16.7912 8.4246 15.8155C7.97308 14.8861 7.75 13.7671 7.75 13.0769H6.25C6.25 13.9994 6.52692 15.342 7.0754 16.4709C7.60137 17.5536 8.53986 18.75 10 18.75L10 17.25Z" fill="#CED0D6"/>
<path d="M12 4L13 1.5" stroke="#CED0D6" stroke-width="1.5" stroke-linecap="round" stroke-linejoin="round"/>
<path d="M8 4L7 1.5" stroke="#CED0D6" stroke-width="1.5" stroke-linecap="round" stroke-linejoin="round"/>
</svg>
