<!-- Copyright 2000-2021 JetBrains s.r.o. and contributors. Use of this source code is governed by the Apache 2.0 license that can be found in the LICENSE file. -->
<svg width="16" height="16" viewBox="0 0 16 16" fill="none" xmlns="http://www.w3.org/2000/svg">
<path d="M12.4 14.4V13.6V10.72L10.406 9.87874" stroke="#CED0D6" stroke-linecap="round" stroke-linejoin="round"/>
<path d="M3.59803 14.4V13.6V10.72L5.59205 9.87874" stroke="#CED0D6" stroke-linecap="round" stroke-linejoin="round"/>
<path d="M12.4 4.40002V6.80002L10 8.40002" stroke="#CED0D6" stroke-linecap="round" stroke-linejoin="round"/>
<path d="M3.6 4.40002V6.80002L6 8.40002" stroke="#CED0D6" stroke-linecap="round" stroke-linejoin="round"/>
<path d="M8.0001 14.4L8.0001 14.9H8.0001L8.0001 14.4ZM9.4701 4.62522C9.4701 5.28834 9.32146 5.52742 9.1778 5.64001C8.99956 5.7797 8.66842 5.86248 8.0101 5.86248V6.86248C8.67477 6.86248 9.32363 6.79624 9.79465 6.42709C10.3002 6.03085 10.4701 5.40129 10.4701 4.62522H9.4701ZM8.0101 2.86249C8.29362 2.86249 8.6598 2.96766 8.94924 3.22868C9.22506 3.47743 9.4701 3.90256 9.4701 4.62522H10.4701C10.4701 3.65061 10.1271 2.94437 9.61896 2.48607C9.12439 2.04005 8.51057 1.86249 8.0101 1.86249V2.86249ZM6.5501 4.62522C6.5501 3.90256 6.79514 3.47743 7.07096 3.22868C7.36039 2.96766 7.72657 2.86249 8.0101 2.86249V1.86249C7.50962 1.86249 6.8958 2.04005 6.40124 2.48607C5.89306 2.94437 5.5501 3.65061 5.5501 4.62522H6.5501ZM8.0101 5.86248C7.35177 5.86248 7.02063 5.7797 6.8424 5.64001C6.69873 5.52742 6.5501 5.28834 6.5501 4.62522H5.5501C5.5501 5.40129 5.71996 6.03085 6.22555 6.42709C6.69657 6.79624 7.34542 6.86248 8.0101 6.86248V5.86248ZM9.9001 10.4615C9.9001 11.0292 9.71804 11.9392 9.35036 12.6961C8.96768 13.4838 8.49334 13.9 8.0001 13.9L8.0001 14.9C9.10686 14.9 9.83252 13.992 10.2498 13.133C10.6822 12.2432 10.9001 11.184 10.9001 10.4615H9.9001ZM8.0001 8.49998C9.00531 8.49998 9.9001 9.31379 9.9001 10.4615H10.9001C10.9001 8.75438 9.55044 7.49998 8.0001 7.49998V8.49998ZM6.1001 10.4615C6.1001 9.31379 6.99489 8.49998 8.0001 8.49998V7.49998C6.44975 7.49998 5.1001 8.75438 5.1001 10.4615H6.1001ZM8.0001 13.9C7.50686 13.9 7.03252 13.4838 6.64983 12.6961C6.28215 11.9392 6.1001 11.0292 6.1001 10.4615H5.1001C5.1001 11.184 5.31804 12.2432 5.75036 13.133C6.16768 13.992 6.89334 14.9 8.0001 14.9L8.0001 13.9Z" fill="#CED0D6"/>
<path d="M9.6001 3.20001L10.4001 1.20001" stroke="#CED0D6" stroke-linecap="round" stroke-linejoin="round"/>
<path d="M6.3999 3.20001L5.5999 1.20001" stroke="#CED0D6" stroke-linecap="round" stroke-linejoin="round"/>
</svg>
