<!-- Copyright 2000-2022 JetBrains s.r.o. and contributors. Use of this source code is governed by the Apache 2.0 license. -->
<svg width="20" height="20" viewBox="0 0 20 20" fill="none" xmlns="http://www.w3.org/2000/svg">
<rect x="3" y="7" width="9" height="1.5" rx="0.75" fill="#CED0D6"/>
<rect x="3" y="11" width="6" height="1.5" rx="0.75" fill="#CED0D6"/>
<rect x="3" y="3" width="14" height="1.5" rx="0.75" fill="#CED0D6"/>
<path fill-rule="evenodd" clip-rule="evenodd" d="M15.0404 9.04036C15.2942 8.78652 15.7058 8.78652 15.9596 9.04036C16.2135 9.2942 16.2135 9.70575 15.9596 9.95959L14.8192 11.1H19.2502C19.6092 11.1 19.9002 11.391 19.9002 11.75C19.9002 12.109 19.6092 12.4 19.2502 12.4H14.8193L15.9596 13.5404C16.2135 13.7942 16.2135 14.2058 15.9596 14.4596C15.7058 14.7134 15.2942 14.7134 15.0404 14.4596L12.7904 12.2096L12.3308 11.75L12.7904 11.2904L15.0404 9.04036Z" fill="#CED0D6"/>
<path fill-rule="evenodd" clip-rule="evenodd" d="M11.1696 13.9904C10.9158 13.7366 10.5042 13.7366 10.2504 13.9904C9.99654 14.2443 9.99654 14.6558 10.2504 14.9097L11.3908 16.05H6.96C6.60101 16.05 6.31 16.3411 6.31 16.7C6.31 17.059 6.60101 17.35 6.96 17.35H11.3908L10.2504 18.4904C9.99654 18.7443 9.99654 19.1558 10.2504 19.4097C10.5042 19.6635 10.9158 19.6635 11.1696 19.4097L13.4196 17.1597L13.8792 16.7L13.4196 16.2404L11.1696 13.9904Z" fill="#CED0D6"/>
</svg>
