<!-- Copyright 2000-2022 JetBrains s.r.o. and contributors. Use of this source code is governed by the Apache 2.0 license. -->
<svg width="16" height="16" viewBox="0 0 16 16" fill="none" xmlns="http://www.w3.org/2000/svg">
<rect x="2" y="5" width="7" height="1" rx="0.5" fill="#CED0D6"/>
<rect x="2" y="8" width="5" height="1" rx="0.5" fill="#CED0D6"/>
<rect x="2" y="2" width="12" height="1" rx="0.5" fill="#CED0D6"/>
<path fill-rule="evenodd" clip-rule="evenodd" d="M12.1464 6.14645C12.3417 5.95118 12.6583 5.95118 12.8536 6.14645C13.0488 6.34171 13.0488 6.65829 12.8536 6.85355L11.7071 8H15.5C15.7761 8 16 8.22386 16 8.5C16 8.77614 15.7761 9 15.5 9H11.7071L12.8536 10.1464C13.0488 10.3417 13.0488 10.6583 12.8536 10.8536C12.6583 11.0488 12.3417 11.0488 12.1464 10.8536L10.1464 8.85355L9.79289 8.5L10.1464 8.14645L12.1464 6.14645Z" fill="#CED0D6"/>
<path fill-rule="evenodd" clip-rule="evenodd" d="M8.85355 10.1464C8.65829 9.95118 8.34171 9.95118 8.14645 10.1464C7.95118 10.3417 7.95118 10.6583 8.14645 10.8536L9.29289 12H5.5C5.22386 12 5 12.2239 5 12.5C5 12.7761 5.22386 13 5.5 13H9.29289L8.14645 14.1464C7.95118 14.3417 7.95118 14.6583 8.14645 14.8536C8.34171 15.0488 8.65829 15.0488 8.85355 14.8536L10.8536 12.8536L11.2071 12.5L10.8536 12.1464L8.85355 10.1464Z" fill="#CED0D6"/>
</svg>
