<svg width="20" height="20" viewBox="0 0 20 20" fill="none" xmlns="http://www.w3.org/2000/svg">
<path fill-rule="evenodd" clip-rule="evenodd" d="M19.25 9.25C19.6642 9.25 20 9.58579 20 10C20 10.4142 19.6642 10.75 19.25 10.75L13.9298 10.75C13.5787 12.6006 11.9528 14 10 14C8.04721 14 6.42125 12.6006 6.0702 10.75L0.75 10.75C0.335787 10.75 -1.92951e-07 10.4142 -1.74846e-07 10C-1.5674e-07 9.58579 0.335787 9.25 0.75 9.25L6.0702 9.25C6.42125 7.39935 8.04721 6 10 6C11.9528 6 13.5787 7.39935 13.9298 9.25L19.25 9.25ZM10 12.5C11.3807 12.5 12.5 11.3807 12.5 10C12.5 8.61929 11.3807 7.5 10 7.5C8.61929 7.5 7.5 8.61929 7.5 10C7.5 11.3807 8.61929 12.5 10 12.5Z" fill="#CED0D6"/>
</svg>
