<!-- Copyright 2000-2022 JetBrains s.r.o. and contributors. Use of this source code is governed by the Apache 2.0 license. -->
<svg width="20" height="20" viewBox="0 0 20 20" fill="none" xmlns="http://www.w3.org/2000/svg">
<path fill-rule="evenodd" clip-rule="evenodd" d="M3.5 4.48102V11C3.5 12.6577 4.31738 13.9783 5.71641 15.2345C6.8245 16.2294 8.14193 17.0554 9.51489 17.9163C9.67591 18.0173 9.8377 18.1187 10 18.221C10.1623 18.1187 10.3241 18.0173 10.4851 17.9163C11.8581 17.0554 13.1755 16.2294 14.2836 15.2345C15.6826 13.9783 16.5 12.6577 16.5 11V4.48102L10 1.63727L3.5 4.48102ZM10 0L2 3.5V11C2 14.9793 5.58986 17.2285 8.79309 19.2354C9.20458 19.4932 9.6097 19.747 10 20C10.3903 19.747 10.7954 19.4932 11.2069 19.2354C14.4101 17.2285 18 14.9793 18 11V3.5L10 0Z" fill="#CED0D6"/>
<path fill-rule="evenodd" clip-rule="evenodd" d="M13.697 7.35852C13.9899 7.65142 13.9899 8.12629 13.697 8.41919L9.47474 12.6414C9.33409 12.7821 9.14332 12.8611 8.94441 12.8611C8.7455 12.8611 8.55473 12.7821 8.41408 12.6414L6.30297 10.5303C6.01007 10.2374 6.01007 9.76253 6.30297 9.46964C6.59586 9.17674 7.07073 9.17674 7.36363 9.46964L8.94441 11.0504L12.6363 7.35852C12.9292 7.06563 13.4041 7.06563 13.697 7.35852Z" fill="#CED0D6"/>
</svg>
