<!-- Copyright 2000-2023 JetBrains s.r.o. and contributors. Use of this source code is governed by the Apache 2.0 license. -->
<svg width="20" height="20" viewBox="0 0 20 20" fill="none" xmlns="http://www.w3.org/2000/svg">
<path d="M13.7841 8.28228C14.0772 7.98939 14.0772 7.51452 13.7841 7.22162C13.491 6.92873 13.0157 6.92873 12.7226 7.22162L9.0022 10.9393L7.28517 9.22358C6.99207 8.93068 6.51685 8.93068 6.22374 9.22358C5.93063 9.51647 5.93063 9.99134 6.22374 10.2842L8.47148 12.5303C8.76459 12.8232 9.23981 12.8232 9.53292 12.5303L13.7841 8.28228Z" fill="#CED0D6"/>
<path d="M16.5 10L16.4999 10.029L17.9554 10.8957C17.9847 10.6047 18 10.3062 18 10V4.5L10 1L2 4.5V10C2 15.9341 7.74912 18.9936 9.5 19.7878V18.1211L9.4429 18.0915C8.75653 17.734 7.84744 17.1933 6.94589 16.4608C5.12587 14.9821 3.5 12.8668 3.5 10V5.48102L10 2.63727L16.5 5.48102V10Z" fill="#6C707E"/>
<path d="M10.0431 19.1703C10.0283 19.1768 10.0139 19.1831 9.99999 19.1891C9.98611 19.1831 9.97173 19.1768 9.95686 19.1703C9.75169 19.0805 9.45465 18.9433 9.09645 18.7567C8.37826 18.3826 7.42372 17.8154 6.47294 17.0429C4.56293 15.491 2.75 13.1834 2.75 10V4.99051L10 1.81864L17.25 4.99051V10C17.25 13.1834 15.4371 15.491 13.5271 17.0429C12.5763 17.8154 11.6217 18.3826 10.9035 18.7567C10.5453 18.9433 10.2483 19.0805 10.0431 19.1703Z" stroke="#CED0D6" stroke-width="1.5" stroke-linecap="round"/>
</svg>
