<!-- Copyright 2000-2022 JetBrains s.r.o. and contributors. Use of this source code is governed by the Apache 2.0 license. -->
<svg width="16" height="16" viewBox="0 0 16 16" fill="none" xmlns="http://www.w3.org/2000/svg">
<path fill-rule="evenodd" clip-rule="evenodd" d="M8 0.456787L14 3.00224V8.7777C14 10.5436 13.1076 11.835 11.9676 12.8566C11.1292 13.608 10.1082 14.2524 9.17138 14.8436C8.86018 15.04 8.55826 15.2306 8.2754 15.4172L8 15.599L7.7246 15.4172C7.44174 15.2306 7.13982 15.04 6.82862 14.8436C5.8918 14.2524 4.87083 13.608 4.03238 12.8566C2.89245 11.835 2 10.5436 2 8.7777V3.00224L8 0.456787ZM3 3.66427V8.7777C3 10.1552 3.67898 11.1971 4.69977 12.1119C5.46989 12.802 6.38449 13.3795 7.30229 13.959C7.53542 14.1062 7.76877 14.2536 8 14.4029C8.23123 14.2536 8.46458 14.1062 8.69771 13.959C9.61551 13.3795 10.5301 12.802 11.3002 12.1119C12.321 11.1971 13 10.1552 13 8.7777V3.66427L8 1.54306L3 3.66427Z" fill="#CED0D6"/>
<path fill-rule="evenodd" clip-rule="evenodd" d="M10.8536 5.72457C11.0488 5.91983 11.0488 6.23642 10.8536 6.43168L7.35355 9.93168C7.15829 10.1269 6.84171 10.1269 6.64645 9.93168L5.14645 8.43168C4.95118 8.23642 4.95118 7.91983 5.14645 7.72457C5.34171 7.52931 5.65829 7.52931 5.85355 7.72457L7 8.87102L10.1464 5.72457C10.3417 5.52931 10.6583 5.52931 10.8536 5.72457Z" fill="#CED0D6"/>
</svg>
