<!-- Copyright 2000-2022 JetBrains s.r.o. and contributors. Use of this source code is governed by the Apache 2.0 license. -->
<svg width="20" height="20" viewBox="0 0 20 20" fill="none" xmlns="http://www.w3.org/2000/svg">
<path fill-rule="evenodd" clip-rule="evenodd" d="M2 4.72955C2 4.11375 2.34642 3.61062 2.78589 3.2341C3.22746 2.85577 3.82851 2.54434 4.51487 2.29562C5.89292 1.79624 7.75373 1.5 9.77778 1.5C11.8018 1.5 13.6626 1.79624 15.0407 2.29562C15.727 2.54434 16.3281 2.85577 16.7697 3.2341C17.2091 3.61062 17.5556 4.11375 17.5556 4.72955V8.3527C17.5533 8.96577 17.2077 9.46686 16.7697 9.84216C16.3281 10.2205 15.727 10.5319 15.0407 10.7806C13.6626 11.28 11.8018 11.5763 9.77778 11.5763C7.75373 11.5763 5.89292 11.28 4.51487 10.7806C4.06508 10.6176 3.65194 10.4277 3.2963 10.2097V11.9637C3.2963 12.0614 3.34888 12.2379 3.63097 12.4796C3.91096 12.7195 4.35402 12.9648 4.95787 13.1836C6.16023 13.6193 7.86424 13.9014 9.77778 13.9014V15.1933C7.75373 15.1933 5.89292 14.897 4.51487 14.3976C4.06508 14.2346 3.65194 14.0447 3.2963 13.8267V15.5808C3.2963 15.6785 3.34888 15.8551 3.63097 16.0967C3.91096 16.3366 4.35402 16.5819 4.95787 16.8008C6.16023 17.2365 7.86424 17.5186 9.77778 17.5186V18.8104C7.75373 18.8104 5.89292 18.5142 4.51487 18.0148C3.82851 17.7661 3.22746 17.4546 2.78589 17.0763C2.34642 16.6998 2 16.1966 2 15.5808V4.72955ZM3.2963 4.72955C3.2963 4.6319 3.34888 4.45535 3.63097 4.21366C3.91096 3.97378 4.35402 3.72848 4.95787 3.50966C6.16023 3.07395 7.86424 2.79182 9.77778 2.79182C11.6913 2.79182 13.3953 3.07395 14.5977 3.50966C15.2015 3.72848 15.6446 3.97378 15.9246 4.21366C16.2067 4.45535 16.2593 4.6319 16.2593 4.72955C16.2593 4.8272 16.2067 5.00375 15.9246 5.24543C15.6446 5.48531 15.2015 5.73061 14.5977 5.94944C13.3953 6.38515 11.6913 6.66728 9.77778 6.66728C7.86424 6.66728 6.16023 6.38515 4.95787 5.94944C4.35402 5.73061 3.91096 5.48531 3.63097 5.24543C3.34888 5.00375 3.2963 4.8272 3.2963 4.72955ZM3.2963 8.34671C3.2963 8.44436 3.34888 8.62091 3.63097 8.86259C3.91096 9.10247 4.35402 9.34777 4.95787 9.56659C6.16023 10.0023 7.86424 10.2844 9.77778 10.2844C11.6913 10.2844 13.3953 10.0023 14.5977 9.56659C15.2015 9.34777 15.6446 9.10247 15.9246 8.86259C16.2067 8.62091 16.2593 8.44436 16.2593 8.34671V6.59254C15.9036 6.81056 15.4905 7.00049 15.0407 7.16348C13.6626 7.66286 11.8018 7.9591 9.77778 7.9591C7.75373 7.9591 5.89292 7.66286 4.51487 7.16348C4.06508 7.00049 3.65194 6.81056 3.2963 6.59254V8.34671Z" fill="#CED0D6"/>
<path d="M19.3102 14.229C19.5633 13.9768 19.5633 13.5678 19.3102 13.3156C19.057 13.0633 18.6467 13.0633 18.3935 13.3156L14.3148 17.3802L12.1805 15.2533C11.9274 15.001 11.517 15.001 11.2639 15.2533C11.0108 15.5055 11.0108 15.9145 11.2639 16.1667L14.3148 19.2071L19.3102 14.229Z" fill="#CED0D6"/>
</svg>
