<!-- Copyright 2000-2022 JetBrains s.r.o. and contributors. Use of this source code is governed by the Apache 2.0 license. -->
<svg width="16" height="16" viewBox="0 0 16 16" fill="none" xmlns="http://www.w3.org/2000/svg">
<path fill-rule="evenodd" clip-rule="evenodd" d="M2 4C2 3.52331 2.26724 3.13383 2.60626 2.84237C2.9469 2.54951 3.41056 2.30843 3.94004 2.11589C5.00311 1.72932 6.43859 1.5 8 1.5C9.56141 1.5 10.9969 1.72932 12.06 2.11589C12.5894 2.30843 13.0531 2.54951 13.3937 2.84237C13.7328 3.13383 14 3.52331 14 4V6.80469C13.9983 7.27927 13.7317 7.66716 13.3937 7.95768C13.0531 8.25054 12.5894 8.49162 12.06 8.68416C10.9969 9.07073 9.56141 9.30005 8 9.30005C6.43859 9.30005 5.00311 9.07073 3.94004 8.68416C3.59306 8.55799 3.27435 8.41097 3 8.24219V9.59998C3 9.67557 3.04057 9.81224 3.25818 9.99932C3.47417 10.185 3.81596 10.3749 4.28178 10.5443C5.20932 10.8816 6.52384 11.1 8 11.1V12.1C6.43859 12.1 5.00311 11.8707 3.94004 11.4841C3.59306 11.3579 3.27435 11.2109 3 11.0421V12.4C3 12.4756 3.04057 12.6123 3.25818 12.7994C3.47417 12.9851 3.81596 13.1749 4.28178 13.3443C5.20932 13.6816 6.52384 13.9 8 13.9V14.9C6.43859 14.9 5.00311 14.6707 3.94004 14.2841C3.41056 14.0916 2.9469 13.8505 2.60626 13.5577C2.26724 13.2662 2 12.8767 2 12.4V4ZM3 4C3 3.92441 3.04057 3.78774 3.25818 3.60065C3.47417 3.41496 3.81596 3.22507 4.28178 3.05568C5.20932 2.7184 6.52384 2.5 8 2.5C9.47616 2.5 10.7907 2.7184 11.7182 3.05568C12.184 3.22507 12.5258 3.41496 12.7418 3.60065C12.9594 3.78774 13 3.92441 13 4C13 4.07559 12.9594 4.21226 12.7418 4.39935C12.5258 4.58504 12.184 4.77493 11.7182 4.94432C10.7907 5.2816 9.47616 5.5 8 5.5C6.52384 5.5 5.20932 5.2816 4.28178 4.94432C3.81596 4.77493 3.47417 4.58504 3.25818 4.39935C3.04057 4.21226 3 4.07559 3 4ZM3 6.80005C3 6.87564 3.04057 7.01231 3.25818 7.1994C3.47417 7.38509 3.81596 7.57497 4.28178 7.74437C5.20932 8.08165 6.52384 8.30005 8 8.30005C9.47616 8.30005 10.7907 8.08165 11.7182 7.74437C12.184 7.57497 12.5258 7.38509 12.7418 7.1994C12.9594 7.01231 13 6.87564 13 6.80005V5.44214C12.7256 5.61092 12.4069 5.75794 12.06 5.88411C10.9969 6.27068 9.56141 6.5 8 6.5C6.43859 6.5 5.00311 6.27068 3.94004 5.88411C3.59306 5.75794 3.27435 5.61092 3 5.44214V6.80005Z" fill="#CED0D6"/>
<path d="M15.3536 11.3536C15.5488 11.1583 15.5488 10.8417 15.3536 10.6464C15.1583 10.4512 14.8417 10.4512 14.6464 10.6464L11.5 13.7929L9.85355 12.1464C9.65829 11.9512 9.34171 11.9512 9.14645 12.1464C8.95118 12.3417 8.95118 12.6583 9.14645 12.8536L11.5 15.2071L15.3536 11.3536Z" fill="#CED0D6"/>
</svg>
