<!-- Copyright 2000-2022 JetBrains s.r.o. and contributors. Use of this source code is governed by the Apache 2.0 license. -->
<svg width="16" height="16" viewBox="0 0 16 16" fill="none" xmlns="http://www.w3.org/2000/svg">
<path d="M13.967 13.5331C14.2061 13.6712 14.5119 13.5892 14.65 13.3501C14.7881 13.1109 14.7061 12.8052 14.467 12.6671L13.967 13.5331ZM11.75 12.2531L13.967 13.5331L14.467 12.6671L12.25 11.3871L11.75 12.2531Z" fill="#CED0D6"/>
<path d="M14.9004 9.50006C15.1765 9.50006 15.4004 9.2762 15.4004 9.00006C15.4004 8.72392 15.1765 8.50006 14.9004 8.50006L14.9004 9.50006ZM12.4004 9.50006L14.9004 9.50006L14.9004 8.50006L12.4004 8.50006L12.4004 9.50006Z" fill="#CED0D6"/>
<path d="M14.455 5.23979C14.6979 5.10835 14.7882 4.80492 14.6567 4.56207C14.5253 4.31922 14.2219 4.22891 13.979 4.36035L14.455 5.23979ZM12.238 6.43978L14.455 5.23979L13.979 4.36035L11.762 5.56034L12.238 6.43978Z" fill="#CED0D6"/>
<path d="M2.02989 13.5331C1.79075 13.6712 1.48495 13.5892 1.34688 13.3501C1.20881 13.1109 1.29075 12.8051 1.52989 12.6671L2.02989 13.5331ZM4.25 12.2513L2.02989 13.5331L1.52989 12.6671L3.75 11.3853L4.25 12.2513Z" fill="#CED0D6"/>
<path d="M1.09961 9.50006C0.823467 9.50006 0.599609 9.2762 0.599609 9.00006C0.599609 8.72392 0.823467 8.50006 1.09961 8.50006L1.09961 9.50006ZM3.59961 9.50006L1.09961 9.50006L1.09961 8.50006L3.59961 8.50006L3.59961 9.50006Z" fill="#CED0D6"/>
<path d="M1.54215 5.23994C1.29922 5.10863 1.20874 4.80526 1.34004 4.56233C1.47134 4.3194 1.77472 4.22891 2.01765 4.36022L1.54215 5.23994ZM3.76225 6.43992L1.54215 5.23994L2.01765 4.36022L4.23775 5.5602L3.76225 6.43992Z" fill="#CED0D6"/>
<path fill-rule="evenodd" clip-rule="evenodd" d="M6.30078 4.2C6.30078 3.26112 7.0619 2.5 8.00078 2.5C8.93967 2.5 9.70078 3.26112 9.70078 4.2C9.70078 4.48922 9.62856 4.76157 9.50116 5H10.5C10.5267 5 10.5533 5.00053 10.5798 5.00157C10.6584 4.74832 10.7008 4.4791 10.7008 4.2C10.7008 2.70883 9.49195 1.5 8.00078 1.5C6.50961 1.5 5.30078 2.70883 5.30078 4.2C5.30078 4.47908 5.34312 4.74827 5.42173 5.0015C5.4477 5.0005 5.47379 5 5.5 5H6.5004C6.37301 4.76157 6.30078 4.48922 6.30078 4.2Z" fill="#CED0D6"/>
<path d="M4 7.5C4 5.84315 5.34315 4.5 7 4.5H9C10.6569 4.5 12 5.84315 12 7.5V10C12 12.2091 10.2091 14 8 14V14C5.79086 14 4 12.2091 4 10V7.5Z" stroke="#CED0D6"/>
</svg>
