<!-- Copyright 2000-2021 JetBrains s.r.o. and contributors. Use of this source code is governed by the Apache 2.0 license that can be found in the LICENSE file. -->
<svg width="16" height="16" viewBox="0 0 16 16" fill="none" xmlns="http://www.w3.org/2000/svg">
<path d="M8.21952 1.89785L13.831 4.63994C14.205 4.82268 14.205 5.35566 13.831 5.53841L8.21952 8.28049C8.081 8.34818 7.919 8.34818 7.78048 8.28049L2.169 5.53841C1.79503 5.35566 1.79503 4.82268 2.16901 4.63994L7.78048 1.89785C7.919 1.83016 8.081 1.83016 8.21952 1.89785Z" stroke="#CED0D6"/>
<path d="M14.2755 8.31643L8.43692 11.1525C8.16105 11.2865 7.83895 11.2865 7.56308 11.1525L1.72447 8.31643" stroke="#CED0D6" stroke-linecap="round"/>
<path d="M14.2755 11.5437L8.43692 14.3797C8.16105 14.5137 7.83895 14.5137 7.56308 14.3797L1.72447 11.5437" stroke="#CED0D6" stroke-linecap="round"/>
</svg>
