<!-- Copyright 2000-2021 JetBrains s.r.o. and contributors. Use of this source code is governed by the Apache 2.0 license that can be found in the LICENSE file. -->
<svg width="20" height="20" viewBox="0 0 20 20" fill="none" xmlns="http://www.w3.org/2000/svg">
<path d="M9.66844 2.88839C9.7377 2.85455 9.8187 2.85455 9.88796 2.88839L17.3884 6.55356C17.5754 6.64493 17.5754 6.91142 17.3884 7.00279L9.88796 10.668C9.8187 10.7018 9.7377 10.7018 9.66844 10.668L2.16795 7.00279C1.98096 6.91142 1.98096 6.64493 2.16795 6.55356L9.66844 2.88839Z" stroke="#CED0D6" stroke-width="1.5"/>
<path d="M17.5564 10.7782L10.2151 14.3441C9.93925 14.4781 9.61715 14.4781 9.34128 14.3441L2.00002 10.7782" stroke="#CED0D6" stroke-width="1.5" stroke-linecap="round"/>
<path d="M17.5564 14.7782L10.2151 18.3441C9.93925 18.4781 9.61715 18.4781 9.34128 18.3441L2.00002 14.7782" stroke="#CED0D6" stroke-width="1.5" stroke-linecap="round"/>
</svg>
