<!-- Copyright 2000-2021 JetBrains s.r.o. and contributors. Use of this source code is governed by the Apache 2.0 license that can be found in the LICENSE file. -->
<svg width="20" height="20" viewBox="0 0 20 20" fill="none" xmlns="http://www.w3.org/2000/svg">
<rect x="2.75" y="4.75" width="11.5" height="13.5" rx="1.25" stroke="#767A8A" stroke-width="1.5"/>
<path fill-rule="evenodd" clip-rule="evenodd" d="M14.5 2.5H15.5C16.0523 2.5 16.5 2.94772 16.5 3.5V4.49095C16.5 4.49397 16.5 4.49698 16.5 4.5V15.5C16.5 15.6026 16.4923 15.7033 16.4774 15.8017C17.3724 15.4212 18 14.5339 18 13.5V3.5C18 2.11929 16.8807 1 15.5 1H7.49998C6.47482 1 5.59378 1.61705 5.208 2.5H7.49998H14.5Z" fill="#767A8A"/>
<path d="M6.5 7.75C6.08579 7.75 5.75 8.08579 5.75 8.5C5.75 8.91421 6.08579 9.25 6.5 9.25V7.75ZM10.5 9.25C10.9142 9.25 11.25 8.91421 11.25 8.5C11.25 8.08579 10.9142 7.75 10.5 7.75V9.25ZM6.5 9.25H10.5V7.75H6.5V9.25Z" fill="#767A8A"/>
<path d="M6.5 10.75C6.08579 10.75 5.75 11.0858 5.75 11.5C5.75 11.9142 6.08579 12.25 6.5 12.25V10.75ZM10.5 12.25C10.9142 12.25 11.25 11.9142 11.25 11.5C11.25 11.0858 10.9142 10.75 10.5 10.75V12.25ZM6.5 12.25H10.5V10.75H6.5V12.25Z" fill="#767A8A"/>
<path d="M6.5 13.75C6.08579 13.75 5.75 14.0858 5.75 14.5C5.75 14.9142 6.08579 15.25 6.5 15.25V13.75ZM10.5 15.25C10.9142 15.25 11.25 14.9142 11.25 14.5C11.25 14.0858 10.9142 13.75 10.5 13.75V15.25ZM6.5 15.25H10.5V13.75H6.5V15.25Z" fill="#767A8A"/>
</svg>
