<!-- Copyright 2000-2021 JetBrains s.r.o. and contributors. Use of this source code is governed by the Apache 2.0 license that can be found in the LICENSE file. -->
<svg width="16" height="16" viewBox="0 0 16 16" fill="none" xmlns="http://www.w3.org/2000/svg">
<rect x="2.5" y="3.5" width="9" height="10" rx="1.5" stroke="#CED0D6"/>
<rect x="5" y="6" width="4" height="1" rx="0.5" fill="#CED0D6"/>
<rect x="5" y="8" width="4" height="1" rx="0.5" fill="#CED0D6"/>
<rect x="5" y="10" width="4" height="1" rx="0.5" fill="#CED0D6"/>
<path fill-rule="evenodd" clip-rule="evenodd" d="M6.39978 2H11.5998C12.373 2 12.9998 2.6268 12.9998 3.4V3.96862C12.9999 3.97907 13 3.98953 13 4.00001V11.5494C13.6055 11.1137 13.9998 10.4029 13.9998 9.6V3.4C13.9998 2.07452 12.9253 1 11.5998 1H6.39978C5.59677 1 4.88587 1.39438 4.4502 2.00001H6.39486C6.3965 2 6.39814 2 6.39978 2Z" fill="#CED0D6"/>
</svg>
