<!-- Copyright 2000-2021 JetBrains s.r.o. and contributors. Use of this source code is governed by the Apache 2.0 license that can be found in the LICENSE file. -->
<svg width="20" height="20" viewBox="0 0 20 20" fill="none" xmlns="http://www.w3.org/2000/svg">
<path fill-rule="evenodd" clip-rule="evenodd" d="M10 6.5C11.1046 6.5 12 5.60457 12 4.5C12 3.39543 11.1046 2.5 10 2.5C8.89543 2.5 8 3.39543 8 4.5C8 5.60457 8.89543 6.5 10 6.5ZM11.9988 7.37352C12.9062 6.74114 13.5 5.68992 13.5 4.5C13.5 2.567 11.933 1 10 1C8.067 1 6.5 2.567 6.5 4.5C6.5 5.68992 7.0938 6.74114 8.00124 7.37352L5.18514 12.067C4.96357 12.0231 4.73448 12 4.5 12C2.567 12 1 13.567 1 15.5C1 17.433 2.567 19 4.5 19C6.433 19 8 17.433 8 15.5C8 14.3409 7.4366 13.3135 6.56873 12.6765L9.40488 7.94961C9.5983 7.98274 9.79713 8 10 8C10.2029 8 10.4017 7.98274 10.5951 7.94961L13.4313 12.6765C12.5634 13.3135 12 14.3409 12 15.5C12 17.433 13.567 19 15.5 19C17.433 19 19 17.433 19 15.5C19 13.567 17.433 12 15.5 12C15.2655 12 15.0364 12.0231 14.8149 12.067L11.9988 7.37352ZM4.5 17.5C5.60457 17.5 6.5 16.6046 6.5 15.5C6.5 14.3954 5.60457 13.5 4.5 13.5C3.39543 13.5 2.5 14.3954 2.5 15.5C2.5 16.6046 3.39543 17.5 4.5 17.5ZM17.5 15.5C17.5 16.6046 16.6046 17.5 15.5 17.5C14.3954 17.5 13.5 16.6046 13.5 15.5C13.5 14.3954 14.3954 13.5 15.5 13.5C16.6046 13.5 17.5 14.3954 17.5 15.5Z" fill="#CED0D6"/>
</svg>
