<!-- Copyright 2000-2021 JetBrains s.r.o. and contributors. Use of this source code is governed by the Apache 2.0 license that can be found in the LICENSE file. -->
<svg width="16" height="16" viewBox="0 0 16 16" fill="none" xmlns="http://www.w3.org/2000/svg">
<path fill-rule="evenodd" clip-rule="evenodd" d="M8 5C8.82843 5 9.5 4.32843 9.5 3.5C9.5 2.67157 8.82843 2 8 2C7.17157 2 6.5 2.67157 6.5 3.5C6.5 4.32843 7.17157 5 8 5ZM9.3829 5.58301C10.0563 5.13508 10.5 4.36936 10.5 3.5C10.5 2.11929 9.38071 1 8 1C6.61929 1 5.5 2.11929 5.5 3.5C5.5 4.36936 5.94375 5.13508 6.6171 5.58301L3.94339 10.0392C3.79948 10.0134 3.65131 10 3.5 10C2.11929 10 1 11.1193 1 12.5C1 13.8807 2.11929 15 3.5 15C4.88071 15 6 13.8807 6 12.5C6 11.6306 5.55625 10.8649 4.8829 10.417L7.55661 5.9608C7.70052 5.98656 7.84869 6 8 6C8.15131 6 8.29948 5.98656 8.44339 5.9608L11.1171 10.417C10.4437 10.8649 10 11.6306 10 12.5C10 13.8807 11.1193 15 12.5 15C13.8807 15 15 13.8807 15 12.5C15 11.1193 13.8807 10 12.5 10C12.3487 10 12.2005 10.0134 12.0566 10.0392L9.3829 5.58301ZM3.5 14C4.32843 14 5 13.3284 5 12.5C5 11.6716 4.32843 11 3.5 11C2.67157 11 2 11.6716 2 12.5C2 13.3284 2.67157 14 3.5 14ZM14 12.5C14 13.3284 13.3284 14 12.5 14C11.6716 14 11 13.3284 11 12.5C11 11.6716 11.6716 11 12.5 11C13.3284 11 14 11.6716 14 12.5Z" fill="#CED0D6"/>
</svg>
