<!-- Copyright 2000-2022 JetBrains s.r.o. and contributors. Use of this source code is governed by the Apache 2.0 license. -->
<svg width="20" height="20" viewBox="0 0 20 20" fill="none" xmlns="http://www.w3.org/2000/svg">
<path fill-rule="evenodd" clip-rule="evenodd" d="M10 7C11.1046 7 12 6.10457 12 5C12 3.89543 11.1046 3 10 3C8.89543 3 8 3.89543 8 5C8 6.10457 8.89543 7 10 7ZM12.3026 7.63598C13.0365 6.9944 13.5 6.05134 13.5 5C13.5 3.067 11.933 1.5 10 1.5C8.067 1.5 6.5 3.067 6.5 5C6.5 6.0517 6.96387 6.99506 7.69817 7.63665L5.75343 11.5813C5.51076 11.5281 5.25866 11.5 5 11.5C3.067 11.5 1.5 13.067 1.5 15C1.5 16.933 3.067 18.5 5 18.5C6.933 18.5 8.5 16.933 8.5 15C8.5 13.8618 7.95668 12.8505 7.11524 12.2113L9.01429 8.35928C9.32694 8.45087 9.65773 8.5 10 8.5C10.3426 8.5 10.6737 8.45077 10.9867 8.359L12.8856 12.2106C12.0437 12.8498 11.5 13.8614 11.5 15C11.5 16.933 13.067 18.5 15 18.5C16.933 18.5 18.5 16.933 18.5 15C18.5 13.067 16.933 11.5 15 11.5C14.7417 11.5 14.4899 11.528 14.2476 11.5811L12.3026 7.63598ZM5 17C6.10457 17 7 16.1046 7 15C7 13.8954 6.10457 13 5 13C3.89543 13 3 13.8954 3 15C3 16.1046 3.89543 17 5 17ZM17 15C17 16.1046 16.1046 17 15 17C13.8954 17 13 16.1046 13 15C13 13.8954 13.8954 13 15 13C16.1046 13 17 13.8954 17 15Z" fill="#6C707E"/>
</svg>
