<!-- Copyright 2000-2022 JetBrains s.r.o. and contributors. Use of this source code is governed by the Apache 2.0 license. -->
<svg width="16" height="16" viewBox="0 0 16 16" fill="none" xmlns="http://www.w3.org/2000/svg">
<path fill-rule="evenodd" clip-rule="evenodd" d="M2.5 14C2.22386 14 2 13.7761 2 13.5L2 9.70711L0.853553 10.8536C0.658291 11.0488 0.341708 11.0488 0.146446 10.8536C-0.048816 10.6583 -0.048816 10.3417 0.146446 10.1464L2.5 7.79289L4.85355 10.1464C5.04882 10.3417 5.04882 10.6583 4.85355 10.8536C4.65829 11.0488 4.34171 11.0488 4.14645 10.8536L3 9.70711L3 13.5C3 13.7761 2.77614 14 2.5 14Z" fill="#6C707E"/>
<path d="M7 12C8.20055 12 9.30227 11.5769 10.1642 10.8716L13.1459 13.8497C13.3413 14.0448 13.6578 14.0446 13.853 13.8492C14.0481 13.6538 14.0479 13.3373 13.8526 13.1421L10.8713 10.1646C11.5768 9.30259 12 8.20072 12 7C12 4.23858 9.76142 2 7 2C4.23858 2 2 4.23858 2 7H3C3 4.79086 4.79086 3 7 3C9.20914 3 11 4.79086 11 7C11 9.20914 9.20914 11 7 11C6.6547 11 6.31962 10.9562 6 10.874L5.99999 11.9C6.3231 11.9656 6.65753 12 7 12Z" fill="#6C707E"/>
</svg>
