<!-- Copyright 2000-2022 JetBrains s.r.o. and contributors. Use of this source code is governed by the Apache 2.0 license. -->
<svg width="20" height="20" viewBox="0 0 20 20" fill="none" xmlns="http://www.w3.org/2000/svg">
<path d="M14.5 9C14.5 12.0376 12.0376 14.5 9 14.5V16C10.6478 16 12.1625 15.4307 13.3584 14.478C13.3812 14.5086 13.4065 14.5379 13.4343 14.5657L17.4343 18.5657C17.7467 18.8781 18.2533 18.8781 18.5657 18.5657C18.8781 18.2533 18.8781 17.7467 18.5657 17.4343L14.5657 13.4343C14.5379 13.4065 14.5086 13.3812 14.478 13.3584C15.4307 12.1625 16 10.6478 16 9C16 5.13401 12.866 2 9 2C5.13401 2 2 5.13401 2 9C2 9.56041 2.06586 10.1054 2.19025 10.6278L3.50856 9.30946C3.50288 9.20703 3.5 9.10385 3.5 9C3.5 5.96243 5.96243 3.5 9 3.5C12.0376 3.5 14.5 5.96243 14.5 9Z" fill="#CED0D6"/>
<path d="M7.03033 13.9697L4 10.9393L0.96967 13.9697C0.676777 14.2626 0.676777 14.7374 0.96967 15.0303C1.26256 15.3232 1.73744 15.3232 2.03033 15.0303L3.25 13.8107V18C3.25 18.4142 3.58579 18.75 4 18.75C4.41421 18.75 4.75 18.4142 4.75 18V13.8107L5.96967 15.0303C6.26256 15.3232 6.73744 15.3232 7.03033 15.0303C7.32322 14.7374 7.32322 14.2626 7.03033 13.9697Z" fill="#CED0D6"/>
</svg>
