<!-- Copyright 2000-2021 JetBrains s.r.o. and contributors. Use of this source code is governed by the Apache 2.0 license that can be found in the LICENSE file. -->
<svg width="16" height="16" viewBox="0 0 16 16" fill="none" xmlns="http://www.w3.org/2000/svg">
<path d="M11.6711 2.68707C11.4632 2.86878 11.4419 3.18464 11.6236 3.39258C11.8053 3.60052 12.1212 3.62178 12.3292 3.44008L11.6711 2.68707ZM3.57515 6.46982L4.05358 6.32429L4.05106 6.31646L3.57515 6.46982ZM7.9258 7.91658C8.13098 7.73176 8.14748 7.41561 7.96267 7.21043C7.77785 7.00526 7.4617 6.98875 7.25652 7.17357L7.9258 7.91658ZM5.76974 8.82391L5.53188 8.38404L5.52492 8.38795L5.76974 8.82391ZM4.15639 8.38056L3.67803 8.52607L3.68037 8.53378L3.68297 8.54141L4.15639 8.38056ZM12.5638 9.10175L12.2643 8.70137L12.2641 8.70153L12.5638 9.10175ZM0.935933 12.757L0.438578 12.8084L0.935933 12.757ZM2.43519 12.6784L2.9176 12.8099L2.43519 12.6784ZM3.92321 4.96165L3.70211 4.5132L3.92321 4.96165ZM3.45907 6.10957L2.98317 6.26293L3.45907 6.10957ZM5.30383 12.6779L5.78619 12.5462L5.30383 12.6779ZM9.66507 12.6753L10.1478 12.5451L9.66507 12.6753ZM11.1143 12.7459L10.6145 12.7317L11.1143 12.7459ZM6.79524 12.6779L6.31288 12.5462L6.79524 12.6779ZM15.3448 3.32875C15.1141 2.84755 14.6294 2.32954 13.9721 2.10841C13.2752 1.87397 12.4594 1.99828 11.6711 2.68707L12.3292 3.44008C12.8784 2.96009 13.3282 2.94689 13.6532 3.05622C14.0178 3.17885 14.3112 3.48587 14.443 3.76097L15.3448 3.32875ZM14.4512 3.77723C14.5729 4.00913 14.5584 4.44317 14.2832 4.86422C14.0241 5.26063 13.5749 5.56982 12.9626 5.56982V6.56982C13.9503 6.56982 14.6981 6.05713 15.1202 5.41137C15.5262 4.79024 15.6774 3.96181 15.3366 3.3125L14.4512 3.77723ZM12.9626 5.56982C12.5689 5.56982 12.1335 5.40495 11.5641 5.11942C11.0269 4.84999 10.3607 4.46663 9.63539 4.17173C8.11988 3.55555 6.23075 3.2665 3.70211 4.5132L4.14432 5.41011C6.37984 4.30793 7.9672 4.57296 9.25875 5.09808C9.93695 5.37383 10.5069 5.70793 11.1158 6.0133C11.6926 6.30255 12.3132 6.56982 12.9626 6.56982V5.56982ZM4.63474 8.23505L4.05351 6.32431L3.0968 6.61533L3.67803 8.52607L4.63474 8.23505ZM11.6141 12.76C11.6513 11.4439 12.0225 10.1318 12.8635 9.50197L12.2641 8.70153C11.0393 9.6187 10.6537 11.3431 10.6145 12.7317L11.6141 12.76ZM12.8633 9.50213C14.7951 8.05707 15.4578 6.54908 15.5998 5.35416C15.6698 4.76559 15.6112 4.27083 15.5334 3.91951C15.4945 3.74374 15.4506 3.60304 15.4151 3.50329C15.3973 3.45338 15.3815 3.41356 15.3694 3.38458C15.3634 3.37009 15.3582 3.35828 15.3542 3.34926C15.3522 3.34475 15.3505 3.34093 15.349 3.33782C15.3483 3.33626 15.3477 3.33488 15.3471 3.33368C15.3468 3.33308 15.3466 3.33252 15.3463 3.33201C15.3462 3.33175 15.346 3.3314 15.346 3.33127C15.3458 3.33093 15.3457 3.3306 14.8939 3.54486C14.4421 3.75912 14.442 3.75881 14.4418 3.75852C14.4418 3.75843 14.4417 3.75814 14.4416 3.75797C14.4414 3.75763 14.4413 3.75733 14.4412 3.75707C14.4409 3.75655 14.4408 3.7562 14.4407 3.75601C14.4405 3.75562 14.4406 3.75588 14.441 3.75678C14.4418 3.75858 14.4437 3.76292 14.4466 3.76971C14.4522 3.78331 14.4616 3.80665 14.4731 3.83907C14.4963 3.90398 14.5281 4.00464 14.5571 4.13562C14.6151 4.39782 14.6612 4.77821 14.6068 5.23614C14.5001 6.13424 13.9977 7.40469 12.2643 8.70137L12.8633 9.50213ZM8.22948 12.0836C8.68378 12.0836 9.06892 12.3849 9.18231 12.8054L10.1478 12.5451C9.91631 11.6865 9.1341 11.0836 8.22948 11.0836V12.0836ZM11.0137 12.3441H9.87272V13.3441H11.0137V12.3441ZM7.2776 12.8095C7.3931 12.3863 7.77995 12.0836 8.22948 12.0836V11.0836C7.32362 11.0836 6.54566 11.6933 6.31288 12.5462L7.2776 12.8095ZM3.86959 12.0836C4.31913 12.0836 4.70598 12.3863 4.82148 12.8095L5.78619 12.5462C5.55342 11.6933 4.77545 11.0836 3.86959 11.0836V12.0836ZM6.58783 12.3459H5.51124V13.3459H6.58783V12.3459ZM2.9176 12.8099C3.03297 12.3865 3.41992 12.0836 3.86959 12.0836V11.0836C2.96346 11.0836 2.1853 11.6937 1.95278 12.547L2.9176 12.8099ZM3.3076 6.04743C2.17234 6.76654 1.36739 7.70552 0.892258 8.85728C0.419679 10.0028 0.285733 11.3283 0.438578 12.8084L1.43329 12.7057C1.29245 11.3418 1.42353 10.1917 1.81669 9.23863C2.20729 8.29178 2.8688 7.50911 3.84271 6.89221L3.3076 6.04743ZM2.22776 12.3466H1.03505V13.3466H2.22776V12.3466ZM7.25652 7.17357C6.73051 7.64738 6.15698 8.0461 5.53191 8.3841L6.00756 9.26373C6.69806 8.89035 7.33736 8.44663 7.9258 7.91658L7.25652 7.17357ZM4.05106 6.31646L3.93497 5.95622L2.98317 6.26293L3.09925 6.62317L4.05106 6.31646ZM5.52492 8.38795C5.37316 8.47317 5.15025 8.50741 4.95338 8.46389C4.76435 8.42211 4.66695 8.32903 4.6298 8.21971L3.68297 8.54141C3.86178 9.06771 4.30628 9.34499 4.73754 9.44032C5.16096 9.53392 5.63675 9.47203 6.01455 9.25988L5.52492 8.38795ZM0.438578 12.8084C0.470018 13.1128 0.726678 13.3466 1.03505 13.3466V12.3466C1.24149 12.3466 1.41232 12.5026 1.43329 12.7057L0.438578 12.8084ZM1.95278 12.547C1.97685 12.4587 2.0678 12.3466 2.22776 12.3466V13.3466C2.58541 13.3466 2.84156 13.089 2.9176 12.8099L1.95278 12.547ZM3.70211 4.5132C3.04099 4.83915 2.76942 5.59959 2.98317 6.26293L3.93497 5.95622C3.86085 5.7262 3.9636 5.49921 4.14432 5.41011L3.70211 4.5132ZM4.82148 12.8095C4.89761 13.0885 5.15372 13.3459 5.51124 13.3459V12.3459C5.67115 12.3459 5.76209 12.4579 5.78619 12.5462L4.82148 12.8095ZM9.18231 12.8054C9.25773 13.0851 9.514 13.3441 9.87272 13.3441V12.3441C10.0332 12.3441 10.124 12.4568 10.1478 12.5451L9.18231 12.8054ZM10.6145 12.7317C10.6205 12.519 10.7944 12.3441 11.0137 12.3441V13.3441C11.3421 13.3441 11.605 13.0819 11.6141 12.76L10.6145 12.7317ZM6.31288 12.5462C6.33698 12.4579 6.42793 12.3459 6.58783 12.3459V13.3459C6.94536 13.3459 7.20147 13.0885 7.2776 12.8095L6.31288 12.5462Z" fill="#767A8A"/>
<path fill-rule="evenodd" clip-rule="evenodd" d="M9.25884 7.3201C9.16357 7.25888 9.10631 7.14735 9.14353 7.0404C9.24303 6.7545 9.49967 6.54327 9.81121 6.50942C10.1851 6.46878 10.5367 6.69467 10.6551 7.05166C10.7538 7.34909 10.6683 7.6703 10.4496 7.87961C10.3678 7.95791 10.2426 7.95218 10.1473 7.89097L9.25884 7.3201Z" fill="#767A8A"/>
</svg>
