<!-- Copyright 2000-2021 JetBrains s.r.o. and contributors. Use of this source code is governed by the Apache 2.0 license that can be found in the LICENSE file. -->
<svg width="20" height="20" viewBox="0 0 20 20" fill="none" xmlns="http://www.w3.org/2000/svg">
<path d="M14.5065 3.67743C14.1946 3.94999 14.1627 4.42379 14.4352 4.7357C14.7078 5.0476 15.1816 5.0795 15.4935 4.80694L14.5065 3.67743ZM4.46876 8.49999L5.18639 8.28169L5.18261 8.26996L4.46876 8.49999ZM9.99073 10.4013C10.2985 10.1241 10.3232 9.64987 10.046 9.3421C9.7688 9.03434 9.29457 9.00958 8.98681 9.28681L9.99073 10.4013ZM7.21199 11.4426L6.8552 10.7828L6.84477 10.7887L7.21199 11.4426ZM5.1953 10.8884L4.47776 11.1067L4.48128 11.1183L4.48517 11.1297L5.1953 10.8884ZM15.7045 11.7899L15.2553 11.1893L15.255 11.1896L15.7045 11.7899ZM1.17206 16.3813L1.91797 16.3032L1.17206 16.3813ZM4.72247 6.70595L4.38055 6.03843L4.72247 6.70595ZM4.26205 7.8585L4.9759 7.62847L4.26205 7.8585ZM6.64046 16.3017L7.36837 16.121L6.64046 16.3017ZM12.0919 16.2986L11.3634 16.4769L12.0919 16.2986ZM13.892 16.3697L13.1422 16.3503L13.892 16.3697ZM8.48302 16.3017L9.21094 16.4824L8.48302 16.3017ZM19.2935 4.51963C18.9929 3.89236 18.363 3.21848 17.5048 2.92976C16.5872 2.62107 15.5216 2.79035 14.5065 3.67743L15.4935 4.80694C16.1502 4.23306 16.6667 4.23045 17.0265 4.35147C17.4456 4.49245 17.7884 4.84985 17.9409 5.16796L19.2935 4.51963ZM17.9531 5.19234C18.0779 5.43004 18.0769 5.9233 17.7492 6.4246C17.4456 6.88894 16.9216 7.24999 16.2031 7.24999V8.74999C17.4847 8.74999 18.4567 8.0837 19.0047 7.24533C19.5286 6.44391 19.7346 5.35906 19.2813 4.49525L17.9531 5.19234ZM16.2031 7.24999C15.7377 7.24999 15.211 7.05253 14.4902 6.6898C13.8168 6.35096 12.9636 5.86069 12.0341 5.48858C10.0782 4.70556 7.63791 4.36994 4.38055 6.03843L5.06439 7.37348C7.88834 5.92699 9.87115 6.2384 11.4766 6.88114C12.3279 7.22191 13.0399 7.6392 13.8159 8.02971C14.5445 8.39633 15.3513 8.74999 16.2031 8.74999V7.24999ZM5.91283 10.6702L5.1863 8.28172L3.75122 8.71826L4.47776 11.1067L5.91283 10.6702ZM14.6417 16.3891C14.6842 14.7463 15.1457 13.1454 16.1541 12.3902L15.255 11.1896C13.6687 12.3775 13.1875 14.5997 13.1422 16.3503L14.6417 16.3891ZM16.1538 12.3905C18.5933 10.5656 19.4418 8.65092 19.6237 7.12017C19.7131 6.36813 19.6383 5.73539 19.5386 5.2851C19.4888 5.05978 19.4324 4.8789 19.3864 4.74986C19.3634 4.68528 19.3429 4.63346 19.327 4.59531C19.319 4.57622 19.3122 4.56054 19.3067 4.54836C19.304 4.54227 19.3016 4.53705 19.2997 4.53272C19.2987 4.53056 19.2978 4.52861 19.2969 4.5269C19.2965 4.52604 19.2962 4.52523 19.2958 4.52448C19.2956 4.52411 19.2954 4.52359 19.2953 4.52341C19.2951 4.5229 19.2948 4.52241 18.6172 4.8438C17.9395 5.16518 17.9393 5.16472 17.9391 5.16427C17.939 5.16414 17.9388 5.1637 17.9387 5.16343C17.9385 5.1629 17.9382 5.16242 17.938 5.16198C17.9376 5.16112 17.9373 5.16046 17.9371 5.16C17.9367 5.15908 17.9366 5.15896 17.9369 5.15964C17.9375 5.16098 17.9395 5.16547 17.9427 5.173C17.949 5.18807 17.9598 5.2152 17.9735 5.25353C18.0009 5.33032 18.0391 5.45113 18.0741 5.60926C18.1442 5.92587 18.2003 6.38707 18.1342 6.94315C18.0052 8.02866 17.3973 9.58704 15.2553 11.1893L16.1538 12.3905ZM10.2867 15.6423C10.8072 15.6423 11.245 15.9929 11.3634 16.4769L12.8204 16.1204C12.5368 14.9613 11.4943 14.1423 10.2867 14.1423V15.6423ZM13.7915 15.7179H12.2976V17.2179H13.7915V15.7179ZM9.21094 16.4824C9.3321 15.9942 9.77297 15.6423 10.2867 15.6423V14.1423C9.07679 14.1423 8.04063 14.9707 7.75511 16.121L9.21094 16.4824ZM4.83681 15.6423C5.3505 15.6423 5.79138 15.9942 5.91254 16.4824L7.36837 16.121C7.08285 14.9707 6.04669 14.1423 4.83681 14.1423V15.6423ZM8.27756 15.7201H6.84592V17.2201H8.27756V15.7201ZM3.76096 16.4828C3.88197 15.9944 4.32295 15.6423 4.83681 15.6423V14.1423C3.62656 14.1423 2.59014 14.9712 2.30499 16.1221L3.76096 16.4828ZM4.06743 7.86641C2.62512 8.78 1.59979 9.97636 0.995823 11.4458C0.395726 12.9058 0.230152 14.5894 0.426143 16.4595L1.91797 16.3032C1.74023 14.6071 1.90201 13.1868 2.3832 12.016C2.86053 10.8547 3.67041 9.89349 4.87009 9.13358L4.06743 7.86641ZM2.82749 15.721H1.27125V17.221H2.82749V15.721ZM8.98681 9.28681C8.3371 9.87205 7.62841 10.3648 6.85525 10.7829L7.56873 12.1023C8.44002 11.6312 9.24738 11.0709 9.99073 10.4013L8.98681 9.28681ZM5.18261 8.26996L4.9759 7.62847L3.54819 8.08853L3.75491 8.73002L5.18261 8.26996ZM6.84477 10.7887C6.68332 10.8793 6.43629 10.9187 6.21852 10.8705C6.01251 10.825 5.93415 10.7317 5.90543 10.6471L4.48517 11.1297C4.7264 11.8397 5.32541 12.2093 5.89476 12.3352C6.45236 12.4584 7.0787 12.3776 7.57921 12.0966L6.84477 10.7887ZM0.426143 16.4595C0.471164 16.8891 0.833368 17.221 1.27125 17.221V15.721C1.6072 15.721 1.88358 15.9749 1.91797 16.3032L0.426143 16.4595ZM2.30499 16.1221C2.35401 15.9242 2.54127 15.721 2.82749 15.721V17.221C3.31139 17.221 3.66439 16.8726 3.76096 16.4828L2.30499 16.1221ZM4.38055 6.03843C3.6149 6.4306 3.29881 7.31462 3.54819 8.08853L4.9759 7.62847C4.93741 7.50903 4.99465 7.40919 5.06439 7.37348L4.38055 6.03843ZM5.91254 16.4824C6.00924 16.872 6.36219 17.2201 6.84592 17.2201V15.7201C7.13203 15.7201 7.31927 15.9232 7.36837 16.121L5.91254 16.4824ZM11.3634 16.4769C11.459 16.8677 11.8123 17.2179 12.2976 17.2179V15.7179C12.5847 15.7179 12.7719 15.9222 12.8204 16.1204L11.3634 16.4769ZM13.1422 16.3503C13.1512 16.0014 13.4364 15.7179 13.7915 15.7179V17.2179C14.2558 17.2179 14.6299 16.8471 14.6417 16.3891L13.1422 16.3503ZM7.75511 16.121C7.80421 15.9232 7.99145 15.7201 8.27756 15.7201V17.2201C8.76129 17.2201 9.11424 16.872 9.21094 16.4824L7.75511 16.121Z" fill="#767A8A"/>
<path fill-rule="evenodd" clip-rule="evenodd" d="M11.5344 9.53786C11.4391 9.47665 11.3827 9.3657 11.415 9.25714C11.5276 8.8776 11.8585 8.59351 12.2637 8.54947C12.7311 8.49868 13.1706 8.78104 13.3186 9.22727C13.4469 9.61414 13.3261 10.0332 13.0277 10.2934C12.9423 10.3678 12.8179 10.3626 12.7227 10.3014L11.5344 9.53786Z" fill="#767A8A"/>
</svg>
