<!-- Copyright 2000-2021 JetBrains s.r.o. and contributors. Use of this source code is governed by the Apache 2.0 license that can be found in the LICENSE file. -->
<svg width="20" height="20" viewBox="0 0 20 20" fill="none" xmlns="http://www.w3.org/2000/svg">
<path d="M14.5066 3.67743C14.1946 3.94999 14.1627 4.42379 14.4353 4.7357C14.7079 5.0476 15.1817 5.0795 15.4936 4.80694L14.5066 3.67743ZM4.46882 8.49999L5.18645 8.28169L5.18267 8.26996L4.46882 8.49999ZM9.99079 10.4013C10.2986 10.1241 10.3233 9.64987 10.0461 9.3421C9.76886 9.03434 9.29463 9.00958 8.98687 9.28681L9.99079 10.4013ZM7.21205 11.4426L6.85526 10.7828L6.84483 10.7887L7.21205 11.4426ZM5.19536 10.8884L4.47782 11.1067L4.48134 11.1183L4.48523 11.1297L5.19536 10.8884ZM15.7046 11.7899L15.2553 11.1893L15.255 11.1896L15.7046 11.7899ZM1.17212 16.3813L1.91803 16.3032L1.17212 16.3813ZM4.72253 6.70595L4.38061 6.03843L4.72253 6.70595ZM4.26211 7.8585L4.97596 7.62847L4.26211 7.8585ZM6.64052 16.3017L7.36843 16.121L6.64052 16.3017ZM12.092 16.2986L11.3635 16.4769L12.092 16.2986ZM13.892 16.3697L13.1423 16.3503L13.892 16.3697ZM8.48308 16.3017L9.211 16.4824L8.48308 16.3017ZM19.2936 4.51963C18.9929 3.89236 18.3631 3.21848 17.5048 2.92976C16.5872 2.62107 15.5217 2.79035 14.5066 3.67743L15.4936 4.80694C16.1503 4.23306 16.6668 4.23045 17.0266 4.35147C17.4456 4.49245 17.7885 4.84985 17.9409 5.16796L19.2936 4.51963ZM17.9532 5.19234C18.0779 5.43004 18.0769 5.9233 17.7492 6.4246C17.4457 6.88894 16.9216 7.24999 16.2032 7.24999V8.74999C17.4847 8.74999 18.4568 8.0837 19.0048 7.24533C19.5287 6.44391 19.7347 5.35906 19.2813 4.49525L17.9532 5.19234ZM16.2032 7.24999C15.7378 7.24999 15.2111 7.05253 14.4902 6.6898C13.8169 6.35096 12.9637 5.86069 12.0342 5.48858C10.0783 4.70556 7.63797 4.36994 4.38061 6.03843L5.06445 7.37348C7.8884 5.92699 9.87121 6.2384 11.4767 6.88114C12.3279 7.22191 13.04 7.6392 13.816 8.02971C14.5446 8.39633 15.3514 8.74999 16.2032 8.74999V7.24999ZM5.9129 10.6702L5.18636 8.28172L3.75128 8.71826L4.47782 11.1067L5.9129 10.6702ZM14.6418 16.3891C14.6843 14.7463 15.1457 13.1454 16.1542 12.3902L15.255 11.1896C13.6687 12.3775 13.1875 14.5997 13.1423 16.3503L14.6418 16.3891ZM16.1538 12.3905C18.5934 10.5656 19.4418 8.65092 19.6238 7.12017C19.7131 6.36813 19.6384 5.73539 19.5387 5.2851C19.4888 5.05978 19.4325 4.8789 19.3865 4.74986C19.3634 4.68528 19.3429 4.63346 19.327 4.59531C19.3191 4.57622 19.3122 4.56054 19.3068 4.54836C19.3041 4.54227 19.3017 4.53705 19.2997 4.53272C19.2987 4.53056 19.2978 4.52861 19.297 4.5269C19.2966 4.52604 19.2962 4.52523 19.2959 4.52448C19.2957 4.52411 19.2955 4.52359 19.2954 4.52341C19.2951 4.5229 19.2949 4.52241 18.6172 4.8438C17.9396 5.16518 17.9394 5.16472 17.9392 5.16427C17.9391 5.16414 17.9389 5.1637 17.9388 5.16343C17.9385 5.1629 17.9383 5.16242 17.9381 5.16198C17.9377 5.16112 17.9374 5.16046 17.9372 5.16C17.9367 5.15908 17.9367 5.15896 17.937 5.15964C17.9376 5.16098 17.9396 5.16547 17.9427 5.173C17.949 5.18807 17.9599 5.2152 17.9736 5.25353C18.0009 5.33032 18.0392 5.45113 18.0742 5.60926C18.1442 5.92587 18.2003 6.38707 18.1342 6.94315C18.0052 8.02866 17.3974 9.58704 15.2553 11.1893L16.1538 12.3905ZM10.2867 15.6423C10.8072 15.6423 11.245 15.9929 11.3635 16.4769L12.8205 16.1204C12.5368 14.9613 11.4944 14.1423 10.2867 14.1423V15.6423ZM13.7916 15.7179H12.2977V17.2179H13.7916V15.7179ZM9.211 16.4824C9.33216 15.9942 9.77303 15.6423 10.2867 15.6423V14.1423C9.07685 14.1423 8.04069 14.9707 7.75517 16.121L9.211 16.4824ZM4.83687 15.6423C5.35057 15.6423 5.79144 15.9942 5.9126 16.4824L7.36843 16.121C7.08291 14.9707 6.04675 14.1423 4.83687 14.1423V15.6423ZM8.27762 15.7201H6.84598V17.2201H8.27762V15.7201ZM3.76102 16.4828C3.88203 15.9944 4.32301 15.6423 4.83687 15.6423V14.1423C3.62662 14.1423 2.5902 14.9712 2.30505 16.1221L3.76102 16.4828ZM4.06749 7.86641C2.62519 8.78 1.59985 9.97636 0.995884 11.4458C0.395787 12.9058 0.230213 14.5894 0.426204 16.4595L1.91803 16.3032C1.74029 14.6071 1.90207 13.1868 2.38326 12.016C2.86059 10.8547 3.67047 9.89349 4.87015 9.13358L4.06749 7.86641ZM2.82755 15.721H1.27131V17.221H2.82755V15.721ZM8.98687 9.28681C8.33716 9.87205 7.62847 10.3648 6.85531 10.7829L7.56879 12.1023C8.44008 11.6312 9.24744 11.0709 9.99079 10.4013L8.98687 9.28681ZM5.18267 8.26996L4.97596 7.62847L3.54825 8.08853L3.75497 8.73002L5.18267 8.26996ZM6.84483 10.7887C6.68338 10.8793 6.43635 10.9187 6.21858 10.8705C6.01257 10.825 5.93421 10.7317 5.90549 10.6471L4.48523 11.1297C4.72646 11.8397 5.32547 12.2093 5.89483 12.3352C6.45242 12.4584 7.07876 12.3776 7.57927 12.0966L6.84483 10.7887ZM0.426204 16.4595C0.471225 16.8891 0.833429 17.221 1.27131 17.221V15.721C1.60726 15.721 1.88364 15.9749 1.91803 16.3032L0.426204 16.4595ZM2.30505 16.1221C2.35408 15.9242 2.54133 15.721 2.82755 15.721V17.221C3.31145 17.221 3.66445 16.8726 3.76102 16.4828L2.30505 16.1221ZM4.38061 6.03843C3.61496 6.4306 3.29887 7.31462 3.54825 8.08853L4.97596 7.62847C4.93747 7.50903 4.99472 7.40919 5.06445 7.37348L4.38061 6.03843ZM5.9126 16.4824C6.0093 16.872 6.36225 17.2201 6.84598 17.2201V15.7201C7.13209 15.7201 7.31933 15.9232 7.36843 16.121L5.9126 16.4824ZM11.3635 16.4769C11.4591 16.8677 11.8123 17.2179 12.2977 17.2179V15.7179C12.5847 15.7179 12.772 15.9222 12.8205 16.1204L11.3635 16.4769ZM13.1423 16.3503C13.1513 16.0014 13.4365 15.7179 13.7916 15.7179V17.2179C14.2559 17.2179 14.6299 16.8471 14.6418 16.3891L13.1423 16.3503ZM7.75517 16.121C7.80427 15.9232 7.99151 15.7201 8.27762 15.7201V17.2201C8.76135 17.2201 9.1143 16.872 9.211 16.4824L7.75517 16.121Z" fill="#CED0D6"/>
<path fill-rule="evenodd" clip-rule="evenodd" d="M11.5345 9.53786C11.4392 9.47665 11.3828 9.3657 11.415 9.25714C11.5276 8.8776 11.8585 8.59351 12.2638 8.54947C12.7312 8.49868 13.1706 8.78104 13.3187 9.22727C13.447 9.61414 13.3261 10.0332 13.0277 10.2934C12.9424 10.3678 12.818 10.3626 12.7227 10.3014L11.5345 9.53786Z" fill="#CED0D6"/>
</svg>
