<svg width="20" height="20" viewBox="0 0 20 20" fill="none" xmlns="http://www.w3.org/2000/svg">
<path fill-rule="evenodd" clip-rule="evenodd" d="M9 2.5H11C11.2761 2.5 11.5 2.72386 11.5 3V5C11.5 5.27614 11.2761 5.5 11 5.5H9C8.72386 5.5 8.5 5.27614 8.5 5V3C8.5 2.72386 8.72386 2.5 9 2.5ZM7 3C7 1.89543 7.89543 1 9 1H11C12.1046 1 13 1.89543 13 3V5C13 6.10457 12.1046 7 11 7H10.75V9H13.25C14.0784 9 14.75 9.67157 14.75 10.5V13H15C16.1046 13 17 13.8954 17 15V17C17 18.1046 16.1046 19 15 19H13C11.8954 19 11 18.1046 11 17V15C11 13.8954 11.8954 13 13 13H13.25V10.5H6.75V13H7C8.10457 13 9 13.8954 9 15V17C9 18.1046 8.10457 19 7 19H5C3.89543 19 3 18.1046 3 17V15C3 13.8954 3.89543 13 5 13H5.25V10.5C5.25 9.67157 5.92157 9 6.75 9H9.25V7H9C7.89543 7 7 6.10457 7 5V3ZM7 14.5H5C4.72386 14.5 4.5 14.7239 4.5 15V17C4.5 17.2761 4.72386 17.5 5 17.5H7C7.27614 17.5 7.5 17.2761 7.5 17V15C7.5 14.7239 7.27614 14.5 7 14.5ZM15 14.5H13C12.7239 14.5 12.5 14.7239 12.5 15V17C12.5 17.2761 12.7239 17.5 13 17.5H15C15.2761 17.5 15.5 17.2761 15.5 17V15C15.5 14.7239 15.2761 14.5 15 14.5Z" fill="#CED0D6"/>
</svg>
