<!-- Copyright 2000-2022 JetBrains s.r.o. and contributors. Use of this source code is governed by the Apache 2.0 license. -->
<svg width="20" height="20" viewBox="0 0 20 20" fill="none" xmlns="http://www.w3.org/2000/svg">
<path d="M9.99961 2.5L10.3638 1.84438C10.1373 1.71854 9.86189 1.71854 9.63538 1.84438L9.99961 2.5ZM19.1496 7.58333H19.8996C19.8996 7.31096 19.7519 7.05999 19.5138 6.92772L19.1496 7.58333ZM9.99961 12.6667L9.63538 13.3223C9.86189 13.4481 10.1373 13.4481 10.3638 13.3223L9.99961 12.6667ZM0.849609 7.58333L0.485377 6.92772C0.247278 7.05999 0.0996094 7.31096 0.0996094 7.58333C0.0996094 7.85571 0.247278 8.10667 0.485377 8.23895L0.849609 7.58333ZM18.3996 12.6667C18.3996 13.0809 18.7354 13.4167 19.1496 13.4167C19.5638 13.4167 19.8996 13.0809 19.8996 12.6667H18.3996ZM9.63538 3.15562L18.7854 8.23895L19.5138 6.92772L10.3638 1.84438L9.63538 3.15562ZM18.7854 6.92772L9.63538 12.011L10.3638 13.3223L19.5138 8.23895L18.7854 6.92772ZM10.3638 12.011L1.21384 6.92772L0.485377 8.23895L9.63538 13.3223L10.3638 12.011ZM1.21384 8.23895L10.3638 3.15562L9.63538 1.84438L0.485377 6.92772L1.21384 8.23895ZM18.3996 7.58333V12.6667H19.8996V7.58333H18.3996Z" fill="#6C707E"/>
<path fill-rule="evenodd" clip-rule="evenodd" d="M3.75 9.02771V14.4999C3.75 14.7744 3.89992 15.0269 4.14086 15.1584L9.64086 18.1584C9.86472 18.2805 10.1353 18.2805 10.3591 18.1584L15.8591 15.1584C16.1001 15.0269 16.25 14.7744 16.25 14.4999V9.02771L14.75 9.86104V14.0547L10 16.6456L5.25 14.0547V9.86104L3.75 9.02771Z" fill="#6C707E"/>
</svg>
