<!-- Copyright 2000-2021 JetBrains s.r.o. and contributors. Use of this source code is governed by the Apache 2.0 license that can be found in the LICENSE file. -->
<svg width="20" height="20" viewBox="0 0 20 20" fill="none" xmlns="http://www.w3.org/2000/svg">
<path fill-rule="evenodd" clip-rule="evenodd" d="M4.25 9.80556V15C4.25 15.2841 4.4105 15.5438 4.66459 15.6708L9.66459 18.1708C9.87574 18.2764 10.1243 18.2764 10.3354 18.1708L15.3354 15.6708C15.5895 15.5438 15.75 15.2841 15.75 15V9.80556L14.25 10.6389V14.5365L10 16.6615L5.75 14.5365V10.6389L4.25 9.80556Z" fill="#767A8A"/>
<path d="M10 3L10.3642 2.34438C10.1377 2.21854 9.86228 2.21854 9.63577 2.34438L10 3ZM19 8H19.75C19.75 7.72762 19.6023 7.47666 19.3642 7.34438L19 8ZM10 13L9.63577 13.6556C9.86228 13.7815 10.1377 13.7815 10.3642 13.6556L10 13ZM1 8L0.635768 7.34438C0.397669 7.47666 0.25 7.72762 0.25 8C0.25 8.27238 0.397669 8.52334 0.635768 8.65562L1 8ZM18.25 13C18.25 13.4142 18.5858 13.75 19 13.75C19.4142 13.75 19.75 13.4142 19.75 13H18.25ZM9.63577 3.65562L18.6358 8.65562L19.3642 7.34438L10.3642 2.34438L9.63577 3.65562ZM18.6358 7.34438L9.63577 12.3444L10.3642 13.6556L19.3642 8.65562L18.6358 7.34438ZM10.3642 12.3444L1.36423 7.34438L0.635768 8.65562L9.63577 13.6556L10.3642 12.3444ZM1.36423 8.65562L10.3642 3.65562L9.63577 2.34438L0.635768 7.34438L1.36423 8.65562ZM18.25 8V13H19.75V8H18.25Z" fill="#767A8A"/>
</svg>
