<!-- Copyright 2000-2022 JetBrains s.r.o. and contributors. Use of this source code is governed by the Apache 2.0 license. -->
<svg width="16" height="16" viewBox="0 0 16 16" fill="none" xmlns="http://www.w3.org/2000/svg">
<path fill-rule="evenodd" clip-rule="evenodd" d="M3.5 7.77777V11.75C3.5 11.9394 3.607 12.1125 3.77639 12.1972L7.77639 14.1972C7.91716 14.2676 8.08284 14.2676 8.22361 14.1972L12.2236 12.1972C12.393 12.1125 12.5 11.9394 12.5 11.75V7.77777L11.5 8.33333V11.441L8 13.191L4.5 11.441V8.33333L3.5 7.77777Z" fill="#6C707E"/>
<path d="M8 2.5L8.24282 2.06292C8.09181 1.97903 7.90819 1.97903 7.75718 2.06292L8 2.5ZM15 6.38889H15.5C15.5 6.20731 15.4016 6.04 15.2428 5.95181L15 6.38889ZM8 10.2778L7.75718 10.7149C7.90819 10.7988 8.09181 10.7988 8.24282 10.7149L8 10.2778ZM1 6.38889L0.757179 5.95181C0.598446 6.04 0.5 6.20731 0.5 6.38889C0.5 6.57047 0.598446 6.73778 0.757179 6.82597L1 6.38889ZM14.5 10.2778C14.5 10.5539 14.7239 10.7778 15 10.7778C15.2761 10.7778 15.5 10.5539 15.5 10.2778H14.5ZM7.75718 2.93708L14.7572 6.82597L15.2428 5.95181L8.24282 2.06292L7.75718 2.93708ZM14.7572 5.95181L7.75718 9.8407L8.24282 10.7149L15.2428 6.82597L14.7572 5.95181ZM8.24282 9.8407L1.24282 5.95181L0.757179 6.82597L7.75718 10.7149L8.24282 9.8407ZM1.24282 6.82597L8.24282 2.93708L7.75718 2.06292L0.757179 5.95181L1.24282 6.82597ZM14.5 6.38889V10.2778H15.5V6.38889H14.5Z" fill="#6C707E"/>
</svg>
