<!-- Copyright 2000-2021 JetBrains s.r.o. and contributors. Use of this source code is governed by the Apache 2.0 license that can be found in the LICENSE file. -->
<svg width="21" height="20" viewBox="0 0 21 20" fill="none" xmlns="http://www.w3.org/2000/svg">
<path d="M16.6823 4.24219C19.2594 4.24219 19.7071 6.41053 19.2594 8.36434L17.6002 15.8803C17.4808 16.4208 16.9241 16.7668 16.3566 16.6532C15.7891 16.5395 15.4258 16.0093 15.5451 15.4688L17.1089 8.36434C17.8221 5.26617 13.7784 5.64829 12.1378 7.94885L10.3681 15.8858C10.2488 16.4263 9.69201 16.7723 9.12452 16.6587C9.10124 16.654 9.0783 16.6487 9.05573 16.6426C8.51552 16.5098 8.17557 15.9941 8.29154 15.4688L9.8614 8.35937C10.1882 6.96051 9.51703 6.27258 8.54223 6.15206C7.38191 6.02763 5.79264 6.71065 4.9057 7.95436L4.90453 7.94597L4.90261 7.94885L3.12723 15.8935C3.00666 16.4337 2.44909 16.7786 1.88187 16.6638C1.31464 16.5489 0.95255 16.0179 1.07312 15.4777L3.35827 5.23883C3.47884 4.69862 4.03641 4.35377 4.60364 4.4686C5.24835 4.59911 5.51367 5.19036 5.38943 5.75747C6.57629 4.82239 7.95942 4.16173 9.54047 4.2486C11.0839 4.27962 11.8384 5.10897 12.0852 6.1938C13.5082 4.97728 14.7106 4.24219 16.6823 4.24219Z" fill="#737580"/>
</svg>
