<!-- Copyright 2000-2021 JetBrains s.r.o. and contributors. Use of this source code is governed by the Apache 2.0 license that can be found in the LICENSE file. -->
<svg width="20" height="20" viewBox="0 0 20 20" fill="none" xmlns="http://www.w3.org/2000/svg">
<path d="M16.4523 4.00125C19.0295 4.00125 19.4772 6.16959 19.0295 8.1234L17.3702 15.6394C17.2509 16.1799 16.6941 16.5259 16.1266 16.4122C15.5591 16.2986 15.1958 15.7683 15.3151 15.2279L16.8789 8.1234C17.5921 5.02524 13.5484 5.40735 11.9078 7.70791L10.1381 15.6449C10.0188 16.1854 9.46206 16.5314 8.89457 16.4177C8.87129 16.4131 8.84835 16.4077 8.82578 16.4017C8.28557 16.2688 7.94562 15.7532 8.06159 15.2279L9.63145 8.11843C9.95826 6.71957 9.28708 6.03165 8.31228 5.91113C7.15196 5.78669 5.56269 6.46971 4.67575 7.71342L4.67458 7.70503L4.67266 7.70791L2.89728 15.6526C2.77671 16.1928 2.21914 16.5377 1.65192 16.4228C1.08469 16.308 0.7226 15.777 0.843168 15.2368L3.12832 4.9979C3.24889 4.45768 3.80646 4.11284 4.37369 4.22766C5.0184 4.35817 5.28372 4.94942 5.15948 5.51654C6.34634 4.58145 7.72947 3.9208 9.31052 4.00767C10.8539 4.03868 11.6085 4.86803 11.8553 5.95287C13.2783 4.73635 14.4806 4.00125 16.4523 4.00125Z" fill="#767A8A"/>
</svg>
