<!-- Copyright 2000-2021 JetBrains s.r.o. and contributors. Use of this source code is governed by the Apache 2.0 license that can be found in the LICENSE file. -->
<svg width="16" height="16" viewBox="0 0 16 16" fill="none" xmlns="http://www.w3.org/2000/svg">
<path d="M13.1619 3.20101C15.2236 3.20101 15.5817 4.93569 15.2236 6.49873L13.8962 12.5115C13.8007 12.9439 13.3553 13.2207 12.9013 13.1298C12.4473 13.0389 12.1567 12.6147 12.2521 12.1823L13.5031 6.49873C14.0737 4.0202 10.8387 4.3259 9.52625 6.16634L8.11051 12.5159C8.01506 12.9483 7.56965 13.2251 7.11565 13.1342C7.09703 13.1305 7.07868 13.1262 7.06062 13.1214C6.62846 13.0151 6.3565 12.6026 6.44927 12.1823L7.70516 6.49476C7.96661 5.37567 7.42967 4.82533 6.64982 4.72891C5.72157 4.62936 4.45016 5.17578 3.7406 6.17075L3.73966 6.16404L3.73813 6.16634L2.31782 12.5221C2.22137 12.9543 1.77531 13.2301 1.32153 13.1383C0.867751 13.0464 0.57808 12.6216 0.674534 12.1894L2.50266 3.99833C2.59911 3.56616 3.04517 3.29028 3.49895 3.38214C4.01472 3.48655 4.22697 3.95955 4.12758 4.41324C5.07707 3.66517 6.18358 3.13665 7.44841 3.20615C8.68315 3.23096 9.28678 3.89444 9.48422 4.76231C10.6226 3.78909 11.5845 3.20101 13.1619 3.20101Z" fill="#767A8A"/>
</svg>
