<!-- Copyright 2000-2021 JetBrains s.r.o. and contributors. Use of this source code is governed by the Apache 2.0 license that can be found in the LICENSE file. -->
<svg width="20" height="20" viewBox="0 0 20 20" fill="none" xmlns="http://www.w3.org/2000/svg">
<path d="M16.4523 4.00125C19.0294 4.00125 19.4771 6.16959 19.0294 8.1234L17.3701 15.6394C17.2508 16.1799 16.6941 16.5259 16.1266 16.4122C15.5591 16.2986 15.1958 15.7683 15.3151 15.2279L16.8788 8.1234C17.5921 5.02524 13.5484 5.40735 11.9078 7.70791L10.1381 15.6449C10.0188 16.1854 9.462 16.5314 8.8945 16.4177C8.87123 16.4131 8.84829 16.4077 8.82572 16.4017C8.28551 16.2688 7.94556 15.7532 8.06153 15.2279L9.63138 8.11843C9.9582 6.71957 9.28702 6.03165 8.31222 5.91113C7.1519 5.78669 5.56263 6.46971 4.67569 7.71342L4.67451 7.70503L4.6726 7.70791L2.89722 15.6526C2.77665 16.1928 2.21908 16.5377 1.65185 16.4228C1.08463 16.308 0.722539 15.777 0.843107 15.2368L3.12826 4.9979C3.24883 4.45768 3.8064 4.11284 4.37363 4.22766C5.01834 4.35817 5.28365 4.94942 5.15942 5.51654C6.34628 4.58145 7.72941 3.9208 9.31046 4.00767C10.8539 4.03868 11.6084 4.86803 11.8552 5.95287C13.2782 4.73635 14.4806 4.00125 16.4523 4.00125Z" fill="#CED0D6"/>
</svg>
