<!-- Copyright 2000-2023 JetBrains s.r.o. and contributors. Use of this source code is governed by the Apache 2.0 license. -->
<svg width="16" height="16" viewBox="0 0 16 16" fill="none" xmlns="http://www.w3.org/2000/svg">
<g clip-path="url(#clip0_7112_52127)">
<path d="M5.34572 10.6421C4.36415 9.66813 3.11176 8.992 1.52169 8.49999C3.11175 8.00799 4.36414 7.33186 5.3457 6.35788C6.32825 5.38293 7.00722 4.14149 7.50026 2.57044C7.99332 4.14149 8.67231 5.38293 9.65486 6.35788C10.6364 7.33187 11.8888 8.00799 13.4789 8.5C11.8888 8.99201 10.6364 9.66814 9.65485 10.6421C8.67231 11.6171 7.99335 12.8585 7.50031 14.4295C7.00725 12.8585 6.32827 11.6171 5.34572 10.6421Z" stroke="#CED0D6"/>
<path d="M12.9935 4.90712C14.0454 4.90712 14.8981 4.05439 14.8981 3.00251C14.8981 1.95062 14.0454 1.0979 12.9935 1.0979C11.9416 1.0979 11.0889 1.95062 11.0889 3.00251C11.0889 4.05439 11.9416 4.90712 12.9935 4.90712Z" fill="#CED0D6"/>
</g>
<defs>
<clipPath id="clip0_7112_52127">
<rect width="16" height="16" fill="white"/>
</clipPath>
</defs>
</svg>
