<!-- Copyright 2000-2022 JetBrains s.r.o. and contributors. Use of this source code is governed by the Apache 2.0 license. -->
<svg width="20" height="20" viewBox="0 0 20 20" fill="none" xmlns="http://www.w3.org/2000/svg">
<path d="M8.67717 17.5625H11.3229C11.2515 17.7305 11.148 17.8849 11.0165 18.0164C10.7469 18.286 10.3813 18.4375 10 18.4375C9.61878 18.4375 9.25315 18.286 8.98358 18.0164C8.85202 17.8849 8.74859 17.7305 8.67717 17.5625Z" stroke="#CED0D6" stroke-width="1.12498"/>
<path d="M4.67081 10.3354C4.72288 10.2313 4.74999 10.1164 4.74999 10V7C4.74999 4.97056 5.52681 3.69096 6.52723 2.90116C7.55609 2.08891 8.8818 1.75 9.99999 1.75C11.1182 1.75 12.4439 2.08891 13.4728 2.90116C14.4732 3.69096 15.25 4.97056 15.25 7V10C15.25 10.1164 15.2771 10.2313 15.3292 10.3354L17.4648 14.6067C17.6126 14.9023 17.3977 15.25 17.0672 15.25H2.93274C2.6023 15.25 2.38739 14.9023 2.53516 14.6067L4.67081 10.3354Z" stroke="#CED0D6" stroke-width="1.5" stroke-linejoin="round"/>
</svg>
