<!-- Copyright 2000-2021 JetBrains s.r.o. and contributors. Use of this source code is governed by the Apache 2.0 license that can be found in the LICENSE file. -->
<svg width="16" height="16" viewBox="0 0 16 16" fill="none" xmlns="http://www.w3.org/2000/svg">
<mask id="path-1-inside-1_404:2331" fill="white">
<path fill-rule="evenodd" clip-rule="evenodd" d="M14.8759 13C15.2773 12.0813 15.5 11.0667 15.5 10C15.5 5.85786 12.1421 2.5 8 2.5C3.85786 2.5 0.5 5.85786 0.5 10C0.5 11.0667 0.722671 12.0813 1.12407 13H14.8759Z"/>
</mask>
<path d="M14.8759 13V14H15.5303L15.7923 13.4004L14.8759 13ZM1.12407 13L0.207713 13.4004L0.469701 14H1.12407V13ZM14.5 10C14.5 10.9263 14.3068 11.8048 13.9596 12.5996L15.7923 13.4004C16.2478 12.3578 16.5 11.207 16.5 10H14.5ZM8 3.5C11.5899 3.5 14.5 6.41015 14.5 10H16.5C16.5 5.30558 12.6944 1.5 8 1.5V3.5ZM1.5 10C1.5 6.41015 4.41015 3.5 8 3.5V1.5C3.30558 1.5 -0.5 5.30558 -0.5 10H1.5ZM2.04042 12.5996C1.69315 11.8048 1.5 10.9263 1.5 10H-0.5C-0.5 11.207 -0.247808 12.3578 0.207713 13.4004L2.04042 12.5996ZM1.12407 14H14.8759V12H1.12407V14Z" fill="#CED0D6" mask="url(#path-1-inside-1_404:2331)"/>
<path d="M9.29995 9.15394C9.29995 9.87191 8.71792 10.4539 7.99995 10.4539C7.28198 10.4539 6.69995 9.87191 6.69995 9.15394C6.69995 8.43597 7.28198 7.85394 7.99995 7.85394C8.71792 7.85394 9.29995 8.43597 9.29995 9.15394Z" stroke="#CED0D6"/>
<path d="M9.09033 8.14215L11.0764 6.24399" stroke="#CED0D6" stroke-width="1.1" stroke-linecap="round"/>
</svg>
