<!-- Copyright 2000-2023 JetBrains s.r.o. and contributors. Use of this source code is governed by the Apache 2.0 license. -->
<svg width="16" height="16" viewBox="0 0 16 16" fill="none" xmlns="http://www.w3.org/2000/svg">
<g clip-path="url(#clip0_10731_11065)">
<path d="M1.5 10C1.5 6.41015 4.41015 3.5 8 3.5C11.5898 3.5 14.4999 6.41002 14.5 9.99976C14.7631 9.9995 15.0297 10.0685 15.2718 10.2137C15.3498 10.2605 15.422 10.3133 15.4882 10.3711C15.496 10.2441 15.5 10.1201 15.5 10C15.5 5.85786 12.1421 2.5 8 2.5C3.85786 2.5 0.5 5.85786 0.5 10C0.5 11.1604 0.877241 12.6805 1.36637 13.7304C1.44463 13.8984 1.61594 14 1.80126 14H7.41624C7.57228 13.6429 7.76877 13.3076 7.9998 13H2.13917C1.76974 12.0874 1.5 10.8909 1.5 10Z" fill="#CED0D6"/>
<path d="M9.78578 10.0274C9.79517 9.95294 9.80001 9.87704 9.80001 9.8C9.80001 9.58321 9.76169 9.37537 9.69144 9.18289L12.157 7.20214C12.4154 6.99461 12.4566 6.61695 12.249 6.35861C12.0415 6.10028 11.6638 6.0591 11.4055 6.26663L8.92772 8.25717C8.6568 8.09391 8.33937 8 8.00001 8C7.0059 8 6.20001 8.80589 6.20001 9.8C6.20001 10.7941 7.0059 11.6 8.00001 11.6L8.0031 11.6C7.97698 11.2041 8.10909 10.8081 8.37576 10.5064C8.26373 10.5662 8.13583 10.6 8.00001 10.6C7.55818 10.6 7.20001 10.2418 7.20001 9.8C7.20001 9.35817 7.55818 9 8.00001 9C8.44184 9 8.80001 9.35817 8.80001 9.8C8.80001 9.97198 8.74574 10.1313 8.65339 10.2617C8.67774 10.2451 8.70272 10.2291 8.72833 10.2137C9.05884 10.0154 9.43504 9.95926 9.78578 10.0274Z" fill="#CED0D6"/>
<path fill-rule="evenodd" clip-rule="evenodd" d="M9.92882 11.2428C9.78675 11.006 9.47962 10.9293 9.24283 11.0713C9.00604 11.2134 8.92926 11.5205 9.07133 11.7573L9.66717 12.7504C8.65751 13.4765 8 14.6615 8 16.0001H16C16 14.6615 15.3425 13.4766 14.3329 12.7505L14.9288 11.7573C15.0709 11.5205 14.9941 11.2134 14.7573 11.0713C14.5205 10.9293 14.2134 11.006 14.0713 11.2428L13.4536 12.2724C13.003 12.0966 12.5128 12.0001 12 12.0001C11.4873 12.0001 10.997 12.0965 10.5465 12.2723L9.92882 11.2428ZM10 14.0001H11V15.0001H10V14.0001ZM14 14.0001H13V15.0001H14V14.0001Z" fill="#CED0D6"/>
</g>
<defs>
<clipPath id="clip0_10731_11065">
<rect width="16" height="16" fill="white"/>
</clipPath>
</defs>
</svg>
