<!-- Copyright 2000-2022 JetBrains s.r.o. and contributors. Use of this source code is governed by the Apache 2.0 license. -->
<svg width="16" height="16" viewBox="0 0 16 16" fill="none" xmlns="http://www.w3.org/2000/svg">
<path fill-rule="evenodd" clip-rule="evenodd" d="M12.157 7.20214C12.4154 6.99461 12.4566 6.61695 12.249 6.35861C12.0415 6.10028 11.6638 6.0591 11.4055 6.26663L8.92772 8.25717C8.6568 8.09391 8.33937 8 8.00001 8C7.0059 8 6.20001 8.80589 6.20001 9.8C6.20001 10.7941 7.0059 11.6 8.00001 11.6C8.99412 11.6 9.80001 10.7941 9.80001 9.8C9.80001 9.58321 9.76169 9.37538 9.69144 9.18289L12.157 7.20214ZM8.80001 9.8C8.80001 10.2418 8.44184 10.6 8.00001 10.6C7.55818 10.6 7.20001 10.2418 7.20001 9.8C7.20001 9.35817 7.55818 9 8.00001 9C8.44184 9 8.80001 9.35817 8.80001 9.8Z" fill="#CED0D6"/>
<path fill-rule="evenodd" clip-rule="evenodd" d="M8 3.5C4.41015 3.5 1.5 6.41015 1.5 10C1.5 10.8909 1.76974 12.0874 2.13917 13H13.8608C14.2303 12.0874 14.5 10.8909 14.5 10C14.5 6.41015 11.5899 3.5 8 3.5ZM0.5 10C0.5 5.85786 3.85786 2.5 8 2.5C12.1421 2.5 15.5 5.85786 15.5 10C15.5 11.1604 15.1228 12.6805 14.6336 13.7304C14.5554 13.8984 14.3841 14 14.1987 14H1.80126C1.61594 14 1.44463 13.8984 1.36637 13.7304C0.877241 12.6805 0.5 11.1604 0.5 10Z" fill="#CED0D6"/>
</svg>
