<!-- Copyright 2000-2023 JetBrains s.r.o. and contributors. Use of this source code is governed by the Apache 2.0 license. -->
<svg width="20" height="20" viewBox="0 0 20 20" fill="none" xmlns="http://www.w3.org/2000/svg">
<path fill-rule="evenodd" clip-rule="evenodd" d="M12.3672 14.3232C12.1309 13.9827 11.6641 13.8977 11.3232 14.1335C11.126 14.2698 11.0146 14.4839 11.002 14.706C10.9922 14.8677 11.0342 15.0334 11.1338 15.177L11.8086 16.1511C10.7041 17.0684 10 18.4519 10 20H20C20 18.4521 19.2969 17.0686 18.1924 16.1514L18.8672 15.177C18.9473 15.0618 18.9902 14.9319 18.999 14.8015C19.0156 14.5466 18.9023 14.2893 18.6768 14.1335C18.4902 14.0046 18.2666 13.9714 18.0635 14.0237C17.8945 14.0669 17.7402 14.1687 17.6338 14.3232L16.9053 15.3757C16.3184 15.1335 15.6748 15 15 15C14.3252 15 13.6826 15.1335 13.0957 15.3755L12.3672 14.3232ZM12 18C12 17.4477 12.4477 17 13 17C13.5523 17 14 17.4477 14 18C14 18.5523 13.5523 19 13 19C12.4477 19 12 18.5523 12 18ZM18 18C18 17.4477 17.5523 17 17 17C16.4477 17 16 17.4477 16 18C16 18.5523 16.4477 19 17 19C17.5523 19 18 18.5523 18 18Z" fill="#CED0D6"/>
<path d="M10 4C5.58172 4 2 7.58172 2 12C2 13.1896 2.25763 14.4539 2.69917 15.5H9.62803C9.69074 15.6774 9.77508 15.8446 9.87787 15.9985C9.63385 16.3105 9.41756 16.6457 9.23286 17H2.05933C1.88084 17 1.71482 16.9055 1.63141 16.7477C0.909613 15.3821 0.5 13.6282 0.5 12C0.5 6.75329 4.75329 2.5 10 2.5C15.2467 2.5 19.5 6.75329 19.5 12C19.5 12.2821 19.4877 12.568 19.4636 12.855C19.1135 12.6303 18.697 12.5 18.25 12.5C18.1601 12.5 18.0715 12.5053 17.9843 12.5155C17.9947 12.3427 18 12.1706 18 12C18 7.58172 14.4183 4 10 4Z" fill="#CED0D6"/>
<path fill-rule="evenodd" clip-rule="evenodd" d="M12.144 12.5344C12.2447 12.2757 12.3 11.9943 12.3 11.7C12.3 11.4119 12.247 11.1361 12.1502 10.8819L14.8711 8.62269C15.2323 8.3228 15.282 7.78691 14.9821 7.42574C14.6822 7.06457 14.1463 7.01489 13.7851 7.31478L10.9993 9.62788C10.6971 9.48187 10.3581 9.40002 10 9.40002C8.72976 9.40002 7.70001 10.4298 7.70001 11.7C7.70001 12.8472 8.53986 13.7982 9.63824 13.9717C9.95495 13.1126 10.7809 12.5 11.75 12.5C11.8844 12.5 12.0161 12.5118 12.144 12.5344ZM10.8 11.7C10.8 12.1419 10.4418 12.5 10 12.5C9.55818 12.5 9.20001 12.1419 9.20001 11.7C9.20001 11.2582 9.55818 10.9 10 10.9C10.4418 10.9 10.8 11.2582 10.8 11.7Z" fill="#CED0D6"/>
</svg>
