<!-- Copyright 2000-2022 JetBrains s.r.o. and contributors. Use of this source code is governed by the Apache 2.0 license. -->
<svg width="20" height="20" viewBox="0 0 20 20" fill="none" xmlns="http://www.w3.org/2000/svg">
<path fill-rule="evenodd" clip-rule="evenodd" d="M13 18.25C13.8284 18.25 14.5 17.5784 14.5 16.75C14.5 15.9216 13.8284 15.25 13 15.25C12.1716 15.25 11.5 15.9216 11.5 16.75C11.5 17.5784 12.1716 18.25 13 18.25ZM15.9055 17.5C15.5725 18.7939 14.3979 19.75 13 19.75C11.6021 19.75 10.4275 18.7939 10.0945 17.5H6.75C6.33579 17.5 6 17.1642 6 16.75C6 16.3358 6.33579 16 6.75 16H10.0945C10.4275 14.7061 11.6021 13.75 13 13.75C14.3979 13.75 15.5725 14.7061 15.9055 16H19.25C19.6642 16 20 16.3358 20 16.75C20 17.1642 19.6642 17.5 19.25 17.5H15.9055Z" fill="#CED0D6"/>
<path fill-rule="evenodd" clip-rule="evenodd" d="M10.0397 6.15233L10.4569 6.5H11H17C17.2761 6.5 17.5 6.72386 17.5 7V14.0232H19V7C19 5.89543 18.1046 5 17 5H11L8.27813 2.73178C8.09842 2.58202 7.87189 2.5 7.63795 2.5H3.25C2.00736 2.5 1 3.54467 1 4.83333V15.1667C1 16.4553 2.00736 17.5 3.25 17.5H3.92749V16H3.25C2.88674 16 2.5 15.6788 2.5 15.1667V4.83333C2.5 4.32121 2.88674 4 3.25 4H7.45692L10.0397 6.15233Z" fill="#CED0D6"/>
</svg>
