<!-- Copyright 2000-2021 JetBrains s.r.o. and contributors. Use of this source code is governed by the Apache 2.0 license that can be found in the LICENSE file. -->
<svg width="16" height="16" viewBox="0 0 16 16" fill="none" xmlns="http://www.w3.org/2000/svg">
<path d="M15.2117 7.50028C15.3901 7.80954 15.3901 8.19046 15.2117 8.49972L12.0386 13.9997C11.86 14.3093 11.5298 14.5 11.1724 14.5L4.82756 14.5C4.47018 14.5 4.13997 14.3093 3.96138 13.9997L0.788301 8.49972C0.609882 8.19046 0.609882 7.80954 0.788301 7.50028L3.96138 2.00028C4.13997 1.69072 4.47018 1.5 4.82756 1.5L11.1724 1.5C11.5298 1.5 11.86 1.69072 12.0386 2.00028L15.2117 7.50028Z" stroke="#CED0D6"/>
<path d="M10.5 8.43301L6.75 10.5981C6.41667 10.7905 6 10.55 6 10.1651L6 5.83493C6 5.45004 6.41667 5.20947 6.75 5.40192L10.5 7.56699C10.8333 7.75944 10.8333 8.24056 10.5 8.43301Z" stroke="#CED0D6"/>
</svg>
