<!-- Copyright 2000-2022 JetBrains s.r.o. and contributors. Use of this source code is governed by the Apache 2.0 license. -->
<svg width="20" height="20" viewBox="0 0 20 20" fill="none" xmlns="http://www.w3.org/2000/svg">
<path d="M10.3144 4.75C7.49623 4.75 5.19666 6.97056 5.06994 9.75748L6.09828 8.72914C6.39117 8.43625 6.86605 8.43625 7.15894 8.72914C7.45183 9.02203 7.45183 9.49691 7.15894 9.7898L4.31444 12.6343L1.46994 9.7898C1.17705 9.49691 1.17705 9.02203 1.46994 8.72914C1.76284 8.43625 2.23771 8.43625 2.5306 8.72914L3.56839 9.76693C3.69123 6.14693 6.66453 3.25 10.3144 3.25C11.6717 3.25 12.9374 3.65136 13.9968 4.34207C14.3438 4.56831 14.4417 5.03298 14.2154 5.37996C13.9892 5.72693 13.5245 5.82481 13.1775 5.59858C12.3545 5.06192 11.372 4.75 10.3144 4.75Z" fill="#CED0D6"/>
<path d="M19.159 11.2709C19.4518 10.978 19.4518 10.5031 19.159 10.2102L16.3145 7.36572L13.47 10.2102C13.1771 10.5031 13.1771 10.978 13.47 11.2709C13.7628 11.5638 14.2377 11.5638 14.5306 11.2709L15.5582 10.2433C15.4312 13.0298 13.1317 15.25 10.3138 15.25C9.25619 15.25 8.27374 14.9381 7.45067 14.4014C7.1037 14.1752 6.63902 14.2731 6.41279 14.6201C6.18655 14.967 6.28444 15.4317 6.63141 15.6579C7.69076 16.3487 8.95654 16.75 10.3138 16.75C13.9639 16.75 16.9373 13.8527 17.0598 10.2324L18.0983 11.2709C18.3912 11.5638 18.8661 11.5638 19.159 11.2709Z" fill="#CED0D6"/>
</svg>
