<!-- Copyright 2000-2021 JetBrains s.r.o. and contributors. Use of this source code is governed by the Apache 2.0 license that can be found in the LICENSE file. -->
<svg width="20" height="20" viewBox="0 0 20 20" fill="none" xmlns="http://www.w3.org/2000/svg">
<path fill-rule="evenodd" clip-rule="evenodd" d="M4 3.5H16C16.2761 3.5 16.5 3.72386 16.5 4V16C16.5 16.2761 16.2761 16.5 16 16.5H4C3.72386 16.5 3.5 16.2761 3.5 16V4C3.5 3.72386 3.72386 3.5 4 3.5ZM2 4C2 2.89543 2.89543 2 4 2H16C17.1046 2 18 2.89543 18 4V16C18 17.1046 17.1046 18 16 18H4C2.89543 18 2 17.1046 2 16V4ZM6 13.25C5.58579 13.25 5.25 13.5858 5.25 14C5.25 14.4142 5.58579 14.75 6 14.75H10C10.4142 14.75 10.75 14.4142 10.75 14C10.75 13.5858 10.4142 13.25 10 13.25H6Z" fill="#CED0D6"/>
</svg>
