<!-- Copyright 2000-2021 JetBrains s.r.o. and contributors. Use of this source code is governed by the Apache 2.0 license that can be found in the LICENSE file. -->
<svg width="16" height="16" viewBox="0 0 16 16" fill="none" xmlns="http://www.w3.org/2000/svg">
<ellipse cx="2.7" cy="4.49999" rx="0.7" ry="0.7" fill="#CED0D6"/>
<ellipse cx="2.7" cy="7.99999" rx="0.7" ry="0.7" fill="#CED0D6"/>
<ellipse cx="2.7" cy="11.5" rx="0.7" ry="0.7" fill="#CED0D6"/>
<path d="M5.5 4C5.22386 4 5 4.22386 5 4.5C5 4.77614 5.22386 5 5.5 5V4ZM13.5 5C13.7761 5 14 4.77614 14 4.5C14 4.22386 13.7761 4 13.5 4V5ZM5.5 5H13.5V4H5.5V5Z" fill="#CED0D6"/>
<path d="M5.5 11C5.22386 11 5 11.2239 5 11.5C5 11.7761 5.22386 12 5.5 12V11ZM13.5 12C13.7761 12 14 11.7761 14 11.5C14 11.2239 13.7761 11 13.5 11V12ZM5.5 12H13.5V11H5.5V12Z" fill="#CED0D6"/>
<path d="M5.5 7.5C5.22386 7.5 5 7.72386 5 8C5 8.27614 5.22386 8.5 5.5 8.5V7.5ZM13.5 8.5C13.7761 8.5 14 8.27614 14 8C14 7.72386 13.7761 7.5 13.5 7.5V8.5ZM5.5 8.5H13.5V7.5H5.5V8.5Z" fill="#CED0D6"/>
</svg>
