<!-- Copyright 2000-2023 JetBrains s.r.o. and contributors. Use of this source code is governed by the Apache 2.0 license. -->
<svg width="16" height="16" viewBox="0 0 16 16" fill="none" xmlns="http://www.w3.org/2000/svg">
<g clip-path="url(#clip0_2445_34178)">
<g clip-path="url(#clip1_2445_34178)">
<path fill-rule="evenodd" clip-rule="evenodd" d="M9 9.50215C9 8.32441 10.2951 7.60608 11.2942 8.22967L15.2962 10.7275C16.2372 11.3149 16.2372 12.6851 15.2962 13.2725L11.2942 15.7703C10.2951 16.3939 9 15.6756 9 14.4978V9.50215ZM10.7647 9.07799C10.4317 8.87013 10 9.10957 10 9.50215V14.4978C10 14.8904 10.4317 15.1298 10.7647 14.922L14.7667 12.4241C15.0804 12.2284 15.0804 11.7716 14.7667 11.5758L10.7647 9.07799Z" fill="#CED0D6"/>
<path d="M13 4.16667L13 8.11542L14 8.73957L14 3.5L8 1L2 3.5V9.17871C2 10.9446 2.89245 12.236 4.03238 13.2576C4.87083 14.009 5.8918 14.6534 6.82862 15.2446C7.1398 15.441 7.44176 15.6316 7.7246 15.8183L8 16L8 14.8042C7.79262 14.6705 7.5796 14.5361 7.36722 14.402L7.36234 14.399C6.41121 13.7987 5.46454 13.1983 4.69977 12.5129C3.67852 11.5977 3 10.5557 3 9.17871V4.16667L8 2.08333L13 4.16667Z" fill="#CED0D6"/>
</g>
</g>
<defs>
<clipPath id="clip0_2445_34178">
<rect width="16" height="16" fill="white"/>
</clipPath>
<clipPath id="clip1_2445_34178">
<rect width="16" height="16" fill="white"/>
</clipPath>
</defs>
</svg>
