<!-- Copyright 2000-2023 JetBrains s.r.o. and contributors. Use of this source code is governed by the Apache 2.0 license. -->
<svg width="20" height="20" viewBox="0 0 20 20" fill="none" xmlns="http://www.w3.org/2000/svg">
<path d="M13.6109 10.9276L18.6412 13.9227C19.4529 14.406 19.4529 15.5942 18.6412 16.0775L13.6109 19.0726C12.7963 19.5577 11.75 18.972 11.75 17.9952V12.005C11.75 11.0282 12.7963 10.4425 13.6109 10.9276Z" stroke="#CED0D6" stroke-width="1.5"/>
<path d="M16.5 10L16.4999 10.029L17.9554 10.8957C17.9847 10.6047 18 10.3062 18 10V4.5L10 1L2 4.5V10C2 15.9341 7.74912 18.9936 9.5 19.7878V18.1211L9.4429 18.0915C8.75653 17.734 7.84744 17.1933 6.94589 16.4608C5.12587 14.9821 3.5 12.8668 3.5 10V5.48102L10 2.63727L16.5 5.48102V10Z" fill="#CED0D6"/>
</svg>
