<!-- Copyright 2000-2023 JetBrains s.r.o. and contributors. Use of this source code is governed by the Apache 2.0 license. -->
<svg width="20" height="20" viewBox="0 0 20 20" fill="none" xmlns="http://www.w3.org/2000/svg">
<path d="M13.6109 10.9276L18.6412 13.9227C19.4529 14.406 19.4529 15.5942 18.6412 16.0775L13.6109 19.0726C12.7963 19.5577 11.75 18.972 11.75 17.9952V12.005C11.75 11.0282 12.7963 10.4425 13.6109 10.9276Z" stroke="#6C707E" stroke-width="1.5"/>
<path d="M3.5 5.48102V10.0118C3.5 12.5977 4.83215 15.0012 7.02501 16.3718L9.5 17.9186V19.6875L6.23001 17.6438C3.84302 16.1519 2.30591 13.64 2.04093 10.8701C2.03205 10.7773 2.0246 10.6841 2.0186 10.5908C2.00663 10.4048 2.0004 10.2178 2.00002 10.03L2 10.0118V4.5L10 1L18 4.5V10.0118C18 10.3 17.9862 10.5864 17.9591 10.8701C17.9582 10.8788 17.9574 10.8876 17.9565 10.8963L16.5 10.0291C16.5 10.0233 16.5 10.0175 16.5 10.0118V5.48102L10 2.63727L3.5 5.48102Z" fill="#6C707E"/>
</svg>
