<!-- Copyright 2000-2024 JetBrains s.r.o. and contributors. Use of this source code is governed by the Apache 2.0 license. -->
<svg width="20" height="20" viewBox="0 0 20 20" fill="none" xmlns="http://www.w3.org/2000/svg">
<g clip-path="url(#clip0_15839_10460)">
<path d="M7.75 1C7.33579 1 7 1.33579 7 1.75C7 2.16421 7.33579 2.5 7.75 2.5H17C17.2761 2.5 17.5 2.72386 17.5 3V12.25C17.5 12.6642 17.8358 13 18.25 13C18.6642 13 19 12.6642 19 12.25V3C19 1.89543 18.1046 1 17 1H7.75Z" fill="#CED0D6"/>
<path fill-rule="evenodd" clip-rule="evenodd" d="M3 6C1.89543 6 1 6.89543 1 8V17C1 18.1046 1.89543 19 3 19H12C13.1046 19 14 18.1046 14 17V8C14 6.89543 13.1046 6 12 6H3ZM12 7.5H3C2.72386 7.5 2.5 7.72386 2.5 8V17C2.5 17.2761 2.72386 17.5 3 17.5H12C12.2761 17.5 12.5 17.2761 12.5 17V8C12.5 7.72386 12.2761 7.5 12 7.5Z" fill="#CED0D6"/>
<path d="M4.5 4.25C4.5 3.83579 4.83579 3.5 5.25 3.5L14.5 3.5C15.6046 3.5 16.5 4.39543 16.5 5.5V14.75C16.5 15.1642 16.1642 15.5 15.75 15.5C15.3358 15.5 15 15.1642 15 14.75V5.5C15 5.22386 14.7761 5 14.5 5H5.25C4.83579 5 4.5 4.66421 4.5 4.25Z" fill="#CED0D6"/>
</g>
<defs>
<clipPath id="clip0_15839_10460">
<rect width="20" height="20" fill="white"/>
</clipPath>
</defs>
</svg>
