<!-- Copyright 2000-2021 JetBrains s.r.o. and contributors. Use of this source code is governed by the Apache 2.0 license that can be found in the LICENSE file. -->
<svg width="20" height="20" viewBox="0 0 20 20" fill="none" xmlns="http://www.w3.org/2000/svg">
<path fill-rule="evenodd" clip-rule="evenodd" d="M7.5 4.5C7.5 5.60457 6.60457 6.5 5.5 6.5C4.39543 6.5 3.5 5.60457 3.5 4.5C3.5 3.39543 4.39543 2.5 5.5 2.5C6.60457 2.5 7.5 3.39543 7.5 4.5ZM9 4.5C9 6.17556 7.82259 7.57612 6.25 7.91946L6.25 13.75H9.5C10.2092 13.75 10.7035 13.7496 11.0904 13.7232C11.4706 13.6973 11.692 13.6487 11.861 13.5787C12.4124 13.3504 12.8504 12.9124 13.0787 12.361C13.1487 12.192 13.1973 11.9706 13.2232 11.5904C13.244 11.2848 13.2487 10.9121 13.2497 10.4194C11.6773 10.0759 10.5 8.67546 10.5 7C10.5 5.067 12.067 3.5 14 3.5C15.933 3.5 17.5 5.067 17.5 7C17.5 8.67565 16.3225 10.0763 14.7498 10.4195C14.7488 10.9185 14.7439 11.3379 14.7197 11.6925C14.6886 12.1491 14.6229 12.5528 14.4645 12.9351C14.0839 13.8539 13.3539 14.5839 12.4351 14.9645C12.0528 15.1229 11.6491 15.1886 11.1925 15.2197C10.7485 15.25 10.203 15.25 9.52664 15.25H9.5H6.25V18.5C6.25 18.9142 5.91421 19.25 5.5 19.25C5.08579 19.25 4.75 18.9142 4.75 18.5L4.75 7.91946C3.17741 7.57612 2 6.17556 2 4.5C2 2.567 3.567 1 5.5 1C7.433 1 9 2.567 9 4.5ZM16 7C16 8.10457 15.1046 9 14 9C12.8954 9 12 8.10457 12 7C12 5.89543 12.8954 5 14 5C15.1046 5 16 5.89543 16 7Z" fill="#CED0D6"/>
</svg>
