<!-- Copyright 2000-2022 JetBrains s.r.o. and contributors. Use of this source code is governed by the Apache 2.0 license. -->
<svg width="16" height="16" viewBox="0 0 16 16" fill="none" xmlns="http://www.w3.org/2000/svg">
<path d="M11.3891 8C11.3891 9.86438 10.9682 11.5276 10.313 12.7069C9.64838 13.9032 8.81007 14.5 8.00022 14.5C7.19037 14.5 6.35205 13.9032 5.68744 12.7069C5.03223 11.5276 4.61133 9.86438 4.61133 8C4.61133 6.13562 5.03223 4.47245 5.68744 3.29307C6.35205 2.09676 7.19037 1.5 8.00022 1.5C8.81007 1.5 9.64838 2.09676 10.313 3.29307C10.9682 4.47245 11.3891 6.13562 11.3891 8Z" stroke="#6C707E"/>
<path d="M8 1.77777V14.2222" stroke="#6C707E"/>
<circle cx="8" cy="8" r="6.5" stroke="#6C707E"/>
<path d="M14.2218 5.5H1.77734" stroke="#6C707E"/>
<path d="M14.2218 10.5H1.77734" stroke="#6C707E"/>
</svg>
