<svg xmlns="http://www.w3.org/2000/svg" width="16" height="16" viewBox="0 0 16 16">
  <g fill="none" fill-rule="evenodd">
    <polygon fill="#62B543" fill-opacity=".7" points="1 16 16 16 16 9 1 9"/>
    <polygon fill="#9AA7B0" fill-opacity=".8" points="7 1 3 5 7 5"/>
    <polygon fill="#9AA7B0" fill-opacity=".8" points="8 1 8 6 3 6 3 8 13 8 13 1"/>
    <path fill="#231F20" fill-opacity=".7" d="M5.1129,4.4577 L4.5678,5.0649 L3.9882,4.5474 C3.5811,4.8372 3.0774,5.0028 2.5185,5.0028 C1.035,5.0028 0,3.8781 0,2.5188 C0,1.1457 1.0488,0.0072 2.5323,0.0072 C4.0158,0.0072 5.0508,1.1319 5.0508,2.4912 C5.0508,3.057 4.8714,3.5676 4.5609,3.9885 L5.1129,4.4577 Z M2.53187806,4.1162 C2.82986878,4.1162 3.08899114,4.04473548 3.31572321,3.9148 L2.53187806,3.23913548 L3.093645,2.604426 L3.890446,3.332065 C4.0329633,3.08518758 4.0607,2.84283226 4.0607,2.51799355 L4.0607,2.505 C4.0607,1.62143871 3.41937215,0.8938 2.51892194,0.8938 C1.61847173,0.8938 1,1.60844516 1,2.49200645 L1,2.505 C1,3.38856129 1.63142785,4.1162 2.53187806,4.1162 Z" transform="translate(3 10)"/>
    <path fill="#231F20" fill-opacity=".7" d="M2.2206,5 C1.562,5 0.9958,4.778 0.9958,3.9196 L0.9958,2 L0.5,2 L0.5,1 L0.9958,1 L0.9958,-4.4408921e-16 L2,-4.4408921e-16 L2,1 L3,1 L3,2 L2,2 L2,3.579 C2,3.9268 2.1466,4 2.45,4 C2.6498,4 3.0224,3.923 3.2,3.8342 L3.2,4.7668 C2.978,4.8926 2.761,5 2.2206,5 Z" transform="translate(8 10)"/>
  </g>
</svg>
