<svg width="16" height="16" viewBox="0 0 16 16" fill="none" xmlns="http://www.w3.org/2000/svg">
  <path fill-rule="evenodd" clip-rule="evenodd" d="M11.3176 2.42105C10.7627 1.86723 9.84952 1.85121 9.28596 2.42376L7.38018 4.31787L7.37942 4.31863L2 9.68822L2.0004 13.2222H4.8125V12.2222H3.00029L3.00005 10.1029L7.73232 5.37929L9.8791 7.52606L8.4805 8.92188H9.89612L10.9404 7.87969L12.7968 6.02031C13.3676 5.46125 13.3557 4.56317 12.8112 4.00772L11.327 2.43041L11.3176 2.42105ZM9.9978 3.1261C10.1608 2.95962 10.4362 2.95595 10.6096 3.12724L12.0867 4.69722L12.0956 4.70618C12.2663 4.87869 12.2624 5.14475 12.0962 5.30675L10.5863 6.81903L8.44084 4.67359L9.99307 3.13093L9.9978 3.1261Z" fill="#CED0D6"/>
  <path fill-rule="evenodd" clip-rule="evenodd" d="M11.7129 12.3659H13.0907C13.3362 12.3659 13.5352 12.1669 13.5352 11.9214C13.5352 11.676 13.3362 11.477 13.0907 11.477H11.7129C11.507 10.4627 10.6102 9.69922 9.53516 9.69922C8.46006 9.69922 7.56328 10.4627 7.35739 11.477H5.9796C5.73414 11.477 5.53516 11.676 5.53516 11.9214C5.53516 12.1669 5.73414 12.3659 5.9796 12.3659H7.35739C7.56328 13.3802 8.46006 14.1437 9.53516 14.1437C10.6102 14.1437 11.507 13.3802 11.7129 12.3659ZM10.8685 11.9214C10.8685 12.6578 10.2715 13.2548 9.53516 13.2548C8.79878 13.2548 8.20182 12.6578 8.20182 11.9214C8.20182 11.1851 8.79878 10.5881 9.53516 10.5881C10.2715 10.5881 10.8685 11.1851 10.8685 11.9214Z" fill="#548AF7"/>
</svg>
