<svg width="16" height="16" viewBox="0 0 16 16" fill="none" xmlns="http://www.w3.org/2000/svg">
<mask id="path-1-inside-1_6654_52141" fill="white">
<path fill-rule="evenodd" clip-rule="evenodd" d="M14.9573 8.77776C14.0127 9.54215 12.8098 10 11.5 10C8.46243 10 6 7.53756 6 4.5C6 3.1902 6.45785 1.98734 7.22223 1.04272C3.72227 1.42962 1 4.3969 1 8C1 11.866 4.13401 15 8 15C11.6031 15 14.5704 12.2777 14.9573 8.77776Z"/>
</mask>
<path d="M14.9573 8.77776L15.9512 8.88763L16.2184 6.47088L14.3282 8.0004L14.9573 8.77776ZM7.22223 1.04272L7.9996 1.67177L9.52912 -0.218376L7.11236 0.048779L7.22223 1.04272ZM14.3282 8.0004C13.5551 8.62599 12.5726 9 11.5 9V11C13.047 11 14.4702 10.4583 15.5863 9.55513L14.3282 8.0004ZM11.5 9C9.01472 9 7 6.98528 7 4.5H5C5 8.08985 7.91015 11 11.5 11V9ZM7 4.5C7 3.4274 7.37401 2.44487 7.9996 1.67177L6.44487 0.413676C5.54169 1.52981 5 2.953 5 4.5H7ZM2 8C2 4.9123 4.3332 2.36818 7.33211 2.03667L7.11236 0.048779C3.11134 0.491063 0 3.8815 0 8H2ZM8 14C4.68629 14 2 11.3137 2 8H0C0 12.4183 3.58172 16 8 16V14ZM13.9633 8.66789C13.6318 11.6668 11.0877 14 8 14V16C12.1185 16 15.5089 12.8887 15.9512 8.88763L13.9633 8.66789Z" fill="#CED0D6" mask="url(#path-1-inside-1_6654_52141)"/>
</svg>
