<!-- Copyright 2000-2023 JetBrains s.r.o. and contributors. Use of this source code is governed by the Apache 2.0 license. -->
<svg width="88" height="48" viewBox="0 0 88 48" fill="none" xmlns="http://www.w3.org/2000/svg">
<g clip-path="url(#clip0_578_54128)">
<rect width="88" height="48" rx="4" fill="white"/>
<rect width="13" height="48" fill="#F2F3F5"/>
<rect x="4" y="8" width="6" height="6" rx="1" fill="#C9CCD6"/>
<rect x="4" y="17" width="6" height="6" rx="1" fill="#C9CCD6"/>
<rect x="4" y="26" width="6" height="6" rx="1" fill="#C9CCD6"/>
<rect x="4" y="35" width="6" height="6" rx="1" fill="#C9CCD6"/>
<rect width="88" height="5" fill="#27282E"/>
<rect opacity="0.5" x="16" y="8" width="68" height="3" rx="1.5" fill="#C9CCD6"/>
<rect x="16" y="14" width="56" height="3" rx="1.5" fill="#C9CCD6"/>
<rect opacity="0.5" x="16" y="20" width="68" height="3" rx="1.5" fill="#C9CCD6"/>
<rect x="16" y="26" width="56" height="3" rx="1.5" fill="#C9CCD6"/>
<rect opacity="0.5" x="16" y="32" width="68" height="3" rx="1.5" fill="#C9CCD6"/>
<rect x="16" y="38" width="56" height="3" rx="1.5" fill="#C9CCD6"/>
</g>
<defs>
<clipPath id="clip0_578_54128">
<rect width="88" height="48" rx="4" fill="white"/>
</clipPath>
</defs>
</svg>
