<svg width="16" height="16" viewBox="0 0 16 16" fill="none" xmlns="http://www.w3.org/2000/svg">
<g clip-path="url(#clip0_6654_52130)">
<path d="M8.5 1C8.5 0.723858 8.27614 0.5 8 0.5C7.72386 0.5 7.5 0.723858 7.5 1V3.02469C7.66445 3.00836 7.83125 3 8 3C8.16875 3 8.33555 3.00836 8.5 3.02469V1Z" fill="#3574F0"/>
<path d="M3.40381 2.6967L4.83563 4.12853C4.57708 4.34011 4.34011 4.57708 4.12853 4.83563L2.6967 3.40381C2.50144 3.20854 2.50144 2.89196 2.6967 2.6967C2.89196 2.50144 3.20854 2.50144 3.40381 2.6967Z" fill="#3574F0"/>
<path d="M3.02469 7.5H1C0.723858 7.5 0.5 7.72386 0.5 8C0.5 8.27614 0.723858 8.5 1 8.5H3.02469C3.00836 8.33555 3 8.16875 3 8C3 7.83125 3.00836 7.66445 3.02469 7.5Z" fill="#3574F0"/>
<path d="M2.6967 12.5962L4.12853 11.1644C4.34011 11.4229 4.57708 11.6599 4.83563 11.8715L3.40381 13.3033C3.20854 13.4986 2.89196 13.4986 2.6967 13.3033C2.50144 13.108 2.50144 12.7915 2.6967 12.5962Z" fill="#3574F0"/>
<path d="M7.5 12.9753V15C7.5 15.2761 7.72386 15.5 8 15.5C8.27614 15.5 8.5 15.2761 8.5 15V12.9753C8.33555 12.9916 8.16875 13 8 13C7.83125 13 7.66445 12.9916 7.5 12.9753Z" fill="#3574F0"/>
<path d="M12.5962 13.3033L11.1644 11.8715C11.4229 11.6599 11.6599 11.4229 11.8715 11.1644L13.3033 12.5962C13.4986 12.7915 13.4986 13.108 13.3033 13.3033C13.108 13.4986 12.7915 13.4986 12.5962 13.3033Z" fill="#3574F0"/>
<path d="M12.9753 8.5H15C15.2761 8.5 15.5 8.27614 15.5 8C15.5 7.72386 15.2761 7.5 15 7.5H12.9753C12.9916 7.66445 13 7.83125 13 8C13 8.16875 12.9916 8.33555 12.9753 8.5Z" fill="#3574F0"/>
<path d="M13.3033 3.40381L11.8715 4.83563C11.6599 4.57708 11.4229 4.34011 11.1644 4.12853L12.5962 2.6967C12.7915 2.50144 13.108 2.50144 13.3033 2.6967C13.4986 2.89196 13.4986 3.20854 13.3033 3.40381Z" fill="#3574F0"/>
<path fill-rule="evenodd" clip-rule="evenodd" d="M12 8C12 10.2091 10.2091 12 8 12C5.79086 12 4 10.2091 4 8C4 5.79086 5.79086 4 8 4C10.2091 4 12 5.79086 12 8ZM11 8C11 9.65685 9.65685 11 8 11C6.34315 11 5 9.65685 5 8C5 6.34315 6.34315 5 8 5C9.65685 5 11 6.34315 11 8Z" fill="#3574F0"/>
<circle cx="8" cy="8" r="3" fill="#EDF3FF"/>
</g>
<defs>
<clipPath id="clip0_6654_52130">
<rect width="16" height="16" fill="white"/>
</clipPath>
</defs>
</svg>
