<svg xmlns="http://www.w3.org/2000/svg" width="40" height="40" viewBox="0 0 40 40">
  <path fill="#389FD6" fill-rule="evenodd" d="M0,0 L36,0 L36,26 L0,26 L0,0 Z M16,5 L20,5 L20,9 L16,9 L16,5 Z M22,5 L26,5 L26,9 L22,9 L22,5 Z M28,5 L32,5 L32,9 L28,9 L28,5 Z M28,11 L32,11 L32,15 L28,15 L28,11 Z M22,11 L26,11 L26,15 L22,15 L22,11 Z M10,11 L14,11 L14,15 L10,15 L10,11 Z M4,11 L8,11 L8,15 L4,15 L4,11 Z M4,5 L8,5 L8,9 L4,9 L4,5 Z M10,5 L14,5 L14,9 L10,9 L10,5 Z M16,11 L20,11 L20,15 L16,15 L16,11 Z M25,21 L11,21 L11,17 L25,17 L25,21 Z" transform="translate(2 7)"/>
</svg>
