<!-- Copyright 2000-2024 JetBrains s.r.o. and contributors. Use of this source code is governed by the Apache 2.0 license. -->
<svg width="16" height="16" viewBox="0 0 16 16" fill="none" xmlns="http://www.w3.org/2000/svg">
<g clip-path="url(#clip0_950_4925)">
<path d="M3.98691 1.45459L1.01804 1.45503C0.455709 1.45503 0 1.91088 0 2.47321V5.34986C0 5.64703 0.129891 5.9295 0.355491 6.12295L9.89571 14.3004C10.0803 14.4585 10.3153 14.5455 10.5584 14.5455H13.5273C14.0896 14.5455 14.5455 14.0896 14.5455 13.5273V10.6502C14.5455 10.3531 14.4156 10.0706 14.19 9.87714L4.64975 1.69983C4.46516 1.54157 4.23011 1.45474 3.98691 1.45474V1.45459Z" fill="#FF8100"/>
<path d="M3.62982 1.45459H1.01818C0.455855 1.45459 0 1.91044 0 2.47277V5.74594C0 5.79408 0.00349091 5.84223 0.0101818 5.88994L1.32945 15.1259C1.40116 15.6275 1.83069 16 2.33745 16H6.25571C6.81818 16 7.27404 15.544 7.27389 14.9816L7.27273 10.347C7.27273 10.2376 7.25513 10.1289 7.22051 10.0252L4.59564 2.15074C4.45702 1.73503 4.06793 1.45459 3.62967 1.45459H3.62982Z" fill="url(#paint0_linear_950_4925)"/>
<path d="M14.9804 0H6.48833C6.08105 0 5.71291 0.242764 5.55247 0.617018L1.53545 9.98967C1.4812 10.1164 1.45312 10.2529 1.45312 10.3908V14.9818C1.45312 15.5441 1.90898 16 2.47131 16H6.9628C7.16396 16 7.36062 15.9404 7.52803 15.8287L15.5452 10.4778C15.8283 10.289 15.9981 9.9712 15.9981 9.63098L15.9986 1.01818C15.9986 0.455855 15.5427 0 14.9804 0Z" fill="url(#paint1_linear_950_4925)"/>
<path d="M13.3346 2.66663H2.66797V13.3333H13.3346V2.66663Z" fill="black"/>
<path d="M8 11.3334H4V12H8V11.3334Z" fill="white"/>
<path d="M4 7.30283H4.79435V4.69717H4V4H6.35707V4.69717H5.56272V7.30283H6.35707V8H4V7.30283Z" fill="white"/>
<path d="M6.75781 7.28006H7.33214C7.44826 7.28006 7.5517 7.25531 7.64215 7.20581C7.7326 7.1563 7.80258 7.08633 7.85208 6.99587C7.90159 6.90542 7.92634 6.80214 7.92634 6.68587V4H8.70632V6.73995C8.70632 6.97998 8.65101 7.19572 8.54055 7.38717C8.43008 7.57861 8.27775 7.72865 8.0834 7.83713C7.88906 7.94576 7.67103 8 7.42916 8H6.75781V7.28006Z" fill="white"/>
</g>
<defs>
<linearGradient id="paint0_linear_950_4925" x1="-0.179346" y1="1.90535" x2="6.03636" y2="15.3119" gradientUnits="userSpaceOnUse">
<stop offset="0.1" stop-color="#FC801D"/>
<stop offset="0.59" stop-color="#FE2857"/>
</linearGradient>
<linearGradient id="paint1_linear_950_4925" x1="1.05414" y1="15.0047" x2="15.7304" y2="0.328291" gradientUnits="userSpaceOnUse">
<stop offset="0.21" stop-color="#FE2857"/>
<stop offset="0.7" stop-color="#007EFF"/>
</linearGradient>
<clipPath id="clip0_950_4925">
<rect width="16" height="16" fill="white"/>
</clipPath>
</defs>
</svg>
