<!-- Copyright 2000-2024 JetBrains s.r.o. and contributors. Use of this source code is governed by the Apache 2.0 license. -->
<svg width="40" height="40" viewBox="0 0 40 40" fill="none" xmlns="http://www.w3.org/2000/svg">
<g clip-path="url(#clip0_950_5023)">
<g clip-path="url(#clip1_950_5023)">
<path d="M9.96727 3.63635L2.54509 3.63744C1.13927 3.63744 0 4.77708 0 6.1829V13.3745C0 14.1174 0.324727 14.8236 0.888727 15.3073L24.7393 35.7509C25.2007 36.1462 25.7884 36.3636 26.396 36.3636H33.8182C35.224 36.3636 36.3636 35.224 36.3636 33.8182V26.6254C36.3636 25.8825 36.0389 25.1764 35.4749 24.6927L11.6244 4.24944C11.1629 3.85381 10.5753 3.63672 9.96727 3.63672V3.63635Z" fill="#FF8100"/>
<path d="M9.07455 3.63635H2.54545C1.13964 3.63635 0 4.77599 0 6.18181V14.3647C0 14.4851 0.00872727 14.6054 0.0254545 14.7247L3.32364 37.8145C3.50291 39.0687 4.57673 40 5.84364 40H15.6393C17.0455 40 18.1851 38.86 18.1847 37.4538L18.1818 25.8673C18.1818 25.5938 18.1378 25.3222 18.0513 25.0629L11.4891 5.37672C11.1425 4.33744 10.1698 3.63635 9.07418 3.63635H9.07455Z" fill="url(#paint0_linear_950_5023)"/>
<path d="M37.4549 0H16.2247C15.2065 0 14.2862 0.606909 13.8851 1.54255L3.84254 24.9742C3.7069 25.2909 3.63672 25.6324 3.63672 25.9771V37.4545C3.63672 38.8604 4.77636 40 6.18217 40H17.4109C17.9138 40 18.4054 39.8509 18.824 39.5716L38.8669 26.1945C39.5745 25.7225 39.9993 24.928 39.9993 24.0775L40.0004 2.54545C40.0004 1.13964 38.8607 0 37.4549 0Z" fill="url(#paint1_linear_950_5023)"/>
<path d="M32.5 7.5H7.5V32.5H32.5V7.5Z" fill="black"/>
<path d="M20.8359 27.5H10.8359V29.1668H20.8359V27.5Z" fill="white"/>
<path d="M10.8359 18.4024H12.6563V12.4311H10.8359V10.8334H16.2375V12.4311H14.4172V18.4024H16.2375V20H10.8359V18.4024Z" fill="white"/>
<path d="M17.1562 18.3502H18.4724C18.7385 18.3502 18.9756 18.2935 19.1829 18.18C19.3901 18.0666 19.5505 17.9062 19.664 17.6989C19.7774 17.4916 19.8341 17.2549 19.8341 16.9885V10.8334H21.6216V17.1124C21.6216 17.6625 21.4948 18.1569 21.2417 18.5956C20.9885 19.0344 20.6394 19.3782 20.1941 19.6268C19.7487 19.8757 19.249 20 18.6948 20H17.1562V18.3502Z" fill="white"/>
</g>
</g>
<defs>
<linearGradient id="paint0_linear_950_5023" x1="-0.448364" y1="4.76326" x2="15.0909" y2="38.2796" gradientUnits="userSpaceOnUse">
<stop offset="0.1" stop-color="#FC801D"/>
<stop offset="0.59" stop-color="#FE2857"/>
</linearGradient>
<linearGradient id="paint1_linear_950_5023" x1="2.63927" y1="37.5116" x2="39.3298" y2="0.820728" gradientUnits="userSpaceOnUse">
<stop offset="0.21" stop-color="#FE2857"/>
<stop offset="0.7" stop-color="#007EFF"/>
</linearGradient>
<clipPath id="clip0_950_5023">
<rect width="40" height="40" fill="white"/>
</clipPath>
<clipPath id="clip1_950_5023">
<rect width="40" height="40" fill="white"/>
</clipPath>
</defs>
</svg>
