<svg width="366" height="98" viewBox="0 0 366 98" fill="none" xmlns="http://www.w3.org/2000/svg">
<g clip-path="url(#clip0)">
<path d="M225.035 20.2051C226.693 20.2051 227.672 19.2266 227.672 17.5625V11.5449H226.359V17.5508C226.359 18.5117 225.891 19.0332 225.023 19.0332C224.238 19.0332 223.834 18.5293 223.781 17.8848L223.775 17.832H222.48L222.486 17.9023C222.557 19.25 223.471 20.2051 225.035 20.2051ZM232.277 20.123C234.141 20.123 235.283 18.875 235.283 16.8242V16.8125C235.283 14.7617 234.135 13.5137 232.277 13.5137C230.414 13.5137 229.266 14.7676 229.266 16.8125V16.8242C229.266 18.875 230.408 20.123 232.277 20.123ZM232.277 19.0625C231.182 19.0625 230.566 18.2363 230.566 16.8242V16.8125C230.566 15.4004 231.182 14.5742 232.277 14.5742C233.367 14.5742 233.988 15.4004 233.988 16.8125V16.8242C233.988 18.2305 233.367 19.0625 232.277 19.0625ZM236.859 20H238.131V16.2676C238.131 15.2422 238.711 14.6035 239.643 14.6035C240.574 14.6035 241.014 15.125 241.014 16.1797V20H242.279V15.8809C242.279 14.3633 241.494 13.5137 240.07 13.5137C239.145 13.5137 238.535 13.9238 238.225 14.6035H238.131V11.1406H236.859V20ZM244.055 20H245.326V16.2676C245.326 15.2422 245.906 14.6035 246.838 14.6035C247.77 14.6035 248.209 15.125 248.209 16.1797V20H249.475V15.8809C249.475 14.3633 248.689 13.5137 247.266 13.5137C246.34 13.5137 245.73 13.9238 245.42 14.6035H245.326V13.6367H244.055V20ZM251.25 20H252.521V16.2676C252.521 15.2422 253.102 14.6035 254.033 14.6035C254.965 14.6035 255.404 15.125 255.404 16.1797V20H256.67V15.8809C256.67 14.3633 255.885 13.5137 254.461 13.5137C253.535 13.5137 252.926 13.9238 252.615 14.6035H252.521V13.6367H251.25V20ZM258.855 22.2383C260.145 22.2383 260.789 21.7637 261.328 20.2461L263.695 13.6367H262.359L260.771 18.7227H260.66L259.066 13.6367H257.695L260.004 20.0059L259.91 20.334C259.723 20.9785 259.365 21.2305 258.773 21.2305C258.627 21.2305 258.469 21.2246 258.346 21.207V22.209C258.51 22.2266 258.697 22.2383 258.855 22.2383ZM265.025 14.9844H265.922L266.895 11.5449H265.541L265.025 14.9844ZM270.369 20.123C271.881 20.123 273.006 19.3203 273.006 18.1426V18.1309C273.006 17.2109 272.42 16.6895 271.195 16.4023L270.188 16.1738C269.473 16.0039 269.18 15.7578 269.18 15.3594V15.3477C269.18 14.8379 269.684 14.4922 270.381 14.4922C271.096 14.4922 271.547 14.8262 271.67 15.2715V15.2832H272.883V15.2773C272.771 14.2402 271.84 13.5137 270.387 13.5137C268.945 13.5137 267.914 14.3105 267.914 15.418V15.4238C267.914 16.3555 268.471 16.9004 269.672 17.1758L270.686 17.4102C271.424 17.5801 271.723 17.8496 271.723 18.248V18.2598C271.723 18.7812 271.178 19.1387 270.393 19.1387C269.637 19.1387 269.174 18.8164 269.016 18.3359L269.01 18.3301H267.738V18.3359C267.861 19.4023 268.834 20.123 270.369 20.123ZM280.482 20.123C282.059 20.123 282.967 19.2734 283.195 18.0371L283.207 17.9844H281.988L281.977 18.0137C281.771 18.6992 281.279 19.0625 280.482 19.0625C279.434 19.0625 278.783 18.207 278.783 16.8008V16.7891C278.783 15.418 279.422 14.5742 280.482 14.5742C281.326 14.5742 281.842 15.043 281.982 15.6699L281.988 15.6875L283.207 15.6816V15.6523C283.031 14.416 282.076 13.5137 280.477 13.5137C278.619 13.5137 277.488 14.7734 277.488 16.7891V16.8008C277.488 18.8574 278.625 20.123 280.482 20.123ZM287.344 20.123C289.207 20.123 290.35 18.875 290.35 16.8242V16.8125C290.35 14.7617 289.201 13.5137 287.344 13.5137C285.48 13.5137 284.332 14.7676 284.332 16.8125V16.8242C284.332 18.875 285.475 20.123 287.344 20.123ZM287.344 19.0625C286.248 19.0625 285.633 18.2363 285.633 16.8242V16.8125C285.633 15.4004 286.248 14.5742 287.344 14.5742C288.434 14.5742 289.055 15.4004 289.055 16.8125V16.8242C289.055 18.2305 288.434 19.0625 287.344 19.0625ZM291.867 20H293.139V16.0918C293.139 15.2598 293.707 14.6035 294.475 14.6035C295.225 14.6035 295.699 15.0605 295.699 15.7871V20H296.965V15.9746C296.965 15.207 297.498 14.6035 298.307 14.6035C299.139 14.6035 299.537 15.0371 299.537 15.916V20H300.803V15.6113C300.803 14.2871 300.053 13.5137 298.77 13.5137C297.885 13.5137 297.152 13.9648 296.83 14.6504H296.73C296.449 13.9648 295.834 13.5137 294.967 13.5137C294.135 13.5137 293.514 13.918 293.232 14.6152H293.139V13.6367H291.867V20ZM302.578 20H303.85V16.0918C303.85 15.2598 304.418 14.6035 305.186 14.6035C305.936 14.6035 306.41 15.0605 306.41 15.7871V20H307.676V15.9746C307.676 15.207 308.209 14.6035 309.018 14.6035C309.85 14.6035 310.248 15.0371 310.248 15.916V20H311.514V15.6113C311.514 14.2871 310.764 13.5137 309.48 13.5137C308.596 13.5137 307.863 13.9648 307.541 14.6504H307.441C307.16 13.9648 306.545 13.5137 305.678 13.5137C304.846 13.5137 304.225 13.918 303.943 14.6152H303.85V13.6367H302.578V20ZM313.951 12.5C314.385 12.5 314.748 12.1426 314.748 11.709C314.748 11.2695 314.385 10.9121 313.951 10.9121C313.512 10.9121 313.154 11.2695 313.154 11.709C313.154 12.1426 313.512 12.5 313.951 12.5ZM313.312 20H314.578V13.6367H313.312V20ZM318.832 20.041C319.078 20.041 319.312 20.0117 319.518 19.9766V18.9629C319.342 18.9805 319.23 18.9863 319.037 18.9863C318.41 18.9863 318.152 18.7051 318.152 18.0195V14.6387H319.518V13.6367H318.152V12.0312H316.857V13.6367H315.861V14.6387H316.857V18.3242C316.857 19.5488 317.432 20.041 318.832 20.041Z" fill="#71E3D9"/>
<path opacity="0.4" d="M366 39H58" stroke="#60BFB7" stroke-linecap="round" stroke-linejoin="round" stroke-dasharray="1 2"/>
<path opacity="0.4" d="M366 79H58" stroke="#9D6EFF" stroke-linecap="round" stroke-linejoin="round" stroke-dasharray="1 2"/>
<path d="M58 39L208.5 39" stroke="#60BFB7" stroke-width="2" stroke-linecap="round" stroke-linejoin="round"/>
<path d="M121.5 39C161.5 39 145.5 78.5 185.5 78.5H233.5" stroke="#9D6EFF" stroke-width="2" stroke-linecap="round" stroke-linejoin="round"/>
<circle cx="77" cy="38" r="9" fill="#37736E" stroke="#60BFB7" stroke-width="2"/>
<path opacity="0.9" d="M73.2383 42H74.6152L75.3828 39.7148H78.6172L79.3789 42H80.7617L77.709 33.5449H76.291L73.2383 42ZM76.9473 35.0273H77.0469L78.2656 38.6602H75.7344L76.9473 35.0273Z" fill="white"/>
<circle cx="121" cy="38" r="9" fill="#37736E" stroke="#60BFB7" stroke-width="2"/>
<path opacity="0.9" d="M118.035 42H121.51C123.314 42 124.398 41.0977 124.398 39.6152V39.6035C124.398 38.502 123.637 37.6934 122.494 37.5703V37.4707C123.326 37.3301 123.977 36.5391 123.977 35.6602V35.6484C123.977 34.3535 123.021 33.5449 121.434 33.5449H118.035V42ZM121.129 34.6172C122.102 34.6172 122.67 35.0801 122.67 35.877V35.8887C122.67 36.709 122.066 37.1426 120.906 37.1426H119.348V34.6172H121.129ZM121.17 38.1445C122.406 38.1445 123.057 38.6133 123.057 39.5215V39.5332C123.057 40.4414 122.43 40.9277 121.246 40.9277H119.348V38.1445H121.17Z" fill="white"/>
<circle cx="207" cy="38" r="9" fill="#37736E" stroke="#60BFB7" stroke-width="2"/>
<path opacity="0.9" d="M204.428 42H209.795V40.8691H205.74V38.2383H209.578V37.1484H205.74V34.6758H209.795V33.5449H204.428V42Z" fill="white"/>
<circle cx="185" cy="78" r="9" fill="#713FD9" stroke="#9D6EFF" stroke-width="2"/>
<path opacity="0.9" d="M185.176 82.2051C187.062 82.2051 188.439 81.127 188.686 79.5039V79.4688H187.385L187.373 79.4922C187.133 80.4473 186.295 81.0449 185.176 81.0449C183.652 81.0449 182.703 79.7852 182.703 77.7812V77.7695C182.703 75.7598 183.652 74.5 185.17 74.5C186.283 74.5 187.133 75.1738 187.379 76.2109V76.2285H188.68L188.686 76.1992C188.463 74.5176 187.033 73.3398 185.17 73.3398C182.82 73.3398 181.361 75.0391 181.361 77.7695V77.7812C181.361 80.5059 182.826 82.2051 185.176 82.2051Z" fill="white"/>
<circle cx="229" cy="78" r="9" fill="#713FD9" stroke="#9D6EFF" stroke-width="2"/>
<path opacity="0.9" d="M225.654 82H228.707C231.227 82 232.686 80.4414 232.686 77.7578V77.7461C232.686 75.0918 231.215 73.5449 228.707 73.5449H225.654V82ZM226.967 80.8691V74.6758H228.561C230.312 74.6758 231.35 75.8184 231.35 77.7637V77.7754C231.35 79.7383 230.33 80.8691 228.561 80.8691H226.967Z" fill="white"/>
<path d="M1.14893 43H2.44385V36.2778H2.54541L5.23047 43H6.28418L8.97559 36.2778H9.0708V43H10.3657V33.8403H8.72803L5.80811 41.1465H5.70654L2.78662 33.8403H1.14893V43ZM14.3965 43.1143C15.3105 43.1143 16.0342 42.7207 16.4404 42.0225H16.5483V43H17.9131V38.2837C17.9131 36.8364 16.9355 35.9731 15.2026 35.9731C13.6348 35.9731 12.5493 36.7285 12.3843 37.8584L12.3779 37.9028H13.7046L13.7109 37.8774C13.876 37.3887 14.3774 37.1094 15.1392 37.1094C16.0723 37.1094 16.5483 37.5283 16.5483 38.2837V38.8931L14.6821 39.001C13.0381 39.1025 12.1113 39.8198 12.1113 41.0513V41.064C12.1113 42.3145 13.0825 43.1143 14.3965 43.1143ZM13.4824 41.0068V40.9941C13.4824 40.3721 13.9141 40.0293 14.8662 39.9722L16.5483 39.8643V40.4546C16.5483 41.3433 15.793 42.0161 14.7646 42.0161C14.022 42.0161 13.4824 41.6416 13.4824 41.0068ZM20.5728 34.875C21.0425 34.875 21.436 34.4878 21.436 34.0181C21.436 33.542 21.0425 33.1548 20.5728 33.1548C20.0967 33.1548 19.7095 33.542 19.7095 34.0181C19.7095 34.4878 20.0967 34.875 20.5728 34.875ZM19.8809 43H21.252V36.1064H19.8809V43ZM23.2578 43H24.6353V38.9565C24.6353 37.8457 25.2637 37.1538 26.2729 37.1538C27.2822 37.1538 27.7583 37.7188 27.7583 38.8613V43H29.1294V38.5376C29.1294 36.8936 28.2788 35.9731 26.7363 35.9731C25.7334 35.9731 25.0732 36.4175 24.7368 37.1538H24.6353V36.1064H23.2578V43Z" fill="#71E3D9"/>
<path d="M1.14893 83H2.5708V79.166H6.50635V77.9663H2.5708V75.0654H6.86816V73.8403H1.14893V83ZM11.4512 83.1333C13.2158 83.1333 14.168 82.1177 14.3965 81.21L14.4092 81.1528L13.0825 81.1592L13.0571 81.21C12.8921 81.5654 12.3652 82.0034 11.4829 82.0034C10.3467 82.0034 9.62305 81.2354 9.59766 79.915H14.4854V79.4326C14.4854 77.3633 13.3047 75.9731 11.3813 75.9731C9.45801 75.9731 8.21387 77.4141 8.21387 79.5659V79.5723C8.21387 81.7559 9.43262 83.1333 11.4512 83.1333ZM11.3877 77.103C12.3208 77.103 13.0127 77.6997 13.1206 78.9312H9.6167C9.7373 77.7441 10.4482 77.103 11.3877 77.103ZM18.0146 83.1143C18.9287 83.1143 19.6523 82.7207 20.0586 82.0225H20.1665V83H21.5312V78.2837C21.5312 76.8364 20.5537 75.9731 18.8208 75.9731C17.2529 75.9731 16.1675 76.7285 16.0024 77.8584L15.9961 77.9028H17.3228L17.3291 77.8774C17.4941 77.3887 17.9956 77.1094 18.7573 77.1094C19.6904 77.1094 20.1665 77.5283 20.1665 78.2837V78.8931L18.3003 79.001C16.6562 79.1025 15.7295 79.8198 15.7295 81.0513V81.064C15.7295 82.3145 16.7007 83.1143 18.0146 83.1143ZM17.1006 81.0068V80.9941C17.1006 80.3721 17.5322 80.0293 18.4844 79.9722L20.1665 79.8643V80.4546C20.1665 81.3433 19.4111 82.0161 18.3828 82.0161C17.6401 82.0161 17.1006 81.6416 17.1006 81.0068ZM26.0762 83.0444C26.3428 83.0444 26.5967 83.0127 26.8188 82.9746V81.8765C26.6284 81.8955 26.5078 81.9019 26.2983 81.9019C25.6191 81.9019 25.3398 81.5972 25.3398 80.8545V77.1919H26.8188V76.1064H25.3398V74.3672H23.937V76.1064H22.8579V77.1919H23.937V81.1846C23.937 82.5112 24.5591 83.0444 26.0762 83.0444ZM30.7227 83.1333C31.7256 83.1333 32.4238 82.7017 32.7539 81.959H32.8618V83H34.2329V76.1064H32.8618V80.1499C32.8618 81.2607 32.2715 81.9526 31.167 81.9526C30.1577 81.9526 29.7388 81.3877 29.7388 80.2451V76.1064H28.3613V80.5688C28.3613 82.2002 29.1675 83.1333 30.7227 83.1333ZM36.2197 83H37.5972V78.8804C37.5972 77.8838 38.3145 77.2363 39.3682 77.2363C39.6284 77.2363 39.8633 77.2681 40.1108 77.3188V76.0493C39.9712 76.0176 39.73 75.9858 39.5078 75.9858C38.5874 75.9858 37.9463 76.4175 37.6987 77.1475H37.5972V76.1064H36.2197V83ZM44.1416 83.1333C45.9062 83.1333 46.8584 82.1177 47.0869 81.21L47.0996 81.1528L45.7729 81.1592L45.7476 81.21C45.5825 81.5654 45.0557 82.0034 44.1733 82.0034C43.0371 82.0034 42.3135 81.2354 42.2881 79.915H47.1758V79.4326C47.1758 77.3633 45.9951 75.9731 44.0718 75.9731C42.1484 75.9731 40.9043 77.4141 40.9043 79.5659V79.5723C40.9043 81.7559 42.123 83.1333 44.1416 83.1333ZM44.0781 77.103C45.0112 77.103 45.7031 77.6997 45.811 78.9312H42.3071C42.4277 77.7441 43.1387 77.103 44.0781 77.103Z" fill="#C48CFF"/>
</g>
<defs>
<clipPath id="clip0">
<path d="M0 4C0 1.79086 1.79086 0 4 0H362C364.209 0 366 1.79086 366 4V94C366 96.2091 364.209 98 362 98H4.00001C1.79087 98 0 96.2091 0 94V4Z" fill="white"/>
</clipPath>
</defs>
</svg>
