<?xml version="1.0" encoding="UTF-8" standalone="no"?>
<svg
  width="365.3511"
  height="60"
  viewBox="0 0 365.3511 60"
  fill="none"
  version="1.1"
  id="svg30"
  sodipodi:docname="gitFeatureBranchIllustration01_dark.svg"
  inkscape:version="1.1 (ce6663b3b7, 2021-05-25)"
  xmlns:inkscape="http://www.inkscape.org/namespaces/inkscape"
  xmlns:sodipodi="http://sodipodi.sourceforge.net/DTD/sodipodi-0.dtd"
  xmlns="http://www.w3.org/2000/svg"
>
  <defs
     id="defs34" />
  <sodipodi:namedview
     id="namedview32"
     pagecolor="#ffffff"
     bordercolor="#666666"
     borderopacity="1.0"
     inkscape:pageshadow="2"
     inkscape:pageopacity="0.0"
     inkscape:pagecheckerboard="0"
     showgrid="false"
     inkscape:zoom="3.2668269"
     inkscape:cx="182.13392"
     inkscape:cy="29.998528"
     inkscape:window-width="1920"
     inkscape:window-height="1145"
     inkscape:window-x="0"
     inkscape:window-y="27"
     inkscape:window-maximized="1"
     inkscape:current-layer="svg30" />
  <path
     opacity="0.4"
     d="m 364.8511,11 h -308"
     stroke="#5483e8"
     stroke-linecap="round"
     stroke-linejoin="round"
     stroke-dasharray="1, 2"
     id="path2" />
  <path
     opacity="0.4"
     d="m 364.8511,51 h -308"
     stroke="#9160f7"
     stroke-linecap="round"
     stroke-linejoin="round"
     stroke-dasharray="1, 2"
     id="path4" />
  <path
     d="m 56.8511,11 h 63"
     stroke="#5483e8"
     stroke-width="2"
     stroke-linecap="round"
     stroke-linejoin="round"
     id="path6" />
  <path
     d="m 119.8511,10.5 c 40,0 24,40 64,40 h 44.5"
     stroke="#9160f7"
     stroke-width="2"
     stroke-linecap="round"
     stroke-linejoin="round"
     id="path8" />
  <circle
     cx="75.851097"
     cy="10"
     r="9"
     fill="#3558d4"
     stroke="#5483e8"
     stroke-width="2"
     id="circle10" />
  <path
     opacity="0.8"
     d="m 72.0894,14 h 1.3769 l 0.7678,-2.2852 h 3.234 L 78.2301,14 h 1.383 l -3.053,-8.4551 h -1.418 z m 3.7087,-6.9727 h 0.1 l 1.219,3.6329 h -2.532 z"
     fill="#ffffff"
     id="path12" />
  <circle
     cx="119.8511"
     cy="10"
     r="9"
     fill="#3558d4"
     stroke="#5483e8"
     stroke-width="2"
     id="circle14" />
  <path
     opacity="0.8"
     d="m 116.8861,14 h 3.475 c 1.804,0 2.888,-0.9023 2.888,-2.3848 v -0.0117 c 0,-1.1015 -0.761,-1.9101 -1.904,-2.0332 V 9.4707 c 0.832,-0.1406 1.483,-0.9316 1.483,-1.8105 V 7.6484 c 0,-1.2949 -0.956,-2.1035 -2.543,-2.1035 h -3.399 z m 3.094,-7.3828 c 0.973,0 1.541,0.4629 1.541,1.2598 v 0.0117 c 0,0.8203 -0.604,1.2539 -1.764,1.2539 h -1.558 V 6.6172 Z m 0.041,3.5273 c 1.236,0 1.887,0.4688 1.887,1.377 v 0.0117 c 0,0.9082 -0.627,1.3945 -1.811,1.3945 h -1.898 v -2.7832 z"
     fill="#ffffff"
     id="path16" />
  <circle
     cx="183.8511"
     cy="50"
     r="9"
     fill="#733de3"
     stroke="#9160f7"
     stroke-width="2"
     id="circle18" />
  <path
     opacity="0.8"
     d="m 184.0271,54.2051 c 1.886,0 3.263,-1.0781 3.51,-2.7012 v -0.0351 h -1.301 l -0.012,0.0234 c -0.24,0.9551 -1.078,1.5527 -2.197,1.5527 -1.524,0 -2.473,-1.2597 -2.473,-3.2637 v -0.0117 c 0,-2.0097 0.949,-3.2695 2.467,-3.2695 1.113,0 1.963,0.6738 2.209,1.7109 v 0.0176 h 1.301 l 0.006,-0.0293 c -0.223,-1.6816 -1.653,-2.8594 -3.516,-2.8594 -2.35,0 -3.809,1.6993 -3.809,4.4297 v 0.0117 c 0,2.7247 1.465,4.4239 3.815,4.4239 z"
     fill="#ffffff"
     id="path20" />
  <circle
     cx="227.8511"
     cy="50"
     r="9"
     fill="#733de3"
     stroke="#9160f7"
     stroke-width="2"
     id="circle22" />
  <path
     opacity="0.8"
     d="m 224.5051,54 h 3.053 c 2.52,0 3.979,-1.5586 3.979,-4.2422 v -0.0117 c 0,-2.6543 -1.471,-4.2012 -3.979,-4.2012 h -3.053 z m 1.313,-1.1309 v -6.1933 h 1.594 c 1.751,0 2.789,1.1426 2.789,3.0879 v 0.0117 c 0,1.9629 -1.02,3.0937 -2.789,3.0937 z"
     fill="#ffffff"
     id="path24" />
  <path
     d="M 0,15 H 1.2949 V 8.2778 H 1.3965 L 4.0816,15 H 5.1353 L 7.8267,8.2778 H 7.9219 V 15 H 9.2168 V 5.8403 H 7.5791 L 4.6592,13.1465 H 4.5576 L 1.6377,5.8403 H 0 Z m 13.2476,0.1143 c 0.914,0 1.6377,-0.3936 2.0439,-1.0918 h 0.1079 V 15 h 1.3648 v -4.7163 c 0,-1.4473 -0.9776,-2.3106 -2.7105,-2.3106 -1.5678,0 -2.6533,0.7554 -2.8183,1.8853 L 11.229,9.9028 h 1.3267 L 12.562,9.8774 c 0.1651,-0.4887 0.6665,-0.768 1.4283,-0.768 0.9331,0 1.4091,0.4189 1.4091,1.1743 v 0.6094 l -1.8662,0.1079 c -1.644,0.1015 -2.5708,0.8188 -2.5708,2.0503 v 0.0127 c 0,1.2505 0.9712,2.0503 2.2852,2.0503 z m -0.9141,-2.1075 v -0.0127 c 0,-0.622 0.4317,-0.9648 1.3838,-1.0219 l 1.6821,-0.1079 v 0.5903 c 0,0.8887 -0.7553,1.5615 -1.7837,1.5615 -0.7426,0 -1.2822,-0.3745 -1.2822,-1.0093 z M 19.4239,6.875 c 0.4697,0 0.8632,-0.3872 0.8632,-0.8569 0,-0.4761 -0.3935,-0.8633 -0.8632,-0.8633 -0.4761,0 -0.8633,0.3872 -0.8633,0.8633 0,0.4697 0.3872,0.8569 0.8633,0.8569 z M 18.732,15 h 1.3711 V 8.1064 H 18.732 Z m 3.3769,0 h 1.3775 v -4.0435 c 0,-1.1108 0.6284,-1.8027 1.6376,-1.8027 1.0093,0 1.4854,0.565 1.4854,1.7075 V 15 h 1.3711 v -4.4624 c 0,-1.644 -0.8506,-2.5645 -2.3931,-2.5645 -1.0029,0 -1.6631,0.4444 -1.9995,1.1807 H 23.4864 V 8.1064 h -1.3775 z"
     fill="#619bff"
     id="path26" />
  <path
     d="M 0,55 H 1.4219 V 51.166 H 5.3574 V 49.9663 H 1.4219 V 47.0654 H 5.7193 V 45.8403 H 0 Z m 10.3023,0.1333 c 1.7646,0 2.7168,-1.0156 2.9453,-1.9233 l 0.0127,-0.0572 -1.3267,0.0064 -0.0254,0.0508 c -0.165,0.3554 -0.6919,0.7934 -1.5742,0.7934 -1.1362,0 -1.8599,-0.768 -1.8852,-2.0884 h 4.8877 v -0.4824 c 0,-2.0693 -1.1807,-3.4595 -3.1041,-3.4595 -1.9233,0 -3.1674,1.441 -3.1674,3.5928 v 0.0064 c 0,2.1836 1.2187,3.561 3.2373,3.561 z M 10.2388,49.103 c 0.9331,0 1.625,0.5967 1.7329,1.8282 H 8.4678 c 0.1206,-1.1871 0.8315,-1.8282 1.771,-1.8282 z m 6.6269,6.0113 c 0.9141,0 1.6377,-0.3936 2.044,-1.0918 h 0.1079 V 55 h 1.3647 v -4.7163 c 0,-1.4473 -0.9775,-2.3106 -2.7104,-2.3106 -1.5679,0 -2.6533,0.7554 -2.8184,1.8853 l -0.0063,0.0444 h 1.3267 l 0.0063,-0.0254 c 0.165,-0.4887 0.6665,-0.768 1.4282,-0.768 0.9331,0 1.4092,0.4189 1.4092,1.1743 v 0.6094 l -1.8662,0.1079 c -1.6441,0.1015 -2.5708,0.8188 -2.5708,2.0503 v 0.0127 c 0,1.2505 0.9712,2.0503 2.2851,2.0503 z m -0.914,-2.1075 v -0.0127 c 0,-0.622 0.4316,-0.9648 1.3838,-1.0219 l 1.6821,-0.1079 v 0.5903 c 0,0.8887 -0.7554,1.5615 -1.7837,1.5615 -0.7427,0 -1.2822,-0.3745 -1.2822,-1.0093 z m 8.9756,2.0376 c 0.2666,0 0.5205,-0.0317 0.7426,-0.0698 v -1.0981 c -0.1904,0.019 -0.311,0.0254 -0.5205,0.0254 -0.6792,0 -0.9585,-0.3047 -0.9585,-1.0474 v -3.6626 h 1.479 v -1.0855 h -1.479 v -1.7392 h -1.4028 v 1.7392 H 21.709 v 1.0855 h 1.0791 v 3.9927 c 0,1.3266 0.6221,1.8598 2.1392,1.8598 z m 4.6465,0.0889 c 1.0029,0 1.7011,-0.4316 2.0312,-1.1743 h 0.1079 V 55 h 1.3711 v -6.8936 h -1.3711 v 4.0435 c 0,1.1108 -0.5903,1.8027 -1.6948,1.8027 -1.0093,0 -1.4282,-0.5649 -1.4282,-1.7075 v -4.1387 h -1.3775 v 4.4624 c 0,1.6314 0.8062,2.5645 2.3614,2.5645 z M 35.0708,55 h 1.3775 v -4.1196 c 0,-0.9966 0.7173,-1.6441 1.771,-1.6441 0.2602,0 0.4951,0.0318 0.7426,0.0825 v -1.2695 c -0.1396,-0.0317 -0.3808,-0.0635 -0.603,-0.0635 -0.9204,0 -1.5615,0.4317 -1.8091,1.1617 h -0.1015 v -1.0411 h -1.3775 z m 7.9219,0.1333 c 1.7646,0 2.7168,-1.0156 2.9453,-1.9233 l 0.0127,-0.0572 -1.3267,0.0064 -0.0253,0.0508 c -0.1651,0.3554 -0.6919,0.7934 -1.5743,0.7934 -1.1362,0 -1.8598,-0.768 -1.8852,-2.0884 h 4.8877 v -0.4824 c 0,-2.0693 -1.1807,-3.4595 -3.104,-3.4595 -1.9234,0 -3.1675,1.441 -3.1675,3.5928 v 0.0064 c 0,2.1836 1.2187,3.561 3.2373,3.561 z M 42.9292,49.103 c 0.9331,0 1.625,0.5967 1.7329,1.8282 h -3.5039 c 0.1206,-1.1871 0.8316,-1.8282 1.771,-1.8282 z"
     fill="#9d73f5"
     id="path28" />
</svg>
