<?xml version="1.0" encoding="UTF-8" standalone="no"?>
<svg
  width="365.3511"
  height="76.087898"
  viewBox="0 0 365.3511 76.087898"
  fill="none"
  version="1.1"
  id="svg36"
  sodipodi:docname="gitFeatureBranchIllustration02_dark.svg"
  inkscape:version="1.1 (ce6663b3b7, 2021-05-25)"
  xmlns:inkscape="http://www.inkscape.org/namespaces/inkscape"
  xmlns:sodipodi="http://sodipodi.sourceforge.net/DTD/sodipodi-0.dtd"
  xmlns="http://www.w3.org/2000/svg"
>
  <defs
     id="defs40" />
  <sodipodi:namedview
     id="namedview38"
     pagecolor="#ffffff"
     bordercolor="#666666"
     borderopacity="1.0"
     inkscape:pageshadow="2"
     inkscape:pageopacity="0.0"
     inkscape:pagecheckerboard="0"
     showgrid="false"
     inkscape:zoom="3.2668269"
     inkscape:cx="182.13392"
     inkscape:cy="46.222222"
     inkscape:window-width="1920"
     inkscape:window-height="1145"
     inkscape:window-x="0"
     inkscape:window-y="27"
     inkscape:window-maximized="1"
     inkscape:current-layer="svg36" />
  <path
     d="m 223.8861,9.293 c 1.658,0 2.637,-0.9785 2.637,-2.6426 V 0.6328 h -1.313 v 6.0059 c 0,0.9609 -0.468,1.4824 -1.336,1.4824 -0.785,0 -1.189,-0.5039 -1.242,-1.1484 l -0.006,-0.0528 h -1.295 l 0.006,0.0703 c 0.071,1.3477 0.985,2.3028 2.549,2.3028 z m 7.242,-0.0821 c 1.864,0 3.006,-1.248 3.006,-3.2988 V 5.9004 c 0,-2.0508 -1.148,-3.2988 -3.006,-3.2988 -1.863,0 -3.011,1.2539 -3.011,3.2988 v 0.0117 c 0,2.0508 1.142,3.2988 3.011,3.2988 z m 0,-1.0605 c -1.095,0 -1.711,-0.8262 -1.711,-2.2383 V 5.9004 c 0,-1.4121 0.616,-2.2383 1.711,-2.2383 1.09,0 1.711,0.8262 1.711,2.2383 v 0.0117 c 0,1.4063 -0.621,2.2383 -1.711,2.2383 z m 4.582,0.9375 h 1.272 V 5.3555 c 0,-1.0254 0.58,-1.6641 1.512,-1.6641 0.931,0 1.371,0.5215 1.371,1.5762 v 3.8203 h 1.265 V 4.9688 c 0,-1.5176 -0.785,-2.3672 -2.209,-2.3672 -0.925,0 -1.535,0.4101 -1.845,1.0898 h -0.094 V 0.2285 h -1.272 z m 7.196,0 h 1.271 V 5.3555 c 0,-1.0254 0.58,-1.6641 1.512,-1.6641 0.932,0 1.371,0.5215 1.371,1.5762 v 3.8203 h 1.266 V 4.9688 c 0,-1.5176 -0.786,-2.3672 -2.209,-2.3672 -0.926,0 -1.536,0.4101 -1.846,1.0898 h -0.094 V 2.7246 h -1.271 z m 7.195,0 h 1.271 V 5.3555 c 0,-1.0254 0.581,-1.6641 1.512,-1.6641 0.932,0 1.371,0.5215 1.371,1.5762 v 3.8203 h 1.266 V 4.9688 c 0,-1.5176 -0.785,-2.3672 -2.209,-2.3672 -0.926,0 -1.535,0.4101 -1.846,1.0898 h -0.094 V 2.7246 h -1.271 z m 7.605,2.2383 c 1.29,0 1.934,-0.4746 2.473,-1.9922 l 2.367,-6.6094 h -1.336 l -1.588,5.086 h -0.111 l -1.594,-5.086 h -1.371 l 2.309,6.3692 -0.094,0.3281 c -0.187,0.6445 -0.545,0.8965 -1.137,0.8965 -0.146,0 -0.304,-0.0059 -0.427,-0.0235 v 1.002 c 0.164,0.0176 0.351,0.0293 0.509,0.0293 z m 6.17,-7.2539 h 0.897 l 0.973,-3.4395 h -1.354 z m 5.344,5.1386 c 1.512,0 2.637,-0.8027 2.637,-1.9804 V 7.2188 c 0,-0.92 -0.586,-1.4414 -1.811,-1.7286 l -1.007,-0.2285 c -0.715,-0.1699 -1.008,-0.416 -1.008,-0.8144 V 4.4356 c 0,-0.5098 0.504,-0.8555 1.201,-0.8555 0.715,0 1.166,0.334 1.289,0.7793 v 0.0117 h 1.213 V 4.3652 c -0.112,-1.0371 -1.043,-1.7636 -2.496,-1.7636 -1.442,0 -2.473,0.7968 -2.473,1.9043 v 0.0058 c 0,0.9317 0.557,1.4766 1.758,1.752 l 1.014,0.2344 c 0.738,0.1699 1.037,0.4394 1.037,0.8378 v 0.0118 c 0,0.5214 -0.545,0.8789 -1.33,0.8789 -0.756,0 -1.219,-0.3223 -1.377,-0.8028 l -0.006,-0.0058 h -1.272 v 0.0058 c 0.123,1.0664 1.096,1.7871 2.631,1.7871 z m 10.113,0 c 1.577,0 2.485,-0.8496 2.713,-2.0859 l 0.012,-0.0527 h -1.219 l -0.011,0.0293 c -0.206,0.6855 -0.698,1.0488 -1.495,1.0488 -1.048,0 -1.699,-0.8555 -1.699,-2.2617 V 5.877 c 0,-1.3711 0.639,-2.2149 1.699,-2.2149 0.844,0 1.36,0.4688 1.5,1.0957 l 0.006,0.0176 1.219,-0.0059 V 4.7402 c -0.176,-1.2363 -1.131,-2.1386 -2.73,-2.1386 -1.858,0 -2.989,1.2597 -2.989,3.2754 v 0.0117 c 0,2.0566 1.137,3.3222 2.994,3.3222 z m 6.862,0 c 1.863,0 3.006,-1.248 3.006,-3.2988 V 5.9004 c 0,-2.0508 -1.149,-3.2988 -3.006,-3.2988 -1.864,0 -3.012,1.2539 -3.012,3.2988 v 0.0117 c 0,2.0508 1.143,3.2988 3.012,3.2988 z m 0,-1.0605 c -1.096,0 -1.711,-0.8262 -1.711,-2.2383 V 5.9004 c 0,-1.4121 0.615,-2.2383 1.711,-2.2383 1.09,0 1.711,0.8262 1.711,2.2383 v 0.0117 c 0,1.4063 -0.621,2.2383 -1.711,2.2383 z m 4.523,0.9375 h 1.272 V 5.1797 c 0,-0.832 0.568,-1.4883 1.336,-1.4883 0.75,0 1.224,0.457 1.224,1.1836 v 4.2129 h 1.266 V 5.0625 c 0,-0.7676 0.533,-1.3711 1.342,-1.3711 0.832,0 1.23,0.4336 1.23,1.3125 v 4.084 h 1.266 V 4.6992 c 0,-1.3242 -0.75,-2.0976 -2.033,-2.0976 -0.885,0 -1.618,0.4511 -1.94,1.1367 h -0.1 c -0.281,-0.6856 -0.896,-1.1367 -1.763,-1.1367 -0.832,0 -1.453,0.4043 -1.735,1.1015 h -0.093 V 2.7246 h -1.272 z m 10.711,0 h 1.272 V 5.1797 c 0,-0.832 0.568,-1.4883 1.336,-1.4883 0.75,0 1.224,0.457 1.224,1.1836 v 4.2129 h 1.266 V 5.0625 c 0,-0.7676 0.533,-1.3711 1.342,-1.3711 0.832,0 1.23,0.4336 1.23,1.3125 v 4.084 h 1.266 V 4.6992 c 0,-1.3242 -0.75,-2.0976 -2.034,-2.0976 -0.884,0 -1.617,0.4511 -1.939,1.1367 h -0.1 c -0.281,-0.6856 -0.896,-1.1367 -1.763,-1.1367 -0.832,0 -1.453,0.4043 -1.735,1.1015 h -0.093 V 2.7246 h -1.272 z m 11.373,-7.5 c 0.434,0 0.797,-0.3574 0.797,-0.791 0,-0.4395 -0.363,-0.7969 -0.797,-0.7969 -0.439,0 -0.797,0.3574 -0.797,0.7969 0,0.4336 0.358,0.791 0.797,0.791 z m -0.639,7.5 h 1.266 V 2.7246 h -1.266 z m 5.52,0.041 c 0.246,0 0.48,-0.0293 0.686,-0.0644 V 8.0508 c -0.176,0.0176 -0.288,0.0234 -0.481,0.0234 -0.627,0 -0.885,-0.2812 -0.885,-0.9668 V 3.7266 h 1.366 v -1.002 h -1.366 V 1.1191 h -1.295 v 1.6055 h -0.996 v 1.002 h 0.996 v 3.6855 c 0,1.2246 0.575,1.7168 1.975,1.7168 z"
     fill="#619bff"
     id="path2" />
  <path
     opacity="0.4"
     d="m 364.8511,27.0879 h -308"
     stroke="#5483e8"
     stroke-linecap="round"
     stroke-linejoin="round"
     stroke-dasharray="1, 2"
     id="path4" />
  <path
     opacity="0.4"
     d="m 364.8511,67.0879 h -308"
     stroke="#9160f7"
     stroke-linecap="round"
     stroke-linejoin="round"
     stroke-dasharray="1, 2"
     id="path6" />
  <path
     d="m 56.8511,27.0879 h 150.5"
     stroke="#5483e8"
     stroke-width="2"
     stroke-linecap="round"
     stroke-linejoin="round"
     id="path8" />
  <path
     d="m 120.3511,27.0879 c 40,0 24,39.5 64,39.5 h 48"
     stroke="#9160f7"
     stroke-width="2"
     stroke-linecap="round"
     stroke-linejoin="round"
     id="path10" />
  <circle
     cx="75.851097"
     cy="26.0879"
     r="9"
     fill="#3558d4"
     stroke="#5483e8"
     stroke-width="2"
     id="circle12" />
  <path
     opacity="0.8"
     d="m 72.0894,30.0879 h 1.3769 l 0.7678,-2.2852 h 3.234 l 0.762,2.2852 h 1.383 l -3.053,-8.4551 h -1.418 z m 3.7087,-6.9727 h 0.1 l 1.219,3.6329 h -2.532 z"
     fill="#ffffff"
     id="path14" />
  <circle
     cx="119.8511"
     cy="26.0879"
     r="9"
     fill="#3558d4"
     stroke="#5483e8"
     stroke-width="2"
     id="circle16" />
  <path
     opacity="0.8"
     d="m 116.8861,30.0879 h 3.475 c 1.804,0 2.888,-0.9023 2.888,-2.3848 v -0.0117 c 0,-1.1015 -0.761,-1.9101 -1.904,-2.0332 v -0.0996 c 0.832,-0.1406 1.483,-0.9316 1.483,-1.8105 v -0.0118 c 0,-1.2949 -0.956,-2.1035 -2.543,-2.1035 h -3.399 z m 3.094,-7.3828 c 0.973,0 1.541,0.4629 1.541,1.2598 v 0.0117 c 0,0.8203 -0.604,1.2539 -1.764,1.2539 h -1.558 v -2.5254 z m 0.041,3.5273 c 1.236,0 1.887,0.4688 1.887,1.377 v 0.0117 c 0,0.9082 -0.627,1.3945 -1.811,1.3945 h -1.898 v -2.7832 z"
     fill="#ffffff"
     id="path18" />
  <circle
     cx="205.8511"
     cy="26.0879"
     r="9"
     fill="#3558d4"
     stroke="#5483e8"
     stroke-width="2"
     id="circle20" />
  <path
     opacity="0.8"
     d="m 203.2791,30.0879 h 5.367 V 28.957 h -4.055 v -2.6308 h 3.838 v -1.0899 h -3.838 v -2.4726 h 4.055 v -1.1309 h -5.367 z"
     fill="#ffffff"
     id="path22" />
  <circle
     cx="183.8511"
     cy="66.087898"
     r="9"
     fill="#733de3"
     stroke="#9160f7"
     stroke-width="2"
     id="circle24" />
  <path
     opacity="0.8"
     d="m 184.0271,70.293 c 1.886,0 3.263,-1.0781 3.51,-2.7012 v -0.0351 h -1.301 l -0.012,0.0234 c -0.24,0.9551 -1.078,1.5527 -2.197,1.5527 -1.524,0 -2.473,-1.2597 -2.473,-3.2637 v -0.0117 c 0,-2.0097 0.949,-3.2695 2.467,-3.2695 1.113,0 1.963,0.6738 2.209,1.7109 v 0.0176 h 1.301 l 0.006,-0.0293 c -0.223,-1.6816 -1.653,-2.8594 -3.516,-2.8594 -2.35,0 -3.809,1.6993 -3.809,4.4297 v 0.0117 c 0,2.7247 1.465,4.4239 3.815,4.4239 z"
     fill="#ffffff"
     id="path26" />
  <circle
     cx="227.8511"
     cy="66.087898"
     r="9"
     fill="#733de3"
     stroke="#9160f7"
     stroke-width="2"
     id="circle28" />
  <path
     opacity="0.8"
     d="m 224.5051,70.0879 h 3.053 c 2.52,0 3.979,-1.5586 3.979,-4.2422 V 65.834 c 0,-2.6543 -1.471,-4.2012 -3.979,-4.2012 h -3.053 z m 1.313,-1.1309 v -6.1933 h 1.594 c 1.751,0 2.789,1.1426 2.789,3.0879 v 0.0117 c 0,1.9629 -1.02,3.0937 -2.789,3.0937 z"
     fill="#ffffff"
     id="path30" />
  <path
     d="m 0,31.0879 h 1.2949 v -6.7222 h 0.1016 l 2.6851,6.7222 h 1.0537 l 2.6914,-6.7222 h 0.0952 v 6.7222 H 9.2168 V 21.9282 H 7.5791 L 4.6592,29.2344 H 4.5576 L 1.6377,21.9282 H 0 Z m 13.2476,0.1143 c 0.914,0 1.6377,-0.3936 2.0439,-1.0918 h 0.1079 v 0.9775 h 1.3648 v -4.7163 c 0,-1.4473 -0.9776,-2.3106 -2.7105,-2.3106 -1.5678,0 -2.6533,0.7554 -2.8183,1.8853 l -0.0064,0.0444 h 1.3267 l 0.0063,-0.0254 c 0.1651,-0.4887 0.6665,-0.768 1.4283,-0.768 0.9331,0 1.4091,0.4189 1.4091,1.1743 v 0.6094 l -1.8662,0.1079 c -1.644,0.1015 -2.5708,0.8188 -2.5708,2.0503 v 0.0127 c 0,1.2505 0.9712,2.0503 2.2852,2.0503 z M 12.3335,29.0947 V 29.082 c 0,-0.622 0.4317,-0.9648 1.3838,-1.0219 l 1.6821,-0.1079 v 0.5903 c 0,0.8887 -0.7553,1.5615 -1.7837,1.5615 -0.7426,0 -1.2822,-0.3745 -1.2822,-1.0093 z m 7.0904,-6.1318 c 0.4697,0 0.8632,-0.3872 0.8632,-0.8569 0,-0.4761 -0.3935,-0.8633 -0.8632,-0.8633 -0.4761,0 -0.8633,0.3872 -0.8633,0.8633 0,0.4697 0.3872,0.8569 0.8633,0.8569 z m -0.6919,8.125 h 1.3711 V 24.1943 H 18.732 Z m 3.3769,0 h 1.3775 v -4.0435 c 0,-1.1108 0.6284,-1.8027 1.6376,-1.8027 1.0093,0 1.4854,0.565 1.4854,1.7075 v 4.1387 h 1.3711 v -4.4624 c 0,-1.644 -0.8506,-2.5645 -2.3931,-2.5645 -1.0029,0 -1.6631,0.4444 -1.9995,1.1807 h -0.1015 v -1.0474 h -1.3775 z"
     fill="#619bff"
     id="path32" />
  <path
     d="m 0,71.0879 h 1.4219 v -3.834 H 5.3574 V 66.0542 H 1.4219 V 63.1533 H 5.7193 V 61.9282 H 0 Z m 10.3023,0.1333 c 1.7646,0 2.7168,-1.0156 2.9453,-1.9233 l 0.0127,-0.0572 -1.3267,0.0064 -0.0254,0.0508 c -0.165,0.3554 -0.6919,0.7934 -1.5742,0.7934 -1.1362,0 -1.8599,-0.768 -1.8852,-2.0884 h 4.8877 v -0.4824 c 0,-2.0693 -1.1807,-3.4595 -3.1041,-3.4595 -1.9233,0 -3.1674,1.441 -3.1674,3.5928 v 0.0064 c 0,2.1836 1.2187,3.561 3.2373,3.561 z m -0.0635,-6.0303 c 0.9331,0 1.625,0.5967 1.7329,1.8282 H 8.4678 c 0.1206,-1.1871 0.8315,-1.8282 1.771,-1.8282 z m 6.6269,6.0113 c 0.9141,0 1.6377,-0.3936 2.044,-1.0918 h 0.1079 v 0.9775 h 1.3647 v -4.7163 c 0,-1.4473 -0.9775,-2.3106 -2.7104,-2.3106 -1.5679,0 -2.6533,0.7554 -2.8184,1.8853 l -0.0063,0.0444 h 1.3267 l 0.0063,-0.0254 c 0.165,-0.4887 0.6665,-0.768 1.4282,-0.768 0.9331,0 1.4092,0.4189 1.4092,1.1743 v 0.6094 l -1.8662,0.1079 c -1.6441,0.1015 -2.5708,0.8188 -2.5708,2.0503 v 0.0127 c 0,1.2505 0.9712,2.0503 2.2851,2.0503 z m -0.914,-2.1075 V 69.082 c 0,-0.622 0.4316,-0.9648 1.3838,-1.0219 l 1.6821,-0.1079 v 0.5903 c 0,0.8887 -0.7554,1.5615 -1.7837,1.5615 -0.7427,0 -1.2822,-0.3745 -1.2822,-1.0093 z m 8.9756,2.0376 c 0.2666,0 0.5205,-0.0317 0.7426,-0.0698 v -1.0981 c -0.1904,0.019 -0.311,0.0254 -0.5205,0.0254 -0.6792,0 -0.9585,-0.3047 -0.9585,-1.0474 v -3.6626 h 1.479 v -1.0855 h -1.479 v -1.7392 h -1.4028 v 1.7392 H 21.709 v 1.0855 h 1.0791 v 3.9927 c 0,1.3266 0.6221,1.8598 2.1392,1.8598 z m 4.6465,0.0889 c 1.0029,0 1.7011,-0.4316 2.0312,-1.1743 h 0.1079 v 1.041 h 1.3711 v -6.8936 h -1.3711 v 4.0435 c 0,1.1108 -0.5903,1.8027 -1.6948,1.8027 -1.0093,0 -1.4282,-0.5649 -1.4282,-1.7075 v -4.1387 h -1.3775 v 4.4624 c 0,1.6314 0.8062,2.5645 2.3614,2.5645 z m 5.497,-0.1333 h 1.3775 v -4.1196 c 0,-0.9966 0.7173,-1.6441 1.771,-1.6441 0.2602,0 0.4951,0.0318 0.7426,0.0825 v -1.2695 c -0.1396,-0.0317 -0.3808,-0.0635 -0.603,-0.0635 -0.9204,0 -1.5615,0.4317 -1.8091,1.1617 h -0.1015 v -1.0411 h -1.3775 z m 7.9219,0.1333 c 1.7646,0 2.7168,-1.0156 2.9453,-1.9233 l 0.0127,-0.0572 -1.3267,0.0064 -0.0253,0.0508 c -0.1651,0.3554 -0.6919,0.7934 -1.5743,0.7934 -1.1362,0 -1.8598,-0.768 -1.8852,-2.0884 h 4.8877 v -0.4824 c 0,-2.0693 -1.1807,-3.4595 -3.104,-3.4595 -1.9234,0 -3.1675,1.441 -3.1675,3.5928 v 0.0064 c 0,2.1836 1.2187,3.561 3.2373,3.561 z m -0.0635,-6.0303 c 0.9331,0 1.625,0.5967 1.7329,1.8282 h -3.5039 c 0.1206,-1.1871 0.8316,-1.8282 1.771,-1.8282 z"
     fill="#9d73f5"
     id="path34" />
</svg>
