<svg width="366" height="80" viewBox="0 0 366 80" fill="none" xmlns="http://www.w3.org/2000/svg">
<g clip-path="url(#clip0)">
<path opacity="0.4" d="M366 21H58" stroke="#4B9C96" stroke-linecap="round" stroke-linejoin="round" stroke-dasharray="1 2"/>
<path opacity="0.4" d="M366 61H58" stroke="#8858ED" stroke-linecap="round" stroke-linejoin="round" stroke-dasharray="1 2"/>
<path d="M58 21L208.5 21" stroke="#4B9C96" stroke-width="2" stroke-linecap="round" stroke-linejoin="round"/>
<path d="M121.5 21C161.5 21 145 61 185 61H229" stroke="#ABACB1" stroke-width="2" stroke-linecap="round" stroke-linejoin="round"/>
<path d="M207 21C258 21 234 61 285 61H329" stroke="#8858ED" stroke-width="2" stroke-linecap="round" stroke-linejoin="round"/>
<circle cx="77" cy="20" r="9" fill="#A6E0DC" stroke="#4B9C96" stroke-width="2"/>
<path d="M73.1504 24H74.7324L75.4355 21.8145H78.5645L79.2734 24H80.8555L77.8555 15.5449H76.1504L73.1504 24ZM76.9531 17.1152H77.0527L78.1895 20.6484H75.8164L76.9531 17.1152Z" fill="#458F8A"/>
<circle cx="121" cy="20" r="9" fill="#A6E0DC" stroke="#4B9C96" stroke-width="2"/>
<path d="M117.959 24H121.574C123.379 24 124.48 23.0859 124.48 21.6035V21.5918C124.48 20.4961 123.695 19.6758 122.559 19.5703V19.4648C123.408 19.3301 124.064 18.5449 124.064 17.6602V17.6484C124.064 16.3535 123.098 15.5449 121.492 15.5449H117.959V24ZM121.123 16.7227C122.037 16.7227 122.57 17.1621 122.57 17.9121V17.9238C122.57 18.6914 122.002 19.1074 120.93 19.1074H119.471V16.7227H121.123ZM121.17 20.1797C122.324 20.1797 122.934 20.6309 122.934 21.4863V21.498C122.934 22.3594 122.342 22.8223 121.229 22.8223H119.471V20.1797H121.17Z" fill="#458F8A"/>
<circle cx="207" cy="20" r="9" fill="#A6E0DC" stroke="#4B9C96" stroke-width="2"/>
<path d="M204.369 24H209.842V22.7285H205.881V20.3086H209.625V19.1074H205.881V16.8164H209.842V15.5449H204.369V24Z" fill="#458F8A"/>
<circle cx="185" cy="60" r="9" fill="#D6D6D9" stroke="#ABACB1" stroke-width="2"/>
<path d="M185.176 64.2051C187.062 64.2051 188.439 63.127 188.686 61.5039V61.4688H187.385L187.373 61.4922C187.133 62.4473 186.295 63.0449 185.176 63.0449C183.652 63.0449 182.703 61.7852 182.703 59.7812V59.7695C182.703 57.7598 183.652 56.5 185.17 56.5C186.283 56.5 187.133 57.1738 187.379 58.2109V58.2285H188.68L188.686 58.1992C188.463 56.5176 187.033 55.3398 185.17 55.3398C182.82 55.3398 181.361 57.0391 181.361 59.7695V59.7812C181.361 62.5059 182.826 64.2051 185.176 64.2051Z" fill="#98989C"/>
<circle cx="285" cy="60" r="9" fill="#E2CDF7" stroke="#8858ED" stroke-width="2"/>
<path d="M283.201 64.2109C285.152 64.2109 286.553 63.0801 286.775 61.3867V61.3457H285.293L285.287 61.375C285.07 62.3066 284.273 62.9043 283.201 62.9043C281.76 62.9043 280.863 61.7031 280.863 59.7754V59.7637C280.863 57.8418 281.76 56.6406 283.195 56.6406C284.262 56.6406 285.07 57.3027 285.287 58.3047L285.293 58.3281H286.775V58.2812C286.576 56.5527 285.117 55.334 283.195 55.334C280.799 55.334 279.316 57.0273 279.316 59.7695V59.7812C279.316 62.5117 280.805 64.2109 283.201 64.2109ZM288.387 59.0664H289.389L290.402 55.5449H288.896L288.387 59.0664Z" fill="#8858ED"/>
<circle cx="229" cy="60" r="9" fill="#D6D6D9" stroke="#ABACB1" stroke-width="2"/>
<path d="M225.654 64H228.707C231.227 64 232.686 62.4414 232.686 59.7578V59.7461C232.686 57.0918 231.215 55.5449 228.707 55.5449H225.654V64ZM226.967 62.8691V56.6758H228.561C230.312 56.6758 231.35 57.8184 231.35 59.7637V59.7754C231.35 61.7383 230.33 62.8691 228.561 62.8691H226.967Z" fill="#98989C"/>
<circle cx="329" cy="60" r="9" fill="#E2CDF7" stroke="#8858ED" stroke-width="2"/>
<path d="M323.627 64H326.797C329.328 64 330.775 62.4473 330.775 59.7402V59.7285C330.775 57.0801 329.311 55.5449 326.797 55.5449H323.627V64ZM325.139 62.7285V56.8164H326.598C328.256 56.8164 329.234 57.8945 329.234 59.752V59.7637C329.234 61.6621 328.279 62.7285 326.598 62.7285H325.139ZM332.434 59.0664H333.436L334.449 55.5449H332.943L332.434 59.0664Z" fill="#8858ED"/>
<path d="M1.14893 25H2.44385V18.2778H2.54541L5.23047 25H6.28418L8.97559 18.2778H9.0708V25H10.3657V15.8403H8.72803L5.80811 23.1465H5.70654L2.78662 15.8403H1.14893V25ZM14.3965 25.1143C15.3105 25.1143 16.0342 24.7207 16.4404 24.0225H16.5483V25H17.9131V20.2837C17.9131 18.8364 16.9355 17.9731 15.2026 17.9731C13.6348 17.9731 12.5493 18.7285 12.3843 19.8584L12.3779 19.9028H13.7046L13.7109 19.8774C13.876 19.3887 14.3774 19.1094 15.1392 19.1094C16.0723 19.1094 16.5483 19.5283 16.5483 20.2837V20.8931L14.6821 21.001C13.0381 21.1025 12.1113 21.8198 12.1113 23.0513V23.064C12.1113 24.3145 13.0825 25.1143 14.3965 25.1143ZM13.4824 23.0068V22.9941C13.4824 22.3721 13.9141 22.0293 14.8662 21.9722L16.5483 21.8643V22.4546C16.5483 23.3433 15.793 24.0161 14.7646 24.0161C14.022 24.0161 13.4824 23.6416 13.4824 23.0068ZM20.5728 16.875C21.0425 16.875 21.436 16.4878 21.436 16.0181C21.436 15.542 21.0425 15.1548 20.5728 15.1548C20.0967 15.1548 19.7095 15.542 19.7095 16.0181C19.7095 16.4878 20.0967 16.875 20.5728 16.875ZM19.8809 25H21.252V18.1064H19.8809V25ZM23.2578 25H24.6353V20.9565C24.6353 19.8457 25.2637 19.1538 26.2729 19.1538C27.2822 19.1538 27.7583 19.7188 27.7583 20.8613V25H29.1294V20.5376C29.1294 18.8936 28.2788 17.9731 26.7363 17.9731C25.7334 17.9731 25.0732 18.4175 24.7368 19.1538H24.6353V18.1064H23.2578V25Z" fill="#4B9C96"/>
<path d="M1.14893 65H2.5708V61.166H6.50635V59.9663H2.5708V57.0654H6.86816V55.8403H1.14893V65ZM11.4512 65.1333C13.2158 65.1333 14.168 64.1177 14.3965 63.21L14.4092 63.1528L13.0825 63.1592L13.0571 63.21C12.8921 63.5654 12.3652 64.0034 11.4829 64.0034C10.3467 64.0034 9.62305 63.2354 9.59766 61.915H14.4854V61.4326C14.4854 59.3633 13.3047 57.9731 11.3813 57.9731C9.45801 57.9731 8.21387 59.4141 8.21387 61.5659V61.5723C8.21387 63.7559 9.43262 65.1333 11.4512 65.1333ZM11.3877 59.103C12.3208 59.103 13.0127 59.6997 13.1206 60.9312H9.6167C9.7373 59.7441 10.4482 59.103 11.3877 59.103ZM18.0146 65.1143C18.9287 65.1143 19.6523 64.7207 20.0586 64.0225H20.1665V65H21.5312V60.2837C21.5312 58.8364 20.5537 57.9731 18.8208 57.9731C17.2529 57.9731 16.1675 58.7285 16.0024 59.8584L15.9961 59.9028H17.3228L17.3291 59.8774C17.4941 59.3887 17.9956 59.1094 18.7573 59.1094C19.6904 59.1094 20.1665 59.5283 20.1665 60.2837V60.8931L18.3003 61.001C16.6562 61.1025 15.7295 61.8198 15.7295 63.0513V63.064C15.7295 64.3145 16.7007 65.1143 18.0146 65.1143ZM17.1006 63.0068V62.9941C17.1006 62.3721 17.5322 62.0293 18.4844 61.9722L20.1665 61.8643V62.4546C20.1665 63.3433 19.4111 64.0161 18.3828 64.0161C17.6401 64.0161 17.1006 63.6416 17.1006 63.0068ZM26.0762 65.0444C26.3428 65.0444 26.5967 65.0127 26.8188 64.9746V63.8765C26.6284 63.8955 26.5078 63.9019 26.2983 63.9019C25.6191 63.9019 25.3398 63.5972 25.3398 62.8545V59.1919H26.8188V58.1064H25.3398V56.3672H23.937V58.1064H22.8579V59.1919H23.937V63.1846C23.937 64.5112 24.5591 65.0444 26.0762 65.0444ZM30.7227 65.1333C31.7256 65.1333 32.4238 64.7017 32.7539 63.959H32.8618V65H34.2329V58.1064H32.8618V62.1499C32.8618 63.2607 32.2715 63.9526 31.167 63.9526C30.1577 63.9526 29.7388 63.3877 29.7388 62.2451V58.1064H28.3613V62.5688C28.3613 64.2002 29.1675 65.1333 30.7227 65.1333ZM36.2197 65H37.5972V60.8804C37.5972 59.8838 38.3145 59.2363 39.3682 59.2363C39.6284 59.2363 39.8633 59.2681 40.1108 59.3188V58.0493C39.9712 58.0176 39.73 57.9858 39.5078 57.9858C38.5874 57.9858 37.9463 58.4175 37.6987 59.1475H37.5972V58.1064H36.2197V65ZM44.1416 65.1333C45.9062 65.1333 46.8584 64.1177 47.0869 63.21L47.0996 63.1528L45.7729 63.1592L45.7476 63.21C45.5825 63.5654 45.0557 64.0034 44.1733 64.0034C43.0371 64.0034 42.3135 63.2354 42.2881 61.915H47.1758V61.4326C47.1758 59.3633 45.9951 57.9731 44.0718 57.9731C42.1484 57.9731 40.9043 59.4141 40.9043 61.5659V61.5723C40.9043 63.7559 42.123 65.1333 44.1416 65.1333ZM44.0781 59.103C45.0112 59.103 45.7031 59.6997 45.811 60.9312H42.3071C42.4277 59.7441 43.1387 59.103 44.0781 59.103Z" fill="#8858ED"/>
</g>
<defs>
<clipPath id="clip0">
<path d="M0 4C0 1.79086 1.79086 0 4 0H362C364.209 0 366 1.79086 366 4V76C366 78.2091 364.209 80 362 80H4.00001C1.79087 80 0 78.2091 0 76V4Z" fill="white"/>
</clipPath>
</defs>
</svg>
