<svg width="20" height="20" viewBox="0 0 20 20" fill="none" xmlns="http://www.w3.org/2000/svg">
<path d="M5.14322 4.08435L4.05384 1.11446C3.85668 0.576958 4.22564 -0.00661745 4.75908 5.67159e-05C10.7481 0.0749856 14.9297 0.498586 14.9297 8.84115C13.9098 4.34724 7.48963 4.08435 5.14322 4.08435Z" fill="#039BA1"/>
<path d="M6.72408 9.72458L5.67754 6.65952C5.49497 6.12486 5.86418 5.55749 6.38944 5.58316C12.2538 5.86976 15.2625 8.10116 14.982 14.5359C13.9621 10.042 9.0705 9.72458 6.72408 9.72458Z" fill="#039BA1"/>
<path d="M7.22249 12.2665L8.3452 15.5463C8.36594 15.5463 8.38673 15.5463 8.40758 15.5463C10.7627 15.546 13.8167 15.5455 14.8276 20C15.1048 13.6398 12.7117 11.4632 7.92709 11.1975C7.40459 11.1685 7.04044 11.7346 7.22249 12.2665Z" fill="#039BA1"/>
</svg>
