<svg width="48" height="48" viewBox="0 0 48 48" fill="none" xmlns="http://www.w3.org/2000/svg">
<path d="M12.91 9.96909L10.1371 2.92505C9.63519 1.65018 10.5744 0.266043 11.9322 0.281873C27.1769 0.459591 37.8209 1.4643 37.8209 21.2514C35.2248 10.5926 18.8827 9.96909 12.91 9.96909Z" fill="#039BA1"/>
<path d="M16.934 23.3467L14.2701 16.077C13.8054 14.8088 14.7452 13.4631 16.0822 13.524C31.0096 14.2038 38.6681 19.4963 37.9543 34.7583C35.3581 24.0996 22.9067 23.3467 16.934 23.3467Z" fill="#039BA1"/>
<path d="M18.2027 29.3758L21.0605 37.1549C21.1133 37.1549 21.1662 37.1549 21.2193 37.1549C27.2142 37.1541 34.9879 37.153 37.5612 47.7183C38.2667 32.6331 32.1751 27.4703 19.9962 26.8403C18.6662 26.7715 17.7393 28.1143 18.2027 29.3758Z" fill="#039BA1"/>
</svg>
