<svg width="24" height="24" viewBox="0 0 24 24" fill="none" xmlns="http://www.w3.org/2000/svg">
<path d="M6.45501 4.98455L5.06853 1.46253C4.8176 0.825091 5.28718 0.133021 5.9661 0.140936C13.5884 0.229796 18.9105 0.732149 18.9105 10.6257C17.6124 5.29632 9.44135 4.98455 6.45501 4.98455Z" fill="#24A394"/>
<path d="M8.46702 11.6734L7.13505 8.03848C6.90269 7.40442 7.37259 6.73157 8.04111 6.76201C15.5048 7.1019 19.334 9.74814 18.9771 17.3792C17.6791 12.0498 11.4534 11.6734 8.46702 11.6734Z" fill="#24A394"/>
<path d="M9.10135 14.6879L10.5303 18.5775C10.5566 18.5775 10.5831 18.5775 10.6096 18.5775C13.6071 18.577 17.4939 18.5765 18.7806 23.8591C19.1333 16.3165 16.0876 13.7352 9.99811 13.4201C9.33311 13.3858 8.86965 14.0571 9.10135 14.6879Z" fill="#24A394"/>
</svg>
