<svg width="24" height="24" viewBox="0 0 24 24" fill="none" xmlns="http://www.w3.org/2000/svg">
<path d="M6.45501 4.90121L5.06853 1.33736C4.8176 0.692349 5.28718 -0.00794094 5.9661 6.80591e-05C13.5884 0.0899827 18.9105 0.598303 18.9105 10.6094C17.6124 5.21669 9.44135 4.90121 6.45501 4.90121Z" fill="#039BA1"/>
<path d="M8.46702 11.6695L7.13505 7.99143C6.90269 7.34983 7.37259 6.66899 8.04111 6.69979C15.5048 7.04372 19.334 9.72139 18.9771 17.4431C17.6791 12.0504 11.4534 11.6695 8.46702 11.6695Z" fill="#039BA1"/>
<path d="M9.10135 14.7198L10.5303 18.6556C10.5566 18.6556 10.5831 18.6556 10.6096 18.6556C13.6071 18.6552 17.4939 18.6546 18.7806 24C19.1333 16.3678 16.0876 13.7558 9.99811 13.437C9.33311 13.4022 8.86965 14.0816 9.10135 14.7198Z" fill="#039BA1"/>
</svg>
