<svg width="20" height="20" viewBox="0 0 20 20" fill="none" xmlns="http://www.w3.org/2000/svg">
<path d="M5.14322 4.48788L4.05384 1.72057C3.85668 1.21973 4.22564 0.675963 4.75908 0.682182C10.7481 0.752 14.9297 1.14671 14.9297 8.92021C13.9098 4.73284 7.48963 4.48788 5.14322 4.48788Z" fill="#24A394"/>
<path d="M6.72408 9.74338L5.67754 6.8874C5.49497 6.3892 5.86418 5.86053 6.38944 5.88446C12.2538 6.15151 15.2625 8.2307 14.982 14.2265C13.9621 10.0391 9.0705 9.74338 6.72408 9.74338Z" fill="#24A394"/>
<path d="M7.22249 12.1119L8.3452 15.168C8.36594 15.168 8.38673 15.168 8.40758 15.168C10.7627 15.1677 13.8167 15.1673 14.8276 19.3179C15.1048 13.3916 12.7117 11.3634 7.92709 11.1158C7.40459 11.0888 7.04044 11.6163 7.22249 12.1119Z" fill="#24A394"/>
</svg>
