<svg xmlns="http://www.w3.org/2000/svg" width="16" height="16" viewBox="0 0 16 16">
  <g id="RevealOff1" fill="none" fill-rule="evenodd" stroke="none" stroke-width="1">
    <path id="Fill-2" fill="#9AA7B0" d="M8,2 L6.27,6.129 L2,6.583 L5.2,9.59 L4.292,14 L8,11.729 L11.708,14 L10.8,9.59 L14,6.583 L9.73,6.129 L8,2 Z M8,4.587 L8.808,6.516 L9.037,7.061 L9.625,7.124 L11.727,7.347 L10.115,8.861 L9.708,9.244 L9.82,9.792 L10.264,11.942 L8.522,10.876 L8,10.557 L7.478,10.876 L5.736,11.942 L6.18,9.792 L6.292,9.244 L5.885,8.861 L4.273,7.347 L6.375,7.124 L6.963,7.061 L7.192,6.516 L8,4.587 Z"/>
  </g>
</svg>
