<svg width="16" height="16" viewBox="0 0 16 16" fill="none" xmlns="http://www.w3.org/2000/svg">
<path d="M7.29289 1.41421C7.68342 1.02369 8.31658 1.02369 8.70711 1.41421L9.06066 1.06066L8.70711 1.41421L9.50337 2.21048C9.8701 2.57721 10.365 2.78714 10.8835 2.79597L12.1988 2.81838C12.7377 2.82756 13.1724 3.26225 13.1816 3.8012L13.204 5.11649C13.2129 5.63505 13.4228 6.1299 13.7895 6.49663L14.6855 7.39256C15.049 7.75615 15.0776 8.33621 14.7516 8.73379L13.6104 10.1253C13.3171 10.4829 13.1569 10.9311 13.1569 11.3936V12.1569C13.1569 12.7091 12.7091 13.1569 12.1569 13.1569H10.918C10.3789 13.1569 9.86271 13.3744 9.48631 13.7603L8.71583 14.5501C8.32339 14.9524 7.67661 14.9524 7.28418 14.5501L6.51369 13.7603C6.13729 13.3744 5.62107 13.1569 5.08204 13.1569H3.81269C3.2684 13.1569 2.82406 12.7215 2.8129 12.1774L2.79605 11.3557C2.78702 10.9157 2.63312 10.491 2.35821 10.1474L1.22913 8.73602C0.910815 8.33813 0.942584 7.76452 1.30289 7.40422L2.21047 6.49663C2.57721 6.1299 2.78714 5.63505 2.79597 5.11649L2.81838 3.8012C2.82756 3.26225 3.26225 2.82756 3.8012 2.81838L5.11649 2.79597C5.63505 2.78714 6.1299 2.57721 6.49663 2.21047L7.29289 1.41421Z" stroke="#EDA200"/>
<rect x="5" y="6" width="6" height="1" fill="#EDA200"/>
<rect x="5" y="7.5" width="6" height="1" fill="#EDA200"/>
<rect x="5" y="9" width="3" height="1" fill="#EDA200"/>
</svg>
