<svg width="16" height="16" viewBox="0 0 16 16" fill="none" xmlns="http://www.w3.org/2000/svg">
<path fill-rule="evenodd" clip-rule="evenodd" d="M9.06067 1.06066C8.47488 0.474876 7.52514 0.474876 6.93935 1.06066L6.14309 1.85692C5.86804 2.13197 5.4969 2.28942 5.10798 2.29605L3.79269 2.31845C2.98427 2.33223 2.33223 2.98426 2.31846 3.79269L2.29605 5.10797C2.28943 5.49689 2.13198 5.86803 1.85693 6.14308L0.949345 7.05067C0.408886 7.59113 0.361233 8.45153 0.838702 9.04837L1.96778 10.4597C2.17397 10.7175 2.28939 11.036 2.29616 11.366L2.31302 12.1876C2.32976 13.0039 2.99626 13.6569 3.8127 13.6569H5.08204C5.48632 13.6569 5.87348 13.82 6.15578 14.1094L6.92627 14.8993C7.51492 15.5027 8.4851 15.5027 9.07375 14.8993L9.84424 14.1094C10.1265 13.82 10.5137 13.6569 10.918 13.6569H12.1569C12.9853 13.6569 13.6569 12.9853 13.6569 12.1569V11.3936C13.6569 11.0467 13.7771 10.7106 13.997 10.4424L15.1382 9.05086C15.6273 8.45448 15.5844 7.58439 15.039 7.03901L14.1431 6.14308C13.868 5.86803 13.7106 5.49689 13.704 5.10797L13.6816 3.79269C13.6678 2.98426 13.0157 2.33223 12.2073 2.31845L10.892 2.29605C10.5031 2.28942 10.132 2.13197 9.85693 1.85692L9.06067 1.06066ZM11.1765 6.35264C11.3577 6.15688 11.3533 5.85341 11.1665 5.66298L10.8839 5.37476C10.6839 5.17079 10.3539 5.17557 10.1599 5.38524L7.24401 8.53632C7.0461 8.7502 6.70796 8.7502 6.51004 8.53632L5.82374 7.79467C5.62583 7.5808 5.28769 7.5808 5.08978 7.79467L4.81425 8.09242C4.63689 8.28408 4.63689 8.57995 4.81425 8.77161L6.50934 10.6034C6.70725 10.8173 7.0454 10.8173 7.24331 10.6034L11.1765 6.35264Z" fill="#499C54"/>
</svg>
