<svg xmlns="http://www.w3.org/2000/svg" width="13" height="13" viewBox="0 0 13 13">
  <path fill="#AFB1B3" fill-rule="evenodd" d="M3.1977713,6.67309171 C3.45464999,6.7549786 3.72705818,6.79999995 4.00000012,6.79999995 C5.15477734,6.79999995 6.29999995,5.99411252 6.29999995,5 C6.29999995,4.80169063 6.25007683,4.61087145 6.16184926,4.43244561 C6.53535707,4.2480008 6.78140735,4.03718558 6.9000001,3.79999995 C7.0333333,3.53333338 7.0666666,3.26666673 7,3 C6.67002098,3.4666667 6.33668764,3.70000005 6,3.70000005 C5.78261091,3.70000005 5.55104444,3.65746784 5.30530057,3.57240343 C4.90396334,3.33886056 4.43396778,3.20000005 4.00000012,3.20000005 C2.95454557,3.20000005 1.70000005,4.00588748 1.70000005,5 C1.70000005,5.69798726 2.264565,6.30318447 3.00060902,6.60180183 C2.20335498,6.63053469 1.39999998,6.99930363 1.39999998,7.44999981 C1.39999998,7.79919833 1.97159854,8.39921673 2.5029394,8.52999973 C2.67304085,8.57186811 1.48708967,9.19232976 1.31951803,9.52889889 C0.798607586,8.63987928 0.5,7.60481141 0.5,6.5 C0.5,3.1862915 3.1862915,0.5 6.5,0.5 C9.8137085,0.5 12.5,3.1862915 12.5,6.5 C12.5,9.8137085 9.8137085,12.5 6.5,12.5 C5.67593651,12.5 4.89067456,12.3338708 4.1758784,12.0332767 C4.09261814,11.8711956 3.86218788,11.4585414 4.0999999,11.3000002 C4.29926072,11.1671598 5,12 5.5999999,12 C6.09762862,12 5,11.3999996 5.30000019,11.1999998 C5.44715544,11.1018965 6.5,12 7,11.6999998 C7.1673963,11.599562 5.5999999,10.6000004 6.0999999,10.8000002 C6.5999999,11 8.80000019,11 8.30000019,10.6000004 C8.07889579,10.423117 6.86999989,10.2200003 6.9000001,10.1000004 C6.93000031,9.9800005 9.89999962,10 9.89999962,9.19999981 C9.89999962,9.19999981 9.36855508,9.19999981 8.69999981,9.19999981 C8.22637454,9.19999981 7.69999981,9 7.69999981,9 C8.71000004,8.77999973 10.5,8.39999962 10.5,7.5 C10.5,7.44999981 9.87945656,7.72403761 9.19999981,8 C8.55463076,8.26211763 7.67967543,8.44968731 7.80000019,8.29999995 C8.10497015,7.92060882 10.5,7.10000038 10.5,5.80000019 C10.5,5.6726992 9.75560483,6.24997575 9,6.69999981 C8.20818583,7.17158947 7.40144673,7.60361245 7.5,7.44999993 C7.66680827,7.19000006 10.1999998,5.5999999 10.1999998,4.30000019 C10.1999998,4.10000038 9.25133438,5.1246264 8.5,5.80000019 C7.69432643,6.52421944 7.04777711,6.87759279 7.19999981,6.69999981 C7.80000019,6 9.5,4.5 9.5,2.70000005 C9.5,2.50014206 8,4.89999962 7.19999981,5.69999981 C6,6.89999962 4.69999981,7.69999981 4,7.69999981 C3.5,7.69999981 2.75999999,7.69999981 2.75999999,7.30000019 C2.75999999,7.0182931 3.12033761,6.78568001 3.1977713,6.67309171 Z M4,6.5 C3,6.5 3,5.27614237 3,5 C3,4.72385763 3,3.5 4,3.5 C5,3.5 5,4.72385763 5,5 C5,5.27614237 5,6.5 4,6.5 Z M4,10.6000001 C2.8954305,10.6000001 2,10.1970564 2,9.70000017 C2,9.20294391 2.8954305,8.80000019 4,8.80000019 C4.58028984,8.80000019 5.13466296,8.80235703 5.5,8.98000001 C5.83007433,9.14049672 6,9.46407433 6,9.70000017 C6,10.1970564 5.1045695,10.6000001 4,10.6000001 Z"/>
</svg>
