<?xml version="1.0" encoding="UTF-8"?>
<svg id="Layer_1" xmlns="http://www.w3.org/2000/svg" viewBox="0 0 489.36 386.49"><defs><style>.cls-1{fill:url(#linear-gradient-2);}.cls-2{fill:url(#linear-gradient);}.cls-3{fill:#fff;}</style><linearGradient id="linear-gradient" x1="244.69" y1="178.14" x2="244.69" y2="77.23" gradientUnits="userSpaceOnUse"><stop offset="0" stop-color="#bdc5cf"/><stop offset="1" stop-color="#6d737a"/></linearGradient><linearGradient id="linear-gradient-2" x1="243.99" y1="356.44" x2="243.99" y2="129.44" gradientUnits="userSpaceOnUse"><stop offset=".15" stop-color="#ff4602"/><stop offset=".85" stop-color="#ff9a00"/></linearGradient></defs><path class="cls-2" d="M244.69,77.23l-169.28,82.08c62.43,38.76,112.53,9.97,141.57-17.49.02-.04.04-.06.06-.06,17.19-16.29,27-32.09,27.61-33.08.02-.04.04-.06.04-.06,0,0,.02.02.04.06.61.99,10.42,16.79,27.61,33.08.02,0,.04.02.06.06,29.04,27.46,79.14,56.25,141.57,17.49l-169.28-82.08Z"/><path class="cls-3" d="M281.4,73.52v-5.87c0-20.77-16.83-37.6-37.6-37.6s-37.6,16.83-37.6,37.6v5.48L30.98,33.84c12.79,42.15,47.26,76.4,93.32,86.73,30.47,6.82,60.85,2.02,86.46-11.49,4.4-2.31,8.67-4.88,12.77-7.7l21.13-14.16,21.13,14.16c.4.28.82.52,1.23.79,1.34.9,2.69,1.77,4.06,2.62.6.37,1.2.73,1.8,1.09,1.7,1.01,3.43,1.98,5.18,2.92.17.09.33.19.5.28h0c25.63,13.5,56.01,18.32,86.49,11.49,46.06-10.33,80.53-44.58,93.32-86.72l-176.98,39.68Z"/><path class="cls-1" d="M268.84,311.09c-4.54,5.93-7.79,9.45-8.14,9.81.29-25.86-3.51-34.7-16.86-50.02-.04-.02-.08-.02-.11-.04-24.56,42.71-16.79,82.38-16.14,85.41,0,.04.04.08.04.1.02.06.02.1.02.1-32.32-50.92-42.72-90.71-41.77-121.35.21-7.15,1.31-13.78,2.36-20.01,2.73-16.39,10.12-29.8,18.69-40.38.46-.55.93-1.11,1.39-1.68l36.36-43.58,37.66,45.13,1.62,1.94c11,13.63,16.27,27.96,17.76,42.11,4.04,38.38-19.8,75.37-32.87,92.46Z"/><path class="cls-1" d="M268.84,311.09c-4.54,5.93-7.79,9.45-8.14,9.81.29-25.86-3.51-34.7-16.86-50.02-.04-.02-.08-.02-.11-.04-24.56,42.71-16.79,82.38-16.14,85.41,0,.04.04.08.04.1.02.06.02.1.02.1-32.32-50.92-42.72-90.71-41.77-121.35.21-7.15,1.31-13.78,2.36-20.01,2.73-16.39,10.12-29.8,18.69-40.38.46-.55.93-1.11,1.39-1.68l36.36-43.58,37.66,45.13,1.62,1.94c11,13.63,16.27,27.96,17.76,42.11,4.04,38.38-19.8,75.37-32.87,92.46Z"/></svg>