<svg width="16" height="16" viewBox="0 0 16 16" fill="none" xmlns="http://www.w3.org/2000/svg">
<g clip-path="url(#clip0)">
<path fill-rule="evenodd" clip-rule="evenodd" d="M14.9893 7.60906C14.5581 7.70522 13.9422 7.85261 13.5 8C13.0726 8.59917 12.7547 9.34752 12.445 10.0767C12.0301 11.0536 11.6297 11.9962 11 12.5C9.9232 13.3614 9 13.5 7.5 13.5V14.9824C3.86736 14.726 1 11.6979 1 8C1 4.134 4.134 1 8 1C11.7348 1 14.7865 3.92491 14.9893 7.60906Z" fill="#40B6E0" fill-opacity="0.6"/>
<path fill-rule="evenodd" clip-rule="evenodd" d="M9.99998 9.28253C9.52998 9.74153 9.02798 9.978 8.09998 10C7.06098 10.022 5.99998 9.2794 5.99998 8.0004C5.99998 6.7124 6.97098 6 8.09998 6C9.37248 6 9.89998 6.55426 9.89998 6.55426L10.5162 5.83673C9.82938 5.27017 9.28825 5.0004 8.09818 5.0004C6.34018 5.0004 5.00018 6.3584 5.00018 8.0004C5.00018 9.6824 6.36418 11.0004 8.00218 11.0004C9.29283 11.0004 10.0232 10.5934 10.6162 9.9814L9.99998 9.28253Z" fill="#231F20" fill-opacity="0.7"/>
<path fill-rule="evenodd" clip-rule="evenodd" d="M15.7107 11.6581C15.7126 11.9674 15.679 12.2817 15.6068 12.5962C15.1045 14.7829 12.9246 16.1484 10.7379 15.6461C9.97998 15.472 9.3207 15.0964 8.80366 14.5888C10.8211 14.8061 12.7276 13.4848 13.1932 11.4581C13.221 11.337 13.2431 11.2159 13.2596 11.0951L15.7107 11.6581Z" fill="#E05555"/>
<path d="M13.1098 11.1185L16.0918 12.2836L14.3418 9.25247L13.9088 9.50247L13.9758 10.6185L13.1098 11.1185Z" fill="#62B543"/>
</g>
<defs>
<clipPath id="clip0">
<rect width="16" height="16" fill="white"/>
</clipPath>
</defs>
</svg>
