<svg width="16" height="16" viewBox="0 0 16 16" fill="none" xmlns="http://www.w3.org/2000/svg">
<g clip-path="url(#clip0)">
<path fill-rule="evenodd" clip-rule="evenodd" d="M14.9893 7.60906C14.5581 7.70522 13.9422 7.85261 13.5 8C13.0726 8.59917 12.7547 9.34752 12.445 10.0767C12.0301 11.0536 11.6297 11.9962 11 12.5C9.9232 13.3614 9 13.5 7.5 13.5V14.9824C3.86736 14.726 1 11.6979 1 8C1 4.134 4.134 1 8 1C11.7348 1 14.7865 3.92491 14.9893 7.60906Z" fill="#F4AF3D" fill-opacity="0.6"/>
<path fill-rule="evenodd" clip-rule="evenodd" d="M7 12H8V8H9.5V7H8C8 7 7.99532 6.04254 7.99466 6C7.98705 5.50341 8.1329 5.07282 8.43221 4.97217C8.91964 4.80825 9.56885 5.02115 9.68985 5.06415L9.9852 4.22604C9.90948 4.19883 9.4559 4 8.8114 4C8.1669 4 7.81677 4.0614 7.48189 4.38879C7.16513 4.69847 7.01614 5.22015 7.00125 6C7.00039 6.0446 6.99998 6.95274 7 7C7.00001 7.0273 6 7 6 7V7.972H7V12Z" fill="#231F20" fill-opacity="0.7"/>
<path fill-rule="evenodd" clip-rule="evenodd" d="M15.7107 11.6581C15.7126 11.9674 15.679 12.2817 15.6068 12.5962C15.1045 14.7829 12.9246 16.1484 10.7379 15.6461C9.97998 15.472 9.3207 15.0964 8.80366 14.5888C10.8211 14.8061 12.7276 13.4848 13.1932 11.4581C13.221 11.337 13.2431 11.2159 13.2596 11.0951L15.7107 11.6581Z" fill="#E05555"/>
<path d="M13.1098 11.1185L16.0918 12.2836L14.3418 9.25247L13.9088 9.50247L13.9758 10.6185L13.1098 11.1185Z" fill="#62B543"/>
</g>
<defs>
<clipPath id="clip0">
<rect width="16" height="16" fill="white"/>
</clipPath>
</defs>
</svg>
