<svg width="16" height="16" viewBox="0 0 16 16" fill="none" xmlns="http://www.w3.org/2000/svg">
<g clip-path="url(#clip0)">
<path fill-rule="evenodd" clip-rule="evenodd" d="M14.9893 7.60905C14.5581 7.70521 13.9422 7.8526 13.5 7.99999C13.0726 8.59916 12.7547 9.34751 12.445 10.0767C12.0301 11.0536 11.6297 11.9962 11 12.5C9.9232 13.3614 9 13.5 7.5 13.5V14.9824C3.86736 14.726 1 11.6979 1 8C1 4.134 4.134 1 8 1C11.7348 1 14.7865 3.92491 14.9893 7.60905Z" fill="#F98B9E" fill-opacity="0.6"/>
<path fill-rule="evenodd" clip-rule="evenodd" d="M15.7107 11.6581C15.7126 11.9674 15.679 12.2817 15.6068 12.5962C15.1045 14.7829 12.9246 16.1484 10.7379 15.6461C9.97998 15.472 9.3207 15.0964 8.80366 14.5888C10.8211 14.8061 12.7276 13.4848 13.1932 11.4581C13.221 11.337 13.2431 11.2159 13.2596 11.0951L15.7107 11.6581Z" fill="#E05555"/>
<path d="M13.1098 11.1185L16.0918 12.2836L14.3418 9.25247L13.9088 9.50247L13.9758 10.6185L13.1098 11.1185Z" fill="#62B543"/>
<path fill-rule="evenodd" clip-rule="evenodd" d="M11.9922 8C11.9912 7.251 11.6351 6.0003 9.98163 6.0003C9.11224 6.0003 8.6576 6.502 8.5986 6.6C8.28363 6.19412 7.94412 6.0003 7.1 6.0003C6.39791 6.0003 6 6.29923 6 6.29923V6.0003H5V11.0003H6C6 11.0003 5.95 8.2343 6 8C6.05 7.7657 6.05 7 7 7C7.95 7 7.999 7.537 8 8V11.0003H9V8C9 7.686 8.95912 7 9.98163 7C11.0041 7 11.0041 7.73961 11.0047 8C11.0047 8 11.0047 9.18563 11.0047 9.77844C11.0047 10.1857 11.0047 11.0003 11.0047 11.0003H11.9972L11.9922 8Z" fill="#231F20" fill-opacity="0.7"/>
<path fill-rule="evenodd" clip-rule="evenodd" d="M15.7107 11.6581C15.7126 11.9674 15.679 12.2817 15.6068 12.5962C15.1045 14.7829 12.9246 16.1484 10.7379 15.6461C9.97998 15.472 9.3207 15.0964 8.80366 14.5888C10.8211 14.8061 12.7276 13.4848 13.1932 11.4582C13.221 11.337 13.2431 11.2159 13.2596 11.0951L15.7107 11.6581Z" fill="#E05555"/>
<path d="M13.1098 11.1185L16.0918 12.2836L14.3418 9.25248L13.9088 9.50248L13.9758 10.6185L13.1098 11.1185Z" fill="#62B543"/>
</g>
<defs>
<clipPath id="clip0">
<rect width="16" height="16" fill="white"/>
</clipPath>
</defs>
</svg>
