<svg width="16" height="16" viewBox="0 0 16 16" fill="none" xmlns="http://www.w3.org/2000/svg">
<g clip-path="url(#clip0)">
<path fill-rule="evenodd" clip-rule="evenodd" d="M14.9893 7.60907C14.5581 7.70523 13.9422 7.85262 13.5 8.00001C13.0726 8.59918 12.7547 9.34752 12.445 10.0768C12.0301 11.0537 11.6297 11.9963 11 12.5C9.9232 13.3614 9 13.5 7.5 13.5V14.9824C3.86736 14.726 1 11.6979 1 8C1 4.134 4.134 1 8 1C11.7348 1 14.7865 3.92492 14.9893 7.60907Z" fill="#F98B9E" fill-opacity="0.6"/>
<path fill-rule="evenodd" clip-rule="evenodd" d="M12 8C11.999 7.15 11.4985 6.0003 9.88163 6.0003C8.69714 6.0003 8 6.60419 8 6.60419C8 6.60419 7.5 6.0003 6.4 6.0003C5.69791 6.0003 5 6.39923 5 6.39923V6.0003H4V11.0003H5C5 11.0003 5 8 5 8C5 7.64 5.25 7 6.2 7C7.15 7 7.499 7.537 7.5 8V11.0003H8.5V8C8.5 7.64 8.8 7 9.75 7C10.7 7 11.0041 7.54 11.0047 8V11.0003H11.9972L12 8Z" fill="#231F20" fill-opacity="0.7"/>
<path fill-rule="evenodd" clip-rule="evenodd" d="M15.7107 11.6581C15.7126 11.9674 15.679 12.2817 15.6068 12.5962C15.1045 14.7829 12.9246 16.1484 10.7379 15.6461C9.97998 15.472 9.3207 15.0964 8.80366 14.5888C10.8211 14.8061 12.7276 13.4848 13.1932 11.4581C13.221 11.337 13.2431 11.2159 13.2596 11.0951L15.7107 11.6581Z" fill="#E05555"/>
<path d="M13.1098 11.1185L16.0918 12.2836L14.3418 9.25247L13.9088 9.50247L13.9758 10.6185L13.1098 11.1185Z" fill="#62B543"/>
</g>
<defs>
<clipPath id="clip0">
<rect width="16" height="16" fill="white"/>
</clipPath>
</defs>
</svg>
