<!-- Copyright 2000-2023 JetBrains s.r.o. and contributors. Use of this source code is governed by the Apache 2.0 license. -->
<svg width="20" height="20" viewBox="0 0 20 20" fill="none" xmlns="http://www.w3.org/2000/svg">
<path fill-rule="evenodd" clip-rule="evenodd" d="M1.75 2C2.16421 2 2.5 2.33579 2.5 2.75V10.2563L4.25247 8.59611C4.09076 8.26514 4 7.89317 4 7.5C4 6.11929 5.11929 5 6.5 5C7.88071 5 9 6.11929 9 7.5C9 7.81901 8.94025 8.12407 8.83132 8.40459L10.1061 9.42438C10.5043 9.15639 10.9839 9 11.5 9C11.9172 9 12.3106 9.10221 12.6564 9.28295L14.2829 7.65639C14.1022 7.31058 14 6.91723 14 6.5C14 5.11929 15.1193 4 16.5 4C17.8807 4 19 5.11929 19 6.5C19 7.88071 17.8807 9 16.5 9C16.0828 9 15.6894 8.89779 15.3436 8.71705L13.7171 10.3436C13.8978 10.6894 14 11.0828 14 11.5C14 12.8807 12.8807 14 11.5 14C10.1193 14 9 12.8807 9 11.5C9 11.181 9.05975 10.8759 9.16868 10.5954L7.89394 9.57562C7.49569 9.84361 7.01611 10 6.5 10C6.05868 10 5.64407 9.88565 5.28418 9.68496L2.5 12.3226V16.5H18.25C18.6642 16.5 19 16.8358 19 17.25C19 17.6642 18.6642 18 18.25 18H2.25C1.55964 18 1 17.4404 1 16.75V2.75C1 2.33579 1.33579 2 1.75 2ZM7.5 7.5C7.5 8.05228 7.05228 8.5 6.5 8.5C5.94772 8.5 5.5 8.05228 5.5 7.5C5.5 6.94772 5.94772 6.5 6.5 6.5C7.05228 6.5 7.5 6.94772 7.5 7.5ZM12.5 11.5C12.5 12.0523 12.0523 12.5 11.5 12.5C10.9477 12.5 10.5 12.0523 10.5 11.5C10.5 10.9477 10.9477 10.5 11.5 10.5C12.0523 10.5 12.5 10.9477 12.5 11.5ZM17.5 6.5C17.5 7.05228 17.0523 7.5 16.5 7.5C15.9477 7.5 15.5 7.05228 15.5 6.5C15.5 5.94772 15.9477 5.5 16.5 5.5C17.0523 5.5 17.5 5.94772 17.5 6.5Z" fill="#6C707E"/>
</svg>
