<!-- Copyright 2000-2023 JetBrains s.r.o. and contributors. Use of this source code is governed by the Apache 2.0 license. -->
<svg width="16" height="16" viewBox="0 0 16 16" fill="none" xmlns="http://www.w3.org/2000/svg">
<path fill-rule="evenodd" clip-rule="evenodd" d="M1.5 2C1.77614 2 2 2.22386 2 2.5V8.29289L4.14619 6.14671C4.05248 5.95089 4 5.73157 4 5.5C4 4.67157 4.67157 4 5.5 4C6.32843 4 7 4.67157 7 5.5C7 5.73157 6.94752 5.95089 6.85381 6.14671L8.85329 8.14618C9.04911 8.05248 9.26843 8 9.5 8C9.73157 8 9.95089 8.05248 10.1467 8.14618L13.1462 5.14671C13.0525 4.95089 13 4.73157 13 4.5C13 3.67157 13.6716 3 14.5 3C15.3284 3 16 3.67157 16 4.5C16 5.32843 15.3284 6 14.5 6C14.2684 6 14.0491 5.94752 13.8533 5.85381L10.8538 8.85329C10.9475 9.04911 11 9.26843 11 9.5C11 10.3284 10.3284 11 9.5 11C8.67157 11 8 10.3284 8 9.5C8 9.26843 8.05248 9.04911 8.14618 8.85329L6.14671 6.85381C5.95089 6.94752 5.73157 7 5.5 7C5.26843 7 5.04911 6.94752 4.85329 6.85381L2 9.70711V13H14.5C14.7761 13 15 13.2239 15 13.5C15 13.7761 14.7761 14 14.5 14H2C1.44772 14 1 13.5523 1 13V2.5C1 2.22386 1.22386 2 1.5 2ZM6 5.5C6 5.77614 5.77614 6 5.5 6C5.22386 6 5 5.77614 5 5.5C5 5.22386 5.22386 5 5.5 5C5.77614 5 6 5.22386 6 5.5ZM10 9.5C10 9.77614 9.77614 10 9.5 10C9.22386 10 9 9.77614 9 9.5C9 9.22386 9.22386 9 9.5 9C9.77614 9 10 9.22386 10 9.5ZM15 4.5C15 4.77614 14.7761 5 14.5 5C14.2239 5 14 4.77614 14 4.5C14 4.22386 14.2239 4 14.5 4C14.7761 4 15 4.22386 15 4.5Z" fill="#CED0D6"/>
</svg>
