<svg width="16" height="16" viewBox="0 0 16 16" fill="none" xmlns="http://www.w3.org/2000/svg">
<path d="M8 2.0001C7.2056 1.99552 6.4182 2.14873 5.68349 2.45086C4.94877 2.75298 4.28137 3.198 3.72 3.7601L2 2.0001V7.0001H7L5.15 5.1901C5.51971 4.80909 5.96296 4.50715 6.45287 4.30259C6.94277 4.09804 7.46913 3.99512 8 4.0001C8.73705 4.00016 9.45976 4.20387 10.0883 4.58873C10.7169 4.9736 11.227 5.52466 11.5621 6.18109C11.8973 6.83753 12.0446 7.5738 11.9878 8.30866C11.9309 9.04352 11.6721 9.74838 11.2399 10.3454C10.8078 10.9425 10.2191 11.4086 9.53875 11.6922C8.85844 11.9757 8.113 12.0659 7.38471 11.9525C6.65642 11.8392 5.9736 11.5269 5.41161 11.05C4.84963 10.5731 4.43033 9.95024 4.2 9.2501L2.3 9.8701C2.64466 10.9209 3.27303 11.856 4.11571 12.5721C4.95839 13.2883 5.98259 13.7576 7.07522 13.9282C8.16784 14.0989 9.28638 13.9643 10.3073 13.5392C11.3282 13.1142 12.2118 12.4152 12.8605 11.5196C13.5092 10.6239 13.8977 9.56645 13.9832 8.46389C14.0687 7.36132 13.8478 6.25658 13.3449 5.27166C12.842 4.28675 12.0767 3.45997 11.1335 2.88264C10.1903 2.30531 9.10587 1.99989 8 2.0001Z" fill="#AFB1B3"/>
</svg>
