<svg xmlns="http://www.w3.org/2000/svg" width="16" height="16" viewBox="0 0 16 16">
  <g fill="none" fill-rule="evenodd" transform="translate(-.07 .94)">
    <path fill="#4285F4" d="M15.3944522,6.34426227 L12.1931073,0.776600024 C11.9481448,0.342190172 11.4915423,0.0698957629 10.9929072,0.0608620709 L4.58900014,0.0608620709 C4.09029498,0.069649919 3.63357959,0.342011634 3.38880011,0.776600024 L0.186237937,6.32965537 C-0.0615125891,6.76077125 -0.0615125891,7.29106367 0.186237937,7.72217955 L3.38758286,13.3214901 C3.62985333,13.7620755 4.08535369,14.043414 4.5877829,14.0627901 L10.99169,14.0627901 C11.4940926,14.0455448 11.9504108,13.7653737 12.1931073,13.3251418 L15.3944522,7.75747955 C15.6439244,7.31943623 15.6439244,6.78230559 15.3944522,6.34426227 Z"/>
    <path fill="#000" d="M12.3270038,6.81655194 L12.2430142,6.79098987 L7.99484163,2.54160008 L7.12329677,3.81605184 L7.85364162,4.54639669 L5.99491398,5.22318292 L5.26456913,7.07095539 L4.55126566,6.35765192 L3.27194493,7.48725196 L9.84504858,14.0603556 L10.99169,14.0603556 C11.4940926,14.0431103 11.9504108,13.7629393 12.1931073,13.3227073 L14.6166349,9.1049658 L12.3270038,6.81655194 Z" opacity=".07"/>
    <g fill="#FFF" transform="translate(3.165 2.434)">
      <path fill-rule="nonzero" d="M4.62551738,1.82586213 C3.07931048,1.82586213 1.82586213,3.07931048 1.82586213,4.62551738 C1.82586213,6.17172429 3.07931048,7.42517264 4.62551738,7.42517264 C6.17172429,7.42517264 7.42517264,6.17172429 7.42517264,4.62551738 C7.42517264,3.88300264 7.13020981,3.17089937 6.6051726,2.64586217 C6.0801354,2.12082496 5.36803213,1.82586213 4.62551738,1.82586213 M4.62551738,6.75934159 C3.45020417,6.76001051 2.49669386,5.80813022 2.49535186,4.63281758 C2.49400986,3.45750494 3.44534393,2.50344966 4.62065561,2.50143459 C5.79596729,2.49941951 6.75056722,3.45020705 6.75325538,4.62551738 C6.75357834,5.19003946 6.52954916,5.73155071 6.13048587,6.13084229 C5.73142259,6.53013388 5.19003955,6.75447272 4.62551738,6.75447262"/>
      <path d="M9.02462787 4.29321048L7.85485886 3.92803805C7.90469083 4.15719496 7.92998966 4.39100512 7.93032783 4.62551738 7.93029126 4.79051925 7.91808574 4.95529374 7.89381059 5.11850016L9.02584511 5.11850016C9.12164313 5.10375954 9.1941558 5.02414774 9.19991063 4.92739326L9.19991063 4.48553462C9.1941558 4.38878014 9.12164313 4.30916834 9.02584511 4.29442772M4.62551738 1.32070694C4.85582035 1.32091243 5.08548223 1.34498002 5.3108243 1.39252418L4.89087601.227624145C4.87603641.131401176 4.79577347.0587581332 4.69855187.0535586224L4.52326911.0535586224C4.42585545.0582952568 4.34534308.131164049 4.33094496.227624145L3.96577254 1.38765522C4.18214416 1.34393551 4.4023385 1.32191608 4.6230829 1.32192418M1.32070694 4.62551738C1.32047211 4.39023481 1.34536382 4.15559987 1.39495866 3.92560357L.225189662 4.290776C.128966693 4.3056156.0563236504 4.38587854.0511241395 4.48310014L.0511241395 4.92495877C.0568789733 5.02171325.129391637 5.10132506.225189662 5.11606568L1.35722418 5.11606568C1.33277513 4.95287866 1.32056865 4.78809121 1.32070694 4.6230829"/>
      <path fill-rule="nonzero" d="M5.62730707,3.71015184 L5.35586224,3.97551047 C4.95505847,3.62346286 4.34961562,3.6436939 3.97320721,4.02171227 C3.5967988,4.39973064 3.57915198,5.00525432 3.93290702,5.40455189 L3.66754839,5.66991052 C4.01762556,6.0199877 4.52787416,6.15670841 5.00608847,6.02857127 C5.48430278,5.90043413 5.85783068,5.52690623 5.98596782,5.04869192 C6.11410496,4.57047761 5.97738425,4.06022901 5.62730707,3.71015184 M5.07954843,5.07954843 C4.89583206,5.26361177 4.61929876,5.31882109 4.37898806,5.21941391 C4.13867737,5.12000674 3.98195646,4.88557703 3.98195646,4.62551738 C3.98195646,4.36545774 4.13867737,4.13102803 4.37898806,4.03162086 C4.61929876,3.93221368 4.89583206,3.987423 5.07954843,4.17148634 C5.20102023,4.29134 5.26940006,4.45487068 5.26940006,4.62551738 C5.26940006,4.79616409 5.20102023,4.95969477 5.07954843,5.07954843"/>
    </g>
  </g>
</svg>
