<!-- Copyright 2000-2023 JetBrains s.r.o. and contributors. Use of this source code is governed by the Apache 2.0 license. -->
<svg width="13" height="13" viewBox="0 0 13 13" fill="none" xmlns="http://www.w3.org/2000/svg">
<g clip-path="url(#clip0_8628_3220)">
<path fill-rule="evenodd" clip-rule="evenodd" d="M6.5 8C7.32843 8 8 7.32843 8 6.5C8 5.67157 7.32843 5 6.5 5C5.67157 5 5 5.67157 5 6.5C5 7.32843 5.67157 8 6.5 8ZM7.25 6.5C7.25 6.91421 6.91421 7.25 6.5 7.25C6.08579 7.25 5.75 6.91421 5.75 6.5C5.75 6.08579 6.08579 5.75 6.5 5.75C6.91421 5.75 7.25 6.08579 7.25 6.5Z" fill="#AFB1B3"/>
<path fill-rule="evenodd" clip-rule="evenodd" d="M9.19339 1C9.4753 1 9.73569 1.15109 9.87554 1.39589L12.5694 6.11018C12.7075 6.35173 12.7075 6.64827 12.5694 6.88982L9.87554 11.6041C9.73569 11.8489 9.4753 12 9.19339 12H3.81959C3.53763 12 3.27729 11.8489 3.1374 11.6041L0.44352 6.88982C0.305489 6.64827 0.305489 6.35173 0.44352 6.11018L3.1374 1.39589C3.27729 1.15109 3.53763 1 3.81959 1H9.19339ZM6.5 3.58162C6.76023 3.58162 7.01249 3.61576 7.25254 3.67979L6.99478 2.64872C6.94848 2.46353 6.78209 2.33362 6.5912 2.33362H6.4088C6.21791 2.33362 6.05152 2.46353 6.00522 2.64872L5.74746 3.67979C5.98751 3.61576 6.23977 3.58162 6.5 3.58162ZM10.66 6.49362H9.412C9.412 6.06207 9.31813 5.65244 9.14968 5.28404L10.3449 5.58284C10.5301 5.62914 10.66 5.79554 10.66 5.98642V6.49362ZM3.85032 5.28404C3.68187 5.65244 3.588 6.06207 3.588 6.49362H2.34V5.98643C2.34 5.79554 2.46991 5.62914 2.6551 5.58284L3.85032 5.28404ZM6.5 9C7.88071 9 9 7.88071 9 6.5C9 5.11929 7.88071 4 6.5 4C5.11929 4 4 5.11929 4 6.5C4 7.88071 5.11929 9 6.5 9Z" fill="#AFB1B3"/>
</g>
<defs>
<clipPath id="clip0_8628_3220">
<rect width="13" height="13" fill="white"/>
</clipPath>
</defs>
</svg>
