<svg width="16" height="16" viewBox="0 0 16 16" fill="none" xmlns="http://www.w3.org/2000/svg">
<path fill-rule="evenodd" clip-rule="evenodd" d="M7.04575 8.29107C7.12734 8.11367 7.30474 8 7.50001 8H15.5C15.6953 8 15.8727 8.11367 15.9543 8.29107C16.0359 8.46847 16.0067 8.67714 15.8796 8.8254L13 12.185V15.5C13 15.7761 12.7761 16 12.5 16H10.5C10.2239 16 10 15.7761 10 15.5V12.185L7.12038 8.8254C6.9933 8.67714 6.96416 8.46847 7.04575 8.29107ZM8.58712 9L10.8796 11.6746C10.9573 11.7652 11 11.8806 11 12V15H12V12C12 11.8806 12.0427 11.7652 12.1204 11.6746L14.4129 9H8.58712Z" fill="#548AF7"/>
<path fill-rule="evenodd" clip-rule="evenodd" d="M3 2C1.89543 2 1 2.89543 1 4V12C1 13.1046 1.89543 14 3 14H9.00002V13H6V3H13C13.5523 3 14 3.44772 14 4V7H15V4C15 2.89543 14.1046 2 13 2H3ZM5 3H3C2.44772 3 2 3.44772 2 4V12C2 12.5523 2.44772 13 3 13H5V3Z" fill="#CED0D6"/>
</svg>
