<!-- Copyright 2000-2022 JetBrains s.r.o. and contributors. Use of this source code is governed by the Apache 2.0 license. -->
<svg width="16" height="16" viewBox="0 0 16 16" fill="none" xmlns="http://www.w3.org/2000/svg">
<path d="M1.5 2.5V2C1.3078 2 1.13261 2.11017 1.04935 2.28341C0.966088 2.45664 0.989498 2.66226 1.10957 2.81235L1.5 2.5ZM12.5 2.5L12.8904 2.81235C13.0105 2.66226 13.0339 2.45664 12.9507 2.28341C12.8674 2.11017 12.6922 2 12.5 2V2.5ZM8.5 7.5L8.10957 7.18765C8.03864 7.27631 8 7.38646 8 7.5H8.5ZM5.5 7.5H6C6 7.38646 5.96136 7.27631 5.89043 7.18765L5.5 7.5ZM5.5 14H5C5 14.1844 5.10149 14.3538 5.26407 14.4408C5.42665 14.5278 5.62392 14.5183 5.77735 14.416L5.5 14ZM8.5 12L8.77735 12.416C8.91645 12.3233 9 12.1672 9 12H8.5ZM1.5 3H12.5V2H1.5V3ZM12.1096 2.18765L8.10957 7.18765L8.89043 7.81235L12.8904 2.81235L12.1096 2.18765ZM5.89043 7.18765L1.89043 2.18765L1.10957 2.81235L5.10957 7.81235L5.89043 7.18765ZM5 7.5V14H6V7.5H5ZM5.77735 14.416L8.77735 12.416L8.22265 11.584L5.22265 13.584L5.77735 14.416ZM9 12V7.5H8V12H9Z" fill="#CED0D6"/>
<path d="M11 7L13.5 9.5L16 7H11Z" fill="#CED0D6"/>
</svg>
