<svg width="16" height="16" viewBox="0 0 16 16" fill="none" xmlns="http://www.w3.org/2000/svg">
<path d="M12 14C12.5523 14 13 13.5523 13 13C13 12.4477 12.5523 12 12 12C11.4477 12 11 12.4477 11 13C11 13.5523 11.4477 14 12 14Z" fill="#6C707E"/>
<path fill-rule="evenodd" clip-rule="evenodd" d="M12 16C9 16 8 13 8 13C8 13 9 10 12 10C15 10 16 13 16 13C16 13 15 16 12 16ZM14.9024 12.9785L14.9131 13L14.9024 13.0215C14.787 13.2525 14.6081 13.5582 14.3568 13.8598C13.8602 14.4557 13.1189 15 12 15C10.8811 15 10.1398 14.4557 9.64322 13.8598C9.39186 13.5582 9.21302 13.2525 9.09755 13.0215L9.08686 13L9.09755 12.9785C9.21302 12.7475 9.39186 12.4418 9.64322 12.1402C10.1398 11.5443 10.8811 11 12 11C13.1189 11 13.8602 11.5443 14.3568 12.1402C14.6081 12.4418 14.787 12.7475 14.9024 12.9785Z" fill="#6C707E"/>
<path d="M14 6H2V10H9.00034C9.73945 9.43723 10.727 9 11.9994 9C12.7673 9 13.4316 9.15927 14 9.40929V6Z" fill="#EDF3FF"/>
<path d="M15 5H1V11H7.99288C8.02941 10.9534 8.06717 10.9066 8.10618 10.8598C8.35 10.5672 8.64673 10.2692 9.00034 10H2V6H14V9.40929C14.374 9.5738 14.7066 9.7776 15 10.0012V5Z" fill="#3574F0"/>
<path d="M3 2C1.89543 2 1 2.89543 1 4V12C1 13.1046 1.89543 14 3 14H7.35209C7.33719 13.9713 7.32293 13.9432 7.30929 13.916C7.22584 13.7491 7.16436 13.6076 7.12248 13.5041C7.1015 13.4523 7.08533 13.4097 7.07368 13.3779C7.04175 13.2909 7.01283 13.2023 6.98403 13.1141C6.9716 13.076 6.95917 13.0379 6.9465 13H3C2.44772 13 2 12.5523 2 12V4C2 3.44772 2.44772 3 3 3H13C13.5523 3 14 3.44772 14 4V9.40929C14.374 9.5738 14.7066 9.7776 15 10.0012V4C15 2.89543 14.1046 2 13 2H3Z" fill="#6C707E"/>
</svg>
