<svg width="16" height="16" viewBox="0 0 16 16" fill="none" xmlns="http://www.w3.org/2000/svg">
<path fill-rule="evenodd" clip-rule="evenodd" d="M9.15035 1.14645C9.34562 0.951184 9.6622 0.951184 9.85746 1.14645C10.0527 1.34171 10.0527 1.65829 9.85746 1.85355L9.21109 2.49992L14.4142 7.70305C15.1953 8.4841 15.1953 9.75043 14.4142 10.5315L10.5355 14.4102C9.75449 15.1912 8.48816 15.1912 7.70711 14.4102L2.50398 9.20703L1.85746 9.85355C1.6622 10.0488 1.34562 10.0488 1.15035 9.85355C0.955091 9.65829 0.955091 9.34171 1.15035 9.14645L9.15035 1.14645ZM13.7071 8.41016L8.50413 3.20718L3.21124 8.50008L8.41421 13.703C8.80474 14.0936 9.4379 14.0936 9.82843 13.703L13.7071 9.82437C14.0976 9.43385 14.0976 8.80068 13.7071 8.41016Z" fill="#CED0D6"/>
<path d="M13.5315 10L13.7071 9.82437C13.9323 9.59923 14.0276 9.29344 13.9932 9H3.71118L4.71118 10H13.5315Z" fill="#548AF7"/>
<path d="M13.5315 10L9.82844 13.703C9.43792 14.0936 8.80476 14.0936 8.41423 13.703L4.71118 10H13.5315Z" fill="#25324D"/>
<path d="M2.00391 11.3053C2.17449 11.5285 2.38268 11.8107 2.59015 12.1165C2.8337 12.4755 3.06975 12.8573 3.24304 13.2084C3.42491 13.5769 3.50391 13.8459 3.50391 14C3.50391 14.8284 2.83233 15.5 2.00391 15.5C1.17548 15.5 0.503906 14.8284 0.503906 14C0.503906 13.8459 0.582899 13.5769 0.764771 13.2084C0.93806 12.8573 1.17411 12.4755 1.41766 12.1165C1.62513 11.8107 1.83332 11.5285 2.00391 11.3053Z" fill="#25324D" stroke="#548AF7"/>
</svg>
