<!-- Copyright 2000-2023 JetBrains s.r.o. and contributors. Use of this source code is governed by the Apache 2.0 license. -->
<svg xmlns="http://www.w3.org/2000/svg" width="16" height="16" viewBox="0 0 16 16">
  <g fill="none" fill-rule="evenodd">
    <g fill-opacity=".9" fill-rule="nonzero" transform="translate(1 1)">
      <path fill="#40A0CF" d="M6.91022782,0.0258929487 C6.37000109,0.0264652608 5.83075904,0.0719962659 5.2980847,0.162014559 C3.87043029,0.411472936 3.61125094,0.933622118 3.61125094,1.89655803 L3.61125094,3.1683132 L6.98491847,3.1683132 L6.98491847,3.5922176 L2.34509057,3.5922176 C1.32502959,3.56974186 0.436201508,4.28320156 0.237499481,5.28397479 C-0.0791784114,6.39223146 -0.0791784114,7.56702328 0.237499481,8.67527995 C0.330009274,9.60726159 1.09474199,10.3288099 2.03052265,10.3670511 L3.19043766,10.3670511 L3.19043766,8.84246671 C3.22234371,7.69765451 4.15284456,6.78248066 5.29802875,6.76959139 L8.6678079,6.76959139 C9.1164415,6.76870271 9.54631584,6.58948597 9.86271951,6.27142682 C10.1791232,5.95336768 10.3560942,5.52256395 10.3546417,5.07393182 L10.3546417,1.89655803 C10.2917932,0.983846775 9.57841181,0.250288445 8.6678079,0.162014559 C8.08672368,0.068085904 7.49884511,0.0225557014 6.91022782,0.0258929487 Z M5.08567792,1.04873523 C5.34294325,1.04759898 5.57554486,1.20159413 5.67496446,1.43887557 C5.77438406,1.67615701 5.72102999,1.949966 5.53979414,2.13255928 C5.3585583,2.31515256 5.08515505,2.37054826 4.84713837,2.27290199 C4.60912168,2.17525572 4.45339517,1.94380967 4.45261173,1.68654303 C4.45189759,1.33584511 4.73498444,1.05063797 5.08567792,1.04873523 Z"/>
      <path fill="#FFC900" d="M8.43905975,13.8238579 C7.40812988,14.0960649 6.31978384,14.0742168 5.29807071,13.7583137 C4.41513055,13.643434 3.72150753,12.9461818 3.61123695,12.0626542 L3.61123695,8.88529435 C3.61967392,7.95575276 4.36858581,7.20292244 5.29807071,7.18963478 L8.66784986,7.18963478 C9.82504854,7.16601208 10.7562488,6.23123984 10.7754409,5.07395919 L10.7754409,3.592217 L12.0415733,3.592217 C12.9506997,3.64857649 13.674705,4.37470095 13.7284071,5.28398818 C14.0487617,6.30556566 14.0726605,7.39523225 13.8001034,8.42696875 C13.2590401,8.15384257 12.647486,8 12,8 C10.3725215,8 8.97205537,8.97195532 8.347403,10.3670645 L6.98493245,10.3670645 L6.98493245,10.7909689 L8.18596925,10.7909689 C8.06516554,11.1724075 8,11.5785936 8,12 C8,12.6569798 8.15838709,13.2769662 8.43905975,13.8238579 Z"/>
    </g>
    <path fill="#9AA7B0" d="M5,4.28253174 C4.53,4.74153174 4.028,4.978 3.1,5 C2.061,5.022 1,4.2794 1,3.0004 C1,1.7124 1.971,1 3.1,1 C3.94833171,1 4.54833171,1.18475342 4.9,1.55426025 L5.5162,0.836730957 C4.8293999,0.270175195 4.28826904,0.0004 3.0982,0.0004 C1.3402,0.0004 0.0002,1.3584 0.0002,3.0004 C0.0002,4.6824 1.3642,6.0004 3.0022,6.0004 C4.29284668,6.0004 5.0232,5.5934 5.6162,4.9814 C5.2054,4.51548783 5,4.28253174 5,4.28253174 Z" transform="translate(10 10)"/>
  </g>
</svg>
