<!-- Copyright 2000-2023 JetBrains s.r.o. and contributors. Use of this source code is governed by the Apache 2.0 license. -->
<svg xmlns="http://www.w3.org/2000/svg" width="16" height="16" viewBox="0 0 16 16">
  <g fill="none" fill-rule="evenodd">
    <path fill="#9BC92A" fill-rule="nonzero" d="M2.0039269,7.4 C2.10890766,6.06564668 4.30555871,5 7,5 C9.41991056,5 11.4383008,5.85955647 11.9005285,7.00134833 C11.9335535,7.00045176 11.9667134,7 12,7 C13.6568542,7 15,8.11928813 15,9.5 C15,10.8807119 13.6568542,12 12,12 L12,12.6 L11.9960731,12.6 C11.8910923,13.9343533 9.69444129,15 7,15 C4.30555871,15 2.10890766,13.9343533 2.0039269,12.6 L2,12.6 L2,7.4 L2.0039269,7.4 Z M12,11 C13.1045695,11 14,10.3284271 14,9.5 C14,8.67157288 13.1045695,8 12,8 L12,11 Z M7,9 C9.209139,9 11,8.32842712 11,7.5 C11,6.67157288 9.209139,6 7,6 C4.790861,6 3,6.67157288 3,7.5 C3,8.32842712 4.790861,9 7,9 Z"/>
    <path fill="#539C5F" fill-rule="nonzero" d="M5.706813,-3.72098186e-16 C6.56893767,-4.31078784e-16 7.16666667,-4.31078784e-16 7.5,-3.72098186e-16 C8.94588458,0.0807548514 9.88551958,0.214088185 10.318905,0.4 C11.7163354,0.999463708 12,1.8899962 12,2.8 C12,3.6 10.6666667,5.33333333 8,8 L6,8 C8.83577925,5.26547104 10.2313946,3.56547104 10.186846,2.9 C10.1533745,2.4 10.1533745,1.8 8.4323125,1.8 C8.09232193,1.8 6.90092987,2.00715533 6.106813,2.4 C5.06733871,2.91422146 4.982088,3.7 3.6,3.7 C2.952101,3.6 2,0.4 5.706813,-3.72098186e-16 Z M4,1.5 L4,2 L5,2 L5,1.5 L4,1.5 Z"/>
  </g>
</svg>
