<!-- Copyright 2000-2023 JetBrains s.r.o. and contributors. Use of this source code is governed by the Apache 2.0 license. -->
<svg width="16" height="16" viewBox="0 0 16 16" fill="none" xmlns="http://www.w3.org/2000/svg">
<g clip-path="url(#clip0_9457_13962)">
<path d="M11.4754 10.6985L11.4786 14.0116L8.54169 15.4787V12.167L11.4754 10.6985ZM15.0002 8.92775V12.2525L12.4952 13.5039L12.4934 10.1944L15.0002 8.92775ZM11.4711 6.26386L11.4743 9.54224L8.54169 11.001V7.72156L11.4711 6.26386ZM15.0002 4.5076V7.76535L12.4927 9.04138L12.4905 5.75649L15.0002 4.5076ZM8.09522 4.12218L10.7166 5.44671L7.99689 6.81394L5.42507 5.52089L8.09522 4.12218ZM4.44898 2.27979L6.94922 3.54315L4.27292 4.9415L1.70508 3.65063L4.44898 2.27979ZM11.5961 2.29897L14.2891 3.65063L11.8807 4.86153L9.25388 3.53519L11.5961 2.29897ZM8.0128 0.5L10.4371 1.71668L8.11258 2.95906L5.61451 1.69786L8.0128 0.5Z" fill="#4DABCF"/>
<path d="M7.50475 7.72159L5.52653 6.72602V11.0293C5.52653 11.0293 3.10727 5.8763 2.88313 5.41344C2.85421 5.35373 2.73527 5.28823 2.70491 5.2723C2.27109 5.04431 1 4.39978 1 4.39978V12.0024L2.75841 12.9433V8.9694C2.75841 8.9694 5.152 13.5738 5.17623 13.6241C5.20045 13.6744 5.44085 14.1597 5.69753 14.3301C6.03952 14.5567 7.50511 15.4389 7.50511 15.4389L7.50475 7.72159Z" fill="#4D77CF"/>
</g>
<defs>
<clipPath id="clip0_9457_13962">
<rect width="14" height="15" fill="white" transform="translate(1 0.5)"/>
</clipPath>
</defs>
</svg>
