<!-- Copyright 2000-2024 JetBrains s.r.o. and contributors. Use of this source code is governed by the Apache 2.0 license. -->
<svg width="16" height="16" viewBox="0 0 16 16" fill="none" xmlns="http://www.w3.org/2000/svg">
<path d="M3 12.2044L3.43125 12.6356C6.4705 12.5244 9.21625 11.2436 11.2312 9.22985L10.924 8.92285C9.88454 9.96492 8.64937 10.7913 7.2895 11.3544C5.92963 11.9176 4.47187 12.2064 3 12.2044Z" fill="#2A35BD"/>
<path d="M13.09 11.0897C11.0986 13.0853 8.56039 14.446 5.79604 14.9999L3.43164 12.6355C6.4705 12.5243 9.21593 11.2438 11.2308 9.23047L13.09 11.0897Z" fill="#3945CD"/>
<path d="M14.2043 1C14.2043 4.094 12.9502 6.89506 10.9226 8.92263L3 1H14.2043Z" fill="#01BDEF"/>
<path d="M10.9234 8.92343C9.88408 9.96523 8.64912 10.7914 7.2895 11.3544C5.92966 11.9176 4.47193 12.2064 3.0001 12.2044L3 1L10.9234 8.92343Z" fill="#0173D9"/>
</svg>
