<!-- Copyright 2000-2023 JetBrains s.r.o. and contributors. Use of this source code is governed by the Apache 2.0 license. -->
<svg width="16" height="16" viewBox="0 0 16 16" fill="none" xmlns="http://www.w3.org/2000/svg">
<path d="M7.25 7.5C7.11193 7.5 7 7.38807 7 7.25V4.25C7 4.11193 7.11193 4 7.25 4C7.38807 4 7.5 4.11193 7.5 4.25V7.25C7.5 7.38807 7.38807 7.5 7.25 7.5Z" fill="#CED0D6"/>
<path d="M5 8.25C5 8.38807 5.11193 8.5 5.25 8.5C5.38807 8.5 5.5 8.38807 5.5 8.25V5.75C5.5 5.61193 5.38807 5.5 5.25 5.5C5.11193 5.5 5 5.61193 5 5.75V8.25Z" fill="#CED0D6"/>
<path d="M4 7.25V7.75C4 7.88807 4.11193 8 4.25 8C4.38807 8 4.5 7.88807 4.5 7.75V7.25C4.5 7.11193 4.38807 7 4.25 7C4.11193 7 4 7.11193 4 7.25Z" fill="#CED0D6"/>
<path d="M1 9.75V8.25C1 8.11193 1.11193 8 1.25 8C1.38807 8 1.5 8.11193 1.5 8.25V9.75C1.5 9.88807 1.38807 10 1.25 10C1.11193 10 1 9.88807 1 9.75Z" fill="#CED0D6"/>
<path d="M0 10.25V11.25C0 11.3881 0.111929 11.5 0.25 11.5C0.388071 11.5 0.5 11.3881 0.5 11.25V10.25C0.5 10.1119 0.388071 10 0.25 10C0.111929 10 0 10.1119 0 10.25Z" fill="#CED0D6"/>
<path d="M1 11.75C1 11.8881 1.11193 12 1.25 12C1.38807 12 1.5 11.8881 1.5 11.75V10.75C1.5 10.6119 1.38807 10.5 1.25 10.5C1.11193 10.5 1 10.6119 1 10.75V11.75Z" fill="#CED0D6"/>
<path d="M2 11.75C2 11.8881 2.11193 12 2.25 12C2.38807 12 2.5 11.8881 2.5 11.75V11.25C2.5 11.1119 2.38807 11 2.25 11C2.11193 11 2 11.1119 2 11.25V11.75Z" fill="#CED0D6"/>
<path d="M2 9.75V9.25C2 9.11193 2.11193 9 2.25 9C2.38807 9 2.5 9.11193 2.5 9.25V9.75C2.5 9.88807 2.38807 10 2.25 10C2.11193 10 2 9.88807 2 9.75Z" fill="#CED0D6"/>
<path d="M3 9.75C3 9.88807 3.11193 10 3.25 10C3.38807 10 3.5 9.88807 3.5 9.75V8.75C3.5 8.61193 3.38807 8.5 3.25 8.5C3.11193 8.5 3 8.61193 3 8.75V9.75Z" fill="#CED0D6"/>
<path d="M4.25 11C4.11193 11 4 10.8881 4 10.75V8.75C4 8.61193 4.11193 8.5 4.25 8.5C4.38807 8.5 4.5 8.61193 4.5 8.75V10.75C4.5 10.8881 4.38807 11 4.25 11Z" fill="#CED0D6"/>
<path d="M5.25 12C5.11193 12 5 11.8881 5 11.75V11.25C5 11.1119 5.11193 11 5.25 11C5.38807 11 5.5 11.1119 5.5 11.25V11.75C5.5 11.8881 5.38807 12 5.25 12Z" fill="#CED0D6"/>
<path d="M10 11.75C10 11.8881 10.1119 12 10.25 12C10.3881 12 10.5 11.8881 10.5 11.75V11.25C10.5 11.1119 10.3881 11 10.25 11C10.1119 11 10 11.1119 10 11.25V11.75Z" fill="#CED0D6"/>
<path d="M12.25 12C12.1119 12 12 11.8881 12 11.75V11.25C12 11.1119 12.1119 11 12.25 11C12.3881 11 12.5 11.1119 12.5 11.25V11.75C12.5 11.8881 12.3881 12 12.25 12Z" fill="#CED0D6"/>
<path d="M11 11.75C11 11.8881 11.1119 12 11.25 12C11.3881 12 11.5 11.8881 11.5 11.75V10.75C11.5 10.6119 11.3881 10.5 11.25 10.5C11.1119 10.5 11 10.6119 11 10.75V11.75Z" fill="#CED0D6"/>
<path d="M6.25 12C6.11193 12 6 11.8881 6 11.75V10.75C6 10.6119 6.11193 10.5 6.25 10.5C6.38807 10.5 6.5 10.6119 6.5 10.75V11.75C6.5 11.8881 6.38807 12 6.25 12Z" fill="#CED0D6"/>
<path d="M7 11.75C7 11.8881 7.11193 12 7.25 12C7.38807 12 7.5 11.8881 7.5 11.75V11.25C7.5 11.1119 7.38807 11 7.25 11C7.11193 11 7 11.1119 7 11.25V11.75Z" fill="#CED0D6"/>
<path d="M5 10.25V9.25C5 9.11193 5.11193 9 5.25 9C5.38807 9 5.5 9.11193 5.5 9.25V10.25C5.5 10.3881 5.38807 10.5 5.25 10.5C5.11193 10.5 5 10.3881 5 10.25Z" fill="#CED0D6"/>
<path d="M6 9.25V6.75C6 6.61193 6.11193 6.5 6.25 6.5C6.38807 6.5 6.5 6.61193 6.5 6.75V9.25C6.5 9.38807 6.38807 9.5 6.25 9.5C6.11193 9.5 6 9.38807 6 9.25Z" fill="#CED0D6"/>
<path d="M7 8.25V9.25C7 9.38807 7.11193 9.5 7.25 9.5C7.38807 9.5 7.5 9.38807 7.5 9.25V8.25C7.5 8.11193 7.38807 8 7.25 8C7.11193 8 7 8.11193 7 8.25Z" fill="#CED0D6"/>
<path d="M5 4.25V4.75C5 4.88807 5.11193 5 5.25 5C5.38807 5 5.5 4.88807 5.5 4.75V4.25C5.5 4.11193 5.38807 4 5.25 4C5.11193 4 5 4.11193 5 4.25Z" fill="#CED0D6"/>
<path d="M6 5.75V4.25C6 4.11193 6.11193 4 6.25 4C6.38807 4 6.5 4.11193 6.5 4.25V5.75C6.5 5.88807 6.38807 6 6.25 6C6.11193 6 6 5.88807 6 5.75Z" fill="#CED0D6"/>
<path d="M8 6.25C8 6.38807 8.11193 6.5 8.25 6.5C8.38807 6.5 8.5 6.38807 8.5 6.25V4.25C8.5 4.11193 8.38807 4 8.25 4C8.11193 4 8 4.11193 8 4.25V6.25Z" fill="#CED0D6"/>
<path d="M10 5.75V4.25C10 4.11193 10.1119 4 10.25 4C10.3881 4 10.5 4.11193 10.5 4.25V5.75C10.5 5.88807 10.3881 6 10.25 6C10.1119 6 10 5.88807 10 5.75Z" fill="#CED0D6"/>
<path d="M10 6.75V10.25C10 10.3881 10.1119 10.5 10.25 10.5C10.3881 10.5 10.5 10.3881 10.5 10.25V6.75C10.5 6.61193 10.3881 6.5 10.25 6.5C10.1119 6.5 10 6.61193 10 6.75Z" fill="#CED0D6"/>
<path d="M9.25 8C9.11193 8 9 7.88807 9 7.75V4.75C9 4.61193 9.11193 4.5 9.25 4.5C9.38807 4.5 9.5 4.61193 9.5 4.75V7.75C9.5 7.88807 9.38807 8 9.25 8Z" fill="#CED0D6"/>
<path d="M9 10.75C9 10.8881 9.11193 11 9.25 11C9.38807 11 9.5 10.8881 9.5 10.75V8.75C9.5 8.61193 9.38807 8.5 9.25 8.5C9.11193 8.5 9 8.61193 9 8.75V10.75Z" fill="#CED0D6"/>
<path d="M8.25 10C8.11193 10 8 9.88807 8 9.75V7.25C8 7.11193 8.11193 7 8.25 7C8.38807 7 8.5 7.11193 8.5 7.25V9.75C8.5 9.88807 8.38807 10 8.25 10Z" fill="#CED0D6"/>
<path d="M4 4.75V6.25C4 6.38807 4.11193 6.5 4.25 6.5C4.38807 6.5 4.5 6.38807 4.5 6.25V4.75C4.5 4.61193 4.38807 4.5 4.25 4.5C4.11193 4.5 4 4.61193 4 4.75Z" fill="#CED0D6"/>
<path d="M3 7.75V6.75C3 6.61193 3.11193 6.5 3.25 6.5C3.38807 6.5 3.5 6.61193 3.5 6.75V7.75C3.5 7.88807 3.38807 8 3.25 8C3.11193 8 3 7.88807 3 7.75Z" fill="#CED0D6"/>
<path d="M3 5.25V5.75C3 5.88807 3.11193 6 3.25 6C3.38807 6 3.5 5.88807 3.5 5.75V5.25C3.5 5.11193 3.38807 5 3.25 5C3.11193 5 3 5.11193 3 5.25Z" fill="#CED0D6"/>
<path d="M2 8.25V6.75C2 6.61193 2.11193 6.5 2.25 6.5C2.38807 6.5 2.5 6.61193 2.5 6.75V8.25C2.5 8.38807 2.38807 8.5 2.25 8.5C2.11193 8.5 2 8.38807 2 8.25Z" fill="#CED0D6"/>
<path d="M15 7.75C15 7.88807 15.1119 8 15.25 8C15.3881 8 15.5 7.88807 15.5 7.75V7.25C15.5 7.11193 15.3881 7 15.25 7C15.1119 7 15 7.11193 15 7.25V7.75Z" fill="#CED0D6"/>
<path d="M14.25 8C14.1119 8 14 7.88807 14 7.75V6.25C14 6.11193 14.1119 6 14.25 6C14.3881 6 14.5 6.11193 14.5 6.25V7.75C14.5 7.88807 14.3881 8 14.25 8Z" fill="#CED0D6"/>
<path d="M13 7.75C13 7.88807 13.1119 8 13.25 8C13.3881 8 13.5 7.88807 13.5 7.75V6.75C13.5 6.61193 13.3881 6.5 13.25 6.5C13.1119 6.5 13 6.61193 13 6.75V7.75Z" fill="#CED0D6"/>
<path d="M12 7.75V6.75C12 6.61193 12.1119 6.5 12.25 6.5C12.3881 6.5 12.5 6.61193 12.5 6.75V7.75C12.5 7.88807 12.3881 8 12.25 8C12.1119 8 12 7.88807 12 7.75Z" fill="#CED0D6"/>
<path d="M13 5.25V5.75C13 5.88807 13.1119 6 13.25 6C13.3881 6 13.5 5.88807 13.5 5.75V5.25C13.5 5.11193 13.3881 5 13.25 5C13.1119 5 13 5.11193 13 5.25Z" fill="#CED0D6"/>
<path d="M11 7.75V7.25C11 7.11193 11.1119 7 11.25 7C11.3881 7 11.5 7.11193 11.5 7.25V7.75C11.5 7.88807 11.3881 8 11.25 8C11.1119 8 11 7.88807 11 7.75Z" fill="#CED0D6"/>
<path d="M12 4.75V5.75C12 5.88807 12.1119 6 12.25 6C12.3881 6 12.5 5.88807 12.5 5.75V4.75C12.5 4.61193 12.3881 4.5 12.25 4.5C12.1119 4.5 12 4.61193 12 4.75Z" fill="#CED0D6"/>
<path d="M11 6.25V4.25C11 4.11193 11.1119 4 11.25 4C11.3881 4 11.5 4.11193 11.5 4.25V6.25C11.5 6.38807 11.3881 6.5 11.25 6.5C11.1119 6.5 11 6.38807 11 6.25Z" fill="#CED0D6"/>
</svg>
