<!-- Copyright 2000-2021 JetBrains s.r.o. Use of this source code is governed by the Apache 2.0 license that can be found in the LICENSE file. -->
<svg id="Layer_1" data-name="Layer 1" xmlns="http://www.w3.org/2000/svg" width="16" height="16" viewBox="0 0 16 16">
  <path d="M14.822,9.267a1.785,1.785,0,0,0-.664-.933,8.556,8.556,0,0,0-2.051-.864,2.791,2.791,0,0,1-.5-.214.576.576,0,0,1-.222-.4,1.874,1.874,0,0,1-.027-.236,5.125,5.125,0,0,0,.846-2.764A1.625,1.625,0,0,0,10.373,2a2.259,2.259,0,0,0-1.038.212,2.978,2.978,0,0,1,1.028,2.5A7.528,7.528,0,0,1,9.254,8.559l.006.034a.766.766,0,0,0,.041.142,3.359,3.359,0,0,0,.518.215l.294.1a10.471,10.471,0,0,1,2.576,1.12,1.307,1.307,0,0,1,.37.3H14.99A4.1,4.1,0,0,0,14.822,9.267Zm-1.815,2.667a2.391,2.391,0,0,0-.886-1.249A11.391,11.391,0,0,0,9.386,9.528a3.683,3.683,0,0,1-.661-.285.773.773,0,0,1-.3-.53A2.427,2.427,0,0,1,8.393,8.4,6.827,6.827,0,0,0,9.521,4.712,2.167,2.167,0,0,0,7.075,2.233,2.167,2.167,0,0,0,4.628,4.711a6.723,6.723,0,0,0,1.2,3.782c-.007.072-.016.145-.029.217a.765.765,0,0,1-.3.526,3.593,3.593,0,0,1-.661.28A11.329,11.329,0,0,0,2.111,10.66a2.443,2.443,0,0,0-.886,1.274A5.192,5.192,0,0,0,1,13.548H13.23A5.161,5.161,0,0,0,13.007,11.934Z" fill="#6e6e6e"/>
</svg>
