<!-- Copyright 2000-2021 JetBrains s.r.o. Use of this source code is governed by the Apache 2.0 license that can be found in the LICENSE file. -->
<svg id="Layer_1" data-name="Layer 1" xmlns="http://www.w3.org/2000/svg" width="16" height="16" viewBox="0 0 16 16">
  <path d="M10.363,4.712a2.978,2.978,0,0,0-1.028-2.5A2.259,2.259,0,0,1,10.373,2a1.625,1.625,0,0,1,1.835,1.859,5.125,5.125,0,0,1-.846,2.764,1.874,1.874,0,0,0,.027.236.576.576,0,0,0,.222.4,2.791,2.791,0,0,0,.5.214,8.556,8.556,0,0,1,2.051.864,1.785,1.785,0,0,1,.664.933,4.057,4.057,0,0,1,.165,1.076,3.3,3.3,0,0,0-2.37-.217,10.777,10.777,0,0,0-2.5-1.078l-.294-.1A3.359,3.359,0,0,1,9.3,8.735a.766.766,0,0,1-.041-.142l-.006-.034A7.528,7.528,0,0,0,10.363,4.712ZM10,13.5a3.485,3.485,0,0,1,1.761-3.021,13.9,13.9,0,0,0-2.375-.951,3.683,3.683,0,0,1-.661-.285.773.773,0,0,1-.3-.53A2.427,2.427,0,0,1,8.393,8.4,6.827,6.827,0,0,0,9.521,4.712,2.167,2.167,0,0,0,7.075,2.233,2.167,2.167,0,0,0,4.628,4.711a6.725,6.725,0,0,0,1.2,3.782c-.007.072-.016.145-.029.217a.765.765,0,0,1-.3.526,3.593,3.593,0,0,1-.661.28A11.329,11.329,0,0,0,2.111,10.66a2.443,2.443,0,0,0-.886,1.274A5.192,5.192,0,0,0,1,13.548h9C10.005,13.532,10,13.516,10,13.5Z" fill="#6e6e6e"/>
  <circle cx="13.5" cy="13.5" r="2.5" fill="#59a869"/>
</svg>
