<svg xmlns="http://www.w3.org/2000/svg" width="16" height="16" viewBox="0 0 16 16">
  <path fill="#afb1b3" d="M9.6 6.536a2 2 0 112 1.964 1.983 1.983 0 01-2-1.964zm-4 1.178a2.357 2.357 0 10-2.4-2.357 2.369 2.369 0 002.4 2.357zm0 1.572c-1.864 0-5.6.919-5.6 2.75V14h5.6v-1.768a3.092 3.092 0 011.9-2.726 9.951 9.951 0 00-1.9-.22zM10 13.5a3.49 3.49 0 012.549-3.353 6.871 6.871 0 00-.949-.076c-1.464 0-4.4.723-4.4 2.161V14h2.85a3.588 3.588 0 01-.05-.5z"/>
  <circle cx="13.5" cy="13.5" r="2.5" fill="#c75450"/>
</svg>