<!-- Copyright 2000-2023 JetBrains s.r.o. and contributors. Use of this source code is governed by the Apache 2.0 license. -->
<svg width="11" height="11" viewBox="0 0 11 11" fill="none" xmlns="http://www.w3.org/2000/svg">
<circle cx="5.5" cy="5.5" r="5.5" fill="#3C3F41"/>
<path fill-rule="evenodd" clip-rule="evenodd" d="M2.85355 2.14645C2.65829 1.95118 2.34171 1.95118 2.14645 2.14645C1.95118 2.34171 1.95118 2.65829 2.14645 2.85355L2.45459 3.16169C2.18091 3.34012 2 3.64893 2 4V7C2 7.55228 2.44772 8 3 8H6C6.35107 8 6.65988 7.81909 6.83831 7.54541L8.14645 8.85355C8.34171 9.04882 8.65829 9.04882 8.85355 8.85355C9.04882 8.65829 9.04882 8.34171 8.85355 8.14645L2.85355 2.14645ZM6 6.70711L3.29289 4H3L3 7H6V6.70711Z" fill="#C75450"/>
<path d="M9 3.80924V6.87861L5.12139 3H6C6.55228 3 7 3.44772 7 4L8.27639 3.36203C8.60884 3.1958 9 3.43755 9 3.80924Z" fill="#C75450"/>
</svg>
