<!-- Copyright 2000-2021 JetBrains s.r.o. Use of this source code is governed by the Apache 2.0 license that can be found in the LICENSE file. -->
<svg xmlns="http://www.w3.org/2000/svg" width="16" height="16">
  <path fill="#db5860" d="M12.939 2L11 3.939 9.061 2 8 3.061 9.939 5 8 6.939 9.061 8 11 6.061 12.939 8 14 6.939 12.061 5 14 3.061 12.939 2z"/>
  <path d="M10.667,9.983l-1.44,1.422A8.686,8.686,0,0,1,4.6,6.773l1.422-1.44A8.006,8.006,0,0,1,5.357,2H2.108A10.574,10.574,0,0,0,2,3.422a10.5,10.5,0,0,0,12,10.47V10.643A8.006,8.006,0,0,1,10.667,9.983Z" fill="#6e6e6e"/>
</svg>
