<!-- Copyright 2000-2021 JetBrains s.r.o. Use of this source code is governed by the Apache 2.0 license that can be found in the LICENSE file. -->
<svg xmlns="http://www.w3.org/2000/svg" width="16" height="16" viewBox="0 0 16 16">
  <g fill-rule="evenodd">
    <path fill="#6E6E6E" d="M10.4155,14 L14.9995,14 L14.9995,13 L11.4095,13 L10.4155,14 Z M12.9995,2 L9.9995,2 L9.9995,13 L12.9995,9.982 L12.9995,2 Z M11.9995,3 L11.9995,9.569 L10.9995,10.575 L10.9995,3 L11.9995,3 Z"/>
    <path fill="#389FD6" d="M9,7.5 L6.04,4.308 L5.087,5.192 L7.227,7.5 L5.087,9.808 L6.04,10.692 L9,7.5 Z M2.04,10.692 L1.087,9.808 L3.227,7.5 L1.087,5.192 L2.04,4.308 L5,7.5 L2.04,10.692 Z"/>
  </g>
</svg>
