<!-- Copyright 2000-2023 JetBrains s.r.o. and contributors. Use of this source code is governed by the Apache 2.0 license. -->
<svg width="16" height="16" viewBox="0 0 16 16" fill="none" xmlns="http://www.w3.org/2000/svg">
<path fill-rule="evenodd" clip-rule="evenodd" d="M5.825 12C5.415 10.835 4.305 10 3 10C1.345 10 0 11.345 0 13C0 14.655 1.345 16 3 16C4.305 16 5.415 15.165 5.825 14H7.4L7.4 16H9.4V14H10.8V12H5.825ZM3 14C2.45 14 2 13.55 2 13C2 12.45 2.45 12 3 12C3.55 12 4 12.45 4 13C4 13.55 3.55 14 3 14Z" fill="#AFB1B3"/>
</svg>
