<svg xmlns="http://www.w3.org/2000/svg" width="16" height="16" viewBox="0 0 16 16">
  <g fill-rule="evenodd">
    <path fill="#6E6E6E" d="M8.0001,-0.0002 L0.0001,5.3328 L0.8311,6.5818 L8.0001,1.8028 L11.4961,4.1338 L13.0421,3.3608 L8.0001,-0.0002 Z M2.0001,7.0038 L2.0001,13.9998 L14.0001,13.9998 L14.0001,11.1188 L12.9991,10.6178 L12.9991,13.0008 L3.0001,13.0008 L3.0001,6.3378 L2.0001,7.0038 Z M3.9991,12.0008 L7.0001,12.0008 L7.0001,10.9998 L3.9991,10.9998 L3.9991,12.0008 Z"/>
    <path fill="#59A869" d="M14.0004,4.0003 L14.0004,9.9993 L16.0004,10.9993 L16.0004,3.0003 L14.0004,4.0003 Z M10.9994,5.4993 L10.9994,8.5003 L12.9994,9.5003 L12.9994,4.4993 L10.9994,5.4993 Z M8.0004,7.0003 L9.9994,8.0003 L9.9994,6.0003 L8.0004,7.0003 Z"/>
  </g>
</svg>
