<!-- Copyright 2000-2021 JetBrains s.r.o. Use of this source code is governed by the Apache 2.0 license that can be found in the LICENSE file. -->
<svg xmlns="http://www.w3.org/2000/svg" width="16" height="16">
  <path fill="#6E6E6E" d="M8.884 10.298l-1.293 1.293C7.166 12.016 6.601 12.25 6 12.25c-1.241 0-2.25-1.009-2.25-2.25 0-.601.234-1.166.659-1.591l1.293-1.293L4.465 5.879 3.172 7.172C2.448 7.895 2 8.895 2 10c0 2.209 1.791 4 4 4 1.105 0 2.105-.448 2.828-1.172l1.293-1.293L8.884 10.298zM10 2C8.895 2 7.895 2.448 7.172 3.172L5.879 4.465l1.237 1.237 1.293-1.293C8.834 3.984 9.399 3.75 10 3.75c1.241 0 2.25 1.009 2.25 2.25 0 .601-.234 1.166-.659 1.591l-1.293 1.293 1.237 1.237 1.293-1.293C13.552 8.105 14 7.105 14 6 14 3.791 12.209 2 10 2z"/>
  <path transform="rotate(-44.976 8 8)" fill="#6E6E6E" d="M5.172 7.125H10.829V8.876H5.172z"/>
</svg>
