<!-- Copyright 2000-2021 JetBrains s.r.o. Use of this source code is governed by the Apache 2.0 license that can be found in the LICENSE file. -->
<svg xmlns="http://www.w3.org/2000/svg" width="16" height="16">
  <circle fill="#6E6E6E" cx="8" cy="3" r="2"/>
  <path fill="#6E6E6E" d="M10.051,5.178C10.925,5.815,11.5,6.838,11.5,8c0,0.151-0.026,0.295-0.044,0.442C11.908,8.167,12.433,8,13,8	c0-1.701-0.854-3.2-2.152-4.103C10.691,4.391,10.419,4.831,10.051,5.178z"/>
  <circle fill="#6E6E6E" cx="13" cy="11" r="2"/>
  <path fill="#6E6E6E" d="M10 11c0-.051.013-.098.015-.148C9.444 11.257 8.751 11.5 8 11.5c-.35 0-.681-.067-1-.163v1.562C7.323 12.965 7.657 13 8 13c.856 0 1.65-.235 2.355-.615C10.136 11.969 10 11.502 10 11zM4.664 7c.225-.737.675-1.378 1.285-1.822C5.581 4.83 5.309 4.391 5.152 3.897 4.116 4.618 3.372 5.721 3.11 7H4.664z"/>
  <path fill="#389FD6" d="M6 10L4 10 4 8 2 8 2 10 0 10 0 12 2 12 2 14 4 14 4 12 6 12z"/>
</svg>
