<svg xmlns="http://www.w3.org/2000/svg" width="16" height="16">
  <path d="M10.848,3.9A4.991,4.991,0,0,1,13,8a2.973,2.973,0,0,0-1.019.19c0-.064.019-.125.019-.19a3.984,3.984,0,0,0-1.619-3.195A2.974,2.974,0,0,0,10.848,3.9ZM10,3A2,2,0,1,1,8,1,2,2,0,0,1,10,3ZM9,3A1,1,0,1,0,8,4,1,1,0,0,0,9,3Zm6,8a2,2,0,1,1-2-2A2,2,0,0,1,15,11Zm-1,0a1,1,0,1,0-1,1A1,1,0,0,0,14,11Zm-3.958.42A3.787,3.787,0,0,1,7,11.858V12.9a4.868,4.868,0,0,0,3.355-.514A2.964,2.964,0,0,1,10.042,11.42ZM4.131,7a4.022,4.022,0,0,1,1.488-2.2A2.986,2.986,0,0,1,5.152,3.9,5,5,0,0,0,3.11,7Z" fill="#afb1b3"/>
  <path fill="#3592c4" d="M6 10L4 10 4 8 2 8 2 10 0 10 0 12 2 12 2 14 4 14 4 12 6 12 6 10z"/>
</svg>