<!-- Copyright 2000-2023 JetBrains s.r.o. and contributors. Use of this source code is governed by the Apache 2.0 license. -->
<svg width="11" height="11" viewBox="0 0 11 11" fill="none" xmlns="http://www.w3.org/2000/svg">
<circle cx="5.5" cy="5.5" r="5.5" fill="#3C3F41"/>
<path d="M4.09496 1.97361C5.21887 3.09751 5.45227 3.33091 7 4.87864V2.5C7 1.67157 6.32843 1 5.5 1C4.8568 1 4.30815 1.40484 4.09496 1.97361Z" fill="#C75450"/>
<path d="M4 4.70711V5.5C4 6.32843 4.67157 7 5.5 7C5.73157 7 5.95089 6.94752 6.14671 6.85381L6.8787 7.5858C6.48348 7.84756 6.00954 8 5.5 8C4.11929 8 3 6.88071 3 5.5C3 5.22386 2.77614 5 2.5 5C2.22386 5 2 5.22386 2 5.5C2 7.26324 3.30385 8.72194 5 8.96456V9.5C5 9.77614 5.22386 10 5.5 10C5.77614 10 6 9.77614 6 9.5V8.96456C6.59295 8.87974 7.13796 8.6463 7.59609 8.30319L8.14645 8.85355C8.34171 9.04882 8.65829 9.04882 8.85355 8.85355C9.04882 8.65829 9.04882 8.34171 8.85355 8.14645L2.85355 2.14645C2.65829 1.95118 2.34171 1.95118 2.14645 2.14645C1.95118 2.34171 1.95118 2.65829 2.14645 2.85355L4 4.70711Z" fill="#C75450"/>
<path d="M7.97516 5.8538L8.79748 6.67613C8.9286 6.30855 9 5.91261 9 5.5C9 5.22386 8.77614 5 8.5 5C8.22386 5 8 5.22386 8 5.5C8 5.6201 7.99153 5.73822 7.97516 5.8538Z" fill="#C75450"/>
</svg>
