<!-- Copyright 2000-2023 JetBrains s.r.o. and contributors. Use of this source code is governed by the Apache 2.0 license. -->
<svg width="11" height="11" viewBox="0 0 11 11" fill="none" xmlns="http://www.w3.org/2000/svg">
<circle cx="5.5" cy="5.5" r="5.5" fill="#F2F2F2"/>
<path fill-rule="evenodd" clip-rule="evenodd" d="M4 2.5C4 1.67157 4.67157 1 5.5 1C6.32843 1 7 1.67157 7 2.5V5.5C7 6.32843 6.32843 7 5.5 7C4.67157 7 4 6.32843 4 5.5V2.5Z" fill="#6E6E6E"/>
<path d="M2.5 5C2.77614 5 3 5.22386 3 5.5C3 6.88071 4.11929 8 5.5 8C6.88071 8 8 6.88071 8 5.5C8 5.22386 8.22386 5 8.5 5C8.77614 5 9 5.22386 9 5.5C9 7.26324 7.69615 8.72194 6 8.96456V9.5C6 9.77614 5.77614 10 5.5 10C5.22386 10 5 9.77614 5 9.5V8.96456C3.30385 8.72194 2 7.26324 2 5.5C2 5.22386 2.22386 5 2.5 5Z" fill="#6E6E6E"/>
</svg>
