<!-- Copyright 2000-2023 JetBrains s.r.o. and contributors. Use of this source code is governed by the Apache 2.0 license. -->
<svg width="16" height="16" viewBox="0 0 16 16" fill="none" xmlns="http://www.w3.org/2000/svg">
<g clip-path="url(#clip0_9105_32)">
<path fill-rule="evenodd" clip-rule="evenodd" d="M10.0839 16.0526L16.0441 10.0924L14.4185 8.4668L10.0839 12.8014L7.91665 10.6341L6.29102 12.2597L10.0839 16.0526Z" fill="#59A869"/>
<path fill-rule="evenodd" clip-rule="evenodd" d="M8.859 9C8.82838 9.11822 8.79255 9.23435 8.75177 9.34812L7.91664 8.51299L4.46509 11.9645C2.50896 11.7031 1 10.0276 1 8C1 5.791 2.791 4 5 4C6.862 4 8.413 5.278 8.859 7H13.7642L11.7642 9H8.859ZM3.5 8C3.5 8.828 4.172 9.5 5 9.5C5.828 9.5 6.5 8.828 6.5 8C6.5 7.172 5.828 6.5 5 6.5C4.172 6.5 3.5 7.172 3.5 8Z" fill="#6E6E6E"/>
</g>
<defs>
<clipPath id="clip0_9105_32">
<rect width="16" height="16" fill="white"/>
</clipPath>
</defs>
</svg>
