<svg xmlns="http://www.w3.org/2000/svg" width="16" height="16" viewBox="0 0 16 16">
  <g fill-rule="evenodd">
    <path fill="#AFB1B3" d="M4 12L7.001 12 7.001 10.999 4 10.999z"/>
    <path fill="#AFB1B3" d="M13 12L13 13 3 13 3 6.338 2 7.004 2 14 14 14 14 12zM10.0737 3.1855C10.4547 2.8075 10.9137 2.4965 11.4377 2.2915L7.9997-.0005-.0003 5.3325.8317 6.5815 7.9997 1.8025 10.0737 3.1855z"/>
    <path fill="#C75450" d="M11.125,6 L11.125,5.667 C11.125,4.746 11.964,4 13,4 C14.036,4 14.875,4.746 14.875,5.667 L14.875,6 L11.125,6 Z M12.5,10 L13.5,10 L13.5,8 L12.5,8 L12.5,10 Z M13,3 C11.343,3 10,4.193 10,5.667 L10,6 L10,7 L10,9.4 C10,10.283 10.806,11 11.8,11 L14.2,11 C15.194,11 16,10.283 16,9.4 L16,7 L16,6 L16,5.667 C16,4.193 14.657,3 13,3 L13,3 Z"/>
  </g>
</svg>
