<svg xmlns="http://www.w3.org/2000/svg" width="16" height="16" viewBox="0 0 16 16">
  <g fill-rule="evenodd">
    <path fill="#6E6E6E" d="M3,6.338 L3,13 L13,13 L13,12 L14,12 L14,14 L2,14 L2,7.004 L3,6.338 Z M7.001,10.999 L7.001,12 L4,12 L4,10.999 L7.001,10.999 Z M7.9997,-0.0005 L11.4377,2.2915 C10.9137,2.4965 10.4547,2.8075 10.0737,3.1855 L10.0737,3.1855 L7.9997,1.8025 L0.8317,6.5815 L-0.0003,5.3325 L7.9997,-0.0005 Z"/>
    <path fill="#DB5860" d="M11.125,6 L11.125,5.667 C11.125,4.746 11.964,4 13,4 C14.036,4 14.875,4.746 14.875,5.667 L14.875,6 L11.125,6 Z M12.5,10 L13.5,10 L13.5,8 L12.5,8 L12.5,10 Z M13,3 C11.343,3 10,4.193 10,5.667 L10,6 L10,7 L10,9.4 C10,10.283 10.806,11 11.8,11 L14.2,11 C15.194,11 16,10.283 16,9.4 L16,7 L16,6 L16,5.667 C16,4.193 14.657,3 13,3 L13,3 Z"/>
  </g>
</svg>
