<!-- Copyright 2000-2023 JetBrains s.r.o. and contributors. Use of this source code is governed by the Apache 2.0 license. -->
<svg width="14" height="14" viewBox="0 0 14 14" fill="none" xmlns="http://www.w3.org/2000/svg">
<path fill-rule="evenodd" clip-rule="evenodd" d="M8.06092 1.06043C7.47516 0.474672 6.52546 0.474644 5.93966 1.06037L5.43941 1.56056C5.15811 1.84183 4.77661 1.99984 4.37881 1.99984H3.5002C2.67173 1.99984 2.00014 2.67148 2.0002 3.49996L2.00027 4.37845C2.00031 4.77631 1.84227 5.15789 1.56093 5.43923L0.949604 6.05056C0.40917 6.59099 0.361493 7.45135 0.838906 8.04819L1.67149 9.08905C1.8842 9.35497 2.0001 9.68535 2.00013 10.0259L2.00018 10.5C2.00026 11.3284 2.67181 11.9998 3.50018 11.9998H4.37881C4.77661 11.9998 5.15811 12.1578 5.43941 12.4391L5.9396 12.9392C6.52542 13.525 7.47517 13.5249 8.06092 12.9391L8.56073 12.4392C8.84204 12.1579 9.2236 11.9998 9.62145 11.9998H10.5001C11.3285 11.9998 12.0001 11.3283 12.0001 10.4998V10.0261C12.0001 9.68542 12.116 9.35493 12.3288 9.08895L13.1615 8.04828C13.639 7.45142 13.5914 6.59092 13.0508 6.05044L12.4395 5.43919C12.1581 5.15788 12.0001 4.77632 12.0001 4.37846V3.49984C12.0001 2.67141 11.3285 1.99984 10.5001 1.99984H9.62164C9.22382 1.99984 8.84229 1.8418 8.56098 1.5605L8.06092 1.06043ZM6.50011 9.56077L10.5608 5.50011L9.50011 4.43945L6.50011 7.43945L5.00011 5.93945L3.93945 7.00011L6.50011 9.56077Z" fill="#62B543"/>
</svg>
