<!-- Copyright 2000-2023 JetBrains s.r.o. and contributors. Use of this source code is governed by the Apache 2.0 license. -->
<svg xmlns="http://www.w3.org/2000/svg" width="16" height="16" viewBox="0 0 16 16">
  <g fill="none" fill-rule="evenodd">
    <polygon fill="#9AA7B0" fill-opacity=".8" points="7 1 3 5 7 5"/>
    <polygon fill="#9AA7B0" fill-opacity=".8" points="8 1 8 6 3 6 3 8 13 8 13 1"/>
    <polygon fill="#62B543" fill-opacity=".7" points="1 16 16 16 16 9 1 9"/>
    <path fill="#231F20" fill-opacity=".7" d="M0,2.501 C0,1 0.931,2.02832126e-16 2.256,0 C3.20239258,0 3.55,0.311 3.969,0.753 L3.42669678,1.42712402 C3.07669678,1.06812402 2.75,1 2.25,1 C1.418,1 1,1.73791504 1,2.487 C1,3.23608496 1.412,4 2.25,4 C2.787,4 3.05169678,3.89340869 3.42669678,3.50640869 L4,4.144 C3.544,4.669 3.19732666,5 2.225,5 C0.949,5 7.35277938e-17,4.002 0,2.501 Z" transform="translate(3 10)"/>
  </g>
</svg>
