<svg width="171" height="24" viewBox="0 0 171 24" fill="none" xmlns="http://www.w3.org/2000/svg">
  <path fill-rule="evenodd" clip-rule="evenodd"
        d="M5.3026 22.5C12.7779 21.8463 19.3342 17.2496 22.4999 10.4467C18.545 4.80336 12.1128 1.5 5.30326 1.5C4.69279 1.5 4.07948 1.52654 3.46444 1.58032C0.298667 8.38333 0.993097 16.3508 5.3026 22.5Z"
        fill="url(#paint0_linear)"/>
  <path fill-rule="evenodd" clip-rule="evenodd"
        d="M3.48495 1.58052C3.48495 1.58052 10.1433 3.92991 14.5345 10.4469H22.5C18.5638 4.80356 12.1331 1.5002 5.32376 1.5002C4.7133 1.5002 4.09996 1.52674 3.48495 1.58052Z"
        fill="url(#paint1_linear)"/>
  <path fill-rule="evenodd" clip-rule="evenodd"
        d="M14.5354 10.4469C13.5754 16.7963 5.30261 22.5 5.30261 22.5C12.8236 21.7861 19.4232 17.2775 22.4999 10.4446L14.5354 10.4469Z"
        fill="url(#paint2_linear)"/>
  <path
    d="M34.374 18.0718C35.742 18.0718 36.876 17.6758 37.65 16.9018C38.406 16.1458 38.838 15.0298 38.838 13.5358V5.29184H35.994V13.4098C35.994 14.8678 35.346 15.4978 34.302 15.4978C33.42 15.4978 32.718 15.0298 31.998 14.2378L30.252 16.1818C31.116 17.2078 32.412 18.0718 34.374 18.0718ZM45.6562 18.1078C47.4022 18.1078 48.6982 17.4238 49.5982 16.3078L48.0322 14.9218C47.2762 15.6238 46.6102 15.9118 45.6922 15.9118C44.4682 15.9118 43.6042 15.2638 43.3342 14.0218H50.0482C50.0662 13.7698 50.0842 13.5178 50.0842 13.3018C50.0842 10.5658 48.6082 8.06385 45.3862 8.06385C42.5782 8.06385 40.6162 10.3318 40.6162 13.0858V13.1218C40.6162 16.0738 42.7582 18.1078 45.6562 18.1078ZM43.2982 12.3118C43.5142 11.0698 44.2522 10.2598 45.3862 10.2598C46.5382 10.2598 47.2582 11.0878 47.4202 12.3118H43.2982ZM55.0812 18.0538C55.9992 18.0538 56.6652 17.8378 57.2412 17.4958V15.2998C56.8452 15.5158 56.3952 15.6418 55.8912 15.6418C55.2792 15.6418 55.0092 15.3358 55.0092 14.7058V10.5838H57.2772V8.24385H55.0092V5.77785H52.2732V8.24385H51.1212V10.5838H52.2732V15.1558C52.2732 17.3878 53.4072 18.0538 55.0812 18.0538ZM59.2819 17.8918H65.2759C68.1199 17.8918 69.9919 16.7398 69.9919 14.4358V14.3998C69.9919 12.7078 69.0919 11.8618 67.6339 11.3038C68.5339 10.7998 69.2899 10.0078 69.2899 8.58585V8.54984C69.2899 7.68585 69.0019 6.98385 68.4259 6.40785C67.7059 5.68785 66.5719 5.29184 65.1319 5.29184H59.2819V17.8918ZM66.5359 9.05385C66.5359 9.98985 65.7619 10.3858 64.5379 10.3858H61.9819V7.72185H64.7179C65.8879 7.72185 66.5359 8.18985 66.5359 9.01785V9.05385ZM67.2379 14.0578V14.0938C67.2379 15.0298 66.4999 15.4618 65.2759 15.4618H61.9819V12.6898H65.1859C66.6079 12.6898 67.2379 13.2118 67.2379 14.0578ZM71.6842 17.8918H74.4202V14.3278C74.4202 12.0238 75.5362 10.9258 77.3542 10.9258H77.4982V8.06385C75.8782 7.99185 74.9782 8.85585 74.4202 10.1878V8.24385H71.6842V17.8918ZM81.1866 18.0718C82.5186 18.0718 83.4366 17.5858 84.1026 16.8478V17.8918H86.7486V12.2938C86.7486 10.9978 86.4246 9.93585 85.7046 9.21585C85.0206 8.53184 83.9406 8.13584 82.4466 8.13584C80.8086 8.13584 79.7646 8.44185 78.7026 8.90985L79.3866 10.9978C80.2686 10.6738 81.0066 10.4758 82.0506 10.4758C83.4186 10.4758 84.1206 11.1058 84.1206 12.2398V12.4018C83.4366 12.1678 82.7346 12.0058 81.7626 12.0058C79.4766 12.0058 77.8746 12.9778 77.8746 15.0838V15.1198C77.8746 17.0278 79.3686 18.0718 81.1866 18.0718ZM82.0146 16.1818C81.1326 16.1818 80.5206 15.7498 80.5206 15.0118V14.9758C80.5206 14.1118 81.2406 13.6438 82.4106 13.6438C83.0766 13.6438 83.6886 13.7878 84.1566 14.0038V14.4898C84.1566 15.4798 83.2926 16.1818 82.0146 16.1818ZM88.8569 7.18185H91.7369V4.75185H88.8569V7.18185ZM88.9289 17.8918H91.6649V8.24385H88.9289V17.8918ZM93.9345 17.8918H96.6705V12.5098C96.6705 11.2138 97.3365 10.5478 98.3805 10.5478C99.4245 10.5478 100.037 11.2138 100.037 12.5098V17.8918H102.773V11.6458C102.773 9.43185 101.567 8.06385 99.4965 8.06385C98.1105 8.06385 97.3005 8.80185 96.6705 9.61185V8.24385H93.9345V17.8918ZM108.233 18.0718C110.321 18.0718 111.923 17.0998 111.923 14.9578V14.9218C111.923 13.1578 110.357 12.5098 109.007 12.0598C107.963 11.6998 107.045 11.4478 107.045 10.9078V10.8718C107.045 10.4938 107.387 10.2058 108.053 10.2058C108.755 10.2058 109.709 10.5478 110.663 11.1058L111.707 9.21585C110.663 8.51385 109.331 8.09985 108.107 8.09985C106.163 8.09985 104.579 9.19785 104.579 11.1598V11.1958C104.579 13.0678 106.109 13.6978 107.459 14.0938C108.521 14.4178 109.457 14.6158 109.457 15.2098V15.2458C109.457 15.6778 109.097 15.9658 108.305 15.9658C107.405 15.9658 106.307 15.5698 105.263 14.8138L104.093 16.6138C105.371 17.6218 106.883 18.0718 108.233 18.0718ZM123.451 18.0718C126.169 18.0718 128.077 16.6678 128.077 14.1658V14.1298C128.077 11.9338 126.637 11.0158 124.081 10.3498C121.903 9.79185 121.363 9.52185 121.363 8.69385V8.65785C121.363 8.04584 121.921 7.55985 122.983 7.55985C124.045 7.55985 125.143 8.02785 126.259 8.80185L127.699 6.71384C126.421 5.68785 124.855 5.11185 123.019 5.11185C120.445 5.11185 118.609 6.62384 118.609 8.90985V8.94585C118.609 11.4478 120.247 12.1498 122.785 12.7978C124.891 13.3378 125.323 13.6978 125.323 14.3998V14.4358C125.323 15.1738 124.639 15.6238 123.505 15.6238C122.065 15.6238 120.877 15.0298 119.743 14.0938L118.105 16.0558C119.617 17.4058 121.543 18.0718 123.451 18.0718ZM129.895 20.7718H132.631V16.6318C133.279 17.4058 134.179 18.0718 135.637 18.0718C137.923 18.0718 140.029 16.3078 140.029 13.0858V13.0498C140.029 9.82785 137.887 8.06385 135.637 8.06385C134.215 8.06385 133.297 8.72985 132.631 9.62985V8.24385H129.895V20.7718ZM134.935 15.7498C133.657 15.7498 132.595 14.6878 132.595 13.0858V13.0498C132.595 11.4478 133.657 10.3858 134.935 10.3858C136.213 10.3858 137.293 11.4478 137.293 13.0498V13.0858C137.293 14.7058 136.213 15.7498 134.935 15.7498ZM144.477 18.0718C145.809 18.0718 146.727 17.5858 147.393 16.8478V17.8918H150.039V12.2938C150.039 10.9978 149.715 9.93585 148.995 9.21585C148.311 8.53184 147.231 8.13584 145.737 8.13584C144.099 8.13584 143.055 8.44185 141.993 8.90985L142.677 10.9978C143.559 10.6738 144.297 10.4758 145.341 10.4758C146.709 10.4758 147.411 11.1058 147.411 12.2398V12.4018C146.727 12.1678 146.025 12.0058 145.053 12.0058C142.767 12.0058 141.165 12.9778 141.165 15.0838V15.1198C141.165 17.0278 142.659 18.0718 144.477 18.0718ZM145.305 16.1818C144.423 16.1818 143.811 15.7498 143.811 15.0118V14.9758C143.811 14.1118 144.531 13.6438 145.701 13.6438C146.367 13.6438 146.979 13.7878 147.447 14.0038V14.4898C147.447 15.4798 146.583 16.1818 145.305 16.1818ZM156.648 18.1078C158.574 18.1078 159.654 17.3698 160.59 16.3438L158.988 14.7238C158.322 15.3538 157.692 15.7498 156.774 15.7498C155.28 15.7498 154.326 14.5618 154.326 13.0858V13.0498C154.326 11.6278 155.298 10.4218 156.666 10.4218C157.638 10.4218 158.25 10.8358 158.862 11.4838L160.536 9.68385C159.636 8.67585 158.502 8.06385 156.684 8.06385C153.732 8.06385 151.626 10.3318 151.626 13.0858V13.1218C151.626 15.8758 153.75 18.1078 156.648 18.1078ZM166.385 18.1078C168.131 18.1078 169.427 17.4238 170.327 16.3078L168.761 14.9218C168.005 15.6238 167.339 15.9118 166.421 15.9118C165.197 15.9118 164.333 15.2638 164.063 14.0218H170.777C170.795 13.7698 170.813 13.5178 170.813 13.3018C170.813 10.5658 169.337 8.06385 166.115 8.06385C163.307 8.06385 161.345 10.3318 161.345 13.0858V13.1218C161.345 16.0738 163.487 18.1078 166.385 18.1078ZM164.027 12.3118C164.243 11.0698 164.981 10.2598 166.115 10.2598C167.267 10.2598 167.987 11.0878 168.149 12.3118H164.027Z"
    fill="black"/>
  <defs>
    <linearGradient id="paint0_linear" x1="10.9675" y1="1.21289" x2="13.1595" y2="21.9937" gradientUnits="userSpaceOnUse">
      <stop stop-color="#FCF84A"/>
      <stop offset="1" stop-color="#07C3F2"/>
    </linearGradient>
    <linearGradient id="paint1_linear" x1="2.92932" y1="1.53109" x2="22.5884" y2="10.8577" gradientUnits="userSpaceOnUse">
      <stop offset="0.0006" stop-color="#3BEA62"/>
      <stop offset="0.99766" stop-color="#087CFA"/>
    </linearGradient>
    <linearGradient id="paint2_linear" x1="6.74998" y1="22.1719" x2="24.5189" y2="7.97988" gradientUnits="userSpaceOnUse">
      <stop stop-color="#009AE5"/>
      <stop offset="1" stop-color="#293896"/>
    </linearGradient>
  </defs>
</svg>
