<svg xmlns="http://www.w3.org/2000/svg" xmlns:xlink="http://www.w3.org/1999/xlink" width="40" height="40" viewBox="0 0 40 40">
  <defs>
    <polygon id="junit-a" points=".83 .931 24 .931 24 29.791 .83 29.791"/>
    <polygon id="junit-c" points=".676 .995 1.676 .995 1.676 1 .676 1"/>
    <polygon id="junit-e" points=".001 0 21.579 0 21.579 28.213 .001 28.213"/>
  </defs>
  <g fill="none" fill-rule="evenodd" transform="translate(4 4)">
    <path fill="#FFF" d="M22.8823,20.2754 C22.4983,21.6914 21.6123,22.9544 20.3413,23.8114 C18.9373,24.7584 17.3163,25.1304 15.6183,25.2124 C14.6223,25.2594 13.6183,25.1714 12.6183,25.1264 C11.6423,25.0814 10.7013,24.8684 9.7913,24.5354 C9.6503,24.4834 9.2253,24.3294 8.8293,24.1854 L8.8293,21.0404 C8.9163,21.0834 9.0083,21.1204 9.0643,21.1474 C10.2933,21.7544 11.6093,22.0964 12.9823,22.2724 C14.2333,22.4324 15.4803,22.4664 16.7023,22.1334 C17.7893,21.8374 18.6233,21.2524 19.0673,20.2414 C19.3943,19.4944 19.4403,18.7154 19.3453,17.9394 C19.2003,16.7554 18.5513,15.8604 17.3313,15.4274 C16.7363,15.2154 16.0963,15.0624 15.4633,15.0064 C14.0153,14.8794 12.5833,15.0744 11.1623,15.3424 C11.1063,15.3534 10.9293,15.3964 10.9293,15.3964 L9.2883,14.4944 L10.0943,4.4744 L21.5783,4.4744 L21.5783,7.5014 L13.3113,7.4934 L12.8343,12.3894 C13.3993,12.3204 13.9853,12.2414 14.5273,12.1834 C16.1863,12.0054 17.8203,12.0954 19.3713,12.7114 C21.5733,13.5844 22.8143,15.1684 23.0753,17.3684 C23.1913,18.3324 23.1453,19.3114 22.8823,20.2754"/>
    <g transform="translate(8)">
      <mask id="junit-b" fill="#fff">
        <use xlink:href="#junit-a"/>
      </mask>
      <path fill="#25A162" d="M13.5786,0.9312 L13.5786,4.4742 L13.5786,7.5012 L10.3436,7.4992 L10.3436,7.4982 L5.3106,7.4932 L4.8346,12.3892 C5.3986,12.3202 5.9846,12.2412 6.5266,12.1832 C8.1856,12.0062 9.8206,12.0962 11.3716,12.7112 C13.5736,13.5842 14.8136,15.1682 15.0756,17.3682 C15.1906,18.3322 15.1446,19.3112 14.8826,20.2752 C14.4986,21.6912 13.6126,22.9542 12.3416,23.8112 C10.9366,24.7592 9.3156,25.1312 7.6186,25.2122 C6.6226,25.2602 5.6186,25.1722 4.6186,25.1262 C3.6416,25.0812 2.7016,24.8682 1.7916,24.5352 C1.6496,24.4832 1.2246,24.3292 0.8296,24.1852 L0.8296,28.2142 C2.9856,29.2232 5.4216,29.7912 8.0006,29.7912 C16.8366,29.7912 24.0006,23.1222 24.0006,14.8952 C24.0006,8.4952 19.6646,3.0392 13.5786,0.9312" mask="url(#junit-b)"/>
    </g>
    <g transform="translate(1 31)">
      <mask id="junit-d" fill="#fff">
        <use xlink:href="#junit-c"/>
      </mask>
      <path fill="#BE1E2D" d="M0.6782,1 L0.6782,0.995 C0.6752,0.997 0.6742,0.998 0.6782,1" mask="url(#junit-d)"/>
    </g>
    <mask id="junit-f" fill="#fff">
      <use xlink:href="#junit-e"/>
    </mask>
    <path fill="#DC524A" d="M8.8296,24.1855 L8.8296,21.0395 C8.8406,21.0455 8.8506,21.0505 8.8616,21.0555 C8.8806,21.0645 8.8976,21.0725 8.9156,21.0805 C8.9176,21.0815 8.9206,21.0825 8.9226,21.0835 C8.9396,21.0915 8.9576,21.0995 8.9746,21.1065 C8.9896,21.1145 9.0056,21.1215 9.0196,21.1265 C9.0216,21.1275 9.0226,21.1285 9.0246,21.1295 C9.0396,21.1355 9.0526,21.1425 9.0636,21.1475 C10.2936,21.7535 11.6086,22.0965 12.9816,22.2725 C14.2326,22.4325 15.4796,22.4665 16.7026,22.1335 C17.7896,21.8375 18.6236,21.2515 19.0666,20.2415 C19.3936,19.4945 19.4396,18.7155 19.3456,17.9395 C19.2006,16.7555 18.5516,15.8605 17.3316,15.4275 C16.7366,15.2155 16.0966,15.0625 15.4636,15.0065 C14.0156,14.8785 12.5836,15.0745 11.1626,15.3425 C11.1056,15.3535 10.9296,15.3955 10.9296,15.3955 L9.2886,14.4945 L10.0946,4.4745 L21.5786,4.4745 L21.5786,0.9315 C19.8416,0.3295 17.9626,-0.0005 16.0006,-0.0005 C7.1636,-0.0005 0.0006,6.6685 0.0006,14.8955 C0.0006,20.7215 3.5936,25.7655 8.8296,28.2135 L8.8296,24.1855 Z" mask="url(#junit-f)"/>
  </g>
</svg>
