<!-- Copyright 2000-2022 JetBrains s.r.o. and contributors. Use of this source code is governed by the Apache 2.0 license. -->
<svg width="12" height="12" viewBox="0 0 12 12" fill="none" xmlns="http://www.w3.org/2000/svg">
<path fill-rule="evenodd" clip-rule="evenodd" d="M2.56098 5.34607C2.36267 5.38151 2.1585 5.4 1.95 5.4C1.37982 5.4 0.841948 5.26168 0.368105 5.01677C0.218245 5.33509 0.0943015 5.66398 0 5.99992C0.75 8.6717 3.375 10.8982 6 10.8982C8.625 10.8982 11.25 8.6717 12 5.99992C11.25 3.32814 8.625 1.10165 6 1.10165C5.76868 1.10165 5.53736 1.11894 5.30732 1.15231C5.36793 1.40835 5.4 1.67543 5.4 1.95C5.4 2.15848 5.38151 2.36264 5.34608 2.56092C5.55792 2.52089 5.77651 2.49994 6 2.49994C7.933 2.49994 9.5 4.06694 9.5 5.99994C9.5 7.93294 7.933 9.49994 6 9.49994C4.067 9.49994 2.5 7.93294 2.5 5.99994C2.5 5.77647 2.52095 5.5579 2.56098 5.34607Z" fill="#E35252"/>
<path fill-rule="evenodd" clip-rule="evenodd" d="M2 4C3.10457 4 4 3.10457 4 2C4 0.89543 3.10457 0 2 0C0.89543 0 0 0.89543 0 2C0 3.10457 0.89543 4 2 4Z" fill="#6C707E"/>
</svg>
