<!-- Copyright 2000-2023 JetBrains s.r.o. and contributors. Use of this source code is governed by the Apache 2.0 license. -->
<svg width="14" height="14" viewBox="0 0 14 14" fill="none" xmlns="http://www.w3.org/2000/svg">
<path fill-rule="evenodd" clip-rule="evenodd" d="M2.5 5C3.88071 5 5 3.88071 5 2.5C5 1.11929 3.88071 0 2.5 0C1.11929 0 0 1.11929 0 2.5C0 3.88071 1.11929 5 2.5 5Z" fill="#CED0D6"/>
<path d="M3.7176 5.78239C3.33839 5.92311 2.92818 6 2.5 6C1.83065 6 1.20518 5.8121 0.673469 5.48618C0.375393 5.96773 0.146731 6.47729 0 7C0.75 9.67178 3.64058 12 7 12C10.3594 12 13.25 9.67178 14 7C13.25 4.32822 10.3594 2 7 2C6.65242 2 6.30985 2.02492 5.97416 2.07257C5.99122 2.21266 6 2.35531 6 2.5C6 2.92817 5.92312 3.33838 5.7824 3.71758C6.16161 3.57686 6.57182 3.49997 7 3.49997C8.933 3.49997 10.5 5.06698 10.5 6.99997C10.5 8.93297 8.933 10.5 7 10.5C5.067 10.5 3.5 8.93297 3.5 6.99997C3.5 6.5718 3.57688 6.16159 3.7176 5.78239Z" fill="#DB5C5C"/>
</svg>
