<!-- Copyright 2000-2026 JetBrains s.r.o. and contributors. Use of this source code is governed by the Apache 2.0 license. -->
<svg width="14" height="14" viewBox="0 0 14 14" fill="none" xmlns="http://www.w3.org/2000/svg">
<path fill-rule="evenodd" clip-rule="evenodd" d="M7 1C10.3137 1 13 3.68629 13 7C13 10.3137 10.3137 13 7 13C3.68629 13 1 10.3137 1 7C1 3.68629 3.68629 1 7 1ZM4.42871 10.6914C5.15776 11.2002 6.04354 11.5 7 11.5C9.48528 11.5 11.5 9.48528 11.5 7C11.5 6.04354 11.2002 5.15776 10.6914 4.42871L4.42871 10.6914ZM7 2.5C4.51472 2.5 2.5 4.51472 2.5 7C2.5 7.98717 2.81845 8.89968 3.35742 9.6416L9.6416 3.35742C8.89968 2.81845 7.98717 2.5 7 2.5Z" fill="#6C707E"/>
</svg>
