<!-- Copyright 2000-2022 JetBrains s.r.o. and contributors. Use of this source code is governed by the Apache 2.0 license. -->
<svg width="12" height="12" viewBox="0 0 12 12" fill="none" xmlns="http://www.w3.org/2000/svg">
<path fill-rule="evenodd" clip-rule="evenodd" d="M8.56067 1.1312C7.79588 0.728141 6.92458 0.5 6 0.5C2.96243 0.5 0.5 2.96243 0.5 6C0.5 9.03757 2.96243 11.5 6 11.5C9.03757 11.5 11.5 9.03757 11.5 6C11.5 5.16723 11.3149 4.37769 10.9836 3.67027L8.75502 6.13775C8.42717 6.50074 7.96235 6.70996 7.47323 6.71468C6.98411 6.71941 6.51534 6.51921 6.18053 6.16261L6.1805 6.16258L6.18039 6.16246L6.17986 6.1619L6.17769 6.15959L6.16891 6.15025L6.13436 6.11349L6.00293 5.97382C5.88975 5.85365 5.72844 5.68258 5.53623 5.47934C5.15144 5.07249 4.64442 4.5384 4.15248 4.02627C3.48294 3.32925 3.50522 2.22143 4.20225 1.55189C4.89927 0.882356 6.00708 0.904636 6.67662 1.60166C6.92927 1.86468 7.18528 2.13281 7.42676 2.38663L8.56067 1.1312Z" fill="#DB5C5C"/>
<path d="M5.84726 2.39833C5.6177 2.15935 5.23788 2.15171 4.9989 2.38127C4.75992 2.61082 4.75229 2.99065 4.98184 3.22962L5.84726 2.39833ZM7.45633 4.96478L7.01891 5.37547C7.1337 5.49773 7.29442 5.56637 7.46212 5.56475C7.62982 5.56313 7.78919 5.4914 7.9016 5.36694L7.45633 4.96478ZM11.6958 1.16614C11.9179 0.920228 11.8986 0.540819 11.6527 0.31871C11.4067 0.0965998 11.0273 0.115897 10.8052 0.361812L11.6958 1.16614ZM4.98184 3.22962C5.47665 3.74475 5.98593 4.28121 6.37175 4.68917C6.5646 4.89308 6.72647 5.06474 6.8401 5.1854C6.89691 5.24572 6.94166 5.29329 6.97218 5.32575C6.98744 5.34198 6.99915 5.35443 7.00703 5.36282C7.01097 5.36701 7.01395 5.37018 7.01594 5.37231C7.01694 5.37337 7.01768 5.37416 7.01818 5.37469C7.01843 5.37496 7.01861 5.37515 7.01874 5.37528C7.0188 5.37535 7.01884 5.3754 7.01887 5.37543C7.01889 5.37544 7.0189 5.37545 7.0189 5.37546C7.01891 5.37547 7.01891 5.37547 7.45633 4.96478C7.89375 4.55409 7.89374 4.55408 7.89373 4.55407C7.89372 4.55406 7.89371 4.55405 7.89369 4.55403C7.89365 4.55399 7.8936 4.55394 7.89354 4.55387C7.8934 4.55373 7.89321 4.55352 7.89295 4.55324C7.89243 4.55269 7.89165 4.55186 7.89064 4.55078C7.8886 4.54861 7.88557 4.54538 7.88158 4.54114C7.8736 4.53265 7.8618 4.52009 7.84643 4.50374C7.8157 4.47106 7.77073 4.42325 7.71367 4.36267C7.59957 4.24152 7.43711 4.06923 7.2436 3.86462C6.85669 3.45552 6.34507 2.91658 5.84726 2.39833L4.98184 3.22962ZM7.9016 5.36694L11.6958 1.16614L10.8052 0.361812L7.01106 4.56261L7.9016 5.36694Z" fill="#CED0D6"/>
</svg>
