<!-- Copyright 2000-2026 JetBrains s.r.o. and contributors. Use of this source code is governed by the Apache 2.0 license. -->
<svg width="14" height="14" viewBox="0 0 14 14" fill="none" xmlns="http://www.w3.org/2000/svg">
<path d="M5.21006 2.85547C5.21014 3.45667 5.43987 4.05785 5.89854 4.5166L5.90049 4.51855L7.69737 6.30957C8.61469 7.22521 10.1019 7.22626 11.0196 6.30859L12.3712 4.95605L13.7071 6.29199C14.0979 6.68275 14.0979 7.31725 13.7071 7.70801L7.70811 13.707C7.31743 14.0977 6.68385 14.0975 6.29307 13.707L0.29307 7.70801C-0.0976899 7.31725 -0.0976899 6.68275 0.29307 6.29199L5.21006 1.375C5.21007 2.03124 5.21003 2.62856 5.21006 2.85547Z" fill="#DB5C5C"/>
<path fill-rule="evenodd" clip-rule="evenodd" d="M12.5518 0.248959C12.8838 -0.0829863 13.422 -0.0829865 13.754 0.248959C14.0857 0.580923 14.0858 1.11924 13.754 1.45111L9.9571 5.24798C9.62523 5.57985 9.08692 5.5797 8.75495 5.24798L6.95721 3.45599C6.62527 3.12404 6.62527 2.58579 6.95721 2.25384C7.28916 1.9219 7.82741 1.9219 8.15936 2.25384L9.35554 3.44427L12.5518 0.248959Z" fill="#CED0D6"/>
</svg>
