<!-- Copyright 2000-2022 JetBrains s.r.o. and contributors. Use of this source code is governed by the Apache 2.0 license. -->
<svg width="12" height="12" viewBox="0 0 12 12" fill="none" xmlns="http://www.w3.org/2000/svg">
<path fill-rule="evenodd" clip-rule="evenodd" d="M2.56098 5.3461C2.36267 5.38154 2.1585 5.40003 1.95 5.40003C1.37982 5.40003 0.841948 5.26171 0.368105 5.0168C0.218245 5.33512 0.0943015 5.66401 0 5.99995C0.75 8.67173 3.375 10.8982 6 10.8982C8.625 10.8982 11.25 8.67173 12 5.99995C11.25 3.32817 8.625 1.10168 6 1.10168C5.76868 1.10168 5.53736 1.11898 5.30732 1.15234C5.36793 1.40838 5.4 1.67546 5.4 1.95003C5.4 2.15851 5.38151 2.36267 5.34608 2.56095C5.55792 2.52092 5.77651 2.49997 6 2.49997C7.933 2.49997 9.5 4.06697 9.5 5.99997C9.5 7.93297 7.933 9.49997 6 9.49997C4.067 9.49997 2.5 7.93297 2.5 5.99997C2.5 5.7765 2.52095 5.55793 2.56098 5.3461Z" fill="#CED0D6"/>
<path fill-rule="evenodd" clip-rule="evenodd" d="M2 4C3.10457 4 4 3.10457 4 2C4 0.89543 3.10457 0 2 0C0.89543 0 0 0.89543 0 2C0 3.10457 0.89543 4 2 4Z" fill="#CED0D6"/>
</svg>
