<!-- Copyright 2000-2026 JetBrains s.r.o. and contributors. Use of this source code is governed by the Apache 2.0 license. -->
<svg width="14" height="14" viewBox="0 0 14 14" fill="none" xmlns="http://www.w3.org/2000/svg">
<path d="M5.20996 2.85547C5.21004 3.45669 5.43974 4.05784 5.89844 4.5166L5.90039 4.51855L7.69727 6.30957C8.61459 7.22521 10.1018 7.22626 11.0195 6.30859L12.5664 4.76074C12.8451 5.45282 13 6.20819 13 7C13 10.3137 10.3137 13 7 13C3.68629 13 1 10.3137 1 7C1 4.30974 2.77054 2.03295 5.20996 1.27148C5.20997 1.76856 5.20991 2.48544 5.20996 2.85547Z" fill="#FFAF0F"/>
<path fill-rule="evenodd" clip-rule="evenodd" d="M12.5516 0.248959C12.8835 -0.0829863 13.4218 -0.0829865 13.7537 0.248959C14.0855 0.580923 14.0856 1.11924 13.7537 1.45111L9.95686 5.24798C9.62499 5.57985 9.08667 5.5797 8.75471 5.24798L6.95697 3.45599C6.62502 3.12404 6.62502 2.58579 6.95697 2.25384C7.28891 1.9219 7.82717 1.9219 8.15912 2.25384L9.3553 3.44427L12.5516 0.248959Z" fill="#6C707E"/>
</svg>
