<!-- Copyright 2000-2023 JetBrains s.r.o. and contributors. Use of this source code is governed by the Apache 2.0 license. -->
<svg width="14" height="14" viewBox="0 0 14 14" fill="none" xmlns="http://www.w3.org/2000/svg">
<path fill-rule="evenodd" clip-rule="evenodd" d="M13.827 0.175736C14.0613 0.410051 14.0613 0.78995 13.827 1.02426L10.0301 4.82114C9.79581 5.05545 9.41591 5.05545 9.1816 4.82114L7.17574 2.81528C6.94142 2.58097 6.94142 2.20107 7.17574 1.96675C7.41005 1.73244 7.78995 1.73244 8.02426 1.96675L9.60586 3.54835L12.9785 0.175736C13.2128 -0.0585787 13.5927 -0.0585787 13.827 0.175736Z" fill="#6C707E"/>
<path d="M6.47205 3.52397C5.84721 2.89913 5.84721 1.88607 6.47205 1.26123C6.83589 0.89739 7.33137 0.745412 7.80518 0.805299L7.70696 0.707078C7.31643 0.316554 6.68327 0.316553 6.29274 0.707077L0.706956 6.29286C0.316432 6.68339 0.316431 7.31655 0.706955 7.70708L6.29274 13.2929C6.68327 13.6834 7.31643 13.6834 7.70696 13.2929L13.2927 7.70708C13.6833 7.31655 13.6833 6.68339 13.2927 6.29287L11.6352 4.6353L10.7406 5.52983C10.1158 6.15467 9.10275 6.15467 8.47791 5.52983L6.47205 3.52397Z" fill="#FFAF0F"/>
</svg>
