<!-- Copyright 2000-2023 JetBrains s.r.o. and contributors. Use of this source code is governed by the Apache 2.0 license. -->
<svg width="14" height="14" viewBox="0 0 14 14" fill="none" xmlns="http://www.w3.org/2000/svg">
<path fill-rule="evenodd" clip-rule="evenodd" d="M13.827 0.175736C14.0613 0.410051 14.0613 0.78995 13.827 1.02426L10.0301 4.82114C9.79581 5.05545 9.41591 5.05545 9.1816 4.82114L7.17574 2.81528C6.94142 2.58097 6.94142 2.20107 7.17574 1.96675C7.41005 1.73244 7.78995 1.73244 8.02426 1.96675L9.60586 3.54835L12.9785 0.175736C13.2128 -0.0585787 13.5927 -0.0585787 13.827 0.175736Z" fill="#6C707E"/>
<path d="M6.03736 2.06384C3.10006 2.45477 0.677265 4.58729 0 6.99996C0.75 9.67174 3.64058 12 7 12C10.3594 12 13.25 9.67174 14 6.99996C13.7003 5.93233 13.0588 4.91955 12.1822 4.08827L10.7406 5.52979C10.6096 5.66085 10.4614 5.76442 10.3034 5.8405C10.4307 6.20337 10.5 6.59356 10.5 6.99993C10.5 8.93293 8.933 10.4999 7 10.4999C5.067 10.4999 3.5 8.93293 3.5 6.99993C3.5 5.2417 4.79647 3.78627 6.48558 3.53747L6.47205 3.52393C6.07554 3.12743 5.93065 2.5746 6.03736 2.06384Z" fill="#FFAF0F"/>
<path d="M9 6.99994C9 8.10451 8.10457 8.99994 7 8.99994C5.89543 8.99994 5 8.10451 5 6.99994C5 5.89537 5.89543 4.99994 7 4.99994C8.10457 4.99994 9 5.89537 9 6.99994Z" fill="#FFAF0F"/>
</svg>
