<!-- Copyright 2000-2023 JetBrains s.r.o. and contributors. Use of this source code is governed by the Apache 2.0 license. -->
<svg width="14" height="14" viewBox="0 0 14 14" fill="none" xmlns="http://www.w3.org/2000/svg">
<path fill-rule="evenodd" clip-rule="evenodd" d="M13.827 0.175736C14.0613 0.410051 14.0613 0.78995 13.827 1.02426L10.0301 4.82114C9.79581 5.05545 9.41591 5.05545 9.1816 4.82114L7.17574 2.81528C6.94142 2.58097 6.94142 2.20107 7.17574 1.96675C7.41005 1.73244 7.78995 1.73244 8.02426 1.96675L9.60586 3.54835L12.9785 0.175736C13.2128 -0.0585787 13.5927 -0.0585787 13.827 0.175736Z" fill="#6C707E"/>
<path d="M6.47205 1.26123C5.84721 1.88607 5.84721 2.89913 6.47205 3.52397L8.47791 5.52983C9.10275 6.15467 10.1158 6.15467 10.7406 5.52983L12.9537 3.31674C13.617 4.38665 14 5.6486 14 7C14 10.866 10.866 14 7 14C3.13401 14 0 10.866 0 7C0 3.13401 3.13401 0 7 0C8.35542 0 9.62086 0.385235 10.6928 1.05219L9.60928 2.13572L8.73479 1.26123C8.10995 0.636393 7.09689 0.636393 6.47205 1.26123Z" fill="#E55765"/>
</svg>
