<!-- Copyright 2000-2026 JetBrains s.r.o. and contributors. Use of this source code is governed by the Apache 2.0 license. -->
<svg width="14" height="14" viewBox="0 0 14 14" fill="none" xmlns="http://www.w3.org/2000/svg">
<path d="M5.20996 2.85547C5.21001 3.20173 5.28827 3.54717 5.44043 3.86621C4.29025 4.43973 3.5 5.62744 3.5 7C3.50002 8.93298 5.06701 10.5 7 10.5C8.93299 10.5 10.5 8.93298 10.5 7C10.5 6.9013 10.4943 6.80366 10.4863 6.70703C10.6773 6.60234 10.8577 6.47037 11.0195 6.30859L12.6973 4.62988C13.3104 5.34371 13.7626 6.15445 14 7C13.25 9.67178 10.3594 12 7 12C3.64058 12 0.75 9.67178 0 7C0.612503 4.81804 2.6527 2.86534 5.20996 2.22266C5.20997 2.46811 5.20994 2.69458 5.20996 2.85547Z" fill="#DB5C5C"/>
<path d="M7.69727 6.30957C8.06397 6.6756 8.52199 6.89334 8.99805 6.9668C8.99823 6.97785 9 6.98891 9 7C8.99999 8.10456 8.10456 9 7 9C5.89544 9 5.00001 8.10456 5 7C5 6.08302 5.61742 5.31126 6.45898 5.0752L7.69727 6.30957Z" fill="#DB5C5C"/>
<path fill-rule="evenodd" clip-rule="evenodd" d="M12.5516 0.248959C12.8835 -0.0829863 13.4218 -0.0829865 13.7537 0.248959C14.0855 0.580923 14.0856 1.11924 13.7537 1.45111L9.95686 5.24798C9.62499 5.57985 9.08667 5.5797 8.75471 5.24798L6.95697 3.45599C6.62502 3.12404 6.62502 2.58579 6.95697 2.25384C7.28891 1.9219 7.82717 1.9219 8.15912 2.25384L9.3553 3.44427L12.5516 0.248959Z" fill="#CED0D6"/>
</svg>
