<!-- Copyright 2000-2023 JetBrains s.r.o. and contributors. Use of this source code is governed by the Apache 2.0 license. -->
<svg width="14" height="14" viewBox="0 0 14 14" fill="none" xmlns="http://www.w3.org/2000/svg">
<path fill-rule="evenodd" clip-rule="evenodd" d="M7.01559 7.97895C7.25304 8.25416 7.35893 8.6191 7.30568 8.97867L7.01603 10.9341L10.8162 6.45448H7.93084C7.56735 6.45448 7.22186 6.29626 6.98441 6.02105C6.74696 5.74584 6.64107 5.3809 6.69433 5.02133L6.98397 3.06587L3.18376 7.54552H6.06917C6.43265 7.54552 6.77814 7.70374 7.01559 7.97895ZM1.54457 7.54552L7.33072 0.724846L7.40243 0.640314L7.63424 0.367067L7.80465 0.166183C8.10304 -0.185548 8.69224 0.0640189 8.62561 0.513909L8.57972 0.823693L8.53006 1.15895L8.51492 1.2612L8.11599 3.95448L7.93084 5.20448H9.19447H11.8766H11.8826H12.0297H12.5337C12.9263 5.20448 13.1425 5.64452 12.8939 5.93761L12.5337 6.36223L12.4589 6.45042L12.4554 6.45448L6.66928 13.2752L6.59757 13.3597L6.36576 13.6329L6.19535 13.8338C5.89697 14.1855 5.30776 13.936 5.37439 13.4861L5.42028 13.1763L5.46994 12.841L5.48508 12.7388L5.88402 10.0455L6.06917 8.79552H4.80553H2.12335H2.11736H1.97029H1.4663C1.07366 8.79552 0.857453 8.35548 1.10609 8.06239L1.4663 7.63777L1.54112 7.54958L1.54457 7.54552Z" fill="#DB5C5C"/>
</svg>
