<!-- Copyright 2000-2023 JetBrains s.r.o. and contributors. Use of this source code is governed by the Apache 2.0 license. -->
<svg width="14" height="14" viewBox="0 0 14 14" fill="none" xmlns="http://www.w3.org/2000/svg">
<path fill-rule="evenodd" clip-rule="evenodd" d="M2.5 5C3.88071 5 5 3.88071 5 2.5C5 1.11929 3.88071 0 2.5 0C1.11929 0 0 1.11929 0 2.5C0 3.88071 1.11929 5 2.5 5Z" fill="#6C707E"/>
<path d="M3.189 5.93214C2.96619 5.97663 2.73574 5.99997 2.49985 5.99997C2.05393 5.99997 1.62749 5.91658 1.23528 5.76454L0.706956 6.29286C0.316432 6.68339 0.316431 7.31655 0.706955 7.70708L6.29274 13.2929C6.68327 13.6834 7.31643 13.6834 7.70696 13.2929L13.2927 7.70708C13.6833 7.31655 13.6833 6.68339 13.2927 6.29287L7.70696 0.707078C7.31643 0.316554 6.68327 0.316553 6.29274 0.707077L5.76442 1.2354C5.91646 1.62762 5.99985 2.05406 5.99985 2.49997C5.99985 2.73587 5.97651 2.96631 5.93202 3.18912L6.99985 2.12129L11.8785 6.99997L6.99985 11.8787L2.12117 6.99997L3.189 5.93214Z" fill="#E55765"/>
</svg>
