<!-- Copyright 2000-2023 JetBrains s.r.o. and contributors. Use of this source code is governed by the Apache 2.0 license. -->
<svg width="14" height="14" viewBox="0 0 14 14" fill="none" xmlns="http://www.w3.org/2000/svg">
<path fill-rule="evenodd" clip-rule="evenodd" d="M2.5 5C3.88071 5 5 3.88071 5 2.5C5 1.11929 3.88071 0 2.5 0C1.11929 0 0 1.11929 0 2.5C0 3.88071 1.11929 5 2.5 5Z" fill="#CED0D6"/>
<path d="M5.17326 0.240752C5.50542 0.633384 5.75264 1.10018 5.88656 1.61277C6.24615 1.53884 6.61854 1.5 7 1.5C10.0376 1.5 12.5 3.96243 12.5 7C12.5 10.0376 10.0376 12.5 7 12.5C3.96243 12.5 1.5 10.0376 1.5 7C1.5 6.61854 1.53884 6.24615 1.61277 5.88656C1.10018 5.75264 0.633384 5.50542 0.240752 5.17326C0.0837491 5.75562 0 6.36803 0 7C0 10.866 3.13401 14 7 14C10.866 14 14 10.866 14 7C14 3.13401 10.866 0 7 0C6.36803 0 5.75562 0.0837491 5.17326 0.240752Z" fill="#CED0D6"/>
</svg>
