<!-- Copyright 2000-2023 JetBrains s.r.o. and contributors. Use of this source code is governed by the Apache 2.0 license. -->
<svg width="14" height="14" viewBox="0 0 14 14" fill="none" xmlns="http://www.w3.org/2000/svg">
<path fill-rule="evenodd" clip-rule="evenodd" d="M14 7C14 10.866 10.866 14 7 14C3.13401 14 0 10.866 0 7C0 3.13401 3.13401 0 7 0C10.866 0 14 3.13401 14 7ZM12.5 7C12.5 10.0376 10.0376 12.5 7 12.5C5.75168 12.5 4.60048 12.0841 3.67742 11.3834L11.3834 3.67742C12.0841 4.60048 12.5 5.75168 12.5 7ZM2.61675 10.3227L10.3227 2.61675C9.39962 1.91592 8.24838 1.5 7 1.5C3.96243 1.5 1.5 3.96243 1.5 7C1.5 8.24838 1.91592 9.39962 2.61675 10.3227Z" fill="#6C707E"/>
</svg>
