<!-- Copyright 2000-2026 JetBrains s.r.o. and contributors. Use of this source code is governed by the Apache 2.0 license. -->
<svg width="14" height="14" viewBox="0 0 14 14" fill="none" xmlns="http://www.w3.org/2000/svg">
<path fill-rule="evenodd" clip-rule="evenodd" d="M2.5 5C3.88071 5 5 3.88071 5 2.5C5 1.11929 3.88071 0 2.5 0C1.11929 0 0 1.11929 0 2.5C0 3.88071 1.11929 5 2.5 5Z" fill="#6C707E"/>
<path d="M6.29202 0.292996C6.68274 -0.0976824 7.31729 -0.0976483 7.70803 0.292996L13.7071 6.29202C14.0978 6.68275 14.0977 7.31728 13.7071 7.70803L7.70803 13.7071L7.63186 13.7754C7.26495 14.0749 6.7351 14.0749 6.36819 13.7754L6.29202 13.7071L0.292994 7.70803C-0.0976315 7.31728 -0.0976976 6.68274 0.292994 6.29202L0.576197 6.00686C1.06914 6.27787 1.62509 6.4469 2.21682 6.48831L1.70706 7.00003L7.00002 12.293L12.293 7.00003L7.00002 1.70706L6.48831 2.21682C6.4469 1.6251 6.27786 1.06914 6.00686 0.576199L6.29202 0.292996Z" fill="#E55765"/>
</svg>
