<!-- Copyright 2000-2022 JetBrains s.r.o. and contributors. Use of this source code is governed by the Apache 2.0 license. -->
<svg width="12" height="12" viewBox="0 0 12 12" fill="none" xmlns="http://www.w3.org/2000/svg">
<path fill-rule="evenodd" clip-rule="evenodd" d="M2.03096 5.49987C2.02073 5.49996 2.01048 5.5 2.00022 5.5C1.4865 5.5 0.998627 5.38932 0.559152 5.19051C0.520184 5.45469 0.5 5.72499 0.5 6C0.5 9.03757 2.96243 11.5 6 11.5C9.03757 11.5 11.5 9.03757 11.5 6C11.5 2.96243 9.03757 0.5 6 0.5C5.72509 0.5 5.45489 0.520169 5.19081 0.559109C5.38957 0.998539 5.50022 1.48635 5.50022 2C5.50022 2.01032 5.50017 2.02064 5.50008 2.03094C5.66385 2.01052 5.8307 2 6 2C8.20914 2 10 3.79086 10 6C10 8.20914 8.20914 10 6 10C3.79086 10 2 8.20914 2 6C2 5.83062 2.01053 5.66371 2.03096 5.49987Z" fill="#CED0D6"/>
<path fill-rule="evenodd" clip-rule="evenodd" d="M2 4C3.10457 4 4 3.10457 4 2C4 0.89543 3.10457 0 2 0C0.89543 0 0 0.89543 0 2C0 3.10457 0.89543 4 2 4Z" fill="#CED0D6"/>
</svg>
