<!-- Copyright 2000-2026 JetBrains s.r.o. and contributors. Use of this source code is governed by the Apache 2.0 license. -->
<svg width="14" height="14" viewBox="0 0 14 14" fill="none" xmlns="http://www.w3.org/2000/svg">
<path fill-rule="evenodd" clip-rule="evenodd" d="M2.5 5C3.88071 5 5 3.88071 5 2.5C5 1.11929 3.88071 0 2.5 0C1.11929 0 0 1.11929 0 2.5C0 3.88071 1.11929 5 2.5 5Z" fill="#6C707E"/>
<path d="M7 1C10.3137 1 13 3.68629 13 7C13 10.3137 10.3137 13 7 13C3.68629 13 1 10.3137 1 7C1 6.73814 1.01904 6.48051 1.05176 6.22754C1.50104 6.40222 1.98895 6.5 2.5 6.5C2.50945 6.5 2.51889 6.49909 2.52832 6.49902C2.50989 6.6635 2.5 6.83062 2.5 7C2.5 9.48528 4.51472 11.5 7 11.5C9.48528 11.5 11.5 9.48528 11.5 7C11.5 4.51472 9.48528 2.5 7 2.5C6.83062 2.5 6.6635 2.50989 6.49902 2.52832C6.49909 2.51889 6.5 2.50945 6.5 2.5C6.5 1.98895 6.40222 1.50104 6.22754 1.05176C6.48051 1.01904 6.73814 1 7 1Z" fill="#6C707E"/>
</svg>
