<!-- Copyright 2000-2023 JetBrains s.r.o. and contributors. Use of this source code is governed by the Apache 2.0 license. -->
<svg width="14" height="14" viewBox="0 0 14 14" fill="none" xmlns="http://www.w3.org/2000/svg">
<path d="M7 8.99998C8.10457 8.99998 9 8.10455 9 6.99998C9 5.89541 8.10457 4.99998 7 4.99998C5.89543 4.99998 5 5.89541 5 6.99998C5 8.10455 5.89543 8.99998 7 8.99998Z" fill="#CED0D6"/>
<path fill-rule="evenodd" clip-rule="evenodd" d="M7 2C3.64058 2 0.75 4.32822 0 7C0.75 9.67178 3.64058 12 7 12C10.3594 12 13.25 9.67178 14 7C13.25 4.32822 10.3594 2 7 2ZM10.5 6.99997C10.5 8.93297 8.933 10.5 7 10.5C5.067 10.5 3.5 8.93297 3.5 6.99997C3.5 5.06698 5.067 3.49997 7 3.49997C8.933 3.49997 10.5 5.06698 10.5 6.99997Z" fill="#CED0D6"/>
</svg>
