<!-- Copyright 2000-2022 JetBrains s.r.o. and contributors. Use of this source code is governed by the Apache 2.0 license. -->
<svg width="12" height="12" viewBox="0 0 12 12" fill="none" xmlns="http://www.w3.org/2000/svg">
<path fill-rule="evenodd" clip-rule="evenodd" d="M6 1.10172C3.375 1.10172 0.75 3.3282 0 5.99998C0.75 8.67176 3.375 10.8982 6 10.8982C8.625 10.8982 11.25 8.67176 12 5.99998C11.25 3.3282 8.625 1.10172 6 1.10172ZM9.5 6C9.5 7.933 7.933 9.5 6 9.5C4.067 9.5 2.5 7.933 2.5 6C2.5 4.06701 4.067 2.5 6 2.5C7.933 2.5 9.5 4.06701 9.5 6ZM6 8.00001C7.10457 8.00001 8 7.10458 8 6.00001C8 4.89544 7.10457 4.00001 6 4.00001C4.89543 4.00001 4 4.89544 4 6.00001C4 7.10458 4.89543 8.00001 6 8.00001Z" fill="#DB5C5C"/>
</svg>
