<!-- Copyright 2000-2026 JetBrains s.r.o. and contributors. Use of this source code is governed by the Apache 2.0 license. -->
<svg width="14" height="14" viewBox="0 0 14 14" fill="none" xmlns="http://www.w3.org/2000/svg">
<path fill-rule="evenodd" clip-rule="evenodd" d="M2.5 5C3.88071 5 5 3.88071 5 2.5C5 1.11929 3.88071 0 2.5 0C1.11929 0 0 1.11929 0 2.5C0 3.88071 1.11929 5 2.5 5Z" fill="#6C707E"/>
<path d="M7 2C10.3594 2 13.25 4.32822 14 7C13.25 9.67178 10.3594 12 7 12C3.64058 12 0.75 9.67178 0 7C0.103267 6.63212 0.248643 6.27154 0.428711 5.92188C1.03295 6.28841 1.74166 6.5 2.5 6.5C2.86665 6.5 3.22127 6.44883 3.55859 6.35645C3.51984 6.56502 3.5 6.7802 3.5 7C3.50002 8.93298 5.06701 10.5 7 10.5C8.93299 10.5 10.5 8.93298 10.5 7C10.5 5.067 8.933 3.5 7 3.5C6.78019 3.5 6.56503 3.51983 6.35645 3.55859C6.44883 3.22127 6.5 2.86665 6.5 2.5C6.5 2.33733 6.4886 2.17712 6.46973 2.01953C6.645 2.00673 6.82184 2 7 2Z" fill="#6C707E"/>
</svg>
