<!-- Copyright 2000-2026 JetBrains s.r.o. and contributors. Use of this source code is governed by the Apache 2.0 license. -->
<svg width="14" height="14" viewBox="0 0 14 14" fill="none" xmlns="http://www.w3.org/2000/svg">
<path fill-rule="evenodd" clip-rule="evenodd" d="M7 1C10.3137 1 13 3.68629 13 7C13 10.3137 10.3137 13 7 13C3.68629 13 1 10.3137 1 7C1 3.68629 3.68629 1 7 1ZM7 9C6.3928 9.00021 5.9006 9.4924 5.90039 10.0996C5.90039 10.707 6.39267 11.2 7 11.2002C7.60751 11.2002 8.10059 10.7071 8.10059 10.0996C8.10038 9.49227 7.60738 9 7 9ZM7.00098 2.59961C6.50392 2.59961 6.10059 3.00294 6.10059 3.5V7C6.10059 7.49706 6.50392 7.90039 7.00098 7.90039C7.49781 7.90013 7.90039 7.49689 7.90039 7V3.5C7.90039 3.00311 7.49781 2.59987 7.00098 2.59961Z" fill="#E55765"/>
</svg>
