<!-- Copyright 2000-2026 JetBrains s.r.o. and contributors. Use of this source code is governed by the Apache 2.0 license. -->
<svg width="14" height="14" viewBox="0 0 14 14" fill="none" xmlns="http://www.w3.org/2000/svg">
<path d="M10.5 0L11.4734 2.46078L14 2.67376L12.075 4.40759L12.6631 7L10.5 5.61078L8.33688 7L8.925 4.40759L7 2.67376L9.5266 2.46078L10.5 0Z" fill="#CED0D6"/>
<path d="M6 2.69624C6.00646 2.9669 6.12279 3.22937 6.33105 3.41704L7.82031 4.75786L7.36133 6.77837C7.27158 7.17412 7.4306 7.58527 7.7627 7.81841C8.09492 8.05121 8.53548 8.0608 8.87695 7.84185L10.5 6.79888L12.123 7.84185C12.3645 7.99669 12.6547 8.03485 12.9219 7.96294C12.4611 10.8187 9.98587 13.0001 7 13.0001C3.68629 13.0001 1 10.3137 1 7.00005C1 4.02705 3.16229 1.55909 6 1.08301V2.69624Z" fill="#F2C55C"/>
</svg>
