<svg width="14" height="14" viewBox="0 0 14 14" fill="none" xmlns="http://www.w3.org/2000/svg">
<path d="M10.5 0L11.4734 2.46078L14 2.67376L12.075 4.40759L12.6631 7L10.5 5.61078L8.33688 7L8.925 4.40759L7 2.67376L9.5266 2.46078L10.5 0Z" fill="#CED0D6"/>
<path d="M7 1C7.6662 1 8.30652 1.11013 8.90527 1.31055L8.82422 1.51562L6.91602 1.67773C6.51902 1.71134 6.17893 1.97692 6.05176 2.35449C5.92471 2.73224 6.03499 3.1502 6.33105 3.41699L7.82031 4.75781L7.36133 6.77832C7.27158 7.17407 7.4306 7.58522 7.7627 7.81836C8.09492 8.05116 8.53548 8.06075 8.87695 7.8418L10.5 6.79883L12.123 7.8418C12.3645 7.99664 12.6547 8.0348 12.9219 7.96289C12.4611 10.8187 9.98587 13 7 13C3.68629 13 1 10.3137 1 7C1 3.68629 3.68629 1 7 1Z" fill="#F2C55C"/>
</svg>
