<!-- Copyright 2000-2026 JetBrains s.r.o. and contributors. Use of this source code is governed by the Apache 2.0 license. -->
<svg width="14" height="14" viewBox="0 0 14 14" fill="none" xmlns="http://www.w3.org/2000/svg">
<path fill-rule="evenodd" clip-rule="evenodd" d="M4.5 5C6.98528 5 9 7.01472 9 9.5C9 11.9853 6.98528 14 4.5 14C2.01472 14 0 11.9853 0 9.5C0 7.01472 2.01472 5 4.5 5ZM4.5 6.5C2.84315 6.5 1.5 7.84315 1.5 9.5C1.5 11.1569 2.84315 12.5 4.5 12.5C6.15685 12.5 7.5 11.1569 7.5 9.5C7.5 7.84315 6.15685 6.5 4.5 6.5Z" fill="#DB3B4B"/>
<path d="M9.5 0C11.9853 0 14 2.01472 14 4.5C14 6.6526 12.4883 8.45034 10.4688 8.89355C10.4176 8.3841 10.3033 7.89347 10.1328 7.42969C11.4855 7.13895 12.5 5.93954 12.5 4.5C12.5 2.84315 11.1569 1.5 9.5 1.5C8.06079 1.50005 6.86037 2.51399 6.56934 3.86621C6.10558 3.69582 5.61488 3.58132 5.10547 3.53027C5.54898 1.51119 7.34773 4.73128e-05 9.5 0Z" fill="#DB3B4B"/>
</svg>
