<svg xmlns="http://www.w3.org/2000/svg" width="16" height="16" viewBox="0 0 16 16">
  <g fill="none" fill-rule="evenodd">
    <rect width="14" height="10" x="1" y="3" fill="#9AA7B0" fill-opacity=".6"/>
    <path fill="#231F20" fill-opacity=".7" d="M2.99180328,6 C1.2295082,6 0,4.64917127 0,3.01657459 L0,3 C0,1.36740331 1.24590164,0 3.00819672,0 C4.7704918,0 6,1.35082873 6,2.98342541 L6,3 C6,4.63259669 4.75409836,6 2.99180328,6 Z M3.00819672,5.05524862 C4.14754098,5.05524862 4.94262295,4.14364641 4.94262295,3.01657459 L4.94262295,3 C4.94262295,1.87292818 4.13114754,0.944751381 2.99180328,0.944751381 C1.85245902,0.944751381 1.05737705,1.85635359 1.05737705,2.98342541 L1.05737705,3 C1.05737705,4.12707182 1.86885246,5.05524862 3.00819672,5.05524862 Z" transform="translate(2 5)"/>
    <polygon fill="#231F20" fill-opacity=".7" points="9 11 9 5 10.054 5 10.054 8.017 12.9 5 14.211 5 11.709 7.58 14.323 11 13.037 11 10.989 8.3 10.054 9.26 10.054 11"/>
  </g>
</svg>
