<svg xmlns="http://www.w3.org/2000/svg" width="16" height="16" viewBox="0 0 16 16">
  <path fill="#9AA7B0" fill-opacity=".8" fill-rule="evenodd" d="M8,15 C4.13400675,15 1,11.8659932 1,8 C1,4.13400675 4.13400675,1 8,1 C11.8659932,1 15,4.13400675 15,8 C15,11.8659932 11.8659932,15 8,15 Z M8,14 C11.3137085,14 14,11.3137085 14,8 C14,4.6862915 11.3137085,2 8,2 C4.6862915,2 2,4.6862915 2,8 C2,11.3137085 4.6862915,14 8,14 Z M8,10.8378378 C6.43270544,10.8378378 5.16216216,9.56729456 5.16216216,8 C5.16216216,6.43270544 6.43270544,5.16216216 8,5.16216216 C9.56729456,5.16216216 10.8378378,6.43270544 10.8378378,8 C10.8378378,9.56729456 9.56729456,10.8378378 8,10.8378378 Z"/>
</svg>
