<svg xmlns="http://www.w3.org/2000/svg" viewBox="0 0 16 16">
  <polygon points="7 1 3 5 7 5 7 1" fill="#9aa7b0" fill-opacity="0.8" fill-rule="evenodd"/>
  <path d="M13,9H6v6H3V6H8V1h5Z" fill="#9aa7b0" fill-opacity="0.8" fill-rule="evenodd"/>
  <path d="M6.7,16H8.34l.79-4.06a2.07,2.07,0,0,1,1.09-.55c.36,0,.54.24.48.61L10,16h1.69l.73-4a2.1,2.1,0,0,1,1.15-.55.47.47,0,0,1,.51.43.37.37,0,0,1,0,.18L13.31,16H15l.85-4.61A1.17,1.17,0,0,0,15,10a1.16,1.16,0,0,0-.37,0,3.33,3.33,0,0,0-2.13,1,1,1,0,0,0-1.09-1h-.06a3.24,3.24,0,0,0-2.12,1v-.84H7.85Z" fill="#40b6e0"/>
</svg>
