<svg xmlns="http://www.w3.org/2000/svg" width="16" height="16" viewBox="0 0 16 16">
  <g fill="none" fill-rule="evenodd">
    <path fill="#40B6E0" d="M7.89679817,10.016009 L6.7,15.9955594 L8.343037,15.9955594 L9.0898725,11.9915814 C9.0898725,11.9915814 9.73712963,11.4269178 10.2350197,11.4782509 C10.7329098,11.5295839 10.7329098,12.047355 10.7329098,12.047355 L10.0358637,16 L11.6796552,16 L12.4755252,11.9915814 C12.4755252,11.9915814 13.0232043,11.4269178 13.5708834,11.4782509 C14.1185625,11.5295839 14.0189845,12.0986881 14.0189845,12.0986881 L13.2721494,15.9955594 L14.9649757,15.9955594 L15.8113889,11.4313584 C15.9109669,10.7082551 15.4841627,10.0824977 14.9151867,10.016009 C14.3462108,9.94952024 13.7700395,10.0922585 13.2721494,10.4046974 C12.7742593,10.7171363 12.4755252,11.1233601 12.4755252,11.1233601 C12.4755252,11.1233601 12.2185696,10.0824977 11.429956,10.016009 C10.6413423,9.94952024 10.2848087,10.1435915 9.93628567,10.3489237 C9.5877626,10.5542559 9.38860656,10.8153618 9.38860656,10.8153618 L9.52577354,10.016009 L7.89679817,10.016009 Z"/>
    <polygon fill="#9AA7B0" fill-opacity=".8" points="7 1 3 5 7 5"/>
    <path fill="#9AA7B0" fill-opacity=".8" d="M13,9 L6,9 L6,14.9905615 C4.05906562,14.9900109 3.05906562,14.993157 3,15 L3,6 L8,6 L8,1 L13,1 L13,9 Z"/>
  </g>
</svg>
