<svg xmlns="http://www.w3.org/2000/svg" viewBox="0 0 16 16">
  <path d="M15.65,12v3.57l-1.26-1.26A4,4,0,0,1,7.48,12l1.36.12a2.73,2.73,0,0,0,4.62,1.29L12.07,12ZM11.71,7.46a4,4,0,0,1,3.79,3.47l-1.35-.12A2.73,2.73,0,0,0,9.48,9.65l1.43,1.44H7.34V7.51L8.55,8.72A4,4,0,0,1,11.71,7.46Z" fill="#389fd6" fill-rule="evenodd"/>
  <path d="M5.67,3.37l-.9,5a6.73,6.73,0,0,1,2.82-2.3l.49-2.7a3,3,0,0,1,1.64-.78.66.66,0,0,1,.71.61.54.54,0,0,1,0,.25L10,5.56h.15a6.51,6.51,0,0,1,2.19.38L13,2.51a1.65,1.65,0,0,0-1.19-2,1.71,1.71,0,0,0-.55,0,4.79,4.79,0,0,0-3,1.46A1.49,1.49,0,0,0,6.75.43H6.62a4.55,4.55,0,0,0-3,1.38V.62h-2L0,9H2.32L3.44,3.28A2.73,2.73,0,0,1,5,2.51a.64.64,0,0,1,.7.59A.63.63,0,0,1,5.67,3.37Z" fill="#6e6e6e"/>
</svg>
