<svg xmlns="http://www.w3.org/2000/svg" width="16" height="16" viewBox="0 0 16 16">
  <g fill="none" fill-rule="evenodd">
    <path fill="#AFB1B3" d="M9.36217941,1.0765008 C10.0714354,0.63142435 10.8922048,0.428090411 11.7027243,0.522805146 C12.5132437,0.61751988 13.1212363,1.50892584 12.9793851,2.53900328 L12.9793851,2.53900328 L12.3485015,5.93972174 C11.6860014,5.72167962 10.9699516,5.60262689 10.222796,5.60262689 L10.02,5.606 L10.4260634,3.4896299 C10.4260634,3.4896299 10.5517171,2.77149935 9.9160574,2.62604851 L9.78773302,2.60580271 C9.10507411,2.54181822 8.42241519,3.14967082 8.26241701,3.30263373 L8.22736979,3.33705395 L7.67988335,6.09288837 C6.49257137,6.57525579 5.50695936,7.38500005 4.86730473,8.39316553 L5.74497373,3.41650478 C5.74497373,3.41650478 5.74497373,2.67892783 5.03571771,2.60580271 C4.3264617,2.53267758 3.40442888,3.33705395 3.40442888,3.33705395 L3.40442888,3.33705395 L2.34054437,9.04081365 L1.63424829e-13,9.04081365 L1.7048668,0.522805146 L4.02538004,0.522805146 L3.82998249,1.66150179 C3.82998249,1.66150179 4.11368489,1.28955047 4.6101641,0.997049972 C5.10664332,0.704549475 5.61453369,0.428090411 6.73793215,0.522805146 C7.86133061,0.61751988 8.22736979,2.10025254 8.22736979,2.10025254 C8.22736979,2.10025254 8.6529234,1.52157725 9.36217941,1.0765008 Z"/>
    <path fill="#3592C4" d="M15.6671151,11.7975717 L15.8540408,15.3643272 L14.5314405,14.1725588 C13.7900433,15.0129565 12.7050642,15.5430432 11.4962775,15.5430432 C9.50080187,15.5430432 7.842723,14.0984672 7.51074663,12.1980269 L8.87615993,12.2449578 C9.20417965,13.3860496 10.2557866,14.2208939 11.5023824,14.2208939 C12.319856,14.2208939 13.053479,13.8618879 13.5541884,13.2929387 L12.100285,11.9845013 L15.6671151,11.7975717 Z M11.4962775,7.45090202 C13.465226,7.45090202 15.1056885,8.8573258 15.4678681,10.7203707 L14.1109661,10.6735064 C13.7642059,9.56267007 12.7274504,8.75641118 11.5023824,8.75641118 C10.6489016,8.75641118 9.88682079,9.1477398 9.38578063,9.76075689 L10.8923707,11.1172416 L7.32554064,11.3041713 L7.1386149,7.73741573 L8.40878629,8.88189078 C9.15095746,8.00651073 10.2587332,7.45090202 11.4962775,7.45090202 Z" transform="rotate(3 11.496 11.497)"/>
  </g>
</svg>
