<svg xmlns="http://www.w3.org/2000/svg" viewBox="0 0 16 16">
  <path d="M6,15a5.28,5.28,0,0,1-5-5V8c0-1.92.9-4,2-4V6c-.43,0-1,.58-1,2v2a4.55,4.55,0,0,0,4,4ZM3,6V4a.84.84,0,0,1,.47-.76l.31-.16a.83.83,0,0,1,.72,0V6.92a.83.83,0,0,1-.72,0l-.31-.16A.84.84,0,0,1,3,6ZM7.14,1H11V9H7.14A2.29,2.29,0,0,1,5,6.6V3.4A2.29,2.29,0,0,1,7.14,1ZM11.5,8V7H15V8Zm0-5V2H15V3Z" fill="#9aa7b0" fill-opacity="0.8" fill-rule="evenodd"/>
  <path d="M6.7,16H8.34l.79-4.06a2.07,2.07,0,0,1,1.09-.55c.36,0,.54.24.48.61L10,16h1.69l.73-4a2.1,2.1,0,0,1,1.15-.55.47.47,0,0,1,.51.43h0a.54.54,0,0,1,0,.18L13.31,16H15l.85-4.61A1.17,1.17,0,0,0,15,10a1.15,1.15,0,0,0-.37,0,3.31,3.31,0,0,0-2.13,1,1,1,0,0,0-1-1h-.15a3.24,3.24,0,0,0-2.12,1v-.84H7.85Z" fill="#40b6e0"/>
</svg>
