<svg xmlns="http://www.w3.org/2000/svg" viewBox="0 0 16 16">
  <rect width="16" height="16" fill="none"/>
  <path d="M15,4V9H6v4H1V2.05H5a2.88,2.88,0,0,1,1.72.71L8,4Z" fill="#9aa7b0" fill-opacity="0.8" fill-rule="evenodd"/>
  <path d="M6.7,16H8.34l.79-4.06a2.07,2.07,0,0,1,1.09-.55c.36,0,.54.24.48.61L10,16h1.69l.73-4a2.1,2.1,0,0,1,1.15-.55.37.37,0,0,1,.18,0,.42.42,0,0,1,.16.09.53.53,0,0,1,.12.14.61.61,0,0,1,.05.18.54.54,0,0,1,0,.18L13.31,16H15l.85-4.61a1.15,1.15,0,0,0-.14-.87A1.2,1.2,0,0,0,15,10a1.15,1.15,0,0,0-.37,0,3.31,3.31,0,0,0-2.13,1,1.06,1.06,0,0,0-.08-.4,1,1,0,0,0-.24-.34,1,1,0,0,0-.77-.26h-.06a3.24,3.24,0,0,0-2.12,1v-.84H7.85Z" fill="#40b6e0"/>
</svg>
