<svg xmlns="http://www.w3.org/2000/svg" width="16" height="16" viewBox="0 0 16 16">
  <g fill="none" fill-rule="evenodd">
    <path fill="#40B6E0" fill-opacity=".7" d="M14.9153714,9 L12.1187636,9 L12.5983075,6.49781345 C12.5983075,6.49781345 12.7642709,5.54930655 11.8514724,5.46375146 C10.9386739,5.37819638 10.0258753,6.31930232 10.0258753,6.31930232 L9.43032136,9.31882457 C8.57561427,9.73367969 8,10.5117257 8,11.403 L8,13 L5.95977282,13 L7.1215164,6.41225837 C7.1215164,6.41225837 7.1215164,5.54930655 6.29169956,5.46375146 C5.46188272,5.37819638 4.38312083,6.31930232 4.38312083,6.31930232 L3.138395,12.992599 L0.4,12.992599 L2.39466362,3.02668161 L5.10962257,3.02668161 L4.88101093,4.3589363 C4.88101093,4.3589363 5.21293767,3.92375991 5.79380946,3.58153957 C6.37468124,3.23931922 6.96890389,2.91586707 8.28325998,3.02668161 C9.59761606,3.13749616 10.0258753,4.87226682 10.0258753,4.87226682 C10.0258753,4.87226682 10.5237654,4.19522709 11.3535823,3.67449561 C12.1833991,3.15376414 13.1436846,2.91586707 14.0919779,3.02668161 C15.0402711,3.13749616 15.7516115,4.18042517 15.5856482,5.38559733 L14.9153714,9 Z"/>
    <path fill="#9AA7B0" d="M13,10 L13,15.625 L13,16 L12,16 L10.4246667,16 C9.638,16 9,15.193 9,14.197 L9,11.80225 C9,10.807 9.638,10 10.4246667,10 L13,10 Z M14,12 L14,11 L16,11 L16,12 L14,12 Z M14,15 L14,14 L16,14 L16,15 L14,15 Z"/>
  </g>
</svg>
