<svg xmlns="http://www.w3.org/2000/svg" width="13" height="13" viewBox="0 0 13 13">
  <path fill="#6E6E6E" fill-rule="evenodd" d="M1.70543744,2.02281278 L0,10.5436724 L2.34132826,10.5436724 L3.40556839,4.83800355 C3.40556839,4.83800355 4.32790982,4.03335795 5.03740324,4.10650755 C5.74689665,4.17965715 5.74689665,4.91748097 5.74689665,4.91748097 L4.75360587,10.5500002 L7.09600888,10.5500002 L8.2301236,4.83800355 C8.2301236,4.83800355 9.01056635,4.03335795 9.79100911,4.10650755 C10.5714519,4.17965715 10.4295532,4.99063057 10.4295532,4.99063057 L9.36531306,10.5436724 L11.7775907,10.5436724 L12.9837295,4.03968577 C13.1256282,3.00926354 12.5174321,2.11755922 11.7066413,2.02281278 C10.8958506,1.92806634 10.0748065,2.13146834 9.36531306,2.57669376 C8.65581965,3.02191918 8.2301236,3.60078817 8.2301236,3.60078817 C8.2301236,3.60078817 7.86396191,2.11755922 6.74018743,2.02281278 C5.61641295,1.92806634 5.10835258,2.20461794 4.61170719,2.49721634 C4.1150618,2.78981474 3.83126443,3.16189056 3.83126443,3.16189056 L4.02672739,2.02281278 L1.70543744,2.02281278 Z"/>
</svg>
