<!-- Copyright 2000-2024 JetBrains s.r.o. and contributors. Use of this source code is governed by the Apache 2.0 license. -->
<svg xmlns="http://www.w3.org/2000/svg" width="16" height="16" viewBox="0 0 16 16">
  <g fill="none" fill-rule="evenodd">
    <path fill="#6E6E6E" d="M13,7.52468762 C12.8355469,7.50835972 12.6687497,7.5 12.5,7.5 C9.90732595,7.5 7.77554984,9.47333865 7.52468762,12 L1,12 L1,4 L1,2 L5.60006714,2 L6.75640322,4 L13,4 L13,7.52468762 Z"/>
    <path fill="#6E6E6E" d="M15.2112097,14.6684176 C14.600017,15.3883948 13.6883279,15.8452772 12.6699287,15.8452772 C11.0263433,15.8452772 9.66069955,14.6552608 9.38760087,13.0898366 L10.420281,13.1258986 C10.6901659,14.1156164 11.5954912,14.8432237 12.6707589,14.8432237 C13.3934482,14.8432237 14.0393711,14.5145482 14.4672011,13.9985233 L13.2537838,12.9059804 L16.0266935,12.7606584 L16.1720125,15.5335101 L15.2112097,14.6684176 Z M10.1315655,10.3545881 C10.7427399,9.63659159 11.6531489,9.18116094 12.6699287,9.18116094 C14.2914999,9.18116094 15.6425252,10.3395127 15.9406969,11.8739038 L14.904618,11.8377231 C14.6157554,10.8776878 13.7249262,10.1783564 12.6707589,10.1783564 C11.947991,10.1783564 11.3020064,10.5071032 10.8741773,11.0232248 L12.0902412,12.1181506 L9.31733153,12.2634727 L9.17201253,9.49062093 L10.1315655,10.3545881 Z" transform="rotate(3 12.672 12.513)"/>
  </g>
</svg>
