<svg xmlns="http://www.w3.org/2000/svg" width="12" height="12" viewBox="0 0 12 12">
  <g fill="none" fill-rule="evenodd">
    <circle cx="4" cy="6" r="4" fill="#40B6E0" fill-opacity=".7"/>
    <path fill="#231F20" fill-opacity=".7" d="M4,8 C2.8954305,8 2,7.1045695 2,6 C2,4.8954305 2.8954305,4 4,4 C5.1045695,4 6,4.8954305 6,6 C6,7.1045695 5.1045695,8 4,8 Z M4,7 C4.55228475,7 5,6.55228475 5,6 C5,5.44771525 4.55228475,5 4,5 C3.44771525,5 3,5.44771525 3,6 C3,6.55228475 3.44771525,7 4,7 Z"/>
    <path fill="#AFB1B3" d="M9,4 L10,4 L10,6 L9,6 L9,4 Z M9,2 L9,0 L10,0 L10,2 L9,2 Z M9,8 L10,8 L10,9 L12,9 L9.5,12 L7,9 L9,9 L9,8 Z"/>
  </g>
</svg>
