<svg width="145" height="29" viewBox="0 0 145 29" fill="none" xmlns="http://www.w3.org/2000/svg">
<path d="M8.7925 0.599998H13.0645L21.4325 23H17.4325L15.5285 17.608H6.5205L4.7605 23H0.6485L8.7925 0.599998ZM14.4565 14.488L11.2245 5.496L10.8885 4.104L10.5365 5.496L7.5125 14.488H14.4565ZM27.8133 6.616V9.176C28.3999 8.23733 29.1839 7.512 30.1653 7C31.1466 6.488 32.2613 6.232 33.5093 6.232C34.9813 6.232 36.2933 6.59467 37.4453 7.32C38.6079 8.03467 39.5093 9.04267 40.1493 10.344C40.7999 11.6453 41.1253 13.1333 41.1253 14.808C41.1253 16.4827 40.7999 17.9707 40.1493 19.272C39.5093 20.5733 38.6079 21.5867 37.4453 22.312C36.2933 23.0267 34.9813 23.384 33.5093 23.384C32.2933 23.384 31.1999 23.1387 30.2292 22.648C29.2693 22.1573 28.4906 21.464 27.8933 20.568V28.152H24.1013V6.616H27.8133ZM27.8933 14.808C27.8933 15.8213 28.0906 16.7227 28.4853 17.512C28.8799 18.2907 29.4293 18.8987 30.1333 19.336C30.8373 19.7627 31.6426 19.976 32.5493 19.976C33.4559 19.976 34.2559 19.7627 34.9493 19.336C35.6533 18.8987 36.1973 18.2907 36.5813 17.512C36.9759 16.7227 37.1733 15.8213 37.1733 14.808C37.1733 13.7947 36.9759 12.8987 36.5813 12.12C36.1973 11.3307 35.6533 10.7227 34.9493 10.296C34.2559 9.85867 33.4559 9.64 32.5493 9.64C31.6426 9.64 30.8373 9.85867 30.1333 10.296C29.4293 10.7227 28.8799 11.3307 28.4853 12.12C28.0906 12.8987 27.8933 13.7947 27.8933 14.808ZM48.282 6.616V9.176C48.8687 8.23733 49.6527 7.512 50.634 7C51.6153 6.488 52.73 6.232 53.978 6.232C55.45 6.232 56.762 6.59467 57.914 7.32C59.0767 8.03467 59.978 9.04267 60.618 10.344C61.2687 11.6453 61.594 13.1333 61.594 14.808C61.594 16.4827 61.2687 17.9707 60.618 19.272C59.978 20.5733 59.0767 21.5867 57.914 22.312C56.762 23.0267 55.45 23.384 53.978 23.384C52.762 23.384 51.6687 23.1387 50.698 22.648C49.738 22.1573 48.9593 21.464 48.362 20.568V28.152H44.57V6.616H48.282ZM48.362 14.808C48.362 15.8213 48.5593 16.7227 48.954 17.512C49.3487 18.2907 49.898 18.8987 50.602 19.336C51.306 19.7627 52.1113 19.976 53.018 19.976C53.9247 19.976 54.7247 19.7627 55.418 19.336C56.122 18.8987 56.666 18.2907 57.05 17.512C57.4447 16.7227 57.642 15.8213 57.642 14.808C57.642 13.7947 57.4447 12.8987 57.05 12.12C56.666 11.3307 56.122 10.7227 55.418 10.296C54.7247 9.85867 53.9247 9.64 53.018 9.64C52.1113 9.64 51.306 9.85867 50.602 10.296C49.898 10.7227 49.3487 11.3307 48.954 12.12C48.5593 12.8987 48.362 13.7947 48.362 14.808ZM75.4068 23.384C73.2841 23.384 71.3694 22.8827 69.6628 21.88C67.9668 20.8773 66.6334 19.496 65.6628 17.736C64.6921 15.9653 64.2068 13.9867 64.2068 11.8C64.2068 9.61333 64.6921 7.64 65.6628 5.88C66.6334 4.10933 67.9668 2.72267 69.6628 1.72C71.3694 0.717333 73.2841 0.216 75.4068 0.216C77.1988 0.216 78.8574 0.594666 80.3828 1.352C81.9188 2.09867 83.1614 3.10667 84.1108 4.376C85.0708 5.63467 85.6254 6.99467 85.7748 8.456H81.9028C81.7108 7.64533 81.3001 6.88267 80.6708 6.168C80.0521 5.45333 79.2788 4.88267 78.3508 4.456C77.4228 4.01867 76.4361 3.8 75.3908 3.8C74.0254 3.8 72.7988 4.14133 71.7108 4.824C70.6228 5.50667 69.7694 6.456 69.1508 7.672C68.5428 8.888 68.2388 10.264 68.2388 11.8C68.2388 13.336 68.5428 14.712 69.1508 15.928C69.7694 17.144 70.6228 18.0933 71.7108 18.776C72.7988 19.4587 74.0254 19.8 75.3908 19.8C76.4361 19.8 77.4228 19.5867 78.3508 19.16C79.2788 18.7333 80.0521 18.168 80.6708 17.464C81.3001 16.7493 81.7108 15.992 81.9028 15.192H85.7748C85.6254 16.6427 85.0708 17.9973 84.1108 19.256C83.1614 20.504 81.9188 21.5067 80.3828 22.264C78.8574 23.0107 77.1988 23.384 75.4068 23.384ZM96.9635 23.384C95.3315 23.384 93.8595 23.016 92.5475 22.28C91.2355 21.544 90.2008 20.5253 89.4435 19.224C88.6968 17.9227 88.3235 16.4507 88.3235 14.808C88.3235 13.1653 88.6968 11.6933 89.4435 10.392C90.2008 9.09067 91.2355 8.072 92.5475 7.336C93.8702 6.6 95.3475 6.232 96.9795 6.232C98.6115 6.232 100.084 6.6 101.396 7.336C102.708 8.072 103.737 9.09067 104.484 10.392C105.23 11.6933 105.604 13.1653 105.604 14.808C105.604 16.4507 105.23 17.9227 104.484 19.224C103.737 20.5253 102.708 21.544 101.396 22.28C100.084 23.016 98.6062 23.384 96.9635 23.384ZM92.2755 14.808C92.2755 15.8213 92.4782 16.7173 92.8835 17.496C93.2995 18.2747 93.8648 18.8827 94.5795 19.32C95.2942 19.7467 96.0995 19.96 96.9955 19.96C97.8808 19.96 98.6755 19.7467 99.3795 19.32C100.094 18.8827 100.649 18.2747 101.044 17.496C101.449 16.7173 101.652 15.8213 101.652 14.808C101.652 13.7947 101.449 12.8987 101.044 12.12C100.638 11.3307 100.078 10.7227 99.3635 10.296C98.6595 9.85867 97.8648 9.64 96.9795 9.64C96.0942 9.64 95.2942 9.85867 94.5795 10.296C93.8648 10.7227 93.2995 11.3307 92.8835 12.12C92.4782 12.8987 92.2755 13.7947 92.2755 14.808ZM121.086 20.616C120.489 21.5013 119.71 22.184 118.75 22.664C117.79 23.144 116.707 23.384 115.502 23.384C114.03 23.384 112.713 23.0267 111.55 22.312C110.398 21.5867 109.497 20.5733 108.846 19.272C108.206 17.9707 107.886 16.4827 107.886 14.808C107.886 13.1333 108.206 11.6453 108.846 10.344C109.497 9.04267 110.398 8.03467 111.55 7.32C112.713 6.59467 114.03 6.232 115.502 6.232C116.707 6.232 117.79 6.472 118.75 6.952C119.71 7.432 120.489 8.11467 121.086 9V0.599998H124.878V23H121.086V20.616ZM111.838 14.808C111.838 15.8213 112.03 16.7227 112.414 17.512C112.809 18.2907 113.353 18.8987 114.046 19.336C114.75 19.7627 115.555 19.976 116.462 19.976C117.305 19.976 118.057 19.7893 118.718 19.416C119.39 19.0427 119.929 18.52 120.334 17.848C120.75 17.1653 121.001 16.376 121.086 15.48V14.136C121.001 13.24 120.75 12.456 120.334 11.784C119.929 11.1013 119.39 10.5733 118.718 10.2C118.057 9.82667 117.305 9.64 116.462 9.64C115.555 9.64 114.75 9.85867 114.046 10.296C113.353 10.7227 112.809 11.3307 112.414 12.12C112.03 12.8987 111.838 13.7947 111.838 14.808ZM136.488 23.384C134.888 23.384 133.448 23.016 132.168 22.28C130.899 21.544 129.907 20.5253 129.192 19.224C128.477 17.912 128.12 16.4347 128.12 14.792C128.12 13.1707 128.483 11.7093 129.208 10.408C129.933 9.10667 130.931 8.088 132.2 7.352C133.48 6.60533 134.909 6.232 136.488 6.232C138.109 6.232 139.528 6.6 140.744 7.336C141.971 8.072 142.915 9.09067 143.576 10.392C144.237 11.6827 144.568 13.1493 144.568 14.792V15.832H132.072C132.179 16.6853 132.44 17.4373 132.856 18.088C133.272 18.7387 133.805 19.2453 134.456 19.608C135.107 19.96 135.832 20.136 136.632 20.136C137.571 20.136 138.365 19.9973 139.016 19.72C139.667 19.4427 140.168 19.0427 140.52 18.52H144.28C144.109 19.32 143.688 20.0933 143.016 20.84C142.344 21.5867 141.448 22.2 140.328 22.68C139.208 23.1493 137.928 23.384 136.488 23.384ZM140.664 13.192C140.472 12.0187 140.019 11.0907 139.304 10.408C138.6 9.72533 137.667 9.384 136.504 9.384C135.352 9.384 134.381 9.72533 133.592 10.408C132.813 11.0907 132.317 12.0187 132.104 13.192H140.664Z" fill="black"/>
</svg>
