<svg width="77" height="29" viewBox="0 0 77 29" fill="none" xmlns="http://www.w3.org/2000/svg">
<path d="M8.51125 0.599998H12.7833L21.1513 23H17.1513L15.2473 17.608H6.23925L4.47925 23H0.36725L8.51125 0.599998ZM14.1753 14.488L10.9433 5.496L10.6073 4.104L10.2553 5.496L7.23125 14.488H14.1753ZM39.2225 28.152H35.4305V20.568C34.8332 21.464 34.0492 22.1573 33.0785 22.648C32.1185 23.1387 31.0305 23.384 29.8145 23.384C28.3425 23.384 27.0252 23.0267 25.8625 22.312C24.7105 21.5867 23.8092 20.5733 23.1585 19.272C22.5185 17.9707 22.1985 16.4827 22.1985 14.808C22.1985 13.1333 22.5185 11.6453 23.1585 10.344C23.8092 9.04267 24.7105 8.03467 25.8625 7.32C27.0252 6.59467 28.3425 6.232 29.8145 6.232C31.0625 6.232 32.1772 6.488 33.1585 7C34.1398 7.512 34.9238 8.23733 35.5105 9.176V6.616H39.2225V28.152ZM26.1505 14.808C26.1505 15.8213 26.3425 16.7227 26.7265 17.512C27.1212 18.2907 27.6652 18.8987 28.3585 19.336C29.0625 19.7627 29.8678 19.976 30.7745 19.976C31.6812 19.976 32.4865 19.7627 33.1905 19.336C33.8945 18.8987 34.4438 18.2907 34.8385 17.512C35.2332 16.7227 35.4305 15.8213 35.4305 14.808C35.4305 13.7947 35.2332 12.8987 34.8385 12.12C34.4438 11.3307 33.8945 10.7227 33.1905 10.296C32.4865 9.85867 31.6812 9.64 30.7745 9.64C29.8678 9.64 29.0625 9.85867 28.3585 10.296C27.6652 10.7227 27.1212 11.3307 26.7265 12.12C26.3425 12.8987 26.1505 13.7947 26.1505 14.808ZM58.063 23H54.367V20.648C53.8337 21.5333 53.1297 22.2107 52.255 22.68C51.391 23.1493 50.3937 23.384 49.263 23.384C48.0897 23.384 47.0497 23.128 46.143 22.616C45.247 22.104 44.5483 21.3627 44.047 20.392C43.5457 19.4213 43.295 18.264 43.295 16.92V6.616H47.103V16.344C47.103 17.5067 47.4017 18.4133 47.999 19.064C48.607 19.7147 49.439 20.04 50.495 20.04C51.2417 20.04 51.8977 19.8747 52.463 19.544C53.039 19.2133 53.4817 18.7493 53.791 18.152C54.111 17.5547 54.271 16.872 54.271 16.104V6.616H58.063V23ZM69.239 6.232C70.5723 6.232 71.751 6.472 72.775 6.952C73.799 7.42133 74.5937 8.104 75.159 9C75.7243 9.88533 76.007 10.936 76.007 12.152V23H72.327V20.616C71.815 21.512 71.1163 22.2 70.231 22.68C69.3563 23.1493 68.3217 23.384 67.127 23.384C66.071 23.384 65.1217 23.1867 64.279 22.792C63.447 22.3867 62.7963 21.8267 62.327 21.112C61.8577 20.3867 61.623 19.5653 61.623 18.648C61.623 17.7733 61.847 16.968 62.295 16.232C62.7537 15.4853 63.3883 14.8773 64.199 14.408C65.0097 13.9387 65.9217 13.6507 66.935 13.544L71.207 13.096C71.5377 13.064 71.799 12.9467 71.991 12.744C72.183 12.5307 72.279 12.2213 72.279 11.816C72.2683 11.0373 71.975 10.408 71.399 9.928C70.823 9.448 70.071 9.208 69.143 9.208C68.5457 9.208 67.9963 9.31467 67.495 9.528C67.0043 9.73067 66.6097 10.008 66.311 10.36C66.0123 10.712 65.8363 11.1013 65.783 11.528H62.023C62.1297 10.504 62.5083 9.592 63.159 8.792C63.8097 7.992 64.663 7.368 65.719 6.92C66.775 6.46133 67.9483 6.232 69.239 6.232ZM65.495 18.216C65.495 18.8987 65.7617 19.4533 66.295 19.88C66.8283 20.3067 67.5163 20.52 68.359 20.52C69.127 20.52 69.8043 20.3653 70.391 20.056C70.9883 19.7467 71.4523 19.32 71.783 18.776C72.1137 18.2213 72.279 17.5867 72.279 16.872V15.416L67.847 15.928C67.143 16.0027 66.5723 16.2427 66.135 16.648C65.7083 17.0533 65.495 17.576 65.495 18.216Z" fill="black"/>
</svg>
