<svg width="227" height="24" viewBox="0 0 227 24" fill="none" xmlns="http://www.w3.org/2000/svg">
<path d="M8.90188 0.599998H13.1739L21.5419 23H17.5419L15.6379 17.608H6.62988L4.86988 23H0.757875L8.90188 0.599998ZM14.5659 14.488L11.3339 5.496L10.9979 4.104L10.6459 5.496L7.62188 14.488H14.5659ZM24.2106 6.616H27.9066V8.968C28.44 8.08267 29.1386 7.40533 30.0026 6.936C30.8773 6.46667 31.88 6.232 33.0106 6.232C34.184 6.232 35.2186 6.488 36.1146 7C37.0213 7.512 37.7253 8.25333 38.2266 9.224C38.728 10.1947 38.9786 11.352 38.9786 12.696V23H35.1706V13.272C35.1706 12.1093 34.8666 11.2027 34.2586 10.552C33.6613 9.90133 32.8346 9.576 31.7786 9.576C31.032 9.576 30.3706 9.74133 29.7946 10.072C29.2293 10.4027 28.7866 10.8667 28.4666 11.464C28.1573 12.0613 28.0026 12.744 28.0026 13.512V23H24.2106V6.616ZM55.2266 20.616C54.6293 21.5013 53.8506 22.184 52.8906 22.664C51.9306 23.144 50.848 23.384 49.6426 23.384C48.1706 23.384 46.8533 23.0267 45.6906 22.312C44.5386 21.5867 43.6373 20.5733 42.9866 19.272C42.3466 17.9707 42.0266 16.4827 42.0266 14.808C42.0266 13.1333 42.3466 11.6453 42.9866 10.344C43.6373 9.04267 44.5386 8.03467 45.6906 7.32C46.8533 6.59467 48.1706 6.232 49.6426 6.232C50.848 6.232 51.9306 6.472 52.8906 6.952C53.8506 7.432 54.6293 8.11467 55.2266 9V0.599998H59.0186V23H55.2266V20.616ZM45.9786 14.808C45.9786 15.8213 46.1706 16.7227 46.5546 17.512C46.9493 18.2907 47.4933 18.8987 48.1866 19.336C48.8906 19.7627 49.696 19.976 50.6026 19.976C51.4453 19.976 52.1973 19.7893 52.8586 19.416C53.5306 19.0427 54.0693 18.52 54.4746 17.848C54.8906 17.1653 55.1413 16.376 55.2266 15.48V14.136C55.1413 13.24 54.8906 12.456 54.4746 11.784C54.0693 11.1013 53.5306 10.5733 52.8586 10.2C52.1973 9.82667 51.4453 9.64 50.6026 9.64C49.696 9.64 48.8906 9.85867 48.1866 10.296C47.4933 10.7227 46.9493 11.3307 46.5546 12.12C46.1706 12.8987 45.9786 13.7947 45.9786 14.808ZM63.4606 6.616H67.2366V9.08C67.7593 8.248 68.41 7.61333 69.1886 7.176C69.9673 6.728 70.858 6.504 71.8606 6.504H72.4686V10.344H71.3806C70.1113 10.3333 69.1086 10.6693 68.3726 11.352C67.6366 12.0347 67.2686 12.968 67.2686 14.152V23H63.4606V6.616ZM82.6354 23.384C81.0034 23.384 79.5314 23.016 78.2194 22.28C76.9074 21.544 75.8727 20.5253 75.1154 19.224C74.3687 17.9227 73.9954 16.4507 73.9954 14.808C73.9954 13.1653 74.3687 11.6933 75.1154 10.392C75.8727 9.09067 76.9074 8.072 78.2194 7.336C79.542 6.6 81.0194 6.232 82.6514 6.232C84.2834 6.232 85.7554 6.6 87.0674 7.336C88.3794 8.072 89.4087 9.09067 90.1554 10.392C90.902 11.6933 91.2754 13.1653 91.2754 14.808C91.2754 16.4507 90.902 17.9227 90.1554 19.224C89.4087 20.5253 88.3794 21.544 87.0674 22.28C85.7554 23.016 84.278 23.384 82.6354 23.384ZM77.9474 14.808C77.9474 15.8213 78.15 16.7173 78.5554 17.496C78.9714 18.2747 79.5367 18.8827 80.2514 19.32C80.966 19.7467 81.7714 19.96 82.6674 19.96C83.5527 19.96 84.3474 19.7467 85.0514 19.32C85.766 18.8827 86.3207 18.2747 86.7154 17.496C87.1207 16.7173 87.3234 15.8213 87.3234 14.808C87.3234 13.7947 87.1207 12.8987 86.7154 12.12C86.31 11.3307 85.75 10.7227 85.0354 10.296C84.3314 9.85867 83.5367 9.64 82.6514 9.64C81.766 9.64 80.966 9.85867 80.2514 10.296C79.5367 10.7227 78.9714 11.3307 78.5554 12.12C78.15 12.8987 77.9474 13.7947 77.9474 14.808ZM94.7419 6.616H98.5499V23H94.7419V6.616ZM98.6939 0.599998V4.216H94.5659V0.599998H98.6939ZM115.195 20.616C114.598 21.5013 113.819 22.184 112.859 22.664C111.899 23.144 110.817 23.384 109.611 23.384C108.139 23.384 106.822 23.0267 105.659 22.312C104.507 21.5867 103.606 20.5733 102.955 19.272C102.315 17.9707 101.995 16.4827 101.995 14.808C101.995 13.1333 102.315 11.6453 102.955 10.344C103.606 9.04267 104.507 8.03467 105.659 7.32C106.822 6.59467 108.139 6.232 109.611 6.232C110.817 6.232 111.899 6.472 112.859 6.952C113.819 7.432 114.598 8.11467 115.195 9V0.599998H118.987V23H115.195V20.616ZM105.947 14.808C105.947 15.8213 106.139 16.7227 106.523 17.512C106.918 18.2907 107.462 18.8987 108.155 19.336C108.859 19.7627 109.665 19.976 110.571 19.976C111.414 19.976 112.166 19.7893 112.827 19.416C113.499 19.0427 114.038 18.52 114.443 17.848C114.859 17.1653 115.11 16.376 115.195 15.48V14.136C115.11 13.24 114.859 12.456 114.443 11.784C114.038 11.1013 113.499 10.5733 112.827 10.2C112.166 9.82667 111.414 9.64 110.571 9.64C109.665 9.64 108.859 9.85867 108.155 10.296C107.462 10.7227 106.918 11.3307 106.523 12.12C106.139 12.8987 105.947 13.7947 105.947 14.808ZM138.007 23.384C136.407 23.384 134.989 23.096 133.751 22.52C132.514 21.9333 131.543 21.1173 130.839 20.072C130.146 19.016 129.794 17.8107 129.783 16.456H133.767C133.767 17.1493 133.949 17.7627 134.311 18.296C134.674 18.8293 135.175 19.2453 135.815 19.544C136.466 19.8427 137.213 19.992 138.055 19.992C138.877 19.992 139.597 19.8587 140.215 19.592C140.834 19.3147 141.309 18.936 141.639 18.456C141.981 17.9653 142.151 17.4 142.151 16.76C142.151 15.96 141.906 15.272 141.415 14.696C140.935 14.12 140.295 13.7627 139.495 13.624L135.655 12.984C134.578 12.8027 133.639 12.424 132.839 11.848C132.039 11.2613 131.421 10.5307 130.983 9.656C130.557 8.78133 130.343 7.82133 130.343 6.776C130.343 5.51733 130.669 4.392 131.319 3.4C131.97 2.39733 132.871 1.61867 134.023 1.064C135.186 0.498666 136.503 0.216 137.975 0.216C139.479 0.216 140.813 0.488 141.975 1.032C143.149 1.576 144.061 2.33867 144.711 3.32C145.362 4.30133 145.693 5.42133 145.703 6.68H141.735C141.735 6.08267 141.581 5.55467 141.271 5.096C140.962 4.62667 140.525 4.264 139.959 4.008C139.405 3.74133 138.759 3.608 138.023 3.608C137.298 3.608 136.653 3.736 136.087 3.992C135.533 4.23733 135.101 4.58933 134.791 5.048C134.482 5.496 134.327 6.01333 134.327 6.6C134.327 7.29333 134.551 7.896 134.999 8.408C135.447 8.90933 136.039 9.224 136.775 9.352L140.503 9.96C141.613 10.1413 142.594 10.552 143.447 11.192C144.311 11.832 144.978 12.6213 145.447 13.56C145.927 14.4987 146.167 15.5013 146.167 16.568C146.167 17.8587 145.821 19.0213 145.127 20.056C144.445 21.0907 143.485 21.9067 142.247 22.504C141.01 23.0907 139.597 23.384 138.007 23.384ZM155.83 23C154.956 23 154.166 22.8133 153.462 22.44C152.769 22.0667 152.225 21.5493 151.83 20.888C151.446 20.2267 151.254 19.4747 151.254 18.632L151.238 9.896H148.358L148.374 6.616H150.166C150.572 6.616 150.897 6.49333 151.142 6.248C151.388 5.992 151.51 5.66667 151.51 5.272V2.632H155.046V6.616H158.982L158.966 9.896H155.03L155.046 18.168C155.046 18.616 155.19 18.9893 155.478 19.288C155.777 19.576 156.15 19.72 156.598 19.72H158.966V23H155.83ZM177.016 23H173.32V20.648C172.787 21.5333 172.083 22.2107 171.208 22.68C170.344 23.1493 169.347 23.384 168.216 23.384C167.043 23.384 166.003 23.128 165.096 22.616C164.2 22.104 163.501 21.3627 163 20.392C162.499 19.4213 162.248 18.264 162.248 16.92V6.616H166.056V16.344C166.056 17.5067 166.355 18.4133 166.952 19.064C167.56 19.7147 168.392 20.04 169.448 20.04C170.195 20.04 170.851 19.8747 171.416 19.544C171.992 19.2133 172.435 18.7493 172.744 18.152C173.064 17.5547 173.224 16.872 173.224 16.104V6.616H177.016V23ZM193.664 20.616C193.067 21.5013 192.288 22.184 191.328 22.664C190.368 23.144 189.285 23.384 188.08 23.384C186.608 23.384 185.291 23.0267 184.128 22.312C182.976 21.5867 182.075 20.5733 181.424 19.272C180.784 17.9707 180.464 16.4827 180.464 14.808C180.464 13.1333 180.784 11.6453 181.424 10.344C182.075 9.04267 182.976 8.03467 184.128 7.32C185.291 6.59467 186.608 6.232 188.08 6.232C189.285 6.232 190.368 6.472 191.328 6.952C192.288 7.432 193.067 8.11467 193.664 9V0.599998H197.456V23H193.664V20.616ZM184.416 14.808C184.416 15.8213 184.608 16.7227 184.992 17.512C185.387 18.2907 185.931 18.8987 186.624 19.336C187.328 19.7627 188.133 19.976 189.04 19.976C189.883 19.976 190.635 19.7893 191.296 19.416C191.968 19.0427 192.507 18.52 192.912 17.848C193.328 17.1653 193.579 16.376 193.664 15.48V14.136C193.579 13.24 193.328 12.456 192.912 11.784C192.507 11.1013 191.968 10.5733 191.296 10.2C190.635 9.82667 189.883 9.64 189.04 9.64C188.133 9.64 187.328 9.85867 186.624 10.296C185.931 10.7227 185.387 11.3307 184.992 12.12C184.608 12.8987 184.416 13.7947 184.416 14.808ZM201.898 6.616H205.706V23H201.898V6.616ZM205.85 0.599998V4.216H201.722V0.599998H205.85ZM217.792 23.384C216.16 23.384 214.688 23.016 213.376 22.28C212.064 21.544 211.029 20.5253 210.272 19.224C209.525 17.9227 209.152 16.4507 209.152 14.808C209.152 13.1653 209.525 11.6933 210.272 10.392C211.029 9.09067 212.064 8.072 213.376 7.336C214.698 6.6 216.176 6.232 217.808 6.232C219.44 6.232 220.912 6.6 222.224 7.336C223.536 8.072 224.565 9.09067 225.312 10.392C226.058 11.6933 226.432 13.1653 226.432 14.808C226.432 16.4507 226.058 17.9227 225.312 19.224C224.565 20.5253 223.536 21.544 222.224 22.28C220.912 23.016 219.434 23.384 217.792 23.384ZM213.104 14.808C213.104 15.8213 213.306 16.7173 213.712 17.496C214.128 18.2747 214.693 18.8827 215.408 19.32C216.122 19.7467 216.928 19.96 217.824 19.96C218.709 19.96 219.504 19.7467 220.208 19.32C220.922 18.8827 221.477 18.2747 221.872 17.496C222.277 16.7173 222.48 15.8213 222.48 14.808C222.48 13.7947 222.277 12.8987 221.872 12.12C221.466 11.3307 220.906 10.7227 220.192 10.296C219.488 9.85867 218.693 9.64 217.808 9.64C216.922 9.64 216.122 9.85867 215.408 10.296C214.693 10.7227 214.128 11.3307 213.712 12.12C213.306 12.8987 213.104 13.7947 213.104 14.808Z" fill="black"/>
</svg>
