<svg width="87" height="24" viewBox="0 0 87 24" fill="none" xmlns="http://www.w3.org/2000/svg">
<path d="M11.7974 23.384C9.67471 23.384 7.76004 22.8827 6.05338 21.88C4.35738 20.8773 3.02404 19.496 2.05338 17.736C1.08271 15.9653 0.597375 13.9867 0.597375 11.8C0.597375 9.61333 1.08271 7.64 2.05338 5.88C3.02404 4.10933 4.35738 2.72267 6.05338 1.72C7.76004 0.717333 9.67471 0.216 11.7974 0.216C13.5894 0.216 15.248 0.594666 16.7734 1.352C18.3094 2.09867 19.552 3.10667 20.5014 4.376C21.4614 5.63467 22.016 6.99467 22.1654 8.456H18.2934C18.1014 7.64533 17.6907 6.88267 17.0614 6.168C16.4427 5.45333 15.6694 4.88267 14.7414 4.456C13.8134 4.01867 12.8267 3.8 11.7814 3.8C10.416 3.8 9.18938 4.14133 8.10138 4.824C7.01338 5.50667 6.16004 6.456 5.54138 7.672C4.93338 8.888 4.62938 10.264 4.62938 11.8C4.62938 13.336 4.93338 14.712 5.54138 15.928C6.16004 17.144 7.01338 18.0933 8.10138 18.776C9.18938 19.4587 10.416 19.8 11.7814 19.8C12.8267 19.8 13.8134 19.5867 14.7414 19.16C15.6694 18.7333 16.4427 18.168 17.0614 17.464C17.6907 16.7493 18.1014 15.992 18.2934 15.192H22.1654C22.016 16.6427 21.4614 17.9973 20.5014 19.256C19.552 20.504 18.3094 21.5067 16.7734 22.264C15.248 23.0107 13.5894 23.384 11.7974 23.384ZM30.3301 0.599998V19.336H41.1781V23H26.4261V0.599998H30.3301ZM44.2106 6.616H48.0186V23H44.2106V6.616ZM48.1626 0.599998V4.216H44.0346V0.599998H48.1626ZM60.1041 23.384C58.4721 23.384 57.0001 23.016 55.6881 22.28C54.3761 21.544 53.3415 20.5253 52.5841 19.224C51.8375 17.9227 51.4641 16.4507 51.4641 14.808C51.4641 13.1653 51.8375 11.6933 52.5841 10.392C53.3415 9.09067 54.3761 8.072 55.6881 7.336C57.0108 6.6 58.4881 6.232 60.1201 6.232C61.7521 6.232 63.2241 6.6 64.5361 7.336C65.8481 8.072 66.8775 9.09067 67.6241 10.392C68.3708 11.6933 68.7441 13.1653 68.7441 14.808C68.7441 16.4507 68.3708 17.9227 67.6241 19.224C66.8775 20.5253 65.8481 21.544 64.5361 22.28C63.2241 23.016 61.7468 23.384 60.1041 23.384ZM55.4161 14.808C55.4161 15.8213 55.6188 16.7173 56.0241 17.496C56.4401 18.2747 57.0055 18.8827 57.7201 19.32C58.4348 19.7467 59.2401 19.96 60.1361 19.96C61.0215 19.96 61.8161 19.7467 62.5201 19.32C63.2348 18.8827 63.7895 18.2747 64.1841 17.496C64.5895 16.7173 64.7921 15.8213 64.7921 14.808C64.7921 13.7947 64.5895 12.8987 64.1841 12.12C63.7788 11.3307 63.2188 10.7227 62.5041 10.296C61.8001 9.85867 61.0055 9.64 60.1201 9.64C59.2348 9.64 58.4348 9.85867 57.7201 10.296C57.0055 10.7227 56.4401 11.3307 56.0241 12.12C55.6188 12.8987 55.4161 13.7947 55.4161 14.808ZM72.2106 6.616H75.9066V8.968C76.44 8.08267 77.1386 7.40533 78.0026 6.936C78.8773 6.46667 79.88 6.232 81.0106 6.232C82.184 6.232 83.2186 6.488 84.1146 7C85.0213 7.512 85.7253 8.25333 86.2266 9.224C86.728 10.1947 86.9786 11.352 86.9786 12.696V23H83.1706V13.272C83.1706 12.1093 82.8666 11.2027 82.2586 10.552C81.6613 9.90133 80.8346 9.576 79.7786 9.576C79.032 9.576 78.3706 9.74133 77.7946 10.072C77.2293 10.4027 76.7866 10.8667 76.4666 11.464C76.1573 12.0613 76.0026 12.744 76.0026 13.512V23H72.2106V6.616Z" fill="black"/>
</svg>
