<svg width="140" height="29" viewBox="0 0 140 29" fill="none" xmlns="http://www.w3.org/2000/svg">
<path d="M0.50425 0.599998H8.88825C11.0216 0.599998 12.9149 1.06933 14.5683 2.008C16.2323 2.94667 17.5229 4.264 18.4403 5.96C19.3576 7.656 19.8163 9.60267 19.8163 11.8C19.8163 13.9973 19.3576 15.944 18.4403 17.64C17.5229 19.336 16.2323 20.6533 14.5683 21.592C12.9149 22.5307 11.0216 23 8.88825 23H0.50425V0.599998ZM8.85625 19.544C10.2536 19.544 11.4749 19.2293 12.5203 18.6C13.5656 17.96 14.3763 17.0587 14.9523 15.896C15.5283 14.7227 15.8163 13.3573 15.8163 11.8C15.8163 10.2427 15.5283 8.88267 14.9523 7.72C14.3763 6.54667 13.5656 5.64533 12.5203 5.016C11.4749 4.376 10.2536 4.056 8.85625 4.056H4.40825V19.544H8.85625ZM39.3612 6.616V23H35.6493V20.568C35.0519 21.464 34.2679 22.1573 33.2973 22.648C32.3373 23.1387 31.2493 23.384 30.0333 23.384C28.5613 23.384 27.2439 23.0267 26.0813 22.312C24.9293 21.5867 24.0279 20.5733 23.3773 19.272C22.7373 17.9707 22.4173 16.4827 22.4173 14.808C22.4173 13.1333 22.7373 11.6453 23.3773 10.344C24.0279 9.04267 24.9293 8.03467 26.0813 7.32C27.2439 6.59467 28.5613 6.232 30.0333 6.232C31.2493 6.232 32.3373 6.47733 33.2973 6.968C34.2679 7.45867 35.0519 8.152 35.6493 9.048V6.616H39.3612ZM26.3693 14.808C26.3693 15.8213 26.5613 16.7227 26.9453 17.512C27.3399 18.2907 27.8839 18.8987 28.5773 19.336C29.2813 19.7627 30.0866 19.976 30.9933 19.976C31.8999 19.976 32.7053 19.7627 33.4093 19.336C34.1133 18.8987 34.6626 18.2907 35.0573 17.512C35.4519 16.7227 35.6493 15.8213 35.6493 14.808C35.6493 13.7947 35.4519 12.8987 35.0573 12.12C34.6626 11.3307 34.1133 10.7227 33.4093 10.296C32.7053 9.85867 31.8999 9.64 30.9933 9.64C30.0866 9.64 29.2813 9.85867 28.5773 10.296C27.8839 10.7227 27.3399 11.3307 26.9453 12.12C26.5613 12.8987 26.3693 13.7947 26.3693 14.808ZM49.596 23C48.7213 23 47.932 22.8133 47.228 22.44C46.5347 22.0667 45.9907 21.5493 45.596 20.888C45.212 20.2267 45.02 19.4747 45.02 18.632L45.004 9.896H42.124L42.14 6.616H43.932C44.3373 6.616 44.6627 6.49333 44.908 6.248C45.1533 5.992 45.276 5.66667 45.276 5.272V2.632H48.812V6.616H52.748L52.732 9.896H48.796L48.812 18.168C48.812 18.616 48.956 18.9893 49.244 19.288C49.5427 19.576 49.916 19.72 50.364 19.72H52.732V23H49.596ZM72.1737 6.616V23H68.4618V20.568C67.8644 21.464 67.0804 22.1573 66.1098 22.648C65.1498 23.1387 64.0618 23.384 62.8458 23.384C61.3738 23.384 60.0564 23.0267 58.8938 22.312C57.7418 21.5867 56.8404 20.5733 56.1898 19.272C55.5498 17.9707 55.2298 16.4827 55.2298 14.808C55.2298 13.1333 55.5498 11.6453 56.1898 10.344C56.8404 9.04267 57.7418 8.03467 58.8938 7.32C60.0564 6.59467 61.3738 6.232 62.8458 6.232C64.0618 6.232 65.1498 6.47733 66.1098 6.968C67.0804 7.45867 67.8644 8.152 68.4618 9.048V6.616H72.1737ZM59.1818 14.808C59.1818 15.8213 59.3738 16.7227 59.7578 17.512C60.1524 18.2907 60.6964 18.8987 61.3898 19.336C62.0938 19.7627 62.8991 19.976 63.8058 19.976C64.7124 19.976 65.5178 19.7627 66.2218 19.336C66.9258 18.8987 67.4751 18.2907 67.8698 17.512C68.2644 16.7227 68.4618 15.8213 68.4618 14.808C68.4618 13.7947 68.2644 12.8987 67.8698 12.12C67.4751 11.3307 66.9258 10.7227 66.2218 10.296C65.5178 9.85867 64.7124 9.64 63.8058 9.64C62.8991 9.64 62.0938 9.85867 61.3898 10.296C60.6964 10.7227 60.1524 11.3307 59.7578 12.12C59.3738 12.8987 59.1818 13.7947 59.1818 14.808ZM86.8085 23.384C84.7178 23.384 82.8352 22.888 81.1605 21.896C79.4858 20.8933 78.1738 19.512 77.2245 17.752C76.2752 15.9813 75.8005 13.9973 75.8005 11.8C75.8005 9.60267 76.2752 7.624 77.2245 5.864C78.1738 4.09333 79.4858 2.712 81.1605 1.72C82.8352 0.717333 84.7178 0.216 86.8085 0.216C88.5792 0.216 90.2218 0.578666 91.7365 1.304C93.2512 2.01867 94.4885 3 95.4485 4.248C96.4085 5.48533 96.9792 6.86133 97.1605 8.376H93.3045C93.1338 7.512 92.7392 6.728 92.1205 6.024C91.5018 5.30933 90.7285 4.74933 89.8005 4.344C88.8725 3.928 87.8805 3.72 86.8245 3.72C85.4698 3.72 84.2592 4.06667 83.1925 4.76C82.1258 5.44267 81.2885 6.39733 80.6805 7.624C80.0832 8.85067 79.7845 10.2427 79.7845 11.8C79.7845 13.3573 80.0832 14.7493 80.6805 15.976C81.2885 17.2027 82.1258 18.1627 83.1925 18.856C84.2698 19.5387 85.4912 19.88 86.8565 19.88C88.0405 19.88 89.1125 19.6507 90.0725 19.192C91.0432 18.7333 91.8218 18.0933 92.4085 17.272C92.9952 16.44 93.3312 15.496 93.4165 14.44H88.0885V11.256H97.2885V13.048C97.2885 15.0107 96.8352 16.7813 95.9285 18.36C95.0218 19.928 93.7738 21.16 92.1845 22.056C90.5952 22.9413 88.8032 23.384 86.8085 23.384ZM101.945 6.616H105.721V9.08C106.244 8.248 106.894 7.61333 107.673 7.176C108.452 6.728 109.342 6.504 110.345 6.504H110.953V10.344H109.865C108.596 10.3333 107.593 10.6693 106.857 11.352C106.121 12.0347 105.753 12.968 105.753 14.152V23H101.945V6.616ZM113.758 6.616H117.566V23H113.758V6.616ZM117.71 0.599998V4.216H113.582V0.599998H117.71ZM125.907 6.616V9.176C126.494 8.23733 127.278 7.512 128.259 7C129.24 6.488 130.355 6.232 131.603 6.232C133.075 6.232 134.387 6.59467 135.539 7.32C136.702 8.03467 137.603 9.04267 138.243 10.344C138.894 11.6453 139.219 13.1333 139.219 14.808C139.219 16.4827 138.894 17.9707 138.243 19.272C137.603 20.5733 136.702 21.5867 135.539 22.312C134.387 23.0267 133.075 23.384 131.603 23.384C130.387 23.384 129.294 23.1387 128.323 22.648C127.363 22.1573 126.584 21.464 125.987 20.568V28.152H122.195V6.616H125.907ZM125.987 14.808C125.987 15.8213 126.184 16.7227 126.579 17.512C126.974 18.2907 127.523 18.8987 128.227 19.336C128.931 19.7627 129.736 19.976 130.643 19.976C131.55 19.976 132.35 19.7627 133.043 19.336C133.747 18.8987 134.291 18.2907 134.675 17.512C135.07 16.7227 135.267 15.8213 135.267 14.808C135.267 13.7947 135.07 12.8987 134.675 12.12C134.291 11.3307 133.747 10.7227 133.043 10.296C132.35 9.85867 131.55 9.64 130.643 9.64C129.736 9.64 128.931 9.85867 128.227 10.296C127.523 10.7227 126.974 11.3307 126.579 12.12C126.184 12.8987 125.987 13.7947 125.987 14.808Z" fill="white"/>
</svg>
