<svg width="143" height="29" viewBox="0 0 143 29" fill="none" xmlns="http://www.w3.org/2000/svg">
<path d="M0.44175 0.599998H8.82575C10.9591 0.599998 12.8524 1.06933 14.5058 2.008C16.1698 2.94667 17.4604 4.264 18.3778 5.96C19.2951 7.656 19.7538 9.60267 19.7538 11.8C19.7538 13.9973 19.2951 15.944 18.3778 17.64C17.4604 19.336 16.1698 20.6533 14.5058 21.592C12.8524 22.5307 10.9591 23 8.82575 23H0.44175V0.599998ZM8.79375 19.544C10.1911 19.544 11.4124 19.2293 12.4578 18.6C13.5031 17.96 14.3138 17.0587 14.8898 15.896C15.4658 14.7227 15.7538 13.3573 15.7538 11.8C15.7538 10.2427 15.4658 8.88267 14.8898 7.72C14.3138 6.54667 13.5031 5.64533 12.4578 5.016C11.4124 4.376 10.1911 4.056 8.79375 4.056H4.34575V19.544H8.79375ZM30.0828 6.232C31.4161 6.232 32.5948 6.472 33.6188 6.952C34.6428 7.42133 35.4374 8.104 36.0028 9C36.5681 9.88533 36.8508 10.936 36.8508 12.152V23H33.1708V20.616C32.6588 21.512 31.9601 22.2 31.0748 22.68C30.2001 23.1493 29.1654 23.384 27.9708 23.384C26.9148 23.384 25.9654 23.1867 25.1228 22.792C24.2908 22.3867 23.6401 21.8267 23.1708 21.112C22.7014 20.3867 22.4668 19.5653 22.4668 18.648C22.4668 17.7733 22.6908 16.968 23.1388 16.232C23.5974 15.4853 24.2321 14.8773 25.0428 14.408C25.8534 13.9387 26.7654 13.6507 27.7788 13.544L32.0508 13.096C32.3814 13.064 32.6428 12.9467 32.8348 12.744C33.0268 12.5307 33.1228 12.2213 33.1228 11.816C33.1121 11.0373 32.8188 10.408 32.2428 9.928C31.6668 9.448 30.9148 9.208 29.9868 9.208C29.3894 9.208 28.8401 9.31467 28.3388 9.528C27.8481 9.73067 27.4534 10.008 27.1548 10.36C26.8561 10.712 26.6801 11.1013 26.6268 11.528H22.8668C22.9734 10.504 23.3521 9.592 24.0028 8.792C24.6534 7.992 25.5068 7.368 26.5628 6.92C27.6188 6.46133 28.7921 6.232 30.0828 6.232ZM26.3388 18.216C26.3388 18.8987 26.6054 19.4533 27.1388 19.88C27.6721 20.3067 28.3601 20.52 29.2028 20.52C29.9708 20.52 30.6481 20.3653 31.2348 20.056C31.8321 19.7467 32.2961 19.32 32.6268 18.776C32.9574 18.2213 33.1228 17.5867 33.1228 16.872V15.416L28.6908 15.928C27.9868 16.0027 27.4161 16.2427 26.9788 16.648C26.5521 17.0533 26.3388 17.576 26.3388 18.216ZM46.9085 23C46.0338 23 45.2445 22.8133 44.5405 22.44C43.8472 22.0667 43.3032 21.5493 42.9085 20.888C42.5245 20.2267 42.3325 19.4747 42.3325 18.632L42.3165 9.896H39.4365L39.4525 6.616H41.2445C41.6498 6.616 41.9752 6.49333 42.2205 6.248C42.4658 5.992 42.5885 5.66667 42.5885 5.272V2.632H46.1245V6.616H50.0605L50.0445 9.896H46.1085L46.1245 18.168C46.1245 18.616 46.2685 18.9893 46.5565 19.288C46.8552 19.576 47.2285 19.72 47.6765 19.72H50.0445V23H46.9085ZM60.2703 6.232C61.6036 6.232 62.7823 6.472 63.8063 6.952C64.8303 7.42133 65.6249 8.104 66.1903 9C66.7556 9.88533 67.0383 10.936 67.0383 12.152V23H63.3583V20.616C62.8463 21.512 62.1476 22.2 61.2623 22.68C60.3876 23.1493 59.3529 23.384 58.1583 23.384C57.1023 23.384 56.1529 23.1867 55.3103 22.792C54.4783 22.3867 53.8276 21.8267 53.3583 21.112C52.8889 20.3867 52.6543 19.5653 52.6543 18.648C52.6543 17.7733 52.8783 16.968 53.3263 16.232C53.7849 15.4853 54.4196 14.8773 55.2303 14.408C56.0409 13.9387 56.9529 13.6507 57.9663 13.544L62.2383 13.096C62.5689 13.064 62.8303 12.9467 63.0223 12.744C63.2143 12.5307 63.3103 12.2213 63.3103 11.816C63.2996 11.0373 63.0063 10.408 62.4303 9.928C61.8543 9.448 61.1023 9.208 60.1743 9.208C59.5769 9.208 59.0276 9.31467 58.5263 9.528C58.0356 9.73067 57.6409 10.008 57.3423 10.36C57.0436 10.712 56.8676 11.1013 56.8143 11.528H53.0543C53.1609 10.504 53.5396 9.592 54.1903 8.792C54.8409 7.992 55.6943 7.368 56.7503 6.92C57.8063 6.46133 58.9796 6.232 60.2703 6.232ZM56.5263 18.216C56.5263 18.8987 56.7929 19.4533 57.3263 19.88C57.8596 20.3067 58.5476 20.52 59.3903 20.52C60.1583 20.52 60.8356 20.3653 61.4223 20.056C62.0196 19.7467 62.4836 19.32 62.8143 18.776C63.1449 18.2213 63.3103 17.5867 63.3103 16.872V15.416L58.8783 15.928C58.1743 16.0027 57.6036 16.2427 57.1663 16.648C56.7396 17.0533 56.5263 17.576 56.5263 18.216ZM78.648 23.384C77.048 23.384 75.6293 23.096 74.392 22.52C73.1547 21.9333 72.184 21.1173 71.48 20.072C70.7867 19.016 70.4347 17.8107 70.424 16.456H74.408C74.408 17.1493 74.5893 17.7627 74.952 18.296C75.3147 18.8293 75.816 19.2453 76.456 19.544C77.1067 19.8427 77.8533 19.992 78.696 19.992C79.5173 19.992 80.2373 19.8587 80.856 19.592C81.4747 19.3147 81.9493 18.936 82.28 18.456C82.6213 17.9653 82.792 17.4 82.792 16.76C82.792 15.96 82.5467 15.272 82.056 14.696C81.576 14.12 80.936 13.7627 80.136 13.624L76.296 12.984C75.2187 12.8027 74.28 12.424 73.48 11.848C72.68 11.2613 72.0613 10.5307 71.624 9.656C71.1973 8.78133 70.984 7.82133 70.984 6.776C70.984 5.51733 71.3093 4.392 71.96 3.4C72.6107 2.39733 73.512 1.61867 74.664 1.064C75.8267 0.498666 77.144 0.216 78.616 0.216C80.12 0.216 81.4533 0.488 82.616 1.032C83.7893 1.576 84.7013 2.33867 85.352 3.32C86.0027 4.30133 86.3333 5.42133 86.344 6.68H82.376C82.376 6.08267 82.2213 5.55467 81.912 5.096C81.6027 4.62667 81.1653 4.264 80.6 4.008C80.0453 3.74133 79.4 3.608 78.664 3.608C77.9387 3.608 77.2933 3.736 76.728 3.992C76.1733 4.23733 75.7413 4.58933 75.432 5.048C75.1227 5.496 74.968 6.01333 74.968 6.6C74.968 7.29333 75.192 7.896 75.64 8.408C76.088 8.90933 76.68 9.224 77.416 9.352L81.144 9.96C82.2533 10.1413 83.2347 10.552 84.088 11.192C84.952 11.832 85.6187 12.6213 86.088 13.56C86.568 14.4987 86.808 15.5013 86.808 16.568C86.808 17.8587 86.4613 19.0213 85.768 20.056C85.0853 21.0907 84.1253 21.9067 82.888 22.504C81.6507 23.0907 80.2373 23.384 78.648 23.384ZM94.407 6.616V9.176C94.9937 8.23733 95.7777 7.512 96.759 7C97.7403 6.488 98.855 6.232 100.103 6.232C101.575 6.232 102.887 6.59467 104.039 7.32C105.202 8.03467 106.103 9.04267 106.743 10.344C107.394 11.6453 107.719 13.1333 107.719 14.808C107.719 16.4827 107.394 17.9707 106.743 19.272C106.103 20.5733 105.202 21.5867 104.039 22.312C102.887 23.0267 101.575 23.384 100.103 23.384C98.887 23.384 97.7937 23.1387 96.823 22.648C95.863 22.1573 95.0843 21.464 94.487 20.568V28.152H90.695V6.616H94.407ZM94.487 14.808C94.487 15.8213 94.6843 16.7227 95.079 17.512C95.4737 18.2907 96.023 18.8987 96.727 19.336C97.431 19.7627 98.2363 19.976 99.143 19.976C100.05 19.976 100.85 19.7627 101.543 19.336C102.247 18.8987 102.791 18.2907 103.175 17.512C103.57 16.7227 103.767 15.8213 103.767 14.808C103.767 13.7947 103.57 12.8987 103.175 12.12C102.791 11.3307 102.247 10.7227 101.543 10.296C100.85 9.85867 100.05 9.64 99.143 9.64C98.2363 9.64 97.431 9.85867 96.727 10.296C96.023 10.7227 95.4737 11.3307 95.079 12.12C94.6843 12.8987 94.487 13.7947 94.487 14.808ZM118.332 23.384C116.732 23.384 115.292 23.016 114.012 22.28C112.742 21.544 111.75 20.5253 111.036 19.224C110.321 17.912 109.964 16.4347 109.964 14.792C109.964 13.1707 110.326 11.7093 111.052 10.408C111.777 9.10667 112.774 8.088 114.044 7.352C115.324 6.60533 116.753 6.232 118.332 6.232C119.953 6.232 121.372 6.6 122.588 7.336C123.814 8.072 124.758 9.09067 125.42 10.392C126.081 11.6827 126.412 13.1493 126.412 14.792V15.832H113.916C114.022 16.6853 114.284 17.4373 114.7 18.088C115.116 18.7387 115.649 19.2453 116.3 19.608C116.95 19.96 117.676 20.136 118.476 20.136C119.414 20.136 120.209 19.9973 120.86 19.72C121.51 19.4427 122.012 19.0427 122.364 18.52H126.124C125.953 19.32 125.532 20.0933 124.86 20.84C124.188 21.5867 123.292 22.2 122.172 22.68C121.052 23.1493 119.772 23.384 118.332 23.384ZM122.508 13.192C122.316 12.0187 121.862 11.0907 121.148 10.408C120.444 9.72533 119.51 9.384 118.348 9.384C117.196 9.384 116.225 9.72533 115.436 10.408C114.657 11.0907 114.161 12.0187 113.948 13.192H122.508ZM129.851 0.599998H133.643V23H129.851V0.599998ZM138.289 0.599998H142.081V23H138.289V0.599998Z" fill="white"/>
</svg>
