<svg width="119" height="24" viewBox="0 0 119 24" fill="none" xmlns="http://www.w3.org/2000/svg">
<path d="M11.4491 23.384C9.35846 23.384 7.47579 22.888 5.80113 21.896C4.12646 20.8933 2.81446 19.512 1.86513 17.752C0.915792 15.9813 0.441125 13.9973 0.441125 11.8C0.441125 9.60267 0.915792 7.624 1.86513 5.864C2.81446 4.09333 4.12646 2.712 5.80113 1.72C7.47579 0.717333 9.35846 0.216 11.4491 0.216C13.2198 0.216 14.8625 0.578666 16.3771 1.304C17.8918 2.01867 19.1291 3 20.0891 4.248C21.0491 5.48533 21.6198 6.86133 21.8011 8.376H17.9451C17.7745 7.512 17.3798 6.728 16.7611 6.024C16.1425 5.30933 15.3691 4.74933 14.4411 4.344C13.5131 3.928 12.5211 3.72 11.4651 3.72C10.1105 3.72 8.89979 4.06667 7.83313 4.76C6.76646 5.44267 5.92913 6.39733 5.32113 7.624C4.72379 8.85067 4.42513 10.2427 4.42513 11.8C4.42513 13.3573 4.72379 14.7493 5.32113 15.976C5.92913 17.2027 6.76646 18.1627 7.83313 18.856C8.91046 19.5387 10.1318 19.88 11.4971 19.88C12.6811 19.88 13.7531 19.6507 14.7131 19.192C15.6838 18.7333 16.4625 18.0933 17.0491 17.272C17.6358 16.44 17.9718 15.496 18.0571 14.44H12.7291V11.256H21.9291V13.048C21.9291 15.0107 21.4758 16.7813 20.5691 18.36C19.6625 19.928 18.4145 21.16 16.8251 22.056C15.2358 22.9413 13.4438 23.384 11.4491 23.384ZM34.0416 23.384C32.4096 23.384 30.9376 23.016 29.6256 22.28C28.3136 21.544 27.279 20.5253 26.5216 19.224C25.775 17.9227 25.4016 16.4507 25.4016 14.808C25.4016 13.1653 25.775 11.6933 26.5216 10.392C27.279 9.09067 28.3136 8.072 29.6256 7.336C30.9483 6.6 32.4256 6.232 34.0576 6.232C35.6896 6.232 37.1616 6.6 38.4736 7.336C39.7856 8.072 40.815 9.09067 41.5616 10.392C42.3083 11.6933 42.6816 13.1653 42.6816 14.808C42.6816 16.4507 42.3083 17.9227 41.5616 19.224C40.815 20.5253 39.7856 21.544 38.4736 22.28C37.1616 23.016 35.6843 23.384 34.0416 23.384ZM29.3536 14.808C29.3536 15.8213 29.5563 16.7173 29.9616 17.496C30.3776 18.2747 30.943 18.8827 31.6576 19.32C32.3723 19.7467 33.1776 19.96 34.0736 19.96C34.959 19.96 35.7536 19.7467 36.4576 19.32C37.1723 18.8827 37.727 18.2747 38.1216 17.496C38.527 16.7173 38.7296 15.8213 38.7296 14.808C38.7296 13.7947 38.527 12.8987 38.1216 12.12C37.7163 11.3307 37.1563 10.7227 36.4416 10.296C35.7376 9.85867 34.943 9.64 34.0576 9.64C33.1723 9.64 32.3723 9.85867 31.6576 10.296C30.943 10.7227 30.3776 11.3307 29.9616 12.12C29.5563 12.8987 29.3536 13.7947 29.3536 14.808ZM50.5801 0.599998V19.336H61.4281V23H46.6761V0.599998H50.5801ZM79.6581 6.616V23H75.9461V20.568C75.3488 21.464 74.5648 22.1573 73.5941 22.648C72.6341 23.1387 71.5461 23.384 70.3301 23.384C68.8581 23.384 67.5408 23.0267 66.3781 22.312C65.2261 21.5867 64.3248 20.5733 63.6741 19.272C63.0341 17.9707 62.7141 16.4827 62.7141 14.808C62.7141 13.1333 63.0341 11.6453 63.6741 10.344C64.3248 9.04267 65.2261 8.03467 66.3781 7.32C67.5408 6.59467 68.8581 6.232 70.3301 6.232C71.5461 6.232 72.6341 6.47733 73.5941 6.968C74.5648 7.45867 75.3488 8.152 75.9461 9.048V6.616H79.6581ZM66.6661 14.808C66.6661 15.8213 66.8581 16.7227 67.2421 17.512C67.6368 18.2907 68.1808 18.8987 68.8741 19.336C69.5781 19.7627 70.3835 19.976 71.2901 19.976C72.1968 19.976 73.0021 19.7627 73.7061 19.336C74.4101 18.8987 74.9595 18.2907 75.3541 17.512C75.7488 16.7227 75.9461 15.8213 75.9461 14.808C75.9461 13.7947 75.7488 12.8987 75.3541 12.12C74.9595 11.3307 74.4101 10.7227 73.7061 10.296C73.0021 9.85867 72.1968 9.64 71.2901 9.64C70.3835 9.64 69.5781 9.85867 68.8741 10.296C68.1808 10.7227 67.6368 11.3307 67.2421 12.12C66.8581 12.8987 66.6661 13.7947 66.6661 14.808ZM84.1169 6.616H87.8129V8.968C88.3462 8.08267 89.0449 7.40533 89.9089 6.936C90.7835 6.46667 91.7862 6.232 92.9169 6.232C94.0902 6.232 95.1249 6.488 96.0209 7C96.9275 7.512 97.6315 8.25333 98.1329 9.224C98.6342 10.1947 98.8849 11.352 98.8849 12.696V23H95.0769V13.272C95.0769 12.1093 94.7729 11.2027 94.1649 10.552C93.5675 9.90133 92.7409 9.576 91.6849 9.576C90.9382 9.576 90.2769 9.74133 89.7009 10.072C89.1355 10.4027 88.6929 10.8667 88.3729 11.464C88.0635 12.0613 87.9089 12.744 87.9089 13.512V23H84.1169V6.616ZM115.133 20.616C114.536 21.5013 113.757 22.184 112.797 22.664C111.837 23.144 110.754 23.384 109.549 23.384C108.077 23.384 106.76 23.0267 105.597 22.312C104.445 21.5867 103.544 20.5733 102.893 19.272C102.253 17.9707 101.933 16.4827 101.933 14.808C101.933 13.1333 102.253 11.6453 102.893 10.344C103.544 9.04267 104.445 8.03467 105.597 7.32C106.76 6.59467 108.077 6.232 109.549 6.232C110.754 6.232 111.837 6.472 112.797 6.952C113.757 7.432 114.536 8.11467 115.133 9V0.599998H118.925V23H115.133V20.616ZM105.885 14.808C105.885 15.8213 106.077 16.7227 106.461 17.512C106.856 18.2907 107.4 18.8987 108.093 19.336C108.797 19.7627 109.602 19.976 110.509 19.976C111.352 19.976 112.104 19.7893 112.765 19.416C113.437 19.0427 113.976 18.52 114.381 17.848C114.797 17.1653 115.048 16.376 115.133 15.48V14.136C115.048 13.24 114.797 12.456 114.381 11.784C113.976 11.1013 113.437 10.5733 112.765 10.2C112.104 9.82667 111.352 9.64 110.509 9.64C109.602 9.64 108.797 9.85867 108.093 10.296C107.4 10.7227 106.856 11.3307 106.461 12.12C106.077 12.8987 105.885 13.7947 105.885 14.808Z" fill="white"/>
</svg>
