<svg width="291" height="67" viewBox="0 0 291 67" fill="none" xmlns="http://www.w3.org/2000/svg">
<path d="M60.2074 1.6H64.2394V24H60.2074V1.6ZM69.3981 7.616H73.0941V9.968C73.6275 9.08267 74.3261 8.40533 75.1901 7.936C76.0648 7.46667 77.0675 7.232 78.1981 7.232C79.3715 7.232 80.4061 7.488 81.3021 8C82.2088 8.512 82.9128 9.25333 83.4141 10.224C83.9155 11.1947 84.1661 12.352 84.1661 13.696V24H80.3581V14.272C80.3581 13.1093 80.0541 12.2027 79.4461 11.552C78.8488 10.9013 78.0221 10.576 76.9661 10.576C76.2195 10.576 75.5581 10.7413 74.9821 11.072C74.4168 11.4027 73.9741 11.8667 73.6541 12.464C73.3448 13.0613 73.1901 13.744 73.1901 14.512V24H69.3981V7.616ZM94.1741 24C93.2995 24 92.5101 23.8133 91.8061 23.44C91.1128 23.0667 90.5688 22.5493 90.1741 21.888C89.7901 21.2267 89.5981 20.4747 89.5981 19.632L89.5821 10.896H86.7021L86.7181 7.616H88.5101C88.9155 7.616 89.2408 7.49333 89.4861 7.248C89.7315 6.992 89.8541 6.66667 89.8541 6.272V3.632H93.3901V7.616H97.3261L97.3101 10.896H93.3741L93.3901 19.168C93.3901 19.616 93.5341 19.9893 93.8221 20.288C94.1208 20.576 94.4941 20.72 94.9421 20.72H97.3101V24H94.1741ZM108.16 24.384C106.56 24.384 105.12 24.016 103.84 23.28C102.571 22.544 101.579 21.5253 100.864 20.224C100.149 18.912 99.7919 17.4347 99.7919 15.792C99.7919 14.1707 100.155 12.7093 100.88 11.408C101.605 10.1067 102.603 9.088 103.872 8.352C105.152 7.60533 106.581 7.232 108.16 7.232C109.781 7.232 111.2 7.6 112.416 8.336C113.643 9.072 114.587 10.0907 115.248 11.392C115.909 12.6827 116.24 14.1493 116.24 15.792V16.832H103.744C103.851 17.6853 104.112 18.4373 104.528 19.088C104.944 19.7387 105.477 20.2453 106.128 20.608C106.779 20.96 107.504 21.136 108.304 21.136C109.243 21.136 110.037 20.9973 110.688 20.72C111.339 20.4427 111.84 20.0427 112.192 19.52H115.952C115.781 20.32 115.36 21.0933 114.688 21.84C114.016 22.5867 113.12 23.2 112 23.68C110.88 24.1493 109.6 24.384 108.16 24.384ZM112.336 14.192C112.144 13.0187 111.691 12.0907 110.976 11.408C110.272 10.7253 109.339 10.384 108.176 10.384C107.024 10.384 106.053 10.7253 105.264 11.408C104.485 12.0907 103.989 13.0187 103.776 14.192H112.336ZM119.679 1.6H123.471V24H119.679V1.6ZM128.117 1.6H131.909V24H128.117V1.6ZM136.378 20.416H141.002C141.813 20.416 142.528 20.2507 143.146 19.92C143.765 19.5787 144.245 19.104 144.586 18.496C144.928 17.8773 145.098 17.1733 145.098 16.384V0.671999H149.034V16.72C149.034 18.16 148.704 19.4293 148.042 20.528C147.381 21.6267 146.448 22.48 145.242 23.088C144.037 23.696 142.65 24 141.082 24H136.378V20.416ZM136.378 6.912H140.186V17.616H136.378V6.912ZM136.378 1.248H140.506V4.864H136.378V1.248ZM161.832 1.6H165.864V24H161.832V1.6ZM171.551 1.6H179.935C182.068 1.6 183.962 2.06933 185.615 3.008C187.279 3.94667 188.57 5.264 189.487 6.96C190.404 8.656 190.863 10.6027 190.863 12.8C190.863 14.9973 190.404 16.944 189.487 18.64C188.57 20.336 187.279 21.6533 185.615 22.592C183.962 23.5307 182.068 24 179.935 24H171.551V1.6ZM179.903 20.544C181.3 20.544 182.522 20.2293 183.567 19.6C184.612 18.96 185.423 18.0587 185.999 16.896C186.575 15.7227 186.863 14.3573 186.863 12.8C186.863 11.2427 186.575 9.88267 185.999 8.72C185.423 7.54667 184.612 6.64533 183.567 6.016C182.522 5.376 181.3 5.056 179.903 5.056H175.455V20.544H179.903ZM195.176 1.6H211.208V5.072H199.032V10.992H210.12V14.48H199.032V20.512H211.528V24H195.176V1.6ZM221.652 1.6H225.924L234.292 24H230.292L228.388 18.608H219.38L217.62 24H213.508L221.652 1.6ZM227.316 15.488L224.084 6.496L223.748 5.104L223.396 6.496L220.372 15.488H227.316ZM11.9224 61.384C9.79971 61.384 7.88504 60.8827 6.17838 59.88C4.48238 58.8773 3.14904 57.496 2.17838 55.736C1.20771 53.9653 0.722375 51.9867 0.722375 49.8C0.722375 47.6133 1.20771 45.64 2.17838 43.88C3.14904 42.1093 4.48238 40.7227 6.17838 39.72C7.88504 38.7173 9.79971 38.216 11.9224 38.216C13.7144 38.216 15.373 38.5947 16.8984 39.352C18.4344 40.0987 19.677 41.1067 20.6264 42.376C21.5864 43.6347 22.141 44.9947 22.2904 46.456H18.4184C18.2264 45.6453 17.8157 44.8827 17.1864 44.168C16.5677 43.4533 15.7944 42.8827 14.8664 42.456C13.9384 42.0187 12.9517 41.8 11.9064 41.8C10.541 41.8 9.31438 42.1413 8.22638 42.824C7.13838 43.5067 6.28504 44.456 5.66638 45.672C5.05838 46.888 4.75438 48.264 4.75438 49.8C4.75438 51.336 5.05838 52.712 5.66638 53.928C6.28504 55.144 7.13838 56.0933 8.22638 56.776C9.31438 57.4587 10.541 57.8 11.9064 57.8C12.9517 57.8 13.9384 57.5867 14.8664 57.16C15.7944 56.7333 16.5677 56.168 17.1864 55.464C17.8157 54.7493 18.2264 53.992 18.4184 53.192H22.2904C22.141 54.6427 21.5864 55.9973 20.6264 57.256C19.677 58.504 18.4344 59.5067 16.8984 60.264C15.373 61.0107 13.7144 61.384 11.9224 61.384ZM33.4791 61.384C31.8471 61.384 30.3751 61.016 29.0631 60.28C27.7511 59.544 26.7165 58.5253 25.9591 57.224C25.2125 55.9227 24.8391 54.4507 24.8391 52.808C24.8391 51.1653 25.2125 49.6933 25.9591 48.392C26.7165 47.0907 27.7511 46.072 29.0631 45.336C30.3858 44.6 31.8631 44.232 33.4951 44.232C35.1271 44.232 36.5991 44.6 37.9111 45.336C39.2231 46.072 40.2525 47.0907 40.9991 48.392C41.7458 49.6933 42.1191 51.1653 42.1191 52.808C42.1191 54.4507 41.7458 55.9227 40.9991 57.224C40.2525 58.5253 39.2231 59.544 37.9111 60.28C36.5991 61.016 35.1218 61.384 33.4791 61.384ZM28.7911 52.808C28.7911 53.8213 28.9938 54.7173 29.3991 55.496C29.8151 56.2747 30.3805 56.8827 31.0951 57.32C31.8098 57.7467 32.6151 57.96 33.5111 57.96C34.3965 57.96 35.1911 57.7467 35.8951 57.32C36.6098 56.8827 37.1645 56.2747 37.5591 55.496C37.9645 54.7173 38.1671 53.8213 38.1671 52.808C38.1671 51.7947 37.9645 50.8987 37.5591 50.12C37.1538 49.3307 36.5938 48.7227 35.8791 48.296C35.1751 47.8587 34.3805 47.64 33.4951 47.64C32.6098 47.64 31.8098 47.8587 31.0951 48.296C30.3805 48.7227 29.8151 49.3307 29.3991 50.12C28.9938 50.8987 28.7911 51.7947 28.7911 52.808ZM45.5856 44.616H49.2816V47.08C49.7723 46.1627 50.4283 45.4587 51.2496 44.968C52.071 44.4773 53.0256 44.232 54.1136 44.232C55.287 44.232 56.3003 44.504 57.1536 45.048C58.007 45.5813 58.6576 46.344 59.1056 47.336C59.639 46.3547 60.359 45.592 61.2656 45.048C62.1723 44.504 63.223 44.232 64.4176 44.232C65.5803 44.232 66.5936 44.4987 67.4576 45.032C68.3323 45.5547 69.0096 46.3013 69.4896 47.272C69.9696 48.2427 70.2096 49.3733 70.2096 50.664V61H66.4016V51.112C66.4016 50.0133 66.1243 49.1493 65.5696 48.52C65.0256 47.88 64.2576 47.56 63.2656 47.56C62.5616 47.56 61.943 47.72 61.4096 48.04C60.887 48.36 60.4816 48.8187 60.1936 49.416C59.9056 50.0027 59.7616 50.696 59.7616 51.496V61H56.0336V51.112C56.0336 50.0133 55.7563 49.1493 55.2016 48.52C54.647 47.88 53.879 47.56 52.8976 47.56C51.8203 47.56 50.967 47.9173 50.3376 48.632C49.7083 49.336 49.3936 50.2907 49.3936 51.496V61H45.5856V44.616ZM74.4606 44.616H78.1566V47.08C78.6473 46.1627 79.3033 45.4587 80.1246 44.968C80.946 44.4773 81.9006 44.232 82.9886 44.232C84.162 44.232 85.1753 44.504 86.0286 45.048C86.882 45.5813 87.5326 46.344 87.9806 47.336C88.514 46.3547 89.234 45.592 90.1406 45.048C91.0473 44.504 92.098 44.232 93.2926 44.232C94.4553 44.232 95.4686 44.4987 96.3326 45.032C97.2073 45.5547 97.8846 46.3013 98.3646 47.272C98.8446 48.2427 99.0846 49.3733 99.0846 50.664V61H95.2766V51.112C95.2766 50.0133 94.9993 49.1493 94.4446 48.52C93.9006 47.88 93.1326 47.56 92.1406 47.56C91.4366 47.56 90.818 47.72 90.2846 48.04C89.762 48.36 89.3566 48.8187 89.0686 49.416C88.7806 50.0027 88.6366 50.696 88.6366 51.496V61H84.9086V51.112C84.9086 50.0133 84.6313 49.1493 84.0766 48.52C83.522 47.88 82.754 47.56 81.7726 47.56C80.6953 47.56 79.842 47.9173 79.2126 48.632C78.5833 49.336 78.2686 50.2907 78.2686 51.496V61H74.4606V44.616ZM117.704 61H114.008V58.648C113.474 59.5333 112.77 60.2107 111.896 60.68C111.032 61.1493 110.034 61.384 108.904 61.384C107.73 61.384 106.69 61.128 105.784 60.616C104.888 60.104 104.189 59.3627 103.688 58.392C103.186 57.4213 102.936 56.264 102.936 54.92V44.616H106.744V54.344C106.744 55.5067 107.042 56.4133 107.64 57.064C108.248 57.7147 109.08 58.04 110.136 58.04C110.882 58.04 111.538 57.8747 112.104 57.544C112.68 57.2133 113.122 56.7493 113.432 56.152C113.752 55.5547 113.912 54.872 113.912 54.104V44.616H117.704V61ZM122.336 44.616H126.032V46.968C126.565 46.0827 127.264 45.4053 128.128 44.936C129.002 44.4667 130.005 44.232 131.136 44.232C132.309 44.232 133.344 44.488 134.24 45C135.146 45.512 135.85 46.2533 136.352 47.224C136.853 48.1947 137.104 49.352 137.104 50.696V61H133.296V51.272C133.296 50.1093 132.992 49.2027 132.384 48.552C131.786 47.9013 130.96 47.576 129.904 47.576C129.157 47.576 128.496 47.7413 127.92 48.072C127.354 48.4027 126.912 48.8667 126.592 49.464C126.282 50.0613 126.128 50.744 126.128 51.512V61H122.336V44.616ZM141.336 44.616H145.144V61H141.336V44.616ZM145.288 38.6V42.216H141.16V38.6H145.288ZM155.549 61C154.674 61 153.885 60.8133 153.181 60.44C152.488 60.0667 151.944 59.5493 151.549 58.888C151.165 58.2267 150.973 57.4747 150.973 56.632L150.957 47.896H148.077L148.093 44.616H149.885C150.29 44.616 150.616 44.4933 150.861 44.248C151.106 43.992 151.229 43.6667 151.229 43.272V40.632H154.765V44.616H158.701L158.685 47.896H154.749L154.765 56.168C154.765 56.616 154.909 56.9893 155.197 57.288C155.496 57.576 155.869 57.72 156.317 57.72H158.685V61H155.549ZM161.759 63H164.047C164.474 63 164.847 62.8827 165.167 62.648C165.498 62.424 165.743 62.12 165.903 61.736L166.687 60.04L160.383 44.616H164.335L168.575 55.624L172.463 44.616H176.319L169.519 62.104C169.039 63.352 168.378 64.3333 167.535 65.048C166.703 65.7627 165.626 66.12 164.303 66.12H161.759V63ZM186.489 38.6H202.521V42.072H190.345V47.992H201.433V51.48H190.345V57.512H202.841V61H186.489V38.6ZM218.82 58.616C218.223 59.5013 217.444 60.184 216.484 60.664C215.524 61.144 214.442 61.384 213.236 61.384C211.764 61.384 210.447 61.0267 209.284 60.312C208.132 59.5867 207.231 58.5733 206.58 57.272C205.94 55.9707 205.62 54.4827 205.62 52.808C205.62 51.1333 205.94 49.6453 206.58 48.344C207.231 47.0427 208.132 46.0347 209.284 45.32C210.447 44.5947 211.764 44.232 213.236 44.232C214.442 44.232 215.524 44.472 216.484 44.952C217.444 45.432 218.223 46.1147 218.82 47V38.6H222.612V61H218.82V58.616ZM209.572 52.808C209.572 53.8213 209.764 54.7227 210.148 55.512C210.543 56.2907 211.087 56.8987 211.78 57.336C212.484 57.7627 213.29 57.976 214.196 57.976C215.039 57.976 215.791 57.7893 216.452 57.416C217.124 57.0427 217.663 56.52 218.068 55.848C218.484 55.1653 218.735 54.376 218.82 53.48V52.136C218.735 51.24 218.484 50.456 218.068 49.784C217.663 49.1013 217.124 48.5733 216.452 48.2C215.791 47.8267 215.039 47.64 214.196 47.64C213.29 47.64 212.484 47.8587 211.78 48.296C211.087 48.7227 210.543 49.3307 210.148 50.12C209.764 50.8987 209.572 51.7947 209.572 52.808ZM227.054 44.616H230.862V61H227.054V44.616ZM231.006 38.6V42.216H226.878V38.6H231.006ZM241.268 61C240.393 61 239.604 60.8133 238.9 60.44C238.207 60.0667 237.663 59.5493 237.268 58.888C236.884 58.2267 236.692 57.4747 236.692 56.632L236.676 47.896H233.796L233.812 44.616H235.604C236.009 44.616 236.335 44.4933 236.58 44.248C236.825 43.992 236.948 43.6667 236.948 43.272V40.632H240.484V44.616H244.42L244.404 47.896H240.468L240.484 56.168C240.484 56.616 240.628 56.9893 240.916 57.288C241.215 57.576 241.588 57.72 242.036 57.72H244.404V61H241.268ZM248.086 44.616H251.894V61H248.086V44.616ZM252.038 38.6V42.216H247.91V38.6H252.038ZM263.979 61.384C262.347 61.384 260.875 61.016 259.563 60.28C258.251 59.544 257.216 58.5253 256.459 57.224C255.712 55.9227 255.339 54.4507 255.339 52.808C255.339 51.1653 255.712 49.6933 256.459 48.392C257.216 47.0907 258.251 46.072 259.563 45.336C260.886 44.6 262.363 44.232 263.995 44.232C265.627 44.232 267.099 44.6 268.411 45.336C269.723 46.072 270.752 47.0907 271.499 48.392C272.246 49.6933 272.619 51.1653 272.619 52.808C272.619 54.4507 272.246 55.9227 271.499 57.224C270.752 58.5253 269.723 59.544 268.411 60.28C267.099 61.016 265.622 61.384 263.979 61.384ZM259.291 52.808C259.291 53.8213 259.494 54.7173 259.899 55.496C260.315 56.2747 260.88 56.8827 261.595 57.32C262.31 57.7467 263.115 57.96 264.011 57.96C264.896 57.96 265.691 57.7467 266.395 57.32C267.11 56.8827 267.664 56.2747 268.059 55.496C268.464 54.7173 268.667 53.8213 268.667 52.808C268.667 51.7947 268.464 50.8987 268.059 50.12C267.654 49.3307 267.094 48.7227 266.379 48.296C265.675 47.8587 264.88 47.64 263.995 47.64C263.11 47.64 262.31 47.8587 261.595 48.296C260.88 48.7227 260.315 49.3307 259.899 50.12C259.494 50.8987 259.291 51.7947 259.291 52.808ZM276.086 44.616H279.782V46.968C280.315 46.0827 281.014 45.4053 281.878 44.936C282.752 44.4667 283.755 44.232 284.886 44.232C286.059 44.232 287.094 44.488 287.99 45C288.896 45.512 289.6 46.2533 290.102 47.224C290.603 48.1947 290.854 49.352 290.854 50.696V61H287.046V51.272C287.046 50.1093 286.742 49.2027 286.134 48.552C285.536 47.9013 284.71 47.576 283.654 47.576C282.907 47.576 282.246 47.7413 281.67 48.072C281.104 48.4027 280.662 48.8667 280.342 49.464C280.032 50.0613 279.878 50.744 279.878 51.512V61H276.086V44.616Z" fill="black"/>
</svg>
