<svg width="312" height="25" viewBox="0 0 312 25" fill="none" xmlns="http://www.w3.org/2000/svg">
<path d="M0.457375 1.6H4.48938V24H0.457375V1.6ZM9.64813 7.616H13.3441V9.968C13.8775 9.08267 14.5761 8.40533 15.4401 7.936C16.3148 7.46667 17.3175 7.232 18.4481 7.232C19.6215 7.232 20.6561 7.488 21.5521 8C22.4588 8.512 23.1628 9.25333 23.6641 10.224C24.1655 11.1947 24.4161 12.352 24.4161 13.696V24H20.6081V14.272C20.6081 13.1093 20.3041 12.2027 19.6961 11.552C19.0988 10.9013 18.2721 10.576 17.2161 10.576C16.4695 10.576 15.8081 10.7413 15.2321 11.072C14.6668 11.4027 14.2241 11.8667 13.9041 12.464C13.5948 13.0613 13.4401 13.744 13.4401 14.512V24H9.64813V7.616ZM34.4241 24C33.5495 24 32.7601 23.8133 32.0561 23.44C31.3628 23.0667 30.8188 22.5493 30.4241 21.888C30.0401 21.2267 29.8481 20.4747 29.8481 19.632L29.8321 10.896H26.9521L26.9681 7.616H28.7601C29.1655 7.616 29.4908 7.49333 29.7361 7.248C29.9815 6.992 30.1041 6.66667 30.1041 6.272V3.632H33.6401V7.616H37.5761L37.5601 10.896H33.6241L33.6401 19.168C33.6401 19.616 33.7841 19.9893 34.0721 20.288C34.3708 20.576 34.7441 20.72 35.1921 20.72H37.5601V24H34.4241ZM48.4099 24.384C46.8099 24.384 45.3699 24.016 44.0899 23.28C42.8205 22.544 41.8285 21.5253 41.1139 20.224C40.3992 18.912 40.0419 17.4347 40.0419 15.792C40.0419 14.1707 40.4045 12.7093 41.1299 11.408C41.8552 10.1067 42.8525 9.088 44.1219 8.352C45.4019 7.60533 46.8312 7.232 48.4099 7.232C50.0312 7.232 51.4499 7.6 52.6659 8.336C53.8925 9.072 54.8365 10.0907 55.4979 11.392C56.1592 12.6827 56.4899 14.1493 56.4899 15.792V16.832H43.9939C44.1005 17.6853 44.3619 18.4373 44.7779 19.088C45.1939 19.7387 45.7272 20.2453 46.3779 20.608C47.0285 20.96 47.7539 21.136 48.5539 21.136C49.4925 21.136 50.2872 20.9973 50.9379 20.72C51.5885 20.4427 52.0899 20.0427 52.4419 19.52H56.2019C56.0312 20.32 55.6099 21.0933 54.9379 21.84C54.2659 22.5867 53.3699 23.2 52.2499 23.68C51.1299 24.1493 49.8499 24.384 48.4099 24.384ZM52.5859 14.192C52.3939 13.0187 51.9405 12.0907 51.2259 11.408C50.5219 10.7253 49.5885 10.384 48.4259 10.384C47.2739 10.384 46.3032 10.7253 45.5139 11.408C44.7352 12.0907 44.2392 13.0187 44.0259 14.192H52.5859ZM59.9294 1.6H63.7214V24H59.9294V1.6ZM68.3669 1.6H72.1589V24H68.3669V1.6ZM76.6284 20.416H81.2524C82.063 20.416 82.7777 20.2507 83.3964 19.92C84.015 19.5787 84.495 19.104 84.8364 18.496C85.1777 17.8773 85.3484 17.1733 85.3484 16.384V0.671999H89.2844V16.72C89.2844 18.16 88.9537 19.4293 88.2924 20.528C87.631 21.6267 86.6977 22.48 85.4924 23.088C84.287 23.696 82.9004 24 81.3324 24H76.6284V20.416ZM76.6284 6.912H80.4364V17.616H76.6284V6.912ZM76.6284 1.248H80.7564V4.864H76.6284V1.248ZM102.082 1.6H106.114V24H102.082V1.6ZM111.801 1.6H120.185C122.318 1.6 124.212 2.06933 125.865 3.008C127.529 3.94667 128.82 5.264 129.737 6.96C130.654 8.656 131.113 10.6027 131.113 12.8C131.113 14.9973 130.654 16.944 129.737 18.64C128.82 20.336 127.529 21.6533 125.865 22.592C124.212 23.5307 122.318 24 120.185 24H111.801V1.6ZM120.153 20.544C121.55 20.544 122.772 20.2293 123.817 19.6C124.862 18.96 125.673 18.0587 126.249 16.896C126.825 15.7227 127.113 14.3573 127.113 12.8C127.113 11.2427 126.825 9.88267 126.249 8.72C125.673 7.54667 124.862 6.64533 123.817 6.016C122.772 5.376 121.55 5.056 120.153 5.056H115.705V20.544H120.153ZM135.426 1.6H151.458V5.072H139.282V10.992H150.37V14.48H139.282V20.512H151.778V24H135.426V1.6ZM161.902 1.6H166.174L174.542 24H170.542L168.638 18.608H159.63L157.87 24H153.758L161.902 1.6ZM167.566 15.488L164.334 6.496L163.998 5.104L163.646 6.496L160.622 15.488H167.566ZM193.542 24.384C191.728 24.384 190.123 24.0107 188.726 23.264C187.339 22.5067 186.256 21.456 185.478 20.112C184.71 18.7573 184.326 17.2053 184.326 15.456V1.6H188.262V15.408C188.262 16.4853 188.475 17.44 188.902 18.272C189.339 19.0933 189.958 19.7333 190.758 20.192C191.558 20.6507 192.486 20.88 193.542 20.88C194.555 20.88 195.451 20.6507 196.23 20.192C197.008 19.7333 197.611 19.0933 198.038 18.272C198.464 17.44 198.678 16.4853 198.678 15.408V1.6H202.614V15.456C202.614 17.2053 202.23 18.7573 201.462 20.112C200.704 21.456 199.638 22.5067 198.262 23.264C196.886 24.0107 195.312 24.384 193.542 24.384ZM207.492 1.6H211.284V24H207.492V1.6ZM221.705 24C220.831 24 220.041 23.8133 219.337 23.44C218.644 23.0667 218.1 22.5493 217.705 21.888C217.321 21.2267 217.129 20.4747 217.129 19.632L217.113 10.896H214.233L214.249 7.616H216.041C216.447 7.616 216.772 7.49333 217.017 7.248C217.263 6.992 217.385 6.66667 217.385 6.272V3.632H220.921V7.616H224.857L224.841 10.896H220.905L220.921 19.168C220.921 19.616 221.065 19.9893 221.353 20.288C221.652 20.576 222.025 20.72 222.473 20.72H224.841V24H221.705ZM228.523 7.616H232.331V24H228.523V7.616ZM232.475 1.6V5.216H228.347V1.6H232.475ZM236.961 7.616H240.657V10.08C241.147 9.16267 241.803 8.45867 242.625 7.968C243.446 7.47733 244.401 7.232 245.489 7.232C246.662 7.232 247.675 7.504 248.529 8.048C249.382 8.58133 250.033 9.344 250.481 10.336C251.014 9.35467 251.734 8.592 252.641 8.048C253.547 7.504 254.598 7.232 255.793 7.232C256.955 7.232 257.969 7.49867 258.833 8.032C259.707 8.55467 260.385 9.30133 260.865 10.272C261.345 11.2427 261.585 12.3733 261.585 13.664V24H257.777V14.112C257.777 13.0133 257.499 12.1493 256.945 11.52C256.401 10.88 255.633 10.56 254.641 10.56C253.937 10.56 253.318 10.72 252.785 11.04C252.262 11.36 251.857 11.8187 251.569 12.416C251.281 13.0027 251.137 13.696 251.137 14.496V24H247.409V14.112C247.409 13.0133 247.131 12.1493 246.577 11.52C246.022 10.88 245.254 10.56 244.273 10.56C243.195 10.56 242.342 10.9173 241.713 11.632C241.083 12.336 240.769 13.2907 240.769 14.496V24H236.961V7.616ZM272.38 7.232C273.713 7.232 274.892 7.472 275.916 7.952C276.94 8.42133 277.734 9.104 278.3 10C278.865 10.8853 279.148 11.936 279.148 13.152V24H275.468V21.616C274.956 22.512 274.257 23.2 273.372 23.68C272.497 24.1493 271.462 24.384 270.268 24.384C269.212 24.384 268.262 24.1867 267.42 23.792C266.588 23.3867 265.937 22.8267 265.468 22.112C264.998 21.3867 264.764 20.5653 264.764 19.648C264.764 18.7733 264.988 17.968 265.436 17.232C265.894 16.4853 266.529 15.8773 267.34 15.408C268.15 14.9387 269.062 14.6507 270.076 14.544L274.348 14.096C274.678 14.064 274.94 13.9467 275.132 13.744C275.324 13.5307 275.42 13.2213 275.42 12.816C275.409 12.0373 275.116 11.408 274.54 10.928C273.964 10.448 273.212 10.208 272.284 10.208C271.686 10.208 271.137 10.3147 270.636 10.528C270.145 10.7307 269.75 11.008 269.452 11.36C269.153 11.712 268.977 12.1013 268.924 12.528H265.164C265.27 11.504 265.649 10.592 266.3 9.792C266.95 8.992 267.804 8.368 268.86 7.92C269.916 7.46133 271.089 7.232 272.38 7.232ZM268.636 19.216C268.636 19.8987 268.902 20.4533 269.436 20.88C269.969 21.3067 270.657 21.52 271.5 21.52C272.268 21.52 272.945 21.3653 273.532 21.056C274.129 20.7467 274.593 20.32 274.924 19.776C275.254 19.2213 275.42 18.5867 275.42 17.872V16.416L270.988 16.928C270.284 17.0027 269.713 17.2427 269.276 17.648C268.849 18.0533 268.636 18.576 268.636 19.216ZM289.205 24C288.331 24 287.541 23.8133 286.837 23.44C286.144 23.0667 285.6 22.5493 285.205 21.888C284.821 21.2267 284.629 20.4747 284.629 19.632L284.613 10.896H281.733L281.749 7.616H283.541C283.947 7.616 284.272 7.49333 284.517 7.248C284.763 6.992 284.885 6.66667 284.885 6.272V3.632H288.421V7.616H292.357L292.341 10.896H288.405L288.421 19.168C288.421 19.616 288.565 19.9893 288.853 20.288C289.152 20.576 289.525 20.72 289.973 20.72H292.341V24H289.205ZM303.191 24.384C301.591 24.384 300.151 24.016 298.871 23.28C297.602 22.544 296.61 21.5253 295.895 20.224C295.18 18.912 294.823 17.4347 294.823 15.792C294.823 14.1707 295.186 12.7093 295.911 11.408C296.636 10.1067 297.634 9.088 298.903 8.352C300.183 7.60533 301.612 7.232 303.191 7.232C304.812 7.232 306.231 7.6 307.447 8.336C308.674 9.072 309.618 10.0907 310.279 11.392C310.94 12.6827 311.271 14.1493 311.271 15.792V16.832H298.775C298.882 17.6853 299.143 18.4373 299.559 19.088C299.975 19.7387 300.508 20.2453 301.159 20.608C301.81 20.96 302.535 21.136 303.335 21.136C304.274 21.136 305.068 20.9973 305.719 20.72C306.37 20.4427 306.871 20.0427 307.223 19.52H310.983C310.812 20.32 310.391 21.0933 309.719 21.84C309.047 22.5867 308.151 23.2 307.031 23.68C305.911 24.1493 304.631 24.384 303.191 24.384ZM307.367 14.192C307.175 13.0187 306.722 12.0907 306.007 11.408C305.303 10.7253 304.37 10.384 303.207 10.384C302.055 10.384 301.084 10.7253 300.295 11.408C299.516 12.0907 299.02 13.0187 298.807 14.192H307.367Z" fill="black"/>
</svg>
