<svg width="67" height="24" viewBox="0 0 67 24" fill="none" xmlns="http://www.w3.org/2000/svg">
<path d="M0.723 0.599998H5.795L12.659 16.776L13.043 18.024L13.411 16.776L20.131 0.599998H25.267V23H21.347V7.064L21.395 6.216L14.435 23H11.507L4.579 6.328L4.627 7.064V23H0.723V0.599998ZM30.973 0.599998H40.445C41.981 0.599998 43.3303 0.882665 44.493 1.448C45.6557 2.01333 46.5517 2.81333 47.181 3.848C47.821 4.872 48.141 6.06133 48.141 7.416C48.141 8.78133 47.8157 9.98667 47.165 11.032C46.525 12.0773 45.613 12.888 44.429 13.464C43.2557 14.0293 41.885 14.312 40.317 14.312H34.893V23H30.973V0.599998ZM40.237 10.968C41.3997 10.968 42.3277 10.6533 43.021 10.024C43.7143 9.384 44.061 8.52533 44.061 7.448C44.061 6.38133 43.7143 5.53333 43.021 4.904C42.3277 4.27467 41.3997 3.96 40.237 3.96H34.893V10.968H40.237ZM58.398 23.384C56.798 23.384 55.3793 23.096 54.142 22.52C52.9047 21.9333 51.934 21.1173 51.23 20.072C50.5367 19.016 50.1847 17.8107 50.174 16.456H54.158C54.158 17.1493 54.3393 17.7627 54.702 18.296C55.0647 18.8293 55.566 19.2453 56.206 19.544C56.8567 19.8427 57.6033 19.992 58.446 19.992C59.2673 19.992 59.9873 19.8587 60.606 19.592C61.2247 19.3147 61.6993 18.936 62.03 18.456C62.3713 17.9653 62.542 17.4 62.542 16.76C62.542 15.96 62.2967 15.272 61.806 14.696C61.326 14.12 60.686 13.7627 59.886 13.624L56.046 12.984C54.9687 12.8027 54.03 12.424 53.23 11.848C52.43 11.2613 51.8113 10.5307 51.374 9.656C50.9473 8.78133 50.734 7.82133 50.734 6.776C50.734 5.51733 51.0593 4.392 51.71 3.4C52.3607 2.39733 53.262 1.61867 54.414 1.064C55.5767 0.498666 56.894 0.216 58.366 0.216C59.87 0.216 61.2033 0.488 62.366 1.032C63.5393 1.576 64.4513 2.33867 65.102 3.32C65.7527 4.30133 66.0833 5.42133 66.094 6.68H62.126C62.126 6.08267 61.9713 5.55467 61.662 5.096C61.3527 4.62667 60.9153 4.264 60.35 4.008C59.7953 3.74133 59.15 3.608 58.414 3.608C57.6887 3.608 57.0433 3.736 56.478 3.992C55.9233 4.23733 55.4913 4.58933 55.182 5.048C54.8727 5.496 54.718 6.01333 54.718 6.6C54.718 7.29333 54.942 7.896 55.39 8.408C55.838 8.90933 56.43 9.224 57.166 9.352L60.894 9.96C62.0033 10.1413 62.9847 10.552 63.838 11.192C64.702 11.832 65.3687 12.6213 65.838 13.56C66.318 14.4987 66.558 15.5013 66.558 16.568C66.558 17.8587 66.2113 19.0213 65.518 20.056C64.8353 21.0907 63.8753 21.9067 62.638 22.504C61.4007 23.0907 59.9873 23.384 58.398 23.384Z" fill="black"/>
</svg>
