<svg width="291" height="66" viewBox="0 0 291 66" fill="none" xmlns="http://www.w3.org/2000/svg">
<path d="M76.8636 0.599998H86.3356C87.8716 0.599998 89.221 0.882665 90.3836 1.448C91.5463 2.01333 92.4423 2.81333 93.0716 3.848C93.7116 4.872 94.0316 6.06133 94.0316 7.416C94.0316 8.78133 93.7063 9.98667 93.0556 11.032C92.4156 12.0773 91.5036 12.888 90.3196 13.464C89.1463 14.0293 87.7756 14.312 86.2076 14.312H80.7836V23H76.8636V0.599998ZM86.1276 10.968C87.2903 10.968 88.2183 10.6533 88.9116 10.024C89.605 9.384 89.9516 8.52533 89.9516 7.448C89.9516 6.38133 89.605 5.53333 88.9116 4.904C88.2183 4.27467 87.2903 3.96 86.1276 3.96H80.7836V10.968H86.1276ZM103.889 28.504C102.598 28.504 101.425 28.2907 100.369 27.864C99.3233 27.448 98.47 26.856 97.8086 26.088C97.158 25.3307 96.7633 24.456 96.6246 23.464H100.273C100.486 24.072 100.907 24.5573 101.537 24.92C102.177 25.2933 102.923 25.48 103.777 25.48C104.502 25.48 105.142 25.32 105.697 25C106.262 24.6907 106.705 24.2373 107.025 23.64C107.345 23.0427 107.51 22.3333 107.521 21.512L107.537 19.16C107.025 19.992 106.353 20.6267 105.521 21.064C104.699 21.5013 103.734 21.72 102.625 21.72C101.419 21.72 100.363 21.4533 99.4566 20.92C98.55 20.3867 97.8513 19.6347 97.3606 18.664C96.87 17.6933 96.6246 16.568 96.6246 15.288V6.616H100.433V14.808C100.433 15.9387 100.721 16.824 101.297 17.464C101.873 18.104 102.673 18.424 103.697 18.424C104.454 18.424 105.121 18.248 105.697 17.896C106.273 17.544 106.715 17.048 107.025 16.408C107.334 15.7573 107.489 15 107.489 14.136V6.616H111.297V21.512C111.297 22.952 110.987 24.1947 110.369 25.24C109.761 26.296 108.897 27.1013 107.777 27.656C106.657 28.2213 105.361 28.504 103.889 28.504ZM126.297 23.384C124.175 23.384 122.26 22.8827 120.553 21.88C118.857 20.8773 117.524 19.496 116.553 17.736C115.583 15.9653 115.097 13.9867 115.097 11.8C115.097 9.61333 115.583 7.64 116.553 5.88C117.524 4.10933 118.857 2.72267 120.553 1.72C122.26 0.717333 124.175 0.216 126.297 0.216C128.089 0.216 129.748 0.594666 131.273 1.352C132.809 2.09867 134.052 3.10667 135.001 4.376C135.961 5.63467 136.516 6.99467 136.665 8.456H132.793C132.601 7.64533 132.191 6.88267 131.561 6.168C130.943 5.45333 130.169 4.88267 129.241 4.456C128.313 4.01867 127.327 3.8 126.281 3.8C124.916 3.8 123.689 4.14133 122.601 4.824C121.513 5.50667 120.66 6.456 120.041 7.672C119.433 8.888 119.129 10.264 119.129 11.8C119.129 13.336 119.433 14.712 120.041 15.928C120.66 17.144 121.513 18.0933 122.601 18.776C123.689 19.4587 124.916 19.8 126.281 19.8C127.327 19.8 128.313 19.5867 129.241 19.16C130.169 18.7333 130.943 18.168 131.561 17.464C132.191 16.7493 132.601 15.992 132.793 15.192H136.665C136.516 16.6427 135.961 17.9973 135.001 19.256C134.052 20.504 132.809 21.5067 131.273 22.264C129.748 23.0107 128.089 23.384 126.297 23.384ZM140.398 0.599998H144.126V5.656L144.078 8.696V9.064C144.601 8.14667 145.299 7.448 146.174 6.968C147.049 6.47733 148.062 6.232 149.214 6.232C150.377 6.232 151.406 6.488 152.302 7C153.198 7.512 153.897 8.25333 154.398 9.224C154.899 10.1947 155.15 11.352 155.15 12.696V23H151.342V13.272C151.342 12.1093 151.043 11.2027 150.446 10.552C149.849 9.90133 149.022 9.576 147.966 9.576C147.219 9.576 146.558 9.74133 145.982 10.072C145.417 10.4027 144.979 10.8667 144.67 11.464C144.361 12.0613 144.206 12.744 144.206 13.512V23H140.398V0.599998ZM175.158 6.616V23H171.446V20.568C170.849 21.464 170.065 22.1573 169.094 22.648C168.134 23.1387 167.046 23.384 165.83 23.384C164.358 23.384 163.041 23.0267 161.878 22.312C160.726 21.5867 159.825 20.5733 159.174 19.272C158.534 17.9707 158.214 16.4827 158.214 14.808C158.214 13.1333 158.534 11.6453 159.174 10.344C159.825 9.04267 160.726 8.03467 161.878 7.32C163.041 6.59467 164.358 6.232 165.83 6.232C167.046 6.232 168.134 6.47733 169.094 6.968C170.065 7.45867 170.849 8.152 171.446 9.048V6.616H175.158ZM162.166 14.808C162.166 15.8213 162.358 16.7227 162.742 17.512C163.137 18.2907 163.681 18.8987 164.374 19.336C165.078 19.7627 165.883 19.976 166.79 19.976C167.697 19.976 168.502 19.7627 169.206 19.336C169.91 18.8987 170.459 18.2907 170.854 17.512C171.249 16.7227 171.446 15.8213 171.446 14.808C171.446 13.7947 171.249 12.8987 170.854 12.12C170.459 11.3307 169.91 10.7227 169.206 10.296C168.502 9.85867 167.697 9.64 166.79 9.64C165.883 9.64 165.078 9.85867 164.374 10.296C163.681 10.7227 163.137 11.3307 162.742 12.12C162.358 12.8987 162.166 13.7947 162.166 14.808ZM179.617 6.616H183.393V9.08C183.916 8.248 184.566 7.61333 185.345 7.176C186.124 6.728 187.014 6.504 188.017 6.504H188.625V10.344H187.537C186.268 10.3333 185.265 10.6693 184.529 11.352C183.793 12.0347 183.425 12.968 183.425 14.152V23H179.617V6.616ZM191.429 6.616H195.125V9.08C195.616 8.16267 196.272 7.45867 197.093 6.968C197.915 6.47733 198.869 6.232 199.957 6.232C201.131 6.232 202.144 6.504 202.997 7.048C203.851 7.58133 204.501 8.344 204.949 9.336C205.483 8.35467 206.203 7.592 207.109 7.048C208.016 6.504 209.067 6.232 210.261 6.232C211.424 6.232 212.437 6.49867 213.301 7.032C214.176 7.55467 214.853 8.30133 215.333 9.272C215.813 10.2427 216.053 11.3733 216.053 12.664V23H212.245V13.112C212.245 12.0133 211.968 11.1493 211.413 10.52C210.869 9.88 210.101 9.56 209.109 9.56C208.405 9.56 207.787 9.72 207.253 10.04C206.731 10.36 206.325 10.8187 206.037 11.416C205.749 12.0027 205.605 12.696 205.605 13.496V23H201.877V13.112C201.877 12.0133 201.6 11.1493 201.045 10.52C200.491 9.88 199.723 9.56 198.741 9.56C197.664 9.56 196.811 9.91733 196.181 10.632C195.552 11.336 195.237 12.2907 195.237 13.496V23H191.429V6.616ZM11.9224 60.384C9.79971 60.384 7.88504 59.8827 6.17838 58.88C4.48238 57.8773 3.14904 56.496 2.17838 54.736C1.20771 52.9653 0.722375 50.9867 0.722375 48.8C0.722375 46.6133 1.20771 44.64 2.17838 42.88C3.14904 41.1093 4.48238 39.7227 6.17838 38.72C7.88504 37.7173 9.79971 37.216 11.9224 37.216C13.7144 37.216 15.373 37.5947 16.8984 38.352C18.4344 39.0987 19.677 40.1067 20.6264 41.376C21.5864 42.6347 22.141 43.9947 22.2904 45.456H18.4184C18.2264 44.6453 17.8157 43.8827 17.1864 43.168C16.5677 42.4533 15.7944 41.8827 14.8664 41.456C13.9384 41.0187 12.9517 40.8 11.9064 40.8C10.541 40.8 9.31438 41.1413 8.22638 41.824C7.13838 42.5067 6.28504 43.456 5.66638 44.672C5.05838 45.888 4.75438 47.264 4.75438 48.8C4.75438 50.336 5.05838 51.712 5.66638 52.928C6.28504 54.144 7.13838 55.0933 8.22638 55.776C9.31438 56.4587 10.541 56.8 11.9064 56.8C12.9517 56.8 13.9384 56.5867 14.8664 56.16C15.7944 55.7333 16.5677 55.168 17.1864 54.464C17.8157 53.7493 18.2264 52.992 18.4184 52.192H22.2904C22.141 53.6427 21.5864 54.9973 20.6264 56.256C19.677 57.504 18.4344 58.5067 16.8984 59.264C15.373 60.0107 13.7144 60.384 11.9224 60.384ZM33.4791 60.384C31.8471 60.384 30.3751 60.016 29.0631 59.28C27.7511 58.544 26.7165 57.5253 25.9591 56.224C25.2125 54.9227 24.8391 53.4507 24.8391 51.808C24.8391 50.1653 25.2125 48.6933 25.9591 47.392C26.7165 46.0907 27.7511 45.072 29.0631 44.336C30.3858 43.6 31.8631 43.232 33.4951 43.232C35.1271 43.232 36.5991 43.6 37.9111 44.336C39.2231 45.072 40.2525 46.0907 40.9991 47.392C41.7458 48.6933 42.1191 50.1653 42.1191 51.808C42.1191 53.4507 41.7458 54.9227 40.9991 56.224C40.2525 57.5253 39.2231 58.544 37.9111 59.28C36.5991 60.016 35.1218 60.384 33.4791 60.384ZM28.7911 51.808C28.7911 52.8213 28.9938 53.7173 29.3991 54.496C29.8151 55.2747 30.3805 55.8827 31.0951 56.32C31.8098 56.7467 32.6151 56.96 33.5111 56.96C34.3965 56.96 35.1911 56.7467 35.8951 56.32C36.6098 55.8827 37.1645 55.2747 37.5591 54.496C37.9645 53.7173 38.1671 52.8213 38.1671 51.808C38.1671 50.7947 37.9645 49.8987 37.5591 49.12C37.1538 48.3307 36.5938 47.7227 35.8791 47.296C35.1751 46.8587 34.3805 46.64 33.4951 46.64C32.6098 46.64 31.8098 46.8587 31.0951 47.296C30.3805 47.7227 29.8151 48.3307 29.3991 49.12C28.9938 49.8987 28.7911 50.7947 28.7911 51.808ZM45.5856 43.616H49.2816V46.08C49.7723 45.1627 50.4283 44.4587 51.2496 43.968C52.071 43.4773 53.0256 43.232 54.1136 43.232C55.287 43.232 56.3003 43.504 57.1536 44.048C58.007 44.5813 58.6576 45.344 59.1056 46.336C59.639 45.3547 60.359 44.592 61.2656 44.048C62.1723 43.504 63.223 43.232 64.4176 43.232C65.5803 43.232 66.5936 43.4987 67.4576 44.032C68.3323 44.5547 69.0096 45.3013 69.4896 46.272C69.9696 47.2427 70.2096 48.3733 70.2096 49.664V60H66.4016V50.112C66.4016 49.0133 66.1243 48.1493 65.5696 47.52C65.0256 46.88 64.2576 46.56 63.2656 46.56C62.5616 46.56 61.943 46.72 61.4096 47.04C60.887 47.36 60.4816 47.8187 60.1936 48.416C59.9056 49.0027 59.7616 49.696 59.7616 50.496V60H56.0336V50.112C56.0336 49.0133 55.7563 48.1493 55.2016 47.52C54.647 46.88 53.879 46.56 52.8976 46.56C51.8203 46.56 50.967 46.9173 50.3376 47.632C49.7083 48.336 49.3936 49.2907 49.3936 50.496V60H45.5856V43.616ZM74.4606 43.616H78.1566V46.08C78.6473 45.1627 79.3033 44.4587 80.1246 43.968C80.946 43.4773 81.9006 43.232 82.9886 43.232C84.162 43.232 85.1753 43.504 86.0286 44.048C86.882 44.5813 87.5326 45.344 87.9806 46.336C88.514 45.3547 89.234 44.592 90.1406 44.048C91.0473 43.504 92.098 43.232 93.2926 43.232C94.4553 43.232 95.4686 43.4987 96.3326 44.032C97.2073 44.5547 97.8846 45.3013 98.3646 46.272C98.8446 47.2427 99.0846 48.3733 99.0846 49.664V60H95.2766V50.112C95.2766 49.0133 94.9993 48.1493 94.4446 47.52C93.9006 46.88 93.1326 46.56 92.1406 46.56C91.4366 46.56 90.818 46.72 90.2846 47.04C89.762 47.36 89.3566 47.8187 89.0686 48.416C88.7806 49.0027 88.6366 49.696 88.6366 50.496V60H84.9086V50.112C84.9086 49.0133 84.6313 48.1493 84.0766 47.52C83.522 46.88 82.754 46.56 81.7726 46.56C80.6953 46.56 79.842 46.9173 79.2126 47.632C78.5833 48.336 78.2686 49.2907 78.2686 50.496V60H74.4606V43.616ZM117.704 60H114.008V57.648C113.474 58.5333 112.77 59.2107 111.896 59.68C111.032 60.1493 110.034 60.384 108.904 60.384C107.73 60.384 106.69 60.128 105.784 59.616C104.888 59.104 104.189 58.3627 103.688 57.392C103.186 56.4213 102.936 55.264 102.936 53.92V43.616H106.744V53.344C106.744 54.5067 107.042 55.4133 107.64 56.064C108.248 56.7147 109.08 57.04 110.136 57.04C110.882 57.04 111.538 56.8747 112.104 56.544C112.68 56.2133 113.122 55.7493 113.432 55.152C113.752 54.5547 113.912 53.872 113.912 53.104V43.616H117.704V60ZM122.336 43.616H126.032V45.968C126.565 45.0827 127.264 44.4053 128.128 43.936C129.002 43.4667 130.005 43.232 131.136 43.232C132.309 43.232 133.344 43.488 134.24 44C135.146 44.512 135.85 45.2533 136.352 46.224C136.853 47.1947 137.104 48.352 137.104 49.696V60H133.296V50.272C133.296 49.1093 132.992 48.2027 132.384 47.552C131.786 46.9013 130.96 46.576 129.904 46.576C129.157 46.576 128.496 46.7413 127.92 47.072C127.354 47.4027 126.912 47.8667 126.592 48.464C126.282 49.0613 126.128 49.744 126.128 50.512V60H122.336V43.616ZM141.336 43.616H145.144V60H141.336V43.616ZM145.288 37.6V41.216H141.16V37.6H145.288ZM155.549 60C154.674 60 153.885 59.8133 153.181 59.44C152.488 59.0667 151.944 58.5493 151.549 57.888C151.165 57.2267 150.973 56.4747 150.973 55.632L150.957 46.896H148.077L148.093 43.616H149.885C150.29 43.616 150.616 43.4933 150.861 43.248C151.106 42.992 151.229 42.6667 151.229 42.272V39.632H154.765V43.616H158.701L158.685 46.896H154.749L154.765 55.168C154.765 55.616 154.909 55.9893 155.197 56.288C155.496 56.576 155.869 56.72 156.317 56.72H158.685V60H155.549ZM161.759 62H164.047C164.474 62 164.847 61.8827 165.167 61.648C165.498 61.424 165.743 61.12 165.903 60.736L166.687 59.04L160.383 43.616H164.335L168.575 54.624L172.463 43.616H176.319L169.519 61.104C169.039 62.352 168.378 63.3333 167.535 64.048C166.703 64.7627 165.626 65.12 164.303 65.12H161.759V62ZM186.489 37.6H202.521V41.072H190.345V46.992H201.433V50.48H190.345V56.512H202.841V60H186.489V37.6ZM218.82 57.616C218.223 58.5013 217.444 59.184 216.484 59.664C215.524 60.144 214.442 60.384 213.236 60.384C211.764 60.384 210.447 60.0267 209.284 59.312C208.132 58.5867 207.231 57.5733 206.58 56.272C205.94 54.9707 205.62 53.4827 205.62 51.808C205.62 50.1333 205.94 48.6453 206.58 47.344C207.231 46.0427 208.132 45.0347 209.284 44.32C210.447 43.5947 211.764 43.232 213.236 43.232C214.442 43.232 215.524 43.472 216.484 43.952C217.444 44.432 218.223 45.1147 218.82 46V37.6H222.612V60H218.82V57.616ZM209.572 51.808C209.572 52.8213 209.764 53.7227 210.148 54.512C210.543 55.2907 211.087 55.8987 211.78 56.336C212.484 56.7627 213.29 56.976 214.196 56.976C215.039 56.976 215.791 56.7893 216.452 56.416C217.124 56.0427 217.663 55.52 218.068 54.848C218.484 54.1653 218.735 53.376 218.82 52.48V51.136C218.735 50.24 218.484 49.456 218.068 48.784C217.663 48.1013 217.124 47.5733 216.452 47.2C215.791 46.8267 215.039 46.64 214.196 46.64C213.29 46.64 212.484 46.8587 211.78 47.296C211.087 47.7227 210.543 48.3307 210.148 49.12C209.764 49.8987 209.572 50.7947 209.572 51.808ZM227.054 43.616H230.862V60H227.054V43.616ZM231.006 37.6V41.216H226.878V37.6H231.006ZM241.268 60C240.393 60 239.604 59.8133 238.9 59.44C238.207 59.0667 237.663 58.5493 237.268 57.888C236.884 57.2267 236.692 56.4747 236.692 55.632L236.676 46.896H233.796L233.812 43.616H235.604C236.009 43.616 236.335 43.4933 236.58 43.248C236.825 42.992 236.948 42.6667 236.948 42.272V39.632H240.484V43.616H244.42L244.404 46.896H240.468L240.484 55.168C240.484 55.616 240.628 55.9893 240.916 56.288C241.215 56.576 241.588 56.72 242.036 56.72H244.404V60H241.268ZM248.086 43.616H251.894V60H248.086V43.616ZM252.038 37.6V41.216H247.91V37.6H252.038ZM263.979 60.384C262.347 60.384 260.875 60.016 259.563 59.28C258.251 58.544 257.216 57.5253 256.459 56.224C255.712 54.9227 255.339 53.4507 255.339 51.808C255.339 50.1653 255.712 48.6933 256.459 47.392C257.216 46.0907 258.251 45.072 259.563 44.336C260.886 43.6 262.363 43.232 263.995 43.232C265.627 43.232 267.099 43.6 268.411 44.336C269.723 45.072 270.752 46.0907 271.499 47.392C272.246 48.6933 272.619 50.1653 272.619 51.808C272.619 53.4507 272.246 54.9227 271.499 56.224C270.752 57.5253 269.723 58.544 268.411 59.28C267.099 60.016 265.622 60.384 263.979 60.384ZM259.291 51.808C259.291 52.8213 259.494 53.7173 259.899 54.496C260.315 55.2747 260.88 55.8827 261.595 56.32C262.31 56.7467 263.115 56.96 264.011 56.96C264.896 56.96 265.691 56.7467 266.395 56.32C267.11 55.8827 267.664 55.2747 268.059 54.496C268.464 53.7173 268.667 52.8213 268.667 51.808C268.667 50.7947 268.464 49.8987 268.059 49.12C267.654 48.3307 267.094 47.7227 266.379 47.296C265.675 46.8587 264.88 46.64 263.995 46.64C263.11 46.64 262.31 46.8587 261.595 47.296C260.88 47.7227 260.315 48.3307 259.899 49.12C259.494 49.8987 259.291 50.7947 259.291 51.808ZM276.086 43.616H279.782V45.968C280.315 45.0827 281.014 44.4053 281.878 43.936C282.752 43.4667 283.755 43.232 284.886 43.232C286.059 43.232 287.094 43.488 287.99 44C288.896 44.512 289.6 45.2533 290.102 46.224C290.603 47.1947 290.854 48.352 290.854 49.696V60H287.046V50.272C287.046 49.1093 286.742 48.2027 286.134 47.552C285.536 46.9013 284.71 46.576 283.654 46.576C282.907 46.576 282.246 46.7413 281.67 47.072C281.104 47.4027 280.662 47.8667 280.342 48.464C280.032 49.0613 279.878 49.744 279.878 50.512V60H276.086V43.616Z" fill="black"/>
</svg>
