<svg width="149" height="29" viewBox="0 0 149 29" fill="none" xmlns="http://www.w3.org/2000/svg">
<path d="M0.69175 0.599998H10.1638C11.6998 0.599998 13.0491 0.882665 14.2118 1.448C15.3744 2.01333 16.2704 2.81333 16.8998 3.848C17.5398 4.872 17.8598 6.06133 17.8598 7.416C17.8598 8.78133 17.5344 9.98667 16.8838 11.032C16.2438 12.0773 15.3318 12.888 14.1478 13.464C12.9744 14.0293 11.6038 14.312 10.0358 14.312H4.61175V23H0.69175V0.599998ZM9.95575 10.968C11.1184 10.968 12.0464 10.6533 12.7398 10.024C13.4331 9.384 13.7798 8.52533 13.7798 7.448C13.7798 6.38133 13.4331 5.53333 12.7398 4.904C12.0464 4.27467 11.1184 3.96 9.95575 3.96H4.61175V10.968H9.95575ZM20.7888 0.599998H24.5168V5.656L24.4688 8.696V9.064C24.9914 8.14667 25.6901 7.448 26.5648 6.968C27.4394 6.47733 28.4528 6.232 29.6048 6.232C30.7674 6.232 31.7968 6.488 32.6928 7C33.5888 7.512 34.2874 8.25333 34.7888 9.224C35.2901 10.1947 35.5408 11.352 35.5408 12.696V23H31.7328V13.272C31.7328 12.1093 31.4341 11.2027 30.8368 10.552C30.2394 9.90133 29.4128 9.576 28.3568 9.576C27.6101 9.576 26.9488 9.74133 26.3728 10.072C25.8074 10.4027 25.3701 10.8667 25.0608 11.464C24.7514 12.0613 24.5968 12.744 24.5968 13.512V23H20.7888V0.599998ZM43.5008 6.616V9.176C44.0874 8.23733 44.8714 7.512 45.8528 7C46.8341 6.488 47.9488 6.232 49.1968 6.232C50.6688 6.232 51.9808 6.59467 53.1328 7.32C54.2954 8.03467 55.1968 9.04267 55.8368 10.344C56.4874 11.6453 56.8128 13.1333 56.8128 14.808C56.8128 16.4827 56.4874 17.9707 55.8368 19.272C55.1968 20.5733 54.2954 21.5867 53.1328 22.312C51.9808 23.0267 50.6688 23.384 49.1968 23.384C47.9808 23.384 46.8874 23.1387 45.9167 22.648C44.9568 22.1573 44.1781 21.464 43.5808 20.568V28.152H39.7888V6.616H43.5008ZM43.5808 14.808C43.5808 15.8213 43.7781 16.7227 44.1728 17.512C44.5674 18.2907 45.1168 18.8987 45.8208 19.336C46.5248 19.7627 47.3301 19.976 48.2368 19.976C49.1434 19.976 49.9434 19.7627 50.6368 19.336C51.3408 18.8987 51.8848 18.2907 52.2688 17.512C52.6634 16.7227 52.8608 15.8213 52.8608 14.808C52.8608 13.7947 52.6634 12.8987 52.2688 12.12C51.8848 11.3307 51.3408 10.7227 50.6368 10.296C49.9434 9.85867 49.1434 9.64 48.2368 9.64C47.3301 9.64 46.5248 9.85867 45.8208 10.296C45.1168 10.7227 44.5674 11.3307 44.1728 12.12C43.7781 12.8987 43.5808 13.7947 43.5808 14.808ZM67.5855 23.384C65.9855 23.384 64.5668 23.096 63.3295 22.52C62.0922 21.9333 61.1215 21.1173 60.4175 20.072C59.7242 19.016 59.3722 17.8107 59.3615 16.456H63.3455C63.3455 17.1493 63.5268 17.7627 63.8895 18.296C64.2522 18.8293 64.7535 19.2453 65.3935 19.544C66.0442 19.8427 66.7908 19.992 67.6335 19.992C68.4548 19.992 69.1748 19.8587 69.7935 19.592C70.4122 19.3147 70.8868 18.936 71.2175 18.456C71.5588 17.9653 71.7295 17.4 71.7295 16.76C71.7295 15.96 71.4842 15.272 70.9935 14.696C70.5135 14.12 69.8735 13.7627 69.0735 13.624L65.2335 12.984C64.1562 12.8027 63.2175 12.424 62.4175 11.848C61.6175 11.2613 60.9988 10.5307 60.5615 9.656C60.1348 8.78133 59.9215 7.82133 59.9215 6.776C59.9215 5.51733 60.2468 4.392 60.8975 3.4C61.5482 2.39733 62.4495 1.61867 63.6015 1.064C64.7642 0.498666 66.0815 0.216 67.5535 0.216C69.0575 0.216 70.3908 0.488 71.5535 1.032C72.7268 1.576 73.6388 2.33867 74.2895 3.32C74.9402 4.30133 75.2708 5.42133 75.2815 6.68H71.3135C71.3135 6.08267 71.1588 5.55467 70.8495 5.096C70.5402 4.62667 70.1028 4.264 69.5375 4.008C68.9828 3.74133 68.3375 3.608 67.6015 3.608C66.8762 3.608 66.2308 3.736 65.6655 3.992C65.1108 4.23733 64.6788 4.58933 64.3695 5.048C64.0602 5.496 63.9055 6.01333 63.9055 6.6C63.9055 7.29333 64.1295 7.896 64.5775 8.408C65.0255 8.90933 65.6175 9.224 66.3535 9.352L70.0815 9.96C71.1908 10.1413 72.1722 10.552 73.0255 11.192C73.8895 11.832 74.5562 12.6213 75.0255 13.56C75.5055 14.4987 75.7455 15.5013 75.7455 16.568C75.7455 17.8587 75.3988 19.0213 74.7055 20.056C74.0228 21.0907 73.0628 21.9067 71.8255 22.504C70.5882 23.0907 69.1748 23.384 67.5855 23.384ZM85.4085 23C84.5338 23 83.7445 22.8133 83.0405 22.44C82.3472 22.0667 81.8032 21.5493 81.4085 20.888C81.0245 20.2267 80.8325 19.4747 80.8325 18.632L80.8165 9.896H77.9365L77.9525 6.616H79.7445C80.1498 6.616 80.4752 6.49333 80.7205 6.248C80.9658 5.992 81.0885 5.66667 81.0885 5.272V2.632H84.6245V6.616H88.5605L88.5445 9.896H84.6085L84.6245 18.168C84.6245 18.616 84.7685 18.9893 85.0565 19.288C85.3552 19.576 85.7285 19.72 86.1765 19.72H88.5445V23H85.4085ZM99.6823 23.384C98.0503 23.384 96.5783 23.016 95.2663 22.28C93.9543 21.544 92.9196 20.5253 92.1623 19.224C91.4156 17.9227 91.0423 16.4507 91.0423 14.808C91.0423 13.1653 91.4156 11.6933 92.1623 10.392C92.9196 9.09067 93.9543 8.072 95.2663 7.336C96.5889 6.6 98.0663 6.232 99.6983 6.232C101.33 6.232 102.802 6.6 104.114 7.336C105.426 8.072 106.456 9.09067 107.202 10.392C107.949 11.6933 108.322 13.1653 108.322 14.808C108.322 16.4507 107.949 17.9227 107.202 19.224C106.456 20.5253 105.426 21.544 104.114 22.28C102.802 23.016 101.325 23.384 99.6823 23.384ZM94.9943 14.808C94.9943 15.8213 95.1969 16.7173 95.6023 17.496C96.0183 18.2747 96.5836 18.8827 97.2983 19.32C98.0129 19.7467 98.8183 19.96 99.7143 19.96C100.6 19.96 101.394 19.7467 102.098 19.32C102.813 18.8827 103.368 18.2747 103.762 17.496C104.168 16.7173 104.37 15.8213 104.37 14.808C104.37 13.7947 104.168 12.8987 103.762 12.12C103.357 11.3307 102.797 10.7227 102.082 10.296C101.378 9.85867 100.584 9.64 99.6983 9.64C98.8129 9.64 98.0129 9.85867 97.2983 10.296C96.5836 10.7227 96.0183 11.3307 95.6023 12.12C95.1969 12.8987 94.9943 13.7947 94.9943 14.808ZM111.789 6.616H115.565V9.08C116.087 8.248 116.738 7.61333 117.517 7.176C118.295 6.728 119.186 6.504 120.189 6.504H120.797V10.344H119.709C118.439 10.3333 117.437 10.6693 116.701 11.352C115.965 12.0347 115.597 12.968 115.597 14.152V23H111.789V6.616ZM123.601 6.616H127.297V9.08C127.788 8.16267 128.444 7.45867 129.265 6.968C130.087 6.47733 131.041 6.232 132.129 6.232C133.303 6.232 134.316 6.504 135.169 7.048C136.023 7.58133 136.673 8.344 137.121 9.336C137.655 8.35467 138.375 7.592 139.281 7.048C140.188 6.504 141.239 6.232 142.433 6.232C143.596 6.232 144.609 6.49867 145.473 7.032C146.348 7.55467 147.025 8.30133 147.505 9.272C147.985 10.2427 148.225 11.3733 148.225 12.664V23H144.417V13.112C144.417 12.0133 144.14 11.1493 143.585 10.52C143.041 9.88 142.273 9.56 141.281 9.56C140.577 9.56 139.959 9.72 139.425 10.04C138.903 10.36 138.497 10.8187 138.209 11.416C137.921 12.0027 137.777 12.696 137.777 13.496V23H134.049V13.112C134.049 12.0133 133.772 11.1493 133.217 10.52C132.663 9.88 131.895 9.56 130.913 9.56C129.836 9.56 128.983 9.91733 128.353 10.632C127.724 11.336 127.409 12.2907 127.409 13.496V23H123.601V6.616Z" fill="white"/>
</svg>
