<svg width="301" height="61" viewBox="0 0 301 61" fill="none" xmlns="http://www.w3.org/2000/svg">
<path d="M80.8636 0.599998H90.3356C91.8716 0.599998 93.221 0.882665 94.3836 1.448C95.5463 2.01333 96.4423 2.81333 97.0716 3.848C97.7116 4.872 98.0316 6.06133 98.0316 7.416C98.0316 8.78133 97.7063 9.98667 97.0556 11.032C96.4156 12.0773 95.5036 12.888 94.3196 13.464C93.1463 14.0293 91.7756 14.312 90.2076 14.312H84.7836V23H80.8636V0.599998ZM90.1276 10.968C91.2903 10.968 92.2183 10.6533 92.9116 10.024C93.605 9.384 93.9516 8.52533 93.9516 7.448C93.9516 6.38133 93.605 5.53333 92.9116 4.904C92.2183 4.27467 91.2903 3.96 90.1276 3.96H84.7836V10.968H90.1276ZM107.889 28.504C106.598 28.504 105.425 28.2907 104.369 27.864C103.323 27.448 102.47 26.856 101.809 26.088C101.158 25.3307 100.763 24.456 100.625 23.464H104.273C104.486 24.072 104.907 24.5573 105.537 24.92C106.177 25.2933 106.923 25.48 107.777 25.48C108.502 25.48 109.142 25.32 109.697 25C110.262 24.6907 110.705 24.2373 111.025 23.64C111.345 23.0427 111.51 22.3333 111.521 21.512L111.537 19.16C111.025 19.992 110.353 20.6267 109.521 21.064C108.699 21.5013 107.734 21.72 106.625 21.72C105.419 21.72 104.363 21.4533 103.457 20.92C102.55 20.3867 101.851 19.6347 101.361 18.664C100.87 17.6933 100.625 16.568 100.625 15.288V6.616H104.433V14.808C104.433 15.9387 104.721 16.824 105.297 17.464C105.873 18.104 106.673 18.424 107.697 18.424C108.454 18.424 109.121 18.248 109.697 17.896C110.273 17.544 110.715 17.048 111.025 16.408C111.334 15.7573 111.489 15 111.489 14.136V6.616H115.297V21.512C115.297 22.952 114.987 24.1947 114.369 25.24C113.761 26.296 112.897 27.1013 111.777 27.656C110.657 28.2213 109.361 28.504 107.889 28.504ZM130.297 23.384C128.175 23.384 126.26 22.8827 124.553 21.88C122.857 20.8773 121.524 19.496 120.553 17.736C119.583 15.9653 119.097 13.9867 119.097 11.8C119.097 9.61333 119.583 7.64 120.553 5.88C121.524 4.10933 122.857 2.72267 124.553 1.72C126.26 0.717333 128.175 0.216 130.297 0.216C132.089 0.216 133.748 0.594666 135.273 1.352C136.809 2.09867 138.052 3.10667 139.001 4.376C139.961 5.63467 140.516 6.99467 140.665 8.456H136.793C136.601 7.64533 136.191 6.88267 135.561 6.168C134.943 5.45333 134.169 4.88267 133.241 4.456C132.313 4.01867 131.327 3.8 130.281 3.8C128.916 3.8 127.689 4.14133 126.601 4.824C125.513 5.50667 124.66 6.456 124.041 7.672C123.433 8.888 123.129 10.264 123.129 11.8C123.129 13.336 123.433 14.712 124.041 15.928C124.66 17.144 125.513 18.0933 126.601 18.776C127.689 19.4587 128.916 19.8 130.281 19.8C131.327 19.8 132.313 19.5867 133.241 19.16C134.169 18.7333 134.943 18.168 135.561 17.464C136.191 16.7493 136.601 15.992 136.793 15.192H140.665C140.516 16.6427 139.961 17.9973 139.001 19.256C138.052 20.504 136.809 21.5067 135.273 22.264C133.748 23.0107 132.089 23.384 130.297 23.384ZM144.398 0.599998H148.126V5.656L148.078 8.696V9.064C148.601 8.14667 149.299 7.448 150.174 6.968C151.049 6.47733 152.062 6.232 153.214 6.232C154.377 6.232 155.406 6.488 156.302 7C157.198 7.512 157.897 8.25333 158.398 9.224C158.899 10.1947 159.15 11.352 159.15 12.696V23H155.342V13.272C155.342 12.1093 155.043 11.2027 154.446 10.552C153.849 9.90133 153.022 9.576 151.966 9.576C151.219 9.576 150.558 9.74133 149.982 10.072C149.417 10.4027 148.979 10.8667 148.67 11.464C148.361 12.0613 148.206 12.744 148.206 13.512V23H144.398V0.599998ZM179.158 6.616V23H175.446V20.568C174.849 21.464 174.065 22.1573 173.094 22.648C172.134 23.1387 171.046 23.384 169.83 23.384C168.358 23.384 167.041 23.0267 165.878 22.312C164.726 21.5867 163.825 20.5733 163.174 19.272C162.534 17.9707 162.214 16.4827 162.214 14.808C162.214 13.1333 162.534 11.6453 163.174 10.344C163.825 9.04267 164.726 8.03467 165.878 7.32C167.041 6.59467 168.358 6.232 169.83 6.232C171.046 6.232 172.134 6.47733 173.094 6.968C174.065 7.45867 174.849 8.152 175.446 9.048V6.616H179.158ZM166.166 14.808C166.166 15.8213 166.358 16.7227 166.742 17.512C167.137 18.2907 167.681 18.8987 168.374 19.336C169.078 19.7627 169.883 19.976 170.79 19.976C171.697 19.976 172.502 19.7627 173.206 19.336C173.91 18.8987 174.459 18.2907 174.854 17.512C175.249 16.7227 175.446 15.8213 175.446 14.808C175.446 13.7947 175.249 12.8987 174.854 12.12C174.459 11.3307 173.91 10.7227 173.206 10.296C172.502 9.85867 171.697 9.64 170.79 9.64C169.883 9.64 169.078 9.85867 168.374 10.296C167.681 10.7227 167.137 11.3307 166.742 12.12C166.358 12.8987 166.166 13.7947 166.166 14.808ZM183.617 6.616H187.393V9.08C187.916 8.248 188.566 7.61333 189.345 7.176C190.124 6.728 191.014 6.504 192.017 6.504H192.625V10.344H191.537C190.268 10.3333 189.265 10.6693 188.529 11.352C187.793 12.0347 187.425 12.968 187.425 14.152V23H183.617V6.616ZM195.429 6.616H199.125V9.08C199.616 8.16267 200.272 7.45867 201.093 6.968C201.915 6.47733 202.869 6.232 203.957 6.232C205.131 6.232 206.144 6.504 206.997 7.048C207.851 7.58133 208.501 8.344 208.949 9.336C209.483 8.35467 210.203 7.592 211.109 7.048C212.016 6.504 213.067 6.232 214.261 6.232C215.424 6.232 216.437 6.49867 217.301 7.032C218.176 7.55467 218.853 8.30133 219.333 9.272C219.813 10.2427 220.053 11.3733 220.053 12.664V23H216.245V13.112C216.245 12.0133 215.968 11.1493 215.413 10.52C214.869 9.88 214.101 9.56 213.109 9.56C212.405 9.56 211.787 9.72 211.253 10.04C210.731 10.36 210.325 10.8187 210.037 11.416C209.749 12.0027 209.605 12.696 209.605 13.496V23H205.877V13.112C205.877 12.0133 205.6 11.1493 205.045 10.52C204.491 9.88 203.723 9.56 202.741 9.56C201.664 9.56 200.811 9.91733 200.181 10.632C199.552 11.336 199.237 12.2907 199.237 13.496V23H195.429V6.616ZM0.37925 37.6H9.85125C11.3873 37.6 12.7366 37.8827 13.8993 38.448C15.0619 39.0133 15.9579 39.8133 16.5873 40.848C17.2273 41.872 17.5473 43.0613 17.5473 44.416C17.5473 45.7813 17.2219 46.9867 16.5713 48.032C15.9313 49.0773 15.0193 49.888 13.8353 50.464C12.6619 51.0293 11.2913 51.312 9.72325 51.312H4.29925V60H0.37925V37.6ZM9.64325 47.968C10.8059 47.968 11.7339 47.6533 12.4273 47.024C13.1206 46.384 13.4673 45.5253 13.4673 44.448C13.4673 43.3813 13.1206 42.5333 12.4273 41.904C11.7339 41.2747 10.8059 40.96 9.64325 40.96H4.29925V47.968H9.64325ZM20.4763 43.616H24.2523V46.08C24.7749 45.248 25.4256 44.6133 26.2043 44.176C26.9829 43.728 27.8736 43.504 28.8763 43.504H29.4843V47.344H28.3963C27.1269 47.3333 26.1243 47.6693 25.3883 48.352C24.6523 49.0347 24.2843 49.968 24.2843 51.152V60H20.4763V43.616ZM39.651 60.384C38.019 60.384 36.547 60.016 35.235 59.28C33.923 58.544 32.8883 57.5253 32.131 56.224C31.3843 54.9227 31.011 53.4507 31.011 51.808C31.011 50.1653 31.3843 48.6933 32.131 47.392C32.8883 46.0907 33.923 45.072 35.235 44.336C36.5577 43.6 38.035 43.232 39.667 43.232C41.299 43.232 42.771 43.6 44.083 44.336C45.395 45.072 46.4243 46.0907 47.171 47.392C47.9177 48.6933 48.291 50.1653 48.291 51.808C48.291 53.4507 47.9177 54.9227 47.171 56.224C46.4243 57.5253 45.395 58.544 44.083 59.28C42.771 60.016 41.2937 60.384 39.651 60.384ZM34.963 51.808C34.963 52.8213 35.1657 53.7173 35.571 54.496C35.987 55.2747 36.5523 55.8827 37.267 56.32C37.9817 56.7467 38.787 56.96 39.683 56.96C40.5683 56.96 41.363 56.7467 42.067 56.32C42.7817 55.8827 43.3363 55.2747 43.731 54.496C44.1363 53.7173 44.339 52.8213 44.339 51.808C44.339 50.7947 44.1363 49.8987 43.731 49.12C43.3257 48.3307 42.7657 47.7227 42.051 47.296C41.347 46.8587 40.5523 46.64 39.667 46.64C38.7817 46.64 37.9817 46.8587 37.267 47.296C36.5523 47.7227 35.987 48.3307 35.571 49.12C35.1657 49.8987 34.963 50.7947 34.963 51.808ZM53.2295 46.896H50.3335V43.616H53.2295V41.76C53.2295 40.9387 53.4162 40.2133 53.7895 39.584C54.1735 38.9547 54.7068 38.4693 55.3895 38.128C56.0828 37.776 56.8828 37.6 57.7895 37.6H61.1495V40.64H58.4935C58.0562 40.64 57.6988 40.7787 57.4215 41.056C57.1548 41.3227 57.0215 41.6747 57.0215 42.112V43.616H61.0215V46.896H57.0215V60H53.2295V46.896ZM70.988 60.384C69.388 60.384 67.948 60.016 66.668 59.28C65.3987 58.544 64.4067 57.5253 63.692 56.224C62.9773 54.912 62.62 53.4347 62.62 51.792C62.62 50.1707 62.9827 48.7093 63.708 47.408C64.4333 46.1067 65.4307 45.088 66.7 44.352C67.98 43.6053 69.4093 43.232 70.988 43.232C72.6093 43.232 74.028 43.6 75.244 44.336C76.4707 45.072 77.4147 46.0907 78.076 47.392C78.7373 48.6827 79.068 50.1493 79.068 51.792V52.832H66.572C66.6787 53.6853 66.94 54.4373 67.356 55.088C67.772 55.7387 68.3053 56.2453 68.956 56.608C69.6067 56.96 70.332 57.136 71.132 57.136C72.0707 57.136 72.8653 56.9973 73.516 56.72C74.1667 56.4427 74.668 56.0427 75.02 55.52H78.78C78.6093 56.32 78.188 57.0933 77.516 57.84C76.844 58.5867 75.948 59.2 74.828 59.68C73.708 60.1493 72.428 60.384 70.988 60.384ZM75.164 50.192C74.972 49.0187 74.5187 48.0907 73.804 47.408C73.1 46.7253 72.1667 46.384 71.004 46.384C69.852 46.384 68.8813 46.7253 68.092 47.408C67.3133 48.0907 66.8173 49.0187 66.604 50.192H75.164ZM88.5875 60.384C87.2328 60.384 86.0062 60.1813 84.9075 59.776C83.8088 59.36 82.9395 58.784 82.2995 58.048C81.6702 57.3013 81.3395 56.4533 81.3075 55.504H85.1315C85.1635 55.8773 85.3288 56.2133 85.6275 56.512C85.9368 56.8107 86.3422 57.0453 86.8435 57.216C87.3555 57.3867 87.9262 57.472 88.5555 57.472C89.1848 57.472 89.7395 57.3813 90.2195 57.2C90.6995 57.0187 91.0675 56.768 91.3235 56.448C91.5902 56.1173 91.7235 55.744 91.7235 55.328C91.7235 54.8693 91.5848 54.48 91.3075 54.16C91.0408 53.84 90.6675 53.6427 90.1875 53.568L85.9955 52.928C84.7048 52.7253 83.6862 52.208 82.9395 51.376C82.2035 50.544 81.8355 49.5093 81.8355 48.272C81.8355 47.3333 82.1128 46.4853 82.6675 45.728C83.2222 44.96 83.9955 44.3573 84.9875 43.92C85.9902 43.4827 87.1315 43.264 88.4115 43.264C89.6808 43.264 90.8222 43.4667 91.8355 43.872C92.8595 44.2667 93.6648 44.816 94.2515 45.52C94.8488 46.2133 95.1688 47.0027 95.2115 47.888H91.3555C91.3128 47.3867 91.0142 46.976 90.4595 46.656C89.9048 46.336 89.2115 46.176 88.3795 46.176C87.5475 46.176 86.8702 46.3573 86.3475 46.72C85.8248 47.0827 85.5635 47.5413 85.5635 48.096C85.5635 48.5227 85.6915 48.88 85.9475 49.168C86.2142 49.456 86.5928 49.6373 87.0835 49.712L91.1955 50.32C92.0702 50.4373 92.8328 50.7253 93.4835 51.184C94.1342 51.632 94.6302 52.1973 94.9715 52.88C95.3235 53.5627 95.4995 54.3093 95.4995 55.12C95.4995 56.1333 95.2008 57.04 94.6035 57.84C94.0168 58.64 93.1955 59.264 92.1395 59.712C91.0942 60.16 89.9102 60.384 88.5875 60.384ZM104.963 60.384C103.608 60.384 102.381 60.1813 101.283 59.776C100.184 59.36 99.3145 58.784 98.6745 58.048C98.0452 57.3013 97.7145 56.4533 97.6825 55.504H101.507C101.539 55.8773 101.704 56.2133 102.003 56.512C102.312 56.8107 102.717 57.0453 103.219 57.216C103.731 57.3867 104.301 57.472 104.931 57.472C105.56 57.472 106.115 57.3813 106.595 57.2C107.075 57.0187 107.443 56.768 107.699 56.448C107.965 56.1173 108.099 55.744 108.099 55.328C108.099 54.8693 107.96 54.48 107.683 54.16C107.416 53.84 107.043 53.6427 106.562 53.568L102.371 52.928C101.08 52.7253 100.061 52.208 99.3145 51.376C98.5785 50.544 98.2105 49.5093 98.2105 48.272C98.2105 47.3333 98.4878 46.4853 99.0425 45.728C99.5972 44.96 100.371 44.3573 101.363 43.92C102.365 43.4827 103.507 43.264 104.786 43.264C106.056 43.264 107.197 43.4667 108.211 43.872C109.235 44.2667 110.04 44.816 110.627 45.52C111.224 46.2133 111.544 47.0027 111.587 47.888H107.731C107.688 47.3867 107.389 46.976 106.835 46.656C106.28 46.336 105.587 46.176 104.755 46.176C103.923 46.176 103.245 46.3573 102.723 46.72C102.2 47.0827 101.939 47.5413 101.939 48.096C101.939 48.5227 102.067 48.88 102.323 49.168C102.589 49.456 102.968 49.6373 103.459 49.712L107.571 50.32C108.445 50.4373 109.208 50.7253 109.859 51.184C110.509 51.632 111.005 52.1973 111.347 52.88C111.699 53.5627 111.875 54.3093 111.875 55.12C111.875 56.1333 111.576 57.04 110.979 57.84C110.392 58.64 109.571 59.264 108.515 59.712C107.469 60.16 106.285 60.384 104.963 60.384ZM115.383 43.616H119.191V60H115.383V43.616ZM119.335 37.6V41.216H115.207V37.6H119.335ZM131.276 60.384C129.644 60.384 128.172 60.016 126.86 59.28C125.548 58.544 124.513 57.5253 123.756 56.224C123.009 54.9227 122.636 53.4507 122.636 51.808C122.636 50.1653 123.009 48.6933 123.756 47.392C124.513 46.0907 125.548 45.072 126.86 44.336C128.183 43.6 129.66 43.232 131.292 43.232C132.924 43.232 134.396 43.6 135.708 44.336C137.02 45.072 138.049 46.0907 138.796 47.392C139.543 48.6933 139.916 50.1653 139.916 51.808C139.916 53.4507 139.543 54.9227 138.796 56.224C138.049 57.5253 137.02 58.544 135.708 59.28C134.396 60.016 132.919 60.384 131.276 60.384ZM126.588 51.808C126.588 52.8213 126.791 53.7173 127.196 54.496C127.612 55.2747 128.177 55.8827 128.892 56.32C129.607 56.7467 130.412 56.96 131.308 56.96C132.193 56.96 132.988 56.7467 133.692 56.32C134.407 55.8827 134.961 55.2747 135.356 54.496C135.761 53.7173 135.964 52.8213 135.964 51.808C135.964 50.7947 135.761 49.8987 135.356 49.12C134.951 48.3307 134.391 47.7227 133.676 47.296C132.972 46.8587 132.177 46.64 131.292 46.64C130.407 46.64 129.607 46.8587 128.892 47.296C128.177 47.7227 127.612 48.3307 127.196 49.12C126.791 49.8987 126.588 50.7947 126.588 51.808ZM143.383 43.616H147.079V45.968C147.612 45.0827 148.311 44.4053 149.175 43.936C150.049 43.4667 151.052 43.232 152.183 43.232C153.356 43.232 154.391 43.488 155.287 44C156.193 44.512 156.897 45.2533 157.399 46.224C157.9 47.1947 158.151 48.352 158.151 49.696V60H154.343V50.272C154.343 49.1093 154.039 48.2027 153.431 47.552C152.833 46.9013 152.007 46.576 150.951 46.576C150.204 46.576 149.543 46.7413 148.967 47.072C148.401 47.4027 147.959 47.8667 147.639 48.464C147.329 49.0613 147.175 49.744 147.175 50.512V60H143.383V43.616ZM168.927 43.232C170.26 43.232 171.439 43.472 172.463 43.952C173.487 44.4213 174.281 45.104 174.847 46C175.412 46.8853 175.695 47.936 175.695 49.152V60H172.015V57.616C171.503 58.512 170.804 59.2 169.919 59.68C169.044 60.1493 168.009 60.384 166.815 60.384C165.759 60.384 164.809 60.1867 163.967 59.792C163.135 59.3867 162.484 58.8267 162.015 58.112C161.545 57.3867 161.311 56.5653 161.311 55.648C161.311 54.7733 161.535 53.968 161.983 53.232C162.441 52.4853 163.076 51.8773 163.887 51.408C164.697 50.9387 165.609 50.6507 166.623 50.544L170.895 50.096C171.225 50.064 171.487 49.9467 171.679 49.744C171.871 49.5307 171.967 49.2213 171.967 48.816C171.956 48.0373 171.663 47.408 171.087 46.928C170.511 46.448 169.759 46.208 168.831 46.208C168.233 46.208 167.684 46.3147 167.183 46.528C166.692 46.7307 166.297 47.008 165.999 47.36C165.7 47.712 165.524 48.1013 165.471 48.528H161.711C161.817 47.504 162.196 46.592 162.847 45.792C163.497 44.992 164.351 44.368 165.407 43.92C166.463 43.4613 167.636 43.232 168.927 43.232ZM165.183 55.216C165.183 55.8987 165.449 56.4533 165.983 56.88C166.516 57.3067 167.204 57.52 168.047 57.52C168.815 57.52 169.492 57.3653 170.079 57.056C170.676 56.7467 171.14 56.32 171.471 55.776C171.801 55.2213 171.967 54.5867 171.967 53.872V52.416L167.535 52.928C166.831 53.0027 166.26 53.2427 165.823 53.648C165.396 54.0533 165.183 54.576 165.183 55.216ZM179.976 37.6H183.768V60H179.976V37.6ZM196.192 37.6H212.224V41.072H200.048V46.992H211.136V50.48H200.048V56.512H212.544V60H196.192V37.6ZM228.524 57.616C227.926 58.5013 227.148 59.184 226.188 59.664C225.228 60.144 224.145 60.384 222.94 60.384C221.468 60.384 220.15 60.0267 218.988 59.312C217.836 58.5867 216.934 57.5733 216.284 56.272C215.644 54.9707 215.324 53.4827 215.324 51.808C215.324 50.1333 215.644 48.6453 216.284 47.344C216.934 46.0427 217.836 45.0347 218.988 44.32C220.15 43.5947 221.468 43.232 222.94 43.232C224.145 43.232 225.228 43.472 226.188 43.952C227.148 44.432 227.926 45.1147 228.524 46V37.6H232.316V60H228.524V57.616ZM219.276 51.808C219.276 52.8213 219.468 53.7227 219.852 54.512C220.246 55.2907 220.79 55.8987 221.484 56.336C222.188 56.7627 222.993 56.976 223.9 56.976C224.742 56.976 225.494 56.7893 226.156 56.416C226.828 56.0427 227.366 55.52 227.772 54.848C228.188 54.1653 228.438 53.376 228.524 52.48V51.136C228.438 50.24 228.188 49.456 227.772 48.784C227.366 48.1013 226.828 47.5733 226.156 47.2C225.494 46.8267 224.742 46.64 223.9 46.64C222.993 46.64 222.188 46.8587 221.484 47.296C220.79 47.7227 220.246 48.3307 219.852 49.12C219.468 49.8987 219.276 50.7947 219.276 51.808ZM236.758 43.616H240.566V60H236.758V43.616ZM240.71 37.6V41.216H236.582V37.6H240.71ZM250.971 60C250.096 60 249.307 59.8133 248.603 59.44C247.91 59.0667 247.366 58.5493 246.971 57.888C246.587 57.2267 246.395 56.4747 246.395 55.632L246.379 46.896H243.499L243.515 43.616H245.307C245.712 43.616 246.038 43.4933 246.283 43.248C246.528 42.992 246.651 42.6667 246.651 42.272V39.632H250.187V43.616H254.123L254.107 46.896H250.171L250.187 55.168C250.187 55.616 250.331 55.9893 250.619 56.288C250.918 56.576 251.291 56.72 251.739 56.72H254.107V60H250.971ZM257.789 43.616H261.597V60H257.789V43.616ZM261.741 37.6V41.216H257.613V37.6H261.741ZM273.682 60.384C272.05 60.384 270.578 60.016 269.266 59.28C267.954 58.544 266.92 57.5253 266.162 56.224C265.416 54.9227 265.042 53.4507 265.042 51.808C265.042 50.1653 265.416 48.6933 266.162 47.392C266.92 46.0907 267.954 45.072 269.266 44.336C270.589 43.6 272.066 43.232 273.698 43.232C275.33 43.232 276.802 43.6 278.114 44.336C279.426 45.072 280.456 46.0907 281.202 47.392C281.949 48.6933 282.322 50.1653 282.322 51.808C282.322 53.4507 281.949 54.9227 281.202 56.224C280.456 57.5253 279.426 58.544 278.114 59.28C276.802 60.016 275.325 60.384 273.682 60.384ZM268.994 51.808C268.994 52.8213 269.197 53.7173 269.602 54.496C270.018 55.2747 270.584 55.8827 271.298 56.32C272.013 56.7467 272.818 56.96 273.714 56.96C274.6 56.96 275.394 56.7467 276.098 56.32C276.813 55.8827 277.368 55.2747 277.762 54.496C278.168 53.7173 278.37 52.8213 278.37 51.808C278.37 50.7947 278.168 49.8987 277.762 49.12C277.357 48.3307 276.797 47.7227 276.082 47.296C275.378 46.8587 274.584 46.64 273.698 46.64C272.813 46.64 272.013 46.8587 271.298 47.296C270.584 47.7227 270.018 48.3307 269.602 49.12C269.197 49.8987 268.994 50.7947 268.994 51.808ZM285.789 43.616H289.485V45.968C290.018 45.0827 290.717 44.4053 291.581 43.936C292.455 43.4667 293.458 43.232 294.589 43.232C295.762 43.232 296.797 43.488 297.693 44C298.599 44.512 299.303 45.2533 299.805 46.224C300.306 47.1947 300.557 48.352 300.557 49.696V60H296.749V50.272C296.749 49.1093 296.445 48.2027 295.837 47.552C295.239 46.9013 294.413 46.576 293.357 46.576C292.61 46.576 291.949 46.7413 291.373 47.072C290.807 47.4027 290.365 47.8667 290.045 48.464C289.735 49.0613 289.581 49.744 289.581 50.512V60H285.789V43.616Z" fill="white"/>
</svg>
