<svg width="78" height="24" viewBox="0 0 78 24" fill="none" xmlns="http://www.w3.org/2000/svg">
<path d="M8.26538 14.312H4.37738V23H0.457375V0.599998H9.92938C11.4654 0.599998 12.8147 0.882665 13.9774 1.448C15.14 2.01333 16.036 2.81333 16.6654 3.848C17.3054 4.872 17.6254 6.06133 17.6254 7.416C17.6254 9.08 17.156 10.4933 16.2174 11.656C15.2787 12.8187 13.988 13.6027 12.3454 14.008L17.7534 23H13.3054L8.26538 14.312ZM9.72138 10.968C10.884 10.968 11.812 10.6533 12.5054 10.024C13.1987 9.384 13.5454 8.52533 13.5454 7.448C13.5454 6.38133 13.1987 5.53333 12.5054 4.904C11.812 4.27467 10.884 3.96 9.72138 3.96H4.37738V10.968H9.72138ZM21.5231 6.616H25.3311V23H21.5231V6.616ZM25.4751 0.599998V4.216H21.3471V0.599998H25.4751ZM41.9766 20.616C41.3793 21.5013 40.6006 22.184 39.6406 22.664C38.6806 23.144 37.598 23.384 36.3926 23.384C34.9206 23.384 33.6033 23.0267 32.4406 22.312C31.2886 21.5867 30.3873 20.5733 29.7366 19.272C29.0966 17.9707 28.7766 16.4827 28.7766 14.808C28.7766 13.1333 29.0966 11.6453 29.7366 10.344C30.3873 9.04267 31.2886 8.03467 32.4406 7.32C33.6033 6.59467 34.9206 6.232 36.3926 6.232C37.598 6.232 38.6806 6.472 39.6406 6.952C40.6006 7.432 41.3793 8.11467 41.9766 9V0.599998H45.7686V23H41.9766V20.616ZM32.7286 14.808C32.7286 15.8213 32.9206 16.7227 33.3046 17.512C33.6993 18.2907 34.2433 18.8987 34.9366 19.336C35.6406 19.7627 36.446 19.976 37.3526 19.976C38.1953 19.976 38.9473 19.7893 39.6086 19.416C40.2806 19.0427 40.8193 18.52 41.2246 17.848C41.6406 17.1653 41.8913 16.376 41.9766 15.48V14.136C41.8913 13.24 41.6406 12.456 41.2246 11.784C40.8193 11.1013 40.2806 10.5733 39.6086 10.2C38.9473 9.82667 38.1953 9.64 37.3526 9.64C36.446 9.64 35.6406 9.85867 34.9366 10.296C34.2433 10.7227 33.6993 11.3307 33.3046 12.12C32.9206 12.8987 32.7286 13.7947 32.7286 14.808ZM57.3786 23.384C55.7786 23.384 54.3386 23.016 53.0586 22.28C51.7893 21.544 50.7973 20.5253 50.0826 19.224C49.368 17.912 49.0106 16.4347 49.0106 14.792C49.0106 13.1707 49.3733 11.7093 50.0986 10.408C50.824 9.10667 51.8213 8.088 53.0906 7.352C54.3706 6.60533 55.8 6.232 57.3786 6.232C59 6.232 60.4186 6.6 61.6346 7.336C62.8613 8.072 63.8053 9.09067 64.4666 10.392C65.128 11.6827 65.4586 13.1493 65.4586 14.792V15.832H52.9626C53.0693 16.6853 53.3306 17.4373 53.7466 18.088C54.1626 18.7387 54.696 19.2453 55.3466 19.608C55.9973 19.96 56.7226 20.136 57.5226 20.136C58.4613 20.136 59.256 19.9973 59.9066 19.72C60.5573 19.4427 61.0586 19.0427 61.4106 18.52H65.1706C65 19.32 64.5786 20.0933 63.9066 20.84C63.2346 21.5867 62.3386 22.2 61.2186 22.68C60.0986 23.1493 58.8186 23.384 57.3786 23.384ZM61.5546 13.192C61.3626 12.0187 60.9093 11.0907 60.1946 10.408C59.4906 9.72533 58.5573 9.384 57.3946 9.384C56.2426 9.384 55.272 9.72533 54.4826 10.408C53.704 11.0907 53.208 12.0187 52.9946 13.192H61.5546ZM68.8981 6.616H72.6741V9.08C73.1968 8.248 73.8475 7.61333 74.6261 7.176C75.4048 6.728 76.2955 6.504 77.2981 6.504H77.9061V10.344H76.8181C75.5488 10.3333 74.5461 10.6693 73.8101 11.352C73.0741 12.0347 72.7061 12.968 72.7061 14.152V23H68.8981V6.616Z" fill="black"/>
</svg>
