<svg width="154" height="29" viewBox="0 0 154 29" fill="none" xmlns="http://www.w3.org/2000/svg">
<path d="M8.531 14.312H4.643V23H0.723V0.599998H10.195C11.731 0.599998 13.0803 0.882665 14.243 1.448C15.4057 2.01333 16.3017 2.81333 16.931 3.848C17.571 4.872 17.891 6.06133 17.891 7.416C17.891 9.08 17.4217 10.4933 16.483 11.656C15.5443 12.8187 14.2537 13.6027 12.611 14.008L18.019 23H13.571L8.531 14.312ZM9.987 10.968C11.1497 10.968 12.0777 10.6533 12.771 10.024C13.4643 9.384 13.811 8.52533 13.811 7.448C13.811 6.38133 13.4643 5.53333 12.771 4.904C12.0777 4.27467 11.1497 3.96 9.987 3.96H4.643V10.968H9.987ZM36.0318 23H32.3358V20.648C31.8024 21.5333 31.0984 22.2107 30.2238 22.68C29.3598 23.1493 28.3624 23.384 27.2318 23.384C26.0584 23.384 25.0184 23.128 24.1118 22.616C23.2158 22.104 22.5171 21.3627 22.0158 20.392C21.5144 19.4213 21.2638 18.264 21.2638 16.92V6.616H25.0718V16.344C25.0718 17.5067 25.3704 18.4133 25.9678 19.064C26.5758 19.7147 27.4078 20.04 28.4638 20.04C29.2104 20.04 29.8664 19.8747 30.4318 19.544C31.0078 19.2133 31.4504 18.7493 31.7598 18.152C32.0798 17.5547 32.2398 16.872 32.2398 16.104V6.616H36.0318V23ZM40.6638 0.599998H44.4558V9C45.0531 8.11467 45.8318 7.432 46.7917 6.952C47.7518 6.472 48.8344 6.232 50.0398 6.232C51.5118 6.232 52.8238 6.59467 53.9758 7.32C55.1384 8.03467 56.0398 9.04267 56.6798 10.344C57.3304 11.6453 57.6558 13.1333 57.6558 14.808C57.6558 16.4827 57.3304 17.9707 56.6798 19.272C56.0398 20.5733 55.1384 21.5867 53.9758 22.312C52.8238 23.0267 51.5118 23.384 50.0398 23.384C48.8344 23.384 47.7518 23.144 46.7917 22.664C45.8318 22.184 45.0531 21.5013 44.4558 20.616V23H40.6638V0.599998ZM44.4558 15.48C44.5411 16.376 44.7864 17.1653 45.1918 17.848C45.6078 18.52 46.1464 19.0427 46.8078 19.416C47.4798 19.7893 48.2371 19.976 49.0798 19.976C49.9864 19.976 50.7864 19.7627 51.4798 19.336C52.1838 18.8987 52.7278 18.2907 53.1118 17.512C53.5064 16.7227 53.7038 15.8213 53.7038 14.808C53.7038 13.7947 53.5064 12.8987 53.1118 12.12C52.7278 11.3307 52.1838 10.7227 51.4798 10.296C50.7864 9.85867 49.9864 9.64 49.0798 9.64C48.2371 9.64 47.4798 9.82667 46.8078 10.2C46.1464 10.5733 45.6078 11.1013 45.1918 11.784C44.7864 12.456 44.5411 13.24 44.4558 14.136V15.48ZM68.0293 28.504C66.7386 28.504 65.5653 28.2907 64.5093 27.864C63.4639 27.448 62.6106 26.856 61.9493 26.088C61.2986 25.3307 60.9039 24.456 60.7653 23.464H64.4133C64.6266 24.072 65.0479 24.5573 65.6773 24.92C66.3173 25.2933 67.0639 25.48 67.9173 25.48C68.6426 25.48 69.2826 25.32 69.8373 25C70.4026 24.6907 70.8453 24.2373 71.1653 23.64C71.4853 23.0427 71.6506 22.3333 71.6613 21.512L71.6773 19.16C71.1653 19.992 70.4933 20.6267 69.6613 21.064C68.8399 21.5013 67.8746 21.72 66.7653 21.72C65.5599 21.72 64.5039 21.4533 63.5973 20.92C62.6906 20.3867 61.9919 19.6347 61.5013 18.664C61.0106 17.6933 60.7653 16.568 60.7653 15.288V6.616H64.5733V14.808C64.5733 15.9387 64.8613 16.824 65.4373 17.464C66.0133 18.104 66.8133 18.424 67.8373 18.424C68.5946 18.424 69.2613 18.248 69.8373 17.896C70.4133 17.544 70.8559 17.048 71.1653 16.408C71.4746 15.7573 71.6293 15 71.6293 14.136V6.616H75.4373V21.512C75.4373 22.952 75.1279 24.1947 74.5093 25.24C73.9013 26.296 73.0373 27.1013 71.9173 27.656C70.7973 28.2213 69.5013 28.504 68.0293 28.504ZM80.598 0.599998H85.67L92.534 16.776L92.918 18.024L93.286 16.776L100.006 0.599998H105.142V23H101.222V7.064L101.27 6.216L94.31 23H91.382L84.454 6.328L84.502 7.064V23H80.598V0.599998ZM110.32 6.616H114.128V23H110.32V6.616ZM114.272 0.599998V4.216H110.144V0.599998H114.272ZM118.758 6.616H122.454V8.968C122.987 8.08267 123.686 7.40533 124.55 6.936C125.424 6.46667 126.427 6.232 127.558 6.232C128.731 6.232 129.766 6.488 130.662 7C131.568 7.512 132.272 8.25333 132.774 9.224C133.275 10.1947 133.526 11.352 133.526 12.696V23H129.718V13.272C129.718 12.1093 129.414 11.2027 128.806 10.552C128.208 9.90133 127.382 9.576 126.326 9.576C125.579 9.576 124.918 9.74133 124.342 10.072C123.776 10.4027 123.334 10.8667 123.014 11.464C122.704 12.0613 122.55 12.744 122.55 13.512V23H118.758V6.616ZM144.926 23.384C143.326 23.384 141.886 23.016 140.606 22.28C139.336 21.544 138.344 20.5253 137.63 19.224C136.915 17.912 136.558 16.4347 136.558 14.792C136.558 13.1707 136.92 11.7093 137.646 10.408C138.371 9.10667 139.368 8.088 140.638 7.352C141.918 6.60533 143.347 6.232 144.926 6.232C146.547 6.232 147.966 6.6 149.182 7.336C150.408 8.072 151.352 9.09067 152.014 10.392C152.675 11.6827 153.006 13.1493 153.006 14.792V15.832H140.51C140.616 16.6853 140.878 17.4373 141.294 18.088C141.71 18.7387 142.243 19.2453 142.894 19.608C143.544 19.96 144.27 20.136 145.07 20.136C146.008 20.136 146.803 19.9973 147.454 19.72C148.104 19.4427 148.606 19.0427 148.958 18.52H152.718C152.547 19.32 152.126 20.0933 151.454 20.84C150.782 21.5867 149.886 22.2 148.766 22.68C147.646 23.1493 146.366 23.384 144.926 23.384ZM149.102 13.192C148.91 12.0187 148.456 11.0907 147.742 10.408C147.038 9.72533 146.104 9.384 144.942 9.384C143.79 9.384 142.819 9.72533 142.03 10.408C141.251 11.0907 140.755 12.0187 140.542 13.192H149.102Z" fill="black"/>
</svg>
