<svg width="154" height="24" viewBox="0 0 154 24" fill="none" xmlns="http://www.w3.org/2000/svg">
<path d="M8.45288 14.312H4.56488V23H0.644875V0.599998H10.1169C11.6529 0.599998 13.0022 0.882665 14.1649 1.448C15.3275 2.01333 16.2235 2.81333 16.8529 3.848C17.4929 4.872 17.8129 6.06133 17.8129 7.416C17.8129 9.08 17.3435 10.4933 16.4049 11.656C15.4662 12.8187 14.1755 13.6027 12.5329 14.008L17.9409 23H13.4929L8.45288 14.312ZM9.90888 10.968C11.0715 10.968 11.9995 10.6533 12.6929 10.024C13.3862 9.384 13.7329 8.52533 13.7329 7.448C13.7329 6.38133 13.3862 5.53333 12.6929 4.904C11.9995 4.27467 11.0715 3.96 9.90888 3.96H4.56488V10.968H9.90888ZM35.9536 23H32.2576V20.648C31.7243 21.5333 31.0203 22.2107 30.1456 22.68C29.2816 23.1493 28.2843 23.384 27.1536 23.384C25.9803 23.384 24.9403 23.128 24.0336 22.616C23.1376 22.104 22.439 21.3627 21.9376 20.392C21.4363 19.4213 21.1856 18.264 21.1856 16.92V6.616H24.9936V16.344C24.9936 17.5067 25.2923 18.4133 25.8896 19.064C26.4976 19.7147 27.3296 20.04 28.3856 20.04C29.1323 20.04 29.7883 19.8747 30.3536 19.544C30.9296 19.2133 31.3723 18.7493 31.6816 18.152C32.0016 17.5547 32.1616 16.872 32.1616 16.104V6.616H35.9536V23ZM46.6656 23.384C45.311 23.384 44.0843 23.1813 42.9856 22.776C41.887 22.36 41.0176 21.784 40.3776 21.048C39.7483 20.3013 39.4176 19.4533 39.3856 18.504H43.2096C43.2416 18.8773 43.407 19.2133 43.7056 19.512C44.015 19.8107 44.4203 20.0453 44.9216 20.216C45.4336 20.3867 46.0043 20.472 46.6336 20.472C47.263 20.472 47.8176 20.3813 48.2976 20.2C48.7776 20.0187 49.1456 19.768 49.4016 19.448C49.6683 19.1173 49.8016 18.744 49.8016 18.328C49.8016 17.8693 49.663 17.48 49.3856 17.16C49.119 16.84 48.7456 16.6427 48.2656 16.568L44.0736 15.928C42.783 15.7253 41.7643 15.208 41.0176 14.376C40.2816 13.544 39.9136 12.5093 39.9136 11.272C39.9136 10.3333 40.191 9.48533 40.7456 8.728C41.3003 7.96 42.0736 7.35733 43.0656 6.92C44.0683 6.48267 45.2096 6.264 46.4896 6.264C47.759 6.264 48.9003 6.46667 49.9136 6.872C50.9376 7.26667 51.743 7.816 52.3296 8.52C52.927 9.21333 53.247 10.0027 53.2896 10.888H49.4336C49.391 10.3867 49.0923 9.976 48.5376 9.656C47.983 9.336 47.2896 9.176 46.4576 9.176C45.6256 9.176 44.9483 9.35733 44.4256 9.72C43.903 10.0827 43.6416 10.5413 43.6416 11.096C43.6416 11.5227 43.7696 11.88 44.0256 12.168C44.2923 12.456 44.671 12.6373 45.1616 12.712L49.2736 13.32C50.1483 13.4373 50.911 13.7253 51.5616 14.184C52.2123 14.632 52.7083 15.1973 53.0496 15.88C53.4016 16.5627 53.5776 17.3093 53.5776 18.12C53.5776 19.1333 53.279 20.04 52.6816 20.84C52.095 21.64 51.2736 22.264 50.2176 22.712C49.1723 23.16 47.9883 23.384 46.6656 23.384ZM62.8616 23C61.987 23 61.1976 22.8133 60.4936 22.44C59.8003 22.0667 59.2563 21.5493 58.8616 20.888C58.4776 20.2267 58.2856 19.4747 58.2856 18.632L58.2696 9.896H55.3896L55.4056 6.616H57.1976C57.603 6.616 57.9283 6.49333 58.1736 6.248C58.419 5.992 58.5416 5.66667 58.5416 5.272V2.632H62.0776V6.616H66.0136L65.9976 9.896H62.0616L62.0776 18.168C62.0776 18.616 62.2216 18.9893 62.5096 19.288C62.8083 19.576 63.1816 19.72 63.6296 19.72H65.9976V23H62.8616ZM78.0154 14.312H74.1274V23H70.2074V0.599998H79.6794C81.2154 0.599998 82.5647 0.882665 83.7274 1.448C84.89 2.01333 85.786 2.81333 86.4154 3.848C87.0554 4.872 87.3754 6.06133 87.3754 7.416C87.3754 9.08 86.906 10.4933 85.9674 11.656C85.0287 12.8187 83.738 13.6027 82.0954 14.008L87.5034 23H83.0554L78.0154 14.312ZM79.4714 10.968C80.634 10.968 81.562 10.6533 82.2554 10.024C82.9487 9.384 83.2954 8.52533 83.2954 7.448C83.2954 6.38133 82.9487 5.53333 82.2554 4.904C81.562 4.27467 80.634 3.96 79.4714 3.96H74.1274V10.968H79.4714ZM98.0104 23.384C96.3784 23.384 94.9064 23.016 93.5944 22.28C92.2824 21.544 91.2477 20.5253 90.4904 19.224C89.7437 17.9227 89.3704 16.4507 89.3704 14.808C89.3704 13.1653 89.7437 11.6933 90.4904 10.392C91.2477 9.09067 92.2824 8.072 93.5944 7.336C94.917 6.6 96.3944 6.232 98.0264 6.232C99.6584 6.232 101.13 6.6 102.442 7.336C103.754 8.072 104.784 9.09067 105.53 10.392C106.277 11.6933 106.65 13.1653 106.65 14.808C106.65 16.4507 106.277 17.9227 105.53 19.224C104.784 20.5253 103.754 21.544 102.442 22.28C101.13 23.016 99.653 23.384 98.0104 23.384ZM93.3224 14.808C93.3224 15.8213 93.525 16.7173 93.9304 17.496C94.3464 18.2747 94.9117 18.8827 95.6264 19.32C96.341 19.7467 97.1464 19.96 98.0424 19.96C98.9277 19.96 99.7224 19.7467 100.426 19.32C101.141 18.8827 101.696 18.2747 102.09 17.496C102.496 16.7173 102.698 15.8213 102.698 14.808C102.698 13.7947 102.496 12.8987 102.09 12.12C101.685 11.3307 101.125 10.7227 100.41 10.296C99.7064 9.85867 98.9117 9.64 98.0264 9.64C97.141 9.64 96.341 9.85867 95.6264 10.296C94.9117 10.7227 94.3464 11.3307 93.9304 12.12C93.525 12.8987 93.3224 13.7947 93.3224 14.808ZM107.664 6.616H111.712L115.888 18.2L119.936 6.616H123.856L117.68 23H113.904L107.664 6.616ZM133.191 23.384C131.591 23.384 130.151 23.016 128.871 22.28C127.602 21.544 126.61 20.5253 125.895 19.224C125.18 17.912 124.823 16.4347 124.823 14.792C124.823 13.1707 125.186 11.7093 125.911 10.408C126.636 9.10667 127.634 8.088 128.903 7.352C130.183 6.60533 131.612 6.232 133.191 6.232C134.812 6.232 136.231 6.6 137.447 7.336C138.674 8.072 139.618 9.09067 140.279 10.392C140.94 11.6827 141.271 13.1493 141.271 14.792V15.832H128.775C128.882 16.6853 129.143 17.4373 129.559 18.088C129.975 18.7387 130.508 19.2453 131.159 19.608C131.81 19.96 132.535 20.136 133.335 20.136C134.274 20.136 135.068 19.9973 135.719 19.72C136.37 19.4427 136.871 19.0427 137.223 18.52H140.983C140.812 19.32 140.391 20.0933 139.719 20.84C139.047 21.5867 138.151 22.2 137.031 22.68C135.911 23.1493 134.631 23.384 133.191 23.384ZM137.367 13.192C137.175 12.0187 136.722 11.0907 136.007 10.408C135.303 9.72533 134.37 9.384 133.207 9.384C132.055 9.384 131.084 9.72533 130.295 10.408C129.516 11.0907 129.02 12.0187 128.807 13.192H137.367ZM144.711 6.616H148.487V9.08C149.009 8.248 149.66 7.61333 150.439 7.176C151.217 6.728 152.108 6.504 153.111 6.504H153.719V10.344H152.631C151.361 10.3333 150.359 10.6693 149.623 11.352C148.887 12.0347 148.519 12.968 148.519 14.152V23H144.711V6.616Z" fill="black"/>
</svg>
