<svg width="163" height="24" viewBox="0 0 163 24" fill="none" xmlns="http://www.w3.org/2000/svg">
<path d="M4.48675 0.599998L9.81475 17.944L14.9188 0.599998H19.1108L24.3428 17.944L29.4948 0.599998H33.5268L26.5028 23H22.1188L16.9668 5.736L11.7508 23H7.38275L0.35875 0.599998H4.48675ZM42.4255 23.384C40.8255 23.384 39.3855 23.016 38.1055 22.28C36.8362 21.544 35.8442 20.5253 35.1295 19.224C34.4148 17.912 34.0575 16.4347 34.0575 14.792C34.0575 13.1707 34.4202 11.7093 35.1455 10.408C35.8708 9.10667 36.8682 8.088 38.1375 7.352C39.4175 6.60533 40.8468 6.232 42.4255 6.232C44.0468 6.232 45.4655 6.6 46.6815 7.336C47.9082 8.072 48.8522 9.09067 49.5135 10.392C50.1748 11.6827 50.5055 13.1493 50.5055 14.792V15.832H38.0095C38.1162 16.6853 38.3775 17.4373 38.7935 18.088C39.2095 18.7387 39.7428 19.2453 40.3935 19.608C41.0442 19.96 41.7695 20.136 42.5695 20.136C43.5082 20.136 44.3028 19.9973 44.9535 19.72C45.6042 19.4427 46.1055 19.0427 46.4575 18.52H50.2175C50.0468 19.32 49.6255 20.0933 48.9535 20.84C48.2815 21.5867 47.3855 22.2 46.2655 22.68C45.1455 23.1493 43.8655 23.384 42.4255 23.384ZM46.6015 13.192C46.4095 12.0187 45.9562 11.0907 45.2415 10.408C44.5375 9.72533 43.6042 9.384 42.4415 9.384C41.2895 9.384 40.3188 9.72533 39.5295 10.408C38.7508 11.0907 38.2548 12.0187 38.0415 13.192H46.6015ZM53.945 0.599998H57.737V9C58.3343 8.11467 59.113 7.432 60.073 6.952C61.033 6.472 62.1157 6.232 63.321 6.232C64.793 6.232 66.105 6.59467 67.257 7.32C68.4197 8.03467 69.321 9.04267 69.961 10.344C70.6117 11.6453 70.937 13.1333 70.937 14.808C70.937 16.4827 70.6117 17.9707 69.961 19.272C69.321 20.5733 68.4197 21.5867 67.257 22.312C66.105 23.0267 64.793 23.384 63.321 23.384C62.1157 23.384 61.033 23.144 60.073 22.664C59.113 22.184 58.3343 21.5013 57.737 20.616V23H53.945V0.599998ZM57.737 15.48C57.8223 16.376 58.0677 17.1653 58.473 17.848C58.889 18.52 59.4277 19.0427 60.089 19.416C60.761 19.7893 61.5183 19.976 62.361 19.976C63.2677 19.976 64.0677 19.7627 64.761 19.336C65.465 18.8987 66.009 18.2907 66.393 17.512C66.7877 16.7227 66.985 15.8213 66.985 14.808C66.985 13.7947 66.7877 12.8987 66.393 12.12C66.009 11.3307 65.465 10.7227 64.761 10.296C64.0677 9.85867 63.2677 9.64 62.361 9.64C61.5183 9.64 60.761 9.82667 60.089 10.2C59.4277 10.5733 58.889 11.1013 58.473 11.784C58.0677 12.456 57.8223 13.24 57.737 14.136V15.48ZM81.7105 23.384C80.1105 23.384 78.6918 23.096 77.4545 22.52C76.2172 21.9333 75.2465 21.1173 74.5425 20.072C73.8492 19.016 73.4972 17.8107 73.4865 16.456H77.4705C77.4705 17.1493 77.6518 17.7627 78.0145 18.296C78.3772 18.8293 78.8785 19.2453 79.5185 19.544C80.1692 19.8427 80.9158 19.992 81.7585 19.992C82.5798 19.992 83.2998 19.8587 83.9185 19.592C84.5372 19.3147 85.0118 18.936 85.3425 18.456C85.6838 17.9653 85.8545 17.4 85.8545 16.76C85.8545 15.96 85.6092 15.272 85.1185 14.696C84.6385 14.12 83.9985 13.7627 83.1985 13.624L79.3585 12.984C78.2812 12.8027 77.3425 12.424 76.5425 11.848C75.7425 11.2613 75.1238 10.5307 74.6865 9.656C74.2598 8.78133 74.0465 7.82133 74.0465 6.776C74.0465 5.51733 74.3718 4.392 75.0225 3.4C75.6732 2.39733 76.5745 1.61867 77.7265 1.064C78.8892 0.498666 80.2065 0.216 81.6785 0.216C83.1825 0.216 84.5158 0.488 85.6785 1.032C86.8518 1.576 87.7638 2.33867 88.4145 3.32C89.0652 4.30133 89.3958 5.42133 89.4065 6.68H85.4385C85.4385 6.08267 85.2838 5.55467 84.9745 5.096C84.6652 4.62667 84.2278 4.264 83.6625 4.008C83.1078 3.74133 82.4625 3.608 81.7265 3.608C81.0012 3.608 80.3558 3.736 79.7905 3.992C79.2358 4.23733 78.8038 4.58933 78.4945 5.048C78.1852 5.496 78.0305 6.01333 78.0305 6.6C78.0305 7.29333 78.2545 7.896 78.7025 8.408C79.1505 8.90933 79.7425 9.224 80.4785 9.352L84.2065 9.96C85.3158 10.1413 86.2972 10.552 87.1505 11.192C88.0145 11.832 88.6812 12.6213 89.1505 13.56C89.6305 14.4987 89.8705 15.5013 89.8705 16.568C89.8705 17.8587 89.5238 19.0213 88.8305 20.056C88.1478 21.0907 87.1878 21.9067 85.9505 22.504C84.7132 23.0907 83.2998 23.384 81.7105 23.384ZM99.5335 23C98.6588 23 97.8695 22.8133 97.1655 22.44C96.4722 22.0667 95.9282 21.5493 95.5335 20.888C95.1495 20.2267 94.9575 19.4747 94.9575 18.632L94.9415 9.896H92.0615L92.0775 6.616H93.8695C94.2748 6.616 94.6002 6.49333 94.8455 6.248C95.0908 5.992 95.2135 5.66667 95.2135 5.272V2.632H98.7495V6.616H102.686L102.67 9.896H98.7335L98.7495 18.168C98.7495 18.616 98.8935 18.9893 99.1815 19.288C99.4802 19.576 99.8535 19.72 100.302 19.72H102.67V23H99.5335ZM113.807 23.384C112.175 23.384 110.703 23.016 109.391 22.28C108.079 21.544 107.045 20.5253 106.287 19.224C105.541 17.9227 105.167 16.4507 105.167 14.808C105.167 13.1653 105.541 11.6933 106.287 10.392C107.045 9.09067 108.079 8.072 109.391 7.336C110.714 6.6 112.191 6.232 113.823 6.232C115.455 6.232 116.927 6.6 118.239 7.336C119.551 8.072 120.581 9.09067 121.327 10.392C122.074 11.6933 122.447 13.1653 122.447 14.808C122.447 16.4507 122.074 17.9227 121.327 19.224C120.581 20.5253 119.551 21.544 118.239 22.28C116.927 23.016 115.45 23.384 113.807 23.384ZM109.119 14.808C109.119 15.8213 109.322 16.7173 109.727 17.496C110.143 18.2747 110.709 18.8827 111.423 19.32C112.138 19.7467 112.943 19.96 113.839 19.96C114.725 19.96 115.519 19.7467 116.223 19.32C116.938 18.8827 117.493 18.2747 117.887 17.496C118.293 16.7173 118.495 15.8213 118.495 14.808C118.495 13.7947 118.293 12.8987 117.887 12.12C117.482 11.3307 116.922 10.7227 116.207 10.296C115.503 9.85867 114.709 9.64 113.823 9.64C112.938 9.64 112.138 9.85867 111.423 10.296C110.709 10.7227 110.143 11.3307 109.727 12.12C109.322 12.8987 109.119 13.7947 109.119 14.808ZM125.914 6.616H129.69V9.08C130.212 8.248 130.863 7.61333 131.642 7.176C132.42 6.728 133.311 6.504 134.314 6.504H134.922V10.344H133.834C132.564 10.3333 131.562 10.6693 130.826 11.352C130.09 12.0347 129.722 12.968 129.722 14.152V23H125.914V6.616ZM137.726 6.616H141.422V9.08C141.913 8.16267 142.569 7.45867 143.39 6.968C144.212 6.47733 145.166 6.232 146.254 6.232C147.428 6.232 148.441 6.504 149.294 7.048C150.148 7.58133 150.798 8.344 151.246 9.336C151.78 8.35467 152.5 7.592 153.406 7.048C154.313 6.504 155.364 6.232 156.558 6.232C157.721 6.232 158.734 6.49867 159.598 7.032C160.473 7.55467 161.15 8.30133 161.63 9.272C162.11 10.2427 162.35 11.3733 162.35 12.664V23H158.542V13.112C158.542 12.0133 158.265 11.1493 157.71 10.52C157.166 9.88 156.398 9.56 155.406 9.56C154.702 9.56 154.084 9.72 153.55 10.04C153.028 10.36 152.622 10.8187 152.334 11.416C152.046 12.0027 151.902 12.696 151.902 13.496V23H148.174V13.112C148.174 12.0133 147.897 11.1493 147.342 10.52C146.788 9.88 146.02 9.56 145.038 9.56C143.961 9.56 143.108 9.91733 142.478 10.632C141.849 11.336 141.534 12.2907 141.534 13.496V23H137.726V6.616Z" fill="white"/>
</svg>
