<!-- Copyright 2000-2021 JetBrains s.r.o. Use of this source code is governed by the Apache 2.0 license that can be found in the LICENSE file. -->
<svg width="16" height="16" viewBox="0 0 16 16" fill="none" xmlns="http://www.w3.org/2000/svg">
<path d="M12 14H10.378V12.378H10.339C10.0099 12.9 9.54813 13.3252 9.00083 13.6102C8.45352 13.8952 7.84034 14.0297 7.224 14C5.006 14 4 12.8 4 11.39C4 9.70001 5.1 8.72301 7.342 8.44501L10.378 8.06501C10.378 6.45001 9.612 5.76501 8.291 5.76501C7.09799 5.75664 5.93643 6.14734 4.991 6.87501V5.39401C6.04455 4.81479 7.23198 4.52302 8.434 4.54801C10.822 4.54801 12 5.67001 12 7.91601V14ZM6.015 2.98701C5.74978 2.98701 5.49543 2.88165 5.30789 2.69411C5.12036 2.50658 5.015 2.25222 5.015 1.98701C5.01164 1.85791 5.03431 1.72946 5.08165 1.60931C5.12899 1.48916 5.20004 1.37977 5.29055 1.28767C5.38107 1.19556 5.48921 1.12262 5.60852 1.0732C5.72783 1.02378 5.85587 0.998888 5.985 1.00001C6.11557 0.999084 6.24504 1.02392 6.366 1.0731C6.48696 1.12228 6.59703 1.19483 6.68992 1.2866C6.7828 1.37837 6.85668 1.48756 6.90731 1.60792C6.95795 1.72827 6.98435 1.85743 6.985 1.98801C6.98725 2.11738 6.96391 2.24593 6.91631 2.36626C6.86872 2.48658 6.79782 2.59632 6.70768 2.68915C6.61754 2.78199 6.50994 2.8561 6.39107 2.90721C6.27219 2.95833 6.14439 2.98544 6.015 2.98701V2.98701ZM10.378 9.22001L7.935 9.52001C6.623 9.68501 5.661 9.96701 5.661 11.283C5.661 12.283 6.583 12.783 7.599 12.783C7.95961 12.8039 8.32066 12.7503 8.65959 12.6254C8.99853 12.5005 9.30807 12.3071 9.56887 12.0572C9.82967 11.8072 10.0361 11.5062 10.1754 11.1729C10.3146 10.8396 10.3836 10.4812 10.378 10.12V9.22001ZM10 2.98701C9.87001 2.98721 9.74132 2.96125 9.62157 2.91069C9.50182 2.86012 9.39347 2.78598 9.30296 2.69268C9.21246 2.59938 9.14165 2.48882 9.09476 2.36759C9.04786 2.24635 9.02584 2.11693 9.03 1.98701C9.02544 1.85919 9.04665 1.73177 9.09237 1.61233C9.13809 1.49288 9.20738 1.38386 9.29612 1.29176C9.38486 1.19966 9.49123 1.12637 9.60889 1.07625C9.72656 1.02612 9.85311 1.00019 9.981 1.00001C10.1112 0.998671 10.2403 1.02331 10.3608 1.07247C10.4813 1.12164 10.5909 1.19435 10.6829 1.28635C10.775 1.37834 10.8479 1.48778 10.8971 1.60826C10.9464 1.72874 10.9712 1.85784 10.97 1.98801C10.9742 2.11788 10.9521 2.24726 10.9052 2.36844C10.8583 2.48962 10.7875 2.60011 10.697 2.69333C10.6065 2.78656 10.4981 2.8606 10.3784 2.91106C10.2586 2.96151 10.1299 2.98734 10 2.98701V2.98701Z" fill="#6E6E6E"/>
</svg>
