<svg xmlns="http://www.w3.org/2000/svg" width="16" height="16" viewBox="0 0 16 16">
  <g id="areas">
    <rect width="16" height="16" fill="#ffe5ff" opacity="0"/>
  </g>
  <g id="icons">
    <path d="M12,14H10.378V12.378h-.039A3.484,3.484,0,0,1,7.224,14C5.006,14,4,12.8,4,11.39,4,9.7,5.1,8.723,7.342,8.445l3.036-.38c0-1.615-.766-2.3-2.087-2.3a5.349,5.349,0,0,0-3.3,1.11V5.394a6.851,6.851,0,0,1,3.443-.846C10.822,4.548,12,5.67,12,7.916ZM6.015,2.987a1,1,0,0,1-1-1A.962.962,0,0,1,5.985,1a.993.993,0,0,1,1,.988A.982.982,0,0,1,6.015,2.987ZM10.378,9.22l-2.443.3c-1.312.165-2.274.447-2.274,1.763,0,1,.922,1.5,1.938,1.5a2.627,2.627,0,0,0,2.779-2.663ZM10,2.987a.969.969,0,0,1-.97-1A.953.953,0,0,1,9.981,1a.979.979,0,0,1,.989.988A.968.968,0,0,1,10,2.987Z" fill="#afb1b3"/>
  </g>
</svg>
