<!-- Copyright 2000-2021 JetBrains s.r.o. Use of this source code is governed by the Apache 2.0 license that can be found in the LICENSE file. -->
<svg xmlns="http://www.w3.org/2000/svg" width="16" height="16" viewBox="0 0 16 16">
  <g id="Xcode_dark" fill="none" fill-rule="evenodd">
    <path id="Fill-2" fill="#3592C4" d="M5.0718,13.48 C5.6498,11.734 8.5108,5.248 9.1838,3.729 L1.2998,6.143 L3.6868,14 L5.0558,13.581 C5.0638,13.547 5.0608,13.513 5.0718,13.48"/>
    <path id="Fill-4" fill="#3592C4" d="M10.6494,11.8677 L14.0004,10.8417 L12.3974,5.5657 C12.0794,6.7487 11.3244,9.5357 10.6494,11.8677"/>
    <path id="Fill-6" fill="#FFF" d="M5.9546,11.2139 L5.0176,11.5009 L3.7936,7.4709 L8.1216,6.1449 C8.3146,5.7019 8.4906,5.2999 8.6506,4.9369 L2.5466,6.8069 L4.3526,12.7509 L5.4716,12.4079 C5.6116,12.0529 5.7756,11.6489 5.9546,11.2139" opacity=".33"/>
    <path id="Fill-8" fill="#FFF" d="M11.4077,9.1875 L11.5067,9.5135 L11.2997,9.5765 C11.1927,9.9575 11.0857,10.3395 10.9767,10.7215 L12.7537,10.1775 L11.9047,7.3835 C11.7527,7.9385 11.5857,8.5485 11.4077,9.1875" opacity=".33"/>
    <path id="Fill-11" fill="#AFB1B3" d="M14.7607,2.5488 C14.7607,2.5488 14.5227,2.4648 14.4357,2.4338 C14.1707,2.3408 13.3887,2.6248 13.0717,2.5118 C12.8337,2.4278 12.9347,1.8508 12.4457,1.6778 L11.1937,1.2358 C10.7537,1.0798 10.2827,0.9998 9.8167,0.9998 C8.6617,0.9998 7.5387,1.4918 7.0117,2.5558 C7.0017,2.5768 6.9967,2.5988 6.9967,2.6188 C6.9967,2.7088 7.0887,2.7758 7.1747,2.7208 C7.6947,2.3918 8.1547,2.2698 8.6007,2.2698 C9.1207,2.2698 9.6237,2.4358 10.1837,2.6328 C10.4117,2.7138 10.4827,2.8708 10.4827,3.0398 C10.4827,3.1768 10.4357,3.3208 10.3887,3.4398 C10.3247,3.5998 9.8257,4.8578 9.4447,5.8198 L11.0657,6.3928 C11.3597,5.4528 11.7407,4.2318 11.8397,3.9178 C11.9227,3.6508 12.0767,3.5768 12.2327,3.5768 C12.3857,3.5768 12.5407,3.6488 12.6317,3.6808 C12.9287,3.7858 13.3647,4.5018 13.6657,4.6078 C13.6657,4.6078 13.9667,4.7138 13.9987,4.7248 C14.0487,4.7428 14.0937,4.7498 14.1337,4.7498 C14.3157,4.7498 14.4077,4.5958 14.4357,4.5198 L14.9787,2.9848 C14.9897,2.9548 14.9997,2.9088 14.9997,2.8578 C14.9997,2.7478 14.9527,2.6128 14.7607,2.5488 M8.7077,14.7388 C8.6477,14.8988 8.5087,14.9998 8.3687,14.9998 C8.3367,14.9998 8.3047,14.9948 8.2737,14.9838 L7.2397,14.6188 L6.2067,14.2538 C6.0777,14.2078 5.9997,14.0768 5.9997,13.9288 C5.9997,13.8838 6.0077,13.8368 6.0227,13.7908 C6.6647,11.8528 7.9967,8.5078 8.9837,6.3578 L10.0337,6.7288 L11.0847,7.0998 C10.4987,9.3918 9.4287,12.8288 8.7077,14.7388"/>
  </g>
</svg>
