<svg width="40" height="40" viewBox="0 0 40 40" fill="none" xmlns="http://www.w3.org/2000/svg">
  <path fill-rule="evenodd" clip-rule="evenodd" d="M30.2356 2.16365C32.729 2.08683 35.2233 2.13368 37.7107 2.32782C37.7107 2.32782 38.766 14.5324 35.5278 24.5551C34.5872 24.1964 33.5665 24 32.5 24H19.5C14.8056 24 11 27.8056 11 32.5C11 33.6988 11.2482 34.8396 11.6959 35.8739C10.2089 35.0927 8.80023 34.084 7.5255 32.85C0.803219 26.3423 0.283807 15.9681 6.37627 9.68912C8.44503 7.66202 10.9204 6.09687 13.6389 5.09709C18.8897 3.02579 24.6294 2.33675 30.2356 2.16365Z" fill="url(#paint0_linear_704_26783)"/>
  <rect x="13" y="26" width="26" height="13" rx="6.5" fill="#48576F"/>
  <path d="M18.2945 36V28.9455H19.5725V34.9287H22.6795V36H18.2945ZM23.7336 36V30.7091H24.9805V36H23.7336ZM24.3605 29.9582C24.163 29.9582 23.9931 29.8927 23.8507 29.7618C23.7083 29.6286 23.6371 29.469 23.6371 29.283C23.6371 29.0947 23.7083 28.9351 23.8507 28.8042C23.9931 28.671 24.163 28.6044 24.3605 28.6044C24.5603 28.6044 24.7302 28.671 24.8703 28.8042C25.0127 28.9351 25.0839 29.0947 25.0839 29.283C25.0839 29.469 25.0127 29.6286 24.8703 29.7618C24.7302 29.8927 24.5603 29.9582 24.3605 29.9582ZM28.9048 30.7091V31.6736H25.8632V30.7091H28.9048ZM26.6141 29.4415H27.8611V34.4086C27.8611 34.5762 27.8863 34.7048 27.9368 34.7944C27.9897 34.8817 28.0586 34.9414 28.1435 34.9735C28.2285 35.0057 28.3226 35.0217 28.426 35.0217C28.5041 35.0217 28.5752 35.016 28.6395 35.0045C28.7061 34.993 28.7567 34.9827 28.7911 34.9735L29.0012 35.9483C28.9346 35.9713 28.8393 35.9966 28.7153 36.0241C28.5936 36.0517 28.4443 36.0677 28.2675 36.0723C27.9552 36.0815 27.6739 36.0344 27.4236 35.9311C27.1733 35.8255 26.9747 35.6624 26.8277 35.442C26.683 35.2215 26.6118 34.946 26.6141 34.6153V29.4415ZM32.2331 36.1033C31.7027 36.1033 31.2445 35.9931 30.8587 35.7727C30.4752 35.5499 30.1801 35.2353 29.9735 34.8288C29.7668 34.4201 29.6634 33.939 29.6634 33.3855C29.6634 32.8413 29.7668 32.3636 29.9735 31.9526C30.1824 31.5392 30.4741 31.2177 30.8484 30.9881C31.2227 30.7562 31.6625 30.6402 32.1677 30.6402C32.4938 30.6402 32.8015 30.693 33.0908 30.7987C33.3825 30.902 33.6397 31.0627 33.8624 31.2809C34.0875 31.4991 34.2643 31.7769 34.3929 32.1145C34.5215 32.4498 34.5858 32.8493 34.5858 33.3132V33.6956H30.249V32.8551H33.3905C33.3882 32.6163 33.3365 32.4038 33.2355 32.2178C33.1345 32.0295 32.9932 31.8814 32.8118 31.7735C32.6327 31.6655 32.4237 31.6116 32.1849 31.6116C31.93 31.6116 31.7061 31.6736 31.5132 31.7976C31.3203 31.9193 31.1699 32.08 31.062 32.2798C30.9563 32.4773 30.9024 32.6943 30.9001 32.9309V33.6646C30.9001 33.9723 30.9563 34.2364 31.0688 34.4568C31.1814 34.675 31.3387 34.8426 31.5408 34.9597C31.7428 35.0746 31.9794 35.132 32.2503 35.132C32.4318 35.132 32.596 35.1067 32.7429 35.0562C32.8899 35.0034 33.0173 34.9264 33.1253 34.8254C33.2332 34.7243 33.3147 34.5992 33.3698 34.4499L34.5341 34.5808C34.4606 34.8885 34.3206 35.1572 34.1139 35.3869C33.9095 35.6142 33.6477 35.791 33.3285 35.9173C33.0093 36.0413 32.6442 36.1033 32.2331 36.1033Z" fill="white"/>
  <defs>
    <linearGradient id="paint0_linear_704_26783" x1="8.26964" y1="10.0376" x2="30.1849" y2="37.1248" gradientUnits="userSpaceOnUse">
      <stop offset="0.0729167" stop-color="#FF45ED"/>
      <stop offset="0.572917" stop-color="#B74AF7"/>
      <stop offset="0.989583" stop-color="#009AE5"/>
    </linearGradient>
  </defs>
</svg>
