<svg width="16" height="16" viewBox="0 0 16 16" fill="none" xmlns="http://www.w3.org/2000/svg">
<path d="M1 4C1 2.89543 1.89543 2 3 2H13C14.1046 2 15 2.89543 15 4V12C15 13.1046 14.1046 14 13 14H3C1.89543 14 1 13.1046 1 12V4Z" fill="#FFF4EB"/>
<path d="M3.5 13.5H2.5C1.94772 13.5 1.5 13.0523 1.5 12.5V3.5C1.5 2.94771 1.94772 2.5 2.5 2.5H3.5" stroke="#E56D17" stroke-linecap="round"/>
<path d="M12.5 13.5H13.5C14.0523 13.5 14.5 13.0523 14.5 12.5V3.5C14.5 2.94771 14.0523 2.5 13.5 2.5H12.5" stroke="#E56D17" stroke-linecap="round"/>
<path fill-rule="evenodd" clip-rule="evenodd" d="M7.5 5H5V4H11V5H8.5V12H7.5V5Z" fill="black"/>
</svg>
