<!-- Copyright 2000-2021 JetBrains s.r.o. Use of this source code is governed by the Apache 2.0 license that can be found in the LICENSE file. -->
<svg xmlns="http://www.w3.org/2000/svg" width="16" height="16" viewBox="0 0 16 16">
  <path fill="#935E2D" fill-opacity=".7" fill-rule="evenodd" d="M8.1801 13.5801C9.4561 11.9941 9.0001 9.9611 7.4821 8.4421 5.9621 6.9231 3.9291 6.4661 2.3431 7.7431L8.1801 13.5801zM7.5791 14.1811C5.9931 15.4581 3.9611 15.0021 2.4421 13.4821.9221 11.9631.4661 9.9301 1.7431 8.3451L7.5791 14.1811zM14.1801 7.5801C15.4561 5.9941 15.0001 3.9611 13.4821 2.4421 11.9621.9231 9.9291.4661 8.3431 1.7431L14.1801 7.5801zM13.5791 8.1811C11.9931 9.4581 9.9611 9.0021 8.4421 7.4821 6.9221 5.9631 6.4661 3.9301 7.7431 2.3451L13.5791 8.1811z"/>
</svg>
