<!-- Copyright 2000-2021 JetBrains s.r.o. Use of this source code is governed by the Apache 2.0 license that can be found in the LICENSE file. -->
<svg xmlns="http://www.w3.org/2000/svg" width="16" height="16" viewBox="0 0 16 16">
  <g fill="none" fill-rule="evenodd">
    <g fill="#9AA7B0" transform="translate(5 4.79)">
      <polygon points="8.092 4.51 5.735 2.153 0 7.857 0 10.214 2.357 10.214"/>
      <path d="M10.0564897,2.54623256 C10.3087891,2.29390885 10.3087891,1.62006138 10.0564897,1.36773767 L8.87799478,0.189242782 C8.62569533,-0.0630809273 7.95179934,-0.0630809273 7.69949989,0.189242782 L6.52100501,1.36773767 L8.87799478,3.72472744 L10.0564897,2.54623256 Z"/>
    </g>
    <g transform="translate(1 .79)">
      <polygon fill="#62B543" points="8.092 4.51 5.735 2.153 0 7.857 0 10.214 2.357 10.214"/>
      <path fill="#9AA7B0" d="M10.0564897,2.54623256 C10.3087891,2.29390885 10.3087891,1.62006138 10.0564897,1.36773767 L8.87799478,0.189242782 C8.62569533,-0.0630809273 7.95179934,-0.0630809273 7.69949989,0.189242782 L6.52100501,1.36773767 L8.87799478,3.72472744 L10.0564897,2.54623256 Z"/>
    </g>
  </g>
</svg>
