<!-- Copyright 2000-2026 JetBrains s.r.o. and contributors. Use of this source code is governed by the Apache 2.0 license. -->
<svg width="16" height="16" viewBox="14 14 16 16" fill="none" xmlns="http://www.w3.org/2000/svg">
<path fill-rule="evenodd" clip-rule="evenodd" d="M21.8936 15.0118C21.9989 14.9889 22.1103 15 22.21 15.046L28.71 18.046C28.8868 18.1278 29 18.3052 29 18.5001V22.0001H28V19.2813L22.5 21.8194V25.0001H21.5V21.8194L16 19.2813V25.1993L22 27.9503V28.9981C21.9304 28.9982 21.8595 28.9851 21.792 28.9542L15.292 25.9747C15.1144 25.8933 15.0001 25.715 15 25.5196V18.5001C15 18.3052 15.1132 18.1278 15.29 18.046L21.79 15.046L21.8936 15.0118ZM16.6934 18.5001L22 20.9483L27.3057 18.5001L22 16.0509L16.6934 18.5001Z" fill="#CED0D6"/>
<path fill-rule="evenodd" clip-rule="evenodd" d="M26.5 23C26.7761 23 27 23.2239 27 23.5V26H29.5C29.7761 26 30 26.2239 30 26.5C30 26.7761 29.7761 27 29.5 27H27V29.5C27 29.7761 26.7761 30 26.5 30C26.2239 30 26 29.7761 26 29.5V27H23.5C23.2239 27 23 26.7761 23 26.5C23 26.2239 23.2239 26 23.5 26H26V23.5C26 23.2239 26.2239 23 26.5 23Z" fill="#548AF7"/>
</svg>
