<!-- Copyright 2000-2026 JetBrains s.r.o. and contributors. Use of this source code is governed by the Apache 2.0 license. -->
<svg width="16" height="16" viewBox="0 0 16 16" fill="none" xmlns="http://www.w3.org/2000/svg">
<path d="M6.03809 2C6.29849 2 6.54868 2.10166 6.73535 2.2832L8.5 4H13C14.1046 4 15 4.89543 15 6V11H14V6C14 5.44772 13.5523 5 13 5H8.09375L7.80273 4.7168L6.03809 3H2.75C2.3957 3 2.00022 3.32606 2 3.86621V12.1338C2.00022 12.6739 2.3957 13 2.75 13H3V14H2.75C1.84391 14 1.09841 13.2655 1.00879 12.3242L1 12.1338V3.86621C1.00023 2.83549 1.78364 2 2.75 2H6.03809Z" fill="#DB3B4B"/>
<path d="M10.5 11C11.7095 11 12.7186 11.8589 12.9502 13H15.5C15.7761 13 16 13.2239 16 13.5C16 13.7761 15.7761 14 15.5 14H12.9502C12.7186 15.1411 11.7095 16 10.5 16C9.29051 16 8.28142 15.1411 8.0498 14H5.5C5.22386 14 5 13.7761 5 13.5C5 13.2239 5.22386 13 5.5 13H8.0498C8.28142 11.8589 9.29051 11 10.5 11ZM10.5 12C9.67157 12 9 12.6716 9 13.5C9 14.3284 9.67157 15 10.5 15C11.3284 15 12 14.3284 12 13.5C12 12.6716 11.3284 12 10.5 12Z" fill="#DB3B4B"/>
</svg>
