<!-- Copyright 2000-2026 JetBrains s.r.o. and contributors. Use of this source code is governed by the Apache 2.0 license. -->
<svg width="16" height="16" viewBox="0 0 16 16" fill="none" xmlns="http://www.w3.org/2000/svg">
<path fill-rule="evenodd" clip-rule="evenodd" d="M12.5 9C12.7761 9 13 9.22386 13 9.5V12H15.5C15.7761 12 16 12.2239 16 12.5C16 12.7761 15.7761 13 15.5 13H13V15.5C13 15.7761 12.7761 16 12.5 16C12.2239 16 12 15.7761 12 15.5V13H9.5C9.22386 13 9 12.7761 9 12.5C9 12.2239 9.22386 12 9.5 12H12V9.5C12 9.22386 12.2239 9 12.5 9Z" fill="#548AF7"/>
<path d="M6.12207 2C6.39437 2.0001 6.65525 2.11111 6.84375 2.30762L8.4668 4H13C14.1046 4 15 4.89543 15 6V8H14V6C14 5.44771 13.5523 5 13 5H8.04004L6.12207 3H2.63379C2.40532 3 2.0002 3.25829 2 3.86621V12.1338C2.0002 12.7417 2.40532 13 2.63379 13H8V14H2.63379L2.4668 13.9902C1.6979 13.9012 1.08689 13.2029 1.00879 12.3242L1 12.1338V3.86621C1.0002 2.89975 1.6431 2.10511 2.4668 2.00977L2.63379 2H6.12207Z" fill="#C77D55"/>
</svg>
