<!-- Copyright 2000-2026 JetBrains s.r.o. and contributors. Use of this source code is governed by the Apache 2.0 license. -->
<svg width="16" height="16" viewBox="0 0 16 16" fill="none" xmlns="http://www.w3.org/2000/svg">
<path fill-rule="evenodd" clip-rule="evenodd" d="M12.5 9C12.7761 9 13 9.22386 13 9.5V12H15.5C15.7761 12 16 12.2239 16 12.5C16 12.7761 15.7761 13 15.5 13H13V15.5C13 15.7761 12.7761 16 12.5 16C12.2239 16 12 15.7761 12 15.5V13H9.5C9.22386 13 9 12.7761 9 12.5C9 12.2239 9.22386 12 9.5 12H12V9.5C12 9.22386 12.2239 9 12.5 9Z" fill="#548AF7"/>
<path d="M4.14503 6.1475C4.34026 5.95227 4.65777 5.95233 4.85303 6.1475C5.04806 6.34278 5.04724 6.65935 4.85206 6.85453L3.90382 7.80375C2.71853 8.9892 2.71847 10.9113 3.90382 12.0967C5.02639 13.219 6.80698 13.2759 7.99952 12.2725V13.4825C6.46571 14.33 4.49803 14.1048 3.19678 12.8037C1.6209 11.2278 1.62096 8.67269 3.19678 7.09671L4.14503 6.1475Z" fill="#CED0D6"/>
<path d="M9.646 5.64652C9.84118 5.45135 10.1578 5.45151 10.353 5.64652C10.5483 5.84178 10.5483 6.15829 10.353 6.35355L6.35303 10.3536C6.15776 10.5486 5.84121 10.5488 5.646 10.3536C5.45105 10.1583 5.451 9.84171 5.646 9.64652L9.646 5.64652Z" fill="#CED0D6"/>
<path d="M7.0962 3.19632C8.67206 1.62073 11.2273 1.62078 12.8032 3.19632C14.1046 4.49766 14.3299 6.46598 13.4819 8.00003H12.272C13.2757 6.80752 13.2186 5.027 12.0962 3.90433C10.9108 2.71907 8.98861 2.71898 7.80323 3.90433L6.85206 4.85453C6.65677 5.04944 6.34017 5.04967 6.14503 4.85453C5.95024 4.65935 5.95024 4.34267 6.14503 4.1475L7.0962 3.19632Z" fill="#CED0D6"/>
</svg>
