<!-- Copyright 2000-2023 JetBrains s.r.o. and contributors. Use of this source code is governed by the Apache 2.0 license. -->
<svg width="16" height="16" viewBox="0 0 16 16" fill="none" xmlns="http://www.w3.org/2000/svg">
<path fill-rule="evenodd" clip-rule="evenodd" d="M12.5 16C14.433 16 16 14.433 16 12.5C16 10.567 14.433 9 12.5 9C10.567 9 9 10.567 9 12.5C9 14.433 10.567 16 12.5 16ZM13 10.5C13 10.2239 12.7761 10 12.5 10C12.2239 10 12 10.2239 12 10.5V12.5C12 12.6326 12.0527 12.7598 12.1464 12.8536L13.5607 14.2678C13.7559 14.463 14.0725 14.463 14.2678 14.2678C14.463 14.0725 14.463 13.7559 14.2678 13.5607L13 12.2929V10.5Z" fill="#548AF7"/>
<path d="M8.00003 3C5.23861 3 3.00003 5.23858 3.00003 8V8.293L4.14648 7.14667C4.34175 6.95142 4.65834 6.95144 4.85359 7.14671C5.04884 7.34198 5.04882 7.65856 4.85355 7.85382L2.50004 10.2071L0.146474 7.85387C-0.0488034 7.65862 -0.0488276 7.34204 0.14642 7.14676C0.341667 6.95149 0.658249 6.95146 0.853526 7.14671L2.00003 8.29304V8C2.00003 4.68629 4.68632 2 8.00003 2C9.2067 2 10.3316 2.35673 11.2731 2.97063C11.5044 3.12145 11.5697 3.43124 11.4189 3.66255C11.268 3.89387 10.9583 3.95912 10.7269 3.8083C9.94293 3.29711 9.00694 3 8.00003 3Z" fill="#CED0D6"/>
<path d="M8.00009 13C6.99318 13 6.05719 12.7029 5.27318 12.1917C5.04186 12.0409 4.73207 12.1061 4.58125 12.3374C4.43043 12.5688 4.49568 12.8785 4.727 13.0294C5.66854 13.6433 6.79342 14 8.00009 14C8.08522 14 8.16993 13.9982 8.2542 13.9947C8.14265 13.6779 8.06557 13.3448 8.02746 12.9999C8.01834 13 8.00922 13 8.00009 13Z" fill="#CED0D6"/>
<path d="M12.7025 8.00448C12.6354 8.0015 12.5679 8 12.5 8C12.0037 8 11.5262 8.08033 11.0798 8.22871C11.0987 8.19949 11.1209 8.17182 11.1465 8.14623L13.5 5.79291L15.8536 8.14623C16.0488 8.34149 16.0489 8.65807 15.8536 8.85334C15.6782 9.02876 15.4049 9.0466 15.2095 8.90686C15.2034 8.90219 15.1972 8.89754 15.191 8.8929C15.1756 8.88076 15.1607 8.86758 15.1465 8.85337L14.0001 7.70707V8C14.0001 8.08517 13.9983 8.16992 13.9948 8.25423C13.6779 8.14267 13.3449 8.06559 13 8.02747C13.0001 8.01832 13.0001 8.00916 13.0001 8V7.70696L12.7025 8.00448Z" fill="#CED0D6"/>
</svg>
