<!-- Copyright 2000-2023 JetBrains s.r.o. and contributors. Use of this source code is governed by the Apache 2.0 license. -->
<svg width="16" height="16" viewBox="0 0 16 16" fill="none" xmlns="http://www.w3.org/2000/svg">
<path d="M8.5 15.5L10.5 13.5L8.5 11.5M5.5 13.5H10M12.5 11.5L10.5 9.5L12.5 7.5M15.5 9.5H11" stroke="#548AF7" stroke-linecap="round" stroke-linejoin="round"/>
<path fill-rule="evenodd" clip-rule="evenodd" d="M10.9146 2H12C13.1046 2 14 2.89543 14 4V7.48885C13.9972 7.10869 13.8508 6.7294 13.5607 6.43934C13.3969 6.27558 13.2047 6.1576 13 6.0854V4C13 3.44772 12.5523 3 12 3H10.9146C10.7087 3.5826 10.1531 4 9.5 4H6.5C5.84689 4 5.29127 3.5826 5.08535 3H4C3.44772 3 3 3.44772 3 4V13C3 13.5523 3.44772 14 4 14V15C2.89543 15 2 14.1046 2 13V4C2 2.89543 2.89543 2 4 2H5.08535C5.29127 1.4174 5.84689 1 6.5 1H9.5C10.1531 1 10.7087 1.4174 10.9146 2ZM6 2.5C6 2.22386 6.22386 2 6.5 2H9.5C9.77614 2 10 2.22386 10 2.5C10 2.77614 9.77614 3 9.5 3H6.5C6.22386 3 6 2.77614 6 2.5Z" fill="#CED0D6"/>
<path d="M7.87872 10L7.43938 10.4393C7.27564 10.6031 7.15766 10.7953 7.08546 11H5.5C5.22386 11 5 10.7761 5 10.5C5 10.2239 5.22386 10 5.5 10H7.87872Z" fill="#CED0D6"/>
<path d="M9.87872 8L8.87872 9H5.5C5.22386 9 5 8.77614 5 8.5C5 8.22386 5.22386 8 5.5 8H9.87872Z" fill="#CED0D6"/>
<path d="M5 6.5C5 6.22386 5.22386 6 5.5 6H10.5C10.7761 6 11 6.22386 11 6.5C11 6.77614 10.7761 7 10.5 7H5.5C5.22386 7 5 6.77614 5 6.5Z" fill="#CED0D6"/>
</svg>
