<!-- Copyright 2000-2025 JetBrains s.r.o. and contributors. Use of this source code is governed by the Apache 2.0 license. -->
<svg width="16" height="16" viewBox="0 0 16 16" fill="none" xmlns="http://www.w3.org/2000/svg">
<path fill-rule="evenodd" clip-rule="evenodd" d="M4.14645 9.14645C4.34171 8.95118 4.65829 8.95118 4.85355 9.14645L7.85355 12.1464C8.04882 12.3417 8.04882 12.6583 7.85355 12.8536L4.85355 15.8536C4.65829 16.0488 4.34171 16.0488 4.14645 15.8536C3.95118 15.6583 3.95118 15.3417 4.14645 15.1464L6.29291 13H0.5C0.223858 13 0 12.7761 0 12.5C0 12.2238 0.223858 12 0.5 12H6.29287L4.14645 9.85355C3.95118 9.65829 3.95118 9.34171 4.14645 9.14645Z" fill="#3574F0"/>
<path d="M12 7C12 4.23858 9.76142 2 7 2C4.23858 2 2 4.23858 2 7C2 7.83861 2.20686 8.62866 2.57197 9.32256L3.32129 8.57324C3.11451 8.09035 3 7.55855 3 7C3 4.79086 4.79086 3 7 3C9.20914 3 11 4.79086 11 7C11 8.86549 9.72267 10.4316 7.99512 10.874L8.78809 11.667C9.29 11.4744 9.75399 11.2058 10.1631 10.8711L13.1455 13.8496C13.3408 14.0446 13.6574 14.0446 13.8525 13.8496C14.0476 13.6543 14.0477 13.3377 13.8525 13.1426L10.8701 10.1641C11.5757 9.30206 12 8.20086 12 7Z" fill="#6C707E"/>
</svg>
