<!-- Copyright 2000-2025 JetBrains s.r.o. and contributors. Use of this source code is governed by the Apache 2.0 license. -->
<svg width="16" height="16" viewBox="0 0 16 16" fill="none" xmlns="http://www.w3.org/2000/svg">
<path d="M7 2C9.76142 2 12 4.23858 12 7C12 8.20086 11.5757 9.30206 10.8701 10.1641L13.8525 13.1426C14.0478 13.3377 14.0476 13.6543 13.8525 13.8496C13.6574 14.0446 13.3408 14.0446 13.1455 13.8496L10.1631 10.8711L9.45101 10.159C10.393 9.4273 11 8.28512 11 7C11 4.79086 9.20914 3 7 3C4.79086 3 3 4.79086 3 7C3 7.27351 3.0268 7.54074 3.0791 7.79883L2.2666 8.61133C2.09451 8.10563 2 7.56391 2 7C2 4.23858 4.23858 2 7 2Z" fill="#CED0D6"/>
<path d="M6.64645 9.64648C6.84171 9.45121 7.15822 9.45121 7.35348 9.64648L9.85348 12.1465C10.0487 12.3417 10.0487 12.6582 9.85348 12.8535L7.35348 15.3535C7.15822 15.5488 6.84171 15.5488 6.64645 15.3535C6.45118 15.1582 6.45118 14.8417 6.64645 14.6465L8.29293 13H1.70699L3.35348 14.6465C3.54874 14.8417 3.54874 15.1582 3.35348 15.3535C3.15822 15.5488 2.84171 15.5488 2.64645 15.3535L0.146447 12.8535C-0.0488155 12.6582 -0.0488155 12.3417 0.146447 12.1465L2.64645 9.64648C2.84171 9.45121 3.15822 9.45121 3.35348 9.64648C3.54874 9.84174 3.54874 10.1582 3.35348 10.3535L1.70699 12H8.29293L6.64645 10.3535C6.45118 10.1582 6.45118 9.84174 6.64645 9.64648Z" fill="#548AF7"/>
</svg>
