<!-- Copyright 2000-2025 JetBrains s.r.o. and contributors. Use of this source code is governed by the Apache 2.0 license. -->
<svg width="16" height="16" viewBox="0 0 16 16" fill="none" xmlns="http://www.w3.org/2000/svg">
<path fill-rule="evenodd" clip-rule="evenodd" d="M3.85355 9.14645C3.65829 8.95118 3.34171 8.95118 3.14645 9.14645L0.146446 12.1464C-0.0488155 12.3417 -0.0488155 12.6583 0.146446 12.8536L3.14645 15.8536C3.34171 16.0488 3.65829 16.0488 3.85355 15.8536C4.04882 15.6583 4.04882 15.3417 3.85355 15.1464L1.70709 13H7.5C7.77614 13 8 12.7761 8 12.5C8 12.2238 7.77614 12 7.5 12H1.70713L3.85355 9.85355C4.04882 9.65829 4.04882 9.34171 3.85355 9.14645Z" fill="#548AF7"/>
<path d="M7 2C9.76142 2 12 4.23858 12 7C12 8.20086 11.5757 9.30206 10.8701 10.1641L13.8525 13.1426C14.0477 13.3377 14.0476 13.6543 13.8525 13.8496C13.6574 14.0446 13.3408 14.0446 13.1455 13.8496L10.1631 10.8711C9.74512 11.213 9.27035 11.4873 8.75586 11.6807L7.9594 10.8842C9.70519 10.4544 11 8.87843 11 7C11 4.79086 9.20914 3 7 3C4.79086 3 3 4.79086 3 7C3 7.27351 3.0268 7.54074 3.0791 7.79883L2.2666 8.61133C2.09451 8.10563 2 7.56391 2 7C2 4.23858 4.23858 2 7 2Z" fill="#CED0D6"/>
</svg>
