<!-- Copyright 2000-2022 JetBrains s.r.o. and contributors. Use of this source code is governed by the Apache 2.0 license. -->
<svg width="16" height="16" viewBox="0 0 16 16" fill="none" xmlns="http://www.w3.org/2000/svg">
<rect x="14" y="2" width="1" height="12" rx="0.5" fill="#6C707E"/>
<rect x="2" y="14" width="1" height="12" rx="0.500001" transform="rotate(-180 2 14)" fill="#6C707E"/>
<rect x="12" y="2" width="3" height="1" rx="0.5" fill="#6C707E"/>
<rect x="4" y="14" width="3" height="1" rx="0.5" transform="rotate(-180 4 14)" fill="#6C707E"/>
<rect x="12" y="13" width="3" height="1" rx="0.5" fill="#6C707E"/>
<rect x="4" y="3" width="3" height="1" rx="0.5" transform="rotate(-180 4 3)" fill="#6C707E"/>
<path d="M10.0735 5.11816C10.4584 5.11816 10.7962 5.21166 11.0866 5.39866C11.3806 5.582 11.6063 5.84233 11.7638 6.17966C11.9213 6.51333 12 6.8965 12 7.32916V10.8822H10.9764V7.42816C10.9764 6.99183 10.8784 6.65266 10.6824 6.41066C10.4899 6.16866 10.2117 6.04766 9.84777 6.04766C9.5713 6.04766 9.33158 6.11733 9.12861 6.25666C8.92913 6.39233 8.77515 6.58666 8.66667 6.83966C8.56168 7.089 8.50919 7.38233 8.50919 7.71966V10.8822H7.49606V7.42816C7.49606 6.9955 7.39283 6.65816 7.18635 6.41616C6.98338 6.1705 6.69991 6.04766 6.33596 6.04766C5.92651 6.04766 5.6063 6.198 5.37533 6.49866C5.14436 6.79933 5.02887 7.20633 5.02887 7.71966V10.8822H4V5.25016H4.99738V6.11366C5.16185 5.79466 5.37883 5.549 5.64829 5.37666C5.92126 5.20433 6.23272 5.11816 6.58268 5.11816C6.97813 5.11816 7.32283 5.21716 7.6168 5.41516C7.91426 5.6095 8.13998 5.88083 8.29396 6.22916C8.47594 5.87716 8.71916 5.604 9.02362 5.40966C9.33158 5.21533 9.68154 5.11816 10.0735 5.11816Z" fill="#E35252"/>
</svg>
