<!-- Copyright 2000-2023 JetBrains s.r.o. and contributors. Use of this source code is governed by the Apache 2.0 license. -->
<svg width="16" height="16" viewBox="0 0 16 16" fill="none" xmlns="http://www.w3.org/2000/svg">
<path d="M3.5 13.5H2.5C1.94772 13.5 1.5 13.0523 1.5 12.5V3.5C1.5 2.94771 1.94772 2.5 2.5 2.5H3.5" stroke="#6C707E" stroke-linecap="round"/>
<path d="M12.5 13.5H13.5C14.0523 13.5 14.5 13.0523 14.5 12.5V3.5C14.5 2.94771 14.0523 2.5 13.5 2.5H12.5" stroke="#6C707E" stroke-linecap="round"/>
<path d="M8.64645 6.35355L8.79289 6.5H9H12C12.2761 6.5 12.5 6.72386 12.5 7V11C12.5 11.2761 12.2761 11.5 12 11.5H4C3.72386 11.5 3.5 11.2761 3.5 11V5C3.5 4.72386 3.72386 4.5 4 4.5H6.58579C6.71839 4.5 6.84557 4.55268 6.93934 4.64645L8.64645 6.35355Z" fill="#EBECF0" stroke="#6C707E"/>
</svg>
