<!-- Copyright 2000-2025 JetBrains s.r.o. and contributors. Use of this source code is governed by the Apache 2.0 license. -->
<svg width="16" height="16" viewBox="0 0 16 16" fill="none" xmlns="http://www.w3.org/2000/svg">
<path d="M1 3.99999C1 2.89542 1.89543 2 3.00001 2L13 2.00003C14.1046 2.00004 15 2.89546 15 4.00003V12C15 13.1046 14.1046 14 13 14H3C1.89543 14 1 13.1046 1 12V3.99999Z" fill="#43454A"/>
<path fill-rule="evenodd" clip-rule="evenodd" d="M6.01516 5H4.95306L2.76006 11H3.78346L4.27366 9.51648H6.75046L7.27936 11H8.28126L6.01516 5ZM5.57226 6.22268L6.47526 8.72958H4.52736L5.38306 6.22268L5.47766 5.84858L5.57226 6.22268Z" fill="#CED0D6"/>
<path fill-rule="evenodd" clip-rule="evenodd" d="M10 5H9V11H10V10.3926C10.1235 10.6008 10.2839 10.766 10.4812 10.8883C10.7142 11.0311 10.9833 11.1026 11.2884 11.1026C11.6199 11.1026 11.9154 11.0171 12.1748 10.8462C12.4343 10.6727 12.6361 10.4303 12.7802 10.119C12.9267 9.80776 13 9.45185 13 9.05129C13 8.65073 12.9267 8.29481 12.7802 7.98355C12.6361 7.67228 12.4343 7.43118 12.1748 7.26024C11.9154 7.08675 11.6199 7 11.2884 7C10.9833 7 10.7142 7.07144 10.4812 7.21431C10.2839 7.33657 10.1235 7.50179 10 7.70997V5ZM10.0019 9.38041H10V8.72216H10.0019V9.38041ZM11.0722 10.2874C11.2764 10.2874 11.4565 10.2351 11.6127 10.1305C11.7712 10.0259 11.8937 9.88048 11.9802 9.69423C12.0691 9.50798 12.1136 9.29367 12.1136 9.05129C12.1136 8.80891 12.0691 8.5946 11.9802 8.40835C11.8937 8.2221 11.7712 8.07667 11.6127 7.97207C11.4565 7.86746 11.2764 7.81516 11.0722 7.81516C10.868 7.81516 10.6854 7.86746 10.5244 7.97207C10.3659 8.07667 10.2422 8.2221 10.1533 8.40835C10.0668 8.5946 10.0236 8.80891 10.0236 9.05129C10.0236 9.29367 10.0668 9.50798 10.1533 9.69423C10.2422 9.88048 10.3659 10.0259 10.5244 10.1305C10.6854 10.2351 10.868 10.2874 11.0722 10.2874Z" fill="#CED0D6"/>
<path fill-rule="evenodd" clip-rule="evenodd" d="M1 3.99999C1 2.89542 1.89543 2 3.00001 2L13 2.00003C14.1046 2.00004 15 2.89546 15 4.00003V12C15 13.1046 14.1046 14 13 14H3C1.89543 14 1 13.1046 1 12V3.99999ZM14 4.00003V12C14 12.5523 13.5523 13 13 13H3C2.44772 13 2 12.5523 2 12V3.99999C2 3.44771 2.44772 2.99999 3 3L13 3.00003C13.5523 3.00003 14 3.44774 14 4.00003Z" fill="#CED0D6"/>
</svg>
