<!-- Copyright 2000-2023 JetBrains s.r.o. and contributors. Use of this source code is governed by the Apache 2.0 license. -->
<svg width="16" height="16" viewBox="0 0 16 16" fill="none" xmlns="http://www.w3.org/2000/svg">
<path fill-rule="evenodd" clip-rule="evenodd" d="M2.5 3C2.22386 3 2 3.22386 2 3.5C2 3.77614 2.22386 4 2.5 4H13.5C13.7761 4 14 3.77614 14 3.5C14 3.22386 13.7761 3 13.5 3H2.5ZM2.5 6C2.22386 6 2 6.22386 2 6.5C2 6.77614 2.22386 7 2.5 7H9.5C9.77614 7 10 6.77614 10 6.5C10 6.22386 9.77614 6 9.5 6H2.5ZM2.5 12C2.22386 12 2 12.2239 2 12.5C2 12.7761 2.22386 13 2.5 13H9.5C9.77614 13 10 12.7761 10 12.5C10 12.2239 9.77614 12 9.5 12H2.5ZM2 9.5C2 9.22386 2.22386 9 2.5 9H9.5C9.77614 9 10 9.22386 10 9.5C10 9.77614 9.77614 10 9.5 10H2.5C2.22386 10 2 9.77614 2 9.5Z" fill="#CED0D6"/>
<rect x="14" y="15" width="2" height="1" rx="0.5" fill="#CED0D6"/>
<rect x="11" y="15" width="2" height="1" rx="0.5" fill="#CED0D6"/>
<rect x="14" y="8" width="2" height="1" rx="0.5" fill="#CED0D6"/>
<rect x="11" y="8" width="2" height="1" rx="0.5" fill="#CED0D6"/>
<path fill-rule="evenodd" clip-rule="evenodd" d="M13 9.5C13 9.22386 13.2239 9 13.5 9V9C13.7761 9 14 9.22386 14 9.5V14.5C14 14.7761 13.7761 15 13.5 15V15C13.2239 15 13 14.7761 13 14.5V9.5Z" fill="#CED0D6"/>
</svg>
