<!-- Copyright 2000-2022 JetBrains s.r.o. and contributors. Use of this source code is governed by the Apache 2.0 license. -->
<svg width="16" height="16" viewBox="0 0 16 16" fill="none" xmlns="http://www.w3.org/2000/svg">
<path d="M7.99994 1C8.27608 1 8.49994 1.22386 8.49993 1.50001L8.49984 6.79289L10.1461 5.14661C10.3414 4.95134 10.658 4.95134 10.8532 5.14661C11.0485 5.34187 11.0485 5.65845 10.8532 5.85371L7.99984 8.70711L5.14645 5.85371C4.95118 5.65845 4.95118 5.34187 5.14645 5.14661C5.34171 4.95134 5.65829 4.95134 5.85355 5.14661L7.49984 6.7929L7.49993 1.49999C7.49994 1.22385 7.7238 0.999997 7.99994 1Z" fill="#5FB865"/>
<path d="M6 12H4V13H6V12Z" fill="#5FB865"/>
<path fill-rule="evenodd" clip-rule="evenodd" d="M2 11V14C2 14.5523 2.44772 15 3 15H13C13.5523 15 14 14.5523 14 14V11C14 10.4477 13.5523 10 13 10H3C2.44772 10 2 10.4477 2 11ZM3 14V11H13L13 14H3Z" fill="#5FB865"/>
</svg>
