<!-- Copyright 2000-2023 JetBrains s.r.o. and contributors. Use of this source code is governed by the Apache 2.0 license. -->
<svg width="16" height="16" viewBox="0 0 16 16" fill="none" xmlns="http://www.w3.org/2000/svg">
<path fill-rule="evenodd" clip-rule="evenodd" d="M8.24408 6.65516C8.05415 6.43616 7.96859 6.14552 8.00959 5.85854L8.50238 2.40901L3.10978 8.99996H6.99954C7.28943 8.99996 7.56505 9.12576 7.75499 9.34476C7.94493 9.56376 8.03048 9.85441 7.98949 10.1414L7.4967 13.5909L12.8893 6.99996H8.99954C8.70965 6.99996 8.43402 6.87416 8.24408 6.65516ZM9.74593 0.775195C9.81752 0.274069 9.18453 -0.00392066 8.86398 0.387867L1.66768 9.18334C1.40057 9.50981 1.63285 9.99996 2.05466 9.99996H6.99954L6.25314 15.2247C6.18155 15.7259 6.81454 16.0038 7.1351 15.6121L14.3314 6.81658C14.5985 6.49012 14.3662 5.99996 13.9444 5.99996H8.99954L9.74593 0.775195Z" fill="#C77D55"/>
</svg>
