<!-- Copyright 2000-2023 JetBrains s.r.o. and contributors. Use of this source code is governed by the Apache 2.0 license. -->
<svg width="16" height="16" viewBox="0 0 16 16" fill="none" xmlns="http://www.w3.org/2000/svg">
<path fill-rule="evenodd" clip-rule="evenodd" d="M11 3C11 2.44772 11.4477 2 12 2H14.5C14.7761 2 15 2.22386 15 2.5C15 2.77614 14.7761 3 14.5 3L12 3V13H14.5C14.7761 13 15 13.2239 15 13.5C15 13.7761 14.7761 14 14.5 14H12C11.4477 14 11 13.5523 11 13V3Z" fill="#6C707E"/>
<path fill-rule="evenodd" clip-rule="evenodd" d="M6.64645 5.14645C6.84171 4.95118 7.15829 4.95118 7.35355 5.14645L9.85355 7.64645C9.94732 7.74021 10 7.86739 10 8C10 8.13261 9.94732 8.25979 9.85355 8.35355L7.35355 10.8536C7.15829 11.0488 6.84171 11.0488 6.64645 10.8536C6.45118 10.6583 6.45118 10.3417 6.64645 10.1464L8.29289 8.5H1.5C1.22386 8.5 1 8.27614 1 8C1 7.72386 1.22386 7.5 1.5 7.5H8.29289L6.64645 5.85355C6.45118 5.65829 6.45118 5.34171 6.64645 5.14645Z" fill="#6C707E"/>
</svg>
