<!-- Copyright 2000-2023 JetBrains s.r.o. and contributors. Use of this source code is governed by the Apache 2.0 license. -->
<svg width="16" height="16" viewBox="0 0 16 16" fill="none" xmlns="http://www.w3.org/2000/svg">
<path fill-rule="evenodd" clip-rule="evenodd" d="M12 2C13.1046 2 14 2.89543 14 4V12C14 13.1046 13.1046 14 12 14H4C2.89543 14 2 13.1046 2 12V4C2 3.93096 2.0035 3.86275 2.01033 3.79551C2.11275 2.787 2.96447 2 4 2H12ZM7 3H12C12.5523 3 13 3.44772 13 4V12C13 12.5523 12.5523 13 12 13H4C3.44772 13 3 12.5523 3 12V9H6C6.55228 9 7 8.55228 7 8V3ZM6 3H4C3.48223 3 3.05637 3.3935 3.00516 3.89776C3.00175 3.93137 3 3.96548 3 4V8H6V3Z" fill="#6C707E"/>
</svg>
