<!-- Copyright 2000-2023 JetBrains s.r.o. and contributors. Use of this source code is governed by the Apache 2.0 license. -->
<svg width="16" height="16" viewBox="0 0 16 16" fill="none" xmlns="http://www.w3.org/2000/svg">
<path fill-rule="evenodd" clip-rule="evenodd" d="M2 4C2 2.89543 2.89543 2 4 2H12C13.1046 2 14 2.89543 14 4V12C14 13.1046 13.1046 14 12 14H4C2.89543 14 2 13.1046 2 12V4ZM4 3H12C12.5523 3 13 3.44772 13 4V7H10C9.44772 7 9 7.44772 9 8V13H4C3.44772 13 3 12.5523 3 12V4C3 3.44772 3.44772 3 4 3ZM10 13H12C12.5523 13 13 12.5523 13 12V8H10V13Z" fill="#6C707E"/>
</svg>
