<!-- Copyright 2000-2023 JetBrains s.r.o. and contributors. Use of this source code is governed by the Apache 2.0 license. -->
<svg width="16" height="16" viewBox="0 0 16 16" fill="none" xmlns="http://www.w3.org/2000/svg">
<path d="M6 3.02242V3C6 1.89543 6.89543 1 8 1H13C14.1046 1 15 1.89543 15 3V9C15 10.1046 14.1046 11 13 11H10.4003C10.5622 10.6832 10.6944 10.3486 10.793 10H13C13.5523 10 14 9.55228 14 9V3C14 2.44772 13.5523 2 13 2H8C7.44772 2 7 2.44772 7 3V3.20703C6.67772 3.11588 6.34341 3.05337 6 3.02242Z" fill="#CED0D6"/>
<path d="M9.74284 5C9.42948 4.62057 9.06621 4.28389 8.66308 4H12.5C12.7761 4 13 4.22386 13 4.5C13 4.77614 12.7761 5 12.5 5H9.74284Z" fill="#CED0D6"/>
<path d="M10.9776 8C10.9466 7.65659 10.8841 7.32228 10.793 7H12.5C12.7761 7 13 7.22386 13 7.5C13 7.77614 12.7761 8 12.5 8H10.9776Z" fill="#CED0D6"/>
<path fill-rule="evenodd" clip-rule="evenodd" d="M5.5 13C6.56251 13 7.53901 12.6318 8.30884 12.0159L11.1464 14.8536C11.3417 15.0488 11.6583 15.0488 11.8536 14.8536C12.0488 14.6583 12.0488 14.3417 11.8536 14.1464L9.01595 11.3088C9.63176 10.539 10 9.56251 10 8.5C10 6.01472 7.98528 4 5.5 4C3.01472 4 1 6.01472 1 8.5C1 10.9853 3.01472 13 5.5 13ZM5.5 12C7.433 12 9 10.433 9 8.5C9 6.567 7.433 5 5.5 5C3.567 5 2 6.567 2 8.5C2 10.433 3.567 12 5.5 12Z" fill="#CED0D6"/>
</svg>
