<!-- Copyright 2000-2023 JetBrains s.r.o. and contributors. Use of this source code is governed by the Apache 2.0 license. -->
<svg width="16" height="16" viewBox="0 0 16 16" fill="none" xmlns="http://www.w3.org/2000/svg">
<g clip-path="url(#clip0_12362_11796)">
<path d="M4 4V12C4 13.1046 4.89543 14 6 14H8V10C8 8.89543 8.89543 8 10 8H12V4C12 2.89543 11.1046 2 10 2H6C4.89543 2 4 2.89543 4 4Z" fill="#43454A"/>
<path d="M11.5 11C11.2239 11 11 11.2239 11 11.5C11 11.7761 11.2239 12 11.5 12H13.5C13.7761 12 14 11.7761 14 11.5C14 11.2239 13.7761 11 13.5 11H11.5Z" fill="#CED0D6"/>
<path fill-rule="evenodd" clip-rule="evenodd" d="M9 15V10C9 9.44772 9.44772 9 10 9H13.5858C13.851 9 14.1054 9.10536 14.2929 9.29289L15.7071 10.7071C15.8946 10.8946 16 11.149 16 11.4142V15C16 15.5523 15.5523 16 15 16H10C9.44772 16 9 15.5523 9 15ZM10 10V15H11V14C11 13.4477 11.4477 13 12 13H13C13.5523 13 14 13.4477 14 14V15H15V11.4142L13.5858 10L10 10ZM13 15H12V14H13V15Z" fill="#CED0D6"/>
<path d="M6 2C4.89543 2 4 2.89543 4 4H1.5C1.22386 4 1 4.22386 1 4.5C1 4.77614 1.22386 5 1.5 5H3.99998L4 4V12L3.99998 11H1.5C1.22386 11 1 11.2239 1 11.5C1 11.7761 1.22386 12 1.5 12H4C4 13.1046 4.89543 14 6 14H8V13H6C5.44772 13 5 12.5523 5 12V4C5 3.44772 5.44772 3 6 3H10C10.5523 3 11 3.44772 11 4V8H12V5H14.5C14.7761 5 15 4.77614 15 4.5C15 4.22386 14.7761 4 14.5 4H12C12 2.89543 11.1046 2 10 2H6Z" fill="#CED0D6"/>
<path d="M1.5 7.5C1.22386 7.5 1 7.72386 1 8C1 8.27614 1.22386 8.5 1.5 8.5H3.99998V7.5H1.5Z" fill="#CED0D6"/>
</g>
<defs>
<clipPath id="clip0_12362_11796">
<rect width="16" height="16" fill="white"/>
</clipPath>
</defs>
</svg>
