<!-- Copyright 2000-2023 JetBrains s.r.o. and contributors. Use of this source code is governed by the Apache 2.0 license. -->
<svg width="16" height="16" viewBox="0 0 16 16" fill="none" xmlns="http://www.w3.org/2000/svg">
<path d="M11.5 11C11.2239 11 11 11.2239 11 11.5C11 11.7761 11.2239 12 11.5 12H13.5C13.7761 12 14 11.7761 14 11.5C14 11.2239 13.7761 11 13.5 11H11.5Z" fill="#CED0D6"/>
<path fill-rule="evenodd" clip-rule="evenodd" d="M9 15V10C9 9.44772 9.44772 9 10 9H13.5858C13.851 9 14.1054 9.10536 14.2929 9.29289L15.7071 10.7071C15.8946 10.8946 16 11.149 16 11.4142V15C16 15.5523 15.5523 16 15 16H10C9.44772 16 9 15.5523 9 15ZM10 10V15H11V14C11 13.4477 11.4477 13 12 13H13C13.5523 13 14 13.4477 14 14V15H15V11.4142L13.5858 10L10 10ZM13 15H12V14H13V15Z" fill="#CED0D6"/>
<path d="M1 8C1 4.13401 4.13401 1 8 1C11.866 1 15 4.13401 15 8C15 8.18978 14.9924 8.3778 14.9776 8.56376C14.7054 8.29991 14.3658 8.12076 13.9998 8.04332C13.9999 8.0289 14 8.01445 14 8C14 4.68629 11.3137 2 8 2C4.68629 2 2 4.68629 2 8C2 11.3137 4.68629 14 8 14V15C4.13401 15 1 11.866 1 8Z" fill="#CED0D6"/>
<path d="M8.00008 4.5C8.27622 4.5 8.50008 4.72386 8.50008 5V8C8.50008 8.17563 8.40793 8.33838 8.25732 8.42875L5.75732 9.92875C5.52053 10.0708 5.2134 9.99404 5.07133 9.75725C4.92925 9.52046 5.00604 9.21333 5.24283 9.07125L7.50008 7.7169V5C7.50008 4.72386 7.72393 4.5 8.00008 4.5Z" fill="#CED0D6"/>
</svg>
