<!-- Copyright 2000-2023 JetBrains s.r.o. and contributors. Use of this source code is governed by the Apache 2.0 license. -->
<svg width="16" height="16" viewBox="0 0 16 16" fill="none" xmlns="http://www.w3.org/2000/svg">
<path fill-rule="evenodd" clip-rule="evenodd" d="M9 9.50215C9 8.32441 10.2951 7.60608 11.2942 8.22967L15.2962 10.7275C16.2372 11.3149 16.2372 12.6851 15.2962 13.2725L11.2942 15.7703C10.2951 16.3939 9 15.6756 9 14.4978V9.50215ZM10.7647 9.07799C10.4317 8.87013 10 9.10957 10 9.50215V14.4978C10 14.8904 10.4317 15.1298 10.7647 14.922L14.7667 12.4241C15.0804 12.2284 15.0804 11.7716 14.7667 11.5758L10.7647 9.07799Z" fill="#DB5C5C"/>
<path d="M10 9.50217C10 9.10959 10.4317 8.87015 10.7647 9.07801L14.7667 11.5758C15.0804 11.7716 15.0804 12.2284 14.7667 12.4242L10.7647 14.922C10.4317 15.1299 10 14.8904 10 14.4978V9.50217Z" fill="#402929"/>
<path d="M2 8C2 4.68629 4.68629 2 8 2C11.3137 2 14 4.68629 14 8C14 8.24139 13.9857 8.47944 13.958 8.71338L14.8814 9.28972C14.9593 8.87169 15 8.4406 15 8C15 4.13401 11.866 1 8 1C4.13401 1 1 4.13401 1 8C1 11.866 4.13401 15 8 15V14C4.68629 14 2 11.3137 2 8Z" fill="#CED0D6"/>
<path d="M8.00008 4.5C8.27622 4.5 8.50008 4.72386 8.50008 5V8C8.50008 8.17563 8.40793 8.33838 8.25732 8.42875L5.75732 9.92875C5.52053 10.0708 5.2134 9.99404 5.07133 9.75725C4.92926 9.52046 5.00604 9.21333 5.24283 9.07125L7.50008 7.7169V5C7.50008 4.72386 7.72393 4.5 8.00008 4.5Z" fill="#CED0D6"/>
</svg>
