<!-- Copyright 2000-2023 JetBrains s.r.o. and contributors. Use of this source code is governed by the Apache 2.0 license. -->
<svg width="16" height="16" viewBox="0 0 16 16" fill="none" xmlns="http://www.w3.org/2000/svg">
<path d="M11.5 11C11.2239 11 11 11.2239 11 11.5C11 11.7761 11.2239 12 11.5 12H13.5C13.7761 12 14 11.7761 14 11.5C14 11.2239 13.7761 11 13.5 11H11.5Z" fill="#6C707E"/>
<path fill-rule="evenodd" clip-rule="evenodd" d="M9 15V10C9 9.44772 9.44772 9 10 9H13.5858C13.851 9 14.1054 9.10536 14.2929 9.29289L15.7071 10.7071C15.8946 10.8946 16 11.149 16 11.4142V15C16 15.5523 15.5523 16 15 16H10C9.44772 16 9 15.5523 9 15ZM10 10V15H11V14C11 13.4477 11.4477 13 12 13H13C13.5523 13 14 13.4477 14 14V15H15V11.4142L13.5858 10L10 10ZM13 15H12V14H13V15Z" fill="#6C707E"/>
<path d="M1 8C1 4.13401 4.13401 1 8 1C11.866 1 15 4.13401 15 8C15 8.18978 14.9924 8.3778 14.9776 8.56376C14.7054 8.29991 14.3658 8.12076 13.9998 8.04332C13.9999 8.0289 14 8.01445 14 8C14 4.68629 11.3137 2 8 2C4.68629 2 2 4.68629 2 8C2 11.3137 4.68629 14 8 14V15C4.13401 15 1 11.866 1 8Z" fill="#6C707E"/>
<path d="M9.22872 8.15414C8.89179 8.29509 8.60163 8.5256 8.38803 8.81591L7.74275 8.42875C7.59215 8.33838 7.5 8.17563 7.5 8V5C7.5 4.72386 7.72386 4.5 8 4.5C8.27614 4.5 8.5 4.72386 8.5 5V7.7169L9.22872 8.15414Z" fill="#6C707E"/>
</svg>
