<!-- Copyright 2000-2024 JetBrains s.r.o. and contributors. Use of this source code is governed by the Apache 2.0 license. -->
<svg width="16" height="16" viewBox="0 0 16 16" fill="none" xmlns="http://www.w3.org/2000/svg">
<path d="M10.164 10.8717C9.30216 11.5769 8.20049 12 7 12C6.59443 12 6.20013 11.9517 5.82255 11.8606L5.36279 10.6507C5.86252 10.8751 6.41668 11 7 11C9.20914 11 11 9.20914 11 7C11 4.79086 9.20914 3 7 3C4.79086 3 3 4.79086 3 7C3 7.3453 3.04375 7.68038 3.12602 8H2.10002C2.03443 7.67689 2 7.34247 2 7C2 4.23858 4.23858 2 7 2C9.76142 2 12 4.23858 12 7C12 8.20078 11.5767 9.3027 10.8712 10.1647L13.8526 13.1424C14.0479 13.3375 14.0481 13.6541 13.853 13.8495C13.6578 14.0449 13.3413 14.045 13.1459 13.8499L10.164 10.8717Z" fill="#CED0D6"/>
<path fill-rule="evenodd" clip-rule="evenodd" d="M3.665 9H2.57L0 16H1.075L1.67 14.22H4.635L5.275 16H6.325L3.665 9ZM3.225 10.33L4.335 13.385H1.95L3 10.33L3.11 9.9L3.225 10.33Z" fill="#CED0D6"/>
</svg>
