<!-- Copyright 2000-2023 JetBrains s.r.o. and contributors. Use of this source code is governed by the Apache 2.0 license. -->
<svg width="17" height="16" viewBox="0 0 17 16" fill="none" xmlns="http://www.w3.org/2000/svg">
<path fill-rule="evenodd" clip-rule="evenodd" d="M9 9.50215C9 8.32441 10.2951 7.60608 11.2942 8.22967L15.2962 10.7275C16.2372 11.3149 16.2372 12.6851 15.2962 13.2725L11.2942 15.7703C10.2951 16.3939 9 15.6756 9 14.4978V9.50215ZM10.7647 9.07799C10.4317 8.87013 10 9.10957 10 9.50215V14.4978C10 14.8904 10.4317 15.1298 10.7647 14.922L14.7667 12.4241C15.0804 12.2284 15.0804 11.7716 14.7667 11.5758L10.7647 9.07799Z" fill="#208A3C"/>
<path d="M10 9.50226C10 9.10968 10.4317 8.87024 10.7647 9.0781L14.7667 11.5759C15.0804 11.7717 15.0804 12.2285 14.7667 12.4243L10.7647 14.9221C10.4317 15.13 10 14.8905 10 14.4979V9.50226Z" fill="#F2FCF3"/>
<path d="M10.5 2C10.2239 2 10 2.22386 10 2.5V3.08902C9.99986 3.09587 9.99986 3.10271 10 3.10954V5.5C10 5.77614 10.2239 6 10.5 6C10.7761 6 11 5.77614 11 5.5V3.99951C12.215 4.91216 13 6.36471 13 7.99998C13 8.03829 12.9996 8.07651 12.9987 8.11462L13.958 8.71338C13.9857 8.47944 14 8.24138 14 7.99998C14 5.91232 12.9337 4.0744 11.3177 3H13.5C13.7761 3 14 2.77614 14 2.5C14 2.22386 13.7761 2 13.5 2H10.5Z" fill="#6C707E"/>
<path d="M6 10.5C6 10.2239 5.77614 10 5.5 10C5.22386 10 5 10.2239 5 10.5V12.0004C3.78495 11.0878 3 9.63525 3 7.99998C3 5.54954 4.76326 3.50989 7.09033 3.08244C7.36193 3.03255 7.54166 2.77193 7.49177 2.50033C7.44188 2.22873 7.18127 2.049 6.90967 2.09889C4.1165 2.61195 2 5.05827 2 7.99998C2 10.0877 3.06633 11.9256 4.68238 13H2.5C2.22386 13 2 13.2239 2 13.5C2 13.7761 2.22386 14 2.5 14H5.5C5.77614 14 6 13.7761 6 13.5V12.911C6.00014 12.9041 6.00014 12.8972 6 12.8904V10.5Z" fill="#6C707E"/>
</svg>
