<!-- Copyright 2000-2023 JetBrains s.r.o. and contributors. Use of this source code is governed by the Apache 2.0 license. -->
<svg width="16" height="16" viewBox="0 0 16 16" fill="none" xmlns="http://www.w3.org/2000/svg">
<path d="M9.35558 7.25929C9.81637 7.65809 9.81637 8.37278 9.35558 8.77157L4.15681 13.2709C3.5091 13.8315 2.5024 13.3714 2.5024 12.5148L2.5024 3.5161C2.5024 2.6595 3.5091 2.19939 4.15681 2.75996L9.35558 7.25929Z" fill="#253627"/>
<path fill-rule="evenodd" clip-rule="evenodd" d="M9.68279 6.88122C10.374 7.47941 10.374 8.55145 9.68279 9.14964L4.48401 13.649C3.51245 14.4898 2.0024 13.7997 2.0024 12.5148L2.0024 3.51609C2.0024 2.23119 3.51245 1.54103 4.48402 2.38188L9.68279 6.88122ZM9.02838 8.3935C9.25877 8.1941 9.25877 7.83675 9.02838 7.63736L3.82961 3.13802C3.50575 2.85774 3.0024 3.08779 3.0024 3.51609L3.0024 12.5148C3.0024 12.9431 3.50575 13.1731 3.8296 12.8928L9.02838 8.3935Z" fill="#57965C"/>
<path d="M7.85764 2.5L13.3568 7.2593C13.8176 7.65809 13.8176 8.37279 13.3568 8.77158L7.8933 13.5" stroke="#57965C" stroke-linecap="round"/>
</svg>
