<!-- Copyright 2000-2024 JetBrains s.r.o. and contributors. Use of this source code is governed by the Apache 2.0 license. -->
<svg width="16" height="16" viewBox="0 0 16 16" fill="none" xmlns="http://www.w3.org/2000/svg">
<rect x="0.5" y="13.5" width="2" height="2" rx="0.5" fill="#25324D" stroke="#548AF7"/>
<rect x="4.5" y="13.5" width="2" height="2" rx="0.5" fill="#25324D" stroke="#548AF7"/>
<rect x="2.5" y="9.5" width="2" height="2" rx="0.5" fill="#25324D" stroke="#548AF7"/>
<path d="M7 12C8.20049 12 9.30216 11.5769 10.164 10.8717L13.1459 13.8499C13.3413 14.045 13.6578 14.0449 13.853 13.8495C14.0481 13.6541 14.0479 13.3375 13.8526 13.1424L10.8712 10.1647C11.5767 9.3027 12 8.20078 12 7C12 4.23858 9.76142 2 7 2C4.23858 2 2 4.23858 2 7C2 7.41092 2.04957 7.81026 2.14306 8.19237C2.40279 8.06902 2.69334 8 3 8H3.12602C3.04375 7.68038 3 7.3453 3 7C3 4.79086 4.79086 3 7 3C9.20914 3 11 4.79086 11 7C11 9.20914 9.20914 11 7 11C6.6547 11 6.31962 10.9562 6 10.874V11C6 11.3067 5.93098 11.5972 5.80763 11.8569C6.18974 11.9504 6.58908 12 7 12Z" fill="#CED0D6"/>
</svg>
