<!-- Copyright 2000-2023 JetBrains s.r.o. and contributors. Use of this source code is governed by the Apache 2.0 license. -->
<svg width="16" height="16" viewBox="0 0 16 16" fill="none" xmlns="http://www.w3.org/2000/svg">
<path fill-rule="evenodd" clip-rule="evenodd" d="M5.85355 11.3536C5.65829 11.5488 5.34171 11.5488 5.14645 11.3536C4.95118 11.1583 4.95118 10.8417 5.14645 10.6464L7.29289 8.5H1.5C1.22386 8.5 1 8.27614 1 8C1 7.72386 1.22386 7.5 1.5 7.5L7.29289 7.5L5.14645 5.35355C4.95118 5.15829 4.95118 4.84171 5.14645 4.64645C5.34171 4.45118 5.65829 4.45118 5.85355 4.64645L8.85355 7.64645L9.20711 8L8.85355 8.35355L5.85355 11.3536Z" fill="#6C707E"/>
<path fill-rule="evenodd" clip-rule="evenodd" d="M8.60439 11.6452L9.65655 13.3314C10.2315 14.253 11.5048 14.253 12.0798 13.3314L14.8667 8.865C15.1895 8.34756 15.1895 7.67501 14.8667 7.15757L12.0798 2.69112C11.5048 1.7696 10.2315 1.7696 9.65655 2.69112L8.6045 4.37722L9.30175 5.12343L10.4643 3.26027C10.656 2.95309 11.0804 2.95309 11.272 3.26027L14.0589 7.72671C14.1665 7.89919 14.1665 8.12338 14.0589 8.29586L11.272 12.7623C11.0804 13.0695 10.656 13.0695 10.4643 12.7623L9.30164 10.899L8.60439 11.6452Z" fill="#DB3B4B"/>
</svg>
