<!-- Copyright 2000-2023 JetBrains s.r.o. and contributors. Use of this source code is governed by the Apache 2.0 license. -->
<svg width="16" height="16" viewBox="0 0 16 16" fill="none" xmlns="http://www.w3.org/2000/svg">
<path fill-rule="evenodd" clip-rule="evenodd" d="M4.35348 4.64645C4.54874 4.45118 4.86532 4.45118 5.06058 4.64645C5.25585 4.84171 5.25585 5.15829 5.06058 5.35355L2.91414 7.5L8.70703 7.5C8.98317 7.5 9.20703 7.72386 9.20703 8C9.20703 8.27614 8.98317 8.5 8.70703 8.5L2.91414 8.5L5.06058 10.6464C5.25585 10.8417 5.25585 11.1583 5.06058 11.3536C4.86532 11.5488 4.54874 11.5488 4.35348 11.3536L1.35348 8.35355L0.999924 8L1.35348 7.64645L4.35348 4.64645Z" fill="#CED0D6"/>
<path fill-rule="evenodd" clip-rule="evenodd" d="M11.0812 2.68003C10.5057 1.75932 9.23116 1.75933 8.65559 2.68003L6.62988 5.92047H7.79391L9.46414 3.24867C9.65599 2.94177 10.0808 2.94177 10.2727 3.24867L13.0584 7.70487C13.1661 7.87719 13.1661 8.10118 13.0584 8.27351L10.2727 12.7297C10.0808 13.0366 9.65599 13.0366 9.46414 12.7297L7.85969 10.1631H6.69566L8.65559 13.2983C9.23116 14.2191 10.5057 14.2191 11.0812 13.2983L13.867 8.84215C14.1901 8.32517 14.1901 7.65321 13.867 7.13623L11.0812 2.68003Z" fill="#5FAD65"/>
</svg>
