<!-- Copyright 2000-2023 JetBrains s.r.o. and contributors. Use of this source code is governed by the Apache 2.0 license. -->
<svg width="16" height="16" viewBox="0 0 16 16" fill="none" xmlns="http://www.w3.org/2000/svg">
<path fill-rule="evenodd" clip-rule="evenodd" d="M5.85355 11.3536C5.65829 11.5488 5.34171 11.5488 5.14645 11.3536C4.95118 11.1583 4.95118 10.8417 5.14645 10.6464L7.29289 8.5H1.5C1.22386 8.5 1 8.27614 1 8C1 7.72386 1.22386 7.5 1.5 7.5L7.29289 7.5L5.14645 5.35355C4.95118 5.15829 4.95118 4.84171 5.14645 4.64645C5.34171 4.45118 5.65829 4.45118 5.85355 4.64645L8.85355 7.64645C9.04882 7.84171 9.04882 8.15829 8.85355 8.35355L5.85355 11.3536Z" fill="#6C707E"/>
<path d="M8.85688 6.23583L10.5656 3.25218C10.7577 2.91678 11.2412 2.91678 11.4333 3.25218L13.8668 7.50138C14.0432 7.80948 14.0433 8.18808 13.8669 8.49622L11.4333 12.7477C11.2412 13.0833 10.7576 13.0833 10.5656 12.7477L8.85744 9.76361L8.12454 10.4965L9.69782 13.245C10.274 14.2517 11.7249 14.2517 12.3011 13.245L14.7346 8.99355C15.0874 8.37726 15.0873 7.62006 14.7344 7.00386L12.3009 2.75466C11.7246 1.74845 10.2743 1.74845 9.69799 2.75466L8.12402 5.50297L8.85688 6.23583Z" fill="#DB3B4B"/>
</svg>
