<!-- Copyright 2000-2022 JetBrains s.r.o. and contributors. Use of this source code is governed by the Apache 2.0 license. -->
<svg width="16" height="16" viewBox="0 0 16 16" fill="none" xmlns="http://www.w3.org/2000/svg">
<path fill-rule="evenodd" clip-rule="evenodd" d="M4.35348 4.64645C4.54874 4.45118 4.86532 4.45118 5.06058 4.64645C5.25585 4.84171 5.25585 5.15829 5.06058 5.35355L2.91414 7.5L8.70703 7.5C8.98317 7.5 9.20703 7.72386 9.20703 8C9.20703 8.27614 8.98317 8.5 8.70703 8.5L2.91414 8.5L5.06058 10.6464C5.25585 10.8417 5.25585 11.1583 5.06058 11.3536C4.86532 11.5488 4.54874 11.5488 4.35348 11.3536L1.35348 8.35355L0.999924 8L1.35348 7.64645L4.35348 4.64645Z" fill="#CED0D6"/>
<path fill-rule="evenodd" clip-rule="evenodd" d="M11.0817 2.67979C10.5062 1.75908 9.23164 1.75908 8.65608 2.67979L6.63037 5.92022H7.7944L9.46463 3.24843C9.65648 2.94153 10.0813 2.94153 10.2732 3.24843L13.0589 7.70462C13.1666 7.87695 13.1666 8.10094 13.0589 8.27326L10.2732 12.7295C10.0813 13.0364 9.65648 13.0364 9.46463 12.7295L7.86017 10.1629H6.69615L8.65608 13.2981C9.23165 14.2188 10.5062 14.2188 11.0817 13.2981L13.8674 8.8419C14.1906 8.32492 14.1906 7.65296 13.8674 7.13598L11.0817 2.67979Z" fill="#5FAD65"/>
</svg>
