<!-- Copyright 2000-2023 JetBrains s.r.o. and contributors. Use of this source code is governed by the Apache 2.0 license. -->
<svg width="16" height="16" viewBox="0 0 16 16" fill="none" xmlns="http://www.w3.org/2000/svg">
<path fill-rule="evenodd" clip-rule="evenodd" d="M5.85355 11.3536C5.65829 11.5488 5.34171 11.5488 5.14645 11.3536C4.95118 11.1583 4.95118 10.8417 5.14645 10.6464L7.29289 8.5H1.5C1.22386 8.5 1 8.27614 1 8C1 7.72386 1.22386 7.5 1.5 7.5L7.29289 7.5L5.14645 5.35355C4.95118 5.15829 4.95118 4.84171 5.14645 4.64645C5.34171 4.45118 5.65829 4.45118 5.85355 4.64645L8.85355 7.64645L9.20711 8L8.85355 8.35355L5.85355 11.3536Z" fill="#CED0D6"/>
<path fill-rule="evenodd" clip-rule="evenodd" d="M8.60449 11.6452L9.65666 13.3315C10.2316 14.253 11.5049 14.253 12.0799 13.3315L14.8668 8.86502C15.1896 8.34758 15.1896 7.67503 14.8668 7.15759L12.0799 2.69114C11.5049 1.76962 10.2316 1.76962 9.65666 2.69114L8.6046 4.37724L9.30186 5.12345L10.4644 3.26029C10.6561 2.95311 11.0805 2.95311 11.2721 3.26029L14.059 7.72673C14.1666 7.89921 14.1666 8.1234 14.059 8.29588L11.2721 12.7623C11.0805 13.0695 10.6561 13.0695 10.4644 12.7623L9.30175 10.899L8.60449 11.6452Z" fill="#DB5C5C"/>
</svg>
