<!-- Copyright 2000-2023 JetBrains s.r.o. and contributors. Use of this source code is governed by the Apache 2.0 license. -->
<svg width="16" height="16" viewBox="0 0 16 16" fill="none" xmlns="http://www.w3.org/2000/svg">
<path fill-rule="evenodd" clip-rule="evenodd" d="M4.14648 4.64645C4.34174 4.45118 4.65833 4.45118 4.85359 4.64645C5.04885 4.84171 5.04885 5.15829 4.85359 5.35355L2.70712 7.5L8.7071 7.5C8.98325 7.5 9.20711 7.72386 9.20711 8C9.20711 8.27614 8.98325 8.5 8.7071 8.5L2.70712 8.5L4.85359 10.6464C5.04885 10.8417 5.04885 11.1583 4.85359 11.3536C4.65832 11.5488 4.34174 11.5488 4.14648 11.3536L1.14645 8.35355C1.05268 8.25978 1 8.13261 1 8C1 7.86739 1.05268 7.74021 1.14645 7.64645L4.14648 4.64645Z" fill="#CED0D6"/>
<path d="M8.70627 6.5L10.5663 3.25218C10.7584 2.91678 11.2419 2.91678 11.4339 3.25218L13.8675 7.50138C14.0439 7.80948 14.044 8.18808 13.8676 8.49622L11.434 12.7477C11.2419 13.0833 10.7583 13.0833 10.5663 12.7477L8.70724 9.5H7.55483L9.69851 13.245C10.2747 14.2517 11.7256 14.2517 12.3017 13.245L14.7353 8.99355C15.0881 8.37726 15.088 7.62006 14.7351 7.00386L12.3016 2.75466C11.7253 1.74845 10.2749 1.74845 9.69868 2.75466L7.55371 6.5H8.70627Z" fill="#57965C"/>
</svg>
