<!-- Copyright 2000-2023 JetBrains s.r.o. and contributors. Use of this source code is governed by the Apache 2.0 license. -->
<svg width="16" height="16" viewBox="0 0 16 16" fill="none" xmlns="http://www.w3.org/2000/svg">
<g clip-path="url(#clip0_11453_11591)">
<path fill-rule="evenodd" clip-rule="evenodd" d="M9 9.5024C9 8.32466 10.2951 7.60632 11.2942 8.22991L15.2962 10.7277C16.2372 11.3151 16.2372 12.6854 15.2962 13.2727L11.2942 15.7705C10.2951 16.3941 9 15.6758 9 14.4981V9.5024ZM10.7647 9.07823C10.4317 8.87037 10 9.10982 10 9.5024V14.4981C10 14.8906 10.4317 15.1301 10.7647 14.9222L14.7667 12.4244C15.0804 12.2286 15.0804 11.7719 14.7667 11.5761L10.7647 9.07823Z" fill="#57965C"/>
<path d="M10 9.50226C10 9.10968 10.4317 8.87024 10.7647 9.0781L14.7667 11.5759C15.0804 11.7717 15.0804 12.2285 14.7667 12.4243L10.7647 14.9221C10.4317 15.13 10 14.8905 10 14.4979V9.50226Z" fill="#253627"/>
<path d="M4 12V4C4 2.89543 4.89543 2 6 2H10C11.1046 2 12 2.89543 12 4V7.49176L11.8237 7.38172C10.1585 6.3424 8 7.53963 8 9.50253V14H6C4.89543 14 4 13.1046 4 12Z" fill="#43454A"/>
<path d="M4 4C4 2.89543 4.89543 2 6 2H10C11.1046 2 12 2.89543 12 4H14.5C14.7761 4 15 4.22386 15 4.5C15 4.77614 14.7761 5 14.5 5H12V7.49176L11.8237 7.38172C11.5581 7.21595 11.2799 7.10707 11 7.04913V4C11 3.44772 10.5523 3 10 3H6C5.44772 3 5 3.44772 5 4V12C5 12.5523 5.44772 13 6 13H8V14H6C4.89543 14 4 13.1046 4 12V4Z" fill="#CED0D6"/>
<path d="M4 4L3.99998 5H1.5C1.22386 5 1 4.77614 1 4.5C1 4.22386 1.22386 4 1.5 4L4 4Z" fill="#CED0D6"/>
<path d="M4 12H1.5C1.22386 12 1 11.7761 1 11.5C1 11.2239 1.22386 11 1.5 11H3.99998L4 12Z" fill="#CED0D6"/>
<path d="M13.6154 8.5H14.5C14.7761 8.5 15 8.27614 15 8C15 7.72386 14.7761 7.5 14.5 7.5H12.0132L13.6154 8.5Z" fill="#CED0D6"/>
<path d="M1.5 7.5C1.22386 7.5 1 7.72386 1 8C1 8.27614 1.22386 8.5 1.5 8.5H3.99998V7.5H1.5Z" fill="#CED0D6"/>
</g>
<defs>
<clipPath id="clip0_11453_11591">
<rect width="16" height="16" fill="white"/>
</clipPath>
</defs>
</svg>
