<!-- Copyright 2000-2025 JetBrains s.r.o. and contributors. Use of this source code is governed by the Apache 2.0 license. -->
<svg width="16" height="16" viewBox="0 0 16 16" fill="none" xmlns="http://www.w3.org/2000/svg">
<path d="M4 1.5C4 1.22386 4.22386 1 4.5 1H11.5C11.7761 1 12 1.22386 12 1.5C12 1.77614 11.7761 2 11.5 2H4.5C4.22386 2 4 1.77614 4 1.5Z" fill="#CED0D6"/>
<path d="M8 5.5C8.27614 5.5 8.5 5.72386 8.5 6V8.13378C8.7989 8.30669 9 8.62986 9 9C9 9.55229 8.55229 10 8 10C7.44772 10 7 9.55229 7 9C7 8.62986 7.2011 8.30669 7.5 8.13378V6C7.5 5.72386 7.72386 5.5 8 5.5Z" fill="#CED0D6"/>
<path fill-rule="evenodd" clip-rule="evenodd" d="M13.8536 3.85355C14.0488 3.65829 14.0488 3.34171 13.8536 3.14645C13.6583 2.95118 13.3417 2.95118 13.1464 3.14645L11.8744 4.41847C10.8291 3.53358 9.47685 3 8 3C4.68629 3 2 5.68629 2 9C2 12.3137 4.68629 15 8 15C11.3137 15 14 12.3137 14 9C14 7.52315 13.4664 6.17092 12.5815 5.12558L13.8536 3.85355ZM13 9C13 11.7614 10.7614 14 8 14C5.23858 14 3 11.7614 3 9C3 6.23858 5.23858 4 8 4C10.7614 4 13 6.23858 13 9Z" fill="#CED0D6"/>
</svg>
