<!-- Copyright 2000-2023 JetBrains s.r.o. and contributors. Use of this source code is governed by the Apache 2.0 license. -->
<svg width="16" height="16" viewBox="0 0 16 16" fill="none" xmlns="http://www.w3.org/2000/svg">
<path fill-rule="evenodd" clip-rule="evenodd" d="M5 14.9999V11.9999L11.7031 5.2968C12.0937 4.90627 12.7268 4.90628 13.1173 5.2968L14.7031 6.88259C15.0937 7.27311 15.0937 7.90628 14.7031 8.2968L8 14.9999H5ZM6 13.9999V12.4141L10.3536 8.06059L11.9393 9.64637L7.58579 13.9999H6ZM12.6464 8.93927L13.996 7.58969L12.4102 6.00391L11.0607 7.35348L12.6464 8.93927Z" fill="#548AF7"/>
<path fill-rule="evenodd" clip-rule="evenodd" d="M2 10H1V1H4.03487C4.73658 1 5.31256 1.11987 5.76282 1.35962C6.21308 1.59645 6.54639 1.92245 6.76275 2.33762C6.97911 2.7528 7.08729 3.22499 7.08729 3.75419C7.08729 4.28339 6.97911 4.75266 6.76275 5.16199C6.54639 5.57131 6.21454 5.89293 5.76721 6.12683C5.65576 6.18437 5.5366 6.23475 5.40974 6.27795L6.7927 8.79309L5.97994 9.60585L4.28224 6.46892C4.2072 6.47184 4.13059 6.4733 4.05241 6.4733H2V10ZM4.01733 5.49091H2V2H3.99979C4.48513 2 4.87546 2.0394 5.17076 2.18851C5.46606 2.3347 5.68095 2.54229 5.81545 2.81128C5.94994 3.08026 6.01719 3.39457 6.01719 3.75419C6.01719 4.11381 5.94994 4.42373 5.81545 4.68395C5.68388 4.94124 5.47044 5.14006 5.17514 5.2804C4.88277 5.42074 4.49683 5.49091 4.01733 5.49091Z" fill="#CED0D6"/>
</svg>
