<!-- Copyright 2000-2023 JetBrains s.r.o. and contributors. Use of this source code is governed by the Apache 2.0 license. -->
<svg width="16" height="16" viewBox="0 0 16 16" fill="none" xmlns="http://www.w3.org/2000/svg">
<path d="M8 13.5C8.33406 13.5 8.66812 13.4772 9 13.4334V12.4234C8.667 12.4738 8.33263 12.5 8 12.5C6.48208 12.5 4.92792 11.9545 3.63356 11.0541C2.44503 10.2273 1.53283 9.14177 1.06602 8C1.53283 6.85823 2.44503 5.77271 3.63356 4.94591C4.92792 4.04548 6.48208 3.5 8 3.5C9.51792 3.5 11.0721 4.04548 12.3664 4.94591C13.555 5.77271 14.4672 6.85823 14.934 8L16 8C15 5 11.5 2.5 8 2.5C4.5 2.5 1 5 0 8C1 11 4.5 13.5 8 13.5Z" fill="#CED0D6"/>
<path d="M8 5C9.65685 5 11 6.34315 11 8C10.6277 8 10.2792 8.10172 9.98071 8.27887C9.99343 8.18774 10 8.09464 10 8C10 6.89543 9.10457 6 8 6C6.89543 6 6 6.89543 6 8C6 9.10457 6.89543 10 8 10C8.37228 10 8.7208 9.89829 9.01929 9.72113C9.00657 9.81227 9 9.90536 9 10V10.8293C8.68722 10.9398 8.35064 11 8 11C6.34315 11 5 9.65685 5 8C5 6.34315 6.34315 5 8 5Z" fill="#CED0D6"/>
<path d="M12 12H14V11H12V12Z" fill="#CED0D6"/>
<path d="M12 14H14V13H12V14Z" fill="#CED0D6"/>
<path fill-rule="evenodd" clip-rule="evenodd" d="M11 9C10.4477 9 10 9.44772 10 10V15C10 15.5523 10.4477 16 11 16H15C15.5523 16 16 15.5523 16 15V10C16 9.44772 15.5523 9 15 9H11ZM15 10H11V15H15V10Z" fill="#CED0D6"/>
</svg>
