<svg fill="none" width="16" height="16" viewBox="0 0 16 16" xmlns="http://www.w3.org/2000/svg">
  <g fill="#DB3B4B">
    <path d="m8 8.71c-0.276 0-0.5-0.224-0.5-0.5l9e-5 -5.29-1.65 1.65c-0.195 0.195-0.512 0.195-0.707 0-0.195-0.195-0.195-0.512 0-0.707l2.85-2.85 2.85 2.85c0.195 0.195 0.195 0.512 0 0.707-0.195 0.195-0.512 0.195-0.707 0l-1.65-1.65-9e-5 5.29c-1e-5 0.276-0.224 0.5-0.5 0.5z"/>
    <path d="m6 12h-2v1h2v-1z"/>
    <path d="m2 11v3c0 0.552 0.448 1 1 1h10c0.552 0 1-0.448 1-1v-3c0-0.552-0.448-1-1-1h-10c-0.552 0-1 0.448-1 1zm1 3v-3h10v3h-10z" clip-rule="evenodd" fill-rule="evenodd"/>
  </g>
</svg>
