<svg width="16" height="16" viewBox="0 0 16 16" fill="none" xmlns="http://www.w3.org/2000/svg">
<path fill-rule="evenodd" clip-rule="evenodd" d="M10 4C8.89543 4 8 4.89543 8 6C8 7.10457 8.89543 8 10 8C11.1046 8 12 7.10457 12 6C12 4.89543 11.1046 4 10 4ZM9 6C9 5.44772 9.44772 5 10 5C10.5523 5 11 5.44772 11 6C11 6.55228 10.5523 7 10 7C9.44772 7 9 6.55228 9 6Z" fill="#6C707E"/>
<path fill-rule="evenodd" clip-rule="evenodd" d="M2.21799 3.09202C2 3.51984 2 4.0799 2 5.2V10.8C2 11.9201 2 12.4802 2.21799 12.908C2.40973 13.2843 2.71569 13.5903 3.09202 13.782C3.51984 14 4.0799 14 5.2 14H10.8C11.9201 14 12.4802 14 12.908 13.782C13.2843 13.5903 13.5903 13.2843 13.782 12.908C14 12.4802 14 11.9201 14 10.8V5.2C14 4.0799 14 3.51984 13.782 3.09202C13.5903 2.71569 13.2843 2.40973 12.908 2.21799C12.4802 2 11.9201 2 10.8 2H5.2C4.0799 2 3.51984 2 3.09202 2.21799C2.71569 2.40973 2.40973 2.71569 2.21799 3.09202ZM10.8 3H5.2C4.62345 3 4.25117 3.00078 3.96784 3.02393C3.69617 3.04612 3.59545 3.0838 3.54601 3.10899C3.35785 3.20487 3.20487 3.35785 3.10899 3.54601C3.0838 3.59545 3.04612 3.69617 3.02393 3.96784C3.00078 4.25117 3 4.62345 3 5.2V8.1368L3.83063 7.31383C4.39813 6.75158 5.30671 6.73274 5.89702 7.27098L12.1421 12.9653C12.3326 12.943 12.4119 12.9125 12.454 12.891C12.6422 12.7951 12.7951 12.6422 12.891 12.454C12.9162 12.4045 12.9539 12.3038 12.9761 12.0322C12.9992 11.7488 13 11.3766 13 10.8V5.2C13 4.62345 12.9992 4.25117 12.9761 3.96784C12.9539 3.69617 12.9162 3.59545 12.891 3.54601C12.7951 3.35785 12.6422 3.20487 12.454 3.10899C12.4045 3.0838 12.3038 3.04612 12.0322 3.02393C11.7488 3.00078 11.3766 3 10.8 3ZM3 10.8V9.5445L4.53445 8.02421C4.72362 7.83679 5.02648 7.83051 5.22325 8.00993L10.696 13H5.2C4.62345 13 4.25117 12.9992 3.96784 12.9761C3.69617 12.9539 3.59545 12.9162 3.54601 12.891C3.35785 12.7951 3.20487 12.6422 3.10899 12.454C3.0838 12.4045 3.04612 12.3038 3.02393 12.0322C3.00078 11.7488 3 11.3766 3 10.8Z" fill="#6C707E"/>
</svg>
