<svg width="16" height="16" viewBox="0 0 16 16" fill="none" xmlns="http://www.w3.org/2000/svg">
<path fill-rule="evenodd" clip-rule="evenodd" d="M2.39457 3.02668L0.399902 12.9926H3.1383L4.38302 6.3193C4.38302 6.3193 5.46178 5.3782 6.2916 5.46375C7.12142 5.54931 7.12142 6.41226 7.12142 6.41226L5.95967 13H8.69933L10.0258 6.3193C10.0258 6.3193 10.9386 5.3782 11.8514 5.46375C12.7642 5.54931 12.5982 6.49781 12.5982 6.49781L11.3535 12.9926H14.1749L15.5856 5.3856C15.7515 4.18043 15.0402 3.1375 14.0919 3.02668C13.1436 2.91587 12.1833 3.15376 11.3535 3.6745C10.5237 4.19523 10.0258 4.87227 10.0258 4.87227C10.0258 4.87227 9.59752 3.1375 8.28316 3.02668C6.96881 2.91587 6.37458 3.23932 5.79371 3.58154C5.21284 3.92376 4.88091 4.35894 4.88091 4.35894L5.10952 3.02668H2.39457Z" fill="#40B6E0" fill-opacity="0.7"/>
<path d="M12.7978 10.3746L11.9398 11.2327L11.2327 10.5255L12.0907 9.66754C12.9829 8.77536 14.4318 8.7778 15.327 9.67299C16.2222 10.5682 16.2246 12.0171 15.3325 12.9093L14.4745 13.7673L13.7673 13.0602L14.6254 12.2022C15.1248 11.7028 15.1268 10.887 14.6199 10.3801C14.113 9.87319 13.2972 9.87524 12.7978 10.3746Z" fill="#9AA7B0"/>
<path d="M10.5256 11.2327L11.2327 11.9398L10.3746 12.7978C9.87524 13.2972 9.87319 14.113 10.3801 14.6199C10.887 15.1268 11.7028 15.1248 12.2022 14.6254L13.0602 13.7673L13.7673 14.4744L12.9093 15.3325C12.0171 16.2246 10.5682 16.2222 9.67299 15.327C8.7778 14.4318 8.77536 12.9829 9.66754 12.0907L10.5256 11.2327Z" fill="#9AA7B0"/>
<path d="M11.8536 13.8536L13.8536 11.8536L13.1465 11.1465L11.1465 13.1465L11.8536 13.8536Z" fill="#9AA7B0"/>
</svg>
