<svg width="16" height="16" viewBox="0 0 16 16" fill="none" xmlns="http://www.w3.org/2000/svg">
<path fill-rule="evenodd" clip-rule="evenodd" d="M2.39457 3.02668L0.399902 12.9926H3.1383L4.38302 6.3193C4.38302 6.3193 5.46178 5.3782 6.2916 5.46375C7.12142 5.54931 7.12142 6.41226 7.12142 6.41226L5.95967 13H8.69933L10.0258 6.3193C10.0258 6.3193 10.9386 5.3782 11.8514 5.46375C12.7642 5.54931 12.5982 6.49781 12.5982 6.49781L11.3535 12.9926H14.1749L15.5856 5.3856C15.7515 4.18043 15.0402 3.1375 14.0919 3.02668C13.1436 2.91587 12.1833 3.15376 11.3535 3.6745C10.5237 4.19523 10.0258 4.87227 10.0258 4.87227C10.0258 4.87227 9.59752 3.1375 8.28316 3.02668C6.96881 2.91587 6.37458 3.23932 5.79371 3.58154C5.21284 3.92376 4.88091 4.35894 4.88091 4.35894L5.10952 3.02668H2.39457Z" fill="#40B6E0" fill-opacity="0.7"/>
<path fill-rule="evenodd" clip-rule="evenodd" d="M1 12V10.5C1 9.67157 1.67157 9 2.5 9C3.32843 9 4 9.67157 4 10.5V12H5V16H0V12H1ZM2 10.6964C2 10.3118 2.22386 10 2.5 10C2.77614 10 3 10.3118 3 10.6964V12H2V10.6964Z" fill="#9AA7B0"/>
</svg>
