<!-- Copyright 2000-2023 JetBrains s.r.o. and contributors. Use of this source code is governed by the Apache 2.0 license. -->
<svg width="14" height="14" viewBox="0 0 14 14" fill="none" xmlns="http://www.w3.org/2000/svg">
<path fill-rule="evenodd" clip-rule="evenodd" d="M7.05001 10C7.28164 8.85888 8.29052 8 9.5 8H11.5C11.7761 8 12 8.22386 12 8.5V9H13.5C13.7761 9 14 9.22386 14 9.5C14 9.77614 13.7761 10 13.5 10H12V12H13.5C13.7761 12 14 12.2239 14 12.5C14 12.7761 13.7761 13 13.5 13H12V13.5C12 13.7761 11.7761 14 11.5 14H9.5C8.29052 14 7.28164 13.1411 7.05001 12H6.5C6.22386 12 6 11.7761 6 11.5V10.5C6 10.2239 6.22386 10 6.5 10H7.05001ZM8 11.5V10.5C8 9.67157 8.67157 9 9.5 9H11V13H9.5C8.67157 13 8 12.3284 8 11.5Z" fill="#548AF7"/>
<path d="M2.79289 4.20711C2.60536 4.39464 2.5 4.649 2.5 4.91421V12.5C2.5 13.0523 2.94772 13.5 3.5 13.5H6.62761C6.51573 13.3396 6.41694 13.1693 6.33277 12.9908C5.58305 12.9076 5 12.2719 5 11.5V10.5C5 9.7281 5.58305 9.09238 6.33277 9.00922C6.89257 7.82183 8.09954 7 9.5 7H11.5V1.5C11.5 0.947715 11.0523 0.5 10.5 0.5H6.91421C6.649 0.5 6.39464 0.605357 6.20711 0.792893L2.79289 4.20711Z" fill="#43454A"/>
<path fill-rule="evenodd" clip-rule="evenodd" d="M5.85355 0.43934C6.13486 0.158035 6.51639 0 6.91421 0H10.5C11.3284 0 12 0.671573 12 1.5V7H11V1.5C11 1.22386 10.7761 1 10.5 1H7V3.5C7 4.32843 6.32843 5 5.5 5H3V12.5C3 12.7761 3.22386 13 3.5 13H6.33714C6.51518 13.3748 6.75779 13.7129 7.05063 14H3.5C2.67157 14 2 13.3284 2 12.5V4.91421C2 4.51639 2.15804 4.13486 2.43934 3.85355L5.85355 0.43934ZM3.70711 4L6 1.70711V3.5C6 3.77614 5.77614 4 5.5 4H3.70711Z" fill="#CED0D6"/>
</svg>
