<!-- Copyright 2000-2023 JetBrains s.r.o. and contributors. Use of this source code is governed by the Apache 2.0 license. -->
<svg width="14" height="14" viewBox="0 0 14 14" fill="none" xmlns="http://www.w3.org/2000/svg">
<path fill-rule="evenodd" clip-rule="evenodd" d="M4.85355 7.14645C4.65829 6.95118 4.34171 6.95118 4.14645 7.14645C3.95118 7.34171 3.95118 7.65829 4.14645 7.85355L6.29289 10H0.5C0.223858 10 0 10.2239 0 10.5C0 10.7761 0.223858 11 0.5 11H6.29289L4.14645 13.1464C3.95118 13.3417 3.95118 13.6583 4.14645 13.8536C4.34171 14.0488 4.65829 14.0488 4.85355 13.8536L7.85355 10.8536C8.04882 10.6583 8.04882 10.3417 7.85355 10.1464L4.85355 7.14645Z" fill="#3574F0"/>
<path fill-rule="evenodd" clip-rule="evenodd" d="M9.14645 0.146447C9.34171 -0.0488155 9.65829 -0.0488155 9.85355 0.146447C10.0488 0.341709 10.0488 0.658291 9.85355 0.853553L7.70711 3H13.5C13.7761 3 14 3.22386 14 3.5C14 3.77614 13.7761 4 13.5 4H7.70711L9.85355 6.14645C10.0488 6.34171 10.0488 6.65829 9.85355 6.85355C9.65829 7.04882 9.34171 7.04882 9.14645 6.85355L6.14645 3.85355C5.95118 3.65829 5.95118 3.34171 6.14645 3.14645L9.14645 0.146447Z" fill="#3574F0"/>
</svg>
