<!-- Copyright 2000-2023 JetBrains s.r.o. and contributors. Use of this source code is governed by the Apache 2.0 license. -->
<svg width="14" height="14" viewBox="0 0 14 14" fill="none" xmlns="http://www.w3.org/2000/svg">
<path d="M2.79289 4.20711C2.60536 4.39464 2.5 4.649 2.5 4.91421V12.5C2.5 13.0523 2.94772 13.5 3.5 13.5H5V12C5 10.8954 5.89543 10 7 10H8C8 8.89543 8.89543 8 10 8H11C11 7.49278 11.1888 7.02965 11.5 6.67709V1.5C11.5 0.947715 11.0523 0.5 10.5 0.5H6.91421C6.649 0.5 6.39464 0.605357 6.20711 0.792893L2.79289 4.20711Z" fill="#43454A"/>
<path fill-rule="evenodd" clip-rule="evenodd" d="M5.85355 0.43934C6.13486 0.158035 6.51639 0 6.91421 0H10.5C11.3284 0 12 0.671573 12 1.5V6.26756C11.4022 6.61337 11 7.25972 11 8V1.5C11 1.22386 10.7761 1 10.5 1H7V3.5C7 4.32843 6.32843 5 5.5 5H3V12.5C3 12.7761 3.22386 13 3.5 13H5V14H3.5C2.67157 14 2 13.3284 2 12.5V4.91421C2 4.51639 2.15804 4.13486 2.43934 3.85355L5.85355 0.43934ZM3.70711 4L6 1.70711V3.5C6 3.77614 5.77614 4 5.5 4H3.70711Z" fill="#CED0D6"/>
<rect x="12" y="7" width="2" height="7" rx="1" fill="#57965C"/>
<rect x="9" y="9" width="2" height="5" rx="1" fill="#F2C55C"/>
<rect x="6" y="11" width="2" height="3" rx="1" fill="#DB5C5C"/>
</svg>
