<!-- Copyright 2000-2021 JetBrains s.r.o. Use of this source code is governed by the Apache 2.0 license that can be found in the LICENSE file. -->
<svg xmlns="http://www.w3.org/2000/svg" width="16" height="16" viewBox="0 0 16 16">
  <g fill="#AFB1B3" fill-rule="evenodd" transform="translate(3 1)">
    <polygon points="4 0 0 4 4 4"/>
    <path d="M3.8325235,12 L-4.54747351e-13,12 L-4.54747351e-13,5 L5,5 L5,0 L9,0 L9,5 L9,5.69520405 C8.58912405,5.5683184 8.15254034,5.5 7.7,5.5 C5.2699471,5.5 3.3,7.4699471 3.3,9.9 C3.3,10.6604875 3.49293333,11.375913 3.8325235,12 Z"/>
    <path d="M10.0725276,10.3777011 L10.8422427,10.9161442 C10.6941066,11.3628689 10.4509288,11.7679202 10.1359515,12.1086372 L9.27284418,11.7290048 C9.02718981,11.9400587 8.73867948,12.1048042 8.42167538,12.2092382 L8.32763364,13.1279969 C8.09976211,13.175177 7.86341492,13.2 7.62112133,13.2 C7.37882774,13.2 7.14248055,13.175177 6.91460902,13.1279969 L6.82056727,12.2092381 C6.50356323,12.1048041 6.21505297,11.9400586 5.96939864,11.7290047 L5.10629112,12.1086372 C4.79131381,11.7679202 4.54813607,11.3628689 4.4,10.9161442 L5.16971524,10.377701 C5.13822628,10.2232271 5.12171307,10.0634939 5.12171307,9.90000012 C5.12171307,9.73650631 5.1382263,9.57677295 5.16971529,9.42229907 L4.4,8.8838558 C4.54813607,8.43713115 4.79131381,8.03207981 5.10629112,7.69136284 L5.96939883,8.07099536 C6.21505311,7.85994158 6.50356329,7.69519613 6.82056724,7.59076212 L6.91460902,6.67200306 C7.14248055,6.62482304 7.37882774,6.6 7.62112133,6.6 C7.86341492,6.6 8.09976211,6.62482304 8.32763364,6.67200306 L8.42167541,7.59076203 C8.73867942,7.69519603 9.02718967,7.85994148 9.27284399,8.07099528 L10.1359515,7.69136284 C10.4509288,8.03207981 10.6941066,8.43713115 10.8422427,8.8838558 L10.0725276,9.42229892 C10.1040166,9.57677285 10.1205298,9.73650626 10.1205298,9.90000012 C10.1205298,10.0634939 10.1040166,10.2232272 10.0725276,10.3777011 Z M7.6211212,11.0678932 C8.28255571,11.0678932 8.81875432,10.5450545 8.81875432,9.90010038 C8.81875432,9.25514624 8.28255571,8.7323076 7.6211212,8.7323076 C6.9596867,8.7323076 6.42348809,9.25514624 6.42348809,9.90010038 C6.42348809,10.5450545 6.9596867,11.0678932 7.6211212,11.0678932 Z"/>
  </g>
</svg>
