<!-- Copyright 2000-2022 JetBrains s.r.o. and contributors. Use of this source code is governed by the Apache 2.0 license. -->
<svg width="32" height="32" viewBox="0 0 32 32" fill="none" xmlns="http://www.w3.org/2000/svg">
  <path
    d="M16 3L19.4385 11.2673L28.3637 11.9828L21.5637 17.8077L23.6412 26.5172L16 21.85L8.35879 26.5172L10.4363 17.8077L3.63627 11.9828L12.5615 11.2673L16 3Z"
    fill="#F4AF3D" stroke="#97C3F3" stroke-width="2"/>
  <path
    d="M16 4.30198L18.9769 11.4593L19.0942 11.7412L19.3986 11.7657L27.1255 12.3851L21.2384 17.428L21.0065 17.6267L21.0773 17.9238L22.8759 25.4639L16.2606 21.4233L16 21.2641L15.7394 21.4233L9.12408 25.4639L10.9227 17.9238L10.9935 17.6267L10.7616 17.428L4.87452 12.3851L12.6014 11.7657L12.9058 11.7412L13.0231 11.4593L16 4.30198Z"
    stroke="#7B9FC7"/>
</svg>
