<svg width="16" height="16" viewBox="0 0 16 16" fill="none" xmlns="http://www.w3.org/2000/svg">
<path d="M13 8.12125V10C13 10.5523 12.5523 11 12 11H7C6.79698 11 6.59878 11.0618 6.43173 11.1772L3 13.5472V5C3 4.44772 3.44772 4 4 4H8.8786L9.8786 3H4C2.89543 3 2 3.89543 2 5V14.5002C2 14.9032 2.45247 15.1406 2.78414 14.9116L7 12H12C13.1046 12 14 11.1046 14 10V7.12124L13 8.12125Z" fill="#6C707E"/>
<path fill-rule="evenodd" clip-rule="evenodd" d="M14.4122 1.29485C14.0217 0.904321 13.3885 0.904323 12.998 1.29485L11.6466 2.64621L8 6.29282V8.99992H10.7071L15.7051 4.00195C16.0956 3.61143 16.0956 2.97826 15.7051 2.58774L14.4122 1.29485ZM14 4.29282L14.998 3.29485L13.7051 2.00195L12.7071 2.99992L14 4.29282ZM12 3.70703L13.2929 4.99992L10.2929 7.99992H9V6.70703L12 3.70703Z" fill="#6C707E"/>
</svg>
