<!-- Copyright 2000-2021 JetBrains s.r.o. Use of this source code is governed by the Apache 2.0 license that can be found in the LICENSE file. -->
<svg width="16" height="16" viewBox="0 0 16 16" fill="none" xmlns="http://www.w3.org/2000/svg">
<path d="M10.1739 5C11.3529 5 12.5912 4.02025 12.299 2.73562C12.1318 2.00053 11.4372 1.39315 10.5966 1.24693C9.42342 1.04286 8.00728 1.81004 8.00728 3.10526C8.00728 1.81004 6.59114 1.04286 5.41792 1.24693C4.57733 1.39315 3.88278 2.00053 3.71558 2.73562C3.42338 4.02025 4.66171 5 5.84061 5H10.1739ZM6.92395 4.05263H5.84061C5.00481 4.05263 4.34909 3.06981 5.07458 2.43537C5.67877 1.90701 6.92395 2.18949 6.92395 3.10526V4.05263ZM9.09061 3.10526C9.09061 2.18949 10.3358 1.90701 10.94 2.43537C11.6655 3.06981 11.0098 4.05263 10.1739 4.05263H9.09061V3.10526Z" fill="#3592C4"/>
<path d="M8.5 5H14.5V7H8.5V5Z" fill="#3592C4"/>
<path d="M1.5 5H7.50002V7H1.5V5Z" fill="#3592C4"/>
<rect x="3" y="8" width="4.5" height="6" fill="#3592C4"/>
<rect x="8.5" y="8" width="4.5" height="6" fill="#3592C4"/>
</svg>
