<!-- Copyright 2000-2021 JetBrains s.r.o. Use of this source code is governed by the Apache 2.0 license that can be found in the LICENSE file. -->
<svg xmlns="http://www.w3.org/2000/svg" width="16" height="16" viewBox="0 0 16 16">
  <path fill="#AFB1B3" fill-rule="evenodd" d="M5.38307629,11.8849325 C4.53973431,11.2067678 4,10.1664148 4,9.00000011 L4,8.98181812 L3.7,8.98181812 C3.42385763,8.98181812 3.2,8.75796049 3.2,8.48181812 L3.2,7.590909 C3.2,7.31476663 3.42385763,7.090909 3.7,7.090909 L4.00301264,7.090909 C4.00100861,7.01201673 4,6.92761364 4,6.83703636 L4,6 L2,6 L2,4.8 L4,4.8 L4,3.43569091 C4,2.58874812 4.08818433,2.2816262 4.25377607,1.97199657 C4.4193678,1.66236694 4.66236694,1.4193678 4.97199657,1.25377607 C5.2816262,1.08818433 5.58874812,1 6.43569091,1 L9.56430909,1 C10.4112519,1 10.7183738,1.08818433 11.0280034,1.25377607 C11.3376331,1.4193678 11.5806322,1.66236694 11.7462239,1.97199657 C11.9118157,2.2816262 12,2.58874812 12,3.43569091 L12,4.8 L14,4.8 L14,6 L12,6 L12,6.83703636 C12,6.92761364 11.9989914,7.01201673 11.9969874,7.090909 L12.3,7.090909 C12.5761424,7.090909 12.8,7.31476663 12.8,7.590909 L12.8,8.48181812 C12.8,8.75796049 12.5761424,8.98181812 12.3,8.98181812 L12,8.98181812 L12,9.00000011 C12,10.1664148 11.4602657,11.2067678 10.6169237,11.8849325 C12.8742,12.383315 13.4,13.4997017 13.4,14 L2.6,14 C2.6,13.4997017 3.12579999,12.383315 5.38307629,11.8849325 Z"/>
</svg>
