<svg xmlns="http://www.w3.org/2000/svg" width="16" height="16" viewBox="0 0 16 16">
  <g fill="none" fill-rule="evenodd">
    <g fill="#6E6E6E" transform="translate(2 1)">
      <path d="M9.77923245,4.99825336 C10.1973334,5.55604895 10.4711251,6.23095263 10.5426241,6.97031786 L10.6,7.56363648 C10.7340708,8.9500507 10.0999394,10.2336515 9.04524323,10.9923682 C10.9419043,11.5292849 11.4,12.5330215 11.4,13 L0.6,13 C0.6,12.5029217 1.11905345,11.39766 3.33970623,10.894632 C2.40368454,10.1781843 1.8,9.04939107 1.8,7.77959977 L1.8,7.34767318 C1.8,6.45296094 2.09971752,5.62825147 2.60422795,4.96846938 L1.8,4.96513097 L1.8,2.89334445 C1.8,1.88726555 1.9047537,1.52243703 2.10145926,1.15462962 C2.29816481,0.786822216 2.58682222,0.49816481 2.95462962,0.301459256 C3.32243703,0.104753702 3.68726555,4.39191664e-15 4.69334445,4.20710294e-15 L7.30639891,4.88499168e-15 C8.31256705,4.70016159e-15 8.67742793,0.104762994 9.04526796,0.301485996 C9.41310799,0.498208998 9.701791,0.786892009 9.898514,1.15473204 C10.095237,1.52257207 10.2,1.88743295 10.2,2.89360109 L10.2,5 L9.77923245,4.99825336 Z M7.99214167,4.99083502 L4.16510991,4.97494872 C3.34077268,5.54006832 2.8,6.48870028 2.8,7.56363648 C2.8,7.57279509 2.80004047,7.58195366 2.80012142,7.59111192 C2.81394842,9.15553559 3.98100578,10.4398369 5.48709151,10.6440803 C5.65263447,10.6389914 5.8235497,10.6363636 6,10.6363636 C6.32961597,10.6363636 6.63991697,10.6455334 6.9319641,10.6627867 C7.02168536,10.659988 7.11123038,10.6528408 7.20028348,10.6413669 C8.72162505,10.4453522 9.79601473,9.05315981 9.6,7.53181824 C9.46126501,6.45504556 8.85060956,5.54235592 7.99214167,4.99083502 Z M6.5,8 C7.05228475,8 7.5,7.55228475 7.5,7 C7.5,6.44771525 7.05228475,6 6.5,6 C5.94771525,6 5.5,6.44771525 5.5,7 C5.5,7.55228475 5.94771525,8 6.5,8 Z"/>
      <rect width="12" height="1.2" y="3.8"/>
    </g>
    <rect width="3" height="1" x="9" y="10" fill="#6E6E6E"/>
  </g>
</svg>
