<svg xmlns="http://www.w3.org/2000/svg" width="16" height="16" viewBox="0 0 16 16">
  <g fill="none" fill-rule="evenodd">
    <path fill="#AFB1B3" d="M11.7792325,5.99825336 C12.1973334,6.55604895 12.4711251,7.23095263 12.5426241,7.97031786 L12.6,8.56363648 C12.7340708,9.9500507 12.0999394,11.2336515 11.0452432,11.9923682 C12.9419043,12.5292849 13.4,13.5330215 13.4,14 L2.6,14 C2.6,13.5029217 3.11905345,12.39766 5.33970623,11.894632 C4.40368454,11.1781843 3.8,10.0493911 3.8,8.77959977 L3.8,8.34767318 C3.8,7.45296094 4.09971752,6.62825147 4.60422795,5.96846938 L3.8,5.96513097 L3.8,3.89334445 C3.8,2.88726555 3.9047537,2.52243703 4.10145926,2.15462962 C4.29816481,1.78682222 4.58682222,1.49816481 4.95462962,1.30145926 C5.32243703,1.1047537 5.68726555,1 6.69334445,1 L9.30639891,1 C10.312567,1 10.6774279,1.10476299 11.045268,1.301486 C11.413108,1.498209 11.701791,1.78689201 11.898514,2.15473204 C12.095237,2.52257207 12.2,2.88743295 12.2,3.89360109 L12.2,6 L11.7792325,5.99825336 Z M9.99214167,5.99083502 L6.16510991,5.97494872 C5.34077268,6.54006832 4.8,7.48870028 4.8,8.56363648 C4.8,8.57279509 4.80004047,8.58195366 4.80012142,8.59111192 C4.81394842,10.1555356 5.98100578,11.4398369 7.48709151,11.6440803 C7.65263447,11.6389914 7.8235497,11.6363636 8,11.6363636 C8.32961597,11.6363636 8.63991697,11.6455334 8.9319641,11.6627867 C9.02168536,11.659988 9.11123038,11.6528408 9.20028348,11.6413669 C10.721625,11.4453522 11.7960147,10.0531598 11.6,8.53181824 C11.461265,7.45504556 10.8506096,6.54235592 9.99214167,5.99083502 Z M8.5,9 C9.05228475,9 9.5,8.55228475 9.5,8 C9.5,7.44771525 9.05228475,7 8.5,7 C7.94771525,7 7.5,7.44771525 7.5,8 C7.5,8.55228475 7.94771525,9 8.5,9 Z"/>
    <rect width="12" height="1.2" x="2" y="4.8" fill="#AFB1B3"/>
    <rect width="3" height="1" x="9" y="10" fill="#AFB1B3"/>
  </g>
</svg>
