<svg xmlns="http://www.w3.org/2000/svg" width="16" height="16" viewBox="0 0 16 16">
  <g fill="none" fill-rule="evenodd">
    <path fill="#AFB1B3" d="M11.4196323,6 C11.8617029,6.59032274 12.1412023,7.30942729 12.191726,8.09090909 L12.3259998,8.09090909 C12.654057,8.09090909 12.9199999,8.35685198 12.9199999,8.68490915 L12.9199999,9.38781815 C12.9199999,9.71587532 12.654057,9.98181821 12.3259998,9.98181821 L12.0122251,9.98181821 C11.7649867,10.7500328 11.2871725,11.4148078 10.6602938,11.894632 C12.8809466,12.39766 13.4,13.5029217 13.4,14 L2.6,14 C2.6,13.5029217 3.11905345,12.39766 5.33970623,11.894632 C4.71282752,11.4148078 4.23501327,10.7500328 3.9877749,9.98181821 L3.67400017,9.98181821 C3.345943,9.98181821 3.08000011,9.71587532 3.08000011,9.38781815 L3.08000011,8.68490915 C3.08000011,8.35685198 3.345943,8.09090909 3.67400017,8.09090909 L3.80827398,8.09090909 C3.85879769,7.30942729 4.13829712,6.59032274 4.5803677,6 L2,6 L2,4.8 L3.8,4.8 L3.8,3.89334445 C3.8,2.88726555 3.9047537,2.52243703 4.10145926,2.15462962 C4.29816481,1.78682222 4.58682222,1.49816481 4.95462962,1.30145926 C5.32243703,1.1047537 5.68726555,1 6.69334445,1 L9.30639891,1 C10.312567,1 10.6774279,1.10476299 11.045268,1.301486 C11.413108,1.498209 11.701791,1.78689201 11.898514,2.15473204 C12.095237,2.52257207 12.2,2.88743295 12.2,3.89360109 L12.2,4.8 L14,4.8 L14,6 L11.4196323,6 Z M9.87089122,6 L6.12910878,6 C5.32506374,6.56785532 4.8,7.5044283 4.8,8.56363648 C4.8,10.1010429 5.90618244,11.3800866 7.36605387,11.648274 C7.56899025,11.6404411 7.78020075,11.6363636 8,11.6363636 C8.21979925,11.6363636 8.43100975,11.6404411 8.63394613,11.648274 C10.0938176,11.3800866 11.2,10.1010429 11.2,8.56363648 C11.2,7.5044283 10.6749363,6.56785532 9.87089122,6 Z M6.5,9 C5.94771525,9 5.5,8.55228475 5.5,8 C5.5,7.44771525 5.94771525,7 6.5,7 C7.05228475,7 7.5,7.44771525 7.5,8 C7.5,8.55228475 7.05228475,9 6.5,9 Z M9.5,9 C8.94771525,9 8.5,8.55228475 8.5,8 C8.5,7.44771525 8.94771525,7 9.5,7 C10.0522847,7 10.5,7.44771525 10.5,8 C10.5,8.55228475 10.0522847,9 9.5,9 Z"/>
    <rect width="2" height="1" x="7" y="10" fill="#AFB1B3"/>
  </g>
</svg>
