<svg xmlns="http://www.w3.org/2000/svg" width="16" height="16" viewBox="0 0 16 16">
  <path fill="#AFB1B3" fill-rule="evenodd" d="M5.33970623,11.894632 C4.71282752,11.4148078 4.23501327,10.7500328 3.9877749,9.98181821 L3.67400017,9.98181821 C3.345943,9.98181821 3.08000011,9.71587532 3.08000011,9.38781815 L3.08000011,8.68490915 C3.08000011,8.35685198 3.345943,8.09090909 3.67400017,8.09090909 L3.80827399,8.09090909 C3.81060285,8.05488695 3.81341824,8.01899734 3.81671362,7.98324677 C3.80562429,7.81095939 3.8,7.61225722 3.8,7.37912591 L3.8,6 L2,6 L2,4.8 L3.8,4.8 L3.8,3.89360109 C3.8,2.88743295 3.90476299,2.52257207 4.101486,2.15473204 C4.298209,1.78689201 4.58689201,1.498209 4.95473204,1.301486 C5.32257207,1.10476299 5.68743295,1 6.69360109,1 L9.30639891,1 C10.312567,1 10.6774279,1.10476299 11.045268,1.301486 C11.413108,1.498209 11.701791,1.78689201 11.898514,2.15473204 C12.095237,2.52257207 12.2,2.88743295 12.2,3.89360109 L12.2,4.8 L14,4.8 L14,6 L12.2,6 L12.2,7.37912591 C12.2,7.61225722 12.1943757,7.81095939 12.1832864,7.98324677 C12.1865818,8.01899734 12.1893971,8.05488695 12.191726,8.09090909 L12.3259998,8.09090909 C12.654057,8.09090909 12.9199999,8.35685198 12.9199999,8.68490915 L12.9199999,9.38781815 C12.9199999,9.71587532 12.654057,9.98181821 12.3259998,9.98181821 L12.0122251,9.98181821 C11.7649867,10.7500328 11.2871725,11.4148078 10.6602938,11.894632 C12.8809466,12.39766 13.4,13.5029217 13.4,14 L2.6,14 C2.6,13.5029217 3.11905345,12.39766 5.33970623,11.894632 Z"/>
</svg>
