<svg xmlns="http://www.w3.org/2000/svg" width="16" height="16" viewBox="0 0 16 16">
  <g fill="none" fill-rule="evenodd">
    <rect width="8" height="6" x="4" y="7" fill="#6E6E6E"/>
    <path fill="#6E6E6E" fill-rule="nonzero" d="M8,3.5 C7.17157288,3.5 6.5,4.12360338 6.5,4.89285714 L6.5,8.10714286 C6.5,8.87639662 7.17157288,9.5 8,9.5 C8.82842712,9.5 9.5,8.87639662 9.5,8.10714286 L9.5,4.89285714 C9.5,4.12360338 8.82842712,3.5 8,3.5 Z M8,2 C9.65685425,2 11,3.34314575 11,5 L11,8 C11,9.65685425 9.65685425,11 8,11 C6.34314575,11 5,9.65685425 5,8 L5,5 C5,3.34314575 6.34314575,2 8,2 Z"/>
  </g>
</svg>
