<!-- Copyright 2000-2024 JetBrains s.r.o. and contributors. Use of this source code is governed by the Apache 2.0 license. -->
<svg width="20" height="20" viewBox="0 0 20 20" fill="none" xmlns="http://www.w3.org/2000/svg">
<path d="M16.4526 4.00125C19.0298 4.00125 19.4775 6.16959 19.0298 8.1234L17.3705 15.6394C17.2512 16.1799 16.6944 16.5259 16.1269 16.4122C15.5594 16.2986 15.1961 15.7683 15.3154 15.2279L16.8792 8.1234C17.5924 5.02524 13.5487 5.40735 11.9081 7.70791L10.1384 15.6449C10.0191 16.1854 9.46236 16.5314 8.89487 16.4177C8.87159 16.4131 8.84866 16.4077 8.82608 16.4017C8.28588 16.2688 7.94593 15.7532 8.06189 15.2279L9.63175 8.11843C9.95857 6.71957 9.28739 6.03165 8.31258 5.91113C7.15227 5.78669 5.563 6.46971 4.67606 7.71342L4.67488 7.70503L4.67296 7.70791L2.89758 15.6526C2.77702 16.1928 2.21945 16.5377 1.65222 16.4228C1.08499 16.308 0.722905 15.777 0.843473 15.2368L3.12863 4.9979C3.2492 4.45768 3.80676 4.11284 4.37399 4.22766C5.0187 4.35817 5.28402 4.94942 5.15978 5.51654C6.34664 4.58145 7.72978 3.9208 9.31082 4.00767C10.8542 4.03868 11.6088 4.86803 11.8556 5.95287C13.2786 4.73635 14.481 4.00125 16.4526 4.00125Z" fill="#CED0D6"/>
</svg>
