<svg width="16" height="16" viewBox="0 0 16 16" fill="none" xmlns="http://www.w3.org/2000/svg">
  <path fill-rule="evenodd" clip-rule="evenodd"
        d="M14.7473 6.28664L14.767 6.33694C15.0401 7.05298 15.0735 7.83833 14.8622 8.57498C14.7971 8.80177 14.7099 9.02017 14.6025 9.22734L14.1753 8.51526C12.9635 6.49557 10.0364 6.49556 8.82453 8.51526L6.42346 12.517C6.28859 12.7418 6.18753 12.9736 6.11774 13.2078L5.33418 12.6148L2.43145 10.441L2.41395 10.4286L2.40739 10.4235C1.79476 9.96133 1.34898 9.31251 1.13729 8.57486C0.925596 7.83722 0.959454 7.05075 1.23376 6.33403L1.25271 6.28373L3.16187 1.31292C3.2009 1.21561 3.26948 1.133 3.35796 1.07674C3.44669 1.02166 3.55019 0.99513 3.65447 1.00074C3.75876 1.00634 3.85882 1.04381 3.94113 1.10809C4.02317 1.17394 4.08235 1.26398 4.11025 1.36541L5.39687 5.30181H10.6068L11.8934 1.36541C11.9221 1.26453 11.9811 1.17494 12.0625 1.10882C12.1448 1.04454 12.2449 1.00707 12.3492 1.00146C12.4535 0.995859 12.557 1.02239 12.6457 1.07747C12.7344 1.1335 12.803 1.21619 12.8418 1.31365L14.7473 6.28664Z"
        fill="#E24329"/>
  <path fill-rule="evenodd" clip-rule="evenodd"
        d="M14.7472 6.28662L14.7669 6.33692C15.0406 7.05348 15.0741 7.83957 14.8625 8.57685C14.7974 8.80337 14.7103 9.02152 14.6031 9.22847L14.1752 8.51526C13.7786 7.85434 13.1984 7.40969 12.5547 7.18133C13.2228 6.75077 13.966 6.44696 14.7472 6.28662Z"
        fill="#FC6D26"/>
  <path fill-rule="evenodd" clip-rule="evenodd"
        d="M7.21783 11.1931C6.14959 12 5.33398 12.6177 5.33398 12.6177L6.11701 13.2103C6.18683 12.9752 6.28812 12.7426 6.42346 12.5171L7.21783 11.1931Z"
        fill="#FCA326"/>
  <path fill-rule="evenodd" clip-rule="evenodd"
        d="M1.25271 6.28369C2.18127 6.475 3.05602 6.8693 3.81429 7.43837L7.70668 10.3783L7.22007 11.1894L5.33418 12.6147L2.43145 10.441L2.41395 10.4286L2.40739 10.4235C1.79476 9.9613 1.34898 9.31247 1.13729 8.57483C0.925596 7.83718 0.959454 7.05071 1.23376 6.33399L1.25271 6.28369Z"
        fill="#FC6D26"/>
  <path fill-rule="evenodd" clip-rule="evenodd"
        d="M14.8608 13.546L12.4597 9.54425C12.0247 8.81923 10.974 8.81923 10.5389 9.54425L8.13788 13.546C7.75396 14.1859 8.21487 14.9999 8.96107 14.9999H14.0376C14.7838 14.9999 15.2447 14.1859 14.8608 13.546ZM15.7183 13.0315L13.3172 9.02976C12.4938 7.6574 10.5049 7.6574 9.68146 9.02976L7.28039 13.0315C6.49656 14.3379 7.43758 15.9999 8.96107 15.9999H14.0376C15.5611 15.9999 16.5021 14.3379 15.7183 13.0315Z"
        fill="#CED0D6"/>
  <path d="M12 10H11V12H12V10Z" fill="#CED0D6"/>
  <path d="M12.0001 14L12.0002 13H11.0002L11 14H12.0001Z" fill="#CED0D6"/>
</svg>
