<!-- Copyright 2000-2023 JetBrains s.r.o. and contributors. Use of this source code is governed by the Apache 2.0 license. -->
<svg width="13" height="13" viewBox="0 0 13 13" fill="none" xmlns="http://www.w3.org/2000/svg">
<path d="M9.31061 1.52572C9.37053 1.38294 9.50875 1.28869 9.66355 1.28502C9.81835 1.28136 9.96087 1.36897 10.0275 1.50875L10.0932 1.64683L10.2682 2.01555C10.414 2.32323 10.611 2.73985 10.8153 3.17539C11.22 4.03797 11.6652 4.99878 11.7889 5.31526L11.7896 5.31703L11.8033 5.35248C12.0344 5.94563 12.0627 6.59677 11.8838 7.20733C11.7048 7.81805 11.3285 8.35367 10.8135 8.73438L10.8053 8.74028L10.8031 8.74179L8.67813 10.3012L8.67665 10.3022L7.62891 11.0787L6.99169 11.5511C6.84867 11.6572 6.67527 11.7139 6.49785 11.7139C6.32043 11.7139 6.14695 11.6571 6.00393 11.5511L4.31928 10.3021L4.31799 10.3012L2.20611 8.74952L2.1856 8.73478L2.1784 8.72889C1.66736 8.34847 1.29409 7.8151 1.1161 7.20742C0.937153 6.5965 0.96572 5.945 1.19729 5.35163L1.19865 5.3482L1.21233 5.31408C1.33931 4.98938 1.78348 4.03081 2.18677 3.17166C2.39078 2.73706 2.58724 2.32178 2.73266 2.01521C2.80539 1.86191 2.86537 1.73575 2.90718 1.64789L2.97268 1.51038C3.03934 1.37067 3.18182 1.28312 3.33657 1.28679C3.49133 1.29047 3.62971 1.38517 3.68966 1.52788L3.73691 1.64058L3.86335 1.94309C3.96873 2.19569 4.11116 2.53825 4.25927 2.89782C4.48532 3.44659 4.7307 4.04962 4.87471 4.42777H8.12548C8.26944 4.0496 8.51477 3.44629 8.7408 2.89716C8.8889 2.53735 9.03133 2.19454 9.13671 1.94175L9.26315 1.63901L9.31061 1.52572Z" fill="#AFB1B3"/>
</svg>
