<!-- Copyright 2000-2023 JetBrains s.r.o. and contributors. Use of this source code is governed by the Apache 2.0 license. -->
<svg xmlns="http://www.w3.org/2000/svg" width="16" height="16" viewBox="0 0 16 16">
  <g fill="none" fill-rule="evenodd">
    <g fill-opacity=".9" fill-rule="nonzero" transform="translate(4 3)">
      <path fill="#40A0CF" d="M4.49132727,0.878481818 C4.14020498,0.878853794 3.78972268,0.908446834 3.44350909,0.966954545 C2.5156,1.12909091 2.34714545,1.46846364 2.34714545,2.09432727 L2.34714545,2.92090909 L4.53987273,2.92090909 L4.53987273,3.19642727 L1.5242,3.19642727 C0.861207721,3.18181909 0.283510729,3.64553477 0.154363636,4.29599091 C-0.0514622915,5.01630629 -0.0514622915,5.77986643 0.154363636,6.50018182 C0.214490707,7.10592662 0.711531468,7.5748995 1.31974545,7.59975455 L2.07363636,7.59975455 L2.07363636,6.60884545 C2.09437381,5.86477067 2.69915617,5.26995015 3.44347273,5.26157273 L5.63367273,5.26157273 C5.92526374,5.26099513 6.2046621,5.14451257 6.4103098,4.93778889 C6.6159575,4.73106521 6.73098043,4.45106279 6.73003636,4.15947273 L6.73003636,2.09432727 C6.68918775,1.50110733 6.225523,1.02432847 5.63367273,0.966954545 C5.25599496,0.90590528 4.87390119,0.876312762 4.49132727,0.878481818 Z M3.30545455,1.54328182 C3.47266506,1.5425433 3.62384531,1.642633 3.68846344,1.79685492 C3.75308156,1.95107684 3.71840389,2.12903997 3.60060901,2.24771713 C3.48281412,2.36639429 3.30511471,2.40239892 3.15041491,2.33893338 C2.99571511,2.27546783 2.89450011,2.12503865 2.89399091,1.95782727 C2.89352675,1.72988991 3.07752006,1.5445185 3.30545455,1.54328182 Z"/>
      <path fill="#FFC900" d="M7.00353636,3.19642727 L7.00353636,4.15949091 C6.99106236,4.9116696 6.38582542,5.51922816 5.6337,5.53458182 L3.4435,5.53458182 C2.83937796,5.54321818 2.35262001,6.03252294 2.34713636,6.63668182 L2.34713636,8.70181818 C2.41880712,9.27607013 2.86962988,9.72925167 3.4435,9.80391818 C4.15690569,10.0244958 4.92029431,10.0244958 5.6337,9.80391818 C6.21068687,9.73560931 6.66476669,9.27915366 6.73006364,8.70181818 L6.73006364,7.87528182 L4.53988182,7.87528182 L4.53988182,7.59976364 L7.82646364,7.59976364 C8.46373636,7.59976364 8.70121818,7.16010909 8.92282727,6.50019091 C9.14782819,5.78268645 9.14782819,5.01350445 8.92282727,4.296 C8.8879234,3.70500551 8.41735359,3.23305833 7.82646364,3.19642727 L7.00353636,3.19642727 Z M5.77171818,8.42633636 C5.93915789,8.42559684 6.09049853,8.5259586 6.15496991,8.6804903 C6.21944129,8.83502199 6.18430214,9.01318403 6.06598429,9.13166395 C5.94766645,9.25014388 5.76955268,9.28552688 5.61493287,9.2212671 C5.46031306,9.15700732 5.35974423,9.0058042 5.36025455,8.83836364 C5.3601315,8.72915127 5.40342412,8.62436865 5.4805978,8.54709266 C5.55777148,8.46981667 5.66249666,8.42638528 5.77170909,8.42636364 L5.77171818,8.42633636 Z"/>
    </g>
    <path fill="#9AA7B0" fill-opacity=".8" d="M15.2782523,5 L13.4326159,5 C12.4098709,3.37932754 10.583192,2.3 8.5,2.3 C5.29674845,2.3 2.7,4.85197693 2.7,8 C2.7,11.1480231 5.29674845,13.7 8.5,13.7 C10.1173574,13.7 11.5800958,13.0494111 12.6320314,12 L14.6556901,12 C13.3003906,13.8134841 11.0486555,15 8.5,15 C4.35786438,15 1,11.8659932 1,8 C1,4.13400675 4.35786438,1 8.5,1 C11.4918528,1 14.074541,2.63505267 15.2782523,5 Z"/>
  </g>
</svg>
