<svg xmlns="http://www.w3.org/2000/svg" width="40" height="40" viewBox="0 0 40 40">
  <g fill="none" fill-rule="evenodd" transform="translate(2 2)">
    <rect width="35.93" height="35.93" x=".021" y=".021"/>
    <g fill-rule="nonzero" transform="translate(2.246)">
      <path fill="#FFF" d="M29.2701754,7.36140351 L17.9298246,0.624561404 C16.5754386,-0.18245614 14.9052632,-0.18245614 13.5508772,0.624561404 L2.21052632,7.36140351 C0.856140351,8.16140351 0.0210526316,9.64912281 0.0210526316,11.2561404 L0.0210526316,24.722807 C0.0210526316,26.3298246 0.856140351,27.8175439 2.21052632,28.6175439 L13.5508772,35.3473684 C14.2245614,35.7473684 14.9824561,35.9508772 15.7403509,35.9508772 C16.4982456,35.9508772 17.2491228,35.7473684 17.9298246,35.3473684 L29.2701754,28.6175439 C30.6245614,27.8105263 31.4596491,26.3298246 31.4596491,24.722807 L31.4596491,11.2561404 C31.4596491,9.64912281 30.6245614,8.16140351 29.2701754,7.36140351 Z"/>
      <path fill="#283037" d="M29.2701754,7.36140351 L17.9298246,0.624561404 C17.2561404,0.224561404 16.4982456,0.0210526316 15.7403509,0.0210526316 C14.9824561,0.0210526316 14.2315789,0.224561404 13.5508772,0.624561404 L2.21052632,7.36140351 C0.856140351,8.16140351 0.0210526316,9.64912281 0.0210526316,11.2561404 L0.0210526316,24.722807 C0.0210526316,26.3298246 0.856140351,27.8175439 2.21052632,28.6175439 L13.5508772,35.3473684 C14.2245614,35.7473684 14.9824561,35.9508772 15.7403509,35.9508772 C16.4982456,35.9508772 17.2491228,35.7473684 17.9298246,35.3473684 L29.2701754,28.6175439 C30.6245614,27.8105263 31.4596491,26.3298246 31.4596491,24.722807 L31.4596491,11.2561404 C31.4596491,9.64912281 30.6245614,8.16140351 29.2701754,7.36140351 Z M13.9508772,34.6596491 L2.61052632,27.9298246 C1.50175439,27.2701754 0.814035088,26.0421053 0.814035088,24.722807 L0.814035088,11.2561404 C0.814035088,9.93684211 1.50175439,8.70877193 2.61052632,8.04912281 L13.9508772,1.31929825 C14.4982456,0.996491228 15.1157895,0.828070175 15.7403509,0.828070175 C16.3649123,0.828070175 16.9894737,0.996491228 17.5298246,1.31929825 L28.8701754,8.04912281 C29.8035088,8.60350877 30.4350877,9.56491228 30.6105263,10.645614 C30.2315789,9.84561404 29.3894737,9.62105263 28.4,10.2035088 L17.6701754,16.8350877 C16.3298246,17.6140351 15.3473684,18.4982456 15.3473684,20.1052632 L15.3473684,33.3263158 C15.3473684,34.2947368 15.7333333,34.9192982 16.3368421,35.1017544 C16.1403509,35.1368421 15.9438596,35.1578947 15.7403509,35.1578947 C15.1157895,35.1508772 14.4912281,34.9824561 13.9508772,34.6596491 Z"/>
      <path fill="#4DA825" d="M26.3017544,26.0210526 L23.4736842,27.7122807 C23.3964912,27.754386 23.3403509,27.8035088 23.3403509,27.8947368 L23.3403509,28.6315789 C23.3403509,28.722807 23.4035088,28.7578947 23.4736842,28.7157895 L26.3438596,26.9754386 C26.4210526,26.9333333 26.4280702,26.8491228 26.4280702,26.7578947 L26.4280702,26.1052632 C26.4350877,26.0140351 26.3719298,25.9789474 26.3017544,26.0210526 Z"/>
      <path fill="#FFF" d="M20.2877193,19.8035088 C20.3789474,19.754386 20.4561404,19.8175439 20.4561404,19.9368421 L20.4631579,20.9122807 C20.8701754,20.7508772 21.2280702,20.7087719 21.5508772,20.7789474 C21.6210526,20.8 21.6491228,20.8912281 21.6210526,21.0035088 L21.4035088,21.8666667 C21.3894737,21.9298246 21.3473684,22 21.3052632,22.0421053 C21.2842105,22.0631579 21.2701754,22.077193 21.2491228,22.0842105 C21.2210526,22.0982456 21.1929825,22.1052632 21.1649123,22.0982456 C21.0175439,22.0631579 20.6666667,21.9859649 20.1192982,22.2666667 C19.5438596,22.5614035 19.3403509,23.0596491 19.3473684,23.4315789 C19.354386,23.8736842 19.5789474,24.0140351 20.3649123,24.0210526 C21.4105263,24.0350877 21.8666667,24.4982456 21.8736842,25.5508772 C21.8877193,26.5894737 21.3333333,27.6982456 20.4842105,28.3859649 L20.5052632,29.354386 C20.5052632,29.4736842 20.4280702,29.6070175 20.3368421,29.6491228 L19.7614035,29.9789474 C19.6701754,30.0280702 19.5929825,29.9719298 19.5929825,29.8526316 L19.5859649,28.8982456 C19.0947368,29.1017544 18.5964912,29.1508772 18.2807018,29.0245614 C18.2175439,29.0035088 18.1964912,28.9122807 18.2175439,28.8140351 L18.4280702,27.9368421 C18.4421053,27.8666667 18.4842105,27.7964912 18.5333333,27.754386 C18.554386,27.7403509 18.5684211,27.7263158 18.5894737,27.7122807 C18.6245614,27.6982456 18.6526316,27.6912281 18.6807018,27.7052632 C19.0245614,27.8175439 19.4596491,27.7684211 19.8807018,27.5508772 C20.4140351,27.277193 20.7719298,26.7368421 20.7649123,26.1894737 C20.7578947,25.6982456 20.4912281,25.4947368 19.845614,25.4877193 C19.0245614,25.4877193 18.2526316,25.3263158 18.2385965,24.1122807 C18.2315789,23.1157895 18.7508772,22.077193 19.5719298,21.4175439 L19.5649123,20.4421053 C19.5649123,20.322807 19.6350877,20.1894737 19.7333333,20.1403509 L20.2877193,19.8035088 Z"/>
    </g>
  </g>
</svg>
