<svg xmlns="http://www.w3.org/2000/svg" width="40" height="40" viewBox="0 0 40 40">
  <g fill="none" fill-rule="evenodd" transform="translate(2 2)">
    <rect width="35.93" height="35.93" x=".021" y=".021"/>
    <g fill-rule="nonzero" transform="translate(2.246)">
      <path fill="#CBCBCB" d="M29.2701754,7.36140351 C30.6245614,8.16140351 31.4596491,9.64912281 31.4596491,11.2561404 L31.4596491,24.722807 C31.4596491,26.3298246 30.6245614,27.8105263 29.2701754,28.6175439 L17.9298246,35.3473684 C17.2491228,35.7473684 16.4982456,35.9508772 15.7403509,35.9508772 C14.9824561,35.9508772 14.2245614,35.7473684 13.5508772,35.3473684 L2.21052632,28.6175439 C0.856140351,27.8175439 0.0210526316,26.3298246 0.0210526316,24.722807 L0.0210526316,11.2561404 C0.0210526316,9.64912281 0.856140351,8.16140351 2.21052632,7.36140351 L13.5508772,0.624561404 C14.2315789,0.224561404 14.9824561,0.0210526316 15.7403509,0.0210526316 C16.4982456,0.0210526316 17.2561404,0.224561404 17.9298246,0.624561404 L29.2701754,7.36140351 Z M13.9508772,34.6596491 C14.4912281,34.9824561 15.1157895,35.1508772 15.7403509,35.1578947 C15.9438596,35.1578947 16.1403509,35.1368421 16.3368421,35.1017544 C15.7333333,34.9192982 15.3473684,34.2947368 15.3473684,33.3263158 L15.3473684,20.1052632 C15.3473684,18.4982456 16.3298246,17.6140351 17.6701754,16.8350877 L28.4,10.2035088 C29.3894737,9.62105263 30.2315789,9.84561404 30.6105263,10.645614 C30.4350877,9.56491228 29.8035088,8.60350877 28.8701754,8.04912281 L17.5298246,1.31929825 C16.9894737,0.996491228 16.3649123,0.828070175 15.7403509,0.828070175 C15.1157895,0.828070175 14.4982456,0.996491228 13.9508772,1.31929825 L2.61052632,8.04912281 C1.50175439,8.70877193 0.814035088,9.93684211 0.814035088,11.2561404 L0.814035088,24.722807 C0.814035088,26.0421053 1.50175439,27.2701754 2.61052632,27.9298246 L13.9508772,34.6596491 Z M20.2877193,19.8035088 L19.7333333,20.1403509 C19.6350877,20.1894737 19.5649123,20.322807 19.5649123,20.4421053 L19.5719298,21.4175439 C18.7508772,22.077193 18.2315789,23.1157895 18.2385965,24.1122807 C18.2526316,25.3263158 19.0245614,25.4877193 19.845614,25.4877193 C20.4912281,25.4947368 20.7578947,25.6982456 20.7649123,26.1894737 C20.7719298,26.7368421 20.4140351,27.277193 19.8807018,27.5508772 C19.4596491,27.7684211 19.0245614,27.8175439 18.6807018,27.7052632 C18.6526316,27.6912281 18.6245614,27.6982456 18.5894737,27.7122807 C18.5684211,27.7263158 18.554386,27.7403509 18.5333333,27.754386 C18.4842105,27.7964912 18.4421053,27.8666667 18.4280702,27.9368421 L18.2175439,28.8140351 C18.1964912,28.9122807 18.2175439,29.0035088 18.2807018,29.0245614 C18.5964912,29.1508772 19.0947368,29.1017544 19.5859649,28.8982456 L19.5929825,29.8526316 C19.5929825,29.9719298 19.6701754,30.0280702 19.7614035,29.9789474 L20.3368421,29.6491228 C20.4280702,29.6070175 20.5052632,29.4736842 20.5052632,29.354386 L20.4842105,28.3859649 C21.3333333,27.6982456 21.8877193,26.5894737 21.8736842,25.5508772 C21.8666667,24.4982456 21.4105263,24.0350877 20.3649123,24.0210526 C19.5789474,24.0140351 19.354386,23.8736842 19.3473684,23.4315789 C19.3403509,23.0596491 19.5438596,22.5614035 20.1192982,22.2666667 C20.6666667,21.9859649 21.0175439,22.0631579 21.1649123,22.0982456 C21.1929825,22.1052632 21.2210526,22.0982456 21.2491228,22.0842105 C21.2701754,22.077193 21.2842105,22.0631579 21.3052632,22.0421053 C21.3473684,22 21.3894737,21.9298246 21.4035088,21.8666667 L21.6210526,21.0035088 C21.6491228,20.8912281 21.6210526,20.8 21.5508772,20.7789474 C21.2280702,20.7087719 20.8701754,20.7508772 20.4631579,20.9122807 L20.4561404,19.9368421 C20.4561404,19.8175439 20.3789474,19.754386 20.2877193,19.8035088 Z"/>
      <path fill="#59C22B" d="M26.3017544,26.0145775 L23.4736842,27.086329 C23.3964912,27.1130117 23.3403509,27.1441414 23.3403509,27.2019537 L23.3403509,27.6688994 C23.3403509,27.7267117 23.4035088,27.7489472 23.4736842,27.7222646 L26.3438596,26.6193833 C26.4210526,26.5927007 26.4280702,26.5393355 26.4280702,26.4815232 L26.4280702,26.0679427 C26.4350877,26.0101304 26.3719298,25.9878949 26.3017544,26.0145775 Z"/>
    </g>
  </g>
</svg>
