<svg width="16" height="16" viewBox="0 0 16 16" fill="none" xmlns="http://www.w3.org/2000/svg">
<path fill-rule="evenodd" clip-rule="evenodd" d="M12 11.5C12 11.2239 12.2239 11 12.5 11H15.5C15.7761 11 16 11.2239 16 11.5V14.5C16 14.7761 15.7761 15 15.5 15C15.2239 15 15 14.7761 15 14.5V12.7071L11.8536 15.8536C11.6583 16.0488 11.3417 16.0488 11.1464 15.8536L10 14.7071L8.85355 15.8536C8.65829 16.0488 8.34171 16.0488 8.14645 15.8536C7.95118 15.6583 7.95118 15.3417 8.14645 15.1464L9.64645 13.6464C9.84171 13.4512 10.1583 13.4512 10.3536 13.6464L11.5 14.7929L14.2929 12H12.5C12.2239 12 12 11.7761 12 11.5Z" fill="#548AF7"/>
</svg>
