<!-- Copyright 2000-2023 JetBrains s.r.o. and contributors. Use of this source code is governed by the Apache 2.0 license. -->
<svg width="16" height="16" viewBox="0 0 16 16" fill="none" xmlns="http://www.w3.org/2000/svg">
<path fill-rule="evenodd" clip-rule="evenodd" d="M14 9C14 10.1046 13.1046 11 12 11C10.8954 11 10 10.1046 10 9C10 7.89543 10.8954 7 12 7C13.1046 7 14 7.89543 14 9ZM13 9C13 9.55228 12.5523 10 12 10C11.4477 10 11 9.55228 11 9C11 8.44772 11.4477 8 12 8C12.5523 8 13 8.44772 13 9Z" fill="#548AF7"/>
<path fill-rule="evenodd" clip-rule="evenodd" d="M13 12H11C9.34315 12 8 13.3431 8 15C8 15.5523 8.44772 16 9 16H15C15.5523 16 16 15.5523 16 15C16 13.3431 14.6569 12 13 12ZM9 15C9 13.8954 9.89543 13 11 13H13C14.1046 13 15 13.8954 15 15H9Z" fill="#548AF7"/>
<path d="M12 10C12.5523 10 13 9.55228 13 9C13 8.44772 12.5523 8 12 8C11.4477 8 11 8.44772 11 9C11 9.55228 11.4477 10 12 10Z" fill="#25324D"/>
<path d="M11 13C9.89543 13 9 13.8954 9 15H15C15 13.8954 14.1046 13 13 13H11Z" fill="#25324D"/>
</svg>
