<svg width="16" height="16" viewBox="0 0 16 16" fill="none" xmlns="http://www.w3.org/2000/svg">
<path d="M13.2751 12.4584L13.4232 13.2097L14.1872 13.2626C14.6481 13.2945 15 13.6706 15 14.125C15 14.6077 14.6077 15 14.125 15H9.25C8.56104 15 8 14.439 8 13.75C8 13.1069 8.48746 12.5758 9.11197 12.5094L9.64538 12.4527L9.89316 11.9769C10.1968 11.394 10.8042 11 11.5 11C12.3778 11 13.1107 11.624 13.2751 12.4584Z" fill="#EDF3FF"/>
<path fill-rule="evenodd" clip-rule="evenodd" d="M13.4232 13.2097L13.2751 12.4584C13.1107 11.624 12.3778 11 11.5 11C10.8042 11 10.1968 11.394 9.89316 11.9769L9.64538 12.4527L9.11197 12.5094C8.48746 12.5758 8 13.1069 8 13.75C8 14.439 8.56103 15 9.25 15H14.125C14.6077 15 15 14.6077 15 14.125C15 13.6706 14.6481 13.2945 14.1872 13.2626L13.4232 13.2097ZM11.5 10C12.865 10 14.0012 10.9713 14.2562 12.265C15.2312 12.3325 16 13.135 16 14.125C16 15.16 15.16 16 14.125 16H9.25C8.00875 16 7 14.9913 7 13.75C7 12.5912 7.8775 11.635 9.00625 11.515C9.475 10.615 10.4162 10 11.5 10Z" fill="#3574F0"/>
</svg>
