<svg width="16" height="16" viewBox="0 0 16 16" fill="none" xmlns="http://www.w3.org/2000/svg">
<path d="M6 10C6 9.44772 6.44772 9 7 9L12.5 9C13.0523 9 13.5 9.44772 13.5 10V12.25C13.5 14.3211 11.8211 16 9.75 16C7.67893 16 6 14.3211 6 12.25V10Z" fill="#EDF3FF"/>
<path fill-rule="evenodd" clip-rule="evenodd" d="M13.425 13C13.0775 14.7117 11.5642 16 9.75 16C7.67893 16 6 14.3211 6 12.25V10C6 9.44772 6.44772 9 7 9H14C15.1046 9 16 9.89543 16 11C16 12.1046 15.1046 13 14 13H13.425ZM7 10H12.5V12.25C12.5 13.7688 11.2688 15 9.75 15C8.23122 15 7 13.7688 7 12.25V10ZM13.5 12H14C14.5523 12 15 11.5523 15 11C15 10.4477 14.5523 10 14 10H13.5V12Z" fill="#3574F0"/>
</svg>
