<!-- Copyright 2000-2024 JetBrains s.r.o. and contributors. Use of this source code is governed by the Apache 2.0 license. -->
<svg width="16" height="16" viewBox="0 0 16 16" fill="none" xmlns="http://www.w3.org/2000/svg">
<path d="M6.5 10C6.5 9.72386 6.72386 9.5 7 9.5H12.5C12.7761 9.5 13 9.72386 13 10V12.25C13 14.0449 11.5449 15.5 9.75 15.5C7.95507 15.5 6.5 14.0449 6.5 12.25V10Z" fill="#25324D" stroke="#548AF7"/>
<path fill-rule="evenodd" clip-rule="evenodd" d="M13.425 13C13.0775 14.7117 11.5642 16 9.75 16C7.67893 16 6 14.3211 6 12.25V10C6 9.44772 6.44772 9 7 9H14C15.1046 9 16 9.89543 16 11C16 12.1046 15.1046 13 14 13H13.425ZM7 10H12.5V12.25C12.5 13.7688 11.2688 15 9.75 15C8.23122 15 7 13.7688 7 12.25V10ZM13.5 12H14C14.5523 12 15 11.5523 15 11C15 10.4477 14.5523 10 14 10H13.5V12Z" fill="#548AF7"/>
</svg>
