<svg width="16" height="16" viewBox="0 0 16 16" fill="none" xmlns="http://www.w3.org/2000/svg">
<path fill-rule="evenodd" clip-rule="evenodd" d="M8.14645 12.1464C7.95118 12.3417 7.95118 12.6583 8.14645 12.8536C8.34171 13.0488 8.65829 13.0488 8.85355 12.8536L12 9.70711V11C12 11.2761 12.2239 11.5 12.5 11.5C12.7761 11.5 13 11.2761 13 11V8.5C13 8.22386 12.7761 8 12.5 8H10C9.72386 8 9.5 8.22386 9.5 8.5C9.5 8.77614 9.72386 9 10 9H11.2929L8.14645 12.1464ZM12.7071 15L15.8536 11.8536C16.0488 11.6583 16.0488 11.3417 15.8536 11.1464C15.6583 10.9512 15.3417 10.9512 15.1464 11.1464L12 14.2929V13C12 12.7239 11.7761 12.5 11.5 12.5C11.2239 12.5 11 12.7239 11 13V15.5C11 15.7761 11.2239 16 11.5 16H14C14.2761 16 14.5 15.7761 14.5 15.5C14.5 15.2239 14.2761 15 14 15H12.7071Z" fill="#3574F0"/>
</svg>
