<svg width="16" height="16" viewBox="0 0 16 16" xmlns="http://www.w3.org/2000/svg">
  <path fill="#FFF7F7" stroke="#DB3B4B" stroke-miterlimit="10" d="m15.094 12.48-2.614 2.614a1.382 1.382 0 0 1-1.96 0L7.906 12.48a1.385 1.385 0 0 1 0-1.96l2.614-2.614a1.38 1.38 0 0 1 .98-.406c.355 0 .71.135.98.406l2.614 2.614a1.382 1.382 0 0 1 0 1.96Z"/>
  <path fill="#DB3B4B" d="M11.5 10.75a.75.75 0 1 0 0-1.5.75.75 0 0 0 0 1.5Zm0 3a.75.75 0 1 0 0-1.5.75.75 0 0 0 0 1.5Zm1.5-1.5a.75.75 0 1 0 0-1.5.75.75 0 0 0 0 1.5Z"/>
  <path fill="none" stroke="#DB3B4B" stroke-miterlimit="10" stroke-width=".5" d="m13 11.5-3-3m1.5 1.5v3"/>
</svg>
