<svg width="16" height="16" viewBox="0 0 16 16" fill="none" xmlns="http://www.w3.org/2000/svg">
<path fill-rule="evenodd" clip-rule="evenodd" d="M11.9996 8C9.79109 8 8 9.79085 8 12.0001C8 13.7674 9.14601 15.2665 10.7355 15.7955C10.9356 15.8323 11.0086 15.7088 11.0086 15.6027C11.0086 15.5077 11.0051 15.2562 11.0032 14.9225C9.89054 15.1641 9.65579 14.3862 9.65579 14.3862C9.47383 13.9241 9.21158 13.801 9.21158 13.801C8.8484 13.553 9.23908 13.5579 9.23908 13.5579C9.64057 13.5862 9.85174 13.9702 9.85174 13.9702C10.2085 14.5814 10.7881 14.4049 11.0159 14.3025C11.0523 14.0441 11.1557 13.8678 11.2698 13.7679C10.3817 13.667 9.4478 13.3237 9.4478 11.7909C9.4478 11.3543 9.60373 10.997 9.8596 10.7176C9.81835 10.6164 9.68108 10.2095 9.89889 9.65898C9.89889 9.65898 10.2346 9.55143 10.9987 10.0691C11.3177 9.98017 11.66 9.93597 12.0001 9.93425C12.34 9.93597 12.682 9.98017 13.0015 10.0691C13.7652 9.55143 14.1004 9.65898 14.1004 9.65898C14.3187 10.2095 14.1814 10.6164 14.1404 10.7176C14.3968 10.997 14.5515 11.3543 14.5515 11.7909C14.5515 13.3276 13.6161 13.6657 12.7253 13.7647C12.8687 13.8882 12.9966 14.1323 12.9966 14.5053C12.9966 15.0401 12.9917 15.4716 12.9917 15.6027C12.9917 15.7098 13.0639 15.8342 13.2667 15.7952C14.855 15.265 16 13.7669 16 12.0001C16 9.79085 14.2089 8 11.9996 8Z" fill="#CED0D6"/>
</svg>
