<svg width="16" height="16" viewBox="0 0 16 16" fill="none" xmlns="http://www.w3.org/2000/svg">
<path fill-rule="evenodd" clip-rule="evenodd" d="M8 9.5C8 9.22386 8.22386 9 8.5 9H15.5C15.7761 9 16 9.22386 16 9.5V11.5C16 11.7761 15.7761 12 15.5 12H8.5C8.22386 12 8 11.7761 8 11.5V9.5ZM9 10H10V11H9V10ZM11 10V11H15V10H11Z" fill="#3574F0"/>
<path fill-rule="evenodd" clip-rule="evenodd" d="M8 13.5C8 13.2239 8.22386 13 8.5 13H15.5C15.7761 13 16 13.2239 16 13.5V15.5C16 15.7761 15.7761 16 15.5 16H8.5C8.22386 16 8 15.7761 8 15.5V13.5ZM9 14H10V15H9V14ZM11 14V15H15V14H11Z" fill="#3574F0"/>
</svg>
