<svg width="16" height="16" viewBox="0 0 16 16" fill="none" xmlns="http://www.w3.org/2000/svg">
<path d="M11 9H12V14H11V9Z" fill="#25324D"/>
<path d="M9 10H10V14H9V10Z" fill="#25324D"/>
<path d="M14 11H13V14H14V11Z" fill="#25324D"/>
<path fill-rule="evenodd" clip-rule="evenodd" d="M10 9C10 8.44772 10.4477 8 11 8H12C12.5523 8 13 8.44772 13 9V10H14C14.5523 10 15 10.4477 15 11V14C15 14.5523 14.5523 15 14 15H9C8.44772 15 8 14.5523 8 14V10C8 9.44772 8.44772 9 9 9L10 9ZM11 9H12V14H11V9ZM10 10H9L9 14H10V10ZM13 14H14V11H13V14Z" fill="#548AF7"/>
</svg>
