<svg width="16" height="16" viewBox="0 0 16 16" fill="none" xmlns="http://www.w3.org/2000/svg">
<path d="M10 10C10 9.44772 10.4477 9 11 9H13C13.5523 9 14 9.44772 14 10V15C14 15.5523 13.5523 16 13 16H11C10.4477 16 10 15.5523 10 15V10Z" fill="#EBECF0"/>
<path fill-rule="evenodd" clip-rule="evenodd" d="M10 10L8.5 10C8.22386 10 8 10.2239 8 10.5C8 10.7761 8.22386 11 8.5 11H10V12H8.5C8.22386 12 8 12.2239 8 12.5C8 12.7761 8.22386 13 8.5 13H10V14H8.5C8.22386 14 8 14.2239 8 14.5C8 14.7761 8.22386 15 8.5 15H10C10 15.5523 10.4477 16 11 16H13C13.5523 16 14 15.5523 14 15H15.5C15.7761 15 16 14.7761 16 14.5C16 14.2239 15.7761 14 15.5 14H14V13H15.5C15.7761 13 16 12.7761 16 12.5C16 12.2239 15.7761 12 15.5 12H14V11H15.5C15.7761 11 16 10.7761 16 10.5C16 10.2239 15.7761 10 15.5 10H14C14 9.44772 13.5523 9 13 9H11C10.4477 9 10 9.44772 10 10ZM11 10H13V15H11V10Z" fill="#6C707E"/>
</svg>
