<svg width="16" height="16" viewBox="0 0 16 16" fill="none" xmlns="http://www.w3.org/2000/svg">
<path d="M9 12C9 10.3431 10.3431 9 12 9C12.8881 9 13.6866 9.38587 14.2362 10H13.5C13.2239 10 13 10.2239 13 10.5C13 10.7761 13.2239 11 13.5 11H15.1527C15.1599 11.0002 15.1671 11.0002 15.1743 11H15.5C15.7761 11 16 10.7761 16 10.5V8.5C16 8.22386 15.7761 8 15.5 8C15.2239 8 15 8.22386 15 8.5V9.3543C14.2674 8.5242 13.1952 8 12 8C9.79086 8 8 9.79086 8 12C8 14.2091 9.79086 16 12 16C14.0156 16 15.6822 14.5097 15.9595 12.5708C15.9986 12.2974 15.8087 12.0441 15.5354 12.005C15.262 11.9659 15.0087 12.1558 14.9696 12.4292C14.7617 13.8826 13.5109 15 12 15C10.3431 15 9 13.6569 9 12Z" fill="#CED0D6"/>
</svg>
