<svg width="16" height="16" viewBox="0 0 16 16" fill="none" xmlns="http://www.w3.org/2000/svg">
<path d="M16 14.5C16 15.3284 15.3284 16 14.5 16C13.6716 16 13 15.3284 13 14.5C13 13.6716 13.6716 13 14.5 13C15.3284 13 16 13.6716 16 14.5Z" fill="#EBECF0"/>
<path d="M11 14.5C11 15.3284 10.3284 16 9.5 16C8.67157 16 8 15.3284 8 14.5C8 13.6716 8.67157 13 9.5 13C10.3284 13 11 13.6716 11 14.5Z" fill="#EBECF0"/>
<path d="M11 9.5C11 10.3284 10.3284 11 9.5 11C8.67157 11 8 10.3284 8 9.5C8 8.67157 8.67157 8 9.5 8C10.3284 8 11 8.67157 11 9.5Z" fill="#EBECF0"/>
<path d="M16 9.5C16 10.3284 15.3284 11 14.5 11C13.6716 11 13 10.3284 13 9.5C13 8.67157 13.6716 8 14.5 8C15.3284 8 16 8.67157 16 9.5Z" fill="#EBECF0"/>
<path fill-rule="evenodd" clip-rule="evenodd" d="M10.9146 9C10.7087 8.4174 10.1531 8 9.5 8C8.67157 8 8 8.67157 8 9.5C8 10.1531 8.4174 10.7087 9 10.9146V13.0854C8.4174 13.2913 8 13.8469 8 14.5C8 15.3284 8.67157 16 9.5 16C10.1531 16 10.7087 15.5826 10.9146 15H13.0854C13.2913 15.5826 13.8469 16 14.5 16C15.3284 16 16 15.3284 16 14.5C16 13.8469 15.5826 13.2913 15 13.0854V10.9146C15.5826 10.7087 16 10.1531 16 9.5C16 8.67157 15.3284 8 14.5 8C13.8469 8 13.2913 8.4174 13.0854 9H10.9146ZM10 9.5C10 9.77614 9.77614 10 9.5 10C9.22386 10 9 9.77614 9 9.5C9 9.22386 9.22386 9 9.5 9C9.77614 9 10 9.22386 10 9.5ZM10 10.9146V13.0854C10.4262 13.236 10.764 13.5738 10.9146 14H13.0854C13.236 13.5738 13.5738 13.236 14 13.0854V10.9146C13.5738 10.764 13.236 10.4262 13.0854 10H10.9146C10.764 10.4262 10.4262 10.764 10 10.9146ZM9.5 15C9.77614 15 10 14.7761 10 14.5C10 14.2239 9.77614 14 9.5 14C9.22386 14 9 14.2239 9 14.5C9 14.7761 9.22386 15 9.5 15ZM14.5 15C14.7761 15 15 14.7761 15 14.5C15 14.2239 14.7761 14 14.5 14C14.2239 14 14 14.2239 14 14.5C14 14.7761 14.2239 15 14.5 15ZM14.5 10C14.7761 10 15 9.77614 15 9.5C15 9.22386 14.7761 9 14.5 9C14.2239 9 14 9.22386 14 9.5C14 9.77614 14.2239 10 14.5 10Z" fill="#6C707E"/>
</svg>