<svg width="16" height="16" viewBox="0 0 16 16" fill="none" xmlns="http://www.w3.org/2000/svg">
<path fill-rule="evenodd" clip-rule="evenodd" d="M14.5 11C15.3284 11 16 10.3284 16 9.5C16 8.67157 15.3284 8 14.5 8C13.6716 8 13 8.67157 13 9.5C13 9.56274 13.0039 9.62458 13.0113 9.6853L10.5413 10.9203C10.2715 10.6601 9.90445 10.5 9.5 10.5C8.67157 10.5 8 11.1716 8 12C8 12.8284 8.67157 13.5 9.5 13.5C9.90445 13.5 10.2715 13.3399 10.5413 13.0797L13.0113 14.3147C13.0039 14.3754 13 14.4373 13 14.5C13 15.3284 13.6716 16 14.5 16C15.3284 16 16 15.3284 16 14.5C16 13.6716 15.3284 13 14.5 13C14.0955 13 13.7285 13.1601 13.4587 13.4203L10.9887 12.1853C10.9961 12.1246 11 12.0627 11 12C11 11.9372 10.9961 11.8754 10.9887 11.8147L13.4587 10.5797C13.7285 10.8399 14.0955 11 14.5 11ZM10 12C10 12.2761 9.77614 12.5 9.5 12.5C9.22386 12.5 9 12.2761 9 12C9 11.7239 9.22386 11.5 9.5 11.5C9.77614 11.5 10 11.7239 10 12ZM15 9.5C15 9.77614 14.7761 10 14.5 10C14.2239 10 14 9.77614 14 9.5C14 9.22386 14.2239 9 14.5 9C14.7761 9 15 9.22386 15 9.5ZM15 14.5C15 14.7761 14.7761 15 14.5 15C14.2239 15 14 14.7761 14 14.5C14 14.2239 14.2239 14 14.5 14C14.7761 14 15 14.2239 15 14.5Z" fill="#3574F0"/>
</svg>
