<?xml version="1.0" encoding="UTF-8" standalone="no"?><svg xmlns="http://www.w3.org/2000/svg" xmlns:xlink="http://www.w3.org/1999/xlink" contentStyleType="text/css" height="739px" preserveAspectRatio="none" style="width:1266px;height:739px;background:#FFFFFF;" version="1.1" viewBox="0 0 1266 739" width="1266px" zoomAndPan="magnify"><defs/><g><g id="cluster_##28627"><rect height="372" rx="2.5" ry="2.5" style="stroke:#181818;stroke-width:1.0;fill:none;" width="315" x="7" y="169"/></g><g id="cluster_##28635"><rect height="321" rx="2.5" ry="2.5" style="stroke:#181818;stroke-width:1.0;fill:none;" width="622" x="346" y="412"/></g><!--MD5=[d73de33d6293fd65c29057d7f2327063]
class TargetEnvironmentRequest--><g id="elem_TargetEnvironmentRequest"><rect codeLine="6" fill="#F1F1F1" height="129.4844" id="TargetEnvironmentRequest" rx="2.5" ry="2.5" style="stroke:#181818;stroke-width:0.5;" width="223" x="83.5" y="185"/><ellipse cx="98.5" cy="201" fill="#B4A7E5" rx="11" ry="11" style="stroke:#181818;stroke-width:1.0;"/><path d="M94.4219,196.7656 L94.4219,194.6094 L101.8125,194.6094 L101.8125,196.7656 L99.3438,196.7656 L99.3438,204.8438 L101.8125,204.8438 L101.8125,207 L94.4219,207 L94.4219,204.8438 L96.8906,204.8438 L96.8906,196.7656 L94.4219,196.7656 Z " fill="#000000"/><text fill="#000000" font-family="sans-serif" font-size="14" font-style="italic" lengthAdjust="spacing" textLength="191" x="112.5" y="205.8467">TargetEnvironmentRequest</text><line style="stroke:#181818;stroke-width:0.5;" x1="84.5" x2="305.5" y1="217" y2="217"/><ellipse cx="94.5" cy="228" fill="none" rx="3" ry="3" style="stroke:#038048;stroke-width:1.0;"/><text fill="#000000" font-family="sans-serif" font-size="14" lengthAdjust="spacing" textLength="107" x="103.5" y="233.9951">uploadVolumes</text><ellipse cx="94.5" cy="244.2969" fill="none" rx="3" ry="3" style="stroke:#038048;stroke-width:1.0;"/><text fill="#000000" font-family="sans-serif" font-size="14" lengthAdjust="spacing" textLength="127" x="103.5" y="250.292">downloadVolumes</text><ellipse cx="94.5" cy="260.5938" fill="none" rx="3" ry="3" style="stroke:#038048;stroke-width:1.0;"/><text fill="#000000" font-family="sans-serif" font-size="14" lengthAdjust="spacing" textLength="129" x="103.5" y="266.5889">targetPortBindings</text><ellipse cx="94.5" cy="276.8906" fill="none" rx="3" ry="3" style="stroke:#038048;stroke-width:1.0;"/><text fill="#000000" font-family="sans-serif" font-size="14" lengthAdjust="spacing" textLength="119" x="103.5" y="282.8857">localPortBindings</text><line style="stroke:#181818;stroke-width:0.5;" x1="84.5" x2="305.5" y1="290.1875" y2="290.1875"/><ellipse cx="94.5" cy="301.1875" fill="#84BE84" rx="3" ry="3" style="stroke:#038048;stroke-width:1.0;"/><text fill="#000000" font-family="sans-serif" font-size="14" lengthAdjust="spacing" textLength="151" x="103.5" y="307.1826">prepareEnvironment()</text></g><!--MD5=[2837591eb95099e2d8e634b377685902]
class DownloadRoot--><g id="elem_DownloadRoot"><rect codeLine="14" fill="#F1F1F1" height="48" id="DownloadRoot" rx="2.5" ry="2.5" style="stroke:#181818;stroke-width:0.5;" width="134" x="23" y="477"/><ellipse cx="38" cy="493" fill="#ADD1B2" rx="11" ry="11" style="stroke:#181818;stroke-width:1.0;"/><path d="M40.9688,498.6406 Q40.3906,498.9375 39.75,499.0781 Q39.1094,499.2344 38.4063,499.2344 Q35.9063,499.2344 34.5781,497.5938 Q33.2656,495.9375 33.2656,492.8125 Q33.2656,489.6875 34.5781,488.0313 Q35.9063,486.375 38.4063,486.375 Q39.1094,486.375 39.75,486.5313 Q40.4063,486.6875 40.9688,486.9844 L40.9688,489.7031 Q40.3438,489.125 39.75,488.8594 Q39.1563,488.5781 38.5313,488.5781 Q37.1875,488.5781 36.5,489.6563 Q35.8125,490.7188 35.8125,492.8125 Q35.8125,494.9063 36.5,495.9844 Q37.1875,497.0469 38.5313,497.0469 Q39.1563,497.0469 39.75,496.7813 Q40.3438,496.5 40.9688,495.9219 L40.9688,498.6406 Z " fill="#000000"/><text fill="#000000" font-family="sans-serif" font-size="14" lengthAdjust="spacing" textLength="102" x="52" y="497.8467">DownloadRoot</text><line style="stroke:#181818;stroke-width:0.5;" x1="24" x2="156" y1="509" y2="509"/><line style="stroke:#181818;stroke-width:0.5;" x1="24" x2="156" y1="517" y2="517"/></g><!--MD5=[33fdddc2e505d360098fb4a0b2befc5d]
class UploadRoot--><g id="elem_UploadRoot"><rect codeLine="15" fill="#F1F1F1" height="48" id="UploadRoot" rx="2.5" ry="2.5" style="stroke:#181818;stroke-width:0.5;" width="113" x="192.5" y="477"/><ellipse cx="207.5" cy="493" fill="#ADD1B2" rx="11" ry="11" style="stroke:#181818;stroke-width:1.0;"/><path d="M210.4688,498.6406 Q209.8906,498.9375 209.25,499.0781 Q208.6094,499.2344 207.9063,499.2344 Q205.4063,499.2344 204.0781,497.5938 Q202.7656,495.9375 202.7656,492.8125 Q202.7656,489.6875 204.0781,488.0313 Q205.4063,486.375 207.9063,486.375 Q208.6094,486.375 209.25,486.5313 Q209.9063,486.6875 210.4688,486.9844 L210.4688,489.7031 Q209.8438,489.125 209.25,488.8594 Q208.6563,488.5781 208.0313,488.5781 Q206.6875,488.5781 206,489.6563 Q205.3125,490.7188 205.3125,492.8125 Q205.3125,494.9063 206,495.9844 Q206.6875,497.0469 208.0313,497.0469 Q208.6563,497.0469 209.25,496.7813 Q209.8438,496.5 210.4688,495.9219 L210.4688,498.6406 Z " fill="#000000"/><text fill="#000000" font-family="sans-serif" font-size="14" lengthAdjust="spacing" textLength="81" x="221.5" y="497.8467">UploadRoot</text><line style="stroke:#181818;stroke-width:0.5;" x1="193.5" x2="304.5" y1="509" y2="509"/><line style="stroke:#181818;stroke-width:0.5;" x1="193.5" x2="304.5" y1="517" y2="517"/></g><!--MD5=[84b6551c2b2c45cf2f7d343049ba439e]
class TargetEnvironment--><g id="elem_TargetEnvironment"><rect codeLine="24" fill="#F1F1F1" height="145.7813" id="TargetEnvironment" rx="2.5" ry="2.5" style="stroke:#181818;stroke-width:0.5;" width="164" x="721" y="428"/><ellipse cx="736" cy="444" fill="#A9DCDF" rx="11" ry="11" style="stroke:#181818;stroke-width:1.0;"/><path d="M736.1094,439.3438 L734.9531,444.4219 L737.2813,444.4219 L736.1094,439.3438 Z M734.625,437.1094 L737.6094,437.1094 L740.9688,449.5 L738.5156,449.5 L737.75,446.4375 L734.4688,446.4375 L733.7188,449.5 L731.2813,449.5 L734.625,437.1094 Z " fill="#000000"/><text fill="#000000" font-family="sans-serif" font-size="14" font-style="italic" lengthAdjust="spacing" textLength="132" x="750" y="448.8467">TargetEnvironment</text><line style="stroke:#181818;stroke-width:0.5;" x1="722" x2="884" y1="460" y2="460"/><ellipse cx="732" cy="471" fill="none" rx="3" ry="3" style="stroke:#038048;stroke-width:1.0;"/><text fill="#000000" font-family="sans-serif" font-size="14" lengthAdjust="spacing" textLength="107" x="741" y="476.9951">uploadVolumes</text><ellipse cx="732" cy="487.2969" fill="none" rx="3" ry="3" style="stroke:#038048;stroke-width:1.0;"/><text fill="#000000" font-family="sans-serif" font-size="14" lengthAdjust="spacing" textLength="127" x="741" y="493.292">downloadVolumes</text><ellipse cx="732" cy="503.5938" fill="none" rx="3" ry="3" style="stroke:#038048;stroke-width:1.0;"/><text fill="#000000" font-family="sans-serif" font-size="14" lengthAdjust="spacing" textLength="129" x="741" y="509.5889">targetPortBindings</text><ellipse cx="732" cy="519.8906" fill="none" rx="3" ry="3" style="stroke:#038048;stroke-width:1.0;"/><text fill="#000000" font-family="sans-serif" font-size="14" lengthAdjust="spacing" textLength="119" x="741" y="525.8857">localPortBindings</text><line style="stroke:#181818;stroke-width:0.5;" x1="722" x2="884" y1="533.1875" y2="533.1875"/><ellipse cx="732" cy="544.1875" fill="#84BE84" rx="3" ry="3" style="stroke:#038048;stroke-width:1.0;"/><text fill="#000000" font-family="sans-serif" font-size="14" lengthAdjust="spacing" textLength="110" x="741" y="550.1826">createProcess()</text><ellipse cx="732" cy="560.4844" fill="#84BE84" rx="3" ry="3" style="stroke:#038048;stroke-width:1.0;"/><text fill="#000000" font-family="sans-serif" font-size="14" lengthAdjust="spacing" textLength="79" x="741" y="566.4795">shutdown()</text></g><!--MD5=[2a11e5093c51abb766a2d91fadcd5e57]
class UploadableVolume--><g id="elem_UploadableVolume"><rect codeLine="33" fill="#F1F1F1" height="48" id="UploadableVolume" rx="2.5" ry="2.5" style="stroke:#181818;stroke-width:0.5;" width="161" x="579.5" y="669"/><ellipse cx="594.5" cy="685" fill="#ADD1B2" rx="11" ry="11" style="stroke:#181818;stroke-width:1.0;"/><path d="M597.4688,690.6406 Q596.8906,690.9375 596.25,691.0781 Q595.6094,691.2344 594.9063,691.2344 Q592.4063,691.2344 591.0781,689.5938 Q589.7656,687.9375 589.7656,684.8125 Q589.7656,681.6875 591.0781,680.0313 Q592.4063,678.375 594.9063,678.375 Q595.6094,678.375 596.25,678.5313 Q596.9063,678.6875 597.4688,678.9844 L597.4688,681.7031 Q596.8438,681.125 596.25,680.8594 Q595.6563,680.5781 595.0313,680.5781 Q593.6875,680.5781 593,681.6563 Q592.3125,682.7188 592.3125,684.8125 Q592.3125,686.9063 593,687.9844 Q593.6875,689.0469 595.0313,689.0469 Q595.6563,689.0469 596.25,688.7813 Q596.8438,688.5 597.4688,687.9219 L597.4688,690.6406 Z " fill="#000000"/><text fill="#000000" font-family="sans-serif" font-size="14" lengthAdjust="spacing" textLength="129" x="608.5" y="689.8467">UploadableVolume</text><line style="stroke:#181818;stroke-width:0.5;" x1="580.5" x2="739.5" y1="701" y2="701"/><line style="stroke:#181818;stroke-width:0.5;" x1="580.5" x2="739.5" y1="709" y2="709"/></g><!--MD5=[a63ff1678856aa46a7abaf177c7cd1e8]
class DownloadableVolume--><g id="elem_DownloadableVolume"><rect codeLine="34" fill="#F1F1F1" height="48" id="DownloadableVolume" rx="2.5" ry="2.5" style="stroke:#181818;stroke-width:0.5;" width="182" x="362" y="669"/><ellipse cx="377" cy="685" fill="#ADD1B2" rx="11" ry="11" style="stroke:#181818;stroke-width:1.0;"/><path d="M379.9688,690.6406 Q379.3906,690.9375 378.75,691.0781 Q378.1094,691.2344 377.4063,691.2344 Q374.9063,691.2344 373.5781,689.5938 Q372.2656,687.9375 372.2656,684.8125 Q372.2656,681.6875 373.5781,680.0313 Q374.9063,678.375 377.4063,678.375 Q378.1094,678.375 378.75,678.5313 Q379.4063,678.6875 379.9688,678.9844 L379.9688,681.7031 Q379.3438,681.125 378.75,680.8594 Q378.1563,680.5781 377.5313,680.5781 Q376.1875,680.5781 375.5,681.6563 Q374.8125,682.7188 374.8125,684.8125 Q374.8125,686.9063 375.5,687.9844 Q376.1875,689.0469 377.5313,689.0469 Q378.1563,689.0469 378.75,688.7813 Q379.3438,688.5 379.9688,687.9219 L379.9688,690.6406 Z " fill="#000000"/><text fill="#000000" font-family="sans-serif" font-size="14" lengthAdjust="spacing" textLength="150" x="391" y="689.8467">DownloadableVolume</text><line style="stroke:#181818;stroke-width:0.5;" x1="363" x2="543" y1="701" y2="701"/><line style="stroke:#181818;stroke-width:0.5;" x1="363" x2="543" y1="709" y2="709"/></g><!--MD5=[72d1bcca9708458d8b422e0ba20b0b3a]
class ResolvedPortBinding--><g id="elem_ResolvedPortBinding"><rect codeLine="35" fill="#F1F1F1" height="48" id="ResolvedPortBinding" rx="2.5" ry="2.5" style="stroke:#181818;stroke-width:0.5;" width="176" x="776" y="669"/><ellipse cx="791" cy="685" fill="#ADD1B2" rx="11" ry="11" style="stroke:#181818;stroke-width:1.0;"/><path d="M793.9688,690.6406 Q793.3906,690.9375 792.75,691.0781 Q792.1094,691.2344 791.4063,691.2344 Q788.9063,691.2344 787.5781,689.5938 Q786.2656,687.9375 786.2656,684.8125 Q786.2656,681.6875 787.5781,680.0313 Q788.9063,678.375 791.4063,678.375 Q792.1094,678.375 792.75,678.5313 Q793.4063,678.6875 793.9688,678.9844 L793.9688,681.7031 Q793.3438,681.125 792.75,680.8594 Q792.1563,680.5781 791.5313,680.5781 Q790.1875,680.5781 789.5,681.6563 Q788.8125,682.7188 788.8125,684.8125 Q788.8125,686.9063 789.5,687.9844 Q790.1875,689.0469 791.5313,689.0469 Q792.1563,689.0469 792.75,688.7813 Q793.3438,688.5 793.9688,687.9219 L793.9688,690.6406 Z " fill="#000000"/><text fill="#000000" font-family="sans-serif" font-size="14" lengthAdjust="spacing" textLength="144" x="805" y="689.8467">ResolvedPortBinding</text><line style="stroke:#181818;stroke-width:0.5;" x1="777" x2="951" y1="701" y2="701"/><line style="stroke:#181818;stroke-width:0.5;" x1="777" x2="951" y1="709" y2="709"/></g><!--MD5=[b1762e7e1ebeb415c61ecce064dc2d2e]
class TargetEnvironmentConfiguration--><g id="elem_TargetEnvironmentConfiguration"><rect codeLine="1" fill="#F1F1F1" height="64.2969" id="TargetEnvironmentConfiguration" rx="2.5" ry="2.5" style="stroke:#181818;stroke-width:0.5;" width="256" x="67" y="7"/><ellipse cx="82" cy="23" fill="#A9DCDF" rx="11" ry="11" style="stroke:#181818;stroke-width:1.0;"/><path d="M82.1094,18.3438 L80.9531,23.4219 L83.2813,23.4219 L82.1094,18.3438 Z M80.625,16.1094 L83.6094,16.1094 L86.9688,28.5 L84.5156,28.5 L83.75,25.4375 L80.4688,25.4375 L79.7188,28.5 L77.2813,28.5 L80.625,16.1094 Z " fill="#000000"/><text fill="#000000" font-family="sans-serif" font-size="14" font-style="italic" lengthAdjust="spacing" textLength="224" x="96" y="27.8467">TargetEnvironmentConfiguration</text><line style="stroke:#181818;stroke-width:0.5;" x1="68" x2="322" y1="39" y2="39"/><line style="stroke:#181818;stroke-width:0.5;" x1="68" x2="322" y1="47" y2="47"/><ellipse cx="78" cy="58" fill="#84BE84" rx="3" ry="3" style="stroke:#038048;stroke-width:1.0;"/><text fill="#000000" font-family="sans-serif" font-size="14" lengthAdjust="spacing" textLength="200" x="87" y="63.9951">createEnvironmentRequest()</text></g><!--MD5=[bb370c11d182b7ebaea7e6fa83404e81]
class Process--><g id="elem_Process"><rect codeLine="49" fill="#F1F1F1" height="48" id="Process" rx="2.5" ry="2.5" style="stroke:#181818;stroke-width:0.5;" width="88" x="1171" y="477"/><ellipse cx="1186" cy="493" fill="#B4A7E5" rx="11" ry="11" style="stroke:#181818;stroke-width:1.0;"/><path d="M1181.9219,488.7656 L1181.9219,486.6094 L1189.3125,486.6094 L1189.3125,488.7656 L1186.8438,488.7656 L1186.8438,496.8438 L1189.3125,496.8438 L1189.3125,499 L1181.9219,499 L1181.9219,496.8438 L1184.3906,496.8438 L1184.3906,488.7656 L1181.9219,488.7656 Z " fill="#000000"/><text fill="#000000" font-family="sans-serif" font-size="14" font-style="italic" lengthAdjust="spacing" textLength="56" x="1200" y="497.8467">Process</text><line style="stroke:#181818;stroke-width:0.5;" x1="1172" x2="1258" y1="509" y2="509"/><line style="stroke:#181818;stroke-width:0.5;" x1="1172" x2="1258" y1="517" y2="517"/></g><g id="elem_GMN28648"><path d="M1004,488.5 L1004,513.6328 A0,0 0 0 0 1004,513.6328 L1136,513.6328 A0,0 0 0 0 1136,513.6328 L1136,506.5 L1170.71,501 L1136,498.5 L1136,498.5 L1126,488.5 L1004,488.5 A0,0 0 0 0 1004,488.5 " fill="#FEFFDD" style="stroke:#181818;stroke-width:0.5;"/><path d="M1126,488.5 L1126,498.5 L1136,498.5 L1126,488.5 " fill="#FEFFDD" style="stroke:#181818;stroke-width:0.5;"/><text fill="#000000" font-family="sans-serif" font-size="13" lengthAdjust="spacing" textLength="111" x="1010" y="505.5669">java.lang.Process</text></g><!--MD5=[7ae43b50cfce6cbbdb0ee93a1b47fd28]
reverse link TargetEnvironmentRequest to DownloadRoot--><g id="link_TargetEnvironmentRequest_DownloadRoot"><path codeLine="16" d="M163.13,326.24 C141.41,377.84 114.09,442.75 99.78,476.77 " fill="none" id="TargetEnvironmentRequest-backto-DownloadRoot" style="stroke:#181818;stroke-width:1.0;"/><polygon fill="none" points="168.23,314.1,162.2145,318.0766,163.5715,325.1589,169.5871,321.1823,168.23,314.1" style="stroke:#181818;stroke-width:1.0;"/><text fill="#000000" font-family="sans-serif" font-size="13" lengthAdjust="spacing" textLength="8" x="156.6722" y="334.4831">1</text><text fill="#000000" font-family="sans-serif" font-size="13" lengthAdjust="spacing" textLength="7" x="94.3108" y="466.1189">*</text></g><!--MD5=[a8263d8c3e1632362791aace160fc1d2]
reverse link TargetEnvironmentRequest to UploadRoot--><g id="link_TargetEnvironmentRequest_UploadRoot"><path codeLine="17" d="M211.53,326.89 C222.68,378.39 236.64,442.89 243.97,476.77 " fill="none" id="TargetEnvironmentRequest-backto-UploadRoot" style="stroke:#181818;stroke-width:1.0;"/><polygon fill="none" points="208.77,314.1,206.1268,320.8092,211.3033,325.8296,213.9465,319.1204,208.77,314.1" style="stroke:#181818;stroke-width:1.0;"/><text fill="#000000" font-family="sans-serif" font-size="13" lengthAdjust="spacing" textLength="8" x="201.8997" y="334.4831">1</text><text fill="#000000" font-family="sans-serif" font-size="13" lengthAdjust="spacing" textLength="7" x="234.8908" y="466.1189">*</text></g><!--MD5=[063bd2c219f9d6692f5e56020441dd61]
link TargetEnvironmentConfiguration to TargetEnvironmentRequest--><g id="link_TargetEnvironmentConfiguration_TargetEnvironmentRequest"><path codeLine="20" d="M195,71.21 C195,99.69 195,142.78 195,179.35 " fill="none" id="TargetEnvironmentConfiguration-to-TargetEnvironmentRequest" style="stroke:#181818;stroke-width:1.0;"/><polygon fill="#181818" points="195,184.69,199,175.69,195,179.69,191,175.69,195,184.69" style="stroke:#181818;stroke-width:1.0;"/><text fill="#000000" font-family="sans-serif" font-size="13" lengthAdjust="spacing" textLength="184" x="328.5" y="114.0669">createEnvironmentRequest()</text><path d="M200,123.1328 L200,148.1328 L641,148.1328 L641,133.1328 L631,123.1328 L200,123.1328 " fill="#FEFFDD" style="stroke:#181818;stroke-width:0.5;"/><path d="M631,123.1328 L631,133.1328 L641,133.1328 L631,123.1328 " fill="#FEFFDD" style="stroke:#181818;stroke-width:0.5;"/><text fill="#000000" font-family="sans-serif" font-size="13" lengthAdjust="spacing" textLength="420" x="206" y="140.1997">Target environment configuration may produce multiple requests.</text></g><!--MD5=[cdc3dda2c77ae416bb6d885f787c30db]
reverse link TargetEnvironment to DownloadableVolume--><g id="link_TargetEnvironment_DownloadableVolume"><path codeLine="36" d="M801.63,587.07 C800.39,612.39 798.12,634.61 794,639 C758.42,676.9 613.25,660.29 562,669 C556.18,669.99 550.21,671.07 544.19,672.2 " fill="none" id="TargetEnvironment-backto-DownloadableVolume" style="stroke:#181818;stroke-width:1.0;"/><polygon fill="none" points="802.17,574.04,797.9229,579.8677,801.6688,586.0295,805.9159,580.2018,802.17,574.04" style="stroke:#181818;stroke-width:1.0;"/><text fill="#000000" font-family="sans-serif" font-size="13" lengthAdjust="spacing" textLength="8" x="793.7096" y="593.8001">1</text><text fill="#000000" font-family="sans-serif" font-size="13" lengthAdjust="spacing" textLength="7" x="552.0315" y="666.9288">*</text></g><!--MD5=[f756ba35e0c2972e0fca81c44a82e146]
reverse link TargetEnvironment to UploadableVolume--><g id="link_TargetEnvironment_UploadableVolume"><path codeLine="37" d="M816.9,587.14 C815.94,605.55 811.57,623.97 801,639 C793.06,650.28 767.72,661.27 740.67,670.28 " fill="none" id="TargetEnvironment-backto-UploadableVolume" style="stroke:#181818;stroke-width:1.0;"/><polygon fill="none" points="817.04,574.12,812.9743,580.0757,816.9081,586.1193,820.9738,580.1636,817.04,574.12" style="stroke:#181818;stroke-width:1.0;"/><text fill="#000000" font-family="sans-serif" font-size="13" lengthAdjust="spacing" textLength="8" x="809.9969" y="593.8877">1</text><text fill="#000000" font-family="sans-serif" font-size="13" lengthAdjust="spacing" textLength="7" x="748.4294" y="664.5671">*</text></g><!--MD5=[910f2a05eb9e5da439fe438e01be9eb9]
reverse link TargetEnvironment to ResolvedPortBinding--><g id="link_TargetEnvironment_ResolvedPortBinding"><path codeLine="38" d="M830.24,586.85 C839.89,616.89 849.97,648.29 856.57,668.87 " fill="none" id="TargetEnvironment-backto-ResolvedPortBinding" style="stroke:#181818;stroke-width:1.0;"/><polygon fill="none" points="826.15,574.1,824.1753,581.0355,829.8178,585.5257,831.7925,578.5902,826.15,574.1" style="stroke:#181818;stroke-width:1.0;"/><text fill="#000000" font-family="sans-serif" font-size="13" lengthAdjust="spacing" textLength="8" x="819.9752" y="593.8658">1</text><text fill="#000000" font-family="sans-serif" font-size="13" lengthAdjust="spacing" textLength="7" x="846.7692" y="657.8487">*</text></g><!--MD5=[828fb1719a91d7770abbd9cfe578f4cb]
link TargetEnvironmentRequest to TargetEnvironment--><g id="link_TargetEnvironmentRequest_TargetEnvironment"><path codeLine="41" d="M306.52,296.26 C424.58,344.71 608.44,420.16 716.16,464.37 " fill="none" id="TargetEnvironmentRequest-to-TargetEnvironment" style="stroke:#181818;stroke-width:1.0;"/><polygon fill="#181818" points="720.92,466.32,714.1132,459.2019,716.2945,464.4213,711.0752,466.6027,720.92,466.32" style="stroke:#181818;stroke-width:1.0;"/><path d="M540,349 L540,374 L818,374 L818,359 L808,349 L540,349 " fill="#FEFFDD" style="stroke:#181818;stroke-width:0.5;"/><path d="M808,349 L808,359 L818,359 L808,349 " fill="#FEFFDD" style="stroke:#181818;stroke-width:0.5;"/><text fill="#000000" font-family="sans-serif" font-size="13" lengthAdjust="spacing" textLength="257" x="546" y="366.0669">Request produces a single environment.</text><text fill="#000000" font-family="sans-serif" font-size="13" lengthAdjust="spacing" textLength="141" x="608.5" y="392.1997">prepareEnvironment()</text><text fill="#000000" font-family="sans-serif" font-size="13" lengthAdjust="spacing" textLength="8" x="314.6425" y="296.075">1</text><text fill="#000000" font-family="sans-serif" font-size="13" lengthAdjust="spacing" textLength="8" x="704.9845" y="459.5146">1</text></g><!--MD5=[190ed7d5061b050261d5deeec5a78add]
reverse link DownloadRoot to DownloadableVolume--><g id="link_DownloadRoot_DownloadableVolume"><path codeLine="44" d="M74.51,529.94 C59.91,560.45 43.85,608.98 70,639 C107.09,681.58 260.86,691.08 361.92,692.6 " fill="none" id="DownloadRoot-backto-DownloadableVolume" style="stroke:#181818;stroke-width:1.0;stroke-dasharray:7.0,7.0;"/><polygon fill="#181818" points="76.83,525.2,69.2756,531.5191,74.6283,529.6892,76.4583,535.0418,76.83,525.2" style="stroke:#181818;stroke-width:1.0;"/><path d="M75,609 L75,634 L422,634 L422,619 L412,609 L75,609 " fill="#FEFFDD" style="stroke:#181818;stroke-width:0.5;"/><path d="M412,609 L412,619 L422,619 L412,609 " fill="#FEFFDD" style="stroke:#181818;stroke-width:0.5;"/><text fill="#000000" font-family="sans-serif" font-size="13" lengthAdjust="spacing" textLength="326" x="81" y="626.0669">DownloadRoot is resolved to DownloadableVolume.</text><text fill="#000000" font-family="sans-serif" font-size="13" lengthAdjust="spacing" textLength="8" x="64.6448" y="545.01">1</text><text fill="#000000" font-family="sans-serif" font-size="13" lengthAdjust="spacing" textLength="8" x="346.0462" y="689.0182">1</text></g><!--MD5=[cdacb2cd7e8b1ffee26bbd46fd48d551]
reverse link UploadRoot to UploadableVolume--><g id="link_UploadRoot_UploadableVolume"><path codeLine="46" d="M279.6,528.44 C297.94,543.31 322.25,561.36 346,574 C381.37,592.82 396.54,583.56 431,604 C451.03,615.88 449.58,627.8 470,639 C489.22,649.54 536.72,662.79 579.41,673.41 " fill="none" id="UploadRoot-backto-UploadableVolume" style="stroke:#181818;stroke-width:1.0;stroke-dasharray:7.0,7.0;"/><polygon fill="#181818" points="275.54,525.13,279.9868,533.9178,279.4149,528.29,285.0427,527.718,275.54,525.13" style="stroke:#181818;stroke-width:1.0;"/><path d="M475,609 L475,634 L788,634 L788,619 L778,609 L475,609 " fill="#FEFFDD" style="stroke:#181818;stroke-width:0.5;"/><path d="M778,609 L778,619 L788,619 L778,609 " fill="#FEFFDD" style="stroke:#181818;stroke-width:0.5;"/><text fill="#000000" font-family="sans-serif" font-size="13" lengthAdjust="spacing" textLength="292" x="481" y="626.0669">UploadRoot is resolved to UploadableVolume.</text><text fill="#000000" font-family="sans-serif" font-size="13" lengthAdjust="spacing" textLength="8" x="273.0341" y="544.9229">1</text><text fill="#000000" font-family="sans-serif" font-size="13" lengthAdjust="spacing" textLength="8" x="563.6119" y="667.9857">1</text></g><!--MD5=[3a8179a281e5aae871aded2187f571e0]
link TargetEnvironment to Process--><g id="link_TargetEnvironment_Process"><path codeLine="52" d="M831.16,427.95 C843.93,404.89 861.54,382.04 885,369 C912.77,353.56 1145.22,350.42 1171,369 C1203.33,392.3 1212.26,440.38 1214.53,471.63 " fill="none" id="TargetEnvironment-to-Process" style="stroke:#181818;stroke-width:1.0;"/><polygon fill="#181818" points="1214.86,476.88,1218.2859,467.6462,1214.5454,471.8899,1210.3017,468.1495,1214.86,476.88" style="stroke:#181818;stroke-width:1.0;"/><path d="M890,349 L890,374 L1166,374 L1166,359 L1156,349 L890,349 " fill="#FEFFDD" style="stroke:#181818;stroke-width:0.5;"/><path d="M1156,349 L1156,359 L1166,359 L1156,349 " fill="#FEFFDD" style="stroke:#181818;stroke-width:0.5;"/><text fill="#000000" font-family="sans-serif" font-size="13" lengthAdjust="spacing" textLength="255" x="896" y="366.0669">Environment produces a single process.</text><text fill="#000000" font-family="sans-serif" font-size="13" lengthAdjust="spacing" textLength="101" x="977.5" y="392.1997">createProcess()</text></g><!--MD5=[9fb76aa6bcabdb33435c23e3bf359f86]
@startuml
abstract class TargetEnvironmentConfiguration {
    + createEnvironmentRequest()
  }

  package "" <<Rectangle>> {
    interface TargetEnvironmentRequest {
      + uploadVolumes
      + downloadVolumes
      + targetPortBindings
      + localPortBindings
    
      + prepareEnvironment()
    }
    class DownloadRoot
    class UploadRoot
    TargetEnvironmentRequest "1" o- - "*" DownloadRoot
    TargetEnvironmentRequest "1" o- - "*" UploadRoot
  }

  TargetEnvironmentConfiguration  - -> TargetEnvironmentRequest : createEnvironmentRequest()
  note on link: Target environment configuration may produce multiple requests.

  package "" <<Rectangle>> {
    abstract class TargetEnvironment {
      + uploadVolumes
      + downloadVolumes
      + targetPortBindings
      + localPortBindings
      
      + createProcess()
      + shutdown()
    }
    class UploadableVolume
    class DownloadableVolume
    class ResolvedPortBinding
    TargetEnvironment "1" o- - "*" DownloadableVolume
    TargetEnvironment "1" o- - "*" UploadableVolume
    TargetEnvironment "1" o- - "*" ResolvedPortBinding
  }

  TargetEnvironmentRequest "1" -right-> "1" TargetEnvironment : prepareEnvironment()
  note top on link: Request produces a single environment.

  DownloadRoot "1" <.. "1" DownloadableVolume
  note on link: DownloadRoot is resolved to DownloadableVolume.
  UploadRoot "1" <.. "1" UploadableVolume
  note on link: UploadRoot is resolved to UploadableVolume.
  
  interface Process
  note left: java.lang.Process

  TargetEnvironment -right-> Process : createProcess()
  note top on link: Environment produces a single process.
@enduml

PlantUML version 1.2022.4(Sat Apr 09 13:29:17 UTC 2022)
(GPL source distribution)
Java Runtime: OpenJDK Runtime Environment
JVM: OpenJDK 64-Bit Server VM
Default Encoding: UTF-8
Language: en
Country: US
--></g></svg>