<svg xmlns="http://www.w3.org/2000/svg" xmlns:xlink="http://www.w3.org/1999/xlink" width="22" height="22" viewBox="0 0 22 22">
  <defs>
    <rect id="checkboxindeterminateselected@2x-b" width="10" height="2" x="6" y="10" rx="1"/>
    <filter id="checkboxindeterminateselected@2x-a" width="123%" height="230%" x="-11.5%" y="-32.5%" filterUnits="objectBoundingBox">
      <feOffset dy=".8" in="SourceAlpha" result="shadowOffsetOuter1"/>
      <feGaussianBlur in="shadowOffsetOuter1" result="shadowBlurOuter1" stdDeviation=".25"/>
      <feColorMatrix in="shadowBlurOuter1" values="0 0 0 0 0   0 0 0 0 0   0 0 0 0 0  0 0 0 0.26 0"/>
    </filter>
    <linearGradient id="checkboxindeterminateselected@2x-c" x1="50%" x2="50%" y1="0%" y2="100%">
      <stop offset="0%" stop-color="#2C91FC"/>
      <stop offset="100%" stop-color="#2C91FC"/>
    </linearGradient>
  </defs>
  <g fill="none" fill-rule="evenodd">
    <rect width="14" height="14" x="4" y="4" fill="#3A98FB" rx="3"/>
    <use fill="#000" filter="url(#checkboxindeterminateselected@2x-a)" xlink:href="#checkboxindeterminateselected@2x-b"/>
    <use fill="#FFF" xlink:href="#checkboxindeterminateselected@2x-b"/>
    <path fill="url(#checkboxindeterminateselected@2x-c)" d="M7.00335124,4 L14.9966488,4 C16.6576211,4 18,5.34464615 18,7.00335124 L18,14.9966488 C18,16.6576211 16.6553538,18 14.9966488,18 L7.00335124,18 C5.34237885,18 4,16.6553538 4,14.9966488 L4,7.00335124 C4,5.34237885 5.34464615,4 7.00335124,4 Z M7.00653076,4.5 C5.62221205,4.5 4.5,5.61962422 4.5,7.00653076 L4.5,14.9934692 C4.5,16.377788 5.61962422,17.5 7.00653076,17.5 L14.9934692,17.5 C16.377788,17.5 17.5,16.3803758 17.5,14.9934692 L17.5,7.00653076 C17.5,5.62221205 16.3803758,4.5 14.9934692,4.5 L7.00653076,4.5 Z"/>
  </g>
</svg>
