<svg xmlns="http://www.w3.org/2000/svg" xmlns:xlink="http://www.w3.org/1999/xlink" width="22" height="22" viewBox="0 0 22 22">
  <defs>
    <path id="checkboxselected-b" d="M9.93579616,13.0674743 L13.6542166,7.34160882 C13.8798135,6.9942201 14.3443101,6.8954883 14.6916988,7.12108517 C15.0390876,7.34668205 15.1378194,7.81117865 14.9122225,8.15856737 L10.664038,14.7001978 C10.4620409,15.0112462 10.0685123,15.1229405 9.73901399,14.9809596 C9.63843621,14.939559 9.54533233,14.8755351 9.46769184,14.7893066 L7.19264778,12.2626142 C6.9154848,11.9547935 6.94033778,11.4805706 7.24815844,11.2034076 C7.55597911,10.9262446 8.03020204,10.9510976 8.30736501,11.2589182 L9.93579616,13.0674743 Z"/>
    <filter id="checkboxselected-a" width="124.9%" height="124.9%" x="-12.4%" y="-6.2%" filterUnits="objectBoundingBox">
      <feOffset dy=".5" in="SourceAlpha" result="shadowOffsetOuter1"/>
      <feGaussianBlur in="shadowOffsetOuter1" result="shadowBlurOuter1" stdDeviation=".25"/>
      <feColorMatrix in="shadowBlurOuter1" values="0 0 0 0 0   0 0 0 0 0   0 0 0 0 0  0 0 0 0.29 0"/>
    </filter>
    <linearGradient id="checkboxselected-c" x1="50%" x2="50%" y1="0%" y2="100%">
      <stop offset="0%" stop-color="#2C91FC"/>
      <stop offset="100%" stop-color="#2C91FC"/>
    </linearGradient>
  </defs>
  <g fill="none" fill-rule="evenodd">
    <rect width="14" height="14" x="4" y="4" fill="#3A98FB" rx="3"/>
    <g fill-rule="nonzero">
      <use fill="#000" filter="url(#checkboxselected-a)" xlink:href="#checkboxselected-b"/>
      <use fill="#FFF" xlink:href="#checkboxselected-b"/>
    </g>
    <path fill="url(#checkboxselected-c)" d="M7.00335124,4 L14.9966488,4 C16.6576211,4 18,5.34464615 18,7.00335124 L18,14.9966488 C18,16.6576211 16.6553538,18 14.9966488,18 L7.00335124,18 C5.34237885,18 4,16.6553538 4,14.9966488 L4,7.00335124 C4,5.34237885 5.34464615,4 7.00335124,4 Z M7.0085302,5 C5.8992496,5 5,5.90195036 5,7.0085302 L5,14.9914698 C5,16.1007504 5.90195036,17 7.0085302,17 L14.9914698,17 C16.1007504,17 17,16.0980496 17,14.9914698 L17,7.0085302 C17,5.8992496 16.0980496,5 14.9914698,5 L7.0085302,5 Z"/>
  </g>
</svg>
