<svg xmlns="http://www.w3.org/2000/svg" xmlns:xlink="http://www.w3.org/1999/xlink" width="22" height="22" viewBox="0 0 22 22">
  <defs>
    <rect id="checkboxindeterminateselectedfocused-b" width="10" height="2" x="6" y="10" rx="1"/>
    <filter id="checkboxindeterminateselectedfocused-a" width="123%" height="230%" x="-11.5%" y="-32.5%" filterUnits="objectBoundingBox">
      <feOffset dy=".8" in="SourceAlpha" result="shadowOffsetOuter1"/>
      <feGaussianBlur in="shadowOffsetOuter1" result="shadowBlurOuter1" stdDeviation=".25"/>
      <feColorMatrix in="shadowBlurOuter1" values="0 0 0 0 0   0 0 0 0 0   0 0 0 0 0  0 0 0 0.26 0"/>
    </filter>
    <linearGradient id="checkboxindeterminateselectedfocused-c" x1="50%" x2="50%" y1="0%" y2="100%">
      <stop offset="0%" stop-color="#2C91FC"/>
      <stop offset="100%" stop-color="#2C91FC"/>
    </linearGradient>
    <path id="checkboxindeterminateselectedfocused-d" d="M1,7.00065947 C1,3.68658675 3.67653633,1 7.00065947,1 L14.9993405,1 C18.3134132,1 21,3.67653633 21,7.00065947 L21,14.9993405 C21,18.3134132 18.3234637,21 14.9993405,21 L7.00065947,21 C3.68658675,21 1,18.3234637 1,14.9993405 L1,7.00065947 Z M7.0085302,5 C5.8992496,5 5,5.90195036 5,7.0085302 L5,14.9914698 C5,16.1007504 5.90195036,17 7.0085302,17 L14.9914698,17 C16.1007504,17 17,16.0980496 17,14.9914698 L17,7.0085302 C17,5.8992496 16.0980496,5 14.9914698,5 L7.0085302,5 Z"/>
  </defs>
  <g fill="none" fill-rule="evenodd">
    <rect width="14" height="14" x="4" y="4" fill="#3A98FB" rx="3"/>
    <use fill="#000" filter="url(#checkboxindeterminateselectedfocused-a)" xlink:href="#checkboxindeterminateselectedfocused-b"/>
    <use fill="#FFF" xlink:href="#checkboxindeterminateselectedfocused-b"/>
    <path fill="url(#checkboxindeterminateselectedfocused-c)" d="M7.00335124,4 L14.9966488,4 C16.6576211,4 18,5.34464615 18,7.00335124 L18,14.9966488 C18,16.6576211 16.6553538,18 14.9966488,18 L7.00335124,18 C5.34237885,18 4,16.6553538 4,14.9966488 L4,7.00335124 C4,5.34237885 5.34464615,4 7.00335124,4 Z M7.0085302,5 C5.8992496,5 5,5.90195036 5,7.0085302 L5,14.9914698 C5,16.1007504 5.90195036,17 7.0085302,17 L14.9914698,17 C16.1007504,17 17,16.0980496 17,14.9914698 L17,7.0085302 C17,5.8992496 16.0980496,5 14.9914698,5 L7.0085302,5 Z"/>
    <use fill="#6297F6" fill-opacity=".5" fill-rule="nonzero" xlink:href="#checkboxindeterminateselectedfocused-d"/>
  </g>
</svg>
