<svg xmlns="http://www.w3.org/2000/svg" xmlns:xlink="http://www.w3.org/1999/xlink" width="17" height="21" viewBox="0 0 17 21">
  <defs>
    <rect id="comborightdisabled-a" width="17" height="21"/>
    <linearGradient id="comborightdisabled-d" x1="50%" x2="50%" y1="0%" y2="100%">
      <stop offset="0%" stop-color="#D2D2D2"/>
      <stop offset="100%" stop-color="#C3C3C3"/>
    </linearGradient>
    <rect id="comborightdisabled-c" width="84" height="21" x="-67" rx="4"/>
  </defs>
  <g fill="none" fill-rule="evenodd">
    <mask id="comborightdisabled-b" fill="#fff">
      <use xlink:href="#comborightdisabled-a"/>
    </mask>
    <g mask="url(#comborightdisabled-b)">
      <use fill="#F1F1F1" xlink:href="#comborightdisabled-c"/>
      <rect width="83" height="20" x="-66.5" y=".5" stroke="url(#comborightdisabled-d)" rx="4"/>
    </g>
    <g transform="translate(5 5)">
      <rect width="1" height="1" y="3" fill="#919191"/>
      <rect width="1" height="1" y="2" fill="#D3D3D3"/>
      <rect width="1" height="1" x="1" y="3" fill="#B3B3B3"/>
      <rect width="1" height="1" x="2" y="2" fill="#B3B3B3"/>
      <rect width="1" height="1" x="3" y="1" fill="#A0A0A0"/>
      <rect width="1" height="1" x="4" y="2" fill="#B3B3B3"/>
      <rect width="1" height="1" x="5" y="3" fill="#B3B3B3"/>
      <rect width="1" height="1" x="6" y="2" fill="#D3D3D3"/>
      <rect width="1" height="1" x="5" y="1" fill="#C7C7C9"/>
      <rect width="1" height="1" x="4" fill="#C7C7C9"/>
      <rect width="1" height="1" x="2" fill="#C7C7C9"/>
      <rect width="1" height="1" x="1" y="1" fill="#C7C7C9"/>
      <rect width="1" height="1" x="1" y="2" fill="#919191"/>
      <rect width="1" height="1" x="2" y="1" fill="#919191"/>
      <rect width="1" height="1" x="3" fill="#919191"/>
      <rect width="1" height="1" x="4" y="1" fill="#919191"/>
      <rect width="1" height="1" x="5" y="2" fill="#919191"/>
      <rect width="1" height="1" x="6" y="3" fill="#919191"/>
    </g>
    <g transform="matrix(1 0 0 -1 5 16)">
      <rect width="1" height="1" y="3" fill="#919191"/>
      <rect width="1" height="1" y="2" fill="#D3D3D3"/>
      <rect width="1" height="1" x="1" y="3" fill="#B3B3B3"/>
      <rect width="1" height="1" x="2" y="2" fill="#B3B3B3"/>
      <rect width="1" height="1" x="3" y="1" fill="#A0A0A0"/>
      <rect width="1" height="1" x="4" y="2" fill="#B3B3B3"/>
      <rect width="1" height="1" x="5" y="3" fill="#B3B3B3"/>
      <rect width="1" height="1" x="6" y="2" fill="#D3D3D3"/>
      <rect width="1" height="1" x="5" y="1" fill="#C7C7C9"/>
      <rect width="1" height="1" x="4" fill="#C7C7C9"/>
      <rect width="1" height="1" x="2" fill="#C7C7C9"/>
      <rect width="1" height="1" x="1" y="1" fill="#C7C7C9"/>
      <rect width="1" height="1" x="1" y="2" fill="#919191"/>
      <rect width="1" height="1" x="2" y="1" fill="#919191"/>
      <rect width="1" height="1" x="3" fill="#919191"/>
      <rect width="1" height="1" x="4" y="1" fill="#919191"/>
      <rect width="1" height="1" x="5" y="2" fill="#919191"/>
      <rect width="1" height="1" x="6" y="3" fill="#919191"/>
    </g>
  </g>
</svg>
