<svg xmlns="http://www.w3.org/2000/svg" xmlns:xlink="http://www.w3.org/1999/xlink" width="17" height="21" viewBox="0 0 17 21">
  <defs>
    <rect id="comboright-a" width="17" height="21"/>
    <linearGradient id="comboright-c" x1="50%" x2="50%" y1="0%" y2="100%">
      <stop offset="0%" stop-color="#68B2FA"/>
      <stop offset="100%" stop-color="#0E80FF"/>
    </linearGradient>
    <linearGradient id="comboright-e" x1="50%" x2="50%" y1="0%" y2="100%">
      <stop offset="0%" stop-color="#4BA0F8"/>
      <stop offset="100%" stop-color="#095EFF"/>
    </linearGradient>
    <rect id="comboright-d" width="65" height="21" x="-48" rx="4"/>
  </defs>
  <g fill="none" fill-rule="evenodd">
    <mask id="comboright-b" fill="#fff">
      <use xlink:href="#comboright-a"/>
    </mask>
    <g mask="url(#comboright-b)">
      <use fill="url(#comboright-c)" xlink:href="#comboright-d"/>
      <rect width="64" height="20" x="-47.5" y=".5" stroke="url(#comboright-e)" rx="4"/>
    </g>
    <g transform="translate(5 5)">
      <rect width="1" height="1" y="3" fill="#FCFDFF"/>
      <rect width="1" height="1" y="2" fill="#83BEFD"/>
      <rect width="1" height="1" x="1" y="3" fill="#BFDCFE"/>
      <rect width="1" height="1" x="2" y="2" fill="#B7DAFF"/>
      <rect width="1" height="1" x="3" y="1" fill="#E4F0FF"/>
      <rect width="1" height="1" x="4" y="2" fill="#B8DAFE"/>
      <rect width="1" height="1" x="5" y="3" fill="#BDDCFF"/>
      <rect width="1" height="1" x="6" y="2" fill="#84BFFD"/>
      <rect width="1" height="1" x="5" y="1" fill="#8FC3FB"/>
      <rect width="1" height="1" x="4" fill="#95C7FC"/>
      <rect width="1" height="1" x="2" fill="#93C8FB"/>
      <rect width="1" height="1" x="1" y="1" fill="#8FC4FB"/>
      <rect width="1" height="1" x="1" y="2" fill="#FAFEFE"/>
      <rect width="1" height="1" x="2" y="1" fill="#FDFDFE"/>
      <rect width="1" height="1" x="3" fill="#FDFDFF"/>
      <rect width="1" height="1" x="4" y="1" fill="#FEFEFF"/>
      <rect width="1" height="1" x="5" y="2" fill="#FCFCFE"/>
      <rect width="1" height="1" x="6" y="3" fill="#FBFBFF"/>
    </g>
    <g transform="matrix(1 0 0 -1 5 16)">
      <rect width="1" height="1" y="3" fill="#F8FCFF"/>
      <rect width="1" height="1" y="2" fill="#6CB1FD"/>
      <rect width="1" height="1" x="1" y="3" fill="#AFD3FF"/>
      <rect width="1" height="1" x="2" y="2" fill="#A7D1FD"/>
      <rect width="1" height="1" x="3" y="1" fill="#DEF"/>
      <rect width="1" height="1" x="4" y="2" fill="#A7D2FE"/>
      <rect width="1" height="1" x="5" y="3" fill="#ABD5FF"/>
      <rect width="1" height="1" x="6" y="2" fill="#6CB2FE"/>
      <rect width="1" height="1" x="5" y="1" fill="#72B6FE"/>
      <rect width="1" height="1" x="4" fill="#70B4FE"/>
      <rect width="1" height="1" x="2" fill="#6EB4FD"/>
      <rect width="1" height="1" x="1" y="1" fill="#6EB6FF"/>
      <rect width="1" height="1" x="1" y="2" fill="#FCFDFE"/>
      <rect width="1" height="1" x="2" y="1" fill="#FBFEFF"/>
      <rect width="1" height="1" x="3" fill="#FBFEFF"/>
      <rect width="1" height="1" x="4" y="1" fill="#FEFFFF"/>
      <rect width="1" height="1" x="5" y="2" fill="#FBFEFF"/>
      <rect width="1" height="1" x="6" y="3" fill="#F9FCFF"/>
    </g>
  </g>
</svg>
