<svg xmlns="http://www.w3.org/2000/svg" xmlns:xlink="http://www.w3.org/1999/xlink" width="17" height="21" viewBox="0 0 17 21">
  <defs>
    <rect id="comborightdisabled@2x-a" width="17" height="21"/>
    <linearGradient id="comborightdisabled@2x-b" x1="50%" x2="50%" y1="0%" y2="100%">
      <stop offset="0%" stop-color="#D2D2D2"/>
      <stop offset="100%" stop-color="#C3C3C3"/>
    </linearGradient>
  </defs>
  <g fill="none" fill-rule="evenodd">
    <mask id="comborightdisabled@2x-c" fill="#fff">
      <use xlink:href="#comborightdisabled@2x-a"/>
    </mask>
    <rect width="64.5" height="20.5" x="-47.75" y=".25" fill="#F1F1F1" stroke="url(#comborightdisabled@2x-b)" stroke-width=".5" mask="url(#comborightdisabled@2x-c)" rx="4"/>
    <path fill="#A6A6A6" fill-rule="nonzero" d="M8.25,14.0587783 L11.0232082,11.0657884 C11.2671965,10.8024635 11.6784551,10.7867882 11.94178,11.0307765 C12.2051048,11.2747649 12.2207802,11.6860235 11.9767918,11.9493483 L8.72679183,15.4569167 C8.46955187,15.7345434 8.03044813,15.7345434 7.77320817,15.4569167 L4.52320817,11.9493483 C4.27921982,11.6860235 4.29489517,11.2747649 4.55822002,11.0307765 C4.82154488,10.7867882 5.23280349,10.8024635 5.47679183,11.0657884 L8.25,14.0587783 Z M8.25,5.45635842 L5.47679183,8.44934833 C5.23280349,8.71267319 4.82154488,8.72834854 4.55822002,8.48436019 C4.29489517,8.24037185 4.27921982,7.82911324 4.52320817,7.56578838 L7.77320817,4.05822002 C8.03044813,3.78059333 8.46955187,3.78059333 8.72679183,4.05822002 L11.9767918,7.56578838 C12.2207802,7.82911324 12.2051048,8.24037185 11.94178,8.48436019 C11.6784551,8.72834854 11.2671965,8.71267319 11.0232082,8.44934833 L8.25,5.45635842 Z"/>
  </g>
</svg>
