<svg xmlns="http://www.w3.org/2000/svg" xmlns:xlink="http://www.w3.org/1999/xlink" width="27" height="27" viewBox="0 0 27 27">
  <defs>
    <circle id="helpfocused@2x-b" cx="13.5" cy="13.5" r="10"/>
    <filter id="helpfocused@2x-a" width="117.5%" height="117.5%" x="-8.8%" y="-6.2%" filterUnits="objectBoundingBox">
      <feOffset dy=".5" in="SourceAlpha" result="shadowOffsetOuter1"/>
      <feGaussianBlur in="shadowOffsetOuter1" result="shadowBlurOuter1" stdDeviation=".5"/>
      <feColorMatrix in="shadowBlurOuter1" values="0 0 0 0 0   0 0 0 0 0   0 0 0 0 0  0 0 0 0.2 0"/>
    </filter>
    <linearGradient id="helpfocused@2x-c" x1="50%" x2="50%" y1="0%" y2="100%">
      <stop offset="0%" stop-color="#CCC"/>
      <stop offset="100%" stop-color="#B2B2B2"/>
    </linearGradient>
    <path id="helpfocused@2x-d" d="M13.5,26 C6.59644063,26 1,20.4035594 1,13.5 C1,6.59644063 6.59644063,1 13.5,1 C20.4035594,1 26,6.59644063 26,13.5 C26,20.4035594 20.4035594,26 13.5,26 Z M13.5,23 C18.7467051,23 23,18.7467051 23,13.5 C23,8.25329488 18.7467051,4 13.5,4 C8.25329488,4 4,8.25329488 4,13.5 C4,18.7467051 8.25329488,23 13.5,23 Z"/>
  </defs>
  <g fill="none" fill-rule="evenodd">
    <use fill="#000" filter="url(#helpfocused@2x-a)" xlink:href="#helpfocused@2x-b"/>
    <use fill="#FFF" xlink:href="#helpfocused@2x-b"/>
    <path fill="url(#helpfocused@2x-c)" d="M13.5,23.5 C7.9771525,23.5 3.5,19.0228475 3.5,13.5 C3.5,7.9771525 7.9771525,3.5 13.5,3.5 C19.0228475,3.5 23.5,7.9771525 23.5,13.5 C23.5,19.0228475 19.0228475,23.5 13.5,23.5 Z M13.5,23 C18.7467051,23 23,18.7467051 23,13.5 C23,8.25329488 18.7467051,4 13.5,4 C8.25329488,4 4,8.25329488 4,13.5 C4,18.7467051 8.25329488,23 13.5,23 Z"/>
    <path fill="#007AFF" d="M11.9740582,11.3408876 C11.9818143,10.2852803 12.5557645,9.37988281 13.7191769,9.37988281 C14.5956143,9.37988281 15.4022469,9.92522827 15.4022469,11.0462995 C15.4022469,11.8809657 14.944638,12.2573837 14.2233223,12.8465599 C13.4322018,13.484834 12.7419105,14.1967551 12.7729348,15.3832904 L12.7806909,16.0215645 L14.2621027,16.0215645 L14.2621027,15.5469504 C14.2621027,14.6140882 14.5956143,14.3358662 15.4875638,13.607579 C16.2243917,13.0020369 17,12.3310308 17,10.9562865 C17,9.02509808 15.4565395,8 13.7967377,8 C12.2377651,8 10.4693781,8.90235306 10.5004025,11.3408876 L10.5004025,12 L11.9740582,12 L11.9740582,11.3408876 Z M12.5,17.9983262 C12.5,18.5711363 12.9682003,18.9966524 13.5431832,18.9966524 C14.1181661,18.9966524 14.5863664,18.5711363 14.5863664,17.9983262 C14.5863664,17.4255161 14.1181661,17 13.5431832,17 C12.9682003,17 12.5,17.4255161 12.5,17.9983262 L12.5,17.9983262 Z"/>
    <use fill="#6297F6" fill-opacity=".5" fill-rule="nonzero" xlink:href="#helpfocused@2x-d"/>
  </g>
</svg>
