<svg xmlns="http://www.w3.org/2000/svg" xmlns:xlink="http://www.w3.org/1999/xlink" width="22" height="22" viewBox="0 0 22 22">
  <defs>
    <circle id="radiofocused@2x-a" cx="8" cy="8" r="8"/>
    <filter id="radiofocused@2x-b" width="115.6%" height="115.6%" x="-7.8%" y="-7.8%" filterUnits="objectBoundingBox">
      <feGaussianBlur in="SourceAlpha" result="shadowBlurInner1" stdDeviation="1"/>
      <feOffset in="shadowBlurInner1" result="shadowOffsetInner1"/>
      <feComposite in="shadowOffsetInner1" in2="SourceAlpha" k2="-1" k3="1" operator="arithmetic" result="shadowInnerInner1"/>
      <feColorMatrix in="shadowInnerInner1" result="shadowMatrixInner1" values="0 0 0 0 0   0 0 0 0 0   0 0 0 0 0  0 0 0 0.1 0"/>
      <feGaussianBlur in="SourceAlpha" result="shadowBlurInner2" stdDeviation=".5"/>
      <feOffset dy="1.5" in="shadowBlurInner2" result="shadowOffsetInner2"/>
      <feComposite in="shadowOffsetInner2" in2="SourceAlpha" k2="-1" k3="1" operator="arithmetic" result="shadowInnerInner2"/>
      <feColorMatrix in="shadowInnerInner2" result="shadowMatrixInner2" values="0 0 0 0 0   0 0 0 0 0   0 0 0 0 0  0 0 0 0.15 0"/>
      <feMerge>
        <feMergeNode in="shadowMatrixInner1"/>
        <feMergeNode in="shadowMatrixInner2"/>
      </feMerge>
    </filter>
    <path id="radiofocused@2x-c" d="M11,22 C4.92486775,22 0,17.0751322 0,11 C0,4.92486775 4.92486775,0 11,0 C17.0751322,0 22,4.92486775 22,11 C22,17.0751322 17.0751322,22 11,22 Z M11,18.5 C15.1421356,18.5 18.5,15.1421356 18.5,11 C18.5,6.85786438 15.1421356,3.5 11,3.5 C6.85786438,3.5 3.5,6.85786438 3.5,11 C3.5,15.1421356 6.85786438,18.5 11,18.5 Z"/>
  </defs>
  <g fill="none" fill-rule="evenodd">
    <g transform="translate(3 3)">
      <use fill="#FFF" xlink:href="#radiofocused@2x-a"/>
      <use fill="#000" filter="url(#radiofocused@2x-b)" xlink:href="#radiofocused@2x-a"/>
      <path fill="#000" fill-opacity=".23" d="M8,16 C3.581722,16 0,12.418278 0,8 C0,3.581722 3.581722,0 8,0 C12.418278,0 16,3.581722 16,8 C16,12.418278 12.418278,16 8,16 Z M8,15.5 C12.1421356,15.5 15.5,12.1421356 15.5,8 C15.5,3.85786438 12.1421356,0.5 8,0.5 C3.85786438,0.5 0.5,3.85786438 0.5,8 C0.5,12.1421356 3.85786438,15.5 8,15.5 Z"/>
    </g>
    <use fill="#6297F6" fill-opacity=".5" fill-rule="nonzero" xlink:href="#radiofocused@2x-c"/>
  </g>
</svg>
