<svg xmlns="http://www.w3.org/2000/svg" width="17" height="21" viewBox="0 0 17 21">
  <defs>
    <linearGradient id="spinnerright@2x-a" x1="50%" x2="50%" y1="0%" y2="100%">
      <stop offset="0%" stop-color="#6BB4FA"/>
      <stop offset="100%" stop-color="#057EFF"/>
    </linearGradient>
    <linearGradient id="spinnerright@2x-b" x1="50%" x2="50%" y1="0%" y2="100%">
      <stop offset="0%" stop-color="#4CA2F8"/>
      <stop offset="100%" stop-color="#025BFF"/>
    </linearGradient>
  </defs>
  <g fill="none" fill-rule="evenodd">
    <path fill="url(#spinnerright@2x-a)" stroke="url(#spinnerright@2x-b)" stroke-width=".5" d="M0.25,0.25 L0.25,20.75 L13.0001592,20.75 C15.0756006,20.75 16.75,19.0737986 16.75,17.0006308 L16.75,3.99936922 C16.75,1.92857227 15.071192,0.25 13.0001592,0.25 L0.25,0.25 Z"/>
    <rect width="6.5" height="1.5" x="5" y="6" fill="#ADD5FD"/>
    <rect width="1.5" height="6.5" x="7.5" y="3.5" fill="#ADD5FD"/>
    <path fill="#FFF" d="M8.5,6.5 L11,6.5 L11,7 L8.5,7 L8.5,9.5 L8,9.5 L8,7 L5.5,7 L5.5,6.5 L8,6.5 L8,4 L8.5,4 L8.5,6.5 Z"/>
    <g transform="translate(5 14)">
      <rect width="6.5" height="1.5" y=".5" fill="#90C5FE"/>
      <path fill="#FFF" d="M0.5,1 L6,1 L6,1.5 L0.5,1.5 L0.5,1 Z"/>
    </g>
  </g>
</svg>
