<svg width="16" height="16" viewBox="0 0 16 16" fill="none" xmlns="http://www.w3.org/2000/svg">
<circle cx="12.5" cy="12.5" r="3.5" fill="#DB5C5C"/>
<path d="M12.5 10C12.2239 10 12 10.2239 12 10.5V12.5C12 12.7761 12.2239 13 12.5 13C12.7761 13 13 12.7761 13 12.5V10.5C13 10.2239 12.7761 10 12.5 10Z" fill="white"/>
<path d="M12.5 15C12.7761 15 13 14.7761 13 14.5C13 14.2239 12.7761 14 12.5 14C12.2239 14 12 14.2239 12 14.5C12 14.7761 12.2239 15 12.5 15Z" fill="white"/>
<path fill-rule="evenodd" clip-rule="evenodd" d="M4 11.5C4.93173 11.5 5.71236 12.1376 5.93457 13H8.02832L8 14L5.93457 14C5.7123 14.8622 4.93166 15.5 4 15.5C2.89548 15.5 2.00008 14.6045 2 13.5C2 12.3954 2.89543 11.5 4 11.5ZM4 12.5C3.44772 12.5 3 12.9477 3 13.5C3.00008 14.0522 3.44776 14.5 4 14.5C4.55224 14.5 4.99992 14.0522 5 13.5C5 12.9477 4.55228 12.5 4 12.5Z" fill="#6F737A"/>
<path d="M11.1465 1.14644C11.3417 0.951189 11.6583 0.951183 11.8535 1.14644L13.8535 3.14644C14.0487 3.34171 14.0487 3.65823 13.8535 3.85347L11.8535 5.85347C11.6583 6.04867 11.3417 6.04865 11.1465 5.85347C10.9512 5.65823 10.9513 5.34171 11.1465 5.14644L12.293 3.99996H5C3.89543 3.99996 3 4.89539 3 5.99996C3.00008 7.10446 3.89548 7.99996 5 7.99996H9.5C9.77614 7.99996 10 8.22381 10 8.49996C10 8.7761 9.77614 8.99996 9.5 8.99996H5C3.34319 8.99996 2.00008 7.65675 2 5.99996C2 4.3431 3.34315 2.99996 5 2.99996H12.293L11.1465 1.85347C10.9512 1.65823 10.9513 1.34171 11.1465 1.14644Z" fill="#6F737A"/>
</svg>
