<svg width="16" height="16" viewBox="0 0 16 16" fill="none" xmlns="http://www.w3.org/2000/svg">
<path fill-rule="evenodd" clip-rule="evenodd" d="M11.1465 1.14644C11.3417 0.951189 11.6583 0.951183 11.8535 1.14644L13.8535 3.14644C14.0487 3.3417 14.0488 3.65822 13.8535 3.85347L11.8535 5.85347C11.6583 6.04873 11.3417 6.04871 11.1465 5.85347C10.9512 5.65821 10.9512 5.3417 11.1465 5.14644L12.293 3.99996H5C3.89543 3.99996 3 4.89539 3 5.99996C3.00003 7.1045 3.89545 7.99996 5 7.99996H11C12.6569 7.99996 14 9.3431 14 11C14 12.6568 12.6568 14 11 14H5.93457C5.71233 14.8622 4.93169 15.5 4 15.5C2.89545 15.5 2.00003 14.6045 2 13.5C2 12.3954 2.89543 11.5 4 11.5C4.93173 11.5 5.71236 12.1376 5.93457 13H11C12.1046 13 13 12.1045 13 11C13 9.89539 12.1046 8.99996 11 8.99996H5C3.34317 8.99996 2.00003 7.65679 2 5.99996C2 4.3431 3.34315 2.99996 5 2.99996H12.293L11.1465 1.85347C10.9512 1.65821 10.9512 1.3417 11.1465 1.14644ZM4 12.5C3.44772 12.5 3 12.9477 3 13.5C3.00003 14.0522 3.44773 14.5 4 14.5C4.55227 14.5 4.99997 14.0522 5 13.5C5 12.9477 4.55228 12.5 4 12.5Z" fill="#CED0D6"/>
</svg>
