<svg width="20" height="20" viewBox="0 0 20 20" fill="none" xmlns="http://www.w3.org/2000/svg">
<path d="M14.9167 19.3334L19.3333 7.66671L9 5.33337L14.9167 19.3334Z" fill="url(#paint0_linear_2108_61173)"/>
<path d="M2.5 16.0834L19.3333 7.66675L8.41667 5.16675L2.5 16.0834Z" fill="url(#paint1_linear_2108_61173)"/>
<path d="M19.3333 15.6667L14.9167 19.3334L8.75 17.75L19.3333 15.6667Z" fill="url(#paint2_linear_2108_61173)"/>
<path d="M8.75 17.75L14.9167 19.3334L16.0833 16.3334L8.75 17.75Z" fill="url(#paint3_linear_2108_61173)"/>
<path d="M3 9.25002L1 3.50002L10.9167 0.666687L3 9.25002Z" fill="url(#paint4_linear_2108_61173)"/>
<path d="M3 9.25006L1 3.50006L6.91667 4.83339L3 9.25006Z" fill="url(#paint5_linear_2108_61173)"/>
<path d="M17.0001 11.5L10.9167 0.666687L0.666748 11.75V19.3334L19.3334 15.6667L17.0001 11.5Z" fill="url(#paint6_linear_2108_61173)"/>
<path d="M17.0001 11.5L10.9167 0.666687L0.666748 19.3334L19.3334 15.6667L17.0001 11.5Z" fill="url(#paint7_linear_2108_61173)"/>
<path d="M17.0001 11.5L10.9167 0.666687L0.666748 19.3334L19.3334 15.6667L17.0001 11.5Z" fill="url(#paint8_linear_2108_61173)"/>
<path d="M8.41675 5.08337L2.41675 16.0834L8.75008 17.75L19.3334 15.6667L12.7501 11L11.8334 5.83337L8.41675 5.08337Z" fill="url(#paint9_linear_2108_61173)"/>
<path d="M2.5 16.0834L12.75 11L10.9167 0.666687L8.41667 5.16669L2.5 16.0834Z" fill="url(#paint10_linear_2108_61173)"/>
<path d="M1.00008 3.50006L5.00008 7.00006L0.666748 11.7501V19.3334L8.41675 5.08339L1.00008 3.50006Z" fill="url(#paint11_linear_2108_61173)"/>
<path d="M0.666748 11.75L2.50008 16.0833L4.16675 13L0.666748 11.75Z" fill="#108EFF"/>
<path d="M0.666748 19.3334L4.16675 13.0001L2.91675 9.16675L0.666748 11.7501V19.3334Z" fill="url(#paint12_linear_2108_61173)"/>
<path d="M0.666748 19.3334L4.16675 13.0001L2.91675 9.16675L0.666748 11.7501V19.3334Z" fill="url(#paint13_linear_2108_61173)"/>
<path d="M0.666748 19.3333L4.16675 13L0.666748 11.75V19.3333Z" fill="url(#paint14_linear_2108_61173)"/>
<path d="M1 3.50002L8.41667 5.08335L10.9167 0.666687L1 3.50002Z" fill="url(#paint15_linear_2108_61173)"/>
<path d="M15.8334 4.16669H4.16675V15.8334H15.8334V4.16669Z" fill="url(#paint16_linear_2108_61173)"/>
<path d="M10.8333 13.3333H5.83325V14.1666H10.8333V13.3333Z" fill="white"/>
<path d="M7.18616 5.8457H8.2375L10.3402 10.9112H9.19326L8.71538 9.76431H6.61271L6.13483 10.9112H5.0835L7.18616 5.8457ZM8.33308 8.80856L7.66404 7.18377L6.99501 8.80856H8.33308Z" fill="white"/>
<path d="M10.4358 8.42612C10.4358 6.99249 11.4871 5.75 13.1119 5.75C14.0677 5.75 14.6411 6.03673 15.119 6.51461L14.45 7.37479C13.9721 7.08806 13.5898 6.80133 13.1119 6.80133C12.2517 6.80133 11.6783 7.47037 11.6783 8.33055C11.6783 9.19073 12.2517 9.95534 13.1119 9.95534C13.6854 9.95534 14.0677 9.76419 14.45 9.38188L15.119 10.0509C14.6411 10.6244 14.0677 10.9111 13.0163 10.9111C11.5827 11.0067 10.4358 9.85976 10.4358 8.42612Z" fill="white"/>
<defs>
<linearGradient id="paint0_linear_2108_61173" x1="9.0135" y1="12.3313" x2="19.375" y2="12.3313" gradientUnits="userSpaceOnUse">
<stop offset="0.0559607" stop-color="#0816FA"/>
<stop offset="0.2842" stop-color="#0855FA"/>
<stop offset="0.9032" stop-color="#087CFA"/>
</linearGradient>
<linearGradient id="paint1_linear_2108_61173" x1="5.78575" y1="10.646" x2="22.6269" y2="10.646" gradientUnits="userSpaceOnUse">
<stop offset="0.0113887" stop-color="#07C3F2" stop-opacity="0.4"/>
<stop offset="0.1874" stop-color="#07BFF2" stop-opacity="0.5373"/>
<stop offset="0.375" stop-color="#07B2F4" stop-opacity="0.6836"/>
<stop offset="0.5679" stop-color="#089DF6" stop-opacity="0.834"/>
<stop offset="0.7634" stop-color="#087FFA" stop-opacity="0.9864"/>
<stop offset="0.7808" stop-color="#087CFA"/>
</linearGradient>
<linearGradient id="paint2_linear_2108_61173" x1="8.71992" y1="17.5128" x2="19.3205" y2="17.5128" gradientUnits="userSpaceOnUse">
<stop offset="0.2317" stop-color="#07C3F2"/>
<stop offset="0.3514" stop-color="#07BCF2"/>
<stop offset="0.5222" stop-color="#07AAF4"/>
<stop offset="0.7236" stop-color="#088BF6"/>
<stop offset="0.9467" stop-color="#0860F9"/>
<stop offset="1" stop-color="#0855FA"/>
</linearGradient>
<linearGradient id="paint3_linear_2108_61173" x1="8.71992" y1="17.8306" x2="16.1153" y2="17.8306" gradientUnits="userSpaceOnUse">
<stop offset="0.1935" stop-color="#20C9F3"/>
<stop offset="1" stop-color="#087CFA"/>
</linearGradient>
<linearGradient id="paint4_linear_2108_61173" x1="0.966167" y1="4.91844" x2="10.9133" y2="4.91844" gradientUnits="userSpaceOnUse">
<stop offset="0.1935" stop-color="#07C3F2"/>
<stop offset="0.9032" stop-color="#087CFA"/>
</linearGradient>
<linearGradient id="paint5_linear_2108_61173" x1="0.44275" y1="6.74356" x2="3.95475" y2="5.86556" gradientUnits="userSpaceOnUse">
<stop stop-color="#07C3F2"/>
<stop offset="0.8559" stop-color="#087CFA"/>
</linearGradient>
<linearGradient id="paint6_linear_2108_61173" x1="12.9121" y1="19.9646" x2="3.62591" y2="7.00477" gradientUnits="userSpaceOnUse">
<stop offset="0.0913979" stop-color="#21D789"/>
<stop offset="0.4839" stop-color="#07C3F2"/>
<stop offset="0.9032" stop-color="#087CFA"/>
</linearGradient>
<linearGradient id="paint7_linear_2108_61173" x1="14.6967" y1="20.5913" x2="2.24425" y2="5.81252" gradientUnits="userSpaceOnUse">
<stop offset="0.0353052" stop-color="#50FC9B"/>
<stop offset="0.2378" stop-color="#21D789"/>
<stop offset="0.467" stop-color="#07C3F2"/>
<stop offset="0.8507" stop-color="#087CFA"/>
<stop offset="1" stop-color="#0855FA"/>
</linearGradient>
<linearGradient id="paint8_linear_2108_61173" x1="10.431" y1="12.9626" x2="3.03675" y2="20.5696" gradientUnits="userSpaceOnUse">
<stop offset="0.1423" stop-color="#07C3F2" stop-opacity="0"/>
<stop offset="0.7442" stop-color="#00D4FF"/>
<stop offset="0.9705" stop-color="#36FFFF"/>
</linearGradient>
<linearGradient id="paint9_linear_2108_61173" x1="16.0115" y1="21.5058" x2="4.48783" y2="7.82937" gradientUnits="userSpaceOnUse">
<stop offset="0.1027" stop-color="#07C3F2" stop-opacity="0"/>
<stop offset="1" stop-color="#087CFA"/>
</linearGradient>
<linearGradient id="paint10_linear_2108_61173" x1="4.78875" y1="7.16777" x2="16.7825" y2="14.6028" gradientUnits="userSpaceOnUse">
<stop offset="0.0556783" stop-color="#07C3F2" stop-opacity="0"/>
<stop offset="1" stop-color="#087CFA"/>
</linearGradient>
<linearGradient id="paint11_linear_2108_61173" x1="10.6997" y1="16.4073" x2="0.319998" y2="9.40098" gradientUnits="userSpaceOnUse">
<stop offset="0.4839" stop-color="#00E1F2"/>
<stop offset="1" stop-color="#078CF9"/>
</linearGradient>
<linearGradient id="paint12_linear_2108_61173" x1="-1.05475" y1="12.5254" x2="5.83233" y2="16.7947" gradientUnits="userSpaceOnUse">
<stop offset="0.0556783" stop-color="#087CFA" stop-opacity="0.4"/>
<stop offset="0.3766" stop-color="#05D7ED" stop-opacity="0.72"/>
<stop offset="0.7897" stop-color="#54FF80"/>
</linearGradient>
<linearGradient id="paint13_linear_2108_61173" x1="-1.05475" y1="12.5254" x2="5.83233" y2="16.7947" gradientUnits="userSpaceOnUse">
<stop offset="0.0556783" stop-color="#087CFA" stop-opacity="0.4"/>
<stop offset="0.3766" stop-color="#05D7ED" stop-opacity="0.72"/>
<stop offset="0.7897" stop-color="#54FF80"/>
</linearGradient>
<linearGradient id="paint14_linear_2108_61173" x1="-0.647668" y1="12.3467" x2="2.9425" y2="16.8942" gradientUnits="userSpaceOnUse">
<stop offset="0.0556783" stop-color="#087CFA" stop-opacity="0.5"/>
<stop offset="0.7897" stop-color="#07C3F2" stop-opacity="0"/>
</linearGradient>
<linearGradient id="paint15_linear_2108_61173" x1="12.0404" y1="-0.570979" x2="3.66033" y2="5.01577" gradientUnits="userSpaceOnUse">
<stop offset="0.1536" stop-color="#00FAFF"/>
<stop offset="0.4839" stop-color="#07C3F2"/>
<stop offset="0.9947" stop-color="#087CFA"/>
</linearGradient>
<linearGradient id="paint16_linear_2108_61173" x1="3.76593" y1="3.74533" x2="14.9561" y2="14.9723" gradientUnits="userSpaceOnUse">
<stop stop-color="#006396"/>
<stop offset="0.0339724" stop-color="#005682"/>
<stop offset="0.121" stop-color="#003754"/>
<stop offset="0.2043" stop-color="#001F2F"/>
<stop offset="0.2818" stop-color="#000E15"/>
<stop offset="0.3512" stop-color="#000406"/>
<stop offset="0.4058"/>
<stop offset="0.9138"/>
</linearGradient>
</defs>
</svg>
