<svg width="48" height="48" viewBox="0 0 48 48" fill="none" xmlns="http://www.w3.org/2000/svg">
<path d="M35.9001 46.5L46.5001 18.4L21.6001 12.7L35.9001 46.5Z" fill="url(#paint0_linear_2108_61171)"/>
<path d="M6.1001 38.7L46.5001 18.4L20.3001 12.4L6.1001 38.7Z" fill="url(#paint1_linear_2108_61171)"/>
<path d="M46.3999 37.6L35.8999 46.5L20.8999 42.6L46.3999 37.6Z" fill="url(#paint2_linear_2108_61171)"/>
<path d="M20.8999 42.6L35.8999 46.5L38.6999 39.1L20.8999 42.6Z" fill="url(#paint3_linear_2108_61171)"/>
<path d="M7.10005 22.1L2.30005 8.4L26.2001 1.5L7.10005 22.1Z" fill="url(#paint4_linear_2108_61171)"/>
<path d="M7.10005 22.1L2.30005 8.40002L16.6 11.6L7.10005 22.1Z" fill="url(#paint5_linear_2108_61171)"/>
<path d="M40.8 27.5L26.2 1.5L1.5 28.2V46.5L46.4 37.6L40.8 27.5Z" fill="url(#paint6_linear_2108_61171)"/>
<path d="M40.8 27.5L26.2 1.5L1.5 46.5L46.4 37.6L40.8 27.5Z" fill="url(#paint7_linear_2108_61171)"/>
<path d="M40.8 27.5L26.2 1.5L1.5 46.5L46.4 37.6L40.8 27.5Z" fill="url(#paint8_linear_2108_61171)"/>
<path d="M20.3 12.3L5.80005 38.6L20.9 42.6L46.4001 37.6L30.5 26.4L28.4 14L20.3 12.3Z" fill="url(#paint9_linear_2108_61171)"/>
<path d="M6.1001 38.7L30.5001 26.4L26.2001 1.5L20.3001 12.4L6.1001 38.7Z" fill="url(#paint10_linear_2108_61171)"/>
<path d="M2.3 8.40002L11.9 16.8L1.5 28.2V46.5L20.3 12.3L2.3 8.40002Z" fill="url(#paint11_linear_2108_61171)"/>
<path d="M1.5 28.2L5.9 38.7L10 31.2L1.5 28.2Z" fill="#108EFF"/>
<path d="M1.5 46.5L9.9 31.2L7.1 22.1L1.5 28.2V46.5Z" fill="url(#paint12_linear_2108_61171)"/>
<path d="M1.5 46.5L9.9 31.2L7.1 22.1L1.5 28.2V46.5Z" fill="url(#paint13_linear_2108_61171)"/>
<path d="M1.5 46.5L9.9 31.2L1.5 28.2V46.5Z" fill="url(#paint14_linear_2108_61171)"/>
<path d="M2.30005 8.4L20.3 12.3L26.2001 1.5L2.30005 8.4Z" fill="url(#paint15_linear_2108_61171)"/>
<path d="M38 10H10V38H38V10Z" fill="url(#paint16_linear_2108_61171)"/>
<g opacity="0.3">
<path opacity="0.3" d="M30.9 10H27.7L30.5 26.4L10 36.7V38H38V22.7L30.9 10Z" fill="url(#paint17_linear_2108_61171)"/>
<path opacity="0.3" d="M34 15.6L30.9 10H27.7L28.4 14.4L34 15.6Z" fill="url(#paint18_linear_2108_61171)"/>
<path opacity="0.3" d="M34 15.6L38 22.7V16.5L34 15.6Z" fill="url(#paint19_linear_2108_61171)"/>
<path opacity="0.3" d="M33.9999 15.6L28.3999 14.4L30.4999 26.4L37.9999 22.7L33.9999 15.6Z" fill="url(#paint20_linear_2108_61171)"/>
<path opacity="0.3" d="M20.3 12.5L10 31.5V36.7L30.5 26.4L27.7 10H21.6L20.3 12.5Z" fill="url(#paint21_linear_2108_61171)"/>
<path opacity="0.3" d="M10 31.9L21.8 10H10V15.1L12 16.8L10 19V31.9Z" fill="url(#paint22_linear_2108_61171)"/>
<path opacity="0.3" d="M18.4 10H10V19.1L18.4 10Z" fill="url(#paint23_linear_2108_61171)"/>
</g>
<path d="M24 32.7H13.5V34.4H24V32.7Z" fill="white"/>
<path d="M17.3574 13.3979H19.4376L23.8951 23.7989H21.5178L20.5272 21.5206H16.1688L15.1782 23.7989H12.8999L17.3574 13.3979ZM19.7348 19.4404L18.348 16.0725L17.0603 19.4404H19.7348Z" fill="white"/>
<path d="M24.0933 18.648C24.0933 15.6763 26.3716 13.1999 29.5414 13.1999C31.5225 13.1999 32.7112 13.8933 33.7017 14.7848L32.2159 16.4687C31.4234 15.7754 30.631 15.2801 29.5414 15.2801C27.7583 15.2801 26.4706 16.7659 26.4706 18.5489C26.4706 20.3319 27.7583 21.8178 29.5414 21.8178C30.73 21.8178 31.5225 21.3225 32.3149 20.6291L33.8008 22.1149C32.7112 23.3036 31.5225 23.997 29.5414 23.997C26.3716 24.0961 24.0933 21.6197 24.0933 18.648Z" fill="white"/>
<defs>
<linearGradient id="paint0_linear_2108_61171" x1="21.6326" y1="29.5949" x2="46.5001" y2="29.5949" gradientUnits="userSpaceOnUse">
<stop offset="0.0559607" stop-color="#0816FA"/>
<stop offset="0.2842" stop-color="#0855FA"/>
<stop offset="0.9032" stop-color="#087CFA"/>
</linearGradient>
<linearGradient id="paint1_linear_2108_61171" x1="13.886" y1="25.5501" x2="54.3047" y2="25.5501" gradientUnits="userSpaceOnUse">
<stop offset="0.0113887" stop-color="#07C3F2" stop-opacity="0.4"/>
<stop offset="0.1874" stop-color="#07BFF2" stop-opacity="0.5373"/>
<stop offset="0.375" stop-color="#07B2F4" stop-opacity="0.6836"/>
<stop offset="0.5679" stop-color="#089DF6" stop-opacity="0.834"/>
<stop offset="0.7634" stop-color="#087FFA" stop-opacity="0.9864"/>
<stop offset="0.7808" stop-color="#087CFA"/>
</linearGradient>
<linearGradient id="paint2_linear_2108_61171" x1="20.9277" y1="42.0305" x2="46.3691" y2="42.0305" gradientUnits="userSpaceOnUse">
<stop offset="0.2317" stop-color="#07C3F2"/>
<stop offset="0.3514" stop-color="#07BCF2"/>
<stop offset="0.5222" stop-color="#07AAF4"/>
<stop offset="0.7236" stop-color="#088BF6"/>
<stop offset="0.9467" stop-color="#0860F9"/>
<stop offset="1" stop-color="#0855FA"/>
</linearGradient>
<linearGradient id="paint3_linear_2108_61171" x1="20.9277" y1="42.7935" x2="38.6768" y2="42.7935" gradientUnits="userSpaceOnUse">
<stop offset="0.1935" stop-color="#20C9F3"/>
<stop offset="1" stop-color="#087CFA"/>
</linearGradient>
<linearGradient id="paint4_linear_2108_61171" x1="2.31895" y1="11.8042" x2="26.1921" y2="11.8042" gradientUnits="userSpaceOnUse">
<stop offset="0.1935" stop-color="#07C3F2"/>
<stop offset="0.9032" stop-color="#087CFA"/>
</linearGradient>
<linearGradient id="paint5_linear_2108_61171" x1="1.06265" y1="16.1845" x2="9.49145" y2="14.0773" gradientUnits="userSpaceOnUse">
<stop stop-color="#07C3F2"/>
<stop offset="0.8559" stop-color="#087CFA"/>
</linearGradient>
<linearGradient id="paint6_linear_2108_61171" x1="30.9888" y1="47.915" x2="8.702" y2="16.8115" gradientUnits="userSpaceOnUse">
<stop offset="0.0913979" stop-color="#21D789"/>
<stop offset="0.4839" stop-color="#07C3F2"/>
<stop offset="0.9032" stop-color="#087CFA"/>
</linearGradient>
<linearGradient id="paint7_linear_2108_61171" x1="35.2719" y1="49.4189" x2="5.386" y2="13.9499" gradientUnits="userSpaceOnUse">
<stop offset="0.0353052" stop-color="#50FC9B"/>
<stop offset="0.2378" stop-color="#21D789"/>
<stop offset="0.467" stop-color="#07C3F2"/>
<stop offset="0.8507" stop-color="#087CFA"/>
<stop offset="1" stop-color="#0855FA"/>
</linearGradient>
<linearGradient id="paint8_linear_2108_61171" x1="25.0341" y1="31.1102" x2="7.288" y2="49.367" gradientUnits="userSpaceOnUse">
<stop offset="0.1423" stop-color="#07C3F2" stop-opacity="0"/>
<stop offset="0.7442" stop-color="#00D4FF"/>
<stop offset="0.9705" stop-color="#36FFFF"/>
</linearGradient>
<linearGradient id="paint9_linear_2108_61171" x1="38.4274" y1="51.6138" x2="10.7706" y2="18.7903" gradientUnits="userSpaceOnUse">
<stop offset="0.1027" stop-color="#07C3F2" stop-opacity="0"/>
<stop offset="1" stop-color="#087CFA"/>
</linearGradient>
<linearGradient id="paint10_linear_2108_61171" x1="11.4931" y1="17.2025" x2="40.2782" y2="35.0467" gradientUnits="userSpaceOnUse">
<stop offset="0.0556783" stop-color="#07C3F2" stop-opacity="0"/>
<stop offset="1" stop-color="#087CFA"/>
</linearGradient>
<linearGradient id="paint11_linear_2108_61171" x1="25.6793" y1="39.3775" x2="0.767799" y2="22.5622" gradientUnits="userSpaceOnUse">
<stop offset="0.4839" stop-color="#00E1F2"/>
<stop offset="1" stop-color="#078CF9"/>
</linearGradient>
<linearGradient id="paint12_linear_2108_61171" x1="-2.5316" y1="30.0608" x2="13.9974" y2="40.3073" gradientUnits="userSpaceOnUse">
<stop offset="0.0556783" stop-color="#087CFA" stop-opacity="0.4"/>
<stop offset="0.3766" stop-color="#05D7ED" stop-opacity="0.72"/>
<stop offset="0.7897" stop-color="#54FF80"/>
</linearGradient>
<linearGradient id="paint13_linear_2108_61171" x1="-2.5316" y1="30.0608" x2="13.9974" y2="40.3073" gradientUnits="userSpaceOnUse">
<stop offset="0.0556783" stop-color="#087CFA" stop-opacity="0.4"/>
<stop offset="0.3766" stop-color="#05D7ED" stop-opacity="0.72"/>
<stop offset="0.7897" stop-color="#54FF80"/>
</linearGradient>
<linearGradient id="paint14_linear_2108_61171" x1="-1.5547" y1="29.632" x2="7.0618" y2="40.5461" gradientUnits="userSpaceOnUse">
<stop offset="0.0556783" stop-color="#087CFA" stop-opacity="0.5"/>
<stop offset="0.7897" stop-color="#07C3F2" stop-opacity="0"/>
</linearGradient>
<linearGradient id="paint15_linear_2108_61171" x1="28.897" y1="-1.3704" x2="8.78495" y2="12.0378" gradientUnits="userSpaceOnUse">
<stop offset="0.1536" stop-color="#00FAFF"/>
<stop offset="0.4839" stop-color="#07C3F2"/>
<stop offset="0.9947" stop-color="#087CFA"/>
</linearGradient>
<linearGradient id="paint16_linear_2108_61171" x1="9.03805" y1="8.98873" x2="35.8944" y2="35.9334" gradientUnits="userSpaceOnUse">
<stop stop-color="#006396"/>
<stop offset="0.0339724" stop-color="#005682"/>
<stop offset="0.121" stop-color="#003754"/>
<stop offset="0.2043" stop-color="#001F2F"/>
<stop offset="0.2818" stop-color="#000E15"/>
<stop offset="0.3512" stop-color="#000406"/>
<stop offset="0.4058"/>
<stop offset="0.9138"/>
</linearGradient>
<linearGradient id="paint17_linear_2108_61171" x1="12.0996" y1="39.9196" x2="38.7584" y2="19.4426" gradientUnits="userSpaceOnUse">
<stop offset="0.00370455" stop-color="#08244E"/>
<stop offset="1" stop-color="#02C963"/>
</linearGradient>
<linearGradient id="paint18_linear_2108_61171" x1="34.7516" y1="12.1234" x2="24.6982" y2="13.9092" gradientUnits="userSpaceOnUse">
<stop stop-color="#07C3F2"/>
<stop offset="0.8559" stop-color="#087CFA"/>
</linearGradient>
<linearGradient id="paint19_linear_2108_61171" x1="37.2017" y1="21.9889" x2="35.5147" y2="13.5938" gradientUnits="userSpaceOnUse">
<stop stop-color="#032850"/>
<stop offset="0.8559" stop-color="#087CFA"/>
</linearGradient>
<linearGradient id="paint20_linear_2108_61171" x1="26.9438" y1="17.9192" x2="33.6247" y2="21.8127" gradientUnits="userSpaceOnUse">
<stop offset="0.0254164" stop-color="#0791F2"/>
<stop offset="1" stop-color="#087CFA"/>
</linearGradient>
<linearGradient id="paint21_linear_2108_61171" x1="14.3834" y1="13.3597" x2="21.8607" y2="30.1726" gradientUnits="userSpaceOnUse">
<stop offset="0.0556783" stop-color="#07C3F2"/>
<stop offset="1" stop-color="#0845BD"/>
</linearGradient>
<linearGradient id="paint22_linear_2108_61171" x1="24.8333" y1="26.9853" x2="10.0266" y2="16.9908" gradientUnits="userSpaceOnUse">
<stop offset="0.2837" stop-color="#087CFA"/>
<stop offset="1" stop-color="#078CF9"/>
</linearGradient>
<linearGradient id="paint23_linear_2108_61171" x1="6.5568" y1="15.3994" x2="13.2184" y2="13.7339" gradientUnits="userSpaceOnUse">
<stop stop-color="#07C3F2"/>
<stop offset="0.8559" stop-color="#087CFA"/>
</linearGradient>
</defs>
</svg>
