<!-- Copyright 2000-2024 JetBrains s.r.o. and contributors. Use of this source code is governed by the Apache 2.0 license. -->
<svg width="24" height="24" viewBox="0 0 24 24" fill="none" xmlns="http://www.w3.org/2000/svg">
<g clip-path="url(#clip0_3917_59471)">
<path d="M0 1.52727V14.2654C0 14.8763 0.364145 15.4285 0.925527 15.6692L14.9845 21.6947C15.1745 21.7761 15.3794 21.8182 15.5863 21.8182H22.4727C23.3162 21.8182 24 21.1344 24 20.2909V13.5537C24 13.2519 23.9105 12.9569 23.743 12.7058L15.7169 0.680073C15.4335 0.255491 14.957 0.000654545 14.4467 0.000654545L1.52727 0C0.683782 0 0 0.683782 0 1.52727Z" fill="url(#paint0_linear_3917_59471)"/>
<path d="M2.18359 18.556V22.4734C2.18359 23.3169 2.86738 24.0007 3.71087 24.0007H8.62061C8.69283 24.0007 8.76505 23.9954 8.83661 23.9854L22.6905 22.0065C23.443 21.8989 24.0018 21.2546 24.0018 20.4945V14.6171C24.0018 13.7734 23.3178 13.0896 22.4741 13.0898L15.5221 13.0916C15.3581 13.0916 15.1951 13.118 15.0395 13.1699L3.22781 17.1072C2.60425 17.3152 2.18359 17.8988 2.18359 18.5562V18.556Z" fill="url(#paint1_linear_3917_59471)"/>
<path d="M2.18359 18.0197L2.18425 22.473C2.18425 23.3165 2.86803 24 3.71152 24H8.0265C8.47225 24 8.89596 23.8052 9.18614 23.4668L21.4523 9.15626C21.6895 8.87939 21.82 8.5268 21.82 8.16222V3.70891C21.82 2.86542 21.1362 2.18164 20.2927 2.18164H15.977C15.5313 2.18164 15.1076 2.37648 14.8174 2.71488L2.55145 17.0254C2.31407 17.3023 2.18381 17.6549 2.18381 18.0197H2.18359Z" fill="#00D886"/>
<path d="M20 4H4V20H20V4Z" fill="black"/>
<path d="M7.3485 11.7758C7.67238 11.9607 8.02324 12.0773 8.39764 12.1339L8.3981 12.2078C8.3981 12.4585 8.4493 12.6773 8.5517 12.8585C8.65684 13.0453 8.80633 13.1893 8.9997 13.2853C9.19604 13.3865 9.42347 13.44 9.68244 13.44H10.6424V12.576H9.91284C9.82187 12.576 9.74507 12.5602 9.68244 12.528C9.61981 12.496 9.57158 12.448 9.5373 12.384C9.50324 12.32 9.4861 12.2453 9.4861 12.1547V12.1209C9.83444 12.0603 10.1618 11.9493 10.4632 11.776C10.9298 11.504 11.2952 11.136 11.5597 10.6667C11.8242 10.192 11.9565 9.66926 11.9565 9.088C11.9565 8.50674 11.8242 7.984 11.5597 7.51451C11.2952 7.04 10.9295 6.672 10.4632 6.40526C9.99947 6.13326 9.48038 6 8.90598 6C8.33158 6 7.81524 6.13326 7.34873 6.40526C6.88518 6.672 6.5197 7.04 6.25227 7.51451C5.98781 7.984 5.85547 8.50651 5.85547 9.088C5.85547 9.66949 5.98781 10.192 6.25227 10.6667C6.5197 11.136 6.88518 11.504 7.34873 11.776L7.3485 11.7758ZM7.28884 8.03177C7.4509 7.71177 7.67284 7.46651 7.95444 7.29029C8.23878 7.11429 8.55741 7.02354 8.9101 7.02354C9.26278 7.02354 9.58004 7.11406 9.86164 7.29029C10.1432 7.46629 10.3636 7.71154 10.5229 8.03177C10.6822 8.34103 10.7618 8.69303 10.7618 9.08777C10.7618 9.48251 10.682 9.83429 10.5229 10.149C10.3636 10.4635 10.1432 10.709 9.86164 10.8903C9.58004 11.0663 9.26278 11.1515 8.9101 11.1515C8.55741 11.1515 8.23878 11.0663 7.95444 10.8903C7.67284 10.7088 7.4509 10.4635 7.28884 10.149C7.12953 9.83429 7.04998 9.48229 7.04998 9.08777C7.04998 8.69326 7.12953 8.34103 7.28884 8.03177Z" fill="white"/>
<path d="M15.4879 6.10156H14.2251L12.0703 12.0748H13.2692L13.7215 10.6883H16.0468L16.5288 12.0748H17.7021L15.4877 6.10156H15.4879ZM13.9988 9.78705L14.7583 7.50979L14.8436 7.13105L14.9332 7.50979L15.7396 9.78705H13.9988Z" fill="white"/>
<path d="M12 17H6V18H12V17Z" fill="white"/>
</g>
<defs>
<linearGradient id="paint0_linear_3917_59471" x1="22.507" y1="22.4166" x2="0.492437" y2="0.402326" gradientUnits="userSpaceOnUse">
<stop offset="0.25" stop-color="#7256FF"/>
<stop offset="0.73" stop-color="#007DFE"/>
</linearGradient>
<linearGradient id="paint1_linear_3917_59471" x1="2.85996" y1="24.2697" x2="23.2748" y2="14.8045" gradientUnits="userSpaceOnUse">
<stop offset="0.3" stop-color="#00D886"/>
<stop offset="0.54" stop-color="#7256FF"/>
</linearGradient>
<clipPath id="clip0_3917_59471">
<rect width="24" height="24" fill="white"/>
</clipPath>
</defs>
</svg>
