<svg width="48" height="48" viewBox="0 0 48 48" fill="none" xmlns="http://www.w3.org/2000/svg">
<path d="M22.7682 17.6615L3.73644 13.0102L1.5 18.3015L8.36036 40.2451L26.5881 46.4996L34.434 33.6646L22.7682 17.6615Z" fill="url(#paint0_linear_2108_61174)"/>
<path d="M3.73644 13.0102L1.5 18.3015L8.36036 40.2451L11.5825 31.2036L12.2856 25.9302L3.73644 13.0102Z" fill="url(#paint1_linear_2108_61174)"/>
<path d="M22.7682 17.5769L3.73644 12.9256L1.5 18.2169L23.8781 25.9557L22.7682 17.5769Z" fill="url(#paint2_linear_2108_61174)"/>
<path d="M3.7365 13.0104L1.5 18.3019L8.94035 20.8748L3.7365 13.0104Z" fill="url(#paint3_linear_2108_61174)"/>
<path d="M46.4994 14.3724L41.9254 5.41644L18.5858 1.5L8.35986 40.2453L26.5876 46.4999L46.4994 14.3724Z" fill="url(#paint4_linear_2108_61174)"/>
<path d="M46.4999 14.3723L41.9259 5.41632L26.5881 46.4997L46.4999 14.3723Z" fill="url(#paint5_linear_2108_61174)"/>
<path d="M46.5 14.3724L41.926 5.41644L18.5864 1.5L26.3482 13.2742L46.5 14.3724Z" fill="url(#paint6_linear_2108_61174)"/>
<path d="M46.4998 14.3724L41.926 5.41644L18.5864 1.5L26.3482 13.2742L46.4998 14.3724Z" fill="url(#paint7_linear_2108_61174)"/>
<path d="M46.4998 14.3724L41.9262 5.41632L38.7405 13.9494L46.4998 14.3724Z" fill="url(#paint8_linear_2108_61174)"/>
<path d="M12.2858 25.9303L12.1806 25.7714L8.3606 40.2453L26.5883 46.4998L34.4342 33.6647L12.2858 25.9303Z" fill="url(#paint9_linear_2108_61174)"/>
<path d="M34.4342 33.6649L24.2389 17.8446L14.8329 15.7224L8.3606 40.2455L26.5883 46.4999L34.4342 33.6649Z" fill="url(#paint10_linear_2108_61174)"/>
<path d="M26.3476 13.2742L18.5858 1.5L8.35986 40.2453L17.9101 31.2038L26.3476 13.2742Z" fill="url(#paint11_linear_2108_61174)"/>
<path d="M8.3606 40.2451L17.9108 31.2037L19.2482 28.3617L12.2858 25.9303L12.1806 25.7714L10.3686 32.6369L8.3606 40.2451Z" fill="url(#paint12_linear_2108_61174)"/>
<path d="M13.094 22.3112L20.8358 24.9884L24.239 17.8446L14.833 15.7224L13.094 22.3112Z" fill="url(#paint13_linear_2108_61174)"/>
<path d="M26.5881 46.5L34.434 33.6649L32.5002 30.6641L26.5881 46.5Z" fill="url(#paint14_linear_2108_61174)"/>
<path d="M34.434 33.6649L32.5003 30.6641L31.7322 32.7214L34.434 33.6649Z" fill="url(#paint15_linear_2108_61174)"/>
<path d="M17.9108 31.2038L8.3606 40.2453L26.5883 46.4998L17.9108 31.2038Z" fill="url(#paint16_linear_2108_61174)"/>
<path d="M38.7403 13.9493L26.5881 46.4997L46.4997 14.3723L38.7403 13.9493Z" fill="url(#paint17_linear_2108_61174)"/>
<path d="M38 10H10V38H38V10Z" fill="url(#paint18_linear_2108_61174)"/>
<g opacity="0.2">
<path d="M10.0068 14.5939V38.0001H31.6218L34.2978 33.6225L22.6853 17.6925L10.0068 14.5939Z" fill="url(#paint19_linear_2108_61174)"/>
<path d="M10.0068 35.5047L11.5505 31.1728L12.2505 25.9234L10.0068 22.5327V35.5047Z" fill="url(#paint20_linear_2108_61174)"/>
<path d="M10.0068 21.2665L23.79 26.0332L22.6853 17.6925L10.0068 14.5939V21.2665Z" fill="url(#paint21_linear_2108_61174)"/>
<path d="M38.0034 27.8186V10.0034H16.3057L10.0068 33.8696V38H31.6932L38.0034 27.8186Z" fill="url(#paint22_linear_2108_61174)"/>
<path d="M26.2489 13.3249L38.0035 13.9656V10.0034H24.0593L26.2489 13.3249Z" fill="url(#paint23_linear_2108_61174)"/>
<path d="M10.0068 33.8696V38H10.6384L17.8498 31.1728L26.2487 13.3249L24.0592 10.0034H16.3057L10.0068 33.8696Z" fill="url(#paint24_linear_2108_61174)"/>
<path d="M31.6934 37.9999L38.0036 27.8185V15.5535L29.6235 37.9999H31.6934Z" fill="url(#paint25_linear_2108_61174)"/>
</g>
<path d="M24 32.7H13.5V34.4H24V32.7Z" fill="white"/>
<path d="M28.6149 13.4026H30.7312L35.2025 23.9101H32.8029L31.849 21.5702H27.4374L26.4836 23.9101H24.1436L28.6149 13.4026H28.6149ZM31.0293 19.5432L29.6433 16.1599L28.2571 19.5432H31.0293Z" fill="white"/>
<path d="M22.3211 24.2231L21.1735 23.1947C20.2941 23.761 19.2359 24.0889 18.0734 24.0889C14.8541 24.0889 12.5439 21.6894 12.5439 18.7235V18.6936C12.5439 15.7277 14.8839 13.2983 18.1032 13.2983C21.3226 13.2983 23.6326 15.6979 23.6326 18.6638V18.6936C23.6326 19.7965 23.2899 20.8249 22.7086 21.6894L23.7817 22.5986L22.3211 24.2231L22.3211 24.2231ZM19.4744 21.6894L17.7753 20.2437L19.2359 18.6042L20.9499 20.1543C21.1288 19.737 21.2331 19.2451 21.2331 18.7235V18.6936C21.2331 16.9051 19.9215 15.4147 18.0734 15.4147C16.2252 15.4147 14.9435 16.8754 14.9435 18.6638V18.6936C14.9435 20.4821 16.2551 21.9726 18.1032 21.9726C18.6099 21.9726 19.072 21.8831 19.4744 21.6894V21.6894Z" fill="white"/>
<defs>
<linearGradient id="paint0_linear_2108_61174" x1="9.9682" y1="10.4878" x2="20.2739" y2="34.3537" gradientUnits="userSpaceOnUse">
<stop offset="0.0677083" stop-color="#FF4EFD"/>
<stop offset="0.963542" stop-color="#484DFC"/>
</linearGradient>
<linearGradient id="paint1_linear_2108_61174" x1="1.49991" y1="11.6951" x2="13.8405" y2="41.2334" gradientUnits="userSpaceOnUse">
<stop stop-color="#DA38FF"/>
<stop offset="0.222684" stop-color="#DA38FF"/>
<stop offset="0.828382" stop-color="#087CFA"/>
</linearGradient>
<linearGradient id="paint2_linear_2108_61174" x1="24.703" y1="28.7492" x2="17.7202" y2="8.12333" gradientUnits="userSpaceOnUse">
<stop offset="0.28125" stop-color="#6B57FF"/>
<stop offset="0.875" stop-color="#9E3DFF"/>
</linearGradient>
<linearGradient id="paint3_linear_2108_61174" x1="5.19123" y1="14.2439" x2="5.19126" y2="22.3298" gradientUnits="userSpaceOnUse">
<stop stop-color="#E19AFB"/>
<stop offset="0.6875" stop-color="#EB73FF" stop-opacity="0.69"/>
</linearGradient>
<linearGradient id="paint4_linear_2108_61174" x1="36.4753" y1="16.0185" x2="0.160909" y2="36.8875" gradientUnits="userSpaceOnUse">
<stop offset="0.04435" stop-color="#3BEA62"/>
<stop offset="0.98039" stop-color="#009AE5"/>
</linearGradient>
<linearGradient id="paint5_linear_2108_61174" x1="42.5888" y1="21.17" x2="16.1922" y2="36.3395" gradientUnits="userSpaceOnUse">
<stop offset="0.01039" stop-color="#3BEA62"/>
<stop offset="0.3005" stop-color="#2BD486"/>
<stop offset="0.76005" stop-color="#009AE5"/>
</linearGradient>
<linearGradient id="paint6_linear_2108_61174" x1="28.0259" y1="-2.14594" x2="37.3657" y2="18.6995" gradientUnits="userSpaceOnUse">
<stop offset="0.19259" stop-color="#3BEA62"/>
<stop offset="0.33312" stop-color="#39E766"/>
<stop offset="0.47449" stop-color="#33E072"/>
<stop offset="0.61636" stop-color="#2AD386"/>
<stop offset="0.75854" stop-color="#1DC2A2"/>
<stop offset="0.89967" stop-color="#0DACC6"/>
<stop offset="1" stop-color="#009AE5"/>
</linearGradient>
<linearGradient id="paint7_linear_2108_61174" x1="19.6062" y1="6.22186" x2="34.0898" y2="9.33514" gradientUnits="userSpaceOnUse">
<stop offset="0.09677" stop-color="#A8FF68"/>
<stop offset="0.50067" stop-color="#2BD486" stop-opacity="0"/>
</linearGradient>
<linearGradient id="paint8_linear_2108_61174" x1="49.6094" y1="12.0019" x2="37.6977" y2="9.02396" gradientUnits="userSpaceOnUse">
<stop offset="0.46313" stop-color="#3BEA62"/>
<stop offset="0.98039" stop-color="#009AE5"/>
</linearGradient>
<linearGradient id="paint9_linear_2108_61174" x1="23.5504" y1="48.9113" x2="17.9252" y2="17.673" gradientUnits="userSpaceOnUse">
<stop offset="0.04435" stop-color="#3BEA62"/>
<stop offset="0.98039" stop-color="#009AE5"/>
</linearGradient>
<linearGradient id="paint10_linear_2108_61174" x1="12.6887" y1="16.7876" x2="21.2109" y2="36.5233" gradientUnits="userSpaceOnUse">
<stop stop-color="#C7489F"/>
<stop offset="0.07234" stop-color="#C34DA5" stop-opacity="0.914"/>
<stop offset="0.21592" stop-color="#B95CB4" stop-opacity="0.68972"/>
<stop offset="0.41506" stop-color="#A974CD" stop-opacity="0.33204"/>
<stop offset="0.58542" stop-color="#9B8BE5" stop-opacity="0"/>
</linearGradient>
<linearGradient id="paint11_linear_2108_61174" x1="29.8006" y1="10.8163" x2="5.7186" y2="17.1444" gradientUnits="userSpaceOnUse">
<stop offset="0.04435" stop-color="#3BEA62"/>
<stop offset="0.98039" stop-color="#009AE5"/>
</linearGradient>
<linearGradient id="paint12_linear_2108_61174" x1="15.3866" y1="42.6326" x2="11.2655" y2="23.5834" gradientUnits="userSpaceOnUse">
<stop offset="0.37272" stop-color="#3BEA62" stop-opacity="0"/>
<stop offset="1" stop-color="#C931FF"/>
</linearGradient>
<linearGradient id="paint13_linear_2108_61174" x1="11.1367" y1="21.2763" x2="22.0534" y2="19.7753" gradientUnits="userSpaceOnUse">
<stop stop-color="#26B2C4" stop-opacity="0"/>
<stop offset="0.2873" stop-color="#43C3AA" stop-opacity="0.28547"/>
<stop offset="0.95283" stop-color="#8CF06A" stop-opacity="0.99406"/>
<stop offset="0.95831" stop-color="#8DF16A"/>
</linearGradient>
<linearGradient id="paint14_linear_2108_61174" x1="39.1667" y1="26.729" x2="21.094" y2="48.9908" gradientUnits="userSpaceOnUse">
<stop stop-color="#C7489F"/>
<stop offset="0.07234" stop-color="#C34DA5" stop-opacity="0.914"/>
<stop offset="0.21592" stop-color="#B95CB4" stop-opacity="0.68972"/>
<stop offset="0.41506" stop-color="#A974CD" stop-opacity="0.33204"/>
<stop offset="0.58542" stop-color="#9B8BE5" stop-opacity="0"/>
</linearGradient>
<linearGradient id="paint15_linear_2108_61174" x1="34.4115" y1="31.0013" x2="32.0635" y2="33.8935" gradientUnits="userSpaceOnUse">
<stop offset="0.30592" stop-color="#EB73FF" stop-opacity="0"/>
<stop offset="1" stop-color="#BD31FF"/>
</linearGradient>
<linearGradient id="paint16_linear_2108_61174" x1="6.42177" y1="26.6366" x2="22.0663" y2="46.4999" gradientUnits="userSpaceOnUse">
<stop offset="0.21197" stop-color="#3BEA62"/>
<stop offset="0.98039" stop-color="#009AE5"/>
</linearGradient>
<linearGradient id="paint17_linear_2108_61174" x1="42.5616" y1="13.2038" x2="36.6057" y2="30.2592" gradientUnits="userSpaceOnUse">
<stop offset="0.09677" stop-color="#95F286"/>
<stop offset="0.50067" stop-color="#2BD486" stop-opacity="0"/>
</linearGradient>
<linearGradient id="paint18_linear_2108_61174" x1="9.64782" y1="10.0675" x2="37.4892" y2="37.0948" gradientUnits="userSpaceOnUse">
<stop stop-color="#007859"/>
<stop offset="0.0882966" stop-color="#00533E"/>
<stop offset="0.1921" stop-color="#002F23"/>
<stop offset="0.2894" stop-color="#001510"/>
<stop offset="0.3766" stop-color="#000604"/>
<stop offset="0.4452"/>
<stop offset="0.9138"/>
</linearGradient>
<linearGradient id="paint19_linear_2108_61174" x1="12.5677" y1="13.6154" x2="20.3498" y2="31.637" gradientUnits="userSpaceOnUse">
<stop offset="0.32646" stop-color="#FF318C"/>
<stop offset="0.38416" stop-color="#F4358F"/>
<stop offset="0.48402" stop-color="#D84099"/>
<stop offset="0.61408" stop-color="#AA53A9"/>
<stop offset="0.76936" stop-color="#6B6DBF"/>
<stop offset="0.9441" stop-color="#1B8EDB"/>
<stop offset="1" stop-color="#009AE5"/>
</linearGradient>
<linearGradient id="paint20_linear_2108_61174" x1="8.5538" y1="24.7513" x2="13.2377" y2="35.5983" gradientUnits="userSpaceOnUse">
<stop offset="0.05847" stop-color="#FF318C"/>
<stop offset="0.1414" stop-color="#F43492"/>
<stop offset="0.28482" stop-color="#D83DA4"/>
<stop offset="0.47027" stop-color="#AB4CC1"/>
<stop offset="0.58367" stop-color="#8C57D5"/>
<stop offset="0.70992" stop-color="#5C6DDA"/>
<stop offset="0.93325" stop-color="#009AE5"/>
</linearGradient>
<linearGradient id="paint21_linear_2108_61174" x1="11.9011" y1="14.1708" x2="27.7315" y2="33.0773" gradientUnits="userSpaceOnUse">
<stop offset="0.19105" stop-color="#FF318C"/>
<stop offset="0.46406" stop-color="#8363B7"/>
<stop offset="0.76433" stop-color="#009AE5"/>
</linearGradient>
<linearGradient id="paint22_linear_2108_61174" x1="33.4346" y1="18.5796" x2="3.55568" y2="35.7502" gradientUnits="userSpaceOnUse">
<stop offset="0.04435" stop-color="#3BEA62"/>
<stop offset="0.87728" stop-color="#024546"/>
</linearGradient>
<linearGradient id="paint23_linear_2108_61174" x1="27.6941" y1="8.92181" x2="38.2466" y2="15.4512" gradientUnits="userSpaceOnUse">
<stop offset="0.09677" stop-color="#A8FF68"/>
<stop offset="0.50067" stop-color="#2BD486"/>
<stop offset="1" stop-color="#1686E6"/>
</linearGradient>
<linearGradient id="paint24_linear_2108_61174" x1="21.8292" y1="11.2856" x2="6.91764" y2="40.4799" gradientUnits="userSpaceOnUse">
<stop offset="0.04435" stop-color="#99EA51"/>
<stop offset="0.98039" stop-color="#009AE5"/>
</linearGradient>
<linearGradient id="paint25_linear_2108_61174" x1="37.3598" y1="19.2392" x2="31.7904" y2="40.7082" gradientUnits="userSpaceOnUse">
<stop offset="0.09677" stop-color="#95F286"/>
<stop offset="0.50067" stop-color="#2BD486"/>
</linearGradient>
</defs>
</svg>
