<!-- Copyright 2000-2024 JetBrains s.r.o. and contributors. Use of this source code is governed by the Apache 2.0 license. -->
<svg width="20" height="20" viewBox="0 0 20 20" fill="none" xmlns="http://www.w3.org/2000/svg">
<g clip-path="url(#clip0_3917_59472)">
<path d="M0 1.27273V11.8878C0 12.3969 0.303454 12.8571 0.771273 13.0576L12.4871 18.0789C12.6455 18.1467 12.8162 18.1818 12.9885 18.1818H18.7273C19.4302 18.1818 20 17.612 20 16.9091V11.2947C20 11.0433 19.9254 10.7975 19.7858 10.5882L13.0975 0.566727C12.8613 0.212909 12.4642 0.000545454 12.0389 0.000545454L1.27273 0C0.569818 0 0 0.569818 0 1.27273Z" fill="url(#paint0_linear_3917_59472)"/>
<path d="M1.81641 15.4633V18.7278C1.81641 19.4307 2.38622 20.0006 3.08913 20.0006H7.18059C7.24077 20.0006 7.30095 19.9962 7.36059 19.9878L18.9055 18.3387C19.5326 18.2491 19.9982 17.7122 19.9982 17.0787V12.1809C19.9982 11.4778 19.4282 10.908 18.7251 10.9082L12.9319 10.9097C12.7951 10.9097 12.6593 10.9317 12.5297 10.9749L2.68659 14.256C2.16695 14.4293 1.81641 14.9157 1.81641 15.4635V15.4633Z" fill="url(#paint1_linear_3917_59472)"/>
<path d="M1.81641 15.0167L1.81695 18.7278C1.81695 19.4307 2.38677 20.0004 3.08968 20.0004H6.6855C7.05695 20.0004 7.41004 19.838 7.65186 19.556L17.8737 7.63054C18.0713 7.39981 18.18 7.10599 18.18 6.80218V3.09109C18.18 2.38818 17.6102 1.81836 16.9073 1.81836H13.3109C12.9395 1.81836 12.5864 1.98072 12.3446 2.26272L2.12295 14.1882C1.92513 14.4189 1.81659 14.7127 1.81659 15.0167H1.81641Z" fill="#00D886"/>
<path d="M16.6654 3.33398H3.33203V16.6673H16.6654V3.33398Z" fill="black"/>
<path d="M6.1231 9.81314C6.393 9.96724 6.68538 10.0644 6.99738 10.1116L6.99776 10.1731C6.99776 10.3821 7.04043 10.5644 7.12576 10.7154C7.21338 10.871 7.33795 10.991 7.4991 11.071C7.66272 11.1554 7.85224 11.2 8.06805 11.2H8.86805V10.48H8.26005C8.18424 10.48 8.12024 10.4669 8.06805 10.44C8.01586 10.4133 7.97567 10.3733 7.9471 10.32C7.91872 10.2667 7.90443 10.2044 7.90443 10.129V10.1008C8.19472 10.0503 8.46748 9.95771 8.71872 9.81333C9.10748 9.58667 9.41205 9.28 9.63243 8.88895C9.85281 8.49333 9.9631 8.05771 9.9631 7.57333C9.9631 7.08895 9.85281 6.65333 9.63243 6.2621C9.41205 5.86667 9.10729 5.56 8.71872 5.33771C8.33224 5.11105 7.89967 5 7.421 5C6.94233 5 6.51205 5.11105 6.12329 5.33771C5.737 5.56 5.43243 5.86667 5.20957 6.2621C4.98919 6.65333 4.87891 7.08876 4.87891 7.57333C4.87891 8.0579 4.98919 8.49333 5.20957 8.88895C5.43243 9.28 5.737 9.58667 6.12329 9.81333L6.1231 9.81314ZM6.07338 6.69314C6.20843 6.42648 6.39338 6.22209 6.62805 6.07524C6.865 5.92857 7.13053 5.85295 7.42443 5.85295C7.71833 5.85295 7.98272 5.92838 8.21738 6.07524C8.45205 6.2219 8.63567 6.42629 8.76843 6.69314C8.90119 6.95086 8.96748 7.24419 8.96748 7.57314C8.96748 7.9021 8.901 8.19524 8.76843 8.45752C8.63567 8.71962 8.45205 8.92419 8.21738 9.07524C7.98272 9.2219 7.71833 9.29295 7.42443 9.29295C7.13053 9.29295 6.865 9.2219 6.62805 9.07524C6.39338 8.924 6.20843 8.71962 6.07338 8.45752C5.94062 8.19524 5.87433 7.9019 5.87433 7.57314C5.87433 7.24438 5.94062 6.95086 6.07338 6.69314Z" fill="white"/>
<path d="M12.9066 5.08398H11.8542L10.0586 10.0617H11.0576L11.4346 8.90627H13.3723L13.774 10.0617H14.7517L12.9064 5.08398H12.9066ZM11.6656 8.15522L12.2986 6.25751L12.3696 5.94189L12.4443 6.25751L13.1163 8.15522H11.6656Z" fill="white"/>
<path d="M10 14.166H5V14.9993H10V14.166Z" fill="white"/>
</g>
<defs>
<linearGradient id="paint0_linear_3917_59472" x1="18.7558" y1="18.6805" x2="0.410365" y2="0.335271" gradientUnits="userSpaceOnUse">
<stop offset="0.25" stop-color="#7256FF"/>
<stop offset="0.73" stop-color="#007DFE"/>
</linearGradient>
<linearGradient id="paint1_linear_3917_59472" x1="2.38004" y1="20.2247" x2="19.3924" y2="12.3371" gradientUnits="userSpaceOnUse">
<stop offset="0.3" stop-color="#00D886"/>
<stop offset="0.54" stop-color="#7256FF"/>
</linearGradient>
<clipPath id="clip0_3917_59472">
<rect width="20" height="20" fill="white"/>
</clipPath>
</defs>
</svg>
