<!-- Copyright 2000-2024 JetBrains s.r.o. and contributors. Use of this source code is governed by the Apache 2.0 license. -->
<svg width="20" height="20" viewBox="0 0 20 20" fill="none" xmlns="http://www.w3.org/2000/svg">
<g clip-path="url(#clip0_3917_59475)">
<path d="M20 18.7274V8.11236C20 7.60327 19.6965 7.14309 19.2287 6.94254L7.51291 1.92127C7.35455 1.85345 7.18382 1.81836 7.01145 1.81836H1.27273C0.569818 1.81836 0 2.38818 0 3.09109V8.70545C0 8.9569 0.0745455 9.20272 0.214182 9.412L6.90273 19.4334C7.13873 19.7873 7.536 19.9996 7.96127 19.9996L18.7273 20.0002C19.4302 20.0002 20 19.4304 20 18.7274Z" fill="url(#paint0_linear_3917_59475)"/>
<path d="M18.1818 4.53727V1.27273C18.1818 0.569818 17.612 0 16.9091 0H12.8176C12.7575 0 12.6973 0.00436364 12.6376 0.0127273L1.09273 1.662C0.465636 1.75145 0 2.28855 0 2.92182V7.81964C0 8.52273 0.57 9.09254 1.27309 9.09236L7.06636 9.09091C7.20309 9.09091 7.33891 9.06891 7.46855 9.02564L17.3116 5.74455C17.8313 5.57127 18.1818 5.08491 18.1818 4.53709V4.53727Z" fill="url(#paint1_linear_3917_59475)"/>
<path d="M18.1799 4.98364L18.1793 1.27255C18.1793 0.569818 17.6095 0 16.9066 0H13.3108C12.9393 0 12.5862 0.162364 12.3444 0.444364L2.12277 12.3698C1.92513 12.6005 1.81641 12.8944 1.81641 13.1982V16.9093C1.81641 17.6122 2.38622 18.182 3.08913 18.182H6.6855C7.05695 18.182 7.41004 18.0196 7.65186 17.7376L17.8735 5.81218C18.0713 5.58145 18.1799 5.28764 18.1799 4.98364Z" fill="#FF318C"/>
<path d="M16.6654 3.33398H3.33203V16.6673H16.6654V3.33398Z" fill="black"/>
<path d="M7.41414 10.1484C6.93776 10.1484 6.50633 10.0368 6.11986 9.8141C5.73357 9.58876 5.43014 9.28076 5.20957 8.88971C4.98919 8.49638 4.87891 8.05771 4.87891 7.5741C4.87891 7.09048 4.98919 6.65314 5.20957 6.2621C5.42995 5.86876 5.73338 5.56038 6.11986 5.33771C6.50614 5.11238 6.93757 5 7.41414 5C7.817 5 8.18691 5.07467 8.52348 5.224C8.86005 5.37333 9.13967 5.58305 9.36252 5.85333C9.58767 6.12133 9.73814 6.42933 9.81414 6.77771H8.79719C8.73072 6.59771 8.63129 6.44 8.49853 6.30476C8.36805 6.16743 8.21052 6.06171 8.02557 5.98838C7.84062 5.91505 7.6391 5.8781 7.42119 5.8781C7.12729 5.8781 6.86176 5.95143 6.62481 6.09848C6.38786 6.24552 6.20176 6.44819 6.06653 6.70648C5.93376 6.96248 5.86748 7.25181 5.86748 7.5741C5.86748 7.89638 5.93376 8.18705 6.06653 8.44514C6.20157 8.70114 6.38767 8.90248 6.62481 9.04952C6.86176 9.19657 7.12729 9.26991 7.42119 9.26991C7.63929 9.26991 7.84081 9.23295 8.02557 9.15962C8.21052 9.08629 8.36805 8.98191 8.49853 8.84667C8.63129 8.70933 8.73072 8.55029 8.79719 8.37029H9.81414C9.73833 8.71867 9.58767 9.028 9.36252 9.29829C9.13967 9.56629 8.86005 9.77467 8.52348 9.924C8.18691 10.0733 7.817 10.148 7.41414 10.148V10.1484ZM11.4791 5.08514V9.18819H13.84V10.0629H10.512V5.08514H11.4791Z" fill="white"/>
<path d="M10 14.166H5V14.9993H10V14.166Z" fill="white"/>
</g>
<defs>
<linearGradient id="paint0_linear_3917_59475" x1="1.24418" y1="1.31963" x2="19.5896" y2="19.6649" gradientUnits="userSpaceOnUse">
<stop offset="0.29" stop-color="#009AE5"/>
<stop offset="0.7" stop-color="#00D980"/>
</linearGradient>
<linearGradient id="paint1_linear_3917_59475" x1="17.6184" y1="-0.224181" x2="0.860182" y2="7.54546" gradientUnits="userSpaceOnUse">
<stop offset="0.3" stop-color="#FF318C"/>
<stop offset="0.54" stop-color="#009AE5"/>
</linearGradient>
<clipPath id="clip0_3917_59475">
<rect width="20" height="20" fill="white"/>
</clipPath>
</defs>
</svg>
