<!-- Copyright 2000-2024 JetBrains s.r.o. and contributors. Use of this source code is governed by the Apache 2.0 license. -->
<svg width="24" height="24" viewBox="0 0 24 24" fill="none" xmlns="http://www.w3.org/2000/svg">
<g clip-path="url(#clip0_3917_59474)">
<path d="M24 22.4725V9.73444C24 9.12353 23.6359 8.57131 23.0745 8.33066L9.01549 2.30513C8.82545 2.22375 8.62058 2.18164 8.41375 2.18164H1.52727C0.683782 2.18164 0 2.86542 0 3.70891V10.4461C0 10.7479 0.0894545 11.0429 0.257018 11.294L8.28327 23.3197C8.56647 23.7443 9.0432 23.9992 9.55353 23.9992L22.4727 23.9998C23.3162 23.9998 24 23.316 24 22.4725Z" fill="url(#paint0_linear_3917_59474)"/>
<path d="M21.8182 5.44473V1.52727C21.8182 0.683782 21.1344 0 20.2909 0H15.3812C15.3089 0 15.2367 0.00523636 15.1652 0.0152727L1.31127 1.9944C0.558764 2.10175 0 2.74625 0 3.50618V9.38356C0 10.2273 0.684 10.9111 1.52771 10.9108L8.47964 10.9091C8.64371 10.9091 8.80669 10.8827 8.96225 10.8308L20.774 6.89345C21.3975 6.68553 21.8182 6.10189 21.8182 5.44451V5.44473Z" fill="url(#paint1_linear_3917_59474)"/>
<path d="M21.8197 5.98036L21.8191 1.52705C21.8191 0.683782 21.1353 0 20.2918 0H15.9768C15.5311 0 15.1074 0.194836 14.8172 0.533236L2.55123 14.8438C2.31407 15.1207 2.18359 15.4732 2.18359 15.8378V20.2911C2.18359 21.1346 2.86738 21.8184 3.71087 21.8184H8.0265C8.47225 21.8184 8.89596 21.6236 9.18614 21.2852L21.4521 6.97462C21.6895 6.69775 21.8197 6.34516 21.8197 5.98036Z" fill="#FF318C"/>
<path d="M20 4H4V20H20V4Z" fill="black"/>
<path d="M8.89385 12.1781C8.32219 12.1781 7.80448 12.0441 7.34071 11.7769C6.87716 11.5065 6.51305 11.1369 6.24836 10.6677C5.98391 10.1957 5.85156 9.66926 5.85156 9.08891C5.85156 8.50857 5.98391 7.98377 6.24836 7.51451C6.51282 7.04251 6.87693 6.67246 7.34071 6.40526C7.80425 6.13486 8.32196 6 8.89385 6C9.37728 6 9.82116 6.0896 10.225 6.2688C10.6289 6.448 10.9645 6.69966 11.2319 7.024C11.5021 7.3456 11.6826 7.7152 11.7738 8.13326H10.5535C10.4737 7.91726 10.3544 7.728 10.1951 7.56571C10.0385 7.40091 9.8495 7.27406 9.62756 7.18606C9.40562 7.09806 9.16379 7.05371 8.90231 7.05371C8.54962 7.05371 8.23099 7.14171 7.94665 7.31817C7.66231 7.49463 7.43899 7.73783 7.27671 8.04777C7.11739 8.35497 7.03785 8.70217 7.03785 9.08891C7.03785 9.47566 7.11739 9.82446 7.27671 10.1342C7.43876 10.4414 7.66208 10.683 7.94665 10.8594C8.23099 11.0359 8.54962 11.1239 8.90231 11.1239C9.16402 11.1239 9.40585 11.0795 9.62756 10.9915C9.8495 10.9035 10.0385 10.7783 10.1951 10.616C10.3544 10.4512 10.4737 10.2603 10.5535 10.0443H11.7738C11.6829 10.4624 11.5021 10.8336 11.2319 11.1579C10.9645 11.4795 10.6289 11.7296 10.225 11.9088C9.82116 12.088 9.37728 12.1776 8.89385 12.1776V12.1781ZM13.7718 6.10217V11.0258H16.6049V12.0754H12.6113V6.10217H13.7718Z" fill="white"/>
<path d="M12 17H6V18H12V17Z" fill="white"/>
</g>
<defs>
<linearGradient id="paint0_linear_3917_59474" x1="1.49302" y1="1.58317" x2="23.5076" y2="23.5975" gradientUnits="userSpaceOnUse">
<stop offset="0.29" stop-color="#009AE5"/>
<stop offset="0.7" stop-color="#00D980"/>
</linearGradient>
<linearGradient id="paint1_linear_3917_59474" x1="21.142" y1="-0.269018" x2="1.03222" y2="9.05455" gradientUnits="userSpaceOnUse">
<stop offset="0.3" stop-color="#FF318C"/>
<stop offset="0.54" stop-color="#009AE5"/>
</linearGradient>
<clipPath id="clip0_3917_59474">
<rect width="24" height="24" fill="white"/>
</clipPath>
</defs>
</svg>
