<svg width="20" height="20" viewBox="0 0 20 20" fill="none" xmlns="http://www.w3.org/2000/svg">
<path d="M7.3335 7.9165L7.75016 0.666504L12.0002 2.99984L7.3335 7.9165Z" fill="url(#paint0_linear_2108_61179)"/>
<path d="M7.3335 7.91648L7.5835 3.41648L12.0002 2.99982L7.3335 7.91648Z" fill="url(#paint1_linear_2108_61179)"/>
<path d="M7.33341 7.9165L7.58341 3.49984L7.75008 0.666504L2.33341 3.99984L0.666748 14.4165L7.33341 7.9165Z" fill="#00FF6A"/>
<path d="M7.3335 7.9165L7.5835 3.4165L2.3335 3.99984L4.25016 10.9998L7.3335 7.9165Z" fill="url(#paint2_linear_2108_61179)"/>
<path d="M7.3335 7.9165L7.75016 0.666504L2.3335 3.99984L4.25016 10.9998L7.3335 7.9165Z" fill="url(#paint3_linear_2108_61179)"/>
<path d="M7.33333 7.74982L7 14.4998L11.75 18.3332L16.4167 19.3332L19.3333 12.6665L7.33333 7.74982Z" fill="url(#paint4_linear_2108_61179)"/>
<path d="M14.9999 12.4998L10.8333 9.9165L11.3333 9.4165L19.3333 12.6665L14.9999 12.4998Z" fill="url(#paint5_linear_2108_61179)"/>
<path d="M15 12.4999L11.75 18.3332L16.4167 19.3332L19.3333 12.6665L15 12.4999Z" fill="url(#paint6_linear_2108_61179)"/>
<path d="M7.16667 10.1665L7 14.4998L11.75 18.3332L7.16667 10.1665Z" fill="url(#paint7_linear_2108_61179)"/>
<path d="M7.3335 10.4998L16.4168 19.3331L11.7502 18.3331L7.3335 10.4998Z" fill="url(#paint8_linear_2108_61179)"/>
<path d="M7.3335 10.4998L16.4168 19.3331L11.7502 18.3331L7.3335 10.4998Z" fill="url(#paint9_linear_2108_61179)"/>
<path d="M0.666748 14.4165L7.33341 7.91648L2.33341 3.99982L0.666748 14.4165Z" fill="url(#paint10_linear_2108_61179)"/>
<path d="M0.666748 14.4165L5.58341 9.41648L2.33341 3.99982L0.666748 14.4165Z" fill="url(#paint11_linear_2108_61179)"/>
<path d="M19.3334 7.08313L16.5834 1.33313L12.0001 2.9998L0.666748 14.4165L6.66675 18.8331L19.3334 7.08313Z" fill="url(#paint12_linear_2108_61179)"/>
<path d="M7.25 10.4998L7 14.4998L9.33333 16.4165L10.1667 15.5832L7.25 10.4998Z" fill="url(#paint13_linear_2108_61179)"/>
<path d="M0.666748 14.4165L7.25008 10.4998L6.66675 18.8332L0.666748 14.4165Z" fill="url(#paint14_linear_2108_61179)"/>
<path d="M0.666748 14.4165L7.25008 10.4998L6.66675 18.8332L0.666748 14.4165Z" fill="url(#paint15_linear_2108_61179)"/>
<path d="M4.0835 12.3332L7.25016 10.4998L7.00016 14.4165L4.0835 12.3332Z" fill="url(#paint16_linear_2108_61179)"/>
<path d="M0.666748 14.4165L7.25008 10.4998L16.5834 1.33313L12.0001 2.9998L0.666748 14.4165Z" fill="url(#paint17_linear_2108_61179)"/>
<path d="M0.666748 14.4165L7.16675 10.4998L16.5834 1.33313L12.0001 2.9998L0.666748 14.4165Z" fill="url(#paint18_linear_2108_61179)"/>
<path d="M13.8333 3.9998L16.5833 1.33313L12 2.9998L13.8333 3.9998Z" fill="url(#paint19_linear_2108_61179)"/>
<path d="M19.3334 6.99982L9.33341 16.3331L5.66675 9.41648L12.0001 2.99982L19.3334 6.99982Z" fill="url(#paint20_linear_2108_61179)"/>
<path d="M15.0835 10.9165L7.3335 7.74982L14.0835 11.9165L15.0835 10.9165Z" fill="url(#paint21_linear_2108_61179)"/>
<path d="M13.8334 3.99982L7.25008 10.4998L0.666748 14.4165L5.66675 9.41648L12.0001 2.99982L13.8334 3.99982Z" fill="url(#paint22_linear_2108_61179)"/>
<path d="M13.9167 3.99982L7.25008 10.4998L0.666748 14.4165L5.66675 9.41648L12.0001 2.99982L13.9167 3.99982Z" fill="url(#paint23_linear_2108_61179)"/>
<path d="M13.9165 3.83313L16.5832 1.33313L19.3332 7.08313L13.9165 3.83313Z" fill="url(#paint24_linear_2108_61179)"/>
<path d="M7.41675 7.66648L10.4167 9.16648L12.0001 2.99982L7.41675 7.66648Z" fill="url(#paint25_linear_2108_61179)"/>
<path d="M12.0001 2.99984L7.75008 0.666504L7.41675 7.6665L12.0001 2.99984Z" fill="url(#paint26_linear_2108_61179)"/>
<path d="M15.8334 4.16669H4.16675V15.8334H15.8334V4.16669Z" fill="url(#paint27_linear_2108_61179)"/>
<path d="M10.8333 13.3333H5.83325V14.1666H10.8333V13.3333Z" fill="white"/>
<path d="M10.844 5.84406H11.9713V9.88345H14.1319V10.8228H10.844V5.84406Z" fill="white"/>
<path d="M5.58325 8.3803C5.58325 6.97121 6.61658 5.75 8.21355 5.75C9.15295 5.75 9.71659 6.03182 10.1863 6.50152L9.43477 7.34697C9.05901 7.06515 8.68325 6.78333 8.11962 6.78333C7.27416 6.78333 6.71052 7.44091 6.71052 8.28636C6.71052 9.13182 7.27416 9.88333 8.11962 9.88333C8.68325 9.88333 9.05901 9.69545 9.43477 9.3197L10.0923 9.97727C9.62265 10.6348 9.05901 10.9167 8.11962 10.9167C6.61659 10.9167 5.58325 9.78939 5.58325 8.3803Z" fill="white"/>
<defs>
<linearGradient id="paint0_linear_2108_61179" x1="7.36475" y1="4.29075" x2="12.7368" y2="4.29075" gradientUnits="userSpaceOnUse">
<stop stop-color="#FF318C"/>
<stop offset="0.149" stop-color="#FB348C"/>
<stop offset="0.2849" stop-color="#F03C8C"/>
<stop offset="0.4157" stop-color="#DE4A8C"/>
<stop offset="0.5434" stop-color="#C45D8B"/>
<stop offset="0.6689" stop-color="#A2778B"/>
<stop offset="0.7926" stop-color="#79958A"/>
<stop offset="0.9128" stop-color="#49B98A"/>
<stop offset="1" stop-color="#21D789"/>
</linearGradient>
<linearGradient id="paint1_linear_2108_61179" x1="6.72483" y1="5.98407" x2="14.1876" y2="3.07082" gradientUnits="userSpaceOnUse">
<stop offset="0.1069" stop-color="#FF318C"/>
<stop offset="0.2181" stop-color="#FB338C"/>
<stop offset="0.3194" stop-color="#F0388E"/>
<stop offset="0.4168" stop-color="#DE4190"/>
<stop offset="0.5114" stop-color="#C44E93"/>
<stop offset="0.6008" stop-color="#A45E97"/>
<stop offset="0.6375" stop-color="#976A96"/>
<stop offset="0.7051" stop-color="#758992"/>
<stop offset="0.7956" stop-color="#3FBC8C"/>
<stop offset="0.8402" stop-color="#21D789"/>
</linearGradient>
<linearGradient id="paint2_linear_2108_61179" x1="6.70158" y1="2.68984" x2="2.62133" y2="10.0205" gradientUnits="userSpaceOnUse">
<stop offset="0.0294109" stop-color="#00FF6A"/>
<stop offset="0.375" stop-color="#21D789"/>
<stop offset="0.9032" stop-color="#009AE5"/>
</linearGradient>
<linearGradient id="paint3_linear_2108_61179" x1="7.69833" y1="5.64534" x2="4.98458" y2="5.88484" gradientUnits="userSpaceOnUse">
<stop offset="0.0294109" stop-color="#A6FF9E"/>
<stop offset="0.6015" stop-color="#21D789" stop-opacity="0"/>
</linearGradient>
<linearGradient id="paint4_linear_2108_61179" x1="10.6728" y1="13.4092" x2="19.3788" y2="14.647" gradientUnits="userSpaceOnUse">
<stop offset="0.3444" stop-color="#21D789"/>
<stop offset="0.8032" stop-color="#009AE5"/>
<stop offset="0.9931" stop-color="#0855FA"/>
</linearGradient>
<linearGradient id="paint5_linear_2108_61179" x1="11.1409" y1="13.3507" x2="17.8568" y2="9.64" gradientUnits="userSpaceOnUse">
<stop offset="0.0962983" stop-color="#00FF6A"/>
<stop offset="0.9654" stop-color="#00FF6A" stop-opacity="0"/>
</linearGradient>
<linearGradient id="paint6_linear_2108_61179" x1="9.81125" y1="19.1766" x2="20.0788" y2="13.5035" gradientUnits="userSpaceOnUse">
<stop stop-color="#42FFFA" stop-opacity="0.5"/>
<stop offset="0.9989" stop-color="#00FF6A" stop-opacity="0"/>
</linearGradient>
<linearGradient id="paint7_linear_2108_61179" x1="12.6142" y1="14.8179" x2="8.99583" y2="14.1793" gradientUnits="userSpaceOnUse">
<stop offset="0.0521494" stop-color="#00FF6A"/>
<stop offset="1" stop-color="#009AE5"/>
</linearGradient>
<linearGradient id="paint8_linear_2108_61179" x1="19.4737" y1="15.6636" x2="7.81283" y2="14.572" gradientUnits="userSpaceOnUse">
<stop offset="0.1212" stop-color="#21D789" stop-opacity="0"/>
<stop offset="0.7868" stop-color="#00FF6A"/>
</linearGradient>
<linearGradient id="paint9_linear_2108_61179" x1="13.0029" y1="14.0413" x2="10.574" y2="16.0091" gradientUnits="userSpaceOnUse">
<stop offset="0.0962983" stop-color="#42FFFA"/>
<stop offset="0.9654" stop-color="#42FFFA" stop-opacity="0"/>
</linearGradient>
<linearGradient id="paint10_linear_2108_61179" x1="5.89233" y1="3.74632" x2="0.298249" y2="15.9515" gradientUnits="userSpaceOnUse">
<stop offset="0.0913979" stop-color="#00FF6A"/>
<stop offset="0.759" stop-color="#009AE5"/>
</linearGradient>
<linearGradient id="paint11_linear_2108_61179" x1="1.61066" y1="6.54523" x2="3.63266" y2="13.8351" gradientUnits="userSpaceOnUse">
<stop offset="0.1163" stop-color="#21D789" stop-opacity="0.6"/>
<stop offset="1" stop-color="#009AE5"/>
</linearGradient>
<linearGradient id="paint12_linear_2108_61179" x1="17.8437" y1="2.47705" x2="-1.01858" y2="22.3984" gradientUnits="userSpaceOnUse">
<stop offset="0.0913979" stop-color="#21D789"/>
<stop offset="0.9032" stop-color="#009AE5"/>
</linearGradient>
<linearGradient id="paint13_linear_2108_61179" x1="10.1985" y1="18.5299" x2="6.63683" y2="10.8129" gradientUnits="userSpaceOnUse">
<stop offset="0.00994756" stop-color="#009AE5"/>
<stop offset="0.9654" stop-color="#009AE5" stop-opacity="0"/>
</linearGradient>
<linearGradient id="paint14_linear_2108_61179" x1="0.625081" y1="14.6572" x2="7.2245" y2="14.6572" gradientUnits="userSpaceOnUse">
<stop offset="0.0556783" stop-color="#009AE5" stop-opacity="0.4"/>
<stop offset="0.7897" stop-color="#009AE5"/>
</linearGradient>
<linearGradient id="paint15_linear_2108_61179" x1="1.756" y1="10.6242" x2="6.38533" y2="14.5086" gradientUnits="userSpaceOnUse">
<stop offset="0.1196" stop-color="#42FFFA"/>
<stop offset="0.6743" stop-color="#42FFFA" stop-opacity="0"/>
</linearGradient>
<linearGradient id="paint16_linear_2108_61179" x1="4.12275" y1="12.4603" x2="7.22458" y2="12.4603" gradientUnits="userSpaceOnUse">
<stop offset="0.0556783" stop-color="#009AE5" stop-opacity="0.4"/>
<stop offset="1" stop-color="#087CFA"/>
</linearGradient>
<linearGradient id="paint17_linear_2108_61179" x1="3.80425" y1="13.7661" x2="15.6131" y2="-0.717537" gradientUnits="userSpaceOnUse">
<stop stop-color="#0697DC"/>
<stop offset="0.9032" stop-color="#00FF6A"/>
</linearGradient>
<linearGradient id="paint18_linear_2108_61179" x1="10.975" y1="9.69396" x2="8.79341" y2="8.01788" gradientUnits="userSpaceOnUse">
<stop offset="0.0962983" stop-color="#6EFFA3"/>
<stop offset="0.6015" stop-color="#21D789" stop-opacity="0"/>
</linearGradient>
<linearGradient id="paint19_linear_2108_61179" x1="16.0112" y1="3.06005" x2="12.9782" y2="1.57013" gradientUnits="userSpaceOnUse">
<stop offset="0.0962983" stop-color="#6EFFA3"/>
<stop offset="0.9654" stop-color="#FCF84A" stop-opacity="0"/>
</linearGradient>
<linearGradient id="paint20_linear_2108_61179" x1="18.1377" y1="15.2835" x2="5.68642" y2="3.47073" gradientUnits="userSpaceOnUse">
<stop offset="0.5747" stop-color="#0CAFA3" stop-opacity="0.1365"/>
<stop offset="1" stop-color="#07C3F2" stop-opacity="0.88"/>
</linearGradient>
<linearGradient id="paint21_linear_2108_61179" x1="5.57725" y1="7.21198" x2="15.6837" y2="11.9412" gradientUnits="userSpaceOnUse">
<stop offset="0.4862" stop-color="#087CFA" stop-opacity="0"/>
<stop offset="1" stop-color="#21D789"/>
</linearGradient>
<linearGradient id="paint22_linear_2108_61179" x1="9.33358" y1="10.8891" x2="7.52875" y2="9.43448" gradientUnits="userSpaceOnUse">
<stop offset="0.311" stop-color="#65FFC5" stop-opacity="0.88"/>
<stop offset="0.4437" stop-color="#56F2BE" stop-opacity="0.6801"/>
<stop offset="0.6983" stop-color="#2FD0AD" stop-opacity="0.2969"/>
<stop offset="0.8955" stop-color="#0CB29E" stop-opacity="0"/>
</linearGradient>
<linearGradient id="paint23_linear_2108_61179" x1="8.5265" y1="11.5215" x2="5.866" y2="6.57298" gradientUnits="userSpaceOnUse">
<stop offset="0.0962983" stop-color="#42FFFA"/>
<stop offset="0.6336" stop-color="#42FFFA" stop-opacity="0"/>
</linearGradient>
<linearGradient id="paint24_linear_2108_61179" x1="20.6501" y1="5.53721" x2="14.9387" y2="2.73155" gradientUnits="userSpaceOnUse">
<stop offset="0.1514" stop-color="#00865B"/>
<stop offset="0.2496" stop-color="#048D64" stop-opacity="0.8794"/>
<stop offset="0.412" stop-color="#0EA07D" stop-opacity="0.6799"/>
<stop offset="0.6187" stop-color="#1FBFA6" stop-opacity="0.426"/>
<stop offset="0.8591" stop-color="#37EADF" stop-opacity="0.1306"/>
<stop offset="0.9654" stop-color="#42FFFA" stop-opacity="0"/>
</linearGradient>
<linearGradient id="paint25_linear_2108_61179" x1="17.7707" y1="1.63148" x2="6.51666" y2="9.29373" gradientUnits="userSpaceOnUse">
<stop offset="0.1446" stop-color="#FF67AA"/>
<stop offset="0.2328" stop-color="#FB69A9" stop-opacity="0.8603"/>
<stop offset="0.3132" stop-color="#F06FA6" stop-opacity="0.7328"/>
<stop offset="0.3907" stop-color="#DE7AA2" stop-opacity="0.6101"/>
<stop offset="0.4663" stop-color="#C48A9B" stop-opacity="0.4903"/>
<stop offset="0.5406" stop-color="#A29E93" stop-opacity="0.3725"/>
<stop offset="0.6139" stop-color="#79B788" stop-opacity="0.2564"/>
<stop offset="0.6864" stop-color="#48D47C" stop-opacity="0.1415"/>
<stop offset="0.7565" stop-color="#10F56E" stop-opacity="0.0303353"/>
<stop offset="0.7757" stop-color="#00FF6A" stop-opacity="0"/>
</linearGradient>
<linearGradient id="paint26_linear_2108_61179" x1="6.11575" y1="3.961" x2="10.3061" y2="4.47984" gradientUnits="userSpaceOnUse">
<stop offset="0.2258" stop-color="#FF52A0"/>
<stop offset="0.4026" stop-color="#FF4E9E" stop-opacity="0.6404"/>
<stop offset="0.5635" stop-color="#FF4397" stop-opacity="0.3132"/>
<stop offset="0.7175" stop-color="#FF318C" stop-opacity="0"/>
</linearGradient>
<linearGradient id="paint27_linear_2108_61179" x1="4.02001" y1="4.19482" x2="15.6206" y2="15.4562" gradientUnits="userSpaceOnUse">
<stop stop-color="#007859"/>
<stop offset="0.0882966" stop-color="#00533E"/>
<stop offset="0.1921" stop-color="#002F23"/>
<stop offset="0.2894" stop-color="#001510"/>
<stop offset="0.3766" stop-color="#000604"/>
<stop offset="0.4452"/>
<stop offset="0.9138"/>
</linearGradient>
</defs>
</svg>
