<!-- Copyright 2000-2024 JetBrains s.r.o. and contributors. Use of this source code is governed by the Apache 2.0 license. -->
<svg width="48" height="48" viewBox="0 0 48 48" fill="none" xmlns="http://www.w3.org/2000/svg">
<g clip-path="url(#clip0_3917_59473)">
<path d="M48 44.9451V19.4689C48 18.2471 47.2717 17.1426 46.1489 16.6613L18.031 4.61026C17.6509 4.4475 17.2412 4.36328 16.8275 4.36328H3.05455C1.36756 4.36328 0 5.73084 0 7.41783V20.8923C0 21.4958 0.178909 22.0858 0.514036 22.588L16.5665 46.6395C17.1329 47.4887 18.0864 47.9983 19.1071 47.9983L44.9455 47.9996C46.6324 47.9996 48 46.6321 48 44.9451Z" fill="url(#paint0_linear_3917_59473)"/>
<path d="M43.6364 10.8895V3.05455C43.6364 1.36756 42.2688 0 40.5818 0H30.7623C30.6179 0 30.4735 0.0104727 30.3303 0.0305455L2.62255 3.9888C1.11753 4.20349 0 5.49251 0 7.01236V18.7671C0 20.4545 1.368 21.8221 3.05542 21.8217L16.9593 21.8182C17.2874 21.8182 17.6134 21.7654 17.9245 21.6615L41.5479 13.7869C42.7951 13.3711 43.6364 12.2038 43.6364 10.889V10.8895Z" fill="url(#paint1_linear_3917_59473)"/>
<path d="M43.6356 11.9607L43.6343 3.05411C43.6343 1.36756 42.2667 0 40.5797 0H31.9498C31.0583 0 30.2108 0.389673 29.6305 1.06647L5.09855 29.6876C4.62423 30.2413 4.36328 30.9465 4.36328 31.6756V40.5823C4.36328 42.2692 5.73084 43.6368 7.41783 43.6368H16.0491C16.9406 43.6368 17.788 43.2471 18.3684 42.5703L42.9003 13.9492C43.3751 13.3955 43.6356 12.6903 43.6356 11.9607Z" fill="#FF318C"/>
<path d="M39 9H9V39H39V9Z" fill="black"/>
<path d="M25 33H13V35.0001H25V33Z" fill="white"/>
<path d="M18.0763 24.1802C17.0241 24.1802 16.0712 23.9336 15.2175 23.4418C14.3643 22.9441 13.6941 22.2638 13.2069 21.4001C12.7202 20.5313 12.4766 19.5624 12.4766 18.4942C12.4766 17.426 12.7202 16.46 13.2069 15.5963C13.6937 14.7275 14.3639 14.0463 15.2175 13.5545C16.0707 13.0568 17.0237 12.8086 18.0763 12.8086C18.9661 12.8086 19.7832 12.9735 20.5266 13.3034C21.27 13.6332 21.8876 14.0964 22.3798 14.6934C22.8771 15.2854 23.2095 15.9657 23.3773 16.7351H21.1311C20.9843 16.3376 20.7647 15.9892 20.4714 15.6905C20.1833 15.3872 19.8353 15.1537 19.4268 14.9917C19.0183 14.8297 18.5732 14.7481 18.0919 14.7481C17.4427 14.7481 16.8562 14.9101 16.3329 15.2349C15.8095 15.5597 15.3984 16.0073 15.0997 16.5778C14.8065 17.1432 14.6601 17.7823 14.6601 18.4942C14.6601 19.206 14.8065 19.848 15.0997 20.4181C15.398 20.9835 15.8091 21.4282 16.3329 21.753C16.8562 22.0778 17.4427 22.2398 18.0919 22.2398C18.5736 22.2398 19.0187 22.1582 19.4268 21.9962C19.8353 21.8342 20.1833 21.6037 20.4714 21.305C20.7647 21.0016 20.9843 20.6503 21.1311 20.2528H23.3773C23.2099 21.0223 22.8771 21.7055 22.3798 22.3025C21.8876 22.8944 21.27 23.3547 20.5266 23.6845C19.7832 24.0144 18.9661 24.1802 18.0763 24.1802ZM27.0548 12.9967V22.0593H32.2696V23.9912H24.9188V12.9967H27.0548Z" fill="white"/>
</g>
<defs>
<linearGradient id="paint0_linear_3917_59473" x1="2.98604" y1="3.16633" x2="47.0151" y2="47.195" gradientUnits="userSpaceOnUse">
<stop offset="0.29" stop-color="#009AE5"/>
<stop offset="0.7" stop-color="#00D980"/>
</linearGradient>
<linearGradient id="paint1_linear_3917_59473" x1="42.2841" y1="-0.538035" x2="2.06444" y2="18.1091" gradientUnits="userSpaceOnUse">
<stop offset="0.3" stop-color="#FF318C"/>
<stop offset="0.54" stop-color="#009AE5"/>
</linearGradient>
<clipPath id="clip0_3917_59473">
<rect width="48" height="48" fill="white"/>
</clipPath>
</defs>
</svg>
