<!-- Copyright 2000-2024 JetBrains s.r.o. and contributors. Use of this source code is governed by the Apache 2.0 license. -->
<svg width="20" height="20" viewBox="0 0 20 20" fill="none" xmlns="http://www.w3.org/2000/svg">
<g clip-path="url(#clip0_3917_59478)">
<path d="M1.27273 20H11.8878C12.3969 20 12.8571 19.6965 13.0576 19.2287L18.0789 7.51291C18.1467 7.35455 18.1818 7.18382 18.1818 7.01145V1.27273C18.1818 0.569818 17.612 0 16.9091 0H11.2947C11.0433 0 10.7975 0.0745455 10.5882 0.214182L0.566727 6.90255C0.212909 7.13873 0.000545455 7.53582 0.000545455 7.96109L0 18.7273C0 19.4302 0.569818 20 1.27273 20Z" fill="url(#paint0_linear_3917_59478)"/>
<path d="M15.4615 18.1818H18.7261C19.429 18.1818 19.9988 17.612 19.9988 16.9091V12.8176C19.9988 12.7575 19.9944 12.6973 19.9861 12.6376L18.3368 1.09273C18.2472 0.465636 17.7103 0 17.0768 0H12.179C11.4759 0 10.9061 0.57 10.9063 1.27309L10.9077 7.06636C10.9077 7.20309 10.9297 7.33891 10.973 7.46855L14.2541 17.3116C14.4273 17.8313 14.9137 18.1818 15.4615 18.1818Z" fill="url(#paint1_linear_3917_59478)"/>
<path d="M15.0148 18.182L18.7259 18.1814C19.4288 18.1814 19.9984 17.6116 19.9984 16.9087V13.3129C19.9984 12.9415 19.836 12.5884 19.554 12.3465L7.62859 2.12472C7.39786 1.92709 7.10404 1.81836 6.80022 1.81836H3.08913C2.38622 1.81836 1.81641 2.38818 1.81641 3.09109V6.68745C1.81641 7.0589 1.97877 7.412 2.26077 7.65381L14.186 17.8755C14.4168 18.0733 14.7106 18.1818 15.0146 18.1818L15.0148 18.182Z" fill="#FF43F2"/>
<path d="M16.6654 3.33398H3.33203V16.6673H16.6654V3.33398Z" fill="black"/>
<path d="M5.14453 5.08514H7.03958C7.5112 5.08514 7.9331 5.19181 8.30529 5.40514C8.67977 5.61848 8.97253 5.91486 9.18358 6.2941C9.39444 6.67105 9.49996 7.09771 9.49996 7.5741C9.49996 8.05048 9.39444 8.47848 9.18358 8.85771C8.97253 9.23467 8.67977 9.52971 8.30529 9.74305C7.9331 9.95638 7.5112 10.063 7.03958 10.063H5.14453V5.08533V5.08514ZM7.02891 9.22381C7.32529 9.22381 7.58472 9.15752 7.80758 9.02476C8.03044 8.89181 8.20225 8.70248 8.3232 8.45581C8.44415 8.20686 8.50453 7.91314 8.50453 7.5741C8.50453 7.23505 8.44415 6.94248 8.3232 6.69581C8.20225 6.44686 8.03044 6.25619 7.80758 6.12343C7.58472 5.99048 7.3251 5.92438 7.02891 5.92438H6.1152V9.224H7.02891V9.22381ZM12.4737 10.1484C11.9973 10.1484 11.5659 10.0368 11.1794 9.81409C10.7931 9.58876 10.4897 9.28076 10.2691 8.88971C10.0487 8.49638 9.93844 8.05771 9.93844 7.5741C9.93844 7.09048 10.0487 6.65314 10.2691 6.2621C10.4895 5.86876 10.7929 5.56038 11.1794 5.33771C11.5659 5.11238 11.9971 5 12.4737 5C12.8602 5 13.2156 5.06895 13.5403 5.20629C13.8674 5.34362 14.1424 5.53695 14.3653 5.7859C14.5904 6.03486 14.7482 6.32152 14.8382 6.64629H13.8C13.7242 6.48991 13.6211 6.35467 13.4906 6.24095C13.3626 6.12495 13.2122 6.036 13.039 5.97429C12.8661 5.91029 12.68 5.87829 12.4807 5.87829C12.1868 5.87829 11.9213 5.95162 11.6843 6.09867C11.4474 6.24571 11.2613 6.44838 11.1261 6.70667C10.9933 6.96267 10.927 7.252 10.927 7.57429C10.927 7.89657 10.9935 8.18724 11.1261 8.44533C11.2611 8.70133 11.4472 8.90267 11.6843 9.04971C11.9215 9.19676 12.1868 9.27009 12.4807 9.27009C12.7533 9.27009 12.9998 9.21905 13.2203 9.11714C13.4432 9.01543 13.6198 8.8741 13.7501 8.6941C13.8805 8.5141 13.9504 8.31143 13.9598 8.0861L13.9634 8.18914H12.7937V7.42476H14.9021V7.81581C14.9021 8.25448 14.7954 8.65143 14.5821 9.00686C14.3712 9.36019 14.0807 9.63848 13.711 9.84248C13.3436 10.0465 12.9312 10.1482 12.4737 10.1482V10.1484Z" fill="white"/>
<path d="M10 14.166H5V14.9993H10V14.166Z" fill="white"/>
</g>
<defs>
<linearGradient id="paint0_linear_3917_59478" x1="18.6805" y1="1.24436" x2="0.335271" y2="19.5896" gradientUnits="userSpaceOnUse">
<stop offset="0.28" stop-color="#7256FF"/>
<stop offset="0.66" stop-color="#00D980"/>
</linearGradient>
<linearGradient id="paint1_linear_3917_59478" x1="20.223" y1="17.6184" x2="12.3353" y2="0.605817" gradientUnits="userSpaceOnUse">
<stop offset="0.3" stop-color="#FF43F2"/>
<stop offset="0.54" stop-color="#7256FF"/>
</linearGradient>
<clipPath id="clip0_3917_59478">
<rect width="20" height="20" fill="white"/>
</clipPath>
</defs>
</svg>
