<!-- Copyright 2000-2024 JetBrains s.r.o. and contributors. Use of this source code is governed by the Apache 2.0 license. -->
<svg width="24" height="24" viewBox="0 0 24 24" fill="none" xmlns="http://www.w3.org/2000/svg">
<g clip-path="url(#clip0_3917_59477)">
<path d="M1.52727 24H14.2654C14.8763 24 15.4285 23.6359 15.6692 23.0745L21.6947 9.01549C21.7761 8.82545 21.8182 8.62058 21.8182 8.41375V1.52727C21.8182 0.683782 21.1344 0 20.2909 0H13.5537C13.2519 0 12.9569 0.0894545 12.7058 0.257018L0.680073 8.28305C0.255491 8.56647 0.000654545 9.04298 0.000654545 9.55331L0 22.4727C0 23.3162 0.683782 24 1.52727 24Z" fill="url(#paint0_linear_3917_59477)"/>
<path d="M18.5562 21.8182H22.4736C23.3171 21.8182 24.0009 21.1344 24.0009 20.2909V15.3812C24.0009 15.3089 23.9957 15.2367 23.9856 15.1652L22.0065 1.31127C21.8989 0.558764 21.2546 0 20.4945 0H14.6171C13.7734 0 13.0896 0.684 13.0898 1.52771L13.0916 8.47964C13.0916 8.64371 13.118 8.80669 13.1699 8.96225L17.1072 20.774C17.3152 21.3975 17.8988 21.8182 18.5562 21.8182Z" fill="url(#paint1_linear_3917_59477)"/>
<path d="M18.0177 21.818L22.471 21.8173C23.3145 21.8173 23.9981 21.1336 23.9981 20.2901V15.9751C23.9981 15.5293 23.8033 15.1056 23.4649 14.8155L9.15431 2.54928C8.87743 2.31211 8.52485 2.18164 8.16027 2.18164H3.70696C2.86347 2.18164 2.17969 2.86542 2.17969 3.70891V8.02455C2.17969 8.47029 2.37452 8.894 2.71292 9.18419L17.0233 21.4501C17.3001 21.6875 17.6527 21.8178 18.0175 21.8178L18.0177 21.818Z" fill="#FF43F2"/>
<path d="M20 4H4V20H20V4Z" fill="black"/>
<path d="M6.17188 6.10217H8.44593C9.01188 6.10217 9.51816 6.23017 9.96479 6.48617C10.4142 6.74217 10.7655 7.09783 11.0187 7.55291C11.2718 8.00526 11.3984 8.51726 11.3984 9.08891C11.3984 9.66057 11.2718 10.1742 11.0187 10.6293C10.7655 11.0816 10.4142 11.4357 9.96479 11.6917C9.51816 11.9477 9.01188 12.0757 8.44593 12.0757H6.17188V6.1024V6.10217ZM8.43313 11.0686C8.78879 11.0686 9.1001 10.989 9.36753 10.8297C9.63496 10.6702 9.84113 10.443 9.98627 10.147C10.1314 9.84823 10.2039 9.49577 10.2039 9.08891C10.2039 8.68206 10.1314 8.33097 9.98627 8.03497C9.84113 7.73623 9.63496 7.50743 9.36753 7.34811C9.1001 7.18857 8.78856 7.10926 8.43313 7.10926H7.33668V11.0688H8.43313V11.0686ZM14.9668 12.1781C14.3952 12.1781 13.8775 12.0441 13.4137 11.7769C12.9502 11.5065 12.586 11.1369 12.3214 10.6677C12.0569 10.1957 11.9246 9.66926 11.9246 9.08891C11.9246 8.50857 12.0569 7.98377 12.3214 7.51451C12.5858 7.04251 12.9499 6.67246 13.4137 6.40526C13.8775 6.13486 14.395 6 14.9668 6C15.4306 6 15.8571 6.08274 16.2468 6.24754C16.6393 6.41234 16.9694 6.64434 17.2368 6.94309C17.507 7.24183 17.6962 7.58583 17.8043 7.97554H16.5584C16.4674 7.78789 16.3438 7.6256 16.1872 7.48914C16.0336 7.34994 15.853 7.2432 15.6452 7.16914C15.4377 7.09234 15.2144 7.05394 14.9753 7.05394C14.6226 7.05394 14.304 7.14194 14.0196 7.3184C13.7353 7.49486 13.512 7.73806 13.3497 8.048C13.1904 8.3552 13.1108 8.7024 13.1108 9.08914C13.1108 9.47589 13.1906 9.82469 13.3497 10.1344C13.5118 10.4416 13.7351 10.6832 14.0196 10.8597C14.3042 11.0361 14.6226 11.1241 14.9753 11.1241C15.3024 11.1241 15.5982 11.0629 15.8628 10.9406C16.1303 10.8185 16.3422 10.6489 16.4985 10.4329C16.6551 10.2169 16.739 9.97371 16.7502 9.70331L16.7545 9.82697H15.3508V8.90971H17.8809V9.37897C17.8809 9.90537 17.7529 10.3817 17.4969 10.8082C17.2439 11.2322 16.8953 11.5662 16.4516 11.811C16.0107 12.0558 15.5159 12.1778 14.9668 12.1778V12.1781Z" fill="white"/>
<path d="M12 17H6V18H12V17Z" fill="white"/>
</g>
<defs>
<linearGradient id="paint0_linear_3917_59477" x1="22.4167" y1="1.49324" x2="0.402326" y2="23.5076" gradientUnits="userSpaceOnUse">
<stop offset="0.28" stop-color="#7256FF"/>
<stop offset="0.66" stop-color="#00D980"/>
</linearGradient>
<linearGradient id="paint1_linear_3917_59477" x1="24.2699" y1="21.142" x2="14.8048" y2="0.726981" gradientUnits="userSpaceOnUse">
<stop offset="0.3" stop-color="#FF43F2"/>
<stop offset="0.54" stop-color="#7256FF"/>
</linearGradient>
<clipPath id="clip0_3917_59477">
<rect width="24" height="24" fill="white"/>
</clipPath>
</defs>
</svg>
