<svg width="20" height="20" viewBox="0 0 20 20" fill="none" xmlns="http://www.w3.org/2000/svg">
<path d="M18.7498 3.08337L19.9998 11.0834L17.6665 12.6667L18.7498 3.08337Z" fill="url(#paint0_linear_2108_61182)"/>
<path d="M19.9998 11.0834L17.6665 12.6667L18.0832 8.91669L19.9998 11.0834Z" fill="url(#paint1_linear_2108_61182)"/>
<path d="M18.7499 3.08333L11.5833 0L9.58325 1.66667L18.7499 3.08333Z" fill="url(#paint2_linear_2108_61182)"/>
<path d="M13.0833 2.25L11.5833 0L9.58325 1.66667L13.0833 2.25Z" fill="url(#paint3_linear_2108_61182)"/>
<path d="M13.4998 20L2.4165 11.1667L0.166504 17.8334L13.4998 20Z" fill="url(#paint4_linear_2108_61182)"/>
<path d="M13.4998 20L4.58317 16.0833L0.166504 17.8333L13.4998 20Z" fill="url(#paint5_linear_2108_61182)"/>
<path d="M15.0833 14.4167L0 9.25L13.5 20L15.0833 14.4167Z" fill="url(#paint6_linear_2108_61182)"/>
<path d="M15.0835 14.4166L14.0835 14.0833L12.5835 16L13.5002 20L15.0835 14.4166Z" fill="url(#paint7_linear_2108_61182)"/>
<path d="M12.5833 16L0 9.25L11.5 18.4167L13.5 20L12.5833 16Z" fill="url(#paint8_linear_2108_61182)"/>
<path d="M0 0.166687V9.25002L17.3333 15.1667L18.75 3.08335L0 0.166687Z" fill="url(#paint9_linear_2108_61182)"/>
<path d="M0 0.166687V9.25002L17.3333 15.1667L15.3333 6.08335L0 0.166687Z" fill="url(#paint10_linear_2108_61182)"/>
<path d="M0 0.166687V9.25002L4.16667 6.75002L0 0.166687Z" fill="url(#paint11_linear_2108_61182)"/>
<path d="M4.58317 16.0834L15.3332 6.16669L3.99984 6.83335L0.166504 17.8334L4.58317 16.0834Z" fill="url(#paint12_linear_2108_61182)"/>
<path d="M4.58317 16.0834L4.99984 13.1667L2.4165 11.1667L0.166504 17.8334L4.58317 16.0834Z" fill="url(#paint13_linear_2108_61182)"/>
<path d="M4.58317 16.0834L4.99984 13.1667L2.4165 11.1667L0.166504 17.8334L4.58317 16.0834Z" fill="url(#paint14_linear_2108_61182)"/>
<path d="M18.7499 3.08337L17.3333 15.1667L15.3333 6.08337L18.7499 3.08337Z" fill="url(#paint15_linear_2108_61182)"/>
<path d="M17.3334 15.1667L17.6667 12.6667L16.9167 13.1667L17.3334 15.1667Z" fill="url(#paint16_linear_2108_61182)"/>
<path d="M17.3335 15.1666L15.0835 14.4166L16.9168 13.1666L17.3335 15.1666Z" fill="url(#paint17_linear_2108_61182)"/>
<path d="M18.7498 3.08335L13.7498 7.41669L3.9165 6.75002L9.58317 1.66669L18.7498 3.08335Z" fill="url(#paint18_linear_2108_61182)"/>
<path d="M15.3333 6.08335L18.75 3.08335L0 0.166687L15.3333 6.08335Z" fill="url(#paint19_linear_2108_61182)"/>
<path d="M15.3333 6.08335L18.75 3.08335L0 0.166687L15.3333 6.08335Z" fill="url(#paint20_linear_2108_61182)"/>
<path d="M7.91675 3.16669L15.3334 6.08335L15.5834 5.83335L13.0834 2.25002L9.58341 1.66669L7.91675 3.16669Z" fill="url(#paint21_linear_2108_61182)"/>
<path d="M16.6666 3.33331H3.33325V16.6666H16.6666V3.33331Z" fill="url(#paint22_linear_2108_61182)"/>
<path d="M9.97851 14.1505H4.98926V14.9892H9.97851V14.1505Z" fill="white"/>
<path d="M5 4.99164H6.94686C8.51932 4.99164 9.56763 6.03995 9.56763 7.46265C9.56763 8.88536 8.51932 9.93367 6.94686 9.93367H5V4.99164ZM6.12319 5.96507V8.96024H6.94686C7.84541 8.96024 8.44444 8.3612 8.44444 7.46265C8.44444 6.5641 7.84541 5.96507 6.94686 5.96507H6.12319V5.96507Z" fill="white"/>
<path d="M10 7.46258C10 6.03988 11.1232 4.91669 12.6208 4.91669C13.5193 4.91669 14.0435 5.14132 14.5676 5.5906L13.8188 6.41427C13.4444 6.11475 13.07 5.89012 12.5459 5.89012C11.7222 5.89012 11.1232 6.56403 11.1232 7.46258C11.1232 8.36113 11.7222 9.03504 12.6208 9.03504C12.9952 9.03504 13.3696 8.96017 13.6691 8.73553V8.06161H12.5459V7.08818H14.7174V9.25968C14.1932 9.70896 13.5193 10.0834 12.6208 10.0834C11.0483 10.0085 10 8.96017 10 7.46258Z" fill="white"/>
<defs>
<linearGradient id="paint0_linear_2108_61182" x1="18.322" y1="7.52296" x2="18.9068" y2="12.6147" gradientUnits="userSpaceOnUse">
<stop offset="0.1599" stop-color="#21D789"/>
<stop offset="0.5402" stop-color="#419FBC"/>
<stop offset="1" stop-color="#6B57FF"/>
</linearGradient>
<linearGradient id="paint1_linear_2108_61182" x1="15.7565" y1="10.0501" x2="23.3569" y2="12.7264" gradientUnits="userSpaceOnUse">
<stop offset="0.0212475" stop-color="#B74AF7" stop-opacity="0"/>
<stop offset="0.744" stop-color="#8053FD" stop-opacity="0.7385"/>
<stop offset="1" stop-color="#6B57FF"/>
</linearGradient>
<linearGradient id="paint2_linear_2108_61182" x1="12.9903" y1="5.33842" x2="14.4697" y2="1.55408" gradientUnits="userSpaceOnUse">
<stop stop-color="#6B57FF"/>
<stop offset="0.9516" stop-color="#21D789"/>
</linearGradient>
<linearGradient id="paint3_linear_2108_61182" x1="13.0161" y1="0.639917" x2="10.6173" y2="2.32075" gradientUnits="userSpaceOnUse">
<stop stop-color="#00FF6A"/>
<stop offset="0.9516" stop-color="#21D789" stop-opacity="0"/>
</linearGradient>
<linearGradient id="paint4_linear_2108_61182" x1="13.4684" y1="22.8442" x2="-0.579163" y2="13.2238" gradientUnits="userSpaceOnUse">
<stop offset="0.09839" stop-color="#6B57FF"/>
<stop offset="0.1176" stop-color="#685CFB"/>
<stop offset="0.3447" stop-color="#4A91CA"/>
<stop offset="0.5417" stop-color="#34B7A7"/>
<stop offset="0.6991" stop-color="#26CE91"/>
<stop offset="0.7971" stop-color="#21D789"/>
</linearGradient>
<linearGradient id="paint5_linear_2108_61182" x1="6.26759" y1="12.2516" x2="7.09134" y2="21.795" gradientUnits="userSpaceOnUse">
<stop offset="0.09839" stop-color="#6B57FF"/>
<stop offset="0.1176" stop-color="#685CFB"/>
<stop offset="0.3447" stop-color="#4A91CA"/>
<stop offset="0.5417" stop-color="#34B7A7"/>
<stop offset="0.6991" stop-color="#26CE91"/>
<stop offset="0.7971" stop-color="#21D789"/>
</linearGradient>
<linearGradient id="paint6_linear_2108_61182" x1="1.24583" y1="10.0022" x2="18.7713" y2="19.6787" gradientUnits="userSpaceOnUse">
<stop offset="0.0752688" stop-color="#21D789"/>
<stop offset="0.8874" stop-color="#6B57FF"/>
</linearGradient>
<linearGradient id="paint7_linear_2108_61182" x1="12.5932" y1="17.0338" x2="15.0623" y2="17.0338" gradientUnits="userSpaceOnUse">
<stop offset="0.0266187" stop-color="#4F46C6"/>
<stop offset="1" stop-color="#6B57FF"/>
</linearGradient>
<linearGradient id="paint8_linear_2108_61182" x1="0.626333" y1="11.1242" x2="18.1518" y2="20.8007" gradientUnits="userSpaceOnUse">
<stop offset="0.0266187" stop-color="#21D789"/>
<stop offset="0.6999" stop-color="#685CFA"/>
<stop offset="1" stop-color="#6B57FF"/>
</linearGradient>
<linearGradient id="paint9_linear_2108_61182" x1="-0.971333" y1="5.01627" x2="16.2132" y2="8.75485" gradientUnits="userSpaceOnUse">
<stop offset="0.2422" stop-color="#21D789"/>
<stop offset="0.4465" stop-color="#59A3B2"/>
<stop offset="0.7668" stop-color="#B74AF7"/>
<stop offset="1" stop-color="#FF45ED"/>
</linearGradient>
<linearGradient id="paint10_linear_2108_61182" x1="1.254" y1="7.66869" x2="17.581" y2="7.66869" gradientUnits="userSpaceOnUse">
<stop offset="0.1308" stop-color="#21D789"/>
<stop offset="0.3487" stop-color="#59A3B2"/>
<stop offset="0.6901" stop-color="#B74AF7"/>
<stop offset="1" stop-color="#FF45ED"/>
</linearGradient>
<linearGradient id="paint11_linear_2108_61182" x1="0.299167" y1="4.6866" x2="4.19442" y2="4.6866" gradientUnits="userSpaceOnUse">
<stop offset="0.3086" stop-color="#56D789"/>
<stop offset="0.9587" stop-color="#8DFC77"/>
<stop offset="1" stop-color="#91FF76"/>
</linearGradient>
<linearGradient id="paint12_linear_2108_61182" x1="6.86167" y1="23.8264" x2="8.20317" y2="6.29027" gradientUnits="userSpaceOnUse">
<stop stop-color="#21D789"/>
<stop offset="0.9961" stop-color="#6B57FF" stop-opacity="0"/>
</linearGradient>
<linearGradient id="paint13_linear_2108_61182" x1="1.5545" y1="11.0721" x2="2.75892" y2="16.3199" gradientUnits="userSpaceOnUse">
<stop offset="0.2061" stop-color="#6B57FF"/>
<stop offset="0.3273" stop-color="#6266F1"/>
<stop offset="0.5619" stop-color="#4B8FCC"/>
<stop offset="0.8839" stop-color="#26CF90"/>
<stop offset="0.9206" stop-color="#21D789"/>
</linearGradient>
<linearGradient id="paint14_linear_2108_61182" x1="0.0408706" y1="13.5301" x2="5.06392" y2="17.4464" gradientUnits="userSpaceOnUse">
<stop offset="0.3086" stop-color="#56D789" stop-opacity="0"/>
<stop offset="0.9587" stop-color="#8DFC77" stop-opacity="0.9403"/>
<stop offset="1" stop-color="#91FF76"/>
</linearGradient>
<linearGradient id="paint15_linear_2108_61182" x1="15.3158" y1="9.15254" x2="18.7245" y2="9.15254" gradientUnits="userSpaceOnUse">
<stop offset="0.2609" stop-color="#B74AF7"/>
<stop offset="1" stop-color="#FF45ED"/>
</linearGradient>
<linearGradient id="paint16_linear_2108_61182" x1="18.0522" y1="14.7479" x2="16.9879" y2="13.1729" gradientUnits="userSpaceOnUse">
<stop stop-color="#FF72F1"/>
<stop offset="0.963" stop-color="#B74AF7"/>
</linearGradient>
<linearGradient id="paint17_linear_2108_61182" x1="18.1804" y1="16.2137" x2="16.1371" y2="13.9575" gradientUnits="userSpaceOnUse">
<stop offset="0.668" stop-color="#FF72F1"/>
<stop offset="1" stop-color="#B74AF7"/>
</linearGradient>
<linearGradient id="paint18_linear_2108_61182" x1="7.22317" y1="-1.89273" x2="12.5008" y2="6.9206" gradientUnits="userSpaceOnUse">
<stop offset="0.1625" stop-color="#B74AF7" stop-opacity="0.5"/>
<stop offset="0.9989" stop-color="#00FF6A" stop-opacity="0"/>
</linearGradient>
<linearGradient id="paint19_linear_2108_61182" x1="15.2154" y1="8.72394" x2="11.214" y2="3.8711" gradientUnits="userSpaceOnUse">
<stop offset="0.2973" stop-color="#FF4FFF" stop-opacity="0.96"/>
<stop offset="0.9989" stop-color="#FF45ED" stop-opacity="0"/>
</linearGradient>
<linearGradient id="paint20_linear_2108_61182" x1="8.93867" y1="3.99777" x2="9.36433" y2="1.61394" gradientUnits="userSpaceOnUse">
<stop stop-color="#FF4FFF" stop-opacity="0.96"/>
<stop offset="0.9928" stop-color="#FF45ED" stop-opacity="0"/>
</linearGradient>
<linearGradient id="paint21_linear_2108_61182" x1="14.1061" y1="1.76227" x2="12.1133" y2="4.06494" gradientUnits="userSpaceOnUse">
<stop offset="0.1209" stop-color="#A326F7"/>
<stop offset="0.9516" stop-color="#B74AF7" stop-opacity="0"/>
</linearGradient>
<linearGradient id="paint22_linear_2108_61182" x1="3.15414" y1="3.1542" x2="15.7782" y2="15.7783" gradientUnits="userSpaceOnUse">
<stop offset="0.0284813" stop-color="#007E67"/>
<stop offset="0.1121" stop-color="#005344"/>
<stop offset="0.1976" stop-color="#002F27"/>
<stop offset="0.2776" stop-color="#001511"/>
<stop offset="0.3494" stop-color="#000605"/>
<stop offset="0.4058"/>
<stop offset="0.9138"/>
</linearGradient>
</defs>
</svg>
