<svg width="48" height="48" viewBox="0 0 48 48" fill="none" xmlns="http://www.w3.org/2000/svg">
<path d="M43.5999 8.5L46.5 26.4L41.2 30L43.5999 8.5Z" fill="url(#paint0_linear_2108_61180)"/>
<path d="M46.5 26.4L41.2 30L42.2 21.6L46.5 26.4Z" fill="url(#paint1_linear_2108_61180)"/>
<path d="M43.6 8.5L27.5 1.5L23 5.2L43.6 8.5Z" fill="url(#paint2_linear_2108_61180)"/>
<path d="M31 6.5L27.5 1.5L23 5.2L31 6.5Z" fill="url(#paint3_linear_2108_61180)"/>
<path d="M31.8999 46.5L6.8999 26.6L1.8999 41.7L31.8999 46.5Z" fill="url(#paint4_linear_2108_61180)"/>
<path d="M31.8999 46.5L11.7999 37.7L1.8999 41.7L31.8999 46.5Z" fill="url(#paint5_linear_2108_61180)"/>
<path d="M35.4 33.9L1.5 22.3L31.9 46.5L35.4 33.9Z" fill="url(#paint6_linear_2108_61180)"/>
<path d="M35.4001 33.9L33.2001 33.2L29.8 37.4L31.9 46.5L35.4001 33.9Z" fill="url(#paint7_linear_2108_61180)"/>
<path d="M29.8 37.4L1.5 22.3L27.5 43L31.9 46.5L29.8 37.4Z" fill="url(#paint8_linear_2108_61180)"/>
<path d="M1.5 1.79999V22.3L40.6 35.7L43.6 8.49999L1.5 1.79999Z" fill="url(#paint9_linear_2108_61180)"/>
<path d="M1.5 1.79999V22.3L40.6 35.7L36 15.1L1.5 1.79999Z" fill="url(#paint10_linear_2108_61180)"/>
<path d="M1.5 1.79999V22.3L10.8 16.6L1.5 1.79999Z" fill="url(#paint11_linear_2108_61180)"/>
<path d="M11.7999 37.7L36.0999 15.3L10.4999 16.8L1.8999 41.7L11.7999 37.7Z" fill="url(#paint12_linear_2108_61180)"/>
<path d="M11.7999 37.7L12.6999 31.1L6.8999 26.6L1.8999 41.7L11.7999 37.7Z" fill="url(#paint13_linear_2108_61180)"/>
<path d="M11.7999 37.7L12.6999 31.1L6.8999 26.6L1.8999 41.7L11.7999 37.7Z" fill="url(#paint14_linear_2108_61180)"/>
<path d="M43.6 8.5L40.6 35.7L36 15.1L43.6 8.5Z" fill="url(#paint15_linear_2108_61180)"/>
<path d="M40.6 35.7L41.2 30L39.5 31.1L40.6 35.7Z" fill="url(#paint16_linear_2108_61180)"/>
<path d="M40.5999 35.7L35.3999 33.9L39.4999 31.1L40.5999 35.7Z" fill="url(#paint17_linear_2108_61180)"/>
<path d="M43.6 8.50001L32.5 18.3L10.3 16.7L23 5.20001L43.6 8.50001Z" fill="url(#paint18_linear_2108_61180)"/>
<path d="M36 15.1L43.6 8.49999L1.5 1.79999L36 15.1Z" fill="url(#paint19_linear_2108_61180)"/>
<path d="M36 15.1L43.6 8.49999L1.5 1.79999L36 15.1Z" fill="url(#paint20_linear_2108_61180)"/>
<path d="M19.2 8.70001L36 15.1L36.5 14.7L30.9 6.50001L23 5.20001L19.2 8.70001Z" fill="url(#paint21_linear_2108_61180)"/>
<path d="M38 10H10V38H38V10Z" fill="url(#paint22_linear_2108_61180)"/>
<g opacity="0.5">
<path opacity="0.3" d="M10 29.04V38H21.27L10 29.04Z" fill="url(#paint23_linear_2108_61180)"/>
<path opacity="0.3" d="M10 29.04V38H11.19L11.89 37.72L16.055 33.87L10 29.04Z" fill="url(#paint24_linear_2108_61180)"/>
<path opacity="0.3" d="M10 29.04L21.27 38H34.22L35.34 33.94L10 25.225V29.04Z" fill="url(#paint25_linear_2108_61180)"/>
<path opacity="0.3" d="M29.8099 37.44L29.9499 38H34.2199L35.3399 33.94L28.6199 31.665L29.8099 37.44Z" fill="url(#paint26_linear_2108_61180)"/>
<path opacity="0.3" d="M38.0001 13.4299L35.9001 15.2499L38.0001 24.5949V13.4299Z" fill="url(#paint27_linear_2108_61180)"/>
<path opacity="0.3" d="M38 10H22.355L35.9 15.25L38 13.43V10Z" fill="url(#paint28_linear_2108_61180)"/>
<path opacity="0.3" d="M38 34.85V24.595L35.9 15.25L22.355 10H10V25.225L38 34.85Z" fill="url(#paint29_linear_2108_61180)"/>
</g>
<path d="M24 32.7H13.5V34.4H24V32.7Z" fill="white"/>
<path d="M13.2 13.2916H17.3218C20.6193 13.2916 23.0008 15.5815 23.0008 18.6042C23.0008 21.6269 20.7109 23.9168 17.3218 23.9168H13.2V13.2916ZM15.5815 15.3983V21.8101H17.4134C19.3369 21.8101 20.6193 20.5277 20.6193 18.6042C20.6193 16.6806 19.3369 15.3983 17.4134 15.3983H15.5815Z" fill="white"/>
<path d="M24 18.6957C24 15.673 26.3815 13.1999 29.5874 13.1999C31.5109 13.1999 32.6101 13.7495 33.8008 14.6654L32.2437 16.4058C31.4193 15.7646 30.6866 15.3066 29.4958 15.3066C27.7555 15.3066 26.4731 16.7722 26.4731 18.6041C26.4731 20.5276 27.8471 21.9932 29.679 21.9932C30.5034 21.9932 31.3277 21.81 31.8773 21.352V19.7948H29.4958V17.8713H34.0756V22.4512C32.9765 23.3671 31.5109 24.0999 29.4958 24.0999C26.2899 24.0999 24 21.81 24 18.6957Z" fill="white"/>
<defs>
<linearGradient id="paint0_linear_2108_61180" x1="42.7248" y1="18.4266" x2="44.0408" y2="29.883" gradientUnits="userSpaceOnUse">
<stop offset="0.1599" stop-color="#21D789"/>
<stop offset="0.5402" stop-color="#419FBC"/>
<stop offset="1" stop-color="#6B57FF"/>
</linearGradient>
<linearGradient id="paint1_linear_2108_61180" x1="36.9525" y1="24.1127" x2="54.0533" y2="30.1342" gradientUnits="userSpaceOnUse">
<stop offset="0.0212475" stop-color="#B74AF7" stop-opacity="0"/>
<stop offset="0.744" stop-color="#8053FD" stop-opacity="0.7385"/>
<stop offset="1" stop-color="#6B57FF"/>
</linearGradient>
<linearGradient id="paint2_linear_2108_61180" x1="30.7284" y1="13.5115" x2="34.057" y2="4.9966" gradientUnits="userSpaceOnUse">
<stop stop-color="#6B57FF"/>
<stop offset="0.9516" stop-color="#21D789"/>
</linearGradient>
<linearGradient id="paint3_linear_2108_61180" x1="30.7863" y1="2.9397" x2="25.3891" y2="6.7217" gradientUnits="userSpaceOnUse">
<stop stop-color="#00FF6A"/>
<stop offset="0.9516" stop-color="#21D789" stop-opacity="0"/>
</linearGradient>
<linearGradient id="paint4_linear_2108_61180" x1="31.8042" y1="52.8994" x2="0.197202" y2="31.2533" gradientUnits="userSpaceOnUse">
<stop offset="0.09839" stop-color="#6B57FF"/>
<stop offset="0.1176" stop-color="#685CFB"/>
<stop offset="0.3447" stop-color="#4A91CA"/>
<stop offset="0.5417" stop-color="#34B7A7"/>
<stop offset="0.6991" stop-color="#26CE91"/>
<stop offset="0.7971" stop-color="#21D789"/>
</linearGradient>
<linearGradient id="paint5_linear_2108_61180" x1="15.6023" y1="29.0661" x2="17.4557" y2="50.5388" gradientUnits="userSpaceOnUse">
<stop offset="0.09839" stop-color="#6B57FF"/>
<stop offset="0.1176" stop-color="#685CFB"/>
<stop offset="0.3447" stop-color="#4A91CA"/>
<stop offset="0.5417" stop-color="#34B7A7"/>
<stop offset="0.6991" stop-color="#26CE91"/>
<stop offset="0.7971" stop-color="#21D789"/>
</linearGradient>
<linearGradient id="paint6_linear_2108_61180" x1="4.3031" y1="24.0051" x2="43.7356" y2="45.777" gradientUnits="userSpaceOnUse">
<stop offset="0.0752688" stop-color="#21D789"/>
<stop offset="0.8874" stop-color="#6B57FF"/>
</linearGradient>
<linearGradient id="paint7_linear_2108_61180" x1="29.8345" y1="39.8261" x2="35.39" y2="39.8261" gradientUnits="userSpaceOnUse">
<stop offset="0.0266187" stop-color="#4F46C6"/>
<stop offset="1" stop-color="#6B57FF"/>
</linearGradient>
<linearGradient id="paint8_linear_2108_61180" x1="2.9093" y1="26.5296" x2="42.3417" y2="48.3015" gradientUnits="userSpaceOnUse">
<stop offset="0.0266187" stop-color="#21D789"/>
<stop offset="0.6999" stop-color="#685CFA"/>
<stop offset="1" stop-color="#6B57FF"/>
</linearGradient>
<linearGradient id="paint9_linear_2108_61180" x1="-0.6855" y1="12.7865" x2="37.9796" y2="21.1984" gradientUnits="userSpaceOnUse">
<stop offset="0.2422" stop-color="#21D789"/>
<stop offset="0.4465" stop-color="#59A3B2"/>
<stop offset="0.7668" stop-color="#B74AF7"/>
<stop offset="1" stop-color="#FF45ED"/>
</linearGradient>
<linearGradient id="paint10_linear_2108_61180" x1="4.3215" y1="18.7546" x2="41.0572" y2="18.7546" gradientUnits="userSpaceOnUse">
<stop offset="0.1308" stop-color="#21D789"/>
<stop offset="0.3487" stop-color="#59A3B2"/>
<stop offset="0.6901" stop-color="#B74AF7"/>
<stop offset="1" stop-color="#FF45ED"/>
</linearGradient>
<linearGradient id="paint11_linear_2108_61180" x1="2.1731" y1="12.0449" x2="10.9375" y2="12.0449" gradientUnits="userSpaceOnUse">
<stop offset="0.3086" stop-color="#56D789"/>
<stop offset="0.9587" stop-color="#8DFC77"/>
<stop offset="1" stop-color="#91FF76"/>
</linearGradient>
<linearGradient id="paint12_linear_2108_61180" x1="16.939" y1="55.1092" x2="19.9575" y2="15.653" gradientUnits="userSpaceOnUse">
<stop stop-color="#21D789"/>
<stop offset="0.9961" stop-color="#6B57FF" stop-opacity="0"/>
</linearGradient>
<linearGradient id="paint13_linear_2108_61180" x1="4.9979" y1="26.4122" x2="7.7078" y2="38.2199" gradientUnits="userSpaceOnUse">
<stop offset="0.2061" stop-color="#6B57FF"/>
<stop offset="0.3273" stop-color="#6266F1"/>
<stop offset="0.5619" stop-color="#4B8FCC"/>
<stop offset="0.8839" stop-color="#26CF90"/>
<stop offset="0.9206" stop-color="#21D789"/>
</linearGradient>
<linearGradient id="paint14_linear_2108_61180" x1="1.5922" y1="31.9426" x2="12.8941" y2="40.7543" gradientUnits="userSpaceOnUse">
<stop offset="0.3086" stop-color="#56D789" stop-opacity="0"/>
<stop offset="0.9587" stop-color="#8DFC77" stop-opacity="0.9403"/>
<stop offset="1" stop-color="#91FF76"/>
</linearGradient>
<linearGradient id="paint15_linear_2108_61180" x1="35.9609" y1="22.0931" x2="43.6304" y2="22.0931" gradientUnits="userSpaceOnUse">
<stop offset="0.2609" stop-color="#B74AF7"/>
<stop offset="1" stop-color="#FF45ED"/>
</linearGradient>
<linearGradient id="paint16_linear_2108_61180" x1="42.1171" y1="34.6828" x2="39.7226" y2="31.1389" gradientUnits="userSpaceOnUse">
<stop stop-color="#FF72F1"/>
<stop offset="0.963" stop-color="#B74AF7"/>
</linearGradient>
<linearGradient id="paint17_linear_2108_61180" x1="42.4054" y1="37.9809" x2="37.808" y2="32.9046" gradientUnits="userSpaceOnUse">
<stop offset="0.668" stop-color="#FF72F1"/>
<stop offset="1" stop-color="#B74AF7"/>
</linearGradient>
<linearGradient id="paint18_linear_2108_61180" x1="17.7526" y1="-2.75859" x2="29.6272" y2="17.0713" gradientUnits="userSpaceOnUse">
<stop offset="0.1625" stop-color="#B74AF7" stop-opacity="0.5"/>
<stop offset="0.9989" stop-color="#00FF6A" stop-opacity="0"/>
</linearGradient>
<linearGradient id="paint19_linear_2108_61180" x1="35.7347" y1="21.1288" x2="26.7315" y2="10.21" gradientUnits="userSpaceOnUse">
<stop offset="0.2973" stop-color="#FF4FFF" stop-opacity="0.96"/>
<stop offset="0.9989" stop-color="#FF45ED" stop-opacity="0"/>
</linearGradient>
<linearGradient id="paint20_linear_2108_61180" x1="21.612" y1="10.4949" x2="22.5698" y2="5.13129" gradientUnits="userSpaceOnUse">
<stop stop-color="#FF4FFF" stop-opacity="0.96"/>
<stop offset="0.9928" stop-color="#FF45ED" stop-opacity="0"/>
</linearGradient>
<linearGradient id="paint21_linear_2108_61180" x1="33.2385" y1="5.46501" x2="28.7548" y2="10.6461" gradientUnits="userSpaceOnUse">
<stop offset="0.1209" stop-color="#A326F7"/>
<stop offset="0.9516" stop-color="#B74AF7" stop-opacity="0"/>
</linearGradient>
<linearGradient id="paint22_linear_2108_61180" x1="9.62387" y1="9.62387" x2="36.1344" y2="36.1344" gradientUnits="userSpaceOnUse">
<stop offset="0.0284813" stop-color="#007E67"/>
<stop offset="0.1121" stop-color="#005344"/>
<stop offset="0.1976" stop-color="#002F27"/>
<stop offset="0.2776" stop-color="#001511"/>
<stop offset="0.3494" stop-color="#000605"/>
<stop offset="0.4058"/>
<stop offset="0.9138"/>
</linearGradient>
<linearGradient id="paint23_linear_2108_61180" x1="21.0668" y1="41.0937" x2="6.8326" y2="31.3454" gradientUnits="userSpaceOnUse">
<stop offset="0.09839" stop-color="#6B57FF"/>
<stop offset="0.1176" stop-color="#685CFB"/>
<stop offset="0.3447" stop-color="#4A91CA"/>
<stop offset="0.5417" stop-color="#34B7A7"/>
<stop offset="0.6991" stop-color="#26CE91"/>
<stop offset="0.7971" stop-color="#21D789"/>
</linearGradient>
<linearGradient id="paint24_linear_2108_61180" x1="12.2244" y1="41.9698" x2="13.1587" y2="29.7577" gradientUnits="userSpaceOnUse">
<stop offset="0.0752688" stop-color="#21D789"/>
<stop offset="0.8874" stop-color="#6B57FF"/>
</linearGradient>
<linearGradient id="paint25_linear_2108_61180" x1="11.7878" y1="26.8484" x2="39.9466" y2="42.3958" gradientUnits="userSpaceOnUse">
<stop stop-color="#34B7A7"/>
<stop offset="0.8874" stop-color="#000069"/>
</linearGradient>
<linearGradient id="paint26_linear_2108_61180" x1="28.6105" y1="34.8245" x2="35.339" y2="34.8245" gradientUnits="userSpaceOnUse">
<stop offset="0.0266187" stop-color="#4F46C6"/>
<stop offset="1" stop-color="#1F2C61"/>
</linearGradient>
<linearGradient id="paint27_linear_2108_61180" x1="35.9078" y1="19.0144" x2="38.0001" y2="19.0144" gradientUnits="userSpaceOnUse">
<stop offset="0.2609" stop-color="#B74AF7"/>
<stop offset="1" stop-color="#FF45ED"/>
</linearGradient>
<linearGradient id="paint28_linear_2108_61180" x1="29.9959" y1="12.7242" x2="30.6666" y2="8.96806" gradientUnits="userSpaceOnUse">
<stop stop-color="#FF4FFF"/>
<stop offset="0.9928" stop-color="#FF75FF"/>
</linearGradient>
<linearGradient id="paint29_linear_2108_61180" x1="15.0021" y1="10.6197" x2="33.962" y2="33.5396" gradientUnits="userSpaceOnUse">
<stop stop-color="#20D185"/>
<stop offset="0.4429" stop-color="#198767"/>
<stop offset="0.844" stop-color="#12414A"/>
</linearGradient>
</defs>
</svg>
