<!-- Copyright 2000-2024 JetBrains s.r.o. and contributors. Use of this source code is governed by the Apache 2.0 license. -->
<svg width="48" height="48" viewBox="0 0 48 48" fill="none" xmlns="http://www.w3.org/2000/svg">
<g clip-path="url(#clip0_3917_59476)">
<path d="M3.05455 48H28.5308C29.7526 48 30.857 47.2717 31.3383 46.1489L43.3894 18.031C43.5521 17.6509 43.6364 17.2412 43.6364 16.8275V3.05455C43.6364 1.36756 42.2688 0 40.5818 0H27.1073C26.5039 0 25.9139 0.178909 25.4116 0.514036L1.36015 16.5661C0.510982 17.1329 0.00130909 18.086 0.00130909 19.1066L0 44.9455C0 46.6324 1.36756 48 3.05455 48Z" fill="url(#paint0_linear_3917_59476)"/>
<path d="M37.1123 43.6364H44.9473C46.6342 43.6364 48.0018 42.2688 48.0018 40.5818V30.7623C48.0018 30.6179 47.9913 30.4735 47.9713 30.3303L44.013 2.62255C43.7979 1.11753 42.5093 0 40.989 0H29.2342C27.5468 0 26.1793 1.368 26.1797 3.05542L26.1832 16.9593C26.1832 17.2874 26.236 17.6134 26.3398 17.9245L34.2145 41.5479C34.6303 42.7951 35.7976 43.6364 37.1123 43.6364Z" fill="url(#paint1_linear_3917_59476)"/>
<path d="M36.0394 43.636L44.946 43.6347C46.633 43.6347 48.0001 42.2671 48.0001 40.5802V31.9502C48.0001 31.0587 47.6104 30.2113 46.9336 29.6309L18.3125 5.09855C17.7588 4.62423 17.0536 4.36328 16.3244 4.36328H7.41783C5.73085 4.36328 4.36328 5.73084 4.36328 7.41783V16.0491C4.36328 16.9406 4.75295 17.788 5.42975 18.3684L34.0504 42.9003C34.6042 43.3751 35.3093 43.6356 36.0389 43.6356L36.0394 43.636Z" fill="#FF43F2"/>
<path d="M39 9H9V39H39V9Z" fill="black"/>
<path d="M25 33H13V35.0001H25V33Z" fill="white"/>
<path d="M13.0742 12.9967H17.2599C18.3016 12.9967 19.2335 13.2323 20.0556 13.7035C20.8827 14.1747 21.5294 14.8293 21.9955 15.6669C22.4613 16.4995 22.6943 17.442 22.6943 18.4942C22.6943 19.5464 22.4613 20.4917 21.9955 21.3294C21.5294 22.162 20.8827 22.8137 20.0556 23.2849C19.2335 23.7561 18.3016 23.9917 17.2599 23.9917H13.0742V12.9971V12.9967ZM17.2364 22.138C17.891 22.138 18.464 21.9916 18.9563 21.6983C19.4485 21.4047 19.828 20.9865 20.0951 20.4417C20.3623 19.8918 20.4957 19.243 20.4957 18.4942C20.4957 17.7453 20.3623 17.0991 20.0951 16.5542C19.828 16.0044 19.4485 15.5832 18.9563 15.29C18.464 14.9963 17.8906 14.8503 17.2364 14.8503H15.2182V22.1384H17.2364V22.138ZM29.2626 24.1802C28.2104 24.1802 27.2574 23.9336 26.4038 23.4418C25.5506 22.9441 24.8804 22.2638 24.3932 21.4001C23.9064 20.5313 23.6628 19.5624 23.6628 18.4942C23.6628 17.426 23.9064 16.46 24.3932 15.5963C24.88 14.7275 25.5502 14.0463 26.4038 13.5545C27.2574 13.0568 28.2099 12.8086 29.2626 12.8086C30.1162 12.8086 30.9013 12.9609 31.6186 13.2642C32.341 13.5676 32.9485 13.9946 33.4407 14.5445C33.938 15.0943 34.2863 15.7275 34.4853 16.4449H32.192C32.0246 16.0994 31.797 15.8007 31.5088 15.5496C31.2261 15.2933 30.8937 15.0969 30.5113 14.9606C30.1292 14.8192 29.7182 14.7485 29.2781 14.7485C28.629 14.7485 28.0425 14.9105 27.5191 15.2353C26.9957 15.5601 26.5847 16.0077 26.286 16.5782C25.9928 17.1437 25.8463 17.7827 25.8463 18.4946C25.8463 19.2064 25.9932 19.8485 26.286 20.4185C26.5843 20.984 26.9953 21.4287 27.5191 21.7535C28.0429 22.0783 28.629 22.2402 29.2781 22.2402C29.8802 22.2402 30.4246 22.1275 30.9118 21.9024C31.404 21.6777 31.794 21.3656 32.0818 20.968C32.37 20.5704 32.5244 20.1228 32.545 19.6251L32.553 19.8527H29.9694V18.1643H34.6263V19.0281C34.6263 19.997 34.3907 20.8737 33.9195 21.6588C33.4537 22.4392 32.8122 23.0539 31.9955 23.5045C31.184 23.9551 30.2731 24.1797 29.2626 24.1797V24.1802Z" fill="white"/>
</g>
<defs>
<linearGradient id="paint0_linear_3917_59476" x1="44.8333" y1="2.98647" x2="0.804652" y2="47.0151" gradientUnits="userSpaceOnUse">
<stop offset="0.28" stop-color="#7256FF"/>
<stop offset="0.66" stop-color="#00D980"/>
</linearGradient>
<linearGradient id="paint1_linear_3917_59476" x1="48.5398" y1="42.2841" x2="29.6095" y2="1.45396" gradientUnits="userSpaceOnUse">
<stop offset="0.3" stop-color="#FF43F2"/>
<stop offset="0.54" stop-color="#7256FF"/>
</linearGradient>
<clipPath id="clip0_3917_59476">
<rect width="48" height="48" fill="white"/>
</clipPath>
</defs>
</svg>
