<svg width="20" height="20" viewBox="0 0 20 20" fill="none" xmlns="http://www.w3.org/2000/svg">
<path d="M12.8333 0L13.9167 12.5833L5.16667 17.3333L0 4.08333L12.8333 0Z" fill="url(#paint0_linear_2108_61185)"/>
<path d="M7.41667 11.5L5.16667 17.3333L0 4.08331L7.41667 11.5Z" fill="url(#paint1_linear_2108_61185)"/>
<path d="M12.8333 0L13.25 7H7.5L5 2.5L12.8333 0Z" fill="url(#paint2_linear_2108_61185)"/>
<path d="M10.75 6.58333L20 4.75V13.5L13.6667 15.9167L11 13.5833L10.75 6.58333Z" fill="url(#paint3_linear_2108_61185)"/>
<path d="M19.9998 4.75L11.4165 14L12.8332 0L19.9998 4.75Z" fill="#21D789"/>
<path d="M20 4.74999L15.25 3.66666L13.5 16L20 13.5V4.74999Z" fill="url(#paint4_linear_2108_61185)"/>
<path d="M6.83325 4L13.2499 5L19.9999 13.5L13.4999 16L10.9999 13.5833L6.83325 4Z" fill="url(#paint5_linear_2108_61185)"/>
<path d="M4.08317 0L13.2498 5L10.0832 20H4.83317L0.166504 15.25L4.08317 0Z" fill="url(#paint6_linear_2108_61185)"/>
<path d="M7.33325 1.75L3.33325 3L1.83325 8.83333L5.16659 17.3333L11.4999 13.25L13.2499 5.16667V5L7.33325 1.75Z" fill="url(#paint7_linear_2108_61185)"/>
<path d="M11.9167 5.16667L13.2501 5L11.9167 5.16667Z" fill="url(#paint8_linear_2108_61185)"/>
<path d="M6.24984 12.5833L8.74984 5.5L4.08317 0L0.166504 15.25L6.24984 12.5833Z" fill="url(#paint9_linear_2108_61185)"/>
<path d="M4.83325 20L1.83325 16.9167L4.83325 20H10.0833H4.83325Z" fill="url(#paint10_linear_2108_61185)"/>
<path d="M1.83325 8.83333L3.99992 14.4167L5.16659 17.3333L7.41658 11.5L2.41659 6.5L1.83325 8.83333Z" fill="url(#paint11_linear_2108_61185)"/>
<path d="M6.24984 12.5833L10.0832 20H4.83317L0.166504 15.25L6.24984 12.5833Z" fill="url(#paint12_linear_2108_61185)"/>
<path d="M6.25 12.5833L10.0833 20L13.25 5L8.75 5.5L6.25 12.5833Z" fill="url(#paint13_linear_2108_61185)"/>
<path d="M11.3335 14L10.0835 20H4.8335L5.16683 17.3333L11.3335 14Z" fill="url(#paint14_linear_2108_61185)"/>
<path d="M5.16667 17.3333L7.91667 15.8333L6.25 12.5833L3.75 13.6667L5.16667 17.3333Z" fill="url(#paint15_linear_2108_61185)"/>
<path d="M7.91675 15.8333L10.0834 20L11.3334 14L7.91675 15.8333Z" fill="url(#paint16_linear_2108_61185)"/>
<path d="M4.08325 0L13.2499 5L11.0833 5.25L8.74992 5.5L4.08325 0Z" fill="url(#paint17_linear_2108_61185)"/>
<path d="M13.1667 5L7.33341 1.75L5.91675 2.16667L8.75008 5.5L11.0834 5.25L13.1667 5.08333V5Z" fill="url(#paint18_linear_2108_61185)"/>
<path d="M12.3335 5.16668L13.2502 5.00001L12.4168 4.58334L12.3335 5.16668Z" fill="url(#paint19_linear_2108_61185)"/>
<path d="M20 13.5L13.25 5L11.0833 5.25L8.75 5.5L20 13.5Z" fill="url(#paint20_linear_2108_61185)"/>
<path d="M12.0833 7.83333L15.0833 10L16.2499 8.83333L13.2499 5L12.3333 5.16667L12.0833 7.83333Z" fill="url(#paint21_linear_2108_61185)"/>
<path d="M14.4167 9.58333L20.0001 13.5L14.7501 7L14.4167 9.58333Z" fill="url(#paint22_linear_2108_61185)"/>
<path d="M20 13.5L13.5 16L11.4167 14L8.75 5.5L20 13.5Z" fill="url(#paint23_linear_2108_61185)"/>
<path d="M12.0832 7.83331L11.4165 14L15.0832 9.99998L12.0832 7.83331Z" fill="url(#paint24_linear_2108_61185)"/>
<path d="M13.5 16L20 13.5L14.4167 9.58334L13.5 16Z" fill="url(#paint25_linear_2108_61185)"/>
<path d="M11.4165 13.9167V14L14.2498 11L14.4165 9.58334L11.8332 10.1667L11.4165 13.9167Z" fill="url(#paint26_linear_2108_61185)"/>
<path d="M13.5 16L11.4167 14L8.75 5.5L13.5 16Z" fill="url(#paint27_linear_2108_61185)"/>
<path d="M11.4165 14L13.4998 16L11.6665 11.9167L11.4165 14Z" fill="url(#paint28_linear_2108_61185)"/>
<path d="M12.8332 0L11.4165 14L14.2498 11L15.2498 3.66667L12.8332 0Z" fill="url(#paint29_linear_2108_61185)"/>
<path d="M19.9999 4.75L15.2499 3.66667L12.8333 0L19.9999 4.75Z" fill="url(#paint30_linear_2108_61185)"/>
<path d="M16.6666 3.33334H3.33325V16.6667H16.6666V3.33334Z" fill="url(#paint31_linear_2108_61185)"/>
<path d="M9.97851 14.1505H4.98926V14.9892H9.97851V14.1505Z" fill="white"/>
<path d="M10 9.25008L10.6667 8.50008C11.0833 8.83341 11.5833 9.08341 12.1667 9.08341C12.5833 9.08341 12.9167 8.91675 12.9167 8.58341C12.9167 8.33341 12.75 8.16675 11.9167 7.91675C10.9167 7.66675 10.25 7.41675 10.25 6.41675C10.25 5.50008 11 4.91675 12 4.91675C12.75 4.91675 13.3333 5.16675 13.8333 5.58341L13.25 6.41675C12.8333 6.08341 12.3333 5.91675 11.9167 5.91675C11.5 5.91675 11.25 6.08341 11.25 6.33341C11.25 6.66675 11.5 6.75008 12.3333 7.00008C13.3333 7.25008 13.9167 7.66675 13.9167 8.50008C13.9167 9.50008 13.1667 10.0834 12.0833 10.0834C11.3333 10.0001 10.5833 9.75008 10 9.25008Z" fill="white"/>
<path d="M5 4.91675H6.91667C8.5 4.91675 9.58333 6.00008 9.58333 7.41675C9.58333 8.83341 8.5 9.91675 6.91667 9.91675H5V4.91675ZM6.08333 5.91675V8.91675H6.91667C7.83333 8.91675 8.41667 8.33341 8.41667 7.41675C8.41667 6.50008 7.83333 5.91675 6.91667 5.91675H6.08333V5.91675Z" fill="white"/>
<defs>
<linearGradient id="paint0_linear_2108_61185" x1="15.5395" y1="8.66325" x2="1.65075" y2="8.66325" gradientUnits="userSpaceOnUse">
<stop offset="0.0782105" stop-color="#21D789"/>
<stop offset="0.8726" stop-color="#FCF84A"/>
</linearGradient>
<linearGradient id="paint1_linear_2108_61185" x1="5.06575" y1="8.80473" x2="3.08358" y2="10.3047" gradientUnits="userSpaceOnUse">
<stop offset="0.0782105" stop-color="white"/>
<stop offset="0.8726" stop-color="#FCF84A"/>
</linearGradient>
<linearGradient id="paint2_linear_2108_61185" x1="10.3712" y1="2.88158" x2="12.3826" y2="-0.0475722" gradientUnits="userSpaceOnUse">
<stop offset="0.095296" stop-color="#BBF8AF" stop-opacity="0"/>
<stop offset="1" stop-color="#21FF79"/>
</linearGradient>
<linearGradient id="paint3_linear_2108_61185" x1="15.3613" y1="5.77375" x2="15.3613" y2="22.319" gradientUnits="userSpaceOnUse">
<stop stop-color="#21D789"/>
<stop offset="1" stop-color="#087CFA"/>
</linearGradient>
<linearGradient id="paint4_linear_2108_61185" x1="21.7087" y1="12.4926" x2="9.85608" y2="7.47024" gradientUnits="userSpaceOnUse">
<stop offset="0.0202374" stop-color="#21D789" stop-opacity="0"/>
<stop offset="1" stop-color="#00FF6A"/>
</linearGradient>
<linearGradient id="paint5_linear_2108_61185" x1="26.3252" y1="21.0049" x2="6.59208" y2="5.041" gradientUnits="userSpaceOnUse">
<stop offset="0.1049" stop-color="#21D789"/>
<stop offset="0.9668" stop-color="#087CFA"/>
</linearGradient>
<linearGradient id="paint6_linear_2108_61185" x1="17.2915" y1="-1.53942" x2="3.50692" y2="14.0833" gradientUnits="userSpaceOnUse">
<stop offset="0.2348" stop-color="#21D789"/>
<stop offset="0.7396" stop-color="#087CFA"/>
</linearGradient>
<linearGradient id="paint7_linear_2108_61185" x1="-0.144331" y1="4.13317" x2="7.70383" y2="10.0527" gradientUnits="userSpaceOnUse">
<stop offset="0.0782105" stop-color="#21D789"/>
<stop offset="0.8283" stop-color="#087CFA" stop-opacity="0"/>
</linearGradient>
<linearGradient id="paint8_linear_2108_61185" x1="12.5475" y1="5.16383" x2="12.8346" y2="4.80258" gradientUnits="userSpaceOnUse">
<stop offset="0.0782105" stop-color="#21D789" stop-opacity="0"/>
<stop offset="0.8726" stop-color="#01D0FF"/>
</linearGradient>
<linearGradient id="paint9_linear_2108_61185" x1="2.73409" y1="9.40342" x2="7.95642" y2="2.83167" gradientUnits="userSpaceOnUse">
<stop offset="0.3826" stop-color="#087CFA" stop-opacity="0"/>
<stop offset="1" stop-color="#01EFDB"/>
</linearGradient>
<linearGradient id="paint10_linear_2108_61185" x1="5.62684" y1="18.8548" x2="6.6355" y2="17.5855" gradientUnits="userSpaceOnUse">
<stop offset="0.0782105" stop-color="#21D789" stop-opacity="0"/>
<stop offset="0.8726" stop-color="#01D0FF"/>
</linearGradient>
<linearGradient id="paint11_linear_2108_61185" x1="4.74317" y1="6.07508" x2="4.636" y2="9.85192" gradientUnits="userSpaceOnUse">
<stop offset="0.0782105" stop-color="#21D789"/>
<stop offset="0.8283" stop-color="#087CFA" stop-opacity="0"/>
</linearGradient>
<linearGradient id="paint12_linear_2108_61185" x1="12.0371" y1="8.78659" x2="3.03709" y2="20.3312" gradientUnits="userSpaceOnUse">
<stop offset="0.2348" stop-color="#083FFA"/>
<stop offset="0.7396" stop-color="#087CFA"/>
</linearGradient>
<linearGradient id="paint13_linear_2108_61185" x1="5.26458" y1="1.1005" x2="14.0235" y2="16.6897" gradientUnits="userSpaceOnUse">
<stop offset="0.2458" stop-color="#083FFA"/>
<stop offset="0.9131" stop-color="#087CFA"/>
</linearGradient>
<linearGradient id="paint14_linear_2108_61185" x1="5.29108" y1="14.2377" x2="9.78825" y2="18.7348" gradientUnits="userSpaceOnUse">
<stop offset="0.2348" stop-color="#089FFF"/>
<stop offset="0.7396" stop-color="#087CFA" stop-opacity="0"/>
</linearGradient>
<linearGradient id="paint15_linear_2108_61185" x1="8.19108" y1="17.664" x2="5.22008" y2="14.4254" gradientUnits="userSpaceOnUse">
<stop offset="0.1526" stop-color="#0832FF"/>
<stop offset="0.9138" stop-color="#087CFA" stop-opacity="0"/>
</linearGradient>
<linearGradient id="paint16_linear_2108_61185" x1="12.4273" y1="19.0337" x2="8.812" y2="14.7548" gradientUnits="userSpaceOnUse">
<stop offset="0.1526" stop-color="#0832FF"/>
<stop offset="0.9138" stop-color="#087CFA" stop-opacity="0"/>
</linearGradient>
<linearGradient id="paint17_linear_2108_61185" x1="8.60242" y1="-4.48458" x2="8.72925" y2="6.1665" gradientUnits="userSpaceOnUse">
<stop offset="0.2348" stop-color="#21D789"/>
<stop offset="0.8246" stop-color="#087CFA"/>
</linearGradient>
<linearGradient id="paint18_linear_2108_61185" x1="9.49191" y1="3.12625" x2="9.21791" y2="0.592" gradientUnits="userSpaceOnUse">
<stop offset="0.095296" stop-color="#BBF8AF" stop-opacity="0"/>
<stop offset="1" stop-color="#21FF79"/>
</linearGradient>
<linearGradient id="paint19_linear_2108_61185" x1="13.0725" y1="5.41143" x2="12.1972" y2="4.39493" gradientUnits="userSpaceOnUse">
<stop stop-color="#21D789" stop-opacity="0"/>
<stop offset="0.9185" stop-color="#21D789"/>
</linearGradient>
<linearGradient id="paint20_linear_2108_61185" x1="17.8583" y1="14.7463" x2="11.1609" y2="4.70017" gradientUnits="userSpaceOnUse">
<stop offset="0.027928" stop-color="#21D789"/>
<stop offset="0.9294" stop-color="#0860FA"/>
</linearGradient>
<linearGradient id="paint21_linear_2108_61185" x1="14.2978" y1="9.42242" x2="13.5343" y2="3.79742" gradientUnits="userSpaceOnUse">
<stop offset="0.0757413" stop-color="#087CFA" stop-opacity="0"/>
<stop offset="1" stop-color="#21D789" stop-opacity="0.6"/>
</linearGradient>
<linearGradient id="paint22_linear_2108_61185" x1="16.2741" y1="10.2443" x2="12.5777" y2="5.14167" gradientUnits="userSpaceOnUse">
<stop offset="0.0757413" stop-color="#087CFA" stop-opacity="0"/>
<stop offset="1" stop-color="#4F46C6" stop-opacity="0.6"/>
</linearGradient>
<linearGradient id="paint23_linear_2108_61185" x1="16.8171" y1="15.4405" x2="10.1197" y2="5.39433" gradientUnits="userSpaceOnUse">
<stop stop-color="#18AFAF"/>
<stop offset="0.6591" stop-color="#0860FA"/>
<stop offset="0.9983" stop-color="#084CFA"/>
</linearGradient>
<linearGradient id="paint24_linear_2108_61185" x1="13.6255" y1="12.6151" x2="10.9738" y2="8.39631" gradientUnits="userSpaceOnUse">
<stop offset="0.0757413" stop-color="#087CFA" stop-opacity="0"/>
<stop offset="1" stop-color="#21D789" stop-opacity="0.6"/>
</linearGradient>
<linearGradient id="paint25_linear_2108_61185" x1="16.72" y1="14.7439" x2="12.4877" y2="10.7981" gradientUnits="userSpaceOnUse">
<stop offset="0.0757413" stop-color="#087CFA" stop-opacity="0"/>
<stop offset="1" stop-color="#21D789" stop-opacity="0.6"/>
</linearGradient>
<linearGradient id="paint26_linear_2108_61185" x1="12.5051" y1="11.366" x2="11.0419" y2="10.0019" gradientUnits="userSpaceOnUse">
<stop stop-color="#087CFA" stop-opacity="0"/>
<stop offset="0.8547" stop-color="#0841FA"/>
</linearGradient>
<linearGradient id="paint27_linear_2108_61185" x1="13.9476" y1="15.5702" x2="8.0305" y2="6.69458" gradientUnits="userSpaceOnUse">
<stop stop-color="#089CFA"/>
<stop offset="0.7396" stop-color="#083CFA"/>
</linearGradient>
<linearGradient id="paint28_linear_2108_61185" x1="13.5283" y1="15.96" x2="11.1931" y2="12.4571" gradientUnits="userSpaceOnUse">
<stop stop-color="#087CFA" stop-opacity="0"/>
<stop offset="0.9787" stop-color="#0860FA"/>
</linearGradient>
<linearGradient id="paint29_linear_2108_61185" x1="13.3452" y1="6.40725" x2="14.2827" y2="2.1215" gradientUnits="userSpaceOnUse">
<stop offset="0.3551" stop-color="#BBF8AF" stop-opacity="0"/>
<stop offset="1" stop-color="#21FF79"/>
</linearGradient>
<linearGradient id="paint30_linear_2108_61185" x1="12.4266" y1="0.28325" x2="17.9444" y2="4.435" gradientUnits="userSpaceOnUse">
<stop offset="0.0202374" stop-color="#BBF8AF" stop-opacity="0"/>
<stop offset="1" stop-color="#21FF79"/>
</linearGradient>
<linearGradient id="paint31_linear_2108_61185" x1="3.44539" y1="3.44548" x2="17.1221" y2="17.1221" gradientUnits="userSpaceOnUse">
<stop offset="0.0284813" stop-color="#002846"/>
<stop offset="0.1369" stop-color="#002038"/>
<stop offset="0.4947" stop-color="#000910"/>
<stop offset="0.6795"/>
</linearGradient>
</defs>
</svg>
