<!-- Copyright 2000-2024 JetBrains s.r.o. and contributors. Use of this source code is governed by the Apache 2.0 license. -->
<svg width="24" height="24" viewBox="0 0 24 24" fill="none" xmlns="http://www.w3.org/2000/svg">
<g clip-path="url(#clip0_3917_59480)">
<path d="M24 22.4725V9.73444C24 9.12353 23.6359 8.57131 23.0745 8.33066L9.01549 2.30513C8.82545 2.22375 8.62058 2.18164 8.41375 2.18164H1.52727C0.683782 2.18164 0 2.86542 0 3.70891V10.4461C0 10.7479 0.0894545 11.0429 0.257018 11.294L8.28327 23.3197C8.56647 23.7443 9.0432 23.9992 9.55353 23.9992L22.4727 23.9998C23.3162 23.9998 24 23.316 24 22.4725Z" fill="url(#paint0_linear_3917_59480)"/>
<path d="M21.8182 5.44473V1.52727C21.8182 0.683782 21.1344 0 20.2909 0H15.3812C15.3089 0 15.2367 0.00523636 15.1652 0.0152727L1.31127 1.9944C0.558982 2.10175 0 2.74625 0 3.50618V9.38356C0 10.2273 0.684 10.9111 1.52771 10.9108L8.47964 10.9091C8.64371 10.9091 8.80669 10.8827 8.96225 10.8308L20.774 6.89345C21.3975 6.68553 21.8182 6.10189 21.8182 5.44451V5.44473Z" fill="url(#paint1_linear_3917_59480)"/>
<path d="M21.82 5.98036L21.8193 1.52705C21.8191 0.683782 21.1353 0 20.292 0H15.977C15.5313 0 15.1076 0.194836 14.8174 0.533236L2.55123 14.8438C2.31407 15.1207 2.18359 15.4732 2.18359 15.8378V20.2911C2.18359 21.1346 2.86738 21.8184 3.71087 21.8184H8.0265C8.47225 21.8184 8.89596 21.6236 9.18614 21.2852L21.4523 6.97462C21.6897 6.69775 21.82 6.34516 21.82 5.98036Z" fill="#F0EB18"/>
<path d="M20 4H4V20H20V4Z" fill="black"/>
<path d="M6.17188 6.10149H8.44593C9.01188 6.10149 9.51816 6.22949 9.96479 6.48549C10.4142 6.74149 10.7655 7.09874 11.0187 7.55223C11.2718 8.00549 11.3984 8.51749 11.3984 9.08823C11.3984 9.65897 11.2718 10.171 11.0187 10.6295C10.7655 11.0827 10.4142 11.4347 9.96479 11.6907C9.51816 11.9467 9.01188 12.0747 8.44593 12.0747H6.17188V6.10149ZM8.43313 11.067C8.78879 11.067 9.1001 10.987 9.36753 10.827C9.63496 10.6722 9.84113 10.443 9.98628 10.1442C10.1314 9.84549 10.2039 9.49349 10.2039 9.08823C10.2039 8.68297 10.1314 8.33097 9.98628 8.03223C9.84113 7.73349 9.63496 7.50423 9.36753 7.34949C9.1001 7.18949 8.78856 7.10949 8.43313 7.10949H7.33668V11.0667H8.43313V11.067ZM14.1947 12.1762C13.7625 12.1762 13.3785 12.1015 13.0427 11.9415C12.7099 11.787 12.4482 11.5682 12.2576 11.2855C12.0699 11.0027 11.9732 10.6775 11.9675 10.3147H13.1367C13.1367 10.4855 13.1822 10.64 13.2731 10.768C13.3641 10.9013 13.4907 11.0027 13.6528 11.0773C13.8148 11.152 14.0014 11.1893 14.2116 11.1893C14.4219 11.1893 14.5899 11.152 14.7408 11.088C14.8944 11.0187 15.0126 10.928 15.0948 10.8053C15.1801 10.688 15.2228 10.5493 15.2228 10.4C15.2228 10.208 15.1646 10.048 15.048 9.92526C14.9342 9.79726 14.7764 9.712 14.5744 9.664L13.5204 9.42926C13.2361 9.36526 12.9886 9.25851 12.778 9.10926C12.5675 8.95451 12.4041 8.768 12.2873 8.544C12.1707 8.31474 12.1124 8.064 12.1124 7.78126C12.1124 7.44 12.2007 7.13577 12.3769 6.864C12.5534 6.592 12.7993 6.37874 13.115 6.22926C13.4306 6.07451 13.789 6 14.1902 6C14.5913 6 14.9595 6.07451 15.2782 6.21851C15.5968 6.36777 15.8443 6.57577 16.0206 6.83726C16.1998 7.09851 16.2907 7.40251 16.2937 7.744H15.1289C15.1289 7.6 15.0905 7.472 15.0137 7.35474C14.9369 7.23749 14.8274 7.152 14.6852 7.088C14.5458 7.024 14.3851 6.98674 14.2032 6.98674C14.0212 6.98674 13.8606 7.01874 13.7211 7.08274C13.5847 7.14149 13.4779 7.22674 13.4011 7.33874C13.3243 7.44549 13.2859 7.57349 13.2859 7.71749C13.2859 7.88274 13.3385 8.02149 13.4439 8.12823C13.552 8.23497 13.6985 8.31497 13.8834 8.35749L14.899 8.58149C15.192 8.64023 15.4523 8.75223 15.6798 8.92274C15.9102 9.088 16.0894 9.29074 16.2174 9.536C16.3454 9.776 16.4094 10.0427 16.4094 10.3307C16.4094 10.6827 16.3154 10.9975 16.1278 11.28C15.9428 11.5573 15.6827 11.7813 15.347 11.936C15.0114 12.096 14.6274 12.176 14.195 12.176L14.1947 12.1762Z" fill="white"/>
<path d="M12 17H6V18H12V17Z" fill="white"/>
</g>
<defs>
<linearGradient id="paint0_linear_3917_59480" x1="1.49324" y1="1.58317" x2="23.5076" y2="23.5975" gradientUnits="userSpaceOnUse">
<stop offset="0.28" stop-color="#007DFE"/>
<stop offset="0.73" stop-color="#00D980"/>
</linearGradient>
<linearGradient id="paint1_linear_3917_59480" x1="21.142" y1="-0.269018" x2="0.726983" y2="9.19615" gradientUnits="userSpaceOnUse">
<stop offset="0.32" stop-color="#F0EB18"/>
<stop offset="0.55" stop-color="#007DFE"/>
</linearGradient>
<clipPath id="clip0_3917_59480">
<rect width="24" height="24" fill="white"/>
</clipPath>
</defs>
</svg>
