<svg width="24" height="24" viewBox="0 0 24 24" fill="none" xmlns="http://www.w3.org/2000/svg">
<path d="M15.4 0L16.7 15.1L6.2 20.8L0 4.9L15.4 0Z" fill="url(#paint0_linear_2108_61184)"/>
<path d="M8.9 13.8L6.2 20.8L0 4.89999L8.9 13.8Z" fill="url(#paint1_linear_2108_61184)"/>
<path d="M15.4 0L15.9 8.4H9L6 3L15.4 0Z" fill="url(#paint2_linear_2108_61184)"/>
<path d="M12.8999 7.90001L23.9999 5.70001V16.2L16.3999 19.1L13.1999 16.3L12.8999 7.90001Z" fill="url(#paint3_linear_2108_61184)"/>
<path d="M24 5.7L13.7 16.8L15.4 0L24 5.7Z" fill="#21D789"/>
<path d="M24 5.69999L18.2999 4.39999L16.2 19.2L24 16.2V5.69999Z" fill="url(#paint4_linear_2108_61184)"/>
<path d="M8.19995 4.79999L15.9 5.99999L24 16.2L16.2 19.2L13.2 16.3L8.19995 4.79999Z" fill="url(#paint5_linear_2108_61184)"/>
<path d="M4.89995 0L15.9 6L12.1 24H5.79995L0.199951 18.3L4.89995 0Z" fill="url(#paint6_linear_2108_61184)"/>
<path d="M8.79995 2.10001L3.99995 3.60001L2.19995 10.6L6.19995 20.8L13.8 15.9L15.9 6.20001V6.00001L8.79995 2.10001Z" fill="url(#paint7_linear_2108_61184)"/>
<path d="M14.3 6.2L15.9 6L14.3 6.2Z" fill="url(#paint8_linear_2108_61184)"/>
<path d="M7.49995 15.1L10.5 6.6L4.89995 0L0.199951 18.3L7.49995 15.1Z" fill="url(#paint9_linear_2108_61184)"/>
<path d="M5.79995 24L2.19995 20.3L5.79995 24H12.1H5.79995Z" fill="url(#paint10_linear_2108_61184)"/>
<path d="M2.19995 10.6L4.79995 17.3L6.19995 20.8L8.89995 13.8L2.89995 7.79999L2.19995 10.6Z" fill="url(#paint11_linear_2108_61184)"/>
<path d="M7.49995 15.1L12.1 24H5.79995L0.199951 18.3L7.49995 15.1Z" fill="url(#paint12_linear_2108_61184)"/>
<path d="M7.5 15.1L12.1 24L15.9 6L10.5 6.6L7.5 15.1Z" fill="url(#paint13_linear_2108_61184)"/>
<path d="M13.6 16.8L12.1 24H5.80005L6.20005 20.8L13.6 16.8Z" fill="url(#paint14_linear_2108_61184)"/>
<path d="M6.2 20.8L9.5 19L7.5 15.1L4.5 16.4L6.2 20.8Z" fill="url(#paint15_linear_2108_61184)"/>
<path d="M9.5 19L12.1 24L13.6 16.8L9.5 19Z" fill="url(#paint16_linear_2108_61184)"/>
<path d="M4.8999 0L15.8999 6L13.2999 6.3L10.4999 6.6L4.8999 0Z" fill="url(#paint17_linear_2108_61184)"/>
<path d="M15.8001 6.00001L8.8001 2.10001L7.1001 2.60001L10.5001 6.60001L13.3001 6.30001L15.8001 6.10001V6.00001Z" fill="url(#paint18_linear_2108_61184)"/>
<path d="M14.8 6.2L15.9 6L14.9 5.5L14.8 6.2Z" fill="url(#paint19_linear_2108_61184)"/>
<path d="M24 16.2L15.9 6L13.3 6.3L10.5 6.6L24 16.2Z" fill="url(#paint20_linear_2108_61184)"/>
<path d="M14.5 9.4L18.1 12L19.5 10.6L15.9 6L14.8 6.2L14.5 9.4Z" fill="url(#paint21_linear_2108_61184)"/>
<path d="M17.3 11.5L24 16.2L17.7001 8.39999L17.3 11.5Z" fill="url(#paint22_linear_2108_61184)"/>
<path d="M24 16.2L16.2 19.2L13.7 16.8L10.5 6.60001L24 16.2Z" fill="url(#paint23_linear_2108_61184)"/>
<path d="M14.5 9.39999L13.7 16.8L18.1 12L14.5 9.39999Z" fill="url(#paint24_linear_2108_61184)"/>
<path d="M16.2 19.2L24 16.2L17.2999 11.5L16.2 19.2Z" fill="url(#paint25_linear_2108_61184)"/>
<path d="M13.7 16.7V16.8L17.1 13.2L17.3 11.5L14.2 12.2L13.7 16.7Z" fill="url(#paint26_linear_2108_61184)"/>
<path d="M16.2 19.2L13.7 16.8L10.5 6.60001L16.2 19.2Z" fill="url(#paint27_linear_2108_61184)"/>
<path d="M13.7 16.8L16.2 19.2L14 14.3L13.7 16.8Z" fill="url(#paint28_linear_2108_61184)"/>
<path d="M15.4 0L13.7 16.8L17.1 13.2L18.3 4.4L15.4 0Z" fill="url(#paint29_linear_2108_61184)"/>
<path d="M23.9999 5.7L18.2999 4.4L15.3999 0L23.9999 5.7Z" fill="url(#paint30_linear_2108_61184)"/>
<path d="M20 4H4V20H20V4Z" fill="url(#paint31_linear_2108_61184)"/>
<path d="M11.9742 16.9806H5.98706V17.987H11.9742V16.9806Z" fill="white"/>
<path d="M12 11.1001L12.8 10.2001C13.3 10.6001 13.9 10.9001 14.6 10.9001C15.1 10.9001 15.5 10.7001 15.5 10.3001C15.5 10.0001 15.3 9.80009 14.3 9.50009C13.1 9.20009 12.3 8.90009 12.3 7.70009C12.3 6.60009 13.2 5.90009 14.4 5.90009C15.3 5.90009 16 6.20009 16.6 6.70009L15.9 7.70009C15.4 7.30009 14.8 7.10009 14.3 7.10009C13.8 7.10009 13.5 7.30009 13.5 7.60009C13.5 8.00009 13.8 8.10009 14.8 8.40009C16 8.70009 16.7 9.20009 16.7 10.2001C16.7 11.4001 15.8 12.1001 14.5 12.1001C13.6 12.0001 12.7 11.7001 12 11.1001Z" fill="white"/>
<path d="M6 5.90009H8.3C10.2 5.90009 11.5 7.20009 11.5 8.90009C11.5 10.6001 10.2 11.9001 8.3 11.9001H6V5.90009ZM7.3 7.10009V10.7001H8.3C9.4 10.7001 10.1 10.0001 10.1 8.90009C10.1 7.80009 9.4 7.10009 8.3 7.10009H7.3V7.10009Z" fill="white"/>
<defs>
<linearGradient id="paint0_linear_2108_61184" x1="18.6474" y1="10.3959" x2="1.9809" y2="10.3959" gradientUnits="userSpaceOnUse">
<stop offset="0.0782105" stop-color="#21D789"/>
<stop offset="0.8726" stop-color="#FCF84A"/>
</linearGradient>
<linearGradient id="paint1_linear_2108_61184" x1="6.0789" y1="10.5657" x2="3.7003" y2="12.3657" gradientUnits="userSpaceOnUse">
<stop offset="0.0782105" stop-color="white"/>
<stop offset="0.8726" stop-color="#FCF84A"/>
</linearGradient>
<linearGradient id="paint2_linear_2108_61184" x1="12.4454" y1="3.4579" x2="14.8591" y2="-0.0570867" gradientUnits="userSpaceOnUse">
<stop offset="0.095296" stop-color="#BBF8AF" stop-opacity="0"/>
<stop offset="1" stop-color="#21FF79"/>
</linearGradient>
<linearGradient id="paint3_linear_2108_61184" x1="18.4335" y1="6.92851" x2="18.4335" y2="26.7828" gradientUnits="userSpaceOnUse">
<stop stop-color="#21D789"/>
<stop offset="1" stop-color="#087CFA"/>
</linearGradient>
<linearGradient id="paint4_linear_2108_61184" x1="26.0504" y1="14.9911" x2="11.8273" y2="8.9643" gradientUnits="userSpaceOnUse">
<stop offset="0.0202374" stop-color="#21D789" stop-opacity="0"/>
<stop offset="1" stop-color="#00FF6A"/>
</linearGradient>
<linearGradient id="paint5_linear_2108_61184" x1="31.5903" y1="25.2059" x2="7.91055" y2="6.04919" gradientUnits="userSpaceOnUse">
<stop offset="0.1049" stop-color="#21D789"/>
<stop offset="0.9668" stop-color="#087CFA"/>
</linearGradient>
<linearGradient id="paint6_linear_2108_61184" x1="20.75" y1="-1.8473" x2="4.20845" y2="16.8999" gradientUnits="userSpaceOnUse">
<stop offset="0.2348" stop-color="#21D789"/>
<stop offset="0.7396" stop-color="#087CFA"/>
</linearGradient>
<linearGradient id="paint7_linear_2108_61184" x1="-0.173149" y1="4.95981" x2="9.24465" y2="12.0633" gradientUnits="userSpaceOnUse">
<stop offset="0.0782105" stop-color="#21D789"/>
<stop offset="0.8283" stop-color="#087CFA" stop-opacity="0"/>
</linearGradient>
<linearGradient id="paint8_linear_2108_61184" x1="15.0569" y1="6.1966" x2="15.4014" y2="5.7631" gradientUnits="userSpaceOnUse">
<stop offset="0.0782105" stop-color="#21D789" stop-opacity="0"/>
<stop offset="0.8726" stop-color="#01D0FF"/>
</linearGradient>
<linearGradient id="paint9_linear_2108_61184" x1="3.28105" y1="11.2841" x2="9.54785" y2="3.398" gradientUnits="userSpaceOnUse">
<stop offset="0.3826" stop-color="#087CFA" stop-opacity="0"/>
<stop offset="1" stop-color="#01EFDB"/>
</linearGradient>
<linearGradient id="paint10_linear_2108_61184" x1="6.75225" y1="22.6258" x2="7.96265" y2="21.1026" gradientUnits="userSpaceOnUse">
<stop offset="0.0782105" stop-color="#21D789" stop-opacity="0"/>
<stop offset="0.8726" stop-color="#01D0FF"/>
</linearGradient>
<linearGradient id="paint11_linear_2108_61184" x1="5.69185" y1="7.29009" x2="5.56325" y2="11.8223" gradientUnits="userSpaceOnUse">
<stop offset="0.0782105" stop-color="#21D789"/>
<stop offset="0.8283" stop-color="#087CFA" stop-opacity="0"/>
</linearGradient>
<linearGradient id="paint12_linear_2108_61184" x1="14.4447" y1="10.5439" x2="3.64465" y2="24.3974" gradientUnits="userSpaceOnUse">
<stop offset="0.2348" stop-color="#083FFA"/>
<stop offset="0.7396" stop-color="#087CFA"/>
</linearGradient>
<linearGradient id="paint13_linear_2108_61184" x1="6.3175" y1="1.3206" x2="16.8282" y2="20.0277" gradientUnits="userSpaceOnUse">
<stop offset="0.2458" stop-color="#083FFA"/>
<stop offset="0.9131" stop-color="#087CFA"/>
</linearGradient>
<linearGradient id="paint14_linear_2108_61184" x1="6.34915" y1="17.0852" x2="11.7457" y2="22.4818" gradientUnits="userSpaceOnUse">
<stop offset="0.2348" stop-color="#089FFF"/>
<stop offset="0.7396" stop-color="#087CFA" stop-opacity="0"/>
</linearGradient>
<linearGradient id="paint15_linear_2108_61184" x1="9.8293" y1="21.1968" x2="6.2641" y2="17.3105" gradientUnits="userSpaceOnUse">
<stop offset="0.1526" stop-color="#0832FF"/>
<stop offset="0.9138" stop-color="#087CFA" stop-opacity="0"/>
</linearGradient>
<linearGradient id="paint16_linear_2108_61184" x1="14.9127" y1="22.8404" x2="10.5743" y2="17.7058" gradientUnits="userSpaceOnUse">
<stop offset="0.1526" stop-color="#0832FF"/>
<stop offset="0.9138" stop-color="#087CFA" stop-opacity="0"/>
</linearGradient>
<linearGradient id="paint17_linear_2108_61184" x1="10.3229" y1="-5.3815" x2="10.4751" y2="7.3998" gradientUnits="userSpaceOnUse">
<stop offset="0.2348" stop-color="#21D789"/>
<stop offset="0.8246" stop-color="#087CFA"/>
</linearGradient>
<linearGradient id="paint18_linear_2108_61184" x1="11.3903" y1="3.75151" x2="11.0615" y2="0.710406" gradientUnits="userSpaceOnUse">
<stop offset="0.095296" stop-color="#BBF8AF" stop-opacity="0"/>
<stop offset="1" stop-color="#21FF79"/>
</linearGradient>
<linearGradient id="paint19_linear_2108_61184" x1="15.6868" y1="6.4937" x2="14.6364" y2="5.2739" gradientUnits="userSpaceOnUse">
<stop stop-color="#21D789" stop-opacity="0"/>
<stop offset="0.9185" stop-color="#21D789"/>
</linearGradient>
<linearGradient id="paint20_linear_2108_61184" x1="21.43" y1="17.6956" x2="13.3931" y2="5.6402" gradientUnits="userSpaceOnUse">
<stop offset="0.027928" stop-color="#21D789"/>
<stop offset="0.9294" stop-color="#0860FA"/>
</linearGradient>
<linearGradient id="paint21_linear_2108_61184" x1="17.1574" y1="11.3069" x2="16.2413" y2="4.5569" gradientUnits="userSpaceOnUse">
<stop offset="0.0757413" stop-color="#087CFA" stop-opacity="0"/>
<stop offset="1" stop-color="#21D789" stop-opacity="0.6"/>
</linearGradient>
<linearGradient id="paint22_linear_2108_61184" x1="19.5288" y1="12.2932" x2="15.0931" y2="6.16999" gradientUnits="userSpaceOnUse">
<stop offset="0.0757413" stop-color="#087CFA" stop-opacity="0"/>
<stop offset="1" stop-color="#4F46C6" stop-opacity="0.6"/>
</linearGradient>
<linearGradient id="paint23_linear_2108_61184" x1="20.1805" y1="18.5286" x2="12.1436" y2="6.47321" gradientUnits="userSpaceOnUse">
<stop stop-color="#18AFAF"/>
<stop offset="0.6591" stop-color="#0860FA"/>
<stop offset="0.9983" stop-color="#084CFA"/>
</linearGradient>
<linearGradient id="paint24_linear_2108_61184" x1="16.3508" y1="15.1381" x2="13.1687" y2="10.0756" gradientUnits="userSpaceOnUse">
<stop offset="0.0757413" stop-color="#087CFA" stop-opacity="0"/>
<stop offset="1" stop-color="#21D789" stop-opacity="0.6"/>
</linearGradient>
<linearGradient id="paint25_linear_2108_61184" x1="20.064" y1="17.6927" x2="14.9852" y2="12.9577" gradientUnits="userSpaceOnUse">
<stop offset="0.0757413" stop-color="#087CFA" stop-opacity="0"/>
<stop offset="1" stop-color="#21D789" stop-opacity="0.6"/>
</linearGradient>
<linearGradient id="paint26_linear_2108_61184" x1="15.0063" y1="13.6392" x2="13.2505" y2="12.0023" gradientUnits="userSpaceOnUse">
<stop stop-color="#087CFA" stop-opacity="0"/>
<stop offset="0.8547" stop-color="#0841FA"/>
</linearGradient>
<linearGradient id="paint27_linear_2108_61184" x1="16.7371" y1="18.6843" x2="9.6366" y2="8.03351" gradientUnits="userSpaceOnUse">
<stop stop-color="#089CFA"/>
<stop offset="0.7396" stop-color="#083CFA"/>
</linearGradient>
<linearGradient id="paint28_linear_2108_61184" x1="16.2342" y1="19.152" x2="13.4319" y2="14.9485" gradientUnits="userSpaceOnUse">
<stop stop-color="#087CFA" stop-opacity="0"/>
<stop offset="0.9787" stop-color="#0860FA"/>
</linearGradient>
<linearGradient id="paint29_linear_2108_61184" x1="16.0144" y1="7.6887" x2="17.1394" y2="2.5458" gradientUnits="userSpaceOnUse">
<stop offset="0.3551" stop-color="#BBF8AF" stop-opacity="0"/>
<stop offset="1" stop-color="#21FF79"/>
</linearGradient>
<linearGradient id="paint30_linear_2108_61184" x1="14.9119" y1="0.3399" x2="21.5333" y2="5.322" gradientUnits="userSpaceOnUse">
<stop offset="0.0202374" stop-color="#BBF8AF" stop-opacity="0"/>
<stop offset="1" stop-color="#21FF79"/>
</linearGradient>
<linearGradient id="paint31_linear_2108_61184" x1="4.13456" y1="4.13456" x2="20.5466" y2="20.5466" gradientUnits="userSpaceOnUse">
<stop offset="0.0284813" stop-color="#002846"/>
<stop offset="0.1369" stop-color="#002038"/>
<stop offset="0.4947" stop-color="#000910"/>
<stop offset="0.6795"/>
</linearGradient>
</defs>
</svg>
