<!-- Copyright 2000-2024 JetBrains s.r.o. and contributors. Use of this source code is governed by the Apache 2.0 license. -->
<svg width="20" height="20" viewBox="0 0 20 20" fill="none" xmlns="http://www.w3.org/2000/svg">
<g clip-path="url(#clip0_3917_59481)">
<path d="M20 18.7274V8.11236C20 7.60327 19.6965 7.14309 19.2287 6.94254L7.51291 1.92127C7.35455 1.85345 7.18382 1.81836 7.01145 1.81836H1.27273C0.569818 1.81836 0 2.38818 0 3.09109V8.70545C0 8.9569 0.0745455 9.20272 0.214182 9.412L6.90273 19.4334C7.13873 19.7873 7.536 19.9996 7.96127 19.9996L18.7273 20.0002C19.4302 20.0002 20 19.4304 20 18.7274Z" fill="url(#paint0_linear_3917_59481)"/>
<path d="M18.1818 4.53727V1.27273C18.1818 0.569818 17.612 0 16.9091 0H12.8176C12.7575 0 12.6973 0.00436364 12.6376 0.0127273L1.09273 1.662C0.465818 1.75145 0 2.28855 0 2.92182V7.81964C0 8.52273 0.57 9.09254 1.27309 9.09236L7.06636 9.09091C7.20309 9.09091 7.33891 9.06891 7.46855 9.02564L17.3116 5.74455C17.8313 5.57127 18.1818 5.08491 18.1818 4.53709V4.53727Z" fill="url(#paint1_linear_3917_59481)"/>
<path d="M18.18 4.98364L18.1795 1.27255C18.1793 0.569818 17.6095 0 16.9068 0H13.311C12.9395 0 12.5864 0.162364 12.3446 0.444364L2.12277 12.3698C1.92513 12.6005 1.81641 12.8944 1.81641 13.1982V16.9093C1.81641 17.6122 2.38622 18.182 3.08913 18.182H6.6855C7.05695 18.182 7.41004 18.0196 7.65186 17.7376L17.8737 5.81218C18.0715 5.58145 18.18 5.28764 18.18 4.98364Z" fill="#F0EB18"/>
<path d="M16.6654 3.33398H3.33203V16.6673H16.6654V3.33398Z" fill="black"/>
<path d="M5.14453 5.08457H7.03958C7.5112 5.08457 7.9331 5.19124 8.30529 5.40457C8.67977 5.6179 8.97253 5.91562 9.18358 6.29352C9.39444 6.67124 9.49996 7.0979 9.49996 7.57352C9.49996 8.04914 9.39444 8.47581 9.18358 8.8579C8.97253 9.23562 8.67977 9.52895 8.30529 9.74228C7.9331 9.95562 7.5112 10.0623 7.03958 10.0623H5.14453V5.08457ZM7.02891 9.22248C7.32529 9.22248 7.58472 9.15581 7.80758 9.02248C8.03044 8.89352 8.20225 8.70248 8.3232 8.45352C8.44415 8.20457 8.50453 7.91124 8.50453 7.57352C8.50453 7.23581 8.44415 6.94248 8.3232 6.69352C8.20225 6.44457 8.03044 6.25352 7.80758 6.12457C7.58472 5.99124 7.3251 5.92457 7.02891 5.92457H6.1152V9.22229H7.02891V9.22248ZM11.8302 10.1469C11.4701 10.1469 11.1501 10.0846 10.8702 9.95124C10.5929 9.82248 10.3748 9.64019 10.216 9.40457C10.0596 9.16895 9.97901 8.8979 9.97425 8.59562H10.9485C10.9485 8.7379 10.9864 8.86667 11.0622 8.97333C11.1381 9.08438 11.2436 9.16895 11.3786 9.23105C11.5137 9.29333 11.6691 9.32438 11.8443 9.32438C12.0196 9.32438 12.1596 9.29333 12.2853 9.24C12.4133 9.18229 12.5118 9.10667 12.5803 9.00438C12.6514 8.90667 12.687 8.79105 12.687 8.66667C12.687 8.50667 12.6384 8.37333 12.5413 8.27105C12.4464 8.16438 12.315 8.09333 12.1466 8.05333L11.2683 7.85771C11.0314 7.80438 10.8251 7.71543 10.6497 7.59105C10.4742 7.4621 10.3381 7.30667 10.2407 7.12C10.1436 6.92895 10.095 6.72 10.095 6.48438C10.095 6.2 10.1685 5.94648 10.3154 5.72C10.4624 5.49333 10.6674 5.31562 10.9304 5.19105C11.1935 5.0621 11.4921 5 11.8264 5C12.1607 5 12.4676 5.0621 12.7331 5.1821C12.9986 5.30648 13.2049 5.47981 13.3518 5.69771C13.5011 5.91543 13.5769 6.16876 13.5794 6.45333H12.6087C12.6087 6.33333 12.5767 6.22667 12.5127 6.12895C12.4487 6.03124 12.3575 5.96 12.239 5.90667C12.1228 5.85333 11.9889 5.82229 11.8373 5.82229C11.6857 5.82229 11.5518 5.84895 11.4356 5.90229C11.3219 5.95124 11.2329 6.02229 11.1689 6.11562C11.1049 6.20457 11.0729 6.31124 11.0729 6.43124C11.0729 6.56895 11.1167 6.68457 11.2045 6.77352C11.2946 6.86248 11.4167 6.92914 11.5708 6.96457L12.4171 7.15124C12.6613 7.20019 12.8782 7.29352 13.0678 7.43562C13.2598 7.57333 13.4091 7.74229 13.5158 7.94667C13.6224 8.14667 13.6758 8.36895 13.6758 8.60895C13.6758 8.90228 13.5975 9.16457 13.4411 9.4C13.287 9.63105 13.0702 9.81771 12.7904 9.94667C12.5108 10.08 12.1908 10.1467 11.8304 10.1467L11.8302 10.1469Z" fill="white"/>
<path d="M10 14.166H5V14.9993H10V14.166Z" fill="white"/>
</g>
<defs>
<linearGradient id="paint0_linear_3917_59481" x1="1.24436" y1="1.31963" x2="19.5896" y2="19.6649" gradientUnits="userSpaceOnUse">
<stop offset="0.28" stop-color="#007DFE"/>
<stop offset="0.73" stop-color="#00D980"/>
</linearGradient>
<linearGradient id="paint1_linear_3917_59481" x1="17.6184" y1="-0.224181" x2="0.605819" y2="7.66346" gradientUnits="userSpaceOnUse">
<stop offset="0.32" stop-color="#F0EB18"/>
<stop offset="0.55" stop-color="#007DFE"/>
</linearGradient>
<clipPath id="clip0_3917_59481">
<rect width="20" height="20" fill="white"/>
</clipPath>
</defs>
</svg>
