<svg width="48" height="48" viewBox="0 0 48 48" fill="none" xmlns="http://www.w3.org/2000/svg">
<path d="M30.4 1.5L32.7 29.9L13.1 40.5L1.5 10.6L30.4 1.5Z" fill="url(#paint0_linear_2108_61183)"/>
<path d="M18.2 27.3L13.1 40.5L1.5 10.6L18.2 27.3Z" fill="url(#paint1_linear_2108_61183)"/>
<path d="M30.4 1.5L31.2999 17.2H18.5L12.7 7.1L30.4 1.5Z" fill="url(#paint2_linear_2108_61183)"/>
<path d="M25.6001 16.4L46.5001 12.2V31.9L32.2001 37.3L26.3001 32L25.6001 16.4Z" fill="url(#paint3_linear_2108_61183)"/>
<path d="M46.5 12.2L27.2 33.1L30.4 1.5L46.5 12.2Z" fill="#21D789"/>
<path d="M46.4999 12.2L35.7999 9.70001L31.8999 37.6L46.4999 31.9V12.2Z" fill="url(#paint4_linear_2108_61183)"/>
<path d="M16.8999 10.6L31.2999 12.8L46.4999 31.9L31.8999 37.6L26.2999 32L16.8999 10.6Z" fill="url(#paint5_linear_2108_61183)"/>
<path d="M10.7999 1.5L31.2999 12.8L24.1999 46.5H12.2999L1.8999 35.8L10.7999 1.5Z" fill="url(#paint6_linear_2108_61183)"/>
<path d="M17.9 5.39999L8.99995 8.19999L5.69995 21.3L13.1 40.5L27.4 31.3L31.2999 13V12.8L17.9 5.39999Z" fill="url(#paint7_linear_2108_61183)"/>
<path d="M28.2998 13.2L31.2998 12.8L28.2998 13.2Z" fill="url(#paint8_linear_2108_61183)"/>
<path d="M15.5999 29.9L21.1999 13.9L10.7999 1.5L1.8999 35.8L15.5999 29.9Z" fill="url(#paint9_linear_2108_61183)"/>
<path d="M12.3 46.5L5.5 39.5L12.3 46.5H24.2H12.3Z" fill="url(#paint10_linear_2108_61183)"/>
<path d="M5.69995 21.3L10.6 34L13.1 40.5L18.2 27.3L6.99995 16.1L5.69995 21.3Z" fill="url(#paint11_linear_2108_61183)"/>
<path d="M15.5999 29.9L24.1999 46.5H12.2999L1.8999 35.8L15.5999 29.9Z" fill="url(#paint12_linear_2108_61183)"/>
<path d="M15.6001 29.9L24.2001 46.5L31.3001 12.8L21.2001 13.9L15.6001 29.9Z" fill="url(#paint13_linear_2108_61183)"/>
<path d="M27 33L24.2 46.5H12.3L13.1 40.4L27 33Z" fill="url(#paint14_linear_2108_61183)"/>
<path d="M13.0999 40.5L19.3999 37.1L15.5999 29.9L9.8999 32.3L13.0999 40.5Z" fill="url(#paint15_linear_2108_61183)"/>
<path d="M19.3999 37.1L24.1999 46.5L26.9999 33L19.3999 37.1Z" fill="url(#paint16_linear_2108_61183)"/>
<path d="M10.8 1.5L31.3 12.8L26.5 13.4L21.2 13.9L10.8 1.5Z" fill="url(#paint17_linear_2108_61183)"/>
<path d="M31.0999 12.7L17.8999 5.39999L14.8999 6.39999L21.1999 13.9L26.4999 13.4L31.0999 12.9V12.7Z" fill="url(#paint18_linear_2108_61183)"/>
<path d="M29.2 13.1L31.2999 12.8L29.4 11.8L29.2 13.1Z" fill="url(#paint19_linear_2108_61183)"/>
<path d="M46.5 31.9L31.2999 12.8L26.5 13.4L21.2 13.9L46.5 31.9Z" fill="url(#paint20_linear_2108_61183)"/>
<path d="M28.6001 19.2L35.5001 24.1L38.1001 21.3L31.3001 12.8L29.2001 13.1L28.6001 19.2Z" fill="url(#paint21_linear_2108_61183)"/>
<path d="M34 23L46.5 31.9L34.8 17.2L34 23Z" fill="url(#paint22_linear_2108_61183)"/>
<path d="M46.5 31.9L31.9 37.6L27.2 33.1L21.2 13.9L46.5 31.9Z" fill="url(#paint23_linear_2108_61183)"/>
<path d="M28.6 19.2L27.2 33.1L35.5 24.1L28.6 19.2Z" fill="url(#paint24_linear_2108_61183)"/>
<path d="M31.8999 37.6L46.4999 31.9L33.9999 23L31.8999 37.6Z" fill="url(#paint25_linear_2108_61183)"/>
<path d="M27.2 32.9L27.2999 33L33.5 26.2L34 23L28.1 24.4L27.2 32.9Z" fill="url(#paint26_linear_2108_61183)"/>
<path d="M31.9 37.6L27.2 33.1L21.2 13.9L31.9 37.6Z" fill="url(#paint27_linear_2108_61183)"/>
<path d="M27.2 33.1L31.9 37.6L27.7 28.2L27.2 33.1Z" fill="url(#paint28_linear_2108_61183)"/>
<path d="M30.4 1.5L27.2 33.1L33.5 26.2L35.7999 9.7L30.4 1.5Z" fill="url(#paint29_linear_2108_61183)"/>
<path d="M46.4999 12.2L35.7999 9.7L30.3999 1.5L46.4999 12.2Z" fill="url(#paint30_linear_2108_61183)"/>
<path d="M38 10H10V38H38V10Z" fill="url(#paint31_linear_2108_61183)"/>
<g opacity="0.3">
<path opacity="0.3" d="M10 32.5L12.1 38H16.9L32.5 29.6L30.9 10H10V32.5Z" fill="url(#paint32_linear_2108_61183)"/>
<path opacity="0.3" d="M29.3 10L27 32.8L33.3 25.9L35.5 10H29.3Z" fill="url(#paint33_linear_2108_61183)"/>
<path opacity="0.3" d="M38 10.1L37.7999 10H35.5L31.7 37.3L38 34.8V10.1Z" fill="url(#paint34_linear_2108_61183)"/>
<path opacity="0.3" d="M38 25.8L21 13.7L27 32.8L31.7 37.3L38 34.8V25.8Z" fill="url(#paint35_linear_2108_61183)"/>
<path opacity="0.3" d="M10 38H25.7L31.1 12.6L26.3 10H10V38Z" fill="url(#paint36_linear_2108_61183)"/>
<path opacity="0.3" d="M10 31.9L15.5 29.6L21 13.7L17.9 10H10V31.9Z" fill="url(#paint37_linear_2108_61183)"/>
<path opacity="0.3" d="M20.9999 13.7L26.2999 13.1L31.0999 12.6L30.7999 12.5L26.9999 10.4L26.2999 10H17.8999L20.9999 13.7Z" fill="url(#paint38_linear_2108_61183)"/>
</g>
<path d="M24 32.6999H13.5V34.3999H24V32.6999Z" fill="white"/>
<path d="M13.2 13.2004H17.3C20.6 13.2004 22.9 15.5004 22.9 18.4004C22.9 21.4004 20.6 23.6004 17.3 23.6004H13.2V13.2004ZM15.5 15.3004V21.6004H17.3C19.2 21.6004 20.5 20.3004 20.5 18.5004C20.5 16.6004 19.2 15.3004 17.3 15.3004H15.5V15.3004Z" fill="white"/>
<path d="M23.7 22.2004L25.1 20.6004C26.1 21.4004 27 21.9004 28.3 21.9004C29.3 21.9004 29.8 21.5004 29.8 20.9004C29.8 20.3004 29.4 20.0004 27.7 19.6004C25.6 19.1004 24.2 18.5004 24.2 16.4004C24.2 14.5004 25.7 13.2004 27.9 13.2004C29.4 13.2004 30.8 13.7004 31.8 14.5004L30.6 16.3004C29.7 15.6004 28.7 15.3004 27.9 15.3004C27 15.3004 26.5 15.7004 26.5 16.2004C26.5 16.9004 27 17.1004 28.8 17.6004C30.9 18.2004 32.2 18.9004 32.2 20.8004C32.2 22.9004 30.6 24.1004 28.3 24.1004C26.6 23.9004 25 23.3004 23.7 22.2004Z" fill="white"/>
<defs>
<linearGradient id="paint0_linear_2108_61183" x1="36.4648" y1="20.9924" x2="5.2148" y2="20.9924" gradientUnits="userSpaceOnUse">
<stop offset="0.0782105" stop-color="#21D789"/>
<stop offset="0.8726" stop-color="#FCF84A"/>
</linearGradient>
<linearGradient id="paint1_linear_2108_61183" x1="12.8979" y1="21.3106" x2="8.4381" y2="24.6856" gradientUnits="userSpaceOnUse">
<stop offset="0.0782105" stop-color="white"/>
<stop offset="0.8726" stop-color="#FCF84A"/>
</linearGradient>
<linearGradient id="paint2_linear_2108_61183" x1="24.8352" y1="7.9835" x2="29.3609" y2="1.393" gradientUnits="userSpaceOnUse">
<stop offset="0.095296" stop-color="#BBF8AF" stop-opacity="0"/>
<stop offset="1" stop-color="#21FF79"/>
</linearGradient>
<linearGradient id="paint3_linear_2108_61183" x1="36.0636" y1="14.4908" x2="36.0636" y2="51.7177" gradientUnits="userSpaceOnUse">
<stop stop-color="#21D789"/>
<stop offset="1" stop-color="#087CFA"/>
</linearGradient>
<linearGradient id="paint4_linear_2108_61183" x1="50.3445" y1="29.6082" x2="23.6761" y2="18.308" gradientUnits="userSpaceOnUse">
<stop offset="0.0202374" stop-color="#21D789" stop-opacity="0"/>
<stop offset="1" stop-color="#00FF6A"/>
</linearGradient>
<linearGradient id="paint5_linear_2108_61183" x1="60.7323" y1="48.7611" x2="16.3324" y2="12.8422" gradientUnits="userSpaceOnUse">
<stop offset="0.1049" stop-color="#21D789"/>
<stop offset="0.9668" stop-color="#087CFA"/>
</linearGradient>
<linearGradient id="paint6_linear_2108_61183" x1="40.4066" y1="-1.9637" x2="9.391" y2="33.1873" gradientUnits="userSpaceOnUse">
<stop offset="0.2348" stop-color="#21D789"/>
<stop offset="0.7396" stop-color="#087CFA"/>
</linearGradient>
<linearGradient id="paint7_linear_2108_61183" x1="1.17535" y1="10.7996" x2="18.8338" y2="24.1187" gradientUnits="userSpaceOnUse">
<stop offset="0.0782105" stop-color="#21D789"/>
<stop offset="0.8283" stop-color="#087CFA" stop-opacity="0"/>
</linearGradient>
<linearGradient id="paint8_linear_2108_61183" x1="29.7314" y1="13.1187" x2="30.3774" y2="12.3057" gradientUnits="userSpaceOnUse">
<stop offset="0.0782105" stop-color="#21D789" stop-opacity="0"/>
<stop offset="0.8726" stop-color="#01D0FF"/>
</linearGradient>
<linearGradient id="paint9_linear_2108_61183" x1="7.652" y1="22.6577" x2="19.4022" y2="7.8713" gradientUnits="userSpaceOnUse">
<stop offset="0.3826" stop-color="#087CFA" stop-opacity="0"/>
<stop offset="1" stop-color="#01EFDB"/>
</linearGradient>
<linearGradient id="paint10_linear_2108_61183" x1="14.1605" y1="43.9234" x2="16.4301" y2="41.0674" gradientUnits="userSpaceOnUse">
<stop offset="0.0782105" stop-color="#21D789" stop-opacity="0"/>
<stop offset="0.8726" stop-color="#01D0FF"/>
</linearGradient>
<linearGradient id="paint11_linear_2108_61183" x1="12.1723" y1="15.169" x2="11.9312" y2="23.6668" gradientUnits="userSpaceOnUse">
<stop offset="0.0782105" stop-color="#21D789"/>
<stop offset="0.8283" stop-color="#087CFA" stop-opacity="0"/>
</linearGradient>
<linearGradient id="paint12_linear_2108_61183" x1="28.5837" y1="21.2697" x2="8.3337" y2="47.2451" gradientUnits="userSpaceOnUse">
<stop offset="0.2348" stop-color="#083FFA"/>
<stop offset="0.7396" stop-color="#087CFA"/>
</linearGradient>
<linearGradient id="paint13_linear_2108_61183" x1="13.3454" y1="3.97619" x2="33.0529" y2="39.052" gradientUnits="userSpaceOnUse">
<stop offset="0.2458" stop-color="#083FFA"/>
<stop offset="0.9131" stop-color="#087CFA"/>
</linearGradient>
<linearGradient id="paint14_linear_2108_61183" x1="13.4046" y1="33.5348" x2="23.5231" y2="43.6533" gradientUnits="userSpaceOnUse">
<stop offset="0.2348" stop-color="#089FFF"/>
<stop offset="0.7396" stop-color="#087CFA" stop-opacity="0"/>
</linearGradient>
<linearGradient id="paint15_linear_2108_61183" x1="19.9298" y1="41.244" x2="13.2452" y2="33.9571" gradientUnits="userSpaceOnUse">
<stop offset="0.1526" stop-color="#0832FF"/>
<stop offset="0.9138" stop-color="#087CFA" stop-opacity="0"/>
</linearGradient>
<linearGradient id="paint16_linear_2108_61183" x1="29.4612" y1="44.3256" x2="21.3266" y2="34.6984" gradientUnits="userSpaceOnUse">
<stop offset="0.1526" stop-color="#0832FF"/>
<stop offset="0.9138" stop-color="#087CFA" stop-opacity="0"/>
</linearGradient>
<linearGradient id="paint17_linear_2108_61183" x1="20.8556" y1="-8.5903" x2="21.1409" y2="15.3747" gradientUnits="userSpaceOnUse">
<stop offset="0.2348" stop-color="#21D789"/>
<stop offset="0.8246" stop-color="#087CFA"/>
</linearGradient>
<linearGradient id="paint18_linear_2108_61183" x1="22.8565" y1="8.53409" x2="22.24" y2="2.83209" gradientUnits="userSpaceOnUse">
<stop offset="0.095296" stop-color="#BBF8AF" stop-opacity="0"/>
<stop offset="1" stop-color="#21FF79"/>
</linearGradient>
<linearGradient id="paint19_linear_2108_61183" x1="30.9127" y1="13.6757" x2="28.9432" y2="11.3886" gradientUnits="userSpaceOnUse">
<stop stop-color="#21D789" stop-opacity="0"/>
<stop offset="0.9185" stop-color="#21D789"/>
</linearGradient>
<linearGradient id="paint20_linear_2108_61183" x1="41.6813" y1="34.6792" x2="26.6121" y2="12.0754" gradientUnits="userSpaceOnUse">
<stop offset="0.027928" stop-color="#21D789"/>
<stop offset="0.9294" stop-color="#0860FA"/>
</linearGradient>
<linearGradient id="paint21_linear_2108_61183" x1="33.6702" y1="22.7003" x2="31.9526" y2="10.0441" gradientUnits="userSpaceOnUse">
<stop offset="0.0757413" stop-color="#087CFA" stop-opacity="0"/>
<stop offset="1" stop-color="#21D789" stop-opacity="0.6"/>
</linearGradient>
<linearGradient id="paint22_linear_2108_61183" x1="38.1165" y1="24.5497" x2="29.7996" y2="13.0687" gradientUnits="userSpaceOnUse">
<stop offset="0.0757413" stop-color="#087CFA" stop-opacity="0"/>
<stop offset="1" stop-color="#4F46C6" stop-opacity="0.6"/>
</linearGradient>
<linearGradient id="paint23_linear_2108_61183" x1="39.3384" y1="36.2412" x2="24.2692" y2="13.6373" gradientUnits="userSpaceOnUse">
<stop stop-color="#18AFAF"/>
<stop offset="0.6591" stop-color="#0860FA"/>
<stop offset="0.9983" stop-color="#084CFA"/>
</linearGradient>
<linearGradient id="paint24_linear_2108_61183" x1="32.1578" y1="29.8838" x2="26.1913" y2="20.3917" gradientUnits="userSpaceOnUse">
<stop offset="0.0757413" stop-color="#087CFA" stop-opacity="0"/>
<stop offset="1" stop-color="#21D789" stop-opacity="0.6"/>
</linearGradient>
<linearGradient id="paint25_linear_2108_61183" x1="39.12" y1="34.6737" x2="29.5972" y2="25.7957" gradientUnits="userSpaceOnUse">
<stop offset="0.0757413" stop-color="#087CFA" stop-opacity="0"/>
<stop offset="1" stop-color="#21D789" stop-opacity="0.6"/>
</linearGradient>
<linearGradient id="paint26_linear_2108_61183" x1="29.6368" y1="27.0735" x2="26.3447" y2="24.0043" gradientUnits="userSpaceOnUse">
<stop stop-color="#087CFA" stop-opacity="0"/>
<stop offset="0.8547" stop-color="#0841FA"/>
</linearGradient>
<linearGradient id="paint27_linear_2108_61183" x1="32.882" y1="36.5331" x2="19.5685" y2="16.5628" gradientUnits="userSpaceOnUse">
<stop stop-color="#089CFA"/>
<stop offset="0.7396" stop-color="#083CFA"/>
</linearGradient>
<linearGradient id="paint28_linear_2108_61183" x1="31.939" y1="37.41" x2="26.6848" y2="29.5285" gradientUnits="userSpaceOnUse">
<stop stop-color="#087CFA" stop-opacity="0"/>
<stop offset="0.9787" stop-color="#0860FA"/>
</linearGradient>
<linearGradient id="paint29_linear_2108_61183" x1="31.5271" y1="15.9162" x2="33.6364" y2="6.2734" gradientUnits="userSpaceOnUse">
<stop offset="0.3551" stop-color="#BBF8AF" stop-opacity="0"/>
<stop offset="1" stop-color="#21FF79"/>
</linearGradient>
<linearGradient id="paint30_linear_2108_61183" x1="29.4599" y1="2.1373" x2="41.875" y2="11.4788" gradientUnits="userSpaceOnUse">
<stop offset="0.0202374" stop-color="#BBF8AF" stop-opacity="0"/>
<stop offset="1" stop-color="#21FF79"/>
</linearGradient>
<linearGradient id="paint31_linear_2108_61183" x1="10.2355" y1="10.2355" x2="38.9565" y2="38.9565" gradientUnits="userSpaceOnUse">
<stop offset="0.0284813" stop-color="#002846"/>
<stop offset="0.1369" stop-color="#002038"/>
<stop offset="0.4947" stop-color="#000910"/>
<stop offset="0.6795"/>
</linearGradient>
<linearGradient id="paint32_linear_2108_61183" x1="7.3244" y1="24" x2="29.8334" y2="24" gradientUnits="userSpaceOnUse">
<stop offset="0.0782105" stop-color="#21D789"/>
<stop offset="0.8726" stop-color="#FCF84A"/>
</linearGradient>
<linearGradient id="paint33_linear_2108_61183" x1="31.5777" y1="30.9556" x2="30.751" y2="8.0254" gradientUnits="userSpaceOnUse">
<stop stop-color="#218640"/>
<stop offset="0.8027" stop-color="#B5FA59"/>
</linearGradient>
<linearGradient id="paint34_linear_2108_61183" x1="34.3612" y1="11.6434" x2="35.5946" y2="42.4785" gradientUnits="userSpaceOnUse">
<stop offset="0.2348" stop-color="#21D789"/>
<stop offset="1" stop-color="#083450"/>
</linearGradient>
<linearGradient id="paint35_linear_2108_61183" x1="36.5361" y1="35.3468" x2="22.5211" y2="14.3242" gradientUnits="userSpaceOnUse">
<stop stop-color="#021A43"/>
<stop offset="0.6591" stop-color="#0860FA"/>
</linearGradient>
<linearGradient id="paint36_linear_2108_61183" x1="18.8998" y1="1.5668" x2="21.6235" y2="40.8301" gradientUnits="userSpaceOnUse">
<stop offset="0.2348" stop-color="#21D789"/>
<stop offset="0.7396" stop-color="#083450"/>
</linearGradient>
<linearGradient id="paint37_linear_2108_61183" x1="16.472" y1="31.9829" x2="14.0566" y2="9.2677" gradientUnits="userSpaceOnUse">
<stop offset="0.2268" stop-color="#086C93"/>
<stop offset="0.8196" stop-color="#01EFDB"/>
</linearGradient>
<linearGradient id="paint38_linear_2108_61183" x1="18.9036" y1="10.3512" x2="32.6988" y2="14.6622" gradientUnits="userSpaceOnUse">
<stop offset="0.2508" stop-color="#21D789"/>
<stop offset="0.8847" stop-color="#0C515A"/>
</linearGradient>
</defs>
</svg>
