<!-- Copyright 2000-2024 JetBrains s.r.o. and contributors. Use of this source code is governed by the Apache 2.0 license. -->
<svg width="48" height="48" viewBox="0 0 48 48" fill="none" xmlns="http://www.w3.org/2000/svg">
<g clip-path="url(#clip0_3917_59479)">
<path d="M48 44.9451V19.4689C48 18.2471 47.2717 17.1426 46.1489 16.6613L18.031 4.61026C17.6509 4.4475 17.2412 4.36328 16.8275 4.36328H3.05455C1.36756 4.36328 0 5.73084 0 7.41783V20.8923C0 21.4958 0.178909 22.0858 0.514036 22.588L16.5665 46.6395C17.1329 47.4887 18.0864 47.9983 19.1071 47.9983L44.9455 47.9996C46.6324 47.9996 48 46.6321 48 44.9451Z" fill="url(#paint0_linear_3917_59479)"/>
<path d="M43.6364 10.8895V3.05455C43.6364 1.36756 42.2688 0 40.5818 0H30.7623C30.6179 0 30.4735 0.0104727 30.3303 0.0305455L2.62255 3.9888C1.11796 4.20349 0 5.49251 0 7.01236V18.7671C0 20.4545 1.368 21.8221 3.05542 21.8217L16.9593 21.8182C17.2874 21.8182 17.6134 21.7654 17.9245 21.6615L41.5479 13.7869C42.7951 13.3711 43.6364 12.2038 43.6364 10.889V10.8895Z" fill="url(#paint1_linear_3917_59479)"/>
<path d="M43.636 11.9607L43.6347 3.05411C43.6343 1.36756 42.2667 0 40.5802 0H31.9502C31.0587 0 30.2113 0.389673 29.6309 1.06647L5.09855 29.6876C4.62423 30.2413 4.36328 30.9465 4.36328 31.6756V40.5823C4.36328 42.2692 5.73084 43.6368 7.41783 43.6368H16.0491C16.9406 43.6368 17.788 43.2471 18.3684 42.5703L42.9007 13.9492C43.3755 13.3955 43.636 12.6903 43.636 11.9607Z" fill="#F0EB18"/>
<path d="M39 9H9V39H39V9Z" fill="black"/>
<path d="M25 33H13V35.0001H25V33Z" fill="white"/>
<path d="M13.0742 12.9974H17.2612C18.3032 12.9974 19.2353 13.2331 20.0577 13.7044C20.885 14.1758 21.5319 14.8335 21.9982 15.6685C22.464 16.503 22.6972 17.4457 22.6972 18.4965C22.6972 19.5474 22.464 20.4901 21.9982 21.3343C21.5319 22.1688 20.885 22.8169 20.0577 23.2882C19.2353 23.7596 18.3032 23.9953 17.2612 23.9953H13.0742V12.9974ZM17.2376 22.1398C17.8924 22.1398 18.4656 21.9925 18.958 21.6979C19.4504 21.413 19.83 20.9909 20.0972 20.4408C20.3645 19.8908 20.4979 19.2427 20.4979 18.4965C20.4979 17.7504 20.3645 17.1023 20.0972 16.5522C19.83 16.0022 19.4504 15.5801 18.958 15.2952C18.4656 15.0006 17.892 14.8533 17.2376 14.8533H15.2188V22.1393L17.2376 22.1398ZM27.8458 24.1821C27.0499 24.1821 26.3429 24.0445 25.7247 23.7499C25.112 23.4654 24.6301 23.0627 24.2791 22.5421C23.9336 22.0215 23.7556 21.4226 23.7451 20.7548H25.8977C25.8977 21.0691 25.9814 21.3536 26.1489 21.5893C26.3164 21.8347 26.5496 22.0215 26.8479 22.1587C27.1463 22.2963 27.4897 22.3649 27.8769 22.3649C28.2641 22.3649 28.5734 22.2963 28.8511 22.1785C29.134 22.051 29.3515 21.8839 29.503 21.6579C29.66 21.442 29.7387 21.1866 29.7387 20.9117C29.7387 20.5582 29.6314 20.2637 29.4168 20.0377C29.2072 19.802 28.9168 19.645 28.5448 19.5566L26.6043 19.1244C26.0807 19.0066 25.625 18.8101 25.2374 18.5353C24.8498 18.2503 24.5489 17.9069 24.3338 17.4945C24.1192 17.0724 24.0119 16.6107 24.0119 16.0902C24.0119 15.4618 24.1743 14.9017 24.4988 14.4013C24.8237 13.9005 25.2765 13.5079 25.8577 13.2327C26.4389 12.9477 27.0988 12.8105 27.8373 12.8105C28.5759 12.8105 29.2539 12.9477 29.8405 13.2129C30.4272 13.4877 30.883 13.8706 31.2074 14.3521C31.5374 14.8331 31.7049 15.3928 31.7103 16.0216H29.5657C29.5657 15.7564 29.495 15.5208 29.3536 15.3049C29.2122 15.089 29.0106 14.9316 28.7489 14.8138C28.4922 14.6959 28.1963 14.6273 27.8613 14.6273C27.5263 14.6273 27.2305 14.6862 26.9738 14.8041C26.7225 14.9122 26.526 15.0692 26.3846 15.2754C26.2432 15.4719 26.1725 15.7076 26.1725 15.9728C26.1725 16.277 26.2693 16.5325 26.4633 16.729C26.6624 16.9255 26.9321 17.0728 27.2726 17.1511L29.1424 17.5635C29.6819 17.6717 30.1612 17.8779 30.58 18.1918C31.0042 18.4961 31.3341 18.8694 31.5698 19.321C31.8055 19.7628 31.9233 20.254 31.9233 20.7842C31.9233 21.4323 31.7503 22.0118 31.4048 22.532C31.0644 23.0425 30.5854 23.4549 29.9672 23.7398C29.3494 24.0344 28.642 24.1821 27.8458 24.1821Z" fill="white"/>
</g>
<defs>
<linearGradient id="paint0_linear_3917_59479" x1="2.98647" y1="3.16634" x2="47.0151" y2="47.195" gradientUnits="userSpaceOnUse">
<stop offset="0.28" stop-color="#007DFE"/>
<stop offset="0.73" stop-color="#00D980"/>
</linearGradient>
<linearGradient id="paint1_linear_3917_59479" x1="42.2841" y1="-0.538036" x2="1.45397" y2="18.3923" gradientUnits="userSpaceOnUse">
<stop offset="0.32" stop-color="#F0EB18"/>
<stop offset="0.55" stop-color="#007DFE"/>
</linearGradient>
<clipPath id="clip0_3917_59479">
<rect width="48" height="48" fill="white"/>
</clipPath>
</defs>
</svg>
