<svg width="20" height="20" viewBox="0 0 20 20" fill="none" xmlns="http://www.w3.org/2000/svg">
<path d="M14.0833 5.66667L12.8333 0H5.58333L0 8.58333L1.58333 12.5L0 16.0833L9.58333 17.8333L15.6667 12.4167L14.0833 5.66667Z" fill="url(#paint0_linear_2108_61188)"/>
<path d="M1.91667 8.83331L0 8.58331L1.58333 12.5L0 16.0833L3.83333 13L1.91667 8.83331Z" fill="url(#paint1_linear_2108_61188)"/>
<path d="M1.91667 8.83331L0 8.58331L1.58333 12.5L3.83333 13L1.91667 8.83331Z" fill="url(#paint2_linear_2108_61188)"/>
<path d="M2 8.83333L12.8333 0H5.58333L0 8.58333L2 8.83333Z" fill="url(#paint3_linear_2108_61188)"/>
<path d="M2 8.83333L12.8333 0H5.58333L0 8.58333L2 8.83333Z" fill="url(#paint4_linear_2108_61188)"/>
<path d="M2 8.83333L7 4.66667L5.58333 0L0 8.58333L2 8.83333Z" fill="url(#paint5_linear_2108_61188)"/>
<path d="M2 8.83333L7 4.66667L5.58333 0L0 8.58333L2 8.83333Z" fill="url(#paint6_linear_2108_61188)"/>
<path d="M17.5834 7.75L20.0001 13.0833L15.9167 20L13.4167 13.9167L17.5834 7.75Z" fill="url(#paint7_linear_2108_61188)"/>
<path d="M15.5001 10.9167L20.0001 13L15.9167 20L13.4167 13.9167L15.5001 10.9167Z" fill="url(#paint8_linear_2108_61188)"/>
<path d="M13.4166 13.9167L15.9166 20L9.58325 17.8334L13.4166 13.9167Z" fill="url(#paint9_linear_2108_61188)"/>
<path d="M20 4.25L11.5833 6.25L0 16.0833L7.5 20L13.4167 13.9167L20 4.25Z" fill="url(#paint10_linear_2108_61188)"/>
<path d="M5 16.3333L0 16.0833L7.5 20L9.66667 17.75L5 16.3333Z" fill="url(#paint11_linear_2108_61188)"/>
<path d="M5 16.3333L0 16.0833L3.75 12.9167L5 16.3333Z" fill="url(#paint12_linear_2108_61188)"/>
<path d="M19.9999 4.25L11.5833 6.25L17.4999 7.83333L19.9999 4.25Z" fill="url(#paint13_linear_2108_61188)"/>
<path d="M19.9999 4.25L11.5833 6.25L17.1666 7.75L19.9999 4.25Z" fill="url(#paint14_linear_2108_61188)"/>
<path d="M15.3333 11.0833L14.0833 5.66666L11.5833 6.24999L8.25 9.08332L15.3333 11.0833Z" fill="url(#paint15_linear_2108_61188)"/>
<path d="M14.4166 6.99999L14.0833 5.66666L11.5833 6.24999L14.4166 6.99999Z" fill="url(#paint16_linear_2108_61188)"/>
<path d="M3.8335 12.9167L13.4168 13.9167L17.5835 7.75L14.5002 8.16667L3.8335 12.9167Z" fill="url(#paint17_linear_2108_61188)"/>
<path d="M20 4.25L7.5 20L13.4167 13.9167L20 4.25Z" fill="url(#paint18_linear_2108_61188)"/>
<path d="M20 4.25L7.5 20L13.4167 13.9167L20 4.25Z" fill="url(#paint19_linear_2108_61188)"/>
<path d="M16.6666 3.33334H3.33325V16.6667H16.6666V3.33334Z" fill="url(#paint20_linear_2108_61188)"/>
<path d="M9.97851 14.1505H4.98926V14.9892H9.97851V14.1505Z" fill="white"/>
<path d="M4.58325 7.4584C4.58325 5.99149 5.66413 4.8334 7.20825 4.8334C8.13472 4.8334 8.67516 5.06502 9.21561 5.52826L8.52075 6.37752C8.13472 6.0687 7.74869 5.83708 7.20825 5.83708C6.35899 5.83708 5.74134 6.53193 5.74134 7.4584C5.74134 8.38488 6.35899 9.07973 7.28546 9.07973C7.67149 9.07973 8.05752 9.00252 8.36634 8.7709V8.07605H7.20825V7.07238H9.44722V9.31135C8.90678 9.77458 8.21193 10.0834 7.28546 10.0834C5.66413 10.0834 4.58325 9.00252 4.58325 7.4584Z" fill="white"/>
<path d="M9.8335 7.4584C9.8335 5.99149 10.9916 4.8334 12.6129 4.8334C14.157 4.8334 15.3151 5.99149 15.3151 7.4584C15.3151 8.92532 14.157 10.0834 12.6129 10.0834C10.9916 10.0834 9.8335 8.92532 9.8335 7.4584ZM14.0798 7.4584C14.0798 6.60914 13.4622 5.83708 12.5357 5.83708C11.6092 5.83708 10.9916 6.53193 10.9916 7.4584C10.9916 8.30767 11.6092 9.07973 12.5357 9.07973C13.4622 9.07973 14.0798 8.30767 14.0798 7.4584Z" fill="white"/>
<defs>
<linearGradient id="paint0_linear_2108_61188" x1="9.00825" y1="8.06808" x2="13.7559" y2="2.66675" gradientUnits="userSpaceOnUse">
<stop stop-color="#087CFA"/>
<stop offset="0.0225255" stop-color="#0D7BFA"/>
<stop offset="0.3726" stop-color="#5566F9"/>
<stop offset="0.6634" stop-color="#8A57F8"/>
<stop offset="0.8808" stop-color="#AB4EF7"/>
<stop offset="1" stop-color="#B74AF7"/>
</linearGradient>
<linearGradient id="paint1_linear_2108_61188" x1="-0.00672664" y1="12.3494" x2="5.215" y2="12.1223" gradientUnits="userSpaceOnUse">
<stop offset="0.1204" stop-color="#2D58F9"/>
<stop offset="0.9461" stop-color="#B74AF7"/>
</linearGradient>
<linearGradient id="paint2_linear_2108_61188" x1="0.956583" y1="8.07481" x2="2.86633" y2="13.4135" gradientUnits="userSpaceOnUse">
<stop offset="0.0852751" stop-color="#086AFA"/>
<stop offset="0.4762" stop-color="#087CFA"/>
<stop offset="0.6849" stop-color="#466AF9"/>
<stop offset="0.8976" stop-color="#8059F8"/>
<stop offset="1" stop-color="#9653F8"/>
</linearGradient>
<linearGradient id="paint3_linear_2108_61188" x1="0.702917" y1="6.94983" x2="11.6856" y2="-2.03208" gradientUnits="userSpaceOnUse">
<stop stop-color="#087CFA"/>
<stop offset="0.0188132" stop-color="#0D7BFA"/>
<stop offset="0.3112" stop-color="#5566F9"/>
<stop offset="0.5541" stop-color="#8A57F8"/>
<stop offset="0.7356" stop-color="#AB4EF7"/>
<stop offset="0.8352" stop-color="#B74AF7"/>
<stop offset="0.9797" stop-color="#DB5CFF"/>
</linearGradient>
<linearGradient id="paint4_linear_2108_61188" x1="5.75417" y1="3.78467" x2="7.97892" y2="5.53267" gradientUnits="userSpaceOnUse">
<stop offset="0.5234" stop-color="#B74AF7" stop-opacity="0"/>
<stop offset="0.9263" stop-color="#D66EFF"/>
</linearGradient>
<linearGradient id="paint5_linear_2108_61188" x1="0.258917" y1="7.3095" x2="9.25075" y2="-0.0443227" gradientUnits="userSpaceOnUse">
<stop stop-color="#087CFA"/>
<stop offset="0.0163189" stop-color="#0D7BFA"/>
<stop offset="0.2699" stop-color="#5566F9"/>
<stop offset="0.4806" stop-color="#8A57F8"/>
<stop offset="0.6381" stop-color="#AB4EF7"/>
<stop offset="0.7245" stop-color="#B74AF7"/>
<stop offset="0.9526" stop-color="#DB5CFF"/>
</linearGradient>
<linearGradient id="paint6_linear_2108_61188" x1="0.948333" y1="9.81525" x2="2.65333" y2="7.44717" gradientUnits="userSpaceOnUse">
<stop stop-color="#8F99FF"/>
<stop offset="1" stop-color="#B74AF7" stop-opacity="0"/>
</linearGradient>
<linearGradient id="paint7_linear_2108_61188" x1="19.694" y1="11.3927" x2="11.8824" y2="18.0025" gradientUnits="userSpaceOnUse">
<stop stop-color="#087CFA"/>
<stop offset="0.0225255" stop-color="#0D7BFA"/>
<stop offset="0.3726" stop-color="#5566F9"/>
<stop offset="0.6634" stop-color="#8A57F8"/>
<stop offset="0.8808" stop-color="#AB4EF7"/>
<stop offset="1" stop-color="#B74AF7"/>
</linearGradient>
<linearGradient id="paint8_linear_2108_61188" x1="19.4619" y1="14.9023" x2="12.3419" y2="15.9793" gradientUnits="userSpaceOnUse">
<stop offset="0.003297" stop-color="#2D58F9"/>
<stop offset="0.8129" stop-color="#B74AF7"/>
</linearGradient>
<linearGradient id="paint9_linear_2108_61188" x1="15.6133" y1="16.1006" x2="12.8238" y2="18.5965" gradientUnits="userSpaceOnUse">
<stop stop-color="#C386F7"/>
<stop offset="0.8129" stop-color="#B74AF7"/>
</linearGradient>
<linearGradient id="paint10_linear_2108_61188" x1="2.7785" y1="17.4715" x2="17.2056" y2="8.20067" gradientUnits="userSpaceOnUse">
<stop stop-color="#087CFA"/>
<stop offset="0.1021" stop-color="#1598D3"/>
<stop offset="0.2248" stop-color="#23B6AA"/>
<stop offset="0.3455" stop-color="#2DCC8B"/>
<stop offset="0.4619" stop-color="#35DD74"/>
<stop offset="0.5723" stop-color="#39E767"/>
<stop offset="0.6701" stop-color="#3BEA62"/>
</linearGradient>
<linearGradient id="paint11_linear_2108_61188" x1="3.59433" y1="18.209" x2="10.3183" y2="11.5752" gradientUnits="userSpaceOnUse">
<stop stop-color="#087CFA"/>
<stop offset="0.1021" stop-color="#1598D3"/>
<stop offset="0.2248" stop-color="#23B6AA"/>
<stop offset="0.3455" stop-color="#2DCC8B"/>
<stop offset="0.4619" stop-color="#35DD74"/>
<stop offset="0.5723" stop-color="#39E767"/>
<stop offset="0.6701" stop-color="#3BEA62"/>
</linearGradient>
<linearGradient id="paint12_linear_2108_61188" x1="1.96058" y1="16.7562" x2="7.80483" y2="10.9904" gradientUnits="userSpaceOnUse">
<stop offset="0.1708" stop-color="#087CFA"/>
<stop offset="0.4017" stop-color="#19A1C8"/>
<stop offset="0.6796" stop-color="#2BC891"/>
<stop offset="0.8874" stop-color="#37E16F"/>
<stop offset="1" stop-color="#3BEA62"/>
</linearGradient>
<linearGradient id="paint13_linear_2108_61188" x1="13.0893" y1="8.43492" x2="18.9313" y2="2.98233" gradientUnits="userSpaceOnUse">
<stop offset="0.4926" stop-color="#00FA45"/>
<stop offset="0.8682" stop-color="#B5FF91"/>
</linearGradient>
<linearGradient id="paint14_linear_2108_61188" x1="14.6773" y1="4.59183" x2="18.1394" y2="6.58258" gradientUnits="userSpaceOnUse">
<stop offset="0.175" stop-color="#00FA45" stop-opacity="0"/>
<stop offset="0.8682" stop-color="#A0FF5E"/>
</linearGradient>
<linearGradient id="paint15_linear_2108_61188" x1="15.6169" y1="5.98957" x2="11.6162" y2="10.2742" gradientUnits="userSpaceOnUse">
<stop stop-color="#7165DF"/>
<stop offset="0.0682475" stop-color="#6475D9"/>
<stop offset="0.2346" stop-color="#4897CD"/>
<stop offset="0.3197" stop-color="#44B2AA"/>
<stop offset="0.4142" stop-color="#40CA8B"/>
<stop offset="0.506" stop-color="#3DDC74"/>
<stop offset="0.593" stop-color="#3CE667"/>
<stop offset="0.6701" stop-color="#3BEA62"/>
</linearGradient>
<linearGradient id="paint16_linear_2108_61188" x1="14.1731" y1="5.37449" x2="12.8754" y2="6.76424" gradientUnits="userSpaceOnUse">
<stop offset="0.3832" stop-color="#59C1DB"/>
<stop offset="0.4687" stop-color="#4FCEB4"/>
<stop offset="0.5786" stop-color="#44DD88"/>
<stop offset="0.664" stop-color="#3EE76C"/>
<stop offset="0.7139" stop-color="#3BEA62"/>
</linearGradient>
<linearGradient id="paint17_linear_2108_61188" x1="7.69083" y1="9.32292" x2="20.5749" y2="13.5797" gradientUnits="userSpaceOnUse">
<stop stop-color="#1CA7BE"/>
<stop offset="0.3751" stop-color="#2FCF87"/>
<stop offset="0.6552" stop-color="#3BEA62"/>
<stop offset="0.8574" stop-color="#5FFF58"/>
</linearGradient>
<linearGradient id="paint18_linear_2108_61188" x1="7.12183" y1="12.4847" x2="16.4868" y2="11.9738" gradientUnits="userSpaceOnUse">
<stop offset="0.2959" stop-color="#1CA7BE"/>
<stop offset="0.3429" stop-color="#23B5AA"/>
<stop offset="0.4312" stop-color="#2DCC8B"/>
<stop offset="0.5168" stop-color="#35DD74"/>
<stop offset="0.5981" stop-color="#39E767"/>
<stop offset="0.6701" stop-color="#3BEA62"/>
<stop offset="1" stop-color="#7EEF5A"/>
</linearGradient>
<linearGradient id="paint19_linear_2108_61188" x1="17.5345" y1="1.97483" x2="13.9873" y2="11.4765" gradientUnits="userSpaceOnUse">
<stop offset="0.124" stop-color="#1CA563"/>
<stop offset="0.3268" stop-color="#29C163" stop-opacity="0.7473"/>
<stop offset="0.5412" stop-color="#33D862" stop-opacity="0.48"/>
<stop offset="0.7453" stop-color="#39E562" stop-opacity="0.2256"/>
<stop offset="0.9263" stop-color="#3BEA62" stop-opacity="0"/>
</linearGradient>
<linearGradient id="paint20_linear_2108_61188" x1="3.38535" y1="3.38544" x2="17.1718" y2="17.1719" gradientUnits="userSpaceOnUse">
<stop stop-color="#006396"/>
<stop offset="0.0339724" stop-color="#005682"/>
<stop offset="0.121" stop-color="#003754"/>
<stop offset="0.2043" stop-color="#001F2F"/>
<stop offset="0.2818" stop-color="#000E15"/>
<stop offset="0.3512" stop-color="#000406"/>
<stop offset="0.4058"/>
<stop offset="0.9138"/>
</linearGradient>
</defs>
</svg>
