<!-- Copyright 2000-2024 JetBrains s.r.o. and contributors. Use of this source code is governed by the Apache 2.0 license. -->
<svg width="20" height="20" viewBox="0 0 20 20" fill="none" xmlns="http://www.w3.org/2000/svg">
<g clip-path="url(#clip0_3917_59484)">
<path d="M15.0148 18.182L18.7259 18.1814C19.4288 18.1814 19.9984 17.6116 19.9984 16.9087V13.3129C19.9984 12.9415 19.836 12.5884 19.554 12.3465L7.62859 2.12472C7.39786 1.92709 7.10404 1.81836 6.80023 1.81836H3.08913C2.38622 1.81836 1.81641 2.38818 1.81641 3.09109V6.68745C1.81641 7.0589 1.97877 7.412 2.26077 7.65381L14.186 17.8755C14.4168 18.0733 14.7106 18.1818 15.0146 18.1818L15.0148 18.182Z" fill="#00D886"/>
<path d="M15.4613 18.1818H18.7259C19.4288 18.1818 19.9986 17.612 19.9986 16.9091V12.8176C19.9986 12.7575 19.9943 12.6973 19.9859 12.6376L18.3366 1.09273C18.2472 0.465818 17.7101 0 17.0768 0H12.179C11.4759 0 10.9061 0.57 10.9063 1.27309L10.9077 7.06636C10.9077 7.20309 10.9297 7.33891 10.973 7.46855L14.2541 17.3116C14.4273 17.8313 14.9137 18.1818 15.4615 18.1818H15.4613Z" fill="url(#paint0_linear_3917_59484)"/>
<path d="M1.27273 20H11.8878C12.3969 20 12.8571 19.6965 13.0576 19.2287L18.0789 7.51291C18.1467 7.35455 18.1818 7.18382 18.1818 7.01145V1.27273C18.1818 0.569818 17.612 0 16.9091 0H11.2947C11.0433 0 10.7975 0.0745455 10.5882 0.214182L0.566727 6.90255C0.212909 7.13873 0.000545455 7.53582 0.000545455 7.96109L0 18.7273C0 19.4302 0.569818 20 1.27273 20Z" fill="url(#paint1_linear_3917_59484)"/>
<path d="M16.6654 3.33398H3.33203V16.6673H16.6654V3.33398Z" fill="black"/>
<path d="M7.23446 10.1484C6.75808 10.1484 6.32665 10.0368 5.94017 9.8141C5.55389 9.58876 5.25046 9.28076 5.02989 8.88971C4.8095 8.49638 4.69922 8.05771 4.69922 7.5741C4.69922 7.09048 4.8095 6.65314 5.02989 6.2621C5.25027 5.86876 5.5537 5.56038 5.94017 5.33771C6.32646 5.11238 6.75789 5 7.23446 5C7.62074 5 7.97636 5.06895 8.30112 5.20629C8.62817 5.34362 8.90322 5.53695 9.12608 5.7859C9.35122 6.03486 9.50893 6.32152 9.59903 6.64629H8.56074C8.48493 6.48991 8.3817 6.35467 8.25141 6.24095C8.12341 6.12495 7.97293 6.036 7.79979 5.97429C7.62684 5.91029 7.44074 5.87829 7.2415 5.87829C6.9476 5.87829 6.68208 5.95162 6.44512 6.09867C6.20817 6.24571 6.02208 6.44838 5.88684 6.70667C5.75408 6.96267 5.68779 7.252 5.68779 7.57429C5.68779 7.89657 5.75408 8.18724 5.88684 8.44533C6.02189 8.70133 6.20798 8.90267 6.44512 9.04971C6.68227 9.19676 6.9476 9.2701 7.2415 9.2701C7.51408 9.2701 7.76055 9.21905 7.98112 9.11714C8.20398 9.01543 8.38055 8.8741 8.51084 8.6941C8.64112 8.5141 8.71122 8.31143 8.72055 8.0861L8.72417 8.18914H7.55446V7.42476H9.66284V7.81581C9.66284 8.25448 9.55617 8.65143 9.34284 9.00686C9.13179 9.36019 8.8415 9.63848 8.47179 9.84248C8.10436 10.0465 7.69198 10.1482 7.23446 10.1482V10.1484ZM12.6463 9.29505C12.9402 9.29505 13.2046 9.22171 13.4392 9.07467C13.6739 8.92533 13.8575 8.72038 13.9903 8.45962C14.123 8.19657 14.1893 7.90133 14.1893 7.57429C14.1893 7.24724 14.123 6.95333 13.9903 6.69257C13.8575 6.42952 13.6739 6.22457 13.4392 6.07752C13.2046 5.92819 12.9402 5.85352 12.6463 5.85352C12.3524 5.85352 12.0868 5.92819 11.8499 6.07752C11.6152 6.22457 11.4303 6.42952 11.2952 6.69257C11.1625 6.95352 11.0962 7.24724 11.0962 7.57429C11.0962 7.90133 11.1625 8.19657 11.2952 8.45962C11.4303 8.72057 11.6152 8.92533 11.8499 9.07467C12.0868 9.22171 12.3524 9.29505 12.6463 9.29505ZM12.6426 10.1484C12.1663 10.1484 11.7337 10.0368 11.3449 9.8141C10.9586 9.58876 10.6539 9.28076 10.4312 8.88971C10.2108 8.49638 10.1006 8.05771 10.1006 7.5741C10.1006 7.09048 10.2108 6.65314 10.4312 6.2621C10.6541 5.86876 10.9586 5.56038 11.3449 5.33771C11.7337 5.11238 12.1663 5 12.6426 5C13.119 5 13.5541 5.11238 13.9404 5.33771C14.3291 5.56038 14.6337 5.86876 14.8541 6.2621C15.0745 6.65314 15.1847 7.09048 15.1847 7.5741C15.1847 8.05771 15.0745 8.49638 14.8541 8.88971C14.6337 9.28076 14.3291 9.58876 13.9404 9.8141C13.5541 10.0368 13.1213 10.1484 12.6426 10.1484Z" fill="white"/>
<path d="M10 14.166H5V14.9993H10V14.166Z" fill="white"/>
</g>
<defs>
<linearGradient id="paint0_linear_3917_59484" x1="19.8846" y1="16.8891" x2="12.2855" y2="0.498727" gradientUnits="userSpaceOnUse">
<stop offset="0.24" stop-color="#00D886"/>
<stop offset="0.51" stop-color="#007DFE"/>
</linearGradient>
<linearGradient id="paint1_linear_3917_59484" x1="18.556" y1="1.36891" x2="0.210726" y2="19.7142" gradientUnits="userSpaceOnUse">
<stop offset="0.27" stop-color="#007DFE"/>
<stop offset="0.7" stop-color="#D249FC"/>
</linearGradient>
<clipPath id="clip0_3917_59484">
<rect width="20" height="20" fill="white"/>
</clipPath>
</defs>
</svg>
