<!-- Copyright 2000-2024 JetBrains s.r.o. and contributors. Use of this source code is governed by the Apache 2.0 license. -->
<svg width="48" height="48" viewBox="0 0 48 48" fill="none" xmlns="http://www.w3.org/2000/svg">
<g clip-path="url(#clip0_3917_59482)">
<path d="M36.0394 43.636L44.946 43.6347C46.633 43.6347 48.0001 42.2671 48.0001 40.5802V31.9502C48.0001 31.0587 47.6104 30.2113 46.9336 29.6309L18.3125 5.09855C17.7588 4.62423 17.0536 4.36328 16.3244 4.36328H7.41783C5.73085 4.36328 4.36328 5.73084 4.36328 7.41783V16.0491C4.36328 16.9406 4.75295 17.788 5.42975 18.3684L34.0504 42.9003C34.6042 43.3751 35.3093 43.6356 36.0389 43.6356L36.0394 43.636Z" fill="#00D886"/>
<path d="M37.1119 43.6364H44.9468C46.6338 43.6364 48.0014 42.2688 48.0014 40.5818V30.7623C48.0014 30.6179 47.9909 30.4735 47.9708 30.3303L44.0126 2.62255C43.7979 1.11796 42.5089 0 40.989 0H29.2342C27.5468 0 26.1793 1.368 26.1797 3.05542L26.1832 16.9593C26.1832 17.2874 26.236 17.6134 26.3398 17.9245L34.2145 41.5479C34.6303 42.7951 35.7976 43.6364 37.1123 43.6364H37.1119Z" fill="url(#paint0_linear_3917_59482)"/>
<path d="M3.05455 48H28.5308C29.7526 48 30.857 47.2717 31.3383 46.1489L43.3894 18.031C43.5521 17.6509 43.6364 17.2412 43.6364 16.8275V3.05455C43.6364 1.36756 42.2688 0 40.5818 0H27.1073C26.5039 0 25.9139 0.178909 25.4116 0.514036L1.36015 16.5661C0.510982 17.1329 0.00130909 18.086 0.00130909 19.1066L0 44.9455C0 46.6324 1.36756 48 3.05455 48Z" fill="url(#paint1_linear_3917_59482)"/>
<path d="M39 9H9V39H39V9Z" fill="black"/>
<path d="M25 33H13V35.0001H25V33Z" fill="white"/>
<path d="M17.674 24.1802C16.6217 24.1802 15.6688 23.9336 14.8152 23.4418C13.962 22.9441 13.2918 22.2638 12.8046 21.4001C12.3178 20.5313 12.0742 19.5624 12.0742 18.4942C12.0742 17.426 12.3178 16.46 12.8046 15.5963C13.2914 14.7275 13.9616 14.0463 14.8152 13.5545C15.6684 13.0568 16.6213 12.8086 17.674 12.8086C18.5272 12.8086 19.3127 12.9609 20.03 13.2642C20.7523 13.5676 21.3599 13.9946 21.8521 14.5445C22.3494 15.0943 22.6977 15.7275 22.8967 16.4449H20.6034C20.436 16.0994 20.2079 15.8007 19.9202 15.5496C19.6374 15.2933 19.3051 15.0969 18.9226 14.9606C18.5406 14.8192 18.1296 14.7485 17.6895 14.7485C17.0404 14.7485 16.4539 14.9105 15.9305 15.2353C15.4071 15.5601 14.9961 16.0077 14.6974 16.5782C14.4041 17.1437 14.2577 17.7827 14.2577 18.4946C14.2577 19.2064 14.4041 19.8485 14.6974 20.4185C14.9957 20.984 15.4067 21.4287 15.9305 21.7535C16.4543 22.0783 17.0404 22.2402 17.6895 22.2402C18.2916 22.2402 18.836 22.1275 19.3232 21.9024C19.8154 21.6777 20.2054 21.3656 20.4932 20.968C20.781 20.5704 20.9358 20.1228 20.9564 19.6251L20.9644 19.8527H18.3808V18.1643H23.0377V19.0281C23.0377 19.997 22.8021 20.8737 22.3309 21.6588C21.8647 22.4392 21.2236 23.0539 20.4069 23.5045C19.5954 23.9551 18.6845 24.1797 17.674 24.1797V24.1802ZM29.6274 22.2953C30.2765 22.2953 30.8605 22.1334 31.3788 21.8086C31.8971 21.4787 32.3027 21.026 32.596 20.4501C32.8892 19.8691 33.0356 19.217 33.0356 18.4946C33.0356 17.7722 32.8892 17.123 32.596 16.5471C32.3027 15.9661 31.8971 15.5134 31.3788 15.1886C30.8605 14.8587 30.2765 14.6938 29.6274 14.6938C28.9782 14.6938 28.3917 14.8587 27.8684 15.1886C27.35 15.5134 26.9415 15.9661 26.6432 16.5471C26.35 17.1235 26.2036 17.7722 26.2036 18.4946C26.2036 19.217 26.35 19.8691 26.6432 20.4501C26.9415 21.0265 27.35 21.4787 27.8684 21.8086C28.3917 22.1334 28.9782 22.2953 29.6274 22.2953ZM29.6194 24.1802C28.5672 24.1802 27.6117 23.9336 26.753 23.4418C25.8998 22.9441 25.2267 22.2638 24.7349 21.4001C24.2481 20.5313 24.0045 19.5624 24.0045 18.4942C24.0045 17.426 24.2481 16.46 24.7349 15.5963C25.2271 14.7275 25.8998 14.0463 26.753 13.5545C27.6117 13.0568 28.5672 12.8086 29.6194 12.8086C30.6716 12.8086 31.6325 13.0568 32.4857 13.5545C33.3444 14.0463 34.0171 14.7275 34.5039 15.5963C34.9907 16.46 35.2343 17.426 35.2343 18.4942C35.2343 19.5624 34.9907 20.5313 34.5039 21.4001C34.0171 22.2638 33.3444 22.9441 32.4857 23.4418C31.6325 23.9336 30.6766 24.1802 29.6194 24.1802Z" fill="white"/>
</g>
<defs>
<linearGradient id="paint0_linear_3917_59482" x1="47.7278" y1="40.5338" x2="29.4899" y2="1.19694" gradientUnits="userSpaceOnUse">
<stop offset="0.24" stop-color="#00D886"/>
<stop offset="0.51" stop-color="#007DFE"/>
</linearGradient>
<linearGradient id="paint1_linear_3917_59482" x1="44.5344" y1="3.28538" x2="0.505743" y2="47.314" gradientUnits="userSpaceOnUse">
<stop offset="0.27" stop-color="#007DFE"/>
<stop offset="0.7" stop-color="#D249FC"/>
</linearGradient>
<clipPath id="clip0_3917_59482">
<rect width="48" height="48" fill="white"/>
</clipPath>
</defs>
</svg>
