<svg width="48" height="48" viewBox="0 0 48 48" fill="none" xmlns="http://www.w3.org/2000/svg">
<path d="M33.2 14.2L30.3 1.5H14.1L1.5 20.8L5.2 29.7L1.5 37.8L23.1 41.6L36.7 29.5L33.2 14.2Z" fill="url(#paint0_linear_2108_61186)"/>
<path d="M5.9 21.4L1.5 20.8L5.2 29.7L1.5 37.8L10.1 30.7L5.9 21.4Z" fill="url(#paint1_linear_2108_61186)"/>
<path d="M5.9 21.4L1.5 20.8L5.2 29.7L10.1 30.7L5.9 21.4Z" fill="url(#paint2_linear_2108_61186)"/>
<path d="M5.9 21.4L30.3 1.5H14.1L1.5 20.8L5.9 21.4Z" fill="url(#paint3_linear_2108_61186)"/>
<path d="M5.9 21.4L30.3 1.5H14.1L1.5 20.8L5.9 21.4Z" fill="url(#paint4_linear_2108_61186)"/>
<path d="M5.9 21.4L17.3 12.1L14.1 1.5L1.5 20.8L5.9 21.4Z" fill="url(#paint5_linear_2108_61186)"/>
<path d="M5.9 21.4L17.3 12.1L14.1 1.5L1.5 20.8L5.9 21.4Z" fill="url(#paint6_linear_2108_61186)"/>
<path d="M41.1001 18.9L46.5001 30.8L37.3001 46.5L31.6001 32.8L41.1001 18.9Z" fill="url(#paint7_linear_2108_61186)"/>
<path d="M36.4001 26.1L46.5001 30.8L37.3001 46.5L31.6001 32.8L36.4001 26.1Z" fill="url(#paint8_linear_2108_61186)"/>
<path d="M31.7 32.8L37.4 46.5L23.2 41.6L31.7 32.8Z" fill="url(#paint9_linear_2108_61186)"/>
<path d="M46.5 11.1L27.6 15.5L1.5 37.8L18.4 46.5L31.7 32.8L46.5 11.1Z" fill="url(#paint10_linear_2108_61186)"/>
<path d="M12.7 38.3L1.5 37.8L18.4 46.5L23.2 41.5L12.7 38.3Z" fill="url(#paint11_linear_2108_61186)"/>
<path d="M12.7 38.3L1.5 37.8L10 30.5L12.7 38.3Z" fill="url(#paint12_linear_2108_61186)"/>
<path d="M46.5001 11.1L27.6001 15.5L40.9001 19.2L46.5001 11.1Z" fill="url(#paint13_linear_2108_61186)"/>
<path d="M46.5001 11.1L27.6001 15.5L40.1001 19L46.5001 11.1Z" fill="url(#paint14_linear_2108_61186)"/>
<path d="M36 26.4L33.2 14.2L27.6 15.5L20 22L36 26.4Z" fill="url(#paint15_linear_2108_61186)"/>
<path d="M33.9001 17.3L33.2001 14.2L27.6001 15.5L33.9001 17.3Z" fill="url(#paint16_linear_2108_61186)"/>
<path d="M10 30.5L31.7 32.8L41.1 18.9L34.2 19.8L10 30.5Z" fill="url(#paint17_linear_2108_61186)"/>
<path d="M46.4999 11.1L18.3999 46.5L31.6999 32.8L46.4999 11.1Z" fill="url(#paint18_linear_2108_61186)"/>
<path d="M46.4999 11.1L18.3999 46.5L31.6999 32.8L46.4999 11.1Z" fill="url(#paint19_linear_2108_61186)"/>
<path d="M38 10H10V38H38V10Z" fill="url(#paint20_linear_2108_61186)"/>
<g opacity="0.3">
<path opacity="0.3" d="M10 36.1333L27.5389 37.1833L13.9667 13.5L10 12.45V36.1333Z" fill="url(#paint21_linear_2108_61186)"/>
<path opacity="0.3" d="M28.0832 38H28.8999L28.3166 12.1778L27.5388 10H18.4388L13.9666 13.5389L28.0832 38Z" fill="url(#paint22_linear_2108_61186)"/>
<path opacity="0.3" d="M38.0001 28.0444V10H36.9501L32.9446 14.0833L35.2001 14.7833L35.1612 14.8222L38.0001 20.6556V28.0444Z" fill="url(#paint23_linear_2108_61186)"/>
<path opacity="0.3" d="M38 20.6556L35.1611 14.8222L26.1777 21.7056L28.4722 38H38V20.6556Z" fill="url(#paint24_linear_2108_61186)"/>
<path opacity="0.3" d="M22.7554 10L12.2166 19.2944L26.1777 21.7056L35.1999 14.7833L32.9443 14.0833L36.9499 10H22.7554Z" fill="url(#paint25_linear_2108_61186)"/>
<path opacity="0.3" d="M13.9667 13.5389L18.4389 10H10V12.4889L13.9667 13.5389Z" fill="url(#paint26_linear_2108_61186)"/>
</g>
<path d="M24 32.7H13.5V34.4H24V32.7Z" fill="white"/>
<path d="M12.5999 18.6463C12.5999 15.5959 15.0032 13.1001 18.2385 13.1001C20.1797 13.1001 21.2889 13.6547 22.3982 14.5791L20.9192 16.3354C20.0872 15.6883 19.3478 15.2261 18.1461 15.2261C16.4822 15.2261 15.0957 16.7976 15.0957 18.5539C15.0957 20.4951 16.4822 21.974 18.3309 21.974C19.1629 21.974 19.9024 21.7892 20.5494 21.327V19.848H18.1461V17.8144H22.7679V22.4362C21.6587 23.3606 20.1797 24.1001 18.2385 24.1001C14.9108 24.1001 12.5999 21.7892 12.5999 18.6463Z" fill="white"/>
<path d="M23.7847 18.6463C23.7847 15.5959 26.188 13.1001 29.5158 13.1001C32.8435 13.1001 35.1544 15.5959 35.1544 18.5539C35.1544 21.6043 32.7511 24.1001 29.4233 24.1001C26.188 24.1001 23.7847 21.6967 23.7847 18.6463ZM32.6586 18.6463C32.6586 16.7976 31.2721 15.2261 29.4233 15.2261C27.5746 15.2261 26.188 16.7051 26.188 18.5539C26.188 20.4026 27.5746 21.8816 29.4233 21.8816C31.3645 21.974 32.6586 20.4951 32.6586 18.6463Z" fill="white"/>
<defs>
<linearGradient id="paint0_linear_2108_61186" x1="21.7686" y1="19.6532" x2="32.4509" y2="7.5001" gradientUnits="userSpaceOnUse">
<stop stop-color="#087CFA"/>
<stop offset="0.0225255" stop-color="#0D7BFA"/>
<stop offset="0.3726" stop-color="#5566F9"/>
<stop offset="0.6634" stop-color="#8A57F8"/>
<stop offset="0.8808" stop-color="#AB4EF7"/>
<stop offset="1" stop-color="#B74AF7"/>
</linearGradient>
<linearGradient id="paint1_linear_2108_61186" x1="1.4849" y1="29.2861" x2="13.2338" y2="28.7753" gradientUnits="userSpaceOnUse">
<stop offset="0.1204" stop-color="#2D58F9"/>
<stop offset="0.9461" stop-color="#B74AF7"/>
</linearGradient>
<linearGradient id="paint2_linear_2108_61186" x1="3.6522" y1="19.6684" x2="7.9492" y2="31.6803" gradientUnits="userSpaceOnUse">
<stop offset="0.0852751" stop-color="#086AFA"/>
<stop offset="0.4762" stop-color="#087CFA"/>
<stop offset="0.6849" stop-color="#466AF9"/>
<stop offset="0.8976" stop-color="#8059F8"/>
<stop offset="1" stop-color="#9653F8"/>
</linearGradient>
<linearGradient id="paint3_linear_2108_61186" x1="3.0815" y1="17.1371" x2="27.7925" y2="-3.0723" gradientUnits="userSpaceOnUse">
<stop stop-color="#087CFA"/>
<stop offset="0.0188132" stop-color="#0D7BFA"/>
<stop offset="0.3112" stop-color="#5566F9"/>
<stop offset="0.5541" stop-color="#8A57F8"/>
<stop offset="0.7356" stop-color="#AB4EF7"/>
<stop offset="0.8352" stop-color="#B74AF7"/>
<stop offset="0.9797" stop-color="#DB5CFF"/>
</linearGradient>
<linearGradient id="paint4_linear_2108_61186" x1="14.4469" y1="10.0155" x2="19.4525" y2="13.9485" gradientUnits="userSpaceOnUse">
<stop offset="0.5234" stop-color="#B74AF7" stop-opacity="0"/>
<stop offset="0.9263" stop-color="#D66EFF"/>
</linearGradient>
<linearGradient id="paint5_linear_2108_61186" x1="2.0825" y1="17.9464" x2="22.3143" y2="1.4003" gradientUnits="userSpaceOnUse">
<stop stop-color="#087CFA"/>
<stop offset="0.0163189" stop-color="#0D7BFA"/>
<stop offset="0.2699" stop-color="#5566F9"/>
<stop offset="0.4806" stop-color="#8A57F8"/>
<stop offset="0.6381" stop-color="#AB4EF7"/>
<stop offset="0.7245" stop-color="#B74AF7"/>
<stop offset="0.9526" stop-color="#DB5CFF"/>
</linearGradient>
<linearGradient id="paint6_linear_2108_61186" x1="3.6337" y1="23.5844" x2="7.4701" y2="18.256" gradientUnits="userSpaceOnUse">
<stop stop-color="#8F99FF"/>
<stop offset="1" stop-color="#B74AF7" stop-opacity="0"/>
</linearGradient>
<linearGradient id="paint7_linear_2108_61186" x1="45.8115" y1="27.1335" x2="28.2354" y2="42.0056" gradientUnits="userSpaceOnUse">
<stop stop-color="#087CFA"/>
<stop offset="0.0225255" stop-color="#0D7BFA"/>
<stop offset="0.3726" stop-color="#5566F9"/>
<stop offset="0.6634" stop-color="#8A57F8"/>
<stop offset="0.8808" stop-color="#AB4EF7"/>
<stop offset="1" stop-color="#B74AF7"/>
</linearGradient>
<linearGradient id="paint8_linear_2108_61186" x1="45.2892" y1="35.0302" x2="29.2692" y2="37.4533" gradientUnits="userSpaceOnUse">
<stop offset="0.003297" stop-color="#2D58F9"/>
<stop offset="0.8129" stop-color="#B74AF7"/>
</linearGradient>
<linearGradient id="paint9_linear_2108_61186" x1="36.6302" y1="37.7263" x2="30.3537" y2="43.3422" gradientUnits="userSpaceOnUse">
<stop stop-color="#C386F7"/>
<stop offset="0.8129" stop-color="#B74AF7"/>
</linearGradient>
<linearGradient id="paint10_linear_2108_61186" x1="7.7517" y1="40.8109" x2="40.2126" y2="19.9515" gradientUnits="userSpaceOnUse">
<stop stop-color="#087CFA"/>
<stop offset="0.1021" stop-color="#1598D3"/>
<stop offset="0.2248" stop-color="#23B6AA"/>
<stop offset="0.3455" stop-color="#2DCC8B"/>
<stop offset="0.4619" stop-color="#35DD74"/>
<stop offset="0.5723" stop-color="#39E767"/>
<stop offset="0.6701" stop-color="#3BEA62"/>
</linearGradient>
<linearGradient id="paint11_linear_2108_61186" x1="9.5873" y1="42.4702" x2="24.7162" y2="27.5444" gradientUnits="userSpaceOnUse">
<stop stop-color="#087CFA"/>
<stop offset="0.1021" stop-color="#1598D3"/>
<stop offset="0.2248" stop-color="#23B6AA"/>
<stop offset="0.3455" stop-color="#2DCC8B"/>
<stop offset="0.4619" stop-color="#35DD74"/>
<stop offset="0.5723" stop-color="#39E767"/>
<stop offset="0.6701" stop-color="#3BEA62"/>
</linearGradient>
<linearGradient id="paint12_linear_2108_61186" x1="5.9113" y1="39.2015" x2="19.0608" y2="26.2285" gradientUnits="userSpaceOnUse">
<stop offset="0.1708" stop-color="#087CFA"/>
<stop offset="0.4017" stop-color="#19A1C8"/>
<stop offset="0.6796" stop-color="#2BC891"/>
<stop offset="0.8874" stop-color="#37E16F"/>
<stop offset="1" stop-color="#3BEA62"/>
</linearGradient>
<linearGradient id="paint13_linear_2108_61186" x1="30.9511" y1="20.4786" x2="44.0958" y2="8.21021" gradientUnits="userSpaceOnUse">
<stop offset="0.4926" stop-color="#00FA45"/>
<stop offset="0.8682" stop-color="#B5FF91"/>
</linearGradient>
<linearGradient id="paint14_linear_2108_61186" x1="34.5241" y1="11.8317" x2="42.314" y2="16.3109" gradientUnits="userSpaceOnUse">
<stop offset="0.175" stop-color="#00FA45" stop-opacity="0"/>
<stop offset="0.8682" stop-color="#A0FF5E"/>
</linearGradient>
<linearGradient id="paint15_linear_2108_61186" x1="36.638" y1="14.9766" x2="27.6365" y2="24.6169" gradientUnits="userSpaceOnUse">
<stop stop-color="#7165DF"/>
<stop offset="0.0682475" stop-color="#6475D9"/>
<stop offset="0.2346" stop-color="#4897CD"/>
<stop offset="0.3197" stop-color="#44B2AA"/>
<stop offset="0.4142" stop-color="#40CA8B"/>
<stop offset="0.506" stop-color="#3DDC74"/>
<stop offset="0.593" stop-color="#3CE667"/>
<stop offset="0.6701" stop-color="#3BEA62"/>
</linearGradient>
<linearGradient id="paint16_linear_2108_61186" x1="33.3898" y1="13.5926" x2="30.47" y2="16.7196" gradientUnits="userSpaceOnUse">
<stop offset="0.3832" stop-color="#59C1DB"/>
<stop offset="0.4687" stop-color="#4FCEB4"/>
<stop offset="0.5786" stop-color="#44DD88"/>
<stop offset="0.664" stop-color="#3EE76C"/>
<stop offset="0.7139" stop-color="#3BEA62"/>
</linearGradient>
<linearGradient id="paint17_linear_2108_61186" x1="18.8041" y1="22.4765" x2="47.7932" y2="32.0544" gradientUnits="userSpaceOnUse">
<stop stop-color="#1CA7BE"/>
<stop offset="0.3751" stop-color="#2FCF87"/>
<stop offset="0.6552" stop-color="#3BEA62"/>
<stop offset="0.8574" stop-color="#5FFF58"/>
</linearGradient>
<linearGradient id="paint18_linear_2108_61186" x1="17.524" y1="29.5904" x2="38.5954" y2="28.4411" gradientUnits="userSpaceOnUse">
<stop offset="0.2959" stop-color="#1CA7BE"/>
<stop offset="0.3429" stop-color="#23B5AA"/>
<stop offset="0.4312" stop-color="#2DCC8B"/>
<stop offset="0.5168" stop-color="#35DD74"/>
<stop offset="0.5981" stop-color="#39E767"/>
<stop offset="0.6701" stop-color="#3BEA62"/>
<stop offset="1" stop-color="#7EEF5A"/>
</linearGradient>
<linearGradient id="paint19_linear_2108_61186" x1="40.9525" y1="5.94341" x2="32.9711" y2="27.3221" gradientUnits="userSpaceOnUse">
<stop offset="0.124" stop-color="#1CA563"/>
<stop offset="0.3268" stop-color="#29C163" stop-opacity="0.7473"/>
<stop offset="0.5412" stop-color="#33D862" stop-opacity="0.48"/>
<stop offset="0.7453" stop-color="#39E562" stop-opacity="0.2256"/>
<stop offset="0.9263" stop-color="#3BEA62" stop-opacity="0"/>
</linearGradient>
<linearGradient id="paint20_linear_2108_61186" x1="10.1094" y1="10.1094" x2="39.0609" y2="39.0609" gradientUnits="userSpaceOnUse">
<stop stop-color="#006396"/>
<stop offset="0.0339724" stop-color="#005682"/>
<stop offset="0.121" stop-color="#003754"/>
<stop offset="0.2043" stop-color="#001F2F"/>
<stop offset="0.2818" stop-color="#000E15"/>
<stop offset="0.3512" stop-color="#000406"/>
<stop offset="0.4058"/>
<stop offset="0.9138"/>
</linearGradient>
<linearGradient id="paint21_linear_2108_61186" x1="19.1235" y1="40.9578" x2="16.5718" y2="10.4052" gradientUnits="userSpaceOnUse">
<stop offset="0.1391" stop-color="#2C083E"/>
<stop offset="0.1711" stop-color="#0E0A25"/>
<stop offset="0.5145" stop-color="#8D1BC7"/>
<stop offset="0.8648" stop-color="#FF45ED"/>
</linearGradient>
<linearGradient id="paint22_linear_2108_61186" x1="26.2809" y1="35.228" x2="20.7016" y2="10.9239" gradientUnits="userSpaceOnUse">
<stop offset="0.0862819" stop-color="#3B0B6E"/>
<stop offset="0.2814" stop-color="#601274"/>
<stop offset="0.7133" stop-color="#BE2482"/>
<stop offset="1" stop-color="#FF318C"/>
</linearGradient>
<linearGradient id="paint23_linear_2108_61186" x1="34.9027" y1="10.3464" x2="37.4831" y2="18.0876" gradientUnits="userSpaceOnUse">
<stop offset="0.1893" stop-color="#4335BE"/>
<stop offset="0.5166" stop-color="#2B227A"/>
<stop offset="0.8443" stop-color="#15113C"/>
<stop offset="1" stop-color="#0C0A23"/>
</linearGradient>
<linearGradient id="paint24_linear_2108_61186" x1="38.1404" y1="35.6803" x2="29.3557" y2="22.8041" gradientUnits="userSpaceOnUse">
<stop stop-color="#15132A"/>
<stop offset="0.4052" stop-color="#331444"/>
<stop offset="0.9653" stop-color="#9F40D7"/>
</linearGradient>
<linearGradient id="paint25_linear_2108_61186" x1="27.1591" y1="28.2219" x2="23.7296" y2="10.0854" gradientUnits="userSpaceOnUse">
<stop offset="0.016129" stop-color="#6B57FF"/>
<stop offset="0.5665" stop-color="#B74AF7"/>
<stop offset="0.9064" stop-color="#C276FF"/>
</linearGradient>
<linearGradient id="paint26_linear_2108_61186" x1="11.1303" y1="15.6233" x2="14.4475" y2="9.60333" gradientUnits="userSpaceOnUse">
<stop offset="0.0874352" stop-color="#FF45ED"/>
<stop offset="0.2127" stop-color="#FF42DC"/>
<stop offset="0.4594" stop-color="#FF38B0"/>
<stop offset="0.6408" stop-color="#FF318C"/>
</linearGradient>
</defs>
</svg>
