<!-- Copyright 2000-2024 JetBrains s.r.o. and contributors. Use of this source code is governed by the Apache 2.0 license. -->
<svg width="24" height="24" viewBox="0 0 24 24" fill="none" xmlns="http://www.w3.org/2000/svg">
<g clip-path="url(#clip0_3917_59729)">
<path d="M1.52727 24L14.6398 24C15.0447 24 15.4333 23.8392 15.7198 23.5527L23.5527 15.72C23.8392 15.4335 24 15.0452 24 14.64L24 1.52727C24 0.683782 23.3162 2.90399e-07 22.4727 2.16659e-07L9.36044 -9.29654e-07C8.95506 -9.65094e-07 8.56626 0.161236 8.27978 0.447927L0.447274 8.28938C0.161238 8.57563 0.000656849 8.964 0.000656814 9.36873L4.83696e-07 22.4727C4.09955e-07 23.3162 0.683782 24 1.52727 24Z" fill="url(#paint0_radial_3917_59729)"/>
<path d="M20 4H4V20H20V4Z" fill="black"/>
<path d="M12 17H6V18H12V17Z" fill="white"/>
<path d="M6 10.9542H7.19152V7.04576H6V6H9.5356V7.04576H8.34408V10.9542H9.5356V12H6V10.9542Z" fill="white"/>
<path d="M10.1367 10.9201H10.9982C11.1724 10.9201 11.3276 10.883 11.4632 10.8087C11.5989 10.7345 11.7039 10.6295 11.7781 10.4938C11.8524 10.3581 11.8895 10.2032 11.8895 10.0288V6H13.0595V10.1099C13.0595 10.47 12.9765 10.7936 12.8108 11.0807C12.6451 11.3679 12.4166 11.593 12.1251 11.7557C11.8336 11.9186 11.5065 12 11.1437 12H10.1367V10.9201Z" fill="white"/>
</g>
<defs>
<radialGradient id="paint0_radial_3917_59729" cx="0" cy="0" r="1" gradientUnits="userSpaceOnUse" gradientTransform="translate(23.3751 0.625108) rotate(135) scale(32.4245)">
<stop offset="0.109181" stop-color="#FE2857"/>
<stop offset="0.7" stop-color="#007EFF"/>
</radialGradient>
<clipPath id="clip0_3917_59729">
<rect width="24" height="24" fill="white"/>
</clipPath>
</defs>
</svg>
