<!-- Copyright 2000-2024 JetBrains s.r.o. and contributors. Use of this source code is governed by the Apache 2.0 license. -->
<svg width="20" height="20" viewBox="0 0 20 20" fill="none" xmlns="http://www.w3.org/2000/svg">
<g clip-path="url(#clip0_3917_59730)">
<path d="M1.27273 20L12.1998 20C12.5373 20 12.8611 19.866 13.0998 19.6273L19.6273 13.1C19.866 12.8613 20 12.5376 20 12.2L20 1.27273C20 0.569819 19.4302 5.83484e-07 18.7273 5.22034e-07L7.80037 -4.33227e-07C7.46255 -4.6276e-07 7.13855 0.134364 6.89982 0.373273L0.372729 6.90782C0.134365 7.14636 0.000547716 7.47 0.000547686 7.80727L7.44565e-07 18.7273C6.83114e-07 19.4302 0.569819 20 1.27273 20Z" fill="url(#paint0_radial_3917_59730)"/>
<path d="M16.6654 3.33398H3.33203V16.6673H16.6654V3.33398Z" fill="black"/>
<path d="M10 14.166H5V14.9993H10V14.166Z" fill="white"/>
<path d="M5 9.12853H5.99293V5.87147H5V5H7.94633V5.87147H6.9534V9.12853H7.94633V10H5V9.12853Z" fill="white"/>
<path d="M8.44531 9.10008H9.16323C9.30838 9.10008 9.43767 9.06914 9.55074 9.00726C9.6638 8.94538 9.75127 8.85791 9.81315 8.74484C9.87503 8.63178 9.90597 8.50267 9.90597 8.35733V5H10.881V8.42494C10.881 8.72498 10.8118 8.99465 10.6737 9.23396C10.5356 9.47326 10.3452 9.66081 10.1023 9.79641C9.85937 9.9322 9.58683 10 9.2845 10H8.44531V9.10008Z" fill="white"/>
</g>
<defs>
<radialGradient id="paint0_radial_3917_59730" cx="0" cy="0" r="1" gradientUnits="userSpaceOnUse" gradientTransform="translate(19.4793 0.520923) rotate(135) scale(27.0205)">
<stop offset="0.109181" stop-color="#FE2857"/>
<stop offset="0.7" stop-color="#007EFF"/>
</radialGradient>
<clipPath id="clip0_3917_59730">
<rect width="20" height="20" fill="white"/>
</clipPath>
</defs>
</svg>
