<!-- Copyright 2000-2024 JetBrains s.r.o. and contributors. Use of this source code is governed by the Apache 2.0 license. -->
<svg width="48" height="48" viewBox="0 0 48 48" fill="none" xmlns="http://www.w3.org/2000/svg">
<g clip-path="url(#clip0_3917_59728)">
<path d="M44.9455 0H18.7204C17.9105 0 17.1334 0.3216 16.5604 0.894545L0.894545 16.56C0.3216 17.1329 0 17.9097 0 18.72V44.9455C0 46.6324 1.36756 48 3.05455 48H29.2791C30.0899 48 30.8675 47.6775 31.4404 47.1041L47.1055 31.4212C47.6775 30.8487 47.9987 30.072 47.9987 29.2625L48 3.05455C48 1.36756 46.6324 0 44.9455 0Z" fill="url(#paint0_radial_3917_59728)"/>
<path d="M39 9H9V39H39V9Z" fill="black"/>
<path d="M25 33H13V35.0001H25V33Z" fill="white"/>
<path d="M13 22.0828H15.1845V14.9172H13V13H19.4819V14.9172H17.2975V22.0828H19.4819V24H13V22.0828Z" fill="white"/>
<path d="M20.582 22.0202H22.1614C22.4808 22.0202 22.7652 21.9521 23.014 21.816C23.2627 21.6798 23.4551 21.4874 23.5913 21.2387C23.7274 20.9899 23.7955 20.7059 23.7955 20.3861V13H25.9404V20.5349C25.9404 21.195 25.7883 21.7882 25.4846 22.3147C25.1808 22.8412 24.7619 23.2538 24.2274 23.5521C23.693 23.8508 23.0934 24 22.4282 24H20.582V22.0202Z" fill="white"/>
</g>
<defs>
<radialGradient id="paint0_radial_3917_59728" cx="0" cy="0" r="1" gradientUnits="userSpaceOnUse" gradientTransform="translate(47.9996) rotate(135) scale(65.4071)">
<stop offset="0.0819502" stop-color="#FE2857"/>
<stop offset="0.72777" stop-color="#007EFF"/>
</radialGradient>
<clipPath id="clip0_3917_59728">
<rect width="48" height="48" fill="white"/>
</clipPath>
</defs>
</svg>
