<svg width="24" height="24" viewBox="0 0 24 24" fill="none" xmlns="http://www.w3.org/2000/svg">
<path d="M23.2 6.70005L22.2 15.1L21.6 18.7L14.2 23.3L5 16.2L16.2 4.50005L23.2 6.70005Z" fill="url(#paint0_linear_2108_61193)"/>
<path d="M14.2 21.4001V22.1001H15L15.2 21.7001L14.2 21.4001Z" fill="url(#paint1_linear_2108_61193)"/>
<path d="M21 18.3001L22.2 15.1001L22.8 19.8001L21 18.3001Z" fill="url(#paint2_linear_2108_61193)"/>
<path d="M23.2001 6.70005L10.3001 15.6001L4.40015 16.5001L16.2001 1.10005L23.2001 6.70005Z" fill="url(#paint3_linear_2108_61193)"/>
<path d="M13.7 4.40005L16.2 1.10005L15.8 7.90005L13.7 4.40005Z" fill="url(#paint4_linear_2108_61193)"/>
<path d="M4.4 16.4L1 14L4.2 10.8L13.9 14.7L4.4 16.4Z" fill="url(#paint5_linear_2108_61193)"/>
<path d="M9.9001 20.2001L2.6001 22.7001L4.4001 17.5001L13.4001 14.1001L18.4001 17.1001L9.9001 20.2001Z" fill="url(#paint6_linear_2108_61193)"/>
<path d="M7.8 5.50005L4 0.800049L11.4 1.60005L12.2 4.00005L7.8 5.50005Z" fill="url(#paint7_linear_2108_61193)"/>
<path d="M22.2 15.1001L11.4 1.60005L7.39995 1.70005L5.19995 8.20005L19.2 15.9001L16.8 19.4001L21.6 18.7001L22.2 15.1001Z" fill="url(#paint8_linear_2108_61193)"/>
<path d="M5.1001 8.60005L2.6001 8.50005L4.0001 0.800049L7.4001 1.70005L5.1001 8.60005Z" fill="#FFD460"/>
<path d="M19.2001 15.9L12.9 14.6L0.800049 9.70005L5.20005 8.30005L19.2001 15.9Z" fill="url(#paint9_linear_2108_61193)"/>
<path d="M6.99995 2.80005L5.19995 8.30005L14 13.1H14.2L17.9 10.4L6.99995 2.80005Z" fill="url(#paint10_linear_2108_61193)"/>
<path d="M4.00005 0.800049L0.800049 9.70005L4.90005 8.60005L5.20005 8.30005L7.00005 2.80005L4.00005 0.800049Z" fill="url(#paint11_linear_2108_61193)"/>
<path d="M2.6001 22.7L5.3001 11.5L12.9001 14.6L2.6001 22.7Z" fill="url(#paint12_linear_2108_61193)"/>
<path d="M12.9 14.6001L8.7 10.9001L3 10.4001L1 14.0001L5.1 12.3001H5.2L2.6 22.7001L12.9 14.6001Z" fill="url(#paint13_linear_2108_61193)"/>
<path d="M19.2001 15.9001L15.3001 21.7001L9.90015 20.3001L12.9001 14.6001L19.2001 15.9001Z" fill="url(#paint14_linear_2108_61193)"/>
<path d="M19.2001 15.9L12.9 14.6L0.800049 9.70005L5.20005 8.30005L19.2001 15.9Z" fill="url(#paint15_linear_2108_61193)"/>
<path d="M5.20005 8.30005L0.800049 9.70005L14 13.1L5.20005 8.30005Z" fill="url(#paint16_linear_2108_61193)"/>
<path d="M21.6 18.7L16.7 19.4L14.2 23.3L22.8 19.8L21.6 18.7Z" fill="url(#paint17_linear_2108_61193)"/>
<path d="M14.2001 23.3001L16.8001 19.4001L9.90015 20.3001L14.2001 23.3001Z" fill="url(#paint18_linear_2108_61193)"/>
<path d="M9.1001 10.4001L14.0001 13.1001L18.2001 10.2001L13.6001 4.40005L9.1001 10.4001Z" fill="url(#paint19_linear_2108_61193)"/>
<path d="M17.9001 10.4001L12.1001 6.40005L9.1001 10.4001L14.0001 13.1001L17.7001 10.6001L17.9001 10.4001Z" fill="url(#paint20_linear_2108_61193)"/>
<path d="M19 5H5V19H19V5Z" fill="url(#paint21_linear_2108_61193)"/>
<g opacity="0.3">
<g opacity="0.3">
<path opacity="0.3" d="M18.75 19L19 18.95V16L16.95 19H18.75Z" fill="#231F20"/>
<path opacity="0.3" d="M13.95 5H6.4L5.3 8.3L18.4 15.45L5.35 8.35L5 8.45V11.35L12.9 14.5L19 15.85V15.8V11.25L13.95 5Z" fill="url(#paint22_linear_2108_61193)"/>
<path opacity="0.3" d="M6.40005 5L5.30005 8.3L19 15.8V11.25L13.95 5H6.40005Z" fill="url(#paint23_linear_2108_61193)"/>
<path opacity="0.3" d="M5 5V8.65L5.35 8.35L6.45 5H5Z" fill="#F9ED32"/>
</g>
<path opacity="0.3" d="M5 8.44998V11.35L12.9 14.5L19 15.85V15.8L5.35 8.34998L5 8.44998Z" fill="url(#paint24_linear_2108_61193)"/>
<path opacity="0.3" d="M5 10.75L14 13.05L5.35 8.34998L5 8.44998V10.75Z" fill="url(#paint25_linear_2108_61193)"/>
<path opacity="0.3" d="M10.5 19L12.9 14.5L7.19995 19H10.5Z" fill="url(#paint26_linear_2108_61193)"/>
<path opacity="0.3" d="M5 13.4L5.25 12.3L5.2 12.35L5 12.45V13.4Z" fill="#F7941D"/>
<path opacity="0.3" d="M5 12.45L5.2 12.35L5.25 12.3L5 13.4V19H7.2L12.9 14.5L5 11.35V12.45Z" fill="url(#paint27_linear_2108_61193)"/>
<path opacity="0.3" d="M10.5 19H16.95L19 16V15.85L12.9 14.5L10.5 19Z" fill="url(#paint28_linear_2108_61193)"/>
<g opacity="0.3">
<path opacity="0.3" d="M18.15 10.2L19 9.6V5H13.95L18.15 10.2Z" fill="url(#paint29_linear_2108_61193)"/>
</g>
</g>
<path d="M13 16H7V17H13V16Z" fill="white"/>
<path d="M10.0125 8.09998V7.00623H7.03125V8.09998H7.86875V11.875H7.03125V12.9687H10.0125V11.875H9.18125V8.09998H10.0125Z" fill="white"/>
<path d="M12.8748 13.0562C12.4061 13.0562 12.0186 12.9687 11.7061 12.7937C11.3936 12.6187 11.1311 12.4062 10.9248 12.1625L11.7498 11.2437C11.9186 11.4312 12.0936 11.575 12.2623 11.6812C12.4373 11.7875 12.6248 11.8375 12.8373 11.8375C13.0873 11.8375 13.2811 11.7625 13.4248 11.6C13.5686 11.4437 13.6373 11.1937 13.6373 10.8437V7.00623H14.9811V10.9062C14.9811 11.2625 14.9311 11.575 14.8373 11.8375C14.7436 12.1 14.5998 12.3187 14.4186 12.5C14.2373 12.6812 14.0123 12.8187 13.7498 12.9125C13.4936 13.0062 13.1998 13.0562 12.8748 13.0562Z" fill="white"/>
<defs>
<linearGradient id="paint0_linear_2108_61193" x1="13.8042" y1="7.49665" x2="14.7549" y2="19.3599" gradientUnits="userSpaceOnUse">
<stop offset="0.0998726" stop-color="#087CFA"/>
<stop offset="0.4602" stop-color="#079AF6"/>
<stop offset="0.8454" stop-color="#07C3F2"/>
</linearGradient>
<linearGradient id="paint1_linear_2108_61193" x1="14.7371" y1="21.8844" x2="14.9235" y2="22.1549" gradientUnits="userSpaceOnUse">
<stop offset="0.2859" stop-color="#087CFA"/>
<stop offset="1" stop-color="#079AF6"/>
</linearGradient>
<linearGradient id="paint2_linear_2108_61193" x1="21.5396" y1="20.2615" x2="23.6325" y2="13.9555" gradientUnits="userSpaceOnUse">
<stop offset="0.1184" stop-color="#27A6F6"/>
<stop offset="0.2418" stop-color="#2F99F5"/>
<stop offset="0.9197" stop-color="#5753F2"/>
</linearGradient>
<linearGradient id="paint3_linear_2108_61193" x1="23.6923" y1="2.03345" x2="10.6116" y2="9.94335" gradientUnits="userSpaceOnUse">
<stop offset="0.286" stop-color="#0AEFFF"/>
<stop offset="0.3292" stop-color="#09DEFA"/>
<stop offset="0.3966" stop-color="#07CAF4"/>
<stop offset="0.442" stop-color="#07C3F2"/>
<stop offset="0.5015" stop-color="#07ACF5"/>
<stop offset="0.5749" stop-color="#0897F7"/>
<stop offset="0.6568" stop-color="#0888F9"/>
<stop offset="0.7528" stop-color="#087FFA"/>
<stop offset="0.8981" stop-color="#087CFA"/>
</linearGradient>
<linearGradient id="paint4_linear_2108_61193" x1="14.9396" y1="0.588052" x2="14.9396" y2="9.26435" gradientUnits="userSpaceOnUse">
<stop offset="0.207" stop-color="#02C5FE"/>
<stop offset="0.317" stop-color="#04ACFD"/>
<stop offset="0.4435" stop-color="#0697FB"/>
<stop offset="0.5845" stop-color="#0788FB"/>
<stop offset="0.7499" stop-color="#087FFA"/>
<stop offset="1" stop-color="#087CFA"/>
</linearGradient>
<linearGradient id="paint5_linear_2108_61193" x1="4.3791" y1="11.5033" x2="6.3192" y2="13.3206" gradientUnits="userSpaceOnUse">
<stop stop-color="#FF581C"/>
<stop offset="0.1918" stop-color="#FF5124"/>
<stop offset="0.4947" stop-color="#FE3F3B"/>
<stop offset="0.7851" stop-color="#FE2857"/>
</linearGradient>
<linearGradient id="paint6_linear_2108_61193" x1="6.8928" y1="16.0697" x2="10.163" y2="19.5915" gradientUnits="userSpaceOnUse">
<stop offset="0.4574" stop-color="#FF149D"/>
<stop offset="0.536" stop-color="#EF1AB2"/>
<stop offset="0.6983" stop-color="#C82BE9"/>
<stop offset="0.7574" stop-color="#B831FF"/>
<stop offset="0.8388" stop-color="#A33AFE"/>
<stop offset="1" stop-color="#6E51FD"/>
</linearGradient>
<linearGradient id="paint7_linear_2108_61193" x1="7.6003" y1="0.170949" x2="8.6423" y2="4.72945" gradientUnits="userSpaceOnUse">
<stop offset="0.0276342" stop-color="#FFDE17"/>
<stop offset="0.276" stop-color="#FDB60D"/>
<stop offset="0.5939" stop-color="#FC801D"/>
<stop offset="0.6532" stop-color="#FC7A25"/>
<stop offset="0.7469" stop-color="#FD6A3C"/>
<stop offset="0.8628" stop-color="#FE4F61"/>
<stop offset="0.976" stop-color="#FF318C"/>
</linearGradient>
<linearGradient id="paint8_linear_2108_61193" x1="6.85115" y1="4.75035" x2="22.5774" y2="17.2353" gradientUnits="userSpaceOnUse">
<stop stop-color="#FE2857"/>
<stop offset="0.0557468" stop-color="#FE255F"/>
<stop offset="0.1437" stop-color="#FF1F76"/>
<stop offset="0.2282" stop-color="#FF1692"/>
<stop offset="0.289" stop-color="#F11BA7"/>
<stop offset="0.4143" stop-color="#CD29DE"/>
<stop offset="0.4828" stop-color="#B831FF"/>
<stop offset="0.581" stop-color="#7A4CFD"/>
<stop offset="0.748" stop-color="#087CFA"/>
<stop offset="0.9745" stop-color="#07A5F5"/>
</linearGradient>
<linearGradient id="paint9_linear_2108_61193" x1="2.47875" y1="8.70215" x2="18.0721" y2="16.8146" gradientUnits="userSpaceOnUse">
<stop offset="0.2464" stop-color="#FE2857"/>
<stop offset="0.292" stop-color="#FE265F"/>
<stop offset="0.3641" stop-color="#FE1F76"/>
<stop offset="0.4534" stop-color="#FF159B"/>
<stop offset="0.4574" stop-color="#FF149D"/>
<stop offset="0.536" stop-color="#EF1AB2"/>
<stop offset="0.6983" stop-color="#C82BE9"/>
<stop offset="0.7574" stop-color="#B831FF"/>
<stop offset="0.811" stop-color="#A33AFE"/>
<stop offset="0.9215" stop-color="#6C52FD"/>
<stop offset="1" stop-color="#4164FC"/>
</linearGradient>
<linearGradient id="paint10_linear_2108_61193" x1="5.90705" y1="5.33795" x2="14.7114" y2="11.6267" gradientUnits="userSpaceOnUse">
<stop offset="0.00823305" stop-color="#FC35E3"/>
<stop offset="0.2164" stop-color="#F12CD5"/>
<stop offset="0.4105" stop-color="#EB27CD"/>
<stop offset="0.4984" stop-color="#DE2ADA"/>
<stop offset="0.7777" stop-color="#B831FF"/>
<stop offset="1" stop-color="#6D51FD"/>
</linearGradient>
<linearGradient id="paint11_linear_2108_61193" x1="2.32735" y1="5.17335" x2="5.36695" y2="7.12285" gradientUnits="userSpaceOnUse">
<stop offset="0.0433729" stop-color="#FFD25F"/>
<stop offset="0.2889" stop-color="#FEBC9B"/>
<stop offset="0.6173" stop-color="#FC9CF0"/>
<stop offset="1" stop-color="#FD5ED7"/>
</linearGradient>
<linearGradient id="paint12_linear_2108_61193" x1="-0.163402" y1="10.8923" x2="13.9095" y2="24.6653" gradientUnits="userSpaceOnUse">
<stop offset="0.0226617" stop-color="#FC801D"/>
<stop offset="0.2467" stop-color="#FC7E20"/>
<stop offset="0.276" stop-color="#FC772A"/>
<stop offset="0.3253" stop-color="#FD6444"/>
<stop offset="0.3881" stop-color="#FE466E"/>
<stop offset="0.4273" stop-color="#FF318C"/>
<stop offset="0.4924" stop-color="#EA3896"/>
<stop offset="0.6276" stop-color="#B248AE"/>
<stop offset="0.8194" stop-color="#5A63D6"/>
<stop offset="0.9859" stop-color="#087CFA"/>
</linearGradient>
<linearGradient id="paint13_linear_2108_61193" x1="3.2864" y1="10.9308" x2="7.7278" y2="18.6056" gradientUnits="userSpaceOnUse">
<stop offset="0.00442798" stop-color="#FFDE17"/>
<stop offset="0.0525354" stop-color="#FECB12"/>
<stop offset="0.1093" stop-color="#FDBB0E"/>
<stop offset="0.1542" stop-color="#FDB60D"/>
<stop offset="0.2351" stop-color="#FDAE0F"/>
<stop offset="0.3571" stop-color="#FC9A15"/>
<stop offset="0.4724" stop-color="#FC801D"/>
<stop offset="1" stop-color="#FE4176"/>
</linearGradient>
<linearGradient id="paint14_linear_2108_61193" x1="12.5366" y1="14.8874" x2="16.643" y2="21.4295" gradientUnits="userSpaceOnUse">
<stop offset="0.0211218" stop-color="#B149AF"/>
<stop offset="0.0831639" stop-color="#9153BD"/>
<stop offset="0.2186" stop-color="#3F6BE2"/>
<stop offset="0.3042" stop-color="#087CFA"/>
<stop offset="0.7942" stop-color="#07C3F2"/>
</linearGradient>
<linearGradient id="paint15_linear_2108_61193" x1="2.47875" y1="8.70215" x2="18.0721" y2="16.8146" gradientUnits="userSpaceOnUse">
<stop offset="0.2464" stop-color="#FE2857"/>
<stop offset="0.292" stop-color="#FE265F"/>
<stop offset="0.3641" stop-color="#FE1F76"/>
<stop offset="0.4534" stop-color="#FF159B"/>
<stop offset="0.4574" stop-color="#FF149D"/>
<stop offset="0.536" stop-color="#EF1AB2"/>
<stop offset="0.6983" stop-color="#C82BE9"/>
<stop offset="0.7574" stop-color="#B831FF"/>
<stop offset="0.811" stop-color="#A33AFE"/>
<stop offset="0.9215" stop-color="#6C52FD"/>
<stop offset="1" stop-color="#4164FC"/>
</linearGradient>
<linearGradient id="paint16_linear_2108_61193" x1="3.90825" y1="9.43645" x2="11.1012" y2="13.4374" gradientUnits="userSpaceOnUse">
<stop offset="0.00629908" stop-color="#FF45ED"/>
<stop offset="0.1766" stop-color="#FF35D8"/>
<stop offset="0.3352" stop-color="#FF24C0"/>
<stop offset="0.7349" stop-color="#EA23CA"/>
<stop offset="1" stop-color="#D923D1"/>
</linearGradient>
<linearGradient id="paint17_linear_2108_61193" x1="20.2417" y1="17.0088" x2="17.8856" y2="23.1264" gradientUnits="userSpaceOnUse">
<stop offset="0.2157" stop-color="#07C3F2"/>
<stop offset="0.3237" stop-color="#04B1EC"/>
<stop offset="0.4576" stop-color="#01A1E7"/>
<stop offset="0.5613" stop-color="#009BE5"/>
<stop offset="0.5745" stop-color="#0198E7"/>
<stop offset="0.6778" stop-color="#058AF1"/>
<stop offset="0.7992" stop-color="#0781F7"/>
<stop offset="0.9829" stop-color="#087EF9"/>
</linearGradient>
<linearGradient id="paint18_linear_2108_61193" x1="10.3911" y1="19.5255" x2="15.7855" y2="21.454" gradientUnits="userSpaceOnUse">
<stop offset="0.1529" stop-color="#087CFA"/>
<stop offset="0.6343" stop-color="#009AE5"/>
<stop offset="1" stop-color="#07C3F2"/>
</linearGradient>
<linearGradient id="paint19_linear_2108_61193" x1="14.7482" y1="5.31745" x2="13.0718" y2="13.0382" gradientUnits="userSpaceOnUse">
<stop stop-color="#FF188D"/>
<stop offset="0.3188" stop-color="#D82EC8"/>
<stop offset="0.4411" stop-color="#CC30CC"/>
<stop offset="0.6628" stop-color="#AC35D7"/>
<stop offset="0.8981" stop-color="#833CE5"/>
</linearGradient>
<linearGradient id="paint20_linear_2108_61193" x1="11.165" y1="7.13805" x2="14.4351" y2="11.7499" gradientUnits="userSpaceOnUse">
<stop stop-color="#FF188D"/>
<stop offset="0.3188" stop-color="#D82EC8"/>
<stop offset="0.4411" stop-color="#CC30CC"/>
<stop offset="0.6628" stop-color="#AC35D7"/>
<stop offset="0.8981" stop-color="#833CE5"/>
</linearGradient>
<linearGradient id="paint21_linear_2108_61193" x1="4.78395" y1="6.11705" x2="19.1154" y2="17.8009" gradientUnits="userSpaceOnUse">
<stop stop-color="#521713"/>
<stop offset="0.080028" stop-color="#451310"/>
<stop offset="0.2989" stop-color="#270B09"/>
<stop offset="0.514" stop-color="#110504"/>
<stop offset="0.7218" stop-color="#040101"/>
<stop offset="0.9138"/>
</linearGradient>
<linearGradient id="paint22_linear_2108_61193" x1="5" y1="10.4163" x2="19" y2="10.4163" gradientUnits="userSpaceOnUse">
<stop offset="0.2464" stop-color="#FE2857"/>
<stop offset="0.292" stop-color="#FE265F"/>
<stop offset="0.3641" stop-color="#FE1F76"/>
<stop offset="0.4534" stop-color="#FF159B"/>
<stop offset="0.4574" stop-color="#FF149D"/>
<stop offset="0.536" stop-color="#EF1AB2"/>
<stop offset="0.6983" stop-color="#C82BE9"/>
<stop offset="0.7574" stop-color="#B831FF"/>
<stop offset="0.811" stop-color="#A33AFE"/>
<stop offset="0.9215" stop-color="#6C52FD"/>
<stop offset="1" stop-color="#4164FC"/>
</linearGradient>
<linearGradient id="paint23_linear_2108_61193" x1="5.28645" y1="10.4004" x2="19" y2="10.4004" gradientUnits="userSpaceOnUse">
<stop offset="0.1118" stop-color="#F7941D"/>
<stop offset="0.1374" stop-color="#F88C25"/>
<stop offset="0.178" stop-color="#F9753A"/>
<stop offset="0.2284" stop-color="#FB505D"/>
<stop offset="0.2863" stop-color="#FF1C8C"/>
<stop offset="0.2928" stop-color="#FF1692"/>
<stop offset="0.4031" stop-color="#EA1A93"/>
<stop offset="0.4677" stop-color="#DB1D93"/>
<stop offset="0.5543" stop-color="#9F2895"/>
<stop offset="0.7229" stop-color="#21409A"/>
<stop offset="0.8671" stop-color="#222F5C"/>
<stop offset="1" stop-color="#231F20"/>
</linearGradient>
<linearGradient id="paint24_linear_2108_61193" x1="5" y1="12.0835" x2="19" y2="12.0835" gradientUnits="userSpaceOnUse">
<stop offset="0.0878508" stop-color="#FE2857"/>
<stop offset="0.1283" stop-color="#FE265F"/>
<stop offset="0.1923" stop-color="#FE1F76"/>
<stop offset="0.2716" stop-color="#FF159B"/>
<stop offset="0.2751" stop-color="#FF149D"/>
<stop offset="0.4167" stop-color="#B21871"/>
<stop offset="0.5427" stop-color="#741B4E"/>
<stop offset="0.6489" stop-color="#481D35"/>
<stop offset="0.731" stop-color="#2D1E26"/>
<stop offset="0.7791" stop-color="#231F20"/>
</linearGradient>
<linearGradient id="paint25_linear_2108_61193" x1="6.3552" y1="10.1587" x2="11.8376" y2="13.2082" gradientUnits="userSpaceOnUse">
<stop offset="0.00629908" stop-color="#FF45ED"/>
<stop offset="0.1766" stop-color="#FF35D8"/>
<stop offset="0.3352" stop-color="#FF24C0"/>
<stop offset="0.451" stop-color="#EA24B0"/>
<stop offset="0.6916" stop-color="#B22388"/>
<stop offset="1" stop-color="#63214F"/>
</linearGradient>
<linearGradient id="paint26_linear_2108_61193" x1="7.19915" y1="16.7598" x2="12.903" y2="16.7598" gradientUnits="userSpaceOnUse">
<stop offset="0.4574" stop-color="#FF149D"/>
<stop offset="0.536" stop-color="#EF1AB2"/>
<stop offset="0.6983" stop-color="#C82BE9"/>
<stop offset="0.7574" stop-color="#B831FF"/>
<stop offset="0.8388" stop-color="#A33AFE"/>
<stop offset="1" stop-color="#6E51FD"/>
</linearGradient>
<linearGradient id="paint27_linear_2108_61193" x1="5" y1="15.1692" x2="12.903" y2="15.1692" gradientUnits="userSpaceOnUse">
<stop offset="0.00442798" stop-color="#FFDE17"/>
<stop offset="0.0386836" stop-color="#FECB12"/>
<stop offset="0.0790912" stop-color="#FDBB0E"/>
<stop offset="0.1111" stop-color="#FDB60D"/>
<stop offset="0.1673" stop-color="#FDAE0F"/>
<stop offset="0.2521" stop-color="#FC9A15"/>
<stop offset="0.3323" stop-color="#FC801D"/>
<stop offset="0.7374" stop-color="#BE1E2D"/>
</linearGradient>
<linearGradient id="paint28_linear_2108_61193" x1="10.5154" y1="16.7597" x2="19" y2="16.7597" gradientUnits="userSpaceOnUse">
<stop stop-color="#087CFA"/>
<stop offset="0.7942" stop-color="#231F20"/>
</linearGradient>
<linearGradient id="paint29_linear_2108_61193" x1="24.7126" y1="18.3277" x2="15.7915" y2="3.8812" gradientUnits="userSpaceOnUse">
<stop offset="0.3486" stop-color="#3595F3"/>
<stop offset="0.4019" stop-color="#3490EB"/>
<stop offset="0.4865" stop-color="#3284D4"/>
<stop offset="0.5918" stop-color="#2F6FAE"/>
<stop offset="0.7135" stop-color="#2B527B"/>
<stop offset="0.8476" stop-color="#252D39"/>
<stop offset="0.8951" stop-color="#231F20"/>
</linearGradient>
</defs>
</svg>
