<svg width="20" height="20" viewBox="0 0 20 20" fill="none" xmlns="http://www.w3.org/2000/svg">
<path d="M19.3334 5.58336L18.5001 12.5834L18.0001 15.5834L11.8334 19.4167L4.16675 13.5L13.5001 3.75003L19.3334 5.58336Z" fill="url(#paint0_linear_2108_61194)"/>
<path d="M11.8333 17.8334V18.4167H12.4999L12.6666 18.0834L11.8333 17.8334Z" fill="url(#paint1_linear_2108_61194)"/>
<path d="M17.5 15.25L18.5 12.5834L19 16.5L17.5 15.25Z" fill="url(#paint2_linear_2108_61194)"/>
<path d="M19.3334 5.58337L8.58341 13L3.66675 13.75L13.5001 0.916702L19.3334 5.58337Z" fill="url(#paint3_linear_2108_61194)"/>
<path d="M11.4165 3.6667L13.4998 0.916702L13.1665 6.58337L11.4165 3.6667Z" fill="url(#paint4_linear_2108_61194)"/>
<path d="M3.66659 13.6667L0.833252 11.6667L3.49992 9.00003L11.5833 12.25L3.66659 13.6667Z" fill="url(#paint5_linear_2108_61194)"/>
<path d="M8.25008 16.8334L2.16675 18.9167L3.66675 14.5834L11.1667 11.75L15.3334 14.25L8.25008 16.8334Z" fill="url(#paint6_linear_2108_61194)"/>
<path d="M6.49992 4.58337L3.33325 0.666702L9.49992 1.33337L10.1666 3.33337L6.49992 4.58337Z" fill="url(#paint7_linear_2108_61194)"/>
<path d="M18.4999 12.5834L9.49992 1.33337L6.16659 1.41671L4.33325 6.83337L15.9999 13.25L13.9999 16.1667L17.9999 15.5834L18.4999 12.5834Z" fill="url(#paint8_linear_2108_61194)"/>
<path d="M4.25008 7.1667L2.16675 7.08337L3.33341 0.666702L6.16675 1.4167L4.25008 7.1667Z" fill="#FFD460"/>
<path d="M16.0001 13.25L10.7501 12.1667L0.666748 8.08337L4.33341 6.9167L16.0001 13.25Z" fill="url(#paint9_linear_2108_61194)"/>
<path d="M5.83325 2.33337L4.33325 6.91671L11.6666 10.9167H11.8333L14.9166 8.66671L5.83325 2.33337Z" fill="url(#paint10_linear_2108_61194)"/>
<path d="M3.33341 0.666702L0.666748 8.08337L4.08341 7.1667L4.33341 6.9167L5.83341 2.33337L3.33341 0.666702Z" fill="url(#paint11_linear_2108_61194)"/>
<path d="M2.16675 18.9167L4.41675 9.58336L10.7501 12.1667L2.16675 18.9167Z" fill="url(#paint12_linear_2108_61194)"/>
<path d="M10.7499 12.1667L7.24992 9.08337L2.49992 8.6667L0.833252 11.6667L4.24992 10.25H4.33325L2.16659 18.9167L10.7499 12.1667Z" fill="url(#paint13_linear_2108_61194)"/>
<path d="M16 13.25L12.75 18.0834L8.25 16.9167L10.75 12.1667L16 13.25Z" fill="url(#paint14_linear_2108_61194)"/>
<path d="M16.0001 13.25L10.7501 12.1667L0.666748 8.08337L4.33341 6.9167L16.0001 13.25Z" fill="url(#paint15_linear_2108_61194)"/>
<path d="M4.33341 6.9167L0.666748 8.08337L11.6667 10.9167L4.33341 6.9167Z" fill="url(#paint16_linear_2108_61194)"/>
<path d="M17.9999 15.5834L13.9166 16.1667L11.8333 19.4167L18.9999 16.5L17.9999 15.5834Z" fill="url(#paint17_linear_2108_61194)"/>
<path d="M11.8333 19.4167L14 16.1667L8.25 16.9167L11.8333 19.4167Z" fill="url(#paint18_linear_2108_61194)"/>
<path d="M7.5835 8.6667L11.6668 10.9167L15.1668 8.50004L11.3335 3.6667L7.5835 8.6667Z" fill="url(#paint19_linear_2108_61194)"/>
<path d="M14.9168 8.66669L10.0835 5.33336L7.5835 8.66669L11.6668 10.9167L14.7502 8.83336L14.9168 8.66669Z" fill="url(#paint20_linear_2108_61194)"/>
<path d="M15.8334 4.16667H4.16675V15.8333H15.8334V4.16667Z" fill="url(#paint21_linear_2108_61194)"/>
<g opacity="0.3">
<g opacity="0.3">
<path opacity="0.3" d="M15.625 15.8333L15.8333 15.7917V13.3333L14.125 15.8333H15.625Z" fill="#231F20"/>
<path opacity="0.3" d="M11.6251 4.16667H5.33341L4.41675 6.91667L15.3334 12.875L4.45841 6.95834L4.16675 7.04167V9.45834L10.7501 12.0833L15.8334 13.2083V13.1667V9.375L11.6251 4.16667Z" fill="url(#paint22_linear_2108_61194)"/>
<path opacity="0.3" d="M5.33341 4.16667L4.41675 6.91667L15.8334 13.1667V9.375L11.6251 4.16667H5.33341Z" fill="url(#paint23_linear_2108_61194)"/>
<path opacity="0.3" d="M4.16675 4.16667V7.20834L4.45841 6.95834L5.37508 4.16667H4.16675Z" fill="#F9ED32"/>
</g>
<path opacity="0.3" d="M4.16675 7.04165V9.45831L10.7501 12.0833L15.8334 13.2083V13.1666L4.45841 6.95831L4.16675 7.04165Z" fill="url(#paint24_linear_2108_61194)"/>
<path opacity="0.3" d="M4.16675 8.95831L11.6667 10.875L4.45841 6.95831L4.16675 7.04165V8.95831Z" fill="url(#paint25_linear_2108_61194)"/>
<path opacity="0.3" d="M8.75 15.8333L10.75 12.0833L6 15.8333H8.75Z" fill="url(#paint26_linear_2108_61194)"/>
<path opacity="0.3" d="M4.16675 11.1667L4.37508 10.25L4.33341 10.2917L4.16675 10.375V11.1667Z" fill="#F7941D"/>
<path opacity="0.3" d="M4.16675 10.375L4.33341 10.2916L4.37508 10.25L4.16675 11.1666V15.8333H6.00008L10.7501 12.0833L4.16675 9.45831V10.375Z" fill="url(#paint27_linear_2108_61194)"/>
<path opacity="0.3" d="M8.75 15.8333H14.125L15.8333 13.3333V13.2083L10.75 12.0833L8.75 15.8333Z" fill="url(#paint28_linear_2108_61194)"/>
<g opacity="0.3">
<path opacity="0.3" d="M15.125 8.5L15.8333 8.00001V4.16667H11.625L15.125 8.5Z" fill="url(#paint29_linear_2108_61194)"/>
</g>
</g>
<path d="M10.8333 13.3333H5.83325V14.1667H10.8333V13.3333Z" fill="white"/>
<path d="M8.34375 6.74998V5.83852H5.85938V6.74998H6.55729V9.89581H5.85938V10.8073H8.34375V9.89581H7.65104V6.74998H8.34375Z" fill="white"/>
<path d="M10.729 10.8802C10.3384 10.8802 10.0155 10.8073 9.75505 10.6614C9.49463 10.5156 9.27588 10.3385 9.104 10.1354L9.7915 9.36977C9.93213 9.52602 10.078 9.64581 10.2186 9.73435C10.3644 9.8229 10.5207 9.86456 10.6978 9.86456C10.9061 9.86456 11.0675 9.80206 11.1873 9.66665C11.3071 9.53644 11.3644 9.3281 11.3644 9.03644V5.83852H12.4842V9.08852C12.4842 9.3854 12.4425 9.64581 12.3644 9.86456C12.2863 10.0833 12.1665 10.2656 12.0155 10.4166C11.8644 10.5677 11.6769 10.6823 11.4582 10.7604C11.2446 10.8385 10.9998 10.8802 10.729 10.8802Z" fill="white"/>
<defs>
<linearGradient id="paint0_linear_2108_61194" x1="11.5036" y1="6.2472" x2="12.2958" y2="16.1333" gradientUnits="userSpaceOnUse">
<stop offset="0.0998726" stop-color="#087CFA"/>
<stop offset="0.4602" stop-color="#079AF6"/>
<stop offset="0.8454" stop-color="#07C3F2"/>
</linearGradient>
<linearGradient id="paint1_linear_2108_61194" x1="12.2808" y1="18.2369" x2="12.4362" y2="18.4624" gradientUnits="userSpaceOnUse">
<stop offset="0.2859" stop-color="#087CFA"/>
<stop offset="1" stop-color="#079AF6"/>
</linearGradient>
<linearGradient id="paint2_linear_2108_61194" x1="17.9497" y1="16.8845" x2="19.6937" y2="11.6295" gradientUnits="userSpaceOnUse">
<stop offset="0.1184" stop-color="#27A6F6"/>
<stop offset="0.2418" stop-color="#2F99F5"/>
<stop offset="0.9197" stop-color="#5753F2"/>
</linearGradient>
<linearGradient id="paint3_linear_2108_61194" x1="19.7436" y1="1.69454" x2="8.843" y2="8.28612" gradientUnits="userSpaceOnUse">
<stop offset="0.286" stop-color="#0AEFFF"/>
<stop offset="0.3292" stop-color="#09DEFA"/>
<stop offset="0.3966" stop-color="#07CAF4"/>
<stop offset="0.442" stop-color="#07C3F2"/>
<stop offset="0.5015" stop-color="#07ACF5"/>
<stop offset="0.5749" stop-color="#0897F7"/>
<stop offset="0.6568" stop-color="#0888F9"/>
<stop offset="0.7528" stop-color="#087FFA"/>
<stop offset="0.8981" stop-color="#087CFA"/>
</linearGradient>
<linearGradient id="paint4_linear_2108_61194" x1="12.4495" y1="0.490036" x2="12.4495" y2="7.72029" gradientUnits="userSpaceOnUse">
<stop offset="0.207" stop-color="#02C5FE"/>
<stop offset="0.317" stop-color="#04ACFD"/>
<stop offset="0.4435" stop-color="#0697FB"/>
<stop offset="0.5845" stop-color="#0788FB"/>
<stop offset="0.7499" stop-color="#087FFA"/>
<stop offset="1" stop-color="#087CFA"/>
</linearGradient>
<linearGradient id="paint5_linear_2108_61194" x1="3.64917" y1="9.58611" x2="5.26592" y2="11.1005" gradientUnits="userSpaceOnUse">
<stop stop-color="#FF581C"/>
<stop offset="0.1918" stop-color="#FF5124"/>
<stop offset="0.4947" stop-color="#FE3F3B"/>
<stop offset="0.7851" stop-color="#FE2857"/>
</linearGradient>
<linearGradient id="paint6_linear_2108_61194" x1="5.744" y1="13.3914" x2="8.46916" y2="16.3262" gradientUnits="userSpaceOnUse">
<stop offset="0.4574" stop-color="#FF149D"/>
<stop offset="0.536" stop-color="#EF1AB2"/>
<stop offset="0.6983" stop-color="#C82BE9"/>
<stop offset="0.7574" stop-color="#B831FF"/>
<stop offset="0.8388" stop-color="#A33AFE"/>
<stop offset="1" stop-color="#6E51FD"/>
</linearGradient>
<linearGradient id="paint7_linear_2108_61194" x1="6.3335" y1="0.142452" x2="7.20184" y2="3.9412" gradientUnits="userSpaceOnUse">
<stop offset="0.0276342" stop-color="#FFDE17"/>
<stop offset="0.276" stop-color="#FDB60D"/>
<stop offset="0.5939" stop-color="#FC801D"/>
<stop offset="0.6532" stop-color="#FC7A25"/>
<stop offset="0.7469" stop-color="#FD6A3C"/>
<stop offset="0.8628" stop-color="#FE4F61"/>
<stop offset="0.976" stop-color="#FF318C"/>
</linearGradient>
<linearGradient id="paint8_linear_2108_61194" x1="5.70925" y1="3.95862" x2="18.8144" y2="14.3627" gradientUnits="userSpaceOnUse">
<stop stop-color="#FE2857"/>
<stop offset="0.0557468" stop-color="#FE255F"/>
<stop offset="0.1437" stop-color="#FF1F76"/>
<stop offset="0.2282" stop-color="#FF1692"/>
<stop offset="0.289" stop-color="#F11BA7"/>
<stop offset="0.4143" stop-color="#CD29DE"/>
<stop offset="0.4828" stop-color="#B831FF"/>
<stop offset="0.581" stop-color="#7A4CFD"/>
<stop offset="0.748" stop-color="#087CFA"/>
<stop offset="0.9745" stop-color="#07A5F5"/>
</linearGradient>
<linearGradient id="paint9_linear_2108_61194" x1="2.06566" y1="7.25179" x2="15.0602" y2="14.0122" gradientUnits="userSpaceOnUse">
<stop offset="0.2464" stop-color="#FE2857"/>
<stop offset="0.292" stop-color="#FE265F"/>
<stop offset="0.3641" stop-color="#FE1F76"/>
<stop offset="0.4534" stop-color="#FF159B"/>
<stop offset="0.4574" stop-color="#FF149D"/>
<stop offset="0.536" stop-color="#EF1AB2"/>
<stop offset="0.6983" stop-color="#C82BE9"/>
<stop offset="0.7574" stop-color="#B831FF"/>
<stop offset="0.811" stop-color="#A33AFE"/>
<stop offset="0.9215" stop-color="#6C52FD"/>
<stop offset="1" stop-color="#4164FC"/>
</linearGradient>
<linearGradient id="paint10_linear_2108_61194" x1="4.9225" y1="4.44829" x2="12.2594" y2="9.68896" gradientUnits="userSpaceOnUse">
<stop offset="0.00823305" stop-color="#FC35E3"/>
<stop offset="0.2164" stop-color="#F12CD5"/>
<stop offset="0.4105" stop-color="#EB27CD"/>
<stop offset="0.4984" stop-color="#DE2ADA"/>
<stop offset="0.7777" stop-color="#B831FF"/>
<stop offset="1" stop-color="#6D51FD"/>
</linearGradient>
<linearGradient id="paint11_linear_2108_61194" x1="1.9395" y1="4.31112" x2="4.4725" y2="5.9357" gradientUnits="userSpaceOnUse">
<stop offset="0.0433729" stop-color="#FFD25F"/>
<stop offset="0.2889" stop-color="#FEBC9B"/>
<stop offset="0.6173" stop-color="#FC9CF0"/>
<stop offset="1" stop-color="#FD5ED7"/>
</linearGradient>
<linearGradient id="paint12_linear_2108_61194" x1="-0.136168" y1="9.07694" x2="11.5912" y2="20.5544" gradientUnits="userSpaceOnUse">
<stop offset="0.0226617" stop-color="#FC801D"/>
<stop offset="0.2467" stop-color="#FC7E20"/>
<stop offset="0.276" stop-color="#FC772A"/>
<stop offset="0.3253" stop-color="#FD6444"/>
<stop offset="0.3881" stop-color="#FE466E"/>
<stop offset="0.4273" stop-color="#FF318C"/>
<stop offset="0.4924" stop-color="#EA3896"/>
<stop offset="0.6276" stop-color="#B248AE"/>
<stop offset="0.8194" stop-color="#5A63D6"/>
<stop offset="0.9859" stop-color="#087CFA"/>
</linearGradient>
<linearGradient id="paint13_linear_2108_61194" x1="2.73859" y1="9.10895" x2="6.43975" y2="15.5046" gradientUnits="userSpaceOnUse">
<stop offset="0.00442798" stop-color="#FFDE17"/>
<stop offset="0.0525354" stop-color="#FECB12"/>
<stop offset="0.1093" stop-color="#FDBB0E"/>
<stop offset="0.1542" stop-color="#FDB60D"/>
<stop offset="0.2351" stop-color="#FDAE0F"/>
<stop offset="0.3571" stop-color="#FC9A15"/>
<stop offset="0.4724" stop-color="#FC801D"/>
<stop offset="1" stop-color="#FE4176"/>
</linearGradient>
<linearGradient id="paint14_linear_2108_61194" x1="10.4471" y1="12.4061" x2="13.8691" y2="17.8579" gradientUnits="userSpaceOnUse">
<stop offset="0.0211218" stop-color="#B149AF"/>
<stop offset="0.0831639" stop-color="#9153BD"/>
<stop offset="0.2186" stop-color="#3F6BE2"/>
<stop offset="0.3042" stop-color="#087CFA"/>
<stop offset="0.7942" stop-color="#07C3F2"/>
</linearGradient>
<linearGradient id="paint15_linear_2108_61194" x1="2.06566" y1="7.25179" x2="15.0602" y2="14.0122" gradientUnits="userSpaceOnUse">
<stop offset="0.2464" stop-color="#FE2857"/>
<stop offset="0.292" stop-color="#FE265F"/>
<stop offset="0.3641" stop-color="#FE1F76"/>
<stop offset="0.4534" stop-color="#FF159B"/>
<stop offset="0.4574" stop-color="#FF149D"/>
<stop offset="0.536" stop-color="#EF1AB2"/>
<stop offset="0.6983" stop-color="#C82BE9"/>
<stop offset="0.7574" stop-color="#B831FF"/>
<stop offset="0.811" stop-color="#A33AFE"/>
<stop offset="0.9215" stop-color="#6C52FD"/>
<stop offset="1" stop-color="#4164FC"/>
</linearGradient>
<linearGradient id="paint16_linear_2108_61194" x1="3.25691" y1="7.8637" x2="9.25108" y2="11.1979" gradientUnits="userSpaceOnUse">
<stop offset="0.00629908" stop-color="#FF45ED"/>
<stop offset="0.1766" stop-color="#FF35D8"/>
<stop offset="0.3352" stop-color="#FF24C0"/>
<stop offset="0.7349" stop-color="#EA23CA"/>
<stop offset="1" stop-color="#D923D1"/>
</linearGradient>
<linearGradient id="paint17_linear_2108_61194" x1="16.868" y1="14.174" x2="14.9046" y2="19.272" gradientUnits="userSpaceOnUse">
<stop offset="0.2157" stop-color="#07C3F2"/>
<stop offset="0.3237" stop-color="#04B1EC"/>
<stop offset="0.4576" stop-color="#01A1E7"/>
<stop offset="0.5613" stop-color="#009BE5"/>
<stop offset="0.5745" stop-color="#0198E7"/>
<stop offset="0.6778" stop-color="#058AF1"/>
<stop offset="0.7992" stop-color="#0781F7"/>
<stop offset="0.9829" stop-color="#087EF9"/>
</linearGradient>
<linearGradient id="paint18_linear_2108_61194" x1="8.65917" y1="16.2712" x2="13.1545" y2="17.8783" gradientUnits="userSpaceOnUse">
<stop offset="0.1529" stop-color="#087CFA"/>
<stop offset="0.6343" stop-color="#009AE5"/>
<stop offset="1" stop-color="#07C3F2"/>
</linearGradient>
<linearGradient id="paint19_linear_2108_61194" x1="12.2902" y1="4.4312" x2="10.8932" y2="10.8651" gradientUnits="userSpaceOnUse">
<stop stop-color="#FF188D"/>
<stop offset="0.3188" stop-color="#D82EC8"/>
<stop offset="0.4411" stop-color="#CC30CC"/>
<stop offset="0.6628" stop-color="#AC35D7"/>
<stop offset="0.8981" stop-color="#833CE5"/>
</linearGradient>
<linearGradient id="paint20_linear_2108_61194" x1="9.30425" y1="5.94836" x2="12.0293" y2="9.79153" gradientUnits="userSpaceOnUse">
<stop stop-color="#FF188D"/>
<stop offset="0.3188" stop-color="#D82EC8"/>
<stop offset="0.4411" stop-color="#CC30CC"/>
<stop offset="0.6628" stop-color="#AC35D7"/>
<stop offset="0.8981" stop-color="#833CE5"/>
</linearGradient>
<linearGradient id="paint21_linear_2108_61194" x1="3.98671" y1="5.09755" x2="15.9296" y2="14.8341" gradientUnits="userSpaceOnUse">
<stop stop-color="#521713"/>
<stop offset="0.080028" stop-color="#451310"/>
<stop offset="0.2989" stop-color="#270B09"/>
<stop offset="0.514" stop-color="#110504"/>
<stop offset="0.7218" stop-color="#040101"/>
<stop offset="0.9138"/>
</linearGradient>
<linearGradient id="paint22_linear_2108_61194" x1="4.16675" y1="8.68021" x2="15.8334" y2="8.68021" gradientUnits="userSpaceOnUse">
<stop offset="0.2464" stop-color="#FE2857"/>
<stop offset="0.292" stop-color="#FE265F"/>
<stop offset="0.3641" stop-color="#FE1F76"/>
<stop offset="0.4534" stop-color="#FF159B"/>
<stop offset="0.4574" stop-color="#FF149D"/>
<stop offset="0.536" stop-color="#EF1AB2"/>
<stop offset="0.6983" stop-color="#C82BE9"/>
<stop offset="0.7574" stop-color="#B831FF"/>
<stop offset="0.811" stop-color="#A33AFE"/>
<stop offset="0.9215" stop-color="#6C52FD"/>
<stop offset="1" stop-color="#4164FC"/>
</linearGradient>
<linearGradient id="paint23_linear_2108_61194" x1="4.40541" y1="8.66696" x2="15.8334" y2="8.66696" gradientUnits="userSpaceOnUse">
<stop offset="0.1118" stop-color="#F7941D"/>
<stop offset="0.1374" stop-color="#F88C25"/>
<stop offset="0.178" stop-color="#F9753A"/>
<stop offset="0.2284" stop-color="#FB505D"/>
<stop offset="0.2863" stop-color="#FF1C8C"/>
<stop offset="0.2928" stop-color="#FF1692"/>
<stop offset="0.4031" stop-color="#EA1A93"/>
<stop offset="0.4677" stop-color="#DB1D93"/>
<stop offset="0.5543" stop-color="#9F2895"/>
<stop offset="0.7229" stop-color="#21409A"/>
<stop offset="0.8671" stop-color="#222F5C"/>
<stop offset="1" stop-color="#231F20"/>
</linearGradient>
<linearGradient id="paint24_linear_2108_61194" x1="4.16675" y1="10.0696" x2="15.8334" y2="10.0696" gradientUnits="userSpaceOnUse">
<stop offset="0.0878508" stop-color="#FE2857"/>
<stop offset="0.1283" stop-color="#FE265F"/>
<stop offset="0.1923" stop-color="#FE1F76"/>
<stop offset="0.2716" stop-color="#FF159B"/>
<stop offset="0.2751" stop-color="#FF149D"/>
<stop offset="0.4167" stop-color="#B21871"/>
<stop offset="0.5427" stop-color="#741B4E"/>
<stop offset="0.6489" stop-color="#481D35"/>
<stop offset="0.731" stop-color="#2D1E26"/>
<stop offset="0.7791" stop-color="#231F20"/>
</linearGradient>
<linearGradient id="paint25_linear_2108_61194" x1="5.29608" y1="8.4656" x2="9.86479" y2="11.0069" gradientUnits="userSpaceOnUse">
<stop offset="0.00629908" stop-color="#FF45ED"/>
<stop offset="0.1766" stop-color="#FF35D8"/>
<stop offset="0.3352" stop-color="#FF24C0"/>
<stop offset="0.451" stop-color="#EA24B0"/>
<stop offset="0.6916" stop-color="#B22388"/>
<stop offset="1" stop-color="#63214F"/>
</linearGradient>
<linearGradient id="paint26_linear_2108_61194" x1="5.99933" y1="13.9665" x2="10.7525" y2="13.9665" gradientUnits="userSpaceOnUse">
<stop offset="0.4574" stop-color="#FF149D"/>
<stop offset="0.536" stop-color="#EF1AB2"/>
<stop offset="0.6983" stop-color="#C82BE9"/>
<stop offset="0.7574" stop-color="#B831FF"/>
<stop offset="0.8388" stop-color="#A33AFE"/>
<stop offset="1" stop-color="#6E51FD"/>
</linearGradient>
<linearGradient id="paint27_linear_2108_61194" x1="4.16675" y1="12.641" x2="10.7526" y2="12.641" gradientUnits="userSpaceOnUse">
<stop offset="0.00442798" stop-color="#FFDE17"/>
<stop offset="0.0386836" stop-color="#FECB12"/>
<stop offset="0.0790912" stop-color="#FDBB0E"/>
<stop offset="0.1111" stop-color="#FDB60D"/>
<stop offset="0.1673" stop-color="#FDAE0F"/>
<stop offset="0.2521" stop-color="#FC9A15"/>
<stop offset="0.3323" stop-color="#FC801D"/>
<stop offset="0.7374" stop-color="#BE1E2D"/>
</linearGradient>
<linearGradient id="paint28_linear_2108_61194" x1="8.76283" y1="13.9665" x2="15.8333" y2="13.9665" gradientUnits="userSpaceOnUse">
<stop stop-color="#087CFA"/>
<stop offset="0.7942" stop-color="#231F20"/>
</linearGradient>
<linearGradient id="paint29_linear_2108_61194" x1="20.5939" y1="15.2731" x2="13.1596" y2="3.23434" gradientUnits="userSpaceOnUse">
<stop offset="0.3486" stop-color="#3595F3"/>
<stop offset="0.4019" stop-color="#3490EB"/>
<stop offset="0.4865" stop-color="#3284D4"/>
<stop offset="0.5918" stop-color="#2F6FAE"/>
<stop offset="0.7135" stop-color="#2B527B"/>
<stop offset="0.8476" stop-color="#252D39"/>
<stop offset="0.8951" stop-color="#231F20"/>
</linearGradient>
</defs>
</svg>
