<!-- Copyright 2000-2024 JetBrains s.r.o. and contributors. Use of this source code is governed by the Apache 2.0 license. -->
<svg width="20" height="20" viewBox="0 0 20 20" fill="none" xmlns="http://www.w3.org/2000/svg">
<g clip-path="url(#clip0_3917_59487)">
<path d="M4.98364 1.81836L1.27255 1.8189C0.569636 1.8189 0 2.38872 0 3.09163V6.68745C0 7.0589 0.162364 7.412 0.444364 7.65381L12.3696 17.8756C12.6004 18.0733 12.8942 18.182 13.198 18.182H16.9091C17.612 18.182 18.1818 17.6122 18.1818 16.9093V13.3129C18.1818 12.9415 18.0195 12.5884 17.7375 12.3465L5.81218 2.1249C5.58145 1.92709 5.28764 1.81854 4.98364 1.81854V1.81836Z" fill="#FF8100"/>
<path d="M4.53727 1.81836H1.27273C0.569818 1.81836 0 2.38818 0 3.09109V7.18254C0 7.24272 0.00436364 7.3029 0.0127273 7.36254L1.66182 18.9075C1.75145 19.5345 2.28836 20.0002 2.92182 20.0002H7.81964C8.52273 20.0002 9.09254 19.4302 9.09236 18.7271L9.09091 12.9338C9.09091 12.7971 9.06891 12.6613 9.02564 12.5316L5.74455 2.68854C5.57127 2.1689 5.08491 1.81836 4.53709 1.81836H4.53727Z" fill="url(#paint0_linear_3917_59487)"/>
<path d="M18.7255 0H8.11041C7.60132 0 7.14113 0.303455 6.94059 0.771273L1.91932 12.4871C1.8515 12.6455 1.81641 12.8162 1.81641 12.9885V18.7273C1.81641 19.4302 2.38622 20 3.08913 20H8.7035C8.95495 20 9.20077 19.9255 9.41004 19.7858L19.4315 13.0973C19.7853 12.8613 19.9977 12.464 19.9977 12.0387L19.9982 1.27273C19.9982 0.569818 19.4284 0 18.7255 0Z" fill="url(#paint1_linear_3917_59487)"/>
<path d="M16.6654 3.33398H3.33203V16.6673H16.6654V3.33398Z" fill="black"/>
<path d="M10 14.166H5V14.9993H10V14.166Z" fill="white"/>
<path d="M5 9.12853H5.99293V5.87147H5V5H7.94633V5.87147H6.9534V9.12853H7.94633V10H5V9.12853Z" fill="white"/>
<path d="M8.44531 9.10008H9.16323C9.30838 9.10008 9.43767 9.06914 9.55074 9.00726C9.6638 8.94538 9.75127 8.85791 9.81315 8.74484C9.87503 8.63178 9.90597 8.50267 9.90597 8.35733V5H10.881V8.42494C10.881 8.72498 10.8118 8.99465 10.6737 9.23396C10.5356 9.47326 10.3452 9.66081 10.1023 9.79641C9.85937 9.9322 9.58683 10 9.2845 10H8.44531V9.10008Z" fill="white"/>
</g>
<defs>
<linearGradient id="paint0_linear_3917_59487" x1="-0.224182" y1="2.38181" x2="7.54545" y2="19.14" gradientUnits="userSpaceOnUse">
<stop offset="0.1" stop-color="#FC801D"/>
<stop offset="0.59" stop-color="#FE2857"/>
</linearGradient>
<linearGradient id="paint1_linear_3917_59487" x1="1.31768" y1="18.7558" x2="19.663" y2="0.410364" gradientUnits="userSpaceOnUse">
<stop offset="0.21" stop-color="#FE2857"/>
<stop offset="0.7" stop-color="#007EFF"/>
</linearGradient>
<clipPath id="clip0_3917_59487">
<rect width="20" height="20" fill="white"/>
</clipPath>
</defs>
</svg>
