<!-- Copyright 2000-2024 JetBrains s.r.o. and contributors. Use of this source code is governed by the Apache 2.0 license. -->
<svg width="24" height="24" viewBox="0 0 24 24" fill="none" xmlns="http://www.w3.org/2000/svg">
<g clip-path="url(#clip0_3917_59486)">
<path d="M5.98036 2.18164L1.52705 2.1823C0.683564 2.1823 0 2.86608 0 3.70957V8.02455C0 8.47029 0.194836 8.894 0.533236 9.18419L14.8436 21.4504C15.1204 21.6875 15.473 21.818 15.8376 21.818H20.2909C21.1344 21.818 21.8182 21.1342 21.8182 20.2907V15.9751C21.8182 15.5293 21.6233 15.1056 21.2849 14.8155L6.97462 2.5495C6.69775 2.31211 6.34516 2.18186 5.98036 2.18186V2.18164Z" fill="#FF8100"/>
<path d="M5.44473 2.18164H1.52727C0.683782 2.18164 0 2.86542 0 3.70891V8.61866C0 8.69088 0.00523636 8.76309 0.0152727 8.83466L1.99418 22.6885C2.10175 23.4411 2.74604 23.9998 3.50618 23.9998H9.38356C10.2273 23.9998 10.9111 23.3158 10.9108 22.4721L10.9091 15.5202C10.9091 15.3561 10.8827 15.1931 10.8308 15.0376L6.89345 3.22586C6.68553 2.6023 6.10189 2.18164 5.44451 2.18164H5.44473Z" fill="url(#paint0_linear_3917_59486)"/>
<path d="M22.4706 0H9.73249C9.12158 0 8.56936 0.364145 8.32871 0.925527L2.30318 14.9845C2.2218 15.1745 2.17969 15.3794 2.17969 15.5863V22.4727C2.17969 23.3162 2.86347 24 3.70696 24H10.4442C10.7459 24 11.0409 23.9105 11.2921 23.743L23.3178 15.7167C23.7424 15.4335 23.9972 14.9568 23.9972 14.4465L23.9979 1.52727C23.9979 0.683782 23.3141 0 22.4706 0Z" fill="url(#paint1_linear_3917_59486)"/>
<path d="M20 4H4V20H20V4Z" fill="black"/>
<path d="M12 17H6V18H12V17Z" fill="white"/>
<path d="M6 10.9542H7.19152V7.04576H6V6H9.5356V7.04576H8.34408V10.9542H9.5356V12H6V10.9542Z" fill="white"/>
<path d="M10.1367 10.9201H10.9982C11.1724 10.9201 11.3276 10.883 11.4632 10.8087C11.5989 10.7345 11.7039 10.6295 11.7781 10.4938C11.8524 10.3581 11.8895 10.2032 11.8895 10.0288V6H13.0595V10.1099C13.0595 10.47 12.9765 10.7936 12.8108 11.0807C12.6451 11.3679 12.4166 11.593 12.1251 11.7557C11.8336 11.9186 11.5065 12 11.1437 12H10.1367V10.9201Z" fill="white"/>
</g>
<defs>
<linearGradient id="paint0_linear_3917_59486" x1="-0.269018" y1="2.85779" x2="9.05455" y2="22.9676" gradientUnits="userSpaceOnUse">
<stop offset="0.1" stop-color="#FC801D"/>
<stop offset="0.59" stop-color="#FE2857"/>
</linearGradient>
<linearGradient id="paint1_linear_3917_59486" x1="1.58122" y1="22.507" x2="23.5955" y2="0.492436" gradientUnits="userSpaceOnUse">
<stop offset="0.21" stop-color="#FE2857"/>
<stop offset="0.7" stop-color="#007EFF"/>
</linearGradient>
<clipPath id="clip0_3917_59486">
<rect width="24" height="24" fill="white"/>
</clipPath>
</defs>
</svg>
