<svg width="48" height="48" viewBox="0 0 48 48" fill="none" xmlns="http://www.w3.org/2000/svg">
<path d="M46.5 13.5L44.4 30.1L43.2 37.5L28.4 46.5L10 32.4L32.3 9L46.5 13.5Z" fill="url(#paint0_linear_2108_61192)"/>
<path d="M28.3999 42.8V44.1H29.8999L30.4999 43.3L28.3999 42.8Z" fill="url(#paint1_linear_2108_61192)"/>
<path d="M42.1001 36.7L44.4001 30.1L45.7001 39.6L42.1001 36.7Z" fill="url(#paint2_linear_2108_61192)"/>
<path d="M46.5 13.5L20.6 31.2L8.80005 33L32.3 2.2L46.5 13.5Z" fill="url(#paint3_linear_2108_61192)"/>
<path d="M27.3999 8.9L32.2999 2.2L31.4999 15.8L27.3999 8.9Z" fill="url(#paint4_linear_2108_61192)"/>
<path d="M8.7 32.9L2 28L8.4 21.6L27.7 29.4L8.7 32.9Z" fill="url(#paint5_linear_2108_61192)"/>
<path d="M19.8001 40.5L5.1001 45.4L8.8001 35L26.7001 28.1L36.7001 34.3L19.8001 40.5Z" fill="url(#paint6_linear_2108_61192)"/>
<path d="M15.6 11L8 1.5L22.7 3.2L24.4 8.1L15.6 11Z" fill="url(#paint7_linear_2108_61192)"/>
<path d="M44.4001 30.1L22.7 3.2L14.8 3.4L10.3 16.4L38.4001 31.8L33.7001 38.8L43.2001 37.5L44.4001 30.1Z" fill="url(#paint8_linear_2108_61192)"/>
<path d="M10.3 17.2L5.30005 17.1L8.00005 1.5L14.8 3.4L10.3 17.2Z" fill="url(#paint9_linear_2108_61192)"/>
<path d="M38.4 31.8L25.8 29.1L1.5 19.3L10.5 16.5L38.4 31.8Z" fill="url(#paint10_linear_2108_61192)"/>
<path d="M13.9999 5.7L10.3999 16.5V16.6L10.4999 16.5L28.0999 26.2L28.3999 26.3L35.6999 20.8L13.9999 5.7Z" fill="url(#paint11_linear_2108_61192)"/>
<path d="M8 1.5L1.5 19.3L9.8 17.2L10.4 16.5L14 5.7L8 1.5Z" fill="url(#paint12_linear_2108_61192)"/>
<path d="M5.1001 45.4L10.7001 23.1L25.8001 29.1L5.1001 45.4Z" fill="url(#paint13_linear_2108_61192)"/>
<path d="M25.8 29.1L17.4 21.8L5.9 20.8L2 28L10.2 24.7H10.3L5.1 45.4L25.8 29.1Z" fill="url(#paint14_linear_2108_61192)"/>
<path d="M38.4001 31.8L30.6 43.3L19.8 40.5L25.8 29.1L38.4001 31.8Z" fill="url(#paint15_linear_2108_61192)"/>
<path d="M38.4 31.8L25.8 29.1L1.5 19.3L10.5 16.5L38.4 31.8Z" fill="url(#paint16_linear_2108_61192)"/>
<path d="M10.5 16.5L1.5 19.3L28.1 26.2L10.5 16.5Z" fill="url(#paint17_linear_2108_61192)"/>
<path d="M43.1999 37.5L33.3999 38.8L28.3999 46.5L45.6999 39.6L43.1999 37.5Z" fill="url(#paint18_linear_2108_61192)"/>
<path d="M28.4 46.5L33.5999 38.9L19.7 40.6L28.4 46.5Z" fill="url(#paint19_linear_2108_61192)"/>
<path d="M18.2 20.7L28 26.1L36.5 20.3L27.2999 8.89999L18.2 20.7Z" fill="url(#paint20_linear_2108_61192)"/>
<path d="M35.7 20.8L24.2 12.8L18.2 20.7L28 26.1L35.2999 21.1L35.7 20.8Z" fill="url(#paint21_linear_2108_61192)"/>
<path d="M38 10H10V38H38V10Z" fill="url(#paint22_linear_2108_61192)"/>
<g opacity="0.5">
<g opacity="0.3">
<path opacity="0.3" d="M37.4999 38L37.9999 37.9V32L33.8999 38H37.4999Z" fill="#231F20"/>
<path opacity="0.3" d="M27.9 10H12.8L10.6 16.6L36.8 30.9L10.7 16.7L10 16.9V22.7L25.8 29L38 31.7V31.6V22.5L27.9 10Z" fill="url(#paint23_linear_2108_61192)"/>
<path opacity="0.3" d="M12.8001 10L10.6001 16.6L38.0001 31.6V22.5L27.9001 10H12.8001Z" fill="url(#paint24_linear_2108_61192)"/>
<path opacity="0.3" d="M10 10V17.3L10.7 16.7L12.9 10H10Z" fill="#F9ED32"/>
</g>
<path opacity="0.3" d="M10 16.9V22.7L25.8 29L38 31.7V31.6L10.7 16.7L10 16.9Z" fill="url(#paint25_linear_2108_61192)"/>
<path opacity="0.3" d="M10 21.5L28 26.1L10.7 16.7L10 16.9V21.5Z" fill="url(#paint26_linear_2108_61192)"/>
<path opacity="0.3" d="M20.9999 38L25.7999 29L14.3999 38H20.9999Z" fill="url(#paint27_linear_2108_61192)"/>
<path opacity="0.3" d="M10 26.8L10.5 24.6L10.4 24.7L10 24.9V26.8Z" fill="#F7941D"/>
<path opacity="0.3" d="M10 24.9L10.4 24.7L10.5 24.6L10 26.8V38H14.4L25.8 29L10 22.7V24.9Z" fill="url(#paint28_linear_2108_61192)"/>
<path opacity="0.3" d="M21 38H33.9L38 32V31.7L25.8 29L21 38Z" fill="url(#paint29_linear_2108_61192)"/>
<g opacity="0.3">
<path opacity="0.3" d="M36.2999 20.4L37.9999 19.2V10H27.8999L36.2999 20.4Z" fill="url(#paint30_linear_2108_61192)"/>
</g>
</g>
<path d="M24 32.7H13.5V34.4H24V32.7Z" fill="white"/>
<path d="M18.7 15.4V13.5H13.5V15.4H15V22H13.5V23.9H18.7V22H17.3V15.4H18.7Z" fill="white"/>
<path d="M23.7 24.1C22.9 24.1 22.2 23.9 21.6 23.6C21 23.3 20.6 22.9 20.2 22.5L21.6 20.9C21.9 21.2 22.2 21.5 22.5 21.7C22.8 21.9 23.1 22 23.5 22C23.9 22 24.3 21.9 24.5 21.6C24.7 21.3 24.9 20.9 24.9 20.3V13.6H27.2999V20.4C27.2999 21 27.2 21.6 27 22C26.8 22.5 26.5999 22.8 26.2999 23.2C25.9999 23.5 25.6 23.8 25.1 23.9C24.8 24 24.3 24.1 23.7 24.1Z" fill="white"/>
<defs>
<linearGradient id="paint0_linear_2108_61192" x1="27.6085" y1="14.9933" x2="29.5099" y2="38.7197" gradientUnits="userSpaceOnUse">
<stop offset="0.0998726" stop-color="#087CFA"/>
<stop offset="0.4602" stop-color="#079AF6"/>
<stop offset="0.8454" stop-color="#07C3F2"/>
</linearGradient>
<linearGradient id="paint1_linear_2108_61192" x1="29.4742" y1="43.7687" x2="29.8469" y2="44.3096" gradientUnits="userSpaceOnUse">
<stop offset="0.2859" stop-color="#087CFA"/>
<stop offset="1" stop-color="#079AF6"/>
</linearGradient>
<linearGradient id="paint2_linear_2108_61192" x1="43.0792" y1="40.5227" x2="47.2651" y2="27.9108" gradientUnits="userSpaceOnUse">
<stop offset="0.1184" stop-color="#27A6F6"/>
<stop offset="0.2418" stop-color="#2F99F5"/>
<stop offset="0.9197" stop-color="#5753F2"/>
</linearGradient>
<linearGradient id="paint3_linear_2108_61192" x1="47.3845" y1="4.0668" x2="21.223" y2="19.8867" gradientUnits="userSpaceOnUse">
<stop offset="0.286" stop-color="#0AEFFF"/>
<stop offset="0.3292" stop-color="#09DEFA"/>
<stop offset="0.3966" stop-color="#07CAF4"/>
<stop offset="0.442" stop-color="#07C3F2"/>
<stop offset="0.5015" stop-color="#07ACF5"/>
<stop offset="0.5749" stop-color="#0897F7"/>
<stop offset="0.6568" stop-color="#0888F9"/>
<stop offset="0.7528" stop-color="#087FFA"/>
<stop offset="0.8981" stop-color="#087CFA"/>
</linearGradient>
<linearGradient id="paint4_linear_2108_61192" x1="29.8791" y1="1.176" x2="29.8791" y2="18.5286" gradientUnits="userSpaceOnUse">
<stop offset="0.207" stop-color="#02C5FE"/>
<stop offset="0.317" stop-color="#04ACFD"/>
<stop offset="0.4435" stop-color="#0697FB"/>
<stop offset="0.5845" stop-color="#0788FB"/>
<stop offset="0.7499" stop-color="#087FFA"/>
<stop offset="1" stop-color="#087CFA"/>
</linearGradient>
<linearGradient id="paint5_linear_2108_61192" x1="8.7582" y1="23.0066" x2="12.6383" y2="26.6411" gradientUnits="userSpaceOnUse">
<stop stop-color="#FF581C"/>
<stop offset="0.1918" stop-color="#FF5124"/>
<stop offset="0.4947" stop-color="#FE3F3B"/>
<stop offset="0.7851" stop-color="#FE2857"/>
</linearGradient>
<linearGradient id="paint6_linear_2108_61192" x1="13.7855" y1="32.1393" x2="20.3258" y2="39.1827" gradientUnits="userSpaceOnUse">
<stop offset="0.4574" stop-color="#FF149D"/>
<stop offset="0.536" stop-color="#EF1AB2"/>
<stop offset="0.6983" stop-color="#C82BE9"/>
<stop offset="0.7574" stop-color="#B831FF"/>
<stop offset="0.8388" stop-color="#A33AFE"/>
<stop offset="1" stop-color="#6E51FD"/>
</linearGradient>
<linearGradient id="paint7_linear_2108_61192" x1="15.2007" y1="0.3418" x2="17.2846" y2="9.4587" gradientUnits="userSpaceOnUse">
<stop offset="0.0276342" stop-color="#FFDE17"/>
<stop offset="0.276" stop-color="#FDB60D"/>
<stop offset="0.5939" stop-color="#FC801D"/>
<stop offset="0.6532" stop-color="#FC7A25"/>
<stop offset="0.7469" stop-color="#FD6A3C"/>
<stop offset="0.8628" stop-color="#FE4F61"/>
<stop offset="0.976" stop-color="#FF318C"/>
</linearGradient>
<linearGradient id="paint8_linear_2108_61192" x1="13.7025" y1="9.5007" x2="45.1548" y2="34.4705" gradientUnits="userSpaceOnUse">
<stop stop-color="#FE2857"/>
<stop offset="0.0557468" stop-color="#FE255F"/>
<stop offset="0.1437" stop-color="#FF1F76"/>
<stop offset="0.2282" stop-color="#FF1692"/>
<stop offset="0.289" stop-color="#F11BA7"/>
<stop offset="0.4143" stop-color="#CD29DE"/>
<stop offset="0.4828" stop-color="#B831FF"/>
<stop offset="0.581" stop-color="#7A4CFD"/>
<stop offset="0.748" stop-color="#087CFA"/>
<stop offset="0.9745" stop-color="#07A5F5"/>
</linearGradient>
<linearGradient id="paint9_linear_2108_61192" x1="6.23645" y1="8.4707" x2="12.6091" y2="11.3775" gradientUnits="userSpaceOnUse">
<stop offset="0.2889" stop-color="#FFD360"/>
<stop offset="1" stop-color="#FED66C"/>
</linearGradient>
<linearGradient id="paint10_linear_2108_61192" x1="4.9575" y1="17.4043" x2="36.1442" y2="33.6291" gradientUnits="userSpaceOnUse">
<stop offset="0.2464" stop-color="#FE2857"/>
<stop offset="0.292" stop-color="#FE265F"/>
<stop offset="0.3641" stop-color="#FE1F76"/>
<stop offset="0.4534" stop-color="#FF159B"/>
<stop offset="0.4574" stop-color="#FF149D"/>
<stop offset="0.536" stop-color="#EF1AB2"/>
<stop offset="0.6983" stop-color="#C82BE9"/>
<stop offset="0.7574" stop-color="#B831FF"/>
<stop offset="0.811" stop-color="#A33AFE"/>
<stop offset="0.9215" stop-color="#6C52FD"/>
<stop offset="1" stop-color="#4164FC"/>
</linearGradient>
<linearGradient id="paint11_linear_2108_61192" x1="11.8141" y1="10.6758" x2="29.4228" y2="23.2534" gradientUnits="userSpaceOnUse">
<stop offset="0.00823305" stop-color="#FC35E3"/>
<stop offset="0.2164" stop-color="#F12CD5"/>
<stop offset="0.4105" stop-color="#EB27CD"/>
<stop offset="0.4984" stop-color="#DE2ADA"/>
<stop offset="0.7777" stop-color="#B831FF"/>
<stop offset="1" stop-color="#6D51FD"/>
</linearGradient>
<linearGradient id="paint12_linear_2108_61192" x1="4.6546" y1="10.3466" x2="10.7338" y2="14.2457" gradientUnits="userSpaceOnUse">
<stop offset="0.0433729" stop-color="#FFD25F"/>
<stop offset="0.2889" stop-color="#FEBC9B"/>
<stop offset="0.6173" stop-color="#FC9CF0"/>
<stop offset="1" stop-color="#FD5ED7"/>
</linearGradient>
<linearGradient id="paint13_linear_2108_61192" x1="-0.326802" y1="21.7847" x2="27.819" y2="49.3307" gradientUnits="userSpaceOnUse">
<stop offset="0.0226617" stop-color="#FC801D"/>
<stop offset="0.2467" stop-color="#FC7E20"/>
<stop offset="0.276" stop-color="#FC772A"/>
<stop offset="0.3253" stop-color="#FD6444"/>
<stop offset="0.3881" stop-color="#FE466E"/>
<stop offset="0.4273" stop-color="#FF318C"/>
<stop offset="0.4924" stop-color="#EA3896"/>
<stop offset="0.6276" stop-color="#B248AE"/>
<stop offset="0.8194" stop-color="#5A63D6"/>
<stop offset="0.9859" stop-color="#087CFA"/>
</linearGradient>
<linearGradient id="paint14_linear_2108_61192" x1="6.5729" y1="21.8613" x2="15.4556" y2="37.2109" gradientUnits="userSpaceOnUse">
<stop offset="0.00442798" stop-color="#FFDE17"/>
<stop offset="0.0525354" stop-color="#FECB12"/>
<stop offset="0.1093" stop-color="#FDBB0E"/>
<stop offset="0.1542" stop-color="#FDB60D"/>
<stop offset="0.2351" stop-color="#FDAE0F"/>
<stop offset="0.3571" stop-color="#FC9A15"/>
<stop offset="0.4724" stop-color="#FC801D"/>
<stop offset="1" stop-color="#FE4176"/>
</linearGradient>
<linearGradient id="paint15_linear_2108_61192" x1="25.073" y1="29.7745" x2="33.2859" y2="42.8587" gradientUnits="userSpaceOnUse">
<stop offset="0.0211218" stop-color="#B149AF"/>
<stop offset="0.0831639" stop-color="#9153BD"/>
<stop offset="0.2186" stop-color="#3F6BE2"/>
<stop offset="0.3042" stop-color="#087CFA"/>
<stop offset="0.7942" stop-color="#07C3F2"/>
</linearGradient>
<linearGradient id="paint16_linear_2108_61192" x1="4.9575" y1="17.4043" x2="36.1442" y2="33.6291" gradientUnits="userSpaceOnUse">
<stop offset="0.2464" stop-color="#FE2857"/>
<stop offset="0.292" stop-color="#FE265F"/>
<stop offset="0.3641" stop-color="#FE1F76"/>
<stop offset="0.4534" stop-color="#FF159B"/>
<stop offset="0.4574" stop-color="#FF149D"/>
<stop offset="0.536" stop-color="#EF1AB2"/>
<stop offset="0.6983" stop-color="#C82BE9"/>
<stop offset="0.7574" stop-color="#B831FF"/>
<stop offset="0.811" stop-color="#A33AFE"/>
<stop offset="0.9215" stop-color="#6C52FD"/>
<stop offset="1" stop-color="#4164FC"/>
</linearGradient>
<linearGradient id="paint17_linear_2108_61192" x1="7.8163" y1="18.8727" x2="22.2024" y2="26.8747" gradientUnits="userSpaceOnUse">
<stop offset="0.00629908" stop-color="#FF45ED"/>
<stop offset="0.1766" stop-color="#FF35D8"/>
<stop offset="0.3352" stop-color="#FF24C0"/>
<stop offset="0.7349" stop-color="#EA23CA"/>
<stop offset="1" stop-color="#D923D1"/>
</linearGradient>
<linearGradient id="paint18_linear_2108_61192" x1="40.4833" y1="34.0175" x2="35.7711" y2="46.2528" gradientUnits="userSpaceOnUse">
<stop offset="0.2157" stop-color="#07C3F2"/>
<stop offset="0.3237" stop-color="#04B1EC"/>
<stop offset="0.4576" stop-color="#01A1E7"/>
<stop offset="0.5613" stop-color="#009BE5"/>
<stop offset="0.5745" stop-color="#0198E7"/>
<stop offset="0.6778" stop-color="#058AF1"/>
<stop offset="0.7992" stop-color="#0781F7"/>
<stop offset="0.9829" stop-color="#087EF9"/>
</linearGradient>
<linearGradient id="paint19_linear_2108_61192" x1="20.782" y1="39.0508" x2="31.5707" y2="42.9079" gradientUnits="userSpaceOnUse">
<stop offset="0.1529" stop-color="#087CFA"/>
<stop offset="0.6343" stop-color="#009AE5"/>
<stop offset="1" stop-color="#07C3F2"/>
</linearGradient>
<linearGradient id="paint20_linear_2108_61192" x1="29.4961" y1="10.6348" x2="26.1434" y2="26.0761" gradientUnits="userSpaceOnUse">
<stop stop-color="#FF188D"/>
<stop offset="0.3188" stop-color="#D82EC8"/>
<stop offset="0.4411" stop-color="#CC30CC"/>
<stop offset="0.6628" stop-color="#AC35D7"/>
<stop offset="0.8981" stop-color="#833CE5"/>
</linearGradient>
<linearGradient id="paint21_linear_2108_61192" x1="22.3297" y1="14.276" x2="28.8701" y2="23.4996" gradientUnits="userSpaceOnUse">
<stop stop-color="#FF188D"/>
<stop offset="0.3188" stop-color="#D82EC8"/>
<stop offset="0.4411" stop-color="#CC30CC"/>
<stop offset="0.6628" stop-color="#AC35D7"/>
<stop offset="0.8981" stop-color="#833CE5"/>
</linearGradient>
<linearGradient id="paint22_linear_2108_61192" x1="9.5679" y1="12.2341" x2="38.2308" y2="35.6018" gradientUnits="userSpaceOnUse">
<stop stop-color="#521713"/>
<stop offset="0.080028" stop-color="#451310"/>
<stop offset="0.2989" stop-color="#270B09"/>
<stop offset="0.514" stop-color="#110504"/>
<stop offset="0.7218" stop-color="#040101"/>
<stop offset="0.9138"/>
</linearGradient>
<linearGradient id="paint23_linear_2108_61192" x1="10" y1="20.8325" x2="38" y2="20.8325" gradientUnits="userSpaceOnUse">
<stop offset="0.2464" stop-color="#FE2857"/>
<stop offset="0.292" stop-color="#FE265F"/>
<stop offset="0.3641" stop-color="#FE1F76"/>
<stop offset="0.4534" stop-color="#FF159B"/>
<stop offset="0.4574" stop-color="#FF149D"/>
<stop offset="0.536" stop-color="#EF1AB2"/>
<stop offset="0.6983" stop-color="#C82BE9"/>
<stop offset="0.7574" stop-color="#B831FF"/>
<stop offset="0.811" stop-color="#A33AFE"/>
<stop offset="0.9215" stop-color="#6C52FD"/>
<stop offset="1" stop-color="#4164FC"/>
</linearGradient>
<linearGradient id="paint24_linear_2108_61192" x1="10.5729" y1="20.8007" x2="38.0001" y2="20.8007" gradientUnits="userSpaceOnUse">
<stop offset="0.1118" stop-color="#F7941D"/>
<stop offset="0.1374" stop-color="#F88C25"/>
<stop offset="0.178" stop-color="#F9753A"/>
<stop offset="0.2284" stop-color="#FB505D"/>
<stop offset="0.2863" stop-color="#FF1C8C"/>
<stop offset="0.2928" stop-color="#FF1692"/>
<stop offset="0.4031" stop-color="#EA1A93"/>
<stop offset="0.4677" stop-color="#DB1D93"/>
<stop offset="0.5543" stop-color="#9F2895"/>
<stop offset="0.7229" stop-color="#21409A"/>
<stop offset="0.8671" stop-color="#222F5C"/>
<stop offset="1" stop-color="#231F20"/>
</linearGradient>
<linearGradient id="paint25_linear_2108_61192" x1="10" y1="24.167" x2="38" y2="24.167" gradientUnits="userSpaceOnUse">
<stop offset="0.0878508" stop-color="#FE2857"/>
<stop offset="0.1283" stop-color="#FE265F"/>
<stop offset="0.1923" stop-color="#FE1F76"/>
<stop offset="0.2716" stop-color="#FF159B"/>
<stop offset="0.2751" stop-color="#FF149D"/>
<stop offset="0.4167" stop-color="#B21871"/>
<stop offset="0.5427" stop-color="#741B4E"/>
<stop offset="0.6489" stop-color="#481D35"/>
<stop offset="0.731" stop-color="#2D1E26"/>
<stop offset="0.7791" stop-color="#231F20"/>
</linearGradient>
<linearGradient id="paint26_linear_2108_61192" x1="12.7104" y1="20.3175" x2="23.6753" y2="26.4165" gradientUnits="userSpaceOnUse">
<stop offset="0.00629908" stop-color="#FF45ED"/>
<stop offset="0.1766" stop-color="#FF35D8"/>
<stop offset="0.3352" stop-color="#FF24C0"/>
<stop offset="0.451" stop-color="#EA24B0"/>
<stop offset="0.6916" stop-color="#B22388"/>
<stop offset="1" stop-color="#63214F"/>
</linearGradient>
<linearGradient id="paint27_linear_2108_61192" x1="14.3983" y1="33.5195" x2="25.806" y2="33.5195" gradientUnits="userSpaceOnUse">
<stop offset="0.4574" stop-color="#FF149D"/>
<stop offset="0.536" stop-color="#EF1AB2"/>
<stop offset="0.6983" stop-color="#C82BE9"/>
<stop offset="0.7574" stop-color="#B831FF"/>
<stop offset="0.8388" stop-color="#A33AFE"/>
<stop offset="1" stop-color="#6E51FD"/>
</linearGradient>
<linearGradient id="paint28_linear_2108_61192" x1="10" y1="30.3384" x2="25.8061" y2="30.3384" gradientUnits="userSpaceOnUse">
<stop offset="0.00442798" stop-color="#FFDE17"/>
<stop offset="0.0386836" stop-color="#FECB12"/>
<stop offset="0.0790912" stop-color="#FDBB0E"/>
<stop offset="0.1111" stop-color="#FDB60D"/>
<stop offset="0.1673" stop-color="#FDAE0F"/>
<stop offset="0.2521" stop-color="#FC9A15"/>
<stop offset="0.3323" stop-color="#FC801D"/>
<stop offset="0.7374" stop-color="#BE1E2D"/>
</linearGradient>
<linearGradient id="paint29_linear_2108_61192" x1="21.0308" y1="33.5195" x2="38" y2="33.5195" gradientUnits="userSpaceOnUse">
<stop stop-color="#087CFA"/>
<stop offset="0.7942" stop-color="#231F20"/>
</linearGradient>
<linearGradient id="paint30_linear_2108_61192" x1="49.4252" y1="36.6555" x2="31.5829" y2="7.7624" gradientUnits="userSpaceOnUse">
<stop offset="0.3486" stop-color="#3595F3"/>
<stop offset="0.4019" stop-color="#3490EB"/>
<stop offset="0.4865" stop-color="#3284D4"/>
<stop offset="0.5918" stop-color="#2F6FAE"/>
<stop offset="0.7135" stop-color="#2B527B"/>
<stop offset="0.8476" stop-color="#252D39"/>
<stop offset="0.8951" stop-color="#231F20"/>
</linearGradient>
</defs>
</svg>
