<!-- Copyright 2000-2024 JetBrains s.r.o. and contributors. Use of this source code is governed by the Apache 2.0 license. -->
<svg width="48" height="48" viewBox="0 0 48 48" fill="none" xmlns="http://www.w3.org/2000/svg">
<g clip-path="url(#clip0_3917_59485)">
<g clip-path="url(#clip1_3917_59485)">
<path d="M11.9607 4.36328L3.05411 4.36459C1.36713 4.36459 0 5.73215 0 7.41914V16.0491C0 16.9406 0.389673 17.788 1.06647 18.3684L29.6871 42.9007C30.2409 43.3751 30.946 43.636 31.6752 43.636H40.5818C42.2688 43.636 43.6364 42.2684 43.6364 40.5815V31.9502C43.6364 31.0587 43.2467 30.2113 42.5699 29.6309L13.9492 5.09899C13.3955 4.62423 12.6903 4.36372 11.9607 4.36372V4.36328Z" fill="#FF8100"/>
<path d="M10.8895 4.36328H3.05455C1.36756 4.36328 0 5.73084 0 7.41783V17.2373C0 17.3818 0.0104727 17.5262 0.0305455 17.6693L3.98836 45.3771C4.20349 46.8821 5.49207 47.9996 7.01236 47.9996H18.7671C20.4545 47.9996 21.8221 46.6316 21.8217 44.9442L21.8182 31.0404C21.8182 30.7122 21.7654 30.3863 21.6615 30.0751L13.7869 6.45172C13.3711 5.20459 12.2038 4.36328 10.889 4.36328H10.8895Z" fill="url(#paint0_linear_3917_59485)"/>
<path d="M44.9451 0H19.4689C18.2471 0 17.1426 0.728291 16.6613 1.85105L4.61026 29.969C4.4475 30.3491 4.36328 30.7588 4.36328 31.1725V44.9455C4.36328 46.6324 5.73084 48 7.41783 48H20.8923C21.4958 48 22.0858 47.8211 22.588 47.486L46.6395 31.4335C47.4887 30.8671 47.9983 29.9136 47.9983 28.8929L47.9996 3.05455C47.9996 1.36756 46.6321 0 44.9451 0Z" fill="url(#paint1_linear_3917_59485)"/>
<path d="M39 9H9V39H39V9Z" fill="black"/>
<path d="M25 33H13V35.0001H25V33Z" fill="white"/>
<path d="M13 22.0828H15.1845V14.9172H13V13H19.4819V14.9172H17.2975V22.0828H19.4819V24H13V22.0828Z" fill="white"/>
<path d="M20.582 22.0202H22.1614C22.4808 22.0202 22.7652 21.9521 23.014 21.816C23.2627 21.6798 23.4551 21.4874 23.5913 21.2387C23.7274 20.9899 23.7955 20.7059 23.7955 20.3861V13H25.9404V20.5349C25.9404 21.195 25.7883 21.7882 25.4846 22.3147C25.1808 22.8412 24.7619 23.2538 24.2274 23.5521C23.693 23.8508 23.0934 24 22.4282 24H20.582V22.0202Z" fill="white"/>
</g>
</g>
<defs>
<linearGradient id="paint0_linear_3917_59485" x1="-0.538037" y1="5.71557" x2="18.1091" y2="45.9352" gradientUnits="userSpaceOnUse">
<stop offset="0.1" stop-color="#FC801D"/>
<stop offset="0.59" stop-color="#FE2857"/>
</linearGradient>
<linearGradient id="paint1_linear_3917_59485" x1="3.16634" y1="45.014" x2="47.195" y2="0.984873" gradientUnits="userSpaceOnUse">
<stop offset="0.21" stop-color="#FE2857"/>
<stop offset="0.7" stop-color="#007EFF"/>
</linearGradient>
<clipPath id="clip0_3917_59485">
<rect width="48" height="48" fill="white"/>
</clipPath>
<clipPath id="clip1_3917_59485">
<rect width="48" height="48" fill="white"/>
</clipPath>
</defs>
</svg>
