<!-- Copyright 2000-2024 JetBrains s.r.o. and contributors. Use of this source code is governed by the Apache 2.0 license. -->
<svg width="20" height="20" viewBox="0 0 20 20" fill="none" xmlns="http://www.w3.org/2000/svg">
<g clip-path="url(#clip0_3917_59733)">
<path d="M18.7273 0H7.80018C7.46273 0 7.13891 0.134 6.90018 0.372727L0.372727 6.9C0.134 7.13873 0 7.46236 0 7.8V18.7273C0 19.4302 0.569818 20 1.27273 20H12.1996C12.5375 20 12.8615 19.8656 13.1002 19.6267L19.6273 13.0922C19.8656 12.8536 19.9995 12.53 19.9995 12.1927L20 1.27273C20 0.569818 19.4302 0 18.7273 0Z" fill="url(#paint0_radial_3917_59733)"/>
<path d="M16.6654 3.33398H3.33203V16.6673H16.6654V3.33398Z" fill="black"/>
<path d="M5.36719 5.33323H7.40701C7.73955 5.33323 8.03264 5.39432 8.2861 5.5165C8.53955 5.63868 8.7341 5.8105 8.86992 6.03232C9.00792 6.25414 9.07701 6.51086 9.07701 6.80268C9.07701 7.0945 9.00682 7.35923 8.86664 7.58323C8.72864 7.80723 8.53064 7.98159 8.27264 8.10595C8.01701 8.22813 7.71937 8.28923 7.3801 8.28923H6.2941V10.0847H5.36755V5.33323H5.36719ZM7.34573 7.51904C7.50191 7.51904 7.63755 7.49068 7.75301 7.43414C7.87064 7.37523 7.96119 7.29286 8.02446 7.18632C8.08773 7.07777 8.11955 6.95214 8.11955 6.80959C8.11955 6.66704 8.08792 6.54014 8.02446 6.43632C7.96101 6.32977 7.87064 6.24832 7.75301 6.19195C7.63755 6.13304 7.50191 6.10377 7.34573 6.10377H6.29355V7.51904H7.34573ZM11.7601 10.1663C11.3054 10.1663 10.8936 10.0598 10.5246 9.84723C10.1557 9.63213 9.86628 9.33814 9.65573 8.96486C9.44537 8.58941 9.3401 8.17068 9.3401 7.70904C9.3401 7.24741 9.44537 6.82995 9.65573 6.45668C9.8661 6.08123 10.1557 5.78686 10.5246 5.57432C10.8934 5.35923 11.3052 5.25195 11.7601 5.25195C12.1446 5.25195 12.4977 5.32323 12.819 5.46577C13.1403 5.60832 13.4072 5.8085 13.6199 6.0665C13.8348 6.32232 13.9785 6.61632 14.051 6.94886H13.0803C13.0168 6.77704 12.9219 6.6265 12.7952 6.49741C12.6706 6.36632 12.5203 6.26541 12.3437 6.19541C12.1672 6.12541 11.9748 6.09014 11.7668 6.09014C11.4863 6.09014 11.2328 6.16014 11.0066 6.3005C10.7803 6.44086 10.6028 6.63432 10.4737 6.88086C10.347 7.12523 10.2837 7.40141 10.2837 7.70904C10.2837 8.01668 10.347 8.29414 10.4737 8.5405C10.6026 8.78486 10.7803 8.97704 11.0066 9.11741C11.2328 9.25777 11.4863 9.32777 11.7668 9.32777C11.975 9.32777 12.1674 9.2925 12.3437 9.2225C12.5201 9.1525 12.6706 9.05286 12.7952 8.92377C12.9219 8.79268 13.0168 8.64086 13.0803 8.46904H14.051C13.9786 8.80159 13.8348 9.09686 13.6199 9.35486C13.4072 9.61068 13.1403 9.80959 12.819 9.95213C12.4977 10.0947 12.1446 10.166 11.7601 10.166V10.1663Z" fill="white"/>
<path d="M10 14.166H5V14.9993H10V14.166Z" fill="white"/>
</g>
<defs>
<radialGradient id="paint0_radial_3917_59733" cx="0" cy="0" r="1" gradientUnits="userSpaceOnUse" gradientTransform="translate(19.9998) rotate(135) scale(26.2393)">
<stop offset="0.1" stop-color="#F0EB18"/>
<stop offset="0.65" stop-color="#00C4F4"/>
</radialGradient>
<clipPath id="clip0_3917_59733">
<rect width="20" height="20" fill="white"/>
</clipPath>
</defs>
</svg>
