<!-- Copyright 2000-2024 JetBrains s.r.o. and contributors. Use of this source code is governed by the Apache 2.0 license. -->
<svg width="24" height="24" viewBox="0 0 24 24" fill="none" xmlns="http://www.w3.org/2000/svg">
<g clip-path="url(#clip0_3917_59732)">
<path d="M22.4727 0H9.36022C8.95527 0 8.56669 0.1608 8.28022 0.447273L0.447273 8.28C0.1608 8.56647 0 8.95484 0 9.36V22.4727C0 23.3162 0.683782 24 1.52727 24H14.6396C15.0449 24 15.4337 23.8388 15.7202 23.5521L23.5527 15.7106C23.8388 15.4244 23.9993 15.036 23.9993 14.6313L24 1.52727C24 0.683782 23.3162 0 22.4727 0Z" fill="url(#paint0_radial_3917_59732)"/>
<path d="M20 4H4V20H20V4Z" fill="black"/>
<path d="M6.4375 6.40026H8.88528C9.28434 6.40026 9.63605 6.47357 9.94019 6.62019C10.2443 6.76681 10.4778 6.97299 10.6408 7.23917C10.8064 7.50535 10.8893 7.81343 10.8893 8.16361C10.8893 8.51379 10.8051 8.83146 10.6368 9.10026C10.4712 9.36906 10.2336 9.5783 9.92405 9.72753C9.61728 9.87415 9.26012 9.94746 8.85299 9.94746H7.54979V12.102H6.43794V6.40026H6.4375ZM8.81175 9.02324C8.99917 9.02324 9.16194 8.98921 9.30048 8.92135C9.44165 8.85066 9.5503 8.75183 9.62623 8.62397C9.70216 8.49372 9.74034 8.34295 9.74034 8.1719C9.74034 8.00084 9.70237 7.84855 9.62623 7.72397C9.55008 7.59612 9.44165 7.49837 9.30048 7.43073C9.16194 7.36004 8.99917 7.32492 8.81175 7.32492H7.54914V9.02324H8.81175ZM14.109 12.2C13.5633 12.2 13.0691 12.0721 12.6264 11.8171C12.1838 11.559 11.8364 11.2062 11.5838 10.7582C11.3313 10.3077 11.205 9.80521 11.205 9.25124C11.205 8.69728 11.3313 8.19633 11.5838 7.74841C11.8362 7.29786 12.1838 6.94463 12.6264 6.68957C13.0689 6.43146 13.5631 6.30273 14.109 6.30273C14.5704 6.30273 14.9942 6.38826 15.3797 6.55932C15.7652 6.73037 16.0855 6.97059 16.3408 7.28019C16.5987 7.58717 16.771 7.93997 16.8581 8.33903H15.6932C15.6171 8.13284 15.5032 7.95219 15.3511 7.79728C15.2016 7.63997 15.0212 7.51888 14.8094 7.43488C14.5975 7.35088 14.3667 7.30855 14.1171 7.30855C13.7804 7.30855 13.4763 7.39255 13.2048 7.56099C12.9332 7.72943 12.7203 7.96157 12.5654 8.25743C12.4133 8.55066 12.3374 8.88208 12.3374 9.25124C12.3374 9.62041 12.4133 9.95335 12.5654 10.249C12.72 10.5422 12.9332 10.7728 13.2048 10.9413C13.4763 11.1097 13.7804 11.1937 14.1171 11.1937C14.3669 11.1937 14.5977 11.1514 14.8094 11.0674C15.021 10.9834 15.2016 10.8638 15.3511 10.7089C15.5032 10.5516 15.6171 10.3694 15.6932 10.1632H16.8581C16.7712 10.5623 16.5987 10.9166 16.3408 11.2262C16.0855 11.5332 15.7652 11.7719 15.3797 11.943C14.9942 12.114 14.5704 12.1995 14.109 12.1995V12.2Z" fill="white"/>
<path d="M12 17H6V18H12V17Z" fill="white"/>
</g>
<defs>
<radialGradient id="paint0_radial_3917_59732" cx="0" cy="0" r="1" gradientUnits="userSpaceOnUse" gradientTransform="translate(23.9998) rotate(135) scale(31.4871)">
<stop offset="0.1" stop-color="#F0EB18"/>
<stop offset="0.65" stop-color="#00C4F4"/>
</radialGradient>
<clipPath id="clip0_3917_59732">
<rect width="24" height="24" fill="white"/>
</clipPath>
</defs>
</svg>
