<svg width="48" height="48" viewBox="0 0 48 48" fill="none" xmlns="http://www.w3.org/2000/svg">
<path d="M43 5H5V43H43V5Z" fill="url(#paint0_linear_2108_61204)"/>
<path d="M36.0999 11.9H11.8999V36.1H36.0999V11.9Z" fill="url(#paint1_linear_2108_61204)"/>
<path d="M39.7001 8.3H8.30005V39.8H39.8V8.3H39.7001Z" fill="url(#paint2_linear_2108_61204)"/>
<path d="M39.7001 39.7V8.3L36.1001 11.9V36.1L39.7001 39.7Z" fill="url(#paint3_linear_2108_61204)"/>
<path d="M11.9 11.9H36.1L43 5H5L11.9 11.9Z" fill="url(#paint4_linear_2108_61204)"/>
<path d="M36.1 36.1H11.9L5 43H43L36.1 36.1Z" fill="url(#paint5_linear_2108_61204)"/>
<path d="M8.30005 39.7H39.7001L36.1 36.1H11.9L8.30005 39.7Z" fill="url(#paint6_linear_2108_61204)"/>
<path d="M39.7001 39.7V8.3L36.1001 11.9V36.1L39.7001 39.7Z" fill="url(#paint7_linear_2108_61204)"/>
<path d="M8.30005 39.7H39.7001L36.1 36.1H11.9L8.30005 39.7Z" fill="url(#paint8_linear_2108_61204)"/>
<path d="M11.9 36.1V11.9L5 5V43L11.9 36.1Z" fill="url(#paint9_linear_2108_61204)"/>
<path d="M8.3 8.3H39.7L43 5H5L8.3 8.3Z" fill="url(#paint10_linear_2108_61204)"/>
<path d="M39.7001 8.3H8.30005L11.9 11.9H36.1L39.7001 8.3Z" fill="url(#paint11_linear_2108_61204)"/>
<path d="M39.7001 8.3H8.30005L11.9 11.9H36.1L39.7001 8.3Z" fill="url(#paint12_linear_2108_61204)"/>
<path d="M39.7 39.7H8.3L5 43H43L39.7 39.7Z" fill="url(#paint13_linear_2108_61204)"/>
<path d="M39.7 39.7L43 43V5L39.7 8.3V39.7Z" fill="url(#paint14_linear_2108_61204)"/>
<path d="M39.7 39.7H8.3L5 43H43L39.7 39.7Z" fill="url(#paint15_linear_2108_61204)"/>
<path d="M39.7 39.7H8.3L5 43H43L39.7 39.7Z" fill="url(#paint16_linear_2108_61204)"/>
<path d="M39.7 39.7H8.3L5 43H43L39.7 39.7Z" fill="url(#paint17_linear_2108_61204)"/>
<path d="M39.7 39.7H8.3L5 43H43L39.7 39.7Z" fill="url(#paint18_linear_2108_61204)"/>
<path d="M39.7 39.7L43 43V5L39.7 8.3V39.7Z" fill="url(#paint19_linear_2108_61204)"/>
<path d="M39.7 39.7L43 43V5L39.7 8.3V39.7Z" fill="url(#paint20_linear_2108_61204)"/>
<path d="M39.7 39.7L43 43V5L39.7 8.3V39.7Z" fill="url(#paint21_linear_2108_61204)"/>
<path d="M39.7 39.7L43 43V5L39.7 8.3V39.7Z" fill="url(#paint22_linear_2108_61204)"/>
<path d="M8.3 39.7V8.3L5 5V43L8.3 39.7Z" fill="url(#paint23_linear_2108_61204)"/>
<path d="M8.3 39.7V8.3L5 5V43L8.3 39.7Z" fill="url(#paint24_linear_2108_61204)"/>
<path d="M8.30005 8.3V39.7L11.9 36.1V11.9L8.30005 8.3Z" fill="url(#paint25_linear_2108_61204)"/>
<path d="M38 10H10V38H38V10Z" fill="url(#paint26_linear_2108_61204)"/>
<path d="M24 32.7H13.5V34.4H24V32.7Z" fill="white"/>
<path d="M13.5 13.4H17.8C20.3 13.4 21.8 14.9 21.8 17C21.8 19.4 19.9 20.7 17.6 20.7H15.8V23.9H13.5V13.4ZM17.6 18.7C18.8 18.7 19.4 18 19.4 17.1C19.4 16.1 18.7 15.5 17.5 15.5H15.8V18.7H17.6Z" fill="white"/>
<path d="M23.1001 18.7C23.1001 15.7 25.3001 13.2 28.6001 13.2C30.6001 13.2 31.8001 13.9 32.7001 14.8L31.2001 16.5C30.4001 15.8 29.6001 15.3 28.5001 15.3C26.7001 15.3 25.5001 16.8 25.5001 18.6C25.5001 20.4 26.7001 21.9 28.5001 21.9C29.7001 21.9 30.4001 21.4 31.3001 20.7L32.8001 22.2C31.7001 23.4 30.5001 24.1 28.5001 24.1C25.4001 24.1 23.1001 21.7 23.1001 18.7Z" fill="white"/>
<defs>
<linearGradient id="paint0_linear_2108_61204" x1="47.248" y1="47.2475" x2="-6.4293" y2="-6.4292" gradientUnits="userSpaceOnUse">
<stop offset="0.3475" stop-color="#C8EA23"/>
<stop offset="0.8562" stop-color="#10E899"/>
</linearGradient>
<linearGradient id="paint1_linear_2108_61204" x1="38.7941" y1="38.7939" x2="4.6358" y2="4.6357" gradientUnits="userSpaceOnUse">
<stop offset="0.3475" stop-color="#087CFA"/>
<stop offset="0.8562" stop-color="#FE2857"/>
<stop offset="1" stop-color="#FE2857"/>
</linearGradient>
<linearGradient id="paint2_linear_2108_61204" x1="43.2579" y1="43.2573" x2="-1.20655" y2="-1.2066" gradientUnits="userSpaceOnUse">
<stop stop-color="#FCF84A"/>
<stop offset="0.2816" stop-color="#C1F834"/>
<stop offset="0.7846" stop-color="#10E899"/>
</linearGradient>
<linearGradient id="paint3_linear_2108_61204" x1="36.8185" y1="23.9999" x2="41.1698" y2="23.9999" gradientUnits="userSpaceOnUse">
<stop offset="0.27" stop-color="#FFC320"/>
<stop offset="1" stop-color="#FDB60D" stop-opacity="0"/>
</linearGradient>
<linearGradient id="paint4_linear_2108_61204" x1="51.7469" y1="8.4545" x2="-1.0938" y2="8.4545" gradientUnits="userSpaceOnUse">
<stop offset="0.2576" stop-color="#EFE50C"/>
<stop offset="0.5774" stop-color="#BEFF26"/>
<stop offset="0.8746" stop-color="#00C66E"/>
</linearGradient>
<linearGradient id="paint5_linear_2108_61204" x1="3.0709" y1="39.5452" x2="46.8852" y2="39.5452" gradientUnits="userSpaceOnUse">
<stop offset="0.0242344" stop-color="#F3DF00"/>
<stop offset="0.496" stop-color="#DDFF18"/>
<stop offset="1" stop-color="#97E578"/>
</linearGradient>
<linearGradient id="paint6_linear_2108_61204" x1="23.9719" y1="36.818" x2="23.9718" y2="41.1694" gradientUnits="userSpaceOnUse">
<stop offset="0.27" stop-color="#FFC320"/>
<stop offset="1" stop-color="#FDB60D" stop-opacity="0"/>
</linearGradient>
<linearGradient id="paint7_linear_2108_61204" x1="36.8185" y1="23.9999" x2="41.1698" y2="23.9999" gradientUnits="userSpaceOnUse">
<stop offset="0.27" stop-color="#A8C320"/>
<stop offset="1" stop-color="#FDB60D" stop-opacity="0"/>
</linearGradient>
<linearGradient id="paint8_linear_2108_61204" x1="23.9719" y1="36.818" x2="23.9718" y2="41.1694" gradientUnits="userSpaceOnUse">
<stop offset="0.27" stop-color="#A8C320"/>
<stop offset="1" stop-color="#FDB60D" stop-opacity="0"/>
</linearGradient>
<linearGradient id="paint9_linear_2108_61204" x1="8.4547" y1="42.3689" x2="8.4547" y2="4.369" gradientUnits="userSpaceOnUse">
<stop offset="0.2576" stop-color="#EFE50C"/>
<stop offset="0.5774" stop-color="#BEFF26"/>
<stop offset="0.8746" stop-color="#00C66E"/>
</linearGradient>
<linearGradient id="paint10_linear_2108_61204" x1="23.0295" y1="6.3778" x2="9.2746" y2="11.6434" gradientUnits="userSpaceOnUse">
<stop offset="0.1018" stop-color="#A5FF21" stop-opacity="0"/>
<stop offset="0.8222" stop-color="#14EB1F"/>
<stop offset="1" stop-color="white" stop-opacity="0.9"/>
</linearGradient>
<linearGradient id="paint11_linear_2108_61204" x1="35.4887" y1="5.2924" x2="15.5018" y2="12.4877" gradientUnits="userSpaceOnUse">
<stop offset="0.018393" stop-color="#99C81D"/>
<stop offset="0.723" stop-color="#10C299" stop-opacity="0"/>
</linearGradient>
<linearGradient id="paint12_linear_2108_61204" x1="35.4887" y1="5.2924" x2="15.5018" y2="12.4877" gradientUnits="userSpaceOnUse">
<stop offset="0.0192715" stop-color="#8CC81D"/>
<stop offset="0.723" stop-color="#10C23B" stop-opacity="0.4"/>
</linearGradient>
<linearGradient id="paint13_linear_2108_61204" x1="47.0601" y1="45.5205" x2="11.6612" y2="39.5688" gradientUnits="userSpaceOnUse">
<stop stop-color="#FCF84A" stop-opacity="0"/>
<stop offset="1" stop-color="#FDD200"/>
</linearGradient>
<linearGradient id="paint14_linear_2108_61204" x1="41.3694" y1="42.4936" x2="41.3694" y2="4.93406" gradientUnits="userSpaceOnUse">
<stop stop-color="#FCF84A" stop-opacity="0"/>
<stop offset="1" stop-color="#FDD200"/>
</linearGradient>
<linearGradient id="paint15_linear_2108_61204" x1="23.9999" y1="39.0182" x2="23.9999" y2="44.0074" gradientUnits="userSpaceOnUse">
<stop stop-color="#FCF84A" stop-opacity="0"/>
<stop offset="1" stop-color="#FDD200"/>
</linearGradient>
<linearGradient id="paint16_linear_2108_61204" x1="23.9999" y1="39.0182" x2="23.9999" y2="44.0074" gradientUnits="userSpaceOnUse">
<stop offset="0.0714497" stop-color="#FFFFA3" stop-opacity="0.5"/>
<stop offset="0.5642" stop-color="#FCF84A" stop-opacity="0"/>
</linearGradient>
<linearGradient id="paint17_linear_2108_61204" x1="23.9999" y1="43.0122" x2="23.9999" y2="39.1724" gradientUnits="userSpaceOnUse">
<stop offset="0.0714497" stop-color="#97DF1E" stop-opacity="0.5"/>
<stop offset="0.5642" stop-color="#FCF84A" stop-opacity="0"/>
</linearGradient>
<linearGradient id="paint18_linear_2108_61204" x1="37.5764" y1="43.8023" x2="0.2494" y2="37.83" gradientUnits="userSpaceOnUse">
<stop offset="0.5632" stop-color="#A5FF21" stop-opacity="0"/>
<stop offset="1" stop-color="#D7BE00" stop-opacity="0.9"/>
</linearGradient>
<linearGradient id="paint19_linear_2108_61204" x1="39.2332" y1="23.9999" x2="43.842" y2="23.9999" gradientUnits="userSpaceOnUse">
<stop stop-color="#FCF84A" stop-opacity="0"/>
<stop offset="1" stop-color="#FDD200"/>
</linearGradient>
<linearGradient id="paint20_linear_2108_61204" x1="39.2332" y1="23.9999" x2="43.842" y2="23.9999" gradientUnits="userSpaceOnUse">
<stop offset="0.0714497" stop-color="#FFFFA3" stop-opacity="0.5"/>
<stop offset="0.5642" stop-color="#FCF84A" stop-opacity="0"/>
</linearGradient>
<linearGradient id="paint21_linear_2108_61204" x1="42.6066" y1="23.9999" x2="40.3767" y2="23.9999" gradientUnits="userSpaceOnUse">
<stop offset="0.0714497" stop-color="#97DF1E" stop-opacity="0.5"/>
<stop offset="0.5642" stop-color="#FCF84A" stop-opacity="0"/>
</linearGradient>
<linearGradient id="paint22_linear_2108_61204" x1="41.7045" y1="24.6827" x2="38.9553" y2="5.7082" gradientUnits="userSpaceOnUse">
<stop offset="0.5632" stop-color="#A5FF21" stop-opacity="0"/>
<stop offset="1" stop-color="#D7BE00" stop-opacity="0.9"/>
</linearGradient>
<linearGradient id="paint23_linear_2108_61204" x1="4.2316" y1="32.0722" x2="10.2721" y2="7.6438" gradientUnits="userSpaceOnUse">
<stop offset="0.1018" stop-color="#A5FF21" stop-opacity="0"/>
<stop offset="0.8222" stop-color="#14EB1F"/>
<stop offset="1" stop-color="white" stop-opacity="0.9"/>
</linearGradient>
<linearGradient id="paint24_linear_2108_61204" x1="6.368" y1="23.9275" x2="2.9837" y2="43.9845" gradientUnits="userSpaceOnUse">
<stop offset="0.5632" stop-color="#A5FF21" stop-opacity="0"/>
<stop offset="1" stop-color="#D7BE00" stop-opacity="0.9"/>
</linearGradient>
<linearGradient id="paint25_linear_2108_61204" x1="4.92536" y1="25.8618" x2="12.5647" y2="21.598" gradientUnits="userSpaceOnUse">
<stop offset="0.0192715" stop-color="#8CC81D"/>
<stop offset="0.723" stop-color="#10C23B" stop-opacity="0.4"/>
</linearGradient>
<linearGradient id="paint26_linear_2108_61204" x1="10.0426" y1="10.0426" x2="34.5762" y2="34.5762" gradientUnits="userSpaceOnUse">
<stop stop-color="#298B2A"/>
<stop offset="0.092362" stop-color="#216F21"/>
<stop offset="0.2928" stop-color="#103510"/>
<stop offset="0.6895" stop-color="#051005"/>
<stop offset="0.9138"/>
</linearGradient>
</defs>
</svg>
