<!-- Copyright 2000-2024 JetBrains s.r.o. and contributors. Use of this source code is governed by the Apache 2.0 license. -->
<svg width="48" height="48" viewBox="0 0 48 48" fill="none" xmlns="http://www.w3.org/2000/svg">
<g clip-path="url(#clip0_3917_59731)">
<path d="M44.9455 0H18.7204C17.9105 0 17.1334 0.3216 16.5604 0.894545L0.894545 16.56C0.3216 17.1329 0 17.9097 0 18.72V44.9455C0 46.6324 1.36756 48 3.05455 48H29.2791C30.0899 48 30.8675 47.6775 31.4404 47.1041L47.1055 31.4212C47.6775 30.8487 47.9987 30.072 47.9987 29.2625L48 3.05455C48 1.36756 46.6324 0 44.9455 0Z" fill="url(#paint0_radial_3917_59731)"/>
<path d="M39 9H9V39H39V9Z" fill="black"/>
<path d="M13.0781 12.9634H17.7975C18.5669 12.9634 19.245 13.1048 19.8314 13.3875C20.4178 13.6701 20.8679 14.0677 21.1821 14.5809C21.5014 15.0941 21.6613 15.688 21.6613 16.3632C21.6613 17.0384 21.4989 17.6508 21.1746 18.1691C20.8553 18.6873 20.3972 19.0907 19.8003 19.3785C19.2088 19.6612 18.5202 19.8025 17.7352 19.8025H15.2226V23.9565H13.079L13.0781 12.9634ZM17.6557 18.0206C18.0171 18.0206 18.3309 17.955 18.598 17.8241C18.8702 17.6878 19.0797 17.4973 19.2261 17.2508C19.3725 16.9997 19.4461 16.709 19.4461 16.3792C19.4461 16.0494 19.3729 15.7558 19.2261 15.5156C19.0793 15.2691 18.8702 15.0806 18.598 14.9502C18.3309 14.8139 18.0171 14.7462 17.6557 14.7462H15.2214V18.0206H17.6557ZM27.8689 24.1454C26.8169 24.1454 25.8641 23.8989 25.0105 23.4071C24.157 22.9095 23.4873 22.2293 23.0002 21.3657C22.5135 20.497 22.27 19.5282 22.27 18.4602C22.27 17.3921 22.5135 16.4263 23.0002 15.5627C23.4869 14.694 24.157 14.013 25.0105 13.5212C25.8636 13.0236 26.8164 12.7754 27.8689 12.7754C28.7586 12.7754 29.5755 12.9403 30.3188 13.2701C31.0622 13.5999 31.6797 14.063 32.1718 14.6599C32.6691 15.2518 33.0014 15.932 33.1692 16.7014H30.9233C30.7765 16.3039 30.5569 15.9556 30.2637 15.6569C29.9756 15.3536 29.6277 15.1201 29.2192 14.9582C28.8108 14.7962 28.3657 14.7146 27.8845 14.7146C27.2354 14.7146 26.649 14.8766 26.1257 15.2013C25.602 15.5261 25.1914 15.9737 24.8928 16.5441C24.5996 17.1094 24.4532 17.7484 24.4532 18.4602C24.4532 19.1719 24.5996 19.8139 24.8928 20.3839C25.191 20.9492 25.602 21.3939 26.1257 21.7186C26.649 22.0434 27.2354 22.2053 27.8845 22.2053C28.3661 22.2053 28.8112 22.1237 29.2192 21.9617C29.6273 21.7998 29.9756 21.5693 30.2637 21.2706C30.5569 20.9673 30.7765 20.6161 30.9233 20.2185H33.1692C33.0018 20.9879 32.6691 21.6711 32.1718 22.268C31.6797 22.8599 31.0622 23.3201 30.3188 23.6499C29.5755 23.9796 28.7586 24.1454 27.8689 24.1454Z" fill="white"/>
<path d="M25 33H13V35.0001H25V33Z" fill="white"/>
</g>
<defs>
<radialGradient id="paint0_radial_3917_59731" cx="0" cy="0" r="1" gradientUnits="userSpaceOnUse" gradientTransform="translate(46.1248 1.87478) rotate(135) scale(60.8112)">
<stop offset="0.05" stop-color="#F0EB18"/>
<stop offset="0.6" stop-color="#00C4F4"/>
</radialGradient>
<clipPath id="clip0_3917_59731">
<rect width="48" height="48" fill="white"/>
</clipPath>
</defs>
</svg>
