<svg width="20" height="20" viewBox="0 0 20 20" fill="none" xmlns="http://www.w3.org/2000/svg">
<path d="M11.4168 3.91667L10.3335 2L7.41683 3.41667L3.5835 3.75L4.16683 10.3333L9.5835 9.41667L11.4168 3.91667Z" fill="url(#paint0_linear_2108_61200)"/>
<path d="M5.83341 5.58333L0.666748 4.25L2.41675 15L11.5001 15.5L5.83341 5.58333Z" fill="url(#paint1_linear_2108_61200)"/>
<path d="M8.33341 9.91667L2.41675 15L11.5001 15.5L8.33341 9.91667Z" fill="url(#paint2_linear_2108_61200)"/>
<path d="M11.5001 15.4167L10.6667 6.33334L13.0834 4.16667L16.9167 2.58334L19.3334 8.66667L11.5001 15.4167Z" fill="url(#paint3_linear_2108_61200)"/>
<path d="M11.5001 15.4167L10.6667 6.33334L14.3334 7.66667L19.3334 8.66667L11.5001 15.4167Z" fill="url(#paint4_linear_2108_61200)"/>
<path d="M15.8335 8.58334L14.6668 6.08334L5.0835 8L6.0835 17.1667L12.3335 19.3333L19.3335 15.1667L15.8335 8.58334Z" fill="url(#paint5_linear_2108_61200)"/>
<path d="M15.8334 8.58333L14.6667 6.16667L10.9167 9.08333L12.3334 19.4167L19.3334 15.1667L15.8334 8.58333Z" fill="url(#paint6_linear_2108_61200)"/>
<path d="M10.9167 9V9.16667L11.7501 15.1667L17.0001 10.75L15.8334 8.58333L14.6667 6.16667L10.9167 9Z" fill="url(#paint7_linear_2108_61200)"/>
<path d="M6.3335 7.75L11.5002 15.5L15.6668 11.8333L12.7502 6.5L6.3335 7.75Z" fill="url(#paint8_linear_2108_61200)"/>
<path d="M10.9168 9.08333L5.0835 8L6.0835 17.1667L12.3335 19.3333L10.9168 9.08333Z" fill="url(#paint9_linear_2108_61200)"/>
<path d="M11.7502 15.25L10.9168 9.08333L5.0835 8L5.41683 11.25L11.5002 15.5L11.7502 15.25Z" fill="url(#paint10_linear_2108_61200)"/>
<path d="M11.75 15.25L11.0833 10.25L9.25 11.5833L11.4167 15.5H11.5L11.75 15.25Z" fill="url(#paint11_linear_2108_61200)"/>
<path d="M7.50016 8.41667L5.0835 8L5.8335 15.1667L11.5002 15.5L7.50016 8.41667Z" fill="url(#paint12_linear_2108_61200)"/>
<path d="M8.75 15.3333L11.5 15.5L9.16667 11.5L8.75 15.3333Z" fill="url(#paint13_linear_2108_61200)"/>
<path d="M10.9168 9.08333L5.0835 8L12.1668 1.75L16.9168 2.58333L13.7502 5.83333L14.6668 6.16667L10.9168 9.08333Z" fill="url(#paint14_linear_2108_61200)"/>
<path d="M11.4168 3.91667L10.8335 2.91667L5.0835 8L10.9168 9.08333L13.2502 7.25L11.4168 3.91667Z" fill="url(#paint15_linear_2108_61200)"/>
<path d="M10.3334 2L3.83341 0.583336L0.666748 4.25L5.83341 5.58334L10.3334 2Z" fill="url(#paint16_linear_2108_61200)"/>
<path d="M6.33341 5.16667L3.83341 0.583336L0.666748 4.25L5.83341 5.58334L6.33341 5.16667Z" fill="url(#paint17_linear_2108_61200)"/>
<path d="M8.66683 15.3333L6.0835 17.1667L12.3335 19.3333L11.7502 15.25L11.5002 15.5L8.66683 15.3333Z" fill="url(#paint18_linear_2108_61200)"/>
<path d="M19.3333 15.1667L15.6667 11.8333L13.75 5.83333L14.6667 6.16667L19.3333 15.1667Z" fill="url(#paint19_linear_2108_61200)"/>
<path d="M14 6.66667L14.6667 6.16667L13.75 5.83333L14 6.66667Z" fill="url(#paint20_linear_2108_61200)"/>
<path d="M13.7502 8.25L11.0835 10.25L11.7502 15.25L15.6668 11.8333L13.7502 8.25Z" fill="url(#paint21_linear_2108_61200)"/>
<path d="M15.8334 4.16667H4.16675V15.8333H15.8334V4.16667Z" fill="url(#paint22_linear_2108_61200)"/>
<path d="M10.8333 13.3333H5.83325V14.1667H10.8333V13.3333Z" fill="white"/>
<path d="M10.1665 10.0834L10.8332 9.33335C11.2498 9.66669 11.7498 9.91669 12.3332 9.91669C12.7498 9.91669 13.0832 9.75002 13.0832 9.41669C13.0832 9.16669 12.9165 9.00002 12.0832 8.75002C11.0832 8.50002 10.4165 8.25002 10.4165 7.25002C10.4165 6.33335 11.1665 5.75002 12.1665 5.75002C12.9165 5.75002 13.4998 6.00002 13.9998 6.41669L13.4165 7.25002C12.9998 6.91669 12.4998 6.75002 12.0832 6.75002C11.6665 6.75002 11.4165 6.91669 11.4165 7.16669C11.4165 7.50002 11.6665 7.58335 12.4998 7.83335C13.5832 8.08335 14.1665 8.50002 14.1665 9.33335C14.1665 10.3334 13.4165 10.9167 12.3332 10.9167C11.5832 10.9167 10.8332 10.6667 10.1665 10.0834Z" fill="white"/>
<path d="M5.83325 5.83333H7.83325C8.99992 5.83333 9.66659 6.5 9.66659 7.58333C9.66659 8.75 8.74992 9.33333 7.66659 9.33333H6.83325V10.8333H5.83325V5.83333ZM7.74992 8.33333C8.24992 8.33333 8.58325 8 8.58325 7.58333C8.58325 7.08333 8.24992 6.83333 7.74992 6.83333H6.91659V8.33333H7.74992Z" fill="white"/>
<defs>
<linearGradient id="paint0_linear_2108_61200" x1="4.08216" y1="11.4363" x2="9.37666" y2="1.26858" gradientUnits="userSpaceOnUse">
<stop stop-color="#AF1DF5"/>
<stop offset="0.2116" stop-color="#BC20E4"/>
<stop offset="0.6282" stop-color="#DD29B8"/>
<stop offset="1" stop-color="#FF318C"/>
</linearGradient>
<linearGradient id="paint1_linear_2108_61200" x1="2.537" y1="14.5273" x2="8.95458" y2="6.05033" gradientUnits="userSpaceOnUse">
<stop offset="0.1207" stop-color="#6B57FF"/>
<stop offset="0.4014" stop-color="#B74AF7"/>
<stop offset="0.7088" stop-color="#FF318C"/>
<stop offset="0.8648" stop-color="#FF7FB8"/>
</linearGradient>
<linearGradient id="paint2_linear_2108_61200" x1="3.47141" y1="17.1856" x2="8.39608" y2="13.7763" gradientUnits="userSpaceOnUse">
<stop offset="0.0892486" stop-color="#6B57FF"/>
<stop offset="0.4021" stop-color="#8253FD"/>
<stop offset="0.4579" stop-color="#8A52FC"/>
<stop offset="0.7051" stop-color="#AB4CF8"/>
<stop offset="0.8412" stop-color="#B74AF7"/>
</linearGradient>
<linearGradient id="paint3_linear_2108_61200" x1="16.3404" y1="14.0978" x2="12.2275" y2="4.33642" gradientUnits="userSpaceOnUse">
<stop stop-color="#4335BE"/>
<stop offset="0.1308" stop-color="#5638C7"/>
<stop offset="0.5322" stop-color="#8A42E1"/>
<stop offset="0.8343" stop-color="#AB48F1"/>
<stop offset="1" stop-color="#B74AF7"/>
</linearGradient>
<linearGradient id="paint4_linear_2108_61200" x1="16.2641" y1="14.053" x2="12.6056" y2="5.37009" gradientUnits="userSpaceOnUse">
<stop stop-color="#4335BE"/>
<stop offset="0.2419" stop-color="#663BCF"/>
<stop offset="0.7408" stop-color="#B74AF7"/>
</linearGradient>
<linearGradient id="paint5_linear_2108_61200" x1="14.1682" y1="17.2393" x2="8.25616" y2="8.57375" gradientUnits="userSpaceOnUse">
<stop offset="0.016129" stop-color="#6B57FF"/>
<stop offset="0.7829" stop-color="#B74AF7"/>
</linearGradient>
<linearGradient id="paint6_linear_2108_61200" x1="16.0004" y1="16.4028" x2="11.7215" y2="10.1309" gradientUnits="userSpaceOnUse">
<stop offset="0.016129" stop-color="#6B57FF"/>
<stop offset="0.7829" stop-color="#B74AF7"/>
</linearGradient>
<linearGradient id="paint7_linear_2108_61200" x1="22.2848" y1="14.9145" x2="8.9255" y2="8.66175" gradientUnits="userSpaceOnUse">
<stop stop-color="#4335BE"/>
<stop offset="0.2419" stop-color="#663BCF"/>
<stop offset="0.7408" stop-color="#B74AF7"/>
</linearGradient>
<linearGradient id="paint8_linear_2108_61200" x1="14.8368" y1="17.0859" x2="9.03608" y2="6.01175" gradientUnits="userSpaceOnUse">
<stop offset="0.016129" stop-color="#6B57FF"/>
<stop offset="0.7829" stop-color="#B74AF7"/>
</linearGradient>
<linearGradient id="paint9_linear_2108_61200" x1="11.9632" y1="18.2095" x2="6.25608" y2="9.84417" gradientUnits="userSpaceOnUse">
<stop offset="0.016129" stop-color="#6B57FF"/>
<stop offset="0.6909" stop-color="#B74AF7"/>
</linearGradient>
<linearGradient id="paint10_linear_2108_61200" x1="7.24925" y1="13.9101" x2="10.0791" y2="8.4755" gradientUnits="userSpaceOnUse">
<stop offset="0.016129" stop-color="#6B57FF"/>
<stop offset="0.6969" stop-color="#A329F5"/>
</linearGradient>
<linearGradient id="paint11_linear_2108_61200" x1="8.73492" y1="8.07967" x2="11.8048" y2="14.1064" gradientUnits="userSpaceOnUse">
<stop offset="0.016129" stop-color="#6B57FF"/>
<stop offset="0.6969" stop-color="#A329F5"/>
</linearGradient>
<linearGradient id="paint12_linear_2108_61200" x1="5.09333" y1="17.439" x2="10.0274" y2="8.65867" gradientUnits="userSpaceOnUse">
<stop offset="0.0242547" stop-color="#6B57FF"/>
<stop offset="0.263" stop-color="#6B57FF"/>
<stop offset="0.706" stop-color="#B74AF7"/>
<stop offset="0.7659" stop-color="#BC48F0"/>
<stop offset="0.8555" stop-color="#CA44DB"/>
<stop offset="0.9632" stop-color="#E03CBA"/>
<stop offset="1" stop-color="#E939AD"/>
</linearGradient>
<linearGradient id="paint13_linear_2108_61200" x1="8.52533" y1="16.6997" x2="10.9232" y2="12.4326" gradientUnits="userSpaceOnUse">
<stop offset="0.0455723" stop-color="#6B57FF"/>
<stop offset="0.295" stop-color="#8A52FC"/>
<stop offset="0.5991" stop-color="#AB4CF8"/>
<stop offset="0.7667" stop-color="#B74AF7"/>
</linearGradient>
<linearGradient id="paint14_linear_2108_61200" x1="12.3763" y1="12.588" x2="10.4176" y2="2.22942" gradientUnits="userSpaceOnUse">
<stop offset="0.016129" stop-color="#6B57FF"/>
<stop offset="0.5665" stop-color="#B74AF7"/>
<stop offset="0.9064" stop-color="#C276FF"/>
</linearGradient>
<linearGradient id="paint15_linear_2108_61200" x1="7.8155" y1="10.2306" x2="11.5266" y2="3.10367" gradientUnits="userSpaceOnUse">
<stop offset="0.016129" stop-color="#6B57FF"/>
<stop offset="0.5974" stop-color="#B74AF7"/>
</linearGradient>
<linearGradient id="paint16_linear_2108_61200" x1="2.75833" y1="8.09067" x2="6.27525" y2="1.70817" gradientUnits="userSpaceOnUse">
<stop offset="0.0874352" stop-color="#AF1DF5"/>
<stop offset="0.2329" stop-color="#BC20E4"/>
<stop offset="0.5194" stop-color="#DD29B8"/>
<stop offset="0.7751" stop-color="#FF318C"/>
<stop offset="0.997" stop-color="#FF64B9"/>
</linearGradient>
<linearGradient id="paint17_linear_2108_61200" x1="2.21541" y1="7.01909" x2="4.384" y2="3.0835" gradientUnits="userSpaceOnUse">
<stop offset="0.00935173" stop-color="#BC20E4"/>
<stop offset="0.4441" stop-color="#D827C0"/>
<stop offset="1" stop-color="#FF318C"/>
</linearGradient>
<linearGradient id="paint18_linear_2108_61200" x1="7.16683" y1="18.44" x2="12.3076" y2="16.7998" gradientUnits="userSpaceOnUse">
<stop offset="0.016129" stop-color="#6B57FF"/>
<stop offset="0.6909" stop-color="#B74AF7"/>
<stop offset="0.9772" stop-color="#BD6CF7"/>
</linearGradient>
<linearGradient id="paint19_linear_2108_61200" x1="17.3958" y1="10.2053" x2="15.3994" y2="10.9398" gradientUnits="userSpaceOnUse">
<stop offset="0.0753552" stop-color="#6B57FF"/>
<stop offset="0.7396" stop-color="#B74AF7"/>
</linearGradient>
<linearGradient id="paint20_linear_2108_61200" x1="13.9942" y1="7.53075" x2="14.239" y2="5.77925" gradientUnits="userSpaceOnUse">
<stop stop-color="#B74AF7"/>
<stop offset="1" stop-color="#C276FF"/>
</linearGradient>
<linearGradient id="paint21_linear_2108_61200" x1="14.8009" y1="15.5822" x2="11.4713" y2="9.22575" gradientUnits="userSpaceOnUse">
<stop offset="0.016129" stop-color="#6B57FF"/>
<stop offset="0.7829" stop-color="#B74AF7"/>
</linearGradient>
<linearGradient id="paint22_linear_2108_61200" x1="4.47544" y1="3.92105" x2="14.484" y2="14.9338" gradientUnits="userSpaceOnUse">
<stop stop-color="#562274"/>
<stop offset="0.59375" stop-color="#020202"/>
</linearGradient>
</defs>
</svg>
