<!-- Copyright 2000-2024 JetBrains s.r.o. and contributors. Use of this source code is governed by the Apache 2.0 license. -->
<svg width="24" height="24" viewBox="0 0 24 24" fill="none" xmlns="http://www.w3.org/2000/svg">
<g clip-path="url(#clip0_3917_59711)">
<path d="M21.82 5.98036L21.8193 1.52705C21.8191 0.683782 21.1353 0 20.292 0H15.977C15.5313 0 15.1076 0.194836 14.8174 0.533236L2.55123 14.8438C2.31407 15.1207 2.18359 15.4732 2.18359 15.8378V20.2911C2.18359 21.1346 2.86738 21.8184 3.71087 21.8184H8.0265C8.47225 21.8184 8.89596 21.6236 9.18614 21.2852L21.4521 6.97462C21.6895 6.69775 21.8197 6.34516 21.8197 5.98036H21.82Z" fill="#D249FC"/>
<path d="M21.8182 5.44473V1.52727C21.8182 0.683782 21.1344 0 20.2909 0H15.3812C15.3089 0 15.2367 0.00523636 15.1652 0.0152727L1.31127 1.9944C0.558982 2.10175 0 2.74625 0 3.50618V9.38356C0 10.2273 0.684 10.9111 1.52771 10.9108L8.47964 10.9091C8.64371 10.9091 8.80669 10.8827 8.96225 10.8308L20.774 6.89345C21.3975 6.68553 21.8182 6.10189 21.8182 5.44451V5.44473Z" fill="url(#paint0_linear_3917_59711)"/>
<path d="M24 22.4725V9.73444C24 9.12353 23.6359 8.57131 23.0745 8.33066L9.01549 2.30513C8.82545 2.22375 8.62058 2.18164 8.41375 2.18164H1.52727C0.683782 2.18164 0 2.86542 0 3.70891V10.4461C0 10.7479 0.0894545 11.0429 0.257018 11.294L8.28327 23.3197C8.56647 23.7443 9.0432 23.9992 9.55353 23.9992L22.4727 23.9998C23.3162 23.9998 24 23.316 24 22.4725Z" fill="url(#paint1_linear_3917_59711)"/>
<path d="M20 4H4V20H20V4Z" fill="black"/>
<path d="M6.17578 6.10263H8.74012C9.15818 6.10263 9.52664 6.17943 9.84527 6.33303C10.1639 6.48663 10.4085 6.70263 10.5792 6.98149C10.7527 7.26034 10.8396 7.58309 10.8396 7.94994C10.8396 8.3168 10.7513 8.6496 10.5751 8.9312C10.4016 9.2128 10.1527 9.432 9.82835 9.58834C9.50698 9.74194 9.13281 9.81874 8.7063 9.81874H7.34104V12.0759H6.17624V6.10263H6.17578ZM8.6631 8.85051C8.85944 8.85051 9.02995 8.81486 9.1751 8.74377C9.32298 8.66971 9.43681 8.56617 9.51635 8.43223C9.5959 8.29577 9.6359 8.13783 9.6359 7.95863C9.6359 7.77943 9.59612 7.61989 9.51635 7.48937C9.43658 7.35543 9.32298 7.25303 9.1751 7.18217C9.02995 7.10811 8.85944 7.07131 8.6631 7.07131H7.34035V8.85051H8.6631ZM13.5255 12.1785C13.0873 12.1785 12.6935 12.1001 12.3436 11.9438C11.9936 11.7874 11.7191 11.5682 11.52 11.2866C11.3209 11.0023 11.2185 10.6782 11.2128 10.3138H12.382C12.382 10.4846 12.4318 10.6366 12.5312 10.7703C12.6336 10.901 12.7714 11.0034 12.9452 11.0775C13.1214 11.1515 13.3207 11.1883 13.5424 11.1883C13.7529 11.1883 13.9406 11.1559 14.1056 11.0903C14.2734 11.0219 14.4044 10.9282 14.4981 10.8087C14.592 10.6891 14.6389 10.5527 14.6389 10.3991C14.6389 10.2087 14.5806 10.0491 14.464 9.92114C14.3502 9.7904 14.1922 9.70514 13.9904 9.66514L12.766 9.4304C12.4786 9.37646 12.2284 9.27406 12.0151 9.1232C11.8046 8.9696 11.6425 8.7792 11.5287 8.55154C11.4149 8.32114 11.358 8.06514 11.358 7.78354C11.358 7.43634 11.4503 7.128 11.6352 6.8576C11.8229 6.5872 12.0802 6.37714 12.4076 6.22606C12.7374 6.0752 13.1086 6 13.5212 6C13.9337 6 14.309 6.07406 14.6391 6.22194C14.9719 6.3696 15.2322 6.576 15.4199 6.84069C15.6105 7.10263 15.7072 7.40389 15.71 7.74514H14.5452C14.5452 7.59749 14.501 7.46629 14.4128 7.35269C14.3276 7.23909 14.208 7.15063 14.0544 7.08823C13.9008 7.02263 13.7273 6.99017 13.534 6.99017C13.3406 6.99017 13.1712 7.02171 13.0176 7.08411C12.864 7.14651 12.7445 7.23337 12.6592 7.34446C12.574 7.4528 12.5312 7.5776 12.5312 7.72C12.5312 7.8848 12.5838 8.02446 12.6892 8.13806C12.7943 8.24891 12.9408 8.3232 13.1287 8.36L14.3148 8.58194C14.6135 8.63589 14.8766 8.7456 15.104 8.9104C15.3344 9.0752 15.5122 9.2816 15.6373 9.52914C15.7623 9.77394 15.8249 10.0411 15.8249 10.3312C15.8249 10.6896 15.7269 11.0096 15.5305 11.2912C15.3342 11.5701 15.0613 11.7877 14.7113 11.944C14.3614 12.1003 13.966 12.1787 13.5253 12.1787L13.5255 12.1785Z" fill="white"/>
<path d="M12 17H6V18H12V17Z" fill="white"/>
</g>
<defs>
<linearGradient id="paint0_linear_3917_59711" x1="21.142" y1="-0.269018" x2="1.03222" y2="9.05476" gradientUnits="userSpaceOnUse">
<stop offset="0.16" stop-color="#D249FC"/>
<stop offset="0.55" stop-color="#FF2D90"/>
</linearGradient>
<linearGradient id="paint1_linear_3917_59711" x1="1.49324" y1="1.58317" x2="23.5076" y2="23.5977" gradientUnits="userSpaceOnUse">
<stop offset="0.3" stop-color="#FF2D90"/>
<stop offset="0.7" stop-color="#7256FF"/>
</linearGradient>
<clipPath id="clip0_3917_59711">
<rect width="24" height="24" fill="white"/>
</clipPath>
</defs>
</svg>
