<!-- Copyright 2000-2024 JetBrains s.r.o. and contributors. Use of this source code is governed by the Apache 2.0 license. -->
<svg width="20" height="20" viewBox="0 0 20 20" fill="none" xmlns="http://www.w3.org/2000/svg">
<g clip-path="url(#clip0_3917_59712)">
<path d="M18.18 4.98364L18.1795 1.27255C18.1793 0.569818 17.6095 0 16.9068 0H13.311C12.9395 0 12.5864 0.162364 12.3446 0.444364L2.12277 12.3698C1.92513 12.6005 1.81641 12.8944 1.81641 13.1982V16.9093C1.81641 17.6122 2.38622 18.182 3.08913 18.182H6.6855C7.05695 18.182 7.41004 18.0196 7.65186 17.7376L17.8735 5.81218C18.0713 5.58145 18.1799 5.28764 18.1799 4.98364H18.18Z" fill="#D249FC"/>
<path d="M18.1818 4.53727V1.27273C18.1818 0.569818 17.612 0 16.9091 0H12.8176C12.7575 0 12.6973 0.00436364 12.6376 0.0127273L1.09273 1.662C0.465818 1.75145 0 2.28855 0 2.92182V7.81964C0 8.52273 0.57 9.09254 1.27309 9.09236L7.06636 9.09091C7.20309 9.09091 7.33891 9.06891 7.46855 9.02564L17.3116 5.74455C17.8313 5.57127 18.1818 5.08491 18.1818 4.53709V4.53727Z" fill="url(#paint0_linear_3917_59712)"/>
<path d="M20 18.7274V8.11236C20 7.60327 19.6965 7.14309 19.2287 6.94254L7.51291 1.92127C7.35455 1.85345 7.18382 1.81836 7.01145 1.81836H1.27273C0.569818 1.81836 0 2.38818 0 3.09109V8.70545C0 8.9569 0.0745455 9.20272 0.214182 9.412L6.90273 19.4334C7.13873 19.7873 7.536 19.9996 7.96127 19.9996L18.7273 20.0002C19.4302 20.0002 20 19.4304 20 18.7274Z" fill="url(#paint1_linear_3917_59712)"/>
<path d="M16.6654 3.33398H3.33203V16.6673H16.6654V3.33398Z" fill="black"/>
<path d="M5.14453 5.08552H7.28148C7.62986 5.08552 7.93691 5.14952 8.20244 5.27752C8.46796 5.40552 8.67177 5.58552 8.81406 5.8179C8.95863 6.05029 9.03101 6.31924 9.03101 6.62495C9.03101 6.93067 8.95748 7.208 8.81063 7.44267C8.66605 7.67733 8.45863 7.86 8.18834 7.99029C7.92053 8.11829 7.60872 8.18229 7.25329 8.18229H6.11558V10.0632H5.14491V5.08552H5.14453ZM7.21729 7.37543C7.38091 7.37543 7.52301 7.34571 7.64396 7.28648C7.7672 7.22476 7.86206 7.13848 7.92834 7.02686C7.99463 6.91314 8.02796 6.78152 8.02796 6.63219C8.02796 6.48286 7.99482 6.3499 7.92834 6.24114C7.86186 6.12952 7.7672 6.04419 7.64396 5.98514C7.52301 5.92343 7.38091 5.89276 7.21729 5.89276H6.11501V7.37543H7.21729ZM11.2693 10.1488C10.9041 10.1488 10.576 10.0834 10.2843 9.95314C9.99272 9.82286 9.76396 9.64019 9.59805 9.40552C9.43215 9.16857 9.34682 8.89848 9.34205 8.59486H10.3163C10.3163 8.73714 10.3579 8.86381 10.4407 8.97524C10.5261 9.08419 10.6409 9.16952 10.7857 9.23124C10.9325 9.29295 11.0986 9.32362 11.2834 9.32362C11.4588 9.32362 11.6152 9.29657 11.7527 9.24191C11.8925 9.18495 12.0017 9.10686 12.0798 9.00724C12.1581 8.90762 12.1971 8.7939 12.1971 8.6659C12.1971 8.50724 12.1485 8.37429 12.0514 8.26762C11.9565 8.15867 11.8249 8.08762 11.6567 8.05429L10.6363 7.85867C10.3969 7.81371 10.1883 7.72838 10.0106 7.60267C9.8352 7.47467 9.70015 7.316 9.60529 7.12629C9.51044 6.93429 9.46301 6.72095 9.46301 6.48629C9.46301 6.19695 9.53996 5.94 9.69406 5.71467C9.85044 5.48933 10.0649 5.31429 10.3377 5.18838C10.6125 5.06267 10.9219 5 11.2657 5C11.6095 5 11.9222 5.06171 12.1973 5.18495C12.4746 5.308 12.6916 5.48 12.848 5.70057C13.0068 5.91886 13.0874 6.1699 13.0897 6.45429H12.119C12.119 6.33124 12.0822 6.2219 12.0087 6.12724C11.9377 6.03257 11.8381 5.95886 11.7101 5.90686C11.5821 5.85219 11.4375 5.82514 11.2763 5.82514C11.1152 5.82514 10.9741 5.85143 10.8461 5.90343C10.7181 5.95543 10.6184 6.02781 10.5474 6.12038C10.4763 6.21067 10.4407 6.31467 10.4407 6.43333C10.4407 6.57067 10.4845 6.68705 10.5723 6.78171C10.66 6.8741 10.7821 6.936 10.9386 6.96667L11.927 7.15162C12.176 7.19657 12.3952 7.288 12.5847 7.42533C12.7767 7.56267 12.9249 7.73467 13.0291 7.94095C13.1333 8.14495 13.1855 8.36762 13.1855 8.60933C13.1855 8.908 13.1038 9.17467 12.9402 9.40933C12.7765 9.64171 12.5491 9.82305 12.2575 9.95333C11.9659 10.0836 11.6363 10.149 11.2691 10.149L11.2693 10.1488Z" fill="white"/>
<path d="M10 14.166H5V14.9993H10V14.166Z" fill="white"/>
</g>
<defs>
<linearGradient id="paint0_linear_3917_59712" x1="17.6184" y1="-0.224182" x2="0.860182" y2="7.54564" gradientUnits="userSpaceOnUse">
<stop offset="0.16" stop-color="#D249FC"/>
<stop offset="0.55" stop-color="#FF2D90"/>
</linearGradient>
<linearGradient id="paint1_linear_3917_59712" x1="1.24436" y1="1.31963" x2="19.5896" y2="19.6651" gradientUnits="userSpaceOnUse">
<stop offset="0.3" stop-color="#FF2D90"/>
<stop offset="0.7" stop-color="#7256FF"/>
</linearGradient>
<clipPath id="clip0_3917_59712">
<rect width="20" height="20" fill="white"/>
</clipPath>
</defs>
</svg>
