<!-- Copyright 2000-2024 JetBrains s.r.o. and contributors. Use of this source code is governed by the Apache 2.0 license. -->
<svg width="48" height="48" viewBox="0 0 48 48" fill="none" xmlns="http://www.w3.org/2000/svg">
<g clip-path="url(#clip0_3917_59710)">
<path d="M43.636 11.9607L43.6347 3.05411C43.6343 1.36756 42.2667 0 40.5802 0H31.9502C31.0587 0 30.2113 0.389673 29.6309 1.06647L5.09855 29.6876C4.62423 30.2413 4.36328 30.9465 4.36328 31.6756V40.5823C4.36328 42.2692 5.73084 43.6368 7.41783 43.6368H16.0491C16.9406 43.6368 17.788 43.2471 18.3684 42.5703L42.9003 13.9492C43.3751 13.3955 43.6356 12.6903 43.6356 11.9607H43.636Z" fill="#D249FC"/>
<path d="M43.6364 10.8895V3.05455C43.6364 1.36756 42.2688 0 40.5818 0H30.7623C30.6179 0 30.4735 0.0104727 30.3303 0.0305455L2.62255 3.9888C1.11796 4.20349 0 5.49251 0 7.01236V18.7671C0 20.4545 1.368 21.8221 3.05542 21.8217L16.9593 21.8182C17.2874 21.8182 17.6134 21.7654 17.9245 21.6615L41.5479 13.7869C42.7951 13.3711 43.6364 12.2038 43.6364 10.889V10.8895Z" fill="url(#paint0_linear_3917_59710)"/>
<path d="M48 44.9451V19.4689C48 18.2471 47.2717 17.1426 46.1489 16.6613L18.031 4.61026C17.6509 4.4475 17.2412 4.36328 16.8275 4.36328H3.05455C1.36756 4.36328 0 5.73084 0 7.41783V20.8923C0 21.4958 0.178909 22.0858 0.514036 22.588L16.5665 46.6395C17.1329 47.4887 18.0864 47.9983 19.1071 47.9983L44.9455 47.9996C46.6324 47.9996 48 46.6321 48 44.9451Z" fill="url(#paint1_linear_3917_59710)"/>
<path d="M39 9H9V39H39V9Z" fill="black"/>
<path d="M25 33H13V35.0001H25V33Z" fill="white"/>
<path d="M13.0742 12.9957H17.7978C18.5679 12.9957 19.2466 13.1372 19.8335 13.4201C20.4204 13.703 20.8709 14.1009 21.1854 14.6146C21.505 15.1282 21.665 15.7227 21.665 16.3985C21.665 17.0742 21.5025 17.6873 21.1779 18.206C20.8583 18.7247 20.3998 19.1285 19.8023 19.4164C19.2104 19.6994 18.5211 19.8408 17.7355 19.8408H15.2206V23.9986H13.0751V12.9957H13.0742ZM17.6559 18.0574C18.0176 18.0574 18.3317 17.9917 18.599 17.8607C18.8714 17.7243 19.0811 17.5336 19.2276 17.2869C19.3741 17.0355 19.4478 16.7446 19.4478 16.4145C19.4478 16.0844 19.3746 15.7905 19.2276 15.5501C19.0807 15.3034 18.8714 15.1147 18.599 14.9842C18.3317 14.8478 18.0176 14.78 17.6559 14.78H15.2194V18.0574H17.6559ZM26.6126 24.1876C25.8054 24.1876 25.08 24.0432 24.4354 23.7552C23.7908 23.4672 23.2851 23.0634 22.9184 22.5447C22.5517 22.021 22.3631 21.4239 22.3525 20.7528H24.5061C24.5061 21.0673 24.5979 21.3473 24.7811 21.5936C24.9697 21.8344 25.2236 22.0231 25.5436 22.1595C25.8682 22.2959 26.2353 22.3637 26.6437 22.3637C27.0315 22.3637 27.3772 22.3039 27.6811 22.1831C27.9902 22.0572 28.2314 21.8845 28.4041 21.6643C28.5771 21.4441 28.6634 21.1928 28.6634 20.9099C28.6634 20.5591 28.556 20.2653 28.3413 20.0295C28.1316 19.7886 27.8407 19.6316 27.4689 19.5579L25.2135 19.1255C24.6842 19.0261 24.2232 18.8375 23.8304 18.5596C23.4426 18.2767 23.1441 17.926 22.9344 17.5066C22.7247 17.0822 22.6199 16.6107 22.6199 16.092C22.6199 15.4524 22.79 14.8844 23.1306 14.3864C23.4763 13.8883 23.9504 13.5013 24.5533 13.223C25.1608 12.9452 25.8446 12.8066 26.6046 12.8066C27.3645 12.8066 28.0559 12.9431 28.6638 13.2155C29.2769 13.4875 29.7564 13.8676 30.1021 14.3552C30.4532 14.8377 30.6313 15.3926 30.6364 16.0212H28.4908C28.4908 15.7492 28.4095 15.5076 28.247 15.2983C28.09 15.0891 27.8698 14.9261 27.5868 14.8112C27.3039 14.6903 26.9843 14.6306 26.6281 14.6306C26.2719 14.6306 25.96 14.6887 25.677 14.8036C25.3941 14.9185 25.1739 15.0785 25.0168 15.2832C24.8598 15.4827 24.7811 15.7126 24.7811 15.9749C24.7811 16.2785 24.8779 16.5357 25.072 16.745C25.2657 16.9492 25.5356 17.086 25.8816 17.1538L28.0664 17.5626C28.6167 17.662 29.1013 17.8641 29.5202 18.1677C29.9446 18.4712 30.2722 18.8514 30.5025 19.3074C30.7328 19.7583 30.8482 20.2505 30.8482 20.7848C30.8482 21.445 30.6675 22.0344 30.3059 22.5531C29.9442 23.0668 29.4415 23.4676 28.7969 23.7556C28.1523 24.0436 27.4239 24.188 26.6121 24.188L26.6126 24.1876Z" fill="white"/>
</g>
<defs>
<linearGradient id="paint0_linear_3917_59710" x1="42.2841" y1="-0.538036" x2="2.06444" y2="18.1095" gradientUnits="userSpaceOnUse">
<stop offset="0.16" stop-color="#D249FC"/>
<stop offset="0.55" stop-color="#FF2D90"/>
</linearGradient>
<linearGradient id="paint1_linear_3917_59710" x1="2.98647" y1="3.16634" x2="47.0151" y2="47.1954" gradientUnits="userSpaceOnUse">
<stop offset="0.3" stop-color="#FF2D90"/>
<stop offset="0.7" stop-color="#7256FF"/>
</linearGradient>
<clipPath id="clip0_3917_59710">
<rect width="48" height="48" fill="white"/>
</clipPath>
</defs>
</svg>
