<svg width="48" height="48" viewBox="0 0 48 48" fill="none" xmlns="http://www.w3.org/2000/svg">
<path d="M27.4 9.4L24.7999 4.9L17.9 8.2L8.69995 9.1L9.89995 24.9L23 22.7L27.4 9.4Z" fill="url(#paint0_linear_2108_61198)"/>
<path d="M13.9 13.4L1.5 10.2L5.8 35.9L27.5 37.3L13.9 13.4Z" fill="url(#paint1_linear_2108_61198)"/>
<path d="M20 23.9L5.80005 35.9L27.5 37.3L20 23.9Z" fill="url(#paint2_linear_2108_61198)"/>
<path d="M27.5001 37.1L25.6001 15.3L31.4001 10L40.6001 6.3L46.5001 20.8L27.5001 37.1Z" fill="url(#paint3_linear_2108_61198)"/>
<path d="M27.5001 37.1L25.6001 15.3L34.4001 18.3L46.5001 20.8L27.5001 37.1Z" fill="url(#paint4_linear_2108_61198)"/>
<path d="M38.0999 20.6L35.0999 14.7L12.2 19.3L14.5 41.2L29.7 46.5L46.5 36.4L38.0999 20.6Z" fill="url(#paint5_linear_2108_61198)"/>
<path d="M38.0999 20.6L35.2 14.8L26.2 21.7L29.7 46.5L46.5 36.4L38.0999 20.6Z" fill="url(#paint6_linear_2108_61198)"/>
<path d="M26.2 21.7V22L28.2999 36.5L40.7999 25.7L38.0999 20.6L35.2 14.8L26.2 21.7Z" fill="url(#paint7_linear_2108_61198)"/>
<path d="M15.3 18.7L27.5 37.3L37.7001 28.5L30.6 15.6L15.3 18.7Z" fill="url(#paint8_linear_2108_61198)"/>
<path d="M26.2 21.7L12.2 19.3L14.5 41.2L29.7 46.5L26.2 21.7Z" fill="url(#paint9_linear_2108_61198)"/>
<path d="M28.2999 36.6L26.2 21.7L12.2 19.3L13 27L27.5 37.3L28.2999 36.6Z" fill="url(#paint10_linear_2108_61198)"/>
<path d="M28.3 36.6L26.6 24.6L22.3 27.8L27.5 37.2V37.3L28.3 36.6Z" fill="url(#paint11_linear_2108_61198)"/>
<path d="M17.9 20.3L12.2 19.3L14 36.4L27.5 37.3L17.9 20.3Z" fill="url(#paint12_linear_2108_61198)"/>
<path d="M20.8999 36.9L27.4999 37.3L21.9999 27.5L20.8999 36.9Z" fill="url(#paint13_linear_2108_61198)"/>
<path d="M26.2 21.7L12.2 19.3L29.2999 4.2L40.5999 6.3L33 14L35.2 14.8L26.2 21.7Z" fill="url(#paint14_linear_2108_61198)"/>
<path d="M27.4 9.4L26 7L12.2 19.3L26.2 21.7L31.7999 17.4L27.4 9.4Z" fill="url(#paint15_linear_2108_61198)"/>
<path d="M24.8 4.9L9.2 1.5L1.5 10.2L13.9 13.5L24.8 4.9Z" fill="url(#paint16_linear_2108_61198)"/>
<path d="M15.3 12.4L9.2 1.5L1.5 10.2L13.9 13.5L15.3 12.4Z" fill="url(#paint17_linear_2108_61198)"/>
<path d="M20.8 36.9L14.5 41.2L29.7 46.5L28.3 36.6L27.6 37.3L20.8 36.9Z" fill="url(#paint18_linear_2108_61198)"/>
<path d="M46.5 36.4L37.6 28.4L33 14L35.2 14.8L46.5 36.4Z" fill="url(#paint19_linear_2108_61198)"/>
<path d="M33.6 16L35.2 14.8L33 14L33.6 16Z" fill="url(#paint20_linear_2108_61198)"/>
<path d="M32.9001 19.8L26.6001 24.6L28.3001 36.6L37.7001 28.5L32.9001 19.8Z" fill="url(#paint21_linear_2108_61198)"/>
<path d="M38 10H10V38H38V10Z" fill="url(#paint22_linear_2108_61198)"/>
<g opacity="0.3">
<path opacity="0.3" d="M10 36.1333L27.5389 37.1833L13.9667 13.5L10 12.45V36.1333Z" fill="url(#paint23_linear_2108_61198)"/>
<path opacity="0.3" d="M28.0832 38H28.8999L28.3166 12.1778L27.5388 10H18.4388L13.9666 13.5389L28.0832 38Z" fill="url(#paint24_linear_2108_61198)"/>
<path opacity="0.3" d="M38.0001 28.0444V10H36.9501L32.9446 14.0833L35.2001 14.7833L35.1612 14.8222L38.0001 20.6556V28.0444Z" fill="url(#paint25_linear_2108_61198)"/>
<path opacity="0.3" d="M38 20.6556L35.1611 14.8222L26.1777 21.7056L28.4722 38H38V20.6556Z" fill="url(#paint26_linear_2108_61198)"/>
<path opacity="0.3" d="M22.7554 10L12.2166 19.2944L26.1777 21.7056L35.1999 14.7833L32.9443 14.0833L36.9499 10H22.7554Z" fill="url(#paint27_linear_2108_61198)"/>
<path opacity="0.3" d="M13.9667 13.5389L18.4389 10H10V12.4889L13.9667 13.5389Z" fill="url(#paint28_linear_2108_61198)"/>
</g>
<path d="M24 32.7H13.5V34.4H24V32.7Z" fill="white"/>
<path d="M22.6843 22.2834L24.0973 20.6686C25.0056 21.476 26.0149 21.9806 27.226 21.9806C28.1343 21.9806 28.7399 21.5769 28.7399 20.9713C28.7399 20.3658 28.3362 20.063 26.6204 19.6593C24.501 19.1547 23.088 18.5491 23.088 16.4297C23.088 14.5121 24.6019 13.2001 26.8223 13.2001C28.3362 13.2001 29.6482 13.7047 30.7584 14.5121L29.5473 16.2278C28.639 15.6223 27.7306 15.2186 26.8223 15.2186C25.914 15.2186 25.4093 15.6223 25.4093 16.1269C25.4093 16.8334 25.914 17.0352 27.7306 17.5399C29.8501 18.1454 31.0612 18.8519 31.0612 20.7695C31.0612 22.8889 29.4464 24.1001 27.1251 24.1001C25.6112 23.9991 23.9964 23.3936 22.6843 22.2834Z" fill="white"/>
<path d="M13.5 13.2001H17.8398C20.363 13.2001 21.8769 14.7139 21.8769 16.8334C21.8769 19.2556 19.9593 20.5676 17.638 20.5676H15.8213V23.7973H13.5V13.2001ZM17.638 18.5491C18.8491 18.5491 19.4546 17.8426 19.4546 16.9343C19.4546 15.9251 18.7481 15.3195 17.537 15.3195H15.8213V18.5491H17.638Z" fill="white"/>
<defs>
<linearGradient id="paint0_linear_2108_61198" x1="9.79675" y1="27.4471" x2="22.5035" y2="3.0445" gradientUnits="userSpaceOnUse">
<stop stop-color="#AF1DF5"/>
<stop offset="0.2116" stop-color="#BC20E4"/>
<stop offset="0.6282" stop-color="#DD29B8"/>
<stop offset="1" stop-color="#FF318C"/>
</linearGradient>
<linearGradient id="paint1_linear_2108_61198" x1="6.0885" y1="34.8655" x2="21.4907" y2="14.5208" gradientUnits="userSpaceOnUse">
<stop offset="0.1207" stop-color="#6B57FF"/>
<stop offset="0.4014" stop-color="#B74AF7"/>
<stop offset="0.7088" stop-color="#FF318C"/>
<stop offset="0.8648" stop-color="#FF7FB8"/>
</linearGradient>
<linearGradient id="paint2_linear_2108_61198" x1="8.33135" y1="41.2454" x2="20.1504" y2="33.0629" gradientUnits="userSpaceOnUse">
<stop offset="0.0892486" stop-color="#6B57FF"/>
<stop offset="0.4021" stop-color="#8253FD"/>
<stop offset="0.4579" stop-color="#8A52FC"/>
<stop offset="0.7051" stop-color="#AB4CF8"/>
<stop offset="0.8412" stop-color="#B74AF7"/>
</linearGradient>
<linearGradient id="paint3_linear_2108_61198" x1="39.2169" y1="33.8348" x2="29.3458" y2="10.4074" gradientUnits="userSpaceOnUse">
<stop stop-color="#4335BE"/>
<stop offset="0.1308" stop-color="#5638C7"/>
<stop offset="0.5322" stop-color="#8A42E1"/>
<stop offset="0.8343" stop-color="#AB48F1"/>
<stop offset="1" stop-color="#B74AF7"/>
</linearGradient>
<linearGradient id="paint4_linear_2108_61198" x1="39.0337" y1="33.7272" x2="30.2533" y2="12.8883" gradientUnits="userSpaceOnUse">
<stop stop-color="#4335BE"/>
<stop offset="0.2419" stop-color="#663BCF"/>
<stop offset="0.7408" stop-color="#B74AF7"/>
</linearGradient>
<linearGradient id="paint5_linear_2108_61198" x1="34.0032" y1="41.3744" x2="19.8143" y2="20.577" gradientUnits="userSpaceOnUse">
<stop offset="0.016129" stop-color="#6B57FF"/>
<stop offset="0.7829" stop-color="#B74AF7"/>
</linearGradient>
<linearGradient id="paint6_linear_2108_61198" x1="38.4007" y1="39.3665" x2="28.1313" y2="24.3142" gradientUnits="userSpaceOnUse">
<stop offset="0.016129" stop-color="#6B57FF"/>
<stop offset="0.7829" stop-color="#B74AF7"/>
</linearGradient>
<linearGradient id="paint7_linear_2108_61198" x1="53.4832" y1="35.7948" x2="21.4209" y2="20.7881" gradientUnits="userSpaceOnUse">
<stop stop-color="#4335BE"/>
<stop offset="0.2419" stop-color="#663BCF"/>
<stop offset="0.7408" stop-color="#B74AF7"/>
</linearGradient>
<linearGradient id="paint8_linear_2108_61198" x1="35.6081" y1="41.0063" x2="21.6863" y2="14.4282" gradientUnits="userSpaceOnUse">
<stop offset="0.016129" stop-color="#6B57FF"/>
<stop offset="0.7829" stop-color="#B74AF7"/>
</linearGradient>
<linearGradient id="paint9_linear_2108_61198" x1="28.7115" y1="43.7028" x2="15.0141" y2="23.626" gradientUnits="userSpaceOnUse">
<stop offset="0.016129" stop-color="#6B57FF"/>
<stop offset="0.6909" stop-color="#B74AF7"/>
</linearGradient>
<linearGradient id="paint10_linear_2108_61198" x1="17.3979" y1="33.3841" x2="24.1895" y2="20.3412" gradientUnits="userSpaceOnUse">
<stop offset="0.016129" stop-color="#6B57FF"/>
<stop offset="0.6969" stop-color="#A329F5"/>
</linearGradient>
<linearGradient id="paint11_linear_2108_61198" x1="20.9639" y1="19.3911" x2="28.3316" y2="33.8554" gradientUnits="userSpaceOnUse">
<stop offset="0.016129" stop-color="#6B57FF"/>
<stop offset="0.6969" stop-color="#A329F5"/>
</linearGradient>
<linearGradient id="paint12_linear_2108_61198" x1="12.2236" y1="41.8535" x2="24.0653" y2="20.7808" gradientUnits="userSpaceOnUse">
<stop offset="0.0242547" stop-color="#6B57FF"/>
<stop offset="0.263" stop-color="#6B57FF"/>
<stop offset="0.706" stop-color="#B74AF7"/>
<stop offset="0.7659" stop-color="#BC48F0"/>
<stop offset="0.8555" stop-color="#CA44DB"/>
<stop offset="0.9632" stop-color="#E03CBA"/>
<stop offset="1" stop-color="#E939AD"/>
</linearGradient>
<linearGradient id="paint13_linear_2108_61198" x1="20.4606" y1="40.0791" x2="26.2154" y2="29.8382" gradientUnits="userSpaceOnUse">
<stop offset="0.0455723" stop-color="#6B57FF"/>
<stop offset="0.295" stop-color="#8A52FC"/>
<stop offset="0.5991" stop-color="#AB4CF8"/>
<stop offset="0.7667" stop-color="#B74AF7"/>
</linearGradient>
<linearGradient id="paint14_linear_2108_61198" x1="29.7027" y1="30.2111" x2="25.0018" y2="5.3507" gradientUnits="userSpaceOnUse">
<stop offset="0.016129" stop-color="#6B57FF"/>
<stop offset="0.5665" stop-color="#B74AF7"/>
<stop offset="0.9064" stop-color="#C276FF"/>
</linearGradient>
<linearGradient id="paint15_linear_2108_61198" x1="18.7569" y1="24.5534" x2="27.6634" y2="7.4489" gradientUnits="userSpaceOnUse">
<stop offset="0.016129" stop-color="#6B57FF"/>
<stop offset="0.5974" stop-color="#B74AF7"/>
</linearGradient>
<linearGradient id="paint16_linear_2108_61198" x1="6.6199" y1="19.4176" x2="15.0605" y2="4.0995" gradientUnits="userSpaceOnUse">
<stop offset="0.0874352" stop-color="#AF1DF5"/>
<stop offset="0.2329" stop-color="#BC20E4"/>
<stop offset="0.5194" stop-color="#DD29B8"/>
<stop offset="0.7751" stop-color="#FF318C"/>
<stop offset="0.997" stop-color="#FF64B9"/>
</linearGradient>
<linearGradient id="paint17_linear_2108_61198" x1="5.3168" y1="16.8458" x2="10.5214" y2="7.4004" gradientUnits="userSpaceOnUse">
<stop offset="0.00935173" stop-color="#BC20E4"/>
<stop offset="0.4441" stop-color="#D827C0"/>
<stop offset="1" stop-color="#FF318C"/>
</linearGradient>
<linearGradient id="paint18_linear_2108_61198" x1="17.1999" y1="44.2561" x2="29.5378" y2="40.3197" gradientUnits="userSpaceOnUse">
<stop offset="0.016129" stop-color="#6B57FF"/>
<stop offset="0.6909" stop-color="#B74AF7"/>
<stop offset="0.9772" stop-color="#BD6CF7"/>
</linearGradient>
<linearGradient id="paint19_linear_2108_61198" x1="41.7498" y1="24.4928" x2="36.9585" y2="26.2556" gradientUnits="userSpaceOnUse">
<stop offset="0.0753552" stop-color="#6B57FF"/>
<stop offset="0.7396" stop-color="#B74AF7"/>
</linearGradient>
<linearGradient id="paint20_linear_2108_61198" x1="33.5861" y1="18.0739" x2="34.1737" y2="13.8702" gradientUnits="userSpaceOnUse">
<stop stop-color="#B74AF7"/>
<stop offset="1" stop-color="#C276FF"/>
</linearGradient>
<linearGradient id="paint21_linear_2108_61198" x1="35.5218" y1="37.3972" x2="27.5309" y2="22.1417" gradientUnits="userSpaceOnUse">
<stop offset="0.016129" stop-color="#6B57FF"/>
<stop offset="0.7829" stop-color="#B74AF7"/>
</linearGradient>
<linearGradient id="paint22_linear_2108_61198" x1="10.7409" y1="9.41052" x2="34.7613" y2="35.841" gradientUnits="userSpaceOnUse">
<stop stop-color="#562274"/>
<stop offset="0.59375" stop-color="#020202"/>
</linearGradient>
<linearGradient id="paint23_linear_2108_61198" x1="19.1235" y1="40.9578" x2="16.5718" y2="10.4051" gradientUnits="userSpaceOnUse">
<stop offset="0.1391" stop-color="#2C083E"/>
<stop offset="0.1711" stop-color="#0E0A25"/>
<stop offset="0.5145" stop-color="#8D1BC7"/>
<stop offset="0.8648" stop-color="#FF45ED"/>
</linearGradient>
<linearGradient id="paint24_linear_2108_61198" x1="26.2809" y1="35.228" x2="20.7016" y2="10.9239" gradientUnits="userSpaceOnUse">
<stop offset="0.0862819" stop-color="#3B0B6E"/>
<stop offset="0.2814" stop-color="#601274"/>
<stop offset="0.7133" stop-color="#BE2482"/>
<stop offset="1" stop-color="#FF318C"/>
</linearGradient>
<linearGradient id="paint25_linear_2108_61198" x1="34.9027" y1="10.3464" x2="37.4831" y2="18.0876" gradientUnits="userSpaceOnUse">
<stop offset="0.1893" stop-color="#4335BE"/>
<stop offset="0.5166" stop-color="#2B227A"/>
<stop offset="0.8443" stop-color="#15113C"/>
<stop offset="1" stop-color="#0C0A23"/>
</linearGradient>
<linearGradient id="paint26_linear_2108_61198" x1="38.1404" y1="35.6803" x2="29.3557" y2="22.8041" gradientUnits="userSpaceOnUse">
<stop stop-color="#15132A"/>
<stop offset="0.4052" stop-color="#331444"/>
<stop offset="0.9653" stop-color="#9F40D7"/>
</linearGradient>
<linearGradient id="paint27_linear_2108_61198" x1="27.1591" y1="28.2219" x2="23.7296" y2="10.0854" gradientUnits="userSpaceOnUse">
<stop offset="0.016129" stop-color="#6B57FF"/>
<stop offset="0.5665" stop-color="#B74AF7"/>
<stop offset="0.9064" stop-color="#C276FF"/>
</linearGradient>
<linearGradient id="paint28_linear_2108_61198" x1="11.1303" y1="15.6233" x2="14.4475" y2="9.60333" gradientUnits="userSpaceOnUse">
<stop offset="0.0874352" stop-color="#FF45ED"/>
<stop offset="0.2127" stop-color="#FF42DC"/>
<stop offset="0.4594" stop-color="#FF38B0"/>
<stop offset="0.6408" stop-color="#FF318C"/>
</linearGradient>
</defs>
</svg>
