<!-- Copyright 2000-2024 JetBrains s.r.o. and contributors. Use of this source code is governed by the Apache 2.0 license. -->
<svg width="20" height="20" viewBox="0 0 20 20" fill="none" xmlns="http://www.w3.org/2000/svg">
<g clip-path="url(#clip0_3917_59715)">
<path d="M1.81641 15.0167L1.81695 18.7278C1.81695 19.4307 2.38677 20.0004 3.08968 20.0004H6.6855C7.05695 20.0004 7.41004 19.838 7.65186 19.556L17.8735 7.63054C18.0711 7.39981 18.1799 7.10599 18.1799 6.80218V3.09109C18.1799 2.38818 17.61 1.81836 16.9071 1.81836H13.3108C12.9393 1.81836 12.5862 1.98072 12.3444 2.26272L2.12277 14.1882C1.92495 14.4189 1.81641 14.7127 1.81641 15.0167Z" fill="#00D886"/>
<path d="M1.81641 15.4633V18.7278C1.81641 19.4307 2.38622 20.0006 3.08913 20.0006H7.18059C7.24077 20.0006 7.30095 19.9962 7.36059 19.9878L18.9055 18.3387C19.5326 18.2491 19.9982 17.7122 19.9982 17.0787V12.1809C19.9982 11.4778 19.4282 10.908 18.7251 10.9082L12.9319 10.9097C12.7951 10.9097 12.6593 10.9317 12.5297 10.9749L2.68659 14.256C2.16695 14.4293 1.81641 14.9157 1.81641 15.4635V15.4633Z" fill="url(#paint0_linear_3917_59715)"/>
<path d="M0 1.27273V11.8878C0 12.3969 0.303454 12.8571 0.771273 13.0576L12.4871 18.0789C12.6455 18.1467 12.8162 18.1818 12.9885 18.1818H18.7273C19.4302 18.1818 20 17.612 20 16.9091V11.2947C20 11.0433 19.9254 10.7975 19.7858 10.5882L13.0975 0.566727C12.8613 0.212909 12.4642 0.000545454 12.0389 0.000545454L1.27273 0C0.569818 0 0 0.569818 0 1.27273Z" fill="url(#paint1_linear_3917_59715)"/>
<path d="M16.6654 3.33398H3.33203V16.6673H16.6654V3.33398Z" fill="black"/>
<path d="M5.14453 5.08514H7.28148C7.62986 5.08514 7.93691 5.14914 8.20244 5.27714C8.46796 5.40514 8.67177 5.58514 8.81406 5.81752C8.95863 6.04991 9.03101 6.31886 9.03101 6.62457C9.03101 6.93029 8.95748 7.20762 8.81063 7.44229C8.66605 7.67695 8.45863 7.85962 8.18834 7.9899C7.92053 8.1179 7.60872 8.18191 7.25329 8.18191H6.11558V10.0629H5.14491V5.08514H5.14453ZM7.21729 7.37505C7.38091 7.37505 7.52301 7.34533 7.64396 7.2861C7.7672 7.22438 7.86206 7.1381 7.92834 7.02648C7.99463 6.91276 8.02796 6.78114 8.02796 6.63181C8.02796 6.48248 7.99482 6.34952 7.92834 6.24076C7.86186 6.12914 7.7672 6.04381 7.64396 5.98476C7.52301 5.92305 7.38091 5.89238 7.21729 5.89238H6.11501V7.37505H7.21729ZM11.8419 10.1484C11.3655 10.1484 10.9341 10.0368 10.5476 9.8141C10.1611 9.58876 9.85786 9.28076 9.63729 8.88971C9.41691 8.49638 9.30663 8.05771 9.30663 7.5741C9.30663 7.09048 9.41691 6.65314 9.63729 6.2621C9.85767 5.86876 10.1611 5.56038 10.5476 5.33771C10.9339 5.11238 11.3653 5 11.8419 5C12.2447 5 12.6146 5.07467 12.9512 5.224C13.2878 5.37333 13.5674 5.58305 13.7902 5.85333C14.0154 6.12133 14.1659 6.42933 14.2419 6.77771H13.2249C13.1584 6.59771 13.059 6.44 12.9262 6.30476C12.7958 6.16743 12.6382 6.06171 12.4533 5.98838C12.2683 5.91505 12.0668 5.8781 11.8489 5.8781C11.555 5.8781 11.2895 5.95143 11.0525 6.09848C10.8154 6.24552 10.6295 6.44819 10.4942 6.70648C10.3615 6.96248 10.2952 7.25181 10.2952 7.5741C10.2952 7.89638 10.3615 8.18705 10.4942 8.44514C10.6293 8.70114 10.8154 8.90248 11.0525 9.04952C11.2895 9.19657 11.555 9.26991 11.8489 9.26991C12.067 9.26991 12.2685 9.23295 12.4533 9.15962C12.6381 9.08629 12.7958 8.98191 12.9262 8.84667C13.059 8.70933 13.1584 8.55029 13.2249 8.37029H14.2419C14.1661 8.71867 14.0154 9.028 13.7902 9.29829C13.5674 9.56629 13.2878 9.77467 12.9512 9.924C12.6146 10.0733 12.2447 10.148 11.8419 10.148V10.1484Z" fill="white"/>
<path d="M10 14.166H5V14.9993H10V14.166Z" fill="white"/>
</g>
<defs>
<linearGradient id="paint0_linear_3917_59715" x1="2.37986" y1="20.2247" x2="19.138" y2="12.4549" gradientUnits="userSpaceOnUse">
<stop offset="0.1" stop-color="#00D886"/>
<stop offset="0.59" stop-color="#F0EB18"/>
</linearGradient>
<linearGradient id="paint1_linear_3917_59715" x1="18.7558" y1="18.6805" x2="0.410366" y2="0.33509" gradientUnits="userSpaceOnUse">
<stop offset="0.3" stop-color="#F0EB18"/>
<stop offset="0.7" stop-color="#00C4F4"/>
</linearGradient>
<clipPath id="clip0_3917_59715">
<rect width="20" height="20" fill="white"/>
</clipPath>
</defs>
</svg>
