<!-- Copyright 2000-2024 JetBrains s.r.o. and contributors. Use of this source code is governed by the Apache 2.0 license. -->
<svg width="24" height="24" viewBox="0 0 24 24" fill="none" xmlns="http://www.w3.org/2000/svg">
<g clip-path="url(#clip0_3917_59714)">
<path d="M2.18359 18.0197L2.18425 22.473C2.18425 23.3165 2.86803 24 3.71152 24H8.0265C8.47225 24 8.89596 23.8052 9.18614 23.4668L21.4521 9.15626C21.6893 8.87939 21.8197 8.5268 21.8197 8.16222V3.70891C21.8197 2.86542 21.136 2.18164 20.2925 2.18164H15.9768C15.5311 2.18164 15.1074 2.37648 14.8172 2.71488L2.55123 17.0254C2.31385 17.3023 2.18359 17.6549 2.18359 18.0197Z" fill="#00D886"/>
<path d="M2.18359 18.556V22.4734C2.18359 23.3169 2.86738 24.0007 3.71087 24.0007H8.62061C8.69283 24.0007 8.76505 23.9954 8.83661 23.9854L22.6905 22.0065C23.443 21.8989 24.0018 21.2546 24.0018 20.4945V14.6171C24.0018 13.7734 23.3178 13.0896 22.4741 13.0898L15.5221 13.0916C15.3581 13.0916 15.1951 13.118 15.0395 13.1699L3.22781 17.1072C2.60425 17.3152 2.18359 17.8988 2.18359 18.5562V18.556Z" fill="url(#paint0_linear_3917_59714)"/>
<path d="M0 1.52727V14.2654C0 14.8763 0.364145 15.4285 0.925527 15.6692L14.9845 21.6947C15.1745 21.7761 15.3794 21.8182 15.5863 21.8182H22.4727C23.3162 21.8182 24 21.1344 24 20.2909V13.5537C24 13.2519 23.9105 12.9569 23.743 12.7058L15.7169 0.680073C15.4335 0.255491 14.957 0.000654545 14.4467 0.000654545L1.52727 0C0.683782 0 0 0.683782 0 1.52727Z" fill="url(#paint1_linear_3917_59714)"/>
<path d="M20 4H4V20H20V4Z" fill="black"/>
<path d="M6.17188 6.10217H8.73622C9.15428 6.10217 9.52273 6.17897 9.84136 6.33257C10.16 6.48617 10.4046 6.70217 10.5753 6.98103C10.7488 7.25989 10.8356 7.58263 10.8356 7.94949C10.8356 8.31634 10.7474 8.64914 10.5712 8.93074C10.3977 9.21234 10.1488 9.43154 9.82445 9.58789C9.50308 9.74149 9.1289 9.81829 8.70239 9.81829H7.33713V12.0754H6.17233V6.10217H6.17188ZM8.65919 8.85006C8.85553 8.85006 9.02605 8.8144 9.17119 8.74331C9.31907 8.66926 9.4329 8.56571 9.51245 8.43177C9.59199 8.29531 9.63199 8.13737 9.63199 7.95817C9.63199 7.77897 9.59222 7.61943 9.51245 7.48891C9.43268 7.35497 9.31907 7.25257 9.17119 7.18171C9.02605 7.10766 8.85553 7.07086 8.65919 7.07086H7.33645V8.85006H8.65919ZM14.2087 12.1781C13.637 12.1781 13.1193 12.0441 12.6555 11.7769C12.1918 11.5065 11.8279 11.1369 11.5632 10.6677C11.2987 10.1957 11.1664 9.66926 11.1664 9.08891C11.1664 8.50857 11.2987 7.98377 11.5632 7.51451C11.8276 7.04251 12.1918 6.67246 12.6555 6.40526C13.1191 6.13486 13.6368 6 14.2087 6C14.6921 6 15.136 6.0896 15.5399 6.2688C15.9438 6.448 16.2793 6.69966 16.5467 7.024C16.8169 7.3456 16.9975 7.7152 17.0887 8.13326H15.8683C15.7886 7.91726 15.6692 7.728 15.5099 7.56571C15.3534 7.40091 15.1643 7.27406 14.9424 7.18606C14.7204 7.09806 14.4786 7.05371 14.2171 7.05371C13.8644 7.05371 13.5458 7.14171 13.2615 7.31817C12.9769 7.49463 12.7538 7.73783 12.5915 8.04777C12.4322 8.35497 12.3527 8.70217 12.3527 9.08891C12.3527 9.47566 12.4322 9.82446 12.5915 10.1342C12.7536 10.4414 12.9769 10.683 13.2615 10.8594C13.5458 11.0359 13.8644 11.1239 14.2171 11.1239C14.4788 11.1239 14.7207 11.0795 14.9424 10.9915C15.1641 10.9035 15.3534 10.7783 15.5099 10.616C15.6692 10.4512 15.7886 10.2603 15.8683 10.0443H17.0887C16.9977 10.4624 16.8169 10.8336 16.5467 11.1579C16.2793 11.4795 15.9438 11.7296 15.5399 11.9088C15.136 12.088 14.6921 12.1776 14.2087 12.1776V12.1781Z" fill="white"/>
<path d="M12 17H6V18H12V17Z" fill="white"/>
</g>
<defs>
<linearGradient id="paint0_linear_3917_59714" x1="2.85974" y1="24.2697" x2="22.9696" y2="14.9459" gradientUnits="userSpaceOnUse">
<stop offset="0.1" stop-color="#00D886"/>
<stop offset="0.59" stop-color="#F0EB18"/>
</linearGradient>
<linearGradient id="paint1_linear_3917_59714" x1="22.507" y1="22.4166" x2="0.492439" y2="0.402109" gradientUnits="userSpaceOnUse">
<stop offset="0.3" stop-color="#F0EB18"/>
<stop offset="0.7" stop-color="#00C4F4"/>
</linearGradient>
<clipPath id="clip0_3917_59714">
<rect width="24" height="24" fill="white"/>
</clipPath>
</defs>
</svg>
