<!-- Copyright 2000-2024 JetBrains s.r.o. and contributors. Use of this source code is governed by the Apache 2.0 license. -->
<svg width="48" height="48" viewBox="0 0 48 48" fill="none" xmlns="http://www.w3.org/2000/svg">
<g clip-path="url(#clip0_3917_59713)">
<path d="M4.36328 36.0394L4.36459 44.946C4.36459 46.633 5.73215 48.0001 7.41914 48.0001H16.0491C16.9406 48.0001 17.788 47.6104 18.3684 46.9336L42.9003 18.3125C43.3746 17.7588 43.6356 17.0536 43.6356 16.3244V7.41783C43.6356 5.73085 42.268 4.36328 40.581 4.36328H31.9498C31.0583 4.36328 30.2108 4.75295 29.6305 5.42975L5.09855 34.0508C4.62379 34.6046 4.36328 35.3098 4.36328 36.0394Z" fill="#00D886"/>
<path d="M4.36328 37.11V44.9449C4.36328 46.6318 5.73084 47.9994 7.41783 47.9994H17.2373C17.3818 47.9994 17.5262 47.9889 17.6693 47.9689L45.3771 44.011C46.8821 43.7959 47.9996 42.5073 47.9996 40.987V29.2323C47.9996 27.5449 46.6316 26.1773 44.9442 26.1777L31.0404 26.1812C30.7122 26.1812 30.3863 26.234 30.0751 26.3379L6.45172 34.2125C5.20459 34.6284 4.36328 35.7956 4.36328 37.1104V37.11Z" fill="url(#paint0_linear_3917_59713)"/>
<path d="M0 3.05455V28.5308C0 29.7526 0.728291 30.857 1.85105 31.3383L29.969 43.3894C30.3491 43.5521 30.7588 43.6364 31.1725 43.6364H44.9455C46.6324 43.6364 48 42.2688 48 40.5818V27.1073C48 26.5039 47.8211 25.9139 47.486 25.4116L31.4339 1.36015C30.8671 0.510982 29.914 0.00130909 28.8934 0.00130909L3.05455 0C1.36756 0 0 1.36756 0 3.05455Z" fill="url(#paint1_linear_3917_59713)"/>
<path d="M39 9H9V39H39V9Z" fill="black"/>
<path d="M13.0781 12.9908H17.7981C18.5676 12.9908 19.2458 13.1322 19.8323 13.4149C20.4188 13.6976 20.869 14.0952 21.1832 14.6085C21.5026 15.1217 21.6624 15.7158 21.6624 16.391C21.6624 17.0663 21.5 17.6788 21.1757 18.1972C20.8563 18.7155 20.3982 19.119 19.8012 19.4067C19.2097 19.6895 18.5209 19.8308 17.7359 19.8308H15.2229V23.9854H13.079V12.9908H13.0781ZM17.6564 18.0487C18.0178 18.0487 18.3316 17.983 18.5988 17.8522C18.871 17.7159 19.0805 17.5253 19.2269 17.2787C19.3733 17.0276 19.4469 16.7369 19.4469 16.407C19.4469 16.0772 19.3737 15.7835 19.2269 15.5433C19.0801 15.2967 18.871 15.1083 18.5988 14.9778C18.3316 14.8415 18.0178 14.7738 17.6564 14.7738H15.2217V18.0487H17.6564ZM27.871 24.1743C26.8187 24.1743 25.8658 23.9278 25.0122 23.4359C24.1585 22.9382 23.4888 22.2579 23.0016 21.3942C22.5148 20.5254 22.2712 19.5565 22.2712 18.4883C22.2712 17.4201 22.5148 16.4541 23.0016 15.5904C23.4883 14.7216 24.1585 14.0405 25.0122 13.5487C25.8654 13.051 26.8183 12.8027 27.871 12.8027C28.7608 12.8027 29.5778 12.9677 30.3212 13.2975C31.0646 13.6273 31.6822 14.0905 32.1745 14.6875C32.6718 15.2795 33.0041 15.9598 33.172 16.7293H30.9258C30.779 16.3317 30.5593 15.9834 30.2661 15.6846C29.9779 15.3813 29.63 15.1478 29.2215 14.9858C28.8129 14.8239 28.3678 14.7422 27.8865 14.7422C27.2374 14.7422 26.6509 14.9042 26.1275 15.229C25.6037 15.5538 25.1931 16.0014 24.8944 16.5719C24.6011 17.1374 24.4547 17.7765 24.4547 18.4883C24.4547 19.2002 24.6011 19.8422 24.8944 20.4122C25.1927 20.9777 25.6037 21.4224 26.1275 21.7472C26.6509 22.072 27.2374 22.2339 27.8865 22.2339C28.3682 22.2339 28.8134 22.1523 29.2215 21.9904C29.6296 21.8284 29.9779 21.5978 30.2661 21.2991C30.5593 20.9958 30.779 20.6445 30.9258 20.2469H33.172C33.0045 21.0164 32.6718 21.6996 32.1745 22.2966C31.6822 22.8886 31.0646 23.3488 30.3212 23.6787C29.5778 24.0085 28.7608 24.1735 27.871 24.1735V24.1743Z" fill="white"/>
<path d="M25 33H13V35.0001H25V33Z" fill="white"/>
</g>
<defs>
<linearGradient id="paint0_linear_3917_59713" x1="5.71557" y1="48.5374" x2="45.9352" y2="29.8899" gradientUnits="userSpaceOnUse">
<stop offset="0.1" stop-color="#00D886"/>
<stop offset="0.59" stop-color="#F0EB18"/>
</linearGradient>
<linearGradient id="paint1_linear_3917_59713" x1="45.014" y1="44.8333" x2="0.984876" y2="0.804219" gradientUnits="userSpaceOnUse">
<stop offset="0.3" stop-color="#F0EB18"/>
<stop offset="0.7" stop-color="#00C4F4"/>
</linearGradient>
<clipPath id="clip0_3917_59713">
<rect width="48" height="48" fill="white"/>
</clipPath>
</defs>
</svg>
