<svg width="48" height="48" viewBox="0 0 48 48" fill="none" xmlns="http://www.w3.org/2000/svg">
<path d="M21.6 26.7L17.3 29.2L17 33.7L10.6 36.5L2.5 37.2L4.3 8.4L20.7 1.5L38.6 17.9L21.6 26.7Z" fill="url(#paint0_linear_2108_61201)"/>
<path d="M32.0999 9.2L46.2 18.7L41.5 29.2L33.5 27H26.7L32.0999 9.2Z" fill="url(#paint1_linear_2108_61201)"/>
<path d="M24.5001 34.8L12.6001 7.1L20.7001 1.5L46.1001 18.7L24.5001 34.8Z" fill="url(#paint2_linear_2108_61201)"/>
<path d="M4.30005 8.4L20.7001 1.5L12.6 7.1L4.30005 8.4Z" fill="url(#paint3_linear_2108_61201)"/>
<path d="M4.3 8.4L20.7 1.5L12.6 7.1L1.5 37.5L4.3 8.4Z" fill="url(#paint4_linear_2108_61201)"/>
<path d="M18.3 16.4L25.7 40L16.9 46.5L1.5 37.5L5.5 26.1L17.9 13.5L18.3 16.4Z" fill="#21D789"/>
<path d="M15.3 34.9L1.5 37.5L16.9 46.5L25.7 40L15.3 34.9Z" fill="url(#paint5_linear_2108_61201)"/>
<path d="M15.3 34.9L1.5 37.5L5.5 26.1L17.9 13.5L15.3 34.9Z" fill="url(#paint6_linear_2108_61201)"/>
<path d="M18.9999 33.8L25.5999 40L16.8999 46.5L18.9999 33.8Z" fill="url(#paint7_linear_2108_61201)"/>
<path d="M46.5 41.8L32.8 46.4L14.5 41.3L17.9 13.5L35 1.5L36.6 13.9L32 23.9L40.9 20.5L42.7 27.3L46.5 41.8Z" fill="url(#paint8_linear_2108_61201)"/>
<path d="M46.5 41.8L32.8 46.4L40.9001 20.5L46.5 41.8Z" fill="url(#paint9_linear_2108_61201)"/>
<path d="M34.9999 1.5L28.4999 15.8L23.3999 27L31.9999 23.9L36.7999 13.8L34.9999 1.5Z" fill="url(#paint10_linear_2108_61201)"/>
<path d="M4.30005 8.4L20.7001 1.5L12.6 7.1L4.30005 8.4Z" fill="url(#paint11_linear_2108_61201)"/>
<path d="M46.5 41.8L32.8 46.4L14.5 41.3L25.6 40.1L46.5 41.8Z" fill="url(#paint12_linear_2108_61201)"/>
<path d="M34.5 40.8L32.8 46.4L46.5 41.8L34.5 40.8Z" fill="url(#paint13_linear_2108_61201)"/>
<path d="M38 10H10V38H38V10Z" fill="url(#paint14_linear_2108_61201)"/>
<g clip-path="url(#clip0_2108_61201)">
<g opacity="0.3">
<path opacity="0.3" d="M38 24.6222V13.2667L36.2889 12.1778L36.6 13.8889L31.9333 24L38 21.6667V24.6222Z" fill="url(#paint15_linear_2108_61201)"/>
<path opacity="0.3" d="M38 38V21.6667L31.9333 24L36.6 13.8889L35.9778 10H22.9111L17.9333 13.5778L14.9778 38H38Z" fill="url(#paint16_linear_2108_61201)"/>
<path opacity="0.3" d="M28.511 15.9111L23.3777 26.9556L31.9332 24L36.7555 13.8889L36.1332 10H31.1555L28.511 15.9111Z" fill="url(#paint17_linear_2108_61201)"/>
<path opacity="0.3" d="M13.8889 10H10V21.6667L16.2222 15.2889L13.8889 10Z" fill="url(#paint18_linear_2108_61201)"/>
<path opacity="0.3" d="M10 35.8222L15.2889 34.8889L17.9333 13.5778L10 21.6667V35.8222Z" fill="url(#paint19_linear_2108_61201)"/>
</g>
</g>
<path d="M24 32.7H13.5V34.4H24V32.7Z" fill="white"/>
<path d="M13.5 13.4H17.8C20.3 13.4 21.8 14.9 21.8 17C21.8 19.4 19.9 20.7 17.6 20.7H15.8V23.9H13.5V13.4ZM17.6 18.7C18.8 18.7 19.4 18 19.4 17.1C19.4 16.1 18.7 15.5 17.5 15.5H15.8V18.7H17.6Z" fill="white"/>
<path d="M23.1001 18.7C23.1001 15.7 25.3001 13.2 28.6001 13.2C30.6001 13.2 31.8001 13.9 32.7001 14.8L31.2001 16.5C30.4001 15.8 29.6001 15.3 28.5001 15.3C26.7001 15.3 25.5001 16.8 25.5001 18.6C25.5001 20.4 26.7001 21.9 28.5001 21.9C29.7001 21.9 30.4001 21.4 31.3001 20.7L32.8001 22.2C31.7001 23.4 30.5001 24.1 28.5001 24.1C25.4001 24.1 23.1001 21.7 23.1001 18.7Z" fill="white"/>
<defs>
<linearGradient id="paint0_linear_2108_61201" x1="-13.3214" y1="38.8005" x2="41.0607" y2="-1.3442" gradientUnits="userSpaceOnUse">
<stop offset="0.0107527" stop-color="#FCF84A"/>
<stop offset="0.1116" stop-color="#A7EB62"/>
<stop offset="0.2056" stop-color="#5FE077"/>
<stop offset="0.2727" stop-color="#32DA84"/>
<stop offset="0.3065" stop-color="#21D789"/>
<stop offset="0.5768" stop-color="#21D789"/>
<stop offset="0.5968" stop-color="#21D789"/>
<stop offset="0.686" stop-color="#20D68C"/>
<stop offset="0.7627" stop-color="#1ED497"/>
<stop offset="0.8348" stop-color="#19D1A9"/>
<stop offset="0.904" stop-color="#13CCC2"/>
<stop offset="0.9707" stop-color="#0BC6E1"/>
<stop offset="1" stop-color="#07C3F2"/>
</linearGradient>
<linearGradient id="paint1_linear_2108_61201" x1="33.3245" y1="12.9738" x2="39.8873" y2="33.7265" gradientUnits="userSpaceOnUse">
<stop stop-color="#009AE5"/>
<stop offset="1" stop-color="#07C3F2"/>
</linearGradient>
<linearGradient id="paint2_linear_2108_61201" x1="7.1733" y1="11.1563" x2="41.4252" y2="26.6622" gradientUnits="userSpaceOnUse">
<stop offset="0.0344093" stop-color="#10E899"/>
<stop offset="0.1745" stop-color="#13E596"/>
<stop offset="0.2947" stop-color="#1EDA8C"/>
<stop offset="0.3185" stop-color="#21D789"/>
<stop offset="0.3975" stop-color="#20D68C"/>
<stop offset="0.4653" stop-color="#1ED497"/>
<stop offset="0.529" stop-color="#19D1A9"/>
<stop offset="0.5903" stop-color="#13CCC2"/>
<stop offset="0.6492" stop-color="#0BC6E1"/>
<stop offset="0.6752" stop-color="#07C3F2"/>
<stop offset="0.9215" stop-color="#07EBFF"/>
</linearGradient>
<linearGradient id="paint3_linear_2108_61201" x1="14.4334" y1="7.8337" x2="11.4295" y2="3.3516" gradientUnits="userSpaceOnUse">
<stop stop-color="#07C3F2"/>
<stop offset="0.1949" stop-color="#0BC6E2"/>
<stop offset="0.5746" stop-color="#15CEB8"/>
<stop offset="0.9463" stop-color="#21D789"/>
</linearGradient>
<linearGradient id="paint4_linear_2108_61201" x1="-3.4584" y1="12.2136" x2="14.0539" y2="20.9697" gradientUnits="userSpaceOnUse">
<stop offset="0.030218" stop-color="#C1EF5B"/>
<stop offset="0.2486" stop-color="#9DEA65"/>
<stop offset="0.7318" stop-color="#41DC80"/>
<stop offset="0.896" stop-color="#21D789"/>
</linearGradient>
<linearGradient id="paint5_linear_2108_61201" x1="18.7657" y1="26.1187" x2="8.6906" y2="50.658" gradientUnits="userSpaceOnUse">
<stop offset="0.1026" stop-color="#087CFA"/>
<stop offset="0.2273" stop-color="#0C89EA" stop-opacity="0.8064"/>
<stop offset="0.4716" stop-color="#15ABC0" stop-opacity="0.427"/>
<stop offset="0.7466" stop-color="#21D789" stop-opacity="0"/>
</linearGradient>
<linearGradient id="paint6_linear_2108_61201" x1="9.4164" y1="12.314" x2="10.0005" y2="37.5083" gradientUnits="userSpaceOnUse">
<stop offset="0.0108126" stop-color="#FCF84A"/>
<stop offset="0.0924045" stop-color="#ECF64F"/>
<stop offset="0.2525" stop-color="#C1EF5B"/>
<stop offset="0.4754" stop-color="#7DE56F"/>
<stop offset="0.7466" stop-color="#21D789"/>
</linearGradient>
<linearGradient id="paint7_linear_2108_61201" x1="16.9331" y1="40.1601" x2="25.586" y2="40.1601" gradientUnits="userSpaceOnUse">
<stop stop-color="#13A5C7"/>
<stop offset="1" stop-color="#21D789"/>
</linearGradient>
<linearGradient id="paint8_linear_2108_61201" x1="55.7367" y1="43.5857" x2="9.5656" y2="10.5239" gradientUnits="userSpaceOnUse">
<stop offset="0.4732" stop-color="#FCF84A"/>
<stop offset="0.5319" stop-color="#ECF74C"/>
<stop offset="0.647" stop-color="#C1F451"/>
<stop offset="0.8056" stop-color="#7EEF5A"/>
<stop offset="0.9489" stop-color="#3BEA62"/>
</linearGradient>
<linearGradient id="paint9_linear_2108_61201" x1="54.5" y1="30.4655" x2="17.6506" y2="36.7179" gradientUnits="userSpaceOnUse">
<stop offset="0.2756" stop-color="#FCF84A"/>
<stop offset="0.3649" stop-color="#ECF74C"/>
<stop offset="0.5402" stop-color="#C1F451"/>
<stop offset="0.7817" stop-color="#7EEF5A"/>
<stop offset="1" stop-color="#3BEA62"/>
</linearGradient>
<linearGradient id="paint10_linear_2108_61201" x1="40.1176" y1="29.4108" x2="26.1938" y2="10.0771" gradientUnits="userSpaceOnUse">
<stop offset="0.1216" stop-color="#FCF84A"/>
<stop offset="0.2021" stop-color="#F3F74B"/>
<stop offset="0.3351" stop-color="#DAF350"/>
<stop offset="0.5044" stop-color="#B1ED56"/>
<stop offset="0.7031" stop-color="#78E55F"/>
<stop offset="0.9242" stop-color="#30DB6B"/>
<stop offset="1" stop-color="#16D76F"/>
</linearGradient>
<linearGradient id="paint11_linear_2108_61201" x1="5.40975" y1="4.2417" x2="17.9503" y2="5.5031" gradientUnits="userSpaceOnUse">
<stop stop-color="#FCF84A"/>
<stop offset="0.1636" stop-color="#D8F957"/>
<stop offset="0.529" stop-color="#7BFC79"/>
<stop offset="0.9855" stop-color="#00FFA6"/>
</linearGradient>
<linearGradient id="paint12_linear_2108_61201" x1="45.7391" y1="40.0929" x2="10.9018" y2="46.004" gradientUnits="userSpaceOnUse">
<stop offset="0.0899703" stop-color="#3BEA62"/>
<stop offset="0.1675" stop-color="#67ED5C"/>
<stop offset="0.25" stop-color="#8FF058"/>
<stop offset="0.3382" stop-color="#B1F353"/>
<stop offset="0.4319" stop-color="#CCF550"/>
<stop offset="0.5329" stop-color="#E1F64D"/>
<stop offset="0.6448" stop-color="#F0F74B"/>
<stop offset="0.776" stop-color="#F9F84A"/>
<stop offset="0.9744" stop-color="#FCF84A"/>
</linearGradient>
<linearGradient id="paint13_linear_2108_61201" x1="36.0795" y1="39.2486" x2="43.2774" y2="49.0436" gradientUnits="userSpaceOnUse">
<stop stop-color="#3BEA62"/>
<stop offset="0.0877078" stop-color="#67ED5C"/>
<stop offset="0.1809" stop-color="#8FF058"/>
<stop offset="0.2807" stop-color="#B1F353"/>
<stop offset="0.3866" stop-color="#CCF550"/>
<stop offset="0.5008" stop-color="#E1F64D"/>
<stop offset="0.6273" stop-color="#F0F74B"/>
<stop offset="0.7757" stop-color="#F9F84A"/>
<stop offset="1" stop-color="#FCF84A"/>
</linearGradient>
<linearGradient id="paint14_linear_2108_61201" x1="9.53909" y1="12.2106" x2="38.2593" y2="35.625" gradientUnits="userSpaceOnUse">
<stop stop-color="#1D510B"/>
<stop offset="0.535772"/>
</linearGradient>
<linearGradient id="paint15_linear_2108_61201" x1="33.1837" y1="17.5908" x2="39.6749" y2="20.5294" gradientUnits="userSpaceOnUse">
<stop offset="0.3185" stop-color="#21D789" stop-opacity="0"/>
<stop offset="0.4209" stop-color="#20D68C" stop-opacity="0.2213"/>
<stop offset="0.509" stop-color="#1ED497" stop-opacity="0.4115"/>
<stop offset="0.5917" stop-color="#19D1A9" stop-opacity="0.5903"/>
<stop offset="0.6711" stop-color="#13CCC2" stop-opacity="0.762"/>
<stop offset="0.7476" stop-color="#0BC6E1" stop-opacity="0.9273"/>
<stop offset="0.7813" stop-color="#07C3F2"/>
</linearGradient>
<linearGradient id="paint16_linear_2108_61201" x1="16.4901" y1="16.661" x2="39.047" y2="35.051" gradientUnits="userSpaceOnUse">
<stop offset="0.0268021" stop-color="#FCF84A"/>
<stop offset="0.093679" stop-color="#E5E543"/>
<stop offset="0.3358" stop-color="#94A22C"/>
<stop offset="0.5509" stop-color="#556D19"/>
<stop offset="0.731" stop-color="#27470B"/>
<stop offset="0.8692" stop-color="#0B3003"/>
<stop offset="0.9489" stop-color="#002700"/>
</linearGradient>
<linearGradient id="paint17_linear_2108_61201" x1="24.4666" y1="4.07769" x2="32.0157" y2="24.5046" gradientUnits="userSpaceOnUse">
<stop offset="0.1216" stop-color="#21D789"/>
<stop offset="0.2439" stop-color="#1FCE80"/>
<stop offset="0.4459" stop-color="#18B667"/>
<stop offset="0.7026" stop-color="#0E8E3E"/>
<stop offset="1" stop-color="#005806"/>
</linearGradient>
<linearGradient id="paint18_linear_2108_61201" x1="10" y1="15.8262" x2="16.1577" y2="15.8262" gradientUnits="userSpaceOnUse">
<stop offset="0.0108126" stop-color="#FCF84A"/>
<stop offset="0.0924045" stop-color="#ECF64F"/>
<stop offset="0.2525" stop-color="#C1EF5B"/>
<stop offset="0.4754" stop-color="#7DE56F"/>
<stop offset="0.7466" stop-color="#21D789"/>
</linearGradient>
<linearGradient id="paint19_linear_2108_61201" x1="10.3741" y1="21.7317" x2="19.4259" y2="29.1112" gradientUnits="userSpaceOnUse">
<stop offset="0.0108126" stop-color="#FCF84A"/>
<stop offset="0.0924045" stop-color="#ECF64F"/>
<stop offset="0.2525" stop-color="#C1EF5B"/>
<stop offset="0.4754" stop-color="#7DE56F"/>
<stop offset="0.7466" stop-color="#21D789"/>
</linearGradient>
<clipPath id="clip0_2108_61201">
<rect width="28" height="28" fill="white" transform="translate(10 10)"/>
</clipPath>
</defs>
</svg>
