<!-- Copyright 2000-2024 JetBrains s.r.o. and contributors. Use of this source code is governed by the Apache 2.0 license. -->
<svg width="20" height="20" viewBox="0 0 20 20" fill="none" xmlns="http://www.w3.org/2000/svg">
<g clip-path="url(#clip0_3917_59718)">
<path d="M15.0148 18.182L18.7259 18.1814C19.4288 18.1814 19.9984 17.6116 19.9984 16.9087V13.3129C19.9984 12.9415 19.836 12.5884 19.554 12.3465L7.62859 2.12472C7.39786 1.92709 7.10404 1.81836 6.80022 1.81836H3.08913C2.38622 1.81836 1.81641 2.38818 1.81641 3.09109V6.68745C1.81641 7.0589 1.97877 7.412 2.26077 7.65381L14.186 17.8755C14.4168 18.0733 14.7106 18.1818 15.0146 18.1818L15.0148 18.182Z" fill="#007DFE"/>
<path d="M15.4615 18.1818H18.7261C19.429 18.1818 19.9988 17.612 19.9988 16.9091V12.8176C19.9988 12.7575 19.9944 12.6973 19.9861 12.6376L18.3368 1.09273C18.2472 0.465636 17.7103 0 17.0768 0H12.179C11.4759 0 10.9061 0.57 10.9063 1.27309L10.9077 7.06636C10.9077 7.20309 10.9297 7.33891 10.973 7.46855L14.2541 17.3116C14.4273 17.8313 14.9137 18.1818 15.4615 18.1818Z" fill="url(#paint0_linear_3917_59718)"/>
<path d="M1.27273 20H11.8878C12.3969 20 12.8571 19.6965 13.0576 19.2287L18.0789 7.51291C18.1467 7.35455 18.1818 7.18382 18.1818 7.01145V1.27273C18.1818 0.569818 17.612 0 16.9091 0H11.2947C11.0433 0 10.7975 0.0745455 10.5882 0.214182L0.566727 6.90255C0.212909 7.13873 0.000545455 7.53582 0.000545455 7.96109L0 18.7273C0 19.4302 0.569818 20 1.27273 20Z" fill="url(#paint1_linear_3917_59718)"/>
<path d="M16.6654 3.33398H3.33203V16.6673H16.6654V3.33398Z" fill="black"/>
<path d="M6.11539 8.1817H6.9531L8.02472 10.0617H9.13767L7.95253 8.06779C8.03158 8.04265 8.11558 8.02437 8.18834 7.99065C8.45863 7.85732 8.66605 7.67503 8.81063 7.4396C8.95748 7.20398 9.03101 6.93294 9.03101 6.6217C9.03101 6.31046 8.95863 6.04837 8.81405 5.81732C8.67177 5.58627 8.46796 5.40398 8.20244 5.27522C7.93691 5.14627 7.62986 5.08398 7.28148 5.08398H5.14453V10.0617H6.1152V8.1817H6.11539ZM6.11539 5.89275H7.21767C7.38129 5.89275 7.52339 5.92398 7.64434 5.9817C7.76758 6.04398 7.86244 6.12837 7.92872 6.2396C7.99501 6.35065 8.02834 6.4796 8.02834 6.63065C8.02834 6.7817 7.9952 6.91065 7.92872 7.02627C7.86225 7.13732 7.76758 7.22189 7.64434 7.28398C7.52339 7.34608 7.38129 7.37294 7.21767 7.37294H6.11539V5.89294V5.89275Z" fill="white"/>
<path d="M13.8906 6.29294C13.6796 5.91522 13.3868 5.61732 13.0123 5.40398C12.6401 5.19065 12.2182 5.08398 11.7466 5.08398H9.85156V10.0617H11.7466C12.2182 10.0617 12.6401 9.95503 13.0123 9.7417C13.3868 9.52837 13.6796 9.23503 13.8906 8.85732C14.1015 8.47503 14.207 8.04837 14.207 7.57294C14.207 7.09751 14.1015 6.67065 13.8906 6.29294ZM13.0302 8.45294C12.9093 8.70189 12.7375 8.89275 12.5146 9.0217C12.2918 9.15522 12.0321 9.2217 11.7359 9.2217H10.8222V5.92398H11.7359C12.0321 5.92398 12.2918 5.99065 12.5146 6.12379C12.7375 6.25275 12.9093 6.44398 13.0302 6.69275C13.1512 6.9417 13.2116 7.23484 13.2116 7.57275C13.2116 7.91065 13.1512 8.20379 13.0302 8.45275V8.45294Z" fill="white"/>
<path d="M10 14.166H5V14.9993H10V14.166Z" fill="white"/>
</g>
<defs>
<linearGradient id="paint0_linear_3917_59718" x1="20.223" y1="17.6182" x2="12.4533" y2="0.860181" gradientUnits="userSpaceOnUse">
<stop offset="0.21" stop-color="#007DFE"/>
<stop offset="0.55" stop-color="#FFB700"/>
</linearGradient>
<linearGradient id="paint1_linear_3917_59718" x1="18.6805" y1="1.24418" x2="0.335272" y2="19.5896" gradientUnits="userSpaceOnUse">
<stop offset="0.23" stop-color="#FFB700"/>
<stop offset="0.73" stop-color="#FF0A67"/>
</linearGradient>
<clipPath id="clip0_3917_59718">
<rect width="20" height="20" fill="white"/>
</clipPath>
</defs>
</svg>
