<!-- Copyright 2000-2024 JetBrains s.r.o. and contributors. Use of this source code is governed by the Apache 2.0 license. -->
<svg width="24" height="24" viewBox="0 0 24 24" fill="none" xmlns="http://www.w3.org/2000/svg">
<g clip-path="url(#clip0_3917_59717)">
<path d="M18.0177 21.818L22.471 21.8173C23.3145 21.8173 23.9981 21.1336 23.9981 20.2901V15.9751C23.9981 15.5293 23.8033 15.1056 23.4649 14.8155L9.15431 2.54928C8.87743 2.31211 8.52485 2.18164 8.16027 2.18164H3.70696C2.86347 2.18164 2.17969 2.86542 2.17969 3.70891V8.02455C2.17969 8.47029 2.37452 8.894 2.71292 9.18419L17.0233 21.4501C17.3001 21.6875 17.6527 21.8178 18.0175 21.8178L18.0177 21.818Z" fill="#007DFE"/>
<path d="M18.5562 21.8182H22.4736C23.3171 21.8182 24.0009 21.1344 24.0009 20.2909V15.3812C24.0009 15.3089 23.9957 15.2367 23.9856 15.1652L22.0065 1.31127C21.8989 0.558764 21.2546 0 20.4945 0H14.6171C13.7734 0 13.0896 0.684 13.0898 1.52771L13.0916 8.47964C13.0916 8.64371 13.118 8.80669 13.1699 8.96225L17.1072 20.774C17.3152 21.3975 17.8988 21.8182 18.5562 21.8182Z" fill="url(#paint0_linear_3917_59717)"/>
<path d="M1.52727 24H14.2654C14.8763 24 15.4285 23.6359 15.6692 23.0745L21.6947 9.01549C21.7761 8.82545 21.8182 8.62058 21.8182 8.41375V1.52727C21.8182 0.683782 21.1344 0 20.2909 0H13.5537C13.2519 0 12.9569 0.0894545 12.7058 0.257018L0.680073 8.28305C0.255491 8.56647 0.000654545 9.04298 0.000654545 9.55331L0 22.4727C0 23.3162 0.683782 24 1.52727 24Z" fill="url(#paint1_linear_3917_59717)"/>
<path d="M20 4H4V20H20V4Z" fill="black"/>
<path d="M7.3369 9.81687H8.34216L9.6281 12.0729H10.9636L9.54147 9.68018C9.63633 9.65001 9.73713 9.62807 9.82445 9.58761C10.1488 9.42761 10.3977 9.20887 10.5712 8.92635C10.7474 8.64361 10.8356 8.31835 10.8356 7.94487C10.8356 7.57138 10.7488 7.25687 10.5753 6.97961C10.4046 6.70235 10.16 6.48361 9.84136 6.3291C9.52273 6.17435 9.15428 6.09961 8.73622 6.09961H6.17188V12.0729H7.33667V9.81687H7.3369ZM7.3369 7.07012H8.65965C8.85599 7.07012 9.0265 7.10761 9.17165 7.17687C9.31953 7.25161 9.43336 7.35287 9.5129 7.48635C9.59245 7.61961 9.63245 7.77435 9.63245 7.95561C9.63245 8.13687 9.59267 8.29161 9.5129 8.43035C9.43313 8.56361 9.31953 8.6651 9.17165 8.73961C9.0265 8.81412 8.85599 8.84635 8.65965 8.84635H7.3369V7.07035V7.07012Z" fill="white"/>
<path d="M16.6672 7.55035C16.4139 7.0971 16.0626 6.73961 15.6132 6.48361C15.1666 6.22761 14.6603 6.09961 14.0944 6.09961H11.8203V12.0729H14.0944C14.6603 12.0729 15.1666 11.9449 15.6132 11.6889C16.0626 11.4329 16.4139 11.0809 16.6672 10.6276C16.9202 10.1689 17.0468 9.65687 17.0468 9.08635C17.0468 8.51584 16.9202 8.00361 16.6672 7.55035ZM15.6347 10.1424C15.4896 10.4411 15.2834 10.6701 15.016 10.8249C14.7485 10.9851 14.437 11.0649 14.0816 11.0649H12.9851V7.10761H14.0816C14.437 7.10761 14.7485 7.18761 15.016 7.34738C15.2834 7.50212 15.4896 7.73161 15.6347 8.03012C15.7799 8.32887 15.8523 8.68064 15.8523 9.08612C15.8523 9.49161 15.7799 9.84338 15.6347 10.1421V10.1424Z" fill="white"/>
<path d="M12 17H6V18H12V17Z" fill="white"/>
</g>
<defs>
<linearGradient id="paint0_linear_3917_59717" x1="24.2699" y1="21.1418" x2="14.9464" y2="1.03222" gradientUnits="userSpaceOnUse">
<stop offset="0.21" stop-color="#007DFE"/>
<stop offset="0.55" stop-color="#FFB700"/>
</linearGradient>
<linearGradient id="paint1_linear_3917_59717" x1="22.4167" y1="1.49302" x2="0.402327" y2="23.5076" gradientUnits="userSpaceOnUse">
<stop offset="0.23" stop-color="#FFB700"/>
<stop offset="0.73" stop-color="#FF0A67"/>
</linearGradient>
<clipPath id="clip0_3917_59717">
<rect width="24" height="24" fill="white"/>
</clipPath>
</defs>
</svg>
