<svg width="20" height="20" viewBox="0 0 20 20" fill="none" xmlns="http://www.w3.org/2000/svg">
<path d="M20 7.75L6 0L15.3333 13.9167L17.3333 12.6667L20 7.75Z" fill="url(#paint0_linear_2108_61209)"/>
<path d="M19.9999 7.74998L15.9999 7.99998L15.3333 13.9167L17.3333 12.6667L19.9999 7.74998Z" fill="url(#paint1_linear_2108_61209)"/>
<path d="M12.6667 0.333328L8.75 4.16666L10.3333 18L14.0833 20L20 16.5833L12.6667 0.333328Z" fill="url(#paint2_linear_2108_61209)"/>
<path d="M13.9167 4.41667L10.4167 2.5L8.75 4.16667L11.5 8.16667L15 8L13.9167 4.41667Z" fill="url(#paint3_linear_2108_61209)"/>
<path d="M10.3333 18L17.1667 14.8333L20 16.5833L17.1667 14.8333L12.6667 0.333328L8.75 4.16666L10.3333 18Z" fill="url(#paint4_linear_2108_61209)"/>
<path d="M15 8L9.25 8.33333L9.41667 9.58333L15.3333 13.9167L16.5833 13.0833L15 8Z" fill="url(#paint5_linear_2108_61209)"/>
<path d="M12.6665 0.333328L17.1665 14.8333L19.9998 16.5833L12.6665 0.333328Z" fill="url(#paint6_linear_2108_61209)"/>
<path d="M16.5833 13.0833L17.3333 12.6667L17.8333 11.75L16.1667 8H16L15.75 10.3333L16.5833 13.0833Z" fill="url(#paint7_linear_2108_61209)"/>
<path d="M17.1666 14.8333L10.3333 18L14.0833 20L19.9999 16.5833L17.1666 14.8333Z" fill="url(#paint8_linear_2108_61209)"/>
<path d="M10.3333 18L14.0833 20L12.9166 16.8333L10.3333 18Z" fill="url(#paint9_linear_2108_61209)"/>
<path d="M6 0L0 4L2.25 17.75L7.91667 20L15.3333 13.9167L6 0Z" fill="url(#paint10_linear_2108_61209)"/>
<path d="M6 0L0 4L4.08333 4.58333L6 0Z" fill="url(#paint11_linear_2108_61209)"/>
<path d="M6 0L0 4L4.08333 4.58333L6 0Z" fill="url(#paint12_linear_2108_61209)"/>
<path d="M5.5 8.33332L0 3.99998L4.08333 4.58332L5.5 8.33332Z" fill="url(#paint13_linear_2108_61209)"/>
<path d="M7.75 14.1667L2.25 17.75L7.91667 20L15.3333 13.9167L7.75 14.1667Z" fill="url(#paint14_linear_2108_61209)"/>
<path d="M7.74992 14.1667L4.08325 4.58333L5.99992 0L15.3333 13.9167L7.74992 14.1667Z" fill="url(#paint15_linear_2108_61209)"/>
<path d="M6.08333 7.5L6 0L8.75 4.16667L6.08333 7.5Z" fill="url(#paint16_linear_2108_61209)"/>
<path d="M10.3333 18L15.3333 13.9167L8.74992 4.16667L2.08325 10.8333L10.3333 18Z" fill="url(#paint17_linear_2108_61209)"/>
<path d="M6.75 14.9167L2.25 17.75L7.91667 20L10.3333 18L6.75 14.9167Z" fill="url(#paint18_linear_2108_61209)"/>
<path d="M16.6666 3.33333H3.33325V16.6667H16.6666V3.33333Z" fill="url(#paint19_linear_2108_61209)"/>
<g opacity="0.3">
<g opacity="0.3">
<path opacity="0.3" d="M16.4167 16.6667H16.6667V13.8333L14.75 16.6667H16.4167Z" fill="#231F20"/>
<path opacity="0.3" d="M11.8333 3.33333H4.66659L3.58325 6.41666L16.0833 13.3333L3.66659 6.49999L3.33325 6.58333V9.33333L10.8333 12.4167L16.6666 13.6667V13.5833V9.33333L11.8333 3.33333Z" fill="url(#paint20_linear_2108_61209)"/>
<path opacity="0.3" d="M4.66659 3.33331L3.58325 6.41665L16.6666 13.5833V9.33331L11.8333 3.33331H4.66659Z" fill="url(#paint21_linear_2108_61209)"/>
<path opacity="0.3" d="M3.33325 3.33333V6.83333L3.66659 6.49999L4.66659 3.33333H3.33325Z" fill="#F9ED32"/>
</g>
<path opacity="0.3" d="M3.33325 6.5833V9.3333L10.8333 12.4166L16.6666 13.6666V13.5833L3.66659 6.49997L3.33325 6.5833Z" fill="url(#paint22_linear_2108_61209)"/>
<path opacity="0.3" d="M3.33325 8.8333L11.9166 11L3.66659 6.49997L3.33325 6.5833V8.8333Z" fill="url(#paint23_linear_2108_61209)"/>
<path opacity="0.3" d="M8.58341 16.6666L10.8334 12.4166L5.41675 16.6666H8.58341Z" fill="url(#paint24_linear_2108_61209)"/>
<path opacity="0.3" d="M3.33325 11.3333L3.58325 10.3333L3.33325 10.4166V11.3333Z" fill="#F7941D"/>
<path opacity="0.3" d="M3.33325 10.4167L3.58325 10.3333L3.33325 11.3333V16.6667H5.41659L10.8333 12.4167L3.33325 9.33333V10.4167Z" fill="url(#paint25_linear_2108_61209)"/>
<path opacity="0.3" d="M8.5835 16.6666H14.7502L16.6668 13.8333V13.6666L10.8335 12.4166L8.5835 16.6666Z" fill="url(#paint26_linear_2108_61209)"/>
<g opacity="0.3">
<path opacity="0.3" d="M15.8333 8.24998L16.6666 7.74998V3.33331H11.8333L15.8333 8.24998Z" fill="url(#paint27_linear_2108_61209)"/>
</g>
</g>
<path d="M16.6666 3.33333H3.33325V16.6667H16.6666V3.33333Z" fill="url(#paint28_linear_2108_61209)"/>
<path d="M9.97851 14.1505H4.98926V14.9892H9.97851V14.1505Z" fill="white"/>
<path d="M5 5.00003H7.33333C8 5.00003 8.5 5.1667 8.83333 5.50003C9 5.75003 9.16667 6.1667 9.16667 6.6667C9.16667 7.50003 8.75 8.00003 8.08333 8.25003L9.33333 10H8L7 8.4167H6.16667V10H5V5.00003ZM7.25 7.4167C7.75 7.4167 8.08333 7.1667 8.08333 6.6667C8.08333 6.1667 7.75 5.9167 7.25 5.9167H6.08333V7.4167H7.25Z" fill="white"/>
<path d="M10.0835 5.00002H12.0002C13.5835 5.00002 14.6668 6.08335 14.6668 7.50002C14.6668 8.91668 13.5835 10 12.0002 10H10.0835V5.00002ZM11.1668 6.00002V9.00002H12.0002C12.9168 9.00002 13.5002 8.41668 13.5002 7.50002C13.5002 6.58335 12.9168 6.00002 12.0002 6.00002H11.1668V6.00002Z" fill="white"/>
<defs>
<linearGradient id="paint0_linear_2108_61209" x1="18.7142" y1="11.4574" x2="3.29775" y2="2.6105" gradientUnits="userSpaceOnUse">
<stop stop-color="#DD1265"/>
<stop offset="0.4834" stop-color="#DD1265"/>
<stop offset="0.9424" stop-color="#FDB60D"/>
</linearGradient>
<linearGradient id="paint1_linear_2108_61209" x1="18.3012" y1="11.1998" x2="15.0023" y2="9.30665" gradientUnits="userSpaceOnUse">
<stop stop-color="#DD1265"/>
<stop offset="0.9424" stop-color="#A7004D"/>
</linearGradient>
<linearGradient id="paint2_linear_2108_61209" x1="9.54733" y1="1.74641" x2="15.6584" y2="18.6213" gradientUnits="userSpaceOnUse">
<stop offset="0.1392" stop-color="#087CFA"/>
<stop offset="0.4757" stop-color="#DD1265"/>
<stop offset="0.9581" stop-color="#0855FA"/>
</linearGradient>
<linearGradient id="paint3_linear_2108_61209" x1="14.512" y1="2.7345" x2="12.3836" y2="5.45883" gradientUnits="userSpaceOnUse">
<stop offset="0.2971" stop-color="#DD1265" stop-opacity="0.96"/>
<stop offset="1" stop-color="#FF318C" stop-opacity="0"/>
</linearGradient>
<linearGradient id="paint4_linear_2108_61209" x1="17.3929" y1="7.83033" x2="14.6118" y2="9.41958" gradientUnits="userSpaceOnUse">
<stop offset="0.0490531" stop-color="#46DBFF" stop-opacity="0.96"/>
<stop offset="0.2971" stop-color="#008DFF" stop-opacity="0.96"/>
<stop offset="0.603" stop-color="#447DFF" stop-opacity="0.2533"/>
<stop offset="0.7127" stop-color="#5D77FF" stop-opacity="0"/>
</linearGradient>
<linearGradient id="paint5_linear_2108_61209" x1="15.1336" y1="5.7845" x2="12.9981" y2="10.539" gradientUnits="userSpaceOnUse">
<stop stop-color="#0855FA"/>
<stop offset="0.9424" stop-color="#DD1265" stop-opacity="0"/>
</linearGradient>
<linearGradient id="paint6_linear_2108_61209" x1="13.0508" y1="0.457828" x2="18.7677" y2="16.2442" gradientUnits="userSpaceOnUse">
<stop offset="0.00724206" stop-color="#0861FA"/>
<stop offset="0.3721" stop-color="#5E51BE"/>
<stop offset="1" stop-color="#B72580"/>
</linearGradient>
<linearGradient id="paint7_linear_2108_61209" x1="18.9691" y1="11.2615" x2="14.6578" y2="10.093" gradientUnits="userSpaceOnUse">
<stop stop-color="#DD1265"/>
<stop offset="0.9424" stop-color="#A7004D" stop-opacity="0"/>
</linearGradient>
<linearGradient id="paint8_linear_2108_61209" x1="9.96934" y1="15.214" x2="18.5682" y2="18.5769" gradientUnits="userSpaceOnUse">
<stop offset="0.3285" stop-color="#083DFA"/>
<stop offset="0.8559" stop-color="#0062FC"/>
</linearGradient>
<linearGradient id="paint9_linear_2108_61209" x1="14.2385" y1="17.415" x2="10.5267" y2="20.3719" gradientUnits="userSpaceOnUse">
<stop offset="0.2194" stop-color="#0855FA"/>
<stop offset="1" stop-color="#07A3F4"/>
</linearGradient>
<linearGradient id="paint10_linear_2108_61209" x1="-2.0955" y1="3.2" x2="8.1635" y2="12.6076" gradientUnits="userSpaceOnUse">
<stop offset="0.2775" stop-color="#DD1265"/>
<stop offset="0.9684" stop-color="#FDB60D"/>
</linearGradient>
<linearGradient id="paint11_linear_2108_61209" x1="2.60992" y1="0.604083" x2="4.07817" y2="6.05758" gradientUnits="userSpaceOnUse">
<stop offset="0.2301" stop-color="#DD1265"/>
<stop offset="0.8122" stop-color="#F3802A"/>
</linearGradient>
<linearGradient id="paint12_linear_2108_61209" x1="2.55825" y1="6.88825" x2="3.11158" y2="0.630667" gradientUnits="userSpaceOnUse">
<stop offset="0.2973" stop-color="#FFA149" stop-opacity="0.96"/>
<stop offset="0.5961" stop-color="#EF5D56" stop-opacity="0.4888"/>
<stop offset="0.906" stop-color="#DD1265" stop-opacity="0"/>
</linearGradient>
<linearGradient id="paint13_linear_2108_61209" x1="8.46667" y1="4.78207" x2="-1.02608" y2="7.08082" gradientUnits="userSpaceOnUse">
<stop offset="0.2535" stop-color="#F3A309"/>
<stop offset="0.8544" stop-color="#DD1265"/>
</linearGradient>
<linearGradient id="paint14_linear_2108_61209" x1="8.00158" y1="13.0403" x2="9.77358" y2="19.3379" gradientUnits="userSpaceOnUse">
<stop stop-color="#DD1265"/>
<stop offset="0.7086" stop-color="#FDB60D"/>
<stop offset="0.9966" stop-color="#FDD800"/>
</linearGradient>
<linearGradient id="paint15_linear_2108_61209" x1="3.2515" y1="5.499" x2="15.5963" y2="10.9903" gradientUnits="userSpaceOnUse">
<stop offset="0.2775" stop-color="#DD1265"/>
<stop offset="0.9684" stop-color="#FDB60D"/>
</linearGradient>
<linearGradient id="paint16_linear_2108_61209" x1="4.52542" y1="3.08142" x2="8.15267" y2="4.69492" gradientUnits="userSpaceOnUse">
<stop offset="0.00397648" stop-color="#FC4B57"/>
<stop offset="0.9603" stop-color="#FC801D" stop-opacity="0"/>
</linearGradient>
<linearGradient id="paint17_linear_2108_61209" x1="10.2758" y1="2.67384" x2="8.275" y2="15.3593" gradientUnits="userSpaceOnUse">
<stop offset="0.0257838" stop-color="#6B57FF" stop-opacity="0.6"/>
<stop offset="0.3698" stop-color="#DD1265"/>
<stop offset="0.9603" stop-color="#DD1265" stop-opacity="0"/>
</linearGradient>
<linearGradient id="paint18_linear_2108_61209" x1="11.8513" y1="18.3304" x2="5.897" y2="17.1287" gradientUnits="userSpaceOnUse">
<stop offset="0.00397648" stop-color="#F26522"/>
<stop offset="0.9603" stop-color="#FF45ED" stop-opacity="0"/>
</linearGradient>
<linearGradient id="paint19_linear_2108_61209" x1="3.1275" y1="4.39716" x2="16.7765" y2="15.5247" gradientUnits="userSpaceOnUse">
<stop stop-color="#521713"/>
<stop offset="0.080028" stop-color="#451310"/>
<stop offset="0.2989" stop-color="#270B09"/>
<stop offset="0.514" stop-color="#110504"/>
<stop offset="0.7218" stop-color="#040101"/>
<stop offset="0.9138"/>
</linearGradient>
<linearGradient id="paint20_linear_2108_61209" x1="3.33325" y1="8.49166" x2="16.6666" y2="8.49166" gradientUnits="userSpaceOnUse">
<stop offset="0.2464" stop-color="#FE2857"/>
<stop offset="0.292" stop-color="#FE265F"/>
<stop offset="0.3641" stop-color="#FE1F76"/>
<stop offset="0.4534" stop-color="#FF159B"/>
<stop offset="0.4574" stop-color="#FF149D"/>
<stop offset="0.536" stop-color="#EF1AB2"/>
<stop offset="0.6983" stop-color="#C82BE9"/>
<stop offset="0.7574" stop-color="#B831FF"/>
<stop offset="0.811" stop-color="#A33AFE"/>
<stop offset="0.9215" stop-color="#6C52FD"/>
<stop offset="1" stop-color="#4164FC"/>
</linearGradient>
<linearGradient id="paint21_linear_2108_61209" x1="3.606" y1="8.47648" x2="16.6666" y2="8.47648" gradientUnits="userSpaceOnUse">
<stop offset="0.1118" stop-color="#F7941D"/>
<stop offset="0.1374" stop-color="#F88C25"/>
<stop offset="0.178" stop-color="#F9753A"/>
<stop offset="0.2284" stop-color="#FB505D"/>
<stop offset="0.2863" stop-color="#FF1C8C"/>
<stop offset="0.2928" stop-color="#FF1692"/>
<stop offset="0.4031" stop-color="#EA1A93"/>
<stop offset="0.4677" stop-color="#DB1D93"/>
<stop offset="0.5543" stop-color="#9F2895"/>
<stop offset="0.7229" stop-color="#21409A"/>
<stop offset="0.8671" stop-color="#222F5C"/>
<stop offset="1" stop-color="#231F20"/>
</linearGradient>
<linearGradient id="paint22_linear_2108_61209" x1="3.33325" y1="10.0796" x2="16.6666" y2="10.0796" gradientUnits="userSpaceOnUse">
<stop offset="0.0878508" stop-color="#FE2857"/>
<stop offset="0.1283" stop-color="#FE265F"/>
<stop offset="0.1923" stop-color="#FE1F76"/>
<stop offset="0.2716" stop-color="#FF159B"/>
<stop offset="0.2751" stop-color="#FF149D"/>
<stop offset="0.4167" stop-color="#B21871"/>
<stop offset="0.5427" stop-color="#741B4E"/>
<stop offset="0.6489" stop-color="#481D35"/>
<stop offset="0.731" stop-color="#2D1E26"/>
<stop offset="0.7791" stop-color="#231F20"/>
</linearGradient>
<linearGradient id="paint23_linear_2108_61209" x1="4.62392" y1="8.24639" x2="9.84533" y2="11.1507" gradientUnits="userSpaceOnUse">
<stop offset="0.00629908" stop-color="#FF45ED"/>
<stop offset="0.1766" stop-color="#FF35D8"/>
<stop offset="0.3352" stop-color="#FF24C0"/>
<stop offset="0.451" stop-color="#EA24B0"/>
<stop offset="0.6916" stop-color="#B22388"/>
<stop offset="1" stop-color="#63214F"/>
</linearGradient>
<linearGradient id="paint24_linear_2108_61209" x1="5.42791" y1="14.5331" x2="10.8602" y2="14.5331" gradientUnits="userSpaceOnUse">
<stop offset="0.4574" stop-color="#FF149D"/>
<stop offset="0.536" stop-color="#EF1AB2"/>
<stop offset="0.6983" stop-color="#C82BE9"/>
<stop offset="0.7574" stop-color="#B831FF"/>
<stop offset="0.8388" stop-color="#A33AFE"/>
<stop offset="1" stop-color="#6E51FD"/>
</linearGradient>
<linearGradient id="paint25_linear_2108_61209" x1="3.33325" y1="13.0182" x2="10.86" y2="13.0182" gradientUnits="userSpaceOnUse">
<stop offset="0.00442798" stop-color="#FFDE17"/>
<stop offset="0.0386836" stop-color="#FECB12"/>
<stop offset="0.0790912" stop-color="#FDBB0E"/>
<stop offset="0.1111" stop-color="#FDB60D"/>
<stop offset="0.1673" stop-color="#FDAE0F"/>
<stop offset="0.2521" stop-color="#FC9A15"/>
<stop offset="0.3323" stop-color="#FC801D"/>
<stop offset="0.7374" stop-color="#BE1E2D"/>
</linearGradient>
<linearGradient id="paint26_linear_2108_61209" x1="8.58625" y1="14.5331" x2="16.6668" y2="14.5331" gradientUnits="userSpaceOnUse">
<stop stop-color="#087CFA"/>
<stop offset="0.7942" stop-color="#231F20"/>
</linearGradient>
<linearGradient id="paint27_linear_2108_61209" x1="22.1073" y1="16.0264" x2="13.6109" y2="2.26781" gradientUnits="userSpaceOnUse">
<stop offset="0.3486" stop-color="#3595F3"/>
<stop offset="0.4019" stop-color="#3490EB"/>
<stop offset="0.4865" stop-color="#3284D4"/>
<stop offset="0.5918" stop-color="#2F6FAE"/>
<stop offset="0.7135" stop-color="#2B527B"/>
<stop offset="0.8476" stop-color="#252D39"/>
<stop offset="0.8951" stop-color="#231F20"/>
</linearGradient>
<linearGradient id="paint28_linear_2108_61209" x1="3.11499" y1="3.11506" x2="15.6869" y2="15.6869" gradientUnits="userSpaceOnUse">
<stop offset="0.0284813" stop-color="#5A1F3A"/>
<stop offset="0.0797561" stop-color="#4E1B32"/>
<stop offset="0.2774" stop-color="#260D18"/>
<stop offset="0.3795" stop-color="#16080E"/>
<stop offset="0.3907" stop-color="#15080E"/>
<stop offset="0.6833" stop-color="#060204"/>
<stop offset="0.9138"/>
</linearGradient>
</defs>
</svg>
