<!-- Copyright 2000-2024 JetBrains s.r.o. and contributors. Use of this source code is governed by the Apache 2.0 license. -->
<svg width="48" height="48" viewBox="0 0 48 48" fill="none" xmlns="http://www.w3.org/2000/svg">
<g clip-path="url(#clip0_3917_59716)">
<path d="M36.0394 43.636L44.946 43.6347C46.633 43.6347 48.0001 42.2671 48.0001 40.5802V31.9502C48.0001 31.0587 47.6104 30.2113 46.9336 29.6309L18.3125 5.09855C17.7588 4.62423 17.0536 4.36328 16.3244 4.36328H7.41783C5.73085 4.36328 4.36328 5.73084 4.36328 7.41783V16.0491C4.36328 16.9406 4.75295 17.788 5.42975 18.3684L34.0504 42.9003C34.6042 43.3751 35.3093 43.6356 36.0389 43.6356L36.0394 43.636Z" fill="#007DFE"/>
<path d="M37.1123 43.6364H44.9473C46.6342 43.6364 48.0018 42.2688 48.0018 40.5818V30.7623C48.0018 30.6179 47.9913 30.4735 47.9713 30.3303L44.013 2.62255C43.7979 1.11753 42.5093 0 40.989 0H29.2342C27.5468 0 26.1793 1.368 26.1797 3.05542L26.1832 16.9593C26.1832 17.2874 26.236 17.6134 26.3398 17.9245L34.2145 41.5479C34.6303 42.7951 35.7976 43.6364 37.1123 43.6364Z" fill="url(#paint0_linear_3917_59716)"/>
<path d="M3.05455 48H28.5308C29.7526 48 30.857 47.2717 31.3383 46.1489L43.3894 18.031C43.5521 17.6509 43.6364 17.2412 43.6364 16.8275V3.05455C43.6364 1.36756 42.2688 0 40.5818 0H27.1073C26.5039 0 25.9139 0.178909 25.4116 0.514036L1.36015 16.5661C0.510982 17.1329 0.00130909 18.086 0.00130909 19.1066L0 44.9455C0 46.6324 1.36756 48 3.05455 48Z" fill="url(#paint1_linear_3917_59716)"/>
<path d="M39 9H9V39H39V9Z" fill="black"/>
<path d="M25 33H13V35.0001H25V33Z" fill="white"/>
<path d="M15.2193 19.8442H17.0702L19.4378 23.998H21.8968L19.2783 19.5926C19.453 19.537 19.6386 19.4966 19.7993 19.4221C20.3965 19.1275 20.8548 18.7248 21.1743 18.2046C21.4987 17.684 21.6612 17.0852 21.6612 16.3975C21.6612 15.7098 21.5012 15.1307 21.1818 14.6203C20.8675 14.1098 20.4171 13.707 19.8305 13.4225C19.2438 13.1376 18.5654 13 17.7957 13H13.0742V23.998H15.2189V19.8442H15.2193ZM15.2193 14.7869H17.6547C18.0162 14.7869 18.3302 14.8559 18.5974 14.9834C18.8697 15.1211 19.0793 15.3075 19.2257 15.5533C19.3722 15.7986 19.4458 16.0835 19.4458 16.4173C19.4458 16.751 19.3726 17.0359 19.2257 17.2914C19.0789 17.5367 18.8697 17.7236 18.5974 17.8608C18.3302 17.998 18.0162 18.0573 17.6547 18.0573H15.2193V14.7873V14.7869Z" fill="white"/>
<path d="M32.3967 15.6711C31.9304 14.8366 31.2836 14.1784 30.4562 13.707C29.6338 13.2357 28.7017 13 27.6597 13H23.4727V23.998H27.6597C28.7017 23.998 29.6338 23.7623 30.4562 23.291C31.2836 22.8196 31.9304 22.1715 32.3967 21.337C32.8626 20.4923 33.0957 19.5496 33.0957 18.4992C33.0957 17.4488 32.8626 16.5057 32.3967 15.6711ZM30.4957 20.4435C30.2285 20.9936 29.8489 21.4152 29.3565 21.7002C28.8641 21.9952 28.2905 22.142 27.6361 22.142H25.6173V14.8559H27.6361C28.2905 14.8559 28.8641 15.0032 29.3565 15.2974C29.8489 15.5823 30.2285 16.0048 30.4957 16.5545C30.763 17.1045 30.8964 17.7522 30.8964 18.4988C30.8964 19.2454 30.763 19.893 30.4957 20.4431V20.4435Z" fill="white"/>
</g>
<defs>
<linearGradient id="paint0_linear_3917_59716" x1="48.5398" y1="42.2836" x2="29.8927" y2="2.06444" gradientUnits="userSpaceOnUse">
<stop offset="0.21" stop-color="#007DFE"/>
<stop offset="0.55" stop-color="#FFB700"/>
</linearGradient>
<linearGradient id="paint1_linear_3917_59716" x1="44.8333" y1="2.98604" x2="0.804654" y2="47.0151" gradientUnits="userSpaceOnUse">
<stop offset="0.23" stop-color="#FFB700"/>
<stop offset="0.73" stop-color="#FF0A67"/>
</linearGradient>
<clipPath id="clip0_3917_59716">
<rect width="48" height="48" fill="white"/>
</clipPath>
</defs>
</svg>
