<svg width="48" height="48" viewBox="0 0 48 48" fill="none" xmlns="http://www.w3.org/2000/svg">
<path d="M46.5 19L15 1.5L36.1 32.9L40.4 30L46.5 19Z" fill="url(#paint0_linear_2108_61207)"/>
<path d="M46.5 19L37.5 19.5L36 32.8L40.4 30L46.5 19Z" fill="url(#paint1_linear_2108_61207)"/>
<path d="M30 2.2L21.2 10.8L24.7999 42L33.2999 46.5L46.5 38.8L30 2.2Z" fill="url(#paint2_linear_2108_61207)"/>
<path d="M32.7999 11.4L25 7.10001L21.2 10.8L27.4 19.9L35.2999 19.5L32.7999 11.4Z" fill="url(#paint3_linear_2108_61207)"/>
<path d="M24.7999 42L40.0999 34.9L46.5 38.8L40.0999 34.9L30 2.2L21.2 10.8L24.7999 42Z" fill="url(#paint4_linear_2108_61207)"/>
<path d="M35.3 19.5L22.3 20.2L22.6 23.1L36 32.8L38.9001 31L35.3 19.5Z" fill="url(#paint5_linear_2108_61207)"/>
<path d="M30 2.2L40.1 34.9L46.5 38.8L30 2.2Z" fill="url(#paint6_linear_2108_61207)"/>
<path d="M38.8999 31L40.3999 30L41.5999 27.9L37.7999 19.5H37.4999L36.8999 24.7L38.8999 31Z" fill="url(#paint7_linear_2108_61207)"/>
<path d="M40.1 34.9L24.8 42L33.3 46.5L46.5 38.8L40.1 34.9Z" fill="url(#paint8_linear_2108_61207)"/>
<path d="M24.8 42L33.3 46.5L30.6 39.3L24.8 42Z" fill="url(#paint9_linear_2108_61207)"/>
<path d="M15 1.5L1.5 10.6L6.5 41.5L19.4 46.4L36.1 32.9L15 1.5Z" fill="url(#paint10_linear_2108_61207)"/>
<path d="M15 1.5L1.5 10.6L10.7 11.9L15 1.5Z" fill="url(#paint11_linear_2108_61207)"/>
<path d="M15 1.5L1.5 10.6L10.7 11.9L15 1.5Z" fill="url(#paint12_linear_2108_61207)"/>
<path d="M13.8 20.2L1.5 10.6L10.7 11.9L13.8 20.2Z" fill="url(#paint13_linear_2108_61207)"/>
<path d="M18.9 33.4L6.5 41.5L19.4 46.4L36.1 32.9L18.9 33.4Z" fill="url(#paint14_linear_2108_61207)"/>
<path d="M18.9 33.4L10.7 11.9L15 1.5L36.0999 32.9L18.9 33.4Z" fill="url(#paint15_linear_2108_61207)"/>
<path d="M15.2 18.4L15 1.5L21.1 10.8L15.2 18.4Z" fill="url(#paint16_linear_2108_61207)"/>
<path d="M24.8 42L36.1 32.9L21.2 10.8L6.30005 25.9L24.8 42Z" fill="url(#paint17_linear_2108_61207)"/>
<path d="M16.7 35L6.5 41.5L19.4 46.4L24.8 42L16.7 35Z" fill="url(#paint18_linear_2108_61207)"/>
<path d="M38 10H10V38H38V10Z" fill="url(#paint19_linear_2108_61207)"/>
<g opacity="0.3">
<path opacity="0.3" d="M36 32.8L38 31.5V14.3L30.2 10H20.7L36 32.8Z" fill="url(#paint20_linear_2108_61207)"/>
<path opacity="0.3" d="M10 38H29.6L36 32.8L20.7 10H10V38Z" fill="url(#paint21_linear_2108_61207)"/>
<path opacity="0.3" d="M16.7 34.9L11.8 38H20.3L16.7 34.9Z" fill="url(#paint22_linear_2108_61207)"/>
<path opacity="0.3" d="M10 29L20.3 38H38V20.1L33.4 10H22.1L21.2 10.8L10 22.1V29Z" fill="url(#paint23_linear_2108_61207)"/>
<path opacity="0.3" d="M32.3 10L38 28.3V20.1L33.4 10H32.3Z" fill="url(#paint24_linear_2108_61207)"/>
</g>
<path d="M24 32.7H13.5V34.4H24V32.7Z" fill="white"/>
<path d="M13.5 13.4001H18.3453C19.6575 13.4001 20.7679 13.8039 21.4745 14.5105C22.0802 15.1162 22.383 15.9237 22.383 16.9332C22.383 18.6492 21.4745 19.7596 20.0613 20.2643L22.6858 24.1001H19.9604L17.6387 20.6681H15.8217V23.9992H13.5V13.4001ZM18.2443 18.5483C19.3547 18.5483 20.0613 17.9426 20.0613 17.0341C20.0613 16.0247 19.3547 15.52 18.2443 15.52H15.8217V18.5483H18.2443Z" fill="white"/>
<path d="M24.3008 13.4001H28.4395C31.7706 13.4001 34.0923 15.7218 34.0923 18.6492C34.0923 21.6775 31.7706 23.9992 28.4395 23.9992H24.3008V13.4001V13.4001ZM26.6225 15.52V21.8794H28.4395C30.3574 21.8794 31.6696 20.5671 31.6696 18.7501C31.6696 16.8322 30.3574 15.52 28.4395 15.52H26.6225V15.52Z" fill="white"/>
<defs>
<linearGradient id="paint0_linear_2108_61207" x1="43.607" y1="27.2793" x2="8.9199" y2="7.3736" gradientUnits="userSpaceOnUse">
<stop stop-color="#DD1265"/>
<stop offset="0.4834" stop-color="#DD1265"/>
<stop offset="0.9424" stop-color="#FDB60D"/>
</linearGradient>
<linearGradient id="paint1_linear_2108_61207" x1="42.6779" y1="26.6996" x2="35.2552" y2="22.44" gradientUnits="userSpaceOnUse">
<stop stop-color="#DD1265"/>
<stop offset="0.9424" stop-color="#A7004D"/>
</linearGradient>
<linearGradient id="paint2_linear_2108_61207" x1="22.9815" y1="5.4293" x2="36.7315" y2="43.3981" gradientUnits="userSpaceOnUse">
<stop offset="0.1392" stop-color="#087CFA"/>
<stop offset="0.4757" stop-color="#DD1265"/>
<stop offset="0.9581" stop-color="#0855FA"/>
</linearGradient>
<linearGradient id="paint3_linear_2108_61207" x1="34.1519" y1="7.65251" x2="29.3629" y2="13.7824" gradientUnits="userSpaceOnUse">
<stop offset="0.2971" stop-color="#DD1265" stop-opacity="0.96"/>
<stop offset="1" stop-color="#FF318C" stop-opacity="0"/>
</linearGradient>
<linearGradient id="paint4_linear_2108_61207" x1="40.6342" y1="19.1183" x2="34.3766" y2="22.6941" gradientUnits="userSpaceOnUse">
<stop offset="0.0490531" stop-color="#46DBFF" stop-opacity="0.96"/>
<stop offset="0.2971" stop-color="#008DFF" stop-opacity="0.96"/>
<stop offset="0.603" stop-color="#447DFF" stop-opacity="0.2533"/>
<stop offset="0.7127" stop-color="#5D77FF" stop-opacity="0"/>
</linearGradient>
<linearGradient id="paint5_linear_2108_61207" x1="35.5507" y1="14.5151" x2="30.7459" y2="25.2127" gradientUnits="userSpaceOnUse">
<stop stop-color="#0855FA"/>
<stop offset="0.9424" stop-color="#DD1265" stop-opacity="0"/>
</linearGradient>
<linearGradient id="paint6_linear_2108_61207" x1="30.8645" y1="2.53" x2="43.7276" y2="38.0495" gradientUnits="userSpaceOnUse">
<stop offset="0.00724206" stop-color="#0861FA"/>
<stop offset="0.3721" stop-color="#5E51BE"/>
<stop offset="1" stop-color="#B72580"/>
</linearGradient>
<linearGradient id="paint7_linear_2108_61207" x1="44.1803" y1="26.8383" x2="34.4799" y2="24.2093" gradientUnits="userSpaceOnUse">
<stop stop-color="#DD1265"/>
<stop offset="0.9424" stop-color="#A7004D" stop-opacity="0"/>
</linearGradient>
<linearGradient id="paint8_linear_2108_61207" x1="23.9311" y1="35.7315" x2="43.2785" y2="43.298" gradientUnits="userSpaceOnUse">
<stop offset="0.3285" stop-color="#083DFA"/>
<stop offset="0.8559" stop-color="#0062FC"/>
</linearGradient>
<linearGradient id="paint9_linear_2108_61207" x1="33.5367" y1="40.6838" x2="25.1851" y2="47.3367" gradientUnits="userSpaceOnUse">
<stop offset="0.2194" stop-color="#0855FA"/>
<stop offset="1" stop-color="#07A3F4"/>
</linearGradient>
<linearGradient id="paint10_linear_2108_61207" x1="-3.2149" y1="8.6999" x2="19.8678" y2="29.8671" gradientUnits="userSpaceOnUse">
<stop offset="0.2775" stop-color="#DD1265"/>
<stop offset="0.9684" stop-color="#FDB60D"/>
</linearGradient>
<linearGradient id="paint11_linear_2108_61207" x1="7.3723" y1="2.8593" x2="10.6758" y2="15.1295" gradientUnits="userSpaceOnUse">
<stop offset="0.2301" stop-color="#DD1265"/>
<stop offset="0.8122" stop-color="#F3802A"/>
</linearGradient>
<linearGradient id="paint12_linear_2108_61207" x1="7.256" y1="16.9986" x2="8.5012" y2="2.9191" gradientUnits="userSpaceOnUse">
<stop offset="0.2973" stop-color="#FFA149" stop-opacity="0.96"/>
<stop offset="0.5961" stop-color="#EF5D56" stop-opacity="0.4888"/>
<stop offset="0.906" stop-color="#DD1265" stop-opacity="0"/>
</linearGradient>
<linearGradient id="paint13_linear_2108_61207" x1="20.55" y1="12.2597" x2="-0.8087" y2="17.4318" gradientUnits="userSpaceOnUse">
<stop offset="0.2535" stop-color="#F3A309"/>
<stop offset="0.8544" stop-color="#DD1265"/>
</linearGradient>
<linearGradient id="paint14_linear_2108_61207" x1="19.5035" y1="30.8406" x2="23.4906" y2="45.0103" gradientUnits="userSpaceOnUse">
<stop stop-color="#DD1265"/>
<stop offset="0.7086" stop-color="#FDB60D"/>
<stop offset="0.9966" stop-color="#FDD800"/>
</linearGradient>
<linearGradient id="paint15_linear_2108_61207" x1="8.81605" y1="13.8727" x2="36.592" y2="26.2282" gradientUnits="userSpaceOnUse">
<stop offset="0.2775" stop-color="#DD1265"/>
<stop offset="0.9684" stop-color="#FDB60D"/>
</linearGradient>
<linearGradient id="paint16_linear_2108_61207" x1="11.6822" y1="8.4332" x2="19.8435" y2="12.0636" gradientUnits="userSpaceOnUse">
<stop offset="0.00397648" stop-color="#FC4B57"/>
<stop offset="0.9603" stop-color="#FC801D" stop-opacity="0"/>
</linearGradient>
<linearGradient id="paint17_linear_2108_61207" x1="24.6206" y1="7.5162" x2="20.119" y2="36.0583" gradientUnits="userSpaceOnUse">
<stop offset="0.0257838" stop-color="#6B57FF" stop-opacity="0.6"/>
<stop offset="0.3698" stop-color="#DD1265"/>
<stop offset="0.9603" stop-color="#DD1265" stop-opacity="0"/>
</linearGradient>
<linearGradient id="paint18_linear_2108_61207" x1="28.1656" y1="42.7435" x2="14.7683" y2="40.0394" gradientUnits="userSpaceOnUse">
<stop offset="0.00397648" stop-color="#F26522"/>
<stop offset="0.9603" stop-color="#FF45ED" stop-opacity="0"/>
</linearGradient>
<linearGradient id="paint19_linear_2108_61207" x1="9.54164" y1="9.54164" x2="35.9426" y2="35.9426" gradientUnits="userSpaceOnUse">
<stop offset="0.0284813" stop-color="#5A1F3A"/>
<stop offset="0.0797561" stop-color="#4E1B32"/>
<stop offset="0.2774" stop-color="#260D18"/>
<stop offset="0.3795" stop-color="#16080E"/>
<stop offset="0.3907" stop-color="#15080E"/>
<stop offset="0.6833" stop-color="#060204"/>
<stop offset="0.9138"/>
</linearGradient>
<linearGradient id="paint20_linear_2108_61207" x1="42.0388" y1="26.4362" x2="17.4601" y2="12.3314" gradientUnits="userSpaceOnUse">
<stop stop-color="#DD1265"/>
<stop offset="0.4834" stop-color="#DD1265"/>
<stop offset="0.9424" stop-color="#FDB60D"/>
</linearGradient>
<linearGradient id="paint21_linear_2108_61207" x1="23.3192" y1="37.9781" x2="19.5392" y2="6.4182" gradientUnits="userSpaceOnUse">
<stop offset="0.2775" stop-color="#79123A"/>
<stop offset="1" stop-color="#FA4D6C"/>
</linearGradient>
<linearGradient id="paint22_linear_2108_61207" x1="12.8189" y1="34.6287" x2="18.5789" y2="40.6288" gradientUnits="userSpaceOnUse">
<stop offset="0.2775" stop-color="#DD1265"/>
<stop offset="0.9684" stop-color="#FDB60D"/>
</linearGradient>
<linearGradient id="paint23_linear_2108_61207" x1="20.4079" y1="12.7715" x2="26.528" y2="32.8116" gradientUnits="userSpaceOnUse">
<stop offset="0.1368" stop-color="#00AAFF"/>
<stop offset="0.3491" stop-color="#0778BB"/>
<stop offset="0.7127" stop-color="#141E3E"/>
</linearGradient>
<linearGradient id="paint24_linear_2108_61207" x1="32.8971" y1="10.1047" x2="39.0526" y2="27.1022" gradientUnits="userSpaceOnUse">
<stop offset="0.00724206" stop-color="#08396C"/>
<stop offset="1" stop-color="#B72580"/>
</linearGradient>
</defs>
</svg>
