<svg width="24" height="24" viewBox="0 0 24 24" fill="none" xmlns="http://www.w3.org/2000/svg">
<path d="M20.0001 0L13.1001 2.5L7.7001 0L4.6001 7.3L4.7001 17.7L21.4001 17.9L24.0001 4.7L20.0001 0Z" fill="url(#paint0_linear_2108_61214)"/>
<path d="M4.5 15.6L22.3 5.4L20 0L13.1 2.5L7.7 0L4.5 7.1V15.6Z" fill="url(#paint1_linear_2108_61214)"/>
<path d="M4.5 15.6L22.3 5.4L20 0L13.1 2.5L4.5 15.6Z" fill="url(#paint2_linear_2108_61214)"/>
<path d="M23.9001 4.7L20.0001 0L13.1001 2.5L23.9001 4.7Z" fill="url(#paint3_linear_2108_61214)"/>
<path d="M22.2999 5.40001L21.3999 17.9L23.9999 4.70001L22.2999 5.40001Z" fill="url(#paint4_linear_2108_61214)"/>
<path d="M20 0L22.3 5.4L24 4.7L20 0Z" fill="url(#paint5_linear_2108_61214)"/>
<path d="M18.2 7.80001L8.80005 2.10001L19.2 15.1L18.2 7.80001Z" fill="url(#paint6_linear_2108_61214)"/>
<path d="M19 22.2L17.6 19.5L19.2 15.1L8.8 2.10001L0 4.20001V16.8L5.1 24L19 22.2Z" fill="url(#paint7_linear_2108_61214)"/>
<path d="M7.1 17.8L0 4.20001V16.8L5.1 24L7.1 17.8Z" fill="url(#paint8_linear_2108_61214)"/>
<path d="M7.1 17.8L8.2 14.7L0 16.8L5.1 24L7.1 17.8Z" fill="url(#paint9_linear_2108_61214)"/>
<path d="M7.1 17.8L0 4.20001V16.8L5.1 24L7.1 17.8Z" fill="url(#paint10_linear_2108_61214)"/>
<path d="M7.1001 17.8L5.1001 24L19.0001 22.2L7.1001 17.8Z" fill="url(#paint11_linear_2108_61214)"/>
<path d="M7.1001 17.8L17.6001 19.5L19.0001 22.2L7.1001 17.8Z" fill="url(#paint12_linear_2108_61214)"/>
<path d="M5.1001 24L17.6001 19.5L19.0001 22.2L5.1001 24Z" fill="url(#paint13_linear_2108_61214)"/>
<path d="M19.0001 22.2L17.6001 19.5L14.6001 20.6L19.0001 22.2Z" fill="url(#paint14_linear_2108_61214)"/>
<path d="M8.8 2.10001L3.5 11L7.1 17.8L18.2 17.9L19.2 15.1L8.8 2.10001Z" fill="url(#paint15_linear_2108_61214)"/>
<path d="M7.1001 17.8L17.6001 19.5L19.2001 15.1L7.1001 17.8Z" fill="url(#paint16_linear_2108_61214)"/>
<path d="M0 4.20001V16.8L0.1 16.9L3.6 11.1L0 4.20001Z" fill="url(#paint17_linear_2108_61214)"/>
<path d="M8.8 2.10001L0 4.20001L3.5 11L8.8 2.10001Z" fill="url(#paint18_linear_2108_61214)"/>
<path d="M6.5001 2.70001L3.1001 10.1L3.5001 11L8.8001 2.10001L6.5001 2.70001Z" fill="url(#paint19_linear_2108_61214)"/>
<path d="M4.5 9.50001V12.8L5.6 14.9L14.8 9.60001L8.8 2.10001L4.5 9.50001Z" fill="url(#paint20_linear_2108_61214)"/>
<path d="M20 4H4V20H20V4Z" fill="url(#paint21_linear_2108_61214)"/>
<g opacity="0.3">
<g opacity="0.3">
<path opacity="0.3" d="M19.7 20H20V16.6L17.7 20H19.7Z" fill="#231F20"/>
<path opacity="0.3" d="M14.2 4H5.6L4.3 7.7L19.3 16L4.4 7.8L4 7.9V11.2L13 14.9L20 16.4V16.3V11.2L14.2 4Z" fill="url(#paint22_linear_2108_61214)"/>
<path opacity="0.3" d="M5.60005 4L4.30005 7.7L20 16.3V11.2L14.2 4H5.60005Z" fill="url(#paint23_linear_2108_61214)"/>
<path opacity="0.3" d="M4 4V8.2L4.4 7.8L5.6 4H4Z" fill="#F9ED32"/>
</g>
<path opacity="0.3" d="M4 7.89999V11.2L13 14.9L20 16.4V16.3L4.4 7.79999L4 7.89999Z" fill="url(#paint24_linear_2108_61214)"/>
<path opacity="0.3" d="M4 10.6L14.3 13.2L4.4 7.79999L4 7.89999V10.6Z" fill="url(#paint25_linear_2108_61214)"/>
<path opacity="0.3" d="M10.3 20L13 14.9L6.5 20H10.3Z" fill="url(#paint26_linear_2108_61214)"/>
<path opacity="0.3" d="M4 13.6L4.3 12.4L4 12.5V13.6Z" fill="#F7941D"/>
<path opacity="0.3" d="M4 12.5L4.3 12.4L4 13.6V20H6.5L13 14.9L4 11.2V12.5Z" fill="url(#paint27_linear_2108_61214)"/>
<path opacity="0.3" d="M10.3 20H17.7L20 16.6V16.4L13 14.9L10.3 20Z" fill="url(#paint28_linear_2108_61214)"/>
<g opacity="0.3">
<path opacity="0.3" d="M19 9.9L20 9.3V4H14.2L19 9.9Z" fill="url(#paint29_linear_2108_61214)"/>
</g>
</g>
<path d="M20 4H4V20H20V4Z" fill="url(#paint30_linear_2108_61214)"/>
<path d="M11.9742 16.9806H5.98706V17.987H11.9742V16.9806Z" fill="white"/>
<path d="M11.8999 5.99997H13.3999L14.8999 8.49997L16.4999 5.99997H17.8999V12H16.5999V8.09997L14.8999 10.6L13.1999 8.09997V12H11.8999V5.99997Z" fill="white"/>
<path d="M6 5.99997H8.7C9.5 5.99997 10 6.19997 10.5 6.59997C10.8 6.89997 11 7.39997 11 7.99997C11 8.49997 10.9 8.89997 10.6 9.19997C10.4 9.49997 10.1 9.69997 9.7 9.89997L11.2 12H9.6L8.4 10.2H7.3V12H6V5.99997ZM8.7 8.89997C9 8.89997 9.3 8.79997 9.5 8.69997C9.7 8.49997 9.8 8.29997 9.8 8.09997C9.8 7.79997 9.7 7.59997 9.5 7.49997C9.2 7.29997 9 7.19997 8.6 7.19997H7.3V8.89997H8.7Z" fill="white"/>
<defs>
<linearGradient id="paint0_linear_2108_61214" x1="15.3865" y1="13.8813" x2="12.3538" y2="5.9206" gradientUnits="userSpaceOnUse">
<stop stop-color="#FE2857"/>
<stop offset="0.0562257" stop-color="#FE3052"/>
<stop offset="0.3252" stop-color="#FD533B"/>
<stop offset="0.5796" stop-color="#FC6C2A"/>
<stop offset="0.8114" stop-color="#FC7B20"/>
<stop offset="1" stop-color="#FC801D"/>
</linearGradient>
<linearGradient id="paint1_linear_2108_61214" x1="13.3985" y1="10.2381" x2="13.2355" y2="1.1737" gradientUnits="userSpaceOnUse">
<stop offset="0.3737" stop-color="#FEB51A"/>
<stop offset="0.4306" stop-color="#FEAD1A"/>
<stop offset="0.6448" stop-color="#FD941C"/>
<stop offset="0.8406" stop-color="#FC851D"/>
<stop offset="1" stop-color="#FC801D"/>
</linearGradient>
<linearGradient id="paint2_linear_2108_61214" x1="20.3501" y1="15.3884" x2="9.068" y2="4.8295" gradientUnits="userSpaceOnUse">
<stop offset="0.3737" stop-color="#FEB51A"/>
<stop offset="0.417" stop-color="#FEAD1A"/>
<stop offset="0.5802" stop-color="#FD941C"/>
<stop offset="0.7294" stop-color="#FC851D"/>
<stop offset="0.8508" stop-color="#FC801D"/>
<stop offset="0.9836" stop-color="#F26522"/>
</linearGradient>
<linearGradient id="paint3_linear_2108_61214" x1="16.6665" y1="0.06266" x2="18.6527" y2="3.8577" gradientUnits="userSpaceOnUse">
<stop offset="0.0238963" stop-color="#FDB60D"/>
<stop offset="1" stop-color="#FF9600" stop-opacity="0"/>
</linearGradient>
<linearGradient id="paint4_linear_2108_61214" x1="23.1687" y1="17.5531" x2="22.2527" y2="5.16201" gradientUnits="userSpaceOnUse">
<stop offset="0.0133474" stop-color="#EE2A7B"/>
<stop offset="0.7157" stop-color="#FE2857"/>
<stop offset="0.9859" stop-color="#FC801D"/>
</linearGradient>
<linearGradient id="paint5_linear_2108_61214" x1="25.9975" y1="8.8055" x2="19.7297" y2="0.5609" gradientUnits="userSpaceOnUse">
<stop stop-color="#FE2857"/>
<stop offset="0.1736" stop-color="#FE2C54"/>
<stop offset="0.1983" stop-color="#FE3051"/>
<stop offset="0.4268" stop-color="#FD533B"/>
<stop offset="0.6429" stop-color="#FC6C2A"/>
<stop offset="0.8398" stop-color="#FC7B20"/>
<stop offset="1" stop-color="#FC801D"/>
</linearGradient>
<linearGradient id="paint6_linear_2108_61214" x1="10.0749" y1="1.60661" x2="19.573" y2="12.4066" gradientUnits="userSpaceOnUse">
<stop stop-color="#6B57FF"/>
<stop offset="1" stop-color="#FE2857"/>
</linearGradient>
<linearGradient id="paint7_linear_2108_61214" x1="-0.1055" y1="4.00951" x2="15.321" y2="23.6195" gradientUnits="userSpaceOnUse">
<stop offset="0.0417113" stop-color="#7D11EF"/>
<stop offset="0.1162" stop-color="#A019CB"/>
<stop offset="0.2019" stop-color="#C220A8"/>
<stop offset="0.283" stop-color="#DA268F"/>
<stop offset="0.3569" stop-color="#E92980"/>
<stop offset="0.417" stop-color="#EE2A7B"/>
<stop offset="1" stop-color="#F26522"/>
</linearGradient>
<linearGradient id="paint8_linear_2108_61214" x1="-3.3497" y1="6.65141" x2="7.7958" y2="20.8194" gradientUnits="userSpaceOnUse">
<stop offset="0.00149909" stop-color="#6B57FF"/>
<stop offset="0.2483" stop-color="#FE2857"/>
<stop offset="0.6853" stop-color="#FE2857"/>
</linearGradient>
<linearGradient id="paint9_linear_2108_61214" x1="4.1948" y1="11.9759" x2="3.9444" y2="22.3634" gradientUnits="userSpaceOnUse">
<stop offset="0.00149909" stop-color="#FDB60D"/>
<stop offset="0.725" stop-color="#FE2857" stop-opacity="0"/>
</linearGradient>
<linearGradient id="paint10_linear_2108_61214" x1="6.1237" y1="12.346" x2="2.6124" y2="14.084" gradientUnits="userSpaceOnUse">
<stop offset="0.0238963" stop-color="#FF7100"/>
<stop offset="1" stop-color="#FF9600" stop-opacity="0"/>
</linearGradient>
<linearGradient id="paint11_linear_2108_61214" x1="9.1263" y1="14.201" x2="12.6997" y2="25.2188" gradientUnits="userSpaceOnUse">
<stop offset="0.3361" stop-color="#FE2857"/>
<stop offset="0.3527" stop-color="#FE3052"/>
<stop offset="0.4321" stop-color="#FD533B"/>
<stop offset="0.5072" stop-color="#FC6C2A"/>
<stop offset="0.5757" stop-color="#FC7B20"/>
<stop offset="0.6313" stop-color="#FC801D"/>
<stop offset="0.9964" stop-color="#FFDE17"/>
</linearGradient>
<linearGradient id="paint12_linear_2108_61214" x1="10.5461" y1="12.3513" x2="14.8142" y2="25.5114" gradientUnits="userSpaceOnUse">
<stop offset="0.2209" stop-color="#EE2A7B"/>
<stop offset="0.6985" stop-color="#F7941D"/>
</linearGradient>
<linearGradient id="paint13_linear_2108_61214" x1="10.9989" y1="19.9746" x2="12.626" y2="24.9915" gradientUnits="userSpaceOnUse">
<stop offset="0.092793" stop-color="#F15A29"/>
<stop offset="0.3888" stop-color="#FC801D"/>
<stop offset="1" stop-color="#FEC519"/>
</linearGradient>
<linearGradient id="paint14_linear_2108_61214" x1="10.1611" y1="22.4723" x2="19.579" y2="20.5758" gradientUnits="userSpaceOnUse">
<stop offset="0.092793" stop-color="#F15A29"/>
<stop offset="0.3888" stop-color="#FC801D"/>
<stop offset="0.8214" stop-color="#FEC519"/>
<stop offset="0.9894" stop-color="#FCF84A"/>
</linearGradient>
<linearGradient id="paint15_linear_2108_61214" x1="6.9641" y1="21.0905" x2="15.5609" y2="6.42541" gradientUnits="userSpaceOnUse">
<stop offset="0.0417113" stop-color="#7D11EF"/>
<stop offset="0.1162" stop-color="#A019CB"/>
<stop offset="0.2019" stop-color="#C220A8"/>
<stop offset="0.283" stop-color="#DA268F"/>
<stop offset="0.3569" stop-color="#E92980"/>
<stop offset="0.417" stop-color="#EE2A7B"/>
</linearGradient>
<linearGradient id="paint16_linear_2108_61214" x1="12.1733" y1="13.481" x2="14.8143" y2="21.6242" gradientUnits="userSpaceOnUse">
<stop stop-color="#F7941D" stop-opacity="0"/>
<stop offset="0.5473" stop-color="#FB851D" stop-opacity="0.5473"/>
<stop offset="1" stop-color="#FC801D"/>
</linearGradient>
<linearGradient id="paint17_linear_2108_61214" x1="-3.1024" y1="4.88401" x2="2.9456" y2="15.9133" gradientUnits="userSpaceOnUse">
<stop offset="0.1915" stop-color="#7D11EF"/>
<stop offset="0.2818" stop-color="#A019CB"/>
<stop offset="0.3858" stop-color="#C220A8"/>
<stop offset="0.4842" stop-color="#DA268F"/>
<stop offset="0.5738" stop-color="#E92980"/>
<stop offset="0.6467" stop-color="#EE2A7B"/>
</linearGradient>
<linearGradient id="paint18_linear_2108_61214" x1="3.4576" y1="1.62211" x2="7.605" y2="9.18531" gradientUnits="userSpaceOnUse">
<stop offset="0.1915" stop-color="#7D11EF"/>
<stop offset="0.2818" stop-color="#A019CB"/>
<stop offset="0.3858" stop-color="#C220A8"/>
<stop offset="0.4842" stop-color="#DA268F"/>
<stop offset="0.5738" stop-color="#E92980"/>
<stop offset="0.6467" stop-color="#EE2A7B"/>
<stop offset="1" stop-color="#F26522"/>
</linearGradient>
<linearGradient id="paint19_linear_2108_61214" x1="9.0106" y1="-2.51469" x2="3.6005" y2="12.6658" gradientUnits="userSpaceOnUse">
<stop offset="0.1915" stop-color="#7D11EF"/>
<stop offset="0.2818" stop-color="#A019CB"/>
<stop offset="0.3858" stop-color="#C220A8"/>
<stop offset="0.4842" stop-color="#DA268F"/>
<stop offset="0.5738" stop-color="#E92980"/>
<stop offset="0.6467" stop-color="#EE2A7B"/>
<stop offset="1" stop-color="#F26522"/>
</linearGradient>
<linearGradient id="paint20_linear_2108_61214" x1="14.5371" y1="13.875" x2="3.1568" y2="5.5721" gradientUnits="userSpaceOnUse">
<stop offset="0.0417113" stop-color="#FFDE17"/>
<stop offset="0.0429608" stop-color="#FFDD18"/>
<stop offset="0.1145" stop-color="#FAA736"/>
<stop offset="0.1843" stop-color="#F67A4E"/>
<stop offset="0.2509" stop-color="#F25762"/>
<stop offset="0.3136" stop-color="#F03E70"/>
<stop offset="0.3706" stop-color="#EE2F78"/>
<stop offset="0.417" stop-color="#EE2A7B"/>
</linearGradient>
<linearGradient id="paint21_linear_2108_61214" x1="3.7531" y1="5.2766" x2="20.1319" y2="18.6296" gradientUnits="userSpaceOnUse">
<stop stop-color="#521713"/>
<stop offset="0.080028" stop-color="#451310"/>
<stop offset="0.2989" stop-color="#270B09"/>
<stop offset="0.514" stop-color="#110504"/>
<stop offset="0.7218" stop-color="#040101"/>
<stop offset="0.9138"/>
</linearGradient>
<linearGradient id="paint22_linear_2108_61214" x1="4" y1="10.19" x2="20" y2="10.19" gradientUnits="userSpaceOnUse">
<stop offset="0.2464" stop-color="#FE2857"/>
<stop offset="0.292" stop-color="#FE265F"/>
<stop offset="0.3641" stop-color="#FE1F76"/>
<stop offset="0.4534" stop-color="#FF159B"/>
<stop offset="0.4574" stop-color="#FF149D"/>
<stop offset="0.536" stop-color="#EF1AB2"/>
<stop offset="0.6983" stop-color="#C82BE9"/>
<stop offset="0.7574" stop-color="#B831FF"/>
<stop offset="0.811" stop-color="#A33AFE"/>
<stop offset="0.9215" stop-color="#6C52FD"/>
<stop offset="1" stop-color="#4164FC"/>
</linearGradient>
<linearGradient id="paint23_linear_2108_61214" x1="4.32735" y1="10.1718" x2="20" y2="10.1718" gradientUnits="userSpaceOnUse">
<stop offset="0.1118" stop-color="#F7941D"/>
<stop offset="0.1374" stop-color="#F88C25"/>
<stop offset="0.178" stop-color="#F9753A"/>
<stop offset="0.2284" stop-color="#FB505D"/>
<stop offset="0.2863" stop-color="#FF1C8C"/>
<stop offset="0.2928" stop-color="#FF1692"/>
<stop offset="0.4031" stop-color="#EA1A93"/>
<stop offset="0.4677" stop-color="#DB1D93"/>
<stop offset="0.5543" stop-color="#9F2895"/>
<stop offset="0.7229" stop-color="#21409A"/>
<stop offset="0.8671" stop-color="#222F5C"/>
<stop offset="1" stop-color="#231F20"/>
</linearGradient>
<linearGradient id="paint24_linear_2108_61214" x1="4" y1="12.0955" x2="20" y2="12.0955" gradientUnits="userSpaceOnUse">
<stop offset="0.0878508" stop-color="#FE2857"/>
<stop offset="0.1283" stop-color="#FE265F"/>
<stop offset="0.1923" stop-color="#FE1F76"/>
<stop offset="0.2716" stop-color="#FF159B"/>
<stop offset="0.2751" stop-color="#FF149D"/>
<stop offset="0.4167" stop-color="#B21871"/>
<stop offset="0.5427" stop-color="#741B4E"/>
<stop offset="0.6489" stop-color="#481D35"/>
<stop offset="0.731" stop-color="#2D1E26"/>
<stop offset="0.7791" stop-color="#231F20"/>
</linearGradient>
<linearGradient id="paint25_linear_2108_61214" x1="5.5488" y1="9.89569" x2="11.8145" y2="13.3809" gradientUnits="userSpaceOnUse">
<stop offset="0.00629908" stop-color="#FF45ED"/>
<stop offset="0.1766" stop-color="#FF35D8"/>
<stop offset="0.3352" stop-color="#FF24C0"/>
<stop offset="0.451" stop-color="#EA24B0"/>
<stop offset="0.6916" stop-color="#B22388"/>
<stop offset="1" stop-color="#63214F"/>
</linearGradient>
<linearGradient id="paint26_linear_2108_61214" x1="6.5134" y1="17.4397" x2="13.0321" y2="17.4397" gradientUnits="userSpaceOnUse">
<stop offset="0.4574" stop-color="#FF149D"/>
<stop offset="0.536" stop-color="#EF1AB2"/>
<stop offset="0.6983" stop-color="#C82BE9"/>
<stop offset="0.7574" stop-color="#B831FF"/>
<stop offset="0.8388" stop-color="#A33AFE"/>
<stop offset="1" stop-color="#6E51FD"/>
</linearGradient>
<linearGradient id="paint27_linear_2108_61214" x1="4" y1="15.6219" x2="13.0321" y2="15.6219" gradientUnits="userSpaceOnUse">
<stop offset="0.00442798" stop-color="#FFDE17"/>
<stop offset="0.0386836" stop-color="#FECB12"/>
<stop offset="0.0790912" stop-color="#FDBB0E"/>
<stop offset="0.1111" stop-color="#FDB60D"/>
<stop offset="0.1673" stop-color="#FDAE0F"/>
<stop offset="0.2521" stop-color="#FC9A15"/>
<stop offset="0.3323" stop-color="#FC801D"/>
<stop offset="0.7374" stop-color="#BE1E2D"/>
</linearGradient>
<linearGradient id="paint28_linear_2108_61214" x1="10.3033" y1="17.4397" x2="20" y2="17.4397" gradientUnits="userSpaceOnUse">
<stop stop-color="#087CFA"/>
<stop offset="0.7942" stop-color="#231F20"/>
</linearGradient>
<linearGradient id="paint29_linear_2108_61214" x1="26.5288" y1="19.2317" x2="16.3332" y2="2.7214" gradientUnits="userSpaceOnUse">
<stop offset="0.3486" stop-color="#3595F3"/>
<stop offset="0.4019" stop-color="#3490EB"/>
<stop offset="0.4865" stop-color="#3284D4"/>
<stop offset="0.5918" stop-color="#2F6FAE"/>
<stop offset="0.7135" stop-color="#2B527B"/>
<stop offset="0.8476" stop-color="#252D39"/>
<stop offset="0.8951" stop-color="#231F20"/>
</linearGradient>
<linearGradient id="paint30_linear_2108_61214" x1="1.56438" y1="3.86328" x2="19.8624" y2="18.1303" gradientUnits="userSpaceOnUse">
<stop offset="0.0108952" stop-color="#7C0F13"/>
<stop offset="0.0756282" stop-color="#6C0D11"/>
<stop offset="0.2517" stop-color="#45080B"/>
<stop offset="0.4263" stop-color="#270506"/>
<stop offset="0.5969" stop-color="#110203"/>
<stop offset="0.7616" stop-color="#040101"/>
<stop offset="0.9138"/>
</linearGradient>
</defs>
</svg>
