<!-- Copyright 2000-2024 JetBrains s.r.o. and contributors. Use of this source code is governed by the Apache 2.0 license. -->
<svg width="24" height="24" viewBox="0 0 24 24" fill="none" xmlns="http://www.w3.org/2000/svg">
<g clip-path="url(#clip0_3917_59723)">
<path d="M22.4745 0H9.73639C9.12548 0 8.57327 0.364145 8.33261 0.925527L2.30708 14.9845C2.2257 15.1745 2.18359 15.3794 2.18359 15.5863V22.4727C2.18359 23.3162 2.86738 24 3.71087 24H10.4481C10.7498 24 11.0448 23.9105 11.296 23.743L23.3217 15.7167C23.7463 15.4335 24.0011 14.9568 24.0011 14.4465L24.0018 1.52727C24.0018 0.683782 23.318 0 22.4745 0Z" fill="url(#paint0_linear_3917_59723)"/>
<path d="M5.44473 2.18164H1.52727C0.683782 2.18164 0 2.86542 0 3.70891V8.61866C0 8.69088 0.00523636 8.76309 0.0152727 8.83466L1.99418 22.6885C2.10175 23.4411 2.74604 23.9998 3.50618 23.9998H9.38356C10.2273 23.9998 10.9111 23.3158 10.9108 22.4721L10.9091 15.5202C10.9091 15.3561 10.8827 15.1931 10.8308 15.0376L6.89367 3.22586C6.68575 2.6023 6.10211 2.18164 5.44473 2.18164Z" fill="url(#paint1_linear_3917_59723)"/>
<path d="M5.98036 2.18164L1.52705 2.1823C0.683782 2.18251 0 2.8663 0 3.70957V8.02455C0 8.47029 0.194836 8.894 0.533236 9.18419L14.8436 21.4504C15.1204 21.6875 15.473 21.818 15.8376 21.818H20.2909C21.1344 21.818 21.8182 21.1342 21.8182 20.2907V15.9751C21.8182 15.5293 21.6233 15.1056 21.2849 14.8155L6.97462 2.5495C6.69775 2.31211 6.34516 2.18186 5.98036 2.18186V2.18164Z" fill="#FF8100"/>
<path d="M20 4H4V20H20V4Z" fill="black"/>
<path d="M9.82445 9.58555C10.1488 9.42921 10.3975 9.21001 10.5712 8.92841C10.7474 8.64407 10.8356 8.31675 10.8356 7.94692C10.8356 7.5771 10.7488 7.25732 10.5753 6.97847C10.4046 6.69961 10.16 6.48361 9.84136 6.33001C9.52273 6.17641 9.1545 6.09961 8.73622 6.09961H6.17188V12.0729H7.33667V9.81572H8.34033L9.6281 12.0729H10.9636L9.5401 9.67972C9.63565 9.64932 9.7369 9.62738 9.82445 9.58555ZM7.33713 7.06807H8.65988C8.85622 7.06807 9.02673 7.10487 9.17187 7.17892C9.31976 7.24978 9.43359 7.35241 9.51313 7.48612C9.59267 7.61664 9.63268 7.77344 9.63268 7.95538C9.63268 8.13732 9.5929 8.29252 9.51313 8.42898C9.43359 8.56292 9.31976 8.66624 9.17187 8.74052C9.02673 8.81138 8.85622 8.84727 8.65988 8.84727H7.33713V7.06807Z" fill="white"/>
<path d="M16.0484 6.09961L14.8624 10.0208L14.7728 10.5328L14.6704 10.0208L13.4416 6.09961H11.8203V12.0731H12.968V7.8107L12.9508 7.5291L14.3248 12.0731H15.1696L16.5604 7.49915L16.5435 7.8107V12.0731H17.6955V6.09961H16.0484Z" fill="white"/>
<path d="M12 17H6V18H12V17Z" fill="white"/>
</g>
<defs>
<linearGradient id="paint0_linear_3917_59723" x1="1.58512" y1="22.507" x2="23.5994" y2="0.492436" gradientUnits="userSpaceOnUse">
<stop offset="0.29" stop-color="#FF2358"/>
<stop offset="0.75" stop-color="#7256FF"/>
</linearGradient>
<linearGradient id="paint1_linear_3917_59723" x1="-0.269018" y1="2.858" x2="9.05455" y2="22.9676" gradientUnits="userSpaceOnUse">
<stop offset="0.29" stop-color="#FF8100"/>
<stop offset="0.56" stop-color="#FF2358"/>
</linearGradient>
<clipPath id="clip0_3917_59723">
<rect width="24" height="24" fill="white"/>
</clipPath>
</defs>
</svg>
