<svg width="20" height="20" viewBox="0 0 20 20" fill="none" xmlns="http://www.w3.org/2000/svg">
<path d="M16.6668 0L10.9168 2.08333L6.41683 0L3.8335 6.08333L3.91683 14.75L17.8335 14.9167L20.0002 3.91667L16.6668 0Z" fill="url(#paint0_linear_2108_61215)"/>
<path d="M3.75 13L18.5833 4.5L16.6667 0L10.9167 2.08333L6.41667 0L3.75 5.91667V13Z" fill="url(#paint1_linear_2108_61215)"/>
<path d="M3.75 13L18.5833 4.5L16.6667 0L10.9167 2.08333L3.75 13Z" fill="url(#paint2_linear_2108_61215)"/>
<path d="M19.9167 3.91667L16.6667 0L10.9167 2.08333L19.9167 3.91667Z" fill="url(#paint3_linear_2108_61215)"/>
<path d="M18.5833 4.50002L17.8333 14.9167L19.9999 3.91669L18.5833 4.50002Z" fill="url(#paint4_linear_2108_61215)"/>
<path d="M16.6667 0L18.5834 4.5L20.0001 3.91667L16.6667 0Z" fill="url(#paint5_linear_2108_61215)"/>
<path d="M15.1668 6.5L7.3335 1.75L16.0002 12.5833L15.1668 6.5Z" fill="url(#paint6_linear_2108_61215)"/>
<path d="M15.8333 18.5L14.6667 16.25L16 12.5833L7.33333 1.75L0 3.5V14L4.25 20L15.8333 18.5Z" fill="url(#paint7_linear_2108_61215)"/>
<path d="M5.91667 14.8333L0 3.5V14L4.25 20L5.91667 14.8333Z" fill="url(#paint8_linear_2108_61215)"/>
<path d="M5.91667 14.8333L6.83333 12.25L0 14L4.25 20L5.91667 14.8333Z" fill="url(#paint9_linear_2108_61215)"/>
<path d="M5.91667 14.8333L0 3.5V14L4.25 20L5.91667 14.8333Z" fill="url(#paint10_linear_2108_61215)"/>
<path d="M5.91667 14.8333L4.25 20L15.8333 18.5L5.91667 14.8333Z" fill="url(#paint11_linear_2108_61215)"/>
<path d="M5.91675 14.8333L14.6667 16.25L15.8334 18.5L5.91675 14.8333Z" fill="url(#paint12_linear_2108_61215)"/>
<path d="M4.25 20L14.6667 16.25L15.8333 18.5L4.25 20Z" fill="url(#paint13_linear_2108_61215)"/>
<path d="M15.8334 18.5L14.6667 16.25L12.1667 17.1667L15.8334 18.5Z" fill="url(#paint14_linear_2108_61215)"/>
<path d="M7.33341 1.75L2.91675 9.16667L5.91675 14.8333L15.1667 14.9167L16.0001 12.5833L7.33341 1.75Z" fill="url(#paint15_linear_2108_61215)"/>
<path d="M5.91675 14.8333L14.6667 16.25L16.0001 12.5833L5.91675 14.8333Z" fill="url(#paint16_linear_2108_61215)"/>
<path d="M0 3.5V14L0.0833333 14.0833L3 9.25L0 3.5Z" fill="url(#paint17_linear_2108_61215)"/>
<path d="M7.33333 1.75L0 3.5L2.91667 9.16667L7.33333 1.75Z" fill="url(#paint18_linear_2108_61215)"/>
<path d="M5.41683 2.25L2.5835 8.41667L2.91683 9.16667L7.3335 1.75L5.41683 2.25Z" fill="url(#paint19_linear_2108_61215)"/>
<path d="M3.75 7.91667V10.6667L4.66667 12.4167L12.3333 8L7.33333 1.75L3.75 7.91667Z" fill="url(#paint20_linear_2108_61215)"/>
<path d="M16.6666 3.33334H3.33325V16.6667H16.6666V3.33334Z" fill="url(#paint21_linear_2108_61215)"/>
<g opacity="0.3">
<g opacity="0.3">
<path opacity="0.3" d="M16.4167 16.6667H16.6667V13.8333L14.75 16.6667H16.4167Z" fill="#231F20"/>
<path opacity="0.3" d="M11.8333 3.33334H4.66659L3.58325 6.41668L16.0833 13.3333L3.66659 6.50001L3.33325 6.58334V9.33334L10.8333 12.4167L16.6666 13.6667V13.5833V9.33334L11.8333 3.33334Z" fill="url(#paint22_linear_2108_61215)"/>
<path opacity="0.3" d="M4.66659 3.33334L3.58325 6.41668L16.6666 13.5833V9.33334L11.8333 3.33334H4.66659Z" fill="url(#paint23_linear_2108_61215)"/>
<path opacity="0.3" d="M3.33325 3.33334V6.83334L3.66659 6.50001L4.66659 3.33334H3.33325Z" fill="#F9ED32"/>
</g>
<path opacity="0.3" d="M3.33325 6.58333V9.33333L10.8333 12.4167L16.6666 13.6667V13.5833L3.66659 6.5L3.33325 6.58333Z" fill="url(#paint24_linear_2108_61215)"/>
<path opacity="0.3" d="M3.33325 8.83333L11.9166 11L3.66659 6.5L3.33325 6.58333V8.83333Z" fill="url(#paint25_linear_2108_61215)"/>
<path opacity="0.3" d="M8.58341 16.6667L10.8334 12.4167L5.41675 16.6667H8.58341Z" fill="url(#paint26_linear_2108_61215)"/>
<path opacity="0.3" d="M3.33325 11.3333L3.58325 10.3333L3.33325 10.4166V11.3333Z" fill="#F7941D"/>
<path opacity="0.3" d="M3.33325 10.4167L3.58325 10.3333L3.33325 11.3333V16.6667H5.41659L10.8333 12.4167L3.33325 9.33334V10.4167Z" fill="url(#paint27_linear_2108_61215)"/>
<path opacity="0.3" d="M8.5835 16.6667H14.7502L16.6668 13.8333V13.6667L10.8335 12.4167L8.5835 16.6667Z" fill="url(#paint28_linear_2108_61215)"/>
<g opacity="0.3">
<path opacity="0.3" d="M15.8333 8.25001L16.6666 7.75001V3.33334H11.8333L15.8333 8.25001Z" fill="url(#paint29_linear_2108_61215)"/>
</g>
</g>
<path d="M16.6666 3.33334H3.33325V16.6667H16.6666V3.33334Z" fill="url(#paint30_linear_2108_61215)"/>
<path d="M9.97851 14.1505H4.98926V14.9892H9.97851V14.1505Z" fill="white"/>
<path d="M9.9165 4.99997H11.1665L12.4165 7.0833L13.7498 4.99997H14.9165V9.99997H13.8332V6.74997L12.4165 8.8333L10.9998 6.74997V9.99997H9.9165V4.99997Z" fill="white"/>
<path d="M5 4.99997H7.25C7.91667 4.99997 8.33333 5.16664 8.75 5.49997C9 5.74997 9.16667 6.16664 9.16667 6.66664C9.16667 7.0833 9.08333 7.41664 8.83333 7.66664C8.66667 7.91664 8.41667 8.0833 8.08333 8.24997L9.33333 9.99997H8L7 8.49997H6.08333V9.99997H5V4.99997ZM7.25 7.41664C7.5 7.41664 7.75 7.3333 7.91667 7.24997C8.08333 7.0833 8.16667 6.91664 8.16667 6.74997C8.16667 6.49997 8.08333 6.3333 7.91667 6.24997C7.66667 6.0833 7.5 5.99997 7.16667 5.99997H6.08333V7.41664H7.25Z" fill="white"/>
<defs>
<linearGradient id="paint0_linear_2108_61215" x1="12.8222" y1="11.5677" x2="10.2949" y2="4.93383" gradientUnits="userSpaceOnUse">
<stop stop-color="#FE2857"/>
<stop offset="0.0562257" stop-color="#FE3052"/>
<stop offset="0.3252" stop-color="#FD533B"/>
<stop offset="0.5796" stop-color="#FC6C2A"/>
<stop offset="0.8114" stop-color="#FC7B20"/>
<stop offset="1" stop-color="#FC801D"/>
</linearGradient>
<linearGradient id="paint1_linear_2108_61215" x1="11.1654" y1="8.53175" x2="11.0296" y2="0.978083" gradientUnits="userSpaceOnUse">
<stop offset="0.3737" stop-color="#FEB51A"/>
<stop offset="0.4306" stop-color="#FEAD1A"/>
<stop offset="0.6448" stop-color="#FD941C"/>
<stop offset="0.8406" stop-color="#FC851D"/>
<stop offset="1" stop-color="#FC801D"/>
</linearGradient>
<linearGradient id="paint2_linear_2108_61215" x1="16.9584" y1="12.8237" x2="7.55667" y2="4.02458" gradientUnits="userSpaceOnUse">
<stop offset="0.3737" stop-color="#FEB51A"/>
<stop offset="0.417" stop-color="#FEAD1A"/>
<stop offset="0.5802" stop-color="#FD941C"/>
<stop offset="0.7294" stop-color="#FC851D"/>
<stop offset="0.8508" stop-color="#FC801D"/>
<stop offset="0.9836" stop-color="#F26522"/>
</linearGradient>
<linearGradient id="paint3_linear_2108_61215" x1="13.8887" y1="0.0522167" x2="15.5439" y2="3.21475" gradientUnits="userSpaceOnUse">
<stop offset="0.0238963" stop-color="#FDB60D"/>
<stop offset="1" stop-color="#FF9600" stop-opacity="0"/>
</linearGradient>
<linearGradient id="paint4_linear_2108_61215" x1="19.3073" y1="14.6276" x2="18.5439" y2="4.30169" gradientUnits="userSpaceOnUse">
<stop offset="0.0133474" stop-color="#EE2A7B"/>
<stop offset="0.7157" stop-color="#FE2857"/>
<stop offset="0.9859" stop-color="#FC801D"/>
</linearGradient>
<linearGradient id="paint5_linear_2108_61215" x1="21.6647" y1="7.33792" x2="16.4415" y2="0.467416" gradientUnits="userSpaceOnUse">
<stop stop-color="#FE2857"/>
<stop offset="0.1736" stop-color="#FE2C54"/>
<stop offset="0.1983" stop-color="#FE3051"/>
<stop offset="0.4268" stop-color="#FD533B"/>
<stop offset="0.6429" stop-color="#FC6C2A"/>
<stop offset="0.8398" stop-color="#FC7B20"/>
<stop offset="1" stop-color="#FC801D"/>
</linearGradient>
<linearGradient id="paint6_linear_2108_61215" x1="8.39591" y1="1.33883" x2="16.311" y2="10.3388" gradientUnits="userSpaceOnUse">
<stop stop-color="#6B57FF"/>
<stop offset="1" stop-color="#FE2857"/>
</linearGradient>
<linearGradient id="paint7_linear_2108_61215" x1="-0.0879165" y1="3.34125" x2="12.7675" y2="19.6829" gradientUnits="userSpaceOnUse">
<stop offset="0.0417113" stop-color="#7D11EF"/>
<stop offset="0.1162" stop-color="#A019CB"/>
<stop offset="0.2019" stop-color="#C220A8"/>
<stop offset="0.283" stop-color="#DA268F"/>
<stop offset="0.3569" stop-color="#E92980"/>
<stop offset="0.417" stop-color="#EE2A7B"/>
<stop offset="1" stop-color="#F26522"/>
</linearGradient>
<linearGradient id="paint8_linear_2108_61215" x1="-2.79142" y1="5.54283" x2="6.4965" y2="17.3495" gradientUnits="userSpaceOnUse">
<stop offset="0.00149909" stop-color="#6B57FF"/>
<stop offset="0.2483" stop-color="#FE2857"/>
<stop offset="0.6853" stop-color="#FE2857"/>
</linearGradient>
<linearGradient id="paint9_linear_2108_61215" x1="3.49567" y1="9.97992" x2="3.287" y2="18.6362" gradientUnits="userSpaceOnUse">
<stop offset="0.00149909" stop-color="#FDB60D"/>
<stop offset="0.725" stop-color="#FE2857" stop-opacity="0"/>
</linearGradient>
<linearGradient id="paint10_linear_2108_61215" x1="5.10308" y1="10.2883" x2="2.177" y2="11.7367" gradientUnits="userSpaceOnUse">
<stop offset="0.0238963" stop-color="#FF7100"/>
<stop offset="1" stop-color="#FF9600" stop-opacity="0"/>
</linearGradient>
<linearGradient id="paint11_linear_2108_61215" x1="7.60517" y1="11.8341" x2="10.583" y2="21.0156" gradientUnits="userSpaceOnUse">
<stop offset="0.3361" stop-color="#FE2857"/>
<stop offset="0.3527" stop-color="#FE3052"/>
<stop offset="0.4321" stop-color="#FD533B"/>
<stop offset="0.5072" stop-color="#FC6C2A"/>
<stop offset="0.5757" stop-color="#FC7B20"/>
<stop offset="0.6313" stop-color="#FC801D"/>
<stop offset="0.9964" stop-color="#FFDE17"/>
</linearGradient>
<linearGradient id="paint12_linear_2108_61215" x1="8.78841" y1="10.2927" x2="12.3452" y2="21.2595" gradientUnits="userSpaceOnUse">
<stop offset="0.2209" stop-color="#EE2A7B"/>
<stop offset="0.6985" stop-color="#F7941D"/>
</linearGradient>
<linearGradient id="paint13_linear_2108_61215" x1="9.16567" y1="16.6455" x2="10.5216" y2="20.8262" gradientUnits="userSpaceOnUse">
<stop offset="0.092793" stop-color="#F15A29"/>
<stop offset="0.3888" stop-color="#FC801D"/>
<stop offset="1" stop-color="#FEC519"/>
</linearGradient>
<linearGradient id="paint14_linear_2108_61215" x1="8.46758" y1="18.7269" x2="16.3158" y2="17.1465" gradientUnits="userSpaceOnUse">
<stop offset="0.092793" stop-color="#F15A29"/>
<stop offset="0.3888" stop-color="#FC801D"/>
<stop offset="0.8214" stop-color="#FEC519"/>
<stop offset="0.9894" stop-color="#FCF84A"/>
</linearGradient>
<linearGradient id="paint15_linear_2108_61215" x1="5.8035" y1="17.5754" x2="12.9675" y2="5.3545" gradientUnits="userSpaceOnUse">
<stop offset="0.0417113" stop-color="#7D11EF"/>
<stop offset="0.1162" stop-color="#A019CB"/>
<stop offset="0.2019" stop-color="#C220A8"/>
<stop offset="0.283" stop-color="#DA268F"/>
<stop offset="0.3569" stop-color="#E92980"/>
<stop offset="0.417" stop-color="#EE2A7B"/>
</linearGradient>
<linearGradient id="paint16_linear_2108_61215" x1="10.1444" y1="11.2342" x2="12.3452" y2="18.0202" gradientUnits="userSpaceOnUse">
<stop stop-color="#F7941D" stop-opacity="0"/>
<stop offset="0.5473" stop-color="#FB851D" stop-opacity="0.5473"/>
<stop offset="1" stop-color="#FC801D"/>
</linearGradient>
<linearGradient id="paint17_linear_2108_61215" x1="-2.58533" y1="4.07" x2="2.45467" y2="13.2611" gradientUnits="userSpaceOnUse">
<stop offset="0.1915" stop-color="#7D11EF"/>
<stop offset="0.2818" stop-color="#A019CB"/>
<stop offset="0.3858" stop-color="#C220A8"/>
<stop offset="0.4842" stop-color="#DA268F"/>
<stop offset="0.5738" stop-color="#E92980"/>
<stop offset="0.6467" stop-color="#EE2A7B"/>
</linearGradient>
<linearGradient id="paint18_linear_2108_61215" x1="2.88133" y1="1.35175" x2="6.3375" y2="7.65442" gradientUnits="userSpaceOnUse">
<stop offset="0.1915" stop-color="#7D11EF"/>
<stop offset="0.2818" stop-color="#A019CB"/>
<stop offset="0.3858" stop-color="#C220A8"/>
<stop offset="0.4842" stop-color="#DA268F"/>
<stop offset="0.5738" stop-color="#E92980"/>
<stop offset="0.6467" stop-color="#EE2A7B"/>
<stop offset="1" stop-color="#F26522"/>
</linearGradient>
<linearGradient id="paint19_linear_2108_61215" x1="7.50891" y1="-2.09558" x2="3.0005" y2="10.5548" gradientUnits="userSpaceOnUse">
<stop offset="0.1915" stop-color="#7D11EF"/>
<stop offset="0.2818" stop-color="#A019CB"/>
<stop offset="0.3858" stop-color="#C220A8"/>
<stop offset="0.4842" stop-color="#DA268F"/>
<stop offset="0.5738" stop-color="#E92980"/>
<stop offset="0.6467" stop-color="#EE2A7B"/>
<stop offset="1" stop-color="#F26522"/>
</linearGradient>
<linearGradient id="paint20_linear_2108_61215" x1="12.1143" y1="11.5625" x2="2.63067" y2="4.64342" gradientUnits="userSpaceOnUse">
<stop offset="0.0417113" stop-color="#FFDE17"/>
<stop offset="0.0429608" stop-color="#FFDD18"/>
<stop offset="0.1145" stop-color="#FAA736"/>
<stop offset="0.1843" stop-color="#F67A4E"/>
<stop offset="0.2509" stop-color="#F25762"/>
<stop offset="0.3136" stop-color="#F03E70"/>
<stop offset="0.3706" stop-color="#EE2F78"/>
<stop offset="0.417" stop-color="#EE2A7B"/>
</linearGradient>
<linearGradient id="paint21_linear_2108_61215" x1="3.1275" y1="4.39718" x2="16.7765" y2="15.5247" gradientUnits="userSpaceOnUse">
<stop stop-color="#521713"/>
<stop offset="0.080028" stop-color="#451310"/>
<stop offset="0.2989" stop-color="#270B09"/>
<stop offset="0.514" stop-color="#110504"/>
<stop offset="0.7218" stop-color="#040101"/>
<stop offset="0.9138"/>
</linearGradient>
<linearGradient id="paint22_linear_2108_61215" x1="3.33325" y1="8.49168" x2="16.6666" y2="8.49168" gradientUnits="userSpaceOnUse">
<stop offset="0.2464" stop-color="#FE2857"/>
<stop offset="0.292" stop-color="#FE265F"/>
<stop offset="0.3641" stop-color="#FE1F76"/>
<stop offset="0.4534" stop-color="#FF159B"/>
<stop offset="0.4574" stop-color="#FF149D"/>
<stop offset="0.536" stop-color="#EF1AB2"/>
<stop offset="0.6983" stop-color="#C82BE9"/>
<stop offset="0.7574" stop-color="#B831FF"/>
<stop offset="0.811" stop-color="#A33AFE"/>
<stop offset="0.9215" stop-color="#6C52FD"/>
<stop offset="1" stop-color="#4164FC"/>
</linearGradient>
<linearGradient id="paint23_linear_2108_61215" x1="3.606" y1="8.47651" x2="16.6666" y2="8.47651" gradientUnits="userSpaceOnUse">
<stop offset="0.1118" stop-color="#F7941D"/>
<stop offset="0.1374" stop-color="#F88C25"/>
<stop offset="0.178" stop-color="#F9753A"/>
<stop offset="0.2284" stop-color="#FB505D"/>
<stop offset="0.2863" stop-color="#FF1C8C"/>
<stop offset="0.2928" stop-color="#FF1692"/>
<stop offset="0.4031" stop-color="#EA1A93"/>
<stop offset="0.4677" stop-color="#DB1D93"/>
<stop offset="0.5543" stop-color="#9F2895"/>
<stop offset="0.7229" stop-color="#21409A"/>
<stop offset="0.8671" stop-color="#222F5C"/>
<stop offset="1" stop-color="#231F20"/>
</linearGradient>
<linearGradient id="paint24_linear_2108_61215" x1="3.33325" y1="10.0796" x2="16.6666" y2="10.0796" gradientUnits="userSpaceOnUse">
<stop offset="0.0878508" stop-color="#FE2857"/>
<stop offset="0.1283" stop-color="#FE265F"/>
<stop offset="0.1923" stop-color="#FE1F76"/>
<stop offset="0.2716" stop-color="#FF159B"/>
<stop offset="0.2751" stop-color="#FF149D"/>
<stop offset="0.4167" stop-color="#B21871"/>
<stop offset="0.5427" stop-color="#741B4E"/>
<stop offset="0.6489" stop-color="#481D35"/>
<stop offset="0.731" stop-color="#2D1E26"/>
<stop offset="0.7791" stop-color="#231F20"/>
</linearGradient>
<linearGradient id="paint25_linear_2108_61215" x1="4.62392" y1="8.24642" x2="9.84533" y2="11.1508" gradientUnits="userSpaceOnUse">
<stop offset="0.00629908" stop-color="#FF45ED"/>
<stop offset="0.1766" stop-color="#FF35D8"/>
<stop offset="0.3352" stop-color="#FF24C0"/>
<stop offset="0.451" stop-color="#EA24B0"/>
<stop offset="0.6916" stop-color="#B22388"/>
<stop offset="1" stop-color="#63214F"/>
</linearGradient>
<linearGradient id="paint26_linear_2108_61215" x1="5.42791" y1="14.5331" x2="10.8602" y2="14.5331" gradientUnits="userSpaceOnUse">
<stop offset="0.4574" stop-color="#FF149D"/>
<stop offset="0.536" stop-color="#EF1AB2"/>
<stop offset="0.6983" stop-color="#C82BE9"/>
<stop offset="0.7574" stop-color="#B831FF"/>
<stop offset="0.8388" stop-color="#A33AFE"/>
<stop offset="1" stop-color="#6E51FD"/>
</linearGradient>
<linearGradient id="paint27_linear_2108_61215" x1="3.33325" y1="13.0183" x2="10.86" y2="13.0183" gradientUnits="userSpaceOnUse">
<stop offset="0.00442798" stop-color="#FFDE17"/>
<stop offset="0.0386836" stop-color="#FECB12"/>
<stop offset="0.0790912" stop-color="#FDBB0E"/>
<stop offset="0.1111" stop-color="#FDB60D"/>
<stop offset="0.1673" stop-color="#FDAE0F"/>
<stop offset="0.2521" stop-color="#FC9A15"/>
<stop offset="0.3323" stop-color="#FC801D"/>
<stop offset="0.7374" stop-color="#BE1E2D"/>
</linearGradient>
<linearGradient id="paint28_linear_2108_61215" x1="8.58625" y1="14.5331" x2="16.6668" y2="14.5331" gradientUnits="userSpaceOnUse">
<stop stop-color="#087CFA"/>
<stop offset="0.7942" stop-color="#231F20"/>
</linearGradient>
<linearGradient id="paint29_linear_2108_61215" x1="22.1073" y1="16.0264" x2="13.6109" y2="2.26784" gradientUnits="userSpaceOnUse">
<stop offset="0.3486" stop-color="#3595F3"/>
<stop offset="0.4019" stop-color="#3490EB"/>
<stop offset="0.4865" stop-color="#3284D4"/>
<stop offset="0.5918" stop-color="#2F6FAE"/>
<stop offset="0.7135" stop-color="#2B527B"/>
<stop offset="0.8476" stop-color="#252D39"/>
<stop offset="0.8951" stop-color="#231F20"/>
</linearGradient>
<linearGradient id="paint30_linear_2108_61215" x1="1.30357" y1="3.21941" x2="16.5519" y2="15.1086" gradientUnits="userSpaceOnUse">
<stop offset="0.0108952" stop-color="#7C0F13"/>
<stop offset="0.0756282" stop-color="#6C0D11"/>
<stop offset="0.2517" stop-color="#45080B"/>
<stop offset="0.4263" stop-color="#270506"/>
<stop offset="0.5969" stop-color="#110203"/>
<stop offset="0.7616" stop-color="#040101"/>
<stop offset="0.9138"/>
</linearGradient>
</defs>
</svg>
