<!-- Copyright 2000-2024 JetBrains s.r.o. and contributors. Use of this source code is governed by the Apache 2.0 license. -->
<svg width="48" height="48" viewBox="0 0 48 48" fill="none" xmlns="http://www.w3.org/2000/svg">
<g clip-path="url(#clip0_3917_59722)">
<path d="M44.9451 0H19.4689C18.2471 0 17.1426 0.728291 16.6613 1.85105L4.61026 29.969C4.4475 30.3491 4.36328 30.7588 4.36328 31.1725V44.9455C4.36328 46.6324 5.73084 48 7.41783 48H20.8923C21.4958 48 22.0858 47.8211 22.588 47.486L46.6395 31.4335C47.4887 30.8671 47.9983 29.9136 47.9983 28.8929L47.9996 3.05455C47.9996 1.36756 46.6321 0 44.9451 0Z" fill="url(#paint0_linear_3917_59722)"/>
<path d="M10.8895 4.36328H3.05455C1.36756 4.36328 0 5.73084 0 7.41783V17.2373C0 17.3818 0.0104727 17.5262 0.0305455 17.6693L3.98836 45.3771C4.20349 46.8821 5.49207 47.9996 7.01236 47.9996H18.7671C20.4545 47.9996 21.8221 46.6316 21.8217 44.9442L21.8182 31.0404C21.8182 30.7122 21.7654 30.3863 21.6615 30.0751L13.7873 6.45172C13.3715 5.20459 12.2042 4.36328 10.8895 4.36328Z" fill="url(#paint1_linear_3917_59722)"/>
<path d="M11.9607 4.36328L3.05411 4.36459C1.36756 4.36503 0 5.73259 0 7.41914V16.0491C0 16.9406 0.389673 17.788 1.06647 18.3684L29.6871 42.9007C30.2409 43.3751 30.946 43.636 31.6752 43.636H40.5818C42.2688 43.636 43.6364 42.2684 43.6364 40.5815V31.9502C43.6364 31.0587 43.2467 30.2113 42.5699 29.6309L13.9492 5.09899C13.3955 4.62423 12.6903 4.36372 11.9607 4.36372V4.36328Z" fill="#FF8100"/>
<path d="M39 9H9V39H39V9Z" fill="black"/>
<path d="M25 33H13V35.0001H25V33Z" fill="white"/>
<path d="M19.7993 19.4183C20.3965 19.1305 20.8544 18.7269 21.1742 18.2084C21.4987 17.6849 21.6612 17.0822 21.6612 16.4013C21.6612 15.7204 21.5012 15.1316 21.1818 14.6182C20.8675 14.1047 20.4171 13.707 19.8305 13.4242C19.2438 13.1414 18.5658 13 17.7957 13H13.0742V23.998H15.2189V19.8421H17.0668L19.4378 23.998H21.8968L19.2758 19.5917C19.4517 19.5357 19.6382 19.4953 19.7993 19.4183ZM15.2197 14.7831H17.6551C18.0166 14.7831 18.3306 14.8509 18.5978 14.9872C18.8701 15.1177 19.0797 15.3067 19.2262 15.5529C19.3726 15.7932 19.4463 16.0819 19.4463 16.4169C19.4463 16.7518 19.373 17.0376 19.2262 17.2888C19.0797 17.5355 18.8701 17.7257 18.5978 17.8625C18.3306 17.9929 18.0166 18.059 17.6551 18.059H15.2197V14.7831Z" fill="white"/>
<path d="M31.2575 13L29.0737 20.2196L28.9087 21.1623L28.7202 20.2196L26.4577 13H23.4727V23.9984H25.5857V16.1505L25.5542 15.632L28.0839 23.9984H29.6393L32.2002 15.5768L32.169 16.1505V23.9984H34.2901V13H31.2575Z" fill="white"/>
</g>
<defs>
<linearGradient id="paint0_linear_3917_59722" x1="3.16634" y1="45.014" x2="47.195" y2="0.984873" gradientUnits="userSpaceOnUse">
<stop offset="0.29" stop-color="#FF2358"/>
<stop offset="0.75" stop-color="#7256FF"/>
</linearGradient>
<linearGradient id="paint1_linear_3917_59722" x1="-0.538037" y1="5.71601" x2="18.1091" y2="45.9352" gradientUnits="userSpaceOnUse">
<stop offset="0.29" stop-color="#FF8100"/>
<stop offset="0.56" stop-color="#FF2358"/>
</linearGradient>
<clipPath id="clip0_3917_59722">
<rect width="48" height="48" fill="white"/>
</clipPath>
</defs>
</svg>
