<svg width="48" height="48" viewBox="0 0 48 48" fill="none" xmlns="http://www.w3.org/2000/svg">
<path d="M38.9 1.5L26 6.1L15.9 1.5L10.2 15.3L10.4 34.8L41.5999 35L46.5 10.3L38.9 1.5Z" fill="url(#paint0_linear_2108_61213)"/>
<path d="M9.8999 30.7L43.2999 11.7L38.8999 1.5L25.9999 6.1L15.8999 1.5L9.8999 14.8V30.7Z" fill="url(#paint1_linear_2108_61213)"/>
<path d="M9.8999 30.7L43.2999 11.7L38.8999 1.5L25.9999 6.1L9.8999 30.7Z" fill="url(#paint2_linear_2108_61213)"/>
<path d="M46.3 10.3L38.9 1.5L26 6.1L46.3 10.3Z" fill="url(#paint3_linear_2108_61213)"/>
<path d="M43.3001 11.7L41.6001 35L46.5001 10.3L43.3001 11.7Z" fill="url(#paint4_linear_2108_61213)"/>
<path d="M38.8999 1.5L43.2999 11.7L46.4999 10.3L38.8999 1.5Z" fill="url(#paint5_linear_2108_61213)"/>
<path d="M35.7 16L18 5.5L37.5 29.8L35.7 16Z" fill="url(#paint6_linear_2108_61213)"/>
<path d="M37 43.1L34.4 38.1L37.5 29.8L18 5.39999L1.5 9.49999V33.1L11 46.5L37 43.1Z" fill="url(#paint7_linear_2108_61213)"/>
<path d="M14.8 34.8L1.5 9.5V33.1L11 46.5L14.8 34.8Z" fill="url(#paint8_linear_2108_61213)"/>
<path d="M14.8 34.8L16.9 29.1L1.5 33.1L11 46.5L14.8 34.8Z" fill="url(#paint9_linear_2108_61213)"/>
<path d="M14.8 34.8L1.5 9.5V33.1L11 46.5L14.8 34.8Z" fill="url(#paint10_linear_2108_61213)"/>
<path d="M14.8 34.9L11 46.5L37 43.1L14.8 34.9Z" fill="url(#paint11_linear_2108_61213)"/>
<path d="M14.8 34.9L34.4001 38.1L37 43.1L14.8 34.9Z" fill="url(#paint12_linear_2108_61213)"/>
<path d="M11 46.5L34.4 38.1L37 43.1L11 46.5Z" fill="url(#paint13_linear_2108_61213)"/>
<path d="M36.9999 43.1L34.3999 38.1L28.8999 40.1L36.9999 43.1Z" fill="url(#paint14_linear_2108_61213)"/>
<path d="M18 5.39999L8.19995 22.2L14.8 34.8L35.5999 35L37.5 29.8L18 5.39999Z" fill="url(#paint15_linear_2108_61213)"/>
<path d="M14.8 34.9L34.4001 38.1L37.5 29.8L14.8 34.9Z" fill="url(#paint16_linear_2108_61213)"/>
<path d="M1.5 9.5V33.1L1.6 33.2V33.3L8.2 22.2L1.5 9.5Z" fill="url(#paint17_linear_2108_61213)"/>
<path d="M18 5.39999L1.5 9.49999L8.2 22.2L18 5.39999Z" fill="url(#paint18_linear_2108_61213)"/>
<path d="M13.7 6.49999L7.30005 20.5L8.20005 22.2L18 5.39999L13.7 6.49999Z" fill="url(#paint19_linear_2108_61213)"/>
<path d="M9.8999 19.3V25.4L11.9999 29.5L29.1999 19.5L17.9999 5.39999L9.8999 19.3Z" fill="url(#paint20_linear_2108_61213)"/>
<path d="M38 10H10V38H38V10Z" fill="url(#paint21_linear_2108_61213)"/>
<g opacity="0.3">
<path opacity="0.3" d="M38 10H12.5L10 15.3V38H38V10Z" fill="url(#paint22_linear_2108_61213)"/>
<path opacity="0.3" d="M10 38H34.4L37.4 29.8L21.6 10H10V38Z" fill="url(#paint23_linear_2108_61213)"/>
<path opacity="0.3" d="M10 14.9V30.7L38 14.7V10H12.2L10 14.9Z" fill="url(#paint24_linear_2108_61213)"/>
<path opacity="0.3" d="M38 10H12.5L10 15.3V38H38V10Z" fill="url(#paint25_linear_2108_61213)"/>
<path opacity="0.3" d="M34.3 38L30.8 31.6L15 34.5L13.8 38H34.3Z" fill="url(#paint26_linear_2108_61213)"/>
<path opacity="0.3" d="M37.4001 29.8L35.7001 16.1L25.5001 10H21.6001L37.4001 29.8Z" fill="url(#paint27_linear_2108_61213)"/>
<path opacity="0.3" d="M15.4 10H10V19.2L15.4 10Z" fill="url(#paint28_linear_2108_61213)"/>
<path opacity="0.3" d="M10 14.8V19.2L10.5 18.3L15.4 10H12.2L10 14.8Z" fill="url(#paint29_linear_2108_61213)"/>
</g>
<path d="M24 32.7H13.5V34.4H24V32.7Z" fill="white"/>
<path d="M23.8999 13.4H26.3999L29.0999 17.8L31.8999 13.4H34.3999V23.9H32.0999V17L29.0999 21.5L26.0999 17.1V23.9H23.8999V13.4Z" fill="white"/>
<path d="M13.5 13.4H18.3C19.6 13.4 20.7 13.8 21.4 14.5C22 15.1 22.3 15.9 22.3 16.9C22.3 17.8 22.1 18.4 21.7 19C21.3 19.5 20.7 19.9 20.1 20.2L22.7 24H19.9L17.7 20.8H15.8V24H13.5V13.4ZM18.1 18.5C18.7 18.5 19.1 18.4 19.4 18.1C19.7 17.8 19.9 17.5 19.9 17C19.9 16.5 19.7 16.1 19.4 15.9C19.1 15.6 18.7 15.5 18.1 15.5H15.8V18.5H18.1Z" fill="white"/>
<defs>
<linearGradient id="paint0_linear_2108_61213" x1="30.3495" y1="27.5275" x2="24.6633" y2="12.6011" gradientUnits="userSpaceOnUse">
<stop stop-color="#FE2857"/>
<stop offset="0.0562257" stop-color="#FE3052"/>
<stop offset="0.3252" stop-color="#FD533B"/>
<stop offset="0.5796" stop-color="#FC6C2A"/>
<stop offset="0.8114" stop-color="#FC7B20"/>
<stop offset="1" stop-color="#FC801D"/>
</linearGradient>
<linearGradient id="paint1_linear_2108_61213" x1="26.6221" y1="20.6964" x2="26.3164" y2="3.7007" gradientUnits="userSpaceOnUse">
<stop offset="0.3737" stop-color="#FEB51A"/>
<stop offset="0.4306" stop-color="#FEAD1A"/>
<stop offset="0.6448" stop-color="#FD941C"/>
<stop offset="0.8406" stop-color="#FC851D"/>
<stop offset="1" stop-color="#FC801D"/>
</linearGradient>
<linearGradient id="paint2_linear_2108_61213" x1="39.6564" y1="30.3532" x2="18.5024" y2="10.5552" gradientUnits="userSpaceOnUse">
<stop offset="0.3737" stop-color="#FEB51A"/>
<stop offset="0.417" stop-color="#FEAD1A"/>
<stop offset="0.5802" stop-color="#FD941C"/>
<stop offset="0.7294" stop-color="#FC851D"/>
<stop offset="0.8508" stop-color="#FC801D"/>
<stop offset="0.9836" stop-color="#F26522"/>
</linearGradient>
<linearGradient id="paint3_linear_2108_61213" x1="32.7495" y1="1.6175" x2="36.4736" y2="8.7332" gradientUnits="userSpaceOnUse">
<stop offset="0.0238963" stop-color="#FDB60D"/>
<stop offset="1" stop-color="#FF9600" stop-opacity="0"/>
</linearGradient>
<linearGradient id="paint4_linear_2108_61213" x1="44.9417" y1="34.412" x2="43.224" y2="11.1788" gradientUnits="userSpaceOnUse">
<stop offset="0.0133474" stop-color="#EE2A7B"/>
<stop offset="0.7157" stop-color="#FE2857"/>
<stop offset="0.9859" stop-color="#FC801D"/>
</linearGradient>
<linearGradient id="paint5_linear_2108_61213" x1="50.2453" y1="18.0104" x2="38.493" y2="2.5517" gradientUnits="userSpaceOnUse">
<stop stop-color="#FE2857"/>
<stop offset="0.1736" stop-color="#FE2C54"/>
<stop offset="0.1983" stop-color="#FE3051"/>
<stop offset="0.4268" stop-color="#FD533B"/>
<stop offset="0.6429" stop-color="#FC6C2A"/>
<stop offset="0.8398" stop-color="#FC7B20"/>
<stop offset="1" stop-color="#FC801D"/>
</linearGradient>
<linearGradient id="paint6_linear_2108_61213" x1="20.3903" y1="4.5124" x2="38.1995" y2="24.7623" gradientUnits="userSpaceOnUse">
<stop stop-color="#6B57FF"/>
<stop offset="1" stop-color="#FE2857"/>
</linearGradient>
<linearGradient id="paint7_linear_2108_61213" x1="1.3022" y1="9.01789" x2="30.227" y2="45.7866" gradientUnits="userSpaceOnUse">
<stop offset="0.0417113" stop-color="#7D11EF"/>
<stop offset="0.1162" stop-color="#A019CB"/>
<stop offset="0.2019" stop-color="#C220A8"/>
<stop offset="0.283" stop-color="#DA268F"/>
<stop offset="0.3569" stop-color="#E92980"/>
<stop offset="0.417" stop-color="#EE2A7B"/>
<stop offset="1" stop-color="#F26522"/>
</linearGradient>
<linearGradient id="paint8_linear_2108_61213" x1="-4.7807" y1="13.9713" x2="16.1172" y2="40.5364" gradientUnits="userSpaceOnUse">
<stop offset="0.00149909" stop-color="#6B57FF"/>
<stop offset="0.2483" stop-color="#FE2857"/>
<stop offset="0.6853" stop-color="#FE2857"/>
</linearGradient>
<linearGradient id="paint9_linear_2108_61213" x1="9.3652" y1="23.9547" x2="8.8958" y2="43.4314" gradientUnits="userSpaceOnUse">
<stop offset="0.00149909" stop-color="#FDB60D"/>
<stop offset="0.725" stop-color="#FE2857" stop-opacity="0"/>
</linearGradient>
<linearGradient id="paint10_linear_2108_61213" x1="12.9819" y1="24.6488" x2="6.3982" y2="27.9074" gradientUnits="userSpaceOnUse">
<stop offset="0.0238963" stop-color="#FF7100"/>
<stop offset="1" stop-color="#FF9600" stop-opacity="0"/>
</linearGradient>
<linearGradient id="paint11_linear_2108_61213" x1="18.6117" y1="28.1268" x2="25.3117" y2="48.7852" gradientUnits="userSpaceOnUse">
<stop offset="0.3361" stop-color="#FE2857"/>
<stop offset="0.3527" stop-color="#FE3052"/>
<stop offset="0.4321" stop-color="#FD533B"/>
<stop offset="0.5072" stop-color="#FC6C2A"/>
<stop offset="0.5757" stop-color="#FC7B20"/>
<stop offset="0.6313" stop-color="#FC801D"/>
<stop offset="0.9964" stop-color="#FFDE17"/>
</linearGradient>
<linearGradient id="paint12_linear_2108_61213" x1="21.2737" y1="24.6586" x2="29.2765" y2="49.3338" gradientUnits="userSpaceOnUse">
<stop offset="0.2209" stop-color="#EE2A7B"/>
<stop offset="0.6985" stop-color="#F7941D"/>
</linearGradient>
<linearGradient id="paint13_linear_2108_61213" x1="22.1227" y1="38.9524" x2="25.1735" y2="48.359" gradientUnits="userSpaceOnUse">
<stop offset="0.092793" stop-color="#F15A29"/>
<stop offset="0.3888" stop-color="#FC801D"/>
<stop offset="1" stop-color="#FEC519"/>
</linearGradient>
<linearGradient id="paint14_linear_2108_61213" x1="20.5518" y1="43.6355" x2="38.2103" y2="40.0797" gradientUnits="userSpaceOnUse">
<stop offset="0.092793" stop-color="#F15A29"/>
<stop offset="0.3888" stop-color="#FC801D"/>
<stop offset="0.8214" stop-color="#FEC519"/>
<stop offset="0.9894" stop-color="#FCF84A"/>
</linearGradient>
<linearGradient id="paint15_linear_2108_61213" x1="14.5577" y1="41.0446" x2="30.6766" y2="13.5476" gradientUnits="userSpaceOnUse">
<stop offset="0.0417113" stop-color="#7D11EF"/>
<stop offset="0.1162" stop-color="#A019CB"/>
<stop offset="0.2019" stop-color="#C220A8"/>
<stop offset="0.283" stop-color="#DA268F"/>
<stop offset="0.3569" stop-color="#E92980"/>
<stop offset="0.417" stop-color="#EE2A7B"/>
</linearGradient>
<linearGradient id="paint16_linear_2108_61213" x1="24.3248" y1="26.7768" x2="29.2767" y2="42.0453" gradientUnits="userSpaceOnUse">
<stop stop-color="#F7941D" stop-opacity="0"/>
<stop offset="0.5473" stop-color="#FB851D" stop-opacity="0.5473"/>
<stop offset="1" stop-color="#FC801D"/>
</linearGradient>
<linearGradient id="paint17_linear_2108_61213" x1="-4.317" y1="10.6576" x2="7.023" y2="31.3374" gradientUnits="userSpaceOnUse">
<stop offset="0.1915" stop-color="#7D11EF"/>
<stop offset="0.2818" stop-color="#A019CB"/>
<stop offset="0.3858" stop-color="#C220A8"/>
<stop offset="0.4842" stop-color="#DA268F"/>
<stop offset="0.5738" stop-color="#E92980"/>
<stop offset="0.6467" stop-color="#EE2A7B"/>
</linearGradient>
<linearGradient id="paint18_linear_2108_61213" x1="7.983" y1="4.54139" x2="15.7593" y2="18.7224" gradientUnits="userSpaceOnUse">
<stop offset="0.1915" stop-color="#7D11EF"/>
<stop offset="0.2818" stop-color="#A019CB"/>
<stop offset="0.3858" stop-color="#C220A8"/>
<stop offset="0.4842" stop-color="#DA268F"/>
<stop offset="0.5738" stop-color="#E92980"/>
<stop offset="0.6467" stop-color="#EE2A7B"/>
<stop offset="1" stop-color="#F26522"/>
</linearGradient>
<linearGradient id="paint19_linear_2108_61213" x1="18.3946" y1="-3.21501" x2="8.25085" y2="25.2483" gradientUnits="userSpaceOnUse">
<stop offset="0.1915" stop-color="#7D11EF"/>
<stop offset="0.2818" stop-color="#A019CB"/>
<stop offset="0.3858" stop-color="#C220A8"/>
<stop offset="0.4842" stop-color="#DA268F"/>
<stop offset="0.5738" stop-color="#E92980"/>
<stop offset="0.6467" stop-color="#EE2A7B"/>
<stop offset="1" stop-color="#F26522"/>
</linearGradient>
<linearGradient id="paint20_linear_2108_61213" x1="28.7569" y1="27.5157" x2="7.419" y2="11.9477" gradientUnits="userSpaceOnUse">
<stop offset="0.0417113" stop-color="#FFDE17"/>
<stop offset="0.0429608" stop-color="#FFDD18"/>
<stop offset="0.1145" stop-color="#FAA736"/>
<stop offset="0.1843" stop-color="#F67A4E"/>
<stop offset="0.2509" stop-color="#F25762"/>
<stop offset="0.3136" stop-color="#F03E70"/>
<stop offset="0.3706" stop-color="#EE2F78"/>
<stop offset="0.417" stop-color="#EE2A7B"/>
</linearGradient>
<linearGradient id="paint21_linear_2108_61213" x1="5.7377" y1="9.7607" x2="37.7591" y2="34.7281" gradientUnits="userSpaceOnUse">
<stop offset="0.0108952" stop-color="#7C0F13"/>
<stop offset="0.0756282" stop-color="#6C0D11"/>
<stop offset="0.2517" stop-color="#45080B"/>
<stop offset="0.4263" stop-color="#270506"/>
<stop offset="0.5969" stop-color="#110203"/>
<stop offset="0.7616" stop-color="#040101"/>
<stop offset="0.9138"/>
</linearGradient>
<linearGradient id="paint22_linear_2108_61213" x1="37.2062" y1="39.1819" x2="20.9856" y2="20.5346" gradientUnits="userSpaceOnUse">
<stop stop-color="#801E02"/>
<stop offset="0.1961" stop-color="#AC410C"/>
<stop offset="0.3865" stop-color="#CF5C13"/>
<stop offset="0.5655" stop-color="#E87019"/>
<stop offset="0.7285" stop-color="#F77C1C"/>
<stop offset="0.8611" stop-color="#FC801D"/>
</linearGradient>
<linearGradient id="paint23_linear_2108_61213" x1="31.5646" y1="43.0533" x2="15.4246" y2="23.5534" gradientUnits="userSpaceOnUse">
<stop stop-color="#45002D"/>
<stop offset="0.06907" stop-color="#720B42"/>
<stop offset="0.1487" stop-color="#9E1656"/>
<stop offset="0.2255" stop-color="#C11F66"/>
<stop offset="0.2977" stop-color="#DA2572"/>
<stop offset="0.3635" stop-color="#E92979"/>
<stop offset="0.417" stop-color="#EE2A7B"/>
<stop offset="1" stop-color="#F26522"/>
</linearGradient>
<linearGradient id="paint24_linear_2108_61213" x1="14.5184" y1="13.3389" x2="24.4797" y2="20.6923" gradientUnits="userSpaceOnUse">
<stop offset="0.3737" stop-color="#FEB51A"/>
<stop offset="0.4306" stop-color="#FEAD1A"/>
<stop offset="0.6448" stop-color="#FD941C"/>
<stop offset="0.8406" stop-color="#FC851D"/>
<stop offset="1" stop-color="#FC801D"/>
</linearGradient>
<linearGradient id="paint25_linear_2108_61213" x1="16.9132" y1="7.9365" x2="29.3985" y2="36.2365" gradientUnits="userSpaceOnUse">
<stop stop-color="#FE2857"/>
<stop offset="0.0940498" stop-color="#E7254E"/>
<stop offset="0.3015" stop-color="#BB1E3D"/>
<stop offset="0.5015" stop-color="#98192F"/>
<stop offset="0.6896" stop-color="#7F1525"/>
<stop offset="0.8608" stop-color="#70131F"/>
<stop offset="1" stop-color="#6B121D"/>
</linearGradient>
<linearGradient id="paint26_linear_2108_61213" x1="37.1864" y1="32.2246" x2="11.8425" y2="40.3846" gradientUnits="userSpaceOnUse">
<stop offset="0.0794007" stop-color="#70193B"/>
<stop offset="0.23" stop-color="#962D38"/>
<stop offset="0.4689" stop-color="#CE4B33"/>
<stop offset="0.6473" stop-color="#F05D30"/>
<stop offset="0.7435" stop-color="#FD642F"/>
</linearGradient>
<linearGradient id="paint27_linear_2108_61213" x1="44.5898" y1="32.0179" x2="18.1898" y2="2.258" gradientUnits="userSpaceOnUse">
<stop stop-color="#6B57FF"/>
<stop offset="1" stop-color="#FE2857"/>
</linearGradient>
<linearGradient id="paint28_linear_2108_61213" x1="9.8073" y1="9.3374" x2="14.1615" y2="17.2777" gradientUnits="userSpaceOnUse">
<stop offset="0.1915" stop-color="#7D11EF"/>
<stop offset="0.2818" stop-color="#A019CB"/>
<stop offset="0.3858" stop-color="#C220A8"/>
<stop offset="0.4842" stop-color="#DA268F"/>
<stop offset="0.5738" stop-color="#E92980"/>
<stop offset="0.6467" stop-color="#EE2A7B"/>
<stop offset="1" stop-color="#F26522"/>
</linearGradient>
<linearGradient id="paint29_linear_2108_61213" x1="15.2569" y1="5.1546" x2="9.7107" y2="20.717" gradientUnits="userSpaceOnUse">
<stop offset="0.1915" stop-color="#7D11EF"/>
<stop offset="0.2818" stop-color="#A019CB"/>
<stop offset="0.3858" stop-color="#C220A8"/>
<stop offset="0.4842" stop-color="#DA268F"/>
<stop offset="0.5738" stop-color="#E92980"/>
<stop offset="0.6467" stop-color="#EE2A7B"/>
<stop offset="1" stop-color="#F26522"/>
</linearGradient>
</defs>
</svg>
