<!-- Copyright 2000-2024 JetBrains s.r.o. and contributors. Use of this source code is governed by the Apache 2.0 license. -->
<svg width="20" height="20" viewBox="0 0 20 20" fill="none" xmlns="http://www.w3.org/2000/svg">
<g clip-path="url(#clip0_3917_59721)">
<g clip-path="url(#clip1_3917_59721)">
<path d="M1.81641 15.0167L1.81695 18.7278C1.81695 19.4307 2.38677 20.0004 3.08968 20.0004H6.6855C7.05695 20.0004 7.41004 19.838 7.65186 19.556L17.8737 7.63054C18.0713 7.39981 18.18 7.10599 18.18 6.80218V3.09109C18.18 2.38818 17.6102 1.81836 16.9073 1.81836H13.3109C12.9395 1.81836 12.5864 1.98072 12.3446 2.26272L2.12277 14.1882C1.92495 14.4189 1.81641 14.7127 1.81641 15.0167Z" fill="#00D886"/>
<path d="M1.81641 15.4633V18.7278C1.81641 19.4307 2.38622 20.0006 3.08913 20.0006H7.18059C7.24077 20.0006 7.30095 19.9962 7.36059 19.9878L18.9055 18.3387C19.5326 18.2491 19.9982 17.7122 19.9982 17.0787V12.1809C19.9982 11.4778 19.4282 10.908 18.7251 10.9082L12.9319 10.9097C12.7951 10.9097 12.6593 10.9317 12.5297 10.9749L2.68659 14.256C2.16695 14.4293 1.81641 14.9157 1.81641 15.4635V15.4633Z" fill="url(#paint0_linear_3917_59721)"/>
<path d="M0 1.27273V11.8878C0 12.3969 0.303454 12.8571 0.771273 13.0576L12.4871 18.0789C12.6455 18.1467 12.8162 18.1818 12.9885 18.1818H18.7273C19.4302 18.1818 20 17.612 20 16.9091V11.2947C20 11.0433 19.9254 10.7975 19.7858 10.5882L13.0973 0.566727C12.8613 0.212909 12.4642 0.000545454 12.0387 0.000545454L1.27273 0C0.569818 0 0 0.569818 0 1.27273Z" fill="url(#paint1_linear_3917_59721)"/>
<path d="M16.6654 3.33398H3.33203V16.6673H16.6654V3.33398Z" fill="black"/>
<path d="M13.8447 10.0617L12.6596 8.06779C12.7386 8.04265 12.8226 8.02437 12.8954 7.99065C13.1657 7.85732 13.3731 7.67503 13.5177 7.4396C13.6645 7.20398 13.738 6.93294 13.738 6.6217C13.738 6.31046 13.6657 6.04837 13.5211 5.81732C13.3788 5.58627 13.175 5.40398 12.9095 5.27503C12.6439 5.14608 12.3371 5.08398 11.9885 5.08398H9.85156V10.0617H10.8222V8.1817H11.6599L12.7316 10.0617H13.8445H13.8447ZM10.8226 5.89294H11.9249C12.0885 5.89294 12.2306 5.92398 12.3516 5.98189C12.4748 6.04398 12.5697 6.12856 12.6359 6.23979C12.7022 6.35084 12.7356 6.47979 12.7356 6.63084C12.7356 6.78189 12.7024 6.91084 12.6359 7.02646C12.5695 7.13751 12.4748 7.22208 12.3516 7.28418C12.2306 7.34646 12.0885 7.37313 11.9249 7.37313H10.8226V5.89313V5.89294Z" fill="white"/>
<path d="M6.11539 8.1817H6.9531L8.02472 10.0617H9.13767L7.95253 8.06779C8.03158 8.04265 8.11558 8.02437 8.18834 7.99065C8.45863 7.85732 8.66586 7.67503 8.81063 7.4396C8.95748 7.20398 9.03101 6.93294 9.03101 6.6217C9.03101 6.31046 8.95863 6.04837 8.81405 5.81732C8.67177 5.58627 8.46796 5.40398 8.20244 5.27503C7.93691 5.14608 7.63005 5.08398 7.28148 5.08398H5.14453V10.0617H6.1152V8.1817H6.11539ZM6.11539 5.89294H7.21767C7.38129 5.89294 7.52339 5.92398 7.64434 5.98189C7.76758 6.04398 7.86244 6.12856 7.92891 6.23979C7.9952 6.35084 8.02853 6.47979 8.02853 6.63084C8.02853 6.78189 7.99539 6.91084 7.92891 7.02646C7.86244 7.13751 7.76777 7.22208 7.64434 7.28418C7.52339 7.34646 7.38129 7.37313 7.21767 7.37313H6.11539V5.89313V5.89294Z" fill="white"/>
<path d="M10 14.166H5V14.9993H10V14.166Z" fill="white"/>
</g>
</g>
<defs>
<linearGradient id="paint0_linear_3917_59721" x1="2.37986" y1="20.2247" x2="19.138" y2="12.4551" gradientUnits="userSpaceOnUse">
<stop offset="0.08" stop-color="#00D886"/>
<stop offset="0.46" stop-color="#FFAB00"/>
</linearGradient>
<linearGradient id="paint1_linear_3917_59721" x1="18.7558" y1="18.6805" x2="0.410365" y2="0.335271" gradientUnits="userSpaceOnUse">
<stop offset="0.19" stop-color="#FFAB00"/>
<stop offset="0.83" stop-color="#FF004C"/>
</linearGradient>
<clipPath id="clip0_3917_59721">
<rect width="20" height="20" fill="white"/>
</clipPath>
<clipPath id="clip1_3917_59721">
<rect width="20" height="20" fill="white"/>
</clipPath>
</defs>
</svg>
