<svg width="20" height="20" viewBox="0 0 20 20" fill="none" xmlns="http://www.w3.org/2000/svg">
<g clip-path="url(#clip0_2108_61212)">
<g clip-path="url(#clip1_2108_61212)">
<path d="M13.5478 0.668945L18.9026 4.49959L13.4021 11.6827L8.15967 5.61886L13.5478 0.668945Z" fill="url(#paint0_linear_2108_61212)"/>
<path d="M13.5478 0.668945L18.9026 4.49959L11.9723 7.70723L8.15967 5.61886L13.5478 0.668945Z" fill="url(#paint1_linear_2108_61212)"/>
<path d="M13.5478 0.668945L11.9723 7.70723L8.15967 5.61886L13.5478 0.668945Z" fill="url(#paint2_linear_2108_61212)"/>
<path d="M19.3343 12.1411L12.0106 7.6525L2.74512 14.1875L4.93489 18.4001L19.3343 12.1411Z" fill="url(#paint3_linear_2108_61212)"/>
<path d="M19.3343 12.1411L15.0793 9.55212L9.98837 10.8699L4.99561 19.3356L19.3343 12.1411Z" fill="url(#paint4_linear_2108_61212)"/>
<path d="M15.0224 9.56689L19.3344 12.1411L13.0205 12.2254L15.0224 9.56689Z" fill="url(#paint5_linear_2108_61212)"/>
<path d="M10.9002 10.5934L6.9939 18.3625L13.0206 12.2253L10.9002 10.5934Z" fill="url(#paint6_linear_2108_61212)"/>
<path d="M4.70057 0.801819L14.5696 3.24221L4.99566 19.3356L0.667725 12.3619L4.70057 0.801819Z" fill="url(#paint7_linear_2108_61212)"/>
<path d="M14.5697 3.24222L10.4003 6.01294L4.99121 19.1933L5.18258 19.0216L6.99388 18.3625L14.5697 3.24222Z" fill="url(#paint8_linear_2108_61212)"/>
<path d="M4.70068 0.801819L11.557 2.49952L8.9905 4.83693L4.70068 0.801819Z" fill="url(#paint9_linear_2108_61212)"/>
<path d="M14.5696 3.2422L11.5526 2.49619L11.5569 2.49948L8.99048 4.83687L10.2505 6.08822L14.5696 3.2422Z" fill="url(#paint10_linear_2108_61212)"/>
<path d="M4.99111 19.1933L0.667725 12.3619L8.99045 4.83688L10.2505 6.08823L4.99111 19.1933Z" fill="url(#paint11_linear_2108_61212)"/>
<path d="M4.99111 19.1933L0.667725 12.3619L8.99045 4.83688L10.2505 6.08823L4.99111 19.1933Z" fill="url(#paint12_linear_2108_61212)"/>
<path d="M4.99111 19.1933L0.667725 12.3619L8.99045 4.83688L10.2505 6.08823L4.99111 19.1933Z" fill="url(#paint13_linear_2108_61212)"/>
<path d="M4.70057 0.801819L0.667725 12.3619L8.99044 4.83688L4.70057 0.801819Z" fill="url(#paint14_linear_2108_61212)"/>
<path d="M10.9099 10.5809L15.0582 9.52026L12.2872 7.81021L10.9099 10.5809Z" fill="url(#paint15_linear_2108_61212)"/>
</g>
<path d="M15.8334 4.16666H4.16675V15.8333H15.8334V4.16666Z" fill="url(#paint16_linear_2108_61212)"/>
<path d="M10.8335 13.3333H5.8335V14.1666H10.8335V13.3333Z" fill="white"/>
<path d="M5.8335 5.83331H7.8335C8.41683 5.83331 8.91683 5.99998 9.16683 6.33331C9.41683 6.58331 9.5835 6.99998 9.5835 7.49998C9.5835 8.33331 9.16683 8.83331 8.5835 9.08331L9.66683 10.8333H8.5835L7.5835 9.24998H6.8335V10.8333H5.8335V5.83331ZM7.8335 8.24998C8.3335 8.24998 8.5835 7.99998 8.5835 7.49998C8.5835 6.99998 8.25016 6.74998 7.8335 6.74998H6.8335V8.24998H7.8335Z" fill="white"/>
<path d="M10.4167 5.83331H12.4167C13.0001 5.83331 13.5001 5.99998 13.7501 6.33331C14.0001 6.58331 14.1667 6.99998 14.1667 7.49998C14.1667 8.33331 13.7501 8.83331 13.1667 9.08331L14.2501 10.8333H13.1667L12.1667 9.24998H11.4167V10.8333H10.4167V5.83331ZM12.4167 8.24998C12.9167 8.24998 13.1667 7.99998 13.1667 7.49998C13.1667 6.99998 12.8334 6.74998 12.4167 6.74998H11.4167V8.24998H12.4167Z" fill="white"/>
</g>
<defs>
<linearGradient id="paint0_linear_2108_61212" x1="11.8026" y1="9.4592" x2="14.7016" y2="2.07981" gradientUnits="userSpaceOnUse">
<stop offset="0.04937" stop-color="#219E89"/>
<stop offset="0.27923" stop-color="#21BD89"/>
<stop offset="0.75337" stop-color="#6EDD88"/>
<stop offset="1" stop-color="#71DE88"/>
</linearGradient>
<linearGradient id="paint1_linear_2108_61212" x1="14.2473" y1="1.52464" x2="12.3087" y2="11.0924" gradientUnits="userSpaceOnUse">
<stop stop-color="#5EF789"/>
<stop offset="0.1634" stop-color="#21D789"/>
<stop offset="0.50492" stop-color="#0EA67B"/>
<stop offset="0.98215" stop-color="#21D789"/>
</linearGradient>
<linearGradient id="paint2_linear_2108_61212" x1="8.68384" y1="8.55648" x2="15.1807" y2="-0.343869" gradientUnits="userSpaceOnUse">
<stop offset="0.38956" stop-color="#5EF789"/>
<stop offset="0.63623" stop-color="#21D789"/>
<stop offset="0.92822" stop-color="#0EA67B"/>
</linearGradient>
<linearGradient id="paint3_linear_2108_61212" x1="16.6217" y1="5.14191" x2="6.92592" y2="19.0766" gradientUnits="userSpaceOnUse">
<stop offset="0.24437" stop-color="#21D789"/>
<stop offset="0.89126" stop-color="#FDB60D"/>
</linearGradient>
<linearGradient id="paint4_linear_2108_61212" x1="19.733" y1="4.21655" x2="9.50518" y2="18.9159" gradientUnits="userSpaceOnUse">
<stop stop-color="#21D789"/>
<stop offset="1" stop-color="#FDB60D"/>
</linearGradient>
<linearGradient id="paint5_linear_2108_61212" x1="16.1355" y1="13.2609" x2="16.2484" y2="10.3623" gradientUnits="userSpaceOnUse">
<stop offset="0.06498" stop-color="#037F5C"/>
<stop offset="0.89819" stop-color="#038E5C" stop-opacity="0"/>
</linearGradient>
<linearGradient id="paint6_linear_2108_61212" x1="14.1042" y1="10.5029" x2="3.90258" y2="18.3661" gradientUnits="userSpaceOnUse">
<stop stop-color="#21BD89"/>
<stop offset="0.73314" stop-color="#FDB60D"/>
</linearGradient>
<linearGradient id="paint7_linear_2108_61212" x1="9.5215" y1="1.77984" x2="4.83294" y2="16.6184" gradientUnits="userSpaceOnUse">
<stop stop-color="#FE2857"/>
<stop offset="1" stop-color="#FDB60D"/>
</linearGradient>
<linearGradient id="paint8_linear_2108_61212" x1="14.4478" y1="0.903703" x2="5.49907" y2="18.4628" gradientUnits="userSpaceOnUse">
<stop offset="0.1207" stop-color="#FD7430"/>
<stop offset="0.25438" stop-color="#FDB60D"/>
<stop offset="0.53455" stop-color="#FE2857"/>
<stop offset="0.91392" stop-color="#FDB60D"/>
</linearGradient>
<linearGradient id="paint9_linear_2108_61212" x1="4.32814" y1="3.99637" x2="10.0885" y2="1.30323" gradientUnits="userSpaceOnUse">
<stop offset="0.21599" stop-color="#BE0059"/>
<stop offset="0.88355" stop-color="#FE2857" stop-opacity="0"/>
</linearGradient>
<linearGradient id="paint10_linear_2108_61212" x1="12.5147" y1="5.75772" x2="11.1108" y2="2.47431" gradientUnits="userSpaceOnUse">
<stop offset="0.45951" stop-color="#FE2857"/>
<stop offset="0.85318" stop-color="#FDB60D"/>
<stop offset="1" stop-color="#FDFFA1"/>
</linearGradient>
<linearGradient id="paint11_linear_2108_61212" x1="12.8935" y1="2.55619" x2="2.14066" y2="16.6824" gradientUnits="userSpaceOnUse">
<stop offset="0.27215" stop-color="#FE2857"/>
<stop offset="1" stop-color="#FDB60D"/>
</linearGradient>
<linearGradient id="paint12_linear_2108_61212" x1="11.9041" y1="17.447" x2="5.4156" y2="10.1664" gradientUnits="userSpaceOnUse">
<stop offset="0.3899" stop-color="#FDD468"/>
<stop offset="0.97479" stop-color="#FDB60D" stop-opacity="0"/>
</linearGradient>
<linearGradient id="paint13_linear_2108_61212" x1="7.33373" y1="12.1495" x2="0.95146" y2="9.64725" gradientUnits="userSpaceOnUse">
<stop offset="0.34967" stop-color="#FDB60D" stop-opacity="0"/>
<stop offset="0.98508" stop-color="#FDFFA1"/>
</linearGradient>
<linearGradient id="paint14_linear_2108_61212" x1="7.03199" y1="1.62755" x2="3.88454" y2="11.5887" gradientUnits="userSpaceOnUse">
<stop offset="0.02988" stop-color="#FF7F39"/>
<stop offset="0.1294" stop-color="#FE2857"/>
<stop offset="1" stop-color="#FDB60D"/>
</linearGradient>
<linearGradient id="paint15_linear_2108_61212" x1="9.08667" y1="12.3805" x2="13.5269" y2="8.78336" gradientUnits="userSpaceOnUse">
<stop offset="0.06498" stop-color="#037F5C"/>
<stop offset="0.89819" stop-color="#038E5C" stop-opacity="0"/>
</linearGradient>
<linearGradient id="paint16_linear_2108_61212" x1="3.97576" y1="3.97567" x2="14.9761" y2="14.9761" gradientUnits="userSpaceOnUse">
<stop offset="0.0284813" stop-color="#5A1F3A"/>
<stop offset="0.0797561" stop-color="#4E1B32"/>
<stop offset="0.2774" stop-color="#260D18"/>
<stop offset="0.3795" stop-color="#16080E"/>
<stop offset="0.3907" stop-color="#15080E"/>
<stop offset="0.6833" stop-color="#060204"/>
<stop offset="0.9138"/>
</linearGradient>
<clipPath id="clip0_2108_61212">
<rect width="20" height="20" fill="white"/>
</clipPath>
<clipPath id="clip1_2108_61212">
<rect width="18.6667" height="18.6667" fill="white" transform="translate(0.667725 0.668945)"/>
</clipPath>
</defs>
</svg>
