<!-- Copyright 2000-2024 JetBrains s.r.o. and contributors. Use of this source code is governed by the Apache 2.0 license. -->
<svg width="24" height="24" viewBox="0 0 24 24" fill="none" xmlns="http://www.w3.org/2000/svg">
<g clip-path="url(#clip0_3917_59720)">
<g clip-path="url(#clip1_3917_59720)">
<path d="M2.18359 18.0197L2.18425 22.473C2.18425 23.3165 2.86803 24 3.71152 24H8.0265C8.47225 24 8.89596 23.8052 9.18614 23.4668L21.4523 9.15626C21.6895 8.87939 21.82 8.5268 21.82 8.16222V3.70891C21.82 2.86542 21.1362 2.18164 20.2927 2.18164H15.977C15.5313 2.18164 15.1076 2.37648 14.8174 2.71488L2.55123 17.0254C2.31385 17.3023 2.18359 17.6549 2.18359 18.0197Z" fill="#00D886"/>
<path d="M2.18359 18.556V22.4734C2.18359 23.3169 2.86738 24.0007 3.71087 24.0007H8.62061C8.69283 24.0007 8.76505 23.9954 8.83661 23.9854L22.6905 22.0065C23.443 21.8989 24.0018 21.2546 24.0018 20.4945V14.6171C24.0018 13.7734 23.3178 13.0896 22.4741 13.0898L15.5221 13.0916C15.3581 13.0916 15.1951 13.118 15.0395 13.1699L3.22781 17.1072C2.60425 17.3152 2.18359 17.8988 2.18359 18.5562V18.556Z" fill="url(#paint0_linear_3917_59720)"/>
<path d="M0 1.52727V14.2654C0 14.8763 0.364145 15.4285 0.925527 15.6692L14.9845 21.6947C15.1745 21.7761 15.3794 21.8182 15.5863 21.8182H22.4727C23.3162 21.8182 24 21.1344 24 20.2909V13.5537C24 13.2519 23.9105 12.9569 23.743 12.7058L15.7167 0.680073C15.4335 0.255491 14.957 0.000654545 14.4465 0.000654545L1.52727 0C0.683782 0 0 0.683782 0 1.52727Z" fill="url(#paint1_linear_3917_59720)"/>
<path d="M20 4H4V20H20V4Z" fill="black"/>
<path d="M16.6121 12.0729L15.1899 9.68018C15.2848 9.65001 15.3856 9.62807 15.4729 9.58761C15.7972 9.42761 16.0461 9.20887 16.2196 8.92635C16.3959 8.64361 16.4841 8.31835 16.4841 7.94487C16.4841 7.57138 16.3972 7.25687 16.2237 6.97961C16.053 6.70235 15.8084 6.48361 15.4898 6.32887C15.1712 6.17412 14.8029 6.09961 14.3847 6.09961H11.8203V12.0729H12.9851V9.81687H13.9904L15.2763 12.0729H16.6119H16.6121ZM12.9856 7.07035H14.3083C14.5047 7.07035 14.6752 7.10761 14.8203 7.1771C14.9682 7.25161 15.082 7.3531 15.1616 7.48658C15.2411 7.61984 15.2811 7.77458 15.2811 7.95584C15.2811 8.1371 15.2413 8.29184 15.1616 8.43058C15.0818 8.56384 14.9682 8.66532 14.8203 8.73984C14.6752 8.81458 14.5047 8.84658 14.3083 8.84658H12.9856V7.07058V7.07035Z" fill="white"/>
<path d="M7.3369 9.81687H8.34216L9.6281 12.0729H10.9636L9.54147 9.68018C9.63633 9.65001 9.73713 9.62807 9.82445 9.58761C10.1488 9.42761 10.3975 9.20887 10.5712 8.92635C10.7474 8.64361 10.8356 8.31835 10.8356 7.94487C10.8356 7.57138 10.7488 7.25687 10.5753 6.97961C10.4046 6.70235 10.16 6.48361 9.84136 6.32887C9.52273 6.17412 9.1545 6.09961 8.73622 6.09961H6.17188V12.0729H7.33667V9.81687H7.3369ZM7.3369 7.07035H8.65965C8.85599 7.07035 9.0265 7.10761 9.17165 7.1771C9.31953 7.25161 9.43336 7.3531 9.51313 7.48658C9.59267 7.61984 9.63268 7.77458 9.63268 7.95584C9.63268 8.1371 9.5929 8.29184 9.51313 8.43058C9.43336 8.56384 9.31976 8.66532 9.17165 8.73984C9.0265 8.81458 8.85599 8.84658 8.65965 8.84658H7.3369V7.07058V7.07035Z" fill="white"/>
<path d="M12 17H6V18H12V17Z" fill="white"/>
</g>
</g>
<defs>
<linearGradient id="paint0_linear_3917_59720" x1="2.85974" y1="24.2697" x2="22.9696" y2="14.9461" gradientUnits="userSpaceOnUse">
<stop offset="0.08" stop-color="#00D886"/>
<stop offset="0.46" stop-color="#FFAB00"/>
</linearGradient>
<linearGradient id="paint1_linear_3917_59720" x1="22.507" y1="22.4166" x2="0.492437" y2="0.402326" gradientUnits="userSpaceOnUse">
<stop offset="0.19" stop-color="#FFAB00"/>
<stop offset="0.83" stop-color="#FF004C"/>
</linearGradient>
<clipPath id="clip0_3917_59720">
<rect width="24" height="24" fill="white"/>
</clipPath>
<clipPath id="clip1_3917_59720">
<rect width="24" height="24" fill="white"/>
</clipPath>
</defs>
</svg>
