<!-- Copyright 2000-2024 JetBrains s.r.o. and contributors. Use of this source code is governed by the Apache 2.0 license. -->
<svg width="48" height="48" viewBox="0 0 48 48" fill="none" xmlns="http://www.w3.org/2000/svg">
<g clip-path="url(#clip0_3917_59719)">
<g clip-path="url(#clip1_3917_59719)">
<path d="M4.36328 36.0393L4.36459 44.946C4.36459 46.6329 5.73215 48.0001 7.41913 48.0001H16.0491C16.9406 48.0001 17.788 47.6104 18.3684 46.9336L42.9007 18.3125C43.3751 17.7588 43.636 17.0536 43.636 16.3244V7.41783C43.636 5.73084 42.2684 4.36328 40.5815 4.36328H31.9502C31.0587 4.36328 30.2113 4.75295 29.6309 5.42975L5.09855 34.0508C4.62379 34.6046 4.36328 35.3097 4.36328 36.0393Z" fill="#00D886"/>
<path d="M4.36328 37.11V44.9449C4.36328 46.6318 5.73084 47.9994 7.41783 47.9994H17.2373C17.3818 47.9994 17.5262 47.9889 17.6693 47.9689L45.3771 44.011C46.8821 43.7959 47.9996 42.5073 47.9996 40.987V29.2323C47.9996 27.5449 46.6316 26.1773 44.9442 26.1777L31.0404 26.1812C30.7122 26.1812 30.3863 26.234 30.0751 26.3379L6.45172 34.2125C5.20459 34.6284 4.36328 35.7956 4.36328 37.1104V37.11Z" fill="url(#paint0_linear_3917_59719)"/>
<path d="M0 3.05454V28.5308C0 29.7526 0.728291 30.857 1.85105 31.3383L29.969 43.3894C30.3491 43.5521 30.7588 43.6364 31.1725 43.6364H44.9454C46.6324 43.6364 48 42.2688 48 40.5818V27.1073C48 26.5038 47.8211 25.9139 47.4859 25.4116L31.4334 1.36015C30.867 0.510982 29.914 0.00130909 28.8929 0.00130909L3.05454 0C1.36756 0 0 1.36756 0 3.05454Z" fill="url(#paint1_linear_3917_59719)"/>
<path d="M39 9H9V39H39V9Z" fill="black"/>
<path d="M32.487 23.9984L29.8684 19.5928C30.0431 19.5373 30.2287 19.4969 30.3894 19.4224C30.9866 19.1278 31.445 18.725 31.7644 18.2048C32.0889 17.6842 32.2513 17.0853 32.2513 16.3976C32.2513 15.7099 32.0914 15.1308 31.772 14.6203C31.4576 14.1098 31.0073 13.707 30.4206 13.4221C29.8339 13.1372 29.1559 13 28.3857 13H23.6641V23.9984H25.8088V19.8445H27.6597L30.0275 23.9984H32.4866H32.487ZM25.8096 14.7874H28.2452C28.6067 14.7874 28.9206 14.856 29.1879 14.9839C29.4602 15.1211 29.6698 15.308 29.8162 15.5538C29.9627 15.7992 30.0363 16.0841 30.0363 16.4178C30.0363 16.7516 29.9631 17.0365 29.8162 17.292C29.6693 17.5373 29.4602 17.7242 29.1879 17.8614C28.9206 17.999 28.6067 18.0579 28.2452 18.0579H25.8096V14.7878V14.7874Z" fill="white"/>
<path d="M15.2194 19.8445H17.0703L19.4381 23.9984H21.8972L19.2786 19.5928C19.4532 19.5373 19.6388 19.4969 19.7996 19.4224C20.3968 19.1278 20.8547 18.725 21.1746 18.2048C21.499 17.6842 21.6615 17.0853 21.6615 16.3976C21.6615 15.7099 21.5016 15.1308 21.1821 14.6203C20.8678 14.1098 20.4174 13.707 19.8307 13.4221C19.2441 13.1372 18.5661 13 17.7959 13H13.0742V23.9984H15.2189V19.8445H15.2194ZM15.2194 14.7874H17.6549C18.0164 14.7874 18.3304 14.856 18.5976 14.9839C18.8699 15.1211 19.0795 15.308 19.2264 15.5538C19.3728 15.7992 19.4465 16.0841 19.4465 16.4178C19.4465 16.7516 19.3733 17.0365 19.2264 17.292C19.0795 17.5373 18.8703 17.7242 18.5976 17.8614C18.3304 17.999 18.0164 18.0579 17.6549 18.0579H15.2194V14.7878V14.7874Z" fill="white"/>
<path d="M25 33H13V35.0001H25V33Z" fill="white"/>
</g>
</g>
<defs>
<linearGradient id="paint0_linear_3917_59719" x1="5.71557" y1="48.5374" x2="45.9352" y2="29.8903" gradientUnits="userSpaceOnUse">
<stop offset="0.08" stop-color="#00D886"/>
<stop offset="0.46" stop-color="#FFAB00"/>
</linearGradient>
<linearGradient id="paint1_linear_3917_59719" x1="45.014" y1="44.8333" x2="0.984874" y2="0.804652" gradientUnits="userSpaceOnUse">
<stop offset="0.19" stop-color="#FFAB00"/>
<stop offset="0.83" stop-color="#FF004C"/>
</linearGradient>
<clipPath id="clip0_3917_59719">
<rect width="48" height="48" fill="white"/>
</clipPath>
<clipPath id="clip1_3917_59719">
<rect width="48" height="48" fill="white"/>
</clipPath>
</defs>
</svg>
