<svg width="48" height="48" viewBox="0 0 48 48" fill="none" xmlns="http://www.w3.org/2000/svg">
<g clip-path="url(#clip0_2108_61210)">
<g clip-path="url(#clip1_2108_61210)">
<path d="M32.5506 1.50781L45.4594 10.7424L32.1993 28.0588L19.5613 13.4407L32.5506 1.50781Z" fill="url(#paint0_linear_2108_61210)"/>
<path d="M32.5506 1.50781L45.4594 10.7424L28.7524 18.4751L19.5613 13.4407L32.5506 1.50781Z" fill="url(#paint1_linear_2108_61210)"/>
<path d="M32.5506 1.50781L28.7524 18.4751L19.5613 13.4407L32.5506 1.50781Z" fill="url(#paint2_linear_2108_61210)"/>
<path d="M46.4999 29.1638L28.8444 18.3431L6.50806 34.0972L11.787 44.2526L46.4999 29.1638Z" fill="url(#paint3_linear_2108_61210)"/>
<path d="M46.4999 29.1639L36.2422 22.9226L23.9695 26.0994L11.9333 46.5078L46.4999 29.1639Z" fill="url(#paint4_linear_2108_61210)"/>
<path d="M36.1051 22.9582L46.5 29.1639L31.2791 29.367L36.1051 22.9582Z" fill="url(#paint5_linear_2108_61210)"/>
<path d="M26.1672 25.433L16.7502 44.1618L31.2789 29.367L26.1672 25.433Z" fill="url(#paint6_linear_2108_61210)"/>
<path d="M11.222 1.82809L35.0134 7.71119L11.9334 46.5078L1.5 29.6962L11.222 1.82809Z" fill="url(#paint7_linear_2108_61210)"/>
<path d="M35.0133 7.71121L24.9621 14.3906L11.9224 46.1647L12.3837 45.7508L16.7502 44.1618L35.0133 7.71121Z" fill="url(#paint8_linear_2108_61210)"/>
<path d="M11.2219 1.82809L27.7505 5.92076L21.5635 11.5556L11.2219 1.82809Z" fill="url(#paint9_linear_2108_61210)"/>
<path d="M35.0134 7.71122L27.7403 5.91278L27.7506 5.92072L21.5637 11.5555L24.6012 14.5722L35.0134 7.71122Z" fill="url(#paint10_linear_2108_61210)"/>
<path d="M11.9224 46.1647L1.5 29.6962L21.5637 11.5555L24.6012 14.5722L11.9224 46.1647Z" fill="url(#paint11_linear_2108_61210)"/>
<path d="M11.9224 46.1647L1.5 29.6962L21.5637 11.5555L24.6012 14.5722L11.9224 46.1647Z" fill="url(#paint12_linear_2108_61210)"/>
<path d="M11.9224 46.1647L1.5 29.6962L21.5637 11.5555L24.6012 14.5722L11.9224 46.1647Z" fill="url(#paint13_linear_2108_61210)"/>
<path d="M11.222 1.82816L1.5 29.6961L21.5637 11.5555L11.222 1.82816Z" fill="url(#paint14_linear_2108_61210)"/>
<path d="M26.1907 25.4026L36.191 22.8458L29.5109 18.7234L26.1907 25.4026Z" fill="url(#paint15_linear_2108_61210)"/>
</g>
<path d="M38 10H10V38H38V10Z" fill="url(#paint16_linear_2108_61210)"/>
<g opacity="0.3" clip-path="url(#clip2_2108_61210)">
<path opacity="0.5" d="M38 10H23.5969L12.2495 25.1324L32.1627 28.2426L38 20.6196V10Z" fill="url(#paint17_linear_2108_61210)"/>
<path d="M29.146 38L38.0001 33.5573V24.2317L36.1879 23.1291L23.9698 26.2919L17.0647 38H29.146Z" fill="url(#paint18_linear_2108_61210)"/>
<path d="M33.7659 10H10V38H17.1089L33.7659 10Z" fill="url(#paint19_linear_2108_61210)"/>
</g>
<path d="M24 32.7H13.5V34.4H24V32.7Z" fill="white"/>
<path d="M13.5 13.4H18.3453C19.6575 13.4 20.7679 13.8037 21.4745 14.5103C22.0802 15.116 22.383 15.9235 22.383 16.933C22.383 18.649 21.4745 19.7594 20.0613 20.2641L22.6858 24.1H19.9604L17.6387 20.6679H15.8217V23.999H13.5V13.4ZM18.2443 18.5481C19.3547 18.5481 20.0613 17.9424 20.0613 17.0339C20.0613 16.0245 19.3547 15.5198 18.2443 15.5198H15.8217V18.5481H18.2443Z" fill="white"/>
<path d="M24 13.4H28.8453C30.1575 13.4 31.2679 13.8037 31.9745 14.5103C32.5802 15.116 32.883 15.9235 32.883 16.933C32.883 18.649 31.9745 19.7594 30.5613 20.2641L33.1858 24.1H30.4604L28.1387 20.6679H26.3217V23.999H24V13.4ZM28.7443 18.5481C29.8547 18.5481 30.5613 17.9424 30.5613 17.0339C30.5613 16.0245 29.8547 15.5198 28.7443 15.5198H26.3217V18.5481H28.7443Z" fill="white"/>
</g>
<defs>
<linearGradient id="paint0_linear_2108_61210" x1="28.3433" y1="22.6986" x2="35.332" y2="4.90901" gradientUnits="userSpaceOnUse">
<stop offset="0.04937" stop-color="#219E89"/>
<stop offset="0.27923" stop-color="#21BD89"/>
<stop offset="0.75337" stop-color="#6EDD88"/>
<stop offset="1" stop-color="#71DE88"/>
</linearGradient>
<linearGradient id="paint1_linear_2108_61210" x1="34.2369" y1="3.57065" x2="29.5633" y2="26.6358" gradientUnits="userSpaceOnUse">
<stop stop-color="#5EF789"/>
<stop offset="0.1634" stop-color="#21D789"/>
<stop offset="0.50492" stop-color="#0EA67B"/>
<stop offset="0.98215" stop-color="#21D789"/>
</linearGradient>
<linearGradient id="paint2_linear_2108_61210" x1="20.8249" y1="20.5224" x2="36.487" y2="-0.933793" gradientUnits="userSpaceOnUse">
<stop offset="0.38956" stop-color="#5EF789"/>
<stop offset="0.63623" stop-color="#21D789"/>
<stop offset="0.92822" stop-color="#0EA67B"/>
</linearGradient>
<linearGradient id="paint3_linear_2108_61210" x1="39.9606" y1="12.2908" x2="16.5868" y2="45.8833" gradientUnits="userSpaceOnUse">
<stop offset="0.24437" stop-color="#21D789"/>
<stop offset="0.89126" stop-color="#FDB60D"/>
</linearGradient>
<linearGradient id="paint4_linear_2108_61210" x1="47.4611" y1="10.0601" x2="22.8046" y2="45.496" gradientUnits="userSpaceOnUse">
<stop stop-color="#21D789"/>
<stop offset="1" stop-color="#FDB60D"/>
</linearGradient>
<linearGradient id="paint5_linear_2108_61210" x1="38.7883" y1="31.8635" x2="39.0606" y2="24.8757" gradientUnits="userSpaceOnUse">
<stop offset="0.06498" stop-color="#037F5C"/>
<stop offset="0.89819" stop-color="#038E5C" stop-opacity="0"/>
</linearGradient>
<linearGradient id="paint6_linear_2108_61210" x1="33.8912" y1="25.2148" x2="9.29796" y2="44.1706" gradientUnits="userSpaceOnUse">
<stop stop-color="#21BD89"/>
<stop offset="0.73314" stop-color="#FDB60D"/>
</linearGradient>
<linearGradient id="paint7_linear_2108_61210" x1="22.8439" y1="4.18582" x2="11.5411" y2="39.9573" gradientUnits="userSpaceOnUse">
<stop stop-color="#FE2857"/>
<stop offset="1" stop-color="#FDB60D"/>
</linearGradient>
<linearGradient id="paint8_linear_2108_61210" x1="34.7195" y1="2.07372" x2="13.1467" y2="44.4036" gradientUnits="userSpaceOnUse">
<stop offset="0.1207" stop-color="#FD7430"/>
<stop offset="0.25438" stop-color="#FDB60D"/>
<stop offset="0.53455" stop-color="#FE2857"/>
<stop offset="0.91392" stop-color="#FDB60D"/>
</linearGradient>
<linearGradient id="paint9_linear_2108_61210" x1="10.3238" y1="9.52924" x2="24.2103" y2="3.03685" gradientUnits="userSpaceOnUse">
<stop offset="0.21599" stop-color="#BE0059"/>
<stop offset="0.88355" stop-color="#FE2857" stop-opacity="0"/>
</linearGradient>
<linearGradient id="paint10_linear_2108_61210" x1="30.0595" y1="13.7754" x2="26.6752" y2="5.86004" gradientUnits="userSpaceOnUse">
<stop offset="0.45951" stop-color="#FE2857"/>
<stop offset="0.85318" stop-color="#FDB60D"/>
<stop offset="1" stop-color="#FDFFA1"/>
</linearGradient>
<linearGradient id="paint11_linear_2108_61210" x1="30.9728" y1="6.0574" x2="5.05083" y2="40.1117" gradientUnits="userSpaceOnUse">
<stop offset="0.27215" stop-color="#FE2857"/>
<stop offset="1" stop-color="#FDB60D"/>
</linearGradient>
<linearGradient id="paint12_linear_2108_61210" x1="28.5876" y1="41.9549" x2="12.9458" y2="24.4033" gradientUnits="userSpaceOnUse">
<stop offset="0.3899" stop-color="#FDD468"/>
<stop offset="0.97479" stop-color="#FDB60D" stop-opacity="0"/>
</linearGradient>
<linearGradient id="paint13_linear_2108_61210" x1="17.5698" y1="29.1843" x2="2.18401" y2="23.1519" gradientUnits="userSpaceOnUse">
<stop offset="0.34967" stop-color="#FDB60D" stop-opacity="0"/>
<stop offset="0.98508" stop-color="#FDFFA1"/>
</linearGradient>
<linearGradient id="paint14_linear_2108_61210" x1="16.8424" y1="3.81875" x2="9.25481" y2="27.8323" gradientUnits="userSpaceOnUse">
<stop offset="0.02988" stop-color="#FF7F39"/>
<stop offset="0.1294" stop-color="#FE2857"/>
<stop offset="1" stop-color="#FDB60D"/>
</linearGradient>
<linearGradient id="paint15_linear_2108_61210" x1="21.7954" y1="29.7411" x2="32.4995" y2="21.0694" gradientUnits="userSpaceOnUse">
<stop offset="0.06498" stop-color="#037F5C"/>
<stop offset="0.89819" stop-color="#038E5C" stop-opacity="0"/>
</linearGradient>
<linearGradient id="paint16_linear_2108_61210" x1="9.54164" y1="9.54164" x2="35.9426" y2="35.9426" gradientUnits="userSpaceOnUse">
<stop offset="0.0284813" stop-color="#5A1F3A"/>
<stop offset="0.0797561" stop-color="#4E1B32"/>
<stop offset="0.2774" stop-color="#260D18"/>
<stop offset="0.3795" stop-color="#16080E"/>
<stop offset="0.3907" stop-color="#15080E"/>
<stop offset="0.6833" stop-color="#060204"/>
<stop offset="0.9138"/>
</linearGradient>
<linearGradient id="paint17_linear_2108_61210" x1="24.072" y1="27.1702" x2="30.6601" y2="8.75352" gradientUnits="userSpaceOnUse">
<stop offset="0.04937" stop-color="#219E89" stop-opacity="0"/>
<stop offset="0.82237" stop-color="#6EDD88"/>
<stop offset="1" stop-color="#71DE88"/>
</linearGradient>
<linearGradient id="paint18_linear_2108_61210" x1="28.8635" y1="40.2715" x2="54.0928" y2="7.78026" gradientUnits="userSpaceOnUse">
<stop stop-color="#21D789" stop-opacity="0"/>
<stop offset="1" stop-color="#FDB60D"/>
</linearGradient>
<linearGradient id="paint19_linear_2108_61210" x1="10.7461" y1="3.66273" x2="23.9245" y2="27.7213" gradientUnits="userSpaceOnUse">
<stop stop-color="#FE2857"/>
<stop offset="1" stop-color="#FDB60D" stop-opacity="0"/>
</linearGradient>
<clipPath id="clip0_2108_61210">
<rect width="48" height="48" fill="white"/>
</clipPath>
<clipPath id="clip1_2108_61210">
<rect width="45" height="45" fill="white" transform="translate(1.5 1.50781)"/>
</clipPath>
<clipPath id="clip2_2108_61210">
<rect width="28" height="28" fill="white" transform="translate(10 10)"/>
</clipPath>
</defs>
</svg>
