<!-- Copyright 2000-2024 JetBrains s.r.o. and contributors. Use of this source code is governed by the Apache 2.0 license. -->
<svg width="20" height="20" viewBox="0 0 20 20" fill="none" xmlns="http://www.w3.org/2000/svg">
<g clip-path="url(#clip0_3917_59727)">
<path d="M1.81641 15.0167L1.81695 18.7278C1.81695 19.4307 2.38677 20.0004 3.08968 20.0004H6.6855C7.05695 20.0004 7.41004 19.838 7.65186 19.556L17.8737 7.63054C18.0713 7.39981 18.18 7.10599 18.18 6.80218V3.09109C18.18 2.38818 17.6102 1.81836 16.9073 1.81836H13.3109C12.9395 1.81836 12.5864 1.98072 12.3446 2.26272L2.12277 14.1882C1.92495 14.4189 1.81641 14.7127 1.81641 15.0167Z" fill="#F0EB18"/>
<path d="M1.81641 15.4633V18.7278C1.81641 19.4307 2.38622 20.0006 3.08913 20.0006H7.18059C7.24077 20.0006 7.30095 19.9962 7.36059 19.9878L18.9055 18.3387C19.5326 18.2491 19.9982 17.7122 19.9982 17.0787V12.1809C19.9982 11.4778 19.4282 10.908 18.7251 10.9082L12.9319 10.9097C12.7951 10.9097 12.6593 10.9317 12.5297 10.9749L2.68659 14.256C2.16695 14.4293 1.81641 14.9157 1.81641 15.4635V15.4633Z" fill="url(#paint0_linear_3917_59727)"/>
<path d="M0 1.27273V11.8878C0 12.3969 0.303454 12.8571 0.771273 13.0576L12.4871 18.0789C12.6455 18.1467 12.8162 18.1818 12.9885 18.1818H18.7273C19.4302 18.1818 20 17.612 20 16.9091V11.2947C20 11.0433 19.9254 10.7975 19.7858 10.5882L13.0973 0.566727C12.8613 0.212909 12.4642 0.000545454 12.0387 0.000545454L1.27273 0C0.569818 0 0 0.569818 0 1.27273Z" fill="url(#paint1_linear_3917_59727)"/>
<path d="M16.6654 3.33398H3.33203V16.6673H16.6654V3.33398Z" fill="black"/>
<path d="M5.70122 5.11091L6.50484 8.74463L7.36179 5.11091H8.34312L9.23912 8.74463L10.0178 5.11091H11.0027L9.79379 10.0886H8.68807L7.84903 6.47263L6.99931 10.0886H5.89703L4.69531 5.11091H5.7016H5.70122ZM13.0995 10.1742C12.7391 10.1742 12.4191 10.1088 12.1395 9.97853C11.8622 9.84825 11.6441 9.66558 11.4852 9.43091C11.3288 9.19625 11.2483 8.92596 11.2435 8.62025H12.2178C12.2178 8.76463 12.2557 8.89187 12.3315 9.00063C12.4073 9.10958 12.5128 9.19491 12.6479 9.25663C12.7829 9.31834 12.9382 9.34901 13.1136 9.34901C13.289 9.34901 13.4288 9.32196 13.5546 9.2673C13.6826 9.21034 13.7808 9.13225 13.8496 9.03263C13.9206 8.93301 13.9563 8.81929 13.9563 8.6913C13.9563 8.53263 13.9077 8.40101 13.8106 8.29663C13.7157 8.19225 13.5843 8.12025 13.4159 8.07968L12.5376 7.88406C12.3006 7.83206 12.0944 7.74311 11.9189 7.61739C11.7435 7.48939 11.6073 7.33168 11.51 7.14444C11.4128 6.95739 11.3643 6.74615 11.3643 6.51149C11.3643 6.2271 11.4378 5.97244 11.5846 5.74711C11.7317 5.51949 11.9366 5.34311 12.1997 5.21739C12.4627 5.08939 12.7614 5.02539 13.0957 5.02539C13.43 5.02539 13.7368 5.0871 14.0024 5.21034C14.2679 5.33339 14.474 5.50539 14.621 5.72596C14.7704 5.94425 14.8462 6.1953 14.8486 6.47968H13.878C13.878 6.35872 13.846 6.25072 13.782 6.15606C13.718 6.05872 13.6267 5.98406 13.5083 5.93206C13.3921 5.87739 13.2582 5.85034 13.1066 5.85034C12.9549 5.85034 12.8208 5.87663 12.7048 5.92863C12.5911 5.97834 12.5022 6.04958 12.4382 6.14196C12.3742 6.23225 12.3422 6.33758 12.3422 6.45834C12.3422 6.59568 12.386 6.70939 12.4738 6.79968C12.5639 6.88996 12.686 6.95396 12.8401 6.99168L13.6864 7.17663C13.9306 7.22634 14.1473 7.32101 14.337 7.46101C14.529 7.59834 14.6784 7.76901 14.785 7.97301C14.8917 8.17434 14.945 8.39472 14.945 8.63434C14.945 8.92806 14.8667 9.19263 14.7104 9.4273C14.5563 9.65968 14.3393 9.84196 14.0597 9.97491C13.7801 10.1079 13.4601 10.174 13.0997 10.174L13.0995 10.1742Z" fill="white"/>
<path d="M10 14.166H5V14.9993H10V14.166Z" fill="white"/>
</g>
<defs>
<linearGradient id="paint0_linear_3917_59727" x1="2.37986" y1="20.2247" x2="19.138" y2="12.4551" gradientUnits="userSpaceOnUse">
<stop offset="0.22" stop-color="#F0EB18"/>
<stop offset="0.59" stop-color="#00C4F4"/>
</linearGradient>
<linearGradient id="paint1_linear_3917_59727" x1="18.7558" y1="18.6805" x2="0.410365" y2="0.335271" gradientUnits="userSpaceOnUse">
<stop offset="0.19" stop-color="#00C4F4"/>
<stop offset="0.83" stop-color="#007DFE"/>
</linearGradient>
<clipPath id="clip0_3917_59727">
<rect width="20" height="20" fill="white"/>
</clipPath>
</defs>
</svg>
