<svg width="20" height="20" viewBox="0 0 20 20" fill="none" xmlns="http://www.w3.org/2000/svg">
<path d="M3.16675 17.5834L0.666748 2.58338L5.33341 0.666718L8.25008 2.41672L11.0001 0.916718L16.7501 3.16672L13.5001 19.3334L3.16675 17.5834Z" fill="url(#paint0_linear_2108_61218)"/>
<path d="M11 0.916718L8.25 2.41672L9.08333 8.50005L10.75 9.66672L11.25 13.25L13.1667 13.4167L11.75 6.83338L11 0.916718Z" fill="url(#paint1_linear_2108_61218)"/>
<path d="M9.0835 9.16675L8.25016 2.41675L5.3335 0.666748L6.5835 7.91675L7.00016 12.4167L9.5835 12.3334L9.3335 11.1667L9.0835 9.16675Z" fill="url(#paint2_linear_2108_61218)"/>
<path d="M3.16675 17.5834L0.666748 2.58338L5.33341 0.666718L6.58341 8.16672L3.16675 17.5834Z" fill="url(#paint3_linear_2108_61218)"/>
<path d="M6.58341 8.16672L5.33341 0.666718L0.666748 2.58338L5.83341 7.08338L6.58341 8.16672Z" fill="url(#paint4_linear_2108_61218)"/>
<path d="M3.16675 17.5834L0.666748 2.5834L5.83341 7.0834L11.0001 14.0001L3.16675 17.5834Z" fill="url(#paint5_linear_2108_61218)"/>
<path d="M3.16675 17.5834L7.58342 14.3334L13.5001 19.3334L3.16675 17.5834Z" fill="url(#paint6_linear_2108_61218)"/>
<path d="M9.66683 13.5834L7.5835 15.5001L13.5002 19.3334L14.5835 14.1667L9.66683 13.5834Z" fill="url(#paint7_linear_2108_61218)"/>
<path d="M3.16675 17.5834L7.58342 15.5001L13.5001 19.3334L3.16675 17.5834Z" fill="url(#paint8_linear_2108_61218)"/>
<path d="M19.3333 7.00008L16.9167 1.00008L12.5833 0.666748L5.75 7.16675L7.5 15.5001L11.1667 17.8334L19.3333 12.9167L17.3333 9.08341L19.3333 7.00008Z" fill="url(#paint9_linear_2108_61218)"/>
<path d="M13.0833 6.66675L12.5833 0.666748L5.75 7.16675L10.8333 8.66675L13.0833 6.66675Z" fill="url(#paint10_linear_2108_61218)"/>
<path d="M11.9167 1.25009L5.75 7.16676L10.8333 8.66676L13.5 11.5834L12.6667 1.58342L11.9167 1.25009Z" fill="url(#paint11_linear_2108_61218)"/>
<path d="M10.8335 8.66673L11.9168 7.66673L11.7502 6.83339L11.1668 2.00006L8.5835 4.50006L9.00016 8.16673L10.8335 8.66673Z" fill="url(#paint12_linear_2108_61218)"/>
<path d="M9.00016 8.16673L8.50016 4.50006L6.3335 6.58339L6.41683 7.33339L9.00016 8.16673Z" fill="url(#paint13_linear_2108_61218)"/>
<path d="M11.9167 1.25009L5.75 7.16676L12.6667 1.58342L11.9167 1.25009Z" fill="url(#paint14_linear_2108_61218)"/>
<path d="M11.2499 2.66676L11.1666 2.00009L8.58325 4.50009V4.83342L11.2499 2.66676Z" fill="url(#paint15_linear_2108_61218)"/>
<path d="M8.5835 4.83342L8.50016 4.50009L6.3335 6.58342V6.66676L8.5835 4.83342Z" fill="url(#paint16_linear_2108_61218)"/>
<path d="M14.9999 4.91672L10.8333 8.66672L11.1666 17.8334L19.3333 12.9167L17.3333 9.08338L14.9999 4.91672Z" fill="url(#paint17_linear_2108_61218)"/>
<path d="M13.0833 7.16675L13.4999 11.9167L19.3333 12.9167L17.3333 9.08341L16.0833 6.91675L13.0833 7.16675Z" fill="url(#paint18_linear_2108_61218)"/>
<path d="M13.0833 7.16675L13.4999 11.9167L14.4166 12.0834L17.3333 9.08341L16.0833 6.91675L13.0833 7.16675Z" fill="url(#paint19_linear_2108_61218)"/>
<path d="M10.8333 8.66672L5.75 7.16672L7.5 15.5001L11.1667 17.8334L10.8333 8.66672Z" fill="url(#paint20_linear_2108_61218)"/>
<path d="M9.1665 9.16674L8.99984 8.16674L6.4165 7.3334L6.58317 7.91674L7.4165 14.4167L7.49984 15.0001L10.1665 17.0834L9.1665 9.16674Z" fill="url(#paint21_linear_2108_61218)"/>
<path d="M7.5 15.5001L11.1667 17.8334L11 13.3334L7.5 15.5001Z" fill="url(#paint22_linear_2108_61218)"/>
<path d="M14.9998 4.91676L17.3332 9.08342L19.3332 7.00009L16.9165 1.00009L13.9165 4.75009L14.9998 4.91676Z" fill="url(#paint23_linear_2108_61218)"/>
<path d="M16.1667 7.00006L17.3334 9.08339L19.3334 7.00006H16.1667Z" fill="url(#paint24_linear_2108_61218)"/>
<path d="M5.75 7.16672L6.16667 9.08338L5.75 7.16672Z" fill="url(#paint25_linear_2108_61218)"/>
<path d="M15.8334 4.16666H4.16675V15.8333H15.8334V4.16666Z" fill="url(#paint26_linear_2108_61218)"/>
<path d="M10.8333 13.3333H5.83325V14.1667H10.8333V13.3333Z" fill="white"/>
<path d="M11 10.0834L11.6667 9.33336C12.0833 9.6667 12.5833 9.9167 13.1667 9.9167C13.5833 9.9167 13.9167 9.75003 13.9167 9.4167C13.9167 9.1667 13.75 9.00003 12.9167 8.75003C11.9167 8.50003 11.25 8.25003 11.25 7.25003C11.25 6.33336 12 5.75003 13 5.75003C13.75 5.75003 14.3333 6.00003 14.8333 6.4167L14.25 7.25003C13.8333 6.9167 13.3333 6.75003 12.9167 6.75003C12.5 6.75003 12.25 6.9167 12.25 7.1667C12.25 7.50003 12.5 7.58336 13.3333 7.83336C14.4167 8.08336 15 8.50003 15 9.33336C15 10.3334 14.25 10.9167 13.1667 10.9167C12.4167 10.9167 11.6667 10.6667 11 10.0834Z" fill="white"/>
<path d="M7.3335 10.8334L8.16683 7.91677L8.91683 10.8334H9.8335L11.2502 5.83344H10.0835L9.41683 8.7501L8.5835 5.83344H7.75016L6.91683 8.7501L6.16683 5.83344H5.0835L6.41683 10.8334H7.3335Z" fill="white"/>
<defs>
<linearGradient id="paint0_linear_2108_61218" x1="7.33958" y1="1.01613" x2="12.1919" y2="18.4844" gradientUnits="userSpaceOnUse">
<stop offset="0.2849" stop-color="#07C3F2"/>
<stop offset="0.9409" stop-color="#087CFA"/>
</linearGradient>
<linearGradient id="paint1_linear_2108_61218" x1="8.95175" y1="0.0222384" x2="11.4793" y2="10.9038" gradientUnits="userSpaceOnUse">
<stop offset="0.0669317" stop-color="#42FFFA"/>
<stop offset="0.3409" stop-color="#07C3F2"/>
<stop offset="0.9409" stop-color="#087CFA"/>
</linearGradient>
<linearGradient id="paint2_linear_2108_61218" x1="4.70075" y1="0.0483238" x2="8.66625" y2="10.002" gradientUnits="userSpaceOnUse">
<stop offset="0.2849" stop-color="#07C3F2"/>
<stop offset="0.9409" stop-color="#087CFA"/>
</linearGradient>
<linearGradient id="paint3_linear_2108_61218" x1="1.70358" y1="-1.13512" x2="5.987" y2="16.2647" gradientUnits="userSpaceOnUse">
<stop offset="0.0669317" stop-color="#42FFFA"/>
<stop offset="0.3409" stop-color="#07C3F2"/>
<stop offset="0.9409" stop-color="#087CFA"/>
</linearGradient>
<linearGradient id="paint4_linear_2108_61218" x1="3.27808" y1="5.70797" x2="4.56575" y2="4.37588" gradientUnits="userSpaceOnUse">
<stop offset="0.00971316" stop-color="#42FFFA"/>
<stop offset="0.9216" stop-color="#07C3F2" stop-opacity="0"/>
</linearGradient>
<linearGradient id="paint5_linear_2108_61218" x1="-4.059" y1="6.25707" x2="8.60516" y2="14.3982" gradientUnits="userSpaceOnUse">
<stop offset="0.1985" stop-color="#07C3F2"/>
<stop offset="0.9403" stop-color="#087CFA"/>
</linearGradient>
<linearGradient id="paint6_linear_2108_61218" x1="0.686831" y1="16.5803" x2="7.97666" y2="16.7932" gradientUnits="userSpaceOnUse">
<stop offset="0.1291" stop-color="#1D53B8"/>
<stop offset="0.8696" stop-color="#087CFA"/>
</linearGradient>
<linearGradient id="paint7_linear_2108_61218" x1="10.737" y1="13.6113" x2="12.3168" y2="19.2989" gradientUnits="userSpaceOnUse">
<stop offset="0.2771" stop-color="#087BFA"/>
<stop offset="0.6826" stop-color="#085DFA"/>
</linearGradient>
<linearGradient id="paint8_linear_2108_61218" x1="7.29975" y1="10.0898" x2="8.41717" y2="19.1356" gradientUnits="userSpaceOnUse">
<stop offset="0.5232" stop-color="#087BFA"/>
<stop offset="0.9771" stop-color="#086DFA"/>
</linearGradient>
<linearGradient id="paint9_linear_2108_61218" x1="8.82292" y1="3.25341" x2="17.0314" y2="15.2901" gradientUnits="userSpaceOnUse">
<stop offset="0.1286" stop-color="#FCF84A"/>
<stop offset="0.4986" stop-color="#07C3F2"/>
</linearGradient>
<linearGradient id="paint10_linear_2108_61218" x1="12.4307" y1="0.547081" x2="11.6292" y2="2.24433" gradientUnits="userSpaceOnUse">
<stop stop-color="#73A4AA"/>
<stop offset="0.6751" stop-color="#FCF84A"/>
</linearGradient>
<linearGradient id="paint11_linear_2108_61218" x1="8.26067" y1="-2.14066" x2="11.1284" y2="17.3527" gradientUnits="userSpaceOnUse">
<stop offset="0.1786" stop-color="#FCF84A"/>
<stop offset="0.8591" stop-color="#07C3F2"/>
</linearGradient>
<linearGradient id="paint12_linear_2108_61218" x1="9.30425" y1="1.69998" x2="11.4927" y2="11.1224" gradientUnits="userSpaceOnUse">
<stop offset="0.1787" stop-color="#FCF84A"/>
<stop offset="0.9725" stop-color="#12C6EC"/>
</linearGradient>
<linearGradient id="paint13_linear_2108_61218" x1="6.97758" y1="4.86106" x2="8.76366" y2="8.57864" gradientUnits="userSpaceOnUse">
<stop offset="0.1286" stop-color="#FCF84A"/>
<stop offset="0.9414" stop-color="#07C3F2"/>
</linearGradient>
<linearGradient id="paint14_linear_2108_61218" x1="8.56517" y1="-0.0872419" x2="9.91117" y2="9.06176" gradientUnits="userSpaceOnUse">
<stop offset="0.1786" stop-color="#FCF84A"/>
<stop offset="0.8591" stop-color="#07C3F2"/>
</linearGradient>
<linearGradient id="paint15_linear_2108_61218" x1="9.56975" y1="2.11317" x2="10.309" y2="5.29584" gradientUnits="userSpaceOnUse">
<stop offset="0.1787" stop-color="#D3FF8C"/>
<stop offset="0.8762" stop-color="#12C6EC"/>
</linearGradient>
<linearGradient id="paint16_linear_2108_61218" x1="7.16733" y1="5.04501" x2="7.68625" y2="6.12509" gradientUnits="userSpaceOnUse">
<stop offset="0.1286" stop-color="#FCF84A"/>
<stop offset="0.9414" stop-color="#07C3F2"/>
</linearGradient>
<linearGradient id="paint17_linear_2108_61218" x1="10.6914" y1="7.88147" x2="16.0333" y2="15.7146" gradientUnits="userSpaceOnUse">
<stop stop-color="#07C3F2"/>
<stop offset="0.906" stop-color="#00A0FF"/>
</linearGradient>
<linearGradient id="paint18_linear_2108_61218" x1="18.4383" y1="9.77525" x2="11.7337" y2="10.6267" gradientUnits="userSpaceOnUse">
<stop stop-color="#07C3F2"/>
<stop offset="1" stop-color="#0895F7"/>
</linearGradient>
<linearGradient id="paint19_linear_2108_61218" x1="16.9499" y1="9.22041" x2="12.0579" y2="9.84158" gradientUnits="userSpaceOnUse">
<stop stop-color="#07C3F2"/>
<stop offset="1" stop-color="#0895F7"/>
</linearGradient>
<linearGradient id="paint20_linear_2108_61218" x1="5.02517" y1="6.05063" x2="11.9688" y2="16.2326" gradientUnits="userSpaceOnUse">
<stop offset="0.080633" stop-color="#FCF84A"/>
<stop offset="0.5708" stop-color="#07C3F2"/>
</linearGradient>
<linearGradient id="paint21_linear_2108_61218" x1="5.81492" y1="6.4924" x2="11.1262" y2="17.5472" gradientUnits="userSpaceOnUse">
<stop offset="0.1286" stop-color="#FCF84A"/>
<stop offset="0.4216" stop-color="#07C3F2"/>
</linearGradient>
<linearGradient id="paint22_linear_2108_61218" x1="7.34883" y1="13.1267" x2="11.8649" y2="16.1841" gradientUnits="userSpaceOnUse">
<stop offset="0.09347" stop-color="#087CFA"/>
<stop offset="0.6584" stop-color="#07C3F2"/>
</linearGradient>
<linearGradient id="paint23_linear_2108_61218" x1="15.2738" y1="1.01267" x2="17.5908" y2="9.21876" gradientUnits="userSpaceOnUse">
<stop stop-color="#FCF84A"/>
<stop offset="0.4651" stop-color="#07C3F2"/>
<stop offset="0.9409" stop-color="#087CFA"/>
</linearGradient>
<linearGradient id="paint24_linear_2108_61218" x1="20.2808" y1="7.51539" x2="13.4167" y2="8.52639" gradientUnits="userSpaceOnUse">
<stop stop-color="#0863FA"/>
<stop offset="0.9409" stop-color="#1AC8FB"/>
</linearGradient>
<linearGradient id="paint25_linear_2108_61218" x1="5.475" y1="7.36005" x2="6.5555" y2="8.94438" gradientUnits="userSpaceOnUse">
<stop offset="0.1286" stop-color="#FCF84A"/>
<stop offset="0.4216" stop-color="#07C3F2"/>
</linearGradient>
<linearGradient id="paint26_linear_2108_61218" x1="3.87374" y1="3.63687" x2="14.0848" y2="14.2426" gradientUnits="userSpaceOnUse">
<stop stop-color="#006396"/>
<stop offset="0.0470796" stop-color="#005682"/>
<stop offset="0.1677" stop-color="#003754"/>
<stop offset="0.2832" stop-color="#001F2F"/>
<stop offset="0.3905" stop-color="#000E15"/>
<stop offset="0.4867" stop-color="#000406"/>
<stop offset="0.5623"/>
<stop offset="0.9138"/>
</linearGradient>
</defs>
</svg>
