<svg width="24" height="24" viewBox="0 0 24 24" fill="none" xmlns="http://www.w3.org/2000/svg">
<path d="M3.80005 21.1L0.800049 3.10005L6.40005 0.800049L9.90005 2.90005L13.2 1.10005L20.1 3.80005L16.2 23.2001L3.80005 21.1Z" fill="url(#paint0_linear_2108_61217)"/>
<path d="M13.2001 1.10004L9.90015 2.90004L10.9001 10.2L12.9001 11.6L13.5001 15.9L15.8001 16.1L14.1001 8.20004L13.2001 1.10004Z" fill="url(#paint1_linear_2108_61217)"/>
<path d="M10.9001 11L9.90015 2.90005L6.40015 0.800049L7.90015 9.50005L8.40015 14.9L11.5001 14.8L11.2001 13.4L10.9001 11Z" fill="url(#paint2_linear_2108_61217)"/>
<path d="M3.80005 21.1L0.800049 3.10005L6.40005 0.800049L7.90005 9.80005L3.80005 21.1Z" fill="url(#paint3_linear_2108_61217)"/>
<path d="M7.90005 9.80005L6.40005 0.800049L0.800049 3.10005L7.00005 8.50005L7.90005 9.80005Z" fill="url(#paint4_linear_2108_61217)"/>
<path d="M3.80005 21.1L0.800049 3.10004L7.00005 8.50004L13.2 16.8L3.80005 21.1Z" fill="url(#paint5_linear_2108_61217)"/>
<path d="M3.80005 21.1L9.10005 17.2L16.2 23.2L3.80005 21.1Z" fill="url(#paint6_linear_2108_61217)"/>
<path d="M11.6001 16.3L9.1001 18.6L16.2001 23.2001L17.5001 17L11.6001 16.3Z" fill="url(#paint7_linear_2108_61217)"/>
<path d="M3.80005 21.1L9.10005 18.6L16.2 23.2L3.80005 21.1Z" fill="url(#paint8_linear_2108_61217)"/>
<path d="M23.2001 8.40005L20.3001 1.20005L15.1001 0.800049L6.90015 8.60005L9.00015 18.6L13.4001 21.4L23.2001 15.5L20.8001 10.9L23.2001 8.40005Z" fill="url(#paint9_linear_2108_61217)"/>
<path d="M15.7001 8.00005L15.1001 0.800049L6.90015 8.60005L13.0001 10.4L15.7001 8.00005Z" fill="url(#paint10_linear_2108_61217)"/>
<path d="M14.3001 1.50006L6.90015 8.60006L13.0001 10.4001L16.2001 13.9001L15.2001 1.90006L14.3001 1.50006Z" fill="url(#paint11_linear_2108_61217)"/>
<path d="M13 10.4001L14.3 9.20005L14.1 8.20005L13.4 2.40005L10.3 5.40005L10.8 9.80006L13 10.4001Z" fill="url(#paint12_linear_2108_61217)"/>
<path d="M10.8001 9.80006L10.2001 5.40005L7.6001 7.90005L7.7001 8.80006L10.8001 9.80006Z" fill="url(#paint13_linear_2108_61217)"/>
<path d="M14.3001 1.50006L6.90015 8.60006L15.2001 1.90006L14.3001 1.50006Z" fill="url(#paint14_linear_2108_61217)"/>
<path d="M13.5 3.20005L13.4 2.40005L10.3 5.40005V5.80006L13.5 3.20005Z" fill="url(#paint15_linear_2108_61217)"/>
<path d="M10.3001 5.80006L10.2001 5.40005L7.6001 7.90005V8.00005L10.3001 5.80006Z" fill="url(#paint16_linear_2108_61217)"/>
<path d="M18 5.90005L13 10.4001L13.4 21.4001L23.2 15.5001L20.8 10.9001L18 5.90005Z" fill="url(#paint17_linear_2108_61217)"/>
<path d="M15.7 8.60005L16.2 14.3L23.2 15.5L20.8 10.9L19.3 8.30005L15.7 8.60005Z" fill="url(#paint18_linear_2108_61217)"/>
<path d="M15.7 8.60005L16.2 14.3L17.3 14.5L20.8 10.9L19.3 8.30005L15.7 8.60005Z" fill="url(#paint19_linear_2108_61217)"/>
<path d="M13.0001 10.4L6.90015 8.60004L9.00015 18.6L13.4001 21.4L13.0001 10.4Z" fill="url(#paint20_linear_2108_61217)"/>
<path d="M11 11L10.8 9.80005L7.69995 8.80005L7.89995 9.50005L8.89995 17.3L8.99995 18L12.2 20.5L11 11Z" fill="url(#paint21_linear_2108_61217)"/>
<path d="M9 18.6001L13.4 21.4001L13.2 16.0001L9 18.6001Z" fill="url(#paint22_linear_2108_61217)"/>
<path d="M18 5.90004L20.7999 10.9L23.2 8.40004L20.2999 1.20004L16.7 5.70004L18 5.90004Z" fill="url(#paint23_linear_2108_61217)"/>
<path d="M19.4001 8.40005L20.8001 10.9001L23.2001 8.40005H19.4001Z" fill="url(#paint24_linear_2108_61217)"/>
<path d="M6.90015 8.60004L7.40015 10.9L6.90015 8.60004Z" fill="url(#paint25_linear_2108_61217)"/>
<path d="M19 5H5V19H19V5Z" fill="url(#paint26_linear_2108_61217)"/>
<path d="M13 16H7V17H13V16Z" fill="white"/>
<path d="M13.2 12.1L14 11.2C14.5 11.6 15.1 11.9 15.8 11.9C16.3 11.9 16.7 11.7 16.7 11.3C16.7 11 16.5 10.8 15.5 10.5C14.3 10.2 13.5 9.90002 13.5 8.70002C13.5 7.60002 14.4 6.90002 15.6 6.90002C16.5 6.90002 17.2 7.20002 17.8 7.70002L17.1 8.70002C16.6 8.30002 16 8.10002 15.5 8.10002C15 8.10002 14.7 8.30002 14.7 8.60002C14.7 9.00002 15 9.10002 16 9.40002C17.3 9.70002 18 10.2 18 11.2C18 12.4 17.1 13.1 15.8 13.1C14.9 13.1 14 12.8 13.2 12.1Z" fill="white"/>
<path d="M8.8001 13.0001L9.8001 9.50012L10.7001 13.0001H11.8001L13.5001 7.00012H12.1001L11.3001 10.5001L10.3001 7.00012H9.3001L8.3001 10.5001L7.4001 7.00012H6.1001L7.7001 13.0001H8.8001Z" fill="white"/>
<defs>
<linearGradient id="paint0_linear_2108_61217" x1="8.80745" y1="1.21935" x2="14.6303" y2="22.1812" gradientUnits="userSpaceOnUse">
<stop offset="0.2849" stop-color="#07C3F2"/>
<stop offset="0.9409" stop-color="#087CFA"/>
</linearGradient>
<linearGradient id="paint1_linear_2108_61217" x1="10.7422" y1="0.0266617" x2="13.7752" y2="13.0845" gradientUnits="userSpaceOnUse">
<stop offset="0.0669317" stop-color="#42FFFA"/>
<stop offset="0.3409" stop-color="#07C3F2"/>
<stop offset="0.9409" stop-color="#087CFA"/>
</linearGradient>
<linearGradient id="paint2_linear_2108_61217" x1="5.64085" y1="0.0579397" x2="10.3994" y2="12.0023" gradientUnits="userSpaceOnUse">
<stop offset="0.2849" stop-color="#07C3F2"/>
<stop offset="0.9409" stop-color="#087CFA"/>
</linearGradient>
<linearGradient id="paint3_linear_2108_61217" x1="2.04425" y1="-1.36215" x2="7.18435" y2="19.5176" gradientUnits="userSpaceOnUse">
<stop offset="0.0669317" stop-color="#42FFFA"/>
<stop offset="0.3409" stop-color="#07C3F2"/>
<stop offset="0.9409" stop-color="#087CFA"/>
</linearGradient>
<linearGradient id="paint4_linear_2108_61217" x1="3.93365" y1="6.84955" x2="5.47885" y2="5.25105" gradientUnits="userSpaceOnUse">
<stop offset="0.00971316" stop-color="#42FFFA"/>
<stop offset="0.9216" stop-color="#07C3F2" stop-opacity="0"/>
</linearGradient>
<linearGradient id="paint5_linear_2108_61217" x1="-4.87085" y1="7.50844" x2="10.3261" y2="17.2778" gradientUnits="userSpaceOnUse">
<stop offset="0.1985" stop-color="#07C3F2"/>
<stop offset="0.9403" stop-color="#087CFA"/>
</linearGradient>
<linearGradient id="paint6_linear_2108_61217" x1="0.824149" y1="19.8962" x2="9.57195" y2="20.1517" gradientUnits="userSpaceOnUse">
<stop offset="0.1291" stop-color="#1D53B8"/>
<stop offset="0.8696" stop-color="#087CFA"/>
</linearGradient>
<linearGradient id="paint7_linear_2108_61217" x1="12.8843" y1="16.3335" x2="14.7801" y2="23.1586" gradientUnits="userSpaceOnUse">
<stop offset="0.2771" stop-color="#087BFA"/>
<stop offset="0.6826" stop-color="#085DFA"/>
</linearGradient>
<linearGradient id="paint8_linear_2108_61217" x1="8.75965" y1="12.1077" x2="10.1005" y2="22.9627" gradientUnits="userSpaceOnUse">
<stop offset="0.5232" stop-color="#087BFA"/>
<stop offset="0.9771" stop-color="#086DFA"/>
</linearGradient>
<linearGradient id="paint9_linear_2108_61217" x1="10.5876" y1="3.90405" x2="20.4378" y2="18.348" gradientUnits="userSpaceOnUse">
<stop offset="0.1286" stop-color="#FCF84A"/>
<stop offset="0.4986" stop-color="#07C3F2"/>
</linearGradient>
<linearGradient id="paint10_linear_2108_61217" x1="14.917" y1="0.656449" x2="13.9552" y2="2.69315" gradientUnits="userSpaceOnUse">
<stop stop-color="#73A4AA"/>
<stop offset="0.6751" stop-color="#FCF84A"/>
</linearGradient>
<linearGradient id="paint11_linear_2108_61217" x1="9.91295" y1="-2.56884" x2="13.3542" y2="20.8232" gradientUnits="userSpaceOnUse">
<stop offset="0.1786" stop-color="#FCF84A"/>
<stop offset="0.8591" stop-color="#07C3F2"/>
</linearGradient>
<linearGradient id="paint12_linear_2108_61217" x1="11.1649" y1="2.03995" x2="13.7911" y2="13.3469" gradientUnits="userSpaceOnUse">
<stop offset="0.1787" stop-color="#FCF84A"/>
<stop offset="0.9725" stop-color="#12C6EC"/>
</linearGradient>
<linearGradient id="paint13_linear_2108_61217" x1="8.373" y1="5.83326" x2="10.5163" y2="10.2944" gradientUnits="userSpaceOnUse">
<stop offset="0.1286" stop-color="#FCF84A"/>
<stop offset="0.9414" stop-color="#07C3F2"/>
</linearGradient>
<linearGradient id="paint14_linear_2108_61217" x1="10.2783" y1="-0.104739" x2="11.8935" y2="10.8741" gradientUnits="userSpaceOnUse">
<stop offset="0.1786" stop-color="#FCF84A"/>
<stop offset="0.8591" stop-color="#07C3F2"/>
</linearGradient>
<linearGradient id="paint15_linear_2108_61217" x1="11.4838" y1="2.53575" x2="12.3709" y2="6.35495" gradientUnits="userSpaceOnUse">
<stop offset="0.1787" stop-color="#D3FF8C"/>
<stop offset="0.8762" stop-color="#12C6EC"/>
</linearGradient>
<linearGradient id="paint16_linear_2108_61217" x1="8.6007" y1="6.05395" x2="9.2234" y2="7.35005" gradientUnits="userSpaceOnUse">
<stop offset="0.1286" stop-color="#FCF84A"/>
<stop offset="0.9414" stop-color="#07C3F2"/>
</linearGradient>
<linearGradient id="paint17_linear_2108_61217" x1="12.8298" y1="9.45775" x2="19.24" y2="18.8575" gradientUnits="userSpaceOnUse">
<stop stop-color="#07C3F2"/>
<stop offset="0.906" stop-color="#00A0FF"/>
</linearGradient>
<linearGradient id="paint18_linear_2108_61217" x1="22.126" y1="11.7302" x2="14.0805" y2="12.7519" gradientUnits="userSpaceOnUse">
<stop stop-color="#07C3F2"/>
<stop offset="1" stop-color="#0895F7"/>
</linearGradient>
<linearGradient id="paint19_linear_2108_61217" x1="20.34" y1="11.0644" x2="14.4696" y2="11.8098" gradientUnits="userSpaceOnUse">
<stop stop-color="#07C3F2"/>
<stop offset="1" stop-color="#0895F7"/>
</linearGradient>
<linearGradient id="paint20_linear_2108_61217" x1="6.03035" y1="7.26074" x2="14.3627" y2="19.4791" gradientUnits="userSpaceOnUse">
<stop offset="0.080633" stop-color="#FCF84A"/>
<stop offset="0.5708" stop-color="#07C3F2"/>
</linearGradient>
<linearGradient id="paint21_linear_2108_61217" x1="6.97805" y1="7.79085" x2="13.3516" y2="21.0565" gradientUnits="userSpaceOnUse">
<stop offset="0.1286" stop-color="#FCF84A"/>
<stop offset="0.4216" stop-color="#07C3F2"/>
</linearGradient>
<linearGradient id="paint22_linear_2108_61217" x1="8.8186" y1="15.752" x2="14.2379" y2="19.4209" gradientUnits="userSpaceOnUse">
<stop offset="0.09347" stop-color="#087CFA"/>
<stop offset="0.6584" stop-color="#07C3F2"/>
</linearGradient>
<linearGradient id="paint23_linear_2108_61217" x1="18.3287" y1="1.21514" x2="21.1091" y2="11.0624" gradientUnits="userSpaceOnUse">
<stop stop-color="#FCF84A"/>
<stop offset="0.4651" stop-color="#07C3F2"/>
<stop offset="0.9409" stop-color="#087CFA"/>
</linearGradient>
<linearGradient id="paint24_linear_2108_61217" x1="24.337" y1="9.01845" x2="16.1" y2="10.2317" gradientUnits="userSpaceOnUse">
<stop stop-color="#0863FA"/>
<stop offset="0.9409" stop-color="#1AC8FB"/>
</linearGradient>
<linearGradient id="paint25_linear_2108_61217" x1="6.57015" y1="8.83204" x2="7.86675" y2="10.7332" gradientUnits="userSpaceOnUse">
<stop offset="0.1286" stop-color="#FCF84A"/>
<stop offset="0.4216" stop-color="#07C3F2"/>
</linearGradient>
<linearGradient id="paint26_linear_2108_61217" x1="4.64839" y1="4.36426" x2="16.9017" y2="17.0911" gradientUnits="userSpaceOnUse">
<stop stop-color="#006396"/>
<stop offset="0.0470796" stop-color="#005682"/>
<stop offset="0.1677" stop-color="#003754"/>
<stop offset="0.2832" stop-color="#001F2F"/>
<stop offset="0.3905" stop-color="#000E15"/>
<stop offset="0.4867" stop-color="#000406"/>
<stop offset="0.5623"/>
<stop offset="0.9138"/>
</linearGradient>
</defs>
</svg>
