<!-- Copyright 2000-2024 JetBrains s.r.o. and contributors. Use of this source code is governed by the Apache 2.0 license. -->
<svg width="24" height="24" viewBox="0 0 24 24" fill="none" xmlns="http://www.w3.org/2000/svg">
<g clip-path="url(#clip0_3917_59726)">
<path d="M2.18359 18.0197L2.18425 22.473C2.18425 23.3165 2.86803 24 3.71152 24H8.0265C8.47225 24 8.89596 23.8052 9.18614 23.4668L21.4523 9.15626C21.6895 8.87939 21.82 8.5268 21.82 8.16222V3.70891C21.82 2.86542 21.1362 2.18164 20.2927 2.18164H15.977C15.5313 2.18164 15.1076 2.37648 14.8174 2.71488L2.55123 17.0254C2.31385 17.3023 2.18359 17.6549 2.18359 18.0197Z" fill="#F0EB18"/>
<path d="M2.18359 18.556V22.4734C2.18359 23.3169 2.86738 24.0007 3.71087 24.0007H8.62061C8.69283 24.0007 8.76505 23.9954 8.83661 23.9854L22.6905 22.0065C23.443 21.8989 24.0018 21.2546 24.0018 20.4945V14.6171C24.0018 13.7734 23.3178 13.0896 22.4741 13.0898L15.5221 13.0916C15.3581 13.0916 15.1951 13.118 15.0395 13.1699L3.22781 17.1072C2.60425 17.3152 2.18359 17.8988 2.18359 18.5562V18.556Z" fill="url(#paint0_linear_3917_59726)"/>
<path d="M0 1.52727V14.2654C0 14.8763 0.364145 15.4285 0.925527 15.6692L14.9845 21.6947C15.1745 21.7761 15.3794 21.8182 15.5863 21.8182H22.4727C23.3162 21.8182 24 21.1344 24 20.2909V13.5537C24 13.2519 23.9105 12.9569 23.743 12.7058L15.7167 0.680073C15.4335 0.255491 14.957 0.000654545 14.4465 0.000654545L1.52727 0C0.683782 0 0 0.683782 0 1.52727Z" fill="url(#paint1_linear_3917_59726)"/>
<path d="M20 4H4V20H20V4Z" fill="black"/>
<path d="M6.8438 6.13388L7.80815 10.4943L8.83649 6.13388H10.0141L11.0893 10.4943L12.0237 6.13388H13.2056L11.7549 12.1071H10.428L9.42118 7.76794L8.40152 12.1071H7.07878L5.63672 6.13388H6.84426H6.8438ZM15.7217 12.2098C15.2893 12.2098 14.9053 12.1314 14.5697 11.975C14.2369 11.8187 13.9752 11.5995 13.7846 11.3179C13.5969 11.0363 13.5003 10.7119 13.4945 10.3451H14.6637C14.6637 10.5183 14.7092 10.671 14.8001 10.8015C14.8911 10.9323 15.0177 11.0347 15.1798 11.1087C15.3419 11.1828 15.5281 11.2196 15.7387 11.2196C15.9492 11.2196 16.1169 11.1871 16.2678 11.1215C16.4214 11.0532 16.5393 10.9595 16.6219 10.8399C16.7071 10.7204 16.7499 10.5839 16.7499 10.4303C16.7499 10.2399 16.6916 10.082 16.575 9.95674C16.4612 9.83148 16.3035 9.74508 16.1014 9.69639L15.0475 9.46165C14.7631 9.39925 14.5156 9.29251 14.3051 9.14165C14.0945 8.98805 13.9311 8.79879 13.8143 8.57411C13.6977 8.34965 13.6395 8.09616 13.6395 7.81456C13.6395 7.47331 13.7277 7.16771 13.9039 6.89731C14.0804 6.62416 14.3263 6.41251 14.642 6.26165C14.9576 6.10805 15.316 6.03125 15.7172 6.03125C16.1183 6.03125 16.4865 6.10531 16.8052 6.25319C17.1238 6.40085 17.3711 6.60725 17.5476 6.87194C17.7268 7.13388 17.8177 7.43514 17.8207 7.77639H16.6559C16.6559 7.63125 16.6175 7.50165 16.5407 7.38805C16.4639 7.27125 16.3544 7.18165 16.2123 7.11925C16.0728 7.05365 15.9121 7.02119 15.7302 7.02119C15.5483 7.02119 15.3873 7.05274 15.2481 7.11514C15.1117 7.17479 15.0049 7.26028 14.9281 7.37114C14.8513 7.47948 14.8129 7.60588 14.8129 7.75079C14.8129 7.91559 14.8655 8.05205 14.9709 8.16039C15.079 8.26874 15.2255 8.34554 15.4104 8.39079L16.426 8.61274C16.719 8.67239 16.9791 8.78599 17.2068 8.95399C17.4372 9.11879 17.6164 9.32359 17.7444 9.56839C17.8724 9.80999 17.9364 10.0744 17.9364 10.362C17.9364 10.7144 17.8424 11.0319 17.6548 11.3135C17.4699 11.5924 17.2095 11.8111 16.874 11.9707C16.5384 12.1302 16.1544 12.2095 15.722 12.2095L15.7217 12.2098Z" fill="white"/>
<path d="M12 17H6V18H12V17Z" fill="white"/>
</g>
<defs>
<linearGradient id="paint0_linear_3917_59726" x1="2.85974" y1="24.2697" x2="22.9696" y2="14.9461" gradientUnits="userSpaceOnUse">
<stop offset="0.22" stop-color="#F0EB18"/>
<stop offset="0.59" stop-color="#00C4F4"/>
</linearGradient>
<linearGradient id="paint1_linear_3917_59726" x1="22.507" y1="22.4166" x2="0.492437" y2="0.402326" gradientUnits="userSpaceOnUse">
<stop offset="0.19" stop-color="#00C4F4"/>
<stop offset="0.83" stop-color="#007DFE"/>
</linearGradient>
<clipPath id="clip0_3917_59726">
<rect width="24" height="24" fill="white"/>
</clipPath>
</defs>
</svg>
