<svg width="48" height="48" viewBox="0 0 48 48" fill="none" xmlns="http://www.w3.org/2000/svg">
<path d="M7.6 42.2L1.5 6.20001L12.7 1.60001L19.9 5.80001L26.4 2.30001L40.1 7.50001L32.4 46.5L7.6 42.2Z" fill="url(#paint0_linear_2108_61216)"/>
<path d="M26.3999 2.29999L19.8999 5.79999L21.7999 20.5L25.7999 23.3L27.0999 31.8L31.5999 32.2L28.1999 16.5L26.3999 2.29999Z" fill="url(#paint1_linear_2108_61216)"/>
<path d="M21.8 22L19.9 5.80001L12.7 1.60001L15.7 19L16.8 29.9L23 29.6L22.5 26.9L21.8 22Z" fill="url(#paint2_linear_2108_61216)"/>
<path d="M7.6 42.2L1.5 6.20001L12.7 1.60001L15.9 19.7L7.6 42.2Z" fill="url(#paint3_linear_2108_61216)"/>
<path d="M15.8 19.5L12.7 1.60001L1.5 6.20001L14 17.1L15.8 19.5Z" fill="url(#paint4_linear_2108_61216)"/>
<path d="M7.6 42.2L1.5 6.20001L14 17.1L26.5 33.6L7.6 42.2Z" fill="url(#paint5_linear_2108_61216)"/>
<path d="M7.6001 42.2L18.2001 34.5L32.4001 46.5L7.6001 42.2Z" fill="url(#paint6_linear_2108_61216)"/>
<path d="M23.2001 32.6L18.3 37.3L32.4001 46.5L34.9001 34L23.2001 32.6Z" fill="url(#paint7_linear_2108_61216)"/>
<path d="M7.6001 42.2L18.3001 37.3L32.4001 46.5L7.6001 42.2Z" fill="url(#paint8_linear_2108_61216)"/>
<path d="M46.4999 16.7L40.6999 2.4L30.1999 1.5L13.8999 17.1L18.0999 37.3L26.7999 42.8L46.4999 31.1L41.5999 21.9L46.4999 16.7Z" fill="url(#paint9_linear_2108_61216)"/>
<path d="M31.3999 16L30.1999 1.5L13.8999 17.1L25.8999 20.9L31.3999 16Z" fill="url(#paint10_linear_2108_61216)"/>
<path d="M28.4999 3.10001L13.8999 17.1L25.8999 20.9L32.3999 27.9L30.2999 3.70001L28.4999 3.10001Z" fill="url(#paint11_linear_2108_61216)"/>
<path d="M25.9 20.9L28.6 18.4L28.2 16.5L26.7 4.79999L20.5 10.8L21.7 19.5L25.9 20.9Z" fill="url(#paint12_linear_2108_61216)"/>
<path d="M21.7 19.5L20.5 10.8L15.2 15.9L15.5 17.6L21.7 19.5Z" fill="url(#paint13_linear_2108_61216)"/>
<path d="M28.4999 3.10001L13.8999 17.1L30.3999 3.80001L28.4999 3.10001Z" fill="url(#paint14_linear_2108_61216)"/>
<path d="M26.9 6.40002L26.7 4.80002L20.5 10.8L20.6 11.6L26.9 6.40002Z" fill="url(#paint15_linear_2108_61216)"/>
<path d="M20.6 11.6L20.5 10.8L15.2 15.9V16L20.6 11.6Z" fill="url(#paint16_linear_2108_61216)"/>
<path d="M35.9999 11.8L25.8999 20.9L26.7999 42.8L46.4999 31.1L41.5999 21.9L35.9999 11.8Z" fill="url(#paint17_linear_2108_61216)"/>
<path d="M31.3999 17.2L32.2999 28.7L46.4999 31.1L41.5999 21.9L38.6999 16.7L31.3999 17.2Z" fill="url(#paint18_linear_2108_61216)"/>
<path d="M31.3999 17.2L32.2999 28.7L34.5999 29L41.5999 21.9L38.6999 16.7L31.3999 17.2Z" fill="url(#paint19_linear_2108_61216)"/>
<path d="M25.8999 20.9L13.8999 17.1L18.0999 37.3L26.7999 42.8L25.8999 20.9Z" fill="url(#paint20_linear_2108_61216)"/>
<path d="M21.9 22L21.6 19.5L15.5 17.6L15.7 19L17.7 34.6L18.1 36.1L24.4 41L21.9 22Z" fill="url(#paint21_linear_2108_61216)"/>
<path d="M18.1001 37.3L26.8001 42.8L26.3001 31.9L18.1001 37.3Z" fill="url(#paint22_linear_2108_61216)"/>
<path d="M35.9999 11.8L41.5999 21.9L46.4999 16.7L40.6999 2.39999L33.3999 11.5L35.9999 11.8Z" fill="url(#paint23_linear_2108_61216)"/>
<path d="M38.7 16.7L41.5999 21.9L46.5 16.7H38.7Z" fill="url(#paint24_linear_2108_61216)"/>
<path d="M13.8999 17.1L14.8999 21.8L13.8999 17.1Z" fill="url(#paint25_linear_2108_61216)"/>
<path d="M38 10H10V38H38V10Z" fill="url(#paint26_linear_2108_61216)"/>
<g opacity="0.3">
<path opacity="0.3" d="M21.7 20.5L22.7 29.3L25.9 33.6L31.5 32.2L28 16.5L27.3 10H20.3L21.7 20.5Z" fill="url(#paint27_linear_2108_61216)"/>
<g opacity="0.3">
<path opacity="0.3" d="M37.9999 36.1V15.6L35.8999 11.8L25.8999 20.9L26.5999 38H34.6999L37.9999 36.1Z" fill="url(#paint28_linear_2108_61216)"/>
<path opacity="0.3" d="M37.9999 10H34.5999L33.3999 11.5L35.8999 11.8L37.9999 15.6V10Z" fill="url(#paint29_linear_2108_61216)"/>
</g>
<path opacity="0.3" d="M15.7 19L18.3 37.5L23 29.6L22.5 26.9L21.8 22L20.4 10H14.2L15.7 19Z" fill="url(#paint30_linear_2108_61216)"/>
<path opacity="0.3" d="M35.8999 11.8L33.3999 11.5L34.5999 10H21.3999L13.8999 17.2L18.0999 37.2L19.2999 38H26.5999L25.8999 20.9L35.8999 11.8Z" fill="url(#paint31_linear_2108_61216)"/>
<path opacity="0.3" d="M10 13.6L14 17.1L15.9 19.6L14.2 10H10V13.6Z" fill="url(#paint32_linear_2108_61216)"/>
<g opacity="0.3">
<path opacity="0.3" d="M10 13.6V38H16.7L18.3 37.2L14 17.1L10 13.6Z" fill="url(#paint33_linear_2108_61216)"/>
</g>
</g>
<path d="M24 32.7H13.5V34.4H24V32.7Z" fill="white"/>
<path d="M23.4 13.2001L21.9 19.3001L20.1 13.2001H18.3L16.5 19.3001L14.9 13.2001H12.5L15.5 23.7001H17.5L19.2 17.6001L20.9 23.7001H22.9L25.9 13.2001H23.4Z" fill="white"/>
<path d="M26.3 22.2001L27.7001 20.6001C28.6001 21.4001 29.6 21.9001 30.8 21.9001C31.7 21.9001 32.3 21.5001 32.3 20.9001C32.3 20.3001 31.9001 20.0001 30.2001 19.6001C28.1001 19.1001 26.7001 18.5001 26.7001 16.4001C26.7001 14.5001 28.2 13.2001 30.4 13.2001C31.9 13.2001 33.2 13.7001 34.3 14.5001L33.1 16.2001C32.2 15.6001 31.3 15.2001 30.4 15.2001C29.5 15.2001 29 15.6001 29 16.1001C29 16.8001 29.5 17.0001 31.3 17.5001C33.4 18.1001 34.6 18.8001 34.6 20.7001C34.6 22.8001 33.0001 24.0001 30.7001 24.0001C29.2001 23.9001 27.6 23.3001 26.3 22.2001Z" fill="white"/>
<defs>
<linearGradient id="paint0_linear_2108_61216" x1="17.6149" y1="2.43851" x2="29.2604" y2="44.3625" gradientUnits="userSpaceOnUse">
<stop offset="0.2849" stop-color="#07C3F2"/>
<stop offset="0.9409" stop-color="#087CFA"/>
</linearGradient>
<linearGradient id="paint1_linear_2108_61216" x1="21.4841" y1="0.0532379" x2="27.5501" y2="26.169" gradientUnits="userSpaceOnUse">
<stop offset="0.0669317" stop-color="#42FFFA"/>
<stop offset="0.3409" stop-color="#07C3F2"/>
<stop offset="0.9409" stop-color="#087CFA"/>
</linearGradient>
<linearGradient id="paint2_linear_2108_61216" x1="11.2813" y1="0.115806" x2="20.7986" y2="24.0047" gradientUnits="userSpaceOnUse">
<stop offset="0.2849" stop-color="#07C3F2"/>
<stop offset="0.9409" stop-color="#087CFA"/>
</linearGradient>
<linearGradient id="paint3_linear_2108_61216" x1="4.0884" y1="-2.72439" x2="14.3687" y2="39.0351" gradientUnits="userSpaceOnUse">
<stop offset="0.0669317" stop-color="#42FFFA"/>
<stop offset="0.3409" stop-color="#07C3F2"/>
<stop offset="0.9409" stop-color="#087CFA"/>
</linearGradient>
<linearGradient id="paint4_linear_2108_61216" x1="7.8672" y1="13.6991" x2="10.9576" y2="10.5021" gradientUnits="userSpaceOnUse">
<stop offset="0.00971316" stop-color="#42FFFA"/>
<stop offset="0.9216" stop-color="#07C3F2" stop-opacity="0"/>
</linearGradient>
<linearGradient id="paint5_linear_2108_61216" x1="-9.7417" y1="15.0168" x2="20.6521" y2="34.5557" gradientUnits="userSpaceOnUse">
<stop offset="0.1985" stop-color="#07C3F2"/>
<stop offset="0.9403" stop-color="#087CFA"/>
</linearGradient>
<linearGradient id="paint6_linear_2108_61216" x1="1.6482" y1="39.7925" x2="19.1438" y2="40.3033" gradientUnits="userSpaceOnUse">
<stop offset="0.1291" stop-color="#1D53B8"/>
<stop offset="0.8696" stop-color="#087CFA"/>
</linearGradient>
<linearGradient id="paint7_linear_2108_61216" x1="25.7683" y1="32.667" x2="29.5601" y2="46.3173" gradientUnits="userSpaceOnUse">
<stop offset="0.2771" stop-color="#087BFA"/>
<stop offset="0.6826" stop-color="#085DFA"/>
</linearGradient>
<linearGradient id="paint8_linear_2108_61216" x1="17.5192" y1="24.2155" x2="20.201" y2="45.9254" gradientUnits="userSpaceOnUse">
<stop offset="0.5232" stop-color="#087BFA"/>
<stop offset="0.9771" stop-color="#086DFA"/>
</linearGradient>
<linearGradient id="paint9_linear_2108_61216" x1="21.1749" y1="7.8079" x2="40.8753" y2="36.6959" gradientUnits="userSpaceOnUse">
<stop offset="0.1286" stop-color="#FCF84A"/>
<stop offset="0.4986" stop-color="#07C3F2"/>
</linearGradient>
<linearGradient id="paint10_linear_2108_61216" x1="29.8337" y1="1.3128" x2="27.9101" y2="5.3863" gradientUnits="userSpaceOnUse">
<stop stop-color="#73A4AA"/>
<stop offset="0.6751" stop-color="#FCF84A"/>
</linearGradient>
<linearGradient id="paint11_linear_2108_61216" x1="19.8254" y1="-5.13779" x2="26.7081" y2="41.6462" gradientUnits="userSpaceOnUse">
<stop offset="0.1786" stop-color="#FCF84A"/>
<stop offset="0.8591" stop-color="#07C3F2"/>
</linearGradient>
<linearGradient id="paint12_linear_2108_61216" x1="22.3297" y1="4.07989" x2="27.5823" y2="26.6936" gradientUnits="userSpaceOnUse">
<stop offset="0.1787" stop-color="#FCF84A"/>
<stop offset="0.9725" stop-color="#12C6EC"/>
</linearGradient>
<linearGradient id="paint13_linear_2108_61216" x1="16.7457" y1="11.6664" x2="21.0324" y2="20.5887" gradientUnits="userSpaceOnUse">
<stop offset="0.1286" stop-color="#FCF84A"/>
<stop offset="0.9414" stop-color="#07C3F2"/>
</linearGradient>
<linearGradient id="paint14_linear_2108_61216" x1="20.5563" y1="-0.209494" x2="23.7866" y2="21.748" gradientUnits="userSpaceOnUse">
<stop offset="0.1786" stop-color="#FCF84A"/>
<stop offset="0.8591" stop-color="#07C3F2"/>
</linearGradient>
<linearGradient id="paint15_linear_2108_61216" x1="22.9676" y1="5.07152" x2="24.7418" y2="12.7099" gradientUnits="userSpaceOnUse">
<stop offset="0.1787" stop-color="#D3FF8C"/>
<stop offset="0.8762" stop-color="#12C6EC"/>
</linearGradient>
<linearGradient id="paint16_linear_2108_61216" x1="17.2012" y1="12.1078" x2="18.4466" y2="14.7" gradientUnits="userSpaceOnUse">
<stop offset="0.1286" stop-color="#FCF84A"/>
<stop offset="0.9414" stop-color="#07C3F2"/>
</linearGradient>
<linearGradient id="paint17_linear_2108_61216" x1="25.6594" y1="18.9154" x2="38.4798" y2="37.7147" gradientUnits="userSpaceOnUse">
<stop stop-color="#07C3F2"/>
<stop offset="0.906" stop-color="#00A0FF"/>
</linearGradient>
<linearGradient id="paint18_linear_2108_61216" x1="44.2518" y1="23.4605" x2="28.1609" y2="25.5038" gradientUnits="userSpaceOnUse">
<stop stop-color="#07C3F2"/>
<stop offset="1" stop-color="#0895F7"/>
</linearGradient>
<linearGradient id="paint19_linear_2108_61216" x1="40.6799" y1="22.1288" x2="28.9391" y2="23.6197" gradientUnits="userSpaceOnUse">
<stop stop-color="#07C3F2"/>
<stop offset="1" stop-color="#0895F7"/>
</linearGradient>
<linearGradient id="paint20_linear_2108_61216" x1="12.0603" y1="14.5215" x2="28.7251" y2="38.9582" gradientUnits="userSpaceOnUse">
<stop offset="0.080633" stop-color="#FCF84A"/>
<stop offset="0.5708" stop-color="#07C3F2"/>
</linearGradient>
<linearGradient id="paint21_linear_2108_61216" x1="13.9563" y1="15.5816" x2="26.7032" y2="42.1129" gradientUnits="userSpaceOnUse">
<stop offset="0.1286" stop-color="#FCF84A"/>
<stop offset="0.4216" stop-color="#07C3F2"/>
</linearGradient>
<linearGradient id="paint22_linear_2108_61216" x1="17.6374" y1="31.5038" x2="28.4758" y2="38.8417" gradientUnits="userSpaceOnUse">
<stop offset="0.09347" stop-color="#087CFA"/>
<stop offset="0.6584" stop-color="#07C3F2"/>
</linearGradient>
<linearGradient id="paint23_linear_2108_61216" x1="36.6572" y1="2.43009" x2="42.2181" y2="22.1249" gradientUnits="userSpaceOnUse">
<stop stop-color="#FCF84A"/>
<stop offset="0.4651" stop-color="#07C3F2"/>
<stop offset="0.9409" stop-color="#087CFA"/>
</linearGradient>
<linearGradient id="paint24_linear_2108_61216" x1="48.6739" y1="18.0368" x2="32.1999" y2="20.4632" gradientUnits="userSpaceOnUse">
<stop stop-color="#0863FA"/>
<stop offset="0.9409" stop-color="#1AC8FB"/>
</linearGradient>
<linearGradient id="paint25_linear_2108_61216" x1="13.1399" y1="17.6639" x2="15.733" y2="21.4664" gradientUnits="userSpaceOnUse">
<stop offset="0.1286" stop-color="#FCF84A"/>
<stop offset="0.4216" stop-color="#07C3F2"/>
</linearGradient>
<linearGradient id="paint26_linear_2108_61216" x1="9.29678" y1="8.72852" x2="33.8034" y2="34.1822" gradientUnits="userSpaceOnUse">
<stop stop-color="#006396"/>
<stop offset="0.0470796" stop-color="#005682"/>
<stop offset="0.1677" stop-color="#003754"/>
<stop offset="0.2832" stop-color="#001F2F"/>
<stop offset="0.3905" stop-color="#000E15"/>
<stop offset="0.4867" stop-color="#000406"/>
<stop offset="0.5623"/>
<stop offset="0.9138"/>
</linearGradient>
<linearGradient id="paint27_linear_2108_61216" x1="22.0189" y1="6.9063" x2="26.8734" y2="27.8064" gradientUnits="userSpaceOnUse">
<stop offset="0.0669317" stop-color="#42FFFA"/>
<stop offset="0.3409" stop-color="#07C3F2"/>
<stop offset="0.9409" stop-color="#0838AF"/>
</linearGradient>
<linearGradient id="paint28_linear_2108_61216" x1="26.6867" y1="18.229" x2="39.0914" y2="36.4189" gradientUnits="userSpaceOnUse">
<stop offset="0.1825" stop-color="#07C3F2"/>
<stop offset="0.906" stop-color="#00171C"/>
</linearGradient>
<linearGradient id="paint29_linear_2108_61216" x1="35.3076" y1="9.4346" x2="37.1511" y2="15.9634" gradientUnits="userSpaceOnUse">
<stop stop-color="#FCF84A"/>
<stop offset="0.4651" stop-color="#07C3F2"/>
<stop offset="0.9409" stop-color="#087CFA"/>
</linearGradient>
<linearGradient id="paint30_linear_2108_61216" x1="13.28" y1="8.5419" x2="21.8942" y2="30.1642" gradientUnits="userSpaceOnUse">
<stop offset="0.0167591" stop-color="#086DFA"/>
<stop offset="1" stop-color="#08328E"/>
</linearGradient>
<linearGradient id="paint31_linear_2108_61216" x1="25.3395" y1="8.6875" x2="23.1443" y2="39.3243" gradientUnits="userSpaceOnUse">
<stop offset="0.0186027" stop-color="#00FE80"/>
<stop offset="0.3413" stop-color="#21DE9B"/>
<stop offset="0.9563" stop-color="#0770B1"/>
</linearGradient>
<linearGradient id="paint32_linear_2108_61216" x1="9.4919" y1="3.5184" x2="16.5719" y2="25.9585" gradientUnits="userSpaceOnUse">
<stop offset="0.1985" stop-color="#07C3F2"/>
<stop offset="0.9403" stop-color="#0845D7"/>
</linearGradient>
<linearGradient id="paint33_linear_2108_61216" x1="5.8302" y1="15.9415" x2="18.2243" y2="39.2097" gradientUnits="userSpaceOnUse">
<stop stop-color="#07C3F2"/>
<stop offset="0.9409" stop-color="#0838AF"/>
</linearGradient>
</defs>
</svg>
