<!-- Copyright 2000-2024 JetBrains s.r.o. and contributors. Use of this source code is governed by the Apache 2.0 license. -->
<svg width="48" height="48" viewBox="0 0 48 48" fill="none" xmlns="http://www.w3.org/2000/svg">
<g clip-path="url(#clip0_3917_59725)">
<path d="M4.36328 36.0393L4.36459 44.946C4.36459 46.6329 5.73215 48.0001 7.41913 48.0001H16.0491C16.9406 48.0001 17.788 47.6104 18.3684 46.9336L42.9007 18.3125C43.3751 17.7588 43.636 17.0536 43.636 16.3244V7.41783C43.636 5.73084 42.2684 4.36328 40.5815 4.36328H31.9502C31.0587 4.36328 30.2113 4.75295 29.6309 5.42975L5.09855 34.0508C4.62379 34.6046 4.36328 35.3097 4.36328 36.0393Z" fill="#F0EB18"/>
<path d="M4.36328 37.11V44.9449C4.36328 46.6318 5.73084 47.9994 7.41783 47.9994H17.2373C17.3818 47.9994 17.5262 47.9889 17.6693 47.9689L45.3771 44.011C46.8821 43.7959 47.9996 42.5073 47.9996 40.987V29.2323C47.9996 27.5449 46.6316 26.1773 44.9442 26.1777L31.0404 26.1812C30.7122 26.1812 30.3863 26.234 30.0751 26.3379L6.45172 34.2125C5.20459 34.6284 4.36328 35.7956 4.36328 37.1104V37.11Z" fill="url(#paint0_linear_3917_59725)"/>
<path d="M0 3.05454V28.5308C0 29.7526 0.728291 30.857 1.85105 31.3383L29.969 43.3894C30.3491 43.5521 30.7588 43.6364 31.1725 43.6364H44.9454C46.6324 43.6364 48 42.2688 48 40.5818V27.1073C48 26.5038 47.8211 25.9139 47.4859 25.4116L31.4334 1.36015C30.867 0.510982 29.914 0.00130909 28.8929 0.00130909L3.05454 0C1.36756 0 0 1.36756 0 3.05454Z" fill="url(#paint1_linear_3917_59725)"/>
<path d="M39 9H9V39H39V9Z" fill="black"/>
<path d="M14.292 12.9955L16.0668 21.021L17.9595 12.9955H20.1269L22.1058 21.021L23.8255 12.9955H26.0009L23.3308 23.9893H20.8887L19.0356 16.003L17.1589 23.9893H14.7244L12.0703 12.9955H14.2928H14.292ZM30.6318 24.1782C29.8359 24.1782 29.1291 24.0339 28.5116 23.7462C27.899 23.4584 27.4174 23.055 27.0665 22.5367C26.7211 22.0184 26.5432 21.4214 26.5327 20.7462H28.6845C28.6845 21.0651 28.7682 21.3461 28.9356 21.5864C29.103 21.827 29.3361 22.0155 29.6344 22.1518C29.9326 22.2881 30.2755 22.3558 30.6629 22.3558C31.0504 22.3558 31.3592 22.2961 31.6368 22.1753C31.9195 22.0495 32.1366 21.877 32.2885 21.657C32.4454 21.437 32.5241 21.1859 32.5241 20.9032C32.5241 20.5527 32.4168 20.262 32.2022 20.0315C31.9927 19.801 31.7025 19.6419 31.3306 19.5523L29.3908 19.1203C28.8675 19.0054 28.4119 18.809 28.0244 18.5313C27.637 18.2486 27.3362 17.9003 27.1212 17.4868C26.9066 17.0737 26.7994 16.6071 26.7994 16.0888C26.7994 15.4607 26.9617 14.8983 27.2861 14.4006C27.6109 13.8979 28.0635 13.5083 28.6445 13.2307C29.2255 12.948 29.8851 12.8066 30.6234 12.8066C31.3617 12.8066 32.0394 12.9429 32.6259 13.2151C33.2123 13.4869 33.6675 13.8668 33.9923 14.3539C34.3221 14.836 34.4895 15.3905 34.495 16.0186H32.3512C32.3512 15.7514 32.2805 15.5129 32.1391 15.3038C31.9978 15.0889 31.7963 14.924 31.5346 14.8091C31.278 14.6884 30.9822 14.6286 30.6474 14.6286C30.3125 14.6286 30.0163 14.6867 29.7602 14.8015C29.509 14.9113 29.3125 15.0687 29.1712 15.2727C29.0298 15.4721 28.9592 15.7047 28.9592 15.9715C28.9592 16.2748 29.0559 16.5259 29.2499 16.7253C29.4488 16.9247 29.7185 17.0661 30.0588 17.1494L31.9279 17.5579C32.4673 17.6677 32.946 17.8767 33.365 18.186C33.7891 18.4893 34.1189 18.8662 34.3545 19.3168C34.59 19.7614 34.7078 20.2482 34.7078 20.7774C34.7078 21.4261 34.5349 22.0104 34.1896 22.5287C33.8492 23.0419 33.3701 23.4445 32.7525 23.7382C32.1349 24.0318 31.4282 24.1778 30.6322 24.1778L30.6318 24.1782Z" fill="white"/>
<path d="M25 33H13V35.0001H25V33Z" fill="white"/>
</g>
<defs>
<linearGradient id="paint0_linear_3917_59725" x1="5.71557" y1="48.5374" x2="45.9352" y2="29.8903" gradientUnits="userSpaceOnUse">
<stop offset="0.22" stop-color="#F0EB18"/>
<stop offset="0.59" stop-color="#00C4F4"/>
</linearGradient>
<linearGradient id="paint1_linear_3917_59725" x1="45.014" y1="44.8333" x2="0.984874" y2="0.804652" gradientUnits="userSpaceOnUse">
<stop offset="0.19" stop-color="#00C4F4"/>
<stop offset="0.83" stop-color="#007DFE"/>
</linearGradient>
<clipPath id="clip0_3917_59725">
<rect width="48" height="48" fill="white"/>
</clipPath>
</defs>
</svg>
