<svg xmlns="http://www.w3.org/2000/svg" width="12" height="12" viewBox="0 0 12 12">
  <path fill="#AFB1B3" fill-rule="evenodd" d="M1.71428571,4.27714286 C1.71428571,4.55314286 1.86942857,4.80685714 2.11457143,4.932 L2.382,5.06657143 C2.59028571,5.172 2.81228571,5.16085714 3,5.07514286 L3,3.86228571 L3,2.99485714 L3,1.782 C2.81228571,1.69542857 2.59028571,1.68514286 2.382,1.79057143 L2.11457143,1.92514286 C1.86942857,2.04942857 1.71428571,2.30314286 1.71428571,2.58 L1.71428571,2.99485714 L1.71428571,3.86228571 L1.71428571,4.27714286 Z M4.28571429,11.1428571 C2.66657143,11.1428571 0.838285714,9.276 0.857142857,7.71428571 L0.857142857,6 C0.857142857,4.782 1.34228571,4.28571429 1.71428571,4.28571429 L1.71428571,2.57142857 C0.771428571,2.57142857 0,4.35342857 0,6 L0,7.71428571 C0,10.0568571 2.22857143,12 4.28571429,12 L8.57142857,12 L8.57142857,11.1428571 L4.28571429,11.1428571 Z M8,0 L8,6.85714286 L5.26028571,6.85714286 C4.24885714,6.85714286 3.42857143,5.93485714 3.42857143,4.79657143 L3.42857143,2.05971429 C3.42857143,0.922285714 4.24885714,0 5.26028571,0 L8,0 Z M9,6 L12,6 L12,5.1 L9,5.1 L9,6 Z M9,1.9 L12,1.9 L12,1 L9,1 L9,1.9 Z"/>
</svg>
