<!-- Copyright 2000-2024 JetBrains s.r.o. and contributors. Use of this source code is governed by the Apache 2.0 license. -->
<svg width="40" height="40" viewBox="0 0 40 40" fill="none" xmlns="http://www.w3.org/2000/svg">
  <path
    d="M35.4673 17.1987L35.4224 17.0838L31.0669 5.71692C30.9783 5.49414 30.8214 5.30515 30.6187 5.17707C30.4159 5.05117 30.1793 4.99054 29.941 5.00335C29.7026 5.01616 29.4739 5.10181 29.2857 5.24872C29.0997 5.39985 28.9647 5.60464 28.8992 5.83522L25.9583 14.8327H14.05L11.1091 5.83522C11.0454 5.60339 10.9101 5.39757 10.7226 5.24705C10.5344 5.10014 10.3057 5.01449 10.0674 5.00168C9.829 4.98887 9.59244 5.04951 9.38962 5.17541C9.18739 5.304 9.03062 5.49282 8.94141 5.71526L4.57763 17.0771L4.53431 17.1921C3.90732 18.8303 3.82993 20.6279 4.31381 22.314C4.79768 24 5.81658 25.483 7.2169 26.5394L7.23189 26.5511L7.27188 26.5794L13.9067 31.5481L17.1891 34.0324L19.1886 35.5419C19.4224 35.7195 19.708 35.8156 20.0017 35.8156C20.2953 35.8156 20.5809 35.7195 20.8148 35.5419L22.8142 34.0324L26.0966 31.5481L32.7714 26.5494L32.7881 26.5361C34.1853 25.4795 35.2018 23.998 35.6849 22.3142C36.1681 20.6305 36.0917 18.8354 35.4673 17.1987Z"
    fill="#E24329"/>
  <path
    d="M35.4674 17.1987L35.4224 17.0838C33.3001 17.5194 31.3003 18.4183 29.5657 19.7164L20 26.9493C23.2574 29.4137 26.0933 31.5547 26.0933 31.5547L32.7681 26.5561L32.7848 26.5428C34.1839 25.4862 35.2021 24.0038 35.6859 22.3186C36.1697 20.6333 36.093 18.8366 35.4674 17.1987Z"
    fill="#FC6D26"/>
  <path
    d="M13.9067 31.5547L17.1891 34.039L19.1886 35.5486C19.4224 35.7262 19.708 35.8223 20.0017 35.8223C20.2953 35.8223 20.5809 35.7262 20.8148 35.5486L22.8142 34.039L26.0966 31.5547C26.0966 31.5547 23.2574 29.407 20 26.9493C16.7426 29.407 13.9067 31.5547 13.9067 31.5547Z"
    fill="#FCA326"/>
  <path
    d="M10.4327 19.7164C8.69947 18.4156 6.70004 17.5144 4.57763 17.0771L4.53431 17.1921C3.90732 18.8303 3.82993 20.6279 4.31381 22.314C4.79768 24 5.81658 25.483 7.2169 26.5394L7.23189 26.5511L7.27188 26.5794L13.9067 31.5481C13.9067 31.5481 16.7392 29.407 20 26.9427L10.4327 19.7164Z"
    fill="#FC6D26"/>
</svg>
