<!-- Copyright 2000-2026 JetBrains s.r.o. and contributors. Use of this source code is governed by the Apache 2.0 license. -->
<svg width="40" height="40" viewBox="0 0 40 40" fill="none" xmlns="http://www.w3.org/2000/svg">
<rect x="2.001" y="7" width="36" height="26" fill="#ffffff"/>
<path fill-rule="evenodd" clip-rule="evenodd" d="M2.001 7V16.402C6.865 14.386 13.375 12.358 21.546 10.314C26.781 9.007 31.841 7.903 36.726 7H2.001ZM25.262 11.472C20.974 12.543 17.526 13.633 14.915 14.739C12.3 15.822 11.079 16.704 11.252 17.379C11.403 17.976 12.497 18.247 14.54 18.189C15.589 18.17 17.292 18.058 19.654 17.85C22.016 17.644 25.063 17.342 28.796 16.949C32.493 16.568 35.547 16.308 38.001 16.159V9.014C33.258 9.715 29.006 10.534 25.262 11.472ZM23.115 21.171C21.258 21.309 18.955 21.519 16.2 21.807C11.927 22.26 8.377 22.604 5.552 22.836C4.2 22.948 3.024 23.03 2.001 23.088V30.708C7.607 29.889 12.676 28.917 17.197 27.787C21.641 26.676 25.063 25.598 27.468 24.552C29.871 23.505 30.978 22.625 30.797 21.905C30.638 21.283 29.528 20.965 27.471 20.951C26.417 20.962 24.967 21.035 23.115 21.171ZM38.001 23.636C33.074 25.558 26.96 27.431 19.656 29.258C12.851 30.958 6.971 32.181 2.001 32.932V33H38.001V23.636Z" fill="#809CC9"/>
<path fill-rule="evenodd" clip-rule="evenodd" d="M3.551 25.231C3.645 25.231 3.725 25.266 3.794 25.336C3.862 25.404 3.898 25.484 3.898 25.577C3.898 25.675 3.862 25.76 3.794 25.827C3.725 25.895 3.643 25.928 3.546 25.928C3.447 25.928 3.364 25.895 3.296 25.827C3.227 25.757 3.192 25.675 3.192 25.577C3.192 25.481 3.227 25.399 3.296 25.331C3.364 25.264 3.451 25.231 3.551 25.231ZM3.794 27.582C3.862 27.65 3.898 27.732 3.898 27.83C3.898 27.926 3.862 28.008 3.794 28.075C3.721 28.143 3.638 28.176 3.546 28.176C3.496 28.176 3.449 28.167 3.407 28.148C3.364 28.132 3.326 28.106 3.296 28.075C3.262 28.043 3.237 28.008 3.22 27.963C3.201 27.921 3.192 27.874 3.192 27.825C3.192 27.729 3.227 27.647 3.296 27.579C3.364 27.512 3.451 27.477 3.551 27.477C3.645 27.477 3.725 27.512 3.794 27.582Z" fill="#ffffff"/>
<path fill-rule="evenodd" clip-rule="evenodd" d="M4.769 25.231C4.864 25.231 4.944 25.266 5.013 25.336C5.081 25.404 5.117 25.484 5.117 25.577C5.117 25.675 5.081 25.76 5.013 25.827C4.944 25.895 4.862 25.928 4.765 25.928C4.665 25.928 4.58 25.895 4.512 25.827C4.443 25.757 4.41 25.675 4.41 25.577C4.41 25.481 4.443 25.399 4.512 25.331C4.583 25.264 4.67 25.231 4.769 25.231ZM5.013 27.582C5.081 27.65 5.117 27.732 5.117 27.83C5.117 27.926 5.081 28.008 5.013 28.075C4.939 28.143 4.857 28.176 4.765 28.176C4.715 28.176 4.668 28.167 4.625 28.148C4.583 28.132 4.545 28.106 4.512 28.075C4.481 28.043 4.455 28.008 4.439 27.963C4.42 27.921 4.41 27.874 4.41 27.825C4.41 27.729 4.443 27.647 4.512 27.579C4.583 27.512 4.67 27.477 4.769 27.477C4.864 27.477 4.944 27.512 5.013 27.582Z" fill="#ffffff"/>
</svg>