<!-- Copyright 2000-2024 JetBrains s.r.o. and contributors. Use of this source code is governed by the Apache 2.0 license. -->
<svg width="16" height="16" viewBox="0 0 16 16" fill="none" xmlns="http://www.w3.org/2000/svg">
<path fill-rule="evenodd" clip-rule="evenodd" d="M13 9.54203V2.10508C13 1.51346 12.4892 1.05117 11.9005 1.11004L3.9005 1.91004C3.38929 1.96116 3 2.39133 3 2.90508V13.8951C3 14.4867 3.51082 14.949 4.09951 14.8901L12.0995 14.0901C12.6107 14.039 13 13.6089 13 13.0951V9.55933C13.0001 9.55359 13.0001 9.54782 13 9.54203ZM4 2.90508L4 5.8976L12 5.0976V2.10508L4 2.90508ZM12 6.10258L4 6.90258L4 9.8976L12 9.0976V6.10258ZM12 10.1026L4 10.9026L4 13.8951L12 13.0951V10.1026Z" fill="#DB5C5C"/>
<path d="M4 5.8975L4 2.90498L12 2.10498V5.0975L4 5.8975Z" fill="#402929"/>
<path d="M4 6.90249L12 6.10249V9.0975L4 9.8975L4 6.90249Z" fill="#402929"/>
<path d="M4 10.9025L12 10.1025V13.095L4 13.895L4 10.9025Z" fill="#402929"/>
</svg>
