<svg width="16" height="16" viewBox="0 0 16 16" fill="none" xmlns="http://www.w3.org/2000/svg">
    <g clip-path="url(#clip0_13423_12182)">
        <path d="M4.80099 1.8199C3.77859 1.92214 3 2.78247 3 3.80998V15L11.199 14.1801C12.2214 14.0779 13 13.2175 13 12.19V1L4.80099 1.8199Z" fill="#402929"/>
        <path fill-rule="evenodd" clip-rule="evenodd" d="M13 12.19C13 13.2175 12.2214 14.0779 11.199 14.1801L3 15V3.80998C3 2.78247 3.77859 1.92214 4.80099 1.8199L13 1C13 4.73002 13 8.46007 13 12.19ZM4 3.80998C4 3.29622 4.38929 2.86606 4.9005 2.81494L12 2.10499V5.10496L4 5.99385V3.80998ZM4 7L12 6.11111V9.10496L4 9.99384V7ZM4 11L12 10.1111V12.19C12 12.7038 11.6107 13.1339 11.0995 13.1851L4 13.895V11Z" fill="#DB5C5C"/>
    </g>
    <defs>
        <clipPath id="clip0_13423_12182">
            <rect width="16" height="16" fill="white"/>
        </clipPath>
    </defs>
</svg>
