<svg id="Layer_1" data-name="Layer 1" xmlns="http://www.w3.org/2000/svg" viewBox="0 0 16 16">
  <title>sources</title>
  <g>
    <g opacity="0.5">
      <path d="M4.686,12h6.628A6,6,0,1,0,4.686,12Z" fill="#40b6e0"/>
    </g>
    <path d="M10.61593,8.96547l-0.5407-.55337a2.47758,2.47758,0,0,1-1.88411.78046A2.12355,2.12355,0,0,1,6.16378,6.984V6.96742A2.145,2.145,0,0,1,8.22869,4.74521l0.0204-.00065a2.6174,2.6174,0,0,1,1.82321.71283l0.51115-.55467A3.12453,3.12453,0,0,0,8.28036,4H8.09855a3.0168,3.0168,0,0,0-3.0976,2.93377L5,6.984V7.00038A2.994,2.994,0,0,0,8.00234,9.984h0.2536A3.12367,3.12367,0,0,0,10.61593,8.96547Z" fill="#231f20" opacity="0.6" style="isolation: isolate"/>
    <rect x="1" y="13" width="14" height="1.9839" fill="#9fabb4"/>
  </g>
</svg>
