<svg width="40" height="40" viewBox="0 0 40 40" fill="none" xmlns="http://www.w3.org/2000/svg">
<path d="M10.293 27.293C10.6835 26.9024 11.3165 26.9024 11.707 27.293C12.0975 27.6835 12.0976 28.3165 11.707 28.707L7.70703 32.707C7.31651 33.0976 6.68349 33.0975 6.29297 32.707L4.29297 30.707C3.90244 30.3165 3.90244 29.6835 4.29297 29.293C4.68349 28.9024 5.31651 28.9024 5.70703 29.293L7 30.5859L10.293 27.293Z" fill="#CED0D6"/>
<path fill-rule="evenodd" clip-rule="evenodd" d="M16 24.5V30C16 36.9991 8.00211 39.9992 8 40L7.65625 39.8574C6.125 39.1875 0 36.125 0 30V24.5L8 21L16 24.5ZM2 25.8076V30C2 32.6557 3.50073 34.6432 5.26074 36.0732C6.12947 36.7791 7.00866 37.302 7.67383 37.6484C7.78994 37.7089 7.89976 37.7616 8 37.8105C8.10024 37.7616 8.21006 37.7089 8.32617 37.6484C8.99134 37.302 9.87053 36.7791 10.7393 36.0732C12.4993 34.6432 14 32.6557 14 30V25.8076L8 23.1826L2 25.8076Z" fill="#CED0D6"/>
<path d="M28 8V20C28 23.866 24.866 27 21 27H18V24.5C17.9999 23.7056 17.5295 22.9865 16.8018 22.668L8.80176 19.168C8.29078 18.9445 7.70922 18.9445 7.19824 19.168L6 19.6914V8H28Z" fill="#45322B"/>
<path d="M34 8V12.1455C34 12.7136 33.679 13.2332 33.1709 13.4873L31 14.5723V8H34Z" fill="#45322B"/>
<path d="M31.5 32C32.3284 32 33 32.6716 33 33.5C33 34.3284 32.3284 35 31.5 35H16.7686C17.2392 34.1015 17.6086 33.1027 17.8154 32H31.5Z" fill="#C77D55"/>
<path fill-rule="evenodd" clip-rule="evenodd" d="M34.5 5C35.8807 5 37 6.11929 37 7.5V12.1455C37 13.8499 36.0371 15.4086 34.5127 16.1709L31 17.9268V20C31 25.5228 26.5228 30 21 30H18V27H21C24.866 27 28 23.866 28 20V8H6V19.6914L3.04785 20.9824C3.01633 20.6592 3 20.3315 3 20V8C3 6.34315 4.34315 5 6 5H34.5ZM31 14.5723L33.1709 13.4873C33.679 13.2332 34 12.7136 34 12.1455V8H31V14.5723Z" fill="#C77D55"/>
</svg>
