<!-- Copyright 2000-2024 JetBrains s.r.o. and contributors. Use of this source code is governed by the Apache 2.0 license. -->
<svg width="16" height="16" viewBox="0 0 16 16" fill="none" xmlns="http://www.w3.org/2000/svg">
<path fill-rule="evenodd" clip-rule="evenodd" d="M2.93421 1.25196C2.7972 1.0122 2.49177 0.928898 2.25202 1.0659C2.01226 1.20291 1.92896 1.50834 2.06596 1.74809L3.14687 3.63967C1.71222 4.73602 0.65943 6.30676 0.222701 8.11768C0.0771252 8.72133 0 9.35166 0 10H16C16 9.30939 15.9125 8.63922 15.748 8C15.2947 6.23878 14.2567 4.71229 12.8533 3.63976L13.9342 1.74809C14.0712 1.50834 13.9879 1.20291 13.7482 1.0659C13.5084 0.928898 13.203 1.0122 13.066 1.25196L12.0202 3.082C10.839 2.39406 9.46551 2 8 2C6.53455 2 5.16113 2.39403 3.9799 3.08192L2.93421 1.25196ZM11 8C11.5523 8 12 7.55228 12 7C12 6.44772 11.5523 6 11 6C10.4477 6 10 6.44772 10 7C10 7.55228 10.4477 8 11 8ZM5 8C5.55228 8 6 7.55228 6 7C6 6.44772 5.55228 6 5 6C4.44772 6 4 6.44772 4 7C4 7.55228 4.44772 8 5 8Z" fill="#57965C"/>
</svg>
