<!-- Copyright 2000-2024 JetBrains s.r.o. and contributors. Use of this source code is governed by the Apache 2.0 license. -->
<svg width="16" height="16" viewBox="0 0 16 16" fill="none" xmlns="http://www.w3.org/2000/svg">
<path d="M0.929688 11.768H1.15369C1.44769 11.768 1.67869 11.6653 1.84669 11.46C2.01935 11.25 2.10569 10.9677 2.10569 10.613V3.20001H3.37969V10.613C3.37969 11.0983 3.29102 11.5207 3.11369 11.88C2.94102 12.2393 2.69135 12.517 2.36469 12.713C2.04269 12.9043 1.66235 13 1.22369 13H0.929688V11.768Z" fill="#548AF7"/>
<path d="M4.21586 3.20001H5.53186L6.40686 10.13L6.43486 11.061H6.58886L6.62386 10.13L7.53386 3.20001H8.80786L7.27486 13H5.72086L4.21586 3.20001Z" fill="#548AF7"/>
<path d="M9.64305 3.20001H11.526L12.303 9.43001L12.331 10.361H12.485L12.506 9.43001L13.22 3.20001H15.131V13H13.969V5.45401L14.053 4.52301L13.899 4.50901L13.857 5.44701L12.898 13H11.897L10.917 5.48901L10.875 4.55101L10.721 4.56501L10.805 5.49601V13H9.64305V3.20001Z" fill="#548AF7"/>
</svg>
