<!-- Copyright 2000-2024 JetBrains s.r.o. and contributors. Use of this source code is governed by the Apache 2.0 license. -->
<svg width="16" height="16" viewBox="0 0 16 16" fill="none" xmlns="http://www.w3.org/2000/svg">
<path fill-rule="evenodd" clip-rule="evenodd" d="M6.17434 2.876C6.14374 4.48724 6.24356 4.23804 6.18198 4.97739C6.15367 5.31726 6.11599 5.44345 5.94512 5.85338C5.7592 6.29943 5.55986 6.55337 5.28325 6.94417C4.6822 7.79329 4.04931 8.64035 3.89068 9.69355C3.8599 9.89784 3.85633 10.162 3.86322 10.4095C3.68074 10.57 3.58701 10.8402 3.39951 11.0463C3.27856 11.1789 3.04479 11.2219 2.7857 11.2727C2.5634 11.3158 2.3282 11.4034 2.24598 11.5374C1.97868 11.9713 2.26531 12.5644 2.15105 13.038C2.10373 13.2349 2.02293 13.4202 2.02149 13.5901C2.01974 13.8962 2.25324 14.0544 2.51772 14.147C2.97131 14.3056 3.44753 14.4045 3.91983 14.49C4.31684 14.5617 4.67569 14.7534 5.05903 14.8718C5.33487 14.9584 5.64656 15.0213 5.93435 14.9686C6.25304 14.9105 6.50588 14.6851 6.67533 14.417C6.73623 14.3209 6.78631 14.2165 6.81003 14.1066C7.577 13.7194 8.89876 13.9268 9.6144 14.3192C9.6144 14.3192 9.64681 14.4488 9.64741 14.4508C9.68657 14.5794 9.75245 14.6887 9.8654 14.7944C10.2454 15.149 10.9091 15.203 11.3492 14.9275C11.7333 14.6877 12.051 14.3453 12.4129 14.0725C12.6901 13.8645 13.0505 13.644 13.39 13.4086C13.577 13.2801 13.8351 13.1208 13.9329 12.9138C13.9655 12.8498 13.9831 12.7812 13.9783 12.7074C13.963 12.4708 13.6862 12.2574 13.4415 12.0455C13.2485 11.8776 13.0596 11.6925 13.0108 11.429C12.9624 11.1714 12.9635 10.979 12.843 10.8088C12.7324 10.6526 12.6357 10.6077 12.4652 10.5882C12.4397 10.5853 12.4157 10.5816 12.3924 10.5778C12.5031 10.1652 12.5399 9.90223 12.5076 9.55751C12.3629 8.01382 11.1479 7.09809 10.4938 5.80613C10.1135 5.05485 10.0918 4.23658 10.0831 3.41148C10.1137 2.1549 9.72942 1.57476 9.26428 1.21283C7.76534 0.350195 6.20248 1.39371 6.17434 2.876Z" fill="#191919"/>
<path fill-rule="evenodd" clip-rule="evenodd" d="M3.2959 11.2799C3.0513 11.3989 2.48805 11.3965 2.35141 11.6334C2.20141 11.894 2.29839 12.1827 2.29982 12.5154C2.30032 12.7509 2.29647 13.0129 2.19855 13.2919C2.11828 13.5216 2.09105 13.6029 2.20618 13.805C2.32131 14.0076 2.82102 14.1048 3.49701 14.2682C4.17349 14.4312 3.95803 14.3108 4.71524 14.6101C5.18437 14.7957 5.84651 15.0235 6.27551 14.6845C6.43365 14.5593 6.69305 14.276 6.70882 13.9999C6.7179 13.8422 6.70356 13.6739 6.66631 13.5719C6.54257 13.2315 6.2951 13.086 6.06007 12.7301C5.62962 12.0691 5.17243 11.4424 4.80696 10.8921C4.54899 10.5029 4.34165 10.4086 4.16632 10.4396C3.62743 10.5358 3.80133 11.0343 3.29589 11.2799H3.2959Z" fill="#FCC624"/>
<path fill-rule="evenodd" clip-rule="evenodd" d="M10.1506 10.7172C9.91325 10.8869 9.96466 11.3956 9.95074 11.6636C9.9296 12.0736 9.9267 12.5307 9.91278 12.7126C9.88971 13.0136 9.66436 13.6935 9.69176 14.0145C9.71867 14.335 9.74172 14.5227 9.93873 14.7066C10.1362 14.8904 10.4836 15.0275 10.9127 14.9648C11.3418 14.9021 11.5042 14.6321 11.7824 14.4211C12.0601 14.21 12.346 13.9596 12.7131 13.7213C13.0802 13.4825 13.6712 13.0915 13.7563 12.9859C13.8413 12.8799 13.899 12.7885 13.8375 12.6494C13.7764 12.5103 13.5622 12.2953 13.3281 12.0998C12.7179 11.5892 12.9814 11.1145 12.7266 10.8636C12.6488 10.7788 12.5911 10.7321 12.5008 10.7135C12.0138 10.6131 11.88 10.8067 11.5941 10.7783C11.2857 10.7476 11.4016 10.8162 10.7687 10.7307C10.5508 10.7057 10.301 10.6183 10.1506 10.7172Z" fill="#FCC624"/>
<path fill-rule="evenodd" clip-rule="evenodd" d="M6.17166 6.82106C5.9541 7.30259 5.96477 7.13897 5.81856 7.64229C5.61552 7.82877 5.39292 8.3298 5.24637 8.76107C5.05921 9.38787 4.9186 10.0323 5.09338 10.782C5.16271 10.8582 5.21899 10.9303 5.28213 10.9908C5.38243 11.087 5.49042 11.1649 5.62235 11.2664C6.08923 11.6255 6.41643 11.8152 6.48081 12.0487C6.56652 12.3596 6.37441 12.5652 6.13487 12.6916C6.31001 12.869 6.86912 13.2324 7.88865 13.1869C8.78653 13.147 9.34958 12.803 9.83023 12.2096C9.8333 12.073 9.84807 11.8445 9.85475 11.5979C9.86113 11.3623 9.86247 11.1264 9.8981 10.9434C9.90648 10.9004 9.92252 10.8596 9.93689 10.8237C9.99553 10.6773 10.1533 10.5776 10.3043 10.5704C10.3837 10.5666 10.4671 10.5608 10.5468 10.5775C10.6686 9.61399 10.5721 8.94869 10.091 7.92822C10.0537 7.85665 9.87552 7.55312 9.7691 7.46745C9.68595 7.05567 9.67498 7.07587 9.50862 6.69891C9.2563 6.12722 9.16487 5.46642 9.08794 5.0781C9.03538 5.10566 8.94365 5.14435 8.80365 5.25413C8.70189 5.33441 8.51364 5.50124 8.36935 5.60231C8.27513 5.66833 8.17202 5.72541 8.07057 5.77011C7.92458 5.83446 7.78206 5.87317 7.67464 5.87603C7.28961 5.89663 7.10645 5.80011 6.93089 5.61494C6.85726 5.53727 6.80148 5.45218 6.70859 5.34835C6.66744 5.30235 6.61049 5.24124 6.55243 5.19925C6.55085 5.25029 6.38921 6.33953 6.17166 6.82106ZM7.89968 3.94504C7.88774 3.83767 7.88439 3.64134 7.95797 3.39423C8.07168 3.01509 8.48259 2.76122 8.83042 2.94014C9.17825 3.11907 9.24251 3.58361 9.15913 3.84542C9.10789 4.00633 8.98628 4.19456 8.89443 4.31257C8.82324 4.28307 8.73533 4.25067 8.62592 4.21247C8.68899 4.17571 8.74537 4.11768 8.78694 4.04079C8.90208 3.82849 8.86099 3.55236 8.69616 3.42373C8.53084 3.29509 8.30389 3.36328 8.18922 3.57558C8.10896 3.72356 8.10465 3.90297 8.16533 4.04128C8.06738 4.00308 7.98187 3.97018 7.89968 3.94504ZM6.62399 3.03395C6.94985 2.91886 7.14478 3.19499 7.22409 3.59007C7.24799 3.71146 7.2499 3.83284 7.23556 3.94407C7.22648 3.94696 7.21741 3.95084 7.20784 3.95471C7.16962 3.9697 7.12853 3.98856 7.08315 4.01226C7.09031 3.98662 7.09557 3.95906 7.09891 3.93005C7.12471 3.70905 7.02151 3.48031 6.86814 3.41986C6.71477 3.35941 6.56952 3.48998 6.54372 3.71098C6.51888 3.92328 6.613 4.14235 6.75586 4.21295C6.73769 4.22552 6.71906 4.23858 6.70043 4.25212C6.67654 4.26856 6.65266 4.28645 6.62924 4.30482C6.516 4.19407 6.44004 4.01563 6.39704 3.828C6.31916 3.48755 6.40325 3.1118 6.62399 3.03395Z" fill="#F5F5F5"/>
<path fill-rule="evenodd" clip-rule="evenodd" d="M6.51765 5.05911C6.52316 5.06501 6.52111 5.07545 6.52724 5.08163C6.59933 5.15431 6.68271 5.22554 6.7554 5.30889C6.83898 5.40473 6.91559 5.51193 6.98673 5.57762C7.11753 5.6984 7.24181 5.76295 7.42335 5.78563C7.77396 5.82943 8.03611 5.73103 8.33178 5.53366C8.4709 5.44075 8.66355 5.26947 8.77494 5.18479C8.96042 5.0435 9.01348 5.05463 9.06846 4.98351C9.12535 4.90949 9.15307 4.71594 9.13634 4.62449C9.12296 4.55385 9.09858 4.50692 9.02304 4.45853C8.9389 4.40482 8.79406 4.34821 8.54307 4.26209L8.54257 4.26161H8.54209L8.54159 4.26113H8.54063L8.54013 4.26065H8.53963H8.53913L8.53817 4.26017H8.53767L8.53717 4.25969H8.53621L8.53571 4.25921H8.53521H8.53471L8.53377 4.25873H8.53327L8.53277 4.25825H8.53182L8.53131 4.25777H8.53081L8.53031 4.25729H8.52938H8.52888L8.52837 4.25681H8.52787L8.52694 4.25633H8.52644L8.52594 4.25585H8.52543H8.5245L8.524 4.25537H8.52352L8.52256 4.25489H8.52206L8.52156 4.25441H8.52106L8.5201 4.25393H8.5196H8.5191L8.5186 4.25345H8.51764L8.51714 4.25297H8.51664L8.51614 4.25249H8.51564H8.51513H8.51463L8.51413 4.25201H8.51363L8.51268 4.25153H8.51217L8.51167 4.25106H8.51117H8.51024L8.50974 4.25057H8.50923L8.50873 4.2501H8.50823H8.50773L8.50723 4.24962H8.50673H8.50623L8.50527 4.24914H8.50477L8.50427 4.24866H8.50377L8.50138 4.24769L8.49517 4.24527H8.49423L8.48992 4.24382L8.4885 4.24334L8.48515 4.24189L8.4818 4.24092L8.48084 4.24044L8.47607 4.23899L8.47511 4.23852L8.4689 4.2361L8.46748 4.23562L8.4627 4.23417L8.46219 4.23369L8.45598 4.23176L8.45407 4.23079L8.44928 4.22934L8.44308 4.22693L8.43687 4.2245H8.43637L8.43206 4.22306L8.43017 4.22258L8.4273 4.22113L8.42394 4.22016L8.42299 4.21968L8.41868 4.21823L8.41772 4.21775L8.41151 4.21533L8.41009 4.21486L8.40579 4.2134H8.40529L8.40194 4.21196L8.39908 4.21099L8.39766 4.21051L8.39335 4.20858L8.38714 4.20664L8.38475 4.20567L8.38093 4.20422H8.38043L8.3766 4.20228L8.37519 4.20181L8.36897 4.19986L8.36801 4.19938L8.36418 4.19794L8.36325 4.19745L8.3599 4.19648L8.35702 4.19552L8.35607 4.19504L8.35176 4.1931H8.35126L8.34791 4.19165L8.34552 4.19068L8.34363 4.1902L8.3398 4.18875H8.3393L8.33356 4.18633L8.32783 4.18439L8.32733 4.18391L8.32351 4.18246L8.32207 4.18199L8.31968 4.18102L8.31634 4.18005L8.31584 4.17956L8.31154 4.17812L8.31058 4.17764L8.30772 4.17667L8.30484 4.1757L8.3039 4.17522L8.30008 4.17377L8.29914 4.17329L8.29628 4.17232L8.29389 4.17135L8.29197 4.17087L8.28815 4.16894L8.28432 4.16748L8.28241 4.167L8.27714 4.16459H8.27664L8.27282 4.16314L8.27139 4.16266L8.269 4.16169L8.26613 4.16072L8.26563 4.16024L8.26181 4.15879L8.26039 4.15831L8.25512 4.15637L8.25417 4.15589L8.25035 4.15444H8.24985L8.24651 4.15299L8.24459 4.15202L8.24318 4.15154L8.23936 4.15009H8.23886L8.2379 4.14961L8.23695 4.14913L8.23551 4.14866L8.23457 4.14818H8.23362V4.1477H8.23218L8.23122 4.14722L8.22981 4.14674L8.22885 4.14626L8.22835 4.14578L8.22643 4.1453L8.22548 4.14482L8.22406 4.14434L8.2231 4.14386L8.22167 4.14338L8.22071 4.1429L8.21977 4.14242L8.21834 4.14194H8.21784L8.21734 4.14146H8.21592L8.21496 4.14099L8.21401 4.1405L8.21257 4.14003L8.21163 4.13955L8.2102 4.13907L8.20924 4.13859L8.20733 4.13811L8.20683 4.13764L8.20587 4.13715L8.20443 4.13667L8.20347 4.13619L8.20252 4.13572H8.20204H8.20108L8.20012 4.13523L8.19916 4.13475L8.19773 4.13427L8.19723 4.1338H8.19673L8.19577 4.13332L8.19433 4.13284L8.1934 4.13236L8.19198 4.13188L8.19102 4.1314L8.19007 4.13092H8.18865L8.18769 4.13044L8.18674 4.12996L8.1853 4.12948L8.18434 4.129L8.18339 4.12853L8.18195 4.12805L8.18099 4.12757L8.18004 4.12709L8.1786 4.1266L8.17764 4.12612H8.17671L8.17527 4.12565L8.17431 4.12517L8.17335 4.12469L8.1724 4.12421H8.1719L8.17096 4.12373L8.17 4.12325L8.16904 4.12278L8.16763 4.12229H8.16667C7.91187 4.02214 7.74647 3.9573 7.51414 3.96504C7.43335 3.96745 7.35112 3.97665 7.23543 4.0231L7.22969 4.02552L7.22395 4.02745V4.02793L7.21918 4.02987H7.21822V4.03034H7.21772L7.21245 4.03229V4.03276L7.20815 4.03421L7.20528 4.03566L7.20194 4.03711L7.20098 4.03759H7.20048L7.19571 4.03953L7.19475 4.04001L7.19427 4.04048L7.18901 4.0429H7.18851L7.18373 4.04532H7.18279L7.18229 4.0458L7.17894 4.04725L7.17798 4.04773L7.17607 4.0487L7.17129 4.05112H7.17079L7.16983 4.0516L7.16648 4.05305L7.16459 4.05402L7.16365 4.0545L7.1603 4.05594L7.15934 4.05642L7.15743 4.05739L7.15408 4.05884L7.15216 4.05982L7.15073 4.06078L7.14739 4.06223H7.14688L7.14449 4.06368L7.14114 4.06513L7.13779 4.06706L7.13445 4.06851L7.1311 4.07044L7.12776 4.07188L7.12726 4.07237L7.12487 4.07333L7.12436 4.07382L7.12101 4.07526L7.11767 4.0772L7.11432 4.07865L7.11146 4.08059H7.11096L7.10761 4.08253H7.10711L7.10472 4.08398H7.10422L7.10039 4.08592L7.09753 4.08786H7.09703L7.09369 4.0898L7.09034 4.09174L7.08651 4.09366L7.08316 4.09512V4.09559L7.07934 4.09753L7.076 4.09898V4.09946L7.07217 4.1014L7.06931 4.10285L7.06881 4.10333L7.06499 4.10526L7.06165 4.1072L7.05782 4.10913L7.054 4.11155C7.04683 4.11542 7.03918 4.11978 7.03153 4.12414L7.02771 4.12655L7.02389 4.1285L7.0215 4.12995L7.01719 4.13285L7.0148 4.1343H7.0143L7.0138 4.13478L7.00998 4.13672L7.00759 4.13817L7.00568 4.13962L7.00089 4.14252L6.99851 4.14396L6.99373 4.14638L6.99133 4.14783L6.98417 4.15219L6.98178 4.15364L6.977 4.15654L6.97461 4.15848L6.96935 4.16137L6.96696 4.16282L6.96074 4.16669L6.96024 4.16717H6.95974L6.95735 4.16862L6.9521 4.172L6.94971 4.17346L6.94493 4.17635L6.94443 4.17684H6.94393V4.17731H6.94343L6.94293 4.17779H6.94243V4.17828H6.94193L6.94142 4.17875L6.94047 4.17923H6.93997L6.93758 4.18116H6.93708L6.93657 4.18163L6.93607 4.18211H6.93557H6.93507V4.1826H6.93457L6.93407 4.18307H6.93357V4.18355H6.93307L6.92734 4.18742H6.92684L6.92634 4.1879L6.92395 4.18935L6.91868 4.19274L6.91629 4.19419L6.91579 4.19467L6.91101 4.19757L6.90814 4.19951L6.90574 4.20096L6.90287 4.2029L6.90048 4.20434L6.89762 4.20628L6.89235 4.20967L6.88949 4.21161L6.88422 4.215L6.88184 4.21694L6.87897 4.21838L6.87611 4.22032L6.87372 4.22226L6.87085 4.2237L6.86799 4.22563L6.86513 4.22757L6.86274 4.22951L6.86083 4.23048L6.85748 4.2329L6.85557 4.23387L6.85367 4.23532L6.85176 4.23629L6.85032 4.23773L6.84841 4.2387L6.84649 4.24015L6.84458 4.24112L6.84314 4.24257L6.83932 4.24499L6.83743 4.24596L6.83601 4.2474L6.8341 4.24838L6.83218 4.24982H6.83168L6.83025 4.25079L6.82833 4.25224L6.82692 4.25321L6.825 4.25466L6.82309 4.25611L6.82117 4.25708L6.81926 4.25853L6.81734 4.2595L6.81543 4.26094L6.81399 4.2624L6.81258 4.26287L6.81208 4.26335L6.81016 4.2648L6.80634 4.26722L6.80442 4.26867L6.80251 4.26964L6.8006 4.27109L6.79868 4.27254L6.79679 4.2735L6.79487 4.27496L6.79152 4.27785L6.78961 4.27882L6.78769 4.28027L6.78578 4.28172L6.78386 4.28269L6.78336 4.28317L6.78193 4.28414L6.78001 4.28559L6.7781 4.28704L6.77618 4.28801L6.77427 4.28945L6.77331 4.28994L6.77235 4.2909L6.77044 4.29235L6.76805 4.2938L6.76471 4.29622H6.7642L6.76327 4.29719L6.76231 4.29767L6.7604 4.29912L6.75848 4.30057L6.75466 4.30298L6.75322 4.30444H6.75274L6.75085 4.30588L6.74272 4.31169C6.62416 4.3954 6.50273 4.50668 6.43246 4.62088C6.39081 4.68846 6.32488 4.82787 6.38638 4.90804C6.38659 4.90825 6.54346 4.9896 6.70097 5.08388C6.95561 5.23628 7.24649 5.315 7.50619 5.30036C7.71275 5.28871 7.9433 5.22268 8.10979 5.14158C8.27734 5.05995 8.48338 4.93121 8.68419 4.77437C8.71527 4.75114 8.77447 4.69231 8.81148 4.67456C8.84411 4.65891 8.94931 4.66798 8.94448 4.70414C8.9407 4.73246 8.81715 4.783 8.77262 4.81647C8.55295 4.98161 8.30838 5.14336 8.14941 5.21751C7.98518 5.29413 7.70877 5.38259 7.52195 5.39374C7.35128 5.40394 7.20635 5.38477 7.05798 5.334C6.91454 5.2849 6.82951 5.24227 6.67678 5.15299C6.62807 5.12452 6.58124 5.10075 6.51532 5.05909L6.51765 5.05911Z" fill="#FCC624"/>
<path fill-rule="evenodd" clip-rule="evenodd" d="M12.1304 10.6471C12.1388 10.6311 12.1558 10.5672 12.1571 10.5542C12.1892 10.2305 11.567 10.1577 11.0827 10.174C10.863 10.1814 10.6917 10.2077 10.5894 10.2382C10.4113 10.2915 10.3235 10.4136 10.3038 10.5664C10.2638 10.8757 10.3545 11.5292 10.6577 11.6722C10.9713 11.82 11.4462 11.609 11.7265 11.2907C11.9164 11.0751 12.0372 10.8242 12.1304 10.6471Z" fill="#191919"/>
</svg>
