<!-- Copyright 2000-2024 JetBrains s.r.o. and contributors. Use of this source code is governed by the Apache 2.0 license. -->
<svg width="16" height="16" viewBox="0 0 16 16" fill="none" xmlns="http://www.w3.org/2000/svg">
<path d="M5.94512 5.85338L5.71437 5.7572C5.79994 5.55191 5.84627 5.4312 5.8759 5.32306C5.90443 5.21893 5.91928 5.11957 5.93285 4.95664C5.96085 4.62047 5.95406 4.50471 5.9421 4.3006C5.94148 4.29003 5.94084 4.27922 5.9402 4.26814C5.92639 4.03007 5.90897 3.68315 5.92439 2.87126C5.95598 1.20674 7.71836 0.0347169 9.38898 0.996154L9.40407 1.00484L9.41781 1.01553C9.67766 1.21772 9.91925 1.48522 10.089 1.87733C10.2571 2.26549 10.3486 2.76133 10.3332 3.41315C10.3419 4.24257 10.3671 5.00225 10.7169 5.69321C10.9383 6.13052 11.2202 6.51376 11.5141 6.91317C11.6409 7.08561 11.77 7.26107 11.8974 7.44519C12.3095 8.04097 12.6782 8.69858 12.7566 9.53418L12.7566 9.53419C12.7849 9.83659 12.764 10.0833 12.6978 10.3837C12.7316 10.3956 12.7654 10.4104 12.7987 10.4291C12.9008 10.4862 12.9784 10.5674 13.0471 10.6643L13.0471 10.6643C13.135 10.7886 13.1744 10.9165 13.1989 11.0359C13.2108 11.0942 13.2199 11.1541 13.2284 11.2101L13.2291 11.215C13.2375 11.271 13.2457 11.3253 13.2565 11.3828L13.2567 11.3835C13.288 11.5529 13.4108 11.6874 13.6054 11.8567C13.6259 11.8744 13.6475 11.8929 13.6698 11.912C13.7707 11.9983 13.8859 12.0968 13.9791 12.197C14.0904 12.3168 14.2144 12.4835 14.2278 12.6913M5.94512 5.85338L13.9783 12.7074M5.94512 5.85338L5.71437 5.7572C5.56207 6.12258 5.40412 6.34396 5.17601 6.66367C5.14509 6.70701 5.11287 6.75217 5.0792 6.79973L5.94512 5.85338ZM14.2278 12.6913L13.9783 12.7074M14.2278 12.6913C14.2278 12.6912 14.2278 12.6912 14.2278 12.6912L13.9783 12.7074M14.2278 12.6913C14.2359 12.8158 14.2058 12.9278 14.1574 13.024M13.9783 12.7074C13.9831 12.7812 13.9655 12.8498 13.9329 12.9138M14.1574 13.024C14.1579 13.0229 14.1585 13.0217 14.159 13.0206L13.9329 12.9138M14.1574 13.024C14.0846 13.1761 13.9625 13.2949 13.8531 13.3843C13.7634 13.4575 13.6641 13.5248 13.5842 13.5789C13.5656 13.5914 13.5482 13.6033 13.5321 13.6143M14.1574 13.024C14.1568 13.0251 14.1563 13.0262 14.1557 13.0273L13.9329 12.9138M13.9329 12.9138L13.5321 13.6143M13.5321 13.6143C13.5322 13.6142 13.5324 13.6141 13.5325 13.614L13.39 13.4086L13.5316 13.6146C13.5318 13.6145 13.5319 13.6144 13.5321 13.6143ZM13.5321 13.6143C13.3832 13.7175 13.239 13.8125 13.1014 13.9031C12.9063 14.0315 12.7248 14.151 12.5633 14.2722M13.5321 13.6143L12.4129 14.0725M12.5633 14.2722C12.5633 14.2722 12.5634 14.2722 12.5634 14.2721L12.4129 14.0725M12.5633 14.2722C12.5632 14.2723 12.5631 14.2724 12.563 14.2725L12.4129 14.0725M12.5633 14.2722C12.4255 14.3761 12.2955 14.4897 12.1577 14.6102C12.1234 14.6401 12.0886 14.6705 12.0531 14.7013C11.8792 14.8521 11.6914 15.0085 11.4819 15.1394M12.4129 14.0725C12.2672 14.1823 12.1287 14.3035 11.99 14.4246C11.7844 14.6044 11.5786 14.7842 11.3492 14.9275M11.4819 15.1394L11.3492 14.9275M11.4819 15.1394C10.9489 15.473 10.1603 15.4115 9.69484 14.9772L9.69456 14.9769C9.55037 14.8419 9.46046 14.6952 9.40825 14.5236L9.40824 14.5236C9.40685 14.519 9.40331 14.5052 9.39933 14.4895M11.4819 15.1394C11.4818 15.1395 11.4817 15.1395 11.4817 15.1395L11.3492 14.9275M11.3492 14.9275L9.39933 14.4895M9.39933 14.4895C9.41487 14.497 9.43013 14.5047 9.4451 14.5124C9.44511 14.5124 9.44512 14.5124 9.44512 14.5124C9.46185 14.521 9.47822 14.5296 9.49421 14.5384L9.52118 14.4892L9.52119 14.4892L9.6144 14.3192M9.39933 14.4895L9.8654 14.7944C9.75245 14.6887 9.68657 14.5794 9.64741 14.4508C9.64681 14.4488 9.6144 14.3192 9.6144 14.3192M9.39933 14.4895C9.39652 14.4784 9.39349 14.4663 9.39086 14.4557L9.38817 14.445L9.37695 14.4001L9.37327 14.3854L9.37223 14.3813L9.37196 14.3802L9.37189 14.3799L9.37188 14.3799L9.37187 14.3798L9.6144 14.3192M9.39933 14.4895C9.08178 14.3354 8.64955 14.2144 8.20615 14.1693C7.75957 14.1238 7.33416 14.1586 7.0179 14.2867M9.6144 14.3192C8.89876 13.9268 7.577 13.7194 6.81003 14.1066M6.81003 14.1066L7.0544 14.1594C7.04493 14.2032 7.03252 14.2457 7.0179 14.2867M6.81003 14.1066C6.78631 14.2165 6.73623 14.3209 6.67533 14.417M6.81003 14.1066L6.9227 14.3298C6.95318 14.3144 6.98495 14.3 7.0179 14.2867M7.0179 14.2867C6.98326 14.3838 6.93622 14.4724 6.8865 14.5508M6.67533 14.417L6.88666 14.5506C6.88661 14.5506 6.88656 14.5507 6.8865 14.5508M6.67533 14.417C6.50588 14.6851 6.25304 14.9105 5.93435 14.9686M6.67533 14.417L6.8865 14.5508M6.8865 14.5508C6.69434 14.8547 6.38953 15.1397 5.97922 15.2145M5.93435 14.9686L5.97939 15.2145C5.97933 15.2145 5.97928 15.2145 5.97922 15.2145M5.93435 14.9686C5.64656 15.0213 5.33487 14.9584 5.05903 14.8718M5.93435 14.9686L5.97922 15.2145M5.97922 15.2145C5.63087 15.2783 5.27199 15.2007 4.98457 15.1104M5.05903 14.8718L4.98528 15.1107C4.98504 15.1106 4.98481 15.1105 4.98457 15.1104M5.05903 14.8718C4.91311 14.8267 4.77074 14.771 4.62846 14.7154C4.39697 14.6248 4.16572 14.5344 3.91983 14.49C3.44753 14.4045 2.97131 14.3056 2.51772 14.147C2.25324 14.0544 2.01974 13.8962 2.02149 13.5901C2.02246 13.4765 2.05892 13.3559 2.09712 13.2297C2.11604 13.1671 2.13538 13.1032 2.15105 13.038C2.19899 12.8393 2.17636 12.6195 2.15368 12.3993C2.1223 12.0947 2.09083 11.7892 2.24598 11.5374M5.05903 14.8718L4.98415 15.1103C4.98429 15.1104 4.98443 15.1104 4.98457 15.1104M4.98457 15.1104C4.82922 15.0624 4.67514 15.0021 4.53145 14.9459C4.48834 14.9291 4.44616 14.9126 4.40517 14.8969C4.22099 14.8263 4.04995 14.7675 3.87542 14.736L3.87529 14.736C3.40036 14.65 2.90817 14.5484 2.43521 14.383L2.43515 14.383C2.28664 14.331 2.12326 14.2531 1.99479 14.1272C1.85918 13.9943 1.77021 13.8147 1.7715 13.5887L1.7715 13.588C1.77252 13.4676 1.80123 13.3517 1.82866 13.2556C1.83995 13.216 1.85062 13.1809 1.8607 13.1476C1.87815 13.0901 1.89384 13.0384 1.90798 12.9796L1.90803 12.9794C1.94505 12.8259 1.92805 12.6569 1.90593 12.4369C1.90142 12.392 1.89669 12.345 1.89217 12.2956C1.86824 12.0343 1.8519 11.7006 2.03301 11.4065M2.03301 11.4065C2.03297 11.4065 2.03294 11.4066 2.0329 11.4066L2.24598 11.5374M2.03301 11.4065C2.03305 11.4064 2.0331 11.4063 2.03314 11.4063L2.24598 11.5374M2.03301 11.4065C2.11307 11.2761 2.24695 11.1947 2.35985 11.1434C2.47957 11.0889 2.61393 11.0514 2.73798 11.0273L2.7376 11.0274L2.7857 11.2727M2.24598 11.5374C2.3282 11.4034 2.5634 11.3158 2.7857 11.2727M2.7857 11.2727L2.80495 11.2689C3.05633 11.2197 3.28157 11.1756 3.39951 11.0463L2.73812 11.0273M2.7857 11.2727L2.73812 11.0273M2.73812 11.0273L2.74928 11.0251C2.87859 10.9997 2.98202 10.9795 3.06868 10.9519C3.15866 10.9233 3.19798 10.8963 3.21481 10.8778C3.28443 10.8012 3.33894 10.7124 3.40626 10.6027C3.41086 10.5952 3.41553 10.5876 3.42026 10.5799C3.47085 10.4976 3.53198 10.3991 3.61103 10.3093C3.60777 10.0875 3.61407 9.85148 3.64347 9.65631C3.80321 8.59572 4.414 7.7361 4.97891 6.94107C5.01253 6.89374 5.046 6.84664 5.0792 6.79974L2.73812 11.0273Z" fill="#191919" stroke="white" stroke-width="0.5"/>
<path fill-rule="evenodd" clip-rule="evenodd" d="M3.2959 11.2799C3.0513 11.3989 2.48805 11.3965 2.35141 11.6334C2.20141 11.894 2.29839 12.1827 2.29982 12.5154C2.30032 12.7509 2.29647 13.0129 2.19855 13.2919C2.11828 13.5216 2.09105 13.6029 2.20618 13.805C2.32131 14.0076 2.82102 14.1048 3.49701 14.2682C4.17349 14.4312 3.95803 14.3108 4.71524 14.6101C5.18437 14.7957 5.84651 15.0235 6.27551 14.6845C6.43365 14.5593 6.69305 14.276 6.70882 13.9999C6.7179 13.8422 6.70356 13.6739 6.66631 13.5719C6.54257 13.2315 6.2951 13.086 6.06007 12.7301C5.62962 12.0691 5.17243 11.4424 4.80696 10.8921C4.54899 10.5029 4.34165 10.4086 4.16632 10.4396C3.62743 10.5358 3.80133 11.0343 3.29589 11.2799H3.2959Z" fill="#FCC624"/>
<path fill-rule="evenodd" clip-rule="evenodd" d="M10.1506 10.7172C9.91325 10.8869 9.96466 11.3956 9.95074 11.6636C9.9296 12.0736 9.9267 12.5307 9.91278 12.7126C9.88971 13.0136 9.66436 13.6935 9.69176 14.0145C9.71867 14.335 9.74172 14.5227 9.93873 14.7066C10.1362 14.8904 10.4836 15.0275 10.9127 14.9648C11.3418 14.9021 11.5042 14.6321 11.7824 14.4211C12.0601 14.21 12.346 13.9596 12.7131 13.7213C13.0802 13.4825 13.6712 13.0915 13.7563 12.9859C13.8413 12.8799 13.899 12.7885 13.8375 12.6494C13.7764 12.5103 13.5622 12.2953 13.3281 12.0998C12.7179 11.5892 12.9814 11.1145 12.7266 10.8636C12.6488 10.7788 12.5911 10.7321 12.5008 10.7135C12.0138 10.6131 11.88 10.8067 11.5941 10.7783C11.2857 10.7476 11.4016 10.8162 10.7687 10.7307C10.5508 10.7057 10.301 10.6183 10.1506 10.7172Z" fill="#FCC624"/>
<path fill-rule="evenodd" clip-rule="evenodd" d="M6.17166 6.82106C5.9541 7.30259 5.96477 7.13897 5.81856 7.64229C5.61552 7.82877 5.39292 8.3298 5.24637 8.76107C5.05921 9.38787 4.9186 10.0323 5.09338 10.782C5.16271 10.8582 5.21899 10.9303 5.28213 10.9908C5.38243 11.087 5.49042 11.1649 5.62235 11.2664C6.08923 11.6255 6.41643 11.8152 6.48081 12.0487C6.56652 12.3596 6.37441 12.5652 6.13487 12.6916C6.31001 12.869 6.86912 13.2324 7.88865 13.1869C8.78653 13.147 9.34958 12.803 9.83023 12.2096C9.8333 12.073 9.84807 11.8445 9.85475 11.5979C9.86113 11.3623 9.86247 11.1264 9.8981 10.9434C9.90648 10.9004 9.92252 10.8596 9.93689 10.8237C9.99553 10.6773 10.1533 10.5776 10.3043 10.5704C10.3837 10.5666 10.4671 10.5608 10.5468 10.5775C10.6686 9.61399 10.5721 8.94869 10.091 7.92822C10.0537 7.85665 9.87552 7.55312 9.7691 7.46745C9.68595 7.05567 9.67498 7.07587 9.50862 6.69891C9.2563 6.12722 9.16487 5.46642 9.08794 5.0781C9.03538 5.10566 8.94365 5.14435 8.80365 5.25413C8.70189 5.33441 8.51364 5.50124 8.36935 5.60231C8.27513 5.66833 8.17202 5.72541 8.07057 5.77011C7.92458 5.83446 7.78206 5.87317 7.67464 5.87603C7.28961 5.89663 7.10645 5.80011 6.93089 5.61494C6.85726 5.53727 6.80148 5.45218 6.70859 5.34835C6.66744 5.30235 6.61049 5.24124 6.55243 5.19925C6.55085 5.25029 6.38921 6.33953 6.17166 6.82106ZM7.89968 3.94504C7.88774 3.83767 7.88439 3.64134 7.95797 3.39423C8.07168 3.01509 8.48259 2.76122 8.83042 2.94014C9.17825 3.11907 9.24251 3.58361 9.15913 3.84542C9.10789 4.00633 8.98628 4.19456 8.89443 4.31257C8.82324 4.28307 8.73533 4.25067 8.62592 4.21247C8.68899 4.17571 8.74537 4.11768 8.78694 4.04079C8.90208 3.82849 8.86099 3.55236 8.69616 3.42373C8.53084 3.29509 8.30389 3.36328 8.18922 3.57558C8.10896 3.72356 8.10465 3.90297 8.16533 4.04128C8.06738 4.00308 7.98187 3.97018 7.89968 3.94504ZM6.62399 3.03395C6.94985 2.91886 7.14478 3.19499 7.22409 3.59007C7.24799 3.71146 7.2499 3.83284 7.23556 3.94407C7.22648 3.94696 7.21741 3.95084 7.20784 3.95471C7.16962 3.9697 7.12853 3.98856 7.08315 4.01226C7.09031 3.98662 7.09557 3.95906 7.09891 3.93005C7.12471 3.70905 7.02151 3.48031 6.86814 3.41986C6.71477 3.35941 6.56952 3.48998 6.54372 3.71098C6.51888 3.92328 6.613 4.14235 6.75586 4.21295C6.73769 4.22552 6.71906 4.23858 6.70043 4.25212C6.67654 4.26856 6.65266 4.28645 6.62924 4.30482C6.516 4.19407 6.44004 4.01563 6.39704 3.828C6.31916 3.48755 6.40325 3.1118 6.62399 3.03395Z" fill="#F5F5F5"/>
<path fill-rule="evenodd" clip-rule="evenodd" d="M6.51765 5.05911C6.52316 5.06501 6.52111 5.07545 6.52724 5.08163C6.59933 5.15431 6.68271 5.22554 6.7554 5.30889C6.83898 5.40473 6.91559 5.51193 6.98673 5.57762C7.11753 5.6984 7.24181 5.76295 7.42335 5.78563C7.77396 5.82943 8.03611 5.73103 8.33178 5.53366C8.4709 5.44075 8.66355 5.26947 8.77494 5.18479C8.96042 5.0435 9.01348 5.05463 9.06846 4.98351C9.12535 4.90949 9.15307 4.71594 9.13634 4.62449C9.12296 4.55385 9.09858 4.50692 9.02304 4.45853C8.9389 4.40482 8.79406 4.34821 8.54307 4.26209L8.54257 4.26161H8.54209L8.54159 4.26113H8.54063L8.54013 4.26065H8.53963H8.53913L8.53817 4.26017H8.53767L8.53717 4.25969H8.53621L8.53571 4.25921H8.53521H8.53471L8.53377 4.25873H8.53327L8.53277 4.25825H8.53182L8.53131 4.25777H8.53081L8.53031 4.25729H8.52938H8.52888L8.52837 4.25681H8.52787L8.52694 4.25633H8.52644L8.52594 4.25585H8.52543H8.5245L8.524 4.25537H8.52352L8.52256 4.25489H8.52206L8.52156 4.25441H8.52106L8.5201 4.25393H8.5196H8.5191L8.5186 4.25345H8.51764L8.51714 4.25297H8.51664L8.51614 4.25249H8.51564H8.51513H8.51463L8.51413 4.25201H8.51363L8.51268 4.25153H8.51217L8.51167 4.25106H8.51117H8.51024L8.50974 4.25057H8.50923L8.50873 4.2501H8.50823H8.50773L8.50723 4.24962H8.50673H8.50623L8.50527 4.24914H8.50477L8.50427 4.24866H8.50377L8.50138 4.24769L8.49517 4.24527H8.49423L8.48992 4.24382L8.4885 4.24334L8.48515 4.24189L8.4818 4.24092L8.48084 4.24044L8.47607 4.23899L8.47511 4.23852L8.4689 4.2361L8.46748 4.23562L8.4627 4.23417L8.46219 4.23369L8.45598 4.23176L8.45407 4.23079L8.44928 4.22934L8.44308 4.22693L8.43687 4.2245H8.43637L8.43206 4.22306L8.43017 4.22258L8.4273 4.22113L8.42394 4.22016L8.42299 4.21968L8.41868 4.21823L8.41772 4.21775L8.41151 4.21533L8.41009 4.21486L8.40579 4.2134H8.40529L8.40194 4.21196L8.39908 4.21099L8.39766 4.21051L8.39335 4.20858L8.38714 4.20664L8.38475 4.20567L8.38093 4.20422H8.38043L8.3766 4.20228L8.37519 4.20181L8.36897 4.19986L8.36801 4.19938L8.36418 4.19794L8.36325 4.19745L8.3599 4.19648L8.35702 4.19552L8.35607 4.19504L8.35176 4.1931H8.35126L8.34791 4.19165L8.34552 4.19068L8.34363 4.1902L8.3398 4.18875H8.3393L8.33356 4.18633L8.32783 4.18439L8.32733 4.18391L8.32351 4.18246L8.32207 4.18199L8.31968 4.18102L8.31634 4.18005L8.31584 4.17956L8.31154 4.17812L8.31058 4.17764L8.30772 4.17667L8.30484 4.1757L8.3039 4.17522L8.30008 4.17377L8.29914 4.17329L8.29628 4.17232L8.29389 4.17135L8.29197 4.17087L8.28815 4.16894L8.28432 4.16748L8.28241 4.167L8.27714 4.16459H8.27664L8.27282 4.16314L8.27139 4.16266L8.269 4.16169L8.26613 4.16072L8.26563 4.16024L8.26181 4.15879L8.26039 4.15831L8.25512 4.15637L8.25417 4.15589L8.25035 4.15444H8.24985L8.24651 4.15299L8.24459 4.15202L8.24318 4.15154L8.23936 4.15009H8.23886L8.2379 4.14961L8.23695 4.14913L8.23551 4.14866L8.23457 4.14818H8.23362V4.1477H8.23218L8.23122 4.14722L8.22981 4.14674L8.22885 4.14626L8.22835 4.14578L8.22643 4.1453L8.22548 4.14482L8.22406 4.14434L8.2231 4.14386L8.22167 4.14338L8.22071 4.1429L8.21977 4.14242L8.21834 4.14194H8.21784L8.21734 4.14146H8.21592L8.21496 4.14099L8.21401 4.1405L8.21257 4.14003L8.21163 4.13955L8.2102 4.13907L8.20924 4.13859L8.20733 4.13811L8.20683 4.13764L8.20587 4.13715L8.20443 4.13667L8.20347 4.13619L8.20252 4.13572H8.20204H8.20108L8.20012 4.13523L8.19916 4.13475L8.19773 4.13427L8.19723 4.1338H8.19673L8.19577 4.13332L8.19433 4.13284L8.1934 4.13236L8.19198 4.13188L8.19102 4.1314L8.19007 4.13092H8.18865L8.18769 4.13044L8.18674 4.12996L8.1853 4.12948L8.18434 4.129L8.18339 4.12853L8.18195 4.12805L8.18099 4.12757L8.18004 4.12709L8.1786 4.1266L8.17764 4.12612H8.17671L8.17527 4.12565L8.17431 4.12517L8.17335 4.12469L8.1724 4.12421H8.1719L8.17096 4.12373L8.17 4.12325L8.16904 4.12278L8.16763 4.12229H8.16667C7.91187 4.02214 7.74647 3.9573 7.51414 3.96504C7.43335 3.96745 7.35112 3.97665 7.23543 4.0231L7.22969 4.02552L7.22395 4.02745V4.02793L7.21918 4.02987H7.21822V4.03034H7.21772L7.21245 4.03229V4.03276L7.20815 4.03421L7.20528 4.03566L7.20194 4.03711L7.20098 4.03759H7.20048L7.19571 4.03953L7.19475 4.04001L7.19427 4.04048L7.18901 4.0429H7.18851L7.18373 4.04532H7.18279L7.18229 4.0458L7.17894 4.04725L7.17798 4.04773L7.17607 4.0487L7.17129 4.05112H7.17079L7.16983 4.0516L7.16648 4.05305L7.16459 4.05402L7.16365 4.0545L7.1603 4.05594L7.15934 4.05642L7.15743 4.05739L7.15408 4.05884L7.15216 4.05982L7.15073 4.06078L7.14739 4.06223H7.14688L7.14449 4.06368L7.14114 4.06513L7.13779 4.06706L7.13445 4.06851L7.1311 4.07044L7.12776 4.07188L7.12726 4.07237L7.12487 4.07333L7.12436 4.07382L7.12101 4.07526L7.11767 4.0772L7.11432 4.07865L7.11146 4.08059H7.11096L7.10761 4.08253H7.10711L7.10472 4.08398H7.10422L7.10039 4.08592L7.09753 4.08786H7.09703L7.09369 4.0898L7.09034 4.09174L7.08651 4.09366L7.08316 4.09512V4.09559L7.07934 4.09753L7.076 4.09898V4.09946L7.07217 4.1014L7.06931 4.10285L7.06881 4.10333L7.06499 4.10526L7.06165 4.1072L7.05782 4.10913L7.054 4.11155C7.04683 4.11542 7.03918 4.11978 7.03153 4.12414L7.02771 4.12655L7.02389 4.1285L7.0215 4.12995L7.01719 4.13285L7.0148 4.1343H7.0143L7.0138 4.13478L7.00998 4.13672L7.00759 4.13817L7.00568 4.13962L7.00089 4.14252L6.99851 4.14396L6.99373 4.14638L6.99133 4.14783L6.98417 4.15219L6.98178 4.15364L6.977 4.15654L6.97461 4.15848L6.96935 4.16137L6.96696 4.16282L6.96074 4.16669L6.96024 4.16717H6.95974L6.95735 4.16862L6.9521 4.172L6.94971 4.17346L6.94493 4.17635L6.94443 4.17684H6.94393V4.17731H6.94343L6.94293 4.17779H6.94243V4.17828H6.94193L6.94142 4.17875L6.94047 4.17923H6.93997L6.93758 4.18116H6.93708L6.93657 4.18163L6.93607 4.18211H6.93557H6.93507V4.1826H6.93457L6.93407 4.18307H6.93357V4.18355H6.93307L6.92734 4.18742H6.92684L6.92634 4.1879L6.92395 4.18935L6.91868 4.19274L6.91629 4.19419L6.91579 4.19467L6.91101 4.19757L6.90814 4.19951L6.90574 4.20096L6.90287 4.2029L6.90048 4.20434L6.89762 4.20628L6.89235 4.20967L6.88949 4.21161L6.88422 4.215L6.88184 4.21694L6.87897 4.21838L6.87611 4.22032L6.87372 4.22226L6.87085 4.2237L6.86799 4.22563L6.86513 4.22757L6.86274 4.22951L6.86083 4.23048L6.85748 4.2329L6.85557 4.23387L6.85367 4.23532L6.85176 4.23629L6.85032 4.23773L6.84841 4.2387L6.84649 4.24015L6.84458 4.24112L6.84314 4.24257L6.83932 4.24499L6.83743 4.24596L6.83601 4.2474L6.8341 4.24838L6.83218 4.24982H6.83168L6.83025 4.25079L6.82833 4.25224L6.82692 4.25321L6.825 4.25466L6.82309 4.25611L6.82117 4.25708L6.81926 4.25853L6.81734 4.2595L6.81543 4.26094L6.81399 4.2624L6.81258 4.26287L6.81208 4.26335L6.81016 4.2648L6.80634 4.26722L6.80442 4.26867L6.80251 4.26964L6.8006 4.27109L6.79868 4.27254L6.79679 4.2735L6.79487 4.27496L6.79152 4.27785L6.78961 4.27882L6.78769 4.28027L6.78578 4.28172L6.78386 4.28269L6.78336 4.28317L6.78193 4.28414L6.78001 4.28559L6.7781 4.28704L6.77618 4.28801L6.77427 4.28945L6.77331 4.28994L6.77235 4.2909L6.77044 4.29235L6.76805 4.2938L6.76471 4.29622H6.7642L6.76327 4.29719L6.76231 4.29767L6.7604 4.29912L6.75848 4.30057L6.75466 4.30298L6.75322 4.30444H6.75274L6.75085 4.30588L6.74272 4.31169C6.62416 4.3954 6.50273 4.50668 6.43246 4.62088C6.39081 4.68846 6.32488 4.82787 6.38638 4.90804C6.38659 4.90825 6.54346 4.9896 6.70097 5.08388C6.95561 5.23628 7.24649 5.315 7.50619 5.30036C7.71275 5.28871 7.9433 5.22268 8.10979 5.14158C8.27734 5.05995 8.48338 4.93121 8.68419 4.77437C8.71527 4.75114 8.77447 4.69231 8.81148 4.67456C8.84411 4.65891 8.94931 4.66798 8.94448 4.70414C8.9407 4.73246 8.81715 4.783 8.77262 4.81647C8.55295 4.98161 8.30838 5.14336 8.14941 5.21751C7.98518 5.29413 7.70877 5.38259 7.52195 5.39374C7.35128 5.40394 7.20635 5.38477 7.05798 5.334C6.91454 5.2849 6.82951 5.24227 6.67678 5.15299C6.62807 5.12452 6.58124 5.10075 6.51532 5.05909L6.51765 5.05911Z" fill="#FCC624"/>
<path fill-rule="evenodd" clip-rule="evenodd" d="M12.1304 10.6471C12.1388 10.6311 12.1558 10.5672 12.1571 10.5542C12.1892 10.2305 11.567 10.1577 11.0827 10.174C10.863 10.1814 10.6917 10.2077 10.5894 10.2382C10.4113 10.2915 10.3235 10.4136 10.3038 10.5664C10.2638 10.8757 10.3545 11.5292 10.6577 11.6722C10.9713 11.82 11.4462 11.609 11.7265 11.2907C11.9164 11.0751 12.0372 10.8242 12.1304 10.6471Z" fill="#191919"/>
</svg>
