<!-- Copyright 2000-2024 JetBrains s.r.o. and contributors. Use of this source code is governed by the Apache 2.0 license. -->
<svg width="16" height="16" viewBox="0 0 16 16" fill="none" xmlns="http://www.w3.org/2000/svg">
<path d="M12 10H13V15H12V10Z" fill="#EDF3FF"/>
<path d="M10 11H11V15H10V11Z" fill="#EDF3FF"/>
<path d="M15 12H14V15H15V12Z" fill="#EDF3FF"/>
<path fill-rule="evenodd" clip-rule="evenodd" d="M11 10C11 9.44772 11.4477 9 12 9H13C13.5523 9 14 9.44772 14 10V11H15C15.5523 11 16 11.4477 16 12V15C16 15.5523 15.5523 16 15 16H10C9.44772 16 9 15.5523 9 15V11C9 10.4477 9.44772 10 10 10L11 10ZM12 10H13V15H12V10ZM11 11H10L10 15H11V11ZM14 15H15V12H14V15Z" fill="#3574F0"/>
<path d="M5 1C3.89543 1 3 1.89543 3 3V13C3 14.1046 3.89543 15 5 15H8V14H5C4.44772 14 4 13.5523 4 13V3C4 2.44772 4.44772 2 5 2H11C11.5523 2 12 2.44772 12 3V8H13V3C13 1.89543 12.1046 1 11 1H5Z" fill="#6C707E"/>
<path d="M8 12H6.5C6.22386 12 6 12.2239 6 12.5C6 12.7761 6.22386 13 6.5 13H8V12Z" fill="#6C707E"/>
</svg>
