<!-- Copyright 2000-2024 JetBrains s.r.o. and contributors. Use of this source code is governed by the Apache 2.0 license. -->
<svg width="16" height="16" viewBox="0 0 16 16" fill="none" xmlns="http://www.w3.org/2000/svg">
<path d="M6.5 12C6.22386 12 6 12.2239 6 12.5C6 12.7761 6.22386 13 6.5 13H9.5C9.77614 13 10 12.7761 10 12.5C10 12.2239 9.77614 12 9.5 12H6.5Z" fill="#CED0D6"/>
<path fill-rule="evenodd" clip-rule="evenodd" d="M3 3C3 1.89543 3.89543 1 5 1H11C12.1046 1 13 1.89543 13 3V13C13 14.1046 12.1046 15 11 15H5C3.89543 15 3 14.1046 3 13V3ZM5 2H11C11.5523 2 12 2.44772 12 3V13C12 13.5523 11.5523 14 11 14H5C4.44772 14 4 13.5523 4 13V3C4 2.44772 4.44772 2 5 2Z" fill="#CED0D6"/>
</svg>
