<!-- Copyright 2000-2024 JetBrains s.r.o. and contributors. Use of this source code is governed by the Apache 2.0 license. -->
<svg width="16" height="16" viewBox="0 0 16 16" fill="none" xmlns="http://www.w3.org/2000/svg">
<path fill-rule="evenodd" clip-rule="evenodd" d="M1 3C1 1.89543 1.89543 1 3 1H10C11.1046 1 12 1.89543 12 3V4H11V3C11 2.44772 10.5523 2 10 2H3C2.44772 2 2 2.44772 2 3V9H7V10H2V11C2 11.5523 2.44772 12 3 12H7V13H3C1.89543 13 1 12.1046 1 11V3ZM8 7C8 5.89543 8.89543 5 10 5H13C14.1046 5 15 5.89543 15 7V13C15 14.1046 14.1046 15 13 15H10C8.89543 15 8 14.1046 8 13V7ZM10 6C9.44772 6 9 6.44772 9 7V13C9 13.5523 9.44772 14 10 14H13C13.5523 14 14 13.5523 14 13V7C14 6.44772 13.5523 6 13 6H10ZM10.5 12.5C10.5 12.2239 10.7239 12 11 12H12C12.2761 12 12.5 12.2239 12.5 12.5C12.5 12.7761 12.2761 13 12 13H11C10.7239 13 10.5 12.7761 10.5 12.5Z" fill="#6C707E"/>
</svg>
