<!-- Copyright 2000-2024 JetBrains s.r.o. and contributors. Use of this source code is governed by the Apache 2.0 license. -->
<svg width="16" height="16" viewBox="0 0 16 16" fill="none" xmlns="http://www.w3.org/2000/svg">
<path d="M12 10H13V15H12V10Z" fill="#25324D"/>
<path d="M10 11H11V15H10V11Z" fill="#25324D"/>
<path d="M15 12H14V15H15V12Z" fill="#25324D"/>
<path fill-rule="evenodd" clip-rule="evenodd" d="M11 10C11 9.44772 11.4477 9 12 9H13C13.5523 9 14 9.44772 14 10V11H15C15.5523 11 16 11.4477 16 12V15C16 15.5523 15.5523 16 15 16H10C9.44772 16 9 15.5523 9 15V11C9 10.4477 9.44772 10 10 10L11 10ZM12 10H13V15H12V10ZM11 11H10L10 15H11V11ZM14 15H15V12H14V15Z" fill="#548AF7"/>
<path d="M3 1C1.89543 1 1 1.89543 1 3V11C1 12.1046 1.89543 13 3 13H7V12H3C2.44772 12 2 11.5523 2 11V10H7V9H2V3C2 2.44772 2.44772 2 3 2H10C10.5523 2 11 2.44772 11 3V4H12V3C12 1.89543 11.1046 1 10 1H3Z" fill="#CED0D6"/>
<path d="M10 5C8.89543 5 8 5.89543 8 7V11C8 10.2597 8.4022 9.61337 9 9.26756V7C9 6.44772 9.44772 6 10 6H13C13.5523 6 14 6.44772 14 7V8.26756C14.5978 8.61337 15 9.25972 15 10V7C15 5.89543 14.1046 5 13 5H10Z" fill="#CED0D6"/>
</svg>
