<!-- Copyright 2000-2024 JetBrains s.r.o. and contributors. Use of this source code is governed by the Apache 2.0 license. -->
<svg width="16" height="16" viewBox="0 0 16 16" fill="none" xmlns="http://www.w3.org/2000/svg">
<path d="M7.39619 15.7304C7.58149 15.8371 7.7914 15.8925 8.00275 15.8925L8.00217 15.8895C8.21642 15.8895 8.42633 15.8345 8.61162 15.7274L14.3934 12.3877C14.7669 12.1705 15 11.7667 15 11.3338V4.66025C15 4.22597 14.7669 3.82208 14.3934 3.60638L8.61162 0.265259C8.24827 0.058248 7.76187 0.058248 7.39562 0.265259L1.60656 3.60493C1.23162 3.81918 1 4.22452 1 4.65881V11.3324C1 11.7652 1.23162 12.1705 1.60656 12.3877L3.12367 13.2621C3.85906 13.624 4.12253 13.624 4.45693 13.624C5.5441 13.624 6.16948 12.9653 6.16948 11.8188V5.22917C6.16948 5.13508 6.0942 5.06269 6.003 5.06269H5.2705C5.1764 5.06269 5.10257 5.13508 5.10257 5.22917V11.8159C5.10257 12.3254 4.57709 12.8321 3.7172 12.4022L2.13349 11.4873C2.07848 11.4569 2.04374 11.3961 2.04374 11.3324V4.65881C2.04374 4.59511 2.07935 4.53286 2.13537 4.50101L7.91517 1.16568C7.96873 1.13383 8.03966 1.13383 8.09323 1.16568L13.8742 4.50101C13.9289 4.53431 13.9636 4.59366 13.9636 4.66025V11.3338C13.9636 11.3975 13.9289 11.4598 13.8753 11.4902L8.09207 14.8284C8.04242 14.8573 7.96641 14.8573 7.91285 14.8284L6.42961 13.9482C6.38546 13.9222 6.329 13.9135 6.28587 13.9381C5.87546 14.1712 5.79744 14.2016 5.41295 14.3362C5.31784 14.3691 5.17713 14.4261 5.46549 14.5874L7.39619 15.7304Z" fill="#369650"/>
<path d="M6.72799 9.1582C6.72799 10.1325 7.25855 11.294 9.789 11.294L9.78061 11.3008C11.6133 11.3008 12.6643 10.5785 12.6643 9.31903C12.6643 8.06973 11.8203 7.73677 10.0426 7.50081C8.24757 7.2634 8.06517 7.14035 8.06517 6.71909C8.06517 6.37166 8.22006 5.90842 9.55043 5.90842C10.7389 5.90842 11.1761 6.16465 11.3571 6.96519C11.373 7.04047 11.441 7.09548 11.5192 7.09548H12.2705C12.3168 7.09548 12.3617 7.07521 12.3936 7.04191C12.4254 7.00717 12.4428 6.96085 12.4384 6.91307C12.3226 5.53204 11.4048 4.88929 9.55333 4.88929C7.90448 4.88929 6.92009 5.58415 6.92009 6.75094C6.92009 8.01761 7.89869 8.36649 9.48239 8.52284C11.3759 8.70813 11.5235 8.98463 11.5235 9.35667C11.5235 10.003 11.0053 10.2784 9.7864 10.2784C8.25625 10.2784 7.9204 9.89446 7.80749 9.1333C7.79446 9.0518 7.72497 8.99172 7.64246 8.99172H6.89549C6.80269 8.99172 6.72799 9.06555 6.72799 9.1582Z" fill="#369650"/>
</svg>
