<!-- Copyright 2000-2024 JetBrains s.r.o. and contributors. Use of this source code is governed by the Apache 2.0 license. -->
<svg width="16" height="16" viewBox="0 0 16 16" fill="none" xmlns="http://www.w3.org/2000/svg">
<path fill-rule="evenodd" clip-rule="evenodd" d="M8 1C11.866 1 15 4.13401 15 8C15 11.866 11.866 15 8 15C4.13401 15 1 11.866 1 8C1 4.13401 4.13401 1 8 1ZM8 14C8.07605 14 8.23213 13.9683 8.4653 13.7382C8.70277 13.5038 8.96249 13.1151 9.20218 12.5558C9.39307 12.1104 9.55878 11.586 9.68895 11H6.31105C6.44122 11.586 6.60693 12.1104 6.79782 12.5558C7.03751 13.1151 7.29723 13.5038 7.5347 13.7382C7.76787 13.9683 7.92395 14 8 14ZM6.13293 10C6.04739 9.37645 6 8.70458 6 8C6 7.29542 6.04739 6.62355 6.13293 6H9.86707C9.95261 6.62355 10 7.29542 10 8C10 8.70458 9.95261 9.37645 9.86707 10H6.13293ZM10.7113 11C10.4854 12.1094 10.1382 13.0582 9.7096 13.7529C11.1936 13.3126 12.4373 12.3137 13.1973 11H10.7113ZM13.6586 10H10.8758C10.9566 9.36629 11 8.69497 11 8C11 7.30503 10.9566 6.63371 10.8758 6H13.6586C13.8797 6.62556 14 7.29873 14 8C14 8.70127 13.8797 9.37444 13.6586 10ZM5.12423 10H2.34141C2.12031 9.37444 2 8.70127 2 8C2 7.29873 2.12031 6.62556 2.34141 6H5.12423C5.0434 6.63371 5 7.30503 5 8C5 8.69497 5.0434 9.36629 5.12423 10ZM2.80269 11H5.2887C5.51457 12.1094 5.86182 13.0582 6.2904 13.7529C4.80644 13.3126 3.56266 12.3137 2.80269 11ZM6.31105 5H9.68895C9.55878 4.41404 9.39307 3.8896 9.20218 3.44417C8.96249 2.8849 8.70277 2.4962 8.4653 2.26184C8.23213 2.03173 8.07605 2 8 2C7.92395 2 7.76787 2.03173 7.5347 2.26184C7.29723 2.4962 7.03751 2.8849 6.79782 3.44417C6.60693 3.8896 6.44122 4.41404 6.31105 5ZM10.7113 5H13.1973C12.4373 3.68625 11.1936 2.6874 9.7096 2.24707C10.1382 2.9418 10.4854 3.89059 10.7113 5ZM6.2904 2.24707C5.86182 2.9418 5.51457 3.89059 5.2887 5H2.80269C3.56266 3.68625 4.80644 2.6874 6.2904 2.24707Z" fill="#CED0D6"/>
</svg>
