<!-- Copyright 2000-2022 JetBrains s.r.o. and contributors. Use of this source code is governed by the Apache 2.0 license. -->
<svg width="16" height="16" viewBox="0 0 16 16" fill="none" xmlns="http://www.w3.org/2000/svg">
<path d="M12.9881 12.4056C12.6444 12.1269 12.7781 11.5112 12.4212 11.2075C12.7669 9.10437 11.7981 7.25062 10.6431 6.0625C9.67375 5.06562 9.98625 4.09562 9.98625 3.25625C9.98625 1.915 9.43562 0.5 7.7675 0.5C5.98437 0.5 5.49562 1.9875 5.47812 2.83625C5.43562 4.875 5.89 5.405 4.69687 6.88875C3.29312 8.63437 3.08625 10.3756 3.40312 11.2994C3.255 11.4719 3.055 11.6631 2.68125 11.8212C1.64875 12.2712 2.40562 13.0244 2.12 13.5587C2.03875 13.7106 2 13.8694 2 14.0212C2 14.49 2.3725 14.8956 3.04937 14.835C3.9625 14.7537 4.805 15.4006 5.35 15.4006C5.83125 15.4006 6.22625 15.1269 6.41 14.75C7.27062 14.5381 8.33312 14.565 9.19312 14.7869C9.3475 15.2187 9.76625 15.5 10.2319 15.5C11.2512 15.5 11.4475 14.3444 12.6169 13.9531C13.0381 13.8125 13.25 13.4037 13.25 13.0231C13.25 12.7794 13.1631 12.5475 12.9881 12.4056ZM7.27125 5.865C7.07187 5.865 6.90687 5.70375 6.64625 5.51C6.31625 5.265 5.98062 5.12375 5.98437 4.86625C5.98437 4.68937 6.22125 4.635 6.5275 4.44062C6.85625 4.2325 6.98437 4.02125 7.30812 4.02125C7.63937 4.02125 7.73937 4.18875 8.18937 4.38312C8.63187 4.575 8.94 4.65 8.94 4.86625C8.94 5.08812 8.47687 5.24687 8.21625 5.40875C7.83312 5.645 7.63625 5.865 7.27125 5.865ZM8.31187 2.60562C8.86312 2.69375 8.925 3.6625 8.66125 4.13937L8.43937 4.04875C8.55437 3.70937 8.5525 3.15062 8.1675 3.115C7.92312 3.0925 7.76562 3.415 7.73187 3.69125C7.63625 3.65125 7.53187 3.6225 7.405 3.61187C7.44375 3.035 7.81625 2.52625 8.31187 2.60562ZM6.185 2.8125C6.6075 2.7075 6.85687 3.19875 6.85875 3.70937L6.665 3.82812C6.63875 3.61375 6.54312 3.2675 6.30313 3.34125C6.04625 3.42125 6.08812 4.01812 6.23125 4.14062L6.04 4.24687C5.7775 3.805 5.77812 2.91375 6.185 2.8125ZM4.86312 14.8394C3.63625 14.2813 3.21938 14.4081 2.985 14.4081C2.49938 14.4081 2.34062 14.0462 2.52312 13.7037C2.67812 13.4131 2.63 13.1088 2.59187 12.8644C2.53313 12.49 2.5225 12.3681 2.89063 12.2069C3.4 11.9906 3.62625 11.7125 3.795 11.5044C4.26875 10.9187 4.74688 11.84 5.13875 12.6606C5.39312 13.1925 5.89375 13.4619 6.04812 14.0512C6.19 14.5956 5.60437 15.1769 4.86312 14.8394ZM9.23 13.6681C8.365 14.0887 7.26312 14.2819 6.43875 13.855C6.31687 13.5031 6.12187 13.2756 5.91187 13.0469C6.24875 12.9581 6.49875 12.5381 6.19937 12.1162C5.88 11.6656 5.2275 11.3512 4.56812 10.8412C4.56812 9.69608 4.92187 8.47832 5.56687 7.53375C5.9925 6.91 5.99875 6.08625 6.00812 5.57125L6.39562 5.83625C6.68062 6.04687 6.91937 6.27875 7.26187 6.27875C7.76812 6.27875 8.04812 5.9875 8.43812 5.74562C8.59062 5.65187 8.82125 5.55687 9.015 5.425C9.34 6.9725 10.6862 8.83375 10.7619 9.89375C11.0088 9.89375 11.1245 9.93401 11.2644 9.99125C11.6325 10.1419 12.0275 10.5344 12.0637 11.0512L11.9106 11.0337C11.8319 10.4594 10.2812 9.61562 10.1419 10.6969C9.39812 10.81 9.66875 11.9881 9.51875 12.7519C9.45 13.1012 9.3225 13.3775 9.23 13.6681ZM12.2587 13.6425C11.6431 13.88 11.2275 14.3844 10.9419 14.6975C10.3919 15.3012 9.66437 15.0119 9.58687 14.4469C9.505 13.8431 9.81187 13.5137 9.94437 12.8381C10.065 12.2212 9.93 11.2719 10.2137 11.1706C10.3981 12.2662 11.505 11.8056 11.7575 11.5069C12.1681 11.5069 12.2025 11.6456 12.2944 12.03C12.3519 12.2706 12.4312 12.4731 12.6556 12.7112C12.9169 12.9906 12.8369 13.4194 12.2587 13.6425Z" fill="#AFB1B3"/>
</svg>
