<svg width="16" height="16" viewBox="0 0 16 16" fill="none" xmlns="http://www.w3.org/2000/svg">
<path d="M2.14645 15.8536C2.34171 16.0488 2.65829 16.0488 2.85355 15.8536C3.04882 15.6583 3.04882 15.3417 2.85355 15.1464L1.70711 14L6.5 14C6.77614 14 7 13.7761 7 13.5C7 13.2239 6.77614 13 6.5 13L1.70711 13L2.85355 11.8536C3.04882 11.6583 3.04882 11.3417 2.85355 11.1464C2.65829 10.9512 2.34171 10.9512 2.14645 11.1464L0.146447 13.1464C0.0526788 13.2402 0 13.3674 0 13.5C0 13.6326 0.0526788 13.7598 0.146447 13.8536L2.14645 15.8536Z" fill="#548AF7"/>
<path d="M13.1464 11.1464C13.3417 10.9512 13.6583 10.9512 13.8536 11.1464L15.8536 13.1464C15.9015 13.1944 15.9377 13.2496 15.9621 13.3086C15.9865 13.3676 16 13.4322 16 13.5C16 13.5678 15.9865 13.6324 15.9621 13.6914C15.9377 13.7504 15.9015 13.8056 15.8536 13.8536L13.8536 15.8536C13.6583 16.0488 13.3417 16.0488 13.1464 15.8536C12.9512 15.6583 12.9512 15.3417 13.1464 15.1464L14.2929 14H9.5C9.22386 14 9 13.7761 9 13.5C9 13.2239 9.22386 13 9.5 13H14.2929L13.1464 11.8536C12.9512 11.6583 12.9512 11.3417 13.1464 11.1464Z" fill="#548AF7"/>
<path d="M14 2C14.5523 2 15 2.44772 15 3V10.8789L14.5605 10.4395L14.4463 10.3359C14.31 10.2249 14.1588 10.1409 14 10.085V3H11V12H10V7H7V12H6V5H3V10H2V5C2 4.44772 2.44772 4 3 4H6C6.55228 4 7 4.44772 7 5V6H10V3C10 2.44772 10.4477 2 11 2H14Z" fill="#CED0D6"/>
</svg>
