<svg width="16" height="16" viewBox="0 0 16 16" fill="none" xmlns="http://www.w3.org/2000/svg">
<path d="M2.22448 7.08203C2.41849 6.95421 2.68265 6.97582 2.85339 7.14648L4.85339 9.14648L4.91784 9.22461C5.04576 9.41851 5.02382 9.68269 4.85339 9.85352C4.68243 10.0243 4.41853 10.0453 4.22448 9.91699L4.14636 9.85352L2.99987 8.70703V12C2.99987 12.5523 3.44759 13 3.99987 13H11.9999C12.5521 12.9999 12.9999 12.5522 12.9999 12V11.5C12.9999 11.2239 13.2237 11 13.4999 11C13.7759 11.0001 13.9999 11.2239 13.9999 11.5V12C13.9999 13.1045 13.1044 13.9999 11.9999 14H3.99987C2.8953 14 1.99987 13.1046 1.99987 12V8.70703L0.853386 9.85352C0.658151 10.0486 0.341586 10.0486 0.146355 9.85352C-0.0488026 9.65828 -0.0487675 9.34173 0.146355 9.14648L2.14636 7.14648L2.22448 7.08203Z" fill="#6C707E"/>
<path d="M11.9999 2C13.1044 2.00009 13.9999 2.89549 13.9999 4V7.29297L15.1464 6.14648C15.3416 5.95129 15.6581 5.95125 15.8534 6.14648C16.0483 6.34176 16.0485 6.65837 15.8534 6.85352L13.8534 8.85352C13.6583 9.04854 13.3416 9.04832 13.1464 8.85352L11.1464 6.85352L11.0819 6.77539C10.9537 6.58132 10.9755 6.31735 11.1464 6.14648C11.3172 5.97567 11.5812 5.95388 11.7753 6.08203L11.8534 6.14648L12.9999 7.29297V4C12.9999 3.44777 12.5521 3.00009 11.9999 3H3.99987C3.44759 3 2.99987 3.44772 2.99987 4V4.5C2.99987 4.77608 2.77593 4.99991 2.49987 5C2.22373 5 1.99987 4.77614 1.99987 4.5V4C1.99987 2.89543 2.8953 2 3.99987 2H11.9999Z" fill="#6C707E"/>
</svg>
