<!-- Copyright 2000-2026 JetBrains s.r.o. and contributors. Use of this source code is governed by the Apache 2.0 license. -->
<svg xmlns="http://www.w3.org/2000/svg" width="16" height="16" viewBox="0 0 16 16">
  <g transform="translate(-1.8 -0.5) scale(1.4)" fill="none" stroke="#6C707E" stroke-linecap="round" stroke-linejoin="round"><path d="M5.5 2.3C4.3 2.3 3.5 3.1 3.5 4.1C2.6 4.4 2 5.2 2 6.2C2 7.1 2.5 7.8 3.2 8.2C3.1 9.6 4.1 10.7 5.4 10.7C6.1 10.7 6.7 10.3 7 9.8C7.3 10.3 7.9 10.7 8.6 10.7C9.9 10.7 10.9 9.6 10.8 8.2C11.5 7.8 12 7.1 12 6.2C12 5.2 11.4 4.4 10.5 4.1C10.5 3.1 9.7 2.3 8.5 2.3C7.8 2.3 7.3 2.6 7 3.1C6.7 2.6 6.2 2.3 5.5 2.3Z" stroke-width="1.15"/><path d="M7 3.1V9.8M4.5 5.1C5.3 5 5.9 5.3 6.2 5.9M9.5 5.1C8.7 5 8.1 5.3 7.8 5.9M4.9 8C5.5 7.9 6 8.1 6.4 8.6M9.1 8C8.5 7.9 8 8.1 7.6 8.6" stroke-width="1"/></g>
</svg>
