<svg width="16" height="16" viewBox="0 0 16 16" fill="none" xmlns="http://www.w3.org/2000/svg">
<path fill-rule="evenodd" clip-rule="evenodd" d="M8.99988 11.6827C8.64097 11.7177 8.27352 11.7359 7.89955 11.7359C5.1602 11.7359 2.75258 10.7528 1.50769 9.3009C1.99071 10.607 2.86227 12.0338 4.00505 12.8296C5.14783 13.6255 6.50701 14.052 7.89955 14.052C8.26984 14.052 8.63776 14.0219 8.99988 13.9626V11.6827Z" fill="#AFB1B3"/>
<path fill-rule="evenodd" clip-rule="evenodd" d="M7.89955 3.31615C10.6389 3.31615 13.0466 4.29929 14.2915 5.75114C13.8084 4.44503 12.9369 3.01823 11.7941 2.22242C10.6513 1.42662 9.29214 1 7.89955 1C6.50701 1 5.14783 1.42662 4.00505 2.22242C2.86227 3.01823 1.99071 4.44503 1.50769 5.75114C2.75258 4.29624 5.14803 3.31615 7.89955 3.31615Z" fill="#AFB1B3"/>
<rect x="11.9999" y="9" width="2" height="6" fill="#AFB1B3"/>
<rect x="9.99988" y="11" width="6" height="2" fill="#AFB1B3"/>
</svg>
