<svg width="16" height="16" viewBox="0 0 16 16" fill="none" xmlns="http://www.w3.org/2000/svg">
<path d="M2.96305 10.6869C2.96305 11.8785 3.52405 12.6262 5.53705 13L5.83405 11.8201C4.66805 11.4696 4.49205 11.1425 4.49205 10.4299C4.49205 10.3145 4.5001 10.1621 4.50825 10.0078C4.5166 9.84965 4.52505 9.68958 4.52505 9.56542C4.52505 8.71262 4.11805 8.25701 3.38105 8C4.11805 7.74299 4.52505 7.28738 4.52505 6.43458C4.52505 6.31042 4.5166 6.15035 4.50825 5.99224C4.5001 5.83794 4.49205 5.68549 4.49205 5.57009C4.49205 4.85748 4.66805 4.53037 5.83405 4.17991L5.53705 3C3.52405 3.37383 2.96305 4.1215 2.96305 5.31308C2.96305 5.39796 2.97079 5.54313 2.97877 5.69284C2.98727 5.85223 2.99605 6.01675 2.99605 6.11916C2.99605 7.03037 2.64405 7.32243 1.78605 7.32243H1.30005V8.67757H1.78605C2.64405 8.67757 2.99605 8.96963 2.99605 9.88084C2.99605 9.98325 2.98727 10.1478 2.97877 10.3072C2.97079 10.4569 2.96305 10.602 2.96305 10.6869Z" fill="#9AA7B0" fill-opacity="0.8"/>
<path d="M13.041 10.6869C13.041 11.8785 12.4801 12.6262 10.4671 13L10.17 11.8201C11.3361 11.4696 11.5121 11.1425 11.5121 10.4299C11.5121 10.3145 11.504 10.1621 11.4959 10.0078C11.4875 9.84965 11.479 9.68958 11.479 9.56542C11.479 8.71262 11.8861 8.25701 12.623 8C11.8861 7.74299 11.479 7.28738 11.479 6.43458C11.479 6.31042 11.4875 6.15035 11.4959 5.99224C11.504 5.83794 11.5121 5.68549 11.5121 5.57009C11.5121 4.85748 11.3361 4.53037 10.17 4.17991L10.4671 3C12.4801 3.37383 13.041 4.1215 13.041 5.31308C13.041 5.39796 13.0333 5.54313 13.0253 5.69284C13.0168 5.85223 13.008 6.01675 13.008 6.11916C13.008 7.03037 13.3601 7.32243 14.2181 7.32243H14.7041V8.67757H14.2181C13.3601 8.67757 13.008 8.96963 13.008 9.88084C13.008 9.98325 13.0168 10.1478 13.0253 10.3072C13.0333 10.4569 13.041 10.602 13.041 10.6869Z" fill="#9AA7B0" fill-opacity="0.8"/>
</svg>
