<svg width="16" height="16" viewBox="0 0 16 16" fill="none" xmlns="http://www.w3.org/2000/svg">
<path fill-rule="evenodd" clip-rule="evenodd" d="M7 1L3 5H7V1Z" fill="#9AA7B0" fill-opacity="0.8"/>
<path fill-rule="evenodd" clip-rule="evenodd" d="M8 6V1H13V6.20703C12.5232 6.07217 12.02 6 11.5 6C8.46243 6 6 8.46243 6 11.5C6 12.8296 6.47182 14.0491 7.25716 15H3V6H8Z" fill="#9AA7B0" fill-opacity="0.8"/>
<path fill-rule="evenodd" clip-rule="evenodd" d="M14.684 8.29068C14.1578 8.1025 13.5909 8 13 8C12.1106 8 11.2755 8.23221 10.5519 8.63932C9.02124 8.81406 7.72778 9.43117 7 10.2817C7.33577 9.37379 7.94163 8.38196 8.73602 7.82876C9.53041 7.27556 10.4752 6.979 11.4432 6.979C12.4113 6.979 13.3561 7.27556 14.1505 7.82876C14.3394 7.96028 14.5176 8.11659 14.684 8.29068ZM8.03462 13.5915C8.08923 14.0548 8.2072 14.4988 8.37962 14.9145C7.75984 14.3428 7.28359 13.5161 7 12.7492C7.27134 13.0657 7.62215 13.3501 8.03462 13.5915Z" fill="#F37726"/>
<circle cx="13" cy="13" r="3" fill="#62B543"/>
</svg>
