<svg width="32" height="32" viewBox="0 0 32 32" fill="none" xmlns="http://www.w3.org/2000/svg">
<path d="M27.3135 11.5046C24.5396 9.43626 20.1525 7.60215 16.0099 7.60215C11.8517 7.60215 7.47885 9.43033 4.70977 11.4984C4.3352 11.7782 3.8243 11.3935 4.08121 11.0025C5.30763 9.13589 7.13034 7.21879 8.6929 6.18404C10.84 4.76221 13.3936 4 16.0099 4C18.6263 4 21.1799 4.76221 23.327 6.18404C24.8911 7.21982 26.7159 9.13971 27.9424 11.0081C28.199 11.399 27.6881 11.7839 27.3135 11.5046Z" fill="#E08855"/>
<path d="M4.70993 20.4954C7.48379 22.5637 11.8709 24.3978 16.0135 24.3978C20.1717 24.3978 24.5446 22.5697 27.3137 20.5016C27.6882 20.2218 28.1991 20.6065 27.9422 20.9975C26.7158 22.8641 24.8931 24.7812 23.3305 25.816C21.1835 27.2378 18.6298 28 16.0135 28C13.3971 28 10.8435 27.2378 8.69641 25.816C7.13231 24.7802 5.30754 22.8603 4.08108 20.9919C3.82446 20.601 4.33533 20.2161 4.70993 20.4954Z" fill="#E08855"/>
</svg>
