<svg width="16" height="16" viewBox="0 0 16 16" fill="none" xmlns="http://www.w3.org/2000/svg">
<g clip-path="url(#clip0_101_992)">
<path fill-rule="evenodd" clip-rule="evenodd" d="M7 1L3 5H7V1Z" fill="#9AA7B0" fill-opacity="0.8"/>
<path fill-rule="evenodd" clip-rule="evenodd" d="M8 6V1H13V6.20703C12.5232 6.07217 12.02 6 11.5 6C8.46243 6 6 8.46243 6 11.5C6 12.8296 6.47182 14.0491 7.25716 15H3V6H8Z" fill="#9AA7B0" fill-opacity="0.8"/>
<path fill-rule="evenodd" clip-rule="evenodd" d="M11.4432 14.4419C9.53901 14.4419 7.86538 13.7585 7 12.7492C7.33577 13.6572 7.94163 14.649 8.73602 15.2022C9.53041 15.7554 10.4752 16.052 11.4432 16.052C12.4113 16.052 13.3561 15.7554 14.1505 15.2022C14.9449 14.649 15.5507 13.6572 15.8865 12.7492C15.0233 13.7585 13.356 14.4419 11.4432 14.4419Z" fill="#F37726"/>
<path fill-rule="evenodd" clip-rule="evenodd" d="M11.4432 8.58906C13.3475 8.58906 15.0211 9.27247 15.8865 10.2817C15.5507 9.37379 14.9449 8.38196 14.1505 7.82876C13.3561 7.27556 12.4113 6.979 11.4432 6.979C10.4752 6.979 9.53041 7.27556 8.73602 7.82876C7.94163 8.38196 7.33577 9.37379 7 10.2817C7.86538 9.27036 9.53055 8.58906 11.4432 8.58906Z" fill="#F37726"/>
</g>
<defs>
<clipPath id="clip0_101_992">
<rect width="16" height="16" fill="white"/>
</clipPath>
</defs>
</svg>
