<svg xmlns="http://www.w3.org/2000/svg" width="16" height="16" viewBox="0 0 16 16">
  <path fill="#F37726" fill-rule="evenodd" d="M6.39955556 10.735856C3.66020513 10.735856 1.25258462 9.75272509.00769230769 8.300855.49071453 9.60697808 1.3622735 11.0337778 2.50505641 11.8295863 3.64782906 12.6254017 5.00700855 13.052 6.39955556 13.052 7.79213675 13.052 9.15128205 12.6254017 10.2940855 11.8295863 11.4368547 11.0337778 12.3084103 9.60697808 12.791453 8.300855 11.5496068 9.75272509 9.15111111 10.735856 6.39955556 10.735856zM6.39955556 2.316154C9.13894017 2.316154 11.5465641 3.29928517 12.791453 4.751145 12.3084103 3.44503218 11.4368547 2.01823248 10.2940855 1.22242393 9.15128205.426615385 7.79213675 1.38413675e-13 6.39955556 0 5.00700855 1.38413675e-13 3.64782906.426615385 2.50505641 1.22242393 1.3622735 2.01823248.49071453 3.44503218.00769230769 4.751145 1.25258462 3.29624244 3.64803419 2.316154 6.39955556 2.316154z" transform="translate(1.5 1)"/>
</svg>
