<svg width="16" height="16" viewBox="0 0 16 16" fill="none" xmlns="http://www.w3.org/2000/svg">
<path fill-rule="evenodd" clip-rule="evenodd" d="M7.89955 3.31615C10.6389 3.31615 13.0466 4.29929 14.2915 5.75114C13.8084 4.44503 12.9369 3.01823 11.7941 2.22242C10.6513 1.42662 9.29214 1 7.89955 1C6.50701 1 5.14783 1.42662 4.00505 2.22242C2.86227 3.01823 1.99071 4.44503 1.50769 5.75114C2.75258 4.29624 5.14803 3.31615 7.89955 3.31615Z" fill="#9AA7B0"/>
<path fill-rule="evenodd" clip-rule="evenodd" d="M8.16196 11.7329C8.07487 11.7349 7.98739 11.7359 7.89955 11.7359C5.1602 11.7359 2.75258 10.7527 1.50769 9.30086C1.99071 10.607 2.86227 12.0338 4.00505 12.8296C5.14783 13.6254 6.50701 14.052 7.89955 14.052C7.96985 14.052 8.04006 14.0509 8.11017 14.0487C8.03799 13.7106 8 13.3597 8 13C8 12.5622 8.05627 12.1375 8.16196 11.7329Z" fill="#9AA7B0"/>
<circle cx="13" cy="13" r="3" fill="#9AA7B0"/>
</svg>
