<svg xmlns="http://www.w3.org/2000/svg" width="16" height="16" viewBox="0 0 16 16">
  <path fill="#AFB1B3" fill-rule="evenodd" d="M10,6 L6,6 L6,10 L10,10 L10,6 Z M8.8,8.8 L7.2,8.8 L7.2,7.2 L8.8,7.2 L8.8,8.8 Z M15,7 L15,5.5 L13.5,5.5 L13.5,4.11111111 C13.5,3.25555556 12.7444444,2.5 11.8888889,2.5 L10.5,2.5 L10.5,1 L9,1 L9,2.5 L7,2.5 L7,1 L5.5,1 L5.5,2.5 L4.11111111,2.5 C3.25555556,2.5 2.5,3.25555556 2.5,4.11111111 L2.5,5.5 L1,5.5 L1,7 L2.5,7 L2.5,9 L1,9 L1,10.5 L2.5,10.5 L2.5,11.8888889 C2.5,12.7444444 3.25555556,13.5 4.11111111,13.5 L5.5,13.5 L5.5,15 L7,15 L7,13.5 L9,13.5 L9,15 L10.5,15 L10.5,13.5 L11.8888889,13.5 C12.7444444,13.5 13.5,12.7444444 13.5,11.8888889 L13.5,10.5 L15,10.5 L15,9 L13.5,9 L13.5,7 L15,7 Z M12,12 L4,12 L4,4 L12,4 L12,12 Z"/>
</svg>
