<svg width="16" height="16" viewBox="0 0 16 16" fill="none" xmlns="http://www.w3.org/2000/svg">
<rect width="5" height="5" transform="matrix(-1 0 0 1 14 10)" fill="#AFB1B3"/>
<path fill-rule="evenodd" clip-rule="evenodd" d="M8.00001 12.9973C7.95023 12.9991 7.90023 13 7.85001 13C5.55803 13 3.70001 11.1419 3.70001 8.84995C3.70001 6.55797 5.55803 4.69995 7.85001 4.69995C9.47728 4.69995 10.8858 5.63653 11.5659 7.00005H13.7169C12.9317 4.50746 10.602 2.69995 7.85001 2.69995C4.45346 2.69995 1.70001 5.4534 1.70001 8.84995C1.70001 12.2465 4.45346 15 7.85001 15C7.90015 15 7.95016 14.9994 8.00001 14.9982V12.9973Z" fill="#AFB1B3"/>
<path d="M8 8L10.5003 5.49972L12.0271 3.97288L14 2V8H8Z" fill="#AFB1B3"/>
</svg>
