<!-- Copyright 2000-2025 JetBrains s.r.o. and contributors. Use of this source code is governed by the Apache 2.0 license. -->
<svg width="16" height="16" viewBox="0 0 16 16" fill="none" xmlns="http://www.w3.org/2000/svg">
  <path
    d="M12.3553 12.3773L9.35208 15.3558C9.03651 15.6688 8.5 15.4452 8.5 15.0008V9.00442C8.5 8.55838 9.03978 8.33556 9.35441 8.65173L12.3577 11.6696C12.5527 11.8656 12.5517 12.1827 12.3553 12.3773Z"
    fill="#F2FCF3"/>
  <path
    d="M8 9.00413C8.00027 8.11228 9.0798 7.66681 9.70898 8.29906L12.7119 11.3166C13.102 11.7086 13.0996 12.3433 12.707 12.7326L9.7041 15.7112C9.07301 16.3368 8.00029 15.8898 8 15.0012V9.00413ZM9 15.0012L12.0029 12.0227L9 9.00413V15.0012Z"
    fill="#208A3C"/>
  <path
    d="M11.8508 8.14534C12.0465 7.95074 12.3631 7.95172 12.5578 8.14729L15.7121 11.3138C16.1022 11.7054 16.0999 12.3396 15.7072 12.7287L12.5529 15.8551C12.3569 16.0494 12.0394 16.0481 11.8449 15.8522C11.6507 15.6564 11.6522 15.34 11.8479 15.1457L15.0031 12.0193L11.8488 8.85182C11.6543 8.65622 11.6551 8.33991 11.8508 8.14534Z"
    fill="#208A3C"/>
  <path
    d="M13.5 1C13.7761 1 14 1.22386 14 1.5V5.5C14 5.77614 13.7761 6 13.5 6H9.5C9.22386 6 9 5.77614 9 5.5C9 5.22386 9.22386 5 9.5 5H12C11.0873 3.78508 9.63517 3 8 3C5.23858 3 3 5.23858 3 8C3 10.4103 4.70556 12.4218 6.97559 12.8945V13.9102C4.15012 13.4239 2 10.9643 2 8C2 4.68629 4.68629 2 8 2C10.0877 2 11.9256 3.06658 13 4.68262V1.5C13 1.22386 13.2239 1 13.5 1Z"
    fill="#6C707E"/>
</svg>
