<!-- Copyright 2000-2025 JetBrains s.r.o. and contributors. Use of this source code is governed by the Apache 2.0 license. -->
<svg width="16" height="16" viewBox="0 0 16 16" fill="none" xmlns="http://www.w3.org/2000/svg">
<path fill-rule="evenodd" clip-rule="evenodd" d="M12.1464 0.146447C12.3417 -0.0488155 12.6583 -0.0488155 12.8536 0.146447L15.8536 3.14645C16.0488 3.34171 16.0488 3.65829 15.8536 3.85355C15.6583 4.04882 15.3417 4.04882 15.1464 3.85355L13 1.70711V7.5C13 7.77614 12.7761 8 12.5 8C12.2239 8 12 7.77614 12 7.5V1.70711L9.85355 3.85355C9.65829 4.04882 9.34171 4.04882 9.14645 3.85355C8.95118 3.65829 8.95118 3.34171 9.14645 3.14645L12.1464 0.146447Z" fill="#CED0D6"/>
<path d="M4 2.80378C4.00025 2.41929 4.41686 2.17837 4.75 2.37018L8 4.24616V4.24811L11 5.98053V7.50006C11.0002 8.32836 11.6717 9.00006 12.5 9.00006H12.9004V9.00202C12.8151 9.00162 12.7286 9.02174 12.6494 9.06745L4.75 13.629C4.41673 13.8211 4.00001 13.5802 4 13.1954V2.80378Z" fill="#253627"/>
<path d="M3 2.80417C3 1.64965 4.25008 0.927526 5.25 1.50436L8 3.09128V4.24655L4.75 2.37057C4.41673 2.17855 4 2.41942 4 2.80417V13.1958C4 13.5805 4.41675 13.8213 4.75 13.6294L12.6494 9.06784C12.8885 8.92985 13.1939 9.01241 13.332 9.25143C13.47 9.49055 13.3885 9.796 13.1494 9.93405L5.25 14.4946C4.25003 15.0718 3 14.3504 3 13.1958V2.80417Z" fill="#208A3C"/>
</svg>
