<!-- Copyright 2000-2025 JetBrains s.r.o. and contributors. Use of this source code is governed by the Apache 2.0 license. -->
<svg width="16" height="16" viewBox="0 0 16 16" fill="none" xmlns="http://www.w3.org/2000/svg">
<path d="M2.5 13.1943C2.50014 13.964 3.3334 14.4453 4 14.0606L12.7646 9.00001C12.6712 9.00559 11.593 9.00001 11.5 9.00001C9.01478 9.00001 7.0001 6.9852 7 4.50001C7 4.41368 6.99509 3.75212 7 3.66701L4 1.93654C3.33346 1.55171 2.50031 2.03223 2.5 2.80177L2.5 13.1943Z" fill="#253627"/>
<path d="M13.25 9.29742L4.25 14.4936C3.25 15.0709 2 14.3492 2 13.1945L2 2.80223C2 1.64753 3.25 0.925845 4.25 1.5032L7 3.09091L7 4.24561L3.75 2.36922C3.41666 2.17677 3 2.41733 3 2.80223L3 13.1945C3 13.5794 3.41667 13.82 3.75 13.6276L11.7652 9L13.6192 9C13.5168 9.1136 13.3937 9.21445 13.25 9.29742Z" fill="#57965C"/>
<path fill-rule="evenodd" clip-rule="evenodd" d="M11.1464 0.146447C11.3417 -0.0488155 11.6583 -0.0488155 11.8536 0.146447L14.8536 3.14645C15.0488 3.34171 15.0488 3.65829 14.8536 3.85355C14.6583 4.04882 14.3417 4.04882 14.1464 3.85355L12 1.70711V7.5C12 7.77614 11.7761 8 11.5 8C11.2239 8 11 7.77614 11 7.5V1.70711L8.85355 3.85355C8.65829 4.04882 8.34171 4.04882 8.14645 3.85355C7.95118 3.65829 7.95118 3.34171 8.14645 3.14645L11.1464 0.146447Z" fill="#CED0D6"/>
</svg>
