<!-- Copyright 2000-2025 JetBrains s.r.o. and contributors. Use of this source code is governed by the Apache 2.0 license. -->
<svg width="16" height="16" viewBox="0 0 16 16" fill="none" xmlns="http://www.w3.org/2000/svg">
<path d="M2.5 2.80291C2.5 2.03312 3.33334 1.55182 4 1.9367L12.7646 6.99726C12.6714 6.99168 11.593 6.99726 11.5 6.99726C9.01473 6.99726 7.00002 9.01201 7 11.4973C6.99999 11.5845 6.99512 12.2431 7 12.3293L4 14.0607C3.33355 14.4454 2.50049 13.9649 2.5 13.1955L2.5 2.80291Z" fill="#253627"/>
<path d="M13.25 6.6994L4.25 1.50325C3.25 0.925899 2 1.64758 2 2.80229L2 13.1946C2 14.3493 3.25 15.071 4.25 14.4936L7 12.9059L7 11.7512L3.75 13.6276C3.41666 13.8201 3 13.5795 3 13.1946L3 2.80229C3 2.41739 3.41667 2.17682 3.75 2.36927L11.7652 6.99683L13.6192 6.99683C13.5168 6.88323 13.3937 6.78237 13.25 6.6994Z" fill="#57965C"/>
<path fill-rule="evenodd" clip-rule="evenodd" d="M11.8536 15.8536C11.6583 16.0488 11.3417 16.0488 11.1464 15.8536L8.14645 12.8536C7.95118 12.6583 7.95118 12.3417 8.14645 12.1464C8.34171 11.9512 8.65829 11.9512 8.85355 12.1464L11 14.2929L11 8.5C11 8.22386 11.2239 8 11.5 8C11.7761 8 12 8.22386 12 8.5L12 14.2929L14.1464 12.1464C14.3417 11.9512 14.6583 11.9512 14.8536 12.1464C15.0488 12.3417 15.0488 12.6583 14.8536 12.8536L11.8536 15.8536Z" fill="#CED0D6"/>
</svg>
