<!-- Copyright 2000-2025 JetBrains s.r.o. and contributors. Use of this source code is governed by the Apache 2.0 license. -->
<svg width="16" height="16" viewBox="0 0 16 16" fill="none" xmlns="http://www.w3.org/2000/svg">
<path fill-rule="evenodd" clip-rule="evenodd" d="M12.8536 15.8536C12.6583 16.0488 12.3417 16.0488 12.1464 15.8536L9.14645 12.8536C8.95118 12.6583 8.95118 12.3417 9.14645 12.1464C9.34171 11.9512 9.65829 11.9512 9.85355 12.1464L12 14.2929L12 8.5C12 8.22386 12.2239 8 12.5 8C12.7761 8 13 8.22386 13 8.5L13 14.2929L15.1464 12.1464C15.3417 11.9512 15.6583 11.9512 15.8536 12.1464C16.0488 12.3417 16.0488 12.6583 15.8536 12.8536L12.8536 15.8536Z" fill="#CED0D6"/>
<path d="M4 13.1955C4.00025 13.58 4.41686 13.8209 4.75 13.6291L8 11.7532V11.7512L11 10.0188V8.49926C11.0002 7.67096 11.6717 6.99926 12.5 6.99926H12.9004V6.9973C12.8151 6.9977 12.7286 6.97758 12.6494 6.93187L4.75 2.37035C4.41673 2.17823 4.00001 2.41917 4 2.80394V13.1955Z" fill="#253627"/>
<path d="M3 13.1951C3 14.3496 4.25008 15.0717 5.25 14.4949L8 12.908V11.7527L4.75 13.6287C4.41673 13.8207 4 13.5798 4 13.1951V2.8035C4 2.41877 4.41675 2.17793 4.75 2.3699L12.6494 6.93142C12.8885 7.06941 13.1939 6.98685 13.332 6.74783C13.47 6.50871 13.3885 6.20326 13.1494 6.06521L5.25 1.50467C4.25003 0.927484 3 1.64885 3 2.8035V13.1951Z" fill="#208A3C"/>
</svg>
