<svg width="16" height="16" viewBox="0 0 16 16" fill="none" xmlns="http://www.w3.org/2000/svg">
<path d="M15 2.92661C15 3.99064 11.866 4.85321 8 4.85321C4.13401 4.85321 1 3.99064 1 2.92661C1 1.86257 4.13401 1 8 1C11.866 1 15 1.86257 15 2.92661Z" fill="#9AA7B0" fill-opacity="0.8"/>
<path d="M8 6.13761C10.8936 6.13761 13.4517 5.59849 15 4.77327V6.26605C15 7.33009 11.866 8.19266 8 8.19266C4.13401 8.19266 1 7.33009 1 6.26605V4.77327C2.54835 5.59849 5.10642 6.13761 8 6.13761Z" fill="#9AA7B0" fill-opacity="0.8"/>
<path d="M8 9.47706C10.8936 9.47706 13.4517 8.93794 15 8.11272V9.69949C15 10.7116 11.866 11.5321 8 11.5321C4.13401 11.5321 1 10.7116 1 9.69949V8.11272C2.54835 8.93794 5.10642 9.47706 8 9.47706Z" fill="#9AA7B0" fill-opacity="0.8"/>
<path d="M1 13.0734V11.4522C2.54835 12.2774 5.10642 12.8165 8 12.8165C10.8936 12.8165 13.4517 12.2774 15 11.4522V13.0734C15 14.1374 11.866 15 8 15C4.13401 15 1 14.1374 1 13.0734Z" fill="#9AA7B0" fill-opacity="0.8"/>
</svg>
