<!-- Copyright 2000-2021 JetBrains s.r.o. Use of this source code is governed by the Apache 2.0 license that can be found in the LICENSE file. -->
<svg xmlns="http://www.w3.org/2000/svg" width="16" height="16" viewBox="0 0 16 16">
  <g fill="none" fill-rule="evenodd">
    <path fill="#6E6E6E" d="M14,8 L12.5,8 C12.5,5.51471863 10.4852814,3.5 8,3.5 C5.51471863,3.5 3.5,5.51471863 3.5,8 C3.5,10.4852814 5.51471863,12.5 8,12.5 L8,14 C4.6862915,14 2,11.3137085 2,8 C2,4.6862915 4.6862915,2 8,2 C11.3137085,2 14,4.6862915 14,8 Z M10.5,8 L8,8 L8,10.5 C6.61928813,10.5 5.5,9.38071187 5.5,8 C5.5,6.61928813 6.61928813,5.5 8,5.5 C9.38071187,5.5 10.5,6.61928813 10.5,8 Z"/>
    <path fill="#6E6E6E" d="M12.0656852,10.9343148 L14.8083258,13.6769553 L13.6769549,14.8083261 L10.9343144,12.0656856 L9,14 L9,9 L14,9 L12.0656852,10.9343148 Z"/>
  </g>
</svg>
