<svg xmlns="http://www.w3.org/2000/svg" width="16" height="16" viewBox="0 0 16 16">
  <g fill="none" fill-rule="evenodd">
    <rect width="5" height="1" x="2" y="3" fill="#6E6E6E"/>
    <rect width="5" height="1" x="3" y="11" fill="#6E6E6E"/>
    <rect width="1" height="14" x="2" y="1" fill="#6E6E6E"/>
    <g transform="translate(6 1)">
      <path fill="#6E6E6E" d="M5.5,5 L4,5 L4,3 L7,3 L7,5 L5.5,5 L0,5 L0,1 L7,1 L7,5 L5.5,5 Z"/>
      <polygon fill="#6E6E6E" points="0 0 3.001 0 4 1 0 1"/>
      <rect width="3" height="3" x="5" y="4" fill="#389FD6"/>
    </g>
    <g transform="translate(6 9)">
      <path fill="#6E6E6E" d="M5.5,5 L4,5 L4,3 L7,3 L7,5 L5.5,5 L0,5 L0,1 L7,1 L7,5 L5.5,5 Z"/>
      <polygon fill="#6E6E6E" points="0 0 3.001 0 4 1 0 1"/>
      <rect width="3" height="3" x="5" y="4" fill="#389FD6"/>
    </g>
  </g>
</svg>
