<svg xmlns="http://www.w3.org/2000/svg" width="16" height="16" viewBox="0 0 16 16">
  <g fill="none" fill-rule="evenodd">
    <rect width="5" height="1" x="2" y="3" fill="#AFB1B3"/>
    <rect width="5" height="1" x="3" y="11" fill="#AFB1B3"/>
    <rect width="1" height="14" x="2" y="1" fill="#AFB1B3"/>
    <path fill="#AFB1B3" d="M11.5,6 L10,6 L10,4 L13,4 L13,6 L11.5,6 L6,6 L6,2 L13,2 L13,6 L11.5,6 Z"/>
    <polygon fill="#AFB1B3" points="6 1 9.001 1 10 2 6 2"/>
    <rect width="3" height="3" x="11" y="5" fill="#3592C4"/>
    <path fill="#AFB1B3" d="M11.5,14 L10,14 L10,12 L13,12 L13,14 L11.5,14 L6,14 L6,10 L13,10 L13,14 L11.5,14 Z"/>
    <polygon fill="#AFB1B3" points="6 9 9.001 9 10 10 6 10"/>
    <rect width="3" height="3" x="11" y="13" fill="#3592C4"/>
  </g>
</svg>
