<!-- Copyright 2000-2021 JetBrains s.r.o. Use of this source code is governed by the Apache 2.0 license that can be found in the LICENSE file. -->
<svg xmlns="http://www.w3.org/2000/svg" width="16" height="16" viewBox="0 0 16 16">
  <g fill="none" fill-rule="evenodd">
    <path fill="#F98B9E" fill-opacity=".6" d="M4.5641908,10.8429366 C2.51462312,10.2885039 1,8.33044482 1,6 C1,3.23857143 3.12664286,1 5.75,1 C7.87941419,1 9.68155393,2.47494696 10.2846998,4.50724146 C10.1904073,4.50243336 10.0954878,4.5 10,4.5 C6.96242857,4.5 4.5,6.96242857 4.5,10 C4.5,10.2866285 4.52192549,10.5681359 4.5641908,10.8429366 Z"/>
    <path fill="#231F20" fill-opacity=".7" d="M4.63694007,1.08046714 C4.54400322,1.03016949 4.42755153,1 4.281628,1 C3.64877255,1 3.52488624,1.52631609 3.50388537,1.86794849 C3.12286814,2.21058468 2.78485355,2.60808362 2.5,3.04936343 L2.5,2 C2.499,1.537 2.5,1 1.7,1 C0.9,1 1,2 1,2 C1,2 1,2.66676667 1,4.0003 L5.77315973e-15,4.0003 L5.77315973e-15,0.0003 L1,0.0003 L1,0.299231 C1.19860867,0.0999436667 1.49860867,0.0003 1.9,0.0003 C2.502087,0.0003 2.78363037,0.194116211 3.0986,0.6 C3.1576,0.502 3.4,0.0003 4.5,0.0003 C5.14111086,0.0003 5.54443974,0.204011219 5.7678364,0.651148448 C5.37298075,0.749736269 4.99432537,0.894686064 4.63694007,1.08046714 Z" transform="translate(3 4)"/>
    <path fill="#F4AF3D" fill-opacity=".6" d="M15,10 C15,12.7614286 12.7614286,15 10,15 C7.23857143,15 5,12.7614286 5,10 C5,7.23857143 7.23857143,5 10,5 C12.7614286,5 15,7.23857143 15,10"/>
    <path fill="#231F20" fill-opacity=".7" d="M1,6 L2,6 L2,3 L3,3 L3,2 L2,2 C1.99687783,2.02835838 1.99509925,2.02835838 1.99466424,2 C1.98704681,1.50341351 2.03289521,1.0728225 2.33221,0.972167969 C2.81964112,0.808253079 3.06885,1.02114795 3.18985,1.06414795 L3.485199,0.226043701 C3.40948301,0.198825534 3.34450073,0 2.7,0 C2.05549927,1.45716772e-16 1.71677256,0.0614013672 1.381893,0.388793945 C1.06513115,0.698473875 1.01614114,1.22015248 1.00124609,2 C1.00042273,2.01819872 0.666674031,2.01819872 0,2 L0,2.972 L1,2.972 L1,6 Z" transform="translate(8 7)"/>
  </g>
</svg>
