<svg xmlns="http://www.w3.org/2000/svg" width="16" height="16" viewBox="0 0 16 16">
  <g fill="none" fill-rule="evenodd">
    <rect width="2" height="9" x="4" y="2" fill="#6E6E6E"/>
    <polygon fill="#6E6E6E" points="5 10 9 14 1 14" transform="matrix(1 0 0 -1 0 24)"/>
    <g fill="#6E6E6E" transform="translate(9 2)">
      <path d="M2.1167196,5 C1.17438961,5 0.399999619,4.54902002 0.399999619,3.56004003 L0.399999619,3.54138003 C0.399999619,2.44977004 1.18880827,2 2.37371826,2 C2.87753826,2 3.28296959,2.02992004 3.63750959,2.15121004 L3.63750959,2.06724004 C3.63750959,1.47945004 3.2736396,1.15290005 2.5645596,1.15290005 C2.02341961,1.15290005 1.64088961,1.25553005 1.18371961,1.42347005 L0.829179615,0.341190054 C1.37964961,0.0986100559 1.92078961,0 2.7698196,0 C3.54420959,0 4.10400959,0.145260056 4.45854959,0.499800053 C4.83174958,0.87300005 4.99968958,1.42347005 4.99968958,2.09523004 L4.99968958,4.99686002 L3.62817959,4.99686002 L3.62817959,4.45572002 C3.28296959,4.83825002 2.8071396,5 2.1167196,5 Z M2.5458996,4.11051002 C3.2083296,4.11051002 3.65616959,3.74664003 3.65616959,3.23349003 L3.65616959,2.98158003 C3.41358959,2.86962003 3.0963696,2.79498003 2.7511596,2.79498003 C2.1447096,2.79498003 1.77150961,3.03756003 1.77150961,3.48540003 L1.77150961,3.50406003 C1.77150961,3.88659002 2.0887296,4.11051002 2.5458996,4.11051002 Z"/>
      <polygon points=".65 12.001 .65 11.003 3.234 8.148 .734 8.148 .734 7 4.998 7 4.998 7.998 2.404 10.853 4.998 10.853 4.998 12.001"/>
    </g>
  </g>
</svg>
