<svg xmlns="http://www.w3.org/2000/svg" width="16" height="16" viewBox="0 0 16 16">
  <g fill="none" fill-rule="evenodd">
    <rect width="2" height="9" x="4" y="2" fill="#6E6E6E"/>
    <polygon fill="#6E6E6E" points="5 10 9 14 1 14" transform="matrix(1 0 0 -1 0 24)"/>
    <polygon fill="#6E6E6E" points="11.388 3.652 12.571 3.1 11.643 12.36 10.485 12.9" transform="rotate(25 11.528 8)"/>
    <path fill="#6E6E6E" d="M9 8C7.8954305 8 7 7.1045695 7 6 7 4.8954305 7.8954305 4 9 4 10.1045695 4 11 4.8954305 11 6 11 7.1045695 10.1045695 8 9 8zM9 7C9.55228475 7 10 6.55228475 10 6 10 5.44771525 9.55228475 5 9 5 8.44771525 5 8 5.44771525 8 6 8 6.55228475 8.44771525 7 9 7zM14 12C12.8954305 12 12 11.1045695 12 10 12 8.8954305 12.8954305 8 14 8 15.1045695 8 16 8.8954305 16 10 16 11.1045695 15.1045695 12 14 12zM14 11C14.5522847 11 15 10.5522847 15 10 15 9.44771525 14.5522847 9 14 9 13.4477153 9 13 9.44771525 13 10 13 10.5522847 13.4477153 11 14 11z"/>
  </g>
</svg>
