<svg xmlns="http://www.w3.org/2000/svg" xmlns:xlink="http://www.w3.org/1999/xlink" width="16" height="16" viewBox="0 0 16 16">
  <defs>
    <path id="visibilitysort-a" d="M2.5,1.5 C2.22385763,1.5 2,1.81180169 2,2.19642857 L2,3.80357143 C2,4.18819831 2.22385763,4.5 2.5,4.5 C2.77614237,4.5 3,4.18819831 3,3.80357143 L3,2.19642857 C3,1.81180169 2.77614237,1.5 2.5,1.5 Z M2.5,0.5 C3.32842712,0.5 4,1.17157288 4,2 L4,3.5 C4,4.32842712 3.32842712,5 2.5,5 C1.67157288,5 1,4.32842712 1,3.5 L1,2 C1,1.17157288 1.67157288,0.5 2.5,0.5 Z"/>
    <path id="visibilitysort-b" d="M2,1.5 C1.44771525,1.5 1,1.81180169 1,2.19642857 L1,3.5 L3,3.5 L3,2.19642857 C3,1.81180169 2.55228475,1.5 2,1.5 Z M4,3.5 L0,3.5 L0,2 C0,1.17157288 0.8954305,0.5 2,0.5 C3.1045695,0.5 4,1.17157288 4,2 L4,3.5 Z"/>
  </defs>
  <g fill="none" fill-rule="evenodd">
    <rect width="2" height="9" x="4" y="2" fill="#6E6E6E"/>
    <polygon fill="#6E6E6E" points="5 10 9 14 1 14" transform="matrix(1 0 0 -1 0 24)"/>
    <g transform="translate(10 7)">
      <rect width="5" height="4" y="3" fill="#DB5860"/>
      <use fill="#DB5860" fill-rule="nonzero" xlink:href="#visibilitysort-a"/>
    </g>
    <g transform="translate(8)">
      <rect width="5" height="4" x="2" y="3" fill="#59A869"/>
      <use fill="#59A869" fill-rule="nonzero" xlink:href="#visibilitysort-b"/>
    </g>
  </g>
</svg>
