<!-- Copyright 2000-2023 JetBrains s.r.o. and contributors. Use of this source code is governed by the Apache 2.0 license. -->
<svg width="16" height="16" viewBox="0 0 16 16" fill="none" xmlns="http://www.w3.org/2000/svg">
<path fill-rule="evenodd" clip-rule="evenodd" d="M3.03628 4.12842C3.39071 4.34278 3.50427 4.80387 3.28991 5.15831C2.78866 5.9871 2.5 6.9587 2.5 8C2.5 9.04216 2.78913 10.0145 3.29115 10.8437C3.50566 11.1981 3.39231 11.6592 3.03797 11.8737C2.68363 12.0883 2.22248 11.9749 2.00797 11.6206C1.36812 10.5636 1 9.32366 1 8C1 6.67743 1.36751 5.43841 2.00639 4.38204C2.22075 4.02761 2.68185 3.91406 3.03628 4.12842Z" fill="#BD5757"/>
<path fill-rule="evenodd" clip-rule="evenodd" d="M4.12703 12.9625C4.34151 12.6081 4.80264 12.4947 5.157 12.7092C5.98613 13.211 6.95828 13.5 8.00022 13.5C9.04006 13.5 10.0104 13.2122 10.8384 12.7122C11.193 12.4981 11.654 12.612 11.8681 12.9666C12.0822 13.3212 11.9683 13.7822 11.6137 13.9963C10.5583 14.6335 9.32092 15 8.00022 15C6.67684 15 5.43711 14.632 4.38033 13.9924C4.02596 13.778 3.91256 13.3168 4.12703 12.9625Z" fill="#9C4E4E"/>
<path fill-rule="evenodd" clip-rule="evenodd" d="M12.9606 4.12465C13.3149 3.91003 13.7761 4.02323 13.9907 4.3775C14.6313 5.43485 14.9998 6.67553 14.9998 8C14.9998 9.32338 14.6319 10.5631 13.9923 11.6199C13.7778 11.9743 13.3167 12.0877 12.9623 11.8732C12.6079 11.6587 12.4945 11.1976 12.709 10.8432C13.2108 10.0141 13.4998 9.04194 13.4998 8C13.4998 6.95721 13.2104 5.98432 12.7078 5.15474C12.4931 4.80046 12.6063 4.33928 12.9606 4.12465Z" fill="#7A4343"/>
<path fill-rule="evenodd" clip-rule="evenodd" d="M7.9998 2.5C6.95891 2.5 5.98768 2.78843 5.1591 3.28931C4.80462 3.50359 4.34355 3.38994 4.12927 3.03546C3.91498 2.68098 4.02863 2.21991 4.38311 2.00562C5.4392 1.36722 6.67776 1 7.9998 1C9.31997 1 10.5569 1.36618 11.612 2.00292C11.9667 2.21694 12.0807 2.67793 11.8666 3.03257C11.6526 3.38721 11.1916 3.5012 10.837 3.28718C10.0092 2.78761 9.03922 2.5 7.9998 2.5Z" fill="#DB5C5C"/>
<path d="M9 5C9 4.44772 8.55228 4 8 4C7.44772 4 7 4.44772 7 5V7.5C7 8.05229 7.44772 8.5 8 8.5C8.55229 8.5 9 8.05228 9 7.5L9 5Z" fill="#DB5C5C"/>
<path d="M8 12C8.55228 12 9 11.5523 9 11C9 10.4477 8.55228 10 8 10C7.44772 10 7 10.4477 7 11C7 11.5523 7.44772 12 8 12Z" fill="#DB5C5C"/>
</svg>
