<!-- Copyright 2000-2023 JetBrains s.r.o. and contributors. Use of this source code is governed by the Apache 2.0 license. -->
<svg width="16" height="16" viewBox="0 0 16 16" fill="none" xmlns="http://www.w3.org/2000/svg">
<path fill-rule="evenodd" clip-rule="evenodd" d="M1.27603 10.8634L6.3028 1.98903C7.04977 0.670323 8.94893 0.670326 9.69589 1.98903L14.7227 10.8634C15.516 12.2639 14.5047 14 12.8956 14H3.10308C1.494 14 0.482737 12.2639 1.27603 10.8634Z" fill="#F2C55C"/>
<path d="M9 5C9 4.44772 8.55228 4 8 4C7.44772 4 7 4.44772 7 5V7.5C7 8.05229 7.44772 8.5 8 8.5C8.55229 8.5 9 8.05228 9 7.5L9 5Z" fill="#5E4D33"/>
<path d="M8 12C8.55228 12 9 11.5523 9 11C9 10.4477 8.55228 10 8 10C7.44772 10 7 10.4477 7 11C7 11.5523 7.44772 12 8 12Z" fill="#5E4D33"/>
</svg>
