<svg xmlns="http://www.w3.org/2000/svg" width="14" height="14" viewBox="0 0 14 14">
  <defs>
    <linearGradient id="modifierjblogo_dark-a" x1="50%" x2="50%" y1="0%" y2="100%">
      <stop offset="0%" stop-color="#3D3D3D"/>
      <stop offset="100%" stop-color="#010101"/>
    </linearGradient>
  </defs>
  <g fill="none" fill-rule="evenodd">
    <rect width="14" height="14" fill="#505357"/>
    <rect width="13" height="13" x="1" y="1" fill="url(#modifierjblogo_dark-a)"/>
    <path fill="#FFF" d="M4.28200005,8.0800001 C3.41000005,8.0800001 2.83400005,7.6960001 2.45000005,7.2400001 L3.22600005,6.3760001 C3.54600005,6.7280001 3.85800005,6.9360001 4.25000005,6.9360001 C4.71400005,6.9360001 5.00200005,6.6560001 5.00200005,6.0080001 L5.00200005,2.5 L6.26600005,2.5 L6.26600005,6.0640001 C6.26600005,6.7280001 6.07400005,7.2240001 5.73800005,7.5600001 C5.39400005,7.9040001 4.89000005,8.0800001 4.28200005,8.0800001 Z M7.5,8.0000001 L7.5,2.4000001 L10.1,2.4000001 C10.74,2.4000001 11.244,2.5760001 11.564,2.8960001 C11.82,3.1520001 11.9956665,3.49078638 11.9956665,3.87478638 C11.9956665,4.52278638 11.612,4.8480001 11.212,5.0720001 C11.86,5.3200001 12.26,5.6960001 12.26,6.4480001 C12.26,7.4880001 11.428,8.0000001 10.164,8.0000001 L7.5,8.0000001 Z M10.7040003,4.072 L10.7040003,4.056 C10.7040003,3.688 10.4160003,3.48 9.89600031,3.48 L8.68000031,3.48 L8.68000031,4.664 L9.81600031,4.664 C10.3600003,4.664 10.7040003,4.488 10.7040003,4.072 Z M11.0160003,6.296 C11.0160003,5.92 10.7360003,5.688 10.1040003,5.688 L8.68000031,5.688 L8.68000031,6.92 L10.1440003,6.92 C10.6880003,6.92 11.0160003,6.728 11.0160003,6.312 L11.0160003,6.296 Z"/>
    <rect width="6" height="1" x="2" y="11" fill="#FFF"/>
  </g>
</svg>
