<svg xmlns="http://www.w3.org/2000/svg" width="40" height="40" viewBox="0 0 40 40">
  <g fill="#7F8B91" fill-opacity=".5" fill-rule="evenodd" transform="translate(2 3)">
    <rect width="8" height="2.5" x="27" y="2"/>
    <rect width="8" height="2.5" x="27" y="14.5"/>
    <path d="M15,0 L25,0 L25,19 L15,19 C12.790861,19 11,17.209139 11,15 L11,4 C11,1.790861 12.790861,4.05812251e-16 15,0 Z"/>
    <path d="M6.91860685,5.84660438 L8.00219727,5.24168124 L9,5.24168124 L9,14.1666767 L8,14.1666767 C7.29629559,14.1666767 6.6774759,13.8032421 6.32100084,13.2538327 L6.32055664,13.2564792 C5.90124491,12.5542957 4.45431548,12.1455907 3.78935692,13.3149944 C3.1298775,14.7406754 2.76681942,16.330791 2.77872166,18.0056779 L2.80000019,21 C2.79968037,21.0330121 2.79952046,21.0660255 2.79952046,21.0990391 C2.79952046,26.7452999 7.37671923,31.3224987 13.0229801,31.3224987 L25,31.3224987 L25,34 L13,34 C10.6067661,34 8.364577,33.3533002 6.43865108,32.2251189 C4.51272515,31.0969376 2.90306238,29.4872749 1.77488109,27.5613489 C0.646699806,25.635423 -4.12512918e-15,23.3932339 -4.4182158e-15,21 L-4.9215652e-15,19.496946 C-7.24040474e-15,15.4040616 0.603366472,13.0190365 1.73636257,10.900518 C2.86935868,8.78199948 4.53198441,7.11937375 6.65050293,5.98637765 C6.73936653,5.93885287 6.82869904,5.89225997 6.91860685,5.84660438 Z"/>
  </g>
</svg>
