<!-- Copyright 2000-2021 JetBrains s.r.o. Use of this source code is governed by the Apache 2.0 license that can be found in the LICENSE file. -->
<svg width="40" height="40" viewBox="0 0 40 40" fill="none" xmlns="http://www.w3.org/2000/svg">
  <path fill-rule="evenodd" clip-rule="evenodd" d="M7.5 14.9752C7.5 15.7802 7.9525 16.5202 8.6675 16.8852L9.4475 17.2777C10.055 17.5852 10.7025 17.5527 11.25 17.3027V13.7652V11.2352V7.69774C10.7025 7.44524 10.055 7.41524 9.4475 7.72274L8.6675 8.11524C7.9525 8.47774 7.5 9.21774 7.5 10.0252V11.2352V13.7652V14.9752ZM15 35.0002C10.2775 35.0002 4.945 29.5552 5 25.0002V20.0002C5 16.4477 6.415 15.0002 7.5 15.0002V10.0002C4.75 10.0002 2.5 15.1977 2.5 20.0002V25.0002C2.5 31.8327 9 37.5002 15 37.5002H27.5V35.0002H15ZM17.8425 2.50024H27.5V21.2502V22.5002H23.75H17.8425C14.8925 22.5002 12.5 19.8102 12.5 16.4902V8.50774C12.5 5.19024 14.8925 2.50024 17.8425 2.50024ZM28.75 20.0002H37.5V17.5002H28.75V20.0002ZM28.75 7.50024H37.5V5.00024H28.75V7.50024Z" fill="#9AA7B0" fill-opacity="0.6"/>
</svg>