<svg xmlns="http://www.w3.org/2000/svg" xmlns:xlink="http://www.w3.org/1999/xlink" width="19" height="19" viewBox="0 0 19 19">
  <defs>
    <rect id="checkboxindeterminateselectedfocused-a" width="18" height="18" x="1" rx="3"/>
    <path id="checkboxindeterminateselectedfocused-b" d="M5,2 L15,2 C16.1045695,2 17,2.8954305 17,4 L17,14 C17,15.1045695 16.1045695,16 15,16 L5,16 C3.8954305,16 3,15.1045695 3,14 L3,4 C3,2.8954305 3.8954305,2 5,2 Z M5,3 C4.44771525,3 4,3.44771525 4,4 L4,14 C4,14.5522847 4.44771525,15 5,15 L15,15 C15.5522847,15 16,14.5522847 16,14 L16,4 C16,3.44771525 15.5522847,3 15,3 L5,3 Z"/>
  </defs>
  <g fill="none" fill-rule="evenodd">
    <use fill="#43494A" xlink:href="#checkboxindeterminateselectedfocused-a"/>
    <rect width="15" height="15" x="2.5" y="1.5" stroke="#3D6185" stroke-width="3" rx="3"/>
    <rect width="8.4" height="2.8" x="5.737" y="7.579" fill="#A7A7A7" rx="1"/>
    <use fill="#466D94" opacity=".65" xlink:href="#checkboxindeterminateselectedfocused-b"/>
  </g>
</svg>
