<svg xmlns="http://www.w3.org/2000/svg" width="19" height="19" viewBox="0 0 19 19">
  <g fill="none" fill-rule="evenodd">
    <rect width="14" height="14" x="3" y="2" fill="#43494A"/>
    <path fill="#3D6185" d="M4,0 L16,0 C17.6568542,-3.04359188e-16 19,1.34314575 19,3 L19,15 C19,16.6568542 17.6568542,18 16,18 L4,18 C2.34314575,18 1,16.6568542 1,15 L1,3 C1,1.34314575 2.34314575,-5.83819232e-16 4,-8.8817842e-16 Z M5,3 C4.44771525,3 4,3.44771525 4,4 L4,14 C4,14.5522847 4.44771525,15 5,15 L15,15 C15.5522847,15 16,14.5522847 16,14 L16,4 C16,3.44771525 15.5522847,3 15,3 L5,3 Z"/>
    <path fill="#466D94" d="M5,2 L15,2 C16.1045695,2 17,2.8954305 17,4 L17,14 C17,15.1045695 16.1045695,16 15,16 L5,16 C3.8954305,16 3,15.1045695 3,14 L3,4 C3,2.8954305 3.8954305,2 5,2 Z M5,3 C4.44771525,3 4,3.44771525 4,4 L4,14 C4,14.5522847 4.44771525,15 5,15 L15,15 C15.5522847,15 16,14.5522847 16,14 L16,4 C16,3.44771525 15.5522847,3 15,3 L5,3 Z" opacity=".65"/>
  </g>
</svg>
