<svg xmlns="http://www.w3.org/2000/svg" xmlns:xlink="http://www.w3.org/1999/xlink" width="19" height="19" viewBox="0 0 19 19">
  <defs>
    <circle id="radiofocused-a" cx="6.5" cy="6.5" r="6.5"/>
    <path id="radiofocused-b" d="M9.5,17 C5.35786438,17 2,13.6421356 2,9.5 C2,5.35786438 5.35786438,2 9.5,2 C13.6421356,2 17,5.35786438 17,9.5 C17,13.6421356 13.6421356,17 9.5,17 Z M9.5,16 C13.0898509,16 16,13.0898509 16,9.5 C16,5.91014913 13.0898509,3 9.5,3 C5.91014913,3 3,5.91014913 3,9.5 C3,13.0898509 5.91014913,16 9.5,16 Z"/>
  </defs>
  <g fill="none" fill-rule="evenodd">
    <g transform="translate(3 3)">
      <use fill="#43494A" xlink:href="#radiofocused-a"/>
      <circle cx="6.5" cy="6.5" r="8" stroke="#3D6185" stroke-width="3"/>
    </g>
    <use fill="#466D94" opacity=".65" xlink:href="#radiofocused-b"/>
  </g>
</svg>
