<svg width="65" height="66" viewBox="0 0 65 66" fill="none" xmlns="http://www.w3.org/2000/svg">
<path d="M60.4 8.53336C59.6666 8.13336 58.6666 7.80003 57.8666 7.6667C57.3333 7.6667 23.2666 1.13336 21.4666 1.00003C20.6 0.933364 19.6666 1.00003 18.8 1.13336C2.99997 3.4667 -1.00003 22.7334 12.0666 30.8C15.1333 32.6667 18.8 33.3334 22.3333 32.5334C28.5333 31.2 56.4 24.3334 58.2 23.9334C65.9333 22.2667 67.6 12.3334 60.4 8.53336Z" fill="url(#paint0_linear)"/>
<path d="M60.7333 38.2C59.4 36.6667 35.2667 9.26666 30.1333 4.79999C29.1333 3.93333 27.9333 3.13333 26.6 2.39999C24.2 1.13333 21.4667 0.66666 18.8 1.06666C4.53334 3.26666 -0.13333 19.2 8.73334 28.2C9.66667 29.2 36.2 58.6667 36.4667 59C37.6667 60.4667 39.1333 61.8667 41 63C44.0667 64.9333 47.8 65.5333 51.4 64.7333C64.4667 61.8 68.6667 47.0667 60.7333 38.2Z" fill="url(#paint1_linear)"/>
<path d="M55.6666 34.3334C55.1333 34.0667 54.6 33.8 54 33.6C53.5333 33.4667 17.6666 22.1333 16.8666 21.9333C15.5333 21.6 14.1333 21.5333 12.8 21.7333C-2.28292e-05 23.6 -3.26669 39.2667 7.33331 45.8667C9.79998 47.4 42.5333 63.8 43.4 64.1333C45.9333 65.0667 48.6666 65.2667 51.3333 64.6667C66.6666 61.3333 69.8 41.7334 55.6666 34.3334Z" fill="url(#paint2_linear)"/>
<path d="M60.4 8.53338C59.2 7.86671 57.8 7.66671 56.4 7.86671C55.6667 8.00005 55 8.13338 54.3333 8.40005C51.2 9.66671 10.1333 22.2667 8.99999 22.8C-0.533341 26.9334 -2.06667 40.0001 7.33333 45.8667C9.79999 47.4001 12.8 47.9334 15.7333 47.2667C16.8667 47.0001 18 46.6667 18.9333 46.2001C24 43.8001 60.0667 23.4 60.8 23C66.2 19.8667 66.6667 11.8667 60.4 8.53338Z" fill="url(#paint3_linear)"/>
<path d="M52 14H14V52H52V14Z" fill="url(#paint4_linear)"/>
<path d="M33.1444 45H19V47.3222H33.1444V45Z" fill="white"/>
<path d="M34 18.64H37.1283V30.1522H43.3224V32.78H34V18.64Z" fill="white"/>
<path d="M19 18.64H24.5058C28.9481 18.64 32.0138 21.7058 32.0138 25.6474V25.71C32.0138 29.7143 28.9481 32.78 24.5058 32.78H19V18.64ZM22.1283 21.4555V29.9645H24.5058C27.0711 29.9645 28.7604 28.2752 28.7604 25.7726V25.71C28.7604 23.2074 27.0711 21.4555 24.5058 21.4555H22.1283V21.4555Z" fill="white"/>
<defs>
<linearGradient id="paint0_linear" x1="20.566" y1="16.8362" x2="59.4061" y2="24.5771" gradientUnits="userSpaceOnUse">
<stop offset="0.2421" stop-color="#3BEA62"/>
<stop offset="0.8566" stop-color="#FCF84A"/>
</linearGradient>
<linearGradient id="paint1_linear" x1="16.407" y1="5.42879" x2="53.6996" y2="62.1501" gradientUnits="userSpaceOnUse">
<stop offset="0.0175975" stop-color="#3BEA62"/>
<stop offset="0.786" stop-color="#087CFA"/>
</linearGradient>
<linearGradient id="paint2_linear" x1="15.8887" y1="36.9893" x2="63.1221" y2="54.0488" gradientUnits="userSpaceOnUse">
<stop offset="0.1209" stop-color="#1FAEB5"/>
<stop offset="0.9746" stop-color="#087CFA"/>
</linearGradient>
<linearGradient id="paint3_linear" x1="2.30139" y1="39.6482" x2="63.3111" y2="12.6083" gradientUnits="userSpaceOnUse">
<stop offset="0.1209" stop-color="#1FAEB5"/>
<stop offset="0.8556" stop-color="#FCF84A"/>
</linearGradient>
<linearGradient id="paint4_linear" x1="32.9493" y1="4.7641" x2="32.9493" y2="38.8425" gradientUnits="userSpaceOnUse">
<stop offset="0.0842986" stop-color="#878585"/>
<stop offset="0.5377"/>
</linearGradient>
</defs>
</svg>
