<svg width="64" height="64" viewBox="0 0 64 64" fill="none" xmlns="http://www.w3.org/2000/svg">
<path d="M41.2 0L44.4 40.4L16.5 55.4L0 13L41.2 0Z" fill="url(#paint0_linear)"/>
<path d="M23.7 36.8L16.5 55.4L0 13L23.7 36.8Z" fill="url(#paint1_linear)"/>
<path d="M41.1999 0L42.3999 22.3H24.0999L15.8999 7.9L41.1999 0Z" fill="url(#paint2_linear)"/>
<path d="M34.3 21.2002L64 15.2002V43.3002L43.6 50.9002L35.2001 43.4002L34.3 21.2002Z" fill="url(#paint3_linear)"/>
<path d="M64 15.2L36.5 44.9L41.2 0L64 15.2Z" fill="#21D789"/>
<path d="M64 15.2001L48.8 11.6001L43.3 51.3001L64 43.3001V15.2001Z" fill="url(#paint4_linear)"/>
<path d="M21.8999 12.8999L42.3999 16.0999L63.9999 43.2999L43.2999 51.2999L35.1999 43.3999L21.8999 12.8999Z" fill="url(#paint5_linear)"/>
<path d="M13.2001 0L42.4001 16.1L32.3001 64H15.3001L0.600098 48.8L13.2001 0Z" fill="url(#paint6_linear)"/>
<path d="M23.2999 5.6001L10.6999 9.6001L5.8999 28.2001L16.4999 55.4001L36.8999 42.4001L42.3999 16.4001L42.2999 16.1001L23.2999 5.6001Z" fill="url(#paint7_linear)"/>
<path d="M38.1001 16.6001L42.4001 16.1001L38.1001 16.6001Z" fill="url(#paint8_linear)"/>
<path d="M20.1001 40.3L28.0001 17.6L13.2001 0L0.600098 48.8L20.1001 40.3Z" fill="url(#paint9_linear)"/>
<path d="M15.3002 64.0001L5.7002 54.1001L15.3002 64.0001H32.3002H15.3002Z" fill="url(#paint10_linear)"/>
<path d="M5.8999 28.1998L12.8999 46.1998L16.4999 55.3998L23.6999 36.7998L7.7999 20.7998L5.8999 28.1998Z" fill="url(#paint11_linear)"/>
<path d="M20.1001 40.2998L32.3001 63.9998H15.3001L0.600098 48.7998L20.1001 40.2998Z" fill="url(#paint12_linear)"/>
<path d="M20.1001 40.3001L32.3001 64.0001L42.4001 16.1001L28.0001 17.6001L20.1001 40.3001Z" fill="url(#paint13_linear)"/>
<path d="M36.2001 44.7998L32.3 63.9998H15.3L16.5 55.3998L36.2001 44.7998Z" fill="url(#paint14_linear)"/>
<path d="M16.5 55.3998L25.4 50.5998L20.1 40.2998L12 43.8998L16.5 55.3998Z" fill="url(#paint15_linear)"/>
<path d="M25.3999 50.5998L32.2999 63.9998L36.1999 44.7998L25.3999 50.5998Z" fill="url(#paint16_linear)"/>
<path d="M13.2 0L42.4 16.1L35.5 16.9L28 17.6L13.2 0Z" fill="url(#paint17_linear)"/>
<path d="M42 15.9001L23.3 5.6001L19 7.0001L28 17.6001L35.5 16.9001L42.1 16.2001L42 15.9001Z" fill="url(#paint18_linear)"/>
<path d="M39.5 16.4001L42.4 16.1001L39.7 14.6001L39.5 16.4001Z" fill="url(#paint19_linear)"/>
<path d="M64 43.3001L42.4 16.1001L35.5 16.9001L28 17.6001L64 43.3001Z" fill="url(#paint20_linear)"/>
<path d="M38.6001 25.2001L48.3001 32.1001L52.0001 28.2001L42.4001 16.1001L39.5001 16.4001L38.6001 25.2001Z" fill="url(#paint21_linear)"/>
<path d="M46.2 30.5998L64 43.2998L47.2999 22.2998L46.2 30.5998Z" fill="url(#paint22_linear)"/>
<path d="M64 43.3001L43.3 51.3001L36.5 44.9001L28 17.6001L64 43.3001Z" fill="url(#paint23_linear)"/>
<path d="M38.6 25.2002L36.5 44.9002L48.3 32.1002L38.6 25.2002Z" fill="url(#paint24_linear)"/>
<path d="M43.3 51.3001L64 43.3001L46.2001 30.6001L43.3 51.3001Z" fill="url(#paint25_linear)"/>
<path d="M36.6001 44.7001L36.7001 44.8001L45.5001 35.2001L46.2001 30.6001L37.8001 32.5001L36.6001 44.7001Z" fill="url(#paint26_linear)"/>
<path d="M43.3 51.3001L36.5 44.9001L28 17.6001L43.3 51.3001Z" fill="url(#paint27_linear)"/>
<path d="M36.5 44.9L43.3 51.3L37.2 38L36.5 44.9Z" fill="url(#paint28_linear)"/>
<path d="M41.2 0L36.5 44.9L45.5 35.2L48.8 11.6L41.2 0Z" fill="url(#paint29_linear)"/>
<path d="M64 15.2L48.7999 11.6L41.2 0L64 15.2Z" fill="url(#paint30_linear)"/>
<path d="M52 12H12V52H52V12Z" fill="url(#paint31_linear)"/>
<g opacity="0.3">
<path opacity="0.3" d="M12 44.2L15.05 52H21.85L44.15 39.95L41.9 12H12V44.2Z" fill="url(#paint32_linear)"/>
<path opacity="0.3" d="M39.6 12L36.25 44.5L45.25 34.8L48.4 12H39.6Z" fill="url(#paint33_linear)"/>
<path opacity="0.3" d="M52 12.05L51.7 12H48.4L43 50.95L52 47.45V12.05Z" fill="url(#paint34_linear)"/>
<path opacity="0.3" d="M52 34.55L27.7 17.25L36.25 44.5L43 50.95L52 47.45V34.55Z" fill="url(#paint35_linear)"/>
<path opacity="0.3" d="M12 52H34.5L42.15 15.75L35.35 12H12V52Z" fill="url(#paint36_linear)"/>
<path opacity="0.3" d="M12 43.35L19.8 39.95L27.7 17.25L23.3 12H12V43.35Z" fill="url(#paint37_linear)"/>
<path opacity="0.3" d="M27.7 17.25L35.25 16.45L42.15 15.75L41.75 15.55L36.35 12.55L35.35 12H23.3L27.7 17.25Z" fill="url(#paint38_linear)"/>
</g>
<path d="M32 44.4502H17V46.9502H32V44.4502Z" fill="white"/>
<path d="M17 17.001H22.8345C27.5625 17.001 30.8821 20.22 30.8821 24.445C30.8821 28.67 27.5625 31.9896 22.8345 31.9896H17V17.001ZM20.3196 20.0188V29.0724H22.8345C25.5506 29.0724 27.3613 27.2616 27.3613 24.5456C27.3613 21.8295 25.5506 20.0188 22.8345 20.0188H20.3196Z" fill="white"/>
<path d="M32.0891 29.9777L34.101 27.5634C35.5093 28.67 36.9177 29.3742 38.6278 29.3742C40.0361 29.3742 40.8409 28.8712 40.8409 27.9658C40.8409 27.1611 40.3379 26.6581 37.823 26.0545C34.8052 25.2498 32.7933 24.445 32.7933 21.4272C32.7933 18.7111 35.0064 16.7998 38.1248 16.7998C40.3379 16.7998 42.2492 17.504 43.7581 18.7111L42.048 21.226C40.7403 20.3206 39.3319 19.7171 38.1248 19.7171C36.8171 19.7171 36.2135 20.3206 36.2135 21.0248C36.2135 22.0307 36.8171 22.3325 39.5331 23.0367C42.6516 23.8414 44.3617 24.948 44.3617 27.5634C44.3617 30.5813 42.048 32.2914 38.829 32.2914C36.2135 32.392 33.8998 31.5872 32.0891 29.9777Z" fill="white"/>
<defs>
<linearGradient id="paint0_linear" x1="49.727" y1="27.7225" x2="5.2827" y2="27.7225" gradientUnits="userSpaceOnUse">
<stop offset="0.0782105" stop-color="#21D789"/>
<stop offset="0.8726" stop-color="#FCF84A"/>
</linearGradient>
<linearGradient id="paint1_linear" x1="16.2104" y1="28.1752" x2="9.8675" y2="32.9751" gradientUnits="userSpaceOnUse">
<stop offset="0.0782105" stop-color="white"/>
<stop offset="0.8726" stop-color="#FCF84A"/>
</linearGradient>
<linearGradient id="paint2_linear" x1="33.1877" y1="9.2209" x2="39.6242" y2="-0.152201" gradientUnits="userSpaceOnUse">
<stop offset="0.095296" stop-color="#BBF8AF" stop-opacity="0"/>
<stop offset="1" stop-color="#21FF79"/>
</linearGradient>
<linearGradient id="paint3_linear" x1="49.1567" y1="18.4761" x2="49.1567" y2="71.421" gradientUnits="userSpaceOnUse">
<stop  offset="0" stop-color="#21D789"/>
<stop offset="1" stop-color="#087CFA"/>
</linearGradient>
<linearGradient id="paint4_linear" x1="69.468" y1="39.9763" x2="31.5395" y2="23.9049" gradientUnits="userSpaceOnUse">
<stop offset="0.0202374" stop-color="#21D789" stop-opacity="0"/>
<stop offset="1" stop-color="#00FF6A"/>
</linearGradient>
<linearGradient id="paint5_linear" x1="84.2411" y1="67.2158" x2="21.0946" y2="16.131" gradientUnits="userSpaceOnUse">
<stop offset="0.1049" stop-color="#21D789"/>
<stop offset="0.9668" stop-color="#087CFA"/>
</linearGradient>
<linearGradient id="paint6_linear" x1="55.3331" y1="-4.9262" x2="11.2222" y2="45.0665" gradientUnits="userSpaceOnUse">
<stop offset="0.2348" stop-color="#21D789"/>
<stop offset="0.7396" stop-color="#087CFA"/>
</linearGradient>
<linearGradient id="paint7_linear" x1="-0.461798" y1="13.2262" x2="24.6524" y2="32.169" gradientUnits="userSpaceOnUse">
<stop offset="0.0782105" stop-color="#21D789"/>
<stop offset="0.8283" stop-color="#087CFA" stop-opacity="0"/>
</linearGradient>
<linearGradient id="paint8_linear" x1="40.1517" y1="16.5244" x2="41.0705" y2="15.3683" gradientUnits="userSpaceOnUse">
<stop offset="0.0782105" stop-color="#21D789" stop-opacity="0"/>
<stop offset="0.8726" stop-color="#01D0FF"/>
</linearGradient>
<linearGradient id="paint9_linear" x1="8.7498" y1="30.0909" x2="25.4611" y2="9.0614" gradientUnits="userSpaceOnUse">
<stop offset="0.3826" stop-color="#087CFA" stop-opacity="0"/>
<stop offset="1" stop-color="#01EFDB"/>
</linearGradient>
<linearGradient id="paint10_linear" x1="18.0063" y1="60.3357" x2="21.2341" y2="56.2737" gradientUnits="userSpaceOnUse">
<stop offset="0.0782105" stop-color="#21D789" stop-opacity="0"/>
<stop offset="0.8726" stop-color="#01D0FF"/>
</linearGradient>
<linearGradient id="paint11_linear" x1="15.1782" y1="19.4402" x2="14.8354" y2="31.5259" gradientUnits="userSpaceOnUse">
<stop offset="0.0782105" stop-color="#21D789"/>
<stop offset="0.8283" stop-color="#087CFA" stop-opacity="0"/>
</linearGradient>
<linearGradient id="paint12_linear" x1="38.5193" y1="28.1168" x2="9.71929" y2="65.0596" gradientUnits="userSpaceOnUse">
<stop offset="0.2348" stop-color="#083FFA"/>
<stop offset="0.7396" stop-color="#087CFA"/>
</linearGradient>
<linearGradient id="paint13_linear" x1="16.8468" y1="3.5218" x2="44.8753" y2="53.4074" gradientUnits="userSpaceOnUse">
<stop offset="0.2458" stop-color="#083FFA"/>
<stop offset="0.9131" stop-color="#087CFA"/>
</linearGradient>
<linearGradient id="paint14_linear" x1="16.931" y1="45.5604" x2="31.3218" y2="59.9512" gradientUnits="userSpaceOnUse">
<stop offset="0.2348" stop-color="#089FFF"/>
<stop offset="0.7396" stop-color="#087CFA" stop-opacity="0"/>
</linearGradient>
<linearGradient id="paint15_linear" x1="26.2115" y1="56.5247" x2="16.7044" y2="46.1611" gradientUnits="userSpaceOnUse">
<stop offset="0.1526" stop-color="#0832FF"/>
<stop offset="0.9138" stop-color="#087CFA" stop-opacity="0"/>
</linearGradient>
<linearGradient id="paint16_linear" x1="39.7671" y1="60.9074" x2="28.1979" y2="47.2154" gradientUnits="userSpaceOnUse">
<stop offset="0.1526" stop-color="#0832FF"/>
<stop offset="0.9138" stop-color="#087CFA" stop-opacity="0"/>
</linearGradient>
<linearGradient id="paint17_linear" x1="27.528" y1="-14.3507" x2="27.9338" y2="19.7329" gradientUnits="userSpaceOnUse">
<stop offset="0.2348" stop-color="#21D789"/>
<stop offset="0.8246" stop-color="#087CFA"/>
</linearGradient>
<linearGradient id="paint18_linear" x1="30.3738" y1="10.0041" x2="29.4971" y2="1.8946" gradientUnits="userSpaceOnUse">
<stop offset="0.095296" stop-color="#BBF8AF" stop-opacity="0"/>
<stop offset="1" stop-color="#21FF79"/>
</linearGradient>
<linearGradient id="paint19_linear" x1="41.8314" y1="17.3166" x2="39.0305" y2="14.0639" gradientUnits="userSpaceOnUse">
<stop  offset="0" stop-color="#21D789" stop-opacity="0"/>
<stop offset="0.9185" stop-color="#21D789"/>
</linearGradient>
<linearGradient id="paint20_linear" x1="57.1468" y1="47.1884" x2="35.715" y2="15.0407" gradientUnits="userSpaceOnUse">
<stop offset="0.027928" stop-color="#21D789"/>
<stop offset="0.9294" stop-color="#0860FA"/>
</linearGradient>
<linearGradient id="paint21_linear" x1="45.7531" y1="30.1517" x2="43.3103" y2="12.1518" gradientUnits="userSpaceOnUse">
<stop offset="0.0757413" stop-color="#087CFA" stop-opacity="0"/>
<stop offset="1" stop-color="#21D789" stop-opacity="0.6"/>
</linearGradient>
<linearGradient id="paint22_linear" x1="52.0768" y1="32.7816" x2="40.2483" y2="16.453" gradientUnits="userSpaceOnUse">
<stop offset="0.0757413" stop-color="#087CFA" stop-opacity="0"/>
<stop offset="1" stop-color="#4F46C6" stop-opacity="0.6"/>
</linearGradient>
<linearGradient id="paint23_linear" x1="53.8147" y1="49.4098" x2="32.3829" y2="17.2621" gradientUnits="userSpaceOnUse">
<stop  offset="0" stop-color="#18AFAF"/>
<stop offset="0.6591" stop-color="#0860FA"/>
<stop offset="0.9983" stop-color="#084CFA"/>
</linearGradient>
<linearGradient id="paint24_linear" x1="43.6022" y1="40.3684" x2="35.1165" y2="26.8684" gradientUnits="userSpaceOnUse">
<stop offset="0.0757413" stop-color="#087CFA" stop-opacity="0"/>
<stop offset="1" stop-color="#21D789" stop-opacity="0.6"/>
</linearGradient>
<linearGradient id="paint25_linear" x1="53.5041" y1="47.1806" x2="39.9607" y2="34.554" gradientUnits="userSpaceOnUse">
<stop offset="0.0757413" stop-color="#087CFA" stop-opacity="0"/>
<stop offset="1" stop-color="#21D789" stop-opacity="0.6"/>
</linearGradient>
<linearGradient id="paint26_linear" x1="40.0169" y1="36.3714" x2="35.3348" y2="32.0063" gradientUnits="userSpaceOnUse">
<stop  offset="0" stop-color="#087CFA" stop-opacity="0"/>
<stop offset="0.8547" stop-color="#0841FA"/>
</linearGradient>
<linearGradient id="paint27_linear" x1="44.6324" y1="49.825" x2="25.6975" y2="21.4227" gradientUnits="userSpaceOnUse">
<stop  offset="0" stop-color="#089CFA"/>
<stop offset="0.7396" stop-color="#083CFA"/>
</linearGradient>
<linearGradient id="paint28_linear" x1="43.2912" y1="51.072" x2="35.8184" y2="39.8627" gradientUnits="userSpaceOnUse">
<stop  offset="0" stop-color="#087CFA" stop-opacity="0"/>
<stop offset="0.9787" stop-color="#0860FA"/>
</linearGradient>
<linearGradient id="paint29_linear" x1="42.7051" y1="20.5031" x2="45.7051" y2="6.7888" gradientUnits="userSpaceOnUse">
<stop offset="0.3551" stop-color="#BBF8AF" stop-opacity="0"/>
<stop offset="1" stop-color="#21FF79"/>
</linearGradient>
<linearGradient id="paint30_linear" x1="39.7653" y1="0.9064" x2="57.4224" y2="14.1921" gradientUnits="userSpaceOnUse">
<stop offset="0.0202374" stop-color="#BBF8AF" stop-opacity="0"/>
<stop offset="1" stop-color="#21FF79"/>
</linearGradient>
<linearGradient id="paint31_linear" x1="12.3364" y1="12.3364" x2="53.3664" y2="53.3664" gradientUnits="userSpaceOnUse">
<stop offset="0.0284813" stop-color="#002846"/>
<stop offset="0.1369" stop-color="#002038"/>
<stop offset="0.4947" stop-color="#000910"/>
<stop offset="0.6795"/>
</linearGradient>
<linearGradient id="paint32_linear" x1="8.1777" y1="32" x2="40.3334" y2="32" gradientUnits="userSpaceOnUse">
<stop offset="0.0782105" stop-color="#21D789"/>
<stop offset="0.8726" stop-color="#FCF84A"/>
</linearGradient>
<linearGradient id="paint33_linear" x1="42.8253" y1="41.9366" x2="41.6443" y2="9.17915" gradientUnits="userSpaceOnUse">
<stop  offset="0" stop-color="#218640"/>
<stop offset="0.8027" stop-color="#B5FA59"/>
</linearGradient>
<linearGradient id="paint34_linear" x1="46.8017" y1="14.3477" x2="48.5637" y2="58.3978" gradientUnits="userSpaceOnUse">
<stop offset="0.2348" stop-color="#21D789"/>
<stop offset="1" stop-color="#083450"/>
</linearGradient>
<linearGradient id="paint35_linear" x1="49.9087" y1="48.2098" x2="29.8872" y2="18.1775" gradientUnits="userSpaceOnUse">
<stop  offset="0" stop-color="#021A43"/>
<stop offset="0.6591" stop-color="#0860FA"/>
</linearGradient>
<linearGradient id="paint36_linear" x1="24.7139" y1="-0.0475" x2="28.605" y2="56.043" gradientUnits="userSpaceOnUse">
<stop offset="0.2348" stop-color="#21D789"/>
<stop offset="0.7396" stop-color="#083450"/>
</linearGradient>
<linearGradient id="paint37_linear" x1="21.2457" y1="43.4041" x2="17.7951" y2="10.9538" gradientUnits="userSpaceOnUse">
<stop offset="0.2268" stop-color="#086C93"/>
<stop offset="0.8196" stop-color="#01EFDB"/>
</linearGradient>
<linearGradient id="paint38_linear" x1="24.7196" y1="12.5017" x2="44.427" y2="18.6603" gradientUnits="userSpaceOnUse">
<stop offset="0.2508" stop-color="#21D789"/>
<stop offset="0.8847" stop-color="#0C515A"/>
</linearGradient>
</defs>
</svg>
