<svg width="16" height="16" viewBox="0 0 16 16" fill="none" xmlns="http://www.w3.org/2000/svg">
<path fill-rule="evenodd" clip-rule="evenodd" d="M5 11V10C5 8.89543 4.10457 8 3 8C1.89543 8 1 8.89543 1 10V11C0.447715 11 0 11.4477 0 12V15C0 15.5523 0.447715 16 1 16H5C5.55228 16 6 15.5523 6 15V12C6 11.4477 5.55228 11 5 11ZM2 10C2 9.44772 2.44772 9 3 9C3.55228 9 4 9.44772 4 10V11H2V10ZM1 15L1 12H5V15H1Z" fill="#CED0D6"/>
<path d="M15.2239 6.49891C15.582 4.93587 15.2239 3.2012 13.1622 3.2012C11.5848 3.2012 10.623 3.78927 9.48454 4.76249C9.2871 3.89462 8.68348 3.23114 7.44874 3.20633C6.18391 3.13683 5.0774 3.66536 4.12791 4.41342C4.2273 3.95973 4.01505 3.48674 3.49928 3.38233C3.04549 3.29046 2.59944 3.56634 2.50299 3.99851L1.7749 7.26077C2.14899 7.09319 2.56365 7 3.00008 7C3.18487 7 3.36576 7.01671 3.54132 7.04869L3.73845 6.16652L3.73999 6.16422L3.74093 6.17093C4.45048 5.17597 5.7219 4.62955 6.65015 4.7291C7.42999 4.82551 7.96693 5.37585 7.70548 6.49494L6.71665 10.9731C6.89662 11.2732 7.00008 11.6245 7.00008 12V13.1042C7.01999 13.1107 7.04029 13.1165 7.06095 13.1215C7.07901 13.1264 7.09736 13.1307 7.11598 13.1344C7.56997 13.2253 8.01539 12.9485 8.11084 12.5161L9.52658 6.16652C10.8391 4.32608 14.074 4.02039 13.5035 6.49891L12.2524 12.1825C12.157 12.6149 12.4476 13.0391 12.9016 13.13C13.3556 13.2209 13.801 12.9441 13.8965 12.5117L15.2239 6.49891Z" fill="#548AF7"/>
<rect x="1" y="12" width="4" height="3" fill="#43454A"/>
</svg>
