<svg width="16" height="16" viewBox="0 0 16 16" fill="none" xmlns="http://www.w3.org/2000/svg">
<path d="M11.5618 10.1475C11.3665 10.3428 11.0499 10.3428 10.8547 10.1475C10.6594 9.95229 10.6594 9.6357 10.8547 9.44044L11.5322 8.76291C12.5519 7.74327 14.2078 7.74606 15.2309 8.76913C16.2539 9.7922 16.2567 11.4481 15.2371 12.4678L14.5596 13.1453C14.3643 13.3406 14.0477 13.3406 13.8525 13.1453C13.6572 12.9501 13.6572 12.6335 13.8525 12.4382L14.53 11.7607C15.1569 11.1338 15.1586 10.111 14.5238 9.47624C13.889 8.84144 12.8662 8.84315 12.2393 9.47001L11.5618 10.1475Z" fill="#6C707E"/>
<path d="M10.1476 10.8547C10.3428 11.0499 10.3428 11.3665 10.1476 11.5618L9.47001 12.2393C8.84315 12.8662 8.84144 13.889 9.47624 14.5238C10.111 15.1586 11.1338 15.1569 11.7607 14.53L12.4382 13.8524C12.6335 13.6572 12.9501 13.6572 13.1453 13.8524C13.3406 14.0477 13.3406 14.3643 13.1453 14.5595L12.4678 15.2371C11.4481 16.2567 9.7922 16.2539 8.76913 15.2309C7.74606 14.2078 7.74327 12.5519 8.76291 11.5322L9.44047 10.8547C9.63573 10.6594 9.95232 10.6594 10.1476 10.8547Z" fill="#6C707E"/>
<path d="M13.8536 10.8536C14.0488 10.6583 14.0488 10.3417 13.8536 10.1464C13.6583 9.95118 13.3417 9.95118 13.1464 10.1464L10.1464 13.1464C9.95118 13.3417 9.95118 13.6583 10.1464 13.8536C10.3417 14.0488 10.6583 14.0488 10.8536 13.8536L13.8536 10.8536Z" fill="#6C707E"/>
<path d="M15.2238 6.49891C15.582 4.93587 15.2238 3.2012 13.1621 3.2012C11.5848 3.2012 10.6229 3.78927 9.48446 4.76249C9.28702 3.89462 8.6834 3.23114 7.44866 3.20633C6.18382 3.13683 5.07731 3.66536 4.12783 4.41342C4.22722 3.95973 4.01496 3.48674 3.49919 3.38233C3.04541 3.29046 2.59936 3.56634 2.5029 3.99851L0.674778 12.1896C0.578324 12.6218 0.867995 13.0466 1.32178 13.1385C1.77556 13.2303 2.22161 12.9544 2.31807 12.5223L3.73837 6.16652L3.7399 6.16422L3.74084 6.17093C4.4504 5.17597 5.72182 4.62955 6.65007 4.7291C7.42991 4.82551 7.96685 5.37585 7.7054 6.49494L6.44951 12.1825C6.36044 12.586 6.60757 12.9823 7.00988 13.1074C7.07135 12.2756 7.41951 11.4614 8.0558 10.8251L8.61175 10.2692L9.52649 6.16652C10.839 4.32608 14.0739 4.02039 13.5034 6.49891L13.3931 7.00004C13.9539 7.00278 14.5143 7.1352 15.0256 7.39686L15.2238 6.49891Z" fill="#3574F0"/>
</svg>
