<svg width="16" height="16" viewBox="0 0 16 16" fill="none" xmlns="http://www.w3.org/2000/svg">
<path fill-rule="evenodd" clip-rule="evenodd" d="M5 11V10C5 8.89543 4.10457 8 3 8C1.89543 8 1 8.89543 1 10V11C0.447715 11 0 11.4477 0 12V15C0 15.5523 0.447715 16 1 16H5C5.55228 16 6 15.5523 6 15V12C6 11.4477 5.55228 11 5 11ZM2 10C2 9.44772 2.44772 9 3 9C3.55228 9 4 9.44772 4 10V11H2V10ZM1 15L1 12H5V15H1Z" fill="#6C707E"/>
<rect x="1" y="12" width="4" height="3" fill="#EBECF0"/>
<path d="M11.5618 10.1475C11.3665 10.3428 11.0499 10.3428 10.8547 10.1475C10.6594 9.95229 10.6594 9.6357 10.8547 9.44044L11.5322 8.76291C12.5519 7.74327 14.2078 7.74606 15.2309 8.76913C16.2539 9.7922 16.2567 11.4481 15.2371 12.4678L14.5596 13.1453C14.3643 13.3406 14.0477 13.3406 13.8525 13.1453C13.6572 12.9501 13.6572 12.6335 13.8525 12.4382L14.53 11.7607C15.1569 11.1338 15.1586 10.111 14.5238 9.47624C13.889 8.84144 12.8662 8.84315 12.2393 9.47001L11.5618 10.1475Z" fill="#6C707E"/>
<path d="M10.1476 10.8547C10.3428 11.0499 10.3428 11.3665 10.1476 11.5618L9.47001 12.2393C8.84315 12.8662 8.84144 13.889 9.47624 14.5238C10.111 15.1586 11.1338 15.1569 11.7607 14.53L12.4382 13.8524C12.6335 13.6572 12.9501 13.6572 13.1453 13.8524C13.3406 14.0477 13.3406 14.3643 13.1453 14.5595L12.4678 15.2371C11.4481 16.2567 9.7922 16.2539 8.76913 15.2309C7.74606 14.2078 7.74327 12.5519 8.76291 11.5322L9.44047 10.8547C9.63573 10.6594 9.95232 10.6594 10.1476 10.8547Z" fill="#6C707E"/>
<path d="M13.8536 10.8536C14.0488 10.6583 14.0488 10.3417 13.8536 10.1464C13.6583 9.95118 13.3417 9.95118 13.1464 10.1464L10.1464 13.1464C9.95118 13.3417 9.95118 13.6583 10.1464 13.8536C10.3417 14.0488 10.6583 14.0488 10.8536 13.8536L13.8536 10.8536Z" fill="#6C707E"/>
<path d="M15.2239 6.49891C15.582 4.93587 15.2239 3.2012 13.1622 3.2012C11.5848 3.2012 10.623 3.78927 9.48454 4.76249C9.2871 3.89462 8.68348 3.23114 7.44874 3.20633C6.18391 3.13683 5.0774 3.66536 4.12791 4.41342C4.2273 3.95973 4.01505 3.48674 3.49928 3.38233C3.04549 3.29046 2.59944 3.56634 2.50299 3.99851L1.7749 7.26077C2.14899 7.09319 2.56365 7 3.00008 7C3.18487 7 3.36576 7.01671 3.54132 7.04869L3.73845 6.16652L3.73999 6.16422L3.74093 6.17093C4.45048 5.17597 5.7219 4.62955 6.65015 4.7291C7.42999 4.82551 7.96693 5.37585 7.70548 6.49494L6.71665 10.9731L6.73252 11H7.89198C7.94429 10.9404 7.99889 10.882 8.0558 10.8251L8.61186 10.2691L9.52658 6.16652C10.8391 4.32608 14.074 4.02039 13.5035 6.49891L13.3931 7.00004C13.954 7.00279 14.5144 7.13522 15.0257 7.3969L15.2239 6.49891Z" fill="#3574F0"/>
</svg>
