<svg width="16" height="16" viewBox="0 0 16 16" fill="none" xmlns="http://www.w3.org/2000/svg">
<circle cx="7.5" cy="7.5" r="7.5" fill="#2B2D30"/>
<path fill-rule="evenodd" clip-rule="evenodd" d="M10.846 10.1024C11.0514 10.3077 11.0514 10.6406 10.846 10.846C10.6407 11.0513 10.3078 11.0513 10.1025 10.846L7.50003 8.24352L4.89756 10.846C4.69224 11.0513 4.35933 11.0513 4.154 10.846C3.94867 10.6406 3.94867 10.3077 4.154 10.1024L6.75646 7.49995L4.15398 4.89748C3.94866 4.69215 3.94866 4.35924 4.15398 4.15391C4.35931 3.94858 4.69222 3.94858 4.89755 4.15391L7.50003 6.75639L10.1025 4.15391C10.3078 3.94858 10.6407 3.94858 10.8461 4.15391C11.0514 4.35924 11.0514 4.69215 10.8461 4.89748L8.24359 7.49995L10.846 10.1024Z" fill="#6F737A"/>
</svg>
