<svg width="16" height="16" viewBox="0 0 16 16" fill="none" xmlns="http://www.w3.org/2000/svg">
<path d="M1.74023 4.89596C2.18339 3.9934 2.80953 3.23057 3.59863 2.59626C4.66793 1.73282 5.89447 1.21309 7.26966 1.05381C8.88507 0.866593 10.4033 1.16558 11.807 1.9871C12.1558 2.19109 12.4818 2.42302 12.7934 2.6745C12.8706 2.73598 12.8621 2.7723 12.7963 2.83378C12.1587 3.4541 11.5211 4.07444 10.8893 4.70036C10.815 4.77301 10.7749 4.76743 10.6949 4.70874C8.84216 3.31439 6.14035 3.69162 4.75942 5.53585C4.5164 5.85999 4.31912 6.20928 4.18188 6.5893C4.17045 6.62283 4.14758 6.65357 4.13042 6.6871C3.7616 6.41326 3.38992 6.13942 3.02396 5.86279C2.5951 5.54144 2.16624 5.2201 1.74023 4.89596Z" fill="#E94335"/>
<path d="M4.13328 9.30847C4.25622 9.57394 4.35915 9.85055 4.51354 10.0993C5.16255 11.1387 6.08889 11.8066 7.3097 12.0441C8.41046 12.2592 9.4683 12.1139 10.4547 11.5747C10.489 11.5579 10.5233 11.5411 10.5548 11.5244C10.5719 11.5411 10.5862 11.5607 10.6034 11.5747C11.341 12.1335 12.0815 12.6924 12.8191 13.2512C12.4646 13.5949 12.0615 13.8716 11.6326 14.1119C10.3889 14.8048 9.04233 15.0843 7.62424 14.9781C5.8573 14.844 4.33342 14.1621 3.07542 12.9327C2.52362 12.3934 2.06903 11.7842 1.74023 11.0885C2.04616 10.8593 2.35207 10.633 2.658 10.4038C3.14976 10.0378 3.64152 9.67456 4.13328 9.30847Z" fill="#34A853"/>
<path d="M12.8216 13.2509C12.0839 12.6921 11.3434 12.1332 10.6058 11.5744C10.5887 11.5604 10.5715 11.5408 10.5572 11.5241C10.8117 11.3312 11.0718 11.144 11.2805 10.8981C11.6294 10.4901 11.861 10.0291 11.9811 9.51216C11.9953 9.44788 11.9839 9.42554 11.9181 9.42834C11.8838 9.43114 11.8524 9.42834 11.8181 9.42834C10.6516 9.42834 9.48219 9.42554 8.31567 9.43114C8.18705 9.43114 8.15846 9.3976 8.16132 9.27743C8.16699 8.46709 8.16699 7.65674 8.16132 6.8464C8.16132 6.74303 8.18991 6.71509 8.29567 6.71509C10.4343 6.71788 12.5729 6.71788 14.7143 6.71509C14.8058 6.71509 14.843 6.73744 14.8658 6.83245C15.0402 7.60086 15.0288 8.37212 14.923 9.14893C14.8372 9.76923 14.6828 10.37 14.4455 10.9512C14.0939 11.8091 13.5764 12.558 12.896 13.2007C12.8702 13.2202 12.8444 13.2342 12.8216 13.2509Z" fill="#4285F3"/>
<path d="M4.13134 9.30854C3.63957 9.67463 3.14781 10.0379 2.65605 10.4039C2.35013 10.6303 2.04421 10.8594 1.73829 11.0885C1.50099 10.6582 1.3466 10.2027 1.2208 9.73331C0.980634 8.82514 0.943466 7.90303 1.07498 6.97813C1.17791 6.2516 1.39234 5.55303 1.73829 4.89917C2.16715 5.22051 2.59316 5.54465 3.02202 5.866C3.39083 6.14263 3.75966 6.41647 4.12848 6.69031C4.06558 6.98932 3.97695 7.28268 3.94836 7.59008C3.89689 8.1489 3.95122 8.69384 4.11418 9.23031C4.12562 9.25266 4.12848 9.2806 4.13134 9.30854Z" fill="#FABB06"/>
</svg>
