<?xml version="1.0" encoding="utf-8"?>
<!-- Generator: Adobe Illustrator 24.1.2, SVG Export Plug-In . SVG Version: 6.00 Build 0)  -->
<svg version="1.1" id="Layer_1" xmlns="http://www.w3.org/2000/svg" xmlns:xlink="http://www.w3.org/1999/xlink" x="0px" y="0px"
	 viewBox="0 0 16 16" style="enable-background:new 0 0 16 16;" xml:space="preserve">
<style type="text/css">
	.st0{fill-rule:evenodd;clip-rule:evenodd;fill:#9AA7B0;}
	.st1{fill:url(#SVGID_1_);}
</style>
<g>
	<polygon class="st0" points="14,15 14,16 10,16 10,15 8,15 8,14 10,14 10,13 8,13 8,12 10,12 10,11 8,11 8,10 10,10 10,9 14,9 
		14,10 16,10 16,11 14,11 14,12 16,12 16,13 14,13 14,14 16,14 16,15 	"/>
	
		<radialGradient id="SVGID_1_" cx="-33.7003" cy="109.2146" r="16.4772" gradientTransform="matrix(0.9733 0 0 -0.9733 47.3382 107.8764)" gradientUnits="userSpaceOnUse">
		<stop  offset="3.435144e-03" style="stop-color:#E44857"/>
		<stop  offset="0.4689" style="stop-color:#C711E1"/>
		<stop  offset="1" style="stop-color:#7F52FF"/>
	</radialGradient>
	<polygon class="st1" points="7,8.8 15,1 1,1 1,15 7,15 	"/>
</g>
</svg>
