<?xml version="1.0" encoding="utf-8"?>
<!-- Generator: Adobe Illustrator 24.1.2, SVG Export Plug-In . SVG Version: 6.00 Build 0)  -->
<svg version="1.1" id="Layer_1" xmlns="http://www.w3.org/2000/svg" xmlns:xlink="http://www.w3.org/1999/xlink" x="0px" y="0px"
	 viewBox="0 0 16 16" style="enable-background:new 0 0 16 16;" xml:space="preserve">
<style type="text/css">
	.st0{fill:url(#SVGID_1_);}
	.st1{fill-rule:evenodd;clip-rule:evenodd;fill:#F4AF3D;fill-opacity:0.7;}
	.st2{fill-rule:evenodd;clip-rule:evenodd;fill:#231F20;fill-opacity:0.7;}
</style>
<g>
	
		<radialGradient id="SVGID_1_" cx="-33.7003" cy="109.2146" r="16.4772" gradientTransform="matrix(0.9733 0 0 -0.9733 47.3382 107.8764)" gradientUnits="userSpaceOnUse">
		<stop  offset="3.435144e-03" style="stop-color:#E44857"/>
		<stop  offset="0.4689" style="stop-color:#C711E1"/>
		<stop  offset="1" style="stop-color:#7F52FF"/>
	</radialGradient>
	<polygon class="st0" points="8,7.8 15,1 1,1 1,15 6,15 6,7.8 	"/>
	<polygon class="st1" points="7,16 16,16 16,9 7,9 	"/>
	<path class="st2" d="M13,11.5c0-0.4,0.3-0.5,0.9-0.5c0,0,0.4,0,1.2,0v-1c-0.7,0-1.1,0-1.1,0c-1.1,0-1.9,0.5-1.9,1.4
		c0,0.9,0.4,1.2,1.5,1.5c0.8,0.2,1,0.3,1,0.6c0,0.3-0.4,0.5-1,0.5c0,0-0.4,0-1.2,0v1c0.8,0,1.2,0,1.2,0c2,0,2-1,2-1.5
		c0-0.6-0.5-1.1-1.3-1.4S13,11.9,13,11.5z"/>
	<path class="st2" d="M8.4,13.6C8.6,13.8,8.8,14,9.3,14c0.5,0,0.7-0.4,0.7-0.7V10h1v3.6c0,0.7-0.7,1.4-1.6,1.4
		c-0.8,0-1.3-0.2-1.6-0.7L8.4,13.6z"/>
</g>
</svg>
