<?xml version="1.0" encoding="utf-8"?>
<!-- Generator: Adobe Illustrator 24.1.2, SVG Export Plug-In . SVG Version: 6.00 Build 0)  -->
<svg version="1.2" baseProfile="tiny" id="Layer_1" xmlns="http://www.w3.org/2000/svg" xmlns:xlink="http://www.w3.org/1999/xlink"
	 x="0px" y="0px" viewBox="0 0 16 16" overflow="visible" xml:space="preserve">
<g>
	<path fill-rule="evenodd" fill="#9AA7B0" fill-opacity="0.8" d="M8,11.8999996C7.3000002,12,6.8000002,12.5,6.6999998,13.1999998
		c0,0.1000004-0.0999999,0.1999998-0.1999998,0.1999998h-1c-0.0999999,0-0.1999998-0.1000004-0.1999998-0.1999998
		c-0.0999999-0.8000002-0.6999998-1.3000002-1.5-1.3000002s-1.4000001,0.6000004-1.5,1.3000002
		c0,0.1000004-0.0999999,0.1999998-0.2,0.1999998H1c-0.1,0-0.2-0.1000004-0.2-0.1999998C0.2,10.1999998,1.3,7.7999997,3,6.5
		l0.9000001,1.6000004C4.1999998,8.5,4.5999999,8.6999998,5,8.6999998c0.1999998,0,0.4000001-0.1000004,0.5999999-0.1999998
		L6,8.3000002l0,0C6.5,8,7,7.5999999,7.5,7.1999998c0,0,0.0999999-0.0999999,0.0999999-0.1999998s0-0.0999999-0.0999999-0.1999998
		s-0.1999998-0.0999999-0.3000002,0c-0.4000001,0.4000001-0.9000001,0.6999998-1.4000001,1L5.4000001,8.1999998l0,0l0,0
		C5,8.3999996,4.5,8.3000002,4.3000002,7.9000001l-1-1.7000003C3.2,6,3.2,5.8000002,3.3,5.5999999
		c0.0999999-0.1999998,0.2-0.4000001,0.4000001-0.5c5.6999998-2.7,8.1000004,2.5,10,0.6999998
		c0.5-0.5,0.6000004-1.2999997,0.1000004-1.9000001c-0.5-0.5-1.3000002-0.5999999-1.8999996-0.2
		c-0.1000004,0.0999999-0.1999998,0.0999999-0.3000002,0l-0.3000002-0.3c0,0-0.1000004-0.0999999-0.1000004-0.2
		s0-0.0999999,0.1000004-0.2c0.8999996-0.9000001,2.4000006-0.8,3.3000002,0.0999999
		c0.6999998,0.7,1.6000004,2.5999999-0.5,4.8000002H8V11.8999996z M10.8000002,7.5L10.8000002,7.5
		C11,7.3000002,11,7.0999999,10.8999996,6.9000001s-0.3000002-0.3000002-0.5-0.3000002S10,6.7999997,10,7L10.8000002,7.5z"/>
</g>
<polygon fill="#7F52FF" points="16,16 9,16 9,9 16,9 12.5,12.5 "/>
</svg>
