<?xml version="1.0" encoding="utf-8"?>
<!-- Generator: Adobe Illustrator 24.1.2, SVG Export Plug-In . SVG Version: 6.00 Build 0)  -->
<svg version="1.2" baseProfile="tiny" id="Layer_1" xmlns="http://www.w3.org/2000/svg" xmlns:xlink="http://www.w3.org/1999/xlink"
	 x="0px" y="0px" viewBox="0 0 16 16" overflow="visible" xml:space="preserve">
<g>
	<path fill-rule="evenodd" fill="#F4AF3D" fill-opacity="0.6" d="M8,15c-3.9000001,0-7-3.1000004-7-7s3.0999999-7,7-7
		s7,3.0999999,7,7H8V15z"/>
	<path fill-rule="evenodd" fill="#231F20" fill-opacity="0.7" d="M11,8H9.8999996c0-1.0999999-0.8000002-2.0999999-2-2.0999999
		S6.0999999,6.9000001,6.0999999,8l0,0c0,1.1000004,0.8000002,2.1000004,1.9000001,2.1000004V11l0,0c-1.8000002,0-3-1.3999996-3-3
		l0,0c0-1.5999999,1.1999998-3,3-3S11,6.4000001,11,8L11,8z"/>
	<polygon fill="#7F52FF" points="16,16 9,16 9,9 16,9 12.3999996,12.3999996 	"/>
</g>
</svg>
