<!-- Copyright 2000-2024 JetBrains s.r.o. and contributors. Use of this source code is governed by the Apache 2.0 license. -->
<svg xmlns="http://www.w3.org/2000/svg" xmlns:xlink="http://www.w3.org/1999/xlink" width="40" height="40" viewBox="0 0 40 40">
  <defs>
    <polygon id="groovy-a" points=".001 0 40 0 40 22 .001 22"/>
  </defs>
  <g fill="none" fill-rule="evenodd" transform="translate(0 9)">
    <mask id="groovy-b" fill="#fff">
      <use xlink:href="#groovy-a"/>
    </mask>
    <path fill="#000" d="M2.7466,8.6426 C2.7426,8.6616 2.7386,8.6806 2.7356,8.6996 C2.8156,8.7466 2.8936,8.8006 2.9766,8.8386 C3.6086,9.1266 4.2386,9.4186 4.8746,9.6956 C5.2596,9.8626 5.6536,10.0026 6.0426,10.1596 C6.1666,10.2096 6.2406,10.2016 6.2806,10.0366 C6.3326,9.8266 6.4106,9.6246 6.4746,9.4186 C6.5476,9.1826 6.6166,8.9446 6.6966,8.6776 C5.3616,8.6716 4.0556,8.4966 2.7466,8.6426 M37.5176,8.7106 C37.5156,8.7006 37.5136,8.6886 37.5116,8.6786 C37.4866,8.6756 37.4626,8.6706 37.4376,8.6696 C36.3506,8.6646 35.2616,8.6526 34.1736,8.6616 C33.8216,8.6636 33.4686,8.7046 33.1196,8.7596 C32.8936,8.7946 32.8296,8.9316 32.8616,9.1826 C32.8896,9.3926 32.9146,9.6046 32.9546,9.8116 C33.0006,10.0506 33.0616,10.2856 33.1206,10.5376 C34.6056,9.9206 36.0606,9.3156 37.5176,8.7106 M16.9056,12.9106 C16.9116,12.9096 16.9186,12.9086 16.9246,12.9086 C16.8936,12.6506 16.8726,12.3916 16.8306,12.1366 C16.7776,11.8206 16.6946,11.7836 16.4326,11.9256 C16.0676,12.1216 15.7816,12.0636 15.5096,11.7286 C15.4366,11.6396 15.3716,11.5386 15.3156,11.4356 C15.0876,11.0096 15.0076,10.5326 14.9426,10.0516 C14.9216,9.8926 14.9966,9.8276 15.1466,9.8826 C15.3786,9.9686 15.6056,10.0676 15.8306,10.1726 C15.9556,10.2306 16.0726,10.2386 16.1896,10.1696 C16.6776,9.8826 17.0336,9.4636 17.2266,8.8836 C17.2446,8.8306 17.2526,8.7716 17.2566,8.7146 C17.2676,8.5296 17.2106,8.4376 17.0816,8.4216 C16.9586,8.4056 16.8666,8.4886 16.8436,8.6566 C16.8256,8.7856 16.7626,8.8466 16.6516,8.8706 C16.4586,8.9136 16.2586,8.8146 16.1456,8.6166 C16.0576,8.4576 16.0086,8.4396 15.8746,8.5556 C15.7676,8.6466 15.6806,8.7636 15.5796,8.8636 C15.4326,9.0096 15.2846,9.1546 15.1306,9.2906 C15.0136,9.3946 14.9006,9.3606 14.8256,9.2266 C14.7606,9.1106 14.7086,8.9836 14.6586,8.8566 C14.6266,8.7726 14.6126,8.6796 14.5856,8.5926 C14.5236,8.4026 14.4756,8.3916 14.3556,8.5496 C14.2656,8.6686 14.1796,8.7926 14.1026,8.9236 C13.9846,9.1276 14.0036,9.2366 14.1356,9.4246 C14.2246,9.5506 14.3146,9.6846 14.3666,9.8306 C14.6656,10.6776 14.9016,11.5456 14.9386,12.4596 C14.9706,13.2196 15.6566,13.7926 16.2746,13.7846 C16.7186,13.7786 16.8926,13.5756 16.9056,13.0836 C16.9076,13.0256 16.9056,12.9676 16.9056,12.9106 M29.0686,12.1406 C29.0346,11.5086 29.0086,10.9896 28.9776,10.4706 C28.9156,9.4196 28.3836,8.7406 27.5646,8.2986 C27.4366,8.2296 27.2876,8.1966 27.1446,8.1796 C26.7976,8.1376 26.5696,8.3976 26.6426,8.7496 C26.7086,9.0676 26.8566,9.3376 27.0796,9.5526 C27.1826,9.6506 27.3056,9.7256 27.4356,9.6476 C27.5666,9.5716 27.5566,9.4176 27.5466,9.2766 C27.5426,9.2136 27.5276,9.1516 27.5186,9.0896 C27.5076,9.0036 27.4866,8.9176 27.4876,8.8326 C27.4896,8.6846 27.5646,8.6376 27.6856,8.7006 C27.7276,8.7226 27.7666,8.7536 27.8026,8.7866 C28.1466,9.0996 28.3906,9.4906 28.5006,9.9696 C28.5886,10.3536 28.5836,10.7346 28.3836,11.0896 C28.1106,11.5736 27.2076,11.6596 26.9236,10.9646 C26.7606,10.5676 26.6426,10.1466 26.5076,9.7366 C26.3506,9.2666 26.1986,8.7956 26.0416,8.3266 C25.9886,8.1676 25.8796,8.1666 25.7606,8.2266 C25.5926,8.3106 25.5486,8.5006 25.6426,8.6936 C25.7106,8.8346 25.7796,8.9786 25.8256,9.1306 C25.9446,9.5236 26.0516,9.9226 26.1616,10.3186 C26.3796,11.0936 26.5826,11.8746 26.8196,12.6426 C26.9526,13.0696 27.1616,13.4616 27.4696,13.7716 C27.6906,13.9956 27.9456,14.1186 28.2416,13.9806 C28.6036,13.8116 28.8856,13.5296 28.9736,13.0946 C29.0436,12.7486 29.0466,12.3866 29.0686,12.1406 M17.8986,11.4426 C17.9066,11.5196 17.9156,11.6706 17.9366,11.8176 C18.0316,12.4646 18.4146,12.9466 18.9556,13.0786 C19.3556,13.1756 19.7366,13.0796 20.0796,12.8446 C20.9226,12.2656 21.3616,11.4116 21.4046,10.3196 C21.4306,9.6626 21.2666,9.0546 20.9146,8.5126 C20.4856,7.8526 19.4126,7.8116 18.9906,8.4206 C18.6566,8.9026 18.3876,9.4146 18.1856,9.9756 C18.0266,10.4236 17.9046,10.8826 17.8986,11.4426 M25.3896,10.6356 C25.3886,9.9656 25.1896,9.3546 24.8266,8.7906 C24.5276,8.3276 24.1366,8.0396 23.6266,7.9766 C22.8706,7.8846 22.4436,8.0966 22.1716,8.8356 C21.9596,9.4116 21.8226,10.0076 21.7566,10.6226 C21.6776,11.3656 21.8956,11.9796 22.4286,12.4426 C23.2096,13.1216 24.4956,13.1616 25.1286,11.8096 C25.3046,11.4336 25.3956,11.0356 25.3896,10.6356 M27.5886,17.7436 C27.7056,17.7686 27.8016,17.7886 27.8956,17.8086 C28.9016,18.0266 29.8866,17.9266 30.8486,17.5476 C31.8716,17.1456 32.5416,16.3816 32.7526,15.1726 C32.8836,14.4256 32.8706,13.6706 32.7436,12.9306 C32.5576,11.8436 32.3346,10.7626 32.1006,9.6866 C32.0046,9.2406 31.8506,8.8076 31.6996,8.3796 C31.6496,8.2396 31.5306,8.1226 31.4266,8.0156 C31.3886,7.9756 31.3016,7.9946 31.2366,7.9856 C31.2346,8.0556 31.2206,8.1276 31.2326,8.1936 C31.2486,8.2776 31.2856,8.3556 31.3146,8.4356 C31.5436,9.0676 31.7676,9.7026 31.8716,10.3776 C31.9236,10.7166 31.9546,11.0566 31.8256,11.3846 C31.6316,11.8826 31.1716,11.9826 30.8346,11.5936 C30.7336,11.4776 30.6346,11.3496 30.5756,11.2056 C30.3976,10.7766 30.2346,10.3406 30.0776,9.9026 C29.9126,9.4426 29.7666,8.9746 29.5976,8.5176 C29.5566,8.4076 29.4626,8.3116 29.3756,8.2346 C29.3356,8.1996 29.2396,8.1996 29.1906,8.2286 C29.1546,8.2506 29.1276,8.3496 29.1396,8.4036 C29.1686,8.5546 29.2056,8.7086 29.2676,8.8466 C29.6256,9.6506 29.7576,10.5226 29.8836,11.3936 C30.0016,12.2086 30.0896,13.0306 30.3256,13.8176 C30.3926,14.0366 30.4936,14.2556 30.6256,14.4326 C30.8666,14.7566 31.2156,14.7976 31.5176,14.5456 C31.6766,14.4136 31.8096,14.2356 31.9306,14.0576 C32.0406,13.8916 32.1136,13.6966 32.2116,13.5186 C32.2556,13.4406 32.3186,13.3756 32.3736,13.3046 C32.3916,13.3126 32.4076,13.3196 32.4256,13.3266 C32.4256,13.3966 32.4386,13.4716 32.4226,13.5376 C32.3406,13.8756 32.2706,14.2216 32.1586,14.5476 C31.8806,15.3566 31.3086,15.7436 30.5596,15.8406 C29.9456,15.9206 29.3606,15.7756 28.7876,15.5406 C28.5486,15.4446 28.4516,15.5136 28.4456,15.7936 C28.4336,16.3576 28.2376,16.8346 27.9266,17.2656 C27.8156,17.4176 27.7096,17.5726 27.5886,17.7436 M20.0126,1.1446 C19.9266,1.2806 19.8596,1.3756 19.8036,1.4776 C18.9936,2.9596 18.1816,4.4396 17.3796,5.9276 C17.1376,6.3766 16.9196,6.8426 16.7036,7.3076 C16.6086,7.5106 16.6716,7.5956 16.8786,7.5836 C16.9916,7.5786 17.1066,7.5476 17.2186,7.5596 C17.4346,7.5836 17.5986,7.7236 17.7416,7.8996 C17.8746,8.0606 17.9596,8.0766 18.1256,7.9616 C18.2696,7.8626 18.4096,7.7476 18.5386,7.6236 C18.9266,7.2456 19.3396,6.9776 19.8906,7.0886 C20.4116,7.1936 20.9316,7.2926 21.3586,7.6806 C21.4856,7.7956 21.6236,7.8136 21.7616,7.7156 C21.8846,7.6296 21.9996,7.5306 22.1176,7.4366 C22.3706,7.2366 22.6226,7.0426 22.9506,7.0096 C23.1886,6.9866 23.2106,6.9346 23.0876,6.7076 C22.1666,5.0106 21.2416,3.3166 20.3146,1.6226 C20.2296,1.4666 20.1256,1.3236 20.0126,1.1446 M12.3836,9.2976 C12.3926,9.3006 12.4036,9.3036 12.4146,9.3066 C12.4146,9.6336 12.4176,9.9606 12.4136,10.2876 C12.4046,11.0016 12.1076,11.5436 11.5986,11.9586 C11.1796,12.2986 10.7146,12.5476 10.2306,12.7456 C9.4796,13.0506 8.7216,13.3326 7.9646,13.6196 C7.8356,13.6676 7.7996,13.7356 7.8676,13.8716 C8.1776,14.4846 8.5386,15.0546 8.9696,15.5706 C9.0446,15.6606 9.1256,15.6856 9.2346,15.6536 C9.5866,15.5486 9.9416,15.4636 10.2926,15.3536 C11.0276,15.1216 11.7586,14.8736 12.4206,14.4316 C13.2056,13.9076 13.5706,13.1476 13.5056,12.1276 C13.4696,11.5526 13.3466,10.9996 13.1976,10.4516 C12.9716,9.6136 12.6536,8.8026 12.6096,7.9116 C12.6056,7.8466 12.5506,7.7846 12.5186,7.7216 C12.4616,7.7636 12.3916,7.7936 12.3496,7.8496 C12.2936,7.9236 12.2486,8.0126 12.2166,8.1026 C12.1366,8.3286 12.0576,8.5546 11.9936,8.7856 C11.7806,9.5716 11.4236,10.2586 10.8726,10.8126 C10.4586,11.2286 9.9936,11.5116 9.4086,11.4566 C9.0826,11.4256 8.7596,11.3836 8.5276,11.0886 C8.2836,10.7776 8.1186,10.4206 8.0546,10.0116 C7.9486,9.3496 8.0836,8.7246 8.3156,8.1206 C8.7196,7.0716 9.3546,6.2046 10.0746,5.4066 C10.3846,5.0626 10.7016,4.7246 11.1076,4.5206 C11.4816,4.3326 11.7126,4.4806 11.7696,4.9326 C11.7736,4.9666 11.7726,5.0006 11.7746,5.0356 C11.8006,5.5136 11.7446,5.9826 11.6456,6.4456 C11.4706,7.2706 11.2206,8.0646 10.7816,8.7676 C10.6746,8.9386 10.5296,9.0926 10.3776,9.2146 C10.2176,9.3426 10.0456,9.2706 9.9726,9.0666 C9.9306,8.9516 9.9066,8.8206 9.9036,8.6966 C9.8946,8.2836 9.9996,7.8986 10.1696,7.5336 C10.3236,7.2026 10.4026,6.8546 10.3476,6.4796 C10.3236,6.3236 10.2986,6.1536 10.1466,6.0966 C9.9866,6.0356 9.8776,6.1726 9.7926,6.2916 C9.1756,7.1586 8.8216,8.1296 8.8616,9.2506 C8.8696,9.4636 8.9596,9.6216 9.1216,9.7356 C9.5106,10.0096 9.9086,10.0006 10.3096,9.7846 C10.7036,9.5716 11.0056,9.2366 11.2586,8.8486 C11.9116,7.8476 12.2116,6.7136 12.2346,5.4896 C12.2416,5.1466 12.2066,4.7956 12.1406,4.4596 C12.0716,4.1126 11.8306,3.9816 11.5116,4.0166 C11.0966,4.0606 10.7856,4.3186 10.4896,4.6046 C9.5456,5.5216 8.7766,6.6066 8.0786,7.7566 C7.7436,8.3076 7.4296,8.8736 7.2346,9.5086 C6.9326,10.4966 7.4136,11.5766 8.3076,11.8896 C9.1906,12.1986 10.0146,12.0266 10.7726,11.4506 C11.3116,11.0406 11.7146,10.4926 12.0556,9.8816 C12.1646,9.6866 12.2736,9.4926 12.3836,9.2976 M30.8256,20.6436 L30.8786,20.5616 C30.5316,19.9806 30.1906,19.3956 29.8356,18.8226 C29.6646,18.5486 29.4026,18.5026 29.1216,18.5526 C29.0346,18.5686 28.9486,18.5896 28.8606,18.6046 C28.4516,18.6736 28.0436,18.7106 27.6516,18.5126 C27.0266,18.1966 26.9036,17.5546 27.3566,17.0006 C27.3676,16.9886 27.3796,16.9766 27.3886,16.9626 C27.5266,16.7676 27.6836,16.5856 27.8006,16.3756 C28.0016,16.0126 28.0276,15.6216 27.7836,15.2736 C27.6466,15.0776 27.4536,14.9266 27.2796,14.7656 C27.0846,14.5846 26.8696,14.4286 26.6836,14.2376 C26.3326,13.8756 26.1516,13.3906 25.9496,12.9226 C25.9176,12.8486 25.8816,12.7756 25.8456,12.6976 C25.5616,12.9056 25.3026,13.1076 25.0326,13.2916 C24.1426,13.9016 23.2286,13.9586 22.2986,13.4126 C22.0556,13.2696 21.8206,13.1076 21.5886,12.9446 C21.5096,12.8886 21.4566,12.8926 21.3816,12.9516 C21.1306,13.1476 20.8756,13.3376 20.6176,13.5226 C19.9956,13.9656 19.3236,14.0956 18.6066,13.8956 C18.3816,13.8326 18.1656,13.7316 17.9426,13.6556 C17.7856,13.6016 17.6976,13.6496 17.6896,13.8016 C17.6806,13.9956 17.5856,14.1236 17.4636,14.2376 C17.1536,14.5226 16.7836,14.6426 16.3926,14.7046 C15.8436,14.7926 15.3496,14.6576 14.9286,14.2496 C14.7056,14.0356 14.4996,13.7986 14.2786,13.5636 C14.2396,13.6156 14.2046,13.6576 14.1756,13.7036 C13.8166,14.2496 13.4066,14.7466 12.8936,15.1116 C12.2416,15.5756 11.7406,16.1956 11.3256,16.9006 C10.7316,17.9126 10.1656,18.9436 9.5926,19.9686 C9.4696,20.1876 9.3666,20.4186 9.2356,20.6836 C9.3386,20.6666 9.3996,20.6656 9.4566,20.6466 C9.6646,20.5736 9.8746,20.5046 10.0766,20.4156 C12.0396,19.5556 13.9986,18.6856 15.9636,17.8316 C17.1276,17.3256 18.3006,16.8426 19.4696,16.3516 C19.6866,16.2596 19.9166,16.2126 20.1426,16.2846 C20.6546,16.4456 21.1756,16.5886 21.6716,16.7996 C23.9876,17.7856 26.2966,18.7916 28.6086,19.7876 C29.2376,20.0576 29.8706,20.3176 30.5046,20.5746 C30.6046,20.6166 30.7186,20.6216 30.8256,20.6436 M40.0006,8.2606 C39.7966,8.3586 39.5976,8.4656 39.3906,8.5536 C37.5126,9.3516 35.6326,10.1466 33.7536,10.9436 C33.7006,10.9656 33.6466,10.9896 33.5946,11.0126 C33.2806,11.1486 33.2816,11.1486 33.3376,11.5246 C33.4336,12.1736 33.5456,12.8216 33.6196,13.4736 C33.7436,14.5736 33.6506,15.6396 33.0706,16.5836 C32.5776,17.3846 31.9326,17.9876 31.0976,18.3216 C30.9046,18.3986 30.7216,18.5046 30.5236,18.6026 C31.0676,19.7786 31.8196,20.7756 32.2836,21.9546 C32.2696,21.9696 32.2576,21.9846 32.2436,21.9996 C31.9966,21.9036 31.7466,21.8136 31.5016,21.7076 C29.4806,20.8396 27.4616,19.9676 25.4406,19.0986 C23.8176,18.3996 22.1916,17.7076 20.5716,17.0006 C20.2276,16.8506 19.9116,16.8506 19.5646,16.9986 C17.7866,17.7636 16.0016,18.5066 14.2226,19.2696 C12.2636,20.1096 10.3086,20.9616 8.3526,21.8066 C8.2316,21.8596 8.1066,21.9016 7.9816,21.9376 C7.9216,21.9556 7.8536,21.9466 7.7566,21.9516 C7.8086,21.8336 7.8396,21.7496 7.8816,21.6736 C8.4636,20.6206 9.0576,19.5736 9.6286,18.5116 C9.9806,17.8586 10.3006,17.1836 10.6326,16.5166 C10.6676,16.4466 10.6876,16.3676 10.7116,16.2906 C10.7196,16.2656 10.7166,16.2356 10.7216,16.1586 C10.5416,16.1866 10.3736,16.1976 10.2126,16.2426 C9.8806,16.3356 9.5556,16.4576 9.2226,16.5476 C8.9246,16.6286 8.6526,16.5446 8.4306,16.3056 C8.3176,16.1856 8.2036,16.0616 8.1176,15.9186 C7.7926,15.3826 7.4756,14.8386 7.1616,14.2936 C7.1026,14.1936 7.0636,14.0786 7.0236,13.9646 C6.9356,13.7186 6.9646,13.4896 7.1176,13.2836 C7.1896,13.1846 7.2656,13.0886 7.3376,12.9896 C7.5056,12.7606 7.5076,12.6366 7.3296,12.4116 C7.1416,12.1716 6.9366,11.9466 6.7546,11.7026 C6.6596,11.5756 6.6056,11.4126 6.5166,11.2816 C6.4556,11.1936 6.3726,11.1106 6.2826,11.0646 C5.7826,10.8086 5.2856,10.5406 4.7716,10.3216 C3.4676,9.7646 2.1536,9.2336 0.8466,8.6866 C0.5596,8.5676 0.2816,8.4286 0.0006,8.2976 C0.0026,8.2786 0.0046,8.2586 0.0076,8.2386 C0.1146,8.2276 0.2236,8.2066 0.3316,8.2076 C1.9316,8.2226 3.5306,8.2376 5.1316,8.2566 C5.6466,8.2636 6.1636,8.2756 6.6796,8.2946 C6.7866,8.2986 6.8226,8.2286 6.8666,8.1496 C7.3836,7.2166 7.9546,6.3286 8.6096,5.5076 C9.2406,4.7176 9.9016,3.9616 10.7176,3.4026 C11.4616,2.8926 11.7116,2.9116 12.4606,3.4916 C12.8056,3.7576 12.9546,4.1406 12.9906,4.5826 C13.0416,5.2106 13.0696,5.8406 13.1216,6.4676 C13.1616,6.9566 13.2176,7.4436 13.2766,7.9306 C13.3046,8.1426 13.3706,8.1786 13.5436,8.0896 C13.6426,8.0396 13.7416,7.9786 13.8186,7.8966 C14.1356,7.5626 14.5046,7.4756 14.9176,7.5896 C15.3556,7.7096 15.6936,7.5696 15.9346,7.1416 C16.5596,6.0346 17.2296,4.9566 17.7956,3.8146 C18.4056,2.5816 19.1056,1.4136 19.7606,0.2136 C19.9056,-0.0534 20.0216,-0.0744 20.1856,0.1746 C20.4906,0.6346 20.7756,1.1116 21.0506,1.5956 C21.8496,3.0026 22.6286,4.4236 23.4356,5.8256 C23.7606,6.3906 24.1306,6.9256 24.6006,7.3586 C24.7036,7.4526 24.8236,7.5356 24.9476,7.5836 C25.0376,7.6196 25.1726,7.6306 25.2456,7.5806 C25.5146,7.3946 25.8086,7.3466 26.1106,7.3206 C26.6676,7.2736 27.2256,7.2646 27.7736,7.4066 C27.9036,7.4406 28.0296,7.5006 28.1516,7.5616 C28.3666,7.6696 28.5586,7.6716 28.7406,7.4776 C29.0606,7.1336 29.9406,7.1816 30.1366,7.7186 C30.2056,7.9096 30.2926,7.9086 30.4176,7.7506 C30.8546,7.2016 31.4166,7.1966 31.9996,7.3096 C32.1936,7.3476 32.3266,7.5076 32.4146,7.7006 C32.4986,7.8866 32.5796,8.0746 32.6506,8.2666 C32.6906,8.3726 32.7406,8.4056 32.8496,8.4016 C34.6246,8.3316 36.4006,8.2636 38.1776,8.2066 C38.7396,8.1876 39.3036,8.2036 39.8656,8.2036 C39.9056,8.2036 39.9456,8.2096 39.9866,8.2126 C39.9906,8.2286 39.9956,8.2446 40.0006,8.2606" mask="url(#groovy-b)"/>
    <path fill="#6398AA" d="M30.8257,20.6436 C30.7187,20.6216 30.6047,20.6166 30.5047,20.5746 C29.8707,20.3176 29.2377,20.0576 28.6087,19.7876 C26.2967,18.7916 23.9877,17.7856 21.6717,16.7996 C21.1757,16.5886 20.6547,16.4456 20.1417,16.2846 C19.9167,16.2126 19.6867,16.2596 19.4697,16.3516 C18.3007,16.8426 17.1277,17.3256 15.9637,17.8316 C13.9987,18.6856 12.0397,19.5556 10.0767,20.4156 C9.8747,20.5046 9.6647,20.5736 9.4567,20.6466 C9.3997,20.6656 9.3387,20.6666 9.2357,20.6836 C9.3667,20.4186 9.4697,20.1876 9.5927,19.9686 C10.1657,18.9436 10.7317,17.9126 11.3257,16.9006 C11.7407,16.1956 12.2417,15.5756 12.8937,15.1116 C13.4067,14.7476 13.8167,14.2496 14.1757,13.7036 C14.2047,13.6576 14.2397,13.6156 14.2787,13.5636 C14.4997,13.7986 14.7057,14.0356 14.9287,14.2496 C15.3487,14.6576 15.8437,14.7926 16.3927,14.7056 C16.7837,14.6426 17.1537,14.5226 17.4637,14.2376 C17.5857,14.1236 17.6797,13.9956 17.6897,13.8016 C17.6977,13.6496 17.7857,13.6016 17.9427,13.6556 C18.1657,13.7316 18.3817,13.8326 18.6067,13.8956 C19.3237,14.0956 19.9957,13.9656 20.6177,13.5226 C20.8757,13.3376 21.1307,13.1476 21.3817,12.9516 C21.4567,12.8926 21.5097,12.8886 21.5887,12.9446 C21.8207,13.1076 22.0547,13.2696 22.2987,13.4126 C23.2287,13.9586 24.1427,13.9016 25.0327,13.2916 C25.3027,13.1076 25.5617,12.9056 25.8457,12.6976 C25.8817,12.7756 25.9177,12.8486 25.9497,12.9226 C26.1517,13.3906 26.3327,13.8756 26.6837,14.2376 C26.8697,14.4286 27.0847,14.5846 27.2797,14.7656 C27.4537,14.9266 27.6467,15.0776 27.7837,15.2736 C28.0277,15.6226 28.0017,16.0126 27.8007,16.3756 C27.6837,16.5856 27.5267,16.7676 27.3877,16.9626 C27.3797,16.9766 27.3677,16.9886 27.3567,17.0006 C26.9037,17.5546 27.0267,18.1966 27.6517,18.5126 C28.0437,18.7106 28.4517,18.6736 28.8607,18.6046 C28.9487,18.5896 29.0347,18.5686 29.1217,18.5526 C29.4027,18.5026 29.6647,18.5486 29.8357,18.8226 C30.1907,19.3956 30.5317,19.9806 30.8787,20.5616 L30.8257,20.6436 Z"/>
    <path fill="#FFF" d="M12.3833,9.2979 C12.2743,9.4929 12.1643,9.6869 12.0553,9.8819 C11.7143,10.4919 11.3123,11.0409 10.7733,11.4499 C10.0143,12.0269 9.1913,12.1979 8.3073,11.8889 C7.4133,11.5769 6.9323,10.4969 7.2353,9.5079 C7.4293,8.8739 7.7433,8.3079 8.0783,7.7559 C8.7773,6.6069 9.5453,5.5219 10.4893,4.6049 C10.7853,4.3189 11.0963,4.0609 11.5113,4.0159 C11.8303,3.9819 12.0713,4.1129 12.1403,4.4599 C12.2063,4.7959 12.2413,5.1469 12.2353,5.4889 C12.2113,6.7139 11.9113,7.8469 11.2583,8.8489 C11.0053,9.2369 10.7033,9.5709 10.3103,9.7839 C9.9083,10.0009 9.5103,10.0099 9.1213,9.7349 C8.9593,9.6219 8.8693,9.4639 8.8623,9.2509 C8.8213,8.1299 9.1753,7.1579 9.7923,6.2919 C9.8773,6.1729 9.9873,6.0359 10.1473,6.0959 C10.2983,6.1529 10.3233,6.3239 10.3473,6.4799 C10.4033,6.8549 10.3233,7.2029 10.1693,7.5339 C9.9993,7.8989 9.8953,8.2829 9.9043,8.6959 C9.9063,8.8209 9.9303,8.9509 9.9723,9.0669 C10.0453,9.2709 10.2173,9.3429 10.3773,9.2149 C10.5293,9.0919 10.6743,8.9389 10.7813,8.7679 C11.2203,8.0649 11.4703,7.2709 11.6463,6.4449 C11.7443,5.9829 11.8003,5.5129 11.7753,5.0359 C11.7733,5.0009 11.7743,4.9659 11.7703,4.9319 C11.7123,4.4809 11.4823,4.3329 11.1083,4.5209 C10.7013,4.7249 10.3843,5.0629 10.0743,5.4059 C9.3553,6.2039 8.7193,7.0709 8.3163,8.1209 C8.0833,8.7249 7.9483,9.3499 8.0543,10.0119 C8.1183,10.4209 8.2833,10.7779 8.5283,11.0889 C8.7593,11.3839 9.0823,11.4259 9.4083,11.4569 C9.9933,11.5119 10.4583,11.2289 10.8723,10.8129 C11.4233,10.2589 11.7803,9.5719 11.9933,8.7859 C12.0573,8.5539 12.1363,8.3279 12.2163,8.1029 C12.2483,8.0129 12.2933,7.9229 12.3493,7.8499 C12.3913,7.7939 12.4613,7.7629 12.5193,7.7219 C12.5503,7.7849 12.6063,7.8469 12.6103,7.9119 C12.6543,8.8019 12.9713,9.6139 13.1973,10.4519 C13.3463,10.9999 13.4693,11.5519 13.5053,12.1279 C13.5703,13.1479 13.2053,13.9069 12.4203,14.4319 C11.7583,14.8739 11.0283,15.1219 10.2923,15.3539 C9.9423,15.4639 9.5863,15.5489 9.2353,15.6529 C9.1253,15.6859 9.0443,15.6599 8.9693,15.5699 C8.5383,15.0549 8.1773,14.4849 7.8673,13.8709 C7.7993,13.7349 7.8353,13.6679 7.9643,13.6189 C8.7213,13.3329 9.4803,13.0509 10.2313,12.7449 C10.7143,12.5479 11.1793,12.2989 11.5983,11.9589 C12.1083,11.5439 12.4043,11.0019 12.4133,10.2879 C12.4173,9.9609 12.4143,9.6329 12.4143,9.3059 C12.4043,9.3029 12.3933,9.3009 12.3833,9.2979"/>
    <path fill="#6398AA" d="M20.0122,1.145 C20.1252,1.323 20.2302,1.467 20.3152,1.623 C21.2412,3.316 22.1662,5.01 23.0872,6.707 C23.2102,6.934 23.1892,6.986 22.9502,7.01 C22.6222,7.043 22.3702,7.236 22.1172,7.437 C21.9992,7.53 21.8842,7.629 21.7612,7.716 C21.6232,7.814 21.4862,7.795 21.3592,7.681 C20.9312,7.293 20.4112,7.194 19.8902,7.088 C19.3392,6.978 18.9262,7.246 18.5382,7.624 C18.4092,7.748 18.2702,7.862 18.1252,7.962 C17.9592,8.076 17.8742,8.061 17.7412,7.899 C17.5982,7.723 17.4352,7.584 17.2182,7.56 C17.1072,7.547 16.9912,7.578 16.8782,7.584 C16.6712,7.596 16.6092,7.511 16.7032,7.307 C16.9192,6.842 17.1372,6.376 17.3792,5.928 C18.1812,4.44 18.9932,2.96 19.8032,1.478 C19.8602,1.375 19.9262,1.281 20.0122,1.145"/>
    <path fill="#FFF" d="M27.5883 17.7432C27.7093 17.5722 27.8163 17.4182 27.9263 17.2652 28.2373 16.8352 28.4343 16.3572 28.4453 15.7942 28.4513 15.5142 28.5483 15.4442 28.7873 15.5412 29.3603 15.7752 29.9453 15.9212 30.5603 15.8412 31.3093 15.7432 31.8803 15.3562 32.1583 14.5482 32.2713 14.2222 32.3403 13.8762 32.4223 13.5372 32.4393 13.4722 32.4253 13.3962 32.4253 13.3262 32.4073 13.3192 32.3913 13.3122 32.3733 13.3052 32.3183 13.3762 32.2553 13.4402 32.2113 13.5182 32.1133 13.6962 32.0403 13.8912 31.9303 14.0572 31.8103 14.2352 31.6763 14.4142 31.5173 14.5462 31.2153 14.7982 30.8663 14.7572 30.6253 14.4322 30.4933 14.2562 30.3923 14.0362 30.3253 13.8172 30.0893 13.0302 30.0013 12.2092 29.8833 11.3942 29.7573 10.5222 29.6253 9.6512 29.2673 8.8472 29.2053 8.7092 29.1683 8.5552 29.1393 8.4042 29.1273 8.3492 29.1543 8.2502 29.1913 8.2282 29.2393 8.2002 29.3353 8.1992 29.3753 8.2352 29.4623 8.3122 29.5563 8.4072 29.5973 8.5172 29.7663 8.9742 29.9123 9.4432 30.0773 9.9022 30.2343 10.3412 30.3983 10.7772 30.5753 11.2062 30.6343 11.3492 30.7343 11.4782 30.8343 11.5942 31.1713 11.9822 31.6313 11.8822 31.8253 11.3842 31.9543 11.0562 31.9233 10.7162 31.8713 10.3782 31.7673 9.7022 31.5433 9.0682 31.3153 8.4362 31.2853 8.3562 31.2483 8.2772 31.2333 8.1942 31.2203 8.1282 31.2343 8.0552 31.2363 7.9862 31.3013 7.9942 31.3883 7.9762 31.4263 8.0152 31.5303 8.1232 31.6503 8.2392 31.6993 8.3792 31.8513 8.8072 32.0043 9.2412 32.1013 9.6862 32.3343 10.7632 32.5573 11.8432 32.7433 12.9312 32.8703 13.6712 32.8833 14.4262 32.7523 15.1732 32.5413 16.3822 31.8713 17.1452 30.8483 17.5482 29.8863 17.9272 28.9013 18.0262 27.8963 17.8082 27.8013 17.7882 27.7053 17.7682 27.5883 17.7432M22.6362 8.7925C22.6102 8.7945 22.5832 8.7965 22.5572 8.7995 22.5572 9.1075 22.5522 9.4155 22.5592 9.7235 22.5702 10.2075 22.8022 10.5325 23.1752 10.7495 23.2722 10.8055 23.3712 10.8555 23.4712 10.9065 23.6982 11.0205 23.9252 11.0115 24.1522 10.9015 24.4372 10.7635 24.6902 10.5735 24.8972 10.3135 25.0972 10.0625 25.1122 9.9325 24.9512 9.6465 24.6662 9.1345 24.3022 8.7005 23.8752 8.3295 23.8312 8.2915 23.7812 8.2425 23.7292 8.2355 23.6382 8.2225 23.5142 8.1995 23.4582 8.2515 23.4052 8.3015 23.3802 8.4645 23.4132 8.5385 23.4882 8.7045 23.6002 8.8515 23.7082 8.9965 23.7712 9.0795 23.8602 9.1375 23.9292 9.2155 24.0022 9.2985 24.0022 9.3835 23.9212 9.4715 23.6752 9.7405 23.3002 9.7715 23.0462 9.5095 22.9272 9.3875 22.8462 9.2195 22.7562 9.0655 22.7062 8.9805 22.6752 8.8835 22.6362 8.7925M25.3892 10.6355C25.3962 11.0355 25.3042 11.4335 25.1282 11.8095 24.4952 13.1615 23.2092 13.1225 22.4282 12.4425 21.8962 11.9795 21.6772 11.3655 21.7562 10.6235 21.8232 10.0075 21.9592 9.4115 22.1712 8.8355 22.4442 8.0965 22.8702 7.8845 23.6262 7.9775 24.1362 8.0395 24.5282 8.3275 24.8262 8.7915 25.1902 9.3545 25.3882 9.9655 25.3892 10.6355M18.8393 9.3945C18.8213 9.3995 18.8053 9.4055 18.7873 9.4115 18.7763 9.4765 18.7573 9.5405 18.7533 9.6055 18.6993 10.3485 18.9733 10.9105 19.5173 11.3325 19.7003 11.4755 19.8643 11.4855 20.0493 11.3595 20.4423 11.0895 20.7603 10.7375 20.9713 10.2795 21.0263 10.1625 21.0623 10.0125 21.0503 9.8835 21.0033 9.3945 20.8013 8.9815 20.4853 8.6425 20.4063 8.5565 20.3023 8.4865 20.1973 8.4445 19.9783 8.3545 19.8003 8.5075 19.8043 8.7675 19.8083 8.9775 19.9043 9.1365 20.0253 9.2875 20.1333 9.4235 20.2033 9.5795 20.1323 9.7625 20.0553 9.9585 19.9013 10.0395 19.7173 10.0435 19.4143 10.0515 19.1973 9.8735 19.0163 9.6265 18.9583 9.5475 18.8983 9.4715 18.8393 9.3945M17.8993 11.4425C17.9043 10.8825 18.0273 10.4235 18.1863 9.9765 18.3873 9.4155 18.6563 8.9025 18.9903 8.4205 19.4123 7.8115 20.4853 7.8525 20.9143 8.5125 21.2663 9.0545 21.4303 9.6625 21.4043 10.3195 21.3613 11.4115 20.9223 12.2655 20.0793 12.8445 19.7363 13.0805 19.3563 13.1755 18.9553 13.0785 18.4143 12.9465 18.0313 12.4645 17.9373 11.8175 17.9153 11.6705 17.9063 11.5195 17.8993 11.4425"/>
    <path fill="#FFF" d="M29.0688 12.1406C29.0468 12.3866 29.0438 12.7486 28.9728 13.0946 28.8848 13.5296 28.6038 13.8116 28.2418 13.9806 27.9458 14.1186 27.6908 13.9946 27.4688 13.7716 27.1618 13.4616 26.9528 13.0696 26.8198 12.6426 26.5828 11.8746 26.3798 11.0936 26.1618 10.3186 26.0508 9.9226 25.9448 9.5236 25.8258 9.1306 25.7798 8.9786 25.7108 8.8346 25.6418 8.6936 25.5478 8.5006 25.5918 8.3106 25.7598 8.2266 25.8798 8.1666 25.9888 8.1676 26.0418 8.3266 26.1988 8.7956 26.3508 9.2666 26.5068 9.7366 26.6428 10.1466 26.7598 10.5676 26.9228 10.9646 27.2078 11.6596 28.1108 11.5736 28.3828 11.0896 28.5838 10.7346 28.5888 10.3536 28.5008 9.9696 28.3898 9.4906 28.1468 9.0996 27.8018 8.7866 27.7658 8.7536 27.7278 8.7226 27.6858 8.7006 27.5648 8.6376 27.4898 8.6846 27.4878 8.8326 27.4868 8.9176 27.5068 9.0036 27.5188 9.0896 27.5278 9.1516 27.5428 9.2136 27.5468 9.2766 27.5558 9.4176 27.5668 9.5716 27.4358 9.6476 27.3048 9.7246 27.1818 9.6506 27.0798 9.5526 26.8568 9.3376 26.7088 9.0676 26.6418 8.7496 26.5698 8.3976 26.7978 8.1376 27.1448 8.1796 27.2878 8.1966 27.4368 8.2296 27.5648 8.2986 28.3828 8.7406 28.9158 9.4196 28.9778 10.4706 29.0078 10.9896 29.0348 11.5086 29.0688 12.1406M16.9057 12.9102C16.9057 12.9682 16.9077 13.0252 16.9057 13.0842 16.8927 13.5752 16.7187 13.7782 16.2747 13.7842 15.6567 13.7932 14.9697 13.2202 14.9387 12.4602 14.9017 11.5462 14.6657 10.6772 14.3667 9.8302 14.3147 9.6842 14.2237 9.5502 14.1347 9.4242 14.0037 9.2362 13.9847 9.1272 14.1027 8.9232 14.1787 8.7932 14.2647 8.6682 14.3557 8.5492 14.4757 8.3912 14.5237 8.4032 14.5857 8.5932 14.6127 8.6802 14.6267 8.7722 14.6587 8.8572 14.7087 8.9832 14.7597 9.1102 14.8257 9.2262 14.9007 9.3602 15.0127 9.3952 15.1307 9.2912 15.2847 9.1542 15.4317 9.0092 15.5797 8.8632 15.6797 8.7642 15.7677 8.6462 15.8747 8.5552 16.0087 8.4402 16.0567 8.4582 16.1457 8.6162 16.2587 8.8152 16.4587 8.9132 16.6517 8.8702 16.7617 8.8472 16.8257 8.7852 16.8437 8.6562 16.8667 8.4882 16.9587 8.4062 17.0817 8.4212 17.2107 8.4382 17.2667 8.5302 17.2567 8.7152 17.2527 8.7712 17.2447 8.8302 17.2267 8.8842 17.0337 9.4632 16.6767 9.8822 16.1897 10.1692 16.0727 10.2382 15.9557 10.2312 15.8307 10.1722 15.6057 10.0672 15.3787 9.9682 15.1467 9.8832 14.9967 9.8272 14.9217 9.8922 14.9427 10.0522 15.0077 10.5322 15.0877 11.0102 15.3157 11.4352 15.3717 11.5392 15.4367 11.6392 15.5097 11.7282 15.7817 12.0632 16.0677 12.1222 16.4317 11.9252 16.6947 11.7842 16.7777 11.8212 16.8307 12.1372 16.8727 12.3912 16.8937 12.6502 16.9247 12.9082 16.9187 12.9082 16.9117 12.9092 16.9057 12.9102"/>
    <path fill="#6398AA" d="M37.5171 8.7109C36.0611 9.3159 34.6061 9.9199 33.1211 10.5379 33.0621 10.2849 33.0001 10.0499 32.9551 9.8119 32.9141 9.6049 32.8891 9.3929 32.8621 9.1829 32.8301 8.9309 32.8941 8.7949 33.1201 8.7589 33.4681 8.7039 33.8221 8.6639 34.1731 8.6609 35.2611 8.6529 36.3501 8.6649 37.4381 8.6699 37.4621 8.6699 37.4871 8.6749 37.5111 8.6779 37.5131 8.6889 37.5151 8.6999 37.5171 8.7109M2.7466 8.6426C4.0556 8.4966 5.3616 8.6716 6.6966 8.6776 6.6166 8.9446 6.5476 9.1826 6.4746 9.4186 6.4106 9.6246 6.3326 9.8266 6.2806 10.0366 6.2406 10.2016 6.1666 10.2096 6.0426 10.1596 5.6536 10.0026 5.2596 9.8626 4.8746 9.6956 4.2386 9.4186 3.6086 9.1266 2.9766 8.8386 2.8936 8.8006 2.8156 8.7466 2.7356 8.6996 2.7386 8.6806 2.7426 8.6616 2.7466 8.6426"/>
    <path fill="#000" d="M22.6362 8.7925C22.6752 8.8835 22.7062 8.9805 22.7562 9.0655 22.8462 9.2195 22.9272 9.3875 23.0462 9.5095 23.3002 9.7715 23.6752 9.7405 23.9212 9.4715 24.0022 9.3835 24.0022 9.2985 23.9292 9.2155 23.8602 9.1375 23.7712 9.0795 23.7082 8.9965 23.6002 8.8515 23.4882 8.7045 23.4132 8.5385 23.3802 8.4645 23.4052 8.3015 23.4582 8.2515 23.5142 8.1995 23.6382 8.2225 23.7292 8.2355 23.7812 8.2425 23.8312 8.2915 23.8752 8.3295 24.3022 8.7005 24.6662 9.1345 24.9512 9.6465 25.1122 9.9325 25.0972 10.0625 24.8972 10.3135 24.6902 10.5735 24.4372 10.7635 24.1522 10.9015 23.9252 11.0115 23.6982 11.0205 23.4712 10.9065 23.3712 10.8555 23.2722 10.8055 23.1752 10.7495 22.8022 10.5325 22.5702 10.2075 22.5592 9.7235 22.5522 9.4155 22.5572 9.1075 22.5572 8.7995 22.5832 8.7965 22.6102 8.7945 22.6362 8.7925M18.8393 9.3945C18.8983 9.4715 18.9583 9.5475 19.0163 9.6265 19.1973 9.8735 19.4143 10.0515 19.7173 10.0435 19.9013 10.0395 20.0553 9.9585 20.1323 9.7625 20.2033 9.5795 20.1333 9.4235 20.0253 9.2875 19.9043 9.1365 19.8083 8.9775 19.8043 8.7675 19.8003 8.5075 19.9783 8.3545 20.1973 8.4445 20.3023 8.4865 20.4063 8.5565 20.4853 8.6425 20.8013 8.9815 21.0033 9.3945 21.0503 9.8835 21.0623 10.0125 21.0263 10.1625 20.9713 10.2795 20.7603 10.7375 20.4423 11.0895 20.0493 11.3595 19.8643 11.4855 19.7003 11.4755 19.5173 11.3325 18.9733 10.9105 18.6993 10.3485 18.7533 9.6055 18.7573 9.5405 18.7763 9.4765 18.7873 9.4115 18.8053 9.4055 18.8213 9.3995 18.8393 9.3945"/>
  </g>
</svg>
