<!-- Copyright 2000-2021 JetBrains s.r.o. Use of this source code is governed by the Apache 2.0 license that can be found in the LICENSE file. -->
<svg xmlns="http://www.w3.org/2000/svg" width="12" height="12" viewBox="0 0 12 12">
  <g fill="none" fill-rule="evenodd">
    <polygon fill="#499C54" points="7 5 12 8.5 7 12"/>
    <path fill="#F0A732" d="M6,5.16778977 L5.33221031,4.50000008 L7.11901483,2.71319557 L6.28680451,1.88098526 L4.5,3.66778977 L2.71319557,1.88098534 L1.88098526,2.71319565 L3.66778969,4.50000008 L1.88098534,6.28680443 L2.71319565,7.11901474 L4.5,5.33221039 L6,6.83221039 L6,8.74394144 C5.53083161,8.90976867 5.02595313,9 4.5,9 C2.01471863,9 0,6.98528137 0,4.5 C0,2.01471863 2.01471863,0 4.5,0 C6.81627683,0 8.72381347,1.75002477 8.97253561,4 L6,4 L6,5.16778977 Z"/>
  </g>
</svg>
