<svg width="22" height="20" viewBox="0 0 22 20" fill="none" xmlns="http://www.w3.org/2000/svg">
  <path d="M9.19977 7.99988C9.19977 8.23722 9.12939 8.46923 8.99753 8.66657C8.86567 8.86391 8.67826 9.01771 8.45899 9.10854C8.23971 9.19936 7.99843 9.22313 7.76566 9.17682C7.53288 9.13052 7.31906 9.01623 7.15124 8.84841C6.98341 8.68059 6.86913 8.46677 6.82282 8.23399C6.77652 8.00121 6.80029 7.75993 6.89111 7.54066C6.98194 7.32139 7.13574 7.13398 7.33308 7.00212C7.53042 6.87026 7.76243 6.79988 7.99977 6.79988C8.31803 6.79988 8.62325 6.92631 8.84829 7.15135C9.07334 7.3764 9.19977 7.68162 9.19977 7.99988ZM13.9998 6.79988C13.7624 6.79988 13.5304 6.87026 13.3331 7.00212C13.1357 7.13398 12.9819 7.32139 12.8911 7.54066C12.8003 7.75993 12.7765 8.00121 12.8228 8.23399C12.8691 8.46677 12.9834 8.68059 13.1512 8.84841C13.3191 9.01623 13.5329 9.13052 13.7657 9.17682C13.9984 9.22313 14.2397 9.19936 14.459 9.10854C14.6783 9.01771 14.8657 8.86391 14.9975 8.66657C15.1294 8.46923 15.1998 8.23722 15.1998 7.99988C15.1998 7.68162 15.0733 7.3764 14.8483 7.15135C14.6233 6.92631 14.318 6.79988 13.9998 6.79988ZM12.1798 10.6699H9.81977C9.72425 10.6688 9.63041 10.695 9.54936 10.7456C9.4683 10.7961 9.40342 10.8688 9.36239 10.9551C9.32136 11.0414 9.30591 11.1376 9.31785 11.2323C9.32979 11.3271 9.36862 11.4165 9.42977 11.4899L10.0998 12.3299V14.0999H11.8998V12.3299L12.5698 11.4899C12.6309 11.4165 12.6697 11.3271 12.6817 11.2323C12.6936 11.1376 12.6782 11.0414 12.6371 10.9551C12.5961 10.8688 12.5312 10.7961 12.4502 10.7456C12.3691 10.695 12.2753 10.6688 12.1798 10.6699ZM21.4898 13.2899L20.8098 14.7399L19.6798 14.2099C19.4846 14.6333 19.2573 15.0412 18.9998 15.4299L20.1998 15.9999L19.5298 17.4499L17.9998 16.7199C17.102 17.6765 16.0176 18.4389 14.8137 18.9601C13.6097 19.4814 12.3117 19.7503 10.9998 19.7503C9.68783 19.7503 8.38983 19.4814 7.18587 18.9601C5.98192 18.4389 4.89757 17.6765 3.99977 16.7199L2.43977 17.4499L1.80977 15.9999L2.99977 15.4299C2.73188 15.044 2.49768 14.6359 2.29977 14.2099L1.16977 14.7399L0.509766 13.2899L1.74977 12.7099C1.51199 11.8602 1.39088 10.9822 1.38977 10.0999V0.379883L5.99977 2.89988C7.57766 2.21895 9.28135 1.87822 10.9998 1.89988C12.7182 1.87822 14.4219 2.21895 15.9998 2.89988L20.6298 0.379883V10.1499C20.6286 11.0157 20.5075 11.8773 20.2698 12.7099L21.4898 13.2899ZM18.0598 13.4499L14.8498 11.9999L15.5298 10.5499L18.5898 11.9799C18.7391 11.3814 18.813 10.7667 18.8098 10.1499V3.40988L15.9998 4.93988L15.5698 4.70988C14.1478 4.01646 12.5815 3.67031 10.9998 3.69988C9.41543 3.66561 7.84563 4.00836 6.41977 4.69988L5.99977 4.93988L3.18977 3.40988V10.0499C3.18591 10.6832 3.25979 11.3146 3.40977 11.9299L6.46977 10.4999L7.14977 11.9999L3.99977 13.4499C4.20621 13.8723 4.44702 14.277 4.71977 14.6599L7.78977 13.2099L8.46977 14.6599L5.77977 15.8999C7.21024 17.1943 9.0706 17.911 10.9998 17.911C12.9289 17.911 14.7893 17.1943 16.2198 15.8999L13.5798 14.6599L14.2598 13.2099L17.3398 14.6599C17.6198 14.2818 17.861 13.8764 18.0598 13.4499Z" fill="#9AA7B0" fill-opacity="0.8"/>
</svg>
