<svg width="20" height="20" viewBox="0 0 20 20" fill="none" xmlns="http://www.w3.org/2000/svg">
  <path d="M10 0C8.02219 0 6.08879 0.58649 4.4443 1.6853C2.79981 2.78412 1.51809 4.3459 0.761209 6.17317C0.00433284 8.00043 -0.193701 10.0111 0.192152 11.9509C0.578004 13.8907 1.53041 15.6725 2.92894 17.0711C4.32746 18.4696 6.10929 19.422 8.0491 19.8079C9.98891 20.1937 11.9996 19.9957 13.8268 19.2388C15.6541 18.4819 17.2159 17.2002 18.3147 15.5557C19.4135 13.9112 20 11.9778 20 10C20 7.34784 18.9464 4.8043 17.0711 2.92893C15.1957 1.05357 12.6522 0 10 0ZM10 18.2C8.3782 18.2 6.79281 17.7191 5.44433 16.8181C4.09585 15.917 3.04483 14.6364 2.42419 13.138C1.80355 11.6397 1.64117 9.9909 1.95757 8.40026C2.27396 6.80961 3.05494 5.34852 4.20173 4.20172C5.34852 3.05493 6.80962 2.27396 8.40026 1.95756C9.99091 1.64116 11.6397 1.80355 13.138 2.42419C14.6364 3.04483 15.917 4.09584 16.8181 5.44432C17.7191 6.79281 18.2 8.37819 18.2 10C18.1974 12.174 17.3326 14.2581 15.7954 15.7954C14.2581 17.3326 12.174 18.1974 10 18.2ZM5.8 6.5C5.8 6.26266 5.87038 6.03065 6.00224 5.83332C6.1341 5.63598 6.32151 5.48217 6.54078 5.39134C6.76006 5.30052 7.00134 5.27676 7.23411 5.32306C7.46689 5.36936 7.68071 5.48365 7.84853 5.65147C8.01636 5.81929 8.13064 6.03311 8.17695 6.26589C8.22325 6.49867 8.19948 6.73995 8.10866 6.95922C8.01783 7.17849 7.86403 7.36591 7.66669 7.49776C7.46935 7.62962 7.23734 7.7 7 7.7C6.68174 7.7 6.37652 7.57357 6.15148 7.34853C5.92643 7.12348 5.8 6.81826 5.8 6.5ZM11.8 6.5C11.8 6.26266 11.8704 6.03065 12.0022 5.83332C12.1341 5.63598 12.3215 5.48217 12.5408 5.39134C12.7601 5.30052 13.0013 5.27676 13.2341 5.32306C13.4669 5.36936 13.6807 5.48365 13.8485 5.65147C14.0164 5.81929 14.1306 6.03311 14.1769 6.26589C14.2232 6.49867 14.1995 6.73995 14.1087 6.95922C14.0178 7.17849 13.864 7.36591 13.6667 7.49776C13.4693 7.62962 13.2373 7.7 13 7.7C12.6817 7.7 12.3765 7.57357 12.1515 7.34853C11.9264 7.12348 11.8 6.81826 11.8 6.5ZM14 11.06L15.74 11.53C15.4045 12.7854 14.664 13.895 13.6333 14.6864C12.6026 15.4778 11.3395 15.9068 10.04 15.9068C8.74053 15.9068 7.4774 15.4778 6.44672 14.6864C5.41604 13.895 4.67548 12.7854 4.34 11.53L6 11.06C6.23379 11.9315 6.74857 12.7016 7.46454 13.2508C8.1805 13.8001 9.05765 14.0977 9.96 14.0977C10.8624 14.0977 11.7395 13.8001 12.4555 13.2508C13.1714 12.7016 13.6862 11.9315 13.92 11.06H14Z" fill="#9AA7B0" fill-opacity="0.8"/>
</svg>
