<svg width="20" height="20" viewBox="0 0 20 20" fill="none" xmlns="http://www.w3.org/2000/svg">
  <path d="M19.9001 8.99961C19.9018 8.58682 19.7676 8.18495 19.5182 7.85602C19.2688 7.52709 18.918 7.28939 18.5201 7.17961L16.3401 1.78961C16.1975 1.43928 15.9542 1.13917 15.6408 0.927321C15.3275 0.715469 14.9583 0.601412 14.5801 0.599609H5.42011C5.04158 0.600079 4.67182 0.713603 4.35824 0.925625C4.04466 1.13765 3.80156 1.4385 3.66011 1.78961L1.48011 7.17961C1.08219 7.28939 0.731452 7.52709 0.482045 7.85602C0.232637 8.18495 0.0984218 8.58682 0.100113 8.99961V16.9996C0.102746 17.6353 0.356448 18.2442 0.805965 18.6938C1.25548 19.1433 1.8644 19.397 2.50011 19.3996H5.50011C6.13582 19.397 6.74474 19.1433 7.19426 18.6938C7.64378 18.2442 7.89748 17.6353 7.90011 16.9996V15.8996H12.1001V16.9996C12.1027 17.6353 12.3564 18.2442 12.806 18.6938C13.2555 19.1433 13.8644 19.397 14.5001 19.3996H17.5001C18.1358 19.397 18.7447 19.1433 19.1943 18.6938C19.6438 18.2442 19.8975 17.6353 19.9001 16.9996V8.99961ZM18.1001 8.99961V13.9996C18.1017 14.0131 18.1002 14.0268 18.0958 14.0397C18.0913 14.0526 18.084 14.0643 18.0744 14.0739C18.0648 14.0835 18.0531 14.0908 18.0402 14.0953C18.0273 14.0997 18.0136 14.1012 18.0001 14.0996H2.00011C1.97359 14.0996 1.94816 14.0891 1.9294 14.0703C1.91065 14.0516 1.90011 14.0261 1.90011 13.9996V8.99961C1.89851 8.98609 1.89999 8.97238 1.90444 8.95952C1.9089 8.94665 1.91622 8.93497 1.92584 8.92534C1.93547 8.91571 1.94716 8.90839 1.96002 8.90394C1.97289 8.89948 1.98659 8.898 2.00011 8.89961H18.0001C18.0266 8.89961 18.0521 8.91014 18.0708 8.9289C18.0896 8.94765 18.1001 8.97309 18.1001 8.99961ZM18.1001 15.8996V16.9996C18.1001 17.1587 18.0369 17.3114 17.9244 17.4239C17.8119 17.5364 17.6592 17.5996 17.5001 17.5996H14.5001C14.341 17.5996 14.1884 17.5364 14.0758 17.4239C13.9633 17.3114 13.9001 17.1587 13.9001 16.9996V15.8996H18.1001ZM6.10011 16.9996C6.10011 17.1587 6.0369 17.3114 5.92438 17.4239C5.81186 17.5364 5.65924 17.5996 5.50011 17.5996H2.50011C2.34098 17.5996 2.18837 17.5364 2.07585 17.4239C1.96333 17.3114 1.90011 17.1587 1.90011 16.9996V15.8996H6.10011V16.9996ZM5.42011 2.39961H14.5801C14.599 2.40101 14.6172 2.40727 14.633 2.41778C14.6488 2.42829 14.6616 2.4427 14.6701 2.45961L16.5401 7.09961H3.46011L5.33011 2.45961C5.33778 2.44203 5.35034 2.42703 5.3663 2.41639C5.38226 2.40575 5.40094 2.39993 5.42011 2.39961ZM3.00011 11.3796C3.00011 11.1423 3.07049 10.9103 3.20235 10.7129C3.33421 10.5156 3.52162 10.3618 3.74089 10.271C3.96016 10.1801 4.20144 10.1564 4.43422 10.2027C4.667 10.249 4.88082 10.3633 5.04864 10.5311C5.21646 10.6989 5.33075 10.9127 5.37706 11.1455C5.42336 11.3783 5.39959 11.6196 5.30877 11.8388C5.21794 12.0581 5.06414 12.2455 4.8668 12.3774C4.66946 12.5092 4.43745 12.5796 4.20011 12.5796C3.88266 12.577 3.57895 12.4497 3.35447 12.2252C3.12999 12.0008 3.00273 11.6971 3.00011 11.3796ZM14.6001 11.3796C14.6001 11.1423 14.6705 10.9103 14.8024 10.7129C14.9342 10.5156 15.1216 10.3618 15.3409 10.271C15.5602 10.1801 15.8014 10.1564 16.0342 10.2027C16.267 10.249 16.4808 10.3633 16.6486 10.5311C16.8165 10.6989 16.9308 10.9127 16.9771 11.1455C17.0234 11.3783 16.9996 11.6196 16.9088 11.8388C16.8179 12.0581 16.6641 12.2455 16.4668 12.3774C16.2695 12.5092 16.0374 12.5796 15.8001 12.5796C15.4827 12.577 15.179 12.4497 14.9545 12.2252C14.73 12.0008 14.6027 11.6971 14.6001 11.3796ZM7.00011 12.1796V10.5696C7.00011 10.5166 7.02118 10.4657 7.05869 10.4282C7.0962 10.3907 7.14707 10.3696 7.20011 10.3696H12.8001C12.8259 10.3682 12.8517 10.3722 12.8759 10.3811C12.9001 10.39 12.9223 10.4038 12.941 10.4216C12.9597 10.4394 12.9746 10.4608 12.9848 10.4845C12.9949 10.5082 13.0001 10.5338 13.0001 10.5596V12.1696C13.0001 12.1954 12.9949 12.221 12.9848 12.2447C12.9746 12.2684 12.9597 12.2898 12.941 12.3076C12.9223 12.3254 12.9001 12.3392 12.8759 12.3481C12.8517 12.3571 12.8259 12.361 12.8001 12.3596H7.20011C7.15036 12.3599 7.1023 12.3416 7.06532 12.3083C7.02834 12.275 7.00509 12.2291 7.00011 12.1796Z" fill="#9AA7B0" fill-opacity="0.8"/>
</svg>
