<svg width="16" height="16" viewBox="0 0 16 16" fill="none" xmlns="http://www.w3.org/2000/svg">
<mask id="path-1-inside-1" fill="white">
<path fill-rule="evenodd" clip-rule="evenodd" d="M14.0213 4.12132L11.9 2L5.45 8.45L3 6V13H10L7.57132 10.5713L14.0213 4.12132Z"/>
</mask>
<path d="M11.9 2L12.6071 1.29289L11.9 0.585786L11.1929 1.29289L11.9 2ZM14.0213 4.12132L14.7284 4.82843L15.4355 4.12132L14.7284 3.41421L14.0213 4.12132ZM5.45 8.45L4.74289 9.15711L5.45 9.86421L6.15711 9.15711L5.45 8.45ZM3 6L3.70711 5.29289L2 3.58579V6H3ZM3 13H2V14H3V13ZM10 13V14H12.4142L10.7071 12.2929L10 13ZM7.57132 10.5713L6.86421 9.86421L6.15711 10.5713L6.86421 11.2784L7.57132 10.5713ZM11.1929 2.70711L13.3142 4.82843L14.7284 3.41421L12.6071 1.29289L11.1929 2.70711ZM6.15711 9.15711L12.6071 2.70711L11.1929 1.29289L4.74289 7.74289L6.15711 9.15711ZM2.29289 6.70711L4.74289 9.15711L6.15711 7.74289L3.70711 5.29289L2.29289 6.70711ZM4 13V6H2V13H4ZM10 12H3V14H10V12ZM6.86421 11.2784L9.29289 13.7071L10.7071 12.2929L8.27843 9.86421L6.86421 11.2784ZM13.3142 3.41421L6.86421 9.86421L8.27843 11.2784L14.7284 4.82843L13.3142 3.41421Z" fill="#3592C4" mask="url(#path-1-inside-1)"/>
</svg>
