<svg xmlns="http://www.w3.org/2000/svg" width="16" height="16" viewBox="0 0 16 16">
  <g fill="#AFB1B3" fill-rule="evenodd" transform="translate(1 1)">
    <path d="M11.9497475,11.9497475 C9.21607743,14.6834175 4.78392257,14.6834175 2.05025253,11.9497475 C-0.68341751,9.21607743 -0.68341751,4.78392257 2.05025253,2.05025253 C4.78392257,-0.68341751 9.21607743,-0.68341751 11.9497475,2.05025253 C14.6834175,4.78392257 14.6834175,9.21607743 11.9497475,11.9497475 Z M6.99999976,12.1999996 C9.87188036,12.1999996 12.1999996,9.87188036 12.1999996,6.99999976 C12.1999996,4.12811917 9.87188036,1.79999995 6.99999976,1.79999995 C4.12811917,1.79999995 1.79999995,4.12811917 1.79999995,6.99999976 C1.79999995,9.87188036 4.12811917,12.1999996 6.99999976,12.1999996 Z"/>
    <g transform="translate(5.7 3.7)">
      <rect width="1.6" height="4" x=".5"/>
      <rect width="1.6" height="4" x="1.797" y="2.502" transform="rotate(125 2.597 4.502)"/>
    </g>
  </g>
</svg>
