<!-- Copyright 2000-2024 JetBrains s.r.o. and contributors. Use of this source code is governed by the Apache 2.0 license. -->
<svg width="16" height="16" viewBox="0 0 16 16" fill="none" xmlns="http://www.w3.org/2000/svg">
<path fill-rule="evenodd" clip-rule="evenodd" d="M14.5 11C15.3284 11 16 10.3284 16 9.5C16 8.67157 15.3284 8 14.5 8C13.6716 8 13 8.67157 13 9.5C13 9.56274 13.0039 9.62458 13.0113 9.6853L10.5413 10.9203C10.2715 10.6601 9.90445 10.5 9.5 10.5C8.67157 10.5 8 11.1716 8 12C8 12.8284 8.67157 13.5 9.5 13.5C9.90445 13.5 10.2715 13.3399 10.5413 13.0797L13.0113 14.3147C13.0039 14.3754 13 14.4373 13 14.5C13 15.3284 13.6716 16 14.5 16C15.3284 16 16 15.3284 16 14.5C16 13.6716 15.3284 13 14.5 13C14.0955 13 13.7285 13.1601 13.4587 13.4203L10.9887 12.1853C10.9961 12.1246 11 12.0627 11 12C11 11.9372 10.9961 11.8754 10.9887 11.8147L13.4587 10.5797C13.7285 10.8399 14.0955 11 14.5 11ZM10 12C10 12.2761 9.77614 12.5 9.5 12.5C9.22386 12.5 9 12.2761 9 12C9 11.7239 9.22386 11.5 9.5 11.5C9.77614 11.5 10 11.7239 10 12ZM15 9.5C15 9.77614 14.7761 10 14.5 10C14.2239 10 14 9.77614 14 9.5C14 9.22386 14.2239 9 14.5 9C14.7761 9 15 9.22386 15 9.5ZM15 14.5C15 14.7761 14.7761 15 14.5 15C14.2239 15 14 14.7761 14 14.5C14 14.2239 14.2239 14 14.5 14C14.7761 14 15 14.2239 15 14.5Z" fill="#548AF7"/>
<path d="M14.5 7C14.6482 7 14.7933 7.01289 14.9344 7.03761C14.4654 3.627 11.5395 1 8 1C4.13401 1 1 4.13401 1 8C1 11.866 4.13401 15 8 15V14.0002C7.39278 13.5441 7 12.8179 7 12C7 10.6193 8.11929 9.5 9.5 9.5C9.90163 9.5 10.2818 9.59518 10.6184 9.76376L12.0398 9.05301C12.2506 7.88558 13.2719 7 14.5 7Z" fill="#43454A"/>
<path d="M8 2C10.9959 2 13.479 4.19578 13.9277 7.06581C14.1115 7.02277 14.3031 7 14.5 7C14.6482 7 14.7933 7.01289 14.9344 7.03761C14.4654 3.627 11.5395 1 8 1C4.13401 1 1 4.13401 1 8C1 11.866 4.13401 15 8 15V14.0002C4.6864 14.0001 2 11.3136 2 8C2 4.68629 4.68629 2 8 2Z" fill="#CED0D6"/>
<path d="M10.4741 9.69718C10.8058 9.21451 11 8.62993 11 8C11 6.34315 9.65685 5 8 5C6.34315 5 5 6.34315 5 8C5 9.39842 5.95682 10.5734 7.25151 10.9059C7.6573 10.0735 8.51167 9.5 9.5 9.5C9.84526 9.5 10.1746 9.57034 10.4741 9.69718Z" fill="#25324D"/>
<path d="M9.31526 9.50672C9.7349 9.1401 10 8.60101 10 8C10 6.89543 9.10457 6 8 6C6.89543 6 6 6.89543 6 8C6 9.10449 6.8953 9.99987 7.99976 10C7.68396 10.2373 7.42618 10.5476 7.25151 10.9059C5.95682 10.5734 5 9.39842 5 8C5 6.34315 6.34315 5 8 5C9.65685 5 11 6.34315 11 8C11 8.62993 10.8058 9.21451 10.4741 9.69718C10.1746 9.57034 9.84526 9.5 9.5 9.5C9.43786 9.5 9.37626 9.50227 9.31526 9.50672Z" fill="#548AF7"/>
</svg>
