<!-- Copyright 2000-2025 JetBrains s.r.o. and contributors. Use of this source code is governed by the Apache 2.0 license. -->
<svg width="16" height="16" viewBox="0 0 16 16" fill="none" xmlns="http://www.w3.org/2000/svg">
<path d="M11 2C11.5523 2 12 2.44772 12 3V9H6C5.44772 9 5 9.44772 5 10V14C4.44772 14 4 13.5523 4 13V6H6C7.10457 6 8 5.10457 8 4V2H11Z" fill="#402929"/>
<path d="M7 4C7 4.06893 6.99277 4.13617 6.97949 4.20117C6.88625 4.65686 6.48325 5 6 5H4.41406L7 2.41406V4Z" fill="#402929"/>
<path fill-rule="evenodd" clip-rule="evenodd" d="M11 1C12.1046 1 13 1.89543 13 3V9H12V3C12 2.44772 11.5523 2 11 2H8V4C8 5.10457 7.10457 6 6 6H4V13C4 13.5523 4.44772 14 5 14V15C3.89543 15 3 14.1046 3 13V5.41406C3.00004 5.1489 3.10547 4.89453 3.29297 4.70703L6.70703 1.29297C6.89453 1.10547 7.1489 1.00004 7.41406 1H11ZM4.41406 5H6C6.55228 5 7 4.55228 7 4V2.41406L4.41406 5Z" fill="#DB5C5C"/>
<path d="M13.5449 10C13.8432 10.0713 14.0969 10.1984 14.3047 10.3828C14.6435 10.678 14.8158 11.0773 14.8213 11.5801H13.7959C13.7959 11.3452 13.7192 11.1624 13.5664 11.0312C13.4133 10.8946 13.1968 10.8262 12.918 10.8262C12.6503 10.8262 12.4424 10.889 12.2949 11.0146C12.1475 11.1404 12.0742 11.3184 12.0742 11.5479C12.0743 11.7554 12.129 11.9326 12.2383 12.0801C12.353 12.2221 12.5165 12.3236 12.7295 12.3838L13.4434 12.5811C13.9188 12.7013 14.2828 12.917 14.5342 13.2285C14.7855 13.5346 14.9111 13.9146 14.9111 14.3682C14.9111 14.7071 14.829 15.0081 14.665 15.2705C14.5011 15.5273 14.2716 15.727 13.9766 15.8691C13.8647 15.923 13.745 15.9665 13.6182 16H12.2383C12.1075 15.9678 11.9839 15.9291 11.8691 15.877C11.5685 15.7403 11.3359 15.5463 11.1719 15.2949C11.0133 15.038 10.9312 14.737 10.9258 14.3926H11.9512C11.9512 14.6384 12.0382 14.8325 12.2129 14.9746C12.3933 15.1113 12.6372 15.1797 12.9434 15.1797C13.2384 15.1796 13.4679 15.1112 13.6318 14.9746C13.8012 14.838 13.8857 14.6496 13.8857 14.4092C13.8857 14.2071 13.8261 14.0323 13.7061 13.8848C13.5913 13.7317 13.4237 13.6279 13.2051 13.5732L12.5166 13.3838C12.0465 13.2635 11.6827 13.0479 11.4258 12.7363C11.1744 12.4248 11.0488 12.0472 11.0488 11.6045C11.0489 11.2657 11.1253 10.9701 11.2783 10.7188C11.4313 10.4675 11.6472 10.2733 11.9258 10.1367C12.0496 10.0772 12.1837 10.0336 12.3262 10H13.5449Z" fill="#CED0D6"/>
<path fill-rule="evenodd" clip-rule="evenodd" d="M10.1748 16H9.125L8.79688 14.5488H7.20605L6.87793 16H5.82812L7.33789 10.0137H8.65723L10.1748 16ZM7.91113 11.3838C7.87288 11.5968 7.8214 11.8345 7.75586 12.0967L7.39453 13.7119H8.6084L8.24805 12.1055C8.18795 11.8378 8.13551 11.5969 8.0918 11.3838C8.04813 11.1654 8.01837 11.0066 8.00195 10.9082C7.98554 11.0066 7.95482 11.1654 7.91113 11.3838Z" fill="#CED0D6"/>
</svg>
