<!-- Copyright 2000-2024 JetBrains s.r.o. and contributors. Use of this source code is governed by the Apache 2.0 license. -->
<svg width="16" height="16" viewBox="0 0 16 16" fill="none" xmlns="http://www.w3.org/2000/svg">
<path fill-rule="evenodd" clip-rule="evenodd" d="M11 1H7.91421C7.51639 1 7.13486 1.15803 6.85355 1.43934L3.43934 4.85355C3.15804 5.13486 3 5.51639 3 5.91421V13C3 14.1046 3.89543 15 5 15H11C12.1046 15 13 14.1046 13 13V3C13 1.89543 12.1046 1 11 1ZM4 13C4 13.5523 4.44772 14 5 14H11C11.5523 14 12 13.5523 12 13V3C12 2.44772 11.5523 2 11 2H8V4.5C8 5.32843 7.32843 6 6.5 6H4V13ZM4.70711 5L7 2.70711V4.5C7 4.77614 6.77614 5 6.5 5H4.70711Z" fill="#6C707E"/>
<path d="M5 14C4.44772 14 4 13.5523 4 13V6H6.5C7.32843 6 8 5.32843 8 4.5V2H11C11.5523 2 12 2.44772 12 3V13C12 13.5523 11.5523 14 11 14H5Z" fill="#EBECF0"/>
<path d="M7 2.70711L4.70711 5H6.5C6.77614 5 7 4.77614 7 4.5V2.70711Z" fill="#EBECF0"/>
</svg>
