<!-- Copyright 2000-2025 JetBrains s.r.o. and contributors. Use of this source code is governed by the Apache 2.0 license. -->
<svg width="16" height="16" viewBox="0 0 16 16" fill="none" xmlns="http://www.w3.org/2000/svg">
<path d="M11 2C11.5523 2 12 2.44772 12 3V9H6C5.44772 9 5 9.44772 5 10V14C4.44772 14 4 13.5523 4 13V6H6C7.10457 6 8 5.10457 8 4V2H11Z" fill="#45322B"/>
<path d="M7 4C7 4.06893 6.99277 4.13617 6.97949 4.20117C6.88625 4.65686 6.48325 5 6 5H4.41406L7 2.41406V4Z" fill="#45322B"/>
<path fill-rule="evenodd" clip-rule="evenodd" d="M11 1C12.1046 1 13 1.89543 13 3V9H12V3C12 2.44772 11.5523 2 11 2H8V4C8 5.10457 7.10457 6 6 6H4V13C4 13.5523 4.44772 14 5 14V15C3.89543 15 3 14.1046 3 13V5.41406C3.00004 5.1489 3.10547 4.89453 3.29297 4.70703L6.70703 1.29297C6.89453 1.10547 7.1489 1.00004 7.41406 1H11ZM4.41406 5H6C6.55228 5 7 4.55228 7 4V2.41406L4.41406 5Z" fill="#C77D55"/>
<path d="M14.6406 14.2373C14.6406 14.8112 14.4627 15.2652 14.1074 15.5986C13.9058 15.7876 13.6609 15.9199 13.374 16H11.9766C11.6853 15.9188 11.4359 15.7836 11.2295 15.5898C10.8796 15.2509 10.7041 14.797 10.7041 14.2285H11.7295C11.7295 14.529 11.8142 14.7642 11.9834 14.9336C12.1529 15.1031 12.3831 15.1885 12.6729 15.1885C12.9624 15.1884 13.1919 15.1063 13.3613 14.9424C13.5307 14.773 13.6152 14.5378 13.6152 14.2373V10.9648H12.2217V10.0137H14.6406V14.2373Z" fill="#CED0D6"/>
<path fill-rule="evenodd" clip-rule="evenodd" d="M10.1748 16H9.125L8.79688 14.5488H7.20605L6.87793 16H5.82812L7.33789 10.0137H8.65723L10.1748 16ZM7.91113 11.3838C7.87288 11.5968 7.8214 11.8345 7.75586 12.0967L7.39453 13.7119H8.6084L8.24805 12.1055C8.18794 11.8377 8.13552 11.5969 8.0918 11.3838C8.04812 11.1654 8.01837 11.0066 8.00195 10.9082C7.98554 11.0066 7.95482 11.1653 7.91113 11.3838Z" fill="#CED0D6"/>
</svg>
