<!-- Copyright 2000-2023 JetBrains s.r.o. and contributors. Use of this source code is governed by the Apache 2.0 license. -->
<svg width="16" height="16" viewBox="0 0 16 16" fill="none" xmlns="http://www.w3.org/2000/svg">
<path d="M3.60278 13L5.52278 2.5H7.33778L9.29528 13H7.86278L6.52778 4.7725L6.43028 4.075L6.33278 4.7725L5.07278 13H3.60278ZM4.71278 10.2775V9.1H8.07278V10.2775H4.71278Z" fill="#E08855"/>
<path d="M8.80485 13V11.695H9.56235C9.83235 11.695 10.0349 11.585 10.1699 11.365C10.3099 11.14 10.3799 10.805 10.3799 10.36V2.5H11.7899V10.45C11.7899 11.015 11.7099 11.4875 11.5499 11.8675C11.3899 12.2425 11.1524 12.525 10.8374 12.715C10.5274 12.905 10.1399 13 9.67485 13H8.80485Z" fill="#E08855"/>
</svg>
