<svg width="16" height="16" viewBox="0 0 16 16" fill="none" xmlns="http://www.w3.org/2000/svg">
<path d="M14.5 5.16065V10.8394C14.5 11.3776 14.2116 11.8747 13.7442 12.1417L8.74421 14.9989C8.28306 15.2624 7.71694 15.2624 7.25579 14.9989L2.25579 12.1417C1.78843 11.8747 1.5 11.3776 1.5 10.8394V5.16065C1.5 4.62236 1.78843 4.12534 2.25579 3.85828L7.25579 1.00114C7.71694 0.737624 8.28306 0.737624 8.74421 1.00114L13.7442 3.85828C14.2116 4.12534 14.5 4.62236 14.5 5.16065Z" fill="#FAF5FF" stroke="#834DF0"/>
<path d="M8.13437 11.5C9.62332 11.5 10.8996 10.6008 11.2138 9.32459H10.1986C9.88437 10.0546 9.10605 10.5767 8.13437 10.5767C6.79528 10.5767 5.82843 9.50345 5.82843 8C5.82843 6.49655 6.79528 5.42334 8.13437 5.42334C9.10605 5.42334 9.88437 5.94544 10.1986 6.67541H11.2138C10.8996 5.39917 9.62332 4.5 8.13437 4.5C6.21517 4.5 4.78906 5.99378 4.78906 8C4.78906 10.0062 6.21517 11.5 8.13437 11.5Z" fill="#834DF0"/>
</svg>
