<svg width="16" height="16" viewBox="0 0 16 16" xmlns="http://www.w3.org/2000/svg">
  <path fill="#5FAD65" d="M1.165 8c0-2.073 1.481-3.62 3.5-3.62 1.631 0 3.091 1.119 3.24 2.575h-1.21C6.512 6.188 5.667 5.5 4.66 5.5 3.319 5.5 2.425 6.587 2.425 8c0 1.425.906 2.5 2.235 2.5 1.01 0 1.852-.683 2.035-1.439h1.21c-.152 1.474-1.647 2.56-3.24 2.56-2.03 0-3.5-1.557-3.5-3.62V8ZM9.59 9.73h-.985v-.9h1.181l.35-1.645h-1.03v-.9h1.226l.38-1.785h.995l-.38 1.78h1.489l.38-1.78h.995l-.38 1.775h.985v.9h-1.181l-.35 1.645h1.03v.901h-1.226l-.38 1.779h-.995l.381-1.775h-1.49l-.38 1.775H9.21l.38-1.77Zm2.68-.905.351-1.645h-1.49l-.351 1.645h1.49Z"/>
</svg>
