<svg width="16" height="16" viewBox="0 0 16 16" xmlns="http://www.w3.org/2000/svg">
  <path fill="#62b543" d="M4.029 8.5c0 2.194 1.124 3.035 2.19 3.057a2.622 2.622 0 0 0 1.69-.547l.473 1.015A3.112 3.112 0 0 1 6.029 13C4.881 12.979 2 12.613 2 8.5S4.881 4 6.029 4c.739 0 2.128.194 2.471.875L7.909 5.99a2.582 2.582 0 0 0-1.69-.547c-1.142.029-2.19.815-2.19 3.057Zm10.877-.75L15 6.571h-1.046L14.16 4h-1.2l-.206 2.571h-1.2L11.76 4h-1.2l-.206 2.571H9.309L9.214 7.75h1.046l-.12 1.5H9.094L9 10.429h1.046L9.84 13h1.2l.206-2.571h1.2L12.24 13h1.2l.206-2.571h1.046l.094-1.179H13.74l.12-1.5h1.046Zm-2.366 1.5h-1.2l.12-1.5h1.2l-.12 1.5Z"/>
</svg>
