<!-- Copyright 2000-2022 JetBrains s.r.o. and contributors. Use of this source code is governed by the Apache 2.0 license. -->
<svg width="16" height="16" viewBox="0 0 16 16" fill="none" xmlns="http://www.w3.org/2000/svg">
<path fill-rule="evenodd" clip-rule="evenodd" d="M11.4178 9.16082C11.2188 9.16082 11.057 9.11436 10.858 9.03204C10.3007 8.78508 9.89516 8.29318 9.77596 7.75784C10.0743 7.55204 10.4437 7.44169 10.8083 7.44927C11.0269 7.45331 11.2462 7.49801 11.455 7.59068C11.6143 7.673 11.7685 7.75027 11.9279 7.87375C12.4852 8.2856 12.1344 9.20198 11.4178 9.16082ZM8.97977 10.8853C8.86008 10.7618 8.78567 10.5994 8.70588 10.4348C8.467 9.85827 8.54924 9.24036 8.86767 8.78735C9.42498 8.91108 9.93481 9.27925 10.1737 9.85574C10.2535 10.0204 10.2983 10.2315 10.2983 10.3964C10.3379 11.0138 9.41764 11.3794 8.97977 10.8853ZM8.63123 3.6782C8.71078 3.51356 8.78567 3.35397 8.90487 3.18933C9.0691 2.98858 9.30407 2.90828 9.5268 2.93202C9.89859 2.97116 10.2483 3.27948 10.2236 3.71684C10.2236 3.88173 10.1788 4.09283 10.099 4.25747C9.8604 4.83397 9.38753 5.20188 8.83046 5.32561C8.47214 4.8726 8.39235 4.25469 8.63123 3.6782ZM7.54916 10.3964C7.46961 10.561 7.39472 10.7206 7.27552 10.8853C6.8773 11.4206 5.95432 11.0448 5.99422 10.3446C5.99422 10.18 6.03901 9.98175 6.11855 9.81711C6.35744 9.24036 6.83006 8.87245 7.38738 8.74897C7.70581 9.24314 7.78804 9.86079 7.54916 10.3964ZM5.35981 9.07067C5.20047 9.15299 4.99903 9.1992 4.7998 9.1992C4.0834 9.24036 3.73511 8.37802 4.25252 7.92526C4.37197 7.80178 4.52616 7.71163 4.7254 7.62931C4.93442 7.53664 5.15348 7.4922 5.37204 7.48765C5.73477 7.48109 6.09065 7.58866 6.39219 7.79673C6.31265 8.33206 5.91712 8.82346 5.35981 9.07067ZM4.67571 4.9524C4.71756 4.95012 4.75526 4.94709 4.80005 4.9524C4.99903 4.9524 5.16082 4.99886 5.35981 5.08118C5.91712 5.32814 6.32268 5.82004 6.44188 6.35537C5.96436 6.68465 5.31991 6.7695 4.76284 6.52254C4.60351 6.44022 4.44906 6.35007 4.28997 6.22659C3.76742 5.80186 4.04791 4.98573 4.67571 4.9524ZM6.62863 2.9704C6.84671 2.94894 7.07384 3.02722 7.23807 3.22797C7.35752 3.35145 7.43217 3.51356 7.51171 3.6782C7.7506 4.25469 7.6686 4.87285 7.34993 5.32561C6.79286 5.20188 6.28279 4.83397 6.0439 4.25747C5.96411 4.09283 5.91957 3.88173 5.91957 3.71684C5.91957 3.30524 6.26516 3.00626 6.62863 2.9704ZM11.0834 1.82485C10.9736 1.75928 10.8625 1.69371 10.7478 1.63625C10.631 1.57786 10.511 1.52063 10.3889 1.47151C10.3504 1.45483 10.3123 1.44 10.2733 1.42424C10.1669 1.38439 10.0595 1.33921 9.9493 1.30654C9.35616 1.10728 8.72172 1 8.06333 1C4.71205 1 2 3.76209 2 7.17503C2 10.1799 4.11502 12.6767 6.90623 13.2321V15C10.5349 14.4428 13.748 11.5092 13.9877 7.65836C14.1319 5.34043 12.9972 2.97408 11.0834 1.82485Z" fill="#00A817"/>
</svg>
