<!-- Copyright 2000-2022 JetBrains s.r.o. and contributors. Use of this source code is governed by the Apache 2.0 license. -->
<svg width="16" height="16" viewBox="0 0 16 16" fill="none" xmlns="http://www.w3.org/2000/svg">
<path d="M1.5 13.5H14.5" stroke="#CED0D6" stroke-linecap="round"/>
<path d="M1.5 2.5H14.5" stroke="#CED0D6" stroke-linecap="round"/>
<path fill-rule="evenodd" clip-rule="evenodd" d="M2.14645 6.35355C1.95118 6.54882 1.95118 6.8654 2.14645 7.06066C2.34171 7.25592 2.65829 7.25592 2.85355 7.06066L4 5.91421V11.7071C4 11.9832 4.22386 12.2071 4.5 12.2071C4.77614 12.2071 5 11.9832 5 11.7071V5.91421L6.14645 7.06066C6.34171 7.25592 6.65829 7.25592 6.85355 7.06066C7.04882 6.8654 7.04882 6.54881 6.85355 6.35355L4.85355 4.35355L4.5 4L4.14645 4.35355L4.14618 4.35382L2.14645 6.35355Z" fill="#548AF7"/>
<path fill-rule="evenodd" clip-rule="evenodd" d="M9.14645 6.35355C8.95118 6.54882 8.95118 6.8654 9.14645 7.06066C9.34171 7.25592 9.65829 7.25592 9.85355 7.06066L11 5.91421V6.30373V6.80373H12V6.30373V5.91421L13.1464 7.06066C13.3417 7.25592 13.6583 7.25592 13.8536 7.06066C14.0488 6.8654 14.0488 6.54881 13.8536 6.35355L11.8536 4.35355L11.5 4L11.1464 4.35355L9.14645 6.35355ZM11 11.2159V11.7071C11 11.9833 11.2239 12.2071 11.5 12.2071C11.7761 12.2071 12 11.9833 12 11.7071V11.2159V10.7159H11V11.2159ZM11 9.25103V9.75103H12V9.25103L12 8.2686V7.7686H11V8.2686V9.25103Z" fill="#548AF7"/>
</svg>
