<!-- Copyright 2000-2021 JetBrains s.r.o. and contributors. Use of this source code is governed by the Apache 2.0 license. -->
<svg width="16" height="16" viewBox="0 0 16 16" fill="none" xmlns="http://www.w3.org/2000/svg">
<path d="M15.3876 6.58306C15.3111 6.72743 15.2192 6.85159 15.1117 6.95496L15.105 6.96138L15.0986 6.96804C14.8668 7.20808 14.4277 7.51477 13.6699 7.51477H13.6696H13.6693H13.669H13.6687H13.6684H13.6681H13.6678H13.6675H13.6672H13.6669H13.6666H13.6663H13.666H13.6657H13.6654H13.6651H13.6648H13.6644H13.6641H13.6638H13.6635H13.6632H13.6629H13.6626H13.6623H13.662H13.6617H13.6614H13.6611H13.6608H13.6605H13.6602H13.6599H13.6596H13.6593H13.659H13.6587H13.6585H13.6582H13.6579H13.6576H13.6573H13.657H13.6567H13.6564H13.6561H13.6558H13.6555H13.6552H13.6549H13.6546H13.6543H13.654H13.6537H13.6534H13.6531H13.6528H13.6525H13.6522H13.6519H13.6516H13.6513H13.651H13.6507H13.6504H13.6502H13.6499H13.6496H13.6493H13.649H13.6487H13.6484H13.6481H13.6478H13.6475H13.6472H13.6469H13.6466H13.6463H13.646H13.6457H13.6455H13.6452H13.6449H13.6446H13.6443H13.644H13.6437H13.6434H13.6431H13.6428H13.6425H13.6422H13.6419H13.6417H13.6414H13.6411H13.6408H13.6405H13.6402H13.6399H13.6396H13.6393H13.639H13.6388H13.6385H13.6382H13.6379H13.6376H13.6373H13.637H13.6367H13.6364H13.6361H13.6359H13.6356H13.6353H13.635H13.6347H13.6344H13.6341H13.6338H13.6335H13.6333H13.633H13.6327H13.6324H13.6321H13.6318H13.6315H13.6312H13.6309H13.6307H13.6304H13.6301H13.6298H13.6295H13.6292H13.6289H13.6286H13.6284H13.6281H13.6278H13.6275H13.6272H13.6269H13.6266H13.6264H13.6261H13.6258H13.6255H13.6252H13.6249H13.6246H13.6244H13.6241H13.6238H13.6235H13.6232H13.6229H13.6226H13.6224H13.6221H13.6218H13.6215H13.6212H13.6209H13.6206H13.6204H13.6201H13.6198H13.6195H13.6192H13.6189H13.6186H13.6184H13.6181H13.6178H13.6175H13.6172H13.6169H13.6167H13.6164H13.6161H13.6158H13.6155H13.6152H13.6149H13.6147H13.6144H13.6141H13.6138H13.6135H13.6132H13.613H13.6127H13.6124H13.6121H13.6118H13.6115H13.6113H13.611H13.6107H13.6104H13.6101H13.6098H13.6096H13.6093H13.609H13.6087H13.6084H13.6081H13.6079H13.6076H13.6073H13.607H13.6067H13.6064H13.6062H13.6059H13.6056H13.6053H13.605H13.6047H13.6045H13.6042H13.6039H13.6036H13.6033H13.603H13.6028H13.6025H13.6022H13.6019H13.6016H13.6013H13.6011H13.6008H13.6005H13.6002H13.5999H13.5997H13.5994H13.5991H13.5988H13.5985H13.5982H13.598H13.5977H13.5974H13.5971H13.5968H13.5965H13.5963H13.596H13.5957H13.5954H13.5951H13.5948H13.5946H13.5943H13.594H13.5937H13.5934H13.5931H13.5929H13.5926H13.5923H13.592H13.5917H13.5915H13.5912H13.5909H13.5906H13.5903H13.59H13.5898H13.5895H13.5892H13.5889H13.5886H13.5883H13.5881H13.5878H13.5875H13.5872H13.5869H13.5866H13.5864H13.5861H13.5858H13.5855H13.5852H13.5849H13.5847H13.5844H13.5841H13.5838H13.5835H13.5832H13.583H13.5827H13.5824H13.5821H13.5818H13.5815H13.5813H13.581H13.5807H13.5804H13.5801H13.5798H13.5796H13.5793H13.579H13.5787H13.5784H13.5781H13.5779H13.5776H13.5773H13.577H13.5767H13.5764H13.5762H13.5759H13.5756H13.5753H13.575H13.5747H13.5744H13.5742H13.5739H13.5736H13.5733H13.573H13.5727H13.5725H13.5722H13.5719H13.5716H13.5713H13.571H13.5707H13.5705H13.5702H13.5699H13.5696H13.5693H13.569H13.5687H13.5685H13.5682H13.5679H13.5676H13.5673H13.567H13.5667H13.5665H13.5662H13.5659H13.5656H13.5653H13.565H13.5647H13.5645H13.5642H13.5639H13.5636H13.5633H13.563H13.5627H13.5624H13.5622H13.5619H13.5616H13.5613H13.561H13.5607H13.5604H13.5601H13.5599H13.5596H13.5593H13.559H13.5587H13.5584H13.5581H13.5578H13.5576H13.5573H13.557H13.5567H13.5564H13.5561H13.5558H13.5555H13.5552H13.555H13.5547H13.5544H13.5541H13.5538H13.5535H13.5532H13.5529H13.5526H13.5523H13.5521H13.5518H13.5515H13.5512H13.5509H13.5506H13.5503H13.55H13.5497H13.5494H13.5491H13.5489H13.5486H13.5483H13.548H13.5477H13.5474H13.5471H13.5468H13.5465H13.5462H13.5459H13.5456H13.5453H13.5451H13.5448H13.5445H13.5442H13.5439H13.5436H13.5433H13.543H13.5427H13.5424H13.5421H13.5418H13.5415H13.5412H13.5409H13.5406H13.5404H13.5401H13.5398H13.5395H13.5392H13.5389H13.5386H13.5383H13.538H13.5377H13.5374H13.5371H13.5368H13.5365H13.5362H13.5359H13.5356H13.5353H13.535H13.5347H13.5344H13.5341H13.5338H13.5335H13.5332H13.5329H13.5326H13.5323H13.532H13.5317H13.5314H13.5311H13.5308H13.5305H13.5302H13.5299H13.5296H13.5293H13.529H13.5287H13.5284H13.5281H13.5278H13.5275H13.5272H13.5269H13.5266H13.5263H13.526H13.5257H13.5254H13.5251H13.5248H13.5245H13.5242H13.5239H13.5236H13.5233H13.523H13.5227H13.5224H13.5221H13.5218H13.5215H13.1751L13.0534 7.83902C12.6982 8.78509 12.2258 9.8136 11.4429 10.725L11.4414 10.7267C10.9791 11.2699 10.4349 11.7335 9.82995 12.0969C9.08638 12.5357 8.28082 12.8377 7.44045 12.9959L7.43942 12.9961C6.82464 13.1132 6.20294 13.1718 5.58134 13.1718C4.18049 13.1718 3.00597 12.8934 2.33274 12.4662C1.74998 12.0936 1.26712 11.4651 0.931172 10.5577C0.632806 9.71564 0.487008 8.82292 0.500908 7.93032L0.500969 7.93032V7.92254C0.500969 7.91709 0.501964 7.9135 0.50293 7.91114C0.503517 7.9097 0.504181 7.90851 0.504818 7.90757H11.0356H11.0499L11.0643 7.90674C11.1465 7.90201 11.3622 7.88462 11.6149 7.83616C11.8585 7.78943 12.183 7.70542 12.4535 7.54682L12.8914 7.29007L12.628 6.85609C12.3738 6.43718 12.2923 5.94223 12.4203 5.3926C12.4699 5.18245 12.5458 4.97478 12.6428 4.78031C12.9012 4.99913 13.2779 5.40864 13.3676 6.05438L13.4386 6.56625L13.9479 6.47834C14.1477 6.44385 14.3489 6.42414 14.5381 6.42414C14.9646 6.42414 15.2399 6.51447 15.3876 6.58306Z" fill="#2296EC" stroke="#2296ED"/>
<path d="M1.43144 6.72471H2.73897C2.8009 6.72471 2.85596 6.67684 2.85596 6.60847V5.44607C2.85596 5.38453 2.80779 5.32983 2.73897 5.32983H1.43144C1.36951 5.32983 1.31445 5.3777 1.31445 5.44607V6.60847C1.32133 6.67684 1.36951 6.72471 1.43144 6.72471Z" fill="#2296EC"/>
<path d="M3.23442 6.72471H4.54195C4.60388 6.72471 4.65894 6.67684 4.65894 6.60847V5.44607C4.65894 5.38453 4.61076 5.32983 4.54195 5.32983H3.23442C3.17249 5.32983 3.11743 5.3777 3.11743 5.44607V6.60847C3.12431 6.67684 3.17249 6.72471 3.23442 6.72471Z" fill="#2296EC"/>
<path d="M5.07182 6.72471H6.37935C6.44128 6.72471 6.49634 6.67684 6.49634 6.60847V5.44607C6.49634 5.38453 6.44817 5.32983 6.37935 5.32983H5.07182C5.00989 5.32983 4.95483 5.3777 4.95483 5.44607V6.60847C4.95483 6.67684 5.00301 6.72471 5.07182 6.72471Z" fill="#2296EC"/>
<path d="M6.88164 6.72471H8.18916C8.2511 6.72471 8.30615 6.67684 8.30615 6.60847V5.44607C8.30615 5.38453 8.25798 5.32983 8.18916 5.32983H6.88164C6.8197 5.32983 6.76465 5.3777 6.76465 5.44607V6.60847C6.76465 6.67684 6.8197 6.72471 6.88164 6.72471Z" fill="#2296EC"/>
<path d="M3.23442 5.06333H4.54195C4.60388 5.06333 4.65894 5.00863 4.65894 4.94709V3.7847C4.65894 3.72316 4.61076 3.66846 4.54195 3.66846H3.23442C3.17249 3.66846 3.11743 3.71632 3.11743 3.7847V4.94709C3.12431 5.00863 3.17249 5.06333 3.23442 5.06333Z" fill="#2296EC"/>
<path d="M5.07182 5.06333H6.37935C6.44128 5.06333 6.49634 5.00863 6.49634 4.94709V3.7847C6.49634 3.72316 6.44817 3.66846 6.37935 3.66846H5.07182C5.00989 3.66846 4.95483 3.71632 4.95483 3.7847V4.94709C4.95483 5.00863 5.00301 5.06333 5.07182 5.06333Z" fill="#2296EC"/>
<path d="M6.88164 5.06333H8.18916C8.2511 5.06333 8.30615 5.00863 8.30615 4.94709V3.7847C8.30615 3.72316 8.2511 3.66846 8.18916 3.66846H6.88164C6.8197 3.66846 6.76465 3.71632 6.76465 3.7847V4.94709C6.76465 5.00863 6.8197 5.06333 6.88164 5.06333Z" fill="#2296EC"/>
<path d="M6.88164 3.39487H8.18916C8.2511 3.39487 8.30615 3.34701 8.30615 3.27863V2.11624C8.30615 2.0547 8.2511 2 8.18916 2H6.88164C6.8197 2 6.76465 2.04786 6.76465 2.11624V3.27863C6.76465 3.34017 6.8197 3.39487 6.88164 3.39487Z" fill="#2296EC"/>
<path d="M8.70537 6.72471H10.0129C10.0748 6.72471 10.1299 6.67684 10.1299 6.60847V5.44607C10.1299 5.38453 10.0817 5.32983 10.0129 5.32983H8.70537C8.64343 5.32983 8.58838 5.3777 8.58838 5.44607V6.60847C8.59526 6.67684 8.64343 6.72471 8.70537 6.72471Z" fill="#2296EC"/>
</svg>
