<!-- Copyright 2000-2024 JetBrains s.r.o. and contributors. Use of this source code is governed by the Apache 2.0 license. -->
<svg width="16" height="16" viewBox="0 0 16 16" fill="none" xmlns="http://www.w3.org/2000/svg">
<path d="M5 2H8C8.55228 2 9 2.44772 9 3V6C9 6.55228 8.55228 7 8 7H5C4.44772 7 4 6.55228 4 6V3C4 2.44772 4.44772 2 5 2Z" fill="#3574F0"/>
<path fill-rule="evenodd" clip-rule="evenodd" d="M14.0877 6.73537C14.85 6.73537 15.2114 7.00829 15.2502 7.03904L15.391 7.15031L15.3326 7.3212C15.2394 7.55692 15.0959 7.76945 14.9121 7.94392C14.6354 8.21746 14.1338 8.5439 13.3181 8.5439H13.1865C13.1195 8.71333 13.0477 8.91217 12.9698 9.12794C12.6637 9.97522 12.2613 11.0893 11.6675 11.7614C11.2219 12.2658 10.6977 12.6948 10.1153 13.0321C9.40854 13.4323 8.63977 13.7116 7.84084 13.8583C7.26612 13.9652 6.68264 14.0181 6.09807 14.0163C4.80406 14.0163 4.24822 13.8704 3.34558 13.4401C2.44294 13.0098 1.90016 12.3003 1.41263 11.196C1.1422 10.5834 1.04487 9.67345 1.01182 8.98449C0.986026 8.44692 1.42639 8.02076 1.96457 8.02076H10.9655C11.0804 8.01646 11.6484 7.96789 12.0025 7.77057C11.7093 7.30705 11.6263 6.76488 11.7628 6.18763C11.7827 6.10437 11.8065 6.02221 11.834 5.94141C11.9063 5.72897 12.0046 5.5259 12.1267 5.33684L12.2613 5.14258L12.4661 5.26063C12.5043 5.28322 13.3397 5.77629 13.4871 6.78699C13.6856 6.75351 13.8864 6.73624 14.0877 6.73537ZM6 11C6 11.5523 5.55228 12 5 12C4.44772 12 4 11.5523 4 11C4 10.4477 4.44772 10 5 10C5.55228 10 6 10.4477 6 11Z" fill="#3574F0"/>
</svg>
