<!-- Copyright 2000-2021 JetBrains s.r.o. and contributors. Use of this source code is governed by the Apache 2.0 license. -->
<svg width="16" height="16" viewBox="0 0 16 16" fill="none" xmlns="http://www.w3.org/2000/svg">
<path fill-rule="evenodd" clip-rule="evenodd" d="M1.54929 5.28862C1.52833 5.33845 1.50794 5.38857 1.48811 5.43898C1.40542 5.64924 1.43258 5.88502 1.54768 6.07944L2.45016 7.60376C2.59483 7.84811 2.59483 8.15189 2.45016 8.39625L1.54768 9.92057C1.43258 10.115 1.40542 10.3508 1.48811 10.561C1.50785 10.6112 1.52815 10.6611 1.54901 10.7107M1.54929 5.28862C1.77935 4.74151 2.07694 4.22979 2.43161 3.76389C2.4642 3.72108 2.49728 3.67865 2.53083 3.63661C2.67169 3.46012 2.88933 3.36585 3.11513 3.36832L4.8843 3.3877C4.90204 3.3879 4.91971 3.38749 4.93727 3.38648C5.20065 3.37145 5.44004 3.22346 5.57061 2.99146L6.4389 1.44875C6.43878 1.44896 6.43902 1.44854 6.4389 1.44875C6.54992 1.25193 6.74108 1.11006 6.96461 1.07676C7.01799 1.06881 7.07158 1.06146 7.12535 1.05472C7.41345 1.0186 7.70697 1 8.00482 1C8.3026 1 8.59607 1.01859 8.88413 1.0547C8.88384 1.05466 8.88441 1.05473 8.88413 1.0547C8.93762 1.06141 8.99176 1.06883 9.04487 1.07674C9.26827 1.11001 9.45897 1.25108 9.57002 1.44771C9.57021 1.44805 9.5704 1.44839 9.57059 1.44873L10.4389 2.99146C10.5782 3.23892 10.8413 3.39081 11.1252 3.3877L12.8945 3.36832C12.8943 3.36832 12.8947 3.36832 12.8945 3.36832C13.1201 3.36598 13.338 3.46024 13.4788 3.63661C13.5121 3.67829 13.5449 3.72035 13.5772 3.7628C13.5775 3.76316 13.5777 3.76353 13.578 3.76389C13.9327 4.22975 14.2302 4.74142 14.4603 5.28848C14.4602 5.28819 14.4604 5.28876 14.4603 5.28848C14.4811 5.33802 14.5017 5.38872 14.5215 5.43884C14.6041 5.64891 14.5771 5.88446 14.4622 6.07878C14.4623 6.07861 14.4621 6.07896 14.4622 6.07878L13.5594 7.60376C13.4147 7.84811 13.4147 8.15189 13.5594 8.39625L14.4619 9.92069C14.4618 9.92061 14.4619 9.92078 14.4619 9.92069C14.5769 10.1151 14.6041 10.351 14.5215 10.5612C14.502 10.6106 14.482 10.6598 14.4615 10.7087C14.4611 10.7097 14.4607 10.7106 14.4603 10.7115C14.2302 11.2586 13.9327 11.7703 13.578 12.2361C13.5454 12.2789 13.5123 12.3214 13.4788 12.3634C13.3379 12.5399 13.1203 12.6342 12.8945 12.6317L11.1252 12.6123C11.1075 12.6121 11.0898 12.6125 11.0722 12.6135C10.8089 12.6285 10.5695 12.7765 10.4389 13.0085L9.57059 14.5513C9.57071 14.5511 9.57048 14.5515 9.57059 14.5513C9.45957 14.7481 9.26842 14.89 9.04488 14.9233C8.99149 14.9312 8.9379 14.9386 8.88413 14.9453C8.59608 14.9814 8.3026 15 8.00482 15C7.70697 15 7.41345 14.9814 7.12535 14.9453C7.12481 14.9452 7.12427 14.9451 7.12373 14.9451C7.0705 14.9384 7.01745 14.9311 6.9646 14.9232C6.74083 14.8899 6.54987 14.7484 6.4389 14.5512L5.57061 13.0085C5.43133 12.7611 5.16825 12.6092 4.8843 12.6123L3.11513 12.6317C2.88933 12.6342 2.6717 12.5399 2.53083 12.3634C2.49728 12.3214 2.4642 12.2789 2.43161 12.2361C2.07694 11.7702 1.77908 11.2578 1.54901 10.7107M3.22729 4.36961C3.21026 4.39198 3.19338 4.41447 3.17666 4.43709C2.8947 4.81844 2.65706 5.23403 2.4711 5.67626L3.31065 7.0943C3.64133 7.65283 3.64133 8.34718 3.31065 8.9057L2.4711 10.3237C2.48229 10.3503 2.49366 10.3769 2.50522 10.4033C2.69721 10.8419 2.94034 11.2535 3.22729 11.6304L4.87334 11.6124C5.52238 11.6053 6.1237 11.9524 6.44206 12.5181L7.24972 13.953C7.25857 13.9542 7.26742 13.9552 7.27628 13.9563C7.51472 13.9851 7.75783 14 8.00482 14C8.26093 14 8.51287 13.984 8.75977 13.9531L9.56744 12.5181C9.8858 11.9524 10.4871 11.6053 11.1362 11.6124L12.7823 11.6304C12.7994 11.608 12.8162 11.5855 12.833 11.5629C13.1149 11.1816 13.3525 10.766 13.5385 10.3239L12.6989 8.9057C12.6575 8.83589 12.6214 8.76395 12.5904 8.69042C12.3733 8.17571 12.4095 7.58301 12.6989 7.0943L13.5385 5.67613C13.5273 5.64954 13.5159 5.62304 13.5044 5.59663C13.3124 5.15806 13.0693 4.74652 12.7823 4.36961L11.1362 4.38764C10.4871 4.39475 9.8858 4.04758 9.56744 3.48194L8.75977 2.04693C8.75094 2.04583 8.74209 2.04474 8.73325 2.04367C8.49483 2.01487 8.25177 2 8.00482 2C7.74865 2 7.49667 2.016 7.24973 2.04695L6.44206 3.48194C6.1237 4.04758 5.52238 4.39475 4.87334 4.38764L3.22729 4.36961ZM8.00473 9.65101C8.91655 9.65101 9.65573 8.91183 9.65573 8.00001C9.65573 7.08819 8.91655 6.34902 8.00473 6.34902C7.09291 6.34902 6.35373 7.08819 6.35373 8.00001C6.35373 8.91183 7.09291 9.65101 8.00473 9.65101ZM10.6557 8.00001C10.6557 9.46412 9.46884 10.651 8.00473 10.651C6.54063 10.651 5.35373 9.46412 5.35373 8.00001C5.35373 6.53591 6.54063 5.34902 8.00473 5.34902C9.46884 5.34902 10.6557 6.53591 10.6557 8.00001Z" fill="#767A8A"/>
</svg>
