<!-- Copyright 2000-2021 JetBrains s.r.o. and contributors. Use of this source code is governed by the Apache 2.0 license. -->
<svg width="16" height="16" viewBox="0 0 16 16" fill="none" xmlns="http://www.w3.org/2000/svg">
<path d="M2.07888 12L2.88002 9.69032H6.28911L7.08598 12H8.48371L5.34308 3.27271H3.82178L0.681152 12H2.07888ZM3.26354 8.58236L4.55047 4.85793H4.61865L5.90558 8.58236H3.26354Z" fill="#767A8A"/>
<path d="M11.5466 12.1449C12.629 12.1449 13.2383 11.5951 13.4812 11.1051H13.5324V12H14.7767V7.65339C14.7767 5.74856 13.2767 5.3693 12.2369 5.3693C11.0522 5.3693 9.96134 5.84657 9.5352 7.03975L10.7326 7.31248C10.9201 6.84799 11.3974 6.40055 12.254 6.40055C13.0764 6.40055 13.4983 6.83094 13.4983 7.57242V7.60225C13.4983 8.06674 13.021 8.05822 11.8449 8.19458C10.6048 8.33947 9.33492 8.66333 9.33492 10.1505C9.33492 11.4375 10.3022 12.1449 11.5466 12.1449ZM11.8236 11.1221C11.1034 11.1221 10.5835 10.7983 10.5835 10.1676C10.5835 9.48577 11.1886 9.24288 11.9258 9.14486C12.3392 9.08947 13.3193 8.97867 13.5025 8.79543V9.63918C13.5025 10.4148 12.8846 11.1221 11.8236 11.1221Z" fill="#767A8A"/>
</svg>
