<!-- Copyright 2000-2022 JetBrains s.r.o. and contributors. Use of this source code is governed by the Apache 2.0 license. -->
<svg width="16" height="16" viewBox="0 0 16 16" fill="none" xmlns="http://www.w3.org/2000/svg">
<path fill-rule="evenodd" clip-rule="evenodd" d="M11.4235 6.75299C11.4235 6.44012 11.1699 6.18649 10.857 6.18649H10.3455L10.5932 5.03871C10.6751 4.65871 10.3855 4.29999 9.99681 4.29999C9.70932 4.29999 9.46085 4.5007 9.40039 4.78175L9.09702 6.19199H7.56252L7.81067 5.03845C7.8924 4.6585 7.60282 4.29999 7.21417 4.29999C6.92651 4.29999 6.67793 4.50091 6.6176 4.78217L6.31402 6.19749H5.51652C5.20365 6.19749 4.95002 6.45112 4.95002 6.76399C4.95002 7.07686 5.20366 7.33049 5.51652 7.33049H6.07202L5.72002 8.98599H4.96377C4.65242 8.98599 4.40002 9.23839 4.40002 9.54974C4.40002 9.86109 4.65242 10.1135 4.96378 10.1135H5.47802L5.2304 11.2613C5.14842 11.6413 5.438 12 5.82674 12C6.11423 12 6.3627 11.7993 6.42316 11.5182L6.72652 10.108H8.26102L8.01288 11.2615C7.93115 11.6415 8.22073 12 8.60938 12C8.89704 12 9.14562 11.7991 9.20595 11.5178L9.50953 10.1025H10.3098C10.6211 10.1025 10.8735 9.85009 10.8735 9.53874C10.8735 9.22739 10.6211 8.97499 10.3098 8.97499H9.75152L10.1035 7.31949H10.857C11.1699 7.31949 11.4235 7.06586 11.4235 6.75299ZM8.50303 8.98049H6.96852L7.32052 7.32499H8.85502L8.50303 8.98049ZM4.31342 4.60696C4.55358 4.83529 4.56317 5.21507 4.33484 5.45522L1.72793 8.19722L4.33484 10.9392C4.56317 11.1794 4.55358 11.5592 4.31342 11.7875C4.07327 12.0158 3.69349 12.0062 3.46516 11.7661L0.465195 8.61064L0.0721436 8.19722L0.465195 7.7838L3.46516 4.62839C3.69349 4.38823 4.07327 4.37864 4.31342 4.60696ZM11.6866 11.7875C11.4465 11.5592 11.4369 11.1794 11.6652 10.9393L14.2722 8.19728L11.6652 5.45528C11.4369 5.21513 11.4465 4.83535 11.6866 4.60702C11.9268 4.3787 12.3065 4.38828 12.5349 4.62844L15.5349 7.78385L15.928 8.19728L15.5349 8.6107L12.5349 11.7661C12.3065 12.0063 11.9268 12.0159 11.6866 11.7875Z" fill="#3574F0"/>
</svg>
