<!-- Copyright 2000-2022 JetBrains s.r.o. and contributors. Use of this source code is governed by the Apache 2.0 license. -->
<svg width="16" height="16" viewBox="0 0 16 16" fill="none" xmlns="http://www.w3.org/2000/svg">
<path fill-rule="evenodd" clip-rule="evenodd" d="M11.4236 6.75299C11.4236 6.44012 11.17 6.18649 10.8571 6.18649H10.3456L10.5933 5.03871C10.6753 4.65871 10.3857 4.29999 9.99693 4.29999C9.70944 4.29999 9.46097 4.5007 9.40051 4.78175L9.09715 6.19199H7.56265L7.81079 5.03845C7.89253 4.6585 7.60294 4.29999 7.2143 4.29999C6.92664 4.29999 6.67805 4.50091 6.61772 4.78217L6.31415 6.19749H5.51665C5.20378 6.19749 4.95015 6.45112 4.95015 6.76399C4.95015 7.07686 5.20378 7.33049 5.51665 7.33049H6.07215L5.72015 8.98599H4.9639C4.65255 8.98599 4.40015 9.23839 4.40015 9.54974C4.40015 9.86109 4.65255 10.1135 4.9639 10.1135H5.47815L5.23052 11.2613C5.14854 11.6413 5.43812 12 5.82686 12C6.11435 12 6.36282 11.7993 6.42328 11.5182L6.72665 10.108H8.26115L8.013 11.2615C7.93127 11.6415 8.22086 12 8.6095 12C8.89716 12 9.14574 11.7991 9.20607 11.5178L9.50965 10.1025H10.3099C10.6212 10.1025 10.8736 9.85009 10.8736 9.53874C10.8736 9.22739 10.6212 8.97499 10.3099 8.97499H9.75165L10.1036 7.31949H10.8571C11.17 7.31949 11.4236 7.06586 11.4236 6.75299ZM8.50315 8.98049H6.96865L7.32065 7.32499H8.85515L8.50315 8.98049ZM4.31354 4.60696C4.5537 4.83529 4.56329 5.21507 4.33497 5.45522L1.72805 8.19722L4.33497 10.9392C4.56329 11.1794 4.5537 11.5592 4.31354 11.7875C4.07339 12.0158 3.69361 12.0062 3.46529 11.7661L0.465317 8.61064L0.0722656 8.19722L0.465317 7.7838L3.46529 4.62839C3.69361 4.38823 4.07339 4.37864 4.31354 4.60696ZM11.6867 11.7875C11.4466 11.5592 11.437 11.1794 11.6653 10.9393L14.2723 8.19728L11.6653 5.45528C11.437 5.21513 11.4466 4.83535 11.6867 4.60702C11.9269 4.3787 12.3067 4.38828 12.535 4.62844L15.535 7.78385L15.9281 8.19728L15.535 8.6107L12.535 11.7661C12.3067 12.0063 11.9269 12.0159 11.6867 11.7875Z" fill="#3574F0"/>
</svg>
