<!-- Copyright 2000-2022 JetBrains s.r.o. and contributors. Use of this source code is governed by the Apache 2.0 license. -->
<svg width="16" height="16" viewBox="0 0 16 16" fill="none" xmlns="http://www.w3.org/2000/svg">
<path fill-rule="evenodd" clip-rule="evenodd" d="M10.0026 6.66977C9.72954 6.73911 9.50472 6.79881 9.2758 6.8596C9.09326 6.90807 8.90812 6.95724 8.69384 7.01253L8.68096 7.01598C8.57626 7.04411 8.56534 7.04704 8.46793 6.93463C8.35107 6.8022 8.26538 6.71651 8.10179 6.63861C7.61101 6.39711 7.13581 6.46722 6.69177 6.75546C6.16204 7.09822 5.88939 7.60458 5.89718 8.23559C5.90497 8.8588 6.33342 9.37295 6.94885 9.45864C7.47858 9.52875 7.92261 9.34179 8.27317 8.94449C8.32517 8.88094 8.37288 8.8131 8.42584 8.73781L8.42585 8.73779C8.4443 8.71156 8.46338 8.68443 8.48351 8.65625H6.98001C6.81641 8.65625 6.77746 8.55498 6.83199 8.42255C6.93327 8.18106 7.12023 7.77597 7.22929 7.57342C7.25266 7.52668 7.30719 7.44878 7.42405 7.44878H9.93084C10.0434 7.09208 10.2261 6.75502 10.4698 6.4361C11.0385 5.68825 11.724 5.29874 12.651 5.13515C13.4456 4.99492 14.1935 5.07282 14.8712 5.53244C15.4866 5.95311 15.8684 6.52179 15.9696 7.26965C16.1021 8.32132 15.7982 9.17823 15.0738 9.91051C14.5596 10.4324 13.9286 10.7596 13.2041 10.9076C13.0659 10.9332 12.9277 10.9454 12.7917 10.9573C12.7208 10.9636 12.6504 10.9697 12.5809 10.9778C11.872 10.9622 11.2254 10.7596 10.6801 10.2922C10.2967 9.96076 10.0325 9.55337 9.90119 9.07912C9.81012 9.26301 9.70123 9.43911 9.57413 9.60665C9.01324 10.3467 8.28096 10.8063 7.35393 10.931C6.5905 11.0323 5.88159 10.8842 5.25838 10.4168C4.68191 9.98058 4.35473 9.40411 4.26903 8.68742C4.16776 7.83829 4.41705 7.07485 4.9312 6.4049C5.4843 5.68042 6.21657 5.2208 7.11244 5.05721C7.84471 4.92477 8.54583 5.01046 9.17683 5.43892C9.58971 5.71158 9.88573 6.0855 10.0805 6.53733C10.1272 6.60744 10.0961 6.6464 10.0026 6.66977ZM1.20743 6.80999C1.17627 6.80999 1.16848 6.79441 1.18406 6.77104L1.34765 6.56071C1.36323 6.53734 1.40218 6.52176 1.43334 6.52176H4.21442C4.24558 6.52176 4.25337 6.54513 4.23779 6.5685L4.10536 6.77104C4.08978 6.79441 4.05083 6.81778 4.02746 6.81778L1.20743 6.80999ZM0.0311607 7.5267C1.48322e-08 7.5267 -0.00779016 7.51112 0.00779015 7.48775L0.171383 7.27742C0.186964 7.25404 0.225915 7.23846 0.257075 7.23846H3.80939C3.84055 7.23846 3.85613 7.26183 3.84834 7.28521L3.78602 7.47217C3.77823 7.50333 3.74707 7.51891 3.7159 7.51891L0.0311607 7.5267ZM1.89304 8.1966C1.87746 8.21997 1.88525 8.24334 1.91641 8.24334L3.61467 8.25113C3.63804 8.25113 3.6692 8.22776 3.6692 8.1966L3.68478 8.00964C3.68478 7.97848 3.6692 7.95511 3.63804 7.95511H2.08001C2.04885 7.95511 2.01769 7.97848 2.00211 8.00185L1.89304 8.1966ZM14.4296 7.74722C14.4311 7.77339 14.4327 7.80097 14.435 7.83054C14.396 8.50049 14.061 8.99906 13.4456 9.31846C13.0327 9.52879 12.6043 9.55216 12.1758 9.3652C11.6149 9.11591 11.3189 8.50049 11.4591 7.89286C11.6305 7.16058 12.0979 6.70097 12.8224 6.53737C13.5625 6.36599 14.2714 6.80224 14.4116 7.57346C14.4226 7.62862 14.4258 7.68377 14.4296 7.74722Z" fill="#00ACD7"/>
</svg>
