<!-- Copyright 2000-2021 JetBrains s.r.o. and contributors. Use of this source code is governed by the Apache 2.0 license. -->
<svg width="16" height="16" viewBox="0 0 16 16" fill="none" xmlns="http://www.w3.org/2000/svg">
<g clip-path="url(#clip0_839_16824)">
<path d="M15.1308 2.74313C14.6656 2.27796 14.038 2.01165 13.3803 2.00037C12.7226 1.9891 12.0862 2.23374 11.6054 2.68268C11.5813 2.7056 11.5621 2.73318 11.549 2.76374C11.5359 2.7943 11.5292 2.82721 11.5292 2.86046C11.5292 2.89372 11.5359 2.92662 11.549 2.95718C11.5621 2.98774 11.5813 3.01532 11.6054 3.03824L11.9112 3.35113C11.9525 3.39222 12.0073 3.41701 12.0654 3.42093C12.1236 3.42485 12.1812 3.40764 12.2276 3.37246C12.5209 3.13823 12.8933 3.02644 13.2671 3.06046C13.6408 3.09448 13.9869 3.27168 14.2331 3.555C14.4792 3.83832 14.6063 4.20582 14.5877 4.58065C14.5691 4.95549 14.4063 5.30863 14.1334 5.56624C12.1192 7.57868 9.4312 1.93602 3.32987 4.84446C3.22689 4.89393 3.13528 4.9642 3.06083 5.05084C2.98637 5.13749 2.93068 5.23862 2.89727 5.34787C2.86386 5.45712 2.85346 5.5721 2.86672 5.68557C2.87998 5.79904 2.91662 5.90853 2.97431 6.00713L4.02142 7.81513C4.12984 8.00371 4.30836 8.14183 4.51812 8.19943C4.72788 8.25703 4.9519 8.22945 5.14142 8.12268L5.16631 8.10846L5.14676 8.12268L5.60542 7.86668C6.1226 7.54558 6.61148 7.18101 7.06676 6.77691C7.11182 6.73583 7.17007 6.71218 7.23101 6.71023C7.29196 6.70827 7.3516 6.72813 7.3992 6.76624C7.42494 6.78783 7.44582 6.81461 7.46048 6.84484C7.47513 6.87506 7.48323 6.90805 7.48424 6.94163C7.48525 6.9752 7.47914 7.00861 7.46632 7.03967C7.45351 7.07072 7.43427 7.09871 7.40987 7.1218C6.93068 7.55343 6.4143 7.94191 5.86676 8.28268H5.85076L5.38676 8.54224C5.19079 8.65228 4.96973 8.70985 4.74498 8.70935C4.51221 8.71019 4.28332 8.64966 4.08139 8.53387C3.87946 8.41808 3.71161 8.25111 3.59476 8.04979L2.60454 6.34135C0.711202 7.68891 -0.451464 10.2774 0.177869 13.5556C0.1882 13.6108 0.217456 13.6607 0.260608 13.6968C0.303759 13.7328 0.358109 13.7526 0.414313 13.7529H1.53076C1.59226 13.7545 1.65206 13.7326 1.69798 13.6916C1.74389 13.6507 1.77246 13.5938 1.77787 13.5325C1.83032 13.1354 2.02531 12.7708 2.32652 12.5068C2.62774 12.2428 3.01464 12.0972 3.4152 12.0972C3.81576 12.0972 4.20267 12.2428 4.50388 12.5068C4.80509 12.7708 5.00008 13.1354 5.05254 13.5325C5.05949 13.5908 5.08758 13.6445 5.13148 13.6835C5.17538 13.7225 5.23205 13.744 5.29076 13.744H6.38231C6.44092 13.7436 6.49738 13.7219 6.5412 13.683C6.58502 13.6441 6.61321 13.5906 6.62054 13.5325C6.67299 13.1354 6.86798 12.7708 7.16919 12.5068C7.4704 12.2428 7.85731 12.0972 8.25787 12.0972C8.65843 12.0972 9.04533 12.2428 9.34655 12.5068C9.64776 12.7708 9.84275 13.1354 9.8952 13.5325C9.90253 13.5906 9.93072 13.6441 9.97454 13.683C10.0184 13.7219 10.0748 13.7436 10.1334 13.744H11.2179C11.2814 13.744 11.3423 13.719 11.3876 13.6745C11.4328 13.6299 11.4587 13.5693 11.4596 13.5058C11.4845 11.9769 11.897 10.2205 13.0721 9.34046C17.1432 6.29513 16.073 3.68535 15.1308 2.74313ZM10.9796 7.34224L10.2028 6.95291C10.2027 6.86973 10.2239 6.78791 10.2644 6.71526C10.3049 6.64261 10.3634 6.58154 10.4342 6.53788C10.505 6.49421 10.5858 6.4694 10.6689 6.46582C10.752 6.46223 10.8346 6.47998 10.9089 6.51739C10.9832 6.55479 11.0467 6.6106 11.0933 6.67949C11.1399 6.74838 11.1681 6.82806 11.1752 6.91094C11.1823 6.99382 11.168 7.07713 11.1338 7.15294C11.0996 7.22875 11.0465 7.29453 10.9796 7.34402V7.34224Z" fill="#13A4CD"/>
</g>
<defs>
<clipPath id="clip0_839_16824">
<rect width="16" height="16" fill="white"/>
</clipPath>
</defs>
</svg>
