<!-- Copyright 2000-2024 JetBrains s.r.o. and contributors. Use of this source code is governed by the Apache 2.0 license. -->
<svg width="16" height="16" viewBox="0 0 16 16" fill="none" xmlns="http://www.w3.org/2000/svg">
<path fill-rule="evenodd" clip-rule="evenodd" d="M9.5 2C9.5 2.08119 9.49355 2.16087 9.48113 2.23856L12.4977 3.88398C12.7634 3.64525 13.1147 3.5 13.5 3.5C14.3284 3.5 15 4.17157 15 5C15 5.65311 14.5826 6.20873 14 6.41465V9.58535C14.5826 9.79127 15 10.3469 15 11C15 11.8284 14.3284 12.5 13.5 12.5C13.1149 12.5 12.7636 12.3549 12.498 12.1163L9.4812 13.7618C9.49357 13.8394 9.5 13.9189 9.5 14C9.5 14.8284 8.82843 15.5 8 15.5C7.17157 15.5 6.5 14.8284 6.5 14C6.5 13.9189 6.50643 13.8394 6.5188 13.7618L3.50197 12.1163C3.23636 12.3549 2.88513 12.5 2.5 12.5C1.67157 12.5 1 11.8284 1 11C1 10.3469 1.4174 9.79127 2 9.58535V6.41465C1.4174 6.20873 1 5.65311 1 5C1 4.17157 1.67157 3.5 2.5 3.5C2.88527 3.5 3.23661 3.64525 3.50226 3.88398L6.51887 2.23856C6.50645 2.16087 6.5 2.08119 6.5 2C6.5 1.17157 7.17157 0.5 8 0.5C8.82843 0.5 9.5 1.17157 9.5 2ZM7.0154 3.13165C7.00957 3.12657 7.00378 3.12145 6.99803 3.11628L3.9812 4.76183C3.99357 4.83939 4 4.91895 4 5C4 5.65311 3.5826 6.20873 3 6.41465V9.55629L7.0154 3.13165ZM7.96468 3.49959L3.9019 10H12.0977L8.03488 3.4996C8.02329 3.49987 8.01166 3.5 8 3.5C7.9882 3.5 7.97642 3.49986 7.96468 3.49959ZM8.98431 3.1319L13 9.55699V6.41465C12.4174 6.20873 12 5.65311 12 5C12 4.91895 12.0064 4.83939 12.0188 4.76183L9.00197 3.11628C8.99613 3.12153 8.99024 3.12674 8.98431 3.1319ZM12 11H4C4 11.0812 3.99355 11.1609 3.98113 11.2386L6.99774 12.884C7.26339 12.6452 7.61473 12.5 8 12.5C8.38527 12.5 8.73661 12.6452 9.00226 12.884L12.0189 11.2386C12.0065 11.1609 12 11.0812 12 11Z" fill="#DF0098"/>
</svg>
