<!-- Copyright 2000-2022 JetBrains s.r.o. and contributors. Use of this source code is governed by the Apache 2.0 license. -->
<svg width="16" height="16" viewBox="0 0 16 16" fill="none" xmlns="http://www.w3.org/2000/svg">
<path d="M6.36836 4.9736C6.62993 4.77016 6.67705 4.39319 6.47361 4.13163C6.27017 3.87006 5.8932 3.82294 5.63163 4.02638L0.522705 7.99999L5.63163 11.9736C5.8932 12.177 6.27017 12.1299 6.47361 11.8684C6.67705 11.6068 6.62993 11.2298 6.36836 11.0264L2.47729 7.99999L6.36836 4.9736Z" fill="#57965C"/>
<path d="M9.63164 4.9736C9.37007 4.77016 9.32295 4.39319 9.52639 4.13163C9.72983 3.87006 10.1068 3.82294 10.3684 4.02638L15.4773 7.99999L10.3684 11.9736C10.1068 12.177 9.72983 12.1299 9.52639 11.8684C9.32295 11.6068 9.37007 11.2298 9.63164 11.0264L13.5227 7.99999L9.63164 4.9736Z" fill="#57965C"/>
</svg>
