<!-- Copyright 2000-2025 JetBrains s.r.o. and contributors. Use of this source code is governed by the Apache 2.0 license. -->
<svg width="16" height="16" viewBox="0 0 16 16" fill="none" xmlns="http://www.w3.org/2000/svg">
<path d="M11.5 6C11.7 6 11.8811 6.11896 11.96 6.30273L14.96 13.3027L14.9902 13.3994C15.0372 13.6272 14.9193 13.8647 14.6973 13.96C14.4751 14.0552 14.2224 13.9763 14.0898 13.7852L14.04 13.6973L13.3125 12H9.6875L8.95996 13.6973C8.85114 13.951 8.55651 14.0687 8.30273 13.96C8.049 13.8511 7.93127 13.5565 8.04004 13.3027L11.04 6.30273L11.0742 6.2373C11.1643 6.0912 11.3249 6 11.5 6ZM10.1162 11H12.8838L11.5 7.77051L10.1162 11Z" fill="#548AF7"/>
<path d="M6.50007 1C6.77621 1 7.00007 1.22386 7.00007 1.5V3.00391L10.5001 3C10.7758 2.99985 10.9993 3.22337 11.0001 3.49902C11.0006 3.77528 10.7773 3.99961 10.501 4L8.99812 4.00195C8.99797 4.03017 8.99736 4.05917 8.99226 4.08789C8.64682 6.03119 7.87785 7.58312 6.82136 8.84375C7.47902 9.40944 8.2636 9.97087 9.18757 10.4697L9.19343 10.4717L9.24324 10.4932L8.84577 11.4219C8.83998 11.4188 8.83365 11.4155 8.82722 11.4121C7.77157 10.8543 6.88147 10.2178 6.14167 9.57812C5.16028 10.5402 3.99528 11.3115 2.7237 11.9473C2.47676 12.0706 2.17627 11.9706 2.05281 11.7236C1.92943 11.4767 2.02964 11.1763 2.27644 11.0527C3.45756 10.4622 4.51986 9.76063 5.40827 8.89746C5.00721 8.49816 4.66233 8.1085 4.37117 7.74609C3.91267 7.17539 3.58447 6.67179 3.36921 6.30859C3.26168 6.12715 3.18232 5.98019 3.12898 5.87695C3.08717 5.79603 3.06714 5.75034 3.04499 5.70605C2.93125 5.45471 3.04279 5.15898 3.29402 5.04492C3.54511 4.93122 3.83983 5.04228 3.95417 5.29297C3.95417 5.29297 3.95604 5.29563 3.9571 5.29785C3.95921 5.30234 3.96283 5.30994 3.96785 5.32031C3.97803 5.34137 3.99419 5.37444 4.01667 5.41797C4.06171 5.50514 4.13244 5.63494 4.22956 5.79883C4.42396 6.12682 4.72632 6.58999 5.15144 7.11914C5.41507 7.44728 5.72772 7.79846 6.08894 8.16016C7.01213 7.04387 7.67544 5.68674 7.98933 4.00293L2.50105 4.00879C2.22505 4.0091 2.00061 3.78576 2.00007 3.50977C1.99974 3.23365 2.2239 3.00913 2.50007 3.00879L6.00007 3.00488V1.5C6.00007 1.22395 6.22405 1.00014 6.50007 1Z" fill="#CED0D6"/>
</svg>
