<!-- Copyright 2000-2023 JetBrains s.r.o. and contributors. Use of this source code is governed by the Apache 2.0 license. -->
<svg width="16" height="16" viewBox="0 0 16 16" fill="none" xmlns="http://www.w3.org/2000/svg">
<path d="M3.18481 13V3.89999H4.27031V13H3.18481Z" fill="#834DF0"/>
<path d="M5.58423 13V3.89999H7.37823C7.84623 3.89999 8.22756 4.03216 8.52223 4.29649C8.8169 4.56083 9.03356 4.97033 9.17223 5.52499C9.3109 6.07533 9.38023 6.79249 9.38023 7.67649V9.22349C9.38023 10.1075 9.3109 10.8268 9.17223 11.3815C9.03356 11.9318 8.8169 12.3392 8.52223 12.6035C8.22756 12.8678 7.84623 13 7.37823 13H5.58423ZM7.37823 11.986C7.58189 11.986 7.74656 11.8885 7.87223 11.6935C8.00223 11.4985 8.09756 11.1995 8.15823 10.7965C8.2189 10.3935 8.24923 9.86916 8.24923 9.22349V7.67649C8.24923 7.03083 8.2189 6.50649 8.15823 6.10349C8.09756 5.70049 8.00223 5.40149 7.87223 5.20649C7.74656 5.01149 7.58189 4.91399 7.37823 4.91399H6.66973V11.986H7.37823Z" fill="#834DF0"/>
<path d="M10.3831 3.89999H11.4556V11.9795H13.5291V13H10.3831V3.89999Z" fill="#834DF0"/>
</svg>
