<!-- Copyright 2000-2025 JetBrains s.r.o. and contributors. Use of this source code is governed by the Apache 2.0 license. -->
<svg width="16" height="16" viewBox="0 0 16 16" fill="none" xmlns="http://www.w3.org/2000/svg">
<path d="M11 2C11.5523 2 12 2.44772 12 3V9H4V6H6C7.10457 6 8 5.10457 8 4V2H11Z" fill="#2F2936"/>
<path d="M7 4C7 4.06893 6.99277 4.13617 6.97949 4.20117C6.88625 4.65686 6.48325 5 6 5H4.41406L7 2.41406V4Z" fill="#2F2936"/>
<path fill-rule="evenodd" clip-rule="evenodd" d="M11 1C12.1046 1 13 1.89543 13 3V9H12V3C12 2.44772 11.5523 2 11 2H8V4C8 5.10457 7.10457 6 6 6H4V9H3V5.41406C3.00004 5.1489 3.10547 4.89453 3.29297 4.70703L6.70703 1.29297C6.89453 1.10547 7.1489 1.00004 7.41406 1H11ZM4.41406 5H6C6.55228 5 7 4.55228 7 4V2.41406L4.41406 5Z" fill="#A571E6"/>
<path d="M1.36279 16V15.098H2.56819V10.916H1.36279V10.014H4.80679V10.916H3.60139V15.098H4.80679V16H1.36279Z" fill="#CED0D6"/>
<path d="M6.15659 16V10.014H7.93599C8.34052 10.014 8.69039 10.0905 8.98559 10.2436C9.28626 10.3967 9.51859 10.6126 9.68259 10.8914C9.84659 11.1702 9.92859 11.5009 9.92859 11.8836V14.1222C9.92859 14.4994 9.84659 14.8301 9.68259 15.1144C9.51859 15.3932 9.28626 15.6119 8.98559 15.7704C8.69039 15.9235 8.34052 16 7.93599 16H6.15659ZM7.18159 15.057H7.93599C8.23119 15.057 8.46626 14.975 8.64119 14.811C8.81612 14.6415 8.90359 14.4119 8.90359 14.1222V11.8836C8.90359 11.5993 8.81612 11.3752 8.64119 11.2112C8.46626 11.0417 8.23119 10.957 7.93599 10.957H7.18159V15.057Z" fill="#CED0D6"/>
<path d="M11.303 16V10.014H12.328V15.0488H14.87V16H11.303Z" fill="#CED0D6"/>
</svg>
