<!-- Copyright 2000-2022 JetBrains s.r.o. and contributors. Use of this source code is governed by the Apache 2.0 license. -->
<svg width="16" height="16" viewBox="0 0 16 16" fill="none" xmlns="http://www.w3.org/2000/svg">
<path d="M15 1H1V15H15V1Z" fill="#3D3223"/>
<path fill-rule="evenodd" clip-rule="evenodd" d="M14 2H2V14H14V2ZM15 1V15H1V1H15Z" fill="#F2C55C"/>
<path d="M9.57788 10.4719C9.85296 10.9211 10.2108 11.2512 10.8438 11.2512C11.3755 11.2512 11.7152 10.9855 11.7152 10.6183C11.7152 10.1782 11.3662 10.0224 10.7809 9.76635L10.4601 9.62871C9.53409 9.23419 8.9189 8.73995 8.9189 7.69513C8.9189 6.73268 9.65223 6 10.7983 6C11.6142 6 12.2008 6.28397 12.6235 7.02748L11.6242 7.66912C11.4042 7.2746 11.1668 7.11918 10.7983 7.11918C10.4224 7.11918 10.1842 7.35762 10.1842 7.66912C10.1842 8.0541 10.4226 8.20995 10.9732 8.4484L11.294 8.58583C12.3844 9.0534 13 9.53008 13 10.6018C13 11.7572 12.0924 12.3901 10.8735 12.3901C9.68171 12.3901 8.91175 11.8222 8.53501 11.0778L9.57788 10.4719ZM5.04461 10.5831C5.2462 10.9408 5.42959 11.2432 5.87049 11.2432C6.29211 11.2432 6.55808 11.0782 6.55808 10.4368V6.07327H7.84135V10.4542C7.84135 11.783 7.06228 12.3877 5.92512 12.3877C4.89764 12.3877 4.30261 11.856 4 11.2156L5.04461 10.5831Z" fill="white"/>
</svg>
