<!-- Copyright 2000-2023 JetBrains s.r.o. and contributors. Use of this source code is governed by the Apache 2.0 license. -->
<svg width="16" height="16" viewBox="0 0 16 16" fill="none" xmlns="http://www.w3.org/2000/svg">
<path d="M14 4C14 2.89543 13.1046 2 12 2H4C2.89543 2 2 2.89543 2 4V12C2 13.1046 2.89543 14 4 14H12C13.1046 14 14 13.1046 14 12V4Z" fill="#F2C55C"/>
<path d="M9.55434 11.8593C9.88209 12.0132 10.2583 12.0901 10.6829 12.0901C11.1047 12.0901 11.4795 12.0117 11.8073 11.855C12.135 11.6982 12.3901 11.4831 12.5725 11.2095C12.7549 10.933 12.8461 10.6238 12.8461 10.2818C12.8461 9.99963 12.7834 9.73315 12.658 9.48235C12.5326 9.23155 12.3545 9.02208 12.1236 8.85393C11.8956 8.68578 11.6348 8.57605 11.3413 8.52475L10.3452 8.3623C10.1429 8.3281 9.97899 8.24118 9.85359 8.10153C9.72819 7.95903 9.66549 7.79088 9.66549 7.59708C9.66549 7.43178 9.70824 7.28643 9.79374 7.16103C9.87924 7.03563 9.99894 6.93873 10.1528 6.87033C10.3067 6.80193 10.4849 6.76773 10.6872 6.76773C10.8896 6.76773 11.0677 6.80335 11.2216 6.8746C11.3755 6.94585 11.4952 7.04703 11.5807 7.17813C11.6662 7.30638 11.7089 7.45173 11.7089 7.61418H12.7221C12.7193 7.28073 12.6309 6.98433 12.4571 6.72498C12.2832 6.46563 12.041 6.26328 11.7303 6.11793C11.4225 5.97258 11.0705 5.8999 10.6744 5.8999C10.2868 5.8999 9.93909 5.97543 9.63129 6.12648C9.32349 6.27468 9.08266 6.4813 8.90881 6.74635C8.73781 7.00855 8.65231 7.30495 8.65231 7.63555C8.65231 7.912 8.70931 8.16708 8.82331 8.40078C8.94016 8.63163 9.10546 8.824 9.31921 8.9779C9.53296 9.1318 9.78519 9.2344 10.0759 9.2857L11.0891 9.4567C11.3114 9.49375 11.4895 9.5935 11.6234 9.75595C11.7574 9.91555 11.8244 10.1065 11.8244 10.3288C11.8244 10.5055 11.7773 10.6623 11.6833 10.7991C11.5921 10.933 11.461 11.037 11.29 11.1111C11.119 11.1852 10.9209 11.2223 10.6958 11.2223C10.4649 11.2223 10.2597 11.1824 10.0802 11.1026C9.90346 11.0199 9.76524 10.9045 9.66549 10.7563C9.56574 10.6081 9.51586 10.44 9.51586 10.2519H8.50269C8.50554 10.611 8.59959 10.9302 8.78484 11.2095C8.97009 11.4859 9.22659 11.7025 9.55434 11.8593Z" fill="#1E1F22"/>
<path d="M5.22179 11H4.21289V12H5.32012C5.64787 12 5.93857 11.9316 6.19222 11.7948C6.44587 11.6551 6.64394 11.4613 6.78644 11.2134C6.92894 10.9654 7.00019 10.6804 7.00019 10.3584L7.00024 6H5.99989L5.99984 10.222C5.99984 10.3759 5.96707 10.5127 5.90152 10.6324C5.83882 10.7492 5.74762 10.8404 5.62792 10.906C5.51107 10.9687 5.37569 11 5.22179 11Z" fill="#1E1F22"/>
</svg>
