<!-- Copyright 2000-2021 JetBrains s.r.o. and contributors. Use of this source code is governed by the Apache 2.0 license. -->
<svg width="16" height="16" viewBox="0 0 16 16" fill="none" xmlns="http://www.w3.org/2000/svg">
<path d="M14 2H2V14H14V2Z" fill="#F7E018"/>
<path d="M10.061 11.3751C10.3027 11.7697 10.6172 12.0598 11.1734 12.0598C11.6406 12.0598 11.9391 11.8263 11.9391 11.5037C11.9391 11.117 11.6324 10.98 11.1181 10.7551L10.8362 10.6341C10.0225 10.2875 9.48195 9.85318 9.48195 8.93508C9.48195 8.08937 10.1263 7.44556 11.1334 7.44556C11.8503 7.44556 12.3658 7.69508 12.7372 8.34841L11.8591 8.91222C11.6658 8.56556 11.4572 8.42898 11.1334 8.42898C10.8031 8.42898 10.5938 8.63851 10.5938 8.91222C10.5938 9.25051 10.8033 9.38746 11.2871 9.59699L11.569 9.71775C12.5271 10.1286 13.068 10.5475 13.068 11.4892C13.068 12.5044 12.2705 13.0606 11.1995 13.0606C10.1522 13.0606 9.47566 12.5616 9.14461 11.9075L10.061 11.3751ZM6.07757 11.4728C6.25471 11.7871 6.41586 12.0528 6.80328 12.0528C7.17376 12.0528 7.40747 11.9078 7.40747 11.3442V7.50994H8.53509V11.3595C8.53509 12.5271 7.85052 13.0585 6.85128 13.0585C5.94843 13.0585 5.42557 12.5913 5.15967 12.0285L6.07757 11.4728Z" fill="black"/>
</svg>
