<svg width="16" height="16" viewBox="0 0 16 16" xmlns="http://www.w3.org/2000/svg" xml:space="preserve" version="1.1">
 <metadata id="metadata8">image/svg+xml</metadata>
 <defs id="defs6">
  <clipPath id="clipPath18" clipPathUnits="userSpaceOnUse">
   <path  id="path20" d="m0,2494.84009l0,-2494.84009l1804.33997,0l0,2494.84009l-1804.33997,0z"/>
  </clipPath>
 </defs>
 <g>
  <title>Layer 1</title>
  <g display="none"  id="layer1" >
   <path fill-rule="nonzero" fill="#231f20" d="m21.51028,69.51058c-17.99882,18.41621 -29.13668,43.84341 -29.13668,71.97305l0,0c0,28.12375 11.13786,53.55426 29.13668,71.96706l0,0c18.00751,18.41281 42.82448,29.77463 70.26073,29.77463l0,0c27.43696,0 52.25569,-11.36182 70.26155,-29.77463l0,0c17.99765,-18.4128 29.13789,-43.84331 29.13789,-71.96706l0,0c0,-28.12962 -11.14024,-53.55682 -29.13789,-71.97304l0,0c-18.00586,-18.40918 -42.82459,-29.77099 -70.26155,-29.77334l0,0c-27.43625,0.0023 -52.25322,11.36416 -70.26073,29.77333l0,0zm-4.55598,148.39431c-19.12856,-19.5627 -30.9543,-46.59871 -30.9543,-76.42126l0,0c0,-29.82727 11.82574,-56.86069 30.9543,-76.42467l0,0c19.12411,-19.56752 45.59676,-31.69609 74.81671,-31.69258l0,0c29.2202,-0.0038 55.69554,12.12506 74.81636,31.69257l0,0c19.1302,19.564 30.95747,46.59976 30.95512,76.42469l0,0c0.002,29.82256 -11.82492,56.85857 -30.95512,76.42126l0,0c-19.12082,19.56645 -45.59616,31.69351 -74.81636,31.69351l0,0c-29.21995,0 -55.6926,-12.12706 -74.81671,-31.69351l0,0" id="path26-6" />
   <path fill-rule="evenodd" fill="#d33833" d="m194.35825,141.09204c0,57.95078 -45.92914,104.92969 -102.58582,104.92969c-56.65574,0 -102.58493,-46.97891 -102.58493,-104.92969c0,-57.95219 45.92919,-104.9318 102.58493,-104.9318c56.65667,0 102.58582,46.97961 102.58582,104.9318" id="path22" />
   <path fill-rule="nonzero" fill="#ef3d3a" d="m-6.63213,167.07967c0,0 -7.42649,-109.42448 93.40118,-112.5513l-7.03399,-11.7241l-54.71212,18.36814l-15.63244,17.97655l-13.67782,26.18459l-7.81667,30.48264l2.34482,20.32137" id="path24" />
   <path fill-rule="nonzero" fill="#231f20" d="m21.51028,69.51058c-17.99882,18.41621 -29.13668,43.84341 -29.13668,71.97305l0,0c0,28.12375 11.13786,53.55426 29.13668,71.96706l0,0c18.00751,18.41281 42.82448,29.77463 70.26073,29.77463l0,0c27.43696,0 52.25569,-11.36182 70.26155,-29.77463l0,0c17.99765,-18.4128 29.13789,-43.84331 29.13789,-71.96706l0,0c0,-28.12962 -11.14024,-53.55682 -29.13789,-71.97304l0,0c-18.00586,-18.40918 -42.82459,-29.77099 -70.26155,-29.77334l0,0c-27.43625,0.0023 -52.25322,11.36416 -70.26073,29.77333l0,0zm-4.55598,148.39431c-19.12856,-19.5627 -30.9543,-46.59871 -30.9543,-76.42126l0,0c0,-29.82727 11.82574,-56.86069 30.9543,-76.42467l0,0c19.12411,-19.56752 45.59676,-31.69609 74.81671,-31.69258l0,0c29.2202,-0.0038 55.69554,12.12506 74.81636,31.69257l0,0c19.1302,19.564 30.95747,46.59976 30.95512,76.42469l0,0c0.002,29.82256 -11.82492,56.85857 -30.95512,76.42126l0,0c-19.12082,19.56645 -45.59616,31.69351 -74.81636,31.69351l0,0c-29.21995,0 -55.6926,-12.12706 -74.81671,-31.69351l0,0" id="path26" />
  </g>
  <g display="inline" transform="matrix(0.114112 0 0 -0.114112 -2.42384 1.80204)"   id="g10">
   <path fill-rule="evenodd" fill="#f0d6b7" d="m126.91891,-97.29301l-12.50633,-1.87586l-16.88287,-1.87585l-10.94299,-0.31233l-10.62933,0.31233l-8.12921,2.50145l-7.19091,7.81575l-5.62757,15.94477l-1.25043,3.43938l-7.50343,2.5005l-4.37711,7.19109l-3.1263,10.3172l3.43957,9.06694l8.12808,2.81378l6.56549,-3.12704l3.12704,-6.87781l3.75172,0.6256l1.25007,1.56258l-1.25007,7.1911l-0.31327,9.06694l1.87585,12.50539l-0.07325,7.14325l5.70082,9.11385l10.0047,7.19109l17.50847,7.50342l19.38339,-2.81378l16.88269,-12.19305l7.8167,-12.50539l5.00195,-9.06694l1.25026,-22.51025l-3.75171,-19.38415l-6.87782,-17.19502l-6.56549,-9.06695" id="path28" />
   <path fill-rule="evenodd" fill="#335061" d="m116.28844,-151.37956l-44.70856,-1.87582l0,-7.50345l3.7517,-26.26196l-1.87586,-2.18912l-31.26375,10.63046l-2.18912,3.75172l-3.1263,35.32797l-7.18977,21.26002l-1.56372,5.00195l25.01078,17.19504l7.81668,3.12705l6.87765,-8.44135l5.94008,-5.31523l6.87875,-2.18819l3.12592,-0.93792l3.75172,-16.2571l2.81377,-3.4392l7.19128,2.50127l-5.0029,-9.69255l27.20009,-12.81773l-3.43845,-1.87582" id="path30" />
   <path fill-rule="evenodd" fill="#6d6b6d" d="m42.19197,-42.26764l8.12807,2.81378l6.56551,-3.12704l3.12704,-6.87781l3.75172,0.62558l0.93792,3.75171l-1.87585,7.19016l1.87585,17.19597l-1.56371,9.37927l5.62758,6.56549l12.19305,9.6916l-3.4392,4.68964l-17.19521,-8.44135l-7.1909,-5.62756l-4.06423,-8.75368l-6.25298,-8.44135l-1.87585,-10.00487l1.25119,-10.62955" id="path32" />
   <path fill-rule="evenodd" fill="#dcd9d8" d="m55.00969,-12.87955c0,0 4.68964,11.56746 23.4482,17.19502c18.75856,5.62756 0.93792,4.06497 0.93792,4.06497l-20.32114,-7.81668l-7.81669,-7.81575l-3.43844,-6.25317l7.19015,0.62561" id="path34" />
   <path fill-rule="evenodd" fill="#dcd9d8" d="m45.63042,-40.07943c0,0 -6.56551,21.88559 18.44603,25.0117l-0.93793,3.75171l-17.19484,-4.06497l-5.0029,-16.25709l1.25119,-10.62955l3.43845,2.1882" id="path36" />
   <path fill-rule="evenodd" fill="#f7e4cd" d="m55.6351,-69.15519l4.09357,3.96651c0,0 1.84763,-0.2148 2.15977,-2.40297c0.31214,-2.18913 1.25007,-21.8856 14.69358,-32.51608c1.22624,-0.96982 -10.00394,1.56446 -10.00394,1.56446l-10.00506,15.6315" id="path38" />
   <path fill-rule="evenodd" fill="#f7e4cd" d="m113.16327,-63.2153c0,0 0.72878,9.47682 3.28087,8.74805c2.55209,-0.72876 2.55209,-3.28085 2.55209,-3.28085c0,0 -6.19781,-4.00964 -5.83296,-5.46719" id="path40" />
   <path fill-rule="nonzero" fill="#f7e4cd" d="m139.11102,-28.51199c0,0 -5.15297,-1.08798 -5.62756,-5.62755c-0.47459,-4.54051 5.62756,-0.93794 6.56551,-0.6256" id="path42" />
   <path fill-rule="nonzero" fill="#f7e4cd" d="m101.28142,-28.82525c0,0 -6.87875,-0.93793 -6.87875,-5.3143c0,-4.3773 7.81686,-4.06497 10.00504,-2.18912" id="path44" />
   <path fill-rule="evenodd" fill="#f7e4cd" d="m58.76141,-49.14639c0,0 -11.88091,7.1911 -13.13098,0.31233c-1.25046,-6.87782 -4.06498,-11.88074 1.87585,-19.07087l-4.06423,1.25026l-3.75171,9.6916l-1.25008,9.37927l7.19017,7.50436l8.12883,-0.62561l4.68963,-3.75171l0.31252,-4.68964" id="path46" />
   <path fill-rule="evenodd" fill="#f7e4cd" d="m64.38896,-29.44992c0,0 5.31506,27.51224 32.20282,32.82747c22.1362,4.37543 33.76463,-0.93793 38.14194,-5.9399c0,0 -19.69649,23.44725 -38.45522,16.25709c-18.75855,-7.19109 -32.5142,-20.32207 -32.20205,-28.76248c0.53237,-14.37656 0.31252,-14.38217 0.31252,-14.38217" id="path48" />
   <path fill-rule="evenodd" fill="#f7e4cd" d="m136.92284,-5.68846c0,0 -9.06599,0.31233 -9.37927,-7.8167c0,0 -0.00093,-1.25024 0.62465,-2.5005c0,0 7.19205,8.12901 11.56842,3.75172" id="path50" />
   <path fill-rule="evenodd" fill="#f7e4cd" d="m97.22197,-16.8526c0,0 -1.56081,12.47723 -12.19859,5.22331c-6.87801,-4.68965 -6.25223,-11.25513 -5.00216,-12.50539c1.25045,-1.25121 0.91045,-3.76953 1.86236,-2.04092c0.95142,1.72859 0.63817,7.35614 4.07773,8.91873c3.43919,1.56354 9.07697,3.30997 11.26067,0.40427" id="path52" />
   <path fill-rule="evenodd" fill="#49728b" d="m67.82817,-101.35705l-29.38792,-13.13098c0,0 12.19307,-48.45991 5.93971,-63.46674l-4.37711,1.56258l-0.31252,18.4464l-8.1277,35.01547l-3.43957,9.69254l30.63834,20.63348l9.06676,-8.75275" id="path54" />
   <path fill-rule="evenodd" fill="#49728b" d="m70.85007,-128.1604l4.16936,-5.08713l0,-18.75856l-5.0029,0c0,0 -0.62466,13.13098 -0.62466,14.6947c0,1.56334 0.62466,7.1909 0.62466,7.1909" id="path56" />
   <path fill-rule="evenodd" fill="#49728b" d="m70.95447,-154.81987l-14.06893,-0.62465l4.06499,-2.8138l10.00394,-1.56334" id="path58" />
   <path fill-rule="evenodd" fill="#335061" d="m119.10222,-151.69283l11.56744,0.31255l2.8138,-28.76363l-11.88072,-1.56259l-2.50052,30.01367" id="path60" />
   <path fill-rule="evenodd" fill="#335061" d="m122.22833,-151.69283l17.5083,0.93793c0,0 7.19014,18.13315 7.19014,19.07108c0,0.93794 6.25316,26.2618 6.25316,26.2618l-14.06891,14.69357l-2.81378,2.50146l-7.50342,-7.50343l0,-29.07574l-6.56549,-26.88667" id="path62" />
   <path fill-rule="evenodd" fill="#49728b" d="m130.04408,-149.50444l-10.94186,-2.18839l1.56258,-8.75459c4.06405,-1.87587 10.9428,3.12703 10.9428,3.12703" id="path64" />
   <path fill-rule="evenodd" fill="#49728b" d="m130.35735,-94.7925l21.88466,-16.25709l0.6256,7.50342l-16.57036,15.31917l-5.9399,-6.5655" id="path66" />
   <path fill-rule="evenodd" fill="#ffffff" d="m81.80441,-213.28648l-6.47283,26.26569l-3.21934,19.38022l-0.53236,14.38519l29.29597,1.55956l18.22637,0.00301l-1.65732,-32.83046l2.81378,-25.32399l-0.31232,-4.68967l-23.76015,-1.87582l-14.38181,3.12628" id="path68" />
   <path fill-rule="evenodd" fill="#dcd9d8" d="m115.03723,-151.38029c0,0 -1.56258,-32.51532 3.12706,-55.65024c0,0 -9.37927,-5.94086 -23.13623,-7.50346l26.26234,0.93794l3.12611,1.87585l-3.75172,51.27278l-0.93792,10.94371" id="path70" />
   <path fill-rule="evenodd" fill="#ffffff" d="m134.0162,-177.64526l12.19305,3.43919l23.13492,1.25044l3.43938,10.62943l-6.25314,18.4463l-7.19017,0.93796l-10.00488,-3.12633l-9.59872,-4.68663l-5.09576,0.93494l-3.97121,-1.56032" id="path72" />
   <path fill-rule="evenodd" fill="#dcd9d8" d="m133.79579,-171.3893c0,0 8.12808,3.75098 9.37927,3.43843l-3.43843,17.19597l4.06404,1.56261c0,0 2.81377,-16.25691 2.81377,-18.13278c0,0 17.50735,-0.93793 19.07089,-0.93793c0,0 3.75171,7.1909 2.81378,14.69432l3.43939,-10.00467l0.3123,-5.62758l-5.00197,-7.5034l-5.62753,-1.25044l-9.3793,0.31252l-3.12611,4.06384l-10.94279,-1.56259l-3.43938,-1.25119" id="path74" />
   <path fill-rule="nonzero" fill="#ffffff" d="m121.50987,-149.19521l-6.87781,17.50839l-7.1911,10.31721c0,0 1.56259,4.3773 3.75171,4.3773c2.18913,0 7.1911,0 7.1911,0l6.87781,-2.50144l-0.62465,-11.56765l-3.12706,-18.1338" id="path76" />
   <path fill-rule="evenodd" fill="#dcd9d8" d="m122.85393,-143.25148c0,0 -8.75461,16.88198 -8.75461,19.38322c0,0 1.56259,3.75172 3.75171,2.81379c2.18912,-0.93793 6.87875,-3.43845 6.87875,-3.43845l0,5.9399l-10.63046,2.18913l-7.19016,-0.93793l12.19305,-28.76345l2.50052,-0.31326" id="path78" />
   <path fill-rule="nonzero" fill="#ffffff" d="m84.61857,-101.9864l-8.66121,0.94168l-8.1292,2.50145l0,-2.81378l3.97195,-4.38012l12.50555,-5.62757" id="path80" />
   <path fill-rule="evenodd" fill="#dcd9d8" d="m70.64308,-102.92339c0,0 9.69254,-4.06498 12.81883,-3.12705l0.31101,-3.74796l-8.75236,1.87211l-5.31542,3.75171l0.93793,1.25119" id="path82" />
   <path fill-rule="evenodd" fill="#d33833" d="m133.98244,-118.05685c-5.30492,0.15569 -10.09773,0.78598 -14.29401,1.96965c0.28513,1.72017 -0.24855,3.40842 0.18008,4.64743c1.16958,0.84226 3.12985,0.82913 4.89786,1.02703c-1.52884,0.75128 -3.67668,1.0486 -5.44093,0.61434c-0.0413,1.19398 -0.57682,1.93401 -0.90134,2.86818c2.9826,1.06454 10.02362,8.04366 13.98448,5.73262c1.88713,-1.09925 2.68906,-7.37775 2.83536,-10.43069c0.12193,-2.53241 -0.22978,-5.08731 -1.26151,-6.42856" id="path84" />
   <path stroke-miterlimit="4" stroke-width="2" stroke="#d33833" fill="none" d="m133.98244,-118.05685c-5.30492,0.15569 -10.09773,0.78598 -14.29401,1.96965c0.28513,1.72017 -0.24855,3.40842 0.18008,4.64743c1.16958,0.84226 3.12985,0.82913 4.89786,1.02703c-1.52884,0.75128 -3.67668,1.0486 -5.44093,0.61434c-0.0413,1.19398 -0.57682,1.93401 -0.90134,2.86818c2.9826,1.06454 10.02362,8.04366 13.98448,5.73262c1.88713,-1.09925 2.68906,-7.37775 2.83536,-10.43069c0.12193,-2.53241 -0.22978,-5.08731 -1.26151,-6.42856z" id="path86" />
   <path fill-rule="evenodd" fill="#d33833" d="m108.61431,-109.38477c-0.01407,-0.40143 -0.03094,-0.80568 -0.0469,-1.21087c-1.65637,-1.08799 -4.33041,-1.07486 -6.14812,-1.98933c2.67965,-0.11725 4.78906,-0.76253 6.61427,-1.67233c-0.04033,-1.01108 -0.0788,-2.02122 -0.11818,-3.03232c-3.03608,-2.07845 -5.80952,-5.1736 -9.38416,-7.12273c-1.69014,-0.92178 -7.62178,-3.2937 -9.41998,-2.87456c-1.01736,0.23627 -1.10899,1.49883 -1.51569,2.68885c-0.86645,2.54845 -2.86143,6.60498 -3.03539,10.44111c-0.22165,4.84534 -0.71077,12.96591 4.51085,11.96796c4.21262,-0.80381 9.11217,-2.74438 12.3736,-4.52644c1.99311,-1.08987 3.14582,-2.43674 6.16969,-2.66934" id="path88" />
   <path stroke-miterlimit="4" stroke-width="2" stroke="#d33833" fill="none" d="m108.61431,-109.38477c-0.01407,-0.40143 -0.03094,-0.80568 -0.0469,-1.21087c-1.65637,-1.08799 -4.33041,-1.07486 -6.14812,-1.98933c2.67965,-0.11725 4.78906,-0.76253 6.61427,-1.67233c-0.04033,-1.01108 -0.0788,-2.02122 -0.11818,-3.03232c-3.03608,-2.07845 -5.80952,-5.1736 -9.38416,-7.12273c-1.69014,-0.92178 -7.62178,-3.2937 -9.41998,-2.87456c-1.01736,0.23627 -1.10899,1.49883 -1.51569,2.68885c-0.86645,2.54845 -2.86143,6.60498 -3.03539,10.44111c-0.22165,4.84534 -0.71077,12.96591 4.51085,11.96796c4.21262,-0.80381 9.11217,-2.74438 12.3736,-4.52644c1.99311,-1.08987 3.14582,-2.43674 6.16969,-2.66934z" id="path90" />
   <path fill-rule="evenodd" fill="#d33833" d="m111.62975,-115.16616c-0.46333,2.63933 -0.99889,3.39249 -0.79161,5.69511c7.03915,4.69339 8.36069,-8.0615 0.79161,-5.69511" id="path92" />
   <path stroke-miterlimit="4" stroke-width="2" stroke="#d33833" fill="none" d="m111.62975,-115.16616c-0.46333,2.63933 -0.99889,3.39249 -0.79161,5.69511c7.03915,4.69339 8.36069,-8.0615 0.79161,-5.69511z" id="path94" />
   <path fill-rule="evenodd" fill="#ef3d3a" d="m121.8222,-117.30556c0,0 -2.18912,3.12704 -0.6256,4.06499c1.56352,0.93791 3.12704,-0.00095 4.06497,1.56257c0.93794,1.56353 0,2.50146 0.31232,4.37731c0.31234,1.87586 1.87681,2.18913 3.4394,2.50146c1.56256,0.31233 5.94083,0.93792 6.56548,-0.6256l-1.87584,5.62756l-3.75171,1.25025l-11.88074,-6.87781l-0.62559,-3.43938l0,-6.87782" id="path96" />
   <path fill-rule="evenodd" fill="#ef3d3a" d="m88.99493,-127.62286c-0.37555,4.87918 -0.77304,9.75171 -1.21527,14.62612c-0.66171,7.27832 1.74831,6.00837 8.05736,6.00837c0.96362,0 5.93324,-1.14896 6.28871,-1.87585c1.70515,-3.48253 -2.85129,-2.70874 1.96401,-5.33493c4.06499,-2.21634 11.24577,1.34592 9.60345,6.27287c-0.91916,1.09549 -4.78905,0.3414 -6.17626,1.06079c-2.44235,1.2662 -4.88471,2.53241 -7.32735,3.79861c-3.10754,1.61228 -10.28974,3.96274 -13.60286,1.70984c-8.39484,-5.70917 0.52983,-19.97409 3.52454,-25.92986" id="path98" />
   <path fill-rule="evenodd" fill="#231f20" d="m97.22197,-16.8526c-8.52126,1.98465 -12.75545,-3.56601 -15.33839,-9.323c-2.30637,0.55899 -1.38861,3.69542 -0.80606,5.29364c1.52525,4.19443 7.67197,9.77791 12.69429,9.021c2.16127,-0.32545 5.086,-2.30167 3.45016,-4.99164" id="path100" />
   <path fill-rule="evenodd" fill="#231f20" d="m138.74055,-26.55639c0.13411,-0.00601 0.27011,-0.01031 0.40424,-0.01591c1.92557,-4.00026 3.59227,-8.23781 6.0215,-11.7691c-1.62732,-3.79018 -12.32249,-7.14421 -12.15742,-0.33859c2.31293,1.01108 6.30569,0.20634 8.356,1.49786c-1.18555,3.25368 -2.89632,6.02336 -2.62431,10.62578" id="path102" />
   <path fill-rule="evenodd" fill="#231f20" d="m101.58455,-26.66051c1.82709,-3.34935 2.42171,-6.86845 5.01884,-9.39992c1.16961,-1.13959 3.44408,-2.52866 2.3167,-5.69791c-0.26357,-0.74753 -2.18913,-2.41423 -3.30057,-2.74156c-4.06029,-1.19867 -13.52135,-0.2476 -10.31741,4.81438c3.35789,-0.15663 7.87128,-2.18068 10.38118,0.25699c-1.92744,3.0811 -5.36362,9.17669 -4.09875,12.76802" id="path104" />
   <path fill-rule="evenodd" fill="#231f20" d="m137.21642,-60.70164c-6.11342,-3.9271 -12.93027,-8.19749 -22.94734,-7.20704c-2.14035,1.86086 -2.95634,6.0018 -0.87696,8.73678c1.08237,-1.86084 0.40238,-5.28332 3.41875,-5.79825c5.68384,-0.97262 12.29904,3.47689 16.38747,5.03197c2.53522,4.27414 -0.21854,5.84612 -2.5024,8.59705c-4.67557,5.63602 -10.94749,12.62169 -10.71958,21.05929c1.88992,1.37032 2.05313,-2.09158 2.3242,-2.72188c2.44142,-5.71384 8.58578,-13.02124 13.07002,-17.91159c1.10112,-1.2043 2.91414,-2.35983 3.1158,-3.15613c0.5815,-2.31573 -1.51288,-5.09013 -1.26996,-6.63022" id="path106" />
   <path fill-rule="evenodd" fill="#231f20" d="m56.6218,-56.56726c-1.91619,1.09361 -2.3723,5.91081 -4.62193,6.04774c-3.21493,0.1951 -2.62873,-6.2494 -2.61588,-10.01801c-2.21295,2.00905 -2.60209,8.19467 -0.97638,11.37144c-1.85278,0.90979 -2.68013,-1.00359 -3.70782,-1.67796c1.32079,9.595 14.036,4.45047 11.922,-5.72322" id="path108" />
   <path fill-rule="evenodd" fill="#231f20" d="m141.10881,-64.69722c-2.84567,-5.41653 -6.87126,-11.38175 -15.22162,-11.55527c-0.16977,1.74924 -0.30014,4.41107 0.009,5.46437c6.38351,0.6134 10.32469,3.86237 15.21223,6.0909" id="path110" />
   <path fill-rule="evenodd" fill="#231f20" d="m101.10301,-68.20882c5.32593,-2.80064 15.11415,-3.10172 22.35307,-2.88976c0.38829,-1.58602 0.37891,-3.54536 0.39392,-5.47937c-9.30518,-0.46427 -20.30707,1.83835 -22.74699,8.36913" id="path112" />
   <path fill-rule="evenodd" fill="#231f20" d="m100.09071,-73.4312c3.68295,-9.24702 16.34123,-8.18248 27.01578,-7.92735c-0.46991,-1.20055 -1.48849,-2.61869 -2.7547,-3.13174c-3.42062,-1.39188 -12.85524,-2.44799 -17.60396,0.0741c-3.01169,1.60104 -4.94662,5.21863 -6.59673,7.33927c-0.79686,1.02422 -4.76475,3.64011 -0.06039,3.64573" id="path114" />
   <path fill-rule="evenodd" fill="#81b0c4" d="m136.77184,-124.43832c-4.32198,-7.40232 -8.45729,-15.00509 -13.58493,-21.53426c2.14971,6.3208 3.06982,16.89995 3.39435,24.965c4.49736,2.10472 8.34848,-0.47365 10.19058,-3.43074" id="path116" />
   <path fill-rule="evenodd" fill="#231f20" d="m160.0287,-151.04292c-4.83879,-0.96869 -8.23877,-5.67145 -12.95937,-5.36963c2.59431,3.65724 7.14044,5.19891 12.95937,5.36963" id="path118" />
   <path fill-rule="evenodd" fill="#231f20" d="m162.16341,-158.61555c-3.94398,-0.41653 -8.57642,-1.05518 -12.57668,-0.72614c1.89369,2.89255 9.18982,1.8945 12.57668,0.72614" id="path120" />
   <path fill-rule="evenodd" fill="#231f20" d="m163.52997,-165.14439c-4.43265,-0.09602 -9.94203,-0.00769 -14.1552,0.34583c2.49207,2.67674 11.28044,0.99326 14.1552,-0.34583" id="path122" />
   <path fill-rule="evenodd" fill="#dcd9d8" d="m128.43179,-183.01115c0.63591,-5.5668 2.84285,-11.20721 2.56616,-17.30374c-2.45081,-0.82651 -3.85864,-1.54933 -7.14232,-1.54494c-0.23167,5.1813 -0.9248,13.10199 -0.71751,18.04112c1.61511,-0.10693 3.99651,1.15375 5.29367,0.80756" id="path124" />
   <path fill-rule="evenodd" fill="#f0d6b7" d="m121.28572,-100.96875c-2.22571,-1.45284 -4.12126,-3.26679 -6.25879,-4.81812c-4.7403,-0.23448 -7.3271,0.32827 -10.80962,3.05013c0.05721,0.21854 0.40706,0.12099 0.42018,0.38924c5.07419,-2.26136 11.52432,0.92104 16.64822,1.37875" id="path126" />
   <path fill-rule="evenodd" fill="#81b0c4" d="m94.6481,-135.55756c1.39413,6.0412 6.8568,9.17004 11.81741,12.49686c5.12015,-6.49815 8.23406,-14.85491 11.66313,-22.91921c-8.10182,2.44228 -16.37996,6.40503 -23.48055,10.42235" id="path128" />
   <path fill-rule="evenodd" fill="#231f20" d="m123.13812,-183.81871c-0.20729,-4.93913 0.48584,-12.85982 0.71751,-18.04112c3.28368,-0.00439 4.69151,0.71843 7.14232,1.54494c0.27669,6.09653 -1.93025,11.73694 -2.56616,17.30374c-1.29716,0.34619 -3.67856,-0.91449 -5.29367,-0.80756zm-51.13028,28.08981c2.1653,-19.90564 5.30145,-36.63884 11.05357,-54.26567c12.76642,-3.87627 28.15659,-4.21408 39.4408,-0.71626c-2.07188,9.94864 -1.16678,22.06067 -2.37766,32.67725c-0.9126,7.97971 -0.4474,16.00856 -1.69858,24.14977c-13.67311,2.84456 -32.99957,0.66499 -46.41814,-1.84508zm49.65116,1.72017c-0.11535,-8.54903 0.38268,-16.98195 1.03547,-25.54166c3.28276,0.49277 5.51033,0.82182 8.56047,1.49045c-0.99045,8.24054 -0.86852,17.51317 -2.886,24.80264c-2.33168,-0.02232 -4.38481,0.02711 -6.70994,-0.75143zm16.6529,1.37798c-1.55789,0.35716 -3.37184,0.0139 -4.86034,-0.01501c0.69971,-6.96887 2.39735,-14.65886 2.99481,-21.97394c2.342,-0.07286 3.5932,1.03171 5.5197,1.40324c0.10316,6.42113 -0.56088,15.26765 -3.65417,20.58571zm25.21526,-23.03821c4.8819,1.18555 7.95175,7.16483 6.58612,13.30536c-0.91635,4.12686 -2.54836,11.89777 -4.29477,14.53786c-1.29059,1.95277 -4.78999,4.50937 -7.58409,2.71999c-4.5452,-2.91046 -12.55228,-3.75537 -15.86691,-7.27841c1.66202,-5.53375 2.17787,-13.13464 2.86349,-20.14639c5.67822,-0.35397 12.66483,1.56259 17.3873,-0.47122c-3.29681,-1.06793 -7.57471,-1.07635 -10.42319,-2.63275c2.32793,-1.12439 7.77824,-0.89722 11.33205,-0.03442zm-45.39851,29.68906c-3.42907,8.0643 -6.54298,16.42107 -11.66312,22.91921c-4.96062,-3.32683 -10.42329,-6.45567 -11.81743,-12.49686c7.10059,-4.01732 15.37874,-7.98007 23.48055,-10.42235zm8.45261,24.97233c-0.32452,-8.06506 -1.24464,-18.6442 -3.39435,-24.965c5.12764,6.52917 9.26295,14.13194 13.58493,21.53426c-1.8421,2.95709 -5.69322,5.53546 -10.19058,3.43074zm-9.58186,3.40468c-1.94244,0.20917 -3.59132,-2.23321 -6.11717,-1.17709c-0.57869,-0.63966 -1.10487,-1.33279 -1.69482,-1.95747c5.57877,-6.72314 8.114,-16.26178 12.42284,-24.1627c2.31199,7.58954 2.04561,15.90445 2.55491,24.18804c-3.17676,-0.20166 -4.93913,2.87286 -7.16576,3.10922zm-6.16125,8.13184c-0.20728,-2.30262 0.32828,-3.05578 0.79161,-5.69511c7.56908,-2.36639 6.24754,10.3885 -0.79161,5.69511zm-8.39352,2.75563c-3.26145,1.78206 -8.16099,3.72263 -12.3736,4.52644c-5.22162,0.99889 -4.7325,-7.12262 -4.51085,-11.96796c0.17397,-3.83613 2.16895,-7.89265 3.03539,-10.44111c0.4067,-1.19003 0.49833,-2.45258 1.51569,-2.68885c1.7982,-0.41914 7.72984,1.95277 9.41998,2.87456c3.57463,1.94913 6.34808,5.04428 9.38416,7.12273c0.03938,1.01109 0.07785,2.02124 0.11818,3.03232c-1.82521,0.90981 -3.9346,1.55508 -6.61427,1.67233c1.8177,0.91447 4.49174,0.90134 6.14811,1.98933c0.01596,0.40519 0.03283,0.80944 0.0469,1.21087c-3.02387,0.2326 -4.17658,1.57947 -6.16967,2.66934l-0.00002,0zm-31.15194,5.65852c-2.70685,-2.74813 7.59206,-6.49421 10.87115,-6.69587c-0.0183,1.73892 0.991,3.37842 0.78767,4.62586c-3.89457,0.68375 -9.01284,0.23261 -11.65883,2.07001zm33.34483,-1.29059c-0.01314,-0.26825 -0.36299,-0.1707 -0.4202,-0.38924c3.48252,-2.72186 6.06932,-3.28461 10.80962,-3.05013c2.13754,1.55133 4.03308,3.36528 6.25879,4.81812c-5.1239,-0.45771 -11.57404,-3.64008 -16.64821,-1.37875zm30.60643,-9.28079c-0.1463,3.05295 -0.94823,9.33144 -2.83536,10.43069c-3.96086,2.31199 -11.00188,-4.66808 -13.98448,-5.73262c0.32451,-0.93417 0.86008,-1.6742 0.90134,-2.86818c1.76424,0.43426 3.91209,0.13694 5.44093,-0.61434c-1.76801,-0.1979 -3.72828,-0.18477 -4.89786,-1.02703c-0.42863,-1.23901 0.10504,-2.92726 -0.18008,-4.64743c4.19627,-1.18367 8.98909,-1.81396 14.29401,-1.96965c1.03172,1.34125 1.38344,3.89615 1.26151,6.42856zm-68.50828,7.91329c-0.85004,0.6059 -6.6003,8.08775 -7.38805,7.77728c-10.40509,-4.10342 -20.13431,-11.19884 -28.82841,-17.90973c8.2893,-17.78694 11.63545,-39.57877 12.22671,-60.58241c9.49577,-4.4413 17.83638,-10.84377 30.72191,-11.51231c-1.49111,10.5498 -2.85223,19.96208 -3.69861,29.89455c-3.23764,1.36478 -7.88263,-0.06189 -10.91252,0.4232c-0.0257,3.65126 4.62737,1.59889 5.01492,4.05428c0.29208,1.85721 -2.56017,1.99791 -1.63144,4.92236c2.36866,-0.86104 3.61253,-2.76288 6.13865,-3.47701c2.30824,5.04979 -0.03226,13.98468 0.30042,18.20537c0.06303,0.79245 0.39571,4.39034 2.17084,3.75902c1.57102,-0.55872 -0.08975,-9.56865 0.08244,-13.56328c0.15682,-3.68034 -0.44449,-7.24146 1.04597,-9.55185c12.45136,1.69482 25.10418,2.79034 38.57639,3.15996c-2.96385,1.27174 -6.48483,2.4753 -10.34515,4.65121c-2.0927,1.1797 -8.68933,3.63445 -9.29317,5.6221c-0.96353,3.16728 2.528,4.85443 3.12517,7.56975c-6.28515,-3.42784 -7.5114,3.28567 -8.99821,8.04189c-1.34713,4.30789 -2.11398,7.52592 -2.44452,10.0105c-5.41427,2.58117 -11.20306,5.19518 -15.86334,8.50512zm63.00919,6.87219c8.6693,4.2038 10.23187,-15.71123 6.83376,-22.12664c0.52524,-1.91338 2.3317,-2.6459 3.06891,-4.36606c-4.83783,-8.66636 -10.21121,-16.756 -15.14754,-25.3204c3.672,2.28581 8.91687,0.40883 13.23792,2.11981c1.57947,0.62466 2.72281,4.24045 3.91866,7.13303c3.28931,7.95813 6.74275,17.99123 8.27908,25.58563c0.34703,1.73049 1.29247,5.50096 1.08051,7.04103c-0.37799,2.75751 -4.11938,4.80219 -6.02243,6.50734c-3.50598,3.14956 -5.71387,5.92114 -9.37085,8.86623c-1.48285,-2.18913 -4.66527,-3.65979 -5.87801,-5.43998zm-82.83577,76.88004c-4.13091,-4.54521 -3.26624,-13.0616 -2.76613,-19.12059c7.46674,4.69713 17.37727,-0.37143 17.28384,-8.36069c3.56489,0.09473 1.33177,4.45233 0.68694,7.25957c-2.10734,9.16916 3.55024,19.13089 0.25652,27.51596c-6.39516,-0.48491 -11.64906,-3.09703 -15.46117,-7.29425zm29.55757,26.38014c-9.3518,-2.65059 -21.3372,-9.44586 -25.18007,-17.84689c2.97567,0.43239 5.04136,1.93307 7.97679,2.11879c1.10938,0.07219 2.56279,-0.46523 3.83781,-0.14819c2.54086,0.63028 4.68524,6.32726 6.60208,8.44696c1.86854,2.07002 4.1144,2.95448 5.65139,4.8416c0.98744,0.47646 2.44743,0.44363 2.50351,1.9265c-0.42798,0.4577 -0.87864,0.80663 -1.39151,0.66124zm48.68144,-2.49301c-9.70662,5.47655 -26.13639,9.59593 -36.46165,4.44859c-8.33142,-4.15408 -19.59321,-11.02722 -23.43281,-19.73682c3.58683,-8.40477 -1.06248,-16.10608 -1.35924,-24.63934c-0.15759,-4.54051 2.13781,-8.5042 2.31367,-13.44708c-1.22737,-2.02498 -4.97729,-2.27446 -7.5731,-2.13565c-0.87377,4.37262 -2.40344,9.28735 -6.90615,9.7807c-6.37134,0.6969 -11.02984,-4.57614 -11.31928,-10.08646c-0.34253,-6.48016 4.9772,-17.22035 12.5173,-16.4747c2.91273,0.28793 3.62827,3.20772 6.80185,3.1777c1.72005,-3.43188 -2.65331,-4.50957 -3.10323,-6.96412c-0.11725,-0.63403 0.36269,-3.11205 0.64182,-4.27413c1.36956,-5.65852 4.42262,-12.98186 7.42764,-17.28976c3.814,-5.46436 11.30718,-6.28786 19.36857,-6.82343c1.43982,3.10173 6.7439,2.8466 10.19997,2.03531c-4.14188,1.64043 -7.99254,5.61723 -11.18375,9.13729c-3.66562,4.03871 -7.37878,8.37099 -7.56635,13.64965c6.92706,-9.61 12.64993,-18.00259 25.24599,-22.22981c9.53104,-3.19646 20.66237,1.46504 27.98569,6.6077c3.03888,2.13753 4.85284,5.52908 7.01289,8.63362c8.08212,11.62561 11.85352,28.21942 11.0244,44.30299c-0.3414,6.63301 -0.3264,13.24353 -2.55209,17.70619c-2.32607,4.66618 -10.19341,8.84091 -14.79861,4.62022c-0.85353,4.5377 3.82954,7.34398 9.33049,5.71104c-3.92241,5.062 -8.03899,11.14446 -13.61401,14.29027zm18.08418,-149.66248c7.58501,3.77075 21.7571,10.14943 26.51239,-0.01387c1.75487,-3.74626 3.81363,-10.07906 4.72246,-13.94624c1.28403,-5.45573 -1.39188,-16.923 -6.99974,-18.75375c-4.9532,-1.61681 -10.73271,-1.51831 -16.69887,-0.31984c-0.70251,0.58434 -1.48474,1.60292 -2.03156,2.66466c-4.26006,0.16528 -8.24905,-0.22867 -11.61435,-1.97986c0.31889,-3.15051 -1.81207,-3.65614 -3.80986,-4.30499c-1.48099,-5.87228 2.96291,-13.54095 1.89928,-18.8956c-0.75877,-3.81474 -5.45216,-4.4046 -8.90184,-5.11826c-0.11256,-2.1199 0.151,-3.8895 0.38642,-5.68292c-0.7888,-2.90648 -4.32665,-4.56104 -7.67881,-4.96623c-11.02908,-1.32629 -27.77513,-1.92203 -38.38365,1.89272c-2.96029,7.2612 -5.29234,16.09279 -7.75806,24.38428c-10.34647,-1.10498 -18.71457,4.46434 -26.60338,8.11307c-2.73134,1.2662 -6.50978,1.96375 -7.53015,4.13785c-0.98923,2.10489 -0.58442,6.13901 -0.82988,9.94974c-0.62466,9.73288 -1.15956,19.12057 -3.72976,29.08606c-1.15403,4.47194 -3.16551,8.41791 -4.56875,12.72685c-1.29697,3.9936 -3.563,8.92896 -4.15398,12.91139c-0.8763,5.9024 4.68157,6.23067 8.23547,8.7884c5.49382,3.95524 9.80613,6.14249 15.75606,9.71223c1.76227,1.05705 7.07666,3.73295 7.68116,4.96539c1.20167,2.44331 -2.06269,5.88831 -2.93544,7.80356c-1.38053,3.02856 -2.10048,5.6013 -2.29829,8.58953c-4.99118,0.7888 -8.77478,3.75922 -11.06023,7.10856c-3.7806,5.54315 -6.40248,15.79844 -3.13146,23.59919c0.25652,0.61433 1.53587,1.82239 1.72457,2.76595c0.37226,1.85803 -0.70054,4.32854 -0.76723,6.30475c-0.34365,10.13899 1.71547,18.87485 8.54105,21.93249c2.77092,11.03847 12.68839,14.70857 22.0321,20.19452c3.49276,2.05031 7.34295,3.36058 11.3193,4.82375c14.26419,5.24959 36.14949,4.261 47.98802,-4.69244c5.01979,-3.79672 13.04376,-11.8132 15.91382,-17.6171c7.58032,-15.32292 7.04196,-40.93115 1.73985,-59.57057c-0.71283,-2.5024 -1.74643,-6.18094 -3.1899,-9.187c-1.00639,-2.09908 -4.13438,-6.29913 -3.75452,-8.15246c0.39111,-1.9162 7.132,-7.03447 8.57735,-8.42822c2.60275,-2.51083 7.54752,-5.84329 7.948,-9.01162c0.4305,-3.37184 -1.48569,-7.98457 -2.45642,-11.23824c-3.24525,-10.85829 -6.41168,-20.89526 -10.09117,-30.57571" id="path130" />
   <path fill-rule="evenodd" fill="#f7e4cd" d="m92.62828,-70.57426c0.41147,0.54775 2.67384,1.37969 5.83933,-0.14445c0,0 -3.75171,-0.6256 -3.43955,-6.88064l-1.56334,0.31327c0,0 -1.61568,5.67165 -0.83644,6.71181" id="path132" />
   <path fill-rule="evenodd" fill="#1d1919" d="m120.04015,-124.33721c0,-0.94928 -0.77003,-1.71902 -1.72015,-1.71902c-0.94919,0 -1.71922,0.76974 -1.71922,1.71902c0,0.94919 0.77003,1.72015 1.71922,1.72015c0.95012,0 1.72015,-0.77096 1.72015,-1.72015" id="path134" />
   <path fill-rule="evenodd" fill="#1d1919" d="m121.75937,-132.3096c0,-0.94928 -0.77003,-1.71904 -1.72015,-1.71904c-0.94919,0 -1.71922,0.76976 -1.71922,1.71904c0,0.94928 0.77003,1.72015 1.71922,1.72015c0.95012,0 1.72015,-0.77087 1.72015,-1.72015" id="path136" />
   <rect fill="#000000" ry="0.98258" rx="0.98258" transform="matrix(0.8 0 0 -0.8 0 144)" y="337.32099" x="40.54679" height="4.11985" width="70.41199" id="rect3048"/>
   <rect fill="#000000" transform="translate(0 -0.8) scale(1 1)" ry="0.78606" rx="0.78606" y="125.0568" x="97.45616" height="3.29588" width="50.03746" id="rect3048-5"/>
   <rect fill="#000000" transform="translate(0 -0.8) scale(1 1)" ry="0.78606" rx="0.78606" y="123.4568" x="32.43743" height="3.29588" width="54.83146" id="rect3048-6"/>
   <rect fill="#000000" transform="translate(0 -0.8) scale(1 1)" ry="0.78606" rx="0.78606" y="123.4568" x="102.25017" height="3.29588" width="45.24345" id="rect3048-5-9"/>
  </g>
 </g>
</svg>