<!-- Copyright 2000-2022 JetBrains s.r.o. and contributors. Use of this source code is governed by the Apache 2.0 license. -->
<svg width="16" height="16" viewBox="0 0 16 16" fill="none" xmlns="http://www.w3.org/2000/svg">
<path d="M3.36715 6.75618C3.14474 6.75618 2.92733 6.82213 2.7424 6.9457C2.55747 7.06926 2.41334 7.24489 2.32823 7.45037C2.24312 7.65585 2.22085 7.88195 2.26424 8.10009C2.30763 8.31822 2.41473 8.51859 2.572 8.67586C2.72926 8.83313 2.92963 8.94023 3.14777 8.98362C3.36591 9.02701 3.59201 9.00474 3.79749 8.91963C4.00297 8.83451 4.1786 8.69038 4.30216 8.50546C4.42572 8.32053 4.49168 8.10311 4.49168 7.8807C4.49123 7.5826 4.37261 7.29683 4.16181 7.08604C3.95102 6.87525 3.66526 6.75663 3.36715 6.75618ZM8.23273 6.74544C8.01032 6.74544 7.79291 6.81139 7.60798 6.93496C7.42306 7.05852 7.27892 7.23415 7.19381 7.43963C7.1087 7.64511 7.08643 7.87121 7.12982 8.08935C7.17321 8.30748 7.28031 8.50785 7.43758 8.66512C7.59484 8.82239 7.79521 8.92949 8.01335 8.97288C8.23149 9.01627 8.45759 8.994 8.66307 8.90889C8.86855 8.82377 9.04418 8.67964 9.16774 8.49471C9.2913 8.30979 9.35726 8.09237 9.35726 7.86996C9.35681 7.57186 9.23819 7.28609 9.0274 7.0753C8.8166 6.86451 8.53084 6.74589 8.23273 6.74544ZM13.0797 6.74544C12.8572 6.74544 12.6398 6.81139 12.4549 6.93496C12.27 7.05852 12.1258 7.23415 12.0407 7.43963C11.9556 7.64511 11.9334 7.87121 11.9767 8.08935C12.0201 8.30748 12.1272 8.50785 12.2845 8.66512C12.4418 8.82239 12.6421 8.92949 12.8603 8.97288C13.0784 9.01627 13.3045 8.994 13.51 8.90889C13.7155 8.82377 13.8911 8.67964 14.0147 8.49471C14.1382 8.30979 14.2042 8.09237 14.2042 7.86996C14.2037 7.57186 14.0851 7.28609 13.8743 7.0753C13.6635 6.86451 13.3778 6.74589 13.0797 6.74544ZM14.1352 9.38968C13.8596 9.58173 13.537 9.69511 13.2019 9.71764C12.8667 9.74017 12.5318 9.67101 12.233 9.51757C11.9342 9.36414 11.6829 9.13223 11.5059 8.84674C11.329 8.56124 11.2331 8.23295 11.2286 7.8971L10.0838 7.8807C10.0823 8.14651 10.0237 8.40888 9.91176 8.64998C9.79986 8.89109 9.63734 9.10526 9.43527 9.27794C9.23319 9.45062 8.9963 9.57775 8.74069 9.65069C8.48509 9.72363 8.21678 9.74066 7.95401 9.70063C7.64607 10.186 7.27854 10.6308 6.86001 11.0247C6.22619 11.6312 5.47266 12.0986 4.64772 12.3969L4.49959 12.4495L4.35994 12.3777C3.33832 11.853 2.85153 10.742 3.16079 9.72042C2.99665 9.70208 2.83575 9.66157 2.68249 9.6C2.63217 9.70516 2.58129 9.81145 2.52871 9.91943C2.22454 10.5442 1.91019 11.1898 1.79373 11.8914C1.66821 12.6485 1.61846 14.0297 2.69832 14.7748C4.16828 15.7925 5.72927 15.0196 7.53507 14.1224C8.43966 13.6741 9.37082 13.2105 10.3342 12.973C10.6989 12.8831 11.0692 12.8294 11.4327 12.7774C12.1061 12.6801 12.7416 12.5885 13.2724 12.281C13.5504 12.1229 13.7901 11.9057 13.9747 11.6446C14.1593 11.3835 14.2841 11.085 14.3404 10.7703C14.4196 10.3 14.3478 9.81664 14.1352 9.38968ZM6.78934 0.726501L8.59457 6.05456C8.67564 6.07089 8.75554 6.09262 8.83372 6.11957L10.6288 2.49046L12.4204 6.14106C12.4952 6.11258 12.5716 6.08897 12.6494 6.07039L14.4586 0.726501H6.78934Z" fill="#C63D14"/>
</svg>
