<!-- Copyright 2000-2022 JetBrains s.r.o. and contributors. Use of this source code is governed by the Apache 2.0 license. -->
<svg width="16" height="16" viewBox="0 0 16 16" fill="none" xmlns="http://www.w3.org/2000/svg">
<path d="M2.09595 13V11.9795H2.61595C2.83695 11.9795 3.00161 11.8842 3.10995 11.6935C3.21828 11.5029 3.27245 11.2104 3.27245 10.816V3.90002H4.35795V10.881C4.35795 11.362 4.29728 11.7607 4.17595 12.077C4.05461 12.389 3.87045 12.6209 3.62345 12.7725C3.37645 12.9242 3.06228 13 2.68095 13H2.09595Z" fill="#E08855"/>
<path d="M5.66678 13V3.90002H8.76078V4.92702H6.75228V8.04702H8.50078V9.07402H6.75228V13H5.66678Z" fill="#E08855"/>
<path d="M12.3751 13L11.2701 8.84002H12.3881L13.5516 13H12.3751ZM9.71659 13V3.90002H11.2766C11.7749 3.90002 12.1801 3.99536 12.4921 4.18602C12.8084 4.37669 13.0403 4.66703 13.1876 5.05703C13.3393 5.44702 13.4151 5.94102 13.4151 6.53903C13.4151 7.14569 13.3393 7.64619 13.1876 8.04052C13.0359 8.43052 12.7976 8.72086 12.4726 8.91152C12.1519 9.10219 11.7359 9.19753 11.2246 9.19753H10.8021V13H9.71659ZM11.2766 8.18352C11.6276 8.18352 11.8789 8.05352 12.0306 7.79352C12.1823 7.52919 12.2581 7.11102 12.2581 6.53903C12.2581 5.98003 12.1823 5.57052 12.0306 5.31052C11.8789 5.04619 11.6276 4.91402 11.2766 4.91402H10.8021V8.18352H11.2766Z" fill="#E08855"/>
</svg>
