<!-- Copyright 2000-2023 JetBrains s.r.o. and contributors. Use of this source code is governed by the Apache 2.0 license. -->
<svg width="16" height="16" viewBox="0 0 16 16" fill="none" xmlns="http://www.w3.org/2000/svg">
<path d="M2.09595 13V11.9795H2.61595C2.83695 11.9795 3.00161 11.8842 3.10995 11.6935C3.21828 11.5028 3.27245 11.2103 3.27245 10.816V3.89999H4.35795V10.881C4.35795 11.362 4.29728 11.7607 4.17595 12.077C4.05461 12.389 3.87045 12.6208 3.62345 12.7725C3.37645 12.9242 3.06228 13 2.68095 13H2.09595Z" fill="#E08855"/>
<path d="M5.66678 13V3.89999H8.76078V4.92699H6.75228V8.04699H8.50078V9.07399H6.75228V13H5.66678Z" fill="#E08855"/>
<path d="M12.3751 13L11.2701 8.83999H12.3881L13.5516 13H12.3751ZM9.71659 13V3.89999H11.2766C11.7749 3.89999 12.1801 3.99533 12.4921 4.18599C12.8084 4.37666 13.0403 4.66699 13.1876 5.05699C13.3393 5.44699 13.4151 5.94099 13.4151 6.53899C13.4151 7.14566 13.3393 7.64616 13.1876 8.04049C13.0359 8.43049 12.7976 8.72083 12.4726 8.91149C12.1519 9.10216 11.7359 9.19749 11.2246 9.19749H10.8021V13H9.71659ZM11.2766 8.18349C11.6276 8.18349 11.8789 8.05349 12.0306 7.79349C12.1823 7.52916 12.2581 7.11099 12.2581 6.53899C12.2581 5.97999 12.1823 5.57049 12.0306 5.31049C11.8789 5.04616 11.6276 4.91399 11.2766 4.91399H10.8021V8.18349H11.2766Z" fill="#E08855"/>
</svg>
