<!-- Copyright 2000-2025 JetBrains s.r.o. and contributors. Use of this source code is governed by the Apache 2.0 license. -->
<svg width="16" height="16" viewBox="0 0 16 16" fill="none" xmlns="http://www.w3.org/2000/svg">
<path d="M11 2C11.5523 2 12 2.44772 12 3V9H4V6H6C7.10457 6 8 5.10457 8 4V2H11Z" fill="#45322B"/>
<path d="M7 4C7 4.06893 6.99277 4.13617 6.97949 4.20117C6.88625 4.65686 6.48325 5 6 5H4.41406L7 2.41406V4Z" fill="#45322B"/>
<path fill-rule="evenodd" clip-rule="evenodd" d="M11 1C12.1046 1 13 1.89543 13 3V9H12V3C12 2.44772 11.5523 2 11 2H8V4C8 5.10457 7.10457 6 6 6H4V9H3V5.41406C3.00004 5.1489 3.10547 4.89453 3.29297 4.70703L6.70703 1.29297C6.89453 1.10547 7.1489 1.00004 7.41406 1H11ZM4.41406 5H6C6.55228 5 7 4.55228 7 4V2.41406L4.41406 5Z" fill="#C77D55"/>
<path d="M4.80664 14.2373C4.80659 14.8112 4.62872 15.2652 4.27344 15.5986C4.0718 15.7875 3.82696 15.92 3.54004 16H2.14258C1.85141 15.9188 1.60186 15.7835 1.39551 15.5898C1.04575 15.2509 0.871094 14.797 0.871094 14.2285H1.89551C1.89551 14.5292 1.98096 14.7641 2.15039 14.9336C2.31986 15.1031 2.54913 15.1885 2.83887 15.1885C3.12846 15.1885 3.3579 15.1062 3.52734 14.9424C3.69676 14.773 3.78218 14.5378 3.78223 14.2373V10.9648H2.3877V10.0137H4.80664V14.2373Z" fill="#CED0D6"/>
<path d="M9.9209 10.9648H7.20605V12.5645H9.70703V13.5156H7.22266V16H6.19727V10.0137H9.9209V10.9648Z" fill="#CED0D6"/>
<path fill-rule="evenodd" clip-rule="evenodd" d="M12.9756 10.0137C13.3745 10.0137 13.7191 10.0878 14.0088 10.2354C14.304 10.383 14.5342 10.5905 14.6982 10.8584C14.8622 11.1207 14.9433 11.4324 14.9434 11.793C14.9434 12.1866 14.8429 12.5343 14.6406 12.835C14.4438 13.1356 14.1758 13.3489 13.8369 13.4746L15.0254 16H13.8779L12.8369 13.6221H12.1064V16H11.082V10.0137H12.9756ZM12.1064 12.7197H12.9756C13.2652 12.7197 13.4923 12.6408 13.6562 12.4824C13.8203 12.3239 13.9023 12.105 13.9023 11.8262C13.9023 11.5419 13.8202 11.3206 13.6562 11.1621C13.4923 10.9982 13.2653 10.916 12.9756 10.916H12.1064V12.7197Z" fill="#CED0D6"/>
</svg>
