<!-- Copyright 2000-2022 JetBrains s.r.o. and contributors. Use of this source code is governed by the Apache 2.0 license. -->
<svg width="16" height="16" viewBox="0 0 16 16" fill="none" xmlns="http://www.w3.org/2000/svg">
<path fill-rule="evenodd" clip-rule="evenodd" d="M2 2H14V14H2V2ZM11.1739 12.0598C10.6177 12.0598 10.3032 11.7697 10.0615 11.375L9.1451 11.9074C9.47615 12.5615 10.1527 13.0605 11.2 13.0605C12.271 13.0605 13.0685 12.5044 13.0685 11.4891C13.0685 10.5474 12.5276 10.1285 11.5695 9.71769L11.2876 9.59692C10.8038 9.3874 10.5942 9.25045 10.5942 8.91216C10.5942 8.63845 10.8036 8.42892 11.1339 8.42892C11.4577 8.42892 11.6662 8.5655 11.8596 8.91216L12.7377 8.34835C12.3662 7.69502 11.8508 7.4455 11.1339 7.4455C10.1268 7.4455 9.48244 8.0893 9.48244 8.93502C9.48244 9.85312 10.023 10.2874 10.8367 10.6341L11.1186 10.755C11.6329 10.98 11.9396 11.1169 11.9396 11.5036C11.9396 11.8263 11.6411 12.0598 11.1739 12.0598ZM6.80377 12.0527C6.41634 12.0527 6.2552 11.787 6.07806 11.4727L5.16016 12.0284C5.42606 12.5912 5.94892 13.0584 6.85177 13.0584C7.85101 13.0584 8.53558 12.527 8.53558 11.3594V7.50988H7.40796V11.3442C7.40796 11.9078 7.17425 12.0527 6.80377 12.0527Z" fill="#636361"/>
</svg>
