<svg width="16" height="16" viewBox="0 0 16 16" fill="none" xmlns="http://www.w3.org/2000/svg">
<path fill-rule="evenodd" clip-rule="evenodd" d="M12 2C13.1046 2 14 2.89543 14 4V12C14 13.1046 13.1046 14 12 14H4C2.89543 14 2 13.1046 2 12V4C2 2.89543 2.89543 2 4 2H12ZM8.97697 11.8718C9.30472 12.0257 9.68092 12.1026 10.1056 12.1026C10.5274 12.1026 10.9021 12.0242 11.2299 11.8675C11.5576 11.7107 11.8127 11.4956 11.9951 11.222C12.1775 10.9455 12.2687 10.6363 12.2687 10.2943C12.2687 10.0121 12.206 9.74566 12.0806 9.49486C11.9552 9.24406 11.7771 9.03459 11.5462 8.86644C11.3182 8.69829 11.0575 8.58856 10.7639 8.53726L9.76785 8.37481C9.5655 8.34061 9.40162 8.25369 9.27622 8.11404C9.15082 7.97154 9.08812 7.80339 9.08812 7.60959C9.08812 7.44429 9.13087 7.29894 9.21637 7.17354C9.30187 7.04814 9.42157 6.95124 9.57547 6.88284C9.72937 6.81444 9.9075 6.78024 10.1098 6.78024C10.3122 6.78024 10.4903 6.81586 10.6442 6.88711C10.7981 6.95836 10.9178 7.05954 11.0033 7.19064C11.0888 7.31889 11.1316 7.46424 11.1316 7.62669H12.1447C12.1419 7.29324 12.0535 6.99684 11.8797 6.73749C11.7058 6.47814 11.4636 6.27579 11.1529 6.13044C10.8451 5.98509 10.4932 5.91241 10.097 5.91241C9.70942 5.91241 9.36172 5.98794 9.05392 6.13899C8.74612 6.28719 8.5053 6.49381 8.33145 6.75886C8.16045 7.02106 8.07495 7.31746 8.07495 7.64806C8.07495 7.92451 8.13195 8.17959 8.24595 8.41329C8.3628 8.64414 8.5281 8.83651 8.74185 8.99041C8.9556 9.14431 9.20782 9.24691 9.49852 9.29821L10.5117 9.46921C10.734 9.50626 10.9121 9.60601 11.0461 9.76846C11.18 9.92806 11.247 10.119 11.247 10.3413C11.247 10.518 11.2 10.6748 11.1059 10.8116C11.0147 10.9455 10.8836 11.0495 10.7126 11.1236C10.5416 11.1977 10.3435 11.2348 10.1184 11.2348C9.88755 11.2348 9.68235 11.1949 9.5028 11.1151C9.3261 11.0324 9.18787 10.917 9.08812 10.7688C8.98837 10.6206 8.9385 10.4525 8.9385 10.2644H7.92532C7.92817 10.6235 8.02222 10.9427 8.20747 11.222C8.39272 11.4984 8.64922 11.715 8.97697 11.8718ZM5.22179 11H4.21289V12H5.32012C5.64787 12 5.93857 11.9316 6.19222 11.7948C6.44587 11.6552 6.64394 11.4614 6.78644 11.2134C6.92894 10.9655 7.00019 10.6805 7.00019 10.3584L7.00024 6.00002H5.99989L5.99984 10.222C5.99984 10.3759 5.96707 10.5127 5.90152 10.6324C5.83882 10.7492 5.74762 10.8404 5.62792 10.906C5.51107 10.9687 5.37569 11 5.22179 11Z" fill="#636361"/>
</svg>
