<!-- Copyright 2000-2024 JetBrains s.r.o. and contributors. Use of this source code is governed by the Apache 2.0 license. -->
<svg width="16" height="16" viewBox="0 0 16 16" fill="none" xmlns="http://www.w3.org/2000/svg">
<path d="M3.60505 8.85501C3.87005 9.08501 3.99755 9.39251 3.98755 9.77751L3.95755 11.57C3.95255 12.06 4.05755 12.4875 4.27255 12.8525C4.49255 13.2225 4.80255 13.505 5.20255 13.7C5.60755 13.9 6.07755 14 6.61255 14H7.04999C7.12502 13.6303 7.28161 13.2905 7.5 12.9999V12.995H6.62005C6.14505 12.995 5.76755 12.8625 5.48755 12.5975C5.21255 12.3375 5.08005 11.9875 5.09005 11.5475L5.12005 9.77001C5.13005 9.30501 4.99255 8.91001 4.70755 8.58501C4.42255 8.25501 4.03755 8.04501 3.55255 7.95501C4.03755 7.92001 4.42255 7.74251 4.70755 7.42251C4.99255 7.09751 5.13005 6.68001 5.12005 6.17001L5.09005 4.6025C5.08505 4.1125 5.23255 3.725 5.53255 3.44C5.83755 3.15 6.25005 3.005 6.77005 3.005H7.5V2H6.76255C6.18755 2 5.68755 2.105 5.26255 2.315C4.83755 2.525 4.51005 2.825 4.28005 3.215C4.05505 3.605 3.94755 4.06 3.95755 4.58L3.98755 6.16251C3.99755 6.54751 3.87005 6.85501 3.60505 7.08501C3.34005 7.31501 2.98255 7.43001 2.53255 7.43001H2V8.51001H2.53255C2.98255 8.51001 3.34005 8.62501 3.60505 8.85501Z" fill="#A571E6"/>
<path d="M13.1336 7.40614C12.8894 7.56592 12.6749 7.76726 12.5001 8H12.2512C12.3154 7.98264 12.3815 7.96764 12.4495 7.95501C11.9645 7.92001 11.5795 7.74251 11.2945 7.42251C11.0095 7.09751 10.872 6.68001 10.882 6.17001L10.912 4.6025C10.917 4.1125 10.767 3.725 10.462 3.44C10.162 3.15 9.75205 3.005 9.23205 3.005H8.5V2H9.23955C9.81455 2 10.3145 2.105 10.7395 2.315C11.1645 2.525 11.4895 2.825 11.7145 3.215C11.9445 3.605 12.0545 4.06 12.0445 4.58L12.0145 6.16251C12.0045 6.54751 12.132 6.85501 12.397 7.08501C12.5923 7.25451 12.8379 7.36156 13.1336 7.40614Z" fill="#A571E6"/>
<g clip-path="url(#clip0_15117_10550)">
<path d="M16 14.5C16 15.3284 15.3284 16 14.5 16C13.6716 16 13 15.3284 13 14.5C13 13.6716 13.6716 13 14.5 13C15.3284 13 16 13.6716 16 14.5Z" fill="#43454A"/>
<path d="M11 14.5C11 15.3284 10.3284 16 9.5 16C8.67157 16 8 15.3284 8 14.5C8 13.6716 8.67157 13 9.5 13C10.3284 13 11 13.6716 11 14.5Z" fill="#43454A"/>
<path d="M11 9.5C11 10.3284 10.3284 11 9.5 11C8.67157 11 8 10.3284 8 9.5C8 8.67157 8.67157 8 9.5 8C10.3284 8 11 8.67157 11 9.5Z" fill="#43454A"/>
<path d="M16 9.5C16 10.3284 15.3284 11 14.5 11C13.6716 11 13 10.3284 13 9.5C13 8.67157 13.6716 8 14.5 8C15.3284 8 16 8.67157 16 9.5Z" fill="#43454A"/>
<path fill-rule="evenodd" clip-rule="evenodd" d="M10.9146 9C10.7087 8.4174 10.1531 8 9.5 8C8.67157 8 8 8.67157 8 9.5C8 10.1531 8.4174 10.7087 9 10.9146V13.0854C8.4174 13.2913 8 13.8469 8 14.5C8 15.3284 8.67157 16 9.5 16C10.1531 16 10.7087 15.5826 10.9146 15H13.0854C13.2913 15.5826 13.8469 16 14.5 16C15.3284 16 16 15.3284 16 14.5C16 13.8469 15.5826 13.2913 15 13.0854V10.9146C15.5826 10.7087 16 10.1531 16 9.5C16 8.67157 15.3284 8 14.5 8C13.8469 8 13.2913 8.4174 13.0854 9H10.9146ZM10 9.5C10 9.77614 9.77614 10 9.5 10C9.22386 10 9 9.77614 9 9.5C9 9.22386 9.22386 9 9.5 9C9.77614 9 10 9.22386 10 9.5ZM10 10.9146V13.0854C10.4262 13.236 10.764 13.5738 10.9146 14H13.0854C13.236 13.5738 13.5738 13.236 14 13.0854V10.9146C13.5738 10.764 13.236 10.4262 13.0854 10H10.9146C10.764 10.4262 10.4262 10.764 10 10.9146ZM9.5 15C9.77614 15 10 14.7761 10 14.5C10 14.2239 9.77614 14 9.5 14C9.22386 14 9 14.2239 9 14.5C9 14.7761 9.22386 15 9.5 15ZM14.5 15C14.7761 15 15 14.7761 15 14.5C15 14.2239 14.7761 14 14.5 14C14.2239 14 14 14.2239 14 14.5C14 14.7761 14.2239 15 14.5 15ZM14.5 10C14.7761 10 15 9.77614 15 9.5C15 9.22386 14.7761 9 14.5 9C14.2239 9 14 9.22386 14 9.5C14 9.77614 14.2239 10 14.5 10Z" fill="#CED0D6"/>
</g>
<defs>
<clipPath id="clip0_15117_10550">
<rect width="8" height="8" fill="white" transform="translate(8 8)"/>
</clipPath>
</defs>
</svg>
