<!-- Copyright 2000-2021 JetBrains s.r.o. and contributors. Use of this source code is governed by the Apache 2.0 license. -->
<svg width="16" height="16" viewBox="0 0 16 16" fill="none" xmlns="http://www.w3.org/2000/svg">
<path d="M6.21669 13.82C5.74469 13.82 5.33269 13.736 4.98069 13.568C4.63669 13.408 4.37669 13.172 4.20069 12.86C4.03269 12.556 3.97269 12.192 4.02069 11.768L4.20069 9.86C4.23269 9.492 4.17269 9.22 4.02069 9.044C3.86869 8.86 3.57269 8.768 3.13269 8.768H1.66869V7.592H3.13269C3.57269 7.592 3.86869 7.504 4.02069 7.328C4.17269 7.152 4.23269 6.876 4.20069 6.5L4.02069 4.58C3.98069 4.156 4.04469 3.792 4.21269 3.488C4.38869 3.184 4.64869 2.952 4.99269 2.792C5.33669 2.624 5.74469 2.54 6.21669 2.54H6.90069V3.716H6.32469C5.98869 3.716 5.72869 3.796 5.54469 3.956C5.36069 4.116 5.28069 4.348 5.30469 4.652L5.48469 6.572C5.53269 7.068 5.40469 7.46 5.10069 7.748C4.79669 8.028 4.37669 8.168 3.84069 8.168V8.108C4.36869 8.108 4.78469 8.264 5.08869 8.576C5.40069 8.888 5.53269 9.292 5.48469 9.788L5.30469 11.708C5.28069 12.012 5.36069 12.244 5.54469 12.404C5.72869 12.564 5.98869 12.644 6.32469 12.644H6.90069V13.82H6.21669ZM9.104 13.82V12.644H9.68C10.016 12.644 10.276 12.564 10.46 12.404C10.644 12.244 10.724 12.012 10.7 11.708L10.52 9.788C10.472 9.292 10.6 8.888 10.904 8.576C11.216 8.256 11.636 8.096 12.164 8.096V8.168C11.628 8.168 11.208 8.028 10.904 7.748C10.6 7.46 10.472 7.068 10.52 6.572L10.7 4.652C10.724 4.348 10.644 4.116 10.46 3.956C10.276 3.796 10.016 3.716 9.68 3.716H9.104V2.54H9.788C10.26 2.54 10.668 2.624 11.012 2.792C11.356 2.952 11.616 3.184 11.792 3.488C11.968 3.792 12.032 4.156 11.984 4.58L11.804 6.5C11.78 6.876 11.84 7.152 11.984 7.328C12.136 7.504 12.432 7.592 12.872 7.592H14.336V8.768H12.872C12.44 8.768 12.148 8.86 11.996 9.044C11.844 9.22 11.78 9.492 11.804 9.86L11.984 11.768C12.032 12.192 11.968 12.556 11.792 12.86C11.616 13.172 11.356 13.408 11.012 13.568C10.668 13.736 10.26 13.82 9.788 13.82H9.104Z" fill="#955AE0"/>
</svg>
