<!-- Copyright 2000-2022 JetBrains s.r.o. and contributors. Use of this source code is governed by the Apache 2.0 license. -->
<svg width="16" height="16" viewBox="0 0 16 16" fill="none" xmlns="http://www.w3.org/2000/svg">
<path d="M2.14038 13V11.9795H2.66038C2.88138 11.9795 3.04605 11.8842 3.15438 11.6935C3.26271 11.5029 3.31688 11.2104 3.31688 10.816V3.90002H4.40238V10.881C4.40238 11.362 4.34171 11.7607 4.22038 12.077C4.09905 12.389 3.91488 12.6209 3.66788 12.7725C3.42088 12.9242 3.10671 13 2.72538 13H2.14038Z" fill="#E08855"/>
<path d="M7.19972 13.156C6.76205 13.156 6.40455 13.0607 6.12722 12.87C5.84988 12.6794 5.64405 12.3847 5.50972 11.986C5.37972 11.583 5.31472 11.0652 5.31472 10.4325H6.43272C6.43272 10.8355 6.45872 11.167 6.51072 11.427C6.56705 11.6827 6.65155 11.8712 6.76422 11.9925C6.88122 12.1139 7.03072 12.1745 7.21272 12.1745C7.38605 12.1745 7.52472 12.1182 7.62872 12.0055C7.73705 11.8885 7.81722 11.7109 7.86922 11.4725C7.92122 11.2299 7.94722 10.9179 7.94722 10.5365C7.94722 10.1249 7.89305 9.79768 7.78472 9.55502C7.68072 9.31235 7.51605 9.11952 7.29072 8.97652L6.71222 8.62552C6.42188 8.44352 6.18572 8.23985 6.00372 8.01452C5.82172 7.78918 5.68738 7.53352 5.60072 7.24752C5.51405 6.95718 5.47072 6.62352 5.47072 6.24652C5.47072 5.66152 5.52922 5.18485 5.64622 4.81652C5.76755 4.44818 5.95172 4.17735 6.19872 4.00402C6.44572 3.83069 6.76638 3.74402 7.16072 3.74402C7.56372 3.74402 7.89088 3.83285 8.14222 4.01052C8.39355 4.18385 8.57988 4.45685 8.70122 4.82952C8.82255 5.19785 8.88322 5.67668 8.88322 6.26602H7.77172C7.77172 5.90635 7.75005 5.61385 7.70672 5.38852C7.66338 5.16319 7.59838 4.99635 7.51172 4.88802C7.42938 4.77969 7.31672 4.72552 7.17372 4.72552C6.96572 4.72552 6.81405 4.84685 6.71872 5.08952C6.62338 5.32785 6.57572 5.71135 6.57572 6.24002C6.57572 6.58235 6.62555 6.86402 6.72522 7.08502C6.82922 7.30169 6.99172 7.47719 7.21272 7.61152L7.84972 8.00152C8.13572 8.17918 8.36538 8.38502 8.53872 8.61902C8.71638 8.84868 8.84638 9.11952 8.92872 9.43152C9.01105 9.74352 9.05222 10.1075 9.05222 10.5235C9.05222 11.1345 8.98722 11.635 8.85722 12.025C8.72722 12.4107 8.52572 12.6967 8.25272 12.883C7.98405 13.065 7.63305 13.156 7.19972 13.156Z" fill="#E08855"/>
<path d="M9.97684 13V3.90002H11.5368C12.0352 3.90002 12.4403 3.99535 12.7523 4.18602C13.0687 4.37668 13.3005 4.66702 13.4478 5.05702C13.5995 5.44702 13.6753 5.94102 13.6753 6.53902C13.6753 7.14569 13.5995 7.64618 13.4478 8.04052C13.2962 8.43052 13.0578 8.72085 12.7328 8.91152C12.4122 9.10219 11.9962 9.19752 11.4848 9.19752H11.0623V13H9.97684ZM11.5368 8.18352C11.8878 8.18352 12.1392 8.05352 12.2908 7.79352C12.4425 7.52918 12.5183 7.11102 12.5183 6.53902C12.5183 5.98002 12.4425 5.57052 12.2908 5.31052C12.1392 5.04618 11.8878 4.91402 11.5368 4.91402H11.0623V8.18352H11.5368Z" fill="#E08855"/>
</svg>
