<!-- Copyright 2000-2023 JetBrains s.r.o. and contributors. Use of this source code is governed by the Apache 2.0 license. -->
<svg width="16" height="16" viewBox="0 0 16 16" fill="none" xmlns="http://www.w3.org/2000/svg">
<path d="M2.14038 13V11.9795H2.66038C2.88138 11.9795 3.04605 11.8842 3.15438 11.6935C3.26271 11.5028 3.31688 11.2103 3.31688 10.816V3.89999H4.40238V10.881C4.40238 11.362 4.34171 11.7607 4.22038 12.077C4.09905 12.389 3.91488 12.6208 3.66788 12.7725C3.42088 12.9242 3.10671 13 2.72538 13H2.14038Z" fill="#E08855"/>
<path d="M7.19972 13.156C6.76205 13.156 6.40455 13.0607 6.12722 12.87C5.84988 12.6793 5.64405 12.3847 5.50972 11.986C5.37972 11.583 5.31472 11.0652 5.31472 10.4325H6.43272C6.43272 10.8355 6.45872 11.167 6.51072 11.427C6.56705 11.6827 6.65155 11.8712 6.76422 11.9925C6.88122 12.1138 7.03072 12.1745 7.21272 12.1745C7.38605 12.1745 7.52472 12.1182 7.62872 12.0055C7.73705 11.8885 7.81722 11.7108 7.86922 11.4725C7.92122 11.2298 7.94722 10.9178 7.94722 10.5365C7.94722 10.1248 7.89305 9.79765 7.78472 9.55499C7.68072 9.31232 7.51605 9.11949 7.29072 8.97649L6.71222 8.62549C6.42188 8.44349 6.18572 8.23982 6.00372 8.01449C5.82172 7.78915 5.68738 7.53349 5.60072 7.24749C5.51405 6.95715 5.47072 6.62349 5.47072 6.24649C5.47072 5.66149 5.52922 5.18482 5.64622 4.81649C5.76755 4.44815 5.95172 4.17732 6.19872 4.00399C6.44572 3.83065 6.76638 3.74399 7.16072 3.74399C7.56372 3.74399 7.89088 3.83282 8.14222 4.01049C8.39355 4.18382 8.57988 4.45682 8.70122 4.82949C8.82255 5.19782 8.88322 5.67665 8.88322 6.26599H7.77172C7.77172 5.90632 7.75005 5.61382 7.70672 5.38849C7.66338 5.16315 7.59838 4.99632 7.51172 4.88799C7.42938 4.77965 7.31672 4.72549 7.17372 4.72549C6.96572 4.72549 6.81405 4.84682 6.71872 5.08949C6.62338 5.32782 6.57572 5.71132 6.57572 6.23999C6.57572 6.58232 6.62555 6.86399 6.72522 7.08499C6.82922 7.30165 6.99172 7.47715 7.21272 7.61149L7.84972 8.00149C8.13572 8.17915 8.36538 8.38499 8.53872 8.61899C8.71638 8.84865 8.84638 9.11949 8.92872 9.43149C9.01105 9.74349 9.05222 10.1075 9.05222 10.5235C9.05222 11.1345 8.98722 11.635 8.85722 12.025C8.72722 12.4107 8.52572 12.6967 8.25272 12.883C7.98405 13.065 7.63305 13.156 7.19972 13.156Z" fill="#E08855"/>
<path d="M9.97684 13V3.89999H11.5368C12.0352 3.89999 12.4403 3.99532 12.7523 4.18599C13.0687 4.37665 13.3005 4.66699 13.4478 5.05699C13.5995 5.44699 13.6753 5.94099 13.6753 6.53899C13.6753 7.14565 13.5995 7.64615 13.4478 8.04049C13.2962 8.43049 13.0578 8.72082 12.7328 8.91149C12.4122 9.10215 11.9962 9.19749 11.4848 9.19749H11.0623V13H9.97684ZM11.5368 8.18349C11.8878 8.18349 12.1392 8.05349 12.2908 7.79349C12.4425 7.52915 12.5183 7.11099 12.5183 6.53899C12.5183 5.97999 12.4425 5.57049 12.2908 5.31049C12.1392 5.04615 11.8878 4.91399 11.5368 4.91399H11.0623V8.18349H11.5368Z" fill="#E08855"/>
</svg>
