<!-- Copyright 2000-2025 JetBrains s.r.o. and contributors. Use of this source code is governed by the Apache 2.0 license. -->
<svg width="16" height="16" viewBox="0 0 16 16" fill="none" xmlns="http://www.w3.org/2000/svg">
<path d="M11 2C11.5523 2 12 2.44772 12 3V9H4V6H6C7.10457 6 8 5.10457 8 4V2H11Z" fill="#45322B"/>
<path d="M7 4C7 4.06893 6.99277 4.13617 6.97949 4.20117C6.88625 4.65686 6.48325 5 6 5H4.41406L7 2.41406V4Z" fill="#45322B"/>
<path fill-rule="evenodd" clip-rule="evenodd" d="M11 1C12.1046 1 13 1.89543 13 3V9H12V3C12 2.44772 11.5523 2 11 2H8V4C8 5.10457 7.10457 6 6 6H4V9H3V5.41406C3.00004 5.1489 3.10547 4.89453 3.29297 4.70703L6.70703 1.29297C6.89453 1.10547 7.1489 1.00004 7.41406 1H11ZM4.41406 5H6C6.55228 5 7 4.55228 7 4V2.41406L4.41406 5Z" fill="#C77D55"/>
<path d="M4.80664 14.2373C4.80658 14.8112 4.62871 15.2652 4.27344 15.5986C4.07183 15.7875 3.82692 15.92 3.54004 16H2.14258C1.85131 15.9188 1.60192 15.7836 1.39551 15.5898C1.04566 15.2509 0.870117 14.797 0.870117 14.2285H1.89551C1.89551 14.5289 1.98022 14.7642 2.14941 14.9336C2.31888 15.1031 2.54913 15.1885 2.83887 15.1885C3.12841 15.1884 3.35794 15.1063 3.52734 14.9424C3.69675 14.773 3.78119 14.5378 3.78125 14.2373V10.9648H2.3877V10.0137H4.80664V14.2373Z" fill="#CED0D6"/>
<path d="M8.62793 10C8.92602 10.0713 9.17896 10.1986 9.38672 10.3828C9.72562 10.678 9.89782 11.0772 9.90332 11.5801H8.87891C8.87888 11.3452 8.80223 11.1624 8.64941 11.0312C8.49635 10.8946 8.27978 10.8262 8.00098 10.8262C7.73332 10.8262 7.52545 10.889 7.37793 11.0146C7.23051 11.1404 7.15723 11.3184 7.15723 11.5479C7.1573 11.7554 7.21203 11.9326 7.32129 12.0801C7.43604 12.2221 7.59946 12.3237 7.8125 12.3838L8.52637 12.5811C9.00184 12.7013 9.36577 12.917 9.61719 13.2285C9.86851 13.5346 9.99413 13.9146 9.99414 14.3682C9.99414 14.7071 9.91205 15.0081 9.74805 15.2705C9.58409 15.5273 9.35462 15.727 9.05957 15.8691C8.94767 15.923 8.82799 15.9665 8.70117 16H7.32129C7.19055 15.9678 7.06695 15.9291 6.95215 15.877C6.65153 15.7403 6.41888 15.5463 6.25488 15.2949C6.09635 15.038 6.01426 14.737 6.00879 14.3926H7.03418C7.03418 14.6384 7.12122 14.8325 7.2959 14.9746C7.4763 15.1113 7.72023 15.1797 8.02637 15.1797C8.32139 15.1796 8.55091 15.1112 8.71484 14.9746C8.88416 14.838 8.96875 14.6496 8.96875 14.4092C8.96874 14.2071 8.90908 14.0323 8.78906 13.8848C8.67426 13.7317 8.50675 13.6279 8.28809 13.5732L7.59961 13.3838C7.12952 13.2635 6.76571 13.0479 6.50879 12.7363C6.2574 12.4248 6.13184 12.0472 6.13184 11.6045C6.13188 11.2657 6.20831 10.9701 6.36133 10.7188C6.51434 10.4675 6.73021 10.2733 7.00879 10.1367C7.13258 10.0772 7.26673 10.0336 7.40918 10H8.62793Z" fill="#CED0D6"/>
<path fill-rule="evenodd" clip-rule="evenodd" d="M13.082 10.0137C13.4811 10.0137 13.8288 10.0901 14.124 10.2432C14.4246 10.3962 14.6563 10.6129 14.8203 10.8916C14.9843 11.1649 15.0664 11.4876 15.0664 11.8594C15.0663 12.2253 14.9818 12.5475 14.8125 12.8262C14.6485 13.1049 14.4191 13.3216 14.124 13.4746C13.8288 13.6277 13.4811 13.7041 13.082 13.7041H12.1143V16H11.0898V10.0137H13.082ZM12.1143 12.7773H13.082C13.3663 12.7773 13.5932 12.6953 13.7627 12.5312C13.9375 12.3619 14.0253 12.138 14.0254 11.8594C14.0254 11.5751 13.9376 11.3505 13.7627 11.1865C13.5932 11.0226 13.3662 10.9404 13.082 10.9404H12.1143V12.7773Z" fill="#CED0D6"/>
</svg>
