<!-- Copyright 2000-2025 JetBrains s.r.o. and contributors. Use of this source code is governed by the Apache 2.0 license. -->
<svg width="16" height="16" viewBox="0 0 16 16" fill="none" xmlns="http://www.w3.org/2000/svg">
<path d="M11 2C11.5523 2 12 2.44772 12 3V9H4V6H6C7.10457 6 8 5.10457 8 4V2H11Z" fill="#FFF4EB"/>
<path d="M7 4C7 4.06893 6.99277 4.13617 6.97949 4.20117C6.88625 4.65686 6.48325 5 6 5H4.41406L7 2.41406V4Z" fill="#FFF4EB"/>
<path fill-rule="evenodd" clip-rule="evenodd" d="M11 1C12.1046 1 13 1.89543 13 3V9H12V3C12 2.44772 11.5523 2 11 2H8V4C8 5.10457 7.10457 6 6 6H4V9H3V5.41406C3.00004 5.1489 3.10547 4.89453 3.29297 4.70703L6.70703 1.29297C6.89453 1.10547 7.1489 1.00004 7.41406 1H11ZM4.41406 5H6C6.55228 5 7 4.55228 7 4V2.41406L4.41406 5Z" fill="#E66D17"/>
<path d="M4.80664 14.2373C4.80658 14.8112 4.62871 15.2652 4.27344 15.5986C4.07181 15.7875 3.82696 15.92 3.54004 16H2.14258C1.85141 15.9188 1.60187 15.7835 1.39551 15.5898C1.04574 15.2509 0.871094 14.797 0.871094 14.2285H1.89551C1.89551 14.5292 1.98095 14.7641 2.15039 14.9336C2.31986 15.1031 2.54913 15.1885 2.83887 15.1885C3.12845 15.1885 3.3579 15.1062 3.52734 14.9424C3.69675 14.773 3.78217 14.5378 3.78223 14.2373V10.9648H2.3877V10.0137H4.80664V14.2373Z" fill="#6C707E"/>
<path d="M8.62891 10C8.92688 10.0713 9.18003 10.1986 9.3877 10.3828C9.72657 10.678 9.8988 11.0772 9.9043 11.5801H8.87891C8.87888 11.3452 8.80232 11.1624 8.64941 11.0312C8.4964 10.8946 8.2806 10.8262 8.00195 10.8262C7.73418 10.8262 7.5265 10.889 7.37891 11.0146C7.23131 11.1404 7.15723 11.3183 7.15723 11.5479C7.1573 11.7553 7.21208 11.9326 7.32129 12.0801C7.43609 12.2222 7.60028 12.3237 7.81348 12.3838L8.52637 12.5811C9.00195 12.7013 9.36573 12.9169 9.61719 13.2285C9.86857 13.5346 9.99413 13.9145 9.99414 14.3682C9.99414 14.7071 9.91205 15.0081 9.74805 15.2705C9.58406 15.5273 9.35465 15.7271 9.05957 15.8691C8.94761 15.923 8.82807 15.9665 8.70117 16H7.32227C7.1912 15.9677 7.06721 15.9292 6.95215 15.877C6.65148 15.7403 6.41888 15.5464 6.25488 15.2949C6.09635 15.038 6.01426 14.737 6.00879 14.3926H7.03418C7.03418 14.6386 7.12194 14.8325 7.29688 14.9746C7.47727 15.1112 7.72028 15.1797 8.02637 15.1797C8.32151 15.1797 8.55087 15.1113 8.71484 14.9746C8.88426 14.8379 8.96973 14.6497 8.96973 14.4092C8.96972 14.2071 8.90915 14.0323 8.78906 13.8848C8.67435 13.7318 8.50749 13.6279 8.28906 13.5732L7.59961 13.3838C7.12963 13.2635 6.76566 13.0479 6.50879 12.7363C6.25747 12.4248 6.13184 12.0472 6.13184 11.6045C6.13188 11.2657 6.20831 10.9701 6.36133 10.7188C6.51439 10.4674 6.73104 10.2734 7.00977 10.1367C7.13338 10.0773 7.26696 10.0336 7.40918 10H8.62891Z" fill="#6C707E"/>
<path d="M12.6885 11.5146C12.7431 11.6239 12.7932 11.7302 12.8369 11.834C12.8806 11.9324 12.9127 12.0098 12.9346 12.0645C12.951 12.0098 12.9817 11.9324 13.0254 11.834C13.0691 11.7303 13.1183 11.6238 13.1729 11.5146L13.9355 10.0137H15.0508L13.4922 12.9082L15.1484 16H14.001L13.1562 14.3438C13.1016 14.2344 13.0492 14.1273 13 14.0234C12.9564 13.9198 12.9242 13.8374 12.9023 13.7773C12.8805 13.8374 12.8474 13.9197 12.8037 14.0234C12.76 14.1273 12.7109 14.2344 12.6562 14.3438L11.8037 16H10.6885L12.3447 12.9336L10.7861 10.0137H11.9346L12.6885 11.5146Z" fill="#6C707E"/>
</svg>
