<!-- Copyright 2000-2022 JetBrains s.r.o. and contributors. Use of this source code is governed by the Apache 2.0 license. -->
<svg width="16" height="16" viewBox="0 0 16 16" fill="none" xmlns="http://www.w3.org/2000/svg">
<path d="M2.03882 13V11.9795H2.55882C2.77982 11.9795 2.94449 11.8842 3.05282 11.6935C3.16115 11.5029 3.21532 11.2104 3.21532 10.816V3.90002H4.30082V10.881C4.30082 11.362 4.24015 11.7607 4.11882 12.077C3.99749 12.389 3.81332 12.6209 3.56632 12.7725C3.31932 12.9242 3.00515 13 2.62382 13H2.03882Z" fill="#F28C35"/>
<path d="M7.09815 13.156C6.66049 13.156 6.30299 13.0607 6.02565 12.87C5.74832 12.6794 5.54249 12.3847 5.40815 11.986C5.27815 11.583 5.21315 11.0652 5.21315 10.4325H6.33115C6.33115 10.8355 6.35715 11.167 6.40915 11.427C6.46549 11.6827 6.54999 11.8712 6.66265 11.9925C6.77965 12.1139 6.92915 12.1745 7.11115 12.1745C7.28449 12.1745 7.42315 12.1182 7.52715 12.0055C7.63549 11.8885 7.71565 11.7109 7.76765 11.4725C7.81965 11.2299 7.84565 10.9179 7.84565 10.5365C7.84565 10.1249 7.79149 9.79768 7.68315 9.55502C7.57915 9.31235 7.41449 9.11952 7.18915 8.97652L6.61065 8.62552C6.32032 8.44352 6.08415 8.23985 5.90215 8.01452C5.72015 7.78918 5.58582 7.53352 5.49915 7.24752C5.41249 6.95718 5.36915 6.62352 5.36915 6.24652C5.36915 5.66152 5.42765 5.18485 5.54465 4.81652C5.66599 4.44818 5.85015 4.17735 6.09715 4.00402C6.34415 3.83069 6.66482 3.74402 7.05915 3.74402C7.46215 3.74402 7.78932 3.83285 8.04066 4.01052C8.29199 4.18385 8.47832 4.45685 8.59966 4.82952C8.72099 5.19785 8.78166 5.67668 8.78166 6.26602H7.67015C7.67015 5.90635 7.64849 5.61385 7.60515 5.38852C7.56182 5.16319 7.49682 4.99635 7.41015 4.88802C7.32782 4.77969 7.21515 4.72552 7.07215 4.72552C6.86415 4.72552 6.71249 4.84685 6.61715 5.08952C6.52182 5.32785 6.47415 5.71135 6.47415 6.24002C6.47415 6.58235 6.52399 6.86402 6.62365 7.08502C6.72765 7.30169 6.89015 7.47719 7.11115 7.61152L7.74815 8.00152C8.03415 8.17918 8.26382 8.38502 8.43715 8.61902C8.61482 8.84868 8.74482 9.11952 8.82716 9.43152C8.90949 9.74352 8.95065 10.1075 8.95065 10.5235C8.95065 11.1345 8.88565 11.635 8.75565 12.025C8.62565 12.4107 8.42415 12.6967 8.15115 12.883C7.88249 13.065 7.53149 13.156 7.09815 13.156Z" fill="#F28C35"/>
<path d="M12.7043 13L11.3328 8.84002L11.0338 8.54752L9.4153 3.90002H10.5203L11.5668 7.01352L11.8918 7.37102L13.8028 13H12.7043ZM9.2853 13L11.2158 7.35152L11.5083 7.08502L12.5873 3.90002H13.6728L12.0218 8.61252L11.7228 8.90502L10.3708 13H9.2853Z" fill="#F28C35"/>
</svg>
