<!-- Copyright 2000-2022 JetBrains s.r.o. and contributors. Use of this source code is governed by the Apache 2.0 license. -->
<svg width="16" height="16" viewBox="0 0 16 16" fill="none" xmlns="http://www.w3.org/2000/svg">
<path d="M1.72154 6.02906C1.45669 2.4062 3.23028 1.72041 3.23028 1.72041C3.20663 1.70622 3.48095 2.06567 3.48095 2.06567C3.49987 2.06094 2.17558 2.71835 2.71476 5.94393C2.54922 5.8919 1.83505 5.84461 1.72154 6.02906Z" fill="#8FC942" stroke="black" stroke-width="0.5"/>
<path d="M0.652694 9.65665C-0.364167 4.81829 4.00597 4.38789 4.67284 8.50263C5.21201 11.8323 6.80115 13.5869 12.0841 11.7566C13.1293 11.3829 19.3156 9.90259 11.9186 13.2984C4.65865 16.8551 0.652694 9.808 0.652694 9.65665Z" fill="#B62233" stroke="black" stroke-width="0.5"/>
<path d="M1.81616 5.34798L1.82562 5.96283C1.86346 5.92972 2.33169 5.80675 2.54452 5.83513C2.53979 5.83513 2.46412 5.26285 2.46412 5.26285L1.81616 5.34798Z" fill="#8FC942"/>
<path d="M4.76251 13.1943C3.6416 12.8727 0.950468 10.5552 0.93628 8.67286C1.06398 5.01689 2.92743 6.07632 1.71666 8.39854C0.893713 9.65188 3.24905 12.2721 4.76251 13.1943Z" fill="#E79EA5"/>
<path d="M3.00318 7.76957C2.9417 7.14527 2.48766 7.10743 2.52077 7.81687C2.53496 8.59725 3.08832 8.6209 3.00791 7.81687C3.00791 7.81687 2.99845 7.7743 3.00318 7.76957Z" fill="black"/>
<path d="M3.83574 7.79793C3.77899 7.12633 3.31549 6.98444 3.3817 7.83577C3.41954 8.55939 3.88777 8.56412 3.83574 7.80266L3.83574 7.79793Z" fill="black"/>
<path d="M1.98174 8.88572C2.37903 10.5458 4.24721 10.3424 5.02759 10.2809C5.02286 10.3093 4.71544 8.93301 4.73436 8.82423C4.74382 8.96139 3.41954 9.01341 3.19252 9.04652C2.90401 9.10328 1.87769 8.65397 1.98174 8.88572Z" fill="black"/>
<path d="M1.96736 8.89517C2.03357 9.12692 1.89642 9.00395 2.79977 9.24989C3.20178 9.35394 3.46664 9.23097 4.33215 9.18368C4.32742 9.21205 4.28486 9.08436 4.26594 8.9472C4.1808 8.99449 3.41461 9.0276 3.15921 9.04179C2.86598 9.10327 1.90115 8.65869 1.96736 8.89517Z" fill="white"/>
<path d="M3.8782 9.35866L4.49304 9.3492L4.41264 9.13164L5.04167 9.05124L5.33491 10.1012L4.59236 10.1674C4.55453 10.1816 3.75996 9.3965 3.8782 9.35866Z" fill="white"/>
</svg>
