<!-- Copyright 2000-2022 JetBrains s.r.o. and contributors. Use of this source code is governed by the Apache 2.0 license. -->
<svg width="16" height="16" viewBox="0 0 16 16" fill="none" xmlns="http://www.w3.org/2000/svg">
<g clip-path="url(#clip0_1136_23878)">
<path fill-rule="evenodd" clip-rule="evenodd" d="M4.60821 6.9827C3.94133 2.86797 -0.4288 3.29836 0.588061 8.13672C0.588061 8.2622 3.34157 13.1275 8.42004 12.7603C8.13561 12.2162 7.96471 11.6035 7.93881 10.9534C5.81198 10.7556 4.97161 9.22687 4.60821 6.9827Z" fill="#B62233"/>
<path d="M0.588061 8.13672L0.832716 8.0853L0.838061 8.11074L0.838061 8.13672L0.588061 8.13672ZM4.60821 6.9827L4.85499 6.94271L4.85499 6.94274L4.60821 6.9827ZM8.42004 12.7603L8.64159 12.6445L8.81815 12.9821L8.43807 13.0096L8.42004 12.7603ZM7.93881 10.9534L7.96196 10.7044L8.1799 10.7247L8.18862 10.9434L7.93881 10.9534ZM0.343405 8.18814C0.0822499 6.94553 0.160413 5.95642 0.463124 5.23936C0.767455 4.51846 1.30095 4.07361 1.92034 3.95664C3.1713 3.72041 4.51109 4.8208 4.85499 6.94271L4.36143 7.0227C4.03845 5.02988 2.85974 4.28808 2.01312 4.44796C1.58373 4.52905 1.17368 4.84181 0.92376 5.43382C0.672222 6.02966 0.585441 6.90874 0.832716 8.0853L0.343405 8.18814ZM8.43807 13.0096C5.80902 13.1997 3.78709 12.0334 2.43275 10.8194C1.75527 10.2121 1.24067 9.5895 0.894869 9.10995C0.721899 8.87008 0.590295 8.6648 0.501015 8.51358C0.456519 8.43821 0.421598 8.37469 0.397015 8.32596C0.384905 8.30195 0.373933 8.27883 0.365349 8.25823C0.361156 8.24817 0.356147 8.23542 0.351759 8.22157C0.349886 8.21566 0.338061 8.18049 0.338061 8.13672L0.838061 8.13672C0.838061 8.11248 0.834337 8.09426 0.832922 8.08771C0.831105 8.07931 0.829254 8.07322 0.828392 8.07051C0.82669 8.06513 0.825708 8.06309 0.82688 8.06591C0.829026 8.07105 0.834135 8.08233 0.843433 8.10076C0.861664 8.13691 0.89086 8.19042 0.931574 8.25938C1.01271 8.39681 1.1359 8.58935 1.30043 8.8175C1.62961 9.27401 2.1208 9.86829 2.76649 10.4471C4.05853 11.6053 5.95259 12.688 8.40202 12.5109L8.43807 13.0096ZM8.1985 12.8761C7.89732 12.3001 7.71641 11.6512 7.68901 10.9633L8.18862 10.9434C8.21301 11.5557 8.37389 12.1324 8.64159 12.6445L8.1985 12.8761ZM4.85499 6.94274C5.03421 8.04948 5.32652 8.94503 5.81141 9.58435C6.28738 10.2119 6.96318 10.6116 7.96196 10.7044L7.91566 11.2023C6.78762 11.0974 5.97981 10.6338 5.41303 9.8865C4.85518 9.15097 4.54561 8.16009 4.36142 7.02267L4.85499 6.94274Z" fill="black"/>
<path fill-rule="evenodd" clip-rule="evenodd" d="M8.98998 9.4443C8.9795 9.46921 8.9693 9.49427 8.95939 9.51948C8.91804 9.62461 8.93162 9.7425 8.98917 9.83971L9.44041 10.6019C9.51275 10.724 9.51275 10.8759 9.44041 10.9981L8.98917 11.7603C8.93162 11.8575 8.91804 11.9754 8.95939 12.0805C8.96926 12.1056 8.97941 12.1305 8.98984 12.1554M8.98998 9.4443C9.10501 9.17074 9.2538 8.91488 9.43114 8.68193C9.44743 8.66053 9.46397 8.63931 9.48075 8.61829C9.55118 8.53005 9.66 8.48291 9.7729 8.48415L10.6575 8.49384C10.6664 8.49394 10.6752 8.49373 10.684 8.49323C10.8157 8.48571 10.9353 8.41172 11.0006 8.29572L11.4348 7.52436C11.4347 7.52447 11.4348 7.52426 11.4348 7.52436C11.4903 7.42595 11.5859 7.35502 11.6976 7.33837C11.7243 7.33439 11.7511 7.33072 11.778 7.32735C11.9221 7.30929 12.0688 7.29999 12.2177 7.29999C12.3666 7.29999 12.5134 7.30928 12.6574 7.32734C12.6573 7.32732 12.6575 7.32735 12.6574 7.32734C12.6841 7.33069 12.7112 7.3344 12.7378 7.33836C12.8495 7.35499 12.9448 7.42553 13.0003 7.52384C13.0004 7.52401 13.0005 7.52418 13.0006 7.52435L13.4348 8.29572C13.5044 8.41945 13.636 8.49539 13.7779 8.49384L14.6626 8.48415C14.6625 8.48415 14.6627 8.48415 14.6626 8.48415C14.7754 8.48298 14.8843 8.53011 14.9547 8.61829C14.9714 8.63913 14.9878 8.66016 15.0039 8.68139C15.0041 8.68157 15.0042 8.68175 15.0043 8.68193C15.1817 8.91486 15.3304 9.1707 15.4455 9.44423C15.4454 9.44408 15.4455 9.44437 15.4455 9.44423C15.4559 9.469 15.4662 9.49435 15.4761 9.51941C15.5174 9.62444 15.5039 9.74222 15.4464 9.83938C15.4465 9.83929 15.4464 9.83947 15.4464 9.83938L14.995 10.6019C14.9227 10.724 14.9227 10.8759 14.995 10.9981L15.4463 11.7603C15.4463 11.7603 15.4463 11.7604 15.4463 11.7603C15.5038 11.8575 15.5174 11.9755 15.4761 12.0806C15.4663 12.1053 15.4563 12.1299 15.4461 12.1543C15.4459 12.1548 15.4457 12.1553 15.4455 12.1557C15.3304 12.4293 15.1817 12.6851 15.0043 12.918C14.988 12.9395 14.9715 12.9607 14.9547 12.9817C14.8843 13.0699 14.7755 13.1171 14.6626 13.1158L13.7779 13.1061C13.7691 13.106 13.7602 13.1062 13.7515 13.1067C13.6198 13.1143 13.5001 13.1883 13.4348 13.3043L13.0006 14.0756C13.0007 14.0755 13.0006 14.0757 13.0006 14.0756C12.9451 14.174 12.8495 14.245 12.7378 14.2616C12.7111 14.2656 12.6843 14.2693 12.6574 14.2726C12.5134 14.2907 12.3666 14.3 12.2177 14.3C12.0688 14.3 11.9221 14.2907 11.778 14.2726C11.7777 14.2726 11.7775 14.2726 11.7772 14.2725C11.7506 14.2692 11.7241 14.2655 11.6976 14.2616C11.5857 14.2449 11.4903 14.1742 11.4348 14.0756L11.0006 13.3043C10.931 13.1805 10.7995 13.1046 10.6575 13.1061L9.7729 13.1158C9.66 13.1171 9.55118 13.0699 9.48075 12.9817C9.46397 12.9607 9.44743 12.9395 9.43114 12.918C9.2538 12.6851 9.10487 12.4289 8.98984 12.1554M9.82898 8.98479C9.82046 8.99598 9.81202 9.00722 9.80366 9.01853C9.66268 9.20921 9.54386 9.417 9.45088 9.63812L9.87066 10.3471C10.036 10.6264 10.036 10.9736 9.87066 11.2528L9.45088 11.9619C9.45648 11.9752 9.46216 11.9884 9.46794 12.0016C9.56394 12.2209 9.6855 12.4267 9.82898 12.6152L10.652 12.6062C10.9765 12.6026 11.2772 12.7762 11.4364 13.059L11.8402 13.7765C11.8446 13.7771 11.849 13.7776 11.8535 13.7781C11.9727 13.7926 12.0942 13.8 12.2177 13.8C12.3458 13.8 12.4718 13.792 12.5952 13.7765L12.9991 13.059C13.1582 12.7762 13.4589 12.6026 13.7834 12.6062L14.6065 12.6152C14.615 12.604 14.6235 12.5928 14.6318 12.5815C14.7728 12.3908 14.8916 12.183 14.9846 11.9619L14.5648 11.2528C14.5441 11.2179 14.526 11.182 14.5105 11.1452C14.402 10.8878 14.4201 10.5915 14.5648 10.3471L14.9846 9.63805C14.979 9.62476 14.9733 9.61151 14.9675 9.5983C14.8715 9.37902 14.75 9.17325 14.6065 8.98479L13.7834 8.99381C13.4589 8.99736 13.1582 8.82378 12.9991 8.54096L12.5952 7.82345C12.5908 7.8229 12.5864 7.82236 12.582 7.82182C12.4627 7.80742 12.3412 7.79999 12.2177 7.79999C12.0897 7.79999 11.9637 7.80799 11.8402 7.82346L11.4364 8.54096C11.2772 8.82378 10.9765 8.99736 10.652 8.99381L9.82898 8.98479ZM12.2177 11.6255C12.6736 11.6255 13.0432 11.2559 13.0432 10.8C13.0432 10.3441 12.6736 9.9745 12.2177 9.9745C11.7618 9.9745 11.3922 10.3441 11.3922 10.8C11.3922 11.2559 11.7618 11.6255 12.2177 11.6255ZM13.5432 10.8C13.5432 11.532 12.9498 12.1255 12.2177 12.1255C11.4856 12.1255 10.8922 11.532 10.8922 10.8C10.8922 10.0679 11.4856 9.4745 12.2177 9.4745C12.9498 9.4745 13.5432 10.0679 13.5432 10.8Z" fill="#6C707E"/>
<path d="M1.65697 4.50907C1.39211 0.886211 3.16571 0.200421 3.16571 0.200421C3.14206 0.186233 3.41637 0.545681 3.41637 0.545681C3.43529 0.540951 2.11101 1.19836 2.65018 4.42394C2.48465 4.37191 1.77048 4.32462 1.65697 4.50907Z" fill="#8FC942" stroke="black" stroke-width="0.5"/>
<path d="M1.75159 3.82799L1.76105 4.44284C1.79888 4.40973 2.26711 4.28676 2.47994 4.31514C2.47521 4.31514 2.39954 3.74286 2.39954 3.74286L1.75159 3.82799Z" fill="#8FC942"/>
<path d="M4.69806 11.6744C3.57715 11.3528 0.886015 9.03531 0.871826 7.15293C0.999525 3.49696 2.86298 4.55639 1.65221 6.87862C0.82926 8.13196 3.18459 10.7521 4.69806 11.6744Z" fill="#E79EA5"/>
<path d="M2.93873 6.24958C2.87725 5.62528 2.42321 5.58744 2.45631 6.29688C2.4705 7.07726 3.02386 7.10091 2.94346 6.29688C2.94346 6.29688 2.934 6.25431 2.93873 6.24958Z" fill="black"/>
<path d="M3.77117 6.27794C3.71441 5.60634 3.25091 5.46445 3.31713 6.31578C3.35496 7.0394 3.82319 7.04413 3.77117 6.28267L3.77117 6.27794Z" fill="black"/>
<path d="M1.91717 7.36573C2.31445 9.02581 4.18264 8.82244 4.96302 8.76095C4.95829 8.78933 4.65087 7.41302 4.66978 7.30424C4.67924 7.4414 3.35496 7.49343 3.12794 7.52653C2.83944 7.58329 1.81312 7.13398 1.91717 7.36573Z" fill="black"/>
<path d="M1.90291 7.37518C1.96912 7.60693 1.83196 7.48396 2.73531 7.7299C3.13733 7.83395 3.40218 7.71098 4.2677 7.66369C4.26297 7.69207 4.2204 7.56437 4.20148 7.42721C4.11635 7.4745 3.35016 7.50761 3.09476 7.5218C2.80153 7.58328 1.83669 7.1387 1.90291 7.37518Z" fill="white"/>
<path d="M3.81362 7.83867L4.42847 7.82921L4.34807 7.61165L4.9771 7.53125L5.27033 8.58122L4.52779 8.64743C4.48995 8.66162 3.69538 7.87651 3.81362 7.83867Z" fill="white"/>
</g>
<defs>
<clipPath id="clip0_1136_23878">
<rect width="16" height="16" fill="white" transform="matrix(1 0 0 -1 0 16)"/>
</clipPath>
</defs>
</svg>
