<!-- Copyright 2000-2023 JetBrains s.r.o. and contributors. Use of this source code is governed by the Apache 2.0 license. -->
<svg width="16" height="16" viewBox="0 0 16 16" fill="none" xmlns="http://www.w3.org/2000/svg">
<g clip-path="url(#clip0_1136_23878)">
<path d="M7.05344 12.7336C7.01823 12.4942 7 12.2492 7 12C7 11.5869 7.0501 11.1855 7.14456 10.8015C5.5932 10.329 4.92218 8.92328 4.6079 6.98246C3.94103 2.86772 -0.429109 3.29812 0.587752 8.13648C0.587752 8.2502 2.84931 12.2569 7.05344 12.7336Z" fill="#B62233" stroke="black" stroke-width="0.5"/>
<path d="M1.65685 4.50907C1.39199 0.886211 3.16558 0.200421 3.16558 0.200421C3.14194 0.186233 3.41625 0.545681 3.41625 0.545681C3.43517 0.540951 2.11089 1.19836 2.65006 4.42394C2.48452 4.37191 1.77036 4.32462 1.65685 4.50907Z" fill="#8FC942" stroke="black" stroke-width="0.5"/>
<path d="M1.75146 3.82799L1.76092 4.44284C1.79876 4.40973 2.26699 4.28676 2.47982 4.31514C2.47509 4.31514 2.39942 3.74286 2.39942 3.74286L1.75146 3.82799Z" fill="#8FC942"/>
<path d="M4.6983 11.6747C3.57739 11.353 0.886259 9.03555 0.872071 7.15318C0.999769 3.49721 2.86322 4.55663 1.65245 6.87886C0.829504 8.1322 3.18484 10.7524 4.6983 11.6747Z" fill="#E79EA5"/>
<path d="M2.93873 6.24958C2.87725 5.62528 2.42321 5.58744 2.45631 6.29688C2.4705 7.07726 3.02386 7.10091 2.94346 6.29688C2.94346 6.29688 2.934 6.25431 2.93873 6.24958Z" fill="black"/>
<path d="M3.77104 6.27794C3.71429 5.60634 3.25079 5.46445 3.317 6.31578C3.35484 7.0394 3.82307 7.04413 3.77104 6.28267L3.77104 6.27794Z" fill="black"/>
<path d="M1.91704 7.36573C2.31433 9.02581 4.18252 8.82244 4.9629 8.76095C4.95817 8.78933 4.65074 7.41302 4.66966 7.30424C4.67912 7.4414 3.35484 7.49343 3.12782 7.52653C2.83931 7.58329 1.81299 7.13398 1.91704 7.36573Z" fill="black"/>
<path d="M1.90315 7.37518C1.96936 7.60693 1.83221 7.48396 2.73556 7.7299C3.13757 7.83395 3.40243 7.71098 4.26794 7.66369C4.26321 7.69207 4.22065 7.56437 4.20173 7.42721C4.1166 7.4745 3.3504 7.50761 3.09501 7.5218C2.80177 7.58328 1.83694 7.1387 1.90315 7.37518Z" fill="white"/>
<path d="M3.81374 7.83867L4.42859 7.82921L4.34819 7.61165L4.97722 7.53125L5.27046 8.58122L4.52791 8.64743C4.49007 8.66162 3.6955 7.87651 3.81374 7.83867Z" fill="white"/>
<path d="M11.998 13C12.5503 13 12.998 12.5523 12.998 12C12.998 11.4477 12.5503 11 11.998 11C11.4458 11 10.998 11.4477 10.998 12C10.998 12.5523 11.4458 13 11.998 13Z" fill="#6C707E"/>
<path fill-rule="evenodd" clip-rule="evenodd" d="M13.1197 15.6756C13.0465 15.8707 12.8599 16 12.6515 16H11.3445C11.1361 16 10.9495 15.8707 10.8763 15.6756L10.6268 15.0102C10.5429 14.7865 10.3124 14.6534 10.0766 14.6926L9.3757 14.8092C9.1701 14.8434 8.96486 14.7464 8.86065 14.5659L8.20715 13.4341C8.10294 13.2536 8.12162 13.0273 8.25404 12.8664L8.70546 12.3177C8.8573 12.1331 8.8573 11.8669 8.70546 11.6824L8.25402 11.1336C8.1216 10.9727 8.10292 10.7464 8.20713 10.5659L8.86063 9.43405C8.96484 9.25355 9.17008 9.15663 9.37568 9.19083L10.0766 9.30742C10.3124 9.34664 10.5429 9.21353 10.6268 8.98976L10.8763 8.32444C10.9495 8.12929 11.1361 8 11.3445 8H12.6515C12.8599 8 13.0465 8.12929 13.1197 8.32444L13.3691 8.98976C13.4531 9.21353 13.6836 9.34664 13.9194 9.30742L14.6203 9.19083C14.8259 9.15663 15.0311 9.25355 15.1354 9.43405L15.7888 10.5659C15.8931 10.7464 15.8744 10.9727 15.742 11.1336L15.2905 11.6824C15.1387 11.8669 15.1387 12.1331 15.2905 12.3177L15.7419 12.8664C15.8744 13.0273 15.893 13.2536 15.7888 13.4341L15.1353 14.5659C15.0311 14.7464 14.8259 14.8434 14.6203 14.8092L13.9194 14.6926C13.6836 14.6534 13.4531 14.7865 13.3691 15.0102L13.1197 15.6756ZM11.691 15H12.305L12.4328 14.6591C12.6846 13.9878 13.3762 13.5885 14.0834 13.7061L14.4426 13.7659L14.7496 13.2341L14.5183 12.953C14.0628 12.3993 14.0628 11.6007 14.5183 11.047L14.7496 10.7659L14.4426 10.2341L14.0834 10.2939C13.3762 10.4115 12.6846 10.0122 12.4328 9.34088L12.305 9H11.691L11.5632 9.34088C11.3114 10.0122 10.6198 10.4115 9.91254 10.2939L9.5534 10.2341L9.2464 10.7659L9.47771 11.047C9.93322 11.6007 9.93322 12.3993 9.47771 12.953L9.24642 13.2341L9.55342 13.7659L9.91254 13.7061C10.6198 13.5885 11.3114 13.9878 11.5632 14.6591L11.691 15Z" fill="#6C707E"/>
<path fill-rule="evenodd" clip-rule="evenodd" d="M12.3086 15H11.6946L11.5668 14.6591C11.315 13.9878 10.6234 13.5885 9.91614 13.7061L9.55702 13.7659L9.25002 13.2341L9.48131 12.953C9.93681 12.3993 9.93681 11.6007 9.48131 11.047L9.25 10.7659L9.557 10.2341L9.91614 10.2939C10.6234 10.4115 11.315 10.0122 11.5668 9.34088L11.6946 9H12.3086L12.4364 9.34088C12.6882 10.0122 13.3798 10.4115 14.087 10.2939L14.4462 10.2341L14.7532 10.7659L14.5219 11.047C14.0664 11.6007 14.0664 12.3993 14.5219 12.953L14.7532 13.2341L14.4462 13.7659L14.087 13.7061C13.3798 13.5885 12.6882 13.9878 12.4364 14.6591L12.3086 15ZM13.0016 12C13.0016 12.5523 12.5539 13 12.0016 13C11.4494 13 11.0016 12.5523 11.0016 12C11.0016 11.4477 11.4494 11 12.0016 11C12.5539 11 13.0016 11.4477 13.0016 12Z" fill="#EBECF0"/>
</g>
<defs>
<clipPath id="clip0_1136_23878">
<rect width="16" height="16" fill="white" transform="matrix(1 0 0 -1 0 16)"/>
</clipPath>
</defs>
</svg>
