<!-- Copyright 2000-2022 JetBrains s.r.o. and contributors. Use of this source code is governed by the Apache 2.0 license. -->
<svg width="16" height="17" viewBox="0 0 16 17" fill="none" xmlns="http://www.w3.org/2000/svg">
<path fill-rule="evenodd" clip-rule="evenodd" d="M4.60833 7.9827C3.94146 3.86797 -0.428678 4.29836 0.588183 9.13672C0.588183 9.2622 3.34169 14.1275 8.42017 13.7603C8.13573 13.2162 7.96483 12.6035 7.93894 11.9534C5.8121 11.7556 4.97173 10.2269 4.60833 7.9827Z" fill="#B62233"/>
<path d="M0.588183 9.13672L0.832838 9.0853L0.838183 9.11074L0.838183 9.13672L0.588183 9.13672ZM4.60833 7.9827L4.85511 7.94271L4.85511 7.94274L4.60833 7.9827ZM8.42017 13.7603L8.64171 13.6445L8.81827 13.9821L8.4382 14.0096L8.42017 13.7603ZM7.93894 11.9534L7.96209 11.7044L8.18003 11.7247L8.18874 11.9434L7.93894 11.9534ZM0.343527 9.18814C0.082372 7.94553 0.160535 6.95642 0.463246 6.23936C0.767577 5.51846 1.30107 5.07361 1.92047 4.95664C3.17142 4.72041 4.51121 5.8208 4.85511 7.94271L4.36155 8.0227C4.03857 6.02988 2.85986 5.28808 2.01325 5.44796C1.58385 5.52905 1.1738 5.84181 0.923882 6.43382C0.672344 7.02966 0.585563 7.90874 0.832838 9.0853L0.343527 9.18814ZM8.4382 14.0096C5.80915 14.1997 3.78721 13.0334 2.43288 11.8194C1.75539 11.2121 1.24079 10.5895 0.894991 10.1099C0.722021 9.87008 0.590417 9.6648 0.501137 9.51358C0.456641 9.43821 0.42172 9.37469 0.397137 9.32596C0.385027 9.30195 0.374055 9.27883 0.365471 9.25823C0.361278 9.24817 0.356269 9.23542 0.351881 9.22157C0.350008 9.21566 0.338183 9.18049 0.338183 9.13672L0.838183 9.13672C0.838183 9.11248 0.834459 9.09426 0.833044 9.08771C0.831227 9.07931 0.829376 9.07322 0.828514 9.07051C0.826812 9.06513 0.82583 9.06309 0.827002 9.06591C0.829148 9.07105 0.834257 9.08233 0.843555 9.10076C0.861786 9.13691 0.890983 9.19042 0.931696 9.25938C1.01284 9.39681 1.13603 9.58935 1.30055 9.8175C1.62973 10.274 2.12092 10.8683 2.76662 11.4471C4.05866 12.6053 5.95271 13.688 8.40214 13.5109L8.4382 14.0096ZM8.19862 13.8761C7.89744 13.3001 7.71653 12.6512 7.68913 11.9633L8.18874 11.9434C8.21313 12.5557 8.37401 13.1324 8.64171 13.6445L8.19862 13.8761ZM4.85511 7.94274C5.03433 9.04948 5.32665 9.94503 5.81153 10.5843C6.2875 11.2119 6.9633 11.6116 7.96209 11.7044L7.91579 12.2023C6.78774 12.0974 5.97994 11.6338 5.41316 10.8865C4.8553 10.151 4.54573 9.16009 4.36154 8.02267L4.85511 7.94274Z" fill="black"/>
<path fill-rule="evenodd" clip-rule="evenodd" d="M8.9901 10.4443C8.97962 10.4692 8.96942 10.4943 8.95951 10.5195C8.91816 10.6246 8.93174 10.7425 8.9893 10.8397L9.44053 11.6019C9.51287 11.724 9.51287 11.8759 9.44053 11.9981L8.9893 12.7603C8.93174 12.8575 8.91816 12.9754 8.95951 13.0805C8.96938 13.1056 8.97953 13.1305 8.98996 13.1554M8.9901 10.4443C9.10513 10.1707 9.25392 9.91488 9.43126 9.68193C9.44755 9.66053 9.46409 9.63931 9.48087 9.61829C9.5513 9.53005 9.66012 9.48291 9.77302 9.48415L10.6576 9.49384C10.6665 9.49394 10.6753 9.49373 10.6841 9.49323C10.8158 9.48571 10.9355 9.41172 11.0008 9.29572L11.4349 8.52436C11.4348 8.52447 11.435 8.52426 11.4349 8.52436C11.4904 8.42595 11.586 8.35502 11.6978 8.33837C11.7245 8.33439 11.7512 8.33072 11.7781 8.32735C11.9222 8.30929 12.0689 8.29999 12.2179 8.29999C12.3668 8.29999 12.5135 8.30928 12.6575 8.32734C12.6574 8.32732 12.6577 8.32735 12.6575 8.32734C12.6843 8.33069 12.7113 8.3344 12.7379 8.33836C12.8496 8.35499 12.9449 8.42553 13.0005 8.52384C13.0006 8.52401 13.0007 8.52418 13.0008 8.52435L13.4349 9.29572C13.5045 9.41945 13.6361 9.49539 13.7781 9.49384L14.6627 9.48415C14.6626 9.48415 14.6628 9.48415 14.6627 9.48415C14.7755 9.48298 14.8845 9.53011 14.9549 9.61829C14.9715 9.63913 14.9879 9.66016 15.0041 9.68139C15.0042 9.68157 15.0043 9.68175 15.0045 9.68193C15.1818 9.91486 15.3306 10.1707 15.4456 10.4442C15.4455 10.4441 15.4457 10.4444 15.4456 10.4442C15.456 10.469 15.4663 10.4943 15.4762 10.5194C15.5175 10.6244 15.504 10.7422 15.4466 10.8394C15.4466 10.8393 15.4465 10.8395 15.4466 10.8394L14.9951 11.6019C14.9228 11.724 14.9228 11.8759 14.9951 11.9981L15.4464 12.7603C15.4464 12.7603 15.4464 12.7604 15.4464 12.7603C15.5039 12.8575 15.5175 12.9755 15.4762 13.0806C15.4665 13.1053 15.4565 13.1299 15.4462 13.1543C15.446 13.1548 15.4458 13.1553 15.4456 13.1557C15.3306 13.4293 15.1818 13.6851 15.0045 13.918C14.9882 13.9395 14.9716 13.9607 14.9549 13.9817C14.8844 14.0699 14.7756 14.1171 14.6627 14.1158L13.7781 14.1061C13.7692 14.106 13.7604 14.1062 13.7516 14.1067C13.6199 14.1143 13.5002 14.1883 13.4349 14.3043L13.0008 15.0756C13.0008 15.0755 13.0007 15.0757 13.0008 15.0756C12.9452 15.174 12.8497 15.245 12.7379 15.2616C12.7112 15.2656 12.6844 15.2693 12.6575 15.2726C12.5135 15.2907 12.3668 15.3 12.2179 15.3C12.0689 15.3 11.9222 15.2907 11.7781 15.2726C11.7779 15.2726 11.7776 15.2726 11.7773 15.2725C11.7507 15.2692 11.7242 15.2655 11.6978 15.2616C11.5859 15.2449 11.4904 15.1742 11.4349 15.0756L11.0008 14.3043C10.9311 14.1805 10.7996 14.1046 10.6576 14.1061L9.77302 14.1158C9.66012 14.1171 9.5513 14.0699 9.48087 13.9817C9.46409 13.9607 9.44756 13.9395 9.43126 13.918C9.25392 13.6851 9.10499 13.4289 8.98996 13.1554M9.8291 9.98479C9.82058 9.99598 9.81215 10.0072 9.80379 10.0185C9.6628 10.2092 9.54398 10.417 9.451 10.6381L9.87078 11.3471C10.0361 11.6264 10.0361 11.9736 9.87078 12.2528L9.451 12.9619C9.4566 12.9752 9.46229 12.9884 9.46807 13.0016C9.56406 13.2209 9.68563 13.4267 9.8291 13.6152L10.6521 13.6062C10.9766 13.6026 11.2773 13.7762 11.4365 14.059L11.8403 14.7765C11.8447 14.7771 11.8492 14.7776 11.8536 14.7781C11.9728 14.7926 12.0944 14.8 12.2179 14.8C12.3459 14.8 12.4719 14.792 12.5953 14.7765L12.9992 14.059C13.1584 13.7762 13.459 13.6026 13.7835 13.6062L14.6066 13.6152C14.6151 13.604 14.6236 13.5928 14.6319 13.5815C14.7729 13.3908 14.8917 13.183 14.9847 12.9619L14.5649 12.2528C14.5442 12.2179 14.5261 12.182 14.5106 12.1452C14.4021 11.8878 14.4202 11.5915 14.5649 11.3471L14.9847 10.6381C14.9791 10.6248 14.9734 10.6115 14.9676 10.5983C14.8716 10.379 14.7501 10.1732 14.6066 9.98479L13.7835 9.99381C13.459 9.99736 13.1584 9.82378 12.9992 9.54096L12.5953 8.82345C12.5909 8.8229 12.5865 8.82236 12.5821 8.82182C12.4629 8.80742 12.3413 8.79999 12.2179 8.79999C12.0898 8.79999 11.9638 8.80799 11.8403 8.82346L11.4365 9.54096C11.2773 9.82378 10.9766 9.99736 10.6521 9.99381L9.8291 9.98479ZM12.2178 12.6255C12.6737 12.6255 13.0433 12.2559 13.0433 11.8C13.0433 11.3441 12.6737 10.9745 12.2178 10.9745C11.7619 10.9745 11.3923 11.3441 11.3923 11.8C11.3923 12.2559 11.7619 12.6255 12.2178 12.6255ZM13.5433 11.8C13.5433 12.532 12.9499 13.1255 12.2178 13.1255C11.4858 13.1255 10.8923 12.532 10.8923 11.8C10.8923 11.0679 11.4858 10.4745 12.2178 10.4745C12.9499 10.4745 13.5433 11.0679 13.5433 11.8Z" fill="#6C707E"/>
<path d="M1.65709 5.50907C1.39223 1.88621 3.16583 1.20042 3.16583 1.20042C3.14218 1.18623 3.4165 1.54568 3.4165 1.54568C3.43541 1.54095 2.11113 2.19836 2.6503 5.42394C2.48477 5.37191 1.7706 5.32462 1.65709 5.50907Z" fill="#8FC942" stroke="black" stroke-width="0.5"/>
<path d="M1.75171 4.82799L1.76117 5.44284C1.799 5.40973 2.26723 5.28676 2.48006 5.31514C2.47534 5.31514 2.39966 4.74286 2.39966 4.74286L1.75171 4.82799Z" fill="#8FC942"/>
<path d="M4.69806 12.6744C3.57715 12.3528 0.886015 10.0353 0.871826 8.15293C0.999525 4.49696 2.86298 5.55639 1.65221 7.87862C0.82926 9.13196 3.18459 11.7521 4.69806 12.6744Z" fill="#E79EA5"/>
<path d="M2.93873 7.24958C2.87725 6.62528 2.42321 6.58744 2.45631 7.29688C2.4705 8.07726 3.02386 8.10091 2.94346 7.29688C2.94346 7.29688 2.934 7.25431 2.93873 7.24958Z" fill="black"/>
<path d="M3.77129 7.27794C3.71453 6.60634 3.25103 6.46445 3.31725 7.31578C3.35509 8.0394 3.82331 8.04413 3.77129 7.28267L3.77129 7.27794Z" fill="black"/>
<path d="M1.91729 8.36573C2.31457 10.0258 4.18276 9.82244 4.96314 9.76095C4.95841 9.78933 4.65099 8.41302 4.66991 8.30424C4.67937 8.4414 3.35508 8.49343 3.12806 8.52653C2.83956 8.58329 1.81324 8.13398 1.91729 8.36573Z" fill="black"/>
<path d="M1.90291 8.37518C1.96912 8.60693 1.83196 8.48396 2.73531 8.7299C3.13733 8.83395 3.40218 8.71098 4.2677 8.66369C4.26297 8.69207 4.2204 8.56437 4.20148 8.42721C4.11635 8.4745 3.35016 8.50761 3.09476 8.5218C2.80153 8.58328 1.83669 8.1387 1.90291 8.37518Z" fill="white"/>
<path d="M3.81374 8.83867L4.42859 8.82921L4.34819 8.61165L4.97722 8.53125L5.27046 9.58122L4.52791 9.64743C4.49007 9.66162 3.6955 8.87651 3.81374 8.83867Z" fill="white"/>
</svg>
