<!-- Copyright 2000-2022 JetBrains s.r.o. and contributors. Use of this source code is governed by the Apache 2.0 license. -->
<svg width="16" height="16" viewBox="0 0 16 16" fill="none" xmlns="http://www.w3.org/2000/svg">
<path fill-rule="evenodd" clip-rule="evenodd" d="M9.49112 14.713C9.52257 14.9876 9.62004 15.0528 10.0675 15.0983C10.2558 15.1174 10.4794 15.1268 10.5646 15.1192C10.8025 15.0978 11.0482 14.9746 11.106 14.8476C11.1537 14.7431 11.1443 14.7207 10.9958 14.5846C10.9019 14.4985 10.7468 14.4141 10.6273 14.384C10.4416 14.3372 10.4124 14.3118 10.3335 14.1286C10.2854 14.0168 10.1912 13.8058 10.1243 13.6599C9.92361 13.2223 9.84648 12.8219 9.87624 12.3721C9.89052 12.1562 9.91333 11.8068 9.92693 11.5956C9.94327 11.3418 9.9731 11.1938 10.0149 11.1591C10.0559 11.125 10.0783 11.0191 10.0787 10.8577C10.0789 10.7209 10.1088 10.5112 10.145 10.3918C10.1812 10.2724 10.2108 10.09 10.2108 9.9865C10.2108 9.88295 10.2314 9.79136 10.2566 9.78296C10.2882 9.77245 10.2874 9.60567 10.2541 9.24848C10.2276 8.96292 10.2181 8.70946 10.233 8.68524C10.2827 8.60485 10.4289 8.63966 10.5005 8.74894C10.5799 8.87013 10.8225 8.94577 10.8725 8.86492C10.8951 8.82833 10.9201 8.83324 10.9608 8.8823C11.0423 8.98052 11.0978 8.9684 11.2892 8.81062C11.4399 8.68639 11.4639 8.67888 11.5005 8.7443C11.5614 8.85312 11.7391 8.83454 11.8378 8.70903C11.9294 8.59259 11.9795 8.60358 11.9795 8.74008C11.9795 8.80205 12.0058 8.8205 12.079 8.81009C12.1576 8.79893 12.1811 8.76339 12.1909 8.6412C12.1977 8.55608 12.2261 8.44137 12.254 8.38628C12.3124 8.27095 12.541 8.14162 12.5787 8.20261C12.5925 8.22496 12.6325 8.24324 12.6675 8.24324C12.7125 8.24324 12.7312 8.19065 12.7312 8.0645C12.7312 7.85859 12.7982 7.76504 12.9279 7.78969C13.046 7.81215 13.1932 7.57624 13.1553 7.4252C13.1403 7.36558 13.151 7.30639 13.1801 7.28844C13.2119 7.26879 13.2193 7.27615 13.1997 7.30784C13.1303 7.42028 13.2462 7.3491 13.383 7.19535C13.5552 7.00176 13.6146 6.80649 13.6394 6.35227C13.6495 6.16772 13.6803 6.00283 13.7077 5.98584C13.7404 5.96567 13.7459 5.90325 13.7238 5.80574C13.6808 5.61673 13.6985 5.26322 13.7519 5.24381C13.7742 5.2357 13.7924 5.1959 13.7924 5.15537C13.7924 5.08562 13.6596 4.70496 13.5774 4.53921C13.5565 4.49709 13.4773 4.32856 13.4013 4.16471L13.2632 3.86679L13.4376 3.7778C13.5508 3.72005 13.6988 3.68882 13.8592 3.68882C14.1269 3.68882 14.338 3.60503 14.4102 3.47018C14.4975 3.30705 14.4623 3.02573 14.3245 2.78481C14.125 2.43608 14.0884 2.41565 13.5243 2.33825C12.975 2.26288 12.8554 2.2468 12.8061 2.17934C12.7921 2.16016 12.7838 2.13683 12.773 2.1068C12.6942 1.88925 12.6288 1.78746 12.5676 1.78746C12.5345 1.78746 12.4959 1.75761 12.4819 1.72113C12.4679 1.68465 12.4285 1.65481 12.3943 1.65481C12.3601 1.65481 12.2934 1.63062 12.246 1.60106C12.1785 1.55888 12.128 1.55888 12.0113 1.60106C11.9296 1.63062 11.8194 1.65481 11.7664 1.65481C11.7134 1.65481 11.67 1.6752 11.67 1.70012C11.67 1.72504 11.6199 1.76449 11.5586 1.78778C11.3722 1.85864 10.9623 2.18365 10.8715 2.33253C10.8245 2.4097 10.7859 2.53442 10.7858 2.60969C10.7857 2.69094 10.7492 2.77958 10.6958 2.82787C10.6464 2.87259 10.5644 2.97633 10.5137 3.05838C10.4274 3.19803 10.4236 3.24578 10.4535 3.80531C10.4837 4.36912 10.4805 4.40776 10.3968 4.48575C10.3095 4.56707 10.3071 4.56626 10.2535 4.43676C10.2038 4.31691 10.1296 4.20802 9.85771 3.85659C9.76334 3.7346 9.44471 3.50095 9.29746 3.44577C9.22152 3.41732 8.87626 3.04273 8.64523 2.73814C8.58989 2.66518 8.50733 2.47943 8.46177 2.32537C8.37793 2.04191 8.33687 1.99167 7.93945 1.68608C7.83187 1.60336 7.77885 1.52673 7.77885 1.45394C7.77885 1.36057 7.7584 1.34528 7.63345 1.34528C7.42882 1.34528 7.06624 1.20916 6.9014 1.07046C6.77437 0.963567 6.72784 0.952996 6.37869 0.9517C6.16789 0.950918 5.97485 0.929715 5.94972 0.904582C5.92459 0.87945 5.86794 0.858887 5.82383 0.858887C5.7435 0.858887 5.71021 0.872131 5.4506 1.00733C5.37389 1.04729 5.25861 1.07998 5.19442 1.07998C4.96414 1.07998 4.37409 1.82899 4.37409 2.12131C4.37409 2.28872 3.94056 3.09924 3.69995 3.38168C3.40887 3.72336 3.18022 4.04664 3.18022 4.11651C3.18022 4.22086 2.8119 4.9505 2.63776 5.19111C2.54052 5.32548 2.34735 5.55481 2.2085 5.70072C2.06964 5.84664 1.91318 6.04166 1.86081 6.1341C1.74026 6.34684 1.692 6.62947 1.76184 6.71363C1.82306 6.78739 1.7388 7.03143 1.61734 7.13216C1.52355 7.20994 1.52249 7.4308 1.61566 7.48294C1.67766 7.51764 1.67974 7.5435 1.63126 7.67756C1.58366 7.80919 1.58618 7.85386 1.64819 7.97817C1.68826 8.05847 1.72103 8.16185 1.72103 8.2079C1.72103 8.25395 1.80062 8.43664 1.8979 8.61389C1.99518 8.79114 2.07477 8.96542 2.07477 9.00118C2.07477 9.03694 2.12663 9.13473 2.19001 9.21849C2.25339 9.30226 2.33325 9.43546 2.36747 9.5145C2.48771 9.79216 2.60191 9.65639 2.60025 9.23776C2.59986 9.14028 2.63059 9.00099 2.66852 8.92824C2.77384 8.72626 2.75527 8.54239 2.61126 8.36117C2.44831 8.15614 2.39396 7.81313 2.49296 7.61468C2.53047 7.53948 2.56117 7.38152 2.56117 7.26366C2.56117 7.1458 2.58046 7.04936 2.60404 7.04936C2.62762 7.04936 2.64429 6.97963 2.64108 6.8944C2.63085 6.62217 2.6769 6.6849 2.76286 7.06031C2.85908 7.48053 2.87477 8.58043 2.79045 8.99494C2.66013 9.63563 2.6374 9.87683 2.6853 10.1103C2.72873 10.322 2.72432 10.3559 2.63762 10.4762C2.55649 10.5889 2.54277 10.6655 2.54662 10.9847C2.5496 11.2325 2.57684 11.4199 2.62652 11.5346C2.78712 11.9055 2.75135 12.7786 2.5602 13.1533C2.50865 13.2543 2.47273 13.4128 2.47273 13.5392C2.47273 13.6592 2.44417 13.7913 2.40781 13.8394C2.30044 13.9813 2.32531 14.1481 2.47229 14.2718C2.62908 14.4037 3.07448 14.5129 3.14957 14.4378C3.17615 14.4112 3.27966 14.3895 3.37959 14.3895C3.47951 14.3895 3.59829 14.3624 3.64353 14.3294C3.71902 14.2741 3.72098 14.2514 3.66736 14.053C3.63523 13.9341 3.58144 13.8046 3.54782 13.7653C3.51421 13.726 3.45889 13.5369 3.42489 13.3452C3.39089 13.1535 3.33232 12.8895 3.29472 12.7586C3.21331 12.4751 3.22516 11.5705 3.31302 11.3606C3.34357 11.2876 3.37379 11.0588 3.38019 10.8521C3.39848 10.2605 3.44448 10.0095 3.54113 9.97373C3.6391 9.93749 3.93192 9.37829 3.93192 9.22742C3.93192 9.12336 4.04689 8.8599 4.11056 8.81807C4.16192 8.78433 4.27711 8.34169 4.31194 8.04426L4.34286 7.78018C4.34295 7.77988 4.34304 7.77957 4.34312 7.77927L4.43593 8.02671C4.48704 8.16298 4.55105 8.30226 4.57818 8.33624C4.6053 8.37021 4.68348 8.53729 4.75192 8.70753C4.86339 8.98483 4.87662 9.07228 4.87903 9.54766C4.88051 9.8395 4.8644 10.2378 4.84323 10.4328C4.8064 10.7721 4.80943 10.7931 4.91333 10.9192C5.11045 11.1586 5.66464 12.0511 5.76448 12.2901C5.82899 12.4444 5.82869 12.4641 5.76072 12.5392C5.72013 12.5841 5.66388 12.6208 5.63572 12.6208C5.54882 12.6208 5.34744 12.8626 5.30179 13.0218C5.24912 13.2054 5.24507 13.6013 5.28098 13.7942C5.28081 13.7969 5.28063 13.7996 5.28045 13.8022C5.2812 13.8025 5.28195 13.8028 5.2827 13.8031C5.29246 13.8521 5.30498 13.8867 5.32009 13.8992C5.354 13.9274 5.47836 13.9615 5.59645 13.975C5.79695 13.998 5.82034 13.9899 5.94963 13.8519C6.02578 13.7706 6.11532 13.6245 6.14861 13.5273L6.20913 13.3504L6.22241 13.5556C6.23069 13.6836 6.26563 13.7879 6.31528 13.8328C6.44191 13.9474 7.04319 14.0458 7.41406 14.0127C7.71686 13.9856 7.73464 13.978 7.73464 13.8758C7.73464 13.8163 7.70633 13.6999 7.67174 13.6171C7.62263 13.4995 7.56881 13.4545 7.42628 13.4118C7.19247 13.3418 7.00825 13.1522 6.92335 12.8943C6.85743 12.6941 6.85831 12.6879 6.97571 12.5283C7.09607 12.3646 7.58691 11.9342 7.97966 11.648C8.3042 11.4115 8.37488 11.291 8.38119 10.9636C8.38416 10.8097 8.40004 10.594 8.41648 10.4844C8.43519 10.3596 8.4288 10.2742 8.39939 10.2561C8.37356 10.2401 8.31067 10.1452 8.25965 10.0452C8.18438 9.89765 8.16804 9.79038 8.17305 9.47671C8.17662 9.25295 8.16008 9.07826 8.1338 9.06201C8.10882 9.04657 8.08838 9.00432 8.08838 8.96811C8.08838 8.91544 8.1436 8.90492 8.36474 8.91545L8.6411 8.92861L8.65352 9.44389C8.66286 9.83153 8.68203 9.97252 8.7309 10.0131C8.76663 10.0427 8.79586 10.1019 8.79586 10.1446C8.79586 10.1873 8.82761 10.2486 8.86641 10.2808C8.91921 10.3246 8.93 10.3829 8.90928 10.5125C8.889 10.6393 8.89929 10.699 8.94771 10.7357C9.02271 10.7925 9.04931 11.205 8.99656 11.4932C8.96447 11.6686 9.02836 11.9259 9.21311 12.3651C9.25114 12.4555 9.28226 12.6383 9.28226 12.7713C9.28226 12.9042 9.30387 13.069 9.33029 13.1375C9.3567 13.2059 9.38157 13.4817 9.38556 13.7503C9.39118 14.1292 9.40989 14.2647 9.46904 14.355C9.51096 14.419 9.5276 14.4778 9.506 14.4857C9.4844 14.4936 9.4777 14.5959 9.49112 14.713ZM12.914 7.60492C12.918 7.66634 12.9244 7.66753 12.9386 7.61314C12.9388 7.61226 12.939 7.61139 12.9393 7.61053C12.9309 7.60901 12.9225 7.60702 12.914 7.60492ZM2.4525 9.33613C2.44871 9.3365 2.44485 9.33663 2.44094 9.33654L2.45022 9.34817L2.4525 9.33613ZM1.62828 7.3379C1.62751 7.33462 1.62685 7.33129 1.62631 7.32792L1.61883 7.33678L1.62828 7.3379ZM6.93872 11.6789C6.93872 11.7601 6.78515 11.8577 6.60709 11.8896C6.50981 11.907 6.40864 11.939 6.38226 11.9608C6.34996 11.9875 6.26337 11.8527 6.11696 11.5479C5.91705 11.1316 5.89838 11.0647 5.88435 10.7137C5.87322 10.4355 5.89374 10.232 5.96013 9.96202C6.0102 9.75844 6.06279 9.4128 6.07701 9.19392C6.09122 8.97504 6.11363 8.72655 6.12681 8.64171L6.15076 8.48746L6.21468 8.63948C6.24984 8.72309 6.26724 8.84325 6.25334 8.90651C6.23945 8.96976 6.25629 9.08859 6.29076 9.17058C6.32702 9.25682 6.34387 9.39098 6.33073 9.48892C6.30939 9.64802 6.31503 9.65821 6.42439 9.65821C6.53437 9.65821 6.54076 9.67021 6.54076 9.87669C6.54076 9.99685 6.55876 10.1063 6.58077 10.1199C6.60277 10.1335 6.61045 10.2216 6.59782 10.3157C6.57303 10.5006 6.59777 10.5321 6.82817 10.6089C6.94574 10.6481 6.95912 10.6702 6.94578 10.8032C6.93127 10.9478 6.93537 10.9522 7.06038 10.9272C7.17538 10.9042 7.19833 10.9187 7.26348 11.0553L7.33693 11.2093L7.13782 11.4222C7.02832 11.5393 6.93872 11.6548 6.93872 11.6789ZM10.6993 5.17994C10.7788 5.20075 10.7882 5.23313 10.7766 5.44867C10.7688 5.59537 10.7414 5.70106 10.7083 5.71197C10.6735 5.72344 10.653 5.68732 10.653 5.61455C10.653 5.55095 10.6232 5.42747 10.5867 5.34016C10.5502 5.25285 10.5204 5.12153 10.5204 5.04833C10.5204 4.97513 10.4788 4.84325 10.4281 4.75526C10.3774 4.66727 10.3625 4.62636 10.3949 4.66435C10.4274 4.70233 10.4888 4.74648 10.5314 4.76245C10.5879 4.78365 10.6088 4.84071 10.6088 4.97388C10.6088 5.12046 10.6266 5.16093 10.6993 5.17994Z" fill="#2F729D"/>
<path d="M10.0675 15.0983L10.0654 15.1197L10.0675 15.0983ZM9.49112 14.713L9.46973 14.7155V14.7155L9.49112 14.713ZM10.5646 15.1192L10.5626 15.0977L10.5646 15.1192ZM11.106 14.8476L11.1256 14.8565L11.106 14.8476ZM10.9958 14.5846L10.9813 14.6005L10.9958 14.5846ZM10.6273 14.384L10.6326 14.3631L10.6273 14.384ZM10.3335 14.1286L10.3533 14.1201L10.3335 14.1286ZM10.1243 13.6599L10.1048 13.6689L10.1243 13.6599ZM9.87624 12.3721L9.89772 12.3735L9.87624 12.3721ZM9.92693 11.5956L9.90544 11.5942L9.92693 11.5956ZM10.0149 11.1591L10.0287 11.1756L10.0149 11.1591ZM10.0787 10.8577L10.0571 10.8577L10.0787 10.8577ZM10.145 10.3918L10.1244 10.3856L10.145 10.3918ZM10.2566 9.78296L10.2635 9.80338L10.2566 9.78296ZM10.2541 9.24848L10.2327 9.25047L10.2541 9.24848ZM10.233 8.68524L10.2147 8.67392V8.67392L10.233 8.68524ZM10.5005 8.74894L10.5185 8.73715V8.73714L10.5005 8.74894ZM10.8725 8.86492L10.8542 8.8536L10.8725 8.86492ZM10.9608 8.8823L10.9442 8.89605H10.9442L10.9608 8.8823ZM11.2892 8.81062L11.2755 8.79401L11.2892 8.81062ZM11.5005 8.7443L11.5193 8.73378L11.5005 8.7443ZM11.8378 8.70903L11.8209 8.69571L11.8378 8.70903ZM12.079 8.81009L12.0821 8.83141L12.079 8.81009ZM12.1909 8.6412L12.2124 8.64292L12.1909 8.6412ZM12.254 8.38628L12.2732 8.396L12.254 8.38628ZM12.5787 8.20261L12.5604 8.21393L12.5787 8.20261ZM12.9279 7.78969L12.9319 7.76854L12.9279 7.78969ZM13.1553 7.4252L13.1761 7.41996L13.1553 7.4252ZM13.1801 7.28844L13.1914 7.30675L13.1801 7.28844ZM13.1997 7.30784L13.1814 7.29652V7.29652L13.1997 7.30784ZM13.383 7.19535L13.3669 7.18104L13.383 7.19535ZM13.6394 6.35227L13.6609 6.35345L13.6394 6.35227ZM13.7077 5.98584L13.6964 5.96753L13.6964 5.96753L13.7077 5.98584ZM13.7238 5.80574L13.7447 5.80096V5.80096L13.7238 5.80574ZM13.7519 5.24381L13.7592 5.26404H13.7592L13.7519 5.24381ZM13.7924 5.15537L13.814 5.15537V5.15536L13.7924 5.15537ZM13.5774 4.53921L13.5581 4.54878L13.5774 4.53921ZM13.4013 4.16471L13.4208 4.15565L13.4013 4.16471ZM13.2632 3.86679L13.2534 3.84761L13.235 3.85703L13.2437 3.87584L13.2632 3.86679ZM13.4376 3.7778L13.4279 3.75863L13.4376 3.7778ZM14.4102 3.47018L14.4292 3.48034L14.4102 3.47018ZM14.3245 2.78481L14.3432 2.77411L14.3245 2.78481ZM13.5243 2.33825L13.5214 2.35958L13.5243 2.33825ZM12.8061 2.17934L12.8235 2.16665V2.16665L12.8061 2.17934ZM12.773 2.1068L12.7932 2.09947V2.09947L12.773 2.1068ZM12.4819 1.72113L12.502 1.71342V1.71342L12.4819 1.72113ZM12.246 1.60106L12.2574 1.5828V1.5828L12.246 1.60106ZM12.0113 1.60106L12.0187 1.62131L12.0113 1.60106ZM11.5586 1.78778L11.551 1.76765L11.5586 1.78778ZM10.8715 2.33253L10.8899 2.34374L10.8715 2.33253ZM10.7858 2.60969L10.8074 2.60971V2.60971L10.7858 2.60969ZM10.6958 2.82787L10.7102 2.84383V2.84383L10.6958 2.82787ZM10.5137 3.05838L10.4954 3.04706L10.5137 3.05838ZM10.4535 3.80531L10.475 3.80416L10.4535 3.80531ZM10.3968 4.48575L10.4115 4.5015L10.3968 4.48575ZM10.2535 4.43676L10.2336 4.44499L10.2535 4.43676ZM9.85771 3.85659L9.87474 3.84342L9.85771 3.85659ZM9.29746 3.44577L9.30501 3.42561L9.29746 3.44577ZM8.64523 2.73814L8.66238 2.72513L8.64523 2.73814ZM8.46177 2.32537L8.48241 2.31926V2.31926L8.46177 2.32537ZM7.93945 1.68608L7.92633 1.70315L7.93945 1.68608ZM6.9014 1.07046L6.91526 1.05399V1.05399L6.9014 1.07046ZM6.37869 0.9517L6.37861 0.973229L6.37869 0.9517ZM5.94972 0.904582L5.96494 0.889359L5.94972 0.904582ZM5.4506 1.00733L5.46055 1.02643L5.4506 1.00733ZM3.69995 3.38168L3.68356 3.36771L3.69995 3.38168ZM2.63776 5.19111L2.6552 5.20373L2.63776 5.19111ZM1.86081 6.1341L1.87954 6.14471H1.87954L1.86081 6.1341ZM1.76184 6.71363L1.77841 6.69988L1.76184 6.71363ZM1.61734 7.13216L1.60359 7.11559L1.61734 7.13216ZM1.61566 7.48294L1.62618 7.46416H1.62618L1.61566 7.48294ZM1.63126 7.67756L1.65151 7.68488L1.63126 7.67756ZM1.64819 7.97817L1.62893 7.98778H1.62893L1.64819 7.97817ZM1.8979 8.61389L1.91678 8.60353H1.91678L1.8979 8.61389ZM2.19001 9.21849L2.17284 9.23148L2.19001 9.21849ZM2.36747 9.5145L2.38723 9.50594H2.38723L2.36747 9.5145ZM2.60025 9.23776L2.62178 9.23768L2.60025 9.23776ZM2.66852 8.92824L2.64943 8.91829L2.66852 8.92824ZM2.61126 8.36117L2.62811 8.34778L2.61126 8.36117ZM2.49296 7.61468L2.47369 7.60507L2.49296 7.61468ZM2.64108 6.8944L2.6626 6.89359L2.64108 6.8944ZM2.76286 7.06031L2.78385 7.0555L2.76286 7.06031ZM2.79045 8.99494L2.76936 8.99065L2.79045 8.99494ZM2.6853 10.1103L2.66422 10.1147L2.6853 10.1103ZM2.63762 10.4762L2.65509 10.4888L2.63762 10.4762ZM2.54662 10.9847L2.52509 10.985L2.54662 10.9847ZM2.62652 11.5346L2.64627 11.5261L2.62652 11.5346ZM2.5602 13.1533L2.57938 13.1631L2.5602 13.1533ZM2.40781 13.8394L2.42498 13.8524H2.42498L2.40781 13.8394ZM2.47229 14.2718L2.48615 14.2553L2.47229 14.2718ZM3.14957 14.4378L3.16479 14.4531H3.16479L3.14957 14.4378ZM3.64353 14.3294L3.63082 14.312H3.63082L3.64353 14.3294ZM3.66736 14.053L3.68815 14.0474L3.66736 14.053ZM3.42489 13.3452L3.44609 13.3415L3.42489 13.3452ZM3.29472 12.7586L3.27403 12.7645L3.29472 12.7586ZM3.31302 11.3606L3.29316 11.3523L3.31302 11.3606ZM3.38019 10.8521L3.35867 10.8514L3.38019 10.8521ZM3.54113 9.97373L3.5486 9.99392L3.54113 9.97373ZM4.11056 8.81807L4.12238 8.83606H4.12238L4.11056 8.81807ZM4.31194 8.04426L4.33332 8.04676L4.31194 8.04426ZM4.34286 7.78018L4.32189 7.77416L4.32148 7.77768L4.34286 7.78018ZM4.34312 7.77927L4.36328 7.77171L4.34041 7.71074L4.32243 7.77333L4.34312 7.77927ZM4.43593 8.02671L4.45609 8.01915L4.43593 8.02671ZM4.57818 8.33624L4.56135 8.34967H4.56135L4.57818 8.33624ZM4.75192 8.70753L4.73194 8.71556L4.75192 8.70753ZM4.87903 9.54766L4.90056 9.54755L4.87903 9.54766ZM4.84323 10.4328L4.86464 10.4352L4.84323 10.4328ZM4.91333 10.9192L4.92995 10.9055L4.91333 10.9192ZM5.76448 12.2901L5.74462 12.2984L5.76448 12.2901ZM5.76072 12.5392L5.74476 12.5248L5.76072 12.5392ZM5.30179 13.0218L5.2811 13.0159L5.30179 13.0218ZM5.28098 13.7942L5.30314 13.7956L5.30214 13.7903L5.28098 13.7942ZM5.28045 13.8022L5.25897 13.8008L5.25792 13.8166L5.27267 13.8223L5.28045 13.8022ZM5.2827 13.8031L5.30381 13.7989L5.30151 13.7874L5.29055 13.7831L5.2827 13.8031ZM5.32009 13.8992L5.30634 13.9158L5.32009 13.8992ZM5.59645 13.975L5.59891 13.9536L5.59645 13.975ZM5.94963 13.8519L5.93392 13.8372L5.94963 13.8519ZM6.14861 13.5273L6.16898 13.5342L6.14861 13.5273ZM6.20913 13.3504L6.23061 13.349L6.18876 13.3434L6.20913 13.3504ZM6.22241 13.5556L6.24389 13.5542L6.22241 13.5556ZM6.31528 13.8328L6.30083 13.8488L6.31528 13.8328ZM7.41406 14.0127L7.41214 13.9912L7.41406 14.0127ZM7.67174 13.6171L7.65187 13.6254L7.67174 13.6171ZM7.42628 13.4118L7.4201 13.4325L7.42628 13.4118ZM6.92335 12.8943L6.9438 12.8876L6.92335 12.8943ZM6.97571 12.5283L6.95837 12.5155L6.97571 12.5283ZM7.97966 11.648L7.96698 11.6306L7.97966 11.648ZM8.38119 10.9636L8.40272 10.9641L8.38119 10.9636ZM8.41648 10.4844L8.43777 10.4876L8.41648 10.4844ZM8.39939 10.2561L8.38807 10.2744H8.38807L8.39939 10.2561ZM8.25965 10.0452L8.27883 10.0354L8.25965 10.0452ZM8.17305 9.47671L8.15152 9.47637L8.17305 9.47671ZM8.1338 9.06201L8.12248 9.08032L8.1338 9.06201ZM8.36474 8.91545L8.36576 8.89395L8.36474 8.91545ZM8.6411 8.92861L8.66262 8.9281L8.66214 8.90806L8.64212 8.90711L8.6411 8.92861ZM8.65352 9.44389L8.67504 9.44337L8.65352 9.44389ZM8.7309 10.0131L8.71715 10.0296L8.7309 10.0131ZM8.86641 10.2808L8.85266 10.2973V10.2973L8.86641 10.2808ZM8.90928 10.5125L8.88802 10.5091L8.90928 10.5125ZM8.94771 10.7357L8.93471 10.7528L8.94771 10.7357ZM8.99656 11.4932L9.01774 11.4971L8.99656 11.4932ZM9.21311 12.3651L9.23295 12.3568L9.21311 12.3651ZM9.33029 13.1375L9.35037 13.1297L9.33029 13.1375ZM9.38556 13.7503L9.40708 13.75L9.38556 13.7503ZM9.46904 14.355L9.45103 14.3668L9.46904 14.355ZM12.914 7.60492L12.9192 7.58403L12.8907 7.57695L12.8925 7.6063L12.914 7.60492ZM12.9386 7.61314L12.9594 7.61858L12.9594 7.61857L12.9386 7.61314ZM12.9393 7.61053L12.96 7.61632L12.9664 7.59357L12.9431 7.58935L12.9393 7.61053ZM2.44094 9.33654L2.44144 9.31502L2.39538 9.31395L2.42412 9.34997L2.44094 9.33654ZM2.4525 9.33613L2.47365 9.34014L2.479 9.31194L2.45042 9.3147L2.4525 9.33613ZM2.45022 9.34817L2.43339 9.36159L2.46263 9.39824L2.47137 9.35218L2.45022 9.34817ZM1.62631 7.32792L1.64757 7.32453L1.64017 7.27812L1.60986 7.31403L1.62631 7.32792ZM1.62828 7.3379L1.62573 7.35928L1.65631 7.36293L1.64923 7.33295L1.62828 7.3379ZM1.61883 7.33678L1.60238 7.32289L1.5766 7.35343L1.61629 7.35816L1.61883 7.33678ZM6.60709 11.8896L6.60329 11.8684L6.60709 11.8896ZM6.38226 11.9608L6.36855 11.9442L6.38226 11.9608ZM6.11696 11.5479L6.13636 11.5385L6.11696 11.5479ZM5.88435 10.7137L5.86284 10.7146L5.88435 10.7137ZM5.96013 9.96202L5.98104 9.96716L5.96013 9.96202ZM6.07701 9.19392L6.05552 9.19253L6.07701 9.19392ZM6.12681 8.64171L6.10553 8.63841L6.12681 8.64171ZM6.15076 8.48746L6.17061 8.47911L6.14115 8.40906L6.12949 8.48415L6.15076 8.48746ZM6.21468 8.63948L6.23453 8.63113V8.63113L6.21468 8.63948ZM6.29076 9.17058L6.31061 9.16223L6.29076 9.17058ZM6.33073 9.48892L6.35207 9.49179L6.33073 9.48892ZM6.58077 10.1199L6.59209 10.1016H6.59209L6.58077 10.1199ZM6.59782 10.3157L6.57649 10.3129L6.59782 10.3157ZM6.82817 10.6089L6.83499 10.5885L6.82817 10.6089ZM6.94578 10.8032L6.9672 10.8053L6.94578 10.8032ZM7.06038 10.9272L7.0646 10.9484L7.06038 10.9272ZM7.26348 11.0553L7.24405 11.0646L7.26348 11.0553ZM7.33693 11.2093L7.35265 11.2241L7.36268 11.2133L7.35636 11.2001L7.33693 11.2093ZM7.13782 11.4222L7.15355 11.4369L7.13782 11.4222ZM10.7766 5.44867L10.7551 5.44752V5.44752L10.7766 5.44867ZM10.6993 5.17994L10.7047 5.15911L10.6993 5.17994ZM10.7083 5.71197L10.715 5.73241L10.7083 5.71197ZM10.5867 5.34016L10.6065 5.33186L10.5867 5.34016ZM10.4281 4.75526L10.4095 4.76602L10.4281 4.75526ZM10.5314 4.76245L10.539 4.74229L10.5314 4.76245ZM10.0697 15.0768C9.84519 15.054 9.71438 15.0265 9.63527 14.9737C9.5591 14.9228 9.52801 14.846 9.51251 14.7106L9.46973 14.7155C9.48567 14.8547 9.51905 14.9478 9.61135 15.0095C9.70072 15.0692 9.84239 15.097 10.0654 15.1197L10.0697 15.0768ZM10.5626 15.0977C10.4797 15.1051 10.2578 15.0959 10.0697 15.0768L10.0654 15.1197C10.2537 15.1388 10.4792 15.1484 10.5665 15.1406L10.5626 15.0977ZM11.0864 14.8387C11.0606 14.8954 10.9902 14.9551 10.8932 15.0038C10.7971 15.0519 10.6788 15.0873 10.5626 15.0977L10.5665 15.1406C10.6882 15.1297 10.8118 15.0928 10.9125 15.0422C11.0122 14.9922 11.0936 14.9268 11.1256 14.8565L11.0864 14.8387ZM10.9813 14.6005C11.0184 14.6345 11.0462 14.6609 11.0665 14.683C11.0869 14.7052 11.0986 14.7218 11.1046 14.7362C11.1156 14.7625 11.1104 14.7862 11.0864 14.8387L11.1256 14.8565C11.1494 14.8045 11.1632 14.7647 11.1443 14.7196C11.1354 14.6984 11.1199 14.6774 11.0982 14.6538C11.0765 14.6302 11.0475 14.6028 11.0104 14.5688L10.9813 14.6005ZM10.6221 14.4049C10.7379 14.434 10.8899 14.5167 10.9813 14.6005L11.0104 14.5688C10.9139 14.4803 10.7556 14.3941 10.6326 14.3631L10.6221 14.4049ZM10.3138 14.1371C10.353 14.2282 10.3816 14.2849 10.4262 14.3237C10.471 14.3626 10.5297 14.3816 10.6221 14.4049L10.6326 14.3631C10.5393 14.3396 10.4905 14.3225 10.4545 14.2912C10.4183 14.2598 10.393 14.2123 10.3533 14.1201L10.3138 14.1371ZM10.1048 13.6689C10.1716 13.8147 10.2657 14.0255 10.3138 14.1371L10.3533 14.1201C10.3051 14.008 10.2109 13.797 10.1439 13.6509L10.1048 13.6689ZM9.85476 12.3707C9.82474 12.8243 9.90265 13.2282 10.1048 13.6689L10.1439 13.6509C9.94456 13.2163 9.86821 12.8195 9.89772 12.3735L9.85476 12.3707ZM9.90544 11.5942C9.89185 11.8054 9.86904 12.1548 9.85476 12.3707L9.89772 12.3735C9.912 12.1576 9.93481 11.8082 9.94841 11.597L9.90544 11.5942ZM10.0012 11.1425C9.98647 11.1547 9.97513 11.1746 9.96579 11.1983C9.95622 11.2227 9.94776 11.2537 9.94026 11.2909C9.92526 11.3653 9.91364 11.4669 9.90544 11.5942L9.94841 11.597C9.95656 11.4705 9.96802 11.3711 9.98247 11.2994C9.9897 11.2635 9.99756 11.2352 10.0059 11.2141C10.0144 11.1924 10.0224 11.1808 10.0287 11.1756L10.0012 11.1425ZM10.0571 10.8577C10.057 10.9376 10.0513 11.0028 10.041 11.0517C10.0304 11.1018 10.0157 11.1304 10.0012 11.1425L10.0287 11.1756C10.0551 11.1537 10.0722 11.1123 10.0831 11.0606C10.0943 11.0077 10.1 10.9393 10.1002 10.8578L10.0571 10.8577ZM10.1244 10.3856C10.0875 10.5072 10.0574 10.7189 10.0571 10.8577L10.1002 10.8578C10.1004 10.7228 10.13 10.5153 10.1656 10.3981L10.1244 10.3856ZM10.1893 9.9865C10.1893 10.0875 10.1601 10.2678 10.1244 10.3856L10.1656 10.3981C10.2023 10.2771 10.2324 10.0925 10.2324 9.9865H10.1893ZM10.2498 9.76253C10.2416 9.76527 10.2355 9.7707 10.231 9.77595C10.2265 9.7813 10.2227 9.7877 10.2195 9.79441C10.213 9.80783 10.2076 9.82504 10.2033 9.84432C10.1946 9.88306 10.1893 9.93347 10.1893 9.9865H10.2324C10.2324 9.93598 10.2374 9.88882 10.2453 9.85377C10.2493 9.83616 10.2538 9.82243 10.2583 9.81307C10.2605 9.8084 10.2625 9.80545 10.2639 9.80379C10.2654 9.80201 10.2654 9.80274 10.2635 9.80338L10.2498 9.76253ZM10.2327 9.25047C10.2493 9.42897 10.2577 9.55917 10.2582 9.64583C10.2584 9.6893 10.2565 9.72082 10.253 9.74165C10.2512 9.75215 10.2492 9.75876 10.2475 9.7625C10.2455 9.76673 10.2455 9.76399 10.2498 9.76253L10.2635 9.80338C10.2757 9.79929 10.2826 9.78905 10.2865 9.78075C10.2906 9.77196 10.2934 9.76102 10.2955 9.74883C10.2996 9.72428 10.3014 9.6898 10.3012 9.64562C10.3008 9.55696 10.2922 9.42518 10.2756 9.24648L10.2327 9.25047ZM10.2147 8.67392C10.2119 8.67853 10.2104 8.68376 10.2095 8.68761C10.2086 8.69193 10.2078 8.69689 10.2072 8.70223C10.206 8.71295 10.2052 8.72666 10.2048 8.74276C10.204 8.77504 10.2046 8.81842 10.2065 8.86966C10.2103 8.97223 10.2194 9.10739 10.2327 9.25047L10.2756 9.24648C10.2623 9.104 10.2533 8.96966 10.2495 8.86805C10.2476 8.8172 10.247 8.77483 10.2478 8.74385C10.2482 8.72831 10.2489 8.71603 10.25 8.70713C10.2505 8.70266 10.251 8.69942 10.2515 8.69722C10.2521 8.69456 10.2523 8.69497 10.2514 8.69655L10.2147 8.67392ZM10.5185 8.73714C10.4797 8.678 10.4207 8.63863 10.3635 8.62502C10.3068 8.61151 10.2463 8.6228 10.2147 8.67392L10.2514 8.69656C10.2695 8.66728 10.3069 8.65578 10.3536 8.6669C10.3998 8.67792 10.4496 8.7106 10.4825 8.76074L10.5185 8.73714ZM10.8542 8.8536C10.8469 8.86533 10.8308 8.87433 10.8028 8.87649C10.7753 8.8786 10.7407 8.8736 10.7039 8.86215C10.6298 8.83905 10.5545 8.79209 10.5185 8.73715L10.4825 8.76074C10.5259 8.82699 10.6115 8.87844 10.6911 8.90325C10.7312 8.91575 10.7715 8.92208 10.8061 8.91942C10.8401 8.9168 10.873 8.90494 10.8908 8.87624L10.8542 8.8536ZM10.9774 8.86856C10.9667 8.85571 10.9565 8.84502 10.9465 8.83698C10.9367 8.82905 10.9258 8.8227 10.914 8.82037C10.9013 8.81788 10.8892 8.82034 10.8785 8.82713C10.8685 8.83349 10.8607 8.84305 10.8542 8.8536L10.8908 8.87624C10.8956 8.86849 10.8993 8.86495 10.9016 8.86346C10.9033 8.86242 10.9042 8.86232 10.9057 8.86262C10.908 8.86307 10.9125 8.86487 10.9195 8.87051C10.9264 8.87605 10.9345 8.88437 10.9442 8.89605L10.9774 8.86856ZM11.2755 8.79401C11.2278 8.83332 11.1892 8.86305 11.1568 8.88417C11.1243 8.9054 11.0994 8.91701 11.0792 8.92143C11.0598 8.92565 11.0445 8.92339 11.0295 8.91562C11.0137 8.90739 10.9971 8.89234 10.9774 8.86856L10.9442 8.89605C10.9652 8.92137 10.9862 8.94164 11.0097 8.95383C11.034 8.96648 11.0597 8.96974 11.0884 8.96349C11.1161 8.95744 11.1461 8.94257 11.1804 8.92023C11.2148 8.89777 11.2549 8.86682 11.3029 8.82724L11.2755 8.79401ZM11.5193 8.73378C11.51 8.71726 11.4996 8.70138 11.4852 8.69173C11.4689 8.68073 11.4506 8.67969 11.4312 8.6858C11.413 8.69149 11.3925 8.70376 11.3681 8.72113C11.3435 8.73875 11.3132 8.76294 11.2755 8.79401L11.3029 8.82724C11.3406 8.79619 11.3698 8.77285 11.3932 8.75617C11.4169 8.73924 11.4328 8.73041 11.4441 8.72688C11.454 8.72376 11.458 8.72534 11.4612 8.72746C11.4663 8.73092 11.4726 8.73862 11.4817 8.75481L11.5193 8.73378ZM11.8209 8.69571C11.775 8.75408 11.7111 8.78702 11.6527 8.79312C11.5944 8.79922 11.5444 8.77872 11.5193 8.73378L11.4817 8.75481C11.5174 8.8187 11.5867 8.84331 11.6572 8.83595C11.7276 8.82859 11.8019 8.78948 11.8547 8.72234L11.8209 8.69571ZM12.0011 8.74008C12.0011 8.70507 11.9979 8.6761 11.9907 8.65446C11.9836 8.63322 11.9706 8.61371 11.9476 8.60867C11.9261 8.60396 11.9046 8.61414 11.8857 8.62835C11.8659 8.64318 11.8443 8.66596 11.8209 8.69571L11.8547 8.72234C11.8771 8.69387 11.8961 8.67437 11.9115 8.66277C11.9278 8.65057 11.9359 8.65019 11.9384 8.65073C11.9394 8.65095 11.9447 8.65251 11.9498 8.66807C11.9549 8.68325 11.958 8.70684 11.958 8.74008H12.0011ZM12.076 8.78878C12.0398 8.79392 12.0225 8.79049 12.0142 8.78462C12.0074 8.77986 12.0011 8.76925 12.0011 8.74008H11.958C11.958 8.77288 11.9647 8.80247 11.9894 8.81983C12.0125 8.83608 12.045 8.83667 12.0821 8.83141L12.076 8.78878ZM12.1695 8.63948C12.1646 8.70063 12.1564 8.73493 12.1428 8.75539C12.1307 8.77363 12.1124 8.78361 12.076 8.78878L12.0821 8.83141C12.1242 8.82542 12.1569 8.81205 12.1787 8.77918C12.199 8.74853 12.2075 8.70396 12.2124 8.64292L12.1695 8.63948ZM12.2348 8.37656C12.2053 8.4349 12.1764 8.55257 12.1695 8.63948L12.2124 8.64292C12.2191 8.55959 12.247 8.44783 12.2732 8.396L12.2348 8.37656ZM12.597 8.19129C12.5884 8.17744 12.5749 8.17014 12.5607 8.16718C12.5469 8.16431 12.5315 8.16525 12.5162 8.16822C12.4854 8.17418 12.4492 8.18941 12.4135 8.20959C12.3428 8.24961 12.2668 8.3134 12.2348 8.37656L12.2732 8.396C12.2996 8.34383 12.3671 8.28529 12.4347 8.24706C12.4682 8.22811 12.4999 8.21524 12.5244 8.2105C12.5366 8.20812 12.5458 8.20806 12.5519 8.20934C12.5577 8.21053 12.5595 8.21253 12.5604 8.21393L12.597 8.19129ZM12.6675 8.22171C12.6535 8.22171 12.6378 8.21798 12.6241 8.21173C12.61 8.20529 12.6008 8.19744 12.597 8.19129L12.5604 8.21393C12.5704 8.23013 12.5881 8.24259 12.6062 8.25088C12.6247 8.25936 12.6465 8.26477 12.6675 8.26477V8.22171ZM12.7097 8.0645C12.7097 8.12729 12.7049 8.16877 12.696 8.19395C12.6916 8.20629 12.6867 8.21305 12.6825 8.21668C12.6787 8.21992 12.6742 8.22171 12.6675 8.22171V8.26477C12.6834 8.26477 12.6981 8.25998 12.7104 8.24942C12.7223 8.23925 12.7306 8.22498 12.7365 8.20841C12.7482 8.17575 12.7528 8.12787 12.7528 8.0645H12.7097ZM12.9319 7.76854C12.8967 7.76186 12.8643 7.7629 12.8354 7.77294C12.8063 7.78306 12.7822 7.80182 12.7634 7.82811C12.7265 7.87973 12.7097 7.96021 12.7097 8.0645H12.7528C12.7528 7.96288 12.7695 7.89363 12.7984 7.85317C12.8126 7.83341 12.8296 7.82054 12.8495 7.81361C12.8696 7.80662 12.8942 7.8052 12.9239 7.81084L12.9319 7.76854ZM13.1344 7.43044C13.1514 7.49812 13.127 7.58873 13.0818 7.66111C13.0595 7.69691 13.033 7.72667 13.006 7.74594C12.9789 7.76535 12.9535 7.77266 12.9319 7.76854L12.9239 7.81084C12.9613 7.81796 12.9986 7.8042 13.0311 7.78097C13.0638 7.7576 13.0939 7.72315 13.1183 7.6839C13.1668 7.60619 13.1971 7.50332 13.1761 7.41996L13.1344 7.43044ZM13.1688 7.27012C13.1466 7.28382 13.1349 7.31042 13.13 7.33735C13.1249 7.36519 13.1262 7.39801 13.1344 7.43044L13.1761 7.41996C13.1693 7.39277 13.1685 7.36618 13.1723 7.34504C13.1763 7.32298 13.1845 7.31101 13.1914 7.30675L13.1688 7.27012ZM13.2181 7.31916C13.2233 7.3107 13.2275 7.30257 13.2299 7.29527C13.2311 7.29166 13.2322 7.28706 13.232 7.28207C13.2319 7.27695 13.2304 7.26957 13.2243 7.26356C13.2182 7.25758 13.2109 7.25615 13.2058 7.25606C13.2009 7.25598 13.1963 7.25708 13.1927 7.25825C13.1854 7.26061 13.1772 7.26488 13.1688 7.27012L13.1914 7.30675C13.1988 7.30217 13.2035 7.29999 13.206 7.2992C13.2072 7.2988 13.2067 7.29914 13.2051 7.29911C13.2033 7.29908 13.1984 7.29853 13.1941 7.29421C13.1897 7.28987 13.189 7.28497 13.189 7.28311C13.1889 7.2814 13.1893 7.28085 13.1889 7.28208C13.1881 7.28446 13.186 7.28913 13.1814 7.29652L13.2181 7.31916ZM13.3669 7.18104C13.2989 7.25743 13.2374 7.31178 13.2027 7.33307C13.194 7.33846 13.1886 7.34068 13.1861 7.34126C13.1849 7.34155 13.1863 7.34095 13.1891 7.34165C13.1929 7.34259 13.197 7.34543 13.1992 7.35C13.2009 7.35351 13.2004 7.35588 13.2005 7.35499C13.2006 7.35435 13.2009 7.35253 13.2022 7.34919C13.2047 7.34255 13.2097 7.3327 13.2181 7.31916L13.1814 7.29652C13.1724 7.31108 13.1658 7.32361 13.1619 7.33399C13.16 7.33917 13.1584 7.34453 13.1578 7.34978C13.1571 7.35478 13.1571 7.36176 13.1604 7.36864C13.1642 7.37658 13.1711 7.38154 13.1787 7.38343C13.1853 7.38507 13.1915 7.38423 13.1961 7.38314C13.2053 7.38096 13.2154 7.37585 13.2253 7.36976C13.2654 7.34514 13.3302 7.28703 13.3991 7.20966L13.3669 7.18104ZM13.6179 6.3511C13.5932 6.80374 13.5342 6.99296 13.3669 7.18104L13.3991 7.20966C13.5762 7.01056 13.636 6.80923 13.6609 6.35345L13.6179 6.3511ZM13.6964 5.96753C13.688 5.97274 13.6823 5.98141 13.6784 5.9887C13.6741 5.9967 13.6701 6.00652 13.6665 6.01751C13.6591 6.03955 13.6522 6.06859 13.6459 6.10227C13.6333 6.16978 13.623 6.25809 13.6179 6.3511L13.6609 6.35345C13.6659 6.26191 13.6761 6.17549 13.6882 6.11016C13.6943 6.07743 13.7009 6.05053 13.7073 6.03111C13.7106 6.02137 13.7136 6.01408 13.7163 6.00908C13.7194 6.00339 13.7206 6.00319 13.7191 6.00416L13.6964 5.96753ZM13.7028 5.81051C13.7136 5.85825 13.7173 5.89575 13.7149 5.92288C13.7124 5.95059 13.7042 5.96274 13.6964 5.96753L13.7191 6.00416C13.744 5.98877 13.7548 5.95962 13.7577 5.9267C13.7607 5.8932 13.7561 5.85073 13.7447 5.80096L13.7028 5.81051ZM13.7445 5.22357C13.7291 5.22918 13.7199 5.24417 13.7141 5.25672C13.7076 5.27064 13.7023 5.28849 13.6979 5.30861C13.689 5.34904 13.6831 5.40226 13.6802 5.4601C13.6744 5.57561 13.6807 5.71339 13.7028 5.81051L13.7447 5.80096C13.7239 5.70908 13.7175 5.5756 13.7232 5.46225C13.726 5.40566 13.7318 5.35504 13.7399 5.31782C13.744 5.29912 13.7485 5.28469 13.7531 5.27483C13.7583 5.2636 13.7613 5.26329 13.7592 5.26404L13.7445 5.22357ZM13.7709 5.15538C13.7709 5.17263 13.767 5.18964 13.761 5.20278C13.7545 5.21687 13.7476 5.22245 13.7445 5.22357L13.7592 5.26404C13.7785 5.25705 13.7919 5.23869 13.8001 5.22072C13.8088 5.2018 13.814 5.17865 13.814 5.15537L13.7709 5.15538ZM13.5581 4.54878C13.5986 4.63046 13.652 4.76607 13.6954 4.89039C13.717 4.95244 13.7361 5.01133 13.7497 5.0589C13.7565 5.08269 13.7619 5.10346 13.7655 5.12025C13.7693 5.13752 13.7709 5.14915 13.7709 5.15538L13.814 5.15536C13.814 5.14415 13.8114 5.12863 13.8076 5.11108C13.8037 5.09307 13.798 5.07135 13.7911 5.04706C13.7772 4.99846 13.7579 4.93875 13.736 4.8762C13.6924 4.75131 13.6383 4.61372 13.5967 4.52965L13.5581 4.54878ZM13.3818 4.17376C13.4577 4.33753 13.5371 4.50635 13.5581 4.54878L13.5967 4.52965C13.5759 4.48784 13.4968 4.3196 13.4208 4.15565L13.3818 4.17376ZM13.2437 3.87584L13.3818 4.17376L13.4208 4.15565L13.2827 3.85773L13.2437 3.87584ZM13.4279 3.75863L13.2534 3.84761L13.273 3.88597L13.4474 3.79698L13.4279 3.75863ZM13.8592 3.66729C13.6963 3.66729 13.5448 3.69898 13.4279 3.75863L13.4474 3.79698C13.5569 3.74113 13.7013 3.71035 13.8592 3.71035V3.66729ZM14.3912 3.46002C14.3584 3.52142 14.2925 3.57337 14.2001 3.61006C14.1079 3.64665 13.991 3.66729 13.8592 3.66729V3.71035C13.9951 3.71035 14.1176 3.68909 14.216 3.65008C14.314 3.61116 14.3899 3.55379 14.4292 3.48034L14.3912 3.46002ZM14.3058 2.7955C14.3734 2.91362 14.4157 3.04147 14.4304 3.15934C14.4452 3.27756 14.432 3.38373 14.3912 3.46002L14.4292 3.48034C14.4757 3.3935 14.4886 3.27744 14.4731 3.15399C14.4576 3.03018 14.4134 2.89691 14.3432 2.77411L14.3058 2.7955ZM13.5214 2.35958C13.6625 2.37895 13.7698 2.39464 13.8548 2.4127C13.9397 2.43074 14.001 2.4509 14.0506 2.47858C14.1492 2.53358 14.2055 2.62028 14.3058 2.7955L14.3432 2.77411C14.2439 2.6006 14.1822 2.50272 14.0716 2.44098C14.0166 2.41029 13.9505 2.38903 13.8637 2.37058C13.7769 2.35214 13.6681 2.33626 13.5272 2.31692L13.5214 2.35958ZM12.7888 2.19203C12.8186 2.23299 12.8686 2.25502 12.9733 2.2769C13.0789 2.29897 13.2472 2.32196 13.5214 2.35958L13.5272 2.31692C13.2521 2.27917 13.0859 2.25643 12.9821 2.23475C12.8774 2.21288 12.8429 2.19315 12.8235 2.16665L12.7888 2.19203ZM12.7527 2.11413C12.7633 2.14326 12.7726 2.16986 12.7888 2.19203L12.8235 2.16665C12.8117 2.15047 12.8044 2.1304 12.7932 2.09947L12.7527 2.11413ZM12.5676 1.80899C12.5766 1.80899 12.5875 1.81263 12.6009 1.82349C12.6144 1.83445 12.6293 1.85191 12.6456 1.87719C12.6781 1.92777 12.7135 2.00579 12.7527 2.11413L12.7932 2.09947C12.7537 1.99026 12.717 1.90861 12.6818 1.8539C12.6642 1.82654 12.6464 1.80496 12.628 1.79004C12.6094 1.77501 12.5892 1.76593 12.5676 1.76593V1.80899ZM12.4618 1.72884C12.4704 1.75121 12.4862 1.77088 12.5044 1.785C12.5225 1.79898 12.5449 1.80899 12.5676 1.80899V1.76593C12.5572 1.76593 12.5438 1.76101 12.5308 1.75095C12.5179 1.74103 12.5074 1.72753 12.502 1.71342L12.4618 1.72884ZM12.3943 1.67633C12.4054 1.67633 12.4194 1.6814 12.4327 1.69146C12.4458 1.70141 12.4565 1.71487 12.4618 1.72884L12.502 1.71342C12.4934 1.69091 12.4773 1.67121 12.4587 1.65712C12.4402 1.64313 12.4173 1.63328 12.3943 1.63328V1.67633ZM12.2346 1.61932C12.2597 1.63501 12.2896 1.64908 12.3177 1.65926C12.3453 1.66924 12.3733 1.67633 12.3943 1.67633V1.63328C12.381 1.63328 12.3586 1.62828 12.3324 1.61878C12.3068 1.60948 12.2796 1.59667 12.2574 1.5828L12.2346 1.61932ZM12.0187 1.62131C12.0765 1.60037 12.1154 1.59096 12.1471 1.59096C12.1776 1.59096 12.2032 1.59972 12.2346 1.61932L12.2574 1.5828C12.2213 1.56022 12.1878 1.5479 12.1471 1.5479C12.1075 1.5479 12.0628 1.55957 12.004 1.58082L12.0187 1.62131ZM11.7664 1.67633C11.8229 1.67633 11.9359 1.65124 12.0187 1.62131L12.004 1.58082C11.9233 1.61 11.8158 1.63328 11.7664 1.63328V1.67633ZM11.6915 1.70012C11.6915 1.70096 11.6917 1.69502 11.7075 1.6876C11.7215 1.681 11.7423 1.67633 11.7664 1.67633V1.63328C11.7374 1.63328 11.7101 1.6388 11.6892 1.64863C11.67 1.65764 11.6485 1.67436 11.6485 1.70012H11.6915ZM11.5663 1.8079C11.5987 1.79558 11.6285 1.77889 11.6506 1.76148C11.6616 1.75279 11.6713 1.74349 11.6785 1.73394C11.6853 1.72484 11.6915 1.71313 11.6915 1.70012H11.6485C11.6485 1.69956 11.6485 1.70213 11.644 1.70816C11.6398 1.71375 11.6331 1.72043 11.624 1.72764C11.6057 1.74201 11.5798 1.75668 11.551 1.76765L11.5663 1.8079ZM10.8899 2.34374C10.9111 2.30894 10.9521 2.26226 11.006 2.21002C11.0595 2.1581 11.1245 2.10178 11.1926 2.04777C11.3296 1.93918 11.4764 1.84206 11.5663 1.8079L11.551 1.76765C11.4545 1.80435 11.3032 1.90517 11.1659 2.01402C11.0969 2.06873 11.0307 2.126 10.976 2.17912C10.9216 2.2319 10.8773 2.28168 10.8532 2.32132L10.8899 2.34374ZM10.8074 2.60971C10.8074 2.57508 10.8164 2.52738 10.8316 2.47818C10.8468 2.42916 10.8675 2.38042 10.8899 2.34374L10.8532 2.32132C10.8285 2.3618 10.8064 2.41401 10.7905 2.46546C10.7746 2.51672 10.7643 2.56902 10.7643 2.60966L10.8074 2.60971ZM10.7102 2.84383C10.7687 2.79092 10.8072 2.69618 10.8074 2.60971L10.7643 2.60966C10.7642 2.68571 10.7296 2.76824 10.6813 2.8119L10.7102 2.84383ZM10.532 3.0697C10.5821 2.98867 10.6628 2.88674 10.7102 2.84383L10.6813 2.8119C10.6299 2.85845 10.5468 2.96398 10.4954 3.04706L10.532 3.0697ZM10.475 3.80416C10.46 3.52374 10.4536 3.37366 10.4615 3.27612C10.4654 3.22786 10.4727 3.19331 10.4839 3.16272C10.4952 3.13197 10.5107 3.1043 10.532 3.0697L10.4954 3.04706C10.4736 3.08228 10.4563 3.11295 10.4435 3.14792C10.4306 3.18304 10.4227 3.22158 10.4186 3.27266C10.4104 3.37379 10.4171 3.52736 10.432 3.80646L10.475 3.80416ZM10.4115 4.5015C10.4329 4.48151 10.4511 4.46233 10.4645 4.43538C10.4778 4.40858 10.4855 4.37581 10.4893 4.3295C10.497 4.23776 10.4901 4.08527 10.475 3.80416L10.432 3.80646C10.4472 4.08916 10.4538 4.23789 10.4464 4.32592C10.4428 4.3695 10.4359 4.39625 10.4259 4.41625C10.4161 4.4361 10.4025 4.451 10.3821 4.47L10.4115 4.5015ZM10.2336 4.44499C10.2469 4.47701 10.2575 4.50248 10.2673 4.52066C10.2763 4.53757 10.2878 4.5546 10.3056 4.56068C10.3252 4.56741 10.3433 4.55817 10.3575 4.54825C10.3723 4.53786 10.3901 4.52145 10.4115 4.5015L10.3821 4.47C10.3599 4.49071 10.3446 4.5047 10.3328 4.51298C10.3203 4.52174 10.318 4.51945 10.3195 4.51994C10.3197 4.52001 10.3184 4.51966 10.3156 4.51649C10.3128 4.51327 10.3094 4.50817 10.3052 4.5003C10.2967 4.48445 10.2869 4.46126 10.2734 4.42852L10.2336 4.44499ZM9.84068 3.86976C10.113 4.22182 10.1853 4.32833 10.2336 4.44499L10.2734 4.42852C10.2224 4.30549 10.1461 4.19423 9.87474 3.84342L9.84068 3.86976ZM9.28991 3.46593C9.36058 3.49242 9.47505 3.56309 9.58469 3.64349C9.69436 3.7239 9.79548 3.81132 9.84068 3.86976L9.87474 3.84342C9.82558 3.77986 9.7202 3.68946 9.61015 3.60876C9.50006 3.52804 9.38159 3.45431 9.30501 3.42561L9.28991 3.46593ZM8.62808 2.75115C8.74406 2.90406 8.88859 3.07439 9.01367 3.2101C9.07621 3.27794 9.13408 3.33736 9.18125 3.38172C9.20482 3.40388 9.22593 3.42249 9.24376 3.43658C9.26099 3.4502 9.27698 3.46109 9.28991 3.46593L9.30501 3.42561C9.29896 3.42334 9.28754 3.4163 9.27045 3.4028C9.25396 3.38977 9.23384 3.37207 9.21075 3.35035C9.1646 3.30695 9.10748 3.24834 9.04533 3.18091C8.92105 3.04607 8.77743 2.8768 8.66238 2.72513L8.62808 2.75115ZM8.44112 2.33148C8.4642 2.40952 8.49658 2.49536 8.53016 2.57091C8.56356 2.64605 8.59884 2.71261 8.62808 2.75115L8.66238 2.72513C8.63628 2.69071 8.60262 2.62792 8.56951 2.55342C8.53658 2.47935 8.50489 2.39528 8.48241 2.31926L8.44112 2.33148ZM7.92633 1.70315C8.1256 1.85637 8.233 1.94377 8.30153 2.02765C8.36908 2.11032 8.39934 2.19021 8.44112 2.33148L8.48241 2.31926C8.44036 2.17708 8.40817 2.09011 8.33487 2.0004C8.26256 1.91189 8.15073 1.82138 7.95257 1.66902L7.92633 1.70315ZM7.75733 1.45394C7.75733 1.53741 7.81774 1.61965 7.92633 1.70315L7.95257 1.66902C7.846 1.58707 7.80038 1.51605 7.80038 1.45394H7.75733ZM7.63345 1.36681C7.6645 1.36681 7.68788 1.36778 7.70572 1.37042C7.72365 1.37309 7.73386 1.37717 7.74012 1.38184C7.75126 1.39016 7.75733 1.40618 7.75733 1.45394H7.80038C7.80038 1.40833 7.79622 1.37002 7.76589 1.34735C7.75142 1.33653 7.73309 1.33096 7.71204 1.32783C7.6909 1.3247 7.66487 1.32375 7.63345 1.32375V1.36681ZM6.88754 1.08693C6.9726 1.1585 7.10699 1.22825 7.24494 1.28004C7.3828 1.3318 7.5274 1.36681 7.63345 1.36681V1.32375C7.53487 1.32375 7.39586 1.29071 7.26007 1.23973C7.12437 1.18878 6.99505 1.12112 6.91526 1.05399L6.88754 1.08693ZM6.37861 0.973229C6.55391 0.97388 6.65021 0.976944 6.71857 0.992475C6.78478 1.00752 6.82502 1.03432 6.88754 1.08693L6.91526 1.05399C6.85075 0.999702 6.80421 0.967776 6.72811 0.950487C6.65416 0.933685 6.55261 0.930817 6.37877 0.930172L6.37861 0.973229ZM5.9345 0.919806C5.94112 0.926431 5.95066 0.93081 5.95927 0.933989C5.96862 0.937437 5.98007 0.940575 5.99304 0.943454C6.01903 0.949226 6.05296 0.95436 6.09223 0.958673C6.17086 0.96731 6.27259 0.972836 6.37861 0.973229L6.37877 0.930172C6.27398 0.929783 6.17379 0.924315 6.09693 0.915872C6.05844 0.911645 6.02623 0.906717 6.00237 0.90142C5.99042 0.898765 5.98102 0.896117 5.97417 0.893592C5.9666 0.890798 5.9646 0.889016 5.96494 0.889359L5.9345 0.919806ZM5.82383 0.880416C5.84287 0.880416 5.86555 0.884927 5.88655 0.892547C5.90782 0.90027 5.92502 0.910333 5.9345 0.919806L5.96494 0.889359C5.94928 0.873699 5.92559 0.860914 5.90124 0.852073C5.8766 0.843128 5.8489 0.837358 5.82383 0.837358V0.880416ZM5.46055 1.02643C5.59072 0.958635 5.66284 0.922129 5.7124 0.902414C5.76043 0.883311 5.7861 0.880416 5.82383 0.880416V0.837358C5.78123 0.837358 5.75009 0.841084 5.69649 0.862405C5.64442 0.883113 5.57009 0.92083 5.44066 0.98824L5.46055 1.02643ZM5.19442 1.1015C5.2294 1.1015 5.27646 1.09274 5.32369 1.07935C5.3712 1.06588 5.42062 1.04723 5.46055 1.02643L5.44066 0.98824C5.40388 1.0074 5.3573 1.02506 5.31194 1.03792C5.26631 1.05087 5.22363 1.05845 5.19442 1.05845V1.1015ZM4.39562 2.12131C4.39562 2.05385 4.43024 1.95622 4.48891 1.84535C4.54711 1.73539 4.62729 1.61544 4.71481 1.50435C4.80236 1.39321 4.89674 1.29158 4.98306 1.21796C5.02624 1.18113 5.06697 1.1517 5.10345 1.13158C5.14032 1.11125 5.17094 1.1015 5.19442 1.1015V1.05845C5.16033 1.05845 5.12213 1.07211 5.08266 1.09388C5.0428 1.11586 4.99964 1.14723 4.95512 1.1852C4.86605 1.26115 4.76974 1.36504 4.68099 1.4777C4.59221 1.5904 4.5105 1.71251 4.45086 1.82521C4.3917 1.93699 4.35256 2.04261 4.35256 2.12131H4.39562ZM3.71634 3.39564C3.83821 3.25258 4.00763 2.97764 4.14623 2.71851C4.21566 2.58872 4.27767 2.4623 4.32239 2.35761C4.34475 2.30528 4.3629 2.2581 4.37551 2.21847C4.38793 2.17944 4.39562 2.14578 4.39562 2.12131H4.35256C4.35256 2.1387 4.34671 2.16698 4.33448 2.20542C4.32244 2.24327 4.30485 2.28908 4.2828 2.34069C4.23871 2.44388 4.1773 2.56913 4.10827 2.6982C3.96995 2.9568 3.8023 3.22834 3.68356 3.36771L3.71634 3.39564ZM3.20174 4.11651C3.20174 4.11237 3.20379 4.10306 3.21045 4.08724C3.21681 4.07215 3.22642 4.05328 3.23918 4.03094C3.26468 3.98632 3.30193 3.92931 3.3485 3.86345C3.4416 3.73182 3.57112 3.5661 3.71634 3.39564L3.68356 3.36771C3.5377 3.53893 3.40735 3.70569 3.31335 3.83859C3.26638 3.905 3.22826 3.96326 3.2018 4.00958C3.18858 4.03271 3.17805 4.05324 3.17077 4.07053C3.16379 4.0871 3.15869 4.10318 3.15869 4.11651H3.20174ZM2.6552 5.20373C2.74335 5.08193 2.87962 4.83804 2.99351 4.61241C3.05055 4.4994 3.10225 4.39047 3.13973 4.30309C3.15846 4.25942 3.17376 4.22087 3.18442 4.18975C3.19471 4.15968 3.20174 4.13363 3.20174 4.11651H3.15869C3.15869 4.12547 3.15421 4.14505 3.14368 4.1758C3.13352 4.20549 3.11868 4.24294 3.10016 4.28611C3.06314 4.37241 3.01187 4.48048 2.95507 4.59301C2.84127 4.81845 2.70631 5.05968 2.62032 5.17849L2.6552 5.20373ZM2.22409 5.71556C2.36347 5.56909 2.55729 5.33903 2.6552 5.20373L2.62032 5.17849C2.52375 5.31193 2.33122 5.54052 2.1929 5.68588L2.22409 5.71556ZM1.87954 6.14471C1.93059 6.05462 2.08558 5.86113 2.22409 5.71556L2.1929 5.68588C2.05371 5.83216 1.89578 6.02871 1.84208 6.12349L1.87954 6.14471ZM1.77841 6.69988C1.76512 6.68386 1.75562 6.6557 1.75235 6.61573C1.74912 6.57638 1.75215 6.5284 1.76115 6.4757C1.77915 6.37031 1.82053 6.24884 1.87954 6.14471L1.84208 6.12349C1.78053 6.2321 1.73752 6.35831 1.71871 6.46846C1.7093 6.52353 1.70583 6.57528 1.70943 6.61925C1.71298 6.66258 1.72364 6.70131 1.74528 6.72738L1.77841 6.69988ZM1.63108 7.14873C1.69578 7.09508 1.74902 7.00502 1.77844 6.9198C1.79322 6.87699 1.8024 6.83425 1.80369 6.79671C1.80494 6.75991 1.79872 6.72435 1.77841 6.69988L1.74528 6.72738C1.75558 6.73979 1.76178 6.76239 1.76065 6.79524C1.75956 6.82735 1.75156 6.86574 1.73774 6.90575C1.70997 6.98618 1.66036 7.06851 1.60359 7.11559L1.63108 7.14873ZM1.62618 7.46416C1.6086 7.45432 1.59386 7.43554 1.58346 7.40917C1.57311 7.38295 1.56776 7.35083 1.56792 7.31727C1.56824 7.24898 1.59111 7.18188 1.63108 7.14873L1.60359 7.11559C1.54977 7.16022 1.52522 7.24243 1.52486 7.31706C1.52468 7.35496 1.53067 7.39269 1.5434 7.42497C1.55608 7.45711 1.57614 7.4855 1.60515 7.50173L1.62618 7.46416ZM1.65151 7.68488C1.66366 7.65127 1.67291 7.62372 1.67883 7.60088C1.68471 7.5782 1.68774 7.55859 1.68635 7.54127C1.6849 7.52309 1.67862 7.50803 1.66734 7.49503C1.65668 7.48274 1.64226 7.47316 1.62618 7.46416L1.60515 7.50173C1.62007 7.51008 1.62916 7.51674 1.63481 7.52325C1.63984 7.52904 1.64268 7.53533 1.64343 7.54471C1.64425 7.55495 1.64258 7.56912 1.63715 7.59007C1.63177 7.61086 1.6231 7.63683 1.61102 7.67024L1.65151 7.68488ZM1.66746 7.96856C1.63662 7.90674 1.62229 7.86787 1.62012 7.8294C1.61795 7.79091 1.62783 7.75036 1.65151 7.68488L1.61102 7.67024C1.5871 7.73639 1.57443 7.78399 1.57713 7.83182C1.57982 7.87967 1.59775 7.92528 1.62893 7.98778L1.66746 7.96856ZM1.74256 8.2079C1.74256 8.18134 1.73345 8.1413 1.72016 8.09937C1.70665 8.05676 1.68803 8.0098 1.66746 7.96856L1.62893 7.98778C1.64842 8.02684 1.66622 8.07172 1.67911 8.11239C1.69222 8.15374 1.6995 8.18841 1.6995 8.2079H1.74256ZM1.91678 8.60353C1.86841 8.51541 1.82449 8.42602 1.79272 8.3531C1.77683 8.31662 1.76409 8.28451 1.75537 8.2589C1.7463 8.23227 1.74256 8.21538 1.74256 8.2079H1.6995C1.6995 8.22344 1.70571 8.24666 1.71461 8.27278C1.72385 8.29991 1.73709 8.33319 1.75325 8.37029C1.7856 8.44455 1.83011 8.53512 1.87903 8.62425L1.91678 8.60353ZM2.0963 9.00118C2.0963 8.99363 2.09436 8.98464 2.09191 8.97579C2.08932 8.96644 2.0856 8.95538 2.08099 8.943C2.07176 8.91819 2.05854 8.887 2.0424 8.85165C2.01009 8.7809 1.96563 8.69254 1.91678 8.60353L1.87903 8.62425C1.92746 8.71249 1.97143 8.79989 2.00323 8.86954C2.01915 8.90439 2.03191 8.93455 2.04064 8.95801C2.04501 8.96976 2.04828 8.97957 2.05042 8.98729C2.0527 8.99551 2.05324 8.99979 2.05324 9.00118H2.0963ZM2.20718 9.2055C2.17615 9.16449 2.14796 9.12007 2.12764 9.08175C2.11748 9.06258 2.10944 9.04524 2.10401 9.03084C2.09834 9.01582 2.0963 9.00604 2.0963 9.00118H2.05324C2.05324 9.0142 2.05769 9.03005 2.06372 9.04604C2.06999 9.06265 2.07888 9.0817 2.0896 9.10192C2.11105 9.14237 2.14049 9.18873 2.17284 9.23148L2.20718 9.2055ZM2.38723 9.50594C2.35219 9.42503 2.27137 9.29035 2.20718 9.2055L2.17284 9.23148C2.2354 9.31417 2.3143 9.44589 2.34772 9.52305L2.38723 9.50594ZM2.57872 9.23785C2.57913 9.34164 2.57235 9.42721 2.56031 9.49277C2.54811 9.55924 2.53101 9.60208 2.5131 9.62338C2.50448 9.63362 2.4971 9.63722 2.49141 9.63802C2.48586 9.63879 2.47806 9.63745 2.46734 9.62977C2.4448 9.6136 2.41702 9.57474 2.38723 9.50594L2.34772 9.52305C2.37804 9.59309 2.40963 9.64138 2.44226 9.66476C2.45914 9.67686 2.47787 9.68339 2.49739 9.68066C2.51677 9.67794 2.53298 9.66664 2.54605 9.6511C2.5715 9.62083 2.59017 9.56859 2.60266 9.50055C2.61533 9.43159 2.6222 9.3432 2.62178 9.23768L2.57872 9.23785ZM2.64943 8.91829C2.62924 8.95701 2.61157 9.01206 2.59899 9.06909C2.58638 9.12628 2.57852 9.18711 2.57872 9.23785L2.62178 9.23768C2.62159 9.19094 2.6289 9.13338 2.64104 9.07837C2.65321 9.02319 2.66987 8.97222 2.68761 8.93819L2.64943 8.91829ZM2.5944 8.37457C2.66446 8.46272 2.70299 8.5502 2.71197 8.63908C2.72094 8.72793 2.70058 8.8202 2.64943 8.91829L2.68761 8.93819C2.74178 8.8343 2.76479 8.73364 2.75481 8.63476C2.74482 8.5359 2.70207 8.44084 2.62811 8.34778L2.5944 8.37457ZM2.47369 7.60507C2.42153 7.70964 2.41061 7.84995 2.43261 7.98883C2.45467 8.12798 2.51022 8.26864 2.5944 8.37457L2.62811 8.34778C2.54935 8.24867 2.49625 8.1153 2.47514 7.98209C2.45399 7.84859 2.46539 7.71818 2.51222 7.62429L2.47369 7.60507ZM2.53964 7.26366C2.53964 7.32094 2.53216 7.38849 2.52 7.45106C2.50778 7.51395 2.49117 7.57003 2.47369 7.60507L2.51222 7.62429C2.53226 7.58413 2.54976 7.52364 2.56226 7.45927C2.57483 7.3946 2.5827 7.32424 2.5827 7.26366H2.53964ZM2.60404 7.02783C2.5932 7.02783 2.5851 7.03347 2.57998 7.03874C2.57488 7.04399 2.57099 7.05057 2.56792 7.0571C2.56171 7.07028 2.55668 7.08797 2.55265 7.10809C2.54453 7.14869 2.53964 7.20374 2.53964 7.26366H2.5827C2.5827 7.20571 2.58745 7.15362 2.59487 7.11654C2.59862 7.09782 2.60283 7.08403 2.60687 7.07544C2.60892 7.07109 2.6104 7.06922 2.61087 7.06874C2.61132 7.06827 2.60899 7.07089 2.60404 7.07089V7.02783ZM2.61957 6.89521C2.62112 6.93645 2.61781 6.97315 2.61167 6.99884C2.60856 7.01185 2.60502 7.02076 2.60188 7.02588C2.59819 7.03189 2.59835 7.02783 2.60404 7.02783V7.07089C2.62152 7.07089 2.63261 7.05812 2.63858 7.0484C2.64509 7.03778 2.64994 7.02393 2.65354 7.00885C2.66083 6.97837 2.66425 6.93758 2.6626 6.89359L2.61957 6.89521ZM2.78385 7.0555C2.76231 6.96144 2.74319 6.88663 2.72676 6.83157C2.71855 6.80406 2.71092 6.78121 2.70391 6.76324C2.69708 6.74573 2.69026 6.7313 2.68326 6.72175C2.67994 6.71724 2.67487 6.71138 2.66764 6.70803C2.66365 6.70619 2.6586 6.70493 2.65293 6.70558C2.64721 6.70624 2.64247 6.70865 2.63887 6.71158C2.6324 6.71684 2.62909 6.72415 2.62722 6.72937C2.62513 6.73518 2.62361 6.74198 2.62244 6.7493C2.61786 6.77815 2.61701 6.82718 2.61957 6.89521L2.6626 6.89359C2.66004 6.8255 2.66111 6.78029 2.66497 6.75607C2.66591 6.75012 2.66691 6.74623 2.66774 6.74391C2.66879 6.74099 2.6688 6.74273 2.66604 6.74498C2.66429 6.7464 2.6615 6.74794 2.65783 6.74836C2.65421 6.74877 2.65131 6.74792 2.64956 6.74711C2.64682 6.74584 2.64661 6.7446 2.64854 6.74723C2.65203 6.75197 2.6572 6.76195 2.6638 6.77888C2.67022 6.79535 2.67747 6.81698 2.6855 6.84389C2.70156 6.89767 2.72043 6.97147 2.74187 7.06511L2.78385 7.0555ZM2.81155 8.99923C2.8542 8.78953 2.8713 8.40893 2.86588 8.02946C2.86047 7.64995 2.8325 7.26798 2.78385 7.0555L2.74187 7.06511C2.78944 7.27285 2.81742 7.65095 2.82283 8.03007C2.82824 8.40923 2.81102 8.78583 2.76936 8.99065L2.81155 8.99923ZM2.70639 10.106C2.6595 9.87743 2.68113 9.64042 2.81155 8.99923L2.76936 8.99065C2.63914 9.63083 2.61529 9.87623 2.66422 10.1147L2.70639 10.106ZM2.65509 10.4888C2.69859 10.4284 2.72434 10.3861 2.73161 10.3303C2.73867 10.2761 2.72794 10.211 2.70639 10.106L2.66422 10.1147C2.68609 10.2213 2.69487 10.279 2.68891 10.3247C2.68315 10.3689 2.66335 10.4037 2.62015 10.4637L2.65509 10.4888ZM2.56815 10.9845C2.56622 10.8246 2.56877 10.7277 2.58144 10.6568C2.59385 10.5875 2.61599 10.5431 2.65509 10.4888L2.62015 10.4637C2.57812 10.522 2.55283 10.5723 2.53906 10.6492C2.52556 10.7247 2.52317 10.8257 2.52509 10.985L2.56815 10.9845ZM2.64627 11.5261C2.59837 11.4155 2.57112 11.2316 2.56815 10.9845L2.52509 10.985C2.52808 11.2334 2.5553 11.4244 2.60676 11.5432L2.64627 11.5261ZM2.57938 13.1631C2.67707 12.9716 2.73397 12.6559 2.74678 12.3434C2.75958 12.031 2.72854 11.7161 2.64627 11.5261L2.60676 11.5432C2.6851 11.7241 2.71648 12.0311 2.70375 12.3417C2.69104 12.6521 2.63448 12.9603 2.54102 13.1435L2.57938 13.1631ZM2.49426 13.5392C2.49426 13.4158 2.52955 13.2608 2.57938 13.1631L2.54102 13.1435C2.48776 13.2479 2.4512 13.4098 2.4512 13.5392H2.49426ZM2.42498 13.8524C2.44616 13.8244 2.46315 13.7754 2.47495 13.7208C2.48695 13.6653 2.49426 13.6007 2.49426 13.5392H2.4512C2.4512 13.5976 2.44423 13.6591 2.43286 13.7117C2.42129 13.7652 2.40582 13.8063 2.39064 13.8264L2.42498 13.8524ZM2.48615 14.2553C2.41583 14.1962 2.37621 14.128 2.36597 14.0593C2.35575 13.9908 2.37436 13.9193 2.42498 13.8524L2.39064 13.8264C2.3339 13.9014 2.31126 13.9843 2.32338 14.0656C2.33547 14.1467 2.38177 14.2238 2.45843 14.2883L2.48615 14.2553ZM3.13435 14.4226C3.12934 14.4276 3.11906 14.433 3.10111 14.4366C3.08362 14.4401 3.06123 14.4414 3.0348 14.4406C2.98201 14.4389 2.91595 14.4285 2.8467 14.4115C2.70734 14.3774 2.5607 14.3181 2.48615 14.2553L2.45843 14.2883C2.54067 14.3575 2.69513 14.4187 2.83644 14.4534C2.90752 14.4708 2.97669 14.4818 3.03343 14.4836C3.06177 14.4845 3.08772 14.4832 3.10957 14.4788C3.13096 14.4745 3.15102 14.4668 3.16479 14.4531L3.13435 14.4226ZM3.37959 14.368C3.32821 14.368 3.27586 14.3735 3.23265 14.3826C3.21105 14.3872 3.19132 14.3927 3.17494 14.399C3.15911 14.4051 3.14424 14.4127 3.13435 14.4226L3.16479 14.4531C3.16819 14.4497 3.17622 14.4446 3.19041 14.4392C3.20403 14.4339 3.22141 14.429 3.2415 14.4248C3.28167 14.4163 3.33104 14.411 3.37959 14.411V14.368ZM3.63082 14.312C3.61189 14.3258 3.57448 14.3401 3.52728 14.3508C3.48086 14.3614 3.42779 14.368 3.37959 14.368V14.411C3.43131 14.411 3.48759 14.404 3.53685 14.3928C3.58532 14.3818 3.62992 14.366 3.65623 14.3467L3.63082 14.312ZM3.64658 14.0586C3.65999 14.1082 3.66974 14.1462 3.67576 14.1764C3.68182 14.2066 3.68376 14.2274 3.68241 14.243C3.68114 14.2578 3.6769 14.2681 3.66956 14.2777C3.66162 14.288 3.64954 14.2983 3.63082 14.312L3.65623 14.3467C3.67526 14.3328 3.69174 14.3195 3.70373 14.3039C3.7163 14.2875 3.72336 14.2693 3.72531 14.2467C3.72719 14.225 3.72429 14.1994 3.71799 14.1679C3.71165 14.1362 3.70155 14.097 3.68815 14.0474L3.64658 14.0586ZM3.53146 13.7793C3.54582 13.7961 3.56658 13.8353 3.58827 13.8876C3.60959 13.9389 3.63076 14.0001 3.64658 14.0586L3.68815 14.0474C3.67183 13.987 3.65005 13.924 3.62803 13.871C3.60639 13.819 3.58345 13.7738 3.56419 13.7513L3.53146 13.7793ZM3.40369 13.349C3.42081 13.4455 3.44332 13.5415 3.46584 13.6185C3.47709 13.6569 3.48843 13.6909 3.49921 13.718C3.50966 13.7443 3.52051 13.7665 3.53146 13.7793L3.56419 13.7513C3.55833 13.7445 3.54966 13.7283 3.53922 13.7021C3.52911 13.6767 3.51819 13.644 3.50716 13.6064C3.48512 13.531 3.46296 13.4366 3.44609 13.3415L3.40369 13.349ZM3.27403 12.7645C3.31135 12.8945 3.36977 13.1577 3.40369 13.349L3.44609 13.3415C3.41201 13.1493 3.35328 12.8845 3.31542 12.7527L3.27403 12.7645ZM3.29316 11.3523C3.26983 11.408 3.25242 11.5068 3.24023 11.6255C3.22795 11.745 3.22076 11.8873 3.21887 12.0317C3.2151 12.3194 3.23235 12.6194 3.27403 12.7645L3.31542 12.7527C3.27569 12.6143 3.25815 12.3202 3.26192 12.0323C3.2638 11.8888 3.27095 11.7479 3.28306 11.6299C3.29527 11.5111 3.31228 11.4181 3.33288 11.3689L3.29316 11.3523ZM3.35867 10.8514C3.35549 10.9541 3.3464 11.0622 3.33432 11.1537C3.32212 11.2461 3.30718 11.3188 3.29316 11.3523L3.33288 11.3689C3.34941 11.3294 3.36486 11.2513 3.37701 11.1593C3.38927 11.0664 3.39849 10.9568 3.40171 10.8527L3.35867 10.8514ZM3.53366 9.95354C3.50199 9.96525 3.47768 9.99342 3.45838 10.0335C3.43898 10.0739 3.42318 10.1292 3.4101 10.2006C3.38392 10.3435 3.36782 10.5555 3.35867 10.8514L3.40171 10.8527C3.41085 10.5571 3.4269 10.3478 3.45245 10.2084C3.46524 10.1386 3.4802 10.0875 3.49718 10.0522C3.51426 10.0167 3.53194 10.0001 3.5486 9.99392L3.53366 9.95354ZM3.91039 9.22742C3.91039 9.24339 3.90641 9.26642 3.89839 9.29561C3.89045 9.32447 3.8789 9.35809 3.86458 9.39475C3.83595 9.46806 3.79664 9.55251 3.75419 9.63357C3.71173 9.71467 3.66638 9.79188 3.62579 9.85084C3.60547 9.88035 3.58662 9.90488 3.57014 9.92294C3.55295 9.94178 3.54065 9.95095 3.53366 9.95354L3.5486 9.99392C3.5661 9.98745 3.58438 9.97122 3.60195 9.95196C3.62025 9.9319 3.64034 9.90562 3.66125 9.87526C3.70312 9.81445 3.74935 9.73564 3.79234 9.65355C3.83534 9.57142 3.87536 9.48552 3.90469 9.41042C3.91935 9.37287 3.93144 9.33777 3.9399 9.30703C3.94827 9.27662 3.95344 9.24918 3.95344 9.22742H3.91039ZM4.09874 8.80008C4.07842 8.81343 4.05718 8.84156 4.03743 8.8738C4.01705 8.90706 3.99627 8.94809 3.97763 8.9908C3.95898 9.03353 3.94229 9.07838 3.93022 9.11936C3.91828 9.15991 3.91039 9.19827 3.91039 9.22742H3.95344C3.95344 9.20455 3.95992 9.17095 3.97153 9.13152C3.98301 9.09253 3.99904 9.04939 4.01709 9.00802C4.03516 8.96662 4.05506 8.92745 4.07414 8.89629C4.09386 8.86411 4.11086 8.84363 4.12238 8.83606L4.09874 8.80008ZM4.29056 8.04176C4.27328 8.18926 4.236 8.37327 4.19661 8.52463C4.17692 8.6003 4.15681 8.66737 4.13857 8.71738C4.12943 8.74243 4.12093 8.76273 4.11336 8.77754C4.10957 8.78494 4.10622 8.79059 4.10335 8.79461C4.10028 8.79893 4.09866 8.80013 4.09874 8.80008L4.12238 8.83606C4.12887 8.8318 4.13417 8.82558 4.13845 8.81956C4.14293 8.81325 4.14735 8.80563 4.1517 8.79713C4.1604 8.78011 4.16959 8.75797 4.17902 8.73213C4.19791 8.68036 4.2184 8.61185 4.23828 8.53547C4.27804 8.38272 4.31576 8.1967 4.33332 8.04676L4.29056 8.04176ZM4.32148 7.77768L4.29056 8.04176L4.33332 8.04676L4.36425 7.78268L4.32148 7.77768ZM4.36356 7.78613C4.3636 7.78597 4.36364 7.78581 4.36369 7.78566C4.36373 7.78551 4.36377 7.78536 4.36382 7.78521L4.32243 7.77333C4.32239 7.77348 4.32234 7.77364 4.3223 7.77379C4.32226 7.77394 4.32221 7.77409 4.32217 7.77424L4.36356 7.78613ZM4.45609 8.01915L4.36328 7.77171L4.32297 7.78683L4.41577 8.03427L4.45609 8.01915ZM4.595 8.3228C4.58957 8.316 4.58127 8.30247 4.5707 8.2826C4.56034 8.26311 4.54839 8.23866 4.53561 8.21084C4.51005 8.15523 4.48147 8.08682 4.45609 8.01915L4.41577 8.03427C4.4415 8.10286 4.47048 8.17223 4.49648 8.22882C4.50948 8.25711 4.52181 8.28236 4.53268 8.30281C4.54334 8.32286 4.55322 8.33949 4.56135 8.34967L4.595 8.3228ZM4.77189 8.6995C4.73754 8.61405 4.70073 8.52935 4.66906 8.46166C4.65322 8.42782 4.63861 8.39809 4.62618 8.37458C4.61402 8.35159 4.60321 8.33308 4.595 8.3228L4.56135 8.34967C4.56671 8.35638 4.57584 8.37149 4.58811 8.3947C4.60011 8.41739 4.6144 8.44644 4.63006 8.47991C4.66136 8.54681 4.69786 8.63077 4.73194 8.71556L4.77189 8.6995ZM4.90056 9.54755C4.89935 9.3101 4.89547 9.16784 4.87766 9.05009C4.85974 8.93165 4.82782 8.83863 4.77189 8.6995L4.73194 8.71556C4.78748 8.85373 4.81792 8.94308 4.83508 9.05654C4.85235 9.17069 4.85629 9.30984 4.8575 9.54777L4.90056 9.54755ZM4.86464 10.4352C4.88593 10.2391 4.90204 9.83985 4.90056 9.54755L4.8575 9.54777C4.85898 9.83915 4.84288 10.2366 4.82183 10.4305L4.86464 10.4352ZM4.92995 10.9055C4.87817 10.8427 4.85503 10.8099 4.84681 10.7529C4.83816 10.6928 4.84608 10.606 4.86464 10.4352L4.82183 10.4305C4.80355 10.5989 4.79457 10.6922 4.8042 10.759C4.81426 10.8288 4.84459 10.8696 4.89671 10.9329L4.92995 10.9055ZM5.78434 12.2818C5.73363 12.1604 5.56912 11.876 5.39368 11.5934C5.21809 11.3106 5.02956 11.0265 4.92995 10.9055L4.89671 10.9329C4.99423 11.0513 5.18135 11.3331 5.3571 11.6161C5.53299 11.8994 5.69549 12.1808 5.74462 12.2984L5.78434 12.2818ZM5.77668 12.5537C5.8105 12.5163 5.83316 12.4872 5.8338 12.4447C5.83411 12.4245 5.82943 12.4026 5.82115 12.377C5.81286 12.3513 5.80046 12.3203 5.78434 12.2818L5.74462 12.2984C5.76075 12.337 5.7725 12.3664 5.78018 12.3902C5.78786 12.414 5.79095 12.4307 5.79075 12.4441C5.79038 12.4688 5.7789 12.4871 5.74476 12.5248L5.77668 12.5537ZM5.63572 12.6423C5.64688 12.6423 5.65873 12.6388 5.66975 12.6342C5.68111 12.6294 5.69321 12.6228 5.70532 12.6149C5.72952 12.5991 5.75514 12.5775 5.77668 12.5537L5.74476 12.5248C5.7257 12.5458 5.7029 12.565 5.68179 12.5788C5.67125 12.5857 5.66146 12.591 5.65309 12.5945C5.64437 12.5982 5.63863 12.5993 5.63572 12.5993V12.6423ZM5.32249 13.0277C5.34415 12.9522 5.40384 12.8546 5.46983 12.7754C5.50266 12.736 5.53635 12.7019 5.56665 12.6779C5.58181 12.666 5.59571 12.6568 5.60788 12.6508C5.62029 12.6446 5.62951 12.6423 5.63572 12.6423V12.5993C5.62019 12.5993 5.60411 12.6045 5.5887 12.6122C5.57305 12.62 5.5566 12.631 5.53995 12.6442C5.50663 12.6705 5.47083 12.7069 5.43674 12.7478C5.36891 12.8293 5.30509 12.9322 5.2811 13.0159L5.32249 13.0277ZM5.30214 13.7903C5.28457 13.6959 5.2766 13.5503 5.27969 13.405C5.28279 13.2594 5.29694 13.1168 5.32249 13.0277L5.2811 13.0159C5.25397 13.1104 5.23976 13.2576 5.23664 13.4041C5.23352 13.5508 5.24148 13.6996 5.25981 13.7982L5.30214 13.7903ZM5.25949 13.7928C5.25932 13.7955 5.25915 13.7982 5.25897 13.8008L5.30193 13.8037C5.30212 13.801 5.30229 13.7983 5.30246 13.7956L5.25949 13.7928ZM5.27267 13.8223C5.27344 13.8226 5.27384 13.8228 5.27484 13.8232L5.29055 13.7831C5.29005 13.7829 5.28897 13.7825 5.28824 13.7822L5.27267 13.8223ZM5.33384 13.8827C5.33072 13.8801 5.32543 13.8727 5.3195 13.8572C5.31385 13.8424 5.30857 13.8228 5.30381 13.7989L5.26158 13.8073C5.26659 13.8325 5.27245 13.8547 5.27928 13.8725C5.28583 13.8897 5.29435 13.9058 5.30634 13.9158L5.33384 13.8827ZM5.59891 13.9536C5.54093 13.947 5.4814 13.9353 5.4324 13.9218C5.40789 13.9151 5.38631 13.908 5.36902 13.9011C5.35126 13.8939 5.33967 13.8875 5.33384 13.8827L5.30634 13.9158C5.31747 13.925 5.33414 13.9334 5.35292 13.941C5.37218 13.9488 5.39542 13.9563 5.42101 13.9634C5.47218 13.9774 5.53388 13.9895 5.594 13.9964L5.59891 13.9536ZM5.93392 13.8372C5.86854 13.907 5.83387 13.9391 5.79265 13.9535C5.7511 13.968 5.70037 13.9653 5.59891 13.9536L5.594 13.9964C5.69303 14.0078 5.75424 14.0125 5.80683 13.9942C5.85976 13.9757 5.90143 13.9348 5.96534 13.8666L5.93392 13.8372ZM6.12824 13.5203C6.09602 13.6144 6.00817 13.7579 5.93392 13.8372L5.96534 13.8666C6.0434 13.7833 6.13463 13.6346 6.16898 13.5342L6.12824 13.5203ZM6.18876 13.3434L6.12824 13.5203L6.16898 13.5342L6.2295 13.3574L6.18876 13.3434ZM6.24389 13.5542L6.23061 13.349L6.18764 13.3518L6.20092 13.557L6.24389 13.5542ZM6.32972 13.8168C6.30878 13.7979 6.28916 13.7645 6.27374 13.7185C6.25847 13.6729 6.24794 13.6167 6.24389 13.5542L6.20092 13.557C6.20516 13.6224 6.21624 13.6824 6.23292 13.7322C6.24946 13.7816 6.27213 13.8228 6.30083 13.8488L6.32972 13.8168ZM7.41214 13.9912C7.22906 14.0076 6.98793 13.9915 6.77656 13.9569C6.67097 13.9396 6.57337 13.9178 6.49461 13.8934C6.41484 13.8686 6.35758 13.8421 6.32972 13.8168L6.30083 13.8488C6.33629 13.8809 6.40168 13.9096 6.48185 13.9345C6.56304 13.9597 6.66268 13.9819 6.7696 13.9994C6.98324 14.0344 7.22819 14.0509 7.41598 14.0341L7.41214 13.9912ZM7.71311 13.8758C7.71311 13.9017 7.71178 13.9172 7.70723 13.9283C7.70346 13.9374 7.6967 13.9452 7.67945 13.9526C7.66112 13.9604 7.63296 13.9668 7.58895 13.9729C7.54529 13.9789 7.48792 13.9844 7.41214 13.9912L7.41598 14.0341C7.4916 14.0273 7.55 14.0217 7.59484 14.0155C7.63932 14.0094 7.67238 14.0024 7.69635 13.9922C7.72139 13.9815 7.738 13.9666 7.74703 13.9447C7.75527 13.9247 7.75617 13.901 7.75617 13.8758H7.71311ZM7.65187 13.6254C7.66866 13.6655 7.68405 13.7142 7.69524 13.7603C7.70651 13.8066 7.71311 13.8486 7.71311 13.8758H7.75617C7.75617 13.8435 7.74861 13.7975 7.73708 13.7501C7.72546 13.7023 7.70941 13.6514 7.6916 13.6088L7.65187 13.6254ZM7.4201 13.4325C7.4904 13.4535 7.53617 13.4744 7.57023 13.5029C7.60397 13.5311 7.62802 13.5683 7.65187 13.6254L7.6916 13.6088C7.66635 13.5483 7.63893 13.5042 7.59785 13.4699C7.55709 13.4358 7.50469 13.4129 7.43246 13.3912L7.4201 13.4325ZM6.9029 12.9011C6.98971 13.1648 7.17871 13.3601 7.4201 13.4325L7.43246 13.3912C7.20622 13.3234 7.02679 13.1397 6.9438 12.8876L6.9029 12.9011ZM6.95837 12.5155C6.9292 12.5552 6.90644 12.5864 6.89023 12.6136C6.87383 12.6412 6.86335 12.666 6.85947 12.693C6.85562 12.72 6.85859 12.7475 6.86626 12.7801C6.87387 12.8124 6.88651 12.8513 6.9029 12.9011L6.9438 12.8876C6.92723 12.8373 6.91526 12.8003 6.90817 12.7702C6.90113 12.7403 6.8993 12.7187 6.9021 12.6991C6.90488 12.6797 6.91251 12.6604 6.92724 12.6357C6.94215 12.6106 6.96353 12.5812 6.99306 12.541L6.95837 12.5155ZM7.96698 11.6306C7.77 11.7742 7.54859 11.9537 7.36135 12.1179C7.17472 12.2815 7.02015 12.4315 6.95837 12.5155L6.99306 12.541C7.05164 12.4614 7.20266 12.3143 7.38973 12.1503C7.57618 11.9868 7.79657 11.8081 7.99234 11.6654L7.96698 11.6306ZM8.35967 10.9632C8.35654 11.1256 8.33743 11.2332 8.28119 11.329C8.22458 11.4255 8.12899 11.5125 7.96698 11.6306L7.99234 11.6654C8.15487 11.547 8.25689 11.4555 8.31833 11.3508C8.38015 11.2454 8.39954 11.129 8.40272 10.9641L8.35967 10.9632ZM8.39519 10.4812C8.37857 10.592 8.36265 10.8086 8.35967 10.9632L8.40272 10.9641C8.40568 10.8107 8.42151 10.596 8.43777 10.4876L8.39519 10.4812ZM8.38807 10.2744C8.38944 10.2752 8.39311 10.2786 8.39681 10.2891C8.40038 10.2991 8.40312 10.3133 8.40451 10.3319C8.40728 10.3689 8.40442 10.4196 8.39519 10.4812L8.43777 10.4876C8.44725 10.4243 8.45055 10.3701 8.44745 10.3286C8.4459 10.308 8.4427 10.2896 8.43739 10.2747C8.4322 10.2601 8.42405 10.246 8.41071 10.2378L8.38807 10.2744ZM8.24047 10.055C8.26632 10.1056 8.2952 10.1551 8.32102 10.194C8.33392 10.2135 8.34622 10.2306 8.35713 10.244C8.36748 10.2568 8.37823 10.2683 8.38807 10.2744L8.41071 10.2378C8.40764 10.2359 8.40083 10.2295 8.39054 10.2169C8.3808 10.2049 8.36934 10.189 8.35691 10.1703C8.33207 10.1328 8.304 10.0848 8.27883 10.0354L8.24047 10.055ZM8.15152 9.47637C8.1465 9.79093 8.16273 9.9026 8.24047 10.055L8.27883 10.0354C8.20603 9.89271 8.18958 9.78982 8.19457 9.47705L8.15152 9.47637ZM8.12248 9.08032C8.11986 9.0787 8.12081 9.0779 8.12345 9.08394C8.12568 9.08903 8.12811 9.09666 8.13056 9.10711C8.13543 9.1279 8.13974 9.15716 8.14318 9.19357C8.15006 9.26622 8.1533 9.365 8.15152 9.47637L8.19457 9.47705C8.19637 9.36466 8.19312 9.26421 8.18605 9.18952C8.18252 9.15225 8.17799 9.12081 8.17248 9.09728C8.16974 9.08557 8.1666 9.07514 8.1629 9.06669C8.15962 9.05919 8.15431 9.04938 8.14512 9.0437L8.12248 9.08032ZM8.06685 8.96811C8.06685 8.98997 8.07293 9.01278 8.08234 9.03222C8.09161 9.05138 8.10529 9.0697 8.12248 9.08032L8.14512 9.0437C8.13733 9.03888 8.1283 9.02835 8.1211 9.01347C8.11404 8.99888 8.10991 8.98246 8.10991 8.96811H8.06685ZM8.36576 8.89395C8.25573 8.8887 8.184 8.88847 8.1396 8.89693C8.11732 8.90118 8.09867 8.90815 8.08561 8.9206C8.07157 8.93398 8.06685 8.95085 8.06685 8.96811H8.10991C8.10991 8.95904 8.11209 8.95484 8.11532 8.95176C8.11952 8.94776 8.12849 8.94288 8.14766 8.93923C8.18615 8.93189 8.25261 8.93166 8.36371 8.93695L8.36576 8.89395ZM8.64212 8.90711L8.36576 8.89395L8.36371 8.93695L8.64007 8.95012L8.64212 8.90711ZM8.67504 9.44337L8.66262 8.9281L8.61958 8.92913L8.632 9.44441L8.67504 9.44337ZM8.74465 9.99652C8.73661 9.98984 8.72796 9.97748 8.71981 9.95438C8.71169 9.93139 8.70467 9.89948 8.69872 9.85574C8.68683 9.76828 8.67971 9.63719 8.67504 9.44337L8.632 9.44441C8.63667 9.63823 8.64381 9.77146 8.65606 9.86154C8.66218 9.90658 8.66969 9.94175 8.67921 9.96871C8.68868 9.99557 8.70076 10.016 8.71715 10.0296L8.74465 9.99652ZM8.81739 10.1446C8.81739 10.1189 8.80877 10.0901 8.79608 10.0644C8.78333 10.0386 8.7654 10.0137 8.74465 9.99652L8.71715 10.0296C8.73213 10.0421 8.74668 10.0616 8.75748 10.0835C8.76833 10.1055 8.77433 10.1276 8.77433 10.1446H8.81739ZM8.88016 10.2642C8.86343 10.2503 8.84747 10.2294 8.8357 10.2067C8.82382 10.1838 8.81739 10.1613 8.81739 10.1446H8.77433C8.77433 10.1706 8.78377 10.2001 8.79747 10.2265C8.81128 10.2532 8.83059 10.279 8.85266 10.2973L8.88016 10.2642ZM8.93054 10.5159C8.94098 10.4505 8.94399 10.4005 8.93658 10.3605C8.92893 10.3192 8.91031 10.2892 8.88016 10.2642L8.85266 10.2973C8.87532 10.3161 8.88849 10.3372 8.89425 10.3684C8.90025 10.4008 8.89829 10.4448 8.88802 10.5091L8.93054 10.5159ZM8.96071 10.7185C8.94126 10.7038 8.9292 10.6847 8.92395 10.6542C8.91848 10.6224 8.92049 10.5787 8.93054 10.5159L8.88802 10.5091C8.87779 10.573 8.8748 10.6225 8.88151 10.6615C8.88844 10.7017 8.90574 10.7309 8.93471 10.7528L8.96071 10.7185ZM9.01774 11.4971C9.04449 11.3509 9.05105 11.174 9.04153 11.0263C9.03677 10.9524 9.02794 10.8852 9.01534 10.8325C9.00905 10.8061 9.00168 10.7828 8.99313 10.7639C8.98478 10.7454 8.97433 10.7288 8.96071 10.7185L8.93471 10.7528C8.93983 10.7567 8.94663 10.7655 8.95388 10.7816C8.96093 10.7972 8.96754 10.8177 8.97346 10.8425C8.9853 10.892 8.99389 10.9566 8.99856 11.0291C9.0079 11.1739 9.00139 11.3473 8.97538 11.4894L9.01774 11.4971ZM9.23295 12.3568C9.14075 12.1376 9.07908 11.9646 9.04441 11.825C9.00973 11.6854 9.00246 11.5806 9.01774 11.4971L8.97538 11.4894C8.95856 11.5813 8.9672 11.6928 9.00262 11.8354C9.03807 11.9781 9.10072 12.1534 9.19326 12.3735L9.23295 12.3568ZM9.30378 12.7713C9.30378 12.6364 9.27242 12.4506 9.23295 12.3568L9.19326 12.3735C9.22986 12.4605 9.26073 12.6402 9.26073 12.7713H9.30378ZM9.35037 13.1297C9.33813 13.098 9.32637 13.0418 9.31771 12.9757C9.30911 12.9102 9.30378 12.8367 9.30378 12.7713H9.26073C9.26073 12.8388 9.26621 12.9142 9.27502 12.9813C9.28377 13.048 9.29602 13.1085 9.3102 13.1452L9.35037 13.1297ZM9.40708 13.75C9.40509 13.6152 9.39785 13.4785 9.38778 13.3669C9.38274 13.3111 9.37698 13.2613 9.37078 13.2211C9.36467 13.1814 9.3579 13.1492 9.35037 13.1297L9.3102 13.1452C9.31588 13.16 9.32212 13.188 9.32823 13.2276C9.33425 13.2667 9.33991 13.3155 9.34489 13.3708C9.35486 13.4813 9.36205 13.6168 9.36403 13.7506L9.40708 13.75ZM9.48704 14.3432C9.45987 14.3017 9.44109 14.2487 9.42855 14.1579C9.41597 14.0668 9.40989 13.9394 9.40708 13.75L9.36403 13.7506C9.36684 13.9401 9.37293 14.0699 9.3859 14.1638C9.39891 14.2581 9.41905 14.318 9.45103 14.3668L9.48704 14.3432ZM9.51339 14.5059C9.52974 14.4999 9.53538 14.4849 9.53664 14.4732C9.53789 14.4617 9.53573 14.4485 9.53206 14.4355C9.52458 14.4091 9.50878 14.3764 9.48704 14.3432L9.45103 14.3668C9.47122 14.3976 9.4847 14.4263 9.49062 14.4472C9.49365 14.4579 9.49422 14.465 9.49383 14.4686C9.49344 14.4722 9.49306 14.4675 9.49861 14.4655L9.51339 14.5059ZM9.51251 14.7106C9.50591 14.653 9.50432 14.5994 9.50691 14.5598C9.50822 14.5399 9.51053 14.5243 9.51343 14.5138C9.51489 14.5085 9.51626 14.5054 9.51717 14.5038C9.51827 14.5019 9.51746 14.5044 9.51339 14.5059L9.49861 14.4655C9.48914 14.4689 9.48339 14.4763 9.48005 14.482C9.47651 14.488 9.47391 14.4951 9.47192 14.5023C9.46791 14.5169 9.46534 14.5357 9.46395 14.557C9.46115 14.5998 9.46291 14.656 9.46973 14.7155L9.51251 14.7106ZM12.8925 7.6063C12.8935 7.6218 12.8947 7.63436 12.8963 7.64346C12.8971 7.64789 12.8981 7.65255 12.8997 7.65662C12.9005 7.65865 12.9017 7.66143 12.9038 7.66416C12.9057 7.66678 12.9096 7.67107 12.9162 7.67306C12.9235 7.67529 12.9302 7.67349 12.9348 7.67085C12.9388 7.66853 12.9414 7.66551 12.9428 7.66362C12.9457 7.6598 12.9477 7.65526 12.9493 7.65151C12.9525 7.64356 12.9558 7.6323 12.9594 7.61858L12.9178 7.60769C12.9142 7.62118 12.9115 7.63016 12.9093 7.63536C12.9082 7.63819 12.9078 7.63846 12.9084 7.63766C12.9087 7.63727 12.9102 7.63531 12.9132 7.6336C12.9167 7.63157 12.9223 7.62992 12.9287 7.63186C12.9343 7.63356 12.9373 7.6371 12.9384 7.63852C12.939 7.63935 12.9394 7.64003 12.9395 7.64041C12.9397 7.6408 12.9398 7.64105 12.9399 7.64109C12.9399 7.64113 12.9397 7.64077 12.9395 7.63983C12.9393 7.63892 12.939 7.63769 12.9387 7.63607C12.9376 7.62938 12.9365 7.61876 12.9355 7.60355L12.8925 7.6063ZM12.9594 7.61857C12.9596 7.61781 12.9598 7.61706 12.96 7.61632L12.9186 7.60473C12.9183 7.60573 12.918 7.60672 12.9178 7.6077L12.9594 7.61857ZM12.9089 7.62582C12.9174 7.62794 12.9264 7.63006 12.9354 7.63171L12.9431 7.58935C12.9355 7.58795 12.9276 7.58609 12.9192 7.58403L12.9089 7.62582ZM2.44045 9.35807C2.44517 9.35818 2.44989 9.35802 2.45457 9.35756L2.45042 9.3147C2.44753 9.31498 2.44453 9.31509 2.44144 9.31502L2.44045 9.35807ZM2.42412 9.34997L2.43339 9.36159L2.46705 9.33474L2.45777 9.32312L2.42412 9.34997ZM2.47137 9.35218L2.47365 9.34014L2.43135 9.33212L2.42907 9.34415L2.47137 9.35218ZM1.60505 7.33131C1.60567 7.33519 1.60643 7.33904 1.60733 7.34285L1.64923 7.33295C1.64858 7.33021 1.64803 7.3274 1.64757 7.32453L1.60505 7.33131ZM1.60986 7.31403L1.60238 7.32289L1.63528 7.35067L1.64276 7.34181L1.60986 7.31403ZM1.61629 7.35816L1.62573 7.35928L1.63083 7.31653L1.62138 7.3154L1.61629 7.35816ZM6.61088 11.9107C6.70236 11.8944 6.78796 11.8611 6.85122 11.8209C6.88283 11.8008 6.90957 11.7786 6.92863 11.7552C6.94754 11.732 6.96025 11.706 6.96025 11.6789H6.91719C6.91719 11.6924 6.9107 11.7091 6.89526 11.728C6.87996 11.7468 6.85717 11.7661 6.82813 11.7846C6.7701 11.8214 6.68988 11.8529 6.60329 11.8684L6.61088 11.9107ZM6.39597 11.9774C6.4001 11.974 6.40901 11.9689 6.42336 11.9627C6.43722 11.9567 6.45467 11.9504 6.47459 11.9441C6.51442 11.9314 6.56313 11.9193 6.61088 11.9107L6.60329 11.8684C6.55376 11.8772 6.50324 11.8898 6.46158 11.903C6.44075 11.9096 6.42188 11.9165 6.40632 11.9232C6.39124 11.9297 6.37762 11.9367 6.36855 11.9442L6.39597 11.9774ZM6.09755 11.5572C6.17082 11.7097 6.22955 11.8207 6.27429 11.8903C6.2965 11.9249 6.31615 11.9507 6.33326 11.9663C6.3417 11.974 6.35114 11.9808 6.36139 11.9839C6.37289 11.9873 6.38553 11.986 6.39597 11.9774L6.36855 11.9442C6.36929 11.9436 6.37053 11.9429 6.37206 11.9427C6.37347 11.9425 6.37417 11.9427 6.3738 11.9426C6.37256 11.9423 6.3688 11.9405 6.36229 11.9345C6.3495 11.9228 6.3323 11.9009 6.31052 11.867C6.26729 11.7997 6.20951 11.6908 6.13636 11.5385L6.09755 11.5572ZM5.86284 10.7146C5.86985 10.8901 5.87807 10.9968 5.91021 11.1121C5.94222 11.2269 5.99775 11.3494 6.09755 11.5572L6.13636 11.5385C6.03626 11.3301 5.9825 11.211 5.95169 11.1005C5.92101 10.9905 5.91287 10.8883 5.90586 10.7129L5.86284 10.7146ZM5.93922 9.95688C5.87235 10.2288 5.85163 10.4343 5.86284 10.7146L5.90586 10.7129C5.89482 10.4366 5.91513 10.2351 5.98104 9.96716L5.93922 9.95688ZM6.05552 9.19253C6.04139 9.4102 5.98898 9.75459 5.93922 9.95688L5.98104 9.96716C6.03142 9.7623 6.0842 9.4154 6.09849 9.19532L6.05552 9.19253ZM6.10553 8.63841C6.09219 8.72431 6.06974 8.97369 6.05552 9.19253L6.09849 9.19532C6.11271 8.9764 6.13507 8.72879 6.14808 8.64501L6.10553 8.63841ZM6.12949 8.48415L6.10553 8.63841L6.14808 8.64501L6.17204 8.49076L6.12949 8.48415ZM6.23453 8.63113L6.17061 8.47911L6.13092 8.4958L6.19484 8.64782L6.23453 8.63113ZM6.27437 8.91112C6.28213 8.87581 6.28087 8.82698 6.27371 8.77754C6.2665 8.7277 6.25294 8.67493 6.23453 8.63113L6.19484 8.64782C6.21158 8.68764 6.2243 8.73676 6.2311 8.78371C6.23796 8.83107 6.23845 8.87395 6.23232 8.90189L6.27437 8.91112ZM6.31061 9.16223C6.29422 9.12327 6.28181 9.07491 6.27523 9.0285C6.2686 8.9817 6.26823 8.93911 6.27437 8.91112L6.23232 8.90189C6.22457 8.93715 6.22567 8.98561 6.2326 9.03454C6.23959 9.08385 6.25283 9.1359 6.27092 9.17892L6.31061 9.16223ZM6.35207 9.49179C6.36569 9.39026 6.34844 9.25221 6.31061 9.16223L6.27092 9.17892C6.30561 9.26143 6.32205 9.3917 6.30939 9.48606L6.35207 9.49179ZM6.42439 9.63668C6.39671 9.63668 6.37818 9.63596 6.36526 9.63311C6.35335 9.63048 6.3496 9.6268 6.34739 9.6228C6.34417 9.61699 6.34176 9.60586 6.3425 9.5832C6.34322 9.56113 6.34671 9.53171 6.35207 9.49179L6.30939 9.48606C6.30408 9.52568 6.30027 9.55721 6.29947 9.58179C6.29868 9.60579 6.30051 9.62703 6.30971 9.64365C6.31991 9.66209 6.33674 9.6709 6.35597 9.67515C6.37421 9.67918 6.39739 9.67974 6.42439 9.67974V9.63668ZM6.56229 9.87669C6.56229 9.82519 6.5619 9.78491 6.55951 9.75379C6.55715 9.72314 6.55271 9.69847 6.54282 9.67989C6.53197 9.65953 6.51557 9.64821 6.4946 9.64253C6.47534 9.63731 6.45149 9.63668 6.42439 9.63668V9.67974C6.45228 9.67974 6.47047 9.6806 6.48334 9.68409C6.4945 9.68711 6.50032 9.69169 6.50482 9.70014C6.51027 9.71037 6.5143 9.72742 6.51658 9.75709C6.51882 9.78629 6.51923 9.82494 6.51923 9.87669H6.56229ZM6.59209 10.1016C6.5938 10.1026 6.5933 10.1031 6.59141 10.0998C6.58974 10.0968 6.58775 10.0924 6.58561 10.0861C6.58136 10.0736 6.57728 10.0562 6.57376 10.0348C6.56673 9.99203 6.56229 9.93582 6.56229 9.87669H6.51923C6.51923 9.93771 6.52379 9.99631 6.53127 10.0417C6.53499 10.0644 6.53954 10.0844 6.54485 10.1C6.5475 10.1078 6.55053 10.115 6.55406 10.1212C6.55736 10.1269 6.56223 10.1337 6.56945 10.1382L6.59209 10.1016ZM6.61916 10.3186C6.62565 10.2703 6.62698 10.2231 6.62373 10.1858C6.62211 10.1672 6.61929 10.1503 6.61505 10.1366C6.61125 10.1244 6.60476 10.1094 6.59209 10.1016L6.56945 10.1382C6.56778 10.1372 6.5705 10.1383 6.57393 10.1494C6.57693 10.159 6.57936 10.1726 6.58083 10.1895C6.58377 10.2232 6.58263 10.2671 6.57649 10.3129L6.61916 10.3186ZM6.83499 10.5885C6.77745 10.5693 6.73386 10.5533 6.70089 10.5373C6.66792 10.5213 6.6473 10.5062 6.63423 10.4895C6.60871 10.457 6.60661 10.4122 6.61916 10.3186L6.57649 10.3129C6.56425 10.4041 6.56212 10.4674 6.60037 10.5161C6.61919 10.5401 6.6464 10.5587 6.6821 10.5761C6.7178 10.5934 6.7637 10.6101 6.82136 10.6293L6.83499 10.5885ZM6.9672 10.8053C6.97055 10.772 6.97237 10.7442 6.97106 10.721C6.96973 10.6976 6.96514 10.6773 6.95448 10.6597C6.93339 10.6249 6.89251 10.6077 6.83499 10.5885L6.82136 10.6293C6.88141 10.6494 6.90599 10.6628 6.91765 10.682C6.92337 10.6915 6.92697 10.7041 6.92807 10.7235C6.92918 10.743 6.92768 10.7679 6.92436 10.801L6.9672 10.8053ZM7.05616 10.9061C7.02448 10.9125 7.00248 10.9165 6.98668 10.9172C6.97043 10.918 6.96721 10.9149 6.96657 10.9142C6.96505 10.9126 6.9618 10.9067 6.96151 10.8868C6.96123 10.8679 6.96354 10.8418 6.9672 10.8053L6.92436 10.801C6.92076 10.8369 6.91814 10.8656 6.91846 10.8874C6.91876 10.9082 6.92163 10.929 6.93494 10.9434C6.94915 10.9588 6.96948 10.9612 6.98871 10.9602C7.00839 10.9593 7.03378 10.9545 7.0646 10.9484L7.05616 10.9061ZM7.28291 11.0461C7.26658 11.0118 7.25243 10.9842 7.2385 10.9627C7.22454 10.9412 7.20994 10.9245 7.19211 10.9132C7.15571 10.8903 7.11288 10.8948 7.05616 10.9061L7.0646 10.9484C7.12288 10.9367 7.14903 10.937 7.16914 10.9496C7.17957 10.9562 7.19011 10.9673 7.20237 10.9862C7.21466 11.0051 7.2278 11.0305 7.24405 11.0646L7.28291 11.0461ZM7.35636 11.2001L7.28291 11.0461L7.24405 11.0646L7.31749 11.2186L7.35636 11.2001ZM7.15355 11.4369L7.35265 11.2241L7.3212 11.1946L7.1221 11.4075L7.15355 11.4369ZM6.96025 11.6789C6.96025 11.681 6.95974 11.6803 6.96228 11.6749C6.96442 11.6703 6.96783 11.6642 6.97264 11.6566C6.98223 11.6413 6.99638 11.6216 7.01422 11.5986C7.04982 11.5527 7.09915 11.4951 7.15355 11.4369L7.1221 11.4075C7.06699 11.4664 7.01676 11.5251 6.98019 11.5722C6.96194 11.5957 6.94685 11.6167 6.93621 11.6336C6.93091 11.642 6.92647 11.6498 6.92328 11.6566C6.9205 11.6626 6.91719 11.6708 6.91719 11.6789H6.96025ZM10.7981 5.44982C10.801 5.39588 10.8026 5.35281 10.8021 5.31836C10.8016 5.2841 10.799 5.25692 10.7928 5.23532C10.7864 5.21306 10.7759 5.19612 10.7598 5.18346C10.7444 5.17135 10.7254 5.16452 10.7047 5.15911L10.6938 5.20077C10.7129 5.20576 10.7249 5.21079 10.7332 5.21733C10.7409 5.22334 10.747 5.23186 10.7514 5.24724C10.756 5.26328 10.7586 5.2859 10.7591 5.31899C10.7596 5.35188 10.758 5.39369 10.7551 5.44752L10.7981 5.44982ZM10.715 5.73241C10.7316 5.72696 10.7429 5.7118 10.7508 5.69701C10.7593 5.68118 10.7666 5.66055 10.7728 5.63665C10.7852 5.58867 10.7942 5.52404 10.7981 5.44982L10.7551 5.44752C10.7513 5.52 10.7426 5.58156 10.7311 5.62583C10.7253 5.64805 10.7191 5.66506 10.7128 5.6767C10.7097 5.6825 10.7069 5.68641 10.7046 5.68886C10.7023 5.69135 10.7012 5.69163 10.7015 5.69152L10.715 5.73241ZM10.6315 5.61455C10.6315 5.65206 10.6366 5.68385 10.6489 5.70547C10.6552 5.71665 10.6642 5.72636 10.6765 5.73162C10.6891 5.73698 10.7024 5.73658 10.715 5.73241L10.7015 5.69152C10.6968 5.6931 10.6945 5.69248 10.6934 5.69202C10.6921 5.69146 10.6895 5.68974 10.6863 5.68423C10.6796 5.67246 10.6745 5.64981 10.6745 5.61455H10.6315ZM10.5668 5.34846C10.5845 5.39087 10.6008 5.44245 10.6126 5.4913C10.6245 5.54048 10.6315 5.5853 10.6315 5.61455H10.6745C10.6745 5.5802 10.6666 5.53148 10.6544 5.48119C10.6422 5.43057 10.6253 5.37676 10.6065 5.33186L10.5668 5.34846ZM10.4988 5.04833C10.4988 5.12508 10.5295 5.25926 10.5668 5.34846L10.6065 5.33186C10.5709 5.24645 10.5419 5.11798 10.5419 5.04833H10.4988ZM10.4095 4.76602C10.4339 4.80839 10.4564 4.86186 10.4727 4.91381C10.4892 4.96609 10.4988 5.01494 10.4988 5.04833H10.5419C10.5419 5.00853 10.5308 4.95484 10.5138 4.90088C10.4967 4.84659 10.4731 4.79013 10.4468 4.74451L10.4095 4.76602ZM10.4113 4.65035C10.407 4.64532 10.403 4.641 10.3994 4.63775C10.3976 4.63614 10.3955 4.63437 10.3931 4.63287C10.3912 4.63172 10.3867 4.629 10.3805 4.62866C10.3769 4.62846 10.3723 4.62904 10.3678 4.63165C10.3632 4.63429 10.3603 4.63806 10.3587 4.64147C10.3558 4.64735 10.3562 4.65295 10.3563 4.65506C10.3568 4.66016 10.3585 4.66555 10.3601 4.66994C10.3668 4.6884 10.3841 4.72211 10.4095 4.76602L10.4468 4.74451C10.4213 4.70042 10.4058 4.66969 10.4005 4.65519C10.3991 4.65133 10.3992 4.65045 10.3992 4.65138C10.3992 4.6514 10.3997 4.65543 10.3974 4.66028C10.396 4.66319 10.3934 4.66658 10.3893 4.66897C10.3851 4.67134 10.3811 4.67181 10.3781 4.67165C10.3753 4.6715 10.3733 4.67078 10.3722 4.67036C10.3711 4.66991 10.3704 4.66948 10.3701 4.66931C10.3696 4.669 10.3697 4.669 10.3706 4.66973C10.3721 4.67117 10.3748 4.67388 10.3786 4.67834L10.4113 4.65035ZM10.539 4.74229C10.5201 4.73522 10.4958 4.72134 10.472 4.70418C10.4482 4.68706 10.4261 4.66766 10.4113 4.65035L10.3786 4.67834C10.3963 4.69902 10.4212 4.72069 10.4468 4.73914C10.4724 4.75753 10.5001 4.77371 10.5238 4.78261L10.539 4.74229ZM10.6303 4.97388C10.6303 4.9068 10.6251 4.85607 10.6115 4.81878C10.5973 4.77996 10.5737 4.75533 10.539 4.74229L10.5238 4.78261C10.5456 4.79077 10.5607 4.80527 10.5711 4.83358C10.582 4.86341 10.5873 4.90779 10.5873 4.97388H10.6303ZM10.7047 5.15911C10.688 5.15474 10.6761 5.14955 10.6672 5.143C10.6586 5.13668 10.6519 5.12837 10.6465 5.11609C10.635 5.08996 10.6303 5.04756 10.6303 4.97388H10.5873C10.5873 5.04679 10.5915 5.09791 10.607 5.1334C10.6152 5.15194 10.6265 5.16648 10.6417 5.17767C10.6566 5.18864 10.6742 5.19563 10.6938 5.20077L10.7047 5.15911Z" fill="#2F729D"/>
</svg>
