<!-- Copyright 2000-2023 JetBrains s.r.o. and contributors. Use of this source code is governed by the Apache 2.0 license. -->
<svg width="16" height="16" viewBox="0 0 16 16" fill="none" xmlns="http://www.w3.org/2000/svg">
<path d="M14.7987 9.17689V7.17529C14.7987 6.69446 14.508 6.26954 14.0943 6.09063L14.0383 5.85581V5.84462C13.8147 5.15133 13.2332 4.63696 12.5176 4.48041C12.3275 4.43568 12.1486 4.34622 12.0144 4.20085L10.5607 2.74718C9.99042 2.17689 9.05112 2.17689 8.48083 2.74718L7.0607 4.16731C6.9377 4.29031 6.78115 4.37977 6.60224 4.4245C5.94249 4.60341 5.32748 4.91651 4.76837 5.31907C4.6901 5.37498 4.60064 5.39734 4.52236 5.39734C4.29872 5.39734 4.09744 5.22961 4.09744 4.97242V3.50756C4.09744 3.18328 3.89617 2.90373 3.6278 2.78073C3.68371 2.5459 2.76677 1.58424 2.83387 2.5459C2.83387 2.613 2.84505 2.69127 2.85623 2.75836C2.85623 2.75836 1 3.16092 1 3.39574V3.6082C1 3.86539 1.21246 4.07785 1.46965 4.07785H1.95048C2.31949 4.07785 2.62141 4.37977 2.62141 4.74878V5.66571C2.62141 6.85101 3.59425 7.86859 4.79073 7.86859C5.59585 7.86859 6.24441 8.51715 6.24441 9.32226L6.49042 13.0459C6.5016 13.2248 6.44569 13.4037 6.32268 13.5267C6.30032 13.5491 6.28914 13.5715 6.28914 13.5938C6.25559 13.7392 6.36741 13.8622 6.5016 13.8622H7.13898C7.2508 13.8622 7.35144 13.7839 7.3738 13.6721C7.3738 13.6274 7.3738 13.5938 7.35144 13.5491C7.2508 13.3255 7.18371 13.0906 7.20607 12.8558L7.42971 9.57945C7.42971 9.03152 7.877 8.57306 8.4361 8.57306H9.84505C10.5607 8.57306 11.2316 8.93089 11.6677 9.50117C11.869 9.76954 12.1374 9.982 12.4393 10.1162C12.7748 10.2616 12.8419 10.474 12.976 10.9548L13.2668 13.2807C13.278 13.3478 13.2332 13.4149 13.1773 13.4596C13.1102 13.5044 13.0543 13.5826 13.0655 13.6721C13.0767 13.7839 13.1773 13.8734 13.3003 13.8734H13.9265C14.0383 13.8734 14.1502 13.7951 14.1613 13.6721C14.1725 13.605 14.1502 13.5491 14.1054 13.5044C13.9936 13.3814 13.9489 13.2248 13.9601 13.0571C14.0352 10.8845 14.1837 8.70042 14.1837 6.52673C14.3738 6.68328 14.4856 6.91811 14.4856 7.17529V9.17689C14.3962 9.22162 14.3291 9.33344 14.3291 9.56827C14.3291 9.92609 14.4744 10.2168 14.6645 10.2168C14.8435 10.2168 15 9.92609 15 9.56827C14.9553 9.33344 14.8882 9.22162 14.7987 9.17689Z" fill="#548AF7"/>
</svg>
