<!-- Copyright 2000-2021 JetBrains s.r.o. and contributors. Use of this source code is governed by the Apache 2.0 license. -->
<svg width="16" height="16" viewBox="0 0 16 16" fill="none" xmlns="http://www.w3.org/2000/svg">
<path d="M1.26612 5.69116H3.63899C4.33545 5.69701 4.84013 5.89781 5.15303 6.29323C5.46593 6.68866 5.56917 7.22875 5.46292 7.91352C5.42166 8.22641 5.33011 8.5333 5.18845 8.83433C5.05263 9.13537 4.86385 9.40684 4.62179 9.6489C4.3266 9.95578 4.01086 10.1506 3.67441 10.2333C3.33796 10.316 2.98965 10.3572 2.62964 10.3572H1.56716L1.23071 12.0395H0L1.26612 5.69116ZM2.30204 6.70052L1.7708 9.35672C1.80622 9.36257 1.84163 9.36557 1.87705 9.36557C1.91831 9.36557 1.95974 9.36557 2.001 9.36557C2.56766 9.37142 3.03993 9.31546 3.41764 9.19735C3.79536 9.07339 4.04929 8.64255 4.17909 7.90466C4.28534 7.28488 4.17909 6.92772 3.86034 6.83333C3.54745 6.73894 3.15503 6.69467 2.68276 6.70052C2.61193 6.70637 2.54411 6.70937 2.47912 6.70937C2.42015 6.70937 2.35817 6.70937 2.29319 6.70937L2.30204 6.70052Z" fill="#3574F0"/>
<path d="M6.86482 4H8.08667L7.74137 5.69111H8.83926C9.44133 5.70298 9.88988 5.82693 10.1851 6.06298C10.4861 6.29903 10.5746 6.74775 10.4507 7.40879L9.85747 10.3572H8.61791L9.18457 7.5416C9.24354 7.24641 9.22583 7.03692 9.13144 6.91297C9.03706 6.78901 8.83342 6.72703 8.52052 6.72703L7.53772 6.71818L6.8117 10.3572H5.58984L6.86482 4Z" fill="#3574F0"/>
<path d="M11.7627 5.69116H14.1356C14.832 5.69701 15.3367 5.89781 15.6496 6.29323C15.9625 6.68866 16.0657 7.22875 15.9595 7.91352C15.9182 8.22641 15.8267 8.5333 15.685 8.83433C15.5492 9.13537 15.3604 9.40684 15.1184 9.6489C14.8232 9.95578 14.5074 10.1506 14.171 10.2333C13.8345 10.316 13.4862 10.3572 13.1262 10.3572H12.0637L11.7273 12.0395H10.4966L11.7627 5.69116ZM12.7986 6.70052L12.2674 9.35672C12.3028 9.36257 12.3382 9.36557 12.3736 9.36557C12.4149 9.36557 12.4563 9.36557 12.4976 9.36557C13.0642 9.37142 13.5365 9.31546 13.9142 9.19735C14.2919 9.07339 14.5459 8.64255 14.6757 7.90466C14.7819 7.28488 14.6757 6.92772 14.3569 6.83333C14.044 6.73894 13.6516 6.69467 13.1793 6.70052C13.1085 6.70637 13.0407 6.70937 12.9757 6.70937C12.9167 6.70937 12.8548 6.70937 12.7898 6.70937L12.7986 6.70052Z" fill="#3574F0"/>
</svg>
