<svg width="16" height="16" viewBox="0 0 16 16" fill="none" xmlns="http://www.w3.org/2000/svg">
<mask id="path-1-inside-1_823_19047" fill="white">
<path fill-rule="evenodd" clip-rule="evenodd" d="M3.22729 4.36961C2.92306 4.76924 2.66809 5.20781 2.4711 5.67626L3.31065 7.0943C3.64133 7.65283 3.64133 8.34718 3.31065 8.9057L2.4711 10.3237C2.66809 10.7922 2.92307 11.2308 3.22729 11.6304L4.87334 11.6124C5.52238 11.6053 6.1237 11.9524 6.44206 12.5181L7.24972 13.953C7.49667 13.984 7.74865 14 8.00482 14C8.26093 14 8.51287 13.984 8.75977 13.9531L9.56744 12.5181C9.8858 11.9524 10.4871 11.6053 11.1362 11.6124L12.7823 11.6304C13.0865 11.2308 13.3415 10.7923 13.5385 10.3239L12.6989 8.9057C12.3682 8.34718 12.3682 7.65283 12.6989 7.0943L13.5385 5.67613C13.3415 5.20773 13.0865 4.76921 12.7823 4.36961L11.1362 4.38764C10.4871 4.39475 9.8858 4.04758 9.56744 3.48194L8.75977 2.04693C8.51287 2.01599 8.26093 2 8.00482 2C7.74865 2 7.49667 2.016 7.24973 2.04695L6.44206 3.48194C6.1237 4.04758 5.52238 4.39475 4.87334 4.38764L3.22729 4.36961ZM10.6557 8.00001C10.6557 9.46412 9.46884 10.651 8.00473 10.651C6.54063 10.651 5.35373 9.46412 5.35373 8.00001C5.35373 6.53591 6.54063 5.34902 8.00473 5.34902C9.46884 5.34902 10.6557 6.53591 10.6557 8.00001ZM4.8843 3.3877C5.16825 3.39081 5.43133 3.23892 5.57061 2.99146L6.4389 1.44875C6.54987 1.25159 6.74083 1.1101 6.96461 1.07676C7.304 1.0262 7.65135 1 8.00482 1C8.35823 1 8.70553 1.02619 9.04487 1.07674C9.26865 1.11007 9.45962 1.25157 9.57059 1.44873L10.4389 2.99146C10.5782 3.23892 10.8413 3.39081 11.1252 3.3877L12.8945 3.36832C13.1203 3.36585 13.3379 3.46012 13.4788 3.63661C13.9107 4.17766 14.264 4.78416 14.5215 5.43884C14.6042 5.6491 14.577 5.88489 14.4619 6.07931L13.5594 7.60376C13.4147 7.84811 13.4147 8.15189 13.5594 8.39625L14.4619 9.92069C14.577 10.1151 14.6042 10.3509 14.5215 10.5612C14.264 11.2158 13.9106 11.8223 13.4788 12.3634C13.3379 12.5399 13.1203 12.6342 12.8945 12.6317L11.1252 12.6123C10.8413 12.6092 10.5782 12.7611 10.4389 13.0085L9.57059 14.5513C9.45962 14.7484 9.26865 14.8899 9.04488 14.9233C8.70553 14.9738 8.35823 15 8.00482 15C7.65135 15 7.304 14.9738 6.9646 14.9232C6.74083 14.8899 6.54987 14.7484 6.4389 14.5512L5.57061 13.0085C5.43133 12.7611 5.16825 12.6092 4.8843 12.6123L3.11513 12.6317C2.88933 12.6342 2.6717 12.5399 2.53083 12.3634C2.09895 11.8223 1.74562 11.2158 1.48811 10.561C1.40542 10.3508 1.43258 10.115 1.54768 9.92057L2.45016 8.39625C2.59483 8.15189 2.59483 7.84811 2.45016 7.60376L1.54768 6.07944C1.43258 5.88502 1.40542 5.64924 1.48811 5.43898C1.74562 4.78425 2.09895 4.1777 2.53083 3.63661C2.67169 3.46012 2.88933 3.36585 3.11513 3.36832L4.8843 3.3877ZM9.65573 8.00001C9.65573 8.91183 8.91655 9.65101 8.00473 9.65101C7.09291 9.65101 6.35373 8.91183 6.35373 8.00001C6.35373 7.08819 7.09291 6.34902 8.00473 6.34902C8.91655 6.34902 9.65573 7.08819 9.65573 8.00001Z"/>
</mask>
<path d="M2.4711 5.67626L1.54929 5.28862L1.35418 5.7526L1.6106 6.18571L2.4711 5.67626ZM3.22729 4.36961L3.23824 3.36967L2.7359 3.36417L2.43161 3.76389L3.22729 4.36961ZM3.31065 7.0943L2.45016 7.60376H2.45016L3.31065 7.0943ZM3.31065 8.9057L2.45016 8.39625L3.31065 8.9057ZM2.4711 10.3237L1.6106 9.81429L1.35418 10.2474L1.54929 10.7114L2.4711 10.3237ZM3.22729 11.6304L2.43161 12.2361L2.7359 12.6358L3.23824 12.6303L3.22729 11.6304ZM4.87334 11.6124L4.8843 12.6123H4.8843L4.87334 11.6124ZM6.44206 12.5181L5.57061 13.0085H5.57061L6.44206 12.5181ZM7.24972 13.953L6.37827 14.4435L6.6254 14.8826L7.12535 14.9453L7.24972 13.953ZM8.75977 13.9531L8.88413 14.9453L9.38409 14.8826L9.63122 14.4435L8.75977 13.9531ZM9.56744 12.5181L8.69599 12.0276L9.56744 12.5181ZM11.1362 11.6124L11.1471 10.6124L11.1362 11.6124ZM12.7823 11.6304L12.7714 12.6303L13.2737 12.6358L13.578 12.2361L12.7823 11.6304ZM13.5385 10.3239L14.4603 10.7115L14.6554 10.2475L14.399 9.81441L13.5385 10.3239ZM12.6989 8.9057L11.8384 9.41516L12.6989 8.9057ZM12.6989 7.0943L13.5594 7.60376V7.60376L12.6989 7.0943ZM13.5385 5.67613L14.399 6.18559L14.6554 5.75246L14.4603 5.28848L13.5385 5.67613ZM12.7823 4.36961L13.578 3.76389L13.2737 3.36416L12.7714 3.36967L12.7823 4.36961ZM11.1362 4.38764L11.1471 5.38758L11.1362 4.38764ZM9.56744 3.48194L10.4389 2.99146L10.4389 2.99146L9.56744 3.48194ZM8.75977 2.04693L9.63122 1.55645L9.38408 1.11735L8.88413 1.0547L8.75977 2.04693ZM7.24973 2.04695L7.12535 1.05472L6.62541 1.11738L6.37827 1.55647L7.24973 2.04695ZM6.44206 3.48194L5.57061 2.99146L6.44206 3.48194ZM4.87334 4.38764L4.86239 5.38758H4.86239L4.87334 4.38764ZM5.57061 2.99146L6.44206 3.48194V3.48194L5.57061 2.99146ZM4.8843 3.3877L4.87334 4.38764H4.87334L4.8843 3.3877ZM6.4389 1.44875L5.56745 0.958267V0.958267L6.4389 1.44875ZM6.96461 1.07676L7.11196 2.06584L6.96461 1.07676ZM9.04487 1.07674L8.89755 2.06582H8.89755L9.04487 1.07674ZM9.57059 1.44873L8.69914 1.93921L8.69914 1.93921L9.57059 1.44873ZM10.4389 2.99146L11.3103 2.50098L11.3103 2.50097L10.4389 2.99146ZM11.1252 3.3877L11.1362 4.38764L11.1252 3.3877ZM12.8945 3.36832L12.8835 2.36838H12.8835L12.8945 3.36832ZM13.4788 3.63661L12.6972 4.26043V4.26043L13.4788 3.63661ZM14.5215 5.43884L15.4521 5.0728L15.4521 5.0728L14.5215 5.43884ZM14.4619 6.07931L15.3224 6.58877L15.3224 6.58877L14.4619 6.07931ZM13.5594 7.60376L14.4198 8.11322V8.11321L13.5594 7.60376ZM13.5594 8.39625L14.4198 7.88679L13.5594 8.39625ZM14.4619 9.92069L15.3224 9.41123L15.3224 9.41123L14.4619 9.92069ZM14.5215 10.5612L15.4521 10.9272V10.9272L14.5215 10.5612ZM13.4788 12.3634L12.6972 11.7396L12.6972 11.7396L13.4788 12.3634ZM12.8945 12.6317L12.9055 11.6317L12.8945 12.6317ZM11.1252 12.6123L11.1143 13.6122L11.1252 12.6123ZM10.4389 13.0085L9.56744 12.5181L9.56744 12.5181L10.4389 13.0085ZM9.57059 14.5513L10.442 15.0418L10.442 15.0418L9.57059 14.5513ZM9.04488 14.9233L8.89755 13.9342H8.89755L9.04488 14.9233ZM6.9646 14.9232L7.11196 13.9342H7.11195L6.9646 14.9232ZM6.4389 14.5512L5.56745 15.0417L5.56745 15.0417L6.4389 14.5512ZM5.57061 13.0085L6.44206 12.5181L6.44206 12.5181L5.57061 13.0085ZM4.8843 12.6123L4.89525 13.6122H4.89525L4.8843 12.6123ZM3.11513 12.6317L3.10418 11.6317H3.10418L3.11513 12.6317ZM2.53083 12.3634L3.3124 11.7396H3.3124L2.53083 12.3634ZM1.48811 10.561L0.557505 10.927L0.557505 10.927L1.48811 10.561ZM1.54768 9.92057L0.687187 9.41111H0.687186L1.54768 9.92057ZM2.45016 8.39625L1.58966 7.88679L1.58966 7.88679L2.45016 8.39625ZM2.45016 7.60376L3.31065 7.0943L3.31065 7.0943L2.45016 7.60376ZM1.54768 6.07944L2.40818 5.56998L2.40818 5.56998L1.54768 6.07944ZM1.48811 5.43898L2.41872 5.80499L2.41872 5.80499L1.48811 5.43898ZM2.53083 3.63661L3.3124 4.26043L3.3124 4.26043L2.53083 3.63661ZM3.11513 3.36832L3.12608 2.36838H3.12608L3.11513 3.36832ZM3.39291 6.06389C3.55682 5.67411 3.76919 5.30869 4.02297 4.97533L2.43161 3.76389C2.07694 4.22979 1.77935 4.74151 1.54929 5.28862L3.39291 6.06389ZM4.17115 6.58484L3.33159 5.1668L1.6106 6.18571L2.45016 7.60376L4.17115 6.58484ZM4.17115 9.41516C4.68783 8.54246 4.68783 7.45754 4.17115 6.58484L2.45016 7.60376C2.59483 7.84811 2.59483 8.15189 2.45016 8.39625L4.17115 9.41516ZM3.3316 10.8332L4.17115 9.41516L2.45016 8.39625L1.6106 9.81429L3.3316 10.8332ZM4.02297 11.0247C3.76919 10.6913 3.55682 10.3259 3.39291 9.93611L1.54929 10.7114C1.77936 11.2585 2.07694 11.7702 2.43161 12.2361L4.02297 11.0247ZM4.86239 10.6124L3.21633 10.6305L3.23824 12.6303L4.8843 12.6123L4.86239 10.6124ZM7.31352 12.0276C6.81608 11.1438 5.87651 10.6013 4.86239 10.6124L4.8843 12.6123C5.16825 12.6092 5.43133 12.7611 5.57061 13.0085L7.31352 12.0276ZM8.12117 13.4626L7.31352 12.0276L5.57061 13.0085L6.37827 14.4435L8.12117 13.4626ZM8.00482 13C7.79033 13 7.57989 12.9866 7.3741 12.9608L7.12535 14.9453C7.41345 14.9814 7.70697 15 8.00482 15V13ZM8.63542 12.9608C8.42967 12.9866 8.21926 13 8.00482 13V15C8.3026 15 8.59608 14.9814 8.88413 14.9453L8.63542 12.9608ZM8.69599 12.0276L7.88832 13.4626L9.63122 14.4435L10.4389 13.0085L8.69599 12.0276ZM11.1471 10.6124C10.133 10.6013 9.19343 11.1438 8.69599 12.0276L10.4389 13.0085C10.5782 12.7611 10.8413 12.6092 11.1252 12.6123L11.1471 10.6124ZM12.7933 10.6305L11.1471 10.6124L11.1252 12.6123L12.7714 12.6303L12.7933 10.6305ZM12.6167 9.93621C12.4528 10.326 12.2404 10.6913 11.9867 11.0247L13.578 12.2361C13.9327 11.7703 14.2302 11.2586 14.4603 10.7115L12.6167 9.93621ZM11.8384 9.41516L12.678 10.8333L14.399 9.81441L13.5594 8.39625L11.8384 9.41516ZM11.8384 6.58484C11.3217 7.45754 11.3217 8.54247 11.8384 9.41516L13.5594 8.39625C13.4147 8.15189 13.4147 7.84811 13.5594 7.60376L11.8384 6.58484ZM12.678 5.16668L11.8384 6.58484L13.5594 7.60376L14.399 6.18559L12.678 5.16668ZM11.9867 4.97533C12.2404 5.30866 12.4528 5.67405 12.6167 6.06379L14.4603 5.28848C14.2302 4.74142 13.9327 4.22975 13.578 3.76389L11.9867 4.97533ZM11.1471 5.38758L12.7933 5.36955L12.7714 3.36967L11.1252 3.3877L11.1471 5.38758ZM8.69599 3.97242C9.19343 4.85623 10.133 5.39869 11.1471 5.38758L11.1252 3.3877C10.8413 3.39081 10.5782 3.23892 10.4389 2.99146L8.69599 3.97242ZM7.88832 2.53742L8.69599 3.97242L10.4389 2.99146L9.63122 1.55645L7.88832 2.53742ZM8.00482 3C8.21926 3 8.42967 3.01339 8.63542 3.03917L8.88413 1.0547C8.59607 1.01859 8.3026 1 8.00482 1V3ZM7.3741 3.03919C7.57989 3.01339 7.79033 3 8.00482 3V1C7.70697 1 7.41345 1.0186 7.12535 1.05472L7.3741 3.03919ZM7.31352 3.97242L8.12118 2.53743L6.37827 1.55647L5.57061 2.99146L7.31352 3.97242ZM4.86239 5.38758C5.8765 5.39869 6.81608 4.85623 7.31352 3.97242L5.57061 2.99146C5.43133 3.23892 5.16825 3.39081 4.8843 3.3877L4.86239 5.38758ZM3.21633 5.36955L4.86239 5.38758L4.8843 3.3877L3.23824 3.36967L3.21633 5.36955ZM8.00473 11.651C10.0211 11.651 11.6557 10.0164 11.6557 8.00001H9.65573C9.65573 8.91183 8.91655 9.65101 8.00473 9.65101V11.651ZM4.35373 8.00001C4.35373 10.0164 5.98834 11.651 8.00473 11.651V9.65101C7.09291 9.65101 6.35373 8.91183 6.35373 8.00001H4.35373ZM8.00473 4.34902C5.98834 4.34902 4.35373 5.98362 4.35373 8.00001H6.35373C6.35373 7.08819 7.09291 6.34902 8.00473 6.34902V4.34902ZM11.6557 8.00001C11.6557 5.98362 10.0211 4.34902 8.00473 4.34902V6.34902C8.91655 6.34902 9.65573 7.08819 9.65573 8.00001H11.6557ZM4.69916 2.50097C4.73896 2.43027 4.81412 2.38687 4.89525 2.38776L4.87334 4.38764C5.52238 4.39475 6.1237 4.04758 6.44206 3.48194L4.69916 2.50097ZM5.56745 0.958267L4.69916 2.50098L6.44206 3.48194L7.31035 1.93923L5.56745 0.958267ZM6.81726 0.087675C6.26117 0.170518 5.816 0.516665 5.56745 0.958267L7.31035 1.93923C7.28374 1.98652 7.2205 2.04967 7.11196 2.06584L6.81726 0.087675ZM8.00482 0C7.60187 0 7.20527 0.0298709 6.81726 0.087675L7.11196 2.06584C7.40273 2.02253 7.70083 2 8.00482 2V0ZM9.1922 0.0876492C8.80424 0.029862 8.4077 0 8.00482 0V2C8.30876 2 8.60681 2.02252 8.89755 2.06582L9.1922 0.0876492ZM10.442 0.95825C10.1935 0.516633 9.7483 0.170481 9.1922 0.0876492L8.89755 2.06582C8.789 2.04966 8.72576 1.9865 8.69914 1.93921L10.442 0.95825ZM11.3103 2.50097L10.442 0.958247L8.69914 1.93921L9.56744 3.48194L11.3103 2.50097ZM11.1143 2.38776C11.1954 2.38687 11.2705 2.43027 11.3103 2.50098L9.56744 3.48194C9.8858 4.04758 10.4871 4.39475 11.1362 4.38764L11.1143 2.38776ZM12.8835 2.36838L11.1143 2.38776L11.1362 4.38764L12.9055 4.36826L12.8835 2.36838ZM14.2604 3.01279C13.9106 2.57452 13.3894 2.36284 12.8835 2.36838L12.9055 4.36826C12.8512 4.36885 12.7653 4.34572 12.6972 4.26043L14.2604 3.01279ZM15.4521 5.0728C15.1575 4.32391 14.7536 3.63073 14.2604 3.01279L12.6972 4.26043C13.0677 4.7246 13.3704 5.24441 13.5909 5.80487L15.4521 5.0728ZM15.3224 6.58877C15.5802 6.15333 15.6576 5.59548 15.4521 5.0728L13.5909 5.80487C13.5507 5.70273 13.5738 5.61645 13.6014 5.56985L15.3224 6.58877ZM14.4198 8.11321L15.3224 6.58877L13.6014 5.56985L12.6989 7.0943L14.4198 8.11321ZM14.4198 7.88679C14.4612 7.9566 14.4612 8.0434 14.4198 8.11322L12.6989 7.0943C12.3682 7.65283 12.3682 8.34718 12.6989 8.9057L14.4198 7.88679ZM15.3224 9.41123L14.4198 7.88679L12.6989 8.9057L13.6014 10.4301L15.3224 9.41123ZM15.4521 10.9272C15.6576 10.4045 15.5802 9.84667 15.3224 9.41123L13.6014 10.4301C13.5738 10.3836 13.5507 10.2973 13.5909 10.1951L15.4521 10.9272ZM14.2604 12.9872C14.7536 12.3693 15.1575 11.6761 15.4521 10.9272L13.5909 10.1951C13.3704 10.7556 13.0677 11.2754 12.6972 11.7396L14.2604 12.9872ZM12.8835 13.6316C13.3894 13.6372 13.9106 13.4255 14.2604 12.9872L12.6972 11.7396C12.7653 11.6543 12.8512 11.6312 12.9055 11.6317L12.8835 13.6316ZM11.1143 13.6122L12.8835 13.6316L12.9055 11.6317L11.1362 11.6124L11.1143 13.6122ZM11.3103 13.499C11.2705 13.5697 11.1954 13.6131 11.1143 13.6122L11.1362 11.6124C10.4871 11.6053 9.8858 11.9524 9.56744 12.5181L11.3103 13.499ZM10.442 15.0418L11.3103 13.499L9.56744 12.5181L8.69914 14.0608L10.442 15.0418ZM9.1922 15.9124C9.7483 15.8295 10.1935 15.4834 10.442 15.0418L8.69914 14.0608C8.72576 14.0135 8.789 13.9503 8.89755 13.9342L9.1922 15.9124ZM8.00482 16C8.4077 16 8.80424 15.9701 9.1922 15.9124L8.89755 13.9342C8.60681 13.9775 8.30876 14 8.00482 14V16ZM6.81725 15.9123C7.20527 15.9701 7.60187 16 8.00482 16V14C7.70083 14 7.40273 13.9775 7.11196 13.9342L6.81725 15.9123ZM5.56745 15.0417C5.816 15.4833 6.26117 15.8295 6.81725 15.9123L7.11195 13.9342C7.22049 13.9503 7.28374 14.0135 7.31035 14.0608L5.56745 15.0417ZM4.69916 13.499L5.56745 15.0417L7.31035 14.0608L6.44206 12.5181L4.69916 13.499ZM4.89525 13.6122C4.81412 13.6131 4.73896 13.5697 4.69916 13.499L6.44206 12.5181C6.1237 11.9524 5.52238 11.6053 4.87334 11.6124L4.89525 13.6122ZM3.12609 13.6316L4.89525 13.6122L4.87334 11.6124L3.10418 11.6317L3.12609 13.6316ZM1.74926 12.9872C2.09907 13.4255 2.62025 13.6372 3.12609 13.6316L3.10418 11.6317C3.15842 11.6311 3.24432 11.6543 3.3124 11.7396L1.74926 12.9872ZM0.557505 10.927C0.852072 11.676 1.25601 12.3692 1.74926 12.9872L3.3124 11.7396C2.94189 11.2754 2.63918 10.7555 2.41872 10.195L0.557505 10.927ZM0.687186 9.41111C0.42939 9.84654 0.35194 10.4044 0.557505 10.927L2.41872 10.195C2.4589 10.2972 2.43576 10.3834 2.40818 10.43L0.687186 9.41111ZM1.58966 7.88679L0.687187 9.41111L2.40818 10.43L3.31065 8.9057L1.58966 7.88679ZM1.58966 8.11321C1.54833 8.0434 1.54833 7.95661 1.58966 7.88679L3.31065 8.9057C3.64133 8.34718 3.64133 7.65283 3.31065 7.0943L1.58966 8.11321ZM0.687186 6.58889L1.58966 8.11321L3.31065 7.0943L2.40818 5.56998L0.687186 6.58889ZM0.557504 5.07296C0.351939 5.59563 0.429389 6.15346 0.687186 6.58889L2.40818 5.56998C2.43576 5.61657 2.4589 5.70285 2.41872 5.80499L0.557504 5.07296ZM1.74926 3.01279C1.25601 3.63077 0.85207 4.32401 0.557504 5.07296L2.41872 5.80499C2.63917 5.24448 2.94189 4.72463 3.3124 4.26043L1.74926 3.01279ZM3.12608 2.36838C2.62024 2.36284 2.09907 2.57452 1.74926 3.01279L3.3124 4.26043C3.24432 4.34572 3.15842 4.36885 3.10417 4.36826L3.12608 2.36838ZM4.89525 2.38776L3.12608 2.36838L3.10417 4.36826L4.87334 4.38764L4.89525 2.38776ZM8.00473 10.651C9.46884 10.651 10.6557 9.46412 10.6557 8.00001H8.65573C8.65573 8.35955 8.36427 8.65101 8.00473 8.65101V10.651ZM5.35373 8.00001C5.35373 9.46412 6.54063 10.651 8.00473 10.651V8.65101C7.6452 8.65101 7.35373 8.35955 7.35373 8.00001H5.35373ZM8.00473 5.34902C6.54063 5.34902 5.35373 6.53591 5.35373 8.00001H7.35373C7.35373 7.64048 7.6452 7.34902 8.00473 7.34902V5.34902ZM10.6557 8.00001C10.6557 6.53591 9.46884 5.34902 8.00473 5.34902V7.34902C8.36427 7.34902 8.65573 7.64048 8.65573 8.00001H10.6557Z" fill="#767A8A" mask="url(#path-1-inside-1_823_19047)"/>
</svg>
