<!-- Copyright 2000-2022 JetBrains s.r.o. and contributors. Use of this source code is governed by the Apache 2.0 license. -->
<svg width="16" height="16" viewBox="0 0 16 16" fill="none" xmlns="http://www.w3.org/2000/svg">
<path d="M7.91177 0.500123C7.30001 0.502965 6.7158 0.555139 6.20175 0.6461C4.68742 0.913631 4.41248 1.4736 4.41248 2.50627V3.87011H7.99101V4.32473H4.41248H3.06949C2.02947 4.32473 1.1188 4.94984 0.833951 6.13902C0.505384 7.50209 0.490811 8.35267 0.833951 9.77594C1.08833 10.8354 1.69581 11.5902 2.73583 11.5902H3.96621V9.95529C3.96621 8.77413 4.98817 7.73226 6.20175 7.73226H9.77611C10.7711 7.73226 11.5654 6.91303 11.5654 5.9138V2.50627C11.5654 1.53647 10.7472 0.807956 9.77611 0.6461C9.16137 0.543769 8.52353 0.49728 7.91177 0.500123ZM5.97653 1.59704C6.34616 1.59704 6.64802 1.90383 6.64802 2.28105C6.64802 2.65693 6.34616 2.96088 5.97653 2.96088C5.60556 2.96088 5.30503 2.65693 5.30503 2.28105C5.30503 1.90383 5.60556 1.59704 5.97653 1.59704Z" fill="url(#paint0_linear_1150_23815)"/>
<path d="M12.0118 4.32471V5.91377C12.0118 7.14576 10.9673 8.18268 9.77622 8.18268H6.20186C5.22279 8.18268 4.4126 9.02064 4.4126 10.0011V13.4087C4.4126 14.3785 5.25591 14.9489 6.20186 15.2271C7.33463 15.5602 8.42088 15.6204 9.77622 15.2271C10.6771 14.9663 11.5655 14.4413 11.5655 13.4087V12.0448H7.99113V11.5902H11.5655H13.3548C14.3948 11.5902 14.7823 10.8648 15.144 9.77592C15.5176 8.65496 15.5017 7.57698 15.144 6.139C14.887 5.10365 14.3961 4.32471 13.3548 4.32471H12.0118ZM10.0014 12.9541C10.3724 12.9541 10.6729 13.258 10.6729 13.6339C10.6729 14.0111 10.3724 14.3179 10.0014 14.3179C9.63181 14.3179 9.32995 14.0111 9.32995 13.6339C9.32995 13.258 9.63181 12.9541 10.0014 12.9541Z" fill="url(#paint1_linear_1150_23815)"/>
<defs>
<linearGradient id="paint0_linear_1150_23815" x1="0.582031" y1="0.5" x2="8.83373" y2="7.53159" gradientUnits="userSpaceOnUse">
<stop stop-color="#5A9FD4"/>
<stop offset="1" stop-color="#306998"/>
</linearGradient>
<linearGradient id="paint1_linear_1150_23815" x1="9.91545" y1="13.5192" x2="6.95505" y2="9.37083" gradientUnits="userSpaceOnUse">
<stop stop-color="#FFD43B"/>
<stop offset="1" stop-color="#FFE873"/>
</linearGradient>
</defs>
</svg>
