<svg width="16" height="16" viewBox="0 0 16 16" fill="none" xmlns="http://www.w3.org/2000/svg">
<path d="M11 2C11.5523 2 12 2.44772 12 3V9H4V6H6C7.10457 6 8 5.10457 8 4V2H11Z" fill="#EDF3FF"/>
<path d="M7 4C7 4.06893 6.99277 4.13617 6.97949 4.20117C6.88625 4.65686 6.48325 5 6 5H4.41406L7 2.41406V4Z" fill="#EDF3FF"/>
<path fill-rule="evenodd" clip-rule="evenodd" d="M11 1C12.1046 1 13 1.89543 13 3V9H12V3C12 2.44772 11.5523 2 11 2H8V4C8 5.10457 7.10457 6 6 6H4V9H3V5.41406C3.00004 5.1489 3.10547 4.89453 3.29297 4.70703L6.70703 1.29297C6.89453 1.10547 7.1489 1.00004 7.41406 1H11ZM4.41406 5H6C6.55228 5 7 4.55228 7 4V2.41406L4.41406 5Z" fill="#3574F0"/>
<path d="M8.62891 10C8.92687 10.0713 9.18003 10.1986 9.3877 10.3828C9.72657 10.678 9.8988 11.0772 9.9043 11.5801H8.87891C8.87888 11.3452 8.80232 11.1624 8.64941 11.0312C8.4964 10.8946 8.2806 10.8262 8.00195 10.8262C7.73418 10.8262 7.5265 10.889 7.37891 11.0146C7.23131 11.1404 7.15723 11.3183 7.15723 11.5479C7.1573 11.7553 7.21208 11.9326 7.32129 12.0801C7.43609 12.2222 7.60028 12.3237 7.81348 12.3838L8.52637 12.5811C9.00195 12.7013 9.36573 12.9169 9.61719 13.2285C9.86857 13.5346 9.99413 13.9145 9.99414 14.3682C9.99414 14.7071 9.91205 15.0081 9.74805 15.2705C9.58406 15.5273 9.35465 15.7271 9.05957 15.8691C8.94761 15.923 8.82807 15.9665 8.70117 16H7.32227C7.1912 15.9677 7.06721 15.9292 6.95215 15.877C6.65148 15.7403 6.41888 15.5464 6.25488 15.2949C6.09635 15.038 6.01426 14.737 6.00879 14.3926H7.03418C7.03418 14.6386 7.12194 14.8325 7.29688 14.9746C7.47727 15.1112 7.72028 15.1797 8.02637 15.1797C8.32151 15.1797 8.55087 15.1113 8.71484 14.9746C8.88426 14.8379 8.96973 14.6497 8.96973 14.4092C8.96972 14.2071 8.90915 14.0323 8.78906 13.8848C8.67435 13.7318 8.50748 13.6279 8.28906 13.5732L7.59961 13.3838C7.12963 13.2635 6.76566 13.0479 6.50879 12.7363C6.25747 12.4248 6.13184 12.0472 6.13184 11.6045C6.13188 11.2657 6.20831 10.9701 6.36133 10.7188C6.51439 10.4674 6.73104 10.2734 7.00977 10.1367C7.13338 10.0773 7.26696 10.0336 7.40918 10H8.62891Z" fill="#6C707E"/>
<path fill-rule="evenodd" clip-rule="evenodd" d="M3.14258 10.0137C3.5415 10.0137 3.88613 10.0878 4.17578 10.2354C4.47081 10.3829 4.70031 10.5907 4.86426 10.8584C5.02819 11.1207 5.11029 11.4324 5.11035 11.793C5.11035 12.1866 5.00891 12.5343 4.80664 12.835C4.60985 13.1355 4.34179 13.3489 4.00293 13.4746L5.19238 16H4.04395L3.00293 13.6221H2.27344V16H1.24805V10.0137H3.14258ZM2.27344 12.7197H3.14258C3.43215 12.7197 3.6593 12.6409 3.82324 12.4824C3.98718 12.3239 4.06836 12.1049 4.06836 11.8262C4.06835 11.5421 3.98707 11.3206 3.82324 11.1621C3.6593 10.9982 3.43215 10.9161 3.14258 10.916H2.27344V12.7197Z" fill="#6C707E"/>
<path d="M15.001 10.9648H13.4346V16H12.4014V10.9648H10.8359V10.0137H15.001V10.9648Z" fill="#6C707E"/>
</svg>
