<!-- Copyright 2000-2022 JetBrains s.r.o. and contributors. Use of this source code is governed by the Apache 2.0 license. -->
<svg width="16" height="16" viewBox="0 0 16 16" fill="none" xmlns="http://www.w3.org/2000/svg">
<g clip-path="url(#clip0_1304_26102)">
<path fill-rule="evenodd" clip-rule="evenodd" d="M4.44556 14L13.3167 13.3963L13.9999 4.42633L11.2968 9.92041L4.44556 14Z" fill="url(#paint0_linear_1304_26102)"/>
<path fill-rule="evenodd" clip-rule="evenodd" d="M10.4919 10.863L13.3313 13.3902L12.5688 8.11295L10.4919 10.863Z" fill="url(#paint1_linear_1304_26102)"/>
<path fill-rule="evenodd" clip-rule="evenodd" d="M4.47534 13.9884L13.3416 13.3902L7.75561 12.9505L4.47534 13.9884Z" fill="url(#paint2_linear_1304_26102)"/>
<path fill-rule="evenodd" clip-rule="evenodd" d="M2.80786 10.0638L4.48312 13.9897L5.87857 9.4054L2.80786 10.0638Z" fill="url(#paint3_linear_1304_26102)"/>
<path fill-rule="evenodd" clip-rule="evenodd" d="M5.53296 9.28877L10.4915 10.8782L9.20752 5.83478L5.53296 9.28877Z" fill="url(#paint4_linear_1304_26102)"/>
<path fill-rule="evenodd" clip-rule="evenodd" d="M9.26807 6.19678L13.7088 5.90586L10.2353 3.06104L9.26807 6.19678Z" fill="url(#paint5_linear_1304_26102)"/>
<path fill-rule="evenodd" clip-rule="evenodd" d="M8.75244 2.03156L12.0842 2.04674L10.0413 3.17884L8.75244 2.03156Z" fill="url(#paint6_linear_1304_26102)"/>
<path fill-rule="evenodd" clip-rule="evenodd" d="M2.16353 8.17188L2 11.6016L2.8558 10.0364L2.16353 8.17188Z" fill="url(#paint7_linear_1304_26102)"/>
<path fill-rule="evenodd" clip-rule="evenodd" d="M2.11743 8.11295L2.81394 10.0953L5.84226 9.4145L9.29454 6.19555L10.2697 3.08957L8.7343 2.00241L6.12389 2.98206C5.3014 3.74915 3.70548 5.26691 3.64794 5.29546C3.59041 5.324 2.5953 7.21164 2.11743 8.11295Z" fill="white"/>
<path fill-rule="evenodd" clip-rule="evenodd" d="M4.56308 4.55387C6.34554 2.78163 8.64343 1.73456 9.52527 2.62675C10.4071 3.51895 9.47198 5.68718 7.68951 7.45882C5.90704 9.23046 3.63762 10.3352 2.75639 9.44303C1.87515 8.55083 2.78061 6.32551 4.56308 4.55387Z" fill="url(#paint8_linear_1304_26102)"/>
<path fill-rule="evenodd" clip-rule="evenodd" d="M4.48315 13.9878L5.8677 9.38898L10.4659 10.8703C8.80274 12.4336 6.95426 13.7552 4.48315 13.9878Z" fill="url(#paint9_linear_1304_26102)"/>
<path fill-rule="evenodd" clip-rule="evenodd" d="M9.30176 6.18402L10.4822 10.8728C11.871 9.40843 13.1174 7.83601 13.7279 5.88702L9.30176 6.18402Z" fill="url(#paint10_linear_1304_26102)"/>
<path fill-rule="evenodd" clip-rule="evenodd" d="M13.716 5.91069C14.1884 4.48099 14.2975 2.42997 12.0698 2.04916L10.2419 3.06162L13.716 5.91069Z" fill="url(#paint11_linear_1304_26102)"/>
<path fill-rule="evenodd" clip-rule="evenodd" d="M2 11.5809C2.06541 13.9405 3.76308 13.9757 4.48625 13.9963L2.81583 10.0844L2 11.5809Z" fill="#AA3E35"/>
<path fill-rule="evenodd" clip-rule="evenodd" d="M9.30859 6.1913C10.3758 6.84906 12.5265 8.17005 12.5701 8.19556C12.6379 8.23382 13.4974 6.74217 13.6924 5.89917L9.30859 6.1913Z" fill="url(#paint12_radial_1304_26102)"/>
<path fill-rule="evenodd" clip-rule="evenodd" d="M5.86597 9.38898L7.71687 12.9723C8.81131 12.3771 9.66832 11.652 10.4533 10.8752L5.86597 9.38898Z" fill="url(#paint13_radial_1304_26102)"/>
<path fill-rule="evenodd" clip-rule="evenodd" d="M2.80669 10.0893L2.54443 13.2208C3.03926 13.8986 3.72003 13.9575 4.4341 13.9046C3.91929 12.6152 2.88724 10.0346 2.80669 10.0893Z" fill="url(#paint14_linear_1304_26102)"/>
<path fill-rule="evenodd" clip-rule="evenodd" d="M10.231 3.06953L13.9079 3.58699C13.7117 2.7531 13.1091 2.21499 12.0819 2.04675L10.231 3.06953Z" fill="url(#paint15_linear_1304_26102)"/>
</g>
<defs>
<linearGradient id="paint0_linear_1304_26102" x1="12.5427" y1="15.0908" x2="10.0003" y2="10.6146" gradientUnits="userSpaceOnUse">
<stop stop-color="#F68F71"/>
<stop offset="0.41" stop-color="#DC5242"/>
<stop offset="0.99" stop-color="#A72C32"/>
<stop offset="1" stop-color="#A72C32"/>
</linearGradient>
<linearGradient id="paint1_linear_1304_26102" x1="13.8037" y1="11.3264" x2="10.536" y2="9.13927" gradientUnits="userSpaceOnUse">
<stop stop-color="#9B3F34"/>
<stop offset="0.99" stop-color="#A23E36"/>
<stop offset="1" stop-color="#A23E36"/>
</linearGradient>
<linearGradient id="paint2_linear_1304_26102" x1="1350.29" y1="238.997" x2="1329.84" y2="121.75" gradientUnits="userSpaceOnUse">
<stop stop-color="#9B3F34"/>
<stop offset="0.99" stop-color="#A23E36"/>
<stop offset="1" stop-color="#A23E36"/>
</linearGradient>
<linearGradient id="paint3_linear_1304_26102" x1="4.34382" y1="9.73701" x2="4.85231" y2="13.0327" gradientUnits="userSpaceOnUse">
<stop stop-color="white"/>
<stop offset="0.23" stop-color="#E28B6F"/>
<stop offset="0.46" stop-color="#DA6144"/>
<stop offset="0.99" stop-color="#A60003"/>
<stop offset="1" stop-color="#A60003"/>
</linearGradient>
<linearGradient id="paint4_linear_1304_26102" x1="7.82236" y1="6.65895" x2="8.00995" y2="10.023" gradientUnits="userSpaceOnUse">
<stop stop-color="white"/>
<stop offset="0.23" stop-color="#E08A6D"/>
<stop offset="0.56" stop-color="#C14435"/>
<stop offset="0.99" stop-color="#B13430"/>
<stop offset="1" stop-color="#B13430"/>
</linearGradient>
<linearGradient id="paint5_linear_1304_26102" x1="10.9094" y1="3.54995" x2="11.4708" y2="5.96044" gradientUnits="userSpaceOnUse">
<stop stop-color="white"/>
<stop offset="0.18" stop-color="#DF8063"/>
<stop offset="0.4" stop-color="#C94D37"/>
<stop offset="0.99" stop-color="#B13430"/>
<stop offset="1" stop-color="#B13430"/>
</linearGradient>
<linearGradient id="paint6_linear_1304_26102" x1="9.20608" y1="2.70085" x2="11.6126" y2="1.50062" gradientUnits="userSpaceOnUse">
<stop stop-color="white"/>
<stop offset="0.54" stop-color="#C94838"/>
<stop offset="0.99" stop-color="#C12D2F"/>
<stop offset="1" stop-color="#C12D2F"/>
</linearGradient>
<linearGradient id="paint7_linear_1304_26102" x1="2.23621" y1="8.89705" x2="2.43535" y2="10.8836" gradientUnits="userSpaceOnUse">
<stop stop-color="white"/>
<stop offset="0.31" stop-color="#DA6548"/>
<stop offset="0.99" stop-color="#C14433"/>
<stop offset="1" stop-color="#C14433"/>
</linearGradient>
<linearGradient id="paint8_linear_1304_26102" x1="0.875802" y1="11.4206" x2="10.2035" y2="1.85522" gradientUnits="userSpaceOnUse">
<stop stop-color="#BD0012"/>
<stop offset="0.07" stop-color="white"/>
<stop offset="0.17" stop-color="white"/>
<stop offset="0.27" stop-color="#C95841"/>
<stop offset="0.33" stop-color="#983734"/>
<stop offset="0.46" stop-color="#AE4231"/>
<stop offset="0.72" stop-color="#B93E2F"/>
<stop offset="0.99" stop-color="#DE4E2B"/>
<stop offset="1" stop-color="#DE4E2B"/>
</linearGradient>
<linearGradient id="paint9_linear_1304_26102" x1="8.00085" y1="12.3875" x2="5.19816" y2="11.6981" gradientUnits="userSpaceOnUse">
<stop stop-color="#9F3633"/>
<stop offset="0.54" stop-color="#A73532"/>
<stop offset="0.99" stop-color="#B13439"/>
<stop offset="1" stop-color="#B13439"/>
</linearGradient>
<linearGradient id="paint10_linear_1304_26102" x1="12.8128" y1="9.01548" x2="10.3174" y2="6.78551" gradientUnits="userSpaceOnUse">
<stop stop-color="#923C36"/>
<stop offset="0.99" stop-color="#AA3531"/>
<stop offset="1" stop-color="#AA3531"/>
</linearGradient>
<linearGradient id="paint11_linear_1304_26102" x1="13.7269" y1="4.9116" x2="12.4835" y2="3.58556" gradientUnits="userSpaceOnUse">
<stop stop-color="#8D3E36"/>
<stop offset="0.99" stop-color="#AA3E37"/>
<stop offset="1" stop-color="#AA3E37"/>
</linearGradient>
<radialGradient id="paint12_radial_1304_26102" cx="0" cy="0" r="1" gradientTransform="translate(10.7113 6.82173) scale(3.05012 3.05861)">
<stop stop-color="#B13430"/>
<stop offset="0.99" stop-color="#923934"/>
<stop offset="1" stop-color="#923934"/>
</radialGradient>
<radialGradient id="paint13_radial_1304_26102" cx="0" cy="0" r="1"  gradientTransform="translate(6.48738 10.8521) scale(4.05491 4.0662)">
<stop stop-color="#AE3531"/>
<stop offset="0.99" stop-color="#953A36"/>
<stop offset="1" stop-color="#953A36"/>
</radialGradient>
<linearGradient id="paint14_linear_1304_26102" x1="3.61525" y1="13.9854" x2="2.59982" y2="10.5493" gradientUnits="userSpaceOnUse">
<stop stop-color="#994939"/>
<stop offset="0.43" stop-color="#AA3A36"/>
<stop offset="0.99" stop-color="#B83936"/>
<stop offset="1" stop-color="#B83936"/>
</linearGradient>
<linearGradient id="paint15_linear_1304_26102" x1="11.366" y1="2.59519" x2="13.6332" y2="3.59326" gradientUnits="userSpaceOnUse">
<stop stop-color="#B9392F"/>
<stop offset="0.44" stop-color="#A23A36"/>
<stop offset="0.99" stop-color="#8D463A"/>
<stop offset="1" stop-color="#8D463A"/>
</linearGradient>
<clipPath id="clip0_1304_26102">
<rect width="12" height="12" fill="white" transform="translate(2 2)"/>
</clipPath>
</defs>
</svg>
