<!-- Copyright 2000-2021 JetBrains s.r.o. and contributors. Use of this source code is governed by the Apache 2.0 license. -->
<svg width="16" height="16" viewBox="0 0 16 16" fill="none" xmlns="http://www.w3.org/2000/svg">
<path d="M12 2L15 6L8 15L1 6L4 2H7H9H12Z" fill="#402929"/>
<path fill-rule="evenodd" clip-rule="evenodd" d="M3.6 1.7C3.69443 1.5741 3.84262 1.5 4 1.5H12C12.1574 1.5 12.3056 1.5741 12.4 1.7L15.4 5.7C15.5353 5.88038 15.5331 6.12899 15.3947 6.30697L8.39468 15.307C8.29995 15.4288 8.1543 15.5 8 15.5C7.8457 15.5 7.70005 15.4288 7.60532 15.307L0.605324 6.30697C0.466895 6.12899 0.464715 5.88038 0.6 5.7L3.6 1.7ZM4.25 2.5L2 5.5H4.69098L6.19098 2.5H4.25ZM7.30902 2.5L5.80902 5.5H10.191L8.69098 2.5H7.30902ZM9.80902 2.5L11.309 5.5H14L11.75 2.5H9.80902ZM13.9777 6.5H11.3604L9.3974 12.3889L13.9777 6.5ZM8 13.4189L10.3063 6.5H5.69371L8 13.4189ZM4.63962 6.5L6.6026 12.3889L2.02232 6.5H4.63962Z" fill="#DB5C5C"/>
</svg>
