<!-- Copyright 2000-2022 JetBrains s.r.o. and contributors. Use of this source code is governed by the Apache 2.0 license. -->
<svg width="16" height="16" viewBox="0 0 16 16" fill="none" xmlns="http://www.w3.org/2000/svg">
<path d="M1.08287 10.0233L0.259033 10.7694C0.259033 10.7694 0.663179 11.2746 1.19945 11.5777C1.73572 11.8808 2.03143 11.858 2.63354 11.85C3.2124 11.85 3.80308 11.7409 4.27717 11.3212C4.75127 10.9016 4.84086 10.7865 4.83881 10.2573C4.83782 10.009 4.77197 9.46063 4.47147 9.10622C4.13162 8.7055 3.55245 8.51145 3.55245 8.51145C3.55245 8.51145 1.77856 8.06657 1.96111 7.45078C2.03771 7.19238 2.4472 7.09476 2.84973 7.16583C3.35908 7.25561 3.87402 7.56195 3.87402 7.56195L4.59384 6.8575C4.59384 6.8575 4.26592 6.47213 3.75645 6.2228C3.37941 6.03833 2.85937 5.97043 2.52641 5.96925C1.74349 5.96633 0.76465 6.66543 0.647635 7.38861C0.562142 7.9171 0.733624 8.36328 1.12173 8.70208C1.61137 9.12954 1.95974 9.18525 1.95974 9.18525C1.95974 9.18525 3.52179 9.58747 3.52179 10.0735C3.52179 10.5595 3.14246 10.7383 2.53624 10.7461C1.93002 10.7538 1.08287 10.0233 1.08287 10.0233Z" fill="#380D09"/>
<path d="M12.3423 6.23217L12.3547 7.36371H13.0014L13.0076 10.715C13.0076 10.715 13.1196 11.1005 13.4117 11.3865C13.7888 11.7557 14.1827 11.85 14.1827 11.85H15.451L15.4573 10.6964L14.7734 10.6901C14.7734 10.6901 14.6241 10.6964 14.4563 10.5347C14.2821 10.3668 14.2884 10.1492 14.2884 10.1492L14.3008 7.3575H15.5444L15.5506 6.22589L14.3071 6.21967L14.2946 4.03107H13.0014L13.0138 6.23211H12.3423V6.23217Z" fill="#380D09"/>
<path d="M9.74095 6.50257C8.96194 6.33053 8.171 6.41708 7.66581 6.71242L8.32644 4.03107L7.00905 3.7085L5.13599 11.2591L6.44169 11.636L6.62175 10.8964C7.00519 11.6217 7.4421 11.9707 8.2798 12.1606C9.83421 12.513 11.2215 11.4293 11.5959 9.75644C11.9171 8.32123 10.9378 6.76682 9.74095 6.50257ZM10.1195 10.6846L8.2448 11.2008L6.84645 9.78467L7.3231 7.85242L9.19802 7.33623L10.5962 8.75236L10.1195 10.6846Z" fill="#380D09"/>
</svg>
