<!-- Copyright 2000-2022 JetBrains s.r.o. and contributors. Use of this source code is governed by the Apache 2.0 license. -->
<svg width="16" height="16" viewBox="0 0 16 16" fill="none" xmlns="http://www.w3.org/2000/svg">
<path fill-rule="evenodd" clip-rule="evenodd" d="M10.9289 1.41023C8.70387 2.05311 5.174 2.41593 3.27222 2.41593V6.04764C3.27282 6.06013 3.27755 6.07207 3.28565 6.08159C4.58345 6.08159 8.59001 5.65724 11.0074 4.99243C11.429 4.88513 11.8423 4.74781 12.2443 4.58152C12.54 4.44856 12.7309 4.30852 12.7309 4.16283V0.5C12.7281 0.845136 11.8292 1.15067 10.9289 1.41023Z" fill="#DE3423"/>
<path fill-rule="evenodd" clip-rule="evenodd" d="M10.9289 6.11979C9.59713 6.50383 7.80001 6.78955 6.16273 6.95646C5.06367 7.06892 4.03675 7.12762 3.27222 7.12762V10.7565C3.27282 10.769 3.27755 10.7809 3.28565 10.7904C4.58345 10.7904 8.59001 10.3661 11.0074 9.702C11.4289 9.59438 11.8422 9.45706 12.2443 9.29109C12.54 9.15742 12.7309 9.01809 12.7309 8.8724V5.20956C12.7281 5.55399 11.8292 5.85952 10.9289 6.11979Z" fill="#DE3423"/>
<path fill-rule="evenodd" clip-rule="evenodd" d="M10.929 10.8322C9.59727 11.2162 7.80015 11.5012 6.16288 11.6688C5.0624 11.7813 4.03407 11.84 3.26953 11.84V15.5C4.55389 15.5 8.58095 15.0792 11.0047 14.4115C11.8979 14.1654 12.7283 13.8853 12.7283 13.5812V9.9184C12.7283 10.2664 11.8293 10.5691 10.929 10.8322Z" fill="#DE3423"/>
</svg>
