<!-- Copyright 2000-2023 JetBrains s.r.o. and contributors. Use of this source code is governed by the Apache 2.0 license. -->
<svg width="16" height="16" viewBox="0 0 16 16" fill="none" xmlns="http://www.w3.org/2000/svg">
<path d="M8.02746 3H2.5C2.22386 3 2 3.22386 2 3.5C2 3.77614 2.22386 4 2.5 4H8.02746C8.00932 3.83583 8 3.669 8 3.5C8 3.331 8.00932 3.16417 8.02746 3Z" fill="#CED0D6"/>
<path d="M8.75777 6H2.5C2.22386 6 2 6.22386 2 6.5C2 6.77614 2.22386 7 2.5 7H9.5C9.55047 7 9.59918 6.99252 9.64511 6.97862C9.30367 6.69807 9.00427 6.36824 8.75777 6Z" fill="#CED0D6"/>
<path d="M2.5 12C2.22386 12 2 12.2239 2 12.5C2 12.7761 2.22386 13 2.5 13H9.5C9.77614 13 10 12.7761 10 12.5C10 12.2239 9.77614 12 9.5 12H2.5Z" fill="#CED0D6"/>
<path d="M2.5 9C2.22386 9 2 9.22386 2 9.5C2 9.77614 2.22386 10 2.5 10H13.5C13.7761 10 14 9.77614 14 9.5C14 9.22386 13.7761 9 13.5 9H2.5Z" fill="#CED0D6"/>
<path fill-rule="evenodd" clip-rule="evenodd" d="M12.5 7C14.433 7 16 5.433 16 3.5C16 1.567 14.433 0 12.5 0C10.567 0 9 1.567 9 3.5C9 5.433 10.567 7 12.5 7ZM13 1.5C13 1.22386 12.7761 1 12.5 1C12.2239 1 12 1.22386 12 1.5V3.5C12 3.63261 12.0527 3.75979 12.1464 3.85355L13.5607 5.26777C13.7559 5.46303 14.0725 5.46303 14.2678 5.26777C14.463 5.0725 14.463 4.75592 14.2678 4.56066L13 3.29289V1.5Z" fill="#548AF7"/>
</svg>
