<!-- Copyright 2000-2022 JetBrains s.r.o. and contributors. Use of this source code is governed by the Apache 2.0 license. -->
<svg width="16" height="16" viewBox="0 0 16 16" fill="none" xmlns="http://www.w3.org/2000/svg">
<path fill-rule="evenodd" clip-rule="evenodd" d="M8.02746 3H2.5C2.22386 3 2 3.22386 2 3.5C2 3.77614 2.22386 4 2.5 4H8.02746C8.00932 3.83583 8 3.669 8 3.5C8 3.331 8.00932 3.16417 8.02746 3ZM8.75777 6H2.5C2.22386 6 2 6.22386 2 6.5C2 6.77614 2.22386 7 2.5 7H9.5C9.55047 7 9.59918 6.99252 9.64511 6.97862C9.30367 6.69807 9.00427 6.36824 8.75777 6ZM2 12.5C2 12.2239 2.22386 12 2.5 12H9.5C9.77614 12 10 12.2239 10 12.5C10 12.7761 9.77614 13 9.5 13H2.5C2.22386 13 2 12.7761 2 12.5ZM2.5 9C2.22386 9 2 9.22386 2 9.5C2 9.77614 2.22386 10 2.5 10H13.5C13.7761 10 14 9.77614 14 9.5C14 9.22386 13.7761 9 13.5 9H2.5Z" fill="#6C707E"/>
<path fill-rule="evenodd" clip-rule="evenodd" d="M12.5 7C14.433 7 16 5.433 16 3.5C16 1.567 14.433 0 12.5 0C10.567 0 9 1.567 9 3.5C9 5.433 10.567 7 12.5 7ZM12 1.5C12 1.22386 12.2239 1 12.5 1C12.7761 1 13 1.22386 13 1.5V3.29312L14.2675 4.56066C14.4628 4.75592 14.4628 5.07251 14.2675 5.26777C14.0723 5.46303 13.7557 5.46303 13.5604 5.26777L12.1536 3.86089L12.1444 3.85146C12.0551 3.76115 12 3.63701 12 3.5V1.5Z" fill="#3574F0"/>
</svg>
