<!-- Copyright 2000-2022 JetBrains s.r.o. and contributors. Use of this source code is governed by the Apache 2.0 license. -->
<svg width="17" height="17" viewBox="0 0 17 17" fill="none" xmlns="http://www.w3.org/2000/svg">
<mask id="path-1-outside-1_2289_31555" maskUnits="userSpaceOnUse" x="8" y="0" width="9" height="9" fill="black">
<rect fill="white" x="8" width="9" height="9"/>
<path fill-rule="evenodd" clip-rule="evenodd" d="M12.5 8C14.433 8 16 6.433 16 4.5C16 2.567 14.433 1 12.5 1C10.567 1 9 2.567 9 4.5C9 6.433 10.567 8 12.5 8ZM12 2.5C12 2.22386 12.2239 2 12.5 2C12.7761 2 13 2.22386 13 2.5V4.29312L14.2675 5.56066C14.4628 5.75592 14.4628 6.07251 14.2675 6.26777C14.0723 6.46303 13.7557 6.46303 13.5604 6.26777L12.1536 4.86089L12.1444 4.85146C12.0551 4.76115 12 4.63701 12 4.5V2.5Z"/>
</mask>
<path fill-rule="evenodd" clip-rule="evenodd" d="M12.5 8C14.433 8 16 6.433 16 4.5C16 2.567 14.433 1 12.5 1C10.567 1 9 2.567 9 4.5C9 6.433 10.567 8 12.5 8ZM12 2.5C12 2.22386 12.2239 2 12.5 2C12.7761 2 13 2.22386 13 2.5V4.29312L14.2675 5.56066C14.4628 5.75592 14.4628 6.07251 14.2675 6.26777C14.0723 6.46303 13.7557 6.46303 13.5604 6.26777L12.1536 4.86089L12.1444 4.85146C12.0551 4.76115 12 4.63701 12 4.5V2.5Z" fill="#3574F0"/>
<path d="M13 4.29312H12V4.70733L12.2929 5.00023L13 4.29312ZM12.1536 4.86089L11.4373 5.55887L11.4464 5.568L12.1536 4.86089ZM12.1444 4.85146L12.8606 4.15352L12.8556 4.14852L12.1444 4.85146ZM15 4.5C15 5.88071 13.8807 7 12.5 7V9C14.9853 9 17 6.98528 17 4.5H15ZM12.5 2C13.8807 2 15 3.11929 15 4.5H17C17 2.01472 14.9853 0 12.5 0V2ZM10 4.5C10 3.11929 11.1193 2 12.5 2V0C10.0147 0 8 2.01472 8 4.5H10ZM12.5 7C11.1193 7 10 5.88071 10 4.5H8C8 6.98528 10.0147 9 12.5 9V7ZM12.5 1C11.6716 1 11 1.67157 11 2.5H13C13 2.77614 12.7761 3 12.5 3V1ZM14 2.5C14 1.67157 13.3284 1 12.5 1V3C12.2239 3 12 2.77614 12 2.5H14ZM14 4.29312V2.5H12V4.29312H14ZM14.9746 4.85355L13.7071 3.58601L12.2929 5.00023L13.5604 6.26777L14.9746 4.85355ZM14.9746 6.97488C15.5604 6.38909 15.5604 5.43934 14.9746 4.85355L13.5604 6.26777C13.3652 6.07251 13.3652 5.75593 13.5604 5.56066L14.9746 6.97488ZM12.8533 6.97488C13.4391 7.56066 14.3889 7.56066 14.9746 6.97488L13.5604 5.56066C13.7557 5.3654 14.0723 5.3654 14.2675 5.56066L12.8533 6.97488ZM11.4464 5.568L12.8533 6.97488L14.2675 5.56066L12.8607 4.15378L11.4464 5.568ZM11.4282 5.54938L11.4374 5.55881L12.8697 4.16297L12.8605 4.15353L11.4282 5.54938ZM11 4.5C11 4.91071 11.1664 5.28452 11.4331 5.5544L12.8556 4.14852C12.9438 4.23778 13 4.36331 13 4.5H11ZM11 2.5V4.5H13V2.5H11Z" fill="white" mask="url(#path-1-outside-1_2289_31555)"/>
</svg>
