<!-- Copyright 2000-2022 JetBrains s.r.o. and contributors. Use of this source code is governed by the Apache 2.0 license. -->
<svg width="16" height="16" viewBox="0 0 16 16" fill="none" xmlns="http://www.w3.org/2000/svg">
<path d="M6.21669 13.82C5.50469 13.82 4.94469 13.636 4.53669 13.268C4.12869 12.9 3.95669 12.4 4.02069 11.768L4.20069 9.86C4.23269 9.492 4.17269 9.22 4.02069 9.044C3.86869 8.86 3.57669 8.768 3.14469 8.768H1.66869V7.592H3.14469C3.57669 7.592 3.86869 7.504 4.02069 7.328C4.17269 7.152 4.23269 6.876 4.20069 6.5L4.02069 4.58C3.95669 3.948 4.12869 3.452 4.53669 3.092C4.95269 2.724 5.51269 2.54 6.21669 2.54H6.90069V3.716H6.32469C5.98869 3.716 5.72869 3.796 5.54469 3.956C5.36069 4.116 5.28469 4.348 5.31669 4.652L5.49669 6.572C5.53669 7.004 5.44069 7.356 5.20869 7.628C4.97669 7.9 4.65269 8.072 4.23669 8.144C4.65269 8.216 4.97669 8.404 5.20869 8.708C5.44069 9.004 5.53669 9.364 5.49669 9.788L5.31669 11.708C5.28469 12.012 5.36069 12.244 5.54469 12.404C5.72869 12.564 5.98869 12.644 6.32469 12.644H6.90069V13.82H6.21669ZM9.104 13.82V12.644H9.68C10.016 12.644 10.276 12.564 10.46 12.404C10.644 12.244 10.724 12.012 10.7 11.708L10.52 9.788C10.472 9.364 10.564 9.004 10.796 8.708C11.028 8.404 11.352 8.212 11.768 8.132C11.352 8.068 11.028 7.9 10.796 7.628C10.564 7.356 10.472 7.004 10.52 6.572L10.7 4.652C10.724 4.348 10.644 4.116 10.46 3.956C10.276 3.796 10.016 3.716 9.68 3.716H9.104V2.54H9.788C10.492 2.54 11.048 2.724 11.456 3.092C11.872 3.452 12.052 3.948 11.996 4.58L11.816 6.5C11.776 6.876 11.832 7.152 11.984 7.328C12.136 7.504 12.432 7.592 12.872 7.592H14.336V8.768H12.872C12.432 8.768 12.136 8.86 11.984 9.044C11.832 9.22 11.776 9.492 11.816 9.86L11.996 11.768C12.052 12.4 11.876 12.9 11.468 13.268C11.06 13.636 10.5 13.82 9.788 13.82H9.104Z" fill="#955AE0"/>
</svg>
