<!-- Copyright 2000-2021 JetBrains s.r.o. and contributors. Use of this source code is governed by the Apache 2.0 license. -->
<svg width="16" height="16" viewBox="0 0 16 16" fill="none" xmlns="http://www.w3.org/2000/svg">
<path d="M8 1.5C4.96243 1.5 2.5 2.44143 2.5 3.60275V12.4343C2.5 13.5956 4.96243 14.537 8 14.537C11.0376 14.537 13.5 13.5956 13.5 12.4343V3.60275C13.5 2.44143 11.0376 1.5 8 1.5Z" fill="#2F2936"/>
<ellipse cx="8" cy="3.60275" rx="5.5" ry="2.10275" stroke="#955AE0"/>
<path d="M13.5 12.4343C13.5 13.5956 11.0376 14.5371 8 14.5371C4.96243 14.5371 2.5 13.5956 2.5 12.4343" stroke="#955AE0"/>
<path d="M13.5 9.49048C13.5 10.6518 11.0376 11.5932 8 11.5932C4.96243 11.5932 2.5 10.6518 2.5 9.49048" stroke="#955AE0"/>
<path d="M13.5 6.54663C13.5 7.70795 11.0376 8.64938 8 8.64938C4.96243 8.64938 2.5 7.70795 2.5 6.54663" stroke="#955AE0"/>
<path d="M13.5 3.39258V12.5185" stroke="#955AE0"/>
<path d="M2.5 3.39258V12.5185" stroke="#955AE0"/>
</svg>
