<svg width="16" height="16" viewBox="0 0 16 16" fill="none" xmlns="http://www.w3.org/2000/svg">
<path fill-rule="evenodd" clip-rule="evenodd" d="M11.5601 13.1006C9.91094 14.0877 7.64345 14.1892 5.36218 13.176C3.51508 12.3616 1.98247 10.9362 1 9.30748C1.47159 9.71465 2.02176 10.0405 2.61123 10.3254C4.96713 11.4697 7.32253 11.3913 8.98013 10.3283C8.97907 10.3272 8.97836 10.3265 8.97765 10.3254C6.61971 8.45212 4.61547 6.00871 3.12219 4.01349C2.80766 3.68767 2.57187 3.28043 2.33608 2.91394C4.14381 4.62428 7.01275 6.78245 8.0343 7.39358C5.87317 5.03146 3.94738 2.09959 4.02583 2.18088C7.4449 5.76452 10.6283 7.80075 10.6283 7.80075C10.7336 7.86227 10.8149 7.91353 10.8802 7.9593C10.9491 7.77768 11.0096 7.58911 11.0604 7.39358C11.6106 5.3167 10.982 2.95458 9.60638 1C12.7894 2.99541 14.676 6.74181 13.8898 9.87763C13.8693 9.96221 13.847 10.0457 13.823 10.1277C13.8322 10.1391 13.8414 10.1508 13.8505 10.1629C15.4223 12.1991 14.9901 14.3573 14.7937 13.9501C13.941 12.2211 12.3626 12.7498 11.5601 13.1006L11.5601 13.1006Z" fill="#DB3B4B"/>
</svg>
