<!-- Copyright 2000-2023 JetBrains s.r.o. and contributors. Use of this source code is governed by the Apache 2.0 license. -->
<svg width="16" height="16" viewBox="0 0 16 16" fill="none" xmlns="http://www.w3.org/2000/svg">
<g clip-path="url(#clip0_839_16895)">
<path d="M12.8281 2H3.17188C2.52467 2 2 2.52467 2 3.17188V12.8281C2 13.4753 2.52467 14 3.17188 14H12.8281C13.4753 14 14 13.4753 14 12.8281V3.17188C14 2.52467 13.4753 2 12.8281 2Z" fill="#3178C6"/>
<path fill-rule="evenodd" clip-rule="evenodd" d="M9.42969 11.5391V12.7109C9.61953 12.8094 9.85156 12.882 10.1094 12.9313C10.3672 12.9805 10.6484 13.0039 10.9297 13.0039C11.2109 13.0039 11.4688 12.9781 11.7266 12.9242C11.9844 12.8703 12.1953 12.7813 12.3828 12.6664C12.5727 12.5422 12.7344 12.3852 12.8281 12.1742C12.9219 11.9633 12.9945 11.7289 12.9945 11.4242C12.9945 11.2109 12.9617 11.0258 12.8984 10.8617C12.8352 10.6977 12.7438 10.557 12.6172 10.4398C12.4977 10.3156 12.3594 10.2055 12.1953 10.1117C12.0312 10.018 11.8438 9.91953 11.6328 9.83047C11.4781 9.76719 11.3516 9.70625 11.2109 9.64531C11.0891 9.58438 10.9836 9.52344 10.9062 9.4625C10.8195 9.39922 10.7539 9.3336 10.707 9.26563C10.6602 9.19531 10.6367 9.11797 10.6367 9.03125C10.6367 8.95156 10.6576 8.87891 10.7 8.81328C10.7424 8.74766 10.8008 8.69375 10.8758 8.64688C10.9508 8.6 11.0445 8.56485 11.157 8.53906C11.2672 8.51328 11.3891 8.50156 11.532 8.50156C11.6305 8.50156 11.7336 8.50883 11.8367 8.5236C11.9445 8.53836 12.0547 8.5611 12.1648 8.59156C12.275 8.62203 12.3828 8.65953 12.493 8.70641C12.5961 8.75328 12.6922 8.80719 12.7742 8.86813V7.76656C12.5961 7.6986 12.3992 7.64703 12.1883 7.61422C11.9773 7.58141 11.743 7.565 11.4617 7.565C11.1805 7.565 10.9227 7.59547 10.6648 7.65407C10.407 7.71266 10.1961 7.80641 10.0086 7.93531C9.81875 8.06188 9.68047 8.21656 9.56328 8.4275C9.45313 8.62438 9.39922 8.84938 9.39922 9.13063C9.39922 9.48219 9.5 9.78688 9.70391 10.0213C9.90547 10.2791 10.2195 10.4666 10.618 10.6541C10.7797 10.7197 10.9227 10.7853 11.0633 10.8486C11.2039 10.9119 11.3211 10.9775 11.4148 11.0455C11.5156 11.1134 11.5953 11.1884 11.6492 11.2681C11.7078 11.3478 11.7383 11.4416 11.7383 11.5494C11.7383 11.6244 11.72 11.6947 11.6844 11.7603C11.6488 11.8259 11.593 11.8822 11.518 11.9291C11.443 11.9759 11.3516 12.0134 11.2367 12.0416C11.1266 12.0673 11.0023 12.0814 10.8383 12.0814C10.5805 12.0814 10.3227 12.0369 10.0883 11.9478C9.83047 11.8588 9.59609 11.7252 9.38516 11.5494L9.42969 11.5391ZM7.46094 8.65625H8.96094V7.69531H4.76562V8.65625H6.26562V12.9453H7.46094V8.65625Z" fill="white"/>
</g>
<defs>
<clipPath id="clip0_839_16895">
<rect width="12" height="12" fill="white" transform="translate(2 2)"/>
</clipPath>
</defs>
</svg>
