<!-- Copyright 2000-2021 JetBrains s.r.o. and contributors. Use of this source code is governed by the Apache 2.0 license. -->
<svg width="16" height="16" viewBox="0 0 16 16" fill="none" xmlns="http://www.w3.org/2000/svg">
<path d="M12.8281 2H3.17188C2.52467 2 2 2.52467 2 3.17188V12.8281C2 13.4753 2.52467 14 3.17188 14H12.8281C13.4753 14 14 13.4753 14 12.8281V3.17188C14 2.52467 13.4753 2 12.8281 2Z" fill="#3178C6"/>
<path fill-rule="evenodd" clip-rule="evenodd" d="M9.42969 11.539V12.7109C9.61953 12.8093 9.85156 12.882 10.1094 12.9312C10.3672 12.9804 10.6484 13.0038 10.9297 13.0038C11.2109 13.0038 11.4688 12.9781 11.7266 12.9242C11.9844 12.8703 12.1953 12.7812 12.3828 12.6663C12.5727 12.5421 12.7344 12.3851 12.8281 12.1742C12.9219 11.9632 12.9945 11.7288 12.9945 11.4242C12.9945 11.2109 12.9617 11.0257 12.8984 10.8617C12.8352 10.6976 12.7438 10.557 12.6172 10.4398C12.4977 10.3156 12.3594 10.2054 12.1953 10.1117C12.0312 10.0179 11.8438 9.91947 11.6328 9.83041C11.4781 9.76713 11.3516 9.70619 11.2109 9.64525C11.0891 9.58432 10.9836 9.52338 10.9062 9.46244C10.8195 9.39916 10.7539 9.33353 10.707 9.26557C10.6602 9.19525 10.6367 9.11791 10.6367 9.03119C10.6367 8.9515 10.6576 8.87885 10.7 8.81322C10.7424 8.7476 10.8008 8.69369 10.8758 8.64682C10.9508 8.59994 11.0445 8.56479 11.157 8.539C11.2672 8.51322 11.3891 8.5015 11.532 8.5015C11.6305 8.5015 11.7336 8.50877 11.8367 8.52353C11.9445 8.5383 12.0547 8.56103 12.1648 8.5915C12.275 8.62197 12.3828 8.65947 12.493 8.70635C12.5961 8.75322 12.6922 8.80713 12.7742 8.86807V7.7665C12.5961 7.69853 12.3992 7.64697 12.1883 7.61416C11.9773 7.58135 11.743 7.56494 11.4617 7.56494C11.1805 7.56494 10.9227 7.59541 10.6648 7.654C10.407 7.7126 10.1961 7.80635 10.0086 7.93525C9.81875 8.06182 9.68047 8.2165 9.56328 8.42744C9.45313 8.62432 9.39922 8.84932 9.39922 9.13057C9.39922 9.48213 9.5 9.78682 9.70391 10.0212C9.90547 10.279 10.2195 10.4665 10.618 10.654C10.7797 10.7196 10.9227 10.7853 11.0633 10.8485C11.2039 10.9118 11.3211 10.9774 11.4148 11.0454C11.5156 11.1134 11.5953 11.1884 11.6492 11.2681C11.7078 11.3478 11.7383 11.4415 11.7383 11.5493C11.7383 11.6243 11.72 11.6946 11.6844 11.7603C11.6488 11.8259 11.593 11.8821 11.518 11.929C11.443 11.9759 11.3516 12.0134 11.2367 12.0415C11.1266 12.0673 11.0023 12.0813 10.8383 12.0813C10.5805 12.0813 10.3227 12.0368 10.0883 11.9478C9.83047 11.8587 9.59609 11.7251 9.38516 11.5493L9.42969 11.539ZM7.46094 8.65619H8.96094V7.69525H4.76562V8.65619H6.26562V12.9453H7.46094V8.65619Z" fill="white"/>
</svg>
