<!-- Copyright 2000-2022 JetBrains s.r.o. and contributors. Use of this source code is governed by the Apache 2.0 license. -->
<svg width="16" height="16" viewBox="0 0 16 16" fill="none" xmlns="http://www.w3.org/2000/svg">
<rect x="2.5" y="2.5" width="11" height="11" rx="1.5" fill="#43454A" stroke="#CED0D6"/>
<path d="M7.32546 9.03C7.32546 8.80334 7.3638 8.605 7.44046 8.435C7.52046 8.26167 7.61546 8.115 7.72546 7.995C7.8388 7.87167 7.98546 7.73167 8.16546 7.575C8.32546 7.435 8.45046 7.31834 8.54046 7.225C8.6338 7.12834 8.71046 7.01667 8.77046 6.89C8.8338 6.76334 8.86546 6.62167 8.86546 6.465C8.86546 6.215 8.7888 6.01167 8.63546 5.855C8.48213 5.695 8.2788 5.615 8.02546 5.615C7.74546 5.615 7.52046 5.705 7.35046 5.885C7.1838 6.065 7.10213 6.3 7.10546 6.59H5.72546C5.72546 6.13 5.8188 5.735 6.00546 5.405C6.19213 5.07167 6.4588 4.81834 6.80546 4.645C7.15546 4.46834 7.56713 4.38 8.04046 4.38C8.49713 4.38 8.8938 4.46167 9.23046 4.625C9.56713 4.78834 9.82546 5.02 10.0055 5.32C10.1855 5.61667 10.2738 5.96667 10.2705 6.37C10.2705 6.67334 10.2221 6.935 10.1255 7.155C10.0288 7.375 9.9138 7.555 9.78046 7.695C9.64713 7.835 9.47213 7.99334 9.25546 8.17C9.10546 8.29 8.98713 8.39 8.90046 8.47001C8.81713 8.55 8.74713 8.64167 8.69046 8.74501C8.63713 8.84501 8.61046 8.95667 8.61046 9.08V9.255H7.32546V9.03ZM8.74046 11.5H7.24046V10H8.74046V11.5Z" fill="#CED0D6"/>
</svg>
