<!-- Copyright 2000-2021 JetBrains s.r.o. and contributors. Use of this source code is governed by the Apache 2.0 license. -->
<svg width="16" height="16" viewBox="0 0 16 16" fill="none" xmlns="http://www.w3.org/2000/svg">
<rect x="2.5" y="2.5" width="11" height="11" rx="1.5" fill="#43454A" stroke="#CED0D6"/>
<path d="M7.32551 9.03C7.32551 8.80333 7.36384 8.605 7.44051 8.435C7.52051 8.26167 7.61551 8.115 7.72551 7.995C7.83884 7.87167 7.98551 7.73167 8.16551 7.575C8.32551 7.435 8.45051 7.31833 8.54051 7.225C8.63384 7.12833 8.71051 7.01667 8.77051 6.89C8.83384 6.76333 8.86551 6.62167 8.86551 6.465C8.86551 6.215 8.78884 6.01167 8.63551 5.855C8.48217 5.695 8.27884 5.615 8.02551 5.615C7.74551 5.615 7.52051 5.705 7.35051 5.885C7.18384 6.065 7.10217 6.3 7.10551 6.59H5.72551C5.72551 6.13 5.81884 5.735 6.00551 5.405C6.19217 5.07167 6.45884 4.81833 6.80551 4.645C7.15551 4.46833 7.56717 4.38 8.04051 4.38C8.49717 4.38 8.89384 4.46167 9.23051 4.625C9.56717 4.78833 9.82551 5.02 10.0055 5.32C10.1855 5.61667 10.2738 5.96667 10.2705 6.37C10.2705 6.67333 10.2222 6.935 10.1255 7.155C10.0288 7.375 9.91384 7.555 9.78051 7.695C9.64717 7.835 9.47217 7.99333 9.25551 8.17C9.10551 8.29 8.98717 8.39 8.90051 8.47C8.81717 8.55 8.74717 8.64167 8.69051 8.745C8.63717 8.845 8.61051 8.95667 8.61051 9.08V9.255H7.32551V9.03ZM8.74051 11.5H7.24051V10H8.74051V11.5Z" fill="#CED0D6"/>
</svg>
