<!-- Copyright 2000-2022 JetBrains s.r.o. and contributors. Use of this source code is governed by the Apache 2.0 license. -->
<svg width="16" height="16" viewBox="0 0 16 16" fill="none" xmlns="http://www.w3.org/2000/svg">
<path d="M8.01773 12.8232C10.6733 12.8232 12.826 10.6677 12.826 8.00881C12.826 5.34992 10.6733 3.19446 8.01773 3.19446C5.3622 3.19446 3.20947 5.34992 3.20947 8.00881C3.20947 10.6677 5.3622 12.8232 8.01773 12.8232Z" stroke="black" stroke-width="1.0529" stroke-linecap="round" stroke-linejoin="bevel"/>
<path d="M2.89351 11.5053C2.89572 11.5053 2.89749 11.6942 2.89749 11.9249V12.3445L6.24923 12.339H7.94511V13.331H4.70568C3.85686 13.331 3.10263 13.3326 3.02963 13.3346L2.89686 13.3381V13.754C2.89686 14.0908 2.89563 14.1694 2.88996 14.1673C2.87199 14.1604 0.998246 12.8405 1 12.8358C1.00105 12.8328 1.42643 12.5323 1.94551 12.1679C2.46459 11.8035 2.89102 11.5053 2.8933 11.5053L2.89351 11.5053Z" fill="#262693"/>
<path d="M4.50797 2.89573C4.50798 2.89794 4.31932 2.89972 4.08891 2.89972H3.66986L3.67258 4.57789L3.67538 6.25589V7.95391H2.6846V4.71038C2.68459 3.86048 2.68302 3.1053 2.68106 3.0322L2.67752 2.89926H2.26215C1.92574 2.89926 1.8473 2.89803 1.84941 2.89236C1.8563 2.87437 3.17449 0.998244 3.17922 1C3.18215 1.00106 3.48228 1.42697 3.84624 1.94671C4.21019 2.46644 4.50799 2.89341 4.50799 2.8957L4.50797 2.89573Z" fill="#262693"/>
<path d="M11.5274 13.1043C11.5273 13.102 11.716 13.1003 11.9464 13.1003H12.3655L12.3628 11.4221L12.3599 9.74411V8.04608H13.3507V11.2896C13.3507 12.1395 13.3523 12.8947 13.3543 12.9678L13.3578 13.1007H13.7732C14.1096 13.1007 14.188 13.102 14.1859 13.1076C14.179 13.1256 12.8608 15.0018 12.8561 15C12.8532 14.9989 12.553 14.573 12.1891 14.0533C11.8251 13.5335 11.5273 13.1066 11.5273 13.1043L11.5274 13.1043Z" fill="#262693"/>
<path d="M13.1067 1.84151C13.1045 1.8415 13.1027 2.03039 13.1027 2.26109V2.68068L11.4267 2.67796L9.75081 2.67515H8.05493V3.66718H11.2944C12.1432 3.6672 12.8974 3.66877 12.9704 3.67073L13.1032 3.67428V4.09018C13.1032 4.42701 13.1044 4.50555 13.1101 4.50344C13.128 4.49654 15.0018 3.17668 15 3.17194C14.999 3.169 14.5736 2.86849 14.0545 2.50408C13.5355 2.13966 13.109 1.84149 13.1067 1.84149L13.1067 1.84151Z" fill="#262693"/>
</svg>
