<!-- Copyright 2000-2022 JetBrains s.r.o. and contributors. Use of this source code is governed by the Apache 2.0 license. -->
<svg width="16" height="16" viewBox="0 0 16 16" fill="none" xmlns="http://www.w3.org/2000/svg">
<path d="M3.19214 13V2.5H5.53964C6.14964 2.5 6.65714 2.6625 7.06214 2.9875C7.47214 3.3075 7.77714 3.8 7.97714 4.465C8.18214 5.125 8.28464 5.965 8.28464 6.985V8.515C8.28464 9.535 8.18214 10.3775 7.97714 11.0425C7.77714 11.7025 7.47464 12.195 7.06964 12.52C6.66464 12.84 6.15714 13 5.54714 13H3.19214ZM5.53964 11.7025C5.82464 11.7025 6.06214 11.59 6.25214 11.365C6.44714 11.135 6.59214 10.7875 6.68714 10.3225C6.78214 9.8525 6.82964 9.25 6.82964 8.515V6.985C6.82964 6.25 6.78214 5.65 6.68714 5.185C6.59214 4.715 6.44714 4.3675 6.25214 4.1425C6.06214 3.9125 5.82464 3.7975 5.53964 3.7975H4.60214V11.7025H5.53964Z" fill="#3574F0"/>
<path d="M9.50562 2.5H10.9006V11.695H13.6306V13H9.50562V2.5Z" fill="#3574F0"/>
</svg>
