<!-- Copyright 2000-2025 JetBrains s.r.o. and contributors. Use of this source code is governed by the Apache 2.0 license. -->
<svg width="16" height="16" viewBox="0 0 16 16" fill="none" xmlns="http://www.w3.org/2000/svg">
<path d="M11 2C11.5523 2 12 2.44772 12 3V9H6C5.44772 9 5 9.44772 5 10V14C4.44772 14 4 13.5523 4 13V6H6C7.10457 6 8 5.10457 8 4V2H11Z" fill="#25324D"/>
<path d="M7 4C7 4.06893 6.99277 4.13617 6.97949 4.20117C6.88625 4.65686 6.48325 5 6 5H4.41406L7 2.41406V4Z" fill="#25324D"/>
<path fill-rule="evenodd" clip-rule="evenodd" d="M11 1C12.1046 1 13 1.89543 13 3V9H12V3C12 2.44772 11.5523 2 11 2H8V4C8 5.10457 7.10457 6 6 6H4V13C4 13.5523 4.44772 14 5 14V15C3.89543 15 3 14.1046 3 13V5.41406C3.00004 5.1489 3.10547 4.89453 3.29297 4.70703L6.70703 1.29297C6.89453 1.10547 7.1489 1.00004 7.41406 1H11ZM4.41406 5H6C6.55228 5 7 4.55228 7 4V2.41406L4.41406 5Z" fill="#548AF7"/>
<path d="M6.15674 16V10.014H7.93614C8.34067 10.014 8.69054 10.0905 8.98574 10.2436C9.2864 10.3966 9.51874 10.6126 9.68274 10.8914C9.84674 11.1702 9.92874 11.5009 9.92874 11.8836V14.1222C9.92874 14.4994 9.84674 14.8301 9.68274 15.1144C9.51874 15.3932 9.2864 15.6118 8.98574 15.7704C8.69054 15.9234 8.34067 16 7.93614 16H6.15674ZM7.18174 15.057H7.93614C8.23134 15.057 8.4664 14.975 8.64134 14.811C8.81627 14.6415 8.90374 14.4119 8.90374 14.1222V11.8836C8.90374 11.5993 8.81627 11.3752 8.64134 11.2112C8.4664 11.0417 8.23134 10.957 7.93614 10.957H7.18174V15.057Z" fill="#CED0D6"/>
<path d="M11.3031 16V10.014H12.3281V15.0488H14.8701V16H11.3031Z" fill="#CED0D6"/>
</svg>
