<!-- Copyright 2000-2021 JetBrains s.r.o. and contributors. Use of this source code is governed by the Apache 2.0 license. -->
<svg width="18" height="16" viewBox="0 0 18 16" fill="none" xmlns="http://www.w3.org/2000/svg">
<path fill-rule="evenodd" clip-rule="evenodd" d="M11.0771 2.44037C11.1653 2.12093 10.9777 1.79054 10.6583 1.70242C10.3389 1.6143 10.0085 1.80182 9.92035 2.12126L6.76493 13.5596C6.67681 13.8791 6.86433 14.2095 7.18377 14.2976C7.50321 14.3857 7.8336 14.1982 7.92172 13.8788L11.0771 2.44037ZM5.52414 4.66697C5.73114 4.92573 5.68919 5.30331 5.43043 5.51031L2.07182 8.19721L5.43043 10.8841C5.68919 11.0911 5.73114 11.4687 5.52414 11.7274C5.31713 11.9862 4.93956 12.0282 4.6808 11.8211L0.736531 8.66573L0.150879 8.19721L0.736531 7.72869L4.6808 4.57327C4.93956 4.36626 5.31713 4.40822 5.52414 4.66697ZM12.4756 11.7275C12.2686 11.4687 12.3106 11.0911 12.5694 10.8841L15.928 8.19723L12.5694 5.51033C12.3106 5.30333 12.2686 4.92575 12.4756 4.66699C12.6827 4.40824 13.0602 4.36628 13.319 4.57329L17.2633 7.7287L17.8489 8.19723L17.2633 8.66575L13.319 11.8212C13.0602 12.0282 12.6827 11.9862 12.4756 11.7275Z" fill="#C77D55"/>
</svg>
