<!-- Copyright 2000-2025 JetBrains s.r.o. and contributors. Use of this source code is governed by the Apache 2.0 license. -->
<svg width="16" height="16" viewBox="0 0 16 16" fill="none" xmlns="http://www.w3.org/2000/svg">
<path d="M11 2C11.5523 2 12 2.44772 12 3V9H4V6H6C7.10457 6 8 5.10457 8 4V2H11Z" fill="#FFF4EB"/>
<path d="M7 4C7 4.06893 6.99277 4.13617 6.97949 4.20117C6.88625 4.65686 6.48325 5 6 5H4.41406L7 2.41406V4Z" fill="#FFF4EB"/>
<path fill-rule="evenodd" clip-rule="evenodd" d="M11 1C12.1046 1 13 1.89543 13 3V9H12V3C12 2.44772 11.5523 2 11 2H8V4C8 5.10457 7.10457 6 6 6H4V9H3V5.41406C3.00004 5.1489 3.10547 4.89453 3.29297 4.70703L6.70703 1.29297C6.89453 1.10547 7.1489 1.00004 7.41406 1H11ZM4.41406 5H6C6.55228 5 7 4.55228 7 4V2.41406L4.41406 5Z" fill="#E66D17"/>
<path d="M8.62891 10C8.92689 10.0713 9.18002 10.1986 9.3877 10.3828C9.72659 10.678 9.8988 11.0772 9.9043 11.5801H8.87891C8.87888 11.3452 8.80234 11.1624 8.64941 11.0312C8.4964 10.8946 8.28063 10.8262 8.00195 10.8262C7.73416 10.8262 7.5265 10.889 7.37891 11.0146C7.23131 11.1404 7.15723 11.3183 7.15723 11.5479C7.1573 11.7553 7.21209 11.9326 7.32129 12.0801C7.43609 12.2222 7.60028 12.3237 7.81348 12.3838L8.52637 12.5811C9.00197 12.7013 9.36572 12.9169 9.61719 13.2285C9.86858 13.5346 9.99413 13.9145 9.99414 14.3682C9.99414 14.7071 9.91205 15.0081 9.74805 15.2705C9.58406 15.5273 9.35465 15.7271 9.05957 15.8691C8.94761 15.923 8.82807 15.9665 8.70117 16H7.32227C7.1912 15.9677 7.06721 15.9292 6.95215 15.877C6.65148 15.7403 6.41888 15.5464 6.25488 15.2949C6.09635 15.038 6.01426 14.737 6.00879 14.3926H7.03418C7.03418 14.6386 7.12194 14.8325 7.29688 14.9746C7.47727 15.1112 7.72026 15.1797 8.02637 15.1797C8.32153 15.1797 8.55086 15.1113 8.71484 14.9746C8.88428 14.8379 8.96973 14.6497 8.96973 14.4092C8.96972 14.2071 8.90916 14.0323 8.78906 13.8848C8.67434 13.7318 8.50751 13.6279 8.28906 13.5732L7.59961 13.3838C7.12975 13.2635 6.76662 13.0477 6.50977 12.7363C6.2583 12.4247 6.13184 12.0473 6.13184 11.6045C6.13188 11.2657 6.20831 10.9701 6.36133 10.7188C6.51439 10.4674 6.73103 10.2734 7.00977 10.1367C7.13338 10.0773 7.26697 10.0336 7.40918 10H8.62891Z" fill="#6C707E"/>
<path d="M2.85547 11.5146C2.91005 11.6238 2.95925 11.7303 3.00293 11.834C3.04666 11.9324 3.0797 12.0098 3.10156 12.0645C3.11796 12.0098 3.14767 11.9324 3.19141 11.834C3.23509 11.7303 3.28428 11.6238 3.33887 11.5146L4.10156 10.0137H5.2168L3.65918 12.9082L5.31543 16H4.16699L3.32227 14.3438C3.26761 14.2344 3.21618 14.1273 3.16699 14.0234C3.12332 13.9197 3.09021 13.8374 3.06836 13.7773C3.04651 13.8374 3.01342 13.9197 2.96973 14.0234C2.92599 14.1273 2.87693 14.2344 2.82227 14.3438L1.96973 16H0.854492L2.51074 12.9336L0.953125 10.0137H2.10059L2.85547 11.5146Z" fill="#6C707E"/>
<path fill-rule="evenodd" clip-rule="evenodd" d="M12.8525 10.0137C13.2569 10.0137 13.6072 10.0902 13.9023 10.2432C14.203 10.3962 14.4356 10.6128 14.5996 10.8916C14.7635 11.1704 14.8457 11.5012 14.8457 11.8838V14.1221C14.8457 14.4992 14.7635 14.83 14.5996 15.1143C14.4356 15.3931 14.203 15.612 13.9023 15.7705C13.6072 15.9235 13.257 16 12.8525 16H11.0732V10.0137H12.8525ZM12.0986 15.0566H12.8525C13.1477 15.0566 13.3827 14.9745 13.5576 14.8105C13.7326 14.6411 13.8203 14.4118 13.8203 14.1221V11.8838C13.8203 11.5995 13.7326 11.3749 13.5576 11.2109C13.3827 11.0417 13.1475 10.957 12.8525 10.957H12.0986V15.0566Z" fill="#6C707E"/>
</svg>
