<!-- Copyright 2000-2023 JetBrains s.r.o. and contributors. Use of this source code is governed by the Apache 2.0 license. -->
<svg width="16" height="16" viewBox="0 0 16 16" fill="none" xmlns="http://www.w3.org/2000/svg">
<path d="M4.62994 13L3.25844 8.84002L2.95944 8.54752L1.34094 3.90002H2.44594L3.49244 7.01352L3.81744 7.37102L5.72844 13H4.62994ZM1.21094 13L3.14144 7.35152L3.43394 7.08502L4.51294 3.90002H5.59844L3.94744 8.61252L3.64844 8.90502L2.29644 13H1.21094Z" fill="#E66D17"/>
<path d="M7.99937 13.156C7.56171 13.156 7.20421 13.0607 6.92688 12.87C6.64954 12.6794 6.44371 12.3847 6.30937 11.986C6.17937 11.583 6.11438 11.0652 6.11438 10.4325H7.23238C7.23238 10.8355 7.25837 11.167 7.31037 11.427C7.36671 11.6827 7.45121 11.8712 7.56388 11.9925C7.68088 12.1139 7.83037 12.1745 8.01237 12.1745C8.18571 12.1745 8.32438 12.1182 8.42838 12.0055C8.53671 11.8885 8.61687 11.7109 8.66887 11.4725C8.72087 11.2299 8.74687 10.9179 8.74687 10.5365C8.74687 10.1249 8.69271 9.79768 8.58438 9.55502C8.48038 9.31235 8.31571 9.11952 8.09037 8.97652L7.51188 8.62552C7.22154 8.44352 6.98537 8.23985 6.80337 8.01452C6.62137 7.78918 6.48704 7.53352 6.40037 7.24752C6.31371 6.95718 6.27037 6.62352 6.27037 6.24652C6.27037 5.66152 6.32887 5.18485 6.44587 4.81652C6.56721 4.44818 6.75137 4.17735 6.99837 4.00402C7.24537 3.83069 7.56604 3.74402 7.96037 3.74402C8.36337 3.74402 8.69054 3.83285 8.94188 4.01052C9.19321 4.18385 9.37954 4.45685 9.50088 4.82952C9.62221 5.19785 9.68288 5.67668 9.68288 6.26602H8.57137C8.57137 5.90635 8.54971 5.61385 8.50638 5.38852C8.46304 5.16319 8.39804 4.99635 8.31137 4.88802C8.22904 4.77969 8.11637 4.72552 7.97337 4.72552C7.76537 4.72552 7.61371 4.84685 7.51837 5.08952C7.42304 5.32785 7.37537 5.71135 7.37537 6.24002C7.37537 6.58235 7.42521 6.86402 7.52487 7.08502C7.62887 7.30169 7.79137 7.47719 8.01237 7.61152L8.64937 8.00152C8.93538 8.17918 9.16504 8.38502 9.33838 8.61902C9.51604 8.84868 9.64604 9.11952 9.72838 9.43152C9.81071 9.74352 9.85188 10.1075 9.85188 10.5235C9.85188 11.1345 9.78687 11.635 9.65687 12.025C9.52687 12.4107 9.32537 12.6967 9.05237 12.883C8.78371 13.065 8.43271 13.156 7.99937 13.156Z" fill="#E66D17"/>
<path d="M10.7765 13V3.90002H12.5705C13.0385 3.90002 13.4198 4.03218 13.7145 4.29652C14.0092 4.56085 14.2258 4.97035 14.3645 5.52502C14.5032 6.07535 14.5725 6.79252 14.5725 7.67652V9.22352C14.5725 10.1075 14.5032 10.8269 14.3645 11.3815C14.2258 11.9319 14.0092 12.3392 13.7145 12.6035C13.4198 12.8679 13.0385 13 12.5705 13H10.7765ZM12.5705 11.986C12.7742 11.986 12.9388 11.8885 13.0645 11.6935C13.1945 11.4985 13.2898 11.1995 13.3505 10.7965C13.4112 10.3935 13.4415 9.86919 13.4415 9.22352V7.67652C13.4415 7.03085 13.4112 6.50652 13.3505 6.10352C13.2898 5.70052 13.1945 5.40152 13.0645 5.20652C12.9388 5.01152 12.7742 4.91402 12.5705 4.91402H11.862V11.986H12.5705Z" fill="#E66D17"/>
</svg>
