<!-- Copyright 2000-2022 JetBrains s.r.o. and contributors. Use of this source code is governed by the Apache 2.0 license. -->
<svg width="16" height="16" viewBox="0 0 16 16" fill="none" xmlns="http://www.w3.org/2000/svg">
<path d="M4.62994 13L3.25844 8.83999L2.95944 8.54749L1.34094 3.89999H2.44594L3.49244 7.01349L3.81744 7.37099L5.72844 13H4.62994ZM1.21094 13L3.14144 7.35149L3.43394 7.08499L4.51294 3.89999H5.59844L3.94744 8.61249L3.64844 8.90499L2.29644 13H1.21094Z" fill="#E08855"/>
<path d="M7.99937 13.156C7.56171 13.156 7.20421 13.0607 6.92688 12.87C6.64954 12.6793 6.44371 12.3847 6.30937 11.986C6.17937 11.583 6.11438 11.0652 6.11438 10.4325H7.23238C7.23238 10.8355 7.25837 11.167 7.31037 11.427C7.36671 11.6827 7.45121 11.8712 7.56388 11.9925C7.68088 12.1138 7.83037 12.1745 8.01237 12.1745C8.18571 12.1745 8.32438 12.1182 8.42838 12.0055C8.53671 11.8885 8.61687 11.7108 8.66887 11.4725C8.72087 11.2298 8.74687 10.9178 8.74687 10.5365C8.74687 10.1248 8.69271 9.79765 8.58438 9.55499C8.48038 9.31232 8.31571 9.11949 8.09037 8.97649L7.51188 8.62549C7.22154 8.44349 6.98537 8.23982 6.80337 8.01449C6.62137 7.78915 6.48704 7.53349 6.40037 7.24749C6.31371 6.95715 6.27037 6.62349 6.27037 6.24649C6.27037 5.66149 6.32887 5.18482 6.44587 4.81649C6.56721 4.44815 6.75137 4.17732 6.99837 4.00399C7.24537 3.83065 7.56604 3.74399 7.96037 3.74399C8.36337 3.74399 8.69054 3.83282 8.94188 4.01049C9.19321 4.18382 9.37954 4.45682 9.50088 4.82949C9.62221 5.19782 9.68288 5.67665 9.68288 6.26599H8.57137C8.57137 5.90632 8.54971 5.61382 8.50638 5.38849C8.46304 5.16315 8.39804 4.99632 8.31137 4.88799C8.22904 4.77965 8.11637 4.72549 7.97337 4.72549C7.76537 4.72549 7.61371 4.84682 7.51837 5.08949C7.42304 5.32782 7.37537 5.71132 7.37537 6.23999C7.37537 6.58232 7.42521 6.86399 7.52487 7.08499C7.62887 7.30165 7.79137 7.47715 8.01237 7.61149L8.64937 8.00149C8.93538 8.17915 9.16504 8.38499 9.33838 8.61899C9.51604 8.84865 9.64604 9.11949 9.72838 9.43149C9.81071 9.74349 9.85188 10.1075 9.85188 10.5235C9.85188 11.1345 9.78687 11.635 9.65687 12.025C9.52687 12.4107 9.32537 12.6967 9.05237 12.883C8.78371 13.065 8.43271 13.156 7.99937 13.156Z" fill="#E08855"/>
<path d="M10.7765 13V3.89999H12.5705C13.0385 3.89999 13.4198 4.03215 13.7145 4.29649C14.0092 4.56082 14.2258 4.97032 14.3645 5.52499C14.5032 6.07532 14.5725 6.79249 14.5725 7.67649V9.22349C14.5725 10.1075 14.5032 10.8268 14.3645 11.3815C14.2258 11.9318 14.0092 12.3392 13.7145 12.6035C13.4198 12.8678 13.0385 13 12.5705 13H10.7765ZM12.5705 11.986C12.7742 11.986 12.9388 11.8885 13.0645 11.6935C13.1945 11.4985 13.2898 11.1995 13.3505 10.7965C13.4112 10.3935 13.4415 9.86916 13.4415 9.22349V7.67649C13.4415 7.03082 13.4112 6.50649 13.3505 6.10349C13.2898 5.70049 13.1945 5.40149 13.0645 5.20649C12.9388 5.01149 12.7742 4.91399 12.5705 4.91399H11.862V11.986H12.5705Z" fill="#E08855"/>
</svg>
