<!-- Copyright 2000-2023 JetBrains s.r.o. and contributors. Use of this source code is governed by the Apache 2.0 license. -->
<svg width="16" height="16" viewBox="0 0 16 16" fill="none" xmlns="http://www.w3.org/2000/svg">
<rect x="2" y="12" width="5" height="1" rx="0.5" fill="#6C707E"/>
<rect x="2" y="6" width="12" height="1" rx="0.5" fill="#6C707E"/>
<rect x="2" y="9" width="8" height="1" rx="0.5" fill="#6C707E"/>
<rect x="2" y="3" width="12" height="1" rx="0.5" fill="#6C707E"/>
<path fill-rule="evenodd" clip-rule="evenodd" d="M12.5 9C12.7761 9 13 9.22386 13 9.5V12H15.5C15.7761 12 16 12.2239 16 12.5C16 12.7761 15.7761 13 15.5 13H13V15.5C13 15.7761 12.7761 16 12.5 16C12.2239 16 12 15.7761 12 15.5V13H9.5C9.22386 13 9 12.7761 9 12.5C9 12.2239 9.22386 12 9.5 12H12V9.5C12 9.22386 12.2239 9 12.5 9Z" fill="#6C707E"/>
</svg>
