<!-- Copyright 2000-2025 JetBrains s.r.o. and contributors. Use of this source code is governed by the Apache 2.0 license. -->
<svg width="20" height="20" viewBox="0 0 20 20" fill="none" xmlns="http://www.w3.org/2000/svg">
<path d="M9.75586 17.25C9.34165 17.25 9.00586 16.9142 9.00586 16.5V10.5059H3C2.58594 10.5059 2.25025 10.1699 2.25 9.75586C2.25 9.34165 2.58579 9.00586 3 9.00586H9.00586V3C9.00607 2.58597 9.34178 2.25 9.75586 2.25C10.1699 2.25 10.5056 2.58597 10.5059 3V9.00586H16.5C16.9142 9.00586 17.25 9.34165 17.25 9.75586C17.2498 10.1699 16.9141 10.5059 16.5 10.5059H10.5059V16.5C10.5059 16.9142 10.1701 17.25 9.75586 17.25Z" fill="#6C707E"/>
</svg>
