<!-- Copyright 2000-2025 JetBrains s.r.o. and contributors. Use of this source code is governed by the Apache 2.0 license. -->
<svg width="20" height="20" viewBox="0 0 20 20" fill="none" xmlns="http://www.w3.org/2000/svg">
<path d="M10.2441 2.75C10.6584 2.75 10.9941 3.08579 10.9941 3.5V9.49414H17C17.4141 9.49414 17.7498 9.83014 17.75 10.2441C17.75 10.6584 17.4142 10.9941 17 10.9941H10.9941V17C10.9939 17.414 10.6582 17.75 10.2441 17.75C9.83006 17.75 9.49435 17.414 9.49414 17V10.9941H3.5C3.08579 10.9941 2.75 10.6584 2.75 10.2441C2.75025 9.83014 3.08594 9.49414 3.5 9.49414H9.49414V3.5C9.49414 3.08579 9.82993 2.75 10.2441 2.75Z" fill="#CED0D6"/>
</svg>
