<!-- Copyright 2000-2022 JetBrains s.r.o. and contributors. Use of this source code is governed by the Apache 2.0 license. -->
<svg width="16" height="16" viewBox="0 0 16 16" fill="none" xmlns="http://www.w3.org/2000/svg">
<path d="M7.9999 7.4002C9.43584 7.4002 10.5999 6.23614 10.5999 4.8002C10.5999 3.36425 9.43584 2.2002 7.9999 2.2002C6.56396 2.2002 5.3999 3.36425 5.3999 4.8002C5.3999 6.23614 6.56396 7.4002 7.9999 7.4002Z" stroke="#767A8A" stroke-width="1.5"/>
<path d="M8.60015 15C8.93151 15 9.20015 14.7314 9.20015 14.4C9.20015 14.0686 8.93151 13.8 8.60015 13.8V15ZM10.9542 10.7473C11.2565 10.8831 11.6117 10.7482 11.7474 10.4459C11.8833 10.1437 11.7483 9.78848 11.4461 9.65272L10.9542 10.7473ZM3.06871 13.7262C3.4635 11.8077 5.58864 10.2 8.32807 10.2V9C5.1884 9 2.4339 10.8574 1.89333 13.4843L3.06871 13.7262ZM3.20015 15H8.60015V13.8H3.20015V15ZM8.32807 10.2C9.28687 10.2 10.1822 10.4004 10.9542 10.7473L11.4461 9.65272C10.5165 9.23504 9.45327 9 8.32807 9V10.2ZM1.89333 13.4843C1.71043 14.3732 2.46904 15 3.20015 15V13.8C3.14133 13.8 3.09882 13.7754 3.07903 13.7543C3.07012 13.7448 3.06813 13.7387 3.0679 13.738C3.06775 13.7375 3.06765 13.737 3.06761 13.7362C3.06757 13.7353 3.06749 13.7322 3.06871 13.7262L1.89333 13.4843Z" fill="#767A8A"/>
<path fill-rule="evenodd" clip-rule="evenodd" d="M12.2001 15.1999C12.2001 15.5313 12.4687 15.7999 12.8001 15.7999C13.1315 15.7999 13.4001 15.5313 13.4001 15.1999V14.1999H14.4001C14.7315 14.1999 15.0001 13.9313 15.0001 13.5999C15.0001 13.2685 14.7315 12.9999 14.4001 12.9999H13.4001V11.9999C13.4001 11.6685 13.1315 11.3999 12.8001 11.3999C12.4687 11.3999 12.2001 11.6685 12.2001 11.9999V12.9999H11.2001C10.8687 12.9999 10.6001 13.2685 10.6001 13.5999C10.6001 13.9313 10.8687 14.1999 11.2001 14.1999H12.2001V15.1999Z" fill="#767A8A"/>
</svg>
