<!-- Copyright 2000-2022 JetBrains s.r.o. and contributors. Use of this source code is governed by the Apache 2.0 license. -->
<svg width="20" height="20" viewBox="0 0 20 20" fill="none" xmlns="http://www.w3.org/2000/svg">
<path fill-rule="evenodd" clip-rule="evenodd" d="M10 7.5C11.3807 7.5 12.5 6.38071 12.5 5C12.5 3.61929 11.3807 2.5 10 2.5C8.6193 2.5 7.50001 3.61929 7.50001 5C7.50001 6.38071 8.6193 7.5 10 7.5ZM10 9C12.2091 9 14 7.20914 14 5C14 2.79086 12.2091 1 10 1C7.79087 1 6.00001 2.79086 6.00001 5C6.00001 7.20914 7.79087 9 10 9Z" fill="#AEB3C2"/>
<path d="M16 19.25C16 19.6642 16.3358 20 16.75 20C17.1642 20 17.5 19.6642 17.5 19.25V17.5H19.25C19.6642 17.5 20 17.1642 20 16.75C20 16.3358 19.6642 16 19.25 16H17.5V14.25C17.5 13.8358 17.1642 13.5 16.75 13.5C16.3358 13.5 16 13.8358 16 14.25V16H14.25C13.8358 16 13.5 16.3358 13.5 16.75C13.5 17.1642 13.8358 17.5 14.25 17.5H16V19.25Z" fill="#AEB3C2"/>
<path fill-rule="evenodd" clip-rule="evenodd" d="M10 12.35C6.96883 12.35 4.48142 14.172 3.89504 16.6341C3.89117 16.6504 3.89301 16.6571 3.89368 16.6596C3.89482 16.6637 3.89866 16.674 3.91105 16.6878C3.93794 16.7177 3.99308 16.75 4.06871 16.75H11C11.4142 16.75 11.75 17.0858 11.75 17.5C11.75 17.9142 11.4142 18.25 11 18.25H4.06871C3.11661 18.25 2.16815 17.4107 2.43585 16.2866C3.21279 13.0243 6.41093 10.85 10 10.85C11.4577 10.85 12.7806 11.1132 14.0228 11.7977C14.3856 11.9976 14.5177 12.4537 14.3178 12.8165C14.1179 13.1793 13.6617 13.3114 13.2989 13.1115C12.3279 12.5764 11.2678 12.35 10 12.35Z" fill="#AEB3C2"/>
</svg>
