<!-- Copyright 2000-2022 JetBrains s.r.o. and contributors. Use of this source code is governed by the Apache 2.0 license. -->
<svg width="16" height="16" viewBox="0 0 16 16" fill="none" xmlns="http://www.w3.org/2000/svg">
<path fill-rule="evenodd" clip-rule="evenodd" d="M8.00003 6.4C9.21506 6.4 10.2 5.41503 10.2 4.2C10.2 2.98497 9.21506 2 8.00003 2C6.78501 2 5.80003 2.98497 5.80003 4.2C5.80003 5.41503 6.78501 6.4 8.00003 6.4ZM8.00003 7.4C9.76734 7.4 11.2 5.96731 11.2 4.2C11.2 2.43269 9.76734 1 8.00003 1C6.23272 1 4.80003 2.43269 4.80003 4.2C4.80003 5.96731 6.23272 7.4 8.00003 7.4Z" fill="#767A8A"/>
<path fill-rule="evenodd" clip-rule="evenodd" d="M13.5 11C13.2239 11 13 11.2239 13 11.5V13H11.5C11.2239 13 11 13.2239 11 13.5C11 13.7761 11.2239 14 11.5 14H13V15.5C13 15.7761 13.2239 16 13.5 16C13.7762 16 14 15.7761 14 15.5V14H15.5C15.7762 14 16 13.7761 16 13.5C16 13.2239 15.7762 13 15.5 13H14V11.5C14 11.2239 13.7762 11 13.5 11Z" fill="#767A8A"/>
<path fill-rule="evenodd" clip-rule="evenodd" d="M8.00001 10C5.13098 10 3.21167 11.6713 2.3603 13.5238C2.30792 13.6378 2.32567 13.741 2.39067 13.8287C2.461 13.9236 2.5907 14 2.75494 14H9.50001C9.77616 14 10 14.2239 10 14.5C10 14.7761 9.77616 15 9.50001 15H2.75494C2.27676 15 1.84787 14.7758 1.58725 14.4241C1.32131 14.0653 1.23579 13.576 1.45166 13.1062C2.44413 10.9467 4.6902 9 8.00001 9C9.40629 9 10.6233 9.28724 11.6401 9.81631C11.885 9.94378 11.9803 10.2457 11.8528 10.4907C11.7253 10.7356 11.4234 10.8309 11.1785 10.7034C10.3237 10.2586 9.26896 10 8.00001 10Z" fill="#767A8A"/>
</svg>
