<!-- Copyright 2000-2022 JetBrains s.r.o. and contributors. Use of this source code is governed by the Apache 2.0 license. -->
<svg width="20" height="20" viewBox="0 0 20 20" fill="none" xmlns="http://www.w3.org/2000/svg">
<circle cx="10" cy="6" r="3.25" stroke="#CED0D6" stroke-width="1.5"/>
<path d="M10.75 18.75C11.1642 18.75 11.5 18.4142 11.5 18C11.5 17.5858 11.1642 17.25 10.75 17.25V18.75ZM13.6926 13.4341C14.0704 13.6039 14.5144 13.4352 14.6841 13.0574C14.8539 12.6796 14.6852 12.2356 14.3074 12.0659L13.6926 13.4341ZM3.8357 17.1577C4.32919 14.7596 6.98561 12.75 10.4099 12.75V11.25C6.48531 11.25 3.04219 13.5717 2.36648 16.8554L3.8357 17.1577ZM4 18.75H10.75V17.25H4V18.75ZM10.4099 12.75C11.6084 12.75 12.7275 13.0005 13.6926 13.4341L14.3074 12.0659C13.1454 11.5438 11.8164 11.25 10.4099 11.25V12.75ZM2.36648 16.8554C2.13785 17.9665 3.08611 18.75 4 18.75V17.25C3.92647 17.25 3.87334 17.2193 3.8486 17.1929C3.83746 17.181 3.83497 17.1734 3.83469 17.1725C3.8345 17.1719 3.83437 17.1713 3.83432 17.1702C3.83427 17.1691 3.83418 17.1652 3.8357 17.1577L2.36648 16.8554Z" fill="#CED0D6"/>
<path fill-rule="evenodd" clip-rule="evenodd" d="M15.25 19C15.25 19.4142 15.5858 19.75 16 19.75C16.4142 19.75 16.75 19.4142 16.75 19V17.75H18C18.4142 17.75 18.75 17.4142 18.75 17C18.75 16.5858 18.4142 16.25 18 16.25H16.75V15C16.75 14.5858 16.4142 14.25 16 14.25C15.5858 14.25 15.25 14.5858 15.25 15V16.25H14C13.5858 16.25 13.25 16.5858 13.25 17C13.25 17.4142 13.5858 17.75 14 17.75H15.25V19Z" fill="#CED0D6"/>
</svg>
