<!-- Copyright 2000-2023 JetBrains s.r.o. and contributors. Use of this source code is governed by the Apache 2.0 license. -->
<svg width="16" height="16" viewBox="0 0 16 16" fill="none" xmlns="http://www.w3.org/2000/svg">
<path d="M14 5.5C14 5.77614 13.7761 6 13.5 6C13.2239 6 13 5.77614 13 5.5V3L3 3L3 5.5C3 5.77614 2.77614 6 2.5 6C2.22386 6 2 5.77614 2 5.5V2.5C2 2.22386 2.22386 2 2.5 2H13.5C13.7761 2 14 2.22386 14 2.5V5.5Z" fill="#CED0D6"/>
<path d="M5.14633 11.3537C4.95107 11.1584 4.95106 10.8418 5.14632 10.6465C5.34157 10.4513 5.65816 10.4513 5.85342 10.6465L7.50016 12.2932L7.50016 5.49996C7.50016 5.22381 7.72401 4.99996 8.00016 4.99996C8.2763 4.99996 8.50016 5.22381 8.50016 5.49996L8.50016 12.2927L10.1464 10.6464C10.3417 10.4511 10.6583 10.4511 10.8536 10.6464C11.0488 10.8417 11.0488 11.1583 10.8535 11.3535L8.35346 13.8536C8.1582 14.0488 7.84163 14.0488 7.64637 13.8536L5.14633 11.3537Z" fill="#CED0D6"/>
</svg>
