<!-- Copyright 2000-2023 JetBrains s.r.o. and contributors. Use of this source code is governed by the Apache 2.0 license. -->
<svg width="16" height="16" viewBox="0 0 16 16" fill="none" xmlns="http://www.w3.org/2000/svg">
<path d="M13.5 6C13.7761 6 14 5.77614 14 5.5V2.5C14 2.22386 13.7761 2 13.5 2H2.5C2.22386 2 2 2.22386 2 2.5V5.5C2 5.77614 2.22386 6 2.5 6C2.77614 6 3 5.77614 3 5.5L3 3L13 3V5.5C13 5.77614 13.2239 6 13.5 6Z" fill="#CED0D6"/>
<path d="M5.14644 8.35345C4.95118 8.15819 4.95119 7.8416 5.14646 7.64635L7.64649 5.14644C7.84175 4.95119 8.15833 4.95119 8.35358 5.14644L10.8537 7.64649C11.0489 7.84175 11.0489 8.15833 10.8537 8.35359C10.6584 8.54886 10.3418 8.54886 10.1466 8.3536L8.50028 6.70734L8.50028 13.5C8.50028 13.7762 8.27642 14 8.00028 14C7.72414 14 7.50028 13.7762 7.50028 13.5L7.50028 6.70682L5.85354 8.35347C5.65828 8.54873 5.3417 8.54872 5.14644 8.35345Z" fill="#CED0D6"/>
</svg>
