<!-- Copyright 2000-2021 JetBrains s.r.o. and contributors. Use of this source code is governed by the Apache 2.0 license that can be found in the LICENSE file. -->
<svg width="16" height="16" viewBox="0 0 16 16" fill="none" xmlns="http://www.w3.org/2000/svg">
<path d="M2.69674 12.5962C2.50148 12.7915 2.50148 13.108 2.69674 13.3033C2.892 13.4986 3.20858 13.4986 3.40385 13.3033L2.69674 12.5962ZM13.3033 3.4038C13.4986 3.20854 13.4986 2.89196 13.3033 2.6967C13.1081 2.50143 12.7915 2.50144 12.5962 2.6967L13.3033 3.4038ZM3.40385 13.3033L13.3033 3.4038L12.5962 2.6967L2.69674 12.5962L3.40385 13.3033Z" fill="#767A8A"/>
<path d="M13.3033 12.5962C13.4985 12.7915 13.4985 13.108 13.3033 13.3033C13.108 13.4986 12.7914 13.4986 12.5962 13.3033L13.3033 12.5962ZM2.69666 3.4038C2.5014 3.20854 2.5014 2.89196 2.69666 2.6967C2.89192 2.50143 3.2085 2.50144 3.40377 2.6967L2.69666 3.4038ZM12.5962 13.3033L2.69666 3.4038L3.40377 2.6967L13.3033 12.5962L12.5962 13.3033Z" fill="#767A8A"/>
</svg>
