<!-- Copyright 2000-2022 JetBrains s.r.o. and contributors. Use of this source code is governed by the Apache 2.0 license. -->
<svg width="16" height="16" viewBox="0 0 16 16" fill="none" xmlns="http://www.w3.org/2000/svg">
<path d="M2.69723 12.5962C2.50197 12.7914 2.50197 13.108 2.69723 13.3033C2.89249 13.4985 3.20907 13.4985 3.40433 13.3033L2.69723 12.5962ZM13.3038 3.40377C13.4991 3.2085 13.4991 2.89192 13.3038 2.69666C13.1086 2.5014 12.792 2.5014 12.5967 2.69666L13.3038 3.40377ZM3.40433 13.3033L13.3038 3.40377L12.5967 2.69666L2.69723 12.5962L3.40433 13.3033Z" fill="#6C707E"/>
<path d="M13.3028 12.5962C13.498 12.7914 13.498 13.108 13.3028 13.3033C13.1075 13.4985 12.7909 13.4985 12.5957 13.3033L13.3028 12.5962ZM2.69617 3.40377C2.50091 3.2085 2.50091 2.89192 2.69617 2.69666C2.89143 2.5014 3.20802 2.5014 3.40328 2.69666L2.69617 3.40377ZM12.5957 13.3033L2.69617 3.40377L3.40328 2.69666L13.3028 12.5962L12.5957 13.3033Z" fill="#6C707E"/>
</svg>
