<!-- Copyright 2000-2021 JetBrains s.r.o. and contributors. Use of this source code is governed by the Apache 2.0 license that can be found in the LICENSE file. -->

<svg width="16" height="16" viewBox="0 0 16 16" fill="none" xmlns="http://www.w3.org/2000/svg">
<path d="M4.85355 2.14645C4.65829 1.95118 4.34171 1.95118 4.14645 2.14645C3.95118 2.34171 3.95118 2.65829 4.14645 2.85355L4.85355 2.14645ZM8 6L7.64645 6.35355L8 6.70711L8.35355 6.35355L8 6ZM11.8536 2.85355C12.0488 2.65829 12.0488 2.34171 11.8536 2.14645C11.6583 1.95118 11.3417 1.95118 11.1464 2.14645L11.8536 2.85355ZM4.14645 2.85355L7.64645 6.35355L8.35355 5.64645L4.85355 2.14645L4.14645 2.85355ZM8.35355 6.35355L11.8536 2.85355L11.1464 2.14645L7.64645 5.64645L8.35355 6.35355Z" fill="#767A8A"/>
<path d="M4.85355 12.8536C4.65829 13.0488 4.34171 13.0488 4.14645 12.8536C3.95118 12.6583 3.95118 12.3417 4.14645 12.1464L4.85355 12.8536ZM8 9L7.64645 8.64645L8 8.29289L8.35355 8.64645L8 9ZM11.8536 12.1464C12.0488 12.3417 12.0488 12.6583 11.8536 12.8536C11.6583 13.0488 11.3417 13.0488 11.1464 12.8536L11.8536 12.1464ZM4.14645 12.1464L7.64645 8.64645L8.35355 9.35355L4.85355 12.8536L4.14645 12.1464ZM8.35355 8.64645L11.8536 12.1464L11.1464 12.8536L7.64645 9.35355L8.35355 8.64645Z" fill="#767A8A"/>
</svg>
