<!-- Copyright 2000-2022 JetBrains s.r.o. and contributors. Use of this source code is governed by the Apache 2.0 license. -->
<svg width="16" height="16" viewBox="0 0 16 16" fill="none" xmlns="http://www.w3.org/2000/svg">
<path fill-rule="evenodd" clip-rule="evenodd" d="M7 4.5C7 5.42236 6.5005 6.22805 5.75725 6.66134L7.62202 7.45497L13.3045 5.03983C13.5586 4.93182 13.8522 5.05029 13.9602 5.30443C14.0682 5.55857 13.9498 5.85215 13.6956 5.96017L8.89943 7.99862L13.6956 10.0398C13.9498 10.1478 14.0682 10.4414 13.9602 10.6956C13.8522 10.9497 13.5586 11.0682 13.3045 10.9602L7.62176 8.54165L5.75271 9.33603C6.49847 9.76867 7 10.5758 7 11.5C7 12.8807 5.88071 14 4.5 14C3.11929 14 2 12.8807 2 11.5C2 10.4975 2.59009 9.63278 3.44189 9.2343L3.44092 9.232L6.34435 7.998L3.65731 6.85442C2.69121 6.50859 2 5.58501 2 4.5C2 3.11929 3.11929 2 4.5 2C5.88071 2 7 3.11929 7 4.5ZM6 4.5C6 5.32843 5.32843 6 4.5 6C4.33031 6 4.16721 5.97182 4.01511 5.9199L3.8141 5.83435C3.33064 5.58533 3 5.08128 3 4.5C3 3.67157 3.67157 3 4.5 3C5.32843 3 6 3.67157 6 4.5ZM6 11.5C6 12.3284 5.32843 13 4.5 13C3.67157 13 3 12.3284 3 11.5C3 10.6716 3.67157 10 4.5 10C5.32843 10 6 10.6716 6 11.5Z" fill="#6C707E"/>
</svg>
