<!-- Copyright 2000-2022 JetBrains s.r.o. and contributors. Use of this source code is governed by the Apache 2.0 license. -->
<svg width="16" height="16" viewBox="0 0 16 16" fill="none" xmlns="http://www.w3.org/2000/svg">
<circle cx="3.5" cy="4.5" r="2" stroke="#6C707E"/>
<circle cx="3.5" cy="11.5" r="2" stroke="#6C707E"/>
<path d="M14.2996 11.9581C14.5526 12.0688 14.8474 11.9534 14.9581 11.7004C15.0688 11.4474 14.9534 11.1526 14.7004 11.0419L14.2996 11.9581ZM2.29959 6.70808L14.2996 11.9581L14.7004 11.0419L2.70041 5.79192L2.29959 6.70808Z" fill="#6C707E"/>
<path d="M14.2997 4.04192C14.5526 3.93124 14.8475 4.0466 14.9581 4.29959C15.0688 4.55258 14.9535 4.8474 14.7005 4.95808L14.2997 4.04192ZM2.29965 9.29192L14.2997 4.04192L14.7005 4.95808L2.70047 10.2081L2.29965 9.29192Z" fill="#6C707E"/>
</svg>
