<!-- Copyright 2000-2022 JetBrains s.r.o. and contributors. Use of this source code is governed by the Apache 2.0 license. -->
<svg width="16" height="16" viewBox="0 0 16 16" fill="none" xmlns="http://www.w3.org/2000/svg">
<path fill-rule="evenodd" clip-rule="evenodd" d="M11.8536 8.15354C12.0488 7.95828 12.0488 7.6417 11.8536 7.44644C11.6583 7.25117 11.3417 7.25117 11.1464 7.44644L8.5 10.0929L8.5 2.5C8.5 2.22386 8.27615 2 8 2C7.72386 2 7.5 2.22386 7.5 2.5L7.5 10.0929L4.85355 7.44644C4.65829 7.25118 4.34171 7.25118 4.14645 7.44644C3.95118 7.6417 3.95118 7.95828 4.14645 8.15355L7.64645 11.6535L8 12.0071L8.35355 11.6535L11.8536 8.15354Z" fill="#6C707E"/>
<rect x="2" y="13" width="12" height="1" rx="0.5" fill="#6C707E"/>
</svg>
