<!-- Copyright 2000-2022 JetBrains s.r.o. and contributors. Use of this source code is governed by the Apache 2.0 license. -->
<svg width="16" height="16" viewBox="0 0 16 16" fill="none" xmlns="http://www.w3.org/2000/svg">
<path fill-rule="evenodd" clip-rule="evenodd" d="M10.8536 8.16074C11.0489 7.96548 11.0489 7.6489 10.8536 7.45363C10.6584 7.25836 10.3418 7.25835 10.1465 7.45361L8.50005 9.10002L8.50005 1.5C8.50005 1.22386 8.27619 1 8.00005 1C7.72391 1 7.50005 1.22386 7.50005 1.5L7.50005 9.09999L5.85351 7.45348C5.65825 7.25822 5.34166 7.25822 5.1464 7.45349C4.95114 7.64875 4.95115 7.96533 5.14641 8.16059L7.6465 10.6606L8.00004 11.0142L8.35359 10.6606L10.8536 8.16074Z" fill="#CED0D6"/>
<rect width="12" height="1" rx="0.5" transform="matrix(1 0 0 -1 2 14)" fill="#CED0D6"/>
<rect x="2" y="10" width="1" height="4" rx="0.5" fill="#CED0D6"/>
<rect x="13" y="10" width="1" height="4" rx="0.5" fill="#CED0D6"/>
</svg>
