<!-- Copyright 2000-2023 JetBrains s.r.o. and contributors. Use of this source code is governed by the Apache 2.0 license. -->
<svg width="28" height="28" viewBox="0 0 28 28" fill="none" xmlns="http://www.w3.org/2000/svg">
<g clip-path="url(#clip0_3005_40350)">
<circle cx="14" cy="14" r="12" fill="#DB5C5C"/>
<path d="M15 8C15 7.44772 14.5523 7 14 7C13.4477 7 13 7.44771 13 8L13 14C13 14.5523 13.4477 15 14 15C14.5523 15 15 14.5523 15 14L15 8Z" fill="white"/>
<path d="M14 21C14.8284 21 15.5 20.3284 15.5 19.5C15.5 18.6716 14.8284 18 14 18C13.1716 18 12.5 18.6716 12.5 19.5C12.5 20.3284 13.1716 21 14 21Z" fill="white"/>
</g>
<defs>
<clipPath id="clip0_3005_40350">
<rect width="28" height="28" fill="white"/>
</clipPath>
</defs>
</svg>
