<!-- Copyright 2000-2023 JetBrains s.r.o. and contributors. Use of this source code is governed by the Apache 2.0 license. -->
<svg width="16" height="16" viewBox="0 0 16 16" fill="none" xmlns="http://www.w3.org/2000/svg">
<path fill-rule="evenodd" clip-rule="evenodd" d="M6 2H13C13.5523 2 14 2.44772 14 3V13C14 13.5523 13.5523 14 13 14H6C5.44772 14 5 13.5523 5 13V10H4V13C4 14.1046 4.89543 15 6 15H13C14.1046 15 15 14.1046 15 13V3C15 1.89543 14.1046 1 13 1H6C4.89543 1 4 1.89543 4 3V6H5V3C5 2.44772 5.44772 2 6 2Z" fill="#6C707E"/>
<path d="M9.59604 5.52486C9.40077 5.3296 9.08419 5.3296 8.88893 5.52486C8.69367 5.72013 8.69367 6.03671 8.88893 6.23197L10.1567 7.49974L2.5 7.49974C2.22386 7.49974 2 7.7236 2 7.99974C2 8.27588 2.22386 8.49974 2.5 8.49974H10.1567L8.88893 9.7675C8.69367 9.96277 8.69367 10.2793 8.88893 10.4746C9.08419 10.6699 9.40077 10.6699 9.59604 10.4746L11.7174 8.35329C11.9126 8.15803 11.9126 7.84145 11.7174 7.64618L9.59604 5.52486Z" fill="#DB3B4B"/>
</svg>
