<!-- Copyright 2000-2022 JetBrains s.r.o. and contributors. Use of this source code is governed by the Apache 2.0 license. -->
<svg width="16" height="16" viewBox="0 0 16 16" fill="none" xmlns="http://www.w3.org/2000/svg">
<path fill-rule="evenodd" clip-rule="evenodd" d="M6 2H13C13.5523 2 14 2.44772 14 3V13C14 13.5523 13.5523 14 13 14H6C5.44772 14 5 13.5523 5 13V10H4V13C4 14.1046 4.89543 15 6 15H13C14.1046 15 15 14.1046 15 13V3C15 1.89543 14.1046 1 13 1H6C4.89543 1 4 1.89543 4 3V6H5V3C5 2.44772 5.44772 2 6 2Z" fill="#6C707E"/>
<path d="M2.50006 7.50002C2.22392 7.50002 2.00006 7.72387 2.00006 8.00002C2.00006 8.27616 2.22392 8.50002 2.50006 8.50002L2.50006 7.50002ZM2.50006 8.50002L11.3639 8.50002L11.3639 7.50002L2.50006 7.50002L2.50006 8.50002Z" fill="#E35252"/>
<path d="M9.24254 5.87866L11.3639 7.99998L9.24254 10.1213" stroke="#E35252" stroke-linecap="round" stroke-linejoin="round"/>
</svg>
