<!-- Copyright 2000-2022 JetBrains s.r.o. and contributors. Use of this source code is governed by the Apache 2.0 license. -->
<svg width="16" height="17" viewBox="0 0 16 17" fill="none" xmlns="http://www.w3.org/2000/svg">
<path fill-rule="evenodd" clip-rule="evenodd" d="M6 2.08337H13C13.5523 2.08337 14 2.53109 14 3.08337V13.0834C14 13.6357 13.5523 14.0834 13 14.0834H6C5.44772 14.0834 5 13.6357 5 13.0834V10.0834H4V13.0834C4 14.1879 4.89543 15.0834 6 15.0834H13C14.1046 15.0834 15 14.1879 15 13.0834V3.08337C15 1.9788 14.1046 1.08337 13 1.08337H6C4.89543 1.08337 4 1.9788 4 3.08337V6.08337H5V3.08337C5 2.53109 5.44772 2.08337 6 2.08337Z" fill="#6C707E"/>
<path d="M2.49998 7.58333C2.22384 7.58333 1.99998 7.80719 1.99998 8.08333C1.99998 8.35947 2.22384 8.58333 2.49998 8.58333L2.49998 7.58333ZM2.49998 8.58333L11.3638 8.58333L11.3638 7.58333L2.49998 7.58333L2.49998 8.58333Z" fill="#E35252"/>
<path d="M11.3638 8.08336L11.7173 8.43691C11.9126 8.24165 11.9126 7.92507 11.7173 7.7298L11.3638 8.08336ZM9.59599 5.60848C9.40072 5.41322 9.08414 5.41322 8.88888 5.60848C8.69362 5.80374 8.69362 6.12033 8.88888 6.31559L9.59599 5.60848ZM8.88888 9.85112C8.69362 10.0464 8.69362 10.363 8.88888 10.5582C9.08414 10.7535 9.40072 10.7535 9.59599 10.5582L8.88888 9.85112ZM11.7173 7.7298L9.59599 5.60848L8.88888 6.31559L11.0102 8.43691L11.7173 7.7298ZM11.0102 7.7298L8.88888 9.85112L9.59599 10.5582L11.7173 8.43691L11.0102 7.7298Z" fill="#E35252"/>
</svg>
