<!-- Copyright 2000-2021 JetBrains s.r.o. and contributors. Use of this source code is governed by the Apache 2.0 license that can be found in the LICENSE file. -->

<svg width="16" height="16" viewBox="0 0 16 16" fill="none" xmlns="http://www.w3.org/2000/svg">
<path d="M4.85355 6.35355C4.65829 6.54882 4.34171 6.54882 4.14645 6.35355C3.95118 6.15829 3.95118 5.84171 4.14645 5.64645L4.85355 6.35355ZM8 2.5L7.64645 2.14645L8 1.79289L8.35355 2.14645L8 2.5ZM11.8536 5.64645C12.0488 5.84171 12.0488 6.15829 11.8536 6.35355C11.6583 6.54882 11.3417 6.54882 11.1464 6.35355L11.8536 5.64645ZM4.14645 5.64645L7.64645 2.14645L8.35355 2.85355L4.85355 6.35355L4.14645 5.64645ZM8.35355 2.14645L11.8536 5.64645L11.1464 6.35355L7.64645 2.85355L8.35355 2.14645Z" fill="#767A8A"/>
<path d="M4.85355 8.64645C4.65829 8.45118 4.34171 8.45118 4.14645 8.64645C3.95118 8.84171 3.95118 9.15829 4.14645 9.35355L4.85355 8.64645ZM8 12.5L7.64645 12.8536L8 13.2071L8.35355 12.8536L8 12.5ZM11.8536 9.35355C12.0488 9.15829 12.0488 8.84171 11.8536 8.64645C11.6583 8.45118 11.3417 8.45118 11.1464 8.64645L11.8536 9.35355ZM4.14645 9.35355L7.64645 12.8536L8.35355 12.1464L4.85355 8.64645L4.14645 9.35355ZM8.35355 12.8536L11.8536 9.35355L11.1464 8.64645L7.64645 12.1464L8.35355 12.8536Z" fill="#767A8A"/>
</svg>
