<!-- Copyright 2000-2022 JetBrains s.r.o. and contributors. Use of this source code is governed by the Apache 2.0 license. -->
<svg width="16" height="16" viewBox="0 0 16 16" fill="none" xmlns="http://www.w3.org/2000/svg">
<path fill-rule="evenodd" clip-rule="evenodd" d="M13.4621 2.80861C13.438 2.75051 13.4026 2.69602 13.3557 2.64857C13.3543 2.64715 13.3528 2.64574 13.3514 2.64433C13.2611 2.55509 13.137 2.5 13 2.5H12.9999H9C8.72386 2.5 8.5 2.72386 8.5 3C8.5 3.27614 8.72386 3.5 9 3.5H11.7929L7.14645 8.14645C6.95118 8.34171 6.95118 8.65829 7.14645 8.85355C7.34171 9.04882 7.65829 9.04882 7.85355 8.85355L12.5 4.20711V7C12.5 7.27614 12.7239 7.5 13 7.5C13.2761 7.5 13.5 7.27614 13.5 7V3.00035C13.5 2.99923 13.5 2.99812 13.5 2.997C13.4996 2.93287 13.487 2.8688 13.4621 2.80861Z" fill="#CED0D6"/>
<path d="M12 13.5C12.2761 13.5 12.5 13.2761 12.5 13C12.5 12.7239 12.2761 12.5 12 12.5V13.5ZM3.5 4C3.5 3.72386 3.27614 3.5 3 3.5C2.72386 3.5 2.5 3.72386 2.5 4H3.5ZM12 12.5H4V13.5H12V12.5ZM3.5 12V4H2.5V12H3.5ZM4 12.5C3.72386 12.5 3.5 12.2761 3.5 12H2.5C2.5 12.8284 3.17157 13.5 4 13.5V12.5Z" fill="#CED0D6"/>
</svg>
