<!-- Copyright 2000-2022 JetBrains s.r.o. and contributors. Use of this source code is governed by the Apache 2.0 license. -->
<svg width="16" height="16" viewBox="0 0 16 16" fill="none" xmlns="http://www.w3.org/2000/svg">
<path fill-rule="evenodd" clip-rule="evenodd" d="M7.03794 8.69139C7.06198 8.74949 7.09744 8.80398 7.14433 8.85143C7.14574 8.85285 7.14715 8.85426 7.14857 8.85567C7.23888 8.94491 7.36301 9 7.5 9H7.50009H11.5C11.7761 9 12 8.77614 12 8.5C12 8.22386 11.7761 8 11.5 8H8.70711L13.3536 3.35355C13.5488 3.15829 13.5488 2.84171 13.3536 2.64645C13.1583 2.45118 12.8417 2.45118 12.6464 2.64645L8 7.29289V4.5C8 4.22386 7.77614 4 7.5 4C7.22386 4 7 4.22386 7 4.5V8.49965C7 8.50077 7 8.50188 7.00001 8.503C7.00039 8.56713 7.01303 8.6312 7.03794 8.69139Z" fill="#6C707E"/>
<path d="M12 13.5C12.2761 13.5 12.5 13.2761 12.5 13C12.5 12.7239 12.2761 12.5 12 12.5V13.5ZM3.5 4C3.5 3.72386 3.27614 3.5 3 3.5C2.72386 3.5 2.5 3.72386 2.5 4H3.5ZM12 12.5H4V13.5H12V12.5ZM3.5 12V4H2.5V12H3.5ZM4 12.5C3.72386 12.5 3.5 12.2761 3.5 12H2.5C2.5 12.8284 3.17157 13.5 4 13.5V12.5Z" fill="#6C707E"/>
</svg>
