<!-- Copyright 2000-2025 JetBrains s.r.o. and contributors. Use of this source code is governed by the Apache 2.0 license. -->
<svg width="16" height="16" viewBox="0 0 16 16" fill="none" xmlns="http://www.w3.org/2000/svg">
<path d="M12.2041 1.01074C13.2128 1.113 14 1.96435 14 3V8.53613C13.6904 8.35697 13.3549 8.21733 13 8.12598V3C13 2.48232 12.6067 2.05621 12.1025 2.00488L12 2H4C3.44772 2 3 2.44772 3 3V13C3 13.5523 3.44772 14 4 14H8.53613C8.754 14.3765 9.03129 14.714 9.35547 15H4L3.7959 14.9893C2.85435 14.8938 2.1062 14.1457 2.01074 13.2041L2 13V3C2 1.96435 2.78722 1.113 3.7959 1.01074L4 1H12L12.2041 1.01074Z" fill="#CED0D6"/>
<path d="M8.53613 10C8.35697 10.3096 8.21733 10.6451 8.12598 11H5.5C5.22386 11 5 10.7761 5 10.5C5 10.2239 5.22386 10 5.5 10H8.53613Z" fill="#CED0D6"/>
<path d="M10.5 7.5C10.7761 7.5 11 7.72386 11 8C11 8.04548 10.9918 8.08898 10.9805 8.13086C10.6568 8.21591 10.3496 8.34135 10.0635 8.5H5.5C5.22386 8.5 5 8.27614 5 8C5 7.72386 5.22386 7.5 5.5 7.5H10.5Z" fill="#CED0D6"/>
<path d="M10.5 5C10.7761 5 11 5.22386 11 5.5C11 5.77614 10.7761 6 10.5 6H5.5C5.22386 6 5 5.77614 5 5.5C5 5.22386 5.22386 5 5.5 5H10.5Z" fill="#CED0D6"/>
<path fill-rule="evenodd" clip-rule="evenodd" d="M13.7383 14.4454C13.2479 14.7946 12.6479 15 12 15C10.3431 15 9 13.6569 9 12C9 10.3431 10.3431 9 12 9C13.6569 9 15 10.3431 15 12C15 12.6479 14.7946 13.2479 14.4454 13.7383L15.8536 15.1464C16.0488 15.3417 16.0488 15.6583 15.8536 15.8536C15.6583 16.0488 15.3417 16.0488 15.1464 15.8536L13.7383 14.4454ZM14 12C14 13.1046 13.1046 14 12 14C10.8954 14 10 13.1046 10 12C10 10.8954 10.8954 10 12 10C13.1046 10 14 10.8954 14 12Z" fill="#CED0D6"/>
</svg>
