<!-- Copyright 2000-2023 JetBrains s.r.o. and contributors. Use of this source code is governed by the Apache 2.0 license. -->
<svg width="16" height="16" viewBox="0 0 16 16" fill="none" xmlns="http://www.w3.org/2000/svg">
<path d="M4 5H3V6H4V5Z" fill="#CED0D6"/>
<path d="M5 7H4V8H5V7Z" fill="#CED0D6"/>
<path d="M7 5H8V6H7V5Z" fill="#CED0D6"/>
<path d="M9 7H8V8H9V7Z" fill="#CED0D6"/>
<path d="M5 5H6V6H5V5Z" fill="#CED0D6"/>
<path d="M7 7H6V8H7V7Z" fill="#CED0D6"/>
<path d="M9 5H10V6H9V5Z" fill="#CED0D6"/>
<path d="M12 5H11V6H12V5Z" fill="#CED0D6"/>
<path d="M10 7H11V8H10V7Z" fill="#CED0D6"/>
<path d="M10 10H5V11H10V10Z" fill="#CED0D6"/>
<path fill-rule="evenodd" clip-rule="evenodd" d="M0 4C0 2.89543 0.895431 2 2 2H13C14.1046 2 15 2.89543 15 4V12C15 13.1046 14.1046 14 13 14H2C0.89543 14 0 13.1046 0 12V4ZM2 3H13C13.5523 3 14 3.44772 14 4V12C14 12.5523 13.5523 13 13 13H2C1.44772 13 1 12.5523 1 12V4C1 3.44772 1.44772 3 2 3Z" fill="#CED0D6"/>
</svg>
