<!-- Copyright 2000-2024 JetBrains s.r.o. and contributors. Use of this source code is governed by the Apache 2.0 license. -->
<svg width="16" height="16" viewBox="0 0 16 16" fill="none" xmlns="http://www.w3.org/2000/svg">
<path fill-rule="evenodd" clip-rule="evenodd" d="M11.5001 7C11.7001 7 11.8809 7.1192 11.9597 7.30304L14.9597 14.303C15.0685 14.5569 14.9509 14.8508 14.6971 14.9596C14.4433 15.0683 14.1493 14.9508 14.0406 14.697L13.3133 13H9.68697L8.9597 14.697C8.85092 14.9508 8.55698 15.0683 8.30317 14.9596C8.04935 14.8508 7.93178 14.5569 8.04056 14.303L11.0406 7.30304C11.1193 7.1192 11.3001 7 11.5001 7ZM10.1155 12H12.8847L11.5001 8.7693L10.1155 12Z" fill="#6C707E"/>
<path fill-rule="evenodd" clip-rule="evenodd" d="M5.5 1C5.77614 1 6 1.22386 6 1.5V2H9.5C9.77614 2 10 2.22386 10 2.5C10 2.77614 9.77614 3 9.5 3H1.5C1.22386 3 1 2.77614 1 2.5C1 2.22386 1.22386 2 1.5 2H5V1.5C5 1.22386 5.22386 1 5.5 1Z" fill="#6C707E"/>
<path fill-rule="evenodd" clip-rule="evenodd" d="M7.50013 2C7.77627 2 8.00013 2.22386 8.00013 2.5C8.00013 3.89963 7.3101 5.50735 6.20125 6.8771C5.08584 8.25496 3.50292 9.44778 1.63749 9.98076C1.37197 10.0566 1.09523 9.90288 1.01937 9.63736C0.943505 9.37184 1.09725 9.0951 1.36277 9.01924C2.99734 8.55222 4.41442 7.49504 5.42401 6.2479C6.44016 4.99265 7.00013 3.60037 7.00013 2.5C7.00013 2.22386 7.22399 2 7.50013 2Z" fill="#6C707E"/>
<path fill-rule="evenodd" clip-rule="evenodd" d="M3.40178 4.00984C3.67256 3.95569 3.93597 4.1313 3.99013 4.40208C4.45054 6.70415 6.29583 8.54943 8.59789 9.00984C8.86867 9.064 9.04428 9.32741 8.99013 9.59819C8.93597 9.86897 8.67256 10.0446 8.40178 9.99042C5.70385 9.45084 3.54913 7.29612 3.00955 4.59819C2.95539 4.32741 3.131 4.064 3.40178 4.00984Z" fill="#6C707E"/>
</svg>
