<!-- Copyright 2000-2022 JetBrains s.r.o. and contributors. Use of this source code is governed by the Apache 2.0 license. -->
<svg width="16" height="16" viewBox="0 0 16 16" fill="none" xmlns="http://www.w3.org/2000/svg">
<path fill-rule="evenodd" clip-rule="evenodd" d="M6.99988 3L3.99994 3C3.44765 3 2.99994 3.44772 2.99994 4L2.99994 12C2.99994 12.5523 3.44765 13 3.99994 13L6.99988 13L6.99988 8L6.99988 7L6.99988 3ZM7.99988 3L7.99988 7L12.9999 7L12.9999 4C12.9999 3.44772 12.5522 3 11.9999 3L7.99988 3ZM7.99988 8L7.99988 13L11.9999 13C12.5522 13 12.9999 12.5523 12.9999 12L12.9999 8L7.99988 8ZM3.99994 2C2.89537 2 1.99994 2.89543 1.99994 4L1.99994 12C1.99994 13.1046 2.89537 14 3.99994 14L11.9999 14C13.1045 14 13.9999 13.1046 13.9999 12L13.9999 4C13.9999 2.89543 13.1045 2 11.9999 2L3.99994 2Z" fill="#CED0D6"/>
</svg>
