<!-- Copyright 2000-2022 JetBrains s.r.o. and contributors. Use of this source code is governed by the Apache 2.0 license. -->
<svg width="16" height="16" viewBox="0 0 16 16" fill="none" xmlns="http://www.w3.org/2000/svg">
<path fill-rule="evenodd" clip-rule="evenodd" d="M12.4999 2C13.3284 2 13.9999 2.67157 13.9999 3.5L13.9999 7L13.9999 8L13.9999 12.5C13.9999 13.3284 13.3284 14 12.4999 14L3.49992 14C2.6715 14 1.99992 13.3284 1.99992 12.5L1.99992 3.5C1.99992 2.67157 2.6715 2 3.49992 2L12.4999 2ZM12.9999 3.5L12.9999 7L7.99992 7L7.99992 3L6.99992 3L6.99992 7L6.99992 8L6.99992 13L3.49992 13C3.22378 13 2.99992 12.7761 2.99992 12.5L2.99992 3.5C2.99992 3.22386 3.22378 3 3.49992 3L12.4999 3C12.7761 3 12.9999 3.22386 12.9999 3.5ZM7.99992 13L12.4999 13C12.7761 13 12.9999 12.7761 12.9999 12.5L12.9999 8L7.99992 8L7.99992 13Z" fill="#6C707E"/>
</svg>
