<!-- Copyright 2000-2022 JetBrains s.r.o. and contributors. Use of this source code is governed by the Apache 2.0 license. -->
<svg width="16" height="16" viewBox="0 0 16 16" fill="none" xmlns="http://www.w3.org/2000/svg">
<path fill-rule="evenodd" clip-rule="evenodd" d="M8.5 5V2.02054C11.4149 2.26101 13.739 4.5851 13.9795 7.5H11C10.7239 7.5 10.5 7.72386 10.5 8C10.5 8.27614 10.7239 8.5 11 8.5H13.9795C13.739 11.4149 11.4149 13.739 8.5 13.9795V11C8.5 10.7239 8.27614 10.5 8 10.5C7.72386 10.5 7.5 10.7239 7.5 11V13.9795C4.5851 13.739 2.26101 11.4149 2.02054 8.5H5C5.27614 8.5 5.5 8.27614 5.5 8C5.5 7.72386 5.27614 7.5 5 7.5H2.02054C2.26101 4.5851 4.5851 2.26101 7.5 2.02054V5C7.5 5.27614 7.72386 5.5 8 5.5C8.27614 5.5 8.5 5.27614 8.5 5ZM1 8C1 4.13401 4.13401 1 8 1C11.866 1 15 4.13401 15 8C15 11.866 11.866 15 8 15C4.13401 15 1 11.866 1 8Z" fill="#6C707E"/>
</svg>
