<!-- Copyright 2000-2022 JetBrains s.r.o. and contributors. Use of this source code is governed by the Apache 2.0 license. -->
<svg width="16" height="16" viewBox="0 0 16 16" fill="none" xmlns="http://www.w3.org/2000/svg">
<path fill-rule="evenodd" clip-rule="evenodd" d="M5 5C5 3.34315 6.34315 2 8 2C9.65685 2 11 3.34315 11 5V6C11.8284 6 12.5 6.67157 12.5 7.5V12.5C12.5 13.3284 11.8284 14 11 14H5C4.17157 14 3.5 13.3284 3.5 12.5V7.5C3.5 6.67157 4.17157 6 5 6V5ZM10 5V6H6V5C6 3.89543 6.89543 3 8 3C9.10457 3 10 3.89543 10 5ZM5 7C4.72386 7 4.5 7.22386 4.5 7.5V12.5C4.5 12.7761 4.72386 13 5 13H11C11.2761 13 11.5 12.7761 11.5 12.5V7.5C11.5 7.22386 11.2761 7 11 7H5ZM8 8.5C7.72386 8.5 7.5 8.72386 7.5 9V11C7.5 11.2761 7.72386 11.5 8 11.5C8.27614 11.5 8.5 11.2761 8.5 11V9C8.5 8.72386 8.27614 8.5 8 8.5Z" fill="#6C707E"/>
</svg>
