<!-- Copyright 2000-2021 JetBrains s.r.o. and contributors. Use of this source code is governed by the Apache 2.0 license that can be found in the LICENSE file. -->
<svg width="20" height="20" viewBox="0 0 20 20" fill="none" xmlns="http://www.w3.org/2000/svg">
<path d="M14.5534 6.0319L16.411 11.6047C16.6808 12.4141 16.0783 13.25 15.2251 13.25H4.77485C3.92166 13.25 3.31919 12.4141 3.589 11.6047L5.44661 6.0319L4.80395 5.81769L5.44661 6.0319C5.76516 5.07622 6.37634 4.245 7.19357 3.65598C8.01079 3.06696 8.99263 2.75 10 2.75C11.0074 2.75 11.9892 3.06696 12.8064 3.65598C13.6237 4.245 14.2348 5.07623 14.5534 6.0319ZM11.6667 16.0833C11.7004 16.0833 11.7312 16.0905 11.7559 16.1013C11.756 16.1013 11.756 16.1013 11.7561 16.1014C11.6612 16.3184 11.526 16.5179 11.3553 16.6886C10.9958 17.0481 10.5083 17.25 10 17.25C9.49167 17.25 9.00416 17.0481 8.64471 16.6886C8.47401 16.5179 8.33885 16.3184 8.24394 16.1014C8.24398 16.1013 8.24403 16.1013 8.24407 16.1013C8.26883 16.0905 8.29958 16.0833 8.33333 16.0833H11.6667Z" stroke="#767A8A" stroke-width="1.5"/>
</svg>
