<!-- Copyright 2000-2021 JetBrains s.r.o. and contributors. Use of this source code is governed by the Apache 2.0 license that can be found in the LICENSE file. -->
<svg width="16" height="16" viewBox="0 0 16 16" fill="none" xmlns="http://www.w3.org/2000/svg">
<path d="M11.6429 4.82572L13.129 9.28396C13.3449 9.93148 12.8629 10.6002 12.1803 10.6002H3.8201C3.13755 10.6002 2.65557 9.93148 2.87142 9.28396L4.35751 4.82572L3.84338 4.65435L4.35751 4.82572C4.61235 4.06117 5.10129 3.3962 5.75508 2.92498C6.40885 2.45376 7.19432 2.2002 8.00022 2.2002C8.80614 2.2002 9.59158 2.45376 10.2453 2.92498C10.8992 3.3962 11.3881 4.06118 11.6429 4.82572ZM9.33358 12.8668C9.36054 12.8668 9.38518 12.8726 9.40494 12.8812C9.40502 12.8812 9.40502 12.8812 9.4051 12.8813C9.32918 13.0549 9.22102 13.2145 9.08446 13.3511C8.79686 13.6387 8.40686 13.8002 8.00022 13.8002C7.59356 13.8002 7.20355 13.6387 6.91599 13.3511C6.77943 13.2145 6.6713 13.0549 6.59537 12.8813C6.5954 12.8812 6.59544 12.8812 6.59548 12.8812C6.61528 12.8726 6.63988 12.8668 6.66688 12.8668H9.33358Z" stroke="#767A8A" stroke-width="1.5"/>
</svg>
