<!-- Copyright 2000-2024 JetBrains s.r.o. and contributors. Use of this source code is governed by the Apache 2.0 license. -->
<svg width="16" height="16" viewBox="0 0 16 16" xmlns="http://www.w3.org/2000/svg">
  <path d="m11 9c0 2.49-2.01 4.5-4.5 4.5s-4.5-2.01-4.5-4.5c0-2.49 2.01-4.5 4.5-4.5s4.5 2.01 4.5 4.5z" fill="#edf3ff"/>
  <path d="m6.49 12c-1.76 0-2.99-1.35-2.99-2.98v-0.0166c0-1.63 1.25-3 3.01-3 1.76 0 2.99 1.35 2.99 2.98v0.0166c0 1.63-1.25 3-3.01 3zm0.0164-0.945c1.14 0 1.93-0.912 1.93-2.04v-0.0166c0-1.13-0.811-2.06-1.95-2.06-1.14 0-1.93 0.912-1.93 2.04v0.0166c0 1.13 0.811 2.06 1.95 2.06z" clip-rule="evenodd" fill="#3574f0" fill-rule="evenodd"/>
  <path d="m12.5 10c-0.276 0-0.5-0.224-0.5-0.5v-5.79l-1.15 1.15c-0.195 0.195-0.512 0.195-0.707 0-0.195-0.195-0.195-0.512 0-0.707l2-2c0.195-0.195 0.512-0.195 0.707 0l2 2c0.195 0.195 0.195 0.512 0 0.707-0.195 0.195-0.512 0.195-0.707 0l-1.15-1.15v5.79c0 0.276-0.224 0.5-0.5 0.5z" clip-rule="evenodd" fill="#db3b4b" fill-rule="evenodd"/>
  <path d="m11 9c0 2.49-2.01 4.5-4.5 4.5s-4.5-2.01-4.5-4.5c0-2.49 2.01-4.5 4.5-4.5 1.12 0 2.14 0.406 2.92 1.08l0.0171-0.0171c-0.389-0.389-0.52-0.939-0.392-1.44-0.762-0.399-1.63-0.624-2.55-0.624-3.04 0-5.5 2.46-5.5 5.5 0 3.04 2.46 5.5 5.5 5.5 2.42 0 4.47-1.56 5.21-3.73-0.425-0.265-0.708-0.736-0.708-1.27z" fill="#3574f0"/>
</svg>
