<!-- Copyright 2000-2022 JetBrains s.r.o. and contributors. Use of this source code is governed by the Apache 2.0 license. -->
<svg width="16" height="16" viewBox="0 0 16 16" fill="none" xmlns="http://www.w3.org/2000/svg">
<path d="M5.5 6C5.22386 6 5 6.22386 5 6.5C5 6.77614 5.22386 7 5.5 7H10.5C10.7761 7 11 6.77614 11 6.5C11 6.22386 10.7761 6 10.5 6H5.5Z" fill="#6C707E"/>
<path d="M5 8.5C5 8.22386 5.22386 8 5.5 8H10.5C10.7761 8 11 8.22386 11 8.5C11 8.77614 10.7761 9 10.5 9H5.5C5.22386 9 5 8.77614 5 8.5Z" fill="#6C707E"/>
<path d="M5.5 10C5.22386 10 5 10.2239 5 10.5C5 10.7761 5.22386 11 5.5 11H10.5C10.7761 11 11 10.7761 11 10.5C11 10.2239 10.7761 10 10.5 10H5.5Z" fill="#6C707E"/>
<path fill-rule="evenodd" clip-rule="evenodd" d="M12 2H10.9146C10.7087 1.4174 10.1531 1 9.5 1H6.5C5.84689 1 5.29127 1.4174 5.08535 2H4C2.89543 2 2 2.89543 2 4V13C2 14.1046 2.89543 15 4 15H12C13.1046 15 14 14.1046 14 13V4C14 2.89543 13.1046 2 12 2ZM4 3H5.08535C5.29127 3.5826 5.84689 4 6.5 4H9.5C10.1531 4 10.7087 3.5826 10.9146 3H12C12.5523 3 13 3.44772 13 4V13C13 13.5523 12.5523 14 12 14H4C3.44772 14 3 13.5523 3 13V4C3 3.44772 3.44772 3 4 3ZM6.5 2C6.22386 2 6 2.22386 6 2.5C6 2.77614 6.22386 3 6.5 3H9.5C9.77614 3 10 2.77614 10 2.5C10 2.22386 9.77614 2 9.5 2H6.5Z" fill="#6C707E"/>
</svg>
