<!-- Copyright 2000-2022 JetBrains s.r.o. and contributors. Use of this source code is governed by the Apache 2.0 license. -->
<svg width="16" height="16" viewBox="0 0 16 16" fill="none" xmlns="http://www.w3.org/2000/svg">
<mask id="path-1-inside-1_1820_31415" fill="white">
<path fill-rule="evenodd" clip-rule="evenodd" d="M5.01856 7.43737C5.15585 7.35428 5.25463 7.2176 5.27732 7.05873L5.49062 5.56569C5.53327 5.26712 5.3016 5 5 5V5C4.44772 5 4 4.55228 4 4V3C4 2.44772 4.44772 2 5 2H6.8673H9.1327H11C11.5523 2 12 2.44772 12 3V4C12 4.55228 11.5523 5 11 5V5C10.6984 5 10.4667 5.26712 10.5094 5.56569L10.7227 7.05867C10.7454 7.21754 10.8441 7.35423 10.9814 7.43732C12.1504 8.14475 12.6424 9.22757 12.8495 10.0138C12.9902 10.5478 12.5523 11 12 11H4.00005C3.44776 11 3.0099 10.5478 3.15058 10.0138C3.35768 9.22759 3.84968 8.14481 5.01856 7.43737Z"/>
</mask>
<path d="M12.8495 10.0138L13.8165 9.75905L13.8165 9.75905L12.8495 10.0138ZM3.15058 10.0138L4.11759 10.2685L4.11759 10.2685L3.15058 10.0138ZM10.7227 7.05867L9.73272 7.20009L10.7227 7.05867ZM10.9814 7.43732L11.4992 6.58179L10.9814 7.43732ZM10.5094 5.56569L9.51943 5.70711L10.5094 5.56569ZM5.27732 7.05873L4.28737 6.91731L5.27732 7.05873ZM5.01856 7.43737L5.53634 8.29289L5.01856 7.43737ZM5.49062 5.56569L4.50067 5.42426L5.49062 5.56569ZM4.50067 5.42426L4.28737 6.91731L6.26727 7.20016L6.48057 5.70711L4.50067 5.42426ZM5 4H3C3 5.10457 3.89543 6 5 6V4ZM5 4V3H3V4H5ZM5 3V3V1C3.89543 1 3 1.89543 3 3H5ZM5 3H6.8673V1H5V3ZM6.8673 3H9.1327V1H6.8673V3ZM9.1327 3H11V1H9.1327V3ZM11 3H13C13 1.89543 12.1046 1 11 1V3ZM11 3V4H13V3H11ZM11 4V6C12.1046 6 13 5.10457 13 4H11ZM11.7126 6.91725L11.4993 5.42426L9.51943 5.70711L9.73272 7.20009L11.7126 6.91725ZM13.8165 9.75905C13.5708 8.82633 12.968 7.47071 11.4992 6.58179L10.4637 8.29284C11.3327 8.81878 11.714 9.6288 11.8825 10.2685L13.8165 9.75905ZM12 12C13.0433 12 14.1639 11.0778 13.8165 9.75905L11.8825 10.2685C11.8752 10.2409 11.8719 10.1967 11.8847 10.1466C11.8969 10.0987 11.9191 10.063 11.9395 10.0403C11.9776 9.99765 12.0061 10 12 10V12ZM4.00005 12H12V10H4.00005V12ZM2.18357 9.75905C1.83619 11.0778 2.95675 12 4.00005 12V10C3.99403 10 4.02246 9.99765 4.0606 10.0403C4.08096 10.063 4.10322 10.0987 4.11542 10.1466C4.12817 10.1967 4.12487 10.2409 4.11759 10.2685L2.18357 9.75905ZM4.50078 6.58186C3.03202 7.47079 2.42926 8.82635 2.18357 9.75905L4.11759 10.2685C4.2861 9.62882 4.66734 8.81883 5.53634 8.29289L4.50078 6.58186ZM9.73272 7.20009C9.80236 7.68762 10.0988 8.07201 10.4637 8.29284L11.4992 6.58179C11.5895 6.63644 11.6884 6.74746 11.7126 6.91725L9.73272 7.20009ZM11 4C10.0899 4 9.39072 4.80611 9.51943 5.70711L11.4993 5.42426C11.5427 5.72813 11.307 6 11 6V4ZM4.28737 6.91731C4.31163 6.74753 4.41048 6.63651 4.50078 6.58186L5.53634 8.29289C5.90122 8.07205 6.19763 7.68767 6.26727 7.20016L4.28737 6.91731ZM6.48057 5.70711C6.60928 4.80611 5.91014 4 5 4V6C4.69305 6 4.45726 5.72813 4.50067 5.42426L6.48057 5.70711Z" fill="#EBECF0" mask="url(#path-1-inside-1_1820_31415)"/>
<path d="M7.5 11H8.5V14.5C8.5 14.7761 8.27614 15 8 15V15C7.72386 15 7.5 14.7761 7.5 14.5V11Z" fill="#EBECF0"/>
</svg>
