<!-- Copyright 2000-2023 JetBrains s.r.o. and contributors. Use of this source code is governed by the Apache 2.0 license. -->
<svg width="16" height="16" viewBox="0 0 16 16" fill="none" xmlns="http://www.w3.org/2000/svg">
<path d="M5.27745 7.86513C5.52853 7.71317 5.72613 7.45263 5.7723 7.12945L5.98559 5.6364C6.07127 5.03661 5.60587 4.5 5 4.5C4.72386 4.5 4.5 4.27614 4.5 4V3C4.5 2.72386 4.72386 2.5 5 2.5H11C11.2761 2.5 11.5 2.72386 11.5 3V4C11.5 4.27614 11.2761 4.5 11 4.5C10.3941 4.5 9.92873 5.03662 10.0144 5.6364L10.2277 7.12938C10.2739 7.45258 10.4715 7.71312 10.7226 7.86508C11.7416 8.48177 12.1782 9.42818 12.366 10.1411C12.3911 10.2363 12.3675 10.3117 12.3121 10.3737C12.2507 10.4423 12.1411 10.5 12 10.5H4.00005C3.85897 10.5 3.74942 10.4423 3.68803 10.3737C3.63257 10.3117 3.60901 10.2363 3.63409 10.1411C3.82189 9.4282 4.25851 8.48182 5.27745 7.86513Z" stroke="#548AF7"/>
<path d="M7.5 11H8.5V14.5C8.5 14.7761 8.27614 15 8 15V15C7.72386 15 7.5 14.7761 7.5 14.5V11Z" fill="#548AF7"/>
</svg>
