<!-- Copyright 2000-2025 JetBrains s.r.o. and contributors. Use of this source code is governed by the Apache 2.0 license. -->
<svg width="16" height="16" viewBox="0 0 16 16" fill="none" xmlns="http://www.w3.org/2000/svg">
<g clip-path="url(#clip0_3936_48764)">
<path d="M7.5 10.7929L4.85355 8.14643C4.65829 7.95117 4.34171 7.95117 4.14645 8.14643C3.95118 8.34169 3.95118 8.65828 4.14645 8.85354L7.64645 12.3535C7.84171 12.5488 8.15829 12.5488 8.35355 12.3535L11.8536 8.85354C12.0488 8.65828 12.0488 8.34169 11.8536 8.14643C11.6583 7.95117 11.3417 7.95117 11.1464 8.14643L8.5 10.7929V4C8.5 3.72386 8.27614 3.5 8 3.5C7.72386 3.5 7.5 3.72386 7.5 4L7.5 10.7929Z" fill="#548AF7"/>
<path fill-rule="evenodd" clip-rule="evenodd" d="M8 0C3.58172 3.86258e-07 -3.86258e-07 3.58172 0 8C3.86258e-07 12.4183 3.58172 16 8 16C12.4183 16 16 12.4183 16 8C16 3.58172 12.4183 -3.86258e-07 8 0ZM8 1C4.13401 1 1 4.13401 1 8C1 11.866 4.13401 15 8 15C11.866 15 15 11.866 15 8C15 4.13401 11.866 1 8 1Z" fill="#548AF7"/>
</g>
<defs>
<clipPath id="clip0_3936_48764">
<rect width="16" height="16" fill="white" transform="matrix(-1 0 0 1 16 0)"/>
</clipPath>
</defs>
</svg>
