<!-- Copyright 2000-2022 JetBrains s.r.o. and contributors. Use of this source code is governed by the Apache 2.0 license. -->
<svg width="16" height="16" viewBox="0 0 16 16" fill="none" xmlns="http://www.w3.org/2000/svg">
<path fill-rule="evenodd" clip-rule="evenodd" d="M3.5 2C2.67157 2 2 2.67157 2 3.5V12.5C2 13.3284 2.67157 14 3.5 14H6H7H12.5C13.3284 14 14 13.3284 14 12.5V3.5C14 2.67157 13.3284 2 12.5 2H7H6H3.5ZM6 3H3.5C3.22386 3 3 3.22386 3 3.5V12.5C3 12.7761 3.22386 13 3.5 13H6V3ZM7 13H12.5C12.7761 13 13 12.7761 13 12.5V3.5C13 3.22386 12.7761 3 12.5 3H7V13Z" fill="#6C707E"/>
<rect x="8" y="5" width="4" height="1" rx="0.5" fill="#6C707E"/>
<rect x="8" y="7.5" width="4" height="1" rx="0.5" fill="#6C707E"/>
<rect x="8" y="10" width="4" height="1" rx="0.5" fill="#6C707E"/>
</svg>
