<!-- Copyright 2000-2022 JetBrains s.r.o. and contributors. Use of this source code is governed by the Apache 2.0 license. -->
<svg width="16" height="16" viewBox="0 0 16 16" fill="none" xmlns="http://www.w3.org/2000/svg">
<path fill-rule="evenodd" clip-rule="evenodd" d="M7.5 0.995728H8.5V7.13378C8.7989 7.30669 9 7.62986 9 8C9 8.55228 8.55228 9 8 9C7.44772 9 7 8.55228 7 8C7 7.62986 7.2011 7.30669 7.5 7.13378V5.04148C6.08114 5.27952 5 6.5135 5 8C5 9.65685 6.34315 11 8 11C9.65685 11 11 9.65685 11 8C11 7.29897 10.7596 6.65411 10.3566 6.14337L11.0674 5.43258C11.6495 6.12731 12 7.02273 12 8C12 10.2091 10.2091 12 8 12C5.79086 12 4 10.2091 4 8C4 5.96019 5.52684 4.277 7.5 4.03095V2.02054C4.42023 2.27461 2 4.85467 2 8C2 11.3137 4.68629 14 8 14C11.3137 14 14 11.3137 14 8C14 6.47037 13.4276 5.07443 12.4853 4.01469L13.1935 3.30653C14.3162 4.54812 15 6.19421 15 8C15 11.866 11.866 15 8 15C4.13401 15 1 11.866 1 8C1 4.30212 3.86736 1.27396 7.5 1.01758V0.995728Z" fill="#CED0D6"/>
</svg>
