<!-- Copyright 2000-2022 JetBrains s.r.o. and contributors. Use of this source code is governed by the Apache 2.0 license. -->
<svg width="16" height="16" viewBox="0 0 16 16" fill="none" xmlns="http://www.w3.org/2000/svg">
<path d="M13 12.5C13 12.2239 13.2239 12 13.5 12H15.5C15.7761 12 16 12.2239 16 12.5V14.5C16 14.7761 15.7761 15 15.5 15H13.5C13.2239 15 13 14.7761 13 14.5V12.5Z" fill="#3574F0"/>
<path d="M9 12.5C9 12.2239 9.22386 12 9.5 12H11.5C11.7761 12 12 12.2239 12 12.5V14.5C12 14.7761 11.7761 15 11.5 15H9.5C9.22386 15 9 14.7761 9 14.5V12.5Z" fill="#3574F0"/>
<path d="M13 8.5C13 8.22386 13.2239 8 13.5 8H15.5C15.7761 8 16 8.22386 16 8.5V10.5C16 10.7761 15.7761 11 15.5 11H13.5C13.2239 11 13 10.7761 13 10.5V8.5Z" fill="#3574F0"/>
<path d="M13 4L8.5 4L6.73559 2.28327C6.5489 2.10163 6.29871 2 6.03823 2H2.75C1.7835 2 1 2.83574 1 3.86667V12.1333C1 13.1643 1.7835 14 2.75 14H8V13H2.75C2.3956 13 2 12.6738 2 12.1333V3.86667C2 3.32624 2.3956 3 2.75 3H6.03823L8.09379 5H13C13.5523 5 14 5.44772 14 6V7H15V6C15 4.89543 14.1046 4 13 4Z" fill="#6C707E"/>
</svg>
