<!-- Copyright 2000-2024 JetBrains s.r.o. and contributors. Use of this source code is governed by the Apache 2.0 license. -->
<svg width="16" height="16" viewBox="0 0 16 16" fill="none" xmlns="http://www.w3.org/2000/svg">
<path d="M2.63333 3L6.1217 3L8.04022 5H13C13.5523 5 14 5.44771 14 6V8H15V6C15 4.89543 14.1046 4 13 4L8.46667 4L6.84336 2.30775C6.65477 2.11115 6.39413 2 6.1217 2H2.63333C1.73127 2 1 2.83574 1 3.86667V12.1333C1 13.1643 1.73127 14 2.63333 14H9L9.00009 13H2.63333C2.40481 13 2 12.7416 2 12.1333V3.86667C2 3.25841 2.40481 3 2.63333 3Z" fill="#6C707E"/>
<path d="M11 9C10.4477 9 10 9.44772 10 10V11C10 11.5523 10.4477 12 11 12H15C15.5523 12 16 11.5523 16 11V10C16 9.44772 15.5523 9 15 9H11Z" fill="#4682FA"/>
<path d="M11 13C10.4477 13 10 13.4477 10 14V15C10 15.5523 10.4477 16 11 16H15C15.5523 16 16 15.5523 16 15V14C16 13.4477 15.5523 13 15 13H11Z" fill="#4682FA"/>
</svg>
