<!-- Copyright 2000-2023 JetBrains s.r.o. and contributors. Use of this source code is governed by the Apache 2.0 license. -->
<svg width="28" height="28" viewBox="0 0 28 28" fill="none" xmlns="http://www.w3.org/2000/svg">
<circle cx="14" cy="14" r="12.5" fill="#4682FA"/>
<path d="M13.9366 21.004C13.5872 21.004 13.2868 20.8805 13.0353 20.6333C12.7839 20.3819 12.6582 20.0793 12.6582 19.7256C12.6582 19.3762 12.7839 19.0779 13.0353 18.8307C13.2868 18.5793 13.5872 18.4536 13.9366 18.4536C14.2818 18.4536 14.5801 18.5793 14.8315 18.8307C15.0872 19.0779 15.215 19.3762 15.215 19.7256C15.215 19.96 15.1554 20.1752 15.036 20.3712C14.921 20.563 14.7676 20.7164 14.5758 20.8315C14.3841 20.9465 14.171 21.004 13.9366 21.004Z" fill="white"/>
<path d="M13.8358 16.5C13.3589 16.5 12.9724 16.1134 12.9724 15.6366V15.6366C12.9809 14.8791 13.0597 14.6127 13.2089 14.1647C13.3623 13.7168 13.5796 13.3543 13.8609 13.0774C14.1421 12.8005 14.4809 12.548 14.8772 12.3199C15.1329 12.1652 15.363 11.9921 15.5676 11.8007C15.7721 11.6093 15.934 11.3894 16.0533 11.1409C16.1727 10.8925 16.2316 10.6123 16.2316 10.3109C16.2316 9.94845 16.1421 9.63487 15.9632 9.37016C15.7842 9.10545 15.5455 8.90183 15.2472 8.75929C14.9532 8.61269 14.6251 8.53938 14.2629 8.53938C13.9347 8.53938 13.6215 8.60454 13.3232 8.73486C13.0249 8.86518 12.7778 9.0688 12.5818 9.34572C12.5422 9.40075 12.5061 9.459 12.4733 9.52048C12.2301 9.97682 11.8418 10.4025 11.3246 10.4025V10.4025C10.7655 10.4025 10.2997 9.92801 10.4658 9.39414C10.5629 9.0824 10.7014 8.79952 10.8815 8.54549C11.2394 8.03644 11.7124 7.65159 12.3005 7.39095C12.8928 7.13032 13.547 7 14.2629 7C15.047 7 15.733 7.1405 16.3211 7.4215C16.9092 7.69842 17.3651 8.08734 17.689 8.58825C18.0171 9.08509 18.1812 9.66541 18.1812 10.3292C18.1812 10.7853 18.1073 11.202 17.9582 11.5685C17.809 11.931 17.596 12.2548 17.319 12.5398C17.0462 12.8249 16.7181 13.0774 16.3346 13.2973C15.9724 13.5131 15.6783 13.7371 15.4525 13.9692C15.2309 14.2014 15.068 14.4062 14.9658 14.7239C14.8635 15.0415 14.809 15.1683 14.8005 15.6366V15.6366C14.8005 16.1134 14.4139 16.5 13.9371 16.5H13.8358Z" fill="white"/>
</svg>
