<!-- Copyright 2000-2022 JetBrains s.r.o. and contributors. Use of this source code is governed by the Apache 2.0 license. -->
<svg width="28" height="28" viewBox="0 0 28 28" fill="none" xmlns="http://www.w3.org/2000/svg">
<circle cx="14" cy="14" r="12.5" fill="#3574F0"/>
<path d="M13.9371 21.0039C13.5877 21.0039 13.2872 20.8803 13.0358 20.6332C12.7844 20.3818 12.6587 20.0792 12.6587 19.7255C12.6587 19.3761 12.7844 19.0778 13.0358 18.8306C13.2872 18.5792 13.5877 18.4535 13.9371 18.4535C14.2823 18.4535 14.5806 18.5792 14.832 18.8306C15.0877 19.0778 15.2155 19.3761 15.2155 19.7255C15.2155 19.9599 15.1559 20.1751 15.0365 20.3711C14.9215 20.5629 14.7681 20.7163 14.5763 20.8313C14.3845 20.9464 14.1715 21.0039 13.9371 21.0039Z" fill="white"/>
<path d="M13.836 16.5C13.3591 16.5 12.9726 16.1134 12.9726 15.6366V15.6366C12.9811 14.8791 13.0599 14.6127 13.2091 14.1647C13.3625 13.7168 13.5798 13.3543 13.8611 13.0774C14.1423 12.8005 14.4811 12.548 14.8774 12.3199C15.1331 12.1652 15.3632 11.9921 15.5677 11.8007C15.7723 11.6093 15.9342 11.3894 16.0535 11.1409C16.1728 10.8925 16.2318 10.6123 16.2318 10.3109C16.2318 9.94845 16.1423 9.63487 15.9633 9.37016C15.7844 9.10545 15.5457 8.90183 15.2474 8.75929C14.9534 8.61269 14.6253 8.53938 14.2631 8.53938C13.9349 8.53938 13.6217 8.60454 13.3234 8.73486C13.0251 8.86518 12.778 9.0688 12.5819 9.34572C12.5424 9.40075 12.5063 9.459 12.4735 9.52048C12.2303 9.97682 11.8419 10.4025 11.3248 10.4025V10.4025C10.7657 10.4025 10.2998 9.92801 10.466 9.39414C10.563 9.0824 10.7016 8.79952 10.8817 8.54549C11.2396 8.03644 11.7126 7.65159 12.3007 7.39095C12.893 7.13032 13.5471 7 14.2631 7C15.0471 7 15.7332 7.1405 16.3213 7.4215C16.9094 7.69842 17.3653 8.08734 17.6892 8.58825C18.0173 9.08509 18.1814 9.66541 18.1814 10.3292C18.1814 10.7853 18.1075 11.202 17.9584 11.5685C17.8092 11.931 17.5961 12.2548 17.3192 12.5398C17.0464 12.8249 16.7183 13.0774 16.3348 13.2973C15.9726 13.5131 15.6785 13.7371 15.4527 13.9692C15.2311 14.2014 15.0682 14.4062 14.9659 14.7239C14.8637 15.0415 14.8092 15.1683 14.8007 15.6366V15.6366C14.8007 16.1134 14.4141 16.5 13.9373 16.5H13.836Z" fill="white"/>
</svg>
