<!-- Copyright 2000-2024 JetBrains s.r.o. and contributors. Use of this source code is governed by the Apache 2.0 license. -->
<svg width="16" height="16" viewBox="0 0 16 16" fill="none" xmlns="http://www.w3.org/2000/svg">
<circle cx="8" cy="8" r="6.5" stroke="#6F737A"/>
<path d="M7.59245 8.521C7.67312 8.33767 7.77212 8.18 7.88945 8.048C8.00679 7.916 8.16445 7.75833 8.36245 7.575C8.55312 7.40267 8.70345 7.25417 8.81345 7.1295C8.92712 7.00483 9.02245 6.86 9.09945 6.695C9.17645 6.52633 9.21495 6.33933 9.21495 6.134C9.21495 5.903 9.16545 5.69767 9.06645 5.518C8.97112 5.33833 8.83545 5.199 8.65945 5.1C8.48345 5.001 8.28179 4.9515 8.05445 4.9515C7.80145 4.9515 7.57779 5.0065 7.38345 5.1165C7.18912 5.2265 7.03879 5.3805 6.93245 5.5785C6.90638 5.62705 6.88351 5.67735 6.86383 5.72943C6.75806 6.00931 6.5304 6.2605 6.2312 6.2605V6.2605C5.932 6.2605 5.68157 6.01527 5.74167 5.72217C5.78989 5.48707 5.87148 5.27051 5.98645 5.0725C6.18445 4.7315 6.46312 4.4675 6.82245 4.2805C7.18179 4.0935 7.59612 4 8.06545 4C8.51279 4 8.90695 4.08617 9.24795 4.2585C9.58895 4.43083 9.85295 4.67467 10.04 4.99C10.227 5.30167 10.3186 5.661 10.315 6.068C10.315 6.38333 10.2655 6.662 10.1665 6.904C10.0675 7.14233 9.94645 7.34217 9.80345 7.5035C9.66045 7.66483 9.47529 7.84633 9.24795 8.048C9.07929 8.19833 8.94729 8.32483 8.85195 8.4275C8.75662 8.53017 8.67595 8.64567 8.60995 8.774C8.59197 8.80996 8.57743 8.84636 8.56569 8.88312C8.47784 9.15799 8.28252 9.401 7.99395 9.401V9.401C7.70538 9.401 7.45381 9.16525 7.4934 8.87941C7.51026 8.75764 7.54001 8.6378 7.59245 8.521Z" fill="#6F737A"/>
<circle cx="8" cy="10.75" r="0.75" fill="#6F737A"/>
</svg>
