<!-- Copyright 2000-2023 JetBrains s.r.o. and contributors. Use of this source code is governed by the Apache 2.0 license. -->
<svg width="16" height="16" viewBox="0 0 16 16" fill="none" xmlns="http://www.w3.org/2000/svg">
<path fill-rule="evenodd" clip-rule="evenodd" d="M7.5 3.33737C7.68355 3.19041 7.93511 3.00584 8.24275 2.82125C8.91206 2.41967 9.87706 2 11 2C12.1229 2 13.0879 2.41967 13.7572 2.82125C14.0944 3.02357 14.3643 3.22587 14.551 3.37865C14.6446 3.4552 14.7178 3.51976 14.7688 3.5663C14.7965 3.59158 14.8239 3.61721 14.8506 3.6435C14.9449 3.73702 15 3.86703 15 4V13.5C15 13.7022 14.8782 13.8845 14.6913 13.9619C14.5048 14.0392 14.2902 13.9967 14.1472 13.8543L14.1464 13.8536L14.1369 13.8443C14.1281 13.8359 14.1139 13.8225 14.0945 13.8048C14.0556 13.7693 13.9961 13.7167 13.9178 13.6526C13.7607 13.5241 13.5306 13.3514 13.2428 13.1787C12.6621 12.8303 11.8771 12.5 11 12.5C10.1229 12.5 9.33794 12.8303 8.75725 13.1787C8.46943 13.3514 8.23926 13.5241 8.08224 13.6526C8.00393 13.7167 7.94436 13.7693 7.90549 13.8048C7.88815 13.8206 7.87102 13.8367 7.85414 13.853C7.83701 13.8702 7.81855 13.8862 7.79892 13.9008C7.78588 13.9106 7.77231 13.9197 7.75825 13.9282C7.62428 14.009 7.45751 14.0236 7.30866 13.9619C7.24287 13.9347 7.18772 13.8934 7.13688 13.8443C7.12813 13.8359 7.11393 13.8225 7.09451 13.8048C7.05564 13.7693 6.99607 13.7167 6.91776 13.6526C6.76074 13.5241 6.53057 13.3514 6.24275 13.1787C5.66206 12.8303 4.87706 12.5 4 12.5C3.12294 12.5 2.33794 12.8303 1.75725 13.1787C1.46943 13.3514 1.23926 13.5241 1.08224 13.6526C1.00393 13.7167 0.944363 13.7693 0.905494 13.8048C0.886075 13.8225 0.871868 13.8359 0.86312 13.8443L0.854136 13.853L0.85334 13.8538C0.710341 13.9966 0.495403 14.0393 0.308658 13.9619C0.121821 13.8845 0 13.7022 0 13.5V4C0 3.86754 0.0539197 3.73872 0.147648 3.64525L0.171548 3.622C0.185749 3.6084 0.205722 3.58959 0.231225 3.5663C0.2822 3.51976 0.355446 3.4552 0.449006 3.37865C0.635738 3.22587 0.905566 3.02357 1.24275 2.82125C1.91206 2.41967 2.87706 2 4 2C5.12294 2 6.08794 2.41967 6.75725 2.82125C7.06489 3.00584 7.31645 3.19041 7.5 3.33737ZM8 12.474C8.07644 12.4236 8.15744 12.3724 8.24275 12.3213C8.91206 11.9197 9.87706 11.5 11 11.5C12.1229 11.5 13.0879 11.9197 13.7572 12.3213C13.8426 12.3724 13.9236 12.4236 14 12.474V4.2214C13.9755 4.20039 13.948 4.17735 13.9178 4.1526C13.7607 4.02413 13.5306 3.85143 13.2428 3.67875C12.6621 3.33033 11.8771 3 11 3C10.1229 3 9.33794 3.33033 8.75725 3.67875C8.46943 3.85143 8.23926 4.02413 8.08224 4.1526C8.05199 4.17735 8.02454 4.20039 8 4.2214V12.474ZM1 4.2214C1.02454 4.20039 1.05199 4.17735 1.08224 4.1526C1.23926 4.02413 1.46943 3.85143 1.75725 3.67875C2.33794 3.33033 3.12294 3 4 3C4.87706 3 5.66206 3.33033 6.24275 3.67875C6.53057 3.85143 6.76074 4.02413 6.91776 4.1526C6.94801 4.17735 6.97546 4.20039 7 4.2214V12.474C6.92356 12.4236 6.84256 12.3724 6.75725 12.3213C6.08794 11.9197 5.12294 11.5 4 11.5C2.87706 11.5 1.91206 11.9197 1.24275 12.3213C1.15744 12.3724 1.07644 12.4236 1 12.474V4.2214Z" fill="#CED0D6"/>
</svg>
