<!-- Copyright 2000-2022 JetBrains s.r.o. and contributors. Use of this source code is governed by the Apache 2.0 license. -->
<svg width="16" height="16" viewBox="0 0 16 16" fill="none" xmlns="http://www.w3.org/2000/svg">
<path d="M1 10.5C1 10.7761 1.22386 11 1.5 11C1.77614 11 2 10.7761 2 10.5H1ZM13.6263 10.3322C13.8098 10.5386 14.1258 10.5572 14.3322 10.3737C14.5386 10.1902 14.5572 9.87421 14.3737 9.66782L13.6263 10.3322ZM11.5 9.99999C11.2239 9.99999 11 10.2238 11 10.5C11 10.7761 11.2239 11 11.5 11V9.99999ZM14.5 10.5V11H15V10.5H14.5ZM15 7.49999C15 7.22385 14.7761 6.99999 14.5 6.99999C14.2239 6.99999 14 7.22385 14 7.49999H15ZM1.5 10.5C2 10.5 2 10.5002 2 10.5004C2 10.5005 2 10.5007 2 10.5008C2 10.5009 2 10.501 2 10.5011C2 10.5011 2 10.5009 2 10.5003C2.00001 10.4993 2.00003 10.4971 2.00009 10.4937C2.0002 10.487 2.00043 10.4759 2.00094 10.4605C2.00197 10.4298 2.00409 10.3824 2.00849 10.3208C2.01731 10.1974 2.03519 10.0178 2.07132 9.80095C2.14399 9.36495 2.28839 8.79125 2.57221 8.22361C2.85506 7.65792 3.27147 7.10745 3.88673 6.69728C4.49885 6.28919 5.33749 6 6.5 6V5C5.16251 5 4.12615 5.33581 3.33203 5.86522C2.54103 6.39255 2.01994 7.09208 1.67779 7.77639C1.33661 8.45875 1.16851 9.13505 1.08493 9.63655C1.04294 9.88848 1.02175 10.0995 1.01104 10.2495C1.00567 10.3246 1.00292 10.3847 1.0015 10.4272C1.00079 10.4485 1.00041 10.4654 1.00022 10.4776C1.00012 10.4837 1.00006 10.4887 1.00003 10.4924C1.00002 10.4943 1.00001 10.4959 1.00001 10.4971C1 10.4978 1 10.4983 1 10.4988C1 10.499 1 10.4993 1 10.4995C1 10.4997 1 10.5 1.5 10.5ZM6.5 6C8.06824 6 9.82619 7.02606 11.2543 8.14375C11.9546 8.69176 12.5497 9.24102 12.97 9.65366C13.1799 9.85969 13.3454 10.0309 13.4578 10.15C13.514 10.2094 13.5568 10.2558 13.5853 10.287C13.5995 10.3025 13.6102 10.3142 13.617 10.3219C13.6205 10.3257 13.623 10.3285 13.6245 10.3302C13.6253 10.3311 13.6258 10.3317 13.6261 10.332C13.6263 10.3322 13.6264 10.3323 13.6264 10.3323C13.6264 10.3323 13.6264 10.3323 13.6264 10.3323C13.6264 10.3322 13.6263 10.3322 14 10C14.3737 9.66782 14.3736 9.66772 14.3735 9.66761C14.3735 9.66755 14.3733 9.66742 14.3732 9.66729C14.373 9.66705 14.3727 9.66674 14.3724 9.66636C14.3717 9.6656 14.3708 9.66457 14.3696 9.66327C14.3673 9.66068 14.364 9.65701 14.3598 9.65231C14.3513 9.64292 14.3391 9.62938 14.3231 9.61197C14.2913 9.57717 14.2448 9.52688 14.1848 9.46333C14.0648 9.33626 13.8904 9.15594 13.6706 8.94009C13.2315 8.50898 12.6079 7.93324 11.8707 7.35625C10.4238 6.22394 8.43176 5 6.5 5V6ZM11.5 11H14.5V9.99999H11.5V11ZM15 10.5V7.49999H14V10.5H15Z" fill="#CED0D6"/>
</svg>
