<!-- Copyright 2000-2025 JetBrains s.r.o. and contributors. Use of this source code is governed by the Apache 2.0 license. -->
<svg width="16" height="16" viewBox="0 0 16 16" fill="none" xmlns="http://www.w3.org/2000/svg">
<circle cx="12" cy="12" r="3.5" fill="#43454A" stroke="#CED0D6"/>
<path d="M12 10.5V12L13 13" stroke="#CED0D6" stroke-linecap="round"/>
<path d="M8.00001 3C7.97851 3 7.95704 3.00014 7.93561 3.00041C5.20397 3.03501 3.00023 5.26015 3.00023 8V8.29266L4.14645 7.14645C4.34171 6.95118 4.65829 6.95118 4.85355 7.14645C5.04882 7.34171 5.04882 7.65829 4.85355 7.85355L2.5 10.2071L0.146447 7.85355C-0.0488155 7.65829 -0.0488155 7.34171 0.146447 7.14645C0.341709 6.95118 0.658291 6.95118 0.853553 7.14645L2.00023 8.29313V8.0152L2.00001 8C2.00001 4.68629 4.68652 2 8.00023 2C8.11142 2 8.22192 2.00303 8.33164 2.00901C9.165 2.0544 9.95297 2.26984 10.6615 2.62115C10.8728 2.72587 11.0771 2.84266 11.2733 2.97063L11.2823 2.97663C12.3197 3.65592 13.1338 4.64784 13.5908 5.81811C13.6913 6.07534 13.5642 6.36529 13.307 6.46574C13.0497 6.5662 12.7598 6.43911 12.6593 6.18189C11.9317 4.31859 10.1192 3 8.00001 3Z" fill="#CED0D6"/>
<path d="M7.08377 12.9163C6.42584 12.7945 5.81354 12.5439 5.27338 12.1917C5.04206 12.0409 4.73228 12.1061 4.58145 12.3374C4.43063 12.5688 4.49589 12.8785 4.7272 13.0294C5.51158 13.5408 6.42319 13.8737 7.40334 13.9706C7.25985 13.6364 7.15176 13.2834 7.08377 12.9163Z" fill="#CED0D6"/>
</svg>
