<!-- Copyright 2000-2022 JetBrains s.r.o. and contributors. Use of this source code is governed by the Apache 2.0 license. -->
<svg width="16" height="16" viewBox="0 0 16 16" fill="none" xmlns="http://www.w3.org/2000/svg">
<path d="M1.5 3C1.22386 3 1 3.22386 1 3.5C1 3.77614 1.22386 4 1.5 4V3ZM5.5 4C5.77614 4 6 3.77614 6 3.5C6 3.22386 5.77614 3 5.5 3V4ZM1.5 7.5C1.22386 7.5 1 7.72386 1 8C1 8.27614 1.22386 8.5 1.5 8.5V7.5ZM5.5 8.5C5.77614 8.5 6 8.27614 6 8C6 7.72386 5.77614 7.5 5.5 7.5V8.5ZM1.5 12C1.22386 12 1 12.2239 1 12.5C1 12.7761 1.22386 13 1.5 13V12ZM14.5 13C14.7761 13 15 12.7761 15 12.5C15 12.2239 14.7761 12 14.5 12V13ZM1.5 4H5.5V3H1.5V4ZM1.5 8.5H5.5V7.5H1.5V8.5ZM1.5 13H14.5V12H1.5V13Z" fill="#6C707E"/>
<path fill-rule="evenodd" clip-rule="evenodd" d="M11.5 3C11.7762 3 12 3.22386 12 3.5L12 9.29291L14.1465 7.14646C14.3418 6.95119 14.6584 6.9512 14.8536 7.14646C15.0489 7.34172 15.0489 7.65831 14.8536 7.85357L11.8536 10.8536L11.5 11.2071L11.1465 10.8536L8.14651 7.85356C7.95124 7.6583 7.95125 7.34172 8.14651 7.14646C8.34177 6.9512 8.65835 6.9512 8.85362 7.14646L11 9.29289L11 3.5C11 3.22386 11.2239 3 11.5 3Z" fill="#6C707E"/>
</svg>
