<!-- Copyright 2000-2023 JetBrains s.r.o. and contributors. Use of this source code is governed by the Apache 2.0 license. -->
<svg width="16" height="16" viewBox="0 0 16 16" fill="none" xmlns="http://www.w3.org/2000/svg">
<path d="M1.5 3C1.22386 3 1 3.22386 1 3.5C1 3.77614 1.22386 4 1.5 4H14.5C14.7761 4 15 3.77614 15 3.5C15 3.22386 14.7761 3 14.5 3H1.5Z" fill="#6C707E"/>
<path d="M1.5 7.5C1.22386 7.5 1 7.72386 1 8C1 8.27614 1.22386 8.5 1.5 8.5H5.5C5.77614 8.5 6 8.27614 6 8C6 7.72386 5.77614 7.5 5.5 7.5H1.5Z" fill="#6C707E"/>
<path d="M1.5 12C1.22386 12 1 12.2239 1 12.5C1 12.7761 1.22386 13 1.5 13H5.5C5.77614 13 6 12.7761 6 12.5C6 12.2239 5.77614 12 5.5 12H1.5Z" fill="#6C707E"/>
<path d="M11 12.5C11 12.7761 11.2239 13 11.5 13C11.7762 13 12 12.7761 12 12.5V6.70711L14.1464 8.85354C14.3417 9.0488 14.6583 9.0488 14.8536 8.85354C15.0488 8.65828 15.0488 8.3417 14.8536 8.14644L11.8536 5.14645C11.6583 4.95119 11.3417 4.95118 11.1465 5.14644L8.14645 8.14643C7.95119 8.34169 7.95118 8.65828 8.14644 8.85354C8.3417 9.0488 8.65829 9.04881 8.85355 8.85355L11 6.70709V12.5Z" fill="#6C707E"/>
</svg>
