<!-- Copyright 2000-2023 JetBrains s.r.o. and contributors. Use of this source code is governed by the Apache 2.0 license. -->
<svg width="20" height="20" viewBox="0 0 20 20" fill="none" xmlns="http://www.w3.org/2000/svg">
<path fill-rule="evenodd" clip-rule="evenodd" d="M14.5 9C14.5 12.0376 12.0376 14.5 9 14.5C5.96243 14.5 3.5 12.0376 3.5 9C3.5 5.96243 5.96243 3.5 9 3.5C12.0376 3.5 14.5 5.96243 14.5 9ZM13.3584 14.478C12.1625 15.4307 10.6478 16 9 16C5.13401 16 2 12.866 2 9C2 5.13401 5.13401 2 9 2C12.866 2 16 5.13401 16 9C16 10.6478 15.4307 12.1625 14.478 13.3584C14.5086 13.3812 14.5379 13.4065 14.5657 13.4343L18.5657 17.4343C18.8781 17.7467 18.8781 18.2533 18.5657 18.5657C18.2533 18.8781 17.7467 18.8781 17.4343 18.5657L13.4343 14.5657C13.4065 14.5379 13.3812 14.5086 13.3584 14.478Z" fill="#6C707E"/>
</svg>
