<svg width="16" height="16" viewBox="0 0 16 16" fill="none" xmlns="http://www.w3.org/2000/svg">
<mask id="path-1-inside-1_357:1824" fill="white">
<path fill-rule="evenodd" clip-rule="evenodd" d="M5.57045 2.99146C5.43117 3.23892 5.16809 3.39081 4.88413 3.3877L3.11496 3.36832C2.88917 3.36585 2.67153 3.46012 2.53066 3.63661C2.09879 4.1777 1.74546 4.78425 1.48795 5.43898C1.40525 5.64924 1.43241 5.88502 1.54752 6.07944L2.44999 7.60376C2.59466 7.84811 2.59466 8.15189 2.44999 8.39625L1.54752 9.92057C1.43241 10.115 1.40525 10.3508 1.48795 10.561C1.74546 11.2158 2.09879 11.8223 2.53067 12.3634C2.67153 12.5399 2.88917 12.6342 3.11497 12.6317L4.88413 12.6123C5.16809 12.6092 5.43117 12.7611 5.57045 13.0085L6.43874 14.5512C6.5497 14.7484 6.74067 14.8899 6.96444 14.9232C7.30383 14.9738 7.65118 15 8.00465 15C8.35807 15 8.70537 14.9738 9.04471 14.9233C9.26849 14.8899 9.45946 14.7484 9.57043 14.5513L10.4387 13.0085C10.578 12.7611 10.8411 12.6092 11.125 12.6123L12.8943 12.6317C13.1201 12.6342 13.3378 12.5399 13.4786 12.3634C13.9105 11.8223 14.2638 11.2158 14.5213 10.5612C14.604 10.3509 14.5768 10.1151 14.4617 9.92069L13.5592 8.39625C13.4145 8.15189 13.4145 7.84811 13.5592 7.60376L14.4617 6.07931C14.5768 5.88489 14.604 5.6491 14.5213 5.43884C14.2638 4.78416 13.9105 4.17766 13.4786 3.63661C13.3378 3.46012 13.1201 3.36585 12.8943 3.36832L11.125 3.3877C10.8411 3.39081 10.578 3.23892 10.4387 2.99146L9.57043 1.44873C9.45946 1.25157 9.26849 1.11007 9.04471 1.07674C8.70536 1.02619 8.35807 1 8.00465 1C7.65118 1 7.30384 1.0262 6.96444 1.07676C6.74067 1.1101 6.54971 1.25159 6.43874 1.44875L5.57045 2.99146ZM8.00457 9.65101C8.91639 9.65101 9.65557 8.91183 9.65557 8.00001C9.65557 7.08819 8.91639 6.34902 8.00457 6.34902C7.09275 6.34902 6.35357 7.08819 6.35357 8.00001C6.35357 8.91183 7.09275 9.65101 8.00457 9.65101Z"/>
</mask>
<path d="M6.96444 1.07676L6.81709 0.087675L6.96444 1.07676ZM6.43874 1.44875L5.56729 0.958267L6.43874 1.44875ZM9.57043 1.44873L8.69898 1.93921L9.57043 1.44873ZM11.125 3.3877L11.1141 2.38776L11.125 3.3877ZM13.4786 3.63661L14.2602 3.01279L13.4786 3.63661ZM12.8943 3.36832L12.9053 4.36826L12.8943 3.36832ZM14.4617 6.07931L13.6012 5.56985L14.4617 6.07931ZM14.5213 5.43884L15.4519 5.0728L14.5213 5.43884ZM13.5592 8.39625L12.6987 8.9057L13.5592 8.39625ZM14.5213 10.5612L15.4519 10.9272L14.5213 10.5612ZM14.4617 9.92069L13.6012 10.4301L14.4617 9.92069ZM10.4387 13.0085L9.56728 12.5181L10.4387 13.0085ZM9.04471 14.9233L9.19204 15.9124L9.04471 14.9233ZM9.57043 14.5513L8.69898 14.0608L9.57043 14.5513ZM6.43874 14.5512L5.56729 15.0417L6.43874 14.5512ZM6.96444 14.9232L7.11179 13.9342L6.96444 14.9232ZM4.88413 12.6123L4.87318 11.6124L4.88413 12.6123ZM5.57045 13.0085L4.699 13.499L5.57045 13.0085ZM2.53067 12.3634L1.7491 12.9872L2.53067 12.3634ZM3.11497 12.6317L3.12592 13.6316L3.11497 12.6317ZM1.54752 9.92057L0.687023 9.41111L1.54752 9.92057ZM2.44999 7.60376L1.5895 8.11321L2.44999 7.60376ZM1.48795 5.43898L0.557341 5.07296L1.48795 5.43898ZM1.54752 6.07944L0.687022 6.58889L1.54752 6.07944ZM5.57045 2.99146L6.4419 3.48194L5.57045 2.99146ZM12.8943 12.6317L12.9053 11.6317L12.8943 12.6317ZM13.4786 12.3634L12.6971 11.7396L13.4786 12.3634ZM3.10401 4.36826L4.87318 4.38764L4.89509 2.38776L3.12592 2.36838L3.10401 4.36826ZM2.41856 5.80499C2.63901 5.24448 2.94173 4.72463 3.31223 4.26043L1.74909 3.01279C1.25585 3.63077 0.851907 4.32401 0.557341 5.07296L2.41856 5.80499ZM3.31049 7.0943L2.40801 5.56998L0.687022 6.58889L1.5895 8.11321L3.31049 7.0943ZM2.40801 10.43L3.31049 8.9057L1.5895 7.88679L0.687023 9.41111L2.40801 10.43ZM3.31224 11.7396C2.94173 11.2754 2.63901 10.7555 2.41856 10.195L0.557342 10.927C0.851909 11.676 1.25585 12.3692 1.7491 12.9872L3.31224 11.7396ZM4.87318 11.6124L3.10401 11.6317L3.12592 13.6316L4.89509 13.6122L4.87318 11.6124ZM7.31019 14.0608L6.4419 12.5181L4.699 13.499L5.56729 15.0417L7.31019 14.0608ZM8.00465 14C7.70066 14 7.40257 13.9775 7.11179 13.9342L6.81709 15.9123C7.2051 15.9701 7.6017 16 8.00465 16V14ZM8.89738 13.9342C8.60665 13.9775 8.30859 14 8.00465 14V16C8.40754 16 8.80408 15.9701 9.19204 15.9124L8.89738 13.9342ZM9.56728 12.5181L8.69898 14.0608L10.4419 15.0418L11.3102 13.499L9.56728 12.5181ZM12.9053 11.6317L11.136 11.6124L11.1141 13.6122L12.8834 13.6316L12.9053 11.6317ZM13.5907 10.1951C13.3702 10.7556 13.0675 11.2754 12.6971 11.7396L14.2602 12.9872C14.7534 12.3693 15.1573 11.6761 15.4519 10.9272L13.5907 10.1951ZM12.6987 8.9057L13.6012 10.4301L15.3222 9.41123L14.4197 7.88679L12.6987 8.9057ZM13.6012 5.56985L12.6987 7.0943L14.4197 8.11321L15.3222 6.58877L13.6012 5.56985ZM12.6971 4.26043C13.0676 4.7246 13.3702 5.24441 13.5907 5.80487L15.4519 5.0728C15.1573 4.32391 14.7534 3.63073 14.2602 3.01279L12.6971 4.26043ZM11.136 4.38764L12.9053 4.36826L12.8834 2.36838L11.1141 2.38776L11.136 4.38764ZM8.69898 1.93921L9.56728 3.48194L11.3102 2.50097L10.4419 0.958247L8.69898 1.93921ZM8.00465 2C8.30859 2 8.60665 2.02252 8.89738 2.06582L9.19204 0.0876492C8.80408 0.029862 8.40754 0 8.00465 0V2ZM7.11179 2.06584C7.40257 2.02253 7.70067 2 8.00465 2V0C7.6017 0 7.20511 0.0298709 6.81709 0.087675L7.11179 2.06584ZM6.4419 3.48194L7.31019 1.93923L5.56729 0.958267L4.699 2.50097L6.4419 3.48194ZM8.65557 8.00001C8.65557 8.35955 8.36411 8.65101 8.00457 8.65101V10.651C9.46868 10.651 10.6556 9.46412 10.6556 8.00001H8.65557ZM8.00457 7.34902C8.36411 7.34902 8.65557 7.64048 8.65557 8.00001H10.6556C10.6556 6.53591 9.46868 5.34902 8.00457 5.34902V7.34902ZM7.35357 8.00001C7.35357 7.64048 7.64503 7.34902 8.00457 7.34902V5.34902C6.54046 5.34902 5.35357 6.53591 5.35357 8.00001H7.35357ZM8.00457 8.65101C7.64503 8.65101 7.35357 8.35955 7.35357 8.00001H5.35357C5.35357 9.46412 6.54046 10.651 8.00457 10.651V8.65101ZM6.81709 0.087675C6.26101 0.170518 5.81584 0.516665 5.56729 0.958267L7.31019 1.93923C7.28358 1.98652 7.22033 2.04967 7.11179 2.06584L6.81709 0.087675ZM10.4419 0.958247C10.1933 0.516635 9.74814 0.170482 9.19204 0.0876492L8.89738 2.06582C8.78884 2.04966 8.72559 1.9865 8.69898 1.93921L10.4419 0.958247ZM11.1141 2.38776C11.1952 2.38687 11.2704 2.43027 11.3102 2.50097L9.56728 3.48194C9.88564 4.04758 10.487 4.39475 11.136 4.38764L11.1141 2.38776ZM14.2602 3.01279C13.9104 2.57452 13.3892 2.36284 12.8834 2.36838L12.9053 4.36826C12.851 4.36885 12.7651 4.34572 12.6971 4.26043L14.2602 3.01279ZM15.3222 6.58877C15.58 6.15333 15.6575 5.59547 15.4519 5.0728L13.5907 5.80487C13.5505 5.70273 13.5737 5.61645 13.6012 5.56985L15.3222 6.58877ZM14.4197 7.88679C14.461 7.9566 14.461 8.0434 14.4197 8.11321L12.6987 7.0943C12.368 7.65283 12.368 8.34718 12.6987 8.9057L14.4197 7.88679ZM15.4519 10.9272C15.6575 10.4045 15.58 9.84667 15.3222 9.41123L13.6012 10.4301C13.5737 10.3836 13.5505 10.2973 13.5907 10.1951L15.4519 10.9272ZM11.3102 13.499C11.2704 13.5697 11.1952 13.6131 11.1141 13.6122L11.136 11.6124C10.487 11.6053 9.88564 11.9524 9.56728 12.5181L11.3102 13.499ZM9.19204 15.9124C9.74814 15.8295 10.1933 15.4834 10.4419 15.0418L8.69898 14.0608C8.72559 14.0135 8.78884 13.9503 8.89738 13.9342L9.19204 15.9124ZM5.56729 15.0417C5.81583 15.4833 6.26101 15.8295 6.81709 15.9123L7.11179 13.9342C7.22033 13.9503 7.28357 14.0135 7.31019 14.0608L5.56729 15.0417ZM4.89509 13.6122C4.81396 13.6131 4.73879 13.5697 4.699 13.499L6.4419 12.5181C6.12354 11.9524 5.52222 11.6053 4.87318 11.6124L4.89509 13.6122ZM1.7491 12.9872C2.09891 13.4255 2.62008 13.6372 3.12592 13.6316L3.10401 11.6317C3.15826 11.6311 3.24416 11.6543 3.31224 11.7396L1.7491 12.9872ZM0.687023 9.41111C0.429226 9.84654 0.351776 10.4044 0.557342 10.927L2.41856 10.195C2.45873 10.2972 2.4356 10.3834 2.40801 10.43L0.687023 9.41111ZM1.5895 8.11321C1.54816 8.0434 1.54816 7.95661 1.5895 7.88679L3.31049 8.9057C3.64117 8.34718 3.64117 7.65283 3.31049 7.0943L1.5895 8.11321ZM0.557341 5.07296C0.351776 5.59563 0.429225 6.15346 0.687022 6.58889L2.40801 5.56998C2.4356 5.61657 2.45873 5.70285 2.41856 5.80499L0.557341 5.07296ZM4.87318 4.38764C5.52221 4.39475 6.12354 4.04758 6.4419 3.48194L4.699 2.50097C4.73879 2.43027 4.81396 2.38687 4.89509 2.38776L4.87318 4.38764ZM12.8834 13.6316C13.3892 13.6372 13.9104 13.4255 14.2602 12.9872L12.6971 11.7396C12.7651 11.6543 12.851 11.6312 12.9053 11.6317L12.8834 13.6316ZM3.12592 2.36838C2.62008 2.36284 2.0989 2.57453 1.74909 3.01279L3.31223 4.26043C3.24416 4.34572 3.15825 4.36885 3.10401 4.36826L3.12592 2.36838Z" fill="#767A8A" mask="url(#path-1-inside-1_357:1824)"/>
</svg>
