<!-- Copyright 2000-2022 JetBrains s.r.o. and contributors. Use of this source code is governed by the Apache 2.0 license. -->
<svg width="20" height="20" viewBox="0 0 20 20" fill="none" xmlns="http://www.w3.org/2000/svg">
<path fill-rule="evenodd" clip-rule="evenodd" d="M3.96373 5.54781C3.6327 5.99572 3.35064 6.48132 3.12511 6.99671L4.14914 8.72634C4.61415 9.51177 4.61415 10.4882 4.14914 11.2736L3.12511 13.0033C3.35064 13.5187 3.63271 14.0043 3.96373 14.4522L5.97157 14.4302C6.88427 14.4202 7.72989 14.9084 8.17758 15.7038L9.16258 17.4539C9.43705 17.4843 9.71644 17.5 10 17.5C10.2836 17.5 10.563 17.4843 10.8374 17.4539L11.8224 15.7038C12.2701 14.9084 13.1157 14.4202 14.0285 14.4302L16.0363 14.4522C16.3673 14.0043 16.6494 13.5186 16.8749 13.0033L15.8509 11.2736C15.3859 10.4882 15.3859 9.51177 15.8509 8.72634L16.8749 6.99671C16.6494 6.48132 16.3673 5.99572 16.0363 5.54781L14.0285 5.56981C13.1157 5.57981 12.2701 5.09159 11.8224 4.29617L10.8374 2.5461C10.563 2.51567 10.2836 2.5 10 2.5C9.71644 2.5 9.43705 2.51567 9.16258 2.54609L8.17758 4.29617C7.72989 5.09159 6.88427 5.57981 5.97157 5.56981L3.96373 5.54781ZM13.6227 10C13.6227 12.0008 12.0008 13.6227 10 13.6227C7.99923 13.6227 6.37729 12.0008 6.37729 10C6.37729 7.99924 7.99923 6.37729 10 6.37729C12.0008 6.37729 13.6227 7.99923 13.6227 10ZM5.988 4.0699C6.35308 4.0739 6.69133 3.87861 6.87041 3.56044L7.98678 1.57695C8.12946 1.32346 8.37499 1.14153 8.6627 1.09868C9.09903 1.03368 9.54558 1 10 1C10.4544 1 10.901 1.03368 11.3373 1.09868C11.625 1.14154 11.8706 1.32346 12.0132 1.57695L13.1296 3.56044C13.3087 3.87861 13.6469 4.0739 14.012 4.0699L16.2867 4.04498C16.577 4.0418 16.8569 4.16301 17.038 4.38992C17.5932 5.08559 18.0475 5.8654 18.3786 6.70716C18.4849 6.9775 18.45 7.28065 18.302 7.53062L17.1416 9.49053C16.9556 9.8047 16.9556 10.1953 17.1416 10.5094L18.302 12.4694C18.45 12.7193 18.4849 13.0225 18.3786 13.2928C18.0475 14.1346 17.5932 14.9144 17.038 15.6101C16.8569 15.837 16.577 15.9582 16.2867 15.955L14.012 15.9301C13.6469 15.9261 13.3087 16.1214 13.1296 16.4395L12.0132 18.423C11.8706 18.6765 11.625 18.8584 11.3373 18.9013C10.901 18.9663 10.4544 19 10 19C9.54558 19 9.09902 18.9663 8.66269 18.9013C8.37498 18.8584 8.12945 18.6765 7.98678 18.423L6.87041 16.4395C6.69133 16.1214 6.35308 15.9261 5.988 15.9301L3.71328 15.955C3.42297 15.9582 3.14315 15.837 2.96204 15.6101C2.40679 14.9144 1.95252 14.1346 1.62144 13.2928C1.51511 13.0225 1.55003 12.7193 1.69803 12.4694L2.8584 10.5094C3.0444 10.1953 3.0444 9.8047 2.8584 9.49053L1.69802 7.53061C1.55003 7.28064 1.51511 6.97749 1.62144 6.70715C1.95252 5.86539 2.40678 5.08558 2.96203 4.38992C3.14315 4.16301 3.42296 4.0418 3.71327 4.04498L5.988 4.0699ZM12.1227 10C12.1227 11.1723 11.1723 12.1227 10 12.1227C8.82766 12.1227 7.87729 11.1723 7.87729 10C7.87729 8.82766 8.82766 7.87729 10 7.87729C11.1723 7.87729 12.1227 8.82766 12.1227 10Z" fill="#AEB3C2"/>
</svg>
