<!-- Copyright 2000-2021 JetBrains s.r.o. and contributors. Use of this source code is governed by the Apache 2.0 license that can be found in the LICENSE file. -->
<svg width="16" height="16" viewBox="0 0 16 16" fill="none" xmlns="http://www.w3.org/2000/svg">
<mask id="path-1-inside-1_404:2283" fill="white">
<path fill-rule="evenodd" clip-rule="evenodd" d="M5.57037 2.99146C5.43109 3.23892 5.16801 3.39081 4.88405 3.3877L3.11488 3.36832C2.88909 3.36585 2.67145 3.46012 2.53058 3.63661C2.09871 4.1777 1.74538 4.78425 1.48787 5.43898C1.40517 5.64924 1.43233 5.88502 1.54744 6.07944L2.44991 7.60376C2.59458 7.84811 2.59458 8.15189 2.44991 8.39625L1.54744 9.92057C1.43233 10.115 1.40517 10.3508 1.48787 10.561C1.74538 11.2158 2.09871 11.8223 2.53059 12.3634C2.67145 12.5399 2.88909 12.6342 3.11489 12.6317L4.88405 12.6123C5.16801 12.6092 5.43109 12.7611 5.57037 13.0085L6.43866 14.5512C6.54962 14.7484 6.74059 14.8899 6.96436 14.9232C7.30375 14.9738 7.6511 15 8.00457 15C8.35799 15 8.70529 14.9738 9.04463 14.9233C9.26841 14.8899 9.45938 14.7484 9.57035 14.5513L10.4386 13.0085C10.5779 12.7611 10.841 12.6092 11.125 12.6123L12.8943 12.6317C13.1201 12.6342 13.3377 12.5399 13.4786 12.3634C13.9104 11.8223 14.2637 11.2158 14.5212 10.5612C14.6039 10.3509 14.5768 10.1151 14.4617 9.92069L13.5591 8.39625C13.4144 8.15189 13.4144 7.84811 13.5591 7.60376L14.4617 6.07931C14.5768 5.88489 14.6039 5.6491 14.5212 5.43884C14.2637 4.78416 13.9104 4.17766 13.4786 3.63661C13.3377 3.46012 13.1201 3.36585 12.8943 3.36832L11.125 3.3877C10.841 3.39081 10.5779 3.23892 10.4386 2.99146L9.57035 1.44873C9.45938 1.25157 9.26841 1.11007 9.04463 1.07674C8.70528 1.02619 8.35799 1 8.00457 1C7.6511 1 7.30376 1.0262 6.96436 1.07676C6.74059 1.1101 6.54963 1.25159 6.43866 1.44875L5.57037 2.99146ZM8.00449 9.65101C8.91631 9.65101 9.65549 8.91183 9.65549 8.00001C9.65549 7.08819 8.91631 6.34902 8.00449 6.34902C7.09267 6.34902 6.35349 7.08819 6.35349 8.00001C6.35349 8.91183 7.09267 9.65101 8.00449 9.65101Z"/>
</mask>
<path d="M6.43866 1.44875L5.56721 0.958267L6.43866 1.44875ZM9.57035 1.44873L10.4418 0.958247L9.57035 1.44873ZM9.04463 1.07674L8.8973 2.06582L9.04463 1.07674ZM11.125 3.3877L11.114 2.38776L11.125 3.3877ZM10.4386 2.99146L11.3101 2.50097L10.4386 2.99146ZM14.4617 6.07931L13.6012 5.56985L14.4617 6.07931ZM14.5212 5.43884L13.5906 5.80487L14.5212 5.43884ZM13.5591 8.39625L14.4196 7.88679L13.5591 8.39625ZM13.5591 7.60376L14.4196 8.11321L13.5591 7.60376ZM14.4617 9.92069L13.6012 10.4302L14.4617 9.92069ZM10.4386 13.0085L9.5672 12.5181L10.4386 13.0085ZM11.125 12.6123L11.1359 11.6124L11.125 12.6123ZM9.04463 14.9233L9.19196 15.9124L9.04463 14.9233ZM9.57035 14.5513L8.6989 14.0608L9.57035 14.5513ZM6.43866 14.5512L5.5672 15.0417L6.43866 14.5512ZM6.96436 14.9232L7.11171 13.9342L6.96436 14.9232ZM4.88405 12.6123L4.8731 11.6124L4.88405 12.6123ZM5.57037 13.0085L4.69892 13.499L5.57037 13.0085ZM2.53059 12.3634L1.74902 12.9872L2.53059 12.3634ZM3.11489 12.6317L3.10393 11.6317L3.11489 12.6317ZM1.54744 9.92057L0.686942 9.41111L1.54744 9.92057ZM1.48787 10.561L2.41848 10.195L1.48787 10.561ZM2.44991 7.60376L1.58942 8.11321L2.44991 7.60376ZM1.48787 5.43898L0.55726 5.07296L1.48787 5.43898ZM1.54744 6.07944L0.686942 6.58889L1.54744 6.07944ZM12.8943 12.6317L12.9052 11.6317L12.8943 12.6317ZM13.4786 12.3634L14.2601 12.9872L13.4786 12.3634ZM3.10393 4.36826L4.8731 4.38764L4.89501 2.38776L3.12584 2.36838L3.10393 4.36826ZM2.41848 5.80499C2.63893 5.24448 2.94165 4.72463 3.31215 4.26043L1.74901 3.01279C1.25577 3.63077 0.851826 4.32401 0.55726 5.07296L2.41848 5.80499ZM3.31041 7.0943L2.40793 5.56998L0.686942 6.58889L1.58942 8.11321L3.31041 7.0943ZM2.40793 10.43L3.31041 8.9057L1.58942 7.88679L0.686942 9.41111L2.40793 10.43ZM3.31215 11.7396C2.94165 11.2754 2.63893 10.7555 2.41848 10.195L0.557261 10.927C0.851828 11.676 1.25577 12.3692 1.74902 12.9872L3.31215 11.7396ZM4.8731 11.6124L3.10393 11.6317L3.12584 13.6316L4.89501 13.6122L4.8731 11.6124ZM7.31011 14.0608L6.44182 12.5181L4.69892 13.499L5.5672 15.0417L7.31011 14.0608ZM8.00457 14C7.70058 14 7.40248 13.9775 7.11171 13.9342L6.81701 15.9123C7.20502 15.9701 7.60162 16 8.00457 16V14ZM8.8973 13.9342C8.60657 13.9775 8.30851 14 8.00457 14V16C8.40746 16 8.804 15.9701 9.19196 15.9124L8.8973 13.9342ZM9.5672 12.5181L8.6989 14.0608L10.4418 15.0418L11.3101 13.499L9.5672 12.5181ZM12.9052 11.6317L11.1359 11.6124L11.114 13.6122L12.8833 13.6316L12.9052 11.6317ZM13.5906 10.1951C13.3702 10.7556 13.0675 11.2754 12.697 11.7396L14.2601 12.9872C14.7533 12.3693 15.1573 11.6761 15.4518 10.9272L13.5906 10.1951ZM12.6986 8.9057L13.6012 10.4302L15.3222 9.41124L14.4196 7.88679L12.6986 8.9057ZM13.6012 5.56985L12.6986 7.0943L14.4196 8.11321L15.3222 6.58877L13.6012 5.56985ZM12.697 4.26043C13.0675 4.7246 13.3702 5.24441 13.5906 5.80487L15.4518 5.0728C15.1573 4.32391 14.7533 3.63073 14.2601 3.01279L12.697 4.26043ZM11.1359 4.38764L12.9052 4.36826L12.8833 2.36838L11.114 2.38776L11.1359 4.38764ZM8.6989 1.93921L9.5672 3.48194L11.3101 2.50097L10.4418 0.958247L8.6989 1.93921ZM8.00457 2C8.30851 2 8.60657 2.02252 8.8973 2.06582L9.19196 0.0876492C8.804 0.029862 8.40746 0 8.00457 0V2ZM7.11171 2.06584C7.40249 2.02253 7.70058 2 8.00457 2V0C7.60162 0 7.20503 0.0298709 6.81701 0.087675L7.11171 2.06584ZM6.44182 3.48194L7.31011 1.93923L5.56721 0.958267L4.69892 2.50097L6.44182 3.48194ZM8.65549 8.00001C8.65549 8.35955 8.36403 8.65101 8.00449 8.65101V10.651C9.46859 10.651 10.6555 9.46412 10.6555 8.00001H8.65549ZM8.00449 7.34902C8.36402 7.34902 8.65549 7.64048 8.65549 8.00001H10.6555C10.6555 6.53591 9.46859 5.34902 8.00449 5.34902V7.34902ZM7.35349 8.00001C7.35349 7.64048 7.64495 7.34902 8.00449 7.34902V5.34902C6.54038 5.34902 5.35349 6.53591 5.35349 8.00001H7.35349ZM8.00449 8.65101C7.64495 8.65101 7.35349 8.35955 7.35349 8.00001H5.35349C5.35349 9.46412 6.54038 10.651 8.00449 10.651V8.65101ZM6.81701 0.087675C6.26093 0.170518 5.81576 0.516665 5.56721 0.958267L7.31011 1.93923C7.2835 1.98652 7.22025 2.04967 7.11171 2.06584L6.81701 0.087675ZM10.4418 0.958247C10.1932 0.516635 9.74806 0.170482 9.19196 0.0876492L8.8973 2.06582C8.78876 2.04966 8.72551 1.9865 8.6989 1.93921L10.4418 0.958247ZM11.114 2.38776C11.1951 2.38687 11.2703 2.43027 11.3101 2.50097L9.5672 3.48194C9.88556 4.04758 10.4869 4.39475 11.1359 4.38764L11.114 2.38776ZM14.2601 3.01279C13.9103 2.57452 13.3891 2.36284 12.8833 2.36838L12.9052 4.36826C12.851 4.36885 12.7651 4.34572 12.697 4.26043L14.2601 3.01279ZM15.3222 6.58877C15.58 6.15333 15.6574 5.59547 15.4518 5.0728L13.5906 5.80487C13.5504 5.70273 13.5736 5.61645 13.6012 5.56985L15.3222 6.58877ZM14.4196 7.88679C14.4609 7.9566 14.4609 8.0434 14.4196 8.11321L12.6986 7.0943C12.3679 7.65283 12.3679 8.34718 12.6986 8.9057L14.4196 7.88679ZM15.4518 10.9272C15.6574 10.4045 15.58 9.84668 15.3222 9.41124L13.6012 10.4302C13.5736 10.3836 13.5504 10.2973 13.5906 10.1951L15.4518 10.9272ZM11.3101 13.499C11.2703 13.5697 11.1951 13.6131 11.114 13.6122L11.1359 11.6124C10.4869 11.6053 9.88556 11.9524 9.5672 12.5181L11.3101 13.499ZM9.19196 15.9124C9.74806 15.8295 10.1932 15.4834 10.4418 15.0418L8.6989 14.0608C8.72551 14.0135 8.78876 13.9503 8.8973 13.9342L9.19196 15.9124ZM5.5672 15.0417C5.81575 15.4833 6.26093 15.8295 6.81701 15.9123L7.11171 13.9342C7.22025 13.9503 7.28349 14.0135 7.31011 14.0608L5.5672 15.0417ZM4.89501 13.6122C4.81388 13.6131 4.73871 13.5697 4.69892 13.499L6.44182 12.5181C6.12346 11.9524 5.52214 11.6053 4.8731 11.6124L4.89501 13.6122ZM1.74902 12.9872C2.09883 13.4255 2.62 13.6372 3.12584 13.6316L3.10393 11.6317C3.15818 11.6311 3.24408 11.6543 3.31215 11.7396L1.74902 12.9872ZM0.686942 9.41111C0.429146 9.84654 0.351696 10.4044 0.557261 10.927L2.41848 10.195C2.45865 10.2972 2.43552 10.3834 2.40793 10.43L0.686942 9.41111ZM1.58942 8.11321C1.54808 8.0434 1.54808 7.95661 1.58942 7.88679L3.31041 8.9057C3.64109 8.34718 3.64109 7.65283 3.31041 7.0943L1.58942 8.11321ZM0.55726 5.07296C0.351695 5.59563 0.429145 6.15346 0.686942 6.58889L2.40793 5.56998C2.43552 5.61657 2.45865 5.70285 2.41848 5.80499L0.55726 5.07296ZM4.8731 4.38764C5.52213 4.39475 6.12346 4.04758 6.44182 3.48194L4.69892 2.50097C4.73871 2.43027 4.81388 2.38687 4.89501 2.38776L4.8731 4.38764ZM12.8833 13.6316C13.3891 13.6372 13.9103 13.4255 14.2601 12.9872L12.697 11.7396C12.7651 11.6543 12.851 11.6312 12.9052 11.6317L12.8833 13.6316ZM3.12584 2.36838C2.62 2.36284 2.09882 2.57453 1.74901 3.01279L3.31215 4.26043C3.24407 4.34572 3.15817 4.36885 3.10393 4.36826L3.12584 2.36838Z" fill="#CED0D6" mask="url(#path-1-inside-1_404:2283)"/>
</svg>
