<!-- Copyright 2000-2022 JetBrains s.r.o. and contributors. Use of this source code is governed by the Apache 2.0 license. -->
<svg width="16" height="16" viewBox="0 0 16 16" fill="none" xmlns="http://www.w3.org/2000/svg">
<path fill-rule="evenodd" clip-rule="evenodd" d="M3.22729 4.36961C2.92306 4.76924 2.66809 5.20781 2.4711 5.67626L3.31065 7.0943C3.64133 7.65283 3.64133 8.34718 3.31065 8.9057L2.4711 10.3237C2.66809 10.7922 2.92307 11.2308 3.22729 11.6304L4.87334 11.6124C5.52238 11.6053 6.1237 11.9524 6.44206 12.5181L7.24972 13.953C7.49667 13.984 7.74865 14 8.00482 14C8.26093 14 8.51287 13.984 8.75977 13.9531L9.56744 12.5181C9.8858 11.9524 10.4871 11.6053 11.1362 11.6124L12.7823 11.6304C13.0865 11.2308 13.3415 10.7923 13.5385 10.3239L12.6989 8.9057C12.3682 8.34718 12.3682 7.65283 12.6989 7.0943L13.5385 5.67613C13.3415 5.20773 13.0865 4.76921 12.7823 4.36961L11.1362 4.38764C10.4871 4.39475 9.8858 4.04758 9.56744 3.48194L8.75977 2.04693C8.51287 2.01599 8.26093 2 8.00482 2C7.74865 2 7.49667 2.016 7.24973 2.04695L6.44206 3.48194C6.1237 4.04758 5.52238 4.39475 4.87334 4.38764L3.22729 4.36961ZM10.6557 8.00001C10.6557 9.46412 9.46884 10.651 8.00473 10.651C6.54063 10.651 5.35373 9.46412 5.35373 8.00001C5.35373 6.53591 6.54063 5.34902 8.00473 5.34902C9.46884 5.34902 10.6557 6.53591 10.6557 8.00001ZM4.8843 3.3877C5.16825 3.39081 5.43133 3.23892 5.57061 2.99146L6.4389 1.44875C6.54987 1.25159 6.74083 1.1101 6.96461 1.07676C7.304 1.0262 7.65135 1 8.00482 1C8.35823 1 8.70553 1.02619 9.04487 1.07674C9.26865 1.11007 9.45962 1.25157 9.57059 1.44873L10.4389 2.99146C10.5782 3.23892 10.8413 3.39081 11.1252 3.3877L12.8945 3.36832C13.1203 3.36585 13.3379 3.46012 13.4788 3.63661C13.9107 4.17766 14.264 4.78416 14.5215 5.43884C14.6042 5.6491 14.577 5.88489 14.4619 6.07931L13.5594 7.60376C13.4147 7.84811 13.4147 8.15189 13.5594 8.39625L14.4619 9.92069C14.577 10.1151 14.6042 10.3509 14.5215 10.5612C14.264 11.2158 13.9106 11.8223 13.4788 12.3634C13.3379 12.5399 13.1203 12.6342 12.8945 12.6317L11.1252 12.6123C10.8413 12.6092 10.5782 12.7611 10.4389 13.0085L9.57059 14.5513C9.45962 14.7484 9.26865 14.8899 9.04488 14.9233C8.70553 14.9738 8.35823 15 8.00482 15C7.65135 15 7.304 14.9738 6.9646 14.9232C6.74083 14.8899 6.54987 14.7484 6.4389 14.5512L5.57061 13.0085C5.43133 12.7611 5.16825 12.6092 4.8843 12.6123L3.11513 12.6317C2.88933 12.6342 2.6717 12.5399 2.53083 12.3634C2.09895 11.8223 1.74562 11.2158 1.48811 10.561C1.40542 10.3508 1.43258 10.115 1.54768 9.92057L2.45016 8.39625C2.59483 8.15189 2.59483 7.84811 2.45016 7.60376L1.54768 6.07944C1.43258 5.88502 1.40542 5.64924 1.48811 5.43898C1.74562 4.78425 2.09895 4.1777 2.53083 3.63661C2.67169 3.46012 2.88933 3.36585 3.11513 3.36832L4.8843 3.3877ZM9.65573 8.00001C9.65573 8.91183 8.91655 9.65101 8.00473 9.65101C7.09291 9.65101 6.35373 8.91183 6.35373 8.00001C6.35373 7.08819 7.09291 6.34902 8.00473 6.34902C8.91655 6.34902 9.65573 7.08819 9.65573 8.00001Z" fill="#767A8A"/>
</svg>
