<!-- Copyright 2000-2021 JetBrains s.r.o. and contributors. Use of this source code is governed by the Apache 2.0 license that can be found in the LICENSE file. -->
<svg width="20" height="20" viewBox="0 0 20 20" fill="none" xmlns="http://www.w3.org/2000/svg">
<mask id="path-1-inside-1_401_2769" fill="white">
<path fill-rule="evenodd" clip-rule="evenodd" d="M6.87041 3.56044C6.69133 3.87861 6.35308 4.0739 5.988 4.0699L3.71327 4.04498C3.42296 4.0418 3.14315 4.16301 2.96203 4.38992C2.40678 5.08558 1.95252 5.86539 1.62144 6.70715C1.51511 6.97749 1.55003 7.28064 1.69802 7.53061L2.8584 9.49053C3.0444 9.8047 3.0444 10.1953 2.8584 10.5094L1.69803 12.4694C1.55003 12.7193 1.51511 13.0225 1.62144 13.2928C1.95252 14.1346 2.40679 14.9144 2.96204 15.6101C3.14315 15.837 3.42297 15.9582 3.71328 15.955L5.988 15.9301C6.35308 15.9261 6.69133 16.1214 6.87041 16.4395L7.98678 18.423C8.12945 18.6765 8.37498 18.8584 8.66269 18.9013C9.09902 18.9663 9.54558 19 10 19C10.4544 19 10.901 18.9663 11.3373 18.9013C11.625 18.8584 11.8706 18.6765 12.0132 18.423L13.1296 16.4395C13.3087 16.1214 13.6469 15.9261 14.012 15.9301L16.2867 15.955C16.577 15.9582 16.8569 15.837 17.038 15.6101C17.5932 14.9144 18.0475 14.1346 18.3786 13.2928C18.4849 13.0225 18.45 12.7193 18.302 12.4694L17.1416 10.5094C16.9556 10.1953 16.9556 9.8047 17.1416 9.49053L18.302 7.53062C18.45 7.28065 18.4849 6.9775 18.3786 6.70716C18.0475 5.8654 17.5932 5.08559 17.038 4.38992C16.8569 4.16301 16.577 4.0418 16.2867 4.04498L14.012 4.0699C13.6469 4.0739 13.3087 3.87861 13.1296 3.56044L12.0132 1.57695C11.8706 1.32346 11.625 1.14154 11.3373 1.09868C10.901 1.03368 10.4544 1 10 1C9.54558 1 9.09903 1.03368 8.6627 1.09868C8.37499 1.14153 8.12946 1.32346 7.98678 1.57695L6.87041 3.56044ZM9.99998 12.1227C11.1723 12.1227 12.1227 11.1723 12.1227 10C12.1227 8.82766 11.1723 7.87729 9.99998 7.87729C8.82764 7.87729 7.87727 8.82766 7.87727 10C7.87727 11.1723 8.82764 12.1227 9.99998 12.1227Z"/>
</mask>
<path d="M12.0132 1.57695L13.3204 0.841227L12.0132 1.57695ZM11.3373 1.09868L11.1163 2.58231L11.3373 1.09868ZM14.012 4.0699L13.9956 2.56999L14.012 4.0699ZM17.038 4.38992L15.8656 5.32565L17.038 4.38992ZM18.302 7.53062L17.0112 6.76643L18.302 7.53062ZM18.3786 6.70716L19.7745 6.15813L18.3786 6.70716ZM17.1416 10.5094L15.8509 11.2736L17.1416 10.5094ZM17.1416 9.49053L15.8509 8.72634L17.1416 9.49053ZM18.3786 13.2928L19.7745 13.8418L18.3786 13.2928ZM18.302 12.4694L19.5927 11.7052L18.302 12.4694ZM13.1296 16.4395L14.4368 17.1753L13.1296 16.4395ZM14.012 15.9301L14.0285 14.4302L14.012 15.9301ZM11.3373 18.9013L11.1163 17.4177L11.3373 18.9013ZM8.66269 18.9013L8.44169 20.3849L8.66269 18.9013ZM6.87041 16.4395L8.17758 15.7038L6.87041 16.4395ZM2.96204 15.6101L1.78969 16.5458L2.96204 15.6101ZM3.71328 15.955L3.72971 17.4549L3.71328 15.955ZM1.62144 13.2928L0.225534 13.8419L1.62144 13.2928ZM2.8584 9.49053L4.14914 8.72634L2.8584 9.49053ZM2.8584 10.5094L1.56765 9.74526L2.8584 10.5094ZM1.62144 6.70715L0.225532 6.15812L1.62144 6.70715ZM1.69802 7.53061L0.40728 8.29479L1.69802 7.53061ZM6.87041 3.56044L8.17758 4.29617L6.87041 3.56044ZM3.69684 5.54489L5.97157 5.56981L6.00443 2.56999L3.72971 2.54507L3.69684 5.54489ZM3.01735 7.25619C3.29284 6.55576 3.67119 5.90598 4.13439 5.32565L1.78968 3.4542C1.14238 4.26519 0.612196 5.17503 0.225532 6.15812L3.01735 7.25619ZM4.14914 8.72634L2.98877 6.76642L0.40728 8.29479L1.56765 10.2547L4.14914 8.72634ZM2.98877 13.2336L4.14914 11.2736L1.56765 9.74526L0.407281 11.7052L2.98877 13.2336ZM4.13439 14.6743C3.67119 14.094 3.29284 13.4442 3.01735 12.7438L0.225534 13.8419C0.6122 14.8249 1.14238 15.7348 1.78969 16.5458L4.13439 14.6743ZM5.97157 14.4302L3.69685 14.4551L3.72971 17.4549L6.00443 17.43L5.97157 14.4302ZM9.29395 17.6873L8.17758 15.7038L5.56323 17.1753L6.6796 19.1587L9.29395 17.6873ZM10 17.5C9.6198 17.5 9.24711 17.4718 8.8837 17.4177L8.44169 20.3849C8.95094 20.4608 9.47137 20.5 10 20.5V17.5ZM11.1163 17.4177C10.7529 17.4718 10.3802 17.5 10 17.5V20.5C10.5286 20.5 11.0491 20.4608 11.5583 20.3849L11.1163 17.4177ZM11.8224 15.7038L10.7061 17.6873L13.3204 19.1587L14.4368 17.1753L11.8224 15.7038ZM16.3032 14.4551L14.0285 14.4302L13.9956 17.43L16.2703 17.4549L16.3032 14.4551ZM16.9827 12.7438C16.7072 13.4442 16.3288 14.094 15.8656 14.6743L18.2103 16.5458C18.8576 15.7348 19.3878 14.8249 19.7745 13.8418L16.9827 12.7438ZM15.8509 11.2736L17.0112 13.2335L19.5927 11.7052L18.4324 9.74526L15.8509 11.2736ZM17.0112 6.76643L15.8509 8.72634L18.4324 10.2547L19.5927 8.2948L17.0112 6.76643ZM15.8656 5.32565C16.3288 5.90598 16.7072 6.55576 16.9827 7.25619L19.7745 6.15813C19.3878 5.17504 18.8576 4.26519 18.2103 3.45419L15.8656 5.32565ZM14.0285 5.56981L16.3032 5.54489L16.2703 2.54507L13.9956 2.56999L14.0285 5.56981ZM10.7061 2.31267L11.8224 4.29617L14.4368 2.82472L13.3204 0.841227L10.7061 2.31267ZM10 2.5C10.3802 2.5 10.7529 2.52817 11.1163 2.58231L11.5583 -0.384953C11.0491 -0.460813 10.5286 -0.5 10 -0.5V2.5ZM8.8837 2.5823C9.24711 2.52817 9.6198 2.5 10 2.5V-0.5C9.47137 -0.5 8.95094 -0.460814 8.44169 -0.384954L8.8837 2.5823ZM8.17758 4.29617L9.29396 2.31267L6.67961 0.841226L5.56323 2.82472L8.17758 4.29617ZM10.6227 10C10.6227 10.3439 10.3439 10.6227 9.99998 10.6227V13.6227C12.0007 13.6227 13.6227 12.0008 13.6227 10H10.6227ZM9.99998 9.37729C10.3439 9.37729 10.6227 9.65609 10.6227 10H13.6227C13.6227 7.99923 12.0007 6.37729 9.99998 6.37729V9.37729ZM9.37727 10C9.37727 9.65609 9.65607 9.37729 9.99998 9.37729V6.37729C7.99921 6.37729 6.37727 7.99924 6.37727 10H9.37727ZM9.99998 10.6227C9.65607 10.6227 9.37727 10.3439 9.37727 10H6.37727C6.37727 12.0008 7.99921 13.6227 9.99998 13.6227V10.6227ZM8.44169 -0.384954C7.65551 -0.267841 7.02866 0.221063 6.67961 0.841226L9.29396 2.31267C9.23026 2.42585 9.09447 2.55091 8.8837 2.5823L8.44169 -0.384954ZM13.3204 0.841227C12.9714 0.221065 12.3445 -0.267839 11.5583 -0.384953L11.1163 2.58231C10.9055 2.55091 10.7698 2.42585 10.7061 2.31267L13.3204 0.841227ZM13.9956 2.56999C14.1781 2.56799 14.3472 2.66563 14.4368 2.82472L11.8224 4.29617C12.2701 5.09159 13.1157 5.57981 14.0285 5.56981L13.9956 2.56999ZM18.2103 3.45419C17.7158 2.83461 16.9807 2.53729 16.2703 2.54507L16.3032 5.54489C16.1734 5.54631 15.9979 5.49141 15.8656 5.32565L18.2103 3.45419ZM19.5927 8.2948C19.9548 7.68331 20.0651 6.89707 19.7745 6.15813L16.9827 7.25619C16.9047 7.05792 16.9452 6.87798 17.0112 6.76643L19.5927 8.2948ZM18.4324 9.74526C18.5254 9.90234 18.5254 10.0976 18.4324 10.2547L15.8509 8.72634C15.3859 9.51177 15.3859 10.4882 15.8509 11.2736L18.4324 9.74526ZM19.7745 13.8418C20.0651 13.1029 19.9548 12.3167 19.5927 11.7052L17.0112 13.2335C16.9452 13.122 16.9047 12.942 16.9827 12.7438L19.7745 13.8418ZM14.4368 17.1753C14.3472 17.3343 14.1781 17.432 13.9956 17.43L14.0285 14.4302C13.1157 14.4202 12.2701 14.9084 11.8224 15.7038L14.4368 17.1753ZM11.5583 20.3849C12.3445 20.2678 12.9714 19.7789 13.3204 19.1587L10.7061 17.6873C10.7698 17.5741 10.9056 17.4491 11.1163 17.4177L11.5583 20.3849ZM6.6796 19.1587C7.02865 19.7789 7.6555 20.2678 8.44169 20.3849L8.8837 17.4177C9.09446 17.4491 9.23025 17.5741 9.29395 17.6873L6.6796 19.1587ZM6.00443 17.43C5.82189 17.432 5.65277 17.3343 5.56323 17.1753L8.17758 15.7038C7.72989 14.9084 6.88427 14.4202 5.97157 14.4302L6.00443 17.43ZM1.78969 16.5458C2.28422 17.1654 3.01934 17.4627 3.72971 17.4549L3.69685 14.4551C3.8266 14.4537 4.00209 14.5086 4.13439 14.6743L1.78969 16.5458ZM0.407281 11.7052C0.045247 12.3167 -0.065105 13.1029 0.225534 13.8419L3.01735 12.7438C3.09533 12.9421 3.05481 13.122 2.98877 13.2336L0.407281 11.7052ZM1.56765 10.2547C1.47465 10.0976 1.47465 9.90234 1.56765 9.74526L4.14914 11.2736C4.61415 10.4882 4.61415 9.51177 4.14914 8.72634L1.56765 10.2547ZM0.225532 6.15812C-0.0651071 6.89706 0.0452461 7.6833 0.40728 8.29479L2.98877 6.76642C3.05481 6.87797 3.09533 7.05792 3.01735 7.25619L0.225532 6.15812ZM5.97157 5.56981C6.88427 5.57981 7.72989 5.09159 8.17758 4.29617L5.56323 2.82472C5.65277 2.66563 5.82189 2.56799 6.00443 2.56999L5.97157 5.56981ZM16.2703 17.4549C16.9807 17.4627 17.7158 17.1654 18.2103 16.5458L15.8656 14.6743C15.9979 14.5086 16.1734 14.4537 16.3032 14.4551L16.2703 17.4549ZM3.72971 2.54507C3.01933 2.53729 2.28421 2.83461 1.78968 3.4542L4.13439 5.32565C4.00208 5.49141 3.82659 5.54631 3.69684 5.54489L3.72971 2.54507Z" fill="#CED0D6" mask="url(#path-1-inside-1_401_2769)"/>
</svg>
