<svg width="16" height="16" viewBox="0 0 16 16" fill="none" xmlns="http://www.w3.org/2000/svg">
<path d="M11 4.12132L10.5607 4.56066C9.97487 5.14645 9.02513 5.14645 8.43934 4.56066C7.85355 3.97487 7.85355 3.02513 8.43934 2.43934L9.67661 1.20207C9.13945 1.07003 8.5779 1 8 1C4.13401 1 1 4.13401 1 8C1 11.866 4.13401 15 8 15C11.5265 15 14.4439 12.3923 14.9291 9H12.5C11.6716 9 11 8.32843 11 7.5V4.12132Z" fill="#253627"/>
<path fill-rule="evenodd" clip-rule="evenodd" d="M12.1464 0.146447C12.3417 -0.0488155 12.6583 -0.0488155 12.8536 0.146447L15.8536 3.14645C16.0488 3.34171 16.0488 3.65829 15.8536 3.85355C15.6583 4.04882 15.3417 4.04882 15.1464 3.85355L13 1.70711V7.5C13 7.77614 12.7761 8 12.5 8C12.2239 8 12 7.77614 12 7.5V1.70711L9.85355 3.85355C9.65829 4.04882 9.34171 4.04882 9.14645 3.85355C8.95118 3.65829 8.95118 3.34171 9.14645 3.14645L12.1464 0.146447Z" fill="#CED0D6"/>
<path d="M9.67661 1.20207L8.82274 2.05594C8.55376 2.01906 8.27911 2 8 2C4.68629 2 2 4.68629 2 8C2 11.3137 4.68629 14 8 14C10.973 14 13.441 11.8377 13.917 9H14.9291C14.4439 12.3923 11.5265 15 8 15C4.13401 15 1 11.866 1 8C1 4.13401 4.13401 1 8 1C8.5779 1 9.13945 1.07003 9.67661 1.20207Z" fill="#57965C"/>
<path d="M10 5.5V4.5H6V5.5H7.5V10.5H6V11.5H10V10.5H8.5V5.5H10Z" fill="#57965C"/>
<path fill-rule="evenodd" clip-rule="evenodd" d="M12.1464 0.146447C12.3417 -0.0488155 12.6583 -0.0488155 12.8536 0.146447L15.8536 3.14645C16.0488 3.34171 16.0488 3.65829 15.8536 3.85355C15.6583 4.04882 15.3417 4.04882 15.1464 3.85355L13 1.70711V7.5C13 7.77614 12.7761 8 12.5 8C12.2239 8 12 7.77614 12 7.5V1.70711L9.85355 3.85355C9.65829 4.04882 9.34171 4.04882 9.14645 3.85355C8.95118 3.65829 8.95118 3.34171 9.14645 3.14645L12.1464 0.146447Z" fill="#CED0D6"/>
</svg>
