<!-- Copyright 2000-2022 JetBrains s.r.o. and contributors. Use of this source code is governed by the Apache 2.0 license. -->
<svg width="16" height="16" viewBox="0 0 16 16" fill="none" xmlns="http://www.w3.org/2000/svg">
<path d="M1.5 3C1.22386 3 1 3.22386 1 3.5C1 3.77614 1.22386 4 1.5 4V3ZM14.5 4C14.7761 4 15 3.77614 15 3.5C15 3.22386 14.7761 3 14.5 3V4ZM1.5 7.5C1.22386 7.5 1 7.72386 1 8C1 8.27614 1.22386 8.5 1.5 8.5V7.5ZM8.5 12.5L8.14645 12.1464L7.79289 12.5L8.14645 12.8536L8.5 12.5ZM10.8536 10.8536C11.0488 10.6583 11.0488 10.3417 10.8536 10.1464C10.6583 9.95118 10.3417 9.95118 10.1464 10.1464L10.8536 10.8536ZM10.1464 14.8536C10.3417 15.0488 10.6583 15.0488 10.8536 14.8536C11.0488 14.6583 11.0488 14.3417 10.8536 14.1464L10.1464 14.8536ZM1.5 12C1.22386 12 1 12.2239 1 12.5C1 12.7761 1.22386 13 1.5 13V12ZM5.5 13C5.77614 13 6 12.7761 6 12.5C6 12.2239 5.77614 12 5.5 12V13ZM1.5 4H14.5V3H1.5V4ZM1.5 8.5H12.25V7.5H1.5V8.5ZM12.25 12H8.5V13H12.25V12ZM8.85355 12.8536L10.8536 10.8536L10.1464 10.1464L8.14645 12.1464L8.85355 12.8536ZM8.14645 12.8536L10.1464 14.8536L10.8536 14.1464L8.85355 12.1464L8.14645 12.8536ZM1.5 13H5.5V12H1.5V13ZM12.25 13C13.7688 13 15 11.7688 15 10.25H14C14 11.2165 13.2165 12 12.25 12V13ZM12.25 8.5C13.2165 8.5 14 9.2835 14 10.25H15C15 8.73122 13.7688 7.5 12.25 7.5V8.5Z" fill="#6C707E"/>
</svg>
