<!-- Copyright 2000-2022 JetBrains s.r.o. and contributors. Use of this source code is governed by the Apache 2.0 license. -->
<svg width="16" height="16" viewBox="0 0 16 16" fill="none" xmlns="http://www.w3.org/2000/svg">
<path d="M1.62632 9.66782C1.44286 9.87421 1.46145 10.1902 1.66785 10.3737C1.87424 10.5572 2.19027 10.5386 2.37373 10.3322L1.62632 9.66782ZM14 10.5C14 10.7761 14.2239 11 14.5 11C14.7761 11 15 10.7761 15 10.5H14ZM2 7.5C2 7.22386 1.77614 7 1.5 7C1.22386 7 1 7.22386 1 7.5H2ZM1.5 10.5H1V11H1.5V10.5ZM4.5 11C4.77614 11 5 10.7761 5 10.5C5 10.2239 4.77614 10 4.5 10V11ZM2.00003 10C2.37373 10.3322 2.37368 10.3322 2.37364 10.3323C2.37364 10.3323 2.37362 10.3323 2.37363 10.3323C2.37366 10.3323 2.37375 10.3322 2.37389 10.332C2.37419 10.3317 2.37473 10.3311 2.3755 10.3302C2.37705 10.3285 2.37955 10.3257 2.38299 10.3219C2.38987 10.3142 2.40049 10.3025 2.41472 10.287C2.44318 10.2558 2.48606 10.2094 2.54224 10.15C2.65466 10.0309 2.82016 9.85969 3.03001 9.65366C3.45029 9.24102 4.04545 8.69176 4.74568 8.14375C6.17384 7.02606 7.93178 6 9.50003 6V5C7.56827 5 5.57621 6.22394 4.12937 7.35625C3.39211 7.93324 2.76851 8.50898 2.32942 8.94009C2.10958 9.15594 1.93524 9.33626 1.81523 9.46333C1.75521 9.52688 1.70873 9.57717 1.67689 9.61197C1.66096 9.62938 1.6487 9.64292 1.64023 9.65231C1.63599 9.65701 1.6327 9.66068 1.63038 9.66327C1.62922 9.66457 1.6283 9.6656 1.62762 9.66636C1.62728 9.66674 1.627 9.66705 1.62679 9.66729C1.62668 9.66742 1.62656 9.66755 1.62651 9.66761C1.62641 9.66772 1.62632 9.66782 2.00003 10ZM9.50003 6C10.6625 6 11.5012 6.28919 12.1133 6.69727C12.7285 7.10745 13.1449 7.65792 13.4278 8.22361C13.7116 8.79125 13.856 9.36494 13.9287 9.80095C13.9648 10.0178 13.9827 10.1974 13.9915 10.3208C13.9959 10.3824 13.998 10.4298 13.9991 10.4605C13.9996 10.4759 13.9998 10.487 13.9999 10.4937C14 10.4971 14 10.4993 14 10.5003C14 10.5009 14 10.5011 14 10.5011C14 10.501 14 10.5009 14 10.5008C14 10.5007 14 10.5005 14 10.5004C14 10.5002 14 10.5 14.5 10.5C15 10.5 15 10.4997 15 10.4995C15 10.4993 15 10.499 15 10.4988C15 10.4983 15 10.4978 15 10.4971C15 10.4959 15 10.4943 15 10.4924C14.9999 10.4887 14.9999 10.4837 14.9998 10.4776C14.9996 10.4654 14.9992 10.4485 14.9985 10.4272C14.9971 10.3847 14.9943 10.3246 14.989 10.2495C14.9782 10.0995 14.9571 9.88848 14.9151 9.63655C14.8315 9.13506 14.6634 8.45875 14.3222 7.77639C13.9801 7.09208 13.459 6.39255 12.668 5.86523C11.8739 5.33581 10.8375 5 9.50003 5V6ZM1 7.5V10.5H2V7.5H1ZM1.5 11H4.5V10H1.5V11Z" fill="#6C707E"/>
</svg>
