<!-- Copyright 2000-2022 JetBrains s.r.o. and contributors. Use of this source code is governed by the Apache 2.0 license. -->
<svg width="16" height="16" viewBox="0 0 16 16" fill="none" xmlns="http://www.w3.org/2000/svg">
<path fill-rule="evenodd" clip-rule="evenodd" d="M10 5C10 3.34315 11.3431 2 13 2C14.6569 2 16 3.34315 16 5V6.5C16 6.77614 15.7761 7 15.5 7C15.2239 7 15 6.77614 15 6.5V5C15 3.89543 14.1046 3 13 3C11.8954 3 11 3.89543 11 5V6C12.1046 6 13 6.89543 13 8V12C13 13.1046 12.1046 14 11 14H5C3.89543 14 3 13.1046 3 12V8C3 6.89543 3.89543 6 5 6H10V5ZM5 7H10.5H11C11.5523 7 12 7.44772 12 8V12C12 12.5523 11.5523 13 11 13H5C4.44772 13 4 12.5523 4 12V8C4 7.44772 4.44772 7 5 7ZM8 8.5C7.72386 8.5 7.5 8.72386 7.5 9V11C7.5 11.2761 7.72386 11.5 8 11.5C8.27614 11.5 8.5 11.2761 8.5 11V9C8.5 8.72386 8.27614 8.5 8 8.5Z" fill="#6C707E"/>
</svg>
