<!-- Copyright 2000-2022 JetBrains s.r.o. and contributors. Use of this source code is governed by the Apache 2.0 license. -->
<svg width="16" height="16" viewBox="0 0 16 16" fill="none" xmlns="http://www.w3.org/2000/svg">
<path fill-rule="evenodd" clip-rule="evenodd" d="M10.8536 3.85343C11.0489 4.04868 11.0489 4.36526 10.8536 4.56053C10.6584 4.7558 10.3418 4.75581 10.1465 4.56055L8.50005 2.91414L8.50005 10.5142C8.50005 10.7903 8.27619 11.0142 8.00005 11.0142C7.72391 11.0142 7.50005 10.7903 7.50005 10.5142L7.50005 2.91417L5.85351 4.56068C5.65825 4.75594 5.34166 4.75594 5.1464 4.56067C4.95114 4.36541 4.95115 4.04883 5.14641 3.85357L7.6465 1.35352L8.00004 0.999984L8.35359 1.35352L10.8536 3.85343Z" fill="#CED0D6"/>
<rect width="12" height="1" rx="0.5" transform="matrix(1 0 0 -1 2 14)" fill="#CED0D6"/>
<rect x="2" y="10" width="1" height="4" rx="0.5" fill="#CED0D6"/>
<rect x="13" y="10" width="1" height="4" rx="0.5" fill="#CED0D6"/>
</svg>
