<!-- Copyright 2000-2022 JetBrains s.r.o. and contributors. Use of this source code is governed by the Apache 2.0 license. -->
<svg width="28" height="28" viewBox="0 0 28 28" fill="none" xmlns="http://www.w3.org/2000/svg">
<g clip-path="url(#clip0_3005_40356)">
<path d="M12.72 2.74194C13.2889 1.75269 14.7111 1.75269 15.28 2.74194L26.7998 22.7742C27.3687 23.7634 26.6576 25 25.5198 25H2.4802C1.34244 25 0.631339 23.7634 1.20022 22.7742L12.72 2.74194Z" fill="#FCC75B"/>
<path d="M15.3 10C15.3 9.28203 14.718 8.7 14 8.7C13.282 8.7 12.7 9.28203 12.7 10L15.3 10ZM12.7 15.5C12.7 16.218 13.282 16.8 14 16.8C14.718 16.8 15.3 16.218 15.3 15.5L12.7 15.5ZM12.7 10L12.7 15.5L15.3 15.5L15.3 10L12.7 10Z" fill="#7D5020"/>
<path d="M15.5 20.5C15.5 21.3284 14.8284 22 14 22C13.1716 22 12.5 21.3284 12.5 20.5C12.5 19.6716 13.1716 19 14 19C14.8284 19 15.5 19.6716 15.5 20.5Z" fill="#7D5020"/>
</g>
<defs>
<clipPath id="clip0_3005_40356">
<rect width="28" height="28" fill="white"/>
</clipPath>
</defs>
</svg>
