<!-- Copyright 2000-2023 JetBrains s.r.o. and contributors. Use of this source code is governed by the Apache 2.0 license. -->
<svg width="28" height="28" viewBox="0 0 28 28" fill="none" xmlns="http://www.w3.org/2000/svg">
<g clip-path="url(#clip0_3005_40361)">
<path d="M12.72 2.74194C13.2889 1.75269 14.7111 1.75269 15.28 2.74194L26.7998 22.7742C27.3687 23.7634 26.6576 25 25.5198 25H2.4802C1.34244 25 0.631339 23.7634 1.20022 22.7742L12.72 2.74194Z" fill="#F2C55C"/>
<path d="M15 9C15 8.44772 14.5523 8 14 8C13.4477 8 13 8.44771 13 9L13 15C13 15.5523 13.4477 16 14 16C14.5523 16 15 15.5523 15 15L15 9Z" fill="#2B2D30"/>
<path d="M14 22C14.8284 22 15.5 21.3284 15.5 20.5C15.5 19.6716 14.8284 19 14 19C13.1716 19 12.5 19.6716 12.5 20.5C12.5 21.3284 13.1716 22 14 22Z" fill="#2B2D30"/>
</g>
<defs>
<clipPath id="clip0_3005_40361">
<rect width="28" height="28" fill="white"/>
</clipPath>
</defs>
</svg>
