<!-- Copyright 2000-2021 JetBrains s.r.o. and contributors. Use of this source code is governed by the Apache 2.0 license that can be found in the LICENSE file. -->
<svg width="16" height="16" viewBox="0 0 16 16" fill="none" xmlns="http://www.w3.org/2000/svg">
<path d="M13.8001 2H2.2001C1.86873 2 1.6001 2.26863 1.6001 2.6C1.6001 2.93137 1.86873 3.2 2.2001 3.2H13.8001C14.1315 3.2 14.4001 2.93137 14.4001 2.6C14.4001 2.26863 14.1315 2 13.8001 2Z" fill="#767A8A"/>
<path d="M13.8001 5.6001H2.2001C1.86873 5.6001 1.6001 5.86873 1.6001 6.2001C1.6001 6.53147 1.86873 6.8001 2.2001 6.8001H13.8001C14.1315 6.8001 14.4001 6.53147 14.4001 6.2001C14.4001 5.86873 14.1315 5.6001 13.8001 5.6001Z" fill="#767A8A"/>
<path d="M13.8001 9.2002H2.2001C1.86873 9.2002 1.6001 9.46882 1.6001 9.8002C1.6001 10.1316 1.86873 10.4002 2.2001 10.4002H13.8001C14.1315 10.4002 14.4001 10.1316 14.4001 9.8002C14.4001 9.46882 14.1315 9.2002 13.8001 9.2002Z" fill="#767A8A"/>
<path d="M13.8001 12.7998H2.2001C1.86873 12.7998 1.6001 13.0684 1.6001 13.3998C1.6001 13.7312 1.86873 13.9998 2.2001 13.9998H13.8001C14.1315 13.9998 14.4001 13.7312 14.4001 13.3998C14.4001 13.0684 14.1315 12.7998 13.8001 12.7998Z" fill="#767A8A"/>
</svg>
