<!-- Copyright 2000-2023 JetBrains s.r.o. and contributors. Use of this source code is governed by the Apache 2.0 license. -->
<svg width="16" height="16" viewBox="0 0 16 16" fill="none" xmlns="http://www.w3.org/2000/svg">
<path d="M4.25365 12.2532L4.24787 13.9103C5.33238 14.6003 6.61964 15 8.00025 15C11.8662 15 15.0003 11.866 15.0003 8C15.0003 4.13401 11.8662 1 8.00025 1C7.85547 1 7.71171 1.0044 7.5691 1.01306L8.25511 1.55096L8.27405 1.53L8.57376 1.80081L8.64458 1.85634L8.6407 1.8613L8.71923 1.93226L7.75978 2.9941L7.79672 3.00407C7.86422 3.00136 7.93208 3 8.00024 3C10.7617 3 13.0002 5.23858 13.0002 8C13.0002 10.7614 10.7617 13 8.00024 13C7.08308 13 6.2236 12.7531 5.48465 12.322L4.25365 12.2532Z" fill="#55A76A"/>
<path d="M4.25693 11.3148C4.36751 11.4396 4.48424 11.5588 4.60663 11.672L4.25575 11.6524L4.25693 11.3148Z" fill="#55A76A"/>
<path d="M3.6489 10.4647C3.65253 10.471 3.65617 10.4774 3.65983 10.4838L3.65587 11.6188L2.1274 11.5334L2.83553 10.0285L3.6489 10.4647Z" fill="#55A76A"/>
<path d="M3.17362 9.31005C3.19745 9.39804 3.22361 9.48506 3.25205 9.57105L3.09135 9.48489L3.17362 9.31005Z" fill="#55A76A"/>
<path d="M3.00043 7.95698C3.0003 7.97131 3.00024 7.98565 3.00024 8C3.00024 8.08574 3.0024 8.17099 3.00667 8.25567L2.56185 9.20097L1.1127 8.42395L2.52959 7.2969L3.00043 7.95698Z" fill="#55A76A"/>
<path d="M3.14296 6.809C3.12352 6.88857 3.10598 6.96888 3.0904 7.04989L2.9998 6.92288L3.14296 6.809Z" fill="#55A76A"/>
<path d="M4.53916 4.39154C4.34518 4.57765 4.16617 4.77925 4.00413 4.99435L3.92353 4.53254L4.53916 4.39154Z" fill="#55A76A"/>
<path d="M6.42133 3.25441C6.23815 3.31533 6.05969 3.38655 5.88661 3.4674L5.70662 3.50862L5.8409 3.0978L6.42133 3.25441Z" fill="#55A76A"/>
<path d="M2.36059 12.1474C2.7293 12.6479 3.16304 13.0976 3.64936 13.4839L3.65377 12.2197L2.36059 12.1474Z" fill="#55A76A"/>
<path d="M1.08456 9.08967C1.19239 9.77954 1.40097 10.436 1.69478 11.0436L2.30603 9.74461L1.08456 9.08967Z" fill="#55A76A"/>
<path d="M1.38808 5.69656C1.1636 6.34102 1.03067 7.02837 1.00488 7.74304L2.18069 6.80776L1.38808 5.69656Z" fill="#55A76A"/>
<path d="M3.05498 3.04578C2.66233 3.43773 2.31599 3.87606 2.02488 4.35185L3.23457 4.0748L3.05498 3.04578Z" fill="#55A76A"/>
<path d="M3.65838 2.50891C3.63249 2.52941 3.60676 2.55008 3.58117 2.57093L3.82023 3.94066L5.02431 3.66489L5.26082 2.94129L3.65838 2.50891Z" fill="#55A76A"/>
<path d="M5.77758 1.36025C5.25324 1.53569 4.75656 1.77151 4.2958 2.05945L5.44748 2.37019L5.77758 1.36025Z" fill="#55A76A"/>
<path d="M6.72731 1.11546C6.6416 1.13121 6.55645 1.14851 6.47187 1.16735L6.02756 2.52671L7.10964 2.81868L7.85187 1.99723L6.72731 1.11546Z" fill="#55A76A"/>
<path d="M3.33787 4.66667L1.66393 5.05006L2.6509 6.43374L3.52493 5.7385L3.33787 4.66667Z" fill="#55A76A"/>
</svg>
