<!-- Copyright 2000-2024 JetBrains s.r.o. and contributors. Use of this source code is governed by the Apache 2.0 license. -->
<svg width="16" height="16" viewBox="0 0 16 16" fill="none" xmlns="http://www.w3.org/2000/svg">
<path fill-rule="evenodd" clip-rule="evenodd" d="M8.00001 1C11 1 11 2 11 4L11 6.5C11 7.32843 10.3284 8 9.5 8H6.5C5.11929 8 4 9.11929 4 10.5V11C2 11 1 11 1 7.99999C1 4.99999 2 4.99998 4 4.99998L7.5 5C7.77614 5 8 4.77614 8 4.5C8 4.22386 7.77614 4 7.5 4H5.00001C5.00001 2 5.00001 1 8.00001 1ZM6.5 3C6.77614 3 7 2.77614 7 2.5C7 2.22386 6.77614 2 6.5 2C6.22386 2 6 2.22386 6 2.5C6 2.77614 6.22386 3 6.5 3Z" fill="#548AF7"/>
<path d="M12.328 16C11.6997 16 11.132 15.8476 10.625 15.5429C10.118 15.2382 9.71933 14.8203 9.429 14.2892C9.143 13.7537 9 13.1573 9 12.5C9 11.8427 9.143 11.2484 9.429 10.7174C9.71933 10.1819 10.118 9.76182 10.625 9.45709C11.132 9.15236 11.6997 9 12.328 9C12.861 9 13.3398 9.09142 13.7645 9.27425C14.1892 9.45274 14.5423 9.72264 14.824 10.084C15.1057 10.4409 15.2985 10.8806 15.4025 11.403H14.3625C14.2672 11.0808 14.1177 10.8109 13.914 10.5933C13.7103 10.3756 13.472 10.2146 13.199 10.1101C12.926 10.0012 12.6357 9.94683 12.328 9.94683C11.899 9.94683 11.5133 10.0557 11.171 10.2733C10.833 10.491 10.5687 10.7935 10.378 11.181C10.1873 11.5684 10.092 12.0081 10.092 12.5C10.092 12.9876 10.1873 13.4251 10.378 13.8125C10.5687 14.1999 10.833 14.5047 11.171 14.7267C11.5133 14.9443 11.899 15.0532 12.328 15.0532C12.6357 15.0532 12.926 15.0009 13.199 14.8965C13.472 14.7876 13.7103 14.6244 13.914 14.4067C14.1177 14.1891 14.2672 13.9192 14.3625 13.597H15.4025C15.3028 14.102 15.1078 14.5351 14.8175 14.8965C14.5272 15.2578 14.1675 15.532 13.7385 15.7192C13.3095 15.9064 12.8393 16 12.328 16Z" fill="#CED0D6"/>
<path d="M12 6.5V5C14 5.00001 15 5.00002 15 7.99999C15 8.30559 14.9896 8.58007 14.9689 8.82659C14.7223 8.63622 14.4507 8.47833 14.156 8.35407C13.5899 8.11104 12.9749 8 12.328 8C12.0212 8 11.7218 8.02895 11.4313 8.08755C11.7866 7.65579 12 7.10281 12 6.5Z" fill="#F2C55C"/>
<path d="M9.55156 8.99948C9.53441 8.99983 9.51723 9 9.5 9H6.5C5.67157 9 5 9.67157 5 10.5L5.00001 12C4.99946 14 5.00001 15 8.00001 15C8.24415 15 8.46841 14.9934 8.67442 14.9801C8.63183 14.9112 8.59086 14.8408 8.55155 14.7689L8.54694 14.7603C8.17719 14.0681 8 13.3077 8 12.5C8 11.6924 8.17717 10.9329 8.54855 10.2432L8.54991 10.2407C8.81119 9.75882 9.14587 9.34281 9.55156 8.99948Z" fill="#F2C55C"/>
</svg>
