<!-- Copyright 2000-2023 JetBrains s.r.o. and contributors. Use of this source code is governed by the Apache 2.0 license. -->
<svg width="16" height="16" viewBox="0 0 16 16" fill="none" xmlns="http://www.w3.org/2000/svg">
<path d="M13 3H3C2.44772 3 2 3.44772 2 4V12C2 12.5523 2.44772 13 3 13H8V14H3C1.89543 14 1 13.1046 1 12V4C1 2.89543 1.89543 2 3 2H13C14.1046 2 15 2.89543 15 4V9.36421L14 8.74006V4C14 3.44772 13.5523 3 13 3Z" fill="#CED0D6"/>
<path d="M4.83353 5.16655C4.63827 4.97129 4.32168 4.97129 4.12642 5.16655C3.93116 5.36181 3.93116 5.67839 4.12642 5.87365L5.75277 7.5L4.12642 9.12635C3.93116 9.32161 3.93116 9.63819 4.12642 9.83345C4.32168 10.0287 4.63827 10.0287 4.83353 9.83345L6.81343 7.85355C7.00869 7.65829 7.00869 7.34171 6.81343 7.14645L4.83353 5.16655Z" fill="#CED0D6"/>
<path fill-rule="evenodd" clip-rule="evenodd" d="M9 9.5024C9 8.32466 10.2951 7.60632 11.2942 8.22991L15.2962 10.7277C16.2372 11.3151 16.2372 12.6854 15.2962 13.2727L11.2942 15.7705C10.2951 16.3941 9 15.6758 9 14.4981V9.5024ZM10.7647 9.07823C10.4317 8.87037 10 9.10982 10 9.5024V14.4981C10 14.8906 10.4317 15.1301 10.7647 14.9222L14.7667 12.4244C15.0804 12.2286 15.0804 11.7719 14.7667 11.5761L10.7647 9.07823Z" fill="#57965C"/>
<path d="M10 9.50226C10 9.10968 10.4317 8.87024 10.7647 9.0781L14.7667 11.5759C15.0804 11.7717 15.0804 12.2285 14.7667 12.4243L10.7647 14.9221C10.4317 15.13 10 14.8905 10 14.4979V9.50226Z" fill="#253627"/>
</svg>
