<!-- Copyright 2000-2024 JetBrains s.r.o. and contributors. Use of this source code is governed by the Apache 2.0 license. -->
<svg width="16" height="16" viewBox="0 0 16 16" fill="none" xmlns="http://www.w3.org/2000/svg">
<path d="M8 5C8.55228 5 9 4.55228 9 4C9 3.44772 8.55228 3 8 3C7.44772 3 7 3.44772 7 4C7 4.55228 7.44772 5 8 5Z" fill="#CED0D6"/>
<path d="M9 12C9 12.5523 8.55228 13 8 13C7.44772 13 7 12.5523 7 12C7 11.4477 7.44772 11 8 11C8.55228 11 9 11.4477 9 12Z" fill="#CED0D6"/>
<path fill-rule="evenodd" clip-rule="evenodd" d="M6.5 1C5.11929 1 4 2.11929 4 3.5V4H3.5C2.11929 4 1 5.11929 1 6.5V9.5C1 10.8807 2.11929 12 3.5 12H4V12.5C4 13.8807 5.11929 15 6.5 15H9.5C10.8807 15 12 13.8807 12 12.5V12H12.5C13.8807 12 15 10.8807 15 9.5V6.5C15 5.11929 13.8807 4 12.5 4H12V3.5C12 2.11929 10.8807 1 9.5 1H6.5ZM5 3.5C5 2.67157 5.67157 2 6.5 2H9.5C10.3284 2 11 2.67157 11 3.5V6C11 6.82843 10.3284 7.5 9.5 7.5H6.5C5.11929 7.5 4 8.61929 4 10V11H3.5C2.67157 11 2 10.3284 2 9.5V6.5C2 5.67157 2.67157 5 3.5 5H4C4.55228 5 5 4.55228 5 4V3.5ZM5 12.5C5 13.3284 5.67157 14 6.5 14H9.5C10.3284 14 11 13.3284 11 12.5V12C11 11.4477 11.4477 11 12 11H12.5C13.3284 11 14 10.3284 14 9.5V6.5C14 5.67157 13.3284 5 12.5 5H12V6C12 7.38071 10.8807 8.5 9.5 8.5H6.5C5.67157 8.5 5 9.17157 5 10V12.5Z" fill="#CED0D6"/>
</svg>
