<!-- Copyright 2000-2023 JetBrains s.r.o. and contributors. Use of this source code is governed by the Apache 2.0 license. -->
<svg width="16" height="16" viewBox="0 0 16 16" fill="none" xmlns="http://www.w3.org/2000/svg">
<path d="M12.4583 9.00006C12.1697 9.00138 11.8941 9.02573 11.6515 9.06818C10.937 9.19303 10.8073 9.45435 10.8073 9.93626V10.5727H12.4957V10.7849H10.8073H10.1736C9.68294 10.7849 9.25326 11.0766 9.11886 11.6315C8.96384 12.2676 8.95696 12.6646 9.11886 13.3288C9.23888 13.8232 9.52551 14.1754 10.0162 14.1754H10.5967V13.4125C10.5967 12.8613 11.0789 12.3751 11.6515 12.3751H13.338C13.8074 12.3751 14.1822 11.9927 14.1822 11.5264V9.93626C14.1822 9.48368 13.7962 9.14371 13.338 9.06818C13.0479 9.02043 12.747 8.99873 12.4583 9.00006ZM11.5453 9.51195C11.7197 9.51195 11.8621 9.65512 11.8621 9.83116C11.8621 10.0066 11.7197 10.1484 11.5453 10.1484C11.3702 10.1484 11.2284 10.0066 11.2284 9.83116C11.2284 9.65512 11.3702 9.51195 11.5453 9.51195Z" fill="url(#paint0_linear_8700_12753)"/>
<path d="M14.3931 10.7848V11.5264C14.3931 12.1013 13.9003 12.5852 13.3383 12.5852H11.6518C11.1899 12.5852 10.8076 12.9762 10.8076 13.4338V15.024C10.8076 15.4765 11.2055 15.7427 11.6518 15.8726C12.1863 16.028 12.6988 16.0561 13.3383 15.8726C13.7634 15.7509 14.1825 15.5059 14.1825 15.024V14.3875H12.4961V14.1754H14.1825H15.0267C15.5175 14.1754 15.7003 13.8368 15.871 13.3287C16.0472 12.8056 16.0397 12.3025 15.871 11.6315C15.7497 11.1483 15.5181 10.7848 15.0267 10.7848H14.3931ZM13.4446 14.8118C13.6196 14.8118 13.7614 14.9537 13.7614 15.1291C13.7614 15.3051 13.6196 15.4483 13.4446 15.4483C13.2702 15.4483 13.1277 15.3051 13.1277 15.1291C13.1277 14.9537 13.2702 14.8118 13.4446 14.8118Z" fill="url(#paint1_linear_8700_12753)"/>
<path d="M2.63333 2C1.73127 2 1 2.83574 1 3.86667V12.1333C1 13.1643 1.73127 14 2.63333 14H8.29177C8.22843 13.854 8.18159 13.7067 8.1472 13.5651C8.05454 13.1849 7.99881 12.835 8.00002 12.4663C8.00123 12.0979 8.05923 11.7561 8.1473 11.3948C8.36279 10.5073 9.02895 9.94803 9.80933 9.81543C9.82013 9.51596 9.88321 9.08744 10.2042 8.71525C10.557 8.30612 11.0556 8.15718 11.4791 8.08315C11.7818 8.0302 12.114 8.00163 12.4538 8.00007C12.7938 7.99851 13.151 8.02394 13.5006 8.0815C13.6504 8.10618 13.8049 8.1497 13.9567 8.21171L14.0403 8H15V6C15 4.89543 14.1046 4 13 4L8.46667 4L6.84336 2.30775C6.65477 2.11115 6.39413 2 6.1217 2H2.63333Z" fill="#EBECF0"/>
<path d="M6.1217 3L2.63333 3C2.40481 3 2 3.25841 2 3.86667V12.1333C2 12.7416 2.40481 13 2.63333 13H8.03683C8.06222 13.1848 8.0999 13.371 8.1472 13.5651C8.18159 13.7067 8.22843 13.854 8.29177 14H2.63333C1.73127 14 1 13.1643 1 12.1333V3.86667C1 2.83574 1.73127 2 2.63333 2H6.1217C6.39413 2 6.65477 2.11115 6.84336 2.30775L8.46667 4L13 4C14.1046 4 15 4.89543 15 6V9.14336C14.7847 8.71166 14.4042 8.40493 14 8.2299V6C14 5.44771 13.5523 5 13 5H8.04022L6.1217 3Z" fill="#6C707E"/>
<defs>
<linearGradient id="paint0_linear_8700_12753" x1="9" y1="9" x2="12.8573" y2="12.3233" gradientUnits="userSpaceOnUse">
<stop stop-color="#5A9FD4"/>
<stop offset="1" stop-color="#306998"/>
</linearGradient>
<linearGradient id="paint1_linear_8700_12753" x1="13.404" y1="15.0756" x2="12.0275" y2="13.1253" gradientUnits="userSpaceOnUse">
<stop stop-color="#F4C20E"/>
<stop offset="1" stop-color="#FBDC3E"/>
</linearGradient>
</defs>
</svg>
