<!-- Copyright 2000-2022 JetBrains s.r.o. and contributors. Use of this source code is governed by the Apache 2.0 license. -->
<svg width="16" height="16" viewBox="0 0 16 16" fill="none" xmlns="http://www.w3.org/2000/svg">
<path fill-rule="evenodd" clip-rule="evenodd" d="M6.40652 1.13693C6.93491 1.04481 7.47033 0.999003 8.00669 1.00002L8.01051 1.00004C8.57815 1.00472 9.14451 1.05468 9.70418 1.14945C10.2421 1.20981 10.7429 1.45457 11.1211 1.84248C11.4975 2.2285 11.7816 2.79518 11.7816 3.34402V6.29583C11.7817 6.86983 11.5575 7.42135 11.1568 7.83234C10.756 8.24337 10.2105 8.48148 9.63656 8.49583L9.62156 8.49602H6.51464C6.16363 8.50255 5.82833 8.64301 5.57744 8.88874C5.32791 9.13314 5.08986 9.45131 5.07468 9.80002V11.3001C5.07468 11.6315 4.89693 11.912 4.56556 11.912H3.47756C2.85908 11.912 2.34586 11.6751 1.962 11.2758C1.59454 10.8936 1.36918 10.3888 1.24106 9.86411C0.920936 8.72275 0.919653 7.51559 1.23721 6.3737C1.35378 5.78903 1.6721 5.26354 2.13698 4.88936C2.60668 4.51131 3.1953 4.31244 3.79783 4.32802H4.35756V3.32802C4.35756 2.85353 4.41651 2.32507 4.78625 1.89425C5.14789 1.47288 5.70727 1.26058 6.40508 1.13718L6.40652 1.13693ZM8.00252 2.0322C7.53688 2.03143 7.0145 2.07124 6.55577 2.15117C5.94213 2.25976 5.72564 2.40738 5.63931 2.50797C5.56105 2.59915 5.5 2.75469 5.5 3.16021C5.5 3.58197 5.5 4.05924 5.5 4.52817C5.5 5.0804 5.05237 5.52808 4.50014 5.52815L3.59966 5.52828C3.59375 5.52828 3.58784 5.52819 3.58193 5.52802C3.26186 5.51855 2.94894 5.62367 2.6995 5.82444C2.41731 6.05156 2.30386 6.33968 2.20909 6.67532C1.94378 7.61492 1.94378 8.60963 2.20909 9.54923C2.29979 9.87044 2.39979 10.1975 2.63722 10.4445C2.79936 10.6131 3.19204 10.712 3.47756 10.712H3.96556V9.80002C3.96556 9.79275 3.96569 9.78549 3.96596 9.77822C3.98993 9.11858 4.26621 8.49331 4.73778 8.03143C5.20936 7.56956 5.84024 7.30634 6.50024 7.29609L6.50956 7.29594L9.7144 7.27957C9.97283 7.2714 10.2182 7.16342 10.3988 6.97817C10.5809 6.79134 10.6829 6.5407 10.6828 6.27976V3.18543C10.6579 2.9261 10.5453 2.68278 10.3631 2.49595C10.1556 2.28318 9.90589 2.19983 9.62156 2.15117C9.12008 2.06534 8.51128 2.0365 8.00252 2.0322Z" fill="#6C707E"/>
<path fill-rule="evenodd" clip-rule="evenodd" d="M11 4.5C11 4.16863 10.8503 3.97577 11.1816 3.97577H12.3896C13.0238 3.97577 13.5197 4.23368 13.8761 4.64916C14.2072 5.03522 14.3976 5.5322 14.5193 6.01278C14.8787 7.16663 14.877 8.40293 14.5139 9.55595L14.5127 9.55984C14.3558 10.0466 14.165 10.5488 13.8457 10.9263C13.4915 11.345 13.0116 11.5758 12.3896 11.5758H11.4296V12.5758C11.4296 13.2374 11.1316 13.7398 10.72 14.0924C10.3293 14.4271 9.83982 14.6271 9.40119 14.7508C8.27404 15.1057 7.06483 15.1049 5.93807 14.7483C5.06882 14.4779 3.96564 13.8511 3.96564 12.5758V11.2558C3.96564 10.9244 4.23427 10.6558 4.56564 10.6558C4.89701 10.6558 5.07468 10.9244 5.07468 11.2558V12.7531C5.07468 13.1731 5.51714 13.5383 6.29565 13.7802L6.29885 13.7811C7.19346 14.0646 8.29633 14.0636 9.19095 13.7802C9.50599 13.6803 9.82608 13.5765 10.0818 13.3575C10.2702 13.1961 10.3722 13.0105 10.3722 12.7521C10.3722 12.4881 10.3722 11.972 10.3722 11.5004C10.3722 10.9479 10.8202 10.5002 11.3726 10.5005L12.5 10.501C12.7821 10.501 12.9221 10.4158 13.0399 10.2765C13.1924 10.0963 13.3255 9.79899 13.4803 9.31896C13.7707 8.3953 13.7705 7.15243 13.4797 6.22887C13.3779 5.90571 13.3025 5.56786 13.0756 5.30329C12.9379 5.14278 12.7699 5.04869 12.5 5.04869H11.1816C10.8503 5.04869 11 4.83137 11 4.5Z" fill="#6C707E"/>
<path d="M7.55048 3.60001C7.70118 3.59813 7.84904 3.6411 7.97527 3.72345C8.10149 3.80581 8.20038 3.92383 8.25936 4.06253C8.31834 4.20122 8.33476 4.35433 8.30651 4.50237C8.27827 4.65042 8.20665 4.78672 8.10075 4.89396C7.99485 5.0012 7.85945 5.07454 7.71177 5.10464C7.56409 5.13474 7.4108 5.12026 7.27137 5.06302C7.13195 5.00579 7.01269 4.90839 6.92875 4.78322C6.84481 4.65804 6.79999 4.51073 6.79998 4.36001C6.79872 4.26066 6.8172 4.16204 6.85435 4.06989C6.89151 3.97774 6.94659 3.89388 7.0164 3.82318C7.08622 3.75248 7.16938 3.69634 7.26106 3.65804C7.35274 3.61973 7.45111 3.6 7.55048 3.60001Z" fill="#6C707E"/>
<path d="M8.21738 11.0602C8.41894 11.0602 8.61225 11.1402 8.75478 11.2828C8.8973 11.4253 8.97738 11.6186 8.97738 11.8202C8.97738 12.0217 8.8973 12.215 8.75478 12.3576C8.61225 12.5001 8.41894 12.5802 8.21738 12.5802C8.01581 12.5802 7.8225 12.5001 7.67998 12.3576C7.53745 12.215 7.45738 12.0217 7.45738 11.8202C7.45738 11.6186 7.53745 11.4253 7.67998 11.2828C7.8225 11.1402 8.01581 11.0602 8.21738 11.0602Z" fill="#6C707E"/>
</svg>
