<!-- Copyright 2000-2024 JetBrains s.r.o. and contributors. Use of this source code is governed by the Apache 2.0 license. -->
<svg width="20" height="20" viewBox="0 0 20 20" fill="none" xmlns="http://www.w3.org/2000/svg">
<path d="M10 6.25C10.6904 6.25 11.25 5.69036 11.25 5C11.25 4.30964 10.6904 3.75 10 3.75C9.30964 3.75 8.75 4.30964 8.75 5C8.75 5.69036 9.30964 6.25 10 6.25Z" fill="#6C707E"/>
<path d="M11.25 15C11.25 15.6904 10.6904 16.25 10 16.25C9.30964 16.25 8.75 15.6904 8.75 15C8.75 14.3096 9.30964 13.75 10 13.75C10.6904 13.75 11.25 14.3096 11.25 15Z" fill="#6C707E"/>
<path fill-rule="evenodd" clip-rule="evenodd" d="M8.25 1C6.45507 1 5 2.45507 5 4.25V5H4.25C2.45507 5 1 6.45507 1 8.25V11.75C1 13.5449 2.45507 15 4.25 15H5V15.75C5 17.5449 6.45507 19 8.25 19H11.75C13.5449 19 15 17.5449 15 15.75V15H15.75C17.5449 15 19 13.5449 19 11.75V8.25C19 6.45507 17.5449 5 15.75 5H15V4.25C15 2.45507 13.5449 1 11.75 1H8.25ZM6.5 4.25C6.5 3.2835 7.2835 2.5 8.25 2.5H11.75C12.7165 2.5 13.5 3.2835 13.5 4.25V8C13.5 8.69036 12.9404 9.25 12.25 9.25H7.75C6.23122 9.25 5 10.4812 5 12V13.5H4.25C3.2835 13.5 2.5 12.7165 2.5 11.75V8.25C2.5 7.2835 3.2835 6.5 4.25 6.5H5.25C5.94036 6.5 6.5 5.94036 6.5 5.25V4.25ZM6.5 15.75C6.5 16.7165 7.2835 17.5 8.25 17.5H11.75C12.7165 17.5 13.5 16.7165 13.5 15.75V14.75C13.5 14.0596 14.0596 13.5 14.75 13.5H15.75C16.7165 13.5 17.5 12.7165 17.5 11.75V8.25C17.5 7.2835 16.7165 6.5 15.75 6.5H15V8C15 9.51878 13.7688 10.75 12.25 10.75H7.75C7.05964 10.75 6.5 11.3096 6.5 12V15.75Z" fill="#6C707E"/>
</svg>
