<!-- Copyright 2000-2024 JetBrains s.r.o. and contributors. Use of this source code is governed by the Apache 2.0 license. -->
<svg width="20" height="20" viewBox="0 0 20 20" fill="none" xmlns="http://www.w3.org/2000/svg">
<path d="M10.75 17C10.75 16.5858 10.4142 16.25 10 16.25H9C8.30964 16.25 7.75 15.6904 7.75 15V13C7.75 12.3096 8.30964 11.75 9 11.75H10C10.4142 11.75 10.75 11.4142 10.75 11V10C10.75 9.30964 11.3096 8.75 12 8.75H14C14.6904 8.75 15.25 9.30964 15.25 10V11C15.25 11.4142 15.5858 11.75 16 11.75H17C17.6904 11.75 18.25 12.3096 18.25 13V15C18.25 15.6904 17.6904 16.25 17 16.25H16C15.5858 16.25 15.25 16.5858 15.25 17V18C15.25 18.6904 14.6904 19.25 14 19.25H12C11.3096 19.25 10.75 18.6904 10.75 18V17Z" stroke="#6C707E" stroke-width="1.5" stroke-linejoin="round"/>
<path d="M10.75 18V16C10.75 14.8954 11.6454 14 12.75 14H13.25C14.3546 14 15.25 13.1046 15.25 12V11" stroke="#6C707E" stroke-width="1.5"/>
<path d="M14 17C14 17.5523 13.5523 18 13 18C12.4477 18 12 17.5523 12 17C12 16.4477 12.4477 16 13 16C13.5523 16 14 16.4477 14 17Z" fill="#6C707E"/>
<path d="M14 11C14 11.5523 13.5523 12 13 12C12.4477 12 12 11.5523 12 11C12 10.4477 12.4477 10 13 10C13.5523 10 14 10.4477 14 11Z" fill="#6C707E"/>
<path d="M1 5.65028C1 5.25509 1.23273 4.89697 1.59386 4.73647L9.59386 1.18092C9.85243 1.066 10.1476 1.066 10.4061 1.18091L18.4061 4.73647C18.7673 4.89697 19 5.25509 19 5.65028V10.1273C18.5625 9.82218 18.052 9.61441 17.5 9.53545V6.4878L16.0236 7.14397C15.4523 6.73841 14.754 6.5 14 6.5H13.7792L16.23 5.41077L10 2.64189L3.76998 5.41078L9.24322 7.84333C8.93599 8.2355 8.71062 8.69488 8.59284 9.19575L2.5 6.48782V14.0256L5.5 15.3589V17.0004L1.59386 15.2643C1.23273 15.1038 1 14.7457 1 14.3505V5.65028Z" fill="#6C707E"/>
</svg>
