<!-- Copyright 2000-2024 JetBrains s.r.o. and contributors. Use of this source code is governed by the Apache 2.0 license. -->
<svg width="16" height="16" viewBox="0 0 16 16" fill="none" xmlns="http://www.w3.org/2000/svg">
<path d="M1 3.86667C1 2.83574 1.73127 2 2.63333 2H6.1217C6.39413 2 6.65477 2.11115 6.84336 2.30775L8.46667 4L13 4C14.1046 4 15 4.89543 15 6V8H12C10.8954 8 10 8.89543 10 10C8.89543 10 8 10.8954 8 12V14H2.63333C1.73127 14 1 13.1643 1 12.1333V3.86667Z" fill="#EBECF0"/>
<path d="M13 10.5C13 10.7761 12.7761 11 12.5 11C12.2239 11 12 10.7761 12 10.5C12 10.2239 12.2239 10 12.5 10C12.7761 10 13 10.2239 13 10.5Z" fill="#EBECF0"/>
<path fill-rule="evenodd" clip-rule="evenodd" d="M14 11.5V11H15C15.5523 11 16 11.4477 16 12V13C16 13.5523 15.5523 14 15 14H14V15C14 15.5523 13.5523 16 13 16H12C11.4477 16 11 15.5523 11 15V13.5C11 12.9477 11.4477 12.5 12 12.5H13C13.5523 12.5 14 12.0523 14 11.5ZM12.5 15C12.7761 15 13 14.7761 13 14.5C13 14.2239 12.7761 14 12.5 14C12.2239 14 12 14.2239 12 14.5C12 14.7761 12.2239 15 12.5 15Z" fill="#FFAF0F"/>
<path fill-rule="evenodd" clip-rule="evenodd" d="M11 13.5V14H10C9.44772 14 9 13.5523 9 13V12C9 11.4477 9.44772 11 10 11H11V10C11 9.44772 11.4477 9 12 9H13C13.5523 9 14 9.44772 14 10V11.5C14 12.0523 13.5523 12.5 13 12.5H12C11.4477 12.5 11 12.9477 11 13.5ZM12.5 11C12.7761 11 13 10.7761 13 10.5C13 10.2239 12.7761 10 12.5 10C12.2239 10 12 10.2239 12 10.5C12 10.7761 12.2239 11 12.5 11Z" fill="#4682FA"/>
<path d="M2.63333 3L6.1217 3L8.04022 5H13C13.5523 5 14 5.44771 14 6V8H15V6C15 4.89543 14.1046 4 13 4L8.46667 4L6.84336 2.30775C6.65477 2.11115 6.39413 2 6.1217 2H2.63333C1.73127 2 1 2.83574 1 3.86667V12.1333C1 13.1643 1.73127 14 2.63333 14H8V13H2.63333C2.40481 13 2 12.7416 2 12.1333V3.86667C2 3.25841 2.40481 3 2.63333 3Z" fill="#6C707E"/>
</svg>
