<!-- Copyright 2000-2024 JetBrains s.r.o. and contributors. Use of this source code is governed by the Apache 2.0 license. -->
<svg width="16" height="16" viewBox="0 0 16 16" fill="none" xmlns="http://www.w3.org/2000/svg">
<path fill-rule="evenodd" clip-rule="evenodd" d="M8.00001 1C11 1 11 2 11 4L11 6.5C11 7.32843 10.3284 8 9.5 8H6.5C5.11929 8 4 9.11929 4 10.5V11C2 11 1 11 1 7.99999C1 4.99999 2 4.99998 4 4.99998L7.5 5C7.77614 5 8 4.77614 8 4.5C8 4.22386 7.77614 4 7.5 4H5.00001C5.00001 2 5.00001 1 8.00001 1ZM6.5 3C6.77614 3 7 2.77614 7 2.5C7 2.22386 6.77614 2 6.5 2C6.22386 2 6 2.22386 6 2.5C6 2.77614 6.22386 3 6.5 3Z" fill="#548AF7"/>
<path d="M12 6.5V5C14 5.00001 15 5.00002 15 7.99999C15 8.46953 14.9755 8.8656 14.9265 9.19968C14.5122 9.06431 14.0684 9 13.622 9H10V11L8.5 11C8.22386 11 8 11.2239 8 11.5C8 11.7761 8.22386 12 8.5 12L10 12V14.7179C9.55775 14.906 8.91992 15 8.00001 15C5.00001 15 4.99946 14 5.00001 12L5 10.5C5 9.67157 5.67157 9 6.5 9H9.5C10.8807 9 12 7.88071 12 6.5Z" fill="#F2C55C"/>
<path fill-rule="evenodd" clip-rule="evenodd" d="M12 13.0004V11.0004H13.537C14.303 11.0004 15 11.313 15 11.954C15 12.595 14.285 13.0004 13.547 13.0004H12ZM14.36 13.828C15.175 13.59 16 13.1099 16 11.913C16 10.7161 14.9489 10 13.622 10H11V16H12V14.0004H13.328L14.773 16H16L14.36 13.828Z" fill="#CED0D6"/>
</svg>
