<!-- Copyright 2000-2024 JetBrains s.r.o. and contributors. Use of this source code is governed by the Apache 2.0 license. -->
<svg width="16" height="16" viewBox="0 0 16 16" fill="none" xmlns="http://www.w3.org/2000/svg">
<path fill-rule="evenodd" clip-rule="evenodd" d="M12.6524 1.40234L9.74837 3.10334H9.74638V3.10534V4.26434L8.00138 8.33434V9.69434L6.84037 10.3683L4.51537 5.13334V4.10834L6.26038 3.10534L3.35238 1.40234L1.60938 2.42034V3.66734L5.53338 13.1973L8.00138 14.6233V11.0423L9.16437 10.3683L9.14937 10.3593L11.4894 5.13334V4.11034V4.10834L14.3954 2.42034L12.6524 1.40234Z" fill="#4682FA"/>
<path d="M8.00175 8.33401L8.00163 9.6943L6.84063 10.3683L4.51562 5.1333V4.1083L6.25035 3.11121L6.25888 3.11431V4.26431L8.00175 8.33401Z" fill="#315FBD"/>
<path d="M8.00163 14.6226V11.0423L9.16463 10.3683L9.14962 10.3593L11.4896 5.1333V4.1083L14.3952 2.42053V3.62988L10.4932 13.1859L8.00163 14.6226Z" fill="#315FBD"/>
</svg>
