<svg xmlns="http://www.w3.org/2000/svg" xmlns:xlink="http://www.w3.org/1999/xlink" width="22" height="22" viewBox="0 0 22 22">
  <defs>
    <linearGradient id="checkboxfocused-a" x1="50%" x2="50%" y1="0%" y2="100%">
      <stop offset="0%" stop-color="#B5B5B5"/>
      <stop offset="100%" stop-color="#CCC"/>
    </linearGradient>
    <rect id="checkboxfocused-c" width="13" height="13" x="4.5" y="4.5" rx="2.75"/>
    <filter id="checkboxfocused-b" width="123.1%" height="123.1%" x="-11.5%" y="-11.5%" filterUnits="objectBoundingBox">
      <feGaussianBlur in="SourceAlpha" result="shadowBlurInner1" stdDeviation=".75"/>
      <feOffset dy="1.5" in="shadowBlurInner1" result="shadowOffsetInner1"/>
      <feComposite in="shadowOffsetInner1" in2="SourceAlpha" k2="-1" k3="1" operator="arithmetic" result="shadowInnerInner1"/>
      <feColorMatrix in="shadowInnerInner1" values="0 0 0 0 0   0 0 0 0 0   0 0 0 0 0  0 0 0 0.11 0"/>
    </filter>
    <path id="checkboxfocused-d" d="M1,7.00065947 C1,3.68658675 3.67653633,1 7.00065947,1 L14.9993405,1 C18.3134132,1 21,3.67653633 21,7.00065947 L21,14.9993405 C21,18.3134132 18.3234637,21 14.9993405,21 L7.00065947,21 C3.68658675,21 1,18.3234637 1,14.9993405 L1,7.00065947 Z M7.27288086,4.5 C5.74146105,4.5 4.5,5.74649465 4.5,7.27288086 L4.5,14.7271191 C4.5,16.258539 5.74649465,17.5 7.27288086,17.5 L14.7271191,17.5 C16.258539,17.5 17.5,16.2535053 17.5,14.7271191 L17.5,7.27288086 C17.5,5.74146105 16.2535053,4.5 14.7271191,4.5 L7.27288086,4.5 Z"/>
  </defs>
  <g fill="none" fill-rule="evenodd">
    <rect width="13.5" height="13.5" x="4.25" y="4.25" fill="#FFF" stroke="url(#checkboxfocused-a)" stroke-width=".5" rx="3"/>
    <use fill="#000" filter="url(#checkboxfocused-b)" xlink:href="#checkboxfocused-c"/>
    <mask id="checkboxfocused-e" fill="#fff">
      <use xlink:href="#checkboxfocused-d"/>
    </mask>
    <g fill="#6297F6" fill-opacity=".5" mask="url(#checkboxfocused-e)" opacity=".99">
      <rect width="20" height="20" transform="translate(1 1)"/>
    </g>
  </g>
</svg>
