<svg xmlns="http://www.w3.org/2000/svg" width="18" height="21" viewBox="0 0 18 21">
  <defs>
    <linearGradient id="comborighteditable@2x-a" x1="50%" x2="50%" y1="0%" y2="100%">
      <stop offset="0%" stop-color="#6BB4FA"/>
      <stop offset="100%" stop-color="#057EFF"/>
    </linearGradient>
    <linearGradient id="comborighteditable@2x-b" x1="50%" x2="50%" y1="0%" y2="100%">
      <stop offset="0%" stop-color="#4CA2F8"/>
      <stop offset="100%" stop-color="#025BFF"/>
    </linearGradient>
  </defs>
  <g fill="none" fill-rule="evenodd">
    <path fill="url(#comborighteditable@2x-a)" stroke="url(#comborighteditable@2x-b)" stroke-width=".5" d="M0.25,0.25 L0.25,20.75 L14,20.75 C16.0710678,20.75 17.75,19.0710678 17.75,17 L17.75,4 C17.75,1.92893219 16.0710678,0.25 14,0.25 L0.25,0.25 Z"/>
    <path fill="#FFF" fill-rule="nonzero" d="M11.5232082,8.55822002 C11.7671965,8.29489517 12.1784551,8.27921982 12.44178,8.52320817 C12.7051048,8.76719651 12.7207802,9.17845512 12.4767918,9.44177998 L9.22679183,12.9493483 C8.96955187,13.226975 8.53044813,13.226975 8.27320817,12.9493483 L5.02320817,9.44177998 C4.77921982,9.17845512 4.79489517,8.76719651 5.05822002,8.52320817 C5.32154488,8.27921982 5.73280349,8.29489517 5.97679183,8.55822002 L8.75,11.5512099 L11.5232082,8.55822002 Z"/>
  </g>
</svg>
