<svg xmlns="http://www.w3.org/2000/svg" xmlns:xlink="http://www.w3.org/1999/xlink" width="36" height="42" viewBox="0 0 36 42">
  <defs>
    <linearGradient id="comborighteditable@2x-a" x1="50%" x2="50%" y1="0%" y2="100%">
      <stop offset="0%" stop-color="#6BB4FA"/>
      <stop offset="100%" stop-color="#057EFF"/>
    </linearGradient>
    <linearGradient id="comborighteditable@2x-c" x1="50%" x2="50%" y1="0%" y2="100%">
      <stop offset="0%" stop-color="#4CA2F8"/>
      <stop offset="100%" stop-color="#025BFF"/>
    </linearGradient>
    <path id="comborighteditable@2x-b" d="M0,0 L28,0 C32.418278,-8.11624501e-16 36,3.581722 36,8 L36,34 C36,38.418278 32.418278,42 28,42 L0,42 L0,0 Z"/>
  </defs>
  <g fill="none" fill-rule="evenodd">
    <use fill="url(#comborighteditable@2x-a)" xlink:href="#comborighteditable@2x-b"/>
    <path stroke="url(#comborighteditable@2x-c)" d="M0.5,0.5 L0.5,41.5 L28,41.5 C32.1421356,41.5 35.5,38.1421356 35.5,34 L35.5,8 C35.5,3.85786438 32.1421356,0.5 28,0.5 L0.5,0.5 Z"/>
    <g transform="translate(10 18)">
      <rect width="1" height="1" fill="#B7DAFD"/>
      <rect width="1" height="1" x="14" fill="#B7DAFD"/>
      <rect width="1" height="1" x="2" fill="#83BEFE"/>
      <rect width="1" height="1" x="3" y="1" fill="#83BEFD"/>
      <rect width="1" height="1" x="4" y="2" fill="#7FBBFF"/>
      <rect width="1" height="1" x="5" y="3" fill="#74B7FE"/>
      <rect width="1" height="1" x="6" y="4" fill="#71B6FE"/>
      <rect width="1" height="1" y="2" fill="#8BC2FD"/>
      <rect width="1" height="1" x="1" y="3" fill="#95C6FF"/>
      <rect width="1" height="1" x="2" y="4" fill="#97C9FF"/>
      <rect width="1" height="1" x="3" y="5" fill="#98C7FE"/>
      <rect width="1" height="1" x="4" y="6" fill="#9BC9FF"/>
      <rect width="1" height="1" x="5" y="7" fill="#A1CEFF"/>
      <rect width="1" height="1" x="6" y="8" fill="#98C9FF"/>
      <rect width="1" height="1" x="14" y="2" fill="#8BC2FD" transform="matrix(-1 0 0 1 29 0)"/>
      <rect width="1" height="1" x="13" y="3" fill="#95C6FF" transform="matrix(-1 0 0 1 27 0)"/>
      <rect width="1" height="1" x="12" y="4" fill="#97C9FF" transform="matrix(-1 0 0 1 25 0)"/>
      <rect width="1" height="1" x="11" y="5" fill="#98C7FE" transform="matrix(-1 0 0 1 23 0)"/>
      <rect width="1" height="1" x="10" y="6" fill="#9BC9FF" transform="matrix(-1 0 0 1 21 0)"/>
      <rect width="1" height="1" x="9" y="7" fill="#A1CEFF" transform="matrix(-1 0 0 1 19 0)"/>
      <rect width="1" height="1" x="8" y="8" fill="#98C9FF" transform="matrix(-1 0 0 1 17 0)"/>
      <rect width="1" height="1" x="12" fill="#83BEFE" transform="matrix(-1 0 0 1 25 0)"/>
      <rect width="1" height="1" x="11" y="1" fill="#83BEFD" transform="matrix(-1 0 0 1 23 0)"/>
      <rect width="1" height="1" x="10" y="2" fill="#7FBBFF" transform="matrix(-1 0 0 1 21 0)"/>
      <rect width="1" height="1" x="9" y="3" fill="#74B7FE" transform="matrix(-1 0 0 1 19 0)"/>
      <rect width="1" height="1" x="8" y="4" fill="#71B6FE" transform="matrix(-1 0 0 1 17 0)"/>
      <rect width="1" height="1" x="7" y="5" fill="#A6D0FF" transform="matrix(-1 0 0 1 15 0)"/>
    </g>
    <path fill="#FFF" d="M24,20 L24,21 L23,21 L23,22 L22,22 L22,23 L21,23 L21,24 L20,24 L20,25 L19,25 L19,26 L18,26 L18,27 L17,27 L17,26 L16,26 L16,25 L15,25 L15,24 L14,24 L14,23 L13,23 L13,22 L12,22 L12,21 L11,21 L11,20 L10,20 L10,19 L11,19 L11,18 L12,18 L12,19 L13,19 L13,20 L14,20 L14,21 L15,21 L15,22 L16,22 L16,23 L17,23 L17,24 L18,24 L18,23 L19,23 L19,22 L20,22 L20,21 L21,21 L21,20 L22,20 L22,19 L23,19 L23,18 L24,18 L24,19 L25,19 L25,20 L24,20 Z"/>
  </g>
</svg>
