<svg width="20" height="20" viewBox="0 0 20 20" fill="none" xmlns="http://www.w3.org/2000/svg">
    <rect x="2.632" y="2.632" width="14.737" height="14.737" fill="#2b2d30"/>
    <path fill-rule="evenodd" clip-rule="evenodd" d="M4.737,0.526c-2.326,0 -4.211,1.885 -4.211,4.211l0,10.526c0,2.326 1.885,4.211 4.211,4.211l10.526,-0c2.326,-0 4.211,-1.885 4.211,-4.211l-0,-10.526c-0,-2.326 -1.885,-4.211 -4.211,-4.211l-10.526,0Zm-0,3.158c-0.582,0 -1.053,0.471 -1.053,1.053l0,10.526c0,0.582 0.471,1.053 1.053,1.053l10.526,-0c0.582,-0 1.053,-0.471 1.053,-1.053l-0,-10.526c-0,-0.582 -0.471,-1.053 -1.053,-1.053l-10.526,0Z" fill="#3574f0"/>
    <path fill-rule="evenodd" clip-rule="evenodd" d="M4.737,2.632c-1.163,-0 -2.105,0.942 -2.105,2.105l-0,10.526c-0,1.163 0.942,2.105 2.105,2.105l10.526,0c1.163,0 2.105,-0.942 2.105,-2.105l0,-10.526c0,-1.163 -0.942,-2.105 -2.105,-2.105l-10.526,-0Zm-0,1.052c-0.582,0 -1.053,0.471 -1.053,1.053l0,10.526c0,0.582 0.471,1.053 1.053,1.053l10.526,-0c0.582,-0 1.053,-0.471 1.053,-1.053l-0,-10.526c-0,-0.582 -0.471,-1.053 -1.053,-1.053l-10.526,0Z" fill="#2b2d30"/>
</svg>
