<svg fill="none" width="40" height="40" viewBox="0 0 40 40" xmlns="http://www.w3.org/2000/svg">
  <g transform="matrix(2.99 0 0 2.99 -3.96 -3.96)" fill="#834DF0">
    <path d="m3.99 9.78c0.01-0.385-0.118-0.692-0.382-0.922s-0.622-0.345-1.07-0.345h-0.533v-1.08h0.533c0.45 0 0.808-0.115 1.07-0.345s0.392-0.538 0.382-0.922l-0.03-1.58c-0.01-0.52 0.0975-0.975 0.322-1.36 0.23-0.39 0.558-0.69 0.982-0.9s0.925-0.315 1.5-0.315h0.737v1h-0.73c-0.52 0-0.932 0.145-1.24 0.435-0.3 0.285-0.448 0.672-0.442 1.16l0.03 1.57c0.01 0.51-0.128 0.928-0.412 1.25-0.285 0.32-0.67 0.498-1.16 0.532 0.485 0.09 0.87 0.3 1.16 0.63 0.285 0.325 0.422 0.72 0.412 1.18l-0.03 1.78c-0.01 0.44 0.122 0.79 0.398 1.05 0.28 0.265 0.658 0.398 1.13 0.398h0.88v1h-0.887c-0.535 0-1-0.1-1.41-0.3-0.4-0.195-0.71-0.478-0.93-0.848-0.215-0.365-0.32-0.792-0.315-1.28z"/>
    <path d="m12 9.78c-0.01-0.385 0.118-0.692 0.382-0.922s0.622-0.345 1.07-0.345h0.53v-1.08h-0.53c-0.45 0-0.808-0.115-1.07-0.345s-0.392-0.538-0.382-0.922l0.03-1.58c0.01-0.52-0.1-0.975-0.33-1.36-0.225-0.39-0.55-0.69-0.975-0.9s-0.925-0.315-1.5-0.315h-0.74v1h0.732c0.52 0 0.93 0.145 1.23 0.435 0.305 0.285 0.455 0.672 0.45 1.16l-0.03 1.57c-0.01 0.51 0.128 0.928 0.412 1.25 0.285 0.32 0.67 0.498 1.16 0.532-0.485 0.09-0.87 0.3-1.16 0.63-0.285 0.325-0.422 0.72-0.412 1.18l0.03 1.78c0.01 0.44-0.125 0.79-0.405 1.05-0.275 0.265-0.65 0.398-1.12 0.398h-0.882v1h0.89c0.535 0 1-0.1 1.4-0.3 0.405-0.195 0.715-0.478 0.93-0.848 0.22-0.365 0.328-0.792 0.322-1.28z"/>
  </g>
</svg>