<!-- Copyright 2000-2024 JetBrains s.r.o. and contributors. Use of this source code is governed by the Apache 2.0 license. -->
<svg width="16" height="16" viewBox="0 0 16 16" fill="none" xmlns="http://www.w3.org/2000/svg">
<path d="M2.63333 2C1.73127 2 1 2.83574 1 3.86667V12.1333C1 13.1643 1.73127 14 2.63333 14H3V12C3 10.8954 3.89543 10 5 10H9.99951L10 8H13.007L13.0055 10.1107C13.257 10.0509 13.517 10.0226 13.782 10.0226C14.2072 10.0226 14.6166 10.0969 15 10.2518V6C15 4.89543 14.1046 4 13 4L8.46667 4L6.84336 2.30775C6.65477 2.11115 6.39413 2 6.1217 2H2.63333Z" fill="#EBECF0"/>
<path fill-rule="evenodd" clip-rule="evenodd" d="M10.998 9.35059H12.005V12.0391C12.176 11.7161 12.4135 11.4659 12.7175 11.2886C13.0247 11.1113 13.3794 11.0226 13.7815 11.0226C14.2185 11.0226 14.608 11.1303 14.95 11.3456C15.292 11.5578 15.558 11.857 15.748 12.2433C15.9412 12.6297 15.998 13.0714 15.998 13.5686C15.998 14.0658 15.9412 14.3935 15.748 14.7798C15.558 15.1662 15.292 15.467 14.95 15.6823C14.608 15.8945 14.2185 16.0006 13.7815 16.0006C13.3794 16.0006 13.0247 15.9119 12.7175 15.7346C12.4135 15.5573 12.176 15.3071 12.005 14.9841V16.0006H10.998V9.35059ZM13.4965 14.9888C13.7657 14.9888 14.0032 14.9239 14.209 14.7941C14.418 14.6643 14.5795 14.4838 14.6935 14.2526C14.8107 14.0214 14.8693 13.8694 14.8693 13.5686C14.8693 13.2678 14.8107 13.0018 14.6935 12.7706C14.5795 12.5394 14.418 12.3589 14.209 12.2291C14.0032 12.0993 13.7657 12.0343 13.4965 12.0343C13.2274 12.0343 12.9867 12.0993 12.7745 12.2291C12.5655 12.3589 12.4025 12.5394 12.2853 12.7706C12.1713 13.0018 12.1143 13.2678 12.1143 13.5686C12.1143 13.8694 12.1713 14.0214 12.2853 14.2526C12.4025 14.4838 12.5655 14.6643 12.7745 14.7941C12.9867 14.9239 13.2274 14.9888 13.4965 14.9888Z" fill="#3574F0"/>
<path d="M10 15.001V16.0009L9 16.0012V15.0013L10 15.001Z" fill="#3574F0"/>
<path fill-rule="evenodd" clip-rule="evenodd" d="M7.03947 11.2362C6.73864 11.0937 6.38872 11.0225 5.98972 11.0225C5.60655 11.0225 5.25822 11.0905 4.94472 11.2267C4.63122 11.3597 4.37789 11.545 4.18472 11.7825C3.99155 12.02 3.87914 12.2907 3.84747 12.5947H4.96372C4.97955 12.468 5.0318 12.3525 5.12047 12.248C5.20914 12.1435 5.3263 12.0611 5.47197 12.001C5.61764 11.9376 5.78072 11.906 5.96122 11.906C6.16016 11.906 6.35676 11.9345 6.49609 12.001C6.63543 12.0643 6.78783 12.1593 6.867 12.2765C6.94617 12.3936 6.98575 12.5298 6.98575 12.685L6.98572 12.8742C6.89863 12.9151 6.7471 12.9392 6.6673 12.9467L5.30552 13.0797C5.00152 13.1114 4.72918 13.1985 4.48852 13.341C4.25102 13.4803 4.06418 13.6592 3.92802 13.8777C3.79502 14.0962 3.72852 14.3353 3.72852 14.595C3.72852 14.8673 3.79818 15.1111 3.93752 15.3265C4.07685 15.5386 4.27002 15.7049 4.51702 15.8252C4.76718 15.9424 5.04902 16.001 5.36252 16.001C5.73302 16.001 6.14638 15.9234 6.41555 15.7682C6.66344 15.627 6.85754 15.4306 6.99786 15.1792L7 16.0005H7.99897V12.78C7.99897 12.419 7.91505 12.107 7.74722 11.8442C7.57939 11.5782 7.34347 11.3755 7.03947 11.2362ZM6.98561 13.6363L5.57627 13.7875C5.43693 13.8001 5.31502 13.8366 5.21052 13.8967C5.10602 13.9569 5.02368 14.0361 4.96352 14.1342C4.90652 14.2292 4.87802 14.3401 4.87802 14.4667C4.87802 14.5997 4.91285 14.7185 4.98252 14.823C5.05535 14.9275 5.15668 15.0082 5.28652 15.0652C5.41635 15.1222 5.5636 15.1507 5.72827 15.1507C5.95943 15.1507 6.25563 15.1064 6.4298 15.0177C6.60396 14.9259 6.74013 14.7976 6.8383 14.633C6.93646 14.4683 6.98555 14.2799 6.98555 14.0677L6.98561 13.6363Z" fill="#3574F0"/>
<path fill-rule="evenodd" clip-rule="evenodd" d="M10.998 9H12.005V12.0391C12.176 11.7161 12.4135 11.4659 12.7175 11.2886C13.0247 11.1113 13.3794 11.0226 13.7815 11.0226C14.2185 11.0226 14.608 11.1303 14.95 11.3456C15.292 11.5578 15.558 11.857 15.748 12.2433C15.9412 12.6297 15.998 13.0714 15.998 13.5686C15.998 14.0658 15.9412 14.3935 15.748 14.7798C15.558 15.1662 15.292 15.467 14.95 15.6823C14.608 15.8945 14.2185 16.0006 13.7815 16.0006C13.3794 16.0006 13.0247 15.9119 12.7175 15.7346C12.4135 15.5573 12.176 15.3071 12.005 14.9841V16.0006H10.998V9ZM13.4965 14.9888C13.7657 14.9888 14.0032 14.9239 14.209 14.7941C14.418 14.6643 14.5795 14.4838 14.6935 14.2526C14.8107 14.0214 14.8693 13.8694 14.8693 13.5686C14.8693 13.2678 14.8107 13.0018 14.6935 12.7706C14.5795 12.5394 14.418 12.3589 14.209 12.2291C14.0032 12.0993 13.7657 12.0343 13.4965 12.0343C13.2274 12.0343 12.9867 12.0993 12.7745 12.2291C12.5655 12.3589 12.4025 12.5394 12.2853 12.7706C12.1713 13.0018 12.1143 13.2678 12.1143 13.5686C12.1143 13.8694 12.1713 14.0214 12.2853 14.2526C12.4025 14.4838 12.5655 14.6643 12.7745 14.7941C12.9867 14.9239 13.2274 14.9888 13.4965 14.9888Z" fill="#3574F0"/>
<path d="M10 15.001V16.0009L9 16.0012V15.0013L10 15.001Z" fill="#3574F0"/>
<path fill-rule="evenodd" clip-rule="evenodd" d="M7.03947 11.2362C6.73864 11.0937 6.38872 11.0225 5.98972 11.0225C5.60655 11.0225 5.25822 11.0905 4.94472 11.2267C4.63122 11.3597 4.37789 11.545 4.18472 11.7825C3.99155 12.02 3.87914 12.2907 3.84747 12.5947H4.96372C4.97955 12.468 5.0318 12.3525 5.12047 12.248C5.20914 12.1435 5.3263 12.0611 5.47197 12.001C5.61764 11.9376 5.78072 11.906 5.96122 11.906C6.16016 11.906 6.35676 11.9345 6.49609 12.001C6.63543 12.0643 6.78783 12.1593 6.867 12.2765C6.94617 12.3936 6.98575 12.5298 6.98575 12.685L6.98572 12.8742C6.89863 12.9151 6.7471 12.9392 6.6673 12.9467L5.30552 13.0797C5.00152 13.1114 4.72918 13.1985 4.48852 13.341C4.25102 13.4803 4.06418 13.6592 3.92802 13.8777C3.79502 14.0962 3.72852 14.3353 3.72852 14.595C3.72852 14.8673 3.79818 15.1111 3.93752 15.3265C4.07685 15.5386 4.27002 15.7049 4.51702 15.8252C4.76718 15.9424 5.04902 16.001 5.36252 16.001C5.73302 16.001 6.14638 15.9234 6.41555 15.7682C6.66344 15.627 6.85754 15.4306 6.99786 15.1792L7 16.0005H7.99897V12.78C7.99897 12.419 7.91505 12.107 7.74722 11.8442C7.57939 11.5782 7.34347 11.3755 7.03947 11.2362ZM6.98561 13.6363L5.57627 13.7875C5.43693 13.8001 5.31502 13.8366 5.21052 13.8967C5.10602 13.9569 5.02368 14.0361 4.96352 14.1342C4.90652 14.2292 4.87802 14.3401 4.87802 14.4667C4.87802 14.5997 4.91285 14.7185 4.98252 14.823C5.05535 14.9275 5.15668 15.0082 5.28652 15.0652C5.41635 15.1222 5.5636 15.1507 5.72827 15.1507C5.95943 15.1507 6.25563 15.1064 6.4298 15.0177C6.60396 14.9259 6.74013 14.7976 6.8383 14.633C6.93646 14.4683 6.98555 14.2799 6.98555 14.0677L6.98561 13.6363Z" fill="#3574F0"/>
<path d="M2.63333 3L6.1217 3L8.04022 5H13C13.5523 5 14 5.44771 14 6V10.0292C14.3473 10.0505 14.6826 10.1236 15 10.2518V6C15 4.89543 14.1046 4 13 4L8.46667 4L6.84336 2.30775C6.65477 2.11115 6.39413 2 6.1217 2H2.63333C1.73127 2 1 2.83574 1 3.86667V12.1333C1 13.1643 1.73127 14 2.63333 14H3V13H2.63333C2.40481 13 2 12.7416 2 12.1333V3.86667C2 3.25841 2.40481 3 2.63333 3Z" fill="#6C707E"/>
</svg>
