<!-- Copyright 2000-2024 JetBrains s.r.o. and contributors. Use of this source code is governed by the Apache 2.0 license. -->
<svg width="16" height="16" viewBox="0 0 16 16" fill="none" xmlns="http://www.w3.org/2000/svg">
<path d="M5 2V6C5 6.55228 5.44772 7 6 7H12C12.5523 7 13 6.55228 13 6V3C13 2.44772 12.5523 2 12 2H9.5L8.5 1H6C5.44772 1 5 1.44772 5 2Z" fill="#43454A"/>
<path d="M5 10V14C5 14.5523 5.44772 15 6 15H12C12.5523 15 13 14.5523 13 14V11C13 10.4477 12.5523 10 12 10H9.5L8.5 9H6C5.44772 9 5 9.44772 5 10Z" fill="#43454A"/>
<path fill-rule="evenodd" clip-rule="evenodd" d="M3 1.5C3 1.22386 2.77614 1 2.5 1C2.22386 1 2 1.22386 2 1.5V14.5C2 14.7761 2.22386 15 2.5 15C2.77614 15 3 14.7761 3 14.5V12H5V14C5 14.5523 5.44772 15 6 15H12C12.5523 15 13 14.5523 13 14V11C13 10.4477 12.5523 10 12 10H9.5L8.5 9H6C5.44772 9 5 9.44772 5 10V11H3V4H5V6C5 6.55228 5.44772 7 6 7H12C12.5523 7 13 6.55228 13 6V3C13 2.44772 12.5523 2 12 2H9.5L8.5 1H6C5.44772 1 5 1.44772 5 2V3H3V1.5ZM6 2L8.08579 2L9.08579 3H12V6H6V2ZM8.08579 10H6V14H12V11H9.08579L8.08579 10Z" fill="#CED0D6"/>
</svg>
