<!-- Copyright 2000-2024 JetBrains s.r.o. and contributors. Use of this source code is governed by the Apache 2.0 license. -->
<svg width="16" height="16" viewBox="0 0 16 16" fill="none" xmlns="http://www.w3.org/2000/svg">
<rect x="11" y="5" width="3" height="3" rx="1" fill="#548AF7"/>
<path d="M11 14C11 13.4477 11.4477 13 12 13H13C13.5523 13 14 13.4477 14 14V15C14 15.5523 13.5523 16 13 16H12C11.4477 16 11 15.5523 11 15V14Z" fill="#548AF7"/>
<path d="M5 14V10C5 9.44772 5.44772 9 6 9H8.5L9.5 10H12C12.5523 10 13 10.4477 13 11V12H12C10.8954 12 10 12.8954 10 14V15H6C5.44772 15 5 14.5523 5 14Z" fill="#43454A"/>
<path d="M5 6V2C5 1.44772 5.44772 1 6 1H8.5L9.5 2H12C12.5523 2 13 2.44772 13 3V4H12C10.8954 4 10 4.89543 10 6V7H6C5.44772 7 5 6.55228 5 6Z" fill="#43454A"/>
<path d="M3 1.5C3 1.22386 2.77614 1 2.5 1C2.22386 1 2 1.22386 2 1.5V14.5C2 14.7761 2.22386 15 2.5 15C2.77614 15 3 14.7761 3 14.5V12H5V14C5 14.5523 5.44772 15 6 15H10V14H6V10H8.08579L9.08579 11H12V12H13V11C13 10.4477 12.5523 10 12 10H9.5L8.5 9H6C5.44772 9 5 9.44772 5 10V11H3V4H5V6C5 6.55228 5.44772 7 6 7H10V6H6V2L8.08579 2L9.08579 3H12V4H13V3C13 2.44772 12.5523 2 12 2H9.5L8.5 1H6C5.44772 1 5 1.44772 5 2V3H3V1.5Z" fill="#CED0D6"/>
</svg>
