<!-- Copyright 2000-2024 JetBrains s.r.o. and contributors. Use of this source code is governed by the Apache 2.0 license. -->
<svg width="16" height="16" viewBox="0 0 16 16" fill="none" xmlns="http://www.w3.org/2000/svg">
<path d="M9.5 3H10.7428C9.73405 1.7785 8.20794 1 6.5 1C3.46243 1 1 3.46243 1 6.5C1 8.20794 1.7785 9.73405 3 10.7428V9.5C3 5.91015 5.91015 3 9.5 3Z" fill="#402929"/>
<circle cx="9.5" cy="9.5" r="5" fill="#45322B" stroke="#C77D55"/>
<path d="M9.5 13V7.5C9.5 6.94772 9.94772 6.5 10.5 6.5H11.5" stroke="#C77D55"/>
<path d="M11.5 8.5H8" stroke="#C77D55"/>
<path d="M10.7428 3H9.5C9.4436 3 9.38737 3.00072 9.33132 3.00215C8.55805 2.37546 7.57287 2 6.5 2C4.01472 2 2 4.01472 2 6.5C2 7.57165 2.3746 8.5558 3 9.32867V10.7428C1.7785 9.73405 1 8.20794 1 6.5C1 3.46243 3.46243 1 6.5 1C8.20794 1 9.73405 1.7785 10.7428 3Z" fill="#DB5C5C"/>
</svg>
