<!-- Copyright 2000-2024 JetBrains s.r.o. and contributors. Use of this source code is governed by the Apache 2.0 license. -->
<svg width="16" height="16" viewBox="0 0 16 16" fill="none" xmlns="http://www.w3.org/2000/svg">
<path fill-rule="evenodd" clip-rule="evenodd" d="M8.85355 10.8536C9.04882 10.6583 9.04882 10.3417 8.85355 10.1464C8.65829 9.95119 8.34171 9.95119 8.14645 10.1464L6 12.2929L5.99999 2.5C5.99999 2.22386 5.77614 2 5.49999 2C5.22385 2 4.99999 2.22386 4.99999 2.5L4.99999 12.2929L2.85355 10.1464C2.65829 9.95118 2.34171 9.95118 2.14645 10.1464C1.95118 10.3417 1.95118 10.6583 2.14645 10.8536L5.14645 13.8536C5.34171 14.0488 5.65829 14.0488 5.85355 13.8536L8.85355 10.8536Z" fill="#6C707E"/>
<path d="M11.9729 1.89999C12.3738 1.89999 12.7262 1.97112 13.0302 2.11339C13.3373 2.25566 13.575 2.46259 13.7431 2.73419C13.9145 3.00256 14.0002 3.31942 14.0002 3.68479V6.98279H12.9429L12.9332 5.12524H13.1951C13.1951 5.53587 13.1207 5.88992 12.972 6.18739C12.8265 6.48162 12.6163 6.70796 12.3415 6.86639C12.0666 7.02159 11.7417 7.09919 11.3666 7.09919C11.0465 7.09919 10.7588 7.03776 10.5033 6.91489C10.2511 6.79202 10.0523 6.62227 9.90677 6.40564C9.7645 6.18901 9.69337 5.94327 9.69337 5.66844C9.69337 5.40331 9.76127 5.15919 9.89707 4.93609C10.0361 4.71299 10.2269 4.53031 10.4694 4.38804C10.7151 4.24577 10.9916 4.15847 11.2987 4.12614L12.5985 3.98549C12.702 3.97579 12.7812 3.93861 12.8362 3.87394C12.8944 3.80604 12.9235 3.70742 12.9235 3.57809L12.9817 4.65964L11.5461 4.81969C11.4006 4.83586 11.2729 4.87627 11.1629 4.94094C11.053 5.00237 10.9673 5.08644 10.9059 5.19314C10.8444 5.29661 10.8137 5.41462 10.8137 5.54719C10.8137 5.68946 10.8509 5.81556 10.9253 5.92549C10.9996 6.03219 11.1047 6.11626 11.2405 6.17769C11.3763 6.23912 11.5315 6.26984 11.7061 6.26984C11.9486 6.26984 12.162 6.22296 12.3463 6.12919C12.5306 6.03219 12.6729 5.89801 12.7731 5.72664C12.8734 5.55204 12.9235 5.35157 12.9235 5.12524V3.58779C12.9235 3.42289 12.8831 3.27901 12.8022 3.15614C12.7214 3.03004 12.6066 2.93304 12.4579 2.86514C12.3091 2.79724 12.1394 2.76329 11.9486 2.76329C11.7579 2.76329 11.5865 2.79562 11.4345 2.86029C11.2826 2.92496 11.1597 3.01226 11.0659 3.12219C10.9722 3.23212 10.9156 3.35337 10.8962 3.48594H9.81462C9.84695 3.18201 9.96012 2.91041 10.1541 2.67114C10.3514 2.42864 10.6068 2.23949 10.9204 2.10369C11.2373 1.96789 11.5881 1.89999 11.9729 1.89999Z" fill="#6C707E"/>
<path d="M12.7049 9.9551H10.212V9.0336H14.0096V9.9357L11.3906 13.0785H13.9999V14H10.0859V13.0979L12.7049 9.9551Z" fill="#6C707E"/>
</svg>
