<!-- Copyright 2000-2024 JetBrains s.r.o. and contributors. Use of this source code is governed by the Apache 2.0 license. -->
<svg width="16" height="16" viewBox="0 0 16 16" fill="none" xmlns="http://www.w3.org/2000/svg">
<path d="M13.3848 2.12H14.5848L9.5248 9.12H8.3248L13.3848 2.12ZM9.6498 5.4C9.31647 5.4 9.01813 5.32833 8.7548 5.185C8.4948 5.04167 8.29147 4.84167 8.1448 4.585C7.99813 4.325 7.9248 4.03 7.9248 3.7C7.9248 3.37 7.99813 3.07667 8.1448 2.82C8.29147 2.56 8.4948 2.35833 8.7548 2.215C9.01813 2.07167 9.31647 2 9.6498 2C9.9898 2 10.2898 2.07167 10.5498 2.215C10.8131 2.35833 11.0181 2.56 11.1648 2.82C11.3148 3.07667 11.3898 3.37 11.3898 3.7C11.3898 4.03 11.3148 4.325 11.1648 4.585C11.0181 4.84167 10.8131 5.04167 10.5498 5.185C10.2898 5.32833 9.9898 5.4 9.6498 5.4ZM9.6548 4.515C9.80147 4.515 9.93313 4.48167 10.0498 4.415C10.1665 4.345 10.2565 4.24833 10.3198 4.125C10.3831 4.00167 10.4148 3.86 10.4148 3.7C10.4148 3.54 10.3831 3.39833 10.3198 3.275C10.2565 3.15167 10.1665 3.05667 10.0498 2.99C9.93313 2.92 9.80147 2.885 9.6548 2.885C9.50813 2.885 9.37647 2.92 9.2598 2.99C9.14647 3.05667 9.05813 3.15167 8.9948 3.275C8.93147 3.39833 8.8998 3.54 8.8998 3.7C8.8998 3.86 8.93147 4.00167 8.9948 4.125C9.05813 4.24833 9.14647 4.345 9.2598 4.415C9.37647 4.48167 9.50813 4.515 9.6548 4.515ZM13.2598 9.24C12.9231 9.24 12.6248 9.16833 12.3648 9.025C12.1048 8.88167 11.8998 8.68167 11.7498 8.425C11.6031 8.165 11.5298 7.87 11.5298 7.54C11.5298 7.21 11.6031 6.91667 11.7498 6.66C11.8998 6.4 12.1048 6.19833 12.3648 6.055C12.6248 5.91167 12.9231 5.84 13.2598 5.84C13.5965 5.84 13.8965 5.91167 14.1598 6.055C14.4265 6.19833 14.6331 6.4 14.7798 6.66C14.9265 6.91667 14.9998 7.21 14.9998 7.54C14.9998 7.87 14.9265 8.165 14.7798 8.425C14.6331 8.68167 14.4265 8.88167 14.1598 9.025C13.8965 9.16833 13.5965 9.24 13.2598 9.24ZM13.2598 8.355C13.4098 8.355 13.5431 8.32167 13.6598 8.255C13.7765 8.185 13.8665 8.08833 13.9298 7.965C13.9965 7.84167 14.0298 7.7 14.0298 7.54C14.0298 7.38333 13.9965 7.24333 13.9298 7.12C13.8665 6.99333 13.7765 6.89667 13.6598 6.83C13.5431 6.76 13.4098 6.725 13.2598 6.725C13.1131 6.725 12.9815 6.76 12.8648 6.83C12.7515 6.89667 12.6631 6.99333 12.5998 7.12C12.5365 7.24333 12.5048 7.38333 12.5048 7.54C12.5048 7.7 12.5365 7.84167 12.5998 7.965C12.6631 8.08833 12.7515 8.185 12.8648 8.255C12.9815 8.32167 13.1131 8.355 13.2598 8.355Z" fill="#6C707E"/>
<path fill-rule="evenodd" clip-rule="evenodd" d="M7.85355 10.8536C8.04882 10.6583 8.04882 10.3417 7.85355 10.1464C7.65829 9.95119 7.34171 9.95119 7.14645 10.1464L5 12.2929L4.99999 2.5C4.99999 2.22386 4.77614 2 4.49999 2C4.22385 2 3.99999 2.22386 3.99999 2.5L3.99999 12.2929L1.85355 10.1464C1.65829 9.95118 1.34171 9.95118 1.14645 10.1464C0.951184 10.3417 0.951184 10.6583 1.14645 10.8536L4.14645 13.8536C4.34171 14.0488 4.65829 14.0488 4.85355 13.8536L7.85355 10.8536Z" fill="#6C707E"/>
</svg>
