<!-- Copyright 2000-2023 JetBrains s.r.o. and contributors. Use of this source code is governed by the Apache 2.0 license. -->
<svg width="16" height="16" viewBox="0 0 16 16" fill="none" xmlns="http://www.w3.org/2000/svg">
<path fill-rule="evenodd" clip-rule="evenodd" d="M8.85355 10.8536C9.04882 10.6583 9.04882 10.3417 8.85355 10.1464C8.65829 9.95119 8.34171 9.95119 8.14645 10.1464L5.99999 12.2929L5.99999 2.5C5.99999 2.22386 5.77614 2 5.49999 2C5.22385 2 4.99999 2.22386 4.99999 2.5L4.99999 12.2929L2.85355 10.1464C2.65829 9.95118 2.34171 9.95118 2.14645 10.1464C1.95118 10.3417 1.95118 10.6583 2.14645 10.8536L5.14645 13.8536C5.34171 14.0488 5.65829 14.0488 5.85355 13.8536L8.85355 10.8536Z" fill="#CED0D6"/>
<path d="M11.9729 1.90002C12.3738 1.90002 12.7262 1.97115 13.0302 2.11342C13.3373 2.25569 13.575 2.46262 13.7431 2.73422C13.9145 3.00259 14.0002 3.31945 14.0002 3.68482V6.98282H12.9429L12.9332 5.12527H13.1951C13.1951 5.5359 13.1207 5.88995 12.972 6.18742C12.8265 6.48165 12.6163 6.70799 12.3415 6.86642C12.0666 7.02162 11.7417 7.09922 11.3666 7.09922C11.0465 7.09922 10.7588 7.03779 10.5033 6.91492C10.2511 6.79205 10.0523 6.6223 9.90677 6.40567C9.7645 6.18904 9.69337 5.9433 9.69337 5.66847C9.69337 5.40334 9.76127 5.15922 9.89707 4.93612C10.0361 4.71302 10.2269 4.53034 10.4694 4.38807C10.7151 4.2458 10.9916 4.1585 11.2987 4.12617L12.5985 3.98552C12.702 3.97582 12.7812 3.93864 12.8362 3.87397C12.8944 3.80607 12.9235 3.70745 12.9235 3.57812L12.9817 4.65967L11.5461 4.81972C11.4006 4.83589 11.2729 4.8763 11.1629 4.94097C11.053 5.0024 10.9673 5.08647 10.9059 5.19317C10.8444 5.29664 10.8137 5.41465 10.8137 5.54722C10.8137 5.68949 10.8509 5.81559 10.9253 5.92552C10.9996 6.03222 11.1047 6.11629 11.2405 6.17772C11.3763 6.23915 11.5315 6.26987 11.7061 6.26987C11.9486 6.26987 12.162 6.22299 12.3463 6.12922C12.5306 6.03222 12.6729 5.89804 12.7731 5.72667C12.8734 5.55207 12.9235 5.3516 12.9235 5.12527V3.58782C12.9235 3.42292 12.8831 3.27904 12.8022 3.15617C12.7214 3.03007 12.6066 2.93307 12.4579 2.86517C12.3091 2.79727 12.1394 2.76332 11.9486 2.76332C11.7579 2.76332 11.5865 2.79565 11.4345 2.86032C11.2826 2.92499 11.1597 3.01229 11.0659 3.12222C10.9722 3.23215 10.9156 3.3534 10.8962 3.48597H9.81462C9.84695 3.18204 9.96012 2.91044 10.1541 2.67117C10.3514 2.42867 10.6068 2.23952 10.9204 2.10372C11.2373 1.96792 11.5881 1.90002 11.9729 1.90002Z" fill="#CED0D6"/>
<path d="M12.7049 9.95513H10.212V9.03363H14.0096V9.93573L11.3906 13.0785H13.9999V14H10.0859V13.0979L12.7049 9.95513Z" fill="#CED0D6"/>
</svg>
