<!-- Copyright 2000-2024 JetBrains s.r.o. and contributors. Use of this source code is governed by the Apache 2.0 license. -->
<svg width="16" height="16" viewBox="0 0 16 16" fill="none" xmlns="http://www.w3.org/2000/svg">
<path fill-rule="evenodd" clip-rule="evenodd" d="M7.85355 10.8536C8.04882 10.6583 8.04882 10.3417 7.85355 10.1464C7.65829 9.95119 7.34171 9.95119 7.14645 10.1464L5 12.2929L4.99999 2.5C4.99999 2.22386 4.77614 2 4.49999 2C4.22385 2 3.99999 2.22386 3.99999 2.5L3.99999 12.2929L1.85355 10.1464C1.65829 9.95118 1.34171 9.95118 1.14645 10.1464C0.951184 10.3417 0.951184 10.6583 1.14645 10.8536L4.14645 13.8536C4.34171 14.0488 4.65829 14.0488 4.85355 13.8536L7.85355 10.8536Z" fill="#6C707E"/>
<rect x="10" y="6" width="4" height="3" fill="#EBECF0"/>
<path fill-rule="evenodd" clip-rule="evenodd" d="M14 5V4C14 2.89543 13.1046 2 12 2C10.8954 2 10 2.89543 10 4V5C9.44772 5 9 5.44772 9 6V9C9 9.55228 9.44772 10 10 10H14C14.5523 10 15 9.55228 15 9V6C15 5.44772 14.5523 5 14 5ZM11 4C11 3.44772 11.4477 3 12 3C12.5523 3 13 3.44772 13 4V5H11V4ZM10 9L10 6H14V9H10Z" fill="#6C707E"/>
</svg>
