<!-- Copyright 2000-2023 JetBrains s.r.o. and contributors. Use of this source code is governed by the Apache 2.0 license. -->
<svg width="20" height="20" viewBox="0 0 20 20" fill="none" xmlns="http://www.w3.org/2000/svg">
<g clip-path="url(#clip0_8689_12733)">
<path d="M10.5804 3.90194C10.5336 3.66823 10.3284 3.5 10.0901 3.5H9.9099C9.67156 3.5 9.46635 3.66823 9.41961 3.90194L9.08123 5.59387C9.37784 5.53234 9.68514 5.5 10 5.5C10.3149 5.5 10.6222 5.53234 10.9188 5.59387L10.5804 3.90194Z" fill="#6C707E"/>
<path d="M14.0402 8.01608L16.1857 8.87428C16.3755 8.95021 16.5 9.13406 16.5 9.33852V10H14.5C14.5 9.28796 14.3346 8.61455 14.0402 8.01608Z" fill="#6C707E"/>
<path d="M5.95981 8.01608C5.66537 8.61455 5.5 9.28796 5.5 10H3.5V9.33852C3.5 9.13406 3.62448 8.95021 3.8143 8.87428L5.95981 8.01608Z" fill="#6C707E"/>
<path d="M10 11.5C10.8284 11.5 11.5 10.8284 11.5 10C11.5 9.17157 10.8284 8.5 10 8.5C9.17157 8.5 8.5 9.17157 8.5 10C8.5 10.8284 9.17157 11.5 10 11.5Z" fill="#6C707E"/>
<path fill-rule="evenodd" clip-rule="evenodd" d="M14 10C14 12.2091 12.2091 14 10 14C7.79086 14 6 12.2091 6 10C6 7.79086 7.79086 6 10 6C12.2091 6 14 7.79086 14 10ZM12.5 10C12.5 11.3807 11.3807 12.5 10 12.5C8.61929 12.5 7.5 11.3807 7.5 10C7.5 8.61929 8.61929 7.5 10 7.5C11.3807 7.5 12.5 8.61929 12.5 10Z" fill="#6C707E"/>
<path fill-rule="evenodd" clip-rule="evenodd" d="M15.3618 1.62982C15.1391 1.24036 14.7246 1 14.2757 1H5.72035C5.27147 1 4.85698 1.24036 4.63427 1.62982L0.162861 9.37982C-0.0568912 9.76411 -0.0568912 10.2359 0.162861 10.6202L4.63427 18.3701C4.85698 18.7596 5.27147 19 5.72035 19H14.2757C14.7246 19 15.1391 18.7596 15.3618 18.3701L19.8332 10.6202C20.053 10.2359 20.053 9.76411 19.8332 9.37982L15.3618 1.62982ZM18.4593 10L14.1321 2.5H5.86398L1.5368 10L5.86401 17.5H14.132L18.4593 10Z" fill="#6C707E"/>
</g>
<defs>
<clipPath id="clip0_8689_12733">
<rect width="20" height="20" fill="white"/>
</clipPath>
</defs>
</svg>
