<!-- Copyright 2000-2023 JetBrains s.r.o. and contributors. Use of this source code is governed by the Apache 2.0 license. -->
<svg width="20" height="20" viewBox="0 0 20 20" fill="none" xmlns="http://www.w3.org/2000/svg">
<g clip-path="url(#clip0_8530_12705)">
<path d="M8.34271 3.61011H11.0034V15.8051C9.64056 16.0629 8.63726 16.1643 7.5517 16.1643C4.30198 16.1609 2.61035 14.7091 2.61035 11.9208C2.61035 9.23424 4.40471 7.49067 7.18529 7.49067C7.61677 7.49067 7.94548 7.52463 8.34271 7.62636V3.61011ZM8.43595 9.82404C8.12432 9.72226 7.86753 9.68835 7.53877 9.68835C6.19302 9.68835 5.4157 10.5092 5.4157 11.9478C5.4157 13.3484 6.15881 14.1218 7.52169 14.1218C7.81614 14.1218 8.05585 14.1052 8.43595 14.0543V9.82404Z" fill="#CED0D6"/>
<path d="M15.6636 7.81808V13.9239C15.6636 16.0267 15.5061 17.0379 15.0438 17.9097C14.6123 18.7478 14.0439 19.2764 12.8693 19.8601L10.4004 18.6966C11.5749 18.1508 12.1434 17.6685 12.5064 16.9324C12.8864 16.1797 13.0063 15.3079 13.0063 13.0148V7.81813L15.6636 7.81808ZM13.0063 3.61011H15.667V6.31363H13.0063V3.61011Z" fill="#CED0D6"/>
</g>
<defs>
<clipPath id="clip0_8530_12705">
<rect width="20" height="20" fill="white"/>
</clipPath>
</defs>
</svg>
