<svg xmlns="http://www.w3.org/2000/svg" xmlns:xlink="http://www.w3.org/1999/xlink" width="22" height="22" viewBox="0 0 22 22">
  <defs>
    <rect id="checkboxindeterminateselectedfocused@2x-b" width="10" height="2" x="6" y="10" rx="1"/>
    <filter id="checkboxindeterminateselectedfocused@2x-a" width="123%" height="230%" x="-11.5%" y="-32.5%" filterUnits="objectBoundingBox">
      <feOffset dy=".8" in="SourceAlpha" result="shadowOffsetOuter1"/>
      <feGaussianBlur in="shadowOffsetOuter1" result="shadowBlurOuter1" stdDeviation=".25"/>
      <feColorMatrix in="shadowBlurOuter1" values="0 0 0 0 0   0 0 0 0 0   0 0 0 0 0  0 0 0 0.26 0"/>
    </filter>
    <path id="checkboxindeterminateselectedfocused@2x-c" d="M1,7.00065947 C1,3.68658675 3.67653633,1 7.00065947,1 L14.9993405,1 C18.3134132,1 21,3.67653633 21,7.00065947 L21,14.9993405 C21,18.3134132 18.3234637,21 14.9993405,21 L7.00065947,21 C3.68658675,21 1,18.3234637 1,14.9993405 L1,7.00065947 Z M7.00653076,4.5 C5.62221205,4.5 4.5,5.61962422 4.5,7.00653076 L4.5,14.9934692 C4.5,16.377788 5.61962422,17.5 7.00653076,17.5 L14.9934692,17.5 C16.377788,17.5 17.5,16.3803758 17.5,14.9934692 L17.5,7.00653076 C17.5,5.62221205 16.3803758,4.5 14.9934692,4.5 L7.00653076,4.5 Z"/>
  </defs>
  <g fill="none" fill-rule="evenodd">
    <rect width="14" height="14" x="4" y="4" fill="#99999E" rx="3"/>
    <use fill="#000" filter="url(#checkboxindeterminateselectedfocused@2x-a)" xlink:href="#checkboxindeterminateselectedfocused@2x-b"/>
    <use fill="#FFF" xlink:href="#checkboxindeterminateselectedfocused@2x-b"/>
    <path fill="#77777D" d="M7.00335124,4 L14.9966488,4 C16.6576211,4 18,5.34464615 18,7.00335124 L18,14.9966488 C18,16.6576211 16.6553538,18 14.9966488,18 L7.00335124,18 C5.34237885,18 4,16.6553538 4,14.9966488 L4,7.00335124 C4,5.34237885 5.34464615,4 7.00335124,4 Z M7.00653076,4.5 C5.62221205,4.5 4.5,5.61962422 4.5,7.00653076 L4.5,14.9934692 C4.5,16.377788 5.61962422,17.5 7.00653076,17.5 L14.9934692,17.5 C16.377788,17.5 17.5,16.3803758 17.5,14.9934692 L17.5,7.00653076 C17.5,5.62221205 16.3803758,4.5 14.9934692,4.5 L7.00653076,4.5 Z"/>
    <use fill="#A6A6A6" fill-opacity=".5" fill-rule="nonzero" xlink:href="#checkboxindeterminateselectedfocused@2x-c"/>
  </g>
</svg>
