<svg xmlns="http://www.w3.org/2000/svg" xmlns:xlink="http://www.w3.org/1999/xlink" width="22" height="22" viewBox="0 0 22 22">
  <defs>
    <circle id="radioselected@2x-b" cx="11" cy="11" r="3"/>
    <filter id="radioselected@2x-a" width="133.3%" height="133.3%" x="-16.7%" y="-8.3%" filterUnits="objectBoundingBox">
      <feOffset dy=".5" in="SourceAlpha" result="shadowOffsetOuter1"/>
      <feGaussianBlur in="shadowOffsetOuter1" result="shadowBlurOuter1" stdDeviation=".25"/>
      <feColorMatrix in="shadowBlurOuter1" values="0 0 0 0 0   0 0 0 0 0   0 0 0 0 0  0 0 0 0.31 0"/>
    </filter>
  </defs>
  <g fill="none" fill-rule="evenodd">
    <circle cx="11" cy="11" r="8" fill="#999A9E"/>
    <path fill="#000" fill-opacity=".05" d="M11,19 C6.581722,19 3,15.418278 3,11 C3,6.581722 6.581722,3 11,3 C15.418278,3 19,6.581722 19,11 C19,15.418278 15.418278,19 11,19 Z M11,18.5 C15.1421356,18.5 18.5,15.1421356 18.5,11 C18.5,6.85786438 15.1421356,3.5 11,3.5 C6.85786438,3.5 3.5,6.85786438 3.5,11 C3.5,15.1421356 6.85786438,18.5 11,18.5 Z"/>
    <use fill="#000" filter="url(#radioselected@2x-a)" xlink:href="#radioselected@2x-b"/>
    <use fill="#FFF" xlink:href="#radioselected@2x-b"/>
  </g>
</svg>
