<svg xmlns="http://www.w3.org/2000/svg" xmlns:xlink="http://www.w3.org/1999/xlink" width="17" height="21" viewBox="0 0 17 21">
  <defs>
    <rect id="spinnerrightdisabled@2x-a" width="17" height="21"/>
    <linearGradient id="spinnerrightdisabled@2x-b" x1="50%" x2="50%" y1="0%" y2="100%">
      <stop offset="0%" stop-color="#D2D2D2"/>
      <stop offset="100%" stop-color="#C3C3C3"/>
    </linearGradient>
  </defs>
  <g fill="none" fill-rule="evenodd">
    <mask id="spinnerrightdisabled@2x-c" fill="#fff">
      <use xlink:href="#spinnerrightdisabled@2x-a"/>
    </mask>
    <rect width="64.5" height="20.5" x="-47.75" y=".25" fill="#F1F1F1" stroke="url(#spinnerrightdisabled@2x-b)" stroke-width=".5" mask="url(#spinnerrightdisabled@2x-c)" rx="4"/>
    <rect width="6.5" height="1.5" x="5" y="14.5" fill="#CBCBCB" mask="url(#spinnerrightdisabled@2x-c)"/>
    <rect width="6.5" height="1.5" x="5" y="6" fill="#CBCBCB" mask="url(#spinnerrightdisabled@2x-c)"/>
    <rect width="1.5" height="6.5" x="7.5" y="3.5" fill="#CBCBCB" mask="url(#spinnerrightdisabled@2x-c)"/>
    <path fill="#8E8D8D" d="M8.5 6.5L11 6.5 11 7 8.5 7 8.5 9.5 8 9.5 8 7 5.5 7 5.5 6.5 8 6.5 8 4 8.5 4 8.5 6.5zM5.5 15L11 15 11 15.5 5.5 15.5 5.5 15z" mask="url(#spinnerrightdisabled@2x-c)"/>
  </g>
</svg>
