<svg xmlns="http://www.w3.org/2000/svg" xmlns:xlink="http://www.w3.org/1999/xlink" width="17" height="21" viewBox="0 0 17 21">
  <defs>
    <rect id="spinnerright@2x-a" width="17" height="21"/>
    <linearGradient id="spinnerright@2x-b" x1="50%" x2="50%" y1="0%" y2="100%">
      <stop offset="0%" stop-color="#B1B2B8"/>
      <stop offset="100%" stop-color="#919095"/>
    </linearGradient>
    <linearGradient id="spinnerright@2x-c" x1="50%" x2="50%" y1="0%" y2="100%">
      <stop offset="0%" stop-color="#A6A6AD"/>
      <stop offset="100%" stop-color="#7B7D81"/>
    </linearGradient>
  </defs>
  <g fill="none" fill-rule="evenodd">
    <mask id="spinnerright@2x-d" fill="#fff">
      <use xlink:href="#spinnerright@2x-a"/>
    </mask>
    <rect width="64.5" height="20.5" x="-47.75" y=".25" fill="url(#spinnerright@2x-b)" stroke="url(#spinnerright@2x-c)" stroke-width=".5" mask="url(#spinnerright@2x-d)" rx="4"/>
    <rect width="6.5" height="1.5" x="5" y="14.5" fill="#D4D4D7" mask="url(#spinnerright@2x-d)"/>
    <rect width="6.5" height="1.5" x="5" y="6" fill="#D4D4D7" mask="url(#spinnerright@2x-d)"/>
    <rect width="1.5" height="6.5" x="7.5" y="3.5" fill="#D4D4D7" mask="url(#spinnerright@2x-d)"/>
    <path fill="#FFF" d="M8.5 6.5L11 6.5 11 7 8.5 7 8.5 9.5 8 9.5 8 7 5.5 7 5.5 6.5 8 6.5 8 4 8.5 4 8.5 6.5zM5.5 15L11 15 11 15.5 5.5 15.5 5.5 15z" mask="url(#spinnerright@2x-d)"/>
  </g>
</svg>
