<svg xmlns="http://www.w3.org/2000/svg" xmlns:xlink="http://www.w3.org/1999/xlink" width="40" height="40" viewBox="0 0 40 40">
  <defs>
    <polygon id="ant-a" points=".605 .796 10 .796 10 4.396 .605 4.396"/>
    <polygon id="ant-c" points=".306 0 17.537 0 17.537 15.126 .306 15.126"/>
  </defs>
  <g fill="none" fill-rule="evenodd" transform="translate(0 8)">
    <path fill="#A81C7D" d="M0.0005,21.3203 C0.3165,21.0563 0.6365,20.7963 0.9505,20.5283 C2.2165,19.4493 3.4795,18.3693 4.7435,17.2893 C5.3545,16.7683 5.9635,16.2463 6.5725,15.7243 C6.5885,15.7123 6.6055,15.7023 6.6145,15.6953 C6.6065,15.9893 6.5825,16.2823 6.5945,16.5743 C6.6175,17.1583 6.7985,17.7033 7.0335,18.2303 C7.0525,18.2723 7.1045,18.3083 7.1475,18.3273 C7.4295,18.4493 7.7225,18.5033 8.0285,18.4683 C8.2205,18.4473 8.4125,18.4393 8.6385,18.4243 C7.9145,19.3803 7.2625,20.3613 6.3265,21.0983 C6.5155,21.1323 6.6705,21.1243 6.8355,21.0153 C7.3345,20.6873 7.6895,20.2123 8.0905,19.7843 C8.5615,19.2813 8.9935,18.7423 9.4675,18.2443 C9.6045,18.0993 9.7835,17.9763 9.9955,17.9063 C10.2525,17.8213 10.5005,17.6863 10.7285,17.5353 C11.6465,16.9233 12.3385,16.1083 12.7765,15.0773 C12.8885,14.8163 13.4705,14.5273 13.7365,14.6103 C13.8045,14.6323 13.8915,14.7273 13.8965,14.7963 C13.9535,15.4233 14.2305,15.9623 14.5515,16.4753 C14.7415,16.7813 14.9975,17.0453 15.2215,17.3303 C15.2935,17.4223 15.3655,17.5163 15.4235,17.6183 C15.4895,17.7383 15.6005,17.7463 15.7065,17.7453 C15.8725,17.7423 16.0325,17.7153 16.1505,17.8903 C16.1805,17.9333 16.3035,17.9493 16.3645,17.9253 C16.5325,17.8623 16.6985,17.7833 16.8505,17.6863 C16.9505,17.6223 17.0365,17.5803 17.1495,17.6323 C17.2865,17.6943 17.4115,17.6653 17.5315,17.5823 C17.8355,17.3713 17.9695,17.0733 17.9345,16.7083 C17.9225,16.5913 17.8455,16.4813 17.7975,16.3683 C17.9565,16.3473 18.1245,16.3273 18.2895,16.3063 C18.3165,16.5253 18.3305,16.7563 18.3775,16.9793 C18.4275,17.2163 18.5495,17.4243 18.7415,17.5723 C18.8125,17.6283 18.9035,17.6713 18.9905,17.6873 C19.2145,17.7293 19.3415,17.8413 19.3855,18.0643 C19.4555,18.4163 19.6045,18.5243 19.9445,18.4563 C20.3215,18.3813 20.6665,18.2213 20.9795,18.0003 C21.1045,17.9123 21.2055,17.9153 21.3195,17.9973 C21.5445,18.1573 21.6755,18.3903 21.8125,18.6233 C22.2555,19.3773 22.7105,20.1223 23.1515,20.8763 C23.2955,21.1213 23.4925,21.1703 23.7605,21.1053 C23.7275,21.0213 23.6955,20.9403 23.6615,20.8593 C23.2275,19.8233 22.7485,18.8093 22.1375,17.8663 C22.0405,17.7163 21.9245,17.5793 21.8135,17.4383 C21.5915,17.1513 21.2815,17.1923 20.9825,17.2253 C20.6695,17.2593 20.4025,17.4073 20.1565,17.6053 C19.9685,17.7573 19.8385,17.7613 19.6815,17.6253 C19.6255,17.5773 19.5665,17.4783 19.5775,17.4153 C19.6455,17.0213 19.5565,16.6583 19.3855,16.2853 C19.5745,16.2383 19.6265,16.0863 19.6715,15.9253 C19.7095,15.7873 19.8045,15.7293 19.9435,15.7513 C20.0215,15.7623 20.0985,15.7733 20.1855,15.7873 C20.0665,16.0973 20.1925,16.3523 20.3645,16.5913 C20.4215,16.6693 20.5025,16.7443 20.5885,16.7803 C21.0675,16.9803 21.5465,17.1833 22.0635,17.2633 C22.2275,17.2893 22.3555,17.2353 22.4975,17.1433 C23.0545,16.7863 23.6215,16.4443 24.1905,16.1073 C24.2905,16.0493 24.4175,16.0313 24.5335,16.0083 C24.7765,15.9623 24.8285,15.9933 24.9295,16.2223 C25.3045,17.0753 25.6805,17.9273 26.0525,18.7823 C26.1125,18.9203 26.1765,18.9963 26.3485,18.9453 C26.4285,18.9223 26.5505,18.9703 26.6255,19.0263 C26.7205,19.0953 26.7995,19.1653 26.9265,19.1633 C27.0775,19.1603 27.1745,19.2593 27.2425,19.3873 C27.3485,19.5883 27.4495,19.7903 27.5575,19.9893 C27.6945,20.2463 27.8985,20.4003 28.1875,20.4563 C28.7475,20.5633 29.3045,20.6883 29.8625,20.8023 C29.9645,20.8233 30.0735,20.8433 30.1725,20.8263 C30.2455,20.8123 30.3415,20.7483 30.3635,20.6823 C30.3815,20.6323 30.3185,20.5073 30.2635,20.4833 C30.1045,20.4143 29.9335,20.3603 29.7615,20.3353 C29.3245,20.2703 28.8865,20.2253 28.4475,20.1733 C28.2505,20.1493 28.1325,20.0303 28.0705,19.8423 C27.9975,19.6173 27.9225,19.3923 27.8505,19.1673 C27.8045,19.0193 27.7155,18.9173 27.5655,18.8803 C27.1745,18.7853 26.9345,18.5363 26.7635,18.1633 C26.4615,17.5023 26.1195,16.8603 25.7965,16.2093 C25.7695,16.1553 25.7505,16.0963 25.7165,16.0103 C25.9525,16.1073 26.1615,16.1963 26.3725,16.2793 C27.2135,16.6113 28.0685,16.8983 28.9495,17.0973 C29.1015,17.1323 29.2575,17.1723 29.4105,17.1673 C29.5685,17.1613 29.7255,17.1043 29.9055,17.0653 C29.9845,17.1933 30.0845,17.3663 30.1975,17.5303 C30.2295,17.5773 30.2955,17.6083 30.3525,17.6263 C30.5105,17.6743 30.6705,17.7213 30.8325,17.7533 C31.5215,17.8833 31.9485,18.3413 32.2765,18.9303 C32.4225,19.1933 32.4905,19.4763 32.5295,19.7733 C32.5745,20.1093 32.7065,20.4123 32.9025,20.6853 C32.9245,20.7153 32.9465,20.7573 32.9765,20.7653 C33.0605,20.7913 33.1575,20.8323 33.2315,20.8083 C33.2855,20.7913 33.3465,20.6753 33.3395,20.6103 C33.3135,20.3433 33.2805,20.0753 33.2155,19.8153 C33.1045,19.3683 32.9415,18.9393 32.6495,18.5743 C32.4065,18.2703 32.0705,18.0953 31.7465,17.9083 C31.4895,17.7583 31.2225,17.6293 30.9635,17.4823 C30.7645,17.3703 30.5715,17.2453 30.3755,17.1263 C30.3665,17.1203 30.3545,17.1143 30.3525,17.1063 C30.2975,16.8593 30.2445,16.6123 30.1915,16.3643 C30.4675,15.5683 30.3155,14.8023 30.0355,14.0453 C29.9995,13.9483 29.9895,13.8413 29.9685,13.7403 C30.2805,13.6643 30.3885,13.3433 30.6605,13.2063 C31.7935,15.9083 32.9275,18.6163 34.0695,21.3423 L23.8605,21.3423 C23.9555,21.5273 24.0215,21.6923 24.1165,21.8363 C24.3545,22.1963 24.5835,22.5663 24.8595,22.8943 C25.0485,23.1183 25.3045,23.2873 25.5435,23.4613 C25.8995,23.6073 26.9405,24.1873 25.7305,23.9383 C25.4705,23.7613 25.1965,23.6123 24.9725,23.4083 C24.8605,23.3063 24.7635,23.1613 24.6915,22.9973 C24.5775,22.7313 24.3855,22.4983 24.2155,22.2583 C24.0255,21.9933 23.8185,21.7403 23.6285,21.4753 C23.5595,21.3793 23.4845,21.3463 23.3685,21.3473 C17.7445,21.3503 12.1195,21.3493 6.4945,21.3533 C6.4135,21.3533 6.3245,21.3873 6.2515,21.4273 C5.6965,21.7363 5.3275,22.2263 5.0305,22.7743 C4.9035,23.0083 4.3065,23.4233 3.7095,23.0973 C3.6605,22.9443 4.2335,22.8293 4.3545,22.7333 C4.9095,22.2963 5.4535,21.8433 6.0295,21.3733 C5.9655,21.3593 5.9435,21.3503 5.9215,21.3503 C3.9475,21.3503 1.9745,21.3513 0.0005,21.3523 L0.0005,21.3203 Z"/>
    <g transform="translate(30 11)">
      <mask id="ant-b" fill="#fff">
        <use xlink:href="#ant-a"/>
      </mask>
      <path fill="#A81C7D" d="M10.0005,4.3955 C9.8135,4.3505 9.6035,4.3475 9.4475,4.2515 C9.1355,4.0565 8.8535,3.8095 8.5565,3.5865 C8.5005,3.5455 8.4345,3.5155 8.3695,3.4885 C8.2615,3.4415 8.1325,3.4225 8.0415,3.3525 C7.6125,3.0265 7.1215,2.8265 6.6435,2.5955 C5.8835,2.2295 5.1345,1.8385 4.3865,1.4485 C4.0865,1.2915 3.7905,1.2005 3.4465,1.2685 C3.0515,1.3465 2.6415,1.3605 2.2505,1.4575 C1.7115,1.5905 1.1985,1.8085 0.7185,2.1295 C0.6805,2.0395 0.6425,1.9495 0.6045,1.8605 C1.2315,1.4525 1.8905,1.1535 2.6045,0.9885 C2.9785,0.9015 3.3455,0.7715 3.7345,0.7995 C3.8185,0.8055 3.9145,0.8285 3.9795,0.8765 C4.6875,1.4025 5.4805,1.7565 6.2785,2.0995 C6.6985,2.2795 7.1265,2.4395 7.5555,2.5925 C7.7045,2.6465 7.8735,2.6385 8.0275,2.6815 C8.1525,2.7165 8.2745,2.7765 8.3895,2.8425 C8.4955,2.9055 8.5815,3.0075 8.6915,3.0615 C9.0425,3.2345 9.3565,3.4595 9.6305,3.7375 C9.7735,3.8825 9.8785,4.0685 10.0005,4.2365 L10.0005,4.3955 Z" mask="url(#ant-b)"/>
    </g>
    <g transform="translate(13)">
      <mask id="ant-d" fill="#fff">
        <use xlink:href="#ant-c"/>
      </mask>
      <path fill="#A81C7D" d="M0.3061,9.9775 C0.9051,9.4655 1.5101,8.9465 2.1161,8.4295 C3.1241,7.5665 4.1331,6.7045 5.1421,5.8435 C6.1911,4.9475 7.2401,4.0525 8.2881,3.1565 C9.3621,2.2405 10.4341,1.3235 11.5061,0.4065 C11.6381,0.2945 11.7691,0.1815 11.9011,0.0695 C12.0321,-0.0415 12.1191,-0.0205 12.1841,0.1365 C13.4041,3.0465 14.6221,5.9565 15.8411,8.8665 C16.3741,10.1395 16.9091,11.4125 17.4421,12.6845 C17.4701,12.7515 17.4971,12.8195 17.5371,12.9175 C17.2991,13.0355 17.0671,13.1585 16.8261,13.2585 C16.7801,13.2785 16.6841,13.2295 16.6361,13.1845 C16.1541,12.7235 15.6461,12.2855 15.2051,11.7855 C14.5251,11.0105 13.6381,10.7085 12.6881,10.5245 C12.4571,10.4795 12.2131,10.4705 11.9781,10.4865 C11.5901,10.5135 11.3181,10.7425 11.1271,11.0795 C11.0921,11.1425 11.0611,11.2095 11.0171,11.2955 C10.9811,11.2375 10.9551,11.1895 10.9231,11.1475 C10.6721,10.8165 10.4221,10.4855 10.1651,10.1595 C10.1371,10.1245 10.0631,10.1035 10.0161,10.1105 C9.6741,10.1635 9.3691,10.3015 9.1161,10.5445 C8.9981,10.6575 8.8821,10.7725 8.7721,10.8935 C8.6211,11.0585 8.4801,11.2035 8.2311,11.2415 C8.0701,11.2675 7.9241,11.4275 7.7821,11.5405 C7.2941,11.9285 6.8101,12.3205 6.3281,12.7165 C6.1821,12.8365 6.0661,12.9815 6.0181,13.1795 C5.9981,13.2605 5.9331,13.3305 5.8811,13.4155 C5.6391,13.2105 5.3901,13.1795 5.1121,13.3105 C5.0971,13.0975 5.0841,12.9095 5.0741,12.7205 C5.0381,12.1015 5.0091,11.4815 4.9671,10.8625 C4.9501,10.5885 4.9341,10.3105 4.8701,10.0445 C4.7831,9.6775 4.5531,9.6265 4.3041,9.9045 C4.0361,10.2045 3.9881,10.5595 4.1321,10.9255 C4.2141,11.1315 4.2571,11.3375 4.2691,11.5545 C4.3071,12.2215 4.3411,12.8885 4.3711,13.5565 C4.3731,13.6025 4.3441,13.6745 4.3081,13.6935 C3.8921,13.9085 3.6921,14.2655 3.6161,14.7215 C3.5931,14.8595 3.5121,14.9875 3.4541,15.1255 C3.1091,14.9025 3.0191,14.7835 3.0951,14.4725 C3.1091,14.4185 3.1371,14.3545 3.1781,14.3255 C3.3321,14.2135 3.3661,14.0535 3.3791,13.8815 C3.3821,13.8445 3.3881,13.8075 3.3871,13.7705 C3.3851,13.4685 3.4061,13.1545 3.0291,13.0905 C3.1191,12.5485 3.2321,12.0265 3.2851,11.4975 C3.3241,11.1055 3.3061,10.7035 3.2741,10.3095 C3.2401,9.9055 3.1701,9.5025 3.0931,9.1035 C3.0181,8.7125 2.6561,8.5645 2.3091,8.7705 C1.6381,9.1705 0.9711,9.5765 0.3061,9.9775" mask="url(#ant-d)"/>
    </g>
    <path fill="#A81C7D" d="M15.0591 13.6299C14.9011 13.6379 14.8821 13.5549 14.8961 13.4089 14.9171 13.1939 14.9181 12.9759 14.9061 12.7589 14.8931 12.5189 14.7521 12.3899 14.5171 12.3649 14.1841 12.3299 13.8871 12.4499 13.5851 12.5699 13.3761 12.6529 13.1561 12.7059 12.9271 12.7759 12.8401 12.4079 12.5801 12.2879 12.2881 12.2129 12.0741 12.1569 11.8571 12.1119 11.6161 12.0569 11.7691 11.8859 11.9211 11.7309 12.0581 11.5619 12.2121 11.3709 12.3891 11.2549 12.6391 11.2159 13.0861 11.1469 13.4051 10.8389 13.7211 10.5379 14.1811 10.0999 14.6421 9.6629 15.1051 9.2279 15.1621 9.1749 15.2241 9.1179 15.2931 9.0919 15.3661 9.0649 15.4761 9.0409 15.5231 9.0769 15.5801 9.1209 15.6171 9.2339 15.6091 9.3109 15.5801 9.6159 15.5331 9.9189 15.4841 10.2209 15.3431 11.0959 15.2611 11.9749 15.3301 12.8619 15.3451 13.0499 15.3711 13.2349 15.1881 13.3769 15.1221 13.4269 15.1031 13.5379 15.0591 13.6299M10.7339 11.9585C9.3929 13.1035 8.0839 14.2215 6.7679 15.3455 6.8489 14.7075 7.0229 14.1075 7.3859 13.5935 7.5519 13.3595 7.7989 13.1775 8.0309 13.0005 8.5049 12.6385 9.0229 12.3455 9.5679 12.1035 9.9309 11.9415 10.3069 11.9345 10.7339 11.9585M20.9614 16.1602C21.0164 16.1172 21.0664 16.0682 21.1244 16.0312 21.3444 15.8902 21.5684 15.7582 21.7854 15.6132 21.9954 15.4732 22.1244 15.2712 22.2254 15.0352 22.3084 14.8402 22.4514 14.6712 22.5714 14.4942 22.7754 14.1942 22.9774 13.8922 23.1924 13.6022 23.2314 13.5512 23.3364 13.5532 23.4214 13.5262 23.5274 14.2392 23.8184 14.8042 24.4214 15.2122 24.0264 15.2992 23.6714 15.3732 23.3174 15.4582 22.8994 15.5592 22.4814 15.6562 22.0694 15.7812 21.8804 15.8392 21.7084 15.9582 21.5274 16.0502 21.4264 16.1012 21.3284 16.1672 21.2214 16.2002 21.1464 16.2232 21.0584 16.2052 20.9764 16.2052 20.9714 16.1892 20.9664 16.1752 20.9614 16.1602M27.4555 15.0146C27.4365 15.1006 27.4325 15.1936 27.3965 15.2726 27.3305 15.4236 27.1715 15.4926 27.0385 15.4426 26.7375 15.3306 26.3065 14.6996 26.3125 14.3806 26.3155 14.1926 26.4295 14.0346 26.6035 13.9746 26.7825 13.9126 26.9625 13.9646 27.0715 14.1226 27.2575 14.3916 27.4415 14.6616 27.4555 15.0146M14.9204 15.1113C15.1344 15.1143 15.3274 15.1683 15.4424 15.3763 15.5454 15.5593 15.6424 15.7463 15.7324 15.9353 15.7514 15.9763 15.7414 16.0383 15.7304 16.0863 15.6624 16.3733 15.7504 16.5143 16.0384 16.5393 16.1704 16.5503 16.3094 16.5363 16.4384 16.5043 16.5304 16.4803 16.5844 16.4853 16.6204 16.5603 16.3974 16.7453 16.1804 16.9313 15.9554 17.1063 15.8724 17.1723 15.7704 17.1893 15.7024 17.0703 15.3604 16.4593 15.0764 15.8213 14.9104 15.1343 14.9094 15.1313 14.9144 15.1263 14.9204 15.1113M23.0024 11.9697C22.7944 11.7767 22.5934 11.5907 22.3584 11.3737 22.4844 11.1637 22.6094 10.9217 22.7684 10.7047 22.8244 10.6267 22.9634 10.5657 23.0564 10.5757 23.1174 10.5827 23.1874 10.7247 23.2124 10.8177 23.2914 11.1167 23.3474 11.4227 23.4214 11.7227 23.4444 11.8217 23.4344 11.8707 23.3284 11.8897 23.2124 11.9097 23.0994 11.9457 23.0024 11.9697M10.9858 11.9575C11.3858 11.6165 11.7748 11.2845 12.1638 10.9535 12.1728 10.9615 12.1808 10.9715 12.1908 10.9795 11.9368 11.2695 11.6728 11.5505 11.4328 11.8525 11.3068 12.0115 11.1768 12.0295 10.9858 11.9575M12.9106 14.6113C12.8796 14.3973 12.8516 14.2063 12.8176 13.9653 13.0266 14.0883 13.1926 14.1843 13.3686 14.2863 13.2176 14.3933 13.0756 14.4943 12.9106 14.6113"/>
  </g>
</svg>
