<!-- Copyright 2000-2022 JetBrains s.r.o. and contributors. Use of this source code is governed by the Apache 2.0 license. -->
<svg width="16" height="16" viewBox="0 0 16 16" fill="none" xmlns="http://www.w3.org/2000/svg">
<rect x="2" y="3" width="4" height="1" rx="0.5" fill="#CED0D6"/>
<rect x="10" y="7.5" width="4" height="1" rx="0.5" fill="#CED0D6"/>
<rect x="10" y="12" width="4" height="1" rx="0.5" fill="#CED0D6"/>
<path fill-rule="evenodd" clip-rule="evenodd" d="M10.1806 3.11529C10.2672 3.0433 10.3786 3 10.5 3H13.5C13.7761 3 14 3.22386 14 3.5C14 3.77614 13.7761 4 13.5 4H10.7942L5.94192 12.7341C5.85796 12.8923 5.69156 13 5.5 13H2.5C2.22386 13 2 12.7761 2 12.5C2 12.2239 2.22386 12 2.5 12H5.2058L7.24566 8.32825L10 4L7 7L6.99769 7.01156L5.31941 8.3847C5.23278 8.4567 5.12145 8.5 5 8.5H2.5C2.22386 8.5 2 8.27614 2 8C2 7.72386 2.22386 7.5 2.5 7.5H4.82152L10.1806 3.11529Z" fill="#3574F0"/>
</svg>
