<!-- Copyright 2000-2022 JetBrains s.r.o. and contributors. Use of this source code is governed by the Apache 2.0 license. -->
<svg width="16" height="16" viewBox="0 0 16 16" fill="none" xmlns="http://www.w3.org/2000/svg">
<path d="M1.5 14V2C1.5 1.72386 1.72386 1.5 2 1.5H4C4.27614 1.5 4.5 1.72386 4.5 2V14C4.5 14.2761 4.27614 14.5 4 14.5H2C1.72386 14.5 1.5 14.2761 1.5 14Z" stroke="#CED0D6"/>
<path d="M6.5 14V2C6.5 1.72386 6.72386 1.5 7 1.5H9C9.27614 1.5 9.5 1.72386 9.5 2V14C9.5 14.2761 9.27614 14.5 9 14.5H7C6.72386 14.5 6.5 14.2761 6.5 14Z" stroke="#CED0D6"/>
<path d="M13.5 4V12C13.5 12.2761 13.2761 12.5 13 12.5C12.7239 12.5 12.5 12.2761 12.5 12V4C12.5 3.72386 12.7239 3.5 13 3.5C13.2761 3.5 13.5 3.72386 13.5 4Z" stroke="#CED0D6"/>
</svg>
