<!-- Copyright 2000-2022 JetBrains s.r.o. and contributors. Use of this source code is governed by the Apache 2.0 license. -->
<svg width="16" height="16" viewBox="0 0 16 16" fill="none" xmlns="http://www.w3.org/2000/svg">
<path d="M1.5 14V2C1.5 1.72386 1.72386 1.5 2 1.5H4C4.27614 1.5 4.5 1.72386 4.5 2V14C4.5 14.2761 4.27614 14.5 4 14.5H2C1.72386 14.5 1.5 14.2761 1.5 14Z" stroke="#CED0D6"/>
<path d="M11.5 14V2C11.5 1.72386 11.7239 1.5 12 1.5H14C14.2761 1.5 14.5 1.72386 14.5 2V14C14.5 14.2761 14.2761 14.5 14 14.5H12C11.7239 14.5 11.5 14.2761 11.5 14Z" stroke="#CED0D6"/>
<path d="M8.5 4V12C8.5 12.2761 8.27614 12.5 8 12.5C7.72386 12.5 7.5 12.2761 7.5 12V4C7.5 3.72386 7.72386 3.5 8 3.5C8.27614 3.5 8.5 3.72386 8.5 4Z" stroke="#CED0D6"/>
</svg>
