<!-- Copyright 2000-2022 JetBrains s.r.o. and contributors. Use of this source code is governed by the Apache 2.0 license. -->
<svg width="16" height="16" viewBox="0 0 16 16" fill="none" xmlns="http://www.w3.org/2000/svg">
<path d="M7.5 8V3C7.5 2.72386 7.72386 2.5 8 2.5C8.27614 2.5 8.5 2.72386 8.5 3V8C8.5 8.27614 8.27614 8.5 8 8.5C7.72386 8.5 7.5 8.27614 7.5 8Z" stroke="#CED0D6"/>
<path d="M11.5 9V2C11.5 1.72386 11.7239 1.5 12 1.5H14C14.2761 1.5 14.5 1.72386 14.5 2V9C14.5 9.27614 14.2761 9.5 14 9.5H12C11.7239 9.5 11.5 9.27614 11.5 9Z" stroke="#CED0D6"/>
<path d="M2.5 8V3C2.5 2.72386 2.72386 2.5 3 2.5C3.27614 2.5 3.5 2.72386 3.5 3V8C3.5 8.27614 3.27614 8.5 3 8.5C2.72386 8.5 2.5 8.27614 2.5 8Z" stroke="#CED0D6"/>
<rect x="1.5" y="11.5" width="13" height="3" rx="0.5" stroke="#CED0D6"/>
</svg>
