<svg fill="none" width="40" height="40" viewBox="0 0 40 40" xmlns="http://www.w3.org/2000/svg">
  <g transform="matrix(2.71 0 0 2.71 -1.71 -1.72)">
    <g fill="#2c2255">
      <path d="m4.85 9.81h-2.15c0.284 0.975 0.812 1.85 1.58 2.62 1.23 1.23 2.71 1.85 4.44 1.85 0.346 0 0.681-0.0257 1.01-0.0749 1.3-0.197 2.45-0.786 3.42-1.77 0.777-0.772 1.31-1.65 1.59-2.62h-2.14z"/>
      <path d="m3.67 6.89h-1.12c-0.041 0.246-0.069 0.498-0.0817 0.756h12.5c-0.0128-0.258-0.0408-0.509-0.0822-0.756"/>
      <path d="m2.47 8.35c0.0127 0.258 0.0405 0.51 0.0817 0.756h12.4c0.0413-0.246 0.0695-0.498 0.0824-0.756"/>
      <path d="m14.8 6.19c-0.286-0.978-0.817-1.86-1.6-2.63-0.976-0.975-2.11-1.56-3.41-1.76-0.329-0.0499-0.667-0.076-1.02-0.076-1.73 0-3.21 0.611-4.44 1.83-0.772 0.778-1.3 1.66-1.58 2.63"/>
    </g>
    <path d="m2.09 8c0-3.31 2.49-6.06 5.72-6.55-0.0803-0.00295-0.161-0.00628-0.242-0.00628-3.63 0-6.57 2.93-6.57 6.55 0 3.62 2.94 6.55 6.57 6.55 0.0813 0 0.162-3e-3 0.242-6e-3 -3.24-0.484-5.72-3.23-5.72-6.55z" fill="#f7941e"/>
    <path d="m13 7.65c-0.021-0.259-0.0646-0.512-0.13-0.756h-8.27c-0.0651 0.244-0.109 0.497-0.13 0.756z" fill="url(#paint0_linear_1136_25360)"/>
    <path d="m13 8.35h-8.53c0.021 0.259 0.0645 0.512 0.13 0.756h8.27c0.0651-0.244 0.109-0.497 0.13-0.756z" fill="url(#paint1_linear_1136_25360)"/>
    <path d="m8.73 12.3c1.72 0 3.2-1.01 3.88-2.47h-7.76c0.682 1.46 2.16 2.47 3.88 2.47z" fill="url(#paint2_linear_1136_25360)"/>
  </g>
  <defs>
    <linearGradient id="paint0_linear_1136_25360" x1="8.73" x2="8.73" y1="15.1" y2="5.69" gradientUnits="userSpaceOnUse">
      <stop stop-color="#473788" offset=".303"/>
      <stop stop-color="#2C2255" offset=".872"/>
    </linearGradient>
    <linearGradient id="paint1_linear_1136_25360" x1="8.73" x2="8.73" y1="15.1" y2="5.69" gradientUnits="userSpaceOnUse">
      <stop stop-color="#473788" offset=".303"/>
      <stop stop-color="#2C2255" offset=".872"/>
    </linearGradient>
    <linearGradient id="paint2_linear_1136_25360" x1="8.73" x2="8.73" y1="15.1" y2="5.69" gradientUnits="userSpaceOnUse">
      <stop stop-color="#473788" offset=".303"/>
      <stop stop-color="#2C2255" offset=".863"/>
    </linearGradient>
  </defs>
</svg>
