<svg width="40" height="40" viewBox="0 0 40 40" fill="none" xmlns="http://www.w3.org/2000/svg">
<path d="M4.81209 20.0025C4.81209 11.4891 11.206 4.41535 19.524 3.17118C19.3176 3.16359 19.1102 3.15503 18.9019 3.15503C9.56758 3.15503 2 10.6982 2 20.0025C2 29.3071 9.56725 36.8496 18.9019 36.8496C19.1109 36.8496 19.3182 36.8421 19.5253 36.8342C11.206 35.59 4.81209 28.5162 4.81209 20.0025Z" fill="#F7941E"/>
<path d="M37.2549 25C35.1939 31.5387 29.0858 36.2802 21.8701 36.2803C14.6543 36.2803 8.54533 31.5388 6.48438 25H37.2549Z" fill="#2C2255"/>
<path d="M37.9766 21C37.941 21.6786 37.8639 22.3461 37.7471 23H5.99316C5.8763 22.3461 5.7983 21.6787 5.7627 21H37.9766Z" fill="#2C2255"/>
<path d="M37.6934 17C37.8221 17.6534 37.9116 18.3208 37.959 19H5.78027C5.82764 18.3209 5.91714 17.6534 6.0459 17H37.6934Z" fill="#2C2255"/>
<path d="M21.8701 4C28.9824 4.00006 35.0188 8.60637 37.1641 15H6.57617C8.72143 8.60637 14.7578 4 21.8701 4Z" fill="#2C2255"/>
<path d="M31.7197 25C29.9272 28.6305 26.1909 31.1279 21.8701 31.1279C17.5493 31.1279 13.8131 28.6305 12.0205 25H31.7197Z" fill="url(#paint0_linear_4543_2997)"/>
<path d="M32.8145 21C32.7613 21.6864 32.647 22.3548 32.4736 23H11.2666C11.0932 22.3547 10.9779 21.6864 10.9248 21H32.8145Z" fill="url(#paint1_linear_4543_2997)"/>
<path d="M32.3936 17C32.5852 17.6442 32.7221 18.3123 32.793 19H10.9473C11.0181 18.3123 11.1541 17.6441 11.3457 17H32.3936Z" fill="url(#paint2_linear_4543_2997)"/>
<path d="M37.7471 23C37.6251 23.6826 37.4597 24.3501 37.2549 25H6.48438C6.27955 24.3501 6.11513 23.6825 5.99316 23H37.7471Z" fill="white"/>
<path d="M37.959 19C37.9852 19.3765 38 19.7565 38 20.1396C38 20.4282 37.9915 20.7152 37.9766 21H5.7627C5.74775 20.7152 5.74023 20.4281 5.74023 20.1396C5.74024 19.7565 5.75402 19.3765 5.78027 19H37.959Z" fill="white"/>
<path d="M37.1641 15C37.3819 15.6492 37.5587 16.3169 37.6934 17H6.0459C6.18053 16.3168 6.35832 15.6493 6.57617 15H37.1641Z" fill="white"/>
<defs>
<linearGradient id="paint0_linear_4543_2997" x1="21.8697" y1="38.5926" x2="21.8697" y2="13.8401" gradientUnits="userSpaceOnUse">
<stop offset="0.3033" stop-color="#473788"/>
<stop offset="0.8631" stop-color="#2C2255"/>
</linearGradient>
<linearGradient id="paint1_linear_4543_2997" x1="21.8697" y1="38.5926" x2="21.8697" y2="13.8401" gradientUnits="userSpaceOnUse">
<stop offset="0.3033" stop-color="#473788"/>
<stop offset="0.8631" stop-color="#2C2255"/>
</linearGradient>
<linearGradient id="paint2_linear_4543_2997" x1="21.8697" y1="38.5926" x2="21.8697" y2="13.8401" gradientUnits="userSpaceOnUse">
<stop offset="0.3033" stop-color="#473788"/>
<stop offset="0.8631" stop-color="#2C2255"/>
</linearGradient>
</defs>
</svg>
