<svg xmlns="http://www.w3.org/2000/svg" width="16" height="16" viewBox="0 0 16 16">
  <g fill="none" fill-rule="evenodd">
    <path fill="#F26522" fill-opacity=".7" d="M9.70592475,9 C9.57409855,9.09943867 9.44795799,9.20889626 9.32842712,9.32842712 C7.76632996,10.8905243 7.9246212,13.5814755 9.68198052,15.3388348 C9.93586585,15.5927201 10.2092367,15.8132304 10.4958741,16 L1,16 L1,9 L9.70592475,9 Z"/>
    <polygon fill="#9AA7B0" fill-opacity=".8" points="7 1 3 5 7 5"/>
    <polygon fill="#9AA7B0" fill-opacity=".8" points="8 1 8 6 3 6 3 8 13 8 13 1"/>
    <polygon fill="#231F20" fill-opacity=".7" points="0 3 0 2 3 0 3 1 .8 2.5 3 4 3 5" transform="translate(3 10)"/>
    <path fill="#935E2D" fill-opacity=".7" d="M6.34364231,5.71927648 L1.18693679,0.646125199 C2.58799263,-0.463749634 4.38406421,-0.0677171692 5.72661772,1.25370296 C7.06867121,2.57413915 7.47168727,4.34128028 6.34364231,5.71927648 Z M5.81312116,6.24174415 C4.41256535,7.35211095 2.61649376,6.95558652 1.27394026,5.63465836 C-0.0681132327,4.31422217 -0.471129295,2.54708103 0.656915663,1.16859287 L5.81312116,6.24174415 Z" transform="translate(9 9)"/>
  </g>
</svg>
