<svg xmlns="http://www.w3.org/2000/svg" width="16" height="16" viewBox="0 0 16 16">
  <g fill="none" fill-rule="evenodd">
    <path fill="#F26522" fill-opacity=".7" d="M9.68273127,9 C9.55567746,9.09676366 9.43396457,9.20288967 9.31842712,9.31842712 C7.75632996,10.8805243 7.9146212,13.5714755 9.67198052,15.3288348 C9.93041172,15.587266 10.2090324,15.8111163 10.5012837,16 L1,16 L1,9 L9.68273127,9 Z M14.4982697,9 L16,9 L16,10.5012837 C15.8111163,10.2090324 15.587266,9.93041172 15.3288348,9.67198052 C15.0700316,9.41317739 14.7909808,9.18905472 14.4982697,9 Z M16,15.3191541 L16,16 L15.3191541,16 C15.4458213,15.9034556 15.5671751,15.7976012 15.6823882,15.6823882 C15.7976012,15.5671751 15.9034556,15.4458213 16,15.3191541 Z"/>
    <polygon fill="#231F20" fill-opacity=".7" points="0 3 0 2 3 0 3 1 .8 2.5 3 4 3 5" transform="translate(3 10)"/>
    <path fill="#935E2D" fill-opacity=".7" d="M.6572 1.188C-.4708 2.588-.0688 4.384 1.2742 5.726 2.6162 7.069 4.4122 7.471 5.8122 6.343L.6572 1.188zM6.3437 5.812C7.4717 4.412 7.0687 2.616 5.7267 1.274 4.3837-.069 2.5877-.472 1.1877.657L6.3437 5.812z" transform="translate(9 9)"/>
    <polygon fill="#9AA7B0" fill-opacity=".8" points="7 1 3 5 7 5"/>
    <polygon fill="#9AA7B0" fill-opacity=".8" points="8 1 8 6 3 6 3 8 13 8 13 1"/>
  </g>
</svg>
