<!-- Copyright 2000-2021 JetBrains s.r.o. Use of this source code is governed by the Apache 2.0 license that can be found in the LICENSE file. -->
<svg xmlns="http://www.w3.org/2000/svg" width="16" height="16" viewBox="0 0 16 16">
  <g fill="none" fill-rule="evenodd">
    <path fill="#62B543" fill-opacity=".6" d="M14.5364658,10.5101918 L12.5,8.7 L8,12.7 L8,15 C4.134,15 1,11.866 1,8 C1,4.134 4.134,1 8,1 C11.866,1 15,4.134 15,8 C15,8.8846539 14.8358949,9.73097822 14.5364658,10.5101918 Z"/>
    <g fill="#9AA7B0" transform="translate(9 10)">
      <path d="M4,6 L4,4 L3,4 L3,6 L1,6 L1,3 L6,3 L6,6 L4,6 Z"/>
      <polygon points="3.5 0 7 3 0 3"/>
    </g>
    <polygon fill="#231F20" fill-rule="nonzero" points="2.6 5 2.6 1 4 1 4 0 0 0 0 1 1.4 1 1.4 5 0 5.006 0 6 4 6 4 5" opacity=".7" transform="translate(6 5)"/>
  </g>
</svg>
