<svg xmlns="http://www.w3.org/2000/svg" width="16" height="16" viewBox="0 0 16 16">
  <g fill="none" fill-rule="evenodd">
    <path fill="#9AA7B0" d="M3.01082728,8.3316949 C3.00364669,8.22205687 3,8.1114543 3,8 C3,5.23857625 5.23857625,3 8,3 C8.1114543,3 8.22205687,3.00364669 8.3316949,3.01082728 C8.18673706,3.31869724 8.08533196,3.65112029 8.03542246,4.00015358 C8.02362709,4.00005126 8.01181953,4 8,4 C5.790861,4 4,5.790861 4,8 C4,8.01181953 4.00005126,8.02362709 4.00015358,8.03542246 C3.65112029,8.08533196 3.31869724,8.18673706 3.01082728,8.3316949 Z M7.6683051,12.9891727 C7.81326294,12.6813028 7.91466804,12.3488797 7.96457754,11.9998464 C7.97637291,11.9999487 7.98818047,12 8,12 C10.209139,12 12,10.209139 12,8 C12,7.98818047 11.9999487,7.97637291 11.9998464,7.96457754 C12.3488797,7.91466804 12.6813028,7.81326294 12.9891727,7.6683051 C12.9963533,7.77794313 13,7.8885457 13,8 C13,10.7614237 10.7614237,13 8,13 C7.8885457,13 7.77794313,12.9963533 7.6683051,12.9891727 Z"/>
    <circle cx="11.5" cy="4.5" r="3.5" fill="#F4AF3D" fill-opacity=".7"/>
    <circle cx="4.5" cy="11.5" r="3.5" fill="#F4AF3D" fill-opacity=".7"/>
  </g>
</svg>
