<svg xmlns="http://www.w3.org/2000/svg" width="16" height="16" viewBox="0 0 16 16">
  <path fill="#AFB1B3" fill-rule="evenodd" d="M4.04665203,3.44116854 C5.09596595,2.54133348 6.45969267,1.99769536 7.95039212,1.99769536 C11.2640808,1.99769536 13.9503563,4.68398686 13.9503563,7.99769536 C13.9503563,11.3114039 11.2640808,13.9976954 7.95039212,13.9976954 C5.08456279,13.9976954 2.68801224,11.9884621 2.09255309,9.30181603 L3.92947436,9.20554706 C4.44970274,10.9341479 6.05374802,12.1933087 7.95188695,12.1933087 C10.2714828,12.1933087 12.1518868,10.3129104 12.1518868,7.99332145 C12.1518868,5.67373254 10.2714828,3.79333419 7.95188695,3.79333419 C6.99133199,3.79333419 6.10609075,4.11578959 5.3985061,4.65835783 L7.98812671,6.9900137 L1.99630775,7.30403162 L1.68229639,1.3123379 L4.04665203,3.44116854 Z" transform="scale(-1 1) rotate(3 0 -290.838)"/>
</svg>
