<svg xmlns="http://www.w3.org/2000/svg" width="16" height="16" viewBox="0 0 16 16">
  <g fill="none" fill-rule="evenodd">
    <path fill="#F26522" fill-opacity=".7" d="M9.67133283,9 C8.65183347,9.82497775 8,11.0863669 8,12.5 C8,13.9136331 8.65183347,15.1750222 9.67133283,16 L1,16 L1,9 L9.67133283,9 Z M15.3286672,9 L16,9 L16,9.67133283 C15.8004222,9.42469653 15.5753035,9.19957782 15.3286672,9 Z M16,15.3286672 L16,16 L15.3286672,16 C15.5753035,15.8004222 15.8004222,15.5753035 16,15.3286672 Z"/>
    <polygon fill="#231F20" fill-opacity=".7" points="0 3 0 2 3 0 3 1 .8 2.5 3 4 3 5" transform="translate(3 10)"/>
    <path fill="#9AA7B0" d="M12.5,9 C10.568,9 9,10.568 9,12.5 C9,14.432 10.568,16 12.5,16 C14.432,16 16,14.432 16,12.5 C16,10.568 14.432,9 12.5,9 Z M12.15,15.2755 C10.7675,15.104 9.7,13.928 9.7,12.5 C9.7,12.283 9.728,12.0765 9.7735,11.8735 L11.45,13.55 L11.45,13.9 C11.45,14.285 11.765,14.6 12.15,14.6 L12.15,15.2755 Z M14.565,14.3865 C14.474,14.103 14.215,13.9 13.9,13.9 L13.55,13.9 L13.55,12.85 C13.55,12.6575 13.3925,12.5 13.2,12.5 L11.1,12.5 L11.1,11.8 L11.8,11.8 C11.9925,11.8 12.15,11.6425 12.15,11.45 L12.15,10.75 L12.85,10.75 C13.235,10.75 13.55,10.435 13.55,10.05 L13.55,9.9065 C14.5755,10.323 15.3,11.3275 15.3,12.5 C15.3,13.228 15.02,13.8895 14.565,14.3865 Z"/>
    <polygon fill="#9AA7B0" fill-opacity=".8" points="7 1 3 5 7 5"/>
    <polygon fill="#9AA7B0" fill-opacity=".8" points="8 1 8 6 3 6 3 8 13 8 13 1"/>
  </g>
</svg>
