<svg width="40" height="40" viewBox="0 0 40 40" fill="none" xmlns="http://www.w3.org/2000/svg">
<path fill-rule="evenodd" clip-rule="evenodd" d="M6 20C6 23.866 9.13401 27 13 27H21C24.866 27 28 23.866 28 20V8H6V20ZM31 14.5723L33.1709 13.4873C33.679 13.2332 34 12.7136 34 12.1455V8H31V14.5723Z" fill="#45322B"/>
<path fill-rule="evenodd" clip-rule="evenodd" d="M19.98 15.992C18.484 15.992 17.5 14.736 17.5 13.112V13.096C17.5 11.472 18.508 10.2 19.996 10.2C21.476 10.2 22.476 11.456 22.476 13.08V13.096C22.476 14.72 21.476 15.992 19.98 15.992ZM20.002 14.88C20.746 14.88 21.218 14.128 21.218 13.112V13.096C21.218 12.08 20.722 11.312 19.986 11.312C19.25 11.312 18.77 12.056 18.77 13.08V13.096C18.77 14.12 19.258 14.88 20.002 14.88Z" fill="#CED0D6"/>
<path fill-rule="evenodd" clip-rule="evenodd" d="M13.98 23.7919C12.484 23.7919 11.5 22.5359 11.5 20.9119V20.8959C11.5 19.2719 12.508 17.9999 13.996 17.9999C15.476 17.9999 16.476 19.2559 16.476 20.8799V20.8959C16.476 22.5199 15.476 23.7919 13.98 23.7919ZM14.002 22.6799C14.746 22.6799 15.218 21.9279 15.218 20.9119V20.8959C15.218 19.8799 14.722 19.1119 13.986 19.1119C13.25 19.1119 12.77 19.8559 12.77 20.8799V20.8959C12.77 21.9199 13.258 22.6799 14.002 22.6799Z" fill="#CED0D6"/>
<path d="M15.91 15.0919H14.858V10.3513H14.018L12.0825 10.9724L12.3385 11.8858L13.642 11.5048V15.0919H12.41V15.9919H15.91V15.0919Z" fill="#CED0D6"/>
<path d="M20.8621 22.7406H21.9141V23.6406H18.4141V22.7406H19.6461V19.1534L18.3426 19.5345L18.0866 18.621L20.0221 18H20.8621V22.7406Z" fill="#CED0D6"/>
<path d="M31.5 32C32.3284 32 33 32.6716 33 33.5C33 34.3284 32.3284 35 31.5 35H18V32H31.5Z" fill="#C77D55"/>
<path fill-rule="evenodd" clip-rule="evenodd" d="M34.5 5C35.8807 5 37 6.11929 37 7.5V12.1455C37 13.8499 36.0371 15.4086 34.5127 16.1709L31 17.9268V20C31 25.5228 26.5228 30 21 30H18V27H21C24.866 27 28 23.866 28 20V8H18V5H34.5ZM31 14.5723L33.1709 13.4873C33.679 13.2332 34 12.7136 34 12.1455V8H31V14.5723Z" fill="#C77D55"/>
<path d="M16 32V35H4.5C3.67157 35 3 34.3284 3 33.5C3 32.6716 3.67157 32 4.5 32H16Z" fill="#CED0D6"/>
<path d="M16 5V8H6V20C6 23.866 9.13401 27 13 27H16V30H13C7.47715 30 3 25.5228 3 20V8C3 6.34315 4.34315 5 6 5H16Z" fill="#CED0D6"/>
</svg>
