<svg xmlns="http://www.w3.org/2000/svg" width="16" height="16" viewBox="0 0 16 16">
  <g fill="none" fill-rule="evenodd">
    <polygon fill="#9AA7B0" fill-opacity=".8" points="7 1 3 5 7 5"/>
    <path fill="#9AA7B0" fill-opacity=".8" d="M13,7 L8,7 L8,15 L3,15 L3,6 L8,6 L8,1 L13,1 L13,7 Z"/>
    <path fill="#231F20" fill-opacity=".7" d="M5.13584937,4.03749986 C6.65200638,5.09135773 7.28147997,5.64863567 7.28147997,6.02083333 L7.28147997,8.00416668 L6.57314664,8.00416668 L6.57314664,6.02083333 C6.57314664,6.08544658 6.55017014,6.04983301 6.49376445,5.99060704 C6.38856828,5.88015106 6.22245895,5.73342115 5.99773381,5.55364104 C5.66606387,5.28830509 5.21242976,4.95534626 4.63763469,4.55550092 C4.57935709,4.61802488 4.51457224,4.6732438 4.44450299,4.71981256 C4.62221335,4.84075653 4.80892878,4.99670184 4.95833333,5.17083334 C5.41488383,5.70294444 5.66666667,6.3991795 5.66666667,6.72916667 C5.66666667,7.70717091 4.87383758,8.0041668 3.89583333,8.0041668 C2.91782909,8.0041668 2.125,7.70717091 2.125,6.72916667 C2.125,6.47856293 2.39395942,5.72429241 2.83333333,5.17083334 C2.98088549,4.98496869 3.15726799,4.82668106 3.32860197,4.70718825 C3.24160535,4.64665291 3.16315226,4.57260381 3.09568087,4.48772295 C2.47438739,4.9178567 1.98814945,5.27345174 1.63791283,5.55364104 C1.41318769,5.73342115 1.24707835,5.88015106 1.14188218,5.99060704 C1.0854765,6.04983301 1.0625,6.08544658 1.0625,6.02083333 L1.0625,8.00416668 L0.354166667,8.00416668 L0.354166667,6.02083333 C0.354166667,5.64863567 0.98364026,5.09135773 2.49979727,4.03749986 L0.495833367,4.03749986 L0.495833367,3.32916653 L2.65637025,3.32916653 C2.25078935,3.18308507 1.8922229,2.97539258 1.57171594,2.70619612 C1.10834802,2.31700957 0.724530069,1.79927064 0.393202035,1.15330291 L1.02346463,0.83003031 C1.57787036,1.91091745 2.26081556,2.53781436 3.2676346,2.77168476 L3.26638145,2.77707961 C3.29085507,2.75725179 3.31612957,2.73855072 3.34214171,2.72104599 C2.83488241,2.50544954 2.47916667,2.00259903 2.47916667,1.41666667 C2.47916667,0.634263271 3.11342994,4.6629367e-15 3.89583333,4.6629367e-15 C4.67823673,4.6629367e-15 5.3125,0.634263271 5.3125,1.41666667 C5.3125,2.00259903 4.95678425,2.50544954 4.44952495,2.72104599 C4.45272489,2.72319937 4.45591366,2.72537085 4.45909116,2.72756031 C5.37376147,2.46441995 6.01059315,1.84893176 6.53320534,0.83003031 L7.16346794,1.15330291 C6.60296361,2.24608007 5.89224284,2.9718901 4.90029973,3.32916653 L7.29583364,3.32916653 L7.29583364,4.03749986 L5.13584937,4.03749986 Z" transform="translate(8.7 8)"/>
  </g>
</svg>
