<svg xmlns="http://www.w3.org/2000/svg" width="16" height="16" viewBox="0 0 16 16">
  <path fill="#9AA7B0" fill-opacity=".8" fill-rule="evenodd" d="M9.26794473,7.06562476 C11.9212195,8.90987604 13.0227983,9.88511242 13.0227983,10.5364583 L13.0227983,14.0072917 L11.7832149,14.0072917 L11.7832149,10.5364583 C11.7832149,10.6495315 11.7430061,10.5872078 11.6442961,10.4835623 C11.4602028,10.2902644 11.1695115,10.033487 10.7762425,9.71887182 C10.1958201,9.2545339 9.40196042,8.67185596 8.39606903,7.97212661 C8.29408323,8.08154355 8.18070976,8.17817666 8.05808856,8.25967197 C8.3690817,8.47132393 8.69583369,8.74422822 8.95729167,9.04895835 C9.75625503,9.98015278 10.196875,11.1985641 10.196875,11.7760417 C10.196875,13.4875491 8.80942409,14.0072919 7.09791667,14.0072919 C5.38640924,14.0072919 3.99895833,13.4875491 3.99895833,11.7760417 C3.99895833,11.3374851 4.46963732,10.0175117 5.23854167,9.04895835 C5.49675794,8.72369521 5.80542732,8.44669185 6.10526179,8.23757945 C5.9530177,8.1316426 5.81572479,8.00205668 5.69764986,7.85351517 C4.61038626,8.60624922 3.75946987,9.22854055 3.14655578,9.71887182 C2.75328679,10.033487 2.46259545,10.2902644 2.27850215,10.4835623 C2.1797922,10.5872078 2.13958333,10.6495315 2.13958333,10.5364583 L2.13958333,14.0072917 L0.9,14.0072917 L0.9,10.5364583 C0.9,9.88511242 2.00157879,8.90987604 4.65485355,7.06562476 L1.14791673,7.06562476 L1.14791673,5.82604143 L4.92885626,5.82604143 C4.2190897,5.57039888 3.59159841,5.20693702 3.03071123,4.73584322 C2.21981737,4.05476674 1.54813595,3.14872362 0.968311895,2.01828008 L2.07127144,1.45255304 C3.04148146,3.34410554 4.23663557,4.44117512 5.99856889,4.85044834 L5.99637588,4.85988933 C6.03920471,4.82519063 6.08343509,4.79246376 6.12895633,4.76183048 C5.24125256,4.38453669 4.61875,3.50454831 4.61875,2.47916667 C4.61875,1.10996072 5.72871072,4.4408921e-15 7.09791667,4.4408921e-15 C8.46712261,4.4408921e-15 9.57708333,1.10996072 9.57708333,2.47916667 C9.57708333,3.50454831 8.95458078,4.38453669 8.066877,4.76183048 C8.07247689,4.76559889 8.07805725,4.76939899 8.08361786,4.77323055 C9.6842909,4.31273491 10.7987463,3.23563058 11.7133177,1.45255304 L12.8162772,2.01828008 C11.8353947,3.93064012 10.5916333,5.20080767 8.85573285,5.82604143 L13.0479172,5.82604143 L13.0479172,7.06562476 L9.26794473,7.06562476 Z" transform="translate(1 1)"/>
</svg>
