<svg xmlns="http://www.w3.org/2000/svg" width="16" height="16" viewBox="0 0 16 16">
  <path fill="#62B543" fill-opacity=".7" fill-rule="evenodd" d="M10.4247273,9.1538462 L10.4247273,9.6923077 C10.4247273,10.066 10.3603636,10.4224615 10.2687273,10.7692308 L12,10.7692308 L12,12.3846154 L9.4352727,12.3846154 C8.6345455,13.3603077 7.42581818,14 6.06109091,14 C4.69636364,14 3.48763636,13.3603077 2.68690909,12.3846154 L0,12.3846154 L0,10.7692308 L1.85345455,10.7692308 C1.76181818,10.4224615 1.69745455,10.066 1.69745455,9.6923077 L1.69745455,9.1538462 L0,9.1538462 L0,7.53846154 L1.69745455,7.53846154 L1.69745455,6.46153846 C1.69745455,6.27738462 1.73018182,6.10184615 1.75309091,5.92307692 L0,5.92307692 L0,4.30769231 L2.30727273,4.30769231 C2.724,3.60446154 3.33272727,3.03261538 4.06690909,2.65461538 L2.53418182,1.14261538 L3.69163636,0 L5.89090909,2.17107692 C5.94872727,2.16892308 5.94218182,2.16030769 6,2.16030769 C6.02072727,2.16030769 6.09927261,2.16892315 6.11999989,2.17000008 L8.3083636,0 L9.4658182,1.14261538 L7.97672727,2.61261538 C8.7458182,2.98846154 9.3829091,3.57861538 9.8149091,4.30769231 L12,4.30769231 L12,5.92307692 L10.3690909,5.92307692 C10.392,6.10184615 10.4247273,6.27738462 10.4247273,6.46153846 L10.4247273,7.53846154 L12,7.53846154 L12,9.1538462 L10.4247273,9.1538462 Z M4.19999981,6 L4.19999981,7.5 L7.79999971,7.5 L7.79999971,6 L4.19999981,6 Z M4.19999981,9 L4.19999981,10.5 L7.79999971,10.5 L7.79999971,9 L4.19999981,9 Z" transform="translate(2 1)"/>
</svg>
