<svg xmlns="http://www.w3.org/2000/svg" width="16" height="16" viewBox="0 0 16 16">
  <path fill="#9AA7B0" fill-opacity=".8" fill-rule="evenodd" d="M4.5638852,2 L11.4361148,2 C12.3276335,2 12.6509198,2.09282561 12.9768457,2.2671327 C13.3027716,2.4414398 13.5585602,2.69722837 13.7328673,3.0231543 C13.9071744,3.34908022 14,3.67236646 14,4.5638852 L14,11.4361148 C14,12.3276335 13.9071744,12.6509198 13.7328673,12.9768457 C13.5585602,13.3027716 13.3027716,13.5585602 12.9768457,13.7328673 C12.6509198,13.9071744 12.3276335,14 11.4361148,14 L4.5638852,14 C3.67236646,14 3.34908022,13.9071744 3.0231543,13.7328673 C2.69722837,13.5585602 2.4414398,13.3027716 2.2671327,12.9768457 C2.09282561,12.6509198 2,12.3276335 2,11.4361148 L2,4.5638852 C2,3.67236646 2.09282561,3.34908022 2.2671327,3.0231543 C2.4414398,2.69722837 2.69722837,2.4414398 3.0231543,2.2671327 C3.34908022,2.09282561 3.67236646,2 4.5638852,2 Z M4,4 L4,5 L9,5 L9,4 L4,4 Z M8,6 L8,7 L12,7 L12,6 L8,6 Z M4,8 L4,9 L10,9 L10,8 L4,8 Z M10,4 L10,5 L12,5 L12,4 L10,4 Z M4,6 L4,7 L7,7 L7,6 L4,6 Z"/>
</svg>
