<svg xmlns="http://www.w3.org/2000/svg" width="16" height="16" viewBox="0 0 16 16">
  <path fill="#AFB1B3" fill-rule="evenodd" d="M4.53453794,5.92072276 L5.5048673,6.89105212 L4.11868247,8.27723695 C3.1234431,9.27247632 3.1234431,10.8860782 4.11868247,11.8813175 C5.11392184,12.8765569 6.72752368,12.8765569 7.72276305,11.8813175 L9.10894788,10.4951327 L10.0792772,11.4654621 L8.69309241,12.8516469 C7.16195493,14.3827844 4.67949059,14.3827844 3.14835311,12.8516469 C1.61721563,11.3205094 1.61721563,8.83804507 3.14835311,7.30690759 L4.53453794,5.92072276 Z M5.92072276,4.53453794 L7.30690759,3.14835311 C8.83804507,1.61721563 11.3205094,1.61721563 12.8516469,3.14835311 C14.3827844,4.67949059 14.3827844,7.16195493 12.8516469,8.69309241 L11.4654621,10.0792772 L10.4951327,9.10894788 L11.8813175,7.72276305 C12.8765569,6.72752368 12.8765569,5.11392184 11.8813175,4.11868247 C10.8860782,3.1234431 9.27247632,3.1234431 8.27723695,4.11868247 L6.89105212,5.5048673 L5.92072276,4.53453794 Z M5.47292305,9.45225863 L9.35424056,5.57094112 L10.5324977,6.74919822 L6.65118015,10.6305157 L5.47292305,9.45225863 Z"/>
</svg>
