<svg width="16" height="16" viewBox="0 0 16 16" fill="none" xmlns="http://www.w3.org/2000/svg">
<path fill-rule="evenodd" clip-rule="evenodd" d="M11.876 10.0461C11.876 11.9767 10.392 13.06 8.278 13.06C6.794 13.06 5.296 12.5461 4.12 11.5044L5.394 9.99055C6.276 10.7128 7.2 11.1711 8.32 11.1711C9.202 11.1711 9.73399 10.8239 9.73399 10.2544V10.2267C9.73399 9.685 9.398 9.40722 7.76 8.99055C6.74274 8.73289 5.91138 8.46416 5.34446 8H10.9208C11.5441 8.46568 11.876 9.09588 11.876 10.0183V10.0461ZM4.65332 7C4.56052 6.71901 4.512 6.39512 4.512 6.01833V5.99055C4.512 4.22666 5.94 3.06 7.942 3.06C9.37 3.06 10.588 3.50444 11.582 4.29611L10.462 5.90722C9.594 5.31 8.74 4.94889 7.914 4.94889C7.088 4.94889 6.654 5.32389 6.654 5.79611V5.82389C6.654 6.41046 7.00802 6.6341 8.37699 7H4.65332Z" fill="#AFB1B3"/>
<rect x="2" y="8" width="12" height="1" fill="#AFB1B3"/>
</svg>
