<svg width="16" height="16" viewBox="0 0 16 16" fill="none" xmlns="http://www.w3.org/2000/svg">
<rect x="7" y="13" width="2" height="2" fill="#6C707E"/>
<path d="M12.8048 5.80495C13.222 6.22222 12.9648 6.91978 12.4076 6.99356C12.3797 6.99725 12.351 6.99938 12.3216 6.99983C12.3177 6.99989 12.3137 6.99992 12.3098 6.99992H10.9997L12.8048 8.80495C13.222 9.22222 12.9648 9.91978 12.4076 9.99356C12.399 9.99469 12.3904 9.99568 12.3816 9.99652C12.3582 9.99877 12.3342 9.99993 12.3098 9.99993H10.9997L12.8048 11.8049C13.2457 12.2459 12.9334 12.9999 12.3098 12.9999H3.68968C3.06605 12.9999 2.75373 12.2459 3.19471 11.8049L4.99973 9.99993H3.68968C3.65616 9.99993 3.62354 9.99775 3.59189 9.99356C3.03465 9.91978 2.77744 9.22222 3.19471 8.80495L4.99973 6.99992H3.68968C3.65616 6.99992 3.62354 6.99775 3.59189 6.99356C3.03465 6.91977 2.77744 6.22222 3.19471 5.80495L7.64618 1.35348C7.84144 1.15822 8.15803 1.15822 8.35329 1.35348L12.8048 5.80495Z" fill="#EBECF0"/>
<path fill-rule="evenodd" clip-rule="evenodd" d="M11.5855 5.99992L7.99973 2.41414L4.41395 5.99992H6.20684C6.65229 5.99992 6.87538 6.5385 6.5604 6.85348L4.41395 8.99993L6.20681 8.99997C6.65225 8.99998 6.87533 9.53855 6.56035 9.85352L4.41395 11.9999H11.5855L9.43912 9.85352C9.12414 9.53855 9.34722 8.99998 9.79266 8.99997L11.5855 8.99993L9.43912 6.85352C9.12414 6.53855 9.34721 5.99998 9.79266 5.99997L11.5855 5.99992ZM10.9997 9.99993H12.3098C12.3342 9.99993 12.3582 9.99877 12.3816 9.99652C12.3904 9.99568 12.399 9.99469 12.4076 9.99356C12.9648 9.91978 13.222 9.22222 12.8048 8.80495L10.9997 6.99992H12.3098L12.3216 6.99983C12.351 6.99938 12.3797 6.99725 12.4076 6.99356C12.9648 6.91978 13.222 6.22222 12.8048 5.80495L8.35329 1.35348C8.15803 1.15822 7.84144 1.15822 7.64618 1.35348L3.19471 5.80495C2.77744 6.22222 3.03465 6.91977 3.59189 6.99356C3.62354 6.99775 3.65616 6.99992 3.68968 6.99992H4.99973L3.19471 8.80495C2.77744 9.22222 3.03465 9.91978 3.59189 9.99356C3.62354 9.99775 3.65616 9.99993 3.68968 9.99993H4.99973L3.19471 11.8049C2.75373 12.2459 3.06605 12.9999 3.68968 12.9999H12.3098C12.9334 12.9999 13.2457 12.2459 12.8048 11.8049L10.9997 9.99993Z" fill="#6C707E"/>
</svg>
