<!-- Copyright 2000-2024 JetBrains s.r.o. and contributors. Use of this source code is governed by the Apache 2.0 license. -->
<svg width="16" height="16" viewBox="0 0 16 16" fill="none" xmlns="http://www.w3.org/2000/svg">
<g id="kotlin_js">
<path id="Fill 1" fill-rule="evenodd" clip-rule="evenodd" d="M7 16H16V9H7V16Z" fill="#F4AF3D" fill-opacity="0.7"/>
<g id="&#226;&#140;&#152;/alphabet/fileTypes/S">
<path id="&#226;&#140;&#152;/alphabet/S" fill-rule="evenodd" clip-rule="evenodd" d="M12.9728 11.5015C12.9728 11.1331 13.284 11 13.845 11C13.853 11 15 11 15 11V10C15 10 13.894 10 13.86 10C12.778 10 12 10.4592 12 11.45C12 12.3145 12.4196 12.6905 13.4713 12.9161C14.2416 13.0813 14.4962 13.2286 14.4962 13.548C14.4962 13.8674 14.1384 14 13.4713 14C13.4553 14 12.3 14 12.3 14V15C12.3 15 13.4633 15 13.4713 15C15.5 15 15.5 14 15.5 13.548C15.5 12.9161 15.0203 12.4207 14.1587 12.1469C13.2971 11.873 12.9728 11.87 12.9728 11.5015Z" fill="#231F20" fill-opacity="0.7"/>
</g>
<g id="&#226;&#140;&#152;/alphabet/fileTypes/J">
<path id="&#226;&#140;&#152;/alphabet/J" fill-rule="evenodd" clip-rule="evenodd" d="M8.39508 13.5877C8.62439 13.8379 8.83782 14 9.28682 14C9.81317 14 9.99999 13.5877 9.99999 13.2976V10H11V13.5877C11 14.3196 10.3267 15 9.44999 15C8.62899 15 8.14999 14.7626 7.79999 14.3196L8.39508 13.5877Z" fill="#231F20" fill-opacity="0.7"/>
</g>
<g id="Group">
<path id="Vector" d="M8 7.8L15 1H1V15H6V7.8H8Z" fill="#B99BF8"/>
<path id="Vector_2" fill-rule="evenodd" clip-rule="evenodd" d="M7 16H16V9H7V16Z" fill="#F4AF3D" fill-opacity="0.7"/>
<path id="Vector_3" fill-rule="evenodd" clip-rule="evenodd" d="M13 11.5C13 11.1 13.3 11 13.9 11C13.9 11 14.3 11 15.1 11V10C14.4 10 14 10 14 10C12.9 10 12.1 10.5 12.1 11.4C12.1 12.3 12.5 12.6 13.6 12.9C14.4 13.1 14.6 13.2 14.6 13.5C14.6 13.8 14.2 14 13.6 14C13.6 14 13.2 14 12.4 14V15C13.2 15 13.6 15 13.6 15C15.6 15 15.6 14 15.6 13.5C15.6 12.9 15.1 12.4 14.3 12.1C13.5 11.8 13 11.9 13 11.5Z" fill="#231F20" fill-opacity="0.7"/>
<path id="Vector_4" fill-rule="evenodd" clip-rule="evenodd" d="M8.39999 13.6C8.59999 13.8 8.79999 14 9.29999 14C9.79999 14 9.99999 13.6 9.99999 13.3V10H11V13.6C11 14.3 10.3 15 9.39999 15C8.59999 15 8.09999 14.8 7.79999 14.3L8.39999 13.6Z" fill="#231F20" fill-opacity="0.7"/>
</g>
</g>
</svg>
