<svg width="770" height="128" viewBox="0 0 770 128" fill="none" xmlns="http://www.w3.org/2000/svg">
  <g clip-path="url(#clip0_664_32769)">
    <g clip-path="url(#clip1_664_32769)">
      <path
        d="M494.476 70.0674L678.763 -187.318C703.214 -221.468 750.85 -231.027 785.159 -208.669L1043.75 -40.1578C1078.06 -17.7996 1086.05 28.0092 1061.6 62.1592L877.311 319.544C852.86 353.694 805.225 363.253 770.915 340.895L512.326 172.384C478.017 150.026 470.025 104.217 494.476 70.0674Z"
        fill="url(#paint0_linear_664_32769)"/>
      <path
        d="M548 128.822L658.148 -99.1917C672.763 -129.445 709.476 -143.452 740.148 -130.477L971.327 -32.6895C1002 -19.715 1015.02 15.3277 1000.4 45.5806L890.255 273.594C875.64 303.847 838.928 317.854 808.255 304.879L577.076 207.092C546.403 194.117 533.386 159.075 548 128.822Z"
        fill="url(#paint1_linear_664_32769)"/>
      <path
        d="M599.304 167.896L654.41 -26.8865C661.721 -52.7302 689.055 -68.7618 715.462 -62.6941L914.49 -16.9618C940.897 -10.8941 956.377 14.9753 949.065 40.819L893.959 235.602C886.648 261.446 859.314 277.477 832.907 271.409L633.879 225.677C607.472 219.609 591.993 193.74 599.304 167.896Z"
        fill="url(#paint2_linear_664_32769)"/>
      <path
        d="M645.986 191.748L661.88 30.648C663.989 9.27305 683.53 -7.08207 705.526 -5.88219L871.31 3.16116C893.307 4.36104 909.429 22.6615 907.32 44.0365L891.427 205.137C889.318 226.512 869.777 242.867 847.78 241.667L681.996 232.624C660 231.424 643.878 213.123 645.986 191.748Z"
        fill="url(#paint3_linear_664_32769)"/>
      <path
        d="M686.768 204.22L676.175 75.0081C674.769 57.8642 688.031 42.3122 705.796 40.2718L839.687 24.8938C857.452 22.8534 872.992 35.0973 874.398 52.2412L884.991 181.453C886.397 198.597 873.135 214.149 855.37 216.189L721.479 231.567C703.715 233.608 688.174 221.364 686.768 204.22Z"
        fill="url(#paint4_linear_664_32769)"/>
      <path
        d="M721.188 208.518L694.025 108.052C690.421 94.7222 698.777 80.656 712.689 76.6347L817.541 46.3269C831.454 42.3056 845.653 49.8519 849.257 63.1821L876.421 163.648C880.025 176.978 871.668 191.044 857.756 195.066L752.904 225.374C738.992 229.395 724.792 221.849 721.188 208.518Z"
        fill="url(#paint5_linear_664_32769)"/>
      <path
        d="M749.336 207.234L713.079 131.687C708.269 121.664 712.917 109.436 723.461 104.376L802.932 66.2357C813.476 61.1753 825.923 65.1987 830.733 75.2221L866.99 150.769C871.801 160.792 867.153 173.02 856.609 178.081L777.138 216.221C766.594 221.281 754.147 217.258 749.336 207.234Z"
        fill="url(#paint6_linear_664_32769)"/>
      <path
        d="M771.661 202.399L731.737 147.741C726.44 140.489 728.388 130.215 736.088 124.792L794.126 83.9217C801.827 78.4991 812.363 79.9821 817.661 87.2341L857.585 141.892C862.882 149.144 860.933 159.419 853.233 164.841L795.195 205.712C787.494 211.134 776.958 209.651 771.661 202.399Z"
        fill="url(#paint7_linear_664_32769)"/>
      <path
        d="M788.816 195.559L748.981 157.874C743.696 152.873 743.768 144.505 749.142 139.183L789.644 99.0696C795.018 93.7472 803.66 93.4861 808.945 98.4865L848.78 136.172C854.066 141.172 853.994 149.541 848.62 154.863L808.117 194.976C802.743 200.298 794.102 200.56 788.816 195.559Z"
        fill="url(#paint8_linear_664_32769)"/>
      <path
        d="M801.546 187.833L764.237 163.52C759.286 160.294 758.133 153.685 761.661 148.758L788.25 111.622C791.778 106.695 798.651 105.316 803.601 108.542L840.91 132.854C845.86 136.08 847.013 142.69 843.486 147.617L816.897 184.752C813.369 189.68 806.496 191.059 801.546 187.833Z"
        fill="url(#paint9_linear_664_32769)"/>
      <path
        d="M810.607 180.009L777.253 165.9C772.828 164.028 770.95 158.972 773.058 154.608L788.95 121.71C791.059 117.345 796.356 115.324 800.781 117.196L834.135 131.305C838.561 133.177 840.439 138.233 838.33 142.598L822.438 175.495C820.33 179.86 815.033 181.881 810.607 180.009Z"
        fill="url(#paint10_linear_664_32769)"/>
    </g>
  </g>
  <defs>
    <linearGradient id="paint0_linear_664_32769" x1="912.466" y1="-121.657" x2="660.469" y2="265.044" gradientUnits="userSpaceOnUse">
      <stop stop-color="#F0EB18" stop-opacity="0.9"/>
      <stop offset="0.3" stop-color="#00D886" stop-opacity="0.5"/>
      <stop offset="0.59" stop-color="#00C4F4" stop-opacity="0.3"/>
      <stop offset="1" stop-color="#00C4F4" stop-opacity="0"/>
    </linearGradient>
    <linearGradient id="paint1_linear_664_32769" x1="854.547" y1="-79.1399" x2="710.748" y2="260.813" gradientUnits="userSpaceOnUse">
      <stop stop-color="#F0EB18" stop-opacity="0.9"/>
      <stop offset="0.3" stop-color="#00D886" stop-opacity="0.5"/>
      <stop offset="0.59" stop-color="#00C4F4" stop-opacity="0.3"/>
      <stop offset="1" stop-color="#00C4F4" stop-opacity="0"/>
    </linearGradient>
    <linearGradient id="paint2_linear_664_32769" x1="814.377" y1="-37.7393" x2="748.298" y2="249.837" gradientUnits="userSpaceOnUse">
      <stop stop-color="#F0EB18" stop-opacity="0.9"/>
      <stop offset="0.3" stop-color="#00D886" stop-opacity="0.5"/>
      <stop offset="0.59" stop-color="#00C4F4" stop-opacity="0.3"/>
      <stop offset="1" stop-color="#00C4F4" stop-opacity="0"/>
    </linearGradient>
    <linearGradient id="paint3_linear_664_32769" x1="788.241" y1="0.368068" x2="775.385" y2="236.054" gradientUnits="userSpaceOnUse">
      <stop stop-color="#F0EB18" stop-opacity="0.9"/>
      <stop offset="0.3" stop-color="#00D886" stop-opacity="0.5"/>
      <stop offset="0.59" stop-color="#00C4F4" stop-opacity="0.3"/>
      <stop offset="1" stop-color="#00C4F4" stop-opacity="0"/>
    </linearGradient>
    <linearGradient id="paint4_linear_664_32769" x1="772.85" y1="33.9701" x2="794.429" y2="221.849" gradientUnits="userSpaceOnUse">
      <stop stop-color="#F0EB18" stop-opacity="0.9"/>
      <stop offset="0.3" stop-color="#00D886" stop-opacity="0.5"/>
      <stop offset="0.59" stop-color="#00C4F4" stop-opacity="0.3"/>
      <stop offset="1" stop-color="#00C4F4" stop-opacity="0"/>
    </linearGradient>
    <linearGradient id="paint5_linear_664_32769" x1="765.403" y1="62.5602" x2="807.575" y2="208.458" gradientUnits="userSpaceOnUse">
      <stop stop-color="#F0EB18" stop-opacity="0.9"/>
      <stop offset="0.3" stop-color="#00D886" stop-opacity="0.5"/>
      <stop offset="0.59" stop-color="#00C4F4" stop-opacity="0.3"/>
      <stop offset="1" stop-color="#00C4F4" stop-opacity="0"/>
    </linearGradient>
    <linearGradient id="paint6_linear_664_32769" x1="763.582" y1="86.118" x2="816.498" y2="196.376" gradientUnits="userSpaceOnUse">
      <stop stop-color="#F0EB18" stop-opacity="0.9"/>
      <stop offset="0.3" stop-color="#00D886" stop-opacity="0.5"/>
      <stop offset="0.59" stop-color="#00C4F4" stop-opacity="0.3"/>
      <stop offset="1" stop-color="#00C4F4" stop-opacity="0"/>
    </linearGradient>
    <linearGradient id="paint7_linear_664_32769" x1="765.534" y1="104.945" x2="822.402" y2="185.702" gradientUnits="userSpaceOnUse">
      <stop stop-color="#F0EB18" stop-opacity="0.9"/>
      <stop offset="0.3" stop-color="#00D886" stop-opacity="0.5"/>
      <stop offset="0.59" stop-color="#00C4F4" stop-opacity="0.3"/>
      <stop offset="1" stop-color="#00C4F4" stop-opacity="0"/>
    </linearGradient>
    <linearGradient id="paint8_linear_664_32769" x1="769.819" y1="119.532" x2="826.107" y2="176.367" gradientUnits="userSpaceOnUse">
      <stop stop-color="#F0EB18" stop-opacity="0.9"/>
      <stop offset="0.3" stop-color="#00D886" stop-opacity="0.5"/>
      <stop offset="0.59" stop-color="#00C4F4" stop-opacity="0.3"/>
      <stop offset="1" stop-color="#00C4F4" stop-opacity="0"/>
    </linearGradient>
    <linearGradient id="paint9_linear_664_32769" x1="775.355" y1="130.452" x2="828.148" y2="168.252" gradientUnits="userSpaceOnUse">
      <stop stop-color="#F0EB18" stop-opacity="0.9"/>
      <stop offset="0.3" stop-color="#00D886" stop-opacity="0.5"/>
      <stop offset="0.59" stop-color="#00C4F4" stop-opacity="0.3"/>
      <stop offset="1" stop-color="#00C4F4" stop-opacity="0"/>
    </linearGradient>
    <linearGradient id="paint10_linear_664_32769" x1="781.362" y1="138.312" x2="828.895" y2="161.274" gradientUnits="userSpaceOnUse">
      <stop stop-color="#F0EB18" stop-opacity="0.9"/>
      <stop offset="0.3" stop-color="#00D886" stop-opacity="0.5"/>
      <stop offset="0.59" stop-color="#00C4F4" stop-opacity="0.3"/>
      <stop offset="1" stop-color="#00C4F4" stop-opacity="0"/>
    </linearGradient>
    <clipPath id="clip0_664_32769">
      <rect width="770" height="128" fill="white"/>
    </clipPath>
    <clipPath id="clip1_664_32769">
      <rect width="360" height="217" fill="white" transform="matrix(1 -8.74228e-08 -8.74228e-08 -1 410 196)"/>
    </clipPath>
  </defs>
</svg>
