<svg xmlns="http://www.w3.org/2000/svg" width="16" height="16" viewBox="0 0 16 16">
  <g fill="none" fill-rule="evenodd">
    <g fill="#9AA7B0" transform="translate(6 6.06)">
      <polygon points="7.872 4.387 5.579 2.095 0 7.642 0 9.935 2.293 9.935"/>
      <path d="M9.78222177,2.47678985 C10.0276403,2.2313477 10.0276403,1.57587789 9.78222177,1.33043573 L8.63586765,0.184081615 C8.3904491,-0.0613605383 7.73493209,-0.0613605383 7.48951353,0.184081615 L6.34315942,1.33043573 L8.63586765,3.62314397 L9.78222177,2.47678985 Z"/>
    </g>
    <path fill="#9AA7B0" fill-opacity=".8" d="M14,4 L7.98462,4 L6.69629,2.71143 C6.22158519,2.28563452 5.61574625,2.0346507 4.979,2 L1.05127,2 C1.037675,1.99999735 1.02463577,2.0053954 1.01502078,2.01500664 C1.00540579,2.02461787 1.00000265,2.037655 1,2.05125 L1,13 L5,13 L14,4 Z"/>
  </g>
</svg>
