<svg id="Layer_1" data-name="Layer 1" xmlns="http://www.w3.org/2000/svg" viewBox="0 0 16 16">
  <title>editFolder</title>
  <g>
    <g opacity="0.7">
      <polygon points="15 6.112 15 5 13.888 5 15 6.112" fill="#9aa7b0"/>
    </g>
    <g opacity="0.7">
      <path d="M6.00562,12.06738L6,12.06152l0.00977-.00977,0.89893-.89893L13.06152,5H7.98462L6.69629,3.71143A2.79972,2.79972,0,0,0,4.979,3H1.05127A0.05126,0.05126,0,0,0,1,3.05125V14H5.49463Z" fill="#9aa7b0"/>
    </g>
    <g opacity="0.7">
      <polygon points="11.939 14 15 14 15 10.939 11.939 14" fill="#9aa7b0"/>
    </g>
  </g>
  <g>
    <rect x="7.4212" y="8.50793" width="8.57133" height="3.57111" transform="translate(-3.84977 11.29231) rotate(-44.99785)" fill="#62b543"/>
    <polygon points="9.434 15.091 6.909 12.566 6 16 9.434 15.091" fill="#9aa7b0"/>
  </g>
</svg>
