<svg id="Layer_1" data-name="Layer 1" xmlns="http://www.w3.org/2000/svg" viewBox="0 0 32 32">
  <title>editFolder@2x</title>
  <g>
    <g opacity="0.7">
      <polygon points="30 12.224 30 10 27.775 10 30 12.224" fill="#9aa7b0"/>
    </g>
    <g opacity="0.7">
      <path d="M12.01123,24.13477L12,24.123l0.01953-.01953,1.79785-1.79785L26.123,10H15.96924L13.39258,7.42285A5.59944,5.59944,0,0,0,9.958,6H2.10254A0.10253,0.10253,0,0,0,2,6.10252V28h8.98926Z" fill="#9aa7b0"/>
    </g>
    <g opacity="0.7">
      <polygon points="23.877 28 30 28 30 21.878 23.877 28" fill="#9aa7b0"/>
    </g>
  </g>
  <g>
    <rect x="14.84239" y="17.01586" width="17.14267" height="7.14223" transform="translate(-7.69954 22.58462) rotate(-44.99785)" fill="#62b543"/>
    <polygon points="18.868 30.183 13.817 25.133 12 32 18.868 30.183" fill="#9aa7b0"/>
  </g>
</svg>
