<svg id="Layer_1" data-name="Layer 1" xmlns="http://www.w3.org/2000/svg" viewBox="0 0 32 32">
  <title>excludedGeneratedRoot@2x</title>
  <g opacity="0.6">
    <path d="M12,24c0-5.52246,4.9248-10,11-10a11.64179,11.64179,0,0,1,7,2.28613V10H15.96924L13.39258,7.42285A5.59944,5.59944,0,0,0,9.958,6H2.10254A0.10253,0.10253,0,0,0,2,6.10252V28H12.92139A9.19405,9.19405,0,0,1,12,24Z" fill="#f26522"/>
  </g>
  <g>
    <path d="M32,23.9989l-0.0002.0048a9.58248,9.58248,0,0,0-8.9986-.0208V23.9727c0.0004-1.7534,2.5426-3.7168,4.0978-4.158C31.0234,18.7017,32,22.5239,32,23.9989Zm-13.0962,4.186c1.5554-.4408,4.0974-2.4044,4.0978-4.1578V24.0167a9.58323,9.58323,0,0,1-8.9986-.0206v0.0046C14.003,25.4757,14.9796,29.2981,18.9038,28.1849Z" fill="#9aa7b0"/>
    <path d="M18.5012,16.7551l0.0044-.0022a7.87629,7.87629,0,0,0,1.2046,4.2042,8.66961,8.66961,0,0,0,3.2756,3.0512l-0.0096.005c-1.6336.8764-4.7336-.1884-5.9222-1.22C14.055,20.1901,17.1274,17.4927,18.5012,16.7551Zm10.4476,8.4512c-1.1884-1.0318-4.2886-2.0966-5.922-1.2204l-0.0096.0052a8.66706,8.66706,0,0,1,3.2752,3.0512,7.877,7.877,0,0,1,1.2048,4.2042l0.0044-.0022C28.8754,30.5067,31.9478,27.8093,28.9488,25.2063Z" fill="#9aa7b0"/>
    <path d="M18.5028,31.2453l-0.0042-.0026a8.67061,8.67061,0,0,0,3.3142-3.0718,7.88151,7.88151,0,0,0,1.2044-4.1628l0.0096,0.0052c1.633,0.877,2.191,3.9056,1.8242,5.3782C23.9258,33.1075,19.8768,31.9827,18.5028,31.2453Zm2.6486-12.6372c-0.3666,1.4728.1914,4.501,1.8244,5.3782l0.0098,0.0052a7.87686,7.87686,0,0,1,1.2046-4.1628,8.66931,8.66931,0,0,1,3.314-3.072l-0.0046-.0024C26.1258,16.0169,22.0768,14.8921,21.1514,18.6081Z" fill="#9aa7b0"/>
  </g>
</svg>
