<svg id="Layer_1" data-name="Layer 1" xmlns="http://www.w3.org/2000/svg" viewBox="0 0 16 16">
  <title>generatedTestRoot</title>
  <g opacity="0.6">
    <path d="M6,11.9998a5.268,5.268,0,0,1,5.5-5A5.8209,5.8209,0,0,1,15,8.14287V4.9998H7.98462L6.69629,3.71123A2.79972,2.79972,0,0,0,4.979,2.9998H1.05127A0.05126,0.05126,0,0,0,1,3.051V13.9998H6.46069A4.597,4.597,0,0,1,6,11.9998Z" fill="#62b543"/>
  </g>
  <g>
    <path d="M16,11.99945l-0.0001.0024a4.79124,4.79124,0,0,0-4.4993-.0104v-0.0051c0.0002-.8767,1.2713-1.8584,2.0489-2.079C15.5117,9.35085,16,11.262,16,11.99945Zm-6.5481,2.093c0.7777-.2204,2.0487-1.2022,2.0489-2.0789v-0.0052a4.79161,4.79161,0,0,1-4.4993-.0103v0.0023C7.0015,12.73785,7.4898,14.649,9.4519,14.09245Z" fill="#9aa7b0"/>
    <path d="M9.2506,8.37755l0.0022-.0011a3.93814,3.93814,0,0,0,.6023,2.1021,4.3348,4.3348,0,0,0,1.6378,1.5256l-0.0048.0025a3.29473,3.29473,0,0,1-2.9611-.61C7.0275,10.095,8.5637,8.74635,9.2506,8.37755Zm5.2238,4.2256a3.2946,3.2946,0,0,0-2.961-.6102l-0.0048.0026a4.33353,4.33353,0,0,1,1.6376,1.5256,3.93851,3.93851,0,0,1,.6024,2.1021l0.0022-.0011C14.4377,15.25335,15.9739,13.90465,14.4744,12.60315Z" fill="#9aa7b0"/>
    <path d="M9.2514,15.62265l-0.0021-.0013a4.33531,4.33531,0,0,0,1.6571-1.5359,3.94075,3.94075,0,0,0,.6022-2.0814l0.0048,0.0026a2.77323,2.77323,0,0,1,.9121,2.6891C11.9629,16.55375,9.9384,15.99135,9.2514,15.62265Zm1.3243-6.3186a2.77351,2.77351,0,0,0,.9122,2.6891l0.0049,0.0026a3.93843,3.93843,0,0,1,.6023-2.0814,4.33465,4.33465,0,0,1,1.657-1.536l-0.0023-.0012C13.0629,8.00845,11.0384,7.44605,10.5757,9.30405Z" fill="#9aa7b0"/>
  </g>
</svg>
