<svg id="Layer_1" data-name="Layer 1" xmlns="http://www.w3.org/2000/svg" viewBox="0 0 32 32">
  <title>output@2x</title>
  <g>
    <rect x="2" y="26" width="28" height="4" fill="#9aa7b0"/>
    <g opacity="0.7">
      <rect x="4" y="2" width="24" height="22" fill="#9aa7b0"/>
    </g>
    <g>
      <path d="M17,13.996a13.235,13.235,0,0,1-.21842,2.52757,5.54558,5.54558,0,0,1-.70236,1.8897A3.27432,3.27432,0,0,1,14.833,19.59336,3.88609,3.88609,0,0,1,12.98287,20a3.636,3.636,0,0,1-1.76017-.40664,3.36768,3.36768,0,0,1-1.242-1.18007,5.80455,5.80455,0,0,1-.73662-1.8897A11.88263,11.88263,0,0,1,9,13.996a13.235,13.235,0,0,1,.21842-2.52757,5.61907,5.61907,0,0,1,.69379-1.88571,3.23011,3.23011,0,0,1,1.2334-1.17608A3.84065,3.84065,0,0,1,12.98287,8a3.70984,3.70984,0,0,1,1.773.40266,3.36747,3.36747,0,0,1,1.25054,1.17209,5.76062,5.76062,0,0,1,.74518,1.88571A11.72658,11.72658,0,0,1,17,13.996Zm-6.41542,0a14.86124,14.86124,0,0,0,.12848,2.089,5.20909,5.20909,0,0,0,.41113,1.487,2.11651,2.11651,0,0,0,.7409.893,2.00166,2.00166,0,0,0,1.11777.299,2.04369,2.04369,0,0,0,1.12206-.295,2.16479,2.16479,0,0,0,.758-0.885,4.95948,4.95948,0,0,0,.42827-1.487,14.53806,14.53806,0,0,0,.13276-2.101,14.38877,14.38877,0,0,0-.13276-2.089,4.9548,4.9548,0,0,0-.42827-1.48306,2.16479,2.16479,0,0,0-.758-0.885,2.04371,2.04371,0,0,0-1.12206-.295,2.02214,2.02214,0,0,0-1.11777.295,2.09159,2.09159,0,0,0-.7409.885,5.1546,5.1546,0,0,0-.41113,1.48306A14.86137,14.86137,0,0,0,10.58458,13.996Z" fill="#231f20" opacity="0.6" style="isolation: isolate"/>
      <path d="M23,19.83318H21.38254V12.44351q0-.348.0046-0.74463t0.01838-.78915q0.01379-.39255.02757-0.75273t0.023-.63537q-0.15623.14569-.2757,0.25091t-0.24354.20235q-0.12407.09713-.26192,0.20639t-0.33084.255l-1.36014.97935-0.88225-.99554L21.62148,8H23V19.83318Z" fill="#231f20" opacity="0.6" style="isolation: isolate"/>
    </g>
  </g>
</svg>
