<svg id="Layer_1" data-name="Layer 1" xmlns="http://www.w3.org/2000/svg" viewBox="0 0 16 16">
  <title>output</title>
  <g>
    <rect x="1" y="13" width="14" height="2" fill="#9aa7b0"/>
    <g opacity="0.7">
      <rect x="2" y="1" width="12" height="11" fill="#9aa7b0"/>
    </g>
    <g>
      <path d="M8,6.998a6.61749,6.61749,0,0,1-.10921,1.26379,2.77281,2.77281,0,0,1-.35118.94485,1.63716,1.63716,0,0,1-.62313.59A1.943,1.943,0,0,1,5.99143,10a1.818,1.818,0,0,1-.88009-0.20332,1.68384,1.68384,0,0,1-.621-0.59A2.90228,2.90228,0,0,1,4.122,8.26183,5.94131,5.94131,0,0,1,4,6.998a6.61747,6.61747,0,0,1,.10921-1.26379,2.80954,2.80954,0,0,1,.3469-0.94286,1.615,1.615,0,0,1,.6167-0.588A1.92032,1.92032,0,0,1,5.99143,4a1.85491,1.85491,0,0,1,.88651.20133,1.68374,1.68374,0,0,1,.62527.586,2.88033,2.88033,0,0,1,.37259.94286A5.86335,5.86335,0,0,1,8,6.998Zm-3.20771,0a7.43062,7.43062,0,0,0,.06424,1.04452A2.60455,2.60455,0,0,0,5.0621,8.786a1.05825,1.05825,0,0,0,.37045.44651,1.00083,1.00083,0,0,0,.55889.1495,1.02185,1.02185,0,0,0,.561-0.14751,1.0824,1.0824,0,0,0,.379-0.44252A2.47974,2.47974,0,0,0,7.14561,8.0485,7.269,7.269,0,0,0,7.212,6.998a7.19439,7.19439,0,0,0-.06638-1.04452A2.47737,2.47737,0,0,0,6.93148,5.212a1.0824,1.0824,0,0,0-.379-0.44252,1.02185,1.02185,0,0,0-.561-0.14751,1.01107,1.01107,0,0,0-.55889.14751A1.04579,1.04579,0,0,0,5.0621,5.212a2.57729,2.57729,0,0,0-.20557.74153A7.4307,7.4307,0,0,0,4.79229,6.998Z" fill="#231f20" opacity="0.6" style="isolation: isolate"/>
      <path d="M12,9.91659H11.19127V6.22176q0-.174.0023-0.37232t0.00919-.39457q0.00689-.19628.01379-0.37636T11.228,4.76082q-0.07812.07284-.13785,0.12545t-0.12177.10117q-0.062.04856-.131,0.1032T10.672,5.21812l-0.68.48968L9.55083,5.21,11.31074,4H12V9.91659Z" fill="#231f20" opacity="0.6" style="isolation: isolate"/>
    </g>
  </g>
</svg>
