<svg id="Layer_1" data-name="Layer 1" xmlns="http://www.w3.org/2000/svg" viewBox="0 0 32 32">
  <title>sources@2x</title>
  <g>
    <g opacity="0.5">
      <path d="M9.37207,24H22.62793A12,12,0,1,0,9.37207,24Z" fill="#40b6e0"/>
    </g>
    <path d="M21.23186,17.96313l-1.0814-1.10674a4.95515,4.95515,0,0,1-3.76821,1.56092,4.2471,4.2471,0,0,1-4.05469-4.41708V13.967a4.28989,4.28989,0,0,1,4.12959-4.44441l0.041-.00131A5.2348,5.2348,0,0,1,20.14461,10.947l1.02231-1.10934a6.267,6.267,0,0,0-4.6062-1.8374H16.1971a6.05971,6.05971,0,0,0-6.19589,5.9204l-0.00129.0796V14.033a5.9881,5.9881,0,0,0,6.00476,5.96729h0.50721A6.24735,6.24735,0,0,0,21.23186,17.96313Z" fill="#231f20" opacity="0.6" style="isolation: isolate"/>
    <rect x="2" y="26" width="28" height="4" fill="#9aa7b0"/>
  </g>
</svg>
