<svg xmlns="http://www.w3.org/2000/svg" width="16" height="16" viewBox="0 0 16 16">
  <g fill="none" fill-rule="evenodd">
    <path fill="#9AA7B0" fill-opacity=".8" d="M9,11.5238778 L5.5,8 L3.5,8 L1,10.5 L1,2.05125 C1.00000265,2.037655 1.00540579,2.02461787 1.01502078,2.01500664 C1.02463577,2.0053954 1.037675,1.99999735 1.05127,2 L4.979,2 C5.61574625,2.0346507 6.22158519,2.28563452 6.69629,2.71143 L7.98462,4 L15,4 L15,8 L9,8 L9,11.5238778 Z"/>
    <rect width="6" height="1" x="10" y="13" fill="#D9A343"/>
    <rect width="6" height="1" x="10" y="15" fill="#D9A343"/>
    <rect width="6" height="1" x="10" y="11" fill="#D9A343"/>
    <rect width="6" height="1" x="10" y="9" fill="#D9A343"/>
    <g transform="translate(0 9)">
      <polygon fill="#62B543" points="6.75 1.75 10.25 5.25 3.25 5.25" transform="rotate(90 6.75 3.5)"/>
      <polygon fill="#F26522" points="2.25 1.75 5.75 5.25 -1.25 5.25" transform="rotate(-90 2.25 3.5)"/>
    </g>
  </g>
</svg>
