<svg xmlns="http://www.w3.org/2000/svg" width="16" height="16" viewBox="0 0 16 16">
  <g fill="none" fill-rule="evenodd">
    <path fill="#9AA7B0" fill-opacity=".8" d="M9,10.5414945 L5.54627778,7.3002 L3.38105556,7.3002 L1,9.56539883 L1,2.05125 C1.00000265,2.037655 1.00540579,2.02461787 1.01502078,2.01500664 C1.02463577,2.0053954 1.037675,1.99999735 1.05127,2 L4.979,2 C5.61574625,2.0346507 6.22158519,2.28563452 6.69629,2.71143 L7.98462,4 L15,4 L15,7 L9,7 L9,10.5414945 Z"/>
    <rect width="6" height="1" x="10" y="12" fill="#D9A343"/>
    <rect width="6" height="1" x="10" y="14" fill="#D9A343"/>
    <rect width="6" height="1" x="10" y="10" fill="#D9A343"/>
    <rect width="6" height="1" x="10" y="8" fill="#D9A343"/>
    <polygon fill="#F26522" points="4 16 0 12.443 4 9"/>
    <polygon fill="#62B543" points="5 16 9 12.443 5 9"/>
  </g>
</svg>
