<!-- Copyright 2000-2021 JetBrains s.r.o. Use of this source code is governed by the Apache 2.0 license that can be found in the LICENSE file. -->
<svg xmlns="http://www.w3.org/2000/svg" width="16" height="16" viewBox="0 0 16 16">
  <g fill="none" fill-rule="evenodd">
    <path fill="#9AA7B0" fill-opacity=".8" d="M7.9082,10.4053 C7.3982,10.9143 6.7212,11.1953 6.0002,11.1953 C4.5122,11.1953 3.3022,9.9853 3.3002,8.4993 C3.3002,7.7783 3.5802,7.1003 4.0892,6.5903 C4.5982,6.0813 5.2762,5.8003 5.9972,5.8003 C7.4852,5.8003 8.6962,7.0093 8.6982,8.4973 C8.6982,9.2183 8.4182,9.8953 7.9082,10.4053 Z M7.9842,4.0003 L15.0002,4.0003 L15.0002,13.0003 L1.0002,13.0003 L1.0002,2.0513 C1.0002,2.0233 1.0232,2.0003 1.0512,2.0003 L4.9782,2.0003 C5.5322,2.0003 6.3042,2.3203 6.6962,2.7113 L7.9842,4.0003 Z M9,9 L9,13 L15,13 L15,9 L9,9 Z"/>
    <path fill="#40B6E0" d="M6,10.4951 C4.896,10.4951 4.001,9.6001 4,8.4981 C3.999,7.3941 4.894,6.5001 5.997,6.5001 C7.102,6.5001 7.997,7.3941 7.998,8.4981 C7.999,9.6001 7.104,10.4951 6,10.4951"/>
    <rect width="6" height="6" x="10" y="10" fill="#9AA7B0"/>
  </g>
</svg>
