<svg xmlns="http://www.w3.org/2000/svg" width="16" height="16" viewBox="0 0 16 16">
  <g fill="none" fill-rule="evenodd">
    <path fill="#6E6E6E" d="M7,10 L5,10 L5,3 L7,3 L7,10 Z"/>
    <rect width="2" height="10" x="5" y="3" fill="#6E6E6E" transform="rotate(90 6 8)"/>
    <g fill="#40B6E0" transform="translate(5 11)">
      <path d="M0,0 L8,0 L8,1 C8,3.209139 6.209139,5 4,5 L4,5 C1.790861,5 2.705415e-16,3.209139 0,1 L0,0 Z"/>
      <path d="M5.5,1 L9.5,1 C10.3284271,1 11,1.67157288 11,2.5 C11,3.32842712 10.3284271,4 9.5,4 L5.5,4 C4.67157288,4 4,3.32842712 4,2.5 C4,1.67157288 4.67157288,1 5.5,1 Z M5.5,2 C5.22385763,2 5,2.22385763 5,2.5 C5,2.77614237 5.22385763,3 5.5,3 L9.5,3 C9.77614237,3 10,2.77614237 10,2.5 C10,2.22385763 9.77614237,2 9.5,2 L5.5,2 Z"/>
    </g>
  </g>
</svg>
