<!-- Copyright 2000-2022 JetBrains s.r.o. and contributors. Use of this source code is governed by the Apache 2.0 license. -->
<svg width="32" height="15" viewBox="0 0 32 15" fill="none" xmlns="http://www.w3.org/2000/svg">
<rect width="32" height="15" rx="7.5" fill="#B99BF8" fill-opacity="0.6"/>
<path d="M5.88379 11H8.7793C10.2832 11 11.1865 10.248 11.1865 9.0127V9.00293C11.1865 8.08496 10.5518 7.41113 9.59961 7.30859V7.22559C10.293 7.1084 10.835 6.44922 10.835 5.7168V5.70703C10.835 4.62793 10.0391 3.9541 8.71582 3.9541H5.88379V11ZM8.46191 4.84766C9.27246 4.84766 9.74609 5.2334 9.74609 5.89746V5.90723C9.74609 6.59082 9.24316 6.95215 8.27637 6.95215H6.97754V4.84766H8.46191ZM8.49609 7.78711C9.52637 7.78711 10.0684 8.17773 10.0684 8.93457V8.94434C10.0684 9.70117 9.5459 10.1064 8.55957 10.1064H6.97754V7.78711H8.49609ZM14.6973 11.1025C16.0547 11.1025 16.7871 10.3213 16.9629 9.62305L16.9727 9.5791L15.9521 9.58398L15.9326 9.62305C15.8057 9.89648 15.4004 10.2334 14.7217 10.2334C13.8477 10.2334 13.291 9.64258 13.2715 8.62695H17.0312V8.25586C17.0312 6.66406 16.123 5.59473 14.6436 5.59473C13.1641 5.59473 12.207 6.70312 12.207 8.3584V8.36328C12.207 10.043 13.1445 11.1025 14.6973 11.1025ZM14.6484 6.46387C15.3662 6.46387 15.8984 6.92285 15.9814 7.87012H13.2861C13.3789 6.95703 13.9258 6.46387 14.6484 6.46387ZM20.293 11.0342C20.498 11.0342 20.6934 11.0098 20.8643 10.9805V10.1357C20.7178 10.1504 20.625 10.1553 20.4639 10.1553C19.9414 10.1553 19.7266 9.9209 19.7266 9.34961V6.53223H20.8643V5.69727H19.7266V4.35938H18.6475V5.69727H17.8174V6.53223H18.6475V9.60352C18.6475 10.624 19.126 11.0342 20.293 11.0342ZM23.5547 11.0879C24.2578 11.0879 24.8145 10.7852 25.127 10.248H25.21V11H26.2598V7.37207C26.2598 6.25879 25.5078 5.59473 24.1748 5.59473C22.9688 5.59473 22.1338 6.17578 22.0068 7.04492L22.002 7.0791H23.0225L23.0273 7.05957C23.1543 6.68359 23.54 6.46875 24.126 6.46875C24.8438 6.46875 25.21 6.79102 25.21 7.37207V7.84082L23.7744 7.92383C22.5098 8.00195 21.7969 8.55371 21.7969 9.50098V9.51074C21.7969 10.4727 22.5439 11.0879 23.5547 11.0879ZM22.8516 9.4668V9.45703C22.8516 8.97852 23.1836 8.71484 23.916 8.6709L25.21 8.58789V9.04199C25.21 9.72559 24.6289 10.2432 23.8379 10.2432C23.2666 10.2432 22.8516 9.95508 22.8516 9.4668Z" fill="#231F20" fill-opacity="0.7"/>
</svg>
