<svg width="32" height="15" viewBox="0 0 32 15" fill="none" xmlns="http://www.w3.org/2000/svg">
<rect width="32" height="15" rx="7.5" fill="#433358"/>
<path d="M5.79901 11V3.72727H8.46236C8.97846 3.72727 9.40578 3.8125 9.74432 3.98295C10.0829 4.15104 10.3362 4.3795 10.5043 4.66832C10.6723 4.95478 10.7564 5.27794 10.7564 5.63778C10.7564 5.94081 10.7008 6.1965 10.5895 6.40483C10.4782 6.6108 10.3291 6.77651 10.142 6.90199C9.95739 7.02509 9.75379 7.11506 9.53125 7.17188V7.2429C9.77273 7.25473 10.0083 7.33286 10.2379 7.47727C10.4699 7.61932 10.6617 7.82173 10.8132 8.08452C10.9647 8.3473 11.0405 8.6669 11.0405 9.04332C11.0405 9.41501 10.9529 9.74882 10.7777 10.0447C10.6049 10.3383 10.3374 10.5715 9.97514 10.7443C9.61293 10.9148 9.15009 11 8.58665 11H5.79901ZM6.89631 10.0589H8.48011C9.00568 10.0589 9.3821 9.95715 9.60938 9.75355C9.83665 9.54995 9.95028 9.29545 9.95028 8.99006C9.95028 8.76042 9.89228 8.54972 9.77628 8.35795C9.66027 8.16619 9.49455 8.01349 9.27912 7.89986C9.06605 7.78622 8.81274 7.7294 8.51918 7.7294H6.89631V10.0589ZM6.89631 6.87358H8.36648C8.61269 6.87358 8.83404 6.82623 9.03054 6.73153C9.2294 6.63684 9.38684 6.50426 9.50284 6.33381C9.62121 6.16098 9.6804 5.95739 9.6804 5.72301C9.6804 5.42235 9.57505 5.17022 9.36435 4.96662C9.15365 4.76302 8.83049 4.66122 8.39489 4.66122H6.89631V6.87358ZM14.6076 11.1101C14.0702 11.1101 13.6074 10.9953 13.2191 10.7656C12.8332 10.5336 12.5349 10.2081 12.3242 9.78906C12.1159 9.36766 12.0117 8.87405 12.0117 8.30824C12.0117 7.74953 12.1159 7.2571 12.3242 6.83097C12.5349 6.40483 12.8285 6.07221 13.2049 5.8331C13.5837 5.59399 14.0264 5.47443 14.533 5.47443C14.8408 5.47443 15.1391 5.52533 15.4279 5.62713C15.7167 5.72893 15.976 5.88873 16.2056 6.10653C16.4353 6.32434 16.6164 6.60724 16.7489 6.95526C16.8815 7.3009 16.9478 7.72112 16.9478 8.21591V8.59233H12.6119V7.79688H15.9073C15.9073 7.51752 15.8505 7.27012 15.7369 7.05469C15.6232 6.83688 15.4634 6.66525 15.2575 6.53977C15.0539 6.4143 14.8147 6.35156 14.5401 6.35156C14.2418 6.35156 13.9814 6.42495 13.7589 6.57173C13.5387 6.71615 13.3683 6.90554 13.2475 7.13991C13.1291 7.37192 13.07 7.62405 13.07 7.89631V8.51776C13.07 8.88234 13.1339 9.19247 13.2617 9.44815C13.3919 9.70384 13.573 9.89915 13.805 10.0341C14.0371 10.1667 14.3081 10.233 14.6183 10.233C14.8195 10.233 15.003 10.2045 15.1687 10.1477C15.3344 10.0885 15.4776 10.0009 15.5984 9.88494C15.7191 9.76894 15.8114 9.62571 15.8754 9.45526L16.8803 9.63636C16.7998 9.93229 16.6554 10.1915 16.4471 10.4141C16.2411 10.6342 15.9819 10.8059 15.6694 10.929C15.3593 11.0497 15.0053 11.1101 14.6076 11.1101ZM20.6721 5.54545V6.39773H17.6926V5.54545H20.6721ZM18.4917 4.23864H19.5534V9.39844C19.5534 9.6044 19.5842 9.75947 19.6458 9.86364C19.7073 9.96544 19.7866 10.0353 19.8837 10.0732C19.9831 10.1087 20.0908 10.1264 20.2069 10.1264C20.2921 10.1264 20.3667 10.1205 20.4306 10.1087C20.4945 10.0968 20.5442 10.0874 20.5797 10.0803L20.7715 10.9574C20.7099 10.9811 20.6223 11.0047 20.5087 11.0284C20.3951 11.0545 20.253 11.0687 20.0826 11.071C19.8032 11.0758 19.5428 11.026 19.3013 10.9219C19.0598 10.8177 18.8645 10.6567 18.7154 10.4389C18.5662 10.2211 18.4917 9.94768 18.4917 9.61861V4.23864ZM23.4339 11.1207C23.0883 11.1207 22.7758 11.0568 22.4964 10.929C22.2171 10.7988 21.9957 10.6106 21.8324 10.3643C21.6714 10.1181 21.5909 9.81629 21.5909 9.45881C21.5909 9.15104 21.6501 8.89773 21.7685 8.69886C21.8868 8.5 22.0466 8.34257 22.2479 8.22656C22.4491 8.11056 22.674 8.02296 22.9226 7.96378C23.1712 7.90459 23.4245 7.85961 23.6825 7.82884C24.0092 7.79096 24.2744 7.76018 24.478 7.73651C24.6816 7.71046 24.8295 7.66903 24.9219 7.61222C25.0142 7.5554 25.0604 7.46307 25.0604 7.33523V7.31037C25.0604 7.00024 24.9728 6.75994 24.7976 6.58949C24.6248 6.41903 24.3667 6.33381 24.0234 6.33381C23.666 6.33381 23.3842 6.41312 23.1783 6.57173C22.9747 6.72798 22.8338 6.90199 22.7557 7.09375L21.7578 6.86648C21.8762 6.53504 22.049 6.26752 22.2763 6.06392C22.5059 5.85795 22.7699 5.70881 23.0682 5.61648C23.3665 5.52178 23.6802 5.47443 24.0092 5.47443C24.227 5.47443 24.4579 5.50047 24.7017 5.55256C24.9479 5.60227 25.1776 5.6946 25.3906 5.82955C25.6061 5.96449 25.7824 6.15743 25.9197 6.40838C26.0571 6.65696 26.1257 6.98011 26.1257 7.37784V11H25.0888V10.2543H25.0462C24.9775 10.3916 24.8745 10.5265 24.7372 10.6591C24.5999 10.7917 24.4235 10.9018 24.2081 10.9893C23.9927 11.0769 23.7346 11.1207 23.4339 11.1207ZM23.6648 10.2685C23.9583 10.2685 24.2093 10.2105 24.4176 10.0945C24.6283 9.97846 24.7881 9.82694 24.897 9.63991C25.0083 9.45052 25.0639 9.24811 25.0639 9.03267V8.32955C25.026 8.36742 24.9527 8.40294 24.8438 8.43608C24.7372 8.46686 24.6153 8.49408 24.478 8.51776C24.3407 8.53906 24.2069 8.55919 24.0767 8.57812C23.9465 8.5947 23.8376 8.6089 23.75 8.62074C23.544 8.64678 23.3558 8.69058 23.1854 8.75213C23.0173 8.81368 22.8823 8.90246 22.7805 9.01847C22.6811 9.1321 22.6314 9.28362 22.6314 9.47301C22.6314 9.7358 22.7285 9.93466 22.9226 10.0696C23.1167 10.2022 23.3641 10.2685 23.6648 10.2685Z" fill="#B589EC"/>
</svg>
