<svg xmlns="http://www.w3.org/2000/svg" width="16" height="16" viewBox="0 0 16 16">
  <g fill="none" fill-rule="evenodd">
    <rect width="12" height="12" x="2" y="2" fill="#F4AF3D" fill-opacity=".6"/>
    <path fill="#231F20" fill-opacity=".7" d="M8.00464045,12 C6.80239326,12 5.85857303,11.5168539 5.117,10.7977528 L5.97093258,9.79775281 C6.60014607,10.3820225 7.26306742,10.741573 7.99340449,10.741573 C8.93722472,10.741573 9.55520225,10.2022472 9.55520225,9.38202247 L9.55520225,9.35955056 C9.55520225,8.56179775 8.88104494,8.05617978 7.92598876,8.05617978 C7.36419101,8.05617978 6.88104494,8.21348315 6.47655056,8.40449438 L5.64508989,7.85393258 L5.86980899,4 L10.5776742,4 L10.5776742,5.23595506 L7.06082022,5.23595506 L6.93722472,7.06741573 C7.30801124,6.93258427 7.65632584,6.84269663 8.18441573,6.84269663 C9.71250562,6.84269663 10.9259888,7.65168539 10.9259888,9.31460674 L10.9259888,9.33707865 C10.9259888,10.9438202 9.74621348,12 8.00464045,12 Z"/>
  </g>
</svg>
