<svg xmlns="http://www.w3.org/2000/svg" width="16" height="16" viewBox="0 0 16 16">
  <g fill="none" fill-rule="evenodd">
    <rect width="12" height="12" x="2" y="2" fill="#F4AF3D" fill-opacity=".6"/>
    <path fill="#231F20" fill-opacity=".7" d="M7.99466667,12 C6.29466667,12 5.028,11.1111111 5.028,9.76666667 L5.028,9.74444444 C5.028,8.81111111 5.55022222,8.22222222 6.428,7.85555556 C5.77244444,7.51111111 5.29466667,6.98888889 5.29466667,6.12222222 L5.29466667,6.1 C5.29466667,4.91111111 6.43911111,4 7.99466667,4 C9.55022222,4 10.6946667,4.9 10.6946667,6.1 L10.6946667,6.12222222 C10.6946667,6.98888889 10.2168889,7.51111111 9.56133333,7.85555556 C10.4168889,8.24444444 10.9613333,8.8 10.9613333,9.72222222 L10.9613333,9.74444444 C10.9613333,11.1444444 9.69466667,12 7.99466667,12 Z M7.99466667,7.4 C8.79466667,7.4 9.38355556,6.92222222 9.38355556,6.25555556 L9.38355556,6.23333333 C9.38355556,5.63333333 8.828,5.14444444 7.99466667,5.14444444 C7.16133333,5.14444444 6.60577778,5.63333333 6.60577778,6.23333333 L6.60577778,6.25555556 C6.60577778,6.92222222 7.19466667,7.4 7.99466667,7.4 Z M7.99466667,10.8555556 C9.01688889,10.8555556 9.61688889,10.3333333 9.61688889,9.68888889 L9.61688889,9.66666667 C9.61688889,8.95555556 8.91688889,8.5 7.99466667,8.5 C7.07244444,8.5 6.37244444,8.95555556 6.37244444,9.66666667 L6.37244444,9.68888889 C6.37244444,10.3222222 6.97244444,10.8555556 7.99466667,10.8555556 Z"/>
  </g>
</svg>
