<svg xmlns="http://www.w3.org/2000/svg" width="16" height="16" viewBox="0 0 16 16">
  <g fill="none" fill-rule="evenodd">
    <rect width="12" height="12" x="2" y="2" fill="#F4AF3D" fill-opacity=".6"/>
    <path fill="#231F20" fill-opacity=".7" d="M8.22092265,12 C7.27064641,12 6.58556354,11.7016575 6.06622652,11.1823204 C5.48059116,10.5966851 5.127,9.79005525 5.127,8.2320442 L5.127,8.20994475 C5.127,5.84530387 6.25407182,4 8.44191713,4 C9.44744199,4 10.1325249,4.32044199 10.806558,4.86187845 L10.0772762,5.92265193 C9.53583978,5.49171271 9.0828011,5.23756906 8.39771823,5.23756906 C7.04965193,5.23756906 6.56346409,6.64088398 6.54136464,7.70165746 C6.99440331,7.22651934 7.56898895,6.91712707 8.39771823,6.91712707 C9.88943094,6.91712707 11.0938508,7.80110497 11.0938508,9.3480663 L11.0938508,9.37016575 C11.0938508,10.9060773 9.84523204,12 8.22092265,12 Z M8.18777348,10.8176796 C9.14909945,10.8176796 9.73473481,10.2209945 9.73473481,9.42541436 L9.73473481,9.40331492 C9.73473481,8.62983425 9.11595028,8.05524862 8.15462431,8.05524862 C7.19329834,8.05524862 6.58556354,8.67403315 6.58556354,9.41436464 L6.58556354,9.43646409 C6.58556354,10.2209945 7.22644751,10.8176796 8.18777348,10.8176796 Z"/>
  </g>
</svg>
