<svg xmlns="http://www.w3.org/2000/svg" width="16" height="16" viewBox="0 0 16 16">
  <g fill="none" fill-rule="evenodd">
    <rect width="12" height="12" x="2" y="2" fill="#F4AF3D" fill-opacity=".6"/>
    <path fill="#231F20" fill-opacity=".7" d="M8.08423596,12 C6.71344944,12 5.73592135,11.4269663 5.073,10.6292135 L6.03929213,9.71910112 C6.60108989,10.3820225 7.23030337,10.752809 8.10670787,10.752809 C8.87075281,10.752809 9.46625843,10.2808989 9.46625843,9.56179775 L9.46625843,9.53932584 C9.46625843,8.76404494 8.75839326,8.3258427 7.65726966,8.3258427 L7.01682022,8.3258427 L6.79210112,7.46067416 L8.91569663,5.20224719 L5.51120225,5.20224719 L5.51120225,4 L10.7134494,4 L10.7134494,5.03370787 L8.5224382,7.28089888 C9.71344944,7.42696629 10.8370449,8.03370787 10.8370449,9.48314607 L10.8370449,9.50561798 C10.8370449,10.9550562 9.72468539,12 8.08423596,12 Z"/>
  </g>
</svg>
