<svg xmlns="http://www.w3.org/2000/svg" width="16" height="16" viewBox="0 0 16 16">
  <g fill="none" fill-rule="evenodd">
    <rect width="12" height="12" x="2" y="2" fill="#F4AF3D" fill-opacity=".6"/>
    <path fill="#231F20" fill-opacity=".7" d="M5.139,12 L5.139,10.9070423 L7.85449296,8.5971831 C8.92491549,7.67323944 9.3305493,7.17746479 9.3305493,6.46760563 C9.3305493,5.70140845 8.77843662,5.23943662 8.05730986,5.23943662 C7.3361831,5.23943662 6.84040845,5.63380282 6.24322535,6.42253521 L5.25167606,5.64507042 C6.00660563,4.5971831 6.75026761,4 8.15871831,4 C9.70238028,4 10.7615352,4.94647887 10.7615352,6.35492958 L10.7615352,6.37746479 C10.7615352,7.62816901 10.1080141,8.29295775 8.71083099,9.43098592 L7.08829577,10.7830986 L10.8404085,10.7830986 L10.8404085,12 L5.139,12 Z"/>
  </g>
</svg>
