<svg xmlns="http://www.w3.org/2000/svg" width="16" height="16" viewBox="0 0 16 16">
  <g fill="none" fill-rule="evenodd">
    <rect width="12" height="12" x="2" y="2" fill="#F4AF3D" fill-opacity=".6"/>
    <path fill="#231F20" fill-opacity=".7" d="M7.98611602,12 C5.95296685,12 4.627,10.2320442 4.627,8.02209945 L4.627,8 C4.627,5.79005525 5.9750663,4 8.00821547,4 C10.0303149,4 11.3673315,5.7679558 11.3673315,7.97790055 L11.3673315,8 C11.3673315,10.2099448 10.0192652,12 7.98611602,12 Z M8.00821547,10.7734807 C9.21263536,10.7734807 9.96401657,9.5359116 9.96401657,8.02209945 L9.96401657,8 C9.96401657,6.47513812 9.17948619,5.22651934 7.98611602,5.22651934 C6.79274586,5.22651934 6.03031492,6.45303867 6.03031492,7.97790055 L6.03031492,8 C6.03031492,9.52486188 6.80379558,10.7734807 8.00821547,10.7734807 Z"/>
  </g>
</svg>
