<svg xmlns="http://www.w3.org/2000/svg" width="16" height="16" viewBox="0 0 16 16">
  <g fill="none" fill-rule="evenodd">
    <rect width="12" height="12" x="2" y="2" fill="#F4AF3D" fill-opacity=".6"/>
    <path fill="#231F20" fill-opacity=".7" d="M7.73408287,10.7624309 C9.0931989,10.7624309 9.59043646,9.35911602 9.61253591,8.33149171 C9.18159669,8.83977901 8.5849116,9.14917127 7.78933149,9.14917127 C6.14292265,9.14917127 5.049,8.1878453 5.049,6.6961326 L5.049,6.67403315 C5.049,5.16022099 6.22027072,4 7.9329779,4 C8.90535359,4 9.53518785,4.27624309 10.087674,4.82872928 C10.6512099,5.39226519 11.0158508,6.24309392 11.0158508,7.7679558 L11.0158508,7.79005525 C11.0158508,10.2762431 9.78933149,12 7.7009337,12 C6.6291105,12 5.87772928,11.6132597 5.22579558,11.0718232 L5.96612707,10.0331492 C6.55176243,10.519337 7.07109945,10.7624309 7.73408287,10.7624309 Z M7.98822652,8.01104972 C8.97165193,8.01104972 9.55728729,7.37016575 9.55728729,6.61878453 L9.55728729,6.59668508 C9.55728729,5.79005525 8.92745304,5.18232044 7.94402762,5.18232044 C6.98270166,5.18232044 6.40811602,5.8121547 6.40811602,6.61878453 L6.40811602,6.64088398 C6.40811602,7.43646409 7.02690055,8.01104972 7.98822652,8.01104972 Z"/>
  </g>
</svg>
