<svg xmlns="http://www.w3.org/2000/svg" width="16" height="16" viewBox="0 0 16 16">
  <g fill="none" fill-rule="evenodd" transform="translate(1 1)">
    <path fill="#9AA7B0" fill-opacity=".8" d="M7,14 C3.13400675,14 0,10.8659932 0,7 C0,3.13400675 3.13400675,0 7,0 C10.8659932,0 14,3.13400675 14,7 C14,10.8659932 10.8659932,14 7,14 Z M7,13 C10.3137085,13 13,10.3137085 13,7 C13,3.6862915 10.3137085,1 7,1 C3.6862915,1 1,3.6862915 1,7 C1,10.3137085 3.6862915,13 7,13 Z"/>
    <path fill="#7F8B91" fill-opacity=".9" d="M6.5,11 L7.83333333,11 L7.83333333,9.66666667 L6.5,9.66666667 L6.5,11 Z M7.16666667,3 C5.69333333,3 4.5,4.19333333 4.5,5.66666667 L5.83333333,5.66666667 C5.83333333,4.93333333 6.43333333,4.33333333 7.16666667,4.33333333 C7.9,4.33333333 8.5,4.93333333 8.5,5.66666667 C8.5,7 6.5,6.83333333 6.5,9 L7.83333333,9 C7.83333333,7.5 9.83333333,7.33333333 9.83333333,5.66666667 C9.83333333,4.19333333 8.64,3 7.16666667,3 Z"/>
  </g>
</svg>
