<svg width="16" height="16" viewBox="0 0 16 16" xmlns="http://www.w3.org/2000/svg">
  <path fill="#6e6e6e" fill-rule="evenodd" d="M12.425 7.462c0-.184-.033-.36-.056-.539h.726l-.595-.595-2.086 2.086L9.8 7.8v.7H6.2V7H9L7.586 5.586 9.672 3.5l-.938-.938-.614.608c-.021-.001-.099-.01-.12-.01-.058 0-.051.009-.109.011L5.692 1 4.535 2.143l1.533 1.512a4.366 4.366 0 0 0-1.76 1.653H2.001v1.615h1.753c-.023.179-.056.354-.056.539v1.077H2.001v1.615h1.697v.539c0 .374.064.73.156 1.077H2.001v1.615h2.687C5.489 14.361 6.697 15 8.062 15s2.573-.64 3.374-1.615h2.565V11.77H12.27c.092-.347.156-.703.156-1.077v-.539h1.575V8.539h-1.575V7.462ZM9.8 11.5H6.2V10h3.6v1.5Z"/>
  <path fill="#db5860" d="M16 1.414 14.586 0 12.5 2.086 10.414 0 9 1.414 11.086 3.5 9 5.586 10.414 7 12.5 4.914 14.586 7 16 5.586 13.914 3.5 16 1.414z"/>
</svg>
