<svg width="32" height="32" viewBox="0 0 32 32" fill="none" xmlns="http://www.w3.org/2000/svg">
  <g filter="url(#filter0_d)">
    <path fill-rule="evenodd" clip-rule="evenodd" d="M16 30C23.732 30 30 23.732 30 16C30 8.26801 23.732 2 16 2C8.26801 2 2 8.26801 2 16C2 23.732 8.26801 30 16 30ZM17 8C17.5523 8 18 8.44772 18 9V16C18 16.5523 17.5523 17 17 17H15C14.4477 17 14 16.5523 14 16V9C14 8.44772 14.4477 8 15 8H17ZM17 24C17.5523 24 18 23.5523 18 23V21C18 20.4477 17.5523 20 17 20H15C14.4477 20 14 20.4477 14 21V23C14 23.5523 14.4477 24 15 24H17Z" fill="url(#paint0_linear)"/>
  </g>
  <defs>
    <filter id="filter0_d" x="2" y="2" width="28" height="28.5" filterUnits="userSpaceOnUse" color-interpolation-filters="sRGB">
      <feFlood flood-opacity="0" result="BackgroundImageFix"/>
      <feColorMatrix in="SourceAlpha" values="0 0 0 0 0 0 0 0 0 0 0 0 0 0 0 0 0 0 127 0"/>
      <feOffset dy="0.5"/>
      <feColorMatrix values="0 0 0 0 0 0 0 0 0 0 0 0 0 0 0 0 0 0 0.2 0"/>
      <feBlend in2="BackgroundImageFix" result="effect1_dropShadow"/>
      <feBlend in="SourceGraphic" in2="effect1_dropShadow" result="shape"/>
    </filter>
    <linearGradient id="paint0_linear" x1="6" y1="5" x2="26" y2="26.5" gradientUnits="userSpaceOnUse">
      <stop offset="0.078125" stop-color="#FD9A16"/>
      <stop offset="0.333333" stop-color="#F86E3D"/>
      <stop offset="0.635417" stop-color="#FB5B7E"/>
      <stop offset="1" stop-color="#FB5084"/>
    </linearGradient>
  </defs>
</svg>
