<!-- Copyright 2000-2022 JetBrains s.r.o. and contributors. Use of this source code is governed by the Apache 2.0 license. -->
<svg width="32" height="32" viewBox="0 0 32 32" fill="none" xmlns="http://www.w3.org/2000/svg">
  <path fill-rule="evenodd" clip-rule="evenodd" d="M16 30C23.732 30 30 23.732 30 16C30 8.26801 23.732 2 16 2C8.26801 2 2 8.26801 2 16C2 23.732 8.26801 30 16 30ZM17 8C17.5523 8 18 8.44772 18 9V16C18 16.5523 17.5523 17 17 17H15C14.4477 17 14 16.5523 14 16V9C14 8.44772 14.4477 8 15 8H17ZM17 24C17.5523 24 18 23.5523 18 23V21C18 20.4477 17.5523 20 17 20H15C14.4477 20 14 20.4477 14 21V23C14 23.5523 14.4477 24 15 24H17Z" fill="url(#paint0_linear)"/>
  <defs>
    <linearGradient id="paint0_linear" x1="6" y1="5" x2="26" y2="26.5" gradientUnits="userSpaceOnUse">
      <stop stop-color="#FCA589"/>
      <stop offset="0.375" stop-color="#F26161"/>
      <stop offset="0.630208" stop-color="#E7475A"/>
      <stop offset="0.947917" stop-color="#EF4376"/>
    </linearGradient>
  </defs>
</svg>
