<!-- Copyright 2000-2021 JetBrains s.r.o. Use of this source code is governed by the Apache 2.0 license that can be found in the LICENSE file. -->
<svg xmlns="http://www.w3.org/2000/svg" width="16" height="16" viewBox="0 0 16 16">
  <g fill="#AFB1B3" fill-rule="evenodd" transform="translate(-.2 1)">
    <path d="M5.69264079,6.99730757 L4.40590723,5.71057401 L2.6004967,7.51598454 L0.835355238,5.75084308 L2.85847874,3.72771958 C2.87827585,3.69595835 2.90197387,3.66593569 2.92957281,3.63833674 C2.92997576,3.63793379 2.93037941,3.63753153 2.93078373,3.63712996 L5.57817383,1.00778198 L5.5828667,1.00999036 L8.55502199,1 L8.54684975,1.69034183 L7.556131,2.15985218 L5.95234249,3.72147536 L7.46040774,5.22954061 L5.69264079,6.99730757 Z M9.05624522,10.360912 L10.8240122,8.59314504 L13.5154336,11.2845664 L11.7476666,13.0523334 L9.05624522,10.360912 Z"/>
    <path d="M7.86612242,0.301694308 L7.86612242,2.88064545 L9.95540813,2.88064545 L9.95540813,0.301694597 C10.9763132,0.714946608 11.6964792,1.7158295 11.6964792,2.8849162 C11.6964792,4.00372747 11.0369214,4.96849075 10.0854153,5.41159647 L10.0854153,14.1803742 L7.5854153,14.1803742 L7.5854153,5.33575931 C6.71567654,4.86443505 6.12505063,3.94364966 6.12505063,2.8849162 C6.12505063,1.71582923 6.84521702,0.714946142 7.86612242,0.301694308 Z" transform="rotate(45 8.84 7.192)"/>
  </g>
</svg>
