<!-- Copyright 2000-2021 JetBrains s.r.o. Use of this source code is governed by the Apache 2.0 license that can be found in the LICENSE file. -->
<svg width="16" height="16" viewBox="0 0 16 16" fill="none" xmlns="http://www.w3.org/2000/svg">
<path fill-rule="evenodd" clip-rule="evenodd" d="M14.182 10.0015L12.7038 8.94093C12.7643 8.63666 12.796 8.32203 12.796 8C12.796 7.67797 12.7643 7.36334 12.7038 7.05907L14.182 5.9985C13.8975 5.11859 13.4305 4.32076 12.8256 3.64965L11.1681 4.39741C10.6963 3.9817 10.1422 3.6572 9.53345 3.4515L9.35284 1.64182C8.91523 1.54889 8.46133 1.5 7.99602 1.5C7.5307 1.5 7.07681 1.54889 6.63919 1.64182L6.45859 3.4515C5.8498 3.6572 5.29573 3.9817 4.82396 4.39741L3.1664 3.64965C2.5615 4.32076 2.09449 5.11859 1.81 5.9985L3.2882 7.05907C3.22773 7.36334 3.19602 7.67797 3.19602 8C3.19602 8.32203 3.22773 8.63666 3.2882 8.94093L1.81 10.0015C2.09449 10.8814 2.5615 11.6792 3.1664 12.3503L4.82396 11.6026C5.29573 12.0183 5.8498 12.3428 6.45859 12.5485L6.63919 14.3582C7.07681 14.4511 7.5307 14.5 7.99602 14.5C8.46133 14.5 8.91523 14.4511 9.35284 14.3582L9.53345 12.5485C10.1422 12.3428 10.6963 12.0183 11.1681 11.6026L12.8256 12.3503C13.4305 11.6792 13.8975 10.8814 14.182 10.0015ZM10.296 8.0002C10.296 9.27056 9.26627 10.3004 7.99602 10.3004C6.72576 10.3004 5.69602 9.27056 5.69602 8.0002C5.69602 6.72983 6.72576 5.7 7.99602 5.7C9.26627 5.7 10.296 6.72983 10.296 8.0002Z" fill="#7F8B91" fill-opacity="0.5"/>
</svg>
