<svg width="16" height="16" viewBox="0 0 16 16" fill="none" xmlns="http://www.w3.org/2000/svg">
<g id="idea/community/platform/icons/src/general/inspectionsTrafficOff_dark">
<path id="Combined Shape" fill-rule="evenodd" clip-rule="evenodd" d="M3.5 5C2.11929 5 1 6.11929 1 7.5V8.5C1 9.88071 2.11929 11 3.5 11C4.88071 11 6 9.88071 6 8.5V7.5C6 6.11929 4.88071 5 3.5 5ZM3.5 6C2.67157 6 2 6.67157 2 7.5V8.5C2 9.32843 2.67157 10 3.5 10C4.32843 10 5 9.32843 5 8.5V7.5C5 6.67157 4.32843 6 3.5 6Z" fill="#AFB1B3"/>
<rect id="Rectangle 46" x="7" y="5" width="1" height="6" fill="#AFB1B3"/>
<rect id="Rectangle 47" x="7" y="5" width="3" height="1" fill="#AFB1B3"/>
<rect id="Rectangle 47_2" x="7" y="7.5" width="3" height="1" fill="#AFB1B3"/>
<rect id="Rectangle 46_2" x="11" y="5" width="1" height="6" fill="#AFB1B3"/>
<rect id="Rectangle 47_3" x="11" y="5" width="3" height="1" fill="#AFB1B3"/>
<rect id="Rectangle 47_4" x="11" y="7.5" width="3" height="1" fill="#AFB1B3"/>
</g>
</svg>
