<svg xmlns="http://www.w3.org/2000/svg" width="14" height="14" viewBox="0 0 14 14">
  <path fill="#6E6E6E" fill-rule="evenodd" d="M7,3 C4.27272727,3 1.94363636,4.77714286 1,7.28571429 C1.94363636,9.79428571 4.27272727,11.5714286 7,11.5714286 C9.72727273,11.5714286 12.0563636,9.79428571 13,7.28571429 C12.0563636,4.77714286 9.72727273,3 7,3 Z M7,10.2857143 C5.344,10.2857143 4,8.94171429 4,7.28571429 C4,5.62971429 5.344,4.28571429 7,4.28571429 C8.656,4.28571429 10,5.62971429 10,7.28571429 C10,8.94171429 8.656,10.2857143 7,10.2857143 Z M7,5.57142857 C6.05142857,5.57142857 5.28571429,6.33714286 5.28571429,7.28571429 C5.28571429,8.23428571 6.05142857,9 7,9 C7.94857143,9 8.71428571,8.23428571 8.71428571,7.28571429 C8.71428571,6.33714286 7.94857143,5.57142857 7,5.57142857 Z"/>
</svg>
