<svg xmlns="http://www.w3.org/2000/svg" width="14" height="14" viewBox="0 0 14 14">
  <g fill="none" fill-rule="evenodd">
    <path fill="#6E6E6E" d="M2.5,4 C3.88071187,4 5,5.11928813 5,6.5 L5,7.5 C5,8.88071187 3.88071187,10 2.5,10 C1.11928813,10 1.69088438e-16,8.88071187 0,7.5 L0,6.5 C-1.69088438e-16,5.11928813 1.11928813,4 2.5,4 Z M2.5,5 C1.67157288,5 1,5.67157288 1,6.5 L1,7.5 C1,8.32842712 1.67157288,9 2.5,9 C3.32842712,9 4,8.32842712 4,7.5 L4,6.5 C4,5.67157288 3.32842712,5 2.5,5 Z"/>
    <rect width="1" height="6" x="6" y="4" fill="#6E6E6E"/>
    <rect width="3" height="1" x="6" y="4" fill="#6E6E6E"/>
    <rect width="3" height="1" x="6" y="6.5" fill="#6E6E6E"/>
    <rect width="1" height="6" x="10" y="4" fill="#6E6E6E"/>
    <rect width="3" height="1" x="10" y="4" fill="#6E6E6E"/>
    <rect width="3" height="1" x="10" y="6.5" fill="#6E6E6E"/>
  </g>
</svg>
