<!-- Copyright 2000-2021 JetBrains s.r.o. Use of this source code is governed by the Apache 2.0 license that can be found in the LICENSE file. -->
<svg xmlns="http://www.w3.org/2000/svg" width="16" height="16" viewBox="0 0 16 16">
  <g fill="none" fill-rule="evenodd">
    <path fill="#40B6E0" fill-opacity=".6" d="M10.3901729,1.41867981 L9,2.80322266 L9,3.85714286 L11,3.85714286 L11,8 L15,8 C15,11.866 11.866,15 8,15 C4.134,15 1,11.866 1,8 C1,4.134 4.134,1 8,1 C8.83943175,1 9.64435244,1.14775632 10.3901729,1.41867981 Z" transform="matrix(1 0 0 -1 0 16)"/>
    <path fill="#231F20" fill-opacity=".7" d="M2.98401421,6 C1.26820604,6 0,4.66061706 0,3.02722323 L0,3.00544465 C0,1.36116152 1.27886323,0 3.0053286,0 C4.73179396,0 6,1.33938294 6,2.98366606 L6,3.00544465 C6,4.63883848 4.72113677,6 2.98401421,6 Z M3.0053286,4.84573503 C4.04973357,4.84573503 4.71047957,4.01814882 4.71047957,3.02722323 L4.71047957,3.00544465 C4.71047957,1.99274047 3.9964476,1.15426497 2.98401421,1.15426497 C1.95026643,1.15426497 1.28952043,1.98185118 1.28952043,2.98366606 L1.28952043,3.00544465 C1.28952043,4.00725953 2.0035524,4.84573503 3.0053286,4.84573503 Z" transform="translate(5 5)"/>
    <path fill="#9AA7B0" d="M4,4 L6,4 L3,7 L0,4 L2,4 L2,0 L4,0 L4,4 Z" transform="translate(10 9)"/>
  </g>
</svg>
