<!-- Copyright 2000-2021 JetBrains s.r.o. Use of this source code is governed by the Apache 2.0 license that can be found in the LICENSE file. -->
<svg xmlns="http://www.w3.org/2000/svg" width="16" height="16" viewBox="0 0 16 16">
  <g fill="none" fill-rule="evenodd">
    <g transform="translate(1 1)">
      <path fill="#40B6E0" fill-opacity=".6" d="M9.39017294,0.418679811 L8,1.80322266 L8,2.85714286 L10,2.85714286 L10,7 L14,7 C14,10.866 10.866,14 7,14 C3.134,14 0,10.866 0,7 C0,3.134 3.134,0 7,0 C7.83943175,0 8.64435244,0.147756322 9.39017294,0.418679811 Z"/>
      <path fill="#231F20" fill-opacity=".7" d="M6.98401421,10 C5.26820604,10 4,8.66061706 4,7.02722323 L4,7.00544465 C4,5.36116152 5.27886323,4 7.0053286,4 C8.73179396,4 10,5.33938294 10,6.98366606 L10,7.00544465 C10,8.63883848 8.72113677,10 6.98401421,10 Z M7.0053286,8.84573503 C8.04973357,8.84573503 8.71047957,8.01814882 8.71047957,7.02722323 L8.71047957,7.00544465 C8.71047957,5.99274047 7.9964476,5.15426497 6.98401421,5.15426497 C5.95026643,5.15426497 5.28952043,5.98185118 5.28952043,6.98366606 L5.28952043,7.00544465 C5.28952043,8.00725953 6.0035524,8.84573503 7.0053286,8.84573503 Z"/>
    </g>
    <path fill="#9AA7B0" d="M4,4 L6,4 L3,7 L0,4 L2,4 L2,0 L4,0 L4,4 Z" transform="matrix(1 0 0 -1 10 7)"/>
  </g>
</svg>
