<!-- Copyright 2000-2022 JetBrains s.r.o. and contributors. Use of this source code is governed by the Apache 2.0 license. -->
<svg width="32" height="32" viewBox="0 0 32 32" fill="none" xmlns="http://www.w3.org/2000/svg">
  <path fill-rule="evenodd" clip-rule="evenodd" d="M16 30C23.732 30 30 23.732 30 16C30 8.26801 23.732 2 16 2C8.26801 2 2 8.26801 2 16C2 23.732 8.26801 30 16 30ZM14 23C14 23.5523 14.4477 24 15 24H17C17.5523 24 18 23.5523 18 23V22C18 21.4477 17.5523 21 17 21H15C14.4477 21 14 21.4477 14 22V23ZM16 7C12.9473 7 10.5742 8.57415 10.0905 11.1477C9.98846 11.6905 10.4477 12.1429 11 12.1429H12.4286C12.9809 12.1429 13.4023 11.6842 13.5581 11.1544C13.8493 10.1643 14.6388 9.57143 16 9.57143C17.7679 9.57143 18.5714 10.5714 18.5714 12.1429C18.5714 14.7759 14.9317 14.4365 14.3607 18.0008C14.2733 18.5461 14.7334 19 15.2857 19H16.7143C17.2666 19 17.693 18.5389 17.8681 18.0152C18.634 15.7242 22 15.3079 22 12.1429C22 8.98571 19.4286 7 16 7Z" fill="url(#paint0_linear)"/>
  <defs>
    <linearGradient id="paint0_linear" x1="5" y1="6.5" x2="25.5" y2="27" gradientUnits="userSpaceOnUse">
      <stop stop-color="#25C9D3"/>
      <stop offset="0.333333" stop-color="#37ADD8"/>
      <stop offset="0.734375" stop-color="#3E75F8"/>
      <stop offset="1" stop-color="#1082E1"/>
    </linearGradient>
  </defs>
</svg>
