<!-- Copyright 2000-2021 JetBrains s.r.o. Use of this source code is governed by the Apache 2.0 license that can be found in the LICENSE file. -->
<svg xmlns="http://www.w3.org/2000/svg" width="16" height="16" viewBox="0 0 16 16">
  <g fill="none" fill-rule="evenodd">
    <g transform="translate(1 1)">
      <path fill="#62B543" fill-opacity=".6" d="M9.39017294,0.418679811 L8,1.80322266 L8,2.85714286 L10,2.85714286 L10,7 L14,7 C14,10.866 10.866,14 7,14 C3.134,14 0,10.866 0,7 C0,3.134 3.134,0 7,0 C7.83943175,0 8.64435244,0.147756322 9.39017294,0.418679811 Z"/>
      <polygon fill="#231F20" fill-rule="nonzero" points="7.6 9 7.6 5 9 5 9 4 5 4 5 5 6.4 5 6.4 9 5 9.007 5 10 9 10 9 9" opacity=".7"/>
    </g>
    <path fill="#AFB1B3" d="M4,4 L6,4 L3,7 L0,4 L2,4 L2,0 L4,0 L4,4 Z" transform="matrix(1 0 0 -1 10 7)"/>
  </g>
</svg>
