<svg width="32" height="32" viewBox="0 0 32 32" fill="none" xmlns="http://www.w3.org/2000/svg">
<path fill-rule="evenodd" clip-rule="evenodd" d="M16 30C23.732 30 30 23.732 30 16C30 8.26801 23.732 2 16 2C8.26801 2 2 8.26801 2 16C2 23.732 8.26801 30 16 30ZM16.7671 20.619C16.7663 20.6182 16.7651 20.6182 16.7644 20.619L15.5084 21.8749C15.1178 22.2655 14.4847 22.2655 14.0942 21.8749L8.70711 16.4879C8.31658 16.0974 8.31658 15.4642 8.70711 15.0737L9.99275 13.788C10.3833 13.3975 11.0164 13.3975 11.407 13.788L14.0969 16.4779C14.4874 16.8685 15.1206 16.8685 15.5111 16.4779L21.2319 10.7571C21.6224 10.3666 22.2556 10.3666 22.6461 10.7571L23.9318 12.0427C24.3223 12.4333 24.3223 13.0664 23.9318 13.457L16.7698 20.619C16.769 20.6197 16.7678 20.6197 16.7671 20.619Z" fill="url(#paint0_linear_7874_2482)"/>
<defs>
<linearGradient id="paint0_linear_7874_2482" x1="6" y1="5" x2="26" y2="26.5" gradientUnits="userSpaceOnUse">
<stop stop-color="#C7F059"/>
<stop offset="0.291667" stop-color="#63E176"/>
<stop offset="0.625" stop-color="#16C3A7"/>
<stop offset="1" stop-color="#0FB6BB"/>
</linearGradient>
</defs>
</svg>
