<!-- Copyright 2000-2021 JetBrains s.r.o. Use of this source code is governed by the Apache 2.0 license that can be found in the LICENSE file. -->
<svg xmlns="http://www.w3.org/2000/svg" width="16" height="16" viewBox="0 0 16 16">
  <g fill="none" fill-rule="evenodd">
    <path fill="#9AA7B0" fill-opacity=".8" d="M14,5 L9,5 L5,5 L5,6 L9,6 L9,7 L5,7 L5,8 L9,8 L9,9 L5,9 L5,10 L9,10 L9,14 L2,14 L2,2 L14,2 L14,5 Z"/>
    <path fill="#62B543" fill-rule="nonzero" d="M12.25,16 L13.75,16 L13.75,14.5 L12.25,14.5 L12.25,16 Z M13,7 C11.3425,7 10,8.3425 10,10 L11.5,10 C11.5,9.175 12.175,8.5 13,8.5 C13.825,8.5 14.5,9.175 14.5,10 C14.5,11.5 12.25,11.3125 12.25,13.75 L13.75,13.75 C13.75,12.0625 16,11.875 16,10 C16,8.3425 14.6575,7 13,7 Z"/>
  </g>
</svg>
