<!-- Copyright 2000-2022 JetBrains s.r.o. and contributors. Use of this source code is governed by the Apache 2.0 license. -->
<svg width="32" height="32" viewBox="0 0 32 32" fill="none" xmlns="http://www.w3.org/2000/svg">
  <path fill-rule="evenodd" clip-rule="evenodd" d="M14.2636 4.03885C15.0314 2.69522 16.9688 2.69522 17.7366 4.03885L30.2902 26.0077C31.0521 27.341 30.0894 29 28.5537 29H3.44644C1.91079 29 0.948057 27.341 1.70995 26.0077L14.2636 4.03885ZM18 24.0048C18 24.5571 17.5523 25.0048 17 25.0048H15C14.4477 25.0048 14 24.5571 14 24.0048V22C14 21.4477 14.4477 21 15 21H17C17.5523 21 18 21.4477 18 22V24.0048ZM14 17C14 17.5523 14.4477 18 15 18H17C17.5523 18 18 17.5523 18 17V11C18 10.4477 17.5523 10 17 10H15C14.4477 10 14 10.4477 14 11V17Z" fill="url(#paint0_linear)"/>
  <defs>
    <linearGradient id="paint0_linear" x1="11.5" y1="9" x2="28.5851" y2="27.7453" gradientUnits="userSpaceOnUse">
      <stop offset="0.203125" stop-color="#F7C547"/>
      <stop offset="0.515625" stop-color="#F2A810"/>
      <stop offset="1" stop-color="#EA663F"/>
    </linearGradient>
  </defs>
</svg>
