<svg fill="none" width="40" height="40" viewBox="0 0 40 40" xmlns="http://www.w3.org/2000/svg">
  <g transform="translate(.576 -.164)">
    <path d="m26 31.7c1.41 0 2.56-1.14 2.56-2.56 0-1.41-1.14-2.56-2.56-2.56-1.41 0-2.56 1.14-2.56 2.56 0 1.41 1.14 2.56 2.56 2.56z" fill="#3574f0"/>
    <path d="m28.9 38.5c-0.187 0.499-0.664 0.829-1.2 0.829h-3.34c-0.533 0-1.01-0.33-1.2-0.829l-0.638-1.7c-0.214-0.572-0.803-0.912-1.41-0.812l-1.79 0.298c-0.525 0.0874-1.05-0.16-1.32-0.622l-1.67-2.89c-0.266-0.461-0.219-1.04 0.12-1.45l1.15-1.4c0.388-0.472 0.388-1.15 0-1.62l-1.15-1.4c-0.338-0.411-0.386-0.989-0.12-1.45l1.67-2.89c0.266-0.461 0.791-0.709 1.32-0.621l1.79 0.298c0.603 0.1 1.19-0.24 1.41-0.812l0.638-1.7c0.187-0.499 0.664-0.829 1.2-0.829h3.34c0.533 0 1.01 0.33 1.2 0.829l0.638 1.7c0.214 0.572 0.803 0.912 1.41 0.812l1.79-0.298c0.525-0.0874 1.05 0.16 1.32 0.621l1.67 2.89c0.266 0.461 0.218 1.04-0.12 1.45l-1.15 1.4c-0.388 0.471-0.388 1.15 0 1.62l1.15 1.4c0.338 0.411 0.386 0.989 0.12 1.45l-1.67 2.89c-0.266 0.461-0.791 0.709-1.32 0.622l-1.79-0.298c-0.603-0.1-1.19 0.24-1.41 0.812zm-3.65-1.73h1.57l0.327-0.871c0.643-1.72 2.41-2.74 4.22-2.44l0.918 0.153 0.784-1.36-0.591-0.718c-1.16-1.41-1.16-3.46 0-4.87l0.591-0.718-0.784-1.36-0.918 0.153c-1.81 0.3-3.57-0.72-4.22-2.44l-0.327-0.871h-1.57l-0.327 0.871c-0.643 1.72-2.41 2.74-4.22 2.44l-0.918-0.153-0.784 1.36 0.591 0.718c1.16 1.41 1.16 3.46 0 4.87l-0.591 0.718 0.784 1.36 0.918-0.153c1.81-0.3 3.57 0.72 4.22 2.44z" clip-rule="evenodd" fill="#3574f0" fill-rule="evenodd"/>
    <path d="m26.8 36.8h-1.57l-0.327-0.871c-0.643-1.72-2.41-2.74-4.22-2.44l-0.918 0.153-0.784-1.36 0.591-0.718c1.16-1.41 1.16-3.46 0-4.87l-0.591-0.718 0.784-1.36 0.918 0.153c1.81 0.3 3.57-0.72 4.22-2.44l0.327-0.871h1.57l0.327 0.871c0.643 1.72 2.41 2.74 4.22 2.44l0.918-0.153 0.784 1.36-0.591 0.718c-1.16 1.41-1.16 3.46 0 4.87l0.591 0.718-0.784 1.36-0.918-0.153c-1.81-0.3-3.57 0.72-4.22 2.44zm1.77-7.67c0 1.41-1.14 2.56-2.56 2.56-1.41 0-2.56-1.14-2.56-2.56 0-1.41 1.14-2.56 2.56-2.56 1.41 0 2.56 1.14 2.56 2.56z" clip-rule="evenodd" fill="#edf3ff" fill-rule="evenodd"/>
    <path d="m3 31.7v-18.3c0-1.36 0.538-2.66 1.5-3.61l7.23-7.23c0.958-0.958 2.26-1.5 3.61-1.5h8.1c2.82 0 5.11 2.29 5.11 5.11v10.5c-0.826-0.168-1.68-0.256-2.56-0.256-7.06 0-12.8 5.72-12.8 12.8 0 2.88 0.95 5.53 2.55 7.67h-7.66c-2.82 0-5.11-2.29-5.11-5.11z" fill="#ebecf0"/>
    <path d="m3 31.7v-18.3c0-1.36 0.538-2.66 1.5-3.61l7.23-7.23c0.958-0.958 2.26-1.5 3.61-1.5h8.1c2.82 0 5.11 2.29 5.11 5.11v10.5c-0.826-0.168-1.68-0.256-2.56-0.256v-10.2c0-1.41-1.14-2.56-2.56-2.56h-7.67v5.11c0 2.82-2.29 5.11-5.11 5.11h-5.11v17.9c0 1.41 1.14 2.56 2.56 2.56h6.17c0.399 0.912 0.901 1.77 1.49 2.56h-7.66c-2.82 0-5.11-2.29-5.11-5.11zm3.61-20.4 6.61-6.61v4.05c0 1.41-1.14 2.56-2.56 2.56z" clip-rule="evenodd" fill="#6c707e" fill-rule="evenodd"/>
  </g>
</svg>
