<!-- Copyright 2000-2025 JetBrains s.r.o. and contributors. Use of this source code is governed by the Apache 2.0 license. -->
<svg width="20" height="20" viewBox="0 0 20 20" fill="none" xmlns="http://www.w3.org/2000/svg">
<path d="M15.5 3C15.5 2.72386 15.2761 2.5 15 2.5H5C4.72386 2.5 4.5 2.72386 4.5 3L4.50037 16.959L9.06678 13.3262L9.17127 13.25C9.70875 12.8931 10.4214 12.9185 10.934 13.3262L15.5004 16.959L15.5 3ZM17.0004 17.9961C17.0004 18.781 16.1504 19.2403 15.5043 18.8652L15.3773 18.7793L10.0004 14.5L4.62342 18.7793L4.49646 18.8652C3.85035 19.2403 3.00037 18.781 3.00037 17.9961L3 3C3 1.89543 3.89543 1 5 1H15C16.1046 1 17 1.89543 17 3L17.0004 17.9961Z" fill="#CED0D6"/>
</svg>
