<!-- Copyright 2000-2025 JetBrains s.r.o. and contributors. Use of this source code is governed by the Apache 2.0 license. -->
<svg width="16" height="16" viewBox="0 0 16 16" fill="none" xmlns="http://www.w3.org/2000/svg">
<path d="M7.43457 11.1748C7.79875 10.9252 8.28851 10.9434 8.63477 11.2285L11.999 13.998V3C11.999 2.48238 11.6056 2.05629 11.1016 2.00488L10.999 2H5C4.44772 2 4 2.44772 4 3V13.998L7.36328 11.2285L7.43457 11.1748ZM12.999 13.998L12.9873 14.1523C12.884 14.8477 12.0917 15.2218 11.4893 14.8594L11.3633 14.7705L7.99902 12L4.63574 14.7705L4.50977 14.8594C3.8642 15.2479 3 14.7903 3 13.998V3C3 1.89543 3.89543 1 5 1H10.999L11.2031 1.01074C12.2117 1.11308 12.999 1.9644 12.999 3V13.998Z" fill="#CED0D6"/>
</svg>
