<!-- Copyright 2000-2025 JetBrains s.r.o. and contributors. Use of this source code is governed by the Apache 2.0 license. -->
<svg width="20" height="20" viewBox="0 0 20 20" fill="none" xmlns="http://www.w3.org/2000/svg">
<path fill-rule="evenodd" clip-rule="evenodd" d="M4.25 1C4.44891 1 4.63962 1.07907 4.78027 1.21973L5.56055 2H6.43945L7.21973 1.21973L7.33398 1.12598C7.45628 1.04445 7.60085 1 7.75 1H13.125C14.9473 1 16.4277 1.87993 17.4346 3.08105C18.4322 4.27143 19 5.81492 19 7.25C19 7.51735 18.8572 7.76425 18.626 7.89844C18.3948 8.03247 18.11 8.0339 17.8779 7.90137L15.4258 6.5H14.0605L13 7.56055V18.25C13 18.6642 12.6642 19 12.25 19H7.75C7.33579 19 7 18.6642 7 18.25V7.56055L6.43945 7H5.56055L4.78027 7.78027C4.63962 7.92093 4.44891 8 4.25 8H1.75C1.33579 8 1 7.66421 1 7.25V1.75C1 1.33579 1.33579 1 1.75 1H4.25ZM8.5 17.5H11.5V8H8.5V17.5ZM2.5 6.5H3.93945L4.71973 5.71973L4.83398 5.62598C4.95628 5.54445 5.10085 5.5 5.25 5.5H6.75C6.94891 5.5 7.13962 5.57907 7.28027 5.71973L8.06055 6.5H11.9395L13.2197 5.21973L13.334 5.12598C13.4563 5.04445 13.6008 5 13.75 5H15.625C15.7555 5 15.8838 5.03392 15.9971 5.09863L17.2637 5.82227C17.0602 5.19249 16.7287 4.57423 16.2842 4.04395C15.5098 3.12029 14.4276 2.5 13.125 2.5H8.06055L7.28027 3.28027C7.13962 3.42093 6.94891 3.5 6.75 3.5H5.25C5.05109 3.5 4.86038 3.42093 4.71973 3.28027L3.93945 2.5H2.5V6.5Z" fill="#6C707E"/>
</svg>
