<svg width="20" height="20" viewBox="0 0 20 20" fill="none" xmlns="http://www.w3.org/2000/svg">
<path d="M6.25 4.5C6.25 4.08579 5.91421 3.75 5.5 3.75C5.08579 3.75 4.75 4.08579 4.75 4.5V13.6893L2.53033 11.4697C2.23744 11.1768 1.76256 11.1768 1.46967 11.4697C1.17678 11.7626 1.17678 12.2374 1.46967 12.5303L4.96967 16.0303C5.26256 16.3232 5.73744 16.3232 6.03033 16.0303L9.53033 12.5303C9.82322 12.2374 9.82322 11.7626 9.53033 11.4697C9.23744 11.1768 8.76256 11.1768 8.46967 11.4697L6.25 13.6893V4.5Z" fill="#6C707E"/>
<path d="M15.0303 3.96967C14.7374 3.67678 14.2626 3.67678 13.9697 3.96967L10.4697 7.46967C10.1768 7.76256 10.1768 8.23744 10.4697 8.53033C10.7626 8.82322 11.2374 8.82322 11.5303 8.53033L13.75 6.31066V15.5C13.75 15.9142 14.0858 16.25 14.5 16.25C14.9142 16.25 15.25 15.9142 15.25 15.5V6.31066L17.4697 8.53033C17.7626 8.82322 18.2374 8.82322 18.5303 8.53033C18.8232 8.23744 18.8232 7.76256 18.5303 7.46967L15.0303 3.96967Z" fill="#6C707E"/>
</svg>
