<svg width="16" height="16" viewBox="0 0 16 16" fill="none" xmlns="http://www.w3.org/2000/svg">
<path d="M11.8536 3.14645C11.6583 2.95118 11.3417 2.95118 11.1464 3.14645L8.14645 6.14645C7.95118 6.34171 7.95118 6.65829 8.14645 6.85355C8.34171 7.04882 8.65829 7.04882 8.85355 6.85355L11 4.70711V12.5C11 12.7761 11.2239 13 11.5 13C11.7761 13 12 12.7761 12 12.5V4.70711L14.1464 6.85355C14.3417 7.04882 14.6583 7.04882 14.8536 6.85355C15.0488 6.65829 15.0488 6.34171 14.8536 6.14645L11.8536 3.14645Z" fill="#CED0D6"/>
<path d="M5 3.5C5 3.22386 4.77614 3 4.5 3C4.22386 3 4 3.22386 4 3.5V11.2929L1.85355 9.14645C1.65829 8.95118 1.34171 8.95118 1.14645 9.14645C0.951184 9.34171 0.951184 9.65829 1.14645 9.85355L4.14645 12.8536C4.34171 13.0488 4.65829 13.0488 4.85355 12.8536L7.85355 9.85355C8.04882 9.65829 8.04882 9.34171 7.85355 9.14645C7.65829 8.95118 7.34171 8.95118 7.14645 9.14645L5 11.2929V3.5Z" fill="#CED0D6"/>
</svg>
