<!-- Copyright 2000-2025 JetBrains s.r.o. and contributors. Use of this source code is governed by the Apache 2.0 license. -->
<svg width="16" height="16" viewBox="0 0 16 16" fill="none" xmlns="http://www.w3.org/2000/svg">
<path d="M8.5 10C8.77614 10 9 10.2239 9 10.5C9 10.7761 8.77614 11 8.5 11H5.5C5.22386 11 5 10.7761 5 10.5C5 10.2239 5.22386 10 5.5 10H8.5Z" fill="#CED0D6"/>
<path d="M8.5 8C8.77614 8 9 8.22386 9 8.5C9 8.77614 8.77614 9 8.5 9H5.5C5.22386 9 5 8.77614 5 8.5C5 8.22386 5.22386 8 5.5 8H8.5Z" fill="#CED0D6"/>
<path d="M8.5 6C8.77614 6 9 6.22386 9 6.5C9 6.77614 8.77614 7 8.5 7H5.5C5.22386 7 5 6.77614 5 6.5C5 6.22386 5.22386 6 5.5 6H8.5Z" fill="#CED0D6"/>
<path fill-rule="evenodd" clip-rule="evenodd" d="M10 3C11.1046 3 12 3.89543 12 5V12L11.9893 12.2041C11.8938 13.1457 11.1457 13.8938 10.2041 13.9893L10 14H4L3.7959 13.9893C2.85435 13.8938 2.1062 13.1457 2.01074 12.2041L2 12V5C2 3.89543 2.89543 3 4 3H10ZM4 4C3.44772 4 3 4.44772 3 5V12C3 12.5523 3.44772 13 4 13H10C10.5523 13 11 12.5523 11 12V5C11 4.44772 10.5523 4 10 4H4Z" fill="#CED0D6"/>
<path d="M11 1C12.6569 1 14 2.34315 14 4V10.5C14 10.7761 13.7761 11 13.5 11C13.2239 11 13 10.7761 13 10.5V4C13 2.89543 12.1046 2 11 2H5.5C5.22386 2 5 1.77614 5 1.5C5 1.22386 5.22386 1 5.5 1H11Z" fill="#CED0D6"/>
</svg>
