<!-- Copyright 2000-2025 JetBrains s.r.o. and contributors. Use of this source code is governed by the Apache 2.0 license. -->
<svg width="20" height="20" viewBox="0 0 20 20" fill="none" xmlns="http://www.w3.org/2000/svg">
<path d="M10.5 13.75C10.9142 13.75 11.25 14.0858 11.25 14.5C11.25 14.9142 10.9142 15.25 10.5 15.25H6.5C6.08579 15.25 5.75 14.9142 5.75 14.5C5.75 14.0858 6.08579 13.75 6.5 13.75H10.5Z" fill="#6C707E"/>
<path d="M10.5 10.75C10.9142 10.75 11.25 11.0858 11.25 11.5C11.25 11.9142 10.9142 12.25 10.5 12.25H6.5C6.08579 12.25 5.75 11.9142 5.75 11.5C5.75 11.0858 6.08579 10.75 6.5 10.75H10.5Z" fill="#6C707E"/>
<path d="M10.5 7.75C10.9142 7.75 11.25 8.08579 11.25 8.5C11.25 8.91421 10.9142 9.25 10.5 9.25H6.5C6.08579 9.25 5.75 8.91421 5.75 8.5C5.75 8.08579 6.08579 7.75 6.5 7.75H10.5Z" fill="#6C707E"/>
<path fill-rule="evenodd" clip-rule="evenodd" d="M13 4C14.1046 4 15 4.89543 15 6V17C15 18.0357 14.2128 18.887 13.2041 18.9893L13 19H4L3.7959 18.9893C2.85435 18.8938 2.1062 18.1457 2.01074 17.2041L2 17V6C2 4.89543 2.89543 4 4 4H13ZM4 5.5C3.72386 5.5 3.5 5.72386 3.5 6V17C3.5 17.2761 3.72386 17.5 4 17.5H13C13.2761 17.5 13.5 17.2761 13.5 17V6C13.5 5.72386 13.2761 5.5 13 5.5H4Z" fill="#6C707E"/>
<path d="M14.5 1C16.433 1 18 2.567 18 4.5V14.25C18 14.6642 17.6642 15 17.25 15C16.8358 15 16.5 14.6642 16.5 14.25V4.5C16.5 3.39543 15.6046 2.5 14.5 2.5H6.75C6.33579 2.5 6 2.16421 6 1.75C6 1.33579 6.33579 1 6.75 1H14.5Z" fill="#6C707E"/>
</svg>
