<!-- Copyright 2000-2022 JetBrains s.r.o. and contributors. Use of this source code is governed by the Apache 2.0 license. -->
<svg width="16" height="16" viewBox="0 0 16 16" fill="none" xmlns="http://www.w3.org/2000/svg">
<path fill-rule="evenodd" clip-rule="evenodd" d="M6.5 2H9.5V5H6.5V2ZM5.5 2C5.5 1.44772 5.94772 1 6.5 1H9.5C10.0523 1 10.5 1.44772 10.5 2V5C10.5 5.55228 10.0523 6 9.5 6H8.40039V7.5H11C11.5523 7.5 12 7.94772 12 8.5V10H13C13.5523 10 14 10.4477 14 11V14C14 14.5523 13.5523 15 13 15H10C9.44772 15 9 14.5523 9 14V11C9 10.4477 9.44772 10 10 10H11V8.5H5V10H6C6.55228 10 7 10.4477 7 11V14C7 14.5523 6.55228 15 6 15H3C2.44772 15 2 14.5523 2 14V11C2 10.4477 2.44772 10 3 10H4V8.5C4 7.94772 4.44772 7.5 5 7.5H7.40039V6H6.5C5.94772 6 5.5 5.55228 5.5 5V2ZM6 11H3L3 14H6V11ZM13 11H10V14H13V11Z" fill="#CED0D6"/>
</svg>
