<!-- Copyright 2000-2025 JetBrains s.r.o. and contributors. Use of this source code is governed by the Apache 2.0 license. -->
<svg width="20" height="20" viewBox="0 0 20 20" fill="none" xmlns="http://www.w3.org/2000/svg">
<path fill-rule="evenodd" clip-rule="evenodd" d="M14.25 9C14.9404 9 15.5 9.55964 15.5 10.25V12H17.5C18.3284 12 19 12.6716 19 13.5V17.5L18.9922 17.6533C18.9154 18.4097 18.2767 19 17.5 19H12.5L12.3467 18.9922C11.6407 18.9205 11.0795 18.3593 11.0078 17.6533L11 17.5V13.5C11 12.6716 11.6716 12 12.5 12H14V10.5H6V12H7.5C8.32843 12 9 12.6716 9 13.5V17.5L8.99219 17.6533C8.91539 18.4097 8.27666 19 7.5 19H2.5L2.34668 18.9922C1.64069 18.9205 1.07949 18.3593 1.00781 17.6533L1 17.5V13.5C1 12.6716 1.67157 12 2.5 12H4.5V10.25C4.5 9.55964 5.05964 9 5.75 9H14.25ZM2.5 17.5H7.5V13.5H2.5V17.5ZM12.5 17.5H17.5V13.5H12.5V17.5Z" fill="#6C707E"/>
<path fill-rule="evenodd" clip-rule="evenodd" d="M12.5 1C13.3284 1 14 1.67157 14 2.5V6.5L13.9922 6.65332C13.9154 7.40972 13.2767 8 12.5 8H7.5L7.34668 7.99219C6.64069 7.92051 6.07949 7.35931 6.00781 6.65332L6 6.5V2.5C6 1.67157 6.67157 1 7.5 1H12.5ZM7.5 6.5H12.5V2.5H7.5V6.5Z" fill="#6C707E"/>
</svg>
