<!-- Copyright 2000-2022 JetBrains s.r.o. and contributors. Use of this source code is governed by the Apache 2.0 license. -->
<svg width="16" height="16" viewBox="0 0 16 16" fill="none" xmlns="http://www.w3.org/2000/svg">
<path d="M6.95674 14.4579H9.04941C8.99287 14.5871 8.91235 14.7059 8.81068 14.8076C8.59649 15.0218 8.30599 15.1421 8.00308 15.1421C7.70016 15.1421 7.40966 15.0218 7.19547 14.8076C7.0938 14.7059 7.01329 14.5871 6.95674 14.4579Z" stroke="#6C707E" stroke-width="0.915741"/>
<path d="M3.9472 8.2236C3.98191 8.15418 3.99999 8.07762 3.99999 8V6C3.99999 4.29256 4.57108 3.18513 5.32407 2.50006C6.0881 1.80496 7.08663 1.50196 8.00113 1.50001L8.00388 1.5L8.00449 1.5L8.00462 1.5H8.00543L8.00617 1.5L8.00892 1.50001C8.92327 1.50196 9.91901 1.80486 10.6804 2.49958C11.431 3.1844 12 4.2919 12 6V8C12 8.07762 12.0181 8.15418 12.0528 8.2236L13.8492 11.8164C14.0062 12.1305 13.7779 12.5 13.4267 12.5H2.57326C2.22214 12.5 1.99376 12.1305 2.15079 11.8164L3.9472 8.2236Z" stroke="#6C707E" stroke-linejoin="round"/>
</svg>
