<!-- Copyright 2000-2024 JetBrains s.r.o. and contributors. Use of this source code is governed by the Apache 2.0 license. -->
<svg width="16" height="16" viewBox="0 0 16 16" fill="none" xmlns="http://www.w3.org/2000/svg">
<path fill-rule="evenodd" clip-rule="evenodd" d="M3.5 1C2.11929 1 1 2.11929 1 3.5C1 4.70948 1.85888 5.71836 3 5.94999V10.05C1.85888 10.2816 1 11.2905 1 12.5C1 13.8807 2.11929 15 3.5 15C4.70948 15 5.71836 14.1411 5.94999 13H10.05C10.2816 14.1411 11.2905 15 12.5 15C13.8807 15 15 13.8807 15 12.5C15 11.2905 14.1411 10.2816 13 10.05V5.94999C14.1411 5.71836 15 4.70948 15 3.5C15 2.11929 13.8807 1 12.5 1C11.2905 1 10.2816 1.85888 10.05 3H5.94999C5.71836 1.85888 4.70948 1 3.5 1ZM2 3.5C2 4.32843 2.67157 5 3.5 5C4.32843 5 5 4.32843 5 3.5C5 2.67157 4.32843 2 3.5 2C2.67157 2 2 2.67157 2 3.5ZM10.05 4H5.94999C5.75115 4.97957 4.97957 5.75115 4 5.94999V10.05C4.97957 10.2488 5.75115 11.0204 5.94999 12H10.05C10.2488 11.0204 11.0204 10.2488 12 10.05V5.94999C11.0204 5.75115 10.2488 4.97957 10.05 4ZM2 12.5C2 13.3284 2.67157 14 3.5 14C4.32843 14 5 13.3284 5 12.5C5 11.6716 4.32843 11 3.5 11C2.67157 11 2 11.6716 2 12.5ZM12.5 14C11.6716 14 11 13.3284 11 12.5C11 11.6716 11.6716 11 12.5 11C13.3284 11 14 11.6716 14 12.5C14 13.3284 13.3284 14 12.5 14ZM12.5 5C11.6716 5 11 4.32843 11 3.5C11 2.67157 11.6716 2 12.5 2C13.3284 2 14 2.67157 14 3.5C14 4.32843 13.3284 5 12.5 5Z" fill="#6C707E"/>
</svg>
