<!-- Copyright 2000-2024 JetBrains s.r.o. and contributors. Use of this source code is governed by the Apache 2.0 license. -->
<svg width="20" height="20" viewBox="0 0 20 20" fill="none" xmlns="http://www.w3.org/2000/svg">
<path fill-rule="evenodd" clip-rule="evenodd" d="M2.75 1C3.16421 1 3.5 1.33579 3.5 1.75V4H6V3C6 1.89543 6.89543 1 8 1H16C17.1046 1 18 1.89543 18 3V7C18 8.10457 17.1046 9 16 9H8C6.89543 9 6 8.10457 6 7V5.5H3.5V14H6V13C6 11.8954 6.89543 11 8 11H16C17.1046 11 18 11.8954 18 13V17C18 18.1046 17.1046 19 16 19H8C6.89543 19 6 18.1046 6 17V15.5H3.5V18.25C3.5 18.6642 3.16421 19 2.75 19C2.33579 19 2 18.6642 2 18.25V1.75C2 1.33579 2.33579 1 2.75 1ZM16 12.5H8C7.72386 12.5 7.5 12.7239 7.5 13V17C7.5 17.2761 7.72386 17.5 8 17.5H16C16.2761 17.5 16.5 17.2761 16.5 17V13C16.5 12.7239 16.2761 12.5 16 12.5ZM8 2.5H16C16.2761 2.5 16.5 2.72386 16.5 3V7C16.5 7.27614 16.2761 7.5 16 7.5H8C7.72386 7.5 7.5 7.27614 7.5 7V3C7.5 2.72386 7.72386 2.5 8 2.5Z" fill="#6C707E"/>
</svg>
