<!-- Copyright 2000-2024 JetBrains s.r.o. and contributors. Use of this source code is governed by the Apache 2.0 license. -->
<svg width="16" height="16" viewBox="0 0 16 16" fill="none" xmlns="http://www.w3.org/2000/svg">
<path fill-rule="evenodd" clip-rule="evenodd" d="M3 1.5C3 1.22386 2.77614 1 2.5 1C2.22386 1 2 1.22386 2 1.5V14.5C2 14.7761 2.22386 15 2.5 15C2.77614 15 3 14.7761 3 14.5V12H5V13C5 14.1046 5.89543 15 7 15H12C13.1046 15 14 14.1046 14 13V11C14 9.89543 13.1046 9 12 9H7C5.89543 9 5 9.89543 5 11H3V4H5V5C5 6.10457 5.89543 7 7 7H12C13.1046 7 14 6.10457 14 5V3C14 1.89543 13.1046 1 12 1H7C5.89543 1 5 1.89543 5 3L3 3V1.5ZM6 5C6 5.55228 6.44772 6 7 6H12C12.5523 6 13 5.55228 13 5V3C13 2.44772 12.5523 2 12 2H7C6.44772 2 6 2.44772 6 3V5ZM6 13C6 13.5523 6.44772 14 7 14H12C12.5523 14 13 13.5523 13 13V11C13 10.4477 12.5523 10 12 10H7C6.44772 10 6 10.4477 6 11V13Z" fill="#CED0D6"/>
</svg>
