<!-- Copyright 2000-2024 JetBrains s.r.o. and contributors. Use of this source code is governed by the Apache 2.0 license. -->
<svg width="20" height="20" viewBox="0 0 20 20" fill="none" xmlns="http://www.w3.org/2000/svg">
<path fill-rule="evenodd" clip-rule="evenodd" d="M4 1C2.34315 1 1 2.34315 1 4C1 5.30622 1.83481 6.41746 3 6.82929V13.1707C1.83481 13.5825 1 14.6938 1 16C1 17.6569 2.34315 19 4 19C5.30622 19 6.41746 18.1652 6.82929 17H13.1707C13.5825 18.1652 14.6938 19 16 19C17.6569 19 19 17.6569 19 16C19 14.6938 18.1652 13.5825 17 13.1707V6.82929C18.1652 6.41746 19 5.30622 19 4C19 2.34315 17.6569 1 16 1C14.6938 1 13.5825 1.83481 13.1707 3H6.82929C6.41746 1.83481 5.30622 1 4 1ZM2.5 4C2.5 4.82843 3.17157 5.5 4 5.5C4.82843 5.5 5.5 4.82843 5.5 4C5.5 3.17157 4.82843 2.5 4 2.5C3.17157 2.5 2.5 3.17157 2.5 4ZM13.0415 4.5H6.95852C6.74776 5.75625 5.75625 6.74776 4.5 6.95852V13.0415C5.75625 13.2522 6.74776 14.2437 6.95852 15.5H13.0415C13.2522 14.2437 14.2437 13.2522 15.5 13.0415V6.95852C14.2437 6.74776 13.2522 5.75625 13.0415 4.5ZM2.5 16C2.5 16.8284 3.17157 17.5 4 17.5C4.82843 17.5 5.5 16.8284 5.5 16C5.5 15.1716 4.82843 14.5 4 14.5C3.17157 14.5 2.5 15.1716 2.5 16ZM16 17.5C15.1716 17.5 14.5 16.8284 14.5 16C14.5 15.1716 15.1716 14.5 16 14.5C16.8284 14.5 17.5 15.1716 17.5 16C17.5 16.8284 16.8284 17.5 16 17.5ZM16 5.5C15.1716 5.5 14.5 4.82843 14.5 4C14.5 3.17157 15.1716 2.5 16 2.5C16.8284 2.5 17.5 3.17157 17.5 4C17.5 4.82843 16.8284 5.5 16 5.5Z" fill="#CED0D6"/>
</svg>
