<!-- Copyright 2000-2022 JetBrains s.r.o. and contributors. Use of this source code is governed by the Apache 2.0 license. -->
<svg width="20" height="20" viewBox="0 0 20 20" fill="none" xmlns="http://www.w3.org/2000/svg">
<path fill-rule="evenodd" clip-rule="evenodd" d="M10 17.4433C9.75995 17.468 9.50933 17.4062 9.32654 17.2366C6.76839 14.8638 3.89333 15.9073 2.27911 16.8502C1.75632 17.1556 1 16.7875 1 16.1821V4.09726C1 3.72938 1.1992 3.39306 1.5356 3.24416C3.01531 2.58921 7.23259 1.07717 10 3.6471C12.7674 1.07717 16.9847 2.58921 18.4644 3.24416C18.8008 3.39306 19 3.72938 19 4.09726V16.1821C19 16.7875 18.2437 17.1556 17.7209 16.8502C16.1067 15.9073 13.2316 14.8638 10.6735 17.2366C10.4907 17.4062 10.24 17.468 10 17.4433ZM9.25 5.02387C8.31735 3.97684 7.09779 3.662 5.79539 3.70723C4.52226 3.75145 3.29182 4.14669 2.5 4.46509V15.0493C3.3012 14.6874 4.27626 14.3744 5.34973 14.3033C6.60714 14.22 7.95746 14.474 9.25 15.2894V5.02387ZM10.75 15.2894C12.0425 14.474 13.3929 14.22 14.6503 14.3033C15.7237 14.3744 16.6988 14.6874 17.5 15.0493V4.46509C16.7082 4.14669 15.4777 3.75145 14.2046 3.70723C12.9022 3.662 11.6826 3.97684 10.75 5.02387V15.2894Z" fill="#CED0D6"/>
</svg>
