<!-- Copyright 2000-2022 JetBrains s.r.o. and contributors. Use of this source code is governed by the Apache 2.0 license. -->
<svg width="16" height="16" viewBox="0 0 16 16" fill="none" xmlns="http://www.w3.org/2000/svg">
<path fill-rule="evenodd" clip-rule="evenodd" d="M8.00002 14.0528C7.85812 14.0579 7.71386 14.0118 7.60895 13.9027C5.58951 11.8023 3.28756 12.6215 2.00294 13.3773C1.59499 13.6173 1 13.3303 1 12.857V3.4695C1 3.18531 1.15288 2.92515 1.4121 2.80867C2.56151 2.29219 5.85864 1.09521 8.00003 3.20167C10.1414 1.09521 13.4385 2.29219 14.5879 2.80867C14.8472 2.92515 15 3.18531 15 3.4695V12.857C15 13.3303 14.4051 13.6173 13.9971 13.3773C12.7125 12.6215 10.4105 11.8023 8.3911 13.9027C8.28619 14.0118 8.14193 14.0579 8.00002 14.0528ZM7.50002 4.13097C6.72801 3.22897 5.71886 2.96682 4.674 3.00316C3.61873 3.03987 2.60818 3.38648 2 3.64328V12.2424C2.67243 11.9094 3.53429 11.6052 4.49327 11.5696C5.47659 11.5331 6.51628 11.7821 7.50002 12.4869V4.13097ZM8.50002 12.4869C9.48377 11.7821 10.5235 11.5331 11.5068 11.5696C12.4658 11.6052 13.3276 11.9094 14 12.2424V3.64328C13.3919 3.38648 12.3813 3.03987 11.326 3.00316C10.2812 2.96682 9.27204 3.22897 8.50002 4.13097V12.4869Z" fill="#CED0D6"/>
</svg>
