<!-- Copyright 2000-2022 JetBrains s.r.o. and contributors. Use of this source code is governed by the Apache 2.0 license. -->
<svg width="20" height="20" viewBox="0 0 20 20" fill="none" xmlns="http://www.w3.org/2000/svg">
<circle cx="3.1" cy="4.69998" r="1.1" fill="#CED0D6"/>
<path d="M5.5 4.70001C5.5 4.2858 5.83579 3.95001 6.25 3.95001H17.25C17.6642 3.95001 18 4.2858 18 4.70001V4.70001C18 5.11423 17.6642 5.45001 17.25 5.45001H6.25C5.83579 5.45001 5.5 5.11423 5.5 4.70001V4.70001Z" fill="#CED0D6"/>
<circle cx="3.1" cy="10" r="1.1" fill="#CED0D6"/>
<path d="M5.5 10C5.5 9.58579 5.83579 9.25 6.25 9.25H17.25C17.6642 9.25 18 9.58579 18 10V10C18 10.4142 17.6642 10.75 17.25 10.75H6.25C5.83579 10.75 5.5 10.4142 5.5 10V10Z" fill="#CED0D6"/>
<circle cx="3.1" cy="15.3" r="1.1" fill="#CED0D6"/>
<path d="M5.5 15.3C5.5 14.8858 5.83579 14.55 6.25 14.55H17.25C17.6642 14.55 18 14.8858 18 15.3V15.3C18 15.7142 17.6642 16.05 17.25 16.05H6.25C5.83579 16.05 5.5 15.7142 5.5 15.3V15.3Z" fill="#CED0D6"/>
</svg>
