<svg width="16" height="16" viewBox="0 0 16 16" fill="none" xmlns="http://www.w3.org/2000/svg">
  <path d="M12 14C12.5523 14 13 13.5523 13 13C13 12.4477 12.5523 12 12 12C11.4477 12 11 12.4477 11 13C11 13.5523 11.4477 14 12 14Z"
        fill="#CED0D6"/>
  <path fill-rule="evenodd" clip-rule="evenodd"
        d="M12 16C9 16 8 13 8 13C8 13 9 10 12 10C15 10 16 13 16 13C16 13 15 16 12 16ZM14.9024 12.9785L14.9131 13L14.9024 13.0215C14.787 13.2525 14.6081 13.5582 14.3568 13.8598C13.8602 14.4557 13.1189 15 12 15C10.8811 15 10.1398 14.4557 9.64322 13.8598C9.39186 13.5582 9.21302 13.2525 9.09755 13.0215L9.08686 13L9.09755 12.9785C9.21302 12.7475 9.39186 12.4418 9.64322 12.1402C10.1398 11.5443 10.8811 11 12 11C13.1189 11 13.8602 11.5443 14.3568 12.1402C14.6081 12.4418 14.787 12.7475 14.9024 12.9785Z"
        fill="#CED0D6"/>
  <path fill-rule="evenodd" clip-rule="evenodd"
        d="M1 4C1 2.89543 1.89543 2 3 2H13C14.1046 2 15 2.89543 15 4V10.0002C14.7066 9.77678 14.374 9.57312 14 9.40875V6H11V9.09561C10.6382 9.16692 10.3053 9.27503 10 9.40931V6H6V13H7V14H3C1.89543 14 1 13.1046 1 12V4ZM6 3H10V5H6V3ZM5 3H3C2.44772 3 2 3.44772 2 4V5H5V3ZM2 6V12C2 12.5523 2.44772 13 3 13H5V6H2ZM14 5V4C14 3.44772 13.5523 3 13 3H11V5H14Z"
        fill="#CED0D6"/>
</svg>
