<svg width="20" height="20" viewBox="0 0 20 20" fill="none" xmlns="http://www.w3.org/2000/svg">
  <path fill-rule="evenodd" clip-rule="evenodd"
        d="M3 2C1.89543 2 1 2.89543 1 4V16C1 17.1046 1.89543 18 3 18H8V7.5H12V11.2061C12.4468 10.9734 12.9455 10.7843 13.5 10.6605V7.5H17.5V10.9741C18.0725 11.209 18.5705 11.5156 19 11.858V4C19 2.89543 18.1046 2 17 2H3ZM6.5 3.5H3C2.72386 3.5 2.5 3.72386 2.5 4V6H6.5V3.5ZM8 3.5V6H12V3.5H8ZM13.5 3.5V6H17.5V4C17.5 3.72386 17.2761 3.5 17 3.5H13.5ZM6.5 16.5V7.5H2.5V16C2.5 16.2761 2.72386 16.5 3 16.5H6.5Z"
        fill="#6C707E"/>
  <path
    d="M15 17.5C15.8284 17.5 16.5 16.8284 16.5 16C16.5 15.1716 15.8284 14.5 15 14.5C14.1716 14.5 13.5 15.1716 13.5 16C13.5 16.8284 14.1716 17.5 15 17.5Z"
    fill="#6C707E"/>
  <path fill-rule="evenodd" clip-rule="evenodd"
        d="M20 16C20 16 19 12 15 12C11 12 10 16 10 16C10 16 11 20 15 20C19 20 20 16 20 16ZM18.4164 16L18.3966 15.9519C18.2748 15.6596 18.0819 15.2758 17.8 14.9C17.2547 14.173 16.4107 13.5 15 13.5C13.5893 13.5 12.7453 14.173 12.2 14.9C11.9181 15.2758 11.7252 15.6596 11.6034 15.9519L11.5836 16L11.6034 16.0481C11.7252 16.3404 11.9181 16.7242 12.2 17.1C12.7453 17.827 13.5893 18.5 15 18.5C16.4107 18.5 17.2547 17.827 17.8 17.1C18.0819 16.7242 18.2748 16.3404 18.3966 16.0481L18.4164 16Z"
        fill="#6C707E"/>
</svg>
