<!-- Copyright 2000-2023 JetBrains s.r.o. and contributors. Use of this source code is governed by the Apache 2.0 license. -->
<svg xmlns="http://www.w3.org/2000/svg" width="20" height="20" fill="none"><path stroke="#CED0D6" stroke-linejoin="round" stroke-width="1.5" d="m8.76 14.36-2.45 2.45c-.29.29-.68.44-1.06.44s-.77-.15-1.06-.44a1.49 1.49 0 0 1 0-2.12l2.46-2.46m8.16-3.92-1.43 1.43m-2.11-2.13 1.42-1.42"/><path stroke="#CED0D6" stroke-linecap="round" stroke-linejoin="round" stroke-width="1.5" d="m11.25 4.75 2.5-2.5 4 4-1 4-5.5-5.5Zm2.44 12.06c.29.29.68.44 1.06.44s.77-.15 1.06-.44c.29-.29.44-.68.44-1.06s-.15-.77-.44-1.06L8.55 7.37c.12-.35.2-.73.2-1.12 0-1.93-1.57-3.5-3.5-3.5-.19 0-.37.03-.55.06l-.59.59 2.14 2.14-1.72 1.72-2.14-2.14-.59.59c-.03.18-.06.36-.06.55 0 1.93 1.57 3.5 3.5 3.5.43 0 .83-.09 1.21-.23l7.23 7.29.01-.01Z"/></svg>