<!-- Copyright © 2000–2024 JetBrains s.r.o. -->
<svg width="20" height="20" viewBox="0 0 20 20" xmlns="http://www.w3.org/2000/svg">
  <path fill="none" stroke="#6C707E" stroke-linecap="round" stroke-linejoin="round" stroke-width="1.5" d="M7.71 14.31c-1.64.44-3.58 1.47-3.91 3.94m12.4 0c-.33-2.46-2.26-3.5-3.9-3.93M3.75 6.25h12.5"/>
  <path fill="none" stroke="#6C707E" stroke-linecap="round" stroke-linejoin="round" stroke-width="1.5" d="M14.25 8.75v-5c0-1.1-.9-2-2-2h-4.5c-1.1 0-2 .9-2 2v5c-.83 0-1.5.67-1.5 1.5s.67 1.5 1.5 1.5h.12A4.257 4.257 0 0 0 10 15c2 0 3.68-1.39 4.13-3.25h.12c.83 0 1.5-.67 1.5-1.5s-.67-1.5-1.5-1.5" clip-rule="evenodd"/>
</svg>
