<!-- Copyright 2000-2023 JetBrains s.r.o. and contributors. Use of this source code is governed by the Apache 2.0 license. -->
<svg xmlns="http://www.w3.org/2000/svg" width="16" height="16" fill="none"><path stroke="#CED0D6" stroke-miterlimit="10" d="M6.04 9.55 3.3 12.29c-.2.2-.29.45-.29.71 0 .26.1.51.29.71.19.2.45.29.71.29.26 0 .51-.1.71-.29l2.74-2.74m3.51-6.36L9.55 6.04m1.41 1.41 1.43-1.42"/><path stroke="#CED0D6" stroke-linejoin="round" d="m14.19 7.83.31-3.31-3.02-3.02-1.81 1.81 4.52 4.52Zm-1.9 5.88c.2.2.45.29.71.29.26 0 .51-.1.71-.29.2-.19.29-.45.29-.71 0-.26-.1-.51-.29-.71L7.2 5.78c.19-.39.3-.82.3-1.29 0-1.66-1.34-3-3-3-.13 0-.26.02-.38.04l-.53.53 1.73 1.73L3.8 5.31 2.07 3.58l-.53.53c-.02.13-.04.25-.04.38 0 1.66 1.34 3 3 3 .46 0 .89-.11 1.29-.3l6.51 6.51-.01.01Z"/></svg>