<!-- Copyright 2000-2023 JetBrains s.r.o. and contributors. Use of this source code is governed by the Apache 2.0 license. -->
<svg width="20" height="20" viewBox="0 0 20 20" fill="none" xmlns="http://www.w3.org/2000/svg">
<path d="M4.37086 12.3231C4.38356 11.8469 4.22798 11.4691 3.90413 11.1897C3.58029 10.9039 3.14531 10.761 2.59921 10.761L2 10.761V9.1608L2.59921 9.16085C3.15166 9.16085 3.58664 9.02115 3.90413 8.74175C4.22798 8.456 4.38356 8.07182 4.37086 7.58922L4.33276 5.27465C4.32006 4.61425 4.45976 4.0364 4.75186 3.5411C5.05031 3.0458 5.47576 2.6648 6.02821 2.3981C6.58066 2.1314 7.23154 1.99805 7.98083 1.99805H9.00001V3.503H8.02846C7.39346 3.503 6.89181 3.6808 6.52351 4.0364C6.15521 4.38565 5.97424 4.85872 5.98059 5.45562L6.01869 7.70352C6.03139 8.34487 5.85358 8.86557 5.48529 9.26562C5.12333 9.66567 4.63121 9.8911 4.00891 9.9419C4.63121 10.0562 5.12333 10.3197 5.48529 10.7325C5.85358 11.1389 6.03139 11.6342 6.01869 12.2184L5.98059 14.7234C5.96788 15.2695 6.12981 15.7013 6.46636 16.0188C6.80926 16.3363 7.27281 16.4951 7.85701 16.4951H9.00001V18H7.80939C7.11089 18 6.49811 17.873 5.97106 17.619C5.44401 17.3714 5.03761 17.0126 4.75186 16.5427C4.46611 16.0792 4.32641 15.5362 4.33276 14.9139L4.37086 12.3231Z" fill="#CED0D6"/>
<path d="M16.0959 11.1897C15.772 11.4691 15.6165 11.8469 15.6292 12.3231L15.6672 14.9139C15.6736 15.5362 15.5339 16.0792 15.2482 16.5427C14.9624 17.0126 14.556 17.3714 14.029 17.619C13.5019 17.873 12.8891 18 12.1906 18H11V16.4951H12.143C12.7272 16.4951 13.1876 16.3363 13.5241 16.0188C13.867 15.7013 14.0321 15.2695 14.0194 14.7234L13.9813 12.2184C13.9686 11.6342 14.1433 11.1389 14.5052 10.7325C14.8735 10.3197 15.3688 10.0562 15.9911 9.9419C15.3688 9.8911 14.8735 9.66567 14.5052 9.26562C14.1433 8.86557 13.9686 8.34487 13.9813 7.70352L14.0194 5.45562C14.0258 4.85872 13.8448 4.38565 13.4765 4.0364C13.1082 3.6808 12.6066 3.503 11.9715 3.503H11V1.99805H12.0192C12.7685 1.99805 13.4193 2.1314 13.9718 2.3981C14.5242 2.6648 14.9465 3.0458 15.2386 3.5411C15.5371 4.0364 15.6799 4.61425 15.6672 5.27465L15.6292 7.58922C15.6165 8.07182 15.7689 8.456 16.0864 8.74175C16.4102 9.02115 16.8484 9.16085 17.4008 9.16085L18 9.1608V10.761L17.4008 10.761C16.8547 10.761 16.4197 10.9039 16.0959 11.1897Z" fill="#CED0D6"/>
</svg>
