<!-- Copyright 2000-2025 JetBrains s.r.o. and contributors. Use of this source code is governed by the Apache 2.0 license. -->
<svg width="20" height="20" viewBox="0 0 20 20" fill="none" xmlns="http://www.w3.org/2000/svg">
<path fill-rule="evenodd" clip-rule="evenodd" d="M10 1C14.9706 1 19 5.02944 19 10C19 14.9706 14.9706 19 10 19C5.02944 19 1 14.9706 1 10C1 5.02944 5.02944 1 10 1ZM7.86621 13.5C8.05352 14.3539 8.3019 15.1125 8.58887 15.7432C8.90888 16.4463 9.24777 16.9281 9.54297 17.2129C9.83894 17.4984 9.99403 17.5 10 17.5C10.006 17.5 10.1611 17.4984 10.457 17.2129C10.7522 16.9281 11.0911 16.4463 11.4111 15.7432C11.6981 15.1125 11.9465 14.3539 12.1338 13.5H7.86621ZM3.36621 13.5C4.25779 15.1864 5.77323 16.4904 7.60547 17.1074C7.06202 16.1681 6.61554 14.9285 6.33301 13.5H3.36621ZM13.667 13.5C13.3844 14.9287 12.9371 16.1681 12.3936 17.1074C14.2262 16.4905 15.7421 15.1866 16.6338 13.5H13.667ZM2.77148 8C2.59567 8.63686 2.5 9.30722 2.5 10C2.5 10.6928 2.59567 11.3631 2.77148 12H6.10742C6.03836 11.3567 6 10.6874 6 10C6 9.31256 6.03836 8.64327 6.10742 8H2.77148ZM7.61621 8C7.5417 8.63518 7.5 9.30499 7.5 10C7.5 10.695 7.5417 11.3648 7.61621 12H12.3838C12.4583 11.3648 12.5 10.695 12.5 10C12.5 9.30499 12.4583 8.63518 12.3838 8H7.61621ZM13.8926 8C13.9616 8.64327 14 9.31256 14 10C14 10.6874 13.9616 11.3567 13.8926 12H17.2285C17.4043 11.3631 17.5 10.6928 17.5 10C17.5 9.30722 17.4043 8.63686 17.2285 8H13.8926ZM7.60547 2.8916C5.7731 3.50862 4.25784 4.81354 3.36621 6.5H6.33301C6.61562 5.07117 7.06183 3.83096 7.60547 2.8916ZM10 2.5C9.99403 2.5 9.83894 2.50158 9.54297 2.78711C9.24777 3.0719 8.90888 3.5537 8.58887 4.25684C8.3019 4.88747 8.05352 5.64606 7.86621 6.5H12.1338C11.9465 5.64606 11.6981 4.88747 11.4111 4.25684C11.0911 3.5537 10.7522 3.0719 10.457 2.78711C10.1611 2.50158 10.006 2.5 10 2.5ZM12.3936 2.8916C12.9373 3.83101 13.3843 5.07095 13.667 6.5H16.6338C15.742 4.81327 14.2263 3.50849 12.3936 2.8916Z" fill="#6C707E"/>
</svg>
