<!-- Copyright 2000-2025 JetBrains s.r.o. and contributors. Use of this source code is governed by the Apache 2.0 license. -->
<svg width="16" height="16" viewBox="0 0 16 16" fill="none" xmlns="http://www.w3.org/2000/svg">
<path fill-rule="evenodd" clip-rule="evenodd" d="M8 1C11.866 1 15 4.13401 15 8C15 11.866 11.866 15 8 15C4.13401 15 1 11.866 1 8C1 4.13401 4.13401 1 8 1ZM6.3125 11C6.44266 11.5858 6.60701 12.1103 6.79785 12.5557C7.03754 13.1149 7.29769 13.5039 7.53516 13.7383C7.76816 13.9681 7.92398 14 8 14C8.07602 14 8.23184 13.9681 8.46484 13.7383C8.70231 13.5039 8.96246 13.1149 9.20215 12.5557C9.39299 12.1103 9.55734 11.5858 9.6875 11H6.3125ZM2.80469 11C3.56455 12.3131 4.80678 13.3106 6.29004 13.751C5.86191 13.0564 5.51476 12.1085 5.28906 11H2.80469ZM10.7109 11C10.4852 12.1088 10.1372 13.0564 9.70898 13.751C11.1926 13.3108 12.4353 12.3133 13.1953 11H10.7109ZM2.34277 6C2.12157 6.62568 2 7.29857 2 8C2 8.70143 2.12157 9.37432 2.34277 10H5.125C5.04416 9.36626 5 8.69501 5 8C5 7.30499 5.04416 6.63374 5.125 6H2.34277ZM6.13379 6C6.04822 6.62358 6 7.29538 6 8C6 8.70462 6.04822 9.37642 6.13379 10H9.86621C9.95178 9.37642 10 8.70462 10 8C10 7.29538 9.95178 6.62358 9.86621 6H6.13379ZM10.875 6C10.9558 6.63374 11 7.30499 11 8C11 8.69501 10.9558 9.36626 10.875 10H13.6572C13.8784 9.37432 14 8.70143 14 8C14 7.29857 13.8784 6.62568 13.6572 6H10.875ZM6.29004 2.24805C4.80666 2.68836 3.56459 3.68685 2.80469 5H5.28906C5.51484 3.89108 5.86171 2.94268 6.29004 2.24805ZM8 2C7.92398 2 7.76816 2.03186 7.53516 2.26172C7.29769 2.49608 7.03754 2.88507 6.79785 3.44434C6.60701 3.88966 6.44266 4.41423 6.3125 5H9.6875C9.55734 4.41423 9.39299 3.88966 9.20215 3.44434C8.96246 2.88507 8.70231 2.49608 8.46484 2.26172C8.23184 2.03186 8.07602 2 8 2ZM9.70898 2.24805C10.1374 2.94272 10.4851 3.89085 10.7109 5H13.1953C12.4353 3.68659 11.1928 2.68823 9.70898 2.24805Z" fill="#CED0D6"/>
</svg>
