<?xml version="1.0" encoding="utf-8"?> <!-- Copyright 2000-2025 JetBrains s.r.o. and contributors. Use of this source code is governed by the Apache 2.0 license. --> <!-- Generator: Adobe Illustrator 19.0.0, SVG Export Plug-In . SVG Version: 6.00 Build 0)  -->
<svg version="1.1" id="Layer_1" xmlns="http://www.w3.org/2000/svg" x="0px"
     y="0px" viewBox="0 0 512 512" style="enable-background:new 0 0 512 512;" xml:space="preserve"> <style
    type="text/css"> 	.st0{fill-rule:evenodd;clip-rule:evenodd;fill:url(#XMLID_2_);} 	.st1{fill-rule:evenodd;clip-rule:evenodd;fill:url(#XMLID_3_);} 	.st2{fill-rule:evenodd;clip-rule:evenodd;fill:url(#XMLID_4_);} 	.st3{fill-rule:evenodd;clip-rule:evenodd;fill:url(#XMLID_5_);} 	.st4{fill-rule:evenodd;clip-rule:evenodd;fill:url(#XMLID_6_);} 	.st5{fill-rule:evenodd;clip-rule:evenodd;fill:url(#XMLID_7_);} 	.st6{fill-rule:evenodd;clip-rule:evenodd;fill:url(#XMLID_8_);} 	.st7{fill-rule:evenodd;clip-rule:evenodd;fill:url(#XMLID_9_);} 	.st8{fill-rule:evenodd;clip-rule:evenodd;fill:url(#XMLID_10_);} 	.st9{opacity:0.5;fill:#D58128;} 	.st10{opacity:0.2;fill:#D58128;} </style>
    <g id="XMLID_27_"> 	 		<linearGradient id="XMLID_2_" gradientUnits="userSpaceOnUse" x1="261.0342"
                                                  y1="14.0686" x2="261.0342" y2="349.5351"
                                                  gradientTransform="matrix(0.9546 0.2978 -0.2978 0.9546 61.1308 4.1511)"> 		<stop
        offset="0" style="stop-color:#FDD900"/>
        <stop offset="1" style="stop-color:#E29F25"/> 	</linearGradient>
        <circle id="XMLID_496_" class="st0" cx="256.2" cy="255.4" r="167.7"/>
        <linearGradient id="XMLID_3_" gradientUnits="userSpaceOnUse" x1="417.1527" y1="-7.9987" x2="417.1527"
                        y2="60.5246" gradientTransform="matrix(0.9546 0.2978 -0.2978 0.9546 61.1308 4.1511)"> 		<stop
            offset="0" style="stop-color:#FDD900"/>
            <stop offset="1" style="stop-color:#E6A323"/> 	</linearGradient>
        <path id="XMLID_495_" class="st1"
              d="M487.1,134.8c-5.1-9.8-17.3-13.6-27.1-8.5L424.4,145c-9.8,5.1-13.6,17.3-8.5,27.1 		c5.1,9.8,17.3,13.6,27.1,8.5l35.6-18.6C488.4,156.8,492.2,144.6,487.1,134.8z"/>
        <linearGradient id="XMLID_4_" gradientUnits="userSpaceOnUse" x1="104.9157" y1="304.2383" x2="104.9157"
                        y2="372.7617" gradientTransform="matrix(0.9546 0.2978 -0.2978 0.9546 61.1308 4.1511)"> 		<stop
            offset="0" style="stop-color:#FDD900"/>
            <stop offset="1" style="stop-color:#E6A323"/> 	</linearGradient>
        <path id="XMLID_494_" class="st2"
              d="M96,339.9c-5.1-9.8-17.3-13.6-27.1-8.5l-35.6,18.6c-9.8,5.1-13.6,17.3-8.5,27.1 		c5.1,9.8,17.3,13.6,27.1,8.5L87.6,367C97.4,361.8,101.2,349.7,96,339.9z"/>
        <linearGradient id="XMLID_5_" gradientUnits="userSpaceOnUse" x1="481.8142" y1="162.2933" x2="481.8142"
                        y2="202.4319" gradientTransform="matrix(0.9546 0.2978 -0.2978 0.9546 61.1308 4.1511)"> 		<stop
            offset="0" style="stop-color:#FDD900"/>
            <stop offset="1" style="stop-color:#E6A323"/> 	</linearGradient>
        <path id="XMLID_492_" class="st3"
              d="M505.1,333.7c3.3-10.6-2.6-21.8-13.2-25.1l-38.3-12c-10.6-3.3-21.8,2.6-25.1,13.2 		c-3.3,10.6,2.6,21.8,13.2,25.1l38.3,12C490.5,350.2,501.8,344.3,505.1,333.7z"/>
        <linearGradient id="XMLID_6_" gradientUnits="userSpaceOnUse" x1="40.2544" y1="162.3311" x2="40.2544"
                        y2="202.4697" gradientTransform="matrix(0.9546 0.2978 -0.2978 0.9546 61.1308 4.1511)"> 		<stop
            offset="0" style="stop-color:#FDD900"/>
            <stop offset="1" style="stop-color:#E6A323"/> 	</linearGradient>
        <path id="XMLID_491_" class="st4"
              d="M83.6,202.2c3.3-10.6-2.6-21.8-13.2-25.1l-38.3-12c-10.6-3.3-21.8,2.6-25.1,13.2 		c-3.3,10.6,2.6,21.8,13.2,25.1l38.3,12C69,218.7,80.2,212.8,83.6,202.2z"/>
        <linearGradient id="XMLID_7_" gradientUnits="userSpaceOnUse" x1="104.9157" y1="-7.9987" x2="104.9157"
                        y2="60.5246" gradientTransform="matrix(0.9546 0.2978 -0.2978 0.9546 61.1308 4.1511)"> 		<stop
            offset="0" style="stop-color:#FDD900"/>
            <stop offset="1" style="stop-color:#E6A323"/> 	</linearGradient>
        <path id="XMLID_489_" class="st5"
              d="M134.8,24.9c-9.8,5.1-13.6,17.3-8.5,27.1L145,87.6c5.1,9.8,17.3,13.6,27.1,8.5 		c9.8-5.1,13.6-17.3,8.5-27.1l-18.6-35.6C156.8,23.6,144.6,19.8,134.8,24.9z"/>
        <linearGradient id="XMLID_8_" gradientUnits="userSpaceOnUse" x1="417.1527" y1="304.2383" x2="417.1527"
                        y2="372.7617" gradientTransform="matrix(0.9546 0.2978 -0.2978 0.9546 61.1308 4.1511)"> 		<stop
            offset="0" style="stop-color:#FDD900"/>
            <stop offset="1" style="stop-color:#E6A323"/> 	</linearGradient>
        <path id="XMLID_477_" class="st6"
              d="M339.9,416c-9.8,5.1-13.6,17.3-8.5,27.1l18.6,35.6c5.1,9.8,17.3,13.6,27.1,8.5 		c9.8-5.1,13.6-17.3,8.5-27.1L367,424.4C361.8,414.6,349.7,410.8,339.9,416z"/>
        <linearGradient id="XMLID_9_" gradientUnits="userSpaceOnUse" x1="261.0533" y1="363.0227" x2="261.0533"
                        y2="443.2999" gradientTransform="matrix(0.9546 0.2978 -0.2978 0.9546 61.1308 4.1511)"> 		<stop
            offset="0" style="stop-color:#FDD900"/>
            <stop offset="1" style="stop-color:#E6A323"/> 	</linearGradient>
        <path id="XMLID_475_" class="st7"
              d="M178.3,505.1c10.6,3.3,21.8-2.6,25.1-13.2l12-38.3c3.3-10.6-2.6-21.8-13.2-25.1 		c-10.6-3.3-21.8,2.6-25.1,13.2l-12,38.3C161.8,490.5,167.7,501.8,178.3,505.1z"/>
        <linearGradient id="XMLID_10_" gradientUnits="userSpaceOnUse" x1="261.0155" y1="-78.5369" x2="261.0155"
                        y2="1.7398" gradientTransform="matrix(0.9546 0.2978 -0.2978 0.9546 61.1308 4.1511)"> 		<stop
            offset="0" style="stop-color:#FDD900"/>
            <stop offset="1" style="stop-color:#E6A323"/> 	</linearGradient>
        <path id="XMLID_474_" class="st8"
              d="M309.8,83.6c10.6,3.3,21.8-2.6,25.1-13.2l12-38.3c3.3-10.6-2.6-21.8-13.2-25.1 		s-21.8,2.6-25.1,13.2l-12,38.3C293.3,69,299.2,80.2,309.8,83.6z"/>
        <path id="XMLID_470_" class="st9"
              d="M248.7,422.5c43.6,1.4,93.8-14.3,123.7-47.2c-31.8,16.3-73.6,35.4-121.5,33.9 		c-47.9-1.5-73.3-12.5-100-24.4C173.1,402.8,204.5,421.1,248.7,422.5z"/>
        <path id="XMLID_469_" class="st10"
              d="M263.3,86.3c-43.1-1.4-92.8,14.4-122.4,47.2c31.5-16.3,72.8-35.4,120.1-33.9 		c47.3,1.5,72.5,12.5,98.9,24.4C338,105.9,307,87.6,263.3,86.3z"/> </g>
</svg>
