<svg xmlns="http://www.w3.org/2000/svg" width="16" height="16" viewBox="0 0 16 16">
  <g fill="none" fill-rule="evenodd">
    <path fill="#9AA7B0" fill-opacity=".6" d="M12 1L12 1C13.6568542 1 15 2.34314575 15 4L15 12C15 13.6568542 13.6568542 15 12 15L12 1zM4 1L4 15 4 15C2.34314575 15 1 13.6568542 1 12L1 4C1 2.34314575 2.34314575 1 4 1z"/>
    <rect width="6" height="14" x="5" y="1" fill="#40B6E0" fill-opacity=".6" rx="3"/>
    <path fill="#231F20" fill-opacity=".7" d="M5,4.28253174 C4.53,4.74153174 4.028,4.978 3.1,5 C2.061,5.022 1,4.2794 1,3.0004 C1,1.7124 1.971,1 3.1,1 C3.94833171,1 4.54833171,1.18475342 4.9,1.55426025 L5.5162,0.836730957 C4.8293999,0.270175195 4.28826904,0.0004 3.0982,0.0004 C1.3402,0.0004 0.0002,1.3584 0.0002,3.0004 C0.0002,4.6824 1.3642,6.0004 3.0022,6.0004 C4.29284668,6.0004 5.0232,5.5934 5.6162,4.9814 C5.2054,4.51548783 5,4.28253174 5,4.28253174 Z" transform="translate(5 5)"/>
  </g>
</svg>
