<svg xmlns="http://www.w3.org/2000/svg" width="16" height="16" viewBox="0 0 16 16">
  <g fill="none" fill-rule="evenodd">
    <path fill="#9AA7B0" fill-opacity=".6" d="M4 12L4 15C2.34314575 15 1 13.6568542 1 12L1 4C1 2.34314575 2.34314575 1 4 1L4 5 5 5 5 12 4 12zM12 5L12 1C13.6568542 1 15 2.34314575 15 4L15 12C15 13.6568542 13.6568542 15 12 15L12 12 11 12 11 5 12 5z"/>
    <polygon fill="#F98B9E" fill-opacity=".6" points="5 1 11 1 11 15 5 15"/>
    <path fill="#231F20" fill-opacity=".7" d="M6.9922,2 C6.9912,1.251 6.63513184,0.0003 4.98162842,0.0003 C4.11224365,0.0003 3.6576,0.502 3.5986,0.6 C3.28363037,0.194116211 2.94411621,0.0003 2.1,0.0003 C1.63194173,0.0003 1.26527507,0.0999436667 1,0.299231 L1,0.0003 L0,0.0003 L0,5.0003 L1,5.0003 C0.966666667,3.1563 0.966666667,2.1562 1,2 C1.05,1.7657 1.05,1 2,1 C2.95,1 2.999,1.537 3,2 L3,5.0003 L4,5.0003 L4,2 C4,1.686 3.95911952,1 4.98162842,1 C6.00413731,1 6.00413731,1.73961181 6.00469971,2 C6.00469971,2.79041884 6.00469971,3.38323296 6.00469971,3.77844238 C6.00469971,4.0499663 6.00469971,4.45725217 6.00469971,5.0003 L6.9972,5.0003 L6.9922,2 Z" transform="translate(5 6)"/>
  </g>
</svg>
