<svg xmlns="http://www.w3.org/2000/svg" width="16" height="16" viewBox="0 0 16 16">
  <g fill="none" fill-rule="evenodd">
    <path fill="#62B543" fill-opacity=".6" d="M14.9824181,7.5 L8.5,7.5 L8.5,14.9824181 C8.33484925,14.9940735 8.16811674,15 8,15 C4.134,15 1,11.866 1,8 C1,4.134 4.134,1 8,1 C11.6978833,1 14.7260457,3.86735646 14.9824181,7.5 Z"/>
    <path fill="#231F20" fill-opacity=".7" d="M8.5,10.0459991 L8.5,10.9791113 C8.37163781,10.9927764 8.23956845,11 8.10388729,11 C6.28897017,11 5.0956,9.70718232 5.0956,8.01657459 L5.0956,8 C5.0956,6.37569061 6.33869392,5 8.08731271,5 C9.09836243,5 9.71990939,5.28176796 10.3165945,5.78729282 L9.67018564,6.55801105 C9.22267182,6.18508287 8.7834453,5.94475138 8.04587624,5.94475138 C6.97681547,5.94475138 6.16466077,6.87292818 6.16466077,7.98342541 L6.16466077,8 C6.16466077,9.19337017 6.95195359,10.0718232 8.13703646,10.0718232 C8.26092861,10.0718232 8.3822696,10.0628941 8.5,10.0459991 Z M8.5,8.55524862 L8.05416354,8.55524862 L8.05416354,7.66022099 L8.5,7.66022099 L8.5,8.55524862 Z"/>
    <path fill="#9AA7B0" d="M5.13584937,4.03749986 C6.65200638,5.09135773 7.28147997,5.64863567 7.28147997,6.02083333 L7.28147997,8.00416668 L6.57314664,8.00416668 L6.57314664,6.02083333 C6.57314664,6.08544658 6.55017014,6.04983301 6.49376445,5.99060704 C6.38856828,5.88015106 6.22245895,5.73342115 5.99773381,5.55364104 C5.66606387,5.28830509 5.21242976,4.95534626 4.63763469,4.55550092 C4.57935709,4.61802488 4.51457224,4.6732438 4.44450299,4.71981256 C4.62221335,4.84075653 4.80892878,4.99670184 4.95833333,5.17083334 C5.41488383,5.70294444 5.66666667,6.3991795 5.66666667,6.72916667 C5.66666667,7.70717091 4.87383758,8.0041668 3.89583333,8.0041668 C2.91782909,8.0041668 2.125,7.70717091 2.125,6.72916667 C2.125,6.47856293 2.39395942,5.72429241 2.83333333,5.17083334 C2.98088549,4.98496869 3.15726799,4.82668106 3.32860197,4.70718825 C3.24160535,4.64665291 3.16315226,4.57260381 3.09568087,4.48772295 C2.47438739,4.9178567 1.98814945,5.27345174 1.63791283,5.55364104 C1.41318769,5.73342115 1.24707835,5.88015106 1.14188218,5.99060704 C1.0854765,6.04983301 1.0625,6.08544658 1.0625,6.02083333 L1.0625,8.00416668 L0.354166667,8.00416668 L0.354166667,6.02083333 C0.354166667,5.64863567 0.98364026,5.09135773 2.49979727,4.03749986 L0.495833367,4.03749986 L0.495833367,3.32916653 L2.65637025,3.32916653 C2.25078935,3.18308507 1.8922229,2.97539258 1.57171594,2.70619612 C1.10834802,2.31700957 0.724530069,1.79927064 0.393202035,1.15330291 L1.02346463,0.83003031 C1.57787036,1.91091745 2.26081556,2.53781436 3.2676346,2.77168476 L3.26638145,2.77707961 C3.29085507,2.75725179 3.31612957,2.73855072 3.34214171,2.72104599 C2.83488241,2.50544954 2.47916667,2.00259903 2.47916667,1.41666667 C2.47916667,0.634263271 3.11342994,4.6629367e-15 3.89583333,4.6629367e-15 C4.67823673,4.6629367e-15 5.3125,0.634263271 5.3125,1.41666667 C5.3125,2.00259903 4.95678425,2.50544954 4.44952495,2.72104599 C4.45272489,2.72319937 4.45591366,2.72537085 4.45909116,2.72756031 C5.37376147,2.46441995 6.01059315,1.84893176 6.53320534,0.83003031 L7.16346794,1.15330291 C6.60296361,2.24608007 5.89224284,2.9718901 4.90029973,3.32916653 L7.29583364,3.32916653 L7.29583364,4.03749986 L5.13584937,4.03749986 Z" transform="translate(8.7 8)"/>
  </g>
</svg>
