<svg id="Layer_1" data-name="Layer 1" xmlns="http://www.w3.org/2000/svg" viewBox="0 0 64 64">
  <title>groovy_32x32@2x</title>
  <g>
    <g id="_Group_" data-name="&lt;Group&gt;" opacity="0.5">
      <circle cx="32" cy="32" r="28" fill="#62b543"/>
    </g>
    <path d="M33.74168,48C23.29572,48,16,41.46184,16,32.09458,16,23.0275,23.77278,16,33.69233,16c6.0784,0,9.55764,1.47212,12.6503,3.742l-3.77124,4.19018a14.16551,14.16551,0,0,0-9.12993-3.01,11.00327,11.00327,0,0,0-10.997,10.9833c0,6.56695,4.857,11.267,11.55224,11.267a14.05968,14.05968,0,0,0,7.78923-2.093,0.84652,0.84652,0,0,0,.37836-0.70316V35.72141a0.84418,0.84418,0,0,0-.84308-0.843H34.33389V30.37985H48V43.26292A23.14265,23.14265,0,0,1,33.74168,48Z" fill="#231f20" opacity="0.6"/>
  </g>
</svg>
