<svg id="Layer_1" data-name="Layer 1" xmlns="http://www.w3.org/2000/svg" viewBox="0 0 16 16">
  <title>groovy_16x16</title>
  <g>
    <g id="_Group_" data-name="&lt;Group&gt;" opacity="0.5">
      <circle cx="8" cy="8" r="7" fill="#62b543"/>
    </g>
    <path d="M8.43542,12C5.82393,12,4,10.36546,4,8.02364A4.18584,4.18584,0,0,1,8.42308,4a4.86643,4.86643,0,0,1,3.16258.93549L10.64285,5.983a3.54138,3.54138,0,0,0-2.28248-.75251,2.7824,2.7824,0,1,0,.1388,5.56258,3.51492,3.51492,0,0,0,1.94731-.52326,0.21163,0.21163,0,0,0,.09459-0.17579V8.93035a0.211,0.211,0,0,0-.21077-0.21074H8.58347V7.595H12v3.22077A5.78566,5.78566,0,0,1,8.43542,12Z" fill="#231f20" opacity="0.6"/>
  </g>
</svg>
