<svg id="Layer_1" data-name="Layer 1" xmlns="http://www.w3.org/2000/svg" viewBox="0 0 13 13">
  <title>groovy_13x13</title>
  <g>
    <g id="_Group_" data-name="&lt;Group&gt;" opacity="0.5">
      <circle cx="6.5" cy="6.5" r="6.5" fill="#62b543"/>
    </g>
    <path d="M6.90432,10.21429c-2.425,0-4.1186-1.51779-4.1186-3.69233A3.88685,3.88685,0,0,1,6.89286,2.78571a4.51883,4.51883,0,0,1,2.93668.86867l-0.87547.97272a3.28842,3.28842,0,0,0-2.11945-.69876A2.58365,2.58365,0,1,0,6.96351,9.0936a3.26385,3.26385,0,0,0,1.80821-.48588,0.19651,0.19651,0,0,0,.08783-0.16323V7.3639a0.196,0.196,0,0,0-.19571-0.19569H7.0418V6.12389h3.17249V9.11461A5.3724,5.3724,0,0,1,6.90432,10.21429Z" fill="#231f20" opacity="0.6"/>
  </g>
</svg>
