<svg id="Layer_1" data-name="Layer 1" xmlns="http://www.w3.org/2000/svg" viewBox="0 0 26 26">
  <title>groovy_13x13@2x</title>
  <g>
    <g id="_Group_" data-name="&lt;Group&gt;" opacity="0.5">
      <circle cx="13" cy="13" r="13" fill="#62b543"/>
    </g>
    <path d="M13.80864,20.42857c-4.84991,0-8.23721-3.03558-8.23721-7.38466,0-4.20972,3.60879-7.47248,8.21429-7.47248a9.03766,9.03766,0,0,1,5.87335,1.73734L17.90815,9.25421a6.57684,6.57684,0,0,0-4.2389-1.39751A5.16731,5.16731,0,1,0,13.927,18.18721a6.52771,6.52771,0,0,0,3.61643-.97177,0.393,0.393,0,0,0,.17567-0.32647V14.7278a0.39194,0.39194,0,0,0-.39143-0.39138H14.08359V12.24779h6.345v5.98142A10.7448,10.7448,0,0,1,13.80864,20.42857Z" fill="#231f20" opacity="0.6"/>
  </g>
</svg>
