<svg id="Layer_1" data-name="Layer 1" xmlns="http://www.w3.org/2000/svg" viewBox="0 0 32 32">
  <title>groovy_16x16@2x</title>
  <g>
    <g id="_Group_" data-name="&lt;Group&gt;" opacity="0.5">
      <circle cx="16" cy="16" r="14" fill="#62b543"/>
    </g>
    <path d="M16.87084,24C11.64786,24,8,20.73092,8,16.04729,8,11.51375,11.88639,8,16.84616,8a9.73286,9.73286,0,0,1,6.32515,1.871L21.2857,11.96608a7.08275,7.08275,0,0,0-4.565-1.505,5.56479,5.56479,0,1,0,.2776,11.12516,7.02984,7.02984,0,0,0,3.89462-1.04652,0.42326,0.42326,0,0,0,.18918-0.35158V17.8607a0.42209,0.42209,0,0,0-.42154-0.42149H17.16695V15.18993H24v6.44153A11.57133,11.57133,0,0,1,16.87084,24Z" fill="#231f20" opacity="0.6"/>
  </g>
</svg>
