<svg xmlns="http://www.w3.org/2000/svg" width="16" height="16" viewBox="0 0 16 16">
  <g fill="none" fill-rule="evenodd">
    <path fill="#62B543" fill-opacity=".6" d="M15,8 L9,8 L9,14.9291115 C8.67339709,14.9758282 8.33952142,15 8,15 C4.134,15 1,11.866 1,8 C1,4.134 4.134,1 8,1 C11.866,1 15,4.134 15,8 Z"/>
    <path fill="#231F20" fill-opacity=".7" d="M9,9.92013074 L9,10.8903132 C8.72209948,10.9600467 8.4229817,11 8.10388729,11 C6.28897017,11 5.0956,9.70718232 5.0956,8.01657459 L5.0956,8 C5.0956,6.37569061 6.33869392,5 8.08731271,5 C9.09836243,5 9.71990939,5.28176796 10.3165945,5.78729282 L9.67018564,6.55801105 C9.22267182,6.18508287 8.7834453,5.94475138 8.04587624,5.94475138 C6.97681547,5.94475138 6.16466077,6.87292818 6.16466077,7.98342541 L6.16466077,8 C6.16466077,9.19337017 6.95195359,10.0718232 8.13703646,10.0718232 C8.44604005,10.0718232 8.73917361,10.0162781 9,9.92013074 Z M9,8.55524862 L8.05416354,8.55524862 L8.05416354,7.66022099 L10.5237768,7.66022099 L10.5237768,8 L9,8 L9,8.55524862 Z"/>
    <path fill="#9AA7B0" d="M11,15 L15,15 L15,10 L11,10 L11,15 Z M10,16 L16,16 L16,9 L10,9 L10,16 Z"/>
    <polygon fill="#9AA7B0" points="12 12 14 12 14 11 12 11"/>
    <polygon fill="#9AA7B0" points="12 14 14 14 14 13 12 13"/>
  </g>
</svg>
