<svg xmlns="http://www.w3.org/2000/svg" width="16" height="16" viewBox="0 0 16 16">
  <g fill="none" fill-rule="evenodd">
    <rect width="14" height="14" x="1" y="1" fill="#F98B9E" fill-opacity=".6" rx="3"/>
    <path fill="#231F20" fill-opacity=".7" d="M8,2 C7.999,1.15 7.49847412,0.0003 5.881628,0.0003 C5.0919717,0.0003 4.46476237,0.201595671 4,0.604187012 C3.66666667,0.201595671 3.13333333,0.0003 2.4,0.0003 C1.93194173,0.0003 1.46527507,0.133277 1,0.399231 L1,0.0003 L0,0.0003 L0,5.0003 L1,5.0003 C1,3.0001 1,2 1,2 C1,1.64 1.25,1 2.2,1 C3.15,1 3.499,1.537 3.5,2 L3.5,5.0003 L4.5,5.0003 L4.5,2 C4.5,1.64 4.8,1 5.75,1 C6.7,1 7.00413731,1.54 7.00469971,2 L7.00469971,5.0003 L7.9972,5.0003 L8,2 Z" transform="translate(4 6)"/>
  </g>
</svg>
