<!-- Copyright 2000-2023 JetBrains s.r.o. and contributors. Use of this source code is governed by the Apache 2.0 license. -->
<svg width="20" height="20" viewBox="0 0 20 20" fill="none" xmlns="http://www.w3.org/2000/svg">
<path fill-rule="evenodd" clip-rule="evenodd" d="M7.5 4.5C7.5 5.60457 6.60457 6.5 5.5 6.5C4.39543 6.5 3.5 5.60457 3.5 4.5C3.5 3.39543 4.39543 2.5 5.5 2.5C6.60457 2.5 7.5 3.39543 7.5 4.5ZM9 4.5C9 6.17556 7.82259 7.57612 6.25 7.91946L6.25 13.25H9.5C10.2092 13.25 10.7035 13.2496 11.0904 13.2232C11.4706 13.1973 11.692 13.1487 11.861 13.0787C12.4124 12.8504 12.8504 12.4124 13.0787 11.861C13.1487 11.692 13.1973 11.4706 13.2232 11.0904C13.244 10.7848 13.2487 10.4121 13.2497 9.91939C11.6773 9.57594 10.5 8.17546 10.5 6.5C10.5 4.567 12.067 3 14 3C15.933 3 17.5 4.567 17.5 6.5C17.5 8.17565 16.3225 9.57626 14.7498 9.91951C14.7488 10.4185 14.7439 10.8379 14.7197 11.1925C14.6886 11.6491 14.6229 12.0528 14.4645 12.4351C14.0839 13.3539 13.3539 14.0839 12.4351 14.4645C12.0528 14.6229 11.6491 14.6886 11.1925 14.7197C10.7485 14.75 10.203 14.75 9.52664 14.75H9.5H6.25V18C6.25 18.4142 5.91421 18.75 5.5 18.75C5.08579 18.75 4.75 18.4142 4.75 18L4.75 7.91946C3.17741 7.57612 2 6.17556 2 4.5C2 2.567 3.567 1 5.5 1C7.433 1 9 2.567 9 4.5ZM16 6.5C16 7.60457 15.1046 8.5 14 8.5C12.8954 8.5 12 7.60457 12 6.5C12 5.39543 12.8954 4.5 14 4.5C15.1046 4.5 16 5.39543 16 6.5Z" fill="#3574F0"/>
</svg>
