<!-- Copyright 2000-2023 JetBrains s.r.o. and contributors. Use of this source code is governed by the Apache 2.0 license. -->
<svg width="16" height="16" viewBox="0 0 16 16" fill="none" xmlns="http://www.w3.org/2000/svg">
<path fill-rule="evenodd" clip-rule="evenodd" d="M7.99951 7C9.65637 7 10.9995 5.65685 10.9995 4C10.9995 2.34315 9.65637 1 7.99951 1C6.34266 1 4.99951 2.34315 4.99951 4C4.99951 5.65685 6.34266 7 7.99951 7ZM7.99951 6C9.10408 6 9.99951 5.10457 9.99951 4C9.99951 2.89543 9.10408 2 7.99951 2C6.89494 2 5.99951 2.89543 5.99951 4C5.99951 5.10457 6.89494 6 7.99951 6Z" fill="#CED0D6"/>
<path d="M2.10272 13.008C2.39906 11.3034 3.54766 8 7.99969 8C9.23765 8 10.2202 8.25542 11 8.66087V9.82872C10.3142 9.34481 9.3588 9 7.99969 9C6.05804 9 4.94028 9.70375 4.25563 10.5114C3.59131 11.2951 3.27126 12.2552 3.12154 13H8V14H2.99969C2.4474 14 2.00813 13.5521 2.10272 13.008Z" fill="#CED0D6"/>
<path fill-rule="evenodd" clip-rule="evenodd" d="M12.5 9C12.7761 9 13 9.22386 13 9.5V12H15.5C15.7761 12 16 12.2239 16 12.5C16 12.7761 15.7761 13 15.5 13H13V15.5C13 15.7761 12.7761 16 12.5 16C12.2239 16 12 15.7761 12 15.5V13H9.5C9.22386 13 9 12.7761 9 12.5C9 12.2239 9.22386 12 9.5 12H12V9.5C12 9.22386 12.2239 9 12.5 9Z" fill="#CED0D6"/>
</svg>
