<!-- Copyright 2000-2023 JetBrains s.r.o. and contributors. Use of this source code is governed by the Apache 2.0 license. -->
<svg width="16" height="16" viewBox="0 0 16 16" fill="none" xmlns="http://www.w3.org/2000/svg">
<path d="M11.4143 11.4142L4.00011 4C2.89554 4 2 4.89543 2 6V10C2 11.1046 2.89543 12 4 12H10C10.5523 12 11.0523 11.7761 11.4143 11.4142Z" fill="#402929"/>
<path d="M13.4 10.7999C14.0592 11.2943 15 10.8239 15 9.99986V5.99986C15 5.17582 14.0592 4.70544 13.4 5.19986L12 6.24986V6C12 4.89543 11.1046 4 10 4H6.12143L11.4857 9.3643L13.4 10.7999Z" fill="#402929"/>
<path fill-rule="evenodd" clip-rule="evenodd" d="M2.85355 2.14645C2.65829 1.95118 2.34171 1.95118 2.14645 2.14645C1.95118 2.34171 1.95118 2.65829 2.14645 2.85355L3.3882 4.09531C2.58288 4.35378 2 5.10882 2 6V10C2 11.1046 2.89543 12 4 12H10C10.3709 12 10.7182 11.899 11.016 11.7231L13.1464 13.8536C13.3417 14.0488 13.6583 14.0488 13.8536 13.8536C14.0488 13.6583 14.0488 13.3417 13.8536 13.1464L2.85355 2.14645ZM10.259 10.9661L4.29289 5H4C3.44772 5 3 5.44772 3 6V10C3 10.5523 3.44772 11 4 11H10C10.0896 11 10.1764 10.9882 10.259 10.9661Z" fill="#DB5C5C"/>
<path fill-rule="evenodd" clip-rule="evenodd" d="M15 9.99986C15 10.8239 14.0592 11.2943 13.4 10.7999L11.4857 9.3643L11 8.87857V6C11 5.44772 10.5523 5 10 5H7.12143L6.12143 4H10C11.1046 4 12 4.89543 12 6V6.24986L13.4 5.19986C14.0592 4.70544 15 5.17582 15 5.99986V9.99986ZM14 9.99986L12 8.49986V7.49986L14 5.99986V9.99986Z" fill="#DB5C5C"/>
</svg>
