<!-- Copyright 2000-2023 JetBrains s.r.o. and contributors. Use of this source code is governed by the Apache 2.0 license. -->
<svg width="11" height="11" viewBox="0 0 11 11" fill="none" xmlns="http://www.w3.org/2000/svg">
<circle cx="5.5" cy="5.5" r="5.5" fill="#2B2D30"/>
<path fill-rule="evenodd" clip-rule="evenodd" d="M7 7.00022C6.99988 7.5524 6.55221 8 6 8H3C2.44772 8 2 7.55228 2 7V4C2 3.44772 2.44772 3 3 3H6C6.55228 3 7 3.44772 7 4L8.27639 3.36203C8.60884 3.1958 9 3.43755 9 3.80924V7.1912C9 7.5629 8.60884 7.80464 8.27639 7.63842L7 7.00022ZM3 4H6V7H3L3 4ZM7 5.88219L8 6.38219V4.61826L7 5.11826V5.88219Z" fill="#CED0D6"/>
</svg>
