<!-- Copyright 2000-2023 JetBrains s.r.o. and contributors. Use of this source code is governed by the Apache 2.0 license. -->
<svg width="16" height="16" viewBox="0 0 16 16" fill="none" xmlns="http://www.w3.org/2000/svg">
<path fill-rule="evenodd" clip-rule="evenodd" d="M12 9.74986V10C12 11.1046 11.1046 12 10 12H4C2.89543 12 2 11.1046 2 10V6C2 4.89543 2.89543 4 4 4H10C11.1046 4 12 4.89543 12 6V6.24986L13.4 5.19986C14.0592 4.70544 15 5.17582 15 5.99986V9.99986C15 10.8239 14.0592 11.2943 13.4 10.7999L12 9.74986ZM3 10V6C3 5.44772 3.44772 5 4 5H10C10.5523 5 11 5.44772 11 6V10C11 10.5523 10.5523 11 10 11H4C3.44772 11 3 10.5523 3 10ZM12 8.49986L14 9.99986V5.99986L12 7.49986V8.49986Z" fill="#6C707E"/>
<path d="M3 6V10C3 10.5523 3.44772 11 4 11H10C10.5523 11 11 10.5523 11 10V6C11 5.44772 10.5523 5 10 5H4C3.44772 5 3 5.44772 3 6Z" fill="#EBECF0"/>
<path d="M14 9.99986L12 8.49986V7.49986L14 5.99986V9.99986Z" fill="#EBECF0"/>
</svg>
