<!-- Copyright 2000-2023 JetBrains s.r.o. and contributors. Use of this source code is governed by the Apache 2.0 license. -->
<svg width="16" height="16" viewBox="0 0 16 16" fill="none" xmlns="http://www.w3.org/2000/svg">
<path d="M13.4997 10.7357V12.3917C13.5022 13.0247 12.933 13.5533 12.2939 13.4957C6.77779 13.5 2.5 9.18249 2.50432 3.70339C2.44676 3.06769 2.97274 2.50065 3.60496 2.50005H5.26421C5.53263 2.49742 5.79285 2.59228 5.99637 2.76696C6.57498 3.26358 6.94715 4.94919 6.80395 5.61928C6.69216 6.14244 6.16478 6.50846 5.80624 6.86629C6.59359 8.24822 7.74008 9.39244 9.12475 10.1782C9.4833 9.8204 9.85004 9.29407 10.3742 9.18249C11.0467 9.03936 12.7432 9.41206 13.2378 9.99469C13.4132 10.2013 13.5064 10.465 13.4997 10.7357Z" stroke="#CED0D6" stroke-linecap="round" stroke-linejoin="round"/>
</svg>
