<!-- Copyright 2000-2023 JetBrains s.r.o. and contributors. Use of this source code is governed by the Apache 2.0 license. -->
<svg width="16" height="16" viewBox="0 0 16 16" fill="none" xmlns="http://www.w3.org/2000/svg">
<path d="M11.7072 9.58566C11.5119 9.3904 11.5119 9.07382 11.7072 8.87855L13.0507 7.53504C14.317 6.26871 14.317 4.21559 13.0507 2.94926C11.7843 1.68293 9.73121 1.68293 8.46489 2.94926L7.12138 4.29277C6.92612 4.48803 6.60953 4.48803 6.41427 4.29277C6.21901 4.0975 6.21901 3.78092 6.41427 3.58566L7.75778 2.24215C9.41463 0.585298 12.1009 0.585299 13.7578 2.24215C15.4146 3.89901 15.4146 6.5853 13.7578 8.24215L12.4143 9.58566C12.219 9.78092 11.9024 9.78092 11.7072 9.58566Z" fill="#CED0D6"/>
<path d="M10.6464 4.64639C10.8417 4.45112 11.1583 4.45112 11.3536 4.64639C11.5488 4.84165 11.5488 5.15823 11.3536 5.35349L5.35355 11.3535C5.15829 11.5488 4.84171 11.5488 4.64645 11.3535C4.45118 11.1582 4.45118 10.8416 4.64645 10.6464L10.6464 4.64639Z" fill="#CED0D6"/>
<path d="M4.29289 6.41415C4.48815 6.60941 4.48815 6.92599 4.29289 7.12125L2.95316 8.46098C1.68684 9.72731 1.68684 11.7804 2.95317 13.0468C4.2195 14.3131 6.27262 14.3131 7.53895 13.0468L8.87871 11.707C9.07396 11.5118 9.39051 11.5117 9.58578 11.707C9.78107 11.9022 9.78109 12.2188 9.58581 12.4141L8.24606 13.7539C6.5892 15.4107 3.90291 15.4107 2.24606 13.7539C0.589205 12.097 0.589204 9.41073 2.24606 7.75387L3.58578 6.41415C3.78104 6.21889 4.09763 6.21889 4.29289 6.41415Z" fill="#CED0D6"/>
</svg>
