<!-- Copyright 2000-2023 JetBrains s.r.o. and contributors. Use of this source code is governed by the Apache 2.0 license. -->
<svg width="15" height="15" viewBox="0 0 15 15" fill="none" xmlns="http://www.w3.org/2000/svg">
<path d="M6.5 10.5C6.5 11.6046 5.60457 12.5 4.5 12.5C3.39543 12.5 2.5 11.6046 2.5 10.5C2.5 9.39543 3.39543 8.5 4.5 8.5C5.60457 8.5 6.5 9.39543 6.5 10.5ZM4.5 14.5C6.36405 14.5 7.92964 13.2254 8.37387 11.5H9.5V12.5C9.5 13.0523 9.94772 13.5 10.5 13.5C11.0523 13.5 11.5 13.0523 11.5 12.5V11.5C12.0523 11.5 12.5 11.0523 12.5 10.5C12.5 9.94772 12.0523 9.5 11.5 9.5H8.37387C7.92964 7.77465 6.36405 6.5 4.5 6.5C2.29086 6.5 0.5 8.29086 0.5 10.5C0.5 12.7091 2.29086 14.5 4.5 14.5Z" fill="#6C707E" stroke="white" stroke-linecap="round"/>
</svg>
