<!-- Copyright 2000-2023 JetBrains s.r.o. and contributors. Use of this source code is governed by the Apache 2.0 license. -->
<svg width="22" height="22" viewBox="0 0 22 22" fill="none" xmlns="http://www.w3.org/2000/svg">
<path d="M7.75 16C7.75 16.9665 6.9665 17.75 6 17.75C5.0335 17.75 4.25 16.9665 4.25 16C4.25 15.0335 5.0335 14.25 6 14.25C6.9665 14.25 7.75 15.0335 7.75 16ZM6 20.75C8.09967 20.75 9.87997 19.3883 10.5081 17.5H11.5039V18.25C11.5039 19.0784 12.1755 19.75 13.0039 19.75C13.8323 19.75 14.5039 19.0784 14.5039 18.25V17.4786C15.2114 17.358 15.75 16.7419 15.75 16C15.75 15.1716 15.0784 14.5 14.25 14.5H10.5081C9.87997 12.6117 8.09967 11.25 6 11.25C3.37665 11.25 1.25 13.3766 1.25 16C1.25 18.6234 3.37665 20.75 6 20.75Z" fill="#6C707E" stroke="white" stroke-width="1.5" stroke-linecap="round"/>
</svg>
