<!-- Copyright 2000-2023 JetBrains s.r.o. and contributors. Use of this source code is governed by the Apache 2.0 license. -->
<svg width="16" height="16" viewBox="0 0 16 16" fill="none" xmlns="http://www.w3.org/2000/svg">
<path fill-rule="evenodd" clip-rule="evenodd" d="M6.96473 12.9988C6.72264 14.6955 5.26366 16 3.5 16C1.567 16 0 14.433 0 12.5C0 10.567 1.567 9 3.5 9C5.26366 9 6.72264 10.3045 6.96473 12.0012C6.97638 12.0004 6.98814 12 7 12H10.5C10.7761 12 11 12.2239 11 12.5C11 12.7761 10.7761 13 10.5 13H10V14.5C10 14.7761 9.77614 15 9.5 15C9.22386 15 9 14.7761 9 14.5V13H7C6.98814 13 6.97638 12.9996 6.96473 12.9988ZM6 12.5C6 13.8807 4.88071 15 3.5 15C2.11929 15 1 13.8807 1 12.5C1 11.1193 2.11929 10 3.5 10C4.88071 10 6 11.1193 6 12.5Z" fill="#6C707E"/>
</svg>
