<!-- Copyright 2000-2023 JetBrains s.r.o. and contributors. Use of this source code is governed by the Apache 2.0 license. -->
<svg width="17" height="17" viewBox="0 0 17 17" fill="none" xmlns="http://www.w3.org/2000/svg">
<path d="M6.5 12.5C6.5 13.6046 5.60457 14.5 4.5 14.5C3.39543 14.5 2.5 13.6046 2.5 12.5C2.5 11.3954 3.39543 10.5 4.5 10.5C5.60457 10.5 6.5 11.3954 6.5 12.5ZM4.5 16.5C6.36405 16.5 7.92964 15.2254 8.37387 13.5H9.5V14.5C9.5 15.0523 9.94772 15.5 10.5 15.5C11.0523 15.5 11.5 15.0523 11.5 14.5V13.5C12.0523 13.5 12.5 13.0523 12.5 12.5C12.5 11.9477 12.0523 11.5 11.5 11.5H8.37387C7.92964 9.77465 6.36405 8.5 4.5 8.5C2.29086 8.5 0.5 10.2909 0.5 12.5C0.5 14.7091 2.29086 16.5 4.5 16.5Z" fill="#CED0D6" stroke="#27282E" stroke-linecap="round"/>
</svg>
