<!-- Copyright 2000-2023 JetBrains s.r.o. and contributors. Use of this source code is governed by the Apache 2.0 license. -->
<svg width="16" height="16" viewBox="0 0 16 16" fill="none" xmlns="http://www.w3.org/2000/svg">
<path fill-rule="evenodd" clip-rule="evenodd" d="M5 4C5 2.34315 6.34315 1 8 1C9.65685 1 11 2.34315 11 4V8C11 9.65685 9.65685 11 8 11C6.34315 11 5 9.65685 5 8V4ZM10 4V8C10 9.10457 9.10457 10 8 10C6.89543 10 6 9.10457 6 8V4C6 2.89543 6.89543 2 8 2C9.10457 2 10 2.89543 10 4Z" fill="#6C707E"/>
<path fill-rule="evenodd" clip-rule="evenodd" d="M4 8C4 7.72386 3.77614 7.5 3.5 7.5C3.22386 7.5 3 7.72386 3 8C3 10.051 4.23466 11.8125 6 12.5838V13.5C6 14.3284 6.67157 15 7.5 15H8.5C9.32843 15 10 14.3284 10 13.5V12.5838C11.7653 11.8125 13 10.051 13 8C13 7.72386 12.7761 7.5 12.5 7.5C12.2239 7.5 12 7.72386 12 8C12 9.74084 10.8876 11.2232 9.33338 11.7725C8.91698 11.9197 8.46841 12 8 12C7.53159 12 7.08302 11.9197 6.66662 11.7725C5.11236 11.2232 4 9.74084 4 8ZM7 13.5V12.8999C7.32339 12.9656 7.65786 13 8 13C8.34214 13 8.67661 12.9656 9 12.8999V13.5C9 13.7761 8.77614 14 8.5 14H7.5C7.22386 14 7 13.7761 7 13.5Z" fill="#6C707E"/>
<path d="M10 8V4C10 2.89543 9.10457 2 8 2C6.89543 2 6 2.89543 6 4V8C6 9.10457 6.89543 10 8 10C9.10457 10 10 9.10457 10 8Z" fill="#EBECF0"/>
<path d="M7 12.8999V13.5C7 13.7761 7.22386 14 7.5 14H8.5C8.77614 14 9 13.7761 9 13.5V12.8999C8.67661 12.9656 8.34214 13 8 13C7.65786 13 7.32339 12.9656 7 12.8999Z" fill="#EBECF0"/>
</svg>
