<!-- Copyright 2000-2023 JetBrains s.r.o. and contributors. Use of this source code is governed by the Apache 2.0 license. -->
<svg width="16" height="16" viewBox="0 0 16 16" fill="none" xmlns="http://www.w3.org/2000/svg">
<path d="M10.8984 8.77698C10.9647 8.52916 11 8.26871 11 8V4C11 2.34315 9.65685 1 8 1C6.68014 1 5.55936 1.85233 5.15804 3.0366L6.00342 3.88199C6.0645 2.83235 6.93505 2 8 2C9.10457 2 10 2.89543 10 4V7.87857L10.8984 8.77698Z" fill="#DB3B4B"/>
<path fill-rule="evenodd" clip-rule="evenodd" d="M9.73827 10.4454C9.24786 10.7946 8.64791 11 8 11C6.34315 11 5 9.65685 5 8V5.70711L2.14645 2.85355C1.95118 2.65829 1.95118 2.34171 2.14645 2.14645C2.34171 1.95118 2.65829 1.95118 2.85355 2.14645L13.8536 13.1464C14.0488 13.3417 14.0488 13.6583 13.8536 13.8536C13.6583 14.0488 13.3417 14.0488 13.1464 13.8536L11.1643 11.8714C10.8128 12.159 10.4216 12.3996 10 12.5838V13.5C10 14.3284 9.32843 15 8.5 15H7.5C6.67157 15 6 14.3284 6 13.5V12.5838C4.23466 11.8125 3 10.051 3 8C3 7.72386 3.22386 7.5 3.5 7.5C3.77614 7.5 4 7.72386 4 8C4 9.74084 5.11236 11.2232 6.66662 11.7725C7.08302 11.9197 7.53159 12 8 12C8.46841 12 8.91698 11.9197 9.33338 11.7725C9.74097 11.6285 10.1182 11.4202 10.4529 11.16L9.73827 10.4454ZM9.01598 9.72309C8.71823 9.89903 8.3709 10 8 10C6.89543 10 6 9.10457 6 8V6.70711L9.01598 9.72309ZM7 13.5V12.8999C7.32339 12.9656 7.65786 13 8 13C8.34214 13 8.67661 12.9656 9 12.8999V13.5C9 13.7761 8.77614 14 8.5 14H7.5C7.22386 14 7 13.7761 7 13.5Z" fill="#DB3B4B"/>
<path d="M12.4341 10.3127C12.7956 9.62121 13 8.83457 13 8C13 7.72386 12.7761 7.5 12.5 7.5C12.2239 7.5 12 7.72386 12 8C12 8.55413 11.8873 9.08207 11.6835 9.56207L12.4341 10.3127Z" fill="#DB3B4B"/>
<path d="M6.00342 3.88199L10 7.87857V4C10 2.89543 9.10457 2 8 2C6.93505 2 6.0645 2.83235 6.00342 3.88199Z" fill="#FFF7F7"/>
<path d="M9.01598 9.72309C8.71823 9.89903 8.3709 10 8 10C6.89543 10 6 9.10457 6 8V6.70711L9.01598 9.72309Z" fill="#FFF7F7"/>
<path d="M7 13.5V12.8999C7.32339 12.9656 7.65786 13 8 13C8.34214 13 8.67661 12.9656 9 12.8999V13.5C9 13.7761 8.77614 14 8.5 14H7.5C7.22386 14 7 13.7761 7 13.5Z" fill="#FFF7F7"/>
</svg>
