<!-- Copyright 2000-2023 JetBrains s.r.o. and contributors. Use of this source code is governed by the Apache 2.0 license. -->
<svg width="16" height="16" viewBox="0 0 16 16" fill="none" xmlns="http://www.w3.org/2000/svg">
<g clip-path="url(#clip0_12114_11550)">
<path fill-rule="evenodd" clip-rule="evenodd" d="M8.96905 8C8.723 9.97316 7.03981 11.5 5 11.5C2.79086 11.5 1 9.70914 1 7.5C1 5.29086 2.79086 3.5 5 3.5C7.03981 3.5 8.723 5.02684 8.96905 7L14.5 7C14.7761 7 15 7.22386 15 7.5C15 7.77614 14.7761 8 14.5 8L14 8L14 10.5C14 10.7761 13.7761 11 13.5 11C13.2239 11 13 10.7761 13 10.5L13 8L12 8L12 10.5C12 10.7761 11.7761 11 11.5 11C11.2239 11 11 10.7761 11 10.5L11 8L8.96905 8ZM5 10.5C6.65685 10.5 8 9.15685 8 7.5C8 5.84315 6.65685 4.5 5 4.5C3.34315 4.5 2 5.84315 2 7.5C2 9.15685 3.34315 10.5 5 10.5Z" fill="#6C707E"/>
<path fill-rule="evenodd" clip-rule="evenodd" d="M15.827 11.1757C16.0613 11.4101 16.0613 11.7899 15.827 12.0243L12.0301 15.8211C11.7958 16.0555 11.4159 16.0555 11.1816 15.8211L9.17574 13.8153C8.94142 13.581 8.94142 13.2011 9.17574 12.9668C9.41005 12.7324 9.78995 12.7324 10.0243 12.9668L11.6059 14.5483L14.9785 11.1757C15.2128 10.9414 15.5927 10.9414 15.827 11.1757Z" fill="#369650"/>
</g>
<defs>
<clipPath id="clip0_12114_11550">
<rect width="16" height="16" fill="white"/>
</clipPath>
</defs>
</svg>
