<!-- Copyright 2000-2023 JetBrains s.r.o. and contributors. Use of this source code is governed by the Apache 2.0 license. -->
<svg width="16" height="16" viewBox="0 0 16 16" fill="none" xmlns="http://www.w3.org/2000/svg">
<path fill-rule="evenodd" clip-rule="evenodd" d="M10.1464 10.1464C10.3417 9.95118 10.6583 9.95118 10.8536 10.1464L13 12.2929L15.1464 10.1464C15.3417 9.95118 15.6583 9.95118 15.8536 10.1464C16.0488 10.3417 16.0488 10.6583 15.8536 10.8536L13.7071 13L15.8536 15.1464C16.0488 15.3417 16.0488 15.6583 15.8536 15.8536C15.6583 16.0488 15.3417 16.0488 15.1464 15.8536L13 13.7071L10.8536 15.8536C10.6583 16.0488 10.3417 16.0488 10.1464 15.8536C9.95118 15.6583 9.95118 15.3417 10.1464 15.1464L12.2929 13L10.1464 10.8536C9.95118 10.6583 9.95118 10.3417 10.1464 10.1464Z" fill="#DB3B4B"/>
<path fill-rule="evenodd" clip-rule="evenodd" d="M5 11.5C7.03981 11.5 8.723 9.97316 8.96905 8H11V9.08542C11.2047 9.15762 11.3969 9.27559 11.5607 9.43934L12 9.87868V8H13V10.5C13 10.6071 13.0337 10.7063 13.091 10.7877L14 9.87868V8H14.5C14.7761 8 15 7.77614 15 7.5C15 7.22386 14.7761 7 14.5 7L8.96905 7C8.723 5.02684 7.03981 3.5 5 3.5C2.79086 3.5 1 5.29086 1 7.5C1 9.70914 2.79086 11.5 5 11.5ZM8 7.5C8 9.15685 6.65685 10.5 5 10.5C3.34315 10.5 2 9.15685 2 7.5C2 5.84315 3.34315 4.5 5 4.5C6.65685 4.5 8 5.84315 8 7.5Z" fill="#6C707E"/>
</svg>
