<!-- Copyright 2000-2023 JetBrains s.r.o. and contributors. Use of this source code is governed by the Apache 2.0 license. -->
<svg width="16" height="16" viewBox="0 0 16 16" fill="none" xmlns="http://www.w3.org/2000/svg">
<path d="M8 2.5C4.5 2.5 1 5 0 8C1 11 4.5 13.5 8 13.5C11.5 13.5 15 11 16 8C15 5 11.5 2.5 8 2.5Z" fill="#F2FCF3"/>
<path d="M3.34803 11.4645C2.03281 10.5496 1.01443 9.31863 0.529751 8C1.01443 6.68137 2.03281 5.45039 3.34803 4.53545C4.71396 3.58524 6.36604 3 8 3C9.63396 3 11.286 3.58524 12.652 4.53545C13.9672 5.45039 14.9856 6.68137 15.4702 8C14.9856 9.31863 13.9672 10.5496 12.652 11.4645C11.286 12.4148 9.63396 13 8 13C6.36604 13 4.71396 12.4148 3.34803 11.4645Z" stroke="#208A3C"/>
<circle cx="8" cy="8" r="2.5" stroke="#208A3C"/>
</svg>
