<!-- Copyright 2000-2024 JetBrains s.r.o. and contributors. Use of this source code is governed by the Apache 2.0 license. -->
<svg width="16" height="16" viewBox="0 0 16 16" fill="none" xmlns="http://www.w3.org/2000/svg">
<path d="M14 3.5C14 4.32843 13.3284 5 12.5 5C11.6716 5 11 4.32843 11 3.5C11 2.67157 11.6716 2 12.5 2C13.3284 2 14 2.67157 14 3.5Z" fill="#43454A"/>
<path d="M3.5 9.5C4.32843 9.5 5 8.82843 5 8C5 7.17157 4.32843 6.5 3.5 6.5C2.67157 6.5 2 7.17157 2 8C2 8.82843 2.67157 9.5 3.5 9.5Z" fill="#43454A"/>
<path d="M14 12.5C14 13.3284 13.3284 14 12.5 14C11.6716 14 11 13.3284 11 12.5C11 11.6716 11.6716 11 12.5 11C13.3284 11 14 11.6716 14 12.5Z" fill="#43454A"/>
<path fill-rule="evenodd" clip-rule="evenodd" d="M15 3.5C15 4.88071 13.8807 6 12.5 6C11.7223 6 11.0275 5.64485 10.5689 5.08789L5.9559 7.53008C5.98485 7.68228 6 7.83937 6 8C6 8.16063 5.98485 8.31771 5.95591 8.46991L10.5689 10.9121C11.0275 10.3551 11.7223 10 12.5 10C13.8807 10 15 11.1193 15 12.5C15 13.8807 13.8807 15 12.5 15C11.1193 15 10 13.8807 10 12.5C10 12.2554 10.0351 12.0191 10.1006 11.7957L5.57257 9.39846C5.12324 10.0631 4.36265 10.5 3.5 10.5C2.11929 10.5 1 9.38071 1 8C1 6.61929 2.11929 5.5 3.5 5.5C4.36264 5.5 5.12324 5.93692 5.57257 6.60153L10.1006 4.20434C10.0351 3.98094 10 3.74457 10 3.5C10 2.11929 11.1193 1 12.5 1C13.8807 1 15 2.11929 15 3.5ZM4.68013 7.074C4.40551 6.72449 3.97897 6.5 3.5 6.5C2.67157 6.5 2 7.17157 2 8C2 8.82843 2.67157 9.5 3.5 9.5C3.97897 9.5 4.40551 9.27551 4.68014 8.926C4.88038 8.67104 4.99938 8.34936 4.99938 8.00002C4.99938 7.65066 4.8804 7.32896 4.68013 7.074ZM14 3.5C14 4.32843 13.3284 5 12.5 5C11.6716 5 11 4.32843 11 3.5C11 2.67157 11.6716 2 12.5 2C13.3284 2 14 2.67157 14 3.5ZM14 12.5C14 13.3284 13.3284 14 12.5 14C11.6716 14 11 13.3284 11 12.5C11 11.6716 11.6716 11 12.5 11C13.3284 11 14 11.6716 14 12.5Z" fill="#CED0D6"/>
</svg>
