<!-- Copyright 2000-2023 JetBrains s.r.o. and contributors. Use of this source code is governed by the Apache 2.0 license. -->
<svg width="16" height="16" viewBox="0 0 16 16" fill="none" xmlns="http://www.w3.org/2000/svg">
<path d="M8.35355 5.14645C8.15829 4.95118 7.84171 4.95118 7.64645 5.14645L5.14645 7.64645C4.95118 7.84171 4.95118 8.15829 5.14645 8.35355C5.34171 8.54882 5.65829 8.54882 5.85355 8.35355L8 6.20711L10.1464 8.35355C10.3417 8.54882 10.6583 8.54882 10.8536 8.35355C11.0488 8.15829 11.0488 7.84171 10.8536 7.64645L8.35355 5.14645Z" fill="#3574F0"/>
<path fill-rule="evenodd" clip-rule="evenodd" d="M14 4C14 2.89543 13.1046 2 12 2H4C2.89543 2 2 2.89543 2 4V10C2 11.1046 2.89543 12 4 12H12C13.1046 12 14 11.1046 14 10V4ZM13 10L13 4C13 3.44772 12.5523 3 12 3L4 3C3.44772 3 3 3.44772 3 4L3 10C3 10.5523 3.44772 11 4 11H12C12.5523 11 13 10.5523 13 10Z" fill="#3574F0"/>
<path d="M4.00002 13.5C4.00003 13.2238 4.22388 13 4.50002 13L11.5 13C11.7761 13 12 13.2239 12 13.5C12 13.7761 11.7761 14 11.5 14H4.50002C4.22387 14 4.00001 13.7761 4.00002 13.5Z" fill="#3574F0"/>
<path fill-rule="evenodd" clip-rule="evenodd" d="M13 10V4C13 3.44772 12.5523 3 12 3H4C3.44772 3 3 3.44772 3 4V10C3 10.5523 3.44772 11 4 11H12C12.5523 11 13 10.5523 13 10ZM8.35355 5.14645C8.15829 4.95118 7.84171 4.95118 7.64645 5.14645L5.14645 7.64645C4.95119 7.84171 4.95119 8.15829 5.14645 8.35355C5.34171 8.54882 5.65829 8.54882 5.85355 8.35355L8 6.20711L10.1464 8.35355C10.3417 8.54882 10.6583 8.54882 10.8536 8.35355C11.0488 8.15829 11.0488 7.84171 10.8536 7.64645L8.35355 5.14645Z" fill="#EDF3FF"/>
</svg>
