<!-- Copyright 2000-2023 JetBrains s.r.o. and contributors. Use of this source code is governed by the Apache 2.0 license. -->
<svg width="16" height="16" viewBox="0 0 16 16" fill="none" xmlns="http://www.w3.org/2000/svg">
<path fill-rule="evenodd" clip-rule="evenodd" d="M14 4C14 2.89543 13.1046 2 12 2H4C2.89543 2 2 2.89543 2 4V10C2 11.1046 2.89543 12 4 12H12C13.1046 12 14 11.1046 14 10V4ZM13 10L13 4C13 3.44772 12.5523 3 12 3L4 3C3.44772 3 3 3.44772 3 4L3 10C3 10.5523 3.44772 11 4 11H12C12.5523 11 13 10.5523 13 10Z" fill="#DB5C5C"/>
<path d="M4.00002 13.5C4.00003 13.2238 4.22388 13 4.50002 13L11.5 13C11.7761 13 12 13.2239 12 13.5C12 13.7761 11.7761 14 11.5 14H4.50002C4.22387 14 4.00001 13.7761 4.00002 13.5Z" fill="#DB5C5C"/>
<path fill-rule="evenodd" clip-rule="evenodd" d="M13 10V4C13 3.44772 12.5523 3 12 3H4C3.44772 3 3 3.44772 3 4V10C3 10.5523 3.44772 11 4 11H12C12.5523 11 13 10.5523 13 10Z" fill="#402929"/>
<path d="M1.43945 0.43934C2.02524 -0.146447 2.97499 -0.146447 3.56077 0.43934L14.5608 11.4393C15.1466 12.0251 15.1466 12.9749 14.5608 13.5607L1.43945 0.43934Z" fill="#1E2022"/>
<path d="M13.5 12.5L2.5 1.5" stroke="#DB5C5C" stroke-linecap="round"/>
</svg>
