<!-- Copyright 2000-2023 JetBrains s.r.o. and contributors. Use of this source code is governed by the Apache 2.0 license. -->
<svg width="16" height="16" viewBox="0 0 16 16" fill="none" xmlns="http://www.w3.org/2000/svg">
<path fill-rule="evenodd" clip-rule="evenodd" d="M8.5 4.5C8.5 5.88071 7.38071 7 6 7C4.61929 7 3.5 5.88071 3.5 4.5C3.5 3.11929 4.61929 2 6 2C7.38071 2 8.5 3.11929 8.5 4.5ZM7.5 4.5C7.5 5.32843 6.82843 6 6 6C5.17157 6 4.5 5.32843 4.5 4.5C4.5 3.67157 5.17157 3 6 3C6.82843 3 7.5 3.67157 7.5 4.5Z" fill="#6C707E"/>
<path fill-rule="evenodd" clip-rule="evenodd" d="M1.90099 13H10.099C10.6614 13 11.1039 12.5357 10.9786 11.9878C10.6448 10.5267 9.55331 8 5.99687 8C2.43936 8 1.35225 10.5282 1.02104 11.9891C0.896888 12.5367 1.3392 13 1.90099 13ZM9.95087 12H2.04872C2.20872 11.401 2.50316 10.696 3.03189 10.1276C3.59414 9.52324 4.48671 9 5.99687 9C7.50663 9 8.40044 9.52299 8.96416 10.1277C9.49402 10.696 9.78976 11.401 9.95087 12Z" fill="#6C707E"/>
<path d="M9.99992 7C9.54449 7 9.11751 6.87822 8.74976 6.66545C8.95564 6.40435 9.12514 6.11323 9.2506 5.79972C9.47108 5.9271 9.72699 6 9.99992 6C10.8284 6 11.4999 5.32843 11.4999 4.5C11.4999 3.67157 10.8284 3 9.99992 3C9.72699 3 9.47108 3.0729 9.2506 3.20028C9.12514 2.88677 8.95564 2.59565 8.74976 2.33455C9.11751 2.12178 9.54449 2 9.99992 2C11.3806 2 12.4999 3.11929 12.4999 4.5C12.4999 5.88071 11.3806 7 9.99992 7Z" fill="#6C707E"/>
<path d="M13.9508 12H11.9927C12.0321 12.3731 11.9566 12.7117 11.8025 13H14.0989C14.6613 13 15.1038 12.5357 14.9786 11.9878C14.6447 10.5267 13.5532 8 9.9968 8C9.84635 8 9.70032 8.00452 9.55859 8.01329C9.88392 8.23753 10.1727 8.49069 10.4275 8.76407C10.5111 8.85368 10.5905 8.94488 10.6659 9.03724C11.7801 9.16688 12.4892 9.61829 12.9641 10.1277C13.4939 10.696 13.7897 11.401 13.9508 12Z" fill="#6C707E"/>
</svg>
