<!-- Copyright 2000-2023 JetBrains s.r.o. and contributors. Use of this source code is governed by the Apache 2.0 license. -->
<svg width="14" height="14" viewBox="0 0 14 14" fill="none" xmlns="http://www.w3.org/2000/svg">
<path d="M6.29312 1.41411C6.68365 1.02362 7.31678 1.02364 7.70729 1.41415L8.20735 1.91421C8.58242 2.28929 9.09113 2.5 9.62156 2.5H10.5C11.0523 2.5 11.5 2.94772 11.5 3.5V4.37863C11.5 4.9091 11.7107 5.41785 12.0859 5.79293L12.6972 6.40418C13.0576 6.7645 13.0893 7.33817 12.771 7.73607L11.9383 8.77674C11.6546 9.13138 11.5 9.57204 11.5 10.0262V10.5C11.5 11.0523 11.0523 11.5 10.5 11.5H9.62137C9.0909 11.5 8.58215 11.7107 8.20707 12.0859L7.70726 12.5857C7.31676 12.9763 6.6836 12.9763 6.29305 12.5858L5.79286 12.0857C5.4178 11.7107 4.90912 11.5 4.37873 11.5H3.5001C2.94785 11.5 2.50015 11.0523 2.5001 10.5001L2.50005 10.026C2.50001 9.57195 2.34548 9.13145 2.06186 8.77689L1.68487 9.07844L2.06186 8.77689L1.22928 7.73603C0.911003 7.33814 0.942787 6.76456 1.30308 6.40427L1.91441 5.79294C2.28952 5.41783 2.50024 4.90906 2.50019 4.37857L2.50012 3.50008C2.50008 2.94776 2.94781 2.5 3.50012 2.5H4.37873C4.90912 2.5 5.41779 2.28932 5.79286 1.9143L6.29312 1.41411Z" fill="#253627" stroke="#57965C"/>
<path d="M9.5 5.5L6.5 8.5L5 7" stroke="#57965C" stroke-linecap="round" stroke-linejoin="round"/>
</svg>
