<svg xmlns="http://www.w3.org/2000/svg" width="13" height="13" viewBox="0 0 13 13">
  <g fill="#6E6E6E" fill-rule="evenodd" transform="translate(1)">
    <path d="M3.25972851 1.94650575L1.48000002 3.50376818 3.25525463 5.05711597C3.17504178 5.12186032 3.08972407 5.18053304 3 5.23243561L3 12 1 12 1 5.23243561C.40219863 4.88662619 9.06584418e-17 4.24028236 0 3.5-1.3527075e-16 2.3954305.8954305 1.5 2 1.5 2.47746435 1.5 2.91585084 1.66731223 3.25972851 1.94650575zM8 11.5L8 5.5C8 4.94771525 7.55228475 4.5 7 4.5L6 4.5 6 2.5 7 2.5C8.65685425 2.5 10 3.84314575 10 5.5L10 11.5 8 11.5z"/>
    <polygon points="5 1.5 8.5 5.5 1.5 5.5" transform="rotate(-90 5 3.5)"/>
    <rect width="4" height="4" y="9" rx="2"/>
    <rect width="4" height="4" x="7" y="9" rx="2"/>
  </g>
</svg>
