<svg xmlns="http://www.w3.org/2000/svg" width="16" height="16" viewBox="0 0 16 16">
  <path fill="#B99BF8" fill-opacity=".7" fill-rule="evenodd" d="M9.17052949,9.80934594 C7.96185481,9.52117757 6.87478401,8.91954201 6,8.09512215 L6,11.2675644 C6.59780137,11.6133738 7,12.2597176 7,13 C7,14.1045695 6.1045695,15 5,15 C3.8954305,15 3,14.1045695 3,13 C3,12.2597176 3.40219863,11.6133738 4,11.2675644 L4,4.73243561 C3.40219863,4.38662619 3,3.74028236 3,3 C3,1.8954305 3.8954305,1 5,1 C6.1045695,1 7,1.8954305 7,3 C7,3.7031041 6.63718515,4.32146826 6.08856161,4.6780863 C6.62381581,6.18077018 7.85757867,7.3520348 9.39904593,7.80107592 C9.76387853,7.31468534 10.3451899,7 11,7 C12.1045695,7 13,7.8954305 13,9 C13,10.1045695 12.1045695,11 11,11 C10.1834943,11 9.4812678,10.5107123 9.17052949,9.80934594 Z"/>
</svg>
