<svg xmlns="http://www.w3.org/2000/svg" width="16" height="16" viewBox="0 0 16 16">
  <path fill="#9AA7B0" fill-opacity=".8" fill-rule="evenodd" d="M7,8.8817842e-16 C3.81818182,8.8817842e-16 1.10090909,2.07333333 1.77635684e-15,5 C1.10090909,7.92666667 3.81818182,10 7,10 C10.1818182,10 12.8990909,7.92666667 14,5 C12.8990909,2.07333333 10.1818182,8.8817842e-16 7,8.8817842e-16 Z M7,8.5 C5.068,8.5 3.5,6.932 3.5,5 C3.5,3.068 5.068,1.5 7,1.5 C8.932,1.5 10.5,3.068 10.5,5 C10.5,6.932 8.932,8.5 7,8.5 Z M7,3 C5.89333333,3 5,3.89333333 5,5 C5,6.10666667 5.89333333,7 7,7 C8.10666667,7 9,6.10666667 9,5 C9,3.89333333 8.10666667,3 7,3 Z" transform="translate(1 3)"/>
</svg>
