<svg xmlns="http://www.w3.org/2000/svg" width="16" height="16" viewBox="0 0 16 16">
  <g fill="none" fill-opacity=".8" fill-rule="evenodd">
    <path fill="#9AA7B0" d="M12.9497475,12.9497475 C10.2160774,15.6834175 5.78392257,15.6834175 3.05025253,12.9497475 C0.31658249,10.2160774 0.31658249,5.78392257 3.05025253,3.05025253 C5.78392257,0.31658249 10.2160774,0.31658249 12.9497475,3.05025253 C15.6834175,5.78392257 15.6834175,10.2160774 12.9497475,12.9497475 Z M7.99999976,13.1999996 C10.8718804,13.1999996 13.1999996,10.8718804 13.1999996,7.99999976 C13.1999996,5.12811917 10.8718804,2.79999995 7.99999976,2.79999995 C5.12811917,2.79999995 2.79999995,5.12811917 2.79999995,7.99999976 C2.79999995,10.8718804 5.12811917,13.1999996 7.99999976,13.1999996 Z"/>
    <path fill="#9AA7B0" d="M2.10004866,3.17773604 L4.69437913,4.99430579 L3.77665681,6.30494908 L0.500048637,4.01064334 L0.507501183,4 L0.500048637,4 L0.500048637,0 L2.10004866,0 L2.10004866,3.17773604 Z" transform="translate(6.7 4.7)"/>
  </g>
</svg>
