<!-- Copyright 2000-2022 JetBrains s.r.o. and contributors. Use of this source code is governed by the Apache 2.0 license. -->
<svg width="16" height="16" viewBox="0 0 16 16" fill="none" xmlns="http://www.w3.org/2000/svg">
<path fill-rule="evenodd" clip-rule="evenodd" d="M6.48983 1.13677C7.02636 1.04476 7.57004 0.999004 8.11466 1.00002L8.11854 1.00004C8.69493 1.00471 9.27001 1.05462 9.83831 1.14927C10.3846 1.20957 10.893 1.45404 11.277 1.8415C11.6592 2.22707 11.9477 2.79308 11.9477 3.34128V6.28964C11.9478 6.86298 11.7202 7.41385 11.3133 7.82436C10.9063 8.23491 10.3524 8.47274 9.76965 8.48707L9.75441 8.48726H6.59961C6.2432 8.49379 5.90273 8.63409 5.64798 8.87952C5.3946 9.12364 5.24517 9.45331 5.22975 9.8016V11.3C5.22975 11.631 4.95698 11.8993 4.6205 11.8993H3.51574C2.88773 11.8993 2.3666 11.6627 1.97683 11.2638C1.60371 10.882 1.37487 10.3779 1.24477 9.85376C0.919717 8.71373 0.918415 7.50798 1.24086 6.36742C1.35923 5.78344 1.68245 5.25856 2.1545 4.88482C2.63144 4.50721 3.22913 4.30857 3.84095 4.32413H4.4093V3.3253C4.4093 2.85137 4.46916 2.32352 4.8446 1.89321C5.21181 1.47233 5.7798 1.26027 6.48837 1.13702L6.48983 1.13677ZM8.11043 2.19861C7.63761 2.19784 7.16563 2.2376 6.69983 2.31743C6.07673 2.4259 5.85691 2.57335 5.76924 2.67382C5.68978 2.7649 5.62779 2.92025 5.62779 3.3253C5.62779 3.72444 5.62779 4.12358 5.62779 4.52273C5.62779 5.07501 5.18007 5.52273 4.62779 5.52273H3.83255C3.82654 5.52273 3.82054 5.52264 3.81454 5.52247C3.48954 5.51301 3.17179 5.618 2.91851 5.81854C2.63197 6.0454 2.51677 6.33318 2.42054 6.66843C2.15114 7.60694 2.15114 8.60048 2.42054 9.53899C2.51264 9.85982 2.61418 10.1865 2.85527 10.4332C3.01991 10.6017 3.22582 10.7007 3.51574 10.7007H4.01126V9.78974C4.01126 9.78248 4.01139 9.77523 4.01166 9.76797C4.036 9.1091 4.31654 8.48455 4.79538 8.02322C5.27422 7.56189 5.91482 7.29898 6.585 7.28873L6.59446 7.28859L9.74591 7.28866C10.0083 7.2805 10.2574 7.17265 10.4408 6.98761C10.6258 6.801 10.7293 6.55065 10.7292 6.29002V3.36692C10.704 3.10789 10.5896 2.86485 10.4046 2.67824C10.194 2.46572 9.94035 2.38246 9.65164 2.33386C9.14243 2.24813 8.62702 2.2029 8.11043 2.19861Z" fill="white"/>
<path fill-rule="evenodd" clip-rule="evenodd" d="M10.7292 4.57159C10.7292 4.24061 11.0019 3.97229 11.3384 3.97229H12.565C13.2089 3.97229 13.7126 4.2299 14.0744 4.6449C14.4106 5.0305 14.604 5.5269 14.7275 6.00692C15.0925 7.15942 15.0907 8.39428 14.7221 9.54595L14.7208 9.54984C14.5615 10.036 14.3678 10.5376 14.0436 10.9147C13.6839 11.3329 13.1965 11.5634 12.565 11.5634H11.5902V12.5622C11.5902 13.2231 11.2876 13.7249 10.8697 14.0771C10.473 14.4114 9.97593 14.6111 9.53055 14.7347C8.38602 15.0892 7.15819 15.0884 6.01405 14.7322C5.13141 14.4621 4.01123 13.8361 4.01123 12.5622V11.2438C4.01123 10.9128 4.284 10.6445 4.62048 10.6445C4.95695 10.6445 5.22972 10.9128 5.22972 11.2438V12.5622C5.22972 12.9817 5.58664 13.3465 6.37715 13.5881L6.3804 13.5891C7.2888 13.8722 8.26394 13.8722 9.17234 13.5891C9.49224 13.4894 9.81727 13.3857 10.0769 13.1669C10.2682 13.0057 10.3718 12.8204 10.3718 12.5622C10.3718 12.3041 10.3718 11.8157 10.3718 11.3647C10.3718 10.8125 10.8195 10.3648 11.3718 10.3648H12.565C12.8515 10.3648 12.9937 10.2797 13.1133 10.1406C13.2681 9.96054 13.4032 9.66363 13.5604 9.18415C13.8553 8.26157 13.8551 7.27218 13.5598 6.34969C13.4565 6.0269 13.3799 5.68945 13.1495 5.4252C13.0097 5.26486 12.8391 5.17089 12.565 5.17089H11.3384C11.0019 5.17089 10.7292 4.90257 10.7292 4.57159Z" fill="white"/>
<path d="M7.6514 3.59699C7.80442 3.59511 7.95456 3.63803 8.08273 3.72029C8.2109 3.80255 8.31131 3.92043 8.37121 4.05897C8.4311 4.1975 8.44776 4.35042 8.41908 4.4983C8.3904 4.64617 8.31768 4.78232 8.21015 4.88943C8.10261 4.99655 7.96513 5.06979 7.81518 5.09986C7.66522 5.12993 7.50957 5.11546 7.36799 5.05829C7.22642 5.00113 7.10532 4.90385 7.02009 4.77881C6.93486 4.65378 6.88934 4.50664 6.88933 4.3561C6.88805 4.25687 6.90682 4.15837 6.94455 4.06632C6.98227 3.97427 7.0382 3.89051 7.1091 3.81989C7.17999 3.74928 7.26443 3.69321 7.35752 3.65495C7.45061 3.61668 7.5505 3.59698 7.6514 3.59699Z" fill="white"/>
<path d="M8.32857 11.0484C8.53325 11.0484 8.72953 11.1284 8.87426 11.2707C9.01898 11.4131 9.10029 11.6062 9.10029 11.8075C9.10029 12.0088 9.01898 12.2019 8.87426 12.3443C8.72953 12.4866 8.53325 12.5666 8.32857 12.5666C8.1239 12.5666 7.92762 12.4866 7.78289 12.3443C7.63817 12.2019 7.55686 12.0088 7.55686 11.8075C7.55686 11.6062 7.63817 11.4131 7.78289 11.2707C7.92762 11.1284 8.1239 11.0484 8.32857 11.0484Z" fill="white"/>
</svg>
