<!-- Copyright 2000-2023 JetBrains s.r.o. and contributors. Use of this source code is governed by the Apache 2.0 license. -->
<svg xmlns="http://www.w3.org/2000/svg" width="16" height="16" viewBox="0 0 16 16">
  <g fill="none" transform="translate(2 1)">
    <polyline fill="#E44D26" points="1.142 12.607 .02 .02 12.349 .02 11.227 12.6 6.174 14"/>
    <polyline fill="#F16529" points="6.184 12.93 6.184 1.053 11.224 1.053 10.262 11.791"/>
    <path fill="#EBEBEB" d="M2.31067961,2.59271845 L6.18446602,2.59271845 L6.18446602,4.13543689 L4.00291262,4.13543689 L4.14563107,5.71553398 L6.18446602,5.71553398 L6.18446602,7.25485437 L2.73203883,7.25485437 M2.8,8.02961165 L4.34951456,8.02961165 L4.45825243,9.2631068 L6.18446602,9.72524272 L6.18446602,11.3359223 L3.01747573,10.4524272"/>
    <path fill="#FFF" d="M10.0446602,2.59271845 L6.1776699,2.59271845 L6.1776699,4.13543689 L9.90194175,4.13543689 M9.76262136,5.71553398 L6.1776699,5.71553398 L6.1776699,7.25825243 L8.08058252,7.25825243 L7.90048544,9.2631068 L6.1776699,9.72524272 L6.1776699,11.3291262 L9.33786408,10.4524272"/>
  </g>
</svg>
