<!-- Copyright 2000-2022 JetBrains s.r.o. and contributors. Use of this source code is governed by the Apache 2.0 license. -->
<svg width="16" height="16" viewBox="0 0 16 16" fill="none" xmlns="http://www.w3.org/2000/svg">
<path fill-rule="evenodd" clip-rule="evenodd" d="M13.3536 3.35355C13.5489 3.15829 13.5489 2.84171 13.3536 2.64645C13.1583 2.45118 12.8418 2.45118 12.6465 2.64645L9.5 5.79294L9.5 3.49999C9.5 3.22384 9.27614 2.99999 9 2.99999C8.72386 2.99999 8.5 3.22384 8.5 3.49999L8.5 7C8.5 7.03067 8.50282 7.06104 8.50831 7.09078C8.52332 7.17251 8.55879 7.25122 8.61472 7.31868C8.6247 7.33074 8.63528 7.34239 8.64645 7.35355C8.65689 7.364 8.66774 7.37393 8.67898 7.38333C8.76586 7.45627 8.8717 7.49501 8.97872 7.49955C8.9858 7.49985 8.99289 7.5 9 7.5H12.5C12.7761 7.5 13 7.27614 13 7C13 6.72386 12.7761 6.5 12.5 6.5H10.2072L13.3536 3.35355ZM2.64645 12.6464C2.45118 12.8417 2.45118 13.1583 2.64645 13.3535C2.84171 13.5488 3.15829 13.5488 3.35355 13.3535L6.5 10.2071L6.5 12.5C6.5 12.7761 6.72386 13 7 13C7.27614 13 7.5 12.7761 7.5 12.5L7.5 8.99998C7.5 8.86299 7.44491 8.73887 7.35567 8.64856L7.35143 8.64432C7.30398 8.59743 7.24949 8.56196 7.19139 8.53792C7.13244 8.51348 7.0678 8.49998 7 8.49998H3.5C3.22386 8.49998 3 8.72384 3 8.99998C3 9.27613 3.22386 9.49998 3.5 9.49998H5.79289L2.64645 12.6464Z" fill="#A8ADBD"/>
</svg>
