<!-- Copyright 2000-2022 JetBrains s.r.o. and contributors. Use of this source code is governed by the Apache 2.0 license. -->
<svg width="16" height="16" viewBox="0 0 16 16" fill="none" xmlns="http://www.w3.org/2000/svg">
<rect x="2.5" y="3.5" width="9" height="10" rx="1.5" stroke="#868A91"/>
<rect x="5" y="6" width="4" height="1" rx="0.5" fill="#868A91"/>
<rect x="5" y="8" width="4" height="1" rx="0.5" fill="#868A91"/>
<rect x="5" y="10" width="4" height="1" rx="0.5" fill="#868A91"/>
<path fill-rule="evenodd" clip-rule="evenodd" d="M11.002 2H11.6C12.3732 2 13 2.6268 13 3.4V3.91081C13.0013 3.94038 13.002 3.97011 13.002 4V11.5482C13.6065 11.1124 14 10.4021 14 9.6V3.4C14 2.07452 12.9255 1 11.6 1H6.40002C5.59701 1 4.88611 1.39437 4.45044 2H6.40002H11.002Z" fill="#868A91"/>
</svg>
