<!-- Copyright 2000-2022 JetBrains s.r.o. and contributors. Use of this source code is governed by the Apache 2.0 license. -->
<svg width="16" height="16" viewBox="0 0 16 16" fill="none" xmlns="http://www.w3.org/2000/svg">
<path fill-rule="evenodd" clip-rule="evenodd" d="M12.5 4.20711V6.5C12.5 6.77614 12.7239 7 13 7C13.2761 7 13.5 6.77614 13.5 6.5V3.00037V3C13.5 2.999 13.5 2.998 13.5 2.997C13.4992 2.86012 13.4434 2.73627 13.3536 2.64645C13.3056 2.59851 13.2504 2.56234 13.1914 2.53794C13.1324 2.51349 13.0678 2.5 13 2.5H9.5C9.22386 2.5 9 2.72386 9 3C9 3.27614 9.22386 3.5 9.5 3.5H11.7929L8.64645 6.64645C8.45118 6.84171 8.45118 7.15829 8.64645 7.35355C8.84171 7.54882 9.15829 7.54882 9.35355 7.35355L12.5 4.20711ZM7.35355 9.35355C7.54882 9.15828 7.54882 8.8417 7.35355 8.64644C7.15829 8.45118 6.84171 8.45118 6.64645 8.64644L3.5 11.7929V9.50001C3.5 9.22386 3.27614 9.00001 3 9.00001C2.72386 9.00001 2.5 9.22386 2.5 9.50001V13C2.5 13.137 2.55509 13.2611 2.64433 13.3514L2.64857 13.3557C2.69602 13.4025 2.75051 13.438 2.80861 13.4621C2.86756 13.4865 2.93221 13.5 3 13.5H6.5C6.77614 13.5 7 13.2761 7 13C7 12.7238 6.77614 12.5 6.5 12.5H4.20711L7.35355 9.35355Z" fill="#A8ADBD"/>
</svg>
