<!-- Copyright 2000-2022 JetBrains s.r.o. and contributors. Use of this source code is governed by the Apache 2.0 license. -->
<svg width="16" height="16" viewBox="0 0 16 16" fill="none" xmlns="http://www.w3.org/2000/svg">
<path d="M4.51619 13.0001C3.68538 13.0001 2.93338 12.7967 2.26021 12.3899C1.58704 11.9787 1.05873 11.4161 0.675276 10.702C0.291824 9.98794 0.100098 9.1873 0.100098 8.3001C0.100098 7.4129 0.291824 6.61225 0.675276 5.89816C1.05873 5.18408 1.58704 4.62362 2.26021 4.21681C2.93338 3.80567 3.68538 3.6001 4.51619 3.6001C5.20214 3.6001 5.84336 3.73642 6.43984 4.00908C7.03632 4.2774 7.52629 4.64743 7.90974 5.11916C8.29319 5.59089 8.52114 6.11455 8.59356 6.69015H7.31539C7.22592 6.3396 7.04271 6.01934 6.76578 5.72938C6.4931 5.43942 6.15864 5.21221 5.76241 5.04775C5.36618 4.88329 4.95077 4.80106 4.51619 4.80106C3.92823 4.80106 3.39992 4.95037 2.93125 5.24899C2.46259 5.54761 2.09405 5.96308 1.82563 6.4954C1.56148 7.02772 1.4294 7.62929 1.4294 8.3001C1.4294 8.97091 1.56148 9.57247 1.82563 10.1048C2.09405 10.6371 2.46259 11.0526 2.93125 11.3512C3.39992 11.6498 3.92823 11.7991 4.51619 11.7991C4.95077 11.7991 5.36618 11.7169 5.76241 11.5524C6.15864 11.388 6.4931 11.1629 6.76578 10.8773C7.04271 10.5873 7.22592 10.2671 7.31539 9.91653H8.59356C8.52114 10.4921 8.29319 11.0158 7.90974 11.4875C7.52629 11.9549 7.03632 12.325 6.43984 12.5976C5.84336 12.8659 5.20214 13.0001 4.51619 13.0001Z" fill="#CED0D6"/>
<path d="M12.8005 13.0001C12.17 13.0001 11.6012 12.8486 11.0942 12.5457C10.5872 12.2427 10.1888 11.8273 9.89907 11.2993C9.60935 10.7669 9.46449 10.174 9.46449 9.52054C9.46449 8.86704 9.60935 8.27629 9.89907 7.7483C10.1888 7.21598 10.5872 6.79835 11.0942 6.4954C11.6012 6.19245 12.17 6.04098 12.8005 6.04098C13.3331 6.04098 13.8167 6.13403 14.2513 6.32013C14.6901 6.50622 15.0501 6.77671 15.3313 7.13159C15.6168 7.48647 15.8064 7.90843 15.9001 8.39747H14.6475C14.5623 8.1378 14.4259 7.91709 14.2385 7.73532C14.0553 7.55355 13.838 7.41722 13.5866 7.32634C13.3395 7.23113 13.0775 7.18352 12.8005 7.18352C12.4128 7.18352 12.0634 7.28306 11.7524 7.48214C11.4414 7.68122 11.1985 7.9582 11.0239 8.31308C10.8534 8.66796 10.7682 9.07045 10.7682 9.52054C10.7682 9.9663 10.8534 10.3666 11.0239 10.7215C11.1985 11.0764 11.4414 11.3555 11.7524 11.5589C12.0634 11.758 12.4128 11.8576 12.8005 11.8576C13.0775 11.8576 13.3395 11.8121 13.5866 11.7212C13.838 11.626 14.0553 11.4875 14.2385 11.3058C14.4259 11.124 14.5623 10.9033 14.6475 10.6436H15.9001C15.8106 11.1197 15.6189 11.5351 15.3249 11.89C15.0352 12.2449 14.6709 12.5197 14.2321 12.7145C13.7975 12.9049 13.3203 13.0001 12.8005 13.0001Z" fill="#CED0D6"/>
</svg>
