<!-- Copyright 2000-2022 JetBrains s.r.o. and contributors. Use of this source code is governed by the Apache 2.0 license. -->
<svg width="16" height="16" viewBox="0 0 16 16" fill="none" xmlns="http://www.w3.org/2000/svg">
<path fill-rule="evenodd" clip-rule="evenodd" d="M5.85363 14.1464C6.04889 14.3417 6.04889 14.6583 5.85363 14.8536C5.65837 15.0488 5.34178 15.0488 5.14652 14.8536L1.64652 11.3536L1.29297 11L1.64652 10.6464L5.14652 7.14645C5.34178 6.95118 5.65837 6.95118 5.85363 7.14645C6.04889 7.34171 6.04889 7.65829 5.85363 7.85355L3.20718 10.5H10.5001C12.4331 10.5 14.0001 8.933 14.0001 7C14.0001 5.067 12.4331 3.5 10.5001 3.5H5.50008C5.22393 3.5 5.00008 3.27614 5.00008 3C5.00008 2.72386 5.22393 2.5 5.50008 2.5H10.5001C12.9854 2.5 15.0001 4.51472 15.0001 7C15.0001 9.48528 12.9854 11.5 10.5001 11.5H3.20718L5.85363 14.1464Z" fill="#CED0D6"/>
</svg>
