<!-- Copyright 2000-2025 JetBrains s.r.o. and contributors. Use of this source code is governed by the Apache 2.0 license. -->
<svg width="16" height="16" viewBox="0 0 16 16" fill="none" xmlns="http://www.w3.org/2000/svg">
<path d="M10.5 5C12.4328 5 13.9999 6.56719 14 8.5C13.9999 10.4328 12.4328 12 10.5 12H3.70703L5.85352 14.1465C6.04862 14.3417 6.04858 14.6583 5.85352 14.8535C5.65828 15.0487 5.34172 15.0486 5.14648 14.8535L2.14648 11.8535C1.95141 11.6583 1.95135 11.3417 2.14648 11.1465L5.14648 8.14648C5.34169 7.95147 5.6583 7.9515 5.85352 8.14648C6.04871 8.34169 6.0486 8.65824 5.85352 8.85352L3.70703 11H10.5C11.8805 11 12.9999 9.88052 13 8.5C12.9999 7.11948 11.8805 6 10.5 6H2.5C2.22396 5.99994 2.00008 5.77604 2 5.5C2.0002 5.22406 2.22403 5.00006 2.5 5H10.5Z" fill="#6C707E"/>
<path d="M13.5 2C13.7761 2 14 2.22386 14 2.5C14 2.77614 13.7761 3 13.5 3H2.5C2.22386 3 2 2.77614 2 2.5C2 2.22386 2.22386 2 2.5 2H13.5Z" fill="#6C707E"/>
</svg>
