<!-- Copyright 2000-2022 JetBrains s.r.o. and contributors. Use of this source code is governed by the Apache 2.0 license. -->
<svg width="16" height="16" viewBox="0 0 16 16" fill="none" xmlns="http://www.w3.org/2000/svg">
<path d="M2.9675 12.35H4.6175V14H2.9675V12.35Z" fill="#CED0D6"/>
<path d="M11.613 9.0925L9.709 6.687L10.389 6.126L12.4205 8.404L11.613 9.0925ZM8.3235 9.0925L7.516 8.404L9.5475 6.126L10.2275 6.687L8.3235 9.0925ZM9.7345 6.5595L6.751 5.854L7.0315 4.8255L9.964 5.701L9.7345 6.5595ZM9.9725 6.6105C9.84783 6.6105 9.74017 6.568 9.6495 6.483C9.5645 6.39233 9.522 6.28467 9.522 6.16C9.522 6.03533 9.5645 5.9305 9.6495 5.8455C9.74017 5.7605 9.84783 5.718 9.9725 5.718C10.0972 5.718 10.202 5.7605 10.287 5.8455C10.372 5.9305 10.4145 6.03533 10.4145 6.16C10.4145 6.28467 10.372 6.39233 10.287 6.483C10.202 6.568 10.0972 6.6105 9.9725 6.6105ZM9.522 6.16L9.437 3.1H10.4995L10.4145 6.16H9.522ZM10.202 6.5595L9.9725 5.701L12.905 4.8255L13.1855 5.854L10.202 6.5595Z" fill="#CED0D6"/>
</svg>
