<!-- Copyright 2000-2022 JetBrains s.r.o. and contributors. Use of this source code is governed by the Apache 2.0 license. -->
<svg width="16" height="16" viewBox="0 0 16 16" fill="none" xmlns="http://www.w3.org/2000/svg">
<path d="M8.85355 10.1432C8.65829 9.94789 8.34171 9.94789 8.14645 10.1432C7.95118 10.3384 7.95118 10.655 8.14645 10.8503L8.85355 10.1432ZM11.1457 13.8495C11.3409 14.0447 11.6575 14.0447 11.8528 13.8495C12.048 13.6542 12.048 13.3376 11.8528 13.1424L11.1457 13.8495ZM11.8536 7.64645C11.6583 7.45118 11.3417 7.45118 11.1464 7.64645C10.9512 7.84171 10.9512 8.15829 11.1464 8.35355L11.8536 7.64645ZM13.5 10L13.1464 10.3536L13.5 10.7071L13.8536 10.3536L13.5 10ZM15.8536 8.35355C16.0488 8.15829 16.0488 7.84171 15.8536 7.64645C15.6583 7.45118 15.3417 7.45118 15.1464 7.64645L15.8536 8.35355ZM9 7C9 9.20914 7.20914 11 5 11V12C7.76142 12 10 9.76142 10 7H9ZM5 11C2.79086 11 1 9.20914 1 7H0C0 9.76142 2.23858 12 5 12V11ZM1 7C1 4.79086 2.79086 3 5 3V2C2.23858 2 0 4.23858 0 7H1ZM5 3C7.20914 3 9 4.79086 9 7H10C10 4.23858 7.76142 2 5 2V3ZM8.14645 10.8503L11.1457 13.8495L11.8528 13.1424L8.85355 10.1432L8.14645 10.8503ZM11.1464 8.35355L13.1464 10.3536L13.8536 9.64645L11.8536 7.64645L11.1464 8.35355ZM13.8536 10.3536L15.8536 8.35355L15.1464 7.64645L13.1464 9.64645L13.8536 10.3536Z" fill="#6C707E"/>
</svg>
