<!-- Copyright 2000-2022 JetBrains s.r.o. and contributors. Use of this source code is governed by the Apache 2.0 license. -->
<svg width="16" height="16" viewBox="0 0 16 16" fill="none" xmlns="http://www.w3.org/2000/svg">
<path d="M8.85355 10.1432C8.65829 9.94789 8.34171 9.94789 8.14645 10.1432C7.95118 10.3384 7.95118 10.655 8.14645 10.8503L8.85355 10.1432ZM11.1457 13.8495C11.3409 14.0447 11.6575 14.0447 11.8528 13.8495C12.048 13.6542 12.048 13.3376 11.8528 13.1424L11.1457 13.8495ZM9 7C9 9.20914 7.20914 11 5 11V12C7.76142 12 10 9.76142 10 7H9ZM5 11C2.79086 11 1 9.20914 1 7H0C0 9.76142 2.23858 12 5 12V11ZM1 7C1 4.79086 2.79086 3 5 3V2C2.23858 2 0 4.23858 0 7H1ZM5 3C7.20914 3 9 4.79086 9 7H10C10 4.23858 7.76142 2 5 2V3ZM8.14645 10.8503L11.1457 13.8495L11.8528 13.1424L8.85355 10.1432L8.14645 10.8503Z" fill="#CED0D6"/>
<path d="M11 7L13.5 9.5L16 7H11Z" fill="#CED0D6"/>
</svg>
