<svg width="16" height="16" viewBox="0 0 16 16" fill="none" xmlns="http://www.w3.org/2000/svg">
<path d="M14 4C14 3.44772 13.5523 3 13 3H3C2.44772 3 2 3.44772 2 4V4C2 4.55228 2.44772 5 3 5H13C13.5523 5 14 4.55228 14 4V4Z" fill="#868A91"/>
<path d="M14 8C14 7.44772 13.5523 7 13 7H7C6.44772 7 6 7.44772 6 8V8C6 8.55228 6.44772 9 7 9H13C13.5523 9 14 8.55228 14 8V8Z" fill="#F2C55C"/>
<path d="M14 12C14 11.4477 13.5523 11 13 11H11C10.4477 11 10 11.4477 10 12V12C10 12.5523 10.4477 13 11 13H13C13.5523 13 14 12.5523 14 12V12Z" fill="#F2C55C"/>
</svg>
