<!-- Copyright 2000-2023 JetBrains s.r.o. and contributors. Use of this source code is governed by the Apache 2.0 license. -->
<svg width="16" height="16" viewBox="0 0 16 16" fill="none" xmlns="http://www.w3.org/2000/svg">
<path d="M8.9045 4.618C8.61597 4.54103 8.31278 4.5 8 4.5C7.68722 4.5 7.38403 4.54103 7.0955 4.618L7.40532 3.37873C7.46096 3.15615 7.66095 3 7.89039 3H8.10961C8.33905 3 8.53904 3.15615 8.59468 3.37873L8.9045 4.618Z" fill="#6C707E"/>
<path d="M11.5 8H13V7.39039C13 7.16095 12.8439 6.96096 12.6213 6.90532L11.1847 6.54618C11.3872 6.98896 11.5 7.4813 11.5 8Z" fill="#6C707E"/>
<path d="M4.5 8C4.5 7.4813 4.61283 6.98896 4.81529 6.54618L3.37873 6.90532C3.15615 6.96096 3 7.16095 3 7.39039V8H4.5Z" fill="#6C707E"/>
<path d="M9 8C9 8.55228 8.55228 9 8 9C7.44772 9 7 8.55228 7 8C7 7.44772 7.44772 7 8 7C8.55228 7 9 7.44772 9 8Z" fill="#6C707E"/>
<path fill-rule="evenodd" clip-rule="evenodd" d="M8 11C9.65685 11 11 9.65685 11 8C11 6.34315 9.65685 5 8 5C6.34315 5 5 6.34315 5 8C5 9.65685 6.34315 11 8 11ZM8 10C9.10457 10 10 9.10457 10 8C10 6.89543 9.10457 6 8 6C6.89543 6 6 6.89543 6 8C6 9.10457 6.89543 10 8 10Z" fill="#6C707E"/>
<path fill-rule="evenodd" clip-rule="evenodd" d="M12.2856 1.50386C12.1076 1.19229 11.7762 1 11.4174 1H4.57798C4.21913 1 3.88778 1.19229 3.70974 1.50386L0.281171 7.50386C0.105495 7.81129 0.105495 8.18871 0.281171 8.49614L3.70974 14.4961C3.88778 14.8077 4.21913 15 4.57798 15H11.4174C11.7762 15 12.1076 14.8077 12.2856 14.4961L15.7142 8.49614C15.8899 8.18871 15.8899 7.81129 15.7142 7.50386L12.2856 1.50386ZM1.14941 8L4.57798 14L11.4173 14L14.8459 8L11.4173 2L4.57799 2L1.14941 8Z" fill="#6C707E"/>
</svg>
