<!-- Copyright 2000-2023 JetBrains s.r.o. and contributors. Use of this source code is governed by the Apache 2.0 license. -->
<svg width="16" height="16" viewBox="0 0 16 16" fill="none" xmlns="http://www.w3.org/2000/svg">
<path d="M5.4606 13.0896C4.90173 12.65 4.30558 12.2286 3.8982 11.6351C3.04101 10.5886 2.38101 9.37693 1.92981 8.10362C1.65709 7.27566 1.56369 6.38798 1.21211 5.59201C0.844333 5.01389 1.27514 4.38192 1.90839 4.19815C2.19033 4.14404 2.68607 3.87811 2.08766 4.06818C1.55118 4.46179 1.49926 3.71089 2.04938 3.66334C2.42482 3.61344 2.56302 3.30609 2.43463 3.02942C2.03163 2.76661 3.41187 2.47778 2.71739 2.08563C1.99392 1.30509 3.72936 1.15484 3.3012 2.04129C3.19872 2.72294 4.51386 1.91636 4.20871 2.70351C4.51886 3.08153 5.37013 2.78955 5.34901 3.31987C5.80081 3.35093 5.95587 3.73107 6.37999 3.76026C6.81955 3.95876 7.6164 4.11518 7.76597 4.61052C7.32988 4.95577 6.32004 3.89736 6.27153 4.85306C6.40327 6.26485 6.3697 7.71918 6.88624 9.06363C7.13056 9.8777 7.72284 10.5185 8.25774 11.1526C8.76953 11.7735 9.46277 12.2106 10.1694 12.5787C10.7892 12.8711 11.4574 13.0649 12.1329 13.1866C12.4069 12.977 12.8906 12.1979 13.318 12.5264C13.3383 12.8956 12.4697 13.2981 13.2772 13.2573C13.7513 13.1143 14.0802 13.624 14.4706 13.1642C14.8303 13.5903 15.9657 12.892 15.7098 13.7629C15.3637 13.9862 14.8589 13.8513 14.5123 14.1585C13.9407 13.873 13.4857 14.4139 12.8529 14.3455C12.1502 14.4713 11.4353 14.5222 10.7229 14.5233C9.55413 14.4309 8.3606 14.392 7.24872 13.9851C6.62236 13.8031 6.01111 13.4464 5.4606 13.0896ZM6.44769 13.5173C7.05931 13.7818 7.65737 14.0605 8.32766 14.1446C9.39109 14.2925 10.4893 14.52 11.5565 14.3125C11.0735 14.0944 10.5741 14.3975 10.0929 14.1565C9.51579 14.2807 8.89645 14.1249 8.30973 14.0482C7.64252 13.751 6.92248 13.5466 6.29767 13.1609C5.51694 12.8757 6.70145 13.5266 6.91229 13.5793C7.40035 13.8563 6.37559 13.4373 6.23112 13.3221C5.82234 13.0928 5.77025 13.1407 6.19064 13.3736C6.27531 13.4232 6.35898 13.4751 6.44769 13.5173ZM5.28389 12.6948C5.87657 12.9143 5.28127 12.278 5.00969 12.315C4.88936 12.1062 4.54997 11.9744 4.78937 11.8622C4.35872 12.0117 4.33825 11.2937 4.13582 11.3963C3.68023 11.2524 3.9585 10.7428 3.41581 10.4299C3.36627 10.1001 2.87663 9.81406 2.72045 9.31666C2.65147 9.06199 2.16725 8.33067 2.46471 9.01128C2.71798 9.66648 3.16359 10.2276 3.53442 10.788C3.82237 11.3217 4.16238 11.8794 4.68679 12.2122C4.86357 12.3818 5.03425 12.6417 5.28389 12.6948ZM7.89496 13.7971C8.13768 13.9503 9.31239 14.1329 8.57681 13.8599C8.45373 13.8859 7.21286 13.509 7.89496 13.7971ZM5.21188 11.6187C5.4967 11.8372 6.36056 11.6467 5.64807 11.4883C5.32379 11.3155 4.59293 11.1972 5.0911 11.5926L5.21188 11.6187ZM6.59068 12.3493C7.28715 12.5463 6.00501 11.9088 6.41884 12.2768L6.51056 12.3183L6.59068 12.3493ZM7.79737 13.0642C7.2016 12.9457 8.45697 13.0724 7.79737 13.0642ZM6.59659 11.9802C7.10255 12.0455 5.99458 11.6361 6.48558 11.9436L6.59659 11.9802ZM8.35503 13.0614C8.8274 12.779 8.67166 13.7227 9.15643 13.1412C9.63461 12.792 8.74348 13.5728 9.33282 13.2034C9.75902 12.9184 10.3885 13.3386 10.7862 13.4756C11.0722 13.4616 11.3503 13.7229 11.6434 13.564C12.2078 13.4119 10.5398 13.3385 10.977 13.0688C10.4606 13.2191 10.0791 12.8896 9.82495 12.5588C9.24567 12.425 8.5759 12.1289 8.2868 11.6162C8.16893 11.4238 8.45708 11.6434 8.18505 11.3287C7.83599 11.0183 7.66169 10.6658 7.42737 10.2884C7.14744 10.1391 7.11483 9.69956 7.08653 10.2737C7.08875 9.91135 6.74855 9.66746 6.66552 9.76884C6.66403 9.41987 7.02959 9.5948 6.77369 9.3366C6.71861 8.9749 6.53725 8.598 6.48274 8.18963C6.39804 7.99278 6.47081 7.57118 6.19367 8.0168C6.0927 8.48776 6.16016 7.43805 6.31718 7.7842C6.52327 7.43099 6.24319 7.47253 6.23171 7.52158C6.36596 7.22355 6.31668 6.80083 6.19668 6.96209C6.26822 6.64623 6.3097 5.79961 6.08962 5.94964C6.22302 5.61934 6.34262 4.43823 5.76348 4.88855C5.52877 4.89185 5.12232 4.97375 4.93019 5.0693C5.5326 5.40136 4.8696 5.18922 4.62438 5.13644C4.59243 5.4437 4.34955 5.31081 4.04611 5.31383C4.53077 5.37379 3.8101 5.80951 3.53206 5.64026C3.17097 5.81284 3.84369 6.24362 3.53931 6.37682C3.57672 6.57762 2.98612 6.3043 3.0325 6.76804C2.68196 6.62057 2.98423 7.31814 3.15961 7.08221C3.75583 7.24358 3.57933 7.61146 3.59452 7.96093C3.49737 8.16456 3.1149 7.48228 3.50934 7.51388C3.19816 7.00839 3.16512 7.33117 2.90654 7.566C2.84639 7.58305 3.56611 7.90012 3.11445 8.05691C3.51182 8.11822 3.52313 8.46596 3.60402 8.68601C3.84286 8.93477 3.79398 8.41132 4.07976 8.71028C3.89892 8.44393 3.12186 7.95984 3.74749 8.1151C3.74415 7.84704 3.63434 7.63088 3.82602 7.63613C4.01584 7.29237 3.62722 8.48369 4.05508 8.0468C4.17352 7.99509 4.20286 7.70261 4.41574 8.07442C4.72495 8.37861 4.52743 8.59903 4.09126 8.3205C4.16929 8.58523 4.67475 8.67983 4.57976 9.09381C4.68046 9.45792 4.82134 9.32381 4.94414 9.30276C5.04047 9.65653 5.09518 9.39639 5.09975 9.22804C5.54082 9.32247 5.43751 9.5832 5.57552 9.76536C5.87946 9.90255 5.14048 8.83544 5.66229 9.44448C6.21128 9.94014 5.86818 10.1471 5.37551 10.0676C5.68733 10.0425 5.78789 10.4892 6.17792 10.4735C6.5336 10.6427 6.7744 11.2926 6.16133 11.0221C5.9487 10.8303 5.19622 10.5938 5.81082 10.9585C6.37846 11.2214 6.8293 11.3786 7.37677 11.7086C7.76858 11.9883 7.93785 12.3087 8.08636 12.3721C7.75706 12.5294 7.09399 12.2465 7.58636 12.1598C7.27925 12.1038 6.93383 11.9485 7.22799 12.3312C7.47812 12.54 8.11416 12.5179 8.22818 12.5416C8.13154 12.7545 7.96567 12.7714 8.23214 12.788C7.93486 12.9464 8.32748 12.9709 8.35503 13.0614ZM7.7471 11.3447C7.56622 11.1555 7.51946 10.8012 7.71498 11.1095C7.81524 11.1498 8.03617 11.6885 7.7471 11.3447ZM6.5879 9.43561C6.37236 8.95272 6.7405 9.17185 6.63559 9.51476L6.5879 9.43561ZM4.60367 8.11233C4.5073 7.95391 4.3479 7.48906 4.39922 7.34716C4.44565 7.57827 4.89068 8.34173 4.61753 7.66342C4.31566 7.09482 4.97836 7.84798 5.04653 7.9898C5.07827 8.13089 4.86029 7.95126 5.00799 8.28207C4.73863 7.90543 4.84898 8.49011 4.60367 8.11233ZM3.60272 7.27142C3.37441 7.04455 3.2092 6.83541 3.61341 7.13062C3.76916 7.13669 3.26737 6.65503 3.65092 6.97766C4.05423 7.0512 3.85007 7.63895 3.60272 7.27142ZM3.73939 6.92362C3.07568 6.33296 4.5734 7.23248 3.84783 7.03313L3.73939 6.92362ZM5.64104 8.02852C5.35383 7.85631 5.56493 6.81616 5.66288 7.52755C5.9421 7.43722 5.64746 7.89494 5.85572 7.89071C5.8229 8.1795 5.72973 8.28333 5.64104 8.02852ZM3.86959 6.72953C3.4432 6.14124 5.10881 7.32461 4.14269 6.87874C4.04174 6.85234 3.92027 6.84291 3.86959 6.72953ZM5.23198 7.44766C5.34942 7.52977 5.1794 6.95231 5.23198 7.44766ZM3.93491 6.50501C4.18833 6.4508 4.98513 6.95008 4.25342 6.64762C4.17211 6.55762 3.9988 6.59851 3.93491 6.50501ZM6.11156 7.58964C6.14685 7.08313 6.30869 7.28709 6.11278 7.66215L6.11156 7.58964ZM4.12356 6.32875C4.22681 6.17729 3.84945 5.64396 4.17795 6.13745C4.31989 6.25023 4.58892 6.32639 4.35139 6.37384C4.72497 6.70339 4.26028 6.46314 4.12356 6.32875ZM5.58944 6.36923C5.73216 6.61511 5.54744 6.17352 5.58944 6.36923ZM5.77531 6.05738C5.64357 5.82522 5.94168 5.0343 5.97494 5.52482C5.83589 5.90703 5.93483 6.12084 6.03183 5.60819C6.21096 5.20474 5.99314 6.40434 5.77531 6.05738ZM6.32147 11.7118C6.69874 11.8086 6.69681 11.6531 6.35584 11.6069C6.17243 11.4362 5.59373 11.2553 6.1117 11.5857C6.146 11.6726 6.2544 11.6706 6.32147 11.7118ZM4.98196 10.8221C5.1898 10.9771 5.76485 11.2613 5.27806 10.8811C5.44218 10.6904 4.96392 10.5889 5.12257 10.4613C4.71903 10.2144 4.80423 10.2364 5.08695 10.2441C4.60197 10.0274 5.15695 10.0436 5.13082 9.93249C4.94382 9.89556 4.20198 9.60275 4.6384 9.95654C4.19475 9.73034 4.53268 10.0408 4.39858 10.008C3.94492 9.88429 4.80259 10.3535 4.32653 10.237C4.5868 10.4433 5.02708 10.7653 4.43657 10.4553C4.35876 10.5673 4.85914 10.737 4.98196 10.8221ZM9.69581 13.5865C9.8948 13.3937 9.70394 13.8936 10.0255 13.5393C10.029 13.2856 10.0156 13.1358 9.65597 13.4439C9.55682 13.4989 9.51256 13.7327 9.69581 13.5865ZM6.43709 11.4943C6.65845 11.6909 7.45376 11.6385 6.70595 11.5185C6.59519 11.3547 6.00265 11.3941 6.43709 11.4943ZM10.2635 13.7776C9.89794 13.8013 10.6408 13.3779 10.2635 13.7776ZM2.79105 9.04514C2.4695 8.58634 2.59116 8.38012 2.28107 8.0055C2.22237 7.71903 1.74911 7.06897 2.03629 7.75766C2.29934 8.16044 2.3775 8.78406 2.79105 9.04514ZM10.5644 13.7164C10.9009 13.4994 10.4868 13.5327 10.5034 13.7363L10.5644 13.7164ZM11.1044 13.863C11.5356 13.552 10.843 13.8035 11.0139 13.922L11.1044 13.863ZM3.86942 9.25192C4.18552 9.32274 5.13265 10.0304 4.57389 9.30086C4.28771 9.21615 4.45934 8.51661 4.16743 8.64042C4.36336 8.96772 4.32863 9.10703 3.91727 8.90069C3.40026 8.64831 3.62673 9.02576 3.72777 9.12978C3.59008 9.16107 3.9099 9.24929 3.86942 9.25192ZM2.42924 8.11455C2.48584 7.88049 1.90816 6.82687 2.15646 7.58661C2.24609 7.74576 2.23697 8.04738 2.42924 8.11455ZM8.94697 12.0504C8.68509 12.0453 8.88072 11.8297 8.94697 12.0504ZM12.3182 13.5732C12.6311 13.5098 13.344 13.7325 13.4592 13.4903C13.0793 13.4811 12.1448 13.2222 12.1006 13.552L12.1838 13.5651L12.3182 13.5732ZM2.57346 6.76983C2.88892 6.64591 1.99886 6.51352 2.509 6.74642L2.57346 6.76983ZM1.5883 5.66769C1.53129 5.34083 1.53909 4.76709 2.08447 4.96099C1.35647 5.10552 2.58832 5.86581 2.43276 5.26553C2.73886 5.28052 3.03157 5.08463 2.87093 5.38191C3.47404 5.3153 3.89217 4.79231 4.47474 4.8656C4.92853 4.80555 5.4247 4.76 5.91371 4.57734C6.31578 4.54837 6.70283 4.11549 6.48244 3.8589C5.93414 3.81251 5.36018 3.88111 4.75415 4.00157C4.0826 4.14118 3.4726 4.40642 2.79502 4.52028C2.13457 4.60899 2.92786 4.76472 2.73868 4.79941C2.39405 4.91899 3.14969 4.99963 2.694 5.12568C2.41258 5.07217 2.11966 4.97548 2.23987 4.67892C1.60722 4.76101 1.05129 5.02358 1.55113 5.66739L1.5883 5.66769ZM3.11277 4.89129C3.26111 4.34483 3.90748 5.34095 3.3559 4.96387C3.29002 4.91456 3.18167 4.87434 3.11277 4.89129ZM3.41348 4.63066C3.4328 4.37921 4.03578 4.76378 3.5129 4.72118L3.41348 4.63066ZM3.88046 4.41745C4.10658 4.14576 5.16099 4.24405 4.3892 4.39096C4.18233 4.23522 4.02376 4.48279 3.88046 4.41745ZM5.64693 4.2032C5.78967 3.82916 6.20087 4.05311 5.71298 4.12804C5.72358 4.16784 5.69868 4.32114 5.64693 4.2032ZM2.49574 6.18683C2.92225 5.92565 2.04295 5.96024 2.49574 6.18683ZM14.8277 13.578C15.1684 13.5791 15.8601 13.4721 15.1187 13.4725C15.0024 13.4906 14.4408 13.4867 14.8277 13.578ZM3.08849 6.12118C3.36426 6.10224 3.51994 5.817 3.03516 5.8334C2.28384 5.75561 3.69804 6.09065 2.93878 5.99485C2.83676 6.06241 3.08257 6.13988 3.08849 6.12118ZM2.70235 3.94292C3.1945 3.7755 3.86751 3.58736 4.09988 4.02536C3.86339 3.74072 4.00444 3.46051 4.22781 3.87668C4.54366 4.29775 4.70178 3.68516 4.49635 3.54393C4.73045 3.83481 4.99672 3.97226 4.65309 3.56231C5.02651 3.11313 3.9054 3.62113 3.65058 3.61602C3.52797 3.67105 2.38479 3.90756 2.70235 3.94292ZM2.99078 3.39053C3.27145 3.17869 3.96151 3.51654 3.5187 3.17999C3.47541 3.14175 2.54896 3.4352 2.99078 3.39053ZM4.01404 3.43278C4.34254 3.44116 3.87235 2.99148 4.26379 3.19524C4.1995 2.98522 3.80804 2.9459 3.61666 2.86199C3.50842 3.05401 3.83699 3.43536 4.01404 3.43278ZM3.58843 2.60401C4.1178 2.53379 3.45349 2.37604 3.48176 2.59837L3.58843 2.60401ZM2.80752 1.99296C2.43478 1.50639 3.5085 2.07476 3.1298 1.5653C2.81106 1.31148 2.50477 1.85092 2.80752 1.99296ZM7.59099 4.56948C7.76195 4.26642 6.88518 4.16097 7.47581 4.46207C7.53019 4.48024 7.51788 4.59044 7.59099 4.56948Z" fill="white"/>
</svg>
