<!-- Copyright 2000-2023 JetBrains s.r.o. and contributors. Use of this source code is governed by the Apache 2.0 license. -->
<svg width="16" height="16" viewBox="0 0 16 16" fill="none" xmlns="http://www.w3.org/2000/svg">
<path d="M6.58589 3H8.71446V12.756C7.62417 12.9622 6.82152 13.0434 5.95308 13.0434C3.3533 13.0407 2 11.8792 2 9.64854C2 7.49931 3.43549 6.10445 5.65995 6.10445C6.00514 6.10445 6.2681 6.13162 6.58589 6.213V3ZM6.66048 7.97115C6.41117 7.88972 6.20574 7.8626 5.94273 7.8626C4.86614 7.8626 4.24428 8.51929 4.24428 9.67016C4.24428 10.7907 4.83877 11.4094 5.92907 11.4094C6.16463 11.4094 6.3564 11.3961 6.66048 11.3554V7.97115Z" fill="#CED0D6"/>
<path d="M12.1207 6.36638V11.2511C12.1207 12.9333 11.9947 13.7422 11.6249 14.4397C11.2797 15.1102 10.825 15.533 9.88532 16L7.91016 15.0692C8.84979 14.6326 9.30453 14.2467 9.59494 13.6578C9.89898 13.0557 9.99487 12.3582 9.99487 10.5238V6.36642L12.1207 6.36638ZM9.99487 3H12.1234V5.16282H9.99487V3Z" fill="#CED0D6"/>
</svg>
