<svg viewBox="0 0 512 512" xmlns="http://www.w3.org/2000/svg"><clipPath id="a"><circle cx="256" cy="256" r="240"/></clipPath><g clip-path="url(#a)"><path d="m0 0h512v512h-512z" fill="#083042"/><path d="m416.23 236.62h-10.67c-1.47 0-2.65-1.19-2.65-2.65v-9.85c0-1.47 1.19-2.65 2.65-2.65h23.37c1.47 0 2.65 1.19 2.65 2.65v66.9c0 1.47-1.19 2.65-2.65 2.65h-10.05c-1.47 0-2.65-1.19-2.65-2.65z" fill="#f86734"/><path d="m455.51 236.62h-10.67c-1.47 0-2.65-1.19-2.65-2.65v-9.85c0-1.47 1.19-2.65 2.65-2.65h23.37c1.47 0 2.65 1.19 2.65 2.65v66.9c0 1.47-1.19 2.65-2.65 2.65h-10.05c-1.47 0-2.65-1.19-2.65-2.65z" fill="#f86734"/><g fill="#d6f0ff"><circle cx="364.12" cy="404.59" r="4.34"/><circle cx="275.46" cy="438.37" r="4.84"/><circle cx="184.52" cy="424.18" r="5.36"/><circle cx="110.42" cy="365.08" r="5.89"/><circle cx="75.94" cy="276.6" r="6.44"/><circle cx="89.48" cy="185.55" r="6.98"/><circle cx="147.97" cy="111.08" r="7.54"/><circle cx="236.63" cy="74.8" r="8.1"/><circle cx="327.09" cy="86.96" r="8.66"/><circle cx="401.05" cy="146.19" r="9.22"/></g><circle cx="255.45" cy="257.57" fill="#3ddb85" r="128.11"/><circle cx="339.23" cy="257.57" fill="#fff" r="21.48"/></g></svg>
