<svg width="512" height="512" viewBox="0 0 512 512" fill="none" xmlns="http://www.w3.org/2000/svg">
    <g id="android_16_platlogo">
        <rect id="patch_frame" x="58.5" y="58.5" width="395" height="395" rx="68.5" fill="#1D2126" stroke="#4285F4" stroke-width="55"/>
        <path id="ANDROID"
              d="M152.157 72C149.469 72 148.125 72 148.125 72C148.125 72 148.581 70.818 149.493 68.454L157.269 48.222C157.773 46.89 158.025 46.224 158.025 46.224C158.025 46.224 158.913 46.224 160.689 46.224C162.405 46.224 163.263 46.224 163.263 46.224C163.263 46.224 163.521 46.884 164.037 48.204L171.759 68.418C172.683 70.806 173.145 72 173.145 72C173.145 72 171.831 72 169.203 72C167.643 72 166.863 72 166.863 72C166.863 72 166.683 71.448 166.323 70.344L161.481 56.376L160.617 53.496H160.509L159.645 56.358L154.767 70.308C154.419 71.436 154.245 72 154.245 72C154.245 72 153.549 72 152.157 72ZM152.949 66.996L154.479 62.874H166.287L167.871 66.996H152.949ZM186.631 72C184.759 72 183.823 72 183.823 72C183.823 72 183.823 71.148 183.823 69.444V49.59C183.823 47.346 183.823 46.224 183.823 46.224C183.823 46.224 185.065 46.224 187.549 46.224C189.001 46.224 189.727 46.224 189.727 46.224C189.727 46.224 190.021 46.686 190.609 47.61L199.807 62.046H199.915L199.807 58.05V48.708C199.807 47.052 199.807 46.224 199.807 46.224C199.807 46.224 200.737 46.224 202.597 46.224C204.469 46.224 205.405 46.224 205.405 46.224C205.405 46.224 205.405 47.052 205.405 48.708V69.012C205.405 71.004 205.405 72 205.405 72C205.405 72 204.307 72 202.111 72C200.839 72 200.203 72 200.203 72C200.203 72 199.945 71.604 199.429 70.812L189.421 55.53H189.295L189.421 59.508V69.444C189.421 71.148 189.421 72 189.421 72C189.421 72 188.491 72 186.631 72ZM221.683 72C219.559 72 218.497 72 218.497 72C218.497 72 218.497 70.932 218.497 68.796V49.41C218.497 47.286 218.497 46.224 218.497 46.224C218.497 46.224 219.559 46.224 221.683 46.224H227.677C231.613 46.224 234.787 47.406 237.199 49.77C239.611 52.122 240.817 55.23 240.817 59.094C240.817 62.982 239.611 66.108 237.199 68.472C234.787 70.824 231.613 72 227.677 72H221.683ZM224.293 66.852H227.353C229.681 66.876 231.523 66.21 232.879 64.854C234.247 63.486 234.931 61.584 234.931 59.148C234.931 56.736 234.253 54.864 232.897 53.532C231.541 52.2 229.693 51.534 227.353 51.534H224.293V66.852ZM255.401 72C253.469 72 252.503 72 252.503 72C252.503 72 252.503 71.13 252.503 69.39V49.41C252.503 47.286 252.503 46.224 252.503 46.224C252.503 46.224 253.565 46.224 255.689 46.224H262.763C265.319 46.224 267.467 46.98 269.207 48.492C270.959 50.004 271.835 52.02 271.835 54.54C271.835 56.904 271.001 58.848 269.333 60.372C267.677 61.884 265.517 62.64 262.853 62.64H254.915V58.482H262.205C263.285 58.482 264.191 58.146 264.923 57.474C265.667 56.79 266.039 55.896 266.039 54.792C266.039 53.796 265.679 52.962 264.959 52.29C264.251 51.606 263.381 51.264 262.349 51.264H258.299V69.39C258.299 71.13 258.299 72 258.299 72C258.299 72 257.333 72 255.401 72ZM268.703 72C267.551 72 266.975 72 266.975 72C266.975 72 266.759 71.664 266.327 70.992L259.487 60.444L265.607 60.228L270.917 68.004C272.765 70.668 273.689 72 273.689 72C273.689 72 272.027 72 268.703 72ZM295.491 72.594C291.771 72.594 288.603 71.346 285.987 68.85C283.383 66.342 282.081 63.09 282.081 59.094C282.081 55.086 283.389 51.84 286.005 49.356C288.633 46.872 291.789 45.63 295.473 45.63C299.157 45.63 302.313 46.89 304.941 49.41C307.569 51.918 308.883 55.146 308.883 59.094C308.883 63.018 307.575 66.252 304.959 68.796C302.355 71.328 299.199 72.594 295.491 72.594ZM295.473 66.996C297.645 66.996 299.451 66.252 300.891 64.764C302.343 63.264 303.069 61.374 303.069 59.094C303.069 56.79 302.343 54.906 300.891 53.442C299.439 51.966 297.633 51.228 295.473 51.228C293.337 51.228 291.537 51.966 290.073 53.442C288.621 54.918 287.895 56.802 287.895 59.094C287.895 61.386 288.615 63.276 290.055 64.764C291.507 66.252 293.313 66.996 295.473 66.996ZM323.519 72C321.563 72 320.585 72 320.585 72C320.585 72 320.585 71.118 320.585 69.354V48.87C320.585 47.106 320.585 46.224 320.585 46.224C320.585 46.224 321.563 46.224 323.519 46.224C325.475 46.224 326.453 46.224 326.453 46.224C326.453 46.224 326.453 47.106 326.453 48.87V69.354C326.453 71.118 326.453 72 326.453 72C326.453 72 325.475 72 323.519 72ZM342.73 72C340.606 72 339.544 72 339.544 72C339.544 72 339.544 70.932 339.544 68.796V49.41C339.544 47.286 339.544 46.224 339.544 46.224C339.544 46.224 340.606 46.224 342.73 46.224H348.724C352.66 46.224 355.834 47.406 358.246 49.77C360.658 52.122 361.864 55.23 361.864 59.094C361.864 62.982 360.658 66.108 358.246 68.472C355.834 70.824 352.66 72 348.724 72H342.73ZM345.34 66.852H348.4C350.728 66.876 352.57 66.21 353.926 64.854C355.294 63.486 355.978 61.584 355.978 59.148C355.978 56.736 355.3 54.864 353.944 53.532C352.588 52.2 350.74 51.534 348.4 51.534H345.34V66.852Z"
              fill="white"/>
        <g id="baklava_tray_star">
            <path id="slice15" d="M196.971 198.17H257.84L196.971 259.04V198.17Z" fill="#1F8E3D"/>
            <path id="slice14" d="M318.709 319.909L257.84 319.909L318.709 259.04L318.709 319.909Z" fill="#1F8E3D"/>
            <path id="slice13" d="M318.709 198.17L318.709 259.04L257.84 198.17L318.709 198.17Z" fill="#34A853"/>
            <path id="slice12" d="M196.971 319.909L196.971 259.04L257.84 319.909L196.971 319.909Z" fill="#34A853"/>
            <path id="slice11" d="M257.84 259.04L196.971 259.04L257.84 198.171L257.84 259.04Z" fill="#34A853"/>
            <path id="slice10" d="M257.84 198.17L196.971 198.17L257.84 137.301L257.84 198.17Z" fill="#34A853"/>
            <path id="slice09" d="M257.84 319.909L318.709 319.909L257.84 380.778L257.84 319.909Z" fill="#34A853"/>
            <path id="slice08" d="M257.84 259.04L318.709 259.04L257.84 319.91L257.84 259.04Z" fill="#34A853"/>
            <path id="slice07" d="M318.709 259.04L379.579 259.04L318.709 319.91L318.709 259.04Z" fill="#34A853"/>
            <path id="slice06" d="M196.971 259.04L136.101 259.04L196.971 198.171L196.971 259.04Z" fill="#34A853"/>
            <path id="slice05" d="M257.84 259.04L257.84 198.171L318.709 259.04L257.84 259.04Z" fill="#1F8E3D"/>
            <path id="slice04" d="M257.84 198.17L257.84 137.301L318.709 198.17L257.84 198.17Z" fill="#1F8E3D"/>
            <path id="slice03" d="M257.84 319.909L257.84 380.778L196.971 319.909L257.84 319.909Z" fill="#1F8E3D"/>
            <path id="slice02" d="M318.709 259.04L318.709 198.171L379.579 259.04L318.709 259.04Z" fill="#1F8E3D"/>
            <path id="slice01" d="M196.971 259.04L196.971 319.91L136.101 259.04L196.971 259.04Z" fill="#1F8E3D"/>
            <path id="slice00" d="M257.84 259.04L257.84 319.91L196.971 259.04L257.84 259.04Z" fill="#1F8E3D"/>
        </g>
        <path id="number16"
              d="M342.409 405.074C340.766 405.074 339.348 404.477 338.153 403.282C336.989 402.088 336.406 400.654 336.406 398.982V355.485L328.567 361.129C327.462 361.935 326.222 362.219 324.849 361.98C323.475 361.741 322.385 361.054 321.579 359.919C320.772 358.785 320.488 357.53 320.727 356.157C320.996 354.753 321.683 353.633 322.788 352.797L339.497 340.881C339.915 340.582 340.363 340.314 340.841 340.075C341.319 339.806 341.961 339.671 342.767 339.671C344.35 339.671 345.679 340.239 346.754 341.374C347.859 342.479 348.412 343.852 348.412 345.495V398.982C348.412 400.654 347.814 402.088 346.62 403.282C345.455 404.477 344.051 405.074 342.409 405.074ZM382.377 405.522C375.449 405.522 369.804 403.447 365.444 399.296C361.114 395.144 358.949 389.873 358.949 383.482C358.949 379.122 359.919 375.046 361.86 371.253C363.831 367.46 366.534 363.339 369.969 358.889L382.646 342.538C383.572 341.344 384.766 340.627 386.23 340.388C387.723 340.149 389.082 340.448 390.306 341.284C391.68 342.27 392.486 343.554 392.725 345.137C392.964 346.719 392.546 348.153 391.471 349.437L383.452 359.651C382.228 361.174 379.719 363.309 375.926 366.057C372.164 368.804 369.595 374.553 368.221 383.303L361.726 383.258C362.652 376.21 365.504 371.029 370.282 367.714C375.09 364.399 380.272 362.742 385.826 362.742C391.322 362.742 396.01 364.653 399.893 368.476C403.775 372.268 405.716 377.211 405.716 383.303C405.716 389.724 403.521 395.04 399.131 399.251C394.771 403.432 389.186 405.522 382.377 405.522ZM382.332 395.04C385.826 395.04 388.693 393.965 390.933 391.815C393.203 389.664 394.338 386.902 394.338 383.527C394.338 380.212 393.203 377.48 390.933 375.329C388.693 373.149 385.856 372.059 382.422 372.059C378.958 372.059 376.076 373.149 373.776 375.329C371.507 377.48 370.372 380.227 370.372 383.572C370.372 386.887 371.492 389.634 373.731 391.815C376.001 393.965 378.868 395.04 382.332 395.04Z"
              fill="#E8F5E9"/>
        <rect id="diamond_outline" x="257.84" y="128.706" width="184.32" height="184.32" rx="10.2494" transform="rotate(45 257.84 128.706)"
              stroke="#5F6368" stroke-width="14.3349"/>
        <g id="zoomy">
            <path id="Subtract" fill-rule="evenodd" clip-rule="evenodd"
                  d="M172.353 318.422C172.818 317.837 172.778 316.987 172.249 316.459V316.459C171.631 315.841 170.606 315.905 170.06 316.587C133.391 362.417 114.184 398.637 123.921 408.374C138.509 422.962 212.535 372.586 289.264 295.857C296.618 288.503 303.729 281.175 310.565 273.921C311.305 273.135 311.286 271.903 310.522 271.139L306.337 266.954C305.538 266.156 304.238 266.176 303.463 266.998C296.672 274.202 289.587 281.503 282.248 288.842C212.272 358.818 145.748 405.747 133.662 393.66C126.026 386.024 141.946 356.659 172.353 318.422Z"
                  fill="#C6FF00"/>
        </g>
        <g id="droidship">
            <g id="sensors">
                <path id="AD"
                      d="M347.267 248.089C348.867 247.66 350.512 248.61 350.941 250.21C351.37 251.81 350.42 253.455 348.82 253.884L347.267 248.089ZM348.82 253.884L321.452 261.217L319.899 255.422L347.267 248.089L348.82 253.884Z"
                      fill="black"/>
                <path id="AS"
                      d="M325.111 230.175C325.54 228.575 327.185 227.625 328.785 228.054C330.386 228.483 331.335 230.128 330.907 231.728L325.111 230.175ZM330.907 231.728L323.573 259.096L317.778 257.543L325.111 230.175L330.907 231.728Z"
                      fill="black"/>
            </g>
            <path id="craft"
                  d="M335.665 242.984C327.494 234.813 314.434 234.623 306.498 242.559L288.774 260.283C287.243 261.814 287.243 264.3 288.774 265.831C290.306 267.363 292.791 267.363 294.323 265.831L299.1 261.054C302.165 257.989 307.132 257.989 310.197 261.054L317.595 268.452C320.66 271.517 320.66 276.484 317.595 279.549L312.818 284.326C311.286 285.858 311.286 288.344 312.818 289.875C314.349 291.406 316.835 291.406 318.366 289.875L336.09 272.151C344.026 264.215 343.836 251.155 335.665 242.984Z"
                  fill="black"/>
        </g>
        <g id="starfield">
            <rect id="star15" x="123.071" y="117.004" width="10" height="10" transform="rotate(45 123.071 117.004)" fill="#E8F5E9"/>
            <rect id="star14" x="108.071" y="332" width="10" height="10" transform="rotate(45 108.071 332)" fill="#E8F5E9"/>
            <rect id="star13" x="120.607" y="299" width="15" height="15" transform="rotate(45 120.607 299)" fill="#E8F5E9"/>
            <rect id="star12" x="123.071" y="183.435" width="10" height="10" transform="rotate(45 123.071 183.435)" fill="#E8F5E9"/>
            <rect id="star11" x="174.606" y="137" width="15" height="15" transform="rotate(45 174.606 137)" fill="#E8F5E9"/>
            <rect id="star10" x="145.214" y="139.149" width="10" height="10" transform="rotate(45 145.214 139.149)" fill="#E8F5E9"/>
            <rect id="star09" x="215.607" y="385" width="15" height="15" transform="rotate(45 215.607 385)" fill="#E8F5E9"/>
            <rect id="star08" x="227.071" y="110" width="10" height="10" transform="rotate(45 227.071 110)" fill="#E8F5E9"/>
            <rect id="star07" x="400.569" y="124.075" width="10" height="10" transform="rotate(135 400.569 124.075)" fill="#E8F5E9"/>
            <rect id="star06" x="388.213" y="149.606" width="15" height="15" transform="rotate(135 388.213 149.606)" fill="#E8F5E9"/>
            <rect id="star05" x="331.142" y="121.071" width="10" height="10" transform="rotate(135 331.142 121.071)" fill="#E8F5E9"/>
            <rect id="star04" x="338.142" y="153.071" width="10" height="10" transform="rotate(135 338.142 153.071)" fill="#E8F5E9"/>
            <rect id="star03" x="374.142" y="320.071" width="10" height="10" transform="rotate(135 374.142 320.071)" fill="#E8F5E9"/>
            <rect id="star02" x="307.213" y="109.607" width="15" height="15" transform="rotate(135 307.213 109.607)" fill="#E8F5E9"/>
            <rect id="star01" x="181.142" y="353.071" width="10" height="10" transform="rotate(135 181.142 353.071)" fill="#E8F5E9"/>
            <rect id="star00" x="400.573" y="190.501" width="15" height="15" transform="rotate(135 400.573 190.501)" fill="#E8F5E9"/>
        </g>
    </g>
</svg>
