<svg viewBox="0 0 1024 1024" xmlns="http://www.w3.org/2000/svg"><path d="m0 0h1024v1024h-1024z" fill="#ed1d24"/><ellipse cx="512" cy="512" fill="#ed1d24" rx="454.7" ry="254.12" transform="matrix(.98385382 -.17897393 .17897393 .98385382 -83.35 99.88)"/><ellipse cx="512" cy="512" fill="#fff" rx="420.59" ry="227.06" transform="matrix(.98385382 -.17897393 .17897393 .98385382 -83.35 99.88)"/><g fill="#ed1d24"><path d="m265.91 392.98-72.31 13.15-62.33 260.06 52.16 37.14 7.01-32.36 82.15-14.94 19.55 71.15 70.35-12.79-96.57-321.41zm-64.43 218.56 25.8-134.79 30.78 124.5-56.57 10.29z"/><path d="m324.21 499.57 32.27-5.87.38 22.44c2.58-9.3 8.4-27.46 32.94-31.92 8.27-1.5 16.3-1.25 23.17 2.05 8.45 4.16 13.24 13.26 14.69 21.26 1.96 10.76 2.23 23.24 2.18 29.23l1.28 83.82-37.78 6.87-1.01-83.87c-.63-14.42-.65-16.12-1.1-18.6-1.86-10.21-11.38-9.33-13.59-8.93-15.17 2.76-15.29 19.31-15.02 41.2l.93 75.62-37.51 6.82-1.84-140.13z"/><path d="m544.66 409.9 2.57 189.57-32.27 5.87-.08-17.65c-4.06 9-10.35 22.97-31.04 26.73-33.1 6.02-41.67-28.61-44.28-42.95-3.51-19.31-11.16-94.27 39.31-103.45 20.69-3.76 26.48 7.72 29.14 12.94l-1.13-64.19zm-36.25 157.88c1.2-18.45.32-56.19-.98-63.36-2.11-11.58-8.6-14.39-14.39-13.34-10.2 1.86-13.16 13.79-14.04 16.8-3.88 20.94-2.75 47.51-.35 60.75 2.01 11.03 6.82 18.7 17.03 16.85 10.48-1.91 12.21-12.76 12.74-17.7z"/><path d="m557.25 457.19 32.27-5.87.28 28.16c7.19-21.54 14.66-33.72 38.53-37.21l1.83 39.84c-12.41 2.26-27.48 5.57-32.07 25.78-1.68 8-2 29.71-1.83 38.51l.6 44.05-37.51 6.82-2.11-140.08z"/><path d="m651.63 571.94c-16-9.63-22.37-28.98-25.07-43.88-6.52-35.85.7-87.03 49.24-95.86 37.23-6.77 53.53 20.18 58.9 49.69 3.41 18.75 4.44 51.05-11.25 74.42-9.6 14.57-26.95 19.43-36.88 21.24-4.41.8-21.16 2.71-34.93-5.61zm42.87-93.27c-1.6-8.83-4.34-22.29-15.65-20.23-22.06 4.01-13.41 65.69-11.6 75.62 2.16 11.86 6.04 19.13 16.25 17.27 19.03-3.46 13.26-60.25 11-72.66z"/><path d="m742.1 372.28 39.16-7.12.43 38.39-39.16 7.12zm1.31 51.05 37.78-6.87 1.84 140.13-37.51 6.82z"/><path d="m898.5 345.55 2.57 189.57-32.27 5.87-.08-17.65c-4.06 9-10.35 22.97-31.04 26.73-33.1 6.02-41.67-28.61-44.28-42.95-3.51-19.31-11.16-94.27 39.31-103.45 20.68-3.76 26.48 7.72 29.14 12.94l-1.13-64.19zm-36.25 157.88c1.2-18.45.32-56.19-.98-63.36-2.11-11.58-8.6-14.39-14.39-13.34-10.2 1.86-13.16 13.79-14.04 16.8-3.89 20.94-2.75 47.51-.35 60.75 2.01 11.03 6.82 18.7 17.02 16.85 10.48-1.91 12.21-12.76 12.74-17.7z"/></g><ellipse cx="512" cy="512" fill="none" rx="454.7" ry="254.12" stroke="#fff" stroke-miterlimit="10" stroke-width="20" transform="matrix(.98385382 -.17897393 .17897393 .98385382 -83.35 99.88)"/><g fill="#fff"><path d="m138.72 658.81 60.38-246.55 31.26-5.68z" opacity=".5"/><path d="m513 515.55-1.21-94.94 21.45-4.08z" opacity=".5"/><path d="m562.24 532.74-.88-72.55 13.03-2.37z" opacity=".5"/><path d="m328.96 576.25-.88-72.54 13.03-2.37z" opacity=".5"/><path d="m748.18 498.92-.88-72.54 13.02-2.37z" opacity=".5"/><path d="m745.65 395.56-.25-20.51 13.03-2.37z" opacity=".5"/><path d="m692.39 434.57c-7.44-.1-54.59-.12-63.89 60.73 16.9-47.32 63.89-60.73 63.89-60.73z" opacity=".5"/><path d="m495.74 472.31c-10.61-.27-45.36-6.43-54.35 60.05 15.54-47.07 54.35-60.05 54.35-60.05z" opacity=".5"/><path d="m866 451.11-1.21-94.94 21.45-4.09z" opacity=".5"/><path d="m848.74 407.86c-10.61-.27-45.36-6.43-54.35 60.05 15.54-47.07 54.35-60.05 54.35-60.05z" opacity=".5"/><path d="m397.48 487.1c-5.97.28-22.24-.9-35.62 24.83 14.96-16.44 35.62-24.83 35.62-24.83z" opacity=".5"/><path d="m620.06 449c-6.84 2.33-12.12 2.23-18.84 18.91 7.78-10.52 18.84-18.91 18.84-18.91z" opacity=".5"/></g></svg>