<svg viewBox="0 0 560 560" xmlns="http://www.w3.org/2000/svg"><circle cx="280" cy="280" fill="#ff0fc4" r="280"/><g fill="#fff"><path d="m264.08 240.73v9.82c7.31-7.15 17.14-11.56 28.07-11.56 22.64 0 40.8 18.48 40.8 41.12s-18.16 40.88-40.8 40.88c-10.93 0-20.28-4.09-27.59-10.93v28.93h-11.32v-98.27h10.85zm1.73 24.14c-.47.79-1.26 2.04-1.26 4.79v21.07c0 1.97.47 3.07 1.1 4.17 5.19 8.88 14.78 14.94 25.63 14.94 16.43 0 29.95-13.44 29.95-29.87s-13.52-29.8-29.95-29.8c-10.77 0-20.28 5.9-25.47 14.7z"/><path d="m445.73 240.73v9.82c7.31-7.15 17.14-11.56 28.07-11.56 22.64 0 40.8 18.48 40.8 41.12s-18.16 40.88-40.8 40.88c-10.93 0-20.28-4.09-27.59-10.93v28.93h-11.32v-98.27h10.85zm1.73 24.14c-.47.79-1.26 2.04-1.26 4.79v21.07c0 1.97.47 3.07 1.1 4.17 5.19 8.88 14.78 14.94 25.63 14.94 16.43 0 29.95-13.44 29.95-29.87s-13.52-29.8-29.95-29.8c-10.77 0-20.28 5.9-25.47 14.7z"/><path d="m169.49 279.88c0 22.64-18.32 41.12-40.81 41.12s-41.04-18.48-41.04-41.12 18.39-40.88 41.04-40.88 40.81 18.39 40.81 40.88zm-11.4.16c0-16.43-13.13-29.87-29.41-29.87s-29.4 13.44-29.4 29.87 12.89 29.8 29.4 29.8 29.41-13.52 29.41-29.8z"/><path d="m423.79 279.88c0 22.64-18.32 41.12-40.81 41.12s-41.04-18.48-41.04-41.12 18.39-40.88 41.04-40.88 40.81 18.39 40.81 40.88zm-11.4.16c0-16.43-13.13-29.87-29.41-29.87s-29.4 13.44-29.4 29.87 12.89 29.8 29.4 29.8 29.41-13.52 29.41-29.8z"/><path d="m229.02 221h11.17v11.48h-11.17z"/><path d="m229.02 240.65h11.17v78.62h-11.17z"/><path d="m65.4 221h11.16v98.27h-11.16z"/><path d="m180.58 221h11.16v98.27h-11.16z"/><path d="m204.8 221h11.16v98.27h-11.16z"/></g></svg>