<svg height="1003" preserveAspectRatio="xMidYMid meet" viewBox="0 0 10030 10030" width="1003" xmlns="http://www.w3.org/2000/svg"><path d="m5080 9983c-555-55-963-160-1472-377-21-9-38-13-38-9 0 5-4 3-8-3s-71-43-150-83c-347-174-688-404-961-649-64-57-199-186-301-287-102-100-260-256-352-346-92-89-165-166-162-170 2-4-17-25-43-45-27-21-67-55-90-76-24-21-49-38-58-38-8 0-14-4-12-9 1-5-59-73-135-152-233-246-379-429-543-678-603-919-854-2026-705-3114 94-681 345-1340 731-1914 428-637 1025-1166 1709-1512 381-193 804-336 1245-421 456-87 1057-93 1535-14 462 77 844 199 1265 403 353 172 681 386 965 630 105 90 397 380 462 459 33 40 63 70 67 67 11-6 341 330 433 442 576 697 918 1484 1033 2376 21 168 21 926 0 1094-93 721-333 1369-730 1968-106 160-285 394-378 495-32 34-34 38-8 15 41-37 244-288 327-405 505-711 802-1581 832-2435 24-669-76-1266-313-1870-61-157-236-511-320-649-117-194-345-519-390-556-8-7-15-17-15-22 0-14 238 217 343 334 48 53 93 95 100 93 17-7 41 11 33 24-4 6-13 8-19 4s11 21 37 55c37 46 55 62 74 62 20 0 22 2 12 15-14 17-5 35 18 35 12 0 13 3 5 8-9 5-6 16 12 38 13 16 57 79 98 139 239 354 426 737 569 1170 29 88 56 162 61 163 4 2 7 13 7 25 1 22 1 22 15 3 8-11 15-15 15-9 0 7-5 15-10 18-6 4-7 11-4 17 4 7 2 8-4 4-7-4-12-1-12 8 0 10 9 16 25 16 18 0 30-10 45-37 19-34 21-29 4 11-3 9 2 16 13 19 12 3 9 5-9 6-25 1-42 21-18 21 6 0 10 5 10 12 0 6-7 4-18-5-34-31-43-13-18 36 8 15 10 27 5 27-9 0-5 34 8 70 3 8 7 29 9 45 4 29 11 65 14 75 1 3 1 13 0 24-1 10 2 16 7 13s7 7 5 23c-2 17-1 38 3 47 5 10 9 23 9 28 18 138 17 133 39 129 20-4 20-4-1 6-16 6-22 16-18 27 3 10 7 47 10 83 5 60 8 121 21 375 6 122-13 505-31 640-8 61-19 142-24 180-11 77-40 219-75 363-14 56-19 94-13 98 5 4 3 13-5 22-8 10-18 33-22 52s-12 41-17 47c-6 7-8 20-4 28 3 8 1 15-3 15-5 0-21 37-36 83-55 167-171 447-255 612-238 469-473 790-869 1185-204 204-392 368-509 445-28 18-41 33-37 43s0 12-10 8c-10-3-51 17-103 51-489 317-860 483-1422 632-350 93-685 131-1135 129-170-1-326-3-345-5zm-7-440c-40-2-106-2-145 0-40 1-8 3 72 3s112-2 73-3zm2923-1125 29-33-32 29c-31 28-38 36-30 36 2 0 16-15 33-32zm209-198c82-82 147-150 145-150-3 0-73 68-155 150-82 83-147 150-145 150 3 0 73-67 155-150z" fill="#2c292a"/><g fill="#413c3e"><path d="m4709 9538c-333-16-768-97-1101-204-538-172-1080-469-1511-827-150-124-469-436-460-450 3-6 15 2 25 16 11 15 25 27 31 27 7 0 18 9 25 20s18 20 26 20 16 7 20 15c3 8 12 15 20 15 7 0 16 7 20 15 3 8 12 15 20 15 7 0 16 7 20 15 3 8 10 15 15 15 6 0 22 11 37 25s33 25 40 25c8 0 14 5 14 10 0 6 5 10 10 10 6 0 20 9 32 20s34 26 50 32c15 7 28 16 28 20 0 5 7 8 15 8s15 4 15 8c0 5 19 18 43 31 23 12 56 31 72 41 17 11 39 25 50 30 11 6 43 24 70 40 65 38 268 140 325 164 25 10 63 27 85 37 268 120 712 252 1025 304 298 50 424 60 770 59 346 0 474-10 770-60 763-129 1516-475 2127-978 129-107 471-447 569-566 341-415 571-801 757-1270 319-805 400-1693 232-2535-84-421-203-770-394-1154-88-179-103-206-112-209-5-2-9-9-9-16s-9-23-20-36-20-29-20-37c0-7-4-13-9-13s-13-10-17-22c-4-13-9-25-13-28-3-3-15-22-25-42-11-21-23-38-28-38-4 0-8-7-8-15s-4-15-10-15c-5 0-10-7-10-15s-3-15-8-15c-4 0-13-13-20-29s-24-41-37-55c-14-15-25-31-25-36s-6-13-13-17c-6-4-18-20-26-35s-29-44-48-64c-18-20-33-40-33-45 0-4-10-15-22-23-12-9-18-16-13-16 6-1-5-14-23-29-19-16-29-31-24-35 12-7 335 321 434 441 576 697 918 1484 1033 2376 21 168 21 926 0 1094-45 349-120 664-237 990-22 62-36 118-32 124 4 7 3 9-4 5-13-8-26 29-16 45 4 7 3 9-3 6-14-9-37 48-27 64 4 7 3 10-3 6-14-9-37 48-27 64 5 8 3 9-6 4-10-6-12-4-7 9 4 9 3 15-2 12-11-7-73 133-64 147 4 6 1 7-7 2-10-6-12-4-6 11 4 10 4 15 0 11-11-10-77 111-68 125 5 7 3 8-6 3-10-6-12-4-7 9 4 9 3 15-1 12-12-7-44 52-36 66 4 6 3 8-3 5-11-7-66 86-58 97 3 3 2 4-2 1-10-8-35 34-27 47 4 7 3 8-4 4-11-7-17 6-13 27 1 5-3 6-9 2-10-6-15 9-10 30 1 5-2 7-6 2-10-9-65 74-57 86 3 6 1 7-5 3-11-7-17 6-13 27 1 5-3 6-9 2-9-6-14 8-11 28 1 5-3 6-8 3-9-6-26 22-22 37 1 5-3 6-8 3-9-6-26 22-22 37 1 5-3 6-8 3-10-6-26 22-22 39 2 5-1 7-5 3-8-9-40 32-36 45 1 5-2 6-7 3-8-5-23 16-25 36-1 3-5 10-10 15s-6 2-2-7c5-8-3-2-17 15-14 16-23 34-19 40 3 5 2 7-3 3-8-7-40 28-40 44 0 3-4 10-9 15-6 5-6 2-1-7 10-18 12-20-51 50-27 30-40 48-29 40s-19 22-67 68-86 89-85 95c1 7-3 11-9 10-7-1-48 36-93 82-45 47-85 85-90 85s-23 16-40 35-35 35-40 35-21 14-34 30c-14 17-30 30-36 30s-16 9-23 20-18 20-25 20-18 9-25 20-19 20-26 20-15 7-18 15c-4 8-13 15-20 15-8 0-17 7-20 15-4 8-11 15-18 15-6 0-22 10-36 23-14 12-37 28-51 35-15 8-38 25-52 38s-31 24-37 24c-5 0-10 3-10 8 0 4-14 13-30 20-17 8-36 19-43 25-19 18-50 37-69 43-10 4-18 10-18 14s-11 11-25 14c-14 4-25 11-25 16 0 6-6 10-13 10s-22 7-32 15c-30 22-298 161-386 199-24 11-57 26-74 34-107 51-468 174-646 221-239 62-497 107-754 131-145 13-499 18-686 8z"/><path d="m4512 8429 3-344 117-3c115-3 118-2 122 20 8 39 40 648 34 653-3 3-67 9-142 12l-136 6z"/><path d="m4130 8748c-58-5-108-13-113-17-4-4 12-157 35-340l43-332 100 7c55 3 102 8 103 10 5 3-38 654-43 672-3 6-8 11-12 11-4-1-55-6-113-11z"/><path d="m5036 8718c-10-46-77-650-73-654 9-9 192-33 198-26 7 7 119 626 119 653 0 11-23 18-92 28-51 6-105 14-120 17-22 5-28 1-32-18z"/><path d="m3626 8666c-55-12-101-26-103-32-4-11 151-641 159-650 3-2 48 6 101 18 73 16 97 25 97 37 0 9-27 158-60 331s-60 316-60 317c0 6-41 0-134-21z"/><path d="m5447 8324c-43-179-76-328-74-330 8-8 189-55 194-51 10 11 194 630 190 641-4 10-195 66-223 66-5 0-44-147-87-326z"/><path d="m3158 8531c-60-21-110-40-113-43s49-147 116-321l121-315 96 33c54 18 97 37 96 41-2 22-200 644-204 643-3 0-53-17-112-38z"/><path d="m5889 8198c-63-172-114-316-114-321s42-26 93-47l93-38 20 46c11 26 72 165 136 310 63 145 113 265 111 267-4 4-217 95-222 95-2 0-54-141-117-312z"/><path d="m2693 8337c-57-28-103-56-103-61 0-10 298-577 309-587 3-3 47 13 98 37l92 44-63 137c-34 76-98 216-141 311-43 94-81 172-84 171-3 0-52-23-108-52z"/><path d="m6305 8018c-83-161-151-297-153-304-2-6 36-33 84-59 71-39 88-45 98-34 18 20 339 570 334 574-5 5-206 115-210 115-2 0-71-131-153-292z"/><path d="m2264 8094c-54-37-100-68-102-69-4-3 331-492 366-535l19-23 78 49c43 27 82 52 87 55 7 5-272 479-337 571-10 16-21 11-111-48z"/><path d="m6696 7780c-102-154-186-283-185-287 0-5 37-33 81-65l81-56 70 91c225 294 337 449 332 457s-146 112-181 133c-7 4-83-102-198-273z"/><path d="m1881 7813c-50-41-91-79-91-84 0-4 99-121 221-259 197-224 223-250 238-237 30 25 136 111 140 114 2 1-91 123-207 272l-209 270z"/><path d="m7062 7499-222-260 61-57c34-31 69-62 78-68 13-9 54 28 245 225 126 130 231 241 233 247s-36 48-85 92l-88 81z"/><path d="m1508 7466c-43-47-78-87-78-90 0-7 490-446 498-446 4 0 38 31 76 69l69 70-232 238c-128 131-238 239-244 241-7 1-47-36-89-82z"/><path d="m3865 7510c-194-39-354-179-427-376-22-56-23-76-26-406l-3-348h-39c-150 0-324-132-384-292l-18-46-57 34c-325 197-759 18-846-348-22-95-22-1785 0-1873 24-96 74-182 145-255 79-80 152-124 256-150 146-38 317-16 436 55l58 34v-133c0-367 137-733 379-1014l63-73-83-87c-104-110-132-167-132-272 0-96 27-170 87-233 110-115 281-143 409-69 25 15 107 84 181 155l134 127 121-34c169-49 254-60 436-60 177 0 230 8 418 60l128 36 142-139c164-161 206-185 331-185 59 0 79 5 142 36 184 92 247 311 137 481-15 22-58 73-96 112l-70 73 39 42c125 137 242 327 307 503 62 167 92 320 103 533 3 72 8 132 10 132 1 0 24-13 51-30 26-16 86-39 133-51 260-66 526 49 648 280 65 121 63 88 60 1088l-3 908-23 60c-70 184-229 320-422 361-136 29-297 1-410-70l-54-34-23 55c-62 153-208 266-360 280l-63 6v321c0 362-5 401-67 519-117 222-383 340-632 282-210-50-385-229-423-433l-12-64-13 64c-21 104-76 203-157 283-39 39-94 82-123 98-105 56-270 80-388 57zm257-252c61-28 130-92 158-148 36-71 40-131 40-550v-410h224 225l3 438c3 426 4 438 26 493 28 70 99 144 172 178 74 35 210 37 282 4 66-30 141-104 169-166 24-52 24-56 29-497l5-445 155-5c153-5 156-5 197-35 23-16 55-52 70-80l28-50 3-1162 2-1163h-1365-1365l2 1163c3 1112 4 1164 22 1197 10 19 30 48 45 63 50 55 74 62 236 67l150 5 5 445c5 426 6 447 26 491 40 87 125 161 212 186 71 20 177 11 244-19zm-1362-1365c106-47 171-135 190-260 7-46 10-344 8-888l-3-820-23-56c-29-71-98-143-170-177-49-23-70-27-147-27-76 0-99 4-145 26-66 31-131 94-162 157l-23 47v900 900l29 53c88 159 278 221 446 145zm3860 1c72-33 132-92 167-168l28-61v-870-870l-23-57c-29-73-96-141-170-176-49-23-70-27-147-27-76 0-98 4-145 26-66 32-123 86-158 154l-27 50-3 882c-2 864-2 882 18 935 67 179 278 262 460 182zm-716-2541c-10-132-33-253-71-363-74-219-171-369-349-546l-123-121 45-44c25-24 95-97 156-161 92-98 111-124 115-156 4-33 1-44-26-75-38-43-77-53-122-34-19 8-110 92-204 186-93 94-176 171-183 171s-29-8-50-19c-71-36-248-89-348-105-244-39-497-4-732 100-30 13-60 24-66 24s-93-82-193-182c-181-180-181-181-227-182-39-1-50 4-78 32-27 27-33 40-33 77 0 44 1 46 160 205l159 159-115 113c-166 162-256 292-330 474-62 152-89 276-103 462l-4 62h1364 1364z"/><path d="m3911 3012c-19-9-44-29-54-44-27-36-34-125-14-164 65-125 239-112 276 22 16 57 13 84-12 128-40 70-125 95-196 58z"/><path d="m5042 2990c-18-11-41-34-52-52-40-66-17-155 52-199 46-28 128-22 164 12 102 95 45 259-91 259-22 0-54-9-73-20z"/><path d="m7388 7172-246-226 65-75c35-42 68-76 73-76 12 0 520 415 520 425 0 11-149 180-158 179-4 0-118-102-254-227z"/><path d="m1183 7084-72-97 37-26c199-143 512-361 519-361 4 0 34 36 66 80l59 81-24 18c-328 262-504 401-508 401-3 0-38-43-77-96z"/><path d="m7690 6834c-140-102-263-191-273-198-16-12-13-19 36-92 29-43 56-81 61-83 6-3 463 279 569 350 9 6-121 209-133 209-3-1-120-84-260-186z"/><path d="m908 6668c-32-57-54-106-50-110s137-77 297-163l290-157 15 23c8 12 32 53 53 90l37 68-37 24c-294 182-532 327-539 327-5 0-35-46-66-102z"/><path d="m7935 6459c-148-83-280-157-292-165l-23-14 45-91c25-50 50-89 54-87 5 2 144 68 310 147l300 145-56 108c-31 59-59 108-62 108s-127-68-276-151z"/><path d="m717 6293c-14-26-36-76-50-111l-26-63 22-8c12-5 148-59 302-121s287-115 295-117c11-3 26 21 54 87 21 51 35 95 30 99-8 7-555 264-591 278-7 3-23-17-36-44z"/><path d="m8110 6034c-162-67-299-124-303-126-12-5 65-199 77-195 6 2 151 53 323 112l312 107-29 77c-46 125-58 151-72 150-7-1-146-57-308-125z"/><path d="m521 5773c-17-60-31-113-31-120 0-14 3-15 374-113 148-39 272-68 276-63 6 7 17 41 56 175 4 14-42 32-298 116-167 55-313 102-324 106-20 6-24-2-53-101z"/><path d="m8262 5600c-172-48-315-90-318-93-8-7 38-197 47-197 16 0 651 139 656 143 8 9-51 230-62 233-5 1-151-37-323-86z"/><path d="m407 5296c-9-57-17-112-17-123 0-17 30-23 331-66 182-27 333-46 336-43s13 49 23 102c11 66 13 97 6 99-10 4-654 135-660 135-1 0-10-47-19-104z"/><path d="m8346 5149c-170-27-311-51-314-53-6-6 9-182 17-194 6-9 664 47 674 58 3 3-1 52-9 110-7 58-13 111-14 118 0 17-7 16-354-39z"/><path d="m9543 5055c0-27 2-38 4-22 2 15 2 37 0 50-2 12-4 0-4-28z"/><path d="m9543 4950c0-30 2-43 4-27 2 15 2 39 0 55-2 15-4 2-4-28z"/><path d="m357 4884c-4-16-7-72-9-124l-3-95 180-6c99-4 253-7 343-8l162-1v44c0 23 3 70 6 102l6 60-283 22c-156 13-309 26-340 29-56 6-57 5-62-23z"/><path d="m8320 4689c-96-3-194-7-217-8l-43-1v-104-104l163-6c89-3 241-8 338-11l176-6 5 63c3 35 3 91 0 126l-5 62-121-2c-66-1-200-5-296-9z"/><path d="m595 4420c-88-4-180-8-204-9l-44-1 6-122c4-67 8-123 10-124 2-2 153 11 337 29 384 37 346 20 335 154l-7 83-136-2c-76-1-209-5-297-8z"/><path d="m8047 4228c-4-18-9-65-13-103l-6-70 333-47c223-32 335-44 339-37 7 11 33 230 28 234-3 2-643 55-664 55-7 0-14-15-17-32z"/><path d="m735 3966c-176-29-325-54-331-57-11-4 25-221 39-236 5-5 655 132 663 140 2 1-3 31-11 67-7 36-16 82-19 103-4 20-10 36-14 36-4-1-151-25-327-53z"/><path d="m7985 3828c-3-13-14-58-24-100l-18-78 41-11c470-128 618-165 622-155 7 18 54 230 51 232-3 3-646 134-657 134-5 0-12-10-15-22z"/><path d="m815 3510c-171-48-309-92-309-96 7-43 69-224 77-224 10 0 628 210 636 216 1 2-11 46-29 98-23 71-36 96-48 95-9 0-156-40-327-89z"/><path d="m7847 3352c-20-53-35-97-34-98s143-58 315-127l313-126 16 37c49 118 72 193 60 197-6 3-152 52-323 109l-312 104z"/><path d="m990 3085c-162-68-301-127-308-132-11-6-5-28 28-102 22-52 45-102 50-112 9-16 41-2 307 128 164 79 301 148 306 152 7 7-72 192-82 190-3 0-139-56-301-124z"/><path d="m7679 2971c-24-47-45-89-47-92-1-3 131-79 294-169 279-154 298-162 310-145 20 28 106 196 102 200-3 4-423 205-544 260l-71 33z"/><path d="m1178 2667c-207-117-286-166-282-176 2-8 30-57 61-108 53-89 56-93 77-80 282 178 546 352 546 359 0 17-95 167-105 167-5 0-139-73-297-162z"/><path d="m7471 2614c-30-47-50-89-45-93 29-26 534-381 542-381 10 0 132 181 132 195 0 9-543 355-566 361-5 2-33-35-63-82z"/><path d="m1420 2305c-145-107-266-198-268-203-2-8 119-176 137-186 6-4 453 350 529 419 4 4-118 159-127 162-3 1-125-86-271-192z"/><path d="m7218 2279-67-78 254-230 253-230 76 91c42 51 76 95 76 99 0 5-458 378-515 419-6 5-40-27-77-71z"/><path d="m1715 1946c-131-123-240-227-242-232s34-47 80-92l83-83 120 123c65 67 172 177 236 243l118 121-73 72c-40 40-75 72-77 71-3 0-113-101-245-223z"/><path d="m6926 1975-75-70 218-249c120-138 222-251 228-253 5-2 49 34 97 79l87 83-240 240-239 240z"/><path d="m2048 1628c-119-139-217-257-218-261-1-5 40-42 91-83 75-59 96-72 106-62 6 7 99 130 206 272l194 259-76 63c-42 35-78 64-82 64-3 0-102-114-221-252z"/><path d="m6615 1718c-38-27-76-55-83-62-11-10 21-63 173-289 103-153 192-277 198-277 7 0 54 31 104 68l93 69-206 269c-113 148-207 270-207 270-1 1-33-21-72-48z"/><path d="m2414 1351c-102-154-183-284-180-290 12-18 188-123 200-118 10 4 327 547 334 572 2 9-80 67-155 109-8 5-75-87-199-273z"/><path d="m6265 1494c-44-25-82-47-84-49-3-3 284-557 307-593 7-10 33 1 112 45 56 32 103 62 103 67 1 15-338 575-348 575-5 0-46-20-90-45z"/><path d="m2800 1124c-85-167-152-305-149-308 14-15 215-103 221-97 12 11 268 605 265 614-1 5-43 28-93 52l-89 41z"/><path d="m5888 1312c-49-19-88-40-88-45 0-19 233-627 241-627 19 0 224 89 222 96-5 27-272 609-279 610-5 1-48-14-96-34z"/><path d="m3340 1256c0-1-52-144-115-316-63-173-112-317-107-321 15-15 216-79 223-72 6 7 188 608 193 637 0 4-43 23-96 41-54 19-98 32-98 31z"/><path d="m5491 1175c-46-14-86-26-88-29-9-9 154-650 166-654 20-7 232 60 228 72-2 6-48 152-102 324-54 171-103 312-109 311-6 0-49-11-95-24z"/><path d="m3661 817c-40-177-74-326-75-331-1-10 230-63 238-55 8 7 117 661 112 666s-171 42-191 43c-5 0-43-145-84-323z"/><path d="m5066 1084c-43-7-79-14-81-16s81-670 84-674c1-1 27 3 59 7 129 19 182 32 182 43 0 12-89 496-111 604-12 59-6 58-133 36z"/><path d="m4149 1068c-3-13-77-673-75-675 4-5 238-24 242-20 2 2 11 131 19 288 8 156 16 307 18 336l4 52-56 6c-31 3-77 8-103 11-27 3-48 4-49 2z"/><path d="m4565 1039c-4-6-4-162 0-346l8-335 116 7c64 4 119 10 122 14 3 3-4 155-15 336l-21 330-102 3c-67 2-104-1-108-9z"/></g><path d="m4565 9530c-563-61-1048-195-1528-423-330-158-663-369-940-600-118-98-471-436-463-444 2-2 50 32 107 77 637 498 1408 818 2224 924 317 41 757 46 1055 12 905-105 1726-451 2417-1020 129-107 471-447 569-566 523-637 843-1308 993-2080 99-516 107-1093 21-1598-132-772-456-1498-933-2090-32-41-57-76-55-78 7-7 351 347 430 443 519 628 852 1337 992 2113 52 289 56 352 56 810s-4 521-56 810c-229 1269-1002 2396-2105 3067-550 335-1106 529-1809 629-132 19-835 29-975 14z" fill="#fafafa"/></svg>