<!-- Copyright 2000-2023 JetBrains s.r.o. and contributors. Use of this source code is governed by the Apache 2.0 license. -->
<svg width="13" height="13" viewBox="0 0 13 13" fill="none" xmlns="http://www.w3.org/2000/svg">
<path d="M5.35103 2.4375H7.0805V10.3642C6.19463 10.5318 5.54249 10.5977 4.83688 10.5977C2.72456 10.5955 1.625 9.65185 1.625 7.83944C1.625 6.09319 2.79133 4.95987 4.59871 4.95987C4.87917 4.95987 5.09283 4.98194 5.35103 5.04807V2.4375ZM5.41164 6.47656C5.20908 6.4104 5.04216 6.38836 4.82847 6.38836C3.95374 6.38836 3.44848 6.92192 3.44848 7.857C3.44848 8.76741 3.9315 9.27011 4.81737 9.27011C5.00876 9.27011 5.16457 9.25933 5.41164 9.22625V6.47656Z" fill="#6E6E6E"/>
<path d="M9.84797 5.17268V9.14149C9.84797 10.5083 9.74559 11.1656 9.44509 11.7322C9.16463 12.277 8.79516 12.6206 8.0317 13L6.42688 12.2438C7.19034 11.8889 7.55981 11.5754 7.79577 11.097C8.0428 10.6077 8.12071 10.0411 8.12071 8.55057V5.17272L9.84797 5.17268ZM8.12071 2.4375H9.85018V4.19479H8.12071V2.4375Z" fill="#6E6E6E"/>
</svg>
