<svg xmlns="http://www.w3.org/2000/svg" width="13" height="13" viewBox="0 0 13 13">
  <path fill="#6E6E6E" fill-rule="evenodd" d="M6.4989076,11.4000001 C6.49927172,11.4000002 6.49963586,11.4000002 6.5,11.4000002 C6.50036421,11.4000002 6.50072842,11.4000002 6.50109261,11.4000001 L11.4000001,11.4000002 L11.4000001,6.4000001 L11.399,6.4000001 C11.3457496,3.73996684 9.17278282,1.60000002 6.5,1.60000002 C3.79380467,1.60000002 1.5999999,3.79380479 1.5999999,6.50000012 C1.5999999,9.17278298 3.73996679,11.3457498 6.4000001,11.3990001 L6.4000001,11.4000001 L6.4989076,11.4000001 Z M13,6.5 L13,13 L6.5,13 C2.91014913,13 0,10.0898509 0,6.5 C0,2.91014913 2.91014913,0 6.5,0 C10.0898509,0 13,2.91014913 13,6.5 Z"/>
</svg>
