<svg xmlns="http://www.w3.org/2000/svg" width="16" height="16" viewBox="0 0 40 40">
  <g fill="none" fill-rule="evenodd">
    <path fill="#7C7878" d="M4.00228571,20.0045714 C4.00228571,18.0274286 4.00457143,16.0525714 4.00228571,14.0754286 C4.00228571,12.8754286 4.48685714,11.8582857 5.48114286,11.0285714 C5.84228571,10.7291429 6.26742857,10.5234286 6.688,10.304 C10.352,8.40228571 14.0137143,6.49828571 17.68,4.59885714 C19.2091429,3.808 20.7634286,3.79657143 22.2925714,4.58742857 C26.1234286,6.56685714 29.9474286,8.55314286 33.7645714,10.5462857 C35.0331429,11.2091429 35.744,12.2102857 35.9542857,13.4857143 C35.9862857,13.6891429 35.9931429,13.8902857 35.9931429,14.0937143 C35.9931429,18.0342857 35.9977143,21.9702857 35.9908571,25.9108571 C35.9885714,27.5154286 35.1954286,28.736 33.6068571,29.5542857 C33.1542857,29.7851429 32.7062857,30.0228571 32.2537143,30.256 C28.9417143,31.9748571 25.6274286,33.6937143 22.3177143,35.4171429 C21.6411429,35.7691429 20.9165714,35.9771429 20.1302857,35.9977143 C19.28,36.0205714 18.4868571,35.8331429 17.7531429,35.4537143 C13.92,33.4628571 10.08,31.4811429 6.256,29.4811429 C4.74514286,28.688 4.01371429,27.4811429 4.00685714,25.9451429 C3.99542857,23.9634286 4.00228571,21.984 4.00228571,20.0045714 Z M19.9396571,33.9353143 C19.9328,32.6644571 19.9350857,22.0724571 19.9350857,22.0724571 C19.9350857,21.4118857 20.1750857,20.9204571 20.7053714,20.4747429 C20.8425143,20.3650286 21.1099429,20.2278857 21.3956571,20.0793143 L32.4905143,14.3193143 C32.9065143,14.1021714 33.2859429,13.9993143 33.6470857,13.9993143 C33.6653714,13.9993143 33.6859429,14.0084571 33.7019429,14.0084571 C33.7019429,13.9284571 33.7019429,13.8507429 33.6905143,13.7730286 C33.5739429,13.0644571 33.2356571,12.6004571 32.5933714,12.2644571 C28.7785143,10.2713143 24.9568,8.28731429 21.1305143,6.30788571 C20.7259429,6.10217143 20.3579429,5.99931429 19.9990857,5.99931429 C19.6379429,5.99931429 19.2585143,6.10217143 18.8448,6.31931429 L7.74765714,12.0793143 C7.46194286,12.2278857 7.19451429,12.3627429 7.05737143,12.4747429 C6.52708571,12.9204571 6.28708571,13.4118857 6.28708571,14.0724571 C6.28708571,14.0724571 6.2848,24.6644571 6.29165714,25.9353143 C6.29622857,26.8016 6.63908571,27.3478857 7.42994286,27.7616 C10.1408,29.1810286 12.8608,30.5913143 15.5808,32.0016 L18.9133714,33.7296 C19.2516571,33.9056 19.5830857,33.9856 19.9465143,33.9924571 C19.9465143,33.9741714 19.9396571,33.9581714 19.9396571,33.9353143 Z"/>
    <path fill="#FFF" d="M23.9531429,30.4509714 C23.9531429,30.7892571 23.9485714,31.1046857 23.9554286,31.4224 C23.96,31.6006857 24.0605714,31.6464 24.2434286,31.5618286 C24.4491429,31.4658286 24.6525714,31.3629714 24.856,31.2646857 C25.0342857,31.1778286 25.1165714,31.0498286 25.112,30.8761143 C25.1028571,30.5995429 25.1051429,30.3252571 25.0914286,30.0509714 C25.0845714,29.9412571 25.1257143,29.8704 25.2217143,29.7949714 C26.28,28.9606857 26.8628571,27.9481143 26.8194286,26.7001143 C26.7874286,25.8566857 26.3234286,25.3904 25.3817143,25.2692571 C25.0342857,25.2258286 24.6754286,25.2349714 24.328,25.1961143 C23.7702857,25.1344 23.5828571,24.8852571 23.6765714,24.4098286 C23.8502857,23.5504 25.0022857,23.0841143 25.8091429,23.1824 C26.0514286,23.2121143 26.1611429,23.1641143 26.2251429,22.9721143 C26.3302857,22.6521143 26.4217143,22.3298286 26.5108571,22.0075429 C26.5451429,21.8841143 26.4971429,21.7972571 26.3257143,21.7698286 C25.9394286,21.7104 25.5737143,21.7629714 25.2148571,21.8726857 C25.0822857,21.9138286 25.0525714,21.8818286 25.0525714,21.7766857 C25.0525714,21.4909714 25.048,21.2075429 25.0411429,20.9218286 C25.0342857,20.7298286 24.9382857,20.6864 24.7508571,20.7846857 C24.5542857,20.8852571 24.3668571,20.9972571 24.1702857,21.0978286 C23.9851429,21.1915429 23.9051429,21.3264 23.9097143,21.5046857 C23.9165714,21.7835429 23.9097143,22.0624 23.9211429,22.3412571 C23.9257143,22.4464 23.8822857,22.5126857 23.7931429,22.5858286 C22.7622857,23.3835429 22.2022857,24.3572571 22.2754286,25.5618286 C22.3142857,26.2612571 22.7851429,26.6886857 23.6034286,26.7869714 C23.9417143,26.8304 24.2822857,26.8075429 24.6205714,26.8441143 C25.1782857,26.8989714 25.4342857,27.1458286 25.4114286,27.6258286 C25.3588571,28.6658286 24.0537143,29.3606857 22.9702857,29.1938286 C22.6617143,29.1458286 22.5657143,29.1846857 22.4834286,29.4521143 C22.408,29.7149714 22.3394286,29.9755429 22.2662857,30.2361143 C22.184,30.5355429 22.2365714,30.6041143 22.5954286,30.6406857 C22.6251429,30.6452571 22.6571429,30.6429714 22.6868571,30.6452571 C23.1165714,30.6749714 23.5234286,30.5881143 23.9531429,30.4509714"/>
    <path fill="#62EE59" d="M28.0580571,28.6829714 C28.0580571,28.8155429 28.0557714,28.9458286 28.0580571,29.0784 C28.0580571,29.4189714 28.0557714,29.4121143 28.2454857,29.3664 C28.3072,29.3504 28.3643429,29.3161143 28.4192,29.2818286 C28.6592,29.1332571 28.8969143,28.9846857 29.1460571,28.8704 C29.4066286,28.7492571 29.6557714,28.5915429 29.9163429,28.4704 C30.2889143,28.2989714 30.6409143,28.0772571 30.9997714,27.8761143 C31.1620571,27.7846857 31.2763429,27.6315429 31.2580571,27.2886857 C31.2489143,27.0715429 31.2580571,26.8612571 31.2557714,26.6441143 C31.2534857,26.3995429 31.1689143,26.2898286 31.0340571,26.3606857 C30.1814857,26.8178286 29.3334857,27.2955429 28.4672,27.7138286 C28.1677714,27.8624 27.9689143,28.0635429 28.0580571,28.6829714"/>
  </g>
</svg>
