<svg xmlns="http://www.w3.org/2000/svg" width="16" height="16" viewBox="0 0 16 16">
  <g fill="none" fill-rule="evenodd" transform="translate(.5 .5)">
    <rect width="14.971" height="14.971" x=".009" y=".009"/>
    <path fill="#9AA7B0" d="M12.1959064,3.06725146 C12.7602339,3.4005848 13.1081871,4.02046784 13.1081871,4.69005848 L13.1081871,10.3011696 C13.1081871,10.9707602 12.7602339,11.5877193 12.1959064,11.9239766 L7.47076023,14.7280702 C7.1871345,14.8947368 6.87426901,14.9795322 6.55847953,14.9795322 C6.24269006,14.9795322 5.92690058,14.8947368 5.64619883,14.7280702 L0.921052632,11.9239766 C0.356725146,11.5906433 0.00877192982,10.9707602 0.00877192982,10.3011696 L0.00877192982,4.69005848 C0.00877192982,4.02046784 0.356725146,3.4005848 0.921052632,3.06725146 L5.64619883,0.260233918 C6.21052632,-0.0760233918 6.90643275,-0.0760233918 7.47076023,0.260233918 L12.1959064,3.06725146 Z M5.8128655,14.1200914 C6.0380117,14.2545944 6.29824561,14.3247707 6.55847953,14.3276946 C6.64327485,14.3276946 6.39473684,14.2894737 6.39473684,13.8859649 L6.39473684,8.37719298 C6.39473684,7.70760234 6.80409357,7.33918129 7.3625731,7.01461988 L11.8333336,4.25146199 C12.1081874,4.08966862 12.3161377,4.02965748 12.4571846,4.07142857 C12.2168617,3.7470064 11.9670707,3.50779727 11.7078114,3.35380117 L7.30409357,0.871135714 C7.07894737,0.73663279 6.81871345,0.6664575 6.55847953,0.6664575 C6.29824561,0.6664575 6.04093567,0.73663279 5.8128655,0.871135714 L1.30200499,3.56808643 C0.840016681,3.84294023 0.553467485,4.35463668 0.553467485,4.90434429 L0.660610343,10.3011696 C0.660610343,10.8508772 0.947159538,11.3625731 1.40914784,11.6374269 L5.8128655,14.1200914 Z M8.45321637,8.25146199 L8.22222222,8.39181287 C8.18128655,8.4122807 8.15204678,8.46783626 8.15204678,8.51754386 L8.15497076,8.92397661 C7.8128655,9.19883041 7.59649123,9.63157895 7.5994152,10.0467836 C7.60526316,10.5526316 7.92690058,10.619883 8.26900585,10.619883 C8.5380117,10.622807 8.64912281,10.7076023 8.65204678,10.9122807 C8.65497076,11.1403509 8.50584795,11.3654971 8.28362573,11.4795322 C8.10818713,11.5701754 7.92690058,11.5906433 7.78362573,11.5438596 C7.77192982,11.5380117 7.76023392,11.5409357 7.74561404,11.5467836 C7.73684211,11.5526316 7.73099415,11.5584795 7.72222222,11.5643275 C7.70175439,11.5818713 7.68421053,11.6111111 7.67836257,11.6403509 L7.59064327,12.005848 C7.58187135,12.0467836 7.59064327,12.0847953 7.61695906,12.0935673 C7.74853801,12.1461988 7.95614035,12.125731 8.16081871,12.0409357 L8.16374269,12.4385965 C8.16374269,12.4883041 8.19590643,12.5116959 8.23391813,12.4912281 L8.47368421,12.3538012 C8.51169591,12.3362573 8.54385965,12.2807018 8.54385965,12.2309942 L8.53508772,11.8274854 C8.88888889,11.5409357 9.11988304,11.0789474 9.11403509,10.6461988 C9.11111111,10.2076023 8.92105263,10.0146199 8.48538012,10.0087719 C8.15789474,10.005848 8.06432749,9.94736842 8.06140351,9.76315789 C8.05847953,9.60818713 8.14327485,9.4005848 8.38304094,9.27777778 C8.61111111,9.16081871 8.75730994,9.19298246 8.81871345,9.20760234 C8.83040936,9.21052632 8.84210526,9.20760234 8.85380117,9.20175439 C8.8625731,9.19883041 8.86842105,9.19298246 8.87719298,9.18421053 C8.89473684,9.16666667 8.9122807,9.1374269 8.91812865,9.11111111 L9.00877193,8.75146199 C9.02046784,8.70467836 9.00877193,8.66666667 8.97953216,8.65789474 C8.84502924,8.62865497 8.69590643,8.64619883 8.52631579,8.71345029 L8.52339181,8.30701754 C8.52339181,8.25730994 8.49122807,8.23099415 8.45321637,8.25146199 Z" transform="translate(.936)"/>
  </g>
</svg>
