<svg width="20" height="20" viewBox="0 0 20 20" fill="none" xmlns="http://www.w3.org/2000/svg">
<mask id="path-1-inside-1_5:18" fill="white">
<path fill-rule="evenodd" clip-rule="evenodd" d="M6.87042 3.56044C6.69134 3.87861 6.3531 4.0739 5.98801 4.0699L3.71329 4.04498C3.42297 4.0418 3.14316 4.16301 2.96204 4.38992C2.40679 5.08558 1.95253 5.86539 1.62145 6.70715C1.51512 6.97749 1.55004 7.28064 1.69804 7.53061L2.85841 9.49053C3.04442 9.8047 3.04442 10.1953 2.85841 10.5094L1.69804 12.4694C1.55004 12.7193 1.51513 13.0225 1.62145 13.2928C1.95253 14.1346 2.4068 14.9144 2.96205 15.6101C3.14317 15.837 3.42298 15.9582 3.71329 15.955L5.98801 15.9301C6.3531 15.9261 6.69134 16.1214 6.87042 16.4395L7.98679 18.423C8.12946 18.6765 8.37499 18.8584 8.66271 18.9013C9.09904 18.9663 9.54559 19 10 19C10.4544 19 10.901 18.9663 11.3373 18.9013C11.625 18.8584 11.8706 18.6765 12.0133 18.423L13.1296 16.4395C13.3087 16.1214 13.6469 15.9261 14.012 15.9301L16.2867 15.955C16.5771 15.9582 16.8569 15.837 17.038 15.6101C17.5932 14.9144 18.0475 14.1346 18.3786 13.2928C18.4849 13.0225 18.45 12.7193 18.302 12.4694L17.1416 10.5094C16.9556 10.1953 16.9556 9.8047 17.1416 9.49053L18.302 7.53062C18.45 7.28065 18.4849 6.9775 18.3786 6.70716C18.0475 5.8654 17.5932 5.08559 17.038 4.38992C16.8569 4.16301 16.5771 4.0418 16.2867 4.04498L14.012 4.0699C13.6469 4.0739 13.3087 3.87861 13.1296 3.56044L12.0132 1.57695C11.8706 1.32346 11.625 1.14154 11.3373 1.09868C10.901 1.03368 10.4544 1 10 1C9.5456 1 9.09904 1.03368 8.66271 1.09868C8.375 1.14153 8.12947 1.32346 7.9868 1.57695L6.87042 3.56044ZM10 12.1227C11.1723 12.1227 12.1227 11.1723 12.1227 10C12.1227 8.82766 11.1723 7.87729 10 7.87729C8.82767 7.87729 7.8773 8.82766 7.8773 10C7.8773 11.1723 8.82767 12.1227 10 12.1227Z"/>
</mask>
<path d="M12.0132 1.57695L13.3204 0.841227L12.0132 1.57695ZM13.1296 3.56044L11.8224 4.29617L13.1296 3.56044ZM17.038 4.38992L15.8656 5.32565L17.038 4.38992ZM18.302 7.53062L19.5927 8.2948L18.302 7.53062ZM18.3786 6.70716L16.9827 7.25619L18.3786 6.70716ZM17.1416 10.5094L18.4324 9.74526L17.1416 10.5094ZM18.3786 13.2928L19.7745 13.8418L18.3786 13.2928ZM18.302 12.4694L19.5927 11.7052L18.302 12.4694ZM13.1296 16.4395L14.4368 17.1753L13.1296 16.4395ZM14.012 15.9301L14.0285 14.4302L14.012 15.9301ZM11.3373 18.9013L11.1163 17.4177L11.3373 18.9013ZM8.66271 18.9013L8.4417 20.3849L8.66271 18.9013ZM6.87042 16.4395L8.17759 15.7038L6.87042 16.4395ZM3.71329 15.955L3.72973 17.4549L3.71329 15.955ZM1.69804 12.4694L2.98878 13.2336L1.69804 12.4694ZM2.85841 9.49053L4.14915 8.72634L2.85841 9.49053ZM2.85841 10.5094L4.14915 11.2736L2.85841 10.5094ZM1.62145 6.70715L3.01736 7.25619L1.62145 6.70715ZM6.87042 3.56044L8.17759 4.29617L6.87042 3.56044ZM16.2867 15.955L16.2703 17.4549L16.2867 15.955ZM17.038 15.6101L15.8656 14.6743L17.038 15.6101ZM3.69685 5.54489L5.97158 5.56981L6.00444 2.56999L3.72972 2.54507L3.69685 5.54489ZM3.01736 7.25619C3.29285 6.55576 3.6712 5.90598 4.1344 5.32565L1.78969 3.4542C1.14239 4.26519 0.612209 5.17503 0.225544 6.15812L3.01736 7.25619ZM4.14915 8.72634L2.98878 6.76642L0.407292 8.29479L1.56767 10.2547L4.14915 8.72634ZM2.98878 13.2336L4.14915 11.2736L1.56767 9.74526L0.407294 11.7052L2.98878 13.2336ZM4.1344 14.6743C3.67121 14.094 3.29286 13.4442 3.01736 12.7438L0.225547 13.8419C0.612213 14.8249 1.14239 15.7348 1.7897 16.5458L4.1344 14.6743ZM5.97158 14.4302L3.69686 14.4551L3.72973 17.4549L6.00444 17.43L5.97158 14.4302ZM9.29397 17.6873L8.17759 15.7038L5.56324 17.1753L6.67961 19.1587L9.29397 17.6873ZM10 17.5C9.61981 17.5 9.24712 17.4718 8.88371 17.4177L8.4417 20.3849C8.95095 20.4608 9.47138 20.5 10 20.5V17.5ZM11.1163 17.4177C10.7529 17.4718 10.3802 17.5 10 17.5V20.5C10.5287 20.5 11.0491 20.4608 11.5583 20.3849L11.1163 17.4177ZM11.8224 15.7038L10.7061 17.6873L13.3204 19.1587L14.4368 17.1753L11.8224 15.7038ZM16.3032 14.4551L14.0285 14.4302L13.9956 17.43L16.2703 17.4549L16.3032 14.4551ZM16.9827 12.7438C16.7072 13.4442 16.3288 14.094 15.8656 14.6743L18.2103 16.5458C18.8576 15.7348 19.3878 14.8249 19.7745 13.8418L16.9827 12.7438ZM15.8509 11.2736L17.0113 13.2335L19.5927 11.7052L18.4324 9.74526L15.8509 11.2736ZM17.0113 6.76643L15.8509 8.72634L18.4324 10.2547L19.5927 8.2948L17.0113 6.76643ZM15.8656 5.32565C16.3288 5.90598 16.7072 6.55576 16.9827 7.25619L19.7745 6.15813C19.3878 5.17504 18.8576 4.26519 18.2103 3.4542L15.8656 5.32565ZM14.0285 5.56981L16.3032 5.54489L16.2703 2.54507L13.9956 2.56999L14.0285 5.56981ZM10.7061 2.31267L11.8224 4.29617L14.4368 2.82472L13.3204 0.841227L10.7061 2.31267ZM10 2.5C10.3802 2.5 10.7529 2.52817 11.1163 2.58231L11.5583 -0.384952C11.0491 -0.460813 10.5287 -0.5 10 -0.5V2.5ZM8.88372 2.5823C9.24712 2.52817 9.61981 2.5 10 2.5V-0.5C9.47138 -0.5 8.95096 -0.460814 8.4417 -0.384954L8.88372 2.5823ZM8.17759 4.29617L9.29397 2.31267L6.67962 0.841226L5.56324 2.82472L8.17759 4.29617ZM10.6227 10C10.6227 10.3439 10.3439 10.6227 10 10.6227V13.6227C12.0008 13.6227 13.6227 12.0008 13.6227 10H10.6227ZM10 9.37729C10.3439 9.37729 10.6227 9.65609 10.6227 10H13.6227C13.6227 7.99923 12.0008 6.37729 10 6.37729V9.37729ZM9.3773 10C9.3773 9.65609 9.6561 9.37729 10 9.37729V6.37729C7.99924 6.37729 6.3773 7.99924 6.3773 10H9.3773ZM10 10.6227C9.6561 10.6227 9.3773 10.3439 9.3773 10H6.3773C6.3773 12.0008 7.99924 13.6227 10 13.6227V10.6227ZM8.4417 -0.384954C7.65552 -0.267841 7.02867 0.221063 6.67962 0.841226L9.29397 2.31267C9.23027 2.42585 9.09448 2.55091 8.88372 2.5823L8.4417 -0.384954ZM13.3204 0.841227C12.9714 0.221065 12.3445 -0.267839 11.5583 -0.384952L11.1163 2.58231C10.9056 2.55091 10.7698 2.42585 10.7061 2.31267L13.3204 0.841227ZM13.9956 2.56999C14.1781 2.56799 14.3473 2.66563 14.4368 2.82472L11.8224 4.29617C12.2701 5.09159 13.1158 5.57981 14.0285 5.56981L13.9956 2.56999ZM18.2103 3.4542C17.7158 2.83461 16.9807 2.53729 16.2703 2.54507L16.3032 5.54489C16.1734 5.54631 15.9979 5.49141 15.8656 5.32565L18.2103 3.4542ZM19.5927 8.2948C19.9548 7.68331 20.0651 6.89707 19.7745 6.15813L16.9827 7.25619C16.9047 7.05793 16.9452 6.87798 17.0113 6.76643L19.5927 8.2948ZM18.4324 9.74526C18.5254 9.90234 18.5254 10.0976 18.4324 10.2547L15.8509 8.72634C15.3859 9.51177 15.3859 10.4882 15.8509 11.2736L18.4324 9.74526ZM19.7745 13.8418C20.0651 13.1029 19.9548 12.3167 19.5927 11.7052L17.0113 13.2335C16.9452 13.122 16.9047 12.942 16.9827 12.7438L19.7745 13.8418ZM14.4368 17.1753C14.3473 17.3343 14.1781 17.432 13.9956 17.43L14.0285 14.4302C13.1158 14.4202 12.2701 14.9084 11.8224 15.7038L14.4368 17.1753ZM11.5583 20.3849C12.3445 20.2678 12.9714 19.7789 13.3204 19.1587L10.7061 17.6873C10.7698 17.5741 10.9056 17.4491 11.1163 17.4177L11.5583 20.3849ZM6.67961 19.1587C7.02866 19.7789 7.65551 20.2678 8.4417 20.3849L8.88371 17.4177C9.09448 17.4491 9.23027 17.5741 9.29397 17.6873L6.67961 19.1587ZM6.00444 17.43C5.8219 17.432 5.65278 17.3343 5.56324 17.1753L8.17759 15.7038C7.7299 14.9084 6.88429 14.4202 5.97158 14.4302L6.00444 17.43ZM1.7897 16.5458C2.28423 17.1654 3.01935 17.4627 3.72973 17.4549L3.69686 14.4551C3.82661 14.4537 4.0021 14.5086 4.1344 14.6743L1.7897 16.5458ZM0.407294 11.7052C0.0452594 12.3167 -0.0650926 13.1029 0.225547 13.8419L3.01736 12.7438C3.09535 12.9421 3.05483 13.122 2.98878 13.2336L0.407294 11.7052ZM1.56767 10.2547C1.47466 10.0976 1.47466 9.90234 1.56767 9.74526L4.14915 11.2736C4.61417 10.4882 4.61417 9.51177 4.14915 8.72634L1.56767 10.2547ZM0.225544 6.15812C-0.0650947 6.89706 0.0452585 7.6833 0.407292 8.29479L2.98878 6.76642C3.05482 6.87797 3.09534 7.05792 3.01736 7.25619L0.225544 6.15812ZM5.97158 5.56981C6.88429 5.57981 7.7299 5.09159 8.17759 4.29617L5.56324 2.82472C5.65278 2.66563 5.8219 2.56799 6.00444 2.56999L5.97158 5.56981ZM16.2703 17.4549C16.9807 17.4627 17.7158 17.1654 18.2103 16.5458L15.8656 14.6743C15.9979 14.5086 16.1734 14.4537 16.3032 14.4551L16.2703 17.4549ZM3.72972 2.54507C3.01934 2.53729 2.28422 2.83461 1.78969 3.4542L4.1344 5.32565C4.0021 5.49141 3.82661 5.54631 3.69685 5.54489L3.72972 2.54507Z" fill="#767A8A" mask="url(#path-1-inside-1_5:18)"/>
</svg>
