<svg width="128" height="128" viewBox="0 0 128 128" fill="none" xmlns="http://www.w3.org/2000/svg">
<g clip-path="url(#clip0_339_30629)">
<path d="M14.5068 66.7348V66.6439V52.7606H17.5453V67.8028C17.6865 69.015 17.5825 70.2434 17.2397 71.4146C16.8969 72.5857 16.3222 73.6757 15.5499 74.6194C14.1145 75.8601 12.2754 76.5311 10.38 76.5054L10.0625 74.2332C11.2851 74.2339 12.4645 73.7805 13.3731 72.9607C14.1894 72.0064 14.5068 70.7112 14.5068 66.7348ZM37.1669 64.9426C37.1669 66.6467 37.1669 68.1691 37.3029 69.487H34.6046L34.4232 66.7831C33.8588 67.7398 33.0516 68.5297 32.0838 69.0724C31.116 69.6152 30.022 69.8916 28.9131 69.8733C26.2828 69.8733 23.1536 68.4418 23.1536 62.6022V52.8998H26.1921V61.9887C26.1921 65.1471 27.1671 67.2602 29.9108 67.2602C30.4753 67.2663 31.0353 67.1594 31.558 66.9457C32.0807 66.732 32.5556 66.416 32.9547 66.0159C33.3539 65.616 33.6693 65.1401 33.8826 64.6163C34.0958 64.0925 34.2025 63.5314 34.1964 62.9657V52.7861H37.2349V64.8517L37.1669 64.9426ZM42.9264 58.3057C42.9264 56.1925 42.9264 54.4656 42.7904 52.8978H45.5114L45.6474 55.738C46.2537 54.7119 47.1264 53.8698 48.1726 53.3016C49.2189 52.7334 50.3994 52.4603 51.5883 52.5115C55.6245 52.5115 58.6629 55.8971 58.6629 60.9414C58.6629 66.8947 55.0122 69.8486 51.0668 69.8486C50.0569 69.8937 49.0526 69.6769 48.1508 69.2192C47.2491 68.7614 46.4805 68.0781 45.9195 67.2355V76.3244H42.9264V58.3738V58.3057ZM45.9195 62.7365C45.9277 63.1488 45.9733 63.5595 46.0556 63.9635C46.3128 64.9724 46.8985 65.8666 47.7199 66.5044C48.5412 67.1423 49.5514 67.4875 50.5906 67.4855C53.7878 67.4855 55.6698 64.8724 55.6698 61.0778C55.6698 57.7603 53.9012 54.92 50.704 54.92C49.4387 55.0239 48.2547 55.5866 47.3739 56.5027C46.4931 57.4188 45.976 58.6253 45.9195 59.8962V62.7365ZM64.0766 52.8826L67.7273 62.6759C68.1127 63.7666 68.5209 65.0845 68.793 66.0615C69.1104 65.0618 69.4506 63.7893 69.8587 62.6078L73.1693 52.8826H76.3665L71.8315 64.6982C69.5639 70.3788 68.1808 73.31 66.0946 75.0823C65.0439 76.044 63.7629 76.7172 62.3759 77.0364L61.6276 74.4915C62.5974 74.1722 63.4977 73.671 64.2806 73.0146C65.3868 72.1112 66.2647 70.959 66.8429 69.6517C66.9667 69.4253 67.051 69.1794 67.0923 68.9245C67.0666 68.6503 66.9977 68.3819 66.8883 68.1293L60.7206 52.8372H64.0312L64.0766 52.8826ZM84.4327 48.1156V52.8873H88.7864V55.1595H84.4327V64.1121C84.4327 66.1571 85.0223 67.3386 86.7003 67.3386C87.2962 67.3484 87.8909 67.2796 88.4689 67.1341L88.605 69.4064C87.7382 69.7073 86.8235 69.8459 85.9066 69.8154C85.2994 69.8534 84.6912 69.7594 84.1237 69.5398C83.5562 69.3202 83.0428 68.9801 82.6187 68.5429C81.6951 67.305 81.2738 65.7624 81.4396 64.2257V55.1368H78.8547V52.8646H81.485V48.82L84.4327 48.1156ZM94.3836 61.7163C94.3221 62.4869 94.4282 63.2617 94.6948 63.9872C94.9613 64.7127 95.3819 65.3715 95.9274 65.9181C96.4729 66.4647 97.1303 66.8862 97.8543 67.1533C98.5782 67.4203 99.3514 67.5267 100.12 67.4651C101.676 67.4999 103.221 67.2057 104.655 66.6016L105.177 68.8738C103.417 69.6003 101.524 69.9487 99.6216 69.8963C98.5123 69.9724 97.3997 69.8072 96.3602 69.4119C95.3206 69.0167 94.3787 68.4008 93.5989 67.6065C92.8192 66.8122 92.2202 65.8583 91.8429 64.8103C91.4656 63.7622 91.319 62.6447 91.4132 61.5345C91.4132 56.5357 94.3836 52.582 99.2361 52.582C104.678 52.582 106.039 57.3536 106.039 60.3984C106.068 60.8676 106.068 61.3381 106.039 61.8072H94.3156L94.3836 61.7163ZM103.272 59.4441C103.36 58.8366 103.316 58.2174 103.145 57.6281C102.973 57.0389 102.678 56.4934 102.278 56.0282C101.878 55.5632 101.384 55.1893 100.828 54.9319C100.272 54.6745 99.6672 54.5395 99.0547 54.5361C97.8088 54.6265 96.6416 55.1798 95.7817 56.0877C94.9218 56.9956 94.4313 58.1926 94.4063 59.4441H103.272ZM110.649 58.0495C110.649 56.0954 110.649 54.414 110.513 52.8688H113.234V56.1181H113.37C113.655 55.1153 114.246 54.2264 115.058 53.5749C115.871 52.9234 116.866 52.5416 117.905 52.4826C118.191 52.445 118.481 52.445 118.767 52.4826V55.3229C118.42 55.2826 118.07 55.2826 117.724 55.3229C116.694 55.3628 115.715 55.7769 114.968 56.4877C114.221 57.1986 113.758 58.1576 113.665 59.1856C113.58 59.6506 113.534 60.1218 113.529 60.5944V69.4334H110.536V58.0722L110.649 58.0495Z" fill="white"/>
<path d="M109.316 7.23718C109.41 8.76368 109.047 10.2834 108.275 11.6027C107.503 12.9221 106.357 13.9813 104.982 14.6456C103.608 15.3098 102.067 15.5489 100.556 15.3325C99.0452 15.116 97.6329 14.4538 96.499 13.4302C95.3651 12.4066 94.5609 11.0679 94.1889 9.58473C93.8169 8.10151 93.8939 6.54088 94.4101 5.10169C94.9263 3.6625 95.8584 2.40985 97.0876 1.50335C98.3167 0.596842 99.7874 0.0775071 101.312 0.0114988C102.312 -0.0436254 103.313 0.0998282 104.257 0.43361C105.201 0.767391 106.07 1.28492 106.814 1.95643C107.558 2.62794 108.162 3.44018 108.591 4.34644C109.021 5.25271 109.267 6.23513 109.316 7.23718Z" fill="#767677"/>
<path d="M64.4809 96.2308C44.0735 96.2308 26.1374 88.8915 16.8633 78.053C20.4617 87.8035 26.9545 96.2153 35.468 102.156C43.9813 108.097 54.1068 111.282 64.4809 111.282C74.8553 111.282 84.9805 108.097 93.4941 102.156C102.007 96.2153 108.5 87.8035 112.099 78.053C102.847 88.8915 84.9792 96.2308 64.4809 96.2308Z" fill="#F37726"/>
<path d="M64.4809 25.7512C84.8886 25.7512 102.825 33.0905 112.099 43.929C108.5 34.1785 102.007 25.7667 93.4941 19.8259C84.9805 13.885 74.8553 10.7002 64.4809 10.7002C54.1068 10.7002 43.9813 13.885 35.468 19.8259C26.9545 25.7667 20.4617 34.1785 16.8633 43.929C26.1374 33.0678 43.9828 25.7512 64.4809 25.7512Z" fill="#F37726"/>
<path d="M36.3868 117.323C36.5065 119.245 36.0523 121.16 35.082 122.823C34.1117 124.487 32.6694 125.823 30.9387 126.661C29.208 127.5 27.2673 127.804 25.3638 127.533C23.4604 127.263 21.6804 126.43 20.2507 125.143C18.8209 123.855 17.8061 122.169 17.3355 120.302C16.865 118.434 16.96 116.468 17.6084 114.654C18.2569 112.841 19.4294 111.262 20.9766 110.118C22.5239 108.975 24.3757 108.319 26.2964 108.234C27.5545 108.166 28.8136 108.348 30.0017 108.768C31.1898 109.189 32.2836 109.839 33.2206 110.683C34.1577 111.527 34.9196 112.548 35.4629 113.687C36.0061 114.827 36.3201 116.062 36.3868 117.323Z" fill="#9E9E9E"/>
<path d="M19.1813 23.2811C18.0817 23.3115 16.9976 23.0155 16.0655 22.4302C15.1333 21.8449 14.3946 20.9964 13.9424 19.9915C13.4902 18.9867 13.3445 17.8702 13.5238 16.7826C13.7031 15.695 14.1992 14.6848 14.9499 13.8791C15.7006 13.0733 16.6723 12.5079 17.7428 12.2541C18.8133 12.0003 19.9348 12.0693 20.9663 12.4524C21.9977 12.8356 22.8931 13.5159 23.5397 14.4076C24.1864 15.2994 24.5555 16.3628 24.6007 17.4642C24.6436 18.9535 24.0987 20.3997 23.084 21.4887C22.0694 22.5778 20.667 23.2219 19.1813 23.2811Z" fill="#616262"/>
</g>
<defs>
<clipPath id="clip0_339_30629">
<rect width="109" height="128" fill="white" transform="translate(10)"/>
</clipPath>
</defs>
</svg>
