<svg width="16" height="16" viewBox="0 0 16 16" fill="none" xmlns="http://www.w3.org/2000/svg">
<path fill-rule="evenodd" clip-rule="evenodd" d="M9.06064 2.71402C9.84169 1.93297 11.108 1.93297 11.8891 2.71402L13.3033 4.12823C14.0843 4.90928 14.0843 6.17561 13.3033 6.95666L11.3748 8.88513L10.5263 8.0366L12.3262 6.2367C12.7167 5.84617 12.7167 5.21301 12.3262 4.82248L11.1948 3.69111C10.8043 3.30059 10.1711 3.30059 9.7806 3.69111L7.01646 6.45526C6.62593 6.84578 6.62593 7.47895 7.01646 7.86947L8.00641 8.85942L7.17074 9.69509L6.03937 8.56372C5.25832 7.78267 5.25832 6.51634 6.03937 5.73529L9.06064 2.71402Z" fill="#AFB1B3"/>
<path fill-rule="evenodd" clip-rule="evenodd" d="M4.62519 7.14959L2.69671 9.07807C1.91567 9.85911 1.91567 11.1254 2.69671 11.9065L4.11093 13.3207C4.89198 14.1018 6.15831 14.1018 6.93936 13.3207L9.96063 10.2994C10.7417 9.51838 10.7417 8.25205 9.96063 7.47101L8.82926 6.33963L7.99369 7.17521L8.98362 8.16514C9.37414 8.55566 9.37414 9.18883 8.98362 9.57935L6.21947 12.3435C5.82895 12.734 5.19579 12.734 4.80526 12.3435L3.67389 11.2121C3.28337 10.8216 3.28337 10.1884 3.67389 9.79791L5.4737 7.9981L4.62519 7.14959Z" fill="#AFB1B3"/>
</svg>
