<svg width="16" height="16" viewBox="0 0 16 16" fill="none" xmlns="http://www.w3.org/2000/svg">
<path fill-rule="evenodd" clip-rule="evenodd" d="M9.06061 2.71402C9.84166 1.93297 11.108 1.93297 11.889 2.71402L13.3033 4.12823C14.0843 4.90928 14.0843 6.17561 13.3033 6.95666L11.3748 8.88513L10.5262 8.0366L12.3262 6.2367C12.7167 5.84617 12.7167 5.21301 12.3262 4.82248L11.1948 3.69111C10.8043 3.30059 10.1711 3.30059 9.78057 3.69111L7.01643 6.45526C6.6259 6.84578 6.6259 7.47895 7.01643 7.86947L8.00638 8.85942L7.17071 9.69509L6.03934 8.56372C5.25829 7.78267 5.25829 6.51634 6.03934 5.73529L9.06061 2.71402Z" fill="#6E6E6E"/>
<path fill-rule="evenodd" clip-rule="evenodd" d="M4.62516 7.14959L2.69668 9.07807C1.91564 9.85911 1.91564 11.1254 2.69668 11.9065L4.1109 13.3207C4.89195 14.1018 6.15828 14.1018 6.93933 13.3207L9.9606 10.2994C10.7416 9.51838 10.7416 8.25205 9.9606 7.47101L8.82923 6.33963L7.99366 7.17521L8.98359 8.16514C9.37411 8.55566 9.37411 9.18883 8.98359 9.57935L6.21944 12.3435C5.82892 12.734 5.19575 12.734 4.80523 12.3435L3.67386 11.2121C3.28334 10.8216 3.28334 10.1884 3.67386 9.79791L5.47367 7.9981L4.62516 7.14959Z" fill="#6E6E6E"/>
</svg>
