<svg width="16" height="16" viewBox="0 0 16 16" fill="none" xmlns="http://www.w3.org/2000/svg">
<path fill-rule="evenodd" clip-rule="evenodd" d="M12.8536 15.8536C12.6583 16.0488 12.3417 16.0488 12.1464 15.8536L9.14645 12.8536C8.95118 12.6583 8.95118 12.3417 9.14645 12.1464C9.34171 11.9512 9.65829 11.9512 9.85355 12.1464L12 14.2929L12 8.5C12 8.22386 12.2239 8 12.5 8C12.7761 8 13 8.22386 13 8.5L13 14.2929L15.1464 12.1464C15.3417 11.9512 15.6583 11.9512 15.8536 12.1464C16.0488 12.3417 16.0488 12.6583 15.8536 12.8536L12.8536 15.8536Z" fill="#3574F0"/>
<path d="M4.5 2C4.77614 2 5 2.22386 5 2.5V4H11V2.5C11 2.22386 11.2239 2 11.5 2C11.7761 2 12 2.22386 12 2.5V4H13.5C13.7761 4 14 4.22386 14 4.5C14 4.77614 13.7761 5 13.5 5H12V7H11V5H5V11H8V12H5V13.5C5 13.7761 4.77614 14 4.5 14C4.22386 14 4 13.7761 4 13.5V12H2.5C2.22386 12 2 11.7761 2 11.5C2 11.2239 2.22386 11 2.5 11H4V5H2.5C2.22386 5 2 4.77614 2 4.5C2 4.22386 2.22386 4 2.5 4H4V2.5C4 2.22386 4.22386 2 4.5 2Z" fill="#6C707E"/>
</svg>
