<svg width="16" height="16" viewBox="0 0 16 16" fill="none" xmlns="http://www.w3.org/2000/svg">
<path d="M11.5 14C12.0523 14 12.5 13.5523 12.5 13C12.5 12.4477 12.0523 12 11.5 12C10.9477 12 10.5 12.4477 10.5 13C10.5 13.5523 10.9477 14 11.5 14Z" fill="#6E6E6E"/>
<path fill-rule="evenodd" clip-rule="evenodd" d="M11.5 10C8.5 10 7 13 7 13C7 13 8.5 16 11.5 16C14.5 16 16 13 16 13C16 13 14.5 10 11.5 10ZM13.5 13C13.5 14.1046 12.6046 15 11.5 15C10.3954 15 9.5 14.1046 9.5 13C9.5 11.8954 10.3954 11 11.5 11C12.6046 11 13.5 11.8954 13.5 13Z" fill="#6E6E6E"/>
<path d="M14 7H2V11H7.22792C8.14561 10 9.55061 9 11.4999 9C12.4641 9 13.2952 9.2447 14 9.61306V7Z" fill="#389FD6"/>
<path d="M6.44575 14H1V2H15V10.2726C14.7003 10.0306 14.3673 9.80503 14 9.61306V5H2V13H5.87988C5.87988 13 6.06323 13.426 6.44575 14Z" fill="#6E6E6E"/>
</svg>
