<!-- Copyright 2000-2025 JetBrains s.r.o. and contributors. Use of this source code is governed by the Apache 2.0 license. -->
<svg width="40" height="40" viewBox="0 0 40 40" fill="none" xmlns="http://www.w3.org/2000/svg">
<path fill-rule="evenodd" clip-rule="evenodd" d="M16 23C17.1046 23 18 23.8954 18 25V37C18 38.1046 17.1046 39 16 39H2L1.7959 38.9893C0.787223 38.887 0 38.0357 0 37V25C0 23.8954 0.895431 23 2 23H16ZM2 29V37H16V29H2ZM2 27H16V25H2V27Z" fill="#CED0D6"/>
<path d="M28 8V20C28 23.866 24.866 27 21 27H20V25C20 22.7909 18.2091 21 16 21H6.07227C6.02553 20.6733 6 20.3396 6 20V8H28Z" fill="#45322B"/>
<path d="M34 8V12.1455C34 12.7136 33.679 13.2332 33.1709 13.4873L31 14.5723V8H34Z" fill="#45322B"/>
<path d="M31.5 32C32.3284 32 33 32.6716 33 33.5C33 34.3284 32.3284 35 31.5 35H20V32H31.5Z" fill="#C77D55"/>
<path fill-rule="evenodd" clip-rule="evenodd" d="M34.5 5C35.8807 5 37 6.11929 37 7.5V12.1455C37 13.8499 36.0371 15.4086 34.5127 16.1709L31 17.9268V20C31 25.5228 26.5228 30 21 30H20V27H21C24.866 27 28 23.866 28 20V8H6V20C6 20.3396 6.02553 20.6733 6.07227 21H3.0498C3.01715 20.6711 3 20.3375 3 20V8C3 6.34315 4.34315 5 6 5H34.5ZM31 14.5723L33.1709 13.4873C33.679 13.2332 34 12.7136 34 12.1455V8H31V14.5723Z" fill="#C77D55"/>
</svg>
