<svg width="16" height="16" viewBox="0 0 16 16" fill="none" xmlns="http://www.w3.org/2000/svg">
<path d="M3 8V7.5C3 6.11929 4.11929 5 5.5 5C6.88071 5 8 6.11929 8 7.5V8C8 11.1883 10.4868 13.7957 13.6265 13.9886C12.5688 14.6304 11.3276 15 10 15C6.13401 15 3 11.866 3 8Z" fill="#E55765"/>
<path d="M7.27686 1.91608C7.50663 1.7629 7.56871 1.45247 7.41554 1.2227C7.26236 0.992939 6.95193 0.930852 6.72216 1.08403C5.64595 1.80151 4.99951 3.00938 4.99951 4.30283V5.05002C4.73239 5.10424 4.48074 5.20106 4.25195 5.33306C4.52102 5.73521 4.97936 6 5.49954 6C6.01973 6 6.47807 5.73521 6.74713 5.33306C6.51833 5.20105 6.26665 5.10423 5.99951 5.05V4.30283C5.99951 3.34373 6.47884 2.44809 7.27686 1.91608Z" fill="#55A76A"/>
</svg>
