<svg fill="none" height="56" viewBox="0 0 50 56" width="50" xmlns="http://www.w3.org/2000/svg" xmlns:xlink="http://www.w3.org/1999/xlink"><radialGradient id="a" cx="0" cy="0" gradientTransform="matrix(42.1315 0 0 42.1318 16.1306 14.4412)" gradientUnits="userSpaceOnUse" r="1"><stop offset="0" stop-color="#5383ec"/><stop offset=".86699" stop-color="#7f52ff"/></radialGradient><linearGradient id="b" gradientUnits="userSpaceOnUse" x1="37.1719" x2="10.9733" y1=".376638" y2="30.0353"><stop offset="0" stop-color="#33c3ff"/><stop offset=".87843" stop-color="#5383ec"/></linearGradient><path d="m49.25 14v28l-24.25 14-24.25-14v-28l24.25-14z" fill="#6075f2"/><path d="m34.5 22.5v11l-9.5 5.5v17l24.25-14v-28z" fill="#6b57ff"/><path d="m25 39-9.5-5.5v-11l-14.75-8.5v28l24.25 14z" fill="url(#a)"/><path d="m15.5 22.5 9.5-5.5 9.5 5.5 14.75-8.5-24.25-14-24.25 14z" fill="url(#b)"/><path d="m25 17 9.5263 5.5v11l-9.5263 5.5-9.5263-5.5v-11z" fill="#000"/></svg>