<!-- Copyright 2000-2023 JetBrains s.r.o. and contributors. Use of this source code is governed by the Apache 2.0 license. -->
<svg width="40" height="40" viewBox="0 0 40 40" fill="none" xmlns="http://www.w3.org/2000/svg">
<path d="M19.8313 24.1638C19.8313 21.0847 18.81 19.721 15.9682 18.0918C13.8372 16.8642 13.3609 16.1291 13.3388 14.5793C13.3167 13.0159 13.9342 12.3375 15.05 12.3375C16.5181 12.3375 16.7772 13.4879 16.7772 14.7586V15.2328H19.5576V14.7291C19.5576 12.7316 19.0457 10.7901 16.2456 10.3645V7.49994H14.0176V10.3457C11.7414 10.687 10.5486 12.2468 10.5486 14.9083C10.5486 17.8422 11.8952 19.0607 14.4755 20.5265C16.5881 21.7223 17.0104 22.7229 17.0104 24.5019C17.0104 26.2059 16.5341 27.1022 15.0782 27.1022C13.5426 27.1022 13.1117 26.0789 13.1117 24.5994V23.9437H10.3313V24.4497C10.3313 26.8014 11.1735 28.7935 14.0176 29.1601V32.5001H16.2456V29.1422C18.7955 28.7477 19.8313 27.0644 19.8313 24.1638Z" fill="#BB42EE"/>
<path d="M7.39556 10.3815C7.58325 9.95917 8.04711 9.7235 8.5724 9.7235H9.61762V7.50006H7.84089C6.71432 7.50006 5.90981 7.88412 5.43335 8.65446C5.05211 9.27076 5 9.95481 5 11.25V15C5 16.25 4.90356 17.0714 4.82895 17.3998C4.75357 17.7283 4.53698 18.1743 4.38203 18.3426C4.24889 18.4874 3.93365 18.615 3.75587 18.6904C3.61939 18.7477 2.66304 18.7492 2.5 18.7627V21.2374C2.66304 21.2509 3.61939 21.2524 3.75587 21.3097C3.93364 21.3851 4.24889 21.5127 4.38203 21.6575C4.53698 21.8258 4.75357 22.2719 4.82895 22.6003C4.90356 22.9287 5 23.7501 5 25.0001V28.7501C5 30.0453 5.05211 30.7293 5.43335 31.3457C5.9098 32.116 6.71432 32.5001 7.84089 32.5001H9.61762V30.2766H8.5724C8.04711 30.2766 7.58325 30.041 7.39556 29.6187C7.20788 29.1965 7.11762 28.75 7.11762 27.5V23.75C7.11762 23.1871 7.16492 22.247 7.05262 21.8447C6.93964 21.4396 6.79391 21.1125 6.61615 20.858C6.43701 20.605 6.24514 20.4131 6.03899 20.2808C5.86686 20.1721 5.70574 20.1151 5.54705 20.0704C5.54705 20.0704 5.47535 20.057 5.44756 20.0277V19.9724C5.4976 19.9402 5.54705 19.9297 5.54705 19.9297C5.70574 19.885 5.86688 19.828 6.03899 19.7193C6.24514 19.587 6.43701 19.3951 6.61615 19.1421C6.79391 18.8876 6.93964 18.5605 7.05262 18.1554C7.16492 17.7531 7.11762 16.813 7.11762 16.2501V12.5001C7.11762 11.2501 7.20788 10.8037 7.39556 10.3815Z" fill="#BB42EE"/>
<path d="M32.6044 10.3815C32.4168 9.95917 31.9529 9.7235 31.4276 9.7235H30.3824V7.50006H32.1591C33.2857 7.50006 34.0902 7.88412 34.5667 8.65446C34.9479 9.27076 35 9.95481 35 11.25V15C35 16.25 35.0964 17.0714 35.1711 17.3998C35.2464 17.7283 35.463 18.1743 35.618 18.3426C35.7511 18.4874 36.0664 18.615 36.2441 18.6904C36.3806 18.7477 37.337 18.7492 37.5 18.7627V21.2374C37.337 21.2509 36.3806 21.2524 36.2441 21.3097C36.0664 21.3851 35.7511 21.5127 35.618 21.6575C35.463 21.8258 35.2464 22.2719 35.1711 22.6003C35.0964 22.9287 35 23.7501 35 25.0001V28.7501C35 30.0453 34.9479 30.7293 34.5667 31.3457C34.0902 32.116 33.2857 32.5001 32.1591 32.5001H30.3824V30.2766H31.4276C31.9529 30.2766 32.4168 30.041 32.6044 29.6187C32.7921 29.1965 32.8824 28.75 32.8824 27.5V23.75C32.8824 23.1871 32.8351 22.247 32.9474 21.8447C33.0604 21.4396 33.2061 21.1125 33.3839 20.858C33.563 20.605 33.7549 20.4131 33.961 20.2808C34.1331 20.1721 34.2943 20.1151 34.453 20.0704C34.453 20.0704 34.5247 20.057 34.5524 20.0277V19.9724C34.5024 19.9402 34.453 19.9297 34.453 19.9297C34.2943 19.885 34.1331 19.828 33.961 19.7193C33.7549 19.587 33.563 19.3951 33.3839 19.1421C33.2061 18.8876 33.0604 18.5605 32.9474 18.1554C32.8351 17.7531 32.8824 16.813 32.8824 16.2501V12.5001C32.8824 11.2501 32.7921 10.8037 32.6044 10.3815Z" fill="#BB42EE"/>
<path d="M24.7877 25.5617C24.4792 25.1881 24.0875 25.0001 23.6131 25.0001C23.1387 25.0001 22.7512 25.1881 22.4505 25.5617C22.1498 25.9366 22.0001 26.3784 22.0001 26.8886C22.0001 27.4155 22.1498 27.8573 22.4505 28.2154C22.7512 28.5723 23.1387 28.7501 23.6131 28.7501C24.0875 28.7501 24.4792 28.5723 24.7877 28.2154C25.0955 27.8573 25.2501 27.4155 25.2501 26.8886C25.2501 26.3784 25.0955 25.9366 24.7877 25.5617Z" fill="#BB42EE"/>
<path d="M29.871 25.5617C29.5625 25.1881 29.1708 25.0001 28.6964 25.0001C28.222 25.0001 27.8345 25.1881 27.5338 25.5617C27.2331 25.9366 27.0834 26.3784 27.0834 26.8886C27.0834 27.4155 27.2331 27.8573 27.5338 28.2154C27.8345 28.5723 28.222 28.7501 28.6964 28.7501C29.1708 28.7501 29.5625 28.5723 29.871 28.2154C30.1788 27.8573 30.3334 27.4155 30.3334 26.8886C30.3334 26.3784 30.1788 25.9366 29.871 25.5617Z" fill="#BB42EE"/>
</svg>
