<!-- Copyright 2000-2023 JetBrains s.r.o. and contributors. Use of this source code is governed by the Apache 2.0 license. -->
<svg width="94" height="24" viewBox="0 0 94 24" fill="none" xmlns="http://www.w3.org/2000/svg">
<g clip-path="url(#clip0_861_76604)">
<path d="M11.25 0.785522C12.7501 8.25 15.7501 11.25 23.3311 12.75C15.75 14.25 12.75 17.25 11.2501 24.7145C9.75007 17.25 6.75007 14.25 -0.830933 12.75C6.75005 11.25 9.75005 8.25 11.25 0.785522Z" fill="url(#paint0_linear_861_76604)"/>
<path d="M19.4899 7.36059C21.0678 7.36059 22.3468 6.08151 22.3468 4.50368C22.3468 2.92585 21.0678 1.64677 19.4899 1.64677C17.9121 1.64677 16.633 2.92585 16.633 4.50368C16.633 6.08151 17.9121 7.36059 19.4899 7.36059Z" fill="url(#paint1_linear_861_76604)"/>
</g>
<path d="M33.422 5.4H36.095L41.576 13.986V5.4H44.087V18H41.396L35.933 9.414V18H33.422V5.4ZM50.8636 18.216C49.9396 18.216 49.1086 18.009 48.3706 17.595C47.6386 17.181 47.0656 16.608 46.6516 15.876C46.2376 15.138 46.0306 14.307 46.0306 13.383C46.0306 12.471 46.2376 11.649 46.6516 10.917C47.0716 10.179 47.6476 9.603 48.3796 9.189C49.1176 8.775 49.9456 8.568 50.8636 8.568C51.7996 8.568 52.6216 8.775 53.3296 9.189C54.0436 9.597 54.5926 10.167 54.9766 10.899C55.3606 11.625 55.5526 12.45 55.5526 13.374V14.13H48.7846C48.8866 14.694 49.1296 15.147 49.5136 15.489C49.9036 15.825 50.3776 15.993 50.9356 15.993C51.4096 15.993 51.7966 15.939 52.0966 15.831C52.4026 15.717 52.6456 15.543 52.8256 15.309H55.4176C55.3276 15.807 55.0816 16.278 54.6796 16.722C54.2836 17.166 53.7556 17.526 53.0956 17.802C52.4356 18.078 51.6916 18.216 50.8636 18.216ZM52.8616 12.429C52.7656 11.901 52.5466 11.481 52.2046 11.169C51.8626 10.851 51.4186 10.692 50.8726 10.692C50.3386 10.692 49.8856 10.851 49.5136 11.169C49.1416 11.481 48.9016 11.901 48.7936 12.429H52.8616ZM55.91 8.784H58.592L60.131 13.959L60.329 14.868L60.509 13.959L62.129 8.784H64.487L66.125 13.959L66.332 14.868L66.512 13.959L68.024 8.784H70.616L67.754 18H65.126L63.47 12.654L63.299 11.88L63.137 12.645L61.481 18H58.781L55.91 8.784ZM81.0044 18.216C79.9544 18.216 79.0274 18.006 78.2234 17.586C77.4194 17.166 76.7924 16.575 76.3424 15.813C75.8984 15.051 75.6764 14.178 75.6764 13.194V5.4H78.3944V13.158C78.3944 13.68 78.5024 14.142 78.7184 14.544C78.9344 14.946 79.2374 15.258 79.6274 15.48C80.0234 15.702 80.4824 15.813 81.0044 15.813C81.5084 15.813 81.9524 15.702 82.3364 15.48C82.7204 15.258 83.0174 14.946 83.2274 14.544C83.4374 14.142 83.5424 13.68 83.5424 13.158V5.4H86.2604V13.194C86.2604 14.178 86.0384 15.051 85.5944 15.813C85.1564 16.575 84.5384 17.166 83.7404 17.586C82.9484 18.006 82.0364 18.216 81.0044 18.216ZM88.9689 5.4H91.7949V18H88.9689V5.4Z" fill="black"/>
<defs>
<linearGradient id="paint0_linear_861_76604" x1="11.2501" y1="0.785522" x2="11.2501" y2="24.7145" gradientUnits="userSpaceOnUse">
<stop stop-color="#3573F0"/>
<stop offset="1" stop-color="#EA33EC"/>
</linearGradient>
<linearGradient id="paint1_linear_861_76604" x1="11.2501" y1="0.785522" x2="11.2501" y2="24.7145" gradientUnits="userSpaceOnUse">
<stop stop-color="#3573F0"/>
<stop offset="1" stop-color="#EA33EC"/>
</linearGradient>
<clipPath id="clip0_861_76604">
<rect width="24" height="24" fill="white"/>
</clipPath>
</defs>
</svg>
