<svg xmlns="http://www.w3.org/2000/svg" version="1.1" width="40px" height="40px">

   <path id="green"
        fill="#8FC942" stroke="black" stroke-width="0.5"
        d="M 6.70,14.02
           C 6.14,6.36 9.89,4.91 9.89,4.91
             9.84,4.88 10.42,5.64 10.42,5.64
             10.46,5.63 7.66,7.02 8.80,13.84
             8.45,13.73 6.94,13.63 6.70,14.02 Z" />

    <path id="red"
        fill="#B62233" stroke="black" stroke-width="0.5"
        d="M 4.44,21.69
           C 2.29,11.46 11.53,10.55 12.94,19.25
             14.08,26.29 17.44,30.00 28.61,26.13
             30.82,25.34 43.90,22.21 28.26,29.39
             12.91,36.91 4.44,22.01 4.44,21.69 Z" />

    <path id="greenshade"
        fill="#8FC942" 
        d="M 6.90,12.58
           C 6.90,12.58 6.92,13.88 6.92,13.88
             7.00,13.81 7.99,13.55 8.44,13.61
             8.43,13.61 8.27,12.40 8.27,12.40
             8.27,12.40 6.90,12.58 6.90,12.58 Z" />

    <path id="shade"
        fill="#E79EA5" 
        d="M 13.13,29.17
           C 10.76,28.49 5.07,23.59 5.04,19.61
             5.31,11.88 9.25,14.12 6.69,19.03
             4.95,21.68 9.93,27.22 13.13,29.17 Z
           M 44.70,13.74" />

    <path id="eye 1"
        fill="black"
        d="M 9.41,17.70
           C 9.28,16.38 8.32,16.30 8.39,17.80
             8.42,19.45 9.59,19.50 9.42,17.80
             9.42,17.80 9.40,17.71 9.41,17.70 Z" />

    <path id="eye 2"
        fill="black"
        d="M 11.17,17.76
           C 11.05,16.34 10.07,16.04 10.21,17.84
             10.29,19.37 11.28,19.38 11.17,17.77
             11.17,17.77 11.17,17.76 11.17,17.76 Z" />

    <path id="mouth"
        fill="black" 
        d="M 7.25,20.06
           C 8.09,23.57 12.04,23.14 13.69,23.01
             13.68,23.07 13.03,20.16 13.07,19.93
             13.09,20.22 10.29,20.33 9.81,20.40
             9.20,20.52 7.03,19.57 7.25,20.06 Z" />

    <path id="teeth"
        fill="white"
        d="M 7.22,20.08
           C 7.36,20.57 7.07,20.31 8.98,20.83
             9.83,21.05 10.39,20.79 12.22,20.69
             12.21,20.75 12.12,20.48 12.08,20.19
             11.90,20.29 10.28,20.36 9.74,20.39
             9.12,20.52 7.08,19.58 7.22,20.08 Z" />

    <path id="mouthshade"
        fill="white"
        d="M 11.26,21.06
           C 11.26,21.06 12.56,21.04 12.56,21.04
             12.56,21.04 12.39,20.58 12.39,20.58
             12.39,20.58 13.72,20.41 13.72,20.41
             13.72,20.41 14.34,22.63 14.34,22.63
             14.34,22.63 12.77,22.77 12.77,22.77
             12.69,22.80 11.01,21.14 11.26,21.06 Z
           M 11.26,21.06" />
</svg>