<!-- Copyright 2000-2023 JetBrains s.r.o. and contributors. Use of this source code is governed by the Apache 2.0 license. -->
<svg width="16" height="16" viewBox="0 0 16 16" xmlns="http://www.w3.org/2000/svg">
 <path d="m8.3 4.21c-0.05-0.126-0.167-0.208-0.298-0.208-0.13 0-0.248 0.082-0.298 0.208l-0.947 2.38-2.46 0.206c-0.13 0.0109-0.241 0.102-0.281 0.232-0.0402 0.13-0.00202 0.272 0.0968 0.361l1.87 1.68-0.572 2.51c-0.0302 0.133 0.0187 0.271 0.124 0.351 0.105 0.0801 0.246 0.086 0.357 0.0149l2.1-1.35 2.1 1.35c0.111 0.0711 0.252 0.0652 0.357-0.0149 0.105-0.0802 0.154-0.219 0.124-0.351l-0.572-2.51 1.87-1.68c0.0989-0.0887 0.137-0.231 0.0969-0.361-0.0402-0.13-0.151-0.221-0.281-0.232l-2.46-0.206z" clip-rule="evenodd" fill="#6C707E" fill-rule="evenodd"/>
</svg>
