<?xml version="1.0" encoding="UTF-8" standalone="no"?>
<svg xmlns="http://www.w3.org/2000/svg" xmlns:xlink="http://www.w3.org/1999/xlink" contentScriptType="application/ecmascript" contentStyleType="text/css" height="864px" preserveAspectRatio="none" style="width:379px;height:864px;" version="1.1" viewBox="0 0 379 864" width="379px" zoomAndPan="magnify">
  <style>
  @import url('https://fonts.googleapis.com/css?family=Roboto|Roboto+Mono&amp;display=swap');
  .text {
    font-family: 'Roboto', sans-serif;
    font-size: 14px;
  }
  .code {
    font-family: 'Roboto Mono', monospace;
    font-size: 14px;
  }
  .process {
    stroke: #383838; stroke-width: 1.0;
    fill: #F8F8F8;
  }
</style>
  <defs>
    <filter height="300%" id="f1qminojd21aa8" width="300%" x="-1" y="-1">
      <feGaussianBlur result="blurOut" stdDeviation="2.0"/>
      <feColorMatrix in="blurOut" result="blurOut2" type="matrix" values="0 0 0 0 0 0 0 0 0 0 0 0 0 0 0 0 0 0 .4 0"/>
      <feOffset dx="4.0" dy="4.0" in="blurOut2" result="blurOut3"/>
      <feBlend in="SourceGraphic" in2="blurOut3" mode="normal"/>
    </filter>
  </defs>
  <g>
    <rect class="process" filter="url(#f1qminojd21aa8)" height="36.4063" rx="12.5" ry="12.5" width="94" x="139.5" y="11"/>
    <text class="text" lengthAdjust="spacingAndGlyphs" textLength="74" x="149.5" y="33.9883">Load Image</text>
    <polygon fill="#F8F8F8" filter="url(#f1qminojd21aa8)" points="166,67.4063,207,67.4063,219,79.4063,207,91.4063,166,91.4063,154,79.4063,166,67.4063" style="stroke: #383838; stroke-width: 1.0;"/>
    <text class="text" lengthAdjust="spacingAndGlyphs" textLength="41" x="166" y="84.1914">Is SVG</text>
    <text class="text" lengthAdjust="spacingAndGlyphs" textLength="21" x="133" y="75.9883">yes</text>
    <text class="text" lengthAdjust="spacingAndGlyphs" textLength="16" x="219" y="75.9883">no</text>
    <rect class="process" filter="url(#f1qminojd21aa8)" height="36.4063" width="73" x="103" y="101.4063"/>
    <text class="text" lengthAdjust="spacingAndGlyphs" textLength="53" x="113" y="124.3945">svg-load</text>
    <rect class="process" filter="url(#f1qminojd21aa8)" height="36.4063" width="75" x="196" y="101.4063"/>
    <text class="text" lengthAdjust="spacingAndGlyphs" textLength="55" x="206" y="124.3945">png-load</text>
    <polygon fill="#F8F8F8" filter="url(#f1qminojd21aa8)" points="186.5,143.8125,198.5,155.8125,186.5,167.8125,174.5,155.8125,186.5,143.8125" style="stroke: #383838; stroke-width: 1.0;"/>
    <polygon fill="#F8F8F8" filter="url(#f1qminojd21aa8)" points="106.5,238.0156,266.5,238.0156,278.5,250.0156,266.5,262.0156,106.5,262.0156,94.5,250.0156,106.5,238.0156" style="stroke: #383838; stroke-width: 1.0;"/>
    <text class="text" lengthAdjust="spacingAndGlyphs" textLength="160" x="106.5" y="254.8008">Is resourceClass Provided</text>
    <text class="text" lengthAdjust="spacingAndGlyphs" textLength="21" x="73.5" y="246.5977">yes</text>
    <text class="text" lengthAdjust="spacingAndGlyphs" textLength="16" x="278.5" y="246.5977">no</text>
    <rect class="process" filter="url(#f1qminojd21aa8)" height="36.4063" width="139" x="15" y="272.0156"/>
    <text class="text" lengthAdjust="spacingAndGlyphs" textLength="119" x="25" y="295.0039">load-from-resource</text>
    <rect class="process" filter="url(#f1qminojd21aa8)" height="36.4883" rx="12.5" ry="12.5" width="91" x="39" y="378.625"/>
    <text class="text" lengthAdjust="spacingAndGlyphs" textLength="42" x="49" y="401.6953">Return</text>
    <text class="code" lengthAdjust="spacingAndGlyphs" textLength="26" x="94" y="402.1602">null</text>
    <polygon fill="#F8F8F8" filter="url(#f1qminojd21aa8)" points="32,328.4219,137,328.4219,149,340.4219,137,352.4219,32,352.4219,20,340.4219,32,328.4219" style="stroke: #383838; stroke-width: 1.0;"/>
    <text class="text" lengthAdjust="spacingAndGlyphs" textLength="16" x="88.5" y="365.4102">no</text>
    <text class="text" lengthAdjust="spacingAndGlyphs" textLength="105" x="32" y="345.207">Is Resource Exist</text>
    <text class="text" lengthAdjust="spacingAndGlyphs" textLength="21" x="149" y="337.0039">yes</text>
    <rect class="process" filter="url(#f1qminojd21aa8)" height="36.4063" width="101" x="238" y="272.0156"/>
    <text class="text" lengthAdjust="spacingAndGlyphs" textLength="81" x="248" y="295.0039">load-from-url</text>
    <polygon fill="#F8F8F8" filter="url(#f1qminojd21aa8)" points="186.5,443.1133,198.5,455.1133,186.5,467.1133,174.5,455.1133,186.5,443.1133" style="stroke: #383838; stroke-width: 1.0;"/>
    <polygon fill="#F8F8F8" filter="url(#f1qminojd21aa8)" points="166,495.6543,207,495.6543,219,507.6543,207,519.6543,166,519.6543,154,507.6543,166,495.6543" style="stroke: #383838; stroke-width: 1.0;"/>
    <text class="text" lengthAdjust="spacingAndGlyphs" textLength="41" x="166" y="512.4395">Is SVG</text>
    <text class="text" lengthAdjust="spacingAndGlyphs" textLength="21" x="133" y="504.2363">yes</text>
    <text class="text" lengthAdjust="spacingAndGlyphs" textLength="16" x="219" y="504.2363">no</text>
    <rect class="process" filter="url(#f1qminojd21aa8)" height="36.4063" width="115" x="62" y="529.6543"/>
    <text class="text" lengthAdjust="spacingAndGlyphs" textLength="95" x="72" y="552.6426">svg-cache-read</text>
    <rect class="process" filter="url(#f1qminojd21aa8)" height="36.4063" width="91" x="74" y="636.2637"/>
    <text class="text" lengthAdjust="spacingAndGlyphs" textLength="71" x="84" y="659.252">svg-decode</text>
    <polygon fill="#F8F8F8" filter="url(#f1qminojd21aa8)" points="89,586.0605,150,586.0605,162,598.0605,150,610.0605,89,610.0605,77,598.0605,89,586.0605" style="stroke: #383838; stroke-width: 1.0;"/>
    <text class="text" lengthAdjust="spacingAndGlyphs" textLength="16" x="123.5" y="623.0488">no</text>
    <text class="text" lengthAdjust="spacingAndGlyphs" textLength="61" x="89" y="602.8457">Is Cached</text>
    <text class="text" lengthAdjust="spacingAndGlyphs" textLength="21" x="162" y="594.6426">yes</text>
    <polygon fill="#F8F8F8" filter="url(#f1qminojd21aa8)" points="119.5,692.6699,131.5,704.6699,119.5,716.6699,107.5,704.6699,119.5,692.6699" style="stroke: #383838; stroke-width: 1.0;"/>
    <rect class="process" filter="url(#f1qminojd21aa8)" height="36.4063" width="93" x="207" y="529.6543"/>
    <text class="text" lengthAdjust="spacingAndGlyphs" textLength="73" x="217" y="552.6426">png-decode</text>
    <polygon fill="#F8F8F8" filter="url(#f1qminojd21aa8)" points="186.5,722.6699,198.5,734.6699,186.5,746.6699,174.5,734.6699,186.5,722.6699" style="stroke: #383838; stroke-width: 1.0;"/>
    <polygon fill="#F8F8F8" filter="url(#f1qminojd21aa8)" points="156,187.8125,217,187.8125,229,199.8125,217,211.8125,156,211.8125,144,199.8125,156,187.8125" style="stroke: #383838; stroke-width: 1.0;"/>
    <text class="text" lengthAdjust="spacingAndGlyphs" textLength="16" x="190.5" y="224.8008">no</text>
    <text class="text" lengthAdjust="spacingAndGlyphs" textLength="61" x="156" y="204.5977">Is Cached</text>
    <text class="text" lengthAdjust="spacingAndGlyphs" textLength="21" x="229" y="196.3945">yes</text>
    <polygon fill="#F8F8F8" filter="url(#f1qminojd21aa8)" points="186.5,766.6699,198.5,778.6699,186.5,790.6699,174.5,778.6699,186.5,766.6699" style="stroke: #383838; stroke-width: 1.0;"/>
    <rect class="process" filter="url(#f1qminojd21aa8)" height="36.4063" rx="12.5" ry="12.5" width="104" x="134.5" y="810.6699"/>
    <text class="text" lengthAdjust="spacingAndGlyphs" textLength="84" x="144.5" y="833.6582">Return Image</text>
    <line style="stroke: #383838; stroke-width: 1.5;" x1="154" x2="139.5" y1="79.4063" y2="79.4063"/>
    <line style="stroke: #383838; stroke-width: 1.5;" x1="139.5" x2="139.5" y1="79.4063" y2="101.4063"/>
    <polygon fill="#383838" points="135.5,91.4063,139.5,101.4063,143.5,91.4063,139.5,95.4063" style="stroke: #383838; stroke-width: 1.0;"/>
    <line style="stroke: #383838; stroke-width: 1.5;" x1="219" x2="233.5" y1="79.4063" y2="79.4063"/>
    <line style="stroke: #383838; stroke-width: 1.5;" x1="233.5" x2="233.5" y1="79.4063" y2="101.4063"/>
    <polygon fill="#383838" points="229.5,91.4063,233.5,101.4063,237.5,91.4063,233.5,95.4063" style="stroke: #383838; stroke-width: 1.0;"/>
    <line style="stroke: #383838; stroke-width: 1.5;" x1="139.5" x2="139.5" y1="137.8125" y2="155.8125"/>
    <line style="stroke: #383838; stroke-width: 1.5;" x1="139.5" x2="174.5" y1="155.8125" y2="155.8125"/>
    <polygon fill="#383838" points="164.5,151.8125,174.5,155.8125,164.5,159.8125,168.5,155.8125" style="stroke: #383838; stroke-width: 1.0;"/>
    <line style="stroke: #383838; stroke-width: 1.5;" x1="233.5" x2="233.5" y1="137.8125" y2="155.8125"/>
    <line style="stroke: #383838; stroke-width: 1.5;" x1="233.5" x2="198.5" y1="155.8125" y2="155.8125"/>
    <polygon fill="#383838" points="208.5,151.8125,198.5,155.8125,208.5,159.8125,204.5,155.8125" style="stroke: #383838; stroke-width: 1.0;"/>
    <line style="stroke: #383838; stroke-width: 1.5;" x1="186.5" x2="186.5" y1="47.4063" y2="67.4063"/>
    <polygon fill="#383838" points="182.5,57.4063,186.5,67.4063,190.5,57.4063,186.5,61.4063" style="stroke: #383838; stroke-width: 1.0;"/>
    <line style="stroke: #383838; stroke-width: 1.5;" x1="84.5" x2="84.5" y1="352.4219" y2="378.625"/>
    <polygon fill="#383838" points="80.5,368.625,84.5,378.625,88.5,368.625,84.5,372.625" style="stroke: #383838; stroke-width: 1.0;"/>
    <line style="stroke: #383838; stroke-width: 1.5;" x1="149" x2="161" y1="340.4219" y2="340.4219"/>
    <polygon fill="#383838" points="157,392.8691,161,402.8691,165,392.8691,161,396.8691" style="stroke: #383838; stroke-width: 1.5;"/>
    <line style="stroke: #383838; stroke-width: 1.5;" x1="161" x2="161" y1="340.4219" y2="455.1133"/>
    <line style="stroke: #383838; stroke-width: 1.5;" x1="161" x2="174.5" y1="455.1133" y2="455.1133"/>
    <polygon fill="#383838" points="164.5,451.1133,174.5,455.1133,164.5,459.1133,168.5,455.1133" style="stroke: #383838; stroke-width: 1.0;"/>
    <line style="stroke: #383838; stroke-width: 1.5;" x1="84.5" x2="84.5" y1="308.4219" y2="328.4219"/>
    <polygon fill="#383838" points="80.5,318.4219,84.5,328.4219,88.5,318.4219,84.5,322.4219" style="stroke: #383838; stroke-width: 1.0;"/>
    <line style="stroke: #383838; stroke-width: 1.5;" x1="94.5" x2="84.5" y1="250.0156" y2="250.0156"/>
    <line style="stroke: #383838; stroke-width: 1.5;" x1="84.5" x2="84.5" y1="250.0156" y2="272.0156"/>
    <polygon fill="#383838" points="80.5,262.0156,84.5,272.0156,88.5,262.0156,84.5,266.0156" style="stroke: #383838; stroke-width: 1.0;"/>
    <line style="stroke: #383838; stroke-width: 1.5;" x1="278.5" x2="288.5" y1="250.0156" y2="250.0156"/>
    <line style="stroke: #383838; stroke-width: 1.5;" x1="288.5" x2="288.5" y1="250.0156" y2="272.0156"/>
    <polygon fill="#383838" points="284.5,262.0156,288.5,272.0156,292.5,262.0156,288.5,266.0156" style="stroke: #383838; stroke-width: 1.0;"/>
    <line style="stroke: #383838; stroke-width: 1.5;" x1="288.5" x2="288.5" y1="308.4219" y2="455.1133"/>
    <line style="stroke: #383838; stroke-width: 1.5;" x1="288.5" x2="198.5" y1="455.1133" y2="455.1133"/>
    <polygon fill="#383838" points="208.5,451.1133,198.5,455.1133,208.5,459.1133,204.5,455.1133" style="stroke: #383838; stroke-width: 1.0;"/>
    <line style="stroke: #383838; stroke-width: 1.5;" x1="119.5" x2="119.5" y1="610.0605" y2="636.2637"/>
    <polygon fill="#383838" points="115.5,626.2637,119.5,636.2637,123.5,626.2637,119.5,630.2637" style="stroke: #383838; stroke-width: 1.0;"/>
    <line style="stroke: #383838; stroke-width: 1.5;" x1="162" x2="175" y1="598.0605" y2="598.0605"/>
    <polygon fill="#383838" points="171,644.4668,175,654.4668,179,644.4668,175,648.4668" style="stroke: #383838; stroke-width: 1.5;"/>
    <line style="stroke: #383838; stroke-width: 1.5;" x1="175" x2="175" y1="598.0605" y2="704.6699"/>
    <line style="stroke: #383838; stroke-width: 1.5;" x1="175" x2="131.5" y1="704.6699" y2="704.6699"/>
    <polygon fill="#383838" points="141.5,700.6699,131.5,704.6699,141.5,708.6699,137.5,704.6699" style="stroke: #383838; stroke-width: 1.0;"/>
    <line style="stroke: #383838; stroke-width: 1.5;" x1="119.5" x2="119.5" y1="672.6699" y2="692.6699"/>
    <polygon fill="#383838" points="115.5,682.6699,119.5,692.6699,123.5,682.6699,119.5,686.6699" style="stroke: #383838; stroke-width: 1.0;"/>
    <line style="stroke: #383838; stroke-width: 1.5;" x1="119.5" x2="119.5" y1="566.0605" y2="586.0605"/>
    <polygon fill="#383838" points="115.5,576.0605,119.5,586.0605,123.5,576.0605,119.5,580.0605" style="stroke: #383838; stroke-width: 1.0;"/>
    <line style="stroke: #383838; stroke-width: 1.5;" x1="154" x2="119.5" y1="507.6543" y2="507.6543"/>
    <line style="stroke: #383838; stroke-width: 1.5;" x1="119.5" x2="119.5" y1="507.6543" y2="529.6543"/>
    <polygon fill="#383838" points="115.5,519.6543,119.5,529.6543,123.5,519.6543,119.5,523.6543" style="stroke: #383838; stroke-width: 1.0;"/>
    <line style="stroke: #383838; stroke-width: 1.5;" x1="219" x2="253.5" y1="507.6543" y2="507.6543"/>
    <line style="stroke: #383838; stroke-width: 1.5;" x1="253.5" x2="253.5" y1="507.6543" y2="529.6543"/>
    <polygon fill="#383838" points="249.5,519.6543,253.5,529.6543,257.5,519.6543,253.5,523.6543" style="stroke: #383838; stroke-width: 1.0;"/>
    <line style="stroke: #383838; stroke-width: 1.5;" x1="119.5" x2="119.5" y1="716.6699" y2="734.6699"/>
    <line style="stroke: #383838; stroke-width: 1.5;" x1="119.5" x2="174.5" y1="734.6699" y2="734.6699"/>
    <polygon fill="#383838" points="164.5,730.6699,174.5,734.6699,164.5,738.6699,168.5,734.6699" style="stroke: #383838; stroke-width: 1.0;"/>
    <line style="stroke: #383838; stroke-width: 1.5;" x1="253.5" x2="253.5" y1="566.0605" y2="734.6699"/>
    <line style="stroke: #383838; stroke-width: 1.5;" x1="253.5" x2="198.5" y1="734.6699" y2="734.6699"/>
    <polygon fill="#383838" points="208.5,730.6699,198.5,734.6699,208.5,738.6699,204.5,734.6699" style="stroke: #383838; stroke-width: 1.0;"/>
    <line style="stroke: #383838; stroke-width: 1.5;" x1="186.5" x2="186.5" y1="467.1133" y2="495.6543"/>
    <polygon fill="#383838" points="182.5,485.6543,186.5,495.6543,190.5,485.6543,186.5,489.6543" style="stroke: #383838; stroke-width: 1.0;"/>
    <line style="stroke: #383838; stroke-width: 1.5;" x1="186.5" x2="186.5" y1="211.8125" y2="238.0156"/>
    <polygon fill="#383838" points="182.5,228.0156,186.5,238.0156,190.5,228.0156,186.5,232.0156" style="stroke: #383838; stroke-width: 1.0;"/>
    <line style="stroke: #383838; stroke-width: 1.5;" x1="229" x2="353" y1="199.8125" y2="199.8125"/>
    <polygon fill="#383838" points="349,477.1133,353,487.1133,357,477.1133,353,481.1133" style="stroke: #383838; stroke-width: 1.5;"/>
    <line style="stroke: #383838; stroke-width: 1.5;" x1="353" x2="353" y1="199.8125" y2="778.6699"/>
    <line style="stroke: #383838; stroke-width: 1.5;" x1="353" x2="198.5" y1="778.6699" y2="778.6699"/>
    <polygon fill="#383838" points="208.5,774.6699,198.5,778.6699,208.5,782.6699,204.5,778.6699" style="stroke: #383838; stroke-width: 1.0;"/>
    <line style="stroke: #383838; stroke-width: 1.5;" x1="186.5" x2="186.5" y1="746.6699" y2="766.6699"/>
    <polygon fill="#383838" points="182.5,756.6699,186.5,766.6699,190.5,756.6699,186.5,760.6699" style="stroke: #383838; stroke-width: 1.0;"/>
    <line style="stroke: #383838; stroke-width: 1.5;" x1="186.5" x2="186.5" y1="167.8125" y2="187.8125"/>
    <polygon fill="#383838" points="182.5,177.8125,186.5,187.8125,190.5,177.8125,186.5,181.8125" style="stroke: #383838; stroke-width: 1.0;"/>
    <line style="stroke: #383838; stroke-width: 1.5;" x1="186.5" x2="186.5" y1="790.6699" y2="810.6699"/>
    <polygon fill="#383838" points="182.5,800.6699,186.5,810.6699,190.5,800.6699,186.5,804.6699" style="stroke: #383838; stroke-width: 1.0;"/>
  </g>
</svg>
