<svg fill="none" width="40" height="40" viewBox="0 0 40 40" xmlns="http://www.w3.org/2000/svg">
  <g transform="matrix(2.36 0 0 2.36 1.12 1.12)" fill="#E08855">
    <path d="m8.5 5.21 2.65 2.65c0.195 0.195 0.512 0.195 0.707 0 0.195-0.195 0.195-0.512 0-0.707l-3.5-3.5c-0.195-0.195-0.512-0.195-0.707 0l-3.5 3.5c-0.195 0.195-0.195 0.512 0 0.707 0.195 0.195 0.512 0.195 0.707 0l2.65-2.65v6.79c0 0.276 0.224 0.5 0.5 0.5s0.5-0.224 0.5-0.5z"/>
    <path d="m8 16c4.42 0 8-3.58 8-8 0-4.42-3.58-8-8-8-4.42 0-8 3.58-8 8 0 4.42 3.58 8 8 8zm0-1c3.87 0 7-3.13 7-7 0-3.87-3.13-7-7-7-3.87 0-7 3.13-7 7 0 3.87 3.13 7 7 7z" clip-rule="evenodd" fill-rule="evenodd"/>
  </g>
</svg>