<!-- Copyright 2000-2025 JetBrains s.r.o. and contributors. Use of this source code is governed by the Apache 2.0 license. -->
<svg width="14" height="14" viewBox="0 0 14 14" fill="none" xmlns="http://www.w3.org/2000/svg">
<path d="M3.49385 14C-1.00003 14 6.02999 0 6.99303 0C7.95608 0 15 14 10.4931 14C9 14 8.99308 12.5 6.98782 12.5C4.98256 12.5 4.99999 14 3.49385 14Z" fill="#43454A"/>
<ellipse cx="7" cy="6.5" rx="2" ry="1.5" fill="#F80000"/>
<path fill-rule="evenodd" clip-rule="evenodd" d="M2.05015 11.2573L0.646447 9.85359C0.451184 9.65833 0.451184 9.34175 0.646447 9.14648L3.45333 6.3396C4.75892 3.07304 6.54183 0 6.99303 0C7.44354 0 9.22472 3.06361 10.5317 6.32457L13.3536 9.14648C13.5489 9.34175 13.5489 9.65833 13.3536 9.85359L11.9431 11.2641C12.1199 12.8756 11.7703 14 10.4931 14C9.80149 14 9.42875 13.6782 9.02859 13.3327C8.56483 12.9322 8.06424 12.5 6.98782 12.5C5.91356 12.5 5.41981 12.9305 4.96133 13.3302C4.56398 13.6767 4.19313 14 3.49385 14C2.2185 14 1.87129 12.8724 2.05015 11.2573ZM3.16733 12.8763C3.20105 12.9311 3.24345 13 3.49385 13C3.81294 13 3.91653 12.9106 4.36747 12.5213L4.40035 12.4929C4.63301 12.2921 4.95221 12.0284 5.38775 11.8268C5.83388 11.6204 6.35363 11.5 6.98782 11.5C7.62202 11.5 8.1423 11.6204 8.58913 11.8258C9.02546 12.0263 9.34673 12.2887 9.58201 12.4896L9.61536 12.5181C10.0746 12.9106 10.1793 13 10.4931 13C10.7469 13 10.7903 12.9297 10.8244 12.8746L10.8258 12.8723C10.91 12.7361 11.0019 12.4244 10.9835 11.8442C10.9473 10.7026 10.5088 9.0795 9.85845 7.35241L9.84229 7.30958C9.66784 7.74044 9.36465 8.09784 9.01421 8.36066C8.46317 8.77394 7.74773 9 7 9C6.25227 9 5.53683 8.77394 4.98579 8.36066C4.63236 8.09559 4.32697 7.73432 4.15326 7.29851L4.1331 7.35198C3.48365 9.07906 3.04548 10.7025 3.0088 11.8446C2.99015 12.4252 3.08165 12.7373 3.16574 12.8737L3.16733 12.8763ZM2.66476 8.54239L1.70711 9.50004L2.25728 10.0502C2.36489 9.56759 2.50327 9.06093 2.66476 8.54239ZM11.7366 10.0564C11.6279 9.56834 11.4876 9.05562 11.3237 8.53083L12.2929 9.50004L11.7366 10.0564ZM7 8C8.10457 8 9 7.32843 9 6.5C9 5.67157 8.10457 5 7 5C5.89543 5 5 5.67157 5 6.5C5 7.32843 5.89543 8 7 8Z" fill="white"/>
</svg>
