<!-- Copyright 2000-2024 JetBrains s.r.o. and contributors. Use of this source code is governed by the Apache 2.0 license. -->
<svg width="16" height="16" viewBox="0 0 16 16" fill="none" xmlns="http://www.w3.org/2000/svg">
<path d="M11.4687 10.1813L8.84073 10.1734L7.53383 7.97899L8.85486 5.79241L11.4828 5.80027L12.7897 7.9947L11.4687 10.1813Z" fill="#C12766"/>
<path d="M7.09644 12.5955L4.46852 12.5877L3.16163 10.3933L4.48265 8.20668L7.11058 8.21453L8.41747 10.409L7.09644 12.5955Z" fill="#3E489F"/>
<path d="M11.4415 15.0216L8.81355 15.0138L7.50666 12.8194L8.82768 10.6328L11.4556 10.6406L12.7625 12.8351L11.4415 15.0216Z" fill="#714099"/>
<path d="M7.11945 7.78483L4.49153 7.77698L3.18464 5.58255L4.50566 3.39597L7.13359 3.40382L8.44048 5.59825L7.11945 7.78483Z" fill="#78932C"/>
<path d="M11.4937 5.40802L8.87363 5.38165L7.55465 3.17039L8.85569 0.985504L11.4757 1.01188L12.7947 3.22314L11.4937 5.40802Z" fill="#CF242A"/>
<path d="M10.1351 13.3821C10.4534 13.3821 10.7115 13.1337 10.7115 12.8273C10.7115 12.5209 10.4534 12.2726 10.1351 12.2726C9.81674 12.2726 9.55867 12.5209 9.55867 12.8273C9.55867 13.1337 9.81674 13.3821 10.1351 13.3821Z" fill="white"/>
<path d="M10.5615 2.91819L5.4229 5.75181" stroke="white" stroke-width="0.523753"/>
<path d="M5.79491 5.16681L5.81223 10.8669" stroke="white" stroke-width="0.523753"/>
<path d="M5.43866 10.1997L10.5303 13.1108" stroke="white" stroke-width="0.523753"/>
<path d="M10.1445 2.71786L10.1619 8.41793" stroke="white" stroke-width="0.523753"/>
<path d="M10.1688 7.55744L10.1861 13.2575" stroke="white" stroke-width="0.5238"/>
<path d="M10.5679 7.77073L5.42935 10.6043" stroke="white" stroke-width="0.523753"/>
<path d="M5.45284 5.3901L10.5444 8.30122" stroke="white" stroke-width="0.523753"/>
<path d="M5.73011 10.9374C6.04845 10.9374 6.30652 10.689 6.30652 10.3826C6.30652 10.0762 6.04845 9.82779 5.73011 9.82779C5.41177 9.82779 5.1537 10.0762 5.1537 10.3826C5.1537 10.689 5.41177 10.9374 5.73011 10.9374Z" fill="white"/>
<path d="M10.2567 8.59517C10.575 8.59517 10.8331 8.34678 10.8331 8.04038C10.8331 7.73398 10.575 7.48559 10.2567 7.48559C9.93833 7.48559 9.68027 7.73398 9.68027 8.04038C9.68027 8.34678 9.93833 8.59517 10.2567 8.59517Z" fill="white"/>
<path d="M5.81255 6.14519C6.13089 6.14519 6.38896 5.8968 6.38896 5.5904C6.38896 5.284 6.13089 5.03561 5.81255 5.03561C5.49421 5.03561 5.23615 5.284 5.23615 5.5904C5.23615 5.8968 5.49421 6.14519 5.81255 6.14519Z" fill="white"/>
<path d="M10.1597 3.72759C10.478 3.72759 10.7361 3.4792 10.7361 3.17279C10.7361 2.86639 10.478 2.618 10.1597 2.618C9.84133 2.618 9.58327 2.86639 9.58327 3.17279C9.58327 3.4792 9.84133 3.72759 10.1597 3.72759Z" fill="white"/>
</svg>
