<!-- Copyright 2000-2025 JetBrains s.r.o. and contributors. Use of this source code is governed by the Apache 2.0 license. -->
<svg width="16" height="16" viewBox="0 0 16 16" fill="none" xmlns="http://www.w3.org/2000/svg">
<path d="M4.51011 7.68695C4.51011 7.88395 4.53011 8.04395 4.56811 8.16195C4.61011 8.27895 4.66411 8.40695 4.73811 8.54595C4.76172 8.58267 4.77454 8.62529 4.77511 8.66895C4.77511 8.72195 4.74311 8.77595 4.67511 8.82895L4.33911 9.05295C4.29878 9.08207 4.25081 9.09875 4.20111 9.10095C4.14711 9.10095 4.09411 9.07495 4.04111 9.02695C3.96924 8.94961 3.90494 8.86556 3.84911 8.77595C3.78962 8.67336 3.73457 8.56827 3.68411 8.46095C3.26911 8.95195 2.74811 9.19795 2.12011 9.19795C1.67311 9.19795 1.31611 9.06895 1.05611 8.81295C0.795109 8.55695 0.662109 8.21495 0.662109 7.78795C0.662109 7.33395 0.822109 6.96595 1.14611 6.68795C1.47111 6.40995 1.90211 6.27195 2.45011 6.27195C2.63011 6.27195 2.81711 6.28795 3.01411 6.31395C3.21111 6.34095 3.41411 6.38395 3.62611 6.43195V6.04195C3.62611 5.63595 3.54111 5.35295 3.37611 5.18795C3.20611 5.02195 2.91811 4.94195 2.50811 4.94195C2.32211 4.94195 2.13111 4.96395 1.93411 5.01195C1.73838 5.05853 1.54623 5.11902 1.35911 5.19295C1.2987 5.2203 1.23657 5.24369 1.17311 5.26295C1.14561 5.27204 1.11703 5.27742 1.08811 5.27895C1.01311 5.27895 0.976109 5.22495 0.976109 5.11295V4.85095C0.976109 4.76595 0.986109 4.70095 1.01311 4.66495C1.05341 4.61589 1.10483 4.57715 1.16311 4.55195C1.34811 4.45595 1.57211 4.37595 1.83311 4.31195C2.09311 4.24195 2.37011 4.21095 2.66311 4.21095C3.29611 4.21095 3.75911 4.35495 4.05711 4.64295C4.35011 4.93095 4.49911 5.36895 4.49911 5.95695V7.68695H4.50911H4.51011ZM2.34911 8.49795C2.52411 8.49795 2.70511 8.46595 2.89711 8.40195C3.08811 8.33795 3.25911 8.21995 3.40211 8.05995C3.48786 7.96171 3.5498 7.84502 3.58311 7.71895C3.61511 7.58995 3.63711 7.43595 3.63711 7.25395V7.02995C3.47559 6.99078 3.312 6.96074 3.14711 6.93995C2.9813 6.9185 2.8143 6.90748 2.64711 6.90695C2.29011 6.90695 2.02911 6.97695 1.85411 7.12095C1.67811 7.26495 1.59411 7.46795 1.59411 7.73495C1.59411 7.98495 1.65711 8.17195 1.79011 8.30095C1.91811 8.43395 2.10411 8.49795 2.34911 8.49795ZM6.62211 9.07495C6.52611 9.07495 6.46211 9.05895 6.42011 9.02095C6.37711 8.98895 6.34011 8.91495 6.30811 8.81295L5.05811 4.68595C5.03346 4.61678 5.01701 4.54496 5.00911 4.47195C5.00911 4.38695 5.05211 4.33895 5.13711 4.33895H5.65911C5.75911 4.33895 5.82911 4.35495 5.86611 4.39195C5.90911 4.42395 5.94111 4.49895 5.97311 4.59995L6.86711 8.13495L7.69711 4.59995C7.72311 4.49395 7.75511 4.42395 7.79711 4.39195C7.86127 4.35265 7.93602 4.33414 8.01111 4.33895H8.43611C8.53811 4.33895 8.60611 4.35495 8.64911 4.39195C8.69211 4.42395 8.72911 4.49895 8.75011 4.59995L9.59111 8.17795L10.5111 4.59995C10.5282 4.52253 10.565 4.45085 10.6181 4.39195C10.6801 4.35268 10.7529 4.33412 10.8261 4.33895H11.3211C11.4061 4.33895 11.4541 4.38195 11.4541 4.47195C11.4541 4.49895 11.4481 4.52595 11.4441 4.55795C11.4355 4.60335 11.4228 4.64787 11.4061 4.69095L10.1231 8.81795C10.0911 8.92495 10.0541 8.99495 10.0121 9.02695C9.95172 9.06558 9.88067 9.08413 9.80911 9.07995H9.35211C9.25111 9.07995 9.18211 9.06395 9.13911 9.02695C9.09611 8.98895 9.05911 8.91995 9.03811 8.81295L8.21311 5.36995L7.39311 8.80895C7.36711 8.91595 7.33511 8.98495 7.29311 9.02195C7.25011 9.05995 7.17511 9.07595 7.08011 9.07595H6.62211V9.07495ZM13.4601 9.21895C13.184 9.21932 12.9087 9.1871 12.6401 9.12295C12.3741 9.05895 12.1671 8.98895 12.0281 8.90895C11.9431 8.86095 11.8851 8.80795 11.8631 8.75895C11.8428 8.7119 11.8322 8.66121 11.8321 8.60995V8.33795C11.8321 8.22595 11.8741 8.17195 11.9541 8.17195C11.9868 8.17202 12.0192 8.17743 12.0501 8.18795C12.0821 8.19895 12.1301 8.21995 12.1831 8.24195C12.3631 8.32195 12.5611 8.38595 12.7681 8.42895C12.9811 8.47095 13.1881 8.49295 13.4011 8.49295C13.7371 8.49295 13.9971 8.43395 14.1781 8.31695C14.2651 8.26431 14.3365 8.18957 14.3852 8.10033C14.4338 8.01109 14.458 7.91055 14.4551 7.80895C14.4569 7.74035 14.4451 7.67208 14.4204 7.60806C14.3957 7.54404 14.3585 7.48555 14.3111 7.43595C14.2161 7.33395 14.0351 7.24295 13.7741 7.15795L13.0021 6.91795C12.6141 6.79495 12.3261 6.61295 12.1511 6.37295C11.9798 6.15119 11.8863 5.87917 11.8851 5.59895C11.8851 5.37495 11.9331 5.17695 12.0281 5.00595C12.1241 4.83595 12.2521 4.68595 12.4121 4.56795C12.5721 4.44595 12.7521 4.35495 12.9651 4.29095C13.1781 4.22695 13.4011 4.19995 13.6351 4.19995C13.7531 4.19995 13.8751 4.20495 13.9921 4.22095C14.1141 4.23695 14.2261 4.25895 14.3381 4.28095C14.4441 4.30695 14.5461 4.33295 14.6411 4.36595C14.7371 4.39795 14.8111 4.42995 14.8651 4.46195C14.9279 4.49348 14.9826 4.53898 15.0251 4.59495C15.0593 4.64702 15.0758 4.70875 15.0721 4.77095V5.02195C15.0721 5.13395 15.0301 5.19295 14.9501 5.19295C14.8793 5.18486 14.8107 5.16313 14.7481 5.12895C14.4265 4.98638 14.0778 4.9154 13.7261 4.92095C13.4231 4.92095 13.1831 4.96895 13.0181 5.07095C12.8531 5.17095 12.7681 5.32695 12.7681 5.54595C12.7681 5.69495 12.8211 5.82295 12.9281 5.92495C13.0341 6.02595 13.2311 6.12695 13.5131 6.21795L14.2691 6.45795C14.6521 6.58095 14.9291 6.75195 15.0941 6.97095C15.2591 7.18995 15.3381 7.44095 15.3381 7.71895C15.3381 7.94895 15.2911 8.15595 15.2001 8.33795C15.1059 8.52058 14.9736 8.68085 14.8121 8.80795C14.6471 8.94095 14.4501 9.03795 14.2211 9.10695C13.9811 9.18195 13.7311 9.21895 13.4601 9.21895Z" fill="white"/>
<path fill-rule="evenodd" clip-rule="evenodd" d="M14.4649 11.813C12.7149 13.11 10.1709 13.799 7.98393 13.799C4.91893 13.799 2.15693 12.662 0.0709303 10.772C-0.0940697 10.622 0.0549303 10.419 0.25093 10.537C2.50793 11.85 5.29093 12.646 8.17093 12.646C10.1119 12.646 12.2459 12.24 14.2099 11.407C14.5029 11.274 14.7529 11.599 14.4649 11.813Z" fill="#FF9900"/>
<path fill-rule="evenodd" clip-rule="evenodd" d="M15.1939 10.98C14.9709 10.693 13.7149 10.842 13.1459 10.911C12.9759 10.933 12.9489 10.783 13.1029 10.671C14.1029 9.96598 15.7479 10.169 15.9389 10.404C16.1309 10.644 15.8859 12.294 14.9489 13.084C14.8059 13.207 14.6679 13.144 14.7309 12.984C14.9439 12.454 15.4179 11.264 15.1939 10.981V10.98Z" fill="#FF9900"/>
</svg>
