<svg xmlns="http://www.w3.org/2000/svg" width="16" height="16" viewBox="0 0 16 16">
  <g fill="#AFB1B3" fill-rule="evenodd" transform="translate(1 3)">
    <path d="M6.31794255,6.20289355 C12.0714542,1.62003794 13.9714439,3.78268224 13.9714439,3.78268224 C14.0110561,3.89013551 13.9439673,4.01315888 13.9439673,4.01315888 C13.943147,4.01261107 13.9423265,4.01206397 13.9415056,4.01151758 C13.8289857,4.36905788 12.9562836,4.84927518 11.6006682,4.90294393 C10.4408439,4.9488616 9.43733986,5.06898228 8.7917834,5.16319985 C7.91959009,5.70319586 7.09556048,6.30259566 6.42518224,6.80288785 C6.16013084,7.0006215 4.05502804,9.00703738 2.53776168,9.51453738 C1.5595612,9.84168984 0.738890679,9.90443699 0.30903385,9.34425564 C0.188488736,9.20832337 0.0937108324,9.02303962 0.0538411215,8.76942991 C-0.218471963,7.03840187 2.16869159,6.00070093 2.16869159,6.00070093 C2.16869159,6.00070093 2.33711682,6.97585981 2.45464486,7.13188785 C3.84458311,7.03573868 5.6294545,6.44629048 6.31794255,6.20289355 Z"/>
    <path d="M2.17369626,5.85621963 C2.17369626,5.85621963 1.24806075,2.43501869 3.52145794,1.13295327 C4.28056542,0.698135514 5.75579907,0.223672897 6.48968692,0.126359813 C7.2236729,0.0289813084 8.95247664,-0.278724299 9.84147664,1.1874486 C10.1663224,1.72314486 10.5890047,2.67102336 10.6781402,3.01418692 C9.74946262,4.0268972 3.2031215,5.79096262 2.17369626,5.85621963 Z"/>
  </g>
</svg>
