<svg xmlns="http://www.w3.org/2000/svg" width="16" height="16" viewBox="0 0 16 16">
  <defs>
    <linearGradient id="apache-a" x1="16.835%" x2="159.599%" y1="63.497%" y2="19.863%">
      <stop offset="0%" stop-color="#F69923"/>
      <stop offset="31.23%" stop-color="#F79A23"/>
      <stop offset="83.83%" stop-color="#E97826"/>
    </linearGradient>
    <linearGradient id="apache-b" x1="-217.367%" x2="74.968%" y1="394.12%" y2="13.671%">
      <stop offset="32.33%" stop-color="#9E2064"/>
      <stop offset="63.02%" stop-color="#C92037"/>
      <stop offset="75.14%" stop-color="#CD2335"/>
      <stop offset="100%" stop-color="#E97826"/>
    </linearGradient>
    <linearGradient id="apache-c" x1="-20.305%" x2="125.697%" y1="192.631%" y2="-136.581%">
      <stop offset="0%" stop-color="#282662"/>
      <stop offset="9.548%" stop-color="#662E8D"/>
      <stop offset="78.82%" stop-color="#9F2064"/>
      <stop offset="94.87%" stop-color="#CD2032"/>
    </linearGradient>
    <linearGradient id="apache-d" x1="-79.867%" x2="146.442%" y1="170.503%" y2="-44.384%">
      <stop offset="32.33%" stop-color="#9E2064"/>
      <stop offset="63.02%" stop-color="#C92037"/>
      <stop offset="75.14%" stop-color="#CD2335"/>
      <stop offset="100%" stop-color="#E97826"/>
    </linearGradient>
    <linearGradient id="apache-e" x1="-18.376%" x2="164.728%" y1="77.298%" y2="-41.36%">
      <stop offset="0%" stop-color="#282662"/>
      <stop offset="9.548%" stop-color="#662E8D"/>
      <stop offset="78.82%" stop-color="#9F2064"/>
      <stop offset="94.87%" stop-color="#CD2032"/>
    </linearGradient>
    <linearGradient id="apache-f" x1="-34.831%" x2="110.897%" y1="187.637%" y2="-51.127%">
      <stop offset="32.33%" stop-color="#9E2064"/>
      <stop offset="63.02%" stop-color="#C92037"/>
      <stop offset="75.14%" stop-color="#CD2335"/>
      <stop offset="100%" stop-color="#E97826"/>
    </linearGradient>
    <linearGradient id="apache-g" x1="-129.474%" x2="66.599%" y1="465.394%" y2="17.067%">
      <stop offset="32.33%" stop-color="#9E2064"/>
      <stop offset="63.02%" stop-color="#C92037"/>
      <stop offset="75.14%" stop-color="#CD2335"/>
      <stop offset="100%" stop-color="#E97826"/>
    </linearGradient>
    <linearGradient id="apache-h" x1="-4451.745%" x2="2812.774%" y1="19363.922%" y2="-11794.78%">
      <stop offset="32.33%" stop-color="#9E2064"/>
      <stop offset="63.02%" stop-color="#C92037"/>
      <stop offset="75.14%" stop-color="#CD2335"/>
      <stop offset="100%" stop-color="#E97826"/>
    </linearGradient>
    <linearGradient id="apache-i" x1="-9733.244%" x2="4795.795%" y1="20962.746%" y2="-10195.957%">
      <stop offset="32.33%" stop-color="#9E2064"/>
      <stop offset="63.02%" stop-color="#C92037"/>
      <stop offset="75.14%" stop-color="#CD2335"/>
      <stop offset="100%" stop-color="#E97826"/>
    </linearGradient>
  </defs>
  <g fill="none" fill-rule="evenodd" transform="rotate(21 8.413 18.603)">
    <path fill="url(#apache-a)" fill-rule="nonzero" d="M7.52074032,0.113326224 C7.24257595,0.278164368 6.78927106,0.736620456 6.23809351,1.40627542 L6.74291033,2.35409474 C7.09319138,1.84927793 7.45377482,1.39597303 7.81435826,1.00963363 C7.84011422,0.97872648 7.8555678,0.963272904 7.8555678,0.963272904 C7.84011422,0.97872648 7.82981184,0.994180056 7.81435826,1.00963363 C7.69588085,1.13841343 7.3404486,1.55050879 6.80987582,2.37469951 C7.32499502,2.34894355 8.11827859,2.24591971 8.76217759,2.13259349 C8.9527717,1.05599436 8.57158349,0.561479928 8.57158349,0.561479928 C8.57158349,0.561479928 8.08737144,-0.221501256 7.52074032,0.113326224 Z"/>
    <path d="M7.10047815 5.52207782C7.13632109 5.52207782 7.13632109 5.52207782 7.17216403 5.52207782L6.67036284 5.63677524C6.63451989 5.63677524 6.59867695 5.69412395 6.59867695 5.69412395 6.74204872 5.57942653 6.92126343 5.57942653 7.10047815 5.52207782zM6.60553291 7.22197118C6.41437055 7.3366686 6.22320819 7.39401731 6.03204583 7.45136602 6.22320819 7.39401731 6.41437055 7.27931989 6.60553291 7.22197118zM2.67346865 11.0287021C2.67861984 11.0132485 2.68377103 10.9977949 2.68892222 10.9874925 2.79709726 10.6938746 2.91042348 10.410559 3.01859851 10.1375459 3.14222712 9.82847434 3.26070454 9.52455401 3.37918195 9.23608726 3.50281056 8.92701574 3.62643917 8.63339779 3.75006778 8.34493104 3.87884758 8.0461619 4.00247618 7.75254396 4.12610479 7.47437959 4.22912863 7.24772714 4.32700128 7.02622589 4.42487393 6.81502702 4.45578108 6.74291033 4.49183942 6.67594483 4.52274658 6.60382814 4.58456088 6.46474596 4.65152638 6.33081497 4.71334068 6.19688398 4.77000379 6.07325537 4.8266669 5.95477795 4.88333002 5.84145173 4.90393478 5.80024219 4.91938836 5.76418385 4.93999313 5.72297431 4.94514432 5.71782312 4.94514432 5.71267193 4.95029551 5.70236954L4.88848121 5.70752074 4.84212048 5.60964809C4.83696929 5.61995047 4.8318181 5.63025286 4.8266669 5.63540405 4.73909664 5.81054458 4.65152638 5.9856851 4.56395611 6.16597682 4.51244419 6.26900066 4.46608346 6.3720245 4.41457154 6.47504834 4.27548936 6.7635151 4.14155837 7.05198185 4.00762738 7.34559979 3.87369638 7.63921774 3.73976539 7.93798687 3.61098559 8.23675601 3.48220579 8.53037395 3.35857718 8.8239919 3.24009977 9.11245865 3.11647116 9.40607659 2.99799374 9.69454334 2.88466752 9.9830101 2.7661901 10.2817792 2.64771269 10.5805484 2.53438646 10.8793175 2.5086305 10.946283 2.48287454 11.0132485 2.45711858 11.080214 2.36439713 11.3171688 2.27682686 11.5541237 2.1892566 11.7859273L2.26652448 11.9404631 2.33348998 11.9353119C2.33348998 11.9301607 2.33864117 11.9198583 2.33864117 11.9147071 2.45196739 11.615938 2.56014242 11.3171688 2.67346865 11.0287021z"/>
    <path fill="#BE202E" fill-rule="nonzero" d="M6.20889113,8.07706906 C6.02778994,8.19176647 5.831597,8.30646389 5.63540405,8.47851001 C5.63540405,8.47851001 5.63540405,8.47851001 5.63540405,8.47851001 C5.7410464,8.4211613 5.831597,8.3638126 5.93723935,8.30646389 C6.02778994,8.19176647 6.11834054,8.13441776 6.20889113,8.07706906 Z"/>
    <path fill="#BE202E" fill-rule="nonzero" d="M6.20889113,8.07706906 C6.02778994,8.19176647 5.831597,8.30646389 5.63540405,8.47851001 C5.63540405,8.47851001 5.63540405,8.47851001 5.63540405,8.47851001 C5.7410464,8.4211613 5.831597,8.3638126 5.93723935,8.30646389 C6.02778994,8.19176647 6.11834054,8.13441776 6.20889113,8.07706906 Z" opacity=".35"/>
    <path fill="#BE202E" fill-rule="nonzero" d="M6.00113868,7.50871472 C6.00113868,7.50871472 6.00113868,7.50871472 6.00113868,7.50871472 C6.00113868,7.50871472 6.00113868,7.50871472 6.00113868,7.50871472 C6.03937115,7.50871472 6.07760362,7.50871472 6.1158361,7.45136602 C6.26876598,7.39401731 6.42169587,7.27931989 6.57462576,7.22197118 C6.3834634,7.27931989 6.19230104,7.39401731 6.00113868,7.50871472 Z"/>
    <path fill="#BE202E" fill-rule="nonzero" d="M6.00113868,7.50871472 C6.00113868,7.50871472 6.00113868,7.50871472 6.00113868,7.50871472 C6.00113868,7.50871472 6.00113868,7.50871472 6.00113868,7.50871472 C6.03937115,7.50871472 6.07760362,7.50871472 6.1158361,7.45136602 C6.26876598,7.39401731 6.42169587,7.27931989 6.57462576,7.22197118 C6.3834634,7.27931989 6.19230104,7.39401731 6.00113868,7.50871472 Z" opacity=".35"/>
    <path fill="url(#apache-b)" fill-rule="nonzero" d="M5.25936703,4.80091094 C5.41390279,4.51759538 5.56843855,4.23427982 5.72297431,3.96641784 C5.88781246,3.68310228 6.04749941,3.4100891 6.21748874,3.14737831 C6.22779113,3.13192474 6.23809351,3.11647116 6.2483959,3.10101758 C6.41323404,2.84345798 6.57807218,2.59104958 6.74291033,2.35409474 L6.23809351,1.40627542 C6.20203517,1.45263614 6.16082563,1.49899687 6.12476729,1.5453576 C5.98053391,1.72564932 5.83114934,1.92139462 5.67661358,2.1274423 C5.50147306,2.35924594 5.32633253,2.60650315 5.14088962,2.86921394 C4.97090028,3.11131997 4.80091094,3.35857718 4.63092161,3.62128798 C4.48668823,3.84278923 4.34245486,4.06944168 4.19822148,4.30639651 C4.19307029,4.3166989 4.1879191,4.32185009 4.1827679,4.33215247 L4.83696929,5.62510166 C4.97605147,5.3417861 5.11513366,5.06877293 5.25936703,4.80091094 Z"/>
    <path fill="url(#apache-c)" fill-rule="nonzero" d="M2.28197806,12.074394 C2.19440779,12.3113489 2.10683753,12.5534549 2.01926726,12.8007121 C2.01926726,12.8058633 2.01926726,12.8058633 2.01411607,12.8110145 C2.00381369,12.8470728 1.98836011,12.8831312 1.97805773,12.9140383 C1.92139462,13.0788765 1.8698827,13.2282611 1.75140528,13.5733909 C1.94199938,13.6609612 2.09653514,13.8927648 2.24591971,14.1554756 C2.23046614,13.8824624 2.11713991,13.630054 1.90594104,13.4291575 C2.85376037,13.4703671 3.6727999,13.2334122 4.09519764,12.5380013 C4.13125598,12.476187 4.16731433,12.4092215 4.19822148,12.342256 C4.00762738,12.5843621 3.76552135,12.6873859 3.31736765,12.6667811 C3.31736765,12.6667811 3.31736765,12.6667811 3.31221646,12.6667811 C3.31221646,12.6667811 3.31221646,12.6667811 3.31736765,12.6667811 C3.97672022,12.3731632 4.30639651,12.0898476 4.60001446,11.615938 C4.66697995,11.5026117 4.73909664,11.3841343 4.80606214,11.2502033 C4.22912863,11.8425904 3.55947367,12.0125797 2.85376037,11.8837999 L2.32318759,11.9404631 C2.3180364,11.9868238 2.29743163,12.0331845 2.28197806,12.074394 Z"/>
    <path fill="url(#apache-d)" fill-rule="nonzero" d="M2.52923527,10.8947711 C2.6425615,10.6011531 2.76103891,10.302384 2.87951633,9.99846367 C2.99284255,9.70999692 3.11131997,9.42153017 3.23494858,9.12791222 C3.35857718,8.83429428 3.48220579,8.54582753 3.6058344,8.25220958 C3.7346142,7.95344045 3.86854519,7.65467131 4.00247618,7.36105337 C4.13640718,7.06743542 4.27033817,6.77896867 4.40942035,6.49050192 C4.46093227,6.38747808 4.507293,6.28445424 4.55880492,6.1814304 C4.64637518,6.00113868 4.73394545,5.82599815 4.82151571,5.65085762 C4.8266669,5.64055524 4.8318181,5.63025286 4.83696929,5.62510166 L4.1827679,4.32700128 C4.17246552,4.34245486 4.16216314,4.36305962 4.15186075,4.3785132 C3.99732499,4.62577042 3.84794042,4.88333002 3.69855586,5.14088962 C3.54917129,5.40360041 3.39978672,5.67146239 3.25555334,5.93932438 C3.13192474,6.16597682 3.01344732,6.39778046 2.9001211,6.6295841 C2.87436514,6.67594483 2.85376037,6.72230556 2.8331556,6.76866629 C2.68892222,7.06228423 2.56014242,7.34559979 2.4468162,7.61861297 C2.31288521,7.92768449 2.19955898,8.22130243 2.09653514,8.4994668 C2.02956965,8.68490971 1.96775534,8.86005024 1.91109223,9.03003958 C1.8647315,9.17427295 1.82352197,9.32365752 1.78231243,9.4678909 C1.68443978,9.80786957 1.60202071,10.1529994 1.52990402,10.4929781 L2.18410541,11.7962297 C2.27167567,11.564426 2.35924594,11.3274712 2.45196739,11.0905164 C2.47772335,11.0287021 2.50347931,10.9617366 2.52923527,10.8947711 Z"/>
    <path fill="url(#apache-e)" fill-rule="nonzero" d="M1.51960164,10.54449 C1.43718257,10.9617366 1.38051946,11.3738319 1.3496123,11.7859273 C1.3496123,11.8013809 1.3496123,11.8168344 1.34446111,11.8271368 C1.13841343,11.4974605 0.59238708,11.1780866 0.59238708,11.1832378 C0.983877672,11.7550201 1.28264681,12.3165001 1.32900754,12.8728288 C1.11780866,12.9140383 0.829341912,12.852224 0.499665624,12.7337466 C0.844795488,13.0531205 1.10750628,13.1406908 1.21053012,13.1664468 C0.891156216,13.1870515 0.561479928,13.4034016 0.226652448,13.65581 C0.716015688,13.4549135 1.11265747,13.3776456 1.39597303,13.4394599 C0.947819328,14.7118044 0.494514432,16.1129286 0.046360728,17.6067743 C0.185442912,17.5655647 0.267861984,17.4728433 0.314222712,17.3492147 C0.396641784,17.0813527 0.92721456,15.3093426 1.76170766,12.9810038 C1.78746362,12.9140383 1.80806839,12.8470728 1.83382435,12.7801074 C1.83897554,12.7595026 1.84927793,12.744049 1.85442912,12.7234442 C1.94199938,12.4813382 2.03472084,12.2289298 2.1274423,11.9765214 C2.14804706,11.9198583 2.16865183,11.8631952 2.19440779,11.8013809 C2.19440779,11.8013809 2.19440779,11.8013809 2.19440779,11.7962297 L1.54020641,10.4981293 C1.52475283,10.5187341 1.52475283,10.5341876 1.51960164,10.54449 Z"/>
    <path fill="url(#apache-f)" fill-rule="nonzero" d="M4.93999313,5.7281255 C4.91938836,5.76418385 4.90393478,5.80539338 4.88333002,5.84660292 C4.8266669,5.96508034 4.77000379,6.08355775 4.71334068,6.20203517 C4.65152638,6.33596616 4.58971207,6.46989715 4.52274658,6.60897934 C4.49183942,6.67594483 4.45578108,6.74806152 4.42487393,6.82017821 C4.32700128,7.03137708 4.22912863,7.25287834 4.12610479,7.47953078 C4.00247618,7.75769515 3.87884758,8.0461619 3.75006778,8.35008223 C3.62643917,8.63854898 3.50281056,8.93216693 3.37918195,9.24123845 C3.26070454,9.53485639 3.14222712,9.83362553 3.01859851,10.142697 C2.91042348,10.4208614 2.80224845,10.704177 2.68892222,10.9926437 C2.68377103,11.0080973 2.67861984,11.0183997 2.67346865,11.0338533 C2.56529362,11.32232 2.45196739,11.6210892 2.34379236,11.9250095 C2.34379236,11.9301607 2.33864117,11.9404631 2.33864117,11.9456142 L2.86921394,11.8889511 C2.85891156,11.8889511 2.84860918,11.8837999 2.83830679,11.8837999 C3.47190341,11.8065321 4.3115477,11.3326224 4.85242286,10.7505377 C5.10483127,10.4826757 5.33148372,10.1633018 5.5375314,9.79241599 C5.69206716,9.51425162 5.84145173,9.2103313 5.98053391,8.87035262 C6.10416252,8.57158349 6.21748874,8.25220958 6.33081497,7.90707972 C6.18658159,7.9843476 6.02174345,8.04101071 5.83630054,8.07706906 C5.80539338,8.08222025 5.76933504,8.09252263 5.73842789,8.09767382 C5.70752074,8.10282502 5.67146239,8.10797621 5.63540405,8.1131274 C5.63540405,8.1131274 5.63540405,8.1131274 5.63540405,8.1131274 C6.22263994,7.88647495 6.59867695,7.44862363 6.86653894,6.91289966 C6.71200318,7.0210747 6.45959477,7.15500569 6.15567444,7.22197118 C6.1144649,7.23227357 6.07325537,7.23742476 6.03204583,7.24257595 C6.02174345,7.24257595 6.01144106,7.24772714 6.00113868,7.24772714 C6.00113868,7.24772714 6.00113868,7.24772714 6.00113868,7.24772714 C6.00113868,7.24772714 6.00113868,7.24772714 6.00113868,7.24772714 C6.20718636,7.16015688 6.3771757,7.06743542 6.52656026,6.9541092 C6.55746742,6.92835324 6.58837457,6.90259728 6.61928172,6.87684132 C6.66564245,6.83563178 6.70685198,6.79442225 6.74806152,6.75321271 C6.77381748,6.72745675 6.79957344,6.6965496 6.8253294,6.66564245 C6.88199251,6.59352576 6.93865562,6.52140907 6.99016754,6.43899 C7.00562112,6.41323404 7.0210747,6.38747808 7.03652827,6.36172212 C7.05713304,6.32566378 7.07258662,6.28445424 7.09319138,6.2483959 C7.17561046,6.08355775 7.24257595,5.93417318 7.29408787,5.80539338 C7.31984383,5.73842789 7.34559979,5.68176478 7.36105337,5.62510166 C7.37135575,5.6044969 7.37650694,5.58389213 7.38165814,5.55813617 C7.4022629,5.49632186 7.41771648,5.43965875 7.43317006,5.39329802 C7.45377482,5.32118134 7.46407721,5.26451822 7.47437959,5.22330869 C7.45377482,5.23876226 7.43317006,5.25421584 7.4074141,5.26966942 C7.22712238,5.37784445 6.92320205,5.4705659 6.67594483,5.51692663 L7.16015688,5.46541471 L6.67594483,5.51692663 C6.67079364,5.51692663 6.67079364,5.51692663 6.66564245,5.51692663 C6.63988649,5.52207782 6.61413053,5.52722902 6.59352576,5.52722902 C6.59867695,5.52722902 6.60382814,5.52207782 6.60382814,5.52207782 L4.94514432,5.70236954 C4.94514432,5.71782312 4.93999313,5.72297431 4.93999313,5.7281255 Z"/>
    <path fill="url(#apache-g)" fill-rule="nonzero" d="M6.80472463,2.36954832 C6.65534006,2.59620077 6.49565311,2.85376037 6.32051258,3.14737831 C6.3102102,3.16283189 6.29990782,3.17828546 6.29475662,3.19373904 C6.14537206,3.44614745 5.9856851,3.72431182 5.82084696,4.02823214 C5.67661358,4.29094294 5.52722902,4.5691073 5.36754206,4.87302763 C5.23361107,5.13573842 5.0893777,5.41390279 4.94514432,5.71267193 L6.60382814,5.53238021 C7.08804019,5.31087895 7.30439026,5.10998246 7.51558913,4.81636452 C7.57225224,4.73394545 7.62891535,4.65152638 7.68557846,4.56395611 C7.8555678,4.29609413 8.02555714,4.00247618 8.1749417,3.71400943 C8.31917508,3.43069387 8.44795488,3.1525295 8.54582753,2.9001211 C8.60764183,2.74043414 8.65915375,2.59104958 8.6900609,2.46226978 C8.72096806,2.34894355 8.74157282,2.23561733 8.76217759,2.13259349 C8.1131274,2.24076852 7.31984383,2.34379236 6.80472463,2.36954832 Z"/>
    <path fill="#BE202E" fill-rule="nonzero" d="M6.20373993,8.09252263 C6.03169381,8.14987134 5.83097333,8.20722005 5.63025286,8.26456876 C5.83097333,8.26456876 6.03169381,8.20722005 6.20373993,8.09252263 Z"/>
    <path fill="#BE202E" fill-rule="nonzero" d="M6.20373993,8.09252263 C6.03169381,8.14987134 5.83097333,8.20722005 5.63025286,8.26456876 C5.83097333,8.26456876 6.03169381,8.20722005 6.20373993,8.09252263 Z" opacity=".35"/>
    <path fill="url(#apache-h)" fill-rule="nonzero" d="M6.20373993,8.09252263 C6.03169381,8.14987134 5.83097333,8.20722005 5.63025286,8.26456876 C5.83097333,8.26456876 6.03169381,8.20722005 6.20373993,8.09252263 Z"/>
    <path fill="#BE202E" fill-rule="nonzero" d="M6.00113868,7.29992466 C6.1158361,7.29992466 6.23053351,7.24257595 6.34523093,7.24257595 C6.23053351,7.24257595 6.1158361,7.29992466 6.00113868,7.29992466 Z"/>
    <path fill="#BE202E" fill-rule="nonzero" d="M6.00113868,7.29992466 C6.1158361,7.29992466 6.23053351,7.24257595 6.34523093,7.24257595 C6.23053351,7.24257595 6.1158361,7.29992466 6.00113868,7.29992466 Z" opacity=".35"/>
    <path fill="url(#apache-i)" fill-rule="nonzero" d="M6.00113868,7.29992466 C6.1158361,7.29992466 6.23053351,7.24257595 6.34523093,7.24257595 C6.23053351,7.24257595 6.1158361,7.29992466 6.00113868,7.29992466 Z"/>
  </g>
</svg>
