<!-- Copyright 2000-2022 JetBrains s.r.o. and contributors. Use of this source code is governed by the Apache 2.0 license. -->
<svg width="16" height="16" viewBox="0 0 16 16" fill="none" xmlns="http://www.w3.org/2000/svg">
<path d="M11.5832 12.0891C11.5832 12.0891 13.5656 10.1485 12.3179 7.98614C11.8833 7.23294 11.4355 6.75732 10.9938 6.28803C10.4739 5.73583 9.96234 5.1924 9.49016 4.21584C8.67249 2.52475 9.57333 1 9.57333 1C9.57333 1 6.28855 2.19208 6.38541 4.52079C6.4607 6.33119 7.9525 7.44025 9.24431 8.40062C9.65492 8.70589 10.0453 8.99614 10.3636 9.28911C11.5834 10.4119 11.5832 12.0891 11.5832 12.0891Z" fill="#ED1C24"/>
<path d="M10.2808 10.301C11.6391 12.2277 10.1144 14.5564 10.1144 14.5564C10.1144 14.5564 9.94774 13.3089 8.18734 12.0614C7.54757 11.608 6.9261 11.2378 6.35219 10.8958C4.71527 9.92061 3.46524 9.17588 3.28076 7.3901C3.07525 5.40074 5.8867 3.68911 5.8867 3.68911C5.8867 3.68911 5.0659 4.88303 5.99749 6.33663C6.92522 7.78422 7.8674 8.39753 8.6952 8.93638C9.30212 9.33145 9.84756 9.6865 10.2808 10.301Z" fill="#ED1C24"/>
<path d="M8.06216 12.7267C9.64987 13.6347 9.79483 15 9.79483 15C9.79483 15 9.16914 14.4034 8.01408 14.1198C7.26385 13.9356 6.69339 13.8745 6.21065 13.8228C5.45808 13.7421 4.91871 13.6843 4.24378 13.2188C2.52555 12.0337 3.95919 10.1208 3.95919 10.1208C3.95919 10.1208 4.05434 10.8027 4.73586 11.2713C5.5228 11.8123 6.05574 11.9704 6.59741 12.1311C7.03411 12.2606 7.47647 12.3918 8.06216 12.7267Z" fill="#ED1C24"/>
</svg>
