<svg width="16" height="16" viewBox="0 0 16 16" fill="none" xmlns="http://www.w3.org/2000/svg">
<path d="M8 11.7V15.1L1 11.6V9.60004L8 11.7Z" fill="#9C5121"/>
<path d="M8 11.7V15.1L15 11.6V9.60001L8 11.7Z" fill="#FB8835"/>
<path d="M8 11.7L1 9.60002L8 8.77631L15 9.6L8 11.7Z" fill="#FFC39C"/>
<path d="M1.00781 6.65625V8.63671L1.90114 8.81089V6.65625H1.00781Z" fill="#9C5121"/>
<path d="M2.44139 6.65625L2.44139 8.75391L1.90112 8.81089V6.65625H2.44139Z" fill="#FB8835"/>
<path d="M2.43576 8.91511L3.55909 9.13413V4.13782L2.43576 4.37159V8.91511Z" fill="#9C5121"/>
<path d="M4.69041 8.99362L3.55908 9.13413V4.13782L4.69041 4.27505L4.69041 8.99362Z" fill="#FB8835"/>
<path d="M4.27344 9.27342L5.88551 9.58773V5.14844L4.27344 5.31641V9.27342Z" fill="#9C5121"/>
<path d="M6.91405 9.41016L5.8855 9.58773V5.14844L6.91405 5.23438V9.41016Z" fill="#FB8835"/>
<path d="M15.0078 1.67578V8.63672L14.1178 8.80986V1.24097L15.0078 1.67578Z" fill="#FB8835"/>
<path d="M13.1289 1.46875V8.66386L14.1178 8.80986V1.24097L13.1289 1.46875Z" fill="#9C5121"/>
<path d="M13.6285 8.90506L12.4232 9.13954V1.64612L13.6285 2.12193V8.90506Z" fill="#FB8835"/>
<path d="M11.3281 9.00527L12.4232 9.13954V1.64612L11.3281 1.91408V9.00527Z" fill="#9C5121"/>
<path d="M11.7434 9.27177L10.095 9.59244V3.67969L11.7434 4.01841V9.27177Z" fill="#FB8835"/>
<path d="M9.09427 9.42121L10.095 9.59244V3.67969L9.09427 3.82248V9.42121Z" fill="#9C5121"/>
<path d="M8.00001 1.54462V9.99996L6.91193 9.78782V1.91116L8.00001 1.54462Z" fill="#9C5121"/>
<path d="M8 1.54163V10L9.10846 9.78436V1.89052L8 1.54163Z" fill="#FB8835"/>
</svg>
