<svg xmlns="http://www.w3.org/2000/svg" width="16" height="16" viewBox="0 0 16 16">
  <path fill="#529FDB" d="M6.4767433,10.2647034 C8.27541823,9.94696357 9.76102097,9.6840339 9.77808339,9.68041553 L9.80910628,9.67383641 L8.11097983,7.65396833 C7.17701101,6.5430407 6.41285424,5.62979257 6.41285424,5.62452814 C6.41285424,5.61456098 8.16631321,0.785913961 8.17617057,0.768735241 C8.17946635,0.762991739 9.37274845,2.82316053 11.0687647,5.76272051 C12.6566061,8.51478922 13.9657043,10.7838798 13.977872,10.8051429 L13.999996,10.8438038 L8.6032101,10.8431077 L3.20642524,10.8424144 L6.4767433,10.2647054 L6.4767433,10.2647034 Z M-4.03864499e-06,9.64874095 C-4.03864499e-06,9.64589707 0.800144909,8.25690129 1.7781047,6.56208251 L3.55621316,3.48059407 L5.62839302,1.74161652 C6.76809193,0.78517908 7.70364201,0.00147001027 7.70739281,4.07140461e-05 C7.71114362,-0.00138829921 7.69615115,0.0363458569 7.67407615,0.0838949288 C7.65200115,0.131444001 6.6394581,2.30324221 5.42398046,4.91011299 L3.21402165,9.64987794 L1.6070088,9.65189271 C0.723151939,9.65300196 -4.03864499e-06,9.65158143 -4.03864499e-06,9.64873982 L-4.03864499e-06,9.64874095 Z" transform="translate(1 2)"/>
</svg>
