<!-- Copyright 2000-2025 JetBrains s.r.o. and contributors. Use of this source code is governed by the Apache 2.0 license. -->
<svg width="16" height="16" viewBox="0 0 16 16" fill="none" xmlns="http://www.w3.org/2000/svg">
<path d="M5.55632 1.09074H9.89598L5.39098 14.4386C5.34468 14.5757 5.25653 14.6949 5.13894 14.7794C5.02135 14.8638 4.88025 14.9092 4.73548 14.9092H1.35815C1.24847 14.9093 1.14036 14.8832 1.04277 14.8331C0.945175 14.783 0.860906 14.7105 0.796929 14.6214C0.732953 14.5323 0.691109 14.4292 0.67486 14.3208C0.65861 14.2123 0.668422 14.1015 0.703483 13.9976L4.90065 1.56141C4.94693 1.42419 5.0351 1.30495 5.15272 1.22049C5.27035 1.13602 5.41151 1.09075 5.55632 1.09074Z" fill="url(#paint0_linear_1228_28988)"/>
<path d="M11.8626 10.0435H4.98096C4.91698 10.0434 4.85447 10.0626 4.80156 10.0986C4.74864 10.1345 4.70779 10.1856 4.68432 10.2451C4.66085 10.3046 4.65584 10.3698 4.66996 10.4322C4.68408 10.4946 4.71666 10.5513 4.76346 10.595L9.18546 14.7223C9.31421 14.8424 9.48373 14.9092 9.6598 14.9091H13.5565L11.8626 10.0435Z" fill="#0078D4"/>
<path d="M5.55641 1.09058C5.41002 1.09002 5.26728 1.13628 5.14905 1.22261C5.03082 1.30893 4.94329 1.4308 4.89924 1.57041L0.708744 13.9861C0.671324 14.0904 0.659576 14.2022 0.674494 14.312C0.689412 14.4218 0.730557 14.5264 0.794449 14.6169C0.85834 14.7075 0.943099 14.7813 1.04155 14.8321C1.14001 14.883 1.24926 14.9094 1.36008 14.9091H4.82458C4.95361 14.886 5.07421 14.8291 5.17406 14.7442C5.27391 14.6593 5.34943 14.5494 5.39291 14.4257L6.22858 11.9629L9.21358 14.7471C9.33867 14.8505 9.49558 14.9078 9.65791 14.9091H13.5401L11.8374 10.0434L6.87391 10.0446L9.91174 1.09058H5.55641Z" fill="url(#paint1_linear_1228_28988)"/>
<path d="M11.0991 1.56058C11.0529 1.42358 10.9648 1.30454 10.8474 1.22022C10.7299 1.1359 10.589 1.09056 10.4444 1.09058H5.60791C5.75248 1.09058 5.89341 1.13594 6.01086 1.22025C6.1283 1.30457 6.21634 1.4236 6.26258 1.56058L10.4599 13.9972C10.495 14.1012 10.5048 14.212 10.4886 14.3205C10.4724 14.429 10.4305 14.5321 10.3665 14.6212C10.3026 14.7103 10.2183 14.7829 10.1207 14.833C10.0231 14.8831 9.91495 14.9092 9.80524 14.9092H14.6419C14.7516 14.9092 14.8597 14.8831 14.9573 14.833C15.0549 14.7829 15.1391 14.7102 15.2031 14.6211C15.2671 14.532 15.3089 14.4289 15.3251 14.3205C15.3413 14.212 15.3315 14.1012 15.2964 13.9972L11.0991 1.56058Z" fill="url(#paint2_linear_1228_28988)"/>
<defs>
<linearGradient id="paint0_linear_1228_28988" x1="7.13798" y1="2.11474" x2="2.63115" y2="15.4291" gradientUnits="userSpaceOnUse">
<stop stop-color="#114A8B"/>
<stop offset="1" stop-color="#0669BC"/>
</linearGradient>
<linearGradient id="paint1_linear_1228_28988" x1="8.54591" y1="8.31941" x2="7.50341" y2="8.67191" gradientUnits="userSpaceOnUse">
<stop stop-opacity="0.3"/>
<stop offset="0.071" stop-opacity="0.2"/>
<stop offset="0.321" stop-opacity="0.1"/>
<stop offset="0.623" stop-opacity="0.05"/>
<stop offset="1" stop-opacity="0"/>
</linearGradient>
<linearGradient id="paint2_linear_1228_28988" x1="7.97241" y1="1.72624" x2="12.9196" y2="14.9064" gradientUnits="userSpaceOnUse">
<stop stop-color="#3CCBF4"/>
<stop offset="1" stop-color="#2892DF"/>
</linearGradient>
</defs>
</svg>
