<!-- Copyright 2000-2023 JetBrains s.r.o. and contributors. Use of this source code is governed by the Apache 2.0 license. -->
<svg width="16" height="16" viewBox="0 0 16 16" fill="none" xmlns="http://www.w3.org/2000/svg">
<path d="M0.283508 8.49614L3.71208 14.4961C3.89012 14.8077 4.22147 15 4.58032 15H11.4197C11.7785 15 12.1099 14.8077 12.2879 14.4961L15.7165 8.49614C15.8922 8.18871 15.8922 7.81129 15.7165 7.50386L12.2879 1.50386C12.1099 1.19229 11.7785 1 11.4197 1H4.58032C4.22147 1 3.89012 1.19229 3.71208 1.50386L0.283508 7.50386C0.107832 7.81129 0.107832 8.18871 0.283508 8.49614Z" fill="#4485F9"/>
<path d="M8 10.5C8.17123 10.5 8.33844 10.4828 8.5 10.45V7H7.5V10.45C7.66155 10.4828 7.82877 10.5 8 10.5Z" fill="white"/>
<path d="M7 8V10.292C6.60187 10.118 6.25781 9.84339 6 9.50024V8H7Z" fill="white"/>
<path d="M9 10.292C9.39813 10.118 9.74219 9.84339 10 9.50024V8H9V10.292Z" fill="white"/>
<path fill-rule="evenodd" clip-rule="evenodd" d="M10.4528 11.1599C9.77548 11.6865 8.92436 12 8 12C5.79086 12 4 10.2091 4 8C4 5.79086 5.79086 4 8 4C10.2091 4 12 5.79086 12 8C12 8.92436 11.6865 9.77548 11.1599 10.4528L12.3536 11.6464C12.5488 11.8417 12.5488 12.1583 12.3536 12.3536C12.1583 12.5488 11.8417 12.5488 11.6464 12.3536L10.4528 11.1599ZM11 8C11 9.65685 9.65685 11 8 11C6.34315 11 5 9.65685 5 8C5 6.34315 6.34315 5 8 5C9.65685 5 11 6.34315 11 8Z" fill="white"/>
<path opacity="0.5" d="M15.1477 9.49148L10.8696 5.21338C11.5693 5.9337 12 6.91656 12 8.00004C12 8.92439 11.6865 9.77552 11.16 10.4529L12.3536 11.6465C12.5489 11.8417 12.5489 12.1583 12.3536 12.3536C12.1583 12.5489 11.8417 12.5489 11.6465 12.3536L10.4529 11.16C9.77552 11.6865 8.92439 12 8.00004 12C6.91656 12 5.9337 11.5693 5.21338 10.8696L9.34375 15H11.4197C11.7785 15 12.1099 14.8077 12.2879 14.4961L15.1477 9.49148Z" fill="#417BDC"/>
</svg>
