<svg xmlns="http://www.w3.org/2000/svg" width="16" height="16" viewBox="0 0 16 16">
  <g fill="none" fill-rule="evenodd" transform="translate(0 4)">
    <path fill="#BBE6FB" d="M12.9140571,3.3123375 C12.9940571,4.7579625 10.7826286,6.0798375 7.97348571,6.2632125 C5.16434286,6.4465875 2.82148571,5.4239625 2.74262857,3.9772125 C2.66148571,2.5315875 4.87405714,1.2097125 7.6832,1.0263375 C10.4912,0.8429625 12.8340571,1.8655875 12.9140571,3.3123375" opacity=".8"/>
    <path fill="#D3EFFC" d="M10.8616,2.467575 C10.8958857,4.45095 9.4536,6.049575 7.62845714,6.049575 C5.80331429,6.049575 4.29588571,4.64895 4.26045714,2.667825 C4.25817143,2.5182 4.2856,2.2392 4.33931429,1.972575 C5.46388571,1.1682 8.62502857,0.6507 10.6353143,1.450575 C10.8136,1.792575 10.8570286,2.18295 10.8616,2.467575" opacity=".8"/>
    <path fill="#121314" d="M10.6227429,5.96115 C10.7210286,6.221025 10.8170286,6.466275 10.9073143,6.713775 C11.0147429,7.00965 11.1118857,7.307775 11.1667429,7.62165 C11.1907429,7.760025 11.2033143,7.90065 11.2124571,8.0424 C11.2158857,8.099775 11.1987429,8.160525 11.1884571,8.219025 C11.1838857,8.239275 11.1713143,8.2584 11.1598857,8.28765 C11.1313143,7.9614 11.0844571,7.65315 10.9976,7.352775 C10.9290286,7.114275 10.8421714,6.8859 10.7050286,6.684525 C10.5793143,6.49665 10.4227429,6.351525 10.2090286,6.29865 C10.1381714,6.28065 10.0638857,6.275025 9.9896,6.275025 C9.8776,6.27615 9.80788571,6.362775 9.80217143,6.488775 C9.79417143,6.6834 9.8456,6.864525 9.90845714,7.04115 C9.96902857,7.2144 10.0421714,7.38315 10.1107429,7.553025 C10.1164571,7.568775 10.1233143,7.584525 10.1233143,7.604775 C10.1050286,7.5744 10.0856,7.544025 10.0673143,7.51365 C9.89245714,7.229025 9.71074286,6.952275 9.48102857,6.71715 C9.38388571,6.617025 9.27988571,6.5259 9.1496,6.4809 C9.11531429,6.46965 9.07645714,6.46515 9.0296,6.455025 C9.06617143,6.531525 9.09474286,6.594525 9.12445714,6.659775 C9.28674286,7.015275 9.42845714,7.3809 9.53245714,7.762275 C9.5896,7.976025 9.63188571,8.19315 9.65131429,8.414775 C9.66845714,8.606025 9.66731429,8.797275 9.61931429,8.984025 C9.61931429,8.986275 9.61702857,8.9874 9.61017143,8.999775 C9.62845714,8.52615 9.55074286,8.081775 9.37474286,7.658775 C9.1976,7.231275 8.93017143,6.884775 8.56217143,6.614775 C8.70388571,6.8229 8.70388571,7.051275 8.68674286,7.27965 C8.64445714,7.85115 8.47645714,8.38665 8.29931429,8.921025 C8.29702857,8.927775 8.29245714,8.934525 8.28445714,8.939025 C8.28788571,8.916525 8.29131429,8.891775 8.29588571,8.869275 C8.29931429,8.84565 8.30617143,8.82315 8.3096,8.7984 C8.33817143,8.61615 8.36674286,8.4339 8.39417143,8.250525 C8.43302857,7.973775 8.45588571,7.694775 8.45017143,7.41465 C8.4456,7.233525 8.43074286,7.051275 8.36788571,6.87915 C8.32217143,6.7554 8.25931429,6.6474 8.13245714,6.6069 C8.00217143,6.56415 7.88217143,6.60465 7.76902857,6.6699 C7.71874286,6.69915 7.71645714,6.770025 7.70845714,6.828525 C7.68102857,7.044525 7.69245714,7.260525 7.70617143,7.478775 C7.71645714,7.6149 7.7256,7.751025 7.72902857,7.8894 C7.70731429,7.78815 7.68902857,7.688025 7.66617143,7.5879 C7.61474286,7.357275 7.55645714,7.130025 7.46502857,6.914025 C7.42845714,6.82515 7.38617143,6.7374 7.31417143,6.6744 C7.2456,6.6114 7.18502857,6.610275 7.12902857,6.68565 C7.02845714,6.821775 6.93131429,6.961275 6.84331429,7.107525 C6.54388571,7.607025 6.27302857,8.126775 6.0056,8.64765 C5.99645714,8.664525 5.98617143,8.682525 5.97017143,8.696025 C5.99988571,8.6139 6.0296,8.5329 6.05931429,8.4519 C6.22502857,7.989525 6.39074286,7.528275 6.5176,7.051275 C6.55074286,6.9264 6.58617143,6.80265 6.5816,6.67215 C6.58045714,6.650775 6.57131429,6.619275 6.5576,6.6114 C6.54388571,6.603525 6.51188571,6.61365 6.50045714,6.628275 C6.44788571,6.6879 6.39417143,6.747525 6.35188571,6.81615 C6.21702857,7.03665 6.11645714,7.278525 6.01474286,7.519275 C6.00902857,7.532775 6.00217143,7.5474 5.9896,7.5609 C5.99531429,7.5159 5.99988571,7.4709 6.00788571,7.4259 C6.03645714,7.242525 6.05817143,7.0569 6.05474286,6.87015 C6.0536,6.815025 6.04331429,6.758775 6.02845714,6.7059 C6.01131429,6.637275 5.9736,6.619275 5.91074286,6.644025 C5.79874286,6.689025 5.70274286,6.767775 5.6136,6.8499 C5.37817143,7.067025 5.14617143,7.292025 4.91302857,7.512525 C4.90617143,7.519275 4.89817143,7.526025 4.8856,7.528275 C4.92331429,7.476525 4.95988571,7.4259 4.99645714,7.375275 C5.13702857,7.172775 5.28102857,6.9714 5.38045714,6.73965 C5.46845714,6.5349 5.44788571,6.502275 5.2936,6.353775 C5.15417143,6.218775 4.9896,6.2154 4.81702857,6.2694 C4.63988571,6.32565 4.49474286,6.43815 4.3656,6.574275 C4.22731429,6.722775 4.09817143,6.880275 3.9656,7.0344 C3.95645714,7.0434 3.9496,7.05465 3.9416,7.06365 L3.9336,7.0569 C3.97131429,6.990525 4.00902857,6.925275 4.04331429,6.8589 C4.12788571,6.69465 4.21245714,6.531525 4.24674286,6.344775 C4.25702857,6.293025 4.25702857,6.236775 4.25131429,6.1839 C4.23988571,6.0984 4.15874286,6.04665 4.06845714,6.070275 C3.98845714,6.0894 3.90845714,6.11415 3.83531429,6.15015 C3.57817143,6.275025 3.34845714,6.450525 3.12217143,6.628275 C2.98274286,6.7374 2.84902857,6.855525 2.71302857,6.96915 C2.71188571,6.970275 2.70845714,6.96915 2.69931429,6.9714 C2.7656,6.8949 2.8296,6.824025 2.89131429,6.749775 C3.02617143,6.590025 3.15988571,6.428025 3.25588571,6.23565 C3.28102857,6.182775 3.29588571,6.12315 3.3096,6.063525 C3.31988571,6.009525 3.29245714,5.966775 3.24788571,5.948775 C3.17131429,5.919525 3.09588571,5.890275 3.01817143,5.876775 C2.63417143,5.81265 2.24674286,5.825025 1.86045714,5.834025 C1.62617143,5.83965 1.39188571,5.83515 1.1576,5.811525 C0.915314286,5.789025 0.678742857,5.7384 0.4536,5.6394 C0.286742857,5.5674 0.138171429,5.46615 -0.000114285714,5.3424 C0.0764571429,5.375025 0.154171429,5.411025 0.230742857,5.442525 C0.422742857,5.519025 0.6216,5.566275 0.823885714,5.595525 C1.05702857,5.629275 1.29017143,5.6259 1.52217143,5.618025 C1.71302857,5.6124 1.90388571,5.5899 2.09474286,5.575275 C2.2936,5.56065 2.4936,5.53815 2.69245714,5.530275 C2.88902857,5.523525 3.08674286,5.521275 3.28331429,5.532525 C3.56788571,5.5494 3.8456,5.61015 4.12102857,5.696775 C4.57588571,5.83965 5.03417143,5.9724 5.5016,6.072525 C5.69131429,6.113025 5.88217143,6.14565 6.07302857,6.17265 C6.28788571,6.20415 6.50388571,6.2244 6.72102857,6.2469 C7.02045714,6.27615 7.31988571,6.272775 7.62045714,6.26265 C7.80217143,6.257025 7.98274286,6.2379 8.16445714,6.218775 C8.83874286,6.15015 9.49931429,5.9994 10.1393143,5.755275 C10.6216,5.5719 11.0798857,5.332275 11.5050286,5.021775 C11.8581714,4.765275 12.1736,4.463775 12.4490286,4.110525 C12.6307429,3.876525 12.7884571,3.624525 12.9221714,3.35565 C12.9576,3.284775 12.9896,3.210525 13.0376,3.149775 C13.1164571,3.053025 13.2227429,3.030525 13.3381714,3.041775 C13.5781714,3.068775 13.7804571,3.197025 13.9781714,3.334275 C14.0364571,3.374775 14.0924571,3.4209 14.1598857,3.471525 C14.0216,3.419775 13.8947429,3.3669 13.7667429,3.325275 C13.6878857,3.300525 13.6021714,3.28815 13.5198857,3.27465 C13.5038857,3.271275 13.4776,3.284775 13.4718857,3.298275 C13.4661714,3.311775 13.4753143,3.34215 13.4878857,3.3534 C13.5701714,3.422025 13.6501714,3.49965 13.7416,3.55365 C13.9781714,3.6954 14.2193143,3.82815 14.4581714,3.964275 C14.4707429,3.9699 14.4833143,3.97665 14.4947429,3.986775 C14.3816,3.9564 14.2696,3.921525 14.1576,3.89565 C14.0444571,3.8709 13.9313143,3.854025 13.8170286,3.83715 C13.7816,3.83265 13.7416,3.838275 13.7050286,3.84615 C13.6456,3.8574 13.6227429,3.9024 13.6558857,3.957525 C13.6970286,4.0284 13.7416,4.101525 13.7964571,4.157775 C13.9873143,4.355775 14.1838857,4.54815 14.3793143,4.740525 C14.4547429,4.81365 14.5336,4.882275 14.6044571,4.958775 C14.5393143,4.907025 14.4718857,4.855275 14.4056,4.80465 C14.1701714,4.625775 13.9347429,4.4469 13.6821714,4.30065 C13.6250286,4.26915 13.5621714,4.245525 13.5016,4.22415 C13.4467429,4.20615 13.4124571,4.243275 13.4353143,4.299525 C13.4627429,4.3704 13.4970286,4.443525 13.5450286,4.49865 C13.6696,4.643775 13.8033143,4.7799 13.9347429,4.9194 C13.9370286,4.92165 13.9381714,4.92615 13.9461714,4.93965 C13.8878857,4.904775 13.8398857,4.873275 13.7896,4.84515 C13.5313143,4.695525 13.2684571,4.553775 12.9850286,4.466025 C12.8718857,4.430025 12.7553143,4.40415 12.6376,4.416525 C12.5953143,4.421025 12.5518857,4.4334 12.5130286,4.448025 C12.4661714,4.46715 12.4558857,4.502025 12.4730286,4.553775 C12.5027429,4.6404 12.5553143,4.709025 12.6170286,4.7664 C12.7610286,4.9059 12.9096,5.039775 13.0570286,5.174775 C13.0856,5.201775 13.1187429,5.226525 13.1461714,5.2569 L12.9987429,5.1714 C12.8993143,5.114025 12.7964571,5.06115 12.6844571,5.03865 C12.6478857,5.030775 12.6101714,5.028525 12.5736,5.0319 C12.4947429,5.039775 12.4616,5.091525 12.4787429,5.1759 C12.5038857,5.307525 12.5610286,5.4234 12.6227429,5.53815 C12.7678857,5.811525 12.9381714,6.068025 13.1141714,6.3189 C13.2136,6.461775 13.3164571,6.601275 13.4170286,6.7419 C13.4204571,6.7464 13.4227429,6.752025 13.4193143,6.761025 C13.3358857,6.666525 13.2524571,6.5709 13.1678857,6.4764 C12.8684571,6.140025 12.5701714,5.80365 12.2456,5.49765 C12.1838857,5.43915 12.1164571,5.38965 12.0501714,5.33565 C12.0410286,5.3289 12.0307429,5.323275 12.0216,5.321025 C12.0021714,5.316525 11.9736,5.3064 11.9656,5.316525 C11.9507429,5.33115 11.9404571,5.3649 11.9461714,5.384025 C11.9736,5.471775 11.9964571,5.5629 12.0387429,5.6439 C12.1221714,5.80365 12.2170286,5.95665 12.3073143,6.11415 C12.3107429,6.119775 12.3130286,6.1254 12.3096,6.13665 C12.2467429,6.068025 12.1850286,5.99715 12.1210286,5.930775 C11.9850286,5.791275 11.8478857,5.65515 11.6867429,5.55165 C11.6444571,5.52465 11.5964571,5.5044 11.5496,5.489775 C11.4764571,5.467275 11.4284571,5.505525 11.4421714,5.5854 C11.4581714,5.687775 11.4856,5.79015 11.5198857,5.888025 C11.6444571,6.23115 11.8044571,6.55515 11.9678857,6.87915 C12.0890286,7.121025 12.2158857,7.36065 12.3404571,7.6014 C12.3438857,7.607025 12.3461714,7.61265 12.3427429,7.622775 C12.2776,7.523775 12.2147429,7.424775 12.1484571,7.325775 C11.9187429,6.9804 11.6787429,6.64515 11.3976,6.347025 C11.2753143,6.216525 11.1473143,6.092775 10.9953143,6.005025 C10.9198857,5.962275 10.8410286,5.92515 10.7541714,5.930775 C10.7107429,5.93415 10.6673143,5.9499 10.6227429,5.96115"/>
    <path fill="#1287B1" d="M10.2545143,2.5137 C10.2830857,4.083075 9.10594286,5.4702 7.61565714,5.4702 C6.12765714,5.4702 4.89794286,4.197825 4.86822857,2.62845 C4.86365714,2.379825 4.96994286,1.835325 5.15851429,1.7307 C6.7608,0.838575 8.54365714,1.02195 9.51508571,1.3347 C10.1436571,1.583325 10.2476571,2.1177 10.2545143,2.5137"/>
    <path fill="#121314" d="M14.4899429,0.2395125 C14.2270857,0.9313875 13.8773714,1.5557625 13.3333714,2.0440125 C13.4248,2.0642625 13.5116571,2.0732625 13.5996571,2.0631375 C14.0202286,2.0170125 14.3699429,1.7920125 14.7070857,1.5411375 C14.9665143,1.3476375 15.2042286,1.1248875 15.4305143,0.8897625 C15.4362286,0.8830125 15.4430857,0.8773875 15.4533714,0.8751375 C15.1608,1.4106375 14.8293714,1.9078875 14.3345143,2.2555125 C14.4430857,2.3005125 14.5528,2.3140125 14.6636571,2.2982625 C14.9802286,2.2555125 15.2408,2.0800125 15.4899429,1.8797625 C15.6613714,1.7413875 15.8190857,1.5827625 15.9676571,1.4162625 C15.9756571,1.4072625 15.9848,1.3982625 15.9996571,1.3971375 C15.9425143,1.4758875 15.8876571,1.5546375 15.8270857,1.6300125 C15.6625143,1.8370125 15.4853714,2.0282625 15.2888,2.1970125 C14.9242286,2.5120125 14.5219429,2.7471375 14.0625143,2.8517625 C13.8590857,2.8990125 13.6510857,2.9316375 13.4430857,2.8990125 C13.3482286,2.8843875 13.2533714,2.8416375 13.1676571,2.7955125 C12.9082286,2.6548875 12.6556571,2.5030125 12.3973714,2.3601375 C11.7048,1.9787625 10.9870857,1.6750125 10.2248,1.5096375 C9.93451429,1.4466375 9.63965714,1.4027625 9.34594286,1.3622625 C9.13794286,1.3341375 8.9288,1.3161375 8.71965714,1.3071375 C8.40537143,1.2947625 8.09108571,1.2891375 7.7768,1.2902625 C7.58251429,1.2913875 7.38822857,1.3048875 7.19508571,1.3251375 C6.92308571,1.3521375 6.65108571,1.3825125 6.38022857,1.4252625 C5.79965714,1.5197625 5.22822857,1.6648875 4.69222857,1.9292625 C4.31622857,2.1148875 3.94251429,2.3106375 3.57794286,2.5165125 C3.15851429,2.7538875 2.76994286,3.0463875 2.38708571,3.3467625 C1.97908571,3.6640125 1.57337143,3.9868875 1.16422857,4.3018875 C0.871657143,4.5268875 0.567657143,4.7305125 0.254514286,4.9172625 C0.239657143,4.9262625 0.225942857,4.9341375 0.206514286,4.9352625 C0.239657143,4.8992625 0.2728,4.8621375 0.305942857,4.8261375 C0.340228571,4.7912625 0.373371429,4.7552625 0.4088,4.7192625 C0.6008,4.5246375 0.789371429,4.3255125 0.985942857,4.1365125 C1.20994286,3.9216375 1.43851429,3.7157625 1.66937143,3.5098875 C1.96422857,3.2455125 2.27508571,3.0025125 2.59165714,2.7707625 C3.1448,2.3668875 3.72537143,2.0125125 4.3368,1.7245125 C4.90937143,1.4556375 5.50022857,1.2463875 6.10822857,1.0978875 C6.25108571,1.0630125 6.39394286,1.0315125 6.5368,0.9977625 C6.6088,0.9808875 6.65794286,0.9291375 6.6968,0.8638875 C6.7608,0.7491375 6.7928,0.6231375 6.81451429,0.4937625 C6.82022857,0.4667625 6.82251429,0.4397625 6.82594286,0.4172625 C6.84651429,0.4982625 6.86251429,0.5860125 6.89222857,0.6670125 C6.91051429,0.7198875 6.94251429,0.7716375 6.9768,0.8132625 C7.02365714,0.8683875 7.07051429,0.8661375 7.12308571,0.8155125 C7.20537143,0.7345125 7.24994286,0.6276375 7.29794286,0.5230125 C7.32422857,0.4667625 7.3448,0.4082625 7.37108571,0.3531375 C7.35965714,0.4217625 7.34251429,0.4915125 7.3368,0.5601375 C7.33222857,0.6310125 7.33108571,0.7030125 7.34251429,0.7716375 C7.35737143,0.8605125 7.41908571,0.8942625 7.49451429,0.8526375 C7.55622857,0.8177625 7.6168,0.7727625 7.66137143,0.7165125 C7.76537143,0.5871375 7.85908571,0.4487625 7.95622857,0.3137625 C7.96422857,0.3025125 7.97222857,0.2901375 7.9848,0.2698875 C7.96537143,0.3666375 7.9448,0.4532625 7.93108571,0.5421375 C7.91737143,0.6265125 7.89451429,0.7120125 7.91622857,0.7997625 C7.92994286,0.8537625 7.95508571,0.8683875 7.99165714,0.8278875 C8.0648,0.7502625 8.13565714,0.6703875 8.19851429,0.5826375 C8.29451429,0.4453875 8.38251429,0.3013875 8.47508571,0.1596375 L8.49565714,0.1292625 C8.47165714,0.2080125 8.4488,0.2721375 8.43165714,0.3396375 C8.42022857,0.3868875 8.41565714,0.4375125 8.4168,0.4858875 C8.41794286,0.6265125 8.52651429,0.6647625 8.6248,0.6501375 C8.79965714,0.6253875 8.94022857,0.5230125 9.07622857,0.4150125 C9.11394286,0.3846375 9.14937143,0.3520125 9.18937143,0.3227625 C9.16194286,0.3677625 9.13108571,0.4093875 9.1048,0.4566375 C9.07737143,0.5083875 9.05108571,0.5612625 9.03165714,0.6175125 C9.00994286,0.6760125 9.02937143,0.7063875 9.08422857,0.7277625 C9.2488,0.7873875 9.41108571,0.7671375 9.56765714,0.6940125 C9.71737143,0.6253875 9.84651429,0.5207625 9.95737143,0.3936375 C10.0339429,0.3081375 10.1025143,0.2158875 10.1836571,0.1168875 C10.1425143,0.2136375 10.1082286,0.3013875 10.0682286,0.3857625 C10.0259429,0.4723875 9.98137143,0.5567625 9.93337143,0.6388875 C9.88537143,0.7221375 9.83165714,0.8008875 9.77794286,0.8841375 C9.90251429,0.9235125 10.0225143,0.9111375 10.1402286,0.8661375 C10.3299429,0.7918875 10.4785143,0.6557625 10.6088,0.4948875 C10.6865143,0.3970125 10.7550857,0.2912625 10.8316571,0.1900125 C10.7002286,0.4813875 10.5676571,0.7716375 10.4305143,1.0753875 C10.4682286,1.0753875 10.5002286,1.0821375 10.5276571,1.0742625 C10.6408,1.0438875 10.7322286,0.9685125 10.8213714,0.8931375 C11.0602286,0.6895125 11.2739429,0.4555125 11.4808,0.2158875 C11.5436571,0.1438875 11.6065143,0.0707625 11.6716571,-0.0001125 C11.4408,0.4060125 11.2236571,0.8233875 10.8830857,1.1462625 C10.9230857,1.1743875 10.9688,1.1687625 11.0145143,1.1552625 C11.1390857,1.1181375 11.2453714,1.0416375 11.3493714,0.9628875 C11.4385143,0.8953875 11.5242286,0.8211375 11.6213714,0.7412625 C11.5802286,0.8020125 11.5436571,0.8515125 11.5128,0.9055125 C11.4533714,1.0101375 11.3962286,1.1158875 11.3379429,1.2216375 C11.3333714,1.2295125 11.3288,1.2385125 11.3265143,1.2475125 C11.3150857,1.2913875 11.2842286,1.3397625 11.3230857,1.3825125 C11.3630857,1.4252625 11.4168,1.4353875 11.4728,1.4196375 C11.5608,1.3926375 11.6350857,1.3363875 11.7048,1.2756375 C11.8762286,1.1271375 12.0270857,0.9561375 12.1688,0.7750125 C12.2990857,0.6073875 12.4248,0.4352625 12.5539429,0.2642625 C12.5596571,0.2586375 12.5642286,0.2541375 12.5733714,0.2496375 C12.4533714,0.5128875 12.3128,0.7637625 12.1608,1.0078875 C12.0076571,1.2520125 11.8419429,1.4860125 11.6568,1.7098875 C11.7093714,1.7425125 11.7619429,1.7481375 11.8179429,1.7380125 C11.9322286,1.7177625 12.0328,1.6637625 12.1288,1.5973875 C12.2990857,1.4815125 12.4499429,1.3408875 12.5939429,1.1901375 C12.8465143,0.9257625 13.0796571,0.6445125 13.2956571,0.3475125 C13.3036571,0.3373875 13.3128,0.3283875 13.3299429,0.3227625 C13.3128,0.3801375 13.2979429,0.4386375 13.2773714,0.4937625 C13.1928,0.7277625 13.0659429,0.9313875 12.9208,1.1248875 C12.7779429,1.3150125 12.6190857,1.4893875 12.4533714,1.6547625 C12.4499429,1.6581375 12.4465143,1.6626375 12.4362286,1.6727625 C12.5322286,1.6626375 12.6122286,1.6277625 12.6899429,1.5861375 C12.8533714,1.4961375 12.9950857,1.3757625 13.1310857,1.2430125 C13.4156571,0.9628875 13.6556571,0.6411375 13.8808,0.3058875 C13.8830857,0.3025125 13.8865143,0.2991375 13.8968,0.2856375 C13.7836571,0.6085125 13.6442286,0.9032625 13.4762286,1.1822625 C13.3082286,1.4623875 13.1128,1.7177625 12.8830857,1.9427625 C12.8842286,1.9461375 12.8853714,1.9506375 12.8876571,1.9528875 C12.9322286,1.9405125 12.9779429,1.9303875 13.0213714,1.9112625 C13.1459429,1.8572625 13.2556571,1.7751375 13.3585143,1.6840125 C13.6522286,1.4207625 13.8968,1.1068875 14.1276571,0.7783875 C14.2488,0.6051375 14.3630857,0.4251375 14.4808,0.2496375 C14.4830857,0.2451375 14.4865143,0.2428875 14.4899429,0.2395125"/>
    <polygon fill="#FFF" points="8.311 2.87 8.622 2.29 8.622 2.962 9.115 2.555 8.878 3.176 9.478 3.004 9.04 3.481 9.653 3.571 9.083 3.829 9.616 4.168 8.998 4.169 9.373 4.703 8.801 4.447 8.958 5.096 8.52 4.621 8.437 5.287 8.199 4.667 7.888 5.248 7.887 4.576 7.395 4.982 7.631 4.361 7.032 4.532 7.469 4.057 6.857 3.966 7.428 3.708 6.893 3.37 7.512 3.37 7.137 2.834 7.71 3.091 7.552 2.441 7.989 2.916 8.072 2.25"/>
  </g>
</svg>
