<svg width="16" height="16" viewBox="0 0 16 16" fill="none" xmlns="http://www.w3.org/2000/svg">
<path fill-rule="evenodd" clip-rule="evenodd" d="M2.4032 2.16141L2.15163 1.02047L2.34694 0.977407C2.87428 0.86113 3.42141 0.799988 3.98196 0.799988C5.42816 0.799988 6.78015 1.20607 7.93342 1.91138C9.0867 1.20607 10.4387 0.799988 11.8849 0.799988C12.4471 0.799988 12.9957 0.861483 13.5245 0.978413C13.5676 0.987962 13.6107 0.99788 13.6536 1.00816L13.8481 1.05478L13.5758 2.19094L13.3813 2.14432C13.345 2.13564 13.3087 2.12726 13.2722 2.11919C12.8257 2.02045 12.3616 1.96833 11.8849 1.96833C10.8365 1.96833 9.84577 2.22104 8.96841 2.67016C10.6083 4.0969 11.6458 6.21427 11.6458 8.57363C11.6458 11.1259 10.4325 13.3932 8.55685 14.8109C8.38988 14.9371 8.21766 15.0565 8.04056 15.1689L7.93342 15.2368L7.82629 15.1689C7.58401 15.0152 7.35084 14.8481 7.12779 14.6688C5.3562 13.2444 4.22101 11.0423 4.22101 8.57363C4.22101 6.21427 5.25856 4.0969 6.89844 2.67016C6.02108 2.22104 5.03031 1.96833 3.98196 1.96833C3.50661 1.96833 3.04381 2.02015 2.59851 2.11834L2.4032 2.16141ZM9.41211 4.59124C9.00008 4.012 8.50057 3.50143 7.93342 3.07942C7.36628 3.50143 6.86677 4.012 6.45474 4.59124C6.4466 4.60269 6.4385 4.61416 6.43043 4.62565L6.42858 4.62828C6.41897 4.64198 6.40942 4.65571 6.39991 4.66949C6.37201 4.72663 6.3243 4.83276 6.27938 4.97255C6.24007 5.09486 6.2029 5.24296 6.18304 5.40657C6.14149 5.74879 6.17564 6.1589 6.42418 6.54301C6.7419 7.03403 7.36931 7.63015 7.70646 7.93458C7.84415 8.0589 7.93342 8.13458 7.93342 8.13458C7.93342 8.13458 8.0227 8.0589 8.16039 7.93458C8.49753 7.63015 9.12495 7.03403 9.44266 6.54301C9.69121 6.1589 9.72535 5.74879 9.68381 5.40657C9.66394 5.24296 9.62678 5.09486 9.58747 4.97254C9.54255 4.83276 9.49483 4.72663 9.46694 4.66949C9.45743 4.65571 9.44787 4.64198 9.43827 4.62828L9.43642 4.62565C9.42835 4.61416 9.42025 4.60269 9.41211 4.59124ZM5.55615 7.07924C5.44704 7.55926 5.38935 8.05947 5.38935 8.57363C5.38935 10.4284 6.14059 12.1029 7.34925 13.302V9.40237L7.34884 9.399C7.34781 9.39137 7.34513 9.37522 7.33849 9.35043C7.32521 9.30089 7.29598 9.21638 7.23209 9.09639C7.10402 8.85588 6.8377 8.47466 6.28634 7.9502C5.94533 7.62582 5.71041 7.31756 5.55615 7.07924ZM8.51759 9.40237V13.302C9.72624 12.1029 10.4775 10.4284 10.4775 8.57363C10.4775 8.05947 10.4198 7.55926 10.3107 7.07924C10.1564 7.31756 9.92152 7.62582 9.58051 7.9502C9.02915 8.47466 8.76282 8.85588 8.63476 9.09639C8.57087 9.21638 8.54163 9.30089 8.52836 9.35043C8.52172 9.37522 8.51903 9.39137 8.51801 9.399L8.51759 9.40237Z" fill="url(#paint0_radial)"/>
<defs>
<radialGradient id="paint0_radial" cx="0" cy="0" r="1" gradientUnits="userSpaceOnUse" gradientTransform="translate(10.6083 5.4404) rotate(123.197) scale(10.4748 8.43044)">
<stop offset="0" stop-color="#4AF7EE"/>
<stop offset="0.338542" stop-color="#5EA6F2"/>
<stop offset="0.6875" stop-color="#746EF7"/>
<stop offset="1" stop-color="#6A99FB"/>
</radialGradient>
</defs>
</svg>
