<svg xmlns="http://www.w3.org/2000/svg" width="16" height="16" viewBox="0 0 16 16">
  <g fill="none" transform="translate(1.1 1)">
    <path fill="#152849" d="M8.35731148,3.94616393 C7.86244484,4.06138763 7.35593917,4.11914637 6.84783607,4.11830436 C6.32914754,4.11830436 5.82262295,4.05954098 5.33629508,3.94616393 C5.74144455,3.30353961 6.25252063,2.73418565 6.84783607,2.2622623 C7.44192989,2.73487322 7.95221944,3.30412888 8.35731148,3.94616393 Z M12.9226885,0.24695082 C12.3138033,0.0844590164 11.6718689,-1.14371439e-05 11.0118033,-1.14371439e-05 C9.47318033,-1.14371439e-05 8.04127869,0.462918033 6.84622951,1.25885246 C5.61302572,0.435576714 4.16295355,-0.00259240659 2.68019672,-1.14371439e-05 C2.01967213,-1.14371439e-05 1.37796721,0.0844590164 0.768852459,0.24695082 C0.511803279,0.312131148 0.262786885,0.394754098 0.0190491803,0.486557377 C0.0114120887,0.489540258 0.00533904206,0.495534475 0.00225664003,0.503131945 C-0.000825762001,0.510729414 -0.000645855471,0.519260543 0.00275409836,0.526721311 C0.108984116,0.756732852 0.226874921,0.981177334 0.355967213,1.19918033 C0.362852459,1.21134426 0.377540984,1.21639344 0.390393443,1.21180328 C0.645776666,1.11998775 0.906241756,1.04297468 1.1704918,0.981147541 C1.65590164,0.868 2.16196721,0.810622951 2.68065574,0.810622951 C3.95213115,0.810622951 5.14098361,1.16636066 6.1572459,1.77914754 C5.51110695,2.32588078 4.96176891,2.97763778 4.53232787,3.70701639 C4.44941748,3.84627424 4.37118796,3.98826619 4.29777049,4.1327541 C4.24780596,4.23123191 4.19982902,4.33070561 4.15386885,4.43111475 C4.08593443,4.58534426 4.02006557,4.73957377 3.96245902,4.89793443 C3.65034788,5.73649741 3.49084933,6.62415504 3.4915082,7.51891803 C3.4915082,9.64783607 4.382,11.5734098 5.80954098,12.9435738 C5.92102937,13.0525774 6.03703259,13.1568654 6.1572459,13.2561639 C6.25180328,13.3383279 6.34659016,13.4168197 6.44527869,13.4886557 C6.56967213,13.5873443 6.69957377,13.678459 6.82993443,13.7654426 C6.83980328,13.7723279 6.85288525,13.7723279 6.8627541,13.7654426 C6.99288525,13.6763934 7.12118033,13.5852787 7.24534426,13.4886557 C7.34521894,13.4152058 7.4420017,13.3376418 7.53544262,13.2561639 C7.65537609,13.1557697 7.77202738,13.0515183 7.88521311,12.9435738 C9.30816393,11.5734098 10.2016393,9.646 10.2016393,7.51891803 C10.2023246,6.62480431 10.0427411,5.73780649 9.73045902,4.9 C9.67078689,4.73934426 9.60698361,4.58557377 9.53721311,4.43111475 C9.49177049,4.32829508 9.4444918,4.22914754 9.3995082,4.1327541 C9.32331148,3.98885246 9.24734426,3.84678689 9.16311475,3.70701639 C8.73118033,2.97672131 8.18196721,2.32445902 7.53819672,1.77914754 C8.586928,1.14501548 9.78924193,0.810069301 11.0147869,0.810622951 C11.5334754,0.810622951 12.0393115,0.868 12.5249508,0.981147541 C12.7891922,1.04272284 13.0495954,1.11974027 13.3048197,1.21180328 C13.3179016,1.21639344 13.3323607,1.21111475 13.3392459,1.19918033 C13.4668525,0.982295082 13.5839016,0.758065574 13.692,0.526721311 C13.6954762,0.519236229 13.6956967,0.510645634 13.6926092,0.502992044 C13.6895217,0.495338454 13.6834019,0.489305601 13.6757049,0.486327869 C13.4301311,0.39452459 13.1808852,0.311901639 12.9259016,0.246721311 L12.9226885,0.24695082 Z"/>
    <path fill="#54B30E" d="M9.39055828,7.51937705 C9.39055828,9.29852459 8.69514754,10.9167869 7.55954098,12.1187213 C7.35536106,11.4666719 7.25150763,10.7873683 7.25153492,10.1040984 C7.24923556,8.39285702 7.90477652,6.74619861 9.08255738,5.5047541 C9.28705113,6.15673079 9.39091194,6.8360827 9.39055828,7.51937705 L9.39055828,7.51937705 Z"/>
    <path fill="#93E600" d="M6.44000401,10.1040984 C6.44074787,10.7874399 6.33679881,11.4668627 6.13177049,12.1187213 C4.99639344,10.9167869 4.3007541,9.29852459 4.3007541,7.51937705 C4.3007541,6.818 4.41091803,6.14118033 4.6117377,5.5047541 C5.74711475,6.70370492 6.44000401,8.32495082 6.44000401,10.1040984"/>
  </g>
</svg>
