<!-- Copyright 2000-2024 JetBrains s.r.o. and contributors. Use of this source code is governed by the Apache 2.0 license. -->
<svg width="16" height="16" viewBox="0 0 16 16" fill="none" xmlns="http://www.w3.org/2000/svg">
<path fill-rule="evenodd" clip-rule="evenodd" d="M7.79059 0.0460203C7.92354 -0.0153401 8.0767 -0.0153401 8.20965 0.0460203L11.7096 1.6614C11.9604 1.77712 12.0698 2.07419 11.9541 2.32491C11.8384 2.57564 11.5413 2.68508 11.2906 2.56936L8.00012 1.05069L2.69327 3.5L8.00012 5.94932L14.2906 3.04602C14.4454 2.97457 14.626 2.98693 14.7696 3.07883C14.9132 3.17073 15.0001 3.32949 15.0001 3.5V6.5C15.0001 6.69503 14.8867 6.87225 14.7096 6.95398L8.20965 9.95398C8.0767 10.0153 7.92354 10.0153 7.79059 9.95398L2.00012 7.28145V9.18008L8.00012 11.9493L14.2906 9.04602C14.4454 8.97457 14.626 8.98693 14.7696 9.07883C14.9132 9.17073 15.0001 9.32949 15.0001 9.5V12.5C15.0001 12.695 14.8867 12.8723 14.7096 12.954L8.20965 15.954C8.0767 16.0153 7.92354 16.0153 7.79059 15.954L1.29059 12.954C1.03987 12.8383 0.930421 12.5412 1.04614 12.2905C1.16186 12.0397 1.45892 11.9303 1.70965 12.046L8.00012 14.9493L14.0001 12.1801V10.2815L8.20965 12.954C8.0767 13.0153 7.92354 13.0153 7.79059 12.954L1.29059 9.95398C1.11352 9.87225 1.00012 9.69503 1.00012 9.5V6.5C1.00012 6.32949 1.08702 6.17073 1.23064 6.07883C1.37427 5.98693 1.55483 5.97457 1.70965 6.04602L8.00012 8.94932L14.0001 6.18008V4.28145L8.20965 6.95398C8.0767 7.01534 7.92354 7.01534 7.79059 6.95398L1.29059 3.95398C1.11352 3.87225 1.00012 3.69503 1.00012 3.5C1.00012 3.30497 1.11352 3.12775 1.29059 3.04602L7.79059 0.0460203Z" fill="#DB5C5C"/>
</svg>
