<svg xmlns="http://www.w3.org/2000/svg" width="16" height="16" viewBox="0 0 16 16">
  <g fill="none" fill-rule="evenodd" transform="translate(1 1)">
    <rect width="14" height="7" fill="#020303" fill-rule="nonzero"/>
    <rect width="14" height="7" y="7" fill="#59A869"/>
    <g fill="#FFF" transform="translate(1 1)">
      <polygon points="0 0 0 1.035 .855 1.035 .855 3.978 .023 3.978 .023 5 3 5 3 3.978 2.145 3.978 2.145 1.035 2.977 1.035 2.977 0"/>
      <polygon points="7.5 0 7.5 1.025 8.064 1.025 8.064 3.975 7.515 3.975 7.515 5 8.915 5 8.915 2.148 9.749 4.999 9.766 5 10.585 2.148 10.585 5 12 5 12 3.975 11.436 3.975 11.436 1.025 11.985 1.025 11.985 0 10.407 0 9.754 2.286 9.093 0"/>
      <path d="M3.5,5 L3.5,3.96394879 L4.1277499,3.96394879 L4.1277499,2.32142857 L6.54408818,2.32142857 L6.54408818,2.63638814 C6.54408818,2.63638814 6.74621563,2.81380559 6.81062124,2.98216392 L6.93993747,3.30883592 C6.93993747,3.30883592 7,3.49168632 7,3.65509181 L6.97413226,3.98176381 C6.97413226,3.98176381 6.9335519,4.24788999 6.86278317,4.32704683 L6.61290421,4.65422423 C6.61290421,4.65422423 6.29493868,5 5.87380521,5 L3.5,5 Z M3.5,-3.90798505e-14 L5.87380521,-3.90798505e-14 C6.29493868,-3.90798505e-14 6.61290421,0.339604728 6.61290421,0.339604728 L6.86278317,0.660942998 C6.9335519,0.738687129 6.97413226,1.00006376 6.97413226,1.00006376 L7,1.32090566 C7,1.48139486 6.93993747,1.66098194 6.93993747,1.66098194 L6.81062124,1.98182384 C6.74621563,2.14717748 6.54408818,2.32142857 6.54408818,2.3169896 L4.1277499,2.3169896 L4.1277499,1.01756085 L3.5,1.01756085 L3.5,-3.90798505e-14 Z M5.07376834,1.025 L5.07376834,1.975 L5.99391904,1.975 L5.99391904,1.025 L5.07376834,1.025 Z M5.07376834,3.0125 L5.07376834,3.9625 L5.99391904,3.9625 L5.99391904,3.0125 L5.07376834,3.0125 Z"/>
    </g>
    <path fill="#FFF" d="M2.5,13 L2.5,8 L3.54411765,8 C4.64705882,8 5.17647059,8.79411765 5.17647059,10.3602941 C5.17647059,12.0588235 4.70588235,13 3.46323529,13 L2.5,13 Z M2.92647059,8.375 L2.92647059,12.625 L3.43382353,12.625 C4.42647059,12.625 4.73529412,11.8308824 4.73529412,10.3823529 C4.73529412,8.98529412 4.34558824,8.375 3.44117647,8.375 L2.92647059,8.375 Z M6.00735294,13 L6.00735294,8 L7.22794118,8 C7.93382353,8 8.38970588,8.43382353 8.38970588,9.19852941 C8.38970588,9.88235294 8.05882353,10.1691176 7.75735294,10.2720588 C8.14705882,10.3970588 8.55882353,10.7573529 8.55882353,11.5367647 C8.55882353,12.4191176 8.04411765,13 7.18382353,13 L6.00735294,13 Z M6.42647059,10.1176471 L7.05147059,10.1176471 C7.70588235,10.1176471 7.97058824,9.81617647 7.97058824,9.23529412 C7.97058824,8.71323529 7.69117647,8.36029412 7.13970588,8.36029412 L6.42647059,8.36029412 L6.42647059,10.1176471 Z M6.42647059,10.4779412 L6.42647059,12.6397059 L7.14705882,12.6397059 C7.78676471,12.6397059 8.13235294,12.2352941 8.13235294,11.5441176 C8.13235294,10.8235294 7.74264706,10.4779412 7.04411765,10.4779412 L6.42647059,10.4779412 Z M11.4485294,13 L8.99264706,13 L8.99264706,12.9705882 C8.99264706,12.4485294 9.33088235,11.7573529 10.0955882,10.9191176 C10.7352941,10.2205882 10.9485294,9.94117647 10.9485294,9.36029412 C10.9485294,8.89705882 10.8088235,8.44117647 10.2426471,8.44117647 C9.75,8.44117647 9.51470588,8.81617647 9.48529412,9.42647059 L9.07352941,9.42647059 C9.08088235,8.73529412 9.41911765,8.08088235 10.25,8.08088235 C11.0955882,8.08088235 11.375,8.67647059 11.375,9.35294118 C11.375,10.0514706 11.1176471,10.3897059 10.4705882,11.0808824 C9.83823529,11.7573529 9.55147059,12.2867647 9.47058824,12.625 L11.5147059,12.625 L11.4485294,13 Z"/>
  </g>
</svg>
