<svg xmlns="http://www.w3.org/2000/svg" width="16" height="16" viewBox="0 0 16 16">
  <g fill="none" fill-rule="evenodd" transform="translate(1 1)">
    <rect width="14" height="7" fill="#020303" fill-rule="nonzero"/>
    <rect width="14" height="7" y="7" fill="#59A869"/>
    <g fill="#FFF" transform="translate(1 1)">
      <polygon points="0 0 0 1.035 .855 1.035 .855 3.978 .023 3.978 .023 5 3 5 3 3.978 2.145 3.978 2.145 1.035 2.977 1.035 2.977 0"/>
      <polygon points="7.5 0 7.5 1.025 8.064 1.025 8.064 3.975 7.515 3.975 7.515 5 8.915 5 8.915 2.148 9.749 4.999 9.766 5 10.585 2.148 10.585 5 12 5 12 3.975 11.436 3.975 11.436 1.025 11.985 1.025 11.985 0 10.407 0 9.754 2.286 9.093 0"/>
      <path d="M3.5,5 L3.5,3.96394879 L4.1277499,3.96394879 L4.1277499,2.32142857 L6.54408818,2.32142857 L6.54408818,2.63638814 C6.54408818,2.63638814 6.74621563,2.81380559 6.81062124,2.98216392 L6.93993747,3.30883592 C6.93993747,3.30883592 7,3.49168632 7,3.65509181 L6.97413226,3.98176381 C6.97413226,3.98176381 6.9335519,4.24788999 6.86278317,4.32704683 L6.61290421,4.65422423 C6.61290421,4.65422423 6.29493868,5 5.87380521,5 L3.5,5 Z M3.5,-3.90798505e-14 L5.87380521,-3.90798505e-14 C6.29493868,-3.90798505e-14 6.61290421,0.339604728 6.61290421,0.339604728 L6.86278317,0.660942998 C6.9335519,0.738687129 6.97413226,1.00006376 6.97413226,1.00006376 L7,1.32090566 C7,1.48139486 6.93993747,1.66098194 6.93993747,1.66098194 L6.81062124,1.98182384 C6.74621563,2.14717748 6.54408818,2.32142857 6.54408818,2.3169896 L4.1277499,2.3169896 L4.1277499,1.01756085 L3.5,1.01756085 L3.5,-3.90798505e-14 Z M5.07376834,1.025 L5.07376834,1.975 L5.99391904,1.975 L5.99391904,1.025 L5.07376834,1.025 Z M5.07376834,3.0125 L5.07376834,3.9625 L5.99391904,3.9625 L5.99391904,3.0125 L5.07376834,3.0125 Z"/>
    </g>
    <path fill="#FFF" d="M1.02134323,12.9985787 L1.02134323,7.99857872 L2.1916729,7.99857872 C3.42793664,7.99857872 4.02134323,8.79269637 4.02134323,10.3588728 C4.02134323,12.0574023 3.4938707,12.9985787 2.10101356,12.9985787 L1.02134323,12.9985787 Z M2.00979426,12.0061827 L2.00979426,9.00618271 L2.39990415,9.00618271 C2.81199207,9.00618271 3.00979426,9.48265329 3.00979426,10.4223592 C3.00979426,11.4414768 2.83397009,12.0061827 2.36968437,12.0061827 L2.00979426,12.0061827 Z M5.49406563,12.9627718 L5.49406563,7.96277177 L6.92922413,7.96277177 C7.75919531,7.96277177 8.3673054,8.34012038 8.3673054,9.10482627 C8.3673054,9.86953215 8.04940791,10.0847573 7.83240145,10.1477784 C8.2906147,10.2727784 8.49406563,10.7201247 8.49406563,11.4995365 C8.49406563,12.3818894 7.88887831,12.9627718 6.87735093,12.9627718 L5.49406563,12.9627718 Z M6.48604846,9.69289223 L6.89081037,9.69289223 C7.31461989,9.69289223 7.48604846,9.52134412 7.48604846,9.19080018 C7.48604846,8.89372905 7.30509608,8.69289223 6.94795323,8.69289223 L6.48604846,8.69289223 L6.48604846,9.69289223 Z M6.48671269,10.4588506 L6.48671269,12.2588506 L6.90912648,12.2588506 C7.28412648,12.2588506 7.48671269,11.922116 7.48671269,11.3466057 C7.48671269,10.7466057 7.25826441,10.4588506 6.84878165,10.4588506 L6.48671269,10.4588506 Z M13,12.9985787 L10.0029105,13.0061827 C9.96709318,12.1590606 10.2040865,11.4514935 10.7138904,10.8834816 C11.3535963,10.1734666 12,9.8819868 12,9.29155331 C12,9.28407947 11.9292739,8.91566349 11.4893284,8.91566349 C11.0493829,8.91566349 11.0024786,9.36629173 11.0024786,9.36629173 L9.97865677,9.36629173 C9.98600971,8.66375062 10.6493884,7.99857872 11.4802707,7.99857872 C12.325859,7.99857872 13,8.60395989 13,9.29155331 C13,10.0015683 12.50709,10.345365 11.8600311,11.0479061 C11.8734409,11.0333248 11.1888913,11.6579219 11.108009,12.0017187 L13,12.0017187 L13,12.9985787 Z"/>
  </g>
</svg>
