<!-- Copyright 2000-2022 JetBrains s.r.o. and contributors. Use of this source code is governed by the Apache 2.0 license. -->
<svg width="16" height="16" viewBox="0 0 16 16" fill="none" xmlns="http://www.w3.org/2000/svg">
<g id="duckBD_dark">
<path id="Vector" fill-rule="evenodd" clip-rule="evenodd" d="M8 15C11.866 15 15 11.866 15 8C15 4.13401 11.866 1 8 1C4.13401 1 1 4.13401 1 8C1 11.866 4.13401 15 8 15Z" fill="black"/>
<g id="Vector_2">
<path d="M6.5 11C8.15685 11 9.5 9.65685 9.5 8C9.5 6.34315 8.15685 5 6.5 5C4.84315 5 3.5 6.34315 3.5 8C3.5 9.65685 4.84315 11 6.5 11Z" fill="#FDEF50"/>
<path d="M12 7H10.5V9H12C12.5523 9 13 8.55228 13 8C13 7.44772 12.5523 7 12 7Z" fill="#FDEF50"/>
</g>
</g>
</svg>
