<!-- Copyright 2000-2023 JetBrains s.r.o. and contributors. Use of this source code is governed by the Apache 2.0 license. -->
<svg width="16" height="16" viewBox="0 0 16 16" fill="none" xmlns="http://www.w3.org/2000/svg">
<path d="M9.80555 14.9758H9.97549L12.7494 13.5887L12.7955 13.5235V2.45154L12.7494 2.38595L9.97549 1H9.80347L9.80555 14.9758Z" fill="#5294CF"/>
<path d="M6.19584 14.9758H6.02353L3.25201 13.5887L3.19577 13.492L3.16724 2.50793L3.25201 2.38595L6.02353 1H6.19797L6.19584 14.9758Z" fill="#1F5B98"/>
<path d="M6.02832 1H9.97283V14.9758H6.02832V1Z" fill="#2D72B8"/>
<path d="M14.2014 7.67397L14.1077 7.65318L12.7693 7.5284L12.7495 7.53828L9.97309 7.42725H6.02839L3.25198 7.53828V5.42113L3.24907 5.42268L3.25198 5.41648L6.02839 4.77316H9.97309L12.7495 5.41648L13.7701 5.95899V5.6102L14.2014 5.56302L14.1568 5.47592L12.7911 4.49936L12.7495 4.51287L9.97309 3.65257H6.02839L3.25198 4.51287V2.38599L1.80005 4.08696V5.57251L1.81129 5.56437L2.23138 5.6102V5.96616L1.80005 6.19699V7.67513L1.81129 7.67397L2.23138 7.68017V8.30057L1.86893 8.306L1.80005 8.29941V9.77813L2.23138 10.0101V10.3702L1.81812 10.4158L1.80005 10.4022V11.8875L3.25198 13.5887V11.4621L6.02839 12.3224H9.97309L12.7576 11.4595L12.7947 11.4758L14.1424 10.5136L14.2014 10.4177L13.7701 10.3702V10.0173L13.7136 9.99472L12.7911 10.492L12.7576 10.5617L9.97309 11.2013V11.2021H6.02839V11.2013L3.25198 10.559V8.43413L6.02839 8.54478V8.54749H9.97309L12.7495 8.43413L12.8127 8.4632L14.1099 8.35149L14.2014 8.30678L13.7701 8.30057V7.68017L14.2014 7.67397Z" fill="#1A476F"/>
<path d="M12.7495 11.462V13.5887L14.2015 11.8875V10.4119L12.7579 11.4595L12.7495 11.462Z" fill="#2D72B8"/>
<path d="M12.7495 10.5636L12.7579 10.5617L14.2015 9.78526V8.30054L12.7495 8.43409V10.5636Z" fill="#2D72B8"/>
<path d="M12.7579 5.41844L12.7495 5.4165V7.5383L14.2015 7.67399V6.18999L12.7579 5.41844Z" fill="#2D72B8"/>
<path d="M12.7579 4.5212L14.2015 5.56302V4.08735L12.7495 2.38599V4.51287L12.7579 4.51578V4.5212Z" fill="#2D72B8"/>
</svg>
