<svg xmlns="http://www.w3.org/2000/svg" width="16" height="16" viewBox="0 0 16 16">
  <defs>
    <linearGradient id="eclipse_dark-a" x1="50%" x2="50%" y1="-107.914%" y2="99.344%">
      <stop offset="0%" stop-color="#7D6FAF"/>
      <stop offset="100%" stop-color="#7D6FAF"/>
    </linearGradient>
  </defs>
  <g fill="none" transform="translate(1 1)">
    <path fill="#655B8E" d="M3.83396364,8.39185455 L1.70290909,8.39185455 C1.98507273,9.35976364 2.50867273,10.2273818 3.27523636,10.9939455 C4.49730909,12.2162727 5.9668,12.8264182 7.68523636,12.8264182 C8.02874545,12.8264182 8.36156364,12.8008364 8.68483636,12.7520909 C9.9792,12.5567273 11.1124364,11.9715273 12.0834,10.9939455 C12.8549273,10.2276364 13.3822182,9.35976364 13.6665455,8.39185455 L12.8017273,8.39185455 L11.5371455,8.39185455 L3.83396364,8.39185455 Z"/>
    <path fill="#655B8E" d="M1.25885455.0246909091L.1456.0246909091C.104872727.269309091.0771272727.519018182.0645272727.775090909L1.38765455.775090909 2.05138182.775090909 11.6318364.775090909 12.5063273.775090909C12.4936.519018182 12.4658545.269309091 12.4247455.0246909091M.0645272727 1.47190909C.0771272727 1.72810909.104745455 1.97781818.1456 2.22230909L1.30301818 2.22230909 2.18030909 2.22230909 11.5536909 2.22230909 12.425 2.22230909C12.4659818 1.97781818 12.4939818 1.72810909 12.5067091 1.47190909" transform="translate(1.4 5.473)"/>
    <path fill="#655B8E" d="M13.6668,4.80047273 C13.3827273,3.82989091 12.8553091,2.95832727 12.0834,2.18629091 C11.1149818,1.218 9.98492727,0.636872727 8.69476364,0.441381818 C8.36843636,0.391872727 8.03230909,0.365909091 7.68523636,0.365909091 C5.9668,0.365909091 4.49718182,0.972872727 3.27523636,2.18629091 C2.50841818,2.95832727 1.98456364,3.82989091 1.70252727,4.80047273"/>
    <path fill="#F7941E" d="M1.09454545,6.59641818 C1.09454545,3.30972727 3.563,0.578836364 6.77421818,0.0985090909 C6.69454545,0.0955818182 6.61449091,0.0922727273 6.53405455,0.0922727273 C2.93045455,0.0922727273 0.00890909091,3.0044 0.00890909091,6.59641818 C0.00890909091,10.1885636 2.93032727,13.1004364 6.53405455,13.1004364 C6.61474545,13.1004364 6.6948,13.0975091 6.77472727,13.0944545 C3.563,12.6141273 1.09454545,9.88323636 1.09454545,6.59641818 Z"/>
    <g transform="translate(3.436 5.473)">
      <path fill="#7D6FAF" d="M8.48310909.774963636C8.46223636.517745455 8.41896364.266890909 8.35430909.0245636364L.143945455.0245636364C.0792909091.266636364.0358909091.517618182.0150181818.774963636L8.48310909.774963636zM8.48310909 1.47190909L.0151454545 1.47190909C.0360181818 1.72912727.0791636364 1.97985455.143945455 2.22230909L8.35443636 2.22230909C8.41909091 1.97998182 8.46223636 1.72912727 8.48310909 1.47190909z"/>
      <path fill="url(#eclipse_dark-a)" d="M4.24912727,5.37307273 C5.9542,5.37307273 7.42394545,4.36850909 8.10078182,2.91912727 L0.397472727,2.91912727 C1.07430909,4.36850909 2.54405455,5.37307273 4.24912727,5.37307273 Z"/>
    </g>
    <path fill="#FFF" d="M1.42392727 2.23554545L2.04552727 2.23554545 10.5353818 2.23554545 11.6506727 2.23554545 12.4979273 2.23554545C12.5037818 2.12469091 12.5070909 2.01307273 12.5070909 1.90056364 12.5070909 1.77901818 12.5026364 1.65861818 12.4957636 1.53847273L11.6505455 1.53847273 10.5352545 1.53847273 2.0454 1.53847273 1.37989091 1.53847273.0645272727 1.53847273C.0576545455 1.65836364.0532 1.77901818.0532 1.90056364.0532 2.01307273.0565090909 2.12469091.0623636364 2.23554545L1.42392727 2.23554545zM2.40901818.0913818182L.3024.0913818182C.233163636.318309091.188490909.551090909.1456.788454545L1.2306.788454545 2.15447273.788454545 10.3863455.788454545 11.5521636.788454545 12.3854182.788454545C12.3424.551345455 12.2870364.318563636 12.2179273.0913818182M11.5851273 2.98581818L10.4193091 2.98581818 2.18756364 2.98581818 1.30785455 2.98581818.145472727 2.98581818C.187218182 3.22292727.234690909 3.45558182.302781818 3.68276364L2.44185455 3.68276364 10.1650182 3.68276364 11.4329091 3.68276364 12.2586545 3.68276364C12.3266182 3.45583636 12.3814727 3.22318182 12.4233455 2.98581818L11.5851273 2.98581818z" transform="translate(1.4 4.71)"/>
  </g>
</svg>
