<svg width="16" height="16" viewBox="0 0 16 16" fill="none" xmlns="http://www.w3.org/2000/svg">
<path d="M6.47427 7.01312L9.59427 8.44755L12.7486 5.6705C12.7943 5.44099 12.8171 5.21148 12.8171 4.9705C12.8171 3.01968 11.24 1.43607 9.29713 1.43607C8.13142 1.43607 7.0457 2.00984 6.39427 2.97377L5.86856 5.70492L6.47427 7.01312Z" fill="#F4BD19"/>
<path d="M3.23999 10.3295C3.19427 10.559 3.17142 10.8 3.17142 11.041C3.17142 12.9918 4.75999 14.5869 6.70285 14.5869C7.87999 14.5869 8.9657 14.0016 9.62856 13.0377L10.1428 10.3066L9.4457 8.97541L6.31427 7.54099L3.23999 10.3295Z" fill="#3CBEB1"/>
<path d="M3.21715 4.90165L5.35429 5.40657L5.83429 2.96231C5.53715 2.7328 5.18286 2.61805 4.80572 2.61805C3.88 2.61805 3.11429 3.37542 3.11429 4.31641C3.11429 4.51149 3.14857 4.71805 3.21715 4.90165Z" fill="#E9478C"/>
<path d="M3.03429 5.41803C2.0743 5.72787 1.41144 6.65738 1.41144 7.66721C1.41144 8.6541 2.01715 9.53771 2.93144 9.88197L5.93715 7.15082L5.38858 5.96885L3.03429 5.41803Z" fill="#2C458F"/>
<path d="M10.1772 13.0262C10.4743 13.2558 10.8286 13.382 11.1943 13.382C12.12 13.382 12.8857 12.6246 12.8857 11.6836C12.8857 11.4771 12.8514 11.282 12.7829 11.0984L10.6457 10.5935L10.1772 13.0262Z" fill="#95C63D"/>
<path d="M10.6114 10.0311L12.9657 10.582C13.9257 10.2607 14.5886 9.34262 14.5886 8.33279C14.5886 7.3459 13.9828 6.47377 13.0686 6.11803L9.98285 8.82623L10.6114 10.0311Z" fill="#176655"/>
</svg>
