<!-- Copyright 2000-2025 JetBrains s.r.o. and contributors. Use of this source code is governed by the Apache 2.0 license. -->
<svg width="16" height="16" viewBox="0 0 16 16" fill="none" xmlns="http://www.w3.org/2000/svg">
<path d="M8.32921 2.00153C8.60621 1.81966 8.68333 1.44767 8.50146 1.17067C8.31959 0.893664 7.9476 0.816544 7.6706 0.998414L2.25654 4.5531C2.08632 4.66486 1.9844 4.85531 1.98586 5.05893C1.98731 5.26255 2.09193 5.45153 2.26371 5.56085L7.67778 9.00617C7.87432 9.13124 8.12549 9.13124 8.32203 9.00617L13.7361 5.56085C13.9092 5.45072 14.014 5.2598 14.014 5.05466C14.014 4.84952 13.9092 4.6586 13.7361 4.54846L10.9861 2.79846C10.7896 2.67339 10.5384 2.67339 10.3418 2.79846L7.67778 4.49377C7.39821 4.67168 7.3158 5.04253 7.49371 5.3221C7.67161 5.60166 8.04246 5.68407 8.32203 5.50617L10.664 4.01584L12.2964 5.05466L7.9999 7.78878L3.69104 5.04678L8.32921 2.00153Z" fill="#834DF0"/>
<path d="M2.07972 7.73254C2.25762 7.45298 2.62848 7.37056 2.90804 7.54847L7.99998 10.7888L13.0919 7.54847C13.3715 7.37056 13.7423 7.45298 13.9202 7.73254C14.0981 8.0121 14.0157 8.38296 13.7362 8.56086L8.3221 12.0062C8.12556 12.1312 7.87439 12.1312 7.67785 12.0062L2.26379 8.56086C1.98423 8.38296 1.90181 8.0121 2.07972 7.73254Z" fill="#834DF0"/>
<path d="M2.07972 10.7325C2.25762 10.453 2.62848 10.3706 2.90804 10.5485L7.99998 13.7888L13.0919 10.5485C13.3715 10.3706 13.7423 10.453 13.9202 10.7325C14.0981 11.0121 14.0157 11.383 13.7362 11.5609L8.3221 15.0062C8.12556 15.1312 7.87439 15.1312 7.67785 15.0062L2.26379 11.5609C1.98423 11.383 1.90181 11.0121 2.07972 10.7325Z" fill="#834DF0"/>
</svg>
