<!-- Copyright 2000-2023 JetBrains s.r.o. and contributors. Use of this source code is governed by the Apache 2.0 license. -->
<svg width="16" height="16" viewBox="0 0 16 16" fill="none" xmlns="http://www.w3.org/2000/svg">
<path d="M0.283508 8.49614L3.71208 14.4961C3.89012 14.8077 4.22147 15 4.58032 15H11.4197C11.7785 15 12.1099 14.8077 12.2879 14.4961L15.7165 8.49614C15.8922 8.18871 15.8922 7.81129 15.7165 7.50386L12.2879 1.50386C12.1099 1.19229 11.7785 1 11.4197 1H4.58032C4.22147 1 3.89012 1.19229 3.71208 1.50386L0.283508 7.50386C0.107832 7.81129 0.107832 8.18871 0.283508 8.49614Z" fill="#4485F9"/>
<path opacity="0.5" d="M14.9023 9.92097L9.46702 4.48569L8.46 4V4.92105L7.53895 4L6.53194 4.48569V5.98333L7.39773 6.44386V7.90681L6.12871 8.63948L5.297 8.11994L4 8.86876L4.08289 9.98371L4.75714 10.658L4.54341 10.7814L8.76205 15H11.4197C11.7785 15 12.1099 14.8077 12.2879 14.4961L14.9023 9.92097Z" fill="#417BDC"/>
<path d="M7.39773 6.44386V7.90681L6.12871 8.63948L5.297 8.11994L4 8.86876L4.08289 9.98371L5.15173 9.36661L5.58938 9.6457L5.61226 10.1643L4.54341 10.7814L5.46754 11.4106L6.76453 10.6618L6.73047 9.68174L7.99948 8.94907L9.26953 9.68175L9.23547 10.6618L10.5325 11.4106L11.4566 10.7814L10.3877 10.1643L10.4106 9.64571L10.8483 9.36662L11.9171 9.98372L12 8.86877L10.703 8.11995L9.87129 8.63948L8.60123 7.90622V6.44386L9.46702 5.98333V4.48569L8.46 4V5.2342L7.99948 5.47367L7.53895 5.2342V4L6.53194 4.48569V5.98333L7.39773 6.44386Z" fill="white"/>
</svg>
