<!-- Copyright 2000-2025 JetBrains s.r.o. and contributors. Use of this source code is governed by the Apache 2.0 license. -->
<svg width="16" height="16" viewBox="0 0 16 16" fill="none" xmlns="http://www.w3.org/2000/svg">
<path fill-rule="evenodd" clip-rule="evenodd" d="M9.90932 5.04013L10.3578 5.04763L11.5762 3.85744L11.6352 3.35319C10.6346 2.48058 9.33989 1.99885 7.99854 2C5.47417 2 3.34356 3.67779 2.71289 5.95044C2.8459 5.85982 3.13024 5.9278 3.13024 5.9278L5.56494 5.53678C5.56494 5.53678 5.69005 5.33444 5.75347 5.34449C6.32913 4.72669 7.14485 4.37473 8.00001 4.37506C8.7219 4.37654 9.38689 4.62568 9.90928 5.03787V5.04017H9.90932V5.04013Z" fill="#EA4335"/>
<path fill-rule="evenodd" clip-rule="evenodd" d="M13.2872 5.953C13.0043 4.93376 12.4213 4.03378 11.6345 3.35107L9.90924 5.03633C10.6005 5.58119 11.0439 6.41495 11.0439 7.34828V7.64572C11.8832 7.64572 12.5651 8.31325 12.5651 9.13163C12.5651 9.95148 11.8817 10.6175 11.0439 10.6175H8.00152L7.69702 10.9167V12.7L8.00152 12.996H11.0439C13.2274 12.993 14.9967 11.2648 15 9.13187C14.9985 7.81672 14.3219 6.65323 13.2872 5.95325V5.95304L13.2872 5.953Z" fill="#4285F4"/>
<path fill-rule="evenodd" clip-rule="evenodd" d="M4.95613 13H7.99676V10.6197H4.95613C4.74009 10.6198 4.5266 10.5744 4.33008 10.4868L3.89106 10.6182L2.67264 11.8084L2.56592 12.2101C3.25253 12.7218 4.09232 12.9988 4.95597 12.9984L4.95618 13H4.95613Z" fill="#34A853"/>
<path fill-rule="evenodd" clip-rule="evenodd" d="M4.9561 5.26929C2.77256 5.27442 1.00307 7.00262 1 9.13554C1 10.3905 1.61538 11.5063 2.56756 12.2131L4.33152 10.49C3.78619 10.2498 3.43537 9.71991 3.43486 9.13554C3.43486 8.31569 4.11824 7.64964 4.95606 7.64964C5.57291 7.64964 6.1032 8.01288 6.34294 8.52574L8.10693 6.80266C7.38353 5.87253 6.241 5.27146 4.95631 5.27146L4.9561 5.26929Z" fill="#FBBC05"/>
</svg>
