<svg xmlns="http://www.w3.org/2000/svg" xmlns:xlink="http://www.w3.org/1999/xlink" width="16" height="16" viewBox="0 0 16 16">
  <defs>
    <rect id="h2_dark-a" width="14" height="10"/>
  </defs>
  <g fill="none" fill-rule="evenodd" transform="translate(1 3)">
    <use fill="#1F58FF" xlink:href="#h2_dark-a"/>
    <g fill="#FFF" transform="translate(4 3)">
      <path d="M9.00173087,5.06456752 L9.00173087,6.01244631 L5.72932042,6.01244631 C6.80239409,3.88735208 7.39760666,2.70765511 7.51495813,2.4733554 C7.69098534,2.12190583 7.77899763,1.84773349 7.77899763,1.65083015 C7.77899763,1.49971828 7.75241674,1.38695847 7.69925415,1.31254732 C7.64609157,1.23813617 7.56516753,1.20093116 7.45647958,1.20093116 C7.34779164,1.20093116 7.26686759,1.24214287 7.21370501,1.32456752 C7.16054243,1.40699218 7.13396154,1.57069424 7.13396154,1.81567863 L7.13396154,2.34456752 L5.85097767,2.34456752 L5.85097767,2.14194126 C5.85097767,1.83055923 5.8675169,1.58500613 5.90059584,1.40527459 C5.93367477,1.22554305 6.01518951,1.04867613 6.14514248,0.874668531 C6.27509546,0.700660927 6.44403179,0.569012411 6.65195655,0.479719036 C6.85988131,0.39042566 7.10915101,0.345779642 7.39977311,0.345779642 C7.96920342,0.345779642 8.39981387,0.482579621 8.69161737,0.756183682 C8.98342086,1.02978774 9.12932042,1.37608058 9.12932042,1.79507257 C9.12932042,2.11332332 9.047215,2.44988561 8.8830017,2.80476954 C8.71878839,3.15965347 8.23501617,3.91291193 7.4316705,5.06456752 L9.00173087,5.06456752 Z"/>
      <path fill-rule="nonzero" d="M1.8,2.79227817 L3.39131287,2.79227817 L3.39131287,0.6 L4.59131287,0.6 L4.59131287,6 L3.39131287,6 L3.39131287,3.99227817 L1.8,3.99227817 L1.8,6 L0.6,6 L0.6,0.6 L1.8,0.6 L1.8,2.79227817 Z" transform="translate(.409 .017)"/>
    </g>
  </g>
</svg>
