<svg xmlns="http://www.w3.org/2000/svg" width="16" height="16" viewBox="0 0 16 16">
  <g fill="none" fill-rule="evenodd">
    <polygon fill="#389FD6" points="1 1 15 1 12.5 8 1 8"/>
    <g fill="#FFF" transform="translate(1 2)">
      <path d="M2.579,5.04 C1.837,5.04 1.088,4.781 0.5,4.256 L1.137,3.493 C1.578,3.857 2.04,4.088 2.6,4.088 C3.041,4.088 3.307,3.913 3.307,3.626 L3.307,3.612 C3.307,3.339 3.139,3.199 2.32,2.989 C1.333,2.737 0.696,2.464 0.696,1.491 L0.696,1.477 C0.696,0.588 1.41,-2.84217094e-14 2.411,-2.84217094e-14 C3.125,-2.84217094e-14 3.734,0.224 4.231,0.623 L3.671,1.435 C3.237,1.134 2.81,0.952 2.397,0.952 C1.984,0.952 1.767,1.141 1.767,1.379 L1.767,1.393 C1.767,1.715 1.977,1.82 2.824,2.037 C3.818,2.296 4.378,2.653 4.378,3.507 L4.378,3.521 C4.378,4.494 3.636,5.04 2.579,5.04 Z"/>
      <path d="M3.638,5 L5.738,0.065 L6.732,0.065 L8.832,5 L7.705,5 L7.257,3.901 C6.92531235,4.08908687 6.58464568,4.1831303 6.235,4.1831303 C5.88535432,4.1831303 5.53535432,4.08908687 5.185,3.901 L4.737,5 L3.638,5 Z M5.57,2.949 C5.787,3.09607151 6.004,3.16960727 6.221,3.16960727 C6.438,3.16960727 6.655,3.09607151 6.872,2.949 L6.221,1.36 L5.57,2.949 Z"/>
      <path d="M8.412,5 L8.412,0.1 L10.414,0.1 C11.583,0.1 12.29,0.793 12.29,1.794 L12.29,1.808 C12.29,2.942 11.408,3.53 10.309,3.53 L9.49,3.53 L9.49,5 L8.412,5 Z M9.49,2.571 L10.344,2.571 C10.883,2.571 11.198,2.249 11.198,1.829 L11.198,1.815 C11.198,1.332 10.862,1.073 10.323,1.073 L9.49,1.073 L9.49,2.571 Z"/>
    </g>
    <g fill="#EDA200" transform="translate(1 9)">
      <polygon points="0 5 0 0 1 0 .998 2.029 2 2.029 2 0 3 0 3 5 2 5 2 3.001 1 3.001 1 5"/>
      <polygon points="7 5 7 0 8 0 9 3.001 9 0 10 0 10 5 9 5 8 2 8 5"/>
      <path d="M6 5L5.67068834 4.01206502 4.32947579 4.01157264 4 5 3 5 4.5 0 5.5 0 7 5 6 5zM5 2L4.6663401 3.00097969 5.33188737 2.99566211 5 2zM13 5L12.6706883 4.01206502 11.3294758 4.01157264 11 5 10 5 11.5 0 12.5 0 14 5 13 5zM12 2L11.6663401 3.00097969 12.3318874 2.99566211 12 2z"/>
    </g>
  </g>
</svg>
