<svg xmlns="http://www.w3.org/2000/svg" width="16" height="16" viewBox="0 0 16 16">
  <path fill="#FDEE21" fill-rule="evenodd" d="M11.8896468,5.28538089 C11.8945336,5.29448098 11.8995278,5.303297 11.9046412,5.31178464 C11.9431128,5.37564205 11.9827822,5.43894998 12.0229453,5.50184744 C12.0354942,5.54410456 12.2772799,6.03630573 12.4385501,6.61074923 C12.5371474,7.10852175 12.57111,7.46435486 12.5404377,7.67824857 C12.5301572,7.74994038 12.3029362,7.94406019 12,8.26060801 C11.9182023,8.34608104 11.7950391,8.49437423 11.6305103,8.7054876 C11.8608187,8.91201844 12.1000411,8.93612752 12.3481776,8.77781484 C12.6695913,8.57275082 13.0480237,7.79196892 13.1755107,7.44537036 C13.5032192,7.38828969 13.9323735,7.42637388 13.9299172,7.45144418 C13.8940198,7.82018026 13.6740475,8.29362048 13.4880761,8.68514881 C13.3113979,8.99935432 13.1271631,9.276572 12.9449912,9.49652835 C12.3947231,9.97797467 11.6157737,10.1342242 10.553697,9.60229595 C10.2239303,9.35670198 9.91275375,9.03106403 9.72902352,8.7778162 C9.7053355,8.89545958 9.80240938,9.05929861 9.93772926,9.26933329 C10.0018013,9.36878177 10.1593556,9.53825862 10.4103922,9.77776383 C10.4103171,9.77609172 10.4102381,9.77439088 10.4101558,9.77266402 L10.3415794,9.82482747 C10.0991216,10.047702 9.87169605,10.0826763 9.67181293,10.0765066 C9.43662445,10.0692471 9.2395674,9.9756487 9.10102106,9.63301128 C9.09503764,9.62148 9.08742371,9.61047635 9.07833068,9.59995444 C8.98514864,9.43550386 8.90096733,9.21180668 8.79322245,9.06114868 C8.79322245,9.00502597 8.10234979,8.73989177 7.60083894,8.39069347 C7.26649837,8.15789461 7.39955206,7.69433012 8,7 C7.16793808,7.60102774 6.62729773,7.72210957 6.37807894,7.36324548 C6.00425075,6.82494935 5.86131787,6.15983344 5.98676487,5.9048734 C6.27858004,5.31178464 7.50923091,5.41824261 7.53809771,5.31178464 C7.40204847,5.33826379 7.22344711,5.1412571 7.01764214,5.02710221 C7.01904024,5.01515591 7.01341827,5.00602209 7,5 C6.99380631,4.99722029 6.96858853,4.99037798 6.92526889,4.98314359 C6.88076113,4.96579251 6.83516871,4.95399887 6.78863076,4.95053942 C6.62116214,4.93809047 6.44144938,4.94205225 6.25597557,4.98102177 C5.93127725,5.01767872 5.5077896,5.11058836 5,5.31741034 C4.54068478,5.50907645 4.04170367,5.94746423 3.5989066,6.07177941 C3.09471731,6.21333043 2.54701555,6.38441789 2.26752071,6.27950445 C2.19059988,6.25063083 1.90971125,5.80764248 1.42485482,4.95053942 C0.900655132,4.45290617 0.604128081,3.87277906 0.535273665,3.21015809 C0.509631021,2.96338591 0.551705454,2.53583489 0.661496966,1.92750501 C1.73806301,1.81743401 2.27340426,1.75511666 2.26752071,1.74055296 C2.39048954,1.50392248 2.39607061,0.716048042 2.85588094,0.458190825 C3.40897794,0.148019342 4.4339633,0.391683096 4.65268149,0.458190825 C5.08144097,0.588567818 5.47657244,0.709428776 5.82293193,0.832743184 C6.4279342,1.04814221 6.88412716,1.24872353 7.1108005,1.36062682 C7.32731593,1.46931411 8.57162812,1.98625467 9.4527566,2.70919175 C10.0401756,3.19114981 10.3364498,3.8479495 10.3415794,4.67959082 C10.9611881,4.03471008 11.1806617,3.3304527 11,2.56681868 C10.8193383,1.80318466 10.2247423,1.13445323 9.21621187,0.56062439 C10.1169018,0.280912247 10.8184742,0.141056175 11.3209291,0.141056175 C12.5468594,0.141056175 13.8670801,2.56681868 13.5924805,3.23353615 C13.3850781,3.73710139 12.8747075,3.99094927 12.6706459,4.11851318 C12.2438305,4.38532593 11.5331357,4.63877512 11.533596,4.67959082 C11.513257,4.82148108 11.8342099,5.20660038 11.8829323,5.28344727 C11.8847527,5.28631848 11.8870179,5.28684217 11.8896468,5.28538089 Z M7.75103495,10.7046769 C7.80146344,10.9507363 7.86181241,11.1458616 7.93208183,11.2900528 C7.9855261,11.3997191 8.10774423,11.554371 8.29873622,11.7540082 C8.27490663,11.8983731 8.22270036,12.0753726 8.13657547,12.2193648 C7.95172551,12.5284154 7.33600093,12.7028222 7.24263359,12.6717299 C7.14926626,12.6406375 6.82270323,12.5206365 6.7341454,12.4831025 C6.52899478,12.3961522 6.34167778,12.3008686 6.19615624,12.2193648 C5.6278968,11.9010939 5.10609821,11.3613324 4.93293133,11.1461541 C5.75894457,11.2864145 7.16083849,10.9137697 7.75103495,10.7046769 Z M8.73554109,12.0913082 C8.85889134,12.1326 9.00932094,12.1460435 9.1824193,12.1519642 C9.41322907,12.1598588 10.0992488,12.1357565 11.2404786,12.0796573 C10.9198268,12.2110777 10.2018646,12.6240064 9.53501355,12.8052695 C8.91321251,12.9742871 8.33585006,12.9163755 8.16646778,12.9230769 C8.12133169,12.9248627 8.07688583,12.9252934 8.03321713,12.9245401 C8.30268509,12.7280738 8.66243965,12.2299398 8.73554109,12.0913082 Z M4.25554852,10.0751316 C4.16793178,9.78000791 4.01043897,9.41396103 3.97098731,9.01490266 C3.90817227,8.37952086 4.1032501,7.66045134 4.49721815,7.0107211 C4.76042739,7.58294155 5.19706466,8.28189087 5.5,8.53605372 C5.96648127,8.92743166 7.24938208,9.34911098 7.60083894,9.442222 C7.63251538,9.450614 7.6648784,9.45864707 7.69777714,9.46633306 C7.5905164,9.59307598 7.52365642,9.68461371 7.49719719,9.74094626 C7.48057495,9.77633554 7.52970281,9.99749897 7.61297141,10.2610531 C7.61063404,10.2606931 7.60888685,10.2609288 7.60772984,10.2617601 C7.31273864,10.4737168 5.25637332,10.7844318 4.25554852,10.0751316 Z M8.27027313,3.76079748 C8.6373325,3.89020737 8.85320222,4.5126286 9.09543391,4.68860813 C8.8720128,4.23640045 8.73012091,3.56254363 8.29332026,3.20471859 C7.75010474,3.04392345 6.95038425,3.08090602 6.22760069,3.05857348 C6.8503727,3.20501413 7.7729368,3.20867104 8.22265729,3.4652071 C8.22937755,3.48775159 8.21136415,3.50266775 8.18387674,3.51466198 C8.07256235,3.50048838 7.96312691,3.47232241 7.84645701,3.49774466 C7.674214,3.54907575 7.52122948,3.64497191 7.35918974,3.71992068 C7.80595112,3.63589232 7.93052492,3.73456176 8.27027313,3.76079748 Z M10.1236157,6.81446474 C10.0998102,6.9197002 10.1638402,7.17617058 10.1708726,7.14039256 L9.98614632,7.27950445 C10.3730301,7.09995757 10.7803043,7.13603859 11.193335,7.10859982 C11.193335,7.10859982 10.8455665,7.01996674 10.8668301,7.01718301 C10.944409,7.00702873 10.8461777,6.68238904 10.8195732,6.67535881 C10.8857328,6.65469055 10.950345,6.63911061 11.017187,6.6236889 C10.519862,6.50355861 10.2322782,6.57434447 9.8013958,6.83037155 C9.80141197,6.83036409 10.130019,6.78614382 10.1236157,6.81446474 Z" transform="translate(1 1)"/>
</svg>
