<svg xmlns="http://www.w3.org/2000/svg" width="16" height="16" viewBox="0 0 16 16">
  <path fill="#FDEE21" fill-rule="evenodd" d="M11.7514983,5.29710703 C11.7499307,5.3034423 11.7499862,5.31020956 11.7519023,5.31741034 C11.7816445,5.42917971 11.8819215,5.58752611 11.9515413,5.75475274 C12.109864,6.13504397 12.3749174,6.56125986 12.400199,6.59006027 C12.5759347,6.8519399 12.4132498,7.17816624 12.5468594,7.36119092 C12.5501371,7.3671284 12.5690179,7.38745551 12.6008317,7.40805761 C12.5173242,7.67380237 12.4402681,8.19100806 12.32502,8.31887957 C12.2200003,8.43540234 11.956725,8.54413245 11.8461538,8.58435227 C11.6372067,8.66035596 11.2592763,8.93854572 11.3076923,8.94674556 C11.5835376,8.9934633 12.4174149,8.59607997 12.5526305,8.44970414 C12.6374108,8.26427495 12.7752082,7.75932372 12.8723026,7.46209877 C12.9526661,7.45818582 13.044269,7.44472167 13.1428734,7.42514491 C13.4739221,7.35941902 13.8555579,7.42553235 13.8530192,7.45144418 C13.8171217,7.82018026 13.6740475,8.29362048 13.4880761,8.68514881 C13.3113979,8.99935432 13.1271631,9.276572 12.9449912,9.49652835 C12.3947231,9.97797467 11.6157737,10.1342242 10.553697,9.60229595 C10.2239303,9.35670198 9.91275375,9.03106403 9.72902352,8.7778162 C9.7053355,8.89545958 9.80240938,9.05929861 9.93772926,9.26933329 C10.0018013,9.36878177 10.1593556,9.53825862 10.4103922,9.77776383 C10.4103171,9.77609172 10.4102381,9.77439088 10.4101558,9.77266402 L10.3415794,9.82482747 C10.0991216,10.047702 9.87169605,10.0826763 9.67181293,10.0765066 C9.43662445,10.0692471 9.2395674,9.9756487 9.10102106,9.63301128 C9.09383286,9.61915814 9.08502685,9.6060665 9.07478267,9.5936568 C8.98300539,9.42983044 8.89959817,9.20989221 8.79322245,9.06114868 C8.74184826,9.02364558 8.52993009,9.1837834 8.33544786,9.06114868 C8.1592967,8.95007298 7.99744951,8.5562247 7.98215385,8.50840653 C7.8690332,8.15476234 8.43664712,7.84524456 8.57744976,7.62217645 C8.45941065,7.59464483 7.98341237,8.03255798 7.60083894,8.01884282 C7.22537365,8.00538248 6.8009975,7.54262119 6.68973607,7.27479653 C6.58546561,7.02380027 6.3115629,6.5572222 6.51777404,6.13811612 C6.70444234,5.75872915 7.50923091,5.41824261 7.53809771,5.31178464 C7.20283179,5.37703718 6.60915674,5.37703718 5.98676487,5.6289041 C5.97881963,5.63211935 5.97157002,5.63662072 5.96499262,5.64235044 C5.5297751,5.75577349 4.86957646,5.93704908 4.75559422,5.99401376 C4.38977995,6.09190256 4.08634959,6.1073772 3.62013569,6.21512921 C3.46858383,6.23224654 2.33362624,6.15918763 2.29716285,6.1279188 C2.13945339,5.92490366 2.22532697,5.75921543 2.02007054,5.36569516 C1.92977063,5.19257101 1.57656301,4.85196792 1.42485482,4.71283253 C0.928305963,4.25743513 0.835644862,3.99076171 0.716682053,3.52416967 C0.686767524,3.38640114 0.608041195,3.24370696 0.648983676,2.83607329 C0.769921815,2.45127054 0.56890191,2.28846784 0.898754069,1.9773617 C1.24201117,1.98247645 1.55054583,1.93069503 1.81520048,1.9773617 C1.93661952,1.99611195 2.18911594,2.0053342 2.44990596,2.09501211 C2.62498602,2.15521591 3.88887559,2.61579975 3.97098731,2.6203812 C4.19845581,2.6330729 2.95546669,2.03501379 2.65644569,1.88848681 C2.34684468,1.7367754 2.23292437,1.71091875 2.22409904,1.6890732 C2.91939357,1.31197847 2.8241432,1.12001961 3.28146359,0.721834201 C3.49046105,0.63785659 3.57195793,0.476002222 3.74953705,0.458190825 C4.36939402,0.548661842 4.73899653,0.557961971 5.18303379,0.721834201 C5.91552876,0.992161932 6.6015985,1.32109342 7.1108005,1.57247445 C7.44275476,1.73911019 7.72199727,1.86511691 8.01021164,2.01687127 C8.26285197,2.09357834 9.10089677,2.62487383 9.32401066,2.91132193 C9.55066577,3.3530619 9.73306337,3.83022166 9.88399431,4.29066411 C9.90523194,4.38256092 9.93096729,4.54747954 10.023998,4.78541997 C10.0627783,4.88460672 10.1454499,5.06193685 10.2720127,5.31741034 C10.1554579,4.61176717 10.0910107,4.23908894 10.078671,4.19937567 C9.90312935,3.63446496 9.74496464,2.75504495 9.69748947,2.70919175 C9.56369876,2.55379541 9.05408782,2.15966993 8.7118656,1.9773617 C8.58240845,1.90839534 8.48251004,1.86561694 8.47704457,1.83529592 C8.58637005,1.73335019 8.62191381,1.69352912 8.74297872,1.60783798 C8.85902446,1.52569778 8.96468582,1.41606261 9.12641832,1.36062682 C9.25696173,1.30635545 9.38956186,1.23781495 9.51983887,1.21873022 C9.99164295,1.14961399 10.432978,1.2423622 10.6358081,1.407476 C11.0459783,1.74137496 11.6037576,2.4253967 11.8540634,2.86773304 C11.9521168,3.04445888 11.9970178,3.16082329 11.9515413,3.37362568 C11.9059434,3.58662211 11.8632633,3.70374775 11.8135243,3.84599414 C11.7637854,3.98824053 11.5326096,4.59212347 11.533596,4.67959082 C11.5125177,4.82663903 11.5852864,5.03924554 11.7519023,5.31741034 C11.7551421,5.31666474 11.7583595,5.31592563 11.7615548,5.31519299 C11.7608679,5.31405705 11.7601822,5.31292093 11.7594976,5.31178464 C11.7566114,5.30699406 11.7539502,5.30209886 11.7514983,5.29710703 Z M8.73554109,12.0913082 C8.85889134,12.1326 9.00932094,12.1460435 9.1824193,12.1519642 C9.41322907,12.1598588 10.0992488,12.1357565 11.2404786,12.0796573 C10.9198268,12.2110777 10.2018646,12.6240064 9.53501355,12.8052695 C8.91321251,12.9742871 8.33585006,12.9163755 8.16646778,12.9230769 C8.12133169,12.9248627 8.07688583,12.9252934 8.03321713,12.9245401 C8.30268509,12.7280738 8.66243965,12.2299398 8.73554109,12.0913082 Z M4.33226828,9.70856208 C4.51921989,9.91148369 4.78068728,10.029854 4.83120646,10.0636729 C5.68921375,10.6380473 6.80837989,11.1028786 7.77039231,11.0689173 C7.87667893,11.2611866 7.95316996,11.3973969 7.99986542,11.4775481 C8.04031682,11.5469816 7.99806907,11.9494101 7.83660323,12.2193648 C7.65175327,12.5284154 7.33600093,12.7028222 7.24263359,12.6717299 C7.14926626,12.6406375 6.82270323,12.5206365 6.7341454,12.4831025 C6.52899478,12.3961522 6.34167778,12.3008686 6.19615624,12.2193648 C5.61482525,11.8937728 5.08211716,11.3363832 4.92153846,11.1318269 C4.58369389,10.7014571 4.48318031,10.2712873 4.40199276,10.0959464 C4.36788165,9.97776342 4.34724988,9.8477953 4.33226828,9.70856208 Z M4.26322179,7.78476699 C4.31213133,7.44174903 4.42345605,7.10135126 4.64537357,6.78317665 C4.69364786,6.71396331 4.87363113,6.48402407 4.93042346,6.46253038 C5.11200096,6.34916586 5.55614743,6.22077059 5.94571742,6.12385649 C6.04172607,6.6451219 6.33621641,7.4612913 6.60365412,8.01580718 C6.70250314,8.22076462 7.69686034,8.95716571 8.09063712,9.24234851 L7.7988407,9.44627557 C7.73599593,9.56524908 7.69648681,9.67802452 7.6026231,9.88758792 C7.5942941,9.90618334 7.58936148,9.96577442 7.58782522,10.0663612 C7.2341746,10.3048218 6.89370138,10.1220015 6.60814063,10.0636729 C6.10086451,9.96005687 5.29019819,9.48062832 4.79870192,8.86760376 C4.45524843,8.4392273 4.33329172,8.03772234 4.30114358,7.87446784 C4.28954872,7.81558692 4.27666037,7.78764041 4.26322179,7.78476699 Z M8.27027313,3.76079748 C8.6373325,3.89020737 8.85320222,4.5126286 9.09543391,4.68860813 C8.8720128,4.23640045 8.73012091,3.56254363 8.29332026,3.20471859 C7.75010474,3.04392345 6.95038425,3.08090602 6.22760069,3.05857348 C6.8503727,3.20501413 7.7729368,3.20867104 8.22265729,3.4652071 C8.22937755,3.48775159 8.21136415,3.50266775 8.18387674,3.51466198 C8.07256235,3.50048838 7.96312691,3.47232241 7.84645701,3.49774466 C7.674214,3.54907575 7.52122948,3.64497191 7.35918974,3.71992068 C7.80595112,3.63589232 7.93052492,3.73456176 8.27027313,3.76079748 Z M10.1236157,6.81446474 C10.0998102,6.9197002 10.1638402,7.17617058 10.1708726,7.14039256 L9.98614632,7.27950445 C10.3730301,7.09995757 10.7803043,7.13603859 11.193335,7.10859982 C11.193335,7.10859982 10.8455665,7.01996674 10.8668301,7.01718301 C10.944409,7.00702873 10.8461777,6.68238904 10.8195732,6.67535881 C10.8857328,6.65469055 10.950345,6.63911061 11.017187,6.6236889 C10.519862,6.50355861 10.2322782,6.57434447 9.8013958,6.83037155 C9.80141197,6.83036409 10.130019,6.78614382 10.1236157,6.81446474 Z" transform="translate(1 1)"/>
</svg>
