<svg xmlns="http://www.w3.org/2000/svg" width="16" height="16" viewBox="0 0 16 16">
  <g fill="none" fill-rule="evenodd" transform="translate(1 1)">
    <path fill="#FDEE21" d="M3.79933398,0.152893937 C3.01514736,0.343573176 2.4126218,1.04956943 1.87319158,1.58359146 L0.675286127,1.72837684 C0.431278128,2.0210681 0.515930601,2.27205544 0.467079671,2.5237817 C0.410285604,2.81643851 0.247946983,3.11009407 0.349306447,3.47144359 C0.642892263,3.84246878 0.747831052,4.18948805 0.987461635,4.55124758 C1.29986732,5.02287242 1.73311425,5.51955018 2.01004583,6.12713451 C2.04872378,6.63318925 4.51988143,6.18020027 5.01486905,6.0800257 C4.33869729,6.53151268 3.7129514,7.23132577 3.96600053,9.24684813 C4.19700548,10.1933201 4.2301313,11.1562997 6.2790161,12.226777 C6.54873121,12.3676889 7.10679191,12.5127231 7.45188233,12.6312462 C7.78190091,12.7724524 8.1678109,12.8460041 9.2564777,12.5354456 C9.8864678,12.2821628 10.5666491,12.2706933 11.1831292,12.0180264 L10.4421453,12.0899644 C9.9369744,12.1002164 9.48882518,12.1484851 9.13557022,12.1364024 C8.77528698,12.1240793 8.51371156,11.9651913 8.3910223,11.8309115 C8.12289347,11.5649288 7.95642338,11.3654418 7.89161202,11.2324505 C7.79265537,11.0293937 7.71347344,10.7248087 7.65406625,10.3186953 L7.99941206,9.3267727 C8.75712634,9.39926385 9.00862964,9.97242356 9.67647647,10.1906946 L10.463642,9.77460546 C12.7500211,11.033524 13.6596453,8.84888051 13.9203431,7.24699466 C13.8925246,6.59524566 12.5372214,7.45143224 12.6272338,7.1466774 C12.6340109,7.01055626 12.6556755,6.86628041 12.6199319,6.71691886 C12.4717088,6.09754002 11.9638548,5.390706 11.6451404,4.81526886 L11.9823877,3.16291572 C12.1901086,2.99033561 11.0214791,1.30063418 10.0666071,1.07142857 C9.22879955,0.870295394 8.20102516,2.04881281 8.20102516,1.90732106 C8.07692401,1.5901747 3.8539211,-0.017132765 3.79933398,0.152893937 Z"/>
    <g fill="#000">
      <path d="M3.89494852 8.82536383C3.96803196 9.32405072 4.05293121 9.69806589 4.14964628 9.94740933 4.22995545 10.1544563 4.41059256 10.4650269 4.69155761 10.8791209 5.55610073 11.3779774 6.84097129 11.5756704 8.07198802 11.5295611L7.65406625 10.0123277C5.08440731 9.50861517 4.3903183 7.91208791 4.14964628 7.05872816L3.89494852 8.82536383zM7.20815637 8.86352836C7.44105534 9.13630829 7.50201094 9.25668251 7.86097169 9.42276507 8.34615508 9.56457083 8.68925354 9.5886536 9.04142535 9.56732453 8.94492921 9.40245966 8.85916988 9.16986338 8.74835907 9.01491832 7.95978121 8.4392575 8.3242278 7.91512623 8.53368726 7.58328779 8.09520592 7.48101574 7.51422136 7.26364122 7.43418597 6.97773389 7.30549871 6.05300861 7.37084459 5.75966142 7.49963803 5.28468369 6.9058639 5.40024948 6.3041908 5.51476982 5.66550032 5.71266112 5.93362291 6.78743689 6.57282819 7.87600238 7.20815637 8.86352836zM9.04902864 4.66468666C8.80803282 4.48960499 8.59326448 3.87035937 8.22807786 3.74160974 7.89006306 3.71550787 7.76612484 3.61734185 7.32164286 3.70094149 7.48285586 3.62637511 7.63505985 3.53096822 7.80642407 3.47989902 7.92249871 3.45460647 8.0313758 3.48262875 8.14212227 3.49673003 8.16946943 3.484797 8.18739093 3.46995693 8.18070495 3.44752747 7.73327896 3.19230027 6.81542181 3.18866201 6.19582722 3.04296852 6.9149231 3.06518711 7.71056338 3.02839323 8.2510074 3.18836798 8.68557947 3.54436739 8.82674743 4.21478616 9.04902864 4.66468666zM13.0111894 7.28023518C12.9186797 7.51504361 12.5891335 8.18667954 12.4885865 8.40659341 12.3540607 8.55222242 11.5244379 8.94757828 11.25 8.9010989 11.201831 8.8929409 11.5778332 8.61617047 11.7857143 8.54055455 12.0457638 8.44596261 12.2971265 7.97047556 12.3239321 7.91208791 12.3787761 7.80008613 12.453569 7.36183925 12.5639616 7.23102449 12.6743541 7.10020972 13.103699 7.04542674 13.0111894 7.28023518zM9.75140476 6.7955153C9.75140476 6.7955153 10.0783353 6.75152064 10.0719646 6.77969706 10.0482806 6.8843956 10.1119839 7.13955747 10.1189804 7.10396198L9.93519659 7.24236412C10.3201065 7.06373329 10.7253028 7.09963023 11.1362262 7.07233145 11.1362262 7.07233145 10.790232 6.98415058 10.8113871 6.98138105 10.8885701 6.97127859 10.7908401 6.64829522 10.7643713 6.64130086 10.8301934 6.62073805 10.8944759 6.6052376 10.9609768 6.58989456 10.4661892 6.47037719 10.1800727 6.5408019 9.75138867 6.79552272L9.75140476 6.7955153z"/>
      <path fill-rule="nonzero" d="M2.75269944,0.557764061 C2.41738734,0.878153132 2.28394264,1.12198006 1.94262989,1.35368484 C1.87436735,1.40801808 1.68280042,1.49210531 1.44197031,1.50508274 C1.32852114,1.51030995 1.25461509,1.52924372 1.04615306,1.50508274 C0.862304926,1.41319085 0.605998258,1.5434635 0.435534938,1.73167259 C0.248614088,1.97980148 0.276579579,2.45096275 0.178140068,2.7475621 C0.0966818014,3.05127056 0.104862828,3.34660756 0.19581464,3.6224248 C0.331387084,4.03355698 0.508617116,4.40131864 0.805483819,4.68878747 C1.2467483,5.08670847 1.50115628,5.38283693 1.68233388,5.74762754 C1.81951213,5.98423283 1.85180332,6.16294701 1.96182585,6.39061259 C2.00149927,6.46279109 2.06258485,6.54807146 2.16937217,6.56982376 C2.39995454,6.61524698 2.71980653,6.6160405 3.00455557,6.63863183 C3.12775859,6.64021945 3.29694617,6.63111887 3.45725827,6.6156946 C3.67815596,6.57719148 3.93767977,6.53714959 4.15519907,6.46770349 C4.36776342,6.41938897 4.28566657,6.45220748 4.45638729,6.39061259 C4.43436991,6.45957903 4.21121306,6.66149917 4.15519907,6.74856861 C3.72774259,7.4130169 3.69914428,8.02144265 3.78821275,8.9706019 C3.84520278,9.44642607 3.95306637,9.84088702 4.13157345,10.2922087 C4.21325781,10.4987427 4.45510254,10.9415853 4.62167269,11.1588558 C5.11700731,11.8049206 6.25402082,12.6184225 7.79662056,12.9377869 C8.06574862,12.971743 8.34231297,12.9253777 8.62957166,12.8547629 C9.13714351,12.7127374 10.0755204,12.4180756 11.4447022,11.9707775 C10.1917259,12.0556883 9.35496848,12.0789525 8.93443009,12.0405701 C8.78839083,12.0194905 8.65777285,12.0194905 8.62957166,11.9940263 C8.62019739,11.9828558 8.34210343,11.6935022 8.15451857,11.3306441 C8.00060947,11.0329273 7.93108475,10.6512285 7.92154045,10.6263385 C7.87686113,10.5124487 7.90883374,10.242211 8.01745829,9.81562532 C8.08976041,9.68255731 8.05873511,9.67750088 8.15451857,9.67626981 C8.44427082,9.70597875 8.5220686,9.7155337 8.69837169,9.67626981 C8.81750457,9.90258404 8.89797417,10.1275072 9.16919038,10.2922087 C10.0727618,10.5397881 10.2690778,10.2596986 10.4879323,9.97597423 C10.9203076,10.2688816 11.5699916,10.4149328 12.1729143,10.2922087 C12.4765591,10.2304022 12.7683437,10.0776433 13.0145368,9.88720347 C13.9489962,8.88910428 14.2177384,7.16021573 14.1348716,7.07037314 C14.0825556,6.98844699 13.808612,6.93360901 13.5231311,6.93370956 C13.1717672,6.93383332 12.8029264,6.99772639 12.8083022,6.96084841 C12.8226517,6.81526957 12.8129442,6.63213114 12.7193288,6.45038515 C12.5795474,6.17901196 12.414175,5.9107432 12.3369326,5.77524802 C12.3147662,5.74395706 12.2170118,5.56254928 12.0436696,5.23102468 C11.973491,5.1757158 11.6663886,5.19424594 11.6919436,5.29028069 C11.7215341,5.40147982 11.8212995,5.55901833 11.890564,5.72539176 C12.0480789,6.10374273 12.3117801,6.52778404 12.3369326,6.55643751 C12.5117718,6.81698102 12.3499169,7.14154294 12.4828448,7.32363383 C12.4887734,7.33437352 12.5460138,7.39243404 12.6386006,7.41342661 C12.7454463,7.43765214 12.899364,7.42229441 13.0758179,7.38726152 C13.4051776,7.32187096 13.7848663,7.38764698 13.7823405,7.41342661 C13.7466262,7.78028138 13.604282,8.25130609 13.4192594,8.64083683 C13.2206045,8.99412582 13.0123472,9.30041318 12.8083022,9.53058366 C12.6172249,9.74612606 12.436656,9.89491911 12.0762506,9.95305335 C11.3309803,10.0732672 10.9437055,9.7753839 10.5396997,9.58386326 L10.2888162,9.7747008 C10.0475955,9.99643822 9.82133025,10.0312341 9.62246695,10.0250958 C9.38847841,10.0178733 9.19242675,9.92475253 9.05458728,9.58386326 C8.92765517,9.33923896 8.65337635,9.17875382 8.51174186,8.96890826 L7.75905069,9.39808029 C7.69652656,9.51644679 7.65721902,9.62864684 7.56383421,9.83714105 C7.54351302,9.88251037 7.54351302,10.1731652 7.56383421,10.7091057 C7.73813215,11.2589424 7.87330182,11.5999046 7.96934321,11.7319922 C8.04947674,11.8421971 8.38885315,12.2953491 8.39299186,12.3033762 C8.51263605,12.4474211 8.10111731,12.5514614 7.92154045,12.5234982 C7.45699733,12.4551733 6.50809409,12.0548662 6.48349628,12.0405701 C5.97591906,11.7455597 5.64845124,11.5321852 5.25136308,11.1588558 C5.01458702,10.9113655 4.62290917,10.4040741 4.45638729,10.0444365 C4.37062873,9.74731329 4.29365189,9.37531805 4.25347345,8.96890826 C4.18358184,8.26194607 4.13185423,7.45084663 4.62167269,6.74856861 C4.66970068,6.6797084 4.84876566,6.45094231 4.90526824,6.42955829 C5.19352435,6.24959096 5.53207376,6.16477092 5.86867286,6.0966539 C5.85963489,5.8070292 5.79908309,5.67396866 5.68701746,5.69747227 C5.518919,5.73272769 4.8913696,5.88344988 4.73133099,5.96343206 C4.36738311,6.06082142 4.06550087,6.07621711 3.60166561,6.18341937 C3.45088697,6.20044937 2.32171998,6.1277632 2.28544264,6.0966539 C2.12853781,5.89467456 2.21397327,5.72983168 2.00976406,5.33831917 C1.91992486,5.1660783 1.56851932,4.82721298 1.41758515,4.68878747 C0.923569708,4.23571352 0.831381368,3.97040068 0.713025512,3.50618922 C0.683263608,3.36912358 0.604938944,3.22715744 0.645672535,2.82160353 C0.765993642,2.43876406 0.565999349,2.27679198 0.894168589,1.96727312 C1.23567438,1.97236177 1.54263488,1.92084455 1.80593926,1.96727312 C1.92673881,1.98592771 2.17794698,1.9951029 2.43740644,2.08432328 C2.61159323,2.14421991 3.86903439,2.60245383 3.95072717,2.60701191 C4.17703512,2.61963885 2.94038778,2.02463106 2.6428924,1.87885168 C2.33487098,1.7279143 2.22153189,1.70218957 2.2127516,1.68045548 C2.9044987,1.3052847 2.8097343,1.11430522 3.26472143,0.718151373 C3.47265258,0.63460222 3.55373366,0.47357364 3.73040676,0.455853117 C4.3471012,0.545862547 4.71481798,0.555115226 5.15658974,0.718151373 C5.88534749,0.987099881 6.56791688,1.31435315 7.07452091,1.56445162 C7.40478152,1.73023718 7.68259933,1.85560101 7.96934321,2.00658111 C8.22069457,2.08289682 9.05446363,2.61148161 9.27643917,2.89646825 C9.50193789,3.33595444 9.68340489,3.81067971 9.83356576,4.26877297 C9.85469504,4.36020091 9.88029909,4.52427811 9.97285512,4.76100456 C10.0114376,4.85968526 10.0936874,5.03611064 10.2196044,5.29028069 C10.1036443,4.58823774 10.0395259,4.21746094 10.0272493,4.17795028 C9.85260318,3.61592177 9.69524543,2.74098859 9.64801249,2.69536935 C9.51490438,2.54076584 9.0078935,2.1486512 8.66741731,1.96727312 C8.53862065,1.89865863 8.43923193,1.85609848 8.43379435,1.82593216 C8.54256204,1.72450656 8.57792446,1.68488866 8.69837169,1.59963473 C8.81382536,1.51791361 8.91894762,1.4088378 9.07985496,1.35368484 C9.20973234,1.29969037 9.34165593,1.23149957 9.47126827,1.21251221 C9.94066518,1.14374861 10.3797485,1.23602361 10.5815438,1.400295 C10.9896212,1.7324904 11.5445547,2.41302223 11.7935835,2.85310175 C11.8911366,3.02892593 11.9358085,3.14469664 11.890564,3.3564133 C11.8451988,3.56832302 11.8027365,3.68485108 11.7532513,3.82637172 C11.7037661,3.96789237 11.4737698,4.56869427 11.4747511,4.65571535 C11.4537803,4.80201332 11.5261778,5.0135351 11.6919436,5.29028069 C11.9279504,5.23596611 12.0451924,5.2162141 12.0436696,5.23102468 C12.0413855,5.25324054 11.8139798,4.77643112 11.8223051,4.71530846 C11.9035084,4.25117125 12.0519586,3.91704591 12.2120776,3.50975456 C12.2596613,3.40696869 12.297896,3.34980505 12.2947203,3.27154547 C12.2973384,3.1326711 12.0735617,2.62487187 11.7225321,2.15893781 C11.3715025,1.69300374 11.0876405,1.29135673 10.5396997,1.0632011 C9.99175892,0.835045469 9.68499154,0.910555252 9.47665821,0.946634848 C9.22392333,0.995237462 8.87163424,1.11008274 8.69837169,1.21251221 C8.42568829,1.37369427 8.34634933,1.53341063 8.09506233,1.68045548 C7.53907777,1.42381752 7.270738,1.23898978 7.22070583,1.21251221 C7.03052516,1.11844606 6.16970372,0.657712477 5.25136308,0.353373354 C4.57409327,0.128925376 3.865539,0.0356698618 3.37163527,1.13686838e-13 C3.17632961,0.117598159 3.08801153,0.237374991 2.75269944,0.557764061 Z M10.5395733,9.58242826 C10.1969092,9.33517551 9.86954009,8.99513418 9.67938565,8.73303142 C9.65581848,8.85007458 9.61364961,9.0130777 9.74827908,9.22204077 C9.8161144,9.32733033 9.99561771,9.51151856 10.286789,9.77460546 L10.5395733,9.58242826 Z"/>
    </g>
  </g>
</svg>
