<svg xmlns="http://www.w3.org/2000/svg" width="16" height="16" viewBox="0 0 16 16">
  <g fill="none" transform="translate(-1.478 -2.76)">
    <rect width="1.812" height="3.856" x="12.35" y="13.829" fill="#509CD1" transform="rotate(-45 13.256 15.756)"/>
    <path fill="#9CC4E8" d="M8.35660719,14.844397 C12.2091825,14.844397 15.3323119,11.8417564 15.3323119,8.1378115 C15.3323119,4.43386662 12.2091825,1.43122603 8.35660719,1.43122603" transform="rotate(-45 11.844 8.138)"/>
    <path fill="#9CC4E8" d="M3.58519895,17.9653104 C6.93743982,17.9653104 9.65496798,15.3526231 9.65496798,12.12971 C9.65496798,8.90679695 6.93743982,6.29410967 3.58519895,6.29410967" transform="scale(-1 1) rotate(45 0 -3.853)"/>
    <path fill="#509CD1" d="M8.57881236,13.7432292 C11.455546,13.7432292 13.7875993,11.5011453 13.7875993,8.73539466 C13.7875993,5.969644 11.455546,3.7275601 8.57881236,3.7275601" transform="rotate(-45 11.183 8.735)"/>
    <path fill="#509CD1" d="M5.03481779,15.8871888 C7.48700353,15.8871888 9.47489285,13.9759913 9.47489285,11.6184097 C9.47489285,9.26082804 7.48700353,7.3496305 5.03481779,7.3496305" transform="scale(-1 1) rotate(45 0 -5.896)"/>
    <path fill="#9CC4E8" d="M8.88961857,12.8169215 C10.8598493,12.8169215 12.4570369,11.2813526 12.4570369,9.38713239 C12.4570369,7.49291217 10.8598493,5.95734329 8.88961857,5.95734329" transform="rotate(-45 10.673 9.387)"/>
    <path fill="#509CD1" d="M9.22446799,11.8665052 C10.1264708,11.8665052 10.8576885,11.1634974 10.8576885,10.2962934 C10.8576885,9.42908945 10.1264708,8.72608171 9.22446799,8.72608171" transform="rotate(-45 10.041 10.296)"/>
    <path fill="#9CC4E8" d="M6.52002151,13.6060326 C8.01080704,13.6060326 9.2193275,12.4441362 9.2193275,11.0108645 C9.2193275,9.5775927 8.01080704,8.41569636 6.52002151,8.41569636" transform="rotate(135 7.87 11.01)"/>
  </g>
</svg>
