<svg xmlns="http://www.w3.org/2000/svg" width="16" height="16" viewBox="0 0 16 16">
  <g fill-rule="evenodd" transform="translate(1 5)">
    <polygon points="0 0 0 1.162 .783 1.162 .783 4.466 .021 4.466 .021 5.614 2.746 5.614 2.746 4.466 1.963 4.466 1.963 1.162 2.725 1.162 2.725 0"/>
    <polygon points="7.756 .014 7.756 1.162 8.539 1.162 8.539 4.466 7.778 4.466 7.778 5.614 9.72 5.614 9.72 2.42 10.877 5.613 10.9 5.613 12.037 2.42 12.037 5.614 14 5.614 14 4.466 13.217 4.466 13.217 1.162 13.979 1.162 13.979 .014 11.79 .014 10.884 2.574 9.966 .014"/>
    <path d="M3.111178,5.614 L3.111178,4.45362264 L3.894296,4.45362264 L3.894296,2.614 L6.908678,2.614 L6.908678,2.96675472 C6.908678,2.96675472 7.160832,3.16546226 7.241178,3.35402358 L7.4025,3.71989623 C7.4025,3.71989623 7.477428,3.92468868 7.477428,4.10770283 L7.445158,4.47357547 C7.445158,4.47357547 7.394534,4.77163679 7.30625,4.86029245 L6.994526,5.22673113 C6.994526,5.22673113 6.597864,5.614 6.0725,5.614 L3.111178,5.614 Z M3.111178,0.014 L6.0725,0.014 C6.597864,0.014 6.994526,0.394357296 6.994526,0.394357296 L7.30625,0.754256158 C7.394534,0.841329584 7.445158,1.13407142 7.445158,1.13407142 L7.477428,1.49341434 C7.477428,1.67316225 7.4025,1.87429978 7.4025,1.87429978 L7.241178,2.2336427 C7.160832,2.41883878 6.908678,2.614 6.908678,2.60902835 L3.894296,2.60902835 L3.894296,1.15366815 L3.111178,1.15366815 L3.111178,0.014 Z M5.074454,1.162 L5.074454,2.226 L6.222342,2.226 L6.222342,1.162 L5.074454,1.162 Z M5.074454,3.388 L5.074454,4.452 L6.222342,4.452 L6.222342,3.388 L5.074454,3.388 Z"/>
  </g>
</svg>
