<svg width="16" height="16" viewBox="0 0 16 16" fill="none" xmlns="http://www.w3.org/2000/svg">
<path d="M8.43435 15.5344C8.53484 15.7009 8.49167 15.8743 8.42099 16C8.904 15.7861 9.16051 15.6277 9.30389 15.2732C10.103 13.2973 9.96046 11.6419 10.1062 11.3776C10.1917 11.2226 10.3732 11.1348 10.384 10.826C10.384 10.826 10.6382 10.7813 10.7088 10.7073C10.4838 10.6453 10.2118 10.3693 10.2688 10.0683C10.3855 9.45278 11.1994 9.06645 11.3684 8.74486C11.7356 8.04643 11.7179 7.54188 11.6725 6.86354C10.91 7.94077 10.2647 8.60462 10.1034 8.79763C10.0369 8.87716 9.90889 8.92851 9.81634 8.91631C9.74297 8.90664 9.69803 8.85042 9.66138 8.76694C9.61347 8.65781 9.67828 8.48763 9.71145 8.31094C9.77642 7.96484 9.91242 7.67766 10.0142 7.49475C10.399 6.80366 10.9903 6.24794 11.4133 5.84601C11.4133 5.84601 12.2614 2.57185 9.6959 0C11.4708 2.45594 10.6398 5.30817 10.6398 5.30817C10.6398 5.30817 8.99823 6.87025 8.8611 8.06751C8.71086 9.37925 9.51245 9.51099 9.51245 10.3693C9.51245 10.9447 8.93382 11.3454 8.77228 12.3956C8.65645 13.1486 8.97874 13.9398 8.904 14.1033C8.87681 14.1628 8.82234 14.2577 8.76562 14.3268C8.70891 14.396 8.6766 14.4217 8.61518 14.4744C8.55615 14.5251 8.51333 14.5919 8.45873 14.5919C8.38186 14.5919 8.30166 14.4844 8.20849 14.4011C8.09458 14.2993 7.91381 14.1473 7.91381 14.1473L7.90175 14.1549C7.90175 14.1549 7.8613 14.3814 7.97661 14.4565C8.17131 14.5832 8.53513 14.7326 8.43435 15.1087C8.36093 15.3828 7.86098 15.2732 7.86098 15.2732C7.86098 15.2732 7.95508 15.3373 8.08107 15.3667C8.19685 15.3938 8.36023 15.4116 8.43435 15.5344Z" fill="#4387FB"/>
<path d="M6.36332 10.7544C6.36332 10.7544 6.61924 10.5474 6.89224 10.5676C7.18962 10.5896 7.35838 10.8628 7.48254 11.2113C7.64662 11.672 7.72369 12.2483 7.74352 12.5688C7.56239 12.1444 7.43095 11.6888 7.31002 11.4608C7.26003 11.3666 7.20709 11.3242 7.16211 11.3142C7.04093 11.2872 6.94807 11.3278 6.85526 11.2364C6.67797 11.0618 6.77978 10.9001 6.64403 10.8158C6.52709 10.7431 6.36332 10.7544 6.36332 10.7544Z" fill="#4387FB"/>
<path d="M5.0443 7.51531C5.47171 7.76228 6.0262 8.66837 6.18922 9.25008C5.4875 8.8035 5.10915 8.20174 5.0443 7.51531Z" fill="#4387FB"/>
<path d="M5.55279 6.23289C5.61287 6.29502 6.90859 7.42571 6.88055 9.20616C7.32177 9.15012 7.67777 8.90382 7.66887 8.48727C7.63133 6.73078 6.01414 5.48854 5.92934 5.23163C5.84453 4.97472 5.26319 2.24264 6.84964 0.00771167C5.36114 1.5852 5.00193 3.31739 5.00001 4.5062C4.99887 5.21291 5.10303 5.73211 5.22879 5.90023C5.32959 6.03498 5.49036 6.16835 5.55279 6.23289Z" fill="#4387FB"/>
</svg>
