<!-- Copyright 2000-2025 JetBrains s.r.o. and contributors. Use of this source code is governed by the Apache 2.0 license. -->
<svg width="16" height="16" viewBox="0 0 16 16" fill="none" xmlns="http://www.w3.org/2000/svg">
<path d="M14.9803 9.44556L13.6303 3.62829C13.5592 3.31289 13.2573 2.9975 12.9375 2.90989L6.73815 1.03504C6.64933 1.01752 6.56052 1 6.4717 1C6.20525 1 5.92104 1.10513 5.76117 1.26283L1.32036 5.32791C1.08944 5.53817 0.947332 5.9587 1.01839 6.27409L2.45721 12.4944C2.52826 12.8098 2.83024 13.1252 3.14997 13.2128L8.94079 14.965C9.0296 14.9825 9.11842 15 9.20724 15C9.47369 15 9.7579 14.8949 9.91777 14.7372L14.6605 10.3917C14.927 10.1815 15.0513 9.76095 14.9803 9.44556ZM7.37762 2.40175L11.623 3.68085C11.7829 3.73342 11.7829 3.80351 11.623 3.83855L9.38487 4.34668C9.20724 4.38173 8.97632 4.31164 8.86974 4.18899L7.30657 2.52441C7.18223 2.41927 7.21775 2.36671 7.37762 2.40175ZM10.0243 9.91865C10.0599 10.0939 9.95329 10.1815 9.79342 10.1289L5.21051 8.74468C5.05064 8.69212 5.01512 8.55194 5.13946 8.44681L8.65658 5.22278C8.78092 5.10012 8.92303 5.15269 8.95855 5.31039L10.0243 9.91865ZM2.47497 5.81852L6.20525 2.40175C6.32959 2.2791 6.52499 2.29662 6.64933 2.41927L8.51447 4.39925C8.63881 4.5219 8.62105 4.71464 8.49671 4.8373L4.76643 8.25407C4.64209 8.37672 4.44669 8.3592 4.32235 8.23655L2.45721 6.25657C2.35063 6.13392 2.35063 5.94118 2.47497 5.81852ZM3.3809 11.2503L2.38616 6.99249C2.35063 6.81727 2.40392 6.79975 2.52826 6.9224L4.09143 8.58698C4.21577 8.70964 4.26906 8.95494 4.21577 9.11264L3.54077 11.2678C3.50524 11.408 3.41642 11.408 3.3809 11.2503ZM8.83421 13.7209L3.98485 12.2491C3.82498 12.1965 3.7184 12.0213 3.77169 11.8636L4.57103 9.27034C4.62432 9.11264 4.80196 9.00751 4.96183 9.06008L9.81119 10.5319C9.97106 10.5845 10.0776 10.7597 10.0243 10.9174L9.225 13.5106C9.17171 13.6859 8.99408 13.7735 8.83421 13.7209ZM13.1507 10.234L9.9 13.2128C9.77566 13.3354 9.70461 13.2829 9.7579 13.1252L10.4329 10.97C10.4862 10.8123 10.6638 10.637 10.8415 10.602L13.0796 10.0939C13.2395 10.0588 13.275 10.1289 13.1507 10.234ZM13.5059 9.60325L10.8237 10.199C10.6461 10.234 10.4862 10.1289 10.4507 9.97121L9.31382 5.0826C9.27829 4.90738 9.38487 4.74969 9.54474 4.71464L12.227 4.1189C12.4046 4.08386 12.5645 4.18899 12.6 4.34668L13.7369 9.2353C13.7724 9.39299 13.6658 9.56821 13.5059 9.60325Z" fill="#3574F0"/>
</svg>
