<!-- Copyright 2000-2025 JetBrains s.r.o. and contributors. Use of this source code is governed by the Apache 2.0 license. -->
<svg width="16" height="16" viewBox="0 0 16 16" fill="none" xmlns="http://www.w3.org/2000/svg">
<path d="M14.865 9.44556L13.5373 3.62829C13.4674 3.31289 13.1705 2.9975 12.856 2.90989L6.75907 1.03504C6.67172 1.01752 6.58437 1 6.49702 1C6.23497 1 5.95546 1.10513 5.79823 1.26283L1.43079 5.32791C1.20369 5.53817 1.06393 5.9587 1.1338 6.27409L2.54886 12.4944C2.61873 12.8098 2.91572 13.1252 3.23017 13.2128L8.92531 14.965C9.01266 14.9825 9.10001 15 9.18736 15C9.44941 15 9.72892 14.8949 9.88615 14.7372L14.5506 10.3917C14.8126 10.1815 14.9349 9.76095 14.865 9.44556ZM7.38798 2.40175L11.5632 3.68085C11.7205 3.73342 11.7205 3.80351 11.5632 3.83855L9.36206 4.34668C9.18736 4.38173 8.96026 4.31164 8.85544 4.18899L7.3181 2.52441C7.19581 2.41927 7.23075 2.36671 7.38798 2.40175ZM9.99097 9.91865C10.0259 10.0939 9.92109 10.1815 9.76386 10.1289L5.25667 8.74468C5.09944 8.69212 5.0645 8.55194 5.18679 8.44681L8.6458 5.22278C8.76809 5.10012 8.90785 5.15269 8.94279 5.31039L9.99097 9.91865ZM2.56633 5.81852L6.23497 2.40175C6.35726 2.2791 6.54943 2.29662 6.67172 2.41927L8.50604 4.39925C8.62833 4.5219 8.61086 4.71464 8.48857 4.8373L4.81992 8.25407C4.69763 8.37672 4.50547 8.3592 4.38318 8.23655L2.54886 6.25657C2.44404 6.13392 2.44404 5.94118 2.56633 5.81852ZM3.45728 11.2503L2.47898 6.99249C2.44404 6.81727 2.49645 6.79975 2.61873 6.9224L4.15607 8.58698C4.27836 8.70964 4.33077 8.95494 4.27836 9.11264L3.61451 11.2678C3.57957 11.408 3.49222 11.408 3.45728 11.2503ZM8.8205 13.7209L4.05126 12.2491C3.89403 12.1965 3.78921 12.0213 3.84162 11.8636L4.62775 9.27034C4.68016 9.11264 4.85486 9.00751 5.01209 9.06008L9.78133 10.5319C9.93856 10.5845 10.0434 10.7597 9.99097 10.9174L9.20483 13.5106C9.15242 13.6859 8.97772 13.7735 8.8205 13.7209ZM13.0656 10.234L9.86868 13.2128C9.74639 13.3354 9.67652 13.2829 9.72892 13.1252L10.3928 10.97C10.4452 10.8123 10.6199 10.637 10.7946 10.602L12.9958 10.0939C13.153 10.0588 13.1879 10.1289 13.0656 10.234ZM13.415 9.60325L10.7771 10.199C10.6024 10.234 10.4452 10.1289 10.4102 9.97121L9.29218 5.0826C9.25724 4.90738 9.36206 4.74969 9.51929 4.71464L12.1572 4.1189C12.3319 4.08386 12.4891 4.18899 12.5241 4.34668L13.6421 9.2353C13.6771 9.39299 13.5723 9.56821 13.415 9.60325Z" fill="#548AF7"/>
</svg>
