<svg xmlns="http://www.w3.org/2000/svg" xmlns:xlink="http://www.w3.org/1999/xlink" width="16" height="16" viewBox="0 0 16 16">
  <defs>
    <path id="informix-a" d="M3.17644155,0.475735648 L1.43603693,0.566135234 C1.25677909,0.575446192 1.09626726,0.680131714 1.01547837,0.840422768 L0.211553022,2.43546922 C0.126138231,2.60493839 0.144028208,2.80815571 0.2577378,2.96009522 L1.2602295,4.29963125 C1.3531448,4.42378529 1.49840763,4.4978004 1.6534646,4.49999454 L3.32490276,4.52364634 C3.51545153,4.52634272 3.6909646,4.42048884 3.77748059,4.25069165 L4.5928383,2.65046204 C4.67410711,2.49096303 4.66390704,2.30018691 4.56609455,2.1502627 L3.62113695,0.70185843 C3.52378189,0.552635353 3.35437445,0.466493509 3.17644155,0.475735648 Z"/>
  </defs>
  <g fill="none" fill-rule="evenodd" transform="translate(-1.286 -1.002)">
    <g transform="rotate(29 2.2 13.3)">
      <path stroke="#DB5860" stroke-linecap="round" d="M11.1613496,3.44868243 L9.909699,1.19064493 C9.74095521,0.886223085 9.42606093,0.69144211 9.07832459,0.676390066 L3.77421433,0.446797441 C3.39895339,0.430553973 3.04623846,0.625966408 2.86101301,0.952732613 L0.276428443,5.51233767 C0.104712227,5.81527151 0.102945604,6.18571879 0.271764759,6.4902766 L2.74558374,10.9531642 C2.92504322,11.2769177 3.26866546,11.4750537 3.63876654,11.4681823 L8.69942988,11.3742245 C9.01539809,11.3683582 9.30999947,11.2134811 9.49396476,10.9565237 L12.3895042,6.91211798"/>
      <path stroke="#DB5860" stroke-linecap="round" d="M2.62496251,6.63132268 L3.94445611,9.04286251 C4.12508492,9.37298429 4.47574762,9.57375385 4.85188369,9.56240404 L7.65604303,9.47778922 C7.97605208,9.46813303 8.27209122,9.30583868 8.45233851,9.04124474 L10.0313258,6.72337087 C10.2431579,6.41241206 10.2625155,6.00886851 10.0814203,5.67906136 L8.71988175,3.1994522 C8.5478889,2.88622199 8.22182457,2.6885731 7.86456116,2.68098653 L4.97525725,2.61963151 C4.60572916,2.6117845 4.26200611,2.80840678 4.0814557,3.13091901 L3.32456687,4.48292875"/>
      <g transform="translate(3.952 3.62)">
        <mask id="informix-b" fill="#fff">
          <use xlink:href="#informix-a"/>
        </mask>
        <use fill="#DB5860" fill-rule="nonzero" transform="scale(-1 1) rotate(2 0 -135.15)" xlink:href="#informix-a"/>
        <g fill-rule="nonzero" mask="url(#informix-b)">
          <g transform="translate(.556 -1.137)">
            <polygon fill="#F2F2F3" points="4.051 1.84 4.349 4.305 2.062 3.6" transform="rotate(-146 3.206 3.073)"/>
            <polygon fill="#EBECED" points=".527 .782 2.706 1.862 .836 3.225" opacity=".601" transform="rotate(-145 1.616 2.004)"/>
          </g>
        </g>
      </g>
    </g>
    <path fill="#DB5860" d="M14.9881894,8.59987662 L15.6645826,9.95266302 C15.7139804,10.0514587 15.6739356,10.1715933 15.5751399,10.2209912 C15.5473688,10.2348767 15.5167462,10.2421057 15.4856971,10.2421057 L14.1329107,10.2421057 C14.0224538,10.2421057 13.9329107,10.1525627 13.9329107,10.0421057 C13.9329107,10.0110567 13.9401397,9.98043411 13.9540253,9.95266302 L14.6304185,8.59987662 C14.6798163,8.50108092 14.7999509,8.46103605 14.8987466,8.5104339 C14.9374521,8.52978664 14.9688366,8.56117113 14.9881894,8.59987662 Z" transform="matrix(1 0 0 -1 0 18.484)"/>
  </g>
</svg>
