<!-- Copyright 2000-2024 JetBrains s.r.o. and contributors. Use of this source code is governed by the Apache 2.0 license. -->
<svg width="16" height="16" viewBox="0 0 16 16" fill="none" xmlns="http://www.w3.org/2000/svg">
<path fill-rule="evenodd" clip-rule="evenodd" d="M8.40001 2.9C8.40001 3.7763 7.80677 4.51404 7 4.73353V5.54124C7.54884 5.64312 8.03342 5.92796 8.38809 6.3301L9.15149 5.84117C9.11783 5.69959 9.10001 5.55188 9.10001 5.4C9.10001 4.35066 9.95067 3.5 11 3.5C12.0493 3.5 12.9 4.35066 12.9 5.4C12.9 6.44934 12.0493 7.3 11 7.3C10.4635 7.3 9.97892 7.07763 9.63343 6.72002L8.88324 7.20049C8.95906 7.43672 9.00001 7.68858 9.00001 7.95C9.00001 8.24194 8.94894 8.52195 8.85526 8.7816L9.63343 9.27998C9.97892 8.92237 10.4635 8.7 11 8.7C12.0493 8.7 12.9 9.55066 12.9 10.6C12.9 11.6493 12.0493 12.5 11 12.5C9.95067 12.5 9.10001 11.6493 9.10001 10.6C9.10001 10.4481 9.11783 10.3004 9.15149 10.1588L8.33047 9.633C7.98174 10.0018 7.51967 10.2623 7 10.3588V11.2665C7.80677 11.486 8.40001 12.2237 8.40001 13.1C8.40001 14.1493 7.54935 15 6.50001 15C5.45066 15 4.60001 14.1493 4.60001 13.1C4.60001 12.2237 5.19323 11.486 6 11.2665V10.338C4.91173 10.0884 4.10001 9.11399 4.10001 7.95C4.10001 6.78601 4.91173 5.8116 6 5.56198V4.73352C5.19323 4.51403 4.60001 3.77629 4.60001 2.9C4.60001 1.85066 5.45066 1 6.50001 1C7.54935 1 8.40001 1.85066 8.40001 2.9ZM6.50001 3.8C6.99706 3.8 7.40001 3.39706 7.40001 2.9C7.40001 2.40294 6.99706 2 6.50001 2C6.00295 2 5.60001 2.40294 5.60001 2.9C5.60001 3.39706 6.00295 3.8 6.50001 3.8ZM6.55001 9.4C7.35082 9.4 8.00001 8.75081 8.00001 7.95C8.00001 7.14919 7.35082 6.5 6.55001 6.5C5.74919 6.5 5.10001 7.14919 5.10001 7.95C5.10001 8.75081 5.74919 9.4 6.55001 9.4ZM7.40001 13.1C7.40001 13.5971 6.99706 14 6.50001 14C6.00295 14 5.60001 13.5971 5.60001 13.1C5.60001 12.6029 6.00295 12.2 6.50001 12.2C6.99706 12.2 7.40001 12.6029 7.40001 13.1ZM11 6.3C11.4971 6.3 11.9 5.89706 11.9 5.4C11.9 4.90294 11.4971 4.5 11 4.5C10.5029 4.5 10.1 4.90294 10.1 5.4C10.1 5.89706 10.5029 6.3 11 6.3ZM11.9 10.6C11.9 11.0971 11.4971 11.5 11 11.5C10.5029 11.5 10.1 11.0971 10.1 10.6C10.1 10.1029 10.5029 9.7 11 9.7C11.4971 9.7 11.9 10.1029 11.9 10.6Z" fill="black"/>
</svg>
