<svg width="16" height="16" viewBox="0 0 16 16" fill="none" xmlns="http://www.w3.org/2000/svg">
<path d="M8.00139 5.24561C10.9227 5.24561 13.2909 4.2952 13.2909 3.12281C13.2909 1.95041 10.9227 1 8.00139 1C5.08009 1 2.71191 1.95041 2.71191 3.12281C2.71191 4.2952 5.08009 5.24561 8.00139 5.24561Z" fill="#2962FF"/>
<path d="M8.12127 12.4416C6.43121 12.8451 4.68852 13.2632 3.57741 14C3.02185 13.655 2.70898 13.2574 2.70898 12.8772C2.70898 11.1989 5.51308 10.5644 8.22361 9.95033C10.1768 9.50881 12.171 9.0556 13.2879 8.14624V9.62577C13.2909 11.2018 10.6622 11.8334 8.12127 12.4416Z" fill="#2962FF"/>
<path d="M8.0277 9.07307C5.96922 9.53799 3.86688 10.0146 2.70898 11.0087V10.6813C2.70898 7.75728 5.91659 7.00875 9.01893 6.28068C11.2733 5.75436 12.3698 5.47658 13.2909 4.73682V6.37424C13.2909 7.88302 10.6154 8.48828 8.0277 9.07307Z" fill="#2962FF"/>
<path d="M13.2908 11.4619C12.1914 12.3888 10.2411 12.8596 8.33177 13.3157C6.96335 13.6432 5.56276 13.9795 4.57153 14.4678C5.46919 14.7894 6.64463 14.9999 8.00136 14.9999C11.0862 14.9999 13.2908 13.8947 13.2908 12.8771V11.4619V11.4619Z" fill="#2962FF"/>
</svg>
