<svg xmlns="http://www.w3.org/2000/svg" width="16" height="16" viewBox="0 0 16 16">
  <g fill="#FFF" fill-rule="evenodd" transform="translate(0 2)">
    <path d="M14.9433343,0.529942172 C14.942154,0.52584129 14.9409887,0.52169598 14.9398363,0.517505805 C14.7426363,0.636069908 14.5613029,0.661456574 14.3564311,0.667965976 C14.1786722,0.673731446 13.9833901,0.665269224 13.744867,0.691399822 C11.7722568,0.907511959 11.5216157,3.22662581 10.2572516,4.54133897 C10.1652773,4.63693418 10.0658055,4.72611298 9.96066703,4.80980529 C9.51788241,5.16177794 8.97466703,5.41331982 8.47512856,5.6169711 C7.66653882,5.94653281 6.8977901,5.96996666 6.13915421,6.25442751 C5.58225164,6.46319333 5.01636959,6.76606649 4.55893882,7.0999988 C4.44455933,7.18341213 4.33680549,7.26887128 4.23768241,7.35535333 C3.96925677,7.5895988 3.79306703,7.84950991 3.62263113,8.11686034 C3.44687728,8.39239401 3.27713882,8.67583196 3.0183901,8.94662307 C2.59923113,9.38563572 1.03296446,9.0746723 0.481554205,9.48178888 C0.420092667,9.52707572 0.371272154,9.58147572 0.338056769,9.64675572 C0.638913179,9.79256632 0.839861897,9.70310854 1.18596446,9.74393179 C1.23138497,10.0942306 0.471877282,10.3024385 0.584164462,10.4637786 C1.46851318,10.5988952 2.00632344,10.4637786 2.71648754,10.1352398 C3.32072856,9.85570751 3.90430805,9.27943948 4.61787215,9.03515093 C5.66585677,8.6764829 6.81505677,9.03561589 7.93531318,9.10721931 C8.20809779,9.1247017 8.47913882,9.12488769 8.74669267,9.09382854 C9.16402087,8.82024769 9.1553901,7.79687675 9.56155933,7.70314136 C9.54961574,9.13892939 8.99776959,9.99919333 8.42064138,10.8322108 C9.63696959,10.6030798 10.3648311,9.8526388 10.8564363,8.85037692 C11.0056004,8.54648085 11.1329696,8.2195229 11.2456055,7.87684939 C11.4197029,8.01940529 11.3210157,8.45311743 11.4085439,8.68810683 C12.2463388,8.19032358 12.7260875,7.054247 13.0437696,5.90524461 C13.4113183,4.57546683 13.5617901,3.22895059 13.7988311,2.83550375 C14.0302055,2.45144905 14.3902568,2.21469281 14.7189234,1.96882341 C15.0270733,1.73818572 15.3077448,1.49950827 15.4288232,1.12388212 C15.437821,1.10802834 15.4497857,1.08694686 15.4656957,1.05891387 C15.6233417,0.781146657 15.6995944,0.530939134 15.5691537,0.395863798 C15.4467757,0.269137623 15.1747908,0.330389146 14.9433343,0.529942172 Z M14.7260573,0.281443282 C15.2495693,0.144022373 15.1729481,0.0695594667 15.415226,0.0613018256 C15.6357326,0.0537853265 15.7555991,0.191625627 15.758973,0.438908499 C15.7694476,1.20664222 15.4502617,1.53324215 15.1015472,1.86875996 C14.7528319,2.20427777 14.3511698,2.40860417 13.9876619,3.00360905 C13.7460509,3.39908775 13.6723991,4.37765076 13.4727581,5.1540364 C13.2868068,5.87695196 13.1043593,6.75176905 12.9197132,7.29865179 C12.7247816,7.87640769 12.8843837,9.18754068 13.4618606,9.36189965 C12.8037453,9.87326058 11.7431606,9.72224153 11.3532068,9.08292529 C10.6533307,9.27941716 10.5668914,10.1875243 9.996476,10.5417287 C9.53215892,10.8300022 9.08878497,10.9606552 8.47355933,11.1229253 C8.13155333,11.19211 7.83176574,11.1792781 7.9314119,11.0648056 C8.25319226,10.5580022 8.65489267,10.1348214 8.85496959,9.49848085 C7.50560636,9.29092485 6.16286703,9.01892392 4.99727728,9.18463469 C4.09653969,9.31277785 3.63588241,9.84961657 3.05753369,10.2220706 C1.81567846,11.0218194 0.449564564,10.8184638 0.333174718,10.5184808 C0.222560513,10.2333839 0.787635282,10.0700612 0.883495231,9.87625863 C0.420485846,9.94200451 0.31748241,9.87102786 0.0825336923,9.61762615 C0.811877282,8.70361502 2.42114523,9.29071469 2.96218113,8.69352358 C3.46799738,8.13520383 3.48063754,7.74380187 3.96474523,7.29865179 C4.58842728,6.72536041 5.3414401,6.25317213 6.02980933,6.02292529 C7.07727174,5.67281247 8.24233754,5.61731982 9.39711703,4.92155777 C10.9420238,3.99080539 11.2829837,1.39253213 12.9823734,0.632327002 C13.5516494,0.377661538 14.1974062,0.420213497 14.7260573,0.281443282 Z"/>
    <path d="M13.0890907,1.56153759 C13.3683266,1.82014682 13.9542599,1.61258989 13.8495574,1.09806818 C13.4156651,1.05975571 13.1643266,1.21681827 13.0890907,1.56153759 Z"/>
  </g>
</svg>
