<svg xmlns="http://www.w3.org/2000/svg" width="16" height="16" viewBox="0 0 16 16">
  <g fill="none" fill-rule="evenodd" transform="translate(.565 2.807)">
    <path fill="#6E6E6E" d="M13.8056788,0.234378214 C13.3100683,0.361584245 12.572671,0.224889992 12.0389748,0.458333333 C11.2201848,0.8164714 10.7634164,1.57001484 10.2912872,2.33376002 C9.84476112,3.05608814 9.51378943,3.78754154 8.80979721,4.20224713 C7.72719144,4.84002901 6.63494226,4.9865001 5.65294625,5.30743685 C4.67095024,5.6283736 4.04150009,6.0883668 3.45679817,6.6138839 C3.00294721,7.02193814 3.07061553,7.28989618 2.59641279,7.80168929 C2.24943979,8.17616451 1.6144651,8.01123457 0.914866755,8.20689746 C0.764255905,8.24902013 0.446375758,8.3190502 0.312351298,8.41924847 C0.255248956,8.46193885 0.020150251,8.70573796 0.0810262742,8.83739431 C0.162014019,9.0125462 0.580472453,9.08764257 0.828276779,9.05323707 C0.738408077,9.23088942 0.208650481,9.38060194 0.312351298,9.64194078 C0.421466779,9.91692518 1.70219856,10.1033345 2.86643784,9.37023138 C3.40863976,9.02881519 3.84050596,8.53671303 4.68494745,8.41924847 C5.77768784,8.26734693 7.03650596,8.51668112 8.30153399,8.70694078 C8.11396188,9.29025291 7.73736774,9.6781687 7.43569865,10.1427385 C7.34228038,10.2476716 7.62333125,10.2594342 7.94396188,10.1960149 C8.52073591,10.0472673 8.93639899,9.92750203 9.37169625,9.66325132 C9.90646067,9.33856391 9.98749755,8.5061324 10.6436313,8.32601485 C11.0092131,8.91205474 12.0035112,9.05048887 12.6204943,8.58174135 C12.0791097,8.42191229 11.9290444,7.22004038 12.1117928,6.69043081 C12.2848986,6.18912163 12.4563814,5.38720596 12.6307107,4.72453337 C12.8178741,4.01284653 12.8869227,3.27213345 13.113433,2.90961131 C13.4542217,2.36419017 14.0012848,2.02058796 14.3282054,1.71302996 C14.6551253,1.40547197 14.7838571,1.1060887 14.7740372,0.402332791 C14.7708742,0.175656825 14.6584993,0.049303216 14.4517744,0.0561933402 C14.2246388,0.0637628444 14.2964712,0.108409047 13.8056788,0.234378214 Z"/>
    <path fill="#FFF" d="M14.0064995,0.47580934 C14.2095989,0.300848313 14.3864719,0.248847511 14.4990898,0.362875148 C14.6105933,0.475774581 14.6108895,0.676417871 14.4980361,0.903950624 C14.4122638,1.32322384 14.1217,1.56858745 13.7989907,1.80475479 C13.4908657,2.03013508 13.1027263,2.24716163 12.8858128,2.59921177 C12.6635869,2.95987138 12.3513521,4.19417793 12.0067752,5.41314089 C11.7089483,6.46639308 11.5465087,7.50779662 10.7610761,7.96409793 C10.6790184,7.74869098 10.7059715,7.35112152 10.5427551,7.22044528 C10.4723577,7.42985686 10.0969999,7.97066157 9.41668182,8.84285941 C9.03391683,9.30893556 8.65294475,9.5768947 8.2737656,9.64673685 C8.81482329,8.88313753 8.95276476,8.37735195 8.96396188,7.06121291 C8.58317822,7.14713702 8.54160302,8.03143924 8.15035783,8.28222169 C7.8995261,8.31069257 7.41614457,8.13146917 7.11894787,8.11284551 C6.70179363,8.08670477 6.27466749,7.98622978 5.84973588,7.96409793 C5.20487169,7.93051125 4.56506156,8.00288583 3.97282726,8.20107115 C3.5268497,8.35035859 2.94285599,8.71354705 2.22084615,9.2906365 C1.85263867,9.53177171 1.39217595,9.61105369 0.839458001,9.52848245 C0.807549787,9.48365387 0.992645133,9.35744231 1.06661969,9.24537268 C1.14545471,9.12593958 1.23167138,8.99342404 1.24184191,8.90132715 C1.25361306,8.79473631 0.93813301,8.79169666 0.881958584,8.78889049 C0.697903509,8.77969613 0.508285035,8.79898936 0.477684876,8.78889049 C0.340938357,8.74376051 0.425461757,8.70746666 0.451457067,8.68873813 C0.968404183,8.31554793 2.43677918,8.60349941 2.82974072,8.20107115 C3.07231764,7.95284596 3.23144745,7.69302784 3.39621668,7.44045531 C3.55600034,7.19538408 3.72117822,6.95713223 3.97282726,6.74240722 C4.06575514,6.663132 4.16677438,6.58479445 4.27400514,6.50833223 C4.70284649,6.20222761 5.23336091,5.92459388 5.75545707,5.73322522 C6.46667822,5.47246944 7.18738014,5.45098841 7.94543303,5.14889018 C8.41375034,4.96220984 8.92301476,4.73162978 9.33812534,4.40898818 C9.43669264,4.33227024 9.52994745,4.250523 9.61617341,4.16289405 C10.8015148,2.95774032 11.0364907,0.831885962 12.8858128,0.63378317 C13.1094282,0.609830122 13.2925051,0.617587159 13.4591542,0.612302145 C13.6512215,0.606335193 13.8212215,0.583064082 14.0060965,0.474380321 C14.0062307,0.474857295 14.006365,0.475333634 14.0064995,0.47580934 Z"/>
    <path fill="#6E6E6E" d="M12.2710225,1.43140945 C12.5328062,1.66846792 13.0821187,1.4782074 12.98396,1.0065625 C12.577186,0.97144273 12.3415562,1.11541675 12.2710225,1.43140945 Z"/>
  </g>
</svg>
