<svg xmlns="http://www.w3.org/2000/svg" width="16" height="16" viewBox="0 0 16 16">
  <g fill="none" transform="translate(4)">
    <path fill="#10AA50" d="M7.82153846,6.40615385 C6.96,2.66461538 5.16307692,1.66769231 4.70769231,0.966153846 C4.51692308,0.652307692 4.35076923,0.332307692 4.20923077,0 C4.18461538,0.332307692 4.14153846,0.541538462 3.85230769,0.793846154 C3.27384615,1.29846154 0.830769231,3.26153846 0.621538462,7.51384615 C0.430769231,11.4769231 3.58153846,13.92 4,14.1723077 C4.32,14.3261538 4.70769231,14.1723077 4.89846154,14.0307692 C6.41846154,13.0030769 8.49230769,10.2707692 7.82153846,6.40615385"/>
    <path fill="#B8C4C2" d="M4.27692308,12 C4.19692308,12.9723077 4.13538462,13.5384615 3.92615385,14.0923077 C3.92615385,14.0923077 4.06769231,15.0215385 4.16,16 L4.50461538,16 C4.58461538,15.3107692 4.70769231,14.6215385 4.87384615,13.9446154 C4.43692308,13.7415385 4.29538462,12.8553846 4.27692308,12 Z"/>
    <path fill="#12924F" d="M4.94153846,14 L4.94153846,14 C4.51692308,13.8030769 4.39384615,12.8861538 4.37538462,12.0307692 C4.48,10.6153846 4.51076923,9.2 4.46769231,7.77846154 C4.44307692,7.04 4.48,0.898461538 4.28307692,0 C4.41846154,0.301538462 4.57230769,0.596923077 4.73846154,0.886153846 C5.19384615,1.59384615 6.97230769,2.59076923 7.82153846,6.35076923 C8.48615385,10.2215385 6.44307692,12.96 4.94153846,14 Z"/>
  </g>
</svg>
