<svg xmlns="http://www.w3.org/2000/svg" width="16" height="16" viewBox="0 0 16 16">
  <g fill="none" fill-rule="evenodd" transform="translate(1 1)">
    <path fill="#FFF" d="M13.9623335,13.7058468 C13.8953769,13.5920207 13.8767103,13.4684555 13.8105654,13.3730932 C13.7158117,13.2787454 13.6206523,13.1927164 13.5254929,13.0981657 C13.2499567,12.7278758 12.9076668,12.4052671 12.5381885,12.13947 C12.2340436,11.9298758 11.5689422,11.6450062 11.4459856,11.2948033 C11.6356958,11.2560497 11.8830291,11.1799628 12.0822755,11.1223396 C12.4046813,11.0371222 12.6990871,11.0563975 13.0314349,10.9711802 C13.1836088,10.9328323 13.3355798,10.8851512 13.4881596,10.8384845 L13.4881596,10.7524555 C13.3163045,10.5818178 13.193348,10.353557 13.0129712,10.1922526 C12.5290581,9.7744845 11.9966523,9.36665842 11.4459856,9.02416566 C11.1511741,8.83425262 10.771348,8.7112961 10.4578697,8.54938305 C10.3444494,8.49236856 10.1547393,8.46416566 10.0879856,8.36880334 C9.91694217,8.15981784 9.82157985,7.8848903 9.69842043,7.63755697 C9.42328999,7.11590479 9.1568842,6.53683233 8.91989869,5.98515117 C8.74905811,5.61506421 8.64456536,5.24497726 8.43557985,4.9028903 C7.45700014,3.28822363 6.39381173,2.31065842 4.7604784,1.35135407 C4.40905811,1.151499 3.99128999,1.06628161 3.54531898,0.961788852 C3.30752188,0.951846823 3.07033347,0.933383055 2.83294217,0.924049721 C2.68076825,0.857296098 2.52859434,0.676716388 2.39589869,0.591296098 C1.85436246,0.249614939 0.459029123,-0.490964771 0.0599276741,0.487006243 C-0.196536094,1.10462943 0.439753761,1.71210769 0.6582755,2.02558595 C0.819579848,2.2437019 1.02876825,2.49103523 1.14218854,2.73755697 C1.20873927,2.89906421 1.22781173,3.07031059 1.29456536,3.24094827 C1.44633347,3.65871639 1.58856536,4.12416566 1.78842043,4.51373088 C1.89250738,4.71318016 2.00633347,4.92236856 2.13923202,5.10193378 C2.21592767,5.20703523 2.34842043,5.25390479 2.37702912,5.42535407 C2.24453637,5.61506421 2.23418854,5.89993378 2.15830449,6.13752798 C1.81662333,7.21065842 1.94931898,8.54004972 2.43384072,9.32810769 C2.58540594,9.565499 2.94676825,10.0879628 3.43108709,9.88810769 C3.85839144,9.71747001 3.76343492,9.17613668 3.88679724,8.70155697 C3.91520304,8.58691929 3.89613057,8.51164392 3.95294217,8.43575987 C4.08584072,8.72042653 4.21914507,8.97628161 4.34250738,9.2428903 C4.63731898,9.70773088 5.14963782,10.1922526 5.57734796,10.5148613 C5.80459434,10.6863106 5.98517405,10.9803106 6.27004362,11.0850062 C6.19415956,10.9711802 8,13 9,13.0981657 C10.4578697,13.3730932 13.8288262,13.6589773 13.9623335,13.7058468 Z"/>
    <path fill="#389FD6" d="M3.22994203,2.43478261 C3.06884058,2.43478261 2.95521739,2.45426087 2.84057971,2.48246377 L2.84057971,2.50153623 L2.85904348,2.50153623 C2.93573913,2.65310145 3.06884058,2.7584058 3.16298551,2.89110145 C3.23947826,3.04307246 3.30602899,3.19463768 3.38191304,3.3464058 C3.39124638,3.33727536 3.40037681,3.32733333 3.40037681,3.32733333 C3.53428986,3.23278261 3.60063768,3.08081159 3.60063768,2.85255072 C3.54321739,2.7857971 3.53428986,2.71985507 3.4864058,2.65310145 C3.4295942,2.55834783 3.30602899,2.51086957 3.22994203,2.43478261"/>
    <path fill="#389FD6" d="M11.0184784,10.8666874 C10.8760436,10.9237019 10.6483914,10.9237019 10.6289132,11.1040787 C10.7054059,11.1799628 10.7145364,11.3033251 10.7814929,11.4082236 C10.8951161,11.5981367 11.0941596,11.8539918 11.2749422,11.987499 C11.4743914,12.13947 11.6738407,12.2908323 11.8830291,12.4237309 C12.2531161,12.6526004 12.6710871,12.7848903 13.0314349,13.0129483 C13.2410291,13.1458468 13.449203,13.3164845 13.6587972,13.4593251 C13.7628842,13.535412 13.8288262,13.6589773 13.9623335,13.7058468 C13.8953769,13.5920207 13.8767103,13.4684555 13.8105654,13.3730932 C13.7158117,13.2787454 13.6206523,13.1927164 13.5254929,13.0981657 C13.2499567,12.7278758 12.9076668,12.4052671 12.5381885,12.13947 C12.2340436,11.9298758 11.5689422,11.6450062 11.4459856,11.2948033 C11.6356958,11.2560497 11.8830291,11.1799628 12.0822755,11.1223396 C12.4046813,11.0371222 12.6990871,11.0563975 13.0314349,10.9711802 C13.1836088,10.9328323 13.3355798,10.8851512 13.4881596,10.8384845 L13.4881596,10.7524555 C13.3163045,10.5818178 13.193348,10.353557 13.0129712,10.1922526 C12.5290581,9.7744845 11.9966523,9.36665842 11.4459856,9.02416566 C11.1511741,8.83425262 10.771348,8.7112961 10.4578697,8.54938305 C10.3444494,8.49236856 10.1547393,8.46416566 10.0879856,8.36880334 C9.91694217,8.15981784 9.82157985,7.8848903 9.69842043,7.63755697 C9.42328999,7.11590479 9.1568842,6.53683233 8.91989869,5.98515117 C8.74905811,5.61506421 8.64456536,5.24497726 8.43557985,4.9028903 C7.45700014,3.28822363 6.39381173,2.31065842 4.7604784,1.35135407 C4.40905811,1.151499 3.99128999,1.06628161 3.54531898,0.961788852 C3.30752188,0.951846823 3.07033347,0.933383055 2.83294217,0.924049721 C2.68076825,0.857296098 2.52859434,0.676716388 2.39589869,0.591296098 C1.85436246,0.249614939 0.459029123,-0.490964771 0.0599276741,0.487006243 C-0.196536094,1.10462943 0.439753761,1.71210769 0.6582755,2.02558595 C0.819579848,2.2437019 1.02876825,2.49103523 1.14218854,2.73755697 C1.20873927,2.89906421 1.22781173,3.07031059 1.29456536,3.24094827 C1.44633347,3.65871639 1.58856536,4.12416566 1.78842043,4.51373088 C1.89250738,4.71318016 2.00633347,4.92236856 2.13923202,5.10193378 C2.21592767,5.20703523 2.34842043,5.25390479 2.37702912,5.42535407 C2.24453637,5.61506421 2.23418854,5.89993378 2.15830449,6.13752798 C1.81662333,7.21065842 1.94931898,8.54004972 2.43384072,9.32810769 C2.58540594,9.565499 2.94676825,10.0879628 3.43108709,9.88810769 C3.85839144,9.71747001 3.76343492,9.17613668 3.88679724,8.70155697 C3.91520304,8.58691929 3.89613057,8.51164392 3.95294217,8.43575987 C4.08584072,8.72042653 4.21914507,8.97628161 4.34250738,9.2428903 C4.63731898,9.70773088 5.14963782,10.1922526 5.57734796,10.5148613 C5.80459434,10.6863106 5.98517405,10.9803106 6.27004362,11.0850062 C6.19415956,10.9711802 6.10894217,10.9328323 6.03285521,10.8666874 C5.86201463,10.6956439 5.67250738,10.4866584 5.53900014,10.2969483 C5.14030449,9.76535407 4.7884784,9.17613668 4.47581173,8.56845552 C4.32343492,8.27344103 4.19073927,7.95083233 4.06717405,7.65662943 C4.01036246,7.54320914 4.01036246,7.37175987 3.91520304,7.31494827 C3.77236246,7.52373088 3.56398565,7.70431059 3.45969579,7.95996276 C3.27911608,8.36880334 3.26024651,8.87199175 3.19328999,9.39445552 C3.15555086,9.40439755 3.17462333,9.39445552 3.15555086,9.41332508 C2.85201463,9.33744103 2.74752188,9.02416566 2.63328999,8.75897726 C2.34842043,8.08393378 2.30053637,7.00147001 2.5478697,6.22274537 C2.61401463,6.0237019 2.89969579,5.39694827 2.78526101,5.20703523 C2.72784072,5.02584682 2.53813057,4.92236856 2.43384072,4.77932508 C2.3106813,4.59894827 2.17697115,4.371499 2.09236246,4.17164392 C1.86430449,3.64004972 1.7496668,3.05103523 1.50355086,2.51944103 C1.38952188,2.27210769 1.1896668,2.01564392 1.02876825,1.78819465 C0.847985645,1.53173088 0.648739268,1.35135407 0.506101587,1.04781784 C0.459029123,0.943122185 0.392478399,0.772078707 0.468159558,0.658455518 C0.486826225,0.582368562 0.525376949,0.553759866 0.601463906,0.534484504 C0.724217529,0.430194649 1.07604362,0.562890301 1.19920304,0.619904794 C1.55082622,0.761933779 1.84523202,0.895643924 2.13923202,1.0946874 C2.27233347,1.18984682 2.41476825,1.37022363 2.58540594,1.41810769 L2.78526101,1.41810769 C3.08900014,1.48404972 3.43108709,1.43657146 3.71615956,1.52239755 C4.21914507,1.6837019 4.67485521,1.9210932 5.08349289,2.17755697 C6.32705811,2.96581784 7.35271028,4.08662943 8.04560883,5.42535407 C8.15984072,5.64347001 8.20772478,5.84312219 8.31201463,6.07057146 C8.51146391,6.53683233 8.75859434,7.01161494 8.95763782,7.46691929 C9.1568842,7.9132961 9.34720304,8.36880334 9.6324784,8.7397019 C9.77450738,8.93874537 10.3444494,9.04323813 10.6009132,9.14773088 C10.7904204,9.23294827 11.085232,9.30903523 11.2562755,9.41332508 C11.5790871,9.61257146 11.90129,9.84083233 12.2056378,10.059557 C12.357203,10.1733831 12.8321885,10.4105715 12.8607972,10.6008903 C12.1007393,10.5818178 11.5121306,10.6577019 11.0184784,10.8666874 Z"/>
  </g>
</svg>
