<svg xmlns="http://www.w3.org/2000/svg" width="16" height="16" viewBox="0 0 16 16">
  <g fill="none" fill-rule="evenodd" transform="translate(1 1)">
    <path fill="#389FD6" d="M2.92163086,2.48246377 C2.96881698,2.55158348 3.04342228,2.66593061 3.14544678,2.82550515 C3.29848352,3.06486697 3.34769486,3.18952872 3.38191304,3.25796509 C3.39124638,3.24883465 3.6312484,3.03687889 3.65655518,2.82550515 C3.6642488,2.76124445 3.64907452,2.63623199 3.56318665,2.5531311 C3.4850306,2.47751115 3.33780146,2.44079052 3.29998057,2.43478261 C3.09842514,2.4027652 2.95457693,2.47435845 2.92163086,2.48246377 Z"/>
    <path fill="#00AFFF" d="M10.6289132,11.1040787 C10.7054059,11.1799628 10.7145364,11.3033251 10.7814929,11.4082236 C10.8951161,11.5981367 11.0941596,11.8539918 11.2749422,11.987499 C11.4743914,12.13947 11.6738407,12.3957249 11.8830291,12.5286235 C12.2531161,12.7574931 12.6710871,12.8991191 13.0314349,13.127177 C13.2410291,13.2600756 13.449203,13.3164845 13.6587972,13.4593251 C13.7628842,13.535412 13.8288262,13.6589773 13.9623335,13.7058468 C13.9231341,13.639208 13.8278721,13.2048282 13.5291276,12.8027971 C13.3175855,12.5181174 12.912393,12.2496576 12.7592238,12.13947 C12.4550789,11.9298758 12.0059856,11.6450062 11.8830291,11.2948033 C12.0727393,11.2560497 12.8181312,11.207557 13.150479,11.1223396 C13.2519283,11.0967744 13.4213677,11.011557 13.6587972,10.8666874 C13.5675071,10.776044 13.4968868,10.3222048 13,9.86527189 C12.5614896,9.4620215 11.7041359,9.05636166 11.4459856,8.89580246 C11.1511741,8.70588941 10.1547393,8.46416566 10.0879856,8.36880334 C9.91694217,8.15981784 9.82157985,7.8848903 9.69842043,7.63755697 C9.42328999,7.11590479 9.1568842,6.53683233 8.91989869,5.98515117 C8.74905811,5.61506421 8.64456536,5.24497726 8.43557985,4.9028903 C7.45700014,3.28822363 6.39381173,2.31065842 4.7604784,1.35135407 C4.40905811,1.151499 3.99128999,1.06628161 3.54531898,0.961788852 C3.30752188,0.951846823 3.07033347,0.933383055 2.83294217,0.924049721 C2.68076825,0.857296098 2.52859434,0.743875808 2.39589869,0.658455518 C1.85436246,0.316774359 0.459029123,-0.490964771 0.0599276741,0.487006243 C-0.196536094,1.10462943 0.439753761,1.71210769 0.6582755,2.02558595 C0.819579848,2.2437019 1.02876825,2.49103523 1.14218854,2.73755697 C1.20873927,2.89906421 1.22781173,3.07031059 1.29456536,3.24094827 C1.44633347,3.65871639 1.58856536,4.12416566 1.78842043,4.51373088 C1.89250738,4.71318016 2.00633347,4.92236856 2.13923202,5.10193378 C2.21592767,5.20703523 2.34842043,5.25390479 2.37702912,5.42535407 C2.24453637,5.61506421 2.23418854,5.89993378 2.15830449,6.13752798 C1.81662333,7.21065842 1.94931898,8.54004972 2.43384072,9.32810769 C2.58540594,9.565499 2.94676825,10.0879628 3.43108709,9.88810769 C3.85839144,9.71747001 3.76343492,9.17613668 3.88679724,8.70155697 C3.91520304,8.58691929 3.89613057,8.51164392 3.95294217,8.43575987 C4.08584072,8.72042653 4.21914507,8.97628161 4.34250738,9.2428903 C4.63731898,9.70773088 5.98517405,10.9803106 6.27004362,11.0850062 C6.19415956,10.9711802 5.95520613,10.4866584 5.82169888,10.2969483 C5.42300323,9.76535407 5.12591208,9.17613668 4.81324542,8.56845552 C4.6608686,8.27344103 4.3891326,7.90570101 4.26556738,7.61149811 C4.24553472,7.57150434 4.07413171,7.2465598 3.97846943,7.26694234 C3.80283837,7.30436364 3.45992459,7.79445755 3.39240897,7.95996276 C3.21182926,8.36880334 3.20558194,8.72042653 3.13862541,9.2428903 C3.10088628,9.25283233 2.7659084,8.87877173 2.67727408,8.27000998 C2.57064165,7.53763284 2.65019574,6.64799597 2.78526101,6.22274537 C2.85140594,6.0237019 3.12926064,5.39694827 3.01482586,5.20703523 C2.95740557,5.02584682 2.88955086,4.92236856 2.78526101,4.77932508 C2.66210159,4.59894827 2.46163782,4.371499 2.37702912,4.17164392 C2.14897115,3.64004972 1.92684711,3.05103523 1.68073117,2.51944103 C1.56670219,2.27210769 1.36010159,2.01564392 1.19920304,1.78819465 C1.01842043,1.53173088 0.449289993,0.724600446 0.524971152,0.610977258 C0.543637819,0.534890301 0.582188544,0.506281605 0.6582755,0.487006243 C0.781029123,0.382716388 1.33836221,0.703993353 1.44987299,0.773974872 C1.69235884,0.926153221 2.02139091,1.27157344 2.13923202,1.35135407 C2.27233347,1.44651349 2.41476825,1.47451349 2.58540594,1.52239755 L2.78526101,1.52239755 C3.08900014,1.58833958 3.43108709,1.58445552 3.71615956,1.67028161 C4.21914507,1.83158596 4.67485521,2.17831884 5.08349289,2.43478261 C6.32705811,3.22304348 7.35271028,4.38648523 8.04560883,5.72520987 C8.15984072,5.94332581 8.75859434,7.31441936 8.95763782,7.7697237 C9.1568842,8.21610051 9.34720304,8.5249039 9.6324784,8.89580246 C9.77450738,9.09484593 10.3444494,9.22361494 10.6009132,9.32810769 C10.7904204,9.41332508 11.085232,9.52348918 11.2562755,9.62777904 C11.5790871,9.82702541 11.90129,9.97352798 12.2056378,10.1922526 C12.357203,10.3060787 12.6176343,10.4105715 12.646243,10.6008903 C12.2803251,10.5917082 11.7206685,10.6127335 11.3485233,10.7125757 C10.9476755,10.8201186 10.6390139,11.0105415 10.6289132,11.1040787 Z"/>
  </g>
</svg>
