<svg xmlns="http://www.w3.org/2000/svg" width="16" height="16" viewBox="0 0 16 16">
  <g fill="none" transform="translate(1 1)">
    <rect width="14" height="14" fill="#F80000"/>
    <path fill="#FFF" d="M4.79492309,11 C2.70001956,11 1,9.21229066 1,7.00319373 C1,4.79409175 2.70001956,3 4.79492309,3 L9.20570628,3 C11.3011903,3 13,4.79409175 13,7.00319373 C13,9.21229066 11.3011903,11 9.20570628,11 L4.79492309,11 Z M9.10759142,9.58898623 C10.4648369,9.58898623 11.564058,8.43335777 11.564058,7.00319373 C11.564058,5.57302363 10.4648369,4.41101478 9.10759142,4.41101478 L4.89240858,4.41101478 C3.53579247,4.41101478 2.43594103,5.57302363 2.43594103,7.00319373 C2.43594103,8.43335777 3.53579247,9.58898623 4.89240858,9.58898623 L9.10759142,9.58898623 Z"/>
  </g>
</svg>
