<svg xmlns="http://www.w3.org/2000/svg" width="16" height="16" viewBox="0 0 16 16">
  <g fill="none" fill-rule="evenodd" transform="translate(1.73 1.53)">
    <path fill="#000" fill-rule="nonzero" stroke="#6E6E6E" d="M9.67723171,9.70963659 C9.76705854,8.9613122 9.74013902,8.85157317 10.297522,8.97279024 L10.4390317,8.98521951 C10.8676195,9.00471951 11.4282683,8.9162878 11.7576439,8.76326829 C12.4666829,8.43427317 12.887122,7.88497561 12.1879756,8.02930732 C10.5931927,8.35830244 10.4835488,7.81829512 10.4835488,7.81829512 C12.1675561,5.31966341 12.871522,2.14788537 12.2638829,1.3715 C10.6065415,-0.7462 7.73772683,0.255212195 7.68972195,0.281212195 L7.67443902,0.284034146 C7.35933171,0.218653659 7.00668293,0.179590244 6.61053171,0.173185366 C5.88884146,0.161326829 5.34122439,0.362382927 4.92582683,0.677458537 C4.92582683,0.677458537 -0.191987805,-1.43101463 0.046102439,3.32907805 C0.0967390244,4.34168293 1.49756829,10.9913098 3.16832195,8.98280976 C3.77897317,8.24837317 4.36910976,7.62738537 4.36910976,7.62738537 C4.66214878,7.82206829 5.01299024,7.92137561 5.38095366,7.88570488 L5.40939512,7.86144878 C5.40048537,7.95263902 5.40441707,8.04183171 5.42077805,8.14741707 C4.99044634,8.62832195 5.11689512,8.71275854 4.25639024,8.88987561 C3.38580244,9.06930732 3.89727317,9.38875854 4.23111951,9.4722439 C4.63595854,9.57348537 5.57249756,9.71689756 6.20547073,8.83099512 L6.18026341,8.93207805 C6.34910488,9.06715122 6.33769024,9.90292439 6.36162927,10.5000683 C6.3856,11.0972439 6.42558293,11.6545 6.54730732,11.9830512 C6.66903171,12.311539 6.81266585,13.1578073 7.94357073,12.9154366 C8.88873415,12.7128902 9.61137561,12.4213732 9.67723171,9.70960488"/>
    <path fill="#389FD6" d="M12.1881341,8.0292439 C10.5931927,8.35823902 10.4835488,7.81823171 10.4835488,7.81823171 C12.1675561,5.31944146 12.871522,2.1476 12.2640098,1.37130976 C10.6066683,-0.746263415 7.73772683,0.255212195 7.68984878,0.281212195 L7.67443902,0.283970732 C7.35933171,0.218558537 7.00668293,0.179590244 6.61034146,0.173121951 C5.88865122,0.161295122 5.34122439,0.362319512 4.92582683,0.677331707 C4.92582683,0.677331707 -0.192082927,-1.43104634 0.0459439024,3.32901463 C0.0965804878,4.34168293 1.49737805,10.9913098 3.16819512,8.98280976 C3.77887805,8.24837317 4.36891951,7.62738537 4.36891951,7.62738537 C4.66199024,7.82206829 5.01283171,7.92137561 5.38063659,7.88570488 L5.40920488,7.86144878 C5.40032683,7.95263902 5.40438537,8.04183171 5.42065122,8.14741707 C4.99022439,8.62832195 5.11670488,8.71275854 4.25626341,8.88987561 C3.3856122,9.06930732 3.89708293,9.38875854 4.23102439,9.4722439 C4.63586341,9.57348537 5.57246585,9.71689756 6.2053122,8.83099512 L6.18007317,8.93207805 C6.34872439,9.06715122 6.46715122,9.81071951 6.44730244,10.4847537 C6.42745366,11.1588195 6.4142,11.6215878 6.54708537,11.9830512 C6.67997073,12.3445146 6.8124122,13.1578073 7.94353902,12.9154366 C8.88870244,12.7128902 9.37848537,12.1880073 9.44662439,11.3124732 C9.49497805,10.6900268 9.6044,10.7820415 9.6113122,10.2255463 L9.69907805,9.96209024 C9.8002878,9.11832683 9.71515366,8.84611951 10.2974585,8.97272683 L10.4389683,8.9851561 C10.8675561,9.0046561 11.4284902,8.91622439 11.7577073,8.76320488 C12.4666195,8.43420976 12.8870585,7.8849122 12.1880707,8.0292439 L12.1881341,8.0292439 Z"/>
    <path stroke="#FFF" stroke-linecap="round" stroke-linejoin="round" stroke-width=".3" d="M6.2738 8.51290732C6.22988537 10.0829268 6.28483415 11.6638854 6.4384561 12.0481146 6.59217317 12.4323439 6.92113659 13.1796854 8.05235854 12.9373463 8.99742683 12.7347366 9.34129268 12.3426439 9.49050732 11.4771927 9.60040488 10.8404463 9.81227317 9.07206585 9.83944634 8.70974634M4.91793171.642263415C4.91793171.642263415-.203465854-1.45092683.0346243902 3.30913415.0852609756 4.32180244 1.48615366 10.9716512 3.15693902 8.9630561 3.76749512 8.22852439 4.31967805 7.65243415 4.31967805 7.65243415M7.68423659.260221951C7.50696098.315804878 10.5330756-.846014634 12.2528488 1.35149268 12.8603293 2.12781463 12.1563634 5.2996561 10.4723878 7.79850976"/>
    <path stroke="#FFF" stroke-linecap="round" stroke-linejoin="bevel" stroke-width=".3" d="M10.4723561,7.79850976 C10.4723561,7.79850976 10.5820951,8.33867561 12.1770683,8.00945854 C12.8758976,7.86512683 12.4553317,8.4144878 11.746578,8.74364146 C11.1649073,9.01359756 9.86081707,9.08278293 9.83950976,8.70974634 C9.7846878,7.74727073 10.525878,8.03967561 10.4723878,7.79850976 C10.4240341,7.58131463 10.0925659,7.36814634 9.87330976,6.83657317 C9.68189268,6.3726 7.24807073,2.81453171 10.5482634,3.34296585 C10.6691634,3.31794878 9.68753659,0.203878049 6.59902195,0.153241463 C3.51120488,0.102604878 3.61250976,3.95057317 3.61250976,3.95057317"/>
    <path stroke="#FFF" stroke-linecap="round" stroke-linejoin="round" stroke-width=".3" d="M5.40939512,8.12766341 C4.97890488,8.60853659 5.1055122,8.69297317 4.24500732,8.87015366 C3.3743561,9.04961707 3.88589024,9.36900488 4.21973659,9.45245854 C4.62457561,9.55376341 5.56117805,9.69717561 6.19402439,8.81105122 C6.38674146,8.54125366 6.19288293,8.11076341 5.92815854,8.00102439 C5.80025122,7.94804146 5.62922195,7.88164634 5.40939512,8.12766341 Z"/>
    <path stroke="#FFF" stroke-linecap="round" stroke-linejoin="round" stroke-width=".3" d="M5.38120732,8.11926098 C5.33783171,7.83652683 5.47410976,7.50008049 5.62015366,7.10646585 C5.83963171,6.51588537 6.34602927,5.92520976 5.94093659,4.05181463 C5.6389878,2.65577317 3.61374634,3.76128049 3.61247805,3.95057317 C3.61124146,4.13980244 3.70408049,4.91003659 3.57864634,5.80697317 C3.41497317,6.97738537 4.3233878,7.9672561 5.3694439,7.86598293"/>
    <path fill="#FFF" fill-rule="nonzero" d="M4.89931951 3.95912109C4.8901878 4.05275558 5.01768293 4.30261594 5.18392439 4.33600106 5.34988049 4.36952396 5.49192927 4.17426459 5.50093415 4.08072194 5.50993902 3.98708745 5.38260244 3.88394715 5.21629756 3.85042426 5.05024634 3.81685544 4.90813415 3.86571621 4.89935122 3.95912109L4.89931951 3.95912109zM9.95422683 3.82731245C9.96323171 3.92095043 9.83589512 4.17082012 9.66962195 4.20420649 9.50353902 4.23773064 9.36149024 4.04246398 9.35239024 3.94891784 9.34360732 3.85527985 9.47097561 3.7521357 9.63709024 3.71861156 9.80320488 3.68508741 9.94522195 3.73390408 9.95422683 3.82735837L9.95422683 3.82731245z"/>
    <path stroke="#FFF" stroke-linecap="round" stroke-linejoin="round" stroke-width=".3" d="M10.6887655,3.34296585 C10.7269755,3.85009268 10.5362357,4.1955122 10.512194,4.73536098 C10.4765963,5.52005366 11.0346031,6.41819512 10.1938073,7.31744634"/>
  </g>
</svg>
