<svg xmlns="http://www.w3.org/2000/svg" width="16" height="16" viewBox="0 0 16 16">
  <g fill="#3592C4" fill-rule="evenodd" transform="translate(1 1)">
    <path d="M5.4236434 1.20523678C5.28031814 1.20523678.538654446-.901152404.776681275 3.85890857.82731786 4.87157686 2.22811542 11.5212037 3.89893249 9.51270369 4.50961542 8.77826711 4.89973404 8.45569591 4.99842834 8.2676239 5.04454149 8.29825624 5.00218763 8.31001046 4.68531799 8 4.39670517 7.71763468 4.28847349 7.3594865 4.20399475 7.14348735 4.1738014 7.06628759 4.13725926 6.81156338 4.141922 6.47666851 4.14575499 6.20136894 4.20782539 5.87189304 4.22436796 5.54232173 4.23984409 5.23399647 4.2046404 4.9255877 4.20399475 4.661377 4.20330583 4.3794587 4.25137139 3.08654822 4.55892527 2.46297363 4.69935867 2.17824074 4.83519327 1.9039875 4.99842834 1.68439792 5.22813326 1.37539077 5.46400404 1.17462973 5.4236434 1.20523678zM13.092453 8.67625427C12.5421413 8.7315042 12.1698584 8.74978604 11.9756042 8.73109979 11.5579898 8.69092745 11.3065576 8.50497719 11.2213078 8.49453198 11.0225261 8.47017633 10.8355895 8.68017244 10.8032481 8.73109979 10.7250893 8.85417499 10.6069392 9.20788713 10.8032481 9.36300484 11.0603874 9.56618904 11.6891143 9.55308763 11.9620514 9.48834567 12.4790576 9.3657094 12.8558581 9.09501227 13.092453 8.67625427zM12.8729551 4.1985943C12.975287 3.77181316 13.0966383 3.17108283 13.0448496 2.66059799 13.0030802 2.24887393 12.8139979 1.8958545 12.6794083 1.74014957 12.5703931 1.61403135 12.0021732 1.0586089 11.3888881.825878308 10.7412826.58012378 10.0434269.660549263 9.78295137.679331915 9.52698177.697789647 9.21806234.746638445 8.85619306.825878308 9.36012412 1.08682202 9.70675083 1.29314799 9.8960732 1.44485622 10.1741066 1.66765055 10.6434111 2.12849219 10.9475741 2.5925049 11.3476048 3.20276779 11.5205392 4.03045283 11.5325157 4.09812827 11.5756826 4.34205254 11.3986986 4.96272047 11.387498 5.23135243 11.3732312 5.57352446 11.4646229 6 11.5325157 6.4121807 11.5577641 6.56546517 11.5726462 6.90416797 11.4646229 7.23214151 11.4120557 7.39174286 11.2865915 7.60582007 11.0882304 7.87437313L11.2015348 8.02520591C11.5537473 7.49657138 11.8675326 6.92984363 12.1428908 6.32502266 12.52249 5.49123788 12.7812056 4.58124066 12.8729551 4.1985943zM6.86703699 9.10148022C6.86703699 8.82533784 6.71405436 8.63119507 6.43791199 8.63119507 6.29430266 8.63119507 5.94503024 9.02102083 5.69516769 9.19171364 5.4645765 9.34924128 4.59491902 9.61123579 4.65742493 9.67019653 4.7071717 9.7171218 5.1787698 9.95040234 5.62105094 9.93232727 5.71762363 9.92838055 6.17404053 9.88367878 6.47125932 9.70217382 6.74620521 9.53427042 6.86703699 9.23417665 6.86703699 9.10148022z"/>
    <path d="M6,8.25676141 C5.67048534,8.21293458 5.44104677,8.15883826 5.31168427,8.09447246 C4.95581023,7.91740323 4.71898722,7.60785431 4.60121523,7.3359897 C4.4556642,7 4.4487637,7 4.4487637,6.71046433 C4.4487637,6.48244305 4.4487637,6.5 4.5,6.05825086 C4.51171938,5.95720873 4.52300566,5.61730915 4.52300566,5.04591563 C4.52300566,4.94064908 4.51533711,4.76488386 4.5,4.51861996 C5.07442933,4.12872276 5.58856454,3.97528726 6.04240562,4.05831345 C6.34997859,4.11458119 6.44978518,4.37833067 6.5,4.48092938 C6.70911551,4.90819333 6.65624522,5.35868541 6.65624522,6 C6.65624522,6.45041085 6.5,7 6.29514762,7.36904917 C6.20514651,7.53118951 6.10676397,7.8270936 6,8.25676141 Z M5.89946966,5.08283675 C6.06542576,5.11635964 6.20747454,4.92110027 6.21647942,4.82755762 C6.2254843,4.73392313 6.09814771,4.63078283 5.93184283,4.59725994 C5.76579161,4.56369112 5.62367942,4.61255189 5.61489649,4.70595677 C5.60573308,4.79959126 5.7332282,5.04945162 5.89946966,5.08283675 Z"/>
    <path d="M6.54152124,7.56566417 C6.45765219,7.7103297 6.43362621,7.86107425 6.38311213,8.01789783 C6.35932556,8.09174445 6.31757773,8.18555146 6.25786863,8.29931886 C6.43122749,8.32598897 6.55223015,8.34598477 6.62087661,8.35930625 C6.80452192,8.39494432 6.92980652,8.49132478 6.96352331,8.55495705 C7.14188596,8.89157325 7.11231242,9.08076209 7.12580674,9.32159498 C7.13930105,9.56242787 7.07940945,11.6863752 7.22404759,12.2311736 C7.27233487,12.4130539 7.3201772,12.5886623 7.40374756,12.7373749 C7.53027922,12.9625368 7.6956195,13.1260424 7.72716218,13.1563089 C7.86258103,13.2862487 8.28661147,13.5427119 8.72573187,13.4596981 C8.95327939,13.4166813 9.44427785,13.1625375 9.73278296,12.7373749 C10.0572122,12.2592718 10.169555,11.4541712 10.2124553,11.1403086 C10.3339801,10.2512228 10.4033188,9.34642408 10.4083473,9.28352395 C10.4198581,9.13953841 10.4462158,8.7689481 10.639305,8.51425171 C10.6984575,8.43622602 10.8316714,8.36458173 11.0389466,8.29931886 C10.8212856,8.0165803 10.677802,7.81935425 10.608496,7.70764071 C10.3322254,7.26232369 10.05162,6.66115038 9.98064679,6.52432716 C9.85486081,6.28183493 9.78258048,6.10741241 9.73278296,6 C9.5,5.49789106 9.39849918,4.75355105 9.41256099,4.64915491 C9.5,4 9.90761065,3.75331636 10.3291141,3.68994777 C10.5079022,3.66306887 10.7715294,3.66306887 11.1199956,3.68994777 C10.9683304,3.33728646 10.8526905,3.09004719 10.7730759,2.94822996 C10.5704328,2.58726275 10.3551883,2.32567187 10.2124553,2.16345731 C9.77387337,1.66501365 9.2256898,1.32349975 8.77798114,1.13891561 C8.30356978,0.943322323 7.80333801,0.803386248 7.33181556,0.803386248 C6.63499743,0.803386248 6.05804353,1.01493129 5.6233828,1.37946631 C5.02453212,1.8817018 4.74874372,2.68125945 4.69577877,3 C4.69577877,3 4.6213486,3.23650459 4.57377894,3.49475983 C4.54028132,3.67661807 4.51568834,3.88931114 4.5,4.13283902 C4.82080162,3.9819789 5.04314965,3.88681266 5.16704409,3.84734028 C5.53505795,3.73009223 5.7599542,3.73873845 5.84161643,3.73598054 C6.16569481,3.72503575 6.72779558,4.03300072 6.81261219,4.48736024 C6.85052414,4.69045318 6.98331957,5.68807232 6.96352331,5.91739914 C6.94870072,6.0891093 6.95173595,6.37680938 6.88586976,6.68495677 C6.82082627,6.98925521 6.68771588,7.31349335 6.54152124,7.56566417 Z"/>
    <path d="M10.920572,7.62457739 C10.8680432,7.66588645 10.5410786,6.97956189 10.2667939,6.38694718 C10.1209104,6.0717538 9.98992924,5.76959705 9.92306745,5.64728152 C9.88139965,5.57105535 9.76449352,5.26073113 9.72520696,4.96653996 C9.69225213,4.71976289 9.72880899,4.48433768 9.76524492,4.4079597 C9.83935875,4.25260025 9.99675249,4.12436681 10.0482004,4.09534395 C10.2114769,4.00323606 10.4100814,3.97421928 10.5,3.97421928 C10.5461226,3.97421928 10.6562636,3.96126555 10.8304232,3.97421928 C10.910013,3.98013905 11.0594797,3.99853904 11.2788235,4.02941924 C11.2613625,4.22018216 11.2445672,4.35667691 11.2284377,4.43890349 C11.1824107,4.67354457 11.1181234,4.86057674 11.1181234,5 C11.1181234,5.10135041 11.0798654,5.2542953 11.0902494,5.43648524 C11.0957199,5.53246801 11.1435991,5.77350773 11.1555916,5.90226024 C11.1786932,6.15028126 11.2571842,6.63056617 11.2284377,6.83368646 C11.1996912,7.03680674 11.0010393,7.56129733 10.920572,7.62457739 Z M10.7533779,4.59857465 L10.7533779,4.59862058 C10.7443731,4.50516628 10.602356,4.45634962 10.4362413,4.48987376 C10.2701267,4.52339791 10.1427584,4.62654206 10.1515413,4.72018004 C10.1606413,4.81372618 10.3026901,5.00899284 10.4687731,4.9754687 C10.6350462,4.94208233 10.7623828,4.69221264 10.7533779,4.59857465 Z"/>
  </g>
</svg>
