<svg xmlns="http://www.w3.org/2000/svg" width="16" height="16" viewBox="0 0 16 16">
  <g fill="none" fill-rule="evenodd" transform="translate(1 2)">
    <g transform="translate(.143)">
      <circle cx="7.603" cy=".709" r="1" fill="#1EDCFF"/>
      <circle cx="9.37" cy="2.475" r="1" fill="#1EDCFF"/>
      <circle cx="11.136" cy="4.242" r="1" fill="#1EDCFF"/>
      <circle cx="12.903" cy="6.009" r="1" fill="#1EDCFF"/>
      <circle cx="4.07" cy=".709" r="1" fill="#5890FF"/>
      <circle cx="5.836" cy="2.475" r="1" fill="#5890FF"/>
      <circle cx="7.603" cy="4.242" r="1" fill="#5890FF"/>
      <circle cx="9.37" cy="6.009" r="1" fill="#5890FF"/>
      <circle cx="11.136" cy="7.775" r="1" fill="#5890FF"/>
      <circle cx=".536" cy=".708" r="1" fill="#0F2648"/>
      <circle cx="2.303" cy="2.475" r="1" fill="#0F2648"/>
      <circle cx="4.07" cy="4.242" r="1" fill="#0F2648"/>
      <circle cx="5.836" cy="6.009" r="1" fill="#0F2648"/>
      <circle cx="7.603" cy="7.775" r="1" fill="#0F2648"/>
      <circle cx="9.37" cy="9.542" r="1" fill="#0F2648"/>
    </g>
    <g fill="#1EDCFF" transform="translate(0 7.143)">
      <circle cx="4.213" cy=".632" r="1"/>
      <circle cx="2.446" cy="2.399" r="1"/>
      <circle cx=".679" cy="4.166" r="1"/>
      <circle cx="4.213" cy="4.166" r="1"/>
      <circle cx="7.746" cy="4.166" r="1"/>
      <circle cx="5.979" cy="2.399" r="1"/>
    </g>
  </g>
</svg>
