<svg xmlns="http://www.w3.org/2000/svg" width="16" height="16" viewBox="0 0 16 16">
  <g fill="none" fill-rule="evenodd">
    <g fill="#40B6E0" transform="translate(8 1)">
      <rect width="2" height="5" x="1" rx="1"/>
      <rect width="2" height="5" x="2.231" y=".637" rx="1" transform="rotate(55 3.231 3.137)"/>
    </g>
    <g fill="#40B6E0" transform="translate(2 1)">
      <rect width="2" height="5" x="3" rx="1"/>
      <rect width="2" height="5" x="1.776" y=".639" rx="1" transform="rotate(-55 2.776 3.139)"/>
    </g>
    <g fill="#40B6E0" transform="rotate(-62 7.595 5.583)">
      <rect width="2" height="5" x="3" rx="1"/>
      <rect width="2" height="5" x="1.776" y=".639" rx="1" transform="rotate(-55 2.776 3.139)"/>
    </g>
    <g fill="#40B6E0" transform="scale(-1 1) rotate(-62 -.387 18.867)">
      <rect width="2" height="5" x="3" rx="1"/>
      <rect width="2" height="5" x="1.776" y=".639" rx="1" transform="rotate(-55 2.776 3.139)"/>
    </g>
    <g fill="#40B6E0" transform="translate(2 9)">
      <rect width="2" height="5" x="3" y="1" rx="1"/>
      <rect width="2" height="5" x="1.771" y=".362" rx="1" transform="rotate(55 2.77 2.862)"/>
    </g>
    <g fill="#40B6E0" transform="translate(8 9)">
      <rect width="2" height="5" x="1" y="1" rx="1"/>
      <rect width="2" height="5" x="2.236" y=".361" rx="1" transform="rotate(-55 3.236 2.861)"/>
    </g>
    <rect width="3" height="3" x="6.502" y="6.498" fill="#40B6E0" rx=".5"/>
  </g>
</svg>
