<svg xmlns="http://www.w3.org/2000/svg" width="16" height="16" viewBox="0 0 16 16">
  <path fill="#E25A1C" d="M4.85717552,10.9755931 L1.36118593,8.79422708 C1.03319749,8.58957464 0.933213917,8.15778389 1.13786636,7.82979545 C1.22089771,7.69672437 1.34621578,7.59539555 1.49372034,7.5420615 L5.35871207,6.14457467 L6.35203141,2.29609983 C6.44864909,1.92176834 6.83042882,1.69663682 7.2047603,1.7932545 C7.34648587,1.8298349 7.47317931,1.90992177 7.56702158,2.02225115 L10.1780322,5.14763599 L14.3157683,4.89297818 C14.7016375,4.86922978 15.0336982,5.1627867 15.0574466,5.54865591 C15.0669319,5.70277605 15.0251917,5.85570771 14.9387249,5.98363923 L12.6549993,9.36251244 L14.287055,13.1466289 C14.4401591,13.5016192 14.276498,13.9135112 13.9215077,14.0666154 C13.7749207,14.1298371 13.6111274,14.141055 13.4572897,14.0984088 L9.36652905,12.964388 L6.17575627,15.5756222 C5.87657256,15.8204653 5.43555169,15.7764135 5.19070858,15.4772298 C5.09488522,15.3601393 5.03957922,15.2151534 5.03307559,15.0639912 L4.85717552,10.9755931 Z M6.43985958,10.0009309 L6.61901779,13.100382 L9.01421129,11.0738468 L12.0701029,11.8624081 L10.8498801,8.99938899 L12.5593667,6.38729562 L9.41003405,6.64438771 L7.41066331,4.24146386 L6.6844915,7.26337464 L3.73932577,8.3903794 L6.43985958,10.0009309 Z" transform="rotate(-9 1.692 8.252)"/>
</svg>
