<svg xmlns="http://www.w3.org/2000/svg" width="16" height="16" viewBox="0 0 16 16">
  <g fill="none" fill-rule="evenodd" transform="translate(2 1)">
    <path fill="#0F80CC" fill-rule="nonzero" d="M9.82918868,0.619542264 L1.06765409,0.619542264 C0.480446541,0.619542264 0,1.10007686 0,1.68726239 L0,11.3495957 C0,11.9367478 0.480446541,12.4172058 1.06765409,12.4172058 L6.83822956,12.4172058 C6.77273192,9.54595459 7.75322633,3.97374609 9.82918868,0.619542264 Z"/>
    <path fill="#FFF" d="M9.82918868,0.619542264 C9.72275786,0.714086289 9.61654717,0.818976226 9.51088679,0.931020252 C8.28423585,2.23229384 7.14563522,4.64267119 6.79189308,6.48347308 C6.92969182,6.76292277 7.03733333,7.11952654 7.10821384,7.3919322 C7.12637421,7.46182214 7.14277358,7.52741962 7.15587107,7.58322151 C7.18701887,7.71528597 7.20374843,7.80092591 7.20374843,7.80092591 C7.20374843,7.80092591 7.19274214,7.75931113 7.14761635,7.62845736 C7.13903145,7.60336302 7.12945597,7.57595736 7.1181195,7.54370893 C7.11327673,7.53039132 7.10656289,7.51421208 7.09918868,7.4969322 C7.01917296,7.31092591 6.79783648,6.91833157 6.70043082,6.7474039 C6.61711321,6.99317434 6.54348113,7.22309572 6.48184591,7.43111459 C6.7630566,7.9456366 6.93442453,8.82739447 6.93442453,8.82739447 C6.93442453,8.82739447 6.91956604,8.77024981 6.84890566,8.57080528 C6.78616981,8.39440704 6.47370126,7.8469322 6.39968396,7.71894006 C6.27306761,8.1863556 6.22275786,8.50192792 6.26812579,8.57876239 C6.35620912,8.72764491 6.44009906,8.9845317 6.51376415,9.26862604 C6.68017925,9.90863031 6.79585535,10.687755 6.79585535,10.687755 C6.79585535,10.687755 6.79959748,10.739385 6.80587107,10.8188399 C6.78275786,11.356299 6.79662579,11.913536 6.83822956,12.4172058 C6.89337107,13.0839448 6.99716038,13.6567015 7.12945597,13.9632372 L7.2192673,13.9142707 C7.02500629,13.3103442 6.94609119,12.5188819 6.98065094,11.6061303 C7.03293082,10.2109625 7.35398428,8.52845308 7.94722327,6.77480956 C8.94945597,4.12757686 10.3399906,2.00358314 11.6126478,0.989243522 C10.452695,2.03682214 8.88275786,5.42774981 8.41278931,6.68345736 C7.88657862,8.08962088 7.51368553,9.40917635 7.28893711,10.6734353 C7.67668868,9.48820151 8.93041509,8.97873094 8.93041509,8.97873094 C8.93041509,8.97873094 9.54533648,8.22036503 10.2639371,7.13691648 C9.83348113,7.23509258 9.12665723,7.40315862 8.88991195,7.50265547 C8.54068239,7.64914918 8.44657862,7.69911774 8.44657862,7.69911774 C8.44657862,7.69911774 9.57780503,7.01023409 10.5483396,6.69831585 C11.8830723,4.59611459 13.3372233,1.60966805 11.8728365,0.303331572 C11.2727736,-0.231794214 10.5462484,-0.0168413836 9.82918868,0.619542264 Z"/>
  </g>
</svg>
