<svg xmlns="http://www.w3.org/2000/svg" width="16" height="16" viewBox="0 0 16 16">
  <g fill="none" fill-rule="evenodd" transform="translate(2.013 1.013)">
    <path fill="#6E6E6E" d="M8.06128974 6.52485602L5.26392695 7.43829394 2.83026032 8.5123974 2.14940621 8.69214429C1.97600676 8.85708047 1.79419281 9.02413246 1.59754864 9.19328077 1.38188162 9.37933611 1.18101556 9.54851366 1.02663897 9.67112376.855384595 9.80645801.601652382 10.0601805.472685084 10.220846.280262796 10.4618833.128031268 10.7177216.0624799608 10.9143853-.0538216891 11.2696182.00329560343 11.6290535.227416137 11.9610416.514972162 12.3839026 1.08798789 12.8152269 1.75611786 13.1091304 2.09655955 13.2592851 2.66955578 13.4516782 3.10088007 13.559497 3.81764456 13.74135 5.20471334 13.9379942 5.96799655 13.9676156 6.12232439 13.9739533 6.32955739 13.9739533 6.33799141 13.9676156 6.35492769 13.9570073 6.47333541 13.7307904 6.61079522 13.4495916 7.08019445 12.491741 7.41849107 11.5931138 7.60243059 10.825599 7.71237504 10.3604509 7.79905526 9.74091645 7.8561238 9.00724493 7.87095402 8.80213749 7.87727222 8.11495542 7.86458707 7.88235212 7.84554472 7.50176843 7.81171116 7.19308349 7.75889375 6.89071675 7.75043048 6.84630411 7.74828542 6.8061231 7.75253655 6.80401703 7.76097057 6.79767933 7.78634086 6.78922582 8.13099468 6.68982145L8.06125074 6.52492427 8.06125074 6.52487552 8.06128974 6.52487552 8.06128974 6.52485602zM7.4227422 6.89913127C7.4481125 6.89913127 7.51575037 7.54823839 7.5326574 7.95846301 7.53690853 8.04514323 7.53476347 8.10223128 7.53055133 8.10223128 7.51365405 8.10223128 7.17321237 7.90138472 6.93009824 7.74915319 6.71864335 7.61593476 6.316921 7.34950765 6.25349526 7.29876706 6.23230784 7.28397585 6.23441391 7.28186978 6.4078231 7.22264642 6.70169732 7.1232518 7.39948772 6.89913127 7.4227422 6.89913127zM5.99762773 7.36854025C6.01667007 7.36854025 6.0652656 7.39599711 6.18156725 7.46790562 6.61712317 7.74066068 7.20918125 8.07052328 7.46290371 8.18048723 7.54112067 8.21431104 7.54955468 8.20160639 7.36986629 8.32426524 6.98504121 8.58644122 6.5050434 8.84438557 5.91723645 9.10446523 5.8136492 9.15098394 5.72696898 9.18691382 5.72486292 9.18691382 5.72065078 9.18691382 5.73329693 9.13408666 5.75019421 9.07064142 5.89186616 8.54411514 5.97222818 8.01129992 5.97647931 7.58418777 5.97858538 7.37273288 5.97858538 7.37273288 5.99762773 7.36642443 5.99337659 7.36854025 5.99548266 7.36854025 5.99762773 7.36854025zM5.703734 7.48059077C5.71638015 7.49325641 5.70794613 7.96690678 5.6910196 8.09587408 5.65296416 8.40458826 5.5937603 8.69213454 5.49653025 9.01566919 5.47326602 9.09384715 5.45208835 9.15943745 5.44790547 9.16364959 5.43940321 9.17420917 5.14973137 8.89088478 5.05458788 8.78094033 4.8896517 8.59063385 4.76070391 8.40033713 4.66555067 8.21428179 4.61691614 8.11912856 4.54081501 7.93308297 4.54714295 7.92672577 4.58096677 7.90347129 5.69527074 7.472147 5.703734 7.48059077zM4.3208871 8.02398507C4.32299317 8.02398507 4.32509924 8.02398507 4.3272443 8.02609114 4.33145644 8.03032277 4.34628665 8.06416608 4.3589718 8.10221177 4.42660967 8.2861708 4.5788217 8.55681004 4.70995356 8.73019973 4.85373158 8.92050621 5.04193198 9.12346858 5.19835614 9.25667726 5.24912599 9.29896433 5.29561544 9.33912584 5.30194339 9.34548304 5.31465779 9.35817794 5.31887967 9.35604262 4.97421611 9.48715499 4.57463882 9.63938652 4.1390439 9.79161804 3.64003299 9.95230309 3.5208303 9.99073403 3.40173634 10.0295014 3.28275252 10.0686047 3.26369068 10.0749619 3.27004788 10.0643731 3.3250201 9.97770263 3.57239511 9.59075199 3.94874718 8.83169067 4.16020206 8.29462431 4.19615144 8.20158689 4.23209107 8.10856897 4.23844827 8.08742056 4.24691153 8.05779913 4.25746136 8.04723955 4.28493773 8.03242883 4.29973869 8.0282362 4.31455916 8.02398507 4.3208871 8.02398507zM3.89804558 8.19948083C3.90437353 8.20373196 3.79653515 8.42994881 3.69081258 8.63716231 3.48570514 9.0367786 3.26158461 9.43008645 2.96134344 9.90792944 2.91060284 9.99037803 2.86198782 10.0665182 2.85563062 10.0749717 2.84507104 10.0897824 2.8408199 10.0855313 2.80699609 10.0199995 2.73510709 9.87832752 2.67588373 9.69647456 2.64417573 9.52943232 2.61244824 9.36449614 2.61880544 9.07695962 2.65476457 8.89935779 2.68222143 8.76827468 2.68013486 8.77039049 2.7435606 8.738663 3.01419985 8.60123244 3.88958232 8.19102731 3.89804558 8.19948083zM7.5453718 8.34750997L7.5453718 8.43630601C7.5453718 8.90782106 7.49463121 9.55482211 7.42059713 10.0263567 7.40791199 10.1088052 7.39730365 10.1764431 7.39522684 10.1785882 7.39522684 10.1785882 7.33391691 10.1616909 7.26202791 10.1405132 6.9448797 10.0411284 6.60022589 9.89523455 6.28939588 9.72399967 6.08426894 9.61192965 5.78616309 9.42795113 5.79463611 9.41948787 5.79671292 9.41739155 5.88553821 9.37087284 5.98912546 9.31589086 6.40360122 9.1002336 6.80107244 8.8676498 7.14572626 8.63718181 7.27471306 8.55048209 7.46920241 8.41095521 7.51153824 8.37288027L7.5453718 8.34750997zM2.30163773 8.97333336C2.31009125 8.97333336 2.30797543 8.99025014 2.29529028 9.06637078 2.28682702 9.12136251 2.27626744 9.22285344 2.27206506 9.29259738 2.25510927 9.60131157 2.30588887 9.82968324 2.45812039 10.1425998 2.50040747 10.2292995 2.53426053 10.3011885 2.53211547 10.3032849 2.51730475 10.3159895 1.11759957 10.7262044.677773021 10.8467084.546689907 10.8826383.432533324 10.9143658.424031058 10.9164523.409259344 10.9207035.407133777 10.9185974.413471476 10.8826188.462096252 10.5718278.698921435 10.1658543 1.02875479 9.82330654 1.24866319 9.59496412 1.4241687 9.46176519 1.72440987 9.29047182 1.94007689 9.16786172 2.2720358 8.98393195 2.2974061 8.97544918 2.2974256 8.97333336 2.29953167 8.97333336 2.30163773 8.97333336zM5.6001175 9.56325613C5.60222357 9.56115006 5.65296416 9.58865567 5.71427408 9.62458555 6.16676628 9.88678103 6.79685056 10.1299439 7.33387791 10.2546796L7.38254169 10.2652684 7.31486482 10.3032849C7.03366599 10.4597675 6.10966849 10.8445731 5.16455183 11.1976999 5.02709202 11.248421 4.89178702 11.2991909 4.86637772 11.3097504 4.84100743 11.32031 4.8177432 11.3266672 4.8177432 11.3245612 4.8177432 11.3224161 4.85582789 11.248421 4.90442342 11.1575189 5.16872496 10.6627494 5.43516182 10.0601512 5.57047657 9.64149258 5.58743235 9.60132132 5.59797243 9.56539144 5.6001175 9.56325613zM5.26392695 9.67322008C5.26607202 9.6753749 5.24913574 9.71973879 5.22797757 9.77047938 5.04403805 10.2166144 4.80296173 10.7029596 4.4942768 11.24846 4.41605984 11.3880259 4.35049878 11.5000959 4.34835372 11.5000959 4.3462769 11.5000959 4.28282191 11.4620112 4.20671102 11.4155023 3.75843095 11.1406216 3.36094023 10.802325 3.10088982 10.474588L3.06281487 10.4280693 3.25520791 10.3752031C3.94451554 10.1870417 4.53017742 9.98405983 5.11166617 9.734569 5.19414401 9.70072569 5.26182088 9.67322008 5.26392695 9.67322008zM7.35295926 10.4026892C7.35295926 10.4026892 7.35507508 10.404805 7.35295926 10.4026892 7.35506533 10.4513237 7.24722694 10.8868992 7.15841141 11.2019121 7.08441633 11.4662136 7.02095159 11.6734466 6.90468894 12.0392098 6.85394835 12.1999436 6.80957471 12.3331133 6.80742964 12.3331133 6.80532357 12.3331133 6.79263843 12.3310072 6.77995328 12.3268049 6.15198482 12.2125898 5.58954817 12.0540205 5.06094508 11.8425949 4.91291593 11.7833716 4.7014903 11.6882183 4.68880515 11.6776587 4.68459302 11.6733881 4.811464 11.6142232 4.97214904 11.5444403 5.93420199 11.1236756 6.93219456 10.6458131 7.27471306 10.4407447 7.31487457 10.4153646 7.34660206 10.4026892 7.35295926 10.4026892zM2.5300094 10.5676254C2.53424103 10.5718375 2.26570786 10.9587882 1.88932654 11.4852657 1.75824343 11.6692247 1.6060119 11.884882 1.54893361 11.9652245 1.49183582 12.0455768 1.4051556 12.1724478 1.35652107 12.2485684L1.26767628 12.3860087 1.17252305 12.3056662C1.06045303 12.2126093.865953927 12.0138688.779263956 11.9039146.597410999 11.6776977.474800901 11.4387665.426166375 11.2210032.402902144 11.1194927.402902144 11.0687229.424021307 11.0624144.455729302 11.0539609 1.02028177 10.9207425 1.54891411 10.7980836 1.84281758 10.7304458 2.18321052 10.6501032 2.30584987 10.6205013 2.42849896 10.5908506 2.52790333 10.5676254 2.5300094 10.5676254zM2.80063889 10.6712321L2.86827677 10.747343C3.17278857 11.0877652 3.48359908 11.3394206 3.85996089 11.5592705 3.92763776 11.5973552 3.9783686 11.6311595 3.97411747 11.6333143 3.95935551 11.6438739 2.66742046 12.1026551 2.06905393 12.3098783 1.73288288 12.4282763 1.45587669 12.5234198 1.45379012 12.5234198 1.45168406 12.5234198 1.43264171 12.5107541 1.41146405 12.4959434L1.3734281 12.4684476 1.43473803 12.3796613C1.63347851 12.0920955 1.8830181 11.7770631 2.4264124 11.1215988L2.80063889 10.6712321zM4.4879586 11.8785345C4.49003541 11.8764382 4.58307283 11.9102425 4.69723917 11.9525784 4.97214904 12.0561656 5.18989288 12.1216974 5.48170978 12.195712 5.84116457 12.2866433 6.36129464 12.3754491 6.66790276 12.4008097 6.71442147 12.4050218 6.73979177 12.4092729 6.7313285 12.4156204 6.71649829 12.4240837 6.40571703 12.5276904 6.17735512 12.5995794 5.8136492 12.713736 4.70360612 13.0414633 3.79865096 13.3015527 3.63160872 13.3501775 3.48782096 13.3903585 3.47936744 13.3924548 3.45824828 13.3967059 3.38844584 13.3776441 3.38844584 13.3691906 3.38844584 13.3649882 3.43918643 13.2994466 3.50051586 13.2275479 3.80496916 12.8638615 4.1073554 12.4579075 4.3589718 12.0730824 4.42872549 11.9673306 4.4879586 11.8806504 4.4879586 11.8785345zM4.11578942 11.8891331C4.11789548 11.8912392 3.96778952 12.1322668 3.70563305 12.546684 3.59354353 12.7221798 3.46878836 12.92093 3.42437572 12.9907129 3.38208864 13.0583703 3.3186629 13.1641124 3.28273302 13.2232967L3.2214036 13.3311449 3.1896956 13.3226816C3.11355546 13.3015332 2.57862443 13.1133328 2.43695248 13.0562545 2.26144697 12.9864716 2.07961352 12.9019169 1.94427927 12.8300279 1.77515046 12.7390965 1.56372482 12.6037623 1.58062211 12.5995599 1.58484399 12.5974539 1.87452558 12.5191881 2.22338178 12.4240642 3.14950484 12.1724185 3.66328747 12.0265442 3.99950727 11.9208314 4.06083669 11.9017988 4.11368335 11.8869881 4.11578942 11.8891331zM6.74822578 12.506503L6.75033185 12.506503C6.75879511 12.5276709 6.41628636 13.4791448 6.29148245 13.7793762 6.26403534 13.8470336 6.25349526 13.8639796 6.23866504 13.8618248 6.20271566 13.859748 5.70584982 13.789965 5.40345383 13.7455524 4.87699581 13.6652099 3.99315982 13.5108333 3.77116485 13.4601122L3.72042426 13.4495526 4.0354274 13.3776148C4.71205963 13.2253833 5.0376711 13.1429347 5.36750445 13.0414438 5.78405702 12.9145826 6.19638771 12.7559938 6.61290129 12.561485 6.67844284 12.5318733 6.73342482 12.5086188 6.74822578 12.506503zM5.17724673.00403662668C5.13072802-.0022718213 4.38009096.268367422 3.89591027.464982343 3.24254226.731428955 2.73511684.985170918 2.42217102 1.20502082 2.30589862 1.28751816 2.15997554 1.43339248 2.13675031 1.49047078 2.12829679 1.51161919 2.12404566 1.53698949 2.12404566 1.56235978L2.40738955 1.83089296 3.08186697 2.04655998 4.68670883 2.33412575 6.52198943 2.64917764 6.54103178 2.49059866C6.53470383 2.49059866 6.5304527 2.4884926 6.52416375 2.4884926L6.28305818 2.45041765 6.23446266 2.36373743C5.98495233 1.92393038 5.71008145 1.37841051 5.54939641 1.01050221 5.42466074.725052255 5.30624328.395238404 5.24068222.158413222 5.20473284.0146352093 5.20052071.006181694 5.17729548.00407562791L5.17729548.00402687638 5.17724673.00402687638 5.17724673.00403662668zM5.14337417.111904262L5.14554848.111904262C5.1476253.113990827 5.15608857.173233687 5.16456158.242967875 5.20047196.539026166 5.26607202.824427373 5.36965927 1.13314156 5.44787622 1.36573511 5.44787622 1.35305971 5.35697412 1.3255541 5.1413071 1.26636974 4.17503228 1.0993275 3.47516506 1.0020682 3.36309505.987257483 3.26794181.972466269 3.26794181.970360203 3.25948829.961906688 3.77327092.69335401 3.99951702.587660693 4.28918886.454422761 5.08419956.122463843 5.14337417.111904262zM3.10510195 1.05914649L3.18759929 1.08660335C3.63582085 1.23886413 4.76277097 1.4545409 5.38444073 1.50528149 5.45419442 1.51162894 5.51342753 1.51798614 5.51550435 1.51798614 5.51761041 1.52009221 5.45844555 1.55180995 5.38230541 1.58773983 5.08209349 1.73786529 4.75223089 1.92182431 4.52386897 2.06349626 4.4562311 2.10576384 4.39488218 2.1396169 4.38644816 2.1396169 4.3779849 2.1396169 4.3336015 2.13115363 4.28708279 2.12480618L4.20250864 2.11210153 3.99109275 1.90487828C3.61895282 1.54333694 3.32715542 1.26424418 3.2150854 1.15850211L3.10510195 1.05914649zM3.02055705 1.1246783L3.3186824 1.49682798C3.48147351 1.70192566 3.64639994 1.90278197 3.68237857 1.94716536 3.71828894 1.9915975 3.74791037 2.02755663 3.74580431 2.0296627 3.73734104 2.0360004 3.31448977 1.95352256 3.09033024 1.90280147 2.85986225 1.84992556 2.76471877 1.82455526 2.62305657 1.78017187L2.50675492 1.74209692 2.50675492 1.71247549C2.50886099 1.57080355 2.68860788 1.35937791 2.99307093 1.14373039L3.02055705 1.1246783zM5.55359879 1.63214272C5.56207181 1.63214272 5.57261189 1.65116557 5.59798218 1.70825361 5.66987119 1.86682284 5.89404047 2.29395449 5.94896395 2.37640308 5.96592948 2.40391844 5.99548266 2.40602451 5.69738655 2.35738998 4.98062206 2.24106883 4.75012482 2.20305239 4.75012482 2.19882076 4.75012482 2.19671469 4.77127324 2.18190398 4.79875935 2.16709326 5.02078357 2.04448316 5.24489435 1.8880005 5.44366409 1.72095826 5.49229862 1.68077725 5.53670151 1.6427218 5.54513553 1.6363646 5.54724159 1.63214272 5.55149272 1.63003666 5.55359879 1.63214272z"/>
    <path fill="#DB5860" d="M2.15150252,1.46086885 C2.15150252,1.46086885 2.10501306,1.53490292 2.14940621,1.64485712 C2.17692157,1.71249499 2.25725434,1.79494358 2.34815644,1.87953724 C2.34815644,1.87953724 3.28906097,2.79717753 3.40324681,2.9282899 C3.92336713,3.52876249 4.14962298,4.12080107 4.17077139,4.93696994 C4.18345654,5.4613414 4.08405217,5.92227736 3.83668691,6.4572279 C3.39688961,7.41717478 2.46865072,8.47649677 1.0372083,9.65211067 L1.24656687,9.58232773 C1.38188162,9.48081729 1.56584064,9.37301791 1.99716493,9.13619272 C2.99303193,8.5906436 4.1136736,8.08953638 5.48804748,7.57362819 C7.46707684,6.82933858 10.721183,5.95818774 12.5733608,5.6748926 L12.7658026,5.64527117 L12.7361812,5.59875246 C12.5670621,5.33655698 12.4507312,5.17376587 12.3111654,5.00038593 C11.9052309,4.49715314 11.4126064,4.08909308 10.8099693,3.75077696 C9.98112499,3.28774468 8.9090886,2.92618383 7.55168025,2.65765066 C7.29584197,2.60688081 6.73340532,2.50963126 6.27670098,2.43985807 C5.30829084,2.28977161 4.68242845,2.18614536 3.99315007,2.06773764 C3.74578481,2.02543106 3.37573144,1.96201507 3.13046249,1.90916842 C3.00360126,1.88165305 2.76046763,1.82457476 2.57017091,1.7590332 C2.41793938,1.6998001 2.19802123,1.64059624 2.15150252,1.46086885 Z M2.69705164,1.98949144 C2.69913821,1.98740487 2.73296202,2.00005102 2.77739416,2.01486173 C2.85773669,2.04231859 2.96133369,2.07404609 3.08400229,2.10789915 C3.17680288,2.13342486 3.26983779,2.15809095 3.36309505,2.18189423 C3.48995628,2.21359247 3.59565934,2.24320415 3.59776541,2.24320415 C3.61259563,2.25801486 3.82615658,2.94091655 3.89804558,3.20311202 C3.9254927,3.30251639 3.94668011,3.38707105 3.94456429,3.38707105 C3.94238998,3.38921612 3.91916475,3.35324724 3.89168838,3.30462246 C3.64429387,2.86904704 3.25313109,2.42714367 2.80063889,2.07191077 C2.74146429,2.0296627 2.69705164,1.9915975 2.69705164,1.98949144 Z M3.73733129,2.27704746 C3.74791037,2.27704746 3.79442908,2.28339491 3.85148787,2.29607031 C4.21094265,2.37641283 4.85584739,2.49905218 5.26813908,2.56883512 C5.33792202,2.5793947 5.39291375,2.5921091 5.39291375,2.59631148 C5.39291375,2.60056261 5.3675142,2.61533433 5.33578671,2.63227061 C5.26604277,2.66820049 4.98480494,2.83522323 4.89179677,2.89866847 C4.65707765,3.05513163 4.44566177,3.22427994 4.29341074,3.37651147 C4.23210082,3.43784089 4.17921516,3.48858148 4.17921516,3.48858148 C4.17921516,3.48858148 4.16656901,3.45265161 4.15595093,3.40821946 C4.07987904,3.11431599 3.92127081,2.67874057 3.7774928,2.37217145 C3.75422857,2.32355642 3.73518622,2.27914378 3.73518622,2.27493165 C3.73518622,2.27915353 3.73518622,2.27704746 3.73733129,2.27704746 Z M5.56839,2.62592316 C5.58107515,2.63013529 5.60222357,2.70203405 5.64450089,2.86060328 C5.7227471,3.1672114 5.75869648,3.50973965 5.74601133,3.82901342 C5.7417602,3.9178192 5.73754806,4.00026779 5.73329693,4.01086637 L5.72696898,4.03198554 L5.61702453,3.99605566 C5.39077843,3.92416665 5.02288964,3.81630877 4.70785725,3.72752248 C4.52810061,3.67888796 4.38224578,3.63448506 4.38224578,3.63026318 C4.38224578,3.61755853 4.64444126,3.35538255 4.75649177,3.25601718 C4.97000398,3.06780703 5.54934766,2.61956596 5.56839,2.62592316 Z M5.71428383,2.64704232 C5.72064103,2.64073388 6.58965656,2.79082034 6.98505096,2.86695072 C7.27897394,2.92402902 7.70606659,3.01284455 7.73142714,3.02343339 C7.74411229,3.02764552 7.69969964,3.05301581 7.5580277,3.11644155 C6.99984218,3.36807745 6.58539567,3.59428455 6.17313323,3.86918468 C6.06529485,3.94107368 5.9743635,4.00026779 5.97225743,4.00026779 C5.97015136,4.00026779 5.96803555,3.93896762 5.96803555,3.86495305 C5.96803555,3.46323069 5.88768328,3.0572572 5.73964438,2.71472895 C5.72485317,2.68089539 5.71216802,2.64918739 5.71428383,2.64704232 Z M7.96188537,3.09109076 C7.96824257,3.09742846 7.94073696,3.26871208 7.91536666,3.37018352 C7.83925577,3.68523541 7.63416784,4.15254807 7.38258069,4.59231612 C7.3381388,4.67055258 7.29797729,4.73398807 7.2937164,4.73609413 C7.28953352,4.7382002 7.23243573,4.70647271 7.16687467,4.66841726 C6.92161547,4.52463925 6.64252271,4.3893245 6.33803041,4.26244377 C6.25348551,4.22651389 6.17946118,4.19689246 6.17734537,4.19269983 C6.16251515,4.17999518 6.84336927,3.72962855 7.20282405,3.51396153 C7.48827401,3.34059134 7.95342211,3.08261774 7.96188537,3.09109076 Z M8.12257041,3.1164513 C8.14161276,3.1164513 8.52643784,3.22218362 8.72727464,3.28138748 C9.22417949,3.42940688 9.79505015,3.6387167 10.1671901,3.807865 L10.3215179,3.87766744 L10.2137185,3.90301824 C9.30455126,4.11232806 8.52643784,4.35340437 7.77581053,4.65786743 C7.71449086,4.68323773 7.65950888,4.70438614 7.655326,4.70438614 C7.65107487,4.70438614 7.67222328,4.65576136 7.69970939,4.596538 C7.92595549,4.11657919 8.07184932,3.61546222 8.1077597,3.18833056 C8.10991452,3.14814955 8.11621321,3.1164513 8.12257041,3.1164513 Z M4.29130468,3.99605566 C4.29763262,3.98969846 4.59154585,4.05949115 4.75012482,4.10385504 C4.99116214,4.17154167 5.50282895,4.34278629 5.50282895,4.35549094 C5.50282895,4.35759701 5.44576041,4.40623153 5.37812253,4.46545489 C5.10113584,4.69592287 4.83469898,4.93904675 4.51540571,5.24776094 C4.42025247,5.3387118 4.33992945,5.41270687 4.33571732,5.41270687 C4.33146619,5.41270687 4.32938937,5.39999247 4.33146619,5.38308544 C4.38009096,5.02785254 4.36955088,4.57115796 4.30188376,4.10810618 C4.29551681,4.04888282 4.28918886,3.99816173 4.29130468,3.99605566 Z M10.4674703,4.00241286 C10.4716531,4.00661524 10.3321263,4.22651389 10.2433302,4.35124956 C10.1164885,4.53308301 9.9303649,4.77416908 9.50960019,5.30276242 C9.28763448,5.58183568 9.0380949,5.89690706 8.95566581,6.00261988 C8.87105265,6.1083327 8.80130871,6.19711899 8.79916365,6.19711899 C8.79705758,6.19711899 8.76961047,6.15908304 8.73998904,6.11257408 C8.50316386,5.75734118 8.21981997,5.44652093 7.88362941,5.16742817 C7.82020367,5.11455226 7.75045974,5.05746422 7.72719551,5.04054744 C7.70393128,5.02364041 7.68488893,5.00672363 7.68488893,5.00461756 C7.68488893,4.99828961 8.04430471,4.84390327 8.31710852,4.73397832 C8.79497102,4.53944021 9.44613545,4.30686616 9.93460628,4.15673095 C10.1904543,4.07639818 10.4632191,3.99816173 10.4674703,4.00241286 Z M10.6302614,4.04467069 C10.6386954,4.04257437 10.6894652,4.06794467 10.7507849,4.10385504 C11.2645968,4.39775852 11.7677906,4.77625565 12.16533,5.16531235 C12.2773806,5.27527631 12.5543672,5.56283233 12.5501161,5.5649384 C12.5501161,5.5649384 12.4528568,5.57339191 12.3387002,5.58183568 C11.4485363,5.6495223 10.308901,5.83767396 9.2136199,6.10196575 C9.13962483,6.11886303 9.07409303,6.13367375 9.06984189,6.13367375 C9.06565901,6.13367375 9.1480881,6.05122516 9.25171435,5.95185979 C9.89447402,5.33234485 10.188397,4.94118207 10.5351276,4.24341117 C10.5837427,4.13983367 10.6260492,4.05102788 10.6302614,4.04467069 C10.6281553,4.04467069 10.6281553,4.04467069 10.6302614,4.04467069 Z M5.92148759,4.52678432 C5.95110902,4.53309276 6.22597989,4.66211856 6.43318365,4.76569606 C6.62348037,4.8608103 6.90894008,5.01308083 6.92373129,5.02574647 C6.92583736,5.02785254 6.82432692,5.0807187 6.69963026,5.14204812 C6.30209078,5.34079836 5.9616881,5.52895977 5.60644545,5.74463654 C5.50496426,5.80596596 5.42039011,5.8567358 5.41828404,5.8567358 C5.40982078,5.8567358 5.41192684,5.84823354 5.46902464,5.74463654 C5.65933111,5.3979059 5.81154314,4.9834789 5.89826236,4.57961147 C5.90668662,4.54790348 5.91515964,4.52678432 5.92148759,4.52678432 Z M5.64660696,4.57750541 C5.65296416,4.58386261 5.58107515,4.84391302 5.53669176,4.98558496 C5.44997254,5.25411814 5.30408846,5.59029894 5.16244576,5.84403116 C5.1285732,5.90320576 5.07784236,5.98990548 5.05035625,6.03853026 L4.99750959,6.12310441 L4.87910187,6.00895758 C4.74168106,5.87573915 4.62959154,5.79328081 4.48584278,5.71925649 C4.42871574,5.68968381 4.38433235,5.66428426 4.38433235,5.66008188 C4.38433235,5.6431651 4.74589319,5.31543782 5.02287988,5.07862238 C5.22162037,4.90734851 5.64027901,4.57116771 5.64660696,4.57750541 Z M7.32759871,5.26892886 L7.43121522,5.33656673 C7.66797215,5.49094332 7.94706491,5.69602151 8.16066486,5.87573915 C8.28114939,5.97509477 8.51372344,6.18445334 8.56028115,6.23519393 L8.58561245,6.26270929 L8.41438732,6.31132432 C7.44597718,6.57982825 6.69748519,6.8187595 5.82422828,7.14016858 C5.72696898,7.17609846 5.64450089,7.20570039 5.63814369,7.20570039 C5.62549755,7.20570039 5.61488921,7.21625997 5.8327013,7.01538417 C6.39091607,6.50163079 6.88565635,5.93493326 7.25357439,5.38307569 L7.32759871,5.26892886 Z M6.88567585,5.37887331 C6.88988798,5.38308544 6.60022589,5.79115525 6.42682645,6.02163298 C6.21962269,6.29651361 5.85170465,6.75743982 5.59798218,7.05766149 C5.49228887,7.18243616 5.40138676,7.28603316 5.39713563,7.28815873 C5.39077843,7.29026479 5.38867236,7.2585568 5.38867236,7.20992227 C5.38867236,6.95405474 5.32314056,6.68129968 5.20894497,6.44873538 C5.16031045,6.35147608 5.15184718,6.32821185 5.16245552,6.31765227 C5.20261703,6.28169314 5.81790034,5.93070163 6.20693754,5.72139181 C6.46912327,5.58184543 6.87927965,5.37464167 6.88567585,5.37887331 Z M4.21304872,6.03433763 C4.21940592,6.03433763 4.26804045,6.05968842 4.32302242,6.08930985 C4.45833717,6.16330493 4.5788607,6.24576326 4.68668933,6.33458855 C4.69090147,6.33880068 4.63594874,6.38322308 4.56405974,6.43605024 C4.36318393,6.57982825 4.05872088,6.81031573 3.88113855,6.95198768 C3.69502471,7.09999732 3.68872601,7.1042192 3.70984518,7.07251121 C3.84941106,6.85895026 3.919155,6.73842672 3.99318907,6.58408913 C4.05872088,6.44666832 4.12425268,6.28384796 4.17077139,6.14217601 C4.18767842,6.08085634 4.20883659,6.03433763 4.21304872,6.03433763 Z M4.92563033,6.59252315 C4.93617041,6.59043658 4.94889456,6.60943993 5.00595335,6.69403358 C5.12647689,6.87372197 5.21951431,7.11479829 5.24280779,7.30931689 L5.24699067,7.35162347 L4.95735783,7.46369349 C4.43929482,7.66454004 3.96147132,7.86330978 3.63792692,8.01129017 C3.54703457,8.05359675 3.38844584,8.12969789 3.28485859,8.18047748 C3.18124209,8.23330464 3.09666793,8.27348565 3.09666793,8.27137958 C3.09666793,8.26927352 3.16219974,8.22063899 3.24254226,8.16141563 C3.8747911,7.70261498 4.42239754,7.19936269 4.83258316,6.6961494 C4.87699581,6.64327349 4.91718657,6.59463896 4.9213792,6.5925329 L4.92563033,6.59252315 Z M4.59790305,6.67288517 C4.60636631,6.68133868 4.365329,6.95408399 4.20040257,7.12111648 C3.79232302,7.53767881 3.38846534,7.86330978 2.88733861,8.18047748 C2.82391287,8.22063899 2.76683458,8.25656887 2.76047738,8.26082 C2.74566667,8.26927352 2.76468952,8.24811535 2.98459792,8.00918411 C3.1241638,7.85905864 3.22986686,7.73219741 3.3503904,7.57575375 C3.43073292,7.4721665 3.44554363,7.45735579 3.56185503,7.37485845 C3.87267529,7.15072816 4.58943978,6.66441215 4.59790305,6.67288517 Z"/>
  </g>
</svg>
