<svg xmlns="http://www.w3.org/2000/svg" width="16" height="16" viewBox="0 0 16 16">
  <g fill="none" fill-rule="evenodd" transform="translate(2.013 1.013)">
    <path fill="#6E6E6E" d="M5.26392695 7.43829394L2.83026032 8.5123974 2.14940621 8.69214429C1.97600676 8.85708047 1.79419281 9.02413246 1.59754864 9.19328077 1.38188162 9.37933611 1.18101556 9.54851366 1.02663897 9.67112376.855384595 9.80645801.601652382 10.0601805.472685084 10.220846.280262796 10.4618833.128031268 10.7177216.0624799608 10.9143853-.0538216891 11.2696182.00329560343 11.6290535.227416137 11.9610416.514972162 12.3839026 1.08798789 12.8152269 1.75611786 13.1091304 2.09655955 13.2592851 2.66955578 13.4516782 3.10088007 13.559497 3.81764456 13.74135 5.20471334 13.9379942 5.96799655 13.9676156 6.12232439 13.9739533 6.32955739 13.9739533 6.33799141 13.9676156 6.35492769 13.9570073 6.47333541 13.7307904 6.61079522 13.4495916 7.08019445 12.491741 7.41849107 11.5931138 7.60243059 10.825599 7.71237504 10.3604509 7.79905526 9.74091645 7.8561238 9.00724493 7.87095402 8.80213749 7.87727222 8.11495542 7.86458707 7.88235212 7.84554472 7.50176843 7.81171116 7.19308349 7.75889375 6.89071675 7.75043048 6.84630411 7.74828542 6.8061231 7.75253655 6.80401703 7.76097057 6.79767933 7.78634086 6.78922582 8.13099468 6.68982145L8.06125074 6.52492427 5.26392695 7.43829394zM7.36787363 6.89913127C7.42660332 6.89913127 7.48727702 7.27408254 7.54989474 8.02398507 6.72791224 7.57433346 6.29577908 7.33259412 6.25349526 7.29876706 6.23230784 7.28397585 6.23441391 7.28186978 6.4078231 7.22264642 6.60373925 7.15638334 6.92375609 7.04854496 7.36787363 6.89913127zM7.44549957 8.34750997C7.49764421 8.37005918 6.92409865 8.64986046 5.72486292 9.18691382 5.80153257 8.00069751 5.84058242 7.40758936 5.84201246 7.40758936 6.74185556 7.9608938 7.27635126 8.27420067 7.44549957 8.34750997zM5.4181909 7.48059077C5.480428 7.54268447 5.32560561 9.01672776 5.35532019 8.98680539 5.34681792 8.99736497 4.54081501 7.72027758 4.54714295 7.71392038 4.58096677 7.6906659 5.35595379 7.41849706 5.4181909 7.48059077zM4.28451971 8.02398507C4.28592375 8.02398507 4.57600261 8.46448439 5.15475627 9.34548304 3.98607632 9.74696238 3.36207507 9.9607365 3.28275252 9.98680539 3.27004463 9.99104352 3.60396702 9.33677008 4.28451971 8.02398507zM3.74591011 8.19948083C3.75223805 8.20373196 2.74443619 10.082019 2.86855048 9.91697747 2.8579909 9.93178819 2.67588373 9.69647456 2.64417573 9.52943232 2.61244824 9.36449614 2.61880544 9.07695962 2.65476457 8.89935779 2.68222143 8.76827468 2.68013486 8.77039049 2.7435606 8.738663 2.92398676 8.64704262 3.25810327 8.46731523 3.74591011 8.19948083zM7.5453718 8.7871202L7.41369189 10.0074634 5.98719951 9.48386226C5.99612701 9.47485094 6.51551777 9.24260358 7.5453718 8.7871202zM2.2157504 9.06637078C2.20728713 9.12136251 2.19672755 9.22285344 2.19252517 9.29259738 2.17556939 9.60131157 2.30588887 9.74101652 2.45812039 10.0539331 2.48631178 10.1117329 2.5109768 10.1652946 2.53211547 10.2146181 1.20186334 10.5777133.533903195 10.7599564.528235017 10.7613474.513463303 10.7655986.855902357 10.1658543 1.18573571 9.82330654 1.40564411 9.59496412 2.19249592 8.98393195 2.21786621 8.97544918 2.22491244 8.98531649 2.22420716 9.01562369 2.2157504 9.06637078zM5.6001175 9.56325613C5.60222357 9.56115006 5.65296416 9.58865567 5.71427408 9.62458555 6.16676628 9.88678103 6.79685056 10.1299439 7.33387791 10.2546796L7.38254169 10.2652684 7.31486482 10.3032849C7.03366599 10.4597675 6.10966849 10.8445731 5.16455183 11.1976999 5.02709202 11.248421 4.89178702 11.2991909 4.86637772 11.3097504 4.84100743 11.32031 4.8177432 11.3266672 4.8177432 11.3245612 4.8177432 11.3224161 4.85582789 11.248421 4.90442342 11.1575189 5.16872496 10.6627494 5.43516182 10.0601512 5.57047657 9.64149258 5.58743235 9.60132132 5.59797243 9.56539144 5.6001175 9.56325613zM5.26392695 9.67322008C5.26607202 9.6753749 5.24913574 9.71973879 5.22797757 9.77047938 5.04403805 10.2166144 4.80296173 10.7029596 4.4942768 11.24846 4.41605984 11.3880259 4.35049878 11.5000959 4.34835372 11.5000959 4.3462769 11.5000959 4.28282191 11.4620112 4.20671102 11.4155023 3.75843095 11.1406216 3.36094023 10.802325 3.10088982 10.474588L3.06281487 10.4280693 3.25520791 10.3752031C3.94451554 10.1870417 4.53017742 9.98405983 5.11166617 9.734569 5.19414401 9.70072569 5.26182088 9.67322008 5.26392695 9.67322008zM7.12849351 11.3055188C7.07916346 11.4817198 6.99074466 11.7184589 6.86323711 12.015736 5.42207257 11.7973909 4.69726192 11.6846985 4.68880515 11.6776587 4.68676955 11.6755949 5.28895225 11.5127354 5.9125431 11.2702986 6.57930502 11.011078 7.32960333 10.6712321 7.33288827 10.6712321 7.25583545 10.8840813 7.18770386 11.0955102 7.12849351 11.3055188zM1.0906723 12.219396C1.02801869 12.1673718.899199792 12.0943902.717097309 11.8889262.573468747 11.726872.447611389 11.5201768.426166375 11.4241557.402902144 11.3226453.402902144 11.2718755.424021307 11.265567.455729302 11.2571135 2.52790333 10.5676254 2.53002177 10.5676254 2.53283461 10.5704335 2.05305146 11.1210237 1.0906723 12.219396zM2.8257285 10.8125028L2.89336638 10.8886136C3.19787818 11.2290358 3.30017908 11.3394206 3.6765409 11.5592705 3.74421777 11.5973552 3.79494861 11.6311595 3.79069748 11.6333143 3.77593552 11.6438739 2.66742046 12.1026551 2.06905393 12.3098783 1.73288288 12.4282763 1.45587669 12.5234198 1.45379012 12.5234198 1.45168406 12.5234198 1.43264171 12.5107541 1.41146405 12.4959434L1.3734281 12.4684476 1.43473803 12.3796613C1.56723169 12.1879507 2.03089518 11.6655646 2.8257285 10.8125028zM4.55116194 12.0217634C4.54086689 12.0321551 6.36129464 12.3754491 6.66790276 12.4008097 6.71442147 12.4050218 6.73979177 12.4092729 6.7313285 12.4156204 6.71649829 12.4240837 3.53375962 13.2401882 3.53375962 13.2672411 3.53375962 13.2942939 4.55116194 12.0238792 4.55116194 12.0217634zM4.11580138 11.8891219C4.11719745 11.8905334 3.74915608 12.304053 3.01167727 13.1296805 2.24836512 12.9121116 1.88074948 12.7998352 1.90883037 12.7928514 1.88783058 12.8033271 4.11368335 11.8869881 4.11580138 11.8891219zM6.54103178 12.7936185C6.55160111 12.8147864 6.10549221 13.6663958 6.09066199 13.664241 6.06669574 13.6628565 5.40703738 13.5879164 4.11168693 13.4394209 5.69178953 13.0145269 6.50157114 12.7992595 6.54103178 12.7936185zM5.17724673.00403662668C5.13072802-.0022718213 4.38009096.268367422 3.89591027.464982343 3.24254226.731428955 2.73511684.985170918 2.42217102 1.20502082 2.30589862 1.28751816 2.15997554 1.43339248 2.13675031 1.49047078 2.12829679 1.51161919 2.12404566 1.53698949 2.12404566 1.56235978L2.40738955 1.83089296 3.08186697 2.04655998 4.68670883 2.33412575 6.52198943 2.64917764 6.54103178 2.49059866C6.53470383 2.49059866 6.5304527 2.4884926 6.52416375 2.4884926L6.28305818 2.45041765 6.23446266 2.36373743C5.98495233 1.92393038 5.71008145 1.37841051 5.54939641 1.01050221 5.42466074.725052255 5.30624328.395238404 5.24068222.158413222 5.20473284.0146352093 5.20052071.006181694 5.17729548.00407562791L5.17729548.00402687638 5.17724673.00402687638 5.17724673.00403662668zM5.30601909 1.18959469C5.01780481 1.26825526 3.53379737.90136308 3.53379737.899497136 3.52534385.891043621 4.93954896.333342142 4.99872357.322782561 5.0029747.324869126 5.34310835 1.17947215 5.30601909 1.18959469zM3.33249065 1.0848083C3.53772429 1.15452613 4.01226245 1.29753916 4.46665494 1.38188595 5.00463635 1.48174897 5.37480863 1.46086885 5.46348735 1.46086885 5.46455398 1.46193548 5.28210362 1.61441829 5.07208418 1.74925656 4.86742024 1.88065645 4.39488218 2.1396169 4.38644816 2.1396169 4.3779849 2.1396169 4.3336015 2.13115363 4.28708279 2.12480618L4.28708279 2.11210153 3.33249065 1.0848083zM3.02055705 1.2353558C3.43778564 1.68030658 3.65839281 1.91757643 3.68237857 1.94716536 3.71828894 1.9915975 3.74791037 2.02755663 3.74580431 2.0296627 3.73734104 2.0360004 3.31448977 1.95352256 3.09033024 1.90280147 2.85986225 1.84992556 2.76471877 1.82455526 2.62305657 1.78017187L2.50675492 1.74209692 2.41391155 1.71247549C2.41531559 1.61802753 2.61753076 1.45898763 3.02055705 1.2353558zM5.53250214 1.84803676C5.54097516 1.84803676 5.77308126 2.29395449 5.82800473 2.37640308 5.84497027 2.40391844 5.99548266 2.40602451 5.69738655 2.35738998 4.98062206 2.24106883 4.82799713 2.28974236 4.85548324 2.27493165 5.07750746 2.15232155 5.54314515 1.85867976 5.53250214 1.84803676z"/>
    <path fill="#F26522" d="M2.12404566,1.64485712 C2.15156102,1.71249499 2.25725434,1.79494358 2.34815644,1.87953724 C2.34815644,1.87953724 3.28906097,2.79717753 3.40324681,2.9282899 C3.92336713,3.52876249 4.14962298,4.12080107 4.17077139,4.93696994 C4.18345654,5.4613414 4.08405217,5.92227736 3.83668691,6.4572279 C3.39688961,7.41717478 2.46865072,8.47649677 1.0372083,9.65211067 L1.24656687,9.58232773 C1.38188162,9.48081729 1.56584064,9.37301791 1.99716493,9.13619272 C2.99303193,8.5906436 4.1136736,8.08953638 5.48804748,7.57362819 C7.46707684,6.82933858 10.721183,5.95818774 12.5733608,5.6748926 L12.7658026,5.64527117 L12.7361812,5.59875246 C12.5670621,5.33655698 12.4507312,5.17376587 12.3111654,5.00038593 C11.9052309,4.49715314 11.4126064,4.08909308 10.8099693,3.75077696 C9.98112499,3.28774468 8.9090886,2.92618383 7.55168025,2.65765066 C7.29584197,2.60688081 6.73340532,2.50963126 6.27670098,2.43985807 C5.30829084,2.28977161 4.68242845,2.18614536 3.99315007,2.06773764 C3.74578481,2.02543106 3.37573144,1.96201507 3.13046249,1.90916842 C3.00360126,1.88165305 2.76046763,1.82457476 2.57017091,1.7590332 C2.41793938,1.6998001 2.19802123,1.64059624 2.15150252,1.46086885 C2.15150252,1.46086885 2.07965252,1.53490292 2.12404566,1.64485712 Z M3.59776541,2.32356686 C3.60765222,2.33344067 3.72227092,2.6261195 3.94162151,3.20160336 C3.94053143,3.20267877 3.84142433,3.05256984 3.53935405,2.71162838 C3.23890205,2.37251346 2.98719951,2.11093563 2.98719951,2.1396169 C3.38435663,2.2523764 3.5878786,2.31369305 3.59776541,2.32356686 Z M5.15475627,2.59631148 L4.22323633,3.34477658 C4.05732293,2.71493969 3.97436623,2.3986172 3.97436623,2.39580911 C3.982849,2.39721965 4.37631235,2.46405378 5.15475627,2.59631148 Z M5.72696898,4.03198554 C4.83048685,3.76698522 4.38224578,3.63307777 4.38224578,3.63026318 C4.38224578,3.61755853 5.54934766,2.61956596 5.56839,2.62592316 L5.72696898,4.03198554 Z M6.98505096,2.86695072 C7.27897394,2.92402902 7.70606659,3.01284455 7.73142714,3.02343339 C7.74411229,3.02764552 7.69969964,3.05301581 7.5580277,3.11644155 C6.99984218,3.36807745 6.58539567,3.59428455 6.17313323,3.86918468 C6.06529485,3.94107368 5.9743635,4.00026779 5.97225743,4.00026779 C5.97015136,4.00026779 5.96803555,3.93896762 5.96803555,3.86495305 C5.96803555,3.46323069 5.88768328,3.0572572 5.73964438,2.71472895 C5.72485317,2.68089539 5.71216802,2.64918739 5.71428383,2.64704232 C5.72064103,2.64073388 6.58965656,2.79082034 6.98505096,2.86695072 Z M7.91536666,3.37018352 C7.83925577,3.68523541 7.63416784,4.15254807 7.38258069,4.59231612 C7.3381388,4.67055258 7.29797729,4.73398807 7.2937164,4.73609413 C7.28953352,4.7382002 7.23243573,4.70647271 7.16687467,4.66841726 C6.92161547,4.52463925 6.64252271,4.3893245 6.33803041,4.26244377 C6.25348551,4.22651389 6.17946118,4.19689246 6.17734537,4.19269983 C6.16251515,4.17999518 6.84336927,3.72962855 7.20282405,3.51396153 C7.48827401,3.34059134 7.95342211,3.08261774 7.96188537,3.09109076 C7.96824257,3.09742846 7.94073696,3.26871208 7.91536666,3.37018352 Z M9.98446819,3.807865 C10.0187633,3.82337666 10.0444846,3.8350104 10.0616321,3.84276622 C10.0787796,3.85052205 10.104501,3.86215579 10.138796,3.87766744 L10.0309966,3.90301824 C9.12182936,4.11232806 8.65336942,4.272954 7.90274211,4.57741705 C7.84142244,4.60278735 7.78644046,4.62393576 7.78225758,4.62393576 C7.77800645,4.62393576 7.79915486,4.57531098 7.82664097,4.51608763 C7.97747171,4.19611508 8.14969951,3.76694109 8.34332439,3.22856564 C9.18932697,3.50199968 9.7363749,3.69509946 9.98446819,3.807865 Z M5.42682563,4.35549094 C5.42682563,4.35689498 5.10599261,4.67264421 4.46432659,5.30273861 C4.40777078,4.43302069 4.38019815,3.9974597 4.38160869,3.99605566 C5.07841998,4.22720941 5.42682563,4.34702117 5.42682563,4.35549094 Z M10.2433302,4.35124956 C10.1587691,4.47247186 9.67738021,5.0110198 8.79916365,5.96689337 C8.41293453,5.61997841 8.10775645,5.35349001 7.88362941,5.16742817 C7.82020367,5.11455226 7.75045974,5.05746422 7.72719551,5.04054744 C7.70393128,5.02364041 7.68488893,5.00672363 7.68488893,5.00461756 C7.68488893,4.99828961 8.04430471,4.89015164 8.31710852,4.78022669 C8.79497102,4.58568859 9.44613545,4.37581663 9.93460628,4.22568142 C10.1904543,4.14534865 10.4632191,4.0402986 10.4674703,4.04454973 C10.3772409,4.16585917 10.3025276,4.26809245 10.2433302,4.35124956 Z M10.750964,4.15440805 C11.1788719,4.46450153 11.525339,4.74923384 11.7903653,5.00860498 C11.9024158,5.11856893 12.1643511,5.4106008 12.1600999,5.41270687 C12.0320109,5.41270687 11.0646281,5.61991712 9.25795146,6.03433763 C9.24268326,6.01319847 9.26959125,5.96950709 9.33867541,5.90326352 C9.76718186,5.49025355 10.2379447,4.90730173 10.750964,4.15440805 Z M6.43318365,4.76569606 C6.62348037,4.8608103 6.90894008,5.01308083 6.92373129,5.02574647 C6.92583736,5.02785254 6.82432692,5.0807187 6.69963026,5.14204812 C6.30209078,5.34079836 5.42039011,5.8567358 5.41828404,5.8567358 C5.40982078,5.8567358 5.98087156,4.52678432 5.98719951,4.52678432 C6.14638643,4.61700715 6.29504781,4.6966444 6.43318365,4.76569606 Z M4.99750959,6.01480526 L4.48719951,5.73456234 C5.25247144,4.95896592 5.63721672,4.57328027 5.64143535,4.57750541 C5.64567348,4.58174354 5.43103156,5.06084349 4.99750959,6.01480526 Z M8.04439441,5.87573915 C8.12471743,5.94197623 8.25606679,6.04910284 8.43844248,6.19711899 L5.9587724,7.06763258 C6.57669503,6.3124997 7.00829569,5.75098074 7.25357439,5.38307569 L7.32759871,5.26892886 C7.66306254,5.55365729 7.90199444,5.75592739 8.04439441,5.87573915 Z M6.35950125,6.02163298 C6.1522975,6.29651361 5.40138676,7.25908446 5.39713563,7.26121003 C5.39077843,7.2633161 5.15184718,6.40893092 5.16245552,6.39837133 C5.20261703,6.36241221 5.81790034,5.93070163 6.20693754,5.72139181 C6.46912327,5.58184543 6.87927965,5.37464167 6.88567585,5.37887331 C6.88988798,5.38308544 6.53290069,5.79115525 6.35950125,6.02163298 Z M4.37144634,6.03433763 C4.37568447,6.03433763 4.48076547,6.09673044 4.68668933,6.22151608 C4.11166835,6.80998483 3.83119758,7.09364987 3.84527703,7.07251121 C3.98484291,6.85895026 4.3672342,6.03433763 4.37144634,6.03433763 Z M4.99872357,7.36642443 C4.30722207,7.64540679 3.85362319,7.83422477 3.63792692,7.93287837 C3.54703457,7.97518495 3.02475943,8.22063899 3.10510195,8.16141563 C3.73735079,7.70261498 4.71410719,6.64459191 4.8177432,6.5925329 L4.99872357,7.36642443 Z"/>
  </g>
</svg>
