<svg xmlns="http://www.w3.org/2000/svg" width="16" height="16" viewBox="0 0 16 16">
  <path fill="#389FD6" fill-rule="evenodd" d="M2.16445283 7.84554717C1.69901887 8.31230189.94645283 8.31230189.481018868 7.84554717.0155849057 7.38064151.0155849057 6.62754717.481018868 6.16422642L3.23611321 3.40833962 3.97269811 4.14492453 1.19950943 6.91890566 1.407 7.12850943 4.18084906 4.35307547 4.92007547 5.09177358 2.16445283 7.84554717M4.30909434 6.13477358C4.77532075 5.6694717 5.52709434 5.6694717 5.99213208 6.13477358 6.45598113 6.59822642 6.45743396 7.35132075 5.99213208 7.81675472L3.23624528 10.5723774 2.49939623 9.8355283 5.27562264 7.06154717 5.06522642 6.85181132 2.29203774 9.62737736 1.5529434 8.88933962 4.30909434 6.13477358M7.88173585 11.8524528C8.34703774 12.3160377 8.34703774 13.069 7.88173585 13.5316604 7.41683019 13.9970943 6.66307547 13.9970943 6.19816981 13.5316604L3.44439623 10.7766981 4.18098113 10.041566 6.95549057 12.8155472 7.16469811 12.6072642 4.38926415 9.83209434 5.12584906 9.09537736 7.88173585 11.8524528M6.16884906 9.70649057C5.70420755 9.2410566 5.70420755 8.48624528 6.16884906 8.02437736 6.63388679 7.55696226 7.38750943 7.55696226 7.85281132 8.02437736L10.608566 10.7780189 9.87092453 11.5148679 7.09549057 8.74101887 6.88733962 8.94903774 9.66132075 11.723283 8.92460377 12.4602642 6.16884906 9.70649057M9.74201887 7.84554717C9.27883019 8.30873585 8.5254717 8.30873585 8.06016981 7.84554717 7.59592453 7.38064151 7.59592453 6.62754717 8.06016981 6.16264151L10.8159245 3.40688679 11.5529057 4.14360377 8.77839623 6.91890566 8.98667925 7.12718868 11.7606604 4.35320755 12.4992264 5.08966038 9.74201887 7.84554717M11.8887736 6.13332075C12.3536792 5.66801887 13.1069057 5.66801887 13.5703585 6.13332075 14.0348679 6.59624528 14.0369811 7.35145283 13.5703585 7.81675472L10.8157925 10.5701321 10.0777547 9.83328302 12.8531887 7.05798113 12.6453019 6.85181132 9.87092453 9.62367925 9.13288679 8.88920755 11.8887736 6.13332075M7.88173585 4.27264151C8.34703774 4.7379434 8.34703774 5.4890566 7.88173585 5.95660377 7.41683019 6.41979245 6.66307547 6.41979245 6.19816981 5.95660377L3.44439623 3.20084906 4.18098113 2.46215094 6.95549057 5.23745283 7.16469811 5.02969811 4.38926415 2.25584906 5.12584906 1.51741509 7.88173585 4.27264151M6.16884906 2.12813208C5.70420755 1.66283019 5.70420755.910264151 6.16884906.444830189 6.63388679-.0183584906 7.38750943-.0204716981 7.85281132.444830189L10.608566 3.20058491 9.87092453 3.93743396 7.09549057 1.16186792 6.88733962 1.37160377 9.66132075 4.14703774 8.92460377 4.88137736 6.16884906 2.12813208" transform="translate(1 1)"/>
</svg>
