<svg width="16" height="16" viewBox="0 0 16 16" fill="none" xmlns="http://www.w3.org/2000/svg">
<path d="M7.5826 9.82407C6.58461 8.82607 6.58461 7.208 7.5826 6.21001L9.11003 4.68259C10.108 3.68459 11.7261 3.68459 12.7241 4.68258L14.2515 6.21001C15.2495 7.208 15.2495 8.82607 14.2515 9.82406L12.7241 11.3515C11.7261 12.3495 10.108 12.3495 9.11003 11.3515L7.5826 9.82407Z" fill="url(#paint0_linear)"/>
<path d="M1.92225 10.224C0.692583 8.99432 0.692582 7.00063 1.92225 5.77096L3.90096 3.79226C5.13063 2.56259 7.12432 2.56258 8.35399 3.79225L10.3327 5.77096C11.5624 7.00063 11.5624 8.99432 10.3327 10.224L8.35399 12.2027C7.12432 13.4324 5.13063 13.4324 3.90096 12.2027L1.92225 10.224Z" fill="url(#paint1_linear)"/>
<path d="M9.17839 4.61919L10.3327 5.77349C11.5624 7.00316 11.5624 8.99685 10.3327 10.2265L9.15823 11.401C9.14201 11.3856 9.12594 11.3699 9.11003 11.354L7.5826 9.82658C6.58461 8.82859 6.58461 7.21052 7.5826 6.21253L9.11002 4.6851C9.1325 4.66262 9.1553 4.64065 9.17839 4.61919Z" fill="#FF0D2A"/>
<defs>
<linearGradient id="paint0_linear" x1="15" y1="7.87" x2="1" y2="7.87" gradientUnits="userSpaceOnUse">
<stop offset="0" stop-color="#FF0D2A"/>
<stop offset="0.416667" stop-color="#FF0D2A" stop-opacity="0.55"/>
<stop offset="1" stop-color="#FF0D2A"/>
</linearGradient>
<linearGradient id="paint1_linear" x1="15" y1="7.87" x2="1" y2="7.87" gradientUnits="userSpaceOnUse">
<stop offset="0" stop-color="#FF0D2A"/>
<stop offset="0.416667" stop-color="#FF0D2A" stop-opacity="0.55"/>
<stop offset="1" stop-color="#FF0D2A"/>
</linearGradient>
</defs>
</svg>
