<!-- Copyright 2000-2025 JetBrains s.r.o. and contributors. Use of this source code is governed by the Apache 2.0 license. -->
<svg width="16" height="16" viewBox="0 0 16 16" fill="none" xmlns="http://www.w3.org/2000/svg">
<path fill-rule="evenodd" clip-rule="evenodd" d="M1.09055 9.24803C1.26422 8.96581 1.63379 8.87782 1.91601 9.05149L7.99999 12.7955L14.084 9.05149C14.3662 8.87782 14.7357 8.96581 14.9094 9.24803C15.0831 9.53024 14.9951 9.89981 14.7129 10.0735L8.31445 14.011C8.1216 14.1297 7.87837 14.1297 7.68553 14.011L1.28709 10.0735C1.00488 9.89981 0.916884 9.53024 1.09055 9.24803Z" fill="#DB5C5C"/>
<path fill-rule="evenodd" clip-rule="evenodd" d="M8.30786 2.31053C8.48153 2.59274 8.39353 2.96231 8.11132 3.13598L6.70731 3.99999L10.5488 6.36399C10.831 6.53766 10.919 6.90723 10.7454 7.18945C10.5717 7.47166 10.2021 7.55965 9.9199 7.38598L5.56249 4.70449L3.64257 5.88598C3.36036 6.05965 2.99079 5.97166 2.81712 5.68945C2.64345 5.40723 2.73144 5.03766 3.01365 4.86399L7.4824 2.11399C7.76462 1.94032 8.13419 2.02831 8.30786 2.31053ZM1.09055 6.24803C1.26422 5.96581 1.63379 5.87782 1.91601 6.05149L7.99999 9.79548L14.084 6.05149C14.3662 5.87782 14.7357 5.96581 14.9094 6.24803C15.0831 6.53024 14.9951 6.89981 14.7129 7.07348L8.31445 11.011C8.1216 11.1297 7.87837 11.1297 7.68553 11.011L1.28709 7.07348C1.00488 6.89981 0.916884 6.53024 1.09055 6.24803Z" fill="#DB5C5C"/>
</svg>
