<svg width="16" height="16" viewBox="0 0 16 16" fill="none" xmlns="http://www.w3.org/2000/svg">
<g clip-path="url(#clip0)">
<path d="M6.25524 14.1835C6.49095 14.0272 5.8735 14.0861 5.82226 13.9811C5.57781 13.9607 5.33587 13.917 5.09976 13.8504C4.65652 13.7377 3.60608 13.028 3.49591 12.3619C3.38575 11.6958 3.49591 10.4019 3.96477 9.64356C4.26423 9.17885 4.64941 8.77541 5.09976 8.45476C5.09976 8.45476 4.18511 6.27958 4.10568 4.63731C4.02626 2.99504 4.14411 0.0538037 5.23042 7.09466e-07C6.31673 -0.0538023 6.12458 2.68503 5.95292 4.46565C5.84278 5.6487 5.8786 8.00649 5.95292 9.19232C7.89376 8.62615 8.85278 9.09989 8.85278 9.09989C8.85278 9.09989 8.88392 7.56769 9.2964 7.65558L8.64605 7.43852C8.8014 6.63383 9.20467 4.96319 10.0368 3.80721C11.1693 2.23411 12.3427 0.614893 13.1113 1.0735C13.8799 1.53211 12.9038 3.17182 12.2248 4.02498C11.5459 4.87814 10.3673 6.15917 9.97534 6.84324C9.71879 7.29865 9.492 7.7702 9.2964 8.25493C9.99573 8.61423 10.568 9.17938 10.9361 9.87414C11.4665 10.9707 11.5177 12.3311 11.2307 12.905C11.0812 13.171 10.8749 13.4008 10.6265 13.5779C10.3781 13.755 10.0936 13.8752 9.79343 13.9299C9.45524 13.9555 8.02306 14.309 8.02306 14.309L6.25524 14.1835Z" fill="#515151"/>
<path d="M8.7558 7.92698C8.7558 7.92698 9.60896 5.698 10.375 4.4426C11.1411 3.18719 12.1685 2.2418 12.4913 2.43395C12.8141 2.6261 11.8303 3.80465 10.9745 4.94988C10.2718 5.96433 9.63513 7.02293 9.06837 8.11914L8.7558 7.92698Z" fill="#DD00A1"/>
<path d="M5.3329 8.31129L5.57629 8.11914C5.57629 8.11914 5.54298 5.89015 5.57629 4.53227C5.6096 3.17438 5.68133 1.48086 5.22785 1.4988C4.77437 1.51673 4.45924 2.81825 4.63602 4.67062C4.76673 5.90143 4.99983 7.11921 5.3329 8.31129V8.31129Z" fill="#DD00A1"/>
<path d="M7.56702 14.1195C9.56214 14.1195 11.1795 12.954 11.1795 11.5164C11.1795 10.0788 9.56214 8.91337 7.56702 8.91337C5.5719 8.91337 3.95453 10.0788 3.95453 11.5164C3.95453 12.954 5.5719 14.1195 7.56702 14.1195Z" fill="#E8F5F5"/>
<path d="M4.56686 13.0946C4.84137 13.0946 5.0639 12.8721 5.0639 12.5976C5.0639 12.3231 4.84137 12.1006 4.56686 12.1006C4.29236 12.1006 4.06982 12.3231 4.06982 12.5976C4.06982 12.8721 4.29236 13.0946 4.56686 13.0946Z" fill="#F9D8D2"/>
<path d="M10.4391 13.0946C10.7136 13.0946 10.9361 12.8721 10.9361 12.5976C10.9361 12.3231 10.7136 12.1006 10.4391 12.1006C10.1645 12.1006 9.94202 12.3231 9.94202 12.5976C9.94202 12.8721 10.1645 13.0946 10.4391 13.0946Z" fill="#F9D8D2"/>
<path d="M8.32792 12.554C8.31905 12.5463 8.30768 12.542 8.2959 12.542C8.28412 12.542 8.27274 12.5463 8.26387 12.554V12.554C8.26387 12.554 8.11784 12.8102 7.90262 12.8256C7.82979 12.8232 7.75819 12.806 7.69215 12.7752C7.62611 12.7444 7.56698 12.7005 7.51832 12.6463V12.2978C7.65667 12.2235 7.87957 11.993 7.87957 11.9135C7.86059 11.8281 7.81105 11.7526 7.74027 11.7012C7.66949 11.6497 7.58235 11.6259 7.49526 11.6343C7.23905 11.6343 7.05971 11.8008 7.05971 11.9392C7.05971 12.0775 7.34154 12.2543 7.42096 12.3081V12.6796C7.38162 12.7317 7.3315 12.7747 7.27402 12.8056C7.21654 12.8366 7.15305 12.8548 7.08789 12.8589C6.88293 12.8589 6.72921 12.5822 6.72921 12.5797C6.72322 12.5687 6.71322 12.5604 6.70129 12.5566C6.68936 12.5528 6.67642 12.5537 6.66515 12.5592V12.5592C6.65498 12.5646 6.64722 12.5737 6.64343 12.5846C6.63963 12.5955 6.64007 12.6075 6.64466 12.6181V12.6181C6.64466 12.6335 6.82656 12.9486 7.08789 12.9486C7.16123 12.9461 7.23325 12.9284 7.2994 12.8967C7.36555 12.8649 7.42439 12.8198 7.4722 12.7641C7.58048 12.8743 7.72545 12.9408 7.87957 12.9512H7.91543C8.00764 12.9336 8.09479 12.8958 8.17056 12.8404C8.24634 12.785 8.30884 12.7134 8.35355 12.6309C8.36184 12.6223 8.36648 12.6108 8.36648 12.5989C8.36648 12.5869 8.36184 12.5754 8.35355 12.5669C8.34613 12.5606 8.33735 12.5562 8.32792 12.554V12.554Z" fill="#10110E"/>
<path d="M5.57885 10.9784C5.50183 10.9784 5.42654 11.0012 5.3625 11.044C5.29846 11.0868 5.24854 11.1476 5.21907 11.2188C5.18959 11.2899 5.18188 11.3682 5.19691 11.4438C5.21193 11.5193 5.24902 11.5887 5.30348 11.6432C5.35795 11.6976 5.42734 11.7347 5.50288 11.7498C5.57842 11.7648 5.65672 11.7571 5.72788 11.7276C5.79904 11.6981 5.85986 11.6482 5.90266 11.5842C5.94545 11.5201 5.96829 11.4448 5.96829 11.3678V11.3678C5.9683 11.2654 5.92797 11.1671 5.85604 11.0942C5.78411 11.0214 5.68637 10.9797 5.58398 10.9784H5.57885ZM5.68134 11.3396C5.66005 11.3396 5.63925 11.3333 5.62155 11.3215C5.60386 11.3097 5.59007 11.2929 5.58192 11.2732C5.57378 11.2535 5.57165 11.2319 5.5758 11.211C5.57995 11.1902 5.5902 11.171 5.60525 11.1559C5.6203 11.1409 5.63947 11.1306 5.66034 11.1265C5.68122 11.1223 5.70285 11.1245 5.72252 11.1326C5.74218 11.1408 5.75898 11.1545 5.77081 11.1722C5.78263 11.1899 5.78894 11.2107 5.78894 11.232V11.232C5.78928 11.2462 5.78684 11.2602 5.78174 11.2734C5.77665 11.2866 5.769 11.2986 5.75925 11.3089C5.74949 11.3191 5.73782 11.3273 5.72489 11.333C5.71196 11.3387 5.69803 11.3419 5.6839 11.3422V11.3422L5.68134 11.3396Z" fill="#10110E"/>
<path d="M9.40914 10.9784C9.33212 10.9779 9.25668 11.0002 9.19236 11.0426C9.12804 11.085 9.07772 11.1455 9.04778 11.2164C9.01784 11.2874 9.00961 11.3656 9.02414 11.4413C9.03867 11.5169 9.0753 11.5865 9.12941 11.6414C9.18351 11.6962 9.25265 11.7337 9.3281 11.7492C9.40354 11.7648 9.48189 11.7576 9.55324 11.7286C9.62459 11.6996 9.68574 11.6501 9.72895 11.5863C9.77216 11.5225 9.7955 11.4474 9.79601 11.3704V11.3704C9.79634 11.3192 9.78661 11.2685 9.76735 11.2212C9.74809 11.1738 9.71968 11.1307 9.68376 11.0943C9.64783 11.0579 9.60509 11.0289 9.55797 11.009C9.51085 10.9891 9.46028 10.9787 9.40914 10.9784ZM9.52443 11.3396C9.5103 11.34 9.49624 11.3375 9.48305 11.3324C9.46986 11.3273 9.45781 11.3197 9.44758 11.3099C9.43735 11.3002 9.42914 11.2885 9.42342 11.2756C9.41771 11.2627 9.41459 11.2487 9.41426 11.2346V11.2346C9.41423 11.2062 9.42513 11.179 9.4447 11.1584C9.46426 11.1379 9.49098 11.1257 9.5193 11.1244C9.53344 11.1241 9.5475 11.1265 9.56068 11.1316C9.57387 11.1367 9.58592 11.1444 9.59615 11.1541C9.60638 11.1639 9.61459 11.1755 9.62031 11.1885C9.62603 11.2014 9.62914 11.2153 9.62947 11.2295V11.2295C9.62981 11.2433 9.62743 11.257 9.62247 11.2699C9.6175 11.2827 9.61004 11.2945 9.60053 11.3045C9.59101 11.3145 9.57962 11.3225 9.567 11.3281C9.55438 11.3337 9.54079 11.3367 9.52699 11.3371V11.3371L9.52443 11.3396Z" fill="#10110E"/>
<path fill-rule="evenodd" clip-rule="evenodd" d="M11.9404 8.34716V10.0689C12.0775 10.1056 12.199 10.1855 12.2871 10.2967C12.3753 10.4079 12.4253 10.5445 12.4298 10.6863V12.0006C12.4205 12.1864 12.3378 12.361 12.2 12.4859C12.0621 12.6108 11.8803 12.6758 11.6945 12.6668H11.4383C11.2415 13.1687 10.9259 13.6153 10.5185 13.9683L10.8515 14.2732C10.8922 14.3079 10.9174 14.3573 10.9217 14.4106C10.926 14.4639 10.9091 14.5167 10.8746 14.5576C10.1239 15.4799 8.89414 15.9923 7.50807 15.9923C6.122 15.9923 4.89478 15.462 4.1441 14.5576C4.1271 14.5376 4.11421 14.5144 4.10616 14.4894C4.09812 14.4644 4.09508 14.438 4.09722 14.4119C4.09936 14.3857 4.10664 14.3602 4.11864 14.3368C4.13064 14.3135 4.14713 14.2927 4.16716 14.2757L4.49767 13.976C4.08925 13.6208 3.77355 13.1714 3.57789 12.6668H3.34474C3.15909 12.6759 2.97737 12.6112 2.83916 12.4869C2.70096 12.3626 2.61746 12.1888 2.60687 12.0032V10.6863C2.61876 10.5014 2.70273 10.3286 2.84071 10.205C2.9787 10.0814 3.15968 10.0169 3.34474 10.0253H3.5164C4.01856 8.23699 5.54042 7.13531 7.51832 7.13531C9.49622 7.13531 11.0104 8.24724 11.5228 10.0253H11.574V8.34716C11.4389 8.31663 11.3175 8.24278 11.2282 8.13687C11.139 8.03095 11.0868 7.89877 11.0796 7.76045C11.0974 7.59382 11.1762 7.43966 11.3008 7.32764C11.4254 7.21561 11.5871 7.15364 11.7547 7.15364C11.9222 7.15364 12.0839 7.21561 12.2085 7.32764C12.3332 7.43966 12.412 7.59382 12.4298 7.76045C12.4237 7.89833 12.3725 8.03041 12.2841 8.1364C12.1957 8.24239 12.075 8.31643 11.9404 8.34716ZM10.8336 11.7265C10.8336 10.2482 9.34763 9.04403 7.51832 9.04403V9.03122C5.68133 9.03122 4.20303 10.2482 4.20303 11.7137C4.20303 13.3227 5.87092 14.0323 7.51832 14.0323C9.16572 14.0323 10.8336 13.3278 10.8336 11.7265ZM7.51832 8.81089C7.10307 8.81322 6.69012 8.87271 6.29109 8.98767V7.64772C6.69043 7.53568 7.10357 7.48048 7.51832 7.48375C7.9339 7.48048 8.34789 7.53568 8.7481 7.64772V8.99536C8.35002 8.87133 7.93527 8.80912 7.51832 8.81089ZM12.0634 11.5702H11.574V11.314C11.574 10.9878 11.5406 10.6624 11.4741 10.343H11.6842C11.7756 10.3367 11.8657 10.3668 11.9349 10.4268C12.004 10.4869 12.0466 10.5719 12.0531 10.6633L12.0634 11.5702ZM11.4382 12.344H11.6945V12.3414H11.7098C11.7549 12.3421 11.7997 12.3339 11.8416 12.3172C11.8835 12.3006 11.9217 12.2759 11.9541 12.2445C11.9865 12.2131 12.0123 12.1756 12.0302 12.1342C12.0481 12.0928 12.0576 12.0483 12.0583 12.0032V11.7854H11.5459C11.5229 11.9739 11.4869 12.1605 11.4382 12.344ZM7.51831 15.6541C6.29109 15.6541 5.1971 15.2135 4.51047 14.4295L4.84353 14.1195C5.63089 14.645 6.56179 14.9135 7.50806 14.8881C8.45465 14.9159 9.38625 14.6471 10.1726 14.1195L10.5185 14.4295C9.83953 15.2135 8.75578 15.6541 7.51831 15.6541ZM3.46515 11.3268C3.46556 11.0007 3.49817 10.6755 3.56251 10.3558H3.3063C3.22045 10.3578 3.13888 10.3937 3.07937 10.4556C3.01986 10.5175 2.98723 10.6004 2.98861 10.6863V11.583H3.46515C3.46002 11.4977 3.46002 11.4121 3.46515 11.3268ZM3.48821 11.7854C3.51332 11.972 3.55011 12.1569 3.59838 12.3388H3.34217C3.25081 12.3452 3.16065 12.315 3.09149 12.255C3.02233 12.1949 2.9798 12.1099 2.97324 12.0186V11.7854H3.48821ZM12.0634 7.76045C12.0634 7.91327 11.9257 8.03715 11.7559 8.03715C11.5861 8.03715 11.4485 7.91327 11.4485 7.76045C11.4485 7.60763 11.5861 7.48375 11.7559 7.48375C11.9257 7.48375 12.0634 7.60763 12.0634 7.76045Z" fill="#515151"/>
</g>
<defs>
<clipPath id="clip0">
<rect width="10.7862" height="16" fill="white" transform="translate(2.60687)"/>
</clipPath>
</defs>
</svg>
