<!-- Copyright 2000-2025 JetBrains s.r.o. and contributors. Use of this source code is governed by the Apache 2.0 license. -->
<svg width="16" height="16" viewBox="0 0 16 16" fill="none" xmlns="http://www.w3.org/2000/svg">
<path d="M13.0238 2V4.17283L11.9924 4.43756L11.3462 3.66316L11.005 4.33096C10.3013 4.14036 9.3323 4.01753 7.99941 4.01753C6.66652 4.01753 5.69753 4.14107 4.99384 4.33096L4.65264 3.66316L4.00641 4.43756L2.975 4.17283V2C2.975 2 1.23777 3.45914 0.906494 5.4315L3.18639 6.21648C3.26087 7.58809 3.88085 11.2907 4.05819 11.6267C4.24689 11.9846 5.2485 13.0075 6.03235 13.4007C6.03235 13.4007 6.31609 13.1021 6.48917 12.8388C6.70908 13.0964 7.84477 14 8.00012 14C8.15547 14 9.29116 13.0964 9.51106 12.8388C9.68415 13.1021 9.96789 13.4007 9.96789 13.4007C10.7517 13.0075 11.7534 11.9846 11.942 11.6267C12.1194 11.2907 12.7394 7.58809 12.8139 6.21648L15.0938 5.4315C14.7611 3.45914 13.0238 2 13.0238 2ZM11.8151 8.59051L10.2722 8.72745L10.4077 10.6102C10.4077 10.6102 9.46921 11.3831 7.9987 11.3831C6.52819 11.3831 5.5897 10.6102 5.5897 10.6102L5.72519 8.72745L4.18233 8.59051L3.91845 6.46991L6.4757 7.3509L6.27708 9.99035C6.75235 10.1104 7.25245 10.2297 7.99941 10.2297C8.74637 10.2297 9.24576 10.1104 9.72103 9.99035L9.52241 7.3509L12.0797 6.46991L11.8158 8.59051H11.8151Z" fill="#24A394"/>
</svg>
