<!-- Copyright 2000-2025 JetBrains s.r.o. and contributors. Use of this source code is governed by the Apache 2.0 license. -->
<svg width="16" height="16" viewBox="0 0 16 16" fill="none" xmlns="http://www.w3.org/2000/svg">
<path d="M12.9574 2V4.17283L11.9396 4.43756L11.3019 3.66316L10.9652 4.33096C10.2708 4.14036 9.3146 4.01753 7.9993 4.01753C6.684 4.01753 5.7278 4.14107 5.0334 4.33096L4.6967 3.66316L4.059 4.43756L3.0412 4.17283V2C3.0412 2 1.3269 3.45914 1 5.4315L3.2498 6.21648C3.3233 7.58809 3.9351 11.2907 4.1101 11.6267C4.2963 11.9846 5.2847 13.0075 6.0582 13.4007C6.0582 13.4007 6.3382 13.1021 6.509 12.8388C6.726 13.0964 7.8467 14 8 14C8.1533 14 9.274 13.0964 9.491 12.8388C9.6618 13.1021 9.9418 13.4007 9.9418 13.4007C10.7153 13.0075 11.7037 11.9846 11.8899 11.6267C12.0649 11.2907 12.6767 7.58809 12.7502 6.21648L15 5.4315C14.6717 3.45914 12.9574 2 12.9574 2ZM11.7646 8.59051L10.2421 8.72745L10.3758 10.6102C10.3758 10.6102 9.4497 11.3831 7.9986 11.3831C6.5475 11.3831 5.62139 10.6102 5.62139 10.6102L5.7551 8.72745L4.2326 8.59051L3.9722 6.46991L6.4957 7.3509L6.2997 9.99035C6.7687 10.1104 7.2622 10.2297 7.9993 10.2297C8.7364 10.2297 9.2292 10.1104 9.6982 9.99035L9.5022 7.3509L12.0257 6.46991L11.7653 8.59051H11.7646Z" fill="#039BA1"/>
</svg>
