<!-- Copyright 2000-2024 JetBrains s.r.o. and contributors. Use of this source code is governed by the Apache 2.0 license. -->
<svg width="16" height="16" viewBox="0 0 16 16" fill="none" xmlns="http://www.w3.org/2000/svg">
<path d="M12.6958 1H3.30514C2.03276 1 1.00146 2.0313 1.00146 3.30368V12.6963C1.00146 13.9687 2.03276 15 3.30514 15H12.6978C13.9702 15 15.0015 13.9687 15.0015 12.6963V3.30368C15.0015 2.0313 13.9702 1 12.6978 1H12.6958Z" fill="#4682FA"/>
<path d="M11.1517 6.97853C11.1517 6.8891 11.2263 6.81456 11.3157 6.81456H12.1782C12.2335 6.81456 12.2846 6.78691 12.3166 6.74002L12.9725 5.72639C13.0449 5.61782 12.9661 5.47298 12.8341 5.47298H11.3285C11.2369 5.47298 11.1645 5.39844 11.1645 5.309V4.27621C11.1645 4.18464 11.09 4.11011 11.0005 4.11011H9.42897C9.3374 4.11011 9.265 4.18464 9.265 4.27408V7.14889C8.71135 6.08627 7.59971 5.35798 6.3199 5.35798C4.48639 5.35798 3 6.8444 3 8.67791C3 10.5114 4.48639 11.9978 6.3199 11.9978C7.60399 11.9978 8.71558 11.2695 9.26924 10.2026C9.27776 10.6711 9.32464 11.0395 9.53969 11.3568C9.94855 11.953 10.6683 11.9893 11.3264 11.9893C11.633 11.9893 11.8609 11.9616 12.1909 11.9105C12.2718 11.8977 12.3315 11.8274 12.3315 11.7465V10.5689C12.3315 10.4752 12.2548 10.4007 12.1611 10.4049L11.65 10.4241C11.1411 10.4241 11.1539 10.0897 11.1539 9.69155V6.97853H11.1517ZM6.3199 10.1685C5.49789 10.1685 4.82924 9.50201 4.82924 8.67791C4.82924 7.85376 5.4958 7.18725 6.3199 7.18725C7.14401 7.18725 7.81056 7.85376 7.81056 8.67791C7.81056 9.50201 7.14401 10.1685 6.3199 10.1685Z" fill="white"/>
</svg>
