<svg width="16" height="16" viewBox="0 0 16 16" fill="none" xmlns="http://www.w3.org/2000/svg">
<path d="M11.9587 4.09207C10.9231 3.05217 9.51373 2.46929 8.04501 2.47342C6.57625 2.46929 5.16693 3.05217 4.13131 4.09207C3.08973 5.12617 2.50594 6.53347 2.51016 8.00005C2.50919 8.67807 2.63382 9.3504 2.87776 9.98314C2.51833 10.3386 2.17752 10.7123 1.85668 11.1028C1.66045 11.3424 1.4797 11.5942 1.31554 11.8567C1.22879 11.9945 1.15448 12.1397 1.09348 12.2907C1.05902 12.3746 1.03296 12.4617 1.01566 12.5508C0.992496 12.66 0.995059 12.7732 1.02315 12.8814C1.0301 12.9083 1.03993 12.9343 1.05246 12.9591L1.06027 12.9757C1.06321 12.9818 1.06647 12.9877 1.07004 12.9935C1.08657 13.0222 1.10587 13.0492 1.12767 13.0742C1.17624 13.1297 1.23635 13.1741 1.30382 13.2042C1.4068 13.2474 1.51773 13.2686 1.62941 13.2663C1.80299 13.2609 1.97504 13.2321 2.14093 13.1808C2.44251 13.0892 2.73645 12.9742 3.02004 12.8368C3.47335 12.6163 3.91511 12.3728 4.34359 12.1073C5.35877 13.0227 6.67846 13.5286 8.04631 13.5267C9.515 13.5307 10.9243 12.9478 11.96 11.908C13.0015 10.8739 13.5852 9.46662 13.5811 8.00005C13.585 6.53328 13.0007 5.12596 11.9587 4.09207ZM2.99562 10.2669C3.23206 10.792 3.54958 11.2768 3.9366 11.7035C3.51788 11.9597 3.13856 12.1717 2.78073 12.3498C2.52628 12.481 2.26209 12.5924 1.9905 12.6831C1.8693 12.7241 1.74337 12.7495 1.61574 12.7588C1.57772 12.762 1.53944 12.7582 1.50276 12.7478C1.49527 12.7445 1.49136 12.7422 1.49071 12.7422C1.48942 12.7407 1.48822 12.739 1.48713 12.7374C1.47952 12.7017 1.47952 12.6648 1.48713 12.6291C1.49651 12.5695 1.51178 12.5111 1.53271 12.4545C1.58004 12.3253 1.63729 12.1998 1.70398 12.0794C1.84464 11.8238 2.00101 11.5771 2.17218 11.3407C2.42127 10.9864 2.68533 10.6489 2.9953 10.2669H2.99562ZM6.11875 10.911C6.68919 10.4903 7.14569 10.1382 7.55463 9.80271C8.00496 9.43795 8.46893 9.04231 8.93519 8.62456L8.99409 8.56962C9.40794 8.1834 9.83577 7.78353 10.2477 7.38106C10.2921 7.33692 10.2949 7.26608 10.2542 7.21852C10.2125 7.17144 10.1414 7.16452 10.0914 7.20259C9.63782 7.55272 9.18655 7.9178 8.75024 8.2689L8.67927 8.32612C8.27258 8.64797 7.83272 8.98574 7.25574 9.4204L7.20366 9.45908C6.74781 9.79653 6.277 10.1457 5.80356 10.474C5.27089 10.8479 4.8284 11.1454 4.41946 11.4041C3.5497 10.4844 3.06632 9.26662 3.06888 8.00167C3.06546 6.68321 3.59034 5.41816 4.52658 4.48836C5.45779 3.55353 6.72482 3.02945 8.04533 3.03291C9.36578 3.02937 10.6328 3.55333 11.564 4.48804C12.5001 5.41793 13.0249 6.68295 13.0214 8.00135C13.0249 9.31988 12.5002 10.585 11.564 11.515C10.6328 12.4497 9.36581 12.9738 8.04533 12.9705C6.86991 12.9712 5.73237 12.5557 4.83494 11.7978C5.27154 11.5108 5.70298 11.2136 6.11842 10.911H6.11875Z" fill="#322965"/>
<path d="M14.9998 2.84267C14.9998 2.84267 13.6743 2.63136 13.2318 3.0153L12.4204 3.71946L12.3452 3.78448L12.3071 3.81699C12.3071 3.81699 10.9226 3.72531 10.6231 3.98506L10.3147 4.25294L10.2005 4.35047L10.0771 4.45775L10.0445 4.48506L10.6859 5.22173C10.488 5.39338 10.6299 5.88005 11.0031 6.30854C11.3762 6.73702 11.8389 6.94508 12.0368 6.7731L12.6783 7.50977L12.6981 7.49254L12.9475 7.27603L13.2559 7.00815C13.5554 6.74807 13.657 5.36672 13.657 5.36672L13.7339 5.30008L13.7964 5.24611L14.582 4.56341C15.0235 4.18337 14.9998 2.84267 14.9998 2.84267ZM11.0096 4.94377L11.0545 4.90476L11.0096 4.94377ZM13.4841 5.51984L13.4405 5.55755L13.4841 5.51984Z" fill="#ED5735"/>
</svg>
