<svg xmlns="http://www.w3.org/2000/svg" width="16" height="16" viewBox="0 0 16 16">
  <path fill="#AFB1B3" d="M15.411782,3.26915988 C14.8856586,2.30291422 13.9453191,2.01413641 13.2809887,2.00044611 C12.4659087,1.98365356 11.7964871,2.44470668 11.9230952,2.74737711 C11.9502713,2.81235548 12.1030777,3.15154464 12.196879,3.29154994 C12.3326583,3.49413951 12.5757257,3.33848814 12.6608617,3.29225806 C12.9150895,3.15424223 13.1867828,3.10956328 13.4949582,3.1462506 C13.7895455,3.18131937 14.1809013,3.36677919 14.4434573,3.88205401 C15.0613253,5.09475891 13.153976,7.59064349 10.7664935,5.86225912 C8.37897727,4.13387474 6.05724334,4.70657467 5.00607535,5.05493565 C3.95494106,5.4032292 3.47177332,5.75351221 3.88713574,6.56356698 C4.45159568,7.66438904 4.26449884,7.32661614 4.81183043,8.23786454 C5.68119521,9.68515927 7.58416127,7.57182773 7.58416127,7.57182773 C6.16655453,9.70626797 4.95135228,9.19055476 4.48524548,8.44439933 C4.06519636,7.77188831 3.73881369,6.99656509 3.73881369,6.99656509 C0.148334564,8.28999559 1.11976134,14 1.11976134,14 L2.90282898,14 C3.35743823,11.89756 4.98281046,11.9750823 5.2613821,14 L6.62193929,14 C7.82520568,9.89459397 10.8749281,14 10.8749281,14 L12.6484874,14 C12.1517654,11.1994893 13.6461462,10.3196342 14.5879018,8.67807869 C15.5297586,7.03638836 16.4219162,5.02806084 15.411782,3.26915988 L15.411782,3.26915988 Z"/>
</svg>
