<svg xmlns="http://www.w3.org/2000/svg" width="16" height="16" viewBox="0 0 16 16">
  <g fill="none" fill-rule="evenodd">
    <path fill="#6E6E6E" fill-rule="nonzero" d="M8,10.5830161 L8,8 L3.18060694,8 C3.43979109,6.84409104 4.03649973,5.70851416 5.32624674,5.24389703 C5.32624674,5.24389703 5.60346407,5.90242781 5.96023822,6.47363372 C6.35613204,7.10739046 7.38827976,7.54541813 8.59234232,5.73250377 C8.59234232,5.73250377 6.97603355,7.52748919 6.23762736,6.29821073 C5.77274421,5.52423015 5.93165732,5.81112192 5.452226,4.8761245 C5.09943257,4.18809403 5.50981732,3.89057663 6.40261179,3.59474901 C7.29543488,3.29886412 9.26742955,2.81243404 11.2952972,4.28045961 C13.3231363,5.74848518 14.9431681,3.62857341 14.4183739,2.59854686 C14.1953686,2.16089154 13.8629655,2.00336885 13.612754,1.97358274 C13.3510012,1.94242188 13.120235,1.98037053 12.9043033,2.09759606 C12.831992,2.13686217 12.6255395,2.26906667 12.5102137,2.09699461 C12.4305423,1.97807929 12.3007542,1.68998461 12.2776718,1.63479439 C12.1701356,1.37771735 12.7387175,0.986115942 13.4310162,1.00037891 C13.9952738,1.01200695 14.7939633,1.2572841 15.240833,2.07797732 C16.0988035,3.57192255 15.3410379,5.27772143 14.5410597,6.6721123 C13.7411675,8.06638862 12.4718958,8.81370491 12.8937931,11.1923548 L11.3873976,11.1923548 C11.3873976,11.1923548 9.13207308,8.15633333 8,10.5830161 Z"/>
    <g fill="#6E6E6E" transform="rotate(180 3.5 8)">
      <rect width="2" height="5" x="2.765" y=".729" transform="rotate(45 3.765 3.23)"/>
      <polygon points="0 2 5 7 0 7"/>
    </g>
  </g>
</svg>
