<!-- Copyright 2000-2024 JetBrains s.r.o. and contributors. Use of this source code is governed by the Apache 2.0 license. -->
<svg width="16" height="16" viewBox="0 0 16 16" fill="none" xmlns="http://www.w3.org/2000/svg">
<path fill-rule="evenodd" clip-rule="evenodd" d="M15.565 10.3794C15.3324 10.1419 15.0185 10.0059 14.6895 10.0002C14.3605 9.99443 14.0422 10.1193 13.8018 10.3485C13.7897 10.3602 13.7801 10.3743 13.7736 10.3899C13.767 10.4055 13.7636 10.4223 13.7636 10.4393C13.7636 10.4562 13.767 10.473 13.7736 10.4887C13.7801 10.5043 13.7897 10.5183 13.8018 10.53L13.9547 10.6898C13.9754 10.7107 14.0028 10.7234 14.0319 10.7254C14.0609 10.7274 14.0898 10.7186 14.113 10.7007C14.2597 10.5811 14.4459 10.524 14.6329 10.5414C14.8198 10.5587 14.9929 10.6492 15.116 10.7938C15.2391 10.9385 15.3027 11.1261 15.2934 11.3174C15.2841 11.5088 15.2027 11.6891 15.0662 11.8206C14.6477 12.2474 14.171 11.9997 13.5378 11.6708C12.647 11.2079 11.4465 10.5842 9.66257 11.4521C9.61107 11.4774 9.56524 11.5132 9.52801 11.5575C9.49077 11.6017 9.46292 11.6533 9.4462 11.7091C9.42949 11.7649 9.42428 11.8236 9.43092 11.8815C9.43755 11.9394 9.45587 11.9953 9.48474 12.0457L10.0085 12.9687C10.0373 13.0199 10.0761 13.0638 10.1218 13.0981C10.1325 13.1059 10.1437 13.1131 10.1551 13.1198C10.2177 13.1565 10.2883 13.1754 10.3598 13.1752L10.3613 13.1752C10.4297 13.1753 10.4972 13.1575 10.5574 13.123L10.5609 13.121C10.9107 12.9279 11.231 12.7004 11.5244 12.4307C11.6261 12.3372 11.7842 12.3439 11.8777 12.4455C11.9711 12.5471 11.9645 12.7053 11.8628 12.7987C11.539 13.0965 11.1863 13.3468 10.8042 13.5578C10.669 13.6348 10.5164 13.6754 10.3609 13.6752C10.1998 13.6756 10.0417 13.6328 9.90255 13.5513C9.76323 13.4698 9.64805 13.3526 9.56811 13.2121L9.09541 12.3796C8.27149 13.1021 7.7946 14.3497 8.08603 15.8992C8.0912 15.9274 8.10583 15.9529 8.12742 15.9713C8.149 15.9897 8.17619 15.9998 8.2043 16H8.76271C8.79347 16.0008 8.82338 15.9896 8.84635 15.9687C8.86931 15.9478 8.8836 15.9187 8.88631 15.8874C8.91254 15.6847 9.01007 15.4986 9.16073 15.3638C9.31138 15.229 9.5049 15.1547 9.70525 15.1547C9.9056 15.1547 10.0991 15.229 10.2498 15.3638C10.4004 15.4986 10.498 15.6847 10.5242 15.8874C10.5277 15.9172 10.5417 15.9446 10.5637 15.9645C10.5856 15.9844 10.614 15.9954 10.6433 15.9954H11.1893C11.2186 15.9952 11.2469 15.9841 11.2688 15.9643C11.2907 15.9444 11.3048 15.9171 11.3085 15.8874C11.3347 15.6847 11.4322 15.4986 11.5829 15.3638C11.7336 15.229 11.9271 15.1547 12.1274 15.1547C12.3278 15.1547 12.5213 15.229 12.6719 15.3638C12.8226 15.4986 12.9201 15.6847 12.9464 15.8874C12.95 15.9171 12.9641 15.9444 12.986 15.9643C13.008 15.9841 13.0362 15.9952 13.0655 15.9954H13.6079C13.6397 15.9954 13.6702 15.9827 13.6928 15.9599C13.7154 15.9372 13.7284 15.9062 13.7288 15.8738C13.7413 15.0933 13.9476 14.1966 14.5354 13.7474C16.5716 12.1927 16.0363 10.8604 15.565 10.3794ZM12.6279 12.7721L13.4922 13.2142C13.5665 13.158 13.6256 13.0853 13.6637 12.9993C13.7018 12.9132 13.7176 12.8186 13.7097 12.7245C13.7018 12.6304 13.6705 12.5399 13.6186 12.4617C13.5667 12.3835 13.4961 12.3201 13.4135 12.2776C13.3308 12.2352 13.2389 12.215 13.1464 12.2191C13.054 12.2232 12.9641 12.2513 12.8853 12.3009C12.8066 12.3505 12.7416 12.4198 12.6965 12.5023C12.6515 12.5848 12.6278 12.6777 12.6279 12.7721Z" fill="#548AF7"/>
<path d="M1 3.86667C1 2.83574 1.73127 2 2.63333 2H6.1217C6.39413 2 6.65477 2.11115 6.84336 2.30775L8.46667 4L13 4C14.1046 4 15 4.89543 15 6V9.00019H14.6975C14.1063 8.99248 13.5387 9.21829 13.1124 9.62462L13.1072 9.62955L13.1055 9.63119C12.9964 9.73724 12.9105 9.86373 12.8522 10.0024C12.8195 10.0802 12.7957 10.1612 12.7812 10.2439C12.5697 10.1751 12.3421 10.1162 12.0993 10.0759C11.2547 9.93571 10.2982 10.031 9.22485 10.5533L9.22277 10.5543C9.04568 10.6411 8.88945 10.7639 8.76346 10.9135C8.63751 11.0631 8.54439 11.2366 8.48877 11.4221C8.46921 11.4874 8.4544 11.5539 8.44437 11.621L8.4366 11.6278C7.76612 12.2157 7.29304 13.0363 7.0988 14H2.63333C1.73127 14 1 13.1643 1 12.1333V3.86667Z" fill="#43454A"/>
<path d="M6.1217 3L2.63333 3C2.40481 3 2 3.25841 2 3.86667V12.1333C2 12.7416 2.40481 13 2.63333 13H7.42186C7.27921 13.311 7.17018 13.6459 7.0988 14H2.63333C1.73127 14 1 13.1643 1 12.1333V3.86667C1 2.83574 1.73127 2 2.63333 2H6.1217C6.39413 2 6.65477 2.11115 6.84336 2.30775L8.46667 4L13 4C14.1046 4 15 4.89543 15 6V9.00019H14.6975C14.4586 8.99708 14.2235 9.03211 14 9.10179V6C14 5.44771 13.5523 5 13 5H8.04022L6.1217 3Z" fill="#CED0D6"/>
</svg>
