<svg xmlns="http://www.w3.org/2000/svg" width="13" height="13" viewBox="0 0 13 13">
  <path fill="#AFB1B3" d="M12.6095734,1.61045009 C12.1492422,0.765034471 11.3264931,0.51236864 10.745238,0.500390322 C10.0320846,0.485697702 9.44637485,0.889095635 9.55715052,1.1539168 C9.58092819,1.21076957 9.71462603,1.50754275 9.79669738,1.63004025 C9.91549729,1.80729577 10.1281689,1.67110877 10.2026585,1.63065982 C10.4250948,1.50990301 10.6628127,1.47081121 10.9324504,1.50291074 C11.1901993,1.53359412 11.5326156,1.695862 11.7623386,2.14670116 C12.3029416,3.20775602 10.6341084,5.39152757 8.54518306,3.8792795 C6.45622831,2.36703143 4.42482968,2.86811463 3.50511136,3.1729127 C2.58542254,3.47765176 2.16267544,3.78413151 2.52609635,4.49288807 C3.01996996,5.45605116 2.85626979,5.16051713 3.33515698,5.95781294 C4.09580676,7.22412193 5.76080489,5.37506474 5.76080489,5.37506474 C4.52047139,7.24259096 3.45723147,6.79136824 3.04941183,6.13852033 C2.68189029,5.55010753 2.39632212,4.87173931 2.39632212,4.87173931 C-0.745163767,6.00342494 0.104785054,10.9993872 0.104785054,10.9993872 L1.66487819,10.9993872 C2.06263807,9.15985962 3.48475578,9.22768761 3.72849173,10.9993872 L4.9189098,10.9993872 C5.97170644,7.40736659 8.64005779,10.9993872 8.64005779,10.9993872 L10.1918317,10.9993872 C9.75722525,8.54908335 11.0647322,7.77925506 11.8887202,6.34297784 C12.7127968,4.90658263 13.4933892,3.14939861 12.6095734,1.61045009 L12.6095734,1.61045009 Z"/>
</svg>
