<svg width="16" height="16" viewBox="0 0 16 16" fill="none" xmlns="http://www.w3.org/2000/svg">
<path fill-rule="evenodd" clip-rule="evenodd" d="M3 2C1.89543 2 1 2.89543 1 4V11C1 12.1046 1.89543 13 3 13H6C7.10457 13 8 12.1046 8 11V4C8 2.89543 7.10457 2 6 2H3ZM6 3H3C2.44772 3 2 3.44772 2 4V7H7V4C7 3.44772 6.55228 3 6 3ZM2 11V8H7V11C7 11.5523 6.55228 12 6 12H3C2.44772 12 2 11.5523 2 11Z" fill="#6C707E"/>
<path d="M13 5.5C13 5.22386 12.7761 5 12.5 5C12.2239 5 12 5.22386 12 5.5V7H10.5C10.2239 7 10 7.22386 10 7.5C10 7.77614 10.2239 8 10.5 8H12V9.5C12 9.77614 12.2239 10 12.5 10C12.7761 10 13 9.77614 13 9.5V8H14.5C14.7761 8 15 7.77614 15 7.5C15 7.22386 14.7761 7 14.5 7H13V5.5Z" fill="#6C707E"/>
</svg>
