<svg width="16" height="16" viewBox="0 0 16 16" fill="none" xmlns="http://www.w3.org/2000/svg">
<path fill-rule="evenodd" clip-rule="evenodd" d="M10 2C8.89543 2 8 2.89543 8 4V11C8 12.1046 8.89543 13 10 13H13C14.1046 13 15 12.1046 15 11V4C15 2.89543 14.1046 2 13 2H10ZM13 3H10C9.44772 3 9 3.44772 9 4V7H14V4C14 3.44772 13.5523 3 13 3ZM10 12C9.44772 12 9 11.5523 9 11V8H14V11C14 11.5523 13.5523 12 13 12H10Z" fill="#6C707E"/>
<path d="M4 5.5C4 5.22386 3.77614 5 3.5 5C3.22386 5 3 5.22386 3 5.5V7H1.5C1.22386 7 1 7.22386 1 7.5C1 7.77614 1.22386 8 1.5 8H3V9.5C3 9.77614 3.22386 10 3.5 10C3.77614 10 4 9.77614 4 9.5V8H5.5C5.77614 8 6 7.77614 6 7.5C6 7.22386 5.77614 7 5.5 7H4V5.5Z" fill="#6C707E"/>
</svg>
