<svg width="16" height="16" viewBox="0 0 16 16" fill="none" xmlns="http://www.w3.org/2000/svg">
<path d="M8 1.5C8 1.22386 7.77614 1 7.5 1C7.22386 1 7 1.22386 7 1.5V3H5.5C5.22386 3 5 3.22386 5 3.5C5 3.77614 5.22386 4 5.5 4H7V5.5C7 5.77614 7.22386 6 7.5 6C7.77614 6 8 5.77614 8 5.5V4H9.5C9.77614 4 10 3.77614 10 3.5C10 3.22386 9.77614 3 9.5 3H8V1.5Z" fill="#CED0D6"/>
<path fill-rule="evenodd" clip-rule="evenodd" d="M2 13C2 14.1046 2.89543 15 4 15H11C12.1046 15 13 14.1046 13 13V10C13 8.89543 12.1046 8 11 8H4C2.89543 8 2 8.89543 2 10V13ZM3 10L3 13C3 13.5523 3.44772 14 4 14H7L7 9H4C3.44772 9 3 9.44772 3 10ZM12 13C12 13.5523 11.5523 14 11 14H8L8 9H11C11.5523 9 12 9.44772 12 10V13Z" fill="#CED0D6"/>
</svg>
