<svg width="16" height="16" viewBox="0 0 16 16" fill="none" xmlns="http://www.w3.org/2000/svg">
<path fill-rule="evenodd" clip-rule="evenodd" d="M2 6C2 7.10457 2.89543 8 4 8L11 8C12.1046 8 13 7.10457 13 6V3C13 1.89543 12.1046 1 11 1H4C2.89543 1 2 1.89543 2 3V6ZM3 3L3 6C3 6.55229 3.44772 7 4 7H7L7 2L4 2C3.44772 2 3 2.44772 3 3ZM11 7H8L8 2L11 2C11.5523 2 12 2.44772 12 3V6C12 6.55228 11.5523 7 11 7Z" fill="#CED0D6"/>
<path d="M8 10.5C8 10.2239 7.77614 10 7.5 10C7.22386 10 7 10.2239 7 10.5V12H5.5C5.22386 12 5 12.2239 5 12.5C5 12.7761 5.22386 13 5.5 13H7V14.5C7 14.7761 7.22386 15 7.5 15C7.77614 15 8 14.7761 8 14.5V13H9.5C9.77614 13 10 12.7761 10 12.5C10 12.2239 9.77614 12 9.5 12H8V10.5Z" fill="#CED0D6"/>
</svg>
