<svg width="16" height="16" viewBox="0 0 16 16" fill="none" xmlns="http://www.w3.org/2000/svg">
<path fill-rule="evenodd" clip-rule="evenodd" d="M5 3.75C5 3.33579 5.33579 3 5.75 3H8.75C10.2688 3 11.5 4.23122 11.5 5.75C11.5 6.45903 11.2317 7.10539 10.791 7.59306C11.5248 8.13996 12 9.01448 12 10C12 11.6569 10.6569 13 9 13H5.75C5.33579 13 5 12.6642 5 12.25V3.75ZM6.5 8.5V11.5H9C9.82843 11.5 10.5 10.8284 10.5 10C10.5 9.17157 9.82843 8.5 9 8.5H6.5ZM6.5 7H8.75C9.44036 7 10 6.44036 10 5.75C10 5.05964 9.44036 4.5 8.75 4.5H6.5V7Z" fill="#CED0D6"/>
</svg>
