<svg width="16" height="16" viewBox="0 0 16 16" fill="none" xmlns="http://www.w3.org/2000/svg">
<path d="M3.5 3.25C3.91421 3.25 4.25 2.91421 4.25 2.5C4.25 2.08579 3.91421 1.75 3.5 1.75C3.08579 1.75 2.75 2.08579 2.75 2.5C2.75 2.91421 3.08579 3.25 3.5 3.25Z" fill="#CED0D6"/>
<path d="M7.5 2C7.22386 2 7 2.22386 7 2.5C7 2.77614 7.22386 3 7.5 3H13.5C13.7761 3 14 2.77614 14 2.5C14 2.22386 13.7761 2 13.5 2H7.5Z" fill="#CED0D6"/>
<path d="M7.5 7C7.22386 7 7 7.22386 7 7.5C7 7.77614 7.22386 8 7.5 8H13.5C13.7761 8 14 7.77614 14 7.5C14 7.22386 13.7761 7 13.5 7H7.5Z" fill="#CED0D6"/>
<path d="M7.5 12C7.22386 12 7 12.2239 7 12.5C7 12.7761 7.22386 13 7.5 13H13.5C13.7761 13 14 12.7761 14 12.5C14 12.2239 13.7761 12 13.5 12H7.5Z" fill="#CED0D6"/>
<path d="M3.5 8.25C3.91421 8.25 4.25 7.91421 4.25 7.5C4.25 7.08579 3.91421 6.75 3.5 6.75C3.08579 6.75 2.75 7.08579 2.75 7.5C2.75 7.91421 3.08579 8.25 3.5 8.25Z" fill="#CED0D6"/>
<path d="M4.25 12.5C4.25 12.9142 3.91421 13.25 3.5 13.25C3.08579 13.25 2.75 12.9142 2.75 12.5C2.75 12.0858 3.08579 11.75 3.5 11.75C3.91421 11.75 4.25 12.0858 4.25 12.5Z" fill="#CED0D6"/>
</svg>
