<svg width="16" height="16" viewBox="0 0 16 16" fill="none" xmlns="http://www.w3.org/2000/svg">
<path d="M11.7725 6.28814C12.0654 5.99525 12.0654 5.52038 11.7725 5.22748C11.4796 4.93459 11.0048 4.93459 10.7119 5.22748L7 8.93934L5.28033 7.21967C4.98744 6.92678 4.51256 6.92678 4.21967 7.21967C3.92678 7.51256 3.92678 7.98744 4.21967 8.28033L6.46967 10.5303C6.76256 10.8232 7.23744 10.8232 7.53033 10.5303L11.7725 6.28814Z" fill="#6C707E"/>
<path fill-rule="evenodd" clip-rule="evenodd" d="M2 4V12C2 13.1046 2.89543 14 4 14H12C13.1046 14 14 13.1046 14 12V4C14 2.89543 13.1046 2 12 2H4C2.89543 2 2 2.89543 2 4ZM3 12V4C3 3.44772 3.44772 3 4 3H12C12.5523 3 13 3.44772 13 4V12C13 12.5523 12.5523 13 12 13H4C3.44772 13 3 12.5523 3 12Z" fill="#6C707E"/>
</svg>
