<svg width="16" height="16" viewBox="0 0 16 16" fill="none" xmlns="http://www.w3.org/2000/svg">
<path d="M5.85355 4.35355C6.04882 4.15829 6.04882 3.84171 5.85355 3.64645C5.65829 3.45118 5.34171 3.45118 5.14645 3.64645L1.14645 7.64645C0.951184 7.84171 0.951184 8.15829 1.14645 8.35355L5.14645 12.3536C5.34171 12.5488 5.65829 12.5488 5.85355 12.3536C6.04882 12.1583 6.04882 11.8417 5.85355 11.6464L2.20711 8L5.85355 4.35355Z" fill="#CED0D6"/>
<path d="M10.8536 3.64645C10.6583 3.45118 10.3417 3.45118 10.1464 3.64645C9.95118 3.84171 9.95118 4.15829 10.1464 4.35355L13.7929 8L10.1464 11.6464C9.95118 11.8417 9.95118 12.1583 10.1464 12.3536C10.3417 12.5488 10.6583 12.5488 10.8536 12.3536L14.8536 8.35355C15.0488 8.15829 15.0488 7.84171 14.8536 7.64645L10.8536 3.64645Z" fill="#CED0D6"/>
</svg>
