<svg width="16" height="16" viewBox="0 0 16 16" fill="none" xmlns="http://www.w3.org/2000/svg">
<path d="M3 4.5C3 4.22386 2.77614 4 2.5 4C2.22386 4 2 4.22386 2 4.5V11.5C2 11.7761 2.22386 12 2.5 12C2.77614 12 3 11.7761 3 11.5V8H7V11.5C7 11.7761 7.22386 12 7.5 12C7.77614 12 8 11.7761 8 11.5V4.5C8 4.22386 7.77614 4 7.5 4C7.22386 4 7 4.22386 7 4.5V7H3V4.5Z" fill="#6C707E"/>
<path d="M13 4.5C13 4.22386 12.7761 4 12.5 4C12.2239 4 12 4.22386 12 4.5V10.2929L10.8536 9.14645C10.6583 8.95118 10.3417 8.95118 10.1464 9.14645C9.95118 9.34171 9.95118 9.65829 10.1464 9.85355L12.1464 11.8536C12.3417 12.0488 12.6583 12.0488 12.8536 11.8536L14.8536 9.85355C15.0488 9.65829 15.0488 9.34171 14.8536 9.14645C14.6583 8.95118 14.3417 8.95118 14.1464 9.14645L13 10.2929V4.5Z" fill="#6C707E"/>
</svg>
