<svg width="16" height="16" viewBox="0 0 16 16" fill="none" xmlns="http://www.w3.org/2000/svg">
<path d="M3 4.5C3 4.22386 2.77614 4 2.5 4C2.22386 4 2 4.22386 2 4.5V11.5C2 11.7761 2.22386 12 2.5 12C2.77614 12 3 11.7761 3 11.5V8H7V11.5C7 11.7761 7.22386 12 7.5 12C7.77614 12 8 11.7761 8 11.5V4.5C8 4.22386 7.77614 4 7.5 4C7.22386 4 7 4.22386 7 4.5V7H3V4.5Z" fill="#CED0D6"/>
<path d="M12.8536 4.14645C12.7598 4.05268 12.6326 4 12.5 4C12.3674 4 12.2402 4.05268 12.1464 4.14645L10.1464 6.14645C9.95118 6.34171 9.95118 6.65829 10.1464 6.85355C10.3417 7.04882 10.6583 7.04882 10.8536 6.85355L12 5.70711V11.5C12 11.7761 12.2239 12 12.5 12C12.7761 12 13 11.7761 13 11.5V5.70711L14.1464 6.85355C14.3417 7.04882 14.6583 7.04882 14.8536 6.85355C15.0488 6.65829 15.0488 6.34171 14.8536 6.14645L12.8536 4.14645Z" fill="#CED0D6"/>
</svg>
