<svg width="16" height="16" viewBox="0 0 16 16" fill="none" xmlns="http://www.w3.org/2000/svg">
<path d="M7 2.5C7 2.22386 7.22386 2 7.5 2H13.5C13.7761 2 14 2.22386 14 2.5C14 2.77614 13.7761 3 13.5 3H7.5C7.22386 3 7 2.77614 7 2.5Z" fill="#6C707E"/>
<path d="M7 7.5C7 7.22386 7.22386 7 7.5 7H13.5C13.7761 7 14 7.22386 14 7.5C14 7.77614 13.7761 8 13.5 8H7.5C7.22386 8 7 7.77614 7 7.5Z" fill="#6C707E"/>
<path d="M7.5 13C7.22386 13 7 12.7761 7 12.5C7 12.2239 7.22386 12 7.5 12H13.5C13.7761 12 14 12.2239 14 12.5C14 12.7761 13.7761 13 13.5 13H7.5Z" fill="#6C707E"/>
<path d="M3.76298 2.07468C3.91038 2.16578 4.00011 2.32671 4.00011 2.5V5H4.50011C4.77625 5 5.00011 5.22386 5.00011 5.5C5.00011 5.77614 4.77625 6 4.50011 6H2.50011C2.22397 6 2.00011 5.77614 2.00011 5.5C2.00011 5.22386 2.22397 5 2.50011 5H3.00011V3.30902L2.72372 3.44721C2.47673 3.57071 2.17639 3.4706 2.0529 3.22361C1.9294 2.97662 2.02951 2.67628 2.2765 2.55279L3.2765 2.05279C3.4315 1.97529 3.61557 1.98357 3.76298 2.07468Z" fill="#6C707E"/>
<path d="M3.50001 8.5C2.67159 8.5 2.00001 9.17157 2.00001 10C2.00001 10.2761 2.22387 10.5 2.50001 10.5C2.77616 10.5 3.00001 10.2761 3.00001 10C3.00001 9.72386 3.22387 9.5 3.50001 9.5C3.77616 9.5 4.00001 9.72386 4.00001 10V10.0607C4.00001 10.2094 3.94095 10.352 3.8358 10.4571L2.14646 12.1464C2.00346 12.2894 1.96068 12.5045 2.03807 12.6913C2.11547 12.8782 2.29778 13 2.50001 13H4.50001C4.77616 13 5.00001 12.7761 5.00001 12.5C5.00001 12.2239 4.77616 12 4.50001 12H3.70712L4.54291 11.1642C4.83559 10.8715 5.00001 10.4746 5.00001 10.0607V10C5.00001 9.17157 4.32844 8.5 3.50001 8.5Z" fill="#6C707E"/>
</svg>
