<svg width="16" height="16" viewBox="0 0 16 16" fill="none" xmlns="http://www.w3.org/2000/svg">
<path d="M10.2256 5.55682C10.1687 5.07702 9.93831 4.70455 9.53427 4.43939C9.13023 4.17424 8.63465 4.04167 8.04753 4.04167C7.61823 4.04167 7.2426 4.11111 6.92063 4.25C6.60182 4.38889 6.35245 4.57986 6.17253 4.82292C5.99576 5.06597 5.90737 5.34217 5.90737 5.65152C5.90737 5.91035 5.96893 6.13289 6.09203 6.31913C6.2183 6.50221 6.37928 6.6553 6.57499 6.77841C6.71188 6.86231 6.85341 6.93618 6.99957 7H5.16704C4.90302 6.64394 4.77101 6.21338 4.77101 5.70833C4.77101 5.1654 4.91779 4.69192 5.21135 4.28788C5.50807 3.88068 5.9058 3.56503 6.40453 3.34091C6.90643 3.11364 7.46672 3 8.0854 3C8.7104 3 9.26596 3.11206 9.75207 3.33617C10.2382 3.55713 10.6233 3.86016 10.9074 4.24527C11.1946 4.63037 11.3461 5.06755 11.3619 5.55682H10.2256Z" fill="#6C707E"/>
<path d="M13.5 8C13.7761 8 14 8.22386 14 8.5C14 8.77614 13.7761 9 13.5 9H11.1869C11.1964 9.01533 11.2058 9.03079 11.2151 9.0464C11.4014 9.3589 11.4945 9.74243 11.4945 10.197C11.4945 10.721 11.3572 11.1944 11.0826 11.6174C10.8111 12.0404 10.4134 12.3766 9.88938 12.6259C9.36855 12.8753 8.73566 13 7.99071 13C7.29626 13 6.69494 12.8879 6.18673 12.6638C5.68168 12.4397 5.28395 12.1272 4.99355 11.7263C4.7063 11.3254 4.54374 10.8598 4.50586 10.3295H5.71798C5.74955 10.6957 5.87265 10.9987 6.0873 11.2386C6.3051 11.4754 6.57972 11.6521 6.91116 11.7689C7.24576 11.8826 7.60561 11.9394 7.99071 11.9394C8.43894 11.9394 8.8414 11.8668 9.19809 11.7216C9.55479 11.5732 9.8373 11.3681 10.0456 11.1061C10.254 10.8409 10.3581 10.5316 10.3581 10.178C10.3581 9.85606 10.2682 9.59407 10.0882 9.39205C9.95272 9.23987 9.78495 9.10919 9.58494 9H2.5C2.22386 9 2 8.77614 2 8.5C2 8.22386 2.22386 8 2.5 8H13.5Z" fill="#6C707E"/>
</svg>
