<svg width="40" height="40" viewBox="0 0 40 40" fill="none" xmlns="http://www.w3.org/2000/svg">
<path d="M22 35H18L18 10H5V6H35V10H22L22 35Z" fill="white"/>
<path d="M2 15H5.26644L11.9418 25.2389V15H15V30H11.7116L5.05818 19.816V30H2V15Z" fill="#C51515"/>
<path d="M31.9305 30.2988C30.5081 30.2988 29.2307 29.967 28.0985 29.3033C26.9733 28.6396 26.0922 27.7191 25.4553 26.5416C24.8184 25.3641 24.5 24.0332 24.5 22.5488C24.5 21.0645 24.8184 19.7336 25.4553 18.5561C26.0922 17.3786 26.9733 16.458 28.0985 15.7943C29.2307 15.1307 30.5081 14.7988 31.9305 14.7988C33.1476 14.7988 34.2657 15.0415 35.2848 15.5267C36.3109 16.012 37.1459 16.6828 37.7899 17.5392C38.4339 18.3955 38.816 19.3518 38.9363 20.4079H35.8049C35.6917 19.8941 35.4511 19.4338 35.0831 19.0271C34.7151 18.6132 34.2587 18.2885 33.7138 18.053C33.1689 17.8103 32.5815 17.689 31.9517 17.689C31.1379 17.689 30.4125 17.896 29.7756 18.3099C29.1387 18.7166 28.6398 19.2875 28.2789 20.0226C27.9251 20.7576 27.7482 21.5997 27.7482 22.5488C27.7482 23.498 27.9251 24.34 28.2789 25.0751C28.6398 25.8101 29.1423 26.3846 29.7862 26.7985C30.4302 27.2124 31.1591 27.4193 31.9729 27.4193C32.6947 27.4193 33.3458 27.2766 33.9261 26.9912C34.5063 26.7057 34.9699 26.3096 35.3166 25.803C35.6634 25.2892 35.8544 24.7076 35.8898 24.0582L35.9111 24.497H32.6098V21.9922H39V23.266C39 24.6076 38.6957 25.8137 38.0871 26.8841C37.4856 27.9546 36.647 28.7931 35.5714 29.3997C34.4957 29.9991 33.2821 30.2988 31.9305 30.2988Z" fill="#FFC000"/>
</svg>
