<!-- Copyright 2000-2023 JetBrains s.r.o. and contributors. Use of this source code is governed by the Apache 2.0 license. -->
<svg width="16" height="16" viewBox="0 0 16 16" fill="none" xmlns="http://www.w3.org/2000/svg">
  <path
    d="M14.767 6.33694L14.7473 6.28664L12.8418 1.31365C12.803 1.21619 12.7344 1.1335 12.6457 1.07747C12.557 1.02239 12.4535 0.995859 12.3492 1.00146C12.2449 1.00707 12.1448 1.04454 12.0625 1.10882C11.9811 1.17494 11.9221 1.26453 11.8934 1.36541L10.6068 5.30181H5.39687L4.11025 1.36541C4.08235 1.26398 4.02317 1.17394 3.94113 1.10809C3.85882 1.04381 3.75876 1.00634 3.65447 1.00074C3.55019 0.99513 3.44669 1.02166 3.35796 1.07674C3.26948 1.133 3.2009 1.21561 3.16187 1.31292L1.25271 6.28373L1.23376 6.33403C0.959454 7.05075 0.925596 7.83722 1.13729 8.57486C1.34898 9.31251 1.79476 9.96133 2.40739 10.4235L2.41395 10.4286L2.43145 10.441L5.33418 12.6148L6.77024 13.7017L7.64499 14.3621C7.74732 14.4398 7.87225 14.4818 8.00073 14.4818C8.1292 14.4818 8.25414 14.4398 8.35646 14.3621L9.23122 13.7017L10.6673 12.6148L13.5875 10.4279L13.5948 10.4221C14.2061 9.95979 14.6508 9.31163 14.8622 8.57498C15.0735 7.83833 15.0401 7.05298 14.767 6.33694Z"
    fill="#E24329"/>
  <path
    d="M14.767 6.33692L14.7473 6.28662C13.8188 6.4772 12.9439 6.87049 12.185 7.43838L8 10.6028C9.42512 11.681 10.6658 12.6177 10.6658 12.6177L13.586 10.4308L13.5933 10.4249C14.2055 9.9627 14.6509 9.31412 14.8626 8.57685C15.0742 7.83957 15.0407 7.05348 14.767 6.33692Z"
    fill="#FC6D26"/>
  <path
    d="M5.33398 12.6177L6.77004 13.7046L7.6448 14.365C7.74712 14.4427 7.87206 14.4848 8.00053 14.4848C8.129 14.4848 8.25395 14.4427 8.35627 14.365L9.23102 13.7046L10.6671 12.6177C10.6671 12.6177 9.42493 11.6781 7.9998 10.6028C6.57468 11.6781 5.33398 12.6177 5.33398 12.6177Z"
    fill="#FCA326"/>
  <path
    d="M3.81429 7.43843C3.05602 6.86937 2.18127 6.47506 1.25271 6.28375L1.23376 6.33405C0.959454 7.05077 0.925596 7.83724 1.13729 8.57489C1.34898 9.31253 1.79476 9.96136 2.40739 10.4235L2.41395 10.4286L2.43145 10.441L5.33418 12.6148C5.33418 12.6148 6.57342 11.6781 8 10.5999L3.81429 7.43843Z"
    fill="#FC6D26"/>
</svg>
