<!-- Copyright 2000-2025 JetBrains s.r.o. and contributors. Use of this source code is governed by the Apache 2.0 license. -->
<svg width="16" height="16" viewBox="0 0 16 16" fill="none" xmlns="http://www.w3.org/2000/svg">
<path fill-rule="evenodd" clip-rule="evenodd" d="M8 2C4.68629 2 2 4.68629 2 8C2 11.3137 4.68629 14 8 14C11.3137 14 14 11.3137 14 8C14 4.68629 11.3137 2 8 2Z" fill="#43454A"/>
<path d="M6 7C6.55228 7 7 6.55228 7 6C7 5.44772 6.55228 5 6 5C5.44772 5 5 5.44772 5 6C5 6.55228 5.44772 7 6 7Z" fill="#CED0D6"/>
<path d="M11 6C11 6.55228 10.5523 7 10 7C9.44771 7 9 6.55228 9 6C9 5.44772 9.44771 5 10 5C10.5523 5 11 5.44772 11 6Z" fill="#CED0D6"/>
<path d="M7.99957 9.75C8.7464 9.75 9.2668 10.014 9.60113 10.2712C9.77018 10.4013 9.89257 10.5305 9.97095 10.6246C10.0295 10.6949 10.0628 10.7447 10.071 10.7574C10.2132 10.9939 10.52 11.0706 10.7567 10.9286C10.9935 10.7866 11.0704 10.4795 10.9284 10.2427L10.8736 10.1595C10.8424 10.1149 10.7978 10.0548 10.7392 9.9845C10.6224 9.84424 10.448 9.66102 10.2108 9.4786C9.73279 9.11087 9.00319 8.75 7.99957 8.75C6.99596 8.75 6.26648 9.11079 5.78852 9.47849C5.55143 9.66089 5.37708 9.84409 5.26027 9.98434C5.20172 10.0546 5.15716 10.1147 5.12597 10.1593C5.10693 10.1865 5.08833 10.214 5.07122 10.2425C4.92925 10.4794 5.00616 10.7865 5.24301 10.9284C5.47972 11.0703 5.78679 10.9934 5.92888 10.7569C5.93711 10.7442 5.97015 10.6946 6.02866 10.6243C6.10699 10.5303 6.2293 10.4011 6.39828 10.2711C6.73245 10.014 7.25271 9.75 7.99957 9.75Z" fill="#CED0D6"/>
<path fill-rule="evenodd" clip-rule="evenodd" d="M8 1C4.13401 1 1 4.13401 1 8C1 11.866 4.13401 15 8 15C11.866 15 15 11.866 15 8C15 4.13401 11.866 1 8 1ZM2 8C2 4.68629 4.68629 2 8 2C11.3137 2 14 4.68629 14 8C14 11.3137 11.3137 14 8 14C4.68629 14 2 11.3137 2 8Z" fill="#CED0D6"/>
</svg>
