<!-- Copyright 2000-2025 JetBrains s.r.o. and contributors. Use of this source code is governed by the Apache 2.0 license. -->
<svg width="16" height="16" viewBox="0 0 16 16" fill="none" xmlns="http://www.w3.org/2000/svg">
<path fill-rule="evenodd" clip-rule="evenodd" d="M8 2C4.68629 2 2 4.68629 2 8C2 11.3137 4.68629 14 8 14C11.3137 14 14 11.3137 14 8C14 4.68629 11.3137 2 8 2Z" fill="#EBECF0"/>
<path d="M6 7C6.55228 7 7 6.55228 7 6C7 5.44772 6.55228 5 6 5C5.44772 5 5 5.44772 5 6C5 6.55228 5.44772 7 6 7Z" fill="#6C707E"/>
<path d="M11 6C11 6.55228 10.5523 7 10 7C9.44771 7 9 6.55228 9 6C9 5.44772 9.44771 5 10 5C10.5523 5 11 5.44772 11 6Z" fill="#6C707E"/>
<path d="M8.00043 10.25C7.2536 10.25 6.7332 9.98595 6.39887 9.72877C6.22982 9.59874 6.10743 9.46949 6.02905 9.37541C5.9705 9.30514 5.93721 9.25532 5.92897 9.24258C5.78683 9.0061 5.47995 8.92943 5.24328 9.07137C5.00646 9.2134 4.92961 9.52051 5.07163 9.75733L5.1264 9.84054C5.15761 9.88514 5.20219 9.94521 5.26075 10.0155C5.37761 10.1558 5.55201 10.339 5.78916 10.5214C6.26721 10.8891 6.99681 11.25 8.00043 11.25C9.00404 11.25 9.73352 10.8892 10.2115 10.5215C10.4486 10.3391 10.6229 10.1559 10.7397 10.0157C10.7983 9.94537 10.8428 9.88531 10.874 9.84071C10.8931 9.8135 10.9117 9.78596 10.9288 9.75749C11.0708 9.52064 10.9938 9.21354 10.757 9.07157C10.5203 8.92968 10.2132 9.00659 10.0711 9.24311C10.0629 9.25584 10.0298 9.30543 9.97134 9.37568C9.89301 9.46972 9.7707 9.59892 9.60172 9.72892C9.26755 9.986 8.74729 10.25 8.00043 10.25Z" fill="#6C707E"/>
<path fill-rule="evenodd" clip-rule="evenodd" d="M8 1C4.13401 1 1 4.13401 1 8C1 11.866 4.13401 15 8 15C11.866 15 15 11.866 15 8C15 4.13401 11.866 1 8 1ZM2 8C2 4.68629 4.68629 2 8 2C11.3137 2 14 4.68629 14 8C14 11.3137 11.3137 14 8 14C4.68629 14 2 11.3137 2 8Z" fill="#6C707E"/>
</svg>
