<!-- Copyright 2000-2025 JetBrains s.r.o. and contributors. Use of this source code is governed by the Apache 2.0 license. -->
<svg width="16" height="16" viewBox="0 0 16 16" fill="none" xmlns="http://www.w3.org/2000/svg">
<path fill-rule="evenodd" clip-rule="evenodd" d="M8 2C4.68629 2 2 4.68629 2 8C2 11.3137 4.68629 14 8 14C11.3137 14 14 11.3137 14 8C14 4.68629 11.3137 2 8 2Z" fill="#EBECF0"/>
<path fill-rule="evenodd" clip-rule="evenodd" d="M11.5 9H4.5C4.34832 9 4.20484 9.06886 4.10994 9.18719C4.01505 9.30552 3.979 9.46053 4.01194 9.60859L4.05085 9.74809C4.07535 9.82519 4.11301 9.93055 4.16824 10.0547C4.2784 10.3025 4.46061 10.63 4.75162 10.9573C5.34622 11.6261 6.35708 12.2501 8.00033 12.2501C9.64358 12.2501 10.6543 11.6261 11.2488 10.9572C11.5397 10.6299 11.7218 10.3024 11.8319 10.0546C11.8871 9.93044 11.9248 9.82507 11.9492 9.74796C11.9637 9.70239 11.9773 9.65643 11.9878 9.60978C12.0208 9.46244 11.9846 9.30497 11.89 9.18714C11.7951 9.06883 11.6517 9 11.5 9ZM5.49896 10.2928C5.4108 10.1937 5.33663 10.0946 5.27452 10H10.7257C10.6636 10.0946 10.5895 10.1937 10.5013 10.2929C10.0959 10.7491 9.35675 11.2501 8.00033 11.2501C6.6439 11.2501 5.90461 10.7491 5.49896 10.2928Z" fill="#6C707E"/>
<path d="M5.11672 6.48366C5.05643 6.5421 5.01499 6.60043 4.98966 6.6421C4.97406 6.66777 4.96701 6.6819 4.96505 6.68602C4.86255 6.94116 4.573 7.0658 4.31705 6.96446C4.0603 6.86281 3.93457 6.57226 4.03622 6.31551L4.06615 6.24853C4.06615 6.24853 4.10488 6.17248 4.13512 6.12272C4.19524 6.0238 4.28759 5.89468 4.42066 5.76567C4.69412 5.50056 5.12736 5.24976 5.75111 5.24976C6.37486 5.24976 6.8081 5.50056 7.08156 5.76567C7.21463 5.89468 7.30698 6.0238 7.3671 6.12272C7.39734 6.17248 7.42001 6.21555 7.43607 6.24853C7.44659 6.27015 7.45666 6.29215 7.46559 6.31447C7.5663 6.56813 7.43917 6.86389 7.18517 6.96446C6.93088 7.06514 6.64343 6.94277 6.53919 6.69097C6.53291 6.67544 6.52415 6.66109 6.51544 6.64682L6.51256 6.6421C6.48723 6.60043 6.44579 6.5421 6.3855 6.48366C6.27225 6.37386 6.08048 6.24976 5.75111 6.24976C5.42174 6.24976 5.22997 6.37386 5.11672 6.48366Z" fill="#6C707E"/>
<path d="M9.48966 6.6421C9.51499 6.60043 9.55643 6.5421 9.61672 6.48366C9.72997 6.37386 9.92174 6.24976 10.2511 6.24976C10.5805 6.24976 10.7723 6.37386 10.8855 6.48366C10.9458 6.5421 10.9872 6.60043 11.0126 6.6421L11.0154 6.64682C11.0241 6.66109 11.0329 6.67544 11.0392 6.69097C11.1434 6.94277 11.4309 7.06514 11.6852 6.96446C11.9392 6.86389 12.0663 6.56813 11.9656 6.31447C11.9567 6.29215 11.9466 6.27015 11.9361 6.24853C11.92 6.21555 11.8973 6.17248 11.8671 6.12272C11.807 6.0238 11.7146 5.89468 11.5816 5.76567C11.3081 5.50056 10.8749 5.24976 10.2511 5.24976C9.62736 5.24976 9.19412 5.50056 8.92066 5.76567C8.78759 5.89468 8.69524 6.0238 8.63512 6.12272C8.60488 6.17248 8.56615 6.24853 8.56615 6.24853L8.53622 6.31551C8.43457 6.57226 8.5603 6.86281 8.81705 6.96446C9.073 7.0658 9.36255 6.94116 9.46505 6.68602C9.46701 6.6819 9.47406 6.66777 9.48966 6.6421Z" fill="#6C707E"/>
<path fill-rule="evenodd" clip-rule="evenodd" d="M8 1C4.13401 1 1 4.13401 1 8C1 11.866 4.13401 15 8 15C11.866 15 15 11.866 15 8C15 4.13401 11.866 1 8 1ZM2 8C2 4.68629 4.68629 2 8 2C11.3137 2 14 4.68629 14 8C14 11.3137 11.3137 14 8 14C4.68629 14 2 11.3137 2 8Z" fill="#6C707E"/>
</svg>
