<svg width="20" height="20" viewBox="0 0 20 20" fill="none" xmlns="http://www.w3.org/2000/svg">
<circle cx="10" cy="10" r="8.25" stroke="#6C707E" stroke-width="1.5"/>
<path d="M14.7353 11.75C14.8173 11.75 14.8733 11.787 14.8982 11.8185C14.9097 11.8329 14.9119 11.8424 14.9123 11.8448C14.9123 11.8449 14.9144 11.8519 14.9069 11.8713C14.1526 13.848 12.2391 15.25 10 15.25C7.76097 15.25 5.84749 13.848 5.09315 11.8713C5.0859 11.8523 5.0877 11.8452 5.08781 11.8448C5.08781 11.8448 5.08781 11.8448 5.08781 11.8448C5.08823 11.8424 5.09043 11.8329 5.10188 11.8185C5.12681 11.787 5.18277 11.75 5.26475 11.75H14.7353Z" stroke="#6C707E" stroke-width="1.5"/>
<path d="M8.5 7.75C8.5 7.75 8.25 6.75 7 6.75C5.75 6.75 5.5 7.75 5.5 7.75" stroke="#6C707E" stroke-width="1.5" stroke-linecap="round"/>
<path d="M14.5 7.75C14.5 7.75 14.25 6.75 13 6.75C11.75 6.75 11.5 7.75 11.5 7.75" stroke="#6C707E" stroke-width="1.5" stroke-linecap="round"/>
</svg>
