<svg width="16" height="16" viewBox="0 0 16 16" fill="none" xmlns="http://www.w3.org/2000/svg">
<path d="M11.8536 1.14645C11.6583 0.951184 11.3417 0.951184 11.1464 1.14645C10.9512 1.34171 10.9512 1.65829 11.1464 1.85355L12.2929 3H2.5C2.22386 3 2 3.22386 2 3.5C2 3.77614 2.22386 4 2.5 4H12.2929L11.1464 5.14645C10.9512 5.34171 10.9512 5.65829 11.1464 5.85355C11.3417 6.04882 11.6583 6.04882 11.8536 5.85355L13.8536 3.85355C14.0488 3.65829 14.0488 3.34171 13.8536 3.14645L11.8536 1.14645Z" fill="#CED0D6"/>
<path fill-rule="evenodd" clip-rule="evenodd" d="M4.5 15C3.11929 15 2 13.2091 2 11C2 8.79086 3.11929 7 4.5 7H11.5C12.8807 7 14 8.79086 14 11C14 13.2091 12.8807 15 11.5 15H4.5ZM3.58023 8.70157C3.92734 8.14619 4.27885 8 4.5 8H9.84636C9.32735 8.73294 9 9.80531 9 11C9 12.1947 9.32735 13.2671 9.84636 14H4.5C4.27885 14 3.92734 13.8538 3.58023 13.2984C3.24193 12.7571 3 11.9471 3 11C3 10.0529 3.24193 9.24286 3.58023 8.70157ZM11.5 14C11.7212 14 12.0727 13.8538 12.4198 13.2984C12.7581 12.7571 13 11.9471 13 11C13 10.0529 12.7581 9.24286 12.4198 8.70157C12.0727 8.14619 11.7212 8 11.5 8C11.2788 8 10.9273 8.14619 10.5802 8.70157C10.2419 9.24286 10 10.0529 10 11C10 11.9471 10.2419 12.7571 10.5802 13.2984C10.9273 13.8538 11.2788 14 11.5 14Z" fill="#CED0D6"/>
<path d="M4.5 8C4.27885 8 3.92734 8.14619 3.58023 8.70157C3.24193 9.24286 3 10.0529 3 11C3 11.9471 3.24193 12.7571 3.58023 13.2984C3.92734 13.8538 4.27885 14 4.5 14H9.84636C9.32735 13.2671 9 12.1947 9 11C9 9.80531 9.32735 8.73294 9.84636 8H4.5Z" fill="#43454A"/>
<path d="M12.4198 13.2984C12.0727 13.8538 11.7212 14 11.5 14C11.2788 14 10.9273 13.8538 10.5802 13.2984C10.2419 12.7571 10 11.9471 10 11C10 10.0529 10.2419 9.24286 10.5802 8.70157C10.9273 8.14619 11.2788 8 11.5 8C11.7212 8 12.0727 8.14619 12.4198 8.70157C12.7581 9.24286 13 10.0529 13 11C13 11.9471 12.7581 12.7571 12.4198 13.2984Z" fill="#43454A"/>
</svg>
