<svg width="16" height="16" viewBox="0 0 16 16" fill="none" xmlns="http://www.w3.org/2000/svg">
<path d="M16 2C16 3.10457 15.1046 4 14 4C12.8954 4 12 3.10457 12 2C12 0.89543 12.8954 0 14 0C15.1046 0 16 0.89543 16 2Z" fill="#EBECF0"/>
<path d="M10 8C10 9.10457 9.10457 10 8 10C6.89543 10 6 9.10457 6 8C6 6.89543 6.89543 6 8 6C9.10457 6 10 6.89543 10 8Z" fill="#EBECF0"/>
<path fill-rule="evenodd" clip-rule="evenodd" d="M14 4C15.1046 4 16 3.10457 16 2C16 0.895431 15.1046 0 14 0C12.8954 0 12 0.895431 12 2C12 2.37092 12.101 2.71826 12.2769 3.01603L9.01603 6.27694C8.71826 6.10098 8.37092 6 8 6C6.89543 6 6 6.89543 6 8C6 9.10457 6.89543 10 8 10C9.10457 10 10 9.10457 10 8C10 7.62912 9.89905 7.28181 9.72312 6.98406L12.9841 3.72312C13.2818 3.89905 13.6291 4 14 4ZM14 3C14.5523 3 15 2.55228 15 2C15 1.44772 14.5523 1 14 1C13.4477 1 13 1.44772 13 2C13 2.55228 13.4477 3 14 3ZM8 9C8.55228 9 9 8.55228 9 8C9 7.44772 8.55228 7 8 7C7.44772 7 7 7.44772 7 8C7 8.55228 7.44772 9 8 9Z" fill="#6C707E"/>
<path d="M6.91128 5.20381C7.24889 5.07222 7.61621 5 8.00039 5C8.26852 5 8.52909 5.03539 8.77732 5.10183L11.1022 2.77692C11.0358 2.5287 11.0004 2.26813 11.0004 2C11.0004 1.89245 11.0061 1.78622 11.0171 1.68159C10.1036 1.24466 9.08057 1 8.00039 1C6.5033 1 5.11597 1.46998 3.97791 2.27044L6.91128 5.20381Z" fill="#F2FCF3"/>
<path d="M5.17111 9.00004H1.07129C1.55654 12.3923 4.47394 15 8.00039 15C11.8664 15 15.0004 11.866 15.0004 8C15.0004 6.91983 14.7557 5.8968 14.3188 4.9833C14.2142 4.99434 14.1079 5 14.0004 5C13.7323 5 13.4718 4.96462 13.2236 4.8982L10.8986 7.2232C10.965 7.47138 11.0004 7.73192 11.0004 8C11.0004 9.65685 9.65725 11 8.00039 11C6.69419 11 5.58296 10.1652 5.17111 9.00004Z" fill="#F2FCF3"/>
<path d="M3.19883 2.90598C1.84505 4.1824 1 5.99251 1 8L5 8.00004C5 7.09708 5.39892 6.28726 6.03014 5.73728L3.19883 2.90598Z" fill="#EBECF0"/>
<path d="M4.69755 2.99009C5.64486 2.3643 6.78008 2 8.00039 2C9.11313 2 10.1551 2.3029 11.0484 2.83076L11.1022 2.77692C11.0358 2.5287 11.0004 2.26813 11.0004 2C11.0004 1.89245 11.0061 1.78622 11.0171 1.68159C10.1036 1.24466 9.08057 1 8.00039 1C6.5033 1 5.11597 1.46998 3.97791 2.27044L4.69755 2.99009Z" fill="#208A3C"/>
<path d="M2.08336 9.00004H1.07129C1.55654 12.3923 4.47394 15 8.00039 15C11.8664 15 15.0004 11.866 15.0004 8C15.0004 6.91983 14.7557 5.8968 14.3188 4.9833C14.2142 4.99434 14.1079 5 14.0004 5C13.7323 5 13.4718 4.96462 13.2236 4.8982L13.1697 4.9521C13.6975 5.84536 14.0004 6.88731 14.0004 8C14.0004 11.3137 11.3141 14 8.00039 14C5.02741 14 2.55945 11.8377 2.08336 9.00004Z" fill="#208A3C"/>
<path d="M3.19883 2.90598C1.84505 4.1824 1 5.99251 1 8L2 8.00004C2 6.26869 2.73332 4.70858 3.9063 3.61344L3.19883 2.90598Z" fill="#6C707E"/>
</svg>
