<!-- Copyright 2000-2024 JetBrains s.r.o. and contributors. Use of this source code is governed by the Apache 2.0 license. -->
<svg width="16" height="16" viewBox="0 0 16 16" fill="none" xmlns="http://www.w3.org/2000/svg">
<path fill-rule="evenodd" clip-rule="evenodd" d="M8.94999 8C8.71836 9.14112 7.70948 10 6.5 10C5.11929 10 4 8.88071 4 7.5C4 6.11929 5.11929 5 6.5 5C7.70948 5 8.71836 5.85888 8.94999 7L11.5 7C11.7761 7 12 7.22386 12 7.5C12 7.77614 11.7761 8 11.5 8L11 8L11 9.5C11 9.77614 10.7761 10 10.5 10C10.2239 10 10 9.77614 10 9.5L10 8L8.94999 8ZM6.5 9C7.32843 9 8 8.32843 8 7.5C8 6.67157 7.32843 6 6.5 6C5.67157 6 5 6.67157 5 7.5C5 8.32843 5.67157 9 6.5 9Z" fill="#F2C55C"/>
</svg>
