<!-- Copyright 2000-2022 JetBrains s.r.o. and contributors. Use of this source code is governed by the Apache 2.0 license. -->
<svg width="16" height="16" viewBox="0 0 16 16" fill="none" xmlns="http://www.w3.org/2000/svg">
<path fill-rule="evenodd" clip-rule="evenodd" d="M2 12.4984V3.50157C2 3.06857 2.51115 2.8398 2.83262 3.12893L7.83411 7.62736C8.05529 7.82629 8.05529 8.17371 7.83411 8.37264L2.83262 12.8711C2.51115 13.1602 2 12.9314 2 12.4984Z" fill="#E7EFFD"/>
<path fill-rule="evenodd" clip-rule="evenodd" d="M9 12.4984V3.50157C9 3.06857 9.51115 2.8398 9.83262 3.12893L14.8341 7.62736C15.0553 7.82629 15.0553 8.17371 14.8341 8.37264L9.83262 12.8711C9.51115 13.1602 9 12.9314 9 12.4984Z" fill="#E7EFFD"/>
<path fill-rule="evenodd" clip-rule="evenodd" d="M2.9985 11.3769L6.75307 8L2.9985 4.62308V11.3769ZM2 12.4984V3.50157C2 3.06857 2.51115 2.8398 2.83262 3.12893L7.83411 7.62736C8.05529 7.82629 8.05529 8.17371 7.83411 8.37264L2.83262 12.8711C2.51115 13.1602 2 12.9314 2 12.4984Z" fill="#3574F0"/>
<path fill-rule="evenodd" clip-rule="evenodd" d="M9.9985 11.3769L13.7531 8L9.9985 4.62308V11.3769ZM9 12.4984V3.50157C9 3.06857 9.51115 2.8398 9.83262 3.12893L14.8341 7.62736C15.0553 7.82629 15.0553 8.17371 14.8341 8.37264L9.83262 12.8711C9.51115 13.1602 9 12.9314 9 12.4984Z" fill="#3574F0"/>
</svg>
