<!-- Copyright 2000-2022 JetBrains s.r.o. and contributors. Use of this source code is governed by the Apache 2.0 license. -->
<svg width="16" height="16" viewBox="0 0 16 16" fill="none" xmlns="http://www.w3.org/2000/svg">
<circle cx="8" cy="8" r="6.5" fill="#253627" stroke="#57965C"/>
<path d="M7.72545 6.08746C7.98045 6.08746 8.20695 6.13546 8.40495 6.23146C8.60295 6.32746 8.75295 6.46096 8.85495 6.63196L8.84595 6.13246H9.81795V8.80546C9.81795 8.93146 9.85545 9.03496 9.93045 9.11596C10.0054 9.19396 10.1029 9.23296 10.2229 9.23296C10.3729 9.23296 10.5064 9.17896 10.6234 9.07096C10.7404 8.96296 10.8304 8.81296 10.8934 8.62096C10.9594 8.42596 10.9924 8.20396 10.9924 7.95496C10.9924 7.35496 10.8664 6.82246 10.6144 6.35746C10.3654 5.88946 10.0159 5.52646 9.56595 5.26846C9.11595 5.01046 8.60145 4.88146 8.02245 4.88146C7.43445 4.88146 6.91095 5.01646 6.45195 5.28646C5.99595 5.55646 5.64045 5.93446 5.38545 6.42046C5.13345 6.90646 5.00745 7.46296 5.00745 8.08996C5.00745 8.67796 5.13795 9.19996 5.39895 9.65596C5.66295 10.112 6.03195 10.466 6.50595 10.718C6.97995 10.973 7.52145 11.1005 8.13045 11.1005H10.7224V11.915H8.13045C7.35345 11.915 6.66345 11.753 6.06045 11.429C5.45745 11.108 4.98795 10.658 4.65195 10.079C4.31595 9.49996 4.14795 8.83696 4.14795 8.08996C4.14795 7.30696 4.30995 6.61246 4.63395 6.00646C4.96095 5.40046 5.41845 4.92946 6.00645 4.59346C6.59445 4.25446 7.26645 4.08496 8.02245 4.08496C8.77245 4.08496 9.43695 4.24846 10.0159 4.57546C10.5949 4.89946 11.0449 5.35546 11.3659 5.94346C11.6899 6.52846 11.8519 7.19896 11.8519 7.95496C11.8519 8.34196 11.7799 8.68696 11.6359 8.98996C11.4949 9.28996 11.2954 9.52396 11.0374 9.69196C10.7794 9.85996 10.4854 9.94396 10.1554 9.94396C9.89145 9.94396 9.65745 9.88846 9.45345 9.77746C9.25245 9.66646 9.09945 9.51346 8.99445 9.31846C8.84445 9.52246 8.66145 9.67996 8.44545 9.79096C8.22945 9.90196 7.98945 9.95746 7.72545 9.95746C7.38945 9.95746 7.09095 9.87646 6.82995 9.71446C6.56895 9.55246 6.36645 9.32446 6.22245 9.03046C6.07845 8.73646 6.00645 8.40046 6.00645 8.02246C6.00645 7.64446 6.07845 7.30846 6.22245 7.01446C6.36645 6.72046 6.56895 6.49246 6.82995 6.33046C7.09095 6.16846 7.38945 6.08746 7.72545 6.08746ZM7.92345 9.08446C8.08845 9.08446 8.23245 9.04096 8.35545 8.95396C8.48145 8.86396 8.57895 8.73946 8.64795 8.58046C8.71695 8.41846 8.75145 8.23246 8.75145 8.02246C8.75145 7.81246 8.71695 7.62796 8.64795 7.46896C8.57895 7.30696 8.48145 7.18246 8.35545 7.09546C8.23245 7.00546 8.08845 6.96046 7.92345 6.96046C7.75845 6.96046 7.61145 7.00546 7.48245 7.09546C7.35645 7.18246 7.25895 7.30696 7.18995 7.46896C7.12095 7.62796 7.08645 7.81246 7.08645 8.02246C7.08645 8.23246 7.12095 8.41846 7.18995 8.58046C7.25895 8.73946 7.35645 8.86396 7.48245 8.95396C7.61145 9.04096 7.75845 9.08446 7.92345 9.08446Z" fill="#57965C"/>
</svg>
