<!-- Copyright 2000-2025 JetBrains s.r.o. and contributors. Use of this source code is governed by the Apache 2.0 license. -->
<svg width="16" height="16" viewBox="0 0 16 16" fill="none" xmlns="http://www.w3.org/2000/svg">
<path d="M7.29368 6.70868L5.29289 4.70789C4.90237 4.31737 4.90237 3.6842 5.29289 3.29368L7.29368 1.29289C7.68421 0.902369 8.31737 0.902369 8.70789 1.29289L10.7087 3.29368C11.0992 3.6842 11.0992 4.31737 10.7087 4.70789L8.70789 6.70868C8.31737 7.09921 7.6842 7.0992 7.29368 6.70868Z" fill="#EBECF0"/>
<path d="M7.29368 14.7087L5.29289 12.7079C4.90237 12.3174 4.90237 11.6842 5.29289 11.2937L7.29368 9.29289C7.68421 8.90237 8.31737 8.90237 8.70789 9.29289L10.7087 11.2937C11.0992 11.6842 11.0992 12.3174 10.7087 12.7079L8.70789 14.7087C8.31737 15.0992 7.6842 15.0992 7.29368 14.7087Z" fill="#EBECF0"/>
<path d="M1.29289 8.70789L3.29368 10.7087C3.6842 11.0992 4.31737 11.0992 4.70789 10.7087L6.70868 8.70789C7.0992 8.31737 7.09921 7.68421 6.70868 7.29368L4.70789 5.29289C4.31737 4.90237 3.6842 4.90237 3.29368 5.29289L1.29289 7.29368C0.902369 7.6842 0.902369 8.31737 1.29289 8.70789Z" fill="#EDF3FF"/>
<path d="M9.29289 8.70789L11.2937 10.7087C11.6842 11.0992 12.3174 11.0992 12.7079 10.7087L14.7087 8.70789C15.0992 8.31737 15.0992 7.68421 14.7087 7.29368L12.7079 5.29289C12.3174 4.90237 11.6842 4.90237 11.2937 5.29289L9.29289 7.29368C8.90237 7.6842 8.90237 8.31737 9.29289 8.70789Z" fill="#EDF3FF"/>
<path fill-rule="evenodd" clip-rule="evenodd" d="M1.29289 8.70789L3.29368 10.7087C3.6842 11.0992 4.31737 11.0992 4.70789 10.7087L6.70868 8.70789C7.0992 8.31737 7.09921 7.68421 6.70868 7.29368L4.70789 5.29289C4.31737 4.90237 3.6842 4.90237 3.29368 5.29289L1.29289 7.29368C0.902369 7.6842 0.902369 8.31737 1.29289 8.70789ZM4.00079 10.0016L2 8.00079L4.00079 6L6.00157 8.00079L4.00079 10.0016Z" fill="#3574F0"/>
<path fill-rule="evenodd" clip-rule="evenodd" d="M9.29289 8.70789L11.2937 10.7087C11.6842 11.0992 12.3174 11.0992 12.7079 10.7087L14.7087 8.70789C15.0992 8.31737 15.0992 7.68421 14.7087 7.29368L12.7079 5.29289C12.3174 4.90237 11.6842 4.90237 11.2937 5.29289L9.29289 7.29368C8.90237 7.6842 8.90237 8.31737 9.29289 8.70789ZM12.0008 10.0016L10 8.00079L12.0008 6L14.0016 8.00079L12.0008 10.0016Z" fill="#3574F0"/>
<path fill-rule="evenodd" clip-rule="evenodd" d="M5.29289 4.70789L7.29368 6.70868C7.6842 7.0992 8.31737 7.09921 8.70789 6.70868L10.7087 4.70789C11.0992 4.31737 11.0992 3.6842 10.7087 3.29368L8.70789 1.29289C8.31737 0.902369 7.68421 0.902369 7.29368 1.29289L5.29289 3.29368C4.90237 3.6842 4.90237 4.31737 5.29289 4.70789ZM8.00079 6.00157L6 4.00079L8.00079 2L10.0016 4.00079L8.00079 6.00157ZM5.29289 12.7079L7.29368 14.7087C7.6842 15.0992 8.31737 15.0992 8.70789 14.7087L10.7087 12.7079C11.0992 12.3174 11.0992 11.6842 10.7087 11.2937L8.70789 9.29289C8.31737 8.90237 7.68421 8.90237 7.29368 9.29289L5.29289 11.2937C4.90237 11.6842 4.90237 12.3174 5.29289 12.7079ZM8.00079 14.0016L6 12.0008L8.00079 10L10.0016 12.0008L8.00079 14.0016Z" fill="#6C707E"/>
</svg>
