<!-- Copyright 2000-2025 JetBrains s.r.o. and contributors. Use of this source code is governed by the Apache 2.0 license. -->
<svg width="16" height="16" viewBox="0 0 16 16" fill="none" xmlns="http://www.w3.org/2000/svg">
<path d="M11.7071 9C11.4419 9 11.1875 9.10536 11 9.29289L8.64645 11.6464C8.55268 11.7402 8.5 11.8674 8.5 12C8.5 12.1326 8.55268 12.2598 8.64645 12.3536L9.64645 13.3536C9.84171 13.5488 10.1583 13.5488 10.3536 13.3536L11.5 12.2071L15.1464 15.8536C15.3417 16.0488 15.6583 16.0488 15.8536 15.8536C16.0488 15.6583 16.0488 15.3417 15.8536 15.1464L12.2071 11.5L13.8536 9.85355C13.9966 9.71055 14.0393 9.4955 13.9619 9.30866C13.8845 9.12182 13.7022 9 13.5 9H11.7071Z" fill="#57965C"/>
<path d="M6.12207 2C6.39437 2.0001 6.65525 2.11111 6.84375 2.30762L8.4668 4H13C14.1046 4 15 4.89543 15 6V8H11.707C11.1766 8.00002 10.668 8.21088 10.293 8.58594L7.93945 10.9395C7.65815 11.2208 7.5 11.6022 7.5 12C7.5 12.3978 7.65815 12.7792 7.93945 13.0605L8.87891 14H2.63379C1.73186 14 1.00022 13.1645 1 12.1338V3.86621C1.00022 2.83549 1.73186 2 2.63379 2H6.12207Z" fill="#43454A"/>
<path d="M6.12207 2C6.39437 2.0001 6.65525 2.11111 6.84375 2.30762L8.4668 4H13C14.1046 4 15 4.89543 15 6V8H14V6C14 5.44771 13.5523 5 13 5H8.04004L6.12207 3H2.63379C2.40532 3 2.0002 3.25829 2 3.86621V12.1338C2.0002 12.7417 2.40532 13 2.63379 13H7.88477C7.90289 13.0202 7.92016 13.0413 7.93945 13.0605L8.87891 14H2.63379L2.4668 13.9902C1.6979 13.9012 1.08689 13.2029 1.00879 12.3242L1 12.1338V3.86621C1.0002 2.89975 1.6431 2.10511 2.4668 2.00977L2.63379 2H6.12207Z" fill="#CED0D6"/>
</svg>
