<!-- Copyright 2000-2022 JetBrains s.r.o. and contributors. Use of this source code is governed by the Apache 2.0 license. -->
<svg width="18" height="18" viewBox="0 0 18 18" fill="none" xmlns="http://www.w3.org/2000/svg">
<rect x="0.514648" y="9" width="12" height="12" rx="1" transform="rotate(-45 0.514648 9)" fill="#FFF4EB" stroke="#F28C35"/>
<path d="M9.13295 12.5C10.6122 12.5 11.8836 11.6105 12.2075 10.3391H11.2213C10.9023 11.0739 10.1191 11.6057 9.13295 11.6057C7.77936 11.6057 6.80284 10.518 6.80284 9C6.80284 7.48204 7.77936 6.39434 9.13295 6.39434C10.1191 6.39434 10.9023 6.92611 11.2213 7.66091H12.2075C11.8836 6.3895 10.6122 5.5 9.13295 5.5C7.21859 5.5 5.79248 6.99378 5.79248 9C5.79248 11.0062 7.21859 12.5 9.13295 12.5Z" fill="#F28C35"/>
</svg>
