<!-- Copyright 2000-2023 JetBrains s.r.o. and contributors. Use of this source code is governed by the Apache 2.0 license. -->
<svg width="16" height="16" viewBox="0 0 16 16" fill="none" xmlns="http://www.w3.org/2000/svg">
<path d="M0.586274 6.58573L6.58597 0.586031C7.36702 -0.195018 8.63335 -0.195019 9.4144 0.58603L15.4141 6.58573C16.1951 7.36678 16.1951 8.63311 15.4141 9.41416L9.4144 15.4139C8.63335 16.1949 7.36702 16.1949 6.58597 15.4139L0.586275 9.41416C-0.194773 8.63311 -0.194774 7.36678 0.586274 6.58573Z" fill="#FFF4EB"/>
<path fill-rule="evenodd" clip-rule="evenodd" d="M7.29308 1.29314L1.29338 7.29284C0.902857 7.68336 0.902858 8.31653 1.29338 8.70705L7.29308 14.7067C7.68361 15.0973 8.31677 15.0973 8.70729 14.7067L14.707 8.70705C15.0975 8.31652 15.0975 7.68336 14.707 7.29284L8.70729 1.29314C8.31677 0.902613 7.6836 0.902613 7.29308 1.29314ZM6.58597 0.586031L0.586274 6.58573C-0.194774 7.36678 -0.194773 8.63311 0.586275 9.41416L6.58597 15.4139C7.36702 16.1949 8.63335 16.1949 9.4144 15.4139L15.4141 9.41416C16.1951 8.63311 16.1951 7.36678 15.4141 6.58573L9.4144 0.58603C8.63335 -0.195019 7.36702 -0.195018 6.58597 0.586031Z" fill="#E66D17"/>
<path d="M8.1329 11.5C9.62185 11.5 10.8981 10.6008 11.2123 9.32459H10.1971C9.8829 10.0546 9.10459 10.5767 8.1329 10.5767C6.79381 10.5767 5.82696 9.50345 5.82696 8C5.82696 6.49655 6.79381 5.42334 8.1329 5.42334C9.10459 5.42334 9.8829 5.94544 10.1971 6.67541H11.2123C10.8981 5.39917 9.62185 4.5 8.1329 4.5C6.2137 4.5 4.7876 5.99378 4.7876 8C4.7876 10.0062 6.2137 11.5 8.1329 11.5Z" fill="#E66D17"/>
</svg>
