<!-- Copyright 2000-2022 JetBrains s.r.o. and contributors. Use of this source code is governed by the Apache 2.0 license. -->
<svg width="16" height="16" viewBox="0 0 16 16" fill="none" xmlns="http://www.w3.org/2000/svg">
<path fill-rule="evenodd" clip-rule="evenodd" d="M12.3066 15H11.6926L11.5648 14.6591C11.3131 13.9878 10.6214 13.5885 9.91418 13.7061L9.55507 13.7659L9.24807 13.2341L9.47935 12.953C9.93486 12.3993 9.93486 11.6007 9.47935 11.047L9.24805 10.7659L9.55505 10.2341L9.91418 10.2939C10.6214 10.4115 11.3131 10.0122 11.5648 9.34088L11.6926 9H12.3066L12.4345 9.34088C12.6862 10.0122 13.3778 10.4115 14.0851 10.2939L14.4442 10.2341L14.7512 10.7659L14.5199 11.047C14.0644 11.6007 14.0644 12.3993 14.5199 12.953L14.7512 13.2341L14.4442 13.7659L14.0851 13.7061C13.3778 13.5885 12.6862 13.9878 12.4345 14.6591L12.3066 15ZM12.9997 12C12.9997 12.5523 12.552 13 11.9997 13C11.4474 13 10.9997 12.5523 10.9997 12C10.9997 11.4477 11.4474 11 11.9997 11C12.552 11 12.9997 11.4477 12.9997 12Z" fill="#43454A"/>
<path d="M12.0005 13C12.5528 13 13.0005 12.5523 13.0005 12C13.0005 11.4477 12.5528 11 12.0005 11C11.4482 11 11.0005 11.4477 11.0005 12C11.0005 12.5523 11.4482 13 12.0005 13Z" fill="#CED0D6"/>
<path fill-rule="evenodd" clip-rule="evenodd" d="M13.1221 15.6756C13.0489 15.8707 12.8624 16 12.6539 16H11.3469C11.1385 16 10.9519 15.8707 10.8788 15.6756L10.6293 15.0102C10.5454 14.7865 10.3148 14.6534 10.0791 14.6926L9.37814 14.8092C9.17254 14.8434 8.9673 14.7464 8.86309 14.5659L8.20959 13.4341C8.10538 13.2536 8.12406 13.0273 8.25648 12.8664L8.7079 12.3177C8.85974 12.1331 8.85974 11.8669 8.7079 11.6824L8.25646 11.1336C8.12404 10.9727 8.10536 10.7464 8.20957 10.5659L8.86307 9.43405C8.96728 9.25355 9.17253 9.15663 9.37812 9.19083L10.0791 9.30742C10.3148 9.34664 10.5454 9.21353 10.6293 8.98976L10.8788 8.32444C10.9519 8.12929 11.1385 8 11.3469 8H12.6539C12.8624 8 13.0489 8.12929 13.1221 8.32444L13.3716 8.98976C13.4555 9.21353 13.686 9.34664 13.9218 9.30742L14.6227 9.19083C14.8283 9.15663 15.0336 9.25355 15.1378 9.43405L15.7913 10.5659C15.8955 10.7464 15.8768 10.9727 15.7444 11.1336L15.293 11.6824C15.1411 11.8669 15.1411 12.1331 15.293 12.3177L15.7444 12.8664C15.8768 13.0273 15.8955 13.2536 15.7913 13.4341L15.1378 14.5659C15.0336 14.7464 14.8283 14.8434 14.6227 14.8092L13.9218 14.6926C13.686 14.6534 13.4555 14.7865 13.3716 15.0102L13.1221 15.6756ZM11.6934 15H12.3074L12.4353 14.6591C12.687 13.9878 13.3786 13.5885 14.0859 13.7061L14.445 13.7659L14.752 13.2341L14.5207 12.953C14.0652 12.3993 14.0652 11.6007 14.5207 11.047L14.752 10.7659L14.445 10.2341L14.0859 10.2939C13.3786 10.4115 12.687 10.0122 12.4353 9.34088L12.3074 9H11.6934L11.5656 9.34088C11.3139 10.0122 10.6222 10.4115 9.91498 10.2939L9.55584 10.2341L9.24884 10.7659L9.48015 11.047C9.93566 11.6007 9.93566 12.3993 9.48015 12.953L9.24886 13.2341L9.55586 13.7659L9.91498 13.7061C10.6222 13.5885 11.3139 13.9878 11.5656 14.6591L11.6934 15Z" fill="#CED0D6"/>
<path d="M8 1C4.13401 1 1 4.13401 1 8C1 11.8659 4.13381 14.9998 7.99964 15C7.37195 14.1643 7 13.1256 7 12C7 9.23858 9.23858 7 12 7C13.1256 7 14.1643 7.37195 15 7.99964C14.9998 4.13381 11.8659 1 8 1Z" fill="#25324D"/>
<path d="M7.40336 13.9707C4.36976 13.6712 2 11.1124 2 8C2 4.68629 4.68629 2 8 2C11.1124 2 13.6712 4.36976 13.9707 7.40336C14.3387 7.56133 14.6839 7.76218 15 7.99964C14.9998 4.13381 11.8659 1 8 1C4.13401 1 1 4.13401 1 8C1 11.8659 4.13381 14.9998 7.99964 15C7.76218 14.6839 7.56133 14.3387 7.40336 13.9707Z" fill="#548AF7"/>
</svg>
