<!-- Copyright 2000-2023 JetBrains s.r.o. and contributors. Use of this source code is governed by the Apache 2.0 license. -->
<svg width="16" height="16" viewBox="0 0 16 16" fill="none" xmlns="http://www.w3.org/2000/svg">
<path d="M8 1C4.13401 1 1 4.13401 1 8C1 11.8659 4.13381 14.9998 7.99964 15C7.37195 14.1643 7 13.1256 7 12C7 9.23858 9.23858 7 12 7C13.1256 7 14.1643 7.37195 15 7.99964C14.9998 4.13381 11.8659 1 8 1Z" fill="#25324D"/>
<path d="M7.40336 13.9707C4.36976 13.6712 2 11.1124 2 8C2 4.68629 4.68629 2 8 2C11.1124 2 13.6712 4.36976 13.9707 7.40336C14.3387 7.56133 14.6839 7.76218 15 7.99964C14.9998 4.13381 11.8659 1 8 1C4.13401 1 1 4.13401 1 8C1 11.8659 4.13381 14.9998 7.99964 15C7.76218 14.6839 7.56133 14.3387 7.40336 13.9707Z" fill="#548AF7"/>
<path d="M11.9978 13C12.5501 13 12.9978 12.5523 12.9978 12C12.9978 11.4477 12.5501 11 11.9978 11C11.4455 11 10.9978 11.4477 10.9978 12C10.9978 12.5523 11.4455 13 11.9978 13Z" fill="#CED0D6"/>
<path fill-rule="evenodd" clip-rule="evenodd" d="M13.1194 15.6756C13.0462 15.8707 12.8597 16 12.6512 16H11.3442C11.1358 16 10.9493 15.8707 10.8761 15.6756L10.6266 15.0102C10.5427 14.7865 10.3121 14.6534 10.0764 14.6926L9.37546 14.8092C9.16986 14.8434 8.96461 14.7464 8.8604 14.5659L8.2069 13.4341C8.10269 13.2536 8.12138 13.0273 8.25379 12.8664L8.70522 12.3177C8.85705 12.1331 8.85705 11.8669 8.70522 11.6824L8.25377 11.1336C8.12136 10.9727 8.10267 10.7464 8.20688 10.5659L8.86038 9.43405C8.96459 9.25355 9.16984 9.15663 9.37544 9.19083L10.0764 9.30742C10.3121 9.34664 10.5427 9.21353 10.6266 8.98976L10.8761 8.32444C10.9493 8.12929 11.1358 8 11.3442 8H12.6512C12.8597 8 13.0462 8.12929 13.1194 8.32444L13.3689 8.98976C13.4528 9.21353 13.6834 9.34664 13.9191 9.30742L14.6201 9.19083C14.8256 9.15663 15.0309 9.25355 15.1351 9.43405L15.7886 10.5659C15.8928 10.7464 15.8741 10.9727 15.7417 11.1336L15.2903 11.6824C15.1384 11.8669 15.1384 12.1331 15.2903 12.3177L15.7417 12.8664C15.8741 13.0273 15.8928 13.2536 15.7886 13.4341L15.1351 14.5659C15.0309 14.7464 14.8256 14.8434 14.62 14.8092L13.9191 14.6926C13.6834 14.6534 13.4528 14.7865 13.3689 15.0102L13.1194 15.6756ZM11.6907 15H12.3047L12.4326 14.6591C12.6843 13.9878 13.3759 13.5885 14.0832 13.7061L14.4423 13.7659L14.7493 13.2341L14.518 12.953C14.0625 12.3993 14.0625 11.6007 14.518 11.047L14.7493 10.7659L14.4423 10.2341L14.0832 10.2939C13.3759 10.4115 12.6843 10.0122 12.4326 9.34088L12.3047 9H11.6907L11.5629 9.34088C11.3112 10.0122 10.6195 10.4115 9.9123 10.2939L9.55316 10.2341L9.24616 10.7659L9.47747 11.047C9.93297 11.6007 9.93297 12.3993 9.47747 12.953L9.24618 13.2341L9.55318 13.7659L9.9123 13.7061C10.6195 13.5885 11.3112 13.9878 11.5629 14.6591L11.6907 15Z" fill="#CED0D6"/>
<path fill-rule="evenodd" clip-rule="evenodd" d="M12.3086 15H11.6946L11.5668 14.6591C11.315 13.9878 10.6234 13.5885 9.91614 13.7061L9.55702 13.7659L9.25002 13.2341L9.48131 12.953C9.93681 12.3993 9.93681 11.6007 9.48131 11.047L9.25 10.7659L9.557 10.2341L9.91614 10.2939C10.6234 10.4115 11.315 10.0122 11.5668 9.34088L11.6946 9H12.3086L12.4364 9.34088C12.6882 10.0122 13.3798 10.4115 14.087 10.2939L14.4462 10.2341L14.7532 10.7659L14.5219 11.047C14.0664 11.6007 14.0664 12.3993 14.5219 12.953L14.7532 13.2341L14.4462 13.7659L14.087 13.7061C13.3798 13.5885 12.6882 13.9878 12.4364 14.6591L12.3086 15ZM13.0016 12C13.0016 12.5523 12.5539 13 12.0016 13C11.4494 13 11.0016 12.5523 11.0016 12C11.0016 11.4477 11.4494 11 12.0016 11C12.5539 11 13.0016 11.4477 13.0016 12Z" fill="#43454A"/>
<path d="M4.78711 8C4.78711 9.14134 5.24867 10.1168 6 10.7458C6.30448 11.0008 6.65657 11.1984 7.04483 11.3275C7.08745 11.0105 7.15979 10.7028 7.25896 10.4075C6.3931 10.049 5.82696 9.15046 5.82696 8C5.82696 6.49655 6.79332 5.42334 8.13241 5.42334C8.34494 5.42334 8.54822 5.44832 8.73941 5.49498C9.2807 5.6271 9.72514 5.93305 10.0085 6.33823L10.7532 5.72326C10.3764 5.22809 9.82484 4.8529 9.18169 4.65553C8.85225 4.55444 8.49877 4.5 8.13241 4.5C6.21321 4.5 4.78711 5.99378 4.78711 8Z" fill="#548AF7"/>
</svg>
