<!-- Copyright 2000-2023 JetBrains s.r.o. and contributors. Use of this source code is governed by the Apache 2.0 license. -->
<svg width="16" height="16" viewBox="0 0 16 16" fill="none" xmlns="http://www.w3.org/2000/svg">
<path d="M2.75 4C1.7835 4 1 4.83574 1 5.86667V12.1333C1 13.1643 1.7835 14 2.75 14H11.25C12.2165 14 13 13.1643 13 12.1333V8C13 6.89543 12.1046 6 11 6L8.5 6L6.73559 4.28327C6.5489 4.10163 6.29871 4 6.03823 4H2.75Z" fill="#43454A"/>
<path fill-rule="evenodd" clip-rule="evenodd" d="M8.09379 7L6.03823 5H2.75C2.3956 5 2 5.32624 2 5.86667V12.1333C2 12.6738 2.3956 13 2.75 13H11.25C11.6044 13 12 12.6738 12 12.1333V8C12 7.44771 11.5523 7 11 7H8.09379ZM8.5 6L11 6C12.1046 6 13 6.89543 13 8V12.1333C13 13.1643 12.2165 14 11.25 14H2.75C1.7835 14 1 13.1643 1 12.1333V5.86667C1 4.83574 1.7835 4 2.75 4H6.03823C6.29871 4 6.5489 4.10163 6.73559 4.28327L8.5 6Z" fill="#CED0D6"/>
<path d="M3 2.5C3 2.77614 3.22386 3 3.5 3L8.03823 3L10.0938 5H13C13.5523 5 14 5.44772 14 6V11.5C14 11.7761 14.2239 12 14.5 12V12C14.7761 12 15 11.7761 15 11.5V6C15 4.89543 14.1046 4 13 4L10.5 4L8.73559 2.28327C8.5489 2.10163 8.29871 2 8.03823 2H3.5C3.22386 2 3 2.22386 3 2.5V2.5Z" fill="#CED0D6"/>
</svg>
