<!-- Copyright 2000-2022 JetBrains s.r.o. and contributors. Use of this source code is governed by the Apache 2.0 license. -->
<svg width="16" height="16" viewBox="0 0 16 16" fill="none" xmlns="http://www.w3.org/2000/svg">
<path fill-rule="evenodd" clip-rule="evenodd" d="M1 4C1 2.89543 1.89543 2 3 2H13C14.1046 2 15 2.89543 15 4V11C15 9.98555 14.6224 9.05931 14 8.35418V6H11V7C10.6547 7 10.3196 7.04375 10 7.12602V6H6V13H7.53513C7.75287 13.3764 8.03018 13.714 8.35418 14H3C1.89543 14 1 13.1046 1 12V4ZM6 3H10V5H6V3ZM5 3H3C2.44772 3 2 3.44772 2 4V5H5V3ZM2 6V12C2 12.5523 2.44772 13 3 13H5V6H2ZM14 5V4C14 3.44772 13.5523 3 13 3H11V5H14Z" fill="#CED0D6"/>
<path fill-rule="evenodd" clip-rule="evenodd" d="M12.7383 13.4454C12.2479 13.7946 11.6479 14 11 14C9.34315 14 8 12.6569 8 11C8 9.34315 9.34315 8 11 8C12.6569 8 14 9.34315 14 11C14 11.6479 13.7946 12.2479 13.4454 12.7383L14.8536 14.1464C15.0488 14.3417 15.0488 14.6583 14.8536 14.8536C14.6583 15.0488 14.3417 15.0488 14.1464 14.8536L12.7383 13.4454ZM13 11C13 12.1046 12.1046 13 11 13C9.89543 13 9 12.1046 9 11C9 9.89543 9.89543 9 11 9C12.1046 9 13 9.89543 13 11Z" fill="#548AF7"/>
</svg>
