<!-- Copyright 2000-2022 JetBrains s.r.o. and contributors. Use of this source code is governed by the Apache 2.0 license. -->
<svg width="16" height="16" viewBox="0 0 16 16" fill="none" xmlns="http://www.w3.org/2000/svg">
<g clip-path="url(#clip0_5436_53300)">
<path fill-rule="evenodd" clip-rule="evenodd" d="M1 4C1 2.89543 1.89543 2 3 2H13C14.1046 2 15 2.89543 15 4V12C15 13.1046 14.1046 14 13 14H3C1.89543 14 1 13.1046 1 12V4ZM3 3H5V13H3C2.44772 13 2 12.5523 2 12V4C2 3.44772 2.44772 3 3 3ZM6 3V13H13C13.5523 13 14 12.5523 14 12V4C14 3.44772 13.5523 3 13 3H6Z" fill="#CED0D6"/>
<path d="M2 4C2 3.44772 2.44772 3 3 3H5V13H3C2.44772 13 2 12.5523 2 12V4Z" fill="#43454A"/>
</g>
<defs>
<clipPath id="clip0_5436_53300">
<rect width="16" height="16" fill="white"/>
</clipPath>
</defs>
</svg>
