<!-- Copyright 2000-2022 JetBrains s.r.o. and contributors. Use of this source code is governed by the Apache 2.0 license. -->
<svg width="16" height="16" viewBox="0 0 16 16" fill="none" xmlns="http://www.w3.org/2000/svg">
<path fill-rule="evenodd" clip-rule="evenodd" d="M1 3.86667C1 2.83574 1.7835 2 2.75 2H6.03823C6.29871 2 6.5489 2.10163 6.73559 2.28327L8.5 4L13 4C14.1046 4 15 4.89543 15 6V7.21196L14.3409 6.55283C13.9503 6.16231 13.3172 6.16231 12.9267 6.55283L5.59529 13.8842C5.55869 13.9208 5.52552 13.9595 5.49578 14H2.75C1.7835 14 1 13.1643 1 12.1333V3.86667Z" fill="#EBECF0"/>
<path fill-rule="evenodd" clip-rule="evenodd" d="M7.80265 4.71673L8.09379 5H8.5H13C13.5523 5 14 5.44772 14 6V6.32915C14.1242 6.37792 14.2405 6.45249 14.3409 6.55283L15 7.21196V6C15 4.89543 14.1046 4 13 4L8.5 4L6.73559 2.28327C6.5489 2.10163 6.29871 2 6.03823 2H2.75C1.7835 2 1 2.83574 1 3.86667V12.1333C1 13.1643 1.7835 14 2.75 14H5.49578C5.52552 13.9595 5.55869 13.9208 5.59529 13.8842L6.47949 13H2.75C2.3956 13 2 12.6738 2 12.1333V3.86667C2 3.32624 2.3956 3 2.75 3H6.03823L7.80265 4.71673Z" fill="#6C707E"/>
<path fill-rule="evenodd" clip-rule="evenodd" d="M12.9562 8.35374C13.4287 7.87475 14.191 7.89024 14.6531 8.35141L14.662 8.36031L15.6586 9.4194C16.1105 9.88228 16.1218 10.6322 15.6447 11.1005L10.74 16H8.00031L8 13.2955L11.6778 9.62433L12.9562 8.35374ZM13.8037 9.14286C13.7889 9.14282 13.7783 9.14775 13.7696 9.15656L13.7642 9.16209L12.8909 10.03L13.9956 11.1347L14.8439 10.2852C14.8499 10.2793 14.8527 10.2745 14.8542 10.2707C14.856 10.2664 14.8571 10.2613 14.8571 10.2553C14.8572 10.2434 14.8528 10.2299 14.8404 10.2174L14.8303 10.2071L13.8435 9.15824C13.8323 9.14809 13.8185 9.1429 13.8037 9.14286ZM13.1874 11.9428L12.0812 10.8365L9.14291 13.7694L9.14303 14.8571H10.2673L13.1874 11.9428Z" fill="#6C707E"/>
</svg>
