<!-- Copyright 2000-2026 JetBrains s.r.o. and contributors. Use of this source code is governed by the Apache 2.0 license. -->
<svg width="16" height="16" viewBox="0 0 16 16" fill="none" xmlns="http://www.w3.org/2000/svg"><defs><mask id="cutout-mask"><rect width="16" height="16" fill="white"/><rect x="5.999997615814209" y="8.499985694885254" width="11.000001907348633" height="9.000014305114746" rx="1" fill="black"/></mask></defs><g mask="url(#cutout-mask)"><path d="M8.10584 4.34613L8.25344 4.5H8.46667H13C13.8284 4.5 14.5 5.17157 14.5 6V12.1333C14.5 12.9529 13.932 13.5 13.3667 13.5H2.63333C2.06804 13.5 1.5 12.9529 1.5 12.1333V3.86667C1.5 3.04707 2.06804 2.5 2.63333 2.5H6.1217C6.25792 2.5 6.38824 2.55557 6.48253 2.65387L8.10584 4.34613Z" fill="#43454A" stroke="#CED0D6"/></g><g><path fill-rule="evenodd" clip-rule="evenodd" d="M10.8536 10.1464C11.0488 10.3417 11.0488 10.6583 10.8536 10.8536L8.70711 13L10.8536 15.1464C11.0488 15.3417 11.0488 15.6583 10.8536 15.8536C10.6583 16.0488 10.3417 16.0488 10.1464 15.8536L7.64645 13.3536C7.45118 13.1583 7.45118 12.8417 7.64645 12.6464L10.1464 10.1464C10.3417 9.95118 10.6583 9.95118 10.8536 10.1464ZM12.1464 10.1464C12.3417 9.95118 12.6583 9.95118 12.8536 10.1464L15.3536 12.6464C15.5488 12.8417 15.5488 13.1583 15.3536 13.3536L12.8536 15.8536C12.6583 16.0488 12.3417 16.0488 12.1464 15.8536C11.9512 15.6583 11.9512 15.3417 12.1464 15.1464L14.2929 13L12.1464 10.8536C11.9512 10.6583 11.9512 10.3417 12.1464 10.1464Z" fill="#548AF7"/></g></svg>