<!-- Copyright 2000-2022 JetBrains s.r.o. and contributors. Use of this source code is governed by the Apache 2.0 license. -->
<svg width="16" height="16" viewBox="0 0 16 16" fill="none" xmlns="http://www.w3.org/2000/svg">
<path d="M8.00004 2.5L9.58706 6.31565L13.7064 6.6459L10.5679 9.33435L11.5268 13.3541L8.00004 11.2L4.47333 13.3541L5.43219 9.33435L2.2937 6.6459L6.41302 6.31565L8.00004 2.5Z" fill="#FCC75B"/>
<path fill-rule="evenodd" clip-rule="evenodd" d="M8.00006 2.073C8.20203 2.073 8.38416 2.1945 8.46172 2.38098L9.93146 5.91466L13.7464 6.2205C13.9477 6.23664 14.1195 6.37231 14.1819 6.56439C14.2443 6.75647 14.1851 6.96723 14.0317 7.09862L11.1251 9.58839L12.0131 13.3111C12.06 13.5075 11.9841 13.7129 11.8207 13.8316C11.6573 13.9503 11.4385 13.9591 11.2661 13.8538L8.00006 11.8589L4.73398 13.8538C4.56162 13.9591 4.34285 13.9503 4.17946 13.8316C4.01606 13.7129 3.94013 13.5075 3.987 13.3111L4.87499 9.58839L1.96844 7.09862C1.81506 6.96723 1.75578 6.75647 1.81819 6.56439C1.88061 6.37231 2.05245 6.23664 2.25377 6.2205L6.06866 5.91466L7.5384 2.38098C7.61596 2.1945 7.7981 2.073 8.00006 2.073ZM8.00006 3.87498L6.8747 6.58067C6.8027 6.75379 6.63989 6.87207 6.453 6.88705L3.53198 7.12123L5.75749 9.02762C5.89988 9.14959 5.96207 9.34098 5.91856 9.52336L5.23863 12.3738L7.73943 10.8463C7.89944 10.7486 8.10068 10.7486 8.26069 10.8463L10.7615 12.3738L10.0816 9.52336C10.0381 9.34098 10.1002 9.14959 10.2426 9.02762L12.4681 7.12123L9.54713 6.88705C9.36023 6.87207 9.19743 6.75379 9.12542 6.58067L8.00006 3.87498Z" fill="#FCC75B"/>
</svg>
