<!-- Copyright 2000-2022 JetBrains s.r.o. and contributors. Use of this source code is governed by the Apache 2.0 license. -->
<svg width="16" height="16" viewBox="0 0 16 16" fill="none" xmlns="http://www.w3.org/2000/svg">
<path fill-rule="evenodd" clip-rule="evenodd" d="M1 3.86667C1 2.83574 1.7835 2 2.75 2H6.03823C6.29871 2 6.5489 2.10163 6.73559 2.28327L8.5 4L13 4C14.1046 4 15 4.89543 15 6V8.75777C14.285 8.27914 13.4251 8 12.5 8C10.0147 8 8 10.0147 8 12.5C8 13.026 8.09023 13.5308 8.25606 14H2.75C1.7835 14 1 13.1643 1 12.1333V3.86667Z" fill="#EBECF0"/>
<path fill-rule="evenodd" clip-rule="evenodd" d="M7.80265 4.71673L8.09379 5H8.5H13C13.5523 5 14 5.44772 14 6V8.25606C14.356 8.3819 14.6915 8.55127 15 8.75777V6C15 4.89543 14.1046 4 13 4L8.5 4L6.73559 2.28327C6.5489 2.10163 6.29871 2 6.03823 2H2.75C1.7835 2 1 2.83574 1 3.86667V12.1333C1 13.1643 1.7835 14 2.75 14H8.25606C8.14352 13.6816 8.06579 13.3467 8.02746 13H2.75C2.3956 13 2 12.6738 2 12.1333V3.86667C2 3.32624 2.3956 3 2.75 3H6.03823L7.80265 4.71673Z" fill="#6C707E"/>
<path d="M13.5 12.5C13.5 13.0523 13.0523 13.5 12.5 13.5C11.9477 13.5 11.5 13.0523 11.5 12.5C11.5 11.9477 11.9477 11.5 12.5 11.5C13.0523 11.5 13.5 11.9477 13.5 12.5Z" fill="#6C707E"/>
<rect x="12" y="9" width="1" height="2" rx="0.5" fill="#6C707E"/>
<rect x="12" y="14" width="1" height="2" rx="0.5" fill="#6C707E"/>
<rect x="9.21899" y="11.1831" width="1" height="2" rx="0.5" transform="rotate(-60 9.21899 11.1831)" fill="#6C707E"/>
<rect x="9.71899" y="14.6831" width="1" height="2" rx="0.5" transform="rotate(-120 9.71899 14.6831)" fill="#6C707E"/>
<rect x="13.5491" y="13.6831" width="1" height="2" rx="0.5" transform="rotate(-60 13.5491 13.6831)" fill="#6C707E"/>
<rect x="14.0491" y="12.1831" width="1" height="2" rx="0.5" transform="rotate(-120 14.0491 12.1831)" fill="#6C707E"/>
</svg>
