<!-- Copyright 2000-2023 JetBrains s.r.o. and contributors. Use of this source code is governed by the Apache 2.0 license. -->
<svg width="16" height="16" viewBox="0 0 16 16" fill="none" xmlns="http://www.w3.org/2000/svg">
<circle cx="8" cy="8" r="6.5" fill="#FFF4EB" stroke="#E66D17"/>
<path d="M7.5 11.3709H8.5V13H7.5V11.3709ZM7.5 3H8.5V4.63908H7.5V3ZM7.9099 11.5164C7.43783 11.5164 7.01911 11.4307 6.65375 11.2593C6.28838 11.0847 6.00223 10.8422 5.7953 10.5318C5.5916 10.2182 5.48975 9.8593 5.48975 9.45513H6.484C6.484 9.68793 6.54381 9.89487 6.66345 10.0759C6.78631 10.257 6.95606 10.3993 7.1727 10.5027C7.39256 10.603 7.64315 10.6531 7.92445 10.6531C8.19928 10.6531 8.44178 10.6062 8.65195 10.5124C8.86211 10.4187 9.02378 10.2877 9.13695 10.1196C9.25335 9.95145 9.31155 9.75745 9.31155 9.53758C9.31155 9.25952 9.22748 9.02187 9.05935 8.82463C8.89445 8.62417 8.67296 8.49968 8.3949 8.45118L7.2697 8.26203C6.94313 8.20383 6.65698 8.08905 6.41125 7.91768C6.16875 7.74308 5.98283 7.52645 5.8535 7.26778C5.72416 7.00588 5.6595 6.72135 5.6595 6.41418C5.6595 6.04882 5.75488 5.72063 5.94565 5.42963C6.13641 5.13863 6.40155 4.91068 6.74105 4.74578C7.08378 4.57765 7.46855 4.49358 7.89535 4.49358C8.33508 4.49358 8.72631 4.57603 9.06905 4.74093C9.41178 4.9026 9.67853 5.12893 9.8693 5.41993C10.0601 5.7077 10.1554 6.0375 10.1554 6.40933H9.1612C9.1612 6.20563 9.10785 6.02457 9.00115 5.86613C8.89768 5.70447 8.75056 5.57998 8.5598 5.49268C8.37226 5.40215 8.15563 5.35688 7.9099 5.35688C7.66093 5.35688 7.44106 5.40053 7.2503 5.48783C7.06276 5.5719 6.91565 5.69153 6.80895 5.84673C6.70548 6.00193 6.65375 6.183 6.65375 6.38993C6.65375 6.63243 6.73135 6.84098 6.88655 7.01558C7.04175 7.19018 7.24706 7.30012 7.5025 7.34538L8.6277 7.53453C8.95426 7.59273 9.24526 7.71722 9.5007 7.90798C9.75936 8.09875 9.95821 8.33478 10.0972 8.61608C10.2395 8.89738 10.3106 9.19323 10.3106 9.50363C10.3106 9.88193 10.2088 10.2247 10.0051 10.5318C9.80463 10.8358 9.52171 11.0766 9.15635 11.2545C8.79098 11.4291 8.3755 11.5164 7.9099 11.5164Z" fill="#E66D17"/>
</svg>
