<!-- Copyright 2000-2023 JetBrains s.r.o. and contributors. Use of this source code is governed by the Apache 2.0 license. -->
<svg width="16" height="16" viewBox="0 0 16 16" fill="none" xmlns="http://www.w3.org/2000/svg">
<path d="M8.33214 2.63203L13.3321 7.07539C13.4389 7.17028 13.5 7.3063 13.5 7.44914V13C13.5 13.2761 13.2761 13.5 13 13.5H10C9.72386 13.5 9.5 13.2761 9.5 13V11C9.5 10.1716 8.82843 9.5 8 9.5C7.17157 9.5 6.5 10.1716 6.5 11V13C6.5 13.2761 6.27614 13.5 6 13.5H3C2.72386 13.5 2.5 13.2761 2.5 13V7.44914C2.5 7.3063 2.56109 7.17028 2.66786 7.07539L7.66786 2.63203C7.85729 2.46369 8.14271 2.46369 8.33214 2.63203Z" fill="#43454A" stroke="#CED0D6" stroke-linecap="round" stroke-linejoin="round"/>
</svg>
