<!-- Copyright 2000-2023 JetBrains s.r.o. and contributors. Use of this source code is governed by the Apache 2.0 license. -->
<svg width="16" height="16" viewBox="0 0 16 16" fill="none" xmlns="http://www.w3.org/2000/svg">
<path fill-rule="evenodd" clip-rule="evenodd" d="M12.5 9C12.7761 9 13 9.22386 13 9.5V12H15.5C15.7761 12 16 12.2239 16 12.5C16 12.7761 15.7761 13 15.5 13H13V15.5C13 15.7761 12.7761 16 12.5 16C12.2239 16 12 15.7761 12 15.5V13H9.5C9.22386 13 9 12.7761 9 12.5C9 12.2239 9.22386 12 9.5 12H12V9.5C12 9.22386 12.2239 9 12.5 9Z" fill="#548AF7"/>
<path fill-rule="evenodd" clip-rule="evenodd" d="M12.5 9C12.7761 9 13 9.22386 13 9.5V12H15.5C15.7761 12 16 12.2239 16 12.5C16 12.7761 15.7761 13 15.5 13H13V15.5C13 15.7761 12.7761 16 12.5 16C12.2239 16 12 15.7761 12 15.5V13H9.5C9.22386 13 9 12.7761 9 12.5C9 12.2239 9.22386 12 9.5 12H12V9.5C12 9.22386 12.2239 9 12.5 9Z" fill="#CED0D6"/>
<path d="M15 8H12.5C11.6716 8 11 8.67157 11 9.5V11H9.5C8.67157 11 8 11.6716 8 12.5V15C4.13401 15 1 11.866 1 8C1 4.13401 4.13401 1 8 1C11.866 1 15 4.13401 15 8Z" fill="#25324D"/>
<path d="M8 14C4.68629 14 2 11.3137 2 8C2 4.68629 4.68629 2 8 2C11.3137 2 14 4.68629 14 8H15C15 4.13401 11.866 1 8 1C4.13401 1 1 4.13401 1 8C1 11.866 4.13401 15 8 15V14Z" fill="#548AF7"/>
</svg>
