<!-- Copyright 2000-2026 JetBrains s.r.o. and contributors. Use of this source code is governed by the Apache 2.0 license. -->
<svg width="16" height="16" viewBox="0 0 16 16" fill="none" xmlns="http://www.w3.org/2000/svg"><defs><mask id="cutout-mask"><rect width="16" height="16" fill="white"/><g stroke="black" stroke-width="3" stroke-linejoin="round" stroke-linecap="round"><path fill="black" d="M13 11.5c0 .28-.22.5-.5.5s-.5-.22-.5-.5.22-.5.5-.5.5.22.5.5Zm-.5 1.5c-.28 0-.5.22-.5.5s.22.5.5.5.5-.22.5-.5-.22-.5-.5-.5Zm0 2c-.28 0-.5.22-.5.5s.22.5.5.5.5-.22.5-.5-.22-.5-.5-.5Zm0-6c-.28 0-.5.22-.5.5s.22.5.5.5.5-.22.5-.5-.22-.5-.5-.5Zm-1 5H10v-3h1.5v-1H10c-.55 0-1 .45-1 1v3c0 .55.45 1 1 1h1.5v-1Zm4.5-3v3c0 .55-.45 1-1 1h-1.5v-1H15v-3h-1.5v-1H15c.55 0 1 .45 1 1Z" stroke="black"/></g></mask></defs><g mask="url(#cutout-mask)"><path d="M8.10584 4.34613L8.25344 4.5H8.46667H13C13.8284 4.5 14.5 5.17157 14.5 6V12.1333C14.5 12.9529 13.932 13.5 13.3667 13.5H2.63333C2.06804 13.5 1.5 12.9529 1.5 12.1333V3.86667C1.5 3.04707 2.06804 2.5 2.63333 2.5H6.1217C6.25792 2.5 6.38824 2.55557 6.48253 2.65387L8.10584 4.34613Z" fill="#EBECF0" stroke="#6C707E"/></g><g><path fill="#3574F0" d="M13 11.5c0 .28-.22.5-.5.5s-.5-.22-.5-.5.22-.5.5-.5.5.22.5.5Zm-.5 1.5c-.28 0-.5.22-.5.5s.22.5.5.5.5-.22.5-.5-.22-.5-.5-.5Zm0 2c-.28 0-.5.22-.5.5s.22.5.5.5.5-.22.5-.5-.22-.5-.5-.5Zm0-6c-.28 0-.5.22-.5.5s.22.5.5.5.5-.22.5-.5-.22-.5-.5-.5Zm-1 5H10v-3h1.5v-1H10c-.55 0-1 .45-1 1v3c0 .55.45 1 1 1h1.5v-1Zm4.5-3v3c0 .55-.45 1-1 1h-1.5v-1H15v-3h-1.5v-1H15c.55 0 1 .45 1 1Z"/></g></svg>