<!-- Copyright 2000-2026 JetBrains s.r.o. and contributors. Use of this source code is governed by the Apache 2.0 license. -->
<svg width="16" height="17" viewBox="0 0 16 17" fill="none" xmlns="http://www.w3.org/2000/svg">
<path d="M12.6723 16.0901C12.0655 16.0901 11.5845 15.9234 11.2291 15.5899C10.8793 15.2564 10.7043 14.8027 10.7043 14.2287H11.7293C11.7293 14.5294 11.8113 14.7644 11.9753 14.9339C12.1448 15.1034 12.3771 15.1881 12.6723 15.1881C12.9675 15.1881 13.1971 15.1034 13.3611 14.9339C13.5306 14.7644 13.6153 14.5321 13.6153 14.2369V10.9651H12.2213V10.0139H14.6403V14.2369C14.6403 14.8054 14.4627 15.2564 14.1073 15.5899C13.7575 15.9234 13.2791 16.0901 12.6723 16.0901Z" fill="#548AF7"/>
<path d="M6.12207 2C6.39437 2.0001 6.65525 2.11111 6.84375 2.30762L8.4668 4H13C14.1046 4 15 4.89543 15 6V9H11C10.4477 9 10 9.44772 10 10V14H2.63379C1.73186 14 1.00022 13.1645 1 12.1338V3.86621C1.00022 2.83549 1.73186 2 2.63379 2H6.12207Z" fill="#43454A"/>
<path d="M6.12207 2C6.39437 2.0001 6.65525 2.11111 6.84375 2.30762L8.4668 4H13C14.1046 4 15 4.89543 15 6V9H14V6C14 5.44771 13.5523 5 13 5H8.04004L6.12207 3H2.63379C2.40532 3 2.0002 3.25829 2 3.86621V12.1338C2.0002 12.7417 2.40532 13 2.63379 13H10V14H2.63379L2.4668 13.9902C1.6979 13.9012 1.08689 13.2029 1.00879 12.3242L1 12.1338V3.86621C1.0002 2.89975 1.6431 2.10511 2.4668 2.00977L2.63379 2H6.12207Z" fill="#CED0D6"/>
</svg>
