<!-- Copyright 2000-2022 JetBrains s.r.o. and contributors. Use of this source code is governed by the Apache 2.0 license. -->
<svg width="16" height="16" viewBox="0 0 16 16" fill="none" xmlns="http://www.w3.org/2000/svg">
<path fill-rule="evenodd" clip-rule="evenodd" d="M1 3.86667C1 2.83574 1.7835 2 2.75 2H6.03823C6.29871 2 6.5489 2.10163 6.73559 2.28327L8.5 4L13 4C14.1046 4 15 4.89543 15 6V8H6C5.44772 8 5 8.44772 5 9V14H2.75C1.7835 14 1 13.1643 1 12.1333V3.86667Z" fill="#43454A"/>
<path fill-rule="evenodd" clip-rule="evenodd" d="M7.80265 4.71673L8.09379 5H8.5H13C13.5523 5 14 5.44772 14 6V8H15V6C15 4.89543 14.1046 4 13 4L8.5 4L6.73559 2.28327C6.5489 2.10163 6.29871 2 6.03823 2H2.75C1.7835 2 1 2.83574 1 3.86667V12.1333C1 13.1643 1.7835 14 2.75 14H5V13H2.75C2.3956 13 2 12.6738 2 12.1333V3.86667C2 3.32624 2.3956 3 2.75 3H6.03823L7.80265 4.71673Z" fill="#CED0D6"/>
<path d="M6.5 10C6.5 9.72386 6.72386 9.5 7 9.5H12.5C12.7761 9.5 13 9.72386 13 10V12.25C13 14.0449 11.5449 15.5 9.75 15.5C7.95507 15.5 6.5 14.0449 6.5 12.25V10Z" fill="#25324D" stroke="#548AF7"/>
<path d="M13 9.5H14C14.8284 9.5 15.5 10.1716 15.5 11C15.5 11.8284 14.8284 12.5 14 12.5H13V9.5Z" stroke="#548AF7"/>
</svg>
