<!-- Copyright 2000-2022 JetBrains s.r.o. and contributors. Use of this source code is governed by the Apache 2.0 license. -->
<svg width="16" height="16" viewBox="0 0 16 16" fill="none" xmlns="http://www.w3.org/2000/svg">
<path d="M2.5 4.5H5.5C5.77614 4.5 6 4.72386 6 5V13.5H2.5C2.22386 13.5 2 13.2761 2 13V5C2 4.72386 2.22386 4.5 2.5 4.5Z" fill="#EBECF0" stroke="#6C707E"/>
<path d="M6.5 2.5H9.5C9.77614 2.5 10 2.72386 10 3V13.5H6V3C6 2.72386 6.22386 2.5 6.5 2.5Z" fill="#EBECF0" stroke="#6C707E"/>
<path d="M10.5 6.5H13.5C13.7761 6.5 14 6.72386 14 7V13C14 13.2761 13.7761 13.5 13.5 13.5H10V7C10 6.72386 10.2239 6.5 10.5 6.5Z" fill="#EBECF0" stroke="#6C707E"/>
</svg>
