<!-- Copyright 2000-2023 JetBrains s.r.o. and contributors. Use of this source code is governed by the Apache 2.0 license. -->
<svg width="16" height="16" viewBox="0 0 16 16" fill="none" xmlns="http://www.w3.org/2000/svg">
<path d="M2.75 2C1.7835 2 1 2.83574 1 3.86667V12.1333C1 13.1643 1.7835 14 2.75 14H7V10C7 8.89543 7.89543 8 9 8H9.26756C9.61337 7.4022 10.2597 7 11 7H12C13.1046 7 14 7.89543 14 9C14.3643 9 14.7058 9.09739 15 9.26756V6C15 4.89543 14.1046 4 13 4L8.5 4L6.73559 2.28327C6.5489 2.10163 6.29871 2 6.03823 2H2.75Z" fill="#EBECF0"/>
<path d="M13 5H8.09379L6.03823 3H2.75C2.3956 3 2 3.32624 2 3.86667V12.1333C2 12.6738 2.3956 13 2.75 13H7V14H2.75C1.7835 14 1 13.1643 1 12.1333V3.86667C1 2.83574 1.7835 2 2.75 2H6.03823C6.29871 2 6.5489 2.10163 6.73559 2.28327L8.5 4L13 4C14.1046 4 15 4.89543 15 6V9.26756C14.7058 9.09739 14.3643 9 14 9V6C14 5.44772 13.5523 5 13 5Z" fill="#6C707E"/>
<path d="M11 9H12V14H11V9Z" fill="#EDF3FF"/>
<path d="M9 10H10V14H9V10Z" fill="#EDF3FF"/>
<path d="M14 11H13V14H14V11Z" fill="#EDF3FF"/>
<path fill-rule="evenodd" clip-rule="evenodd" d="M10 9C10 8.44772 10.4477 8 11 8H12C12.5523 8 13 8.44772 13 9V10H14C14.5523 10 15 10.4477 15 11V14C15 14.5523 14.5523 15 14 15H9C8.44772 15 8 14.5523 8 14V10C8 9.44772 8.44772 9 9 9L10 9ZM11 9H12V14H11V9ZM10 10H9L9 14H10V10ZM13 14H14V11H13V14Z" fill="#3574F0"/>
</svg>
