<svg version="1.1" viewBox="0 0 16 16" xmlns="http://www.w3.org/2000/svg">
  <path d="m1 2.87c0-1.03 0.784-1.87 1.75-1.87h3.29c0.26 0 0.511 0.102 0.697 0.283l1.76 1.72h4.5c1.1 0 2 0.895 2 2v3h-6c-0.552 0-1 0.448-1 1v4h-5.25c-0.966 0-1.75-0.836-1.75-1.87z" fill="#ebecf0"/>
  <g fill="#6c707e">
    <path d="m8.09 4h4.91c0.552 0 1 0.448 1 1v3h1v-3c0-1.1-0.895-2-2-2h-4.5l-1.76-1.72c-0.187-0.182-0.437-0.283-0.697-0.283h-3.29c-0.966 0-1.75 0.836-1.75 1.87v8.27c0 1.03 0.784 1.87 1.75 1.87h5.25v-1h-5.25c-0.354 0-0.75-0.326-0.75-0.867v-8.27c0-0.54 0.396-0.867 0.75-0.867h3.29z"/>
    <path d="m10.7 11.7h2v-1h-2z"/>
    <path d="m10.7 13.7h2v-1h-2z"/>
    <path d="m9.74 8.66c-0.552 0-1 0.448-1 1v5c0 0.552 0.448 1 1 1h4c0.552 0 1-0.448 1-1v-5c0-0.552-0.448-1-1-1zm4 1h-4v5h4z" clip-rule="evenodd" fill-rule="evenodd"/>
  </g>
</svg>
