<!-- Copyright 2000-2026 JetBrains s.r.o. and contributors. Use of this source code is governed by the Apache 2.0 license. -->
<svg width="16" height="16" viewBox="0 0 16 16" fill="none" xmlns="http://www.w3.org/2000/svg">
<path d="M6.836 1.738C7.816 0.755 9.406 0.756 10.387 1.738C10.97 2.323 11.204 3.124 11.093 3.884C11.851 3.773 12.65 4.008 13.234 4.593L13.263 4.622C14.243 5.605 14.243 7.197 13.263 8.18L8.116 13.341C8.049 13.409 8.049 13.52 8.116 13.588L9.173 14.648C9.367 14.843 9.367 15.159 9.172 15.354C8.977 15.548 8.661 15.547 8.467 15.353L7.41 14.292C6.954 13.835 6.954 13.094 7.41 12.637L12.557 7.476C13.148 6.882 13.148 5.919 12.557 5.326L12.527 5.297L12.412 5.192C11.818 4.706 10.942 4.742 10.388 5.297L6.091 9.606C5.896 9.802 5.58 9.802 5.385 9.607C5.19 9.413 5.19 9.097 5.384 8.902L9.682 4.592C10.273 3.999 10.273 3.037 9.682 2.443C9.091 1.851 8.134 1.851 7.543 2.443L1.853 8.15C1.658 8.345 1.342 8.346 1.147 8.151C0.952 7.957 0.951 7.64 1.146 7.445L6.836 1.738ZM8.259 3.166C8.453 2.971 8.77 2.971 8.965 3.165C9.16 3.36 9.16 3.675 8.966 3.87L4.757 8.091C4.166 8.684 4.166 9.646 4.757 10.239C5.348 10.832 6.305 10.832 6.896 10.239L11.105 6.02C11.299 5.824 11.615 5.824 11.81 6.019C12.005 6.213 12.005 6.529 11.811 6.724L7.603 10.944C6.622 11.928 5.031 11.928 4.051 10.944C3.071 9.962 3.071 8.369 4.051 7.387L8.259 3.166Z" fill="#CED0D6" color-fill-key="icon-default-stroke"/>
</svg>