<!-- Copyright 2000-2022 JetBrains s.r.o. and contributors. Use of this source code is governed by the Apache 2.0 license. -->
<svg width="16" height="16" viewBox="0 0 16 16" fill="none" xmlns="http://www.w3.org/2000/svg">
<path d="M12.9497 3.05025C15.6834 5.78392 15.6834 10.2161 12.9497 12.9497C10.216 15.6834 5.78388 15.6834 3.05021 12.9497C0.316541 10.2161 0.316541 5.78392 3.05021 3.05025C5.78388 0.316583 10.216 0.316583 12.9497 3.05025Z" fill="#402929"/>
<path fill-rule="evenodd" clip-rule="evenodd" d="M14.9143 6.90481L13.9264 7.06045C13.7359 5.85124 13.1755 4.69027 12.2426 3.75736C11.3097 2.82445 10.1487 2.26404 8.93951 2.07352L9.09515 1.0857C10.5062 1.30802 11.8623 1.96287 12.9497 3.05025C14.0371 4.13763 14.6919 5.49375 14.9143 6.90481ZM6.90477 1.0857L7.06041 2.07352C5.8512 2.26404 4.69023 2.82445 3.75732 3.75736C2.82441 4.69027 2.26399 5.85124 2.07348 7.06045L1.08566 6.90481C1.30798 5.49375 1.96283 4.13763 3.05021 3.05025C4.13759 1.96287 5.49371 1.30802 6.90477 1.0857ZM1.08566 9.09519C1.30798 10.5063 1.96283 11.8624 3.05021 12.9497C4.13759 14.0371 5.49371 14.692 6.90477 14.9143L7.0604 13.9265C5.8512 13.736 4.69023 13.1755 3.75732 12.2426C2.82441 11.3097 2.26399 10.1488 2.07348 8.93955L1.08566 9.09519ZM9.09515 14.9143L8.93951 13.9265C10.1487 13.736 11.3097 13.1755 12.2426 12.2426C13.1755 11.3097 13.7359 10.1488 13.9264 8.93955L14.9143 9.09519C14.6919 10.5063 14.0371 11.8624 12.9497 12.9497C11.8623 14.0371 10.5062 14.692 9.09515 14.9143Z" fill="#DB5C5C"/>
<path d="M10.0735 5.11804C10.4584 5.11804 10.7962 5.21154 11.0866 5.39854C11.3806 5.58188 11.6063 5.84221 11.7638 6.17954C11.9213 6.51321 12 6.89638 12 7.32904V10.882H10.9764V7.42804C10.9764 6.99171 10.8784 6.65254 10.6824 6.41054C10.4899 6.16854 10.2117 6.04754 9.84777 6.04754C9.5713 6.04754 9.33158 6.11721 9.12861 6.25654C8.92913 6.39221 8.77515 6.58654 8.66667 6.83954C8.56168 7.08888 8.50919 7.38221 8.50919 7.71954V10.882H7.49606V7.42804C7.49606 6.99538 7.39283 6.65804 7.18635 6.41604C6.98338 6.17038 6.69991 6.04754 6.33596 6.04754C5.92651 6.04754 5.6063 6.19788 5.37533 6.49854C5.14436 6.79921 5.02887 7.20621 5.02887 7.71954V10.882H4V5.25004H4.99738V6.11354C5.16185 5.79454 5.37883 5.54888 5.64829 5.37654C5.92126 5.20421 6.23272 5.11804 6.58268 5.11804C6.97813 5.11804 7.32283 5.21704 7.6168 5.41504C7.91426 5.60938 8.13998 5.88071 8.29396 6.22904C8.47594 5.87704 8.71916 5.60388 9.02362 5.40954C9.33158 5.21521 9.68154 5.11804 10.0735 5.11804Z" fill="#DB5C5C"/>
</svg>
