<!-- Copyright 2000-2022 JetBrains s.r.o. and contributors. Use of this source code is governed by the Apache 2.0 license. -->
<svg width="16" height="16" viewBox="0 0 16 16" fill="none" xmlns="http://www.w3.org/2000/svg">
<circle cx="8" cy="8" r="6.5" fill="#402929" stroke="#DB5C5C"/>
<path d="M6 4L6.21115 3.89443C7.33726 3.33137 8.66274 3.33137 9.78885 3.89443L10 4" stroke="#DB5C5C"/>
<path d="M10.0735 5.11804C10.4584 5.11804 10.7962 5.21154 11.0866 5.39854C11.3806 5.58188 11.6063 5.84221 11.7638 6.17954C11.9213 6.51321 12 6.89638 12 7.32904V10.882H10.9764V7.42804C10.9764 6.99171 10.8784 6.65254 10.6824 6.41054C10.4899 6.16854 10.2117 6.04754 9.84777 6.04754C9.5713 6.04754 9.33158 6.11721 9.12861 6.25654C8.92913 6.39221 8.77515 6.58654 8.66667 6.83954C8.56168 7.08888 8.50919 7.38221 8.50919 7.71954V10.882H7.49606V7.42804C7.49606 6.99538 7.39283 6.65804 7.18635 6.41604C6.98338 6.17038 6.69991 6.04754 6.33596 6.04754C5.92651 6.04754 5.6063 6.19788 5.37533 6.49854C5.14436 6.79921 5.02887 7.20621 5.02887 7.71954V10.882H4V5.25004H4.99738V6.11354C5.16185 5.79454 5.37883 5.54888 5.64829 5.37654C5.92126 5.20421 6.23272 5.11804 6.58268 5.11804C6.97813 5.11804 7.32283 5.21704 7.6168 5.41504C7.91426 5.60938 8.13998 5.88071 8.29396 6.22904C8.47594 5.87704 8.71916 5.60388 9.02362 5.40954C9.33158 5.21521 9.68154 5.11804 10.0735 5.11804Z" fill="#DB5C5C"/>
</svg>
