<!-- Copyright 2000-2022 JetBrains s.r.o. and contributors. Use of this source code is governed by the Apache 2.0 license. -->
<svg width="16" height="16" viewBox="0 0 16 16" fill="none" xmlns="http://www.w3.org/2000/svg">
<path fill-rule="evenodd" clip-rule="evenodd" d="M10 9C9.44772 9 9 9.44772 9 10L9 15C9 15.5523 9.44772 16 10 16L15 16C15.5523 16 16 15.5523 16 15L16 10C16 9.44772 15.5523 9.00001 15 9.00001L10 9ZM10 11L10 10H12L12 11H10ZM10 12L10 15H12L12 12H10ZM13 15H15L15 12H13L13 15ZM15 11L15 10H13L13 11H15Z" fill="#CED0D6"/>
<path d="M15 8C15 4.13401 11.866 1 8 1C4.13401 1 1 4.13401 1 8C1 11.866 4.13401 15 8 15V10C8 8.89543 8.89543 8 10 8H15Z" fill="#25324D"/>
<path d="M15 8C15 4.13401 11.866 1 8 1C4.13401 1 1 4.13401 1 8C1 11.866 4.13401 15 8 15V14C4.68629 14 2 11.3137 2 8C2 4.68629 4.68629 2 8 2C11.3137 2 14 4.68629 14 8H15Z" fill="#548AF7"/>
<path d="M8 10.5731V11.4976C6.14823 11.4303 4.7876 9.95963 4.7876 8C4.7876 5.99378 6.2137 4.5 8.1329 4.5C9.62185 4.5 10.8981 5.39917 11.2123 6.67541H10.1971C9.8829 5.94544 9.10459 5.42334 8.1329 5.42334C6.79381 5.42334 5.82696 6.49655 5.82696 8C5.82696 9.45324 6.73031 10.5045 8 10.5731Z" fill="#548AF7"/>
</svg>
