<!-- Copyright 2000-2023 JetBrains s.r.o. and contributors. Use of this source code is governed by the Apache 2.0 license. -->
<svg width="16" height="16" viewBox="0 0 16 16" fill="none" xmlns="http://www.w3.org/2000/svg">
<path d="M15 8C15 4.13401 11.866 1 8 1C4.13401 1 1 4.13401 1 8C1 11.866 4.13401 15 8 15V10C8 8.89543 8.89543 8 10 8H15Z" fill="#25324D"/>
<path d="M8 14C4.68629 14 2 11.3137 2 8C2 4.68629 4.68629 2 8 2C11.3137 2 14 4.68629 14 8H15C15 4.13401 11.866 1 8 1C4.13401 1 1 4.13401 1 8C1 11.866 4.13401 15 8 15V14Z" fill="#548AF7"/>
<path fill-rule="evenodd" clip-rule="evenodd" d="M10 9C9.44772 9 9 9.44772 9 10L9 15C9 15.5523 9.44772 16 10 16L15 16C15.5523 16 16 15.5523 16 15L16 10C16 9.44772 15.5523 9.00001 15 9.00001L10 9ZM10 11L10 10H12L12 11H10ZM10 12L10 15H12L12 12H10ZM13 15H15L15 12H13L13 15ZM15 11L15 10H13L13 11H15Z" fill="#CED0D6"/>
<path d="M8 10.5731C6.73005 10.5048 5.82647 9.45343 5.82647 8C5.82647 6.49655 6.79332 5.42334 8.13241 5.42334C9.1041 5.42334 9.88241 5.94544 10.1966 6.67541H11.2118C10.8976 5.39917 9.62136 4.5 8.13241 4.5C6.21321 4.5 4.78711 5.99378 4.78711 8C4.78711 9.9598 6.14798 11.4306 8 11.4976V10.5731Z" fill="#548AF7"/>
</svg>
