<!-- Copyright 2000-2025 JetBrains s.r.o. and contributors. Use of this source code is governed by the Apache 2.0 license. -->
<svg width="16" height="16" viewBox="0 0 16 16" fill="none" xmlns="http://www.w3.org/2000/svg">
<g clip-path="url(#clip0_19186_15594)">
<circle cx="5" cy="11" r="4.5" fill="#25324D" stroke="#548AF7"/>
<path d="M10.9046 12.0701C12.173 11.1632 12.9998 9.67815 12.9998 8C12.9998 5.23858 10.7612 3 7.99979 3C6.32163 3 4.83658 3.82674 3.92969 5.09515C4.27693 5.03263 4.63455 5 4.99979 5C8.3135 5 10.9998 7.68629 10.9998 11C10.9998 11.3652 10.9672 11.7229 10.9046 12.0701Z" fill="#3D3223"/>
<path d="M10.9901 10.6567C11.6182 9.95025 11.9998 9.01968 11.9998 8C11.9998 5.79086 10.2089 4 7.99979 4C6.98011 4 6.04954 4.38154 5.34306 5.00966C5.22945 5.00325 5.115 5 4.99979 5C4.63455 5 4.27693 5.03263 3.92969 5.09515C4.83658 3.82674 6.32163 3 7.99979 3C10.7612 3 12.9998 5.23858 12.9998 8C12.9998 9.67815 12.173 11.1632 10.9046 12.0701C10.9672 11.7229 10.9998 11.3652 10.9998 11C10.9998 10.8848 10.9965 10.7703 10.9901 10.6567Z" fill="#C77D55"/>
<path d="M13.9046 9.0701C15.173 8.16321 15.9998 6.67815 15.9998 5C15.9998 2.23858 13.7612 0 10.9998 0C9.32163 0 7.83658 0.826741 6.92969 2.09515C7.27693 2.03263 7.63455 2 7.99979 2C11.3135 2 13.9998 4.68629 13.9998 8C13.9998 8.36524 13.9672 8.72286 13.9046 9.0701Z" fill="#253627"/>
<path d="M13.9901 7.65672C14.6182 6.95025 14.9998 6.01968 14.9998 5C14.9998 2.79086 13.2089 1 10.9998 1C9.98011 1 9.04954 1.38154 8.34306 2.00966C8.22945 2.00325 8.115 2 7.99979 2C7.63455 2 7.27693 2.03263 6.92969 2.09515C7.83658 0.826741 9.32163 0 10.9998 0C13.7612 0 15.9998 2.23858 15.9998 5C15.9998 6.67815 15.173 8.16321 13.9046 9.0701C13.9672 8.72286 13.9998 8.36524 13.9998 8C13.9998 7.88479 13.9965 7.77033 13.9901 7.65672Z" fill="#57965C"/>
</g>
<defs>
<clipPath id="clip0_19186_15594">
<rect width="16" height="16" fill="white"/>
</clipPath>
</defs>
</svg>
