<!-- Copyright 2000-2024 JetBrains s.r.o. and contributors. Use of this source code is governed by the Apache 2.0 license. -->
<svg fill="none" width="16" height="16" viewBox="0 0 16 16" xmlns="http://www.w3.org/2000/svg">
  <path d="m6.48 3c-1.72 0-3.18 1.18-3.58 2.78h-1.97c-0.511 0-0.926 0.415-0.926 0.926v1.85c0 0.511 0.415 0.926 0.926 0.926h1.97c0.411 1.6 1.86 2.78 3.58 2.78h1.85v-0.926h-1.85c-1.54 0-2.78-1.24-2.78-2.78v-1.85c0-1.54 1.24-2.78 2.78-2.78h3.71v4.63h0.926v-2.78h3.24c0.256 0 0.463-0.208 0.463-0.463 0-0.256-0.208-0.463-0.463-0.463h-3.24v-0.926c0-0.511-0.415-0.926-0.926-0.926zm-5.56 3.71h1.85v1.85h-1.85z" clip-rule="evenodd" fill="#CED0D6" fill-rule="evenodd"/>
  <path d="m10.5 14a0.5 0.5 0 0 0-0.5 0.5 0.5 0.5 0 0 0 0.5 0.5h2a0.5 0.5 0 0 0 0.5-0.5 0.5 0.5 0 0 0-0.5-0.5z" fill="#fff" stroke-linecap="round" stroke-linejoin="round"/>
  <rect x="9" y="9" width="7" height="7" rx="1" fill="#000"/>
  <path d="m10.5 14.5h2" stroke="#fff" stroke-linecap="round" stroke-linejoin="round"/>
</svg>
