<svg width="40" height="40" viewBox="0 0 40 40" fill="none" xmlns="http://www.w3.org/2000/svg">
<path fill-rule="evenodd" clip-rule="evenodd" d="M10 14C10 9.58172 13.5817 6 18 6H26C28.2091 6 30 7.79086 30 10V12H36.5C37.3284 12 38 12.6716 38 13.5C38 14.3284 37.3284 15 36.5 15H30V25H36.5C37.3284 25 38 25.6716 38 26.5C38 27.3284 37.3284 28 36.5 28H30V30C30 32.2091 28.2091 34 26 34H18C13.5817 34 10 30.4183 10 26H6C3.79086 26 2 24.2091 2 22V18C2 15.7909 3.79086 14 6 14L10 14ZM18 9H26C26.5523 9 27 9.44772 27 10V30C27 30.5523 26.5523 31 26 31H18C15.2386 31 13 28.7614 13 26V14C13 11.2386 15.2386 9 18 9ZM10 17H6C5.44772 17 5 17.4477 5 18V22C5 22.5523 5.44772 23 6 23H10V17Z" fill="#6C707E"/>
</svg>
