<svg width="40" height="40" viewBox="0 0 40 40" fill="none" xmlns="http://www.w3.org/2000/svg">
  <path fill-rule="evenodd" clip-rule="evenodd" d="M11 10C11 10.5523 10.5523 11 10 11H7V33H12C12 28.5817 15.5817 25 20 25C24.4183 25 28 28.5817 28 33H33V11H30C29.4477 11 29 10.5523 29 10V7H25V10C25 10.5523 24.5523 11 24 11H16C15.4477 11 15 10.5523 15 10V7H11V10ZM4 9C4 8.44771 4.44772 8 5 8H8V5C8 4.44772 8.44772 4 9 4H17C17.5523 4 18 4.44772 18 5V8H22V5C22 4.44772 22.4477 4 23 4H31C31.5523 4 32 4.44772 32 5V8H35C35.5523 8 36 8.44772 36 9V35C36 35.5523 35.5523 36 35 36H26C25.4477 36 25 35.5523 25 35V33C25 30.2386 22.7614 28 20 28C17.2386 28 15 30.2386 15 33V35C15 35.5523 14.5523 36 14 36H5C4.44772 36 4 35.5523 4 35V9Z" fill="#3574F0"/>
</svg>
