<!-- Copyright 2000-2022 JetBrains s.r.o. and contributors. Use of this source code is governed by the Apache 2.0 license. -->
<svg width="16" height="16" viewBox="0 0 16 16" fill="none" xmlns="http://www.w3.org/2000/svg">
<path fill-rule="evenodd" clip-rule="evenodd" d="M10 2.5C8.60533 2.5 7.7319 3.31175 6.9818 4.00888C6.93691 4.05059 6.89247 4.0919 6.84838 4.1326C6.04656 4.87275 5.29555 5.5 4.00004 5.5C3.7239 5.5 3.50004 5.72385 3.50004 5.99999L4.00004 6L3.50004 6.00002V6.00012V6.00053V6.00216L3.50004 6.00862L3.50004 6.03392L3.50003 6.13085L3.50003 6.48436L3.50003 6.5H1H0.5V7V9V9.5H1H3.50003L3.50004 10C3.50006 10.2762 3.72391 10.5 4.00004 10.5C5.29555 10.5 6.04656 11.1273 6.84838 11.8674C6.89242 11.9081 6.93682 11.9493 6.98166 11.991L6.9818 11.9911C7.7319 12.6882 8.60533 13.5 10 13.5H12C12.2762 13.5 12.5 13.2761 12.5 13V10.5H15C15.2761 10.5 15.5 10.2761 15.5 10C15.5 9.72386 15.2761 9.5 15 9.5H12.5V6.5H15C15.2761 6.5 15.5 6.27614 15.5 6C15.5 5.72386 15.2761 5.5 15 5.5H12.5V3C12.5 2.72386 12.2762 2.5 12 2.5H10ZM11.5 5.99392V3.5H10C9.00656 3.5 8.40488 4.05595 7.5965 4.8029L7.52666 4.8674C6.78744 5.54977 5.90643 6.32318 4.50003 6.47382V6.48439L4.50001 7.62501L4.50003 9.52618C5.90644 9.67682 6.78744 10.4502 7.52666 11.1326L7.59649 11.1971C8.40488 11.944 9.00656 12.5 10 12.5H11.5V10.0061C11.5 10.0041 11.5 10.002 11.5 10C11.5 9.99797 11.5 9.99594 11.5 9.99392V6.00608C11.5 6.00406 11.5 6.00203 11.5 6C11.5 5.99797 11.5 5.99594 11.5 5.99392ZM1.5 7.5V8.5H3.5V7.5H1.5Z" fill="#CED0D6"/>
</svg>
