<!-- Copyright 2000-2025 JetBrains s.r.o. and contributors. Use of this source code is governed by the Apache 2.0 license. -->
<svg width="16" height="16" viewBox="0 0 16 16" xmlns="http://www.w3.org/2000/svg">
  <path fill="#EBECF0" stroke="#6C707E" stroke-miterlimit="10" d="M13 7h-.5V4.5c0-.55-.45-1-1-1H9V3c0-.55-.45-1-1-1s-1 .45-1 1v.5H4.5c-.55 0-1 .45-1 1V7H4c.55 0 1 .45 1 1s-.45 1-1 1h-.5v2.5c0 .55.45 1 1 1H7V12c0-.55.45-1 1-1s1 .45 1 1v.5h2.5c.55 0 1-.45 1-1V9h.5c.55 0 1-.45 1-1s-.45-1-1-1Z"/>
  <path fill="#6C707E" d="M8.39 8.1h-.92v-.11c0-.47.21-.91.58-1.21l.15-.12a.37.37 0 0 0 .14-.29.46.46 0 0 0-.13-.34.439.439 0 0 0-.31-.13c-.25 0-.43.06-.58.17l-.35.26-.55-.73.35-.26c.64-.48 1.6-.44 2.08.04.26.26.4.59.4.96 0 .43-.18.79-.49 1.04l-.12.1c-.18.14-.26.32-.26.52v.11l.01-.01ZM8 8.9c-.33 0-.6.27-.6.6 0 .33.27.6.6.6.33 0 .6-.27.6-.6 0-.33-.27-.6-.6-.6Z"/>
</svg>
