<!-- Copyright 2000-2024 JetBrains s.r.o. and contributors. Use of this source code is governed by the Apache 2.0 license. -->
<svg width="16" height="16" viewBox="0 0 16 16" fill="none" xmlns="http://www.w3.org/2000/svg">
<path d="M12.5 16C14.433 16 16 14.433 16 12.5C16 10.567 14.433 9 12.5 9C10.567 9 9 10.567 9 12.5C9 14.433 10.567 16 12.5 16Z" fill="#4682FA"/>
<path fill-rule="evenodd" clip-rule="evenodd" d="M12.1464 10.1464C12.3417 9.95118 12.6583 9.95118 12.8536 10.1464L14.8536 12.1464C15.0488 12.3417 15.0488 12.6583 14.8536 12.8536L12.8536 14.8536C12.6583 15.0488 12.3417 15.0488 12.1464 14.8536C11.9512 14.6583 11.9512 14.3417 12.1464 14.1464L13.2929 13H10.5C10.2239 13 10 12.7761 10 12.5C10 12.2239 10.2239 12 10.5 12H13.2929L12.1464 10.8536C11.9512 10.6583 11.9512 10.3417 12.1464 10.1464Z" fill="white"/>
</svg>
