<!-- Copyright 2000-2022 JetBrains s.r.o. and contributors. Use of this source code is governed by the Apache 2.0 license. -->
<svg width="16" height="16" viewBox="0 0 16 16" fill="none" xmlns="http://www.w3.org/2000/svg">
<circle cx="8" cy="8" r="6.5" fill="#2F2936" stroke="#B589EC"/>
<path d="M8.60005 5C9.07012 5 9.49762 5.11922 9.88253 5.35766C10.2674 5.59611 10.5689 5.92482 10.7869 6.3438C11.0083 6.75937 11.119 7.22433 11.119 7.73869C11.119 8.25304 11.0083 8.71971 10.7869 9.13869C10.5655 9.55426 10.2623 9.88127 9.87742 10.1197C9.49591 10.3582 9.07012 10.4774 8.60005 10.4774C8.21854 10.4774 7.8728 10.3956 7.56282 10.2321C7.25285 10.0686 6.99567 9.83869 6.79129 9.54234V12H5.80005V5.12263H6.79129V5.94015C6.99567 5.64039 7.25285 5.40876 7.56282 5.24526C7.8728 5.08175 8.21854 5 8.60005 5ZM8.43654 9.5781C8.75674 9.5781 9.04117 9.50146 9.28983 9.34818C9.53849 9.19148 9.73095 8.97518 9.8672 8.69927C10.0069 8.41995 10.0767 8.09976 10.0767 7.73869C10.0767 7.37762 10.0069 7.05912 9.8672 6.78321C9.73095 6.50389 9.53849 6.28759 9.28983 6.13431C9.04117 5.97762 8.75674 5.89927 8.43654 5.89927C8.13679 5.89927 7.86769 5.9674 7.62925 6.10365C7.3908 6.2365 7.19835 6.42384 7.05187 6.66569C6.9054 6.90754 6.81854 7.18856 6.79129 7.50876V7.96861C6.81854 8.28881 6.9054 8.56983 7.05187 8.81168C7.19835 9.05353 7.3908 9.24258 7.62925 9.37883C7.86769 9.51168 8.13679 9.5781 8.43654 9.5781Z" fill="#B589EC"/>
</svg>
