<!-- Copyright 2000-2022 JetBrains s.r.o. and contributors. Use of this source code is governed by the Apache 2.0 license. -->
<svg width="16" height="16" viewBox="0 0 16 16" fill="none" xmlns="http://www.w3.org/2000/svg">
<circle cx="8" cy="8" r="6.5" fill="#E7EFFD" stroke="#3574F0"/>
<path d="M8.23 8.405H9.325L11.225 11.5H10.075L8.23 8.405ZM6 4.5H8.885C9.34833 4.5 9.75333 4.58667 10.1 4.76C10.45 4.93 10.72 5.17167 10.91 5.485C11.1 5.795 11.195 6.15833 11.195 6.575C11.195 6.98833 11.0983 7.35333 10.905 7.67C10.7117 7.98667 10.4383 8.23167 10.085 8.405C9.73167 8.575 9.31833 8.66 8.845 8.66H7V11.5H6V4.5ZM8.86 7.77C9.12 7.77 9.34667 7.72167 9.54 7.625C9.73333 7.52833 9.88333 7.39 9.99 7.21C10.0967 7.03 10.15 6.81833 10.15 6.575C10.15 6.335 10.0967 6.12667 9.99 5.95C9.88333 5.77 9.73333 5.63167 9.54 5.535C9.34667 5.43833 9.12 5.39 8.86 5.39H7V7.77H8.86Z" fill="#3574F0"/>
</svg>
