<!-- Copyright 2000-2024 JetBrains s.r.o. and contributors. Use of this source code is governed by the Apache 2.0 license. -->
<svg width="16" height="16" viewBox="0 0 16 16" fill="none" xmlns="http://www.w3.org/2000/svg">
<path d="M11.7072 9.58572C11.5119 9.39046 11.5119 9.07388 11.7072 8.87861L13.0507 7.53511C14.317 6.26878 14.317 4.21565 13.0507 2.94932C11.7843 1.68299 9.73121 1.68299 8.46489 2.94932L7.12138 4.29283C6.92612 4.48809 6.60953 4.48809 6.41427 4.29283C6.21901 4.09757 6.21901 3.78098 6.41427 3.58572L7.75778 2.24221C9.41463 0.585359 12.1009 0.58536 13.7578 2.24221C15.4146 3.89907 15.4146 6.58536 13.7578 8.24221L12.4143 9.58572C12.219 9.78098 11.9024 9.78098 11.7072 9.58572Z" fill="#CED0D6"/>
<path d="M10.6464 4.64645C10.8417 4.45118 11.1583 4.45118 11.3536 4.64645C11.5488 4.84171 11.5488 5.15829 11.3536 5.35355L5.35355 11.3536C5.15829 11.5488 4.84171 11.5488 4.64645 11.3536C4.45118 11.1583 4.45118 10.8417 4.64645 10.6464L10.6464 4.64645Z" fill="#CED0D6"/>
<path d="M4.29289 6.41421C4.48815 6.60947 4.48815 6.92605 4.29289 7.12132L2.95316 8.46104C1.68684 9.72737 1.68684 11.7805 2.95317 13.0468C4.2195 14.3132 6.27262 14.3132 7.53895 13.0468L8.87871 11.7071C9.07396 11.5118 9.39051 11.5118 9.58578 11.707C9.78107 11.9023 9.78109 12.2189 9.58581 12.4142L8.24606 13.7539C6.5892 15.4108 3.90291 15.4108 2.24606 13.7539C0.589205 12.0971 0.589204 9.41079 2.24606 7.75393L3.58578 6.41421C3.78104 6.21895 4.09763 6.21895 4.29289 6.41421Z" fill="#CED0D6"/>
</svg>
