<svg width="16" height="16" viewBox="0 0 16 16" fill="none" xmlns="http://www.w3.org/2000/svg">
<rect x="14" y="9" width="2" height="7" rx="1" fill="#55A76A"/>
<rect x="11" y="11" width="2" height="5" rx="1" fill="#FFAF0F"/>
<rect x="8" y="13" width="2" height="3" rx="1" fill="#E55765"/>
<path d="M1 3.86667C1 2.83574 1.73127 2 2.63333 2H6.1217C6.39413 2 6.65477 2.11115 6.84336 2.30775L8.46667 4L13 4C14.1046 4 15 4.89543 15 6V8C13.8954 8 13 8.89543 13 10H12C10.8954 10 10 10.8954 10 12H9C7.89543 12 7 12.8954 7 14H2.63333C1.73127 14 1 13.1643 1 12.1333V3.86667Z" fill="#EBECF0"/>
<path d="M2.63333 3L6.1217 3L8.04022 5H13C13.5523 5 14 5.44771 14 6V8.26756C14.2942 8.09739 14.6357 8 15 8V6C15 4.89543 14.1046 4 13 4L8.46667 4L6.84336 2.30775C6.65477 2.11115 6.39413 2 6.1217 2H2.63333C1.73127 2 1 2.83574 1 3.86667V12.1333C1 13.1643 1.73127 14 2.63333 14H7C7 13.6357 7.09739 13.2942 7.26756 13H2.63333C2.40481 13 2 12.7416 2 12.1333V3.86667C2 3.25841 2.40481 3 2.63333 3Z" fill="#6C707E"/>
</svg>
