<!-- Copyright 2000-2024 JetBrains s.r.o. and contributors. Use of this source code is governed by the Apache 2.0 license. -->
<svg width="16" height="16" viewBox="0 0 16 16" fill="none" xmlns="http://www.w3.org/2000/svg">
<g clip-path="url(#clip0_12388_792)">
<path fill-rule="evenodd" clip-rule="evenodd" d="M9 1.50215C9 0.324411 10.2951 -0.393923 11.2942 0.229668L15.2962 2.7275C16.2372 3.31485 16.2372 4.68512 15.2962 5.27247L11.2942 7.7703C10.2951 8.39389 9 7.67556 9 6.49782V1.50215ZM10.7647 1.07799C10.4317 0.870127 10 1.10957 10 1.50215V6.49782C10 6.8904 10.4317 7.12985 10.7647 6.92198L14.7667 4.42415C15.0804 4.22836 15.0804 3.77161 14.7667 3.57582L10.7647 1.07799Z" fill="#208A3C"/>
<path d="M10 1.50217C10 1.10959 10.4317 0.870147 10.7647 1.07801L14.7667 3.57584C15.0804 3.77163 15.0804 4.22838 14.7667 4.42417L10.7647 6.922C10.4317 7.12987 10 6.89042 10 6.49784V1.50217Z" fill="#F2FCF3"/>
</g>
<defs>
<clipPath id="clip0_12388_792">
<rect width="16" height="16" fill="white"/>
</clipPath>
</defs>
</svg>
