<!-- Copyright 2000-2024 JetBrains s.r.o. and contributors. Use of this source code is governed by the Apache 2.0 license. -->
<svg width="16" height="16" viewBox="0 0 16 16" fill="none" xmlns="http://www.w3.org/2000/svg">
<path fill-rule="evenodd" clip-rule="evenodd" d="M8 8.96905C9.97316 8.723 11.5 7.03981 11.5 5C11.5 2.79086 9.70914 1 7.5 1C5.29086 1 3.5 2.79086 3.5 5C3.5 7.03981 5.02684 8.723 7 8.96905V14.5C7 14.7761 7.22386 15 7.5 15C7.77614 15 8 14.7761 8 14.5V14H9.5C9.77614 14 10 13.7761 10 13.5C10 13.2239 9.77614 13 9.5 13H8V12H9.5C9.77614 12 10 11.7761 10 11.5C10 11.2239 9.77614 11 9.5 11H8V8.96905ZM10.5 5C10.5 6.65685 9.15685 8 7.5 8C5.84315 8 4.5 6.65685 4.5 5C4.5 3.34315 5.84315 2 7.5 2C9.15685 2 10.5 3.34315 10.5 5Z" fill="#548AF7"/>
</svg>
