<!-- Copyright 2000-2024 JetBrains s.r.o. and contributors. Use of this source code is governed by the Apache 2.0 license. -->
<svg width="16" height="16" viewBox="0 0 16 16" fill="none" xmlns="http://www.w3.org/2000/svg">
<path fill-rule="evenodd" clip-rule="evenodd" d="M16 9.5C16 10.3284 15.3284 11 14.5 11C14.1369 11 13.804 10.871 13.5445 10.6564L10.9702 12.201C10.9897 12.2976 11 12.3976 11 12.5C11 12.5204 10.9996 12.5408 10.9988 12.561L13.3726 13.5105C13.6475 13.1975 14.0507 13 14.5 13C15.3284 13 16 13.6716 16 14.5C16 15.3284 15.3284 16 14.5 16C13.6716 16 13 15.3284 13 14.5C13 14.4796 13.0004 14.4592 13.0012 14.439L10.6274 13.4895C10.3525 13.8025 9.94931 14 9.5 14C8.67157 14 8 13.3284 8 12.5C8 11.6716 8.67157 11 9.5 11C9.86306 11 10.196 11.129 10.4555 11.3436L13.0298 9.79902C13.0103 9.70239 13 9.60239 13 9.5C13 8.67157 13.6716 8 14.5 8C15.3284 8 16 8.67157 16 9.5ZM15 9.5C15 9.77614 14.7761 10 14.5 10C14.2239 10 14 9.77614 14 9.5C14 9.22386 14.2239 9 14.5 9C14.7761 9 15 9.22386 15 9.5ZM10 12.5C10 12.7761 9.77614 13 9.5 13C9.22386 13 9 12.7761 9 12.5C9 12.2239 9.22386 12 9.5 12C9.77614 12 10 12.2239 10 12.5ZM14.5 15C14.7761 15 15 14.7761 15 14.5C15 14.2239 14.7761 14 14.5 14C14.2239 14 14 14.2239 14 14.5C14 14.7761 14.2239 15 14.5 15Z" fill="#6C707E"/>
</svg>
