<!-- Copyright 2000-2023 JetBrains s.r.o. and contributors. Use of this source code is governed by the Apache 2.0 license. -->
<svg width="16" height="16" viewBox="0 0 16 16" fill="none" xmlns="http://www.w3.org/2000/svg">
<path fill-rule="evenodd" clip-rule="evenodd" d="M7.99982 2.073C8.20178 2.073 8.38392 2.1945 8.46148 2.38098L9.93122 5.91466L13.7461 6.2205C13.9474 6.23664 14.1193 6.37231 14.1817 6.56439C14.2441 6.75647 14.1848 6.96723 14.0314 7.09862L11.1249 9.58839L12.0129 13.3111C12.0597 13.5075 11.9838 13.7129 11.8204 13.8316C11.657 13.9503 11.4383 13.9591 11.2659 13.8538L7.99982 11.8589L4.73373 13.8538C4.56138 13.9591 4.34261 13.9503 4.17921 13.8316C4.01582 13.7129 3.93989 13.5075 3.98675 13.3111L4.87475 9.58839L1.9682 7.09862C1.81482 6.96723 1.75554 6.75647 1.81795 6.56439C1.88036 6.37231 2.0522 6.23664 2.25352 6.2205L6.06842 5.91466L7.53816 2.38098C7.61572 2.1945 7.79785 2.073 7.99982 2.073ZM7.99982 3.87498L6.87446 6.58067C6.80245 6.75379 6.63965 6.87207 6.45275 6.88705L3.53173 7.12123L5.75724 9.02762C5.89964 9.14959 5.96182 9.34098 5.91832 9.52336L5.23839 12.3738L7.73919 10.8463C7.8992 10.7486 8.10044 10.7486 8.26045 10.8463L10.7612 12.3738L10.0813 9.52336C10.0378 9.34098 10.1 9.14959 10.2424 9.02762L12.4679 7.12123L9.54688 6.88705C9.35999 6.87207 9.19718 6.75379 9.12518 6.58067L7.99982 3.87498Z" fill="#FFAF0F"/>
</svg>
