<!-- Copyright 2000-2023 JetBrains s.r.o. and contributors. Use of this source code is governed by the Apache 2.0 license. -->
<svg width="16" height="16" viewBox="0 0 16 16" fill="none" xmlns="http://www.w3.org/2000/svg">
<path fill-rule="evenodd" clip-rule="evenodd" d="M8.46197 2.38123C8.38441 2.19475 8.20227 2.07324 8.00031 2.07324C7.79834 2.07324 7.61621 2.19475 7.53865 2.38123L6.06891 5.9149L2.25401 6.22074C2.05269 6.23688 1.88085 6.37255 1.81844 6.56463C1.75603 6.75671 1.8153 6.96748 1.96869 7.09887L4.87524 9.58864L3.98724 13.3113C3.94038 13.5078 4.01631 13.7131 4.1797 13.8319C4.3431 13.9506 4.56186 13.9593 4.73422 13.854L8.00031 11.8591L11.2664 13.854C11.4387 13.9593 11.6575 13.9506 11.8209 13.8319C11.9843 13.7131 12.0602 13.5078 12.0134 13.3113L11.1254 9.58864L14.0319 7.09887C14.1853 6.96748 14.2446 6.75671 14.1822 6.56463C14.1198 6.37255 13.9479 6.23688 13.7466 6.22074L9.9317 5.9149L8.46197 2.38123Z" fill="#FFAF0F"/>
</svg>
