<!-- Copyright 2000-2022 JetBrains s.r.o. and contributors. Use of this source code is governed by the Apache 2.0 license. -->
<svg width="16" height="16" viewBox="0 0 16 16" fill="none" xmlns="http://www.w3.org/2000/svg">
<path fill-rule="evenodd" clip-rule="evenodd" d="M8.46172 2.38098C8.38416 2.1945 8.20203 2.073 8.00006 2.073C7.7981 2.073 7.61596 2.1945 7.5384 2.38098L6.06866 5.91466L2.25377 6.2205C2.05245 6.23664 1.88061 6.37231 1.81819 6.56439C1.75578 6.75647 1.81506 6.96723 1.96844 7.09862L4.87499 9.58839L3.987 13.3111C3.94013 13.5075 4.01606 13.7129 4.17946 13.8316C4.34285 13.9503 4.56162 13.9591 4.73398 13.8538L8.00006 11.8589L11.2661 13.8538C11.4385 13.9591 11.6573 13.9503 11.8207 13.8316C11.9841 13.7129 12.06 13.5075 12.0131 13.3111L11.1251 9.58839L14.0317 7.09862C14.1851 6.96723 14.2443 6.75647 14.1819 6.56439C14.1195 6.37231 13.9477 6.23664 13.7464 6.2205L9.93146 5.91466L8.46172 2.38098Z" fill="#F2C55C"/>
</svg>
