<!-- Copyright 2000-2023 JetBrains s.r.o. and contributors. Use of this source code is governed by the Apache 2.0 license. -->
<svg width="16" height="16" viewBox="0 0 16 16" fill="none" xmlns="http://www.w3.org/2000/svg">
<circle cx="8" cy="8" r="6.5" fill="#FFF4EB" stroke="#E66D17"/>
<path d="M7.97508 11.5C7.47011 11.5 7.01302 11.4195 6.60381 11.2584C6.19896 11.0973 5.87465 10.8731 5.63087 10.5858C5.39144 10.2942 5.26302 9.96548 5.24561 9.59981H6.30997C6.32738 9.80006 6.4101 9.98072 6.55811 10.1418C6.70612 10.2985 6.90201 10.4226 7.14579 10.514C7.38957 10.6054 7.66165 10.6511 7.96202 10.6511C8.26675 10.6511 8.53447 10.6011 8.76519 10.5009C9.00027 10.4008 9.18093 10.2615 9.30717 10.083C9.43777 9.90454 9.50307 9.70211 9.50307 9.47575C9.50307 9.23197 9.43342 9.02736 9.29411 8.86194C9.15916 8.69216 8.9698 8.58551 8.72602 8.54198L7.11314 8.24813C6.59946 8.15236 6.19896 7.94559 5.91165 7.6278C5.62434 7.30566 5.48068 6.89863 5.48068 6.40672C5.48068 6.0541 5.5808 5.73414 5.78105 5.44683C5.98566 5.15516 6.27079 4.92444 6.63646 4.75466C7.00214 4.58489 7.42005 4.5 7.89019 4.5C8.35599 4.5 8.77608 4.57618 9.15046 4.72855C9.52483 4.88091 9.82303 5.09204 10.045 5.36194C10.2671 5.63184 10.3868 5.93221 10.4042 6.26306H9.33982C9.32676 6.08893 9.25493 5.93221 9.12434 5.79291C8.99809 5.65361 8.82832 5.54478 8.61501 5.46642C8.4017 5.38806 8.16227 5.34888 7.89672 5.34888C7.62682 5.34888 7.3874 5.39459 7.17844 5.48601C6.96949 5.57743 6.80624 5.70367 6.6887 5.86474C6.57552 6.02146 6.51893 6.19994 6.51893 6.40019C6.51893 6.62655 6.58205 6.81374 6.70829 6.96175C6.83454 7.10976 7.01955 7.20554 7.26333 7.24907L8.91538 7.54291C9.25493 7.60386 9.5466 7.72357 9.79038 7.90205C10.0385 8.08054 10.2257 8.30255 10.3519 8.5681C10.4825 8.83364 10.5478 9.12313 10.5478 9.43657C10.5478 9.82836 10.4347 10.181 10.2083 10.4944C9.98628 10.8078 9.67937 11.0538 9.28758 11.2323C8.89579 11.4108 8.45829 11.5 7.97508 11.5Z" fill="#E66D17"/>
</svg>
