<!-- Copyright 2000-2022 JetBrains s.r.o. and contributors. Use of this source code is governed by the Apache 2.0 license. -->
<svg width="16" height="16" viewBox="0 0 16 16" fill="none" xmlns="http://www.w3.org/2000/svg">
<circle cx="8" cy="8" r="6.5" fill="#FFF4EB" stroke="#F28C35"/>
<path d="M8.07835 11.5C7.57338 11.5 7.11629 11.4195 6.70709 11.2584C6.30224 11.0973 5.97792 10.8731 5.73414 10.5858C5.49471 10.2942 5.36629 9.96548 5.34888 9.59981H6.41324C6.43066 9.80006 6.51337 9.98072 6.66138 10.1418C6.80939 10.2985 7.00528 10.4226 7.24906 10.514C7.49284 10.6054 7.76492 10.6511 8.06529 10.6511C8.37002 10.6511 8.63774 10.6011 8.86847 10.5009C9.10354 10.4008 9.2842 10.2615 9.41044 10.083C9.54104 9.90454 9.60634 9.70211 9.60634 9.47575C9.60634 9.23197 9.53669 9.02736 9.39738 8.86194C9.26243 8.69216 9.07307 8.58551 8.82929 8.54198L7.21641 8.24813C6.70273 8.15236 6.30224 7.94559 6.01492 7.6278C5.72761 7.30566 5.58395 6.89863 5.58395 6.40672C5.58395 6.0541 5.68408 5.73414 5.88432 5.44683C6.08893 5.15516 6.37406 4.92444 6.73974 4.75466C7.10541 4.58489 7.52332 4.5 7.99347 4.5C8.45926 4.5 8.87935 4.57618 9.25373 4.72855C9.62811 4.88091 9.9263 5.09204 10.1483 5.36194C10.3703 5.63184 10.49 5.93221 10.5075 6.26306H9.44309C9.43003 6.08893 9.3582 5.93221 9.22761 5.79291C9.10136 5.65361 8.93159 5.54478 8.71828 5.46642C8.50497 5.38806 8.26554 5.34888 8 5.34888C7.7301 5.34888 7.49067 5.39459 7.28171 5.48601C7.07276 5.57743 6.90951 5.70367 6.79197 5.86474C6.67879 6.02146 6.6222 6.19994 6.6222 6.40019C6.6222 6.62655 6.68532 6.81374 6.81156 6.96175C6.93781 7.10976 7.12282 7.20554 7.3666 7.24907L9.01865 7.54291C9.3582 7.60386 9.64987 7.72357 9.89365 7.90205C10.1418 8.08054 10.329 8.30255 10.4552 8.5681C10.5858 8.83364 10.6511 9.12313 10.6511 9.43657C10.6511 9.82836 10.5379 10.181 10.3116 10.4944C10.0895 10.8078 9.78265 11.0538 9.39085 11.2323C8.99906 11.4108 8.56156 11.5 8.07835 11.5Z" fill="#F28C35"/>
</svg>
