<!-- Copyright 2000-2024 JetBrains s.r.o. and contributors. Use of this source code is governed by the Apache 2.0 license. -->
<svg width="16" height="16" viewBox="0 0 16 16" fill="none" xmlns="http://www.w3.org/2000/svg">
<path d="M0.293693 12.709L3.29096 15.7063C3.68255 16.0979 4.31745 16.0979 4.70904 15.7063L7.70631 12.709C8.0979 12.3174 8.0979 11.6826 7.70631 11.291L4.70904 8.29369C4.31745 7.9021 3.68255 7.9021 3.29096 8.29369L0.293693 11.291C-0.0978977 11.6826 -0.0978976 12.3174 0.293693 12.709Z" fill="#EBECF0"/>
<path fill-rule="evenodd" clip-rule="evenodd" d="M1.00273 12L4 14.9973L6.99727 12L4 9.00273L1.00273 12ZM3.29096 15.7063L0.293693 12.709C-0.0978976 12.3174 -0.0978977 11.6826 0.293693 11.291L3.29096 8.29369C3.68255 7.9021 4.31745 7.9021 4.70904 8.29369L7.70631 11.291C8.0979 11.6826 8.0979 12.3174 7.70631 12.709L4.70904 15.7063C4.31745 16.0979 3.68255 16.0979 3.29096 15.7063Z" fill="#6C707E"/>
</svg>
