<!-- Copyright 2000-2024 JetBrains s.r.o. and contributors. Use of this source code is governed by the Apache 2.0 license. -->
<svg width="16" height="16" viewBox="0 0 16 16" fill="none" xmlns="http://www.w3.org/2000/svg">
<path d="M9 12.5C9 14.433 10.567 16 12.5 16C14.433 16 16 14.433 16 12.5C16 10.567 14.433 9 12.5 9C10.567 9 9 10.567 9 12.5Z" fill="#E66D17"/>
<path fill-rule="evenodd" clip-rule="evenodd" d="M14.8536 12.1464C15.0488 12.3417 15.0488 12.6583 14.8536 12.8536L12.8536 14.8536C12.6583 15.0488 12.3417 15.0488 12.1464 14.8536L10.1464 12.8536C9.95118 12.6583 9.95118 12.3417 10.1464 12.1464C10.3417 11.9512 10.6583 11.9512 10.8536 12.1464L12 13.2929L12 10.5C12 10.2239 12.2239 10 12.5 10C12.7761 10 13 10.2239 13 10.5L13 13.2929L14.1464 12.1464C14.3417 11.9512 14.6583 11.9512 14.8536 12.1464Z" fill="white"/>
</svg>
