<!-- Copyright 2000-2023 JetBrains s.r.o. and contributors. Use of this source code is governed by the Apache 2.0 license. -->
<svg width="16" height="16" viewBox="0 0 16 16" fill="none" xmlns="http://www.w3.org/2000/svg">
<path d="M2.75 2C1.7835 2 1 2.83574 1 3.86667V10.9616L2.6284 9.39554C3.1899 8.85552 3.98741 8.90755 4.49904 9.33004C5.01043 8.90704 5.80814 8.85449 6.37001 9.39427L8.07452 11.0318C8.2712 10.4326 8.83507 10 9.5 10H15V6C15 4.89543 14.1046 4 13 4L8.5 4L6.73559 2.28327C6.5489 2.10163 6.29871 2 6.03823 2H2.75Z" fill="#F2FCF3"/>
<path fill-rule="evenodd" clip-rule="evenodd" d="M8.37978 12.7117C8.54354 12.8691 8.54362 13.131 8.37994 13.2884L5.67736 15.8876C5.4232 16.132 5 15.9519 5 15.5993L5.00002 10.4038C5.00002 10.0513 5.423 9.87118 5.67722 10.1154L8.37978 12.7117Z" fill="#55A76A"/>
<path fill-rule="evenodd" clip-rule="evenodd" d="M0.622553 13.2883C0.459087 13.1309 0.459159 12.8692 0.622712 12.7119L3.32158 10.1163C3.57574 9.87185 3.99894 10.0519 3.99894 10.4045V15.5986C3.99894 15.9514 3.57553 16.1314 3.32142 15.8868L0.622553 13.2883Z" fill="#E55765"/>
<path fill-rule="evenodd" clip-rule="evenodd" d="M9 11.5C9 11.2239 9.22386 11 9.5 11H15.5C15.7761 11 16 11.2239 16 11.5C16 11.7761 15.7761 12 15.5 12H9.5C9.22386 12 9 11.7761 9 11.5ZM9 13.5C9 13.2239 9.22386 13 9.5 13H15.5C15.7761 13 16 13.2239 16 13.5C16 13.7761 15.7761 14 15.5 14H9.5C9.22386 14 9 13.7761 9 13.5ZM9 15.5C9 15.2239 9.22386 15 9.5 15H15.5C15.7761 15 16 15.2239 16 15.5C16 15.7761 15.7761 16 15.5 16H9.5C9.22386 16 9 15.7761 9 15.5Z" fill="#E66D17"/>
<path d="M8.09379 5H13C13.5523 5 14 5.44772 14 6V10H15V6C15 4.89543 14.1046 4 13 4L8.5 4L6.73559 2.28327C6.5489 2.10163 6.29871 2 6.03823 2H2.75C1.7835 2 1 2.83574 1 3.86667V10.9616L2 9.99989V3.86667C2 3.32624 2.3956 3 2.75 3H6.03823L8.09379 5Z" fill="#208A3C"/>
</svg>
