<!-- Copyright 2000-2022 JetBrains s.r.o. and contributors. Use of this source code is governed by the Apache 2.0 license. -->
<svg width="16" height="16" viewBox="0 0 16 16" fill="none" xmlns="http://www.w3.org/2000/svg">
<path fill-rule="evenodd" clip-rule="evenodd" d="M14.9621 8.73269C14.9872 8.49188 15 8.24744 15 8C15 4.13401 11.866 1 8 1C4.13401 1 1 4.13401 1 8C1 11.866 4.13401 15 8 15C8.24744 15 8.49188 14.9872 8.73269 14.9621C8.2694 14.2547 8 13.4088 8 12.5C8 10.0147 10.0147 8 12.5 8C13.4088 8 14.2547 8.2694 14.9621 8.73269Z" fill="#FFF5F5"/>
<path fill-rule="evenodd" clip-rule="evenodd" d="M8.25419 13.9947C8.1699 13.9982 8.08516 14 8 14C4.68629 14 2 11.3137 2 8C2 4.68629 4.68629 2 8 2C11.3137 2 14 4.68629 14 8C14 8.08516 13.9982 8.1699 13.9947 8.25419C14.3382 8.37511 14.6626 8.53652 14.9621 8.73269C14.9872 8.49188 15 8.24744 15 8C15 4.13401 11.866 1 8 1C4.13401 1 1 4.13401 1 8C1 11.866 4.13401 15 8 15C8.24744 15 8.49188 14.9872 8.73269 14.9621C8.53652 14.6626 8.37511 14.3382 8.25419 13.9947Z" fill="#E35252"/>
<path fill-rule="evenodd" clip-rule="evenodd" d="M8.44627 10.5441C8.24798 10.4561 8.11691 10.2606 8.11691 10.0214V6.81878H9.55729L9.56274 5.91309H8.11691V4.5H7.17303V5.44934C7.17303 5.72214 6.98207 5.91309 6.70928 5.91309H6.00546L6 6.81878H7.08028L7.08574 10.1142C7.08574 10.7676 7.50424 11.2815 8.12444 11.4451C8.19998 11.1306 8.30855 10.829 8.44627 10.5441Z" fill="#E35252"/>
<path fill-rule="evenodd" clip-rule="evenodd" d="M11.1542 14.6073C11.5427 14.8559 12.0045 15 12.5 15C13.8807 15 15 13.8807 15 12.5C15 12.0045 14.8559 11.5427 14.6073 11.1542L11.1542 14.6073ZM10.3927 13.8458L13.8458 10.3927C13.4573 10.1441 12.9955 10 12.5 10C11.1193 10 10 11.1193 10 12.5C10 12.9955 10.1441 13.4573 10.3927 13.8458ZM12.5 16C10.567 16 9 14.433 9 12.5C9 10.567 10.567 9 12.5 9C14.433 9 16 10.567 16 12.5C16 14.433 14.433 16 12.5 16Z" fill="#E35252"/>
</svg>
