<!-- Copyright 2000-2022 JetBrains s.r.o. and contributors. Use of this source code is governed by the Apache 2.0 license. -->
<svg width="16" height="16" viewBox="0 0 16 16" fill="none" xmlns="http://www.w3.org/2000/svg">
<path fill-rule="evenodd" clip-rule="evenodd" d="M1 3.86667C1 2.83574 1.7835 2 2.75 2H6.03823C6.29871 2 6.5489 2.10163 6.73559 2.28327L8.5 4L13 4C14.1046 4 15 4.89543 15 6V10.5001L13.5001 9.00017H10.5001L7.00009 12.5002V14H2.75C1.7835 14 1 13.1643 1 12.1333V3.86667Z" fill="#F2FCF3"/>
<path fill-rule="evenodd" clip-rule="evenodd" d="M7.80265 4.71673L8.09379 5H8.5H13C13.5523 5 14 5.44772 14 6V9.5L15 10.5V6C15 4.89543 14.1046 4 13 4L8.5 4L6.73559 2.28327C6.5489 2.10163 6.29871 2 6.03823 2H2.75C1.7835 2 1 2.83574 1 3.86667V12.1333C1 13.1643 1.7835 14 2.75 14H7V13H2.75C2.3956 13 2 12.6738 2 12.1333V3.86667C2 3.32624 2.3956 3 2.75 3H6.03823L7.80265 4.71673Z" fill="#5FB865"/>
<path fill-rule="evenodd" clip-rule="evenodd" d="M8.0922 13.2943C7.93559 13.1385 7.93498 12.8852 8.09082 12.7287L10.6534 10.1539C10.905 9.9012 11.3366 10.079 11.337 10.4356L11.3433 15.5662C11.3437 15.9223 10.9135 16.1014 10.6611 15.8502L8.0922 13.2943Z" fill="#E35252"/>
<path fill-rule="evenodd" clip-rule="evenodd" d="M15.7171 12.7135C15.8734 12.8697 15.8734 13.123 15.7171 13.2792L13.1471 15.8488C12.8951 16.1007 12.4642 15.9223 12.4642 15.566L12.4642 10.4267C12.4642 10.0704 12.8951 9.89193 13.1471 10.1439L15.7171 12.7135Z" fill="#5FB865"/>
</svg>
