<!-- Copyright 2000-2022 JetBrains s.r.o. and contributors. Use of this source code is governed by the Apache 2.0 license. -->
<svg width="16" height="16" viewBox="0 0 16 16" fill="none" xmlns="http://www.w3.org/2000/svg">
<path d="M1 3.86667C1 2.83574 1.7835 2 2.75 2H6.03823C6.29871 2 6.5489 2.10163 6.73559 2.28327L8.5 4L13 4C14.1046 4 15 4.89543 15 6V9H9C8.44772 9 8 9.44772 8 10V11.5L5.5 9C4.36491 9 2.5 9 2.5 9L1 10.565V3.86667Z" fill="#F2FCF3"/>
<path d="M8.09379 5H13C13.5523 5 14 5.44772 14 6V9H15V6C15 4.89543 14.1046 4 13 4L8.5 4L6.73559 2.28327C6.5489 2.10163 6.29871 2 6.03823 2H2.75C1.7835 2 1 2.83574 1 3.86667V10.565L2 9.5V3.86667C2 3.32624 2.3956 3 2.75 3H6.03823L8.09379 5Z" fill="#5FB865"/>
<rect x="9" y="10" width="7" height="1" rx="0.5" fill="#E3AE4D"/>
<rect x="9" y="12" width="7" height="1" rx="0.5" fill="#E3AE4D"/>
<rect x="9" y="14" width="7" height="1" rx="0.5" fill="#E3AE4D"/>
<path fill-rule="evenodd" clip-rule="evenodd" d="M0.192051 13.2942C0.0354471 13.1384 0.0348289 12.8851 0.19067 12.7285L2.75329 10.1538C3.00485 9.90108 3.43645 10.0789 3.43688 10.4355L3.44314 15.5661C3.44357 15.9222 3.01338 16.1013 2.76093 15.8501L0.192051 13.2942Z" fill="#E35252"/>
<path fill-rule="evenodd" clip-rule="evenodd" d="M7.81699 12.7134C7.97321 12.8696 7.97321 13.1228 7.81699 13.279L5.24691 15.8487C4.99491 16.1006 4.56401 15.9222 4.56401 15.5658L4.56401 10.4266C4.56401 10.0703 4.99491 9.89181 5.24691 10.1438L7.81699 12.7134Z" fill="#5FB865"/>
</svg>
