<!-- Copyright 2000-2022 JetBrains s.r.o. and contributors. Use of this source code is governed by the Apache 2.0 license. -->
<svg width="16" height="16" viewBox="0 0 16 16" fill="none" xmlns="http://www.w3.org/2000/svg">
<path fill-rule="evenodd" clip-rule="evenodd" d="M1 3.86667C1 2.83574 1.7835 2 2.75 2H6.03823C6.29871 2 6.5489 2.10163 6.73559 2.28327L8.5 4L13 4C14.1046 4 15 4.89543 15 6V10.5L13.5 9H10.5L7 12.5V14H2.75C1.7835 14 1 13.1643 1 12.1333V3.86667Z" fill="#253627"/>
<path fill-rule="evenodd" clip-rule="evenodd" d="M7.80265 4.71673L8.09379 5H8.5H13C13.5523 5 14 5.44772 14 6V9.5L15 10.5V6C15 4.89543 14.1046 4 13 4L8.5 4L6.73559 2.28327C6.5489 2.10163 6.29871 2 6.03823 2H2.75C1.7835 2 1 2.83574 1 3.86667V12.1333C1 13.1643 1.7835 14 2.75 14H7V13H2.75C2.3956 13 2 12.6738 2 12.1333V3.86667C2 3.32624 2.3956 3 2.75 3H6.03823L7.80265 4.71673Z" fill="#57965C"/>
<path fill-rule="evenodd" clip-rule="evenodd" d="M8.09208 13.2943C7.93547 13.1385 7.93485 12.8852 8.09069 12.7287L10.6533 10.1539C10.9049 9.9012 11.3365 10.079 11.3369 10.4356L11.3432 15.5662C11.3436 15.9223 10.9134 16.1014 10.661 15.8502L8.09208 13.2943Z" fill="#DB5C5C"/>
<path fill-rule="evenodd" clip-rule="evenodd" d="M15.717 12.7135C15.8732 12.8697 15.8732 13.123 15.717 13.2792L13.1469 15.8488C12.8949 16.1007 12.464 15.9223 12.464 15.566L12.464 10.4267C12.464 10.0704 12.8949 9.89193 13.1469 10.1439L15.717 12.7135Z" fill="#57965C"/>
</svg>
