<!-- Copyright 2000-2022 JetBrains s.r.o. and contributors. Use of this source code is governed by the Apache 2.0 license. -->
<svg width="16" height="16" viewBox="0 0 16 16" fill="none" xmlns="http://www.w3.org/2000/svg">
<path d="M1 8C1 4.13401 4.13401 1 8 1V1C11.866 1 15 4.13401 15 8V8C15 11.866 11.866 15 8 15V15C4.13401 15 1 11.866 1 8V8Z" fill="#25324D"/>
<path fill-rule="evenodd" clip-rule="evenodd" d="M2 8C2 11.3137 4.68629 14 8 14C11.3137 14 14 11.3137 14 8C14 4.68629 11.3137 2 8 2C4.68629 2 2 4.68629 2 8ZM8 1C4.13401 1 1 4.13401 1 8C1 11.866 4.13401 15 8 15C11.866 15 15 11.866 15 8C15 4.13401 11.866 1 8 1Z" fill="#548AF7"/>
<path fill-rule="evenodd" clip-rule="evenodd" d="M7.5 6H5V5H11V6H8.5V12H7.5V6Z" fill="#548AF7"/>
</svg>
