<svg width="16" height="16" viewBox="0 0 16 16" xmlns="http://www.w3.org/2000/svg">
  <path fill="#43454A" stroke="#CED0D6" d="M12 2.5H4A1.5 1.5 0 0 0 2.5 4v8A1.5 1.5 0 0 0 4 13.5h8a1.5 1.5 0 0 0 1.5-1.5V4A1.5 1.5 0 0 0 12 2.5Z"/>
  <path fill="#CED0D6" d="M7.326 9.03c0-.671.341-1.02.84-1.455.373-.326.7-.612.7-1.11 0-.494-.328-.85-.84-.85-.574 0-.927.401-.92.975h-1.38c0-1.394.893-2.21 2.315-2.21 1.3 0 2.235.71 2.23 1.99-.004.89-.406 1.308-1.015 1.8-.324.262-.645.494-.645.91v.175H7.326V9.03Zm1.415 2.47h-1.5V10h1.5v1.5Z"/>
</svg>
