<!-- Copyright 2000-2025 JetBrains s.r.o. and contributors. Use of this source code is governed by the Apache 2.0 license. -->
<svg width="16" height="16" viewBox="0 0 16 16" fill="none" xmlns="http://www.w3.org/2000/svg">
<path d="M1 3.86667C1 2.83574 1.73127 2 2.63333 2H6.1217C6.39413 2 6.65477 2.11115 6.84336 2.30775L8.46667 4L13 4C14.1046 4 15 4.89543 15 6V11.3051C14.4164 9.948 13.0705 9 11.5 9C10.211 9 9.07285 9.64131 8.38421 10.6183C7.00797 10.9967 6 12.2569 6 13.75C6 13.8341 6.0032 13.9175 6.00949 14H2.6C1.71635 14 1 13.2837 1 12.4V3.86667Z" fill="#43454A"/>
<path d="M2.63333 3L6.1217 3L8.04022 5H13C13.5523 5 14 5.44771 14 6V9.93485C14.4282 10.3079 14.7722 10.7753 15 11.3051V6C15 4.89543 14.1046 4 13 4L8.46667 4L6.84336 2.30775C6.65477 2.11115 6.39413 2 6.1217 2H2.63333C1.73127 2 1 2.83574 1 3.86667V12.1333C1 13.1643 1.73127 14 2.63333 14H6.00949C6.0032 13.9175 6 13.8341 6 13.75C6 13.4919 6.03011 13.2408 6.08704 13H2.63333C2.40481 13 2 12.7416 2 12.1333V3.86667C2 3.25841 2.40481 3 2.63333 3Z" fill="#CED0D6"/>
<path d="M13.2751 12.4584L13.4232 13.2097L14.1872 13.2626C14.6481 13.2945 15 13.6706 15 14.125C15 14.6077 14.6077 15 14.125 15H9.25C8.56104 15 8 14.439 8 13.75C8 13.1069 8.48746 12.5758 9.11197 12.5094L9.64538 12.4527L9.89316 11.9769C10.1968 11.394 10.8042 11 11.5 11C12.3778 11 13.1107 11.624 13.2751 12.4584Z" fill="#25324D"/>
<path fill-rule="evenodd" clip-rule="evenodd" d="M13.4232 13.2097L13.2751 12.4584C13.1107 11.624 12.3778 11 11.5 11C10.8042 11 10.1968 11.394 9.89316 11.9769L9.64538 12.4527L9.11197 12.5094C8.48746 12.5758 8 13.1069 8 13.75C8 14.439 8.56103 15 9.25 15H14.125C14.6077 15 15 14.6077 15 14.125C15 13.6706 14.6481 13.2945 14.1872 13.2626L13.4232 13.2097ZM11.5 10C12.865 10 14.0012 10.9713 14.2562 12.265C15.2312 12.3325 16 13.135 16 14.125C16 15.16 15.16 16 14.125 16H9.25C8.00875 16 7 14.9913 7 13.75C7 12.5912 7.8775 11.635 9.00625 11.515C9.475 10.615 10.4162 10 11.5 10Z" fill="#548AF7"/>
</svg>
