<!-- Copyright 2000-2023 JetBrains s.r.o. and contributors. Use of this source code is governed by the Apache 2.0 license. -->
<svg width="16" height="16" viewBox="0 0 16 16" fill="none" xmlns="http://www.w3.org/2000/svg">
<path d="M12.5 9C11.6716 9 11 8.32843 11 7.5V5H8V3.51351L6.73559 2.28327C6.5489 2.10163 6.29871 2 6.03823 2H2.75C1.7835 2 1 2.83574 1 3.86667V12.1333C1 13.1643 1.7835 14 2.75 14H13.25C14.2165 14 15 13.1643 15 12.1333V9H12.5Z" fill="#EBECF0"/>
<path fill-rule="evenodd" clip-rule="evenodd" d="M12.1464 0.146447C12.3417 -0.0488155 12.6583 -0.0488155 12.8536 0.146447L15.8536 3.14645C16.0488 3.34171 16.0488 3.65829 15.8536 3.85355C15.6583 4.04882 15.3417 4.04882 15.1464 3.85355L13 1.70711V7.5C13 7.77614 12.7761 8 12.5 8C12.2239 8 12 7.77614 12 7.5V1.70711L9.85355 3.85355C9.65829 4.04882 9.34171 4.04882 9.14645 3.85355C8.95118 3.65829 8.95118 3.34171 9.14645 3.14645L12.1464 0.146447Z" fill="#3574F0"/>
<path d="M14 9V12.1333C14 12.6738 13.6044 13 13.25 13H2.75C2.3956 13 2 12.6738 2 12.1333V3.86667C2 3.32624 2.3956 3 2.75 3H6.03823L8 4.90875V3.51351L6.73559 2.28327C6.5489 2.10163 6.29871 2 6.03823 2H2.75C1.7835 2 1 2.83574 1 3.86667V12.1333C1 13.1643 1.7835 14 2.75 14H13.25C14.2165 14 15 13.1643 15 12.1333V9H14Z" fill="#6C707E"/>
</svg>
