<svg version="1.1" viewBox="0 0 16 16" xmlns="http://www.w3.org/2000/svg">
  <path d="m4.35 5.4c0.401 0 0.753 0.0711 1.06 0.213 0.307 0.142 0.545 0.349 0.713 0.621 0.171 0.268 0.257 0.585 0.257 0.951v3.3h-1.06l-0.0097-1.86h0.262c0 0.411-0.0744 0.765-0.223 1.06-0.146 0.294-0.356 0.521-0.63 0.679-0.275 0.155-0.6 0.233-0.975 0.233-0.32 0-0.608-0.0614-0.863-0.184-0.252-0.123-0.451-0.293-0.597-0.509-0.142-0.217-0.213-0.462-0.213-0.737 0-0.265 0.0679-0.509 0.204-0.732 0.139-0.223 0.33-0.406 0.572-0.548 0.246-0.142 0.522-0.23 0.829-0.262l1.3-0.141c0.104-0.0097 0.183-0.0469 0.238-0.112 0.0582-0.0679 0.0873-0.167 0.0873-0.296l0.0582 1.08-1.44 0.16c-0.146 0.0162-0.273 0.0566-0.383 0.121-0.11 0.0614-0.196 0.146-0.257 0.252-0.0615 0.103-0.0922 0.221-0.0922 0.354 0 0.142 0.0372 0.268 0.112 0.378 0.0743 0.107 0.179 0.191 0.315 0.252 0.136 0.0614 0.291 0.0922 0.466 0.0922 0.242 0 0.456-0.0469 0.64-0.141 0.184-0.097 0.327-0.231 0.427-0.403 0.1-0.175 0.15-0.375 0.15-0.601v-1.54c0-0.165-0.0404-0.309-0.121-0.432-0.0808-0.126-0.196-0.223-0.344-0.291-0.149-0.0679-0.318-0.102-0.509-0.102-0.191 0-0.362 0.0323-0.514 0.097-0.152 0.0647-0.275 0.152-0.369 0.262-0.0937 0.11-0.15 0.231-0.17 0.364h-1.08c0.0323-0.304 0.146-0.576 0.339-0.815 0.197-0.242 0.453-0.432 0.766-0.567 0.317-0.136 0.668-0.204 1.05-0.204z" fill="#6c707e"/>
  <path d="m12.5 6.44h-2.49v-0.922h3.8v0.902l-2.62 3.14h2.61v0.922h-3.91v-0.902z" fill="#6c707e"/>
  <path d="m6.96 8h2.07" fill="#1a1a1a" stroke="#6c707e" style="paint-order:stroke markers fill"/>
</svg>
