<!-- Copyright 2000-2025 JetBrains s.r.o. and contributors. Use of this source code is governed by the Apache 2.0 license. -->
<svg width="16" height="16" viewBox="0 0 16 16" fill="none" xmlns="http://www.w3.org/2000/svg">
<path fill-rule="evenodd" clip-rule="evenodd" d="M5 2C3.89543 2 3 2.89543 3 4V10C3 11.1046 3.89543 12 5 12H13C14.1046 12 15 11.1046 15 10V6C15 4.89543 14.1046 4 13 4H10.7071L9 2.29289C8.81246 2.10536 8.55811 2 8.29289 2H5ZM4 4C4 3.44772 4.44772 3 5 3H8.29289L10 4.70711C10.1875 4.89464 10.4419 5 10.7071 5H13C13.5523 5 14 5.44772 14 6V10C14 10.5523 13.5523 11 13 11H5C4.44772 11 4 10.5523 4 10V4Z" fill="#CED0D6"/>
<path d="M2 4.5C2 4.22386 1.77614 4 1.5 4C1.22386 4 1 4.22386 1 4.5V11C1 12.6569 2.34315 14 4 14H12.5C12.7761 14 13 13.7761 13 13.5C13 13.2239 12.7761 13 12.5 13H4C2.89543 13 2 12.1046 2 11V4.5Z" fill="#CED0D6"/>
<path d="M5 3C4.44772 3 4 3.44772 4 4V10C4 10.5523 4.44772 11 5 11H13C13.5523 11 14 10.5523 14 10V6C14 5.44772 13.5523 5 13 5H10.7071C10.4419 5 10.1875 4.89464 10 4.70711L8.29289 3H5Z" fill="#43454A"/>
</svg>
