<svg width="16" height="16" viewBox="0 0 16 16" fill="none" xmlns="http://www.w3.org/2000/svg">
<path d="M14.9291 7.00001L13.4999 7.00002C12.6714 7.00002 11.9999 7.67159 11.9999 8.50002C11.9999 8.50694 11.9999 8.51384 12 8.52074V10.9761C11.9999 10.9841 11.9999 10.992 11.9999 11C11.9999 11.7357 11.8013 12.4254 11.4544 13.0181C11.4367 13.0482 11.4187 13.0781 11.4003 13.1077C10.6947 14.2437 9.43566 15 8 15C4.13401 15 1 11.866 1 8C1 4.13401 4.13401 1 8 1C11.5265 1 14.4439 3.60771 14.9291 7.00001Z" fill="#45322B"/>
<path d="M14.9291 7.00001C14.4439 3.60771 11.5265 1 8 1C4.13401 1 1 4.13401 1 8C1 11.866 4.13401 15 8 15V14C4.68629 14 2 11.3137 2 8C2 4.68629 4.68629 2 8 2C10.973 2 13.441 4.16229 13.917 7.00001L14.9291 7.00001Z" fill="#C77D55"/>
<path d="M7.25726 12H8.2744V7.32741H9.82869V6.43027H8.2744V5.48C8.2744 5.12 8.52012 4.87429 8.8744 4.87429H9.88012V4H8.77726C7.8744 4 7.25726 4.57143 7.25726 5.40571V6.43027H6.12012V7.32741H7.25726V12Z" fill="#C77D55"/>
<path d="M14.9997 10C15.5522 10 16 10.4477 16 11C16 13.7614 13.7608 16 10.9987 16C10.7142 16 10.4352 15.9762 10.1636 15.9306C9.95603 15.8957 9.94523 15.6117 10.1355 15.5216C11.8283 14.7203 12.9992 12.9969 12.9992 11C12.9992 10.4477 13.4471 10 13.9995 10H14.9997Z" fill="#DB5C5C"/>
<path fill-rule="evenodd" clip-rule="evenodd" d="M13.498 9C13.7742 9 13.998 9.22386 13.998 9.5V10H14.998V9.5C14.998 8.67157 14.3265 8 13.498 8C13.2219 8 12.998 8.22386 12.998 8.5C12.998 8.77614 13.2219 9 13.498 9Z" fill="#57965C"/>
</svg>
