<svg width="16" height="16" viewBox="0 0 16 16" fill="none" xmlns="http://www.w3.org/2000/svg">
<path d="M14.9291 7.00001L13.4999 7.00002C12.6714 7.00002 11.9999 7.67159 11.9999 8.50002L12 8.52074V10.9761L11.9999 11C11.9999 11.7481 11.7945 12.4487 11.4366 13.0481C11.419 13.0776 11.401 13.1068 11.3827 13.1358C10.6738 14.2561 9.42379 15 8 15C4.13401 15 1 11.866 1 8C1 4.13401 4.13401 1 8 1C11.5265 1 14.4439 3.60771 14.9291 7.00001Z" fill="#FFF7F7"/>
<path d="M14.9291 7.00001C14.4439 3.60771 11.5265 1 8 1C4.13401 1 1 4.13401 1 8C1 11.866 4.13401 15 8 15V14C4.68629 14 2 11.3137 2 8C2 4.68629 4.68629 2 8 2C10.973 2 13.441 4.16229 13.917 7.00001L14.9291 7.00001Z" fill="#DB3B4B"/>
<path d="M12 8.4793V7.35861C12 6.07084 11.2168 5.24561 10.0657 5.24561C9.25361 5.24561 8.636 5.64718 8.29593 6.31525C8.00368 5.64245 7.40552 5.24561 6.6071 5.24561C5.84915 5.24561 5.28147 5.60934 4.96189 6.2485V5.37176H4V10.7541H4.99869V7.58989C4.99869 6.68056 5.5138 6.10763 6.32852 6.10763C7.0749 6.10763 7.50591 6.61748 7.50591 7.43746V10.7541H8.49409V7.58989C8.49409 6.68056 9.01971 6.10763 9.82392 6.10763C10.5756 6.10763 11.0013 6.61748 11.0013 7.43746V10.7541H12V8.52074L11.9999 8.50002L12 8.4793Z" fill="#DB3B4B"/>
<path d="M14.9997 10C15.5522 10 16 10.4477 16 11C16 13.7614 13.7608 16 10.9987 16C10.7142 16 10.4352 15.9762 10.1636 15.9306C9.95603 15.8957 9.94523 15.6117 10.1355 15.5216C11.8283 14.7203 12.9992 12.9969 12.9992 11C12.9992 10.4477 13.4471 10 13.9995 10H14.9997Z" fill="#E55765"/>
<path fill-rule="evenodd" clip-rule="evenodd" d="M13.498 9C13.7742 9 13.998 9.22386 13.998 9.5V10H14.998V9.5C14.998 8.67157 14.3265 8 13.498 8C13.2219 8 12.998 8.22386 12.998 8.5C12.998 8.77614 13.2219 9 13.498 9Z" fill="#55A76A"/>
</svg>
