<!-- Copyright 2000-2024 JetBrains s.r.o. and contributors. Use of this source code is governed by the Apache 2.0 license. -->
<svg width="16" height="16" viewBox="0 0 16 16" fill="none" xmlns="http://www.w3.org/2000/svg">
<path fill-rule="evenodd" clip-rule="evenodd" d="M9 9.5024C9 8.32466 10.2951 7.60632 11.2942 8.22991L15.2962 10.7277C16.2372 11.3151 16.2372 12.6854 15.2962 13.2727L11.2942 15.7705C10.2951 16.3941 9 15.6758 9 14.4981V9.5024ZM10.7647 9.07823C10.4317 8.87037 10 9.10982 10 9.5024V14.4981C10 14.8906 10.4317 15.1301 10.7647 14.9222L14.7667 12.4244C15.0804 12.2286 15.0804 11.7719 14.7667 11.5761L10.7647 9.07823Z" fill="#57965C"/>
<path d="M10 9.50178C10 9.10919 10.4317 8.86975 10.7647 9.07761L14.7667 11.5754C15.0804 11.7712 15.0804 12.228 14.7667 12.4238L10.7647 14.9216C10.4317 15.1295 10 14.89 10 14.4974V9.50178Z" fill="#253627"/>
<path d="M5.5 1C5.22386 1 5 1.22386 5 1.5C5 1.77614 5.22386 2 5.5 2H10.5C10.7761 2 11 1.77614 11 1.5C11 1.22386 10.7761 1 10.5 1H5.5Z" fill="#CED0D6"/>
<path d="M8 5.5C7.72386 5.5 7.5 5.72386 7.5 6V8.7169L5.24275 10.0713C5.00596 10.2133 4.92918 10.5205 5.07125 10.7572C5.21333 10.994 5.52046 11.0708 5.75725 10.9287L8.25725 9.42875C8.40785 9.33838 8.5 9.17563 8.5 9V6C8.5 5.72386 8.27614 5.5 8 5.5Z" fill="#CED0D6"/>
<path d="M8 14C5.23858 14 3 11.7614 3 9C3 6.23858 5.23858 4 8 4C10.4405 4 12.4726 5.74848 12.912 8.06109L13.9943 8.73663C13.8565 5.54512 11.2255 3 8 3C4.68629 3 2 5.68629 2 9C2 12.3137 4.68629 15 8 15V14Z" fill="#CED0D6"/>
</svg>
