<!-- Copyright 2000-2024 JetBrains s.r.o. and contributors. Use of this source code is governed by the Apache 2.0 license. -->
<svg width="16" height="16" viewBox="0 0 16 16" fill="none" xmlns="http://www.w3.org/2000/svg">
<rect x="9.5" y="9.5" width="6" height="6" rx="1.5" fill="#FFF7F7" stroke="#DB3B4B"/>
<path d="M5 1.5C5 1.22386 5.22386 1 5.5 1H10.5C10.7761 1 11 1.22386 11 1.5C11 1.77614 10.7761 2 10.5 2H5.5C5.22386 2 5 1.77614 5 1.5Z" fill="#6C707E"/>
<path d="M7.5 6C7.5 5.72386 7.72386 5.5 8 5.5C8.27614 5.5 8.5 5.72386 8.5 6V9C8.5 9.17563 8.40785 9.33838 8.25725 9.42875L5.75725 10.9287C5.52046 11.0708 5.21333 10.994 5.07125 10.7572C4.92918 10.5205 5.00596 10.2133 5.24275 10.0713L7.5 8.7169V6Z" fill="#6C707E"/>
<path d="M8 15V14C5.23858 14 3 11.7614 3 9C3 6.23858 5.23858 4 8 4C10.419 4 12.4367 5.71776 12.9 8H13.917C13.441 5.16229 10.973 3 8 3C4.68629 3 2 5.68629 2 9C2 12.3137 4.68629 15 8 15Z" fill="#6C707E"/>
</svg>
