<!-- Copyright 2000-2023 JetBrains s.r.o. and contributors. Use of this source code is governed by the Apache 2.0 license. -->
<svg width="16" height="16" viewBox="0 0 16 16" fill="none" xmlns="http://www.w3.org/2000/svg">
<path d="M7.9167 1.00011C7.33942 1.00277 6.78812 1.05146 6.30304 1.13636C4.87405 1.38606 4.6146 1.90869 4.6146 2.87252V4.14544H7.99148V4.56975H4.6146H3.34729C2.36587 4.56975 1.50652 5.15319 1.23772 6.26309C0.927672 7.53529 0.91392 8.32916 1.23772 9.65755C1.47776 10.6463 2.05101 11.3509 3.03243 11.3509H4.19348V9.82493C4.19348 8.72252 5.15785 7.75011 6.30304 7.75011H9.67598C10.6149 7.75011 11.3644 6.98549 11.3644 6.05288V2.87252C11.3644 1.96737 10.5924 1.28743 9.67598 1.13636C9.09589 1.04085 8.49398 0.997461 7.9167 1.00011ZM6.09051 2.0239C6.43932 2.0239 6.72417 2.31024 6.72417 2.66231C6.72417 3.01313 6.43932 3.29682 6.09051 3.29682C5.74045 3.29682 5.45685 3.01313 5.45685 2.66231C5.45685 2.31024 5.74045 2.0239 6.09051 2.0239Z" fill="url(#paint0_linear_8700_13141)"/>
<path d="M12.328 16C11.6997 16 11.132 15.8476 10.625 15.5429C10.118 15.2382 9.71933 14.8203 9.429 14.2892C9.143 13.7537 9 13.1573 9 12.5C9 11.8427 9.143 11.2484 9.429 10.7174C9.71933 10.1819 10.118 9.76182 10.625 9.45709C11.132 9.15236 11.6997 9 12.328 9C12.861 9 13.3398 9.09142 13.7645 9.27425C14.1892 9.45274 14.5423 9.72264 14.824 10.084C15.1057 10.4409 15.2985 10.8806 15.4025 11.403H14.3625C14.2672 11.0808 14.1177 10.8109 13.914 10.5933C13.7103 10.3756 13.472 10.2146 13.199 10.1101C12.926 10.0012 12.6357 9.94683 12.328 9.94683C11.899 9.94683 11.5133 10.0557 11.171 10.2733C10.833 10.491 10.5687 10.7935 10.378 11.181C10.1873 11.5684 10.092 12.0081 10.092 12.5C10.092 12.9876 10.1873 13.4251 10.378 13.8125C10.5687 14.1999 10.833 14.5047 11.171 14.7267C11.5133 14.9443 11.899 15.0532 12.328 15.0532C12.6357 15.0532 12.926 15.0009 13.199 14.8965C13.472 14.7876 13.7103 14.6244 13.914 14.4067C14.1177 14.1891 14.2672 13.9192 14.3625 13.597H15.4025C15.3028 14.102 15.1078 14.5351 14.8175 14.8965C14.5272 15.2578 14.1675 15.532 13.7385 15.7192C13.3095 15.9064 12.8393 16 12.328 16Z" fill="#CED0D6"/>
<path d="M11.7852 6.05283V4.5697H13.0525C14.0352 4.5697 14.4984 5.29672 14.741 6.26304C14.9872 7.24226 15.0618 8.04262 14.9472 8.81019C14.7063 8.62714 14.442 8.47474 14.1558 8.35407C13.5896 8.11104 12.9746 8 12.3278 8C11.5297 8 10.7819 8.19589 10.1096 8.59999C9.4448 8.99957 8.9225 9.55308 8.54967 10.2407L8.5483 10.2432C8.35876 10.5952 8.21981 10.9654 8.12918 11.3508H7.99114V11.7751H8.04967C8.01623 12.0119 7.99976 12.2537 7.99976 12.5C7.99976 13.3077 8.17694 14.0681 8.5467 14.7603L8.55131 14.7689C8.58625 14.8328 8.6225 14.8955 8.66004 14.9571C7.82251 15.0613 7.07403 14.9696 6.3027 14.7453C5.41005 14.4856 4.61426 13.9532 4.61426 13.0481V9.86771C4.61426 8.95257 5.37879 8.17048 6.3027 8.17048H9.67564C10.7996 8.17048 11.7852 7.20268 11.7852 6.05283Z" fill="url(#paint1_linear_8700_13141)"/>
<defs>
<linearGradient id="paint0_linear_8700_13141" x1="1" y1="1" x2="8.71457" y2="7.64655" gradientUnits="userSpaceOnUse">
<stop stop-color="#5A9FD4"/>
<stop offset="1" stop-color="#306998"/>
</linearGradient>
<linearGradient id="paint1_linear_8700_13141" x1="9.80702" y1="13.1513" x2="7.05399" y2="9.2508" gradientUnits="userSpaceOnUse">
<stop stop-color="#F4C20E"/>
<stop offset="1" stop-color="#FBDC3E"/>
</linearGradient>
</defs>
</svg>
