<!-- Copyright 2000-2022 JetBrains s.r.o. and contributors. Use of this source code is governed by the Apache 2.0 license. -->
<svg width="20" height="20" viewBox="0 0 20 20" fill="none" xmlns="http://www.w3.org/2000/svg">
<path fill-rule="evenodd" clip-rule="evenodd" d="M8.00814 1.42116C8.66863 1.30602 9.33792 1.24875 10.0084 1.25002L10.0131 1.25004C10.7227 1.2559 11.4306 1.31835 12.1302 1.43681C12.8027 1.51227 13.4286 1.81822 13.9014 2.3031C14.3718 2.78563 14.7269 3.49398 14.7269 4.18002V7.86978C14.7271 8.58729 14.4468 9.27668 13.9459 9.79042C13.445 10.3042 12.7631 10.6018 12.0457 10.6198L12.0269 10.62H8.1433C7.70454 10.6282 7.28541 10.8038 6.9718 11.1109C6.65989 11.4164 6.47593 11.829 6.45695 12.2649V14.14C6.45695 14.5542 6.12116 14.89 5.70695 14.89H4.34695C3.57385 14.89 2.93233 14.5939 2.4525 14.0948C1.99318 13.6169 1.71147 12.986 1.55132 12.3301C1.15117 10.9034 1.14957 9.39448 1.54651 7.96712C1.69223 7.23629 2.09012 6.57942 2.67123 6.1117C3.25835 5.63914 3.99412 5.39055 4.74729 5.41002H5.44695V4.16002C5.44695 3.56692 5.52064 2.90634 5.98282 2.36782C6.43486 1.8411 7.13408 1.57572 8.00635 1.42148L8.00814 1.42116ZM10.0032 2.75001C9.4211 2.74905 8.84007 2.79881 8.26666 2.89872C7.49961 3.03446 7.229 3.21898 7.12108 3.34472C7.02326 3.4587 6.94695 3.65312 6.94695 4.16002C6.94695 4.74335 6.94695 5.32669 6.94695 5.91002C6.94695 6.4623 6.49923 6.91002 5.94695 6.91002H4.73695C4.72956 6.91002 4.72217 6.90991 4.71478 6.90969C4.3147 6.89786 3.92355 7.02926 3.61174 7.28022C3.25901 7.56413 3.1172 7.92427 2.99873 8.34382C2.66709 9.51833 2.66709 10.7617 2.99873 11.9362C3.1121 12.3377 3.2371 12.7465 3.5339 13.0553C3.73657 13.2661 3.99005 13.39 4.34695 13.39H4.95695V12.25C4.95695 12.2409 4.95711 12.2319 4.95744 12.2228C4.98741 11.3982 5.33276 10.6166 5.92223 10.0393C6.51169 9.46196 7.3003 9.13293 8.1253 9.12011L8.13695 9.11993L12.0165 9.12002C12.3395 9.1098 12.6462 8.97483 12.872 8.74327C13.0997 8.50973 13.2271 8.19643 13.2269 7.87025V4.2121C13.1959 3.88794 13.055 3.58379 12.8274 3.35025C12.568 3.08429 12.2558 2.9801 11.9004 2.91927C11.2736 2.81199 10.6391 2.75539 10.0032 2.75001Z" fill="#CED0D6"/>
<path fill-rule="evenodd" clip-rule="evenodd" d="M13.227 5.71973C13.227 5.30551 13.5628 4.96973 13.977 4.96973H15.487C16.2797 4.96973 16.8997 5.29212 17.3451 5.81147C17.7589 6.29403 17.997 6.91527 18.1491 7.51599C18.5984 8.9583 18.5962 10.5037 18.1424 11.945L18.1409 11.9498C17.9448 12.5583 17.7063 13.186 17.3071 13.6578C16.8644 14.1813 16.2644 14.4697 15.487 14.4697H14.287V15.7197C14.287 16.5467 13.9145 17.1748 13.4 17.6156C12.9117 18.0339 12.2998 18.2838 11.7515 18.4385C10.3425 18.8822 8.83103 18.8811 7.42257 18.4354C6.336 18.0974 4.95703 17.3138 4.95703 15.7197V14.0697C4.95703 13.6555 5.29282 13.3197 5.70703 13.3197C6.12124 13.3197 6.45703 13.6555 6.45703 14.0697V15.7197C6.45703 16.2447 6.89641 16.7012 7.86955 17.0035L7.87355 17.0047C8.99181 17.359 10.1922 17.359 11.3105 17.0048C11.7043 16.88 12.1044 16.7502 12.4241 16.4764C12.6596 16.2747 12.787 16.0427 12.787 15.7197C12.787 15.3478 12.787 14.5941 12.787 13.9697C12.787 13.4174 13.2347 12.9697 13.787 12.9697H15.487C15.8396 12.9697 16.0147 12.8632 16.1619 12.6891C16.3525 12.4638 16.5188 12.0922 16.7124 11.4922C17.0754 10.3376 17.0751 9.09941 16.7116 7.94495C16.5845 7.541 16.4901 7.11868 16.2065 6.78798C16.0344 6.58733 15.8244 6.46973 15.487 6.46973H13.977C13.5628 6.46973 13.227 6.13394 13.227 5.71973Z" fill="#CED0D6"/>
<path d="M9.43812 4.50003C9.6265 4.49768 9.81133 4.55138 9.96911 4.65433C10.1269 4.75727 10.2505 4.90481 10.3242 5.07818C10.398 5.25155 10.4185 5.44292 10.3832 5.62798C10.3479 5.81304 10.2583 5.98342 10.126 6.11747C9.99359 6.25152 9.82435 6.34318 9.63975 6.38081C9.45515 6.41844 9.26353 6.40034 9.08925 6.32879C8.91496 6.25725 8.76589 6.13551 8.66097 5.97904C8.55604 5.82256 8.50001 5.63842 8.5 5.45003C8.49843 5.32584 8.52153 5.20257 8.56797 5.08738C8.61441 4.97218 8.68327 4.86736 8.77054 4.77899C8.85781 4.69061 8.96176 4.62045 9.07636 4.57256C9.19096 4.52467 9.31392 4.50002 9.43812 4.50003Z" fill="#CED0D6"/>
<path d="M10.2718 13.8252C10.5237 13.8252 10.7653 13.9252 10.9435 14.1034C11.1217 14.2816 11.2218 14.5232 11.2218 14.7752C11.2218 15.0271 11.1217 15.2688 10.9435 15.4469C10.7653 15.6251 10.5237 15.7252 10.2718 15.7252C10.0198 15.7252 9.77816 15.6251 9.6 15.4469C9.42184 15.2688 9.32175 15.0271 9.32175 14.7752C9.32175 14.5232 9.42184 14.2816 9.6 14.1034C9.77816 13.9252 10.0198 13.8252 10.2718 13.8252Z" fill="#CED0D6"/>
</svg>
