<!-- Copyright 2000-2023 JetBrains s.r.o. and contributors. Use of this source code is governed by the Apache 2.0 license. -->
<svg width="16" height="16" viewBox="0 0 16 16" fill="none" xmlns="http://www.w3.org/2000/svg">
<path d="M7.9167 1.00011C7.33942 1.00277 6.78812 1.05146 6.30304 1.13636C4.87405 1.38606 4.6146 1.90869 4.6146 2.87252V4.14544H7.99148V4.56975H4.6146H3.34729C2.36587 4.56975 1.50652 5.15319 1.23772 6.26309C0.927672 7.53529 0.91392 8.32916 1.23772 9.65755C1.47776 10.6463 2.05101 11.3509 3.03243 11.3509H4.19348V9.82493C4.19348 8.72252 5.15785 7.75011 6.30304 7.75011H9.67598C10.6149 7.75011 11.3644 6.98549 11.3644 6.05288V2.87252C11.3644 1.96737 10.5924 1.28743 9.67598 1.13636C9.09589 1.04085 8.49398 0.997461 7.9167 1.00011ZM6.09051 2.0239C6.43932 2.0239 6.72417 2.31024 6.72417 2.66231C6.72417 3.01313 6.43932 3.29682 6.09051 3.29682C5.74045 3.29682 5.45685 3.01313 5.45685 2.66231C5.45685 2.31024 5.74045 2.0239 6.09051 2.0239Z" fill="url(#paint0_linear_7608_48859)"/>
<path fill-rule="evenodd" clip-rule="evenodd" d="M12.1464 9.14645C12.3417 8.95118 12.6583 8.95118 12.8536 9.14645L15.8536 12.1464C16.0488 12.3417 16.0488 12.6583 15.8536 12.8536L12.8536 15.8536C12.6583 16.0488 12.3417 16.0488 12.1464 15.8536C11.9512 15.6583 11.9512 15.3417 12.1464 15.1464L14.7929 12.5L12.1464 9.85355C11.9512 9.65829 11.9512 9.34171 12.1464 9.14645Z" fill="#6C707E"/>
<path fill-rule="evenodd" clip-rule="evenodd" d="M11.7862 6.05283V4.5697H13.0535C14.0362 4.5697 14.4994 5.29672 14.7419 6.26304C15.0765 7.59333 15.0942 8.59351 14.7512 9.62985L13.5607 8.43934C12.9749 7.85355 12.0251 7.85355 11.4393 8.43934C10.8536 9.02513 10.8536 9.97487 11.4393 10.5607L12.2295 11.3508H7.99211V11.7751H11.3651V13.0481C11.3651 14.0119 10.5268 14.5018 9.67661 14.7453C8.39765 15.1124 7.3726 15.0562 6.30367 14.7453C5.41102 14.4856 4.61523 13.9532 4.61523 13.0481V9.86771C4.61523 8.95257 5.37977 8.17048 6.30367 8.17048H9.67661C10.8006 8.17048 11.7862 7.20268 11.7862 6.05283ZM10.5228 13.2583C10.5228 12.9075 10.2392 12.6238 9.88915 12.6238C9.54034 12.6238 9.25549 12.9075 9.25549 13.2583C9.25549 13.6103 9.54034 13.8967 9.88915 13.8967C10.2392 13.8967 10.5228 13.6103 10.5228 13.2583Z" fill="url(#paint1_linear_7608_48859)"/>
<defs>
<linearGradient id="paint0_linear_7608_48859" x1="1" y1="1" x2="8.71457" y2="7.64655" gradientUnits="userSpaceOnUse">
<stop stop-color="#5A9FD4"/>
<stop offset="1" stop-color="#306998"/>
</linearGradient>
<linearGradient id="paint1_linear_7608_48859" x1="9.80799" y1="13.1513" x2="7.05496" y2="9.2508" gradientUnits="userSpaceOnUse">
<stop stop-color="#F4C20E"/>
<stop offset="1" stop-color="#FBDC3E"/>
</linearGradient>
</defs>
</svg>
