<!-- Copyright 2000-2022 JetBrains s.r.o. and contributors. Use of this source code is governed by the Apache 2.0 license. -->
<svg width="17" height="16" viewBox="0 0 17 16" fill="none" xmlns="http://www.w3.org/2000/svg">
<path fill-rule="evenodd" clip-rule="evenodd" d="M7.2466 1.13693C7.775 1.04481 8.31042 0.999003 8.84678 1.00002L8.8506 1.00004C9.41824 1.00472 9.98459 1.05468 10.5443 1.14945C11.0822 1.20981 11.583 1.45457 11.9612 1.84248C12.3375 2.2285 12.6216 2.79518 12.6216 3.34402V6.29583C12.6218 6.86983 12.3976 7.42135 11.9968 7.83234C11.5961 8.24337 11.0505 8.48148 10.4766 8.49583L10.4616 8.49602H7.35472C7.00372 8.50255 6.66842 8.64301 6.41753 8.88874C6.168 9.13314 6.02084 9.46319 6.00565 9.81189V11.312C6.00565 11.6434 5.73702 11.912 5.40565 11.912H4.31765C3.69917 11.912 3.18595 11.6751 2.80209 11.2758C2.43463 10.8936 2.20926 10.3888 2.08115 9.86411C1.76102 8.72275 1.75974 7.51559 2.0773 6.3737C2.19387 5.78903 2.51218 5.26354 2.97707 4.88936C3.44677 4.51131 4.03539 4.31244 4.63792 4.32802H5.19765V3.32802C5.19765 2.85353 5.2566 2.32507 5.62634 1.89425C5.98798 1.47288 6.54736 1.26058 7.24517 1.13718L7.2466 1.13693ZM8.84261 2.20001C8.37697 2.19924 7.91215 2.23905 7.45342 2.31897C6.83977 2.42757 6.62329 2.57519 6.53696 2.67578C6.4587 2.76696 6.39765 2.9225 6.39765 3.32802C6.39765 3.72802 6.39765 4.12802 6.39765 4.52802C6.39765 5.0803 5.94993 5.52802 5.39765 5.52802H4.62965C4.62373 5.52802 4.61782 5.52793 4.61191 5.52775C4.29185 5.51829 3.97892 5.6234 3.72948 5.82417C3.4473 6.0513 3.33384 6.33942 3.23907 6.67506C2.97376 7.61466 2.97376 8.60937 3.23907 9.54897C3.32977 9.87018 3.42977 10.1972 3.66721 10.4442C3.82935 10.6129 4.03213 10.712 4.31765 10.712H4.80565V9.80002C4.80565 9.79275 4.80578 9.78549 4.80604 9.77823C4.83002 9.11858 5.1063 8.49331 5.57787 8.03143C6.04944 7.56956 6.68033 7.30634 7.34033 7.29609L7.34965 7.29594L10.4533 7.29602C10.7117 7.28784 10.957 7.17987 11.1376 6.99462C11.3198 6.80778 11.4217 6.55714 11.4216 6.2962V3.36968C11.3968 3.11035 11.2841 2.86703 11.102 2.6802C10.8945 2.46743 10.6448 2.38408 10.3604 2.33542C9.85895 2.24959 9.35137 2.20431 8.84261 2.20001Z" fill="white"/>
<path fill-rule="evenodd" clip-rule="evenodd" d="M11.4217 4.57583C11.4217 4.24446 11.6904 3.97583 12.0217 3.97583H13.2297C13.8638 3.97583 14.3598 4.23374 14.7162 4.64923C15.0473 5.03528 15.2377 5.53226 15.3594 6.01284C15.7188 7.16669 15.717 8.40299 15.354 9.55601L15.3528 9.5599C15.1959 10.0467 15.0051 10.5488 14.6858 10.9263C14.3316 11.3451 13.8516 11.5758 13.2297 11.5758H12.2697V12.5758C12.2697 13.2374 11.9717 13.7399 11.5601 14.0925C11.1694 14.4271 10.6799 14.6271 10.2413 14.7509C9.11412 15.1058 7.90492 15.1049 6.77815 14.7483C5.9089 14.4779 4.80573 13.8511 4.80573 12.5758V11.2558C4.80573 10.9245 5.07435 10.6558 5.40573 10.6558C5.7371 10.6558 6.00573 10.9245 6.00573 11.2558V12.5758C6.00573 12.9958 6.35723 13.361 7.13574 13.6028L7.13894 13.6038C8.03355 13.8873 8.9939 13.8873 9.88851 13.6038C10.2036 13.504 10.5237 13.4002 10.7794 13.1812C10.9677 13.0198 11.0697 12.8342 11.0697 12.5758C11.0697 12.3171 11.0697 11.8275 11.0697 11.3758C11.0697 10.8235 11.5174 10.3758 12.0697 10.3758H13.2297C13.5118 10.3758 13.6518 10.2906 13.7696 10.1513C13.9221 9.97108 14.0552 9.67382 14.21 9.19378C14.5004 8.27013 14.5002 7.27957 14.2094 6.35601C14.1077 6.03285 14.0322 5.695 13.8053 5.43043C13.6676 5.26992 13.4996 5.17583 13.2297 5.17583H12.0217C11.6904 5.17583 11.4217 4.9072 11.4217 4.57583Z" fill="white"/>
<path d="M8.39056 3.59995C8.54127 3.59807 8.68913 3.64103 8.81535 3.72339C8.94158 3.80575 9.04047 3.92377 9.09945 4.06247C9.15843 4.20116 9.17484 4.35426 9.1466 4.50231C9.11836 4.65036 9.04673 4.78666 8.94083 4.8939C8.83493 5.00114 8.69954 5.07447 8.55186 5.10458C8.40418 5.13468 8.25089 5.1202 8.11146 5.06296C7.97203 5.00573 7.85277 4.90833 7.76884 4.78315C7.6849 4.65798 7.64008 4.51067 7.64006 4.35995C7.63881 4.2606 7.65729 4.16198 7.69444 4.06983C7.73159 3.97767 7.78668 3.89382 7.85649 3.82312C7.92631 3.75242 8.00947 3.69628 8.10115 3.65797C8.19283 3.61967 8.2912 3.59994 8.39056 3.59995Z" fill="white"/>
<path d="M9.05746 11.06C9.25903 11.06 9.45234 11.1401 9.59487 11.2826C9.73739 11.4252 9.81746 11.6185 9.81746 11.82C9.81746 12.0216 9.73739 12.2149 9.59487 12.3574C9.45234 12.5 9.25903 12.58 9.05746 12.58C8.8559 12.58 8.66259 12.5 8.52006 12.3574C8.37754 12.2149 8.29746 12.0216 8.29746 11.82C8.29746 11.6185 8.37754 11.4252 8.52006 11.2826C8.66259 11.1401 8.8559 11.06 9.05746 11.06Z" fill="white"/>
</svg>
