<!-- Copyright 2000-2023 JetBrains s.r.o. and contributors. Use of this source code is governed by the Apache 2.0 license. -->
<svg width="16" height="16" viewBox="0 0 16 16" fill="none" xmlns="http://www.w3.org/2000/svg">
<path d="M7.9167 1.00011C7.33942 1.00277 6.78812 1.05146 6.30304 1.13636C4.87405 1.38606 4.6146 1.90869 4.6146 2.87252V4.14544H7.99148V4.56975H4.6146H3.34729C2.36587 4.56975 1.50652 5.15319 1.23772 6.26309C0.927672 7.53529 0.91392 8.32916 1.23772 9.65754C1.47776 10.6463 2.05101 11.3509 3.03243 11.3509H4.19348V9.82493C4.19348 8.72252 5.15785 7.75011 6.30304 7.75011H9.67598C10.6149 7.75011 11.3644 6.98549 11.3644 6.05288V2.87252C11.3644 1.96737 10.5924 1.28743 9.67598 1.13636C9.09589 1.04085 8.49398 0.997461 7.9167 1.00011ZM6.09051 2.0239C6.43932 2.0239 6.72417 2.31024 6.72417 2.66231C6.72417 3.01313 6.43932 3.29682 6.09051 3.29682C5.74045 3.29682 5.45685 3.01313 5.45685 2.66231C5.45685 2.31024 5.74045 2.0239 6.09051 2.0239Z" fill="url(#paint0_linear_7608_48863)"/>
<path d="M10 11C10 10.4477 10.4477 10 11 10H14C14.5523 10 15 10.4477 15 11V14C15 14.5523 14.5523 15 14 15H11C10.4477 15 10 14.5523 10 14V11Z" fill="#43454A"/>
<path d="M11.5 13C11.2239 13 11 13.2239 11 13.5C11 13.7761 11.2239 14 11.5 14H12.5C12.7761 14 13 13.7761 13 13.5C13 13.2239 12.7761 13 12.5 13H11.5Z" fill="#CED0D6"/>
<path fill-rule="evenodd" clip-rule="evenodd" d="M14 9H11C9.89543 9 9 9.89543 9 11V14C9 15.1046 9.89543 16 11 16H14C15.1046 16 16 15.1046 16 14V11C16 9.89543 15.1046 9 14 9ZM10 11C10 10.4477 10.4477 10 11 10H14C14.5523 10 15 10.4477 15 11V14C15 14.5523 14.5523 15 14 15H11C10.4477 15 10 14.5523 10 14V11Z" fill="#CED0D6"/>
<path d="M11.7842 6.05271V4.56958H13.0515C14.0342 4.56958 14.4974 5.29659 14.74 6.26292C14.919 6.97452 15.0073 7.59166 14.9982 8.17041C14.6856 8.06005 14.3493 8 13.999 8H10.999C9.34217 8 7.99902 9.34315 7.99902 11V11.3507H7.99016V11.775H7.99902V14C7.99902 14.3493 8.05872 14.6847 8.16847 14.9964C7.52256 15.0194 6.91947 14.9248 6.30172 14.7452C5.40907 14.4855 4.61328 13.9531 4.61328 13.0479V9.86759C4.61328 8.95245 5.37781 8.17035 6.30172 8.17035H9.67466C10.7986 8.17035 11.7842 7.20256 11.7842 6.05271Z" fill="url(#paint1_linear_7608_48863)"/>
<defs>
<linearGradient id="paint0_linear_7608_48863" x1="1" y1="1" x2="8.71457" y2="7.64655" gradientUnits="userSpaceOnUse">
<stop stop-color="#5A9FD4"/>
<stop offset="1" stop-color="#306998"/>
</linearGradient>
<linearGradient id="paint1_linear_7608_48863" x1="9.80604" y1="13.1511" x2="7.05301" y2="9.25068" gradientUnits="userSpaceOnUse">
<stop stop-color="#F4C20E"/>
<stop offset="1" stop-color="#FBDC3E"/>
</linearGradient>
</defs>
</svg>
