<!-- Copyright 2000-2023 JetBrains s.r.o. and contributors. Use of this source code is governed by the Apache 2.0 license. -->
<svg width="16" height="16" viewBox="0 0 16 16" fill="none" xmlns="http://www.w3.org/2000/svg">
<path d="M7.9167 1.00011C7.33942 1.00277 6.78812 1.05146 6.30304 1.13636C4.87405 1.38606 4.6146 1.90869 4.6146 2.87252V4.14544H7.99148V4.56975H4.6146H3.34729C2.36587 4.56975 1.50652 5.15319 1.23772 6.26309C0.927672 7.53529 0.91392 8.32916 1.23772 9.65755C1.47776 10.6463 2.05101 11.3509 3.03243 11.3509H4.19348V9.82493C4.19348 8.72252 5.15785 7.75011 6.30304 7.75011H9.67598C10.6149 7.75011 11.3644 6.98549 11.3644 6.05288V2.87252C11.3644 1.96737 10.5924 1.28743 9.67598 1.13636C9.09589 1.04085 8.49398 0.997461 7.9167 1.00011ZM6.09051 2.0239C6.43932 2.0239 6.72417 2.31024 6.72417 2.66231C6.72417 3.01313 6.43932 3.29682 6.09051 3.29682C5.74045 3.29682 5.45685 3.01313 5.45685 2.66231C5.45685 2.31024 5.74045 2.0239 6.09051 2.0239Z" fill="url(#paint0_linear_8700_12735)"/>
<path d="M11.7852 6.05283V4.5697H13.0525C14.0352 4.5697 14.4984 5.29672 14.741 6.26304C14.9025 6.90522 14.9901 7.47047 14.999 8H14.04L12.7177 11.3508H12.3542L10.9875 8H10.4824C11.2322 7.6732 11.7852 6.91408 11.7852 6.05283Z" fill="url(#paint1_linear_8700_12735)"/>
<path d="M7.56731 8.17048H6.3027C5.37879 8.17048 4.61426 8.95257 4.61426 9.86771V13.0481C4.61426 13.9532 5.41005 14.4856 6.3027 14.7453C7.37163 15.0562 8.39667 15.1124 9.67564 14.7453C9.86739 14.6904 10.0585 14.6229 10.2396 14.5403L9.9675 13.8917C9.94151 13.895 9.91504 13.8967 9.88817 13.8967C9.53936 13.8967 9.25451 13.6103 9.25451 13.2583C9.25451 13.0572 9.34805 12.8782 9.49357 12.762L9.07955 11.7751H7.99114V11.3508H8.90154L7.56731 8.17048Z" fill="url(#paint2_linear_8700_12735)"/>
<path d="M11.9367 16H13.0779L16 9H14.7207L12.5545 14.4893L10.3157 9H9L11.9367 16Z" fill="#6C707E"/>
<defs>
<linearGradient id="paint0_linear_8700_12735" x1="1" y1="1" x2="8.71457" y2="7.64655" gradientUnits="userSpaceOnUse">
<stop stop-color="#5A9FD4"/>
<stop offset="1" stop-color="#306998"/>
</linearGradient>
<linearGradient id="paint1_linear_8700_12735" x1="9.80702" y1="13.1513" x2="7.05399" y2="9.2508" gradientUnits="userSpaceOnUse">
<stop stop-color="#F4C20E"/>
<stop offset="1" stop-color="#FBDC3E"/>
</linearGradient>
<linearGradient id="paint2_linear_8700_12735" x1="9.80702" y1="13.1513" x2="7.05399" y2="9.2508" gradientUnits="userSpaceOnUse">
<stop stop-color="#F4C20E"/>
<stop offset="1" stop-color="#FBDC3E"/>
</linearGradient>
</defs>
</svg>
