<svg id="Layer_1" data-name="Layer 1" xmlns="http://www.w3.org/2000/svg" width="16" height="16" viewBox="0 0 16 16">
  <title>abstractMethod</title>
  <g>
    <g>
      <path d="M3,3.10547a6.98911,6.98911,0,0,0,0,9.78906Z" fill="#9aa7b0" opacity="0.6"/>
      <path d="M13,3.10547v9.78906a6.98911,6.98911,0,0,0,0-9.78906Z" fill="#9aa7b0" opacity="0.7"/>
      <g opacity="0.6">
        <path d="M12,2.25977a6.98025,6.98025,0,0,0-8,0V13.74023a6.98025,6.98025,0,0,0,8,0Z" fill="#f98b9e"/>
      </g>
    </g>
    <path d="M11.99219,8.15381a2.59073,2.59073,0,0,0-.41724-1.6333,1.49748,1.49748,0,0,0-1.23462-.51074c-.02954,0-.05762.00976-.08691.01123-.04541-.00245-.08643-.01123-.13379-.01123a1.812,1.812,0,0,0-.459.05859,1.67346,1.67346,0,0,0-.80224.48144,1.709,1.709,0,0,0-.18872.27979,1.32815,1.32815,0,0,0-.47144-.58447,1.71742,1.71742,0,0,0-.93481-.23535c-.03565,0-.06983.01123-.105.01318-.04053-.00195-.07349-.01318-.11573-.01318a1.69519,1.69519,0,0,0-.42358.05322,1.43377,1.43377,0,0,0-.39331.166,1.5617,1.5617,0,0,0-.33911.28028c-.02735.02978-.04541.07324-.0708.106L5.86108,6H4.76392l.00244,5H5.86279L5.835,8.94482a5.81088,5.81088,0,0,1,.06177-.90869,2.08939,2.08939,0,0,1,.20972-.66845,1.01375,1.01375,0,0,1,.39038-.41163,1.13837,1.13837,0,0,1,.45849-.124.79079.79079,0,0,1,.64893.33252A1.89712,1.89712,0,0,1,7.83765,8.207L7.84326,11H8.9209L8.91626,8.74707A4.38572,4.38572,0,0,1,8.98511,7.916a1.76982,1.76982,0,0,1,.22143-.6045,1.01049,1.01049,0,0,1,.39063-.36865,1.15569,1.15569,0,0,1,.43213-.11133.8.8,0,0,1,.65405.333A1.88264,1.88264,0,0,1,10.91919,8.207L10.9248,11h1.07276Z" fill="#231f20" opacity="0.7"/>
  </g>
</svg>
