<svg id="Layer_1" data-name="Layer 1" xmlns="http://www.w3.org/2000/svg" viewBox="0 0 16 16">
  <title>abstractClass</title>
  <g>
    <path d="M11,1.68261a6.93358,6.93358,0,0,0-6,0V14.31737a6.93358,6.93358,0,0,0,6,0V1.68261Z" fill="#40b6e0" opacity="0.5" style="isolation: isolate"/>
    <path d="M10.616,9.98144l-0.5407-.55337a2.47758,2.47758,0,0,1-1.88411.78046A2.12355,2.12355,0,0,1,6.16382,8V7.98339A2.145,2.145,0,0,1,8.22873,5.76118l0.0204-.00065a2.6174,2.6174,0,0,1,1.82321.71283l0.51116-.55467A3.13348,3.13348,0,0,0,8.2804,5H8.09859A3.02986,3.02986,0,0,0,5.00064,7.96019L5,8V8.01635A2.994,2.994,0,0,0,8.00238,11H8.256A3.12367,3.12367,0,0,0,10.616,9.98144Z" fill="#231f20" opacity="0.6" style="isolation: isolate"/>
    <path d="M4,2.26A6.99125,6.99125,0,0,0,4,13.74V2.26Z" fill="#9aa7b0" opacity="0.6" style="isolation: isolate"/>
    <path d="M12,2.26V13.74A6.99125,6.99125,0,0,0,12,2.26Z" fill="#9aa7b0" opacity="0.6" style="isolation: isolate"/>
  </g>
</svg>
