<svg id="Layer_1" data-name="Layer 1" xmlns="http://www.w3.org/2000/svg" viewBox="0 0 16 16">
  <title>abstractMethod</title>
  <g>
    <path d="M11,1.68261a6.93358,6.93358,0,0,0-6,0V14.31737a6.93358,6.93358,0,0,0,6,0V1.68261Z" fill="#f98b9e" opacity="0.5" style="isolation: isolate"/>
    <path d="M4,2.26A6.99125,6.99125,0,0,0,4,13.74V2.26Z" fill="#9aa7b0" opacity="0.6" style="isolation: isolate"/>
    <path d="M12,2.26V13.74A6.99125,6.99125,0,0,0,12,2.26Z" fill="#9aa7b0" opacity="0.6" style="isolation: isolate"/>
    <g opacity="0.6">
      <path d="M11.02692,11L11.02181,8.20641a1.6974,1.6974,0,0,0-.26856-1.04232A0.97992,0.97992,0,0,0,9.9246,6.81665a1.57461,1.57461,0,0,0-.66238.12562,1.10769,1.10769,0,0,0-.44565.36882,1.63819,1.63819,0,0,0-.253.604,3.85687,3.85687,0,0,0-.079.83118L8.48893,11H7.51114L7.506,8.20644a1.71028,1.71028,0,0,0-.26589-1.04232,0.97232,0.97232,0,0,0-.826-0.34743,1.53106,1.53106,0,0,0-.68908.139,1.08739,1.08739,0,0,0-.44559.41159A1.91586,1.91586,0,0,0,5.04,8.0354a5.10521,5.10521,0,0,0-.0709.90869L5,11H4.00071L4,6,4.78356,6.11647l0.14,0.79109H4.977a1.66916,1.66916,0,0,1,.304-0.39822,1.74285,1.74285,0,0,1,.387-0.28063A1.78254,1.78254,0,0,1,6.1166,6.063a2.1969,2.1969,0,0,1,.48348-0.05346,2.18146,2.18146,0,0,1,1.06627.23518,1.41565,1.41565,0,0,1,.62881.73764H8.33791a1.72786,1.72786,0,0,1,.33336-0.433,1.91323,1.91323,0,0,1,.427-0.302,2.05957,2.05957,0,0,1,.48873-0.179,2.33471,2.33471,0,0,1,.52355-0.0588,1.829,1.829,0,0,1,1.4086.51046,2.3559,2.3559,0,0,1,.47507,1.633L11.99937,11H11.02692Z" fill="#231f20"/>
    </g>
  </g>
</svg>
