<svg id="Layer_1" data-name="Layer 1" xmlns="http://www.w3.org/2000/svg" width="32" height="32" viewBox="0 0 32 32">
  <title>abstractClass@2x</title>
  <g>
    <g>
      <path d="M6,6.21094A13.97821,13.97821,0,0,0,6,25.78906Z" fill="#9aa7b0" opacity="0.7"/>
      <path d="M26,6.21094V25.78906A13.97821,13.97821,0,0,0,26,6.21094Z" fill="#9aa7b0" opacity="0.7"/>
      <g opacity="0.6">
        <path d="M24,4.51953a13.96055,13.96055,0,0,0-16,0V27.48047a13.96055,13.96055,0,0,0,16,0Z" fill="#40b6e0"/>
      </g>
    </g>
    <path d="M21.23193,19.96289l-1.08139-1.10674a4.95518,4.95518,0,0,1-3.76822,1.56093A4.24711,4.24711,0,0,1,12.32764,16v-.0332a4.28989,4.28989,0,0,1,4.17062-4.44573A5.23219,5.23219,0,0,1,20.14,12.94235L21.167,11.8374A6.267,6.267,0,0,0,16.5608,10h-.36362A6.05971,6.05971,0,0,0,10,16v.03271A5.9881,5.9881,0,0,0,16.00476,22H16.512A6.24731,6.24731,0,0,0,21.23193,19.96289Z" fill="#231f20" opacity="0.7"/>
  </g>
</svg>
