<svg id="Layer_1" data-name="Layer 1" xmlns="http://www.w3.org/2000/svg" viewBox="0 0 32 32">
  <title>abstractMethod@2x</title>
  <g>
    <path d="M22,3.36522a13.86717,13.86717,0,0,0-12,0V28.63475a13.86717,13.86717,0,0,0,12,0V3.36522Z" fill="#f98b9e" opacity="0.5" style="isolation: isolate"/>
    <path d="M22.05384,21.99991l-0.01021-5.58707a3.39479,3.39479,0,0,0-.53713-2.08464,1.95985,1.95985,0,0,0-1.65731-.69487,3.14923,3.14923,0,0,0-1.32476.25123,2.21539,2.21539,0,0,0-.89131.73765,3.27638,3.27638,0,0,0-.506,1.208,7.71372,7.71372,0,0,0-.158,1.66237l0.00875,4.50733H15.02228l-0.01021-5.58707a3.42057,3.42057,0,0,0-.53179-2.08464,1.94465,1.94465,0,0,0-1.652-.69487,3.06211,3.06211,0,0,0-1.37815.278,2.17479,2.17479,0,0,0-.89119.82317,3.83172,3.83172,0,0,0-.47908,1.33631,10.21044,10.21044,0,0,0-.14176,1.81738L10,22H8.00142L8,12l1.56712,0.233,0.28,1.58219H9.954a3.33831,3.33831,0,0,1,.608-0.79644,3.48566,3.48566,0,0,1,.774-0.56125,3.56512,3.56512,0,0,1,.8972-0.33141,4.39374,4.39374,0,0,1,.967-0.10691,4.36292,4.36292,0,0,1,2.13254.47037,2.83129,2.83129,0,0,1,1.25763,1.47528h0.08549a3.4557,3.4557,0,0,1,.66672-0.86593,3.82642,3.82642,0,0,1,.85408-0.604,4.11914,4.11914,0,0,1,.97731-0.35814,4.66938,4.66938,0,0,1,1.04709-.1176A3.6581,3.6581,0,0,1,23.03823,13.04a4.7118,4.7118,0,0,1,.95015,3.26593l0.01036,5.694h-1.9449Z" fill="#231f20" opacity="0.6" style="isolation: isolate"/>
    <path d="M8,4.52A13.9825,13.9825,0,0,0,8,27.48V4.52Z" fill="#9aa7b0" opacity="0.6" style="isolation: isolate"/>
    <path d="M24,4.52V27.48A13.9825,13.9825,0,0,0,24,4.52Z" fill="#9aa7b0" opacity="0.6" style="isolation: isolate"/>
  </g>
</svg>
