<svg id="Layer_1" data-name="Layer 1" xmlns="http://www.w3.org/2000/svg" width="32" height="32" viewBox="0 0 32 32">
  <title>abstractMethod@2x</title>
  <g>
    <g>
      <path d="M6,6.21094A13.97821,13.97821,0,0,0,6,25.78906Z" fill="#9aa7b0" opacity="0.7"/>
      <path d="M26,6.21094V25.78906A13.97821,13.97821,0,0,0,26,6.21094Z" fill="#9aa7b0" opacity="0.7"/>
      <g opacity="0.6">
        <path d="M24,4.51953a13.96055,13.96055,0,0,0-16,0V27.48047a13.96055,13.96055,0,0,0,16,0Z" fill="#f98b9e"/>
      </g>
    </g>
    <g opacity="0.7" style="isolation: isolate">
      <path d="M22.05384,21.99992l-.01022-5.58707a3.39476,3.39476,0,0,0-.53713-2.08464,1.95985,1.95985,0,0,0-1.6573-.69487,3.14927,3.14927,0,0,0-1.32476.25124,2.21537,2.21537,0,0,0-.8913.73764,3.27634,3.27634,0,0,0-.506,1.208,7.71426,7.71426,0,0,0-.158,1.66236l.00876,4.50734H15.02228l-.01021-5.58707a3.4206,3.4206,0,0,0-.53178-2.08464,1.94465,1.94465,0,0,0-1.652-.69486,3.062,3.062,0,0,0-1.37815.278,2.17472,2.17472,0,0,0-.89119.82317,3.83158,3.83158,0,0,0-.47907,1.33631A10.20914,10.20914,0,0,0,9.9381,17.8882L10,22H8.00142L8,12l1.56712.233.28,1.58218H9.954a3.338,3.338,0,0,1,.608-.79644,3.48573,3.48573,0,0,1,.774-.56126,3.56528,3.56528,0,0,1,.8972-.3314,4.39377,4.39377,0,0,1,.967-.10692,4.363,4.363,0,0,1,2.13254.47037,2.83127,2.83127,0,0,1,1.25763,1.47528h.08549a3.45529,3.45529,0,0,1,.66672-.86593,3.82641,3.82641,0,0,1,.85408-.604,4.11929,4.11929,0,0,1,.97731-.35814,4.66986,4.66986,0,0,1,1.0471-.1176A3.65813,3.65813,0,0,1,23.03823,13.04a4.71185,4.71185,0,0,1,.95015,3.26593l.01035,5.694Z" fill="#231f20"/>
    </g>
  </g>
</svg>
