<svg id="Layer_1" data-name="Layer 1" xmlns="http://www.w3.org/2000/svg" width="16" height="16" viewBox="0 0 16 16">
  <title>abstractClass</title>
  <g>
    <g>
      <path d="M3,3.10547a6.98911,6.98911,0,0,0,0,9.78906Z" fill="#9aa7b0" opacity="0.7"/>
      <path d="M13,3.10547v9.78906a6.98911,6.98911,0,0,0,0-9.78906Z" fill="#9aa7b0" opacity="0.7"/>
      <g opacity="0.6">
        <path d="M12,2.25977a6.98025,6.98025,0,0,0-8,0V13.74023a6.98025,6.98025,0,0,0,8,0Z" fill="#40b6e0"/>
      </g>
    </g>
    <path d="M10,10H9.252a2.78942,2.78942,0,0,1-1.06085.20862,2.1235,2.1235,0,0,1-2.02734-2.2085v-.0166a2.145,2.145,0,0,1,2.08532-2.2229A2.68394,2.68394,0,0,1,9.36322,6H10V5.47327a3.13887,3.13887,0,0,0-1.71967-.47315H8.09857a3.02988,3.02988,0,0,0-3.09863,3v.01636a2.994,2.994,0,0,0,3.00238,2.98364h.2536A3.05382,3.05382,0,0,0,10,10.483Z" fill="#231f20" opacity="0.7"/>
  </g>
</svg>
