<!-- Copyright 2000-2021 JetBrains s.r.o. Use of this source code is governed by the Apache 2.0 license that can be found in the LICENSE file. -->
<svg xmlns="http://www.w3.org/2000/svg" xmlns:xlink="http://www.w3.org/1999/xlink" width="16" height="16" viewBox="0 0 16 16">
  <defs>
    <rect id="abstractmethod@2x-a" width="8" height="14"/>
  </defs>
  <g fill="none" fill-rule="evenodd">
    <path fill="#9AA7B0" fill-opacity=".8" d="M3 3.1055C1.764 4.3685 1 6.0935 1 8.0005 1 9.9065 1.764 11.6315 3 12.8945L3 3.1055zM13 3.1055L13 12.8945C14.236 11.6315 15 9.9065 15 8.0005 15 6.0935 14.236 4.3675 13 3.1055"/>
    <g transform="translate(4 1)">
      <mask id="abstractmethod@2x-b" fill="#fff">
        <use xlink:href="#abstractmethod@2x-a"/>
      </mask>
      <g mask="url(#abstractmethod@2x-b)">
        <g transform="translate(-4 -1)">
          <path fill="#F98B9E" fill-opacity=".6" d="M15,8 C15,11.866 11.866,15 8,15 C4.134,15 1,11.866 1,8 C1,4.134 4.134,1 8,1 C11.866,1 15,4.134 15,8"/>
          <path fill="#231F20" fill-opacity=".7" d="M7.9922,2 C7.9912,1.251 7.49847412,0.0003 5.881628,0.0003 C5.0919717,0.0003 4.49762904,0.201595671 4.0986,0.604187012 C3.69953333,0.201595671 3.13333333,0.0003 2.4,0.0003 C1.93194173,0.0003 1.46527507,0.133277 1,0.399231 L1,0.0003 L0,0.0003 L0,5.0003 L1,5.0003 C0.966666667,3.1563 0.966666667,2.1562 1,2 C1.05,1.7657 1.25,1 2.2,1 C3.15,1 3.499,1.537 3.5,2 L3.5,5.0003 L4.5,5.0003 L4.5,2 C4.5,1.686 4.7591191,1 5.781628,1 C6.8041369,1 7.00413731,1.73961181 7.00469971,2 C7.00469971,2.79041884 7.00469971,3.38323296 7.00469971,3.77844238 C7.00469971,4.0499663 7.00469971,4.45725217 7.00469971,5.0003 L7.9972,5.0003 L7.9922,2 Z" transform="translate(4 6)"/>
        </g>
      </g>
    </g>
  </g>
</svg>
