<svg id="Layer_1" data-name="Layer 1" xmlns="http://www.w3.org/2000/svg" viewBox="0 0 32 32">
  <title>annotationtype@2x</title>
  <circle cx="16" cy="16" r="14" fill="#62b543" opacity="0.5"/>
  <path d="M23.4527,12.1611a6.44012,6.44012,0,0,0-1.533-2.247,6.73656,6.73656,0,0,0-2.3378-1.4197A8.58741,8.58741,0,0,0,16.6177,8a9.79147,9.79147,0,0,0-2.4652.2986,8.42393,8.42393,0,0,0-2.1086.8518,7.695,7.695,0,0,0-1.7062,1.3315,8.01533,8.01533,0,0,0-1.2681,1.733,8.65135,8.65135,0,0,0-.7947,2.0659A9.64894,9.64894,0,0,0,8,16.6061a8.62463,8.62463,0,0,0,.5297,3.1183,6.26012,6.26012,0,0,0,1.528,2.3254,6.67749,6.67749,0,0,0,2.4497,1.4539,10.01244,10.01244,0,0,0,3.2953.5043,12.35937,12.35937,0,0,0,2.4905-.2399,10.99036,10.99036,0,0,0,2.1239-.6511V21.2372q-0.51945.1959-1.095,0.3622-0.57555.16665-1.1714,0.2839-0.59595.1176-1.1969,0.1861a10.33838,10.33838,0,0,1-1.1714.0685,7.04573,7.04573,0,0,1-2.3735-.3672,4.38164,4.38164,0,0,1-2.791-2.8295,7.38427,7.38427,0,0,1-.3566-2.3939,8.35223,8.35223,0,0,1,.4126-2.6826,6.03541,6.03541,0,0,1,1.2122-2.1198,5.452,5.452,0,0,1,1.9863-1.3952,7.03288,7.03288,0,0,1,2.7453-.4993,5.85581,5.85581,0,0,1,2.0576.3525,4.58,4.58,0,0,1,1.6349,1.028,4.71549,4.71549,0,0,1,1.0746,1.6547,6.03662,6.03662,0,0,1,.3871,2.2323,8.49349,8.49349,0,0,1-.0916,1.2777,5.07123,5.07123,0,0,1-.2649,1.0525,2.02048,2.02048,0,0,1-.438.7147,0.85171,0.85171,0,0,1-.6214.2644,0.73228,0.73228,0,0,1-.2903-0.0587,0.58406,0.58406,0,0,1-.2444-0.2105,1.25137,1.25137,0,0,1-.1732-0.4162,2.84289,2.84289,0,0,1-.0662-0.6755V16.8019q0-.2055.0203-0.421l0.2139-4.1023q-0.2853-.098-0.6824-0.1959-0.39735-.0978-0.8506-0.1762t-0.9422-.1273q-0.489-.0489-0.9473-0.049a5.06793,5.06793,0,0,0-1.8948.3378,4.05954,4.05954,0,0,0-1.4362.9498,4.1757,4.1757,0,0,0-.9066,1.4539,5.23252,5.23252,0,0,0-.3157,1.8505,5.11442,5.11442,0,0,0,.2342,1.591,3.49871,3.49871,0,0,0,.6825,1.2336,2.99819,2.99819,0,0,0,1.1053.7931,3.81237,3.81237,0,0,0,1.5024.279,3.18731,3.18731,0,0,0,.8301-0.1028,3.05814,3.05814,0,0,0,.6979-0.279,3.10154,3.10154,0,0,0,.5704-0.4064,3.91775,3.91775,0,0,0,.4482-0.4748h0.1528a1.70365,1.70365,0,0,0,.3209.5042,2.16725,2.16725,0,0,0,.494.4015,2.46456,2.46456,0,0,0,.6264.2643,2.75544,2.75544,0,0,0,.7284.093,3.06046,3.06046,0,0,0,1.6654-.4455,3.81888,3.81888,0,0,0,1.1766-1.1651,5.36138,5.36138,0,0,0,.6977-1.6301,7.508,7.508,0,0,0,.2292-1.8408A7.6838,7.6838,0,0,0,23.4527,12.1611Zm-9.1321,3.1575a2.81993,2.81993,0,0,1,.3769-0.9154,1.908,1.908,0,0,1,1.6961-.891,5.2711,5.2711,0,0,1,.5602.0294,3.79674,3.79674,0,0,1,.4787.0783l-0.1222,2.1638a6.62129,6.62129,0,0,1-.1375,1.0819,2.955,2.955,0,0,1-.3056.8322,1.47629,1.47629,0,0,1-.5094.5385,1.38334,1.38334,0,0,1-.7384.1909,1.25078,1.25078,0,0,1-1.0289-.4846,2.54857,2.54857,0,0,1-.3871-1.5813A4.67227,4.67227,0,0,1,14.3206,15.3186Z" fill="#231f20" opacity="0.6" style="isolation: isolate"/>
</svg>
