<svg id="Layer_1" data-name="Layer 1" xmlns="http://www.w3.org/2000/svg" width="16" height="16" viewBox="0 0 16 16">
  <title>annotationtype</title>
  <g>
    <g id="_Group_" data-name="&lt;Group&gt;" opacity="0.6">
      <circle cx="8" cy="8" r="7" fill="#74bd59"/>
    </g>
    <path d="M7.89887,12A5.0372,5.0372,0,0,1,6.244,11.74679a3.32089,3.32089,0,0,1-1.21888-.72209,3.1057,3.1057,0,0,1-.75836-1.15445,4.322,4.322,0,0,1-.2653-1.56078,4.89835,4.89835,0,0,1,.13766-1.167,4.38628,4.38628,0,0,1,.39845-1.03435A4.03654,4.03654,0,0,1,5.17179,5.242a3.83645,3.83645,0,0,1,.85146-.664,4.22163,4.22163,0,0,1,1.05569-.42635,4.933,4.933,0,0,1,1.2379-.15013A4.34015,4.34015,0,0,1,9.801,4.24864a3.363,3.363,0,0,1,1.16331.70658,3.2,3.2,0,0,1,.76086,1.11541A3.84954,3.84954,0,0,1,12,7.55685a3.75188,3.75188,0,0,1-.11463.91826,2.6484,2.6484,0,0,1-.34439.80416,1.85175,1.85175,0,0,1-.57164.566,1.47653,1.47653,0,0,1-.79941.21318,1.2912,1.2912,0,0,1-.34589-.04454,1.13692,1.13692,0,0,1-.29533-.1246.99763.99763,0,0,1-.23026-.18666.76061.76061,0,0,1-.14517-.22768l-.013-.032-.04755-.03152H8.97959l-.14717.1236c-.05256.05254-.10011.09958-.15167.14562a1.43991,1.43991,0,0,1-.27331.19416,1.46374,1.46374,0,0,1-.33488.13411C7.95093,10.04139,8.14266,10,8,10a3.99005,3.99005,0,0,1-1.05571-.0767,1.44586,1.44586,0,0,1-.5296-.37932,1.71,1.71,0,0,1-.32987-.597A3.75689,3.75689,0,0,1,6,8a1.74345,1.74345,0,0,1,.12586-.7484,2.03661,2.03661,0,0,1,.4425-.71008,1.98294,1.98294,0,0,1,.7003-.46238A1.55929,1.55929,0,0,1,8,6c.15367,0,.83581-.01651,1,0s.00011-.02445.15328.00208c.15168.026.29534.056.42849.08857q.14941.03753.2683.07406L9.74445,8.18887c-.007.07206-.01051.14762-.01051.22068v.13561a1.52,1.52,0,0,0,.037.37131.74837.74837,0,0,0,.10362.2472.40423.40423,0,0,0,.16919.14262.477.477,0,0,0,.18921.038.5377.5377,0,0,0,.39045-.16413,1.15783,1.15783,0,0,0,.24828-.40233,2.71291,2.71291,0,0,0,.14115-.561,4.49485,4.49485,0,0,0,.04756-.67,3.20789,3.20789,0,0,0-.20523-1.182,2.54512,2.54512,0,0,0-.57365-.88322,2.46586,2.46586,0,0,0-.874-.54945,3.11245,3.11245,0,0,0-1.09073-.18666,3.71544,3.71544,0,0,0-1.44764.26372A2.89919,2.89919,0,0,0,5.815,5.75037a3.20193,3.20193,0,0,0-.64222,1.12092A4.39538,4.39538,0,0,0,4.95654,8.279a3.8951,3.8951,0,0,0,.18772,1.26,2.34821,2.34821,0,0,0,1.49368,1.51324,3.718,3.718,0,0,0,1.25042.19366,5.38987,5.38987,0,0,0,.61269-.035c.20773-.02452.41447-.056.6212-.09758q.3101-.06.60969-.14712c.14817-.043.29183-.08857.43-.13761v.74911a5.68267,5.68267,0,0,1-1.00763.30175A6.28012,6.28012,0,0,1,7.89887,12Zm.30284-5.37842a1.118,1.118,0,0,0-.57415.13962,1.13177,1.13177,0,0,0-.38143.3633,1.5734,1.5734,0,0,0-.20723.50191,2.51378,2.51378,0,0,0-.06207.55746,1.38507,1.38507,0,0,0,.22075.87422.74047.74047,0,0,0,.60718.28623.812.812,0,0,0,.43249-.11259A.86262.86262,0,0,0,8.53358,8.92a1.61922,1.61922,0,0,0,.16769-.45587,3.48515,3.48515,0,0,0,.07259-.571l.06757-1.19348-.04154-.01a2.272,2.272,0,0,0-.29984-.05254A2.92455,2.92455,0,0,0,8.20171,6.62158Z" fill="#231f20" opacity="0.7"/>
  </g>
</svg>
