<svg id="Layer_1" data-name="Layer 1" xmlns="http://www.w3.org/2000/svg" width="32" height="32" viewBox="0 0 32 32">
  <title>annotationtype@2x</title>
  <g>
    <g id="_Group_" data-name="&lt;Group&gt;" opacity="0.6">
      <circle cx="16" cy="16" r="14" fill="#74bd59"/>
    </g>
    <path d="M15.79773,24a10.07443,10.07443,0,0,1-3.30973-.50642,6.642,6.642,0,0,1-2.43776-1.44418,6.21125,6.21125,0,0,1-1.51671-2.3089,8.64352,8.64352,0,0,1-.5306-3.12156A9.796,9.796,0,0,1,8.27824,14.285a8.77239,8.77239,0,0,1,.7969-2.0687,8.07318,8.07318,0,0,1,1.26843-1.73243A7.67329,7.67329,0,0,1,12.0465,9.15581a8.44363,8.44363,0,0,1,2.11138-.8527,9.86613,9.86613,0,0,1,2.4758-.30024,8.68068,8.68068,0,0,1,2.96835.4944,6.726,6.726,0,0,1,2.32663,1.41316,6.4,6.4,0,0,1,1.52172,2.23084A7.69919,7.69919,0,0,1,24,15.11371a7.50414,7.50414,0,0,1-.22926,1.8365,5.297,5.297,0,0,1-.68878,1.60832,3.70312,3.70312,0,0,1-1.14329,1.13193,2.95307,2.95307,0,0,1-1.5988.42635,2.58207,2.58207,0,0,1-.69179-.08907,2.274,2.274,0,0,1-.59066-.24921,1.99494,1.99494,0,0,1-.46052-.3733,1.52089,1.52089,0,0,1-.29033-.45538l-.026-.06405-.09511-.06305h-.22625l-.29434.2472c-.10511.10509-.20022.19917-.30334.29124a2.87905,2.87905,0,0,1-.54662.38832,2.92667,2.92667,0,0,1-.66975.26822,3.09229,3.09229,0,0,1-.7969.09908,3.722,3.722,0,0,1-1.45965-.27022,2.89163,2.89163,0,0,1-1.0592-.75862,3.42022,3.42022,0,0,1-.65974-1.194,5.06558,5.06558,0,0,1-.23026-1.56629,5.16275,5.16275,0,0,1,.31235-1.8245,4.07279,4.07279,0,0,1,.885-1.42016,3.96558,3.96558,0,0,1,1.40058-.92476,5.00368,5.00368,0,0,1,1.86611-.33227,9.48684,9.48684,0,0,1,.95107.05c.32837.033.64573.07506.95208.1281.30334.05205.59067.11209.857.17715q.29883.07506.5366.14812l-.21124,4.04832c-.014.14412-.021.29525-.021.44137v.27122a3.04042,3.04042,0,0,0,.07408.74261,1.49665,1.49665,0,0,0,.20724.4944.8086.8086,0,0,0,.33838.28524.954.954,0,0,0,.37843.07606,1.07529,1.07529,0,0,0,.78088-.32827,2.315,2.315,0,0,0,.49656-.80466,5.42477,5.42477,0,0,0,.28232-1.12192,8.99117,8.99117,0,0,0,.09511-1.3401,6.41549,6.41549,0,0,0-.41047-2.36394,5.0898,5.0898,0,0,0-1.14729-1.76645,4.93172,4.93172,0,0,0-1.748-1.0989,6.22471,6.22471,0,0,0-2.18146-.37331,7.43086,7.43086,0,0,0-2.89527.52743A5.79818,5.79818,0,0,0,11.63,11.50074a6.40354,6.40354,0,0,0-1.28445,2.24184,8.79046,8.79046,0,0,0-.43249,2.81531,7.79073,7.79073,0,0,0,.37542,2.52007,4.6964,4.6964,0,0,0,2.98738,3.02648,7.436,7.436,0,0,0,2.50082.38732,10.77979,10.77979,0,0,0,1.22539-.07006c.41546-.049.82893-.11209,1.2424-.19516q.62021-.12009,1.21938-.29424c.29633-.08607.58366-.17714.86-.27522v1.49823a11.367,11.367,0,0,1-2.01528.60349A12.56083,12.56083,0,0,1,15.79773,24Zm.60569-10.75683a2.23612,2.23612,0,0,0-1.1483.27923,2.26364,2.26364,0,0,0-.76286.7266,3.1475,3.1475,0,0,0-.41447,1.00382,5.0282,5.0282,0,0,0-.12414,1.11491,2.7701,2.7701,0,0,0,.4415,1.74844,1.48093,1.48093,0,0,0,1.21437.57247,1.624,1.624,0,0,0,.865-.22518,1.7255,1.7255,0,0,0,.59267-.62352,3.23944,3.23944,0,0,0,.33538-.91175,6.97012,6.97012,0,0,0,.14516-1.14193l.13515-2.387-.08309-.02a4.542,4.542,0,0,0-.59968-.10508A5.84877,5.84877,0,0,0,16.40342,13.24317Z" fill="#231f20" opacity="0.7"/>
  </g>
</svg>
