<svg xmlns="http://www.w3.org/2000/svg" width="16" height="16" viewBox="0 0 16 16">
  <path fill="#9AA7B0" fill-opacity=".8" fill-rule="evenodd" d="M8.35416667,7.66666667 C8.0125,6.69583333 7.0875,6 6,6 C4.62083333,6 3.5,7.12083333 3.5,8.5 C3.5,9.87916667 4.62083333,11 6,11 C7.0875,11 8.0125,10.3041667 8.35416667,9.33333333 L10,9.33333333 L10,11 L11.5,11 L11.5,9.33333333 L12.5,9.33333333 L12.5,7.66666667 L8.35416667,7.66666667 Z M6,9.33333333 C5.54166667,9.33333333 5.16666667,8.95833333 5.16666667,8.5 C5.16666667,8.04166667 5.54166667,7.66666667 6,7.66666667 C6.45833333,7.66666667 6.83333333,8.04166667 6.83333333,8.5 C6.83333333,8.95833333 6.45833333,9.33333333 6,9.33333333 Z" transform="matrix(0 1 1 0 -.5 .5)"/>
</svg>
