<svg id="Layer_1" data-name="Layer 1" xmlns="http://www.w3.org/2000/svg" width="32" height="32" viewBox="0 0 32 32">
  <title>class@2x</title>
  <g>
    <g id="_Group_" data-name="&lt;Group&gt;" opacity="0.6">
      <circle cx="16" cy="16" r="14" fill="#40b6e0"/>
    </g>
    <path d="M21.23186,19.96313l-1.0814-1.10674a4.95512,4.95512,0,0,1-3.76821,1.56092,4.2471,4.2471,0,0,1-4.05469-4.41707V15.967a4.2899,4.2899,0,0,1,4.17062-4.44573A5.2322,5.2322,0,0,1,20.14,12.94259l1.02695-1.10495a6.267,6.267,0,0,0-4.6062-1.8374H16.1971a6.05972,6.05972,0,0,0-6.19718,6V16.033a5.9881,5.9881,0,0,0,6.00476,5.96729h.50721A6.24734,6.24734,0,0,0,21.23186,19.96313Z" fill="#231f20" opacity="0.7"/>
  </g>
</svg>
