<svg id="Layer_1" data-name="Layer 1" xmlns="http://www.w3.org/2000/svg" width="16" height="16" viewBox="0 0 16 16">
  <title>class</title>
  <g>
    <g id="_Group_" data-name="&lt;Group&gt;" opacity="0.6">
      <circle cx="8" cy="8" r="7" fill="#40b6e0"/>
    </g>
    <path d="M10,10H9.252a2.78942,2.78942,0,0,1-1.06085.20862,2.1235,2.1235,0,0,1-2.02734-2.2085v-.0166a2.145,2.145,0,0,1,2.08532-2.2229A2.68394,2.68394,0,0,1,9.36322,6H10V5.47327a3.13887,3.13887,0,0,0-1.71967-.47315H8.09857a3.02988,3.02988,0,0,0-3.09863,3v.01636a2.994,2.994,0,0,0,3.00238,2.98364h.2536A3.05382,3.05382,0,0,0,10,10.483Z" fill="#231f20" opacity="0.7"/>
  </g>
</svg>
