<svg id="Layer_1" data-name="Layer 1" xmlns="http://www.w3.org/2000/svg" viewBox="0 0 16 16">
  <title>class</title>
  <g>
    <g id="_Group_" data-name=" Group " opacity="0.5">
      <circle cx="8" cy="8" r="7" fill="#40b6e0"/>
    </g>
    <path d="M10.61593,9.98156l-0.5407-.55337a2.47758,2.47758,0,0,1-1.88411.78046A2.12355,2.12355,0,0,1,6.16378,8.00012V7.98352A2.145,2.145,0,0,1,8.22869,5.76131l0.0204-.00065a2.6174,2.6174,0,0,1,1.82321.71283l0.51115-.55467a3.13348,3.13348,0,0,0-2.3031-.9187H8.09855A3.02986,3.02986,0,0,0,5.00064,7.96037L5,8.00012V8.01648a2.994,2.994,0,0,0,3.00238,2.98364H8.256A3.12367,3.12367,0,0,0,10.61593,9.98156Z" fill="#231f20" opacity="0.6" style="isolation: isolate"/>
  </g>
</svg>
