<svg id="Layer_1" data-name="Layer 1" xmlns="http://www.w3.org/2000/svg" viewBox="0 0 32 32">
  <title>class@2x</title>
  <g>
    <g id="_Group_" data-name=" Group " opacity="0.5">
      <circle cx="16" cy="16" r="14" fill="#40b6e0"/>
    </g>
    <path d="M21.23186,19.96313l-1.0814-1.10674a4.95515,4.95515,0,0,1-3.76821,1.56092,4.2471,4.2471,0,0,1-4.05469-4.41708V15.967a4.28989,4.28989,0,0,1,4.12959-4.44441l0.041-.00131A5.2348,5.2348,0,0,1,20.14461,12.947l1.02231-1.10934a6.267,6.267,0,0,0-4.6062-1.8374H16.1971a6.05971,6.05971,0,0,0-6.19589,5.9204l-0.00129.0796V16.033a5.9881,5.9881,0,0,0,6.00476,5.96729h0.50721A6.24735,6.24735,0,0,0,21.23186,19.96313Z" fill="#231f20" opacity="0.6" style="isolation: isolate"/>
  </g>
</svg>
