<svg xmlns="http://www.w3.org/2000/svg" width="16" height="16" viewBox="0 0 16 16">
  <g fill="none" fill-rule="evenodd">
    <path fill="#40B6E0" fill-opacity=".6" d="M15,8 C15,11.866 11.866,15 8,15 C4.134,15 1,11.866 1,8 C1,4.134 4.134,1 8,1 C11.866,1 15,4.134 15,8"/>
    <path fill="#231F20" fill-opacity=".7" d="M11.8232,5.5908 L10.0862,7.3278 L8.6722,5.9138 L10.4102,4.1768 C10.1272,4.0668 9.8222,3.9998 9.5002,3.9998 C8.1192,3.9998 7.0002,5.1188 7.0002,6.4998 C7.0002,6.8218 7.0662,7.1268 7.1772,7.4098 L4.1722,10.4138 L5.5862,11.8278 L8.5922,8.8228 C8.8732,8.9338 9.1782,8.9998 9.5002,8.9998 C10.8812,8.9998 12.0002,7.8808 12.0002,6.4998 C12.0002,6.1778 11.9332,5.8728 11.8232,5.5908"/>
  </g>
</svg>
