<!-- Copyright 2000-2021 JetBrains s.r.o. Use of this source code is governed by the Apache 2.0 license that can be found in the LICENSE file. -->
<svg xmlns="http://www.w3.org/2000/svg" width="16" height="16" viewBox="0 0 16 16">
  <g fill="#9AA7B0" fill-rule="evenodd" transform="matrix(-1 0 0 1 15 2)">
    <polygon fill-opacity=".8" points="14 0 9 0 9 12 14 12"/>
    <path d="M1,11 L4,11 L4,9 L1,9 L1,11 Z M1,12 L0,12 L0,3 L0,0 L8,0 L8,3 L5,3 L5,5 L8,5 L8,6 L5,6 L5,8 L8,8 L8,9 L5,9 L5,11 L8,11 L8,12 L1,12 Z M1,8 L4,8 L4,6 L1,6 L1,8 Z M1,5 L4,5 L4,3 L1,3 L1,5 Z"/>
  </g>
</svg>
