<svg xmlns="http://www.w3.org/2000/svg" width="16" height="16" viewBox="0 0 16 16">
  <g fill="none" fill-rule="evenodd">
    <path fill="#9AA7B0" d="M11.5,15 C9.56722222,15 8,13.4327778 8,11.5 C8,9.56722222 9.56722222,8 11.5,8 C13.4327778,8 15,9.56722222 15,11.5 C15,13.4327778 13.4327778,15 11.5,15 M11.5,7 C9.01436364,7 7,9.01518182 7,11.5 C7,13.9848182 9.01436364,16 11.5,16 C13.9856364,16 16,13.9848182 16,11.5 C16,9.01518182 13.9856364,7 11.5,7"/>
    <polygon fill="#9AA7B0" points="10 11 13 11 13 10 10 10"/>
    <polygon fill="#9AA7B0" points="10 13 13 13 13 12 10 12"/>
    <path fill="#9AA7B0" d="M6.20703249,13 C6.30564052,13.34864 6.43776662,13.6832071 6.59970959,14 L1,14 L1,2 L15,2 L15,7.25716211 C14.6928923,7.0035339 14.3577817,6.78260582 14,6.59970959 L14,5 L6,5 L6,7 L8.33692087,7 C7.93378973,7.28388498 7.57051841,7.62057005 7.25716211,8 L6,8 L6,10 L6.20703249,10 C6.11587935,10.3222824 6.05336782,10.6565902 6.02242151,11 L2.0004,11 L2.0004,10 L5,10 L5,8 L2,8 L2,13 L6.20703249,13 Z M11,6.02242151 C10.6565902,6.05336782 10.3222824,6.11587935 10,6.20703249 L10,5 L11,5 L11,6.02242151 Z M5,7 L5,5 L2,5 L2,7 L5,7 Z"/>
  </g>
</svg>
