<svg xmlns="http://www.w3.org/2000/svg" width="16" height="16" viewBox="0 0 16 16">
  <g fill="none" fill-rule="evenodd">
    <path fill="#40B6E0" fill-opacity=".7" d="M1,13 L7.98457,13 L7.98457,8 L15,8 L15,4 L7.98457,4 L6.69633,2.71149 C6.22161957,2.28559443 5.61570121,2.03457993 4.97888,2 L1.05128,2 C1.02295884,2 1,2.02295884 1,2.05128 L1,13 Z"/>
    <path fill="#9AA7B0" d="M1,5 L2,5 L2,3 L1,3 L1,5 Z M3,5 L4,5 L4,3 L3,3 L3,5 Z M1,2 L4,2 L4,1 L1,1 L1,2 Z M5,2 L6,2 L6,1 L5,1 L5,2 Z M2,2 L3,2 L3,1 L2,1 L2,2 Z M0,6 L7,6 L7,0 L0,0 L0,6 Z M5,5 L6,5 L6,3 L5,3 L5,5 Z" transform="translate(9 9)"/>
  </g>
</svg>
