<svg id="Layer_1" data-name="Layer 1" xmlns="http://www.w3.org/2000/svg" width="32" height="32" viewBox="0 0 32 32">
  <title>field@2x</title>
  <g>
    <g id="_Group_" data-name="&lt;Group&gt;" opacity="0.6">
      <circle cx="16" cy="16" r="14" fill="#f4af3d"/>
    </g>
    <g opacity="0.7">
      <path d="M19.28906,15.10156H16.418v9.435H14.27344v-9.435H12v-.8789l2.27344-.79688v-1.125a6.94953,6.94953,0,0,1,.26367-2.08008,3.16924,3.16924,0,0,1,.76172-1.31836,2.78285,2.78285,0,0,1,1.22461-.69726A6.04216,6.04216,0,0,1,18.16406,8a5.61835,5.61835,0,0,1,1.27149.13477,9.345,9.345,0,0,1,1.03711.29882l-.55078,1.65235a7.36145,7.36145,0,0,0-.791-.22852,3.94156,3.94156,0,0,0-.89648-.09961,2.60881,2.60881,0,0,0-.8086.11133,1.16562,1.16562,0,0,0-.5625.39258,1.9144,1.9144,0,0,0-.334.76758,5.75217,5.75217,0,0,0-.11133,1.248v1.21875h2.87109Z" fill="#231f20"/>
    </g>
  </g>
</svg>
