<svg id="Layer_1" data-name="Layer 1" xmlns="http://www.w3.org/2000/svg" width="16" height="16" viewBox="0 0 16 16">
  <title>field</title>
  <g>
    <g id="_Group_" data-name="&lt;Group&gt;" opacity="0.6">
      <circle cx="8" cy="8" r="7" fill="#f4af3d"/>
    </g>
    <path d="M7.99927,6.06934c0-.02539.00244-.04493.00293-.06934H8V5h.36133a.57026.57026,0,0,1,.14184-.0957,1.338,1.338,0,0,1,.4043-.05371,2.02775,2.02775,0,0,1,.44824.04785c.13062.02929.24976.06445.36255.10156h.03613L10,4.28711V4.20264a4.60648,4.60648,0,0,0-.49194-.13721A2.87007,2.87007,0,0,0,8.87231,4a3.12627,3.12627,0,0,0-.82031.09912,1.40678,1.40678,0,0,0-.6123.3374,1.52123,1.52123,0,0,0-.38086.6377A3.26131,3.26131,0,0,0,6.927,6.08057v.35H6.03442V7H6.927v5H7.99927V7H9V6.43055H7.99927Z" fill="#231f20" opacity="0.7"/>
  </g>
</svg>
