<svg id="Layer_1" data-name="Layer 1" xmlns="http://www.w3.org/2000/svg" viewBox="0 0 32 32">
  <title>field@2x</title>
  <g>
    <g id="_Group_" data-name=" Group " opacity="0.6">
      <circle cx="16" cy="16" r="14" fill="#f4af3d"/>
    </g>
    <g opacity="0.6">
      <path d="M19.28906,15.10156H16.418v9.435H14.27344v-9.435H12v-0.8789l2.27344-.79687v-1.125a6.94947,6.94947,0,0,1,.26367-2.08008,3.16918,3.16918,0,0,1,.76172-1.31836,2.78284,2.78284,0,0,1,1.22461-.69727A6.04222,6.04222,0,0,1,18.16406,8a5.61867,5.61867,0,0,1,1.27148.13477,9.34466,9.34466,0,0,1,1.03711.29883l-0.55078,1.65234a7.36122,7.36122,0,0,0-.791-0.22852,3.94119,3.94119,0,0,0-.89648-0.09961,2.60883,2.60883,0,0,0-.80859.11133,1.16559,1.16559,0,0,0-.5625.39258,1.91443,1.91443,0,0,0-.334.76758,5.75227,5.75227,0,0,0-.11133,1.248V13.496h2.87109v1.60551Z" fill="#231f20"/>
    </g>
  </g>
</svg>
