<!-- Copyright 2000-2021 JetBrains s.r.o. Use of this source code is governed by the Apache 2.0 license that can be found in the LICENSE file. -->
<svg xmlns="http://www.w3.org/2000/svg" xmlns:xlink="http://www.w3.org/1999/xlink" width="16" height="16" viewBox="0 0 16 16">
  <defs>
    <path id="fieldpk-a" d="M14.7769528,6.24025177 C14.4283704,6.10359531 14.0525351,6.02123742 13.6598546,6.00358558 C12.837195,3.67132805 10.6137773,2 8,2 C4.6862915,2 2,4.6862915 2,8 C2,11.3137085 4.6862915,14 8,14 C9.30618298,14 10.5148814,13.5826191 11.5,12.8739526 L11.5,14.0635246 C10.4703932,14.65912 9.275005,15 8,15 C4.13400675,15 1,11.8659932 1,8 C1,4.13400675 4.13400675,1 8,1 C11.2582075,1 13.9964929,3.22605163 14.7769528,6.24025177 Z"/>
  </defs>
  <g fill="none" fill-rule="evenodd">
    <path fill="#9AA7B0" d="M13.8541667,10.6666667 C13.5125,9.69583333 12.5875,9 11.5,9 C10.1208333,9 9,10.1208333 9,11.5 C9,12.8791667 10.1208333,14 11.5,14 C12.5875,14 13.5125,13.3041667 13.8541667,12.3333333 L15.5,12.3333333 L15.5,14 L17,14 L17,12.3333333 L18,12.3333333 L18,10.6666667 L13.8541667,10.6666667 Z M11.5,12.3333333 C11.0416667,12.3333333 10.6666667,11.9583333 10.6666667,11.5 C10.6666667,11.0416667 11.0416667,10.6666667 11.5,10.6666667 C11.9583333,10.6666667 12.3333333,11.0416667 12.3333333,11.5 C12.3333333,11.9583333 11.9583333,12.3333333 11.5,12.3333333 Z" transform="matrix(0 1 1 0 2 -2)"/>
    <use fill="#9AA7B0" fill-opacity=".8" xlink:href="#fieldpk-a"/>
    <path fill="#40B6E0" fill-opacity=".6" d="M12.6300322,6.10897411 C11.1179057,6.49575857 10,7.86732885 10,9.5 C10,10.468374 10.3932728,11.3448942 11.0288165,11.9785585 C10.1882746,12.619431 9.13858064,13 8,13 C5.23857625,13 3,10.7614237 3,8 C3,5.23857625 5.23857625,3 8,3 C10.0922384,3 11.8843316,4.2850739 12.6300322,6.10897411 Z"/>
  </g>
</svg>
