<svg id="Layer_1" data-name="Layer 1" xmlns="http://www.w3.org/2000/svg" viewBox="0 0 16 16">
  <title>field</title>
  <g>
    <g>
      <g opacity="0.6">
        <g id="_Group_" data-name="&lt;Group&gt;">
          <circle cx="8" cy="8" r="7" fill="#f4af3d"/>
        </g>
      </g>
      <g opacity="0.6">
        <path d="M8.209,7v5H7.13672V7L6,7.01037l1.13672-.38551V6.08061a3.25979,3.25979,0,0,1,.13184-1.00629,1.52286,1.52286,0,0,1,.38086-0.63779,1.40351,1.40351,0,0,1,.6123-0.33732A3.11677,3.11677,0,0,1,9.082,4a2.89979,2.89979,0,0,1,.63574.0652,4.79312,4.79312,0,0,1,.51855.14457l-0.27539.79936a3.77572,3.77572,0,0,0-.39551-0.11055,2.03388,2.03388,0,0,0-.44824-0.04819,1.34512,1.34512,0,0,0-.4043.05386,0.58323,0.58323,0,0,0-.28125.18992,0.91163,0.91163,0,0,0-.167.37134,2.69543,2.69543,0,0,0-.05566.60377v0.5896H9.64453Z" fill="#231f20"/>
      </g>
    </g>
    <polygon points="6 7 7 7 7 6 6.722 6 6 7" fill="#231f20" opacity="0.6"/>
    <polygon points="8 7 9 7 10 6 8.722 6 8 7" fill="#231f20" opacity="0.6"/>
  </g>
</svg>
