<!-- Copyright 2000-2021 JetBrains s.r.o. Use of this source code is governed by the Apache 2.0 license that can be found in the LICENSE file. -->
<svg xmlns="http://www.w3.org/2000/svg" width="16" height="16" viewBox="0 0 16 16">
  <g fill="none" fill-rule="evenodd">
    <path fill="#F4AF3D" fill-opacity=".6" d="M15,8 C15,11.866 11.866,15 8,15 C4.134,15 1,11.866 1,8 C1,4.134 4.134,1 8,1 C11.866,1 15,4.134 15,8"/>
    <path fill="#231F20" fill-opacity=".7" d="M2.4,5.883539 L2.4,4.28354772 C0.979748198,3.98518032 0.3204,3.48021768 0.3204,2.67508571 L0.3204,2.65794286 C0.3204,1.89472731 1.16888543,1.30661066 2.4,1.17175036 L2.4,0 L3.6,0 L3.6,1.16912485 C4.44123415,1.2415048 5.10836063,1.46124802 5.76,1.8248 L5.2344,2.53908571 C4.69896767,2.23641429 4.16415685,2.05626812 3.6,1.97905222 L3.6,3.61797086 C5.23935072,3.89852922 6,4.45376621 6,5.27051429 C6,6.16872326 5.0130292,6.767088 3.6,6.84752938 L3.6,8 L2.4,8 L2.4,6.80685034 C1.5093649,6.70002273 0.731678952,6.4214723 4.4408921e-16,5.96765714 L0.5604,5.16537143 C1.14958975,5.53649548 1.72256237,5.77547997 2.4,5.883539 Z M3.6,5.94738438 C4.48453351,5.92699745 4.9644,5.79900045 4.9644,5.33337143 C4.9644,4.88594829 4.75371333,4.69084968 3.6,4.48643216 L3.6,5.94738438 Z M2.4,1.95740856 C1.69629726,2.02561122 1.32,2.24856823 1.32,2.65794286 C1.32,3.04501524 1.50642029,3.23005577 2.4,3.41511492 L2.4,1.95740856 Z" transform="translate(5 4)"/>
  </g>
</svg>
