<!-- Copyright 2000-2021 JetBrains s.r.o. Use of this source code is governed by the Apache 2.0 license that can be found in the LICENSE file. -->
<svg xmlns="http://www.w3.org/2000/svg" width="16" height="16" viewBox="0 0 16 16">
  <g fill="none" fill-rule="evenodd">
    <path fill="#40B6E0" fill-opacity=".6" d="M8,1 L8,4 L12,4 L12,8 L8,8 L8,12 L4,12 L4,8 L1,8 C1,11.866 4.134,15 8,15 C11.866,15 15,11.866 15,8 C15,4.134 11.866,1 8,1"/>
    <polygon fill="#9AA7B0" points="11 5 7 5 7 1 5 1 5 5 1 5 1 7 5 7 5 11 7 11 7 7 11 7"/>
    <path fill="#40B6E0" fill-opacity=".6" d="M4,4 L4,2.26 C3.322,2.733 2.732,3.322 2.26,4 L4,4 Z"/>
  </g>
</svg>
