<!-- Copyright 2000-2021 JetBrains s.r.o. Use of this source code is governed by the Apache 2.0 license that can be found in the LICENSE file. -->
<svg xmlns="http://www.w3.org/2000/svg" width="16" height="16" viewBox="0 0 16 16">
  <g fill="none" fill-rule="evenodd">
    <path fill="#9AA7B0" fill-opacity=".8" d="M7.9844,3 L6.6964,1.711 C6.3044,1.32 5.5324,1 4.9784,1 L1.0504,1 C1.0234,1 1.0004,1.023 1.0004,1.051 L1.0004,7 L10.0004,7 L14.0004,7 L15.0004,7 L15.0004,3 L7.9844,3 Z"/>
    <polygon fill="#40B6E0" fill-opacity=".7" points="1 15 16 15 16 8 1 8"/>
    <path fill="#231F20" fill-opacity=".7" d="M1.39509277,3.58770752 C1.62440186,3.83789062 1.83782861,4 2.28682861,4 C2.81318359,4 3,3.58770752 3,3.29760742 L3,0 L4,0 L4,3.58770752 C4,4.31964111 3.32670898,5 2.45,5 C1.629,5 1.15,4.76264111 0.8,4.31964111 L1.39509277,3.58770752 Z" transform="translate(2 9)"/>
  </g>
</svg>
