<!-- Copyright 2000-2021 JetBrains s.r.o. Use of this source code is governed by the Apache 2.0 license that can be found in the LICENSE file. -->
<svg xmlns="http://www.w3.org/2000/svg" width="16" height="16" viewBox="0 0 16 16">
  <g fill="none" fill-rule="evenodd">
    <polygon fill="#9AA7B0" points="14 15 7.001 15 5 15 5 16 16.001 16 16.001 15"/>
    <path fill="#9AA7B0" fill-opacity=".8" d="M15,4 L7.984,4 L6.696,2.711 C6.305,2.32 5.532,2 4.979,2 L1.051,2 C1.023,2 1,2.023 1,2.051 L1,13 L6,13 L6,11 L15,11 L15,4 Z"/>
    <polygon fill="#9AA7B0" points="14.929 13 15 13 15 12.929"/>
    <path fill="#62B543" d="M9,13 C9,13.553 8.553,14 8,14 C7.447,14 7,13.553 7,13 C7,12.447 7.447,12 8,12 C8.553,12 9,12.447 9,13"/>
    <path fill="#F26522" d="M15,13 C15,13.553 14.553,14 14,14 C13.447,14 13,13.553 13,13 C13,12.447 13.447,12 14,12 C14.553,12 15,12.447 15,13"/>
    <path fill="#40B6E0" d="M12,13 C12,13.553 11.553,14 11,14 C10.447,14 10,13.553 10,13 C10,12.447 10.447,12 11,12 C11.553,12 12,12.447 12,13"/>
  </g>
</svg>
