<!-- Copyright 2000-2021 JetBrains s.r.o. Use of this source code is governed by the Apache 2.0 license that can be found in the LICENSE file. -->
<svg xmlns="http://www.w3.org/2000/svg" width="16" height="16" viewBox="0 0 16 16">
  <g fill="none" fill-rule="evenodd">
    <path fill="#9AA7B0" fill-opacity=".8" d="M7.9844,4 L6.6964,2.711 C6.3044,2.32 5.5324,2 4.9784,2 L1.0504,2 C1.0234,2 1.0004,2.023 1.0004,2.051 L1.0004,13 L8.0004,13 L8.0004,8 L15.0004,8 L15.0004,4 L7.9844,4 Z"/>
    <path fill="#62B543" d="M12,10.5 C12,11.328 11.328,12 10.5,12 C9.672,12 9,11.328 9,10.5 C9,9.672 9.672,9 10.5,9 C11.328,9 12,9.672 12,10.5"/>
    <path fill="#9AA7B0" d="M16,14.5 C16,15.328 15.328,16 14.5,16 C13.672,16 13,15.328 13,14.5 C13,13.672 13.672,13 14.5,13 C15.328,13 16,13.672 16,14.5"/>
    <path fill="#40B6E0" d="M16,10.5 C16,11.328 15.328,12 14.5,12 C13.672,12 13,11.328 13,10.5 C13,9.672 13.672,9 14.5,9 C15.328,9 16,9.672 16,10.5"/>
    <path fill="#F26522" d="M12,14.5 C12,15.328 11.328,16 10.5,16 C9.672,16 9,15.328 9,14.5 C9,13.672 9.672,13 10.5,13 C11.328,13 12,13.672 12,14.5"/>
  </g>
</svg>
