<!-- Copyright 2000-2021 JetBrains s.r.o. Use of this source code is governed by the Apache 2.0 license that can be found in the LICENSE file. -->
<svg xmlns="http://www.w3.org/2000/svg" width="16" height="16" viewBox="0 0 16 16">
  <g fill="none" fill-rule="evenodd">
    <path fill="#9AA7B0" fill-opacity=".8" d="M3,8 L15,8 L15,4 L7.984,4 L6.696,2.711 C6.305,2.32 5.532,2 4.979,2 L1.051,2 C1.023,2 1,2.023 1,2.051 L1,13 L3,13 L3,8 Z"/>
    <path fill="#9AA7B0" d="M4,16 L16.001,16 L16.001,9 L4,9 L4,16 Z M5,15.001 L15.001,15.001 L15.001,11 L5,11 L5,15.001 Z"/>
    <path fill="#62B543" d="M8,13 C8,13.553 7.553,14 7,14 C6.447,14 6,13.553 6,13 C6,12.447 6.447,12 7,12 C7.553,12 8,12.447 8,13"/>
    <path fill="#40B6E0" d="M11,13 C11,13.553 10.553,14 10,14 C9.447,14 9,13.553 9,13 C9,12.447 9.447,12 10,12 C10.553,12 11,12.447 11,13"/>
    <path fill="#F26522" d="M14,13 C14,13.553 13.553,14 13,14 C12.447,14 12,13.553 12,13 C12,12.447 12.447,12 13,12 C13.553,12 14,12.447 14,13"/>
  </g>
</svg>
