<!-- Copyright 2000-2021 JetBrains s.r.o. Use of this source code is governed by the Apache 2.0 license that can be found in the LICENSE file. -->
<svg xmlns="http://www.w3.org/2000/svg" width="16" height="16" viewBox="0 0 16 16">
  <g fill="none" fill-rule="evenodd">
    <path fill="#9AA7B0" d="M11,15 L15,15 L15,10 L11,10 L11,15 Z M10,16 L16,16 L16,9 L10,9 L10,16 Z"/>
    <polygon fill="#9AA7B0" points="12 12 14 12 14 11 12 11"/>
    <polygon fill="#9AA7B0" points="12 14 14 14 14 13 12 13"/>
    <path fill="#9AA7B0" fill-opacity=".8" d="M1,13 L8.94562097,13 L8.94562097,8 L15,8 L15,4 L7.98457,4 L6.69633,2.71149 C6.22161957,2.28559443 5.61570121,2.03457993 4.97888,2 L1.05128,2 C1.02295884,2 1,2.02295884 1,2.05128 L1,13 Z"/>
  </g>
</svg>
