<svg id="Layer_1" data-name="Layer 1" xmlns="http://www.w3.org/2000/svg" viewBox="0 0 16 16">
  <title>methodReference</title>
  <g>
    <g opacity="0.5">
      <g id="_Group_" data-name=" Group ">
        <circle cx="8" cy="7.99999" r="7" fill="#f98b9e"/>
      </g>
    </g>
    <path d="M11.02755,11l-0.0051-2.79358a1.6974,1.6974,0,0,0-.26856-1.04232,0.97992,0.97992,0,0,0-.82865-0.34743,1.57461,1.57461,0,0,0-.66238.12562,1.10769,1.10769,0,0,0-.44565.36882,1.63819,1.63819,0,0,0-.253.604,3.85687,3.85687,0,0,0-.079.83118L8.48957,11H7.51178L7.50667,8.20644a1.71028,1.71028,0,0,0-.26589-1.04232,0.97232,0.97232,0,0,0-.826-0.34743,1.53106,1.53106,0,0,0-.68908.139,1.08739,1.08739,0,0,0-.44559.41159,1.91587,1.91587,0,0,0-.23954.66815,5.10521,5.10521,0,0,0-.0709.90869L5.00063,11H4.00134L4.00063,6h1l-0.07645.90757H4.97762a1.66916,1.66916,0,0,1,.304-0.39822,1.74285,1.74285,0,0,1,.387-0.28063,1.78253,1.78253,0,0,1,.4486-0.1657A2.1969,2.1969,0,0,1,6.6007,6.00954a2.18147,2.18147,0,0,1,1.0663.23519,1.41565,1.41565,0,0,1,.62881.73764H8.33854a1.72786,1.72786,0,0,1,.33336-0.433,1.91323,1.91323,0,0,1,.427-0.302,2.05956,2.05956,0,0,1,.4887-0.179,2.33471,2.33471,0,0,1,.52355-0.0588,1.829,1.829,0,0,1,1.4086.51046,2.3559,2.3559,0,0,1,.47507,1.633L12,11H11.02755Z" fill="#231f20" opacity="0.6" style="isolation: isolate"/>
    <path d="M5,5L7.44011,3H8.23677L11,5H9.663L7.897,3.64915,6.33148,5H5Z" fill="#231f20" opacity="0.6" style="isolation: isolate"/>
  </g>
</svg>
