<svg xmlns="http://www.w3.org/2000/svg" width="16" height="16" viewBox="0 0 16 16">
  <g fill="none" fill-opacity=".6" fill-rule="evenodd" transform="matrix(-1 0 0 1 15 1)">
    <path fill="#40B6E0" d="M14,9.5 C14,11.9852857 11.9852857,14 9.5,14 C7.01471429,14 5,11.9852857 5,9.5 C5,7.01471429 7.01471429,5 9.5,5 C11.9852857,5 14,7.01471429 14,9.5"/>
    <path fill="#F4AF3D" d="M4.076839,10.4213905 C3.11172891,9.59603947 2.49999951,8.36945974 2.49999951,7 C2.49999951,4.51471429 4.5147138,2.5 6.99999951,2.5 C8.36945925,2.5 9.59603898,3.1117294 10.42139,4.07683949 C10.1217939,4.02630787 9.81396903,4 9.49999951,4 C6.46242808,4 3.99999951,6.46242857 3.99999951,9.5 C3.99999951,9.81396952 4.02630738,10.1217944 4.076839,10.4213905 Z"/>
    <path fill="#62B543" d="M1.576839,7.92139049 C0.611728913,7.09603947 -4.89840772e-07,5.86945974 -4.89840772e-07,4.5 C-4.89840772e-07,2.01471429 2.0147138,0 4.49999951,0 C5.86945925,0 7.09603898,0.611729403 7.92139,1.57683949 C7.6217939,1.52630787 7.31396903,1.5 6.99999951,1.5 C3.96242808,1.5 1.49999951,3.96242857 1.49999951,7 C1.49999951,7.31396952 1.52630738,7.62179439 1.576839,7.92139049 Z"/>
  </g>
</svg>
