<!-- Copyright 2000-2021 JetBrains s.r.o. Use of this source code is governed by the Apache 2.0 license that can be found in the LICENSE file. -->
<svg xmlns="http://www.w3.org/2000/svg" width="16" height="16" viewBox="0 0 16 16">
  <g fill="none" fill-rule="evenodd">
    <polygon fill="#9AA7B0" fill-opacity=".8" points="1 13 3 13 3 3 1 3"/>
    <polygon fill="#62B543" points="4 13 6 13 6 3 4 3"/>
    <polygon fill="#40B6E0" points="10 8 12 8 12 3 10 3"/>
    <polygon fill="#9AA7B0" fill-opacity=".8" points="7 13 9 13 9 .999 7 .999"/>
    <polygon fill="#9AA7B0" fill-opacity=".8" points="13 8 15 8 15 5 13 5"/>
    <polygon fill="#9AA7B0" points="14.613 9 14.613 13.744 11.306 9 10 9 10 16 11.386 16 11.386 11.295 14.819 16 16 16 16 9"/>
  </g>
</svg>
