<!-- Copyright 2000-2021 JetBrains s.r.o. Use of this source code is governed by the Apache 2.0 license that can be found in the LICENSE file. -->
<svg xmlns="http://www.w3.org/2000/svg" width="16" height="16" viewBox="0 0 16 16">
  <g fill="none" fill-rule="evenodd">
    <path fill="#9AA7B0" fill-opacity=".8" d="M7.1016 15L11.9996 15 11.9996 14 7.5436 14C7.4426 14.357 7.2986 14.695 7.1016 15M6 3.4033L6 6.5963C6 7.9243 6.957 9.0003 8.137 9.0003L10.5 9.0003 12 9.0003 12 8.5003 12 1.0003 8.137 1.0003C6.957 1.0003 6 2.0763 6 3.4033M3 9.4531L3 8.0001C3 6.5791 3.566 6.0001 4 6.0001L4 5.9901C4 6.3121 4.181 6.6091 4.467 6.7541L4.779 6.9121C5.022 7.0351 5.281 7.0211 5.5 6.9211L5.5 5.5061 5.5 4.4941 5.5 3.0791C5.281 2.9781 5.022 2.9651 4.779 3.0881L4.467 3.2461C4.181 3.3911 4 3.6871 4 4.0101L4 4.0001C2.9 4.0001 2 6.0791 2 8.0001L2 9.8941C2.305 9.6971 2.643 9.5551 3 9.4531"/>
    <polygon fill="#9AA7B0" fill-opacity=".8" points="12.5 8 16 8 16 7 12.5 7"/>
    <polygon fill="#9AA7B0" points="12.5 3 16 3 16 2 12.5 2"/>
    <path fill="#62B543" d="M3,14.9971 L3,10.9971 L6,12.8811 L3,14.9971 Z M4,9.9971 C2.343,9.9971 1,11.3401 1,12.9971 C1,14.6531 2.343,15.9971 4,15.9971 C5.657,15.9971 7,14.6531 7,12.9971 C7,11.3401 5.657,9.9971 4,9.9971 Z"/>
  </g>
</svg>
