<!-- Copyright 2000-2021 JetBrains s.r.o. Use of this source code is governed by the Apache 2.0 license that can be found in the LICENSE file. -->
<svg xmlns="http://www.w3.org/2000/svg" width="16" height="16" viewBox="0 0 16 16">
  <g fill="none" fill-rule="evenodd" transform="translate(0 1)">
    <path fill="#40B6E0" fill-opacity=".6" d="M2.998,8.999 C1.348,8.999 0,10.347 0,11.999 C0,13.649 1.348,14.997 2.998,14.997 C4.651,14.997 5.999,13.649 5.999,11.999 C5.999,10.347 4.651,8.999 2.998,8.999"/>
    <path fill="#9AA7B0" fill-opacity=".8" d="M6.1016 14L10.9996 14 10.9996 13 6.5436 13C6.4426 13.357 6.2986 13.695 6.1016 14M5 2.4033L5 5.5963C5 6.9243 5.957 8.0003 7.137 8.0003L9.5 8.0003 11 8.0003 11 7.5003 11 .0003 7.137.0003C5.957.0003 5 1.0763 5 2.4033M2 8.4531L2 7.0001C2 5.5791 2.566 5.0001 3 5.0001L3 4.9901C3 5.3121 3.181 5.6091 3.467 5.7541L3.779 5.9121C4.022 6.0351 4.281 6.0211 4.5 5.9211L4.5 4.5061 4.5 3.4941 4.5 2.0791C4.281 1.9781 4.022 1.9651 3.779 2.0881L3.467 2.2461C3.181 2.3911 3 2.6871 3 3.0101L3 3.0001C1.9 3.0001 1 5.0791 1 7.0001L1 8.8941C1.305 8.6971 1.643 8.5551 2 8.4531"/>
    <polygon fill="#9AA7B0" fill-opacity=".8" points="11.5 7 15 7 15 6 11.5 6"/>
    <polygon fill="#9AA7B0" fill-opacity=".8" points="11.5 2 15 2 15 1 11.5 1"/>
    <path fill="#40B6E0" d="M4.1504 10.8936L3.9954 10.8936C3.9954 10.8486 3.9954 10.8046 4.0174 10.7606L3.9274 10.6696 3.8384 10.6696C3.8164 10.6476 3.7934 10.6246 3.7934 10.5816L3.8164 10.5586C3.8384 10.5586 3.9044 10.5816 3.9274 10.5816 3.9274 10.5366 3.9514 10.4476 3.9514 10.4246 3.9514 10.4476 3.9954 10.4926 3.9954 10.4926 4.0394 10.4926 4.0614 10.5146 4.0834 10.5366 4.0614 10.5586 4.0394 10.5816 4.0394 10.6246 4.0834 10.6246 4.0834 10.6476 4.1064 10.6946 4.0834 10.7606 4.1724 10.7816 4.1954 10.8286L4.1504 10.8936zM5.8994 11.4056C5.8484 11.1396 5.7254 10.7866 5.5904 10.5666 5.3374 10.1486 4.9874 9.7476 4.6614 9.5326 4.4524 9.3926 4.1704 9.2436 3.9524 9.1706L3.8794 9.1626C3.8674 9.1796 3.8574 9.1856 3.8494 9.1866L3.8534 9.1946C3.8264 9.1946 3.7994 9.2286 3.7744 9.2286 3.7994 9.2936 3.7744 9.2596 3.7994 9.3276L3.6964 9.3276C3.6964 9.3936 3.7484 9.4606 3.7744 9.4936 3.7224 9.5276 3.6434 9.4936 3.5654 9.4936 3.5404 9.4266 3.5124 9.3276 3.4344 9.3276 3.4344 9.3616 3.4094 9.3936 3.4094 9.4266 3.4344 9.4606 3.4884 9.5596 3.5124 9.5946 3.4094 9.5946 3.3054 9.7266 3.1744 9.6596 3.2264 9.5276 2.8874 9.4936 2.8374 9.4936L2.7854 9.5596C2.7324 9.5276 2.4714 9.7606 2.4204 9.8276L2.4974 9.9256C2.7214 9.7896 2.7074 9.8596 2.8104 9.7266 2.8634 9.7266 2.9674 9.6936 2.9414 9.7606 2.9934 9.6936 2.8374 9.8916 2.8374 9.9256 2.8374 9.9586 2.8634 9.9926 2.8634 10.0266 2.8104 10.0606 2.7324 10.0926 2.7074 10.1246 2.6794 10.1246 2.6544 10.0926 2.6294 10.0926 2.6294 10.0606 2.6794 9.9926 2.6794 9.9586 2.6544 9.9256 2.6664 9.9316 2.6664 9.9006 2.6404 9.9006 2.6294 9.9236 2.6034 9.9236L2.5404 9.9306C2.5284 10.0066 2.5494 9.9926 2.5494 10.0266 2.5244 10.0606 2.4464 10.1246 2.4204 10.1246 2.4714 10.0606 2.2894 10.1246 2.2384 10.1246L2.1584 10.2256C2.0544 10.2256 1.9234 10.1916 1.8474 10.2256 1.8474 10.2586 1.8984 10.2916 1.9234 10.2916 1.9234 10.3586 1.8984 10.3926 1.8724 10.4246 1.8204 10.4246 1.8204 10.3926 1.7674 10.4246L1.6654 10.2916C1.6384 10.2916 1.6124 10.3256 1.5854 10.3256 1.5854 10.3926 1.5594 10.4926 1.5594 10.5586L1.4814 10.6596 1.4814 10.7906C1.5074 10.7906 1.5334 10.8246 1.5594 10.8246 1.6314 10.7936 1.7264 10.8486 1.8014 10.8566 1.8084 10.8536 1.8154 10.8516 1.8154 10.8516 1.8294 10.8066 1.8754 10.7206 1.8984 10.6926 1.9504 10.6926 1.9754 10.7236 2.0294 10.7236 2.0814 10.6596 2.1584 10.5586 2.2384 10.5586L2.3694 10.7236C2.3414 10.7586 2.3414 10.7906 2.3414 10.8246 2.3414 10.8246 2.2634 10.8246 2.2894 10.8906 2.2894 10.9246 2.4204 10.9926 2.4464 11.0236 2.4714 10.9926 2.5494 10.8906 2.6024 10.8586L2.6024 10.7236 2.6544 10.7906 2.6544 10.9246C2.7074 10.9246 2.7594 10.9926 2.7594 11.0566 2.7594 10.9926 2.8774 10.7776 2.9004 10.7456 2.9254 10.7436 2.9444 10.7886 2.9724 10.7886L3.0014 10.7606C3.0274 10.7606 3.0554 10.7886 3.0844 10.7886 3.0844 10.7336 3.1094 10.6766 3.1094 10.6496 3.1934 10.6496 3.2504 10.7046 3.3334 10.7046 3.3334 10.6766 3.3614 10.6216 3.3614 10.5666L3.4154 10.5096C3.3614 10.6216 3.6124 10.7606 3.6674 10.8166 3.6124 10.8446 3.5274 10.8436 3.4694 10.8436L3.4154 10.7886C3.3614 10.7886 3.2774 10.7886 3.2214 10.7606L3.1394 10.8436C3.0844 10.8436 3.0554 10.8166 3.0014 10.8166L2.8894 10.8016 2.9414 10.8246 2.9414 11.0236C2.9934 11.0236 3.0704 11.0906 3.0964 11.0906 3.1494 11.0566 3.2264 11.0566 3.2804 11.0566L3.3324 11.1236C3.3054 11.1586 3.2534 11.1906 3.2264 11.2246 3.1744 11.1906 3.1744 11.1906 3.1224 11.2246L3.0704 11.2246C2.9934 11.1906 2.8874 11.1906 2.8104 11.1586L2.7594 11.1586C2.7074 11.1906 2.5244 11.1586 2.4464 11.1586L2.4204 11.1906C2.3694 11.1906 2.2384 11.0566 2.1854 11.0236 2.1854 10.9926 2.2114 10.9576 2.2114 10.9246 2.1854 10.9246 2.1324 10.8906 2.0814 10.8906 2.0544 10.8586 2.0294 10.8246 1.9754 10.8246L1.9754 10.7586C1.9464 10.7766 1.8844 10.8166 1.8224 10.8476L1.8204 10.8556C1.8144 10.8586 1.8084 10.8576 1.8014 10.8566 1.7604 10.8766 1.7184 10.8906 1.6904 10.8906 1.5074 10.9246 1.2474 11.1586 1.0624 11.1586.8804 11.3906.8804 11.5886.8804 11.9226.9864 12.0556 1.0384 12.2896 1.1694 12.4556 1.2474 12.4216 1.5854 12.4216 1.6904 12.4216L1.6904 12.5546C1.7674 12.5546 1.8204 12.5876 1.8984 12.5546 1.9234 12.6226 1.8984 12.7216 1.8984 12.8206 2.0294 12.9876 2.1584 13.0216 2.1584 13.3226L2.1064 13.3876C2.1064 13.7526 2.4464 14.0196 2.6294 14.2506 2.7854 14.2506 2.9414 14.1856 3.0964 14.1856 3.1494 14.0526 3.2534 13.9526 3.3324 13.9176L3.3324 13.7196C3.4884 13.7196 3.6184 13.4886 3.6714 13.3226 3.6434 13.2886 3.5924 13.2546 3.5654 13.2206 3.5654 13.1556 3.5924 13.0546 3.5924 12.9876 3.6184 12.8546 4.1654 12.4556 4.1384 12.4216 4.1384 12.2896 4.1384 12.3236 4.2164 12.2226L4.0354 12.2226C3.9814 12.2896 3.8754 12.2546 3.7964 12.2546 3.7574 12.2046 3.7114 12.1466 3.6524 12.0606 3.6234 12.0166 3.6284 11.9806 3.6004 11.9366 3.5754 11.8936 3.4934 11.8736 3.4594 11.8236 3.4244 11.7716 3.4434 11.7046 3.4294 11.6526 3.4174 11.6006 3.3724 11.5596 3.3464 11.5086 3.2944 11.4056 3.1824 11.3086 3.1824 11.2156 3.2604 11.2156 3.3444 11.4056 3.3964 11.3716L3.5234 11.5656 3.5494 11.7756 3.7404 11.9486 3.8264 12.1576C4.0874 12.1576 4.2674 11.7896 4.5034 11.7896L4.5544 11.6566C4.5544 11.6226 4.5294 11.5886 4.5294 11.5566L4.4234 11.5566 4.3724 11.4906C4.2164 11.4906 4.0084 11.5246 3.9044 11.3236 3.8264 11.3236 3.7994 11.2246 3.7744 11.1586 3.8794 11.0906 4.0084 11.2896 4.0874 11.3906 4.1904 11.3906 4.3454 11.4906 4.4514 11.4226L4.5034 11.4906C4.5294 11.4906 4.6074 11.4226 4.6324 11.3906L4.7374 11.3906C4.7634 11.4226 4.8424 11.5246 4.8924 11.5246 4.8924 11.5886 4.9454 11.6566 4.9724 11.6906 4.9724 11.5886 4.9724 11.4226 4.9454 11.3236 4.9984 11.3906 5.0764 11.5886 5.0494 11.6566 5.0494 11.6566 5.1004 11.7236 5.1284 11.7236 5.1284 11.8236 5.1544 12.0236 5.2584 12.0236 5.2584 12.0896 5.3114 12.1576 5.3634 12.1576 5.3634 12.0896 5.3884 12.0556 5.4154 12.0236 5.3634 12.0896 5.4414 11.9226 5.4414 11.9226L5.3884 11.8576 5.3884 11.5886C5.4154 11.5566 5.4944 11.4906 5.5194 11.4566 5.4944 11.3906 5.4944 11.3906 5.5194 11.3236 5.5454 11.3236 5.5974 11.3566 5.6494 11.3566 5.6494 11.4566 5.7274 11.5566 5.8064 11.5566 5.8064 11.4906 5.7834 11.4806 5.8344 11.4136L5.8994 11.4056zM.5674 10.3506C.8664 10.2496 1.0804 9.6946 1.3474 9.6276L1.4134 9.6276C1.5134 9.6276 1.5804 9.7276 1.7134 9.7276L1.7794 9.7926C1.8454 9.7616 1.8794 9.7616 1.9134 9.6946L2.1454 9.6946C2.3784 9.4616 2.8784 9.5296 2.9754 9.1946L3.1094 9.1946C3.1434 9.1626 3.2454 9.0286 3.3114 9.0286 2.7184 8.9506 2.0834 9.0776 1.5664 9.3706 1.3214 9.5076.8344 9.8496.6014 10.2116L.5724 10.2886.5674 10.3506z"/>
    <path fill="#40B6E0" d="M3.9209 13.8369C3.8929 13.8369 3.8059 13.8079 3.7759 13.8079 3.7759 13.7489 3.8059 13.7199 3.8339 13.6909L3.7759 13.6349 3.7759 13.5759 3.8339 13.5179 3.9489 13.5179C4.0059 13.4599 4.1499 13.2889 4.2369 13.2889 4.2079 13.3169 4.1499 13.3469 4.1219 13.3749L4.1799 13.4339C4.1499 13.4899 4.1499 13.5479 4.1499 13.6059 4.0359 13.7199 3.9789 13.8369 3.9209 13.8369M5.9131 12.4824L5.9021 12.3234 5.7351 12.1574 5.7351 11.9564C5.7041 11.9224 5.6701 11.8894 5.6701 11.8224 5.7351 11.8894 5.8031 11.9224 5.8691 11.9564L5.8691 12.0894 5.9511 12.1574C5.9541 12.2454 5.9311 12.3574 5.9131 12.4824"/>
  </g>
</svg>
