<svg id="Layer_1" data-name="Layer 1" xmlns="http://www.w3.org/2000/svg" width="16" height="16" viewBox="0 0 16 16">
  <title>pointcut</title>
  <g>
    <g id="_Group_" data-name="&lt;Group&gt;" opacity="0.6">
      <circle cx="8" cy="8" r="7" fill="#b99bf8"/>
    </g>
    <path d="M8.71632,10.6232a2.471,2.471,0,0,1-.586-.06424,2.22248,2.22248,0,0,1-.47371-.17047,1.732,1.732,0,0,1-.3724-.24954,2.41414,2.41414,0,0,1-.28752-.30142H6.931q.01643.168.03286.32119.01095.12847.0219.26436t.011.21494v2.31747H6V5.09883h.81051l.14239.73131h.04381a2.36658,2.36658,0,0,1,.28478-.32366,1.65356,1.65356,0,0,1,.36966-.26189,2.14214,2.14214,0,0,1,.47371-.17788,2.59169,2.59169,0,0,1,1.52793.11118,1.895,1.895,0,0,1,.72016.53119,2.50064,2.50064,0,0,1,.46276.87708A4.06868,4.06868,0,0,1,11,7.80172a4.1123,4.1123,0,0,1-.16429,1.223,2.52516,2.52516,0,0,1-.46276.882,1.90759,1.90759,0,0,1-.72016.53613A2.35777,2.35777,0,0,1,8.71632,10.6232ZM8.52464,5.74614a1.92,1.92,0,0,0-.70372.11365,1.06743,1.06743,0,0,0-.4655.34589,1.54284,1.54284,0,0,0-.26287.57813,3.82873,3.82873,0,0,0-.09584.81531v.2026a4.77085,4.77085,0,0,0,.07394.887,1.73913,1.73913,0,0,0,.25191.65225,1.12611,1.12611,0,0,0,.47372.40025,1.77058,1.77058,0,0,0,.73932.13588,1.201,1.201,0,0,0,1.08707-.5386,2.85674,2.85674,0,0,0,.34776-1.54663,2.74389,2.74389,0,0,0-.34776-1.53674A1.23547,1.23547,0,0,0,8.52464,5.74614Z" fill="#231f20" opacity="0.7"/>
  </g>
</svg>
