<!-- Copyright 2000-2021 JetBrains s.r.o. Use of this source code is governed by the Apache 2.0 license that can be found in the LICENSE file. -->
<svg xmlns="http://www.w3.org/2000/svg" width="16" height="16" viewBox="0 0 16 16">
  <g fill="none" fill-rule="evenodd">
    <path fill="#9AA7B0" fill-opacity=".8" d="M14.9290065,9 L9,9 L9,14.9290065 C8.67337544,14.9757911 8.33949768,15 8,15 C4.136,15 1,11.864 1,8 C1,4.136 4.136,1 8,1 C11.864,1 15,4.136 15,8 C15,8.33949768 14.9757911,8.67337544 14.9290065,9 Z M10.1,9 L10.1,8.7 C10.1,8.315 9.785,8 9.4,8 L5.2,8 L5.2,6.6 L6.6,6.6 C6.985,6.6 7.3,6.285 7.3,5.9 L7.3,4.5 L8.7,4.5 C9.47,4.5 10.1,3.87 10.1,3.1 L10.1,2.813 C12.151,3.646 13.6,5.655 13.6,8 C13.6,8.40552482 13.4742141,9 13.4742141,9 L10.1,9 Z M7.3,13.551 C4.535,13.208 2.4,10.856 2.4,8 C2.4,7.566 2.456,7.153 2.547,6.747 L5.9,10.1 L5.9,10.8 C5.9,11.57 6.53,12.2 7.3,12.2 L7.3,13.551 Z"/>
    <polygon fill="#F26522" points="10 15.997 16 15.997 16 9.997 10 9.997"/>
  </g>
</svg>
