<svg id="Layer_1" data-name="Layer 1" xmlns="http://www.w3.org/2000/svg" viewBox="0 0 32 32">
  <title>archive@2x</title>
  <g>
    <g>
      <polygon points="10 0 4 0 4 10 4 30 10 30 10 0" fill="#9aa7b0" opacity="0.7" style="isolation: isolate"/>
      <rect x="20" width="6" height="30" fill="#9aa7b0" opacity="0.7" style="isolation: isolate"/>
    </g>
    <polygon points="14 4 10 4 12 6 16 6 14 4" fill="#40b6e0"/>
    <polygon points="14 0 10 0 12 2 16 2 14 0" fill="#40b6e0"/>
    <polygon points="14 16 10 16 12 18 16 18 14 16" fill="#40b6e0"/>
    <polygon points="14 20 10 20 12 22 16 22 14 20" fill="#40b6e0"/>
    <polygon points="14 24 10 24 12 26 16 26 14 24" fill="#40b6e0"/>
    <polygon points="14 28 10 28 12 30 16 30 14 28" fill="#40b6e0"/>
    <polygon points="14 8 10 8 12 10 16 10 14 8" fill="#40b6e0"/>
    <polygon points="14 12 10 12 12 14 16 14 14 12" fill="#40b6e0"/>
    <polygon points="16 6 20 6 18 8 14 8 16 6" fill="#40b6e0"/>
    <polygon points="16 2 20 2 18 4 14 4 16 2" fill="#40b6e0"/>
    <polygon points="16 18 20 18 18 20 14 20 16 18" fill="#40b6e0"/>
    <polygon points="16 22 20 22 18 24 14 24 16 22" fill="#40b6e0"/>
    <polygon points="16 26 20 26 18 28 14 28 16 26" fill="#40b6e0"/>
    <polygon points="16 10 20 10 18 12 14 12 16 10" fill="#40b6e0"/>
    <polygon points="16 14 20 14 18 16 14 16 16 14" fill="#40b6e0"/>
  </g>
</svg>
