<svg id="Layer_1" data-name="Layer 1" xmlns="http://www.w3.org/2000/svg" width="16" height="16" viewBox="0 0 16 16">
  <title>ppJar</title>
  <g>
    <polygon points="6 1 3 1 3 5 3 15 6 15 6 1" fill="#9aa7b0" opacity="0.8" style="isolation: isolate"/>
    <rect x="10" y="1" width="3" height="14" fill="#9aa7b0" opacity="0.8" style="isolation: isolate"/>
    <g>
      <g opacity="0.9">
        <polygon points="7.6 2 6 2 6.8 3 8.4 3 7.6 2" fill="#40b6e0"/>
      </g>
      <g opacity="0.9">
        <polygon points="7.6 8 6 8 6.8 9 8.4 9 7.6 8" fill="#40b6e0"/>
      </g>
      <g opacity="0.9">
        <polygon points="7.6 10 6 10 6.8 11 8.4 11 7.6 10" fill="#40b6e0"/>
      </g>
      <g opacity="0.9">
        <polygon points="7.6 12 6 12 6.8 13 8.4 13 7.6 12" fill="#40b6e0"/>
      </g>
      <g opacity="0.9">
        <polygon points="7.6 14 6 14 6.8 15 8.4 15 7.6 14" fill="#40b6e0"/>
      </g>
      <g opacity="0.9">
        <polygon points="7.6 4 6 4 6.8 5 8.4 5 7.6 4" fill="#40b6e0"/>
      </g>
      <g opacity="0.9">
        <polygon points="7.6 6 6 6 6.8 7 8.4 7 7.6 6" fill="#40b6e0"/>
      </g>
      <g opacity="0.9">
        <polygon points="8.4 3 10 3 9.2 4 7.6 4 8.4 3" fill="#40b6e0"/>
      </g>
      <g opacity="0.9">
        <polygon points="8.4 1 10 1 9.2 2 7.6 2 8.4 1" fill="#40b6e0"/>
      </g>
      <g opacity="0.9">
        <polygon points="8.4 9 10 9 9.2 10 7.6 10 8.4 9" fill="#40b6e0"/>
      </g>
      <g opacity="0.9">
        <polygon points="8.4 11 10 11 9.2 12 7.6 12 8.4 11" fill="#40b6e0"/>
      </g>
      <g opacity="0.9">
        <polygon points="8.4 13 10 13 9.2 14 7.6 14 8.4 13" fill="#40b6e0"/>
      </g>
      <g opacity="0.9">
        <polygon points="8.4 5 10 5 9.2 6 7.6 6 8.4 5" fill="#40b6e0"/>
      </g>
      <g opacity="0.9">
        <polygon points="8.4 7 10 7 9.2 8 7.6 8 8.4 7" fill="#40b6e0"/>
      </g>
    </g>
  </g>
</svg>
