<svg id="Layer_1" data-name="Layer 1" xmlns="http://www.w3.org/2000/svg" viewBox="0 0 16 16">
  <title>archive</title>
  <g>
    <g>
      <polygon points="5 0 2 0 2 5 2 15 5 15 5 0" fill="#9aa7b0" opacity="0.7" style="isolation: isolate"/>
      <rect x="10" width="3" height="15" fill="#9aa7b0" opacity="0.7" style="isolation: isolate"/>
    </g>
    <polygon points="7 2 5 2 6 3 8 3 7 2" fill="#40b6e0"/>
    <polygon points="7 0 5 0 6 1 8 1 7 0" fill="#40b6e0"/>
    <polygon points="7 8 5 8 6 9 8 9 7 8" fill="#40b6e0"/>
    <polygon points="7 10 5 10 6 11 8 11 7 10" fill="#40b6e0"/>
    <polygon points="7 12 5 12 6 13 8 13 7 12" fill="#40b6e0"/>
    <polygon points="7 14 5 14 6 15 8 15 7 14" fill="#40b6e0"/>
    <polygon points="7 4 5 4 6 5 8 5 7 4" fill="#40b6e0"/>
    <polygon points="7 6 5 6 6 7 8 7 7 6" fill="#40b6e0"/>
    <polygon points="8 3 10 3 9 4 7 4 8 3" fill="#40b6e0"/>
    <polygon points="8 1 10 1 9 2 7 2 8 1" fill="#40b6e0"/>
    <polygon points="8 9 10 9 9 10 7 10 8 9" fill="#40b6e0"/>
    <polygon points="8 11 10 11 9 12 7 12 8 11" fill="#40b6e0"/>
    <polygon points="8 13 10 13 9 14 7 14 8 13" fill="#40b6e0"/>
    <polygon points="8 5 10 5 9 6 7 6 8 5" fill="#40b6e0"/>
    <polygon points="8 7 10 7 9 8 7 8 8 7" fill="#40b6e0"/>
  </g>
</svg>
