<!-- Copyright 2000-2021 JetBrains s.r.o. Use of this source code is governed by the Apache 2.0 license that can be found in the LICENSE file. -->
<svg width="16" height="16" viewBox="0 0 16 16" fill="none" xmlns="http://www.w3.org/2000/svg">
  <g id="ppJdk">
    <g id="Group">
      <path id="Vector" d="M5.80044 12.3737C5.80044 12.3737 5.18901 12.7292 6.23557 12.8495C7.50345 12.9942 8.15145 12.9734 9.54866 12.709C9.54866 12.709 9.916 12.9393 10.429 13.1388C7.29684 14.4812 3.34028 13.0611 5.80044 12.3737Z" fill="#5382A1"/>
      <path id="Vector_2" d="M5.41772 10.6219C5.41772 10.6219 4.73194 11.1295 5.77928 11.2379C7.13367 11.3776 8.20326 11.389 10.0541 11.0326C10.0541 11.0326 10.31 11.2922 10.7126 11.4341C6.92559 12.5415 2.70756 11.5214 5.41772 10.6219Z" fill="#5382A1"/>
      <path id="Vector_3" d="M8.64428 7.65041C9.41604 8.53896 8.4415 9.33854 8.4415 9.33854C8.4415 9.33854 10.4012 8.32691 9.50117 7.06011C8.66062 5.87874 8.01603 5.29176 11.5056 3.26794C11.5056 3.26794 6.02813 4.63596 8.64428 7.65041Z" fill="#E76F00"/>
      <path id="Vector_4" d="M12.7868 13.6694C12.7868 13.6694 13.2393 14.0422 12.2885 14.3306C10.4806 14.8783 4.76371 15.0437 3.17558 14.3524C2.60469 14.1041 3.67527 13.7594 4.01204 13.6871C4.36325 13.6109 4.56395 13.6251 4.56395 13.6251C3.92906 13.1779 0.460293 14.5033 2.80199 14.8829C9.18813 15.9186 14.4433 14.4166 12.7868 13.6694Z" fill="#5382A1"/>
      <path id="Vector_5" d="M6.0945 8.80693C6.0945 8.80693 3.18653 9.49762 5.06471 9.74843C5.85774 9.85461 7.43862 9.83059 8.91117 9.70721C10.1146 9.60569 11.323 9.38985 11.323 9.38985C11.323 9.38985 10.8987 9.57158 10.5917 9.78121C7.63868 10.5578 1.93404 10.1965 3.57633 9.40214C4.96522 8.73077 6.0945 8.80693 6.0945 8.80693Z" fill="#5382A1"/>
      <path id="Vector_6" d="M11.311 11.7228C14.3129 10.1629 12.9249 8.66388 11.9562 8.86583C11.7187 8.91525 11.6128 8.95808 11.6128 8.95808C11.6128 8.95808 11.701 8.81999 11.8693 8.76022C13.7859 8.08643 15.2598 10.7475 11.2507 11.8014C11.2507 11.8014 11.2971 11.7599 11.311 11.7228Z" fill="#5382A1"/>
      <path id="Vector_7" d="M9.50116 0C9.50116 0 11.1636 1.66303 7.92438 4.22031C5.32682 6.27169 7.33205 7.44133 7.9233 8.77769C6.40706 7.40967 5.29435 6.20541 6.04084 5.08458C7.13652 3.43932 10.1719 2.64163 9.50116 0Z" fill="#E76F00"/>
      <path id="Vector_8" d="M6.38942 15.9497C9.27083 16.1342 13.6956 15.8474 13.8003 14.484C13.8003 14.484 13.5989 15.0008 11.419 15.4113C8.95968 15.8741 5.92643 15.8201 4.12738 15.5235C4.12742 15.5234 4.49567 15.8283 6.38942 15.9497Z" fill="#5382A1"/>
    </g>
  </g>
</svg>