<!-- Copyright 2000-2021 JetBrains s.r.o. Use of this source code is governed by the Apache 2.0 license that can be found in the LICENSE file. -->
<svg xmlns="http://www.w3.org/2000/svg" width="16" height="16" viewBox="0 0 16 16">
  <g fill="none" fill-rule="evenodd">
    <path fill="#9AA7B0" fill-opacity=".8" d="M7.9844,4 L6.6964,2.711 C6.3044,2.32 5.5324,2 4.9784,2 L1.0504,2 C1.0234,2 1.0004,2.023 1.0004,2.051 L1.0004,13 L4.2764,13 C4.1034,12.379 4.0004,11.711 4.0004,11 L4.0004,10 L14.0004,10 L14.0004,11 L14.5004,11 C14.6714,11 14.8384,11.018 15.0004,11.051 L15.0004,4 L7.9844,4 Z"/>
    <g fill="#40B6E0" transform="translate(5 11)">
      <path d="M0,0 L8,0 L8,1 C8,3.209139 6.209139,5 4,5 L4,5 C1.790861,5 2.705415e-16,3.209139 0,1 L0,0 Z"/>
      <path d="M5.5,1 L9.5,1 C10.3284271,1 11,1.67157288 11,2.5 C11,3.32842712 10.3284271,4 9.5,4 L5.5,4 C4.67157288,4 4,3.32842712 4,2.5 C4,1.67157288 4.67157288,1 5.5,1 Z M5.5,2 C5.22385763,2 5,2.22385763 5,2.5 C5,2.77614237 5.22385763,3 5.5,3 L9.5,3 C9.77614237,3 10,2.77614237 10,2.5 C10,2.22385763 9.77614237,2 9.5,2 L5.5,2 Z"/>
    </g>
  </g>
</svg>
