<svg id="Layer_1" data-name="Layer 1" xmlns="http://www.w3.org/2000/svg" viewBox="0 0 16 16">
  <title>propertyWriteStatic</title>
  <g>
    <g opacity="0.5">
      <path d="M9.58576,13.5L13.49982,9.5859l1.00049,1.00049A6.99832,6.99832,0,1,0,.99982,8c0,0.017.00244,0.03333,0.00244,0.05023a2.49325,2.49325,0,0,1,1.76758,4.59125,6.96834,6.96834,0,0,0,7.81641,1.859Z" fill="#b99bf8"/>
    </g>
    <g opacity="0.6">
      <path d="M8.71614,10.62311a2.47124,2.47124,0,0,1-.586-0.06424,2.22258,2.22258,0,0,1-.47371-0.17047,1.73206,1.73206,0,0,1-.3724-0.24954,2.41454,2.41454,0,0,1-.28751-0.30142H6.93082q0.01643,0.168.03286,0.32118,0.011,0.12847.02191,0.26436t0.011,0.21495V12.9554H5.99982V5.09873H6.81034L6.95272,5.83H6.99653a2.36588,2.36588,0,0,1,.28478-0.32366A1.65334,1.65334,0,0,1,7.651,5.2445a2.14169,2.14169,0,0,1,.47371-0.17789,2.59175,2.59175,0,0,1,1.52793.11118,1.895,1.895,0,0,1,.72015.53119,2.50059,2.50059,0,0,1,.46276.87708,4.06874,4.06874,0,0,1,.16429,1.21556,4.11232,4.11232,0,0,1-.16429,1.223,2.525,2.525,0,0,1-.46276.882,1.90755,1.90755,0,0,1-.72015.53613A2.35782,2.35782,0,0,1,8.71614,10.62311ZM8.52446,5.746a1.92,1.92,0,0,0-.70372.11365,1.0675,1.0675,0,0,0-.4655.34589,1.54277,1.54277,0,0,0-.26287.57813,3.82831,3.82831,0,0,0-.09584.81531v0.2026a4.7711,4.7711,0,0,0,.07393.887,1.73913,1.73913,0,0,0,.25192.65225,1.12611,1.12611,0,0,0,.47371.40025,1.77059,1.77059,0,0,0,.73932.13589,1.201,1.201,0,0,0,1.08708-.5386,2.85676,2.85676,0,0,0,.34775-1.54663A2.74394,2.74394,0,0,0,9.62249,6.255,1.23548,1.23548,0,0,0,8.52446,5.746Z" fill="#231f20"/>
    </g>
    <circle cx="1.49982" cy="10.49991" r="1.5" fill="#f26522"/>
    <rect x="11.73222" y="11.732" width="3.53542" height="3.53585" transform="translate(-5.59185 13.50068) rotate(-45.00227)" fill="#9aa7b0"/>
  </g>
</svg>
