<svg id="Layer_1" data-name="Layer 1" xmlns="http://www.w3.org/2000/svg" viewBox="0 0 16 16">
  <title>propertyWrite</title>
  <g>
    <g opacity="0.5">
      <path d="M8,1A7,7,0,0,0,1,8c0,0.017.00244,0.03333,0.00244,0.05023A2.49325,2.49325,0,0,1,2.77,12.64147,6.99692,6.99692,0,1,0,8,1Z" fill="#b99bf8"/>
    </g>
    <g opacity="0.6">
      <path d="M8.71632,10.62319a2.47124,2.47124,0,0,1-.586-0.06424,2.22258,2.22258,0,0,1-.47371-0.17047,1.73206,1.73206,0,0,1-.3724-0.24954A2.41451,2.41451,0,0,1,6.9967,9.83751H6.931q0.01643,0.168.03286,0.32118,0.011,0.12847.02191,0.26436t0.011,0.21495v2.31747H6V5.09882H6.81051L6.9529,5.83013H6.99671a2.36588,2.36588,0,0,1,.28478-0.32366,1.65334,1.65334,0,0,1,.36966-0.26189,2.14169,2.14169,0,0,1,.47371-0.17789,2.59175,2.59175,0,0,1,1.52793.11118,1.895,1.895,0,0,1,.72015.53119,2.50059,2.50059,0,0,1,.46276.87708A4.06875,4.06875,0,0,1,11,7.80171a4.11232,4.11232,0,0,1-.16429,1.223,2.525,2.525,0,0,1-.46276.882,1.90755,1.90755,0,0,1-.72015.53613A2.35783,2.35783,0,0,1,8.71632,10.62319ZM8.52464,5.74613a1.92,1.92,0,0,0-.70372.11365,1.0675,1.0675,0,0,0-.4655.34589,1.54277,1.54277,0,0,0-.26287.57813,3.82831,3.82831,0,0,0-.09584.81531v0.2026a4.77109,4.77109,0,0,0,.07393.887,1.73913,1.73913,0,0,0,.25192.65225,1.12611,1.12611,0,0,0,.47371.40025,1.77059,1.77059,0,0,0,.73932.13589,1.201,1.201,0,0,0,1.08708-.5386,2.85676,2.85676,0,0,0,.34775-1.54663,2.74394,2.74394,0,0,0-.34775-1.53674A1.23548,1.23548,0,0,0,8.52464,5.74613Z" fill="#231f20"/>
    </g>
    <circle cx="1.5" cy="10.49999" r="1.5" fill="#f26522"/>
  </g>
</svg>
