<svg id="Layer_1" data-name="Layer 1" xmlns="http://www.w3.org/2000/svg" width="16" height="16" viewBox="0 0 16 16">
  <title>propertyReadStatic</title>
  <g>
    <g opacity="0.6">
      <path d="M9.58579,13.5l3.914-3.914,1.00047,1.00047A7.00035,7.00035,0,1,0,2.38717,12.1703a2.49936,2.49936,0,0,1,1.44236,1.44236,6.956,6.956,0,0,0,6.75674.88781Z" fill="#b99bf8"/>
    </g>
    <path d="M8.71619,10.12324a2.47142,2.47142,0,0,1-.586-.06423,2.22249,2.22249,0,0,1-.47371-.17048A1.73182,1.73182,0,0,1,7.28412,9.639a2.41467,2.41467,0,0,1-.28751-.30141H6.93089q.01644.168.03286.32118.011.12847.02191.26435t.011.21495V12.4555h-.9967V4.599h.8105l.14239.7313h.04381a2.36635,2.36635,0,0,1,.28477-.32365A1.65352,1.65352,0,0,1,7.651,4.74472a2.14156,2.14156,0,0,1,.4737-.17788A2.59171,2.59171,0,0,1,9.65265,4.678a1.895,1.895,0,0,1,.72014.53118,2.50043,2.50043,0,0,1,.46275.87707,4.06858,4.06858,0,0,1,.1643,1.21554,4.11221,4.11221,0,0,1-.1643,1.223,2.52485,2.52485,0,0,1-.46275.882,1.9076,1.9076,0,0,1-.72014.53612A2.3579,2.3579,0,0,1,8.71619,10.12324Zm-.19167-4.877a1.92017,1.92017,0,0,0-.70372.11365,1.06753,1.06753,0,0,0-.46549.34589,1.54278,1.54278,0,0,0-.26286.57812,3.82806,3.82806,0,0,0-.09584.8153V7.3018a4.7708,4.7708,0,0,0,.07393.887,1.7393,1.7393,0,0,0,.25191.65225,1.12609,1.12609,0,0,0,.47371.40023,1.77056,1.77056,0,0,0,.73931.13589,1.201,1.201,0,0,0,1.08706-.5386,2.85672,2.85672,0,0,0,.34775-1.5466A2.74393,2.74393,0,0,0,9.62253,5.7552,1.23546,1.23546,0,0,0,8.52452,5.24625Z" fill="#231f20" opacity="0.7"/>
    <circle cx="1.49998" cy="14.49998" r="1.49998" fill="#46a822"/>
    <rect x="11.73202" y="11.73233" width="3.5358" height="3.53536" transform="translate(13.49923 -5.59182) rotate(44.99773)" fill="#9aa7b0"/>
  </g>
</svg>
