<svg id="Layer_1" data-name="Layer 1" xmlns="http://www.w3.org/2000/svg" viewBox="0 0 32 32">
  <title>propertyWrite@2x</title>
  <g>
    <g opacity="0.5">
      <path d="M16,2A14,14,0,0,0,2,16c0,0.03394.00488,0.06665,0.00488,0.10046A4.98651,4.98651,0,0,1,5.54,25.283,13.99384,13.99384,0,1,0,16,2Z" fill="#b99bf8"/>
    </g>
    <path d="M17.43264,21.24639a4.94248,4.94248,0,0,1-1.172-.12847,4.44525,4.44525,0,0,1-.94743-0.341,3.46416,3.46416,0,0,1-.7448-0.49907,4.82892,4.82892,0,0,1-.575-0.60284H13.862q0.03286,0.336.06572,0.64237,0.02191,0.25695.04381,0.52872t0.0219,0.42984v4.635H12V10.19764h1.621l0.28478,1.46262H13.9934A4.73178,4.73178,0,0,1,14.563,11.013a3.30667,3.30667,0,0,1,.73932-0.52378,4.2834,4.2834,0,0,1,.94743-0.35577,5.18351,5.18351,0,0,1,3.05586.22236,3.7901,3.7901,0,0,1,1.44031,1.06238,5.00121,5.00121,0,0,1,.92552,1.75416A8.13747,8.13747,0,0,1,22,15.60342a8.22462,8.22462,0,0,1-.32859,2.44594,5.05,5.05,0,0,1-.92552,1.764,3.81511,3.81511,0,0,1-1.44031,1.07226A4.71567,4.71567,0,0,1,17.43264,21.24639Zm-0.38335-9.75412a3.84008,3.84008,0,0,0-1.40745.2273,2.135,2.135,0,0,0-.931.69178,3.08555,3.08555,0,0,0-.52574,1.15626,7.6566,7.6566,0,0,0-.19168,1.63063v0.40519a9.54219,9.54219,0,0,0,.14786,1.77393,3.47826,3.47826,0,0,0,.50383,1.3045,2.25221,2.25221,0,0,0,.94743.80049,3.54118,3.54118,0,0,0,1.47864.27177,2.4021,2.4021,0,0,0,2.17415-1.0772,5.71353,5.71353,0,0,0,.69551-3.09325,5.48788,5.48788,0,0,0-.69551-3.07349,2.471,2.471,0,0,0-2.196-1.01792h0Z" fill="#231f20" opacity="0.6" style="isolation: isolate"/>
    <circle cx="3" cy="20.99999" r="3" fill="#f26522"/>
  </g>
</svg>
