<svg xmlns="http://www.w3.org/2000/svg" width="16" height="16" viewBox="0 0 16 16">
  <g fill="none" fill-rule="evenodd">
    <path fill="#B99BF8" fill-opacity=".6" d="M9.5863,13.4999 L13.5003,9.5859 L14.5003,10.5869 C14.8193,9.7859 15.0003,8.9149 15.0003,7.9999 C15.0003,4.1339 11.8653,0.9999 8.0003,0.9999 C4.1343,0.9999 1.0003,4.1339 1.0003,7.9999 C1.0003,9.5639 1.5203,11.0049 2.3873,12.1699 C3.0513,12.4239 3.5763,12.9489 3.8293,13.6119 C4.9953,14.4799 6.4353,14.9999 8.0003,14.9999 C8.9143,14.9999 9.7853,14.8189 10.5863,14.5009 L9.5863,13.4999 Z"/>
    <path fill="#62B543" d="M3.0004,14.4999 C3.0004,15.3279 2.3284,15.9999 1.5004,15.9999 C0.6714,15.9999 0.0004,15.3279 0.0004,14.4999 C0.0004,13.6719 0.6714,12.9999 1.5004,12.9999 C2.3284,12.9999 3.0004,13.6719 3.0004,14.4999"/>
    <polygon fill="#9AA7B0" points="13.5 16 11 13.5 13.5 11 16 13.5"/>
    <path fill="#231F20" fill-opacity=".7" d="M0.9974,2.8021 C0.9974,3.83569336 1.23855513,4.8771 2.5354,4.8771 C3.83224487,4.8771 4,3.4641 4,2.7921 C4,2.1061 3.90228271,0.7461 2.5244,0.7461 C1.14651729,0.7461 0.9974,1.76850664 0.9974,2.8021 Z M1,5 C1.008,5.074 1.00713333,6.074 0.9974,8 L0.0004,8 L0.0004,0.0001 L0.9974,0.0001 L0.9974,0.7461 C1.36693099,0.248766667 1.93993099,0.0001 2.7164,0.0001 C3.88110352,0.0001 5.0004,0.578186035 5.0004,2.8021 C5.0004,5.02601396 3.65454102,5.6231 2.7164,5.6231 C2.09097266,5.6231 1.51883932,5.4154 1,5 Z" transform="translate(6 5)"/>
  </g>
</svg>
