<svg xmlns="http://www.w3.org/2000/svg" width="16" height="16" viewBox="0 0 16 16">
  <g fill="none" fill-rule="evenodd">
    <path fill="#B99BF8" fill-opacity=".6" d="M8.0005,1 C4.1345,1 1.0005,4.134 1.0005,8 C1.0005,8.017 1.0025,8.033 1.0025,8.05 C1.1635,8.018 1.3295,8 1.5005,8 C2.8795,8 4.0005,9.121 4.0005,10.5 C4.0005,11.321 3.5975,12.044 2.9845,12.5 C3.3575,12.777 3.6385,13.162 3.8125,13.6 C4.9805,14.475 6.4275,15 8.0005,15 C11.8655,15 15.0005,11.866 15.0005,8 C15.0005,4.134 11.8655,1 8.0005,1"/>
    <path fill="#62B543" d="M3.0005,14.5 C3.0005,15.328 2.3285,16 1.5005,16 C0.6715,16 0.0005,15.328 0.0005,14.5 C0.0005,13.672 0.6715,13 1.5005,13 C2.3285,13 3.0005,13.672 3.0005,14.5"/>
    <path fill="#F26522" d="M3.0005,10.5 C3.0005,11.328 2.3285,12 1.5005,12 C0.6715,12 0.0005,11.328 0.0005,10.5 C0.0005,9.672 0.6715,9 1.5005,9 C2.3285,9 3.0005,9.672 3.0005,10.5"/>
    <path fill="#231F20" fill-opacity=".7" d="M0.9974,2.8021 C0.9974,3.83569336 1.23855513,4.8771 2.5354,4.8771 C3.83224487,4.8771 4,3.4641 4,2.7921 C4,2.1061 3.90228271,0.7461 2.5244,0.7461 C1.14651729,0.7461 0.9974,1.76850664 0.9974,2.8021 Z M1,5 C1.008,5.074 1.00713333,6.074 0.9974,8 L0.0004,8 L0.0004,0.0001 L0.9974,0.0001 L0.9974,0.7461 C1.36693099,0.248766667 1.93993099,0.0001 2.7164,0.0001 C3.88110352,0.0001 5.0004,0.578186035 5.0004,2.8021 C5.0004,5.02601396 3.65454102,5.6231 2.7164,5.6231 C2.09097266,5.6231 1.51883932,5.4154 1,5 Z" transform="translate(6 5)"/>
  </g>
</svg>
