<svg id="Layer_1" data-name="Layer 1" xmlns="http://www.w3.org/2000/svg" viewBox="0 0 16 16">
  <title>propertyReadStatic</title>
  <g>
    <g opacity="0.5">
      <path d="M9.58594,13.5L13.5,9.58588l1.00049,1.00049A7.00046,7.00046,0,1,0,2.38721,12.17024a2.49939,2.49939,0,0,1,1.44238,1.44238,6.956,6.956,0,0,0,6.75684.88782Z" fill="#b99bf8"/>
    </g>
    <g opacity="0.6">
      <path d="M8.71632,10.62315a2.47124,2.47124,0,0,1-.586-0.06424,2.22258,2.22258,0,0,1-.47371-0.17047,1.73206,1.73206,0,0,1-.3724-0.24954A2.41451,2.41451,0,0,1,6.9967,9.83747H6.931q0.01643,0.168.03286,0.32118,0.011,0.12847.02191,0.26436t0.011,0.21495v2.31747H6V5.09877H6.81051L6.9529,5.83009H6.99671a2.36588,2.36588,0,0,1,.28478-0.32366,1.65334,1.65334,0,0,1,.36966-0.26189,2.14169,2.14169,0,0,1,.47371-0.17789,2.59175,2.59175,0,0,1,1.52793.11118,1.895,1.895,0,0,1,.72015.53119,2.50059,2.50059,0,0,1,.46276.87708A4.06875,4.06875,0,0,1,11,7.80166a4.11232,4.11232,0,0,1-.16429,1.223,2.525,2.525,0,0,1-.46276.882,1.90755,1.90755,0,0,1-.72015.53613A2.35783,2.35783,0,0,1,8.71632,10.62315ZM8.52464,5.74608a1.92,1.92,0,0,0-.70372.11365,1.0675,1.0675,0,0,0-.4655.34589,1.54277,1.54277,0,0,0-.26287.57813,3.82831,3.82831,0,0,0-.09584.81531v0.2026a4.7711,4.7711,0,0,0,.07393.887,1.73913,1.73913,0,0,0,.25192.65225,1.12611,1.12611,0,0,0,.47371.40025A1.77058,1.77058,0,0,0,8.5356,9.877a1.201,1.201,0,0,0,1.08708-.5386,2.85676,2.85676,0,0,0,.34775-1.54663A2.74393,2.74393,0,0,0,9.62267,6.255,1.23548,1.23548,0,0,0,8.52464,5.74608Z" fill="#231f20"/>
    </g>
    <circle cx="1.5" cy="14.49995" r="1.5" fill="#46a822"/>
    <rect x="11.7324" y="11.73204" width="3.53542" height="3.53585" transform="translate(-5.59183 13.50083) rotate(-45.00227)" fill="#9aa7b0"/>
  </g>
</svg>
