<svg id="Layer_1" data-name="Layer 1" xmlns="http://www.w3.org/2000/svg" viewBox="0 0 32 32">
  <title>propertyWriteStatic@2x</title>
  <g>
    <g opacity="0.5">
      <path d="M19.1714,26.9999l7.82813-7.82812,2.001,2.001a13.99664,13.99664,0,1,0-27.001-5.17285c0,0.03394.00488,0.06665,0.00488,0.10046a4.98651,4.98651,0,0,1,3.53516,9.1825,13.93669,13.93669,0,0,0,15.63281,3.718Z" fill="#b99bf8"/>
    </g>
    <path d="M17.43216,21.24629a4.94248,4.94248,0,0,1-1.172-.12847,4.44525,4.44525,0,0,1-.94743-0.341,3.46416,3.46416,0,0,1-.7448-0.49907,4.82892,4.82892,0,0,1-.575-0.60284H13.86151q0.03286,0.336.06572,0.64237,0.02191,0.25695.04381,0.52872T13.993,21.276v4.6349H11.99952V10.19756h1.621l0.28478,1.46262h0.08762a4.73179,4.73179,0,0,1,.56955-0.64731,3.30667,3.30667,0,0,1,.73932-0.52378,4.2834,4.2834,0,0,1,.94743-0.35577,5.18351,5.18351,0,0,1,3.05586.22236,3.7901,3.7901,0,0,1,1.44031,1.06238,5.00121,5.00121,0,0,1,.92552,1.75416,8.13743,8.13743,0,0,1,.32859,2.43112,8.22464,8.22464,0,0,1-.32859,2.44594,5.05,5.05,0,0,1-.92552,1.764,3.81511,3.81511,0,0,1-1.44031,1.07226A4.71567,4.71567,0,0,1,17.43216,21.24629Zm-0.38335-9.75412a3.84008,3.84008,0,0,0-1.40745.2273,2.135,2.135,0,0,0-.931.69178,3.08555,3.08555,0,0,0-.52574,1.15626,7.65659,7.65659,0,0,0-.19168,1.63063v0.40519a9.54219,9.54219,0,0,0,.14786,1.77393,3.47826,3.47826,0,0,0,.50383,1.3045,2.25221,2.25221,0,0,0,.94743.80049,3.54118,3.54118,0,0,0,1.47864.27177,2.4021,2.4021,0,0,0,2.17415-1.0772,5.71353,5.71353,0,0,0,.69551-3.09325,5.48788,5.48788,0,0,0-.69551-3.07349A2.471,2.471,0,0,0,17.04881,11.49217Z" fill="#231f20" opacity="0.6" style="isolation: isolate"/>
    <circle cx="2.99952" cy="20.9999" r="3" fill="#f26522"/>
    <rect x="23.46435" y="23.46409" width="7.07083" height="7.0717" transform="translate(-11.18379 27.00133) rotate(-45.00227)" fill="#9aa7b0"/>
  </g>
</svg>
