<svg id="Layer_1" data-name="Layer 1" xmlns="http://www.w3.org/2000/svg" width="16" height="16" viewBox="0 0 16 16">
  <title>propertyWriteStatic</title>
  <g>
    <g opacity="0.6">
      <path d="M9.58579,13.5l3.914-3.914,1.00047,1.00047A6.99821,6.99821,0,1,0,1,8.00008c0,.017.00244.03332.00244.05023A2.49322,2.49322,0,0,1,2.77,12.64149a6.96827,6.96827,0,0,0,7.81629,1.859Z" fill="#b99bf8"/>
    </g>
    <path d="M8.71619,10.62324a2.47139,2.47139,0,0,1-.586-.06424,2.22248,2.22248,0,0,1-.47371-.17047,1.73219,1.73219,0,0,1-.37239-.24953,2.41474,2.41474,0,0,1-.28751-.30142H6.93089q.01644.168.03286.32118.011.12848.02191.26436t.011.21494v2.31743h-.9967V5.099h.8105l.14239.7313h.04381a2.36516,2.36516,0,0,1,.28477-.32365A1.65356,1.65356,0,0,1,7.651,5.24471a2.14156,2.14156,0,0,1,.4737-.17788A2.59162,2.59162,0,0,1,9.65265,5.178a1.895,1.895,0,0,1,.72014.53118,2.50034,2.50034,0,0,1,.46275.87707,4.06858,4.06858,0,0,1,.1643,1.21554,4.11219,4.11219,0,0,1-.1643,1.22295,2.52476,2.52476,0,0,1-.46275.882,1.9075,1.9075,0,0,1-.72014.53612A2.35773,2.35773,0,0,1,8.71619,10.62324Zm-.19167-4.877a1.92,1.92,0,0,0-.70372.11365,1.06751,1.06751,0,0,0-.46549.34588,1.54286,1.54286,0,0,0-.26286.57812,3.82808,3.82808,0,0,0-.09584.81531V7.8018a4.7708,4.7708,0,0,0,.07393.887,1.73924,1.73924,0,0,0,.25191.65224,1.12612,1.12612,0,0,0,.47371.40024,1.77057,1.77057,0,0,0,.73931.13588,1.201,1.201,0,0,0,1.08706-.53859,2.85676,2.85676,0,0,0,.34775-1.54661,2.74393,2.74393,0,0,0-.34775-1.53672A1.23548,1.23548,0,0,0,8.52452,5.74625Z" fill="#231f20" opacity="0.7"/>
    <circle cx="1.49998" cy="10.50004" r="1.49998" fill="#f26522"/>
    <rect x="11.73202" y="11.73233" width="3.5358" height="3.53536" transform="translate(13.49923 -5.59182) rotate(44.99773)" fill="#9aa7b0"/>
  </g>
</svg>
