<svg id="Layer_1" data-name="Layer 1" xmlns="http://www.w3.org/2000/svg" viewBox="0 0 32 32">
  <title>propertyReadStatic@2x</title>
  <g>
    <g opacity="0.5">
      <path d="M19.17188,26.9999L27,19.17177l2.001,2.001a14.00091,14.00091,0,1,0-24.22659,3.1677,4.99878,4.99878,0,0,1,2.88477,2.88477,13.91209,13.91209,0,0,0,13.51367,1.77563Z" fill="#b99bf8"/>
    </g>
    <path d="M17.43264,20.24629a4.94248,4.94248,0,0,1-1.172-.12847,4.44525,4.44525,0,0,1-.94743-0.341,3.46416,3.46416,0,0,1-.7448-0.49907,4.82892,4.82892,0,0,1-.575-0.60284H13.862q0.03286,0.336.06572,0.64237,0.02191,0.25695.04381,0.52872t0.0219,0.42993v4.6349H12V9.19756h1.621l0.28478,1.46262H13.9934a4.73179,4.73179,0,0,1,.56955-0.64731,3.30668,3.30668,0,0,1,.73935-0.52378,4.2834,4.2834,0,0,1,.94743-0.35577,5.18351,5.18351,0,0,1,3.05586.22236,3.7901,3.7901,0,0,1,1.44031,1.06238,5.00121,5.00121,0,0,1,.92552,1.75416A8.13749,8.13749,0,0,1,22,14.60334a8.22463,8.22463,0,0,1-.32859,2.44594,5.05,5.05,0,0,1-.92552,1.764,3.81511,3.81511,0,0,1-1.44031,1.07226A4.71565,4.71565,0,0,1,17.43264,20.24629Zm-0.38335-9.75412a3.84008,3.84008,0,0,0-1.40745.2273,2.135,2.135,0,0,0-.931.69178,3.08555,3.08555,0,0,0-.52574,1.15626,7.65659,7.65659,0,0,0-.19168,1.63063v0.40519a9.54219,9.54219,0,0,0,.14786,1.77393,3.47826,3.47826,0,0,0,.50383,1.3045,2.25221,2.25221,0,0,0,.94743.80049,3.54118,3.54118,0,0,0,1.47864.27177,2.4021,2.4021,0,0,0,2.17415-1.0772,5.71353,5.71353,0,0,0,.69551-3.09325,5.48788,5.48788,0,0,0-.69551-3.07349A2.471,2.471,0,0,0,17.04929,10.49217Z" fill="#231f20" opacity="0.6" style="isolation: isolate"/>
    <circle cx="3" cy="28.9999" r="3" fill="#46a822"/>
    <rect x="23.46483" y="23.46409" width="7.07083" height="7.0717" transform="translate(-11.18365 27.00167) rotate(-45.00227)" fill="#9aa7b0"/>
  </g>
</svg>
