<svg xmlns="http://www.w3.org/2000/svg" xmlns:xlink="http://www.w3.org/1999/xlink" width="16" height="16" viewBox="0 0 16 16">
  <defs>
    <polygon id="propertywritestatic-a" points="0 0 5 0 5 5 0 5"/>
  </defs>
  <g fill="none" fill-rule="evenodd">
    <path fill="#B99BF8" fill-opacity=".6" d="M9.5863,13.4999 L13.5003,9.5859 L14.5003,10.5869 C14.8193,9.7859 15.0003,8.9149 15.0003,7.9999 C15.0003,4.1339 11.8653,0.9999 8.0003,0.9999 C4.1343,0.9999 1.0003,4.1339 1.0003,7.9999 C1.0003,8.0169 1.0023,8.0329 1.0023,8.0499 C1.1633,8.0179 1.3293,7.9999 1.5003,7.9999 C2.8793,7.9999 4.0003,9.1209 4.0003,10.4999 C4.0003,11.4129 3.5033,12.2049 2.7703,12.6419 C4.0523,14.0849 5.9173,14.9999 8.0003,14.9999 C8.9143,14.9999 9.7853,14.8189 10.5863,14.5009 L9.5863,13.4999 Z"/>
    <path fill="#F26522" d="M3.0004,10.4999 C3.0004,11.3279 2.3284,11.9999 1.5004,11.9999 C0.6714,11.9999 0.0004,11.3279 0.0004,10.4999 C0.0004,9.6719 0.6714,8.9999 1.5004,8.9999 C2.3284,8.9999 3.0004,9.6719 3.0004,10.4999"/>
    <g transform="translate(11 11)">
      <mask id="propertywritestatic-b" fill="#fff">
        <use xlink:href="#propertywritestatic-a"/>
      </mask>
      <polygon fill="#9AA7B0" points="2.5 5 0 2.5 2.5 0 5 2.5" mask="url(#propertywritestatic-b)"/>
    </g>
    <path fill="#231F20" fill-opacity=".7" d="M0.9974,2.8021 C0.9974,3.83569336 1.23855513,4.8771 2.5354,4.8771 C3.83224487,4.8771 4,3.4641 4,2.7921 C4,2.1061 3.90228271,0.7461 2.5244,0.7461 C1.14651729,0.7461 0.9974,1.76850664 0.9974,2.8021 Z M1,5 C1.008,5.074 1.00713333,6.074 0.9974,8 L0.0004,8 L0.0004,0.0001 L0.9974,0.0001 L0.9974,0.7461 C1.36693099,0.248766667 1.93993099,0.0001 2.7164,0.0001 C3.88110352,0.0001 5.0004,0.578186035 5.0004,2.8021 C5.0004,5.02601396 3.65454102,5.6231 2.7164,5.6231 C2.09097266,5.6231 1.51883932,5.4154 1,5 Z" transform="translate(6 5)"/>
  </g>
</svg>
