<svg id="Layer_1" data-name="Layer 1" xmlns="http://www.w3.org/2000/svg" viewBox="0 0 32 32">
  <title>propertyReadWriteStatic@2x</title>
  <g>
    <circle cx="3" cy="28.99981" r="3" fill="#46a822"/>
    <circle cx="3" cy="20.99981" r="3" fill="#f26522"/>
    <g opacity="0.5">
      <path d="M19.17236,26.99991l7.82812-7.82812L29.001,21.17241A13.99658,13.99658,0,1,0,2,15.99991c0,0.034.00488,0.06666,0.00488,0.10046a4.98672,4.98672,0,0,1,3.96484,8.89954A5.03482,5.03482,0,0,1,7.623,27.19815a13.91254,13.91254,0,0,0,13.5503,1.80262Z" fill="#b99bf8"/>
    </g>
    <g opacity="0.6">
      <path d="M17.43264,21.24621a4.94249,4.94249,0,0,1-1.172-.12848,4.44516,4.44516,0,0,1-.94742-0.34094,3.46411,3.46411,0,0,1-.7448-0.49908,4.829,4.829,0,0,1-.575-0.60286H13.862q0.03286,0.336.06572,0.64236,0.022,0.25694.04382,0.52872t0.022,0.4299v4.63494H12V10.19745h1.621l0.28478,1.46264h0.08762a4.73176,4.73176,0,0,1,.56956-0.64732A3.30667,3.30667,0,0,1,15.3023,10.489a4.28338,4.28338,0,0,1,.94742-0.35578,5.1835,5.1835,0,0,1,3.05586.22236,3.79,3.79,0,0,1,1.4403,1.06238,5.00118,5.00118,0,0,1,.92552,1.75416A8.1375,8.1375,0,0,1,22,15.60323a8.22464,8.22464,0,0,1-.32858,2.446,5.05,5.05,0,0,1-.92552,1.764,3.8151,3.8151,0,0,1-1.4403,1.07226A4.71567,4.71567,0,0,1,17.43264,21.24621Zm-0.38336-9.75414a3.84,3.84,0,0,0-1.40744.2273,2.135,2.135,0,0,0-.931.69178,3.08554,3.08554,0,0,0-.52574,1.15626,7.65662,7.65662,0,0,0-.19168,1.63062v0.4052a9.54221,9.54221,0,0,0,.14786,1.774,3.47825,3.47825,0,0,0,.50384,1.3045,2.25222,2.25222,0,0,0,.94742.8005,3.54113,3.54113,0,0,0,1.47866.27168,2.402,2.402,0,0,0,2.17416-1.0772,5.71352,5.71352,0,0,0,.6955-3.09326,5.48787,5.48787,0,0,0-.69552-3.07354A2.471,2.471,0,0,0,17.04928,11.49207Z" fill="#231f20"/>
    </g>
    <rect x="23.46479" y="23.46401" width="7.07084" height="7.0717" transform="translate(-11.1836 27.00162) rotate(-45.00227)" fill="#9aa7b0"/>
  </g>
</svg>
