<!-- Copyright 2000-2021 JetBrains s.r.o. Use of this source code is governed by the Apache 2.0 license that can be found in the LICENSE file. -->
<svg width="16" height="16" viewBox="0 0 16 16" fill="none" xmlns="http://www.w3.org/2000/svg">
<path fill-rule="evenodd" clip-rule="evenodd" d="M15 8C15 11.866 11.866 15 8 15C4.134 15 1 11.866 1 8C1 4.134 4.134 1 8 1C11.866 1 15 4.134 15 8" fill="#40B6E0" fill-opacity="0.6"/>
<path fill-rule="evenodd" clip-rule="evenodd" d="M7 7.99997V5.99997H8.537C9.303 5.99997 10 6.31257 10 6.95357C10 7.59457 9.285 7.99997 8.547 7.99997H7ZM9.36 8.82757C10.175 8.58957 11 8.10944 11 6.91257C11 5.71571 9.94885 4.99957 8.622 4.99957H6V10.9996H7V8.99997H7.5H8.328L9.773 10.9996H11L9.36 8.82757Z" fill="#231F20" fill-opacity="0.7"/>
</svg>
