<svg xmlns="http://www.w3.org/2000/svg" width="16" height="16" viewBox="0 0 16 16">
  <g fill="none" fill-rule="evenodd">
    <path fill="#40B6E0" d="M8.416,5.3135 C8.388,5.2515 8.385,5.3165 8.416,5.3135"/>
    <path fill="#1EB47B" d="M8.416,5.3135 C8.388,5.2515 8.385,5.3165 8.416,5.3135"/>
    <path fill="#9AA7B0" d="M4.575,5.25 C4.165,4.085 3.055,3.25 1.75,3.25 C0.095,3.25 -1.25,4.595 -1.25,6.25 C-1.25,7.905 0.095,9.25 1.75,9.25 C3.055,9.25 4.165,8.415 4.575,7.25 L6.15,7.25 L6.15,9.25 L8.15,9.25 L8.15,7.25 L9.25,7.25 L9.25,5.25 L4.575,5.25 Z M1.75,7.25 C1.2,7.25 0.75,6.8 0.75,6.25 C0.75,5.7 1.2,5.25 1.75,5.25 C2.3,5.25 2.75,5.7 2.75,6.25 C2.75,6.8 2.3,7.25 1.75,7.25 Z" transform="matrix(0 1 1 0 -2.25 2.25)"/>
    <path fill="#40B6E0" d="M11.3541667,9.66666667 C11.0125,8.69583333 10.0875,8 9,8 C7.62083333,8 6.5,9.12083333 6.5,10.5 C6.5,11.8791667 7.62083333,13 9,13 C10.0875,13 11.0125,12.3041667 11.3541667,11.3333333 L13,11.3333333 L13,13 L14.5,13 L14.5,11.3333333 L15.5,11.3333333 L15.5,9.66666667 L11.3541667,9.66666667 Z M9,11.3333333 C8.54166667,11.3333333 8.16666667,10.9583333 8.16666667,10.5 C8.16666667,10.0416667 8.54166667,9.66666667 9,9.66666667 C9.45833333,9.66666667 9.83333333,10.0416667 9.83333333,10.5 C9.83333333,10.9583333 9.45833333,11.3333333 9,11.3333333 Z" transform="matrix(0 1 1 0 .5 -.5)"/>
  </g>
</svg>
