<svg id="Layer_1" data-name="Layer 1" xmlns="http://www.w3.org/2000/svg" width="16" height="16" viewBox="0 0 16 16">
  <title>static</title>
  <g>
    <g id="_Group_" data-name="&lt;Group&gt;" opacity="0.6">
      <circle cx="8" cy="8" r="7" fill="#f4af3d"/>
    </g>
    <path d="M10.3584,8.70117a1.42384,1.42384,0,0,0-.41162-.45068,3.12328,3.12328,0,0,0-.65137-.356q-.38087-.1582-.86694-.31641-.47241-.15308-.78955-.27685a2.90905,2.90905,0,0,1-.50611-.24512.77738.77738,0,0,1-.26635-.2583.64205.64205,0,0,1-.07764-.32178.54933.54933,0,0,1,.33056-.50341,2.25036,2.25036,0,0,1,1.0188-.17676,3.93141,3.93141,0,0,1,.94141.11377c.10474.02539.20337.06152.30615.09033H10V5.28662c-.20532-.06152-.404-.13135-.62354-.17578A6.01238,6.01238,0,0,0,8.17871,5a5.07938,5.07938,0,0,0-1.05249.1001,2.76154,2.76154,0,0,0-.80981.29541,1.50285,1.50285,0,0,0-.523.48242,1.18365,1.18365,0,0,0-.18555.65625,1.21475,1.21475,0,0,0,.145.60889,1.4259,1.4259,0,0,0,.415.45068,3.14484,3.14484,0,0,0,.658.35352q.38781.15819.87378.32177.486.16333.79638.29492a2.56791,2.56791,0,0,1,.489.26124.77557.77557,0,0,1,.24634.26074.6401.6401,0,0,1,.06738.29541.69125.69125,0,0,1-.08765.34521.7025.7025,0,0,1-.28.26367,1.643,1.643,0,0,1-.49927.166,4.05615,4.05615,0,0,1-.7456.05811,4.56752,4.56752,0,0,1-.59717-.03956q-.30029-.03954-.58374-.10253c-.09424-.021-.1792-.04834-.269-.07227H5.5v.90771A12.32553,12.32553,0,0,0,7.68628,11a5.88956,5.88956,0,0,0,1.16724-.10547,2.92374,2.92374,0,0,0,.88745-.31885,1.57416,1.57416,0,0,0,.56323-.52978A1.3735,1.3735,0,0,0,10.5,9.30762,1.22654,1.22654,0,0,0,10.3584,8.70117Z" fill="#231f20" opacity="0.6"/>
  </g>
</svg>
