<svg id="Layer_1" data-name="Layer 1" xmlns="http://www.w3.org/2000/svg" width="32" height="32" viewBox="0 0 32 32">
  <title>static@2x</title>
  <g>
    <g id="_Group_" data-name="&lt;Group&gt;" opacity="0.6">
      <circle cx="16" cy="16" r="14" fill="#f4af3d"/>
    </g>
    <path d="M21,18.61511a2.74867,2.74867,0,0,1-.39136,1.47628,3.14765,3.14765,0,0,1-1.12686,1.05975,5.82806,5.82806,0,0,1-1.77463.638A11.78589,11.78589,0,0,1,15.37247,22a14.8536,14.8536,0,0,1-2.52362-.18453A7.772,7.772,0,0,1,11,21.27241V19.522q.41835.16872.93117.33216t1.07963.29q.56679.12654,1.16734.20563a9.13942,9.13942,0,0,0,1.19433.07908,8.18022,8.18022,0,0,0,1.49123-.116,3.30269,3.30269,0,0,0,.99865-.33216,1.41446,1.41446,0,0,0,.56005-.52724,1.38146,1.38146,0,0,0,.17544-.69069,1.2769,1.2769,0,0,0-.13495-.59051,1.56,1.56,0,0,0-.49258-.522,5.11486,5.11486,0,0,0-.97841-.522q-.62078-.26363-1.59244-.59051t-1.74764-.64324a6.31061,6.31061,0,0,1-1.31579-.7065,2.85516,2.85516,0,0,1-.83-.90158,2.42892,2.42892,0,0,1-.29015-1.21793,2.36666,2.36666,0,0,1,.37112-1.31283,3.00378,3.00378,0,0,1,1.04589-.96485,5.50421,5.50421,0,0,1,1.61943-.59051A10.17422,10.17422,0,0,1,16.35762,10a12.01547,12.01547,0,0,1,2.39542.22144,14.03567,14.03567,0,0,1,2.058.58l-.85021,1.55008q-.87719-.30579-1.80162-.53251a7.87507,7.87507,0,0,0-1.88259-.22671,4.49942,4.49942,0,0,0-2.03778.35325,1.099,1.099,0,0,0-.66127,1.007,1.284,1.284,0,0,0,.15519.64323,1.56011,1.56011,0,0,0,.53307.5167,5.85863,5.85863,0,0,0,1.01214.49033q.63428.2478,1.579.5536.97165.31635,1.73414.63269a6.25538,6.25538,0,0,1,1.3023.71178,2.85206,2.85206,0,0,1,.82321.90158A2.44525,2.44525,0,0,1,21,18.61511Z" fill="#231f20" opacity="0.7"/>
  </g>
</svg>
