<svg id="Layer_1" data-name="Layer 1" xmlns="http://www.w3.org/2000/svg" viewBox="0 0 32 32">
  <title>static@2x</title>
  <g>
    <g id="_Group_" data-name=" Group " opacity="0.6">
      <circle cx="16" cy="15.99999" r="14" fill="#f4af3d"/>
    </g>
    <path d="M21,18.6151a2.74866,2.74866,0,0,1-.39136,1.47627,3.14762,3.14762,0,0,1-1.12686,1.05975,5.82825,5.82825,0,0,1-1.77463.638A11.78615,11.78615,0,0,1,15.37247,22a14.85328,14.85328,0,0,1-2.52362-.18453A7.77149,7.77149,0,0,1,11,21.27239V19.522q0.41835,0.16872.93117,0.33216t1.07962,0.29q0.5668,0.12654,1.16734.20562a9.13876,9.13876,0,0,0,1.19433.07909,8.18024,8.18024,0,0,0,1.49123-.116,3.30248,3.30248,0,0,0,.99865-0.33216,1.41448,1.41448,0,0,0,.56005-0.52724,1.38147,1.38147,0,0,0,.17544-0.69069,1.2769,1.2769,0,0,0-.135-0.59051,1.55993,1.55993,0,0,0-.49258-0.522,5.11511,5.11511,0,0,0-.97841-0.522q-0.62078-.26362-1.59244-0.59051t-1.74764-.64323A6.31053,6.31053,0,0,1,12.336,15.188a2.855,2.855,0,0,1-.83-0.90158,2.42889,2.42889,0,0,1-.29015-1.21793,2.36663,2.36663,0,0,1,.37112-1.31283,3.00366,3.00366,0,0,1,1.04588-.96485,5.504,5.504,0,0,1,1.61943-.59051A10.17439,10.17439,0,0,1,16.35762,10a12.0156,12.0156,0,0,1,2.39541.22144,14.03534,14.03534,0,0,1,2.058.58l-0.8502,1.55009q-0.87719-.3058-1.80162-0.53251a7.875,7.875,0,0,0-1.88259-.22671,4.49946,4.49946,0,0,0-2.03779.35325,1.099,1.099,0,0,0-.66127,1.007,1.284,1.284,0,0,0,.1552.64323,1.56,1.56,0,0,0,.53306.5167,5.85827,5.85827,0,0,0,1.01215.49033q0.63428,0.2478,1.57895.5536,0.97166,0.31634,1.73414.63269a6.25519,6.25519,0,0,1,1.30229.71178,2.852,2.852,0,0,1,.82321.90158A2.44523,2.44523,0,0,1,21,18.6151Z" fill="#231f20" opacity="0.6" style="isolation: isolate"/>
  </g>
</svg>
