<svg xmlns="http://www.w3.org/2000/svg" width="16" height="16" viewBox="0 0 16 16">
  <g fill="none" fill-rule="evenodd">
    <path fill="#F4AF3D" fill-opacity=".6" d="M15,8 C15,11.866 11.866,15 8,15 C4.134,15 1,11.866 1,8 C1,4.134 4.134,1 8,1 C11.866,1 15,4.134 15,8"/>
    <path fill="#231F20" fill-opacity=".7" d="M5.305,5.0456 C5.174,5.2566 4.986,5.4336 4.741,5.5756 C4.496,5.7176 4.2,5.8246 3.854,5.8946 C3.507,5.9646 3.118,5.9996 2.687,5.9996 C2.196,5.9996 1.775,5.9696 1.425,5.9086 C1.073,5.8466 0.766,5.7556 0.5,5.6356 L0.5,4.7606 C0.64,4.8176 0.795,4.8726 0.966,4.9266 C1.137,4.9816 1.316,5.0306 1.506,5.0726 C1.694,5.1146 1.889,5.1486 2.089,5.1746 C2.289,5.2016 2.488,5.2146 2.687,5.2146 C2.979,5.2146 3.228,5.1956 3.432,5.1566 C3.637,5.1186 3.803,5.0626 3.932,4.9906 C4.06,4.9176 4.152,4.8296 4.211,4.7266 C4.27,4.6226 4.299,4.5076 4.299,4.3816 C4.299,4.2726 4.276,4.1736 4.231,4.0856 C4.187,3.9976 4.104,3.9116 3.985,3.8256 C3.866,3.7396 3.703,3.6526 3.496,3.5646 C3.289,3.4766 3.023,3.3776 2.7,3.2686 C2.376,3.1606 2.085,3.0526 1.826,2.9476 C1.567,2.8416 1.348,2.7236 1.168,2.5936 C0.988,2.4636 0.85,2.3136 0.753,2.1436 C0.656,1.9726 0.608,1.7696 0.608,1.5346 C0.608,1.2876 0.67,1.0696 0.794,0.8776 C0.917,0.6866 1.092,0.5256 1.316,0.3956 C1.541,0.2656 1.812,0.1666 2.126,0.1006 C2.441,0.0336 2.792,-0.0004 3.179,-0.0004 C3.615,-0.0004 4.015,0.0366 4.377,0.1106 C4.738,0.1846 5.082,0.2816 5.405,0.4006 L4.98,1.1756 C4.688,1.0746 4.388,0.9856 4.08,0.9096 C3.771,0.8336 3.458,0.7956 3.139,0.7956 C2.68,0.7956 2.34,0.8556 2.119,0.9726 C1.899,1.0906 1.789,1.2586 1.789,1.4766 C1.789,1.5996 1.814,1.7056 1.866,1.7976 C1.918,1.8896 2.007,1.9756 2.133,2.0566 C2.259,2.1366 2.428,2.2186 2.639,2.3016 C2.851,2.3836 3.113,2.4766 3.429,2.5786 C3.752,2.6836 4.041,2.7886 4.296,2.8946 C4.55,2.9996 4.767,3.1186 4.946,3.2496 C5.127,3.3816 5.264,3.5326 5.358,3.7016 C5.453,3.8706 5.5,4.0726 5.5,4.3076 C5.5,4.5886 5.435,4.8346 5.305,5.0456 Z" transform="translate(5 5)"/>
  </g>
</svg>
