<svg id="Layer_1" data-name="Layer 1" xmlns="http://www.w3.org/2000/svg" viewBox="0 0 16 16">
  <title>static</title>
  <g>
    <g id="_Group_" data-name=" Group " opacity="0.6">
      <circle cx="8" cy="7.99999" r="7" fill="#f4af3d"/>
    </g>
    <path d="M10.5,9.30755a1.37434,1.37434,0,0,1-.19568.73814,1.57382,1.57382,0,0,1-.56343.52988,2.91413,2.91413,0,0,1-.88731.319A5.893,5.893,0,0,1,7.68623,11a7.42664,7.42664,0,0,1-1.26181-.09227A3.88571,3.88571,0,0,1,5.5,10.63619V9.761q0.20918,0.08436.46559,0.16608t0.53981,0.145q0.2834,0.06327.58367,0.10281a4.56944,4.56944,0,0,0,.59717.03954,4.09008,4.09008,0,0,0,.74561-0.058,1.65127,1.65127,0,0,0,.49933-0.16608,0.70724,0.70724,0,0,0,.28-0.26362A0.69073,0.69073,0,0,0,9.2989,9.38138a0.63844,0.63844,0,0,0-.06748-0.29525,0.78,0.78,0,0,0-.24629-0.261,2.55756,2.55756,0,0,0-.4892-0.261q-0.31037-.1318-0.7962-0.29525T6.82591,7.94727A3.15527,3.15527,0,0,1,6.168,7.594,1.42748,1.42748,0,0,1,5.753,7.1432a1.21444,1.21444,0,0,1-.14507-0.609,1.18331,1.18331,0,0,1,.18556-0.65641,1.50183,1.50183,0,0,1,.52294-0.48243,2.752,2.752,0,0,1,.80972-0.29525A5.08718,5.08718,0,0,1,8.17881,5a6.00777,6.00777,0,0,1,1.19771.11072,7.01767,7.01767,0,0,1,1.029.29l-0.4251.775q-0.4386-.1529-0.90081-0.26626a3.93752,3.93752,0,0,0-.9413-0.11336,2.24973,2.24973,0,0,0-1.01889.17663,0.54951,0.54951,0,0,0-.33063.50351,0.642,0.642,0,0,0,.0776.32162,0.78,0.78,0,0,0,.26653.25835,2.92915,2.92915,0,0,0,.50607.24517q0.31714,0.1239.78947,0.2768,0.48583,0.15817.86707,0.31634a3.12761,3.12761,0,0,1,.65115.35589,1.426,1.426,0,0,1,.41161.45079A1.22262,1.22262,0,0,1,10.5,9.30755Z" fill="#231f20" opacity="0.6" style="isolation: isolate"/>
  </g>
</svg>
