<!-- Copyright 2000-2021 JetBrains s.r.o. Use of this source code is governed by the Apache 2.0 license that can be found in the LICENSE file. -->
<svg xmlns="http://www.w3.org/2000/svg" xmlns:xlink="http://www.w3.org/1999/xlink" width="16" height="16" viewBox="0 0 16 16">
  <defs>
    <path id="testignored-a" d="M14,7.74984741 C13.2650122,7.32512696 12.500824,7 11.3981018,7.00029147 C9.32839971,7.00083852 7.00029147,8.79821777 7,11.5083313 C6.99988878,12.5424805 7.30434449,13.2650122 7.72906494,14 C7.67330007,14.0013116 7.05608026,14 7,14 C3.134,14 0,10.866 0,7 C0,3.134 3.134,0 7,0 C10.866,0 14,3.134 14,7 C14,7.05608026 14.0013116,7.69408254 14,7.74984741 Z"/>
  </defs>
  <g fill="none" fill-rule="evenodd" transform="translate(1 1)">
    <mask id="testignored-b" fill="#fff">
      <use xlink:href="#testignored-a"/>
    </mask>
    <g mask="url(#testignored-b)">
      <path fill="#F98B9E" fill-opacity=".6" fill-rule="nonzero" d="M7,14 C3.134,14 0,10.866 0,7 C0,3.134 3.134,0 7,0 C10.866,0 14,3.134 14,7 C14,10.866 10.866,14 7,14 Z"/>
      <path fill="#231F20" fill-opacity=".7" d="M1,8 L2,8 L2,6 L3.5,6 L3.5,5 L2,5 C1.99687783,3.02835838 1.99509925,2.02835838 1.99466424,2 C1.98704681,1.50341351 2.13289549,1.0728225 2.43221029,0.972167969 C2.91964141,0.808253079 3.56884985,1.02114795 3.68984985,1.06414795 L3.98519897,0.226043701 C3.90948298,0.198825534 3.4559021,3.41060513e-13 2.81140137,3.41060513e-13 C2.16690063,3.41201026e-13 1.81677246,0.0614013672 1.4818929,0.388793945 C1.16513106,0.698473875 1.01614114,1.22015248 1.00124609,2 C1.00039414,2.04460465 0.999980878,4.95274463 1,5 C1.00000736,5.01819872 0.666674031,5.01819872 0,5 L0,5.972 L1,5.972 L1,8 Z" transform="matrix(1 0 0 -1 5 11)"/>
    </g>
    <path fill="#231F20" fill-opacity=".7" fill-rule="nonzero" d="M2.1542488,5.6072508 C2.5427424,5.8558702 3.0045395,6 3.5,6 C4.8807119,6 6,4.8807119 6,3.5 C6,3.0045395 5.8558702,2.5427424 5.6072508,2.1542488 L2.1542488,5.6072508 Z M1.3927492,4.8457512 L4.8457512,1.3927492 C4.4572576,1.1441298 3.9954605,1 3.5,1 C2.1192881,1 1,2.1192881 1,3.5 C1,3.9954605 1.1441298,4.4572576 1.3927492,4.8457512 Z M3.5,7 C1.5670034,7 0,5.4329966 0,3.5 C0,1.5670034 1.5670034,0 3.5,0 C5.4329966,0 7,1.5670034 7,3.5 C7,5.4329966 5.4329966,7 3.5,7 Z" transform="translate(8 8)"/>
  </g>
</svg>
