<!-- Copyright 2000-2021 JetBrains s.r.o. Use of this source code is governed by the Apache 2.0 license that can be found in the LICENSE file. -->
<svg xmlns="http://www.w3.org/2000/svg" width="16" height="16" viewBox="0 0 16 16">
  <g fill="none" fill-rule="evenodd">
    <path fill="#9AA7B0" fill-opacity=".8" d="M15.0002,7.25732729 C14.0492304,6.4718838 12.8297224,6 11.5,6 C8.46243388,6 6,8.46243388 6,11.5 C6,12.0201209 6.07219743,12.5233792 6.20711735,13.0003 L1.0002,13.0003 L1.0002,2.0513 C1.0002,2.0233 1.0232,2.0003 1.0512,2.0003 L4.9782,2.0003 C5.5322,2.0003 6.3042,2.3203 6.6962,2.7113 L7.9842,4.0003 L15.0002,4.0003 L15.0002,7.25732729 Z"/>
    <path fill="#F98B9E" fill-opacity=".6" d="M16,11.5 C16,13.9852857 13.9852857,16 11.5,16 C9.01471429,16 7,13.9852857 7,11.5 C7,9.01471429 9.01471429,7 11.5,7 C13.9852857,7 16,9.01471429 16,11.5"/>
    <path fill="#231F20" fill-opacity=".7" d="M1.7,5 L2.7,5 L2.7,4 L3.7,4 L3.7,3 L2.7,3 C2.7,1.85106572 2.7,1.26773239 2.7,1.25 C2.7,1.14318848 2.7,1.065092 2.82415771,1 C3.18973105,0.897553194 3.67663739,1.038217 3.76738739,1.065092 L3.98889923,0.141277313 C3.93211224,0.124265959 3.59192657,3.41060513e-13 3.10855103,3.41060513e-13 C2.62517548,3.41148334e-13 2.26257967,0.0383758545 2.01142,0.242996216 C1.77384861,0.436546172 1.71117129,0.762595298 1.7,1.25 C1.69936104,1.27787791 1.69998566,2.97046539 1.7,3 C1.70000552,3.0113742 1.36667219,3.0113742 0.7,3 L0.7,4 L1.7,4 L1.7,5 Z" transform="matrix(1 0 0 -1 9.3 14)"/>
  </g>
</svg>
