<svg id="Layer_1" data-name="Layer 1" xmlns="http://www.w3.org/2000/svg" width="16" height="16" viewBox="0 0 16 16">
  <title>unknownJdk</title>
  <g>
    <g>
      <path d="M15.81734,8.28864a1.90813,1.90813,0,0,0-.52075-.6994,2.34549,2.34549,0,0,0-.8235-.4375A3.64579,3.64579,0,0,0,13.38253,7c-.04443,0-.08789.008-.13232.00927C13.20235,7.0077,13.15914,7,13.10982,7a4.48658,4.48658,0,0,0-1.24341.1756,7.45355,7.45355,0,0,0-1.1394.4256l.47821.97413c.07446-.033.82308-.365,1.14877-.46823a3.352,3.352,0,0,1,.8479-.1415,2.02611,2.02611,0,0,1,.54931.079,1.26909,1.26909,0,0,1,.46216.2619,1.12783,1.12783,0,0,1,.28321.40479,1.3435,1.3435,0,0,1,.09765.52081,1.97822,1.97822,0,0,1-.06836.5506,1.54561,1.54561,0,0,1-.20825.4405,2.28376,2.28376,0,0,1-.36133.40479q-.22119.1994-.53393.44342a4.48233,4.48233,0,0,0-.54029.47918,2.19719,2.19719,0,0,0-.34179.46723,1.72,1.72,0,0,0-.17578.5119,3.49241,3.49241,0,0,0-.04883.6131v.22027h1.1775v-.10718a2.05027,2.05027,0,0,1,.04565-.45832,1.182,1.182,0,0,1,.16919-.38391,2.17239,2.17239,0,0,1,.33863-.3869q.215-.19939.55346-.46728.35157-.27978.61182-.52979a3.013,3.013,0,0,0,.43628-.51782,2.07541,2.07541,0,0,0,.26367-.58038,2.631,2.631,0,0,0,.08785-.7113A2.28588,2.28588,0,0,0,15.81734,8.28864Z" fill="#40b6e0"/>
      <path d="M13.68843,14.52674a.67616.67616,0,0,0-.26366-.14288,1.14207,1.14207,0,0,0-.32227-.04462h-.2727a1.1339,1.1339,0,0,0-.32544.04462.65614.65614,0,0,0-.43629.3988,1.0108,1.0108,0,0,0-.06494.38391.99275.99275,0,0,0,.06494.378.714.714,0,0,0,.17579.25891.69241.69241,0,0,0,.2605.14887A1.06884,1.06884,0,0,0,12.8298,16h.2727a1.07674,1.07674,0,0,0,.32227-.0476.68709.68709,0,0,0,.26366-.14886.708.708,0,0,0,.17579-.25892.98794.98794,0,0,0,.06518-.378,1.00579,1.00579,0,0,0-.06518-.38391A.67961.67961,0,0,0,13.68843,14.52674Z" fill="#40b6e0"/>
    </g>
    <g opacity="0.8">
      <path d="M8.01562,4H7.98438L6.69629,2.71143A2.7997,2.7997,0,0,0,4.979,2H1.05127A.05126.05126,0,0,0,1,2.05127V13H11.32812a4.37465,4.37465,0,0,1,.05372-.64893,2.66874,2.66874,0,0,1,.27734-.80419,3.13888,3.13888,0,0,1,.49609-.68213,5.373,5.373,0,0,1,.65918-.58692c.18067-.1416.3418-.2749.47559-.395a1.3583,1.3583,0,0,0,.20312-.22363.56635.56635,0,0,0,.07325-.15772.98128.98128,0,0,0,.02832-.26953.38592.38592,0,0,0-.02051-.13525.23478.23478,0,0,0-.13965-.104,1.43833,1.43833,0,0,0-.18311-.021,2.40681,2.40681,0,0,0-.59521.08838c-.12109.03857-.2334.08935-.35059.13281-.26953.10938-.56738.24072-.667.28418l-.87793.38574-.45312-.84765L9.38379,7.13135l.916-.43408a8.41827,8.41827,0,0,1,1.293-.48291A5.48106,5.48106,0,0,1,13.11035,6l.1543.0083.02783-.00195A.43041.43041,0,0,1,13.38281,6a4.6653,4.6653,0,0,1,1.38965.19727c.08106.02539.15039.06494.22754.09472V4Z" fill="#9aa7b0"/>
    </g>
  </g>
</svg>
