<svg id="Layer_1" data-name="Layer 1" xmlns="http://www.w3.org/2000/svg" viewBox="0 0 16 16">
  <title>unknownJdk</title>
  <g>
    <path d="M15.81763,8.28869a1.908,1.908,0,0,0-.52075-0.6994,2.3453,2.3453,0,0,0-.82349-0.4375A3.64575,3.64575,0,0,0,13.38281,7c-0.04443,0-.08789.008-0.13232,0.00928C13.20264,7.00774,13.15942,7,13.11011,7a4.487,4.487,0,0,0-1.24341.1756,7.45577,7.45577,0,0,0-1.1394.4256l0.47818,0.97415c0.07446-.033.82308-0.365,1.14877-0.46823a3.35143,3.35143,0,0,1,.8479-0.14148,2.02579,2.02579,0,0,1,.54932.079,1.269,1.269,0,0,1,.46216.2619,1.12768,1.12768,0,0,1,.2832.40479,1.34356,1.34356,0,0,1,.09766.52081,1.97836,1.97836,0,0,1-.06836.5506,1.54567,1.54567,0,0,1-.20825.44049,2.28371,2.28371,0,0,1-.36133.40479q-0.22119.1994-.53394,0.44342a4.48221,4.48221,0,0,0-.54028.47919,2.19733,2.19733,0,0,0-.3418.46722,1.72,1.72,0,0,0-.17578.5119,3.49318,3.49318,0,0,0-.04883.6131v0.22025h1.17749V13.25591a2.05016,2.05016,0,0,1,.04565-0.45831,1.182,1.182,0,0,1,.16919-0.38391,2.1726,2.1726,0,0,1,.33862-0.3869q0.215-.1994.55347-0.46729,0.35156-.27979.61182-0.52979a3.013,3.013,0,0,0,.43628-0.51782,2.07509,2.07509,0,0,0,.26367-0.58038A2.63091,2.63091,0,0,0,16,9.2202,2.286,2.286,0,0,0,15.81763,8.28869Z" fill="#40b6e0"/>
    <path d="M13.68872,14.52678a0.67607,0.67607,0,0,0-.26367-0.14288,1.142,1.142,0,0,0-.32227-0.04462h-0.2727a1.13374,1.13374,0,0,0-.32544.04462,0.65613,0.65613,0,0,0-.43628.3988,1.01064,1.01064,0,0,0-.06494.38391,0.99267,0.99267,0,0,0,.06494.378,0.714,0.714,0,0,0,.17578.25891,0.69257,0.69257,0,0,0,.2605.14886A1.06877,1.06877,0,0,0,12.83008,16h0.27271a1.07661,1.07661,0,0,0,.32227-0.04761,0.68713,0.68713,0,0,0,.26367-0.14886,0.708,0.708,0,0,0,.17578-0.25891,0.98779,0.98779,0,0,0,.06519-0.378,1.00568,1.00568,0,0,0-.06519-0.38391A0.67954,0.67954,0,0,0,13.68872,14.52678Z" fill="#40b6e0"/>
  </g>
  <g opacity="0.7">
    <path d="M8.01538,5H7.98462L6.69629,3.71142A2.79972,2.79972,0,0,0,4.979,3H1.05127A0.05126,0.05126,0,0,0,1,3.05124V14H11.31641V13.14257a4.37106,4.37106,0,0,1,.06543-0.7915,2.67842,2.67842,0,0,1,.27734-0.8042,3.14525,3.14525,0,0,1,.49609-0.68213,5.34656,5.34656,0,0,1,.65918-0.58691c0.18066-.1416.3418-0.2749,0.47559-0.395a1.34612,1.34612,0,0,0,.20313-0.22363,0.56089,0.56089,0,0,0,.07324-0.15771A0.97324,0.97324,0,0,0,13.59473,9.232a0.38638,0.38638,0,0,0-.02051-0.13525,0.23436,0.23436,0,0,0-.13965-0.104,1.45259,1.45259,0,0,0-.18311-0.021,2.40622,2.40622,0,0,0-.59521.08838c-0.12109.03857-.23315,0.08936-0.35083,0.13281-0.26929.10938-.56738,0.24072-0.66675,0.28418l-0.87793.38574-0.45312-.84766L9.38379,7.13134l0.916-.43408a8.40848,8.40848,0,0,1,1.293-.48291A5.48618,5.48618,0,0,1,13.11035,6l0.1543,0.0083,0.02783-.002A0.43689,0.43689,0,0,1,13.38281,6a4.66631,4.66631,0,0,1,1.38965.19727C14.85352,6.22265,14.92261,6.2622,15,6.292V5H8.01538Z" fill="#9aa7b0"/>
  </g>
</svg>
