<svg id="Layer_1" data-name="Layer 1" xmlns="http://www.w3.org/2000/svg" viewBox="0 0 32 32">
  <title>unknownJdk@2x</title>
  <g>
    <path d="M31.63525,16.57738a3.816,3.816,0,0,0-1.0415-1.3988,4.69061,4.69061,0,0,0-1.647-.875A7.29151,7.29151,0,0,0,26.76563,14c-0.08887,0-.17578.016-0.26465,0.01855C26.40527,14.01549,26.31885,14,26.22021,14a8.974,8.974,0,0,0-2.48682.3512,14.91168,14.91168,0,0,0-2.27881.8512L22.411,17.15067c0.14893-.066,1.64617-0.73,2.29754-0.93645a6.70289,6.70289,0,0,1,1.6958-.283,4.0515,4.0515,0,0,1,1.09863.158,2.53794,2.53794,0,0,1,.92432.5238,2.25533,2.25533,0,0,1,.56641.80957,2.6871,2.6871,0,0,1,.19531,1.04163,3.95671,3.95671,0,0,1-.13672,1.1012,3.09135,3.09135,0,0,1-.4165.881,4.56737,4.56737,0,0,1-.72266.80957q-0.44238.3988-1.06787,0.88684a8.96427,8.96427,0,0,0-1.08057.95837,4.39472,4.39472,0,0,0-.68359.93445,3.44,3.44,0,0,0-.35156,1.0238,6.98635,6.98635,0,0,0-.09766,1.2262v0.44054h2.355V26.51183a4.1004,4.1004,0,0,1,.09131-0.91663,2.3639,2.3639,0,0,1,.33838-0.76782,4.34519,4.34519,0,0,1,.67725-0.7738q0.42993-.3988,1.10693-0.93457,0.70313-.55957,1.22363-1.05957a6.026,6.026,0,0,0,.87256-1.03564,4.15015,4.15015,0,0,0,.52734-1.16077A5.2618,5.2618,0,0,0,32,18.44042,4.5719,4.5719,0,0,0,31.63525,16.57738Z" fill="#40b6e0"/>
    <path d="M27.37744,29.05358a1.35215,1.35215,0,0,0-.52734-0.28577,2.28412,2.28412,0,0,0-.64453-0.08923H25.66016a2.26755,2.26755,0,0,0-.65088.08923,1.31226,1.31226,0,0,0-.87256.79761,2.02124,2.02124,0,0,0-.12988.76782,1.98534,1.98534,0,0,0,.12988.756,1.42789,1.42789,0,0,0,.35156.51782,1.38513,1.38513,0,0,0,.521.29773A2.13754,2.13754,0,0,0,25.66016,32h0.54541a2.15334,2.15334,0,0,0,.64453-0.09521,1.37426,1.37426,0,0,0,.52734-0.29773,1.41591,1.41591,0,0,0,.35156-0.51782,1.97558,1.97558,0,0,0,.13037-0.756,2.01136,2.01136,0,0,0-.13037-0.76782A1.35908,1.35908,0,0,0,27.37744,29.05358Z" fill="#40b6e0"/>
  </g>
  <g opacity="0.7">
    <path d="M16.03076,10H15.96924L13.39258,7.42284A5.59944,5.59944,0,0,0,9.958,6H2.10254A0.10253,0.10253,0,0,0,2,6.10251V28H22.63281V26.28515a8.74211,8.74211,0,0,1,.13086-1.583,5.3569,5.3569,0,0,1,.55469-1.6084,6.2905,6.2905,0,0,1,.99219-1.36426,10.69289,10.69289,0,0,1,1.31836-1.17383c0.36133-.2832.68359-0.5498,0.95117-0.79a2.69217,2.69217,0,0,0,.40625-0.44727,1.12173,1.12173,0,0,0,.14648-0.31543,1.94648,1.94648,0,0,0,.05664-0.53906,0.77277,0.77277,0,0,0-.041-0.27051,0.46871,0.46871,0,0,0-.2793-0.208,2.905,2.905,0,0,0-.36621-0.042,4.8124,4.8124,0,0,0-1.19043.17676c-0.24219.07715-.46631,0.17871-0.70166,0.26563-0.53857.21875-1.13477,0.48145-1.3335,0.56836l-1.75586.77148L20.61524,18.0303l-1.84766-3.76762,1.832-.86816a16.817,16.817,0,0,1,2.58594-.96582A10.97236,10.97236,0,0,1,26.2207,12l0.30859,0.0166c0.01855,0,.03711-0.00391.05566-0.00391A0.87373,0.87373,0,0,1,26.76563,12a9.33265,9.33265,0,0,1,2.7793.39453C29.707,12.44529,29.84521,12.5244,30,12.584V10H16.03076Z" fill="#9aa7b0"/>
  </g>
</svg>
