<svg xmlns="http://www.w3.org/2000/svg" xmlns:xlink="http://www.w3.org/1999/xlink" width="16" height="16" viewBox="0 0 16 16">
  <defs>
    <path id="weblistener-a" d="M12,7.93743046 L12,12.0625695 C11.2516738,13.5099376 9.74075487,14.5 8,14.5 C6.25924513,14.5 4.74832618,13.5099376 4,12.0625695 L4,7.93743046 C4.74832618,6.49006244 6.25924513,5.5 8,5.5 C9.74075487,5.5 11.2516738,6.49006244 12,7.93743046 Z M7,13.465 C5.58928571,13.2704115 4.5,11.9360905 4.5,10.3158436 C4.5,10.0696296 4.52857143,9.83532922 4.575,9.605 L6.28571429,11.5072016 L6.28571429,11.904321 C6.28571429,12.3411523 6.60714286,12.6985597 7,12.6985597 L7,13.465 Z M10.625,12.195 C10.5166667,11.8532813 10.2083333,11.6085938 9.83333333,11.6085938 L9.41666667,11.6085938 L9.41666667,10.3429688 C9.41666667,10.1109375 9.22916667,9.92109375 9,9.92109375 L6.5,9.92109375 L6.5,9.07734375 L7.33333333,9.07734375 C7.5625,9.07734375 7.75,8.8875 7.75,8.65546875 L7.75,7.81171875 L8.58333333,7.81171875 C9.04166667,7.81171875 9.41666667,7.43203125 9.41666667,6.96796875 L9.41666667,6.795 C10.6375,7.29703125 11.5,8.5078125 11.5,9.92109375 C11.5,10.7985938 11.1666667,11.5959375 10.625,12.195 Z"/>
  </defs>
  <g fill="none" fill-rule="evenodd">
    <polygon fill="#9AA7B0" points="3 11.814 1 11.814 1 6 3 6"/>
    <polygon fill="#9AA7B0" points="15 11.814 13 11.814 13 6 15 6"/>
    <path fill="#9AA7B0" d="M3,8.998 C3.002,5.143 4.146,2 7.997,2 C11.854,2 12.998,5.143 13,8.998 L14,8.998 C13.998,4.592 13,1 7.997,1 C3.595,1 2.002,4.592 2,8.998 L3,8.998 Z"/>
    <use fill="#9AA7B0" xlink:href="#weblistener-a"/>
  </g>
</svg>
