<svg xmlns="http://www.w3.org/2000/svg" xmlns:xlink="http://www.w3.org/1999/xlink" width="16" height="16" viewBox="0 0 16 16">
  <defs>
    <path id="weblistener-a" d="M12,7.33743046 L12,11.4625695 C11.2516738,12.9099376 9.74075487,13.9 8,13.9 C6.25924513,13.9 4.74832618,12.9099376 4,11.4625695 L4,7.33743046 C4.74832618,5.89006244 6.25924513,4.9 8,4.9 C9.74075487,4.9 11.2516738,5.89006244 12,7.33743046 Z M7,12.865 C5.58928571,12.6704115 4.5,11.3360905 4.5,9.71584362 C4.5,9.46962963 4.52857143,9.23532922 4.575,9.005 L6.28571429,10.9072016 L6.28571429,11.304321 C6.28571429,11.7411523 6.60714286,12.0985597 7,12.0985597 L7,12.865 Z M10.625,11.595 C10.5166667,11.2532813 10.2083333,11.0085938 9.83333333,11.0085938 L9.41666667,11.0085938 L9.41666667,9.74296875 C9.41666667,9.5109375 9.22916667,9.32109375 9,9.32109375 L6.5,9.32109375 L6.5,8.47734375 L7.33333333,8.47734375 C7.5625,8.47734375 7.75,8.2875 7.75,8.05546875 L7.75,7.21171875 L8.58333333,7.21171875 C9.04166667,7.21171875 9.41666667,6.83203125 9.41666667,6.36796875 L9.41666667,6.195 C10.6375,6.69703125 11.5,7.9078125 11.5,9.32109375 C11.5,10.1985938 11.1666667,10.9959375 10.625,11.595 Z"/>
  </defs>
  <g fill="none" fill-rule="evenodd">
    <polygon fill="#9AA7B0" points="3 11.814 1 11.814 1 6 3 6"/>
    <polygon fill="#9AA7B0" points="15 11.814 13 11.814 13 6 15 6"/>
    <path fill="#9AA7B0" d="M3,8.998 C3.002,5.143 4.146,2 7.997,2 C11.854,2 12.998,5.143 13,8.998 L14,8.998 C13.998,4.592 13,1 7.997,1 C3.595,1 2.002,4.592 2,8.998 L3,8.998 Z"/>
    <use fill="#9AA7B0" xlink:href="#weblistener-a"/>
  </g>
</svg>
