<!-- Copyright 2000-2021 JetBrains s.r.o. and contributors. Use of this source code is governed by the Apache 2.0 license that can be found in the LICENSE file. -->
<svg width="16" height="16" viewBox="0 0 16 16" fill="none" xmlns="http://www.w3.org/2000/svg">
<path fill-rule="evenodd" clip-rule="evenodd" d="M5.78002 5.6L4.99536 3.68L4.22002 5.6H5.78002ZM4.5308 2H5.468L8 8H6.68L6.08 6.8H3.92L3.32 8H2L4.5308 2Z" fill="#9AA7B0"/>
<path d="M9 8H11.8543C13.2086 8 14.1 7.45143 14.1 6.35429V6.33714C14.1 5.53143 13.6714 5.12857 12.9771 4.86286C13.4057 4.62286 13.7657 4.24571 13.7657 3.56857V3.55143C13.7657 3.14 13.6286 2.80571 13.3543 2.53143C13.0114 2.18857 12.4714 2 11.7857 2H9V8ZM12.4543 3.79143C12.4543 4.23714 12.0857 4.42571 11.5029 4.42571H10.2857V3.15714H11.5886C12.1457 3.15714 12.4543 3.38 12.4543 3.77429V3.79143ZM12.7886 6.17429V6.19143C12.7886 6.63714 12.4371 6.84286 11.8543 6.84286H10.2857V5.52286H11.8114C12.4886 5.52286 12.7886 5.77143 12.7886 6.17429Z" fill="#9AA7B0"/>
<path fill-rule="evenodd" clip-rule="evenodd" d="M5 12.0012C5 10.2 6.16375 9 7.82 9C9.00299 9 9.4375 9.3732 9.96125 9.9036L9.28337 10.7125C8.84587 10.2817 8.4375 10.2 7.8125 10.2C6.7725 10.2 6.25 11.0855 6.25 11.9844C6.25 12.8833 6.765 13.8 7.8125 13.8C8.48375 13.8 8.81462 13.6721 9.28337 13.2077L10 13.9728C9.43 14.6028 8.99666 15 7.78125 15C6.18625 15 5 13.8024 5 12.0012Z" fill="#9AA7B0"/>
</svg>
