<svg width="16" height="16" viewBox="0 0 16 16" fill="none" xmlns="http://www.w3.org/2000/svg">
  <circle cx="13.5" cy="13.5" r="2.5" fill="#55A76A"/>
  <path
    d="M8.00497 3.80108C10.0763 3.80108 12.2698 4.71813 13.6568 5.75228C13.8441 5.89194 14.0995 5.69949 13.9712 5.50403C13.358 4.56985 12.4456 3.60991 11.6635 3.09202C10.59 2.38111 9.31317 2 8.00497 2C6.6968 2 5.41998 2.38111 4.34645 3.09202C3.56517 3.6094 2.65381 4.56794 2.04061 5.50124C1.91215 5.69675 2.1676 5.88909 2.35489 5.74922C3.73942 4.71517 5.92586 3.80108 8.00497 3.80108Z"
    fill="#E66D17"/>
  <path
    d="M8.00675 12.1989C5.93545 12.1989 3.7419 11.2819 2.35496 10.2477C2.16767 10.1081 1.91223 10.3005 2.04054 10.496C2.65377 11.4301 3.56615 12.3901 4.3482 12.908C5.42176 13.6189 6.69855 14 8.00675 14C8.68966 14 9.36402 13.8961 10.0054 13.6957C10.0018 13.6309 10 13.5657 10 13.5C10 12.8963 10.1529 12.3283 10.422 11.8325C9.63614 12.0613 8.81337 12.1989 8.00675 12.1989Z"
    fill="#E66D17"/>
</svg>
