<svg xmlns="http://www.w3.org/2000/svg" width="13" height="13" viewBox="0 0 13 13">
<defs>
        <radialGradient id="circlet-a" cx="24.019%" cy="-35.847%" r="198.567%" fx="24.019%" fy="-35.847%" gradientTransform="matrix(.49447 0 0 1 .121 0)">
            <stop offset=".511%" stop-color="#D0FF59"/>
            <stop offset="46.923%" stop-color="#4FCFFF"/>
            <stop offset="100%" stop-color="#B166FF"/>
        </radialGradient>
        <radialGradient id="circlet-b" cx="14.15%" cy="-.234%" r="152.832%" fx="14.15%" fy="-.234%" gradientTransform="scale(1 .63867)">
            <stop offset="1.024%" stop-color="#FF6"/>
            <stop offset="47.949%" stop-color="#47F984"/>
            <stop offset="100%" stop-color="#00F7FF"/>
        </radialGradient>
        <radialGradient id="circlet-c" cx="113.659%" cy="-14.116%" r="215.853%" fx="113.659%" fy="-14.116%" gradientTransform="matrix(.72514 0 0 1 .312 0)">
            <stop offset=".748%" stop-color="#5D2FE0"/>
            <stop offset="49.585%" stop-color="#809BFF"/>
            <stop offset="90.474%" stop-color="#21DAFF"/>
        </radialGradient>
    </defs>
    <g id="surface1">
        <path style=" stroke:none;fill-rule:nonzero;fill:url(#circlet-a);" d="M 8.109375 5.746094 C 8.109375 5.742188 8.109375 5.742188 8.109375 5.742188 C 8.6875 5.835938 9.28125 5.886719 9.886719 5.886719 C 10.652344 5.886719 11.398438 5.808594 12.121094 5.65625 C 12.125 5.691406 12.128906 5.722656 12.125 5.757812 C 12.128906 5.609375 12.085938 5.460938 11.992188 5.339844 C 9.796875 2.503906 6.300781 0.769531 2.488281 0.953125 C 2.351562 0.960938 2.226562 1.007812 2.121094 1.085938 C 2.152344 1.066406 2.179688 1.046875 2.210938 1.027344 C 4.691406 1.859375 6.773438 3.546875 8.109375 5.746094 Z M 8.109375 5.746094 "/>
        <path style=" stroke:none;fill-rule:nonzero;fill:url(#circlet-b);" d="M 8.109375 5.746094 C 6.773438 3.546875 4.691406 1.859375 2.210938 1.027344 C 2.074219 1.101562 1.964844 1.21875 1.90625 1.367188 C 1.234375 3 0.933594 4.8125 1.105469 6.691406 C 1.277344 8.570312 1.898438 10.300781 2.855469 11.78125 C 2.949219 11.929688 3.09375 12.027344 3.257812 12.070312 C 5.582031 10.660156 7.335938 8.410156 8.109375 5.746094 Z M 8.109375 5.746094 "/>
        <path style=" stroke:none;fill-rule:nonzero;fill:url(#circlet-c);" d="M 8.109375 5.742188 C 7.339844 8.410156 5.582031 10.65625 3.257812 12.070312 C 3.335938 12.085938 3.417969 12.09375 3.503906 12.082031 C 7.28125 11.578125 10.40625 9.238281 12.054688 6.054688 C 12.117188 5.929688 12.136719 5.789062 12.121094 5.65625 C 11.398438 5.808594 10.652344 5.886719 9.886719 5.886719 C 9.28125 5.886719 8.6875 5.835938 8.109375 5.742188 Z M 8.109375 5.742188 "/>
    </g>
</svg>
