<svg width="13" height="13" viewBox="0 0 13 13" fill="none" xmlns="http://www.w3.org/2000/svg">
<path d="M2.83289 11.8193C1.81911 10.2871 1.20404 8.52953 1.0427 6.70381C0.881362 4.8781 1.1788 3.04118 1.90839 1.35741L1.92759 1.36543C4.19328 2.28891 6.14874 3.83042 7.56729 5.8113C7.00786 8.83874 3.11924 11.6184 2.83289 11.8193ZM3.02317 1.0001L3.01795 1.00033L3.01228 1C2.95541 1 2.89791 1.00657 2.84092 1.0074C4.95025 1.99538 6.76761 3.50546 8.11797 5.39221L11.9113 5.39071C10.8722 4.02778 9.52892 2.9221 7.98687 2.16035C6.44481 1.39859 4.74586 1.00147 3.02317 1.0001V1.0001ZM12 6.07679H8.22498C7.65342 8.74269 4.91792 11.0946 3.74252 12C4.95584 11.8222 6.13139 11.4476 7.22204 10.8911C9.29275 9.8345 10.9674 8.14714 12 6.07679V6.07679Z" fill="#6E6E6E"/>
</svg>
