<svg width="16" height="16" viewBox="0 0 16 16" fill="none" xmlns="http://www.w3.org/2000/svg">
<path fill-rule="evenodd" clip-rule="evenodd" d="M8 1C4.136 1 1 4.136 1 8C1 11.864 4.136 15 8 15C11.864 15 15 11.864 15 8C15 4.136 11.864 1 8 1ZM8 3.1C9.162 3.1 10.1 4.038 10.1 5.2C10.1 6.362 9.162 7.3 8 7.3C6.838 7.3 5.9 6.362 5.9 5.2C5.9 4.038 6.838 3.1 8 3.1V3.1ZM8 13.04C7.1683 13.04 6.34953 12.8342 5.61669 12.4409C4.88386 12.0476 4.25974 11.4791 3.8 10.786C3.821 9.393 6.6 8.63 8 8.63C9.393 8.63 12.179 9.393 12.2 10.786C11.7403 11.4791 11.1161 12.0476 10.3833 12.4409C9.65047 12.8342 8.8317 13.04 8 13.04V13.04Z" fill="#6E6E6E"/>
</svg>
