<svg width="16" height="16" viewBox="0 0 16 16" fill="none" xmlns="http://www.w3.org/2000/svg">
<circle cx="12.5" cy="12.5" r="2.5" fill="#E05555"/>
<path fill-rule="evenodd" clip-rule="evenodd" d="M1 8C1 4.136 4.136 1 8 1C11.864 1 15 4.136 15 8C15 8.63181 14.9162 9.24416 14.759 9.82652C14.1494 9.31089 13.361 9 12.5 9C11.9522 9 11.4338 9.12586 10.9721 9.35024C10.0427 8.87831 8.79467 8.63 8 8.63C6.6 8.63 3.821 9.393 3.8 10.786C4.25974 11.4791 4.88386 12.0476 5.61669 12.4409C6.34953 12.8342 7.1683 13.04 8 13.04C8.34622 13.04 8.69021 13.0043 9.02668 12.9343C9.11218 13.6251 9.39896 14.2535 9.82652 14.759C9.24416 14.9162 8.63181 15 8 15C4.136 15 1 11.864 1 8ZM10.1 5.2C10.1 4.038 9.162 3.1 8 3.1C6.838 3.1 5.9 4.038 5.9 5.2C5.9 6.362 6.838 7.3 8 7.3C9.162 7.3 10.1 6.362 10.1 5.2Z" fill="#AFB1B3"/>
</svg>
