<svg width="16" height="16" viewBox="0 0 16 16" fill="none" xmlns="http://www.w3.org/2000/svg">
<path fill-rule="evenodd" clip-rule="evenodd" d="M12.5 9C12.7761 9 13 9.22386 13 9.5V12H15.5C15.7761 12 16 12.2239 16 12.5C16 12.7761 15.7761 13 15.5 13H13V15.5C13 15.7761 12.7761 16 12.5 16C12.2239 16 12 15.7761 12 15.5V13H9.5C9.22386 13 9 12.7761 9 12.5C9 12.2239 9.22386 12 9.5 12H12V9.5C12 9.22386 12.2239 9 12.5 9Z" fill="#3574F0"/>
<path d="M8.00497 3.80108C10.0763 3.80108 12.2698 4.71813 13.6568 5.75228C13.8441 5.89194 14.0995 5.69949 13.9712 5.50403C13.358 4.56985 12.4456 3.60991 11.6635 3.09202C10.59 2.38111 9.31317 2 8.00497 2C6.6968 2 5.41998 2.38111 4.34645 3.09202C3.56517 3.6094 2.65381 4.56794 2.04061 5.50124C1.91215 5.69675 2.1676 5.88909 2.35489 5.74922C3.73942 4.71517 5.92586 3.80108 8.00497 3.80108Z" fill="#6C707E"/>
<path d="M8.00675 12.1989C5.93545 12.1989 3.7419 11.2819 2.35496 10.2477C2.16767 10.1081 1.91223 10.3005 2.04054 10.496C2.65377 11.4301 3.56615 12.3901 4.3482 12.908C5.42176 13.6189 6.69855 14 8.00675 14C8.34884 14 8.68878 13.9739 9.0235 13.9227C8.42866 13.7236 8 13.1619 8 12.5C8 12.3969 8.01041 12.2962 8.03024 12.1989C8.02241 12.1989 8.01458 12.1989 8.00675 12.1989Z" fill="#6C707E"/>
</svg>
