<!-- Copyright 2000-2025 JetBrains s.r.o. and contributors. Use of this source code is governed by the Apache 2.0 license. -->
<svg width="16" height="16" viewBox="0 0 16 16" fill="none" xmlns="http://www.w3.org/2000/svg">
<path d="M15.7673 10.5015C14.8426 9.81209 13.3803 9.20072 11.9994 9.20072C10.6133 9.20072 9.15571 9.81011 8.23268 10.4995C8.10783 10.5927 7.93753 10.4645 8.02316 10.3342C8.43197 9.71196 9.03954 9.07293 9.56039 8.72801C10.2761 8.25407 11.1273 8 11.9994 8C12.8715 8 13.7227 8.25407 14.4384 8.72801C14.9598 9.07327 15.5681 9.71324 15.9769 10.336C16.0624 10.4663 15.8921 10.5946 15.7673 10.5015Z" fill="#C77D55"/>
<path d="M8.23274 13.4985C9.15736 14.1879 10.6197 14.7993 12.0006 14.7993C13.3867 14.7993 14.8443 14.1899 15.7673 13.5005C15.8922 13.4073 16.0625 13.5355 15.9768 13.6658C15.568 14.288 14.9605 14.9271 14.4396 15.272C13.7239 15.7459 12.8727 16 12.0006 16C11.1285 16 10.2773 15.7459 9.56156 15.272C9.0402 14.9267 8.43194 14.2868 8.02312 13.664C7.93758 13.5337 8.10787 13.4054 8.23274 13.4985Z" fill="#C77D55"/>
<path d="M13 2C14.1046 2 15 2.89543 15 4V7.90137L14.9902 7.89453C14.6785 7.6881 14.346 7.5173 14 7.38086V4C14 3.44772 13.5523 3 13 3H3C2.44772 3 2 3.44772 2 4V12C2 12.5523 2.44772 13 3 13H7V14H3C1.89543 14 1 13.1046 1 12V4C1 2.89543 1.89543 2 3 2H13Z" fill="#CED0D6"/>
<path d="M4.12598 5.16699C4.32124 4.97173 4.63872 4.97173 4.83398 5.16699L7.16699 7.5L4.83398 9.83301C4.63872 10.0283 4.32124 10.0283 4.12598 9.83301C3.93117 9.63772 3.9309 9.32109 4.12598 9.12598L5.75293 7.5L4.12598 5.87402C3.9309 5.67891 3.93117 5.36228 4.12598 5.16699Z" fill="#CED0D6"/>
</svg>
