<svg width="20" height="20" viewBox="0 0 20 20" fill="none" xmlns="http://www.w3.org/2000/svg">
  <g clip-path="url(#clip0_7228_52287)">
    <path
      d="M16.6222 6.94411C14.9308 5.55929 12.1785 4.40184 9.50284 4.40184C6.81775 4.40184 4.07341 5.55717 2.3858 6.9403C2.19532 7.09641 1.90988 6.89839 2.03431 6.68562C2.76382 5.43824 3.90035 4.1836 4.92981 3.45627C6.27171 2.50821 7.86764 2 9.50284 2C11.138 2 12.734 2.50821 14.0758 3.45627C15.1064 4.18433 16.2441 5.44078 16.9736 6.68941C17.0978 6.9021 16.8127 7.10003 16.6222 6.94411Z"
      fill="#CED0D6"/>
    <path
      d="M2.38559 13.0559C4.07702 14.4407 6.82934 15.5982 9.50497 15.5982C12.1901 15.5982 14.9344 14.4428 16.622 13.0597C16.8125 12.9036 17.0979 13.1016 16.9735 13.3144C16.244 14.5618 15.1075 15.8164 14.078 16.5437C12.7361 17.4918 11.1402 18 9.50497 18C7.86982 18 6.27384 17.4918 4.93198 16.5437C3.90146 15.8157 2.76367 14.5592 2.03426 13.3106C1.91 13.0979 2.19515 12.9 2.38559 13.0559Z"
      fill="#CED0D6"/>
  </g>
  <defs>
    <clipPath id="clip0_7228_52287">
      <rect width="20" height="20" fill="white"/>
    </clipPath>
  </defs>
</svg>
