<svg width="16" height="16" viewBox="0 0 16 16" fill="none" xmlns="http://www.w3.org/2000/svg">
<path fill-rule="evenodd" clip-rule="evenodd" d="M6 7V9C6 9.55228 6.44772 10 7 10H9C9.55228 10 10 9.55228 10 9V7C10 6.44772 9.55228 6 9 6H7C6.44772 6 6 6.44772 6 7ZM7 9V7H9V9H7Z" fill="#6C707E"/>
<path fill-rule="evenodd" clip-rule="evenodd" d="M6.5 1C6.77614 1 7 1.22386 7 1.5V3H9V1.5C9 1.22386 9.22386 1 9.5 1C9.77614 1 10 1.22386 10 1.5V3H11C12.1046 3 13 3.89543 13 5V6H14.5C14.7761 6 15 6.22386 15 6.5C15 6.77614 14.7761 7 14.5 7H13V9H14.5C14.7761 9 15 9.22386 15 9.5C15 9.77614 14.7761 10 14.5 10H13V11C13 12.1046 12.1046 13 11 13H10V14.5C10 14.7761 9.77614 15 9.5 15C9.22386 15 9 14.7761 9 14.5V13H7V14.5C7 14.7761 6.77614 15 6.5 15C6.22386 15 6 14.7761 6 14.5V13H5C3.89543 13 3 12.1046 3 11V10H1.5C1.22386 10 1 9.77614 1 9.5C1 9.22386 1.22386 9 1.5 9H3V7H1.5C1.22386 7 1 6.77614 1 6.5C1 6.22386 1.22386 6 1.5 6H3V5C3 3.89543 3.89543 3 5 3H6V1.5C6 1.22386 6.22386 1 6.5 1ZM4 5V11C4 11.5523 4.44772 12 5 12H11C11.5523 12 12 11.5523 12 11V5C12 4.44772 11.5523 4 11 4H5C4.44772 4 4 4.44772 4 5Z" fill="#6C707E"/>
</svg>
