<svg width="16" height="16" viewBox="0 0 16 16" fill="none" xmlns="http://www.w3.org/2000/svg">
<path fill-rule="evenodd" clip-rule="evenodd" d="M2 5C2 5.55228 2.44772 6 3 6L7 6L7 10.2929L5.85355 9.14645C5.65829 8.95118 5.34171 8.95118 5.14645 9.14645C4.95118 9.34171 4.95118 9.65829 5.14645 9.85355L7.14645 11.8536C7.24021 11.9473 7.36739 12 7.5 12C7.63261 12 7.75979 11.9473 7.85355 11.8536L9.85355 9.85355C10.0488 9.65829 10.0488 9.34171 9.85355 9.14645C9.65829 8.95118 9.34171 8.95118 9.14645 9.14645L8 10.2929L8 6L12 6C12.5523 6 13 5.55228 13 5V2C13 1.44772 12.5523 1 12 1H3C2.44771 1 2 1.44772 2 2V5ZM3 2L3 5L12 5V2L3 2Z" fill="#CED0D6"/>
<path d="M2.5 13.9999C2.22386 13.9999 2 14.2238 2 14.4999C2 14.7761 2.22386 14.9999 2.5 14.9999L12.5 14.9999C12.7761 14.9999 13 14.7761 13 14.4999C13 14.2238 12.7761 13.9999 12.5 13.9999L2.5 13.9999Z" fill="#CED0D6"/>
</svg>
