<svg width="16" height="16" viewBox="0 0 16 16" fill="none" xmlns="http://www.w3.org/2000/svg">
<path d="M12.5 2C12.7761 2 13 1.77614 13 1.5C13 1.22386 12.7761 1 12.5 1H2.5C2.22386 1 2 1.22386 2 1.5C2 1.77614 2.22386 2 2.5 2L12.5 2Z" fill="#6C707E"/>
<path fill-rule="evenodd" clip-rule="evenodd" d="M8 9.99996L12 9.99992C12.5523 9.99992 13 10.4476 13 10.9999V13.9999C13 14.5522 12.5523 14.9999 12 14.9999L3 14.9999C2.44771 14.9999 2 14.5522 2 13.9999V10.9999C2 10.4476 2.44771 10 3 10L7 9.99997V5.70711L5.85355 6.85355C5.65829 7.04882 5.34171 7.04882 5.14645 6.85355C4.95118 6.65829 4.95118 6.34171 5.14645 6.14645L7.14645 4.14645C7.34171 3.95118 7.65829 3.95118 7.85355 4.14645L9.85355 6.14645C10.0488 6.34171 10.0488 6.65829 9.85355 6.85355C9.65829 7.04882 9.34171 7.04882 9.14645 6.85355L8 5.70711V9.99996ZM12 13.9999L12 10.9999H3L3 13.9999H12Z" fill="#6C707E"/>
</svg>
