<svg width="16" height="16" viewBox="0 0 16 16" fill="none" xmlns="http://www.w3.org/2000/svg">
<path d="M2.5 1C2.22386 1 2 1.22386 2 1.5C2 1.77614 2.22386 2 2.5 2L6.99999 2V5.29289L5.85355 4.14645C5.65829 3.95118 5.34171 3.95118 5.14645 4.14645C4.95118 4.34171 4.95118 4.65829 5.14645 4.85355L7.14644 6.85355C7.24021 6.94732 7.36738 7 7.49999 7C7.6326 7 7.75978 6.94732 7.85355 6.85355L9.85355 4.85355C10.0488 4.65829 10.0488 4.34171 9.85355 4.14645C9.65829 3.95118 9.34171 3.95118 9.14645 4.14645L7.99999 5.2929V2L12.5 2C12.7761 2 13 1.77614 13 1.5C13 1.22386 12.7761 1 12.5 1H2.5Z" fill="#CED0D6"/>
<path d="M12.5 15C12.7761 15 13 14.7761 13 14.5C13 14.2239 12.7761 14 12.5 14L8 14L8 10.7071L9.14645 11.8536C9.34171 12.0488 9.65829 12.0488 9.85355 11.8536C10.0488 11.6583 10.0488 11.3417 9.85355 11.1464L7.85355 9.14645C7.75979 9.05268 7.63261 9 7.5 9C7.36739 9 7.24022 9.05268 7.14645 9.14645L5.14645 11.1464C4.95118 11.3417 4.95118 11.6583 5.14645 11.8536C5.34171 12.0488 5.65829 12.0488 5.85355 11.8536L7 10.7071L7 14L2.5 14C2.22386 14 2 14.2239 2 14.5C2 14.7761 2.22386 15 2.5 15L12.5 15Z" fill="#CED0D6"/>
</svg>
