<svg width="16" height="16" viewBox="0 0 16 16" fill="none" xmlns="http://www.w3.org/2000/svg">
<rect x="9.5" y="9.5" width="6" height="6" rx="1.5" fill="#EBECF0" stroke="#6C707E"/>
<path d="M14 1.5C14 1.22386 13.7761 1 13.5 1C13.2239 1 13 1.22386 13 1.5V4.68235C11.9256 3.06631 10.0877 2 8 2C4.68629 2 2 4.68629 2 8C2 11.3137 4.68629 14 8 14V13C5.23858 13 3 10.7614 3 8C3 5.23858 5.23858 3 8 3C9.63527 3 11.0878 3.78495 12.0005 5H9.5C9.22386 5 9 5.22386 9 5.5C9 5.77614 9.22386 6 9.5 6H14V1.5Z" fill="#6C707E"/>
</svg>
