<svg width="16" height="16" viewBox="0 0 16 16" fill="none" xmlns="http://www.w3.org/2000/svg">
<path fill-rule="evenodd" clip-rule="evenodd" d="M13.2679 7H11.5C10.6716 7 10 7.67157 10 8.5C10 9.15311 10.4174 9.70873 11 9.91465V10.3094L4.5 14.0622C3.83333 14.4471 3 13.966 3 13.1962V2.80386C3 2.03406 3.83333 1.55293 4.5 1.93783L13.2679 7Z" fill="#253627"/>
<path fill-rule="evenodd" clip-rule="evenodd" d="M14.1206 7C14.0179 6.88575 13.8944 6.78434 13.75 6.70099L4.75 1.50484C3.75 0.927486 2.5 1.64917 2.5 2.80387V13.1962C2.5 14.3509 3.75 15.0726 4.75 14.4952L11 10.8868V9.91465C10.9376 9.89258 10.8771 9.86651 10.8187 9.83673L4.25 13.6292C3.91667 13.8216 3.5 13.5811 3.5 13.1962L3.5 2.80387C3.5 2.41897 3.91667 2.17841 4.25 2.37086L12.2679 7H14.1206Z" fill="#57965C"/>
<rect x="14" y="15" width="2" height="1" rx="0.5" fill="#CED0D6"/>
<rect x="11" y="15" width="2" height="1" rx="0.5" fill="#CED0D6"/>
<rect x="14" y="8" width="2" height="1" rx="0.5" fill="#CED0D6"/>
<rect x="11" y="8" width="2" height="1" rx="0.5" fill="#CED0D6"/>
<path fill-rule="evenodd" clip-rule="evenodd" d="M13 9.5C13 9.22386 13.2239 9 13.5 9C13.7761 9 14 9.22386 14 9.5V14.5C14 14.7761 13.7761 15 13.5 15C13.2239 15 13 14.7761 13 14.5V9.5Z" fill="#CED0D6"/>
</svg>
