<svg width="16" height="16" viewBox="0 0 16 16" fill="none" xmlns="http://www.w3.org/2000/svg">
<path fill-rule="evenodd" clip-rule="evenodd" d="M12.5 9C12.7761 9 13 9.22386 13 9.5V12H15.5C15.7761 12 16 12.2239 16 12.5C16 12.7761 15.7761 13 15.5 13H13V15.5C13 15.7761 12.7761 16 12.5 16C12.2239 16 12 15.7761 12 15.5V13H9.5C9.22386 13 9 12.7761 9 12.5C9 12.2239 9.22386 12 9.5 12H12V9.5C12 9.22386 12.2239 9 12.5 9Z" fill="#CED0D6"/>
<path d="M14 8.00004C14 7.66324 13.8333 7.32644 13.5 7.13399L4.5 1.93783C3.83333 1.55293 3 2.03406 3 2.80386V13.1962C3 13.966 3.83333 14.4471 4.5 14.0622L8.02454 12.0273C8.26081 9.76422 10.1744 8.00006 12.5 8.00006L14 8.00004Z" fill="#253627"/>
<path d="M14.5 8.00003C14.5 7.49485 14.25 6.98967 13.75 6.70099L4.75 1.50484C3.75 0.927486 2.5 1.64917 2.5 2.80387V13.1962C2.5 14.3509 3.75 15.0726 4.75 14.4952L8.00151 12.618C8.00051 12.5788 8 12.5395 8 12.5001C8 12.1146 8.04845 11.7406 8.1396 11.3835L4.25 13.6292C3.91667 13.8216 3.5 13.5811 3.5 13.1962L3.5 2.80387C3.5 2.41897 3.91667 2.17841 4.25 2.37086L13.25 7.56701C13.4167 7.66324 13.5 7.83165 13.5 8.00005L14.5 8.00003Z" fill="#57965C"/>
</svg>
