<svg width="16" height="16" viewBox="0 0 16 16" fill="none" xmlns="http://www.w3.org/2000/svg">
<path d="M7.9167 1.00011C7.33942 1.00277 6.78812 1.05146 6.30304 1.13636C4.87405 1.38606 4.6146 1.90869 4.6146 2.87252V4.14544H7.99148V4.56975H4.6146H3.34729C2.36587 4.56975 1.50652 5.15319 1.23772 6.26309C0.927672 7.53529 0.91392 8.32916 1.23772 9.65754C1.47776 10.6463 2.05101 11.3509 3.03243 11.3509H4.19348V9.82493C4.19348 8.72252 5.15785 7.75011 6.30304 7.75011H9.67598C10.6149 7.75011 11.3644 6.98549 11.3644 6.05288V2.87252C11.3644 1.96737 10.5924 1.28743 9.67598 1.13636C9.09589 1.04085 8.49398 0.997461 7.9167 1.00011ZM6.09051 2.0239C6.43932 2.0239 6.72417 2.31024 6.72417 2.66231C6.72417 3.01313 6.43932 3.29682 6.09051 3.29682C5.74045 3.29682 5.45685 3.01313 5.45685 2.66231C5.45685 2.31024 5.74045 2.0239 6.09051 2.0239Z" fill="url(#paint0_linear_9985_15323)"/>
<path d="M11.7852 6.05283V4.5697H13.0525C14.0352 4.5697 14.4984 5.29672 14.741 6.26304C15.0785 7.60516 15.0935 8.61127 14.741 9.6575C14.6808 9.83676 14.6198 10.0055 14.5548 10.1618C14.222 10.0567 13.8676 10 13.5 10C12.3772 10 11.3778 10.5287 10.7374 11.3508H7.99114V11.7751H10.4538C10.2982 12.0493 10.1786 12.3466 10.1013 12.6605C10.0347 12.6367 9.96296 12.6238 9.88817 12.6238C9.53936 12.6238 9.25451 12.9075 9.25451 13.2583C9.25451 13.6103 9.53936 13.8967 9.88817 13.8967C9.93362 13.8967 9.97795 13.8919 10.0207 13.8827C10.0465 14.1205 10.0962 14.3512 10.1673 14.5723C10.008 14.6405 9.84205 14.6976 9.67564 14.7453C8.39667 15.1124 7.37163 15.0562 6.3027 14.7453C5.41005 14.4856 4.61426 13.9532 4.61426 13.0481V9.86771C4.61426 8.95257 5.37879 8.17048 6.3027 8.17048H9.67564C10.7996 8.17048 11.7852 7.20268 11.7852 6.05283Z" fill="url(#paint1_linear_9985_15323)"/>
<circle cx="13.5" cy="13.5" r="2.5" fill="#55A76A"/>
<defs>
<linearGradient id="paint0_linear_9985_15323" x1="1" y1="1" x2="8.71457" y2="7.64655" gradientUnits="userSpaceOnUse">
<stop stop-color="#5A9FD4"/>
<stop offset="1" stop-color="#306998"/>
</linearGradient>
<linearGradient id="paint1_linear_9985_15323" x1="9.80702" y1="13.1513" x2="7.05399" y2="9.2508" gradientUnits="userSpaceOnUse">
<stop stop-color="#F4C20E"/>
<stop offset="1" stop-color="#FBDC3E"/>
</linearGradient>
</defs>
</svg>
