<svg width="16" height="16" viewBox="0 0 16 16" fill="none" xmlns="http://www.w3.org/2000/svg">
<path d="M7.85355 1.14645C7.75979 1.05268 7.63261 1 7.5 1C7.36739 1 7.24021 1.05268 7.14645 1.14645L5.14645 3.14645C4.95118 3.34171 4.95118 3.65829 5.14645 3.85355C5.34171 4.04882 5.65829 4.04882 5.85355 3.85355L7 2.70711L7 6H2.5C2.22386 6 2 6.22386 2 6.5C2 6.77614 2.22386 7 2.5 7L12.5 7C12.7761 7 13 6.77614 13 6.5C13 6.22386 12.7761 6 12.5 6L8 6L8 2.70711L9.14645 3.85355C9.34171 4.04882 9.65829 4.04882 9.85355 3.85355C10.0488 3.65829 10.0488 3.34171 9.85355 3.14645L7.85355 1.14645Z" fill="#6C707E"/>
<path d="M12.5 10C12.7761 10 13 9.77614 13 9.5C13 9.22386 12.7761 9 12.5 9L2.5 9C2.22386 9 2 9.22386 2 9.5C2 9.77614 2.22386 10 2.5 10L7 10L7 13.2929L5.85355 12.1464C5.65829 11.9512 5.34171 11.9512 5.14645 12.1464C4.95118 12.3417 4.95118 12.6583 5.14645 12.8536L7.14645 14.8536C7.24021 14.9473 7.36739 15 7.5 15C7.63261 15 7.75978 14.9473 7.85355 14.8536L9.85355 12.8536C10.0488 12.6583 10.0488 12.3417 9.85355 12.1464C9.65829 11.9512 9.34171 11.9512 9.14645 12.1464L8 13.2929L8 10H12.5Z" fill="#6C707E"/>
</svg>
