<svg width="40" height="40" viewBox="0 0 40 40" fill="none" xmlns="http://www.w3.org/2000/svg">
<path d="M18.3827 2.81567C20.9583 0.355719 25.0313 0.395387 27.5586 2.9348L27.6771 3.05672C29.1116 4.57281 29.6919 6.60521 29.4185 8.53933C31.3435 8.26462 33.3664 8.84788 34.8754 10.289L34.9969 10.4082L35.0744 10.486L35.1927 10.6079C37.6024 13.1548 37.6024 17.159 35.1927 19.7058L35.0744 19.8277L21.6202 33.346C21.4492 33.5179 21.4492 33.7968 21.6202 33.9687L24.3829 36.7448C24.8963 37.2607 24.8963 38.0972 24.3829 38.6132C23.8694 39.1291 23.0368 39.1289 22.5233 38.6129L19.7607 35.8371C18.5813 34.6521 18.5629 32.7422 19.7055 31.5346L19.7607 31.4776L33.2149 17.9593L33.2859 17.8862C34.755 16.3335 34.7313 13.878 33.2149 12.3544L33.1374 12.2765L33.0646 12.2052C31.5437 10.7525 29.1525 10.7525 27.6316 12.2052L27.5588 12.2765L16.3241 23.5647L16.2751 23.6116C15.759 24.0801 14.962 24.0645 14.4646 23.5647C13.9511 23.0488 13.9512 22.2123 14.4646 21.6963L25.699 10.4082L25.7703 10.335C27.2394 8.78229 27.2155 6.32679 25.699 4.80319C24.1828 3.27965 21.7388 3.25567 20.1934 4.7318L20.1207 4.80319L5.24439 19.7501L5.19538 19.797C4.67923 20.2654 3.88247 20.2498 3.38507 19.7501C2.87161 19.2342 2.87167 18.3977 3.38507 17.8817L18.2611 2.9348L18.3827 2.81567Z" fill="black"/>
<path d="M22.0294 6.6247C22.5456 6.15613 23.3423 6.17177 23.8397 6.67158C24.3532 7.18752 24.3532 8.02384 23.8397 8.53976L12.8377 19.5944C11.2973 21.1422 11.2972 23.6517 12.8377 25.1996C14.3781 26.7473 16.8756 26.7472 18.4161 25.1996L29.4183 14.1449L31.2779 16.0133L20.2756 27.068C17.7483 29.6071 13.6753 29.6468 11.0997 27.1871L10.9781 27.068C8.41075 24.4883 8.4107 20.3057 10.9781 17.726L21.9802 6.67158L22.0294 6.6247Z" fill="black"/>
<path d="M29.4183 14.1449C29.9318 13.629 30.7644 13.629 31.2779 14.1449C31.7913 14.6609 31.7913 15.4974 31.2779 16.0133L29.4183 14.1449Z" fill="black"/>
</svg>
