<!-- Copyright 2000-2022 JetBrains s.r.o. and contributors. Use of this source code is governed by the Apache 2.0 license. -->
<svg width="16" height="16" viewBox="0 0 16 16" fill="none" xmlns="http://www.w3.org/2000/svg">
<path d="M12.4003 14.4V13.6V10.72L10.4062 9.87874" stroke="#6C707E" stroke-linecap="round" stroke-linejoin="round"/>
<path d="M3.59778 14.4V13.6V10.72L5.5918 9.87874" stroke="#6C707E" stroke-linecap="round" stroke-linejoin="round"/>
<path d="M12.4 4.39999V6.79999L10 8.39999" stroke="#6C707E" stroke-linecap="round" stroke-linejoin="round"/>
<path d="M3.6 4.39999V6.79999L6 8.39999" stroke="#6C707E" stroke-linecap="round" stroke-linejoin="round"/>
<path d="M8.00883 2.36255L8.00883 2.86255H8.00883L8.00883 2.36255ZM7.99961 14.4L7.99961 14.9H7.99961L7.99961 14.4ZM9.46883 4.62528C9.46883 5.28841 9.32019 5.52748 9.17653 5.64008C8.99829 5.77976 8.66715 5.86255 8.00883 5.86255V6.86255C8.6735 6.86255 9.32236 6.7963 9.79338 6.42715C10.299 6.03091 10.4688 5.40136 10.4688 4.62528H9.46883ZM8.00883 2.86255C8.29235 2.86255 8.65853 2.96772 8.94797 3.22875C9.22379 3.4775 9.46883 3.90262 9.46883 4.62528H10.4688C10.4688 3.65068 10.1259 2.94443 9.61769 2.48614C9.12312 2.04011 8.5093 1.86255 8.00883 1.86255L8.00883 2.86255ZM6.54883 4.62528C6.54883 3.90262 6.79387 3.4775 7.06969 3.22875C7.35912 2.96772 7.7253 2.86255 8.00883 2.86255L8.00883 1.86255C7.50835 1.86255 6.89453 2.04011 6.39997 2.48614C5.89179 2.94443 5.54883 3.65068 5.54883 4.62528H6.54883ZM8.00883 5.86255C7.3505 5.86255 7.01936 5.77976 6.84113 5.64008C6.69746 5.52748 6.54883 5.28841 6.54883 4.62528H5.54883C5.54883 5.40135 5.71869 6.03091 6.22428 6.42715C6.6953 6.7963 7.34415 6.86255 8.00883 6.86255V5.86255ZM9.89961 10.4616C9.89961 11.0292 9.71756 11.9393 9.34987 12.6961C8.96719 13.4838 8.49285 13.9 7.99961 13.9L7.99961 14.9C9.10637 14.9 9.83203 13.9921 10.2493 13.1331C10.6817 12.2432 10.8996 11.1841 10.8996 10.4616H9.89961ZM7.99961 8.50004C9.00482 8.50004 9.89961 9.31385 9.89961 10.4616H10.8996C10.8996 8.75444 9.54995 7.50004 7.99961 7.50004V8.50004ZM6.09961 10.4616C6.09961 9.31385 6.9944 8.50004 7.99961 8.50004V7.50004C6.44926 7.50004 5.09961 8.75444 5.09961 10.4616H6.09961ZM7.99961 13.9C7.50637 13.9 7.03203 13.4838 6.64934 12.6961C6.28166 11.9393 6.09961 11.0292 6.09961 10.4616H5.09961C5.09961 11.1841 5.31756 12.2432 5.74987 13.1331C6.16719 13.9921 6.89285 14.9 7.99961 14.9L7.99961 13.9Z" fill="#6C707E"/>
<path d="M9.59961 3.19995L10.3996 1.19995" stroke="#6C707E" stroke-linecap="round" stroke-linejoin="round"/>
<path d="M6.40039 3.19995L5.60039 1.19995" stroke="#6C707E" stroke-linecap="round" stroke-linejoin="round"/>
</svg>
