<svg width="40" height="40" viewBox="0 0 40 40" xmlns="http://www.w3.org/2000/svg">
  <g transform="matrix(2.67 0 0 2.67 0 .333)" fill="#ced0d6">
    <path d="m1.5 7h1.68a6.51 6.51 0 0 1 0.32-1h-2a0.5 0.5 0 0 0 0 1zm1.5 1.5c0-0.169 0.013-0.334 0.025-0.5h-2.52a0.5 0.5 0 0 0 0 1h2.52a6.36 6.36 0 0 1-0.025-0.5zm0.182 1.5h-1.68a0.5 0.5 0 0 0 0 1h2a6.51 6.51 0 0 1-0.32-1zm6.32-6c2.48 0 4.5 2.02 4.5 4.5s-2.02 4.5-4.5 4.5-4.5-2.02-4.5-4.5 2.02-4.5 4.5-4.5zm0-1a5.5 5.5 0 1 0 0 11 5.5 5.5 0 1 0 0-11zm1.5-1h-3a0.5 0.5 0 0 1 0-1h3a0.5 0.5 0 0 1 0 1z"/>
    <path d="m12.3 5.7a0.5 0.5 0 0 0-0.707 0l-1.45 1.45a1.49 1.49 0 0 0-0.643-0.15 1.5 1.5 0 1 0 1.5 1.5c0-0.231-0.057-0.447-0.15-0.643l1.45-1.45a0.5 0.5 0 0 0 0-0.707zm-2.8 3.3a0.5 0.5 0 1 1 0-1 0.5 0.5 0 0 1 0 1z"/>
  </g>
</svg>
