<!-- Copyright 2000-2022 JetBrains s.r.o. and contributors. Use of this source code is governed by the Apache 2.0 license. -->
<svg width="16" height="16" viewBox="0 0 16 16" fill="none" xmlns="http://www.w3.org/2000/svg">
<path d="M4.5 4C4.5 3.72386 4.72386 3.5 5 3.5H7C7.27614 3.5 7.5 3.72386 7.5 4V11C7.5 11.2761 7.27614 11.5 7 11.5H5C4.72386 11.5 4.5 11.2761 4.5 11V4Z" stroke="#6C707E"/>
<path d="M9.5 4C9.5 3.72386 9.72386 3.5 10 3.5H12C12.2761 3.5 12.5 3.72386 12.5 4V11C12.5 11.2761 12.2761 11.5 12 11.5H10C9.72386 11.5 9.5 11.2761 9.5 11V4Z" stroke="#6C707E"/>
</svg>
