<!-- Copyright 2000-2022 JetBrains s.r.o. and contributors. Use of this source code is governed by the Apache 2.0 license. -->
<svg width="16" height="16" viewBox="0 0 16 16" fill="none" xmlns="http://www.w3.org/2000/svg">
<path fill-rule="evenodd" clip-rule="evenodd" d="M11.3684 2.17731C10.9857 1.49656 10.0058 1.49656 9.62298 2.17731L7.92004 5.2058C8.83699 5.4778 9.6439 6.0057 10.258 6.70673C10.3319 6.67858 10.412 6.66316 10.4957 6.66316C10.8644 6.66316 11.1632 6.9621 11.1632 7.33086C11.1632 7.50814 11.0942 7.66929 10.9815 7.78884C11.1687 8.16793 11.3093 8.57418 11.3957 9.00008H13.493C14.2588 9.00008 14.7411 8.1752 14.3657 7.50757L11.3684 2.17731ZM10.4957 3.32471C10.7722 3.32471 10.9964 3.54891 10.9964 3.82548V5.50514C10.9964 5.78171 10.7722 6.00591 10.4957 6.00591C10.2192 6.00591 9.99506 5.78171 9.99506 5.50514V3.82548C9.99506 3.54891 10.2192 3.32471 10.4957 3.32471Z" fill="#F7B47C"/>
<path d="M3 10C3 8.067 4.567 6.5 6.5 6.5C8.433 6.5 10 8.067 10 10C10 11.933 8.433 13.5 6.5 13.5C4.567 13.5 3 11.933 3 10ZM6.5 12.8333C7.14433 12.8333 7.66667 12.311 7.66667 11.6667C7.66667 11.2348 7.43205 10.8578 7.08333 10.6561C7.33568 10.4745 7.5 10.1783 7.5 9.84375V8.1875C7.5 7.63522 7.05229 7.1875 6.5 7.1875C5.94772 7.1875 5.5 7.63522 5.5 8.1875V9.84375C5.5 10.1783 5.66432 10.4745 5.91667 10.6561C5.56795 10.8578 5.33333 11.2348 5.33333 11.6667C5.33333 12.311 5.85567 12.8333 6.5 12.8333Z" fill="#E35252" stroke="#E35252"/>
</svg>
