<!-- Copyright 2000-2023 JetBrains s.r.o. and contributors. Use of this source code is governed by the Apache 2.0 license. -->
<svg width="16" height="16" viewBox="0 0 16 16" fill="none" xmlns="http://www.w3.org/2000/svg">
<path d="M7 6C7 5.44772 7.44772 5 8 5C8.55229 5 9 5.44772 9 6V7C9 7.55228 8.55229 8 8 8C7.44772 8 7 7.55228 7 7V6Z" fill="white"/>
<path d="M8 11C8.55229 11 9 10.5523 9 10C9 9.44771 8.55229 9 8 9C7.44772 9 7 9.44771 7 10C7 10.5523 7.44772 11 8 11Z" fill="white"/>
<path fill-rule="evenodd" clip-rule="evenodd" d="M4.04814 13H11.9445C13.5214 13 14.5071 11.2922 13.7191 9.92554L9.72765 3.00275C8.95846 1.66868 7.03421 1.66868 6.26502 3.00275L2.27354 9.92554C1.48556 11.2922 2.4713 13 4.04814 13ZM4.04814 12H11.9445C12.7522 12 13.2571 11.1253 12.8535 10.4253L8.86199 3.50247C8.4774 2.83544 7.51528 2.83544 7.13068 3.50247L3.1392 10.4253C2.7356 11.1253 3.24049 12 4.04814 12Z" fill="white"/>
</svg>
