<!-- Copyright 2000-2023 JetBrains s.r.o. and contributors. Use of this source code is governed by the Apache 2.0 license. -->
<svg width="16" height="16" viewBox="0 0 16 16" fill="none" xmlns="http://www.w3.org/2000/svg">
<path fill-rule="evenodd" clip-rule="evenodd" d="M4.04814 13H11.9445C13.5214 13 14.5071 11.2922 13.7191 9.92554L9.72765 3.00275C8.95846 1.66868 7.03421 1.66868 6.26502 3.00275L2.27354 9.92554C1.48556 11.2922 2.4713 13 4.04814 13ZM7 5C7 4.44772 7.44772 4 8 4C8.55229 4 9 4.44772 9 5V8C9 8.55228 8.55229 9 8 9C7.44772 9 7 8.55228 7 8V5ZM9 11C9 11.5523 8.55229 12 8 12C7.44772 12 7 11.5523 7 11C7 10.4477 7.44772 10 8 10C8.55229 10 9 10.4477 9 11Z" fill="white"/>
</svg>
