<!-- Copyright 2000-2022 JetBrains s.r.o. and contributors. Use of this source code is governed by the Apache 2.0 license. -->
<svg width="16" height="16" viewBox="0 0 16 16" fill="none" xmlns="http://www.w3.org/2000/svg">
<path d="M3.5 10C3.22386 10 3 9.77614 3 9.5V6.5C3 6.22386 3.22386 6 3.5 6C3.77614 6 4 6.22386 4 6.5V9.5C4 9.77614 3.77614 10 3.5 10Z" fill="#CED0D6"/>
<path d="M5.5 10C5.22386 10 5 9.77614 5 9.5V6.5C5 6.22386 5.22386 6 5.5 6C5.77614 6 6 6.22386 6 6.5V9.5C6 9.77614 5.77614 10 5.5 10Z" fill="#CED0D6"/>
<path fill-rule="evenodd" clip-rule="evenodd" d="M13 10C13 11.1046 12.1046 12 11 12H3C1.89543 12 1 11.1046 1 10V6C1 4.89543 1.89543 4 3 4H11C12.1046 4 13 4.89543 13 6H14C14.5523 6 15 6.44772 15 7V9C15 9.55228 14.5523 10 14 10H13ZM3 5H11C11.5523 5 12 5.44772 12 6V10C12 10.5523 11.5523 11 11 11H3C2.44772 11 2 10.5523 2 10V6C2 5.44772 2.44772 5 3 5ZM13 9H14V7H13V9Z" fill="#CED0D6"/>
</svg>
