<!-- Copyright 2000-2022 JetBrains s.r.o. and contributors. Use of this source code is governed by the Apache 2.0 license. -->
<svg width="16" height="16" viewBox="0 0 16 16" fill="none" xmlns="http://www.w3.org/2000/svg">
<path d="M3.55002 12.12C3.05336 12.12 2.60336 12.005 2.20002 11.775C1.79669 11.5417 1.47836 11.2217 1.24502 10.815C1.01502 10.4083 0.900024 9.95001 0.900024 9.44001C0.900024 8.93001 1.01502 8.47168 1.24502 8.06501C1.47836 7.65834 1.79669 7.34001 2.20002 7.11001C2.60669 6.87668 3.05836 6.76001 3.55502 6.76001C4.05502 6.76001 4.50502 6.87668 4.90502 7.11001C5.30836 7.34001 5.62502 7.65834 5.85502 8.06501C6.08836 8.47168 6.20502 8.93001 6.20502 9.44001C6.20502 9.95001 6.08836 10.4083 5.85502 10.815C5.62502 11.2217 5.30836 11.5417 4.90502 11.775C4.50502 12.005 4.05336 12.12 3.55002 12.12ZM3.56002 11.235C3.86669 11.235 4.14336 11.16 4.39002 11.01C4.63669 10.86 4.83002 10.65 4.97002 10.38C5.11002 10.1067 5.18002 9.79334 5.18002 9.44001C5.18002 9.08668 5.11002 8.77501 4.97002 8.50501C4.83002 8.23168 4.63669 8.02001 4.39002 7.87001C4.14336 7.71668 3.86502 7.64001 3.55502 7.64001C3.24836 7.64001 2.97002 7.71668 2.72002 7.87001C2.47336 8.02001 2.27836 8.23168 2.13502 8.50501C1.99502 8.77501 1.92502 9.08668 1.92502 9.44001C1.92502 9.79334 1.99502 10.1067 2.13502 10.38C2.27836 10.65 2.47502 10.86 2.72502 11.01C2.97502 11.16 3.25336 11.235 3.56002 11.235Z" fill="#6C707E"/>
<path d="M8 7.735H7.1V6.88H8V6.25C8 6.00667 8.05667 5.79 8.17 5.6C8.28667 5.41 8.44667 5.26333 8.65 5.16C8.85667 5.05333 9.09333 5 9.36 5H10.305V5.82H9.50997C9.35664 5.82 9.2333 5.86667 9.13997 5.96C9.04664 6.05333 8.99997 6.17667 8.99997 6.33V6.88H10.265V7.735H8.99997V12H8V7.735Z" fill="#6C707E"/>
<path d="M12 7.735H11.1V6.88H12V6.25C12 6.00667 12.0567 5.79 12.17 5.6C12.2867 5.41 12.4666 5.26333 12.67 5.16C12.8766 5.05333 13.0933 5 13.36 5H14.305V5.82H13.51C13.3566 5.82 13.2333 5.86667 13.14 5.96C13.0466 6.05333 13 6.17667 13 6.33V6.88H14.265V7.735H13V12H12V7.735Z" fill="#6C707E"/>
</svg>
