<!-- Copyright 2000-2022 JetBrains s.r.o. and contributors. Use of this source code is governed by the Apache 2.0 license. -->
<svg width="16" height="16" viewBox="0 0 16 16" fill="none" xmlns="http://www.w3.org/2000/svg">
<path d="M4.5 3.91553C4.5 3.63939 4.72386 3.41553 5 3.41553H7.04077C7.31691 3.41553 7.54077 3.63938 7.54077 3.91553V11C7.54077 11.2761 7.31691 11.5 7.04077 11.5H5C4.72386 11.5 4.5 11.2761 4.5 11V3.91553Z" stroke="#CED0D6"/>
<path d="M9.54468 3.91553C9.54468 3.63939 9.76854 3.41553 10.0447 3.41553H11.9812C12.2573 3.41553 12.4812 3.63938 12.4812 3.91553V11C12.4812 11.2761 12.2573 11.5 11.9812 11.5H10.0447C9.76854 11.5 9.54468 11.2761 9.54468 11V3.91553Z" stroke="#CED0D6"/>
</svg>
