<!-- Copyright 2000-2022 JetBrains s.r.o. and contributors. Use of this source code is governed by the Apache 2.0 license. -->
<svg width="16" height="16" viewBox="0 0 16 16" fill="none" xmlns="http://www.w3.org/2000/svg">
<path fill-rule="evenodd" clip-rule="evenodd" d="M9.30909 2.76584C8.73491 1.74472 7.26509 1.74472 6.69091 2.76584L2.19504 10.7612C1.63192 11.7627 2.35543 13 3.50413 13H12.4959C13.6446 13 14.3681 11.7627 13.805 10.7612L9.30909 2.76584ZM8 4.48695C8.41475 4.48695 8.75097 4.82325 8.75097 5.2381V7.74194C8.75097 8.15679 8.41475 8.49309 8 8.49309C7.58525 8.49309 7.24903 8.15679 7.24903 7.74194V5.2381C7.24903 4.82325 7.58525 4.48695 8 4.48695ZM9.0013 10.4962C9.0013 11.0493 8.553 11.4977 8 11.4977C7.447 11.4977 6.9987 11.0493 6.9987 10.4962C6.9987 9.94303 7.447 9.49462 8 9.49462C8.553 9.49462 9.0013 9.94303 9.0013 10.4962Z" fill="white"/>
</svg>
