<!-- Copyright 2000-2022 JetBrains s.r.o. and contributors. Use of this source code is governed by the Apache 2.0 license. -->
<svg width="16" height="16" viewBox="0 0 16 16" fill="none" xmlns="http://www.w3.org/2000/svg">
<path d="M2.14645 14.1464C1.95118 14.3417 1.95118 14.6583 2.14645 14.8536C2.34171 15.0488 2.65829 15.0488 2.85355 14.8536L2.14645 14.1464ZM4.5 12.5L4.85355 12.1464C4.65829 11.9512 4.34171 11.9512 4.14645 12.1464L4.5 12.5ZM6.5 14.5L6.14645 14.8536C6.33364 15.0408 6.63431 15.0496 6.83218 14.8737L6.5 14.5ZM8.75 12.5L9.08218 12.1263C8.89274 11.9579 8.60726 11.9579 8.41782 12.1263L8.75 12.5ZM11 14.5L10.6678 14.8737C10.8657 15.0496 11.1664 15.0408 11.3536 14.8536L11 14.5ZM13.3536 12.8536C13.5488 12.6583 13.5488 12.3417 13.3536 12.1464C13.1583 11.9512 12.8417 11.9512 12.6464 12.1464L13.3536 12.8536ZM2.85355 14.8536L4.85355 12.8536L4.14645 12.1464L2.14645 14.1464L2.85355 14.8536ZM4.14645 12.8536L6.14645 14.8536L6.85355 14.1464L4.85355 12.1464L4.14645 12.8536ZM6.83218 14.8737L9.08218 12.8737L8.41782 12.1263L6.16782 14.1263L6.83218 14.8737ZM8.41782 12.8737L10.6678 14.8737L11.3322 14.1263L9.08218 12.1263L8.41782 12.8737ZM11.3536 14.8536L13.3536 12.8536L12.6464 12.1464L10.6464 14.1464L11.3536 14.8536Z" fill="#5FB865"/>
<path d="M3 7L6 10L12.5 3.5" stroke="#5FB865" stroke-width="2" stroke-linecap="round"/>
</svg>
