<!-- Copyright 2000-2023 JetBrains s.r.o. and contributors. Use of this source code is governed by the Apache 2.0 license. -->
<svg width="16" height="16" viewBox="0 0 16 16" fill="none" xmlns="http://www.w3.org/2000/svg">
<path fill-rule="evenodd" clip-rule="evenodd" d="M6.5 14C8.98528 14 11 11.9853 11 9.5C11 7.01472 8.98528 5 6.5 5C4.01472 5 2 7.01472 2 9.5C2 11.9853 4.01472 14 6.5 14ZM6.5 7C6.77614 7 7 7.22386 7 7.5V9.5C7 9.77614 6.77614 10 6.5 10C6.22386 10 6 9.77614 6 9.5V7.5C6 7.22386 6.22386 7 6.5 7ZM7 11.5C7 11.7761 6.77614 12 6.5 12C6.22386 12 6 11.7761 6 11.5C6 11.2239 6.22386 11 6.5 11C6.77614 11 7 11.2239 7 11.5Z" fill="#DB5C5C"/>
<path d="M14.7188 6.03154L12.3177 2.02976C11.4943 0.6574 9.50536 0.657398 8.68195 2.02976L7.45068 4.08186C8.40833 4.24873 9.28089 4.66329 9.99995 5.25712L9.99988 3.5C9.99988 3.22386 10.2238 3 10.5 3C10.7762 3 11.0001 3.22386 11.0001 3.5L11.0002 6.33724C11.5399 7.10377 11.8888 8.01437 11.9776 8.99995H13.0381C14.5616 8.99995 15.5026 7.33792 14.7188 6.03154Z" fill="#F2C55C"/>
</svg>
