<!-- Copyright 2000-2022 JetBrains s.r.o. and contributors. Use of this source code is governed by the Apache 2.0 license. -->
<svg width="16" height="16" viewBox="0 0 16 16" fill="none" xmlns="http://www.w3.org/2000/svg">
<path d="M9 10.5C9 11.0523 8.55228 11.5 8 11.5C7.44772 11.5 7 11.0523 7 10.5C7 9.94772 7.44772 9.5 8 9.5C8.55228 9.5 9 9.94772 9 10.5Z" fill="white"/>
<path d="M8.75 5.75C8.75 5.33579 8.41421 5 8 5C7.58579 5 7.25 5.33579 7.25 5.75V7.75C7.25 8.16421 7.58579 8.5 8 8.5C8.41421 8.5 8.75 8.16421 8.75 7.75V5.75Z" fill="white"/>
<path fill-rule="evenodd" clip-rule="evenodd" d="M9.30738 2.78151C8.73394 1.76196 7.26603 1.76196 6.69258 2.78151L2.20254 10.7646C1.64015 11.7646 2.36272 13 3.50993 13H12.49C13.6372 13 14.3598 11.7646 13.7974 10.7646L9.30738 2.78151ZM12.9258 11.2549L8.43578 3.27173C8.24463 2.93188 7.75533 2.93188 7.56418 3.27174L3.07414 11.2549C2.88667 11.5882 3.12753 12 3.50993 12H12.49C12.8724 12 13.1133 11.5882 12.9258 11.2549Z" fill="white"/>
</svg>
