<svg xmlns="http://www.w3.org/2000/svg" width="16" height="16" viewBox="0 0 16 16">
  <g fill="none" fill-rule="evenodd" transform="translate(1.5 1.4)">
    <polygon fill="#1159CC" points="12.786 2.23 12.786 1.02 9.88 2.71 9.88 3.733 7.555 8.747 6.392 9.549 6.392 13.223 8.884 11.786"/>
    <polygon fill="#1159CC" points="6.392 6.934 4.649 2.864 4.649 1.714 4.638 1.71 2.906 2.71 2.906 3.733 5.231 8.968 6.392 8.393"/>
    <polygon fill="#127EFF" points="11.043 .002 8.139 1.703 8.137 1.703 8.137 1.705 8.137 1.705 8.137 1.705 8.137 2.864 6.392 6.934 6.392 8.294 5.231 8.968 2.906 3.733 2.906 2.708 4.651 1.705 1.743 .002 0 1.02 0 2.267 3.924 11.797 6.392 13.223 6.392 9.642 7.555 8.968 7.54 8.959 9.88 3.733 9.88 2.71 9.88 2.708 12.786 1.02"/>
  </g>
</svg>
