<svg xmlns="http://www.w3.org/2000/svg" width="16" height="16" viewBox="0 0 16 16">
  <g fill="none" fill-rule="evenodd" transform="translate(2.2 2)">
    <path fill="#9AA7B0" fill-opacity=".8" d="M11.3834899,1.98519589 L11.3834899,0.908246735 L8.79606557,2.4128369 L8.79606557,3.32304529 L6.72651848,7.78777438 L5.6907641,8.50181717 L5.6907641,11.7718977 L7.90939705,10.492898 L11.3834899,1.98519589 Z M5.6907641,6.17333148 L4.13909419,2.55015282 L4.13909419,1.52616838 L4.12928591,1.52224507 L2.58742428,2.4128369 L2.58742428,3.32304529 L4.65697138,7.98393998 L5.6907641,7.47194776 L5.6907641,6.17333148 Z"/>
    <polygon fill="#B2D1FF" points="9.832 .002 7.246 1.516 7.244 1.516 7.244 2.55 5.691 6.173 5.691 7.384 4.657 7.984 2.587 3.323 2.587 2.411 4.141 1.518 1.552 .002 0 .908 0 2.019 3.494 10.503 5.691 11.772 5.691 8.584 6.727 7.984 6.713 7.976 8.796 3.323 8.796 2.411 11.383 .908"/>
  </g>
</svg>
