<svg xmlns="http://www.w3.org/2000/svg" xmlns:xlink="http://www.w3.org/1999/xlink" width="22" height="22" viewBox="0 0 22 22">
  <defs>
    <rect id="checkboxfocused@2x-a" width="13" height="13" x="4.5" y="4.5" rx="1.75"/>
    <filter id="checkboxfocused@2x-b" width="123.1%" height="123.1%" x="-11.5%" y="-11.5%" filterUnits="objectBoundingBox">
      <feGaussianBlur in="SourceAlpha" result="shadowBlurInner1" stdDeviation=".75"/>
      <feOffset dy="1.5" in="shadowBlurInner1" result="shadowOffsetInner1"/>
      <feComposite in="shadowOffsetInner1" in2="SourceAlpha" k2="-1" k3="1" operator="arithmetic" result="shadowInnerInner1"/>
      <feColorMatrix in="shadowInnerInner1" values="0 0 0 0 0   0 0 0 0 0   0 0 0 0 0  0 0 0 0.11 0"/>
    </filter>
    <linearGradient id="checkboxfocused@2x-c" x1="50%" x2="50%" y1="0%" y2="100%">
      <stop offset="0%" stop-color="#BCBCBC"/>
      <stop offset="100%" stop-color="#CACACA"/>
    </linearGradient>
    <path id="checkboxfocused@2x-d" d="M1,7.00065947 C1,3.68658675 3.67653633,1 7.00065947,1 L14.9993405,1 C18.3134132,1 21,3.67653633 21,7.00065947 L21,14.9993405 C21,18.3134132 18.3234637,21 14.9993405,21 L7.00065947,21 C3.68658675,21 1,18.3234637 1,14.9993405 L1,7.00065947 Z M7.00653076,4.5 C5.62221205,4.5 4.5,5.61962422 4.5,7.00653076 L4.5,14.9934692 C4.5,16.377788 5.61962422,17.5 7.00653076,17.5 L14.9934692,17.5 C16.377788,17.5 17.5,16.3803758 17.5,14.9934692 L17.5,7.00653076 C17.5,5.62221205 16.3803758,4.5 14.9934692,4.5 L7.00653076,4.5 Z"/>
  </defs>
  <g fill="none" fill-rule="evenodd">
    <use fill="#FFF" xlink:href="#checkboxfocused@2x-a"/>
    <use fill="#000" filter="url(#checkboxfocused@2x-b)" xlink:href="#checkboxfocused@2x-a"/>
    <path fill="url(#checkboxfocused@2x-c)" d="M7.00335124,4 L14.9966488,4 C16.6576211,4 18,5.34464615 18,7.00335124 L18,14.9966488 C18,16.6576211 16.6553538,18 14.9966488,18 L7.00335124,18 C5.34237885,18 4,16.6553538 4,14.9966488 L4,7.00335124 C4,5.34237885 5.34464615,4 7.00335124,4 Z M7.00653076,4.5 C5.62221205,4.5 4.5,5.61962422 4.5,7.00653076 L4.5,14.9934692 C4.5,16.377788 5.61962422,17.5 7.00653076,17.5 L14.9934692,17.5 C16.377788,17.5 17.5,16.3803758 17.5,14.9934692 L17.5,7.00653076 C17.5,5.62221205 16.3803758,4.5 14.9934692,4.5 L7.00653076,4.5 Z"/>
    <use fill="#A6A6A6" fill-opacity=".5" fill-rule="nonzero" xlink:href="#checkboxfocused@2x-d"/>
  </g>
</svg>
