<svg xmlns="http://www.w3.org/2000/svg" xmlns:xlink="http://www.w3.org/1999/xlink" width="22" height="22" viewBox="0 0 22 22">
  <defs>
    <rect id="checkboxselecteddisabled@2x-a" width="13" height="13" x="4.5" y="4.5" rx="1.75"/>
    <filter id="checkboxselecteddisabled@2x-b" width="123.1%" height="123.1%" x="-11.5%" y="-11.5%" filterUnits="objectBoundingBox">
      <feGaussianBlur in="SourceAlpha" result="shadowBlurInner1" stdDeviation=".75"/>
      <feOffset dy="1.5" in="shadowBlurInner1" result="shadowOffsetInner1"/>
      <feComposite in="shadowOffsetInner1" in2="SourceAlpha" k2="-1" k3="1" operator="arithmetic" result="shadowInnerInner1"/>
      <feColorMatrix in="shadowInnerInner1" values="0 0 0 0 0   0 0 0 0 0   0 0 0 0 0  0 0 0 0.06 0"/>
    </filter>
    <linearGradient id="checkboxselecteddisabled@2x-c" x1="50%" x2="50%" y1="0%" y2="100%">
      <stop offset="0%" stop-color="#D1D1D1"/>
      <stop offset="100%" stop-color="#DEDEDE"/>
    </linearGradient>
  </defs>
  <g fill="none" fill-rule="evenodd">
    <use fill="#FFF" xlink:href="#checkboxselecteddisabled@2x-a"/>
    <use fill="#000" filter="url(#checkboxselecteddisabled@2x-b)" xlink:href="#checkboxselecteddisabled@2x-a"/>
    <path fill="#000" fill-rule="nonzero" d="M9.93579616,13.0674743 L13.6542166,7.34160882 C13.8798135,6.9942201 14.3443101,6.8954883 14.6916988,7.12108517 C15.0390876,7.34668205 15.1378194,7.81117865 14.9122225,8.15856737 L10.664038,14.7001978 C10.4620409,15.0112462 10.0685123,15.1229405 9.73901399,14.9809596 C9.63843621,14.939559 9.54533233,14.8755351 9.46769184,14.7893066 L7.19264778,12.2626142 C6.9154848,11.9547935 6.94033778,11.4805706 7.24815844,11.2034076 C7.55597911,10.9262446 8.03020204,10.9510976 8.30736501,11.2589182 L9.93579616,13.0674743 Z" opacity=".3"/>
    <path fill="url(#checkboxselecteddisabled@2x-c)" d="M7.00335124,4 L14.9966488,4 C16.6576211,4 18,5.34464615 18,7.00335124 L18,14.9966488 C18,16.6576211 16.6553538,18 14.9966488,18 L7.00335124,18 C5.34237885,18 4,16.6553538 4,14.9966488 L4,7.00335124 C4,5.34237885 5.34464615,4 7.00335124,4 Z M7.00653076,4.5 C5.62221205,4.5 4.5,5.61962422 4.5,7.00653076 L4.5,14.9934692 C4.5,16.377788 5.61962422,17.5 7.00653076,17.5 L14.9934692,17.5 C16.377788,17.5 17.5,16.3803758 17.5,14.9934692 L17.5,7.00653076 C17.5,5.62221205 16.3803758,4.5 14.9934692,4.5 L7.00653076,4.5 Z"/>
  </g>
</svg>
