<svg xmlns="http://www.w3.org/2000/svg" xmlns:xlink="http://www.w3.org/1999/xlink" width="18" height="21" viewBox="0 0 18 21">
  <defs>
    <linearGradient id="comborighteditabledisabled-b" x1="50%" x2="50%" y1="0%" y2="100%">
      <stop offset="0%" stop-color="#D2D2D2"/>
      <stop offset="100%" stop-color="#C4C4C4"/>
    </linearGradient>
    <path id="comborighteditabledisabled-a" d="M-7.1e-15,0 L14,0 C16.209139,-4.05812251e-16 18,1.790861 18,4 L18,17 C18,19.209139 16.209139,21 14,21 L-7.1e-15,21 L-7.1e-15,0 Z"/>
  </defs>
  <g fill="none" fill-rule="evenodd">
    <use fill="#F1F1F1" xlink:href="#comborighteditabledisabled-a"/>
    <path stroke="url(#comborighteditabledisabled-b)" d="M0.5,0.5 L0.5,20.5 L14,20.5 C15.9329966,20.5 17.5,18.9329966 17.5,17 L17.5,4 C17.5,2.06700338 15.9329966,0.5 14,0.5 L0.5,0.5 Z"/>
    <g transform="matrix(1 0 0 -1 5 13)">
      <rect width="1" height="1" y="3" fill="#919191"/>
      <rect width="1" height="1" y="2" fill="#D3D3D3"/>
      <rect width="1" height="1" x="1" y="3" fill="#B3B3B3"/>
      <rect width="1" height="1" x="2" y="2" fill="#B3B3B3"/>
      <rect width="1" height="1" x="3" y="1" fill="#A0A0A0"/>
      <rect width="1" height="1" x="4" y="2" fill="#B3B3B3"/>
      <rect width="1" height="1" x="5" y="3" fill="#B3B3B3"/>
      <rect width="1" height="1" x="6" y="2" fill="#D3D3D3"/>
      <rect width="1" height="1" x="5" y="1" fill="#C7C7C9"/>
      <rect width="1" height="1" x="4" fill="#C7C7C9"/>
      <rect width="1" height="1" x="2" fill="#C7C7C9"/>
      <rect width="1" height="1" x="1" y="1" fill="#C7C7C9"/>
      <rect width="1" height="1" x="1" y="2" fill="#919191"/>
      <rect width="1" height="1" x="2" y="1" fill="#919191"/>
      <rect width="1" height="1" x="3" fill="#919191"/>
      <rect width="1" height="1" x="4" y="1" fill="#919191"/>
      <rect width="1" height="1" x="5" y="2" fill="#919191"/>
      <rect width="1" height="1" x="6" y="3" fill="#919191"/>
    </g>
    <rect width="1" height="19" y="1" fill="#E7E7E7"/>
  </g>
</svg>
