<svg xmlns="http://www.w3.org/2000/svg" xmlns:xlink="http://www.w3.org/1999/xlink" width="17" height="21" viewBox="0 0 17 21">
  <defs>
    <rect id="comboright-a" width="17" height="21"/>
    <linearGradient id="comboright-c" x1="50%" x2="50%" y1="0%" y2="100%">
      <stop offset="0%" stop-color="#B0B0B6"/>
      <stop offset="100%" stop-color="#939397"/>
    </linearGradient>
    <linearGradient id="comboright-e" x1="50%" x2="50%" y1="0%" y2="99.631%">
      <stop offset="0%" stop-color="#A5A5AB"/>
      <stop offset="100%" stop-color="#7E7D82"/>
    </linearGradient>
    <rect id="comboright-d" width="65" height="21" x="-48" rx="4"/>
  </defs>
  <g fill="none" fill-rule="evenodd">
    <mask id="comboright-b" fill="#fff">
      <use xlink:href="#comboright-a"/>
    </mask>
    <g mask="url(#comboright-b)">
      <use fill="url(#comboright-c)" xlink:href="#comboright-d"/>
      <rect width="64" height="20" x="-47.5" y=".5" stroke="url(#comboright-e)" rx="4"/>
    </g>
    <g transform="translate(5 5)">
      <rect width="1" height="1" y="3" fill="#FCFDFF"/>
      <rect width="1" height="1" y="2" fill="#C7C7C9"/>
      <rect width="1" height="1" x="1" y="3" fill="#E1DEE1"/>
      <rect width="1" height="1" x="2" y="2" fill="#E1DEE1"/>
      <rect width="1" height="1" x="3" y="1" fill="#F3F0F2"/>
      <rect width="1" height="1" x="4" y="2" fill="#E1DEE1"/>
      <rect width="1" height="1" x="5" y="3" fill="#E1DEE1"/>
      <rect width="1" height="1" x="6" y="2" fill="#C7C7C9"/>
      <rect width="1" height="1" x="5" y="1" fill="#C7C7C9"/>
      <rect width="1" height="1" x="4" fill="#C7C7C9"/>
      <rect width="1" height="1" x="2" fill="#C7C7C9"/>
      <rect width="1" height="1" x="1" y="1" fill="#C7C7C9"/>
      <rect width="1" height="1" x="1" y="2" fill="#FAFEFE"/>
      <rect width="1" height="1" x="2" y="1" fill="#FDFDFE"/>
      <rect width="1" height="1" x="3" fill="#FDFDFF"/>
      <rect width="1" height="1" x="4" y="1" fill="#FEFEFF"/>
      <rect width="1" height="1" x="5" y="2" fill="#FCFCFE"/>
      <rect width="1" height="1" x="6" y="3" fill="#FBFBFF"/>
    </g>
    <g transform="matrix(1 0 0 -1 5 16)">
      <rect width="1" height="1" y="3" fill="#FCFDFF"/>
      <rect width="1" height="1" y="2" fill="#C7C7C9"/>
      <rect width="1" height="1" x="1" y="3" fill="#E1DEE1"/>
      <rect width="1" height="1" x="2" y="2" fill="#E1DEE1"/>
      <rect width="1" height="1" x="3" y="1" fill="#F3F0F2"/>
      <rect width="1" height="1" x="4" y="2" fill="#E1DEE1"/>
      <rect width="1" height="1" x="5" y="3" fill="#E1DEE1"/>
      <rect width="1" height="1" x="6" y="2" fill="#C7C7C9"/>
      <rect width="1" height="1" x="5" y="1" fill="#C7C7C9"/>
      <rect width="1" height="1" x="4" fill="#C7C7C9"/>
      <rect width="1" height="1" x="2" fill="#C7C7C9"/>
      <rect width="1" height="1" x="1" y="1" fill="#C7C7C9"/>
      <rect width="1" height="1" x="1" y="2" fill="#FAFEFE"/>
      <rect width="1" height="1" x="2" y="1" fill="#FDFDFE"/>
      <rect width="1" height="1" x="3" fill="#FDFDFF"/>
      <rect width="1" height="1" x="4" y="1" fill="#FEFEFF"/>
      <rect width="1" height="1" x="5" y="2" fill="#FCFCFE"/>
      <rect width="1" height="1" x="6" y="3" fill="#FBFBFF"/>
    </g>
  </g>
</svg>
