<svg xmlns="http://www.w3.org/2000/svg" xmlns:xlink="http://www.w3.org/1999/xlink" width="18" height="21" viewBox="0 0 18 21">
  <defs>
    <linearGradient id="comborighteditable-a" x1="50%" x2="50%" y1="0%" y2="100%">
      <stop offset="0%" stop-color="#B0B0B6"/>
      <stop offset="100%" stop-color="#929296"/>
    </linearGradient>
    <linearGradient id="comborighteditable-c" x1="50%" x2="50%" y1="0%" y2="100%">
      <stop offset="0%" stop-color="#A5A5AA"/>
      <stop offset="100%" stop-color="#7E7D83"/>
    </linearGradient>
    <path id="comborighteditable-b" d="M0,0 L14,0 C16.209139,-4.05812251e-16 18,1.790861 18,4 L18,17 C18,19.209139 16.209139,21 14,21 L0,21 L0,0 Z"/>
  </defs>
  <g fill="none" fill-rule="evenodd">
    <use fill="url(#comborighteditable-a)" xlink:href="#comborighteditable-b"/>
    <path stroke="url(#comborighteditable-c)" d="M0.5,0.5 L0.5,20.5 L14,20.5 C15.9329966,20.5 17.5,18.9329966 17.5,17 L17.5,4 C17.5,2.06700338 15.9329966,0.5 14,0.5 L0.5,0.5 Z"/>
    <g transform="matrix(1 0 0 -1 5 13)">
      <rect width="1" height="1" y="3" fill="#FCFDFF"/>
      <rect width="1" height="1" y="2" fill="#C7C7C9"/>
      <rect width="1" height="1" x="1" y="3" fill="#E1DEE1"/>
      <rect width="1" height="1" x="2" y="2" fill="#E1DEE1"/>
      <rect width="1" height="1" x="3" y="1" fill="#F3F0F2"/>
      <rect width="1" height="1" x="4" y="2" fill="#E1DEE1"/>
      <rect width="1" height="1" x="5" y="3" fill="#E1DEE1"/>
      <rect width="1" height="1" x="6" y="2" fill="#C7C7C9"/>
      <rect width="1" height="1" x="5" y="1" fill="#C7C7C9"/>
      <rect width="1" height="1" x="4" fill="#C7C7C9"/>
      <rect width="1" height="1" x="2" fill="#C7C7C9"/>
      <rect width="1" height="1" x="1" y="1" fill="#C7C7C9"/>
      <rect width="1" height="1" x="1" y="2" fill="#FAFEFE"/>
      <rect width="1" height="1" x="2" y="1" fill="#FDFDFE"/>
      <rect width="1" height="1" x="3" fill="#FDFDFF"/>
      <rect width="1" height="1" x="4" y="1" fill="#FEFEFF"/>
      <rect width="1" height="1" x="5" y="2" fill="#FCFCFE"/>
      <rect width="1" height="1" x="6" y="3" fill="#FBFBFF"/>
    </g>
  </g>
</svg>
