<svg xmlns="http://www.w3.org/2000/svg" xmlns:xlink="http://www.w3.org/1999/xlink" width="22" height="22" viewBox="0 0 22 22">
  <defs>
    <circle id="radioselectedfocused@2x-b" cx="8" cy="8" r="3"/>
    <filter id="radioselectedfocused@2x-a" width="133.3%" height="133.3%" x="-16.7%" y="-8.3%" filterUnits="objectBoundingBox">
      <feOffset dy=".5" in="SourceAlpha" result="shadowOffsetOuter1"/>
      <feGaussianBlur in="shadowOffsetOuter1" result="shadowBlurOuter1" stdDeviation=".25"/>
      <feColorMatrix in="shadowBlurOuter1" values="0 0 0 0 0   0 0 0 0 0   0 0 0 0 0  0 0 0 0.31 0"/>
    </filter>
    <path id="radioselectedfocused@2x-c" d="M11,22 C4.92486775,22 0,17.0751322 0,11 C0,4.92486775 4.92486775,0 11,0 C17.0751322,0 22,4.92486775 22,11 C22,17.0751322 17.0751322,22 11,22 Z M11,18.5 C15.1421356,18.5 18.5,15.1421356 18.5,11 C18.5,6.85786438 15.1421356,3.5 11,3.5 C6.85786438,3.5 3.5,6.85786438 3.5,11 C3.5,15.1421356 6.85786438,18.5 11,18.5 Z"/>
  </defs>
  <g fill="none" fill-rule="evenodd">
    <g transform="translate(3 3)">
      <circle cx="8" cy="8" r="8" fill="#999A9E"/>
      <path fill="#000" fill-opacity=".19" d="M8,16 C3.581722,16 0,12.418278 0,8 C0,3.581722 3.581722,0 8,0 C12.418278,0 16,3.581722 16,8 C16,12.418278 12.418278,16 8,16 Z M8,15.5 C12.1421356,15.5 15.5,12.1421356 15.5,8 C15.5,3.85786438 12.1421356,0.5 8,0.5 C3.85786438,0.5 0.5,3.85786438 0.5,8 C0.5,12.1421356 3.85786438,15.5 8,15.5 Z"/>
      <use fill="#000" filter="url(#radioselectedfocused@2x-a)" xlink:href="#radioselectedfocused@2x-b"/>
      <use fill="#FFF" xlink:href="#radioselectedfocused@2x-b"/>
    </g>
    <use fill="#A6A6A6" fill-opacity=".5" fill-rule="nonzero" xlink:href="#radioselectedfocused@2x-c"/>
  </g>
</svg>
