<!--
  - Copyright (C) 2025 The Android Open Source Project
  -
  - Licensed under the Apache License, Version 2.0 (the "License");
  - you may not use this file except in compliance with the License.
  - You may obtain a copy of the License at
  -
  -      http://www.apache.org/licenses/LICENSE-2.0
  -
  - Unless required by applicable law or agreed to in writing, software
  - distributed under the License is distributed on an "AS IS" BASIS,
  - WITHOUT WARRANTIES OR CONDITIONS OF ANY KIND, either express or implied.
  - See the License for the specific language governing permissions and
  - limitations under the License.
  -->
<svg width="16" height="16" viewBox="0 0 16 16" fill="none" xmlns="http://www.w3.org/2000/svg">
  <path fill-rule="evenodd" clip-rule="evenodd"
        d="M11.38 4.433a.5.5 0 11.866.5l-1.122 1.943a5.999 5.999 0 012.855 4.624.47.47 0 01-.479.5.541.541 0 01-.525-.5 5 5 0 00-9.95 0 .541.541 0 01-.525.5.47.47 0 01-.48-.5 5.999 5.999 0 012.853-4.622L3.75 4.933a.5.5 0 01.866-.5l1.152 1.996A5.984 5.984 0 018 6c.787 0 1.54.152 2.229.427l1.151-1.994z"
        fill="#3DDC84"/>
  <path d="M2.5 11.5h11" stroke="#3DDC84"/>
  <rect x="5" y="9" width="1" height="1" rx=".5" fill="#3DDC84"/>
  <rect x="10" y="9" width="1" height="1" rx=".5" fill="#3DDC84"/>
</svg>