<!-- Copyright 2000-2023 JetBrains s.r.o. and contributors. Use of this source code is governed by the Apache 2.0 license. -->
<svg width="14" height="14" viewBox="0 0 14 14" fill="none" xmlns="http://www.w3.org/2000/svg">
<path d="M0 1C0 0.447715 0.447715 0 1 0H5C5.55228 0 6 0.447715 6 1V5C6 5.55228 5.55228 6 5 6H1C0.447715 6 0 5.55228 0 5V1Z" fill="#57965C"/>
<path d="M7 1C7 0.447715 7.44772 0 8 0H12C12.5523 0 13 0.447715 13 1V5C13 5.55228 12.5523 6 12 6H8C7.44772 6 7 5.55228 7 5V1Z" fill="#F2C55C"/>
<path d="M0 8C0 7.44772 0.447715 7 1 7H5C5.55228 7 6 7.44772 6 8V12C6 12.5523 5.55228 13 5 13H1C0.447715 13 0 12.5523 0 12V8Z" fill="#548AF7"/>
<path d="M7 8C7 7.44772 7.44772 7 8 7H12C12.5523 7 13 7.44772 13 8V12C13 12.5523 12.5523 13 12 13H8C7.44772 13 7 12.5523 7 12V8Z" fill="#DB5C5C"/>
</svg>
