<!-- Copyright 2000-2023 JetBrains s.r.o. and contributors. Use of this source code is governed by the Apache 2.0 license. -->
<svg width="14" height="14" viewBox="0 0 14 14" fill="none" xmlns="http://www.w3.org/2000/svg">
<path fill-rule="evenodd" clip-rule="evenodd" d="M0 3C0 1.89543 0.895431 1 2 1H12C13.1046 1 14 1.89543 14 3V10C14 8.98555 13.6224 8.05931 13 7.35418V5H10V6C9.6547 6 9.31962 6.04375 9 6.12602V5H5V12H6.53513C6.75287 12.3764 7.03018 12.714 7.35418 13H2C0.89543 13 0 12.1046 0 11V3ZM5 2H9V4H5V2ZM4 2H2C1.44772 2 1 2.44772 1 3V4H4V2ZM1 5V11C1 11.5523 1.44772 12 2 12H4V5H1ZM13 4V3C13 2.44772 12.5523 2 12 2H10V4H13Z" fill="#CED0D6"/>
<circle cx="10" cy="10" r="2" fill="#25324D"/>
<path fill-rule="evenodd" clip-rule="evenodd" d="M11.7383 12.4454C11.2479 12.7946 10.6479 13 10 13C8.34315 13 7 11.6569 7 10C7 8.34315 8.34315 7 10 7C11.6569 7 13 8.34315 13 10C13 10.6479 12.7946 11.2479 12.4454 11.7383L13.8536 13.1464C14.0488 13.3417 14.0488 13.6583 13.8536 13.8536C13.6583 14.0488 13.3417 14.0488 13.1464 13.8536L11.7383 12.4454ZM12 10C12 11.1046 11.1046 12 10 12C8.89543 12 8 11.1046 8 10C8 8.89543 8.89543 8 10 8C11.1046 8 12 8.89543 12 10Z" fill="#548AF7"/>
</svg>
