<!-- Copyright 2000-2022 JetBrains s.r.o. and contributors. Use of this source code is governed by the Apache 2.0 license. -->
<svg width="12" height="12" viewBox="0 0 12 12" fill="none" xmlns="http://www.w3.org/2000/svg">
<path fill-rule="evenodd" clip-rule="evenodd" d="M9.87869 10.5858C9.48348 10.8476 9.00954 11 8.5 11C7.11929 11 6 9.88071 6 8.5C6 7.11929 7.11929 6 8.5 6C9.88071 6 11 7.11929 11 8.5C11 9.00954 10.8476 9.48348 10.5858 9.87869L11.8536 11.1464C12.0488 11.3417 12.0488 11.6583 11.8536 11.8536C11.6583 12.0488 11.3417 12.0488 11.1464 11.8536L9.87869 10.5858ZM10 8.5C10 9.32843 9.32843 10 8.5 10C7.67157 10 7 9.32843 7 8.5C7 7.67157 7.67157 7 8.5 7C9.32843 7 10 7.67157 10 8.5Z" fill="#3574F0"/>
<path fill-rule="evenodd" clip-rule="evenodd" d="M0 3V9C0 10.1046 0.895431 11 2 11H6.05051C5.75757 10.7129 5.51486 10.3748 5.33682 10H5V5H11V6.05051C11.6186 6.68178 12 7.54635 12 8.5V3C12 1.89543 11.1046 1 10 1H2C0.895431 1 0 1.89543 0 3ZM1 4V3C1 2.44772 1.44772 2 2 2H4V4H1ZM1 5V9C1 9.55228 1.44772 10 2 10H4V5H1ZM11 4V3C11 2.44772 10.5523 2 10 2H9V4H11ZM8 2H5V4H8V2Z" fill="#6C707E"/>
</svg>
