<!-- Copyright 2000-2022 JetBrains s.r.o. and contributors. Use of this source code is governed by the Apache 2.0 license. -->
<svg width="12" height="12" viewBox="0 0 12 12" fill="none" xmlns="http://www.w3.org/2000/svg">
<path fill-rule="evenodd" clip-rule="evenodd" d="M7.93234 4.09606H7.16372V4.66551C6.89586 4.26531 6.46027 4.03925 5.90911 4.03925C4.8237 4.03925 4.01085 4.89714 4.01085 6.0284C4.01085 7.15967 4.8237 8.01755 5.90911 8.01755C6.55662 8.01755 7.1019 7.73123 7.41548 7.27215C7.74795 7.72909 8.32315 8.00051 9.02789 8.00051C9.61859 8.00051 10.1129 7.79212 10.4593 7.42801C10.8055 7.06416 11 6.54924 11 5.94319C11 3.2237 8.75236 1 6 1C3.24639 1 1 3.27608 1 6.05681C1 8.7763 3.24764 11 6 11C7.321 11 8.51068 10.4549 9.1688 9.86031L9.21172 9.82154L8.62313 9.1741L8.58051 9.21208C8.01584 9.71525 7.10881 10.1746 6 10.1746C3.70199 10.1746 1.82543 8.31932 1.82543 6.05681C1.82543 3.73035 3.70344 1.82543 6 1.82543C8.29802 1.82543 10.1746 3.68068 10.1746 5.94319C10.1746 6.32376 10.0602 6.63854 9.86212 6.85747C9.66453 7.07582 9.3795 7.20349 9.02789 7.20349C8.38831 7.20349 7.93234 6.80255 7.93234 6.22723V4.09606ZM7.20036 4.84111H7.22138V4.15372H7.87468V4.15373H7.22139V4.84111H7.20037C7.20037 4.84111 7.20037 4.84111 7.20036 4.84111ZM6.65526 4.27404C6.44393 4.15855 6.19299 4.09692 5.90911 4.09692C4.85815 4.09692 4.06851 4.92632 4.06851 6.0284C4.06851 6.35209 4.13663 6.65225 4.25947 6.91479C4.13663 6.65226 4.06852 6.35209 4.06852 6.02841C4.06852 4.92633 4.85816 4.09692 5.90911 4.09692C6.19299 4.09692 6.44393 4.15855 6.65526 4.27404ZM7.41397 7.16799C7.42541 7.18573 7.4372 7.20321 7.44936 7.22044C7.4372 7.20321 7.42541 7.18573 7.41397 7.16799ZM7.92022 1.44316C7.32932 1.19507 6.68029 1.05767 6.00001 1.05767C3.27888 1.05767 1.05767 3.30728 1.05767 6.05681C1.05767 6.59165 1.14566 7.10714 1.30809 7.58978C1.14566 7.10714 1.05766 6.59165 1.05766 6.05681C1.05766 3.30728 3.27887 1.05766 6 1.05766C6.68028 1.05766 7.32932 1.19507 7.92022 1.44316ZM9.02789 7.26115C9.0279 7.26115 9.0279 7.26115 9.0279 7.26115C9.76073 7.26115 10.2322 6.72716 10.2322 5.9432C10.2322 5.65631 10.2025 5.37591 10.1459 5.10484C10.2025 5.37591 10.2322 5.65631 10.2322 5.94319C10.2322 6.72715 9.76072 7.26115 9.02789 7.26115ZM5.61846 10.2153C5.74418 10.2265 5.87144 10.2322 6.00001 10.2322C6.28121 10.2322 6.54963 10.2031 6.80304 10.1515C6.54962 10.2031 6.2812 10.2322 6 10.2322C5.87144 10.2322 5.74418 10.2265 5.61846 10.2153ZM5.9716 7.27734C5.32663 7.27734 4.83628 6.74587 4.83628 6.0284C4.83628 5.31094 5.32663 4.77947 5.9716 4.77947C6.61656 4.77947 7.10691 5.31094 7.10691 6.0284C7.10691 6.74587 6.61656 7.27734 5.9716 7.27734ZM5.29455 7.11781C5.48429 7.25591 5.71596 7.33501 5.9716 7.33501C6.6533 7.33501 7.16458 6.7726 7.16458 6.02841C7.16458 5.80691 7.11928 5.60151 7.03768 5.42225C7.11928 5.60151 7.16457 5.8069 7.16457 6.0284C7.16457 6.7726 6.6533 7.335 5.9716 7.335C5.71596 7.335 5.48429 7.25591 5.29455 7.11781Z" fill="#CED0D6"/>
</svg>
