<!-- Copyright 2000-2023 JetBrains s.r.o. and contributors. Use of this source code is governed by the Apache 2.0 license. -->
<svg width="14" height="14" viewBox="0 0 14 14" fill="none" xmlns="http://www.w3.org/2000/svg">
<path d="M8.72989 4.38506V5.35862H8.70012C8.35494 4.69 7.71609 4.3046 6.87126 4.3046C5.38276 4.3046 4.26437 5.47931 4.26437 7.04023C4.26437 8.60115 5.38276 9.77586 6.87126 9.77586C7.81103 9.77586 8.58828 9.33897 9.00264 8.65425C9.44195 9.33575 10.2602 9.75172 11.2885 9.75172C12.9218 9.75172 14 8.60115 14 6.91954C14 3.11379 10.854 0 7 0C3.14598 0 0 3.18621 0 7.08046C0 10.8862 3.14598 14 7 14C8.85057 14 10.5161 13.2356 11.4333 12.4069L10.7092 11.6103C9.89655 12.3345 8.5931 12.9943 7 12.9943C3.70115 12.9943 1.00575 10.331 1.00575 7.08046C1.00575 3.74138 3.70115 1.00575 7 1.00575C10.2989 1.00575 12.9943 3.66897 12.9943 6.91954C12.9943 8.02989 12.3264 8.78621 11.2885 8.78621C10.3471 8.78621 9.65517 8.1908 9.65517 7.32184V4.38506H8.72989ZM6.95977 8.8908C5.99425 8.8908 5.27011 8.09425 5.27011 7.04023C5.27011 5.98621 5.99425 5.18966 6.95977 5.18966C7.92529 5.18966 8.64943 5.98621 8.64943 7.04023C8.64943 8.09425 7.92529 8.8908 6.95977 8.8908Z" fill="#CED0D6"/>
</svg>
