<!-- Copyright 2000-2022 JetBrains s.r.o. and contributors. Use of this source code is governed by the Apache 2.0 license. -->
<svg width="14" height="14" viewBox="0 0 14 14" fill="none" xmlns="http://www.w3.org/2000/svg">
<path fill-rule="evenodd" clip-rule="evenodd" d="M9.38486 4.68855H8.45175V5.37987C8.12656 4.89401 7.59776 4.61959 6.92865 4.61959C5.61097 4.61959 4.62417 5.66106 4.62417 7.03441C4.62417 8.40777 5.61097 9.44924 6.92865 9.44924C7.71473 9.44924 8.3767 9.10164 8.75738 8.54432C9.161 9.09904 9.8593 9.42855 10.7149 9.42855C11.432 9.42855 12.032 9.17557 12.4526 8.73353C12.8729 8.29183 13.109 7.66671 13.109 6.93097C13.109 3.6295 10.3804 0.929932 7.03899 0.929932C3.69611 0.929932 0.968994 3.69309 0.968994 7.0689C0.968994 10.3704 3.69762 13.0699 7.03899 13.0699C8.64269 13.0699 10.087 12.4082 10.8859 11.6864L10.938 11.6393L10.2235 10.8533L10.1717 10.8994C9.48622 11.5102 8.38509 12.0679 7.03899 12.0679C4.2492 12.0679 1.97106 9.81559 1.97106 7.0689C1.97106 4.24457 4.25098 1.932 7.03899 1.932C9.82878 1.932 12.1069 4.18428 12.1069 6.93097C12.1069 7.39298 11.9681 7.77511 11.7276 8.04089C11.4877 8.30598 11.1417 8.46097 10.7149 8.46097C9.9384 8.46097 9.38486 7.97423 9.38486 7.27579V4.68855ZM8.49624 5.59304H8.52175V4.75855H9.31486V4.75856H8.52176V5.59304H8.49624C8.49624 5.59304 8.49624 5.59304 8.49624 5.59304ZM7.83448 4.90462C7.57793 4.76441 7.27328 4.68959 6.92865 4.68959C5.65279 4.68959 4.69417 5.69648 4.69417 7.03441C4.69417 7.42737 4.77686 7.79177 4.92599 8.11049C4.77686 7.79177 4.69417 7.42737 4.69417 7.03442C4.69417 5.69649 5.65279 4.68959 6.92866 4.68959C7.27329 4.68959 7.57793 4.76441 7.83448 4.90462ZM8.75555 8.41787C8.76944 8.4394 8.78376 8.46063 8.79852 8.48154C8.78376 8.46063 8.76944 8.43941 8.75555 8.41787ZM9.37014 1.46793C8.65279 1.16674 7.86486 0.999939 7.039 0.999939C3.73555 0.999939 1.039 3.73097 1.039 7.0689C1.039 7.7182 1.14583 8.344 1.34302 8.92993C1.14583 8.344 1.03899 7.7182 1.03899 7.0689C1.03899 3.73097 3.73555 0.999932 7.03899 0.999932C7.86486 0.999932 8.65279 1.16674 9.37014 1.46793ZM10.7149 8.53097C10.7149 8.53097 10.7149 8.53097 10.7149 8.53097C11.6045 8.53097 12.1769 7.8827 12.1769 6.93097C12.1769 6.58269 12.1408 6.24228 12.0721 5.91321C12.1408 6.24228 12.1769 6.58269 12.1769 6.93097C12.1769 7.88269 11.6045 8.53097 10.7149 8.53097ZM6.57581 12.1173C6.72843 12.1309 6.88293 12.1379 7.039 12.1379C7.38038 12.1379 7.70624 12.1025 8.01389 12.0398C7.70624 12.1025 7.38037 12.1379 7.03899 12.1379C6.88292 12.1379 6.72843 12.1309 6.57581 12.1173ZM7.00451 8.55062C6.22152 8.55062 5.62624 7.90542 5.62624 7.03441C5.62624 6.16341 6.22152 5.51821 7.00451 5.51821C7.7875 5.51821 8.38279 6.16341 8.38279 7.03441C8.38279 7.90542 7.7875 8.55062 7.00451 8.55062ZM6.18258 8.35695C6.41292 8.52461 6.69417 8.62063 7.00452 8.62063C7.8321 8.62063 8.45279 7.93787 8.45279 7.03442C8.45279 6.76552 8.3978 6.51616 8.29874 6.29854C8.3978 6.51616 8.45279 6.76551 8.45279 7.03441C8.45279 7.93786 7.8321 8.62062 7.00451 8.62062C6.69417 8.62062 6.41292 8.52461 6.18258 8.35695Z" fill="#6C707E"/>
</svg>
