<!-- Copyright 2000-2023 JetBrains s.r.o. and contributors. Use of this source code is governed by the Apache 2.0 license. -->
<svg width="14" height="14" viewBox="0 0 14 14" fill="none" xmlns="http://www.w3.org/2000/svg">
<path d="M5.5 11.5C7.98528 11.5 10 9.48528 10 7C10 4.51472 7.98528 2.5 5.5 2.5C3.01472 2.5 1 4.51472 1 7C1 9.48528 3.01472 11.5 5.5 11.5Z" fill="#F2FCF3"/>
<path fill-rule="evenodd" clip-rule="evenodd" d="M5 5H4V4H7V5H6V9H7V10H4V9H5V5Z" fill="#208A3C"/>
<path fill-rule="evenodd" clip-rule="evenodd" d="M11.5 6C11.7761 6 12 6.22386 12 6.5V12.2929L13.1464 11.1464C13.3417 10.9512 13.6583 10.9512 13.8536 11.1464C14.0488 11.3417 14.0488 11.6583 13.8536 11.8536L11.8536 13.8536C11.6583 14.0488 11.3417 14.0488 11.1464 13.8536L9.14645 11.8536C8.95118 11.6583 8.95118 11.3417 9.14645 11.1464C9.34171 10.9512 9.65829 10.9512 9.85355 11.1464L11 12.2929V6.5C11 6.22386 11.2239 6 11.5 6Z" fill="#6C707E"/>
<path d="M5.5 1.5C7.91689 1.5 9.96967 3.05893 10.7077 5.22611C10.2828 5.49095 10 5.96245 10 6.5V7C10 4.51472 7.98528 2.5 5.5 2.5C3.01472 2.5 1 4.51472 1 7C1 9.48528 3.01472 11.5 5.5 11.5C6.61537 11.5 7.63597 11.0942 8.4222 10.4222L8.43934 10.4393C8.05008 10.8286 7.91949 11.3786 8.04756 11.8757C7.28593 12.2745 6.41931 12.5 5.5 12.5C2.46243 12.5 0 10.0376 0 7C0 3.96243 2.46243 1.5 5.5 1.5Z" fill="#208A3C"/>
</svg>
