<!-- Copyright 2000-2023 JetBrains s.r.o. and contributors. Use of this source code is governed by the Apache 2.0 license. -->
<svg width="14" height="14" viewBox="0 0 14 14" fill="none" xmlns="http://www.w3.org/2000/svg">
<g clip-path="url(#clip0_5188_55790)">
<path d="M10 7C10 9.48528 7.98528 11.5 5.5 11.5C3.01472 11.5 1 9.48528 1 7C1 4.51472 3.01472 2.5 5.5 2.5C7.98528 2.5 10 4.51472 10 7Z" fill="#402929"/>
<path d="M7.46304 10.08C7.29237 10.08 7.14837 10.0507 7.03104 9.992C6.91904 9.93333 6.8257 9.85067 6.75104 9.744C6.6817 9.632 6.62037 9.496 6.56704 9.336L6.11904 8C6.08704 7.89867 6.0497 7.792 6.00704 7.68C5.96437 7.56267 5.9217 7.44267 5.87904 7.32C5.8417 7.19733 5.8097 7.08 5.78304 6.968C5.75637 6.85067 5.73504 6.74133 5.71904 6.64H5.68704C5.6657 6.85867 5.6257 7.07467 5.56704 7.288C5.50837 7.50133 5.44437 7.728 5.37504 7.968L4.75904 10H3.66304L5.23904 5.68L5.10304 5.312C5.0177 5.06667 4.89504 4.904 4.73504 4.824C4.58037 4.73867 4.39104 4.696 4.16704 4.696C4.07637 4.696 3.9937 4.70133 3.91904 4.712C3.84437 4.72267 3.78037 4.73333 3.72704 4.744V3.944C3.77504 3.93333 3.82837 3.92267 3.88704 3.912C3.95104 3.90133 4.02037 3.89333 4.09504 3.888C4.1697 3.88267 4.24704 3.88 4.32704 3.88C4.62037 3.88 4.8737 3.92 5.08704 4C5.30037 4.07467 5.4817 4.20267 5.63104 4.384C5.7857 4.56533 5.92437 4.816 6.04704 5.136L7.35904 8.64C7.42304 8.80533 7.47637 8.93067 7.51904 9.016C7.5617 9.10133 7.60704 9.16 7.65504 9.192C7.70304 9.224 7.75637 9.24 7.81504 9.24C7.86837 9.24 7.9137 9.23733 7.95104 9.232C7.98837 9.22133 8.0257 9.21067 8.06304 9.2V9.968C8.0257 9.98933 7.97237 10.008 7.90304 10.024C7.83371 10.04 7.75904 10.0533 7.67904 10.064C7.60437 10.0747 7.53237 10.08 7.46304 10.08Z" fill="#DB5C5C"/>
<path fill-rule="evenodd" clip-rule="evenodd" d="M11.5 8C11.2239 8 11 7.77614 11 7.5L11 1.70711L9.85355 2.85355C9.65829 3.04882 9.34171 3.04882 9.14645 2.85355C8.95118 2.65829 8.95118 2.34171 9.14645 2.14645L11.1464 0.146447C11.3417 -0.0488155 11.6583 -0.0488155 11.8536 0.146447L13.8536 2.14645C14.0488 2.34171 14.0488 2.65829 13.8536 2.85355C13.6583 3.04882 13.3417 3.04882 13.1464 2.85355L12 1.70711L12 7.5C12 7.77614 11.7761 8 11.5 8Z" fill="#DB5C5C"/>
<path d="M10 7C10 9.48528 7.98528 11.5 5.5 11.5C3.01472 11.5 1 9.48528 1 7C1 4.51472 3.01472 2.5 5.5 2.5C6.61537 2.5 7.63597 2.90579 8.4222 3.5778L8.43934 3.56066C8.05008 3.1714 7.91948 2.62142 8.04756 2.12432C7.28593 1.72554 6.41931 1.5 5.5 1.5C2.46243 1.5 0 3.96243 0 7C0 10.0376 2.46243 12.5 5.5 12.5C7.91689 12.5 9.96967 10.9411 10.7077 8.7739C10.2828 8.50906 10 8.03755 10 7.5V7Z" fill="#DB5C5C"/>
</g>
<defs>
<clipPath id="clip0_5188_55790">
<rect width="14" height="14" fill="white"/>
</clipPath>
</defs>
</svg>
