<!-- Copyright 2000-2023 JetBrains s.r.o. and contributors. Use of this source code is governed by the Apache 2.0 license. -->
<svg width="14" height="14" viewBox="0 0 14 14" fill="none" xmlns="http://www.w3.org/2000/svg">
<path d="M1 2.5C1 2.22386 1.22386 2 1.5 2C1.77614 2 2 2.22386 2 2.5V11.5C2 11.7761 1.77614 12 1.5 12C1.22386 12 1 11.7761 1 11.5V2.5Z" fill="#CED0D6"/>
<path d="M3 3.5C3 3.22386 3.22386 3 3.5 3H12.5C12.7761 3 13 3.22386 13 3.5C13 3.77614 12.7761 4 12.5 4H3.5C3.22386 4 3 3.77614 3 3.5Z" fill="#CED0D6"/>
<path d="M3 6.5C3 6.22386 3.22386 6 3.5 6H12.5C12.7761 6 13 6.22386 13 6.5C13 6.77614 12.7761 7 12.5 7H3.5C3.22386 7 3 6.77614 3 6.5Z" fill="#CED0D6"/>
<path d="M3 9.5C3 9.22386 3.22386 9 3.5 9H8.5C8.77614 9 9 9.22386 9 9.5C9 9.77614 8.77614 10 8.5 10H3.5C3.22386 10 3 9.77614 3 9.5Z" fill="#CED0D6"/>
</svg>
