<!-- Copyright 2000-2023 JetBrains s.r.o. and contributors. Use of this source code is governed by the Apache 2.0 license. -->
<svg width="14" height="14" viewBox="0 0 14 14" fill="none" xmlns="http://www.w3.org/2000/svg">
<path d="M10 7C10 9.48528 7.98528 11.5 5.5 11.5C3.01472 11.5 1 9.48528 1 7C1 4.51472 3.01472 2.5 5.5 2.5C7.98528 2.5 10 4.51472 10 7Z" fill="#EDF3FF"/>
<path fill-rule="evenodd" clip-rule="evenodd" d="M5.4918 10C3.72951 10 2.5 8.64917 2.5 7.01657V7C2.5 5.3674 3.7459 4 5.5082 4C7.27049 4 8.5 5.35083 8.5 6.98343V7C8.5 8.6326 7.2541 10 5.4918 10ZM5.5082 9.05525C6.64754 9.05525 7.44262 8.14365 7.44262 7.01657V7C7.44262 5.87293 6.63115 4.94475 5.4918 4.94475C4.35246 4.94475 3.55738 5.85635 3.55738 6.98343V7C3.55738 8.12707 4.36885 9.05525 5.5082 9.05525Z" fill="#3574F0"/>
<path fill-rule="evenodd" clip-rule="evenodd" d="M11.5 8C11.2239 8 11 7.77614 11 7.5L11 1.70711L9.85355 2.85355C9.65829 3.04882 9.34171 3.04882 9.14645 2.85355C8.95118 2.65829 8.95118 2.34171 9.14645 2.14645L11.1464 0.146447C11.3417 -0.0488155 11.6583 -0.0488155 11.8536 0.146447L13.8536 2.14645C14.0488 2.34171 14.0488 2.65829 13.8536 2.85355C13.6583 3.04882 13.3417 3.04882 13.1464 2.85355L12 1.70711L12 7.5C12 7.77614 11.7761 8 11.5 8Z" fill="#DB3B4B"/>
<path d="M10 7C10 9.48528 7.98528 11.5 5.5 11.5C3.01472 11.5 1 9.48528 1 7C1 4.51472 3.01472 2.5 5.5 2.5C6.61537 2.5 7.63597 2.90579 8.4222 3.5778L8.43934 3.56066C8.05008 3.1714 7.91948 2.62142 8.04756 2.12432C7.28593 1.72554 6.41931 1.5 5.5 1.5C2.46243 1.5 0 3.96243 0 7C0 10.0376 2.46243 12.5 5.5 12.5C7.91689 12.5 9.96967 10.9411 10.7077 8.7739C10.2828 8.50906 10 8.03755 10 7.5V7Z" fill="#3574F0"/>
</svg>
