<!-- Copyright 2000-2023 JetBrains s.r.o. and contributors. Use of this source code is governed by the Apache 2.0 license. -->
<svg width="14" height="14" viewBox="0 0 14 14" fill="none" xmlns="http://www.w3.org/2000/svg">
<path fill-rule="evenodd" clip-rule="evenodd" d="M3.14635 3.64645C3.34162 3.45118 3.6582 3.45118 3.85347 3.64645C4.04873 3.84171 4.04873 4.15829 3.85347 4.35355L1.707 6.5L7.70698 6.5C7.98312 6.5 8.20698 6.72386 8.20698 7C8.20698 7.27614 7.98312 7.5 7.70698 7.5L1.707 7.5L3.85347 9.64645C4.04873 9.84171 4.04873 10.1583 3.85347 10.3536C3.6582 10.5488 3.34162 10.5488 3.14635 10.3536L0.146326 7.35355C0.0525565 7.25978 -0.000122082 7.13261 -0.00012207 7C-0.000122059 6.86739 0.0525565 6.74021 0.146326 6.64645L3.14635 3.64645Z" fill="#CED0D6"/>
<path d="M7.70591 5.5L9.56594 2.25218C9.75803 1.91678 10.2415 1.91678 10.4336 2.25218L12.8671 6.50138C13.0436 6.80948 13.0436 7.18808 12.8672 7.49622L10.4336 11.7477C10.2416 12.0833 9.75795 12.0833 9.56589 11.7477L7.70687 8.5H6.55446L8.69814 12.245C9.27433 13.2517 10.7252 13.2517 11.3014 12.245L13.735 7.99355C14.0877 7.37726 14.0876 6.62006 13.7347 6.00386L11.3012 1.75466C10.7249 0.748446 9.27457 0.748446 8.69831 1.75466L6.55334 5.5H7.70591Z" fill="#57965C"/>
</svg>
