<!-- Copyright 2000-2022 JetBrains s.r.o. and contributors. Use of this source code is governed by the Apache 2.0 license. -->
<svg width="12" height="12" viewBox="0 0 12 12" fill="none" xmlns="http://www.w3.org/2000/svg">
<path fill-rule="evenodd" clip-rule="evenodd" d="M2.35348 3.64645C2.54874 3.45118 2.86532 3.45118 3.06059 3.64645C3.25585 3.84171 3.25585 4.15829 3.06058 4.35355L1.91414 5.5L6.70703 5.5C6.98317 5.5 7.20703 5.72386 7.20703 6C7.20703 6.27614 6.98317 6.5 6.70703 6.5L1.91414 6.5L3.06058 7.64645C3.25585 7.84171 3.25585 8.15829 3.06058 8.35355C2.86532 8.54882 2.54874 8.54882 2.35348 8.35355L0.353478 6.35355L-7.60357e-05 6L0.353478 5.64645L2.35348 3.64645Z" fill="#CED0D6"/>
<path fill-rule="evenodd" clip-rule="evenodd" d="M9.73018 1.70164C9.17011 0.759443 7.92992 0.759448 7.36985 1.70165L6.00366 3.99997H7.13634L8.15662 2.28356C8.34331 1.96949 8.75671 1.96949 8.9434 2.28356L10.9767 5.70416C11.0815 5.88051 11.0815 6.10972 10.9767 6.28607L8.9434 9.70668C8.75671 10.0207 8.34332 10.0207 8.15663 9.70668L7.14211 7.99997H6.00943L7.36985 10.2886C7.92992 11.2308 9.17011 11.2308 9.73018 10.2886L11.7635 6.86798C12.078 6.33894 12.078 5.65129 11.7635 5.12225L9.73018 1.70164Z" fill="#57965C"/>
</svg>
