<!-- Copyright 2000-2022 JetBrains s.r.o. and contributors. Use of this source code is governed by the Apache 2.0 license. -->
<svg width="12" height="12" viewBox="0 0 12 12" fill="none" xmlns="http://www.w3.org/2000/svg">
<path d="M7.15909 5.30133C7.61364 5.61185 7.61364 6.38815 7.15909 6.69867L1.02273 10.8907C0.568182 11.2012 5.24731e-07 10.8131 5.51878e-07 10.192L9.18357e-07 1.80796C9.45504e-07 1.18692 0.568182 0.798767 1.02273 1.10929L7.15909 5.30133Z" fill="#5FB865"/>
<path fill-rule="evenodd" clip-rule="evenodd" d="M11.159 6.69867C11.6136 6.38815 11.6136 5.61185 11.159 5.30133L5.02268 1.10929C4.58061 0.807295 4.03107 1.16613 4.00122 1.75733L9 5.30133C9.45455 5.61185 9.45455 6.38815 9 6.69867L4.00122 10.2427C4.03107 10.8339 4.58061 11.1927 5.02268 10.8907L11.159 6.69867Z" fill="#5FB865"/>
</svg>
