<!-- Copyright 2000-2022 JetBrains s.r.o. and contributors. Use of this source code is governed by the Apache 2.0 license. -->
<svg width="12" height="12" viewBox="0 0 12 12" fill="none" xmlns="http://www.w3.org/2000/svg">
<path d="M6.72727 5.44106C7.09091 5.68948 7.09091 6.31052 6.72727 6.55894L1.81818 9.91257C1.45455 10.161 1 9.85046 1 9.35363L1 2.64637C1 2.14954 1.45455 1.83901 1.81818 2.08743L6.72727 5.44106Z" fill="#5FB865"/>
<path fill-rule="evenodd" clip-rule="evenodd" d="M8.20001 6.55894C8.56364 6.31052 8.56364 5.68948 8.2 5.44106L5 2.99194V2.64637C5 2.14954 5.45455 1.83901 5.81818 2.08743L10.7273 5.44106C11.0909 5.68948 11.0909 6.31052 10.7273 6.55894L5.81818 9.91257C5.45455 10.161 5 9.85046 5 9.35363V9.00806L8.20001 6.55894Z" fill="#5FB865"/>
</svg>
