<!-- Copyright 2000-2023 JetBrains s.r.o. and contributors. Use of this source code is governed by the Apache 2.0 license. -->
<svg width="14" height="14" viewBox="0 0 14 14" fill="none" xmlns="http://www.w3.org/2000/svg">
<path d="M8.35631 6.25929C8.8171 6.65809 8.8171 7.37278 8.35631 7.77157L3.15754 12.2709C2.50983 12.8315 1.50313 12.3714 1.50313 11.5148L1.50313 2.5161C1.50313 1.6595 2.50983 1.19939 3.15754 1.75996L8.35631 6.25929Z" fill="#253627"/>
<path fill-rule="evenodd" clip-rule="evenodd" d="M8.68352 5.88125C9.3747 6.47944 9.3747 7.55148 8.68352 8.14967L3.48475 12.649C2.51318 13.4899 1.00313 12.7997 1.00313 11.5148L1.00313 2.51612C1.00313 1.23122 2.51318 0.541059 3.48475 1.38191L8.68352 5.88125ZM8.02911 7.39353C8.2595 7.19413 8.2595 6.83678 8.02911 6.63739L2.83034 2.13805C2.50648 1.85777 2.00313 2.08782 2.00313 2.51612L2.00313 11.5148C2.00313 11.9431 2.50648 12.1731 2.83034 11.8929L8.02911 7.39353Z" fill="#57965C"/>
<path d="M6.85715 1.5L12.3563 6.2593C12.8171 6.65809 12.8171 7.37279 12.3563 7.77158L6.89282 12.5" stroke="#57965C" stroke-linecap="round"/>
</svg>
