<!-- Copyright 2000-2023 JetBrains s.r.o. and contributors. Use of this source code is governed by the Apache 2.0 license. -->
<svg width="14" height="14" viewBox="0 0 14 14" fill="none" xmlns="http://www.w3.org/2000/svg">
<path d="M10.9681 6.09565C10.9892 5.89999 11 5.70126 11 5.5C11 2.46243 8.53757 0 5.5 0C2.46243 0 0 2.46243 0 5.5C0 8.53757 2.46243 11 5.5 11C5.66854 11 5.83532 10.9924 6 10.9776V7.50216C6 5.53926 8.15852 4.34204 9.8237 5.38136L10.9681 6.09565Z" fill="#E55765"/>
<path d="M5.5 2.5L5.5 6" stroke="white" stroke-width="1.2" stroke-linecap="round"/>
<path d="M6.25 8.25C6.25 8.66421 5.91421 9 5.5 9C5.08579 9 4.75 8.66421 4.75 8.25C4.75 7.83579 5.08579 7.5 5.5 7.5C5.91421 7.5 6.25 7.83579 6.25 8.25Z" fill="white"/>
<path fill-rule="evenodd" clip-rule="evenodd" d="M7 7.50215C7 6.32441 8.29512 5.60608 9.29422 6.22967L13.2962 8.7275C14.2372 9.31485 14.2372 10.6851 13.2962 11.2725L9.29422 13.7703C8.29512 14.3939 7 13.6756 7 12.4978V7.50215ZM8.76474 7.07799C8.43171 6.87013 8 7.10957 8 7.50215V12.4978C8 12.8904 8.43171 13.1298 8.76474 12.922L12.7667 10.4241C13.0804 10.2284 13.0804 9.77161 12.7667 9.57582L8.76474 7.07799Z" fill="#57965C"/>
<path d="M8 7.50217C8 7.10959 8.43171 6.87015 8.76474 7.07801L12.7667 9.57584C13.0804 9.77163 13.0804 10.2284 12.7667 10.4242L8.76474 12.922C8.43171 13.1299 8 12.8904 8 12.4978V7.50217Z" fill="#253627"/>
</svg>
