<!-- Copyright 2000-2023 JetBrains s.r.o. and contributors. Use of this source code is governed by the Apache 2.0 license. -->
<svg width="14" height="14" viewBox="0 0 14 14" fill="none" xmlns="http://www.w3.org/2000/svg">
<path d="M10.9681 6.09565C10.9892 5.89999 11 5.70126 11 5.5C11 2.46243 8.53757 0 5.5 0C2.46243 0 0 2.46243 0 5.5C0 8.53757 2.46243 11 5.5 11C5.66854 11 5.83532 10.9924 6 10.9776V7.50216C6 5.53926 8.15852 4.34204 9.8237 5.38136L10.9681 6.09565Z" fill="#F2C55C"/>
<path fill-rule="evenodd" clip-rule="evenodd" d="M7 7.50215C7 6.32441 8.29512 5.60608 9.29422 6.22967L13.2962 8.7275C14.2372 9.31485 14.2372 10.6851 13.2962 11.2725L9.29422 13.7703C8.29512 14.3939 7 13.6756 7 12.4978V7.50215ZM8.76474 7.07799C8.43171 6.87013 8 7.10957 8 7.50215V12.4978C8 12.8904 8.43171 13.1298 8.76474 12.922L12.7667 10.4241C13.0804 10.2284 13.0804 9.77161 12.7667 9.57582L8.76474 7.07799Z" fill="#57965C"/>
<path d="M8 7.50214C8 7.10956 8.43171 6.87012 8.76474 7.07798L12.7667 9.57581C13.0804 9.7716 13.0804 10.2284 12.7667 10.4241L8.76474 12.922C8.43171 13.1298 8 12.8904 8 12.4978V7.50214Z" fill="#253627"/>
<path d="M2.99995 3.00002C2.76564 3.23433 2.76564 3.61423 2.99996 3.84854L4.65143 5.50002L2.99995 7.15149C2.76564 7.3858 2.76564 7.7657 2.99995 8.00002C3.23427 8.23433 3.61417 8.23433 3.84848 8.00001L5.49995 6.34854L6.06718 6.91576C6.16799 6.48733 6.37694 6.11168 6.65752 5.80905L6.34848 5.50002L7.99995 3.84854C8.23427 3.61423 8.23427 3.23433 7.99995 3.00002C7.76564 2.7657 7.38574 2.7657 7.15143 3.00002L5.49995 4.65149L3.84848 3.00002C3.61417 2.7657 3.23427 2.7657 2.99995 3.00002Z" fill="#2B2D30"/>
</svg>
