<!-- Copyright 2000-2022 JetBrains s.r.o. and contributors. Use of this source code is governed by the Apache 2.0 license. -->
<svg width="12" height="12" viewBox="0 0 12 12" fill="none" xmlns="http://www.w3.org/2000/svg">
<path fill-rule="evenodd" clip-rule="evenodd" d="M8.99566 4.69947C8.99854 4.63334 9 4.56684 9 4.5C9 2.01472 6.98528 0 4.5 0C2.01472 0 0 2.01472 0 4.5C0 6.98528 2.01472 9 4.5 9C5.02595 9 5.53083 8.90977 6 8.74394L6 5.48478C6 4.44464 7.14085 3.55908 8.20557 4.2137L8.99566 4.69947ZM8.81971 5.76518L7.68182 5.06557C7.37879 4.87926 7 5.11215 7 5.48478L7 8.24223C7.86645 7.66225 8.52024 6.78934 8.81971 5.76518Z" fill="#FCC75B"/>
<path d="M11.7727 7.5808C12.0758 7.76711 12.0758 8.23289 11.7727 8.4192L7.68182 10.9344C7.37879 11.1207 7 10.8878 7 10.5152L7 5.48478C7 5.11215 7.37879 4.87926 7.68182 5.06557L11.7727 7.5808Z" fill="#5FB865"/>
<path fill-rule="evenodd" clip-rule="evenodd" d="M2.3713 3.07572C2.17604 2.88046 2.17604 2.56388 2.3713 2.36861C2.56656 2.17335 2.88314 2.17335 3.07841 2.36861L4.49262 3.78283L5.90683 2.36861C6.1021 2.17335 6.41868 2.17335 6.61394 2.36861C6.8092 2.56388 6.8092 2.88046 6.61394 3.07572L5.19973 4.48993L6.01173 5.30194C6.004 5.36212 6 5.42313 6 5.48469V6.68468C5.96684 6.66442 5.93553 6.63995 5.90683 6.61126L4.49262 5.19704L3.07841 6.61126C2.88314 6.80652 2.56656 6.80652 2.3713 6.61126C2.17604 6.41599 2.17604 6.09941 2.3713 5.90415L3.78551 4.48994L2.3713 3.07572Z" fill="#7D5020"/>
</svg>
