<svg width="14" height="14" viewBox="0 0 14 14" fill="none" xmlns="http://www.w3.org/2000/svg">
<path fill-rule="evenodd" clip-rule="evenodd" d="M10.5 14C12.433 14 14 12.433 14 10.5C14 8.567 12.433 7 10.5 7C8.567 7 7 8.567 7 10.5C7 12.433 8.567 14 10.5 14ZM11 8.5C11 8.22386 10.7761 8 10.5 8C10.2239 8 10 8.22386 10 8.5V10.5C10 10.6326 10.0527 10.7598 10.1464 10.8536L11.5607 12.2678C11.7559 12.463 12.0725 12.463 12.2678 12.2678C12.463 12.0725 12.463 11.7559 12.2678 11.5607L11 10.2929V8.5Z" fill="#4682FA"/>
<path d="M1 1.80404C1.0001 0.649501 2.25007 -0.0728801 3.25 0.50424L11.1523 5.06674L11.2344 5.12631C11.4082 5.2806 11.4557 5.54117 11.335 5.75033C11.214 5.95941 10.9647 6.04772 10.7441 5.97397L10.6523 5.93295L2.75 1.37045C2.41673 1.17814 2.0001 1.41927 2 1.80404V12.1956C2 12.5805 2.41669 12.8215 2.75 12.6292L6 10.7523V11.9066L3.25 13.4945C2.25 14.0718 1 13.3503 1 12.1956V1.80404Z" fill="#208A3C"/>
<path d="M2 1.80375C2.00039 1.41928 2.41687 1.17811 2.75 1.37016L10.6523 5.93266L10.7441 5.97368C10.7918 5.98962 10.8409 5.99688 10.8896 5.99809V6.00004L10.5 6.00102C8.01472 6.00102 6 8.01574 6 10.501V10.752L2.75 12.629C2.41669 12.8212 2 12.5802 2 12.1954V1.80375Z" fill="#F2FCF3"/>
</svg>
