<!-- Copyright 2000-2023 JetBrains s.r.o. and contributors. Use of this source code is governed by the Apache 2.0 license. -->
<svg width="14" height="14" viewBox="0 0 14 14" fill="none" xmlns="http://www.w3.org/2000/svg">
<g clip-path="url(#clip0_5188_55842)">
<path d="M10 7C10 9.48528 7.98528 11.5 5.5 11.5C3.01472 11.5 1 9.48528 1 7C1 4.51472 3.01472 2.5 5.5 2.5C7.98528 2.5 10 4.51472 10 7Z" fill="#F2FCF3"/>
<path d="M5.5 4V10M4 9.5H7M4 4.5H7" stroke="#208A3C"/>
<path fill-rule="evenodd" clip-rule="evenodd" d="M11.5 7.5C11.7761 7.5 12 7.72386 12 8V12.2929L13.1464 11.1464C13.3417 10.9512 13.6583 10.9512 13.8536 11.1464C14.0488 11.3417 14.0488 11.6583 13.8536 11.8536L11.8536 13.8536C11.6583 14.0488 11.3417 14.0488 11.1464 13.8536L9.14645 11.8536C8.95118 11.6583 8.95118 11.3417 9.14645 11.1464C9.34171 10.9512 9.65829 10.9512 9.85355 11.1464L11 12.2929V8C11 7.72386 11.2239 7.5 11.5 7.5Z" fill="#6C707E"/>
<path fill-rule="evenodd" clip-rule="evenodd" d="M11.5 6.5C11.2239 6.5 11 6.27614 11 6L11 1.70711L9.85355 2.85355C9.65829 3.04882 9.34171 3.04882 9.14645 2.85355C8.95118 2.65829 8.95118 2.34171 9.14645 2.14645L11.1464 0.146447C11.3417 -0.0488155 11.6583 -0.0488155 11.8536 0.146447L13.8536 2.14645C14.0488 2.34171 14.0488 2.65829 13.8536 2.85355C13.6583 3.04882 13.3417 3.04882 13.1464 2.85355L12 1.70711L12 6C12 6.27614 11.7761 6.5 11.5 6.5Z" fill="#DB3B4B"/>
<path d="M8.43934 3.56066C8.05008 3.1714 7.91948 2.62142 8.04756 2.12432C7.28593 1.72554 6.41931 1.5 5.5 1.5C2.46243 1.5 0 3.96243 0 7C0 10.0376 2.46243 12.5 5.5 12.5C6.41931 12.5 7.28593 12.2745 8.04756 11.8757C7.91949 11.3786 8.05008 10.8286 8.43934 10.4393L8.4222 10.4222C7.63597 11.0942 6.61537 11.5 5.5 11.5C3.01472 11.5 1 9.48528 1 7C1 4.51472 3.01472 2.5 5.5 2.5C6.61537 2.5 7.63597 2.90579 8.4222 3.5778L8.43934 3.56066Z" fill="#208A3C"/>
</g>
<defs>
<clipPath id="clip0_5188_55842">
<rect width="14" height="14" fill="white"/>
</clipPath>
</defs>
</svg>
