<!-- Copyright 2000-2023 JetBrains s.r.o. and contributors. Use of this source code is governed by the Apache 2.0 license. -->
<svg width="14" height="14" viewBox="0 0 14 14" fill="none" xmlns="http://www.w3.org/2000/svg">
<path fill-rule="evenodd" clip-rule="evenodd" d="M4 14V11L10.7031 4.29686C11.0937 3.90634 11.7268 3.90634 12.1173 4.29686L13.7031 5.88265C14.0937 6.27317 14.0937 6.90634 13.7031 7.29686L7 14H4ZM5 13V11.4142L9.35355 7.06065L10.9393 8.64643L6.58579 13H5ZM11.6464 7.93933L12.996 6.58975L11.4102 5.00397L10.0607 6.35354L11.6464 7.93933Z" fill="#5A5D63"/>
<path fill-rule="evenodd" clip-rule="evenodd" d="M1 9H0V0H3.03487C3.73658 0 4.31256 0.119874 4.76282 0.359623C5.21308 0.596449 5.54639 0.922449 5.76275 1.33762C5.97911 1.7528 6.08729 2.22499 6.08729 2.75419C6.08729 3.28339 5.97911 3.75266 5.76275 4.16199C5.54639 4.57131 5.21454 4.89293 4.76721 5.12683C4.65576 5.18437 4.5366 5.23475 4.40974 5.27795L5.7927 7.79309L4.97994 8.60585L3.28224 5.46892C3.2072 5.47184 3.13059 5.4733 3.05241 5.4733H1V9ZM3.01733 4.49091H1V1H2.99979C3.48513 1 3.87546 1.0394 4.17076 1.18851C4.46606 1.3347 4.68095 1.54229 4.81545 1.81128C4.94994 2.08026 5.01719 2.39457 5.01719 2.75419C5.01719 3.11381 4.94994 3.42373 4.81545 3.68395C4.68388 3.94124 4.47044 4.14006 4.17514 4.2804C3.88277 4.42074 3.49683 4.49091 3.01733 4.49091Z" fill="#5A5D63"/>
</svg>
