<!-- Copyright 2000-2022 JetBrains s.r.o. and contributors. Use of this source code is governed by the Apache 2.0 license. -->
<svg width="12" height="12" viewBox="0 0 12 12" fill="none" xmlns="http://www.w3.org/2000/svg">
<path d="M9.93305 7.68786L11.2967 6.32206C11.5687 6.057 11.5654 5.62784 11.301 5.36061L10.2131 4.20452L10.2103 4.20173C9.94282 3.93481 9.50564 3.93039 9.23899 4.20269L7.83915 5.59396M9.93305 7.68786L7.83915 5.59396M9.93305 7.68786L6.11331 11.5H4.00024L4 9.42609L7.83915 5.59396" stroke="#C9CCD6" stroke-miterlimit="10"/>
<path fill-rule="evenodd" clip-rule="evenodd" d="M3.97716 6.85127L2.629 4.587H1.111V7.7H0V0H3.179C3.68867 0 4.136 0.0953334 4.521 0.286C4.906 0.473 5.203 0.738834 5.412 1.0835C5.621 1.42817 5.7255 1.82783 5.7255 2.2825C5.7255 2.67117 5.6485 3.02133 5.4945 3.333C5.3405 3.64467 5.1205 3.90317 4.8345 4.1085C4.5485 4.31017 4.20933 4.4495 3.817 4.5265L4.7602 6.06822L3.97716 6.85127ZM1.111 3.597V0.990001H3.146C3.42833 0.990001 3.67583 1.04317 3.8885 1.1495C4.10483 1.25583 4.26983 1.40617 4.3835 1.6005C4.50083 1.79483 4.5595 2.024 4.5595 2.288C4.5595 2.552 4.50083 2.783 4.3835 2.981C4.26983 3.179 4.10483 3.33117 3.8885 3.4375C3.67583 3.54383 3.42833 3.597 3.146 3.597H1.111Z" fill="#C9CCD6"/>
</svg>
