<!-- Copyright 2000-2022 JetBrains s.r.o. and contributors. Use of this source code is governed by the Apache 2.0 license. -->
<svg fill="none" width="14" height="14" viewBox="0 0 14 14" xmlns="http://www.w3.org/2000/svg">
  <g transform="matrix(.857 0 0 .857 .143 .143)" stroke="#9DA0A8">
    <circle cx="8" cy="8" r="6.5"/>
    <path d="m10.5 8c0 1.88-0.328 3.56-0.838 4.75-0.256 0.596-0.547 1.05-0.845 1.34-0.296 0.292-0.571 0.406-0.817 0.406s-0.52-0.114-0.817-0.406c-0.298-0.294-0.59-0.745-0.845-1.34-0.51-1.19-0.838-2.87-0.838-4.75s0.328-3.56 0.838-4.75c0.256-0.596 0.547-1.05 0.845-1.34 0.296-0.292 0.571-0.406 0.817-0.406s0.52 0.114 0.817 0.406c0.298 0.294 0.59 0.745 0.845 1.34 0.51 1.19 0.838 2.87 0.838 4.75z"/>
    <path d="m14.2 5.5h-12.4"/>
    <path d="m14.2 10.5h-12.4"/>
  </g>
</svg>
