<!-- Copyright 2000-2023 JetBrains s.r.o. and contributors. Use of this source code is governed by the Apache 2.0 license. -->
<svg width="14" height="14" viewBox="0 0 14 14" fill="none" xmlns="http://www.w3.org/2000/svg">
<path fill-rule="evenodd" clip-rule="evenodd" d="M4.85343 10.3536C4.65817 10.5488 4.34159 10.5488 4.14632 10.3536C3.95106 10.1583 3.95106 9.84171 4.14632 9.64645L6.29277 7.5L0.499878 7.5C0.223736 7.5 -0.00012207 7.27614 -0.00012207 7C-0.00012207 6.72386 0.223736 6.5 0.499878 6.5L6.29277 6.5L4.14632 4.35355C3.95106 4.15829 3.95106 3.84171 4.14632 3.64645C4.34159 3.45118 4.65817 3.45118 4.85343 3.64645L7.85343 6.64645C8.04869 6.84171 8.04869 7.15829 7.85343 7.35355L4.85343 10.3536Z" fill="#CED0D6"/>
<path d="M7.85712 5.23583L9.56587 2.25218C9.75795 1.91678 10.2414 1.91678 10.4335 2.25218L12.867 6.50138C13.0435 6.80948 13.0435 7.18808 12.8671 7.49622L10.4336 11.7477C10.2415 12.0833 9.75787 12.0833 9.56581 11.7477L7.85769 8.76361L7.12479 9.4965L8.69807 12.245C9.27425 13.2517 10.7251 13.2517 11.3013 12.245L13.7349 7.99355C14.0876 7.37726 14.0876 6.62006 13.7347 6.00386L11.3011 1.75466C10.7249 0.748446 9.2745 0.748446 8.69823 1.75466L7.12427 4.50297L7.85712 5.23583Z" fill="#DB5C5C"/>
</svg>
