<!-- Copyright 2000-2022 JetBrains s.r.o. and contributors. Use of this source code is governed by the Apache 2.0 license. -->
<svg width="13" height="12" viewBox="0 0 13 12" fill="none" xmlns="http://www.w3.org/2000/svg">
<path fill-rule="evenodd" clip-rule="evenodd" d="M6.37524 9.64815L6.84301 10.339C7.44246 11.2244 8.76988 11.2244 9.36934 10.339L11.7504 6.82232C12.087 6.3252 12.087 5.67904 11.7504 5.18191L9.36934 1.66524C8.76988 0.779882 7.44246 0.779882 6.84301 1.66524L6.37636 2.35444L7.09535 3.08309L7.68512 2.21204C7.88493 1.91692 8.32741 1.91692 8.52723 2.21204L10.9083 5.72871C11.0205 5.89442 11.0205 6.10981 10.9083 6.27552L8.52723 9.79219C8.32741 10.0873 7.88493 10.0873 7.68512 9.79219L7.09396 8.9191L6.37524 9.64815Z" fill="#DB5C5C"/>
<path fill-rule="evenodd" clip-rule="evenodd" d="M4.85355 3.64645C4.65829 3.45118 4.34171 3.45118 4.14645 3.64645C3.95118 3.84171 3.95118 4.15829 4.14645 4.35355L5.29289 5.5L0.5 5.5C0.223858 5.5 1.94416e-07 5.72386 2.18557e-07 6C2.42698e-07 6.27614 0.223858 6.5 0.5 6.5L5.29289 6.5L4.14645 7.64645C3.95118 7.84171 3.95118 8.15829 4.14645 8.35355C4.34171 8.54882 4.65829 8.54882 4.85355 8.35355L6.85355 6.35355L7.20711 6L6.85355 5.64645L4.85355 3.64645Z" fill="#CED0D6"/>
</svg>
