<svg xmlns="http://www.w3.org/2000/svg" xmlns:xlink="http://www.w3.org/1999/xlink" width="40" height="40" viewBox="0 0 40 40">
  <defs>
    <polygon id="git-a" points="0 .001 32 .001 32 32 0 32"/>
  </defs>
  <g fill="none" fill-rule="evenodd" transform="translate(4 4)">
    <mask id="git-b" fill="#fff">
      <use xlink:href="#git-a"/>
    </mask>
    <path fill="#DE4C36" d="M31.3969,14.5745 L17.4249,0.6035 C16.6209,-0.2005 15.3159,-0.2005 14.5109,0.6035 L11.6099,3.5045 L15.2899,7.1855 C16.1449,6.8965 17.1259,7.0905 17.8079,7.7715 C18.4929,8.4575 18.6849,9.4475 18.3889,10.3045 L21.9359,13.8515 C22.7939,13.5565 23.7849,13.7475 24.4689,14.4345 C25.4269,15.3915 25.4269,16.9435 24.4689,17.9025 C23.5109,18.8605 21.9589,18.8605 21.0009,17.9025 C20.2809,17.1805 20.1029,16.1225 20.4669,15.2345 L17.1599,11.9275 L17.1599,20.6315 C17.3989,20.7495 17.6179,20.9075 17.8079,21.0955 C18.7649,22.0525 18.7649,23.6055 17.8079,24.5635 C16.8489,25.5215 15.2969,25.5215 14.3399,24.5635 C13.3819,23.6055 13.3819,22.0525 14.3399,21.0955 C14.5699,20.8665 14.8419,20.6845 15.1429,20.5605 L15.1429,11.7745 C14.8419,11.6515 14.5689,11.4705 14.3399,11.2395 C13.6149,10.5145 13.4399,9.4495 13.8119,8.5585 L10.1839,4.9305 L0.6039,14.5095 C-0.2021,15.3155 -0.2021,16.6205 0.6039,17.4245 L14.5759,31.3965 C15.3799,32.2005 16.6849,32.2005 17.4899,31.3965 L31.3959,17.4905 C32.2019,16.6845 32.2019,15.3785 31.3959,14.5745" mask="url(#git-b)"/>
  </g>
</svg>
