<!-- Copyright 2000-2022 JetBrains s.r.o. and contributors. Use of this source code is governed by the Apache 2.0 license. -->
<svg width="16" height="16" viewBox="0 0 16 16" fill="none" xmlns="http://www.w3.org/2000/svg">
<path d="M1 3.86667C1 2.83574 1.7835 2 2.75 2H6.03823C6.29871 2 6.5489 2.10163 6.73559 2.28327L8.5 4L13 4C14.1046 4 15 4.89543 15 6V7.46449L11.5 10.9645L9.50001 8.96448L5.96448 12.5L7.46447 14H2.75C1.7835 14 1 13.1643 1 12.1333V3.86667Z" fill="#EBECF0"/>
<path d="M6.03823 3L8.09379 5H13C13.5523 5 14 5.44772 14 6V8.46449L15 7.46449V6C15 4.89543 14.1046 4 13 4L8.5 4L6.73559 2.28327C6.5489 2.10163 6.29871 2 6.03823 2H2.75C1.7835 2 1 2.83574 1 3.86667V12.1333C1 13.1643 1.7835 14 2.75 14H7.46447L6.46447 13H2.75C2.3956 13 2 12.6738 2 12.1333V3.86667C2 3.32624 2.3956 3 2.75 3H6.03823Z" fill="#6C707E"/>
<path d="M9.92426 12.0757C9.68995 11.8414 9.31005 11.8414 9.07574 12.0757C8.84142 12.3101 8.84142 12.6899 9.07574 12.9243L9.92426 12.0757ZM11.5 14.5L11.0757 14.9243L11.5 15.3485L11.9243 14.9243L11.5 14.5ZM15.4243 11.4243C15.6586 11.1899 15.6586 10.8101 15.4243 10.5757C15.1899 10.3414 14.8101 10.3414 14.5757 10.5757L15.4243 11.4243ZM9.07574 12.9243L11.0757 14.9243L11.9243 14.0757L9.92426 12.0757L9.07574 12.9243ZM11.9243 14.9243L15.4243 11.4243L14.5757 10.5757L11.0757 14.0757L11.9243 14.9243Z" fill="#3574F0"/>
</svg>
