<!-- Copyright 2000-2024 JetBrains s.r.o. and contributors. Use of this source code is governed by the Apache 2.0 license. -->
<svg width="14" height="14" viewBox="0 0 14 14" fill="none" xmlns="http://www.w3.org/2000/svg">
<path fill-rule="evenodd" clip-rule="evenodd" d="M11.5 8C11.2239 8 11 7.77614 11 7.5L11 1.70711L9.85355 2.85355C9.65829 3.04882 9.34171 3.04882 9.14645 2.85355C8.95118 2.65829 8.95118 2.34171 9.14645 2.14645L11.1464 0.146447C11.3417 -0.0488155 11.6583 -0.0488155 11.8536 0.146447L13.8536 2.14645C14.0488 2.34171 14.0488 2.65829 13.8536 2.85355C13.6583 3.04882 13.3417 3.04882 13.1464 2.85355L12 1.70711L12 7.5C12 7.77614 11.7761 8 11.5 8Z" fill="#DB5C5C"/>
<path d="M10 6.09287V7.5C10 8.08472 10.3346 8.5913 10.8228 8.83875L9.96922 12.5171C9.89735 12.8409 9.56198 13.0482 9.22014 12.9801C8.87831 12.912 8.65946 12.5944 8.73133 12.2706L9.61285 8.4702C10.0425 6.61419 7.6067 6.8431 6.61844 8.2213L5.6129 12.5204C5.54103 12.8442 5.20565 13.0515 4.86381 12.9834C4.84979 12.9806 4.83598 12.9774 4.82238 12.9738C4.49698 12.8942 4.2922 12.5853 4.36206 12.2706L5.24724 8.46723C5.44411 7.62921 5.03981 7.2171 4.45263 7.1449C3.7537 7.07035 2.79638 7.47953 2.26212 8.2246L2.26141 8.21957L2.26025 8.2213L1.25127 12.525C1.17865 12.8486 0.842787 13.0552 0.501111 12.9864C0.159434 12.9176 -0.0586746 12.5995 0.0139511 12.2759L1.33001 6.59781C1.40263 6.27418 1.73849 6.0676 2.08017 6.13639C2.46852 6.21457 2.62833 6.56877 2.5535 6.90851C3.26842 6.34833 4.10157 5.95255 5.05393 6.00459C5.98363 6.02317 6.43813 6.52001 6.5868 7.1699C7.44396 6.44112 8.16823 6.00075 9.3559 6.00075C9.60182 6.00075 9.81555 6.03335 10 6.09287Z" fill="#548AF7"/>
</svg>
