<!-- Copyright 2000-2024 JetBrains s.r.o. and contributors. Use of this source code is governed by the Apache 2.0 license. -->
<svg width="17" height="16" viewBox="0 0 17 16" fill="none" xmlns="http://www.w3.org/2000/svg">
<path fill-rule="evenodd" clip-rule="evenodd" d="M15.8304 11.1773C16.0647 11.4116 16.0647 11.7915 15.8304 12.0259L12.0335 15.8227C11.7992 16.057 11.4193 16.057 11.185 15.8227L9.17915 13.8169C8.94484 13.5826 8.94484 13.2027 9.17915 12.9683C9.41347 12.734 9.79337 12.734 10.0277 12.9683L11.6093 14.5499L14.9819 11.1773C15.2162 10.943 15.5961 10.943 15.8304 11.1773Z" fill="#548AF7"/>
<path d="M2.75 2C1.7835 2 1 2.83574 1 3.86667V12.1333C1 13.1643 1.7835 14 2.75 14H8.12275C7.88554 13.4211 8.00197 12.7313 8.47205 12.2612C9.09689 11.6364 10.11 11.6364 10.7348 12.2612L11.6093 13.1357L15 9.74499V6C15 4.89543 14.1046 4 13 4L8.5 4L6.73559 2.28327C6.5489 2.10163 6.29871 2 6.03823 2H2.75Z" fill="#43454A"/>
<path d="M6.03823 3L8.09379 5H13C13.5523 5 14 5.44772 14 6V10.745L15 9.74499V6C15 4.89543 14.1046 4 13 4L8.5 4L6.73559 2.28327C6.5489 2.10163 6.29871 2 6.03823 2H2.75C1.7835 2 1 2.83574 1 3.86667V12.1333C1 13.1643 1.7835 14 2.75 14H8.12274C8.10238 13.9503 8.08461 13.8998 8.06946 13.8486C7.98764 13.5725 7.98184 13.2786 8.05208 13H2.75C2.3956 13 2 12.6738 2 12.1333V3.86667C2 3.32624 2.3956 3 2.75 3H6.03823Z" fill="#CED0D6"/>
</svg>
