<!-- Copyright 2000-2022 JetBrains s.r.o. and contributors. Use of this source code is governed by the Apache 2.0 license. -->
<svg width="12" height="12" viewBox="0 0 12 12" fill="none" xmlns="http://www.w3.org/2000/svg">
<path d="M6.58106 5.6006C7.61191 5.6006 7.79098 6.46793 7.61191 7.24946L6.9482 10.2559C6.90048 10.472 6.67777 10.6104 6.45077 10.565C6.22378 10.5195 6.07845 10.3074 6.12618 10.0912L6.75168 7.24946C7.03697 6.01019 5.4195 6.16304 4.76325 7.08326L4.05538 10.2581C4.00765 10.4742 3.78494 10.6127 3.55795 10.5672C3.54864 10.5653 3.53946 10.5632 3.53043 10.5608C3.31435 10.5076 3.17837 10.3014 3.22476 10.0912L3.8527 7.24747C3.98343 6.68793 3.71496 6.41276 3.32503 6.36455C2.86091 6.31477 2.2252 6.58798 1.87042 7.08547L1.86995 7.08211L1.86918 7.08326L1.15903 10.2611C1.11081 10.4772 0.887779 10.6152 0.660888 10.5692C0.433998 10.5233 0.289162 10.3109 0.337389 10.0948L1.25145 5.99926C1.29968 5.78317 1.52271 5.64523 1.7496 5.69116C2.00748 5.74337 2.11361 5.97987 2.06391 6.20671C2.53866 5.83268 3.09191 5.56842 3.72433 5.60316C4.3417 5.61557 4.64351 5.94731 4.74223 6.38124C5.31144 5.89464 5.79238 5.6006 6.58106 5.6006Z" fill="#548AF7" stroke="#548AF7" stroke-width="0.177778" stroke-linecap="round"/>
<path fill-rule="evenodd" clip-rule="evenodd" d="M11.8536 2.35354C12.0488 2.5488 12.0488 2.86538 11.8536 3.06065C11.6583 3.25591 11.3417 3.25591 11.1464 3.06065L10 1.9142L10 6.5C10 6.77614 9.77614 7 9.5 7C9.22386 7 9 6.77614 9 6.5L9 1.9142L7.85355 3.06065C7.65829 3.25591 7.34171 3.25591 7.14645 3.06065C6.95118 2.86538 6.95118 2.5488 7.14645 2.35354L9.14645 0.353539L9.5 -1.46727e-05L9.85355 0.353539L11.8536 2.35354Z" fill="#DB5C5C"/>
</svg>
