<!-- Copyright 2000-2022 JetBrains s.r.o. and contributors. Use of this source code is governed by the Apache 2.0 license. -->
<svg width="16" height="16" viewBox="0 0 16 16" fill="none" xmlns="http://www.w3.org/2000/svg">
<g clip-path="url(#clip0_2323_32173)">
<g clip-path="url(#clip1_2323_32173)">
<path fill-rule="evenodd" clip-rule="evenodd" d="M1 3.86667C1 2.83574 1.7835 2 2.75 2H6.03823C6.29871 2 6.5489 2.10163 6.73559 2.28327L8.5 4L13 4C14.1046 4 15 4.89543 15 6V9H8L6.92857 14H2.75C1.7835 14 1 13.1643 1 12.1333V3.86667Z" fill="#43454A"/>
<path d="M6.03823 3L8.09379 5H13C13.5523 5 14 5.44772 14 6V9H15V6C15 4.89543 14.1046 4 13 4L8.5 4L6.73559 2.28327C6.5489 2.10163 6.29871 2 6.03823 2H2.75C1.7835 2 1 2.83574 1 3.86667V12.1333C1 13.1643 1.7835 14 2.75 14H6.92857L7.14286 13H2.75C2.3956 13 2 12.6738 2 12.1333V3.86667C2 3.32624 2.3956 3 2.75 3H6.03823Z" fill="#CED0D6"/>
<path d="M14.5811 10.6006C15.6119 10.6006 15.791 11.4679 15.6119 12.2495L14.9482 15.2559C14.9005 15.472 14.6778 15.6104 14.4508 15.565C14.2238 15.5195 14.0785 15.3074 14.1262 15.0912L14.7517 12.2495C15.037 11.0102 13.4195 11.163 12.7632 12.0833L12.0554 15.2581C12.0077 15.4742 11.7849 15.6127 11.5579 15.5672C11.5486 15.5653 11.5395 15.5632 11.5304 15.5608C11.3144 15.5076 11.1784 15.3014 11.2248 15.0912L11.8527 12.2475C11.9834 11.6879 11.715 11.4128 11.325 11.3645C10.8609 11.3148 10.2252 11.588 9.87042 12.0855L9.86995 12.0821L9.86918 12.0833L9.15903 15.2611C9.11081 15.4772 8.88778 15.6152 8.66089 15.5692C8.434 15.5233 8.28916 15.3109 8.33739 15.0948L9.25145 10.9993C9.29968 10.7832 9.52271 10.6452 9.7496 10.6912C10.0075 10.7434 10.1136 10.9799 10.0639 11.2067C10.5387 10.8327 11.0919 10.5684 11.7243 10.6032C12.3417 10.6156 12.6435 10.9473 12.7422 11.3812C13.3114 10.8946 13.7924 10.6006 14.5811 10.6006Z" fill="#548AF7" stroke="#548AF7" stroke-width="0.2" stroke-linecap="round"/>
</g>
</g>
<defs>
<clipPath id="clip0_2323_32173">
<rect width="16" height="16" fill="white"/>
</clipPath>
<clipPath id="clip1_2323_32173">
<rect width="16" height="16" fill="white"/>
</clipPath>
</defs>
</svg>
