<!-- Copyright 2000-2024 JetBrains s.r.o. and contributors. Use of this source code is governed by the Apache 2.0 license. -->
<svg width="16" height="16" viewBox="0 0 16 16" fill="none" xmlns="http://www.w3.org/2000/svg">
<g clip-path="url(#clip0_2323_32173)">
<path d="M1 3.86667C1 2.83574 1.7835 2 2.75 2H6.03823C6.29871 2 6.5489 2.10163 6.73559 2.28327L8.5 4L13 4C14.1046 4 15 4.89543 15 6V10.0077C14.9326 10.0029 14.8646 10.0006 14.7962 10.0006C14.0685 10.0006 13.5053 10.1786 13.0168 10.4533C12.6398 10.1562 12.1774 10.017 11.6842 10.004C11.1124 9.97558 10.5976 10.0998 10.1448 10.3018C10.0082 10.22 9.84957 10.1573 9.66781 10.1205C8.92376 9.9697 8.12534 10.4138 7.94429 11.2213L7.9439 11.2231L7.31645 14H2.75C1.7835 14 1 13.1643 1 12.1333V3.86667Z" fill="#43454A"/>
<path d="M8.09379 5L6.03823 3H2.75C2.3956 3 2 3.32624 2 3.86667V12.1333C2 12.6738 2.3956 13 2.75 13H7.5424L7.31645 14H2.75C1.7835 14 1 13.1643 1 12.1333V3.86667C1 2.83574 1.7835 2 2.75 2H6.03823C6.29871 2 6.5489 2.10163 6.73559 2.28327L8.5 4L13 4C14.1046 4 15 4.89543 15 6V10.0077C14.9326 10.0029 14.8646 10.0006 14.7962 10.0006C14.5066 10.0006 14.2431 10.0288 14 10.08V6C14 5.44772 13.5523 5 13 5H8.09379Z" fill="#CED0D6"/>
<path d="M14.7961 11.0006C15.9327 11.0006 16.1301 11.958 15.9327 12.8207L15.299 15.6443C15.2464 15.883 15.0009 16.0358 14.7506 15.9856C14.5003 15.9354 14.3401 15.7013 14.3927 15.4626L14.9842 12.8207C15.2988 11.4527 13.5154 11.6214 12.7918 12.6372L12.1095 15.6468C12.0569 15.8854 11.8114 16.0382 11.5611 15.988C11.5508 15.986 11.5407 15.9836 11.5307 15.9809C11.2925 15.9223 11.1426 15.6946 11.1937 15.4626L11.7879 12.8185C11.932 12.2008 11.636 11.8971 11.2061 11.8438C10.6944 11.7889 9.99349 12.0905 9.60233 12.6396L8.91613 15.6502C8.86295 15.8887 8.61705 16.041 8.36689 15.9903C8.11673 15.9396 7.95704 15.7051 8.01021 15.4666L8.91987 11.4406C8.97305 11.2021 9.21895 11.0498 9.46911 11.1005C9.75344 11.1582 9.87045 11.4192 9.81566 11.6696C10.3391 11.2567 10.9491 10.965 11.6464 11.0034C12.3271 11.0171 12.6598 11.3833 12.7687 11.8623C13.3963 11.3251 13.9265 11.0006 14.7961 11.0006Z" fill="#548AF7"/>
</g>
<defs>
<clipPath id="clip0_2323_32173">
<rect width="16" height="16" fill="white"/>
</clipPath>
</defs>
</svg>
