<!-- Copyright 2000-2022 JetBrains s.r.o. and contributors. Use of this source code is governed by the Apache 2.0 license. -->
<svg width="16" height="16" viewBox="0 0 16 16" fill="none" xmlns="http://www.w3.org/2000/svg">
<g clip-path="url(#clip0_2322_31881)">
<g clip-path="url(#clip1_2322_31881)">
<path d="M1 10H3.12602C3.57006 11.7252 5.13616 13 7 13H7.5625L8.3125 9H12V4C12 3.44772 11.5523 3 11 3H7C5.13616 3 3.57006 4.27477 3.12602 6H1C0.447715 6 0 6.44772 0 7V9C0 9.55228 0.447715 10 1 10Z" fill="#43454A"/>
<path fill-rule="evenodd" clip-rule="evenodd" d="M12 4C12 3.44772 11.5523 3 11 3H7C5.20507 3 3.68628 4.18225 3.17983 5.81052C3.16039 5.87304 3.14244 5.93621 3.12602 6H1C0.447715 6 0 6.44772 0 7V9C0 9.55228 0.447715 10 1 10H3.12602C3.57006 11.7252 5.13616 13 7 13H7.5625L7.75 12H7C5.34315 12 4 10.6569 4 9V7C4 5.34315 5.34315 4 7 4H11V9H12V6H15.5C15.7761 6 16 5.77614 16 5.5C16 5.22386 15.7761 5 15.5 5H12V4ZM1 7V9H3V7L1 7Z" fill="#CED0D6"/>
<path d="M14.5811 10.6006C15.6119 10.6006 15.791 11.4679 15.6119 12.2495L14.9482 15.2559C14.9005 15.472 14.6778 15.6104 14.4508 15.565C14.2238 15.5195 14.0785 15.3074 14.1262 15.0912L14.7517 12.2495C15.037 11.0102 13.4195 11.163 12.7632 12.0833L12.0554 15.2581C12.0077 15.4742 11.7849 15.6127 11.5579 15.5672C11.5486 15.5653 11.5395 15.5632 11.5304 15.5608C11.3144 15.5076 11.1784 15.3014 11.2248 15.0912L11.8527 12.2475C11.9834 11.6879 11.715 11.4128 11.325 11.3645C10.8609 11.3148 10.2252 11.588 9.87042 12.0855L9.86995 12.0821L9.86918 12.0833L9.15903 15.2611C9.11081 15.4772 8.88778 15.6152 8.66089 15.5692C8.434 15.5233 8.28916 15.3109 8.33739 15.0948L9.25145 10.9993C9.29968 10.7832 9.52271 10.6452 9.7496 10.6912C10.0075 10.7434 10.1136 10.9799 10.0639 11.2067C10.5387 10.8327 11.0919 10.5684 11.7243 10.6032C12.3417 10.6156 12.6435 10.9473 12.7422 11.3812C13.3114 10.8946 13.7924 10.6006 14.5811 10.6006Z" fill="#548AF7" stroke="#548AF7" stroke-width="0.2" stroke-linecap="round"/>
</g>
</g>
<defs>
<clipPath id="clip0_2322_31881">
<rect width="16" height="16" fill="white"/>
</clipPath>
<clipPath id="clip1_2322_31881">
<rect width="16" height="16" fill="white"/>
</clipPath>
</defs>
</svg>
