<!-- Copyright 2000-2024 JetBrains s.r.o. and contributors. Use of this source code is governed by the Apache 2.0 license. -->
<svg width="14" height="14" viewBox="0 0 14 14" fill="none" xmlns="http://www.w3.org/2000/svg">
<path d="M9.35587 1.00075C10.9082 1.00075 11.1779 2.29974 10.9082 3.4702L9.96919 7.5171C9.89732 7.84088 9.56194 8.04816 9.2201 7.98009C8.87827 7.91201 8.65942 7.59435 8.73129 7.27058L9.61281 3.4702C10.0424 1.61419 7.60666 1.8431 6.61841 3.2213L5.61286 7.5204C5.54099 7.84418 5.20561 8.05147 4.86378 7.98339C4.84975 7.9806 4.83594 7.97739 4.82234 7.97377C4.49694 7.89417 4.29217 7.58527 4.36202 7.27058L5.24721 3.46723C5.44407 2.62921 5.03978 2.2171 4.45259 2.1449C3.75366 2.07035 2.79634 2.47953 2.26208 3.2246L2.26137 3.21957L2.26022 3.2213L1.25123 7.52501C1.17861 7.84864 0.84275 8.05522 0.501073 7.98643C0.159397 7.91765 -0.0587119 7.59953 0.0139137 7.2759L1.32997 1.59781C1.40259 1.27418 1.73845 1.0676 2.08013 1.13639C2.46848 1.21457 2.6283 1.56877 2.55346 1.90851C3.26838 1.34833 4.10153 0.952551 5.05389 1.00459C5.98359 1.02317 6.43809 1.52001 6.58676 2.1699C7.44393 1.44112 8.16819 1.00075 9.35587 1.00075Z" fill="#548AF7"/>
<path fill-rule="evenodd" clip-rule="evenodd" d="M11.5 6C11.7761 6 12 6.22386 12 6.5V12.2929L13.1464 11.1464C13.3417 10.9512 13.6583 10.9512 13.8536 11.1464C14.0488 11.3417 14.0488 11.6583 13.8536 11.8536L11.8536 13.8536C11.6583 14.0488 11.3417 14.0488 11.1464 13.8536L9.14645 11.8536C8.95118 11.6583 8.95118 11.3417 9.14645 11.1464C9.34171 10.9512 9.65829 10.9512 9.85355 11.1464L11 12.2929V6.5C11 6.22386 11.2239 6 11.5 6Z" fill="#CED0D6"/>
</svg>
