<!-- Copyright 2000-2022 JetBrains s.r.o. and contributors. Use of this source code is governed by the Apache 2.0 license. -->
<svg width="16" height="16" viewBox="0 0 16 16" fill="none" xmlns="http://www.w3.org/2000/svg">
<path d="M15.2238 6.49891C15.582 4.93587 15.2238 3.2012 13.1621 3.2012C11.5848 3.2012 10.6229 3.78927 9.48446 4.76249C9.28702 3.89462 8.6834 3.23114 7.44866 3.20633C6.18382 3.13683 5.07731 3.66536 4.12783 4.41342C4.22722 3.95973 4.01496 3.48674 3.49919 3.38233C3.04541 3.29046 2.59936 3.56634 2.5029 3.99851L0.674778 12.1896C0.578324 12.6218 0.867995 13.0466 1.32178 13.1385C1.77556 13.2303 2.22161 12.9544 2.31807 12.5223L3.73837 6.16652L3.7399 6.16422L3.74084 6.17093C4.4504 5.17597 5.72182 4.62955 6.65007 4.7291C7.42991 4.82551 7.96685 5.37585 7.7054 6.49494L6.83329 10.4445L8.87635 9.08243L9.52649 6.16652C10.839 4.32608 14.0739 4.02039 13.5034 6.49891L12.9529 9H14.6717L15.2238 6.49891Z" fill="#548AF7"/>
<path d="M15.5 14.5H13.5" stroke="#CED0D6" stroke-linecap="round" stroke-linejoin="round"/>
<path d="M15.5 11.5H13.5" stroke="#CED0D6" stroke-linecap="round" stroke-linejoin="round"/>
<path d="M13.5 10.5V15.5H11.5C10.3954 15.5 9.5 14.6046 9.5 13.5V12.5C9.5 11.3954 10.3954 10.5 11.5 10.5H13.5Z" stroke="#CED0D6" stroke-linecap="round" stroke-linejoin="round"/>
<path d="M9.5 13.5H8.5V12.5H9.5" stroke="#CED0D6" stroke-linecap="round" stroke-linejoin="round"/>
</svg>
