<!-- Copyright 2000-2024 JetBrains s.r.o. and contributors. Use of this source code is governed by the Apache 2.0 license. -->
<svg width="16" height="16" viewBox="0 0 16 16" fill="none" xmlns="http://www.w3.org/2000/svg">
<g clip-path="url(#clip0_2322_31881)">
<path d="M14.7961 11.0006C15.9327 11.0006 16.1301 11.958 15.9327 12.8207L15.299 15.6443C15.2464 15.883 15.0009 16.0358 14.7506 15.9856C14.5003 15.9354 14.3401 15.7013 14.3927 15.4626L14.9842 12.8207C15.2988 11.4527 13.5154 11.6214 12.7918 12.6372L12.1095 15.6468C12.0569 15.8854 11.8114 16.0382 11.5611 15.988C11.5508 15.986 11.5407 15.9836 11.5307 15.9809C11.2925 15.9223 11.1426 15.6946 11.1937 15.4626L11.7879 12.8185C11.932 12.2008 11.636 11.8971 11.2061 11.8438C10.6944 11.7889 9.99349 12.0905 9.60233 12.6396L8.91613 15.6502C8.86295 15.8887 8.61705 16.041 8.36689 15.9903C8.11673 15.9396 7.95704 15.7051 8.01021 15.4666L8.91987 11.4406C8.97305 11.2021 9.21895 11.0498 9.46911 11.1005C9.75344 11.1582 9.87045 11.4192 9.81566 11.6696C10.3391 11.2567 10.9491 10.965 11.6464 11.0034C12.3271 11.0171 12.6598 11.3833 12.7687 11.8623C13.3963 11.3251 13.9265 11.0006 14.7961 11.0006Z" fill="#548AF7"/>
<path d="M14.7961 11.0006C15.9327 11.0006 16.1301 11.958 15.9327 12.8207L15.299 15.6443C15.2464 15.883 15.0009 16.0358 14.7506 15.9856C14.5003 15.9354 14.3401 15.7013 14.3927 15.4626L14.9842 12.8207C15.2988 11.4527 13.5154 11.6214 12.7918 12.6372L12.1095 15.6468C12.0569 15.8854 11.8114 16.0382 11.5611 15.988C11.5508 15.986 11.5407 15.9836 11.5307 15.9809C11.2925 15.9223 11.1426 15.6946 11.1937 15.4626L11.7879 12.8185C11.932 12.2008 11.636 11.8971 11.2061 11.8438C10.6944 11.7889 9.99349 12.0905 9.60233 12.6396L8.91613 15.6502C8.86295 15.8887 8.61705 16.041 8.36689 15.9903C8.11673 15.9396 7.95704 15.7051 8.01021 15.4666L8.91987 11.4406C8.97305 11.2021 9.21895 11.0498 9.46911 11.1005C9.75344 11.1582 9.87045 11.4192 9.81566 11.6696C10.3391 11.2567 10.9491 10.965 11.6464 11.0034C12.3271 11.0171 12.6598 11.3833 12.7687 11.8623C13.3963 11.3251 13.9265 11.0006 14.7961 11.0006Z" fill="#548AF7"/>
<path d="M3.12602 10H1C0.447715 10 0 9.55228 0 9V7C0 6.44772 0.447715 6 1 6H3.12602C3.57006 4.27477 5.13616 3 7 3H11C11.5523 3 12 3.44772 12 4V10.0306C11.8966 10.0156 11.7911 10.0068 11.6842 10.004C11.1124 9.97558 10.5976 10.0998 10.1448 10.3018C10.0082 10.22 9.84957 10.1573 9.66781 10.1205C8.92376 9.9697 8.12534 10.4138 7.94429 11.2213L7.9439 11.2231L7.5424 13H7C5.13616 13 3.57006 11.7252 3.12602 10Z" fill="#43454A"/>
<path d="M10.6465 13H10.7223L10.7344 12.9461C10.704 12.9628 10.6746 12.9808 10.6465 13Z" fill="#43454A"/>
<path fill-rule="evenodd" clip-rule="evenodd" d="M11 3C11.5523 3 12 3.44772 12 4V5H15.5C15.7761 5 16 5.22386 16 5.5C16 5.77614 15.7761 6 15.5 6H12V10.0306C11.8966 10.0156 11.7911 10.0068 11.6842 10.004C11.4462 9.99219 11.218 10.0068 11 10.0425V4H7C5.34315 4 4 5.34315 4 7V9C4 10.6569 5.34315 12 7 12H7.76835L7.5424 13H7C5.13616 13 3.57006 11.7252 3.12602 10H1C0.447715 10 0 9.55228 0 9V7C0 6.44772 0.447715 6 1 6H3.12602C3.14244 5.93621 3.16039 5.87304 3.17983 5.81052C3.68628 4.18225 5.20507 3 7 3H11ZM1 9V7L3 7V9H1Z" fill="#CED0D6"/>
</g>
<defs>
<clipPath id="clip0_2322_31881">
<rect width="16" height="16" fill="white"/>
</clipPath>
</defs>
</svg>
