<!-- Copyright 2000-2024 JetBrains s.r.o. and contributors. Use of this source code is governed by the Apache 2.0 license. -->
<svg width="16" height="16" viewBox="0 0 16 16" fill="none" xmlns="http://www.w3.org/2000/svg">
<path fill-rule="evenodd" clip-rule="evenodd" d="M9.05001 12C9.28164 10.8589 10.2905 10 11.5 10H13.5C13.7761 10 14 10.2239 14 10.5V11H15.5C15.7761 11 16 11.2239 16 11.5C16 11.7761 15.7761 12 15.5 12H14V14H15.5C15.7761 14 16 14.2239 16 14.5C16 14.7761 15.7761 15 15.5 15H14V15.5C14 15.7761 13.7761 16 13.5 16H11.5C10.2905 16 9.28164 15.1411 9.05001 14H8.5C8.22386 14 8 13.7761 8 13.5V12.5C8 12.2239 8.22386 12 8.5 12H9.05001ZM10 13.5V12.5C10 11.6716 10.6716 11 11.5 11H13V15H11.5C10.6716 15 10 14.3284 10 13.5Z" fill="#6C707E"/>
<path d="M15.2238 6.49891C15.582 4.93587 15.2238 3.2012 13.1621 3.2012C11.5848 3.2012 10.6229 3.78927 9.48446 4.76249C9.28702 3.89462 8.6834 3.23114 7.44866 3.20633C6.18382 3.13683 5.07731 3.66536 4.12783 4.41342C4.22722 3.95973 4.01496 3.48674 3.49919 3.38233C3.04541 3.29046 2.59936 3.56634 2.5029 3.99851L0.674778 12.1896C0.578324 12.6218 0.867995 13.0466 1.32178 13.1385C1.77556 13.2303 2.22161 12.9544 2.31807 12.5223L3.73837 6.16652L3.7399 6.16422L3.74084 6.17093C4.4504 5.17597 5.72182 4.62955 6.65007 4.7291C7.42991 4.82551 7.96685 5.37585 7.7054 6.49494L6.44951 12.1825C6.36118 12.5826 6.60353 12.9758 7 13.1042V12.5C7 11.7281 7.58305 11.0924 8.33277 11.0092C8.39043 10.8869 8.45495 10.7685 8.52584 10.6545L9.52649 6.16652C10.839 4.32608 14.0739 4.02039 13.5034 6.49891L12.9529 9H13.5C13.9201 9 14.2998 9.17268 14.5721 9.45093L15.2238 6.49891Z" fill="#3574F0"/>
</svg>
