<svg width="16" height="16" viewBox="0 0 16 16" fill="none" xmlns="http://www.w3.org/2000/svg">
<path d="M3.14345 13.5875L2 1L14.3185 1.0048L13.1847 13.5779L8.14964 15L3.14345 13.5875ZM12.2574 12.9005L13.2135 2.11942H8.16885L8.20729 14.0103L12.2574 12.9005V12.9005ZM7.69802 3.70007H6.4729L6.45849 10.1524L4.08031 9.50377L4.08511 10.9787L7.69802 11.954V3.70007V3.70007Z" fill="#BA4242"/>
<path opacity="0.986" d="M4.08517 10.9786L4.08037 9.50363C4.08037 9.50363 5.59856 9.93122 6.45854 10.1522L6.47296 3.70477H7.69808V11.9539L4.08517 10.9786V10.9786Z" fill="#EBEBEB" fill-opacity="0.9216"/>
<path d="M8.16888 2.11452H13.2135L12.2574 12.8955L8.16888 14.0053V2.11452ZM11.998 11.0891L12.3295 7.05822L9.87924 7.33206V5.17971L12.4928 5.1701L12.5985 3.69996L8.65412 3.71918L8.70697 9.07125L11.0899 8.66287L11.0563 9.85436L8.65412 10.4933L8.67814 11.9539L11.998 11.0891Z" fill="#EA6565"/>
</svg>
