<!-- Copyright 2000-2022 JetBrains s.r.o. and contributors. Use of this source code is governed by the Apache 2.0 license. -->
<svg width="16" height="16" viewBox="0 0 16 16" fill="none" xmlns="http://www.w3.org/2000/svg">
<path d="M15.248 9.5H10C9.72386 9.5 9.5 9.72386 9.5 10V15C9.5 15.2761 9.72386 15.5 10 15.5H15.248C15.4707 15.5 15.5823 15.2307 15.4248 15.0732L13.0283 12.6768C12.9307 12.5791 12.9307 12.4209 13.0283 12.3232L15.4248 9.92678C15.5823 9.76929 15.4707 9.5 15.248 9.5Z" fill="#EEE0FF"/>
<path fill-rule="evenodd" clip-rule="evenodd" d="M9 10C9 9.44771 9.44772 9 10 9H15.248C15.9162 9 16.2508 9.80786 15.7783 10.2803L13.5587 12.5L15.7783 14.7197C16.2508 15.1921 15.9162 16 15.248 16H10C9.44772 16 9 15.5523 9 15V10ZM14.6445 10L10 10V15H14.6445L12.6748 13.0303C12.3819 12.7374 12.3819 12.2626 12.6748 11.9697L14.6445 10Z" fill="#955AE0"/>
<path d="M15 8C15 6.20854 14.3166 4.41709 12.9497 3.05025C10.2161 0.316583 5.78392 0.316582 3.05025 3.05025C0.316582 5.78392 0.316582 10.2161 3.05025 12.9497C4.41707 14.3166 6.20849 15 7.99992 15V10C7.99992 8.89543 8.89535 8 9.99992 8H15Z" fill="#E7EFFD"/>
<path fill-rule="evenodd" clip-rule="evenodd" d="M8 10.6021C6.71614 10.533 5.80333 9.4676 5.80333 8C5.80333 6.48204 6.77985 5.39434 8.13344 5.39434C9.11963 5.39434 9.90278 5.92611 10.2218 6.66091H11.208C10.8841 5.3895 9.61272 4.5 8.13344 4.5C6.21907 4.5 4.79297 5.99378 4.79297 8C4.79297 9.95932 6.15318 11.4299 8 11.4976V10.6021Z" fill="#3574F0"/>
<path fill-rule="evenodd" clip-rule="evenodd" d="M14.9145 6.9048L13.9267 7.06044C13.7362 5.85123 13.1758 4.69026 12.2429 3.75735C11.31 2.82444 10.149 2.26402 8.93979 2.07351L9.09542 1.08569C10.5065 1.30801 11.8626 1.96286 12.95 3.05024C14.0374 4.13762 14.6922 5.49374 14.9145 6.9048ZM6.90504 1.08569L7.06068 2.07351C5.85147 2.26402 4.6905 2.82444 3.75759 3.75735C2.82468 4.69026 2.26427 5.85123 2.07375 7.06044L1.08594 6.9048C1.30826 5.49374 1.96311 4.13762 3.05049 3.05024C4.13786 1.96286 5.49398 1.30801 6.90504 1.08569ZM1.08594 9.09518C1.30826 10.5062 1.96311 11.8624 3.05049 12.9497C4.13786 14.0371 5.49398 14.692 6.90504 14.9143L7.06068 13.9265C5.85147 13.736 4.6905 13.1755 3.75759 12.2426C2.82468 11.3097 2.26427 10.1487 2.07375 8.93954L1.08594 9.09518Z" fill="#3574F0"/>
</svg>
