<!-- Copyright 2000-2022 JetBrains s.r.o. and contributors. Use of this source code is governed by the Apache 2.0 license. -->
<svg width="16" height="16" viewBox="0 0 16 16" fill="none" xmlns="http://www.w3.org/2000/svg">
<circle cx="8" cy="8" r="7" fill="#FFF5F5"/>
<mask id="path-2-inside-1_2417_33959" fill="white">
<path fill-rule="evenodd" clip-rule="evenodd" d="M14.9144 6.90481L13.9266 7.06045C13.736 5.85124 13.1756 4.69027 12.2427 3.75736C11.3098 2.82445 10.1488 2.26404 8.93963 2.07352L9.09527 1.0857C10.5063 1.30802 11.8624 1.96287 12.9498 3.05025C14.0372 4.13763 14.6921 5.49375 14.9144 6.90481ZM6.90489 1.0857L7.06053 2.07352C5.85132 2.26404 4.69035 2.82445 3.75744 3.75736C2.82453 4.69027 2.26412 5.85124 2.0736 7.06045L1.08579 6.90481C1.30811 5.49375 1.96295 4.13763 3.05033 3.05025C4.13771 1.96287 5.49383 1.30802 6.90489 1.0857ZM1.08579 9.09519C1.30811 10.5063 1.96295 11.8624 3.05033 12.9497C4.13771 14.0371 5.49383 14.692 6.90489 14.9143L7.06053 13.9265C5.85132 13.736 4.69035 13.1755 3.75744 12.2426C2.82453 11.3097 2.26412 10.1488 2.0736 8.93955L1.08579 9.09519ZM9.09527 14.9143L8.93963 13.9265C10.1488 13.736 11.3098 13.1755 12.2427 12.2426C13.1756 11.3097 13.736 10.1488 13.9266 8.93955L14.9144 9.09519C14.6921 10.5063 14.0372 11.8624 12.9498 12.9497C11.8624 14.0371 10.5063 14.692 9.09527 14.9143Z"/>
</mask>
<path fill-rule="evenodd" clip-rule="evenodd" d="M14.9144 6.90481L13.9266 7.06045C13.736 5.85124 13.1756 4.69027 12.2427 3.75736C11.3098 2.82445 10.1488 2.26404 8.93963 2.07352L9.09527 1.0857C10.5063 1.30802 11.8624 1.96287 12.9498 3.05025C14.0372 4.13763 14.6921 5.49375 14.9144 6.90481ZM6.90489 1.0857L7.06053 2.07352C5.85132 2.26404 4.69035 2.82445 3.75744 3.75736C2.82453 4.69027 2.26412 5.85124 2.0736 7.06045L1.08579 6.90481C1.30811 5.49375 1.96295 4.13763 3.05033 3.05025C4.13771 1.96287 5.49383 1.30802 6.90489 1.0857ZM1.08579 9.09519C1.30811 10.5063 1.96295 11.8624 3.05033 12.9497C4.13771 14.0371 5.49383 14.692 6.90489 14.9143L7.06053 13.9265C5.85132 13.736 4.69035 13.1755 3.75744 12.2426C2.82453 11.3097 2.26412 10.1488 2.0736 8.93955L1.08579 9.09519ZM9.09527 14.9143L8.93963 13.9265C10.1488 13.736 11.3098 13.1755 12.2427 12.2426C13.1756 11.3097 13.736 10.1488 13.9266 8.93955L14.9144 9.09519C14.6921 10.5063 14.0372 11.8624 12.9498 12.9497C11.8624 14.0371 10.5063 14.692 9.09527 14.9143Z" fill="#FFF5F5"/>
<path d="M14.9144 6.90481L15.07 7.89263L16.0578 7.73699L15.9022 6.74918L14.9144 6.90481ZM13.9266 7.06045L12.9387 7.21608L13.0944 8.2039L14.0822 8.04826L13.9266 7.06045ZM8.93963 2.07352L7.95182 1.91788L7.79618 2.9057L8.784 3.06133L8.93963 2.07352ZM9.09527 1.0857L9.25091 0.0978899L8.26309 -0.0577454L8.10745 0.930069L9.09527 1.0857ZM6.90489 1.0857L7.89271 0.930069L7.73707 -0.0577448L6.74926 0.0978901L6.90489 1.0857ZM7.06053 2.07352L7.21616 3.06133L8.20398 2.9057L8.04834 1.91788L7.06053 2.07352ZM2.0736 7.06045L1.91796 8.04826L2.90578 8.2039L3.06141 7.21608L2.0736 7.06045ZM1.08579 6.90481L0.0979708 6.74918L-0.0576644 7.73699L0.93015 7.89263L1.08579 6.90481ZM1.08579 9.09519L0.93015 8.10737L-0.0576643 8.26301L0.0979708 9.25082L1.08579 9.09519ZM6.90489 14.9143L6.74926 15.9021L7.73707 16.0577L7.89271 15.0699L6.90489 14.9143ZM7.06053 13.9265L8.04834 14.0821L8.20398 13.0943L7.21616 12.9387L7.06053 13.9265ZM2.0736 8.93955L3.06141 8.78392L2.90578 7.7961L1.91796 7.95174L2.0736 8.93955ZM9.09527 14.9143L8.10745 15.0699L8.26309 16.0577L9.2509 15.9021L9.09527 14.9143ZM8.93963 13.9265L8.784 12.9387L7.79618 13.0943L7.95182 14.0821L8.93963 13.9265ZM13.9266 8.93955L14.0822 7.95174L13.0944 7.7961L12.9387 8.78392L13.9266 8.93955ZM14.9144 9.09519L15.9022 9.25082L16.0578 8.26301L15.07 8.10737L14.9144 9.09519ZM11.5356 4.46447C12.3141 5.24294 12.78 6.20878 12.9387 7.21608L14.9144 6.90481C14.692 5.4937 14.0372 4.1376 12.9498 3.05025L11.5356 4.46447ZM8.784 3.06133C9.7913 3.22004 10.7571 3.686 11.5356 4.46447L12.9498 3.05025C11.8625 1.96291 10.5064 1.30803 9.09527 1.0857L8.784 3.06133ZM8.93963 2.07352C10.1488 2.26404 11.3098 2.82445 12.2427 3.75736L13.6569 2.34315C12.4151 1.1013 10.8638 0.352014 9.25091 0.0978899L8.93963 2.07352ZM12.2427 3.75736C13.1756 4.69027 13.736 5.85124 13.9266 7.06045L15.9022 6.74918C15.6481 5.13626 14.8988 3.585 13.6569 2.34315L12.2427 3.75736ZM4.46455 4.46447C5.24302 3.686 6.20886 3.22004 7.21616 3.06133L6.90489 1.0857C5.49378 1.30803 4.13768 1.96291 3.05033 3.05025L4.46455 4.46447ZM3.06141 7.21608C3.22012 6.20878 3.68608 5.24293 4.46455 4.46447L3.05033 3.05025C1.96299 4.1376 1.30811 5.4937 1.08579 6.90481L3.06141 7.21608ZM2.0736 7.06045C2.26412 5.85124 2.82453 4.69027 3.75744 3.75736L2.34323 2.34315C1.10138 3.585 0.352095 5.13626 0.0979708 6.74918L2.0736 7.06045ZM3.75744 3.75736C4.69035 2.82445 5.85132 2.26404 7.06053 2.07352L6.74926 0.0978901C5.13634 0.352014 3.58508 1.1013 2.34323 2.34315L3.75744 3.75736ZM3.75744 12.2426C2.82453 11.3097 2.26412 10.1488 2.0736 8.93955L0.0979708 9.25082C0.352095 10.8637 1.10138 12.415 2.34323 13.6569L3.75744 12.2426ZM7.06053 13.9265C5.85132 13.736 4.69035 13.1755 3.75744 12.2426L2.34323 13.6569C3.58508 14.8987 5.13634 15.648 6.74926 15.9021L7.06053 13.9265ZM7.21616 12.9387C6.20886 12.78 5.24301 12.314 4.46455 11.5355L3.05033 12.9497C4.13768 14.0371 5.49378 14.692 6.90489 14.9143L7.21616 12.9387ZM4.46455 11.5355C3.68608 10.7571 3.22012 9.79122 3.06141 8.78392L1.08579 9.09519C1.30811 10.5063 1.96299 11.8624 3.05033 12.9497L4.46455 11.5355ZM11.5356 11.5355C10.7571 12.314 9.7913 12.78 8.784 12.9387L9.09527 14.9143C10.5064 14.692 11.8625 14.0371 12.9498 12.9497L11.5356 11.5355ZM12.9387 8.78392C12.78 9.79122 12.3141 10.7571 11.5356 11.5355L12.9498 12.9497C14.0372 11.8624 14.692 10.5063 14.9144 9.09519L12.9387 8.78392ZM13.9266 8.93955C13.736 10.1488 13.1756 11.3097 12.2427 12.2426L13.6569 13.6569C14.8988 12.415 15.6481 10.8637 15.9022 9.25082L13.9266 8.93955ZM12.2427 12.2426C11.3098 13.1755 10.1488 13.736 8.93963 13.9265L9.2509 15.9021C10.8638 15.648 12.4151 14.8987 13.6569 13.6569L12.2427 12.2426ZM14.0822 8.04826L15.07 7.89263L14.7587 5.917L13.7709 6.07263L14.0822 8.04826ZM8.10745 0.930069L7.95182 1.91788L9.92745 2.22915L10.0831 1.24134L8.10745 0.930069ZM8.04834 1.91788L7.89271 0.930069L5.91708 1.24134L6.07271 2.22915L8.04834 1.91788ZM0.93015 7.89263L1.91796 8.04826L2.22924 6.07263L1.24142 5.917L0.93015 7.89263ZM7.89271 15.0699L8.04834 14.0821L6.07271 13.7708L5.91708 14.7587L7.89271 15.0699ZM1.91796 7.95174L0.93015 8.10737L1.24142 10.083L2.22924 9.92737L1.91796 7.95174ZM7.95182 14.0821L8.10745 15.0699L10.0831 14.7587L9.92745 13.7708L7.95182 14.0821ZM15.07 8.10737L14.0822 7.95174L13.7709 9.92737L14.7587 10.083L15.07 8.10737Z" fill="#EB7171" mask="url(#path-2-inside-1_2417_33959)"/>
<path d="M5.63644 4H6.45787C7.43406 4 7.92215 4.57738 8.23168 5.3631L10.8448 12H9.71533L8.05908 7.53125L6.27334 12H5.1543L7.55311 6.20833L7.18406 5.44048C7.04715 5.14286 6.77334 4.91667 6.41025 4.91667H5.63644V4Z" fill="#EB7171"/>
<path fill-rule="evenodd" clip-rule="evenodd" d="M14.9144 6.90481L13.9266 7.06045C13.736 5.85124 13.1756 4.69027 12.2427 3.75736C11.3098 2.82445 10.1488 2.26404 8.93963 2.07352L9.09527 1.0857C10.5063 1.30802 11.8624 1.96287 12.9498 3.05025C14.0372 4.13763 14.6921 5.49375 14.9144 6.90481ZM6.90489 1.0857L7.06053 2.07352C5.85132 2.26404 4.69035 2.82445 3.75744 3.75736C2.82453 4.69027 2.26412 5.85124 2.0736 7.06045L1.08579 6.90481C1.30811 5.49375 1.96295 4.13763 3.05033 3.05025C4.13771 1.96287 5.49383 1.30802 6.90489 1.0857ZM1.08579 9.09519C1.30811 10.5063 1.96295 11.8624 3.05033 12.9497C4.13771 14.0371 5.49383 14.692 6.90489 14.9143L7.06053 13.9265C5.85132 13.736 4.69035 13.1755 3.75744 12.2426C2.82453 11.3097 2.26412 10.1488 2.0736 8.93955L1.08579 9.09519ZM9.09527 14.9143L8.93963 13.9265C10.1488 13.736 11.3098 13.1755 12.2427 12.2426C13.1756 11.3097 13.736 10.1488 13.9266 8.93955L14.9144 9.09519C14.6921 10.5063 14.0372 11.8624 12.9498 12.9497C11.8624 14.0371 10.5063 14.692 9.09527 14.9143Z" fill="#EB7171"/>
</svg>
