<!-- Copyright 2000-2022 JetBrains s.r.o. and contributors. Use of this source code is governed by the Apache 2.0 license. -->
<svg width="16" height="16" viewBox="0 0 16 16" fill="none" xmlns="http://www.w3.org/2000/svg">
<path d="M8 8H16V16H8V8Z" fill="#F2FCF3"/>
<path d="M15.248 9.5H10C9.72386 9.5 9.5 9.72386 9.5 10V15C9.5 15.2761 9.72386 15.5 10 15.5H15.248C15.4707 15.5 15.5823 15.2307 15.4248 15.0732L13.0283 12.6768C12.9307 12.5791 12.9307 12.4209 13.0283 12.3232L15.4248 9.92678C15.5823 9.76929 15.4707 9.5 15.248 9.5Z" fill="#EEE0FF"/>
<path fill-rule="evenodd" clip-rule="evenodd" d="M9 10C9 9.44771 9.44772 9 10 9H15.248C15.9162 9 16.2508 9.80786 15.7783 10.2803L13.5587 12.5L15.7783 14.7197C16.2508 15.1921 15.9162 16 15.248 16H10C9.44772 16 9 15.5523 9 15V10ZM14.6445 10L10 10V15H14.6445L12.6748 13.0303C12.3819 12.7374 12.3819 12.2626 12.6748 11.9697L14.6445 10Z" fill="#955AE0"/>
<path d="M15 8C15 4.13401 11.866 1 8 1C4.13401 1 1 4.13401 1 8C1 11.866 4.13401 15 8 15V10C8 8.89543 8.89543 8 10 8H15Z" fill="#F2FCF3"/>
<path d="M9.72989 6.35862V5.38506H10.6552V8H10C9.88039 8 9.76324 8.0105 9.64941 8.03063C9.64502 6.98137 8.92235 6.18966 7.95977 6.18966C6.99425 6.18966 6.27011 6.98621 6.27011 8.04023C6.27011 9.09425 6.99425 9.8908 7.95977 9.8908C7.97422 9.8908 7.98862 9.89063 8.00296 9.89027C8.001 9.9266 8 9.96318 8 10V10.7731C7.95745 10.7749 7.91453 10.7759 7.87126 10.7759C6.38276 10.7759 5.26437 9.60115 5.26437 8.04023C5.26437 6.47931 6.38276 5.3046 7.87126 5.3046C8.71609 5.3046 9.35494 5.69 9.70012 6.35862H9.72989Z" fill="#5FB865"/>
<path d="M14.9992 8C14.9997 7.97332 15 7.9465 15 7.91954C15 4.11379 11.854 1 8 1C4.14598 1 1 4.18621 1 8.08046C1 11.8862 4.14598 15 8 15V13.9943C4.70115 13.9943 2.00575 11.331 2.00575 8.08046C2.00575 4.74138 4.70115 2.00575 8 2.00575C11.2989 2.00575 13.9943 4.66897 13.9943 7.91954C13.9943 7.94657 13.9939 7.97339 13.9931 8H14.9992Z" fill="#5FB865"/>
</svg>
