<!-- Copyright 2000-2022 JetBrains s.r.o. and contributors. Use of this source code is governed by the Apache 2.0 license. -->
<svg width="16" height="16" viewBox="0 0 16 16" fill="none" xmlns="http://www.w3.org/2000/svg">
<path fill-rule="evenodd" clip-rule="evenodd" d="M15 8C15 4.13401 11.866 1 8 1C4.13401 1 1 4.13401 1 8C1 11.866 4.13401 15 8 15V8H15Z" fill="#E7EFFD"/>
<path fill-rule="evenodd" clip-rule="evenodd" d="M8 14C4.68629 14 2 11.3137 2 8C2 4.68629 4.68629 2 8 2C11.3137 2 14 4.68629 14 8H15C15 4.13401 11.866 1 8 1C4.13401 1 1 4.13401 1 8C1 11.866 4.13401 15 8 15V14Z" fill="#3574F0"/>
<path fill-rule="evenodd" clip-rule="evenodd" d="M8 10.5731C6.73031 10.5045 5.82696 9.45324 5.82696 8C5.82696 6.49655 6.79381 5.42334 8.1329 5.42334C9.10459 5.42334 9.8829 5.94544 10.1971 6.67541H11.2123C10.8981 5.39917 9.62185 4.5 8.1329 4.5C6.2137 4.5 4.7876 5.99378 4.7876 8C4.7876 9.95962 6.14823 11.4303 8 11.4976V10.5731Z" fill="#3574F0"/>
<path d="M15.4084 14.9915C15.5925 15.1819 15.4576 15.5 15.1927 15.5H9.8C9.63431 15.5 9.5 15.3657 9.5 15.2V9.8C9.5 9.63431 9.63431 9.5 9.8 9.5H15.1927C15.4576 9.5 15.5925 9.8181 15.4084 10.0085L13.2016 12.2915C13.0892 12.4078 13.0892 12.5922 13.2016 12.7085L15.4084 14.9915Z" fill="#EEE0FF" stroke="#955AE0"/>
</svg>
