<!-- Copyright 2000-2022 JetBrains s.r.o. and contributors. Use of this source code is governed by the Apache 2.0 license. -->
<svg width="16" height="16" viewBox="0 0 16 16" fill="none" xmlns="http://www.w3.org/2000/svg">
<path fill-rule="evenodd" clip-rule="evenodd" d="M15 8C15 4.13401 11.866 1 8 1C4.13401 1 1 4.13401 1 8C1 11.866 4.13401 15 8 15V8H15Z" fill="#45322B"/>
<path fill-rule="evenodd" clip-rule="evenodd" d="M5 6C4.72386 6 4.5 6.22386 4.5 6.5C4.5 6.77614 4.72386 7 5 7H11C11.2761 7 11.5 6.77614 11.5 6.5C11.5 6.22386 11.2761 6 11 6H5ZM5.00002 8.99999C4.72388 8.99999 4.50002 9.22385 4.50002 9.49999C4.50002 9.77614 4.72388 9.99999 5.00002 9.99999H7.50002C7.77617 9.99999 8.00002 9.77614 8.00002 9.49999C8.00002 9.22385 7.77617 8.99999 7.50002 8.99999H5.00002Z" fill="#C77D55"/>
<path fill-rule="evenodd" clip-rule="evenodd" d="M8 14C4.68629 14 2 11.3137 2 8C2 4.68629 4.68629 2 8 2C11.3137 2 14 4.68629 14 8H15C15 4.13401 11.866 1 8 1C4.13401 1 1 4.13401 1 8C1 11.866 4.13401 15 8 15V14Z" fill="#C77D55"/>
<path d="M15.4084 14.9915C15.5925 15.1819 15.4576 15.5 15.1927 15.5H9.8C9.63431 15.5 9.5 15.3657 9.5 15.2V9.8C9.5 9.63431 9.63431 9.5 9.8 9.5H15.1927C15.4576 9.5 15.5925 9.8181 15.4084 10.0085L13.2016 12.2915C13.0892 12.4078 13.0892 12.5922 13.2016 12.7085L15.4084 14.9915Z" fill="#2F2936" stroke="#955AE0"/>
</svg>
