<svg width="16" height="16" viewBox="0 0 16 16" fill="none" xmlns="http://www.w3.org/2000/svg">
<path d="M11.1465 1.14651C11.3417 0.951246 11.6583 0.951246 11.8535 1.14651L14.8535 4.14651C15.0488 4.34177 15.0488 4.65828 14.8535 4.85354L11.8535 7.85354C11.6583 8.0488 11.3417 8.0488 11.1465 7.85354C10.9512 7.65828 10.9512 7.34177 11.1465 7.14651L13.293 5.00002H1.5C1.22386 5.00002 1 4.77617 1 4.50002C1 4.22388 1.22386 4.00002 1.5 4.00002H13.293L11.1465 1.85354C10.9512 1.65828 10.9512 1.34177 11.1465 1.14651Z" fill="#CED0D6"/>
<path d="M4.81055 14.2256C4.81055 14.7941 4.63361 15.2456 4.27832 15.5791C4.06672 15.7808 3.80754 15.9203 3.50195 16H2.18359C1.87636 15.9203 1.61451 15.781 1.39941 15.5791C1.04963 15.2457 0.875015 14.7917 0.875 14.2178H1.90039C1.9004 14.5184 1.9825 14.7534 2.14648 14.9229C2.31589 15.0921 2.54781 15.1767 2.84277 15.1768C3.13797 15.1768 3.36823 15.0923 3.53223 14.9229C3.70154 14.7534 3.78613 14.5206 3.78613 14.2256V10.9541H2.3916V10.0029H4.81055V14.2256Z" fill="#548AF7"/>
<path d="M7.99805 9.9209C8.36959 9.92096 8.69495 9.99171 8.97363 10.1338C9.25787 10.2759 9.47683 10.4788 9.62988 10.7412C9.78278 11.0035 9.85938 11.3072 9.85938 11.6514C9.85933 12.0175 9.76355 12.3758 9.57227 12.7256C9.38639 13.07 9.08534 13.4418 8.66992 13.8408L7.42383 15.0625H9.93262V15.9893H6.19336V14.9971L8.06348 13.1191C8.33134 12.8458 8.52524 12.6019 8.64551 12.3887C8.7711 12.1701 8.83398 11.9486 8.83398 11.7246C8.83393 11.4515 8.75746 11.2356 8.60449 11.0771C8.45694 10.9187 8.24919 10.8389 7.98145 10.8389C7.69171 10.8389 7.46478 10.9243 7.30078 11.0938C7.13682 11.2577 7.0547 11.4871 7.05469 11.7822H6.0293C6.04024 11.214 6.22075 10.7631 6.57031 10.4297C6.92565 10.0908 7.40218 9.9209 7.99805 9.9209Z" fill="#548AF7"/>
<path d="M12.1104 12.4219H12.8242L13.9473 10.0029H15.0625L13.7266 12.873L15.1279 15.9893H13.9883L12.8076 13.3564H12.1104V15.9893H11.0859V10.0029H12.1104V12.4219Z" fill="#548AF7"/>
</svg>
