<!-- Copyright 2000-2026 JetBrains s.r.o. and contributors. Use of this source code is governed by the Apache 2.0 license. -->
<svg width="16" height="16" viewBox="0 0 16 16" fill="none" xmlns="http://www.w3.org/2000/svg"><defs><mask id="cutout-mask"><rect width="16" height="16" fill="white"/><g stroke="black" stroke-width="3" stroke-linejoin="round" stroke-linecap="round"><path d="M10 10H14.6445L12.6748 11.9697C12.3819 12.2626 12.3819 12.7374 12.6748 13.0303L14.6445 15H10V10Z" fill="black" stroke="black"/><path d="M9 10C9 9.44771 9.44772 9 10 9H15.248C15.9162 9 16.2508 9.80786 15.7783 10.2803L13.5587 12.5L15.7783 14.7197C16.2508 15.1921 15.9162 16 15.248 16H10C9.44772 16 9 15.5523 9 15V10ZM14.6445 10L10 10V15H14.6445L12.6748 13.0303C12.3819 12.7374 12.3819 12.2626 12.6748 11.9697L14.6445 10Z" fill="black" stroke="black"/></g></mask></defs><g mask="url(#cutout-mask)"><circle cx="8" cy="8" r="6.5" fill="#402929" stroke="#DB5C5C"/><path d="M7.25726 12H8.2744V7.32741H9.82869V6.43027H8.2744V5.48C8.2744 5.12 8.52012 4.87429 8.8744 4.87429H9.88012V4H8.77726C7.8744 4 7.25726 4.57143 7.25726 5.40571V6.43027H6.12012V7.32741H7.25726V12Z" fill="#DB5C5C"/></g><g><path d="M10 10H14.6445L12.6748 11.9697C12.3819 12.2626 12.3819 12.7374 12.6748 13.0303L14.6445 15H10V10Z" fill="#2F2936"/><path fill-rule="evenodd" clip-rule="evenodd" d="M9 10C9 9.44771 9.44772 9 10 9H15.248C15.9162 9 16.2508 9.80786 15.7783 10.2803L13.5587 12.5L15.7783 14.7197C16.2508 15.1921 15.9162 16 15.248 16H10C9.44772 16 9 15.5523 9 15V10ZM14.6445 10L10 10V15H14.6445L12.6748 13.0303C12.3819 12.7374 12.3819 12.2626 12.6748 11.9697L14.6445 10Z" fill="#834DF0"/></g></svg>