<!-- Copyright 2000-2022 JetBrains s.r.o. and contributors. Use of this source code is governed by the Apache 2.0 license. -->
<svg width="16" height="16" viewBox="0 0 16 16" fill="none" xmlns="http://www.w3.org/2000/svg">
<path d="M15.248 9.5H10C9.72386 9.5 9.5 9.72386 9.5 10V15C9.5 15.2761 9.72386 15.5 10 15.5H15.248C15.4707 15.5 15.5823 15.2307 15.4248 15.0732L13.0283 12.6768C12.9307 12.5791 12.9307 12.4209 13.0283 12.3232L15.4248 9.92678C15.5823 9.76929 15.4707 9.5 15.248 9.5Z" fill="#2F2936"/>
<path fill-rule="evenodd" clip-rule="evenodd" d="M9 10C9 9.44771 9.44772 9 10 9H15.248C15.9162 9 16.2508 9.80786 15.7783 10.2803L13.5587 12.5L15.7783 14.7197C16.2508 15.1921 15.9162 16 15.248 16H10C9.44772 16 9 15.5523 9 15V10ZM14.6445 10L10 10V15H14.6445L12.6748 13.0303C12.3819 12.7374 12.3819 12.2626 12.6748 11.9697L14.6445 10Z" fill="#B589EC"/>
<path d="M15.3414 2.32093C15.1092 1.84199 14.6262 1.32848 13.9725 1.10858C13.2757 0.874142 12.4598 0.998449 11.6716 1.68724C11.4637 1.86894 11.4424 2.18481 11.6241 2.39275C11.8058 2.60068 12.1217 2.62195 12.3296 2.44024C12.8789 1.96026 13.3287 1.94706 13.6537 2.05638C14.0166 2.17846 14.309 2.48325 14.4417 2.75738L14.447 2.76988C14.4527 2.78347 14.4621 2.80682 14.4736 2.83923C14.4841 2.86858 14.4963 2.90524 14.5092 2.94869C14.5557 3.19144 14.501 3.53197 14.2837 3.86438C14.0245 4.2608 13.5754 4.56999 12.9631 4.56999C12.5694 4.56999 12.1339 4.40512 11.5646 4.11958C11.4149 4.04452 11.2552 3.96061 11.0871 3.87224C10.6516 3.64341 10.1591 3.38464 9.63586 3.17189C8.12036 2.55571 6.23123 2.26666 3.70259 3.51336C3.04147 3.83932 2.76989 4.59976 2.98364 5.26309L2.98427 5.26503C2.01842 5.95252 1.32137 6.8184 0.892733 7.85745C0.420154 9.00302 0.286208 10.3285 0.439053 11.8085C0.470493 12.113 0.727153 12.3468 1.03552 12.3468H2.22824C2.58589 12.3468 2.84203 12.0891 2.91808 11.8101C3.03345 11.3867 3.42039 11.0838 3.87007 11.0838C4.3196 11.0838 4.70646 11.3865 4.82195 11.8097C4.89808 12.0886 5.15419 12.3461 5.51172 12.3461H6.58831C6.94583 12.3461 7.20194 12.0886 7.27807 11.8097C7.37328 11.4608 7.65289 11.1939 8 11.1108V10.097C7.26532 10.182 6.6445 10.6692 6.37966 11.3461H5.72037C5.4283 10.5996 4.70328 10.0838 3.87007 10.0838C3.0366 10.0838 2.3114 10.6 2.01951 11.3468H1.40261C1.31833 10.1388 1.45899 9.10704 1.81716 8.2388C2.13015 7.48008 2.61709 6.82679 3.29932 6.27973L3.68085 7.53395L3.68344 7.54158C3.86226 8.06788 4.30675 8.34516 4.73802 8.44049C5.16003 8.53378 5.63407 8.47261 6.01126 8.26215C6.70052 7.88914 7.33875 7.44597 7.92628 6.91675C8.13145 6.73193 8.14796 6.41578 7.96314 6.2106C7.77832 6.00542 7.46217 5.98892 7.257 6.17374C6.73098 6.64755 6.15742 7.04621 5.53236 7.38421L5.5254 7.38811C5.37364 7.47333 5.15073 7.50758 4.95385 7.46406C4.7682 7.42302 4.67094 7.33251 4.63233 7.22573L4.05405 5.32445L3.93545 4.95639C3.86133 4.72637 3.96408 4.49938 4.14479 4.41028C6.38031 3.3081 7.96767 3.57313 9.25922 4.09825C9.73457 4.29152 10.1568 4.51346 10.5764 4.73408C10.7555 4.82822 10.9342 4.92213 11.1163 5.01346C11.693 5.30272 12.3136 5.56999 12.9631 5.56999C13.5118 5.56999 13.9864 5.41179 14.3723 5.16047C14.0751 5.9183 13.4649 6.80379 12.2645 7.7017C12.142 7.79347 12.0278 7.89333 11.9216 8.00012H13.4829C14.9416 6.71339 15.4747 5.41136 15.6003 4.35433C15.6702 3.76575 15.6117 3.271 15.5339 2.91968C15.5182 2.84877 15.5017 2.78356 15.4853 2.72445C15.4552 2.585 15.4079 2.4495 15.3414 2.32093Z" fill="#CED0D6"/>
<path d="M9.14402 6.04046C9.1068 6.14741 9.16406 6.25894 9.25933 6.32016L10.1478 6.89103C10.2431 6.95224 10.3683 6.95797 10.4501 6.87967C10.6688 6.67036 10.7543 6.34915 10.6556 6.05172C10.5372 5.69473 10.1856 5.46884 9.8117 5.50948C9.50016 5.54334 9.24352 5.75456 9.14402 6.04046Z" fill="#CED0D6"/>
</svg>
