<!-- Copyright 2000-2024 JetBrains s.r.o. and contributors. Use of this source code is governed by the Apache 2.0 license. -->
<svg width="16" height="16" viewBox="0 0 16 16" fill="none" xmlns="http://www.w3.org/2000/svg">
<path d="M10 10H14.6445L12.6748 11.9697C12.3819 12.2626 12.3819 12.7374 12.6748 13.0303L14.6445 15H10V10Z" fill="#2F2936"/>
<path fill-rule="evenodd" clip-rule="evenodd" d="M9 10C9 9.44771 9.44772 9 10 9H15.248C15.9162 9 16.2508 9.80786 15.7783 10.2803L13.5587 12.5L15.7783 14.7197C16.2508 15.1921 15.9162 16 15.248 16H10C9.44772 16 9 15.5523 9 15V10ZM14.6445 10L10 10V15H14.6445L12.6748 13.0303C12.3819 12.7374 12.3819 12.2626 12.6748 11.9697L14.6445 10Z" fill="#A571E6"/>
<path d="M15.3414 2.32081C15.1092 1.84187 14.6262 1.32836 13.9725 1.10846C13.2757 0.87402 12.4598 0.998327 11.6716 1.68712C11.4637 1.86882 11.4424 2.18469 11.6241 2.39262C11.8058 2.60056 12.1217 2.62183 12.3296 2.44012C12.8789 1.96014 13.3287 1.94694 13.6537 2.05626C14.0166 2.17834 14.309 2.48313 14.4417 2.75726L14.447 2.76976C14.4527 2.78335 14.4621 2.8067 14.4736 2.83911C14.4841 2.86846 14.4963 2.90511 14.5092 2.94857C14.5557 3.19132 14.501 3.53184 14.2837 3.86426C14.0245 4.26068 13.5754 4.56986 12.9631 4.56986C12.5694 4.56986 12.1339 4.405 11.5646 4.11946C11.4149 4.0444 11.2552 3.96049 11.0871 3.87212C10.6516 3.64329 10.1591 3.38451 9.63586 3.17177C8.12036 2.55559 6.23123 2.26654 3.70259 3.51324C3.04147 3.83919 2.76989 4.59964 2.98364 5.26297L2.98427 5.2649C2.01842 5.9524 1.32137 6.81828 0.892733 7.85733C0.420154 9.0029 0.286208 10.3284 0.439053 11.8084C0.470493 12.1129 0.727153 12.3466 1.03552 12.3466H2.22824C2.58589 12.3466 2.84203 12.089 2.91808 11.8099C3.03345 11.3866 3.42039 11.0837 3.87007 11.0837C4.3196 11.0837 4.70646 11.3864 4.82195 11.8096C4.89808 12.0885 5.15419 12.346 5.51172 12.346H6.58831C6.94583 12.346 7.20194 12.0885 7.27807 11.8096C7.37328 11.4607 7.65289 11.1938 8 11.1107V10.0969C7.26532 10.1819 6.6445 10.6691 6.37966 11.346H5.72037C5.4283 10.5995 4.70328 10.0837 3.87007 10.0837C3.0366 10.0837 2.3114 10.5998 2.01951 11.3466H1.40261C1.31833 10.1387 1.45899 9.10691 1.81716 8.23868C2.13015 7.47996 2.61709 6.82667 3.29932 6.2796L3.68085 7.53383L3.68344 7.54146C3.86226 8.06775 4.30675 8.34504 4.73802 8.44037C5.16003 8.53365 5.63407 8.47248 6.01126 8.26203C6.70052 7.88902 7.33875 7.44585 7.92628 6.91662C8.13145 6.73181 8.14796 6.41566 7.96314 6.21048C7.77832 6.0053 7.46217 5.9888 7.257 6.17361C6.73098 6.64743 6.15742 7.04609 5.53236 7.38409L5.5254 7.38799C5.37364 7.47321 5.15073 7.50746 4.95385 7.46394C4.7682 7.4229 4.67094 7.33239 4.63233 7.2256L4.05405 5.32433L3.93545 4.95627C3.86133 4.72625 3.96408 4.49925 4.14479 4.41016C6.38031 3.30797 7.96767 3.57301 9.25922 4.09813C9.73457 4.2914 10.1568 4.51334 10.5764 4.73396C10.7555 4.8281 10.9342 4.92201 11.1163 5.01334C11.693 5.3026 12.3136 5.56986 12.9631 5.56986C13.5118 5.56986 13.9864 5.41167 14.3723 5.16035C14.0751 5.91818 13.4649 6.80367 12.2645 7.70158C12.142 7.79335 12.0278 7.89321 11.9216 8H13.4829C14.9416 6.71327 15.4747 5.41124 15.6003 4.35421C15.6702 3.76563 15.6117 3.27088 15.5339 2.91956C15.5182 2.84864 15.5017 2.78344 15.4853 2.72433C15.4552 2.58488 15.4079 2.44938 15.3414 2.32081Z" fill="#CED0D6"/>
<path d="M9.14402 6.04034C9.1068 6.14729 9.16406 6.25882 9.25933 6.32003L10.1478 6.89091C10.2431 6.95212 10.3683 6.95785 10.4501 6.87955C10.6688 6.67024 10.7543 6.34903 10.6556 6.05159C10.5372 5.69461 10.1856 5.46872 9.8117 5.50936C9.50016 5.54321 9.24352 5.75444 9.14402 6.04034Z" fill="#CED0D6"/>
</svg>
