<!-- Copyright 2000-2023 JetBrains s.r.o. and contributors. Use of this source code is governed by the Apache 2.0 license. -->
<svg width="16" height="16" viewBox="0 0 16 16" fill="none" xmlns="http://www.w3.org/2000/svg">
<path d="M10 10H14.6445L12.6748 11.9697C12.3819 12.2626 12.3819 12.7374 12.6748 13.0303L14.6445 15H10V10Z" fill="#FAF5FF"/>
<path fill-rule="evenodd" clip-rule="evenodd" d="M9 10C9 9.44771 9.44772 9 10 9H15.248C15.9162 9 16.2508 9.80786 15.7783 10.2803L13.5587 12.5L15.7783 14.7197C16.2508 15.1921 15.9162 16 15.248 16H10C9.44772 16 9 15.5523 9 15V10ZM14.6445 10L10 10V15H14.6445L12.6748 13.0303C12.3819 12.7374 12.3819 12.2626 12.6748 11.9697L14.6445 10Z" fill="#834DF0"/>
<path d="M12 2C13.1046 2 14 2.89543 14 4V8H10C8.89543 8 8 8.89543 8 10V14H4C2.89543 14 2 13.1046 2 12V4C2 2.89543 2.89543 2 4 2H12Z" fill="#FFAF0F"/>
<path d="M8.45591 8.72878C8.37397 8.63311 8.30398 8.52794 8.24595 8.41329C8.13195 8.17959 8.07495 7.92451 8.07495 7.64806C8.07495 7.31746 8.16045 7.02106 8.33145 6.75886C8.5053 6.49381 8.74612 6.28719 9.05392 6.13899C9.36172 5.98794 9.70942 5.91241 10.097 5.91241C10.4932 5.91241 10.8451 5.98509 11.1529 6.13044C11.4636 6.27579 11.7058 6.47814 11.8797 6.73749C12.0535 6.99684 12.1419 7.29324 12.1447 7.62669H11.1316C11.1316 7.46424 11.0888 7.31889 11.0033 7.19064C10.9178 7.05954 10.7981 6.95836 10.6442 6.88711C10.4903 6.81586 10.3122 6.78024 10.1098 6.78024C9.9075 6.78024 9.72937 6.81444 9.57547 6.88284C9.42157 6.95124 9.30187 7.04814 9.21637 7.17354C9.13087 7.29894 9.08812 7.44429 9.08812 7.60959C9.08812 7.80339 9.15082 7.97154 9.27622 8.11404C9.28092 8.11927 9.28567 8.12443 9.29048 8.12951C8.96224 8.25408 8.67532 8.46257 8.45591 8.72878Z" fill="black"/>
<path d="M5.22179 11H4.21289V12H5.32012C5.64787 12 5.93857 11.9316 6.19222 11.7948C6.44587 11.6552 6.64394 11.4614 6.78644 11.2134C6.92894 10.9655 7.00019 10.6805 7.00019 10.3584L7.00024 6.00002H5.99989L5.99984 10.222C5.99984 10.3759 5.96707 10.5127 5.90152 10.6324C5.83882 10.7492 5.74762 10.8404 5.62792 10.906C5.51107 10.9687 5.37569 11 5.22179 11Z" fill="black"/>
</svg>
