<!-- Copyright 2000-2022 JetBrains s.r.o. and contributors. Use of this source code is governed by the Apache 2.0 license. -->
<svg width="16" height="16" viewBox="0 0 16 16" fill="none" xmlns="http://www.w3.org/2000/svg">
<path d="M1.5 4.5H1C1 4.77614 1.22386 5 1.5 5V4.5ZM6 14H8V13H6V14ZM13 5.5V4.5H12V5.5H13ZM5 4.5V4H4V4.5H5ZM1 4V4.5H2V4H1ZM3 3H10.5V2H3V3ZM5 12V4.5H4V12H5ZM4.5 4H1.5V5H4.5V4ZM13 8V5.5H12V8H13ZM2 4C2 3.44772 2.44772 3 3 3V2C1.89543 2 1 2.89543 1 4H2ZM13 4.5C13 3.11929 11.8807 2 10.5 2V3C11.3284 3 12 3.67157 12 4.5H13ZM5 4C5 2.89543 4.10457 2 3 2V3C3.55228 3 4 3.44772 4 4H5ZM4 12C4 13.1046 4.89543 14 6 14V13C5.44772 13 5 12.5523 5 12H4Z" fill="#CED0D6"/>
<path d="M15.4084 14.9915C15.5925 15.1819 15.4576 15.5 15.1927 15.5H9.8C9.63431 15.5 9.5 15.3657 9.5 15.2V9.8C9.5 9.63431 9.63431 9.5 9.8 9.5H15.1927C15.4576 9.5 15.5925 9.8181 15.4084 10.0085L13.2016 12.2915C13.0892 12.4078 13.0892 12.5922 13.2016 12.7085L15.4084 14.9915Z" fill="#2F2936" stroke="#955AE0"/>
</svg>
