<!-- Copyright 2000-2022 JetBrains s.r.o. and contributors. Use of this source code is governed by the Apache 2.0 license. -->
<svg width="16" height="16" viewBox="0 0 16 16" fill="none" xmlns="http://www.w3.org/2000/svg">
<path fill-rule="evenodd" clip-rule="evenodd" d="M13.9725 1.10846C14.6262 1.32836 15.1092 1.84187 15.3414 2.32081C15.4079 2.44938 15.4552 2.58488 15.4853 2.72433C15.5017 2.78344 15.5182 2.84864 15.5339 2.91956C15.6117 3.27088 15.6702 3.76563 15.6003 4.35421C15.4747 5.41124 14.9416 6.71327 13.4829 8H11.9216C12.0278 7.89321 12.142 7.79335 12.2645 7.70158C13.4649 6.80367 14.0751 5.91818 14.3723 5.16035C13.9864 5.41167 13.5118 5.56986 12.9631 5.56986C12.3136 5.56986 11.693 5.3026 11.1163 5.01334C10.9342 4.92201 10.7555 4.8281 10.5764 4.73396C10.1568 4.51334 9.73457 4.2914 9.25922 4.09813C7.96767 3.57301 6.38031 3.30797 4.14479 4.41016C3.96408 4.49925 3.86133 4.72625 3.93545 4.95627L4.05405 5.32433L4.63233 7.2256C4.67094 7.33239 4.7682 7.4229 4.95385 7.46394C5.15073 7.50746 5.37364 7.47321 5.5254 7.38799L5.53236 7.38409C6.15742 7.04609 6.73098 6.64743 7.257 6.17361C7.46217 5.9888 7.77832 6.0053 7.96314 6.21048C8.14796 6.41566 8.13145 6.73181 7.92628 6.91662C7.33875 7.44585 6.70052 7.88902 6.01126 8.26203C5.63407 8.47248 5.16003 8.53365 4.73802 8.44037C4.30675 8.34504 3.86226 8.06775 3.68344 7.54146L3.68085 7.53383L3.29932 6.2796C2.61709 6.82667 2.13015 7.47996 1.81716 8.23868C1.45899 9.10691 1.31833 10.1387 1.40261 11.3466H2.01951C2.3114 10.5998 3.0366 10.0837 3.87007 10.0837C4.70328 10.0837 5.4283 10.5995 5.72037 11.346H6.37966C6.6445 10.6691 7.26532 10.1819 8 10.0969V11.1107C7.65289 11.1938 7.37328 11.4607 7.27807 11.8096C7.20194 12.0885 6.94583 12.346 6.58831 12.346H5.51172C5.15419 12.346 4.89808 12.0885 4.82195 11.8096C4.70646 11.3864 4.3196 11.0837 3.87007 11.0837C3.42039 11.0837 3.03345 11.3866 2.91808 11.8099C2.84203 12.089 2.58589 12.3466 2.22824 12.3466H1.03552C0.727153 12.3466 0.470493 12.1129 0.439053 11.8084C0.286208 10.3284 0.420154 9.0029 0.892733 7.85733C1.32137 6.81828 2.01842 5.9524 2.98427 5.2649L2.98364 5.26297C2.76989 4.59964 3.04147 3.83919 3.70259 3.51324C6.23123 2.26654 8.12036 2.55559 9.63586 3.17177C10.1591 3.38451 10.6516 3.64329 11.0871 3.87212C11.2552 3.96049 11.4149 4.0444 11.5646 4.11946C12.1339 4.405 12.5694 4.56986 12.9631 4.56986C13.5754 4.56986 14.0245 4.26068 14.2837 3.86426C14.501 3.53184 14.5557 3.19132 14.5092 2.94857C14.4963 2.90511 14.4841 2.86846 14.4736 2.83911C14.4621 2.8067 14.4527 2.78335 14.447 2.76976L14.4417 2.75726C14.309 2.48313 14.0166 2.17834 13.6537 2.05626C13.3287 1.94694 12.8789 1.96014 12.3296 2.44012C12.1217 2.62183 11.8058 2.60056 11.6241 2.39262C11.4424 2.18469 11.4637 1.86882 11.6716 1.68712C12.4598 0.998327 13.2757 0.87402 13.9725 1.10846Z" fill="#CED0D6"/>
<path fill-rule="evenodd" clip-rule="evenodd" d="M9.25933 6.32003C9.16406 6.25882 9.1068 6.14729 9.14402 6.04034C9.24352 5.75444 9.50016 5.54321 9.8117 5.50936C10.1856 5.46872 10.5372 5.69461 10.6556 6.05159C10.7543 6.34903 10.6688 6.67024 10.4501 6.87955C10.3683 6.95785 10.2431 6.95212 10.1478 6.89091L9.25933 6.32003Z" fill="#CED0D6"/>
<path d="M15.4084 14.9915C15.5925 15.1819 15.4576 15.5 15.1927 15.5H9.8C9.63431 15.5 9.5 15.3657 9.5 15.2V9.8C9.5 9.63431 9.63431 9.5 9.8 9.5H15.1927C15.4576 9.5 15.5925 9.8181 15.4084 10.0085L13.2016 12.2915C13.0892 12.4078 13.0892 12.5922 13.2016 12.7085L15.4084 14.9915Z" fill="#2F2936" stroke="#955AE0"/>
</svg>
