<!-- Copyright 2000-2022 JetBrains s.r.o. and contributors. Use of this source code is governed by the Apache 2.0 license. -->
<svg width="16" height="16" viewBox="0 0 16 16" fill="none" xmlns="http://www.w3.org/2000/svg">
<path fill-rule="evenodd" clip-rule="evenodd" d="M3 3C2.44772 3 2 3.44772 2 4H4C4 3.44772 3.55228 3 3 3ZM4.73244 3H10.5C11.3284 3 12 3.67157 12 4.5V8H13V4.5C13 3.11929 11.8807 2 10.5 2H3C1.89543 2 1 2.89543 1 4V4.5C1 4.77614 1.22386 5 1.5 5H4V12C4 13.1046 4.89543 14 6 14H8V13H6C5.44772 13 5 12.5523 5 12V4C5 3.63571 4.90261 3.29417 4.73244 3Z" fill="#CED0D6"/>
<path d="M15.248 9.5H10C9.72386 9.5 9.5 9.72386 9.5 10V15C9.5 15.2761 9.72386 15.5 10 15.5H15.248C15.4707 15.5 15.5823 15.2307 15.4248 15.0732L13.0283 12.6768C12.9307 12.5791 12.9307 12.4209 13.0283 12.3232L15.4248 9.92678C15.5823 9.76929 15.4707 9.5 15.248 9.5Z" fill="#2F2936"/>
<path fill-rule="evenodd" clip-rule="evenodd" d="M9 10C9 9.44771 9.44772 9 10 9H15.248C15.9162 9 16.2508 9.80786 15.7783 10.2803L13.5587 12.5L15.7783 14.7197C16.2508 15.1921 15.9162 16 15.248 16H10C9.44772 16 9 15.5523 9 15V10ZM14.6445 10L10 10V15H14.6445L12.6748 13.0303C12.3819 12.7374 12.3819 12.2626 12.6748 11.9697L14.6445 10Z" fill="#B589EC"/>
</svg>
