<!-- Copyright 2000-2024 JetBrains s.r.o. and contributors. Use of this source code is governed by the Apache 2.0 license. -->
<svg width="16" height="16" viewBox="0 0 16 16" fill="none" xmlns="http://www.w3.org/2000/svg">
<path d="M10 10H14.6445L12.6748 11.9697C12.3819 12.2626 12.3819 12.7374 12.6748 13.0303L14.6445 15H10V10Z" fill="#FAF5FF"/>
<path fill-rule="evenodd" clip-rule="evenodd" d="M9 10C9 9.44771 9.44772 9 10 9H15.248C15.9162 9 16.2508 9.80786 15.7783 10.2803L13.5587 12.5L15.7783 14.7197C16.2508 15.1921 15.9162 16 15.248 16H10C9.44772 16 9 15.5523 9 15V10ZM14.6445 10L10 10V15H14.6445L12.6748 13.0303C12.3819 12.7374 12.3819 12.2626 12.6748 11.9697L14.6445 10Z" fill="#834DF0"/>
<path d="M12 2C13.1046 2 14 2.89543 14 4V8H10C8.89543 8 8 8.89543 8 10V14H4C2.89543 14 2 13.1046 2 12V4C2 2.89543 2.89543 2 4 2H12Z" fill="#FFAF0F"/>
<path d="M9.66549 7.59708C9.66549 7.75148 9.70528 7.8896 9.78488 8.01144C9.42506 8.04992 9.09377 8.18382 8.81683 8.38735C8.70715 8.15731 8.65231 7.90672 8.65231 7.63555C8.65231 7.30495 8.73781 7.00855 8.90881 6.74635C9.08266 6.4813 9.32349 6.27468 9.63129 6.12648C9.93909 5.97543 10.2868 5.8999 10.6744 5.8999C11.0705 5.8999 11.4225 5.97258 11.7303 6.11793C12.041 6.26328 12.2832 6.46563 12.4571 6.72498C12.6309 6.98433 12.7193 7.28073 12.7221 7.61418H11.7089C11.7089 7.45173 11.6662 7.30638 11.5807 7.17813C11.4952 7.04703 11.3755 6.94585 11.2216 6.8746C11.0677 6.80335 10.8896 6.76773 10.6872 6.76773C10.4849 6.76773 10.3067 6.80193 10.1528 6.87033C9.99894 6.93873 9.87924 7.03563 9.79374 7.16103C9.70824 7.28643 9.66549 7.43178 9.66549 7.59708Z" fill="black"/>
<path d="M4.21289 11H5.22179C5.37569 11 5.51107 10.9687 5.62792 10.906C5.74762 10.8404 5.83882 10.7492 5.90152 10.6324C5.96707 10.5127 5.99984 10.3759 5.99984 10.222L5.99989 6H7.00024L7.00019 10.3584C7.00019 10.6804 6.92894 10.9654 6.78644 11.2134C6.64394 11.4613 6.44587 11.6551 6.19222 11.7948C5.93857 11.9316 5.64787 12 5.32012 12H4.21289V11Z" fill="black"/>
</svg>
