<!-- Copyright 2000-2022 JetBrains s.r.o. and contributors. Use of this source code is governed by the Apache 2.0 license. -->
<svg width="16" height="16" viewBox="0 0 16 16" fill="none" xmlns="http://www.w3.org/2000/svg">
<path d="M15.248 9.5H10C9.72386 9.5 9.5 9.72386 9.5 10V15C9.5 15.2761 9.72386 15.5 10 15.5H15.248C15.4707 15.5 15.5823 15.2307 15.4248 15.0732L13.0283 12.6768C12.9307 12.5791 12.9307 12.4209 13.0283 12.3232L15.4248 9.92678C15.5823 9.76929 15.4707 9.5 15.248 9.5Z" fill="#EEE0FF"/>
<path fill-rule="evenodd" clip-rule="evenodd" d="M9 10C9 9.44771 9.44772 9 10 9H15.248C15.9162 9 16.2508 9.80786 15.7783 10.2803L13.5587 12.5L15.7783 14.7197C16.2508 15.1921 15.9162 16 15.248 16H10C9.44772 16 9 15.5523 9 15V10ZM14.6445 10L10 10V15H14.6445L12.6748 13.0303C12.3819 12.7374 12.3819 12.2626 12.6748 11.9697L14.6445 10Z" fill="#955AE0"/>
<path d="M2 2H14V8H10C8.89543 8 8 8.89543 8 10V14H2V2Z" fill="#FFF8E3"/>
<path d="M11.0207 4.06754C11.2253 4.20769 11.3408 4.40561 11.3673 4.66129H12.3304C12.3247 4.33742 12.2329 4.05049 12.0548 3.80049C11.8787 3.55049 11.6363 3.35542 11.3275 3.21527C11.0188 3.07322 10.6609 3.0022 10.2537 3.0022C9.85217 3.0022 9.49137 3.07322 9.1713 3.21527C8.85312 3.35731 8.60122 3.55617 8.41562 3.81186C8.2319 4.06564 8.14005 4.36299 8.14005 4.7039C8.14005 5.11678 8.27736 5.44822 8.55198 5.69822C8.8285 5.94822 9.20444 6.13477 9.67982 6.25788L10.3503 6.43686C10.5586 6.48989 10.7423 6.55049 10.9014 6.61867C11.0605 6.68686 11.1855 6.77303 11.2764 6.8772C11.3673 6.97947 11.4128 7.1092 11.4128 7.2664C11.4128 7.43875 11.3607 7.59027 11.2565 7.72095C11.1643 7.83702 11.0406 7.93002 10.8854 7.99994H12.2483C12.3561 7.78313 12.4099 7.54146 12.4099 7.27492C12.4099 7.01924 12.3607 6.79765 12.2622 6.61015C12.1656 6.42265 12.0359 6.26356 11.873 6.13288C11.712 6.0022 11.5302 5.89519 11.3275 5.81186C11.1268 5.72663 10.9222 5.65939 10.7139 5.61015L10.1599 5.47095C10.0425 5.44254 9.92414 5.40655 9.80482 5.36299C9.6855 5.31943 9.57565 5.2664 9.47528 5.2039C9.37679 5.1414 9.29725 5.06375 9.23664 4.97095C9.17793 4.87814 9.14952 4.76924 9.15141 4.64424C9.15141 4.49273 9.19497 4.35731 9.28209 4.23799C9.37111 4.11867 9.49611 4.02492 9.65709 3.95674C9.81997 3.88856 10.0141 3.85447 10.2395 3.85447C10.5577 3.85447 10.8181 3.92549 11.0207 4.06754Z" fill="black"/>
<path d="M8.63482 8.53833C8.90483 8.28603 9.2448 8.10767 9.62248 8.03552C9.6179 8.0339 9.61335 8.03226 9.6088 8.03061C9.42887 7.96242 9.28209 7.8611 9.16846 7.72663C9.05671 7.59027 8.99232 7.41981 8.97528 7.21527H7.98664C8.00179 7.59027 8.10122 7.91034 8.28493 8.17549C8.3821 8.31331 8.49873 8.43425 8.63482 8.53833Z" fill="black"/>
<path d="M7.01221 3.08174H6.01789V7.18402C6.01789 7.39235 5.98569 7.56849 5.9213 7.71242C5.8588 7.85636 5.76694 7.96527 5.64573 8.03913C5.52452 8.11299 5.37679 8.14992 5.20255 8.14992C5.04156 8.14992 4.89952 8.11867 4.77641 8.05617C4.6552 7.99367 4.55956 7.90561 4.48948 7.79197C4.4213 7.67644 4.38626 7.54008 4.38437 7.38288H3.38721C3.38721 7.72947 3.46486 8.02208 3.62016 8.26072C3.77736 8.49746 3.99043 8.67644 4.25937 8.79765C4.52831 8.91886 4.83134 8.97947 5.16846 8.97947C5.53588 8.97947 5.85785 8.90845 6.13437 8.7664C6.41088 8.62246 6.62584 8.41602 6.77925 8.14708C6.93456 7.87814 7.01221 7.55712 7.01221 7.18402V3.08174Z" fill="black"/>
<path d="M2 2H14V8H15V1H1V15H8V14H2V2Z" fill="#FCC75B"/>
<path d="M15 12.5271V12.4729L14.9729 12.5L15 12.5271Z" fill="#FCC75B"/>
</svg>
