<!-- Copyright 2000-2025 JetBrains s.r.o. and contributors. Use of this source code is governed by the Apache 2.0 license. -->
<svg width="16" height="16" viewBox="0 0 16 16" fill="none" xmlns="http://www.w3.org/2000/svg">
<path d="M8.5 8C8.77614 8 9 8.22386 9 8.5V9.326L9.181 9.16238C9.90358 8.44447 10.9005 8 12.0002 8C13.1046 8 14.1053 8.44826 14.8286 9.17157C15.1887 9.5316 15.4806 9.96029 15.6831 10.4368C15.8159 10.7493 15.9101 11.0822 15.9597 11.4292C15.9988 11.7026 15.8089 11.9559 15.5356 11.995C15.2622 12.0341 15.0089 11.8442 14.9698 11.5708C14.9326 11.3108 14.8621 11.0617 14.7627 10.8279C14.6111 10.4711 14.3922 10.1493 14.1215 9.87868C13.5781 9.33524 12.8288 9 12.0002 9C11.1716 9 10.4223 9.33524 9.87888 9.87868L9.86997 9.88759L9.74562 10H10.5C10.7761 10 11 10.2239 11 10.5C11 10.7761 10.7761 11 10.5 11H8.5C8.22386 11 8 10.7761 8 10.5V8.5C8 8.22386 8.22386 8 8.5 8Z" fill="#3574F0"/>
<path d="M8.46491 12.005C8.73827 11.9659 8.99157 12.1558 9.03067 12.4292C9.12449 13.0851 9.43079 13.6732 9.87894 14.1213C10.4224 14.6648 11.1717 15 12.0003 15C12.8288 15 13.5781 14.6648 14.1216 14.1213L14.1305 14.1124L14.2487 14H13.5C13.2239 14 13 13.7761 13 13.5C13 13.2239 13.2239 13 13.5 13H15.5C15.7761 13 16 13.2239 16 13.5V15.5C16 15.7761 15.7761 16 15.5 16C15.2239 16 15 15.7761 15 15.5V14.6657L14.8241 14.833C14.1011 15.5536 13.1024 16 12.0003 16C10.8958 16 9.89515 15.5517 9.17184 14.8284C8.57574 14.2323 8.16618 13.4477 8.04075 12.5708C8.00165 12.2974 8.19155 12.0441 8.46491 12.005Z" fill="#3574F0"/>
<path fill-rule="evenodd" clip-rule="evenodd" d="M4.73244 3H10.5C11.3284 3 12 3.67157 12 4.5V7H13V4.5C13 3.11929 11.8807 2 10.5 2H3C1.89543 2 1 2.89543 1 4V4.5C1 4.77614 1.22386 5 1.5 5H4V12C4 13.1046 4.89543 14 6 14H7V13H6C5.44772 13 5 12.5523 5 12V4C5 3.63571 4.90261 3.29417 4.73244 3ZM3 3C2.44772 3 2 3.44772 2 4H4C4 3.44772 3.55228 3 3 3Z" fill="#6C707E"/>
</svg>
