<!-- Copyright 2000-2022 JetBrains s.r.o. and contributors. Use of this source code is governed by the Apache 2.0 license. -->
<svg width="16" height="16" viewBox="0 0 16 16" fill="none" xmlns="http://www.w3.org/2000/svg">
<path fill-rule="evenodd" clip-rule="evenodd" d="M8 15C4.13401 15 1 11.866 1 8C1 4.13401 4.13401 1 8 1C11.866 1 15 4.13401 15 8H10C10 6.89543 9.10457 6 8 6C6.89543 6 6 6.89543 6 8C6 9.10457 6.89543 10 8 10V15Z" fill="#45322B"/>
<path fill-rule="evenodd" clip-rule="evenodd" d="M8 14C4.68629 14 2 11.3137 2 8C2 4.68629 4.68629 2 8 2C11.3137 2 14 4.68629 14 8H15C15 4.13401 11.866 1 8 1C4.13401 1 1 4.13401 1 8C1 11.866 4.13401 15 8 15V14ZM11 8C11 6.34315 9.65685 5 8 5C6.34315 5 5 6.34315 5 8C5 9.65685 6.34315 11 8 11V10C6.89543 10 6 9.10457 6 8C6 6.89543 6.89543 6 8 6C9.10457 6 10 6.89543 10 8H11Z" fill="#C77D55"/>
<path d="M15.4084 14.9915C15.5925 15.1819 15.4576 15.5 15.1927 15.5H9.8C9.63431 15.5 9.5 15.3657 9.5 15.2V9.8C9.5 9.63431 9.63431 9.5 9.8 9.5H15.1927C15.4576 9.5 15.5925 9.8181 15.4084 10.0085L13.2016 12.2915C13.0892 12.4078 13.0892 12.5922 13.2016 12.7085L15.4084 14.9915Z" fill="#2F2936" stroke="#955AE0"/>
</svg>
