<!-- Copyright 2000-2025 JetBrains s.r.o. and contributors. Use of this source code is governed by the Apache 2.0 license. -->
<svg width="16" height="16" viewBox="0 0 16 16" fill="none" xmlns="http://www.w3.org/2000/svg">
<path fill-rule="evenodd" clip-rule="evenodd" d="M13.1464 10.1465C13.3417 9.95132 13.6583 9.95132 13.8536 10.1465L15.8536 12.1465C16.0488 12.3418 16.0488 12.6584 15.8536 12.8537L13.8536 14.8537C13.6583 15.0489 13.3417 15.0489 13.1464 14.8537C12.9512 14.6584 12.9512 14.3418 13.1464 14.1465L14.2929 13.0001H12.5C12.2239 13.0001 12 12.7762 12 12.5001C12 12.224 12.2239 12.0001 12.5 12.0001H14.2929L13.1464 10.8537C12.9512 10.6584 12.9512 10.3418 13.1464 10.1465Z" fill="#6C707E"/>
<path d="M10.9001 9.20003C10.7344 8.97912 10.421 8.93435 10.2001 9.10003C10.1449 9.14157 10.0922 9.1852 10.006 9.26427C9.89804 9.36316 9.75427 9.50684 9.6096 9.68769C9.32843 10.0391 9.00003 10.586 9.00003 11.25C9.00003 11.9029 9.32466 12.389 9.5625 12.7451L9.58401 12.7774C9.84476 13.1685 10 13.4228 10 13.75C10 14.086 9.82843 14.4141 9.6096 14.6877C9.50427 14.8193 9.39804 14.9256 9.31842 14.9986C9.26294 15.0495 9.22999 15.0765 9.19979 15.1002C8.97908 15.2659 8.9344 15.5792 9.10003 15.8C9.26408 16.0187 9.58298 16.0632 9.80122 15.8991C9.85594 15.8577 9.9085 15.8143 9.99414 15.7358C10.1021 15.6369 10.2458 15.4932 10.3905 15.3124C10.6717 14.9609 11.0001 14.414 11.0001 13.75C11.0001 13.0971 10.6754 12.611 10.4376 12.2549C10.1632 11.844 10 11.5861 10 11.25C10 10.914 10.1717 10.5859 10.3905 10.3124C10.4958 10.1807 10.6021 10.0744 10.6817 10.0014C10.7372 9.95057 10.7701 9.92353 10.8003 9.89985C11.021 9.73412 11.0657 9.42087 10.9001 9.20003Z" fill="#208A3C"/>
<path d="M8 1C11.866 1 15 4.13401 15 8H10C8.89543 8 8 8.89543 8 10V15C4.13401 15 1 11.866 1 8C1 4.13401 4.13401 1 8 1Z" fill="#FFF7F7"/>
<path d="M8 1C11.866 1 15 4.13401 15 8H14C14 4.68629 11.3137 2 8 2C4.68629 2 2 4.68629 2 8C2 11.3137 4.68629 14 8 14V15C4.13401 15 1 11.866 1 8C1 4.13401 4.13401 1 8 1Z" fill="#DB3B4B"/>
<path d="M9.87988 4.87402H8.87402C8.51994 4.8742 8.27441 5.1206 8.27441 5.48047V6.43066H9.8291V7.32715H8.27441V8.99219C8.10107 9.28834 8 9.63207 8 10V12H7.25684V7.32715H6.12012V6.43066H7.25684V5.40527C7.25705 4.57123 7.87465 4 8.77734 4H9.87988V4.87402Z" fill="#DB3B4B"/>
</svg>
