<!-- Copyright 2000-2024 JetBrains s.r.o. and contributors. Use of this source code is governed by the Apache 2.0 license. -->
<svg width="14" height="14" viewBox="0 0 14 14" fill="none" xmlns="http://www.w3.org/2000/svg">
<path d="M5.50025 1.5C5.50025 1.5 3.24989 4 5.49994 6.5C7.74994 9 5.50026 11.5 5.50026 11.5" stroke="#208A3C" stroke-linecap="round"/>
<path d="M9.85355 2.14645C9.65829 1.95118 9.34171 1.95118 9.14645 2.14645C8.95118 2.34171 8.95118 2.65829 9.14645 2.85355L12.2929 6H7.02351C7.26532 6.33273 7.45493 6.66748 7.60006 7H12.2929L9.14645 10.1464C8.95118 10.3417 8.95118 10.6583 9.14645 10.8536C9.34171 11.0488 9.65829 11.0488 9.85355 10.8536L13.8536 6.85355C14.0488 6.65829 14.0488 6.34171 13.8536 6.14645L9.85355 2.14645Z" fill="#6C707E"/>
<path d="M3.97649 7C3.73468 6.66727 3.54507 6.33252 3.39994 6H0.5C0.223858 6 0 6.22386 0 6.5C0 6.77614 0.223858 7 0.5 7H3.97649Z" fill="#6C707E"/>
</svg>
