<!-- Copyright 2000-2025 JetBrains s.r.o. and contributors. Use of this source code is governed by the Apache 2.0 license. -->
<svg width="16" height="16" viewBox="0 0 16 16" fill="none" xmlns="http://www.w3.org/2000/svg">
<path d="M8 2C9.59535 2 11.0449 2.62177 12.1201 3.6377L12.3301 3.84668L12.4072 3.91211C12.489 3.96842 12.584 3.99708 12.6797 3.99902L12.5 4C12.2134 3.99967 11.9249 4.08104 11.6719 4.24902L11.5635 4.32812C10.9957 4.78234 10.847 5.56269 11.165 6.18359C11.1799 6.21263 11.1962 6.24112 11.2139 6.26855L11.2686 6.35352C11.2871 6.38229 11.3077 6.41078 11.3291 6.4375L12.5 7.90039V8.09863L11.3291 9.5625C10.8116 10.2094 10.9166 11.1544 11.5635 11.6719C11.8401 11.893 12.1712 11.9991 12.5 11.999H12.6797L12.6836 12.002C12.5547 12.0034 12.4265 12.0531 12.3301 12.1533C11.2375 13.2918 9.70163 14 8 14C4.68629 14 2 11.3137 2 8C2 4.68629 4.68629 2 8 2Z" fill="#402929"/>
<path d="M12.1874 5.10946C12.3761 4.95857 12.6406 4.96667 12.8193 5.11532L12.8906 5.18759L14.8906 7.68759C15.0367 7.8702 15.0367 8.12998 14.8906 8.31259L12.8906 10.8126C12.7181 11.0282 12.4031 11.0632 12.1874 10.8907C11.9718 10.7182 11.9368 10.4032 12.1093 10.1876L13.8593 8.00009L12.1093 5.81259L12.0546 5.72763C11.9486 5.52055 11.9987 5.26046 12.1874 5.10946Z" fill="#CED0D6"/>
<path d="M7.97557 11.5C7.4706 11.5 7.01351 11.4195 6.6043 11.2584C6.19945 11.0973 5.87514 10.8731 5.63135 10.5858C5.39193 10.2942 5.26351 9.96548 5.24609 9.59981H6.31046C6.32787 9.80006 6.41058 9.98072 6.55859 10.1418C6.7066 10.2985 6.9025 10.4226 7.14628 10.514C7.39006 10.6054 7.66214 10.6511 7.96251 10.6511C8.26724 10.6511 8.53496 10.6011 8.76568 10.5009C9.00076 10.4008 9.18142 10.2615 9.30766 10.083C9.43826 9.90454 9.50356 9.70211 9.50356 9.47575C9.50356 9.23197 9.4339 9.02736 9.2946 8.86194C9.15965 8.69216 8.97029 8.58551 8.7265 8.54198L7.11363 8.24813C6.59995 8.15236 6.19945 7.94559 5.91214 7.6278C5.62483 7.30566 5.48117 6.89863 5.48117 6.40672C5.48117 6.0541 5.58129 5.73414 5.78154 5.44683C5.98614 5.15516 6.27128 4.92444 6.63695 4.75466C7.00262 4.58489 7.42053 4.5 7.89068 4.5C8.35648 4.5 8.77657 4.57618 9.15094 4.72855C9.52532 4.88091 9.82352 5.09204 10.0455 5.36194C10.2675 5.63184 10.3873 5.93221 10.4047 6.26306H9.34031C9.32725 6.08893 9.25542 5.93221 9.12482 5.79291C8.99858 5.65361 8.8288 5.54478 8.6155 5.46642C8.40219 5.38806 8.16276 5.34888 7.89721 5.34888C7.62731 5.34888 7.38788 5.39459 7.17893 5.48601C6.96997 5.57743 6.80673 5.70367 6.68919 5.86474C6.57601 6.02146 6.51941 6.19994 6.51941 6.40019C6.51941 6.62655 6.58254 6.81374 6.70878 6.96175C6.83502 7.10976 7.02004 7.20554 7.26382 7.24907L8.91587 7.54291C9.25542 7.60386 9.54709 7.72357 9.79087 7.90205C10.039 8.08054 10.2262 8.30255 10.3524 8.5681C10.483 8.83364 10.5483 9.12313 10.5483 9.43657C10.5483 9.82836 10.4351 10.181 10.2088 10.4944C9.98676 10.8078 9.67986 11.0538 9.28807 11.2323C8.89628 11.4108 8.45878 11.5 7.97557 11.5Z" fill="#57965C"/>
<path d="M1 8C1 4.13401 4.13401 1 8 1C9.86112 1 11.5532 1.72688 12.8066 2.91113L13.0508 3.15332L13.1133 3.2334C13.2375 3.42993 13.2111 3.69296 13.0371 3.86035C12.8629 4.02753 12.5986 4.04391 12.4072 3.91211L12.3301 3.84668L12.1201 3.6377C11.0449 2.62177 9.59535 2 8 2C4.68629 2 2 4.68629 2 8C2 11.3137 4.68629 14 8 14C9.70163 14 11.2375 13.2918 12.3301 12.1533C12.5213 11.9545 12.838 11.9486 13.0371 12.1396C13.2359 12.3309 13.2418 12.6476 13.0508 12.8467C11.7775 14.1733 9.98486 15 8 15C4.13401 15 1 11.866 1 8Z" fill="#DB5C5C"/>
</svg>
