<!-- Copyright 2000-2022 JetBrains s.r.o. and contributors. Use of this source code is governed by the Apache 2.0 license. -->
<svg width="16" height="16" viewBox="0 0 16 16" fill="none" xmlns="http://www.w3.org/2000/svg">
<path d="M15.248 9.5H10C9.72386 9.5 9.5 9.72386 9.5 10V15C9.5 15.2761 9.72386 15.5 10 15.5H15.248C15.4707 15.5 15.5823 15.2307 15.4248 15.0732L13.0283 12.6768C12.9307 12.5791 12.9307 12.4209 13.0283 12.3232L15.4248 9.92678C15.5823 9.76929 15.4707 9.5 15.248 9.5Z" fill="#2F2936"/>
<path fill-rule="evenodd" clip-rule="evenodd" d="M9 10C9 9.44771 9.44772 9 10 9H15.248C15.9162 9 16.2508 9.80786 15.7783 10.2803L13.5587 12.5L15.7783 14.7197C16.2508 15.1921 15.9162 16 15.248 16H10C9.44772 16 9 15.5523 9 15V10ZM14.6445 10L10 10V15H14.6445L12.6748 13.0303C12.3819 12.7374 12.3819 12.2626 12.6748 11.9697L14.6445 10Z" fill="#B589EC"/>
<path d="M15 8C15 4.13401 11.866 1 8 1C4.13401 1 1 4.13401 1 8C1 11.866 4.13401 15 8 15V10C8 8.89543 8.89543 8 10 8H15Z" fill="#25324D"/>
<path d="M8 14C4.68629 14 2 11.3137 2 8C2 4.68629 4.68629 2 8 2C11.3137 2 14 4.68629 14 8H15C15 4.13401 11.866 1 8 1C4.13401 1 1 4.13401 1 8C1 11.866 4.13401 15 8 15V14Z" fill="#548AF7"/>
<path d="M5.5 6.0305V5H10.5085V6.0305H8.56V11.3H7.453V6.0305H5.5Z" fill="#548AF7"/>
</svg>
