<svg width="40" height="40" viewBox="0 0 40 40" fill="none" xmlns="http://www.w3.org/2000/svg">
<path d="M31.5 32C32.3284 32 33 32.6716 33 33.5C33 34.3284 32.3284 35 31.5 35H4.5C3.67157 35 3 34.3284 3 33.5C3 32.6716 3.67157 32 4.5 32H31.5Z" fill="#C77D55"/>
<path fill-rule="evenodd" clip-rule="evenodd" d="M34.5 5C35.8807 5 37 6.11929 37 7.5V12.1455C37 13.8499 36.0371 15.4086 34.5127 16.1709L31 17.9268V20C31 25.5228 26.5228 30 21 30H13C7.47715 30 3 25.5228 3 20V8C3 6.34315 4.34315 5 6 5H34.5ZM6 20C6 23.866 9.13401 27 13 27H21C24.866 27 28 23.866 28 20V8H6V20ZM31 14.5723L33.1709 13.4873C33.679 13.2332 34 12.7136 34 12.1455V8H31V14.5723Z" fill="#C77D55"/>
<path fill-rule="evenodd" clip-rule="evenodd" d="M6 20C6 23.866 9.13401 27 13 27H21C24.866 27 28 23.866 28 20V8H6V20ZM31 14.5723L33.1709 13.4873C33.679 13.2332 34 12.7136 34 12.1455V8H31V14.5723Z" fill="#45322B"/>
<path d="M9.07706 20V15.6364H10.4663V20H9.07706ZM9.77308 15.1278C9.57801 15.1278 9.41039 15.0634 9.27024 14.9347C9.13009 14.804 9.06001 14.6468 9.06001 14.4631C9.06001 14.2812 9.13009 14.1259 9.27024 13.9972C9.41039 13.8665 9.57801 13.8011 9.77308 13.8011C9.97005 13.8011 10.1377 13.8665 10.2759 13.9972C10.4161 14.1259 10.4862 14.2812 10.4862 14.4631C10.4862 14.6468 10.4161 14.804 10.2759 14.9347C10.1377 15.0634 9.97005 15.1278 9.77308 15.1278ZM14.0295 14.1818V20H12.6261V15.4943H12.592L11.2908 16.2898V15.0739L12.7255 14.1818H14.0295ZM17.5884 20.0795C17.1358 20.0795 16.7314 20.0076 16.3754 19.8636C16.0212 19.7178 15.7428 19.5208 15.5401 19.2727C15.3394 19.0227 15.239 18.7405 15.239 18.4261C15.239 18.1856 15.2968 17.965 15.4123 17.7642C15.5278 17.5634 15.6841 17.3968 15.881 17.2642C16.0799 17.1297 16.3015 17.0436 16.5458 17.0057V16.9602C16.2257 16.9015 15.9634 16.7528 15.7589 16.5142C15.5562 16.2756 15.4549 15.9962 15.4549 15.6761C15.4549 15.3731 15.5468 15.1032 15.7305 14.8665C15.9161 14.6297 16.1689 14.4432 16.489 14.3068C16.811 14.1705 17.1774 14.1023 17.5884 14.1023C17.9994 14.1023 18.3649 14.1705 18.685 14.3068C19.007 14.4432 19.2598 14.6297 19.4435 14.8665C19.6291 15.1032 19.7219 15.3731 19.7219 15.6761C19.7219 15.9981 19.6187 16.2784 19.4123 16.517C19.2077 16.7538 18.9473 16.9015 18.631 16.9602V17.0057C18.8735 17.0436 19.0932 17.1297 19.2901 17.2642C19.489 17.3968 19.6462 17.5634 19.7617 17.7642C19.8791 17.965 19.9379 18.1856 19.9379 18.4261C19.9379 18.7405 19.8365 19.0227 19.6339 19.2727C19.4312 19.5208 19.1528 19.7178 18.7987 19.8636C18.4464 20.0076 18.043 20.0795 17.5884 20.0795ZM17.5884 19.0824C17.7608 19.0824 17.9123 19.0502 18.043 18.9858C18.1737 18.9195 18.2759 18.8277 18.3498 18.7102C18.4255 18.5928 18.4634 18.4602 18.4634 18.3125C18.4634 18.161 18.4255 18.0265 18.3498 17.9091C18.274 17.7917 18.1699 17.6998 18.0373 17.6335C17.9066 17.5653 17.757 17.5312 17.5884 17.5312C17.4218 17.5312 17.2721 17.5653 17.1396 17.6335C17.007 17.6998 16.9028 17.7917 16.8271 17.9091C16.7513 18.0265 16.7134 18.161 16.7134 18.3125C16.7134 18.4602 16.7504 18.5928 16.8242 18.7102C16.9 18.8258 17.0032 18.9167 17.1339 18.983C17.2665 19.0492 17.418 19.0824 17.5884 19.0824ZM17.5884 16.5398C17.7362 16.5398 17.8668 16.5095 17.9805 16.4489C18.096 16.3883 18.186 16.304 18.2504 16.196C18.3166 16.0881 18.3498 15.9659 18.3498 15.8295C18.3498 15.6932 18.3166 15.5729 18.2504 15.4688C18.186 15.3646 18.0969 15.2831 17.9833 15.2244C17.8697 15.1638 17.738 15.1335 17.5884 15.1335C17.4407 15.1335 17.3091 15.1638 17.1935 15.2244C17.078 15.2831 16.988 15.3646 16.9237 15.4688C16.8593 15.5729 16.8271 15.6932 16.8271 15.8295C16.8271 15.9659 16.8593 16.0881 16.9237 16.196C16.9899 16.3021 17.0808 16.3864 17.1964 16.4489C17.3119 16.5095 17.4426 16.5398 17.5884 16.5398ZM22.1225 17.5114V20H20.7333V15.6364H22.0543V16.4375H22.1026C22.1992 16.1705 22.364 15.9612 22.5969 15.8097C22.8299 15.6562 23.1074 15.5795 23.4293 15.5795C23.7362 15.5795 24.0022 15.6487 24.2276 15.7869C24.4549 15.9233 24.631 16.1146 24.756 16.3608C24.8829 16.6051 24.9454 16.8911 24.9435 17.2188V20H23.5543V17.4915C23.5562 17.2491 23.4947 17.0597 23.3697 16.9233C23.2466 16.7869 23.0752 16.7188 22.8555 16.7188C22.7096 16.7188 22.5808 16.7509 22.4691 16.8153C22.3593 16.8778 22.274 16.9678 22.2134 17.0852C22.1547 17.2027 22.1244 17.3447 22.1225 17.5114Z" fill="#CED0D6"/>
</svg>
