<!-- Copyright 2000-2025 JetBrains s.r.o. and contributors. Use of this source code is governed by the Apache 2.0 license. -->
<svg width="16" height="16" viewBox="0 0 16 16" fill="none" xmlns="http://www.w3.org/2000/svg">
<path fill-rule="evenodd" clip-rule="evenodd" d="M7.00781 0.567591C7.62268 0.216239 8.37732 0.216239 8.99219 0.567591L13.9922 3.42404C14.6153 3.78013 15 4.44364 15 5.16134V10.8391C15 11.5568 14.6153 12.2203 13.9922 12.5764L8.99219 15.4328C8.41593 15.7621 7.71669 15.7833 7.125 15.4953L7.00781 15.4328L2.00781 12.5764C1.38469 12.2203 1.00003 11.5568 1 10.8391V5.16134C1 4.48849 1.33785 3.86319 1.89355 3.49435L2.00781 3.42404L7.00781 0.567591ZM2 10.8391C2.00003 11.1979 2.19236 11.5302 2.50391 11.7082L7.5 14.5617V12.2863L4.50391 10.5754C4.19237 10.3974 4 10.0651 4 9.70626V6.3088L2 5.1545V10.8391ZM12 6.3088V9.70626C12 10.0651 11.8076 10.3974 11.4961 10.5754L8.5 12.2863V14.5617L13.4961 11.7082C13.8076 11.5302 14 11.1979 14 10.8391V5.16134C14 5.15909 13.999 5.15675 13.999 5.1545L12 6.3088ZM5.5 6.58517V9.41622L8 10.844L10.5 9.41622V6.59786L10.4883 6.57833L8 5.15743L5.5 6.58517ZM8.49609 1.43575C8.18866 1.26008 7.81134 1.26008 7.50391 1.43575L2.50391 4.29122L4.48926 5.43673C4.49413 5.43384 4.49898 5.43076 4.50391 5.42794L7.50391 3.7131C7.81122 3.53759 8.18878 3.53759 8.49609 3.7131L11.4961 5.42794C11.5008 5.43062 11.5051 5.43398 11.5098 5.43673L13.4951 4.29122L8.49609 1.43575Z" fill="#6C707E"/>
</svg>
