<svg height="20" viewBox="0 0 16 16" width="20" xmlns="http://www.w3.org/2000/svg">
    <path d="m7.99707713 1c-3.86368564 0-6.99707713 3.1329619-6.99707713 6.9979363 0 3.0917218 2.00487223 5.7143369 4.78557461 6.6396626.3501116.0644377.47769829-.1516435.47769829-.3372241 0-.1658197-.00601419-.6061441-.00945087-1.1899499-1.9464487.4227115-2.35713176-.9382132-2.35713176-.9382132-.31832234-.8084785-.7771189-1.0237005-.7771189-1.0237005-.63535591-.4338807.0481135-.425289.0481135-.425289.70237114.0494023 1.07181406.7212729 1.07181406.7212729.62418671 1.0692366 1.63800682.7603651 2.03666151.5812282.06357855-.4519232.24443375-.7603651.44419068-.9352061-1.5538082-.1765593-3.18751917-.7771189-3.18751917-3.45858715 0-.76380176.27278634-1.38884764.7204137-1.87771513-.07217025-.17698894-.31230815-.88881094.06873356-1.85194005 0 0 .58724242-.18815814 1.9241103.71740661.55803064-.1555097 1.15687185-.23283496 1.75184679-.23584206.59454535.0030071 1.19295697.08033236 1.75184679.23584206 1.33600871-.90556475 1.92239191-.71740661 1.92239191-.71740661.3819009.96312911.141763 1.67495111.0700224 1.85194005.4484865.48886749.7191249 1.11391337.7191249 1.87771513 0 2.68834165-1.6362885 3.27987995-3.19482211 3.45300255.25087752.2160812.4746912.6430885.4746912 1.2960574 0 .935206-.00859169 1.6899865-.00859169 1.9193848 0 .187299.12629793.4050985.481135.3367945 2.7785544-.9274736 4.7817083-3.5483704 4.7817083-6.639233 0-3.8649744-3.1333915-6.9979363-6.99836587-6.9979363"
          fill="#161514" fill-rule="evenodd"/>
</svg>
