<svg xmlns="http://www.w3.org/2000/svg" width="16" height="16" viewBox="0 0 16 16">
  <g fill="none" fill-rule="evenodd">
    <path fill="#40B6E0" d="M9.260391,6.32522069 L10.5169494,7.2267667 C10.2751175,7.97474329 9.87813029,8.65294387 9.36393041,9.22342575 L7.95490923,8.58778561 C7.55387891,8.94116518 7.08288634,9.21700799 6.56537772,9.39186785 L6.41185475,10.930198 C6.03985489,11.0091942 5.65401853,11.0507569 5.25847469,11.0507569 C4.86293085,11.0507569 4.47709448,11.0091942 4.10509463,10.930198 L3.95157164,9.39186771 C3.43406313,9.21700783 2.96307066,8.94116502 2.56204042,8.58778549 L1.15301897,9.22342575 C0.638819088,8.65294387 0.24183187,7.97474329 -1.8637869e-14,7.2267667 L1.25655873,6.32522044 C1.20515306,6.0665761 1.17819527,5.79912554 1.17819527,5.52537864 C1.17819527,5.25163162 1.20515308,4.98418093 1.2565588,4.72553649 L2.22044605e-14,3.82399018 C0.24183187,3.07601359 0.638819088,2.39781301 1.15301897,1.82733113 L2.56204072,2.46297152 C2.96307088,2.10959213 3.43406324,1.83374943 3.9515716,1.65888959 L4.10509463,0.120558843 C4.47709448,0.0415626284 4.86293085,0 5.25847469,0 C5.65401853,0 6.03985489,0.0415626284 6.41185475,0.120558843 L6.56537776,1.65888945 C7.08288623,1.83374926 7.55387868,2.10959197 7.95490892,2.4629714 L9.36393041,1.82733113 C9.87813029,2.39781301 10.2751175,3.07601359 10.5169494,3.82399018 L9.26039093,4.72553624 C9.31179669,4.98418076 9.33875452,5.25163153 9.33875452,5.52537864 C9.33875452,5.79912563 9.31179671,6.06657628 9.260391,6.32522069 Z M5.25847449,7.48084867 C6.33826511,7.48084867 7.21360836,6.60543007 7.21360836,5.52554652 C7.21360836,4.44566296 6.33826511,3.57024437 5.25847449,3.57024437 C4.17868387,3.57024437 3.30334062,4.44566296 3.30334062,5.52554652 C3.30334062,6.60543007 4.17868387,7.48084867 5.25847449,7.48084867 Z"/>
    <path fill="#9AA7B0" d="M15.1598391,12.9074185 L15.9956783,13.50711 C15.8348162,14.0046501 15.5707478,14.4557764 15.2287116,14.8352503 L14.291457,14.4124344 C14.0246992,14.6474959 13.7114037,14.8309814 13.3671666,14.9472949 L13.265046,15.9705634 C13.0175987,16.0231102 12.7609475,16.0507569 12.4978391,16.0507569 C12.2347308,16.0507569 11.9780796,16.0231102 11.7306323,15.9705634 L11.6285116,14.9472948 C11.2842747,14.8309813 10.9709793,14.6474958 10.7042214,14.4124343 L9.76696668,14.8352503 C9.42493053,14.4557764 9.16086204,14.0046501 9,13.50711 L9.8358394,12.9074183 C9.8016453,12.7353729 9.78371349,12.5574698 9.78371349,12.3753785 C9.78371349,12.1932871 9.80164532,12.0153839 9.83583944,11.8433384 L9,11.2436467 C9.16086204,10.7461066 9.42493053,10.2949802 9.76696668,9.91550635 L10.7042216,10.3383225 C10.9709794,10.1032611 11.2842747,9.91977568 11.6285116,9.80346218 L11.7306323,8.7801933 C11.9780796,8.72764649 12.2347308,8.69999981 12.4978391,8.69999981 C12.7609475,8.69999981 13.0175987,8.72764649 13.265046,8.7801933 L13.3671667,9.80346208 C13.7114036,9.91977556 14.024699,10.103261 14.2914568,10.3383224 L15.2287116,9.91550635 C15.5707478,10.2949802 15.8348162,10.7461066 15.9956783,11.2436467 L15.1598391,11.8433382 C15.1940332,12.0153838 15.2119651,12.193287 15.2119651,12.3753785 C15.2119651,12.5574699 15.1940332,12.735373 15.1598391,12.9074185 Z M12.497839,13.6761206 C13.2160956,13.6761206 13.7983575,13.0938085 13.7983575,12.3754901 C13.7983575,11.6571718 13.2160956,11.0748597 12.497839,11.0748597 C11.7795825,11.0748597 11.1973205,11.6571718 11.1973205,12.3754901 C11.1973205,13.0938085 11.7795825,13.6761206 12.497839,13.6761206 Z"/>
  </g>
</svg>
