<!-- Copyright 2000-2021 JetBrains s.r.o. Use of this source code is governed by the Apache 2.0 license that can be found in the LICENSE file. -->
<svg xmlns="http://www.w3.org/2000/svg" width="16" height="16" viewBox="0 0 16 16">
  <g fill="none" fill-rule="evenodd">
    <path fill="#9AA7B0" fill-opacity=".8" d="M11,4.69999981 C7.86091566,4.69999981 5.25805296,6.99583755 4.77892492,10 L1,10 L1,1 L11,1 L11,4.69999981 Z M4.8277669,4.12066011 L2.70710678,2 L2,2.70710678 L4.12066011,4.8277669 L2,6.94842701 L2.70710678,7.65553379 L4.8277669,5.53487368 L4.82842712,5.53553391 L5.53553391,4.82842712 L5.53487368,4.8277669 L5.53553391,4.82710667 L4.82842712,4.11999989 L4.8277669,4.12066011 Z"/>
    <path fill="#40B6E0" d="M11.5,10.9928935 L11.5,8.4000001 L10.5,8.4000001 L10.5,11.4000001 L10.507107,11.4000001 L10.5,11.4071071 L12.4834169,13.3905239 L13.1905236,12.6834172 L11.5,10.9928935 Z M11,16 C8.23857625,16 6,13.7614237 6,11 C6,8.23857625 8.23857625,6 11,6 C13.7614237,6 16,8.23857625 16,11 C16,13.7614237 13.7614237,16 11,16 Z"/>
  </g>
</svg>
