<!-- Copyright 2000-2022 JetBrains s.r.o. and contributors. Use of this source code is governed by the Apache 2.0 license. -->
<svg width="16" height="16" viewBox="0 0 16 16" fill="none" xmlns="http://www.w3.org/2000/svg">
<path d="M14.4551 5.23976C14.6979 5.10832 14.7882 4.80489 14.6568 4.56204C14.5253 4.31919 14.2219 4.22887 13.9791 4.36032L14.4551 5.23976ZM12.238 6.43975L14.4551 5.23976L13.9791 4.36032L11.762 5.56031L12.238 6.43975Z" fill="#767A8A"/>
<path d="M2.02989 13.5331C1.79075 13.6711 1.48495 13.5892 1.34688 13.3501C1.20881 13.1109 1.29075 12.8051 1.52989 12.667L2.02989 13.5331ZM4.25 12.2513L2.02989 13.5331L1.52989 12.667L3.75 11.3853L4.25 12.2513Z" fill="#767A8A"/>
<path d="M1.1001 9.5C0.823955 9.5 0.600097 9.27614 0.600097 9C0.600097 8.72386 0.823955 8.5 1.1001 8.5L1.1001 9.5ZM3.6001 9.5L1.1001 9.5L1.1001 8.5L3.6001 8.5L3.6001 9.5Z" fill="#767A8A"/>
<path d="M1.54215 5.23991C1.29922 5.1086 1.20874 4.80523 1.34004 4.5623C1.47134 4.31937 1.77472 4.22888 2.01765 4.36019L1.54215 5.23991ZM3.76225 6.43989L1.54215 5.23991L2.01765 4.36019L4.23775 5.56017L3.76225 6.43989Z" fill="#767A8A"/>
<path fill-rule="evenodd" clip-rule="evenodd" d="M6.30005 4.2C6.30005 3.26112 7.06116 2.5 8.00005 2.5C8.93893 2.5 9.70005 3.26112 9.70005 4.2C9.70005 4.48922 9.62782 4.76157 9.50043 5H10.5C10.5265 5 10.5529 5.00052 10.5791 5.00154C10.6577 4.7483 10.7 4.47909 10.7 4.2C10.7 2.70883 9.49122 1.5 8.00005 1.5C6.50888 1.5 5.30005 2.70883 5.30005 4.2C5.30005 4.47909 5.34239 4.7483 5.42101 5.00153C5.44723 5.00051 5.47358 5 5.50005 5H6.49967C6.37227 4.76157 6.30005 4.48922 6.30005 4.2Z" fill="#767A8A"/>
<path fill-rule="evenodd" clip-rule="evenodd" d="M7 4C5.067 4 3.5 5.567 3.5 7.5V10C3.5 12.1416 4.99601 13.9338 7 14.3885V13.3551C5.55426 12.9248 4.5 11.5855 4.5 10V7.5C4.5 6.11929 5.61929 5 7 5H9C10.2095 5 11.2184 5.85888 11.45 7H12.4646C12.2219 5.30385 10.7632 4 9 4H7Z" fill="#767A8A"/>
<path d="M8.64645 13.1464C8.45118 13.3417 8.45118 13.6583 8.64645 13.8536C8.84171 14.0488 9.15829 14.0488 9.35355 13.8536L8.64645 13.1464ZM9.35355 13.8536L13.8536 9.35355L13.1464 8.64645L8.64645 13.1464L9.35355 13.8536Z" fill="#3574F0"/>
<path d="M13.5 9H14C14 8.72386 13.7761 8.5 13.5 8.5V9ZM10.5 8.5C10.2239 8.5 10 8.72386 10 9C10 9.27614 10.2239 9.5 10.5 9.5V8.5ZM13 12C13 12.2761 13.2239 12.5 13.5 12.5C13.7761 12.5 14 12.2761 14 12H13ZM13.5 8.5H10.5V9.5H13.5V8.5ZM13 9V12H14V9H13Z" fill="#3574F0"/>
</svg>
