<!-- Copyright 2000-2023 JetBrains s.r.o. and contributors. Use of this source code is governed by the Apache 2.0 license. -->
<svg width="16" height="16" viewBox="0 0 16 16" fill="none" xmlns="http://www.w3.org/2000/svg">
<path fill-rule="evenodd" clip-rule="evenodd" d="M12.5 11C12.2239 11 12 11.2239 12 11.5C12 11.7761 12.2239 12 12.5 12H14.2929L11.1464 15.1464C10.9512 15.3417 10.9512 15.6583 11.1464 15.8535C11.3417 16.0488 11.6583 16.0488 11.8536 15.8535L15 12.7071V14.5C15 14.7761 15.2239 15 15.5 15C15.7761 15 16 14.7761 16 14.5V11.5C16 11.2239 15.7761 11 15.5 11H12.5Z" fill="#548AF7"/>
<path fill-rule="evenodd" clip-rule="evenodd" d="M10.7008 4.2C10.7008 4.27899 10.6974 4.35728 10.6907 4.4347C11.1618 4.69509 11.5665 5.06092 11.8729 5.50036L13.9791 4.36035C14.222 4.2289 14.5254 4.31922 14.6569 4.56207C14.7883 4.80492 14.698 5.10835 14.4551 5.23979L12.3218 6.39447C12.4374 6.74197 12.5 7.11367 12.5 7.5V8.49982H15C15.2761 8.49982 15.5 8.72367 15.5 8.99982C15.5 9.27596 15.2761 9.49982 15 9.49982H12.5V10C12.1046 10 11.745 10.153 11.4771 10.4029C11.4922 10.2707 11.5 10.1363 11.5 10V7.5C11.5 6.11929 10.3807 5 9 5H7C5.61929 5 4.5 6.11929 4.5 7.5V10C4.5 11.933 6.067 13.5 8 13.5C9.28946 13.5 10.416 12.8027 11.0233 11.7646C11.0911 12.1457 11.3028 12.4769 11.6002 12.7002C10.7792 13.7931 9.47213 14.5 8 14.5C6.36122 14.5 4.92703 13.624 4.14017 12.3147L2.02989 13.5331C1.79075 13.6711 1.48495 13.5892 1.34688 13.3501C1.20881 13.1109 1.29075 12.8051 1.52989 12.667L3.72243 11.4012C3.57807 10.9602 3.5 10.4892 3.5 10V9.50006H1C0.723858 9.50006 0.5 9.2762 0.5 9.00006C0.5 8.72392 0.723858 8.50006 1 8.50006H3.5V7.5C3.5 7.11364 3.5626 6.74191 3.67822 6.39438L1.5423 5.2399C1.29938 5.1086 1.20889 4.80523 1.34019 4.5623C1.4715 4.31937 1.77487 4.22888 2.0178 4.36019L4.12714 5.5003C4.43389 5.06042 4.83909 4.6943 5.3108 4.43387C5.30416 4.35672 5.30078 4.27871 5.30078 4.2C5.30078 2.70883 6.50961 1.5 8.00078 1.5C9.49195 1.5 10.7008 2.70883 10.7008 4.2ZM7 4C6.76231 4 6.53015 4.02369 6.30577 4.06885C6.37272 3.19125 7.10603 2.5 8.00078 2.5C8.89564 2.5 9.62902 3.19142 9.69582 4.06917C9.47094 4.02381 9.23825 4 9 4H7Z" fill="#CED0D6"/>
<path d="M6.30577 4.06885C6.53015 4.02369 6.76231 4 7 4H9C9.23825 4 9.47094 4.02381 9.69582 4.06917C9.62902 3.19142 8.89564 2.5 8.00078 2.5C7.10603 2.5 6.37272 3.19125 6.30577 4.06885Z" fill="#43454A"/>
<path d="M4.5 7.5C4.5 6.11929 5.61929 5 7 5H9C10.3807 5 11.5 6.11929 11.5 7.5V10C11.5 10.1363 11.4922 10.2707 11.4771 10.4029C11.1835 10.6767 11 11.0669 11 11.5C11 11.5903 11.008 11.6787 11.0233 11.7646C10.416 12.8027 9.28946 13.5 8 13.5C6.067 13.5 4.5 11.933 4.5 10V7.5Z" fill="#43454A"/>
</svg>
