<!-- Copyright 2000-2022 JetBrains s.r.o. and contributors. Use of this source code is governed by the Apache 2.0 license. -->
<svg width="16" height="16" viewBox="0 0 16 16" fill="none" xmlns="http://www.w3.org/2000/svg">
<path d="M14.4551 5.23973C14.6979 5.10829 14.7882 4.80486 14.6568 4.56201C14.5253 4.31916 14.2219 4.22884 13.9791 4.36029L14.4551 5.23973ZM12.238 6.43972L14.4551 5.23973L13.9791 4.36029L11.762 5.56028L12.238 6.43972Z" fill="#6C707E"/>
<path d="M2.02989 13.5332C1.79075 13.6712 1.48495 13.5893 1.34688 13.3501C1.20881 13.111 1.29075 12.8052 1.52989 12.6671L2.02989 13.5332ZM4.25 12.2514L2.02989 13.5332L1.52989 12.6671L3.75 11.3853L4.25 12.2514Z" fill="#6C707E"/>
<path d="M1.09961 9.5C0.823467 9.5 0.599609 9.27614 0.599609 9C0.599609 8.72386 0.823467 8.5 1.09961 8.5L1.09961 9.5ZM3.59961 9.5L1.09961 9.5L1.09961 8.5L3.59961 8.5L3.59961 9.5Z" fill="#6C707E"/>
<path d="M1.54215 5.24C1.29922 5.10869 1.20874 4.80532 1.34004 4.56239C1.47134 4.31946 1.77472 4.22898 2.01765 4.36028L1.54215 5.24ZM3.76225 6.43998L1.54215 5.24L2.01765 4.36028L4.23775 5.56026L3.76225 6.43998Z" fill="#6C707E"/>
<path fill-rule="evenodd" clip-rule="evenodd" d="M6.29883 4.2C6.29883 3.26112 7.05994 2.5 7.99883 2.5C8.93771 2.5 9.69883 3.26112 9.69883 4.2C9.69883 4.48922 9.6266 4.76157 9.49921 5H10.498C10.5248 5 10.5514 5.00053 10.5779 5.00157C10.6565 4.74832 10.6988 4.4791 10.6988 4.2C10.6988 2.70883 9.49 1.5 7.99883 1.5C6.50766 1.5 5.29883 2.70883 5.29883 4.2C5.29883 4.47908 5.34117 4.74827 5.41978 5.0015C5.44575 5.0005 5.47184 5 5.49805 5H6.49845C6.37105 4.76157 6.29883 4.48922 6.29883 4.2Z" fill="#6C707E"/>
<path fill-rule="evenodd" clip-rule="evenodd" d="M7 4C5.067 4 3.5 5.567 3.5 7.5V10C3.5 12.1416 4.99601 13.9338 7 14.3885V13.3551C5.55426 12.9248 4.5 11.5855 4.5 10V7.5C4.5 6.11929 5.61929 5 7 5H9C10.2095 5 11.2184 5.85888 11.45 7H12.4646C12.2219 5.30385 10.7632 4 9 4H7Z" fill="#6C707E"/>
<path d="M8.64645 13.1464C8.45118 13.3417 8.45118 13.6583 8.64645 13.8536C8.84171 14.0488 9.15829 14.0488 9.35355 13.8536L8.64645 13.1464ZM9.35355 13.8536L13.8536 9.35355L13.1464 8.64645L8.64645 13.1464L9.35355 13.8536Z" fill="#3574F0"/>
<path d="M13.5 9H14C14 8.72386 13.7761 8.5 13.5 8.5V9ZM10.5 8.5C10.2239 8.5 10 8.72386 10 9C10 9.27614 10.2239 9.5 10.5 9.5V8.5ZM13 12C13 12.2761 13.2239 12.5 13.5 12.5C13.7761 12.5 14 12.2761 14 12H13ZM13.5 8.5H10.5V9.5H13.5V8.5ZM13 9V12H14V9H13Z" fill="#3574F0"/>
</svg>
