<!-- Copyright 2000-2022 JetBrains s.r.o. and contributors. Use of this source code is governed by the Apache 2.0 license. -->
<svg width="16" height="16" viewBox="0 0 16 16" fill="none" xmlns="http://www.w3.org/2000/svg">
<path d="M13.967 13.533C14.2061 13.6711 14.5119 13.5892 14.65 13.35C14.7881 13.1109 14.7061 12.8051 14.467 12.667L13.967 13.533ZM11.75 12.2531L13.967 13.533L14.467 12.667L12.25 11.3871L11.75 12.2531Z" fill="#5FB865"/>
<path d="M14.9003 9.5C15.1765 9.5 15.4003 9.27614 15.4003 9C15.4003 8.72386 15.1765 8.5 14.9003 8.5L14.9003 9.5ZM12.4003 9.5L14.9003 9.5L14.9003 8.5L12.4003 8.5L12.4003 9.5Z" fill="#5FB865"/>
<path d="M14.455 5.23973C14.6978 5.10829 14.7882 4.80486 14.6567 4.56201C14.5253 4.31916 14.2218 4.22884 13.979 4.36029L14.455 5.23973ZM12.2379 6.43972L14.455 5.23973L13.979 4.36029L11.7619 5.56028L12.2379 6.43972Z" fill="#5FB865"/>
<path d="M2.02989 13.5332C1.79075 13.6712 1.48495 13.5893 1.34688 13.3501C1.20881 13.111 1.29075 12.8052 1.52989 12.6671L2.02989 13.5332ZM4.25 12.2514L2.02989 13.5332L1.52989 12.6671L3.75 11.3853L4.25 12.2514Z" fill="#5FB865"/>
<path d="M1.09961 9.5C0.823467 9.5 0.599609 9.27614 0.599609 9C0.599609 8.72386 0.823467 8.5 1.09961 8.5L1.09961 9.5ZM3.59961 9.5L1.09961 9.5L1.09961 8.5L3.59961 8.5L3.59961 9.5Z" fill="#5FB865"/>
<path d="M1.54215 5.23988C1.29922 5.10857 1.20874 4.8052 1.34004 4.56227C1.47134 4.31934 1.77472 4.22885 2.01765 4.36016L1.54215 5.23988ZM3.76225 6.43986L1.54215 5.23988L2.01765 4.36016L4.23775 5.56014L3.76225 6.43986Z" fill="#5FB865"/>
<circle cx="8.00078" cy="4.2" r="2.2" fill="#F2FCF3" stroke="#5FB865"/>
<path d="M4 7.5C4 5.84315 5.34315 4.5 7 4.5H9C10.6569 4.5 12 5.84315 12 7.5V10C12 12.2091 10.2091 14 8 14V14C5.79086 14 4 12.2091 4 10V7.5Z" fill="#F2FCF3" stroke="#5FB865"/>
</svg>
