<!-- Copyright 2000-2022 JetBrains s.r.o. and contributors. Use of this source code is governed by the Apache 2.0 license. -->
<svg width="20" height="20" viewBox="0 0 20 20" fill="none" xmlns="http://www.w3.org/2000/svg">
<path d="M18.5 11.75C18.9142 11.75 19.25 11.4142 19.25 11C19.25 10.5858 18.9142 10.25 18.5 10.25V11.75ZM14 11.75H18.5V10.25H14V11.75Z" fill="#767A8A"/>
<path d="M17.8552 6.98759C18.22 6.79144 18.3567 6.33667 18.1606 5.97185C17.9644 5.60703 17.5096 5.4703 17.1448 5.66646L17.8552 6.98759ZM14.7437 8.66057L17.8552 6.98759L17.1448 5.66646L14.0334 7.33943L14.7437 8.66057Z" fill="#767A8A"/>
<path d="M17.8552 15.0124C18.22 15.2086 18.3567 15.6633 18.1606 16.0281C17.9644 16.393 17.5096 16.5297 17.1448 16.3335L17.8552 15.0124ZM14.7437 13.3394L17.8552 15.0124L17.1448 16.3335L14.0334 14.6606L14.7437 13.3394Z" fill="#767A8A"/>
<path d="M2.14336 6.98759C1.77854 6.79144 1.64181 6.33667 1.83797 5.97185C2.03413 5.60703 2.48889 5.4703 2.85371 5.66646L2.14336 6.98759ZM5.25481 8.66057L2.14336 6.98759L2.85371 5.66646L5.96516 7.33943L5.25481 8.66057Z" fill="#767A8A"/>
<path d="M2.14336 15.0124C1.77854 15.2086 1.64181 15.6633 1.83797 16.0281C2.03413 16.393 2.48889 16.5297 2.85371 16.3335L2.14336 15.0124ZM5.25481 13.3394L2.14336 15.0124L2.85371 16.3335L5.96516 14.6606L5.25481 13.3394Z" fill="#767A8A"/>
<path d="M1.5 11.75C1.08579 11.75 0.75 11.4142 0.75 11C0.75 10.5858 1.08579 10.25 1.5 10.25V11.75ZM6 11.75H1.5V10.25H6V11.75Z" fill="#767A8A"/>
<path d="M8.5 5.75H11.5C13.2949 5.75 14.75 7.20507 14.75 9V12.5C14.75 15.1234 12.6234 17.25 10 17.25C7.37665 17.25 5.25 15.1234 5.25 12.5V9C5.25 7.20507 6.70507 5.75 8.5 5.75Z" stroke="#767A8A" stroke-width="1.5"/>
<path d="M8.00023 5.03092C8.00008 5.02063 8 5.01032 8 5C8 3.89543 8.89543 3 10 3C11.1046 3 12 3.89543 12 5C12 5.01032 11.9999 5.02063 11.9998 5.03092C12.5259 5.0965 13.0204 5.26427 13.4626 5.51374C13.4872 5.34607 13.5 5.17453 13.5 5C13.5 3.067 11.933 1.5 10 1.5C8.067 1.5 6.5 3.067 6.5 5C6.5 5.17453 6.51277 5.34607 6.53744 5.51374C6.97965 5.26427 7.47407 5.0965 8.00023 5.03092Z" fill="#767A8A"/>
</svg>
