<!-- Copyright 2000-2022 JetBrains s.r.o. and contributors. Use of this source code is governed by the Apache 2.0 license. -->
<svg width="16" height="16" viewBox="0 0 16 16" fill="none" xmlns="http://www.w3.org/2000/svg">
<path d="M13.967 13.5331C14.2061 13.6712 14.5119 13.5892 14.65 13.3501C14.7881 13.1109 14.7061 12.8051 14.467 12.6671L13.967 13.5331ZM11.75 12.2531L13.967 13.5331L14.467 12.6671L12.25 11.3871L11.75 12.2531Z" fill="#767A8A"/>
<path d="M14.9001 9.5C15.1763 9.5 15.4001 9.27614 15.4001 9C15.4001 8.72386 15.1763 8.5 14.9001 8.5L14.9001 9.5ZM12.4001 9.5L14.9001 9.5L14.9001 8.5L12.4001 8.5L12.4001 9.5Z" fill="#767A8A"/>
<path d="M14.4551 5.23976C14.6979 5.10832 14.7882 4.80489 14.6568 4.56204C14.5253 4.31919 14.2219 4.22887 13.9791 4.36032L14.4551 5.23976ZM12.238 6.43975L14.4551 5.23976L13.9791 4.36032L11.762 5.56031L12.238 6.43975Z" fill="#767A8A"/>
<path d="M2.02989 13.5331C1.79075 13.6711 1.48495 13.5892 1.34688 13.3501C1.20881 13.1109 1.29075 12.8051 1.52989 12.667L2.02989 13.5331ZM4.25 12.2513L2.02989 13.5331L1.52989 12.667L3.75 11.3853L4.25 12.2513Z" fill="#767A8A"/>
<path d="M1.1001 9.5C0.823955 9.5 0.600097 9.27614 0.600097 9C0.600097 8.72386 0.823955 8.5 1.1001 8.5L1.1001 9.5ZM3.6001 9.5L1.1001 9.5L1.1001 8.5L3.6001 8.5L3.6001 9.5Z" fill="#767A8A"/>
<path d="M1.54215 5.23991C1.29922 5.1086 1.20874 4.80523 1.34004 4.5623C1.47134 4.31937 1.77472 4.22888 2.01765 4.36019L1.54215 5.23991ZM3.76225 6.43989L1.54215 5.23991L2.01765 4.36019L4.23775 5.56017L3.76225 6.43989Z" fill="#767A8A"/>
<path fill-rule="evenodd" clip-rule="evenodd" d="M6.30005 4.2C6.30005 3.26112 7.06116 2.5 8.00005 2.5C8.93893 2.5 9.70005 3.26112 9.70005 4.2C9.70005 4.48922 9.62782 4.76157 9.50043 5H10.5C10.5265 5 10.5529 5.00052 10.5791 5.00154C10.6577 4.7483 10.7 4.47909 10.7 4.2C10.7 2.70883 9.49122 1.5 8.00005 1.5C6.50888 1.5 5.30005 2.70883 5.30005 4.2C5.30005 4.47909 5.34239 4.7483 5.42101 5.00153C5.44723 5.00051 5.47358 5 5.50005 5H6.49967C6.37227 4.76157 6.30005 4.48922 6.30005 4.2Z" fill="#767A8A"/>
<path d="M4 7.5C4 5.84315 5.34315 4.5 7 4.5H9C10.6569 4.5 12 5.84315 12 7.5V10C12 12.2091 10.2091 14 8 14V14C5.79086 14 4 12.2091 4 10V7.5Z" stroke="#767A8A"/>
</svg>
