<!-- Copyright 2000-2023 JetBrains s.r.o. and contributors. Use of this source code is governed by the Apache 2.0 license. -->
<svg width="16" height="16" viewBox="0 0 16 16" fill="none" xmlns="http://www.w3.org/2000/svg">
<path fill-rule="evenodd" clip-rule="evenodd" d="M10.6907 4.4347C10.6974 4.35728 10.7008 4.27899 10.7008 4.2C10.7008 2.70883 9.49195 1.5 8.00078 1.5C6.50961 1.5 5.30078 2.70883 5.30078 4.2C5.30078 4.27871 5.30416 4.35672 5.3108 4.43387C4.83909 4.6943 4.43389 5.06042 4.12714 5.5003L2.0178 4.36019C1.77487 4.22888 1.4715 4.31937 1.34019 4.5623C1.20889 4.80523 1.29938 5.1086 1.5423 5.2399L3.67822 6.39438C3.5626 6.74191 3.5 7.11364 3.5 7.5V8.50006H1C0.723858 8.50006 0.5 8.72392 0.5 9.00006C0.5 9.2762 0.723858 9.50006 1 9.50006H3.5V10C3.5 10.4892 3.57807 10.9602 3.72243 11.4012L1.52989 12.667C1.29075 12.8051 1.20881 13.1109 1.34688 13.3501C1.48495 13.5892 1.79075 13.6711 2.02989 13.5331L4.14017 12.3147C4.92703 13.624 6.36122 14.5 8 14.5C9.63821 14.5 11.072 13.6246 11.859 12.3161L13.967 13.5331C14.2061 13.6712 14.5119 13.5893 14.65 13.3501C14.7881 13.111 14.7061 12.8052 14.467 12.6671L12.2771 11.4028C12.4217 10.9613 12.5 10.4898 12.5 10V9.49982H15C15.2761 9.49982 15.5 9.27596 15.5 8.99982C15.5 8.72367 15.2761 8.49982 15 8.49982H12.5V7.5C12.5 7.11367 12.4374 6.74197 12.3218 6.39447L14.4551 5.23979C14.698 5.10835 14.7883 4.80492 14.6569 4.56207C14.5254 4.31922 14.222 4.2289 13.9791 4.36035L11.8729 5.50036C11.5665 5.06092 11.1618 4.69509 10.6907 4.4347ZM6.30577 4.06885C6.53015 4.02369 6.76231 4 7 4H9C9.23825 4 9.47094 4.02381 9.69582 4.06917C9.62902 3.19142 8.89564 2.5 8.00078 2.5C7.10603 2.5 6.37272 3.19125 6.30577 4.06885ZM4.5 7.5C4.5 6.11929 5.61929 5 7 5H9C10.3807 5 11.5 6.11929 11.5 7.5V10C11.5 11.933 9.933 13.5 8 13.5C6.067 13.5 4.5 11.933 4.5 10V7.5Z" fill="#57965C"/>
<path d="M7 4C6.76231 4 6.53015 4.02369 6.30577 4.06885C6.37272 3.19125 7.10603 2.5 8.00078 2.5C8.89564 2.5 9.62902 3.19142 9.69582 4.06917C9.47094 4.02381 9.23825 4 9 4H7Z" fill="#253627"/>
<path d="M7 5C5.61929 5 4.5 6.11929 4.5 7.5V10C4.5 11.933 6.067 13.5 8 13.5C9.933 13.5 11.5 11.933 11.5 10V7.5C11.5 6.11929 10.3807 5 9 5H7Z" fill="#253627"/>
</svg>
