<!-- Copyright 2000-2022 JetBrains s.r.o. and contributors. Use of this source code is governed by the Apache 2.0 license. -->
<svg width="16" height="17" viewBox="0 0 16 17" fill="none" xmlns="http://www.w3.org/2000/svg">
<mask id="path-1-inside-1_2414_33775" fill="white">
<path fill-rule="evenodd" clip-rule="evenodd" d="M5.67703 2.08337H10.323C10.7319 2.08337 11.0996 2.33232 11.2514 2.71198L11.8 4.08337H13C14.1046 4.08337 15 4.9788 15 6.08337V12.0834C15 13.1879 14.1046 14.0834 13 14.0834H3C1.89543 14.0834 1 13.1879 1 12.0834V6.08337C1 4.9788 1.89543 4.08337 3 4.08337H4.2L4.74856 2.71198C4.90042 2.33233 5.26813 2.08337 5.67703 2.08337Z"/>
</mask>
<path d="M11.2514 2.71198L10.323 3.08337L10.323 3.08337L11.2514 2.71198ZM11.8 4.08337L10.8715 4.45476L11.123 5.08337H11.8V4.08337ZM4.2 4.08337V5.08337H4.87703L5.12848 4.45476L4.2 4.08337ZM4.74856 2.71198L5.67703 3.08337L5.67703 3.08337L4.74856 2.71198ZM10.323 1.08337H5.67703V3.08337H10.323V1.08337ZM12.1799 2.34059C11.8762 1.58128 11.1408 1.08337 10.323 1.08337V3.08337L10.323 3.08337L12.1799 2.34059ZM12.7285 3.71198L12.1799 2.34059L10.323 3.08337L10.8715 4.45476L12.7285 3.71198ZM11.8 5.08337H13V3.08337H11.8V5.08337ZM13 5.08337C13.5523 5.08337 14 5.53109 14 6.08337H16C16 4.42652 14.6569 3.08337 13 3.08337V5.08337ZM14 6.08337V12.0834H16V6.08337H14ZM14 12.0834C14 12.6357 13.5523 13.0834 13 13.0834V15.0834C14.6569 15.0834 16 13.7402 16 12.0834H14ZM13 13.0834H3V15.0834H13V13.0834ZM3 13.0834C2.44772 13.0834 2 12.6357 2 12.0834H0C0 13.7402 1.34315 15.0834 3 15.0834V13.0834ZM2 12.0834V6.08337H0V12.0834H2ZM2 6.08337C2 5.53109 2.44772 5.08337 3 5.08337V3.08337C1.34315 3.08337 0 4.42652 0 6.08337H2ZM3 5.08337H4.2V3.08337H3V5.08337ZM3.82008 2.34059L3.27152 3.71198L5.12848 4.45476L5.67703 3.08337L3.82008 2.34059ZM5.67703 1.08337C4.85922 1.08337 4.12381 1.58128 3.82008 2.34059L5.67703 3.08337L5.67703 3.08337V1.08337Z" fill="#CED0D6" mask="url(#path-1-inside-1_2414_33775)"/>
<circle cx="8" cy="8.83337" r="2.5" stroke="#CED0D6"/>
<rect x="12" y="6.08337" width="1" height="1" fill="#CED0D6"/>
</svg>
