<!-- Copyright 2000-2023 JetBrains s.r.o. and contributors. Use of this source code is governed by the Apache 2.0 license. -->
<svg width="16" height="16" viewBox="0 0 16 16" fill="none" xmlns="http://www.w3.org/2000/svg">
<rect x="2" y="14" width="12" height="1" rx="0.5" fill="#CED0D6"/>
<path fill-rule="evenodd" clip-rule="evenodd" d="M12.3536 6.94643C12.5488 7.1417 12.5488 7.45828 12.3536 7.65354L8.35355 11.6535L8 12.0071L7.64645 11.6535L3.64645 7.65354C3.45118 7.45828 3.45118 7.1417 3.64645 6.94643C3.84171 6.75117 4.15829 6.75117 4.35355 6.94643L5.99997 8.59285L5.99997 2C5.99997 1.72386 6.22383 1.5 6.49997 1.5C6.77611 1.5 6.99997 1.72386 6.99997 2L6.99997 9.49957C6.99997 9.52887 6.99745 9.55758 6.99261 9.5855L8 10.5929L8.99997 9.59291L8.99997 2C8.99997 1.72386 9.22383 1.5 9.49997 1.5C9.77611 1.5 9.99997 1.72386 9.99997 2L9.99997 8.59291L11.6464 6.94643C11.8417 6.75117 12.1583 6.75117 12.3536 6.94643Z" fill="#DB5C5C"/>
</svg>
