<!-- Copyright 2000-2023 JetBrains s.r.o. and contributors. Use of this source code is governed by the Apache 2.0 license. -->
<svg width="16" height="16" viewBox="0 0 16 16" fill="none" xmlns="http://www.w3.org/2000/svg">
<rect x="2" y="13" width="12" height="1" rx="0.5" fill="#CED0D6"/>
<path fill-rule="evenodd" clip-rule="evenodd" d="M13.4804 4.72823C13.7565 4.72711 13.9813 4.95005 13.9824 5.22619L13.9996 9.4688L14.0017 9.9688L13.5017 9.97083L9.25906 9.98806C8.98292 9.98919 8.75816 9.76624 8.75704 9.4901C8.75591 9.21396 8.97886 8.98919 9.255 8.98807L10.3648 8.98356L7.62305 6.67196L4.84766 9.35781C4.64922 9.54984 4.33268 9.54465 4.14064 9.34622C3.94861 9.14778 3.9538 8.83124 4.15224 8.63921L7.25226 5.63921L7.57688 5.32506L7.92226 5.61624L11.8601 8.93626C11.8755 8.94924 11.8899 8.96296 11.9034 8.97731L12.9976 8.97287L12.9928 7.7784L7.51622 2.78955L2.8537 7.45209C2.65843 7.64735 2.34185 7.64735 2.14659 7.45209C1.95133 7.25683 1.95133 6.94024 2.14659 6.74498L7.14657 1.74499L7.48403 1.40752L7.83684 1.72891L12.9872 6.42066L12.9824 5.23026C12.9813 4.95412 13.2042 4.72935 13.4804 4.72823Z" fill="#DB5C5C"/>
</svg>
