<!-- Copyright 2000-2023 JetBrains s.r.o. and contributors. Use of this source code is governed by the Apache 2.0 license. -->
<svg width="16" height="16" viewBox="0 0 16 16" fill="none" xmlns="http://www.w3.org/2000/svg">
<rect x="2" y="14" width="12" height="1" rx="0.5" fill="#6C707E"/>
<path fill-rule="evenodd" clip-rule="evenodd" d="M12.3536 6.94643C12.5488 7.1417 12.5488 7.45828 12.3536 7.65354L8.35358 11.6535L8.00003 12.0071L7.64648 11.6535L3.64648 7.65354C3.45121 7.45828 3.45121 7.1417 3.64648 6.94643C3.84174 6.75117 4.15832 6.75117 4.35358 6.94643L6 8.59285L6 2C6 1.72386 6.22386 1.5 6.5 1.5C6.77614 1.5 7 1.72386 7 2L7 9.49957C7 9.52887 6.99748 9.55758 6.99264 9.5855L8.00003 10.5929L9 9.59291L9 2C9 1.72386 9.22386 1.5 9.5 1.5C9.77614 1.5 10 1.72386 10 2L10 8.59291L11.6465 6.94643C11.8417 6.75117 12.1583 6.75117 12.3536 6.94643Z" fill="#DB3B4B"/>
</svg>
