<!-- Copyright 2000-2022 JetBrains s.r.o. and contributors. Use of this source code is governed by the Apache 2.0 license. -->
<svg width="16" height="16" viewBox="0 0 16 16" fill="none" xmlns="http://www.w3.org/2000/svg">
<rect x="2" y="13" width="12" height="1" rx="0.5" fill="#6C707E"/>
<path fill-rule="evenodd" clip-rule="evenodd" d="M13.9823 5.2262C13.9812 4.95006 13.7565 4.72711 13.4803 4.72824C13.2042 4.72936 12.9812 4.95412 12.9823 5.23026L12.9949 8.30796L7.83585 3.6296L7.48312 3.30973L7.14642 3.64644L2.14644 8.64643C1.95117 8.8417 1.95117 9.15828 2.14644 9.35354C2.3417 9.5488 2.65828 9.5488 2.85354 9.35354L7.51683 4.69024L12.2428 8.97594L9.25494 8.98808C8.9788 8.9892 8.75586 9.21397 8.75698 9.49011C8.7581 9.76625 8.98287 9.98919 9.25901 9.98807L13.5016 9.97083L14.0016 9.9688L13.9996 9.46881L13.9823 5.2262Z" fill="#E35252"/>
</svg>
