<!-- Copyright 2000-2022 JetBrains s.r.o. and contributors. Use of this source code is governed by the Apache 2.0 license. -->
<svg width="16" height="16" viewBox="0 0 16 16" fill="none" xmlns="http://www.w3.org/2000/svg">
<rect x="2" y="13" width="12" height="1" rx="0.5" fill="#CED0D6"/>
<path fill-rule="evenodd" clip-rule="evenodd" d="M13.4803 4.72826C13.7564 4.72714 13.9812 4.95008 13.9823 5.22622L13.9996 9.46883L14.0016 9.96883L13.5016 9.97086L9.259 9.98809C8.98286 9.98922 8.7581 9.76627 8.75697 9.49013C8.75585 9.21399 8.9788 8.98922 9.25494 8.9881L10.3648 8.98359L7.62299 6.672L4.84759 9.35784C4.64916 9.54988 4.33262 9.54468 4.14058 9.34625C3.94855 9.14781 3.95374 8.83127 4.15218 8.63924L7.2522 5.63924L7.57682 5.32509L7.9222 5.61627L11.8601 8.93629C11.8755 8.94927 11.8899 8.96299 11.9033 8.97734L12.9975 8.9729L12.9927 7.77843L7.51616 2.78958L2.85363 7.45212C2.65837 7.64738 2.34179 7.64738 2.14653 7.45212C1.95127 7.25686 1.95127 6.94028 2.14653 6.74501L7.14651 1.74502L7.48397 1.40755L7.83678 1.72894L12.9872 6.42069L12.9823 5.23029C12.9812 4.95415 13.2042 4.72938 13.4803 4.72826Z" fill="#DB5C5C"/>
</svg>
