<!-- Copyright 2000-2023 JetBrains s.r.o. and contributors. Use of this source code is governed by the Apache 2.0 license. -->
<svg width="16" height="16" viewBox="0 0 16 16" fill="none" xmlns="http://www.w3.org/2000/svg">
<path d="M11.087 1.5L14.5 4.91299L14.5 11.087L11.087 14.5L4.91299 14.5L1.5 11.087L1.5 4.91299L4.91299 1.5L11.087 1.5Z" stroke="#DB5C5C"/>
<path fill-rule="evenodd" clip-rule="evenodd" d="M5.17169 5.17157C4.97643 5.36684 4.97643 5.68342 5.17169 5.87868L7.29301 8L5.17169 10.1213C4.97643 10.3166 4.97643 10.6332 5.17169 10.8284C5.36695 11.0237 5.68353 11.0237 5.8788 10.8284L8.00012 8.70711L10.1214 10.8284C10.3167 11.0237 10.6333 11.0237 10.8285 10.8284C11.0238 10.6332 11.0238 10.3166 10.8285 10.1213L8.70722 8L10.8285 5.87868C11.0238 5.68342 11.0238 5.36683 10.8285 5.17157C10.6333 4.97631 10.3167 4.97631 10.1214 5.17157L8.00012 7.29289L5.8788 5.17157C5.68353 4.97631 5.36695 4.97631 5.17169 5.17157Z" fill="#DB5C5C"/>
</svg>
