<!-- Copyright 2000-2022 JetBrains s.r.o. and contributors. Use of this source code is governed by the Apache 2.0 license. -->
<svg width="16" height="16" viewBox="0 0 16 16" fill="none" xmlns="http://www.w3.org/2000/svg">
<path d="M14.5 5.53431L14.5 10.4657C14.5 10.8635 14.342 11.245 14.0607 11.5263L11.5264 14.0607C11.245 14.342 10.8635 14.5 10.4657 14.5L5.53431 14.5C5.13648 14.5 4.75495 14.342 4.47365 14.0607L1.93934 11.5264C1.65804 11.245 1.5 10.8635 1.5 10.4657L1.5 5.53431C1.5 5.13648 1.65804 4.75495 1.93934 4.47365L4.47365 1.93934C4.75495 1.65803 5.13649 1.5 5.53431 1.5L10.4657 1.5C10.8635 1.5 11.245 1.65804 11.5264 1.93934L14.0607 4.47365C14.342 4.75495 14.5 5.13649 14.5 5.53431Z" stroke="#DB5C5C"/>
<path fill-rule="evenodd" clip-rule="evenodd" d="M5.17157 5.17157C4.9763 5.36684 4.9763 5.68342 5.17157 5.87868L7.29289 8L5.17157 10.1213C4.9763 10.3166 4.9763 10.6332 5.17157 10.8284C5.36683 11.0237 5.68341 11.0237 5.87867 10.8284L7.99999 8.70711L10.1213 10.8284C10.3166 11.0237 10.6332 11.0237 10.8284 10.8284C11.0237 10.6332 11.0237 10.3166 10.8284 10.1213L8.7071 8L10.8284 5.87868C11.0237 5.68342 11.0237 5.36683 10.8284 5.17157C10.6332 4.97631 10.3166 4.97631 10.1213 5.17157L7.99999 7.29289L5.87867 5.17157C5.68341 4.97631 5.36683 4.97631 5.17157 5.17157Z" fill="#DB5C5C"/>
</svg>
