<!-- Copyright 2000-2022 JetBrains s.r.o. and contributors. Use of this source code is governed by the Apache 2.0 license. -->
<svg width="16" height="16" viewBox="0 0 16 16" fill="none" xmlns="http://www.w3.org/2000/svg">
<path d="M11.087 1.5L14.5 4.91299L14.5 11.087L11.087 14.5L4.91299 14.5L1.5 11.087L1.5 4.91299L4.91299 1.5L11.087 1.5Z" stroke="#DB5C5C"/>
<path fill-rule="evenodd" clip-rule="evenodd" d="M5.17157 5.17157C4.9763 5.36684 4.9763 5.68342 5.17157 5.87868L7.29289 8L5.17157 10.1213C4.9763 10.3166 4.9763 10.6332 5.17157 10.8284C5.36683 11.0237 5.68341 11.0237 5.87867 10.8284L7.99999 8.70711L10.1213 10.8284C10.3166 11.0237 10.6332 11.0237 10.8284 10.8284C11.0237 10.6332 11.0237 10.3166 10.8284 10.1213L8.7071 8L10.8284 5.87868C11.0237 5.68342 11.0237 5.36683 10.8284 5.17157C10.6332 4.97631 10.3166 4.97631 10.1213 5.17157L7.99999 7.29289L5.87867 5.17157C5.68341 4.97631 5.36683 4.97631 5.17157 5.17157Z" fill="#DB5C5C"/>
</svg>
