<!-- Copyright 2000-2023 JetBrains s.r.o. and contributors. Use of this source code is governed by the Apache 2.0 license. -->
<svg width="16" height="16" viewBox="0 0 16 16" fill="none" xmlns="http://www.w3.org/2000/svg">
<path fill-rule="evenodd" clip-rule="evenodd" d="M10.403 3.0514C9.67693 2.69817 8.86152 2.50001 7.99984 2.50001C4.96228 2.50001 2.49984 4.96245 2.49984 8.00001C2.49984 8.8617 2.698 9.6771 3.05123 10.4031L10.403 3.0514ZM5.59684 12.9487C6.32285 13.3019 7.13821 13.5 7.99984 13.5C11.0374 13.5 13.4998 11.0376 13.4998 8.00001C13.4998 7.13838 13.3017 6.32302 12.9485 5.59702L5.59684 12.9487Z" fill="#FFF7F7"/>
<path fill-rule="evenodd" clip-rule="evenodd" d="M10.403 3.0514C9.67693 2.69817 8.86152 2.50001 7.99984 2.50001C4.96228 2.50001 2.49984 4.96245 2.49984 8.00001C2.49984 8.8617 2.698 9.6771 3.05123 10.4031L3.80981 9.64455C3.60972 9.13515 3.49984 8.58041 3.49984 8.00001C3.49984 5.51473 5.51456 3.50001 7.99984 3.50001C8.58024 3.50001 9.13497 3.60989 9.64438 3.80998L10.403 3.0514ZM6.35544 12.1901C6.8648 12.3902 7.41949 12.5 7.99984 12.5C10.4851 12.5 12.4998 10.4853 12.4998 8.00001C12.4998 7.41967 12.39 6.86498 12.1899 6.35561L12.9485 5.59702C13.3017 6.32302 13.4998 7.13838 13.4998 8.00001C13.4998 11.0376 11.0374 13.5 7.99984 13.5C7.13821 13.5 6.32285 13.3019 5.59684 12.9487L6.35544 12.1901Z" fill="#DB3B4B"/>
<rect x="13.6567" y="1.63605" width="1" height="17" rx="0.5" transform="rotate(45 13.6567 1.63605)" fill="#6C707E"/>
</svg>
