<!-- Copyright 2000-2022 JetBrains s.r.o. and contributors. Use of this source code is governed by the Apache 2.0 license. -->
<svg width="16" height="16" viewBox="0 0 16 16" fill="none" xmlns="http://www.w3.org/2000/svg">
<path fill-rule="evenodd" clip-rule="evenodd" d="M10.4031 3.0514C9.67702 2.69817 8.86162 2.50001 7.99993 2.50001C4.96237 2.50001 2.49993 4.96245 2.49993 8.00001C2.49993 8.8617 2.69809 9.6771 3.05132 10.4031L10.4031 3.0514ZM5.59694 12.9487C6.32294 13.3019 7.1383 13.5 7.99993 13.5C11.0375 13.5 13.4999 11.0376 13.4999 8.00001C13.4999 7.13838 13.3018 6.32302 12.9486 5.59702L5.59694 12.9487Z" fill="#FFF5F5"/>
<path fill-rule="evenodd" clip-rule="evenodd" d="M10.4031 3.05116C9.67702 2.69793 8.86162 2.49977 7.99993 2.49977C4.96237 2.49977 2.49993 4.9622 2.49993 7.99977C2.49993 8.86145 2.69809 9.67685 3.05132 10.4029L3.8099 9.64431C3.60981 9.1349 3.49993 8.58017 3.49993 7.99977C3.49993 5.51449 5.51465 3.49977 7.99993 3.49977C8.58033 3.49977 9.13507 3.60965 9.64447 3.80974L10.4031 3.05116ZM6.35553 12.1899C6.8649 12.3899 7.41958 12.4998 7.99993 12.4998C10.4852 12.4998 12.4999 10.4851 12.4999 7.99977C12.4999 7.41942 12.3901 6.86473 12.19 6.35536L12.9486 5.59677C13.3018 6.32278 13.4999 7.13813 13.4999 7.99977C13.4999 11.0373 11.0375 13.4998 7.99993 13.4998C7.1383 13.4998 6.32294 13.3016 5.59694 12.9484L6.35553 12.1899Z" fill="#E35252"/>
<rect x="13.6569" y="1.63599" width="1" height="17" rx="0.5" transform="rotate(45 13.6569 1.63599)" fill="#6C707E"/>
</svg>
