<!-- Copyright 2000-2022 JetBrains s.r.o. and contributors. Use of this source code is governed by the Apache 2.0 license. -->
<svg width="16" height="16" viewBox="0 0 16 16" fill="none" xmlns="http://www.w3.org/2000/svg">
<path fill-rule="evenodd" clip-rule="evenodd" d="M1.5 9C1.5 5.41015 4.41015 2.5 8 2.5C11.5899 2.5 14.5 5.41015 14.5 9C14.5 9.1369 14.4936 9.28101 14.4815 9.4302L15.4269 9.97288C15.474 9.63381 15.5 9.30452 15.5 9C15.5 4.85786 12.1421 1.5 8 1.5C3.85786 1.5 0.5 4.85786 0.5 9C0.5 10.1604 0.877241 11.6805 1.36637 12.7304C1.44463 12.8984 1.61594 13 1.80126 13H8V12H2.13917C1.76974 11.0874 1.5 9.89088 1.5 9Z" fill="#CED0D6"/>
<path fill-rule="evenodd" clip-rule="evenodd" d="M8 9.6C7.99998 9.6 7.99997 9.6 7.99995 9.6C7.55812 9.6 7.19995 9.24183 7.19995 8.8C7.19995 8.35817 7.55812 8 7.99995 8C8.14402 8 8.27919 8.03808 8.39596 8.10473C8.60173 7.82204 8.87515 7.59649 9.18572 7.44573C8.86902 7.16821 8.45413 7 7.99995 7C7.00584 7 6.19995 7.80589 6.19995 8.8C6.19995 9.79411 7.00584 10.6 7.99995 10.6C7.99997 10.6 7.99998 10.6 8 10.6V10V9.6Z" fill="#CED0D6"/>
<path d="M8.6 4C8.6 3.66863 8.33137 3.4 8 3.4C7.66863 3.4 7.4 3.66863 7.4 4H8.6ZM7.4 4V7.5H8.6V4H7.4Z" fill="#CED0D6"/>
<path d="M15.1095 11.5202C15.5077 11.7488 15.5121 12.3216 15.1175 12.5563L10.4067 15.3581C10.0068 15.596 9.5 15.3078 9.5 14.8424L9.5 9.33631C9.5 8.87509 9.99871 8.58634 10.3987 8.81596L15.1095 11.5202Z" fill="#253627" stroke="#57965C" stroke-linecap="round"/>
</svg>
