<!-- Copyright 2000-2022 JetBrains s.r.o. and contributors. Use of this source code is governed by the Apache 2.0 license. -->
<svg width="16" height="17" viewBox="0 0 16 17" fill="none" xmlns="http://www.w3.org/2000/svg">
<path fill-rule="evenodd" clip-rule="evenodd" d="M1.5 8.08337C1.5 4.49352 4.41015 1.58337 8 1.58337C11.5899 1.58337 14.5 4.49352 14.5 8.08337C14.5 8.22027 14.4936 8.36438 14.4815 8.51357L15.4269 9.05625C15.474 8.71719 15.5 8.38789 15.5 8.08337C15.5 3.94124 12.1421 0.583374 8 0.583374C3.85786 0.583374 0.5 3.94124 0.5 8.08337C0.5 9.24376 0.877241 10.7639 1.36637 11.8138C1.44463 11.9817 1.61594 12.0834 1.80126 12.0834H8V11.0834H2.13917C1.76974 10.1707 1.5 8.97426 1.5 8.08337Z" fill="#6C707E"/>
<path fill-rule="evenodd" clip-rule="evenodd" d="M8 8.68337C7.99998 8.68337 7.99997 8.68337 7.99995 8.68337C7.55812 8.68337 7.19995 8.3252 7.19995 7.88337C7.19995 7.44155 7.55812 7.08337 7.99995 7.08337C8.14402 7.08337 8.27919 7.12146 8.39596 7.1881C8.60173 6.90541 8.87515 6.67986 9.18572 6.52911C8.86902 6.25159 8.45413 6.08337 7.99995 6.08337C7.00584 6.08337 6.19995 6.88926 6.19995 7.88337C6.19995 8.87749 7.00584 9.68337 7.99995 9.68337C7.99997 9.68337 7.99998 9.68337 8 9.68337V9.08337V8.68337Z" fill="#6C707E"/>
<path d="M8.6 3.08337C8.6 2.752 8.33137 2.48337 8 2.48337C7.66863 2.48337 7.4 2.752 7.4 3.08337H8.6ZM7.4 3.08337V6.58337H8.6V3.08337H7.4Z" fill="#6C707E"/>
<path d="M15.1095 10.6037C15.5077 10.8322 15.5121 11.405 15.1175 11.6397L10.4067 14.4416C10.0068 14.6794 9.5 14.3912 9.5 13.9259L9.5 8.41975C9.5 7.95853 9.99871 7.66977 10.3987 7.89939L15.1095 10.6037Z" fill="#DFF2E0" stroke="#5FB865" stroke-linecap="round"/>
</svg>
