<!-- Copyright 2000-2023 JetBrains s.r.o. and contributors. Use of this source code is governed by the Apache 2.0 license. -->
<svg width="17" height="16" viewBox="0 0 17 16" fill="none" xmlns="http://www.w3.org/2000/svg">
<path fill-rule="evenodd" clip-rule="evenodd" d="M9 9.50215C9 8.32441 10.2951 7.60608 11.2942 8.22967L15.2962 10.7275C16.2372 11.3149 16.2372 12.6851 15.2962 13.2725L11.2942 15.7703C10.2951 16.3939 9 15.6756 9 14.4978V9.50215ZM10.7647 9.07799C10.4317 8.87013 10 9.10957 10 9.50215V14.4978C10 14.8904 10.4317 15.1298 10.7647 14.922L14.7667 12.4241C15.0804 12.2284 15.0804 11.7716 14.7667 11.5758L10.7647 9.07799Z" fill="#208A3C"/>
<path d="M10 9.50217C10 9.10959 10.4317 8.87015 10.7647 9.07801L14.7667 11.5758C15.0804 11.7716 15.0804 12.2284 14.7667 12.4242L10.7647 14.922C10.4317 15.1299 10 14.8904 10 14.4978V9.50217Z" fill="#F2FCF3"/>
<path d="M1.5 9C1.5 5.41015 4.41015 2.5 8 2.5C11.5899 2.5 14.5 5.41015 14.5 9C14.5 9.01716 14.4999 9.03444 14.4997 9.05183L15.4651 9.65439C15.4879 9.42788 15.5 9.20815 15.5 9C15.5 4.85786 12.1421 1.5 8 1.5C3.85786 1.5 0.5 4.85786 0.5 9C0.5 10.1604 0.877241 11.6805 1.36637 12.7304C1.44463 12.8984 1.61594 13 1.80126 13H8V12H2.13917C1.76974 11.0874 1.5 9.89088 1.5 9Z" fill="#6C707E"/>
<path d="M8 10.6V9.6C7.55826 9.59989 7.2002 9.24176 7.2002 8.8C7.2002 8.35817 7.55837 8 8.0002 8C8.15213 8 8.29417 8.04235 8.41515 8.11589C8.60651 7.82993 8.85445 7.58935 9.13847 7.40554C8.97934 7.27549 8.79754 7.17214 8.5999 7.10232V3.99999C8.5999 3.66862 8.33127 3.39999 7.9999 3.39999C7.66853 3.39999 7.3999 3.66862 7.3999 3.99999V7.10253C6.70094 7.34971 6.2002 8.01638 6.2002 8.8C6.2002 9.79405 7.00598 10.5999 8 10.6Z" fill="#6C707E"/>
</svg>
