<!-- Copyright 2000-2023 JetBrains s.r.o. and contributors. Use of this source code is governed by the Apache 2.0 license. -->
<svg width="17" height="16" viewBox="0 0 17 16" fill="none" xmlns="http://www.w3.org/2000/svg">
<path fill-rule="evenodd" clip-rule="evenodd" d="M9 9.50215C9 8.32441 10.2951 7.60608 11.2942 8.22967L15.2962 10.7275C16.2372 11.3149 16.2372 12.6851 15.2962 13.2725L11.2942 15.7703C10.2951 16.3939 9 15.6756 9 14.4978V9.50215ZM10.7647 9.07799C10.4317 8.87013 10 9.10957 10 9.50215V14.4978C10 14.8904 10.4317 15.1298 10.7647 14.922L14.7667 12.4241C15.0804 12.2284 15.0804 11.7716 14.7667 11.5758L10.7647 9.07799Z" fill="#208A3C"/>
<path d="M10 9.50217C10 9.10959 10.4317 8.87015 10.7647 9.07801L14.7667 11.5758C15.0804 11.7716 15.0804 12.2284 14.7667 12.4242L10.7647 14.922C10.4317 15.1299 10 14.8904 10 14.4978V9.50217Z" fill="#F2FCF3"/>
<path d="M14 1.5C14 1.22386 13.7761 1 13.5 1C13.2239 1 13 1.22386 13 1.5V4.68235C11.9256 3.06631 10.0877 2 8 2C4.68629 2 2 4.68629 2 8C2 11.3137 4.68629 14 8 14V13C5.23858 13 3 10.7614 3 8C3 5.23858 5.23858 3 8 3C9.63527 3 11.0878 3.78495 12.0005 5H9.5C9.22386 5 9 5.22386 9 5.5C9 5.77614 9.22386 6 9.5 6H14V1.5Z" fill="#6C707E"/>
</svg>
