<!-- Copyright 2000-2022 JetBrains s.r.o. and contributors. Use of this source code is governed by the Apache 2.0 license. -->
<svg width="16" height="16" viewBox="0 0 16 16" fill="none" xmlns="http://www.w3.org/2000/svg">
<path fill-rule="evenodd" clip-rule="evenodd" d="M11.75 0.899902C12.0262 0.899902 12.25 1.12376 12.25 1.3999V5.8999H7.75C7.47386 5.8999 7.25 5.67604 7.25 5.3999C7.25 5.12376 7.47386 4.8999 7.75 4.8999H10.6235C9.70703 3.74171 8.29019 2.99994 6.7002 2.99994C3.93877 2.99994 1.7002 5.23851 1.7002 7.99994C1.7002 10.7614 3.93877 12.9999 6.7002 12.9999C7.14974 12.9999 7.58549 12.9406 8 12.8293V13.8588C7.5815 13.9512 7.14656 13.9999 6.7002 13.9999C3.38649 13.9999 0.700195 11.3136 0.700195 7.99994C0.700195 4.68623 3.38649 1.99994 6.7002 1.99994C8.51993 1.99994 10.1503 2.81039 11.25 4.08845V1.3999C11.25 1.12376 11.4739 0.899902 11.75 0.899902ZM11.25 4.8999H11.2208L11.25 4.8798V4.8999Z" fill="#6C707E"/>
<path d="M15.1095 11.4201C15.5077 11.6487 15.5121 12.2215 15.1175 12.4562L10.4067 15.258C10.0068 15.4959 9.5 15.2077 9.5 14.7423L9.5 9.23622C9.5 8.775 9.99871 8.48624 10.3987 8.71586L15.1095 11.4201Z" fill="#F2FCF3" stroke="#5FB865" stroke-linecap="round"/>
</svg>
