<!-- Copyright 2000-2023 JetBrains s.r.o. and contributors. Use of this source code is governed by the Apache 2.0 license. -->
<svg width="16" height="16" viewBox="0 0 16 16" fill="none" xmlns="http://www.w3.org/2000/svg">
<circle cx="12.5" cy="11.5" r="3.5" fill="#DB5C5C"/>
<path d="M12.5 9C12.2239 9 12 9.22386 12 9.5V11.5C12 11.7761 12.2239 12 12.5 12C12.7761 12 13 11.7761 13 11.5V9.5C13 9.22386 12.7761 9 12.5 9Z" fill="white"/>
<path d="M12.5 14C12.7761 14 13 13.7761 13 13.5C13 13.2239 12.7761 13 12.5 13C12.2239 13 12 13.2239 12 13.5C12 13.7761 12.2239 14 12.5 14Z" fill="white"/>
<path d="M14 1.5C14 1.22386 13.7761 1 13.5 1C13.2239 1 13 1.22386 13 1.5V4.68235C11.9256 3.06631 10.0877 2 8 2C4.68629 2 2 4.68629 2 8C2 11.3137 4.68629 14 8 14C8.24671 14 8.48993 13.9851 8.72882 13.9562C8.53419 13.658 8.37398 13.3353 8.25383 12.9937C8.16975 12.9979 8.08512 13 8 13C5.23858 13 3 10.7614 3 8C3 5.23858 5.23858 3 8 3C9.63527 3 11.0878 3.78495 12.0005 5H9.5C9.22386 5 9 5.22386 9 5.5C9 5.77614 9.22386 6 9.5 6H14V1.5Z" fill="#CED0D6"/>
</svg>
