<!-- Copyright 2000-2022 JetBrains s.r.o. and contributors. Use of this source code is governed by the Apache 2.0 license. -->
<svg width="16" height="16" viewBox="0 0 16 16" fill="none" xmlns="http://www.w3.org/2000/svg">
<g clip-path="url(#clip0_3998_51968)">
<path fill-rule="evenodd" clip-rule="evenodd" d="M11.7503 0.899902C12.0264 0.899902 12.2503 1.12376 12.2503 1.3999V5.8999H7.75024C7.4741 5.8999 7.25024 5.67604 7.25024 5.3999C7.25024 5.12376 7.4741 4.8999 7.75024 4.8999H10.6235C9.70705 3.74169 8.2902 2.99991 6.7002 2.99991C3.93877 2.99991 1.7002 5.23849 1.7002 7.99991C1.7002 10.3138 3.272 12.2606 5.40615 12.8308C5.44657 13.1996 5.52041 13.5582 5.62456 13.9038C2.82415 13.3969 0.700195 10.9464 0.700195 7.99991C0.700195 4.68621 3.38649 1.99991 6.7002 1.99991C8.52006 1.99991 10.1505 2.81049 11.2503 4.08871V1.3999C11.2503 1.12376 11.4742 0.899902 11.7503 0.899902ZM11.2503 4.8999H11.2208L11.2503 4.87961V4.8999Z" fill="#6C707E"/>
<path d="M9.03296 12.2534C9.03296 10.9505 10.0892 9.89429 11.3921 9.89429C12.695 9.89429 13.7512 10.9505 13.7512 12.2534V13.1381C13.7512 14.441 12.695 15.4973 11.3921 15.4973C10.0892 15.4973 9.03296 14.441 9.03296 13.1381V12.2534Z" fill="#F2FCF3"/>
<path fill-rule="evenodd" clip-rule="evenodd" d="M15.2329 14.6446L13.5009 13.6446L14.0009 12.7786L15.7329 13.7786C15.972 13.9166 16.054 14.2224 15.9159 14.4616C15.7778 14.7007 15.472 14.7827 15.2329 14.6446Z" fill="#5FB865"/>
<path fill-rule="evenodd" clip-rule="evenodd" d="M15.7445 11.2524L13.992 12.217L13.5098 11.341L15.2623 10.3764C15.5042 10.2432 15.8083 10.3314 15.9414 10.5733C16.0746 10.8152 15.9864 11.1193 15.7445 11.2524Z" fill="#5FB865"/>
<path fill-rule="evenodd" clip-rule="evenodd" d="M7.55103 14.6436L9.28308 13.6436L8.78308 12.7776L7.05103 13.7776C6.81188 13.9157 6.72994 14.2215 6.86802 14.4606C7.00609 14.6998 7.31188 14.7817 7.55103 14.6436Z" fill="#5FB865"/>
<path fill-rule="evenodd" clip-rule="evenodd" d="M7.03922 11.2534L8.79216 12.2172L9.27396 11.3409L7.52102 10.3771C7.27905 10.244 6.97503 10.3324 6.84198 10.5743C6.70894 10.8163 6.79724 11.1203 7.03922 11.2534Z" fill="#5FB865"/>
<path fill-rule="evenodd" clip-rule="evenodd" d="M13.1667 10.0115C13.1825 9.91581 13.1906 9.81759 13.1906 9.71745C13.1906 8.7247 12.3859 7.91992 11.3931 7.91992C10.4004 7.91992 9.59558 8.7247 9.59558 9.71745C9.59558 9.81716 9.6037 9.91496 9.61931 10.0103C8.95762 10.5339 8.53308 11.3441 8.53308 12.2535V13.1382C8.53308 14.7172 9.81316 15.9973 11.3922 15.9973C12.9713 15.9973 14.2514 14.7172 14.2514 13.1382V12.2535C14.2514 11.3448 13.8275 10.5352 13.1667 10.0115ZM10.6261 9.49815C10.8699 9.4305 11.1269 9.39435 11.3922 9.39435C11.6583 9.39435 11.9159 9.43069 12.1603 9.49868C12.0652 9.16458 11.7577 8.91992 11.3931 8.91992C11.0287 8.91992 10.7214 9.16432 10.6261 9.49815ZM9.53308 12.2535C9.53308 11.2267 10.3654 10.3943 11.3922 10.3943C12.419 10.3943 13.2514 11.2267 13.2514 12.2535V13.1382C13.2514 14.165 12.419 14.9973 11.3922 14.9973C10.3654 14.9973 9.53308 14.165 9.53308 13.1382V12.2535Z" fill="#5FB865"/>
</g>
<defs>
<clipPath id="clip0_3998_51968">
<rect width="16" height="16" fill="white"/>
</clipPath>
</defs>
</svg>
