<!-- Copyright 2000-2022 JetBrains s.r.o. and contributors. Use of this source code is governed by the Apache 2.0 license. -->
<svg width="16" height="16" viewBox="0 0 16 16" fill="none" xmlns="http://www.w3.org/2000/svg">
<path fill-rule="evenodd" clip-rule="evenodd" d="M13.3 2C13.3 1.72386 13.0762 1.5 12.8 1.5C12.5239 1.5 12.3 1.72386 12.3 2V3.81561C11.2105 2.69619 9.68658 2 8 2C4.68629 2 2 4.68629 2 8C2 11.3137 4.68629 14 8 14C10.3918 14 12.4558 12.6004 13.4194 10.5778C13.5382 10.3285 13.4324 10.0301 13.1831 9.91134C12.9338 9.79257 12.6354 9.89838 12.5167 10.1477C11.7126 11.8353 9.99182 13 8 13C5.23858 13 3 10.7614 3 8C3 5.23858 5.23858 3 8 3C9.39841 3 10.6629 3.57378 11.5708 4.5H9.80005C9.52391 4.5 9.30005 4.72386 9.30005 5C9.30005 5.27614 9.52391 5.5 9.80005 5.5H12.8H13.3V5V2Z" fill="#CED0D6"/>
</svg>
