<!-- Copyright 2000-2022 JetBrains s.r.o. and contributors. Use of this source code is governed by the Apache 2.0 license. -->
<svg width="16" height="16" viewBox="0 0 16 16" fill="none" xmlns="http://www.w3.org/2000/svg">
<path fill-rule="evenodd" clip-rule="evenodd" d="M13.5501 1.3999C13.5501 1.12376 13.3262 0.899902 13.0501 0.899902C12.774 0.899902 12.5501 1.12376 12.5501 1.3999V4.08871C11.4503 2.81049 9.81987 1.99991 8 1.99991C4.68629 1.99991 2 4.68621 2 7.99991C2 11.3136 4.68629 13.9999 8 13.9999C10.3918 13.9999 12.4558 12.6003 13.4194 10.5777C13.5382 10.3284 13.4324 10.03 13.1831 9.91126C12.9338 9.79248 12.6354 9.89829 12.5167 10.1476C11.7126 11.8353 9.99182 12.9999 8 12.9999C5.23858 12.9999 3 10.7613 3 7.99991C3 5.23849 5.23858 2.99991 8 2.99991C9.59 2.99991 11.0069 3.74169 11.9233 4.8999H9.05005C8.77391 4.8999 8.55005 5.12376 8.55005 5.3999C8.55005 5.67604 8.77391 5.8999 9.05005 5.8999H13.0501H13.5501V5.3999V1.3999ZM12.5206 4.8999H12.5501V4.87961L12.5206 4.8999Z" fill="#CED0D6"/>
</svg>
