<!-- Copyright 2000-2022 JetBrains s.r.o. and contributors. Use of this source code is governed by the Apache 2.0 license. -->
<svg width="16" height="16" viewBox="0 0 16 16" fill="none" xmlns="http://www.w3.org/2000/svg">
<path fill-rule="evenodd" clip-rule="evenodd" d="M11.75 0.899902C12.0262 0.899902 12.25 1.12376 12.25 1.3999V5.8999H7.75C7.47386 5.8999 7.25 5.67604 7.25 5.3999C7.25 5.12376 7.47386 4.8999 7.75 4.8999H10.6235C9.70703 3.74171 8.29019 2.99994 6.7002 2.99994C3.93877 2.99994 1.7002 5.23851 1.7002 7.99994C1.7002 10.7614 3.93877 12.9999 6.7002 12.9999C7.1901 12.9999 7.6636 12.9295 8.1111 12.7981C8.18595 13.1286 8.29716 13.4453 8.44031 13.7437C7.88961 13.9103 7.3054 13.9999 6.7002 13.9999C3.38649 13.9999 0.700195 11.3136 0.700195 7.99994C0.700195 4.68623 3.38649 1.99994 6.7002 1.99994C8.51993 1.99994 10.1503 2.81039 11.25 4.08845V1.3999C11.25 1.12376 11.4739 0.899902 11.75 0.899902ZM11.25 4.8999H11.2208L11.25 4.8798V4.8999Z" fill="#CED0D6"/>
<path d="M16 11.8C16 13.733 14.433 15.3 12.5 15.3C10.567 15.3 9 13.733 9 11.8C9 9.86705 10.567 8.30005 12.5 8.30005C14.433 8.30005 16 9.86705 16 11.8Z" fill="#DB5C5C"/>
<path fill-rule="evenodd" clip-rule="evenodd" d="M12.5 9.37505C12.7761 9.37505 13 9.59891 13 9.87505V11.6251C13 11.9012 12.7761 12.1251 12.5 12.1251C12.2239 12.1251 12 11.9012 12 11.6251V9.87505C12 9.59891 12.2239 9.37505 12.5 9.37505Z" fill="white"/>
<path d="M13.0246 13.725C13.0246 14.0149 12.7896 14.25 12.4996 14.25C12.2097 14.25 11.9746 14.0149 11.9746 13.725C11.9746 13.435 12.2097 13.2 12.4996 13.2C12.7896 13.2 13.0246 13.435 13.0246 13.725Z" fill="white"/>
</svg>
