<!-- Copyright 2000-2022 JetBrains s.r.o. and contributors. Use of this source code is governed by the Apache 2.0 license. -->
<svg width="16" height="16" viewBox="0 0 16 16" fill="none" xmlns="http://www.w3.org/2000/svg">
<path fill-rule="evenodd" clip-rule="evenodd" d="M12.8008 1.5C13.0769 1.5 13.3008 1.72386 13.3008 2V5V5.5H12.8008H9.80078C9.52464 5.5 9.30078 5.27614 9.30078 5C9.30078 4.72386 9.52464 4.5 9.80078 4.5H11.5708C10.6629 3.57378 9.39841 3 8 3C5.23858 3 3 5.23858 3 8C3 10.7614 5.23858 13 8 13V14C4.68629 14 2 11.3137 2 8C2 4.68629 4.68629 2 8 2C9.68696 2 11.2112 2.6965 12.3008 3.81636V2C12.3008 1.72386 12.5246 1.5 12.8008 1.5Z" fill="#CED0D6"/>
<circle cx="12.5" cy="11" r="3.5" fill="#DB5C5C"/>
<path d="M12.5 9.07495L12.5 10.825" stroke="white" stroke-linecap="round"/>
<circle cx="12.4996" cy="12.9249" r="0.525" fill="white"/>
</svg>
