<!-- Copyright 2000-2023 JetBrains s.r.o. and contributors. Use of this source code is governed by the Apache 2.0 license. -->
<svg width="16" height="16" viewBox="0 0 16 16" fill="none" xmlns="http://www.w3.org/2000/svg">
<g clip-path="url(#clip0_3998_51968)">
<path d="M14 10C14 10.0847 13.9948 10.1682 13.9845 10.2501C13.4557 9.78326 12.7609 9.5 12 9.5C11.2391 9.5 10.5443 9.78326 10.0155 10.2501C10.0052 10.1682 10 10.0847 10 10C10 8.89545 10.8954 8 12 8C13.1046 8 14 8.89545 14 10Z" fill="#F2FCF3"/>
<path d="M14 12.5C14 11.3954 13.1046 10.5 12 10.5C10.8954 10.5 10 11.3954 10 12.5V13C10 14.1046 10.8954 15 12 15C13.1046 15 14 14.1046 14 13V12.5Z" fill="#F2FCF3"/>
<path fill-rule="evenodd" clip-rule="evenodd" d="M14 10C14 10.0847 13.9947 10.1682 13.9845 10.2501C14.1237 10.373 14.2515 10.5086 14.3658 10.6552L15.2226 10.084C15.4525 9.93079 15.7629 9.99286 15.9161 10.2227C16.0692 10.4524 16.0072 10.7628 15.7773 10.916L14.8428 11.5391C14.9447 11.8408 15 12.1639 15 12.5V13C15 13.4863 14.8843 13.9456 14.6789 14.3517L15.7773 15.084C16.0072 15.2371 16.0692 15.5476 15.9161 15.7773C15.7629 16.0071 15.4525 16.0692 15.2226 15.916L14.0847 15.1573C13.5449 15.679 12.8099 16 12 16C11.1901 16 10.4551 15.679 9.91528 15.1573L8.77734 15.916C8.5476 16.0692 8.23718 16.0071 8.08398 15.7773C7.9309 15.5476 7.99291 15.2371 8.22265 15.084L9.32104 14.3517C9.11572 13.9456 8.99999 13.4863 8.99999 13V12.5C8.99999 12.1639 9.05529 11.8408 9.15722 11.5391L8.22265 10.916C7.99291 10.7628 7.9309 10.4524 8.08398 10.2227C8.23718 9.99286 8.5476 9.93079 8.77734 10.084L9.63415 10.6552C9.74853 10.5086 9.87634 10.373 10.0155 10.2501C10.0052 10.1682 9.99999 10.0847 9.99999 10C9.99999 8.89545 10.8954 8 12 8C13.1046 8 14 8.89545 14 10ZM10.3917 14.189C10.397 14.196 10.4022 14.2031 10.4075 14.2101C10.7728 14.6901 11.3502 15 12 15C12.651 15 13.2292 14.689 13.5945 14.2075C13.5985 14.2021 13.6025 14.1968 13.6066 14.1915C13.8538 13.8587 14 13.4464 14 13V12.5C14 11.3954 13.1046 10.5 12 10.5C10.8954 10.5 9.99999 11.3954 9.99999 12.5V13C9.99999 13.4453 10.1456 13.8566 10.3917 14.189ZM11.0632 9.64911C11.2053 9.2699 11.5712 9 12 9C12.4288 9 12.7947 9.2699 12.9368 9.64911C12.642 9.55231 12.3271 9.5 12 9.5C11.6728 9.5 11.358 9.55231 11.0632 9.64911Z" fill="#208A3C"/>
<path d="M14 1.5C14 1.22386 13.7761 1 13.5 1C13.2239 1 13 1.22386 13 1.5V4.68235C11.9256 3.06631 10.0877 2 8 2C4.68629 2 2 4.68629 2 8C2 11.3137 4.68629 14 8 14C8.042 14 8.0839 13.9996 8.12569 13.9987C8.04364 13.6795 8 13.3448 8 13C5.23858 13 3 10.7614 3 8C3 5.23858 5.23858 3 8 3C9.63527 3 11.0878 3.78495 12.0005 5H9.5C9.22386 5 9 5.22386 9 5.5C9 5.77614 9.22386 6 9.5 6H14V1.5Z" fill="#6C707E"/>
</g>
<defs>
<clipPath id="clip0_3998_51968">
<rect width="16" height="16" fill="white"/>
</clipPath>
</defs>
</svg>
