<!-- Copyright 2000-2022 JetBrains s.r.o. and contributors. Use of this source code is governed by the Apache 2.0 license. -->
<svg width="16" height="16" viewBox="0 0 16 16" fill="none" xmlns="http://www.w3.org/2000/svg">
<path fill-rule="evenodd" clip-rule="evenodd" d="M11.9 0C12.3143 0 12.65 0.335786 12.65 0.75V4.75V5.5H11.9H7.9C7.48579 5.5 7.15 5.16421 7.15 4.75C7.15 4.33579 7.48579 4 7.9 4H10.1642C9.2969 3.07584 8.06561 2.49999 6.69995 2.49999C4.0766 2.49999 1.94995 4.62664 1.94995 7.24999C1.94995 9.21359 3.14144 10.8989 4.84088 11.6224C4.82029 11.8288 4.80976 12.0382 4.80976 12.25C4.80976 12.5844 4.83602 12.9127 4.8866 13.2329C2.31912 12.4557 0.449951 10.0711 0.449951 7.24999C0.449951 3.79821 3.24817 0.999988 6.69995 0.999988C8.44198 0.999988 10.0173 1.71313 11.15 2.86155V0.75C11.15 0.335786 11.4858 0 11.9 0Z" fill="white"/>
<path d="M14.8476 14.7844C15.1824 14.9777 15.6105 14.863 15.8038 14.5282C15.9971 14.1934 15.8824 13.7653 15.5476 13.572L14.8476 14.7844ZM13.0289 13.7344L14.8476 14.7844L15.5476 13.572L13.7289 12.522L13.0289 13.7344Z" fill="white"/>
<path d="M15.556 11.0258C15.8944 10.839 16.0173 10.4132 15.8305 10.0747C15.6436 9.73627 15.2178 9.61338 14.8793 9.80024L15.556 11.0258ZM13.7172 12.041L15.556 11.0258L14.8793 9.80024L13.0406 10.8154L13.7172 12.041Z" fill="white"/>
<path d="M7.26865 14.7844C6.93385 14.9777 6.50573 14.863 6.31243 14.5282C6.11913 14.1934 6.23385 13.7653 6.56865 13.572L7.26865 14.7844ZM9.0873 13.7344L7.26865 14.7844L6.56865 13.572L8.3873 12.522L9.0873 13.7344Z" fill="white"/>
<path d="M6.56003 11.0268C6.22151 10.84 6.09844 10.4143 6.28515 10.0757C6.47187 9.73722 6.89765 9.61415 7.23618 9.80086L6.56003 11.0268ZM8.39923 12.0412L6.56003 11.0268L7.23618 9.80086L9.07538 10.8153L8.39923 12.0412Z" fill="white"/>
<path d="M12.3607 9.84675C12.4192 9.69289 12.4513 9.52597 12.4513 9.35156C12.4513 8.5826 11.8279 7.95923 11.059 7.95923C10.29 7.95923 9.66666 8.5826 9.66666 9.35156C9.66666 9.5385 9.7035 9.71683 9.77031 9.87969" stroke="white" stroke-width="1.3"/>
<path d="M8.65527 12.1773C8.65527 10.8799 9.70705 9.82812 11.0045 9.82812H11.1061C12.4035 9.82812 13.4553 10.8799 13.4553 12.1773V12.9096C13.4553 14.2351 12.3808 15.3096 11.0553 15.3096V15.3096C9.72979 15.3096 8.65527 14.2351 8.65527 12.9096V12.1773Z" stroke="white" stroke-width="1.3"/>
</svg>
