<!-- Copyright 2000-2022 JetBrains s.r.o. and contributors. Use of this source code is governed by the Apache 2.0 license. -->
<svg width="16" height="16" viewBox="0 0 16 16" fill="none" xmlns="http://www.w3.org/2000/svg">
<path fill-rule="evenodd" clip-rule="evenodd" d="M12.8 1.5C13.0762 1.5 13.3 1.72386 13.3 2V5V5.5H12.8H9.80005C9.52391 5.5 9.30005 5.27614 9.30005 5C9.30005 4.72386 9.52391 4.5 9.80005 4.5H11.5708C10.6629 3.57378 9.39841 3 8 3C5.23858 3 3 5.23858 3 8C3 10.7614 5.23858 13 8 13V14C4.68629 14 2 11.3137 2 8C2 4.68629 4.68629 2 8 2C9.68658 2 11.2105 2.69619 12.3 3.81561V2C12.3 1.72386 12.5239 1.5 12.8 1.5Z" fill="#767A8A"/>
<circle cx="12.5" cy="11" r="3.5" fill="#E35252"/>
<path d="M12.5 9.075L12.5 10.825" stroke="white" stroke-linecap="round"/>
<circle cx="12.4999" cy="12.925" r="0.525" fill="white"/>
</svg>
