<!-- Copyright 2000-2022 JetBrains s.r.o. and contributors. Use of this source code is governed by the Apache 2.0 license. -->
<svg width="16" height="17" viewBox="0 0 16 17" fill="none" xmlns="http://www.w3.org/2000/svg">
<path fill-rule="evenodd" clip-rule="evenodd" d="M14 3.08562L8 0.540161L2 3.08562V8.86107C2 10.627 2.89245 11.9184 4.03238 12.94C4.87083 13.6914 5.8918 14.3357 6.82862 14.927L6.82869 14.927C7.13987 15.1234 7.44176 15.314 7.7246 15.5006L8 15.6824L8 14.4863C7.76883 14.337 7.53556 14.1897 7.30249 14.0425L7.30229 14.0424C6.38449 13.4629 5.46989 12.8854 4.69977 12.1952C3.67898 11.2804 3 10.2385 3 8.86107V3.74764L8 1.62643L13 3.74764V7.66311L14 8.23716V3.08562Z" fill="#CED0D6"/>
<path d="M15.1095 10.6037C15.5077 10.8322 15.5121 11.405 15.1175 11.6397L10.4067 14.4416C10.0068 14.6794 9.5 14.3912 9.5 13.9259L9.5 8.41975C9.5 7.95853 9.99871 7.66977 10.3987 7.89939L15.1095 10.6037Z" fill="#253627" stroke="#57965C" stroke-linecap="round"/>
</svg>
