<!-- Copyright 2000-2022 JetBrains s.r.o. and contributors. Use of this source code is governed by the Apache 2.0 license. -->
<svg width="16" height="16" viewBox="0 0 16 16" fill="none" xmlns="http://www.w3.org/2000/svg">
<path fill-rule="evenodd" clip-rule="evenodd" d="M14 3.00224L8 0.456787L2 3.00224V8.7777C2 10.5436 2.89245 11.835 4.03238 12.8566C4.87083 13.608 5.8918 14.2524 6.82862 14.8436L6.82869 14.8437C7.13987 15.0401 7.44176 15.2306 7.7246 15.4172L8 15.599L8 14.4029C7.76883 14.2536 7.53556 14.1063 7.30249 13.9592L7.30229 13.959C6.38449 13.3795 5.46989 12.802 4.69977 12.1119C3.67898 11.1971 3 10.1552 3 8.7777V3.66427L8 1.54306L13 3.66427V7.57973L14 8.15379V3.00224Z" fill="#6C707E"/>
<path d="M15.1095 10.5202C15.5077 10.7488 15.5121 11.3216 15.1175 11.5563L10.4067 14.3581C10.0068 14.596 9.5 14.3078 9.5 13.8424L9.5 8.33631C9.5 7.87509 9.99871 7.58634 10.3987 7.81596L15.1095 10.5202Z" fill="#F2FCF3" stroke="#5FB865" stroke-linecap="round"/>
</svg>
