<!-- Copyright 2000-2022 JetBrains s.r.o. and contributors. Use of this source code is governed by the Apache 2.0 license. -->
<svg width="16" height="16" viewBox="0 0 16 16" fill="none" xmlns="http://www.w3.org/2000/svg">
<rect x="2" y="13" width="12" height="1" rx="0.5" fill="#CED0D6"/>
<path fill-rule="evenodd" clip-rule="evenodd" d="M13.8536 8.65355C14.0488 8.45829 14.0488 8.14171 13.8536 7.94645C13.6583 7.75118 13.3417 7.75118 13.1464 7.94645L11 10.0929L11 3.5C11 3.22386 10.7761 3 10.5 3C10.2239 3 10 3.22386 10 3.5L10 10.0929L7.85355 7.94645C7.65829 7.75118 7.34171 7.75118 7.14645 7.94645C6.95118 8.14171 6.95118 8.45829 7.14645 8.65355L10.1464 11.6536L10.5 12.0071L10.8536 11.6536L13.8536 8.65355Z" fill="#CED0D6"/>
<path fill-rule="evenodd" clip-rule="evenodd" d="M6.85355 6.65355C7.04882 6.45829 7.04882 6.14171 6.85355 5.94645C6.65829 5.75118 6.34171 5.75118 6.14645 5.94645L5 7.09289L5 3.5C5 3.22386 4.77614 3 4.5 3C4.22386 3 4 3.22386 4 3.5L4 7.09289L2.85355 5.94645C2.65829 5.75118 2.34171 5.75118 2.14645 5.94645C1.95118 6.14171 1.95118 6.45829 2.14645 6.65355L4.14645 8.65355L4.5 9.00711L4.85355 8.65355L6.85355 6.65355Z" fill="#CED0D6"/>
</svg>
