<!-- Copyright 2000-2022 JetBrains s.r.o. and contributors. Use of this source code is governed by the Apache 2.0 license. -->
<svg width="16" height="16" viewBox="0 0 16 16" fill="none" xmlns="http://www.w3.org/2000/svg">
<rect x="2" y="13" width="12" height="1" rx="0.5" fill="#6C707E"/>
<path fill-rule="evenodd" clip-rule="evenodd" d="M11.3536 5.35356C11.5488 5.54882 11.5488 5.8654 11.3536 6.06066C11.1583 6.25593 10.8417 6.25593 10.6464 6.06066L8.5 3.91422L8.5 10.5071C8.5 10.7833 8.27614 11.0071 8 11.0071C7.72386 11.0071 7.5 10.7833 7.5 10.5071L7.5 3.91422L5.35355 6.06066C5.15829 6.25593 4.84171 6.25593 4.64645 6.06066C4.45118 5.8654 4.45118 5.54882 4.64645 5.35356L7.64645 2.35356L8 2L8.35355 2.35356L11.3536 5.35356Z" fill="#6C707E"/>
</svg>
