<!-- Copyright 2000-2022 JetBrains s.r.o. and contributors. Use of this source code is governed by the Apache 2.0 license. -->
<svg width="16" height="16" viewBox="0 0 16 16" fill="none" xmlns="http://www.w3.org/2000/svg">
<rect x="2" y="13" width="12" height="1" rx="0.5" fill="#CED0D6"/>
<path fill-rule="evenodd" clip-rule="evenodd" d="M13.9823 5.22618C13.9812 4.95004 13.7564 4.72709 13.4803 4.72821C13.2041 4.72933 12.9812 4.9541 12.9823 5.23024L12.9948 8.30794L7.83583 3.62958L7.4831 3.30971L7.1464 3.64641L2.14641 8.64641C1.95115 8.84167 1.95115 9.15825 2.14641 9.35352C2.34168 9.54878 2.65826 9.54878 2.85352 9.35351L7.5168 4.69022L12.2428 8.97592L9.25492 8.98805C8.97878 8.98918 8.75583 9.21394 8.75695 9.49008C8.75808 9.76622 8.98284 9.98917 9.25898 9.98805L13.5016 9.97081L14.0016 9.96878L13.9996 9.46878L13.9823 5.22618Z" fill="#CED0D6"/>
</svg>
