<!-- Copyright 2000-2022 JetBrains s.r.o. and contributors. Use of this source code is governed by the Apache 2.0 license. -->
<svg width="16" height="16" viewBox="0 0 16 16" fill="none" xmlns="http://www.w3.org/2000/svg">
<rect x="2" y="14" width="12" height="1" rx="0.5" fill="#6C707E"/>
<path fill-rule="evenodd" clip-rule="evenodd" d="M12.3536 5.85354C12.5488 6.0488 12.5488 6.36538 12.3536 6.56065C12.1583 6.75591 11.8417 6.75591 11.6464 6.56065L8.5 3.4142L8.5 11.5071C8.5 11.7832 8.27614 12.0071 8 12.0071C7.72386 12.0071 7.5 11.7832 7.5 11.5071L7.5 3.4142L4.35355 6.56065C4.15829 6.75591 3.84171 6.75591 3.64645 6.56065C3.45118 6.36538 3.45118 6.0488 3.64645 5.85354L7.64645 1.85354L8 1.49999L8.35355 1.85354L12.3536 5.85354Z" fill="#6C707E"/>
</svg>
