<!-- Copyright 2000-2022 JetBrains s.r.o. and contributors. Use of this source code is governed by the Apache 2.0 license. -->
<svg width="16" height="16" viewBox="0 0 16 16" fill="none" xmlns="http://www.w3.org/2000/svg">
<g clip-path="url(#clip0_2485_34904)">
<rect x="2" y="13" width="5" height="1" rx="0.5" fill="#6C707E"/>
<path fill-rule="evenodd" clip-rule="evenodd" d="M8.85355 5.35353C9.04882 5.54879 9.04882 5.86537 8.85355 6.06063C8.65829 6.2559 8.34171 6.2559 8.14645 6.06063L6 3.91419L6 10.5071C6 10.7832 5.77614 11.0071 5.5 11.0071C5.22386 11.0071 5 10.7832 5 10.5071L5 3.91419L2.85355 6.06063C2.65829 6.2559 2.34171 6.2559 2.14645 6.06063C1.95118 5.86537 1.95118 5.54879 2.14645 5.35353L5.14645 2.35353L5.5 1.99997L5.85355 2.35353L8.85355 5.35353Z" fill="#6C707E"/>
<path d="M10.9631 9.144C10.7391 9.144 10.5658 9.19733 10.4431 9.304C10.3258 9.40533 10.2751 9.56 10.2911 9.768L10.3711 11.048C10.3871 11.336 10.3205 11.576 10.1711 11.768C10.0218 11.9547 9.80579 12.072 9.52313 12.12C9.80046 12.1627 10.0138 12.28 10.1631 12.472C10.3178 12.664 10.3871 12.904 10.3711 13.192L10.2911 14.472C10.2751 14.6747 10.3258 14.8293 10.4431 14.936C10.5658 15.0427 10.7391 15.096 10.9631 15.096H11.3471V15.88H10.8911C10.4271 15.88 10.0591 15.7573 9.78713 15.512C9.52046 15.2667 9.40046 14.9333 9.42713 14.512L9.50713 13.24C9.51779 12.984 9.46979 12.8 9.36313 12.688C9.25646 12.5707 9.06179 12.512 8.77913 12.512H7.85913V11.728H8.77913C9.06179 11.728 9.25646 11.672 9.36313 11.56C9.46979 11.448 9.51779 11.2613 9.50713 11L9.42713 9.72C9.40046 9.29867 9.52046 8.968 9.78713 8.728C10.0538 8.48267 10.4218 8.36 10.8911 8.36H11.3471V9.144H10.9631ZM16.144 11.728V12.512H15.232C14.9493 12.512 14.752 12.5707 14.64 12.688C14.5333 12.8 14.488 12.984 14.504 13.24L14.584 14.512C14.6053 14.9333 14.48 15.2667 14.208 15.512C13.9413 15.7573 13.576 15.88 13.112 15.88H12.656V15.096H13.04C13.264 15.096 13.4347 15.0427 13.552 14.936C13.6693 14.8293 13.7253 14.6747 13.72 14.472L13.64 13.192C13.6187 12.904 13.6827 12.664 13.832 12.472C13.9867 12.28 14.2027 12.1627 14.48 12.12C14.1973 12.072 13.9813 11.9547 13.832 11.768C13.6827 11.576 13.6187 11.336 13.64 11.048L13.72 9.768C13.736 9.352 13.5093 9.144 13.04 9.144H12.656V8.36H13.112C13.5813 8.36 13.9493 8.48267 14.216 8.728C14.4827 8.968 14.6053 9.29867 14.584 9.72L14.504 11C14.488 11.2613 14.5333 11.448 14.64 11.56C14.7467 11.672 14.944 11.728 15.232 11.728H16.144Z" fill="#3574F0"/>
</g>
<defs>
<clipPath id="clip0_2485_34904">
<rect width="16" height="16" fill="white"/>
</clipPath>
</defs>
</svg>
