<!-- Copyright 2000-2022 JetBrains s.r.o. and contributors. Use of this source code is governed by the Apache 2.0 license. -->
<svg width="16" height="16" viewBox="0 0 16 16" fill="none" xmlns="http://www.w3.org/2000/svg">
<rect x="2" y="13" width="12" height="1" rx="0.5" fill="#CED0D6"/>
<path fill-rule="evenodd" clip-rule="evenodd" d="M11.3536 7.65355C11.5488 7.45829 11.5488 7.14171 11.3536 6.94645C11.1583 6.75118 10.8417 6.75118 10.6464 6.94645L8.5 9.09289L8.5 2.5C8.5 2.22386 8.27614 2 8 2C7.72386 2 7.5 2.22386 7.5 2.5L7.5 9.09289L5.35355 6.94645C5.15829 6.75118 4.84171 6.75118 4.64645 6.94645C4.45118 7.14171 4.45118 7.45829 4.64645 7.65355L7.64645 10.6536L8 11.0071L8.35355 10.6536L11.3536 7.65355Z" fill="#CED0D6"/>
</svg>
