<!-- Copyright 2000-2022 JetBrains s.r.o. and contributors. Use of this source code is governed by the Apache 2.0 license. -->
<svg width="16" height="16" viewBox="0 0 16 16" fill="none" xmlns="http://www.w3.org/2000/svg">
<rect x="2" y="14" width="12" height="1" rx="0.5" fill="#6C707E"/>
<path fill-rule="evenodd" clip-rule="evenodd" d="M13.9823 4.22669C13.9814 3.95055 13.7568 3.72743 13.4807 3.72834C13.2046 3.72924 12.9814 3.95384 12.9823 4.22998L12.9957 8.30888L7.83585 3.6297L7.48311 3.30984L7.14641 3.64654L2.14643 8.64653C1.95117 8.8418 1.95117 9.15838 2.14643 9.35364C2.34169 9.5489 2.65827 9.5489 2.85354 9.35364L7.51682 4.69034L12.2417 8.97507L8.25532 8.98818C7.97918 8.98909 7.75606 9.21368 7.75697 9.48982C7.75788 9.76596 7.98247 9.98908 8.25861 9.98817L13.5012 9.97094L14.0012 9.96929L13.9996 9.4693L13.9823 4.22669Z" fill="#6C707E"/>
</svg>
