<!-- Copyright 2000-2022 JetBrains s.r.o. and contributors. Use of this source code is governed by the Apache 2.0 license. -->
<svg width="16" height="16" viewBox="0 0 16 16" fill="none" xmlns="http://www.w3.org/2000/svg">
<g clip-path="url(#clip0_2485_34909)">
<g clip-path="url(#clip1_2485_34909)">
<rect x="2" y="13" width="5" height="1" rx="0.5" fill="#CED0D6"/>
<path fill-rule="evenodd" clip-rule="evenodd" d="M8.85355 5.35353C9.04882 5.54879 9.04882 5.86537 8.85355 6.06063C8.65829 6.2559 8.34171 6.2559 8.14645 6.06063L6 3.91419L6 10.5071C6 10.7832 5.77614 11.0071 5.5 11.0071C5.22386 11.0071 5 10.7832 5 10.5071L5 3.91419L2.85355 6.06063C2.65829 6.2559 2.34171 6.2559 2.14645 6.06063C1.95118 5.86537 1.95118 5.54879 2.14645 5.35353L5.14645 2.35353L5.5 1.99997L5.85355 2.35353L8.85355 5.35353Z" fill="#CED0D6"/>
<path d="M10.8511 15.88C10.3765 15.88 10.0005 15.76 9.72313 15.52C9.45113 15.2853 9.33379 14.9547 9.37113 14.528L9.49113 13.24C9.51779 12.9733 9.47779 12.7813 9.37113 12.664C9.26979 12.5413 9.05913 12.48 8.73913 12.48H7.79513V11.768H8.73913C9.05913 11.768 9.26979 11.7067 9.37113 11.584C9.47779 11.4613 9.51779 11.2667 9.49113 11L9.37113 9.704C9.33379 9.28267 9.45113 8.95467 9.72313 8.72C10.0005 8.48 10.3765 8.36 10.8511 8.36H11.2591V9.072H10.8831C10.6431 9.072 10.4591 9.128 10.3311 9.24C10.2031 9.352 10.1471 9.51467 10.1631 9.728L10.2831 11.024C10.3098 11.3227 10.2485 11.5653 10.0991 11.752C9.94979 11.9333 9.73913 12.0453 9.46713 12.088C9.73913 12.1413 9.94979 12.2693 10.0991 12.472C10.2485 12.6747 10.3098 12.9227 10.2831 13.216L10.1631 14.512C10.1471 14.7253 10.2031 14.888 10.3311 15C10.4591 15.112 10.6431 15.168 10.8831 15.168H11.2591V15.88H10.8511ZM12.752 15.88V15.168H13.12C13.36 15.168 13.544 15.112 13.672 15C13.8 14.888 13.856 14.7253 13.84 14.512L13.72 13.216C13.6933 12.9227 13.7547 12.6747 13.904 12.472C14.0533 12.264 14.264 12.136 14.536 12.088C14.264 12.04 14.0533 11.9253 13.904 11.744C13.7547 11.5627 13.6933 11.3227 13.72 11.024L13.84 9.728C13.856 9.51467 13.8 9.352 13.672 9.24C13.544 9.128 13.36 9.072 13.12 9.072H12.752V8.36H13.16C13.6293 8.36 14 8.48 14.272 8.72C14.5493 8.95467 14.6693 9.28267 14.632 9.704L14.512 11C14.4853 11.2667 14.5227 11.4613 14.624 11.584C14.7307 11.7067 14.944 11.768 15.264 11.768H16.216V12.48H15.264C14.944 12.48 14.7307 12.5413 14.624 12.664C14.5227 12.7813 14.4853 12.9733 14.512 13.24L14.632 14.528C14.6693 14.9547 14.5493 15.2853 14.272 15.52C14 15.76 13.6293 15.88 13.16 15.88H12.752Z" fill="#548AF7"/>
</g>
</g>
<defs>
<clipPath id="clip0_2485_34909">
<rect width="16" height="16" fill="white"/>
</clipPath>
<clipPath id="clip1_2485_34909">
<rect width="16" height="16" fill="white"/>
</clipPath>
</defs>
</svg>
