<!-- Copyright 2000-2023 JetBrains s.r.o. and contributors. Use of this source code is governed by the Apache 2.0 license. -->
<svg width="16" height="16" viewBox="0 0 16 16" fill="none" xmlns="http://www.w3.org/2000/svg">
<path fill-rule="evenodd" clip-rule="evenodd" d="M8 15C11.866 15 15 11.866 15 8C15 4.13401 11.866 1 8 1C4.13401 1 1 4.13401 1 8C1 11.866 4.13401 15 8 15ZM8.90049 4.5C8.90049 4.00294 8.49754 3.6 8.00049 3.6C7.50343 3.6 7.10049 4.00294 7.10049 4.5L7.10049 8C7.10049 8.49706 7.50343 8.9 8.00049 8.9C8.49755 8.9 8.90049 8.49706 8.90049 8L8.90049 4.5ZM8.00039 12.2C8.6079 12.2 9.10039 11.7075 9.10039 11.1C9.10039 10.4925 8.6079 10 8.00039 10C7.39288 10 6.90039 10.4925 6.90039 11.1C6.90039 11.7075 7.39288 12.2 8.00039 12.2Z" fill="#E55765"/>
</svg>
