<!-- Copyright 2000-2023 JetBrains s.r.o. and contributors. Use of this source code is governed by the Apache 2.0 license. -->
<svg width="16" height="16" viewBox="0 0 16 16" fill="none" xmlns="http://www.w3.org/2000/svg">
<path fill-rule="evenodd" clip-rule="evenodd" d="M7.11086 1.60684C7.5014 1.65527 7.81518 1.95182 7.88558 2.339L9.37103 10.509L10.6808 7.62757C10.8268 7.30628 11.1472 7.1 11.5001 7.1H14.5001C14.9972 7.1 15.4001 7.50294 15.4001 8C15.4001 8.49705 14.9972 8.9 14.5001 8.9H12.0796L9.81943 13.8724C9.65658 14.2307 9.27987 14.4416 8.88933 14.3932C8.49879 14.3447 8.18501 14.0482 8.11461 13.661L6.62916 5.491L5.31943 8.37242C5.17338 8.69371 4.85303 8.9 4.5001 8.9H1.5001C1.00304 8.9 0.600098 8.49705 0.600098 8C0.600098 7.50294 1.00304 7.1 1.5001 7.1H3.92058L6.18077 2.12757C6.34361 1.76932 6.72033 1.5584 7.11086 1.60684Z" fill="#A571E6"/>
</svg>
