<!-- Copyright 2000-2022 JetBrains s.r.o. and contributors. Use of this source code is governed by the Apache 2.0 license. -->
<svg width="16" height="16" viewBox="0 0 16 16" fill="none" xmlns="http://www.w3.org/2000/svg">
<path fill-rule="evenodd" clip-rule="evenodd" d="M13.1368 11.8637C13.4883 12.2152 13.4883 12.785 13.1368 13.1365C12.7853 13.488 12.2155 13.488 11.864 13.1365L8 9.2725L4.13601 13.1365C3.78453 13.488 3.21468 13.488 2.86321 13.1365C2.51174 12.785 2.51174 12.2152 2.86321 11.8637L6.72721 7.9997L2.864 4.13649C2.51252 3.78502 2.51252 3.21517 2.864 2.8637C3.21547 2.51223 3.78532 2.51223 4.13679 2.8637L8 6.72691L11.8632 2.8637C12.2147 2.51223 12.7845 2.51223 13.136 2.8637C13.4875 3.21517 13.4875 3.78502 13.136 4.13649L9.27279 7.9997L13.1368 11.8637Z" fill="#818594"/>
</svg>
