<!-- Copyright 2000-2023 JetBrains s.r.o. and contributors. Use of this source code is governed by the Apache 2.0 license. -->
<svg width="16" height="16" viewBox="0 0 16 16" fill="none" xmlns="http://www.w3.org/2000/svg">
<path fill-rule="evenodd" clip-rule="evenodd" d="M8 15C11.866 15 15 11.866 15 8C15 4.13401 11.866 1 8 1C4.13401 1 1 4.13401 1 8C1 11.866 4.13401 15 8 15ZM5.81588 4.68431C5.50346 4.37189 4.99693 4.37189 4.68451 4.68431C4.37209 4.99673 4.37209 5.50326 4.68451 5.81568L6.86882 8L4.68451 10.1843C4.37209 10.4967 4.37209 11.0033 4.68451 11.3157C4.99693 11.6281 5.50347 11.6281 5.81588 11.3157L8.0002 9.13137L10.1845 11.3157C10.4969 11.6281 11.0035 11.6281 11.3159 11.3157C11.6283 11.0033 11.6283 10.4967 11.3159 10.1843L9.13157 8L11.3159 5.81568C11.6283 5.50326 11.6283 4.99673 11.3159 4.68431C11.0035 4.37189 10.4969 4.37189 10.1845 4.68431L8.0002 6.86863L5.81588 4.68431Z" fill="#E55765"/>
</svg>
