<!-- Copyright 2000-2022 JetBrains s.r.o. and contributors. Use of this source code is governed by the Apache 2.0 license. -->
<svg width="16" height="16" viewBox="0 0 16 16" fill="none" xmlns="http://www.w3.org/2000/svg">
<path fill-rule="evenodd" clip-rule="evenodd" d="M7.11077 1.60673C7.5013 1.65516 7.81508 1.95171 7.88548 2.33889L9.37093 10.5089L10.6807 7.62747C10.8267 7.30617 11.1471 7.09989 11.5 7.09989H14.5C14.9971 7.09989 15.4 7.50283 15.4 7.99989C15.4 8.49695 14.9971 8.89989 14.5 8.89989H12.0795L9.81933 13.8723C9.65648 14.2306 9.27977 14.4415 8.88923 14.393C8.4987 14.3446 8.18491 14.0481 8.11452 13.6609L6.62906 5.4909L5.31933 8.37231C5.17329 8.69361 4.85293 8.89989 4.5 8.89989H1.5C1.00294 8.89989 0.599998 8.49695 0.599998 7.99989C0.599998 7.50283 1.00294 7.09989 1.5 7.09989H3.92048L6.18067 2.12747C6.34351 1.76921 6.72023 1.5583 7.11077 1.60673Z" fill="#B589EC"/>
</svg>
