<!-- Copyright 2000-2022 JetBrains s.r.o. and contributors. Use of this source code is governed by the Apache 2.0 license. -->
<svg width="16" height="16" viewBox="0 0 16 16" fill="none" xmlns="http://www.w3.org/2000/svg">
<path d="M6.67116 10.5796V10.4319C6.67495 9.74626 6.73934 9.2008 6.86434 8.7955C6.99313 8.3902 7.17495 8.06444 7.4098 7.81823C7.64465 7.56823 7.93063 7.33906 8.26775 7.13073C8.49881 6.98679 8.70525 6.82959 8.88707 6.65914C9.07268 6.48489 9.21851 6.29171 9.32457 6.07959C9.43063 5.86368 9.48366 5.62315 9.48366 5.358C9.48366 5.05876 9.41359 4.79929 9.27344 4.57959C9.13328 4.35989 8.94389 4.18944 8.70525 4.06823C8.47041 3.94701 8.20715 3.88641 7.91548 3.88641C7.64654 3.88641 7.39086 3.94512 7.14844 4.06254C6.9098 4.17618 6.71094 4.35042 6.55184 4.58527C6.39654 4.81633 6.30942 5.10989 6.29048 5.46595H4.26775C4.28669 4.74626 4.46094 4.14398 4.79048 3.65914C5.12381 3.17429 5.56321 2.81065 6.10866 2.56823C6.65791 2.3258 7.26397 2.20459 7.92684 2.20459C8.65033 2.20459 9.28669 2.33148 9.83594 2.58527C10.389 2.83906 10.8189 3.2008 11.1257 3.6705C11.4363 4.13641 11.5916 4.68944 11.5916 5.32959C11.5916 5.76141 11.5215 6.14777 11.3814 6.48868C11.245 6.82959 11.05 7.13262 10.7962 7.39777C10.5424 7.66292 10.2412 7.89967 9.89275 8.108C9.58594 8.29739 9.33404 8.49436 9.13707 8.69891C8.94389 8.90345 8.79995 9.14398 8.70525 9.4205C8.61434 9.69323 8.567 10.0303 8.56321 10.4319V10.5796H6.67116ZM7.6598 14.125C7.31889 14.125 7.02533 14.0038 6.77912 13.7614C6.53291 13.519 6.4098 13.2235 6.4098 12.875C6.4098 12.5341 6.53291 12.2425 6.77912 12C7.02533 11.7576 7.31889 11.6364 7.6598 11.6364C7.99692 11.6364 8.28859 11.7576 8.5348 12C8.7848 12.2425 8.9098 12.5341 8.9098 12.875C8.9098 13.1061 8.85109 13.3163 8.73366 13.5057C8.62003 13.6951 8.46851 13.8466 8.27912 13.9603C8.09351 14.0701 7.88707 14.125 7.6598 14.125Z" fill="#818594"/>
</svg>
