<!-- Copyright 2000-2023 JetBrains s.r.o. and contributors. Use of this source code is governed by the Apache 2.0 license. -->
<svg width="16" height="16" viewBox="0 0 16 16" fill="none" xmlns="http://www.w3.org/2000/svg">
<path fill-rule="evenodd" clip-rule="evenodd" d="M7.64638 1.98959L1.98952 7.64645C1.79426 7.84171 1.79426 8.15829 1.98952 8.35355L7.64638 14.0104C7.84164 14.2057 8.15822 14.2057 8.35348 14.0104L14.0103 8.35355C14.2056 8.15829 14.2056 7.84171 14.0103 7.64645L8.35348 1.98959C8.15822 1.79433 7.84164 1.79433 7.64638 1.98959ZM0.928862 6.58579C0.147813 7.36683 0.147814 8.63317 0.928862 9.41421L6.58572 15.0711C7.36676 15.8521 8.63309 15.8521 9.41414 15.0711L15.071 9.41421C15.852 8.63317 15.852 7.36683 15.071 6.58579L9.41414 0.928932C8.63309 0.147884 7.36676 0.147884 6.58572 0.928932L0.928862 6.58579Z" fill="#FFAF0F"/>
<path d="M5.5 8H10.5" stroke="#FFAF0F" stroke-width="1.8" stroke-linecap="round"/>
</svg>
