<!-- Copyright 2000-2023 JetBrains s.r.o. and contributors. Use of this source code is governed by the Apache 2.0 license. -->
<svg width="16" height="16" viewBox="0 0 16 16" fill="none" xmlns="http://www.w3.org/2000/svg">
<path d="M11 9.5C11 11.9853 8.98528 14 6.5 14C4.01472 14 2 11.9853 2 9.5C2 7.01472 4.01472 5 6.5 5C8.98528 5 11 7.01472 11 9.5Z" fill="#402929" stroke="#DB5C5C"/>
<path fill-rule="evenodd" clip-rule="evenodd" d="M12.4381 10.3664C13.9668 9.5111 15.0002 7.87624 15.0002 6C15.0002 3.23858 12.7616 1 10.0002 1C8.12398 1 6.48913 2.03341 5.63379 3.56209C5.91668 3.52118 6.20595 3.5 6.50018 3.5C9.81389 3.5 12.5002 6.18629 12.5002 9.5C12.5002 9.79424 12.479 10.0835 12.4381 10.3664Z" fill="#402929"/>
<path fill-rule="evenodd" clip-rule="evenodd" d="M12.4891 9.13159C13.4099 8.39877 14.0002 7.26832 14.0002 6C14.0002 3.79086 12.2093 2 10.0002 2C8.7319 2 7.60146 2.59029 6.86863 3.51113C6.74676 3.50375 6.62391 3.5 6.50018 3.5C6.20595 3.5 5.91668 3.52118 5.63379 3.56209C6.48913 2.03341 8.12398 1 10.0002 1C12.7616 1 15.0002 3.23858 15.0002 6C15.0002 7.87624 13.9668 9.5111 12.4381 10.3664C12.479 10.0835 12.5002 9.79424 12.5002 9.5C12.5002 9.37629 12.4964 9.25345 12.4891 9.13159Z" fill="#DB5C5C"/>
</svg>
