<!-- Copyright 2000-2022 JetBrains s.r.o. and contributors. Use of this source code is governed by the Apache 2.0 license. -->
<svg width="16" height="16" viewBox="0 0 16 16" fill="none" xmlns="http://www.w3.org/2000/svg">
<path fill-rule="evenodd" clip-rule="evenodd" d="M6.5 14C8.98528 14 11 11.9853 11 9.5C11 7.01472 8.98528 5 6.5 5C4.01472 5 2 7.01472 2 9.5C2 11.9853 4.01472 14 6.5 14Z" fill="#E35252"/>
<path fill-rule="evenodd" clip-rule="evenodd" d="M6.46777 3.50009C6.47853 3.50003 6.48929 3.5 6.50006 3.5C9.81376 3.5 12.5001 6.18629 12.5001 9.5C12.5001 9.51077 12.5 9.52153 12.5 9.53228C13.9817 8.79595 15.0001 7.2669 15.0001 5.5C15.0001 3.01472 12.9853 1 10.5001 1C8.73316 1 7.20411 2.01832 6.46777 3.50009Z" fill="#E35252"/>
</svg>
