<!-- Copyright 2000-2022 JetBrains s.r.o. and contributors. Use of this source code is governed by the Apache 2.0 license. -->
<svg width="16" height="16" viewBox="0 0 16 16" fill="none" xmlns="http://www.w3.org/2000/svg">
<path d="M11 9.5C11 11.9853 8.98528 14 6.5 14C4.01472 14 2 11.9853 2 9.5C2 7.01472 4.01472 5 6.5 5C8.98528 5 11 7.01472 11 9.5Z" fill="#FFF5F5" stroke="#E35252"/>
<path fill-rule="evenodd" clip-rule="evenodd" d="M12.4378 10.3664C13.9665 9.5111 15 7.87624 15 6C15 3.23858 12.7614 1 9.99996 1C8.12374 1 6.48889 2.03341 5.63354 3.56209C5.91643 3.52118 6.20571 3.5 6.49993 3.5C9.81364 3.5 12.4999 6.18629 12.4999 9.5C12.4999 9.79424 12.4788 10.0835 12.4378 10.3664Z" fill="#FFF5F5"/>
<path fill-rule="evenodd" clip-rule="evenodd" d="M12.4888 9.13159C13.4097 8.39877 14 7.26832 14 6C14 3.79086 12.2091 2 9.99996 2C8.73165 2 7.60121 2.59029 6.86839 3.51113C6.74652 3.50375 6.62366 3.5 6.49993 3.5C6.20571 3.5 5.91643 3.52118 5.63354 3.56209C6.48889 2.03341 8.12374 1 9.99996 1C12.7614 1 15 3.23858 15 6C15 7.87624 13.9665 9.5111 12.4378 10.3664C12.4788 10.0835 12.4999 9.79424 12.4999 9.5C12.4999 9.37629 12.4962 9.25345 12.4888 9.13159Z" fill="#E35252"/>
</svg>
