<svg xmlns="http://www.w3.org/2000/svg" width="40" height="40">
  <defs>
    <linearGradient id="a" x1="5.086" y1="5.086" x2="34.914" y2="34.914" gradientUnits="userSpaceOnUse">
      <stop offset="0" stop-color="#c2be43"/>
      <stop offset=".119" stop-color="#bcbd4b"/>
      <stop offset=".304" stop-color="#adbb61"/>
      <stop offset=".533" stop-color="#95b785"/>
      <stop offset=".792" stop-color="#73b1b6"/>
      <stop offset="1" stop-color="#54ace3"/>
    </linearGradient>
  </defs>
  <path d="M29,8v9H20V8h9M14,8v9H5V8h9M35,23v9H26V23h9M20,23v9H11V23h9M29,6H20a2,2,0,0,0-2,2v9a2,2,0,0,0,2,2h9a2,2,0,0,0,2-2V8a2,2,0,0,0-2-2ZM14,6H5A2,2,0,0,0,3,8v9a2,2,0,0,0,2,2h9a2,2,0,0,0,2-2V8a2,2,0,0,0-2-2ZM35,21H26a2,2,0,0,0-2,2v9a2,2,0,0,0,2,2h9a2,2,0,0,0,2-2V23a2,2,0,0,0-2-2ZM20,21H11a2,2,0,0,0-2,2v9a2,2,0,0,0,2,2h9a2,2,0,0,0,2-2V23a2,2,0,0,0-2-2Z" fill="url(#a)"/>
</svg>
