<svg xmlns="http://www.w3.org/2000/svg" width="40" height="40">
  <defs>
    <linearGradient id="a" x1="8.586" y1="8.586" x2="33.414" y2="33.414" gradientUnits="userSpaceOnUse">
      <stop offset="0" stop-color="#54ace3"/>
      <stop offset="1" stop-color="#e66ed3"/>
    </linearGradient>
  </defs>
  <path d="M21,6a2,2,0,0,1,2,2v2h9v7a4,4,0,0,0,0,8v7H25a4,4,0,0,0-8,0H10V23H8a2,2,0,0,1,0-4h2V10h9V8a2,2,0,0,1,2-2m0-2a4,4,0,0,0-4,4H10a2,2,0,0,0-2,2v7a4,4,0,0,0,0,8v7a2,2,0,0,0,2,2h9V32a2,2,0,0,1,4,0v2h9a2,2,0,0,0,2-2V23H32a2,2,0,0,1,0-4h2V10a2,2,0,0,0-2-2H25a4,4,0,0,0-4-4Z" fill="url(#a)"/>
</svg>
