<!-- Copyright 2000-2023 JetBrains s.r.o. and contributors. Use of this source code is governed by the Apache 2.0 license. -->
<svg xmlns="http://www.w3.org/2000/svg" width="40" height="40">
  <defs>
    <linearGradient id="a" x1="5.293" y1="5.293" x2="30.602" y2="30.602" gradientUnits="userSpaceOnUse">
      <stop offset="0" stop-color="#e66ed3"/>
      <stop offset=".246" stop-color="#bb84c1"/>
      <stop offset=".598" stop-color="#82a1ab"/>
      <stop offset=".859" stop-color="#5fb39c"/>
      <stop offset="1" stop-color="#52ba97"/>
    </linearGradient>
  </defs>
  <path d="M20,5A14.926,14.926,0,0,0,9.119,9.705L5,5.586V15h9.414l-3.881-3.882A12.98,12.98,0,1,1,7,20H5A15,15,0,1,0,20,5ZM7,13V10.414L9.586,13ZM19,9v8.184A2.991,2.991,0,1,0,21.286,22.7l4.407,4.407,1.414-1.414L22.7,21.286a2.964,2.964,0,0,0-1.7-4.1V9Zm1,12a1,1,0,1,1,1-1A1,1,0,0,1,20,21Z" fill="url(#a)"/>
</svg>
