<!-- Copyright 2000-2023 JetBrains s.r.o. and contributors. Use of this source code is governed by the Apache 2.0 license. -->
<svg xmlns="http://www.w3.org/2000/svg" width="20" height="20">
  <defs>
    <linearGradient id="a" x1="3.004" y1="2.996" x2="15.997" y2="15.989" gradientUnits="userSpaceOnUse">
      <stop offset="0" stop-color="#54ace3"/>
      <stop offset="1" stop-color="#e66ed3"/>
    </linearGradient>
  </defs>
  <path d="M2,16H4V12h.607l2.952,4h2.486L6.991,11.861A3.963,3.963,0,0,0,10,8,4,4,0,0,0,6,4H2ZM4,6H6a2,2,0,0,1,0,4H4ZM16.294,4,15.76,7.15H14.484L15.017,4H13.294L12.76,7.15H11v1.7h1.473l-.39,2.3H10v1.7h1.8L11.262,16h1.724l.533-3.15H14.8L14.262,16h1.724l.533-3.15H18v-1.7H16.807l.389-2.3H19V7.15H17.484L18.017,4Zm-1.211,7.15H13.807l.389-2.3h1.277Z" fill="url(#a)"/>
</svg>
