<svg xmlns="http://www.w3.org/2000/svg" width="40" height="40">
  <defs>
    <linearGradient id="a" x1="8.711" y1="8.711" x2="31.289" y2="31.289" gradientUnits="userSpaceOnUse">
      <stop offset="0" stop-color="#52ba97"/>
      <stop offset=".159" stop-color="#5cba8f"/>
      <stop offset=".43" stop-color="#77bb7b"/>
      <stop offset=".778" stop-color="#a3bd5b"/>
      <stop offset="1" stop-color="#c2be43"/>
    </linearGradient>
  </defs>
  <path d="M20,6a13.605,13.605,0,0,1,1.689.106l.422,2.431.2,1.163,1.115.385a10.444,10.444,0,0,1,3.442,1.989l.892.774,1.108-.407,2.308-.846a13.819,13.819,0,0,1,1.7,2.919l-1.892,1.579-.9.755.223,1.158a10.292,10.292,0,0,1,0,3.988l-.223,1.158.9.755,1.892,1.579a13.819,13.819,0,0,1-1.7,2.919l-2.308-.846-1.108-.407-.892.774a10.444,10.444,0,0,1-3.442,1.989l-1.115.385-.2,1.162-.422,2.432a13.5,13.5,0,0,1-3.377,0l-.423-2.432-.2-1.162-1.115-.385a10.454,10.454,0,0,1-3.442-1.989l-.892-.774-1.108.407-2.308.846a13.819,13.819,0,0,1-1.7-2.919l1.892-1.579.9-.755L9.7,21.994a10.241,10.241,0,0,1,0-3.988l.222-1.158-.9-.755L7.121,14.514a13.819,13.819,0,0,1,1.7-2.919l2.308.846,1.108.407.892-.774a10.444,10.444,0,0,1,3.442-1.989L17.687,9.7l.2-1.162.423-2.432A13.772,13.772,0,0,1,20,6m0-2a16.045,16.045,0,0,0-3.418.375L15.919,8.2a12.473,12.473,0,0,0-4.1,2.368L8.19,9.232a15.962,15.962,0,0,0-3.435,5.912l2.977,2.484a12.242,12.242,0,0,0,0,4.744L4.755,24.856A15.962,15.962,0,0,0,8.19,30.768l3.629-1.332a12.475,12.475,0,0,0,4.1,2.369l.663,3.82a15.764,15.764,0,0,0,6.836,0l.663-3.82a12.475,12.475,0,0,0,4.1-2.369l3.629,1.332a15.962,15.962,0,0,0,3.435-5.912l-2.976-2.484a12.294,12.294,0,0,0,0-4.744l2.976-2.484A15.962,15.962,0,0,0,31.81,9.232l-3.629,1.331a12.473,12.473,0,0,0-4.1-2.368l-.663-3.82A16.038,16.038,0,0,0,20,4Zm0,13a3,3,0,1,1-3,3,3,3,0,0,1,3-3m0-2a5,5,0,1,0,5,5,5,5,0,0,0-5-5Z" fill="url(#a)"/>
</svg>
