<!-- Copyright 2000-2023 JetBrains s.r.o. and contributors. Use of this source code is governed by the Apache 2.0 license. -->
<svg xmlns="http://www.w3.org/2000/svg" width="40" height="40" viewBox="0 0 40 40">
  <g data-name="Layer 1">
    <path fill="#b99bf8" d="M27.354 36.984a7.973 7.973 0 01-2.477-.394L5.552 30.273A5.141 5.141 0 012 25.376V14.624a5.141 5.141 0 013.552-4.9L24.877 3.41a7.956 7.956 0 015.677.277l4.676 2.051A4.632 4.632 0 0138 9.978v20.044a4.632 4.632 0 01-2.77 4.24l-4.676 2.051a7.96 7.96 0 01-3.2.671zm0-32.968a6.963 6.963 0 00-2.166.345L5.863 10.678A4.141 4.141 0 003 14.624v10.752a4.141 4.141 0 002.863 3.946l19.325 6.317a6.951 6.951 0 004.963-.242l4.677-2.051A3.63 3.63 0 0037 30.022V9.978a3.63 3.63 0 00-2.172-3.324L30.151 4.6a6.942 6.942 0 00-2.797-.584z"/>
    <path fill="#b99bf8" d="M26.443 8.305l-7.472 6.859 1.732 1.125 6.223-5.711L32 12.286v15.428l-5.116 1.723-15.258-12.244-1.626.781v4.435h2v-2.35l14.485 11.622L34 29.151V10.849l-7.557-2.544z"/>
    <path fill="#b99bf8" d="M13.279 23.649l-2.488 1.71L8 24.128v-8.256l2.807-1.239 15.648 10.158L28 23.952v-7.904h-2v6.063l-15.012-9.744L6 14.569v10.862l5.004 2.21 3.904-2.685-1.629-1.307z"/>
  </g>
</svg>
