<!-- Copyright 2000-2023 JetBrains s.r.o. and contributors. Use of this source code is governed by the Apache 2.0 license. -->
<svg xmlns="http://www.w3.org/2000/svg" width="40" height="40" viewBox="0 0 40 40">
  <g data-name="Layer 1">
    <path fill="#40b6e0" d="M6.741 18.349l13.585-4.161-.435.924-.138.3-11.765 3.6L11.63 31l1.826-.559q-.228.606-.44 1.181l-2.052.628zm24.043.727c-.128.48-.266.986-.41 1.5l1.883 6.2-4.11 1.259c-.246.778-.495 1.554-.745 2.32l7.349-2.255-3.4-11.18zM12.169 34c.129-.377.271-.781.42-1.2l-2.29.7-4.8-15.816L22 12.631l.856-2.354L3 16.357 8.968 36l3-.918A4.149 4.149 0 0112.169 34zm17.7-11.639q-.249.858-.514 1.749l.407 1.341-.9.275c-.117.384-.236.768-.356 1.155l2.5-.766z"/>
    <path fill="#9aa7b0" d="M20.9 39h-.014a1.718 1.718 0 01-.571-.1l-5.15-1.872A1.815 1.815 0 0114 35.26a2.118 2.118 0 01.112-.657c1.665-4.878 5.08-13.231 7.614-18.62l.388-.826 6.954 2.529-.234.883c-1.528 5.755-4.287 14.346-6.149 19.149A1.958 1.958 0 0120.9 39zm-4.88-3.793l4.814 1.749c1.748-4.513 4.286-12.372 5.829-18.018l-3.513-1.276c-2.45 5.315-5.565 12.964-7.13 17.545zm14.548-24.714l5.532 2.012 2.244-6.167-9.758-3.551c-4.489-1.631-8.7-.073-10.75 3.963l1.249 1.386c1.893-.723 3.625-.442 6.5.552L23.5 14.434l1.879.683 2.777-7.632-.939-.341a17.15 17.15 0 00-6.168-1.416A6.449 6.449 0 0127.9 4.666l7.876 2.867-.876 2.409-5.527-2.011-2.773 7.63 1.879.683z"/>
  </g>
</svg>
