<svg xmlns="http://www.w3.org/2000/svg" width="16" height="16" viewBox="0 0 16 16">
  <g fill="none" fill-rule="evenodd">
    <path fill="#AFB1B3" d="M7.46666676 15.9333335C6.0491359 15.9333335 4.9000001 14.7841977 4.9000001 13.3666669 4.9000001 11.949136 6.0491359 10.8000002 7.46666676 10.8000002 8.88419762 10.8000002 10.0333334 11.949136 10.0333334 13.3666669 10.0333334 14.7841977 8.88419762 15.9333335 7.46666676 15.9333335zM7.46499991 14.73C8.2188686 14.73 8.82999992 14.1188687 8.82999992 13.365 8.82999992 12.6111313 8.2188686 12 7.46499991 12 6.71113123 12 6.0999999 12.6111313 6.0999999 13.365 6.0999999 14.1188687 6.71113123 14.73 7.46499991 14.73zM13.3333334 15.9333335C11.9158026 15.9333335 10.7666668 14.7841977 10.7666668 13.3666669 10.7666668 11.949136 11.9158026 10.8000002 13.3333334 10.8000002 14.7508643 10.8000002 15.9000001 11.949136 15.9000001 13.3666669 15.9000001 14.7841977 14.7508643 15.9333335 13.3333334 15.9333335zM13.3349998 14.73C14.0888685 14.73 14.6999998 14.1188687 14.6999998 13.365 14.6999998 12.6111313 14.0888685 12 13.3349998 12 12.5811311 12 11.9699998 12.6111313 11.9699998 13.365 11.9699998 14.1188687 12.5811311 14.73 13.3349998 14.73z"/>
    <rect width="2.2" height="1.1" x="9.3" y="12" fill="#AFB1B3"/>
    <rect width="10" height="2" x="3" y="3" fill="#AFB1B3"/>
    <path fill="#AFB1B3" d="M12.665909,10 C11.7492349,10.2241082 10.9741772,10.809265 10.5,11.5962063 C10.0258228,10.809265 9.2507651,10.2241082 8.334091,10 L12.665909,10 Z M6.665909,10 C5.5985262,10.2609534 4.72315345,11.0114333 4.29123041,12 L3,12 L3,10 L6.665909,10 Z"/>
    <rect width="10" height="2" x="3" y="6.5" fill="#AFB1B3"/>
  </g>
</svg>
