<!-- Copyright 2000-2022 JetBrains s.r.o. and contributors. Use of this source code is governed by the Apache 2.0 license. -->
<svg width="16" height="16" viewBox="0 0 16 16" fill="none" xmlns="http://www.w3.org/2000/svg">
<g id="addToWatch_dark">
<g id="addToWatch">
<rect id="Rectangle 24" x="13" y="7" width="2" height="10" transform="rotate(90 13 7)" fill="#AFB1B3"/>
<path id="Subtract" fill-rule="evenodd" clip-rule="evenodd" d="M9 3H7V11.7639C7.53076 11.2889 8.23165 11 9 11V3Z" fill="#AFB1B3"/>
<path id="Combined Shape" fill-rule="evenodd" clip-rule="evenodd" d="M11 14C11 15.1046 10.1046 16 9 16C7.89543 16 7 15.1046 7 14C7 12.8954 7.89543 12 9 12C10.1046 12 11 12.8954 11 14ZM10 14C10 14.5523 9.55228 15 9 15C8.44772 15 8 14.5523 8 14C8 13.4477 8.44772 13 9 13C9.55228 13 10 13.4477 10 14Z" fill="#AFB1B3"/>
<path id="Combined Shape_2" fill-rule="evenodd" clip-rule="evenodd" d="M16 14C16 15.1046 15.1046 16 14 16C12.8954 16 12 15.1046 12 14C12 12.8954 12.8954 12 14 12C15.1046 12 16 12.8954 16 14ZM15 14C15 14.5523 14.5523 15 14 15C13.4477 15 13 14.5523 13 14C13 13.4477 13.4477 13 14 13C14.5523 13 15 13.4477 15 14Z" fill="#AFB1B3"/>
<rect id="Rectangle" x="10.3" y="13" width="2.2" height="1" fill="#AFB1B3"/>
</g>
</g>
</svg>
