<svg xmlns="http://www.w3.org/2000/svg" width="16" height="16" viewBox="0 0 16 16">
  <g fill="none" fill-rule="evenodd">
    <path fill="#AFB1B3" d="M7.46500015 15.9300003C6.04838974 15.9300003 4.9000001 14.7816107 4.9000001 13.3650002 4.9000001 11.9483898 6.04838974 10.8000002 7.46500015 10.8000002 8.88161057 10.8000002 10.0300002 11.9483898 10.0300002 13.3650002 10.0300002 14.7816107 8.88161057 15.9300003 7.46500015 15.9300003zM7.46499991 14.731332C8.2188686 14.731332 8.82999992 14.1199027 8.82999992 13.3656665 8.82999992 12.6114302 8.2188686 12.000001 7.46499991 12.000001 6.71113123 12.000001 6.0999999 12.6114302 6.0999999 13.3656665 6.0999999 14.1199027 6.71113123 14.731332 7.46499991 14.731332zM13.3278574 15.9300003C11.911247 15.9300003 10.7628574 14.7816107 10.7628574 13.3650002 10.7628574 11.9483898 11.911247 10.8000002 13.3278574 10.8000002 14.7444678 10.8000002 15.8928575 11.9483898 15.8928575 13.3650002 15.8928575 14.7816107 14.7444678 15.9300003 13.3278574 15.9300003zM13.3250005 14.730001C14.0788692 14.730001 14.6900005 14.1188697 14.6900005 13.365001 14.6900005 12.6111323 14.0788692 12.000001 13.3250005 12.000001 12.5711318 12.000001 11.9600005 12.6111323 11.9600005 13.365001 11.9600005 14.1188697 12.5711318 14.730001 13.3250005 14.730001z"/>
    <rect width="2.2" height="1.246" x="9.297" y="12" fill="#AFB1B3"/>
    <path fill="#40B6E0" fill-opacity=".6" fill-rule="nonzero" d="M11.981283,10.1457755 C11.3659085,10.4426127 10.8506747,10.9142292 10.5,11.4962067 C9.88755143,10.4797911 8.77316257,9.80000001 7.5,9.80000001 C5.98420702,9.80000001 4.69347008,10.7635794 4.20691516,12.1116123 C2.30002089,11.1068094 1,9.10522277 1,6.80000001 C1,3.48629151 3.6862915,0.800000012 7,0.800000012 C10.3137085,0.800000012 13,3.48629151 13,6.80000001 C13,8.0388014 12.6245709,9.18991663 11.981283,10.1457755 Z"/>
    <path fill="#231F20" fill-rule="nonzero" d="M9.24222571,8.4984843 L8.77876857,8.02416715 C8.36144085,8.46864116 7.77320794,8.71230712 7.16382143,8.69313287 C6.16200849,8.64854554 5.38497293,7.80206394 5.42609714,6.80010287 L5.42609714,6.78585715 C5.40809351,6.2955314 5.58682862,5.81835123 5.92252627,5.46050969 C6.25822391,5.10266814 6.72303017,4.8938565 7.21350571,4.8805443 C7.79292793,4.87430102 8.35227189,5.09260032 8.77428571,5.48968144 L9.21440714,5.01613144 C8.69263987,4.4933839 7.97863154,4.20856802 7.24032143,4.2286743 L7.08447143,4.2286743 C6.38996534,4.21288391 5.71808352,4.47599792 5.21899082,4.95921063 C4.71989812,5.44242335 4.43520395,6.10544928 4.42853714,6.80010287 L4.42853714,6.81414287 C4.43345485,8.23079387 5.58535168,9.37550281 7.00200571,9.37155287 L7.21938143,9.37155287 C7.98770776,9.38429579 8.72447305,9.06630462 9.24222571,8.4984843 Z" opacity=".7"/>
  </g>
</svg>
