<svg xmlns="http://www.w3.org/2000/svg" width="16" height="16" viewBox="0 0 16 16">
  <g fill="none" fill-rule="evenodd">
    <g fill="#6E6E6E" transform="translate(4.9 10.8)">
      <path d="M2.56500006 5.13000011C1.14838964 5.13000011 0 3.98161047 0 2.56500006 0 1.14838964 1.14838964 0 2.56500006 0 3.98161047 0 5.13000011 1.14838964 5.13000011 2.56500006 5.13000011 3.98161047 3.98161047 5.13000011 2.56500006 5.13000011zM2.56499982 3.93133184C3.31886851 3.93133184 3.92999983 3.31990255 3.92999983 2.5656663 3.92999983 1.81143005 3.31886851 1.20000076 2.56499982 1.20000076 1.81113113 1.20000076 1.19999981 1.81143005 1.19999981 2.5656663 1.19999981 3.31990255 1.81113113 3.93133184 2.56499982 3.93133184zM8.42785733 5.13000011C7.01124692 5.13000011 5.86285727 3.98161047 5.86285727 2.56500006 5.86285727 1.14838964 7.01124692 0 8.42785733 0 9.84446775 0 10.9928574 1.14838964 10.9928574 2.56500006 10.9928574 3.98161047 9.84446775 5.13000011 8.42785733 5.13000011zM8.42500043 3.93000078C9.17886912 3.93000078 9.79000044 3.31886946 9.79000044 2.56500077 9.79000044 1.81113208 9.17886912 1.20000076 8.42500043 1.20000076 7.67113174 1.20000076 7.06000042 1.81113208 7.06000042 2.56500077 7.06000042 3.31886946 7.67113174 3.93000078 8.42500043 3.93000078z"/>
      <rect width="2.2" height="1.246" x="4.397" y="1.2"/>
    </g>
    <g fill-rule="nonzero" transform="translate(1 .8)">
      <path fill="#40B6E0" fill-opacity=".6" d="M10.981283,9.34577547 C10.3659085,9.6426127 9.85067473,10.1142292 9.5,10.6962067 C8.88755143,9.67979109 7.77316257,9 6.5,9 C4.98420702,9 3.69347008,9.96357944 3.20691516,11.3116123 C1.30002089,10.3068094 0,8.30522276 0,6 C0,2.6862915 2.6862915,0 6,0 C9.3137085,0 12,2.6862915 12,6 C12,7.23880139 11.6245709,8.38991661 10.981283,9.34577547 Z"/>
      <path fill="#231F20" d="M8.24222571,7.69848429 L7.77876857,7.22416714 C7.36144085,7.66864115 6.77320794,7.91230711 6.16382143,7.89313286 C5.16200849,7.84854553 4.38497293,7.00206393 4.42609714,6.00010286 L4.42609714,5.98585714 C4.40809351,5.49553139 4.58682862,5.01835122 4.92252627,4.66050967 C5.25822391,4.30266813 5.72303017,4.09385649 6.21350571,4.08054429 C6.79292793,4.07430101 7.35227189,4.29260031 7.77428571,4.68968143 L8.21440714,4.21613143 C7.69263987,3.69338389 6.97863154,3.40856801 6.24032143,3.42867429 L6.08447143,3.42867429 C5.38996534,3.4128839 4.71808352,3.67599791 4.21899082,4.15921062 C3.71989812,4.64242334 3.43520395,5.30544927 3.42853714,6.00010286 L3.42853714,6.01414286 C3.43345485,7.43079386 4.58535168,8.5755028 6.00200571,8.57155286 L6.21938143,8.57155286 C6.98770776,8.58429578 7.72447305,8.26630461 8.24222571,7.69848429 Z" opacity=".7"/>
    </g>
  </g>
</svg>
