<svg xmlns="http://www.w3.org/2000/svg" width="16" height="16" viewBox="0 0 16 16">
  <g fill="#DB5860" fill-rule="evenodd" transform="matrix(-1 0 0 1 14 1)">
    <path d="M4.5,13 C2.01471863,13 0,10.9852814 0,8.5 C0,6.01471863 2.01471863,4 4.5,4 C6.98528137,4 9,6.01471863 9,8.5 C9,10.9852814 6.98528137,13 4.5,13 Z M4.5,11.5 C6.15685425,11.5 7.5,10.1568542 7.5,8.5 C7.5,6.84314575 6.15685425,5.5 4.5,5.5 C2.84314575,5.5 1.5,6.84314575 1.5,8.5 C1.5,10.1568542 2.84314575,11.5 4.5,11.5 Z"/>
    <path d="M4.46771758,2.50008502 C5.20405263,1.01832047 6.73310557,0 8.5,0 C10.9852814,0 13,2.01471863 13,4.5 C13,6.26689443 11.9816795,7.79594737 10.499915,8.53228242 C10.4999716,8.52152829 10.5,8.51076746 10.5,8.5 C10.5,5.1862915 7.8137085,2.5 4.5,2.5 C4.48923254,2.5 4.47847171,2.50002836 4.46771758,2.50008502 Z"/>
  </g>
</svg>
