<svg xmlns="http://www.w3.org/2000/svg" width="12" height="12" viewBox="0 0 12 12">
  <g fill="none" fill-rule="evenodd">
    <circle cx="2.5" cy="2.5" r="2.5" fill="#AFB1B3"/>
    <path fill="#C75450" d="M0.500109436,5.96493452 C0.959362211,6.23057851 1.47633193,6.40753841 2.0276022,6.4723978 C2.2613228,8.45889838 3.95068961,10 6,10 C8.209139,10 10,8.209139 10,6 C10,3.95068961 8.45889838,2.2613228 6.4723978,2.0276022 C6.40753841,1.47633193 6.23057851,0.959362211 5.96493452,0.500109436 C5.97661441,0.500036515 5.98830294,0.5 6,0.5 C9.03756612,0.5 11.5,2.96243388 11.5,6 C11.5,9.03756612 9.03756612,11.5 6,11.5 C2.96243388,11.5 0.5,9.03756612 0.5,6 C0.5,5.98830294 0.500036515,5.97661441 0.500109436,5.96493452 Z"/>
  </g>
</svg>
