<!-- Copyright 2000-2021 JetBrains s.r.o. Use of this source code is governed by the Apache 2.0 license that can be found in the LICENSE file. -->
<svg xmlns="http://www.w3.org/2000/svg" width="16" height="16" viewBox="0 0 16 16">
  <path fill="#40B6E0" fill-opacity=".7" fill-rule="evenodd" d="M2,5.49885397 C3.32715655,6.26405172 5.51978965,6.76396998 8,6.76396998 C10.4802104,6.76396998 12.6728435,6.26405172 14,5.49885397 C14,6.27243657 14,6.73384166 14,6.88306925 C14,7.86971974 11.3137085,8.66955799 8,8.66955799 C4.6862915,8.66955799 2,7.86971974 2,6.88306925 C2,6.7540832 2,6.29267811 2,5.49885397 Z M14,8.59543434 C14,9.42471469 14,9.91516851 14,10.0667958 C14,11.005317 11.3137085,11.7661388 8,11.7661388 C4.6862915,11.7661388 2,11.005317 2,10.0667958 C2,9.93595127 2,9.44549744 2,8.59543434 C3.32715655,9.36063209 5.51978965,9.86055035 8,9.86055035 C10.4802104,9.86055035 12.6728435,9.36063209 14,8.59543434 Z M14,11.6920147 L14,13.1953294 C14,14.1819799 11.3137085,14.9818182 8,14.9818182 C4.6862915,14.9818182 2,14.1819799 2,13.1953294 L2,11.6920147 C3.32715655,12.4572125 5.51978965,12.9571307 8,12.9571307 C10.4802104,12.9571307 12.6728435,12.4572125 14,11.6920147 Z M8,5.57297748 C4.6862915,5.57297748 2,4.77313923 2,3.78648874 C2,2.79983825 4.6862915,2 8,2 C11.3137085,2 14,2.79983825 14,3.78648874 C14,4.77313923 11.3137085,5.57297748 8,5.57297748 Z"/>
</svg>
