<svg xmlns="http://www.w3.org/2000/svg" width="12" height="12" viewBox="0 0 12 12">
  <g fill="none" fill-rule="evenodd">
    <rect width="9.5" height="1.8" x="1.245" y="5.102" fill="#6E6E6E" transform="rotate(135 5.995 6.002)"/>
    <path fill="#6E6E6E" d="M6,11 C3.23857625,11 1,8.76142375 1,6 C1,3.23857625 3.23857625,1 6,1 C8.76142375,1 11,3.23857625 11,6 C11,8.76142375 8.76142375,11 6,11 Z M6,9.5 C7.93299662,9.5 9.5,7.93299662 9.5,6 C9.5,4.06700338 7.93299662,2.5 6,2.5 C4.06700338,2.5 2.5,4.06700338 2.5,6 C2.5,7.93299662 4.06700338,9.5 6,9.5 Z"/>
  </g>
</svg>
