<svg xmlns="http://www.w3.org/2000/svg" xmlns:xlink="http://www.w3.org/1999/xlink" width="12" height="12" viewBox="0 0 12 12">
  <defs>
    <circle id="db_muted_dep_line_breakpoint_dark-a" cx="2.5" cy="2.5" r="2.5"/>
  </defs>
  <g fill="none" fill-rule="evenodd">
    <path fill="#AEAEAE" d="M1.00437192,6.21100817 C1.46640094,6.39739491 1.97121812,6.5 2.5,6.5 C2.51181953,6.5 2.52362709,6.49994874 2.53542246,6.49984642 C2.77797121,8.19606836 4.23671083,9.5 6,9.5 C7.93299662,9.5 9.5,7.93299662 9.5,6 C9.5,4.23671083 8.19606836,2.77797121 6.49984642,2.53542246 C6.49994874,2.52362709 6.5,2.51181953 6.5,2.5 C6.5,1.97121812 6.39739491,1.46640094 6.21100817,1.00437192 C8.87456517,1.11495093 11,3.30926451 11,6 C11,8.76142375 8.76142375,11 6,11 C3.30926451,11 1.11495093,8.87456517 1.00437192,6.21100817 Z"/>
    <use fill="#AEAEAE" xlink:href="#db_muted_dep_line_breakpoint_dark-a"/>
  </g>
</svg>
