<svg xmlns="http://www.w3.org/2000/svg" xmlns:xlink="http://www.w3.org/1999/xlink" width="12" height="12" viewBox="0 0 12 12">
  <defs>
    <circle id="db_muted_dep_field_breakpoint_dark-a" cx="2.5" cy="2.5" r="2.5"/>
  </defs>
  <g fill="none" fill-rule="evenodd">
    <path fill="#AFB1B3" d="M0.131629694,5.72380898 C0.794656849,6.2117205 1.61366278,6.5 2.5,6.5 C2.68166023,6.5 2.86049208,6.48789024 3.03573232,6.46443394 C3.25895516,7.90074992 4.50110577,9 6,9 C7.65685425,9 9,7.65685425 9,6 C9,4.50110577 7.90074992,3.25895516 6.46443394,3.03573232 C6.48789024,2.86049208 6.5,2.68166023 6.5,2.5 C6.5,2.33664716 6.49020805,2.17558136 6.4711791,2.01735753 C8.9174761,2.19822095 10.9982299,3.77651774 12,6 C10.9344941,8.36494733 8.64834001,10 6,10 C3.35165999,10 1.06550595,8.36494733 -2.66645353e-14,6 C0.0419976894,5.90678389 0.0858917769,5.81470174 0.131629694,5.72380898 Z"/>
    <use fill="#AFB1B3" xlink:href="#db_muted_dep_field_breakpoint_dark-a"/>
  </g>
</svg>
