<!-- Copyright 2000-2021 JetBrains s.r.o. Use of this source code is governed by the Apache 2.0 license that can be found in the LICENSE file. -->
<svg xmlns="http://www.w3.org/2000/svg" width="16" height="16" viewBox="0 0 16 16">
  <path fill="#9AA7B0" fill-rule="evenodd" d="M0.179736323,4 L0,4 L0,2 L0.648541859,2 C0.792569748,1.78939057 0.977334025,1.6046684 1.21258499,1.45340916 C1.89147478,1.01690358 2.84282393,0.803405762 3.80258941,0.803405762 C4.7623549,0.803405762 5.61297416,0.923235356 6.29486737,1.37620045 C6.59582477,1.57611914 6.82299582,1.8162466 6.99402304,2.08548274 C7.30172541,2.02849425 7.63705107,2 8,2 C8.35505647,2 8.68367795,2.02726848 8.98586445,2.08180545 C9.15687191,1.81267937 9.3839914,1.57264613 9.68484764,1.37279464 C10.3667408,0.919829547 11.2173601,0.799999952 12.1771256,0.799999952 C13.1368911,0.799999952 14.0882402,1.01349777 14.76713,1.45000335 C15.0036482,1.6020774 15.1891344,1.78797587 15.3334972,2 L16,2 L16,4 L15.7999703,4 C15.7994439,4.19606049 15.791901,4.3950018 15.7802461,4.59456717 C15.6623706,6.61294178 14.2518204,8.19768771 12.1771256,8.19768771 C9.45452914,8.19768771 8.47999954,6.69645081 8.47999954,4.49884383 C8.47999954,4.23137539 8.48695862,3.96455981 8.50906465,3.70354864 C8.34721926,3.67896066 8.17753104,3.66666667 8,3.66666667 C7.81502913,3.66666667 7.6385722,3.68001266 7.4706292,3.70670465 C7.49275195,3.96779538 7.49971547,4.23469587 7.49971547,4.50224964 C7.49971547,6.69985662 6.52518588,8.20109352 3.80258941,8.20109352 C1.72789465,8.20109352 0.317344396,6.61634759 0.199468875,4.59797298 C0.187746524,4.39725195 0.180183904,4.19716222 0.179736323,4 Z M12.16191,6.66584878 C13.3863201,6.66584878 14.218776,5.73058887 14.2883419,4.53941695 C14.3319318,3.79302864 14.2780596,3.06143209 13.6904373,2.68360876 C13.289781,2.42599891 12.728329,2.30000019 12.16191,2.30000019 C11.5954911,2.30000019 11.0934862,2.3707193 10.6910574,2.63804296 C10.0650978,3.05385276 9.97999954,3.76439689 9.97999954,4.48292448 C9.97999954,5.77987289 10.5551318,6.66584878 12.16191,6.66584878 Z M3.81808963,6.66584878 C5.42486789,6.66584878 6.00000012,5.77987289 6.00000012,4.48292448 C6.00000012,3.76439689 5.91490188,3.05385276 5.28894221,2.63804296 C4.88651343,2.3707193 4.38450861,2.30000019 3.81808963,2.30000019 C3.25167064,2.30000019 2.69021867,2.42599891 2.2895624,2.68360876 C1.70194011,3.06143209 1.64806782,3.79302864 1.6916578,4.53941695 C1.76122368,5.73058887 2.59367958,6.66584878 3.81808963,6.66584878 Z" transform="translate(0 4)"/>
</svg>
