<svg xmlns="http://www.w3.org/2000/svg" width="16" height="16" viewBox="0 0 16 16">
  <path fill="#DB5860" fill-rule="evenodd" d="M10.9979553,12 L10.9979553,13.9959717 L5.00152588,13.9959717 L5.00152588,12 L3.34823648,11.5857143 C2.64941213,10.5175037 2.29999995,8.79845611 2.29999995,6.42857145 C2.29999995,3.43067052 5.00188282,1 8.00000004,1 C10.9981173,1 13.6999998,3.43045914 13.6999998,6.42857145 C13.6999998,8.79524159 13.359542,10.5142892 12.6786264,11.5857143 L10.9979553,12 Z M4.66027832,9.83447266 C5.39842059,9.96462705 6.95184326,9.18496933 6.95184326,8.36180473 C6.95184326,7.53864013 6.64392226,7.04970987 5.90881348,6.90411377 C3.51068115,6.42913818 3.51068115,7.9670838 3.51068115,8.23522949 C3.51068115,9.13262939 3.92213605,9.70431826 4.66027832,9.83447266 Z M10.7396292,9.83708622 C11.4777715,9.70693182 11.8892264,9.13524296 11.8892264,8.23784306 C11.8892264,7.96969737 11.8892264,6.43175175 9.49109408,6.90672734 C8.7559853,7.05232344 8.4480643,7.5412537 8.4480643,8.3644183 C8.4480643,9.1875829 10.001487,9.96724062 10.7396292,9.83708622 Z"/>
</svg>
