<!-- Copyright 2000-2023 JetBrains s.r.o. and contributors. Use of this source code is governed by the Apache 2.0 license. -->
<svg width="14" height="14" viewBox="0 0 14 14" fill="none" xmlns="http://www.w3.org/2000/svg">
<path d="M9.5001 0C7.17535 0 5.26234 1.76285 5.0249 4.02471C5.54163 4.07363 6.03753 4.19403 6.50262 4.37593C6.56768 2.77661 7.88481 1.5 9.5001 1.5C11.157 1.5 12.5001 2.84315 12.5001 4.5C12.5001 6.11529 11.2235 7.43242 9.62418 7.49748C9.80607 7.96257 9.92647 8.45847 9.97539 8.9752C12.2372 8.73777 14.0001 6.82475 14.0001 4.5C14.0001 2.01472 11.9854 0 9.5001 0Z" fill="#DB5C5C"/>
<path fill-rule="evenodd" clip-rule="evenodd" d="M9 9.5C9 11.9853 6.98528 14 4.5 14C2.01472 14 0 11.9853 0 9.5C0 7.01472 2.01472 5 4.5 5C6.98528 5 9 7.01472 9 9.5ZM7.5 9.5C7.5 11.1569 6.15685 12.5 4.5 12.5C2.84315 12.5 1.5 11.1569 1.5 9.5C1.5 7.84315 2.84315 6.5 4.5 6.5C6.15685 6.5 7.5 7.84315 7.5 9.5Z" fill="#DB5C5C"/>
</svg>
