<!-- Copyright 2000-2021 JetBrains s.r.o. Use of this source code is governed by the Apache 2.0 license that can be found in the LICENSE file. -->
<svg xmlns="http://www.w3.org/2000/svg" width="16" height="16" viewBox="0 0 16 16">
  <g fill="none" fill-rule="evenodd">
    <path fill="#AFB1B3" d="M12.8990111,5.00002783 L11.6986559,6.63543606 C10.7841105,5.63066543 9.46570518,5 8,5 C5.23857625,5 3,7.23857625 3,10 C3,10.7111047 3.1484475,11.3875377 3.41604369,12 L1.28987868,12 C1.10127754,11.3662906 1,10.6949726 1,10 C1,6.13400675 4.13400675,3 8,3 C9.90731937,3 11.6364716,3.76282442 12.8990111,5.00002783 Z M13.8444532,6.14601556 C14.5748061,7.25134446 15,8.57601755 15,10 C15,10.6949726 14.8987225,11.3662906 14.7101213,12 L12.5839563,12 C12.8515525,11.3875377 13,10.7111047 13,10 C13,9.39524737 12.8926353,8.81557109 12.6959272,8.27899233 L13.8444532,6.14601556 Z"/>
    <path fill="#AFB1B3" fill-rule="nonzero" d="M12.9672147,5.41950996 C12.9672147,5.2838845 12.8512156,5.1729182 12.7094389,5.1729182 C12.6488616,5.1729182 12.5947287,5.1938785 12.5509068,5.22716839 L6.77912116,9.47328957 C6.41307955,9.74330754 6.17721471,10.1662124 6.17721471,10.6433675 C6.17721471,11.4608191 6.86934268,12.122918 7.72386938,12.122918 C8.2845317,12.122918 8.7730168,11.8368716 9.04497025,11.4102678 L12.9182373,5.56376614 C12.9491704,5.5230785 12.9672147,5.47376015 12.9672147,5.41950996 Z" transform="rotate(-3 9.572 8.648)"/>
  </g>
</svg>
