<!-- Copyright 2000-2021 JetBrains s.r.o. Use of this source code is governed by the Apache 2.0 license that can be found in the LICENSE file. -->
<svg xmlns="http://www.w3.org/2000/svg" width="16" height="16" viewBox="0 0 16 16">
  <g fill="none" fill-rule="evenodd">
    <path fill="#F4AF3D" fill-opacity=".6" d="M15,8 C15,11.866 11.866,15 8,15 C4.134,15 1,11.866 1,8 C1,4.134 4.134,1 8,1 C11.866,1 15,4.134 15,8"/>
    <path fill="#231F20" fill-opacity=".7" d="M6.8818,12 L8,12 L8,7 L9.3898,7 L9.3898,6.04516602 L8,6.04516602 C8,5.12341309 8.5686,4.78935775 9.7058,5.043 L9.9818,4.217 C9.8288,4.162 9.6558,4.112 9.4628,4.067 C9.2698,4.022 9.0578,4 8.8268,4 C8.5228,4 8.2488,4.034 8.0068,4.103 C7.7648,4.171 7.5608,4.287 7.3948,4.451 C7.2288,4.615 7.10893506,4.768 7.02093506,5.043 C6.93293506,5.319 6.8818,5.62716602 6.8818,6.04516602 L5.7448,6.5 L5.7448,7 L6.8818,7 L6.8818,12 Z"/>
    <path fill="#C2AA81" d="M13.4245823,3.57541768 C14.4093522,4.78130802 15,6.32167741 15,8 C15,11.8659932 11.8659932,15 8,15 C4.13400675,15 1,11.8659932 1,8 C1,5.38467784 2.43426081,3.10434524 4.55913177,1.90265287 C2.79798149,3.0343543 2,5.11748191 2,7.5 C2,11.0898509 4.6862915,14 8,14 C11.3137085,14 14,11.0898509 14,7.5 C14,5.6776806 13.243078,4.90631002 12.6892019,4.31079811 L11,6 L11,2 L15,2 L13.4245823,3.57541768 Z M7.92635672,1.00030145 C7.95082237,1.00010064 7.97537009,1 8,1 C8.00091326,1 8.00182636,1.00000011 8.0027393,1.00000033 C8.0018262,1.00000017 8.00091312,1 8,1 C7.9754396,1 7.95090874,1.00012649 7.92640804,1.00037885 Z"/>
  </g>
</svg>
