<svg width="16" height="16" viewBox="0 0 16 16" fill="none" xmlns="http://www.w3.org/2000/svg">
<path fill-rule="evenodd" clip-rule="evenodd" d="M5.12747 5.16248C3.89613 6.88634 3 8.68311 3 10C3 11.6569 4.34315 13 6 13C7.65685 13 9 11.6569 9 10C9 8.68311 8.10387 6.88634 6.87253 5.16248C6.57611 4.74749 6.27857 4.36159 6 4.01727C5.72143 4.36159 5.42389 4.74749 5.12747 5.16248ZM4.66298 2.49342C3.18187 4.27893 1 7.35765 1 10C1 12.7614 3.23858 15 6 15C8.76142 15 11 12.7614 11 10C11 7.35765 8.81813 4.27893 7.33701 2.49342C6.57601 1.57601 6 1 6 1C6 1 5.42399 1.57601 4.66298 2.49342Z" fill="#59A869"/>
<path fill-rule="evenodd" clip-rule="evenodd" d="M9.37522 14.9613C9.5799 14.9869 9.78842 15 10 15C12.7614 15 15 12.7614 15 10C15 7.35765 12.8181 4.27893 11.337 2.49342C10.576 1.57601 10 1 10 1C10 1 9.424 1.57601 8.66299 2.49342C8.65584 2.50204 8.64867 2.5107 8.64148 2.51939C9.03335 3.02148 9.44984 3.59057 9.85087 4.20337C9.9011 4.14009 9.95085 4.07803 10 4.01727C10.2786 4.36159 10.5761 4.74749 10.8725 5.16248C12.1039 6.88634 13 8.68311 13 10C13 11.1607 12.3409 12.1674 11.3765 12.6663C10.9163 13.5925 10.2238 14.3829 9.37522 14.9613Z" fill="#59A869"/>
</svg>
