<svg id="Layer_1" data-name="Layer 1" xmlns="http://www.w3.org/2000/svg" viewBox="0 0 32 32">
  <title>threads@2x</title>
  <g>
    <rect x="6.00214" y="9.6" width="19.99786" height="2.4" rx="0.6" ry="0.6" fill="#9aa7b0" opacity="0.7"/>
    <rect x="6.00214" y="17.59961" width="19.99786" height="2.4" rx="0.6" ry="0.6" fill="#9aa7b0" opacity="0.7"/>
    <rect x="6.00214" y="21.6" width="19.99786" height="2.4" rx="0.6" ry="0.6" fill="#9aa7b0" opacity="0.7"/>
    <path d="M27.982,3.65723a0.65509,0.65509,0,0,0-.4734-0.64258,7.66244,7.66244,0,0,0-1.66176-.41406,53.8846,53.8846,0,0,0-6.19118-.52246C18.45417,2.0332,17.25217,2.03906,16.19968,2,16.1315,2.001,16.06818,2.00293,16,2.00391,15.93181,2.00293,15.8685,2.001,15.80031,2c-1.05248.03906-2.25448,0.0332-3.456,0.07813a53.8846,53.8846,0,0,0-6.19118.52246,7.66244,7.66244,0,0,0-1.66176.41406,0.65509,0.65509,0,0,0-.4734.64258,11.43,11.43,0,0,0,.00877,1.40332C4.08908,5.64941,5.77714,8.04785,7.96344,8,9.29743,7.9707,12.68134,7.957,16,7.957S22.70257,7.9707,24.03656,8c2.1863,0.04785,3.87436-2.35059,3.9367-2.93945A11.43,11.43,0,0,0,27.982,3.65723ZM16.0302,4.87891L16,4.87793l-0.0302.001c-2.83308,0-5.12994-.43652-5.12994-0.97461,0-.32129.82358-0.60254,2.07866-0.78027,0.01461-.00293.02874-0.00684,0.04286-0.00879l0.019-.001a20.46864,20.46864,0,0,1,2.05723-.168c0.28394-.01172.56837-0.01563,0.8528-0.0166,0.02679,0,.05211-0.001.07939-0.001L16,2.92969l0.0302-.001c0.02727,0,.0526.001,0.07939,0.001,0.28443,0.001.56886,0.00488,0.8528,0.0166a20.46864,20.46864,0,0,1,2.05723.168l0.019,0.001c0.01412,0.002.02825,0.00586,0.04286,0.00879,1.25509,0.17773,2.07866.459,2.07866,0.78027C21.16013,4.44238,18.86328,4.87891,16.0302,4.87891Z" fill="#40b6e0"/>
    <path d="M27.97323,28.26665a4.69382,4.69382,0,0,0-3.967-2.58244c-0.28237,0-7.80781.03774-7.9746,0.0386-0.16728-.00086-7.69272-0.0386-7.97509-0.0386a4.75855,4.75855,0,0,0-3.999,2.58244,8.8072,8.8072,0,0,0-.00878,1.23247A0.53227,0.53227,0,0,0,4.41159,30H27.65118a0.50218,0.50218,0,0,0,.33082-0.50088A8.8072,8.8072,0,0,0,27.97323,28.26665Z" fill="#40b6e0"/>
    <path d="M28.89314,15.11074A5.43613,5.43613,0,0,0,26.52,13.74355a7.62978,7.62978,0,0,0-1.73809-.1377c-0.01023,0-.01851-0.00586-0.02922-0.00586H7.19894a1.2002,1.2002,0,0,0,0,2.40039H24.7527c0.41492,0.001.84591,0,1.22528,0a2.3571,2.3571,0,0,1,2.05365,2.17285c0.08084,0.9502-.0599,1.39355,0,2.27441a1.00651,1.00651,0,0,0,1.14466,1.19824c0.74066,0,.79116-0.93665.797-1.19824C29.97329,20.44766,30.2689,16.54922,28.89314,15.11074Z" fill="#9aa7b0" opacity="0.7"/>
  </g>
</svg>
