<svg id="Layer_1" data-name="Layer 1" xmlns="http://www.w3.org/2000/svg" viewBox="0 0 16 16">
  <title>threads</title>
  <g>
    <rect x="3.00107" y="4.8" width="9.99893" height="1.2" rx="0.6" ry="0.6" fill="#9aa7b0" opacity="0.7"/>
    <rect x="3.00107" y="8.7998" width="9.99893" height="1.2" rx="0.6" ry="0.6" fill="#9aa7b0" opacity="0.7"/>
    <rect x="3.00107" y="10.8" width="9.99893" height="1.2" rx="0.6" ry="0.6" fill="#9aa7b0" opacity="0.7"/>
    <path d="M13.991,1.82861a0.32754,0.32754,0,0,0-.2367-0.32129,3.83122,3.83122,0,0,0-.83088-0.207,26.9423,26.9423,0,0,0-3.09559-.26123C9.22708,1.0166,8.62608,1.01953,8.09984,1L8,1.002,7.90016,1c-0.52624.01953-1.12724,0.0166-1.728,0.03906a26.9423,26.9423,0,0,0-3.09559.26123,3.83122,3.83122,0,0,0-.83088.207,0.32754,0.32754,0,0,0-.2367.32129,5.715,5.715,0,0,0,.00438.70166A2.34713,2.34713,0,0,0,3.98172,4C4.64871,3.98535,6.34067,3.97852,8,3.97852S11.35129,3.98535,12.01828,4a2.34713,2.34713,0,0,0,1.96835-1.46973A5.715,5.715,0,0,0,13.991,1.82861ZM8.0151,2.43945L8,2.439l-0.0151.00049c-1.41654,0-2.565-.21826-2.565-0.4873A1.293,1.293,0,0,1,6.45927,1.562l0.02143-.00439,0.0095-.00049a10.23432,10.23432,0,0,1,1.02862-.084c0.142-.00586.28418-0.00781,0.4264-0.0083L7.9849,1.46436,8,1.46484l0.0151-.00049L8.05479,1.46484c0.14221,0.00049.28443,0.00244,0.4264,0.0083a10.23432,10.23432,0,0,1,1.02862.084L9.5193,1.55762,9.54073,1.562a1.293,1.293,0,0,1,1.03933.39014C10.58007,2.22119,9.43164,2.43945,8.0151,2.43945Z" fill="#40b6e0"/>
    <path d="M13.98661,14.13333a2.34691,2.34691,0,0,0-1.9835-1.29122c-0.14118,0-3.90391.01887-3.9873,0.0193-0.08364-.00043-3.84636-0.0193-3.98755-0.0193a2.37927,2.37927,0,0,0-1.9995,1.29122,4.4036,4.4036,0,0,0-.00439.61624A0.26614,0.26614,0,0,0,2.2058,15H13.82559a0.25109,0.25109,0,0,0,.16541-0.25044A4.4036,4.4036,0,0,0,13.98661,14.13333Z" fill="#40b6e0"/>
    <path d="M14.44657,7.55537A2.71806,2.71806,0,0,0,13.26,6.87178a3.81489,3.81489,0,0,0-.869-0.06885L12.37635,6.8H3.59947a0.6001,0.6001,0,0,0,0,1.2002h8.77688c0.20746,0.00049.423,0,.61264,0a1.17855,1.17855,0,0,1,1.02683,1.08643c0.04042,0.4751-.03.69678,0,1.13721a0.50325,0.50325,0,0,0,.57233.59912c0.37033,0,.39558-0.46832.3985-0.59912C14.98665,10.22383,15.13445,8.27461,14.44657,7.55537Z" fill="#9aa7b0" opacity="0.7"/>
  </g>
</svg>
