<svg xmlns="http://www.w3.org/2000/svg" width="16" height="16" viewBox="0 0 16 16">
  <g fill="none" fill-rule="evenodd">
    <g fill="#6E6E6E" transform="translate(4.9 10.8)">
      <path d="M2.56500006 5.13000011C1.14838964 5.13000011 0 3.98161047 0 2.56500006 0 1.14838964 1.14838964 0 2.56500006 0 3.98161047 0 5.13000011 1.14838964 5.13000011 2.56500006 5.13000011 3.98161047 3.98161047 5.13000011 2.56500006 5.13000011zM2.56499982 3.93133184C3.31886851 3.93133184 3.92999983 3.31990255 3.92999983 2.5656663 3.92999983 1.81143005 3.31886851 1.20000076 2.56499982 1.20000076 1.81113113 1.20000076 1.19999981 1.81143005 1.19999981 2.5656663 1.19999981 3.31990255 1.81113113 3.93133184 2.56499982 3.93133184zM8.42785733 5.13000011C7.01124692 5.13000011 5.86285727 3.98161047 5.86285727 2.56500006 5.86285727 1.14838964 7.01124692 0 8.42785733 0 9.84446775 0 10.9928574 1.14838964 10.9928574 2.56500006 10.9928574 3.98161047 9.84446775 5.13000011 8.42785733 5.13000011zM8.42500043 3.93000078C9.17886912 3.93000078 9.79000044 3.31886946 9.79000044 2.56500077 9.79000044 1.81113208 9.17886912 1.20000076 8.42500043 1.20000076 7.67113174 1.20000076 7.06000042 1.81113208 7.06000042 2.56500077 7.06000042 3.31886946 7.67113174 3.93000078 8.42500043 3.93000078z"/>
      <rect width="2.2" height="1.246" x="4.397" y="1.2"/>
    </g>
    <g transform="translate(1 .8)">
      <path fill="#F98B9E" fill-opacity=".6" d="M10.981283,9.34577547 C10.3659085,9.6426127 9.85067473,10.1142292 9.5,10.6962067 C8.88755143,9.67979109 7.77316257,9 6.5,9 C4.98420702,9 3.69347008,9.96357944 3.20691516,11.3116123 C1.30002089,10.3068094 0,8.30522276 0,6 C0,2.6862915 2.6862915,0 6,0 C9.3137085,0 12,2.6862915 12,6 C12,7.23880139 11.6245709,8.38991661 10.981283,9.34577547 Z"/>
      <path fill="#231F20" fill-rule="nonzero" d="M6.02307429,4.88996558 L6.01869429,2.49550701 C6.04091802,2.18061396 5.96012116,1.86703558 5.78849571,1.60208987 C5.61388252,1.39372911 5.34922363,1.28276337 5.07822429,1.30428844 C4.88341867,1.29876941 4.68972833,1.33550268 4.51047,1.41196272 C4.35738749,1.48164491 4.2255635,1.59074246 4.12848429,1.72809415 C4.02209163,1.88431166 3.94833247,2.06040071 3.91162714,2.24580844 C3.86334368,2.48013874 3.84063927,2.71901787 3.84391286,2.95824844 L3.84766714,4.88996558 L3.00954857,4.88996558 L3.00517286,2.49550701 C3.0272721,2.18094032 2.94734896,1.86763224 2.77726714,1.60208987 C2.60380058,1.39351031 2.33966928,1.28241208 2.06926714,1.30429272 C1.86581258,1.29765956 1.66360447,1.33844892 1.47863143,1.42343558 C1.32043109,1.5024201 1.18796307,1.62477752 1.09669286,1.77622272 C0.993178813,1.95266882 0.923545346,2.14690327 0.891377143,2.34892701 C0.847938412,2.60622002 0.827603085,2.86688312 0.830614286,3.12779987 L0.857142857,4.88999987 L0.000608571429,4.88999987 L0,0.604285581 L0.671622857,0.704142724 L0.791622857,1.38221987 L0.837428571,1.38221987 C0.906617114,1.25598031 0.994463725,1.14090703 1.098,1.04088844 C1.19699834,0.945853065 1.30861947,0.86491188 1.42971429,0.800348438 C1.55092486,0.735950321 1.6802598,0.688177696 1.81422857,0.658319866 C1.95024923,0.627751339 2.08924394,0.612382864 2.22865714,0.612497009 C2.54546857,0.601131184 2.85996848,0.670499787 3.14260286,0.814084152 C3.3910668,0.954848719 3.58192304,1.17873524 3.68158714,1.44634701 L3.71822571,1.44634701 C3.79318146,1.30826813 3.88963332,1.18299731 4.00396286,1.07523415 C4.11354886,0.972598772 4.23671092,0.885499336 4.36999714,0.816377009 C4.5025613,0.747709916 4.64330026,0.69613544 4.78884429,0.662888438 C4.93604957,0.62921232 5.08659334,0.612304721 5.23760143,0.612488438 C5.68406094,0.57924902 6.12343274,0.738465074 6.44495571,1.04999987 C6.75022866,1.44958716 6.89543329,1.94869588 6.85216286,2.44968415 L6.85659857,4.88996987 L6.02307429,4.88996558 Z" opacity=".7" transform="translate(2.571 3.286)"/>
    </g>
  </g>
</svg>
