<svg xmlns="http://www.w3.org/2000/svg" width="16" height="16" viewBox="0 0 16 16">
  <g fill="#737373" fill-rule="evenodd" transform="translate(.5 4)">
    <path d="M3.5 7C1.56700338 7 0 5.43299662 0 3.5 0 1.56700338 1.56700338 0 3.5 0 5.43299662 0 7 1.56700338 7 3.5 7 5.43299662 5.43299662 7 3.5 7zM3.5 5.5C4.6045695 5.5 5.5 4.6045695 5.5 3.5 5.5 2.3954305 4.6045695 1.5 3.5 1.5 2.3954305 1.5 1.5 2.3954305 1.5 3.5 1.5 4.6045695 2.3954305 5.5 3.5 5.5zM11.5 7C9.56700338 7 8 5.43299662 8 3.5 8 1.56700338 9.56700338 0 11.5 0 13.4329966 0 15 1.56700338 15 3.5 15 5.43299662 13.4329966 7 11.5 7zM11.5 5.5C12.6045695 5.5 13.5 4.6045695 13.5 3.5 13.5 2.3954305 12.6045695 1.5 11.5 1.5 10.3954305 1.5 9.5 2.3954305 9.5 3.5 9.5 4.6045695 10.3954305 5.5 11.5 5.5z"/>
    <rect width="3" height="1.5" x="6" y="1.5"/>
  </g>
</svg>
