<svg xmlns="http://www.w3.org/2000/svg" width="16" height="16" viewBox="0 0 16 16">
  <g fill="none" fill-rule="evenodd">
    <path fill="#AEAEAE" d="M4 11C2.06700338 11 .5 9.43299662.5 7.5.5 5.56700338 2.06700338 4 4 4 5.93299662 4 7.5 5.56700338 7.5 7.5 7.5 9.43299662 5.93299662 11 4 11zM4 9.5C5.1045695 9.5 6 8.6045695 6 7.5 6 6.3954305 5.1045695 5.5 4 5.5 2.8954305 5.5 2 6.3954305 2 7.5 2 8.6045695 2.8954305 9.5 4 9.5zM12 11C10.0670034 11 8.5 9.43299662 8.5 7.5 8.5 5.56700338 10.0670034 4 12 4 13.9329966 4 15.5 5.56700338 15.5 7.5 15.5 9.43299662 13.9329966 11 12 11zM12 9.5C13.1045695 9.5 14 8.6045695 14 7.5 14 6.3954305 13.1045695 5.5 12 5.5 10.8954305 5.5 10 6.3954305 10 7.5 10 8.6045695 10.8954305 9.5 12 9.5z"/>
    <rect width="3" height="1.5" x="6.5" y="5.5" fill="#AEAEAE"/>
  </g>
</svg>
