<svg xmlns="http://www.w3.org/2000/svg" width="16" height="16" viewBox="0 0 16 16">
  <g fill="#6E6E6E" fill-rule="evenodd" transform="translate(0 4)">
    <path d="M4 7C2.06700338 7 .5 5.43299662.5 3.5.5 1.56700338 2.06700338 0 4 0 5.93299662 0 7.5 1.56700338 7.5 3.5 7.5 5.43299662 5.93299662 7 4 7zM4 5.5C5.1045695 5.5 6 4.6045695 6 3.5 6 2.3954305 5.1045695 1.5 4 1.5 2.8954305 1.5 2 2.3954305 2 3.5 2 4.6045695 2.8954305 5.5 4 5.5zM12 7C10.0670034 7 8.5 5.43299662 8.5 3.5 8.5 1.56700338 10.0670034 0 12 0 13.9329966 0 15.5 1.56700338 15.5 3.5 15.5 5.43299662 13.9329966 7 12 7zM12 5.5C13.1045695 5.5 14 4.6045695 14 3.5 14 2.3954305 13.1045695 1.5 12 1.5 10.8954305 1.5 10 2.3954305 10 3.5 10 4.6045695 10.8954305 5.5 12 5.5z"/>
    <rect width="3" height="1.5" x="6.5" y="1.5"/>
  </g>
</svg>
