<?xml version="1.0" encoding="utf-8"?>
<!-- Generator: Adobe Illustrator 23.0.1, SVG Export Plug-In . SVG Version: 6.00 Build 0)  -->
<svg version="1.1" id="Layer_1" xmlns="http://www.w3.org/2000/svg" x="0px" y="0px"
     viewBox="0 0 40 40" style="enable-background:new 0 0 40 40;" xml:space="preserve">
<style type="text/css">
	.st0{fill:#12B0E0;}
	.st1{fill:#FFFFFF;}
</style>
    <rect x="1" y="1" class="st0" width="38" height="38"/>
    <g>
	<path class="st1" d="M4.9,13.3L4.9,13.3C4.9,9.3,8,6,12.3,6c2.5,0,4,0.7,5.5,1.9l-1.9,2.3c-1.1-0.9-2-1.4-3.7-1.4c-2.2,0-4,2-4,4.4
		v0c0,2.6,1.8,4.4,4.2,4.4c1.1,0,2.1-0.3,2.9-0.8v-2h-3.1v-2.7h6.1v6.1c-1.4,1.2-3.4,2.2-6,2.2C7.9,20.5,4.9,17.5,4.9,13.3z"/>
        <path class="st1" d="M20.1,9.6h3v2.2c0.6-1.5,1.6-2.4,3.4-2.4v3.2h-0.2c-2,0-3.3,1.2-3.3,3.8v4h-3V9.6z"/>
</g>
    <g>
	<path class="st1" d="M26,33.9c-1.5,0-2.3-1.1-2.8-1.8c-0.5-0.7-0.7-1-1.2-1c-0.4,0-0.7,0.3-1.2,1c-0.5,0.8-1.3,1.8-2.8,1.8
		s-2.3-1.1-2.8-1.8c-0.5-0.7-0.7-1-1.2-1c-0.4,0-0.7,0.3-1.2,1c-0.5,0.8-1.3,1.8-2.8,1.8c-1.5,0-2.3-1.1-2.8-1.8
		c-0.5-0.7-0.7-1-1.2-1c-0.6,0-1-0.4-1-1s0.4-1,1-1c1.5,0,2.3,1.1,2.8,1.8c0.5,0.7,0.7,1,1.2,1c0.4,0,0.7-0.3,1.2-1
		c0.5-0.8,1.3-1.8,2.8-1.8c1.5,0,2.3,1.1,2.8,1.8c0.5,0.7,0.7,1,1.2,1c0.4,0,0.7-0.3,1.2-1c0.5-0.8,1.3-1.8,2.8-1.8s2.3,1.1,2.8,1.8
		c0.5,0.7,0.7,1,1.2,1c0.6,0,1,0.4,1,1S26.6,33.9,26,33.9z"/>
</g>
</svg>
