<svg xmlns="http://www.w3.org/2000/svg" width="16" height="16" viewBox="0 0 16 16">
  <g fill="none" fill-rule="evenodd">
    <rect width="2" height="10" x="5" y="3" fill="#6E6E6E"/>
    <rect width="2" height="10" x="5" y="3" fill="#6E6E6E" transform="rotate(90 6 8)"/>
    <g fill-rule="nonzero" transform="translate(9 8.8)">
      <circle cx="3.5" cy="3.5" r="3.5" fill="#40B6E0" fill-opacity=".6"/>
      <path fill="#231F20" d="M4.82223979,4.38322392 C4.51811139,4.70298196 4.0894355,4.81379448 3.64534389,4.80000037 C2.91527075,4.7679239 2.34900455,4.22344115 2.3789739,3.50262259 C2.36585372,3.13962997 2.49610728,2.79634286 2.7407476,2.53890888 C2.98538792,2.2814749 3.32411639,2.20957689 3.68155141,2.19999999 C4.10380649,2.19550853 4.5114295,2.27423203 4.8189729,2.55989526 L5.13971225,2.21921973 C4.90712773,1.98918609 4.58073425,1.65271696 3.58751742,1.65271696 C3.00487463,1.65271696 2.59175955,1.83064349 2.22804476,2.17827046 C1.86432998,2.52589743 1.65685854,3.00288342 1.65200009,3.50262259 C1.65558388,4.53187278 2.55512801,5.3652409 3.58751742,5.36239928 C4.75392075,5.35918879 4.99802672,4.89979391 5.15998509,4.72445135 L4.82223979,4.38322392 Z" opacity=".7"/>
    </g>
  </g>
</svg>
