<!-- Copyright 2000-2021 JetBrains s.r.o. Use of this source code is governed by the Apache 2.0 license that can be found in the LICENSE file. -->
<svg xmlns="http://www.w3.org/2000/svg" width="16" height="16" viewBox="0 0 16 16">
  <defs>
    <linearGradient id="addjira-a" x1="50%" y1="29.171%" y2="100%">
      <stop offset="0%" stop-color="#2684FF"/>
      <stop offset="100%" stop-color="#0042A4"/>
    </linearGradient>
  </defs>
  <g fill="none" fill-rule="evenodd">
    <rect width="2" height="10" x="5" y="3" fill="#6E6E6E"/>
    <rect width="2" height="10" x="5" y="3" fill="#6E6E6E" transform="rotate(90 6 8)"/>
    <g fill-rule="nonzero" transform="rotate(45 -4.596 19.632)">
      <rect width="1.5" height="5" x="3.5" fill="url(#addjira-a)"/>
      <rect width="1.5" height="5" fill="url(#addjira-a)" transform="matrix(1 0 0 -1 0 5)"/>
      <path fill="#2684FF" d="M0,3.5 L5,3.5 L5,5 L1.81818182,5 C1.29797766,5 0.7936332,4.90452771 0.454545455,4.625 C0.201055108,4.41603469 0.0497078835,4.14870386 0,3.5 Z" transform="rotate(180 2.5 4.25)"/>
      <path fill="#2684FF" d="M0,0 L5,0 L5,1.5 L1.81818182,1.5 C1.29797766,1.5 0.7936332,1.40452771 0.454545455,1.125 C0.201055108,0.91603469 0.0497078835,0.648703862 0,0 Z"/>
    </g>
  </g>
</svg>
