<svg xmlns="http://www.w3.org/2000/svg" width="16" height="16" viewBox="0 0 16 16">
  <defs>
    <linearGradient id="addjira_dark-a" x1="98.031%" x2="58.888%" y1=".161%" y2="40.766%">
      <stop offset="18%" stop-color="#0052CC"/>
      <stop offset="100%" stop-color="#2684FF"/>
    </linearGradient>
    <linearGradient id="addjira_dark-b" x1="100.665%" x2="55.402%" y1=".455%" y2="44.727%">
      <stop offset="18%" stop-color="#0052CC"/>
      <stop offset="100%" stop-color="#2684FF"/>
    </linearGradient>
  </defs>
  <g fill="none" fill-rule="evenodd">
    <rect width="2" height="10" x="5" y="3" fill="#AFB1B3"/>
    <rect width="2" height="10" x="5" y="3" fill="#AFB1B3" transform="rotate(90 6 8)"/>
    <g fill-rule="nonzero" transform="translate(9 9)">
      <path fill="#2684FF" d="M6.68986111,0 L3.32791667,0 C3.32791667,0.402502859 3.4878103,0.788520249 3.77242281,1.07313275 C4.05703531,1.35774525 4.4430527,1.51763889 4.84555556,1.51763889 L5.46486111,1.51763889 L5.46486111,2.11555556 C5.4653974,2.95296519 6.14411814,3.63168594 6.98152778,3.63222222 L6.98152778,0.291666667 C6.98152778,0.130583615 6.85094416,9.8634922e-18 6.68986111,0 Z"/>
      <path fill="url(#addjira_dark-a)" d="M5.02638889,1.67513889 L1.66444444,1.67513889 C1.66498073,2.51254852 2.34370148,3.19126927 3.18111111,3.19180556 L3.80041667,3.19180556 L3.80041667,3.79166667 C3.80148958,4.62907603 4.48064551,5.3073618 5.31805556,5.30736111 L5.31805556,1.96680556 C5.31805556,1.8057225 5.18747194,1.67513889 5.02638889,1.67513889 Z"/>
      <path fill="url(#addjira_dark-b)" d="M3.36194444,3.34930556 L0,3.34930556 C1.02646076e-16,4.18747437 0.679470075,4.86694444 1.51763889,4.86694444 L2.13888889,4.86694444 L2.13888889,5.46486111 C2.13942332,6.30151267 2.81696093,6.97992003 3.65361111,6.98152778 L3.65361111,3.64097222 C3.65361111,3.47988917 3.5230275,3.34930556 3.36194444,3.34930556 Z"/>
    </g>
  </g>
</svg>
