<!-- Copyright 2000-2024 JetBrains s.r.o. and contributors. Use of this source code is governed by the Apache 2.0 license. -->
<svg width="16" height="16" viewBox="0 0 16 16" fill="none" xmlns="http://www.w3.org/2000/svg">
<path d="M2.83838 4.46828C2.80902 4.49764 2.78127 4.528 2.75265 4.55773C2.72403 4.58747 2.69492 4.61708 2.66692 4.64731C2.47637 4.85359 2.30217 5.06966 2.14508 5.29403C2.13752 5.30456 2.12996 5.31559 2.12253 5.32637C2.10481 5.35214 2.08734 5.37791 2.07012 5.4038C2.05215 5.43069 2.03431 5.45794 2.01697 5.48508C2.0104 5.49499 2.00396 5.50502 1.99764 5.51494C1.40431 6.44575 1.0864 7.50145 1.04366 8.56607C1.04205 8.60732 1.04118 8.64871 1.04031 8.68996C1.03945 8.73122 1.03821 8.7726 1.03821 8.81386H4.69159C4.69159 8.77248 4.69543 8.73134 4.69754 8.68996C4.69964 8.64858 4.70026 8.6072 4.70435 8.56607C4.75155 8.09032 4.93516 7.62584 5.25531 7.23557C5.28132 7.20386 5.31069 7.17412 5.33856 7.14352C5.36631 7.11292 5.39208 7.08108 5.42169 7.05159L2.83838 4.46828Z" fill="#4D5A31"/>
<path d="M14.4148 1.58304C13.7464 0.914636 12.6627 0.914636 11.9944 1.58304C11.4612 2.11616 11.3546 2.91317 11.6722 3.5532L7.94408 7.28141C7.30404 6.964 6.50703 7.07042 5.97379 7.60354C5.30539 8.27195 5.30551 9.35564 5.97379 10.0241C6.64232 10.6925 7.72602 10.6922 8.39443 10.0239C8.92755 9.49081 9.03397 8.6938 8.71643 8.05364L12.4445 4.32556C13.0847 4.64297 13.8816 4.53655 14.4147 4.00331C15.0831 3.33527 15.0831 2.25145 14.4148 1.58304Z" fill="#9AA7B0"/>
<path fill-rule="evenodd" clip-rule="evenodd" d="M1.05188 9.20001C1.2506 12.4145 3.92053 14.96 7.18501 14.96C10.5788 14.96 13.33 12.2088 13.33 8.81501C13.33 7.50115 12.9177 6.28359 12.2154 5.28469L9.51673 7.98331C9.60945 8.24325 9.65994 8.52323 9.65994 8.81501C9.65994 10.1819 8.55184 11.29 7.18494 11.29C5.94899 11.29 4.92464 10.3841 4.7397 9.20001H1.05188ZM5.71992 6.81997C6.13009 6.51826 6.6367 6.34001 7.18494 6.34001C7.47674 6.34001 7.75675 6.3905 8.0167 6.48324L10.7153 3.78465C9.7164 3.08233 8.49886 2.67001 7.18501 2.67001C5.62296 2.67001 4.19704 3.25284 3.11285 4.2129L5.71992 6.81997Z" fill="#62B543" fill-opacity="0.7"/>
</svg>
