<svg width="40" height="40" viewBox="0 0 40 40" xmlns="http://www.w3.org/2000/svg">
  <g transform="matrix(2.72 0 0 2.72 3.16 .91)">
    <polyline points="1.14 12.6 0.02 0.02 12.3 0.02 11.2 12.6 6.17 14" fill="#e44d26"/>
    <polyline points="6.18 12.9 6.18 1.05 11.2 1.05 10.3 11.8" fill="#f16529"/>
    <path d="m2.31 2.59h3.87v1.54h-2.18l0.143 1.58h2.04v1.54h-3.45m0.068 0.775h1.55l0.109 1.23 1.73 0.462v1.61l-3.17-0.883" fill="#ebebeb"/>
    <path d="m10 2.59h-3.87v1.54h3.72m-0.139 1.58h-3.58v1.54h1.9l-0.18 2-1.72 0.462v1.6l3.16-0.877" fill="#fff"/>
  </g>
</svg>