<!-- Copyright 2000-2024 JetBrains s.r.o. and contributors. Use of this source code is governed by the Apache 2.0 license. -->
<svg width="16" height="16" viewBox="0 0 16 16" fill="none" xmlns="http://www.w3.org/2000/svg">
<path d="M1 7.99794C1 4.13296 4.13339 1 7.99708 1C11.8621 1 14.9954 4.13296 14.9954 7.99794C14.9954 8.54326 14.9331 9.07395 14.8151 9.58329L14.1743 8.51526C13.7507 7.80928 13.1176 7.35007 12.4213 7.13764C12.3306 6.59388 12.0898 6.13314 11.7422 5.75421C11.8139 5.57723 12.0541 4.8654 11.6722 3.90227C11.6722 3.90227 11.0858 3.71412 9.74978 4.61968C9.19089 4.46417 8.59248 4.38685 7.99794 4.38384C7.40296 4.38685 6.80412 4.46417 6.24609 4.61968C4.90922 3.71412 4.32198 3.90227 4.32198 3.90227C3.94094 4.8654 4.18108 5.57723 4.25325 5.75421C3.80562 6.24308 3.53283 6.86813 3.53283 7.63193C3.53283 10.3134 5.16654 10.914 6.72035 11.0905C6.52059 11.2654 6.33974 11.5738 6.27616 12.0257C5.87751 12.2049 4.86369 12.5137 4.2395 11.4445C4.2395 11.4445 3.87006 10.7726 3.16768 10.7232C3.16768 10.7232 2.48422 10.7146 3.11957 11.1485C3.11957 11.1485 3.57837 11.3637 3.89669 12.1722C3.89669 12.1722 4.29127 13.4798 6.14 13.1335C5.97711 13.6313 5.95739 14.1426 6.05617 14.6236C5.98664 14.6501 5.89747 14.6582 5.78557 14.6376C3.00487 13.7123 1 11.0897 1 7.99794Z" fill="#161514"/>
<g clip-path="url(#clip0_13420_9892)">
<path fill-rule="evenodd" clip-rule="evenodd" d="M14.8608 13.546L12.4597 9.54425C12.0247 8.81923 10.974 8.81923 10.5389 9.54425L8.13788 13.546C7.75396 14.1859 8.21487 14.9999 8.96107 14.9999H14.0376C14.7838 14.9999 15.2447 14.1859 14.8608 13.546ZM15.7183 13.0315L13.3172 9.02976C12.4938 7.6574 10.5049 7.6574 9.68146 9.02976L7.28039 13.0315C6.49656 14.3379 7.43758 15.9999 8.96107 15.9999H14.0376C15.5611 15.9999 16.5021 14.3379 15.7183 13.0315Z" fill="#E66D17"/>
<path d="M12 10H11V12H12V10Z" fill="#E66D17"/>
<path d="M12.0001 14L12.0002 13H11.0002L11 14H12.0001Z" fill="#E66D17"/>
</g>
<defs>
<clipPath id="clip0_13420_9892">
<rect width="9" height="8" fill="white" transform="translate(7 8)"/>
</clipPath>
</defs>
</svg>
