<svg xmlns="http://www.w3.org/2000/svg" width="16" height="16" viewBox="0 0 16 16">
  <g fill="none" fill-rule="evenodd">
    <path fill="#9AA7B0" fill-opacity=".8" d="M12,9 L12,15 L1,15 L1,9 L2,9 L2,14 L11,14 L11,9 L12,9 Z M4,8 L8.10406474,8 L4,8 Z"/>
    <polygon fill="#40B6E0" fill-opacity=".6" points="10 9 10 13 3 13 3 9"/>
    <polygon fill="#231F20" fill-opacity=".7" points="12 6.504 9 4 9 6 2 6 2 8.402 3 8.402 3 7 9 6.997 9 9"/>
    <path fill="#9AA7B0" fill-opacity=".8" d="M13,10 L13,9 L14,9 L14,3 L5,3 L5,4 L4,4 L4,1 L15,1 L15,10 L13,10 Z"/>
  </g>
</svg>
