<!-- Copyright 2000-2021 JetBrains s.r.o. Use of this source code is governed by the Apache 2.0 license that can be found in the LICENSE file. -->
<svg xmlns="http://www.w3.org/2000/svg" width="16" height="16" viewBox="0 0 16 16">
  <path fill="#9AA7B0" fill-opacity=".8" fill-rule="evenodd" d="M5.91952245,11.706823 C6.53447604,12.0527112 7.24419838,12.25 8,12.25 C10.3472102,12.25 12.25,10.3472102 12.25,8 C12.25,7.24419838 12.0527112,6.53447604 11.706823,5.91952245 L5.91952245,11.706823 Z M4.29317692,10.0804774 L10.0804774,4.29317692 C9.46552384,3.94728879 8.75580155,3.75 8,3.75 C5.65278981,3.75 3.75,5.65278981 3.75,8 C3.75,8.75580155 3.94728879,9.46552384 4.29317692,10.0804774 Z M8,14.5 C4.41014913,14.5 1.5,11.5898509 1.5,8 C1.5,4.41014913 4.41014913,1.5 8,1.5 C11.5898509,1.5 14.5,4.41014913 14.5,8 C14.5,11.5898509 11.5898509,14.5 8,14.5 Z"/>
</svg>
