<!-- Copyright 2000-2021 JetBrains s.r.o. Use of this source code is governed by the Apache 2.0 license that can be found in the LICENSE file. -->
<svg xmlns="http://www.w3.org/2000/svg" width="16" height="16" viewBox="0 0 16 16">
  <path fill="#9AA7B0" fill-opacity=".8" fill-rule="evenodd" d="M8,14.5 C11.5898509,14.5 14.5,11.5898509 14.5,8 C14.5,4.41014913 11.5898509,1.5 8,1.5 C4.41014913,1.5 1.5,4.41014913 1.5,8 C1.5,11.5898509 4.41014913,14.5 8,14.5 Z M7,12 L9,12 L9,10.5 L7,10.5 L7,12 Z M8,3.5 C6.3425,3.5 5,4.5925 5,6.25 L6.5,6.25 C6.5,5.5 7.25,5 8,5 C8.75,5 9.5,5.5 9.5,6.25 C9.5,7.5 7,8 7,9.5 L9,9.5 C9,8 11,8 11,6.25 C11,4.5925 9.6575,3.5 8,3.5 Z"/>
</svg>
