<!-- Copyright 2000-2023 JetBrains s.r.o. and contributors. Use of this source code is governed by the Apache 2.0 license. -->
<svg xmlns="http://www.w3.org/2000/svg" width="16" height="16" viewBox="0 0 16 16">
  <g fill="none" fill-rule="evenodd">
    <g transform="translate(1.322 3.375)">
      <path fill="#D1A41A" d="M2.13111007 6.16858238C2.28988191 6.36438877 2.46635911 6.5628143 2.66054164 6.76233986 2.09517556 6.93242636 1.72451584 7.2483462 1.49332495 7.52728388 1.12751063 7.96876497.933878116 8.55183638.978403378 9.05224796L.00481920766 9.05224796C.200075582 8.62852461.979451028 7.40444654 2.13111007 6.16858238zM13.4094379 9.31777568L12.2255897 9.31777568C9.50981053 7.90061512 7.12550886 6.90131106 4.59264996 6.68298012 4.59801919 6.33054957 4.66077362 5.93149844 4.78146327 5.48682202L4.5481247 5.42406758C4.42421351 5.88105394 4.35931139 6.29461506 4.35179447 6.66475095 4.08789062 6.64704561 3.8223629 6.63845485 3.55416367 6.63845485 3.32726816 6.63845485 3.12022569 6.65940792 2.93141238 6.69586625 2.68521386 6.45019157 2.47547368 6.21525532 2.29739882 5.99268139 3.46566316 4.77609404 5.38973074 3.67537715 7.06437829 3.2612922 7.53587464 4.82863386 8.54806483 5.90253083 9.77638589 6.62504489 9.86648407 6.57355274 9.95501077 6.51991289 10.0419136 6.4630777L12.184836 8.77011494 12.2787057 8.76204801C12.8638724 8.71165589 13.19645 9.0291996 13.2844528 9.12788853 13.3493549 9.19975754 13.387961 9.2657597 13.4094379 9.31777568z"/>
      <path fill="#FFDC76" d="M12.3639847,1.60112847 C12.4074623,3.73011704 11.3212554,5.42459141 9.8005343,6.29356741 C7.21937859,5.00783495 6.73339843,1.74973809 7.17325565,0.00214769119 C7.29554298,0.670498084 7.5181693,1.08945462 7.99878023,1.29489943 C9.04690494,0.995008681 10.4892616,0.9713841 11.5518963,1.26430795 C11.994425,0.94246887 12.166083,0.450595664 12.2599527,0.0209530651 C12.3768708,0.520840815 12.3634608,1.60112847 12.3639847,1.60112847 Z"/>
    </g>
    <g fill="#000" transform="translate(4.648 4.341)">
      <polygon points="2.546 2.651 2.94 3.818 1.743 3.016"/>
      <polygon points="1.393 3.162 1.816 3.891 .927 3.439"/>
      <polygon points=".431 3.731 .635 4.46 .022 4.037"/>
      <polygon points="6.951 5.685 6.572 6.269 7.243 5.963"/>
      <polygon points="7.549 6.356 6.936 6.823 7.782 6.604"/>
      <polygon points="6.061 .026 6.513 1.018 6.805 .011"/>
      <polygon points="3.771 1.47 4.486 1.849 3.844 1.893"/>
      <polygon points="3.946 2.243 4.384 2.418 4.019 2.52"/>
      <polygon points="9.051 1.747 8.468 1.995 8.949 2.068"/>
      <polygon points="8.818 2.462 8.366 2.593 8.731 2.724"/>
    </g>
    <g fill="#000" transform="translate(8.134 5.092)">
      <rect width="1.408" height="1" x=".05" y="2.806"/>
      <rect width="1.408" height="1" x=".05" y="2.388"/>
      <rect width="1.408" height="1" x="4.348" y="2.806"/>
      <rect width="1.408" height="1" x="4.348" y="2.388"/>
      <g transform="translate(1.341)">
        <path d="M2.51106771,1.35796815 L1.05273438,1.35796815 L0.890714802,1.35796815 L0.216968991,1.35796815 L0.216968991,1.20155352 L0.930892302,1.20155352 C1.01879041,0.82513171 1.03618145,0.465367579 0.930158943,0.282971149 C0.884900323,0.205444808 0.822355425,0.169196002 0.733095367,0.169196002 C0.324929658,0.169196002 0.156309866,0.600829144 0.149290588,0.619163077 L0.149395352,0.619058313 L0.00293342375,0.564108898 C0.0113146498,0.541584352 0.215607038,0.0127813724 0.733095362,0.0127813724 C0.877514362,0.0127813724 0.992389544,0.0790978222 1.06520145,0.204292388 C1.19448186,0.426394878 1.17929089,0.810674093 1.09170707,1.20155352 L2.34443846,1.20155352 C2.51085818,0.712613748 2.85836476,0.482077652 3.43897419,0.482077652 L3.43897419,0.638439903 C2.80964888,0.638439903 2.63338122,0.905224804 2.5074533,1.20155353 L3.19099467,1.20155353 L3.18942319,1.35718242 L2.51106771,1.35796815 Z"/>
        <path fill-rule="nonzero" d="M2.61389488,2.13045528 L2.61489015,2.13029813 C2.42935076,1.85670348 2.37057741,1.62312919 2.44815614,1.35718241 L2.28880808,1.35796815 C2.23328245,1.53502155 2.25554509,1.80175407 2.39226383,2.03061392 L0.800511857,2.03061392 C0.897367403,1.83664093 0.987151286,1.6001332 1.05273438,1.35796815 L0.890714802,1.35796815 C0.818426724,1.61474796 0.716856746,1.86885626 0.602557774,2.07016284 L0.565575615,2.1352221 L1.45880478,2.69749761 L0.955931221,3.02887033 L1.04204832,3.15951269 L1.60411429,2.78895774 L2.21086267,3.18491829 L2.29420349,3.0525473 L1.73161369,2.70451688 C1.73161369,2.70451688 2.57277449,2.15811333 2.61457585,2.13145055 C2.61431394,2.13108387 2.61415679,2.13076958 2.61389488,2.13045528 Z M1.60222851,2.6029469 L0.941525983,2.18697617 L2.23270624,2.18729047 L1.60222851,2.6029469 Z"/>
      </g>
    </g>
    <g fill="#000" fill-rule="nonzero" transform="translate(1 3)">
      <path d="M12.9483395,1.78797743 C12.9473442,1.51600664 12.8626414,0.366521491 12.7069602,0.0500254437 C12.2848607,0.210421159 11.5167213,0.730161938 11.3428632,1.26163643 C10.509717,1.13722761 9.57049584,1.15194714 8.74772135,1.29432322 C8.61026925,0.722514065 7.92036338,0.284909301 7.39988925,0.0383964912 C7.18035351,0.408846683 7.0830789,1.26781759 7.10782971,1.87713272 C7.10688682,1.87776132 7.10586536,1.87838991 7.10492247,1.87907088 C7.20146372,4.43770205 8.4566309,6.03076359 10.0979893,6.99628083 C11.7866492,6.03139218 12.9930219,4.15033076 12.9462965,1.78682502 C12.9469775,1.78724407 12.9477109,1.78755837 12.9483395,1.78797743 Z M12.6856404,1.97257394 C12.7290656,4.1015625 11.6428587,5.7959845 10.12219,6.66501288 C7.54113909,5.37891374 7.05492322,2.12113117 7.49506854,0.373645539 C7.61751301,1.04173402 7.83966789,1.46074294 8.32077646,1.66629251 C9.36850829,1.36640176 10.8109173,1.3427248 11.8733948,1.63575342 C12.3161855,1.31380957 12.4878959,0.822041133 12.5816608,0.392398533 C12.6987885,0.892391047 12.6852737,1.9723644 12.6856404,1.97257394 Z"/>
      <path d="M13.7863573,9.33820492 C13.521301,9.04166667 13.0019793,8.90133351 12.5683556,8.91170528 C12.2605551,8.54534094 10.4761921,6.66627005 10.4761921,6.66627005 L10.3525166,6.82200371 L12.506806,9.14129849 L12.6003091,9.13328394 C13.1856329,9.08315374 13.5183676,9.40059267 13.6064229,9.49907208 C13.6710107,9.57130777 13.7099834,9.63720516 13.7311984,9.68890685 L12.5470883,9.68890685 C9.83162341,8.27195582 7.44711221,7.27275652 4.91427951,7.05453035 C4.91983207,6.70204741 4.9825865,6.30304867 5.10298805,5.85842463 L4.87001616,5.79530352 C4.74623592,6.25234225 4.68101951,6.66621767 4.67365975,7.03614404 C4.40975589,7.01864823 4.14412341,7.00958603 3.8761599,7.00958603 C3.64889771,7.00958603 3.44193381,7.03069624 3.25317289,7.0673641 C3.00697437,6.82132273 2.79723419,6.58680555 2.61900218,6.36423162 C3.79564775,5.13858207 5.73815403,4.03100305 7.42154947,3.62367546 L7.3670977,3.38784871 C5.55450041,3.82492965 3.57048087,5.01501137 2.46491858,6.16433938 C1.95185659,5.47184057 1.74829756,4.90359345 1.68784797,4.47295558 C1.61147404,3.92906639 1.74130447,3.43012152 2.06327451,3.03007513 C2.56732668,2.40389278 3.28352864,2.35978657 4.01989792,2.48361919 C4.00551888,2.5999087 4.02081462,2.71106471 4.06738281,2.77984314 C4.26214155,3.06747635 5.30879953,3.1685225 5.93356755,2.88979435 C5.47252155,2.24370659 4.53861724,1.92825819 4.27984689,2.05465756 C4.19412266,2.09651131 4.12945626,2.17340906 4.08514053,2.26308818 C3.83061317,2.21756764 3.57781444,2.18367606 3.3930346,2.18503801 C2.74359434,2.18980483 2.24711146,2.41672653 1.87524694,2.87874162 C1.5104017,3.3320088 1.3629445,3.89491289 1.44879969,4.50653286 C1.53012377,5.08583273 1.81694504,5.70195761 2.29766074,6.34092133 C2.21780337,6.42656699 2.14061751,6.51116499 2.0663389,6.5942439 C0.894669689,7.90527718 0.0382131502,9.31112308 0.0382131502,9.54406879 L0.0382131502,9.66475844 L1.58389458,9.66475844 L1.55681274,9.52164901 C1.46951703,9.0603149 1.64384653,8.48368654 2.00091296,8.05273438 C2.22508456,7.78217792 2.5962943,7.47338212 3.17926095,7.33090128 C3.6975874,7.83676066 4.35797564,8.37399725 5.09306154,8.89232369 L6.24168238,8.89232369 L6.24168238,8.77163404 C6.24168238,8.63543912 6.17416112,8.51621617 6.05153331,8.43601832 C5.87007977,8.31737159 5.58996348,8.3010282 5.33265984,8.38876916 C5.08735182,8.11559357 4.94982115,7.75064356 4.92012017,7.29737638 C7.41298491,7.51811692 9.79741753,8.52480693 12.4878959,9.93028616 L13.9682299,9.93028616 L13.9876115,9.83327346 C14.0152695,9.69514039 13.9399957,9.51007244 13.7863573,9.33820492 Z M1.81505927,7.89872935 C1.44945447,8.3400009 1.25566481,8.92291517 1.30005912,9.42337913 L0.326343991,9.42337913 C0.521993234,8.99997006 1.3013163,7.77599676 2.45281819,6.53971354 C2.61148527,6.73583423 2.78822438,6.93394546 2.98235453,7.13368056 C2.41698845,7.30360992 2.04632873,7.61963452 1.81505927,7.89872935 Z"/>
    </g>
  </g>
</svg>
