<!-- Copyright 2000-2023 JetBrains s.r.o. and contributors. Use of this source code is governed by the Apache 2.0 license. -->
<svg width="16" height="16" viewBox="0 0 16 16" fill="none" xmlns="http://www.w3.org/2000/svg">
<path fill-rule="evenodd" clip-rule="evenodd" d="M7.28545 12.552L6.86967 12.9678L1.91992 8.01811L4.04124 5.89679L6.86967 8.72521L12.5265 3.06836L14.6478 5.18968L12.052 7.78548C11.8713 7.76203 11.687 7.74994 11.4999 7.74994C9.1527 7.74994 7.24991 9.65273 7.24991 11.9999C7.24991 12.187 7.262 12.3713 7.28545 12.552Z" fill="#59A869"/>
<path fill-rule="evenodd" clip-rule="evenodd" d="M11.5 15.25C13.2949 15.25 14.75 13.7949 14.75 12C14.75 10.2051 13.2949 8.75 11.5 8.75C9.70507 8.75 8.25 10.2051 8.25 12C8.25 13.7949 9.70507 15.25 11.5 15.25ZM11.5 14.125C12.6736 14.125 13.625 13.1736 13.625 12C13.625 11.6221 13.5264 11.2672 13.3534 10.9598L10.4598 13.8534C10.7672 14.0264 11.1221 14.125 11.5 14.125ZM9.64659 13.0402L12.5402 10.1466C12.2328 9.97365 11.8779 9.875 11.5 9.875C10.3264 9.875 9.375 10.8264 9.375 12C9.375 12.3779 9.47365 12.7328 9.64659 13.0402Z" fill="#6E6E6E"/>
</svg>
