<!-- Copyright 2000-2021 JetBrains s.r.o. Use of this source code is governed by the Apache 2.0 license that can be found in the LICENSE file. -->
<svg xmlns="http://www.w3.org/2000/svg" width="16" height="16" viewBox="0 0 16 16">
  <g fill="none" fill-rule="evenodd">
    <path fill="#9AA7B0" fill-opacity=".8" d="M15,7.99963381 C14.6922704,7.76848911 14.3570028,7.57202485 14,7.41604369 L14,4 L2,4 L2,13 L7.10001812,13 C7.17061854,13.3478037 7.277321,13.6824976 7.41604369,14 L1,14 L1,1 L15,1 L15,7.99963381 Z"/>
    <path fill="#40B6E0" fill-opacity=".6" d="M13,7.10001812 C12.6768901,7.03443026 12.3424658,7 12,7 C9.23857625,7 7,9.23857625 7,12 L3,12 L3,5 L13,5 L13,7.10001812 Z"/>
    <path fill="#9AA7B0" fill-opacity=".8" d="M12,8 C9.792,8 8,9.792 8,12 C8,14.208 9.792,16 12,16 C14.208,16 16,14.208 16,12 C16,9.792 14.208,8 12,8 Z M11.6,15.172 C10.02,14.976 8.8,13.632 8.8,12 C8.8,11.752 8.832,11.516 8.884,11.284 L10.8,13.2 L10.8,13.6 C10.8,14.04 11.16,14.4 11.6,14.4 L11.6,15.172 Z M14.36,14.156 C14.256,13.832 13.96,13.6 13.6,13.6 L13.2,13.6 L13.2,12.4 C13.2,12.18 13.02,12 12.8,12 L10.4,12 L10.4,11.2 L11.2,11.2 C11.42,11.2 11.6,11.02 11.6,10.8 L11.6,10 L12.4,10 C12.84,10 13.2,9.64 13.2,9.2 L13.2,9.036 C14.372,9.512 15.2,10.66 15.2,12 C15.2,12.832 14.88,13.588 14.36,14.156 Z"/>
  </g>
</svg>
