<!-- Copyright 2000-2023 JetBrains s.r.o. and contributors. Use of this source code is governed by the Apache 2.0 license. -->
<svg xmlns="http://www.w3.org/2000/svg" width="16" height="16" viewBox="0 0 16 16">
  <g fill="none" fill-rule="evenodd" transform="translate(2 .5)">
    <path fill="#191919" d="M4.39001776,1.43460416 C4.26412232,1.68647575 4.18124877,1.99614471 4.17403282,2.37600668 C4.14343754,3.98724892 4.24326214,3.73805327 4.18167806,4.47739922 C4.15336647,4.81727324 4.11568792,4.94345877 3.94481994,5.35339472 C3.75890148,5.79944081 3.55956059,6.0533855 3.28294317,6.44417777 C2.93982241,6.92892322 2.46687953,7.59303058 2.20796182,8.12535267 C2.05995216,8.42741539 1.9364061,8.88794577 1.89037529,9.19356154 C1.85959789,9.39784817 1.85602438,9.66199157 1.86291772,9.90953999 C1.68043617,10.069996 1.58671008,10.3402482 1.39920325,10.5462776 C1.27825764,10.6788589 1.04448714,10.7219201 0.78539251,10.7727143 C0.563098982,10.8157753 0.327894269,10.9033551 0.245673112,11.0373859 C0.236492836,11.0523392 0.228197156,11.067843 0.220581834,11.0837746 C0.0333664009,11.4486068 0.262497979,12.074768 0.150748259,12.5379732 C0.103423075,12.7349052 0.0226309295,12.9202212 0.0211869582,13.0900544 C0.0206861213,13.1776367 0.0403070246,13.2705319 0.100550743,13.3760141 C0.166515515,13.4921442 0.311371855,13.5748761 0.517413551,13.646974 C0.709593123,13.7142324 0.959139984,13.7732655 1.24931447,13.8424574 L1.3497069,13.8661655 C1.48021329,13.8976215 1.6102403,13.9290683 1.74170869,13.9556849 C1.82727765,13.9735877 1.87700295,13.9822923 1.91953115,13.9900403 C2.10453445,14.0234259 2.17480967,14.0364886 2.66816068,14.2314803 C2.78719855,14.2784191 2.9191372,14.3287358 3.0587276,14.3717957 C3.33456254,14.4584073 3.64625285,14.5213114 3.93405064,14.4685733 C4.07986183,14.4419666 4.21753538,14.3858302 4.33991195,14.2890651 C4.46659507,14.1889128 4.58850137,14.0539108 4.67502907,13.9169845 C4.69815928,13.8804652 4.71955282,13.8426674 4.73827567,13.8037682 C4.75468816,13.7709422 4.76925861,13.7373084 4.78141984,13.7029781 C4.79302039,13.671686 4.80268329,13.6392194 4.80973078,13.6066304 C4.92580786,13.5480449 5.21303912,13.459648 5.89693125,13.4529513 C6.92761195,13.4427853 7.61409347,13.8192359 7.61409347,13.8192359 L7.61459431,13.8115017 C7.62319374,13.860858 7.63371262,13.9068152 7.64710773,13.9508474 C7.66670866,14.0151993 7.6929987,14.0742324 7.72837144,14.1313267 C7.76422941,14.1879392 7.80868616,14.2416477 7.86510056,14.2943937 C7.92628722,14.3514886 7.99990634,14.4042347 8.08404889,14.449234 C8.16245328,14.4908475 8.2504126,14.5256795 8.3469772,14.5513283 C8.43493652,14.5745578 8.53007016,14.5900419 8.63093481,14.5948793 C8.72511556,14.5997168 8.82358725,14.5953797 8.92637524,14.5803643 C9.09990417,14.5552053 9.23376096,14.4995619 9.34896645,14.4274641 C9.46130937,14.3573077 9.55309781,14.2731142 9.64679594,14.1869918 L9.64966957,14.1845744 C9.71133886,14.1279587 9.77396298,14.0703844 9.84327881,14.0176384 C9.8896446,13.9823147 9.93219817,13.9494083 9.97283426,13.9174836 C10.0330713,13.8705467 10.0665369,13.8439367 10.1004781,13.8168382 C10.2023047,13.7360358 10.3074635,13.6518443 10.4126406,13.5724883 C10.5216416,13.4907142 10.6373251,13.4074925 10.7630586,13.3262095 C10.8581897,13.2642777 10.9652718,13.1941192 11.0680553,13.1259005 C11.1741885,13.0552524 11.2850868,12.9812257 11.3897792,12.9086479 C11.5767722,12.7800965 11.8348496,12.6207653 11.9326136,12.4138052 C11.9652642,12.349783 11.9827968,12.2811575 11.9780577,12.2073911 C11.9627633,11.970789 11.6859644,11.7574053 11.4412113,11.5454694 C11.3221708,11.4419266 11.2021826,11.3393507 11.1395624,11.2343487 C11.0888907,11.149678 11.0276917,11.0219357 11.0104909,10.9290372 C10.962177,10.6714204 10.9632093,10.4789645 10.8426956,10.3087905 C10.7321004,10.1526181 10.6354311,10.1076935 10.4649676,10.0882012 C10.4394165,10.08528 10.4153945,10.0816511 10.3921095,10.0778208 C10.5028517,9.66517489 10.5396736,9.40224665 10.5073456,9.05751799 C10.3940934,7.84987151 9.63007579,6.9656322 9.21460492,6.36698618 C8.94339459,5.976203 8.62913375,5.57397231 8.4935494,5.30613754 C8.35796309,5.03830251 8.25701064,4.66570589 8.19093334,4.44987867 C8.12584926,4.23729186 8.09145868,3.73162204 8.08288396,2.91149583 C8.11347208,1.6549115 7.72912139,1.07477429 7.26397921,0.712846094 C6.79883117,0.350919547 6.11617097,0.356726085 5.86997712,0.37849665 L5.86997712,0.378490725 C5.66357248,0.396705609 4.79529497,0.607515702 4.39004898,1.43460706 L4.39001776,1.43460416 Z"/>
    <path fill="#FCC624" d="M1.29622143 10.7799459C1.05162244 10.8988931.48837867 10.896474.351739308 11.1334123.201736707 11.3940308.298717593 11.6827083.300147254 12.0153863.300648091 12.2508627.296800753 12.5129503.198876733 12.7919464.118609491 13.0216323.091380875 13.1028607.206508317 13.3049827.321640312 13.5075881.821347396 13.6047798 1.49733931 13.7682187 2.17381255 13.9311763 1.95835252 13.8107697 2.71556717 14.1100756 3.18469653 14.2957472 3.84683413 14.5235024 4.27584125 14.1845428 4.43397562 14.059302 4.69337661 13.7759594 4.70914907 13.4998572 4.71822658 13.3422209 4.70388898 13.1739501 4.66663257 13.0719245 4.54289529 12.731494 4.29542983 12.5859571 4.06039423 12.2300738 3.62994834 11.5690744 3.1727584 10.9424146 2.80728926 10.3921492 2.54931338 10.0029043 2.34197667 9.90860996 2.16664473 9.93955597 1.62776049 10.0357767 1.80166017 10.5343 1.29621362 10.7799459L1.29622143 10.7799459zM8.1505932 10.217185C7.91322969 10.3869119 7.96464027 10.8956217 7.9507131 11.1635866 7.92957193 11.5735681 7.92667878 12.0307179 7.91275747 12.2126035 7.88968515 12.5136381 7.66433652 13.1935338 7.69173425 13.5145125 7.7186422 13.835009 7.74170021 14.02273 7.93870212 14.2065648 8.13618016 14.3903971 8.48358664 14.52754 8.91266727 14.4648017 9.3417518 14.4020602 9.50414654 14.132147 9.78236338 13.9210866 10.0600839 13.7100183 10.3459896 13.4595571 10.7130848 13.2212527 11.0801755 12.9824643 11.6711969 12.5914489 11.7562403 12.4859194 11.8412863 12.3798992 11.8989469 12.2884761 11.8374461 12.1493791 11.7764227 12.0102828 11.5621257 11.7953257 11.3281178 11.5998188 10.7178948 11.0891707 10.9813415 10.6144973 10.7265417 10.3635637 10.6488099 10.2787915 10.5910413 10.232073 10.5008198 10.2134792 10.0138014 10.1130902 9.88000706 10.3067028 9.59404091 10.2782566 9.2856997 10.2475916 9.40161807 10.3162029 8.76864935 10.230713 8.55076513 10.2056625 8.30100168 10.1183399 8.1505932 10.2171644L8.1505932 10.217185z"/>
    <path fill="#F5F5F5" d="M4.17146945,6.3210597 C3.9539111,6.8025881 3.96457958,6.63897234 3.81837488,7.14229062 C3.61532975,7.32877118 3.39272857,7.82979978 3.24617849,8.26107067 C3.0590229,8.8878642 2.91841066,9.53232645 3.09319298,10.2819893 C3.16251921,10.3582003 3.21879962,10.4302695 3.2819441,10.4908034 C3.38224091,10.5869517 3.49023305,10.6648984 3.62215805,10.7663931 C4.0890382,11.1255308 4.4162421,11.3151641 4.4806263,11.5487202 C4.5663299,11.8596126 4.37422123,12.0652106 4.1346794,12.1916262 C4.30982401,12.3689903 4.86893165,12.7323582 5.88846515,12.6869462 C6.78634603,12.6469569 7.34939792,12.3030141 7.83004068,11.7095872 C7.8331153,11.5730326 7.84788153,11.3445154 7.85456608,11.097852 C7.86094687,10.862285 7.86228742,10.6263776 7.89790993,10.4434219 C7.90629082,10.4003637 7.92233711,10.3595955 7.93670007,10.3237376 C7.99533897,10.1773318 8.15316568,10.077595 8.30419012,10.0704063 C8.38359163,10.0666251 8.46693675,10.0608103 8.54662055,10.0775421 C8.66844814,9.11398499 8.57198045,8.44869161 8.09085312,7.42822104 C8.05358045,7.35665283 7.87532804,7.05311784 7.76891711,6.96744948 C7.68575868,6.55566802 7.67479295,6.57587124 7.50843119,6.19890444 C7.25611672,5.62721411 7.16468017,4.96641474 7.08775097,4.57809531 C7.03519757,4.6056576 6.94346246,4.64434856 6.80346229,4.75412879 C6.70170264,4.83440832 6.51345236,5.00124027 6.3691619,5.10230839 C6.27494407,5.1683276 6.17182956,5.22541139 6.07038212,5.27010962 C5.92438882,5.33445685 5.7818682,5.37316954 5.67445755,5.3760233 C5.28941805,5.39663111 5.1062607,5.30011059 4.93070436,5.11493925 C4.85707223,5.03726885 4.80129331,4.95217536 4.70840562,4.84834881 C4.66724919,4.80235202 4.61030468,4.74124216 4.55224663,4.69924924 C4.55066477,4.75028397 4.38902129,5.83953186 4.17146945,6.3210597 Z M5.89949137,3.44503321 C5.88755324,3.33767106 5.88420284,3.14133814 5.95778683,2.89422718 C6.07149502,2.51508774 6.48240177,2.26121315 6.83022909,2.44013304 C7.17806422,2.61906366 7.24232224,3.08360509 7.15894591,3.3454133 C7.10770379,3.50632391 6.98608888,3.69456211 6.89424581,3.81256385 C6.82305672,3.78306401 6.73513903,3.75066643 6.62573544,3.71246494 C6.68880056,3.67571154 6.74517918,3.6176802 6.7867519,3.54078729 C6.90189625,3.32849021 6.86080681,3.05235762 6.69596838,2.92372755 C6.53065773,2.79508661 6.30370057,2.86327813 6.18902908,3.07557502 C6.10876834,3.22355666 6.1044644,3.40296583 6.16514697,3.54127716 C6.06719758,3.50307548 5.98168131,3.47018835 5.89949137,3.44504414 L5.89949137,3.44503755 L5.89949137,3.44503321 Z M4.62380386,2.53394865 C4.94965876,2.41885471 5.14459098,2.6949873 5.22390728,3.09006957 C5.24780175,3.21145793 5.24970819,3.3328357 5.2353745,3.44406394 C5.22629699,3.44696062 5.21722664,3.45083705 5.2076574,3.45470353 C5.16943054,3.46969855 5.12834045,3.48855946 5.08296593,3.51225606 C5.09012529,3.48662164 5.09538668,3.45905942 5.09872473,3.43004872 C5.12452628,3.20905099 5.02132591,2.98031061 4.86795079,2.91986185 C4.71458088,2.85941244 4.56932907,2.98998099 4.54353012,3.2109786 C4.51869056,3.42327561 4.61280822,3.64234521 4.75566837,3.71294421 C4.7375075,3.72552136 4.71887442,3.73857876 4.70024719,3.75211484 C4.67635271,3.76855833 4.652468,3.78645004 4.6290568,3.80482115 C4.51581172,3.69407237 4.43985753,3.51563215 4.39685255,3.32800067 C4.31896851,2.98755258 4.40305643,2.61179996 4.62379671,2.53394865 L4.62380386,2.53394865 Z"/>
    <path fill="#FCC624" d="M4.51804532,4.55910398 C4.52355388,4.56500308 4.5214985,4.57544847 4.52763082,4.58162835 C4.59972142,4.6543019 4.6830997,4.72553752 4.7557952,4.8088876 C4.83937577,4.90472693 4.9159778,5.01192687 4.98711875,5.07761349 C5.11792629,5.19839704 5.24219758,5.26294533 5.42374185,5.28562361 C5.774355,5.32942504 6.03649758,5.23102148 6.33216827,5.03365241 C6.4712923,4.9407507 6.66394019,4.7694674 6.77532826,4.68478945 C6.96080768,4.54349664 7.01387102,4.55462512 7.0688473,4.48350833 C7.12573782,4.40948202 7.15346142,4.2159398 7.13673282,4.12448881 C7.12334876,4.05384161 7.09897037,4.00691426 7.02343441,3.95852493 C6.9392899,3.90481953 6.79444657,3.84821007 6.5434655,3.76208371 L6.54296466,3.76160379 L6.54248334,3.76160379 L6.5419825,3.76112583 L6.54102441,3.76112583 L6.54052357,3.76064327 L6.54002273,3.76064327 L6.5395219,3.76064327 L6.53856445,3.76016532 L6.53806361,3.76016532 L6.53756278,3.75968276 L6.53660533,3.75968276 L6.5361045,3.75920678 L6.53560366,3.75920678 L6.53510282,3.75920678 L6.53416619,3.75872422 L6.53366536,3.75872422 L6.53316452,3.75824429 L6.53220708,3.75824429 L6.53170624,3.75776173 L6.5312054,3.75776173 L6.53070456,3.75728575 L6.52976793,3.75728575 L6.5292671,3.75728575 L6.52876626,3.75680582 L6.52826542,3.75680582 L6.52732879,3.75632326 L6.52682796,3.75632326 L6.52632712,3.75584728 L6.52582628,3.75584728 L6.52488965,3.75584728 L6.52438882,3.75536735 L6.52390749,3.75536735 L6.52295005,3.75488479 L6.52244921,3.75488479 L6.52194837,3.75440881 L6.52144754,3.75440881 L6.52048944,3.75393086 L6.51998861,3.75393086 L6.51948777,3.75393086 L6.51898693,3.75344896 L6.51803014,3.75344896 L6.5175293,3.75297101 L6.51702847,3.75297101 L6.51652763,3.75249108 L6.51602679,3.75249108 L6.51552595,3.75249108 L6.51502512,3.75249108 L6.51452428,3.75201115 L6.51402344,3.75201115 L6.51306665,3.75153122 L6.51256581,3.75153122 L6.51206498,3.75105327 L6.51156414,3.75105327 L6.51062751,3.75105327 L6.51012667,3.75057071 L6.50962584,3.75057071 L6.509125,3.75009275 L6.50862416,3.75009275 L6.50812333,3.75009275 L6.50762249,3.74961283 L6.50712165,3.74961283 L6.50662081,3.74961283 L6.50566337,3.74913487 L6.50516253,3.74913487 L6.5046617,3.74865494 L6.50416086,3.74865494 L6.50177115,3.74768804 L6.49555687,3.7452651 L6.49462024,3.7452651 L6.49030784,3.74382005 L6.48889249,3.74333749 L6.48554144,3.74188611 L6.48219103,3.74091704 L6.48123359,3.74044106 L6.47645742,3.73898759 L6.47549998,3.73851161 L6.46928765,3.73609189 L6.46787165,3.73561393 L6.46308703,3.73416678 L6.46258619,3.73368882 L6.45637321,3.7317572 L6.45445833,3.73078819 L6.44967566,3.72934103 L6.44346984,3.72692381 L6.43726141,3.72450106 L6.43676057,3.72450106 L6.43245468,3.72305608 L6.43056125,3.72257352 L6.42768697,3.72112215 L6.42433591,3.72015525 L6.42337912,3.71967729 L6.41906867,3.71823007 L6.41811058,3.71774751 L6.41190085,3.71532963 L6.4104855,3.71485168 L6.4061796,3.71340024 L6.40567876,3.71340024 L6.40233161,3.71195308 L6.39946774,3.71098408 L6.39805238,3.71050152 L6.39374454,3.70857614 L6.38753611,3.70663602 L6.38514055,3.70566497 L6.38131728,3.70421775 L6.38081644,3.70421775 L6.37699317,3.7022798 L6.37557782,3.70180185 L6.36936094,3.69985758 L6.36840414,3.69937765 L6.36457437,3.6979326 L6.36363774,3.69745004 L6.36029319,3.69648103 L6.357415,3.69551203 L6.35645756,3.69503407 L6.35215361,3.69309612 L6.35165277,3.69309612 L6.34830237,3.69164475 L6.34591331,3.69067364 L6.34401924,3.69019766 L6.34019597,3.68874629 L6.33969513,3.68874629 L6.33395502,3.68632901 L6.32822336,3.68438889 L6.32772253,3.68390896 L6.32390056,3.68245759 L6.32246504,3.68198161 L6.32007598,3.68101477 L6.31673338,3.68004366 L6.31623255,3.6795611 L6.31192665,3.67811598 L6.31096856,3.67763803 L6.30810728,3.67666692 L6.3052291,3.6756958 L6.30429247,3.67521982 L6.30046919,3.67376839 L6.29953256,3.67328846 L6.29666674,3.67231734 L6.29427703,3.67135044 L6.29236279,3.67087052 L6.28853952,3.6689325 L6.28471625,3.66747902 L6.28280136,3.66700107 L6.27753412,3.66458366 L6.27703328,3.66458366 L6.27321196,3.66313222 L6.27177644,3.66265624 L6.26938739,3.6616873 L6.26652156,3.66071408 L6.26602072,3.66023415 L6.26219875,3.65879121 L6.26078405,3.65830865 L6.25551616,3.6563707 L6.25455871,3.65588814 L6.2507439,3.6544367 L6.25024306,3.6544367 L6.24690046,3.65298954 L6.24498557,3.65201843 L6.24357022,3.6515385 L6.23975345,3.65009134 L6.23925262,3.65009134 L6.23829517,3.64960878 L6.23733773,3.64913083 L6.23590156,3.64865485 L6.23496493,3.64817492 L6.23400814,3.64817492 L6.23400814,3.64769236 L6.23257132,3.64769236 L6.23161453,3.64721243 L6.23019918,3.64673448 L6.22924173,3.64625455 L6.2287409,3.64577199 L6.22682601,3.64529404 L6.22586856,3.64481806 L6.22445386,3.6443355 L6.22349577,3.64385293 L6.2220596,3.64337498 L6.22110216,3.642899 L6.22016618,3.64241644 L6.21872936,3.64193651 L6.21822852,3.64193651 L6.21772769,3.64145856 L6.21631234,3.64145856 L6.21535554,3.64098258 L6.21439745,3.64050002 L6.21296193,3.64002207 L6.2120253,3.63954609 L6.21058914,3.63906814 L6.20963234,3.63858558 L6.20771745,3.63810762 L6.20721662,3.63763164 L6.20625917,3.63714908 L6.20482366,3.63666915 L6.20386556,3.63618923 L6.20290877,3.63571325 L6.20242745,3.63571325 L6.20147,3.63571325 L6.20051256,3.63522871 L6.19955576,3.63474878 L6.1981196,3.63427083 L6.19761876,3.63379485 L6.19711792,3.63379485 L6.19616113,3.63331229 L6.19472431,3.63283236 L6.19378833,3.63235441 L6.19237298,3.63187843 L6.19141489,3.63139587 L6.19045809,3.63091594 L6.18904274,3.63091594 L6.1880853,3.63043601 L6.18712785,3.62995806 L6.18569169,3.62947813 L6.18473489,3.62900018 L6.1837768,3.6285242 L6.18234128,3.62804164 L6.18138384,3.62756171 L6.1804264,3.62708573 L6.17899023,3.6266012 L6.17803344,3.62612127 L6.17709681,3.62612127 L6.17566064,3.62564529 L6.1747032,3.62516273 L6.17374575,3.62468675 L6.17278831,3.6242088 L6.17228747,3.6242088 L6.17135084,3.6237269 L6.1703934,3.62324894 L6.16943595,3.62277297 L6.16802125,3.6222904 L6.16706316,3.6222904 C5.91226596,3.52213448 5.74686165,3.45729297 5.51453122,3.46503232 C5.43373778,3.46744927 5.35151207,3.47664717 5.2358246,3.52309289 L5.23008384,3.52551267 L5.22434438,3.5274443 L5.22434438,3.52792225 L5.21956756,3.52986231 L5.21861012,3.52986231 L5.21861012,3.53033829 L5.21810928,3.53033829 L5.21284204,3.53228256 L5.21284204,3.53275853 L5.20854004,3.53420359 L5.20567162,3.53565713 L5.20232967,3.53710429 L5.20137222,3.53758224 L5.20087139,3.53758224 L5.19610108,3.53952229 L5.19514428,3.54000222 L5.19466296,3.54048018 L5.18940612,3.54289733 L5.18890529,3.54289733 L5.18412067,3.54531711 L5.18318404,3.54531711 L5.1826832,3.54579507 L5.17933215,3.5472465 L5.17837535,3.54772906 L5.17646047,3.54869386 L5.1716817,3.5511168 L5.17118086,3.5511168 L5.17022277,3.55159476 L5.16687237,3.55304192 L5.16497829,3.55401303 L5.16404166,3.55449296 L5.16069126,3.55594011 L5.15973381,3.55642004 L5.15781893,3.55738905 L5.15446787,3.55884049 L5.15255298,3.55981153 L5.15111747,3.56078054 L5.14777682,3.56222559 L5.14727598,3.56222559 L5.14488628,3.56367696 L5.14153587,3.56512629 L5.13818547,3.56705588 L5.13484287,3.56850304 L5.13149247,3.57043677 L5.12814727,3.57187978 L5.12764643,3.57236235 L5.12525672,3.57333135 L5.12475589,3.57381326 L5.12140548,3.57525837 L5.11806288,3.57720053 L5.11471183,3.57864565 L5.11185056,3.58058781 L5.11134972,3.58058781 L5.10799866,3.58252583 L5.10749783,3.58252583 L5.10510877,3.5839772 L5.10460793,3.5839772 L5.10078466,3.58591515 L5.09792339,3.58785533 L5.09742255,3.58785533 L5.094078,3.58979328 L5.09072695,3.5917334 L5.08690563,3.59366082 L5.08355457,3.59511225 L5.08355457,3.59559021 L5.0797313,3.59752822 L5.07638675,3.59897966 L5.07638675,3.59945564 L5.07256543,3.60139569 L5.06970416,3.60284291 L5.06920332,3.60332745 L5.0653807,3.60525282 L5.06203875,3.60719288 L5.05821483,3.60912879 L5.05439155,3.61154857 C5.04721983,3.61541973 5.03956938,3.61977496 5.03192479,3.624135 L5.02810152,3.62654991 L5.0242802,3.62849418 L5.02189309,3.62994141 L5.01758525,3.63285086 L5.01519554,3.63429809 L5.0146947,3.63429809 L5.01419387,3.63477406 L5.01037515,3.63671419 L5.00798609,3.63816766 L5.0060712,3.63961278 L5.00128593,3.64251493 L4.99889883,3.64395991 L4.99412071,3.64637977 L4.99172515,3.64782692 L4.98455928,3.65218762 L4.98217022,3.65363267 L4.97739146,3.65653166 L4.97499785,3.65847178 L4.96973646,3.66137117 L4.96734675,3.66281622 L4.96113507,3.66668678 L4.96063424,3.66716473 L4.9601334,3.66716473 L4.95774434,3.66861406 L4.95248946,3.67200049 L4.95009975,3.67345396 L4.94532164,3.67635065 L4.9448208,3.67683519 L4.94431996,3.67683519 L4.94431996,3.67730919 L4.94381913,3.67730919 L4.94331829,3.67778714 L4.94281745,3.67778714 L4.94281745,3.67827168 L4.94231662,3.67827168 L4.94181578,3.67874766 L4.94085768,3.67922363 L4.94035685,3.67922363 L4.93796779,3.68115322 L4.93746695,3.68115322 L4.93696612,3.68162723 L4.93646528,3.68210979 L4.93596444,3.68210979 L4.93546361,3.68210979 L4.93546361,3.68259235 L4.93496277,3.68259235 L4.93446193,3.68306635 L4.9339611,3.68306635 L4.9339611,3.68355089 L4.93346026,3.68355089 L4.9277286,3.68741882 L4.92722777,3.68741882 L4.92672693,3.68789875 L4.92433787,3.6893459 L4.91907063,3.69273213 L4.91668092,3.69418561 L4.91618009,3.69466554 L4.91140197,3.69756499 L4.90852964,3.69950511 L4.90613343,3.70095226 L4.90326175,3.70289238 L4.90087269,3.70433954 L4.89800686,3.70627749 L4.89274352,3.70966628 L4.88987769,3.71160634 L4.88461565,3.71499553 L4.8822266,3.71693354 L4.87936077,3.7183807 L4.87650144,3.72032082 L4.87411174,3.72225462 L4.87124396,3.7236996 L4.86837813,3.72562498 L4.86552271,3.7275651 L4.86313365,3.72950522 L4.86121876,3.73047416 L4.85787422,3.73289145 L4.85595933,3.73386256 L4.85406525,3.73531393 L4.85215102,3.73628294 L4.85071485,3.7377301 L4.84879996,3.73869904 L4.84688507,3.74014626 L4.84497018,3.74111737 L4.84353467,3.74256453 L4.83971335,3.74498498 L4.83781993,3.74595392 L4.83640457,3.74740107 L4.83448969,3.74837225 L4.8325748,3.74981941 L4.83207396,3.74981941 L4.83063779,3.75078835 L4.82872291,3.75223979 L4.82730755,3.75320873 L4.82539267,3.75465589 L4.82347778,3.75610311 L4.82156289,3.75707212 L4.81964865,3.75852777 L4.81773376,3.7594946 L4.81581953,3.76093965 L4.81438271,3.7623932 L4.81296801,3.76286918 L4.81246717,3.7633491 L4.81055228,3.76480054 L4.80673096,3.76721756 L4.80481607,3.76866893 L4.80290184,3.76963794 L4.80098695,3.7710851 L4.79907206,3.77253226 L4.79717799,3.77350126 L4.7952631,3.77495263 L4.7919127,3.77784971 L4.78999781,3.77882089 L4.78808357,3.78026805 L4.78616868,3.78171942 L4.78425379,3.78268843 L4.78375296,3.78316638 L4.78231679,3.78413328 L4.78040255,3.78558676 L4.77848766,3.78703188 L4.77657343,3.78800299 L4.77465854,3.78945015 L4.77370109,3.78993271 L4.77274365,3.79089961 L4.77082876,3.79235098 L4.76844166,3.79379814 L4.76509711,3.79621766 L4.76459627,3.79621766 L4.76365964,3.79718673 L4.7627022,3.79766469 L4.76078731,3.79911191 L4.75887307,3.80056328 L4.7550511,3.8029807 L4.75361558,3.80443207 L4.75313426,3.80443207 L4.75124019,3.80587719 L4.74311102,3.81168879 C4.62455577,3.89540004 4.50312169,4.00667903 4.43285297,4.12088105 C4.3912009,4.18845196 4.32527385,4.32787081 4.38677402,4.40803322 C4.38698216,4.40824323 4.54385339,4.48960085 4.70136334,4.58387558 C4.95600052,4.73627843 5.24687683,4.81499532 5.50657962,4.80035455 C5.71313842,4.7887108 5.94369576,4.72267638 6.11018175,4.64157347 C6.27773575,4.55994139 6.48376639,4.43120209 6.68458507,4.27436614 C6.71566428,4.25113841 6.77485865,4.19230199 6.81187114,4.17455294 C6.8445049,4.15890452 6.94970146,4.16798102 6.94486871,4.2041412 C6.94108901,4.23245643 6.81754491,4.28299233 6.77301466,4.31646946 C6.55333979,4.48160876 6.30876748,4.64335395 6.1498051,4.71750955 C5.98557222,4.79412313 5.70916294,4.88258158 5.52234103,4.89374046 C5.35167077,4.90393324 5.20674224,4.88476917 5.05837093,4.83399165 C4.9149358,4.78489975 4.8299028,4.74227061 4.67717161,4.65299016 C4.62846165,4.62451469 4.58163405,4.60074581 4.51571351,4.55908318 L4.51804532,4.55910398 Z"/>
    <path fill="#191919" d="M10.1297432,10.1470729 C10.1381325,10.1311338 10.1551194,10.0672112 10.156402,10.05423 C10.188492,9.73051418 9.56631926,9.6576736 9.08204641,9.67402289 C8.86229869,9.68144018 8.69104434,9.70767157 8.5887702,9.73823331 C8.41058934,9.79147544 8.32285898,9.91361227 8.3031182,10.0664111 C8.26315467,10.3757406 8.35384257,11.0291994 8.6570785,11.1721657 C8.97065833,11.3200063 9.44553821,11.1089794 9.72586053,10.790665 C9.91568746,10.5751228 10.0365667,10.3241713 10.1297432,10.1470729 Z"/>
  </g>
</svg>
