<svg width="16" height="16" viewBox="0 0 16 16" fill="none" xmlns="http://www.w3.org/2000/svg">
<g clip-path="url(#clip0_1081_1702)">
<rect width="16" height="16" fill="#202124"/>
<path fill-rule="evenodd" clip-rule="evenodd" d="M11.38 4.43307C11.518 4.19392 11.8238 4.11198 12.063 4.25005C12.3021 4.38813 12.3841 4.69392 12.246 4.93307L11.124 6.87648C12.7149 7.84862 13.8179 9.54096 13.9794 11.5002C14.0021 11.7754 13.7761 12.0001 13.5 12.0001C13.2238 12.0001 13.0026 11.7755 12.9754 11.5008C12.7248 8.97376 10.5929 7.00005 7.99997 7.00005C5.40706 7.00005 3.27513 8.97376 3.02459 11.5008C2.99734 11.7755 2.77611 12.0001 2.49997 12.0001C2.22383 12.0001 1.9978 11.7754 2.02049 11.5002C2.18198 9.54216 3.28365 7.8507 4.87304 6.87828L3.74997 4.93307C3.6119 4.69392 3.69384 4.38813 3.93298 4.25005C4.17213 4.11198 4.47792 4.19392 4.61599 4.43307L5.76825 6.42883C6.45811 6.15223 7.21127 6.00005 7.99997 6.00005C8.78744 6.00005 9.53948 6.15176 10.2285 6.42754L11.38 4.43307Z" fill="white"/>
<path d="M2.5 11.5H13.5" stroke="white"/>
<rect x="5" y="9" width="1" height="1" rx="0.5" fill="white"/>
<rect x="10" y="9" width="1" height="1" rx="0.5" fill="white"/>
</g>
<defs>
<clipPath id="clip0_1081_1702">
<rect width="16" height="16" fill="white"/>
</clipPath>
</defs>
</svg>
