<svg width="128" height="128" fill="none" xmlns="http://www.w3.org/2000/svg"><path opacity=".2" d="M49.853 123.492c-1.978-.469-3.634-1.566-5.95-3.943-3.871-3.971-7.013-5.624-12.472-6.564-5.664-.975-8.18-3.08-9.694-8.108-1.867-6.206-3.82-9.178-8.108-12.346-4.866-3.594-6.114-6.764-4.927-12.507 1.1-5.32.679-9.101-1.555-13.964C4.48 60.26 4.81 57.16 8.597 52.405c3.47-4.357 4.56-7.238 5.079-13.431.524-6.25 2.263-8.815 7.385-10.89 4.274-1.732 7.93-4.739 9.958-8.188 2.344-3.99 2.686-4.447 4.139-5.53 2.344-1.749 4.239-2.233 7.848-2.007 6.27.393 9.63-.36 13.84-3.1 5.49-3.574 8.818-3.574 14.307 0 4.21 2.74 7.57 3.493 13.84 3.1 5.929-.372 8.396 1.184 12.01 7.577 1.79 3.167 5.451 6.25 9.458 7.965 5.706 2.442 7.364 4.67 7.785 10.463.456 6.273 1.742 9.78 5.149 14.041 3.794 4.745 4.125 7.848 1.457 13.655-2.233 4.863-2.655 8.645-1.555 13.964 1.188 5.743-.061 8.913-4.926 12.507-4.289 3.167-6.241 6.14-8.109 12.346-1.513 5.028-4.03 7.133-9.694 8.108-5.47.942-8.615 2.6-12.47 6.577-4.275 4.407-7.339 5.135-13.314 3.159-4.887-1.615-8.65-1.622-13.517-.024-3.41 1.119-5.227 1.314-7.414.795Z" fill="#000"/><path d="M49.853 122.321c-1.978-.47-3.634-1.567-5.95-3.944-3.871-3.97-7.013-5.624-12.472-6.563-5.664-.975-8.18-3.081-9.694-8.108-1.867-6.207-3.82-9.18-8.108-12.347-4.866-3.594-6.114-6.763-4.927-12.507 1.1-5.32.679-9.101-1.555-13.964-2.666-5.801-2.337-8.901 1.45-13.655 3.47-4.357 4.56-7.237 5.079-13.431.524-6.25 2.263-8.815 7.385-10.89 4.274-1.732 7.93-4.739 9.958-8.188 2.344-3.99 2.686-4.446 4.139-5.53 2.344-1.749 4.239-2.233 7.848-2.007 6.27.393 9.63-.36 13.84-3.1 5.49-3.574 8.818-3.574 14.307 0 4.21 2.74 7.57 3.493 13.84 3.1 5.929-.372 8.396 1.184 12.01 7.577 1.79 3.167 5.451 6.25 9.458 7.965 5.706 2.442 7.364 4.67 7.785 10.463.456 6.273 1.742 9.78 5.149 14.041 3.794 4.745 4.125 7.848 1.457 13.655-2.233 4.863-2.655 8.645-1.555 13.964 1.188 5.743-.061 8.913-4.926 12.507-4.289 3.168-6.241 6.14-8.109 12.347-1.513 5.027-4.03 7.133-9.694 8.108-5.47.941-8.615 2.6-12.47 6.576-4.275 4.408-7.339 5.135-13.314 3.16-4.887-1.616-8.65-1.623-13.517-.025-3.41 1.119-5.227 1.314-7.414.796Z" fill="#202124"/><path d="M90.889 99.005a1.511 1.511 0 0 1-2.76 1.172l-3.469-5.966 4.347-1.845 1.882 6.64Z" fill="#fff"/><mask id="a" style="mask-type:alpha" maskUnits="userSpaceOnUse" x="78" y="51" width="21" height="26"><path d="M88.286 75.566a12.438 12.438 0 0 0 3.335-3.32 12.494 12.494 0 0 0 1.381-2.666c.226-.602.405-1.222.536-1.854l.028.004 1.482.257 1.447.251 1.04.18a1.145 1.145 0 0 0 1.132-1.784 1.143 1.143 0 0 0-.74-.468l-1.04-.18-1.447-.251-1.482-.257c-.054-.01-.108-.02-.162-.028l.002-.123a12.473 12.473 0 0 0-.778-4.46l-.045-.12a12.478 12.478 0 0 0-2.33-3.848l.098-.119.96-1.156.936-1.13.673-.812a1.14 1.14 0 0 0-.162-1.617 1.139 1.139 0 0 0-.827-.25 1.146 1.146 0 0 0-.774.41l-.673.81-.937 1.131-.96 1.157-.008.009a12.575 12.575 0 0 0-7.484-2.645 12.492 12.492 0 0 0-3.253.372l8.625 23.336c.492-.245.97-.52 1.427-.829Z" fill="#fff"/></mask><g mask="url(#a)"><path d="m100.878 71.373-9.199-24.921-14.021 5.175 9.199 24.921 14.021-5.175Z" fill="#4FAF53"/><g opacity=".8" filter="url(#b)"><path d="M92.338 62.087c-.83 3.113-3.588-3.769-8.386-5.049-4.8-1.28-10.617 3.314-9.787.2 1.528-2.296 5.685-4.094 10.484-2.814 4.799 1.28 7.696 5.28 7.689 7.663Z" fill="url(#c)" fill-opacity=".3"/></g><g opacity=".7" filter="url(#d)"><path d="M91.712 60.392c-2.654-1.827-.28 5.195-3.096 9.286-2.816 4.09-10.223 4.38-7.57 6.206 2.655.753 6.983-.58 9.8-4.672 2.816-4.09 2.42-9.014.866-10.82Z" fill="url(#e)" fill-opacity=".4"/></g><g opacity=".6" filter="url(#f)"><path d="M81.368 51.545c-3.335.153-6.024.59-6.007.977.018.387 2.736.577 6.07.424 3.336-.153 8.035 2.559 8.017 2.172-.018-.387-4.745-3.726-8.08-3.573Z" fill="#8BD8A0"/></g><g opacity=".5" filter="url(#g)"><path d="M90.167 75.383c-2.634 2.05-4.963 3.465-5.2 3.16-.238-.306 1.704-2.216 4.34-4.267 2.633-2.05 4.443-7.165 4.681-6.86.238.306-1.186 5.916-3.82 7.967Z" fill="#8BD8A0"/></g><g opacity=".7" filter="url(#h)"><path d="M91.082 53.36c-1.196 1.51-1.78 2.192-1.914 2.086-.133-.106.234-.96 1.43-2.47.724-1.879 2.968-1.001 3.101-.895.134.105-1.088-.872-2.617 1.279Z" fill="#0D652D"/></g><g opacity=".1" filter="url(#i)"><path d="M88.934 55.325c.115.085 1.003-.917 1.982-2.238.98-1.32 1.681-2.46 1.566-2.546-.114-.085-1.002.917-1.982 2.238-.98 1.32-1.68 2.46-1.566 2.546Z" fill="#000"/></g><g opacity=".3" filter="url(#j)"><path d="M92.3 54.242c-1.252 1.579-1.815 2.331-1.708 2.416.107.085.843-.53 2.094-2.11 1.806-1.743-.11-2.977-.284-2.722-.51.562 1.697.324-.102 2.416Z" fill="#fff"/></g><path opacity=".15" d="M91.666 50.808c-.547.404-.605 1.252-.13 1.896.474.644 1.302.84 1.85.436.547-.404.606-1.253.13-1.897-.474-.644-1.302-.839-1.85-.435Z" fill="url(#k)" fill-opacity=".9"/><path opacity=".15" d="M97.346 65.648c-.547.403-.606 1.252-.13 1.896.474.644 1.302.839 1.85.436.547-.404.605-1.253.13-1.897-.474-.644-1.302-.839-1.85-.435Z" fill="url(#l)" fill-opacity=".9"/><g opacity=".1" filter="url(#m)"><path d="M93.408 67.692c.03-.14 1.358.024 2.967.366 1.609.341 2.888.732 2.859.871-.03.14-1.358-.023-2.967-.365-1.609-.341-2.889-.732-2.859-.872Z" fill="#000"/></g><mask id="n" style="mask-type:alpha" maskUnits="userSpaceOnUse" x="93" y="64" width="3" height="6"><path d="M93.452 67.88c.14-.68.267-2.162.312-2.817l1.452-.114-.12 4.17c-.607-.13-1.785-.559-1.644-1.24Z" fill="#000"/></mask><g mask="url(#n)"><g style="mix-blend-mode:multiply" opacity=".3" filter="url(#o)"><path d="M93.788 68.174c.053-1.143-.02-2.076-.163-2.082-.143-.007-.213.871-.266 2.015-.053 1.143-.069 2.119.074 2.125.143.007.301-.915.355-2.058Z" fill="#0D652D"/></g><g style="mix-blend-mode:screen" opacity=".3" filter="url(#p)"><path d="M93.83 65.858c.033-.325.008-.595-.055-.601-.064-.007-.103.243-.137.568-.033.326-.049.604.015.61.063.007.142-.251.176-.577Z" fill="#81C995"/></g></g><mask id="q" style="mask-type:alpha" maskUnits="userSpaceOnUse" x="88" y="53" width="4" height="5"><path d="M88.634 55.16c.557.415 1.637 1.437 2.107 1.897l1.16-.881-2.864-3.034c-.367.5-.961 1.604-.403 2.019Z" fill="#000"/></mask><g mask="url(#q)"><g style="mix-blend-mode:multiply" opacity=".3" filter="url(#r)"><path d="M88.688 54.718c.8.818 1.367 1.563 1.264 1.663-.102.1-.739-.51-1.54-1.328-.8-.818-1.46-1.536-1.358-1.636.103-.1.834.483 1.634 1.301Z" fill="#0D652D"/></g><g style="mix-blend-mode:screen" opacity=".3" filter="url(#s)"><path d="M90.26 56.418c.241.221.402.438.36.485-.044.048-.239-.112-.48-.333-.242-.22-.439-.418-.396-.466.043-.047.274.094.516.314Z" fill="#81C995"/></g></g><g opacity=".7" filter="url(#t)"><path d="M96.376 67.906c-1.898-.326-2.788-.445-2.817-.277-.03.168.814.56 2.713.885 1.793.917 2.878-1.233 2.907-1.401.029-.168-.229 1.375-2.803.793Z" fill="#0D652D"/></g><g opacity=".3" filter="url(#u)"><path d="M96.683 66.384c-1.932-.331-2.827-.513-2.803-.654.024-.14.959-.187 2.89.144 3.154.027 3.555 2.239 1.917 2.456-.72-.039.659-1.606-2.004-1.946Z" fill="#fff"/></g></g><path d="M85.288 57.753c-.152.388-.103.77.11.853.213.084.508-.163.66-.55.153-.388.104-.77-.109-.853-.213-.084-.508.163-.66.55Z" fill="url(#v)" fill-opacity=".7"/><path d="M89.14 68.231c-.367-.195-.577-.518-.47-.72.108-.2.492-.206.86-.01.367.195.578.517.47.719-.107.202-.492.207-.86.011Z" fill="url(#w)" fill-opacity=".7"/><g style="mix-blend-mode:multiply" opacity=".09" filter="url(#x)"><path d="M84.288 58.885c1 .03 1.405-.54 1.483-.828.57-.96-.388-1.614-.834-1.751-.446-.137-1.2-.295-1.904.39-.704.687.003 2.152 1.255 2.19Z" fill="#011B04"/></g><g style="mix-blend-mode:multiply" opacity=".09" filter="url(#y)"><path d="M87.645 68.022c.737-.671 1.412-.5 1.657-.33 1.054.36.753 1.48.506 1.873-.249.393-.716 1.002-1.692.936-.977-.066-1.392-1.64-.47-2.479Z" fill="#011B04"/></g><path d="M87.832 70.214c.567.413 1.431.195 1.93-.488.498-.682.442-1.57-.125-1.983-.567-.413-1.43-.195-1.929.488-.498.683-.443 1.57.124 1.983Z" fill="#000"/><g filter="url(#z)"><path d="M84.212 58.678c.823.196 1.618-.186 1.777-.852.158-.666-.38-1.365-1.203-1.56-.823-.196-1.618.186-1.777.852-.159.666.38 1.365 1.203 1.56Z" fill="#000"/></g><g filter="url(#A)"><path d="M87.724 68.224c.498-.682 1.351-.909 1.905-.505.554.403.599 1.283.1 1.965-.498.683-1.35.909-1.904.505-.554-.403-.599-1.283-.1-1.965Z" fill="#000"/></g><mask id="B" style="mask-type:alpha" maskUnits="userSpaceOnUse" x="82" y="56" width="5" height="3"><path d="M84.212 58.678c.823.196 1.618-.186 1.777-.852.159-.666-.38-1.365-1.203-1.56-.822-.196-1.618.186-1.777.852-.159.666.38 1.365 1.203 1.56Z" fill="#202124"/></mask><g mask="url(#B)"><g filter="url(#C)"><path d="M84.879 56.41c-.67-.23-1.288-.056-1.525.09.46-.29.963-.432 1.602-.207.352.124.628.41.792.633a1.278 1.278 0 0 1 .15.241c-.025-.04-.048-.088-.081-.143a1.92 1.92 0 0 0-.069-.098c-.122-.153-.349-.338-.87-.517Z" fill="#D8D8D8" fill-opacity=".29"/></g><g opacity=".8" filter="url(#D)"><path d="M85.453 58.351c.664-.443.52-1.065.365-1.32.191.199.217.674.077.93-.112.206-.342.346-.442.39Z" fill="url(#E)"/></g></g><mask id="F" style="mask-type:alpha" maskUnits="userSpaceOnUse" x="87" y="67" width="4" height="4"><path d="M87.725 68.224c.499-.682 1.351-.909 1.905-.505.554.403.6 1.283.1 1.965-.497.683-1.35.909-1.904.505-.553-.403-.599-1.283-.1-1.965Z" fill="#202124"/></mask><g mask="url(#F)"><path d="M89.806 68.241a.932.932 0 0 0-1.081-.571c.171.009.568.118.786.486.218.368-.042 1.058-.2 1.357l.293.116c.18-.208.472-.777.202-1.388Z" fill="url(#G)"/><g filter="url(#H)"><path d="M89.701 69.518c-.36.61-.943.88-1.217.922.537-.078 1.012-.297 1.35-.883.188-.324.212-.72.192-.995a.926.926 0 0 0-.012-.12 1.231 1.231 0 0 0-.03-.161c.006.046.02.097.03.16.005.037.009.078.012.12.007.196-.046.484-.325.957Z" fill="#D8D8D8" fill-opacity=".29"/></g></g><g opacity=".8" filter="url(#I)"><path d="M85.282 56.892c-.14-.226-.464-.315-.608-.33l-.139.19c.049.005.179.03.312.092.134.062.294.17.358.215l.077-.167Z" fill="#E2DCE1"/></g><g opacity=".8" filter="url(#J)"><path d="M89.698 68.9c.043.259-.136.53-.231.634l-.22-.056a1.09 1.09 0 0 0 .167-.267c.058-.132.106-.314.123-.389l.161.078Z" fill="#E2DCE1"/></g><g opacity=".8" filter="url(#K)" fill="#E2DCE1"><path d="M84.33 58.382a5.516 5.516 0 0 1-.321-.307l-.237.004c.126.162.282.26.345.289l.214.014ZM85.39 58.407c.053-.036.126-.109.156-.14l-.082.03a.972.972 0 0 1-.202.158c.02-.001.075-.011.128-.048Z"/></g><g opacity=".8" filter="url(#L)" fill="#E2DCE1"><path d="M87.993 68.362a5.486 5.486 0 0 0-.045.444l-.183.15c-.01-.204.046-.38.075-.444l.153-.15ZM88.782 67.655c.064-.007.166 0 .21.006l-.083.03a.963.963 0 0 0-.255.011.27.27 0 0 1 .128-.047Z"/></g><g opacity=".3" filter="url(#M)"><path d="M90.323 71.881c-3.023 1.116 1.011-5.104-.708-9.763-1.72-4.66-8.828-6.766-5.805-7.882 2.758-.075 6.623 2.286 8.343 6.945 1.72 4.66.122 9.332-1.83 10.7Z" fill="url(#N)" fill-opacity=".4"/></g><g opacity=".2" filter="url(#O)"><path d="M90.323 71.881c-3.023 1.116 1.011-5.104-.708-9.763-1.72-4.66-8.828-6.766-5.805-7.882 2.758-.075 6.623 2.286 8.343 6.945 1.72 4.66.122 9.332-1.83 10.7Z" fill="url(#P)" fill-opacity=".4"/></g><path fill-rule="evenodd" clip-rule="evenodd" d="M36.334 56.88c1.333.319 2.448 1.144 3.099 2.294 6.774 11.124 22.746 15.927 35.551 10.455l4.203 9.836c-17.322 7.401-39.22 1.282-48.953-14.83v-.001c-.647-1.15-.892-2.724-.48-4.029.412-1.307 1.337-2.433 2.571-3.132 1.234-.699 2.676-.912 4.01-.593Z" fill="#202124"/><mask id="Q" style="mask-type:luminance" maskUnits="userSpaceOnUse" x="29" y="56" width="51" height="27"><path fill-rule="evenodd" clip-rule="evenodd" d="M36.334 56.88c1.333.319 2.448 1.144 3.099 2.294 6.774 11.124 22.746 15.927 35.551 10.455l4.203 9.836c-17.322 7.401-39.22 1.282-48.953-14.83v-.001c-.647-1.15-.892-2.724-.48-4.029.412-1.307 1.337-2.433 2.571-3.132 1.234-.699 2.676-.912 4.01-.593Z" fill="#fff"/></mask><g mask="url(#Q)"><path d="m39.433 59.174 1.097 1.616 1.49-1.011-.887-1.567-1.7.962Zm0 0-1.098-1.615-1.538 1.044.967 1.588 1.668-1.016ZM74.984 69.63l1.796-.767-.768-1.796-1.796.767.768 1.796Zm4.202 9.836.768 1.796 1.796-.768-.768-1.796-1.796.768Zm-48.953-14.83-1.01-1.673-1.672 1.01 1.01 1.672 1.672-1.01Zm0-.001 1.01 1.671 1.623-.98-.931-1.65-1.701.959Zm10.899-6.422c-.93-1.641-2.506-2.792-4.344-3.232l-.91 3.8c.829.198 1.481.698 1.854 1.356l3.4-1.924Zm-.604 2.578h.001l-2.194-3.232h-.001l2.194 3.232Zm-2.765-.6c7.32 12.017 24.36 17.058 37.988 11.235l-1.535-3.592c-11.983 5.12-26.886.555-33.117-9.674l-3.336 2.032ZM73.19 70.398l4.202 9.835 3.592-1.535-4.203-9.835-3.591 1.535Zm5.231 7.272c-16.505 7.052-37.327 1.164-46.514-14.045l-3.344 2.02c10.28 17.017 33.254 23.367 51.393 15.617l-1.535-3.592ZM31.244 66.306l-2.02-3.344 2.02 3.344Zm-3.353-6.288c-.594 1.885-.236 4.018.642 5.575l3.403-1.918c-.418-.742-.548-1.759-.32-2.482l-3.725-1.175Zm3.472-4.245c-1.648.933-2.905 2.449-3.472 4.245l3.725 1.175c.259-.818.85-1.556 1.671-2.02l-1.924-3.4Zm5.426-.793c-1.832-.438-3.779-.14-5.426.793l1.924 3.4c.82-.465 1.758-.593 2.593-.394l.909-3.799Z" fill="#fff"/></g><path d="M37.336 99.005a1.512 1.512 0 0 0 2.761 1.172l3.45-5.923L39.2 92.41l-1.864 6.596Z" fill="#fff"/><path d="M66.734 26.402a2.832 2.832 0 0 0-5.664 0v7.227a2.832 2.832 0 0 0 5.664 0v-7.227Z" fill="#202124"/><path fill-rule="evenodd" clip-rule="evenodd" d="M63.902 24.547c-1.024 0-1.855.83-1.855 1.855v7.227a1.855 1.855 0 1 0 3.71 0v-7.227c0-1.024-.83-1.855-1.855-1.855Zm-3.808 1.855a3.808 3.808 0 1 1 7.617 0v7.227a3.809 3.809 0 1 1-7.617 0v-7.227Z" fill="#fff"/><path d="M56.437 37.705a5.078 5.078 0 1 1 9.544 3.473l-17.77 48.82a5.078 5.078 0 0 1-9.543-3.473l17.77-48.82Z" fill="#202124"/><path fill-rule="evenodd" clip-rule="evenodd" d="M62.612 35.587a4.102 4.102 0 0 1 2.451 5.257l-17.769 48.82a4.101 4.101 0 1 1-7.708-2.805l17.769-48.82a4.102 4.102 0 0 1 5.257-2.452Zm4.287 5.925a6.055 6.055 0 0 0-11.38-4.141L37.752 86.19a6.055 6.055 0 1 0 11.379 4.141l17.769-48.82Z" fill="#fff"/><path d="m71.683 37.673 17.922 48.91a5.01 5.01 0 0 1-9.407 3.448L62.277 41.119a5.009 5.009 0 1 1 9.406-3.446Z" fill="#202124"/><path fill-rule="evenodd" clip-rule="evenodd" d="M70.766 38.009a4.033 4.033 0 1 0-7.573 2.775l17.922 48.91a4.033 4.033 0 0 0 7.573-2.774L70.766 38.009Zm-5.833-4.238a5.986 5.986 0 0 1 7.667 3.566l17.922 48.91-.917.337.917-.336a5.986 5.986 0 0 1-11.24 4.118m0 0L61.36 41.456a5.986 5.986 0 0 1 3.573-7.685" fill="#fff"/><path d="M64 48.128a7.422 7.422 0 1 0 0-14.844 7.422 7.422 0 0 0 0 14.844Z" fill="#202124"/><path fill-rule="evenodd" clip-rule="evenodd" d="M64 35.237a5.469 5.469 0 1 0 0 10.938 5.469 5.469 0 0 0 0-10.938Zm-9.375 5.469a9.375 9.375 0 1 1 18.75 0 9.375 9.375 0 1 1-18.75 0Z" fill="#fff"/><defs><filter id="b" x="73.617" y="53.529" width="19.189" height="9.826" filterUnits="userSpaceOnUse" color-interpolation-filters="sRGB"><feFlood flood-opacity="0" result="BackgroundImageFix"/><feBlend in="SourceGraphic" in2="BackgroundImageFix" result="shape"/><feGaussianBlur stdDeviation=".234" result="effect1_foregroundBlur_1081_1692"/></filter><filter id="d" x="79.779" y="59.392" width="13.845" height="17.395" filterUnits="userSpaceOnUse" color-interpolation-filters="sRGB"><feFlood flood-opacity="0" result="BackgroundImageFix"/><feBlend in="SourceGraphic" in2="BackgroundImageFix" result="shape"/><feGaussianBlur stdDeviation=".351" result="effect1_foregroundBlur_1081_1692"/></filter><filter id="f" x="75.01" y="51.189" width="14.789" height="4.318" filterUnits="userSpaceOnUse" color-interpolation-filters="sRGB"><feFlood flood-opacity="0" result="BackgroundImageFix"/><feBlend in="SourceGraphic" in2="BackgroundImageFix" result="shape"/><feGaussianBlur stdDeviation=".176" result="effect1_foregroundBlur_1081_1692"/></filter><filter id="g" x="84.596" y="67.052" width="9.769" height="11.883" filterUnits="userSpaceOnUse" color-interpolation-filters="sRGB"><feFlood flood-opacity="0" result="BackgroundImageFix"/><feBlend in="SourceGraphic" in2="BackgroundImageFix" result="shape"/><feGaussianBlur stdDeviation=".176" result="effect1_foregroundBlur_1081_1692"/></filter><filter id="h" x="88.674" y="51.316" width="5.503" height="4.609" filterUnits="userSpaceOnUse" color-interpolation-filters="sRGB"><feFlood flood-opacity="0" result="BackgroundImageFix"/><feBlend in="SourceGraphic" in2="BackgroundImageFix" result="shape"/><feGaussianBlur stdDeviation=".234" result="effect1_foregroundBlur_1081_1692"/></filter><filter id="i" x="88.805" y="50.419" width="3.807" height="5.028" filterUnits="userSpaceOnUse" color-interpolation-filters="sRGB"><feFlood flood-opacity="0" result="BackgroundImageFix"/><feBlend in="SourceGraphic" in2="BackgroundImageFix" result="shape"/><feGaussianBlur stdDeviation=".059" result="effect1_foregroundBlur_1081_1692"/></filter><filter id="j" x="90.228" y="51.442" width="3.579" height="5.575" filterUnits="userSpaceOnUse" color-interpolation-filters="sRGB"><feFlood flood-opacity="0" result="BackgroundImageFix"/><feBlend in="SourceGraphic" in2="BackgroundImageFix" result="shape"/><feGaussianBlur stdDeviation=".176" result="effect1_foregroundBlur_1081_1692"/></filter><filter id="m" x="93.29" y="67.525" width="6.061" height="1.571" filterUnits="userSpaceOnUse" color-interpolation-filters="sRGB"><feFlood flood-opacity="0" result="BackgroundImageFix"/><feBlend in="SourceGraphic" in2="BackgroundImageFix" result="shape"/><feGaussianBlur stdDeviation=".059" result="effect1_foregroundBlur_1081_1692"/></filter><filter id="o" x="93.087" y="65.857" width=".953" height="4.609" filterUnits="userSpaceOnUse" color-interpolation-filters="sRGB"><feFlood flood-opacity="0" result="BackgroundImageFix"/><feBlend in="SourceGraphic" in2="BackgroundImageFix" result="shape"/><feGaussianBlur stdDeviation=".117" result="effect1_foregroundBlur_1081_1692"/></filter><filter id="p" x="93.469" y="65.116" width=".516" height="1.46" filterUnits="userSpaceOnUse" color-interpolation-filters="sRGB"><feFlood flood-opacity="0" result="BackgroundImageFix"/><feBlend in="SourceGraphic" in2="BackgroundImageFix" result="shape"/><feGaussianBlur stdDeviation=".07" result="effect1_foregroundBlur_1081_1692"/></filter><filter id="r" x="86.81" y="53.172" width="3.389" height="3.454" filterUnits="userSpaceOnUse" color-interpolation-filters="sRGB"><feFlood flood-opacity="0" result="BackgroundImageFix"/><feBlend in="SourceGraphic" in2="BackgroundImageFix" result="shape"/><feGaussianBlur stdDeviation=".117" result="effect1_foregroundBlur_1081_1692"/></filter><filter id="s" x="89.598" y="55.955" width="1.169" height="1.097" filterUnits="userSpaceOnUse" color-interpolation-filters="sRGB"><feFlood flood-opacity="0" result="BackgroundImageFix"/><feBlend in="SourceGraphic" in2="BackgroundImageFix" result="shape"/><feGaussianBlur stdDeviation=".07" result="effect1_foregroundBlur_1081_1692"/></filter><filter id="t" x="93.09" y="66.632" width="6.56" height="2.577" filterUnits="userSpaceOnUse" color-interpolation-filters="sRGB"><feFlood flood-opacity="0" result="BackgroundImageFix"/><feBlend in="SourceGraphic" in2="BackgroundImageFix" result="shape"/><feGaussianBlur stdDeviation=".234" result="effect1_foregroundBlur_1081_1692"/></filter><filter id="u" x="93.528" y="65.272" width="6.455" height="3.41" filterUnits="userSpaceOnUse" color-interpolation-filters="sRGB"><feFlood flood-opacity="0" result="BackgroundImageFix"/><feBlend in="SourceGraphic" in2="BackgroundImageFix" result="shape"/><feGaussianBlur stdDeviation=".176" result="effect1_foregroundBlur_1081_1692"/></filter><filter id="x" x="82.684" y="56.116" width="3.333" height="2.841" filterUnits="userSpaceOnUse" color-interpolation-filters="sRGB"><feFlood flood-opacity="0" result="BackgroundImageFix"/><feBlend in="SourceGraphic" in2="BackgroundImageFix" result="shape"/><feGaussianBlur stdDeviation=".035" result="effect1_foregroundBlur_1081_1692"/></filter><filter id="y" x="87.061" y="67.469" width="3.055" height="3.108" filterUnits="userSpaceOnUse" color-interpolation-filters="sRGB"><feFlood flood-opacity="0" result="BackgroundImageFix"/><feBlend in="SourceGraphic" in2="BackgroundImageFix" result="shape"/><feGaussianBlur stdDeviation=".035" result="effect1_foregroundBlur_1081_1692"/></filter><filter id="z" x="82.946" y="56.215" width="3.082" height="2.562" filterUnits="userSpaceOnUse" color-interpolation-filters="sRGB"><feFlood flood-opacity="0" result="BackgroundImageFix"/><feColorMatrix in="SourceAlpha" values="0 0 0 0 0 0 0 0 0 0 0 0 0 0 0 0 0 0 127 0" result="hardAlpha"/><feOffset dx="-.012" dy=".023"/><feGaussianBlur stdDeviation=".012"/><feComposite in2="hardAlpha" operator="out"/><feColorMatrix values="0 0 0 0 0.0156863 0 0 0 0 0.231373 0 0 0 0 0.0666667 0 0 0 0.7 0"/><feBlend in2="BackgroundImageFix" result="effect1_dropShadow_1081_1692"/><feBlend in="SourceGraphic" in2="effect1_dropShadow_1081_1692" result="shape"/></filter><filter id="A" x="87.343" y="67.519" width="2.744" height="2.917" filterUnits="userSpaceOnUse" color-interpolation-filters="sRGB"><feFlood flood-opacity="0" result="BackgroundImageFix"/><feColorMatrix in="SourceAlpha" values="0 0 0 0 0 0 0 0 0 0 0 0 0 0 0 0 0 0 127 0" result="hardAlpha"/><feOffset dx="-.012" dy=".023"/><feGaussianBlur stdDeviation=".012"/><feComposite in2="hardAlpha" operator="out"/><feColorMatrix values="0 0 0 0 0.0156863 0 0 0 0 0.231373 0 0 0 0 0.0666667 0 0 0 0.7 0"/><feBlend in2="BackgroundImageFix" result="effect1_dropShadow_1081_1692"/><feBlend in="SourceGraphic" in2="effect1_dropShadow_1081_1692" result="shape"/></filter><filter id="C" x="83.331" y="56.158" width="2.591" height="1.032" filterUnits="userSpaceOnUse" color-interpolation-filters="sRGB"><feFlood flood-opacity="0" result="BackgroundImageFix"/><feBlend in="SourceGraphic" in2="BackgroundImageFix" result="shape"/><feGaussianBlur stdDeviation=".012" result="effect1_foregroundBlur_1081_1692"/></filter><filter id="D" x="85.447" y="57.025" width=".543" height="1.332" filterUnits="userSpaceOnUse" color-interpolation-filters="sRGB"><feFlood flood-opacity="0" result="BackgroundImageFix"/><feBlend in="SourceGraphic" in2="BackgroundImageFix" result="shape"/><feGaussianBlur stdDeviation=".003" result="effect1_foregroundBlur_1081_1692"/></filter><filter id="H" x="88.46" y="68.257" width="1.595" height="2.206" filterUnits="userSpaceOnUse" color-interpolation-filters="sRGB"><feFlood flood-opacity="0" result="BackgroundImageFix"/><feBlend in="SourceGraphic" in2="BackgroundImageFix" result="shape"/><feGaussianBlur stdDeviation=".012" result="effect1_foregroundBlur_1081_1692"/></filter><filter id="I" x="84.512" y="56.538" width=".793" height=".545" filterUnits="userSpaceOnUse" color-interpolation-filters="sRGB"><feFlood flood-opacity="0" result="BackgroundImageFix"/><feBlend in="SourceGraphic" in2="BackgroundImageFix" result="shape"/><feGaussianBlur stdDeviation=".012" result="effect1_foregroundBlur_1081_1692"/></filter><filter id="J" x="89.223" y="68.799" width=".505" height=".759" filterUnits="userSpaceOnUse" color-interpolation-filters="sRGB"><feFlood flood-opacity="0" result="BackgroundImageFix"/><feBlend in="SourceGraphic" in2="BackgroundImageFix" result="shape"/><feGaussianBlur stdDeviation=".012" result="effect1_foregroundBlur_1081_1692"/></filter><filter id="K" x="83.76" y="58.063" width="1.798" height=".403" filterUnits="userSpaceOnUse" color-interpolation-filters="sRGB"><feFlood flood-opacity="0" result="BackgroundImageFix"/><feBlend in="SourceGraphic" in2="BackgroundImageFix" result="shape"/><feGaussianBlur stdDeviation=".006" result="effect1_foregroundBlur_1081_1692"/></filter><filter id="L" x="87.752" y="67.64" width="1.251" height="1.328" filterUnits="userSpaceOnUse" color-interpolation-filters="sRGB"><feFlood flood-opacity="0" result="BackgroundImageFix"/><feBlend in="SourceGraphic" in2="BackgroundImageFix" result="shape"/><feGaussianBlur stdDeviation=".006" result="effect1_foregroundBlur_1081_1692"/></filter><filter id="M" x="82.602" y="53.766" width="10.751" height="18.715" filterUnits="userSpaceOnUse" color-interpolation-filters="sRGB"><feFlood flood-opacity="0" result="BackgroundImageFix"/><feBlend in="SourceGraphic" in2="BackgroundImageFix" result="shape"/><feGaussianBlur stdDeviation=".234" result="effect1_foregroundBlur_1081_1692"/></filter><filter id="O" x="82.602" y="53.766" width="10.751" height="18.715" filterUnits="userSpaceOnUse" color-interpolation-filters="sRGB"><feFlood flood-opacity="0" result="BackgroundImageFix"/><feBlend in="SourceGraphic" in2="BackgroundImageFix" result="shape"/><feGaussianBlur stdDeviation=".234" result="effect1_foregroundBlur_1081_1692"/></filter><linearGradient id="c" x1="84.694" y1="54.257" x2="83.533" y2="58.606" gradientUnits="userSpaceOnUse"><stop stop-color="#A8F0B9"/><stop offset="1" stop-color="#ADEEBC" stop-opacity="0"/></linearGradient><linearGradient id="e" x1="90.987" y1="71.31" x2="87.28" y2="68.758" gradientUnits="userSpaceOnUse"><stop stop-color="#A8F0B9"/><stop offset="1" stop-color="#ADEEBC" stop-opacity="0"/></linearGradient><linearGradient id="E" x1="86.137" y1="56.997" x2="85.121" y2="57.425" gradientUnits="userSpaceOnUse"><stop stop-color="#E2DDE2"/><stop offset="1" stop-color="#E2DDE2" stop-opacity="0"/></linearGradient><linearGradient id="G" x1="89.864" y1="68.391" x2="89.013" y2="68.705" gradientUnits="userSpaceOnUse"><stop stop-color="#373637"/><stop offset="1" stop-color="#373637" stop-opacity="0"/></linearGradient><linearGradient id="N" x1="92.315" y1="61.121" x2="88.093" y2="62.68" gradientUnits="userSpaceOnUse"><stop stop-color="#A8F0B9"/><stop offset="1" stop-color="#ADEEBC" stop-opacity="0"/></linearGradient><linearGradient id="P" x1="92.315" y1="61.121" x2="88.093" y2="62.68" gradientUnits="userSpaceOnUse"><stop stop-color="#A8F0B9"/><stop offset="1" stop-color="#ADEEBC" stop-opacity="0"/></linearGradient><radialGradient id="k" cx="0" cy="0" r="1" gradientUnits="userSpaceOnUse" gradientTransform="rotate(-126.921 59.242 2.881) scale(.91051 .65981)"><stop stop-color="#fff"/><stop offset=".948" stop-color="#fff" stop-opacity="0"/></radialGradient><radialGradient id="l" cx="0" cy="0" r="1" gradientUnits="userSpaceOnUse" gradientTransform="rotate(-126.921 65.788 8.883) scale(.91051 .65981)"><stop stop-color="#fff"/><stop offset=".948" stop-color="#fff" stop-opacity="0"/></radialGradient><radialGradient id="v" cx="0" cy="0" r="1" gradientUnits="userSpaceOnUse" gradientTransform="rotate(-157.024 48.72 20.246) scale(.35523 .64699)"><stop stop-color="#93E19F"/><stop offset="1" stop-color="#93E19F" stop-opacity="0"/></radialGradient><radialGradient id="w" cx="0" cy="0" r="1" gradientUnits="userSpaceOnUse" gradientTransform="rotate(116.504 23.67 61.572) scale(.35508 .64673)"><stop stop-color="#93E19F"/><stop offset="1" stop-color="#93E19F" stop-opacity="0"/></radialGradient></defs></svg>