<svg width="20" height="21" viewBox="0 0 20 21" fill="none" xmlns="http://www.w3.org/2000/svg">
<path d="M13.842 18.7496C14.2007 18.9568 14.6594 18.8338 14.8665 18.4751C15.0736 18.1164 14.9507 17.6577 14.592 17.4506L13.842 18.7496ZM11.625 17.4697L13.842 18.7496L14.592 17.4506L12.375 16.1706L11.625 17.4697Z" fill="#CED0D6"/>
<path d="M14.9004 14.7501C15.3146 14.7501 15.6504 14.4143 15.6504 14.0001C15.6504 13.5858 15.3146 13.2501 14.9004 13.2501L14.9004 14.7501ZM12.4004 14.7501L14.9004 14.7501L14.9004 13.2501L12.4004 13.2501L12.4004 14.7501Z" fill="#CED0D6"/>
<path d="M14.5741 10.4597C14.9383 10.2625 15.0738 9.80735 14.8766 9.44307C14.6795 9.07879 14.2243 8.94332 13.8601 9.14049L14.5741 10.4597ZM12.357 11.6596L14.5741 10.4597L13.8601 9.14049L11.643 10.3405L12.357 11.6596Z" fill="#CED0D6"/>
<path d="M2.15489 18.7496C1.79617 18.9567 1.33748 18.8338 1.13037 18.4751C0.923267 18.1164 1.04617 17.6577 1.40489 17.4506L2.15489 18.7496ZM4.375 17.4678L2.15489 18.7496L1.40489 17.4506L3.625 16.1688L4.375 17.4678Z" fill="#CED0D6"/>
<path d="M1.09961 14.7501C0.685396 14.7501 0.349609 14.4143 0.349609 14.0001C0.349609 13.5858 0.685396 13.2501 1.09961 13.2501L1.09961 14.7501ZM3.59961 14.7501L1.09961 14.7501L1.09961 13.2501L3.59961 13.2501L3.59961 14.7501Z" fill="#CED0D6"/>
<path d="M1.42328 10.4598C1.05889 10.2629 0.923154 9.80782 1.12011 9.44343C1.31707 9.07904 1.77213 8.9433 2.13652 9.14026L1.42328 10.4598ZM3.64338 11.6598L1.42328 10.4598L2.13652 9.14026L4.35662 10.3402L3.64338 11.6598Z" fill="#CED0D6"/>
<path fill-rule="evenodd" clip-rule="evenodd" d="M6.30078 9.2C6.30078 8.26112 7.0619 7.5 8.00078 7.5C8.93967 7.5 9.70078 8.26112 9.70078 9.2C9.70078 9.48922 9.62856 9.76157 9.50116 10H10.5C10.5267 10 10.5533 10.0005 10.5798 10.0016C10.6584 9.74832 10.7008 9.4791 10.7008 9.2C10.7008 7.70883 9.49195 6.5 8.00078 6.5C6.50961 6.5 5.30078 7.70883 5.30078 9.2C5.30078 9.47908 5.34312 9.74827 5.42173 10.0015C5.4477 10.0005 5.47379 10 5.5 10H6.5004C6.37301 9.76157 6.30078 9.48922 6.30078 9.2Z" fill="#CED0D6"/>
<path d="M9.50116 10L9.28066 9.88218L9.08413 10.25H9.50116V10ZM10.5798 10.0016L10.57 10.2514L10.7617 10.2589L10.8186 10.0757L10.5798 10.0016ZM5.42173 10.0015L5.18297 10.0756L5.23981 10.2587L5.43135 10.2513L5.42173 10.0015ZM6.5004 10V10.25H6.91743L6.7209 9.88218L6.5004 10ZM8.00078 7.25C6.92383 7.25 6.05078 8.12304 6.05078 9.2H6.55078C6.55078 8.39919 7.19997 7.75 8.00078 7.75V7.25ZM9.95078 9.2C9.95078 8.12304 9.07774 7.25 8.00078 7.25V7.75C8.80159 7.75 9.45078 8.39919 9.45078 9.2H9.95078ZM9.72166 10.1178C9.86795 9.84402 9.95078 9.53131 9.95078 9.2H9.45078C9.45078 9.44712 9.38916 9.67912 9.28066 9.88218L9.72166 10.1178ZM9.50116 10.25H10.5V9.75H9.50116V10.25ZM10.5 10.25C10.5234 10.25 10.5468 10.2505 10.57 10.2514L10.5896 9.75176C10.5599 9.75059 10.53 9.75 10.5 9.75V10.25ZM10.4508 9.2C10.4508 9.45369 10.4123 9.69792 10.3411 9.92744L10.8186 10.0757C10.9046 9.79871 10.9508 9.50452 10.9508 9.2H10.4508ZM8.00078 6.75C9.35388 6.75 10.4508 7.8469 10.4508 9.2H10.9508C10.9508 7.57076 9.63002 6.25 8.00078 6.25V6.75ZM5.55078 9.2C5.55078 7.8469 6.64768 6.75 8.00078 6.75V6.25C6.37154 6.25 5.05078 7.57076 5.05078 9.2H5.55078ZM5.66049 9.92738C5.58925 9.69788 5.55078 9.45367 5.55078 9.2H5.05078C5.05078 9.5045 5.097 9.79867 5.18297 10.0756L5.66049 9.92738ZM5.43135 10.2513C5.45411 10.2504 5.477 10.25 5.5 10.25V9.75C5.47059 9.75 5.44129 9.75057 5.41212 9.75169L5.43135 10.2513ZM5.5 10.25H6.5004V9.75H5.5V10.25ZM6.05078 9.2C6.05078 9.53131 6.13361 9.84402 6.2799 10.1178L6.7209 9.88218C6.6124 9.67912 6.55078 9.44712 6.55078 9.2H6.05078Z" fill="#CED0D6"/>
<path d="M4 12.5C4 10.8431 5.34315 9.5 7 9.5H9C10.6569 9.5 12 10.8431 12 12.5V15C12 17.2091 10.2091 19 8 19V19C5.79086 19 4 17.2091 4 15V12.5Z" stroke="#CED0D6" stroke-width="1.5"/>
<path fill-rule="evenodd" clip-rule="evenodd" d="M13.11 0.969716C12.8171 1.26261 12.8171 1.73748 13.11 2.03038L15.0798 4.0001L13.0304 6.04947C12.7375 6.34236 12.7375 6.81723 13.0304 7.11013C13.3233 7.40302 13.7982 7.40302 14.091 7.11013L16.1404 5.06076L18.1305 7.05083C18.4234 7.34373 18.8983 7.34373 19.1911 7.05083C19.484 6.75794 19.484 6.28307 19.1911 5.99017L17.2011 4.0001L19.1101 2.09104C19.403 1.79815 19.403 1.32328 19.1101 1.03038C18.8172 0.73749 18.3424 0.73749 18.0495 1.03038L16.1404 2.93944L14.1707 0.969716C13.8778 0.676823 13.4029 0.676823 13.11 0.969716Z" fill="#DB5C5C"/>
</svg>
