<svg width="20" height="22" viewBox="0 0 20 22" fill="none" xmlns="http://www.w3.org/2000/svg">
<path d="M13.842 19.7496C14.2007 19.9568 14.6594 19.8338 14.8665 19.4751C15.0736 19.1164 14.9507 18.6577 14.592 18.4506L13.842 19.7496ZM11.625 18.4697L13.842 19.7496L14.592 18.4506L12.375 17.1706L11.625 18.4697Z" fill="#CED0D6"/>
<path d="M14.9004 15.7501C15.3146 15.7501 15.6504 15.4143 15.6504 15.0001C15.6504 14.5858 15.3146 14.2501 14.9004 14.2501L14.9004 15.7501ZM12.4004 15.7501L14.9004 15.7501L14.9004 14.2501L12.4004 14.2501L12.4004 15.7501Z" fill="#CED0D6"/>
<path d="M14.5741 11.4597C14.9383 11.2625 15.0738 10.8073 14.8766 10.4431C14.6795 10.0788 14.2243 9.94332 13.8601 10.1405L14.5741 11.4597ZM12.357 12.6596L14.5741 11.4597L13.8601 10.1405L11.643 11.3405L12.357 12.6596Z" fill="#CED0D6"/>
<path d="M2.15489 19.7496C1.79617 19.9567 1.33748 19.8338 1.13037 19.4751C0.923267 19.1164 1.04617 18.6577 1.40489 18.4506L2.15489 19.7496ZM4.375 18.4678L2.15489 19.7496L1.40489 18.4506L3.625 17.1688L4.375 18.4678Z" fill="#CED0D6"/>
<path d="M1.09961 15.7501C0.685396 15.7501 0.349609 15.4143 0.349609 15.0001C0.349609 14.5858 0.685396 14.2501 1.09961 14.2501L1.09961 15.7501ZM3.59961 15.7501L1.09961 15.7501L1.09961 14.2501L3.59961 14.2501L3.59961 15.7501Z" fill="#CED0D6"/>
<path d="M1.42328 11.4598C1.05889 11.2629 0.923154 10.8078 1.12011 10.4434C1.31707 10.079 1.77213 9.9433 2.13652 10.1403L1.42328 11.4598ZM3.64338 12.6598L1.42328 11.4598L2.13652 10.1403L4.35662 11.3402L3.64338 12.6598Z" fill="#CED0D6"/>
<path fill-rule="evenodd" clip-rule="evenodd" d="M6.30078 10.2C6.30078 9.26112 7.0619 8.5 8.00078 8.5C8.93967 8.5 9.70078 9.26112 9.70078 10.2C9.70078 10.4892 9.62856 10.7616 9.50116 11H10.5C10.5267 11 10.5533 11.0005 10.5798 11.0016C10.6584 10.7483 10.7008 10.4791 10.7008 10.2C10.7008 8.70883 9.49195 7.5 8.00078 7.5C6.50961 7.5 5.30078 8.70883 5.30078 10.2C5.30078 10.4791 5.34312 10.7483 5.42173 11.0015C5.4477 11.0005 5.47379 11 5.5 11H6.5004C6.37301 10.7616 6.30078 10.4892 6.30078 10.2Z" fill="#CED0D6"/>
<path d="M9.50116 11L9.28066 10.8822L9.08413 11.25H9.50116V11ZM10.5798 11.0016L10.57 11.2514L10.7617 11.2589L10.8186 11.0757L10.5798 11.0016ZM5.42173 11.0015L5.18297 11.0756L5.23981 11.2587L5.43135 11.2513L5.42173 11.0015ZM6.5004 11V11.25H6.91743L6.7209 10.8822L6.5004 11ZM8.00078 8.25C6.92383 8.25 6.05078 9.12304 6.05078 10.2H6.55078C6.55078 9.39919 7.19997 8.75 8.00078 8.75V8.25ZM9.95078 10.2C9.95078 9.12304 9.07774 8.25 8.00078 8.25V8.75C8.80159 8.75 9.45078 9.39919 9.45078 10.2H9.95078ZM9.72166 11.1178C9.86795 10.844 9.95078 10.5313 9.95078 10.2H9.45078C9.45078 10.4471 9.38916 10.6791 9.28066 10.8822L9.72166 11.1178ZM9.50116 11.25H10.5V10.75H9.50116V11.25ZM10.5 11.25C10.5234 11.25 10.5468 11.2505 10.57 11.2514L10.5896 10.7518C10.5599 10.7506 10.53 10.75 10.5 10.75V11.25ZM10.4508 10.2C10.4508 10.4537 10.4123 10.6979 10.3411 10.9274L10.8186 11.0757C10.9046 10.7987 10.9508 10.5045 10.9508 10.2H10.4508ZM8.00078 7.75C9.35388 7.75 10.4508 8.8469 10.4508 10.2H10.9508C10.9508 8.57076 9.63002 7.25 8.00078 7.25V7.75ZM5.55078 10.2C5.55078 8.8469 6.64768 7.75 8.00078 7.75V7.25C6.37154 7.25 5.05078 8.57076 5.05078 10.2H5.55078ZM5.66049 10.9274C5.58925 10.6979 5.55078 10.4537 5.55078 10.2H5.05078C5.05078 10.5045 5.097 10.7987 5.18297 11.0756L5.66049 10.9274ZM5.43135 11.2513C5.45411 11.2504 5.477 11.25 5.5 11.25V10.75C5.47059 10.75 5.44129 10.7506 5.41212 10.7517L5.43135 11.2513ZM5.5 11.25H6.5004V10.75H5.5V11.25ZM6.05078 10.2C6.05078 10.5313 6.13361 10.844 6.2799 11.1178L6.7209 10.8822C6.6124 10.6791 6.55078 10.4471 6.55078 10.2H6.05078Z" fill="#CED0D6"/>
<path d="M4 13.5C4 11.8431 5.34315 10.5 7 10.5H9C10.6569 10.5 12 11.8431 12 13.5V16C12 18.2091 10.2091 20 8 20V20C5.79086 20 4 18.2091 4 16V13.5Z" stroke="#CED0D6" stroke-width="1.5"/>
<path d="M12.982 4.882C13.5604 4.92237 14.3458 4.89587 15.2069 5.75692C16.0679 6.61796 16.0414 7.4034 16.0818 7.98177" stroke="#5FAD65" stroke-width="1.5" stroke-linecap="round"/>
<path d="M13.9538 1.74007C15.0177 1.72799 16.3627 2.34901 17.4885 3.47485C18.6143 4.60069 19.2353 5.94563 19.2233 7.00954" stroke="#5FAD65" stroke-width="1.5" stroke-linecap="round"/>
<circle cx="12.7546" cy="8.03027" r="0.895508" fill="#5FAD65"/>
</svg>
