<svg width="16" height="16" viewBox="0 0 16 16" fill="none" xmlns="http://www.w3.org/2000/svg">
<path d="M11.2041 15.1525C11.4433 15.2906 11.7491 15.2087 11.8871 14.9695C12.0252 14.7304 11.9433 14.4246 11.7041 14.2865L11.2041 15.1525ZM9.35278 14.0836L11.2041 15.1525L11.7041 14.2865L9.85278 13.2176L9.35278 14.0836Z" fill="#6C707E"/>
<path d="M12.025 11.7956C12.3011 11.7956 12.525 11.5718 12.525 11.2956C12.525 11.0195 12.3011 10.7956 12.025 10.7956L12.025 11.7956ZM9.93726 11.7956L12.025 11.7956L12.025 10.7956L9.93726 10.7956L9.93726 11.7956Z" fill="#6C707E"/>
<path d="M11.6922 8.22801C11.9351 8.09657 12.0254 7.79314 11.8939 7.55029C11.7625 7.30744 11.459 7.21712 11.2162 7.34857L11.6922 8.22801ZM9.84078 9.2301L11.6922 8.22801L11.2162 7.34857L9.36478 8.35065L9.84078 9.2301Z" fill="#6C707E"/>
<path d="M1.31815 15.1524C1.07901 15.2905 0.773213 15.2086 0.635142 14.9694C0.497071 14.7303 0.579008 14.4245 0.818155 14.2864L1.31815 15.1524ZM3.17212 14.082L1.31815 15.1524L0.818155 14.2864L2.67212 13.216L3.17212 14.082Z" fill="#6C707E"/>
<path d="M0.500194 11.7956C0.224051 11.7956 0.00019382 11.5717 0.000193845 11.2956C0.000193869 11.0195 0.224052 10.7956 0.500194 10.7956L0.500194 11.7956ZM2.58789 11.7956L0.500194 11.7956L0.500194 10.7956L2.58789 10.7956L2.58789 11.7956Z" fill="#6C707E"/>
<path d="M0.830412 8.22812C0.587485 8.09682 0.496996 7.79344 0.628301 7.55052C0.759605 7.30759 1.06298 7.2171 1.30591 7.3484L0.830412 8.22812ZM2.68437 9.2302L0.830412 8.22812L1.30591 7.3484L3.15987 8.35049L2.68437 9.2302Z" fill="#6C707E"/>
<path fill-rule="evenodd" clip-rule="evenodd" d="M4.67578 7.28719C4.67578 6.41061 5.38638 5.70001 6.26295 5.70001C7.13953 5.70001 7.85013 6.41061 7.85013 7.28719C7.85013 7.37243 7.84341 7.4561 7.83047 7.53771H8.33525C8.34507 7.45557 8.35013 7.37197 8.35013 7.28719C8.35013 6.13447 7.41567 5.20001 6.26295 5.20001C5.11024 5.20001 4.17578 6.13447 4.17578 7.28719C4.17578 7.37197 4.18084 7.45557 4.19066 7.53771H4.69544C4.6825 7.4561 4.67578 7.37243 4.67578 7.28719Z" fill="#6C707E"/>
<path d="M7.83047 7.53771L7.58355 7.49855L7.5377 7.78771H7.83047V7.53771ZM8.33525 7.53771V7.78771H8.55712L8.58348 7.5674L8.33525 7.53771ZM4.19066 7.53771L3.94243 7.5674L3.96878 7.78771H4.19066V7.53771ZM4.69544 7.53771V7.78771H4.9882L4.94236 7.49855L4.69544 7.53771ZM6.26295 5.45001C5.24831 5.45001 4.42578 6.27254 4.42578 7.28719H4.92578C4.92578 6.54869 5.52445 5.95001 6.26295 5.95001V5.45001ZM8.10013 7.28719C8.10013 6.27254 7.2776 5.45001 6.26295 5.45001V5.95001C7.00145 5.95001 7.60013 6.54869 7.60013 7.28719H8.10013ZM8.07738 7.57686C8.09237 7.48235 8.10013 7.38559 8.10013 7.28719H7.60013C7.60013 7.35927 7.59445 7.42985 7.58355 7.49855L8.07738 7.57686ZM7.83047 7.78771H8.33525V7.28771H7.83047V7.78771ZM8.10013 7.28719C8.10013 7.36202 8.09567 7.43571 8.08702 7.50801L8.58348 7.5674C8.59448 7.47543 8.60013 7.38191 8.60013 7.28719H8.10013ZM6.26295 5.45001C7.2776 5.45001 8.10013 6.27254 8.10013 7.28719H8.60013C8.60013 5.9964 7.55374 4.95001 6.26295 4.95001V5.45001ZM4.42578 7.28719C4.42578 6.27254 5.24831 5.45001 6.26295 5.45001V4.95001C4.97217 4.95001 3.92578 5.9964 3.92578 7.28719H4.42578ZM4.43889 7.50801C4.43024 7.43571 4.42578 7.36202 4.42578 7.28719H3.92578C3.92578 7.38191 3.93143 7.47543 3.94243 7.5674L4.43889 7.50801ZM4.19066 7.78771H4.69544V7.28771H4.19066V7.78771ZM4.42578 7.28719C4.42578 7.38559 4.43354 7.48235 4.44853 7.57686L4.94236 7.49855C4.93146 7.42985 4.92578 7.35927 4.92578 7.28719H4.42578Z" fill="#6C707E"/>
<path d="M2.92212 9.88745C2.92212 8.58971 3.97414 7.53769 5.27188 7.53769H7.25299C8.55073 7.53769 9.60275 8.58971 9.60275 9.88745V12.3379C9.60275 14.0682 8.20005 15.4709 6.46974 15.4709H6.05513C4.32481 15.4709 2.92212 14.0682 2.92212 12.3379V9.88745Z" stroke="#6C707E"/>
<path fill-rule="evenodd" clip-rule="evenodd" d="M10.8748 1.14649C10.6795 1.34175 10.6795 1.65834 10.8748 1.8536L12.6425 3.62132L10.8747 5.38912C10.6795 5.58439 10.6795 5.90097 10.8747 6.09623C11.07 6.29149 11.3866 6.29149 11.5818 6.09623L13.3496 4.32843L15.1174 6.09624C15.3127 6.2915 15.6293 6.2915 15.8246 6.09624C16.0198 5.90098 16.0198 5.58439 15.8246 5.38913L14.0567 3.62132L15.8245 1.85359C16.0197 1.65833 16.0197 1.34174 15.8245 1.14648C15.6292 0.95122 15.3126 0.951221 15.1174 1.14648L13.3496 2.91422L11.5819 1.14649C11.3867 0.95123 11.0701 0.95123 10.8748 1.14649Z" fill="#E35252"/>
</svg>
