<svg width="16" height="16" viewBox="0 0 16 16" fill="none" xmlns="http://www.w3.org/2000/svg">
<path d="M11.2041 15.1525C11.4433 15.2906 11.7491 15.2087 11.8871 14.9695C12.0252 14.7304 11.9433 14.4246 11.7041 14.2865L11.2041 15.1525ZM9.35278 14.0836L11.2041 15.1525L11.7041 14.2865L9.85278 13.2176L9.35278 14.0836Z" fill="#6C707E"/>
<path d="M12.025 11.7956C12.3011 11.7956 12.525 11.5718 12.525 11.2956C12.525 11.0195 12.3011 10.7956 12.025 10.7956L12.025 11.7956ZM9.93726 11.7956L12.025 11.7956L12.025 10.7956L9.93726 10.7956L9.93726 11.7956Z" fill="#6C707E"/>
<path d="M11.6922 8.22801C11.9351 8.09657 12.0254 7.79314 11.8939 7.55029C11.7625 7.30744 11.459 7.21712 11.2162 7.34857L11.6922 8.22801ZM9.84078 9.2301L11.6922 8.22801L11.2162 7.34857L9.36478 8.35065L9.84078 9.2301Z" fill="#6C707E"/>
<path d="M1.31815 15.1524C1.07901 15.2905 0.773213 15.2086 0.635142 14.9694C0.497071 14.7303 0.579008 14.4245 0.818155 14.2864L1.31815 15.1524ZM3.17212 14.082L1.31815 15.1524L0.818155 14.2864L2.67212 13.216L3.17212 14.082Z" fill="#6C707E"/>
<path d="M0.500194 11.7956C0.224051 11.7956 0.00019382 11.5717 0.000193845 11.2956C0.000193869 11.0195 0.224052 10.7956 0.500194 10.7956L0.500194 11.7956ZM2.58789 11.7956L0.500194 11.7956L0.500194 10.7956L2.58789 10.7956L2.58789 11.7956Z" fill="#6C707E"/>
<path d="M0.830412 8.22812C0.587485 8.09682 0.496996 7.79344 0.628301 7.55052C0.759605 7.30759 1.06298 7.2171 1.30591 7.3484L0.830412 8.22812ZM2.68437 9.2302L0.830412 8.22812L1.30591 7.3484L3.15987 8.35049L2.68437 9.2302Z" fill="#6C707E"/>
<path fill-rule="evenodd" clip-rule="evenodd" d="M4.67579 7.2872C4.67579 6.41063 5.3864 5.70002 6.26297 5.70002C7.13954 5.70002 7.85014 6.41063 7.85014 7.2872C7.85014 7.37244 7.84342 7.45612 7.83048 7.53772H8.33526C8.34509 7.45558 8.35014 7.37198 8.35014 7.2872C8.35014 6.13448 7.41568 5.20002 6.26297 5.20002C5.11025 5.20002 4.17579 6.13448 4.17579 7.2872C4.17579 7.37198 4.18085 7.45558 4.19067 7.53772H4.69545C4.68251 7.45612 4.67579 7.37244 4.67579 7.2872Z" fill="#6C707E"/>
<path d="M7.83048 7.53772L7.58357 7.49857L7.53772 7.78772H7.83048V7.53772ZM8.33526 7.53772V7.78772H8.55714L8.58349 7.56741L8.33526 7.53772ZM4.19067 7.53772L3.94244 7.56741L3.9688 7.78772H4.19067V7.53772ZM4.69545 7.53772V7.78772H4.98822L4.94237 7.49857L4.69545 7.53772ZM6.26297 5.45002C5.24832 5.45002 4.42579 6.27256 4.42579 7.2872H4.92579C4.92579 6.5487 5.52447 5.95002 6.26297 5.95002V5.45002ZM8.10014 7.2872C8.10014 6.27256 7.27761 5.45002 6.26297 5.45002V5.95002C7.00147 5.95002 7.60014 6.5487 7.60014 7.2872H8.10014ZM8.0774 7.57687C8.09238 7.48236 8.10014 7.3856 8.10014 7.2872H7.60014C7.60014 7.35928 7.59446 7.42987 7.58357 7.49857L8.0774 7.57687ZM7.83048 7.78772H8.33526V7.28772H7.83048V7.78772ZM8.10014 7.2872C8.10014 7.36203 8.09568 7.43572 8.08703 7.50802L8.58349 7.56741C8.59449 7.47544 8.60014 7.38193 8.60014 7.2872H8.10014ZM6.26297 5.45002C7.27761 5.45002 8.10014 6.27256 8.10014 7.2872H8.60014C8.60014 5.99641 7.55375 4.95002 6.26297 4.95002V5.45002ZM4.42579 7.2872C4.42579 6.27256 5.24832 5.45002 6.26297 5.45002V4.95002C4.97218 4.95002 3.92579 5.99641 3.92579 7.2872H4.42579ZM4.4389 7.50802C4.43026 7.43572 4.42579 7.36203 4.42579 7.2872H3.92579C3.92579 7.38193 3.93144 7.47544 3.94244 7.56741L4.4389 7.50802ZM4.19067 7.78772H4.69545V7.28772H4.19067V7.78772ZM4.42579 7.2872C4.42579 7.3856 4.43355 7.48236 4.44854 7.57687L4.94237 7.49857C4.93147 7.42987 4.92579 7.35928 4.92579 7.2872H4.42579Z" fill="#6C707E"/>
<path d="M2.92212 9.88745C2.92212 8.58971 3.97414 7.53769 5.27188 7.53769H7.25299C8.55073 7.53769 9.60275 8.58971 9.60275 9.88745V12.3379C9.60275 14.0682 8.20005 15.4709 6.46974 15.4709H6.05513C4.32481 15.4709 2.92212 14.0682 2.92212 12.3379V9.88745Z" stroke="#6C707E"/>
<path d="M10.2628 3.37508C10.7457 3.4088 11.4017 3.38667 12.1207 4.10571C12.8397 4.82475 12.8176 5.48065 12.8513 5.96363" stroke="#5FB865" stroke-linecap="round"/>
<path d="M11.0744 0.751319C11.9628 0.741233 13.086 1.25983 14.0261 2.2C14.9663 3.14016 15.4849 4.26329 15.4748 5.15174" stroke="#5FB865" stroke-linecap="round"/>
<circle cx="10.073" cy="6.00414" r="0.747819" fill="#5FB865"/>
</svg>
