<!-- Copyright 2000-2022 JetBrains s.r.o. and contributors. Use of this source code is governed by the Apache 2.0 license. -->
<svg width="16" height="16" viewBox="0 0 16 16" fill="none" xmlns="http://www.w3.org/2000/svg">
<path d="M1.26612 7.69116H3.63899C4.33545 7.69701 4.84013 7.89781 5.15303 8.29323C5.46593 8.68866 5.56917 9.22875 5.46292 9.91352C5.42166 10.2264 5.33011 10.5333 5.18845 10.8343C5.05263 11.1354 4.86385 11.4068 4.62179 11.6489C4.3266 11.9558 4.01086 12.1506 3.67441 12.2333C3.33796 12.316 2.98965 12.3572 2.62964 12.3572H1.56716L1.23071 14.0395H0L1.26612 7.69116V7.69116ZM2.30204 8.70052L1.7708 11.3567C1.80622 11.3626 1.84163 11.3656 1.87705 11.3656C1.91831 11.3656 1.95974 11.3656 2.001 11.3656C2.56766 11.3714 3.03993 11.3155 3.41764 11.1973C3.79536 11.0734 4.04929 10.6426 4.17909 9.90466C4.28534 9.28488 4.17909 8.92772 3.86034 8.83333C3.54745 8.73894 3.15503 8.69467 2.68276 8.70052C2.61193 8.70637 2.54411 8.70937 2.47912 8.70937C2.42015 8.70937 2.35817 8.70937 2.29319 8.70937L2.30204 8.70052" fill="#676BD7"/>
<path d="M6.86482 6H8.08667L7.74137 7.69111H8.83926C9.44133 7.70298 9.88988 7.82693 10.1851 8.06298C10.4861 8.29903 10.5746 8.74775 10.4507 9.40879L9.85747 12.3572H8.61791L9.18457 9.5416C9.24354 9.24641 9.22583 9.03692 9.13144 8.91297C9.03706 8.78901 8.83342 8.72703 8.52052 8.72703L7.53772 8.71818L6.8117 12.3572H5.58984L6.86482 6Z" fill="#676BD7"/>
<path d="M11.7622 7.69092H14.1351C14.8315 7.69676 15.3362 7.89757 15.6491 8.29299C15.962 8.68841 16.0653 9.22851 15.959 9.91327C15.9177 10.2262 15.8262 10.5331 15.6845 10.8341C15.5487 11.1351 15.3599 11.4066 15.1179 11.6487C14.8227 11.9555 14.507 12.1503 14.1705 12.233C13.8341 12.3157 13.4857 12.357 13.1257 12.357H12.0633L11.7268 14.0392H10.4961L11.7622 7.69092V7.69092ZM12.7981 8.70027L12.2669 11.3565C12.3023 11.3623 12.3377 11.3653 12.3731 11.3653C12.4144 11.3653 12.4558 11.3653 12.4971 11.3653C13.0638 11.3712 13.536 11.3152 13.9137 11.1971C14.2915 11.0731 14.5454 10.6423 14.6752 9.90442C14.7814 9.28464 14.6752 8.92747 14.3564 8.83308C14.0435 8.7387 13.6511 8.69443 13.1789 8.70027C13.108 8.70612 13.0402 8.70913 12.9752 8.70913C12.9162 8.70913 12.8543 8.70913 12.7893 8.70913L12.7981 8.70027" fill="#676BD7"/>
<path d="M10.6464 5.64645C10.4512 5.84171 10.4512 6.15829 10.6464 6.35355C10.8417 6.54882 11.1583 6.54882 11.3536 6.35355L10.6464 5.64645ZM11.3536 6.35355L15.8536 1.85355L15.1464 1.14645L10.6464 5.64645L11.3536 6.35355Z" fill="#3574F0"/>
<path d="M15.5 1.5H16C16 1.22386 15.7761 1 15.5 1V1.5ZM12.5 1C12.2239 1 12 1.22386 12 1.5C12 1.77614 12.2239 2 12.5 2V1ZM15 4.5C15 4.77614 15.2239 5 15.5 5C15.7761 5 16 4.77614 16 4.5H15ZM15.5 1H12.5V2H15.5V1ZM15 1.5V4.5H16V1.5H15Z" fill="#3574F0"/>
</svg>
