<!-- Copyright 2000-2022 JetBrains s.r.o. and contributors. Use of this source code is governed by the Apache 2.0 license. -->
<svg width="16" height="16" viewBox="0 0 16 16" fill="none" xmlns="http://www.w3.org/2000/svg">
<g clip-path="url(#clip0_2426_34182)">
<path fill-rule="evenodd" clip-rule="evenodd" d="M6.3098 7C6.20721 6.54122 6.13882 6.03527 6.11237 5.5H4.66178C4.77047 6.23185 5.11409 6.88706 5.61351 7.38649L5 8L4.81554 7.99999C4.07739 7.21675 3.625 6.1612 3.625 5C3.625 2.58375 5.58375 0.625 8 0.625C10.4162 0.625 12.375 2.58375 12.375 5C12.375 6.16113 11.9227 7.21661 11.1846 7.99984H9.54801C10.4921 7.5117 11.1762 6.59101 11.3382 5.5H9.88783C9.84739 6.31845 9.70887 7.06838 9.5 7.68592V7H8.66165C8.77521 6.56555 8.85585 6.05758 8.88648 5.5H7.11371C7.14434 6.05758 7.22499 6.56555 7.33854 7H6.3098ZM7.57383 2.30475C7.33929 2.84482 7.16266 3.60907 7.11371 4.5H8.88648C8.83754 3.60907 8.66091 2.84482 8.42636 2.30475C8.28699 1.98383 8.14681 1.78731 8.04196 1.68519C8.02571 1.66937 8.01176 1.6571 8.0001 1.64763C7.98843 1.6571 7.97448 1.66937 7.95824 1.68519C7.85339 1.78731 7.7132 1.98383 7.57383 2.30475ZM9.88783 4.5H11.3382C11.1646 3.33105 10.3916 2.35762 9.3418 1.90226C9.6385 2.58365 9.8379 3.4896 9.88783 4.5ZM4.66178 4.5H6.11237C6.1623 3.48955 6.36171 2.58356 6.65844 1.90215C5.60848 2.35747 4.83539 3.33096 4.66178 4.5Z" fill="#CED0D6"/>
<path d="M1.26612 9.69092H3.63899C4.33545 9.69676 4.84013 9.89757 5.15303 10.293C5.46593 10.6884 5.56917 11.2285 5.46292 11.9133C5.42166 12.2262 5.33011 12.5331 5.18845 12.8341C5.05263 13.1351 4.86385 13.4066 4.62179 13.6487C4.3266 13.9555 4.01086 14.1503 3.67441 14.233C3.33796 14.3157 2.98965 14.357 2.62964 14.357H1.56716L1.23071 16.0392H0L1.26612 9.69092V9.69092ZM2.30204 10.7003L1.7708 13.3565C1.80622 13.3623 1.84163 13.3653 1.87705 13.3653C1.91831 13.3653 1.95974 13.3653 2.001 13.3653C2.56766 13.3712 3.03993 13.3152 3.41764 13.1971C3.79536 13.0731 4.04929 12.6423 4.17909 11.9044C4.28534 11.2846 4.17909 10.9275 3.86034 10.8331C3.54745 10.7387 3.15503 10.6944 2.68276 10.7003C2.61193 10.7061 2.54411 10.7091 2.47912 10.7091C2.42015 10.7091 2.35817 10.7091 2.29319 10.7091L2.30204 10.7003" fill="#999DF7"/>
<path d="M6.86482 8H8.08667L7.74137 9.69111H8.83926C9.44133 9.70298 9.88988 9.82693 10.1851 10.063C10.4861 10.299 10.5746 10.7477 10.4507 11.4088L9.85747 14.3572H8.61791L9.18457 11.5416C9.24354 11.2464 9.22583 11.0369 9.13144 10.913C9.03706 10.789 8.83342 10.727 8.52052 10.727L7.53772 10.7182L6.8117 14.3572H5.58984L6.86482 8Z" fill="#999DF7"/>
<path d="M11.7622 9.69092H14.1351C14.8315 9.69676 15.3362 9.89757 15.6491 10.293C15.962 10.6884 16.0653 11.2285 15.959 11.9133C15.9177 12.2262 15.8262 12.5331 15.6845 12.8341C15.5487 13.1351 15.3599 13.4066 15.1179 13.6487C14.8227 13.9555 14.507 14.1503 14.1705 14.233C13.8341 14.3157 13.4857 14.357 13.1257 14.357H12.0633L11.7268 16.0392H10.4961L11.7622 9.69092V9.69092ZM12.7981 10.7003L12.2669 13.3565C12.3023 13.3623 12.3377 13.3653 12.3731 13.3653C12.4144 13.3653 12.4558 13.3653 12.4971 13.3653C13.0638 13.3712 13.536 13.3152 13.9137 13.1971C14.2915 13.0731 14.5454 12.6423 14.6752 11.9044C14.7814 11.2846 14.6752 10.9275 14.3564 10.8331C14.0435 10.7387 13.6511 10.6944 13.1789 10.7003C13.108 10.7061 13.0402 10.7091 12.9752 10.7091C12.9162 10.7091 12.8543 10.7091 12.7893 10.7091L12.7981 10.7003" fill="#999DF7"/>
</g>
<defs>
<clipPath id="clip0_2426_34182">
<rect width="16" height="16" fill="white"/>
</clipPath>
</defs>
</svg>
