<svg width="32" height="32" viewBox="0 0 32 32" fill="none" xmlns="http://www.w3.org/2000/svg" data-scaled="true">
<path d="M30 2H2V30H30V2Z" fill="url(#paint0_linear)"/>
<path d="M24.9001 7.09998H7.1001V24.9H24.9001V7.09998Z" fill="url(#paint1_linear)"/>
<path d="M27.5999 4.40002H4.3999V27.6H27.5999V4.40002V4.40002Z" fill="url(#paint2_linear)"/>
<path d="M7.1 7.1H24.9L30 2H2L7.1 7.1Z" fill="url(#paint3_linear)"/>
<path d="M24.9 24.9H7.1L2 30H30L24.9 24.9Z" fill="url(#paint4_linear)"/>
<path d="M24.8999 7.1V24.9L29.9999 30V2L24.8999 7.1Z" fill="url(#paint5_linear)"/>
<path d="M7.1 24.9V7.1L2 2V30L7.1 24.9Z" fill="url(#paint6_linear)"/>
<path d="M4.4 4.4H27.6L30 2H2L4.4 4.4Z" fill="url(#paint7_linear)"/>
<path d="M4.4 4.4H27.6L30 2H2L4.4 4.4Z" fill="url(#paint8_linear)"/>
<path d="M4.4 4.4H27.6L30 2H2L4.4 4.4Z" fill="url(#paint9_linear)"/>
<path d="M27.5999 4.40002H4.3999L7.0999 7.10002H24.8999L27.5999 4.40002Z" fill="url(#paint10_linear)"/>
<path d="M27.6 27.6H4.4L2 30H30L27.6 27.6Z" fill="url(#paint11_linear)"/>
<path d="M27.6 27.6H4.4L2 30H30L27.6 27.6Z" fill="url(#paint12_linear)"/>
<path d="M27.6 27.6H4.4L2 30H30L27.6 27.6Z" fill="url(#paint13_linear)"/>
<path d="M27.6001 27.6L30.0001 30V2L27.6001 4.4V27.6Z" fill="url(#paint14_linear)"/>
<path d="M27.6001 27.6L30.0001 30V2L27.6001 4.4V27.6Z" fill="url(#paint15_linear)"/>
<path d="M27.6001 27.6L30.0001 30V2L27.6001 4.4V27.6Z" fill="url(#paint16_linear)"/>
<path d="M27.6001 27.6L30.0001 30V2L27.6001 4.4V27.6Z" fill="url(#paint17_linear)"/>
<path d="M4.4 27.6V4.4L2 2V30L4.4 27.6Z" fill="url(#paint18_linear)"/>
<path d="M4.4 27.6V4.4L2 2V30L4.4 27.6Z" fill="url(#paint19_linear)"/>
<path d="M4.3999 4.40002V27.6L7.0999 24.9V7.10002L4.3999 4.40002Z" fill="url(#paint20_linear)"/>
<path d="M26 6H6V26H26V6Z" fill="url(#paint21_linear)"/>
<path d="M15 22H8V23.6H15V22Z" fill="white"/>
<path d="M12 9.49333V8H8V9.49333H9.18919V14.5067H8V16H12V14.5067H10.9189V9.49333H12Z" fill="white"/>
<path d="M15.5 16C14.9 16 14.4 15.8947 14 15.6842C13.6 15.4737 13.3 15.1579 13 14.8421L14 13.5789C14.2 13.7895 14.4 14 14.6 14.1053C14.8 14.2105 15.1 14.3158 15.3 14.3158C15.6 14.3158 15.9 14.2105 16 14C16.2 13.7895 16.3 13.4737 16.3 13.0526V8H18V13.1579C18 13.5789 17.9 14 17.8 14.4211C17.7 14.7368 17.5 15.0526 17.3 15.2632C17.1 15.4737 16.8 15.6842 16.5 15.7895C16.3 15.8947 15.9 16 15.5 16Z" fill="white"/>
<defs>
<linearGradient id="paint0_linear" x1="33.1301" y1="33.1298" x2="-6.4216" y2="-6.4214" gradientUnits="userSpaceOnUse">
<stop offset="0.3475" stop-color="#087CFA"/>
<stop offset="0.8562" stop-color="#FE2857"/>
<stop offset="1" stop-color="#FE2857"/>
</linearGradient>
<linearGradient id="paint1_linear" x1="26.9011" y1="26.9008" x2="1.7318" y2="1.73188" gradientUnits="userSpaceOnUse">
<stop offset="0.3475" stop-color="#087CFA"/>
<stop offset="0.8562" stop-color="#FE2857"/>
<stop offset="1" stop-color="#FE2857"/>
</linearGradient>
<linearGradient id="paint2_linear" x1="30.1899" y1="30.1899" x2="-2.5734" y2="-2.57327" gradientUnits="userSpaceOnUse">
<stop  offset="0" stop-color="#087CFA"/>
<stop offset="0.2816" stop-color="#0855FA"/>
<stop offset="0.7644" stop-color="#E0326B"/>
<stop offset="0.7721" stop-color="#FE2857"/>
<stop offset="1" stop-color="#FE2857"/>
</linearGradient>
<linearGradient id="paint3_linear" x1="32.0122" y1="9.9413" x2="3.016" y2="-1.6768" gradientUnits="userSpaceOnUse">
<stop offset="0.3475" stop-color="#087CFA"/>
<stop offset="0.7698" stop-color="#F01A72"/>
<stop offset="0.9872" stop-color="#FE2857"/>
</linearGradient>
<linearGradient id="paint4_linear" x1="33.1745" y1="30.7699" x2="7.091" y2="26.3845" gradientUnits="userSpaceOnUse">
<stop offset="0.2513" stop-color="#087CFA" stop-opacity="0.9703"/>
<stop offset="0.5721" stop-color="#087CFA"/>
<stop offset="0.8921" stop-color="#087CFA" stop-opacity="0.5"/>
</linearGradient>
<linearGradient id="paint5_linear" x1="27.1266" y1="2.5492" x2="27.9775" y2="30.858" gradientUnits="userSpaceOnUse">
<stop offset="0.018393" stop-color="#429EFA"/>
<stop offset="0.518" stop-color="#087CFA"/>
<stop offset="1" stop-color="#965CF3" stop-opacity="0.9769"/>
</linearGradient>
<linearGradient id="paint6_linear" x1="5.7081" y1="27.93" x2="2.5663" y2="2.5666" gradientUnits="userSpaceOnUse">
<stop offset="0.323" stop-color="#087CFA"/>
<stop offset="0.7201" stop-color="#DF0373"/>
<stop offset="1" stop-color="#FE2857"/>
</linearGradient>
<linearGradient id="paint7_linear" x1="14.8679" y1="3.146" x2="8.0607" y2="8.5787" gradientUnits="userSpaceOnUse">
<stop offset="0.1018" stop-color="#FF00BB" stop-opacity="0"/>
<stop offset="0.8133" stop-color="#FCBD36"/>
<stop offset="1" stop-color="white" stop-opacity="0.9"/>
</linearGradient>
<linearGradient id="paint8_linear" x1="30.4417" y1="5.3766" x2="21.2781" y2="3.8712" gradientUnits="userSpaceOnUse">
<stop offset="0.018393" stop-color="#00FFFA"/>
<stop offset="0.8562" stop-color="#07C3F2" stop-opacity="0"/>
</linearGradient>
<linearGradient id="paint9_linear" x1="16.4145" y1="-1.2127" x2="15.8811" y2="2.9206" gradientUnits="userSpaceOnUse">
<stop offset="0.2032" stop-color="#087CFA"/>
<stop offset="1" stop-color="#6D6E71" stop-opacity="0"/>
</linearGradient>
<linearGradient id="paint10_linear" x1="24.4653" y1="2.21552" x2="9.7381" y2="7.51723" gradientUnits="userSpaceOnUse">
<stop offset="0.1744" stop-color="#0861FA"/>
<stop offset="0.723" stop-color="#0855FA" stop-opacity="0"/>
</linearGradient>
<linearGradient id="paint11_linear" x1="32.9917" y1="31.8572" x2="6.9082" y2="27.4718" gradientUnits="userSpaceOnUse">
<stop  offset="0" stop-color="#434FCF" stop-opacity="0"/>
<stop offset="1" stop-color="#1B6EEC"/>
</linearGradient>
<linearGradient id="paint12_linear" x1="15.9999" y1="25.9506" x2="15.9999" y2="29.3655" gradientUnits="userSpaceOnUse">
<stop offset="0.018393" stop-color="#42FFFA"/>
<stop offset="0.8562" stop-color="#07C3F2" stop-opacity="0"/>
</linearGradient>
<linearGradient id="paint13_linear" x1="28.8475" y1="24.0468" x2="20.6657" y2="27.3849" gradientUnits="userSpaceOnUse">
<stop offset="0.018393" stop-color="#FF39FF" stop-opacity="0.5"/>
<stop offset="0.8562" stop-color="#FF318C" stop-opacity="0"/>
</linearGradient>
<linearGradient id="paint14_linear" x1="28.4292" y1="2.51" x2="29.2801" y2="30.8188" gradientUnits="userSpaceOnUse">
<stop offset="0.018393" stop-color="#085EFA"/>
<stop offset="0.8562" stop-color="#FF45ED" stop-opacity="0"/>
</linearGradient>
<linearGradient id="paint15_linear" x1="24.4829" y1="15.7574" x2="30.4392" y2="16.0192" gradientUnits="userSpaceOnUse">
<stop offset="0.018393" stop-color="#42FFFA"/>
<stop offset="0.8562" stop-color="#07C3F2" stop-opacity="0"/>
</linearGradient>
<linearGradient id="paint16_linear" x1="19.6479" y1="-1.8528" x2="31.6259" y2="19.9434" gradientUnits="userSpaceOnUse">
<stop offset="0.018393" stop-color="#42FFFA"/>
<stop offset="0.8562" stop-color="#07C3F2" stop-opacity="0"/>
</linearGradient>
<linearGradient id="paint17_linear" x1="23.8069" y1="3.044" x2="27.8651" y2="12.6003" gradientUnits="userSpaceOnUse">
<stop offset="0.018393" stop-color="#42FFFA" stop-opacity="0.5"/>
<stop offset="0.8562" stop-color="#07C3F2" stop-opacity="0"/>
</linearGradient>
<linearGradient id="paint18_linear" x1="1.4338" y1="21.9479" x2="5.8847" y2="3.9481" gradientUnits="userSpaceOnUse">
<stop offset="0.4995" stop-color="#FF318C" stop-opacity="0"/>
<stop offset="0.9613" stop-color="#FCBD36"/>
</linearGradient>
<linearGradient id="paint19_linear" x1="-3.5761" y1="28.2821" x2="2.6905" y2="15.8155" gradientUnits="userSpaceOnUse">
<stop offset="0.00131053" stop-color="#5AFFFA" stop-opacity="0.5"/>
<stop offset="0.9231" stop-color="#07C3F2" stop-opacity="0"/>
</linearGradient>
<linearGradient id="paint20_linear" x1="1.94487" y1="17.3719" x2="7.5739" y2="14.2301" gradientUnits="userSpaceOnUse">
<stop offset="0.018393" stop-color="#0855FA"/>
<stop offset="0.723" stop-color="#0855FA" stop-opacity="0"/>
</linearGradient>
<linearGradient id="paint21_linear" x1="6.03045" y1="6.03045" x2="23.5544" y2="23.5544" gradientUnits="userSpaceOnUse">
<stop offset="0.1196" stop-color="#5A044A"/>
<stop offset="0.3733" stop-color="#39032F"/>
<stop offset="0.7299" stop-color="#10010D"/>
<stop offset="0.9138"/>
</linearGradient>
</defs>
</svg>
