<!-- Copyright 2000-2024 JetBrains s.r.o. and contributors. Use of this source code is governed by the Apache 2.0 license. -->
<svg width="64" height="64" viewBox="0 0 64 64" fill="none" xmlns="http://www.w3.org/2000/svg">
<g clip-path="url(#clip0_4372_11172)">
<path d="M59.9273 0H24.9606C23.8807 0 22.8445 0.4288 22.0806 1.19273L1.19273 22.08C0.4288 22.8439 0 23.8796 0 24.96V59.9273C0 62.1766 1.82342 64 4.07273 64H39.0388C40.1199 64 41.1567 63.57 41.9206 62.8055L62.8073 41.895C63.57 41.1316 63.9983 40.096 63.9983 39.0167L64 4.07273C64 1.82342 62.1766 0 59.9273 0Z" fill="url(#paint0_linear_4372_11172)"/>
<path d="M52 12H12V52H52V12Z" fill="black"/>
<path d="M33 44H17V47H33V44Z" fill="white"/>
<path d="M16.8999 29.3856H19.0322V19.6144H16.8999V17H24.0463V19.6144H21.9141V29.3856H24.0463V32H16.8999V29.3856Z" fill="white"/>
<path d="M25.3653 29.3001H27.8512C28.1869 29.3001 28.4797 29.2323 28.7299 29.0963C28.9802 28.9609 29.173 28.768 29.3085 28.5178C29.4439 28.2675 29.5122 27.9748 29.5122 27.639V17H32.4372V27.8531C32.4372 28.6744 32.2621 29.3994 31.912 30.0279C31.5619 30.6495 31.0654 31.135 30.4225 31.4852C29.7866 31.8278 29.0513 31.9994 28.2156 31.9994H25.3659V29.2995L25.3653 29.3001Z" fill="white"/>
</g>
<defs>
<linearGradient id="paint0_linear_4372_11172" x1="1.19273" y1="62.8067" x2="62.8067" y2="1.19273" gradientUnits="userSpaceOnUse">
<stop offset="0.21" stop-color="#FE2857"/>
<stop offset="0.7" stop-color="#007EFF"/>
</linearGradient>
<clipPath id="clip0_4372_11172">
<rect width="64" height="64" fill="white"/>
</clipPath>
</defs>
</svg>
