<!-- Copyright 2000-2024 JetBrains s.r.o. and contributors. Use of this source code is governed by the Apache 2.0 license. -->
<svg width="16" height="16" viewBox="0 0 16 16" fill="none" xmlns="http://www.w3.org/2000/svg">
<g clip-path="url(#clip0_4372_11168)">
<g clip-path="url(#clip1_4372_11168)">
<path d="M16 0H0V16H16V0Z" fill="#087CFA"/>
<path d="M15 1H1V15H15V1Z" fill="black"/>
<path d="M8 12H3V13H8V12Z" fill="white"/>
<path d="M3 7.12853H3.99293V3.87147H3V3H5.94633V3.87147H4.9534V7.12853H5.94633V8H3V7.12853Z" fill="white"/>
<path d="M6.44585 7.10008H7.16376C7.30891 7.10008 7.43821 7.06914 7.55127 7.00726C7.66433 6.94538 7.75181 6.85791 7.81368 6.74484C7.87556 6.63178 7.9065 6.50267 7.9065 6.35733V3H8.88148V6.42494C8.88148 6.72498 8.81235 6.99465 8.67427 7.23396C8.53618 7.47326 8.34577 7.66081 8.10284 7.79641C7.8599 7.9322 7.58737 8 7.28504 8H6.44585V7.10008Z" fill="white"/>
</g>
</g>
<defs>
<clipPath id="clip0_4372_11168">
<rect width="16" height="16" fill="white"/>
</clipPath>
<clipPath id="clip1_4372_11168">
<rect width="16" height="16" fill="white"/>
</clipPath>
</defs>
</svg>
