<!-- Copyright 2000-2024 JetBrains s.r.o. and contributors. Use of this source code is governed by the Apache 2.0 license. -->
<svg width="64" height="64" viewBox="0 0 64 64" fill="none" xmlns="http://www.w3.org/2000/svg">
<g clip-path="url(#clip0_4372_11172)">
<path d="M59.9273 0H24.9606C23.8807 0 22.8445 0.4288 22.0806 1.19273L1.19273 22.08C0.4288 22.8439 0 23.8796 0 24.96V59.9273C0 62.1766 1.82342 64 4.07273 64H39.0388C40.1199 64 41.1567 63.57 41.9206 62.8055L62.8073 41.895C63.57 41.1316 63.9983 40.096 63.9983 39.0167L64 4.07273C64 1.82342 62.1766 0 59.9273 0Z" fill="url(#paint0_radial_4372_11172)"/>
<path d="M52 12H12V52H52V12Z" fill="black"/>
<path d="M33 44H17V47H33V44Z" fill="white"/>
<path d="M17 29.3856H19.9788V19.6144H17V17H25.839V19.6144H22.8602V29.3856H25.839V32H17V29.3856Z" fill="white"/>
<path d="M27.3389 29.3002H29.4926C29.9281 29.3002 30.316 29.2074 30.6552 29.0218C30.9944 28.8361 31.2568 28.5737 31.4424 28.2345C31.6281 27.8953 31.7209 27.508 31.7209 27.072V17H34.6458V27.2748C34.6458 28.1749 34.4384 28.984 34.0242 29.7019C33.6099 30.4198 33.0387 30.9824 32.3099 31.3892C31.5811 31.7966 30.7635 32 29.8565 32H27.3389V29.3002Z" fill="white"/>
</g>
<defs>
<radialGradient id="paint0_radial_4372_11172" cx="0" cy="0" r="1" gradientUnits="userSpaceOnUse" gradientTransform="translate(62.25 1.75) rotate(135) scale(85.5599)">
<stop offset="0.0810525" stop-color="#FE2857"/>
<stop offset="0.720942" stop-color="#007EFF"/>
</radialGradient>
<clipPath id="clip0_4372_11172">
<rect width="64" height="64" fill="white"/>
</clipPath>
</defs>
</svg>
