<!-- Copyright 2000-2024 JetBrains s.r.o. and contributors. Use of this source code is governed by the Apache 2.0 license. -->
<svg width="16" height="16" viewBox="0 0 16 16" fill="none" xmlns="http://www.w3.org/2000/svg">
<g clip-path="url(#clip0_4372_11168)">
<g clip-path="url(#clip1_4372_11168)">
<path d="M16 0H0V16H16V0Z" fill="#087CFA"/>
<path d="M15 1H1V15H15V1Z" fill="black"/>
<path d="M8 12H3V13H8V12Z" fill="white"/>
<path d="M2.81982 7.1825H3.56282V3.7777H2.81982V2.8667H5.31002V3.7777H4.56702V7.1825H5.31002V8.0935H2.81982V7.1825Z" fill="white"/>
<path d="M5.7696 7.1527H6.6358C6.7528 7.1527 6.8548 7.1291 6.942 7.0817C7.0292 7.0345 7.0964 6.9673 7.1436 6.8801C7.1908 6.7929 7.2146 6.6909 7.2146 6.5739V2.8667H8.2338V6.6485C8.2338 6.9347 8.1728 7.1873 8.0508 7.4063C7.9288 7.6229 7.7558 7.7921 7.5318 7.9141C7.3102 8.0335 7.054 8.0933 6.7628 8.0933H5.7698V7.1525L5.7696 7.1527Z" fill="white"/>
</g>
</g>
<defs>
<clipPath id="clip0_4372_11168">
<rect width="16" height="16" fill="white"/>
</clipPath>
<clipPath id="clip1_4372_11168">
<rect width="16" height="16" fill="white"/>
</clipPath>
</defs>
</svg>
