<!-- Copyright 2000-2024 JetBrains s.r.o. and contributors. Use of this source code is governed by the Apache 2.0 license. -->
<svg width="32" height="32" viewBox="0 0 32 32" fill="none" xmlns="http://www.w3.org/2000/svg" data-scaled="true">
<g clip-path="url(#clip0_4372_11170)">
<path d="M29.9636 0H12.4803C11.9404 0 11.4223 0.2144 11.0403 0.596364L0.596364 11.04C0.2144 11.422 0 11.9398 0 12.48V29.9636C0 31.0883 0.911709 32 2.03636 32H19.5194C20.0599 32 20.5783 31.785 20.9603 31.4028L31.4036 20.9475C31.785 20.5658 31.9991 20.048 31.9991 19.5084L32 2.03636C32 0.911709 31.0883 0 29.9636 0Z" fill="url(#paint0_linear_4372_11170)"/>
<path d="M26 6H6V26H26V6Z" fill="black"/>
<path d="M8.9502 15.2754H10.0306V10.3246H8.9502V9H12.5711V10.3246H11.4907V15.2754H12.5711V16.6H8.9502V15.2754Z" fill="white"/>
<path d="M13.2392 15.232H14.4987C14.6688 15.232 14.8171 15.1977 14.9439 15.1288C15.0707 15.0602 15.1684 14.9625 15.2371 14.8357C15.3057 14.7089 15.3403 14.5606 15.3403 14.3904V9H16.8223V14.4989C16.8223 14.9151 16.7336 15.2823 16.5562 15.6008C16.3788 15.9157 16.1272 16.1618 15.8015 16.3391C15.4793 16.5128 15.1068 16.5997 14.6834 16.5997H13.2395V15.2317L13.2392 15.232Z" fill="white"/>
<path d="M16 22H9V23H16V22Z" fill="white"/>
</g>
<defs>
<linearGradient id="paint0_linear_4372_11170" x1="0.596364" y1="31.4033" x2="31.4033" y2="0.596364" gradientUnits="userSpaceOnUse">
<stop offset="0.21" stop-color="#FE2857"/>
<stop offset="0.7" stop-color="#007EFF"/>
</linearGradient>
<clipPath id="clip0_4372_11170">
<rect width="32" height="32" fill="white"/>
</clipPath>
</defs>
</svg>
