<!-- Copyright 2000-2026 JetBrains s.r.o. and contributors. Use of this source code is governed by the Apache 2.0 license. -->
<svg xmlns="http://www.w3.org/2000/svg" width="40" height="40" viewBox="0 0 40 40">
  <rect width="40" height="40" rx="8" fill="#1E6F7E"/>
  <path d="M11 15.5c0-4 3.3-7.5 9.2-7.5 3.4 0 6.2 1 8.2 2.8l-2.7 3.6c-1.5-1.2-3.2-1.8-5.2-1.8-3.1 0-4.8 1.6-4.8 3.2 0 5.2 14.3 1.7 14.3 10.6 0 4.7-3.9 7.6-10.1 7.6-4.3 0-7.6-1.3-9.9-3.4l2.7-3.7c1.9 1.6 4.4 2.5 7.1 2.5 3.2 0 5.2-1.1 5.2-3 0-5.3-14-1.8-14-10.9z" fill="#FFFFFF"/>
  <circle cx="29" cy="11" r="4" fill="#A7E0E8"/>
</svg>
