<svg xmlns="http://www.w3.org/2000/svg" width="16" height="16" viewBox="0 0 16 16">
  <g fill="none" fill-rule="evenodd">
    <path fill="#62B543" fill-opacity=".6" d="M14.9291115,9 L10.4931667,9 C9.1165,9 8,10.076 8,11.403 L8,14.596 C8,14.7336514 8.01199566,14.8685954 8.03503331,14.9999142 C8.02336227,14.9999714 8.01168448,15 8,15 C4.134,15 1,11.866 1,8 C1,4.134 4.134,1 8,1 C11.866,1 15,4.134 15,8 C15,8.33952142 14.9758282,8.67339709 14.9291115,9 Z"/>
    <path fill="#231F20" fill-opacity=".7" d="M8.03503148,10.9993761 C6.25884694,10.9670938 5.0956,9.68570866 5.0956,8.01657459 L5.0956,8 C5.0956,6.37569061 6.33869392,5 8.08731271,5 C9.09836243,5 9.71990939,5.28176796 10.3165945,5.78729282 L9.67018564,6.55801105 C9.22267182,6.18508287 8.7834453,5.94475138 8.04587624,5.94475138 C6.97681547,5.94475138 6.16466077,6.87292818 6.16466077,7.98342541 L6.16466077,8 C6.16466077,9.19337017 6.95195359,10.0718232 8.13703646,10.0718232 C8.23614421,10.0718232 8.3336194,10.0661093 8.42891972,10.0551745 C8.23274347,10.3337092 8.09565445,10.6540241 8.03503148,10.9993761 Z M9.53758895,9.18289517 L9.53758895,8.55524862 L8.05416354,8.55524862 L8.05416354,7.66022099 L10.5237768,7.66022099 L10.5237768,9 L10.4931667,9 C10.1546682,9 9.831899,9.06505311 9.53758895,9.18289517 Z"/>
    <path fill="#9AA7B0" d="M13,10 L13,15.625 L13,16 L12,16 L10.4246667,16 C9.638,16 9,15.193 9,14.197 L9,11.80225 C9,10.807 9.638,10 10.4246667,10 L13,10 Z M14,12 L14,11 L16,11 L16,12 L14,12 Z M14,15 L14,14 L16,14 L16,15 L14,15 Z"/>
  </g>
</svg>
