<!-- Copyright 2000-2024 JetBrains s.r.o. and contributors. Use of this source code is governed by the Apache 2.0 license. -->
<svg width="16" height="16" viewBox="0 0 16 16" fill="none" xmlns="http://www.w3.org/2000/svg">
<path fill-rule="evenodd" clip-rule="evenodd" d="M16 12.5C16 14.433 14.433 16 12.5 16C10.567 16 9 14.433 9 12.5C9 10.567 10.567 9 12.5 9C14.433 9 16 10.567 16 12.5ZM15 12.5C15 13.8807 13.8807 15 12.5 15C11.9905 15 11.5165 14.8476 11.1213 14.5858L14.5858 11.1213C14.8476 11.5165 15 11.9905 15 12.5ZM10.4142 13.8787L13.8787 10.4142C13.4835 10.1524 13.0096 10 12.5 10C11.1193 10 10 11.1193 10 12.5C10 13.0096 10.1524 13.4835 10.4142 13.8787Z" fill="#CED0D6"/>
<path d="M13.1621 3.2012C15.2238 3.2012 15.582 4.93587 15.2238 6.49891L14.7585 8.60692C14.2761 8.3265 13.7369 8.13315 13.1623 8.0484L13.5034 6.49891C14.0739 4.02039 10.839 4.32608 9.52649 6.16652L8.11076 12.5161C8.0153 12.9485 7.56989 13.2253 7.1159 13.1344C7.09727 13.1307 7.07892 13.1264 7.06087 13.1215C6.6287 13.0153 6.35674 12.6027 6.44951 12.1825L7.7054 6.49494C7.96685 5.37585 7.42991 4.82551 6.65007 4.7291C5.72182 4.62955 4.4504 5.17597 3.74084 6.17093L3.7399 6.16422L3.73837 6.16652L2.31807 12.5223C2.22161 12.9544 1.77556 13.2303 1.32178 13.1385C0.867995 13.0466 0.578324 12.6218 0.674778 12.1896L2.5029 3.99851C2.59936 3.56634 3.04541 3.29046 3.49919 3.38233C4.01496 3.48674 4.22722 3.95973 4.12783 4.41342C5.07731 3.66536 6.18382 3.13683 7.44866 3.20633C8.6834 3.23114 9.28702 3.89462 9.48446 4.76249C10.6229 3.78927 11.5848 3.2012 13.1621 3.2012Z" fill="#548AF7"/>
</svg>
