<!-- Copyright 2000-2022 JetBrains s.r.o. and contributors. Use of this source code is governed by the Apache 2.0 license. -->
<svg width="16" height="16" viewBox="0 0 16 16" fill="none" xmlns="http://www.w3.org/2000/svg">
<g clip-path="url(#clip0_2513_36193)">
<path d="M15.2238 6.49867C15.582 4.93562 15.2238 3.20095 13.1621 3.20095C11.5848 3.20095 10.6229 3.78903 9.48446 4.76224C9.28702 3.89438 8.6834 3.2309 7.44866 3.20608C6.18382 3.13659 5.07731 3.66511 4.12783 4.41318C4.22722 3.95949 4.01496 3.48649 3.49919 3.38208C3.04541 3.29022 2.59936 3.5661 2.5029 3.99827L0.674778 12.1894C0.578324 12.6215 0.867995 13.0464 1.32178 13.1382C1.77556 13.2301 2.22161 12.9542 2.31807 12.522L3.73837 6.16628L3.7399 6.16398L3.74084 6.17069C4.4504 5.17572 5.72182 4.6293 6.65007 4.72885C7.42991 4.82527 7.96685 5.37561 7.7054 6.4947L6.44951 12.1823C6.35674 12.6025 6.6287 13.015 7.06087 13.1213C7.07892 13.1261 7.09727 13.1304 7.1159 13.1342C7.56989 13.2251 8.0153 12.9482 8.11076 12.5159L9.52649 6.16628C10.839 4.32583 14.0739 4.02014 13.5034 6.49867L13.1623 8.04838C13.7368 8.13312 14.2761 8.32646 14.7584 8.60687L15.2238 6.49867Z" fill="#3574F0"/>
<circle cx="12.5" cy="12.5" r="2.75" stroke="#6C707E"/>
<path d="M10.25 14.75L14.75 10.25" stroke="#6C707E"/>
</g>
<defs>
<clipPath id="clip0_2513_36193">
<rect width="16" height="16" fill="white"/>
</clipPath>
</defs>
</svg>
