<!-- Copyright 2000-2023 JetBrains s.r.o. and contributors. Use of this source code is governed by the Apache 2.0 license. -->
<svg width="16" height="16" viewBox="0 0 16 16" xmlns="http://www.w3.org/2000/svg">
  <path fill="#A571E6" d="M9.242 14C5.048 14 2 11.79 2 8.774c0-2.42 2.048-4.161 4.871-4.161C9.274 4.613 11 5.677 11 7.226c0 1.451-1.468 2.21-3.274 1.532L7.984 8C6.823 7.645 6 7.952 6 8.742c0 .952 1.258 1.71 3.08 1.71 2.162 0 3.92-1.355 3.92-3.226C13 4.774 10.371 3 6.758 3c-.887 0-2.08.21-2.855.548-.548.226-.903 0-.903-.354 0-.275.194-.468.58-.63C4.356 2.227 5.678 2 6.759 2 10.952 2 14 4.21 14 7.226c0 2.42-2.048 4.161-4.871 4.161C6.726 11.387 5 10.323 5 8.742c0-1.42 1.468-2.145 3.274-1.516L8.016 8C9.177 8.387 10 8.065 10 7.226c0-.92-1.258-1.678-3.08-1.678C4.676 5.548 3 6.935 3 8.774 3 11.226 5.629 13 9.242 13c.887 0 2.08-.21 2.855-.548.548-.226.903 0 .903.354 0 .275-.194.468-.58.63-.775.338-2.097.564-3.178.564Z"/>
</svg>
