<svg xmlns="http://www.w3.org/2000/svg" width="16" height="16" viewBox="0 0 16 16">
  <path fill="#9AA7B0" fill-opacity=".8" fill-rule="evenodd" d="M8,1 C4.136,1 1,4.136 1,8 C1,11.864 4.136,15 8,15 C11.864,15 15,11.864 15,8 C15,4.136 11.864,1 8,1 Z M10.1999969,11.7000122 C9.37199695,11.7000122 8.69999695,11.0280122 8.69999695,10.2000122 C8.69999695,9.37201221 9.37199695,8.70001221 10.1999969,8.70001221 C11.0279969,8.70001221 11.6999969,9.37201221 11.6999969,10.2000122 C11.6999969,11.0280122 11.0279969,11.7000122 10.1999969,11.7000122 Z M5.80000305,11.7000122 C4.97200305,11.7000122 4.30000305,11.0280122 4.30000305,10.2000122 C4.30000305,9.37201221 4.97200305,8.70001221 5.80000305,8.70001221 C6.62800305,8.70001221 7.30000305,9.37201221 7.30000305,10.2000122 C7.30000305,11.0280122 6.62800305,11.7000122 5.80000305,11.7000122 Z M8.69999695,5.79998779 C8.69999695,4.97198779 9.37199695,4.29998779 10.1999969,4.29998779 C11.0279969,4.29998779 11.6999969,4.97198779 11.6999969,5.79998779 C11.6999969,6.62798779 11.0279969,7.29998779 10.1999969,7.29998779 C9.37199695,7.29998779 8.69999695,6.62798779 8.69999695,5.79998779 Z M4.30000305,5.79998779 C4.30000305,4.97198779 4.97200305,4.29998779 5.80000305,4.29998779 C6.62800305,4.29998779 7.30000305,4.97198779 7.30000305,5.79998779 C7.30000305,6.62798779 6.62800305,7.29998779 5.80000305,7.29998779 C4.97200305,7.29998779 4.30000305,6.62798779 4.30000305,5.79998779 Z"/>
</svg>
