<!-- Copyright 2000-2026 JetBrains s.r.o. and contributors. Use of this source code is governed by the Apache 2.0 license. -->
<svg xmlns="http://www.w3.org/2000/svg" xml:space="preserve" fill-rule="evenodd" stroke-linejoin="round"
     stroke-miterlimit="2" clip-rule="evenodd" viewBox="0 0 16 16">
    <g fill="#CED0D6">
        <path
            d="M16 4v9a2 2 0 0 1-2 2h-4a2 2 0 0 1-2-2V4a2 2 0 0 1 2-2h4a2 2 0 0 1 2 2m-3.489 8.543q.802 0 1.43-.408.627-.406.992-1.185.365-.778.365-1.888 0-1.122-.371-1.898-.37-.774-1.002-1.173a2.6 2.6 0 0 0-1.408-.398q-.597 0-.983.202a1.9 1.9 0 0 0-.61.483 3 3 0 0 0-.338.515h-.066v-3.36H8.952v8.989h1.532v-1.068h.102q.121.241.35.519.23.277.613.474.383.195.962.196m-.422-1.291q-.766 0-1.183-.607-.416-.606-.416-1.589 0-.984.41-1.578t1.189-.594q.796 0 1.197.615.4.616.401 1.557 0 .947-.407 1.571t-1.191.625"/>
        <path fill-rule="nonzero"
              d="m0 12.285 2.991-8.57H4.94L8 12.285H6.315l-.731-2.123H2.381l-.702 2.123zm2.789-3.359h2.376l-.374-1.093a40 40 0 0 1-.394-1.311q-.204-.719-.446-1.61-.23.897-.425 1.624-.196.728-.374 1.297z"/>
    </g>
</svg>
