<!-- Copyright 2000-2025 JetBrains s.r.o. and contributors. Use of this source code is governed by the Apache 2.0 license. -->
<svg xmlns="http://www.w3.org/2000/svg" width="16" height="16" viewBox="0 0 16 16">
    <rect x="1.5" y="2" width="13" height="13" fill="none" rx="2" stroke="#CED0D6" clip-path="url(#boxClip)"/>
    <line x1="3" y1="5" x2="7" y2="5" stroke="#CED0D6"/>
    <line x1="5" y1="9" x2="5" y2="5" stroke="#CED0D6"/>
    <path fill="#CED0D6" transform="translate(0,-1)"
          d="M8,1 L10,1 L10,2 L8,2 L8,1 Z M11,1 L13,1 L13,2 L11,2 L11,1 Z M10,2 L11,2 L11,14 L10,14 L10,2 Z M8,14 L10,14 L10,15 L8,15 L8,14 Z M11,14 L13,14 L13,15 L11,15 L11,14 Z"/>
    <clipPath id="boxClip">
        <rect x="0" y="0" width="9" height="16"/>
        <rect x="12" y="0" width="4" height="16"/>
        <rect x="9" y="12" width="4" height="16"/>
    </clipPath>
</svg>
