<!-- Copyright 2000-2025 JetBrains s.r.o. and contributors. Use of this source code is governed by the Apache 2.0 license. -->
<svg xmlns="http://www.w3.org/2000/svg" width="16" height="16" viewBox="0 0 16 16">
    <path d="m1.11009 9h-1.1079593l3.2045493-8.727273h1.09091l3.20454 8.727273h-1.10795l-2.60796-7.34659h-.06818zm.40909-3.40909h4.46591v.9375h-4.46591zm9.30952 3.52909c-.696 0-1.24401-.176-1.64401-.528-.4-.36-.6-.844-.6-1.452 0-.616.2-1.1.6-1.452s.94001-.528 1.62001-.528h2.04v-.66c0-.408-.124-.72-.372-.936-.24-.224-.584-.336-1.032-.336-.392 0-.72.084-.984.252-.264.16-.416.38-.456.66h-1.08001c.072-.568.34-1.02.804-1.356.46401-.336 1.04401-.504 1.74001-.504.76 0 1.36.196 1.8.588s.66.924.66 1.596v4.536h-1.056v-1.26h-.18l.18-.18c0 .48-.188.86-.564 1.14-.368.28-.86.42-1.476.42zm.264-.852c.512 0 .932-.128 1.26-.384s.492-.584.492-.984v-.936h-2.016c-.36 0-.644.1-.85201.3-.208.2-.312.472-.312.816 0 .368.124.66.37201.876.256.208.608.312 1.056.312z"
          fill="#CED0D6" transform="translate(1,3)"/>
</svg>
