<svg xmlns="http://www.w3.org/2000/svg" width="13" height="13" viewBox="0 0 13 13">
  <g fill="none" fill-rule="evenodd">
    <g fill="#6E6E6E" transform="translate(1 1.2)">
      <path d="M0 0L9 0 9 2.79999995 0 2.79999995 0 0zM1 .899999976L1 1.89999998 3 1.89999998 3 .899999976 1 .899999976zM4 3.5999999L4 6.39999986 0 6.39999986 0 3.5999999 4 3.5999999zM9 3.5999999L9 6.39999986 9 3.5999999zM1 4.49999988L1 5.49999988 3 5.49999988 3 4.49999988 1 4.49999988zM4 7.19999981L4 9.99999976 0 9.99999976 0 7.19999981 4 7.19999981zM9 7.19999981L9 9.99999976 9 7.19999981zM1 8.09999979L1 9.09999979 3 9.09999979 3 8.09999979 1 8.09999979z"/>
    </g>
    <polygon fill="#6E6E6E" points="7 5 13 9 7 13"/>
  </g>
</svg>
