<svg width="16" height="16" viewBox="0 0 16 16" fill="none" xmlns="http://www.w3.org/2000/svg">
<path fill-rule="evenodd" clip-rule="evenodd" d="M3.14453 10.0137C3.53799 10.0137 3.88262 10.0878 4.17773 10.2354C4.47823 10.3829 4.70773 10.5907 4.86621 10.8584C5.03016 11.1262 5.11225 11.4378 5.1123 11.793C5.1123 12.1866 5.01418 12.5343 4.81738 12.835C4.62058 13.1356 4.34928 13.3489 4.00488 13.4746L5.19434 16H4.0459L3.00488 13.6221H2.27539V16H1.25V10.0137H3.14453ZM2.27539 12.7285H3.14453C3.42861 12.7285 3.65248 12.6487 3.81641 12.4902C3.98586 12.3262 4.0703 12.1049 4.07031 11.8262C4.07031 11.5419 3.98587 11.3173 3.81641 11.1533C3.6525 10.9896 3.42847 10.9083 3.14453 10.9082H2.27539V12.7285Z" fill="#548AF7"/>
<path d="M9.85645 10.8994H7.27344V12.4658H9.56934V13.3516H7.27344V15.1143H9.85645V16H6.26562V10.0137H9.85645V10.8994Z" fill="#548AF7"/>
<path d="M13.4912 10C13.6387 10.0366 13.7766 10.0871 13.9043 10.1533C14.1886 10.3009 14.4108 10.5085 14.5693 10.7764C14.6883 10.9773 14.7624 11.2046 14.792 11.458C14.8022 11.5426 14.8066 11.6299 14.8066 11.7197V14.2939C14.8066 14.5107 14.7783 14.7092 14.7227 14.8896C14.7189 14.902 14.713 14.9136 14.709 14.9258L13.7812 13.417V11.7197C13.7812 11.5419 13.7497 11.3887 13.6875 11.2598C13.6505 11.1853 13.6025 11.12 13.5439 11.0635C13.4976 11.0155 13.4451 10.9758 13.3877 10.9424C13.2559 10.8707 13.0951 10.834 12.9043 10.834C12.7151 10.834 12.5563 10.8678 12.4277 10.9355C12.3649 10.9701 12.3078 11.0125 12.2568 11.0635L12.2031 11.126C12.1528 11.1911 12.1128 11.2646 12.084 11.3467C12.0467 11.4551 12.0273 11.5793 12.0273 11.7197V14.2939C12.0273 14.4397 12.049 14.5687 12.0908 14.6816C12.1305 14.7864 12.188 14.8762 12.2646 14.9502C12.3107 14.9979 12.363 15.037 12.4199 15.0703C12.552 15.1424 12.7129 15.1797 12.9043 15.1797C13.0105 15.1797 13.1064 15.1662 13.1934 15.1445L12.4893 14H13.5938L14.8193 15.999H13.7197L13.6904 15.9521C13.641 15.9703 13.59 15.9856 13.5381 16H12.2656C12.1376 15.9646 12.0169 15.9188 11.9043 15.8604C11.62 15.7128 11.3978 15.5052 11.2393 15.2373C11.0807 14.9694 11.002 14.6547 11.002 14.2939V11.7197C11.002 11.3535 11.0817 11.0388 11.2402 10.7764C11.3988 10.5087 11.6202 10.3008 11.9043 10.1533C12.032 10.0871 12.1698 10.0366 12.3174 10H13.4912Z" fill="#548AF7"/>
<path d="M12.2041 2.01074C13.2128 2.113 14 2.96435 14 4V9H13V4C13 3.44772 12.5523 3 12 3H4C3.44772 3 3 3.44772 3 4V9H2V4C2 2.89543 2.89543 2 4 2H12L12.2041 2.01074Z" fill="#CED0D6"/>
<path d="M10.5 8C10.7761 8 11 8.22386 11 8.5C11 8.77614 10.7761 9 10.5 9H5.5C5.22386 9 5 8.77614 5 8.5C5 8.22386 5.22386 8 5.5 8H10.5Z" fill="#CED0D6"/>
<path d="M11 5.5C11 5.77614 10.7761 6 10.5 6H5.5C5.22386 6 5 5.77614 5 5.5C5 5.22386 5.22386 5 5.5 5H10.5C10.7761 5 11 5.22386 11 5.5Z" fill="#CED0D6"/>
<path fill-rule="evenodd" clip-rule="evenodd" d="M12 3C12.5523 3 13 3.44772 13 4V9H10.5C10.7761 9 11 8.77614 11 8.5C11 8.22386 10.7761 8 10.5 8H5.5C5.22386 8 5 8.22386 5 8.5C5 8.77614 5.22386 9 5.5 9H3V4C3 3.44772 3.44772 3 4 3H12ZM5.5 5C5.22386 5 5 5.22386 5 5.5C5 5.77614 5.22386 6 5.5 6H10.5C10.7761 6 11 5.77614 11 5.5C11 5.22386 10.7761 5 10.5 5H5.5Z" fill="#43454A"/>
</svg>
