<!-- Copyright 2000-2023 JetBrains s.r.o. and contributors. Use of this source code is governed by the Apache 2.0 license. -->
<svg width="20" height="20" viewBox="0 0 20 20" fill="none" xmlns="http://www.w3.org/2000/svg">
  <path d="M14.9982 16.25C15.6885 16.25 16.2482 15.6904 16.2482 15C16.2482 14.3096 15.6885 13.75 14.9982 13.75C14.3078 13.75 13.7482 14.3096 13.7482 15C13.7482 15.6904 14.3078 16.25 14.9982 16.25Z" fill="#CED0D6"/>
  <path fill-rule="evenodd" clip-rule="evenodd" d="M16.4002 19.5945C16.3087 19.8384 16.0755 20 15.815 20H14.1812C13.9207 20 13.6875 19.8384 13.596 19.5945L13.2841 18.7628C13.1793 18.4831 12.8911 18.3167 12.5964 18.3657L11.7202 18.5115C11.4632 18.5542 11.2067 18.4331 11.0764 18.2074L10.2595 16.7926C10.1293 16.5669 10.1526 16.2842 10.3182 16.083L10.8824 15.3971C11.0722 15.1664 11.0722 14.8336 10.8824 14.6029L10.3181 13.917C10.1526 13.7158 10.1293 13.4331 10.2595 13.2074L11.0764 11.7926C11.2067 11.5669 11.4632 11.4458 11.7202 11.4885L12.5964 11.6343C12.8911 11.6833 13.1793 11.5169 13.2841 11.2372L13.596 10.4055C13.6875 10.1616 13.9207 10 14.1812 10H15.815C16.0755 10 16.3087 10.1616 16.4002 10.4055L16.712 11.2372C16.8169 11.5169 17.1051 11.6833 17.3998 11.6343L18.276 11.4885C18.533 11.4458 18.7895 11.5669 18.9198 11.7926L19.7367 13.2074C19.8669 13.4331 19.8436 13.7158 19.6781 13.917L19.1138 14.6029C18.924 14.8336 18.924 15.1664 19.1138 15.3971L19.678 16.083C19.8436 16.2842 19.8669 16.5669 19.7366 16.7926L18.9198 18.2074C18.7895 18.4331 18.533 18.5542 18.276 18.5115L17.3998 18.3657C17.1051 18.3167 16.8169 18.4831 16.712 18.7628L16.4002 19.5945ZM14.6143 18.75H15.3818L15.5416 18.3239C15.8563 17.4848 16.7208 16.9856 17.6049 17.1327L18.0538 17.2073L18.4376 16.5427L18.1484 16.1912C17.5791 15.4991 17.5791 14.5009 18.1484 13.8088L18.4376 13.4573L18.0538 12.7927L17.6049 12.8673C16.7208 13.0144 15.8563 12.5153 15.5416 11.6761L15.3818 11.25H14.6143L14.4546 11.6761C14.1399 12.5153 13.2754 13.0144 12.3913 12.8673L11.9424 12.7927L11.5586 13.4573L11.8477 13.8088C12.4171 14.5009 12.4171 15.4991 11.8477 16.1912L11.5586 16.5427L11.9424 17.2073L12.3913 17.1327C13.2753 16.9856 14.1399 17.4847 14.4546 18.3239L14.6143 18.75Z" fill="#CED0D6"/>
  <path fill-rule="evenodd" clip-rule="evenodd" d="M15.3857 18.75H14.6182L14.4584 18.3239C14.1438 17.4847 13.2792 16.9856 12.3952 17.1327L11.9463 17.2073L11.5625 16.5427L11.8516 16.1912C12.421 15.4991 12.421 14.5009 11.8516 13.8088L11.5625 13.4573L11.9463 12.7927L12.3952 12.8673C13.2792 13.0144 14.1438 12.5153 14.4584 11.6761L14.6182 11.25H15.3857L15.5455 11.6761C15.8602 12.5153 16.7247 13.0144 17.6088 12.8673L18.0577 12.7927L18.4415 13.4573L18.1523 13.8088C17.5829 14.5009 17.5829 15.4991 18.1523 16.1912L18.4414 16.5427L18.0577 17.2073L17.6088 17.1327C16.7247 16.9856 15.8602 17.4848 15.5455 18.3239L15.3857 18.75ZM16.2521 15C16.2521 15.6904 15.6924 16.25 15.0021 16.25C14.3117 16.25 13.7521 15.6904 13.7521 15C13.7521 14.3096 14.3117 13.75 15.0021 13.75C15.6924 13.75 16.2521 14.3096 16.2521 15Z" fill="#43454A"/>
  <path fill-rule="evenodd" clip-rule="evenodd" d="M3.75 16.25V6.76777C3.75 6.43625 3.8817 6.1183 4.11612 5.88388L8.38388 1.61612C8.6183 1.3817 8.93625 1.25 9.26777 1.25H13.75C15.1307 1.25 16.25 2.36929 16.25 3.75V8.87502C15.8461 8.79304 15.4281 8.75 15 8.75V3.75C15 3.05964 14.4404 2.5 13.75 2.5L10 2.5V5C10 6.38071 8.88071 7.5 7.5 7.5H5L5 16.25C5 16.9404 5.55964 17.5 6.25 17.5H9.27005C9.46503 17.9463 9.71061 18.3653 9.99954 18.75H6.25C4.86929 18.75 3.75 17.6307 3.75 16.25ZM5.51777 6.25L8.75 3.01777V5C8.75 5.69036 8.19036 6.25 7.5 6.25H5.51777Z" fill="#CED0D6"/>
</svg>
