<!-- Copyright 2000-2023 JetBrains s.r.o. and contributors. Use of this source code is governed by the Apache 2.0 license. -->
<svg width="16" height="32" viewBox="0 0 16 32" fill="none" xmlns="http://www.w3.org/2000/svg">
  <path d="M3.98755 17.7775C3.99755 17.3925 3.87005 17.085 3.60505 16.855C3.34005 16.625 2.98255 16.51 2.53255 16.51H2V15.43H2.53255C2.98255 15.43 3.34005 15.315 3.60505 15.085C3.87005 14.855 3.99755 14.5475 3.98755 14.1625L3.95755 12.58C3.94755 12.06 4.05505 11.605 4.28005 11.215C4.51005 10.825 4.83755 10.525 5.26255 10.315C5.68755 10.105 6.18755 10 6.76255 10H7.5V11.005H6.77005C6.25005 11.005 5.83755 11.15 5.53255 11.44C5.23255 11.725 5.08505 12.1125 5.09005 12.6025L5.12005 14.17C5.13005 14.68 4.99255 15.0975 4.70755 15.4225C4.42255 15.7425 4.03755 15.92 3.55255 15.955C4.03755 16.045 4.42255 16.255 4.70755 16.585C4.99255 16.91 5.13005 17.305 5.12005 17.77L5.09005 19.5475C5.08005 19.9875 5.21255 20.3375 5.48755 20.5975C5.76755 20.8625 6.14505 20.995 6.62005 20.995H7.5V22H6.61255C6.07755 22 5.60755 21.9 5.20255 21.7C4.80255 21.505 4.49255 21.2225 4.27255 20.8525C4.05755 20.4875 3.95255 20.06 3.95755 19.57L3.98755 17.7775Z" fill="#CED0D6"/>
  <path d="M12.0145 17.7775C12.0045 17.3925 12.132 17.085 12.397 16.855C12.662 16.625 13.0195 16.51 13.4695 16.51H14V15.43H13.4695C13.0195 15.43 12.662 15.315 12.397 15.085C12.132 14.855 12.0045 14.5475 12.0145 14.1625L12.0445 12.58C12.0545 12.06 11.9445 11.605 11.7145 11.215C11.4895 10.825 11.1645 10.525 10.7395 10.315C10.3145 10.105 9.81455 10 9.23955 10H8.5V11.005H9.23205C9.75205 11.005 10.162 11.15 10.462 11.44C10.767 11.725 10.917 12.1125 10.912 12.6025L10.882 14.17C10.872 14.68 11.0095 15.0975 11.2945 15.4225C11.5795 15.7425 11.9645 15.92 12.4495 15.955C11.9645 16.045 11.5795 16.255 11.2945 16.585C11.0095 16.91 10.872 17.305 10.882 17.77L10.912 19.5475C10.922 19.9875 10.787 20.3375 10.507 20.5975C10.232 20.8625 9.85705 20.995 9.38205 20.995H8.5V22H9.38955C9.92455 22 10.392 21.9 10.792 21.7C11.197 21.505 11.507 21.2225 11.722 20.8525C11.942 20.4875 12.0495 20.06 12.0445 19.57L12.0145 17.7775Z" fill="#CED0D6"/>
</svg>
