<!-- Copyright 2000-2023 JetBrains s.r.o. and contributors. Use of this source code is governed by the Apache 2.0 license. -->
<svg width="16" height="16" viewBox="0 0 16 16" fill="none" xmlns="http://www.w3.org/2000/svg">
  <mask id="path-1-inside-1_2524_8809" fill="white">
    <path d="M5 10H10V11H5V10Z"/>
  </mask>
  <path d="M5 10V9H4V10H5ZM10 10H11V9H10V10ZM10 11V12H11V11H10ZM5 11H4V12H5V11ZM5 11H10V9H5V11ZM9 10V11H11V10H9ZM10 10H5V12H10V10ZM6 11V10H4V11H6Z" fill="#CED0D6" mask="url(#path-1-inside-1_2524_8809)"/>
  <path d="M0.5 4C0.5 3.17157 1.17157 2.5 2 2.5H13C13.8284 2.5 14.5 3.17157 14.5 4V12C14.5 12.8284 13.8284 13.5 13 13.5H2C1.17157 13.5 0.5 12.8284 0.5 12V4Z" stroke="#CED0D6"/>
  <rect x="3" y="5" width="1" height="1" fill="#CED0D6"/>
  <rect x="4" y="7" width="1" height="1" fill="#CED0D6"/>
  <rect x="7" y="5" width="1" height="1" fill="#CED0D6"/>
  <rect x="8" y="7" width="1" height="1" fill="#CED0D6"/>
  <rect x="5" y="5" width="1" height="1" fill="#CED0D6"/>
  <rect x="6" y="7" width="1" height="1" fill="#CED0D6"/>
  <rect x="9" y="5" width="1" height="1" fill="#CED0D6"/>
  <rect x="11" y="5" width="1" height="1" fill="#CED0D6"/>
  <rect x="10" y="7" width="1" height="1" fill="#CED0D6"/>
</svg>
