<!-- Copyright 2000-2023 JetBrains s.r.o. and contributors. Use of this source code is governed by the Apache 2.0 license. -->
<svg width="16" height="16" viewBox="0 0 16 16" fill="none" xmlns="http://www.w3.org/2000/svg">
  <path fill-rule="evenodd" clip-rule="evenodd" d="M3.2246 4.36961C2.92038 4.76924 2.6654 5.20781 2.46841 5.67626L3.30797 7.0943C3.63864 7.65283 3.63864 8.34718 3.30797 8.9057L2.46841 10.3237C2.6654 10.7922 2.92038 11.2308 3.2246 11.6304L4.87066 11.6124C5.51969 11.6053 6.12102 11.9524 6.43938 12.5181L7.24704 13.953C7.49398 13.984 7.74597 14 8.00213 14C8.25825 14 8.51019 13.984 8.75709 13.9531L9.56476 12.5181C9.88312 11.9524 10.4844 11.6053 11.1335 11.6124L12.7797 11.6304C13.0839 11.2308 13.3388 10.7923 13.5358 10.3239L12.6962 8.9057C12.3655 8.34718 12.3655 7.65283 12.6962 7.0943L13.5358 5.67613C13.3388 5.20773 13.0839 4.76921 12.7797 4.36961L11.1335 4.38764C10.4844 4.39475 9.88312 4.04758 9.56476 3.48194L8.75708 2.04693C8.51019 2.01599 8.25825 2 8.00213 2C7.74597 2 7.49398 2.016 7.24704 2.04695L6.43938 3.48194C6.12102 4.04758 5.51969 4.39475 4.87066 4.38764L3.2246 4.36961ZM10.653 8.00001C10.653 9.46412 9.46615 10.651 8.00205 10.651C6.53794 10.651 5.35105 9.46412 5.35105 8.00001C5.35105 6.53591 6.53794 5.34902 8.00205 5.34902C9.46615 5.34902 10.653 6.53591 10.653 8.00001ZM4.88161 3.3877C5.16556 3.39081 5.42864 3.23892 5.56793 2.99146L6.43622 1.44875C6.54718 1.25159 6.73815 1.1101 6.96192 1.07676C7.30131 1.0262 7.64866 1 8.00213 1C8.35554 1 8.70284 1.02619 9.04219 1.07674C9.26597 1.11007 9.45694 1.25157 9.56791 1.44873L10.4362 2.99146C10.5755 3.23892 10.8386 3.39081 11.1225 3.3877L12.8918 3.36832C13.1176 3.36585 13.3352 3.46012 13.4761 3.63661C13.908 4.17766 14.2613 4.78416 14.5188 5.43884C14.6015 5.6491 14.5743 5.88489 14.4592 6.07931L13.5567 7.60376C13.412 7.84811 13.412 8.15189 13.5567 8.39625L14.4592 9.92069C14.5743 10.1151 14.6015 10.3509 14.5188 10.5612C14.2613 11.2158 13.908 11.8223 13.4761 12.3634C13.3352 12.5399 13.1176 12.6342 12.8918 12.6317L11.1225 12.6123C10.8386 12.6092 10.5755 12.7611 10.4362 13.0085L9.56791 14.5513C9.45694 14.7484 9.26597 14.8899 9.04219 14.9233C8.70284 14.9738 8.35555 15 8.00213 15C7.64866 15 7.30131 14.9738 6.96192 14.9232C6.73815 14.8899 6.54718 14.7484 6.43621 14.5512L5.56793 13.0085C5.42865 12.7611 5.16557 12.6092 4.88161 12.6123L3.11245 12.6317C2.88665 12.6342 2.66901 12.5399 2.52814 12.3634C2.09627 11.8223 1.74294 11.2158 1.48543 10.561C1.40273 10.3508 1.42989 10.115 1.545 9.92057L2.44747 8.39625C2.59214 8.15189 2.59214 7.84811 2.44747 7.60376L1.545 6.07944C1.42989 5.88502 1.40273 5.64924 1.48543 5.43898C1.74294 4.78425 2.09626 4.1777 2.52814 3.63661C2.66901 3.46012 2.88664 3.36585 3.11244 3.36832L4.88161 3.3877ZM9.65305 8.00001C9.65305 8.91183 8.91387 9.65101 8.00205 9.65101C7.09023 9.65101 6.35105 8.91183 6.35105 8.00001C6.35105 7.08819 7.09023 6.34902 8.00205 6.34902C8.91387 6.34902 9.65305 7.08819 9.65305 8.00001Z" fill="#CED0D6"/>
</svg>
