<svg xmlns="http://www.w3.org/2000/svg" xmlns:xlink="http://www.w3.org/1999/xlink" width="16" height="16" viewBox="0 0 16 16">
  <defs>
    <circle id="canary-a" cx="7" cy="7" r="7"/>
    <linearGradient id="canary-c" x1="4.547%" x2="25.932%" y1="62.056%" y2="43.316%">
      <stop offset="0%" stop-color="#EC9200" stop-opacity=".39"/>
      <stop offset="100%" stop-color="#A52714" stop-opacity="0"/>
    </linearGradient>
    <circle id="canary-d" cx="7" cy="7" r="7"/>
    <linearGradient id="canary-f" x1="83.873%" x2="68.178%" y1="87.776%" y2="80.707%">
      <stop offset="0%" stop-color="#F0A800"/>
      <stop offset="100%" stop-color="#F5BC09"/>
    </linearGradient>
    <circle id="canary-g" cx="7" cy="7" r="7"/>
    <linearGradient id="canary-i" x1="32.625%" x2="48.553%" y1="-4.841%" y2="45.414%">
      <stop offset="0%" stop-color="#EA6100" stop-opacity=".3"/>
      <stop offset="66%" stop-color="#EA6100" stop-opacity="0"/>
    </linearGradient>
    <circle id="canary-j" cx="7" cy="7" r="7"/>
    <radialGradient id="canary-k" cx="-4.872%" cy="-.248%" r="401.327%" fx="-4.872%" fy="-.248%" gradientTransform="matrix(.26722 0 0 1 -.036 0)">
      <stop offset="0%" stop-color="#E82200" stop-opacity=".2"/>
      <stop offset="100%" stop-color="#3E2723" stop-opacity="0"/>
    </radialGradient>
    <circle id="canary-m" cx="7" cy="7" r="7"/>
    <radialGradient id="canary-n" cx="-.157%" cy=".104%" r="136.321%" fx="-.157%" fy=".104%" gradientTransform="scale(1 .84752)">
      <stop offset="0%" stop-color="#E82200" stop-opacity=".099"/>
      <stop offset="100%" stop-color="#3E2723" stop-opacity="0"/>
    </radialGradient>
    <circle id="canary-p" cx="7" cy="7" r="7"/>
    <linearGradient id="canary-q" x1="68.916%" x2="-26.883%" y1="9.006%" y2="110.032%">
      <stop offset="0%" stop-color="#E82200" stop-opacity=".073"/>
      <stop offset="100%" stop-color="#263238" stop-opacity="0"/>
    </linearGradient>
    <circle id="canary-s" cx="7" cy="7" r="7"/>
    <radialGradient id="canary-u" cx="14.935%" cy="13.644%" r="100.426%" fx="14.935%" fy="13.644%">
      <stop offset="0%" stop-color="#FFF" stop-opacity=".1"/>
      <stop offset="100%" stop-color="#FFF" stop-opacity="0"/>
    </radialGradient>
  </defs>
  <g fill="none" fill-rule="evenodd" transform="translate(1 1)">
    <mask id="canary-b" fill="#fff">
      <use xlink:href="#canary-a"/>
    </mask>
    <g fill-rule="nonzero" mask="url(#canary-b)">
      <g transform="translate(.477 -.557)">
        <polygon fill="#F49C00" points=".077 0 .077 10.451 3.547 10.451 6.599 4.645 14.351 4.645 14.351 0"/>
        <polygon fill="url(#canary-c)" points=".077 0 .077 10.451 3.547 10.451 6.599 4.645 14.351 4.645 14.351 0"/>
      </g>
    </g>
    <mask id="canary-e" fill="#fff">
      <use xlink:href="#canary-d"/>
    </mask>
    <g fill-rule="nonzero" mask="url(#canary-e)">
      <g transform="translate(-.557 -.636)">
        <polygon fill="#F5BA00" points="0 14.863 7.187 14.863 10.523 11.251 10.523 8.546 4.578 8.546 0 .045"/>
        <polygon fill="url(#canary-f)" points="0 14.863 7.187 14.863 10.523 11.251 10.523 8.546 4.578 8.546 0 .045"/>
      </g>
    </g>
    <mask id="canary-h" fill="#fff">
      <use xlink:href="#canary-g"/>
    </mask>
    <g fill-rule="nonzero" mask="url(#canary-h)">
      <g transform="translate(6.364 3.898)">
        <polygon fill="#FFCD40" points=".358 0 3.286 4.847 0 10.341 7.795 10.341 7.795 0"/>
        <polygon fill="url(#canary-i)" points=".412 0 3.789 4.847 0 10.341 8.989 10.341 8.989 0"/>
      </g>
    </g>
    <mask id="canary-l" fill="#fff">
      <use xlink:href="#canary-j"/>
    </mask>
    <polygon fill="url(#canary-k)" fill-rule="nonzero" points="7.52 3.881 7.52 5.547 13.757 3.881" mask="url(#canary-l)"/>
    <mask id="canary-o" fill="#fff">
      <use xlink:href="#canary-m"/>
    </mask>
    <polygon fill="url(#canary-n)" fill-rule="nonzero" points="1.102 2.772 5.656 7.325 4.235 8.145" mask="url(#canary-o)" transform="rotate(2 3.379 5.458)"/>
    <mask id="canary-r" fill="#fff">
      <use xlink:href="#canary-p"/>
    </mask>
    <polygon fill="url(#canary-q)" fill-rule="nonzero" points="6.462 14.238 8.13 8.018 9.55 8.838" mask="url(#canary-r)"/>
    <mask id="canary-t" fill="#fff">
      <use xlink:href="#canary-s"/>
    </mask>
    <g fill-rule="nonzero" mask="url(#canary-t)">
      <g transform="translate(3.818 3.818)">
        <circle cx="3.182" cy="3.182" r="3.182" fill="#F1F1F1"/>
        <circle cx="3.182" cy="3.182" r="2.545" fill="#F7C310"/>
      </g>
    </g>
    <circle cx="7" cy="7" r="7" fill="url(#canary-u)" fill-rule="nonzero"/>
  </g>
</svg>
