<svg xmlns="http://www.w3.org/2000/svg" xmlns:xlink="http://www.w3.org/1999/xlink" width="16" height="16" viewBox="0 0 16 16">
  <defs>
    <circle id="chromium-a" cx="7" cy="7" r="7"/>
    <linearGradient id="chromium-c" x1="4.547%" x2="25.932%" y1="62.056%" y2="43.316%">
      <stop offset="0%" stop-color="#3566D6"/>
      <stop offset="100%" stop-color="#3F70DC"/>
    </linearGradient>
    <circle id="chromium-d" cx="7" cy="7" r="7"/>
    <circle id="chromium-f" cx="7" cy="7" r="7"/>
    <linearGradient id="chromium-h" x1="32.625%" x2="43.137%" y1="-4.841%" y2="28.327%">
      <stop offset="0%" stop-color="#8EADEC"/>
      <stop offset="100%" stop-color="#A1C1FC"/>
    </linearGradient>
    <circle id="chromium-i" cx="7" cy="7" r="7"/>
    <radialGradient id="chromium-j" cx="-4.872%" cy="-.248%" r="401.327%" fx="-4.872%" fy="-.248%" gradientTransform="matrix(.26722 0 0 1 -.036 0)">
      <stop offset="0%" stop-color="#7894DD" stop-opacity=".176"/>
      <stop offset="100%" stop-color="#3E2723" stop-opacity="0"/>
    </radialGradient>
    <circle id="chromium-l" cx="7" cy="7" r="7"/>
    <radialGradient id="chromium-m" cx="-.157%" cy=".104%" r="136.321%" fx="-.157%" fy=".104%" gradientTransform="scale(1 .84752)">
      <stop offset="0%" stop-color="#335EC2" stop-opacity=".31"/>
      <stop offset="100%" stop-color="#3E2723" stop-opacity="0"/>
    </radialGradient>
    <circle id="chromium-o" cx="7" cy="7" r="7"/>
    <linearGradient id="chromium-p" x1="68.916%" x2="-26.883%" y1="9.006%" y2="110.032%">
      <stop offset="0%" stop-color="#5386E3" stop-opacity=".669"/>
      <stop offset="100%" stop-color="#507BC6" stop-opacity=".16"/>
    </linearGradient>
    <circle id="chromium-r" cx="7" cy="7" r="7"/>
    <radialGradient id="chromium-t" cx="14.935%" cy="13.644%" r="100.426%" fx="14.935%" fy="13.644%">
      <stop offset="0%" stop-color="#FFF" stop-opacity=".1"/>
      <stop offset="100%" stop-color="#FFF" stop-opacity="0"/>
    </radialGradient>
  </defs>
  <g fill="none" fill-rule="evenodd" transform="translate(1 1)">
    <mask id="chromium-b" fill="#fff">
      <use xlink:href="#chromium-a"/>
    </mask>
    <g fill-rule="nonzero" mask="url(#chromium-b)">
      <g transform="translate(.477 -.557)">
        <polygon fill="#3468DA" points=".077 0 .077 10.451 3.547 10.451 6.599 4.645 14.351 4.645 14.351 0"/>
        <polygon fill="url(#chromium-c)" points=".077 0 .077 10.451 3.547 10.451 6.599 4.645 14.351 4.645 14.351 0"/>
      </g>
    </g>
    <mask id="chromium-e" fill="#fff">
      <use xlink:href="#chromium-d"/>
    </mask>
    <g fill="#5D96F9" fill-rule="nonzero" mask="url(#chromium-e)">
      <polygon points="0 14.863 7.187 14.863 10.523 11.251 10.523 8.546 4.578 8.546 0 .045" transform="translate(-.557 -.636)"/>
    </g>
    <mask id="chromium-g" fill="#fff">
      <use xlink:href="#chromium-f"/>
    </mask>
    <g fill-rule="nonzero" mask="url(#chromium-g)">
      <g transform="translate(6.364 3.898)">
        <polygon fill="#A0C1FC" points=".358 0 3.286 4.847 0 10.341 7.795 10.341 7.795 0"/>
        <polygon fill="url(#chromium-h)" points=".412 0 3.789 4.847 0 10.341 8.989 10.341 8.989 0"/>
      </g>
    </g>
    <mask id="chromium-k" fill="#fff">
      <use xlink:href="#chromium-i"/>
    </mask>
    <polygon fill="url(#chromium-j)" fill-rule="nonzero" points="7.52 3.881 7.52 5.547 13.757 3.881" mask="url(#chromium-k)"/>
    <mask id="chromium-n" fill="#fff">
      <use xlink:href="#chromium-l"/>
    </mask>
    <polygon fill="url(#chromium-m)" fill-rule="nonzero" points="1.102 2.772 5.656 7.325 4.235 8.145" mask="url(#chromium-n)" transform="rotate(2 3.379 5.458)"/>
    <mask id="chromium-q" fill="#fff">
      <use xlink:href="#chromium-o"/>
    </mask>
    <polygon fill="url(#chromium-p)" fill-rule="nonzero" points="6.462 14.238 8.13 8.018 9.55 8.838" mask="url(#chromium-q)"/>
    <mask id="chromium-s" fill="#fff">
      <use xlink:href="#chromium-r"/>
    </mask>
    <g fill-rule="nonzero" mask="url(#chromium-s)">
      <g transform="translate(3.818 3.818)">
        <circle cx="3.182" cy="3.182" r="3.182" fill="#F1F1F1"/>
        <circle cx="3.182" cy="3.182" r="2.545" fill="#4284F7"/>
      </g>
    </g>
    <circle cx="7" cy="7" r="7" fill="url(#chromium-t)" fill-rule="nonzero"/>
  </g>
</svg>
