<!-- Copyright 2000-2024 JetBrains s.r.o. and contributors. Use of this source code is governed by the Apache 2.0 license. -->
<svg width="16" height="16" viewBox="0 0 16 16" fill="none" xmlns="http://www.w3.org/2000/svg">
<path d="M8 11.4984C9.933 11.4984 11.5 9.93141 11.5 7.99841C11.5 6.06542 9.933 4.49841 8 4.49841C6.067 4.49841 4.5 6.06542 4.5 7.99841C4.5 9.93141 6.067 11.4984 8 11.4984Z" fill="white"/>
<path d="M8.0001 4.50001H14.0613C13.4471 3.43583 12.5635 2.55212 11.4995 1.93772C10.4354 1.32333 9.22834 0.999914 7.99963 1C6.77093 1.00009 5.56391 1.32367 4.49993 1.93821C3.43595 2.55275 2.55252 3.43659 1.93848 4.50086L4.96907 9.75001L4.97178 9.74931C4.66349 9.21768 4.5008 8.61417 4.50011 7.99962C4.49942 7.38507 4.66075 6.7812 4.96785 6.24888C5.27494 5.71655 5.71695 5.2746 6.2493 4.96756C6.78166 4.66052 7.38555 4.49926 8.0001 4.50001Z" fill="url(#paint0_linear_17450_12468)"/>
<path d="M8.00033 10.7708C9.53061 10.7708 10.7712 9.53025 10.7712 7.99996C10.7712 6.46967 9.53061 5.22913 8.00033 5.22913C6.47004 5.22913 5.22949 6.46967 5.22949 7.99996C5.22949 9.53025 6.47004 10.7708 8.00033 10.7708Z" fill="#1A73E8"/>
<path d="M11.0309 9.7508L8.00028 15C9.22898 15.0001 10.4361 14.6768 11.5002 14.0625C12.5643 13.4482 13.4479 12.5645 14.0622 11.5004C14.6764 10.4363 14.9997 9.22915 14.9995 8.00045C14.9993 6.77175 14.6756 5.56476 14.0609 4.50085H7.99975L7.99902 4.50357C8.61358 4.50238 9.21758 4.66323 9.75015 4.96991C10.2827 5.27658 10.725 5.71824 11.0325 6.25035C11.3399 6.78247 11.5017 7.38624 11.5014 8.00079C11.5011 8.61534 11.3388 9.21896 11.0309 9.7508Z" fill="url(#paint1_linear_17450_12468)"/>
<path d="M4.96966 9.75086L1.93907 4.50171C1.32456 5.56571 1.00102 6.77274 1.00098 8.00145C1.00093 9.23015 1.32438 10.4372 1.93881 11.5013C2.55324 12.5653 3.43698 13.4488 4.50117 14.063C5.56537 14.6772 6.77251 15.0003 8.00122 15L11.0318 9.7508L11.0299 9.74882C10.7236 10.2816 10.2823 10.7243 9.75041 11.0321C9.21854 11.34 8.6149 11.5022 8.00035 11.5024C7.3858 11.5027 6.78205 11.3408 6.24997 11.0333C5.71789 10.7258 5.27628 10.2835 4.96966 9.75086Z" fill="url(#paint2_linear_17450_12468)"/>
<defs>
<linearGradient id="paint0_linear_17450_12468" x1="1.93848" y1="5.37501" x2="14.0613" y2="5.37501" gradientUnits="userSpaceOnUse">
<stop stop-color="#D93025"/>
<stop offset="1" stop-color="#EA4335"/>
</linearGradient>
<linearGradient id="paint1_linear_17450_12468" x1="7.04396" y1="14.9064" x2="13.1054" y2="4.4077" gradientUnits="userSpaceOnUse">
<stop stop-color="#FCC934"/>
<stop offset="1" stop-color="#FBBC04"/>
</linearGradient>
<linearGradient id="paint2_linear_17450_12468" x1="8.75827" y1="14.5629" x2="2.69685" y2="4.06421" gradientUnits="userSpaceOnUse">
<stop stop-color="#1E8E3E"/>
<stop offset="1" stop-color="#34A853"/>
</linearGradient>
</defs>
</svg>
