<svg xmlns="http://www.w3.org/2000/svg" width="16" height="16" viewBox="0 0 16 16">
  <path fill="#0078D7" d="M4.1278125,8.3125 C4.1278125,8.649375 4.178125,8.955625 4.2809375,9.23125 C4.3903125,9.5025 4.5325,9.7453125 4.7140625,9.9575 C4.895625,10.1696875 5.1078125,10.35125 5.3571875,10.504375 C5.5978125,10.6575 5.8603125,10.784375 6.1403125,10.8828125 C6.418125,10.9834375 6.7090625,11.0578125 7.004375,11.1059375 C7.3040625,11.1540625 7.595,11.178125 7.8903125,11.178125 C8.2621875,11.178125 8.6078125,11.1496875 8.9359375,11.090625 C9.2640625,11.029375 9.5834375,10.9484375 9.8984375,10.845625 C10.2134375,10.7428125 10.5175,10.6203125 10.8215625,10.4803125 C11.1278125,10.3403125 11.4384375,10.1871875 11.7578125,10.0165625 L11.7578125,12.9828125 C11.40125,13.1578125 11.05125,13.304375 10.70125,13.43125 C10.35125,13.55375 10.00125,13.6609375 9.6446875,13.74625 C9.288125,13.83375 8.9271875,13.899375 8.5575,13.93875 C8.1878125,13.978125 7.809375,14 7.415625,14 C6.890625,14 6.383125,13.93875 5.8953125,13.8184375 C5.4075,13.698125 4.9503125,13.5253125 4.5215625,13.2978125 C4.0928125,13.0703125 3.70125,12.7946875 3.3446875,12.4709375 C2.9859375,12.1471875 2.681875,11.781875 2.4259375,11.3771875 C2.17,10.9725 1.973125,10.5284375 1.8309375,10.0515625 C1.693125,9.5746875 1.623125,9.0671875 1.623125,8.5290625 C1.623125,7.95375 1.701875,7.406875 1.859375,6.8840625 C2.0190625,6.3590625 2.244375,5.8821875 2.541875,5.4446875 C2.8371875,5.0071875 3.198125,4.6178125 3.6246875,4.27875 C4.05125,3.9396875 4.5303125,3.661875 5.0640625,3.4475 C4.773125,3.7384375 4.545625,4.081875 4.3859375,4.4821875 C4.221875,4.8803125 4.1190625,5.280625 4.073125,5.6809375 L9.05625,5.6809375 C9.05625,5.1778125 9.0059375,4.7403125 8.903125,4.3640625 C8.8003125,3.9878125 8.63625,3.675 8.4065625,3.4278125 C8.1790625,3.1784375 7.8859375,2.9903125 7.525,2.8678125 C7.1640625,2.743125 6.72875,2.6796875 6.2190625,2.6796875 C5.6175,2.6796875 5.0159375,2.7671875 4.414375,2.94875 C3.8128125,3.12375 3.241875,3.3753125 2.699375,3.6925 C2.156875,4.0140625 1.658125,4.3925 1.203125,4.825625 C0.748125,5.263125 0.3653125,5.7334375 0.0546875,6.243125 C0.1203125,5.6525 0.2515625,5.08375 0.433125,4.5434375 C0.6146875,4.003125 0.8553125,3.5 1.1440625,3.0340625 C1.4328125,2.5746875 1.771875,2.1546875 2.1590625,1.7784375 C2.54625,1.4021875 2.975,1.0784375 3.4496875,0.8159375 C3.924375,0.5534375 4.4275,0.34125 4.974375,0.1990625 C5.52125,0.074375 6.103125,-4.77395901e-15 6.715625,-4.77395901e-15 C7.074375,-4.77395901e-15 7.4309375,0.0328125 7.7875,0.09625 C8.1440625,0.161875 8.491875,0.249375 8.8309375,0.363125 C9.5046875,0.595 10.10625,0.91875 10.635625,1.33 C11.165,1.745625 11.6090625,2.218125 11.97,2.7584375 C12.3309375,3.29875 12.604375,3.8959375 12.7925,4.545625 C12.980625,5.1953125 13.076875,5.87125 13.076875,6.5734375 L13.076875,8.3125 L4.1278125,8.3125 Z" transform="translate(1.438 1)"/>
</svg>
