<svg xmlns="http://www.w3.org/2000/svg" width="16" height="16" viewBox="0 0 16 16">
  <g fill="none" fill-rule="evenodd">
    <path fill="#1EBBEE" fill-rule="nonzero" d="M13.9997391,7.03486409 C13.9997391,5.95296824 13.7135992,4.93655489 13.2118272,4.05333817 C15.3506036,-0.678553438 10.9200993,0.0145281207 10.6734203,0.061711226 C9.73477459,0.24126207 8.86637566,0.529525338 8.06535363,0.89493936 C7.94723207,0.888435743 7.82839304,0.884865129 7.70864087,0.884865129 C4.71920658,0.884865129 2.21686882,2.92317527 1.5764295,5.65565092 C3.15205763,3.92766533 4.25474295,3.23043931 4.91507574,2.95142138 C4.80967295,3.04349219 4.7064878,3.13658318 4.60499849,3.23037555 C4.5712122,3.26155465 4.53866518,3.29318009 4.50533546,3.32455047 C4.43841513,3.38748253 4.37162525,3.45047836 4.30640075,3.51404803 C4.26759218,3.55185827 4.22982719,3.58998732 4.19160564,3.62805261 C4.13375151,3.68562875 4.07602783,3.74314113 4.01954342,3.80103608 C3.97943036,3.84216189 3.94029566,3.88341523 3.90090006,3.9246048 C3.84813345,3.97982179 3.79569295,4.03510253 3.74423083,4.09057456 C3.70424821,4.13367697 3.66491784,4.17677937 3.62565269,4.2200093 C3.57686477,4.27369602 3.52853342,4.32738274 3.48085431,4.38119699 C3.44132827,4.42582965 3.40212835,4.47046232 3.363385,4.51515875 C3.31818442,4.56731521 3.27357087,4.61947167 3.22941389,4.67162813 C3.19034441,4.71779106 3.15140539,4.76389023 3.11318384,4.8099894 C3.07183151,4.85985046 3.03139232,4.90964777 2.99101836,4.95938131 C2.95188366,5.00758459 2.91274896,5.05572411 2.87452741,5.10386363 C2.83813214,5.14970775 2.80278046,5.1953606 2.76716789,5.2410772 C2.7269896,5.29272357 2.68648519,5.34436994 2.64735049,5.39576127 C2.61936918,5.43255134 2.59249669,5.46895885 2.56503718,5.50562139 C2.31646663,5.83717835 2.08935493,6.16235921 1.8842239,6.47472412 C1.8837021,6.47548925 1.88318031,6.47625438 1.88272373,6.47701951 C1.82871785,6.55927114 1.77660348,6.64031131 1.7255327,6.72065011 C1.72279327,6.72498586 1.71992339,6.72938536 1.71718396,6.73378487 C1.66604796,6.81444248 1.61667302,6.89369734 1.56853734,6.97212331 C1.5668415,6.97486503 1.56508044,6.97767052 1.56338461,6.98041224 C1.43397921,7.19152475 1.31396614,7.39504971 1.20588915,7.58652386 C0.639283957,8.59031254 0.363449567,9.29161926 0.351513485,9.33325516 C-1.43772487,15.5864193 4.14653551,12.9457595 4.92577256,12.5515893 C5.76482046,12.9567901 6.7094016,13.1848631 7.70864087,13.1848631 C10.4441562,13.1848631 12.7715619,11.4779186 13.6378736,9.09421535 L10.3322962,9.09421535 C9.8431777,9.90200286 8.90153166,10.4491356 7.81971818,10.4491356 C6.23469773,10.4491356 4.9498404,9.27516893 4.9498404,7.82696641 L13.9482118,7.82696641 C13.9823242,7.56758685 14,7.30323394 14,7.03486409 L13.9997391,7.03486409 Z M12.8245241,0.982929475 C13.3662788,1.34037338 13.8008044,1.90172481 13.0545709,3.7921733 C12.3388626,2.66698377 11.2620714,1.78434089 9.98223632,1.2991838 C10.5644302,1.02431033 12.0062176,0.442937964 12.8245241,0.982929475 Z M1.31109626,12.5389646 C0.869852548,12.0965911 0.791844052,11.0191585 1.76551532,9.05583126 C2.25691666,10.4369573 3.23750172,11.5942186 4.50494411,12.328681 C3.87461459,12.6678255 2.20121494,13.4314267 1.31109626,12.5389646 Z M4.93568668,6.14501623 C4.98597477,4.73749319 6.23906777,3.61051835 7.77869198,3.61051835 C9.31825096,3.61051835 10.5714092,4.73749319 10.6216973,6.14501623 L4.93568668,6.14501623 Z" transform="translate(1 1)"/>
    <path fill="#1EBBEE" fill-rule="nonzero" d="M13.9997391,7.03486409 C13.9997391,5.95296824 13.7135992,4.93655489 13.2118272,4.05333817 C15.3506036,-0.678553438 10.9200993,0.0145281207 10.6734203,0.061711226 C9.73477459,0.24126207 8.86637566,0.529525338 8.06535363,0.89493936 C7.94723207,0.888435743 7.82839304,0.884865129 7.70864087,0.884865129 C4.71920658,0.884865129 2.21686882,2.92317527 1.5764295,5.65565092 C3.15205763,3.92766533 4.25474295,3.23043931 4.91507574,2.95142138 C4.80967295,3.04349219 4.7064878,3.13658318 4.60499849,3.23037555 C4.5712122,3.26155465 4.53866518,3.29318009 4.50533546,3.32455047 C4.43841513,3.38748253 4.37162525,3.45047836 4.30640075,3.51404803 C4.26759218,3.55185827 4.22982719,3.58998732 4.19160564,3.62805261 C4.13375151,3.68562875 4.07602783,3.74314113 4.01954342,3.80103608 C3.97943036,3.84216189 3.94029566,3.88341523 3.90090006,3.9246048 C3.84813345,3.97982179 3.79569295,4.03510253 3.74423083,4.09057456 C3.70424821,4.13367697 3.66491784,4.17677937 3.62565269,4.2200093 C3.57686477,4.27369602 3.52853342,4.32738274 3.48085431,4.38119699 C3.44132827,4.42582965 3.40212835,4.47046232 3.363385,4.51515875 C3.31818442,4.56731521 3.27357087,4.61947167 3.22941389,4.67162813 C3.19034441,4.71779106 3.15140539,4.76389023 3.11318384,4.8099894 C3.07183151,4.85985046 3.03139232,4.90964777 2.99101836,4.95938131 C2.95188366,5.00758459 2.91274896,5.05572411 2.87452741,5.10386363 C2.83813214,5.14970775 2.80278046,5.1953606 2.76716789,5.2410772 C2.7269896,5.29272357 2.68648519,5.34436994 2.64735049,5.39576127 C2.61936918,5.43255134 2.59249669,5.46895885 2.56503718,5.50562139 C2.31646663,5.83717835 2.08935493,6.16235921 1.8842239,6.47472412 C1.8837021,6.47548925 1.88318031,6.47625438 1.88272373,6.47701951 C1.82871785,6.55927114 1.77660348,6.64031131 1.7255327,6.72065011 C1.72279327,6.72498586 1.71992339,6.72938536 1.71718396,6.73378487 C1.66604796,6.81444248 1.61667302,6.89369734 1.56853734,6.97212331 C1.5668415,6.97486503 1.56508044,6.97767052 1.56338461,6.98041224 C1.43397921,7.19152475 1.31396614,7.39504971 1.20588915,7.58652386 C0.639283957,8.59031254 0.363449567,9.29161926 0.351513485,9.33325516 C-1.43772487,15.5864193 4.14653551,12.9457595 4.92577256,12.5515893 C5.76482046,12.9567901 6.7094016,13.1848631 7.70864087,13.1848631 C10.4441562,13.1848631 12.7715619,11.4779186 13.6378736,9.09421535 L10.3322962,9.09421535 C9.8431777,9.90200286 8.90153166,10.4491356 7.81971818,10.4491356 C6.23469773,10.4491356 4.9498404,9.27516893 4.9498404,7.82696641 L13.9482118,7.82696641 C13.9823242,7.56758685 14,7.30323394 14,7.03486409 L13.9997391,7.03486409 Z M12.8245241,0.982929475 C13.3662788,1.34037338 13.8008044,1.90172481 13.0545709,3.7921733 C12.3388626,2.66698377 11.2620714,1.78434089 9.98223632,1.2991838 C10.5644302,1.02431033 12.0062176,0.442937964 12.8245241,0.982929475 Z M1.31109626,12.5389646 C0.869852548,12.0965911 0.791844052,11.0191585 1.76551532,9.05583126 C2.25691666,10.4369573 3.23750172,11.5942186 4.50494411,12.328681 C3.87461459,12.6678255 2.20121494,13.4314267 1.31109626,12.5389646 Z M4.93568668,6.14501623 C4.98597477,4.73749319 6.23906777,3.61051835 7.77869198,3.61051835 C9.31825096,3.61051835 10.5714092,4.73749319 10.6216973,6.14501623 L4.93568668,6.14501623 Z" transform="translate(1 1)"/>
  </g>
</svg>
