<svg xmlns="http://www.w3.org/2000/svg" width="16" height="16" viewBox="0 0 16 16">
  <defs>
    <radialGradient id="firefox-a" cx="86.85%" cy="30.027%" r="184.023%" fx="86.85%" fy="30.027%" gradientTransform="scale(1 .36464) rotate(2.543 -10.92 .562)">
      <stop offset="4.5%" stop-color="#FFEA00"/>
      <stop offset="12%" stop-color="#FFDE00"/>
      <stop offset="25.4%" stop-color="#FFBF00"/>
      <stop offset="42.9%" stop-color="#FF8E00"/>
      <stop offset="76.9%" stop-color="#FF272D"/>
      <stop offset="87.2%" stop-color="#E0255A"/>
      <stop offset="95.3%" stop-color="#CC2477"/>
      <stop offset="100%" stop-color="#C42482"/>
    </radialGradient>
    <radialGradient id="firefox-b" cx="70.828%" cy="12.393%" r="61.826%" fx="70.828%" fy="12.393%" gradientTransform="scale(1 .99363)">
      <stop offset="0%" stop-color="#00CCDA"/>
      <stop offset="17.924%" stop-color="#0083FF"/>
      <stop offset="26.1%" stop-color="#007AF9"/>
      <stop offset="46.25%" stop-color="#005FE7"/>
      <stop offset="50.625%" stop-color="#0060E8"/>
      <stop offset="73.377%" stop-color="#2639AD"/>
      <stop offset="80.787%" stop-color="#401E84"/>
      <stop offset="95.29%" stop-color="#411D82"/>
      <stop offset="100%" stop-color="#4A1475"/>
    </radialGradient>
    <linearGradient id="firefox-c" x1="57.339%" x2="35.146%" y1="75.22%" y2="6.805%">
      <stop offset="0%" stop-color="#000F43" stop-opacity=".4"/>
      <stop offset="48.5%" stop-color="#001962" stop-opacity=".173"/>
      <stop offset="100%" stop-color="#002079" stop-opacity="0"/>
    </linearGradient>
    <radialGradient id="firefox-d" cx="147.727%" cy="-21.664%" r="170.493%" fx="147.727%" fy="-21.664%" gradientTransform="matrix(.92578 .10117 -.09415 .99487 .09 -.15)">
      <stop offset=".3%" stop-color="#FFEA00"/>
      <stop offset="49.7%" stop-color="#FF272D"/>
      <stop offset="100%" stop-color="#C42482"/>
    </radialGradient>
    <radialGradient id="firefox-e" cx="135.976%" cy="-52.131%" r="453.922%" fx="135.976%" fy="-52.131%" gradientTransform="matrix(.9949 .05436 -.10095 .53571 -.046 -.316)">
      <stop offset=".3%" stop-color="#FFE900"/>
      <stop offset="15.7%" stop-color="#FFAF0E"/>
      <stop offset="31.6%" stop-color="#FF7A1B"/>
      <stop offset="47.2%" stop-color="#FF4E26"/>
      <stop offset="62.1%" stop-color="#FF2C2E"/>
      <stop offset="76.2%" stop-color="#FF1434"/>
      <stop offset="89.2%" stop-color="#FF0538"/>
      <stop offset="100%" stop-color="#FF0039"/>
    </radialGradient>
    <radialGradient id="firefox-f" cx="211.883%" cy="2.145%" r="372.863%" fx="211.883%" fy="2.145%" gradientTransform="matrix(.53743 .10165 -.05492 .99482 .981 -.215)">
      <stop offset=".3%" stop-color="#FF272D"/>
      <stop offset="49.7%" stop-color="#C42482"/>
      <stop offset="98.6%" stop-color="#620700"/>
    </radialGradient>
    <radialGradient id="firefox-g" cx="60.104%" cy="41.917%" r="65.47%" fx="60.104%" fy="41.917%" gradientTransform="matrix(1 0 0 .95894 0 .017)">
      <stop offset="0%" stop-color="#FFEA00"/>
      <stop offset="23.1%" stop-color="#FFDE00"/>
      <stop offset="36.5%" stop-color="#FFBF00"/>
      <stop offset="54.1%" stop-color="#FF8E00"/>
      <stop offset="76.3%" stop-color="#FF272D"/>
      <stop offset="79.6%" stop-color="#F92433"/>
      <stop offset="84.1%" stop-color="#E91C45"/>
      <stop offset="91.844%" stop-color="#CF0E62"/>
      <stop offset="100%" stop-color="#B5007F"/>
    </radialGradient>
    <radialGradient id="firefox-h" cy="15.899%" r="178.618%" fx="50%" fy="15.899%" gradientTransform="matrix(1 0 0 .39634 0 .096)">
      <stop offset="0%" stop-color="#FFEA00"/>
      <stop offset="40.2%" stop-color="#FD0"/>
      <stop offset="63%" stop-color="#FFBA00"/>
      <stop offset="85.6%" stop-color="#FF9100"/>
      <stop offset="93.3%" stop-color="#FF6711"/>
      <stop offset="100%" stop-color="#FF4A1D"/>
    </radialGradient>
    <linearGradient id="firefox-i" x1="-121.603%" x2="142.342%" y1="64.455%" y2="29.666%">
      <stop offset="0%" stop-color="#C42482" stop-opacity=".5"/>
      <stop offset="47.4%" stop-color="#FF272D" stop-opacity=".5"/>
      <stop offset="48.6%" stop-color="#FF2C2C" stop-opacity=".513"/>
      <stop offset="67.5%" stop-color="#FF7A1A" stop-opacity=".72"/>
      <stop offset="82.9%" stop-color="#FFB20D" stop-opacity=".871"/>
      <stop offset="94.2%" stop-color="#FFD605" stop-opacity=".964"/>
      <stop offset="100%" stop-color="#FFE302"/>
    </linearGradient>
    <linearGradient id="firefox-j" x1="56.498%" x2="19.49%" y1="94.893%" y2="5.478%">
      <stop offset="0%" stop-color="#891551" stop-opacity=".6"/>
      <stop offset="100%" stop-color="#C42482" stop-opacity="0"/>
    </linearGradient>
    <linearGradient id="firefox-k" x1="8.04%" x2="47.914%" y1="6.686%" y2="47.886%">
      <stop offset=".5%" stop-color="#891551" stop-opacity=".5"/>
      <stop offset="48.4%" stop-color="#FF272D" stop-opacity=".5"/>
      <stop offset="100%" stop-color="#FF272D" stop-opacity="0"/>
    </linearGradient>
    <linearGradient id="firefox-l" x1="47.509%" x2="50.009%" y1="102.675%" y2="31.749%">
      <stop offset="0%" stop-color="#C42482"/>
      <stop offset="8.3%" stop-color="#C42482" stop-opacity=".81"/>
      <stop offset="20.6%" stop-color="#C42482" stop-opacity=".565"/>
      <stop offset="32.8%" stop-color="#C42482" stop-opacity=".362"/>
      <stop offset="44.7%" stop-color="#C42482" stop-opacity=".204"/>
      <stop offset="56.2%" stop-color="#C42482" stop-opacity=".091"/>
      <stop offset="67.3%" stop-color="#C42482" stop-opacity=".023"/>
      <stop offset="77.3%" stop-color="#C42482" stop-opacity="0"/>
    </linearGradient>
    <linearGradient id="firefox-m" x1="6.334%" x2="92.351%" y1="1.647%" y2="89.461%">
      <stop offset="0%" stop-color="#FFF14F"/>
      <stop offset="26.8%" stop-color="#FFEE4C"/>
      <stop offset="45.2%" stop-color="#FFE643"/>
      <stop offset="61.2%" stop-color="#FFD834"/>
      <stop offset="75.7%" stop-color="#FFC41E"/>
      <stop offset="89.2%" stop-color="#FFAB02"/>
      <stop offset="90.2%" stop-color="#FFA900"/>
      <stop offset="94.9%" stop-color="#FFA000"/>
      <stop offset="100%" stop-color="#FF9100"/>
    </linearGradient>
    <linearGradient id="firefox-n" x1="71.789%" x2="42.746%" y1="7.159%" y2="81.948%">
      <stop offset="0%" stop-color="#FF8E00"/>
      <stop offset="4%" stop-color="#FF8E00" stop-opacity=".858"/>
      <stop offset="8.4%" stop-color="#FF8E00" stop-opacity=".729"/>
      <stop offset="13%" stop-color="#FF8E00" stop-opacity=".628"/>
      <stop offset="17.8%" stop-color="#FF8E00" stop-opacity=".557"/>
      <stop offset="22.7%" stop-color="#FF8E00" stop-opacity=".514"/>
      <stop offset="28.2%" stop-color="#FF8E00" stop-opacity=".5"/>
      <stop offset="38.9%" stop-color="#FF8E00" stop-opacity=".478"/>
      <stop offset="52.4%" stop-color="#FF8E00" stop-opacity=".416"/>
      <stop offset="67.6%" stop-color="#FF8E00" stop-opacity=".314"/>
      <stop offset="83.8%" stop-color="#FF8E00" stop-opacity=".172"/>
      <stop offset="100%" stop-color="#FF8E00" stop-opacity="0"/>
    </linearGradient>
  </defs>
  <g fill="none" transform="translate(1.048 .485)">
    <path fill="url(#firefox-a)" d="M11.3094081,1.33731343 C10.9559721,1.74687082 10.7913639,2.66860994 11.1497442,3.60301004 C11.5081246,4.53741013 12.0574285,4.33446742 12.3998395,5.28731552 C12.8518072,6.5445997 12.6414311,8.23354656 12.6414311,8.23354656 C12.6414311,8.23354656 13.1847724,9.79940883 13.5634022,8.13612173 C14.4014678,5.01196147 11.3094081,2.10665091 11.3094081,1.33731343 Z"/>
    <path fill="url(#firefox-b)" d="M7.01738976,14.3343284 C10.6210213,14.3343284 13.5402985,11.3961097 13.5402985,7.77312697 C13.5402985,4.15014427 10.6210213,1.2119403 7.02088707,1.2119403 C3.42075281,1.2119403 0.501505013,4.15015898 0.501505013,7.77312697 C0.494525104,11.3996107 3.41724081,14.3343284 7.01738976,14.3343284 Z"/>
    <path fill="url(#firefox-c)" d="M11.892997,11.8016782 C11.7521325,11.9012016 11.604357,11.9905331 11.4507961,12.0689922 C11.6542166,11.7704976 11.8418863,11.4615379 12.0130341,11.1433827 C12.1519054,10.9894599 12.2791209,10.8398299 12.38279,10.678042 C12.4332446,10.5985519 12.4901437,10.5004648 12.5503751,10.3866766 C12.9162114,9.72658755 13.3195988,8.65834589 13.3310344,7.56108384 L13.3310344,7.5584376 C13.3312987,7.53143129 13.3314602,7.50441027 13.33124,7.47735985 C13.3331333,7.20192934 13.3050165,6.92711393 13.2473887,6.65779094 C13.2503247,6.67882852 13.2529083,6.6998514 13.2555507,6.72087428 C13.2523064,6.70470283 13.249576,6.68835497 13.2460969,6.67215412 C13.2514697,6.7020566 13.2557856,6.73095938 13.2604244,6.76011209 C13.3352035,7.39545882 13.281945,8.01519276 13.0155352,8.47208023 C13.0113368,8.47875463 13.0070209,8.48500268 13.0027785,8.49153007 C13.1409158,7.79712815 13.1871279,7.03041047 13.03343,6.26281071 C13.03343,6.26281071 12.9719655,5.88964723 12.5141158,4.75679329 C12.2505833,4.10474587 11.7825752,3.57016195 11.3690881,3.18070941 C11.0066427,2.73164304 10.6774619,2.43028078 10.4960044,2.23894317 C10.1169562,1.83922911 9.95809089,1.53961631 9.89285367,1.34411822 C9.83629223,1.31571528 9.11284019,0.611889826 9.05536861,0.585074627 C8.7395905,1.07539289 7.74648442,2.60907818 8.21889646,4.04203006 C8.43298729,4.69141654 8.97442395,5.36539833 9.5410659,5.74350145 C9.56594824,5.7719632 9.87824722,6.11165179 10.0267632,6.87781082 C10.1801088,7.66935902 10.0994871,8.28700537 9.78387051,9.20036867 C9.41267599,10.0016639 8.46170107,10.7938148 7.57126581,10.8748485 C5.66764246,11.0480447 4.97074626,9.91767524 4.97074626,9.91767524 C5.65095148,10.1900171 6.40302921,10.1330495 6.8603944,9.85069605 C7.32134148,9.565123 7.60017043,9.35339466 7.82647489,9.43688343 C8.04960851,9.51998996 8.22723461,9.27875609 8.06784087,9.02867202 C7.81621165,8.64053793 7.35740364,8.44046777 6.90226132,8.52040345 C6.4408298,8.59551247 6.01815308,8.96157521 5.41354905,8.607053 C5.37441766,8.58431233 5.33654224,8.55947008 5.30008854,8.53263494 C5.26023277,8.5063931 5.42965284,8.57257842 5.39012002,8.54274945 C5.27246108,8.47873992 5.0642275,8.33925385 5.01020568,8.28963691 C5.00120694,8.28137477 5.10149963,8.32167107 5.09250088,8.31339423 C4.52718012,7.84718613 4.59779016,7.53225456 4.61555277,7.33472769 C4.62977754,7.17670326 4.73246305,6.97420734 4.90549436,6.89207109 C4.98906671,6.93774808 5.04113611,6.9726196 5.04113611,6.9726196 C5.04113611,6.9726196 5.00549345,6.89968638 4.98621882,6.86124244 C4.99297154,6.85830217 4.99943068,6.85908134 5.00615404,6.85621459 C5.07462083,6.88930725 5.22601406,6.97529524 5.3057256,7.02773483 C5.40954146,7.10106499 5.44262982,7.16645644 5.44262982,7.16645644 C5.44262982,7.16645644 5.46996369,7.15138759 5.44974955,7.08743687 C5.44240963,7.06120972 5.410892,6.97786797 5.3080597,6.89376175 L5.31448947,6.89448211 C5.37603735,6.92960252 5.43433663,6.97014749 5.48869517,7.01563565 C5.51768786,6.9100655 5.56983066,6.79983504 5.55836571,6.60264631 C5.55136342,6.4639982 5.55459299,6.42809759 5.53019509,6.3745554 C5.50835148,6.32856969 5.54243808,6.31063408 5.58037079,6.35838396 C5.57387817,6.32096985 5.56299854,6.28445399 5.5479577,6.24959422 L5.54828065,6.2460071 C5.59562315,6.08082313 6.5501506,5.6511772 6.6196303,5.6009575 C6.7337879,5.5200655 6.82951293,5.41584258 6.90048506,5.29517015 C6.95358205,5.21044647 6.99351122,5.09158634 7.00324396,4.91128941 C7.0084553,4.78127098 6.94806243,4.69468024 5.98289209,4.59347638 C5.71893383,4.56744035 5.56406149,4.37589692 5.47605583,4.19914301 C5.45999608,4.1610666 5.44362805,4.12656262 5.42724535,4.09208803 C5.41160846,4.05178566 5.39905524,4.01035055 5.38969431,3.96814125 C5.54748794,3.51426755 5.81262059,3.13050442 6.20247319,2.84055038 C6.22371492,2.82117405 6.11759434,2.84551943 6.13882139,2.82614309 C6.16358629,2.80353247 6.32534348,2.73827333 6.35589223,2.72357202 C6.39320839,2.70593044 6.19614618,2.62213294 6.02219003,2.64253837 C5.84501901,2.66253216 5.80739457,2.68370205 5.7128417,2.72385134 C5.75208092,2.68473114 5.87685959,2.63345296 5.84760266,2.63379109 C5.65660322,2.66312021 5.41925951,2.77430626 5.2163694,2.90023772 C5.21597407,2.87830896 5.2201488,2.85653856 5.22862707,2.8363164 C5.1340742,2.8764804 4.90185376,3.03901813 4.83425308,3.17653424 C4.83716635,3.15017608 4.83847039,3.12366442 4.83815792,3.09714713 C4.76612846,3.15730832 4.70114617,3.22545828 4.64445739,3.30028991 L4.64091954,3.30350949 C4.09250996,3.0822547 3.60991011,3.06793562 3.20151687,3.1671401 C3.11217535,3.07728566 3.06853217,3.14297113 2.8652457,2.69568362 C2.85143197,2.66875081 2.87584455,2.7222783 2.8652457,2.69568362 C2.83180502,2.60894586 2.885636,2.81141238 2.8652457,2.69568362 C2.52344023,2.96577618 2.07370855,3.27187226 1.85782678,3.48793749 C1.85515505,3.49655246 2.10967417,3.41590105 1.85782678,3.48793749 C1.76963028,3.51316495 1.77561966,3.56557514 1.76221696,4.03923681 C1.75898739,4.07515212 1.76184996,4.11537492 1.75894336,4.14770311 C1.58648456,4.36775239 1.46903113,4.55409156 1.42460992,4.6506498 C1.20157907,5.03553022 0.955941249,5.63552029 0.717834191,6.58462249 C0.822859166,6.32736357 0.949481279,6.07948831 1.09633927,5.84366151 C0.898337544,6.34743148 0.706927068,7.13852394 0.668656716,8.35677781 C0.716554535,8.10538634 0.777971425,7.85676825 0.852639192,7.61200919 C0.805894731,8.62271756 0.979935502,9.63146812 1.36261695,10.5678703 C1.4995652,10.903369 1.72608987,11.4125344 2.11171467,11.9703758 C3.32328617,13.2470233 5.03219609,14.041791 6.92453064,14.041791 C8.90002651,14.0418057 10.6739828,13.176207 11.892997,11.8016782 Z"/>
    <path fill="url(#firefox-d)" d="M10.4473779,12.7420564 C12.8250005,12.4645761 13.8775222,9.99520807 12.5258962,9.94665639 C11.3049979,9.90732953 9.32117864,12.8729988 10.4473779,12.7420564 Z"/>
    <path fill="url(#firefox-e)" d="M12.6994851,9.41767505 C14.3344178,8.46084276 13.9081325,6.39402985 13.9081325,6.39402985 C13.9081325,6.39402985 13.2771596,7.1311314 12.8485106,8.30610983 C12.4250849,9.46959993 11.7165353,9.99558332 12.6994851,9.41767505 Z"/>
    <path fill="url(#firefox-f)" d="M7.46088166,13.9940298 C9.74410733,14.7318239 11.7064798,12.9103748 10.496857,12.3020953 C9.39707901,11.753519 6.37719456,13.6451645 7.46088166,13.9940298 Z"/>
    <path fill="url(#firefox-g)" d="M12.8751532,10.3201364 C12.9309502,10.2413459 13.0064231,9.98906371 13.0730859,9.87629185 C13.4780843,9.22218276 13.4809476,8.70063495 13.4809476,8.68869077 C13.7255589,7.46607988 13.7033722,6.96684845 13.5528964,6.0435913 C13.4317434,5.30020204 12.9020973,4.23518673 12.4432694,3.72233629 C11.9704629,3.19395695 12.3035712,3.3661118 11.8457711,2.98015173 C11.444517,2.5351025 11.0554648,2.09438726 10.8435828,1.91714916 C9.31245321,0.636389359 9.34704737,0.364347086 9.37653171,0.317966061 C9.37155402,0.323416602 9.36424167,0.331511612 9.35491769,0.342104174 C9.33678365,0.269777982 9.3239797,0.208955224 9.3239797,0.208955224 C9.3239797,0.208955224 8.48702404,1.04637001 8.31082285,2.44206131 C8.19579284,3.35324205 8.5366981,4.30312017 9.03031105,4.9102312 C9.28734694,5.22485972 9.57783003,5.51057602 9.89663357,5.76233747 L9.89663357,5.76195549 C10.2695928,6.29785688 10.4748671,6.95915011 10.4748671,7.67051193 C10.4748671,9.45176663 9.0308837,10.8957489 7.24962181,10.8957489 C7.00685863,10.8958747 6.76485173,10.8686763 6.52816603,10.8146665 C5.68774509,10.6544118 5.20242827,10.2302245 4.96038657,9.94225663 C4.82167218,9.77721246 4.76268883,9.65690387 4.76268883,9.65690387 C5.51569931,9.92680118 6.34829398,9.8703418 6.85460811,9.59052773 C7.36484271,9.30749622 7.67356188,9.09768709 7.92410529,9.18041486 C8.17108062,9.26277534 8.36770647,9.02370076 8.19134376,8.77587006 C8.01850508,8.52839195 7.56876622,8.17395982 6.90099307,8.27215772 C6.39017113,8.34659949 5.9222395,8.70937639 5.2529246,8.35802947 C5.20981907,8.33562037 5.16789613,8.31100399 5.12732251,8.2842782 C5.0831988,8.25825957 5.27075028,8.32387176 5.22697897,8.29429779 C5.09673692,8.23085995 4.86616298,8.09261305 4.80640141,8.04345534 C4.79643136,8.03527218 4.90746748,8.07520364 4.89743869,8.06696172 C4.27161611,7.60492913 4.34974666,7.29282317 4.36943714,7.0970591 C4.38519246,6.94044784 4.49885691,6.73976213 4.69040229,6.65837129 C4.78290792,6.70363576 4.84055507,6.73819014 4.84055507,6.73819014 C4.84055507,6.73819014 4.80108601,6.66590802 4.77975098,6.62781299 C4.78722485,6.62496284 4.79434631,6.62568273 4.80177613,6.62283258 C4.87757201,6.65562398 5.04516871,6.74079053 5.13341614,6.79281309 C5.24834336,6.86549188 5.28497853,6.93029603 5.28497853,6.93029603 C5.28497853,6.93029603 5.31524108,6.91536948 5.29284885,6.8519904 C5.28467018,6.82600116 5.24984107,6.74340562 5.13600042,6.66004612 L5.14312189,6.660766 C5.21070088,6.69523189 5.27521877,6.73540198 5.33597409,6.78083952 C5.36807207,6.67622144 5.42580733,6.56697554 5.41310616,6.37154938 C5.40535331,6.23415459 5.40893607,6.19855711 5.38191855,6.14550615 C5.35773494,6.09996254 5.39548604,6.08215646 5.43745129,6.12952181 C5.43018844,6.09216412 5.41812625,6.05590338 5.40156498,6.02164222 L5.40193207,6.01808688 C5.45435192,5.85437964 6.51104515,5.42859095 6.58795697,5.37881619 C6.71189419,5.30097651 6.81787718,5.19766466 6.89887866,5.0757308 C6.95761239,4.99176895 7.00186825,4.87397261 7.01264589,4.69529474 C7.01625802,4.61478539 6.99148707,4.5510684 6.71163552,4.49012812 C6.54367174,4.45354631 6.28381903,4.41794884 5.88300537,4.38032394 C5.59080506,4.35452569 5.41934662,4.16471167 5.32192205,3.98953037 C5.30414041,3.95178794 5.28602105,3.91754208 5.26788701,3.88342845 C5.25064867,3.84371315 5.2367444,3.80263103 5.22631822,3.76060762 C5.40116939,3.30261473 5.71606092,2.91153893 6.12610428,2.64312901 C6.14959777,2.62391254 6.03213031,2.64805066 6.05562381,2.62884888 C6.08305246,2.60644436 6.26211692,2.54177244 6.29594755,2.52719848 C6.33725204,2.50977438 6.11910028,2.42670871 5.92652707,2.44689481 C5.73040046,2.46671363 5.68874356,2.48767838 5.58406537,2.52749231 C5.62751364,2.48872148 5.7656407,2.43787424 5.73326373,2.43824152 C5.5218223,2.46730129 5.25898885,2.57750213 5.03433233,2.70229163 C5.03392108,2.68041167 5.03856415,2.65873212 5.04789983,2.63894193 C4.94322164,2.67874117 4.6861441,2.83983333 4.61130264,2.97611157 C4.6145212,2.95002031 4.6159635,2.92374033 4.61561957,2.89745335 C4.53679547,2.9562322 4.46487785,3.02375356 4.40124145,3.09872672 L4.39732098,3.10192947 C3.79020509,2.88265902 3.2559484,2.86846704 2.80384551,2.96676778 C2.7049379,2.87772268 2.54591633,2.7430752 2.32087804,2.29977426 C2.30559259,2.27307982 2.29738455,2.35494079 2.2856378,2.32858426 C2.19819796,2.12565075 2.14536697,1.7931677 2.15404488,1.56395111 C2.15404488,1.56395111 1.97317436,1.64642912 1.82347676,1.99088573 C1.79568102,2.05281035 1.77785534,2.08696806 1.76004433,2.12112577 C1.75185098,2.1310866 1.77861887,2.00800132 1.774346,2.01470063 C1.74832695,2.0587751 1.6810181,2.12036181 1.65143098,2.20007782 C1.63110911,2.25915229 1.60260857,2.29223752 1.58441579,2.36591533 L1.58014292,2.37267342 C1.57867457,2.3509594 1.58553174,2.28333448 1.58053937,2.29720325 C1.51037259,2.43904317 1.44999028,2.58552165 1.39981568,2.73561192 C1.31921832,3.0007345 1.22539118,3.3616162 1.21051687,3.83108268 C1.20693411,3.86668016 1.21012041,3.90653816 1.20689006,3.93858029 C1.01600544,4.15666073 0.885939589,4.34131804 0.836764774,4.43703308 C0.589980322,4.8185857 0.31804315,5.41320896 0.0544314846,6.35380206 C0.171715242,6.09686854 0.311964142,5.85106476 0.473467284,5.6193893 C0.254258319,6.11865011 0.0423617031,6.90266134 0,8.11003716 C0.0532102421,7.86018068 0.121226536,7.61371203 0.203688577,7.37193683 C0.165834688,8.17703034 0.259559038,9.17517 0.768251877,10.3013166 C1.07029009,10.9637117 1.7655653,12.3088936 3.46442377,13.3586151 L3.46427694,13.358718 C3.46427694,13.358718 4.04221684,13.7891785 5.03565384,14.1117889 C5.10907101,14.1384393 5.18344259,14.1646783 5.25934126,14.1901386 C5.23552473,14.1805157 5.21248642,14.1703932 5.19010887,14.1599917 C5.85134952,14.358218 6.53788711,14.4591766 7.22816932,14.459698 C9.80041304,14.4618871 10.5590473,13.4283556 10.5590473,13.4283556 C10.5590473,13.4283556 10.5563749,13.4303683 10.5515147,13.4338943 C10.5878121,13.3997023 10.6227734,13.3641636 10.6563984,13.3272782 C10.250563,13.710726 9.32439084,13.7361716 8.97808208,13.7085076 C9.56869379,13.534957 9.95733488,13.388145 10.7132967,13.0985317 C10.8017595,13.0657207 10.8922192,13.0283064 10.9846759,12.9862887 C10.9946753,12.9818813 11.0047629,12.9771066 11.0148063,12.9725375 C11.0331459,12.9639871 11.0513093,12.9559068 11.0698252,12.9469156 C11.4381452,12.7732528 11.7844806,12.5563132 12.1015125,12.3006811 C12.860646,11.6939227 13.0258199,11.1024875 13.1121585,10.7125313 C13.1001181,10.7499065 13.0626019,10.8370417 13.0362451,10.8934717 C12.8407352,11.3119146 12.4071922,11.5686777 11.9363386,11.7888884 C12.1603972,11.494745 12.3681759,11.1885364 12.5587399,10.8716401 C12.7124314,10.7190984 12.7603875,10.4804793 12.8751532,10.3201364 Z"/>
    <path fill="url(#firefox-h)" d="M11.9458917,11.774277 C12.2556515,11.4326389 12.5338181,11.041874 12.7445223,10.5987632 C13.2867489,9.45832315 14.1250988,7.56207806 13.4648167,5.58163251 C12.9429714,4.01635347 12.2264829,3.16045748 11.3167619,2.32436213 C9.83931945,0.966600196 9.42668357,0.360453851 9.42668357,0 C9.42668357,0 7.7208153,1.90228671 8.46063862,3.88634841 C9.20046195,5.87041012 10.7156546,5.7976755 11.7180978,7.86814265 C12.8976977,10.3045614 10.7637055,12.9632999 8.99897115,13.7074627 C9.10701971,13.6834579 12.9219583,12.8198445 13.1224499,10.6369386 C13.1179093,10.6770838 13.0319465,11.280834 11.9458917,11.774277 Z"/>
    <path fill="url(#firefox-i)" d="M6.97880561,4.69369522 C6.98453601,4.56471226 6.91820636,4.47808631 5.86069389,4.3780326 C5.42560697,4.337514 5.25900275,3.93190158 5.20821661,3.76119403 C5.05351061,4.16660056 4.98963059,4.592009 5.0239692,5.10657305 C5.04744485,5.4436642 5.27197998,5.80547831 5.37931182,6.01791045 C5.37931182,6.01791045 5.40316658,5.98664274 5.41417535,5.97508281 C5.61628466,5.76284187 6.46308493,5.43945792 6.54263968,5.39354175 C6.63033072,5.33766874 6.96407865,5.09170398 6.97880561,4.69369522 Z"/>
    <path fill="url(#firefox-j)" d="M2.32328541,2.28363939 C2.30810974,2.25686126 2.29996064,2.33893373 2.28829826,2.31252383 C2.20148638,2.10906601 2.14867035,1.77931793 2.16117826,1.54626866 C2.16117826,1.54626866 1.98160668,1.62895976 1.83298415,1.97430632 C1.80538803,2.03639093 1.78769036,2.07063689 1.77000727,2.10488285 C1.76187275,2.11486941 1.78844842,1.99146612 1.78420622,1.99818275 C1.75838862,2.04237109 1.69156315,2.10411692 1.66253839,2.18045963 C1.63847014,2.24289775 1.61371673,2.27642196 1.59529016,2.35385465 C1.58961932,2.37490303 1.60100472,2.26072037 1.59604821,2.27462497 C1.25038968,2.94960178 1.18440974,3.97019027 1.22084011,3.927033 C1.95670748,3.13311593 2.8,2.94482944 2.8,2.94482944 C2.71027252,2.87804613 2.51532117,2.68522297 2.32329999,2.28363939 L2.32328541,2.28363939 Z"/>
    <path fill="url(#firefox-k)" d="M5.15131472,10.5774494 C4.12878156,10.1391156 2.96628144,9.5208924 3.01016044,8.11642468 C3.06992211,6.26674675 4.72814344,6.63232683 4.72814344,6.63232683 C4.66556601,6.64762559 4.49826266,6.76723277 4.43897029,6.89471755 C4.37630486,7.0541398 4.26197309,7.41413929 4.60837079,7.79144007 C5.1522973,8.38324749 3.49086424,9.19551023 6.05530712,10.7299659 C6.11998172,10.7653047 5.45415606,10.7089099 5.15134405,10.5774494 L5.15131472,10.5774494 Z"/>
    <path fill="url(#firefox-l)" d="M4.78061838,9.65394259 C5.50623994,9.90758563 6.35156073,9.86309823 6.85764075,9.58233233 C7.19644123,9.39289974 7.63107742,9.08949214 7.89850746,9.16438958 C7.66696078,9.07246664 7.49159465,9.02951228 7.2806387,9.01901691 C7.24471131,9.01901691 7.20165129,9.01825039 7.16252449,9.01429989 C7.08526013,9.01404863 7.00804623,9.01829616 6.93127133,9.0270211 C6.80065299,9.03907898 6.65585743,9.12184795 6.52422643,9.10856659 C6.51710847,9.1078443 6.65190953,9.05293523 6.64094639,9.05542641 C6.57120501,9.07003443 6.49543169,9.07318894 6.41537292,9.08315364 C6.36449048,9.08884355 6.320726,9.09524101 6.27021046,9.09734893 C4.7588242,9.22607936 3.48147959,8.27462687 3.48147959,8.27462687 C3.37275816,8.64240705 3.96823102,9.36986004 4.78063306,9.65394259 L4.78061838,9.65394259 Z"/>
    <path fill="url(#firefox-m)" d="M11.9473344,11.7850746 C13.4786171,10.2805152 14.2533584,8.45163764 13.9258354,6.40033481 C13.9258354,6.40033481 14.0566741,7.45221708 13.5605457,8.5280499 C13.7988925,7.47774178 13.8266333,6.17251035 13.1933889,4.82089312 C12.3481859,3.01678998 10.9581354,2.06749197 10.427445,1.67145462 C9.62337531,1.07138153 9.29006016,0.460407114 9.28404747,0.334328358 C9.04384828,0.826829936 8.31722331,2.51459343 9.2059853,3.96810348 C10.0386484,5.32987174 11.3503427,5.73407405 12.2686095,6.98320999 C13.9603239,9.28440474 11.9473344,11.7850746 11.9473344,11.7850746 Z"/>
    <path fill="url(#firefox-n)" d="M11.7026226,7.87923923 C11.1686019,6.77280211 10.502081,6.29021361 9.87158987,5.76716418 C9.94494032,5.87015563 9.96301387,5.90654103 10.0036207,5.97314708 C10.5585462,6.56631896 11.3768439,8.01320168 10.7827492,9.82954415 C9.66446286,13.2484924 5.19134685,11.6385154 4.72238806,11.1862652 C4.91210167,13.1650105 8.21439775,14.1118844 10.3645049,12.8286845 C11.5879905,11.6671029 12.5777521,9.69243311 11.7026226,7.87923923 Z"/>
  </g>
</svg>
