<svg xmlns="http://www.w3.org/2000/svg" width="16" height="16" viewBox="0 0 16 16" version="1.1">
<defs>
<radialGradient id="radial0" gradientUnits="userSpaceOnUse" cx="0.55" cy="0.25" fx="0.55" fy="0.25" r="0.6" gradientTransform="matrix(7.324219,0,0,7.324219,4.371094,4.160156)">
<stop offset="0.1" style="stop-color:rgb(0%,86.666667%,100%);stop-opacity:0.4;"/>
<stop offset="0.9" style="stop-color:rgb(45.882353%,25.882353%,89.803922%);stop-opacity:0.25098;"/>
</radialGradient>
<radialGradient id="radial1" gradientUnits="userSpaceOnUse" cx="0.49238" cy="0.527" fx="0.49" fy="0.527" r="0.51" gradientTransform="matrix(7.324219,0,0,7.324219,4.371094,4.160156)">
<stop offset="0.91" style="stop-color:rgb(45.882353%,25.882353%,89.803922%);stop-opacity:0;"/>
<stop offset="1" style="stop-color:rgb(0%,86.666667%,100%);stop-opacity:0.4;"/>
</radialGradient>
<radialGradient id="radial2" gradientUnits="userSpaceOnUse" cx="0.86" cy="-0.13" fx="0.86" fy="-0.13" r="1.28" gradientTransform="matrix(12.160881,0,0,12.203125,2.886563,3.296875)">
<stop offset="0" style="stop-color:rgb(50.196078%,92.156863%,100%);stop-opacity:1;"/>
<stop offset="0.26" style="stop-color:rgb(0%,86.666667%,100%);stop-opacity:1;"/>
<stop offset="0.53" style="stop-color:rgb(0%,56.470588%,92.941176%);stop-opacity:1;"/>
<stop offset="0.86" style="stop-color:rgb(0%,37.647059%,87.45098%);stop-opacity:1;"/>
</radialGradient>
<radialGradient id="radial3" gradientUnits="userSpaceOnUse" cx="0.47729" cy="0.4" fx="0.48" fy="0.4" r="1.28" gradientTransform="matrix(12.160881,0,0,12.203125,1.839023,3.296875)">
<stop offset="0.3" style="stop-color:rgb(19.607843%,10.980392%,39.215686%);stop-opacity:0.8;"/>
<stop offset="0.37" style="stop-color:rgb(12.941176%,18.431373%,51.372549%);stop-opacity:0.501961;"/>
<stop offset="0.48" style="stop-color:rgb(3.921569%,27.843137%,67.45098%);stop-opacity:0.141176;"/>
<stop offset="0.53" style="stop-color:rgb(0.784314%,31.372549%,73.333333%);stop-opacity:0;"/>
</radialGradient>
<radialGradient id="radial4" gradientUnits="userSpaceOnUse" cx="0.9" cy="-0.5" fx="0.9" fy="-0.5" r="2.1" gradientTransform="matrix(11.454997,0,0,11.804688,2.311,2.503906)">
<stop offset="0" style="stop-color:rgb(50.196078%,92.156863%,100%);stop-opacity:1;"/>
<stop offset="0.47" style="stop-color:rgb(0%,70.196078%,95.686275%);stop-opacity:1;"/>
<stop offset="0.84" style="stop-color:rgb(0%,37.647059%,87.45098%);stop-opacity:1;"/>
<stop offset="1" style="stop-color:rgb(34.901961%,16.470588%,79.607843%);stop-opacity:1;"/>
</radialGradient>
<linearGradient id="linear0" gradientUnits="userSpaceOnUse" x1="0.42" y1="-0.1" x2="0.61" y2="1.14" gradientTransform="matrix(4.707031,0,0,10.152344,9.515625,0)">
<stop offset="0" style="stop-color:rgb(66.666667%,94.901961%,100%);stop-opacity:1;"/>
<stop offset="0.29" style="stop-color:rgb(0%,86.666667%,100%);stop-opacity:1;"/>
<stop offset="0.61" style="stop-color:rgb(0%,56.470588%,92.941176%);stop-opacity:1;"/>
<stop offset="0.89" style="stop-color:rgb(0.784314%,31.372549%,73.333333%);stop-opacity:1;"/>
</linearGradient>
<linearGradient id="linear1" gradientUnits="userSpaceOnUse" x1="0.38" y1="0" x2="0.63" y2="1.24" gradientTransform="matrix(3.605469,0,0,6.113281,7.753906,0.00390625)">
<stop offset="0" style="stop-color:rgb(66.666667%,94.901961%,100%);stop-opacity:1;"/>
<stop offset="0.29" style="stop-color:rgb(0%,86.666667%,100%);stop-opacity:1;"/>
<stop offset="0.74" style="stop-color:rgb(0%,56.470588%,92.941176%);stop-opacity:1;"/>
<stop offset="1" style="stop-color:rgb(0.784314%,31.372549%,73.333333%);stop-opacity:1;"/>
</linearGradient>
<radialGradient id="radial5" gradientUnits="userSpaceOnUse" cx="2.08" cy="-1.04" fx="2.08" fy="-1.04" r="3" gradientTransform="matrix(1.832031,0,0,1.831274,3.660156,2.982773)">
<stop offset="0" style="stop-color:rgb(0%,86.666667%,100%);stop-opacity:1;"/>
<stop offset="0.82" style="stop-color:rgb(0%,56.470588%,92.941176%);stop-opacity:1;"/>
</radialGradient>
<radialGradient id="radial6" gradientUnits="userSpaceOnUse" cx="1.55" cy="-0.45" fx="1.55" fy="-0.45" r="3.13" gradientTransform="matrix(4.992152,0,0,4.691406,3.35918,6.4375)">
<stop offset="0.29" style="stop-color:rgb(50.196078%,92.156863%,100%);stop-opacity:1;"/>
<stop offset="1" style="stop-color:rgb(0%,70.196078%,95.686275%);stop-opacity:1;"/>
</radialGradient>
<radialGradient id="radial7" gradientUnits="userSpaceOnUse" cx="0.15" cy="-0.43" fx="0.15" fy="-0.43" r="2.3" gradientTransform="matrix(5.988073,0,0,5.960938,6.424555,5.640625)">
<stop offset="0.18" style="stop-color:rgb(66.666667%,94.901961%,100%);stop-opacity:1;"/>
<stop offset="0.43" style="stop-color:rgb(0%,86.666667%,100%);stop-opacity:1;"/>
<stop offset="0.69" style="stop-color:rgb(0%,37.647059%,87.45098%);stop-opacity:1;"/>
</radialGradient>
<linearGradient id="linear2" gradientUnits="userSpaceOnUse" x1="0.86" y1="0.15" x2="0.2" y2="0.84" gradientTransform="matrix(14.964844,0,0,15.5,0.492187,0)">
<stop offset="0.24" style="stop-color:rgb(50.196078%,92.156863%,100%);stop-opacity:0.501961;"/>
<stop offset="0.7" style="stop-color:rgb(0%,86.666667%,100%);stop-opacity:0;"/>
</linearGradient>
<linearGradient id="linear3" gradientUnits="userSpaceOnUse" x1="0.61" y1="-0.1" x2="0.2" y2="1.49" gradientTransform="matrix(3.449219,0,0,3.25,4.574219,6.546875)">
<stop offset="0" style="stop-color:rgb(74.901961%,95.294118%,100%);stop-opacity:0.901961;"/>
<stop offset="1" style="stop-color:rgb(50.196078%,92.156863%,100%);stop-opacity:0.501961;"/>
</linearGradient>
<linearGradient id="linear4" gradientUnits="userSpaceOnUse" x1="0.51" y1="-0.02" x2="0.48" y2="1.39" gradientTransform="matrix(4.742188,0,0,12.464844,9.480469,0)">
<stop offset="0" style="stop-color:rgb(74.901961%,95.294118%,100%);stop-opacity:1;"/>
<stop offset="1" style="stop-color:rgb(0%,86.666667%,100%);stop-opacity:0;"/>
</linearGradient>
<linearGradient id="linear5" gradientUnits="userSpaceOnUse" x1="0.52" y1="-0.04" x2="0.47" y2="1.43" gradientTransform="matrix(2.550781,0,0,3.835938,7.792969,0.00390625)">
<stop offset="0" style="stop-color:rgb(74.901961%,95.294118%,100%);stop-opacity:1;"/>
<stop offset="1" style="stop-color:rgb(66.666667%,94.901961%,100%);stop-opacity:0.501961;"/>
</linearGradient>
<linearGradient id="linear6" gradientUnits="userSpaceOnUse" x1="0.53" y1="-0.02" x2="0.47" y2="1.42" gradientTransform="matrix(4.648438,0,0,5.839844,7.859375,5.632812)">
<stop offset="0" style="stop-color:rgb(74.901961%,95.294118%,100%);stop-opacity:1;"/>
<stop offset="1" style="stop-color:rgb(0%,86.666667%,100%);stop-opacity:0;"/>
</linearGradient>
<linearGradient id="linear7" gradientUnits="userSpaceOnUse" x1="0.49" y1="-0.02" x2="0.57" y2="1.23" gradientTransform="matrix(5.5,0,0,4.5625,2.441406,6.4375)">
<stop offset="0" style="stop-color:rgb(74.901961%,95.294118%,100%);stop-opacity:0.8;"/>
<stop offset="1" style="stop-color:rgb(50.196078%,92.156863%,100%);stop-opacity:0.2;"/>
</linearGradient>
<linearGradient id="linear8" gradientUnits="userSpaceOnUse" x1="1.17" y1="-0.23" x2="0.24" y2="1.28" gradientTransform="matrix(1.761719,0,0,1.835938,3.730469,2.988281)">
<stop offset="0" style="stop-color:rgb(74.901961%,95.294118%,100%);stop-opacity:0.8;"/>
<stop offset="1" style="stop-color:rgb(50.196078%,92.156863%,100%);stop-opacity:0.2;"/>
</linearGradient>
<linearGradient id="linear9" gradientUnits="userSpaceOnUse" x1="0.52" y1="-0.01" x2="0.47" y2="1.37" gradientTransform="matrix(5.046875,0,0,7.882812,0.492188,7.199219)">
<stop offset="0" style="stop-color:rgb(0%,86.666667%,100%);stop-opacity:0.4;"/>
<stop offset="1" style="stop-color:rgb(0%,86.666667%,100%);stop-opacity:0;"/>
</linearGradient>
<linearGradient id="linear10" gradientUnits="userSpaceOnUse" x1="0.5" y1="-0.12" x2="0.5" y2="0.99" gradientTransform="matrix(7.289062,0,0,11.597656,0.5625,2.503906)">
<stop offset="0" style="stop-color:rgb(74.901961%,95.294118%,100%);stop-opacity:1;"/>
<stop offset="1" style="stop-color:rgb(0%,86.666667%,100%);stop-opacity:0;"/>
</linearGradient>
<linearGradient id="linear11" gradientUnits="userSpaceOnUse" x1="0.53" y1="-0.03" x2="0.47" y2="1.42" gradientTransform="matrix(8.644531,0,0,12.203125,6.8125,3.296875)">
<stop offset="0" style="stop-color:rgb(74.901961%,95.294118%,100%);stop-opacity:0.8;"/>
<stop offset="1" style="stop-color:rgb(0%,86.666667%,100%);stop-opacity:0;"/>
</linearGradient>
</defs>
<g id="surface1">
<path style=" stroke:none;fill-rule:nonzero;fill:rgb(3.529412%,12.54902%,30.196078%);fill-opacity:1;" d="M 4.582031 9.035156 L 5.054688 10.347656 L 5.765625 11.304688 L 7.433594 11.625 L 8.234375 11.691406 L 9.597656 11.351562 L 10.183594 10.789062 Z M 4.582031 9.035156 "/>
<path style=" stroke:none;fill-rule:nonzero;fill:rgb(3.529412%,12.54902%,30.196078%);fill-opacity:1;" d="M 11.644531 7.097656 L 11.480469 6.542969 L 11 5.644531 L 10.453125 5.066406 L 9.875 4.652344 L 9.371094 4.453125 L 8.765625 4.238281 L 7.769531 4.175781 L 7.144531 4.289062 L 6.628906 4.445312 L 5.722656 4.980469 L 5.152344 5.613281 L 4.628906 6.464844 L 4.425781 7.1875 L 4.386719 8.285156 L 4.582031 9.035156 L 5.015625 9.886719 L 5.320312 10.296875 L 5.742188 10.6875 L 6.269531 11.042969 L 6.921875 11.324219 L 8.011719 11.453125 L 8.578125 11.46875 L 9.421875 11.234375 L 10.171875 10.820312 L 10.65625 10.40625 L 11.03125 9.960938 L 11.5625 8.921875 L 11.679688 8.210938 Z M 11.644531 7.097656 "/>
<path style=" stroke:none;fill-rule:nonzero;fill:rgb(5.490196%,33.72549%,84.313725%);fill-opacity:1;" d="M 7.789062 4.675781 L 7.34375 5.117188 L 8.070312 5.414062 L 8.609375 4.742188 Z M 7.789062 4.675781 "/>
<path style=" stroke:none;fill-rule:nonzero;fill:rgb(6.27451%,32.54902%,81.960784%);fill-opacity:1;" d="M 8.070312 5.414062 L 9.476562 5.371094 L 8.609375 4.742188 Z M 8.070312 5.414062 "/>
<path style=" stroke:none;fill-rule:nonzero;fill:rgb(4.313725%,30.980392%,74.901961%);fill-opacity:1;" d="M 9.375 4.738281 L 8.609375 4.742188 L 9.476562 5.371094 L 10.28125 5.316406 Z M 9.375 4.738281 "/>
<path style=" stroke:none;fill-rule:nonzero;fill:rgb(4.313725%,28.235294%,69.019608%);fill-opacity:1;" d="M 10.28125 5.316406 L 9.824219 4.6875 L 10.453125 5.066406 Z M 10.28125 5.316406 "/>
<path style=" stroke:none;fill-rule:nonzero;fill:rgb(4.705882%,27.058824%,65.490196%);fill-opacity:1;" d="M 10.882812 5.703125 L 10.28125 5.316406 L 10.453125 5.066406 Z M 10.882812 5.703125 "/>
<path style=" stroke:none;fill-rule:nonzero;fill:rgb(5.882353%,27.45098%,68.627451%);fill-opacity:1;" d="M 10.28125 5.316406 L 10.179688 5.746094 L 10.730469 5.96875 Z M 10.28125 5.316406 "/>
<path style=" stroke:none;fill-rule:nonzero;fill:rgb(4.705882%,27.843137%,67.843137%);fill-opacity:1;" d="M 10.28125 5.316406 L 10.882812 5.703125 L 10.730469 5.96875 Z M 10.28125 5.316406 "/>
<path style=" stroke:none;fill-rule:nonzero;fill:rgb(5.490196%,30.980392%,76.470588%);fill-opacity:1;" d="M 9.476562 5.371094 L 10.28125 5.316406 L 10.179688 5.746094 Z M 9.476562 5.371094 "/>
<path style=" stroke:none;fill-rule:nonzero;fill:rgb(9.019608%,30.196078%,79.215686%);fill-opacity:1;" d="M 9.476562 5.371094 L 8.84375 5.941406 L 9.660156 6.34375 Z M 9.476562 5.371094 "/>
<path style=" stroke:none;fill-rule:nonzero;fill:rgb(8.627451%,31.372549%,83.137255%);fill-opacity:1;" d="M 8.070312 5.414062 L 9.476562 5.371094 L 8.84375 5.941406 Z M 8.070312 5.414062 "/>
<path style=" stroke:none;fill-rule:nonzero;fill:rgb(7.058824%,27.45098%,69.803922%);fill-opacity:1;" d="M 10.179688 5.746094 L 10.5625 6.492188 L 10.730469 5.96875 Z M 10.179688 5.746094 "/>
<path style=" stroke:none;fill-rule:nonzero;fill:rgb(7.45098%,24.313725%,63.137255%);fill-opacity:1;" d="M 10.5625 6.492188 L 10.730469 5.96875 L 11.132812 6.925781 Z M 10.5625 6.492188 "/>
<path style=" stroke:none;fill-rule:nonzero;fill:rgb(6.27451%,23.921569%,59.607843%);fill-opacity:1;" d="M 10.730469 5.96875 L 11.34375 6.417969 L 11.132812 6.925781 Z M 10.730469 5.96875 "/>
<path style=" stroke:none;fill-rule:nonzero;fill:rgb(4.313725%,21.568627%,52.156863%);fill-opacity:1;" d="M 10.882812 5.703125 L 11 5.644531 L 11.34375 6.417969 Z M 10.882812 5.703125 "/>
<path style=" stroke:none;fill-rule:nonzero;fill:rgb(4.313725%,21.176471%,52.156863%);fill-opacity:1;" d="M 11.34375 6.417969 L 11.480469 6.542969 L 11 5.644531 Z M 11.34375 6.417969 "/>
<path style=" stroke:none;fill-rule:nonzero;fill:rgb(4.705882%,23.137255%,56.862745%);fill-opacity:1;" d="M 11.34375 6.417969 L 10.882812 5.703125 L 10.730469 5.96875 Z M 10.453125 5.066406 L 10.882812 5.703125 L 11 5.644531 Z M 10.453125 5.066406 "/>
<path style=" stroke:none;fill-rule:nonzero;fill:rgb(4.313725%,19.607843%,47.45098%);fill-opacity:1;" d="M 11.617188 7.53125 L 11.480469 6.542969 L 11.644531 7.097656 L 11.613281 7.53125 Z M 11.617188 7.53125 "/>
<path style=" stroke:none;fill-rule:nonzero;fill:rgb(5.882353%,21.960784%,55.294118%);fill-opacity:1;" d="M 11.34375 6.417969 L 11.617188 7.53125 L 11.480469 6.542969 Z M 11.34375 6.417969 "/>
<path style=" stroke:none;fill-rule:nonzero;fill:rgb(5.098039%,20.392157%,50.588235%);fill-opacity:1;" d="M 11.132812 6.925781 L 11.617188 7.53125 L 11.34375 6.417969 Z M 11.132812 6.925781 "/>
<path style=" stroke:none;fill-rule:nonzero;fill:rgb(4.313725%,18.039216%,44.313725%);fill-opacity:1;" d="M 11.613281 7.53125 L 11.644531 7.097656 L 11.679688 8.210938 L 11.617188 7.53125 Z M 11.613281 7.53125 "/>
<path style=" stroke:none;fill-rule:nonzero;fill:rgb(5.490196%,18.431373%,46.666667%);fill-opacity:1;" d="M 11.535156 8.410156 L 11.679688 8.210938 L 11.617188 7.53125 Z M 11.535156 8.410156 "/>
<path style=" stroke:none;fill-rule:nonzero;fill:rgb(5.490196%,16.078431%,41.176471%);fill-opacity:1;" d="M 11.5625 8.921875 L 11.445312 8.976562 L 11.679688 8.210938 Z M 11.5625 8.921875 "/>
<path style=" stroke:none;fill-rule:nonzero;fill:rgb(4.705882%,16.470588%,41.176471%);fill-opacity:1;" d="M 11.445312 8.976562 L 11.679688 8.210938 L 11.535156 8.410156 Z M 11.445312 8.976562 "/>
<path style=" stroke:none;fill-rule:nonzero;fill:rgb(7.058824%,19.215686%,50.196078%);fill-opacity:1;" d="M 11.535156 8.410156 L 11.617188 7.53125 L 11.367188 7.824219 Z M 11.535156 8.410156 "/>
<path style=" stroke:none;fill-rule:nonzero;fill:rgb(6.666667%,16.862745%,43.921569%);fill-opacity:1;" d="M 11.445312 8.976562 L 11.535156 8.410156 L 11.054688 9.214844 Z M 11.445312 8.976562 "/>
<path style=" stroke:none;fill-rule:nonzero;fill:rgb(7.058824%,21.568627%,54.901961%);fill-opacity:1;" d="M 11.132812 6.925781 L 11.617188 7.53125 L 11.367188 7.824219 Z M 11.132812 6.925781 "/>
<path style=" stroke:none;fill-rule:nonzero;fill:rgb(7.058824%,18.039216%,48.235294%);fill-opacity:1;" d="M 11.535156 8.410156 L 11.367188 7.824219 L 11.113281 8.546875 Z M 11.535156 8.410156 "/>
<path style=" stroke:none;fill-rule:nonzero;fill:rgb(6.666667%,16.078431%,42.352941%);fill-opacity:1;" d="M 11.03125 9.960938 L 11.445312 8.976562 L 11.058594 9.691406 Z M 11.03125 9.960938 "/>
<path style=" stroke:none;fill-rule:nonzero;fill:rgb(7.843137%,16.470588%,44.705882%);fill-opacity:1;" d="M 11.058594 9.691406 L 11.445312 8.976562 L 11.054688 9.214844 Z M 11.058594 9.691406 "/>
<path style=" stroke:none;fill-rule:nonzero;fill:rgb(6.666667%,15.294118%,40.784314%);fill-opacity:1;" d="M 11.445312 8.976562 L 11.03125 9.960938 L 11.5625 8.921875 Z M 10.65625 10.40625 L 11.03125 9.960938 L 11.058594 9.691406 Z M 10.171875 10.820312 L 10.65625 10.40625 L 10.144531 10.640625 Z M 10.171875 10.820312 "/>
<path style=" stroke:none;fill-rule:nonzero;fill:rgb(10.980392%,13.333333%,41.568627%);fill-opacity:1;" d="M 7.347656 11.105469 L 6.859375 11.226562 L 6.875 10.886719 Z M 7.347656 11.105469 "/>
<path style=" stroke:none;fill-rule:nonzero;fill:rgb(9.411765%,16.862745%,47.843137%);fill-opacity:1;" d="M 4.628906 6.464844 L 4.765625 6.414062 L 4.425781 7.1875 Z M 4.628906 6.464844 "/>
<path style=" stroke:none;fill-rule:nonzero;fill:rgb(12.156863%,18.823529%,55.294118%);fill-opacity:1;" d="M 4.425781 7.1875 L 4.683594 7.140625 L 4.765625 6.414062 Z M 4.425781 7.1875 "/>
<path style=" stroke:none;fill-rule:nonzero;fill:rgb(11.764706%,16.862745%,49.803922%);fill-opacity:1;" d="M 4.4375 8.117188 L 4.425781 7.1875 L 4.683594 7.140625 Z M 4.4375 8.117188 "/>
<path style=" stroke:none;fill-rule:nonzero;fill:rgb(7.45098%,27.45098%,70.980392%);fill-opacity:1;" d="M 10.179688 5.746094 L 9.660156 6.34375 L 10.5625 6.492188 Z M 5.652344 5.136719 L 6.3125 4.683594 L 5.722656 4.980469 Z M 5.652344 5.136719 "/>
<path style=" stroke:none;fill-rule:nonzero;fill:rgb(7.058824%,26.666667%,67.45098%);fill-opacity:1;" d="M 5.722656 4.980469 L 6.628906 4.445312 L 6.3125 4.683594 L 5.722656 4.980469 "/>
<path style=" stroke:none;fill-rule:nonzero;fill:rgb(5.490196%,29.019608%,71.372549%);fill-opacity:1;" d="M 6.3125 4.683594 L 7.144531 4.289062 L 6.628906 4.445312 Z M 6.3125 4.683594 "/>
<path style=" stroke:none;fill-rule:nonzero;fill:rgb(5.490196%,29.411765%,72.941176%);fill-opacity:1;" d="M 9.476562 5.371094 L 9.660156 6.34375 L 10.179688 5.746094 Z M 6.820312 4.640625 L 7.589844 4.328125 L 7.144531 4.289062 Z M 6.820312 4.640625 "/>
<path style=" stroke:none;fill-rule:nonzero;fill:rgb(3.921569%,30.588235%,73.72549%);fill-opacity:1;" d="M 7.769531 4.175781 L 7.144531 4.289062 L 7.589844 4.328125 Z M 7.769531 4.175781 "/>
<path style=" stroke:none;fill-rule:nonzero;fill:rgb(4.705882%,32.941176%,80%);fill-opacity:1;" d="M 8.363281 4.324219 L 7.589844 4.328125 L 7.769531 4.175781 "/>
<path style=" stroke:none;fill-rule:nonzero;fill:rgb(4.313725%,29.411765%,70.588235%);fill-opacity:1;" d="M 9.824219 4.6875 L 9.375 4.738281 L 10.28125 5.316406 Z M 8.363281 4.324219 L 9.371094 4.453125 L 8.765625 4.238281 Z M 8.363281 4.324219 "/>
<path style=" stroke:none;fill-rule:nonzero;fill:rgb(4.705882%,21.960784%,53.72549%);fill-opacity:1;" d="M 9.824219 4.6875 L 9.371094 4.453125 L 9.875 4.652344 Z M 9.824219 4.6875 "/>
<path style=" stroke:none;fill-rule:nonzero;fill:rgb(12.54902%,14.509804%,45.882353%);fill-opacity:1;" d="M 4.582031 9.035156 L 4.878906 9.277344 L 4.441406 8.117188 Z M 8.6875 11.347656 L 8.949219 10.730469 L 7.996094 10.988281 Z M 8.949219 10.730469 L 9.746094 10.953125 L 9.792969 10.335938 Z M 8.949219 10.730469 "/>
<path style=" stroke:none;fill-rule:nonzero;fill:rgb(10.588235%,15.294118%,45.098039%);fill-opacity:1;" d="M 10.144531 10.640625 L 9.792969 10.335938 L 10.640625 9.773438 Z M 10.144531 10.640625 "/>
<path style=" stroke:none;fill-rule:nonzero;fill:rgb(8.235294%,15.294118%,42.745098%);fill-opacity:1;" d="M 10.640625 9.773438 L 10.144531 10.640625 L 10.65625 10.40625 L 11.058594 9.691406 Z M 10.640625 9.773438 "/>
<path style=" stroke:none;fill-rule:nonzero;fill:rgb(4.705882%,25.098039%,61.568627%);fill-opacity:1;" d="M 9.875 4.652344 L 9.824219 4.6875 L 10.453125 5.066406 Z M 9.375 4.738281 L 9.824219 4.6875 L 9.371094 4.453125 Z M 9.375 4.738281 "/>
<path style=" stroke:none;fill-rule:nonzero;fill:rgb(4.313725%,29.803922%,71.764706%);fill-opacity:1;" d="M 7.769531 4.175781 L 8.363281 4.324219 L 8.765625 4.238281 Z M 9.371094 4.453125 L 8.363281 4.324219 L 9.375 4.738281 Z M 9.371094 4.453125 "/>
<path style=" stroke:none;fill-rule:nonzero;fill:rgb(4.313725%,33.333333%,80.784314%);fill-opacity:1;" d="M 8.363281 4.324219 L 8.609375 4.742188 L 9.375 4.738281 Z M 8.363281 4.324219 "/>
<path style=" stroke:none;fill-rule:nonzero;fill:rgb(3.921569%,32.156863%,77.254902%);fill-opacity:1;" d="M 8.363281 4.324219 L 8.609375 4.742188 L 7.789062 4.675781 Z M 8.363281 4.324219 "/>
<path style=" stroke:none;fill-rule:nonzero;fill:rgb(3.529412%,31.764706%,76.862745%);fill-opacity:1;" d="M 7.589844 4.328125 L 7.789062 4.675781 L 8.363281 4.324219 Z M 7.589844 4.328125 "/>
<path style=" stroke:none;fill-rule:nonzero;fill:rgb(4.313725%,31.372549%,76.862745%);fill-opacity:1;" d="M 6.820312 4.640625 L 7.589844 4.328125 L 7.789062 4.675781 Z M 6.820312 4.640625 "/>
<path style=" stroke:none;fill-rule:nonzero;fill:rgb(5.882353%,30.196078%,74.901961%);fill-opacity:1;" d="M 6.3125 4.683594 L 6.820312 4.640625 L 7.144531 4.289062 Z M 6.820312 4.640625 L 7.34375 5.117188 L 7.789062 4.675781 Z M 6.820312 4.640625 "/>
<path style=" stroke:none;fill-rule:nonzero;fill:rgb(8.235294%,27.45098%,71.372549%);fill-opacity:1;" d="M 6.820312 4.640625 L 5.964844 5.441406 L 6.3125 4.683594 Z M 6.820312 4.640625 "/>
<path style=" stroke:none;fill-rule:nonzero;fill:rgb(8.235294%,28.627451%,74.117647%);fill-opacity:1;" d="M 5.964844 5.441406 L 6.507812 5.53125 L 6.820312 4.640625 Z M 5.964844 5.441406 "/>
<path style=" stroke:none;fill-rule:nonzero;fill:rgb(7.843137%,29.411765%,76.470588%);fill-opacity:1;" d="M 6.507812 5.53125 L 6.820312 4.640625 L 7.34375 5.117188 Z M 6.507812 5.53125 "/>
<path style=" stroke:none;fill-rule:nonzero;fill:rgb(9.019608%,21.568627%,58.039216%);fill-opacity:1;" d="M 5.152344 5.613281 L 5.1875 5.933594 L 5.652344 5.136719 Z M 5.152344 5.613281 "/>
<path style=" stroke:none;fill-rule:nonzero;fill:rgb(9.803922%,18.431373%,51.764706%);fill-opacity:1;" d="M 4.765625 6.414062 L 5.152344 5.613281 L 5.1875 5.933594 Z M 4.765625 6.414062 "/>
<path style=" stroke:none;fill-rule:nonzero;fill:rgb(10.196078%,21.960784%,60.784314%);fill-opacity:1;" d="M 5.1875 5.933594 L 5.652344 5.136719 L 5.964844 5.441406 Z M 5.1875 5.933594 "/>
<path style=" stroke:none;fill-rule:nonzero;fill:rgb(11.372549%,18.823529%,53.72549%);fill-opacity:1;" d="M 5.160156 6.625 L 5.1875 5.933594 L 4.765625 6.414062 Z M 5.160156 6.625 "/>
<path style=" stroke:none;fill-rule:nonzero;fill:rgb(11.764706%,21.960784%,62.352941%);fill-opacity:1;" d="M 5.160156 6.625 L 5.1875 5.933594 L 5.734375 6.378906 Z M 5.160156 6.625 "/>
<path style=" stroke:none;fill-rule:nonzero;fill:rgb(10.980392%,25.098039%,68.627451%);fill-opacity:1;" d="M 5.734375 6.378906 L 5.964844 5.441406 L 5.1875 5.933594 Z M 5.734375 6.378906 "/>
<path style=" stroke:none;fill-rule:nonzero;fill:rgb(11.764706%,25.490196%,71.764706%);fill-opacity:1;" d="M 5.734375 6.378906 L 5.964844 5.441406 L 6.507812 5.53125 Z M 5.734375 6.378906 "/>
<path style=" stroke:none;fill-rule:nonzero;fill:rgb(9.803922%,17.254902%,49.019608%);fill-opacity:1;" d="M 4.683594 7.140625 L 4.765625 6.414062 L 5.160156 6.625 Z M 4.683594 7.140625 "/>
<path style=" stroke:none;fill-rule:nonzero;fill:rgb(8.627451%,14.117647%,40.392157%);fill-opacity:1;" d="M 8.6875 11.347656 L 9.421875 11.234375 L 9.746094 10.953125 Z M 4.386719 8.285156 L 4.441406 8.117188 L 4.425781 7.1875 Z M 4.683594 7.140625 L 4.441406 8.117188 L 4.878906 9.277344 L 4.664062 7.933594 Z M 4.683594 7.140625 "/>
<path style=" stroke:none;fill-rule:nonzero;fill:rgb(10.196078%,13.72549%,41.568627%);fill-opacity:1;" d="M 4.878906 9.277344 L 5.242188 9.328125 L 4.988281 8.738281 Z M 4.878906 9.277344 "/>
<path style=" stroke:none;fill-rule:nonzero;fill:rgb(7.45098%,14.901961%,40.784314%);fill-opacity:1;" d="M 10.144531 10.640625 L 9.746094 10.953125 L 9.421875 11.234375 L 10.171875 10.820312 Z M 8.011719 11.453125 L 8.578125 11.46875 L 9.421875 11.234375 L 8.6875 11.347656 Z M 5.21875 9.953125 L 5.597656 10.027344 L 5.242188 9.332031 Z M 5.21875 9.953125 "/>
<path style=" stroke:none;fill-rule:nonzero;fill:rgb(10.588235%,13.333333%,40.784314%);fill-opacity:1;" d="M 6.875 10.886719 L 6.226562 10.386719 L 5.960938 10.648438 L 6.859375 11.226562 Z M 4.582031 9.035156 L 5.015625 9.886719 L 4.878906 9.277344 Z M 4.386719 8.285156 L 4.582031 9.035156 L 4.441406 8.117188 Z M 7.996094 10.988281 L 6.875 10.886719 L 7.347656 11.109375 L 6.859375 11.226562 L 6.269531 11.042969 L 6.921875 11.324219 L 8.011719 11.453125 L 8.6875 11.347656 Z M 5.242188 9.332031 L 4.878906 9.277344 L 5.21875 9.953125 Z M 4.664062 7.933594 L 4.878906 9.277344 L 4.988281 8.738281 Z M 5.597656 10.027344 L 5.21875 9.953125 L 5.015625 9.886719 L 5.320312 10.296875 L 5.742188 10.6875 L 6.269531 11.042969 L 5.960938 10.648438 Z M 5.597656 10.027344 "/>
<path style=" stroke:none;fill-rule:nonzero;fill:rgb(12.941176%,16.470588%,50.588235%);fill-opacity:1;" d="M 4.683594 7.140625 L 5.195312 7.929688 L 5.160156 6.625 Z M 4.683594 7.140625 "/>
<path style=" stroke:none;fill-rule:nonzero;fill:rgb(12.941176%,14.901961%,47.843137%);fill-opacity:1;" d="M 4.664062 7.933594 L 4.988281 8.738281 L 5.195312 7.929688 Z M 4.664062 7.933594 "/>
<path style=" stroke:none;fill-rule:nonzero;fill:rgb(14.901961%,15.294118%,50.588235%);fill-opacity:1;" d="M 4.988281 8.738281 L 5.195312 7.929688 L 5.449219 8.566406 Z M 4.988281 8.738281 "/>
<path style=" stroke:none;fill-rule:nonzero;fill:rgb(15.294118%,13.72549%,47.45098%);fill-opacity:1;" d="M 5.242188 9.328125 L 6.222656 9.9375 L 5.449219 8.566406 Z M 5.242188 9.328125 "/>
<path style=" stroke:none;fill-rule:nonzero;fill:rgb(11.764706%,13.333333%,42.745098%);fill-opacity:1;" d="M 5.015625 9.886719 L 5.21875 9.953125 L 4.878906 9.277344 Z M 7.183594 10.238281 L 6.875 10.886719 L 7.996094 10.988281 Z M 5.242188 9.328125 L 5.597656 10.027344 L 5.960938 10.644531 L 6.226562 10.386719 L 6.222656 9.9375 Z M 5.242188 9.328125 "/>
<path style=" stroke:none;fill-rule:nonzero;fill:rgb(13.333333%,14.117647%,45.882353%);fill-opacity:1;" d="M 9.792969 10.335938 L 9.746094 10.953125 L 10.144531 10.640625 Z M 8.078125 10.246094 L 7.996094 10.988281 L 8.949219 10.730469 L 8.914062 9.898438 Z M 8.078125 10.246094 "/>
<path style=" stroke:none;fill-rule:nonzero;fill:rgb(13.72549%,15.294118%,49.019608%);fill-opacity:1;" d="M 4.664062 7.933594 L 5.195312 7.929688 L 4.683594 7.140625 Z M 8.914062 9.898438 L 8.949219 10.730469 L 9.792969 10.335938 Z M 8.914062 9.898438 "/>
<path style=" stroke:none;fill-rule:nonzero;fill:rgb(11.764706%,15.294118%,46.27451%);fill-opacity:1;" d="M 8.914062 9.898438 L 9.460938 9.40625 L 9.792969 10.335938 Z M 8.914062 9.898438 "/>
<path style=" stroke:none;fill-rule:nonzero;fill:rgb(13.333333%,16.862745%,52.54902%);fill-opacity:1;" d="M 9.792969 10.335938 L 10.207031 9.089844 L 9.460938 9.40625 Z M 9.792969 10.335938 "/>
<path style=" stroke:none;fill-rule:nonzero;fill:rgb(9.803922%,16.078431%,45.490196%);fill-opacity:1;" d="M 10.640625 9.773438 L 9.792969 10.335938 L 10.207031 9.089844 Z M 10.640625 9.773438 "/>
<path style=" stroke:none;fill-rule:nonzero;fill:rgb(9.019608%,16.470588%,45.882353%);fill-opacity:1;" d="M 11.054688 9.214844 L 10.207031 9.089844 L 10.640625 9.773438 L 11.058594 9.691406 Z M 11.054688 9.214844 "/>
<path style=" stroke:none;fill-rule:nonzero;fill:rgb(9.019608%,17.647059%,49.019608%);fill-opacity:1;" d="M 11.113281 8.546875 L 10.207031 9.089844 L 11.054688 9.214844 L 11.535156 8.410156 Z M 11.113281 8.546875 "/>
<path style=" stroke:none;fill-rule:nonzero;fill:rgb(9.411765%,20%,54.117647%);fill-opacity:1;" d="M 4.765625 6.414062 L 5.152344 5.613281 L 4.628906 6.464844 Z M 10.777344 7.40625 L 11.113281 8.546875 L 11.367188 7.824219 Z M 10.777344 7.40625 "/>
<path style=" stroke:none;fill-rule:nonzero;fill:rgb(8.235294%,21.568627%,56.862745%);fill-opacity:1;" d="M 11.367188 7.824219 L 11.132812 6.925781 L 10.777344 7.40625 Z M 11.367188 7.824219 "/>
<path style=" stroke:none;fill-rule:nonzero;fill:rgb(10.588235%,19.215686%,54.509804%);fill-opacity:1;" d="M 10.207031 9.089844 L 11.113281 8.546875 L 10.234375 8.152344 Z M 10.207031 9.089844 "/>
<path style=" stroke:none;fill-rule:nonzero;fill:rgb(14.117647%,17.647059%,55.294118%);fill-opacity:1;" d="M 10.207031 9.089844 L 9.382812 8.257812 L 9.460938 9.40625 Z M 10.207031 9.089844 "/>
<path style=" stroke:none;fill-rule:nonzero;fill:rgb(16.470588%,16.862745%,56.078431%);fill-opacity:1;" d="M 8.914062 9.898438 L 8.28125 9.339844 L 9.460938 9.40625 Z M 8.914062 9.898438 "/>
<path style=" stroke:none;fill-rule:nonzero;fill:rgb(15.294118%,14.901961%,49.803922%);fill-opacity:1;" d="M 5.242188 9.328125 L 5.449219 8.566406 L 4.988281 8.738281 Z M 8.28125 9.339844 L 8.078125 10.246094 L 8.914062 9.898438 Z M 8.28125 9.339844 "/>
<path style=" stroke:none;fill-rule:nonzero;fill:rgb(17.647059%,13.72549%,50.588235%);fill-opacity:1;" d="M 6.972656 9.523438 L 6.363281 9.214844 L 6.222656 9.9375 L 7.183594 10.238281 L 8.078125 10.246094 Z M 6.972656 9.523438 "/>
<path style=" stroke:none;fill-rule:nonzero;fill:rgb(18.431373%,14.117647%,52.156863%);fill-opacity:1;" d="M 8.078125 10.246094 L 8.28125 9.339844 L 6.972656 9.523438 Z M 8.078125 10.246094 "/>
<path style=" stroke:none;fill-rule:nonzero;fill:rgb(13.72549%,19.215686%,58.823529%);fill-opacity:1;" d="M 5.195312 7.929688 L 5.457031 7.09375 L 5.160156 6.625 Z M 5.195312 7.929688 "/>
<path style=" stroke:none;fill-rule:nonzero;fill:rgb(16.078431%,23.529412%,71.764706%);fill-opacity:1;" d="M 5.734375 6.378906 L 6.886719 6.042969 L 6.277344 7.289062 Z M 5.734375 6.378906 "/>
<path style=" stroke:none;fill-rule:nonzero;fill:rgb(14.509804%,20%,61.176471%);fill-opacity:1;" d="M 10.207031 9.089844 L 9.382812 8.257812 L 10.234375 8.152344 Z M 10.207031 9.089844 "/>
<path style=" stroke:none;fill-rule:nonzero;fill:rgb(9.803922%,20.392157%,56.078431%);fill-opacity:1;" d="M 11.113281 8.546875 L 10.777344 7.40625 L 10.234375 8.152344 Z M 11.113281 8.546875 "/>
<path style=" stroke:none;fill-rule:nonzero;fill:rgb(16.470588%,18.823529%,60.392157%);fill-opacity:1;" d="M 9.460938 9.40625 L 8.515625 8.496094 L 9.382812 8.257812 Z M 9.460938 9.40625 "/>
<path style=" stroke:none;fill-rule:nonzero;fill:rgb(18.823529%,16.862745%,58.823529%);fill-opacity:1;" d="M 8.28125 9.339844 L 9.460938 9.40625 L 8.515625 8.496094 Z M 8.28125 9.339844 "/>
<path style=" stroke:none;fill-rule:nonzero;fill:rgb(21.176471%,18.823529%,65.490196%);fill-opacity:1;" d="M 8.28125 9.339844 L 7.636719 8.816406 L 8.515625 8.496094 Z M 8.28125 9.339844 "/>
<path style=" stroke:none;fill-rule:nonzero;fill:rgb(9.019608%,23.921569%,63.529412%);fill-opacity:1;" d="M 5.652344 5.136719 L 5.722656 4.980469 L 5.152344 5.613281 Z M 10.5625 6.492188 L 10.777344 7.40625 L 11.132812 6.925781 Z M 10.5625 6.492188 "/>
<path style=" stroke:none;fill-rule:nonzero;fill:rgb(16.470588%,21.176471%,65.882353%);fill-opacity:1;" d="M 5.734375 6.378906 L 6.277344 7.289062 L 5.457031 7.09375 Z M 5.734375 6.378906 "/>
<path style=" stroke:none;fill-rule:nonzero;fill:rgb(19.215686%,18.039216%,62.352941%);fill-opacity:1;" d="M 5.457031 7.09375 L 6.277344 7.289062 L 5.722656 8.164062 Z M 5.457031 7.09375 "/>
<path style=" stroke:none;fill-rule:nonzero;fill:rgb(9.411765%,30.196078%,80.392157%);fill-opacity:1;" d="M 6.886719 6.042969 L 7.34375 5.117188 L 6.507812 5.53125 Z M 6.886719 6.042969 "/>
<path style=" stroke:none;fill-rule:nonzero;fill:rgb(15.294118%,16.078431%,52.54902%);fill-opacity:1;" d="M 5.195312 7.929688 L 5.722656 8.164062 L 5.449219 8.566406 Z M 5.195312 7.929688 "/>
<path style=" stroke:none;fill-rule:nonzero;fill:rgb(17.254902%,14.509804%,51.764706%);fill-opacity:1;" d="M 5.722656 8.164062 L 5.449219 8.566406 L 6.222656 9.9375 L 6.363281 9.214844 Z M 5.722656 8.164062 "/>
<path style=" stroke:none;fill-rule:nonzero;fill:rgb(19.607843%,14.901961%,54.509804%);fill-opacity:1;" d="M 6.363281 9.214844 L 6.449219 7.941406 L 5.722656 8.164062 Z M 6.363281 9.214844 "/>
<path style=" stroke:none;fill-rule:nonzero;fill:rgb(21.568627%,16.078431%,60%);fill-opacity:1;" d="M 6.363281 9.214844 L 7.636719 8.816406 L 6.449219 7.941406 Z M 6.363281 9.214844 "/>
<path style=" stroke:none;fill-rule:nonzero;fill:rgb(22.352941%,17.647059%,64.705882%);fill-opacity:1;" d="M 7.636719 8.816406 L 7.515625 7.828125 L 6.449219 7.941406 Z M 7.636719 8.816406 "/>
<path style=" stroke:none;fill-rule:nonzero;fill:rgb(20%,21.960784%,73.72549%);fill-opacity:1;" d="M 7.515625 7.828125 L 8.414062 7.492188 L 8.515625 8.496094 Z M 7.515625 7.828125 "/>
<path style=" stroke:none;fill-rule:nonzero;fill:rgb(21.176471%,15.686275%,58.823529%);fill-opacity:1;" d="M 6.972656 9.523438 L 8.28125 9.339844 L 7.636719 8.816406 Z M 6.972656 9.523438 "/>
<path style=" stroke:none;fill-rule:nonzero;fill:rgb(20.784314%,14.901961%,56.078431%);fill-opacity:1;" d="M 6.972656 9.523438 L 6.363281 9.214844 L 7.636719 8.816406 Z M 6.972656 9.523438 "/>
<path style=" stroke:none;fill-rule:nonzero;fill:rgb(14.901961%,28.235294%,82.745098%);fill-opacity:1;" d="M 6.886719 6.042969 L 7.667969 6.125 L 7.34375 5.117188 Z M 6.886719 6.042969 "/>
<path style=" stroke:none;fill-rule:nonzero;fill:rgb(6.27451%,34.117647%,86.27451%);fill-opacity:1;" d="M 8.070312 5.414062 L 7.34375 5.117188 L 7.667969 6.125 Z M 8.070312 5.414062 "/>
<path style=" stroke:none;fill-rule:nonzero;fill:rgb(8.627451%,32.54902%,85.490196%);fill-opacity:1;" d="M 8.070312 5.414062 L 8.84375 5.941406 L 7.667969 6.125 Z M 8.070312 5.414062 "/>
<path style=" stroke:none;fill-rule:nonzero;fill:rgb(16.862745%,27.45098%,83.529412%);fill-opacity:1;" d="M 7.667969 6.125 L 8.820312 6.738281 L 8.414062 7.492188 Z M 7.667969 6.125 "/>
<path style=" stroke:none;fill-rule:nonzero;fill:rgb(14.117647%,29.019608%,84.313725%);fill-opacity:1;" d="M 8.820312 6.738281 L 8.84375 5.941406 L 7.667969 6.125 Z M 8.820312 6.738281 "/>
<path style=" stroke:none;fill-rule:nonzero;fill:rgb(14.509804%,27.843137%,81.176471%);fill-opacity:1;" d="M 8.820312 6.738281 L 8.84375 5.941406 L 9.660156 6.34375 Z M 8.820312 6.738281 "/>
<path style=" stroke:none;fill-rule:nonzero;fill:rgb(20%,23.529412%,77.254902%);fill-opacity:1;" d="M 7.667969 6.125 L 8.414062 7.492188 L 7.105469 6.839844 Z M 7.667969 6.125 "/>
<path style=" stroke:none;fill-rule:nonzero;fill:rgb(21.960784%,20%,71.372549%);fill-opacity:1;" d="M 7.515625 7.828125 L 8.414062 7.492188 L 7.105469 6.839844 Z M 7.515625 7.828125 "/>
<path style=" stroke:none;fill-rule:nonzero;fill:rgb(16.470588%,25.490196%,77.647059%);fill-opacity:1;" d="M 8.414062 7.492188 L 9.566406 7.285156 L 8.820312 6.738281 Z M 8.414062 7.492188 "/>
<path style=" stroke:none;fill-rule:nonzero;fill:rgb(12.54902%,27.058824%,75.686275%);fill-opacity:1;" d="M 9.660156 6.34375 L 9.566406 7.285156 L 8.820312 6.738281 Z M 9.660156 6.34375 "/>
<path style=" stroke:none;fill-rule:nonzero;fill:rgb(10.588235%,26.27451%,71.764706%);fill-opacity:1;" d="M 9.660156 6.34375 L 10.203125 7.082031 L 9.566406 7.285156 Z M 9.660156 6.34375 "/>
<path style=" stroke:none;fill-rule:nonzero;fill:rgb(9.019608%,25.882353%,68.627451%);fill-opacity:1;" d="M 10.5625 6.492188 L 9.660156 6.34375 L 10.203125 7.082031 Z M 10.5625 6.492188 "/>
<path style=" stroke:none;fill-rule:nonzero;fill:rgb(9.019608%,25.098039%,66.27451%);fill-opacity:1;" d="M 5.964844 5.441406 L 6.3125 4.683594 L 5.652344 5.136719 Z M 10.5625 6.492188 L 10.203125 7.082031 L 10.777344 7.40625 Z M 10.5625 6.492188 "/>
<path style=" stroke:none;fill-rule:nonzero;fill:rgb(10.588235%,23.529412%,64.313725%);fill-opacity:1;" d="M 10.234375 8.152344 L 10.777344 7.40625 L 10.203125 7.082031 Z M 10.234375 8.152344 "/>
<path style=" stroke:none;fill-rule:nonzero;fill:rgb(12.156863%,23.921569%,67.843137%);fill-opacity:1;" d="M 10.234375 8.152344 L 10.203125 7.082031 L 9.566406 7.285156 Z M 10.234375 8.152344 "/>
<path style=" stroke:none;fill-rule:nonzero;fill:rgb(14.509804%,26.27451%,76.470588%);fill-opacity:1;" d="M 5.734375 6.378906 L 6.886719 6.042969 L 6.507812 5.53125 Z M 8.414062 7.492188 L 9.382812 8.257812 L 9.566406 7.285156 Z M 8.414062 7.492188 "/>
<path style=" stroke:none;fill-rule:nonzero;fill:rgb(18.039216%,21.568627%,69.803922%);fill-opacity:1;" d="M 8.515625 8.496094 L 9.382812 8.257812 L 8.414062 7.492188 Z M 8.515625 8.496094 "/>
<path style=" stroke:none;fill-rule:nonzero;fill:rgb(17.647059%,25.098039%,78.039216%);fill-opacity:1;" d="M 6.886719 6.042969 L 7.105469 6.839844 L 7.667969 6.125 Z M 6.886719 6.042969 "/>
<path style=" stroke:none;fill-rule:nonzero;fill:rgb(20.784314%,21.568627%,72.156863%);fill-opacity:1;" d="M 6.886719 6.042969 L 6.277344 7.289062 L 7.105469 6.839844 Z M 6.886719 6.042969 "/>
<path style=" stroke:none;fill-rule:nonzero;fill:rgb(22.352941%,19.215686%,69.019608%);fill-opacity:1;" d="M 7.105469 6.839844 L 6.449219 7.941406 L 7.515625 7.828125 Z M 7.105469 6.839844 "/>
<path style=" stroke:none;fill-rule:nonzero;fill:rgb(21.568627%,20.784314%,72.156863%);fill-opacity:1;" d="M 7.515625 7.828125 L 7.636719 8.816406 L 8.515625 8.496094 Z M 6.449219 7.941406 L 7.105469 6.839844 L 6.277344 7.289062 Z M 6.449219 7.941406 "/>
<path style=" stroke:none;fill-rule:nonzero;fill:rgb(20.392157%,15.686275%,57.254902%);fill-opacity:1;" d="M 5.722656 8.164062 L 6.277344 7.289062 L 6.449219 7.941406 Z M 5.722656 8.164062 "/>
<path style=" stroke:none;fill-rule:nonzero;fill:rgb(13.72549%,13.72549%,44.705882%);fill-opacity:1;" d="M 6.269531 11.042969 L 6.859375 11.226562 L 5.960938 10.648438 Z M 6.226562 10.386719 L 6.875 10.886719 L 7.183594 10.238281 L 6.222656 9.9375 Z M 7.996094 10.988281 L 8.078125 10.246094 L 7.183594 10.238281 Z M 8.949219 10.730469 L 8.6875 11.347656 L 9.746094 10.953125 Z M 8.949219 10.730469 "/>
<path style=" stroke:none;fill-rule:nonzero;fill:rgb(16.470588%,18.431373%,58.823529%);fill-opacity:1;" d="M 5.195312 7.929688 L 5.457031 7.09375 L 5.722656 8.164062 Z M 5.195312 7.929688 "/>
<path style=" stroke:none;fill-rule:nonzero;fill:rgb(14.901961%,21.176471%,64.705882%);fill-opacity:1;" d="M 5.457031 7.09375 L 5.734375 6.378906 L 5.160156 6.625 Z M 9.566406 7.285156 L 9.382812 8.257812 L 10.234375 8.152344 Z M 9.566406 7.285156 "/>
<path style=" stroke:none;fill-rule:nonzero;fill:url(#radial0);" d="M 11.695312 8.210938 L 11.664062 7.097656 C 11.664062 7.097656 11.664062 7.09375 11.664062 7.09375 L 11.496094 6.539062 L 11.015625 5.636719 L 11.015625 5.632812 L 10.464844 5.054688 L 9.882812 4.640625 C 9.882812 4.640625 9.882812 4.636719 9.882812 4.636719 L 9.878906 4.636719 L 9.378906 4.441406 L 9.375 4.441406 L 8.773438 4.226562 L 8.765625 4.226562 L 7.773438 4.160156 L 7.769531 4.160156 L 7.140625 4.273438 L 7.136719 4.273438 L 6.625 4.433594 L 6.621094 4.433594 L 5.714844 4.964844 L 5.710938 4.964844 L 5.710938 4.96875 L 5.140625 5.601562 L 5.140625 5.605469 L 4.617188 6.453125 L 4.617188 6.457031 L 4.613281 6.457031 L 4.410156 7.183594 C 4.40625 7.183594 4.40625 7.1875 4.40625 7.1875 L 4.371094 8.285156 L 4.371094 8.289062 L 4.566406 9.039062 C 4.566406 9.042969 4.566406 9.042969 4.566406 9.042969 L 5 9.894531 L 5.308594 10.308594 L 5.730469 10.699219 C 5.730469 10.699219 5.730469 10.699219 5.734375 10.699219 L 6.261719 11.054688 L 6.261719 11.058594 L 6.914062 11.339844 C 6.914062 11.339844 6.914062 11.339844 6.917969 11.339844 L 8.007812 11.46875 L 8.578125 11.484375 C 8.578125 11.484375 8.582031 11.484375 8.582031 11.484375 L 9.425781 11.246094 L 9.429688 11.246094 L 10.179688 10.832031 L 10.183594 10.832031 L 10.667969 10.417969 L 11.042969 9.96875 C 11.042969 9.96875 11.042969 9.96875 11.046875 9.96875 L 11.046875 9.964844 L 11.578125 8.929688 C 11.578125 8.929688 11.578125 8.925781 11.578125 8.925781 C 11.578125 8.925781 11.578125 8.921875 11.578125 8.921875 L 11.695312 8.214844 Z M 5.753906 10.671875 L 5.644531 10.574219 L 5.890625 10.765625 Z M 7.351562 11.089844 L 6.964844 10.910156 L 7.875 10.992188 Z M 7.492188 7.816406 L 6.480469 7.921875 L 7.105469 6.875 Z M 7.136719 6.875 L 8.371094 7.492188 L 7.523438 7.808594 Z M 7.5 7.847656 L 7.617188 8.777344 L 6.492188 7.953125 Z M 7.601562 8.808594 L 6.382812 9.191406 L 6.464844 7.972656 Z M 7.535156 7.863281 L 8.480469 8.492188 L 7.652344 8.792969 Z M 7.550781 7.832031 L 8.398438 7.515625 L 8.496094 8.460938 Z M 8.855469 6.742188 L 9.640625 6.371094 L 9.550781 7.253906 Z M 9.523438 7.273438 L 8.445312 7.472656 L 8.828125 6.761719 Z M 8.414062 7.460938 L 7.707031 6.167969 L 8.800781 6.746094 Z M 8.375 7.457031 L 7.132812 6.832031 L 7.664062 6.15625 Z M 6.457031 7.898438 L 6.296875 7.296875 L 7.0625 6.882812 Z M 6.351562 9.164062 L 5.75 8.171875 L 6.433594 7.964844 Z M 7.582031 8.847656 L 6.96875 9.503906 L 6.40625 9.21875 Z M 8.492188 8.523438 L 8.273438 9.308594 L 7.671875 8.820312 Z M 8.433594 7.53125 L 9.347656 8.25 L 8.53125 8.476562 Z M 8.453125 7.503906 L 9.542969 7.304688 L 9.371094 8.226562 Z M 9.585938 7.261719 L 9.671875 6.386719 L 10.175781 7.074219 Z M 10.1875 7.101562 L 10.214844 8.105469 L 9.59375 7.292969 Z M 8.839844 6.710938 L 8.859375 5.96875 L 9.621094 6.34375 Z M 8.804688 6.710938 L 7.71875 6.132812 L 8.828125 5.960938 Z M 7.113281 6.804688 L 6.910156 6.0625 L 7.636719 6.140625 Z M 7.085938 6.832031 L 6.316406 7.25 L 6.882812 6.089844 Z M 6.429688 7.929688 L 5.761719 8.132812 L 6.273438 7.328125 Z M 6.308594 9.15625 L 5.472656 8.5625 L 5.722656 8.191406 Z M 6.375 9.238281 L 6.9375 9.527344 L 6.246094 9.90625 Z M 7.640625 8.835938 L 8.242188 9.328125 L 7.015625 9.503906 Z M 8.527344 8.527344 L 9.417969 9.386719 L 8.304688 9.324219 Z M 8.550781 8.503906 L 9.367188 8.277344 L 9.441406 9.363281 Z M 9.574219 7.324219 L 10.203125 8.140625 L 9.402344 8.238281 Z M 10.222656 7.109375 L 10.75 7.410156 L 10.25 8.105469 Z M 10.226562 7.074219 L 10.554688 6.535156 L 10.75 7.371094 Z M 10.203125 7.050781 L 9.695312 6.363281 L 10.535156 6.503906 Z M 8.875 5.9375 L 9.46875 5.402344 L 9.636719 6.3125 Z M 7.699219 6.105469 L 8.074219 5.4375 L 8.800781 5.933594 Z M 6.914062 6.03125 L 7.339844 5.160156 L 7.644531 6.105469 Z M 6.277344 7.253906 L 5.761719 6.390625 L 6.855469 6.070312 Z M 5.730469 8.121094 L 5.480469 7.113281 L 6.253906 7.296875 Z M 5.453125 8.53125 L 5.222656 7.960938 L 5.699219 8.167969 Z M 6.347656 9.222656 L 6.214844 9.890625 L 5.5 8.625 Z M 6.964844 9.550781 L 7.160156 10.210938 L 6.265625 9.933594 Z M 8.261719 9.359375 L 8.066406 10.21875 L 7.019531 9.535156 Z M 9.417969 9.421875 L 8.914062 9.878906 L 8.328125 9.359375 Z M 9.402344 8.300781 L 10.175781 9.085938 L 9.472656 9.382812 Z M 9.417969 8.269531 L 10.214844 8.171875 L 10.191406 9.050781 Z M 10.769531 7.441406 L 11.089844 8.515625 L 10.257812 8.148438 Z M 10.589844 6.53125 L 11.109375 6.925781 L 10.785156 7.367188 Z M 9.691406 6.332031 L 10.175781 5.777344 L 10.53125 6.46875 Z M 9.667969 6.304688 L 9.5 5.402344 L 10.152344 5.753906 Z M 8.84375 5.921875 L 8.121094 5.425781 L 9.433594 5.386719 Z M 7.671875 6.085938 L 7.371094 5.144531 L 8.046875 5.421875 Z M 6.882812 6.011719 L 6.535156 5.535156 L 7.308594 5.152344 Z M 6.859375 6.035156 L 5.785156 6.347656 L 6.507812 5.554688 Z M 6.246094 7.261719 L 5.480469 7.082031 L 5.738281 6.417969 Z M 5.699219 8.132812 L 5.214844 7.921875 L 5.453125 7.152344 Z M 5.429688 8.558594 L 5.011719 8.710938 L 5.199219 7.984375 Z M 6.179688 9.890625 L 5.261719 9.324219 L 5.457031 8.609375 Z M 7.113281 10.230469 L 6.246094 10.371094 L 6.242188 9.960938 Z M 7 9.5625 L 8.023438 10.230469 L 7.195312 10.222656 Z M 8.292969 9.371094 L 8.886719 9.894531 L 8.101562 10.21875 Z M 9.453125 9.433594 L 9.765625 10.300781 L 8.945312 9.894531 Z M 9.480469 9.414062 L 10.179688 9.121094 L 9.792969 10.285156 Z M 10.25 8.179688 L 11.078125 8.546875 L 10.222656 9.0625 Z M 10.804688 7.445312 L 11.347656 7.832031 L 11.117188 8.492188 Z M 10.796875 7.402344 L 11.125 6.960938 L 11.339844 7.785156 Z M 10.582031 6.484375 L 10.734375 6.015625 L 11.09375 6.875 Z M 10.558594 6.449219 L 10.214844 5.78125 L 10.710938 5.976562 Z M 9.535156 5.382812 L 10.257812 5.335938 L 10.167969 5.722656 Z M 8.105469 5.394531 L 8.613281 4.765625 L 9.429688 5.355469 Z M 8.074219 5.378906 L 7.8125 4.695312 L 8.578125 4.753906 Z M 8.042969 5.382812 L 7.371094 5.113281 L 7.78125 4.703125 Z M 6.539062 5.496094 L 6.824219 4.667969 L 7.3125 5.113281 Z M 5.765625 6.320312 L 5.976562 5.457031 L 6.476562 5.542969 Z M 5.453125 7.054688 L 5.183594 6.632812 L 5.707031 6.410156 Z M 5.4375 7.09375 L 5.207031 7.832031 L 5.175781 6.683594 Z M 5.171875 7.949219 L 4.984375 8.683594 L 4.6875 7.949219 Z M 4.679688 7.914062 L 4.695312 7.191406 L 5.164062 7.914062 Z M 5.425781 8.59375 L 5.238281 9.28125 L 5.011719 8.746094 Z M 6.175781 9.929688 L 5.609375 10.007812 L 5.285156 9.375 Z M 6.207031 9.957031 L 6.210938 10.359375 L 5.648438 10.035156 Z M 7.15625 10.257812 L 6.867188 10.859375 L 6.269531 10.398438 Z M 7.191406 10.265625 L 7.949219 10.964844 L 6.898438 10.871094 Z M 7.226562 10.253906 L 8.058594 10.261719 L 7.984375 10.953125 Z M 8.898438 9.921875 L 8.933594 10.703125 L 8.117188 10.25 Z M 8.933594 9.925781 L 9.757812 10.335938 L 8.964844 10.707031 Z M 10.210938 9.128906 L 10.621094 9.769531 L 9.824219 10.296875 Z M 10.238281 9.113281 L 11.027344 9.226562 L 10.644531 9.742188 Z M 10.253906 9.082031 L 11.09375 8.578125 L 11.039062 9.195312 Z M 11.367188 7.878906 L 11.515625 8.398438 L 11.140625 8.519531 Z M 11.167969 6.996094 L 11.59375 7.53125 L 11.375 7.789062 Z M 10.769531 6.015625 L 11.324219 6.421875 L 11.132812 6.882812 Z M 10.199219 5.738281 L 10.289062 5.355469 L 10.6875 5.933594 Z M 9.492188 5.351562 L 9.394531 4.769531 L 10.230469 5.304688 Z M 9.457031 5.332031 L 8.660156 4.757812 L 9.359375 4.753906 Z M 7.839844 4.664062 L 8.359375 4.34375 L 8.582031 4.722656 Z M 7.34375 5.09375 L 6.863281 4.65625 L 7.75 4.691406 Z M 6.5 5.511719 L 6 5.429688 L 6.78125 4.695312 Z M 5.726562 6.351562 L 5.214844 5.9375 L 5.9375 5.476562 Z M 5.703125 6.375 L 5.175781 6.601562 L 5.203125 5.96875 Z M 5.175781 7.875 L 4.703125 7.140625 L 5.144531 6.664062 Z M 4.972656 8.738281 L 4.882812 9.1875 L 4.703125 8.074219 Z M 4.992188 8.792969 L 5.214844 9.308594 L 4.898438 9.265625 Z M 5.570312 10.003906 L 5.234375 9.941406 L 5.257812 9.394531 Z M 6.203125 10.390625 L 5.964844 10.621094 L 5.644531 10.070312 Z M 6.230469 10.410156 L 6.800781 10.847656 L 5.992188 10.636719 Z M 8.089844 10.273438 L 8.90625 10.726562 L 8.015625 10.964844 Z M 9.777344 10.363281 L 9.730469 10.929688 L 8.996094 10.726562 Z M 10.59375 9.824219 L 10.140625 10.617188 L 9.820312 10.335938 Z M 11.039062 9.265625 L 11.042969 9.679688 L 10.679688 9.75 Z M 11.128906 8.558594 L 11.5 8.441406 L 11.078125 9.144531 Z M 11.386719 7.828125 L 11.59375 7.582031 L 11.527344 8.320312 Z M 11.152344 6.921875 L 11.339844 6.46875 L 11.582031 7.464844 Z M 10.753906 5.964844 L 10.882812 5.734375 L 11.28125 6.351562 Z M 10.730469 5.9375 L 10.339844 5.375 L 10.859375 5.707031 Z M 9.421875 4.75 L 9.816406 4.707031 L 10.214844 5.257812 Z M 8.621094 4.726562 L 8.402344 4.355469 L 9.292969 4.722656 Z M 7.792969 4.652344 L 7.621094 4.347656 L 8.304688 4.339844 Z M 7.761719 4.65625 L 6.894531 4.625 L 7.585938 4.351562 Z M 6.015625 5.371094 L 6.324219 4.699219 L 6.773438 4.660156 Z M 5.960938 5.410156 L 5.675781 5.140625 L 6.273438 4.734375 Z M 5.9375 5.4375 L 5.234375 5.882812 L 5.652344 5.164062 Z M 5.144531 6.597656 L 4.789062 6.410156 L 5.167969 5.980469 Z M 5.132812 6.628906 L 4.703125 7.089844 L 4.777344 6.4375 Z M 4.648438 7.925781 L 4.46875 8.074219 L 4.664062 7.285156 Z M 4.652344 7.964844 L 4.835938 9.121094 L 4.460938 8.121094 Z M 5.226562 9.34375 L 5.203125 9.890625 L 4.90625 9.300781 Z M 5.589844 10.042969 L 5.890625 10.558594 L 5.269531 9.980469 Z M 6.855469 10.898438 L 6.84375 11.199219 L 6.054688 10.6875 Z M 6.890625 10.910156 L 7.300781 11.101562 L 6.875 11.207031 Z M 7.980469 11.007812 L 7.992188 11.425781 L 7.398438 11.113281 Z M 8.921875 10.753906 L 8.679688 11.324219 L 8.042969 10.992188 Z M 8.957031 10.75 L 9.691406 10.953125 L 8.71875 11.316406 Z M 9.808594 10.371094 L 10.121094 10.640625 L 9.765625 10.914062 Z M 10.652344 9.789062 L 11.011719 9.71875 L 10.226562 10.535156 Z M 11.074219 9.628906 L 11.070312 9.222656 L 11.402344 9.023438 Z M 11.105469 9.167969 L 11.503906 8.492188 L 11.429688 8.964844 Z M 11.617188 7.710938 L 11.664062 8.207031 L 11.554688 8.351562 Z M 11.371094 6.464844 L 11.464844 6.554688 L 11.554688 7.21875 Z M 10.90625 5.707031 L 10.992188 5.664062 L 11.242188 6.230469 Z M 10.304688 5.3125 L 10.453125 5.097656 L 10.824219 5.644531 Z M 10.28125 5.289062 L 9.882812 4.746094 L 10.429688 5.070312 Z M 9.390625 4.71875 L 9.386719 4.480469 L 9.769531 4.679688 Z M 9.355469 4.710938 L 8.488281 4.355469 L 9.355469 4.46875 Z M 7.636719 4.3125 L 7.773438 4.195312 L 8.234375 4.308594 Z M 6.878906 4.597656 L 7.148438 4.308594 L 7.523438 4.339844 Z M 6.808594 4.625 L 6.402344 4.660156 L 7.070312 4.339844 Z M 5.6875 5.09375 L 5.734375 4.992188 L 6.109375 4.804688 Z M 5.199219 5.882812 L 5.171875 5.617188 L 5.578125 5.230469 Z M 5.167969 5.929688 L 4.832031 6.3125 L 5.144531 5.671875 Z M 4.667969 7.125 L 4.453125 7.164062 L 4.734375 6.519531 Z M 4.660156 7.160156 L 4.453125 7.992188 L 4.441406 7.199219 Z M 4.84375 9.226562 L 4.597656 9.027344 L 4.480469 8.269531 Z M 5.1875 9.925781 L 5.027344 9.875 L 4.925781 9.40625 Z M 5.855469 10.570312 L 5.335938 10.289062 L 5.25 10.007812 Z M 5.949219 10.660156 L 6.175781 10.945312 L 5.484375 10.40625 Z M 6.035156 10.714844 L 6.75 11.175781 L 6.28125 11.027344 Z M 7.347656 11.125 L 7.902344 11.414062 L 6.9375 11.226562 Z M 8.011719 11.015625 L 8.636719 11.339844 L 8.027344 11.433594 Z M 9.667969 11 L 9.414062 11.21875 L 8.84375 11.304688 Z M 10.132812 10.671875 L 10.15625 10.808594 L 9.828125 10.910156 Z M 10.980469 9.796875 L 10.644531 10.394531 L 10.21875 10.589844 Z M 11.074219 9.699219 L 11.300781 9.28125 L 11.058594 9.851562 Z M 11.550781 8.417969 L 11.636719 8.300781 L 11.5 8.75 Z M 11.632812 7.53125 L 11.632812 7.523438 L 11.640625 7.410156 L 11.648438 7.699219 Z M 11.609375 7.367188 L 11.523438 6.75 L 11.628906 7.101562 Z M 11.355469 6.40625 L 11.203125 6.054688 L 11.417969 6.464844 Z M 10.890625 5.679688 L 10.578125 5.222656 L 10.972656 5.636719 Z M 9.855469 4.6875 L 9.875 4.671875 L 10.113281 4.84375 Z M 9.824219 4.667969 L 9.660156 4.585938 L 9.839844 4.65625 Z M 8.464844 4.320312 L 8.765625 4.257812 L 9.21875 4.417969 Z M 8.363281 4.304688 L 7.953125 4.203125 L 8.644531 4.25 Z M 7.585938 4.3125 L 7.265625 4.285156 L 7.714844 4.203125 Z M 6.453125 4.597656 L 6.636719 4.460938 L 6.933594 4.371094 Z M 6.304688 4.671875 L 6.144531 4.75 L 6.390625 4.605469 Z M 5.636719 5.128906 L 5.449219 5.308594 L 5.664062 5.066406 Z M 4.753906 6.398438 L 4.667969 6.429688 L 4.996094 5.902344 Z M 4.644531 6.476562 L 4.734375 6.441406 L 4.503906 6.960938 Z M 4.417969 7.824219 L 4.421875 8.113281 L 4.40625 8.167969 Z M 4.433594 8.1875 L 4.515625 8.71875 L 4.402344 8.285156 Z M 4.863281 9.289062 L 4.96875 9.761719 L 4.632812 9.097656 Z M 5.203125 9.964844 L 5.277344 10.214844 L 5.058594 9.917969 Z M 6.847656 11.242188 L 6.878906 11.289062 L 6.558594 11.148438 Z M 6.929688 11.3125 L 6.894531 11.25 L 7.59375 11.386719 Z M 8.644531 11.371094 L 8.570312 11.453125 L 8.1875 11.441406 Z M 8.695312 11.363281 L 9.152344 11.289062 L 8.628906 11.4375 Z M 9.753906 10.964844 L 10.023438 10.882812 L 9.550781 11.144531 Z M 10.183594 10.789062 L 10.164062 10.652344 L 10.554688 10.472656 Z M 11.035156 9.769531 L 11.015625 9.953125 L 10.757812 10.261719 Z M 11.460938 8.988281 L 11.527344 8.957031 L 11.222656 9.550781 Z M 11.546875 8.910156 L 11.472656 8.945312 L 11.621094 8.453125 Z M 11.546875 8.910156 "/>
<path style=" stroke:none;fill-rule:nonzero;fill:url(#radial1);" d="M 11.695312 8.210938 L 11.664062 7.097656 C 11.664062 7.097656 11.664062 7.09375 11.664062 7.09375 L 11.496094 6.539062 L 11.015625 5.636719 L 11.015625 5.632812 L 10.464844 5.054688 L 9.882812 4.640625 C 9.882812 4.640625 9.882812 4.636719 9.882812 4.636719 L 9.878906 4.636719 L 9.378906 4.441406 L 9.375 4.441406 L 8.773438 4.226562 L 8.765625 4.226562 L 7.773438 4.160156 L 7.769531 4.160156 L 7.140625 4.273438 L 7.136719 4.273438 L 6.625 4.433594 L 6.621094 4.433594 L 5.714844 4.964844 L 5.710938 4.964844 L 5.710938 4.96875 L 5.140625 5.601562 L 5.140625 5.605469 L 4.617188 6.453125 L 4.617188 6.457031 L 4.613281 6.457031 L 4.410156 7.183594 C 4.40625 7.183594 4.40625 7.1875 4.40625 7.1875 L 4.371094 8.285156 L 4.371094 8.289062 L 4.566406 9.039062 C 4.566406 9.042969 4.566406 9.042969 4.566406 9.042969 L 5 9.894531 L 5.308594 10.308594 L 5.730469 10.699219 C 5.730469 10.699219 5.730469 10.699219 5.734375 10.699219 L 6.261719 11.054688 L 6.261719 11.058594 L 6.914062 11.339844 C 6.914062 11.339844 6.914062 11.339844 6.917969 11.339844 L 8.007812 11.46875 L 8.578125 11.484375 C 8.578125 11.484375 8.582031 11.484375 8.582031 11.484375 L 9.425781 11.246094 L 9.429688 11.246094 L 10.179688 10.832031 L 10.183594 10.832031 L 10.667969 10.417969 L 11.042969 9.96875 C 11.042969 9.96875 11.042969 9.96875 11.046875 9.96875 L 11.046875 9.964844 L 11.578125 8.929688 C 11.578125 8.929688 11.578125 8.925781 11.578125 8.925781 C 11.578125 8.925781 11.578125 8.921875 11.578125 8.921875 L 11.695312 8.214844 Z M 5.753906 10.671875 L 5.644531 10.574219 L 5.890625 10.765625 Z M 7.351562 11.089844 L 6.964844 10.910156 L 7.875 10.992188 Z M 7.492188 7.816406 L 6.480469 7.921875 L 7.105469 6.875 Z M 7.136719 6.875 L 8.371094 7.492188 L 7.523438 7.808594 Z M 7.5 7.847656 L 7.617188 8.777344 L 6.492188 7.953125 Z M 7.601562 8.808594 L 6.382812 9.191406 L 6.464844 7.972656 Z M 7.535156 7.863281 L 8.480469 8.492188 L 7.652344 8.792969 Z M 7.550781 7.832031 L 8.398438 7.515625 L 8.496094 8.460938 Z M 8.855469 6.742188 L 9.640625 6.371094 L 9.550781 7.253906 Z M 9.523438 7.273438 L 8.445312 7.472656 L 8.828125 6.761719 Z M 8.414062 7.460938 L 7.707031 6.167969 L 8.800781 6.746094 Z M 8.375 7.457031 L 7.132812 6.832031 L 7.664062 6.15625 Z M 6.457031 7.898438 L 6.296875 7.296875 L 7.0625 6.882812 Z M 6.351562 9.164062 L 5.75 8.171875 L 6.433594 7.964844 Z M 7.582031 8.847656 L 6.96875 9.503906 L 6.40625 9.21875 Z M 8.492188 8.523438 L 8.273438 9.308594 L 7.671875 8.820312 Z M 8.433594 7.53125 L 9.347656 8.25 L 8.53125 8.476562 Z M 8.453125 7.503906 L 9.542969 7.304688 L 9.371094 8.226562 Z M 9.585938 7.261719 L 9.671875 6.386719 L 10.175781 7.074219 Z M 10.1875 7.101562 L 10.214844 8.105469 L 9.59375 7.292969 Z M 8.839844 6.710938 L 8.859375 5.96875 L 9.621094 6.34375 Z M 8.804688 6.710938 L 7.71875 6.132812 L 8.828125 5.960938 Z M 7.113281 6.804688 L 6.910156 6.0625 L 7.636719 6.140625 Z M 7.085938 6.832031 L 6.316406 7.25 L 6.882812 6.089844 Z M 6.429688 7.929688 L 5.761719 8.132812 L 6.273438 7.328125 Z M 6.308594 9.15625 L 5.472656 8.5625 L 5.722656 8.191406 Z M 6.375 9.238281 L 6.9375 9.527344 L 6.246094 9.90625 Z M 7.640625 8.835938 L 8.242188 9.328125 L 7.015625 9.503906 Z M 8.527344 8.527344 L 9.417969 9.386719 L 8.304688 9.324219 Z M 8.550781 8.503906 L 9.367188 8.277344 L 9.441406 9.363281 Z M 9.574219 7.324219 L 10.203125 8.140625 L 9.402344 8.238281 Z M 10.222656 7.109375 L 10.75 7.410156 L 10.25 8.105469 Z M 10.226562 7.074219 L 10.554688 6.535156 L 10.75 7.371094 Z M 10.203125 7.050781 L 9.695312 6.363281 L 10.535156 6.503906 Z M 8.875 5.9375 L 9.46875 5.402344 L 9.636719 6.3125 Z M 7.699219 6.105469 L 8.074219 5.4375 L 8.800781 5.933594 Z M 6.914062 6.03125 L 7.339844 5.160156 L 7.644531 6.105469 Z M 6.277344 7.253906 L 5.761719 6.390625 L 6.855469 6.070312 Z M 5.730469 8.121094 L 5.480469 7.113281 L 6.253906 7.296875 Z M 5.453125 8.53125 L 5.222656 7.960938 L 5.699219 8.167969 Z M 6.347656 9.222656 L 6.214844 9.890625 L 5.5 8.625 Z M 6.964844 9.550781 L 7.160156 10.210938 L 6.265625 9.933594 Z M 8.261719 9.359375 L 8.066406 10.21875 L 7.019531 9.535156 Z M 9.417969 9.421875 L 8.914062 9.878906 L 8.328125 9.359375 Z M 9.402344 8.300781 L 10.175781 9.085938 L 9.472656 9.382812 Z M 9.417969 8.269531 L 10.214844 8.171875 L 10.191406 9.050781 Z M 10.769531 7.441406 L 11.089844 8.515625 L 10.257812 8.148438 Z M 10.589844 6.53125 L 11.109375 6.925781 L 10.785156 7.367188 Z M 9.691406 6.332031 L 10.175781 5.777344 L 10.53125 6.46875 Z M 9.667969 6.304688 L 9.5 5.402344 L 10.152344 5.753906 Z M 8.84375 5.921875 L 8.121094 5.425781 L 9.433594 5.386719 Z M 7.671875 6.085938 L 7.371094 5.144531 L 8.046875 5.421875 Z M 6.882812 6.011719 L 6.535156 5.535156 L 7.308594 5.152344 Z M 6.859375 6.035156 L 5.785156 6.347656 L 6.507812 5.554688 Z M 6.246094 7.261719 L 5.480469 7.082031 L 5.738281 6.417969 Z M 5.699219 8.132812 L 5.214844 7.921875 L 5.453125 7.152344 Z M 5.429688 8.558594 L 5.011719 8.710938 L 5.199219 7.984375 Z M 6.179688 9.890625 L 5.261719 9.324219 L 5.457031 8.609375 Z M 7.113281 10.230469 L 6.246094 10.371094 L 6.242188 9.960938 Z M 7 9.5625 L 8.023438 10.230469 L 7.195312 10.222656 Z M 8.292969 9.371094 L 8.886719 9.894531 L 8.101562 10.21875 Z M 9.453125 9.433594 L 9.765625 10.300781 L 8.945312 9.894531 Z M 9.480469 9.414062 L 10.179688 9.121094 L 9.792969 10.285156 Z M 10.25 8.179688 L 11.078125 8.546875 L 10.222656 9.0625 Z M 10.804688 7.445312 L 11.347656 7.832031 L 11.117188 8.492188 Z M 10.796875 7.402344 L 11.125 6.960938 L 11.339844 7.785156 Z M 10.582031 6.484375 L 10.734375 6.015625 L 11.09375 6.875 Z M 10.558594 6.449219 L 10.214844 5.78125 L 10.710938 5.976562 Z M 9.535156 5.382812 L 10.257812 5.335938 L 10.167969 5.722656 Z M 8.105469 5.394531 L 8.613281 4.765625 L 9.429688 5.355469 Z M 8.074219 5.378906 L 7.8125 4.695312 L 8.578125 4.753906 Z M 8.042969 5.382812 L 7.371094 5.113281 L 7.78125 4.703125 Z M 6.539062 5.496094 L 6.824219 4.667969 L 7.3125 5.113281 Z M 5.765625 6.320312 L 5.976562 5.457031 L 6.476562 5.542969 Z M 5.453125 7.054688 L 5.183594 6.632812 L 5.707031 6.410156 Z M 5.4375 7.09375 L 5.207031 7.832031 L 5.175781 6.683594 Z M 5.171875 7.949219 L 4.984375 8.683594 L 4.6875 7.949219 Z M 4.679688 7.914062 L 4.695312 7.191406 L 5.164062 7.914062 Z M 5.425781 8.59375 L 5.238281 9.28125 L 5.011719 8.746094 Z M 6.175781 9.929688 L 5.609375 10.007812 L 5.285156 9.375 Z M 6.207031 9.957031 L 6.210938 10.359375 L 5.648438 10.035156 Z M 7.15625 10.257812 L 6.867188 10.859375 L 6.269531 10.398438 Z M 7.191406 10.265625 L 7.949219 10.964844 L 6.898438 10.871094 Z M 7.226562 10.253906 L 8.058594 10.261719 L 7.984375 10.953125 Z M 8.898438 9.921875 L 8.933594 10.703125 L 8.117188 10.25 Z M 8.933594 9.925781 L 9.757812 10.335938 L 8.964844 10.707031 Z M 10.210938 9.128906 L 10.621094 9.769531 L 9.824219 10.296875 Z M 10.238281 9.113281 L 11.027344 9.226562 L 10.644531 9.742188 Z M 10.253906 9.082031 L 11.09375 8.578125 L 11.039062 9.195312 Z M 11.367188 7.878906 L 11.515625 8.398438 L 11.140625 8.519531 Z M 11.167969 6.996094 L 11.59375 7.53125 L 11.375 7.789062 Z M 10.769531 6.015625 L 11.324219 6.421875 L 11.132812 6.882812 Z M 10.199219 5.738281 L 10.289062 5.355469 L 10.6875 5.933594 Z M 9.492188 5.351562 L 9.394531 4.769531 L 10.230469 5.304688 Z M 9.457031 5.332031 L 8.660156 4.757812 L 9.359375 4.753906 Z M 7.839844 4.664062 L 8.359375 4.34375 L 8.582031 4.722656 Z M 7.34375 5.09375 L 6.863281 4.65625 L 7.75 4.691406 Z M 6.5 5.511719 L 6 5.429688 L 6.78125 4.695312 Z M 5.726562 6.351562 L 5.214844 5.9375 L 5.9375 5.476562 Z M 5.703125 6.375 L 5.175781 6.601562 L 5.203125 5.96875 Z M 5.175781 7.875 L 4.703125 7.140625 L 5.144531 6.664062 Z M 4.972656 8.738281 L 4.882812 9.1875 L 4.703125 8.074219 Z M 4.992188 8.792969 L 5.214844 9.308594 L 4.898438 9.265625 Z M 5.570312 10.003906 L 5.234375 9.941406 L 5.257812 9.394531 Z M 6.203125 10.390625 L 5.964844 10.621094 L 5.644531 10.070312 Z M 6.230469 10.410156 L 6.800781 10.847656 L 5.992188 10.636719 Z M 8.089844 10.273438 L 8.90625 10.726562 L 8.015625 10.964844 Z M 9.777344 10.363281 L 9.730469 10.929688 L 8.996094 10.726562 Z M 10.59375 9.824219 L 10.140625 10.617188 L 9.820312 10.335938 Z M 11.039062 9.265625 L 11.042969 9.679688 L 10.679688 9.75 Z M 11.128906 8.558594 L 11.5 8.441406 L 11.078125 9.144531 Z M 11.386719 7.828125 L 11.59375 7.582031 L 11.527344 8.320312 Z M 11.152344 6.921875 L 11.339844 6.46875 L 11.582031 7.464844 Z M 10.753906 5.964844 L 10.882812 5.734375 L 11.28125 6.351562 Z M 10.730469 5.9375 L 10.339844 5.375 L 10.859375 5.707031 Z M 9.421875 4.75 L 9.816406 4.707031 L 10.214844 5.257812 Z M 8.621094 4.726562 L 8.402344 4.355469 L 9.292969 4.722656 Z M 7.792969 4.652344 L 7.621094 4.347656 L 8.304688 4.339844 Z M 7.761719 4.65625 L 6.894531 4.625 L 7.585938 4.351562 Z M 6.015625 5.371094 L 6.324219 4.699219 L 6.773438 4.660156 Z M 5.960938 5.410156 L 5.675781 5.140625 L 6.273438 4.734375 Z M 5.9375 5.4375 L 5.234375 5.882812 L 5.652344 5.164062 Z M 5.144531 6.597656 L 4.789062 6.410156 L 5.167969 5.980469 Z M 5.132812 6.628906 L 4.703125 7.089844 L 4.777344 6.4375 Z M 4.648438 7.925781 L 4.46875 8.074219 L 4.664062 7.285156 Z M 4.652344 7.964844 L 4.835938 9.121094 L 4.460938 8.121094 Z M 5.226562 9.34375 L 5.203125 9.890625 L 4.90625 9.300781 Z M 5.589844 10.042969 L 5.890625 10.558594 L 5.269531 9.980469 Z M 6.855469 10.898438 L 6.84375 11.199219 L 6.054688 10.6875 Z M 6.890625 10.910156 L 7.300781 11.101562 L 6.875 11.207031 Z M 7.980469 11.007812 L 7.992188 11.425781 L 7.398438 11.113281 Z M 8.921875 10.753906 L 8.679688 11.324219 L 8.042969 10.992188 Z M 8.957031 10.75 L 9.691406 10.953125 L 8.71875 11.316406 Z M 9.808594 10.371094 L 10.121094 10.640625 L 9.765625 10.914062 Z M 10.652344 9.789062 L 11.011719 9.71875 L 10.226562 10.535156 Z M 11.074219 9.628906 L 11.070312 9.222656 L 11.402344 9.023438 Z M 11.105469 9.167969 L 11.503906 8.492188 L 11.429688 8.964844 Z M 11.617188 7.710938 L 11.664062 8.207031 L 11.554688 8.351562 Z M 11.371094 6.464844 L 11.464844 6.554688 L 11.554688 7.21875 Z M 10.90625 5.707031 L 10.992188 5.664062 L 11.242188 6.230469 Z M 10.304688 5.3125 L 10.453125 5.097656 L 10.824219 5.644531 Z M 10.28125 5.289062 L 9.882812 4.746094 L 10.429688 5.070312 Z M 9.390625 4.71875 L 9.386719 4.480469 L 9.769531 4.679688 Z M 9.355469 4.710938 L 8.488281 4.355469 L 9.355469 4.46875 Z M 7.636719 4.3125 L 7.773438 4.195312 L 8.234375 4.308594 Z M 6.878906 4.597656 L 7.148438 4.308594 L 7.523438 4.339844 Z M 6.808594 4.625 L 6.402344 4.660156 L 7.070312 4.339844 Z M 5.6875 5.09375 L 5.734375 4.992188 L 6.109375 4.804688 Z M 5.199219 5.882812 L 5.171875 5.617188 L 5.578125 5.230469 Z M 5.167969 5.929688 L 4.832031 6.3125 L 5.144531 5.671875 Z M 4.667969 7.125 L 4.453125 7.164062 L 4.734375 6.519531 Z M 4.660156 7.160156 L 4.453125 7.992188 L 4.441406 7.199219 Z M 4.84375 9.226562 L 4.597656 9.027344 L 4.480469 8.269531 Z M 5.1875 9.925781 L 5.027344 9.875 L 4.925781 9.40625 Z M 5.855469 10.570312 L 5.335938 10.289062 L 5.25 10.007812 Z M 5.949219 10.660156 L 6.175781 10.945312 L 5.484375 10.40625 Z M 6.035156 10.714844 L 6.75 11.175781 L 6.28125 11.027344 Z M 7.347656 11.125 L 7.902344 11.414062 L 6.9375 11.226562 Z M 8.011719 11.015625 L 8.636719 11.339844 L 8.027344 11.433594 Z M 9.667969 11 L 9.414062 11.21875 L 8.84375 11.304688 Z M 10.132812 10.671875 L 10.15625 10.808594 L 9.828125 10.910156 Z M 10.980469 9.796875 L 10.644531 10.394531 L 10.21875 10.589844 Z M 11.074219 9.699219 L 11.300781 9.28125 L 11.058594 9.851562 Z M 11.550781 8.417969 L 11.636719 8.300781 L 11.5 8.75 Z M 11.632812 7.53125 L 11.632812 7.523438 L 11.640625 7.410156 L 11.648438 7.699219 Z M 11.609375 7.367188 L 11.523438 6.75 L 11.628906 7.101562 Z M 11.355469 6.40625 L 11.203125 6.054688 L 11.417969 6.464844 Z M 10.890625 5.679688 L 10.578125 5.222656 L 10.972656 5.636719 Z M 9.855469 4.6875 L 9.875 4.671875 L 10.113281 4.84375 Z M 9.824219 4.667969 L 9.660156 4.585938 L 9.839844 4.65625 Z M 8.464844 4.320312 L 8.765625 4.257812 L 9.21875 4.417969 Z M 8.363281 4.304688 L 7.953125 4.203125 L 8.644531 4.25 Z M 7.585938 4.3125 L 7.265625 4.285156 L 7.714844 4.203125 Z M 6.453125 4.597656 L 6.636719 4.460938 L 6.933594 4.371094 Z M 6.304688 4.671875 L 6.144531 4.75 L 6.390625 4.605469 Z M 5.636719 5.128906 L 5.449219 5.308594 L 5.664062 5.066406 Z M 4.753906 6.398438 L 4.667969 6.429688 L 4.996094 5.902344 Z M 4.644531 6.476562 L 4.734375 6.441406 L 4.503906 6.960938 Z M 4.417969 7.824219 L 4.421875 8.113281 L 4.40625 8.167969 Z M 4.433594 8.1875 L 4.515625 8.71875 L 4.402344 8.285156 Z M 4.863281 9.289062 L 4.96875 9.761719 L 4.632812 9.097656 Z M 5.203125 9.964844 L 5.277344 10.214844 L 5.058594 9.917969 Z M 6.847656 11.242188 L 6.878906 11.289062 L 6.558594 11.148438 Z M 6.929688 11.3125 L 6.894531 11.25 L 7.59375 11.386719 Z M 8.644531 11.371094 L 8.570312 11.453125 L 8.1875 11.441406 Z M 8.695312 11.363281 L 9.152344 11.289062 L 8.628906 11.4375 Z M 9.753906 10.964844 L 10.023438 10.882812 L 9.550781 11.144531 Z M 10.183594 10.789062 L 10.164062 10.652344 L 10.554688 10.472656 Z M 11.035156 9.769531 L 11.015625 9.953125 L 10.757812 10.261719 Z M 11.460938 8.988281 L 11.527344 8.957031 L 11.222656 9.550781 Z M 11.546875 8.910156 L 11.472656 8.945312 L 11.621094 8.453125 Z M 11.546875 8.910156 "/>
<path style=" stroke:none;fill-rule:nonzero;fill:url(#radial2);" d="M 14.96875 5.199219 C 14.640625 4.414062 13.980469 3.566406 13.460938 3.296875 C 13.882812 4.125 14.128906 4.957031 14.222656 5.578125 C 14.222656 5.574219 14.222656 5.578125 14.222656 5.585938 C 14.222656 5.585938 14.222656 5.589844 14.222656 5.59375 C 14.933594 7.511719 14.546875 9.464844 13.988281 10.660156 C 13.128906 12.507812 11.042969 14.398438 7.777344 14.308594 C 4.25 14.207031 1.140625 11.59375 0.5625 8.167969 C 0.457031 7.628906 0.5625 7.355469 0.613281 6.917969 C 0.550781 7.253906 0.523438 7.351562 0.492188 7.953125 C 0.492188 7.964844 0.492188 7.976562 0.492188 7.992188 C 0.492188 12.136719 3.859375 15.5 8.011719 15.5 C 11.667969 15.5 14.800781 12.867188 15.421875 9.261719 C 15.433594 9.164062 15.445312 9.070312 15.457031 8.972656 C 15.605469 7.683594 15.4375 6.332031 14.96875 5.199219 Z M 14.96875 5.199219 "/>
<path style=" stroke:none;fill-rule:nonzero;fill:url(#radial3);" d="M 14.96875 5.199219 C 14.640625 4.414062 13.980469 3.566406 13.460938 3.296875 C 13.882812 4.125 14.128906 4.957031 14.222656 5.578125 C 14.222656 5.574219 14.222656 5.578125 14.222656 5.585938 C 14.222656 5.585938 14.222656 5.589844 14.222656 5.59375 C 14.933594 7.511719 14.546875 9.464844 13.988281 10.660156 C 13.128906 12.507812 11.042969 14.398438 7.777344 14.308594 C 4.25 14.207031 1.140625 11.59375 0.5625 8.167969 C 0.457031 7.628906 0.5625 7.355469 0.613281 6.917969 C 0.550781 7.253906 0.523438 7.351562 0.492188 7.953125 C 0.492188 7.964844 0.492188 7.976562 0.492188 7.992188 C 0.492188 12.136719 3.859375 15.5 8.011719 15.5 C 11.667969 15.5 14.800781 12.867188 15.421875 9.261719 C 15.433594 9.164062 15.445312 9.070312 15.457031 8.972656 C 15.605469 7.683594 15.4375 6.332031 14.96875 5.199219 Z M 14.96875 5.199219 "/>
<path style=" stroke:none;fill-rule:nonzero;fill:url(#radial4);" d="M 0.5625 8.167969 C 1.140625 11.59375 4.25 14.207031 7.777344 14.308594 C 11.042969 14.398438 13.128906 12.507812 13.988281 10.660156 C 14.546875 9.464844 14.933594 7.511719 14.222656 5.59375 L 14.222656 5.585938 C 14.222656 5.578125 14.222656 5.574219 14.222656 5.578125 C 14.222656 5.578125 14.222656 5.582031 14.222656 5.589844 C 14.488281 7.328125 13.601562 9.015625 12.21875 10.152344 C 12.214844 10.160156 12.214844 10.164062 12.214844 10.164062 C 9.515625 12.359375 6.933594 11.488281 6.410156 11.132812 C 6.375 11.113281 6.339844 11.09375 6.300781 11.078125 C 4.730469 10.324219 4.078125 8.894531 4.21875 7.667969 C 2.890625 7.667969 2.4375 6.546875 2.4375 6.546875 C 2.4375 6.546875 3.628906 5.699219 5.203125 6.4375 C 6.65625 7.121094 8.023438 6.546875 8.023438 6.546875 C 8.023438 6.488281 6.714844 5.964844 6.203125 5.464844 C 5.929688 5.195312 5.800781 5.066406 5.6875 4.96875 C 5.625 4.917969 5.558594 4.867188 5.492188 4.824219 C 5.441406 4.789062 5.386719 4.753906 5.335938 4.71875 C 4.789062 4.363281 3.695312 4.382812 3.660156 4.382812 L 3.65625 4.382812 C 3.359375 4.007812 3.378906 2.761719 3.398438 2.503906 C 3.394531 2.488281 3.175781 2.617188 3.144531 2.636719 C 2.882812 2.824219 2.636719 3.035156 2.410156 3.265625 C 2.152344 3.527344 1.917969 3.808594 1.707031 4.105469 C 1.707031 4.105469 1.707031 4.105469 1.707031 4.109375 C 1.707031 4.105469 1.707031 4.105469 1.707031 4.105469 C 1.226562 4.789062 0.882812 5.5625 0.699219 6.382812 C 0.695312 6.398438 0.429688 7.5625 0.5625 8.167969 Z M 0.5625 8.167969 "/>
<path style=" stroke:none;fill-rule:nonzero;fill:url(#linear0);" d="M 10.664062 5.207031 C 10.9375 5.476562 11.171875 5.78125 11.359375 6.117188 C 11.402344 6.148438 11.441406 6.179688 11.472656 6.207031 C 13.179688 7.777344 12.285156 9.996094 12.21875 10.152344 C 13.601562 9.015625 14.488281 7.328125 14.222656 5.589844 C 13.371094 3.472656 11.929688 2.621094 10.753906 0.761719 C 10.695312 0.667969 10.632812 0.574219 10.578125 0.472656 C 10.546875 0.421875 10.519531 0.371094 10.492188 0.320312 C 10.445312 0.222656 10.40625 0.125 10.382812 0.0234375 C 10.382812 0.0117188 10.375 0.00390625 10.363281 0 C 10.359375 0 10.355469 0 10.351562 0 C 10.347656 0 10.347656 0.00390625 10.347656 0.00390625 C 10.34375 0.00390625 10.34375 0.00390625 10.339844 0.0078125 C 10.050781 0.144531 8.324219 2.871094 10.664062 5.207031 Z M 10.664062 5.207031 "/>
<path style=" stroke:none;fill-rule:nonzero;fill:url(#linear1);" d="M 7.769531 4.175781 L 8.765625 4.238281 L 9.371094 4.453125 L 9.875 4.652344 L 10.453125 5.066406 L 11 5.644531 L 11.191406 6 C 11.21875 6.015625 11.269531 6.050781 11.3125 6.082031 C 11.332031 6.09375 11.34375 6.105469 11.359375 6.117188 C 11.171875 5.78125 10.9375 5.476562 10.664062 5.207031 C 8.324219 2.871094 10.050781 0.144531 10.339844 0.0078125 C 10.339844 0.00390625 10.34375 0.00390625 10.34375 0.00390625 C 8.457031 1.105469 7.816406 3.152344 7.753906 4.171875 L 7.753906 4.179688 Z M 7.769531 4.175781 "/>
<path style=" stroke:none;fill-rule:nonzero;fill:url(#radial5);" d="M 5.335938 4.71875 C 5.386719 4.753906 5.441406 4.789062 5.492188 4.824219 C 5.320312 4.222656 5.3125 3.589844 5.46875 2.988281 C 4.699219 3.339844 4.097656 3.894531 3.660156 4.382812 C 3.695312 4.382812 4.789062 4.363281 5.335938 4.71875 Z M 5.335938 4.71875 "/>
<path style=" stroke:none;fill-rule:nonzero;fill:url(#radial6);" d="M 4.636719 8.671875 C 4.636719 8.671875 4.980469 7.378906 7.121094 7.378906 C 7.351562 7.378906 8.011719 6.734375 8.023438 6.546875 C 8.023438 6.546875 6.65625 7.121094 5.203125 6.4375 C 3.628906 5.699219 2.4375 6.546875 2.4375 6.546875 C 2.4375 6.546875 2.890625 7.667969 4.21875 7.667969 C 4.078125 8.894531 4.730469 10.324219 6.300781 11.078125 C 6.335938 11.09375 6.371094 11.113281 6.40625 11.128906 C 5.488281 10.652344 4.730469 9.757812 4.636719 8.671875 Z M 4.636719 8.671875 "/>
<path style=" stroke:none;fill-rule:nonzero;fill:url(#radial7);" d="M 11.472656 6.207031 C 11.441406 6.179688 11.402344 6.148438 11.359375 6.117188 C 11.34375 6.105469 11.332031 6.09375 11.3125 6.082031 C 10.914062 5.800781 10.195312 5.523438 9.5 5.640625 C 12.207031 6.992188 11.480469 11.640625 7.730469 11.46875 C 7.398438 11.453125 7.070312 11.390625 6.753906 11.277344 C 6.679688 11.25 6.605469 11.21875 6.53125 11.1875 C 6.492188 11.167969 6.449219 11.148438 6.40625 11.128906 C 6.40625 11.128906 6.410156 11.128906 6.410156 11.128906 C 6.933594 11.488281 9.515625 12.359375 12.214844 10.164062 C 12.214844 10.164062 12.214844 10.160156 12.21875 10.152344 C 12.285156 9.996094 13.179688 7.777344 11.472656 6.207031 Z M 11.472656 6.207031 "/>
<path style=" stroke:none;fill-rule:nonzero;fill:url(#linear2);" d="M 14.96875 5.199219 C 14.640625 4.414062 13.980469 3.566406 13.460938 3.296875 C 13.882812 4.125 14.125 4.957031 14.21875 5.578125 C 14.21875 5.578125 14.222656 5.582031 14.222656 5.589844 C 13.371094 3.472656 11.929688 2.621094 10.753906 0.761719 C 10.691406 0.667969 10.632812 0.574219 10.574219 0.472656 C 10.546875 0.421875 10.519531 0.371094 10.492188 0.316406 C 10.445312 0.222656 10.40625 0.125 10.378906 0.0195312 C 10.382812 0.0117188 10.375 0.00390625 10.363281 0 C 10.359375 0 10.355469 0 10.347656 0 C 10.347656 0 10.347656 0.00390625 10.347656 0.00390625 C 10.34375 0.00390625 10.34375 0.00390625 10.339844 0.0078125 C 10.339844 0.00390625 10.34375 0.00390625 10.34375 0.00390625 C 8.453125 1.105469 7.8125 3.15625 7.753906 4.179688 L 7.769531 4.175781 L 8.765625 4.238281 L 9.328125 4.4375 L 9.875 4.652344 L 10.453125 5.066406 L 11 5.644531 C 11 5.644531 11.1875 5.996094 11.191406 6 C 10.753906 5.742188 10.121094 5.535156 9.5 5.640625 C 12.207031 6.992188 11.480469 11.640625 7.730469 11.464844 C 7.398438 11.453125 7.066406 11.390625 6.753906 11.277344 C 6.679688 11.25 6.605469 11.21875 6.53125 11.1875 C 6.488281 11.167969 6.449219 11.148438 6.40625 11.128906 C 6.40625 11.128906 6.410156 11.128906 6.410156 11.128906 C 6.375 11.113281 6.335938 11.09375 6.300781 11.078125 C 6.335938 11.09375 6.371094 11.113281 6.40625 11.128906 C 5.488281 10.652344 4.730469 9.757812 4.632812 8.671875 C 4.632812 8.671875 4.980469 7.378906 7.121094 7.378906 C 7.351562 7.378906 8.011719 6.734375 8.023438 6.546875 C 8.019531 6.484375 6.710938 5.964844 6.203125 5.464844 C 5.929688 5.195312 5.800781 5.066406 5.683594 4.96875 C 5.625 4.917969 5.558594 4.867188 5.492188 4.824219 C 5.320312 4.222656 5.3125 3.589844 5.46875 2.988281 C 4.699219 3.339844 4.097656 3.894531 3.660156 4.382812 L 3.65625 4.382812 C 3.359375 4.007812 3.378906 2.761719 3.394531 2.503906 C 3.394531 2.488281 3.175781 2.617188 3.144531 2.636719 C 2.882812 2.824219 2.636719 3.035156 2.410156 3.265625 C 2.152344 3.527344 1.917969 3.808594 1.707031 4.105469 C 1.226562 4.789062 0.882812 5.5625 0.699219 6.382812 C 0.695312 6.398438 0.691406 6.414062 0.6875 6.429688 C 0.675781 6.496094 0.613281 6.832031 0.601562 6.90625 C 0.601562 6.910156 0.601562 6.898438 0.601562 6.90625 C 0.542969 7.25 0.507812 7.601562 0.492188 7.953125 C 0.492188 7.964844 0.492188 7.976562 0.492188 7.992188 C 0.492188 12.136719 3.855469 15.5 8.007812 15.5 C 11.667969 15.5 14.796875 12.867188 15.421875 9.261719 C 15.433594 9.164062 15.445312 9.070312 15.457031 8.972656 C 15.605469 7.683594 15.4375 6.332031 14.96875 5.199219 Z M 14.222656 5.585938 C 14.222656 5.585938 14.222656 5.589844 14.222656 5.59375 L 14.222656 5.589844 C 14.222656 5.589844 14.222656 5.585938 14.222656 5.585938 Z M 14.222656 5.585938 "/>
<path style=" stroke:none;fill-rule:nonzero;fill:url(#linear3);" d="M 8.023438 6.546875 C 8.023438 6.546875 7.992188 6.5625 7.933594 6.582031 C 7.785156 6.828125 7.265625 7.304688 7.066406 7.300781 C 4.925781 7.292969 4.574219 8.570312 4.574219 8.570312 C 4.613281 9.007812 4.757812 9.429688 4.992188 9.796875 C 4.792969 9.453125 4.671875 9.066406 4.636719 8.671875 C 4.636719 8.671875 4.980469 7.378906 7.121094 7.378906 C 7.351562 7.378906 8.011719 6.734375 8.023438 6.546875 Z M 8.023438 6.546875 "/>
<path style=" stroke:none;fill-rule:nonzero;fill:url(#linear4);" d="M 14.222656 5.59375 L 14.222656 5.589844 C 14.222656 5.589844 14.222656 5.585938 14.222656 5.585938 C 14.222656 5.582031 14.222656 5.578125 14.222656 5.578125 C 14.222656 5.582031 14.222656 5.585938 14.222656 5.589844 C 14.171875 5.464844 14.117188 5.339844 14.0625 5.21875 C 14.042969 5.175781 14.019531 5.136719 14 5.097656 C 13.964844 5.019531 13.925781 4.945312 13.886719 4.871094 C 13.863281 4.824219 13.835938 4.78125 13.8125 4.738281 C 13.777344 4.671875 13.742188 4.605469 13.703125 4.542969 C 13.675781 4.5 13.648438 4.457031 13.621094 4.410156 C 13.582031 4.351562 13.546875 4.292969 13.507812 4.238281 C 13.480469 4.191406 13.449219 4.148438 13.417969 4.105469 C 13.382812 4.050781 13.34375 4 13.304688 3.945312 C 13.273438 3.902344 13.242188 3.859375 13.210938 3.816406 C 13.171875 3.765625 13.136719 3.71875 13.097656 3.667969 C 13.0625 3.625 13.03125 3.582031 12.996094 3.542969 C 12.957031 3.492188 12.917969 3.445312 12.878906 3.398438 C 12.84375 3.355469 12.808594 3.3125 12.777344 3.273438 C 12.757812 3.25 12.738281 3.226562 12.71875 3.207031 C 12.726562 3.214844 12.734375 3.226562 12.742188 3.234375 C 12.09375 2.464844 11.386719 1.757812 10.753906 0.761719 C 10.695312 0.667969 10.632812 0.574219 10.578125 0.472656 C 10.546875 0.421875 10.519531 0.371094 10.492188 0.320312 C 10.449219 0.234375 10.417969 0.144531 10.390625 0.0546875 C 10.390625 0.0507812 10.386719 0.0429688 10.386719 0.0390625 C 10.382812 0.0273438 10.382812 0.0234375 10.382812 0.0234375 C 10.382812 0.0117188 10.375 0.00390625 10.363281 0 C 10.359375 0 10.355469 0 10.351562 0 C 10.347656 0 10.347656 0.00390625 10.347656 0.00390625 C 10.34375 0.00390625 10.34375 0.00390625 10.339844 0.0078125 C 10.324219 0.015625 10.308594 0.0273438 10.296875 0.0390625 C 10.292969 0.0429688 10.289062 0.046875 10.285156 0.0507812 C 10.261719 0.0703125 10.242188 0.0898438 10.226562 0.113281 C 10.222656 0.113281 10.222656 0.113281 10.222656 0.113281 C 9.773438 0.644531 8.621094 2.945312 10.476562 5.007812 C 8.742188 2.96875 9.835938 0.761719 10.308594 0.183594 C 10.335938 0.261719 10.367188 0.335938 10.402344 0.410156 C 10.429688 0.460938 10.457031 0.515625 10.484375 0.566406 C 10.542969 0.664062 10.601562 0.757812 10.664062 0.851562 C 11.839844 2.710938 13.28125 3.5625 14.132812 5.679688 C 14.132812 5.675781 14.128906 5.671875 14.128906 5.667969 C 14.128906 5.671875 14.132812 5.671875 14.132812 5.675781 C 14.132812 5.675781 14.132812 5.679688 14.132812 5.683594 C 14.84375 7.605469 14.457031 9.558594 13.898438 10.75 C 13.601562 11.386719 13.195312 11.964844 12.703125 12.464844 C 13.238281 11.945312 13.671875 11.332031 13.988281 10.660156 C 14.546875 9.464844 14.933594 7.511719 14.222656 5.59375 Z M 14.222656 5.59375 "/>
<path style=" stroke:none;fill-rule:nonzero;fill:url(#linear5);" d="M 10.339844 0.0078125 C 10.339844 0.00390625 10.34375 0.00390625 10.34375 0.00390625 C 8.644531 0.996094 7.953125 2.753906 7.792969 3.839844 C 7.976562 2.835938 8.621094 1.304688 10.0625 0.335938 C 10.183594 0.148438 10.285156 0.03125 10.339844 0.0078125 Z M 10.339844 0.0078125 "/>
<path style=" stroke:none;fill-rule:nonzero;fill:url(#linear6);" d="M 12.214844 10.164062 C 12.214844 10.164062 12.214844 10.160156 12.21875 10.152344 C 12.285156 9.996094 13.179688 7.777344 11.472656 6.207031 C 11.441406 6.179688 11.402344 6.148438 11.359375 6.117188 C 11.34375 6.105469 11.332031 6.09375 11.3125 6.082031 C 10.925781 5.808594 10.242188 5.539062 9.570312 5.632812 C 9.546875 5.632812 9.523438 5.636719 9.5 5.640625 C 12.175781 6.976562 11.496094 11.539062 7.859375 11.472656 C 7.867188 11.472656 7.878906 11.472656 7.886719 11.472656 C 11.574219 11.617188 12.300781 7.09375 9.738281 5.675781 C 10.292969 5.671875 10.832031 5.875 11.164062 6.089844 C 11.179688 6.097656 11.195312 6.109375 11.210938 6.121094 C 11.253906 6.148438 11.292969 6.179688 11.328125 6.207031 C 13.09375 7.710938 12.285156 9.960938 12.226562 10.121094 C 12.226562 10.125 12.222656 10.128906 12.222656 10.132812 "/>
<path style=" stroke:none;fill-rule:nonzero;fill:url(#linear7);" d="M 5.222656 6.511719 C 6.453125 7.046875 7.59375 6.707031 7.941406 6.578125 C 7.621094 6.6875 6.445312 7.019531 5.203125 6.4375 C 3.789062 5.773438 2.683594 6.390625 2.472656 6.523438 L 2.460938 6.53125 L 2.453125 6.535156 L 2.445312 6.542969 L 2.441406 6.542969 L 2.445312 6.550781 L 2.449219 6.5625 L 2.457031 6.578125 C 2.46875 6.601562 2.484375 6.632812 2.503906 6.671875 C 2.671875 6.964844 3.175781 7.660156 4.222656 7.660156 C 4.085938 8.851562 4.695312 10.234375 6.164062 11 C 4.757812 10.1875 4.164062 8.71875 4.332031 7.546875 C 3.246094 7.519531 2.757812 6.867188 2.621094 6.589844 C 3.015625 6.382812 4.019531 5.992188 5.222656 6.511719 Z M 5.222656 6.511719 "/>
<path style=" stroke:none;fill-rule:nonzero;fill:url(#linear8);" d="M 5.492188 4.820312 C 5.476562 4.8125 5.464844 4.804688 5.453125 4.796875 C 5.464844 4.804688 5.480469 4.816406 5.492188 4.824219 C 5.492188 4.820312 5.492188 4.820312 5.492188 4.820312 Z M 5.484375 4.792969 C 5.320312 4.203125 5.316406 3.578125 5.46875 2.988281 C 4.738281 3.320312 4.160156 3.835938 3.730469 4.308594 C 4.140625 3.910156 4.671875 3.480469 5.316406 3.1875 C 5.277344 3.492188 5.242188 4.121094 5.484375 4.792969 Z M 5.484375 4.792969 "/>
<path style=" stroke:none;fill-rule:nonzero;fill:url(#linear9);" d="M 0.742188 8.957031 C 0.742188 8.949219 0.738281 8.941406 0.738281 8.933594 C 0.664062 8.683594 0.605469 8.425781 0.5625 8.167969 C 0.503906 7.90625 0.523438 7.535156 0.5625 7.199219 C 0.53125 7.375 0.515625 7.550781 0.492188 7.953125 C 0.492188 7.964844 0.492188 7.976562 0.492188 7.992188 C 0.492188 11.273438 2.601562 14.0625 5.539062 15.082031 C 2.992188 14.109375 1.105469 11.773438 0.742188 8.957031 Z M 0.742188 8.957031 "/>
<path style=" stroke:none;fill-rule:nonzero;fill:url(#linear10);" d="M 0.683594 8.199219 C 0.550781 7.59375 0.816406 6.429688 0.820312 6.410156 C 1.003906 5.59375 1.347656 4.820312 1.828125 4.136719 C 2.039062 3.835938 2.273438 3.554688 2.53125 3.296875 C 2.757812 3.066406 3.003906 2.855469 3.265625 2.667969 C 3.277344 2.660156 3.289062 2.652344 3.296875 2.648438 C 3.296875 3.21875 3.328125 4.183594 3.59375 4.5 L 3.597656 4.5 C 3.632812 4.496094 4.726562 4.449219 5.285156 4.789062 C 5.339844 4.824219 5.394531 4.855469 5.445312 4.890625 C 5.515625 4.933594 5.582031 4.980469 5.644531 5.03125 C 5.761719 5.125 5.894531 5.25 6.175781 5.511719 C 6.582031 5.890625 7.46875 6.265625 7.851562 6.445312 C 7.480469 6.257812 6.601562 5.855469 6.203125 5.464844 C 5.929688 5.195312 5.800781 5.066406 5.6875 4.96875 C 5.625 4.917969 5.558594 4.867188 5.492188 4.824219 C 5.441406 4.789062 5.386719 4.753906 5.335938 4.71875 C 4.789062 4.363281 3.695312 4.382812 3.660156 4.382812 L 3.65625 4.382812 C 3.382812 4.039062 3.378906 2.972656 3.394531 2.59375 C 3.394531 2.578125 3.394531 2.5625 3.394531 2.550781 L 3.394531 2.539062 C 3.394531 2.535156 3.394531 2.53125 3.394531 2.527344 C 3.394531 2.519531 3.398438 2.511719 3.398438 2.503906 C 3.398438 2.503906 3.394531 2.503906 3.394531 2.503906 C 3.394531 2.503906 3.394531 2.503906 3.390625 2.503906 C 3.390625 2.503906 3.390625 2.503906 3.386719 2.503906 C 3.386719 2.503906 3.382812 2.503906 3.382812 2.503906 C 3.378906 2.507812 3.375 2.507812 3.371094 2.511719 L 3.363281 2.515625 C 3.359375 2.515625 3.351562 2.519531 3.347656 2.519531 L 3.339844 2.527344 L 3.332031 2.53125 L 3.320312 2.535156 L 3.3125 2.539062 C 3.246094 2.574219 3.164062 2.625 3.144531 2.636719 C 2.882812 2.824219 2.636719 3.035156 2.410156 3.265625 C 2.152344 3.527344 1.917969 3.808594 1.707031 4.105469 C 1.707031 4.105469 1.707031 4.105469 1.707031 4.109375 C 1.707031 4.105469 1.707031 4.105469 1.707031 4.105469 C 1.226562 4.789062 0.882812 5.5625 0.699219 6.382812 C 0.695312 6.398438 0.429688 7.5625 0.5625 8.167969 C 1.054688 11.082031 3.378906 13.410156 6.234375 14.101562 C 3.433594 13.375 1.167969 11.070312 0.683594 8.199219 Z M 0.683594 8.199219 "/>
<path style=" stroke:none;fill-rule:nonzero;fill:url(#linear11);" d="M 14.96875 5.199219 C 14.679688 4.507812 14.128906 3.765625 13.648438 3.414062 L 13.636719 3.40625 C 13.621094 3.394531 13.605469 3.386719 13.589844 3.375 C 13.585938 3.371094 13.578125 3.367188 13.574219 3.363281 C 13.558594 3.355469 13.546875 3.347656 13.53125 3.339844 C 13.527344 3.335938 13.519531 3.332031 13.515625 3.328125 C 13.496094 3.316406 13.480469 3.308594 13.460938 3.296875 C 13.480469 3.339844 13.5 3.378906 13.519531 3.417969 C 13.53125 3.441406 13.542969 3.46875 13.554688 3.492188 C 13.917969 4.253906 14.136719 5.003906 14.222656 5.578125 C 14.222656 5.578125 14.222656 5.582031 14.222656 5.589844 C 14.488281 7.328125 13.601562 9.015625 12.21875 10.152344 C 12.214844 10.160156 12.214844 10.164062 12.214844 10.164062 C 10.492188 11.5625 8.820312 11.714844 7.695312 11.550781 C 8.816406 11.757812 10.578125 11.671875 12.394531 10.195312 L 12.398438 10.183594 C 13.785156 9.042969 14.671875 7.359375 14.402344 5.621094 C 14.402344 5.617188 14.402344 5.613281 14.402344 5.609375 C 14.328125 5.101562 14.148438 4.453125 13.855469 3.777344 C 14.183594 4.128906 14.460938 4.523438 14.675781 4.949219 C 15.207031 6.035156 15.449219 7.355469 15.371094 8.632812 C 15.363281 8.726562 15.359375 8.824219 15.351562 8.917969 C 14.945312 12.433594 12.011719 15.257812 8.296875 15.464844 C 7.800781 15.492188 7.304688 15.472656 6.8125 15.40625 C 7.207031 15.46875 7.609375 15.5 8.011719 15.5 C 11.730469 15.5 14.816406 12.804688 15.421875 9.261719 C 15.433594 9.164062 15.445312 9.070312 15.457031 8.972656 C 15.605469 7.683594 15.4375 6.332031 14.96875 5.199219 Z M 14.222656 5.59375 L 14.222656 5.585938 C 14.222656 5.585938 14.222656 5.589844 14.222656 5.59375 Z M 14.222656 5.59375 "/>
</g>
</svg>
