<svg width="16" height="16" viewBox="0 0 16 16" fill="none" xmlns="http://www.w3.org/2000/svg">
<path d="M7.56241 2.56519L6.76839 3.35515L8.06365 3.88167L7.56241 2.56519Z" fill="#133691"/>
<path d="M8.06365 3.88167L7.56241 2.56519L9.02719 2.68349L8.06365 3.88167Z" fill="#1943AE"/>
<path d="M8.06365 3.88168L10.5713 3.80538L9.02719 2.68349L8.06365 3.88168Z" fill="#2053CF"/>
<path d="M10.5713 3.8054L9.02719 2.6835L10.3851 2.67506L10.5713 3.8054Z" fill="#2660EB"/>
<path d="M10.5713 3.8054L11.9992 3.7119L10.3851 2.67506L10.5713 3.8054Z" fill="#306DFF"/>
<path d="M11.9992 3.71188L10.3851 2.67505L11.1875 2.58943L11.9992 3.71188Z" fill="#235ADB"/>
<path d="M11.9992 3.71188L11.1875 2.58943L12.311 3.26428L11.9992 3.71188Z" fill="#2660EB"/>
<path d="M13.0743 4.39925L11.9992 3.71189L12.311 3.26428L13.0743 4.39925Z" fill="#2053CF"/>
<path d="M11.9992 3.71187L11.8194 4.48083L12.8026 4.87488L11.9992 3.71187Z" fill="#1C4ABD"/>
<path d="M11.9992 3.71187L13.0743 4.39923L12.8026 4.87488L11.9992 3.71187Z" fill="#1A46B4"/>
<path d="M10.5713 3.80537L11.9992 3.71187L11.8194 4.48083L10.5713 3.80537Z" fill="#2660EB"/>
<path d="M10.5713 3.80539L11.8194 4.48085L10.8952 5.54249L10.5713 3.80539Z" fill="#235ADB"/>
<path d="M10.5713 3.80539L9.44316 4.82945L10.8952 5.54249L10.5713 3.80539Z" fill="#1F51CA"/>
<path d="M8.06365 3.88169L10.5713 3.80539L9.44316 4.82944L8.06365 3.88169Z" fill="#1F50C9"/>
<path d="M10.8952 5.54249L11.8194 4.48085L12.5023 5.80878L10.8952 5.54249Z" fill="#2053CF"/>
<path d="M11.8194 4.48085L12.5023 5.80878L12.8026 4.8749L11.8194 4.48085Z" fill="#1B48B9"/>
<path d="M12.5023 5.80877L12.8026 4.87489L13.518 6.58115L12.5023 5.80877Z" fill="#173FA5"/>
<path d="M12.8026 4.87489L13.893 5.67562L13.518 6.58115L12.8026 4.87489Z" fill="#12348D"/>
<path d="M12.8026 4.8749L13.893 5.67563L13.0743 4.39925L12.8026 4.8749Z" fill="#143895"/>
<path d="M13.0743 4.39923L13.2847 4.29338L13.893 5.67561L13.0743 4.39923Z" fill="#0F2F82"/>
<path d="M13.893 5.67561L14.1359 5.904L13.2847 4.29338L13.893 5.67561Z" fill="#05154C"/>
<path d="M13.0743 4.39925L13.2847 4.29339L12.311 3.26428L13.0743 4.39925Z" fill="#163C9E"/>
<path d="M14.3788 7.6682L14.1359 5.90401L14.4335 6.89441L14.3749 7.6682H14.3788Z" fill="#051753"/>
<path d="M13.893 5.67563L14.3788 7.66821L14.1359 5.90401L13.893 5.67563Z" fill="#061A57"/>
<path d="M13.518 6.58116L14.3788 7.66821L13.893 5.67563L13.518 6.58116Z" fill="#05154C"/>
<path d="M14.3749 7.66819L14.4335 6.89439L14.4927 8.87881L14.3788 7.66819H14.3749Z" fill="#081F63"/>
<path d="M14.2346 9.23645L14.4927 8.8788L14.3788 7.66818L14.2346 9.23645Z" fill="#12348D"/>
<path d="M14.2841 10.1477L14.0777 10.2474L14.4927 8.87881L14.2841 10.1477Z" fill="#123392"/>
<path d="M14.0777 10.2474L14.4927 8.87881L14.2346 9.23647L14.0777 10.2474Z" fill="#0C2674"/>
<path d="M14.2346 9.23645L14.3788 7.66818L13.9366 8.1913L14.2346 9.23645Z" fill="#081F63"/>
<path d="M14.0777 10.2474L14.2346 9.23647L13.3816 10.6739L14.0777 10.2474Z" fill="#0F2F82"/>
<path d="M13.518 6.58115L14.3788 7.66819L13.9366 8.19131L13.518 6.58115Z" fill="#061A57"/>
<path d="M14.2346 9.23646L13.9366 8.1913L13.4869 9.47867L14.2346 9.23646Z" fill="#081E5F"/>
<path d="M13.3816 10.6739L14.2346 9.23647L13.4869 9.47868L13.3816 10.6739Z" fill="#092167"/>
<path d="M13.3392 12.0025L14.2841 10.1477L14.0777 10.2474L13.3392 12.0025Z" fill="#163AA2"/>
<path d="M13.3392 12.0025L14.0777 10.2474L13.3868 11.5269L13.3392 12.0025Z" fill="#163AA2"/>
<path d="M13.3868 11.5269L14.0777 10.2474L13.3816 10.6739L13.3868 11.5269Z" fill="#0E2B7E"/>
<path d="M12.6708 12.8022L13.3868 11.5269L13.3392 12.0025L12.6708 12.8022Z" fill="#123392"/>
<path d="M11.7599 13.2223L12.6708 12.8022L11.8088 13.5395L11.7599 13.2223Z" fill="#1A45B2"/>
<path d="M12.6708 12.8022L13.3868 11.5269L11.7599 13.2223L12.6708 12.8022Z" fill="#123392"/>
<path d="M11.7599 13.2223L11.8088 13.5395L11.0491 13.7751L11.7599 13.2223Z" fill="#133493"/>
<path d="M10.4691 14.2769L11.0491 13.7751L11.8088 13.5395L10.4691 14.2769Z" fill="#1A45B2"/>
<path d="M10.4691 14.2769L11.0491 13.7751L9.16412 14.48L10.4691 14.2769Z" fill="#1A45B2"/>
<path d="M8.97017 14.7002L10.4691 14.2769L9.16412 14.48L8.97017 14.7002Z" fill="#1A45B2"/>
<path d="M7.95744 14.6719L8.97017 14.7002L9.16412 14.48L7.95744 14.6719Z" fill="#1A45B2"/>
<path d="M6.01787 14.4436L5.90724 14.2668L7.95744 14.6719L6.01787 14.4436Z" fill="#1F51CA"/>
<path d="M6.01787 14.4436L5.90724 14.2668L4.85892 13.9381L6.01787 14.4436Z" fill="#173FAD"/>
<path d="M3.91906 13.3006L3.16648 12.6087L4.85894 13.9381L3.91906 13.3006Z" fill="#173FAD"/>
<path d="M3.16649 12.6087L2.62226 11.8732L2.98372 11.9926L3.16649 12.6087Z" fill="#1B47B5"/>
<path d="M3.16648 12.6087L4.85894 13.9381L4.30526 13.2303L3.16648 12.6087Z" fill="#163AA3"/>
<path d="M3.16648 12.6087L4.30523 13.2304L2.98372 11.9926L3.16648 12.6087Z" fill="#173FAD"/>
<path d="M4.30524 13.2303L5.90724 14.2668L4.85892 13.9381L4.30524 13.2303Z" fill="#133595"/>
<path d="M4.30524 13.2303L5.90724 14.2668L5.93379 13.6573L4.30524 13.2303Z" fill="#163BA4"/>
<path d="M6.77809 14.0532L5.90724 14.2668L5.93379 13.6573L6.77809 14.0532Z" fill="#163AA2"/>
<path d="M2.98372 11.9926L2.62226 11.8732L2.38048 10.7878L2.98372 11.9926Z" fill="#2053CF"/>
<path d="M2.62226 11.8733L1.85062 10.3505L2.38048 10.7878L2.62226 11.8733Z" fill="#306DFF"/>
<path d="M1.59683 8.7112L2.38048 10.7878L1.85062 10.3505" fill="#1F51CA"/>
<path d="M1.8506 10.3505L1.50079 9.01299L1.59681 8.7112L1.8506 10.3505Z" fill="#2257D7"/>
<path d="M1.59681 8.71119L1.50079 9.01299L1.56938 7.05128L1.59681 8.71119Z" fill="#11318D"/>
<path d="M1.93634 5.75834L2.17642 5.66917L1.56939 7.05128L1.93634 5.75834Z" fill="#0C2674"/>
<path d="M1.56939 7.05128L2.02895 6.96554L2.17642 5.66917L1.56939 7.05128Z" fill="#102F88"/>
<path d="M1.59682 8.71119L1.56939 7.05128L2.02895 6.96555L1.59682 8.71119Z" fill="#133595"/>
<path d="M2.02896 6.96555L1.99809 8.38195L1.59683 8.71119L2.02896 6.96555Z" fill="#12328E"/>
<path d="M2.86919 4.23906L2.17642 5.66919L1.93634 5.75836L2.86919 4.23906Z" fill="#0B2572"/>
<path d="M2.86919 4.23906L3.75401 3.39195L3.8809 3.10728L2.86919 4.23906Z" fill="#020B2E"/>
<path d="M3.8809 3.1073L4.93379 2.5826L3.754 3.39195L3.8809 3.1073Z" fill="#092064"/>
<path d="M3.8809 3.10729L5.49965 2.15732L4.93378 2.58259L3.8809 3.10729Z" fill="#030F41"/>
<path d="M4.93378 2.5826L6.41191 1.8761L5.49965 2.15732L4.93378 2.5826Z" fill="#081E5F"/>
<path d="M6.41191 1.8761L5.83403 2.50028L4.93378 2.5826L6.41191 1.8761Z" fill="#081F61"/>
<path d="M5.83403 2.50027L7.211 1.94812L6.41191 1.8761L5.83403 2.50027Z" fill="#0D2A78"/>
<path d="M7.52994 1.67375L6.41191 1.8761L7.211 1.94811L7.52994 1.67375Z" fill="#11338B"/>
<path d="M8.58739 1.9344L7.211 1.94811L7.52994 1.67375" fill="#153A99"/>
<path d="M7.52994 1.67375L9.30303 1.78693L8.58739 1.9344L7.52994 1.67375Z" fill="#0D2A78"/>
<path d="M8.58739 1.93439L9.30303 1.78693L10.3799 2.17104L8.58739 1.93439Z" fill="#2053CE"/>
<path d="M11.1875 2.58943L10.3799 2.17104L11.2774 2.52428L11.1875 2.58943Z" fill="#1E4DC3"/>
<path d="M11.1875 2.58943L11.2774 2.52428L12.311 3.26428L11.1875 2.58943Z" fill="#1E4FC7"/>
<path d="M5.90724 14.2668L7.95744 14.6719L6.77809 14.0532L5.90724 14.2668Z" fill="#1A45B2"/>
<path d="M7.95744 14.6719L6.77809 14.0532L7.93224 13.8376L7.95744 14.6719Z" fill="#163AA2"/>
<path d="M9.16412 14.48L7.95744 14.6719L7.93224 13.8376L9.16412 14.48Z" fill="#1A45B2"/>
<path d="M9.16412 14.48L7.93224 13.8376L9.62992 13.3802L9.16412 14.48Z" fill="#1741AA"/>
<path d="M11.0491 13.7751L9.16412 14.48L9.62992 13.3802" fill="#1A45B2"/>
<path d="M11.0491 13.7751L11.1352 12.6747L9.62992 13.3803L11.0491 13.7751Z" fill="#133493"/>
<path d="M11.0491 13.7751L11.1352 12.6747L11.7599 13.2223L11.0491 13.7751Z" fill="#163AA2"/>
<path d="M11.7599 13.2223L11.1352 12.6747L12.6444 11.669L11.7599 13.2223Z" fill="#133493"/>
<path d="M11.7599 13.2223L12.6444 11.669L13.3868 11.5269L11.7599 13.2223Z" fill="#1A45B2"/>
<path d="M13.3868 11.5269L13.3816 10.6739L12.6444 11.669L13.3868 11.5269Z" fill="#092167"/>
<path d="M10.3799 2.17104L10.3851 2.67505L11.1875 2.58943" fill="#2258D9"/>
<path d="M10.3851 2.67505L10.3799 2.17104L8.58739 1.93439L10.3851 2.67505Z" fill="#2257D7"/>
<path d="M8.58739 1.93439L9.02719 2.68347L10.3851 2.67503L8.58739 1.93439Z" fill="#2257D7"/>
<path d="M8.58739 1.93439L9.02719 2.68347L7.56241 2.56516L8.58739 1.93439Z" fill="#1A46B3"/>
<path d="M7.211 1.9481L7.56241 2.56518L8.58739 1.93439L7.211 1.9481Z" fill="#163C9F"/>
<path d="M5.83403 2.50028L7.211 1.94812L7.56241 2.5652L5.83403 2.50028Z" fill="#103186"/>
<path d="M6.76839 3.35515L5.83403 2.50024L7.56241 2.56516L6.76839 3.35515Z" fill="#163C9E"/>
<path d="M4.93379 2.5826L3.754 3.39196L4.31304 3.93039L4.93379 2.5826Z" fill="#031043"/>
<path d="M5.83403 2.50024L4.31303 3.93038L4.93378 2.58256L5.83403 2.50024Z" fill="#030F41"/>
<path d="M4.31303 3.93039L5.28357 4.09228L5.83403 2.50024L4.31303 3.93039Z" fill="#05164E"/>
<path d="M5.28358 4.09228L5.83403 2.50024L6.7684 3.35514L5.28358 4.09228Z" fill="#092064"/>
<path d="M2.86919 4.23904L2.92834 4.81435L3.75401 3.39194L2.86919 4.23904Z" fill="#030F41"/>
<path d="M2.17641 5.66919L2.86917 4.23906L2.92833 4.81437L2.17641 5.66919Z" fill="#091F64"/>
<path d="M2.92833 4.81435L3.754 3.39194L4.31302 3.93038L2.92833 4.81435Z" fill="#041345"/>
<path d="M2.87832 6.04757L2.92833 4.81436L2.17641 5.66919L2.87832 6.04757Z" fill="#0A226B"/>
<path d="M2.87832 6.04757L2.92833 4.81436L3.90407 5.60869L2.87832 6.04757Z" fill="#091F64"/>
<path d="M3.90407 5.60866L4.31302 3.93039L2.92833 4.81434L3.90407 5.60866Z" fill="#061853"/>
<path d="M3.90408 5.60866L4.31303 3.93039L5.28358 4.09227L3.90408 5.60866Z" fill="#030F42"/>
<path d="M2.02894 6.96554L2.17641 5.66917L2.87832 6.04756L2.02894 6.96554Z" fill="#0B2572"/>
<path d="M2.38048 10.7878L1.99809 8.38196L1.59683 8.7112L2.38048 10.7878Z" fill="#173DA9"/>
<path d="M2.98372 11.9926L2.38048 10.7878L3.02694 10.8787L2.98372 11.9926Z" fill="#1A45B2"/>
<path d="M2.38048 10.7878L3.02694 10.8787L2.57425 9.81892L2.38048 10.7878Z" fill="#1741AA"/>
<path d="M2.38045 10.7878L1.99806 8.38196L2.57422 9.81893L2.38045 10.7878Z" fill="#10308B"/>
<path d="M2.98372 11.9926L3.66314 12.1236L3.02695 10.8787L2.98372 11.9926Z" fill="#123390"/>
<path d="M2.98372 11.9926L4.30523 13.2304L3.66313 12.1236L2.98372 11.9926Z" fill="#133493"/>
<path d="M4.30523 13.2304L4.78339 12.7694L3.66312 12.1236L4.30523 13.2304Z" fill="#1A45B2"/>
<path d="M4.30524 13.2303L5.93379 13.6573L4.78339 12.7693L4.30524 13.2303Z" fill="#163AA2"/>
<path d="M5.93379 13.6573L6.77809 14.0532L7.93224 13.8376L5.93379 13.6573Z" fill="#1A45B2"/>
<path d="M5.93379 13.6573L6.48582 12.4986L7.93224 13.8376L5.93379 13.6573Z" fill="#123392"/>
<path d="M1.99806 8.38195L2.94118 8.3806L2.02893 6.96555L1.99806 8.38195Z" fill="#102F87"/>
<path d="M2.02894 6.96556L2.9412 8.38062L2.87832 6.04758L2.02894 6.96556Z" fill="#081F63"/>
<path d="M1.99806 8.38196L2.57422 9.81894L2.94118 8.38062L1.99806 8.38196Z" fill="#163BA4"/>
<path d="M2.57426 9.81894L2.94121 8.38062L3.39735 9.51715L2.57426 9.81894Z" fill="#11318C"/>
<path d="M3.02695 10.8787L3.39735 9.51714L2.57426 9.81893L3.02695 10.8787Z" fill="#123390"/>
<path d="M3.02693 10.8787L4.77602 11.9655L3.39733 9.51714L3.02693 10.8787Z" fill="#123392"/>
<path d="M3.66312 12.1236L4.77602 11.9656L3.02693 10.8787L3.66312 12.1236Z" fill="#163AA2"/>
<path d="M4.78339 12.7694L4.77602 11.9655L3.66312 12.1236L4.78339 12.7694Z" fill="#1741AA"/>
<path d="M4.78339 12.7694L4.77602 11.9655L6.48583 12.4986L4.78339 12.7694Z" fill="#123392"/>
<path d="M4.78339 12.7694L5.93379 13.6573L6.48583 12.4986L4.78339 12.7694Z" fill="#123392"/>
<path d="M7.93224 13.8376L8.07742 12.5167L6.48583 12.4986L7.93224 13.8376Z" fill="#0E2B80"/>
<path d="M7.93224 13.8376L8.07742 12.5167L9.62992 13.3803L7.93224 13.8376Z" fill="#143698"/>
<path d="M9.62992 13.3803L9.56952 11.8954L8.07742 12.5167L9.62992 13.3803Z" fill="#0D2878"/>
<path d="M9.62992 13.3803L9.56952 11.8954L11.1352 12.6747L9.62992 13.3803Z" fill="#123392"/>
<path d="M9.56952 11.8954L10.5382 11.0158L11.1352 12.6747L9.56952 11.8954Z" fill="#081F63"/>
<path d="M11.1352 12.6747L11.8675 10.4508L10.5382 11.0158L11.1352 12.6747Z" fill="#061A57"/>
<path d="M12.6444 11.669L11.1352 12.6747L11.8675 10.4508L12.6444 11.669Z" fill="#0F2F82"/>
<path d="M12.6444 11.669L13.3816 10.6739L11.8675 10.4508L12.6444 11.669Z" fill="#092167"/>
<path d="M13.3816 10.6739L11.8675 10.4508L13.4869 9.47867L13.3816 10.6739Z" fill="#05164F"/>
<path d="M13.9366 8.1913L12.8829 7.43922L13.4869 9.47867L13.9366 8.1913Z" fill="#051753"/>
<path d="M13.9366 8.19131L13.518 6.58115L12.8829 7.43923L13.9366 8.19131Z" fill="#031043"/>
<path d="M11.8675 10.4508L13.4869 9.47868L11.9174 8.77806L11.8675 10.4508Z" fill="#031043"/>
<path d="M11.8675 10.4508L10.3999 8.96378L10.5383 11.0158L11.8675 10.4508Z" fill="#030F41"/>
<path d="M9.56952 11.8954L8.44275 10.895L10.5383 11.0158L9.56952 11.8954Z" fill="#092167"/>
<path d="M9.56952 11.8954L8.07742 12.5167L8.44275 10.895L9.56952 11.8954Z" fill="#0F2F82"/>
<path d="M6.48583 12.4986L8.07742 12.5167L6.11022 11.2267L6.48583 12.4986Z" fill="#123390"/>
<path d="M6.48583 12.4986L6.11022 11.2267L4.77602 11.9656L6.48583 12.4986Z" fill="#0F2D84"/>
<path d="M4.77602 11.9655L5.02558 10.6739L6.11022 11.2267L4.77602 11.9655Z" fill="#0E2B7E"/>
<path d="M5.0256 10.6739L3.39734 9.51714L4.77604 11.9655L5.0256 10.6739Z" fill="#0F2E86"/>
<path d="M8.07742 12.5167L8.44275 10.895L6.11022 11.2267L8.07742 12.5167Z" fill="#081F63"/>
<path d="M2.94119 8.38062L3.40914 6.8829L2.87832 6.04758L2.94119 8.38062Z" fill="#0A236C"/>
<path d="M2.87832 6.04758L3.40914 6.8829L3.90407 5.60869L2.87832 6.04758Z" fill="#081F63"/>
<path d="M3.90408 5.60868L5.95754 5.00845L5.28358 4.09229L3.90408 5.60868Z" fill="#05164E"/>
<path d="M3.90408 5.60868L5.95754 5.00845L4.8729 7.23039L3.90408 5.60868Z" fill="#030F41"/>
<path d="M11.8675 10.4508L10.3999 8.96377L11.9174 8.77806L11.8675 10.4508Z" fill="#05164F"/>
<path d="M13.4869 9.47867L12.8829 7.43922L11.9174 8.77806L13.4869 9.47867Z" fill="#030F42"/>
<path d="M10.5382 11.0158L8.85992 9.38849L10.3999 8.96378L10.5382 11.0158Z" fill="#030F41"/>
<path d="M8.44275 10.895L10.5383 11.0158L8.85992 9.38849L8.44275 10.895Z" fill="#05164F"/>
<path d="M8.44275 10.895L7.29492 9.95782L8.85992 9.38849L8.44275 10.895Z" fill="#031042"/>
<path d="M12.8829 7.43923L13.518 6.58115L12.5023 5.80878L12.8829 7.43923Z" fill="#0F2E82"/>
<path d="M3.90407 5.60869L4.87288 7.2304L3.40915 6.8829L3.90407 5.60869Z" fill="#061853"/>
<path d="M3.40915 6.88289L4.87288 7.23039L3.883 8.79385L3.40915 6.88289Z" fill="#081F63"/>
<path d="M5.95754 5.00846L6.7684 3.35516L5.28358 4.0923L5.95754 5.00846Z" fill="#081E5F"/>
<path d="M3.88302 8.79385L3.40916 6.88289L2.94121 8.3806" fill="#091F64"/>
<path d="M2.94121 8.38062L3.88302 8.79386L3.39735 9.51715L2.94121 8.38062Z" fill="#11318C"/>
<path d="M3.88301 8.79385L5.0256 10.6739L3.39734 9.51714L3.88301 8.79385Z" fill="#0E2B7E"/>
<path d="M5.02558 10.6739L5.17828 8.39929L3.88301 8.79385L5.02558 10.6739Z" fill="#092167"/>
<path d="M5.02558 10.6739L7.29492 9.95782L5.17828 8.39929L5.02558 10.6739Z" fill="#061A57"/>
<path d="M7.29492 9.95782L7.07378 8.1992L5.17828 8.39929L7.29492 9.95782Z" fill="#05164F"/>
<path d="M8.85992 9.38849L7.29492 9.95782L7.07378 8.1992L8.85992 9.38849Z" fill="#041245"/>
<path d="M7.07378 8.19921L8.67441 7.59897L8.85992 9.3885L7.07378 8.19921Z" fill="#030F42"/>
<path d="M6.11022 11.2267L8.44275 10.895L7.29492 9.95782L6.11022 11.2267Z" fill="#092167"/>
<path d="M6.11022 11.2267L5.02558 10.6739L7.29492 9.95782L6.11022 11.2267Z" fill="#0C2674"/>
<path d="M5.95754 5.00846L7.34757 5.15589L6.76839 3.35516L5.95754 5.00846Z" fill="#0C2771"/>
<path d="M8.06365 3.88169L6.76839 3.35516L7.34757 5.15589L8.06365 3.88169Z" fill="#153A99"/>
<path d="M8.06365 3.88167L9.44316 4.82944L7.34757 5.15588L8.06365 3.88167Z" fill="#163DA0"/>
<path d="M7.34757 5.15588L9.40314 6.24896L8.67442 7.59897L7.34757 5.15588Z" fill="#11338B"/>
<path d="M9.40314 6.24893L9.44316 4.82942L7.34757 5.15586L9.40314 6.24893Z" fill="#163CA0"/>
<path d="M9.40314 6.24893L9.44316 4.82942L10.8952 5.54247L9.40314 6.24893Z" fill="#1A45B2"/>
<path d="M7.34757 5.15588L8.67441 7.59897L6.34716 6.43008L7.34757 5.15588Z" fill="#0C266E"/>
<path d="M7.07378 8.1992L8.67441 7.59895L6.34716 6.43007L7.07378 8.1992Z" fill="#071B5C"/>
<path d="M8.67442 7.59894L10.727 7.22301L9.40314 6.24893L8.67442 7.59894Z" fill="#0F2F82"/>
<path d="M10.8952 5.54248L10.727 7.22302L9.40314 6.24895L10.8952 5.54248Z" fill="#1741AA"/>
<path d="M10.8952 5.54248L11.864 6.86182L10.727 7.22302L10.8952 5.54248Z" fill="#153A99"/>
<path d="M12.5023 5.80877L10.8952 5.54248L11.864 6.86182L12.5023 5.80877Z" fill="#1945B1"/>
<path d="M11.864 6.86183L12.8829 7.43923L12.5023 5.80878L11.864 6.86183Z" fill="#12338C"/>
<path d="M11.9174 8.77807L12.8829 7.43923L11.864 6.86183L11.9174 8.77807Z" fill="#081E60"/>
<path d="M11.9174 8.77807L11.864 6.86183L10.727 7.22303L11.9174 8.77807Z" fill="#081E5F"/>
<path d="M10.727 7.22302L10.3999 8.96377L11.9174 8.77806" fill="#061A57"/>
<path d="M8.67442 7.59896L10.727 7.22302L10.3999 8.96377L8.67442 7.59896Z" fill="#031042"/>
<path d="M8.85992 9.3885L10.3999 8.96378L8.67442 7.59897L8.85992 9.3885Z" fill="#05164F"/>
<path d="M5.95754 5.00845L6.34716 6.43008L7.34757 5.15588L5.95754 5.00845Z" fill="#05174F"/>
<path d="M5.95754 5.00845L4.87289 7.23039L6.34716 6.43007L5.95754 5.00845Z" fill="#061853"/>
<path d="M6.34716 6.43007L5.17828 8.39929L7.07378 8.1992L6.34716 6.43007Z" fill="#030F41"/>
<path d="M5.17828 8.39929L6.34716 6.43007L4.87289 7.23039L5.17828 8.39929Z" fill="#041245"/>
<path d="M3.88301 8.79386L4.8729 7.23039L5.17828 8.39929L3.88301 8.79386Z" fill="#061A58"/>
<path d="M14.5219 8.88066C14.5219 8.88003 14.5219 8.8794 14.5219 8.87877C14.5219 8.87849 14.5219 8.87823 14.5219 8.87795V8.8776L14.4627 6.89358C14.4627 6.8933 14.4626 6.89303 14.4626 6.89274C14.4626 6.89245 14.4626 6.89179 14.4625 6.89128C14.4624 6.89076 14.4623 6.88991 14.4622 6.88922C14.462 6.88854 14.4618 6.88747 14.4616 6.8866C14.4616 6.8864 14.4616 6.88619 14.4615 6.88597L14.164 5.89594V5.8957V5.89559C14.164 5.89537 14.1638 5.89518 14.1638 5.89496C14.1636 5.89441 14.1634 5.89389 14.1632 5.89336C14.1629 5.89283 14.1626 5.89189 14.1622 5.89123C14.1621 5.89094 14.162 5.89063 14.1619 5.89034L13.3106 4.27969C13.3104 4.2794 13.3102 4.27918 13.31 4.2789C13.3097 4.27834 13.3094 4.27779 13.309 4.27724C13.3087 4.2767 13.3084 4.27629 13.3081 4.27578C13.3077 4.27527 13.3077 4.27521 13.3074 4.27493C13.3072 4.27465 13.3068 4.27428 13.3065 4.27395C13.3062 4.27361 13.3062 4.27343 13.3059 4.2732L12.3324 3.24416C12.3322 3.24401 12.3321 3.2439 12.3319 3.24374L12.3312 3.24306C12.3307 3.24252 12.33 3.24206 12.3294 3.2416C12.3288 3.24113 12.3286 3.2408 12.3281 3.24047L12.3279 3.24035L12.3278 3.24022L11.2945 2.50046C11.2943 2.50034 11.2941 2.50028 11.294 2.50018C11.2938 2.50008 11.2933 2.49973 11.293 2.49951C11.2923 2.49907 11.2915 2.49874 11.2908 2.49838C11.2901 2.49801 11.2894 2.49759 11.2886 2.49726C11.2884 2.49726 11.2883 2.49709 11.2881 2.49702L10.3913 2.14402H10.3912L10.3907 2.1438C10.3905 2.1438 10.3904 2.1438 10.3902 2.14369C10.3901 2.14357 10.3899 2.14353 10.3898 2.14348H10.3896H10.3895L9.31285 1.75932C9.31252 1.7592 9.31216 1.75918 9.31183 1.75907C9.31114 1.75885 9.31047 1.75866 9.30976 1.75849C9.30906 1.75831 9.3085 1.75819 9.30786 1.75809C9.30721 1.75799 9.30655 1.75792 9.30588 1.75786C9.30553 1.75786 9.3052 1.75771 9.30485 1.75768L7.53184 1.6445H7.53146H7.53099C7.53027 1.6445 7.52952 1.64459 7.5288 1.64462C7.52782 1.64463 7.52685 1.6447 7.52587 1.64481L7.52514 1.6449H7.52476L6.40669 1.84726C6.40646 1.84726 6.40625 1.8474 6.40603 1.84745C6.40581 1.84749 6.40536 1.84753 6.40502 1.84762C6.40468 1.84771 6.40454 1.84778 6.40429 1.84786C6.40361 1.84803 6.40294 1.84818 6.40229 1.84841L5.49102 2.12933L5.49072 2.12946C5.49004 2.12968 5.48938 2.13 5.48871 2.13026C5.48803 2.13053 5.48714 2.13089 5.48636 2.13129C5.48598 2.13148 5.48559 2.13166 5.48521 2.13186C5.48507 2.13193 5.48494 2.13196 5.48481 2.13204L3.86605 3.08204C3.86593 3.08204 3.86586 3.0822 3.86574 3.08226C3.86527 3.08254 3.86485 3.08289 3.86439 3.0832C3.86394 3.0835 3.86356 3.08372 3.86315 3.08403C3.86274 3.08434 3.86241 3.08466 3.86205 3.08497C3.86168 3.08528 3.86139 3.08547 3.86108 3.08575C3.86077 3.08602 3.86032 3.08658 3.85992 3.08698C3.85953 3.08737 3.85931 3.08749 3.85903 3.08778L3.85863 3.08822L2.84733 4.21953C2.84718 4.2197 2.84708 4.21989 2.84693 4.22007C2.84678 4.22024 2.84645 4.22062 2.84621 4.2209C2.84598 4.22118 2.84577 4.22152 2.84554 4.22183C2.8453 4.22213 2.84494 4.22269 2.84464 4.22313C2.84451 4.22334 2.84434 4.2235 2.8442 4.22372L2.84387 4.22427L1.91136 5.74303C1.91119 5.74331 1.9111 5.74362 1.91094 5.74391C1.91063 5.74444 1.91034 5.74497 1.91006 5.74551C1.90978 5.74605 1.90953 5.74673 1.90928 5.74734C1.90903 5.74796 1.90874 5.74881 1.90851 5.74945C1.9084 5.74977 1.90824 5.75004 1.90814 5.75036L1.54118 7.0433C1.54118 7.04348 1.54118 7.04365 1.54108 7.04384C1.54098 7.04403 1.54089 7.04446 1.54082 7.04478L1.54072 7.04513V7.04553C1.54058 7.0462 1.54055 7.04689 1.54047 7.04758C1.54038 7.04827 1.54023 7.04905 1.5402 7.04973C1.5402 7.04992 1.5402 7.0501 1.54013 7.05029L1.47155 9.01198C1.47155 9.01241 1.47163 9.0128 1.47164 9.01323C1.47166 9.01365 1.47164 9.01444 1.47164 9.01506C1.47164 9.01568 1.47179 9.01628 1.47186 9.01689C1.47193 9.01751 1.47213 9.01849 1.4723 9.01928C1.47239 9.01966 1.47237 9.02004 1.47248 9.02042L1.4727 9.02124L1.82224 10.3579L1.82239 10.3585C1.82249 10.3588 1.82263 10.3591 1.82273 10.3595C1.82305 10.3604 1.82343 10.3614 1.82386 10.3623V10.3623C1.82406 10.3627 1.82416 10.3632 1.8244 10.3637L1.82452 10.364V10.3641L2.59598 11.8865L2.59613 11.8867C2.59626 11.8869 2.59645 11.8872 2.5966 11.8874C2.59708 11.8883 2.59758 11.8891 2.59806 11.8899C2.59822 11.8902 2.59833 11.8904 2.59849 11.8906L3.14236 12.6257L3.14248 12.6258L3.14263 12.626C3.1427 12.6261 3.1428 12.6262 3.14288 12.6263C3.14295 12.6264 3.14332 12.6269 3.14355 12.6272C3.14403 12.6278 3.14462 12.6283 3.14516 12.6288C3.14571 12.6294 3.14591 12.6298 3.14635 12.6302L3.89919 13.3223C3.89978 13.3228 3.90045 13.3232 3.90107 13.3237C3.90168 13.3242 3.90202 13.3246 3.90253 13.325L4.84241 13.9625C4.84261 13.9627 4.84285 13.9627 4.84305 13.9628L4.84327 13.9629C4.844 13.9634 4.84474 13.9639 4.84553 13.9643C4.84592 13.9645 4.84631 13.9647 4.8467 13.9649C4.84685 13.9649 4.84698 13.965 4.84714 13.9651L6.00611 14.4706C6.00649 14.4708 6.00687 14.4709 6.00726 14.471C6.00811 14.4713 6.00896 14.4716 6.00984 14.4719C6.0103 14.472 6.01072 14.4721 6.01118 14.4723C6.01187 14.4724 6.01255 14.4725 6.01324 14.4726C6.01364 14.4726 6.014 14.4728 6.01441 14.4729L7.95405 14.7011C7.95475 14.7012 7.95552 14.7012 7.95616 14.7012C7.95634 14.7012 7.95648 14.7012 7.95666 14.7012L8.96939 14.7295H8.97019H8.97047C8.97238 14.7295 8.97428 14.7293 8.97614 14.7289C8.97655 14.7288 8.97692 14.7287 8.97733 14.7286C8.97761 14.7286 8.97789 14.7286 8.97815 14.7284L10.4771 14.3051C10.4774 14.305 10.4776 14.3048 10.4779 14.3048C10.4782 14.3047 10.4788 14.3045 10.4793 14.3044C10.4797 14.3042 10.48 14.304 10.4804 14.3038L10.4812 14.3034C10.4818 14.3032 10.4824 14.3029 10.483 14.3026L10.4832 14.3026L10.4838 14.3022H10.4839L11.8229 13.5653L11.8233 13.5651L11.8238 13.5647C11.8246 13.5643 11.8253 13.5637 11.826 13.5632C11.8266 13.5627 11.8273 13.5624 11.8278 13.5619H11.8279L12.6899 12.8244C12.6902 12.8242 12.6905 12.8238 12.6908 12.8235C12.6911 12.8232 12.6916 12.8228 12.6919 12.8225C12.6923 12.8221 12.6927 12.8217 12.693 12.8213C12.6931 12.8212 12.6932 12.8211 12.6933 12.821L13.3616 12.0215L13.3617 12.0214C13.3618 12.0213 13.3619 12.0211 13.362 12.021C13.3629 12.0199 13.3637 12.0187 13.3644 12.0175C13.3646 12.0171 13.3649 12.0167 13.3651 12.0163L13.3654 12.0159L14.3102 10.161C14.3105 10.1606 14.3106 10.1601 14.3108 10.1596C14.3111 10.1589 14.3115 10.1582 14.3117 10.1574C14.3119 10.1571 14.3119 10.1567 14.312 10.1564C14.3123 10.1556 14.3125 10.1548 14.3126 10.154C14.3128 10.1535 14.313 10.153 14.3131 10.1524L14.5216 8.88384V8.88358C14.5216 8.88333 14.5216 8.88308 14.5216 8.88283C14.5216 8.88258 14.5217 8.88213 14.5218 8.88176C14.5218 8.8814 14.5219 8.88103 14.5219 8.88066ZM3.93726 13.2776L3.74238 13.0984L4.18082 13.4427L3.93726 13.2776ZM6.78197 14.0227L6.09696 13.7015L7.71836 13.8478L6.78197 14.0227ZM7.0318 8.17418L5.23328 8.36403L6.34236 6.49556L7.0318 8.17418ZM6.40402 6.49144L8.60135 7.59508L7.09006 8.1618L6.40402 6.49144ZM7.04827 8.23139L7.25731 9.89376L5.25643 8.42053L7.04827 8.23139ZM7.2311 9.94726L5.05769 10.633L5.20391 8.45457L7.2311 9.94726ZM7.11083 8.25914L8.79543 9.38077L7.3194 9.91773L7.11083 8.25914ZM7.13767 8.20658L8.64917 7.6398L8.82435 9.32968L7.13767 8.20658ZM9.46003 6.25445L10.8609 5.59117L10.703 7.16897L9.46003 6.25445ZM10.655 7.20645L8.72919 7.55921L9.41289 6.2926L10.655 7.20645ZM8.67433 7.53743L7.41982 5.2275L9.36333 6.26095L8.67433 7.53743ZM8.604 7.53085L6.39233 6.41999L7.34302 5.20905L8.604 7.53085ZM5.18882 8.32402L4.90697 7.24522L6.2676 6.50657L5.18882 8.32402ZM5.00254 10.5796L3.92765 8.81096L5.14616 8.43977L5.00254 10.5796ZM7.19738 10.0193L6.10384 11.1906L5.10267 10.6803L7.19738 10.0193ZM8.81654 9.4355L8.42652 10.844L7.35342 9.9677L8.81654 9.4355ZM8.71078 7.66509L10.3364 8.95094L8.88556 9.35107L8.71078 7.66509ZM8.74341 7.61616L10.6903 7.25955L10.38 8.91073L8.74341 7.61616ZM10.7606 7.18163L10.9167 5.62137L11.8162 6.84628L10.7606 7.18163ZM11.8358 6.90156L11.8856 8.68831L10.7756 7.2383L11.8358 6.90156ZM9.43376 6.20203L9.47115 4.87584L10.8277 5.54199L9.43376 6.20203ZM9.37514 6.2009L7.43898 5.1713L9.41286 4.86381L9.37514 6.2009ZM6.36004 6.36621L5.99714 5.04213L7.29181 5.17945L6.36004 6.36621ZM6.31275 6.4154L4.9394 7.16095L5.94981 5.09109L6.31275 6.4154ZM5.14279 8.37948L3.95004 8.74288L4.86159 7.3031L5.14279 8.37948ZM4.92674 10.5678L3.43753 9.50982L3.88174 8.84829L4.92674 10.5678ZM5.04689 10.7177L6.04769 11.2278L4.81669 11.9096L5.04689 10.7177ZM7.29759 9.99787L8.37238 10.8754L6.18836 11.186L7.29759 9.99787ZM8.87496 9.44399L10.4613 10.982L8.48068 10.8679L8.87496 9.44399ZM8.91708 9.40318L10.3731 9.00168L10.5039 10.9417L8.91708 9.40318ZM10.7436 7.29314L11.8629 8.75531L10.4361 8.92994L10.7436 7.29314ZM11.8947 6.91301L12.84 7.44869L11.9442 8.69076L11.8947 6.91301ZM11.9047 6.85127L12.4901 5.88549L12.8391 7.38083L11.9047 6.85127ZM11.8616 6.8092L10.9614 5.58321L12.4548 5.83066L11.8616 6.8092ZM9.49477 4.82225L10.5521 3.86248L10.8557 5.49053L9.49477 4.82225ZM7.40267 5.11764L8.07349 3.924L9.36578 4.81185L7.40267 5.11764ZM6.00227 4.98374L6.76276 3.43327L7.30592 5.12199L6.00227 4.98374ZM4.87028 7.16894L3.9486 5.6262L5.90206 5.05519L4.87028 7.16894ZM3.89494 8.72023L3.44915 6.92253L4.82614 7.24944L3.89494 8.72023ZM3.40389 9.45481L2.99507 8.43628L3.83909 8.80662L3.40389 9.45481ZM4.99322 10.6869L4.76239 11.8816L3.48715 9.61692L4.99322 10.6869ZM6.09246 11.2701L6.44218 12.4543L4.85019 11.9581L6.09246 11.2701ZM8.40481 10.93L8.05809 12.4691L6.19129 11.2448L8.40481 10.93ZM10.4668 11.041L9.56928 11.856L8.52528 10.9291L10.4668 11.041ZM10.4344 9.04048L11.8163 10.4407L10.5647 10.9727L10.4344 9.04048ZM10.4626 8.98561L11.887 8.81124L11.8403 10.3814L10.4626 8.98561ZM12.8717 7.50477L13.4407 9.42601L11.9622 8.76602L12.8717 7.50477ZM12.5492 5.88143L13.4772 6.58705L12.8969 7.37099L12.5492 5.88143ZM10.9517 5.52215L11.8131 4.53272L12.4496 5.77035L10.9517 5.52215ZM10.9129 5.47752L10.6114 3.86039L11.7733 4.48922L10.9129 5.47752ZM9.44063 4.79215L8.15409 3.90825L10.4928 3.8371L9.44063 4.79215ZM7.35492 5.083L6.81551 3.40594L8.02182 3.89631L7.35492 5.083ZM5.95245 4.95215L5.32782 4.10303L6.70397 3.41984L5.95245 4.95215ZM5.90905 4.99206L3.99587 5.55134L5.28118 4.13849L5.90905 4.99206ZM4.81213 7.18588L3.44863 6.86216L3.90966 5.67526L4.81213 7.18588ZM3.84023 8.7431L2.97701 8.36433L3.4059 6.99158L3.84023 8.7431ZM3.35886 9.50005L2.61637 9.7723L2.94741 8.4748L3.35886 9.50005ZM4.69438 11.8804L3.06095 10.8654L3.40685 9.59386L4.69438 11.8804ZM6.3575 12.4894L4.81244 12.7351L4.80575 12.0055L6.3575 12.4894ZM6.16087 11.2952L7.97746 12.4865L6.50777 12.4697L6.16087 11.2952ZM8.46041 10.9499L9.51512 11.8864L8.11846 12.468L8.46041 10.9499ZM10.5255 11.0669L11.0829 12.616L9.62095 11.8883L10.5255 11.0669ZM10.5752 11.0319L11.8194 10.503L11.134 12.5848L10.5752 11.0319ZM11.9453 8.82265L13.4236 9.48251L11.8984 10.3981L11.9453 8.82265ZM12.9352 7.51257L13.9017 8.20248L13.4892 9.38331L12.9352 7.51257ZM12.9242 7.43271L13.5051 6.64787L13.8879 8.12051L12.9242 7.43271ZM12.5365 5.79801L12.8063 4.95936L13.4487 6.49164L12.5365 5.79801ZM12.496 5.73253L11.8814 4.53726L12.7664 4.89194L12.496 5.73253ZM10.6746 3.82798L11.9617 3.74371L11.7996 4.4368L10.6746 3.82798ZM8.12637 3.85052L9.03254 2.7237L10.4847 3.77872L8.12637 3.85052ZM8.07284 3.82354L7.60629 2.59819L8.96965 2.70831L8.07284 3.82354ZM8.0123 3.82924L6.82045 3.34469L7.55109 2.61779L8.0123 3.82924ZM5.33468 4.03421L5.84715 2.55201L6.71706 3.34792L5.33468 4.03421ZM3.95975 5.50391L4.33505 3.96379L5.22566 4.11235L3.95975 5.50391ZM3.40279 6.81829L2.92154 6.06098L3.85151 5.6631L3.40279 6.81829ZM3.37709 6.88716L2.96574 8.20378L2.91048 6.15284L3.37709 6.88716ZM2.90348 8.40998L2.56804 9.72475L2.04138 8.41122L2.90348 8.40998ZM2.02803 8.35262L2.05615 7.06185L2.88749 8.35132L2.02803 8.35262ZM3.35413 9.5642L3.02076 10.7897L2.6133 9.83585L3.35413 9.5642ZM4.69195 11.9479L3.67976 12.0917L3.10097 10.9592L4.69195 11.9479ZM4.74691 11.9993L4.75351 12.7184L3.75124 12.1407L4.74691 11.9993ZM6.43528 12.5363L5.92283 13.612L4.85494 12.7877L6.43528 12.5363ZM6.49503 12.5472L7.8491 13.8007L5.97835 13.6319L6.49503 12.5472ZM6.56144 12.5288L8.04474 12.5456L7.90945 13.7765L6.56144 12.5288ZM9.54187 11.9387L9.59843 13.3293L8.14454 12.5206L9.54187 11.9387ZM9.60073 11.9438L11.0678 12.6739L9.65738 13.335L9.60073 11.9438ZM11.8759 10.5187L12.6042 11.6606L11.1896 12.6033L11.8759 10.5187ZM11.9266 10.4892L13.3288 10.6958L12.6462 11.6174L11.9266 10.4892ZM11.9528 10.4338L13.4526 9.53344L13.3552 10.6404L11.9528 10.4338ZM13.9337 8.28828L14.1986 9.21729L13.534 9.43257L13.9337 8.28828ZM13.5814 6.70838L14.3409 7.66764L13.9507 8.12921L13.5814 6.70838ZM12.8706 4.96122L13.8571 5.68571L13.5178 6.50496L12.8706 4.96122ZM11.8537 4.46302L12.0127 3.78297L12.7232 4.81151L11.8537 4.46302ZM10.596 3.77441L10.4248 2.73535L11.9086 3.68847L10.596 3.77441ZM10.5309 3.73971L9.11662 2.71224L10.3602 2.7045L10.5309 3.73971ZM7.65404 2.54319L8.57726 1.97503L8.97337 2.64974L7.65404 2.54319ZM6.76754 3.31467L5.91271 2.53256L7.49394 2.59194L6.76754 3.31467ZM5.26396 4.05932L4.37618 3.91124L5.76745 2.6031L5.26396 4.05932ZM3.88658 5.55669L2.97829 4.81725L4.26728 3.99438L3.88658 5.55669ZM3.84797 5.60084L2.90948 6.00233L2.95525 4.87405L3.84797 5.60084ZM2.90902 8.27672L2.06581 6.96879L2.85097 6.12028L2.90902 8.27672ZM2.54377 9.82178L2.38376 10.6218L2.06793 8.63509L2.54377 9.82178ZM2.58442 9.91743L2.97958 10.8424L2.41528 10.7631L2.58442 9.91743ZM3.60968 12.0835L3.01395 11.9686L3.05187 10.9919L3.60968 12.0835ZM4.73503 12.7753L4.31179 13.1833L3.74349 12.2038L4.73503 12.7753ZM4.78552 12.808L5.80174 13.5924L4.36311 13.2153L4.78552 12.808ZM8.10174 12.5638L9.55256 13.3708L7.96605 13.7982L8.10174 12.5638ZM11.1021 12.7226L11.0226 13.7374L9.71396 13.3732L11.1021 12.7226ZM12.5578 11.762L11.7521 13.1766L11.1833 12.6779L12.5578 11.762ZM13.3528 10.762L13.3573 11.5027L12.7127 11.6261L13.3528 10.762ZM13.5144 9.50058L14.1697 9.28827L13.4221 10.5482L13.5144 9.50058ZM13.9691 8.1983L14.3411 7.75821L14.2197 9.07763L13.9691 8.1983ZM13.5517 6.57646L13.8858 5.7697L14.3186 7.54493L13.5517 6.57646ZM12.841 4.86675L13.0757 4.45579L13.783 5.55858L12.841 4.86675ZM12.8003 4.81994L12.1061 3.81498L13.035 4.40892L12.8003 4.81994ZM10.4709 2.69536L11.1737 2.62036L11.8846 3.60345L10.4709 2.69536ZM9.0439 2.65408L8.65676 1.99469L10.2392 2.64665L9.0439 2.65408ZM7.57287 2.52433L7.26114 1.97692L8.48216 1.96474L7.57287 2.52433ZM7.51087 2.53391L5.97296 2.47616L7.19825 1.98483L7.51087 2.53391ZM4.4026 3.80594L4.9533 2.61025L5.75196 2.53724L4.4026 3.80594ZM4.30366 3.88067L3.80024 3.39578L4.86269 2.66689L4.30366 3.88067ZM4.26591 3.9257L3.01422 4.72478L3.76058 3.43899L4.26591 3.9257ZM2.85095 5.99954L2.22276 5.66087L2.89571 4.89582L2.85095 5.99954ZM2.83113 6.05544L2.06817 6.88002L2.20064 5.71554L2.83113 6.05544ZM1.96905 8.36788L1.64647 8.63257L1.99386 7.22918L1.96905 8.36788ZM1.97714 8.43706L2.30639 10.5085L1.63165 8.72053L1.97714 8.43706ZM2.99664 10.904L2.95884 11.8775L2.43165 10.8246L2.99664 10.904ZM3.64448 12.1499L4.18 13.0729L3.07782 12.0406L3.64448 12.1499ZM5.90348 13.6797L5.88019 14.2144L4.47468 13.3051L5.90348 13.6797ZM5.96115 13.7025L6.69052 14.0445L5.93822 14.229L5.96115 13.7025ZM7.90398 13.8727L7.92663 14.6227L6.86653 14.0665L7.90398 13.8727ZM9.57949 13.4242L9.14952 14.4394L8.01244 13.8463L9.57949 13.4242ZM9.6469 13.4154L10.9545 13.7792L9.21767 14.4288L9.6469 13.4154ZM11.1599 12.7353L11.7139 13.2209L11.0835 13.7112L11.1599 12.7353ZM12.6633 11.6953L13.302 11.573L11.9022 13.0317L12.6633 11.6953ZM13.4154 11.4122L13.411 10.6902L14.0002 10.3292L13.4154 11.4122ZM13.4672 10.5871L14.1824 9.3819L14.0508 10.2295L13.4672 10.5871ZM14.3792 7.98447L14.4625 8.87065L14.2735 9.13245L14.3792 7.98447ZM13.9449 5.76453L14.1083 5.91827L14.2718 7.10517L13.9449 5.76453ZM13.1165 4.4107L13.2703 4.33335L13.7148 5.34366L13.1165 4.4107ZM12.0408 3.70353L12.3107 3.31608L12.9712 4.29862L12.0408 3.70353ZM11.9989 3.66117L11.2952 2.68821L12.2691 3.2732L11.9989 3.66117ZM10.414 2.64248L10.4096 2.21949L11.0874 2.57062L10.414 2.64248ZM10.3553 2.63109L8.80618 1.99283L10.3508 2.19676L10.3553 2.63109ZM7.29093 1.91801L7.5376 1.70582L8.35541 1.90741L7.29093 1.91801ZM5.94404 2.42459L6.42361 1.90657L7.08678 1.96634L5.94404 2.42459ZM5.82015 2.47212L5.09393 2.53851L6.2863 1.96861L5.82015 2.47212ZM3.82306 3.30903L3.90338 3.1288L4.56985 2.79664L3.82306 3.30903ZM2.94827 4.72167L2.8998 4.25033L3.62473 3.55628L2.94827 4.72167ZM2.89789 4.80462L2.29674 5.48804L2.85062 4.34468L2.89789 4.80462ZM2.00226 6.94073L1.61851 7.01233L2.12542 5.85818L2.00226 6.94073ZM1.98954 7.00274L1.62241 8.48588L1.59904 7.07558L1.98954 7.00274ZM2.3141 10.6951L1.87784 10.335L1.66889 8.9852L2.3141 10.6951ZM2.92588 11.9427L2.64719 11.8507L2.46076 11.0137L2.92588 11.9427ZM4.11695 13.0943L3.19107 12.5888L3.04246 12.0878L4.11695 13.0943ZM4.28583 13.2532L4.68672 13.7657L3.46143 12.8031L4.28583 13.2532ZM4.43586 13.3498L5.71048 14.1744L4.87639 13.913L4.43586 13.3498ZM6.77431 14.0843L7.76485 14.604L6.0428 14.2637L6.77431 14.0843ZM7.96305 13.8867L9.07194 14.4651L7.98573 14.6378L7.96305 13.8867ZM10.9065 13.8598L10.4563 14.2492L9.44335 14.4069L10.9065 13.8598ZM11.7385 13.2761L11.776 13.519L11.1941 13.6995L11.7385 13.2761ZM13.2484 11.7133L12.6499 12.7795L11.8883 13.1308L13.2484 11.7133ZM13.4153 11.5357L13.8162 10.7934L13.3877 11.8116L13.4153 11.5357ZM14.2624 9.24793L14.4137 9.03839L14.1705 9.84044L14.2624 9.24793ZM14.408 7.66595V7.66546V7.66521L14.408 7.66458C14.408 7.66444 14.408 7.66433 14.408 7.66421L14.4058 7.64866L14.4209 7.44995L14.4362 7.9645L14.408 7.66595ZM14.3678 7.37336L14.2164 6.27362L14.4039 6.89758L14.3678 7.37336ZM13.9174 5.65838L13.641 5.03041L14.0277 5.76214L13.9174 5.65838ZM13.0841 4.36146L12.5323 3.5408L13.2363 4.28492L13.0841 4.36146ZM11.2406 2.58713L11.2775 2.56039L11.7018 2.86413L11.2406 2.58713ZM11.1849 2.55509L10.898 2.40646L11.2169 2.53193L11.1849 2.55509ZM8.76334 1.92804L9.3009 1.81726L10.1098 2.10579L8.76334 1.92804ZM8.58797 1.90433L7.85598 1.72394L9.08334 1.80227L8.58797 1.90433ZM7.20128 1.91779L6.6303 1.86636L7.42918 1.72178L7.20128 1.91779ZM5.18649 2.42929L5.51315 2.18379L6.03978 2.02145L5.18649 2.42929ZM4.91834 2.5575L4.63501 2.69879L5.07063 2.44314L4.91834 2.5575ZM3.72958 3.37478L3.39346 3.69657L3.77779 3.26664L3.72958 3.37478ZM2.15516 5.64581L2.0057 5.70132L2.58631 4.7557L2.15516 5.64581ZM1.96045 5.78062L2.12174 5.72072L1.71393 6.64925L1.96045 5.78062ZM1.55889 8.19008L1.56743 8.70689L1.53749 8.80086L1.55889 8.19008ZM1.58693 8.83895L1.73399 9.7889L1.53128 9.01376L1.58693 8.83895ZM2.35406 10.804L2.54291 11.6518L1.94017 10.4624L2.35406 10.804ZM2.95998 12.0156L3.09109 12.4576L2.70072 11.9301L2.95998 12.0156ZM5.88814 14.2915L5.94282 14.379L5.36989 14.1291L5.88814 14.2915ZM6.03524 14.4162L5.96798 14.3087L7.21434 14.555L6.03524 14.4162ZM9.08827 14.5218L8.95722 14.6706L8.27302 14.6515L9.08827 14.5218ZM9.17912 14.5074L9.99469 14.3804L9.05789 14.645L9.17912 14.5074ZM11.0636 13.8014L11.5419 13.6531L10.6985 14.1173L11.0636 13.8014ZM11.8298 13.4831L11.7922 13.2398L12.4912 12.9174L11.8298 13.4831ZM13.3436 11.6635L13.3109 11.9906L12.8513 12.5405L13.3436 11.6635ZM14.1004 10.2689L14.2185 10.2119L13.6779 11.273L14.1004 10.2689ZM14.2577 10.1278L14.1251 10.1919L14.3916 9.31313L14.2577 10.1278Z" fill="#58C1FF" fill-opacity="0.3"/>
<path d="M12.287 1.84537C11.9361 2.25395 11.7726 3.17351 12.1284 4.10569C12.4842 5.03787 13.0296 4.83541 13.3695 5.786C13.8182 7.0403 13.6094 8.72524 13.6094 8.72524C13.6094 8.72524 14.1488 10.2874 14.5247 8.62805C15.3567 5.5113 12.287 2.61288 12.287 1.84537Z" fill="url(#paint0_linear)"/>
<path d="M12.8789 12.2795C12.7383 12.3787 12.5908 12.4677 12.4375 12.5459C12.6405 12.2484 12.8278 11.9405 12.9987 11.6233C13.1373 11.4699 13.2643 11.3208 13.3678 11.1595C13.4181 11.0803 13.4749 10.9825 13.535 10.8691C13.9002 10.2112 14.3029 9.14647 14.3143 8.05281V8.05017C14.3145 8.02326 14.3147 7.99632 14.3145 7.96936C14.3164 7.69484 14.2883 7.42092 14.2308 7.15249C14.2337 7.17345 14.2363 7.19441 14.2389 7.21536C14.2357 7.19924 14.233 7.18295 14.2295 7.1668C14.2349 7.19661 14.2392 7.22541 14.2438 7.25447C14.3184 7.88773 14.2653 8.50543 13.9994 8.96082C13.9952 8.96747 13.9909 8.9737 13.9866 8.9802C14.1245 8.28808 14.1706 7.52388 14.0172 6.7588C14.0172 6.7588 13.9559 6.38686 13.4989 5.25773C13.2358 4.60782 12.7686 4.075 12.3559 3.68682C11.9941 3.23923 11.6655 2.93886 11.4844 2.74815C11.1059 2.34963 10.9474 2.051 10.8823 1.85615C10.8258 1.82784 10.1037 1.12632 10.0463 1.09959C9.73111 1.58832 8.73982 3.11695 9.21131 4.54521C9.42501 5.19247 9.96546 5.86423 10.5311 6.2411C10.5559 6.26946 10.8676 6.60804 11.0159 7.37168C11.169 8.16072 11.0885 8.77635 10.7735 9.6867C10.403 10.4854 9.45372 11.2749 8.56491 11.3557C6.66481 11.5283 5.96919 10.4017 5.96919 10.4017C6.64815 10.6731 7.39886 10.6163 7.85539 10.3349C8.3155 10.0503 8.59382 9.83924 8.81971 9.92245C9.04243 10.0053 9.21974 9.76484 9.06063 9.51558C8.93777 9.32634 8.76195 9.17741 8.55508 9.08733C8.34821 8.99725 8.11942 8.97001 7.89718 9.00898C7.43659 9.08384 7.01469 9.4487 6.41118 9.09535C6.37212 9.07268 6.33432 9.04792 6.29793 9.02117C6.25815 8.99502 6.42726 9.06099 6.3878 9.03125C6.27035 8.96746 6.0625 8.82843 6.00858 8.77897C5.99959 8.77074 6.0997 8.8109 6.09072 8.80265C5.52643 8.33798 5.59691 8.02408 5.61464 7.8272C5.62884 7.66969 5.73134 7.46786 5.90406 7.386C5.98748 7.43152 6.03945 7.46628 6.03945 7.46628C6.03945 7.46628 6.00387 7.39359 5.98463 7.35527C5.99137 7.35234 5.99782 7.35311 6.00453 7.35026C6.07287 7.38324 6.22399 7.46895 6.30356 7.52121C6.40718 7.5943 6.44021 7.65948 6.44021 7.65948C6.44021 7.65948 6.4675 7.64446 6.44732 7.58072C6.43999 7.55458 6.40853 7.47151 6.30589 7.38768L6.31231 7.3884C6.37374 7.4234 6.43193 7.46382 6.48619 7.50916C6.51513 7.40393 6.56718 7.29406 6.55574 7.09752C6.54875 6.95933 6.55197 6.92355 6.52762 6.87018C6.50581 6.82435 6.53984 6.80647 6.5777 6.85406C6.57122 6.81677 6.56036 6.78037 6.54535 6.74563L6.54567 6.74205C6.59293 6.57741 7.54571 6.14918 7.61506 6.09912C7.72901 6.0185 7.82456 5.91462 7.89541 5.79434C7.94841 5.70989 7.98826 5.59142 7.99798 5.41172C8.00318 5.28213 7.9429 5.19582 6.97949 5.09495C6.71601 5.069 6.56142 4.87808 6.47358 4.70191C6.45755 4.66396 6.44121 4.62957 6.42486 4.59521C6.40925 4.55504 6.39672 4.51374 6.38737 4.47167C6.54488 4.01929 6.80953 3.63678 7.19867 3.34778C7.21987 3.32847 7.11394 3.35273 7.13513 3.33342C7.15985 3.31088 7.32131 3.24584 7.35181 3.23119C7.38906 3.2136 7.19235 3.13008 7.01871 3.15042C6.84187 3.17035 6.80431 3.19145 6.70993 3.23146C6.7491 3.19247 6.87365 3.14136 6.84445 3.1417C6.65379 3.17093 6.41688 3.28175 6.21436 3.40727C6.21393 3.38541 6.21806 3.3637 6.22648 3.34353C6.1321 3.38356 5.90031 3.54557 5.83283 3.68263C5.83574 3.65636 5.83704 3.62994 5.83673 3.60351C5.76484 3.66348 5.69998 3.73141 5.64341 3.806L5.63988 3.8092C5.09247 3.58868 4.61075 3.5744 4.2031 3.67328C4.11392 3.58372 4.07036 3.64919 3.86744 3.20337C3.85365 3.17653 3.87802 3.22988 3.86744 3.20337C3.83406 3.11692 3.8878 3.31872 3.86744 3.20337C3.52626 3.47258 3.07735 3.77767 2.86186 3.99303C2.8592 4.00161 3.11325 3.92123 2.86186 3.99303C2.77383 4.01817 2.7798 4.07041 2.76643 4.54252C2.7632 4.57831 2.76606 4.6184 2.76316 4.65063C2.59102 4.86995 2.47378 5.05568 2.42944 5.15192C2.20681 5.53554 1.96162 6.13356 1.72395 7.07954C1.82878 6.8231 1.95517 6.57601 2.10176 6.34093C1.90412 6.84304 1.71306 7.63154 1.67486 8.84579C1.72267 8.59522 1.78398 8.34742 1.85851 8.10347C1.81185 9.11086 1.98557 10.1163 2.36756 11.0496C2.50425 11.384 2.73037 11.8915 3.11529 12.4475C4.32465 13.72 6.03044 14.5121 7.91932 14.5121C9.89134 14.5123 11.6621 13.6495 12.8789 12.2795Z" fill="url(#paint1_linear)"/>
<path d="M12.8789 12.2795C12.7383 12.3787 12.5908 12.4677 12.4375 12.5459C12.6405 12.2484 12.8278 11.9405 12.9987 11.6233C13.1373 11.4699 13.2643 11.3208 13.3678 11.1595C13.4181 11.0803 13.4749 10.9825 13.535 10.8691C13.9002 10.2112 14.3029 9.14647 14.3143 8.05281V8.05017C14.3145 8.02326 14.3147 7.99632 14.3145 7.96936C14.3164 7.69484 14.2883 7.42092 14.2308 7.15249C14.2337 7.17345 14.2363 7.19441 14.2389 7.21536C14.2357 7.19924 14.233 7.18295 14.2295 7.1668C14.2349 7.19661 14.2392 7.22541 14.2438 7.25447C14.3184 7.88773 14.2653 8.50543 13.9994 8.96082C13.9952 8.96747 13.9909 8.9737 13.9866 8.9802C14.1245 8.28808 14.1706 7.52388 14.0172 6.7588C14.0172 6.7588 13.9559 6.38686 13.4989 5.25773C13.2358 4.60782 12.7686 4.075 12.3559 3.68682C11.9941 3.23923 11.6655 2.93886 11.4844 2.74815C11.1059 2.34963 10.9474 2.051 10.8823 1.85615C10.8258 1.82784 10.1037 1.12632 10.0463 1.09959C9.73111 1.58832 8.73982 3.11695 9.21131 4.54521C9.42501 5.19247 9.96546 5.86423 10.5311 6.2411C10.5559 6.26946 10.8676 6.60804 11.0159 7.37168C11.169 8.16072 11.0885 8.77635 10.7735 9.6867C10.403 10.4854 9.45372 11.2749 8.56491 11.3557C6.66481 11.5283 5.96919 10.4017 5.96919 10.4017C6.64815 10.6731 7.39886 10.6163 7.85539 10.3349C8.3155 10.0503 8.59382 9.83924 8.81971 9.92245C9.04243 10.0053 9.21974 9.76484 9.06063 9.51558C8.93777 9.32634 8.76195 9.17741 8.55508 9.08733C8.34821 8.99725 8.11942 8.97001 7.89718 9.00898C7.43659 9.08384 7.01469 9.4487 6.41118 9.09535C6.37212 9.07268 6.33432 9.04792 6.29793 9.02117C6.25815 8.99502 6.42726 9.06099 6.3878 9.03125C6.27035 8.96746 6.0625 8.82843 6.00858 8.77897C5.99959 8.77074 6.0997 8.8109 6.09072 8.80265C5.52643 8.33798 5.59691 8.02408 5.61464 7.8272C5.62884 7.66969 5.73134 7.46786 5.90406 7.386C5.98748 7.43152 6.03945 7.46628 6.03945 7.46628C6.03945 7.46628 6.00387 7.39359 5.98463 7.35527C5.99137 7.35234 5.99782 7.35311 6.00453 7.35026C6.07287 7.38324 6.22399 7.46895 6.30356 7.52121C6.40718 7.5943 6.44021 7.65948 6.44021 7.65948C6.44021 7.65948 6.4675 7.64446 6.44732 7.58072C6.43999 7.55458 6.40853 7.47151 6.30589 7.38768L6.31231 7.3884C6.37374 7.4234 6.43193 7.46382 6.48619 7.50916C6.51513 7.40393 6.56718 7.29406 6.55574 7.09752C6.54875 6.95933 6.55197 6.92355 6.52762 6.87018C6.50581 6.82435 6.53984 6.80647 6.5777 6.85406C6.57122 6.81677 6.56036 6.78037 6.54535 6.74563L6.54567 6.74205C6.59293 6.57741 7.54571 6.14918 7.61506 6.09912C7.72901 6.0185 7.82456 5.91462 7.89541 5.79434C7.94841 5.70989 7.98826 5.59142 7.99798 5.41172C8.00318 5.28213 7.9429 5.19582 6.97949 5.09495C6.71601 5.069 6.56142 4.87808 6.47358 4.70191C6.45755 4.66396 6.44121 4.62957 6.42486 4.59521C6.40925 4.55504 6.39672 4.51374 6.38737 4.47167C6.54488 4.01929 6.80953 3.63678 7.19867 3.34778C7.21987 3.32847 7.11394 3.35273 7.13513 3.33342C7.15985 3.31088 7.32131 3.24584 7.35181 3.23119C7.38906 3.2136 7.19235 3.13008 7.01871 3.15042C6.84187 3.17035 6.80431 3.19145 6.70993 3.23146C6.7491 3.19247 6.87365 3.14136 6.84445 3.1417C6.65379 3.17093 6.41688 3.28175 6.21436 3.40727C6.21393 3.38541 6.21806 3.3637 6.22648 3.34353C6.1321 3.38356 5.90031 3.54557 5.83283 3.68263C5.83574 3.65636 5.83704 3.62994 5.83673 3.60351C5.76484 3.66348 5.69998 3.73141 5.64341 3.806L5.63988 3.8092C5.09247 3.58868 4.61075 3.5744 4.2031 3.67328C4.11392 3.58372 4.07036 3.64919 3.86744 3.20337C3.85365 3.17653 3.87802 3.22988 3.86744 3.20337C3.83406 3.11692 3.8878 3.31872 3.86744 3.20337C3.52626 3.47258 3.07735 3.77767 2.86186 3.99303C2.8592 4.00161 3.11325 3.92123 2.86186 3.99303C2.77383 4.01817 2.7798 4.07041 2.76643 4.54252C2.7632 4.57831 2.76606 4.6184 2.76316 4.65063C2.59102 4.86995 2.47378 5.05568 2.42944 5.15192C2.20681 5.53554 1.96162 6.13356 1.72395 7.07954C1.82878 6.8231 1.95517 6.57601 2.10176 6.34093C1.90412 6.84304 1.71306 7.63154 1.67486 8.84579C1.72267 8.59522 1.78398 8.34742 1.85851 8.10347C1.81185 9.11086 1.98557 10.1163 2.36756 11.0496C2.50425 11.384 2.73037 11.8915 3.11529 12.4475C4.32465 13.72 6.03044 14.5121 7.91932 14.5121C9.89134 14.5123 11.6621 13.6495 12.8789 12.2795Z" fill="url(#paint2_linear)"/>
<path d="M11.4197 13.2037C13.8063 12.9273 14.8627 10.4679 13.506 10.4196C12.2806 10.3804 10.2893 13.3341 11.4197 13.2037Z" fill="url(#paint3_linear)"/>
<path d="M13.6779 9.91723C15.3198 8.96164 14.8917 6.89752 14.8917 6.89752C14.8917 6.89752 14.258 7.63368 13.8275 8.80713C13.4022 9.96909 12.6907 10.4944 13.6779 9.91723Z" fill="url(#paint4_linear)"/>
<path d="M8.46533 14.4251C10.7545 15.1556 12.7221 13.3522 11.5093 12.7499C10.4066 12.2068 7.37881 14.0797 8.46533 14.4251Z" fill="url(#paint5_linear)"/>
<path d="M10.3572 0.817633C10.3622 0.81208 10.3649 0.809237 10.3649 0.809237C10.3618 0.811427 10.3591 0.814294 10.3572 0.817633V0.817633ZM13.8485 10.7936C13.9042 10.715 13.9795 10.4634 14.0461 10.3509C14.4502 9.69854 14.453 9.17835 14.453 9.16644C14.6971 7.94703 14.675 7.44911 14.5248 6.52827C14.4039 5.78682 13.8754 4.7246 13.4175 4.21309C12.9457 3.68609 13.2781 3.8578 12.8212 3.47285C12.4208 3.02896 12.0326 2.5894 11.8211 2.41263C10.2932 1.13522 10.3277 0.863893 10.3572 0.817633C10.3522 0.82307 10.3449 0.831144 10.3356 0.841708C10.3174 0.769572 10.3047 0.708908 10.3047 0.708908C10.3047 0.708908 9.46944 1.54413 9.29361 2.93617C9.17882 3.84496 9.51902 4.79235 10.0116 5.39787C10.2681 5.71168 10.558 5.99665 10.8761 6.24775V6.24737C11.2483 6.78187 11.4532 7.44143 11.4532 8.15093C11.4532 9.92752 10.0122 11.3677 8.23461 11.3677C7.99234 11.3679 7.75082 11.3408 7.51462 11.2869C6.67593 11.1271 6.19162 10.704 5.95008 10.4168C5.81166 10.2522 5.75279 10.1322 5.75279 10.1322C6.50425 10.4014 7.33512 10.3451 7.84038 10.066C8.34956 9.7837 8.65764 9.57444 8.90766 9.65695C9.15413 9.73909 9.35035 9.50065 9.17435 9.25346C9.00187 9.00663 8.55306 8.65313 7.88667 8.75107C7.37691 8.82532 6.90994 9.18715 6.24202 8.83672C6.199 8.81437 6.15716 8.78982 6.11667 8.76316C6.07264 8.73721 6.2598 8.80265 6.21612 8.77315C6.08615 8.70988 5.85605 8.572 5.79642 8.52297C5.78647 8.51481 5.89727 8.55463 5.88727 8.54641C5.26274 8.08559 5.34071 7.7743 5.36036 7.57905C5.37608 7.42285 5.48951 7.22269 5.68066 7.14151C5.77297 7.18666 5.8305 7.22112 5.8305 7.22112C5.8305 7.22112 5.79111 7.14903 5.76982 7.11103C5.77728 7.10819 5.78439 7.10891 5.7918 7.10606C5.86744 7.13877 6.03469 7.22371 6.12275 7.2756C6.23744 7.34809 6.274 7.41272 6.274 7.41272C6.274 7.41272 6.3042 7.39784 6.28186 7.33462C6.27369 7.3087 6.23894 7.22632 6.12533 7.14318L6.13244 7.1439C6.19988 7.17827 6.26426 7.21834 6.32489 7.26366C6.35692 7.15931 6.41454 7.05035 6.40186 6.85544C6.39413 6.7184 6.3977 6.6829 6.37074 6.62999C6.34661 6.58456 6.38428 6.5668 6.42616 6.61405C6.41891 6.57679 6.40687 6.54062 6.39035 6.50645L6.39071 6.5029C6.44303 6.33962 7.49753 5.91495 7.57428 5.86531C7.69796 5.78767 7.80373 5.68463 7.88456 5.56301C7.94317 5.47927 7.98734 5.36178 7.99809 5.18357C8.0017 5.10328 7.97698 5.03973 7.6977 4.97894C7.53009 4.94246 7.27077 4.90695 6.87079 4.86943C6.5792 4.8437 6.40809 4.65438 6.31087 4.47966C6.29312 4.44201 6.27504 4.40786 6.25695 4.37383C6.23974 4.33422 6.22587 4.29325 6.21546 4.25133C6.38995 3.79454 6.70419 3.40449 7.11339 3.13678C7.13683 3.11762 7.01961 3.14169 7.04305 3.12254C7.07042 3.10019 7.24912 3.03569 7.28288 3.02115C7.3241 3.00378 7.1064 2.92093 6.91422 2.94106C6.7185 2.96083 6.67693 2.98174 6.57247 3.02145C6.61583 2.98278 6.75367 2.93206 6.72136 2.93243C6.51036 2.96141 6.24807 3.07133 6.02388 3.19579C6.02347 3.17397 6.0281 3.15234 6.03741 3.13261C5.93295 3.1723 5.67641 3.33297 5.60172 3.46889C5.60499 3.44286 5.60649 3.41664 5.60621 3.39041C5.52755 3.44904 5.45578 3.51638 5.39227 3.59116L5.38836 3.59435C4.7825 3.37566 4.24935 3.3615 3.79818 3.45954C3.69948 3.37073 3.54079 3.23644 3.31622 2.7943C3.30096 2.76767 3.29277 2.84932 3.28105 2.82303C3.19379 2.62063 3.14107 2.28902 3.14973 2.0604C3.14973 2.0604 2.96923 2.14266 2.81985 2.48622C2.79211 2.54798 2.77432 2.58205 2.75655 2.61612C2.74837 2.62605 2.77508 2.50329 2.77082 2.50997C2.74485 2.55393 2.67768 2.61535 2.64816 2.69486C2.62788 2.75378 2.59944 2.78678 2.58128 2.86026L2.57702 2.867C2.57555 2.84535 2.58239 2.7779 2.57741 2.79173C2.50739 2.9332 2.44713 3.0793 2.39706 3.22899C2.31663 3.49342 2.223 3.85336 2.20816 4.3216C2.20458 4.3571 2.20776 4.39685 2.20454 4.42881C2.01405 4.64632 1.88425 4.83049 1.83518 4.92596C1.58879 5.30647 1.31738 5.89954 1.05432 6.83767C1.17135 6.58141 1.31131 6.33624 1.47247 6.10518C1.25373 6.60313 1.04223 7.38509 1 8.5893C1.0531 8.3401 1.12098 8.09428 1.20327 7.85313C1.16549 8.65612 1.25902 9.65165 1.76666 10.7748C2.06807 11.4355 2.76191 12.7772 4.45725 13.8241L4.4571 13.8242C4.4571 13.8242 5.03384 14.2536 6.02522 14.5753C6.09849 14.6019 6.17271 14.6281 6.24845 14.6535C6.22468 14.6439 6.20169 14.6338 6.17936 14.6234C6.83923 14.8211 7.52435 14.9218 8.2132 14.9223C10.7801 14.9245 11.5372 13.8937 11.5372 13.8937C11.5372 13.8937 11.5345 13.8957 11.5297 13.8992C11.5659 13.8651 11.6008 13.8297 11.6343 13.7929C11.2293 14.1753 10.3051 14.2007 9.95949 14.1731C10.5489 14 10.9367 13.8536 11.6911 13.5647C11.7793 13.532 11.8696 13.4946 11.9619 13.4527C11.9718 13.4483 11.9819 13.4436 11.9919 13.439C12.0102 13.4305 12.0284 13.4224 12.0468 13.4134C12.4144 13.2402 12.76 13.0239 13.0764 12.7689C13.8339 12.1637 13.9988 11.5738 14.0849 11.1849C14.0729 11.2222 14.0355 11.3091 14.0092 11.3654C13.8141 11.7827 13.3814 12.0388 12.9116 12.2584C13.1351 11.9651 13.3425 11.6596 13.5326 11.3435C13.6861 11.1915 13.734 10.9535 13.8485 10.7936H13.8485Z" fill="url(#paint6_radial)"/>
<path d="M12.9264 12.2406C13.2353 11.9 13.5127 11.5105 13.7228 11.0688C14.2635 9.93199 15.0995 8.04178 14.441 6.06764C13.9207 4.50734 13.2062 3.65417 12.299 2.82073C10.8258 1.46729 10.4143 0.863076 10.4143 0.503769C10.4143 0.503769 8.71325 2.4 9.45098 4.37775C10.1887 6.3555 11.6997 6.28299 12.6992 8.34687C13.8755 10.7755 11.7476 13.4258 9.9878 14.1676C10.0955 14.1437 13.8997 13.2828 14.0996 11.1069C14.0951 11.1469 14.0094 11.7487 12.9264 12.2406Z" fill="url(#paint7_linear)"/>
<path d="M7.99815 5.18355C8.00391 5.05504 7.93725 4.96873 6.87454 4.86905C6.43731 4.82868 6.26988 4.42456 6.21885 4.25449C6.06338 4.6584 5.99919 5.08224 6.03369 5.5949C6.05728 5.93075 6.28292 6.29123 6.39078 6.50287C6.39078 6.50287 6.41476 6.47172 6.42582 6.4602C6.62892 6.24875 7.47989 5.92656 7.55984 5.88081C7.64796 5.82514 7.98335 5.58009 7.99815 5.18355Z" fill="url(#paint8_linear)"/>
<path d="M7.99815 5.18355C8.00391 5.05504 7.93725 4.96873 6.87454 4.86905C6.43731 4.82868 6.26988 4.42456 6.21885 4.25449C6.06338 4.6584 5.99919 5.08224 6.03369 5.5949C6.05728 5.93075 6.28292 6.29123 6.39078 6.50287C6.39078 6.50287 6.41476 6.47172 6.42582 6.4602C6.62892 6.24875 7.47989 5.92656 7.55984 5.88081C7.64796 5.82514 7.98335 5.58009 7.99815 5.18355Z" fill="url(#paint9_linear)"/>
<path d="M3.31979 2.79653C3.30453 2.76989 3.29634 2.85154 3.28462 2.82527C3.19736 2.62287 3.14427 2.29483 3.15684 2.06299C3.15684 2.06299 2.97635 2.14525 2.82696 2.4888C2.79922 2.55057 2.78143 2.58464 2.76366 2.6187C2.75548 2.62864 2.7822 2.50588 2.77793 2.51256C2.75198 2.55652 2.68481 2.61794 2.65564 2.69389C2.63145 2.756 2.60657 2.78935 2.58804 2.86638C2.58234 2.88732 2.59379 2.77373 2.58881 2.78757C2.24137 3.45904 2.17505 4.47433 2.21167 4.4314C2.95132 3.6416 3.79895 3.45429 3.79895 3.45429C3.70876 3.38786 3.51281 3.19603 3.3198 2.79653H3.31979Z" fill="url(#paint10_linear)"/>
<path d="M6.12627 11.0554C5.1046 10.6192 3.94309 10.004 3.98693 8.60634C4.04661 6.76569 5.70335 7.1295 5.70335 7.1295C5.64083 7.14472 5.47367 7.26375 5.41443 7.39062C5.35181 7.54927 5.23758 7.90752 5.58368 8.28299C6.12715 8.87193 4.46712 9.68026 7.02939 11.2073C7.09401 11.2424 6.42875 11.1863 6.1262 11.0555L6.12627 11.0554Z" fill="url(#paint11_linear)"/>
<path d="M5.7633 10.1381C6.48778 10.3903 7.33176 10.3461 7.83704 10.067C8.17531 9.87865 8.60926 9.57704 8.87626 9.65149C8.64508 9.56012 8.46999 9.51742 8.25937 9.50698C8.2235 9.50698 8.18051 9.50622 8.14144 9.5023C8.0643 9.50205 7.98721 9.50627 7.91056 9.51494C7.78014 9.52693 7.63558 9.6092 7.50415 9.596C7.49705 9.59528 7.63164 9.5407 7.62069 9.54318C7.55106 9.5577 7.47541 9.56083 7.39547 9.57074C7.34467 9.5764 7.30098 9.58276 7.25054 9.58485C5.74154 9.71282 4.46622 8.76701 4.46622 8.76701C4.35767 9.13261 4.9522 9.85574 5.76332 10.1381H5.7633Z" fill="url(#paint12_linear)"/>
<path d="M12.9237 12.2503C14.4501 10.7518 15.2222 8.93016 14.8958 6.88704C14.8958 6.88704 15.0262 7.93474 14.5317 9.00628C14.7693 7.96016 14.7969 6.66013 14.1657 5.31389C13.3233 3.51696 11.9378 2.57144 11.4088 2.17698C10.6073 1.5793 10.2751 0.970761 10.2691 0.845184C10.0297 1.33572 9.30545 3.01676 10.1913 4.46449C11.0213 5.82083 12.3287 6.22342 13.244 7.46758C14.9302 9.75961 12.9237 12.2503 12.9237 12.2503Z" fill="url(#paint13_linear)"/>
<path d="M12.705 8.35121C12.1717 7.24931 11.5059 6.76869 10.8761 6.24776C10.9494 6.35033 10.9675 6.38657 11.008 6.4529C11.5623 7.04365 12.3796 8.48463 11.7862 10.2936C10.6693 13.6986 6.20132 12.0951 5.73293 11.6447C5.92242 13.6154 9.22087 14.5584 11.3685 13.2805C12.5905 12.1236 13.5791 10.157 12.705 8.35121Z" fill="url(#paint14_linear)"/>
<path d="M12.9293 10.5613L12.9431 10.4902C12.9478 10.4646 12.9541 10.4375 12.9581 10.4081C12.967 10.3495 12.9784 10.284 12.9855 10.2113C13.0053 10.0412 13.0125 9.8698 13.0071 9.6986C13 9.48232 12.9714 9.26728 12.9218 9.05665C12.8636 8.80975 12.778 8.57014 12.6665 8.34229C12.5432 8.08702 12.3981 7.84284 12.2329 7.61248C12.1479 7.49171 12.0525 7.37545 11.9531 7.25994C11.8523 7.14553 11.7446 7.03449 11.632 6.92594C11.5185 6.81828 11.3999 6.71347 11.2782 6.6103C11.1565 6.50712 11.0313 6.40589 10.9066 6.30282C10.7819 6.19975 10.6568 6.09565 10.5359 5.98618C10.415 5.87671 10.2981 5.76233 10.1882 5.6417C10.0784 5.52159 9.97679 5.39418 9.88416 5.26034L9.84971 5.21033C9.83811 5.19376 9.82674 5.17705 9.81632 5.15973L9.75224 5.05716C9.73114 5.02289 9.71241 4.98728 9.69246 4.95251L9.663 4.90013C9.65338 4.88254 9.64483 4.8645 9.63572 4.84674L9.58202 4.73997C9.56527 4.70394 9.54941 4.6676 9.53313 4.63154C9.49933 4.55998 9.47269 4.4859 9.44333 4.41345L9.43254 4.38621L9.42316 4.35837L9.40461 4.3029C9.39244 4.26591 9.37959 4.22928 9.36811 4.19237L9.33881 4.08054L9.32423 4.02486C9.31898 4.00644 9.31649 3.98745 9.3125 3.96882C9.25263 3.6807 9.23388 3.38555 9.25682 3.09218C9.2792 2.82664 9.32926 2.56416 9.40618 2.30903C9.47265 2.08781 9.55585 1.87197 9.65508 1.66339C9.73522 1.4938 9.82407 1.32846 9.92126 1.16803C10.0312 0.985294 10.152 0.809282 10.283 0.640927C10.3204 0.593056 10.3579 0.546664 10.3952 0.503848C10.3977 0.501391 10.4012 0.500014 10.4047 0.5C10.4083 0.499986 10.4117 0.501337 10.4143 0.503775C10.4171 0.506009 10.4189 0.509214 10.4193 0.51273C10.4198 0.516246 10.4189 0.519806 10.4168 0.522677C10.3813 0.563882 10.3438 0.610464 10.3061 0.65895C10.0585 0.980268 9.84707 1.32797 9.6758 1.69573C9.57877 1.90389 9.49777 2.11915 9.43349 2.33964C9.35922 2.5926 9.31177 2.85267 9.29193 3.11556C9.27265 3.40464 9.2937 3.69499 9.35447 3.97826C9.35633 3.98743 9.35797 3.99668 9.36002 4.00582L9.36725 4.03305L9.38174 4.08766C9.39173 4.12404 9.40042 4.16092 9.41154 4.19725L9.4481 4.30568L9.46646 4.36013C9.47243 4.37836 9.48041 4.39597 9.4873 4.41397L9.53032 4.52173L9.54111 4.54876L9.55308 4.57533L9.57711 4.62855L9.60118 4.6819C9.60927 4.69967 9.61695 4.71768 9.62609 4.73497L9.67933 4.83995C9.8271 5.12244 10.0114 5.38427 10.2275 5.61868C10.3363 5.73678 10.4521 5.84901 10.5718 5.95667C10.6916 6.06432 10.8159 6.1671 10.9401 6.26919C11.0642 6.37128 11.1892 6.47174 11.311 6.57454C11.4329 6.67735 11.5519 6.78199 11.666 6.8897C11.7793 6.99837 11.888 7.10957 11.9897 7.22445C12.0901 7.34021 12.1865 7.45714 12.2725 7.57839C12.4396 7.80983 12.5866 8.05519 12.7117 8.31178L12.7233 8.33446L12.7339 8.35758L12.755 8.40362C12.7688 8.43431 12.7833 8.4644 12.7962 8.49494L12.833 8.5866L12.8512 8.6319C12.857 8.64707 12.862 8.66243 12.8673 8.67758L12.8988 8.768C12.9043 8.78286 12.9088 8.79795 12.9132 8.81303L12.9265 8.85797C12.9351 8.88785 12.9444 8.91727 12.9524 8.94678L12.974 9.03499C13.0255 9.24915 13.0556 9.46788 13.0639 9.68798C13.0702 9.86294 13.0635 10.0381 13.0439 10.2121C13.0285 10.3612 13.0045 10.4823 12.9865 10.5734C12.9494 10.7484 12.901 10.9208 12.8417 11.0895C12.788 11.2439 12.7257 11.3951 12.6551 11.5425C12.5879 11.6818 12.5201 11.811 12.4504 11.9272L12.4251 11.9707L12.3991 12.0126L12.3485 12.0937C12.3141 12.1458 12.2816 12.1958 12.2493 12.2425C12.1845 12.3357 12.1237 12.4175 12.069 12.4877L11.9918 12.5843L11.9249 12.663L11.8964 12.6962L11.8706 12.7244C11.8545 12.7419 11.8409 12.7564 11.8297 12.7681C11.8074 12.7914 11.7951 12.8029 11.7935 12.8016C11.792 12.8002 11.8019 12.7859 11.822 12.7594C11.8418 12.7327 11.8732 12.6951 11.9111 12.6445C11.9888 12.5448 12.0987 12.3977 12.2237 12.2073C12.2542 12.1592 12.2867 12.1091 12.3191 12.0559C12.3509 12.0023 12.385 11.9471 12.4172 11.888C12.484 11.7711 12.5497 11.6426 12.6133 11.5045C12.6288 11.4697 12.6456 11.435 12.6606 11.399L12.7063 11.2897C12.7352 11.2152 12.7651 11.1391 12.7913 11.06C12.8473 10.8967 12.8934 10.7302 12.9293 10.5613V10.5613Z" fill="url(#paint15_linear)"/>
<path d="M11.8339 10.0244C11.8415 9.99428 11.8533 9.95411 11.8635 9.90407C11.8741 9.85411 11.889 9.79555 11.8999 9.72823C11.9058 9.69463 11.9127 9.65917 11.9188 9.62179L11.9351 9.50406L11.9395 9.47307L11.9426 9.44136L11.949 9.37621C11.9511 9.35411 11.9537 9.33171 11.9554 9.30888L11.9594 9.23932C11.9713 9.03449 11.9667 8.82904 11.9457 8.62494L11.9418 8.58413L11.9364 8.54329L11.9254 8.46109C11.9221 8.43353 11.9164 8.40623 11.912 8.37864C11.9071 8.35114 11.903 8.3234 11.8974 8.29589L11.8802 8.21328C11.8773 8.19951 11.8746 8.18566 11.8714 8.17192L11.8614 8.13081L11.8413 8.04854L11.8186 7.96702C11.7582 7.75543 11.6804 7.5492 11.586 7.35046C11.5026 7.17555 11.4063 7.00706 11.298 6.8464C11.2501 6.77432 11.2015 6.71013 11.1572 6.65216C11.1118 6.59501 11.07 6.54465 11.0321 6.5027L11.0048 6.47249L10.9982 6.46516C10.9964 6.46345 10.9949 6.46147 10.9938 6.4593L10.9912 6.45502L10.9818 6.43925L10.9491 6.38433C10.9298 6.35241 10.9148 6.32991 10.9063 6.31706C10.8946 6.2996 10.8828 6.28257 10.8716 6.26652C10.8699 6.26344 10.8694 6.25981 10.8702 6.25637C10.871 6.25293 10.8731 6.24992 10.876 6.24793C10.8788 6.2457 10.8824 6.24466 10.886 6.24504C10.8895 6.24542 10.8928 6.24718 10.8951 6.24995C10.9063 6.26556 10.9184 6.28275 10.9306 6.3007C10.9402 6.31481 10.9563 6.33863 10.9766 6.37179L11.0105 6.42772L11.0199 6.44308C11.0202 6.44369 11.0206 6.44425 11.0212 6.44473L11.0244 6.44831L11.0311 6.45564L11.0593 6.48641C11.1576 6.59575 11.2484 6.71164 11.3311 6.83328C11.4412 6.99447 11.5392 7.16361 11.6244 7.33929C11.7207 7.53853 11.8003 7.74539 11.8625 7.95776L11.886 8.03964L11.9068 8.1223L11.9172 8.16361L11.9263 8.20521L11.9442 8.28827C11.9499 8.31595 11.9543 8.34384 11.9595 8.37152C11.9641 8.39927 11.97 8.42674 11.9736 8.45448L11.9853 8.53724L11.991 8.57837L11.9953 8.61947C12.018 8.82536 12.0242 9.03273 12.0137 9.2396C12.0057 9.40596 11.9868 9.57161 11.957 9.73547C11.9462 9.80406 11.9315 9.86389 11.9208 9.91506C11.9104 9.96634 11.8986 10.0078 11.8906 10.0392L11.8662 10.1315L11.8389 10.2192L11.8126 10.303C11.8033 10.3301 11.794 10.3563 11.7847 10.3818C11.7475 10.4835 11.7093 10.5715 11.675 10.6432C11.606 10.7866 11.553 10.8649 11.5465 10.8613C11.5392 10.8575 11.5806 10.7696 11.6395 10.622C11.6688 10.5481 11.7023 10.4592 11.7358 10.3585C11.7441 10.3333 11.7527 10.3074 11.7609 10.2807L11.7852 10.1987L11.8107 10.1134L11.8339 10.0244Z" fill="url(#paint16_linear)"/>
<path d="M11.5046 5.90248C11.4702 5.87474 11.4234 5.83846 11.3677 5.79195L11.2763 5.71658C11.2435 5.68937 11.2092 5.65909 11.1724 5.62758C10.9949 5.47531 10.8266 5.31265 10.6683 5.14047C10.4711 4.92448 10.2965 4.68894 10.1472 4.4375C10.128 4.40365 10.1082 4.36985 10.0892 4.33547L10.0361 4.22962L10.0228 4.20302C10.0186 4.19404 10.0148 4.18485 10.0108 4.17577L9.98697 4.12101L9.963 4.06611C9.95548 4.0476 9.94883 4.02871 9.94171 4.01L9.92064 3.95367C9.91349 3.93492 9.90645 3.91612 9.90077 3.89683L9.86435 3.78181L9.83358 3.66505C9.82812 3.64568 9.82391 3.62602 9.81988 3.60631L9.8074 3.54733C9.77596 3.3912 9.75588 3.233 9.74732 3.07396C9.73969 2.92045 9.74174 2.76661 9.75347 2.61336C9.76412 2.46956 9.78233 2.32642 9.80804 2.18454C9.83279 2.04866 9.86235 1.92054 9.89385 1.80192C9.94734 1.60337 10.0123 1.4081 10.0885 1.21709C10.1481 1.06811 10.1948 0.968385 10.2132 0.928631C10.2258 0.901582 10.2385 0.875148 10.2508 0.850237C10.2526 0.847218 10.2555 0.845013 10.2589 0.844064C10.2624 0.843115 10.266 0.843494 10.2691 0.845124C10.2724 0.846533 10.275 0.84915 10.2764 0.852427C10.2778 0.855704 10.2778 0.859388 10.2765 0.862707C10.2649 0.886929 10.2524 0.91348 10.2398 0.94094C10.22 0.984151 10.1732 1.08611 10.1144 1.23618C10.0399 1.42733 9.97652 1.62262 9.92461 1.82109C9.85553 2.08435 9.8112 2.35348 9.79217 2.62498C9.782 2.77598 9.78112 2.92746 9.78953 3.07857C9.79923 3.23462 9.82016 3.38977 9.85216 3.54282L9.86472 3.60057L9.87099 3.62945L9.87865 3.65801L9.90954 3.77215L9.94581 3.88457C9.95145 3.90343 9.9587 3.9217 9.96569 3.94005L9.98662 3.99505C9.99374 4.01331 10.0002 4.03182 10.0078 4.0498L10.0315 4.10338L10.0551 4.15681C10.0591 4.1656 10.0628 4.17467 10.0671 4.18337L10.0803 4.20931L10.1327 4.31256L10.19 4.41202C10.3382 4.65856 10.5111 4.88943 10.7059 5.10109C10.8633 5.27086 11.0305 5.43122 11.2067 5.58135C11.2434 5.61262 11.2778 5.64255 11.3105 5.66978L11.4023 5.74502C11.4584 5.79154 11.5059 5.82829 11.5411 5.85665L11.934 6.16744C12.0524 6.2618 12.156 6.34688 12.2405 6.41947L12.3528 6.51791C12.3851 6.5474 12.4122 6.57325 12.4341 6.59438C12.4778 6.63676 12.5002 6.66116 12.4975 6.6642C12.4948 6.66725 12.4667 6.64753 12.4174 6.60956L12.2089 6.44668L11.8944 6.20491C11.7751 6.11347 11.6428 6.01258 11.5046 5.90248Z" fill="url(#paint17_linear)"/>
<path d="M14.5647 6.38641C14.5574 6.35905 14.5497 6.32678 14.5394 6.2905C14.5288 6.25432 14.5175 6.21359 14.5039 6.16918L14.4818 6.09981C14.4742 6.07565 14.4661 6.05062 14.4568 6.02508L14.3987 5.86042L14.3668 5.77044L14.3302 5.67666L14.2919 5.57838C14.2785 5.54502 14.2663 5.51035 14.2508 5.47615L14.1585 5.26181C14.125 5.18854 14.0887 5.11381 14.0523 5.03641L14.0386 5.00736L14.0236 4.97862L13.9935 4.9206L13.9321 4.80245C13.9221 4.78238 13.9108 4.76278 13.8995 4.74309L13.8657 4.68359L13.7971 4.56282L13.7227 4.44253L13.685 4.38168C13.6787 4.37154 13.6725 4.36116 13.666 4.35115L13.6458 4.32117C13.5916 4.24136 13.5388 4.15888 13.4793 4.07981C13.4501 4.03993 13.4213 3.99937 13.3913 3.95947L13.2986 3.84101C13.283 3.82127 13.2678 3.80117 13.2518 3.78162L13.2031 3.72348L13.1051 3.60692L13.0033 3.49284C12.9862 3.47391 12.9696 3.45452 12.952 3.43592L12.8994 3.38023C12.8643 3.34321 12.8295 3.30562 12.7939 3.26903L12.6861 3.16037C12.6505 3.12384 12.6136 3.08871 12.577 3.0534C12.5404 3.01809 12.5041 2.98261 12.4671 2.94803L12.2459 2.74318C12.0994 2.60838 11.9563 2.47474 11.8193 2.34335C11.5453 2.08065 11.2948 1.82771 11.0862 1.59615C10.8773 1.36503 10.7118 1.15373 10.6048 0.981341C10.5595 0.910062 10.5202 0.835171 10.4872 0.757429C10.4686 0.713875 10.4539 0.668763 10.4433 0.622622C10.435 0.587641 10.4302 0.551905 10.4291 0.515963C10.4285 0.512494 10.4267 0.509355 10.424 0.50712C10.4213 0.504884 10.4178 0.503701 10.4143 0.503786C10.4125 0.503695 10.4108 0.503963 10.4091 0.504572C10.4074 0.505181 10.4059 0.506119 10.4046 0.507331C10.4033 0.508543 10.4023 0.510004 10.4016 0.511625C10.4009 0.513247 10.4005 0.514996 10.4004 0.516769C10.4013 0.554602 10.4061 0.592243 10.4147 0.629098C10.426 0.679002 10.4418 0.727773 10.4619 0.774807C10.4961 0.855353 10.537 0.932923 10.584 1.00672C10.6474 1.10704 10.7159 1.20398 10.7894 1.29716C10.8711 1.40162 10.9653 1.51291 11.0696 1.62944C11.2783 1.86255 11.5278 2.11631 11.8002 2.37957C11.9363 2.51129 12.0784 2.6451 12.224 2.78006L12.4427 2.98453L12.551 3.08956C12.5873 3.12461 12.6235 3.1598 12.6586 3.19611L12.765 3.30422L12.8689 3.4148L12.9207 3.47016C12.9378 3.48878 12.9543 3.50791 12.9711 3.52675L13.0712 3.63997L13.1675 3.75564L13.2154 3.8133C13.231 3.83275 13.246 3.85262 13.2613 3.87219L13.3524 3.98958C13.3818 4.02914 13.4101 4.06928 13.4388 4.10879C13.4973 4.18711 13.5491 4.26878 13.6023 4.3478C13.6295 4.387 13.653 4.42814 13.6779 4.46795L13.7509 4.58701L13.8183 4.70659C13.8402 4.74626 13.8634 4.78475 13.8836 4.82425L13.9438 4.94132L13.9734 4.99881C13.9833 5.01786 13.993 5.03675 14.0018 5.05596C14.1306 5.32229 14.2445 5.5956 14.3429 5.87461L14.4004 6.03909L14.4136 6.07691L14.4252 6.11354L14.4472 6.18267C14.4609 6.22694 14.4719 6.26766 14.4825 6.30401C14.4929 6.3404 14.5006 6.37288 14.508 6.40072L14.5187 6.44225L14.5283 6.48367L14.5472 6.56541C14.5578 6.61974 14.5701 6.67268 14.5788 6.72512L14.5927 6.80268L14.6045 6.87873C14.6128 6.92873 14.6181 6.97784 14.6246 7.02541C14.648 7.21604 14.6574 7.38594 14.6619 7.52715C14.6695 7.80975 14.659 7.97779 14.6685 7.97846C14.6722 7.97874 14.6789 7.93553 14.687 7.85626C14.6939 7.77694 14.7021 7.66148 14.7029 7.51745C14.7049 7.13611 14.6584 6.75606 14.5647 6.38641V6.38641Z" fill="url(#paint18_linear)"/>
<path d="M9.45892 11.0946C9.47975 11.0871 9.50288 11.0754 9.52993 11.0636L9.61997 11.0229L9.72565 10.969L9.75468 10.9542L9.78399 10.9375L9.84532 10.9023C9.88802 10.8791 9.93065 10.8504 9.97622 10.8217C10.0224 10.7938 10.0674 10.7595 10.1156 10.726C10.14 10.7095 10.1634 10.6908 10.1874 10.672L10.2608 10.6146L10.3339 10.552C10.3586 10.5307 10.3839 10.5095 10.4078 10.4859L10.4817 10.4158C10.5064 10.3919 10.5299 10.3661 10.5544 10.3409L10.5912 10.3025C10.6035 10.2897 10.6148 10.2758 10.6268 10.2624L10.6983 10.1802C10.794 10.0631 10.8822 9.93996 10.9623 9.81162C11.0441 9.67653 11.1166 9.53608 11.1795 9.39124C11.2413 9.24309 11.2927 9.09082 11.3333 8.93552C11.372 8.78106 11.3998 8.62409 11.4165 8.46576C11.4225 8.38741 11.4302 8.30979 11.4307 8.23277C11.4341 8.15582 11.4323 8.07962 11.4302 8.00467C11.4249 7.86009 11.4106 7.71599 11.3873 7.57321C11.3771 7.50462 11.3626 7.43849 11.3494 7.37413L11.3266 7.27971C11.3195 7.24861 11.3099 7.21872 11.3019 7.18896L11.2895 7.14484C11.2853 7.13029 11.2804 7.11612 11.2759 7.10195L11.249 7.01881L11.2203 6.94015L11.2063 6.90217L11.1914 6.86564L11.1626 6.7953C11.1528 6.77269 11.1426 6.75107 11.133 6.72991C11.1233 6.70887 11.1144 6.68818 11.1047 6.66875L11.0765 6.61264C11.0288 6.51867 10.9763 6.42721 10.9193 6.33863L10.871 6.26574C10.8697 6.26312 10.8692 6.26016 10.8696 6.25725C10.87 6.25434 10.8712 6.25161 10.8732 6.24942L10.8796 6.24709C10.8784 6.24746 10.8773 6.24769 10.8761 6.24779C10.8749 6.24793 10.8737 6.24793 10.8725 6.24779L10.8791 6.24537C10.8818 6.24428 10.8847 6.24409 10.8876 6.24483C10.8904 6.24557 10.8929 6.24721 10.8947 6.24949L10.9439 6.32276C11.0036 6.41424 11.0584 6.50882 11.108 6.60609C11.2037 6.79265 11.2808 6.98817 11.3383 7.18982C11.3565 7.24943 11.3708 7.31228 11.3868 7.37667L11.4073 7.47546C11.411 7.4921 11.4141 7.50898 11.4168 7.52604L11.4255 7.57741C11.4491 7.72123 11.464 7.86635 11.4702 8.01197C11.471 8.04972 11.4719 8.08775 11.4728 8.12606C11.4735 8.14521 11.4731 8.16443 11.4726 8.18373C11.472 8.20303 11.4717 8.22237 11.4713 8.24179C11.4713 8.31945 11.4631 8.39777 11.4579 8.47685C11.4265 8.79851 11.3471 9.11364 11.2222 9.41172C11.1008 9.70021 10.9384 9.96965 10.7399 10.2117L10.668 10.2953C10.656 10.309 10.6446 10.323 10.6323 10.3362L10.5952 10.3753C10.5705 10.401 10.5467 10.427 10.5221 10.4516L10.4475 10.5231C10.4351 10.5347 10.4233 10.5468 10.4106 10.5578L10.3729 10.5905L10.2992 10.6546L10.225 10.7132C10.2006 10.7323 10.1771 10.7518 10.1524 10.7686L10.0809 10.8197C10.0692 10.8279 10.0578 10.8365 10.0461 10.8443L10.0111 10.8668C9.96474 10.8961 9.92161 10.9259 9.87812 10.9497L9.81559 10.9858L9.78574 11.003C9.77587 11.0085 9.76586 11.0134 9.75619 11.0184L9.64796 11.074C9.61426 11.09 9.58302 11.1037 9.5553 11.1164C9.52737 11.1286 9.50328 11.1408 9.4815 11.1487C9.32371 11.2144 9.16061 11.2665 8.99399 11.3045C8.95623 11.3128 8.91964 11.3211 8.88409 11.3284L8.78021 11.3454L8.7311 11.3534L8.68362 11.3587L8.59481 11.368C8.56669 11.3715 8.53975 11.3722 8.51443 11.3736L8.44309 11.3767C8.39875 11.3794 8.36067 11.3774 8.32978 11.3767C8.26796 11.3748 8.23454 11.3717 8.23454 11.3677C8.23454 11.3639 8.2691 11.3593 8.33182 11.3543C8.36318 11.3517 8.40161 11.3499 8.44611 11.344L8.5175 11.3363L8.55652 11.3322C8.56987 11.3308 8.58348 11.3283 8.59755 11.3263C8.65342 11.3172 8.71518 11.3105 8.78055 11.2962L8.8823 11.2763L8.98944 11.2502C9.14951 11.2098 9.30642 11.1578 9.45892 11.0946V11.0946Z" fill="url(#paint19_linear)"/>
<path d="M6.15696 4.35313C6.17117 4.313 6.18892 4.26562 6.20971 4.21114C6.23278 4.15756 6.25675 4.09593 6.28982 4.03003C6.36605 3.87012 6.45993 3.71924 6.56969 3.58019C6.71405 3.39595 6.88651 3.23558 7.08075 3.10497C7.10777 3.08667 7.13599 3.06937 7.16485 3.05222L7.18673 3.03961L7.19461 3.03511L7.19746 3.03364L7.20218 3.03114L7.20357 3.03048C7.20536 3.02998 7.20357 3.02976 7.20273 3.02948L7.20127 3.02909L7.19517 3.02772C7.16196 3.02068 7.1281 3.01468 7.09361 3.00971C6.94951 2.98868 6.80342 2.98484 6.65842 2.99829C6.52634 3.01061 6.39623 3.03881 6.2709 3.08229C6.20181 3.10653 6.1346 3.13585 6.06983 3.17C6.00297 3.20551 5.93422 3.24412 5.86491 3.28392C5.79566 3.32405 5.72528 3.36581 5.65565 3.41103C5.63807 3.42214 5.62075 3.43367 5.6035 3.44547C5.58605 3.45701 5.56891 3.46904 5.55189 3.48134C5.51755 3.50539 5.48461 3.5314 5.45324 3.55923C5.44591 3.56631 5.43797 3.57328 5.43149 3.5806L5.42641 3.58603L5.42065 3.59295C5.41927 3.5951 5.41698 3.59622 5.41625 3.59912C5.41559 3.59922 5.41424 3.59859 5.4138 3.59885L5.41241 3.59959L5.40963 3.60105L5.39952 3.6065C5.39654 3.60807 5.39342 3.60935 5.3902 3.61031C5.38617 3.61134 5.38196 3.61512 5.37755 3.612L5.35535 3.60381L5.32473 3.59296C5.2837 3.57857 5.24194 3.56539 5.19988 3.55233C5.11562 3.5266 5.02959 3.50381 4.94179 3.48397L4.93017 3.48129L4.9177 3.47836C4.77506 3.44671 4.63015 3.42632 4.48432 3.41739C4.33597 3.41126 4.1874 3.42224 4.04156 3.45013C3.9678 3.46286 3.89443 3.47908 3.82153 3.49734C3.74856 3.51533 3.67631 3.53653 3.60467 3.55938C3.46172 3.60519 3.32187 3.66016 3.18599 3.72396C2.91931 3.84709 2.67169 4.00786 2.45069 4.20134C2.34546 4.29418 2.24796 4.39542 2.15915 4.50406C2.1367 4.53007 2.11687 4.55789 2.09614 4.58474C2.07507 4.61129 2.05647 4.6397 2.03721 4.66726L1.98019 4.74975C1.96136 4.77709 1.94209 4.80389 1.92527 4.83198L1.82251 4.99587L1.72958 5.15842C1.71398 5.18479 1.70004 5.2118 1.68613 5.23847L1.64467 5.31759C1.63116 5.34378 1.61705 5.36932 1.60446 5.39526L1.56727 5.4723C1.51702 5.57326 1.4746 5.67204 1.43331 5.76463C1.39454 5.85832 1.35741 5.94615 1.32649 6.02913C1.29383 6.11145 1.26757 6.18885 1.24212 6.25857C1.21878 6.32899 1.19652 6.39184 1.17956 6.44768L1.15517 6.52515L1.13581 6.59058C1.12397 6.62987 1.11552 6.66073 1.1096 6.68216C1.09544 6.73227 1.08266 6.7818 1.07116 6.82869C1.06998 6.83201 1.06759 6.83477 1.06448 6.83644C1.06137 6.8381 1.05775 6.83855 1.05433 6.83768C1.0508 6.83707 1.04766 6.83509 1.04559 6.83217C1.04351 6.82925 1.04267 6.82564 1.04325 6.82211C1.05434 6.77588 1.06699 6.72569 1.08135 6.67438C1.08772 6.65093 1.09669 6.61814 1.10889 6.57712L1.12888 6.50924L1.1537 6.4295C1.16238 6.40088 1.17237 6.37055 1.18315 6.33843C1.19394 6.30631 1.2049 6.27219 1.21727 6.2366C1.2426 6.16564 1.26958 6.08736 1.30225 6.00406C1.33325 5.92011 1.37082 5.83156 1.40968 5.73714L1.47342 5.59303C1.48405 5.56823 1.4957 5.5435 1.50781 5.51862L1.54409 5.44283L1.58131 5.36532L1.62185 5.28734L1.66325 5.20773C1.67031 5.19438 1.67701 5.18075 1.68446 5.16745L1.70715 5.12746C1.73776 5.07403 1.76793 5.01902 1.80046 4.96422L1.90303 4.79923C1.91147 4.78512 1.92085 4.77154 1.93028 4.75792L1.95849 4.71682L2.01548 4.63378L2.04425 4.59186L2.07511 4.55083L2.10625 4.50963C2.11685 4.496 2.12813 4.48286 2.13909 4.46939C2.22907 4.35985 2.32772 4.25773 2.4341 4.16404C2.54395 4.06733 2.66077 3.97885 2.78363 3.89931C2.9093 3.81837 3.04025 3.74592 3.17558 3.68245C3.44971 3.5532 3.73941 3.45997 4.03746 3.40508C4.11197 3.39189 4.18692 3.3814 4.26221 3.37503C4.28102 3.37336 4.29985 3.37191 4.31877 3.37112C4.33761 3.3699 4.35654 3.36933 4.37548 3.36912C4.41331 3.36849 4.45079 3.3703 4.4883 3.37103C4.63615 3.37964 4.78309 3.39983 4.92778 3.43141L4.94042 3.43434L4.95222 3.43703C5.04095 3.45671 5.12802 3.47951 5.21344 3.50543C5.25603 3.51851 5.29832 3.5318 5.34001 3.54622L5.37122 3.55715L5.38029 3.56039C5.3819 3.56087 5.38223 3.56131 5.38299 3.56115C5.3834 3.56041 5.3839 3.5597 5.38445 3.55906L5.38854 3.55405L5.39453 3.54758C5.40246 3.53867 5.4108 3.53132 5.41896 3.5233C5.45161 3.49408 5.48592 3.46676 5.52171 3.44148C5.53915 3.42885 5.55661 3.41645 5.5743 3.40467C5.59188 3.39264 5.60947 3.3808 5.62717 3.36951C5.69765 3.32341 5.76844 3.28115 5.83808 3.24047C5.90802 3.20006 5.97626 3.16148 6.04448 3.12492C6.1114 3.08928 6.18088 3.05867 6.25234 3.03335C6.38193 2.98782 6.51656 2.95813 6.65329 2.94495C6.8016 2.93083 6.95106 2.93427 7.09856 2.95521C7.13391 2.96016 7.16872 2.96618 7.203 2.97327C7.20807 2.97434 7.22895 2.97871 7.2438 2.98242C7.25938 2.9864 7.27556 2.99017 7.28973 2.99456L7.33268 3.00736L7.35397 3.01382L7.35836 3.01528L7.36066 3.01604C7.36138 3.01616 7.3615 3.01635 7.36066 3.01662L7.35909 3.01732L7.34657 3.02295L7.29711 3.04532L7.28485 3.05089C7.2807 3.05275 7.27652 3.05463 7.27359 3.05627L7.25408 3.06652L7.23462 3.07671L7.2249 3.08179L7.22023 3.08425L7.21761 3.08572L7.19664 3.09788C7.1826 3.10577 7.16907 3.11443 7.15552 3.12279C7.14197 3.13116 7.1286 3.13972 7.11555 3.1486C6.92672 3.27557 6.75901 3.43142 6.61856 3.61046C6.51111 3.74658 6.41916 3.89425 6.34442 4.05074C6.31195 4.11574 6.28789 4.17675 6.26516 4.23012C6.24435 4.28434 6.22678 4.33181 6.21241 4.37225C6.16311 4.51584 6.12354 4.66259 6.09397 4.81149C6.0661 4.94737 6.04801 5.08506 6.03982 5.22352C6.03226 5.34621 6.03677 5.46934 6.05328 5.59115L6.06021 5.63288C6.06235 5.64669 6.0646 5.66033 6.06813 5.67371C6.07455 5.70051 6.07986 5.72697 6.0874 5.75241C6.09445 5.77793 6.10094 5.80303 6.10884 5.82714C6.1164 5.85135 6.12349 5.8751 6.1316 5.89788C6.18117 6.04109 6.23878 6.18138 6.30414 6.3181C6.34943 6.41424 6.37557 6.46573 6.37199 6.46783C6.3688 6.46972 6.33489 6.41994 6.282 6.32405C6.20698 6.18756 6.14228 6.04565 6.08843 5.89951C6.07153 5.85281 6.05521 5.80324 6.04007 5.75081C6.03245 5.72463 6.0262 5.69739 6.019 5.66987C6.01329 5.6419 6.00828 5.6131 6.00278 5.5839C5.9851 5.45891 5.97976 5.33248 5.98685 5.20645C5.99393 5.06678 6.01151 4.92783 6.03943 4.79079C6.06863 4.6424 6.10789 4.49618 6.15696 4.35313V4.35313Z" fill="url(#paint20_linear)"/>
<g style="mix-blend-mode:overlay" opacity="0.25">
<g style="mix-blend-mode:overlay" opacity="0.25">
<path d="M14.4085 10.1363L14.4503 10.044L14.5085 9.90921L14.5781 9.7374L14.615 9.63907C14.6276 9.6051 14.6414 9.5702 14.6534 9.53373C14.6783 9.46096 14.7055 9.38456 14.7293 9.30391C14.7413 9.26365 14.7552 9.22309 14.7663 9.18115L14.8009 9.05388C14.8133 9.01113 14.8222 8.96707 14.8327 8.92304L14.848 8.85666C14.8533 8.83449 14.8584 8.81223 14.8623 8.78967L14.8878 8.65431L14.8941 8.62037L14.8991 8.58621L14.9092 8.51796C14.9241 8.42721 14.9319 8.33593 14.942 8.24649C14.9484 8.15671 14.9562 8.06851 14.9583 7.98273C14.9651 7.8113 14.9634 7.65011 14.9551 7.5092C14.9465 7.3309 14.9266 7.15334 14.8952 6.9776C14.8922 6.96072 14.8889 6.94427 14.8857 6.92872C14.8854 6.92522 14.8863 6.92171 14.8884 6.91887C14.8905 6.91603 14.8936 6.91406 14.897 6.91334C14.8987 6.91285 14.9005 6.9127 14.9023 6.9129C14.904 6.9131 14.9057 6.91365 14.9073 6.91451C14.9088 6.91537 14.9102 6.91653 14.9113 6.91792C14.9124 6.91931 14.9132 6.9209 14.9137 6.92261C14.9172 6.93798 14.9207 6.95485 14.924 6.97209C14.9577 7.15089 14.9797 7.33168 14.9901 7.51333C14.9919 7.5488 14.9948 7.58546 14.9959 7.62323C14.997 7.66099 14.9983 7.69995 14.9995 7.73979C14.9998 7.81949 15.0012 7.90304 14.9976 7.98914C14.9962 8.07533 14.9891 8.16389 14.9836 8.25406C14.9742 8.34391 14.9672 8.4356 14.9531 8.52684L14.9436 8.59547L14.9389 8.62982L14.9328 8.66395L14.9085 8.80022C14.9048 8.82293 14.8997 8.84531 14.8947 8.86762L14.8799 8.93444C14.8698 8.97877 14.8612 9.02316 14.8492 9.06617L14.8156 9.19432C14.8104 9.2155 14.8041 9.2362 14.7979 9.25676L14.7796 9.31796L14.7615 9.37804L14.7527 9.40767L14.743 9.4367L14.7053 9.54952C14.6344 9.75715 14.5532 9.96108 14.4618 10.1606C14.2873 10.5443 14.1152 10.8 14.1013 10.7909C14.089 10.7834 14.2405 10.5068 14.4085 10.1363Z" fill="white"/>
</g>
</g>
<g style="mix-blend-mode:overlay" opacity="0.25">
<g style="mix-blend-mode:overlay" opacity="0.25">
<path d="M12.4207 13.1795C12.4938 13.1358 12.6677 13.0323 12.8774 12.882L12.9578 12.824L13.0404 12.7613L13.0829 12.729L13.125 12.695L13.211 12.6255L13.2966 12.5518C13.3254 12.527 13.3545 12.5021 13.3819 12.4758C13.4103 12.4503 13.4366 12.4224 13.4639 12.3955C13.4898 12.3672 13.5166 12.3396 13.541 12.3101C13.5909 12.2527 13.6375 12.1926 13.6807 12.13C13.7229 12.0698 13.762 12.0075 13.7979 11.9433C13.8626 11.8282 13.918 11.7082 13.9637 11.5844C14.0161 11.4446 14.0549 11.3001 14.0797 11.1529C14.0819 11.1388 14.0841 11.1249 14.0857 11.1118C14.0865 11.1083 14.0886 11.1053 14.0915 11.1033C14.0943 11.1013 14.0979 11.1005 14.1013 11.1009C14.1031 11.101 14.1049 11.1014 14.1065 11.1022C14.1081 11.103 14.1095 11.104 14.1107 11.1054C14.1119 11.1067 14.1128 11.1082 14.1134 11.1099C14.114 11.1116 14.1143 11.1134 14.1142 11.1152C14.1127 11.1283 14.1108 11.1427 14.1086 11.1574C14.0851 11.3086 14.0468 11.4572 13.9946 11.6011C13.9496 11.727 13.8946 11.849 13.8303 11.9661C13.7946 12.0316 13.7556 12.0951 13.7134 12.1566C13.6702 12.2205 13.6235 12.282 13.5736 12.3408C13.549 12.3711 13.5221 12.3993 13.496 12.4283C13.4687 12.4562 13.4422 12.4847 13.4136 12.5109C13.3858 12.5382 13.3569 12.5634 13.3283 12.5886L13.2432 12.6636L13.1576 12.7343L13.1156 12.769L13.0733 12.8019L12.9909 12.8659C12.9638 12.8864 12.9367 12.9058 12.9106 12.925C12.7012 13.0783 12.5265 13.1846 12.4507 13.2298C12.1471 13.4114 11.905 13.5033 11.8987 13.4878C11.8958 13.4809 11.9533 13.448 12.048 13.3945C12.1427 13.3409 12.2744 13.2668 12.4207 13.1795Z" fill="white"/>
</g>
</g>
<g style="mix-blend-mode:overlay" opacity="0.25">
<g style="mix-blend-mode:overlay" opacity="0.25">
<path d="M8.59159 14.8866L8.69024 14.8826L8.83302 14.8738C8.94145 14.8663 9.07479 14.855 9.22361 14.8369C9.24222 14.8346 9.26117 14.8329 9.28019 14.8302L9.33796 14.8218L9.45733 14.8045C9.49792 14.7987 9.53876 14.7902 9.58041 14.783C9.622 14.7753 9.66439 14.7684 9.70683 14.7596L9.835 14.7312L9.89985 14.7169C9.92146 14.7118 9.94283 14.7056 9.96441 14.7L10.0941 14.6653C10.1049 14.6623 10.1158 14.6597 10.1265 14.6563L10.1585 14.6461L10.2224 14.6255C10.2649 14.6114 10.3077 14.5988 10.3496 14.5837L10.4741 14.5377L10.5355 14.5148L10.5956 14.4904L10.7134 14.4421C10.8547 14.3815 10.9923 14.3128 11.1257 14.2364C11.2253 14.1795 11.319 14.113 11.4056 14.0378C11.4493 14.0001 11.4885 13.9573 11.5223 13.9104C11.5267 13.9037 11.5312 13.897 11.5353 13.8904C11.5388 13.8836 11.543 13.8769 11.5459 13.8705C11.5478 13.8677 11.5506 13.8656 11.5538 13.8646C11.5571 13.8635 11.5605 13.8636 11.5637 13.8647C11.5718 13.8669 11.5741 13.8741 11.572 13.8823C11.5687 13.89 11.5645 13.897 11.5605 13.9047C11.5561 13.9121 11.5513 13.9194 11.5466 13.9268C11.511 13.9774 11.4694 14.0234 11.4229 14.0641C11.3348 14.1415 11.2396 14.2102 11.1384 14.2694C11.0046 14.3474 10.8664 14.4179 10.7247 14.4804L10.6069 14.5299L10.5469 14.555L10.4856 14.5785L10.3613 14.6258C10.3194 14.641 10.2765 14.6544 10.2339 14.6689L10.1698 14.6903L10.1377 14.7009C10.1269 14.7042 10.116 14.7071 10.1052 14.7101L9.97526 14.7463C9.95363 14.7521 9.93221 14.7586 9.91053 14.7639L9.84558 14.7789L9.71711 14.8086C9.67462 14.8178 9.63212 14.825 9.59044 14.8332C9.54865 14.8408 9.50766 14.8497 9.46698 14.8559L9.34728 14.8744C9.3082 14.8805 9.26997 14.8865 9.23252 14.8906C9.08306 14.9101 8.94898 14.9226 8.83955 14.931L8.69496 14.9408L8.594 14.9452C8.18371 14.9623 7.88555 14.9282 7.88709 14.9117C7.88813 14.8971 8.19545 14.9035 8.59159 14.8866Z" fill="white"/>
</g>
</g>
<path d="M3.2838 2.85572L3.25565 2.80933C3.24581 2.79005 3.23316 2.76843 3.22145 2.74286C3.19288 2.67952 3.17027 2.61365 3.15392 2.5461C3.13111 2.45183 3.11632 2.35579 3.10971 2.25902C3.10764 2.23125 3.10615 2.20251 3.10524 2.17279C3.10507 2.16536 3.10488 2.15786 3.1047 2.1503L3.10461 2.14549V2.14466L3.10477 2.14096C3.10479 2.14065 3.10479 2.14033 3.10477 2.14001L3.10416 2.14061L3.10287 2.1419L3.10149 2.14337C3.10063 2.1443 3.10249 2.14212 3.0949 2.15069C3.07292 2.17528 3.05081 2.20097 3.02811 2.22752C2.96838 2.29744 2.90461 2.3763 2.8401 2.46197C2.77558 2.54763 2.7105 2.64009 2.64933 2.73774C2.61796 2.78609 2.58954 2.83686 2.56047 2.8874L2.51979 2.96478C2.51276 2.97756 2.50661 2.99076 2.5006 3.00398L2.48224 3.04354C2.4356 3.14748 2.39708 3.25488 2.36704 3.36478C2.33717 3.47141 2.31348 3.57501 2.29484 3.67131C2.27679 3.76772 2.26313 3.85668 2.25304 3.93434C2.23349 4.08976 2.22691 4.19956 2.22503 4.23452L2.22269 4.28361C2.22219 4.28709 2.22041 4.29027 2.21771 4.29252C2.215 4.29477 2.21156 4.29594 2.20804 4.2958C2.20446 4.29591 2.20098 4.29459 2.19837 4.29215C2.19575 4.2897 2.19421 4.28632 2.19407 4.28274C2.19438 4.26724 2.19507 4.25041 2.1958 4.23306C2.19756 4.19456 2.20313 4.08234 2.22159 3.92505C2.23091 3.84642 2.24402 3.75663 2.26134 3.65933C2.279 3.5621 2.30215 3.45759 2.33128 3.34979C2.36061 3.23806 2.3987 3.12883 2.44523 3.0231L2.46345 2.98276L2.47258 2.96257L2.48265 2.94286L2.52302 2.86404C2.55197 2.81276 2.58017 2.76108 2.61132 2.71198C2.6721 2.61282 2.73641 2.51873 2.80071 2.43199C2.86501 2.34524 2.92819 2.26494 2.98777 2.19357C3.01039 2.16678 3.03249 2.14082 3.0544 2.11591L3.06439 2.10458L3.07996 2.08742L3.11085 2.05341L3.14121 2.02072L3.15637 2.00447L3.16 2.00066L3.1617 1.99895C3.16177 1.99983 3.16177 2.00073 3.1617 2.00161L3.16129 2.01351C3.16038 2.04499 3.15861 2.07765 3.159 2.10632C3.159 2.11369 3.159 2.12102 3.159 2.1283V2.13925L3.15919 2.14757C3.15942 2.15487 3.15964 2.16211 3.15985 2.1693C3.16091 2.19805 3.1625 2.22589 3.16463 2.25282C3.17147 2.34617 3.18618 2.43877 3.20859 2.52965C3.22433 2.59385 3.24605 2.65644 3.27346 2.71659C3.27837 2.72899 3.28498 2.73952 3.29028 2.74994L3.30569 2.77891L3.33354 2.8248C3.38733 2.91133 3.44335 2.98892 3.49415 3.05779C3.54517 3.12665 3.59177 3.18673 3.63051 3.23655C3.70817 3.33619 3.75427 3.3957 3.74827 3.40131C3.74281 3.40645 3.6838 3.35458 3.59648 3.25992C3.55289 3.21255 3.50229 3.15442 3.44849 3.0868C3.38926 3.01295 3.33428 2.9358 3.2838 2.85572V2.85572Z" fill="url(#paint21_linear)"/>
<path d="M4.0053 9.05886C4.00011 9.03572 3.99549 9.00415 3.98868 8.9658C3.985 8.94668 3.98239 8.92558 3.97981 8.90279L3.97102 8.82986C3.96016 8.70482 3.96061 8.57904 3.97234 8.45408C3.98625 8.29845 4.01652 8.14472 4.06263 7.99544C4.08792 7.91445 4.12021 7.83582 4.15915 7.76044C4.23856 7.60717 4.3501 7.47286 4.48617 7.36665L4.53637 7.32876C4.55312 7.31635 4.57082 7.30551 4.58785 7.29392L4.6135 7.27687C4.62213 7.27139 4.63109 7.26646 4.63976 7.26124L4.6919 7.23063C4.82316 7.16173 4.96613 7.11792 5.11346 7.10143C5.22278 7.08902 5.33302 7.08683 5.44276 7.09488C5.52826 7.10107 5.58636 7.11055 5.60954 7.11423C5.6253 7.11694 5.64072 7.11959 5.65537 7.12271C5.65871 7.12383 5.66152 7.12613 5.66327 7.12917C5.66503 7.13222 5.66562 7.1358 5.66493 7.13925C5.66424 7.1427 5.66231 7.14577 5.65952 7.1479C5.65672 7.15003 5.65324 7.15107 5.64973 7.15081C5.63593 7.14813 5.6206 7.14569 5.60488 7.14317C5.5801 7.13944 5.52136 7.13068 5.43637 7.12567C5.32824 7.11916 5.21975 7.12277 5.1123 7.13645C4.97033 7.15457 4.83297 7.19897 4.70727 7.26739C4.67412 7.28779 4.63941 7.30687 4.60697 7.33017C4.59067 7.34165 4.5734 7.35206 4.55763 7.36462L4.50955 7.4017C4.38047 7.50525 4.27514 7.63533 4.20071 7.78313C4.16409 7.8561 4.13384 7.93209 4.11029 8.01025C4.0669 8.15596 4.03887 8.30581 4.02666 8.45734C4.01625 8.57873 4.01671 8.7008 4.02804 8.8221L4.03699 8.8933C4.03973 8.91553 4.04222 8.93622 4.04596 8.95502C4.05287 8.99269 4.05752 9.02388 4.06269 9.04709C4.08195 9.14018 4.1046 9.22586 4.12717 9.30219C4.15068 9.37813 4.17281 9.44508 4.19344 9.49991C4.23342 9.61018 4.26181 9.67387 4.25449 9.67798C4.24814 9.6817 4.20506 9.62146 4.15405 9.51218C4.12396 9.44779 4.09744 9.3818 4.07461 9.3145C4.06203 9.27612 4.04858 9.23572 4.03747 9.19279C4.02505 9.15031 4.01563 9.10511 4.0053 9.05886Z" fill="url(#paint22_linear)"/>
<defs>
<linearGradient id="paint0_linear" x1="11.8305" y1="5.57275" x2="14.7697" y2="5.70397" gradientUnits="userSpaceOnUse">
<stop offset="0" stop-color="#0083FF"/>
<stop offset="0.176" stop-color="#0096F6"/>
<stop offset="0.508" stop-color="#00B3E6"/>
<stop offset="0.794" stop-color="#00C6DD"/>
<stop offset="0.999" stop-color="#00CCDA"/>
</linearGradient>
<linearGradient id="paint1_linear" x1="8.92244" y1="11.1886" x2="6.11731" y2="2.01245" gradientUnits="userSpaceOnUse">
<stop offset="0" stop-color="#000F40" stop-opacity="0.6"/>
<stop offset="0.611" stop-color="#000F40" stop-opacity="0.182"/>
<stop offset="1" stop-color="#000F40" stop-opacity="0"/>
</linearGradient>
<linearGradient id="paint2_linear" x1="8.92245" y1="11.1886" x2="6.11731" y2="2.01245" gradientUnits="userSpaceOnUse">
<stop offset="0" stop-color="#000F43" stop-opacity="0.4"/>
<stop offset="0.485" stop-color="#001962" stop-opacity="0.173"/>
<stop offset="1" stop-color="#002079" stop-opacity="0"/>
</linearGradient>
<linearGradient id="paint3_linear" x1="14.7687" y1="12.1337" x2="12.7263" y2="11.7671" gradientUnits="userSpaceOnUse">
<stop offset="0" stop-color="#002275"/>
<stop offset="1" stop-color="#005FE7"/>
</linearGradient>
<linearGradient id="paint4_linear" x1="13.5484" y1="9.03227" x2="15.6787" y2="7.2241" gradientUnits="userSpaceOnUse">
<stop offset="0.049" stop-color="#005FE7"/>
<stop offset="0.187" stop-color="#005CE1"/>
<stop offset="0.378" stop-color="#0052CF"/>
<stop offset="0.599" stop-color="#0043B2"/>
<stop offset="0.84" stop-color="#002D8A"/>
<stop offset="0.951" stop-color="#002275"/>
</linearGradient>
<linearGradient id="paint5_linear" x1="9.48834" y1="13.4537" x2="13.6115" y2="13.8795" gradientUnits="userSpaceOnUse">
<stop offset="0" stop-color="#002079"/>
<stop offset="0.995" stop-color="#000F40"/>
</linearGradient>
<radialGradient id="paint6_radial" cx="0" cy="0" r="1" gradientUnits="userSpaceOnUse" gradientTransform="translate(9.55889 6.14776) scale(11.0128)">
<stop offset="0.156" stop-color="#58C1FF"/>
<stop offset="0.241" stop-color="#4CB8FF"/>
<stop offset="0.394" stop-color="#2EA0FF"/>
<stop offset="0.541" stop-color="#0A84FF"/>
<stop offset="0.763" stop-color="#0060DF"/>
<stop offset="0.798" stop-color="#0067DE"/>
<stop offset="0.85" stop-color="#007BDD"/>
<stop offset="0.913" stop-color="#009CDA"/>
<stop offset="0.982" stop-color="#00C8D7"/>
</radialGradient>
<linearGradient id="paint7_linear" x1="12.5581" y1="-0.502869" x2="11.2831" y2="13.8281" gradientUnits="userSpaceOnUse">
<stop offset="0" stop-color="#00FEFF"/>
<stop offset="0.298" stop-color="#04C9FF"/>
<stop offset="0.613" stop-color="#0897FF"/>
<stop offset="0.769" stop-color="#0A84FF"/>
<stop offset="0.791" stop-color="#0A84FF" stop-opacity="0.934"/>
<stop offset="0.837" stop-color="#0A84FF" stop-opacity="0.763"/>
<stop offset="0.9" stop-color="#0A84FF" stop-opacity="0.487"/>
<stop offset="0.978" stop-color="#0A84FF" stop-opacity="0.111"/>
<stop offset="1" stop-color="#0A84FF" stop-opacity="0"/>
</linearGradient>
<linearGradient id="paint8_linear" x1="5.39311" y1="5.18939" x2="7.83068" y2="5.43535" gradientUnits="userSpaceOnUse">
<stop offset="0" stop-color="#003EAA"/>
<stop offset="0.296" stop-color="#0054C5" stop-opacity="0.683"/>
<stop offset="0.779" stop-color="#0076EF" stop-opacity="0.194"/>
<stop offset="1" stop-color="#0083FF" stop-opacity="0"/>
</linearGradient>
<linearGradient id="paint9_linear" x1="9.10923" y1="5.42183" x2="6.25164" y2="5.37786" gradientUnits="userSpaceOnUse">
<stop offset="0" stop-color="#00FEFF" stop-opacity="0.25"/>
<stop offset="0.541" stop-color="#2DDFFF" stop-opacity="0.122"/>
<stop offset="1" stop-color="#58C1FF" stop-opacity="0"/>
</linearGradient>
<linearGradient id="paint10_linear" x1="3.39558" y1="5.06536" x2="2.04678" y2="1.221" gradientUnits="userSpaceOnUse">
<stop offset="0.19" stop-color="#002275" stop-opacity="0.7"/>
<stop offset="0.633" stop-color="#009DC2" stop-opacity="0.364"/>
<stop offset="0.944" stop-color="#00FEFF" stop-opacity="0.1"/>
</linearGradient>
<linearGradient id="paint11_linear" x1="4.23062" y1="7.3755" x2="5.44608" y2="9.07181" gradientUnits="userSpaceOnUse">
<stop offset="0.003" stop-color="#002275" stop-opacity="0.8"/>
<stop offset="0.07" stop-color="#002479" stop-opacity="0.742"/>
<stop offset="0.947" stop-color="#003EAA" stop-opacity="0"/>
</linearGradient>
<linearGradient id="paint12_linear" x1="6.55811" y1="10.3097" x2="6.6371" y2="9.53083" gradientUnits="userSpaceOnUse">
<stop offset="0" stop-color="#002275" stop-opacity="0.6"/>
<stop offset="0.245" stop-color="#002275" stop-opacity="0.341"/>
<stop offset="0.486" stop-color="#002275" stop-opacity="0.152"/>
<stop offset="0.717" stop-color="#002275" stop-opacity="0.039"/>
<stop offset="0.926" stop-color="#002275" stop-opacity="0"/>
</linearGradient>
<linearGradient id="paint13_linear" x1="9.34244" y1="-0.644517" x2="13.8606" y2="9.45887" gradientUnits="userSpaceOnUse">
<stop offset="0" stop-color="#00FEFF"/>
<stop offset="0.283" stop-color="#03DFFF"/>
<stop offset="0.897" stop-color="#0992FF"/>
<stop offset="1" stop-color="#0A84FF"/>
</linearGradient>
<linearGradient id="paint14_linear" x1="10.977" y1="6.793" x2="8.85546" y2="12.4894" gradientUnits="userSpaceOnUse">
<stop offset="0" stop-color="#0060DF"/>
<stop offset="0.093" stop-color="#0067E5" stop-opacity="0.806"/>
<stop offset="0.211" stop-color="#006EEC" stop-opacity="0.594"/>
<stop offset="0.333" stop-color="#0075F2" stop-opacity="0.411"/>
<stop offset="0.456" stop-color="#007AF7" stop-opacity="0.262"/>
<stop offset="0.583" stop-color="#007EFA" stop-opacity="0.147"/>
<stop offset="0.713" stop-color="#0081FD" stop-opacity="0.065"/>
<stop offset="0.848" stop-color="#0082FE" stop-opacity="0.016"/>
<stop offset="1" stop-color="#0083FF" stop-opacity="0"/>
</linearGradient>
<linearGradient id="paint15_linear" x1="10.3776" y1="-0.00212131" x2="11.96" y2="13.3388" gradientUnits="userSpaceOnUse">
<stop offset="0" stop-color="#75FEFF"/>
<stop offset="0.283" stop-color="#5ADFFF"/>
<stop offset="0.897" stop-color="#1692FF"/>
<stop offset="1" stop-color="#0A84FF"/>
</linearGradient>
<linearGradient id="paint16_linear" x1="11.7784" y1="6.47238" x2="10.5696" y2="11.5713" gradientUnits="userSpaceOnUse">
<stop offset="0" stop-color="#9EE7FF"/>
<stop offset="0.144" stop-color="#8CDBFF" stop-opacity="0.879"/>
<stop offset="0.461" stop-color="#5EBDFF" stop-opacity="0.571"/>
<stop offset="0.924" stop-color="#168CFF" stop-opacity="0.083"/>
<stop offset="1" stop-color="#0A84FF" stop-opacity="0"/>
</linearGradient>
<linearGradient id="paint17_linear" x1="10.5095" y1="0.257069" x2="11.6169" y2="8.65483" gradientUnits="userSpaceOnUse">
<stop offset="0" stop-color="#00FEFF"/>
<stop offset="0.144" stop-color="#0BF7FF" stop-opacity="0.879"/>
<stop offset="0.461" stop-color="#26E4FF" stop-opacity="0.571"/>
<stop offset="0.924" stop-color="#51C6FF" stop-opacity="0.083"/>
<stop offset="1" stop-color="#58C1FF" stop-opacity="0"/>
</linearGradient>
<linearGradient id="paint18_linear" x1="10.7118" y1="0.76288" x2="16.5458" y2="9.88395" gradientUnits="userSpaceOnUse">
<stop offset="0" stop-color="#00FEFF"/>
<stop offset="0.144" stop-color="#01EFFF" stop-opacity="0.879"/>
<stop offset="0.461" stop-color="#04CAFF" stop-opacity="0.571"/>
<stop offset="0.924" stop-color="#098EFF" stop-opacity="0.083"/>
<stop offset="1" stop-color="#0A84FF" stop-opacity="0"/>
</linearGradient>
<linearGradient id="paint19_linear" x1="2569.31" y1="2399.61" x2="721.844" y2="3308.48" gradientUnits="userSpaceOnUse">
<stop offset="0" stop-color="#9EE7FF"/>
<stop offset="0.144" stop-color="#8CDBFF" stop-opacity="0.879"/>
<stop offset="0.461" stop-color="#5EBDFF" stop-opacity="0.571"/>
<stop offset="0.924" stop-color="#168CFF" stop-opacity="0.083"/>
<stop offset="1" stop-color="#0A84FF" stop-opacity="0"/>
</linearGradient>
<linearGradient id="paint20_linear" x1="2496.57" y1="914.595" x2="1249.05" y2="2455.63" gradientUnits="userSpaceOnUse">
<stop offset="0" stop-color="#00FEFF"/>
<stop offset="0.144" stop-color="#01EFFF" stop-opacity="0.879"/>
<stop offset="0.461" stop-color="#04CAFF" stop-opacity="0.571"/>
<stop offset="0.924" stop-color="#098EFF" stop-opacity="0.083"/>
<stop offset="1" stop-color="#0A84FF" stop-opacity="0"/>
</linearGradient>
<linearGradient id="paint21_linear" x1="285.2" y1="297.247" x2="234.383" y2="596.505" gradientUnits="userSpaceOnUse">
<stop offset="0" stop-color="#00FEFF"/>
<stop offset="0.144" stop-color="#01EFFF" stop-opacity="0.879"/>
<stop offset="0.461" stop-color="#04CAFF" stop-opacity="0.571"/>
<stop offset="0.924" stop-color="#098EFF" stop-opacity="0.083"/>
<stop offset="1" stop-color="#0A84FF" stop-opacity="0"/>
</linearGradient>
<linearGradient id="paint22_linear" x1="563.721" y1="1106.79" x2="261.327" y2="1504.53" gradientUnits="userSpaceOnUse">
<stop offset="0" stop-color="#00FEFF"/>
<stop offset="0.144" stop-color="#01EFFF" stop-opacity="0.879"/>
<stop offset="0.461" stop-color="#04CAFF" stop-opacity="0.571"/>
<stop offset="0.924" stop-color="#098EFF" stop-opacity="0.083"/>
<stop offset="1" stop-color="#0A84FF" stop-opacity="0"/>
</linearGradient>
</defs>
</svg>
