<svg xmlns="http://www.w3.org/2000/svg" width="16" height="16" viewBox="0 0 16 16" version="1.1">
<defs>
<linearGradient id="linear0" gradientUnits="userSpaceOnUse" x1="0.8725" y1="0.155" x2="0.094" y2="0.931" gradientTransform="matrix(14.945312,0,0,15.5,0.5,0)">
<stop offset="0.05" style="stop-color:rgb(100%,95.686275%,30.980392%);stop-opacity:1;"/>
<stop offset="0.37" style="stop-color:rgb(100%,59.607843%,5.490196%);stop-opacity:1;"/>
<stop offset="0.53" style="stop-color:rgb(100%,21.176471%,27.843137%);stop-opacity:1;"/>
<stop offset="0.7" style="stop-color:rgb(89.019608%,8.235294%,52.941176%);stop-opacity:1;"/>
</linearGradient>
<radialGradient id="radial0" gradientUnits="userSpaceOnUse" cx="0.874" cy="-0.129" fx="0.874" fy="-0.129" r="1.28" gradientTransform="matrix(14.945312,0,0,12.203125,0.5,3.296875)">
<stop offset="0.13" style="stop-color:rgb(100%,74.117647%,30.980392%);stop-opacity:1;"/>
<stop offset="0.28" style="stop-color:rgb(100%,59.607843%,5.490196%);stop-opacity:1;"/>
<stop offset="0.47" style="stop-color:rgb(100%,21.568627%,31.372549%);stop-opacity:1;"/>
<stop offset="0.78" style="stop-color:rgb(92.156863%,3.137255%,47.058824%);stop-opacity:1;"/>
<stop offset="0.86" style="stop-color:rgb(89.803922%,0%,50.196078%);stop-opacity:1;"/>
</radialGradient>
<radialGradient id="radial1" gradientUnits="userSpaceOnUse" cx="0.49" cy="0.4" fx="0.49" fy="0.4" r="1.28" gradientTransform="matrix(14.945312,0,0,12.203125,0.5,3.296875)">
<stop offset="0.3" style="stop-color:rgb(58.823529%,5.490196%,9.411765%);stop-opacity:1;"/>
<stop offset="0.35" style="stop-color:rgb(69.411765%,9.803922%,15.294118%);stop-opacity:0.741176;"/>
<stop offset="0.43" style="stop-color:rgb(85.882353%,16.078431%,23.921569%);stop-opacity:0.341176;"/>
<stop offset="0.5" style="stop-color:rgb(96.078431%,20%,29.411765%);stop-opacity:0.0901961;"/>
<stop offset="0.53" style="stop-color:rgb(100%,21.568627%,31.372549%);stop-opacity:0;"/>
</radialGradient>
<radialGradient id="radial2" gradientUnits="userSpaceOnUse" cx="0.48" cy="-0.12" fx="0.48" fy="-0.12" r="1.4" gradientTransform="matrix(3.601562,0,0,6.117188,7.753906,0)">
<stop offset="0.13" style="stop-color:rgb(100%,95.686275%,30.980392%);stop-opacity:1;"/>
<stop offset="0.53" style="stop-color:rgb(100%,59.607843%,5.490196%);stop-opacity:1;"/>
</radialGradient>
<radialGradient id="radial3" gradientUnits="userSpaceOnUse" cx="0.2276" cy="1.1011" fx="0.2276" fy="1.1011" r="1" gradientTransform="matrix(6.667969,0,0,7.304688,4.640625,4.160156)">
<stop offset="0.35" style="stop-color:rgb(22.745098%,55.686275%,90.196078%);stop-opacity:1;"/>
<stop offset="0.67" style="stop-color:rgb(56.470588%,34.901961%,100%);stop-opacity:1;"/>
<stop offset="1" style="stop-color:rgb(75.686275%,22.352941%,90.196078%);stop-opacity:1;"/>
</radialGradient>
<radialGradient id="radial4" gradientUnits="userSpaceOnUse" cx="0.52" cy="0.33" fx="0.52" fy="0.33" r="0.59" gradientTransform="matrix(6.001172,0,0,7.304688,4.640625,4.160156)">
<stop offset="0.21" style="stop-color:rgb(56.470588%,34.901961%,100%);stop-opacity:0;"/>
<stop offset="0.97" style="stop-color:rgb(43.137255%,0%,54.509804%);stop-opacity:0.6;"/>
</radialGradient>
<radialGradient id="radial5" gradientUnits="userSpaceOnUse" cx="2.1" cy="-1" fx="2.1" fy="-1" r="2.9" gradientTransform="matrix(1.828125,0,0,1.835938,3.664062,2.988281)">
<stop offset="0.1" style="stop-color:rgb(100%,88.627451%,14.901961%);stop-opacity:1;"/>
<stop offset="0.79" style="stop-color:rgb(100%,44.313725%,22.352941%);stop-opacity:1;"/>
</radialGradient>
<radialGradient id="radial6" gradientUnits="userSpaceOnUse" cx="0.84" cy="-0.41" fx="0.84" fy="-0.41" r="1.8" gradientTransform="matrix(13.644531,0,0,11.804688,0.570313,2.503906)">
<stop offset="0.11" style="stop-color:rgb(100%,95.686275%,30.980392%);stop-opacity:1;"/>
<stop offset="0.46" style="stop-color:rgb(100%,59.607843%,5.490196%);stop-opacity:1;"/>
<stop offset="0.72" style="stop-color:rgb(100%,21.176471%,27.843137%);stop-opacity:1;"/>
<stop offset="0.9" style="stop-color:rgb(89.019608%,8.235294%,52.941176%);stop-opacity:1;"/>
</radialGradient>
<radialGradient id="radial7" gradientUnits="userSpaceOnUse" cx="0.161" cy="-0.186" fx="0.161" fy="-0.186" r="3.488" gradientTransform="matrix(4.703125,0,0,10.152344,9.511719,0)">
<stop offset="0" style="stop-color:rgb(100%,95.686275%,30.980392%);stop-opacity:1;"/>
<stop offset="0.3" style="stop-color:rgb(100%,59.607843%,5.490196%);stop-opacity:1;"/>
<stop offset="0.57" style="stop-color:rgb(100%,21.176471%,27.843137%);stop-opacity:1;"/>
<stop offset="0.74" style="stop-color:rgb(89.019608%,8.235294%,52.941176%);stop-opacity:1;"/>
</radialGradient>
<radialGradient id="radial8" gradientUnits="userSpaceOnUse" cx="0.189" cy="-0.425" fx="0.189" fy="-0.425" r="2.384" gradientTransform="matrix(6.097656,0,0,5.960938,6.40625,5.640625)">
<stop offset="0.14" style="stop-color:rgb(100%,95.686275%,30.980392%);stop-opacity:1;"/>
<stop offset="0.48" style="stop-color:rgb(100%,59.607843%,5.490196%);stop-opacity:1;"/>
<stop offset="0.66" style="stop-color:rgb(100%,21.176471%,27.843137%);stop-opacity:1;"/>
<stop offset="0.9" style="stop-color:rgb(89.019608%,8.235294%,52.941176%);stop-opacity:1;"/>
</radialGradient>
<radialGradient id="radial9" gradientUnits="userSpaceOnUse" cx="1.593" cy="-0.4472" fx="1.593" fy="-0.4472" r="3.131" gradientTransform="matrix(5.582031,0,0,4.691406,2.441406,6.4375)">
<stop offset="0.09" style="stop-color:rgb(100%,95.686275%,30.980392%);stop-opacity:1;"/>
<stop offset="0.63" style="stop-color:rgb(100%,59.607843%,5.490196%);stop-opacity:1;"/>
</radialGradient>
<linearGradient id="linear1" gradientUnits="userSpaceOnUse" x1="0.8" y1="0.14" x2="0.18" y2="0.84" gradientTransform="matrix(14.945312,0,0,15.5,0.5,0)">
<stop offset="0.17" style="stop-color:rgb(100%,95.686275%,30.980392%);stop-opacity:0.8;"/>
<stop offset="0.6" style="stop-color:rgb(100%,95.686275%,30.980392%);stop-opacity:0;"/>
</linearGradient>
</defs>
<g id="surface1">
<path style=" stroke:none;fill-rule:nonzero;fill:url(#linear0);" d="M 14.960938 5.199219 C 14.632812 4.414062 13.972656 3.566406 13.453125 3.296875 C 13.875 4.125 14.121094 4.957031 14.214844 5.578125 C 14.214844 5.578125 14.214844 5.582031 14.214844 5.589844 C 13.367188 3.472656 11.925781 2.621094 10.75 0.761719 C 10.691406 0.667969 10.632812 0.574219 10.574219 0.472656 C 10.542969 0.421875 10.515625 0.371094 10.492188 0.316406 C 10.441406 0.222656 10.402344 0.125 10.378906 0.0195312 C 10.378906 0.0117188 10.371094 0.00390625 10.359375 0 C 10.355469 0 10.351562 0 10.347656 0 C 10.347656 0 10.34375 0.00390625 10.34375 0.00390625 C 10.339844 0.00390625 10.339844 0.00390625 10.335938 0.0078125 C 10.339844 0.00390625 10.339844 0.00390625 10.339844 0 C 8.453125 1.105469 7.8125 3.152344 7.753906 4.171875 C 7.003906 4.226562 6.28125 4.503906 5.6875 4.96875 C 5.625 4.917969 5.5625 4.867188 5.492188 4.824219 C 5.324219 4.222656 5.316406 3.589844 5.472656 2.988281 C 4.703125 3.339844 4.101562 3.894531 3.664062 4.382812 L 3.660156 4.382812 C 3.363281 4.007812 3.386719 2.761719 3.402344 2.503906 C 3.398438 2.488281 3.179688 2.617188 3.152344 2.636719 C 2.886719 2.824219 2.644531 3.035156 2.417969 3.265625 C 2.160156 3.527344 1.925781 3.808594 1.714844 4.105469 C 1.714844 4.105469 1.714844 4.105469 1.714844 4.109375 C 1.714844 4.105469 1.714844 4.105469 1.714844 4.105469 C 1.234375 4.789062 0.890625 5.5625 0.707031 6.382812 C 0.703125 6.398438 0.703125 6.414062 0.699219 6.429688 C 0.683594 6.496094 0.632812 6.828125 0.625 6.898438 C 0.625 6.90625 0.625 6.910156 0.621094 6.917969 C 0.558594 7.257812 0.515625 7.605469 0.5 7.953125 C 0.5 7.964844 0.5 7.976562 0.5 7.992188 C 0.5 12.136719 3.863281 15.5 8.011719 15.5 C 11.726562 15.5 14.808594 12.804688 15.414062 9.261719 C 15.425781 9.164062 15.4375 9.070312 15.445312 8.972656 C 15.597656 7.683594 15.429688 6.332031 14.960938 5.199219 Z M 6.304688 11.078125 C 6.339844 11.09375 6.371094 11.113281 6.40625 11.128906 C 6.410156 11.128906 6.410156 11.128906 6.414062 11.128906 C 6.375 11.113281 6.339844 11.09375 6.304688 11.078125 Z M 8.023438 6.546875 Z M 14.214844 5.589844 L 14.214844 5.585938 C 14.214844 5.585938 14.214844 5.589844 14.214844 5.59375 Z M 14.214844 5.589844 "/>
<path style=" stroke:none;fill-rule:nonzero;fill:url(#radial0);" d="M 14.960938 5.199219 C 14.632812 4.414062 13.972656 3.566406 13.453125 3.296875 C 13.875 4.125 14.121094 4.957031 14.214844 5.578125 C 14.214844 5.574219 14.214844 5.578125 14.214844 5.585938 C 14.214844 5.585938 14.214844 5.589844 14.214844 5.59375 C 14.925781 7.511719 14.539062 9.464844 13.980469 10.660156 C 13.121094 12.507812 11.039062 14.398438 7.777344 14.308594 C 4.253906 14.207031 1.148438 11.59375 0.570312 8.167969 C 0.464844 7.628906 0.570312 7.355469 0.621094 6.917969 C 0.558594 7.253906 0.535156 7.351562 0.5 7.953125 C 0.5 7.964844 0.5 7.976562 0.5 7.992188 C 0.5 12.136719 3.863281 15.5 8.011719 15.5 C 11.726562 15.5 14.808594 12.804688 15.414062 9.261719 C 15.425781 9.164062 15.4375 9.070312 15.445312 8.972656 C 15.597656 7.683594 15.429688 6.332031 14.960938 5.199219 Z M 14.960938 5.199219 "/>
<path style=" stroke:none;fill-rule:nonzero;fill:url(#radial1);" d="M 14.960938 5.199219 C 14.632812 4.414062 13.972656 3.566406 13.453125 3.296875 C 13.875 4.125 14.121094 4.957031 14.214844 5.578125 C 14.214844 5.574219 14.214844 5.578125 14.214844 5.585938 C 14.214844 5.585938 14.214844 5.589844 14.214844 5.59375 C 14.925781 7.511719 14.539062 9.464844 13.980469 10.660156 C 13.121094 12.507812 11.039062 14.398438 7.777344 14.308594 C 4.253906 14.207031 1.148438 11.59375 0.570312 8.167969 C 0.464844 7.628906 0.570312 7.355469 0.621094 6.917969 C 0.558594 7.253906 0.535156 7.351562 0.5 7.953125 C 0.5 7.964844 0.5 7.976562 0.5 7.992188 C 0.5 12.136719 3.863281 15.5 8.011719 15.5 C 11.726562 15.5 14.808594 12.804688 15.414062 9.261719 C 15.425781 9.164062 15.4375 9.070312 15.445312 8.972656 C 15.597656 7.683594 15.429688 6.332031 14.960938 5.199219 Z M 14.960938 5.199219 "/>
<path style=" stroke:none;fill-rule:nonzero;fill:url(#radial2);" d="M 11.308594 6.082031 C 11.328125 6.09375 11.339844 6.105469 11.355469 6.117188 C 11.167969 5.78125 10.933594 5.476562 10.660156 5.207031 C 8.324219 2.871094 10.046875 0.144531 10.335938 0.0078125 C 10.339844 0.00390625 10.339844 0.00390625 10.339844 0 C 8.453125 1.105469 7.8125 3.152344 7.753906 4.171875 C 7.84375 4.167969 7.929688 4.160156 8.019531 4.160156 C 9.425781 4.160156 10.652344 4.933594 11.308594 6.082031 Z M 11.308594 6.082031 "/>
<path style=" stroke:none;fill-rule:nonzero;fill:url(#radial3);" d="M 8.023438 6.546875 C 8.011719 6.734375 7.351562 7.378906 7.121094 7.378906 C 4.984375 7.378906 4.640625 8.671875 4.640625 8.671875 C 4.734375 9.757812 5.492188 10.652344 6.40625 11.128906 C 6.449219 11.148438 6.492188 11.167969 6.535156 11.1875 C 6.605469 11.21875 6.679688 11.25 6.753906 11.277344 C 7.070312 11.390625 7.398438 11.453125 7.730469 11.464844 C 11.476562 11.640625 12.199219 6.992188 9.5 5.640625 C 10.191406 5.519531 10.910156 5.800781 11.308594 6.082031 C 10.652344 4.933594 9.425781 4.160156 8.019531 4.160156 C 7.929688 4.160156 7.84375 4.167969 7.753906 4.171875 C 7.003906 4.226562 6.28125 4.503906 5.6875 4.96875 C 5.804688 5.066406 5.933594 5.195312 6.203125 5.464844 C 6.714844 5.964844 8.019531 6.484375 8.023438 6.546875 Z M 8.023438 6.546875 "/>
<path style=" stroke:none;fill-rule:nonzero;fill:url(#radial4);" d="M 8.023438 6.546875 C 8.011719 6.734375 7.351562 7.378906 7.121094 7.378906 C 4.984375 7.378906 4.640625 8.671875 4.640625 8.671875 C 4.734375 9.757812 5.492188 10.652344 6.40625 11.128906 C 6.449219 11.148438 6.492188 11.167969 6.535156 11.1875 C 6.605469 11.21875 6.679688 11.25 6.753906 11.277344 C 7.070312 11.390625 7.398438 11.453125 7.730469 11.464844 C 11.476562 11.640625 12.199219 6.992188 9.5 5.640625 C 10.191406 5.519531 10.910156 5.800781 11.308594 6.082031 C 10.652344 4.933594 9.425781 4.160156 8.019531 4.160156 C 7.929688 4.160156 7.84375 4.167969 7.753906 4.171875 C 7.003906 4.226562 6.28125 4.503906 5.6875 4.96875 C 5.804688 5.066406 5.933594 5.195312 6.203125 5.464844 C 6.714844 5.964844 8.019531 6.484375 8.023438 6.546875 Z M 8.023438 6.546875 "/>
<path style=" stroke:none;fill-rule:nonzero;fill:url(#radial5);" d="M 5.339844 4.71875 C 5.390625 4.753906 5.441406 4.789062 5.492188 4.824219 C 5.324219 4.222656 5.316406 3.589844 5.472656 2.988281 C 4.703125 3.339844 4.101562 3.894531 3.664062 4.382812 C 3.703125 4.382812 4.789062 4.363281 5.339844 4.71875 Z M 5.339844 4.71875 "/>
<path style=" stroke:none;fill-rule:nonzero;fill:url(#radial6);" d="M 0.570312 8.167969 C 1.148438 11.59375 4.253906 14.207031 7.777344 14.308594 C 11.039062 14.398438 13.121094 12.507812 13.980469 10.660156 C 14.539062 9.464844 14.925781 7.511719 14.214844 5.59375 L 14.214844 5.585938 C 14.214844 5.578125 14.214844 5.574219 14.214844 5.578125 C 14.214844 5.578125 14.214844 5.582031 14.214844 5.589844 C 14.480469 7.328125 13.597656 9.015625 12.214844 10.152344 L 12.210938 10.164062 C 9.515625 12.359375 6.933594 11.488281 6.414062 11.132812 C 6.375 11.113281 6.339844 11.09375 6.304688 11.078125 C 4.730469 10.324219 4.082031 8.894531 4.222656 7.667969 C 2.894531 7.667969 2.441406 6.546875 2.441406 6.546875 C 2.441406 6.546875 3.632812 5.699219 5.203125 6.4375 C 6.660156 7.121094 8.023438 6.546875 8.023438 6.546875 C 8.019531 6.488281 6.714844 5.964844 6.203125 5.464844 C 5.933594 5.195312 5.804688 5.066406 5.6875 4.96875 C 5.625 4.917969 5.5625 4.867188 5.492188 4.824219 C 5.441406 4.789062 5.390625 4.753906 5.339844 4.71875 C 4.789062 4.363281 3.703125 4.382812 3.664062 4.382812 L 3.660156 4.382812 C 3.363281 4.007812 3.386719 2.761719 3.402344 2.503906 C 3.398438 2.488281 3.179688 2.617188 3.152344 2.636719 C 2.886719 2.824219 2.644531 3.035156 2.417969 3.265625 C 2.160156 3.527344 1.925781 3.808594 1.714844 4.105469 C 1.714844 4.105469 1.714844 4.105469 1.714844 4.109375 C 1.714844 4.105469 1.714844 4.105469 1.714844 4.105469 C 1.234375 4.789062 0.890625 5.5625 0.707031 6.382812 C 0.703125 6.398438 0.4375 7.5625 0.570312 8.167969 Z M 0.570312 8.167969 "/>
<path style=" stroke:none;fill-rule:nonzero;fill:url(#radial7);" d="M 10.660156 5.207031 C 10.933594 5.476562 11.167969 5.78125 11.355469 6.117188 C 11.398438 6.148438 11.4375 6.175781 11.46875 6.207031 C 13.171875 7.777344 12.28125 9.996094 12.214844 10.152344 C 13.597656 9.015625 14.480469 7.328125 14.214844 5.589844 C 13.367188 3.472656 11.925781 2.621094 10.75 0.761719 C 10.691406 0.667969 10.632812 0.574219 10.574219 0.472656 C 10.542969 0.421875 10.515625 0.371094 10.492188 0.316406 C 10.441406 0.222656 10.402344 0.125 10.378906 0.0195312 C 10.378906 0.0117188 10.371094 0.00390625 10.359375 0 C 10.355469 0 10.351562 0 10.347656 0 C 10.347656 0 10.34375 0.00390625 10.34375 0.00390625 C 10.339844 0.00390625 10.339844 0.00390625 10.335938 0.0078125 C 10.046875 0.144531 8.324219 2.871094 10.660156 5.207031 Z M 10.660156 5.207031 "/>
<path style=" stroke:none;fill-rule:nonzero;fill:url(#radial8);" d="M 11.46875 6.207031 C 11.4375 6.175781 11.398438 6.148438 11.355469 6.117188 C 11.339844 6.105469 11.328125 6.09375 11.308594 6.082031 C 10.910156 5.800781 10.191406 5.519531 9.5 5.640625 C 12.199219 6.992188 11.476562 11.640625 7.730469 11.46875 C 7.398438 11.453125 7.070312 11.390625 6.753906 11.277344 C 6.679688 11.25 6.605469 11.21875 6.535156 11.1875 C 6.492188 11.167969 6.449219 11.148438 6.40625 11.128906 C 6.410156 11.128906 6.410156 11.128906 6.414062 11.132812 C 6.933594 11.488281 9.515625 12.359375 12.210938 10.164062 L 12.214844 10.152344 C 12.28125 9.996094 13.171875 7.777344 11.46875 6.207031 Z M 11.46875 6.207031 "/>
<path style=" stroke:none;fill-rule:nonzero;fill:url(#radial9);" d="M 4.640625 8.671875 C 4.640625 8.671875 4.984375 7.378906 7.121094 7.378906 C 7.351562 7.378906 8.011719 6.734375 8.023438 6.546875 C 8.035156 6.359375 6.660156 7.121094 5.203125 6.4375 C 3.632812 5.699219 2.441406 6.546875 2.441406 6.546875 C 2.441406 6.546875 2.894531 7.667969 4.222656 7.667969 C 4.082031 8.894531 4.730469 10.324219 6.304688 11.078125 C 6.339844 11.09375 6.371094 11.113281 6.40625 11.128906 C 5.492188 10.652344 4.734375 9.757812 4.640625 8.671875 Z M 4.640625 8.671875 "/>
<path style=" stroke:none;fill-rule:nonzero;fill:url(#linear1);" d="M 14.960938 5.199219 C 14.632812 4.414062 13.972656 3.566406 13.453125 3.296875 C 13.875 4.125 14.121094 4.957031 14.214844 5.578125 C 14.214844 5.578125 14.214844 5.582031 14.214844 5.589844 C 13.367188 3.472656 11.925781 2.621094 10.75 0.761719 C 10.691406 0.667969 10.632812 0.574219 10.574219 0.472656 C 10.542969 0.421875 10.515625 0.371094 10.492188 0.316406 C 10.441406 0.222656 10.402344 0.125 10.378906 0.0195312 C 10.378906 0.0117188 10.371094 0.00390625 10.359375 0 C 10.355469 0 10.351562 0 10.347656 0 C 10.347656 0 10.34375 0.00390625 10.34375 0.00390625 C 10.339844 0.00390625 10.339844 0.00390625 10.335938 0.0078125 C 10.339844 0.00390625 10.339844 0.00390625 10.339844 0 C 8.453125 1.105469 7.8125 3.152344 7.753906 4.171875 C 7.84375 4.167969 7.929688 4.160156 8.019531 4.160156 C 9.425781 4.160156 10.652344 4.933594 11.308594 6.082031 C 10.910156 5.800781 10.191406 5.519531 9.5 5.640625 C 12.199219 6.992188 11.476562 11.640625 7.730469 11.46875 C 7.398438 11.453125 7.070312 11.390625 6.753906 11.277344 C 6.679688 11.25 6.605469 11.21875 6.535156 11.1875 C 6.492188 11.167969 6.449219 11.148438 6.40625 11.128906 C 6.410156 11.128906 6.410156 11.128906 6.414062 11.132812 C 6.375 11.113281 6.339844 11.09375 6.304688 11.078125 C 6.339844 11.09375 6.371094 11.113281 6.40625 11.128906 C 5.492188 10.652344 4.734375 9.757812 4.636719 8.671875 C 4.636719 8.671875 4.984375 7.378906 7.121094 7.378906 C 7.351562 7.378906 8.011719 6.734375 8.023438 6.546875 C 8.019531 6.488281 6.714844 5.964844 6.203125 5.464844 C 5.933594 5.195312 5.804688 5.066406 5.6875 4.96875 C 5.625 4.917969 5.5625 4.867188 5.492188 4.824219 C 5.324219 4.222656 5.316406 3.589844 5.472656 2.988281 C 4.703125 3.339844 4.101562 3.894531 3.664062 4.382812 L 3.660156 4.382812 C 3.363281 4.007812 3.382812 2.761719 3.402344 2.503906 C 3.398438 2.488281 3.179688 2.617188 3.152344 2.636719 C 2.886719 2.824219 2.644531 3.035156 2.417969 3.265625 C 2.160156 3.527344 1.925781 3.808594 1.714844 4.105469 C 1.714844 4.105469 1.714844 4.105469 1.714844 4.109375 C 1.714844 4.105469 1.714844 4.105469 1.714844 4.105469 C 1.234375 4.789062 0.890625 5.5625 0.707031 6.382812 C 0.703125 6.398438 0.703125 6.414062 0.699219 6.429688 C 0.683594 6.496094 0.621094 6.832031 0.613281 6.90625 C 0.609375 6.910156 0.613281 6.898438 0.613281 6.90625 C 0.554688 7.25 0.515625 7.601562 0.5 7.953125 C 0.5 7.964844 0.5 7.976562 0.5 7.992188 C 0.5 12.136719 3.863281 15.5 8.011719 15.5 C 11.726562 15.5 14.808594 12.804688 15.414062 9.261719 C 15.425781 9.164062 15.4375 9.070312 15.445312 8.972656 C 15.597656 7.683594 15.429688 6.332031 14.960938 5.199219 Z M 14.214844 5.585938 C 14.214844 5.585938 14.214844 5.589844 14.214844 5.59375 Z M 14.214844 5.585938 "/>
</g>
</svg>
