<svg width="16" height="16" viewBox="0 0 16 16" fill="none" xmlns="http://www.w3.org/2000/svg">
<path fill-rule="evenodd" clip-rule="evenodd" d="M14 13V11H13V13H11V14H13V16H14V14H16V13H14Z" fill="#7F8B91" fill-opacity="0.9"/>
<path fill-rule="evenodd" clip-rule="evenodd" d="M7 13C10.3137 13 13 10.3137 13 7C13 3.68629 10.3137 1 7 1C3.68629 1 1 3.68629 1 7C1 10.3137 3.68629 13 7 13ZM7 11C5.34211 11 4 9.65789 4 8H10C10 9.65789 8.65789 11 7 11ZM5.00001 6C5.55229 6 6 5.55228 6 5C6 4.44772 5.55229 4 5.00001 4C4.44772 4 4 4.44772 4 5C4 5.55228 4.44772 6 5.00001 6ZM10 5C10 5.55228 9.55228 6 9 6C8.44772 6 8 5.55228 8 5C8 4.44772 8.44772 4 9 4C9.55228 4 10 4.44772 10 5Z" fill="#7F8B91" fill-opacity="0.9"/>
</svg>
