<!-- Copyright 2000-2022 JetBrains s.r.o. and contributors. Use of this source code is governed by the Apache 2.0 license. -->
<svg width="16" height="16" viewBox="0 0 16 16" fill="none" xmlns="http://www.w3.org/2000/svg">
<path fill-rule="evenodd" clip-rule="evenodd" d="M12.9497 12.9497C10.2161 15.6834 5.78392 15.6834 3.05025 12.9497C0.316583 10.2161 0.316582 5.78392 3.05025 3.05025C5.78392 0.316583 10.2161 0.316583 12.9497 3.05025C15.6834 5.78392 15.6834 10.2161 12.9497 12.9497ZM12.2426 12.2426C9.8995 14.5858 6.1005 14.5858 3.75736 12.2426C1.41421 9.8995 1.41421 6.1005 3.75736 3.75736C6.1005 1.41421 9.89949 1.41421 12.2426 3.75736C14.5858 6.1005 14.5858 9.8995 12.2426 12.2426ZM7 6C7 6.55228 6.55228 7 6 7C5.44772 7 5 6.55228 5 6C5 5.44772 5.44772 5 6 5C6.55228 5 7 5.44772 7 6ZM11 6C11 6.55228 10.5523 7 10 7C9.44772 7 9 6.55228 9 6C9 5.44772 9.44772 5 10 5C10.5523 5 11 5.44772 11 6ZM10 11C10.5523 11 11 10.5523 11 10C11 9.44772 10.5523 9 10 9C9.44772 9 9 9.44772 9 10C9 10.5523 9.44772 11 10 11ZM7 10C7 10.5523 6.55228 11 6 11C5.44772 11 5 10.5523 5 10C5 9.44772 5.44772 9 6 9C6.55228 9 7 9.44772 7 10Z" fill="#CED0D6"/>
</svg>
