<svg width="16" height="16" viewBox="0 0 16 16" fill="none" xmlns="http://www.w3.org/2000/svg">
<path d="M3.84141 3.22307C3.30993 4.0174 3 4.97251 3 6V11C3 13.2091 4.79086 15 7 15H9C11.2091 15 13 13.2091 13 11V6C13 4.97279 12.6902 4.01793 12.159 3.22372L12.9393 1.71258C13.036 1.52547 13.0005 1.29735 12.8516 1.14844C12.7027 0.999529 12.4745 0.964032 12.2874 1.06065L10.7763 1.84097C9.98207 1.30976 9.02721 1 8 1C6.97251 1 6.0174 1.30993 5.22307 1.84141L3.71657 1.06441C3.52939 0.967868 3.30127 1.00342 3.15234 1.15234C3.00342 1.30127 2.96787 1.52939 3.06441 1.71657L3.84141 3.22307Z" fill="#4682FA"/>
<path d="M7.5 4.75C7.5 5.7165 6.7165 6.5 5.75 6.5C4.7835 6.5 4 5.7165 4 4.75C4 3.7835 4.7835 3 5.75 3C6.7165 3 7.5 3.7835 7.5 4.75Z" fill="white"/>
<path d="M12 4.75C12 5.7165 11.2165 6.5 10.25 6.5C9.2835 6.5 8.5 5.7165 8.5 4.75C8.5 3.7835 9.2835 3 10.25 3C11.2165 3 12 3.7835 12 4.75Z" fill="white"/>
<path d="M9 7.5H7V8.5C7 8.77614 7.22386 9 7.5 9H8.5C8.77614 9 9 8.77614 9 8.5V7.5Z" fill="white"/>
<path d="M8 8.25C8.69036 8.25 9.25 7.91421 9.25 7.5C9.25 7.08579 8.69036 6.75 8 6.75C7.30964 6.75 6.75 7.08579 6.75 7.5C6.75 7.91421 7.30964 8.25 8 8.25Z" fill="#CCA18A"/>
<path d="M4.71409 14.2829C4.32586 14.0121 3.98791 13.6741 3.71708 13.2859L3.20649 13.7965C2.93117 14.0718 2.93117 14.5182 3.20649 14.7935C3.48181 15.0688 3.92819 15.0688 4.20351 14.7935L4.71409 14.2829Z" fill="#CCA18A"/>
<path d="M11.2859 14.2829C11.6741 14.0121 12.0121 13.6741 12.2829 13.2859L12.7935 13.7965C13.0688 14.0718 13.0688 14.5182 12.7935 14.7935C12.5182 15.0688 12.0718 15.0688 11.7965 14.7935L11.2859 14.2829Z" fill="#CCA18A"/>
<path d="M12.0016 8.99849L13.0016 9.99849C13.2769 10.2738 13.7233 10.2738 13.9986 9.99849C14.2739 9.72317 14.2739 9.27678 13.9986 9.00146L12.9986 8.00146L12.0016 8.99849Z" fill="#CCA18A"/>
<path d="M2.99843 9.99849L3.99843 8.99849L3.00141 8.00146L2.00141 9.00146C1.72609 9.27678 1.72609 9.72317 2.00141 9.99849C2.27673 10.2738 2.72311 10.2738 2.99843 9.99849Z" fill="#CCA18A"/>
<path d="M6.5 4.75C6.5 5.16421 6.16421 5.5 5.75 5.5C5.33579 5.5 5 5.16421 5 4.75C5 4.33579 5.33579 4 5.75 4C6.16421 4 6.5 4.33579 6.5 4.75Z" fill="black"/>
<path d="M11 4.75C11 5.16421 10.6642 5.5 10.25 5.5C9.83579 5.5 9.5 5.16421 9.5 4.75C9.5 4.33579 9.83579 4 10.25 4C10.6642 4 11 4.33579 11 4.75Z" fill="black"/>
<path d="M8.5 7.5C8.77614 7.5 9.00684 7.27302 8.94406 7.00411C8.80756 6.41937 8.43643 6 8 6C7.56357 6 7.19244 6.41937 7.05594 7.00411C6.99316 7.27302 7.22386 7.5 7.5 7.5H8.5Z" fill="black"/>
</svg>
