<svg width="16" height="16" viewBox="0 0 16 16" fill="none" xmlns="http://www.w3.org/2000/svg">
<g id="phpProject">
<rect id="Rectangle 2" y="3" width="16" height="10" rx="5" fill="#B99BF8" fill-opacity="0.7"/>
<g id="&#226;&#140;&#152;/alphabet/fileTypes/P">
<path id="&#226;&#140;&#152;/alphabet/P" fill-rule="evenodd" clip-rule="evenodd" d="M2.9 8.5C3.564 8.5 4 8.3844 4 7.75C4 7.1156 3.557 7 2.9 7H2V8.5H2.9ZM1 6H2.971C4.142 6 5 6.642 5 7.65C5 9.28583 3.971 9.5 2.872 9.5H2V11H1V6Z" fill="#231F20" fill-opacity="0.7"/>
</g>
<g id="&#226;&#140;&#152;/alphabet/fileTypes/P_2">
<path id="&#226;&#140;&#152;/alphabet/P_2" fill-rule="evenodd" clip-rule="evenodd" d="M12.9 8.5C13.564 8.5 14 8.3844 14 7.75C14 7.1156 13.557 7 12.9 7H12V8.5H12.9ZM11 6H12.971C14.142 6 15 6.642 15 7.65C15 9.28583 13.971 9.5 12.872 9.5H12V11H11V6Z" fill="#231F20" fill-opacity="0.7"/>
</g>
<g id="&#226;&#140;&#152;/alphabet/fileTypes/P_3">
<path id="&#226;&#140;&#152;/alphabet/H" fill-rule="evenodd" clip-rule="evenodd" d="M6 6H7V8H9V6H10V11H9V9H7V11H6V6Z" fill="#231F20" fill-opacity="0.7"/>
</g>
</g>
</svg>
