<svg xmlns="http://www.w3.org/2000/svg" width="16" height="16" viewBox="0 0 16 16">
  <path fill="#6E6E6E" d="M11.25,3 C10.1119995,3 9.18749999,3.896 9.18749999,5 C9.18749999,5.73779688 9.60443114,6.37596875 10.21875,6.72314063 L10.21875,7 C10.21875,7 10.21875,9 8.15624999,9 C7.30124706,9 6.63103124,9.17773438 6.09374999,9.4501875 L6.09374999,4.72314063 C6.70856835,4.37596875 7.12499999,3.73779687 7.12499999,3 C7.12499999,1.896 6.20099999,1 5.0625,1 C3.924,1 3,1.896 3,3 C3,3.73779688 3.41643164,4.37596875 4.03125,4.72314063 L4.03125,11.2773438 C3.41643164,11.6240313 3,12.2617188 3,13 C3,14.1035156 3.924,15 5.0625,15 C6.20099999,15 7.12499999,14.1035156 7.12499999,13 C7.12499999,12.4765625 6.91249804,12.0039062 6.57312011,11.6464844 C6.87322997,11.2890625 7.36115624,11 8.15624999,11 C12.2490234,11 12.28125,7 12.28125,7 L12.28125,6.72314063 C12.8955688,6.37596875 13.3125,5.73779688 13.3125,5 C13.3125,3.896 12.3880005,3 11.25,3 Z M5.0625,2 C5.63300683,2 6.09374999,2.44678125 6.09374999,3 C6.09374999,3.55321875 5.63300683,4 5.0625,4 C4.49199316,4 4.03125,3.55321875 4.03125,3 C4.03125,2.44678125 4.49199316,2 5.0625,2 Z M5.0625,14 C4.49199316,14 4.03125,13.5527344 4.03125,13 C4.03125,12.44825 4.49199316,12 5.0625,12 C5.63300683,12 6.09374999,12.44825 6.09374999,13 C6.09374999,13.5527344 5.63300683,14 5.0625,14 Z M11.25,6 C10.6799927,6 10.21875,5.55321875 10.21875,5 C10.21875,4.44678125 10.6799927,4 11.25,4 C11.8200073,4 12.28125,4.44678125 12.28125,5 C12.28125,5.55321875 11.8200073,6 11.25,6 Z"/>
</svg>
