<svg xmlns="http://www.w3.org/2000/svg" xmlns:xlink="http://www.w3.org/1999/xlink" width="40" height="40" viewBox="0 0 40 40">
  <defs>
    <polygon id="markdownsupport_dark-a" points="0 0 36 0 36 22 0 22"/>
  </defs>
  <g fill="none" fill-rule="evenodd" transform="translate(2 9)">
    <mask id="markdownsupport_dark-b" fill="#fff">
      <use xlink:href="#markdownsupport_dark-a"/>
    </mask>
    <path fill="#CBCBCB" d="M17.9746,20.2793 C23.0756,20.2793 28.1756,20.2723 33.2766,20.2883 C33.8186,20.2903 34.2766,19.9183 34.2746,19.2973 C34.2606,13.7473 34.2666,8.1983 34.2666,2.6483 C34.2666,2.0743 33.9136,1.7203 33.3386,1.7203 L2.6646,1.7203 C2.0866,1.7203 1.7336,2.0723 1.7336,2.6453 C1.7336,8.2173 1.7336,13.7913 1.7346,19.3633 C1.7346,19.9253 2.0896,20.2793 2.6496,20.2793 L17.9746,20.2793 Z M17.9886,22.0003 L2.6366,22.0003 C1.1486,22.0003 -0.0004,20.8573 -0.0004,19.3773 L-0.0004,2.6103 C-0.0004,1.1443 1.1516,0.0003 2.6246,0.0003 L33.3746,0.0003 C34.8476,0.0003 35.9996,1.1453 35.9996,2.6103 L35.9996,19.3783 C35.9996,20.8573 34.8506,22.0003 33.3626,22.0003 L17.9886,22.0003 Z" mask="url(#markdownsupport_dark-b)"/>
    <path fill="#CBCBCB" d="M19.0166 16.8311L15.5786 16.8311 15.5786 10.2151 15.5296 10.1971C14.3976 11.6021 13.2656 13.0071 12.1156 14.4341 10.9726 13.0161 9.8396 11.6101 8.6626 10.1491L8.6626 16.8271 5.2186 16.8271 5.2186 5.1741C5.2766 5.1701 5.3436 5.1621 5.4106 5.1621 6.4256 5.1611 7.4416 5.1641 8.4566 5.1571 8.6056 5.1561 8.6956 5.2041 8.7876 5.3181 9.8596 6.6591 10.9386 7.9951 12.0156 9.3321 12.0446 9.3681 12.0786 9.4001 12.1206 9.4461 12.5976 8.8541 13.0706 8.2691 13.5416 7.6841 14.1846 6.8851 14.8266 6.0841 15.4726 5.2891 15.5206 5.2301 15.6066 5.1671 15.6756 5.1671 16.7846 5.1591 17.8926 5.1611 19.0166 5.1611L19.0166 16.8311zM25.0869 5.1689L28.5459 5.1689 28.5459 11.1549 32.0309 11.1549C30.2719 13.0769 28.5569 14.9519 26.8269 16.8419 25.1049 14.9599 23.3909 13.0869 21.6419 11.1769L25.0869 11.1769 25.0869 5.1689z"/>
  </g>
</svg>
