<svg width="24" height="24" viewBox="0 0 40 40" fill="none" xmlns="http://www.w3.org/2000/svg">
    <g>
        <path d="M14.9387 22.973C14.8866 22.8847 14.8517 22.7862 14.8369 22.6829C14.8517 22.7862 14.8866 22.8847 14.9387 22.973Z"
              fill="#083042"/>
        <path d="M14.93 17.2261H14.93C14.8809 17.3432 14.8481 17.4688 14.8354 17.6002C14.8481 17.4688 14.8809 17.3432 14.93 17.2261Z"
              fill="#083042"/>
        <path d="M15.0649 23.1346C15.114 23.1829 15.1698 23.2252 15.2315 23.2599L19.4324 25.6327L15.2315 23.2599C15.1698 23.2252 15.114 23.1829 15.0649 23.1346Z"
              fill="#083042"/>
        <path d="M20.0785 28.6323C20.0673 28.6326 20.0561 28.6335 20.0449 28.6336C19.7378 28.6361 19.4297 28.5593 19.1532 28.4032L12.886 24.8632C12.5181 24.6562 12.2897 24.268 12.2856 23.8461L12.2855 16.6481C12.2824 16.3409 12.3431 16.0448 12.4678 15.7838L7.56776 13.0387C7.36146 13.4699 7.26099 13.9594 7.26605 14.4672L7.26622 26.3486C7.27299 27.0449 7.65006 27.6857 8.25736 28.0275L18.6023 33.8707C19.0587 34.1285 19.5672 34.2552 20.0741 34.2511L20.0743 34.2427C20.0858 33.5018 20.0822 30.5129 20.0785 28.6323Z"
              fill="#083042"/>
        <path d="M25.0053 17.0946V17.0946C24.9935 17.0751 24.9815 17.0558 24.9687 17.037C24.9401 16.9949 24.909 16.9544 24.8755 16.9158C24.909 16.9544 24.9401 16.9949 24.9687 17.037C24.9815 17.0558 24.9935 17.0751 25.0053 17.0946Z"
              fill="#3DDB85"/>
        <path d="M14.9875 17.1039C15.0132 17.0586 15.0419 17.0152 15.0737 16.9741C15.0419 17.0152 15.0132 17.0586 14.9875 17.1039Z"
              fill="#3DDB85"/>
        <path d="M19.8376 14.2168C19.8659 14.2146 19.8942 14.2131 19.9225 14.2128C19.8942 14.2131 19.8659 14.2146 19.8376 14.2168Z"
              fill="#3DDB85"/>
        <path d="M12.4684 15.7827C12.6027 15.5019 12.8111 15.2622 13.0949 15.0946L18.9948 11.6141C19.5437 11.2898 20.2237 11.2835 20.7789 11.597L26.7434 14.9658C27.0093 15.1161 27.2422 15.3284 27.4126 15.5796C27.4132 15.5806 27.4138 15.5816 27.4145 15.5826L32.2354 12.7035C31.9542 12.2888 31.5698 11.9384 31.1309 11.6902L21.2855 6.12956C20.3691 5.61215 19.2467 5.62248 18.3407 6.15785L8.60203 11.9029C8.13358 12.1796 7.78953 12.5753 7.56787 13.0387L12.4679 15.7838C12.4681 15.7835 12.4682 15.7831 12.4684 15.7827Z"
              fill="#3DDC84"/>
        <path d="M19.5925 14.2631C19.6052 14.2593 19.6178 14.2556 19.6305 14.2523C19.6178 14.2556 19.6052 14.2593 19.5925 14.2631Z"
              fill="#3DDB85"/>
        <path d="M14.9514 17.1731C14.9626 17.1496 14.9747 17.1265 14.9875 17.1039C14.9747 17.1265 14.9626 17.1496 14.9514 17.1731C14.9432 17.1902 14.9373 17.2086 14.9299 17.2261H14.9299C14.9373 17.2086 14.9432 17.1902 14.9514 17.1731Z"
              fill="#3DDB85"/>
        <path d="M32.2354 12.7035L27.4144 15.5826C27.5991 15.8548 27.7115 16.1714 27.7147 16.5021L27.7146 23.352C27.7204 23.9898 27.3862 24.5818 26.8373 24.9056L20.9374 28.3866C20.6721 28.5434 20.3761 28.6243 20.0786 28.6323C20.0823 30.5129 20.0859 33.5018 20.0743 34.2427L20.0742 34.2511C20.5839 34.247 21.0928 34.112 21.5472 33.8434L31.2859 28.0974C32.1919 27.563 32.7437 26.5858 32.7341 25.533L32.7342 14.2262C32.7289 13.6784 32.5421 13.1538 32.2354 12.7035Z"
              fill="#4285F4"/>
        <path d="M25.1155 22.6171C25.1116 22.6294 25.1075 22.6416 25.1033 22.6537C25.1075 22.6416 25.1116 22.6294 25.1155 22.6171Z"
              fill="#4285F4"/>
        <path d="M25.0525 17.1795C25.038 17.1505 25.0219 17.1224 25.0051 17.0946V17.0946C25.0219 17.1224 25.038 17.1506 25.0525 17.1795Z"
              fill="#4285F4"/>
        <path d="M20.6282 25.6216L24.583 23.2882C24.606 23.2747 24.6284 23.2604 24.6502 23.2455C24.6284 23.2604 24.606 23.2747 24.583 23.2882L20.6282 25.6216Z"
              fill="#4285F4"/>
        <path d="M25.0621 22.7561C25.0481 22.7868 25.0332 22.8171 25.0166 22.8465C25.0332 22.8171 25.0481 22.7868 25.0621 22.7561Z"
              fill="#4285F4"/>
        <path d="M24.7742 23.1482C24.8325 23.0958 24.8852 23.0382 24.9317 22.9761C24.8852 23.0382 24.8325 23.0958 24.7742 23.1482Z"
              fill="#4285F4"/>
        <path d="M25.0166 22.8465C24.9912 22.8914 24.9629 22.9347 24.9319 22.9761C24.9629 22.9347 24.9912 22.8914 25.0166 22.8465Z"
              fill="#4285F4"/>
        <path d="M14.93 17.2261C14.8809 17.3432 14.8481 17.4688 14.8354 17.6002C14.8306 17.6505 14.8284 17.7016 14.8289 17.7532L14.829 22.5781C14.8293 22.6134 14.832 22.6484 14.837 22.6829C14.8518 22.7862 14.8867 22.8846 14.9388 22.973C14.9735 23.0318 15.0159 23.0862 15.0649 23.1345C15.114 23.1829 15.1698 23.2252 15.2315 23.2599L19.4324 25.6327C19.6178 25.7374 19.8243 25.7889 20.0301 25.7872C20.045 25.7871 20.0599 25.7861 20.0748 25.7854C20.2668 25.7767 20.4571 25.7228 20.6283 25.6216L24.5831 23.2882C24.6061 23.2747 24.6285 23.2604 24.6503 23.2455C24.694 23.2156 24.7354 23.1831 24.7743 23.1482C24.8326 23.0958 24.8853 23.0381 24.9318 22.9761C24.9629 22.9347 24.9911 22.8914 25.0165 22.8465C25.0331 22.8171 25.048 22.7868 25.062 22.7561C25.0774 22.7227 25.0912 22.6885 25.1034 22.6537C25.1076 22.6416 25.1117 22.6294 25.1156 22.6171C25.1528 22.499 25.1723 22.3744 25.1711 22.2469L25.1712 17.6553C25.1704 17.5719 25.1592 17.4898 25.139 17.4101C25.1255 17.357 25.108 17.305 25.0869 17.2543C25.0763 17.229 25.0649 17.204 25.0525 17.1794C25.038 17.1505 25.022 17.1224 25.0052 17.0946C24.9934 17.0751 24.9815 17.0558 24.9686 17.037C24.9401 16.9949 24.9089 16.9544 24.8754 16.9158C24.775 16.8 24.6538 16.7011 24.5201 16.6255L20.522 14.3674C20.4522 14.328 20.3795 14.2961 20.305 14.2718C20.2056 14.2393 20.103 14.2203 19.9999 14.2146C19.9741 14.2131 19.9483 14.2125 19.9225 14.2128C19.8942 14.2131 19.8659 14.2146 19.8377 14.2168C19.768 14.2224 19.6987 14.2344 19.6306 14.2522C19.6179 14.2556 19.6053 14.2593 19.5926 14.263C19.5006 14.2905 19.411 14.3287 19.3262 14.3789L15.3714 16.7119C15.2525 16.7821 15.1534 16.8712 15.0737 16.9741C15.0419 17.0152 15.0131 17.0586 14.9875 17.1038C14.9747 17.1265 14.9627 17.1496 14.9514 17.1731C14.9432 17.1902 14.9374 17.2086 14.93 17.2261Z"
              fill="#D6F0FF"/>
        <path d="M20.0748 25.7854C20.0599 25.7861 20.045 25.7871 20.0301 25.7872C19.8243 25.7889 19.6178 25.7374 19.4324 25.6327L15.2315 23.2599C15.1698 23.2252 15.114 23.1829 15.0649 23.1345C15.0159 23.0862 14.9735 23.0318 14.9388 22.973C14.8867 22.8846 14.8518 22.7862 14.837 22.6829C14.832 22.6484 14.8293 22.6134 14.829 22.5781L14.8289 17.7532C14.8284 17.7016 14.8306 17.6505 14.8354 17.6002C14.8481 17.4688 14.8809 17.3432 14.93 17.2261L13.7956 16.5277L12.4678 15.7838C12.3432 16.0448 12.2825 16.3409 12.2855 16.6481L12.2856 23.8461C12.2897 24.268 12.5182 24.6562 12.8861 24.8632L19.1533 28.4032C19.4298 28.5593 19.7378 28.6361 20.0449 28.6336C20.0561 28.6335 20.0673 28.6326 20.0785 28.6323C20.0768 27.7147 20.075 27.061 20.075 27.061L20.0748 25.7854Z"
              fill="#083042"/>
        <path d="M20.0748 25.7854C20.0599 25.7861 20.045 25.7871 20.0301 25.7872C19.8243 25.7889 19.6178 25.7374 19.4324 25.6327L15.2315 23.2599C15.1698 23.2252 15.114 23.1829 15.0649 23.1345C15.0159 23.0862 14.9735 23.0318 14.9388 22.973C14.8867 22.8846 14.8518 22.7862 14.837 22.6829C14.832 22.6484 14.8293 22.6134 14.829 22.5781L14.8289 17.7532C14.8284 17.7016 14.8306 17.6505 14.8354 17.6002C14.8481 17.4688 14.8809 17.3432 14.93 17.2261L13.7956 16.5277L12.4678 15.7838C12.3432 16.0448 12.2825 16.3409 12.2855 16.6481L12.2856 23.8461C12.2897 24.268 12.5182 24.6562 12.8861 24.8632L19.1533 28.4032C19.4298 28.5593 19.7378 28.6361 20.0449 28.6336C20.0561 28.6335 20.0673 28.6326 20.0785 28.6323C20.0768 27.7147 20.075 27.061 20.075 27.061L20.0748 25.7854Z"
              fill="#041619"/>
        <path d="M26.7433 14.9657L20.7788 11.597C20.2235 11.2835 19.5436 11.2898 18.9947 11.6141L13.0948 15.0946C12.811 15.2622 12.6026 15.5019 12.4683 15.7827C12.4681 15.783 12.468 15.7834 12.4678 15.7838L13.7956 16.5277L14.93 17.2261C14.9374 17.2086 14.9432 17.1902 14.9514 17.1731C14.9627 17.1496 14.9747 17.1265 14.9875 17.1038C15.0131 17.0586 15.0419 17.0152 15.0737 16.9741C15.1533 16.8712 15.2525 16.7821 15.3714 16.7119L19.3262 14.3789C19.411 14.3287 19.5006 14.2905 19.5926 14.263C19.6052 14.2593 19.6179 14.2556 19.6306 14.2522C19.6987 14.2344 19.768 14.2224 19.8377 14.2168C19.8659 14.2145 19.8942 14.2131 19.9225 14.2128C19.9483 14.2125 19.9741 14.2131 19.9999 14.2146C20.103 14.2203 20.2056 14.2393 20.305 14.2718C20.3795 14.2961 20.4522 14.328 20.522 14.3674L24.5201 16.6255C24.6537 16.7011 24.775 16.8 24.8754 16.9158C24.9089 16.9544 24.9401 16.9949 24.9686 17.037C24.9815 17.0558 24.9934 17.0751 25.0052 17.0946L26.0251 16.4123L27.4144 15.5826C27.4137 15.5816 27.4131 15.5806 27.4124 15.5796C27.242 15.3284 27.0092 15.1161 26.7433 14.9657Z"
              fill="#3DDB85"/>
        <path d="M26.7433 14.9657L20.7788 11.597C20.2235 11.2835 19.5436 11.2898 18.9947 11.6141L13.0948 15.0946C12.811 15.2622 12.6026 15.5019 12.4683 15.7827C12.4681 15.783 12.468 15.7834 12.4678 15.7838L13.7956 16.5277L14.93 17.2261C14.9374 17.2086 14.9432 17.1902 14.9514 17.1731C14.9627 17.1496 14.9747 17.1265 14.9875 17.1038C15.0131 17.0586 15.0419 17.0152 15.0737 16.9741C15.1533 16.8712 15.2525 16.7821 15.3714 16.7119L19.3262 14.3789C19.411 14.3287 19.5006 14.2905 19.5926 14.263C19.6052 14.2593 19.6179 14.2556 19.6306 14.2522C19.6987 14.2344 19.768 14.2224 19.8377 14.2168C19.8659 14.2145 19.8942 14.2131 19.9225 14.2128C19.9483 14.2125 19.9741 14.2131 19.9999 14.2146C20.103 14.2203 20.2056 14.2393 20.305 14.2718C20.3795 14.2961 20.4522 14.328 20.522 14.3674L24.5201 16.6255C24.6537 16.7011 24.775 16.8 24.8754 16.9158C24.9089 16.9544 24.9401 16.9949 24.9686 17.037C24.9815 17.0558 24.9934 17.0751 25.0052 17.0946L26.0251 16.4123L27.4144 15.5826C27.4137 15.5816 27.4131 15.5806 27.4124 15.5796C27.242 15.3284 27.0092 15.1161 26.7433 14.9657Z"
              fill="#37BF6E"/>
        <path d="M25.0051 17.0946C25.0219 17.1224 25.0379 17.1505 25.0524 17.1795C25.0647 17.204 25.0762 17.229 25.0868 17.2543C25.1079 17.305 25.1254 17.357 25.1389 17.4101C25.1591 17.4898 25.1703 17.5719 25.1711 17.6553L25.171 22.2469C25.1722 22.3744 25.1526 22.499 25.1155 22.6171C25.1116 22.6294 25.1075 22.6416 25.1032 22.6537C25.091 22.6885 25.0772 22.7227 25.0619 22.7561C25.0478 22.7868 25.033 22.8171 25.0164 22.8465C24.991 22.8914 24.9627 22.9347 24.9317 22.9761C24.8852 23.0381 24.8325 23.0958 24.7741 23.1482C24.7353 23.1831 24.6939 23.2156 24.6502 23.2455C24.6283 23.2604 24.6059 23.2747 24.5829 23.2882L20.6281 25.6216C20.4569 25.7228 20.2666 25.7767 20.0747 25.7854L20.0749 27.061C20.0749 27.061 20.0766 27.7147 20.0784 28.6323C20.3759 28.6243 20.6719 28.5434 20.9371 28.3866L26.8371 24.9056C27.3859 24.5818 27.7202 23.9898 27.7144 23.352L27.7145 16.5021C27.7113 16.1714 27.5989 15.8548 27.4142 15.5826L26.025 16.4123L25.0051 17.0946Z"
              fill="#4285F4"/>
        <path d="M25.0051 17.0946C25.0219 17.1224 25.0379 17.1505 25.0524 17.1795C25.0647 17.204 25.0762 17.229 25.0868 17.2543C25.1079 17.305 25.1254 17.357 25.1389 17.4101C25.1591 17.4898 25.1703 17.5719 25.1711 17.6553L25.171 22.2469C25.1722 22.3744 25.1526 22.499 25.1155 22.6171C25.1116 22.6294 25.1075 22.6416 25.1032 22.6537C25.091 22.6885 25.0772 22.7227 25.0619 22.7561C25.0478 22.7868 25.033 22.8171 25.0164 22.8465C24.991 22.8914 24.9627 22.9347 24.9317 22.9761C24.8852 23.0381 24.8325 23.0958 24.7741 23.1482C24.7353 23.1831 24.6939 23.2156 24.6502 23.2455C24.6283 23.2604 24.6059 23.2747 24.5829 23.2882L20.6281 25.6216C20.4569 25.7228 20.2666 25.7767 20.0747 25.7854L20.0749 27.061C20.0749 27.061 20.0766 27.7147 20.0784 28.6323C20.3759 28.6243 20.6719 28.5434 20.9371 28.3866L26.8371 24.9056C27.3859 24.5818 27.7202 23.9898 27.7144 23.352L27.7145 16.5021C27.7113 16.1714 27.5989 15.8548 27.4142 15.5826L26.025 16.4123L25.0051 17.0946Z"
              fill="#3870B2"/>
        <path d="M19.5926 14.2631C19.5005 14.2905 19.4109 14.3288 19.3261 14.3789L15.3713 16.7119L19.3261 14.3789C19.4109 14.3288 19.5005 14.2905 19.5926 14.2631Z"
              fill="#D6F0FF"/>
        <path opacity="0.1"
              d="M19.5926 14.2631C19.5005 14.2905 19.4109 14.3288 19.3261 14.3789L15.3713 16.7119L19.3261 14.3789C19.4109 14.3288 19.5005 14.2905 19.5926 14.2631Z"
              fill="black"/>
        <path d="M24.8754 16.9158C24.7749 16.8 24.6537 16.7011 24.52 16.6255L20.522 14.3674L24.52 16.6255C24.6537 16.7011 24.7749 16.8 24.8754 16.9158Z"
              fill="#D6F0FF"/>
        <path opacity="0.1"
              d="M24.8754 16.9158C24.7749 16.8 24.6537 16.7011 24.52 16.6255L20.522 14.3674L24.52 16.6255C24.6537 16.7011 24.7749 16.8 24.8754 16.9158Z"
              fill="black"/>
        <path d="M19.9224 14.2128C19.9482 14.2125 19.974 14.2131 19.9998 14.2146C19.974 14.2131 19.9482 14.2125 19.9224 14.2128Z"
              fill="#D6F0FF"/>
        <path opacity="0.1"
              d="M19.9224 14.2128C19.9482 14.2125 19.974 14.2131 19.9998 14.2146C19.974 14.2131 19.9482 14.2125 19.9224 14.2128Z"
              fill="black"/>
        <path d="M19.6306 14.2522C19.6987 14.2344 19.768 14.2224 19.8377 14.2168C19.768 14.2225 19.6987 14.2344 19.6306 14.2522Z"
              fill="#D6F0FF"/>
        <path opacity="0.1"
              d="M19.6306 14.2522C19.6987 14.2344 19.768 14.2224 19.8377 14.2168C19.768 14.2225 19.6987 14.2344 19.6306 14.2522Z"
              fill="black"/>
        <path d="M20 14.2146C20.1031 14.2203 20.2057 14.2393 20.3051 14.2718C20.2057 14.2393 20.1031 14.2203 20 14.2146Z"
              fill="#D6F0FF"/>
        <path opacity="0.1"
              d="M20 14.2146C20.1031 14.2203 20.2057 14.2393 20.3051 14.2718C20.2057 14.2393 20.1031 14.2203 20 14.2146Z"
              fill="black"/>
        <path d="M25.1034 22.6537C25.0912 22.6885 25.0773 22.7227 25.062 22.7561C25.0773 22.7227 25.0912 22.6885 25.1034 22.6537Z"
              fill="#D6F0FF"/>
        <path opacity="0.1"
              d="M25.1034 22.6537C25.0912 22.6885 25.0773 22.7227 25.062 22.7561C25.0773 22.7227 25.0912 22.6885 25.1034 22.6537Z"
              fill="black"/>
        <path d="M25.0869 17.2543C25.108 17.305 25.1255 17.357 25.139 17.4101C25.1255 17.357 25.108 17.305 25.0869 17.2543Z"
              fill="#D6F0FF"/>
        <path opacity="0.1"
              d="M25.0869 17.2543C25.108 17.305 25.1255 17.357 25.139 17.4101C25.1255 17.357 25.108 17.305 25.0869 17.2543Z"
              fill="black"/>
        <path d="M25.1155 22.6171C25.1526 22.499 25.1722 22.3744 25.171 22.2469L25.1711 17.6553L25.171 22.2469C25.1722 22.3744 25.1526 22.499 25.1155 22.6171Z"
              fill="#D6F0FF"/>
        <path opacity="0.1"
              d="M25.1155 22.6171C25.1526 22.499 25.1722 22.3744 25.171 22.2469L25.1711 17.6553L25.171 22.2469C25.1722 22.3744 25.1526 22.499 25.1155 22.6171Z"
              fill="black"/>
    </g>
</svg>
