<svg xmlns="http://www.w3.org/2000/svg" width="19" height="19" viewBox="0 0 19 19">
  <g fill="none" fill-rule="evenodd">
    <rect width="14" height="14" x="3" y="2" fill="#4D89C9" rx="2"/>
    <path fill="#97C3F3" d="M5,0 L15,0 C17.209139,-4.05812251e-16 19,1.790861 19,4 L19,14 C19,16.209139 17.209139,18 15,18 L5,18 C2.790861,18 1,16.209139 1,14 L1,4 C1,1.790861 2.790861,4.05812251e-16 5,0 Z M5,3 C4.44771525,3 4,3.44771525 4,4 L4,14 C4,14.5522847 4.44771525,15 5,15 L15,15 C15.5522847,15 16,14.5522847 16,14 L16,4 C16,3.44771525 15.5522847,3 15,3 L5,3 Z"/>
    <path fill="#ACCFF7" d="M5,2 L15,2 C16.1045695,2 17,2.8954305 17,4 L17,14 C17,15.1045695 16.1045695,16 15,16 L5,16 C3.8954305,16 3,15.1045695 3,14 L3,4 C3,2.8954305 3.8954305,2 5,2 Z M5,3 C4.44771525,3 4,3.44771525 4,4 L4,14 C4,14.5522847 4.44771525,15 5,15 L15,15 C15.5522847,15 16,14.5522847 16,14 L16,4 C16,3.44771525 15.5522847,3 15,3 L5,3 Z"/>
    <rect width="8.4" height="2.5" x="5.737" y="7.73" fill="#FFF" rx="1"/>
  </g>
</svg>
