<svg xmlns="http://www.w3.org/2000/svg" width="19" height="19" viewBox="0 0 19 19">
  <g fill="none" fill-rule="evenodd">
    <rect width="14" height="14" x="3" y="2" fill="#4D89C9" rx="2"/>
    <path fill="#97C3F3" d="M5,0 L15,0 C17.209139,-4.05812251e-16 19,1.790861 19,4 L19,14 C19,16.209139 17.209139,18 15,18 L5,18 C2.790861,18 1,16.209139 1,14 L1,4 C1,1.790861 2.790861,4.05812251e-16 5,0 Z M5,3 C4.44771525,3 4,3.44771525 4,4 L4,14 C4,14.5522847 4.44771525,15 5,15 L15,15 C15.5522847,15 16,14.5522847 16,14 L16,4 C16,3.44771525 15.5522847,3 15,3 L5,3 Z"/>
    <path fill="#ACCFF7" d="M5,2 L15,2 C16.1045695,2 17,2.8954305 17,4 L17,14 C17,15.1045695 16.1045695,16 15,16 L5,16 C3.8954305,16 3,15.1045695 3,14 L3,4 C3,2.8954305 3.8954305,2 5,2 Z M5,3 C4.44771525,3 4,3.44771525 4,4 L4,14 C4,14.5522847 4.44771525,15 5,15 L15,15 C15.5522847,15 16,14.5522847 16,14 L16,4 C16,3.44771525 15.5522847,3 15,3 L5,3 Z"/>
    <path fill="#FFF" d="M8.62700797,10.3954751 L12.5585785,4.90234375 C12.9700368,4.49609375 13.4049327,4.45963542 13.863266,4.79296875 C14.2512868,5.16796875 14.2968597,5.59114583 13.9999847,6.0625 L9.32029724,12.6132813 C9.10415141,12.8502604 8.85935974,12.96875 8.58592224,12.96875 C8.31248474,12.96875 8.07550557,12.8502604 7.87498474,12.6132813 L5.94139099,9.71484375 C5.69399516,9.20442708 5.79946391,8.77604167 6.25779724,8.4296875 C6.79425557,8.17447917 7.22915141,8.30064252 7.56248474,8.80817756 L8.62700797,10.3954751 Z"/>
  </g>
</svg>
