<svg id="Layer_1" data-name="Layer 1" xmlns="http://www.w3.org/2000/svg" viewBox="0 0 16 16">
  <title>as</title>
  <g>
    <g>
      <polygon points="6 0 2 4 6 4 6 0" fill="#9aa7b0" opacity="0.7" style="isolation: isolate"/>
      <polygon points="7 0 7 4 7 5 6 5 2 5 2 8 13 8 13 0 7 0" fill="#9aa7b0" opacity="0.7" style="isolation: isolate"/>
    </g>
    <rect x="1" y="9" width="15" height="7" fill="#f26522" opacity="0.6"/>
    <path d="M4.10964,10H4.89036L7,15H6.10941L5.62313,13.80111H3.35623L2.86326,15H2ZM5.3153,13.02841l-0.82869-1.986-0.822,1.986H5.3153Z" fill="#231f20" opacity="0.6"/>
    <path d="M10.257,12.11133c-1.05054-.22217-1.2995-0.38916-1.2995-0.76416V11.333a0.73775,0.73775,0,0,1,.88694-0.57617c0.00848,0,.012-0.00391.02-0.00439v0.00146h1.48964V10H9.95664l-0.00082.00684C9.923,10.00586,9.89344,10,9.85979,10A1.61237,1.61237,0,0,0,8,11.40967v0.01416c0,0.89551.65413,1.20117,1.81356,1.45117,1.01115,0.208,1.22892.396,1.22892,0.74316v0.01367a0.79588,0.79588,0,0,1-.96464.61084c-0.01614,0-.02982-0.00342-0.04569-0.00391v0.00684h-1.558v0.75391L10.033,14.998,10.05431,15C11.19841,15,12,14.4585,12,13.54883V13.53418C12,12.72949,11.40825,12.36133,10.257,12.11133Z" fill="#231f20" opacity="0.6"/>
  </g>
</svg>
