<svg id="Layer_1" data-name="Layer 1" xmlns="http://www.w3.org/2000/svg" width="16" height="16" viewBox="0 0 16 16">
  <title>as</title>
  <g>
    <g>
      <polygon points="7 1 3 5 7 5 7 1" fill="#9aa7b0" opacity="0.8" style="isolation: isolate"/>
      <polygon points="8 1 8 5 8 6 7 6 3 6 3 8 13 8 13 1 8 1" fill="#9aa7b0" opacity="0.8" style="isolation: isolate"/>
    </g>
    <rect x="1" y="9" width="15" height="7" fill="#f26522" opacity="0.7"/>
    <path d="M4.10964,10h.78072L7,15H6.10941l-.48628-1.19889H3.35623L2.86326,15H2ZM5.3153,13.02841l-.82868-1.986-.822,1.986Z" fill="#231f20" opacity="0.7"/>
    <path d="M9.70654,12.11133c-.1372-.03809-.25-.0752-.353-.11133H9v-.34229a.47435.47435,0,0,1-.09863-.31054V11.333A.46725.46725,0,0,1,9,11.06055V11h.05371a.92009.92009,0,0,1,.68213-.24316l.019-.0044v.00147H11V10H9.8418l-.001.00684C9.80957,10.00586,9.78223,10,9.75049,10,8.73242,10,8,10.57666,8,11.40967v.01416c0,.89551.49463,1.20117,1.37158,1.45117a2.7292,2.7292,0,0,1,.3667.125H10v.16943a.61989.61989,0,0,1,.09766.44873.40106.40106,0,0,1-.09766.252V14H9.83789A1.5042,1.5042,0,0,1,9,14.24268c-.01514,0-1,.00293-1,.00293v.7539l1.01172-.001c1.07812-.00391,1.96387-.563,1.96387-1.44971C10.97559,12.707,10.57715,12.36133,9.70654,12.11133Z" fill="#231f20" opacity="0.7"/>
  </g>
</svg>
