<svg id="Layer_1" data-name="Layer 1" xmlns="http://www.w3.org/2000/svg" viewBox="0 0 32 32">
  <title>as@2x</title>
  <g>
    <g>
      <polygon points="12 0 4 8 12 8 12 0" fill="#9aa7b0" opacity="0.7" style="isolation: isolate"/>
      <polygon points="14 0 14 8 14 10 12 10 4 10 4 16 26 16 26 0 14 0" fill="#9aa7b0" opacity="0.7" style="isolation: isolate"/>
    </g>
    <rect x="2" y="18" width="30" height="14" fill="#f26522" opacity="0.6"/>
    <path d="M9.21927,20h1.56145L15,30H13.21883l-0.97256-2.39778H7.71247L6.72652,30H5Zm2.41133,6.05683-1.65737-3.972-1.644,3.972H11.6306Z" fill="#231f20" opacity="0.6"/>
    <path d="M20.51406,24.22266c-2.10109-.44434-2.599-0.77832-2.599-1.52832V22.666c0-.63867.65276-1.15234,1.77389-1.15234,0.017,0,.02407-0.00781.03994-0.00879v0.00293h2.97928V20H19.91328l-0.00164.01367C19.846,20.01172,19.78688,20,19.71958,20,17.55612,20,16,21.15332,16,22.81934v0.02832c0,1.791,1.30826,2.40234,3.62711,2.90234,2.0223,0.416,2.45783.792,2.45783,1.48633v0.02734c0,0.72266-.74742,1.22168-1.92928,1.22168-0.03228,0-.05964-0.00684-0.09138-0.00781v0.01367H16.94823V29.999l3.11771-.00293A0.42482,0.42482,0,0,0,20.10861,30C22.39683,30,24,28.917,24,27.09766v-0.0293C24,25.459,22.8165,24.72266,20.51406,24.22266Z" fill="#231f20" opacity="0.6"/>
  </g>
</svg>
