<svg id="Layer_1" data-name="Layer 1" xmlns="http://www.w3.org/2000/svg" width="32" height="32" viewBox="0 0 32 32">
  <title>as@2x</title>
  <g>
    <polygon points="14 2 6 10 14 10 14 2" fill="#9aa7b0" opacity="0.8" style="isolation: isolate"/>
    <polygon points="16 2 16 10 16 12 14 12 6 12 6 16 26 16 26 2 16 2" fill="#9aa7b0" opacity="0.8" style="isolation: isolate"/>
    <rect x="2" y="18" width="30" height="14" fill="#f26522" opacity="0.7"/>
    <path d="M9.21927,20h1.56146L15,30H13.21883l-.97257-2.39778H7.71247L6.72652,30H5Zm2.41133,6.05683L9.97323,22.08478l-1.644,3.97205Z" fill="#231f20" opacity="0.7"/>
    <path d="M20.51406,24.22266c-2.10109-.44434-2.599-.77832-2.599-1.52832V22.666c0-.63868.65276-1.15235,1.77389-1.15235.017,0,.02408-.00781.03994-.00879v.00293h2.97928V20H19.91328l-.00165.01367c-.06566-.002-.12475-.01367-.192-.01367C17.55612,20,16,21.15332,16,22.81934v.02832c0,1.791,1.30826,2.40234,3.62711,2.90234,2.0223.416,2.45784.792,2.45784,1.48633v.02734c0,.72266-.74742,1.22168-1.92928,1.22168-.03229,0-.05964-.00683-.09138-.00781v.01367H16.94823V29.999l3.1177-.00293A.42459.42459,0,0,0,20.10861,30C22.39683,30,24,28.917,24,27.09766v-.0293C24,25.459,22.8165,24.72266,20.51406,24.22266Z" fill="#231f20" opacity="0.7"/>
  </g>
</svg>
