<svg id="Layer_1" data-name="Layer 1" xmlns="http://www.w3.org/2000/svg" width="16" height="16" viewBox="0 0 16 16">
  <title>aspectj</title>
  <g>
    <g>
      <polygon points="7 1 3 5 7 5 7 1" fill="#9aa7b0" opacity="0.8" style="isolation: isolate"/>
      <polygon points="8 1 8 5 8 6 7 6 3 6 3 8 13 8 13 1 8 1" fill="#9aa7b0" opacity="0.8" style="isolation: isolate"/>
    </g>
    <rect x="1" y="9" width="15" height="7" fill="#f26522" opacity="0.7"/>
    <path d="M4.10964,10h.78072L7,15H6.10941l-.48628-1.19889H3.35623L2.86326,15H2ZM5.3153,13.02841l-.82868-1.986-.822,1.986Z" fill="#231f20" opacity="0.7"/>
    <path d="M10.12549,10v3.22559A1.24032,1.24032,0,0,1,10,13.792V14H9.85889a.69676.69676,0,0,1-.49854.19727,1.18455,1.18455,0,0,1-.9707-.585l-.55811.5918A1.80469,1.80469,0,0,0,9.37451,15a1.58977,1.58977,0,0,0,1.17139-.437A1.81488,1.81488,0,0,0,11,13.25342V10Z" fill="#231f20" opacity="0.7"/>
  </g>
</svg>
