<!-- Copyright 2000-2024 JetBrains s.r.o. and contributors. Use of this source code is governed by the Apache 2.0 license. -->
<svg width="16" height="16" viewBox="0 0 16 16" fill="none" xmlns="http://www.w3.org/2000/svg">
<path fill-rule="evenodd" clip-rule="evenodd" d="M4.98 14.7919C3.484 14.7919 2.5 13.5359 2.5 11.9119V11.8959C2.5 10.2719 3.508 8.99994 4.996 8.99994C6.476 8.99994 7.476 10.2559 7.476 11.8799V11.8959C7.476 13.5199 6.476 14.7919 4.98 14.7919ZM5.00199 13.6799C5.74599 13.6799 6.21799 12.9279 6.21799 11.9119V11.8959C6.21799 10.8799 5.72199 10.1119 4.98599 10.1119C4.24999 10.1119 3.76999 10.8559 3.76999 11.8799V11.8959C3.76999 12.9199 4.25799 13.6799 5.00199 13.6799Z" fill="#6E6E6E"/>
<path fill-rule="evenodd" clip-rule="evenodd" d="M10.98 6.99195C9.484 6.99195 8.5 5.73595 8.5 4.11195V4.09595C8.5 2.47195 9.508 1.19995 10.996 1.19995C12.476 1.19995 13.476 2.45595 13.476 4.07995V4.09595C13.476 5.71995 12.476 6.99195 10.98 6.99195ZM11.002 5.87995C11.746 5.87995 12.218 5.12795 12.218 4.11195V4.09595C12.218 3.07995 11.722 2.31195 10.986 2.31195C10.25 2.31195 9.76999 3.05595 9.76999 4.07995V4.09595C9.76999 5.11995 10.258 5.87995 11.002 5.87995Z" fill="#6E6E6E"/>
<path fill-rule="evenodd" clip-rule="evenodd" d="M4.642 6.99133V2.59933L3.666 2.83933L3.41 1.83133L5.018 1.35133H5.858V6.99133H4.642Z" fill="#6E6E6E"/>
<path d="M3.41 6.09195H6.91V6.99195H3.41V6.09195Z" fill="#6E6E6E"/>
<path fill-rule="evenodd" clip-rule="evenodd" d="M10.642 14.6399V10.2479L9.666 10.4879L9.41 9.47995L11.018 8.99995H11.858V14.6399H10.642Z" fill="#6E6E6E"/>
<path d="M9.41 13.7406H12.91V14.6406H9.41V13.7406Z" fill="#6E6E6E"/>
</svg>
