<svg id="Layer_1" data-name="Layer 1" xmlns="http://www.w3.org/2000/svg" width="16" height="16" viewBox="0 0 16 16">
  <title>config</title>
  <g>
    <polygon points="7 1 3 5 7 5 7 1" fill="#9aa7b0" opacity="0.8" style="isolation: isolate"/>
    <polygon points="7.191 14.263 7 13.799 7 10.199 7.191 9.736 9.737 7.191 10.2 7 13 7 13 1 8 1 8 5 8 6 7 6 3 6 3 15 7.929 15 7.191 14.263" fill="#9aa7b0" opacity="0.8" style="isolation: isolate"/>
    <path d="M14.86475,12.79932H16V11.19971H14.86475a2.94444,2.94444,0,0,0-.27344-.66065l.80224-.80273L14.2627,8.60547,13.46,9.40771a2.98961,2.98961,0,0,0-.66016-.27441L12.79932,8H11.2002V9.1333a2.98961,2.98961,0,0,0-.66016.27441L9.7373,8.60547,8.60547,9.73633l.80322.80273a2.97932,2.97932,0,0,0-.27441.66065H8v1.59961H9.13428a2.97944,2.97944,0,0,0,.27441.66064l-.80322.80274L9.7373,15.39355l.80274-.80224a2.98913,2.98913,0,0,0,.66016.27441L11.20068,16H12.7998V14.86572a2.96724,2.96724,0,0,0,.66016-.2749l.80274.80273,1.13085-1.13134-.80224-.80274A2.94077,2.94077,0,0,0,14.86475,12.79932ZM12,13.15576a1.15625,1.15625,0,1,1,1.15625-1.15625A1.15613,1.15613,0,0,1,12,13.15576Z" fill="#40b6e0" opacity="0.9"/>
  </g>
</svg>
