<svg id="Layer_1" data-name="Layer 1" xmlns="http://www.w3.org/2000/svg" viewBox="0 0 16 16">
  <title>config</title>
  <g>
    <g>
      <polygon points="6 0 2 4 6 4 6 0" fill="#9aa7b0" opacity="0.7" style="isolation: isolate"/>
      <path d="M6,11.5a5.488,5.488,0,0,1,7-5.2876V0H7V5H2V15H7.25732A5.47788,5.47788,0,0,1,6,11.5Z" fill="#9aa7b0" opacity="0.7" style="isolation: isolate"/>
    </g>
    <path d="M10.601,15.99987L10.601,14.72382a3.36506,3.36506,0,0,1-.74269-0.3087l-0.90294.90256-1.27317-1.2722,0.90346-.90307a3.34124,3.34124,0,0,1-.3087-0.74275H7.001L7.00089,10.6002H8.27682a3.34088,3.34088,0,0,1,.30863-0.74275L7.68191,8.95438l1.273-1.27219L9.858,8.58475a3.36469,3.36469,0,0,1,.74266-0.30869L10.60057,7h1.79929l0.00006,1.27605a3.36506,3.36506,0,0,1,.74269.3087l0.90294-.90256,1.27214,1.2722-0.90243.90307a3.30787,3.30787,0,0,1,.30755.74275h1.27709L16,12.39967H14.72291a3.30751,3.30751,0,0,1-.30747.74275L15.318,14.04549l-1.272,1.27219-0.903-.90256a3.36469,3.36469,0,0,1-.74266.30869l0.00006,1.27605M11.50038,10.1992a1.3008,1.3008,0,1,0,1.30068,1.30074A1.30054,1.30054,0,0,0,11.50038,10.1992Z" fill="#40b6e0"/>
  </g>
</svg>
