<svg id="Layer_1" data-name="Layer 1" xmlns="http://www.w3.org/2000/svg" viewBox="0 0 32 32">
  <title>config@2x</title>
  <g>
    <g>
      <polygon points="12 0 4 8 12 8 12 0" fill="#9aa7b0" opacity="0.7" style="isolation: isolate"/>
      <path d="M12,23A10.9759,10.9759,0,0,1,26,12.4248V0H14V10H4V30H14.51465A10.95575,10.95575,0,0,1,12,23Z" fill="#9aa7b0" opacity="0.7" style="isolation: isolate"/>
    </g>
    <path d="M21.20206,31.99974l-0.00013-2.55211a6.73011,6.73011,0,0,1-1.48538-.61739l-1.80588,1.80511L15.36433,28.091l1.80691-1.80614a6.68248,6.68248,0,0,1-.61741-1.48549H14.002L14.00178,21.2004h2.55186a6.68175,6.68175,0,0,1,.61726-1.48549l-1.80709-1.80615,2.54608-2.54439L19.716,17.1695a6.72938,6.72938,0,0,1,1.48532-.61739L21.20115,14h3.59858l0.00013,2.55211a6.73011,6.73011,0,0,1,1.48538.61739l1.80588-1.80511,2.54428,2.54439-1.80485,1.80614a6.61573,6.61573,0,0,1,.61509,1.48549h2.55418L32,24.79934H29.44582a6.615,6.615,0,0,1-.61494,1.48549l1.805,1.80615-2.544,2.54439-1.80607-1.80512a6.72938,6.72938,0,0,1-1.48532.61739l0.00013,2.55211M23.00076,20.3984a2.60161,2.60161,0,1,0,2.60136,2.60148A2.60107,2.60107,0,0,0,23.00076,20.3984Z" fill="#40b6e0"/>
  </g>
</svg>
