<svg xmlns="http://www.w3.org/2000/svg" width="16" height="16" viewBox="0 0 16 16">
  <g fill="none" fill-rule="evenodd">
    <polygon fill="#9AA7B0" fill-opacity=".8" points="7 1 3 5 7 5"/>
    <polygon fill="#9AA7B0" fill-opacity=".8" points="8 1 8 6 3 6 3 8 13 8 13 1"/>
    <polygon fill="#40B6E0" fill-opacity=".7" points="1 16 16 16 16 9 1 9"/>
    <path fill="#231F20" fill-opacity=".7" d="M0,2.501 C0,1 0.931,2.02832126e-16 2.256,0 C3.20239258,0 3.55,0.311 3.969,0.753 L3.42669678,1.42712402 C3.07669678,1.06812402 2.75,1 2.25,1 C1.418,1 1,1.73791504 1,2.487 C1,3.23608496 1.412,4 2.25,4 C2.787,4 3.05169678,3.89340869 3.42669678,3.50640869 L4,4.144 C3.544,4.669 3.19732666,5 2.225,5 C0.949,5 7.35277938e-17,4.002 0,2.501 Z" transform="translate(2 10)"/>
    <path fill="#231F20" fill-opacity=".7" d="M0.972767969,1.50152588 C0.972767969,1.13305664 1.284,1 1.845,1 C1.85033333,1 2.23533333,1 3,1 L3,0 C2.26266667,0 1.88266667,0 1.86,0 C0.778,0 0,0.45916748 0,1.45 C0,2.31452637 0.419555664,2.69049072 1.47125244,2.91607666 C2.24158869,3.08131157 2.496155,3.22862939 2.496155,3.548 C2.496155,3.86737061 2.13842773,4 1.47125244,4 C1.46058577,4 1.07016829,4 0.3,4 L0.3,5 C1.07550163,5 1.46591911,5 1.47125244,5 C3.5,5 3.5,4 3.5,3.548 C3.5,2.91607666 3.02026367,2.42071533 2.15869141,2.14685059 C1.29711914,1.87298584 0.972767969,1.86999512 0.972767969,1.50152588 Z" transform="translate(7 10)"/>
    <path fill="#231F20" fill-opacity=".7" d="M0.972767969,1.50152588 C0.972767969,1.13305664 1.284,1 1.845,1 C1.85033333,1 2.23533333,1 3,1 L3,0 C2.26266667,0 1.88266667,0 1.86,0 C0.778,0 0,0.45916748 0,1.45 C0,2.31452637 0.419555664,2.69049072 1.47125244,2.91607666 C2.24158869,3.08131157 2.496155,3.22862939 2.496155,3.548 C2.496155,3.86737061 2.13842773,4 1.47125244,4 C1.46058577,4 1.07016829,4 0.3,4 L0.3,5 C1.07550163,5 1.46591911,5 1.47125244,5 C3.5,5 3.5,4 3.5,3.548 C3.5,2.91607666 3.02026367,2.42071533 2.15869141,2.14685059 C1.29711914,1.87298584 0.972767969,1.86999512 0.972767969,1.50152588 Z" transform="translate(11 10)"/>
  </g>
</svg>
