<svg id="Layer_1" data-name="Layer 1" xmlns="http://www.w3.org/2000/svg" viewBox="0 0 16 16">
  <title>css</title>
  <g>
    <rect x="1" y="9" width="15" height="7" fill="#62b543" opacity="0.6"/>
    <g opacity="0.6">
      <path d="M2,12.51378v-0.0135A2.34071,2.34071,0,0,1,4.256,10a2.17648,2.17648,0,0,1,1.71247.75245l-0.49364.62873a1.66941,1.66941,0,0,0-1.22494-.60061,1.56578,1.56578,0,0,0-1.44377,1.70566v0.01406a1.56854,1.56854,0,0,0,1.44377,1.71241,1.64046,1.64046,0,0,0,1.256-.62141L6,14.14352A2.16922,2.16922,0,0,1,4.22494,15,2.32705,2.32705,0,0,1,2,12.51378Z" fill="#231f20"/>
    </g>
    <g>
      <polygon points="6 0 2 4 6 4 6 0" fill="#9aa7b0" opacity="0.7" style="isolation: isolate"/>
      <polygon points="7 0 7 4 7 5 6 5 2 5 2 8 13 8 13 0 7 0" fill="#9aa7b0" opacity="0.7" style="isolation: isolate"/>
    </g>
    <path d="M8.70679,12.875c0.9519,0.208,1.15674.396,1.15674,0.74316v0.01367a0.75413,0.75413,0,0,1-.908.61084c-0.01514,0-.02808-0.00342-0.043-0.00391v0.00684H7.44629v0.75391l1.467-.00146,0.01318,0.00146a1.57153,1.57153,0,0,0,1.83813-1.45068V13.53418c0-.80469-0.55688-1.17285-1.64038-1.42285-0.98877-.22217-1.22314-0.38916-1.22314-0.76416V11.333a0.70036,0.70036,0,0,1,.83472-0.57617l0.019-.00439v0.00146h1.40186V10H8.84155l-0.00073.00684C8.80981,10.00586,8.782,10,8.75049,10A1.542,1.542,0,0,0,7,11.40967v0.01416C7,12.31934,7.61572,12.625,8.70679,12.875Z" fill="#231f20" opacity="0.6"/>
    <path d="M12.94214,12.875c0.95166,0.208,1.15674.396,1.15674,0.74316v0.01367a0.75413,0.75413,0,0,1-.908.61084c-0.01514,0-.02808-0.00342-0.043-0.00391v0.00684H11.68164v0.75391l1.467-.00146L13.1687,15A1.569,1.569,0,0,0,15,13.54883V13.53418c0-.80469-0.55688-1.17285-1.64038-1.42285-0.98877-.22217-1.22314-0.38916-1.22314-0.76416V11.333a0.70022,0.70022,0,0,1,.83472-0.57617c0.00806,0,.01147-0.00391.0188-0.00439v0.00146h1.4021V10H13.0769l-0.00073.00684C13.04517,10.00586,13.01733,10,12.9856,10a1.5418,1.5418,0,0,0-1.75024,1.40967v0.01416C11.23535,12.31934,11.85107,12.625,12.94214,12.875Z" fill="#231f20" opacity="0.6"/>
  </g>
</svg>
