<svg id="Layer_1" data-name="Layer 1" xmlns="http://www.w3.org/2000/svg" width="32" height="32" viewBox="0 0 32 32">
  <title>css@2x</title>
  <g>
    <rect x="2" y="18" width="30" height="14" fill="#40b6e0" opacity="0.7"/>
    <g opacity="0.7">
      <path d="M4,25.02756v-.027C4,22.25172,5.86158,20,8.512,20a4.353,4.353,0,0,1,3.42494,1.50489l-.98728,1.25745a3.33884,3.33884,0,0,0-2.44987-1.20121c-1.66311,0-2.88754,1.51839-2.88754,3.41131v.02812c0,1.8918,1.21222,3.42481,2.88754,3.42481a3.28089,3.28089,0,0,0,2.51195-1.24283L12,28.287A4.33845,4.33845,0,0,1,8.44987,30C5.89924,30,4,27.80452,4,25.02756Z" fill="#231f20"/>
    </g>
    <g>
      <polygon points="14 2 6 10 14 10 14 2" fill="#9aa7b0" opacity="0.8" style="isolation: isolate"/>
      <polygon points="16 2 16 10 16 12 14 12 6 12 6 16 26 16 26 2 16 2" fill="#9aa7b0" opacity="0.8" style="isolation: isolate"/>
    </g>
    <path d="M17.41357,25.75c1.90381.416,2.31348.792,2.31348,1.48633v.02734c0,.72266-.70361,1.22168-1.81592,1.22168-.03027,0-.05615-.00683-.08593-.00781L17,28.49121H14.06738V29.999h3.79981c2.15332,0,3.66211-1.082,3.66211-2.90136v-.0293c0-1.60938-1.11377-2.3457-3.28076-2.8457-1.97754-.44434-2.44629-.77832-2.44629-1.52832V22.666c0-.63868.61474-1.15235,1.66943-1.15235.01611,0,.023-.00781.03809-.00879v.00293h2.80371V20H17.68311l-.00147.01367C17.61963,20.01172,17.564,20,17.501,20,15.46484,20,14,21.15332,14,22.81934v.02832C14,24.63867,15.23145,25.25,17.41357,25.75Z" fill="#231f20" opacity="0.7"/>
    <path d="M25.88428,25.75c1.90332.416,2.31347.792,2.31347,1.48633v.02734c0,.72266-.70361,1.22168-1.81591,1.22168-.03028,0-.05616-.00683-.08594-.00781v.01367H23.36328V29.999L26.3374,30C28.49121,30,30,28.917,30,27.09766v-.0293c0-1.60938-1.11377-2.3457-3.28076-2.8457-1.97754-.44434-2.44629-.77832-2.44629-1.52832V22.666c0-.63868.61426-1.15235,1.66943-1.15235.01612,0,.023-.00781.0376-.00879v.00293h2.8042V20H26.15381l-.00147.01367c-.062-.002-.11767-.01367-.18115-.01367-2.03613,0-3.50049,1.15332-3.50049,2.81934v.02832C22.4707,24.63867,23.70215,25.25,25.88428,25.75Z" fill="#231f20" opacity="0.7"/>
  </g>
</svg>
