<svg id="Layer_1" data-name="Layer 1" xmlns="http://www.w3.org/2000/svg" viewBox="0 0 32 32">
  <title>css@2x</title>
  <g>
    <rect x="2" y="18" width="30" height="14" fill="#62b543" opacity="0.6"/>
    <g opacity="0.6">
      <path d="M4,25.02756v-0.027C4,22.25172,5.86158,20,8.512,20a4.353,4.353,0,0,1,3.42494,1.50489l-0.98728,1.25745a3.33882,3.33882,0,0,0-2.44987-1.20121c-1.6631,0-2.88753,1.51839-2.88753,3.41131v0.02812c0,1.8918,1.21221,3.42481,2.88753,3.42481a3.28092,3.28092,0,0,0,2.512-1.24283L12,28.287A4.33843,4.33843,0,0,1,8.44987,30C5.89924,30,4,27.80452,4,25.02756Z" fill="#231f20"/>
    </g>
    <g>
      <polygon points="12 0 4 8 12 8 12 0" fill="#9aa7b0" opacity="0.7" style="isolation: isolate"/>
      <polygon points="14 0 14 8 14 10 12 10 4 10 4 16 26 16 26 0 14 0" fill="#9aa7b0" opacity="0.7" style="isolation: isolate"/>
    </g>
    <path d="M17.41357,25.75c1.90381,0.416,2.31348.792,2.31348,1.48633v0.02734c0,0.72266-.70361,1.22168-1.81592,1.22168-0.03027,0-.05615-0.00684-0.08594-0.00781v0.01367H14.89258V29.999l2.93408-.00293L17.853,29.999c2.16748,0,3.67627-1.082,3.67627-2.90137v-0.0293c0-1.60937-1.11377-2.3457-3.28076-2.8457-1.97754-.44434-2.44629-0.77832-2.44629-1.52832V22.666c0-.63867.61475-1.15234,1.66943-1.15234l0.03809-.00879v0.00293h2.80371V20H17.68311l-0.00146.01367C17.61963,20.01172,17.564,20,17.501,20,15.46484,20,14,21.15332,14,22.81934v0.02832C14,24.63867,15.23145,25.25,17.41357,25.75Z" fill="#231f20" opacity="0.6"/>
    <path d="M25.88428,25.75c1.90332,0.416,2.31348.792,2.31348,1.48633v0.02734c0,0.72266-.70361,1.22168-1.81592,1.22168-0.03027,0-.05615-0.00684-0.08594-0.00781v0.01367H23.36328V29.999l2.93408-.00293C26.31055,29.99707,26.32373,30,26.3374,30,28.49121,30,30,28.917,30,27.09766v-0.0293c0-1.60937-1.11377-2.3457-3.28076-2.8457-1.97754-.44434-2.44629-0.77832-2.44629-1.52832V22.666c0-.63867.61426-1.15234,1.66943-1.15234,0.01611,0,.02295-0.00781.0376-0.00879v0.00293h2.8042V20H26.15381l-0.00146.01367C26.09033,20.01172,26.03467,20,25.97119,20c-2.03613,0-3.50049,1.15332-3.50049,2.81934v0.02832C22.4707,24.63867,23.70215,25.25,25.88428,25.75Z" fill="#231f20" opacity="0.6"/>
  </g>
</svg>
