<!-- Copyright 2000-2021 JetBrains s.r.o. Use of this source code is governed by the Apache 2.0 license that can be found in the LICENSE file. -->
<svg xmlns="http://www.w3.org/2000/svg" width="16" height="16" viewBox="0 0 16 16">
  <g fill="none" fill-rule="evenodd">
    <polygon fill="#9AA7B0" fill-opacity=".8" points="7 1 3 5 7 5"/>
    <path fill="#9AA7B0" fill-opacity=".8" d="M6,15 L3.0003,15 L3.0003,6 L8.0003,6 L8.0003,1 L13.0003,1 L13.0003,6.36626169 C12.551473,6.13227634 12.0411839,6 11.5,6 C9.70507456,6 8.25,7.45507456 8.25,9.25 C8.25,10.3256011 8.77251034,11.2791633 9.57755025,11.870706 C7.84861238,12.2719783 6,13.1640404 6,14.5416667 L6,15 Z"/>
    <path fill="#9AA7B0" d="M11.5,11.5 C12.743125,11.5 13.75,10.493125 13.75,9.25 C13.75,8.006875 12.743125,7 11.5,7 C10.256875,7 9.25,8.006875 9.25,9.25 C9.25,10.493125 10.256875,11.5 11.5,11.5 Z"/>
    <path fill="#40B6E0" d="M11.5,12.625 C9.998125,12.625 7,13.37875 7,14.875 L7,16 L16,16 L16,14.875 C16,13.37875 13.001875,12.625 11.5,12.625 Z"/>
  </g>
</svg>
