<svg xmlns="http://www.w3.org/2000/svg" width="16" height="16" viewBox="0 0 16 16">
  <g fill="none" fill-rule="evenodd">
    <path fill="#9AA7B0" d="M12,6 C10.896,6 10,6.896 10,8 C10,9.104 10.896,10 12,10 C13.104,10 14,9.104 14,8 C14,6.896 13.104,6 12,6"/>
    <polygon fill="#9AA7B0" fill-opacity=".8" points="7 1 3 5 7 5"/>
    <path fill="#9AA7B0" fill-opacity=".8" d="M10.1953,10.381 C9.4733,9.832 9.0003,8.975 9.0003,8 C9.0003,6.346 10.3453,5 12.0003,5 C12.3523,5 12.6853,5.072 13.0003,5.184 L13.0003,1 L8.0003,1 L8.0003,6 L3.0003,6 L3.0003,15 L7.0653,15 C7.3463,12.821 8.5373,11.107 10.1953,10.381"/>
    <path fill="#40B6E0" d="M12,11 C9.791,11 8,13.036 8,16 L16,16 C16,13.071 14.209,11 12,11"/>
  </g>
</svg>
