<svg id="Layer_1" data-name="Layer 1" xmlns="http://www.w3.org/2000/svg" viewBox="0 0 32 32">
  <title>custom@2x</title>
  <g>
    <g>
      <polygon points="12 0 4 8 12 8 12 0" fill="#9aa7b0" opacity="0.7" style="isolation: isolate"/>
      <path d="M20.39063,20.76172A5.965,5.965,0,0,1,26,10.36816V0H14V10H4V30H14.13086C14.69287,25.64258,17.0752,22.21289,20.39063,20.76172Z" fill="#9aa7b0" opacity="0.7" style="isolation: isolate"/>
    </g>
    <g>
      <path d="M24,12a4,4,0,1,0,4,4A4.0002,4.0002,0,0,0,24,12Zm0,6a2,2,0,1,1,2-2A2.0001,2.0001,0,0,1,24,18Z" fill="#9aa7b0"/>
      <circle cx="24" cy="16" r="2" fill="#e6e7e8"/>
      <path d="M24,22c-4.41846,0-8,4.07143-8,10H32C32,26.14286,28.41846,22,24,22Z" fill="#40b6e0"/>
    </g>
  </g>
</svg>
