<svg id="Layer_1" data-name="Layer 1" xmlns="http://www.w3.org/2000/svg" width="16" height="16" viewBox="0 0 16 16">
  <title>dtd</title>
  <g>
    <rect x="1" y="9" width="15" height="7" fill="#f26522" opacity="0.7"/>
    <g>
      <polygon points="7 1 3 5 7 5 7 1" fill="#9aa7b0" opacity="0.8" style="isolation: isolate"/>
      <polygon points="8 1 8 5 8 6 7 6 3 6 3 8 13 8 13 1 8 1" fill="#9aa7b0" opacity="0.8" style="isolation: isolate"/>
    </g>
    <path d="M8.023,10.81424H6.59316V10H10.251v.81424H8.82161V15H8.023Z" fill="#231f20" opacity="0.7"/>
    <path d="M3.64941,10H2v5H3.64941A2.35551,2.35551,0,0,0,6,12.50049v-.01465A2.34392,2.34392,0,0,0,3.64941,10Zm1.53565,2.51416a1.74772,1.74772,0,0,1-.48145,1.26563V14H4.41113a1.52,1.52,0,0,1-.76172.19971H2.77734V10.80029h.87207A1.50324,1.50324,0,0,1,4.40527,11h.29834v.22656a1.77374,1.77374,0,0,1,.48145,1.27393Z" fill="#231f20" opacity="0.7"/>
    <path d="M12.64941,10H11v5h1.64941A2.35551,2.35551,0,0,0,15,12.50049v-.01465A2.34392,2.34392,0,0,0,12.64941,10Zm1.53565,2.51416a1.74772,1.74772,0,0,1-.48145,1.26563V14h-.29248a1.52,1.52,0,0,1-.76172.19971h-.87207V10.80029h.87207A1.50324,1.50324,0,0,1,13.40527,11h.29834v.22656a1.77374,1.77374,0,0,1,.48145,1.27393Z" fill="#231f20" opacity="0.7"/>
  </g>
</svg>
