<svg id="Layer_1" data-name="Layer 1" xmlns="http://www.w3.org/2000/svg" viewBox="0 0 32 32">
  <title>dtd@2x</title>
  <g>
    <rect x="2" y="18" width="30" height="14" fill="#f4af3d" opacity="0.6"/>
    <g>
      <polygon points="12 0 4 8 12 8 12 0" fill="#9aa7b0" opacity="0.7" style="isolation: isolate"/>
      <polygon points="14 0 14 8 14 10 12 10 4 10 4 16 26 16 26 0 14 0" fill="#9aa7b0" opacity="0.7" style="isolation: isolate"/>
    </g>
    <path d="M4,20H7.2992A4.68763,4.68763,0,0,1,12,24.9715v0.02908A4.71131,4.71131,0,0,1,7.2992,30H4V20Zm1.55493,1.60056v6.79888H7.2992A3.078,3.078,0,0,0,10.37,25.0285V25.00058a3.10281,3.10281,0,0,0-3.07075-3.4H5.55493Z" fill="#231f20" opacity="0.6"/>
    <path d="M22,20h3.2992A4.68763,4.68763,0,0,1,30,24.9715v0.02908A4.71131,4.71131,0,0,1,25.2992,30H22V20Zm1.55493,1.60056v6.79888H25.2992A3.078,3.078,0,0,0,28.37,25.0285V25.00058a3.10281,3.10281,0,0,0-3.07075-3.4H23.55493Z" fill="#231f20" opacity="0.6"/>
    <path d="M16.04607,21.62848H13.18632V20h7.31561v1.62848H17.64322V30H16.04607V21.62848Z" fill="#231f20" opacity="0.6"/>
  </g>
</svg>
