<svg id="Layer_1" data-name="Layer 1" xmlns="http://www.w3.org/2000/svg" width="32" height="32" viewBox="0 0 32 32">
  <title>dtd@2x</title>
  <g>
    <g>
      <polygon points="14 2 6 10 14 10 14 2" fill="#9aa7b0" opacity="0.8" style="isolation: isolate"/>
      <polygon points="16 2 16 10 16 12 14 12 6 12 6 16 26 16 26 2 16 2" fill="#9aa7b0" opacity="0.8" style="isolation: isolate"/>
    </g>
    <rect x="2" y="18" width="30" height="14" fill="#f26522" opacity="0.7"/>
    <path d="M4,20H7.2992A4.68763,4.68763,0,0,1,12,24.9715v.02908A4.71132,4.71132,0,0,1,7.2992,30H4Zm1.55493,1.60056v6.79888H7.2992A3.078,3.078,0,0,0,10.37,25.0285v-.02792a3.1028,3.1028,0,0,0-3.07075-3.4Z" fill="#231f20" opacity="0.7"/>
    <path d="M22,20h3.2992A4.68763,4.68763,0,0,1,30,24.9715v.02908A4.71132,4.71132,0,0,1,25.2992,30H22Zm1.55493,1.60056v6.79888H25.2992A3.078,3.078,0,0,0,28.37,25.0285v-.02792a3.1028,3.1028,0,0,0-3.07075-3.4Z" fill="#231f20" opacity="0.7"/>
    <path d="M16.04607,21.62848H13.18632V20h7.31561v1.62848H17.64322V30H16.04607Z" fill="#231f20" opacity="0.7"/>
  </g>
</svg>
