<svg id="Layer_1" data-name="Layer 1" xmlns="http://www.w3.org/2000/svg" width="16" height="16" viewBox="0 0 16 16">
  <title>facelets</title>
  <g>
    <g>
      <polygon points="7 1 3 5 7 5 7 1" fill="#9aa7b0" opacity="0.8" style="isolation: isolate"/>
      <g opacity="0.7">
        <rect x="1" y="9" width="15" height="7" fill="#74bd59"/>
      </g>
      <polygon points="8 1 8 5 8 6 7 6 3 6 3 8 13 8 13 1 8 1" fill="#9aa7b0" opacity="0.8" style="isolation: isolate"/>
    </g>
    <path d="M7.70654,12.11133c-.1372-.03809-.25-.0752-.353-.11133H7v-.34229a.47435.47435,0,0,1-.09863-.31054V11.333A.46725.46725,0,0,1,7,11.06055V11h.05371a.92009.92009,0,0,1,.68213-.24316l.019-.0044v.00147H9V10H7.8418l-.001.00684C7.80957,10.00586,7.78223,10,7.75049,10,6.73242,10,6,10.57666,6,11.40967v.01416c0,.89551.49463,1.20117,1.37158,1.45117a2.7292,2.7292,0,0,1,.3667.125H8v.16943a.61989.61989,0,0,1,.09766.44873A.40106.40106,0,0,1,8,13.87012V14H7.83789A1.5042,1.5042,0,0,1,7,14.24268c-.01514,0-1,.00293-1,.00293v.7539l1.01172-.001c1.07812-.00391,1.96387-.563,1.96387-1.44971C8.97559,12.707,8.57715,12.36133,7.70654,12.11133Z" fill="#231f20" opacity="0.7"/>
    <path d="M4.12549,10v3.22559A1.24032,1.24032,0,0,1,4,13.792V14H3.85889a.69676.69676,0,0,1-.49854.19727A.96656.96656,0,0,1,2.77344,14H2.02393L2,14.02539v.37305A1.77,1.77,0,0,0,3.37451,15a1.58977,1.58977,0,0,0,1.17139-.437A1.81488,1.81488,0,0,0,5,13.25342V10Z" fill="#231f20" opacity="0.7"/>
    <polygon points="10.879 10.8 13 10.8 13 10 10 10 10 15 10.879 15 10.879 12.964 12.984 12.964 12.984 12.164 10.879 12.164 10.879 10.8" fill="#231f20" opacity="0.7"/>
  </g>
</svg>
