<svg id="Layer_1" data-name="Layer 1" xmlns="http://www.w3.org/2000/svg" width="32" height="32" viewBox="0 0 32 32">
  <title>facelets@2x</title>
  <g>
    <g>
      <polygon points="14 2 6 10 14 10 14 2" fill="#9aa7b0" opacity="0.8" style="isolation: isolate"/>
      <g opacity="0.7">
        <rect x="2" y="18" width="30" height="14" fill="#74bd59"/>
      </g>
      <polygon points="16 2 16 10 16 12 14 12 6 12 6 16 26 16 26 2 16 2" fill="#9aa7b0" opacity="0.8" style="isolation: isolate"/>
    </g>
    <path d="M15.41357,25.75c1.90381.416,2.31348.792,2.31348,1.48633v.02734c0,.72266-.70361,1.22168-1.81592,1.22168-.03027,0-.05615-.00683-.08593-.00781v.01367H12V29.999l3.82666-.00293.02637.00293c2.16748,0,3.67627-1.082,3.67627-2.90136v-.0293c0-1.60938-1.11377-2.3457-3.28076-2.8457-1.97754-.44434-2.44629-.77832-2.44629-1.52832V22.666c0-.63868.61474-1.15235,1.66943-1.15235l.03809-.00879v.00293h2.80371V20H15.68311l-.00147.01367C15.61963,20.01172,15.564,20,15.501,20,13.46484,20,12,21.15332,12,22.81934v.02832C12,24.63867,13.23145,25.25,15.41357,25.75Z" fill="#231f20" opacity="0.7"/>
    <g opacity="0.7">
      <path d="M21,20h6.6115v1.60056H22.75759v2.72769h4.21066v1.60056H22.75759V30H21Z" fill="#231f20"/>
    </g>
    <g opacity="0.7">
      <path d="M4.66315,28.40826l1.11616-1.18349A2.36955,2.36955,0,0,0,7.72108,28.3945c.90975,0,1.53009-.62042,1.53009-1.94381V20H11v6.50688a3.627,3.627,0,0,1-.90863,2.61927A3.1788,3.1788,0,0,1,7.74913,30,3.60942,3.60942,0,0,1,4.66315,28.40826Z" fill="#231f20"/>
    </g>
  </g>
</svg>
