<svg id="Layer_1" data-name="Layer 1" xmlns="http://www.w3.org/2000/svg" width="16" height="16" viewBox="0 0 16 16">
  <defs>
    <linearGradient id="linear-gradient" x1="7.61175" y1="7.56844" x2="15.70474" y2="0.76111" gradientTransform="matrix(1, 0, 0, -1, 0, 16)" gradientUnits="userSpaceOnUse">
      <stop offset="0.05914" stop-color="#fdc403"/>
      <stop offset="0.26344" stop-color="#fdad03"/>
      <stop offset="0.56989" stop-color="#e76025"/>
      <stop offset="0.75806" stop-color="#ad2279"/>
    </linearGradient>
  </defs>
  <title>htaccess</title>
  <g>
    <g>
      <polygon points="7 0.988 3 4.988 7 4.988 7 0.988" fill="#9aa7b0" opacity="0.8" style="isolation: isolate"/>
      <path d="M10.23828,14.58063A9.11326,9.11326,0,0,1,7.002,7.98786V6.10407L8.5625,7.15974A13.69607,13.69607,0,0,0,12.3584,9.151c.21728.07324.427.1455.6416.23242V.98786H8v5H3v9h7.80566Q10.52369,14.80549,10.23828,14.58063Z" fill="#9aa7b0" opacity="0.8" style="isolation: isolate"/>
    </g>
    <g>
      <path d="M15.4287,14.84352a4.91257,4.91257,0,0,1-4.57044-1.0472A8.13471,8.13471,0,0,1,8.00173,7.98786c4.22257,2.85652,4.1495,1.52978,6.28436,3.42783A3.45225,3.45225,0,0,1,15.4287,14.84352Z" fill="url(#linear-gradient)"/>
      <path d="M14.28609,11.41569c-2.13486-1.898-2.06179-.57131-6.28436-3.42783a8.13467,8.13467,0,0,0,2.85653,5.80846,4.91257,4.91257,0,0,0,4.57044,1.0472A3.45225,3.45225,0,0,0,14.28609,11.41569Z" fill="url(#linear-gradient)"/>
      <path d="M16,15.98613a.44216.44216,0,0,1-.39974-.09541,11.082,11.082,0,0,0-3.04483-3.1143A15.27791,15.27791,0,0,1,8.33423,8.6568c2.20935,2.6027,2.42193,2.37726,4.79136,3.97291A11.49,11.49,0,0,1,16,15.41482Z" fill="#4898c9"/>
    </g>
  </g>
</svg>
