<svg id="Layer_1" data-name="Layer 1" xmlns="http://www.w3.org/2000/svg" viewBox="0 0 16 16">
  <defs>
    <linearGradient id="linear-gradient" x1="7.61129" y1="8.44425" x2="15.70428" y2="15.25158" gradientUnits="userSpaceOnUse">
      <stop offset="0.05914" stop-color="#fdc403"/>
      <stop offset="0.26344" stop-color="#fdad03"/>
      <stop offset="0.56989" stop-color="#e76025"/>
      <stop offset="0.75806" stop-color="#ad2279"/>
    </linearGradient>
  </defs>
  <title>htaccess</title>
  <g>
    <g>
      <polygon points="6 0 2 4 6 4 6 0" fill="#9aa7b0" opacity="0.7" style="isolation: isolate"/>
      <path d="M10.23828,14.59277A9.11327,9.11327,0,0,1,7.002,8V6.11621L8.5625,7.17188a13.69574,13.69574,0,0,0,3.7959,1.99121c0.21729,0.07324.427,0.14551,0.6416,0.23242V0H7V5H2V15h8.80566Q10.52368,14.81763,10.23828,14.59277Z" fill="#9aa7b0" opacity="0.7" style="isolation: isolate"/>
    </g>
    <g>
      <path d="M15.4287,14.85566a4.91258,4.91258,0,0,1-4.57044-1.0472A8.13471,8.13471,0,0,1,8.00173,8c4.22257,2.85652,4.1495,1.52978,6.28435,3.42783A3.45223,3.45223,0,0,1,15.4287,14.85566Z" fill="url(#linear-gradient)"/>
      <path d="M14.28609,11.42783C12.15123,9.52978,12.2243,10.85652,8.00173,8a8.13471,8.13471,0,0,0,2.85652,5.80846,4.91258,4.91258,0,0,0,4.57044,1.0472A3.45223,3.45223,0,0,0,14.28609,11.42783Zm0.90186,3.20245a3.95053,3.95053,0,0,1-1.00144.12272,5.049,5.049,0,0,1-3.15109-1.16883,7.93968,7.93968,0,0,1-2.7157-5.0296,14.05418,14.05418,0,0,0,3.6287,1.82772,5.02968,5.02968,0,0,1,2.148,1.25921A3.17155,3.17155,0,0,1,15.18795,14.63028Z" fill="url(#linear-gradient)"/>
      <path d="M16,15.99827a0.44217,0.44217,0,0,1-.39974-0.09541,11.0818,11.0818,0,0,0-3.04483-3.1143,15.27788,15.27788,0,0,1-4.2212-4.11962c2.20935,2.60269,2.42193,2.37726,4.79136,3.97291A11.48967,11.48967,0,0,1,16,15.427v0.5713Z" fill="#4898c9"/>
    </g>
  </g>
</svg>
