<svg id="Layer_1" data-name="Layer 1" xmlns="http://www.w3.org/2000/svg" viewBox="0 0 32 32">
  <defs>
    <linearGradient id="linear-gradient" x1="15.22257" y1="16.86422" x2="31.40855" y2="30.47888" gradientUnits="userSpaceOnUse">
      <stop offset="0.05914" stop-color="#fdc403"/>
      <stop offset="0.26344" stop-color="#fdad03"/>
      <stop offset="0.56989" stop-color="#e76025"/>
      <stop offset="0.75806" stop-color="#ad2279"/>
    </linearGradient>
  </defs>
  <title>htaccess@2x</title>
  <g>
    <g>
      <polygon points="12 -0.024 4 7.976 12 7.976 12 -0.024" fill="#9aa7b0" opacity="0.7" style="isolation: isolate"/>
      <path d="M20.47656,29.16127a18.22654,18.22654,0,0,1-6.47266-13.18555V12.20814L17.125,14.31947a27.39148,27.39148,0,0,0,7.5918,3.98242c0.43457,0.14648.854,0.291,1.2832,0.46484v-18.791H14v10H4v20H21.61133Q21.04736,29.611,20.47656,29.16127Z" fill="#9aa7b0" opacity="0.7" style="isolation: isolate"/>
    </g>
    <g>
      <path d="M30.85739,29.687s-4.38968,1.66033-9.14088-2.0944a16.26941,16.26941,0,0,1-5.713-11.61691c8.44514,5.713,8.299,3.05957,12.56871,6.85566A6.90446,6.90446,0,0,1,30.85739,29.687Z" fill="url(#linear-gradient)"/>
      <path d="M28.57217,22.83138c-4.2697-3.79609-4.12356-1.14261-12.56871-6.85566a16.26941,16.26941,0,0,0,5.713,11.61691c4.7512,3.75473,9.14088,2.0944,9.14088,2.0944A6.90446,6.90446,0,0,0,28.57217,22.83138Zm1.80372,6.4049a7.90106,7.90106,0,0,1-2.00288.24543A10.098,10.098,0,0,1,22.07083,27.144a15.87935,15.87935,0,0,1-5.4314-10.05919,28.10836,28.10836,0,0,0,7.2574,3.65544,10.05937,10.05937,0,0,1,4.296,2.51843A6.34311,6.34311,0,0,1,30.37589,29.23628Z" fill="url(#linear-gradient)"/>
      <path d="M32,31.97226a0.88434,0.88434,0,0,1-.79948-0.19082c-0.54731-.43853-1.98563-3.60185-6.08965-6.22859-3.73131-2.38783-5.47093-4.45321-8.4424-8.23925,4.4187,5.20539,4.84387,4.75451,9.58273,7.94582A22.97933,22.97933,0,0,1,32,30.82965v1.14261Z" fill="#4898c9"/>
    </g>
  </g>
</svg>
