<!-- Copyright 2000-2024 JetBrains s.r.o. and contributors. Use of this source code is governed by the Apache 2.0 license. -->
<svg xmlns="http://www.w3.org/2000/svg" width="16" height="16" viewBox="0 0 16 16">
  <g fill="none" fill-rule="evenodd">
    <polygon fill="#9AA7B0" fill-opacity=".8" points="7 1 3 5 7 5"/>
    <polygon fill="#9AA7B0" fill-opacity=".8" points="8 1 8 6 3 6 3 8 13 8 13 1"/>
    <polygon fill="#40B6E0" fill-opacity=".7" points="1 16 16 16 16 9 1 9"/>
    <polygon fill="#231F20" fill-opacity=".7" points="1.1 0 0 .443 .157 1.225 1 1 1 5 2 5 2 0" transform="translate(4 10)"/>
    <g fill="#231F20" fill-opacity=".7" transform="translate(2 10)">
      <rect width="1" height="1"/>
      <rect width="1" height="3" y="2"/>
    </g>
    <path fill="#231F20" fill-opacity=".7" d="M2.517,6.062 C1.4165,6.062 0.6,5.494 0.6,4.6278 L0.6,4.6136 C0.6,4.0101 0.8769,3.6551 1.4023,3.4137 C1.0189,3.1794 0.7704,2.8599 0.7704,2.3274 L0.7704,2.3132 C0.7704,1.5535 1.4662,0.95 2.517,0.95 C3.5678,0.95 4.2636,1.5464 4.2636,2.3132 L4.2636,2.3274 C4.2636,2.8599 4.0151,3.1794 3.6317,3.4137 C4.1358,3.6764 4.434,3.9959 4.434,4.5852 L4.434,4.5994 C4.434,5.5224 3.6175,6.062 2.517,6.062 Z M2.517,3.0516 C2.9501,3.0516 3.227,2.796 3.227,2.4481 L3.227,2.4339 C3.227,2.1286 2.9643,1.8517 2.517,1.8517 C2.0697,1.8517 1.807,2.1215 1.807,2.4268 L1.807,2.441 C1.807,2.7889 2.0839,3.0516 2.517,3.0516 Z M2.517,5.1603 C3.0566,5.1603 3.3761,4.8905 3.3761,4.5426 L3.3761,4.5284 C3.3761,4.145 3.014,3.9178 2.517,3.9178 C2.02,3.9178 1.6579,4.145 1.6579,4.5284 L1.6579,4.5426 C1.6579,4.8834 1.9774,5.1603 2.517,5.1603 Z" transform="translate(6 9)"/>
    <path fill="#231F20" fill-opacity=".7" d="M-4.4408921e-16,4 L-4.4408921e-16,8.8817842e-16 L0.8906,8.8817842e-16 L0.8906,0.7369 C1.1388,0.3792 1.4965,8.8817842e-16 2.0951,8.8817842e-16 C2.9638,8.8817842e-16 3.5,0.6493 3.5,1.5399 L3.5,4 L2.5,4 L2.5,1.81 C2.5,1.2114 2.1703,1 1.7593,1 C1.3483,1 0.9,1.226 0.9,1.8246 L0.9,4 L-4.4408921e-16,4 Z" transform="translate(11 11)"/>
  </g>
</svg>
