<svg id="Layer_1" data-name="Layer 1" xmlns="http://www.w3.org/2000/svg" viewBox="0 0 16 16">
  <title>javaClass</title>
  <g>
    <g>
      <polygon points="6 0 2 4 6 4 6 0" fill="#9aa7b0" opacity="0.7" style="isolation: isolate"/>
      <rect x="1" y="9" width="15" height="7" fill="#40b6e0" opacity="0.6"/>
      <polygon points="7 0 7 4 7 5 6 5 2 5 2 8 13 8 13 0 7 0" fill="#9aa7b0" opacity="0.7" style="isolation: isolate"/>
    </g>
    <g opacity="0.6">
      <path d="M3.35339,12.51378v-0.0135A2.26344,2.26344,0,0,1,5.46676,10a2.24524,2.24524,0,0,1,2.09988,2.48622v0.01406A2.26359,2.26359,0,0,1,5.45327,15,2.2411,2.2411,0,0,1,3.35339,12.51378Zm3.336,0v-0.0135a1.50631,1.50631,0,0,0-1.23608-1.73378,1.47891,1.47891,0,0,0-1.22258,1.71972v0.01406a1.501,1.501,0,0,0,1.23608,1.73321A1.48213,1.48213,0,0,0,6.68935,12.51378Z" fill="#231f20"/>
      <path d="M9.15758,10.9116l-0.87.24182-0.18-.69059,1.30525-.41446H10v4.869H9.15758V10.9116Z" fill="#231f20"/>
    </g>
  </g>
</svg>
