<svg id="Layer_1" data-name="Layer 1" xmlns="http://www.w3.org/2000/svg" width="16" height="16" viewBox="0 0 16 16">
  <title>javaOutsideSource</title>
  <g>
    <g>
      <polygon points="7 1 3 5 7 5 7 1" fill="#9aa7b0" opacity="0.8" style="isolation: isolate"/>
      <circle cx="3.5" cy="12.5" r="3.5" fill="#f26522" opacity="0.7"/>
      <path d="M8,1V6H3V8.04639A4.1177,4.1177,0,0,1,3.5,8,4.50491,4.50491,0,0,1,8,12.5,4.39729,4.39729,0,0,1,7.21729,15H13V1Z" fill="#9aa7b0" opacity="0.8" style="isolation: isolate"/>
    </g>
    <path d="M4.12549,10v3.22559A1.24032,1.24032,0,0,1,4,13.792V14H3.85889a.69676.69676,0,0,1-.49854.19727,1.18455,1.18455,0,0,1-.9707-.585l-.55811.5918A1.80469,1.80469,0,0,0,3.37451,15a1.58977,1.58977,0,0,0,1.17139-.437A1.81488,1.81488,0,0,0,5,13.25342V10Z" fill="#231f20" opacity="0.7"/>
  </g>
</svg>
