<svg xmlns="http://www.w3.org/2000/svg" width="16" height="16" viewBox="0 0 16 16">
  <g fill="none" fill-rule="evenodd">
    <polygon fill="#9AA7B0" fill-opacity=".8" points="7 1 3 5 7 5"/>
    <path fill="#9AA7B0" fill-opacity=".8" d="M8,1 L8,6 L3,6 L3,8.033 C3.164,8.014 3.33,8 3.5,8 C5.981,8 8,10.019 8,12.5 C8,13.431 7.707,14.286 7.217,15 L13,15 L13,1 L8,1 Z"/>
    <path fill="#F26522" fill-opacity=".7" d="M7,12.5 C7,14.433 5.433,16 3.5,16 C1.567,16 0,14.433 0,12.5 C0,10.567 1.567,9 3.5,9 C5.433,9 7,10.567 7,12.5"/>
    <path fill="#231F20" fill-opacity=".7" d="M1.39509277,3.58770752 C1.62440186,3.83789062 1.83782861,4 2.28682861,4 C2.81318359,4 3,3.58770752 3,3.29760742 L3,0 L4,0 L4,3.58770752 C4,4.31964111 3.32670898,5 2.45,5 C1.629,5 1.15,4.76264111 0.8,4.31964111 L1.39509277,3.58770752 Z" transform="translate(1 10)"/>
  </g>
</svg>
