<svg id="Layer_1" data-name="Layer 1" xmlns="http://www.w3.org/2000/svg" viewBox="0 0 16 16">
  <title>javaScript</title>
  <g>
    <g>
      <polygon points="6 0 2 4 6 4 6 0" fill="#9aa7b0" opacity="0.7" style="isolation: isolate"/>
      <rect x="1" y="9" width="15" height="7" fill="#f26522" opacity="0.6"/>
      <polygon points="7 0 7 4 7 5 6 5 2 5 2 8 13 8 13 0 7 0" fill="#9aa7b0" opacity="0.7" style="isolation: isolate"/>
    </g>
    <path d="M7.70679,12.875c0.9519,0.208,1.15674.396,1.15674,0.74316v0.01367a0.75413,0.75413,0,0,1-.908.61084c-0.01514,0-.02808-0.00342-0.043-0.00391v0.00684H6.44629v0.75391l1.467-.00146,0.01318,0.00146a1.57153,1.57153,0,0,0,1.83813-1.45068V13.53418c0-.80469-0.55688-1.17285-1.64038-1.42285-0.98877-.22217-1.22314-0.38916-1.22314-0.76416V11.333a0.70036,0.70036,0,0,1,.83472-0.57617l0.019-.00439v0.00146H9.15674V10H7.84155l-0.00073.00684C7.80981,10.00586,7.782,10,7.75049,10A1.542,1.542,0,0,0,6,11.40967v0.01416C6,12.31934,6.61572,12.625,7.70679,12.875Z" fill="#231f20" opacity="0.6"/>
    <g opacity="0.6">
      <path d="M1.83158,14.20413l0.55808-.59174a1.18477,1.18477,0,0,0,.97089.58486,0.8,0.8,0,0,0,.765-0.9719V10H5v3.25344a1.81349,1.81349,0,0,1-.45431,1.30963A1.5894,1.5894,0,0,1,3.37456,15,1.8047,1.8047,0,0,1,1.83158,14.20413Z" fill="#231f20"/>
    </g>
  </g>
</svg>
