<svg id="Layer_1" data-name="Layer 1" xmlns="http://www.w3.org/2000/svg" width="32" height="32" viewBox="0 0 32 32">
  <title>javaClass@2x</title>
  <g>
    <g>
      <polygon points="14 2 6 10 14 10 14 2" fill="#9aa7b0" opacity="0.8" style="isolation: isolate"/>
      <rect x="2" y="18" width="30" height="14" fill="#40b6e0" opacity="0.7"/>
      <polygon points="16 2 16 10 16 12 14 12 6 12 6 16 26 16 26 2 16 2" fill="#9aa7b0" opacity="0.8" style="isolation: isolate"/>
    </g>
    <g opacity="0.7">
      <path d="M6,25.02756v-.027C6,22.23709,7.59957,20,10.01281,20,12.41324,20,14,22.2101,14,24.97244v.02812C14,27.76291,12.39936,30,9.98719,30,7.574,30,6,27.7899,6,25.02756Zm6.33422,0v-.027c0-1.90642-.93112-3.46755-2.347-3.46755-1.417,0-2.32141,1.51952-2.32141,3.43943v.02812c0,1.9053.91724,3.46643,2.347,3.46643S12.33422,26.92048,12.33422,25.02756Z" fill="#231f20"/>
      <path d="M17.31515,21.82319l-1.74.48364-.35992-1.38117,2.61051-.82893H19v9.73793H17.31515Z" fill="#231f20"/>
    </g>
  </g>
</svg>
