<svg id="Layer_1" data-name="Layer 1" xmlns="http://www.w3.org/2000/svg" width="32" height="32" viewBox="0 0 32 32">
  <title>javaOutsideSource@2x</title>
  <g>
    <g>
      <polygon points="14 2 6 10 14 10 14 2" fill="#9aa7b0" opacity="0.8" style="isolation: isolate"/>
      <circle cx="7" cy="25" r="7" fill="#f26522" opacity="0.7"/>
      <path d="M16,2V12H6v4.06689A8.443,8.443,0,0,1,7,16a9.00984,9.00984,0,0,1,9,9,8.79817,8.79817,0,0,1-1.56543,5H26V2Z" fill="#9aa7b0" opacity="0.8" style="isolation: isolate"/>
    </g>
    <g opacity="0.7">
      <path d="M3.66315,28.40826l1.11616-1.18349A2.36955,2.36955,0,0,0,6.72108,28.3945c.90975,0,1.53009-.62042,1.53009-1.94381V20H10v6.50688a3.627,3.627,0,0,1-.90863,2.61927A3.1788,3.1788,0,0,1,6.74913,30,3.60942,3.60942,0,0,1,3.66315,28.40826Z" fill="#231f20"/>
    </g>
  </g>
</svg>
