<svg id="Layer_1" data-name="Layer 1" xmlns="http://www.w3.org/2000/svg" viewBox="0 0 16 16">
  <title>java</title>
  <g>
    <g>
      <polygon points="6 0 2 4 6 4 6 0" fill="#9aa7b0" opacity="0.7" style="isolation: isolate"/>
      <rect x="1" y="9" width="15" height="7" fill="#40b6e0" opacity="0.6"/>
      <polygon points="7 0 7 4 7 5 6 5 2 5 2 8 13 8 13 0 7 0" fill="#9aa7b0" opacity="0.7" style="isolation: isolate"/>
    </g>
    <g opacity="0.6">
      <path d="M2.83158,14.20413l0.55808-.59174a1.18477,1.18477,0,0,0,.97089.58486,0.8,0.8,0,0,0,.765-0.9719V10H6v3.25344a1.81349,1.81349,0,0,1-.45431,1.30963A1.5894,1.5894,0,0,1,4.37456,15,1.8047,1.8047,0,0,1,2.83158,14.20413Z" fill="#231f20"/>
    </g>
  </g>
</svg>
