<svg id="Layer_1" data-name="Layer 1" xmlns="http://www.w3.org/2000/svg" width="16" height="16" viewBox="0 0 16 16">
  <title>json</title>
  <g>
    <g>
      <polygon points="7 1 3 5 7 5 7 1" fill="#9aa7b0" opacity="0.8" style="isolation: isolate"/>
      <g>
        <path d="M10.5957,12.94043c0,.12207-.0205.68359-.0205.77832a1.318,1.318,0,0,0,.01562.25684l.00195-.002c.03028,0,.19532.09278.65723.22168l.25.06983.25-.06983a2.53958,2.53958,0,0,0,.6748-.25488,1.96456,1.96456,0,0,1,0-.22168c0-.09473-.0205-.65625-.0205-.77832a2.53614,2.53614,0,0,1,.40429-1.4375,2.48635,2.48635,0,0,1-.40429-1.44336c0-.12207.0205-.68359.0205-.77832a1.318,1.318,0,0,0-.01562-.25684l-.00195.001c-.03028,0-.19532-.0918-.65821-.22168L11.5,8.73438l-.249.06933a2.57865,2.57865,0,0,0-.67578.25488,1.99255,1.99255,0,0,1,0,.22266c0,.09473.0205.65625.0205.77832a2.53313,2.53313,0,0,1-.40429,1.43652A2.4874,2.4874,0,0,1,10.5957,12.94043Z" fill="#9aa7b0" opacity="0.6" style="isolation: isolate"/>
        <path d="M7.416,13.89648c0-.084.02148-.67285.02148-.75683,0-.0625-.00293-.11133-.00586-.14942-.04-.0039-.09375-.00683-.16309-.00683H6V10.01562H7.26855a1.37107,1.37107,0,0,0,.16211-.00781c.00391-.03906.00684-.09082.00684-.15918,0-.084-.02148-.67187-.02148-.75683,0-2.209,1.69238-2.80371,3.168-3.0752h1.832c.19238.03516.38818.07715.584.12647V1H8V6H3v9H7.60937A3.194,3.194,0,0,1,7.416,13.89648Z" fill="#9aa7b0" opacity="0.8" style="isolation: isolate"/>
      </g>
    </g>
    <g>
      <path d="M8.41649,13.8966c0-.15752.02105-.57785.02105-.75677,0-.82013-.31075-1.15657-1.1689-1.15657H7v-.96737h.26864c.85815,0,1.1689-.34672,1.1689-1.16685,0-.17892-.02105-.59925-.02105-.75677,0-1.07268.4657-1.74556,2.3479-2.09227l.21727.84067c-1.24132.34757-1.40638.67288-1.40638,1.44079,0,.2106.02021.55731.02021.77818a1.35766,1.35766,0,0,1-1.07542,1.43993,1.35667,1.35667,0,0,1,1.07542,1.44079c0,.22087-.02021.56758-.02021.77818,0,.767.16506,1.09322,1.40638,1.43993L10.76439,16C8.88219,15.65243,8.41649,14.97955,8.41649,13.8966Z" fill="#5c7180"/>
      <path d="M12.01834,15.15847c1.24132-.34671,1.40638-.67288,1.40638-1.43993,0-.2106-.02021-.55731-.02021-.77818a1.35859,1.35859,0,0,1,1.07542-1.44079,1.35575,1.35575,0,0,1-1.07542-1.43993c0-.22087.02021-.56758.02021-.77818,0-.76791-.16506-1.09322-1.40638-1.44079L12.23561,7c1.8822.34671,2.3479,1.01959,2.3479,2.09227,0,.15752-.02105.57785-.02105.75677,0,.82013.31075,1.16685,1.1689,1.16685H16v.96737h-.26864c-.85815,0-1.1689.33644-1.1689,1.15657,0,.17892.02105.59925.02105.75677,0,1.083-.4657,1.75583-2.3479,2.1034Z" fill="#5c7180"/>
    </g>
  </g>
</svg>
