<svg id="Layer_1" data-name="Layer 1" xmlns="http://www.w3.org/2000/svg" viewBox="0 0 16 16">
  <title>json</title>
  <g>
    <g>
      <g>
        <polygon points="6 0 2 4 6 4 6 0" fill="#9aa7b0" opacity="0.7" style="isolation: isolate"/>
        <rect x="1" y="9" width="15" height="7" fill="#40b6e0" opacity="0.6"/>
        <polygon points="7 0 7 4 7 5 6 5 2 5 2 8 13 8 13 0 7 0" fill="#9aa7b0" opacity="0.7" style="isolation: isolate"/>
      </g>
      <path d="M3.12549,10v3.22559a0.79976,0.79976,0,0,1-.76489.97168,0.96845,0.96845,0,0,1-.36646-0.07666l-0.00146.833A1.98352,1.98352,0,0,0,2.37451,15a1.58916,1.58916,0,0,0,1.17114-.437A1.81285,1.81285,0,0,0,4,13.25342V10H3.12549Z" fill="#231f20" opacity="0.6"/>
    </g>
    <g opacity="0.6">
      <path d="M8,12.51378v-0.0135C8,11.13935,8.62276,10,9.50417,10,10.38525,10,11,11.12586,11,12.48622v0.01406C11,13.86065,10.37724,15,9.49583,15,8.61475,15,8,13.8747,8,12.51378Zm2.26072,0v-0.0135c0-.93971-0.19519-1.85584-0.76489-1.85584s-0.72368.90263-.72368,1.84178v0.01406c0,0.93915.16233,1.78861,0.732,1.78861S10.26072,13.45293,10.26072,12.51378Z" fill="#231f20"/>
      <path d="M12.09551,10H12.843l1.36365,3.31967V10H15v5H14.32461l-1.43572-3.36066V15H12.09551V10Z" fill="#231f20"/>
    </g>
    <polygon points="7.444 14.001 6.444 14.696 6.444 12.185 7.444 13.001 7.444 14.001" fill="#231f20" opacity="0.6"/>
    <polygon points="5.533 12.663 5 12 5 11 5.533 10.374 5.533 12.663" fill="#231f20" opacity="0.6"/>
    <polygon points="7 15 4.329 15 5 14 7 14 7 15" fill="#231f20" opacity="0.6"/>
    <polygon points="7 11 5 11 5 10 7.376 10 7 11" fill="#231f20" opacity="0.6"/>
    <rect x="5" y="12" width="2" height="1" fill="#231f20" opacity="0.6"/>
    <rect x="4.53862" y="11" width="1" height="1" fill="#231f20" opacity="0.6"/>
    <rect x="6.44274" y="12.99933" width="0.55726" height="1" fill="#231f20" opacity="0.6"/>
  </g>
</svg>
