<svg id="Layer_1" data-name="Layer 1" xmlns="http://www.w3.org/2000/svg" viewBox="0 0 32 32">
  <title>json@2x</title>
  <g>
    <g>
      <polygon points="12 0 4 8 12 8 12 0" fill="#9aa7b0" opacity="0.7" style="isolation: isolate"/>
      <rect x="2" y="18" width="30" height="14" fill="#40b6e0" opacity="0.6"/>
      <polygon points="14 0 14 8 14 10 12 10 4 10 4 16 26 16 26 0 14 0" fill="#9aa7b0" opacity="0.7" style="isolation: isolate"/>
    </g>
    <path d="M11.94692,25.75c1.64355,0.416,1.99721.792,1.99721,1.48633v0.02734a1.34168,1.34168,0,0,1-1.56767,1.22168c-0.02613,0-.04848-0.00684-0.07419-0.00781v0.01367H9V29.999l3.30353-.00293L12.3263,29.999A2.85309,2.85309,0,0,0,15.5,27.09766v-0.0293c0-1.60937-.96151-2.3457-2.83226-2.8457-1.7072-.44434-2.11187-0.77832-2.11187-1.52832V22.666a1.2518,1.2518,0,0,1,1.44121-1.15234L12.03,21.50488v0.00293h2.42043V20H12.1796l-0.00126.01367C12.12481,20.01172,12.07675,20,12.02237,20A2.80781,2.80781,0,0,0,9,22.81934v0.02832C9,24.63867,10.0631,25.25,11.94692,25.75Z" fill="#231f20" opacity="0.6"/>
    <g opacity="0.6">
      <path d="M16,25.02756v-0.027C16,22.27871,17.476,20,19.565,20c2.08822,0,3.54522,2.25172,3.54522,4.97245v0.02812c0,2.72073-1.476,4.99944-3.565,4.99944C17.457,30,16,27.74941,16,25.02756Zm5.61111,0v-0.027c0-1.87943-.71566-3.43943-2.06589-3.43943s-1.98967,1.533-1.98967,3.41132v0.02812c0,1.8783.65922,3.42481,2.00944,3.42481S21.61111,26.90586,21.61111,25.02756Z" fill="#231f20"/>
    </g>
    <path d="M6.5,20v6.45068a1.76216,1.76216,0,0,1-1.77881,1.94385A1.93219,1.93219,0,0,1,3.4607,27.9364L3,29.59229A3.727,3.727,0,0,0,4.749,30a3.17832,3.17832,0,0,0,2.34229-.874A3.62569,3.62569,0,0,0,8,26.50684V20H6.5Z" fill="#231f20" opacity="0.6"/>
    <path d="M24.13546,20h1.49493l3.78285,6.77778V20H31V30H29.64923l-3.927-6.72222V30H24.13546V20Z" fill="#231f20" opacity="0.6"/>
  </g>
</svg>
