<svg id="Layer_1" data-name="Layer 1" xmlns="http://www.w3.org/2000/svg" width="32" height="32" viewBox="0 0 32 32">
  <title>manifest@2x</title>
  <g>
    <g>
      <polygon points="14 2 6 10 14 10 14 2" fill="#9aa7b0" opacity="0.8" style="isolation: isolate"/>
      <rect x="2" y="18" width="30" height="14" fill="#b99bf8" opacity="0.7"/>
      <polygon points="16 2 16 10 16 12 14 12 6 12 6 16 26 16 26 2 16 2" fill="#9aa7b0" opacity="0.8" style="isolation: isolate"/>
    </g>
    <g opacity="0.7">
      <path d="M5.171,20H7.04257l3.04292,4.72839L13.12842,20H15V30H13.24241V22.82889l-3.15692,4.71444h-.057l-3.129-4.68652V30H5.171Z" fill="#231f20"/>
    </g>
    <g opacity="0.7">
      <path d="M17,20h6.6115v1.60056H18.75759v2.72769h4.21066v1.60056H18.75759V30H17Z" fill="#231f20"/>
    </g>
  </g>
</svg>
