<svg id="Layer_1" data-name="Layer 1" xmlns="http://www.w3.org/2000/svg" viewBox="0 0 16 16">
  <title>manifest</title>
  <g>
    <rect x="1" y="9" width="15" height="7" fill="#b99bf8" opacity="0.5"/>
    <g opacity="0.6">
      <path d="M2.075,10H3.01082l1.52146,2.3642L6.05374,10H6.98953v5H6.11074V11.41445L4.53228,13.77166H4.50378l-1.5645-2.34326V15H2.075V10Z" fill="#231f20"/>
    </g>
    <g opacity="0.6">
      <path d="M8,10h3.30575v0.80028h-2.427v1.36385h2.10533v0.80028H8.87879V15H8V10Z" fill="#231f20"/>
    </g>
    <g>
      <polygon points="6 0 2 4 6 4 6 0" fill="#9aa7b0" opacity="0.7" style="isolation: isolate"/>
      <polygon points="7 0 7 4 7 5 6 5 2 5 2 8 13 8 13 0 7 0" fill="#9aa7b0" opacity="0.7" style="isolation: isolate"/>
    </g>
  </g>
</svg>
