<svg id="Layer_1" data-name="Layer 1" xmlns="http://www.w3.org/2000/svg" width="16" height="16" viewBox="0 0 16 16">
  <title>manifest</title>
  <g>
    <rect x="1" y="9" width="15" height="7" fill="#b99bf8" opacity="0.7"/>
    <g opacity="0.7">
      <path d="M2.075,10h.93579l1.52146,2.3642L6.05374,10h.93579v5H6.11074V11.41445L4.53228,13.77166h-.0285l-1.5645-2.34325V15H2.075Z" fill="#231f20"/>
    </g>
    <g opacity="0.7">
      <path d="M8,10h3.30575v.80028h-2.427v1.36385h2.10534v.80028H8.87879V15H8Z" fill="#231f20"/>
    </g>
    <polygon points="7 1 3 5 7 5 7 1" fill="#9aa7b0" opacity="0.8" style="isolation: isolate"/>
    <polygon points="8 1 8 5 8 6 7 6 3 6 3 8 13 8 13 1 8 1" fill="#9aa7b0" opacity="0.8" style="isolation: isolate"/>
  </g>
</svg>
