<svg width="16" height="16" version="1.1" viewBox="0 0 16 16" xmlns="http://www.w3.org/2000/svg">
 <g opacity=".7">
  <rect x="1" y="9" width="15" height="7" fill="#bc9662" opacity="1"/>
  <path d="m8 1v5h-5v2h10v-7z" fill="#99a8b0" opacity="1"/>
  <path d="m7 1v4h-4z" fill="#99a8b0" opacity="1"/>
  <g transform="matrix(1.18549 0 0 1.18549 .0214974 -2.54905)" fill="#231f20" opacity="1">
   <path d="m3.03106 12.3961h0.645396c0.387238 0 0.645396 0 0.774906-0.04345 0.085622-0.04259 0.171675-0.08562 0.257728-0.171675 0.086483-0.08606 0.086483-0.215132 0.086483-0.344212 0-0.129509-0.043457-0.258158-0.129079-0.344642-0.086053-0.08562-0.172536-0.128648-0.301185-0.171675h-1.33425zm-0.860528 2.49553v-4.30264h1.76451c0.430264 0 0.774045 0.04259 0.989177 0.129079 0.215132 0.08606 0.387668 0.215132 0.473291 0.430264 0.129509 0.215133 0.172106 0.430265 0.172106 0.688423 0 0.344211-0.086053 0.602369-0.257728 0.817501-0.172536 0.215133-0.473721 0.343781-0.817932 0.387238 0.172536 0.12908 0.344212 0.215132 0.473291 0.344212 0.12951 0.129079 0.301185 0.344211 0.473721 0.687992l0.516317 0.860529h-1.03306l-0.60237-0.946151c-0.215132-0.344642-0.386808-0.559774-0.430264-0.645397-0.085623-0.129509-0.171675-0.172105-0.258158-0.215132-0.086053-0.043028-0.215132-0.043028-0.430264-0.043028h-0.172106v1.80711z" opacity="1"/>
   <path d="m7.62676 13.0956c0.817072 0.171675 0.989608 0.344211 0.989608 0.645396s-0.301185 0.516317-0.774476 0.516317h-1.67803v0.688423h1.63457c0.947012 0 1.59241-0.473291 1.59241-1.2482 0-0.687992-0.473291-0.989177-1.41987-1.20431-0.860529-0.172105-1.03306-0.344211-1.03306-0.645395 0-0.258159 0.258589-0.516748 0.73188-0.516748h1.20431v-0.687992h-1.20431c-0.860528 0-1.50592 0.516317-1.50592 1.20474 0 0.774045 0.558913 1.03263 1.4629 1.24777" opacity="1"/>
  </g>
 </g>
</svg>
