<svg id="Layer_1" data-name="Layer 1" xmlns="http://www.w3.org/2000/svg" width="16" height="16" viewBox="0 0 16 16">
  <title>typeScript</title>
  <g>
    <g>
      <g>
        <polygon points="7 0.898 3 4.898 7 4.898 7 0.898" fill="#9aa7b0" opacity="0.8" style="isolation: isolate"/>
        <polygon points="8 0.898 8 4.898 8 5.898 7 5.898 3 5.898 3 7.898 13 7.898 13 0.898 8 0.898" fill="#9aa7b0" opacity="0.8" style="isolation: isolate"/>
      </g>
      <rect x="1" y="8.89844" width="15" height="7" fill="#40b6e0" opacity="0.7"/>
      <path d="M4.023,10.71268H2.59316V9.89844H6.251v.81424H4.82161v4.18576H4.023Z" fill="#231f20" opacity="0.7"/>
    </g>
    <path d="M8.70654,12.00977c-.1372-.03809-.25-.0752-.353-.11133H8v-.34229a.47435.47435,0,0,1-.09863-.31054v-.01416A.46725.46725,0,0,1,8,10.959v-.06055h.05371a.92006.92006,0,0,1,.68213-.24317l.019-.00439v.00146H10v-.7539H8.8418l-.001.00683c-.03125-.001-.05859-.00683-.09033-.00683C7.73242,9.89844,7,10.4751,7,11.30811v.01416c0,.8955.49463,1.20117,1.37158,1.45117a2.72778,2.72778,0,0,1,.3667.125H9v.16943a.61989.61989,0,0,1,.09766.44873A.40106.40106,0,0,1,9,13.76856v.12988H8.83789A1.5042,1.5042,0,0,1,8,14.14112c-.01514,0-1,.00292-1,.00292V14.898l1.01172-.001c1.07812-.0039,1.96387-.563,1.96387-1.4497C9.97559,12.60547,9.57715,12.25977,8.70654,12.00977Z" fill="#231f20" opacity="0.7"/>
  </g>
</svg>
