<svg id="Layer_1" data-name="Layer 1" xmlns="http://www.w3.org/2000/svg" width="32" height="32" viewBox="0 0 32 32">
  <title>typeScript@2x</title>
  <g>
    <g>
      <polygon points="14 2 6 10 14 10 14 2" fill="#9aa7b0" opacity="0.8" style="isolation: isolate"/>
      <rect x="2" y="18" width="30" height="14" fill="#40b6e0" opacity="0.7"/>
      <polygon points="16 2 16 10 16 12 14 12 6 12 6 16 26 16 26 2 16 2" fill="#9aa7b0" opacity="0.8" style="isolation: isolate"/>
    </g>
    <path d="M16.41357,25.75c1.90381.416,2.31348.792,2.31348,1.48633v.02734c0,.72266-.70361,1.22168-1.81592,1.22168-.03027,0-.05615-.00683-.08593-.00781v.01367H13V29.999l3.82666-.00293.02637.00293c2.16748,0,3.67627-1.082,3.67627-2.90136v-.0293c0-1.60938-1.11377-2.3457-3.28076-2.8457-1.97754-.44434-2.44629-.77832-2.44629-1.52832V22.666c0-.63868.61474-1.15235,1.66943-1.15235l.03809-.00879v.00293h2.80371V20H16.68311l-.00147.01367C16.61963,20.01172,16.564,20,16.501,20,14.46484,20,13,21.15332,13,22.81934v.02832C13,24.63867,14.23145,25.25,16.41357,25.75Z" fill="#231f20" opacity="0.7"/>
    <g opacity="0.7">
      <path d="M7.12729,21.62848H4V20h8v1.62848H8.87385V30H7.12729Z" fill="#231f20"/>
    </g>
  </g>
</svg>
