<svg id="Layer_1" data-name="Layer 1" xmlns="http://www.w3.org/2000/svg" width="16" height="16" viewBox="0 0 16 16">
  <title>unknown</title>
  <g>
    <polygon points="7 1 3 5 7 5 7 1" fill="#9aa7b0" opacity="0.8" style="isolation: isolate"/>
    <g>
      <path d="M15.81734,8.28864a1.90813,1.90813,0,0,0-.52075-.6994,2.34549,2.34549,0,0,0-.8235-.4375A3.64612,3.64612,0,0,0,13.38253,7c-.04443,0-.08789.008-.13233.00928C13.20235,7.0077,13.15914,7,13.10982,7a4.48733,4.48733,0,0,0-1.24341.1756,7.45616,7.45616,0,0,0-1.13941.4256l.47821.97414c.07447-.033.82309-.365,1.14877-.46823a3.35214,3.35214,0,0,1,.8479-.1415,2.02573,2.02573,0,0,1,.54932.079,1.26909,1.26909,0,0,1,.46216.2619,1.12783,1.12783,0,0,1,.28321.40479,1.3435,1.3435,0,0,1,.09765.52081,1.97822,1.97822,0,0,1-.06836.5506,1.54561,1.54561,0,0,1-.20825.4405,2.28376,2.28376,0,0,1-.36133.40479q-.22119.1994-.53393.44342a4.48233,4.48233,0,0,0-.54029.47918,2.19719,2.19719,0,0,0-.34179.46723,1.71976,1.71976,0,0,0-.17578.5119,3.49145,3.49145,0,0,0-.04883.6131v.22027h1.1775v-.10718a2.05027,2.05027,0,0,1,.04565-.45832,1.182,1.182,0,0,1,.16919-.38391,2.17239,2.17239,0,0,1,.33863-.3869q.215-.19939.55346-.46728.35157-.27978.61182-.52979a3.013,3.013,0,0,0,.43628-.51782,2.07541,2.07541,0,0,0,.26367-.58038,2.63105,2.63105,0,0,0,.08785-.71131A2.28587,2.28587,0,0,0,15.81734,8.28864Z" fill="#40b6e0"/>
      <path d="M11.13155,14.43257a1.67777,1.67777,0,0,1,.18457-.35058v-.93946a4.33485,4.33485,0,0,1,.06348-.78418,2.66478,2.66478,0,0,1,.28027-.81347,3.18472,3.18472,0,0,1,.50293-.68848,5.46819,5.46819,0,0,1,.6582-.584c.06641-.05176.117-.09815.17871-.14844V8.98824a2.32278,2.32278,0,0,0-.35351.07519c-.15234.04785-.55859.21484-1.02832.42285L10.739,9.875l-.43164-.85937L9.38155,7.12984l.91992-.43262a8.30874,8.30874,0,0,1,1.293-.4834,5.42947,5.42947,0,0,1,1.40527-.20605V1h-5V6h-5v9h8.01465A1.94251,1.94251,0,0,1,11.13155,14.43257Z" fill="#9aa7b0" opacity="0.8" style="isolation: isolate"/>
      <path d="M13.68843,14.52674a.67613.67613,0,0,0-.26367-.14288,1.142,1.142,0,0,0-.32226-.04462h-.27271a1.134,1.134,0,0,0-.32544.04462.65614.65614,0,0,0-.43628.3988,1.0108,1.0108,0,0,0-.06494.38391.99275.99275,0,0,0,.06494.378.714.714,0,0,0,.17578.25891.69256.69256,0,0,0,.2605.14887A1.06893,1.06893,0,0,0,12.82979,16h.27271a1.07663,1.07663,0,0,0,.32226-.0476.68705.68705,0,0,0,.26367-.14886.70787.70787,0,0,0,.17578-.25892.98776.98776,0,0,0,.06519-.378,1.00561,1.00561,0,0,0-.06519-.38391A.67947.67947,0,0,0,13.68843,14.52674Z" fill="#40b6e0"/>
    </g>
  </g>
</svg>
