<svg id="Layer_1" data-name="Layer 1" xmlns="http://www.w3.org/2000/svg" viewBox="0 0 32 32">
  <title>unknown@2x</title>
  <g>
    <polygon points="12 0 4 8 12 8 12 0" fill="#9aa7b0" opacity="0.7" style="isolation: isolate"/>
    <g>
      <path d="M31.63525,16.57738a3.816,3.816,0,0,0-1.0415-1.3988,4.69061,4.69061,0,0,0-1.647-.875A7.2915,7.2915,0,0,0,26.76563,14c-0.08887,0-.17578.016-0.26465,0.01855C26.40527,14.01549,26.31885,14,26.22021,14a8.974,8.974,0,0,0-2.48682.3512,14.91168,14.91168,0,0,0-2.27881.8512L22.411,17.15067c0.14893-.066,1.64617-0.73,2.29754-0.93645a6.70289,6.70289,0,0,1,1.6958-.283,4.0515,4.0515,0,0,1,1.09863.158,2.53794,2.53794,0,0,1,.92432.5238,2.2553,2.2553,0,0,1,.56641.80957,2.6871,2.6871,0,0,1,.19531,1.04163,3.95671,3.95671,0,0,1-.13672,1.1012,3.09135,3.09135,0,0,1-.4165.881,4.56737,4.56737,0,0,1-.72266.80957q-0.44238.3988-1.06787,0.88684a8.96427,8.96427,0,0,0-1.08057.95837,4.39472,4.39472,0,0,0-.68359.93445,3.44,3.44,0,0,0-.35156,1.0238,6.98635,6.98635,0,0,0-.09766,1.2262v0.44054h2.355V26.51183a4.1004,4.1004,0,0,1,.09131-0.91663,2.3639,2.3639,0,0,1,.33838-0.76782,4.34519,4.34519,0,0,1,.67725-0.7738q0.42993-.3988,1.10693-0.93457,0.70313-.55957,1.22363-1.05957a6.026,6.026,0,0,0,.87256-1.03564,4.15015,4.15015,0,0,0,.52734-1.16077A5.26178,5.26178,0,0,0,32,18.44042,4.57191,4.57191,0,0,0,31.63525,16.57738Z" fill="#40b6e0"/>
      <path d="M22.26367,28.86523a3.35591,3.35591,0,0,1,.36914-0.70117V26.28516a8.66941,8.66941,0,0,1,.127-1.56836,5.32943,5.32943,0,0,1,.56055-1.627,6.36969,6.36969,0,0,1,1.00586-1.377,10.93621,10.93621,0,0,1,1.31641-1.168c0.13281-.10352.23389-0.19629,0.35742-0.29687V17.97656a4.64566,4.64566,0,0,0-.707.15039c-0.30469.0957-1.11719,0.42969-2.05664,0.8457L21.47852,19.75l-0.86328-1.71875-1.85156-3.77148,1.83984-.86523a16.61626,16.61626,0,0,1,2.58594-.9668A10.8596,10.8596,0,0,1,26,12.01563V0H14V10H4V30H22.0293A3.88453,3.88453,0,0,1,22.26367,28.86523Z" fill="#9aa7b0" opacity="0.7" style="isolation: isolate"/>
      <path d="M27.37744,29.05358a1.35215,1.35215,0,0,0-.52734-0.28577,2.28412,2.28412,0,0,0-.64453-0.08923H25.66016a2.26755,2.26755,0,0,0-.65088.08923,1.31226,1.31226,0,0,0-.87256.79761,2.02124,2.02124,0,0,0-.12988.76782,1.98534,1.98534,0,0,0,.12988.756,1.42789,1.42789,0,0,0,.35156.51782,1.3851,1.3851,0,0,0,.521.29773A2.13755,2.13755,0,0,0,25.66016,32h0.54541a2.15334,2.15334,0,0,0,.64453-0.09521,1.37426,1.37426,0,0,0,.52734-0.29773,1.41591,1.41591,0,0,0,.35156-0.51782,1.97558,1.97558,0,0,0,.13037-0.756,2.01136,2.01136,0,0,0-.13037-0.76782A1.35907,1.35907,0,0,0,27.37744,29.05358Z" fill="#40b6e0"/>
    </g>
  </g>
</svg>
