<svg id="Layer_1" data-name="Layer 1" xmlns="http://www.w3.org/2000/svg" viewBox="0 0 16 16">
  <title>unknown</title>
  <g>
    <polygon points="6 0 2 4 6 4 6 0" fill="#9aa7b0" opacity="0.7" style="isolation: isolate"/>
    <g>
      <path d="M15.81763,8.28864a1.908,1.908,0,0,0-.52075-0.6994,2.34531,2.34531,0,0,0-.8235-0.4375A3.64575,3.64575,0,0,0,13.38282,7c-0.04443,0-.08789.008-0.13233,0.00927C13.20263,7.0077,13.15942,7,13.1101,7a4.487,4.487,0,0,0-1.24341.1756,7.45584,7.45584,0,0,0-1.13941.4256L11.2055,8.57529c0.07446-.033.82308-0.365,1.14877-0.46823a3.35145,3.35145,0,0,1,.8479-0.1415,2.02575,2.02575,0,0,1,.54932.079,1.269,1.269,0,0,1,.46216.2619,1.12765,1.12765,0,0,1,.28321.40479,1.34355,1.34355,0,0,1,.09766.52081,1.97836,1.97836,0,0,1-.06836.5506,1.54568,1.54568,0,0,1-.20825.4405,2.28368,2.28368,0,0,1-.36133.40479q-0.22119.1994-.53393,0.44342a4.48213,4.48213,0,0,0-.54029.47919,2.19736,2.19736,0,0,0-.34179.46723,1.72,1.72,0,0,0-.17578.5119,3.49318,3.49318,0,0,0-.04883.6131V13.363h1.1775V13.25587a2.0502,2.0502,0,0,1,.04566-0.45831,1.182,1.182,0,0,1,.16919-0.38391,2.1726,2.1726,0,0,1,.33862-0.3869q0.215-.1994.55346-0.46729,0.35156-.27979.61181-0.52979a3.013,3.013,0,0,0,.43628-0.51782,2.07507,2.07507,0,0,0,.26367-0.58039A2.63089,2.63089,0,0,0,16,9.22016,2.286,2.286,0,0,0,15.81763,8.28864Z" fill="#40b6e0"/>
      <path d="M11.13184,14.43257a1.678,1.678,0,0,1,.18457-0.35059V13.14253a4.3347,4.3347,0,0,1,.06348-0.78418,2.66472,2.66472,0,0,1,.28027-0.81348,3.18484,3.18484,0,0,1,.50293-0.68848,5.46811,5.46811,0,0,1,.6582-0.584C12.8877,10.22066,12.93823,10.17427,13,10.124V8.98824a2.32283,2.32283,0,0,0-.35352.0752c-0.15234.04785-.55859,0.21484-1.02832,0.42285L10.73926,9.875l-0.43164-.85937L9.38184,7.12984l0.91992-.43262a8.30813,8.30813,0,0,1,1.293-.4834A5.4298,5.4298,0,0,1,13,6.00777V0H7V5H2V15h9.01465A1.94226,1.94226,0,0,1,11.13184,14.43257Z" fill="#9aa7b0" opacity="0.7" style="isolation: isolate"/>
      <path d="M13.68872,14.52674a0.67607,0.67607,0,0,0-.26367-0.14289,1.14206,1.14206,0,0,0-.32226-0.04461H12.83008a1.13377,1.13377,0,0,0-.32544.04461,0.65613,0.65613,0,0,0-.43628.3988,1.01062,1.01062,0,0,0-.06494.38391,0.99267,0.99267,0,0,0,.06494.378,0.714,0.714,0,0,0,.17578.25891,0.69255,0.69255,0,0,0,.2605.14886A1.06877,1.06877,0,0,0,12.83008,16h0.27271a1.07667,1.07667,0,0,0,.32226-0.0476,0.68713,0.68713,0,0,0,.26367-0.14886,0.708,0.708,0,0,0,.17578-0.25891,0.98779,0.98779,0,0,0,.06518-0.378,1.00568,1.00568,0,0,0-.06518-0.38391A0.67954,0.67954,0,0,0,13.68872,14.52674Z" fill="#40b6e0"/>
    </g>
  </g>
</svg>
