<svg id="Layer_1" data-name="Layer 1" xmlns="http://www.w3.org/2000/svg" viewBox="0 0 16 16">
  <title>wsdlFile</title>
  <g>
    <rect x="1" y="9" width="15" height="7" fill="#40b6e0" opacity="0.6"/>
    <g>
      <polygon points="6 0 2 4 6 4 6 0" fill="#9aa7b0" opacity="0.7" style="isolation: isolate"/>
      <polygon points="7 0 7 4 7 5 6 5 2 5 2 8 13 8 13 0 7 0" fill="#9aa7b0" opacity="0.7" style="isolation: isolate"/>
    </g>
    <path d="M2,10H3.6496A2.34381,2.34381,0,0,1,6,12.48575v0.01454A2.35566,2.35566,0,0,1,3.6496,15H2V10Zm0.77746,0.80028v3.39944H3.6496A1.539,1.539,0,0,0,5.185,12.51425v-0.014a1.5514,1.5514,0,0,0-1.53537-1.7H2.77746Z" fill="#231f20" opacity="0.6"/>
    <g opacity="0.6">
      <path d="M7,10H7.87879v4.19972H10.507V15H7V10Z" fill="#231f20"/>
    </g>
  </g>
</svg>
