<svg id="Layer_1" data-name="Layer 1" xmlns="http://www.w3.org/2000/svg" width="16" height="16" viewBox="0 0 16 16">
  <title>wsdlFile</title>
  <g>
    <rect x="1" y="9" width="15" height="7" fill="#40b6e0" opacity="0.7"/>
    <g>
      <polygon points="7 1 3 5 7 5 7 1" fill="#9aa7b0" opacity="0.8" style="isolation: isolate"/>
      <polygon points="8 1 8 5 8 6 7 6 3 6 3 8 13 8 13 1 8 1" fill="#9aa7b0" opacity="0.8" style="isolation: isolate"/>
    </g>
    <path d="M3.64941,10H2v5H3.64941q.07179,0,.14356-.00439A2.35207,2.35207,0,0,0,6,12.66671c.00047-.05519,0-.37423,0-.37423A2.30108,2.30108,0,0,0,3.64941,10Zm0,4.19971H2.77734V10.80029h.87207c.04688,0,.09375.00244.14014.00684A1.552,1.552,0,0,1,5.18506,12.5v.01416c.00488.0498.00683.1001.00683.1499A1.53894,1.53894,0,0,1,3.64941,14.19971Z" fill="#231f20" opacity="0.7"/>
    <g opacity="0.7">
      <path d="M7,10h.87879v4.19972H10.507V15H7Z" fill="#231f20"/>
    </g>
  </g>
</svg>
