<svg id="Layer_1" data-name="Layer 1" xmlns="http://www.w3.org/2000/svg" viewBox="0 0 32 32">
  <title>xsdFile@2x</title>
  <g>
    <g>
      <polygon points="12 0 4 8 12 8 12 0" fill="#9aa7b0" opacity="0.7" style="isolation: isolate"/>
      <rect x="2" y="18" width="30" height="14" fill="#f4af3d" opacity="0.6"/>
      <polygon points="14 0 14 8 14 10 12 10 4 10 4 16 26 16 26 0 14 0" fill="#9aa7b0" opacity="0.7" style="isolation: isolate"/>
    </g>
    <path d="M16.88428,25.75c1.90381,0.416,2.31348.792,2.31348,1.48633v0.02734c0,0.72266-.70361,1.22168-1.81592,1.22168-0.03027,0-.05615-0.00684-0.08594-0.00781v0.01367H13.4707V29.999l3.82666-.00293L17.32373,29.999C19.49121,29.999,21,28.917,21,27.09766v-0.0293c0-1.60937-1.11377-2.3457-3.28076-2.8457-1.97754-.44434-2.44629-0.77832-2.44629-1.52832V22.666c0-.63867.61475-1.15234,1.66943-1.15234l0.03809-.00879v0.00293h2.80371V20H17.15381l-0.00146.01367C17.09033,20.01172,17.03467,20,16.97168,20c-2.03613,0-3.501,1.15332-3.501,2.81934v0.02832C13.4707,24.63867,14.70215,25.25,16.88428,25.75Z" fill="#231f20" opacity="0.6"/>
    <path d="M22,20h3.2992A4.68763,4.68763,0,0,1,30,24.9715v0.02908A4.71131,4.71131,0,0,1,25.2992,30H22V20Zm1.55493,1.60056v6.79888H25.2992A3.078,3.078,0,0,0,28.37,25.0285V25.00058a3.10281,3.10281,0,0,0-3.07075-3.4H23.55493Z" fill="#231f20" opacity="0.6"/>
    <g opacity="0.6">
      <path d="M13.05243,20L9.62777,24.88543,13.193,30H11.15784l-2.5962-3.81412L5.97915,30H4l3.5515-5.0855L4.14055,20H6.17569l2.44194,3.62917L11.07328,20h1.97915Z" fill="#231f20"/>
    </g>
  </g>
</svg>
