<svg id="Layer_1" data-name="Layer 1" xmlns="http://www.w3.org/2000/svg" width="32" height="32" viewBox="0 0 32 32">
  <title>xsdFile@2x</title>
  <g>
    <g>
      <polygon points="14 2 6 10 14 10 14 2" fill="#9aa7b0" opacity="0.8" style="isolation: isolate"/>
      <rect x="2" y="18" width="30" height="14" fill="#f4af3d" opacity="0.7"/>
      <polygon points="16 2 16 10 16 12 14 12 6 12 6 16 26 16 26 2 16 2" fill="#9aa7b0" opacity="0.8" style="isolation: isolate"/>
    </g>
    <path d="M16.88428,25.75c1.90381.416,2.31347.792,2.31347,1.48633v.02734c0,.72266-.70361,1.22168-1.81591,1.22168-.03028,0-.05616-.00683-.08594-.00781v.01367H13.4707V29.999l3.82666-.00293.02637.00293C19.49121,29.999,21,28.917,21,27.09766v-.0293c0-1.60938-1.11377-2.3457-3.28076-2.8457-1.97754-.44434-2.44629-.77832-2.44629-1.52832V22.666c0-.63868.61475-1.15235,1.66943-1.15235l.03809-.00879v.00293h2.80371V20H17.15381l-.00147.01367c-.062-.002-.11767-.01367-.18066-.01367-2.03613,0-3.501,1.15332-3.501,2.81934v.02832C13.4707,24.63867,14.70215,25.25,16.88428,25.75Z" fill="#231f20" opacity="0.7"/>
    <path d="M22,20h3.2992A4.68763,4.68763,0,0,1,30,24.9715v.02908A4.71132,4.71132,0,0,1,25.2992,30H22Zm1.55493,1.60056v6.79888H25.2992A3.078,3.078,0,0,0,28.37,25.0285v-.02792a3.1028,3.1028,0,0,0-3.07075-3.4Z" fill="#231f20" opacity="0.7"/>
    <g opacity="0.7">
      <path d="M13.05243,20,9.62777,24.88543,13.193,30H11.15784l-2.5962-3.81412L5.97915,30H4l3.5515-5.08549L4.14055,20H6.17569l2.44194,3.62917L11.07328,20Z" fill="#231f20"/>
    </g>
  </g>
</svg>
