<svg id="Layer_1" data-name="Layer 1" xmlns="http://www.w3.org/2000/svg" width="16" height="16" viewBox="0 0 16 16">
  <title>xsdFile</title>
  <g>
    <polygon points="7 1 3 5 7 5 7 1" fill="#9aa7b0" opacity="0.8" style="isolation: isolate"/>
    <rect x="1" y="9" width="15" height="7" fill="#f4af3d" opacity="0.7"/>
    <path d="M8.70654,12.11133c-.1372-.03809-.25-.0752-.353-.11133H8v-.34229a.47435.47435,0,0,1-.09863-.31054V11.333A.46725.46725,0,0,1,8,11.06055V11h.05371a.92009.92009,0,0,1,.68213-.24316l.019-.0044v.00147H10V10H8.8418l-.001.00684C8.80957,10.00586,8.78223,10,8.75049,10,7.73242,10,7,10.57666,7,11.40967v.01416c0,.89551.49463,1.20117,1.37158,1.45117a2.7292,2.7292,0,0,1,.3667.125H9v.16943a.61989.61989,0,0,1,.09766.44873A.40106.40106,0,0,1,9,13.87012V14H8.83789A1.5042,1.5042,0,0,1,8,14.24268c-.01514,0-1,.00293-1,.00293v.7539l1.01172-.001c1.07812-.00391,1.96387-.563,1.96387-1.44971C9.97559,12.707,9.57715,12.36133,8.70654,12.11133Z" fill="#231f20" opacity="0.7"/>
    <g opacity="0.7">
      <path d="M5.93956,10l-1.4728,2.44271L6,15H4.963l-.95469-1.90706L2.98148,15h-.935l1.52734-2.54275L2.107,10H3.066l.96634,1.81459L4.963,10Z" fill="#231f20"/>
    </g>
    <polygon points="8 1 8 5 8 6 7 6 3 6 3 8 13 8 13 1 8 1" fill="#9aa7b0" opacity="0.8" style="isolation: isolate"/>
  </g>
</svg>
