<svg id="Layer_1" data-name="Layer 1" xmlns="http://www.w3.org/2000/svg" viewBox="0 0 16 16">
  <title>xsdFile</title>
  <g>
    <g>
      <polygon points="6 0 2 4 6 4 6 0" fill="#9aa7b0" opacity="0.7" style="isolation: isolate"/>
      <rect x="1" y="9" width="15" height="7" fill="#f4af3d" opacity="0.6"/>
      <polygon points="7 0 7 4 7 5 6 5 2 5 2 8 13 8 13 0 7 0" fill="#9aa7b0" opacity="0.7" style="isolation: isolate"/>
    </g>
    <path d="M8.5868,12.875c0.885,0.208,1.07542.396,1.07542,0.74316v0.01367a0.70985,0.70985,0,0,1-.84413.61084c-0.01407,0-.0261-0.00342-0.03995-0.00391v0.00684H7.41492v0.75391L8.77883,14.998l0.01226,0.00146A1.49414,1.49414,0,0,0,10.5,13.54883V13.53418c0-.80469-0.51774-1.17285-1.52506-1.42285-0.91926-.22217-1.13716-0.38916-1.13716-0.76416V11.333a0.66074,0.66074,0,0,1,.776-0.57617l0.0177-.00439v0.00146H9.93482V10H8.71209l-0.00068.00684C8.68259,10.00586,8.65671,10,8.62743,10A1.46814,1.46814,0,0,0,7,11.40967v0.01416C7,12.31934,7.57244,12.625,8.5868,12.875Z" fill="#231f20" opacity="0.6"/>
    <path d="M11,10h1.6496A2.34381,2.34381,0,0,1,15,12.48575v0.01454A2.35566,2.35566,0,0,1,12.6496,15H11V10Zm0.77746,0.80028v3.39944H12.6496A1.539,1.539,0,0,0,14.185,12.51425v-0.014a1.5514,1.5514,0,0,0-1.53537-1.7H11.77746Z" fill="#231f20" opacity="0.6"/>
    <g opacity="0.6">
      <path d="M6.52622,10L4.81389,12.44271,6.59649,15H5.57892l-1.2981-1.90706L2.98957,15H2l1.77575-2.54275L2.07028,10H3.08785l1.221,1.81459L5.53664,10H6.52622Z" fill="#231f20"/>
    </g>
  </g>
</svg>
