<svg xmlns="http://www.w3.org/2000/svg" width="16" height="16" viewBox="0 0 16 16">
  <g fill="none" fill-rule="evenodd">
    <polygon fill="#9AA7B0" fill-opacity=".8" points="7 1 3 5 7 5"/>
    <polygon fill="#9AA7B0" fill-opacity=".8" points="9 14 10 14 10 11 9 11"/>
    <polygon fill="#9AA7B0" fill-opacity=".8" points="10 8 13 8 13 1 8 1 8 6 10 6"/>
    <polygon fill="#9AA7B0" fill-opacity=".8" points="3 15 6 15 6 6 3 6"/>
    <polygon fill="#9AA7B0" points="14 7 14 8 15 8 15 15 14 15 14 16 16 16 16 7"/>
    <polygon fill="#9AA7B0" points="7 7 7 16 9.001 16 9.001 15 8.001 15 8.001 8 9.001 8 9.001 7"/>
    <polygon fill="#9AA7B0" points="11.02 9.977 9.296 9.977 9.296 8.999 13.704 8.999 13.704 9.977 11.982 9.977 11.982 14.999 11.02 14.999"/>
  </g>
</svg>
