<!-- Copyright 2000-2022 JetBrains s.r.o. and contributors. Use of this source code is governed by the Apache 2.0 license. -->
<svg width="13" height="13" viewBox="0 0 13 13" fill="none" xmlns="http://www.w3.org/2000/svg">
<path fill-rule="evenodd" clip-rule="evenodd" d="M7.4995 7.50919L8.9604 8.97009C8.2832 9.64895 7.33142 10.0484 6.29848 9.99425C4.71514 9.91127 3.43287 8.78837 3.07885 7.32208L1.53605 7.24123C1.87924 9.54459 3.80433 11.3656 6.21997 11.4922C7.69477 11.5695 9.05374 10.9996 10.0211 10.0308L11.4995 11.5092L11.4995 7.50919L7.4995 7.50919ZM11.4273 5.75686C11.0841 3.4535 9.15897 1.6325 6.74333 1.5059C5.27244 1.42881 3.91677 1.99552 2.94994 2.95963L1.4995 1.50919L1.4995 5.50919L5.4995 5.50919L4.01061 4.0203C4.68732 3.34612 5.63579 2.94991 6.66483 3.00384C8.24817 3.08682 9.53043 4.20972 9.88445 5.67601L11.4273 5.75686Z" fill="#6E6E6E"/>
</svg>
