<!-- Copyright 2000-2023 JetBrains s.r.o. and contributors. Use of this source code is governed by the Apache 2.0 license. -->
<svg xmlns="http://www.w3.org/2000/svg" width="13" height="13" viewBox="0 0 13 13">
  <title>toolWindowInternal_dark</title>
  <g>
    <g opacity="0">
      <rect width="13" height="13" fill="#ffdaff"/>
    </g>
    <g>
      <path d="M2.293,10.293,8.177,4.409A2.473,2.473,0,0,1,8,3.5,2.5,2.5,0,0,1,10.5,1a2.473,2.473,0,0,1,.909.177L9.593,2.993l1.414,1.414,1.816-1.816A2.473,2.473,0,0,1,13,3.5,2.5,2.5,0,0,1,10.5,6a2.473,2.473,0,0,1-.909-.177L3.707,11.707a1,1,0,1,1-1.414-1.414Z" fill="#afb1b3"/>
      <g>
        <path d="M9.121,7.707,7.707,9.121l2.586,2.586a1,1,0,1,0,1.414-1.414Z" fill="#afb1b3"/>
        <path d="M3.5,6a2.473,2.473,0,0,0,.909-.177L6.293,7.707,7.707,6.293,5.823,4.409A2.473,2.473,0,0,0,6,3.5,2.5,2.5,0,0,0,3.5,1a2.473,2.473,0,0,0-.909.177L4.407,2.993,2.993,4.407,1.177,2.591A2.473,2.473,0,0,0,1,3.5,2.5,2.5,0,0,0,3.5,6Z" fill="#afb1b3"/>
      </g>
    </g>
  </g>
</svg>
