<svg xmlns="http://www.w3.org/2000/svg" width="13" height="13" viewBox="0 0 13 13">
  <g fill="#737373" fill-rule="evenodd">
    <rect width="2" height="5.657" x="8.9" y="6.869" transform="rotate(-45 9.9 9.697)"/>
    <path d="M5,9.5 C2.51471863,9.5 0.5,7.48528137 0.5,5 C0.5,2.51471863 2.51471863,0.5 5,0.5 C7.48528137,0.5 9.5,2.51471863 9.5,5 C9.5,7.48528137 7.48528137,9.5 5,9.5 Z M5,7.7 C6.49116882,7.7 7.7,6.49116882 7.7,5 C7.7,3.50883118 6.49116882,2.3 5,2.3 C3.50883118,2.3 2.3,3.50883118 2.3,5 C2.3,6.49116882 3.50883118,7.7 5,7.7 Z"/>
  </g>
</svg>
