<svg xmlns="http://www.w3.org/2000/svg" width="13" height="13" viewBox="0 0 13 13">
  <path fill="#AFB1B3" fill-rule="evenodd" d="M4.28950814,10.2170616 C3.76180329,9.81106071 3.36036806,9.24902996 3.15423314,8.60000002 L2.9000001,8.60000002 C2.62385772,8.60000002 2.4000001,8.3761424 2.4000001,8.10000002 L2.4000001,7.5 C2.4000001,7.22385763 2.62385772,7 2.9000001,7 L3.00596113,7 C3.01568863,6.83727879 3.03720741,6.67773432 3.06967457,6.52220932 C3.04090061,6.38161107 3.02084121,6.21373692 3.00986573,6 L1.5,6 L1.5,5 L3,5 L3,3.43569091 C3,2.58874812 3.08818433,2.2816262 3.25377607,1.97199657 C3.4193678,1.66236694 3.66236694,1.4193678 3.97199657,1.25377607 C4.2816262,1.08818433 4.58874812,1 5.43569091,1 L7.56430909,1 C8.41125188,1 8.7183738,1.08818433 9.02800343,1.25377607 C9.33763306,1.4193678 9.5806322,1.66236694 9.74622393,1.97199657 C9.91181567,2.2816262 10,2.58874812 10,3.43569091 L10,5 L11.5,5 L11.5,6 L9.99013427,6 C9.97915879,6.21373692 9.95909939,6.38161107 9.93032543,6.52220932 C9.96279259,6.67773432 9.98431137,6.83727879 9.99403898,6.99999992 L10.0999999,7 C10.3761423,7 10.5999999,7.22385763 10.5999999,7.5 L10.5999999,8.10000002 C10.5999999,8.3761424 10.3761423,8.60000002 10.0999999,8.60000002 L9.84576686,8.60000002 C9.63963194,9.24902996 9.23819671,9.81106071 8.71049186,10.2170616 C10.5664554,10.6420122 11,11.5789094 11,12 L2,12 C2,11.5789094 2.43354458,10.6420122 4.28950814,10.2170616 Z"/>
</svg>
