<svg xmlns="http://www.w3.org/2000/svg" width="13" height="13" viewBox="0 0 13 13">
  <g fill="none" fill-rule="evenodd">
    <path fill="#AFB1B3" d="M5.49817462,2.3981746 L5.49817462,3.79817457 L3.49817462,3.79817457 C2.06223426,3.79817457 0.898174598,4.96223424 0.898174598,6.3981746 C0.898174598,7.83411496 2.06223426,8.99817462 3.49817462,8.99817462 L5.49817462,8.99817462 L5.49817462,10.3981746 L3.49817462,10.3981746 C1.28903562,10.3981746 -0.501825378,8.6073136 -0.501825378,6.3981746 C-0.501825378,4.1890356 1.28903562,2.3981746 3.49817462,2.3981746 L5.49817462,2.3981746 Z M7.49817462,2.3981746 L9.49817462,2.3981746 C11.7073136,2.3981746 13.4981746,4.1890356 13.4981746,6.3981746 C13.4981746,8.6073136 11.7073136,10.3981746 9.49817462,10.3981746 L7.49817462,10.3981746 L7.49817462,8.99817462 L9.49817462,8.99817462 C10.934115,8.99817462 12.0981746,7.83411496 12.0981746,6.3981746 C12.0981746,4.96223424 10.934115,3.79817457 9.49817462,3.79817457 L7.49817462,3.79817457 L7.49817462,2.3981746 Z" transform="rotate(-45 6.498 6.398)"/>
    <rect width="6" height="2" x="3.498" y="5.398" fill="#AFB1B3" transform="rotate(-45 6.498 6.398)"/>
  </g>
</svg>
