<!-- Copyright 2000-2021 JetBrains s.r.o. Use of this source code is governed by the Apache 2.0 license that can be found in the LICENSE file. -->
<svg xmlns="http://www.w3.org/2000/svg" width="13" height="13" viewBox="0 0 13 13">
  <g fill="none" fill-rule="evenodd">
    <path fill="#6E6E6E" d="M10.3618201,4.56666667 L9.12283684,4.56666667 C8.81986328,2.67272049 7.1785532,1.22557823 5.19924493,1.22557823 C3.00464941,1.22557823 1.22557823,3.00464941 1.22557823,5.19924493 C1.22557823,7.39384045 3.00464941,9.17291163 5.19924493,9.17291163 C5.47354202,9.17291163 5.74134784,9.14511919 6,9.09219668 L6,10.3388415 C5.73922409,10.3791082 5.47205182,10.4 5.2,10.4 C2.3281193,10.4 0,8.0718807 0,5.2 C0,2.3281193 2.3281193,0 5.2,0 C7.85749189,0 10.0493768,1.99350045 10.3618201,4.56666667 Z"/>
    <rect width="1" height="2.724" x="4.992" y="2.77" fill="#6E6E6E"/>
    <polygon fill="#6E6E6E" points="5.284 4.787 5.99 5.494 4.066 7.42 3.36 6.712"/>
    <polygon fill="#6E6E6E" points="7 4.767 13 8.767 7 12.767"/>
  </g>
</svg>
