<svg xmlns="http://www.w3.org/2000/svg" width="13" height="13" viewBox="0 0 13 13">
  <g fill="#6E6E6E" fill-rule="evenodd">
    <rect width="2" height="5.657" x="8.9" y="6.869" transform="rotate(-45 9.9 9.697)"/>
    <path d="M5.25,10 C2.62664744,10 0.5,7.87335256 0.5,5.25 C0.5,2.62664744 2.62664744,0.5 5.25,0.5 C7.87335256,0.5 10,2.62664744 10,5.25 C10,7.87335256 7.87335256,10 5.25,10 Z M5.25,8.1 C6.82401154,8.1 8.1,6.82401154 8.1,5.25 C8.1,3.67598846 6.82401154,2.4 5.25,2.4 C3.67598846,2.4 2.4,3.67598846 2.4,5.25 C2.4,6.82401154 3.67598846,8.1 5.25,8.1 Z"/>
  </g>
</svg>
