<svg xmlns="http://www.w3.org/2000/svg" width="13" height="13" viewBox="0 0 13 13">
  <g fill="none" fill-rule="evenodd">
    <path fill="#AFB1B3" d="M10.3618201,4.56666667 L9.12283684,4.56666667 C8.81986328,2.67272049 7.1785532,1.22557823 5.19924493,1.22557823 C3.00464941,1.22557823 1.22557823,3.00464941 1.22557823,5.19924493 C1.22557823,7.32702752 2.89797319,9.06420133 5,9.16800328 L5,10.3962246 C2.22080564,10.2911247 0,8.0049108 0,5.2 C0,2.3281193 2.3281193,0 5.2,0 C7.85749189,0 10.0493768,1.99350045 10.3618201,4.56666667 Z"/>
    <rect width="1" height="2.724" x="4.992" y="2.77" fill="#AFB1B3"/>
    <polygon fill="#AFB1B3" points="5.284 4.787 5.99 5.494 4.066 7.42 3.36 6.712"/>
    <polygon fill="#AFB1B3" points="7 4.767 13 8.767 7 12.767"/>
  </g>
</svg>
