<svg xmlns="http://www.w3.org/2000/svg" width="13" height="13" viewBox="0 0 13 13">
  <g fill="#AFB1B3" fill-rule="evenodd" transform="translate(1 .6)">
    <path fill-rule="nonzero" d="M1.5,11.3 L0.5,11.3 L0.5,8.5 C0.5,7.88595235 1.71359019,6.9150802 4.72026357,4.88557567 L5.27973643,5.71442435 C3.95663473,6.60751799 2.96647461,7.31713274 2.31234752,7.84043441 C1.9950885,8.09424163 1.76058121,8.30138973 1.61206897,8.45732759 C1.5324374,8.54094073 1.5,8.5912187 1.5,8.5 L1.5,11.3 Z"/>
    <path fill-rule="nonzero" d="M6.5,11.3 L5.5,11.3 L5.5,8.5 C5.5,7.88595235 6.71359019,6.9150802 9.72026357,4.88557567 L10.2797364,5.71442435 C8.95663473,6.60751799 7.96647461,7.31713274 7.31234752,7.84043441 C6.9950885,8.09424163 6.76058121,8.30138973 6.61206897,8.45732759 C6.5324374,8.54094073 6.5,8.5912187 6.5,8.5 L6.5,11.3 Z" transform="matrix(-1 0 0 1 15.78 0)"/>
    <circle cx="5.5" cy="2" r="2"/>
    <ellipse cx="5.5" cy="5.25" rx="1.5" ry="1.65"/>
    <path d="M5.5,11.3000002 C6.88071187,11.3000002 8,10.8807119 8,9.5 C8,9.03413577 7.64454187,8.05121568 7,7.30000001 C6.51205558,6.73129919 5.74221702,6.30000019 5.5,6.30000019 C5.17165544,6.30000019 4.47846273,6.69730257 4,7.30000001 C3.37970741,8.08135399 3,9.14620648 3,9.5 C3,10.8807119 4.11928813,11.3000002 5.5,11.3000002 Z"/>
    <path fill-rule="nonzero" d="M4.6131312,3.91296672 L4.3868688,4.88703311 C2.64608835,4.48267342 1.46148137,3.39528538 0.555108756,1.62819234 L1.44489124,1.1718075 C2.22758168,2.69776581 3.19173962,3.58279674 4.6131312,3.91296672 Z"/>
    <path fill-rule="nonzero" d="M10.1131312,3.91296672 L9.8868688,4.88703311 C8.14608835,4.48267342 6.96148137,3.39528538 6.05510876,1.62819234 L6.94489124,1.1718075 C7.72758168,2.69776581 8.69173962,3.58279674 10.1131312,3.91296672 Z" transform="matrix(-1 0 0 1 16.168 0)"/>
    <rect width="9.6" height="1" x=".7" y="4.7"/>
  </g>
</svg>
