<!-- Copyright 2000-2021 JetBrains s.r.o. Use of this source code is governed by the Apache 2.0 license that can be found in the LICENSE file. -->
<svg width="13" height="13" viewBox="0 0 13 13" fill="none" xmlns="http://www.w3.org/2000/svg">
<path fill-rule="evenodd" clip-rule="evenodd" d="M5.237 11C3.224 10.6636 2.663 9.99065 2.663 8.91822C2.663 8.76051 2.696 8.3715 2.696 8.19276C2.696 7.37266 2.344 7.10981 1.486 7.10981H1V5.89019H1.486C2.344 5.89019 2.696 5.62734 2.696 4.80724C2.696 4.6285 2.663 4.23949 2.663 4.08178C2.663 3.00935 3.224 2.33645 5.237 2L5.534 3.06192C4.368 3.37734 4.192 3.67173 4.192 4.31308C4.192 4.52336 4.225 4.87033 4.225 5.09112C4.225 5.85864 3.818 6.26869 3.081 6.5C3.818 6.73131 4.225 7.14136 4.225 7.90888C4.225 8.12967 4.192 8.47664 4.192 8.68692C4.192 9.32827 4.368 9.62266 5.534 9.93808L5.237 11Z" fill="#AFB1B3"/>
<path fill-rule="evenodd" clip-rule="evenodd" d="M7.763 11C9.776 10.6636 10.337 9.99065 10.337 8.91822C10.337 8.76051 10.304 8.3715 10.304 8.19276C10.304 7.37266 10.656 7.10981 11.514 7.10981H12V5.89019H11.514C10.656 5.89019 10.304 5.62734 10.304 4.80724C10.304 4.6285 10.337 4.23949 10.337 4.08178C10.337 3.00935 9.776 2.33645 7.763 2L7.466 3.06192C8.632 3.37734 8.808 3.67173 8.808 4.31308C8.808 4.52336 8.775 4.87033 8.775 5.09112C8.775 5.85864 9.182 6.26869 9.919 6.5C9.182 6.73131 8.775 7.14136 8.775 7.90888C8.775 8.12967 8.808 8.47664 8.808 8.68692C8.808 9.32827 8.632 9.62266 7.466 9.93808L7.763 11Z" fill="#AFB1B3"/>
</svg>
