<svg width="13" height="13" viewBox="0 0 13 13" fill="none" xmlns="http://www.w3.org/2000/svg">
  <path fill-rule="evenodd" clip-rule="evenodd"
        d="M12 2H1V11H5.88184L5.92805 10.9073C6.05982 10.6426 6.19077 10.3796 6.35532 10.1328C6.38322 10.091 6.41367 10.0465 6.44671 10H5V8H8V8.5483C8.2951 8.37581 8.62855 8.22791 9 8.12934V8H11V8.12941C11.3715 8.22801 11.7049 8.37594 12 8.54845V2ZM5 5H8V7H5V5ZM2 8H4V10H2V8ZM9 5H11V7H9V5ZM4 5H2V7H4V5Z"
        fill="#6E6E6E"/>
  <path fill-rule="evenodd" clip-rule="evenodd"
        d="M10 9C8 9 7 11 7 11C7 11 8 13 10 13C12 13 13 11 13 11C13 11 12 9 10 9ZM11 11C11 11.5523 10.5523 12 10 12C9.44772 12 9 11.5523 9 11C9 10.4477 9.44772 10 10 10C10.5523 10 11 10.4477 11 11Z"
        fill="#6E6E6E"/>
</svg>
