<!-- Copyright 2000-2021 JetBrains s.r.o. Use of this source code is governed by the Apache 2.0 license that can be found in the LICENSE file. -->
<svg width="13" height="13" viewBox="0 0 13 13" fill="none" xmlns="http://www.w3.org/2000/svg">
<path fill-rule="evenodd" clip-rule="evenodd" d="M6.5 10C8.36384 10 9.92994 8.72523 10.374 7H13V5H10.374C9.92994 3.27477 8.36384 2 6.5 2C4.63616 2 3.07006 3.27477 2.62602 5L0 5V7H2.62602C3.07006 8.72523 4.63616 10 6.5 10ZM8.5 6C8.5 7.10457 7.60457 8 6.5 8C5.39543 8 4.5 7.10457 4.5 6C4.5 4.89543 5.39543 4 6.5 4C7.60457 4 8.5 4.89543 8.5 6Z" fill="#AFB1B3"/>
</svg>
