<!-- Copyright 2000-2023 JetBrains s.r.o. and contributors. Use of this source code is governed by the Apache 2.0 license. -->
<svg width="13" height="13" viewBox="0 0 13 13" fill="none" xmlns="http://www.w3.org/2000/svg">
<g clip-path="url(#clip0_10975_8719)">
<path fill-rule="evenodd" clip-rule="evenodd" d="M10.3618 4.56667H9.12284C8.81986 2.67272 7.17855 1.22558 5.19924 1.22558C3.00465 1.22558 1.22558 3.00465 1.22558 5.19924C1.22558 7.39384 3.00465 9.17291 5.19924 9.17291C5.47354 9.17291 5.74135 9.14512 6 9.0922V10.3388C5.73922 10.3791 5.47205 10.4 5.2 10.4C2.32812 10.4 0 8.07188 0 5.2C0 2.32812 2.32812 0 5.2 0C7.85749 0 10.0494 1.9935 10.3618 4.56667Z" fill="#AFB1B3"/>
<path d="M5.99219 2.77002H4.99219V5.49402H5.99219V2.77002Z" fill="#AFB1B3"/>
<path fill-rule="evenodd" clip-rule="evenodd" d="M5.28435 4.78711L5.99035 5.49411L4.06635 7.42011L3.36035 6.71211L5.28435 4.78711Z" fill="#AFB1B3"/>
<path fill-rule="evenodd" clip-rule="evenodd" d="M7 4.76709L13 8.76709L7 12.7671V4.76709Z" fill="#AFB1B3"/>
</g>
<defs>
<clipPath id="clip0_10975_8719">
<rect width="13" height="13" fill="white"/>
</clipPath>
</defs>
</svg>
