<!-- Copyright 2000-2021 JetBrains s.r.o. Use of this source code is governed by the Apache 2.0 license that can be found in the LICENSE file. -->
<svg width="13" height="13" viewBox="0 0 13 13" fill="none" xmlns="http://www.w3.org/2000/svg">
<g id="toolWindowChanges">
<g id="if_git-branch_298785">
<path id="Shape" d="M8.96792 2.367C8.04815 2.367 7.30094 3.11381 7.30094 4.03398C7.30094 4.64893 7.63792 5.18084 8.13443 5.4702V5.70096C8.13443 5.70096 8.13443 7.36795 6.46745 7.36795C5.77641 7.36795 5.23471 7.51609 4.80046 7.74318V3.80322C5.29738 3.51386 5.63396 2.98194 5.63396 2.367C5.63396 1.44682 4.88715 0.700012 3.96697 0.700012C3.0468 0.700012 2.29999 1.44682 2.29999 2.367C2.29999 2.98194 2.63656 3.51386 3.13348 3.80322V9.2661C2.63656 9.55506 2.29999 10.0866 2.29999 10.7019C2.29999 11.6217 3.0468 12.3689 3.96697 12.3689C4.88715 12.3689 5.63396 11.6217 5.63396 10.7019C5.63396 10.2656 5.4622 9.87168 5.18791 9.57377C5.43047 9.27586 5.82483 9.03493 6.46745 9.03493C9.77537 9.03493 9.80142 5.70096 9.80142 5.70096V5.4702C10.2979 5.18084 10.6349 4.64893 10.6349 4.03398C10.6349 3.11381 9.8877 2.367 8.96792 2.367Z" fill="#6E6E6E"/>
</g>
</g>
</svg>
