<!-- Copyright © 2000–2024 JetBrains s.r.o. -->
<svg width="13" height="13" viewBox="0 0 13 13" xmlns="http://www.w3.org/2000/svg">
  <path fill="#afb1b3" d="M10.88 6.5c.29-.28.51-.63.61-1.03.16-.58.08-1.19-.23-1.72a2.28 2.28 0 0 0-2.58-1.04C8.43 1.73 7.55 1 6.49 1s-1.94.73-2.19 1.71c-.97-.28-2.05.12-2.58 1.04-.3.52-.38 1.13-.23 1.72.11.4.32.75.61 1.03-.29.28-.51.63-.61 1.03-.16.58-.08 1.19.23 1.72.42.73 1.18 1.13 1.96 1.13.2 0 .41-.03.61-.09.25.98 1.13 1.71 2.19 1.71s1.94-.73 2.19-1.71c.2.06.41.09.61.09.78 0 1.55-.41 1.96-1.13.3-.52.38-1.13.23-1.72-.11-.4-.32-.75-.61-1.03Zm-.48-2.25c.17.29.21.63.13.96-.08.29-.27.53-.51.7l-1.24-.72V3.75c.59-.28 1.3-.08 1.63.49ZM7.76 8.69l-.27-.15.27-.15v.31ZM6.5 7.96l-1.26-.73V5.77l1.26-.73 1.26.73v1.46zm-1.26.42.27.15-.27.15v-.31Zm-1-1.73-.26-.15.26-.15v.31Zm1-2.34.27.15-.27.15V4.3Zm2.52.31-.27-.15.27-.15v.31Zm1 1.73.26.15-.26.15v-.31ZM6.5 2c.66 0 1.19.52 1.24 1.17l-1.24.72-1.24-.72C5.31 2.52 5.84 2 6.5 2M2.6 4.25c.23-.41.66-.63 1.1-.63.18 0 .36.05.54.13V5.2L3 5.92c-.25-.17-.44-.41-.51-.7-.09-.33-.04-.67.13-.96Zm0 4.5c-.17-.29-.21-.63-.13-.96.08-.29.27-.53.51-.7l1.24.72v1.44c-.59.28-1.3.08-1.63-.49ZM6.5 11c-.66 0-1.19-.52-1.24-1.17l1.24-.72 1.24.72C7.69 10.48 7.16 11 6.5 11m3.9-2.25c-.33.57-1.04.77-1.63.49V7.8l1.24-.72c.25.17.44.41.51.7.09.33.04.67-.13.96Z"/>
</svg>
