<svg xmlns="http://www.w3.org/2000/svg" width="13" height="13" viewBox="0 0 13 13">
  <g fill="none" fill-rule="evenodd">
    <path fill="#6E6E6E" d="M1.80000001 8L11.2 8C11.6418278 8 12 8.35817221 12 8.80000001L12 11.2C12 11.6418278 11.6418278 12 11.2 12L1.80000001 12C1.35817221 12 1 11.6418278 1 11.2L1 8.80000001C1 8.35817221 1.35817221 8 1.80000001 8zM10 11C10.5522847 11 11 10.5522847 11 10 11 9.44771525 10.5522847 9 10 9 9.44771525 9 9 9.44771525 9 10 9 10.5522847 9.44771525 11 10 11zM12.012832 7L11.4795921 7 9.61283189 3.76667641 9.61283189 1.5C9.61283189 1.22385763 9.83668952 1 10.1128319 1L11.512832 1C11.7889744 1 12.012832 1.22385763 12.012832 1.5L12.012832 7zM8.63970258 7L3.83970239 7 2.40139409 6.16959231C2.16224777 6.03152113 2.0803102 5.72572592 2.21838138 5.48657961L2.91838143 4.27414396C3.05645262 4.03499765 3.36224782 3.95306008 3.60139413 4.09113126L8.63970258 7zM10.5549944 7L10.2874386 7 6.5318502 4.83171004 5.37668487 2.830905C5.23861368 2.59175868 5.32055126 2.28596348 5.55969757 2.14789229L6.77213322 1.44789225C7.01127953 1.30982106 7.31707473 1.39175864 7.45514592 1.63090495L10.5549944 7z"/>
  </g>
</svg>
