<svg xmlns="http://www.w3.org/2000/svg" width="16" height="16" viewBox="0 0 16 16">
  <g fill="none" fill-rule="evenodd">
    <circle cx="10.5" cy="11.5" r="3.5" fill="#AFB1B3"/>
    <path fill="#AFB1B3" d="M8.3896146,7.52453512 C6.96794299,8.28080531 6,9.77736506 6,11.5 C6,11.9975882 6.08076132,12.4763136 6.229891,12.9237832 C5.99446926,12.9737252 5.75030304,13 5.5,13 C3.56700338,13 2,11.4329966 2,9.5 C2,7.56700338 3.56700338,6 5.5,6 C6.70006696,6 7.75906809,6.60397464 8.3896146,7.52453512 Z"/>
    <path fill="#AFB1B3" d="M5.12453459,7.60569924 C6.08941797,4.06318103 9.16510139,1.4730394 12.8101589,1.4730394 C13.1886965,1.4730394 13.5610935,1.50097337 13.9256235,1.55500703 C13.9584475,1.53868489 13.9914183,1.52249794 14.0245342,1.50644735 L14.0245342,2.6414425 C12.0593013,3.71905844 10.8073955,5.34675764 10.8073955,7.16801624 C10.8073955,7.59410638 10.8759177,8.00960219 11.0060655,8.40993826 L9.84334276,8.40993826 C9.75586976,8.03756883 9.71037584,7.65530103 9.71037584,7.26559527 C9.71037584,5.4850561 10.6600678,3.85978565 12.2242163,2.62444872 C9.19081178,2.89909099 6.71822556,5.28650836 6.08988039,8.40993826 L5.12453459,8.40993826 L5.12453459,7.60569924 Z"/>
  </g>
</svg>
