<svg width="16" height="16" viewBox="0 0 16 16" fill="none" xmlns="http://www.w3.org/2000/svg">
<path fill-rule="evenodd" clip-rule="evenodd" d="M3.27934 11.3718C2.90689 11.7443 2.90689 12.3481 3.27934 12.7206C3.65178 13.093 4.25564 13.093 4.62809 12.7206L7.99997 9.34871L11.3719 12.7206C11.7443 13.093 12.3482 13.093 12.7206 12.7206C13.0931 12.3481 13.0931 11.7443 12.7206 11.3718L9.34872 7.99996L12.7206 4.62809C13.093 4.25564 13.093 3.65178 12.7206 3.27934C12.3482 2.90689 11.7443 2.90689 11.3718 3.27934L7.99997 6.65121L4.6281 3.27934C4.25565 2.90689 3.65179 2.90689 3.27935 3.27934C2.9069 3.65178 2.9069 4.25564 3.27935 4.62809L6.65122 7.99996L3.27934 11.3718Z" fill="#9AA7B0" fill-opacity="0.6"/>
</svg>
