<svg width="16" height="16" viewBox="0 0 16 16" fill="none" xmlns="http://www.w3.org/2000/svg">
<path d="M7.85983 8.35942C7.46063 7.71583 7.17104 7.18224 6.76985 6.17746C6.09146 4.4803 10.8958 2.94673 8.9478 0C9.79218 2.03556 5.91707 3.29393 5.55708 4.98909C5.22788 6.54826 7.85783 8.35942 7.85983 8.35942Z" fill="#EB5757"/>
<path d="M7.95099 5.30823C7.87419 6.31461 8.84257 6.851 8.87057 7.58618C8.89297 8.18457 8.29178 8.68336 8.29178 8.68336C8.29178 8.68336 9.38296 8.46896 9.72335 7.55618C10.1013 6.5426 8.98977 5.84862 9.10417 5.03704C9.21096 4.26185 11.5165 2.81989 11.5165 2.81989C11.5165 2.81989 8.12419 3.04468 7.95099 5.30823Z" fill="#EB5757"/>
<path d="M11.2333 8.42221C11.9349 8.26461 12.5265 8.7114 12.5265 9.22619C12.5265 10.3866 10.9181 11.4833 10.9181 11.4833C10.9181 11.4833 13.4081 11.1865 13.4081 9.28139C13.4081 8.02142 12.1853 7.70662 11.2333 8.42221ZM10.0514 9.35819C10.0514 9.35819 10.8277 8.805 11.0345 8.5974C9.12939 9.00179 4.77948 9.05619 4.77948 8.705C4.77948 8.38141 6.18225 8.04982 6.18225 8.04982C6.18225 8.04982 3.07312 8.00502 3.07312 8.9222C3.07312 9.87817 7.14303 9.94657 10.0514 9.35819Z" fill="#1565C0"/>
<path d="M9.57388 10.2286C7.77032 10.8281 4.44839 10.6365 5.43237 9.83136C4.95318 9.83136 4.2428 10.2166 4.2428 10.5869C4.2428 11.3297 7.83552 11.9033 10.4947 10.8157L9.57388 10.2286Z" fill="#1565C0"/>
<path d="M5.87424 11.4958C5.21986 11.4958 4.79626 11.9174 4.79626 12.2246C4.79626 13.181 8.70018 13.2773 10.2469 12.3066L9.26376 11.6538C8.10819 12.1618 5.20546 12.2318 5.87424 11.4958Z" fill="#1565C0"/>
<path d="M12.9122 13.053C12.9122 12.6786 12.4902 12.5022 12.339 12.4178C13.2302 14.5669 3.41237 14.4001 3.41237 13.1314C3.41237 12.843 4.13515 12.5606 4.80314 12.6942L4.23515 12.3586C2.90398 12.1498 2 12.735 2 13.207C2 15.4081 12.9122 15.3021 12.9122 13.053Z" fill="#1565C0"/>
<path d="M13.9996 13.8417C12.3413 15.4797 8.13618 16.0765 3.90747 15.0645C8.13618 16.8657 13.9796 15.8513 13.9996 13.8417Z" fill="#1565C0"/>
</svg>
