<!-- Copyright 2000-2021 JetBrains s.r.o. Use of this source code is governed by the Apache 2.0 license that can be found in the LICENSE file. -->
<svg xmlns="http://www.w3.org/2000/svg" width="16" height="16" viewBox="0 0 16 16">
  <g fill="none" fill-rule="evenodd">
    <path fill="#F4AF3D" fill-opacity=".6" d="M14.8839685,9.27604806 C13.1424466,7.90026185 10.7538438,7.88301043 9.31842712,9.31842712 C7.88301043,10.7538438 7.90026185,13.1424466 9.27604806,14.8839685 C8.86229408,14.9601759 8.43579784,15 8,15 C4.134,15 1,11.866 1,8 C1,4.134 4.134,1 8,1 C11.866,1 15,4.134 15,8 C15,8.43579784 14.9601759,8.86229408 14.8839685,9.27604806 Z"/>
    <polygon fill="#231F20" fill-opacity=".7" points="9.707 2.999 9.001 3.708 10.293 5 5 5 5 6 10.294 6 9 7.295 9.706 8.001 12.185 5.502"/>
    <path fill="#231F20" fill-opacity=".7" d="M8.78389513,10.0005 L5.7075,10.0005 L7.0005,11.2925 L6.2925,12.0015 L3.8155,9.4995 L6.2935,6.9995 L7.0005,7.7065 L5.7075,9.0015 L9.68076313,9.0015 C9.55442041,9.09786012 9.43336786,9.20348639 9.31842712,9.31842712 C9.10960102,9.52725323 8.9315203,9.7562533 8.78389513,10.0005 Z"/>
    <path fill="#935E2D" fill-opacity=".7" d="M.6572 1.188C-.4708 2.588-.0688 4.384 1.2742 5.726 2.6162 7.069 4.4122 7.471 5.8122 6.343L.6572 1.188zM6.3437 5.812C7.4717 4.412 7.0687 2.616 5.7267 1.274 4.3837-.069 2.5877-.472 1.1877.657L6.3437 5.812z" transform="translate(9 9)"/>
  </g>
</svg>
