<!-- Copyright 2000-2021 JetBrains s.r.o. Use of this source code is governed by the Apache 2.0 license that can be found in the LICENSE file. -->
<svg xmlns="http://www.w3.org/2000/svg" width="16" height="16" viewBox="0 0 16 16">
  <g fill="none" fill-rule="evenodd">
    <path fill="#F98B9E" fill-opacity=".6" d="M14.7279065,9.93922898 L13.2249195,9.85558898 L11.9495635,6.5 L11.0406489,6.5 L9.77115318,9.85558898 L6.01939023,10.0717163 L6.01939023,10.8769531 L8.70388068,13.140316 L8.21285589,14.9968255 C8.14216225,14.9989368 8.07120528,15 8,15 C4.13400675,15 1,11.8659932 1,8 C1,4.13400675 4.13400675,1 8,1 C11.8659932,1 15,4.13400675 15,8 C15,8.6727991 14.905082,9.32342891 14.7279065,9.93922898 Z"/>
    <polygon fill="#9AA7B0" points="11.498 14.163 8.718 15.956 9.564 12.758 7 10.668 10.303 10.484 11.498 7.4 12.693 10.484 15.996 10.668 13.432 12.758 14.278 15.956"/>
  </g>
</svg>
