<!-- Copyright 2000-2021 JetBrains s.r.o. Use of this source code is governed by the Apache 2.0 license that can be found in the LICENSE file. -->
<svg xmlns="http://www.w3.org/2000/svg" width="16" height="16" viewBox="0 0 16 16">
  <g fill="none" fill-rule="evenodd">
    <path fill="#40B6E0" fill-opacity=".6" d="M14.776954,6.24025221 C14.3813349,6.08515562 13.950612,6 13.5,6 C11.5670034,6 10,7.56700338 10,9.5 C10,10.6893726 10.593258,11.7401823 11.5,12.3726554 L11.5,14.0635278 C10.4703939,14.6591214 9.27500599,15 8,15 C4.134,15 1,11.866 1,8 C1,4.134 4.134,1 8,1 C11.2582142,1 13.9964963,3.22604816 14.776954,6.24025221 Z"/>
    <path fill="#9AA7B0" d="M13.8541667,10.6666667 C13.5125,9.69583333 12.5875,9 11.5,9 C10.1208333,9 9,10.1208333 9,11.5 C9,12.8791667 10.1208333,14 11.5,14 C12.5875,14 13.5125,13.3041667 13.8541667,12.3333333 L15.5,12.3333333 L15.5,14 L17,14 L17,12.3333333 L18,12.3333333 L18,10.6666667 L13.8541667,10.6666667 Z M11.5,12.3333333 C11.0416667,12.3333333 10.6666667,11.9583333 10.6666667,11.5 C10.6666667,11.0416667 11.0416667,10.6666667 11.5,10.6666667 C11.9583333,10.6666667 12.3333333,11.0416667 12.3333333,11.5 C12.3333333,11.9583333 11.9583333,12.3333333 11.5,12.3333333 Z" transform="matrix(0 1 1 0 2 -2)"/>
    <path fill="#231F20" fill-opacity=".7" d="M10.0062206,9.28958687 C10.0020931,9.35919663 10,9.42935388 10,9.5 C10,9.81563421 10.0417807,10.12151 10.1201133,10.4123986 C9.60700864,10.7770216 8.95836037,11.0004 8.0022,11.0004 C6.3642,11.0004 5.0002,9.6824 5.0002,8.0004 C5.0002,6.3584 6.3402,5.0004 8.0982,5.0004 C9.28826904,5.0004 9.8293999,5.2701752 10.5162,5.83673096 L9.9,6.55426025 C9.54833171,6.18475342 8.94833171,6 8.1,6 C6.971,6 6,6.7124 6,8.0004 C6,9.2794 7.061,10.022 8.1,10 C9.028,9.978 9.53,9.74153174 10,9.28253174 C10,9.28253174 10.0020735,9.28488345 10.0062206,9.28958687 Z"/>
  </g>
</svg>
