<!-- Copyright 2000-2021 JetBrains s.r.o. Use of this source code is governed by the Apache 2.0 license that can be found in the LICENSE file. -->
<svg xmlns="http://www.w3.org/2000/svg" width="32" height="32" viewBox="0 0 32 32">
  <path fill="#9AA7B0" fill-opacity=".8" fill-rule="evenodd" d="M6,11.9802 C6,12.6242 6.362,13.2162 6.934,13.5082 L7.558,13.8222 C8.044,14.0682 8.562,14.0422 9,13.8422 L9,11.0122 L9,8.9882 L9,6.1582 C8.562,5.9562 8.044,5.9322 7.558,6.1782 L6.934,6.4922 C6.362,6.7822 6,7.3742 6,8.0202 L6,8.9882 L6,11.0122 L6,11.9802 Z M12,28.0002 C8.222,28.0002 3.956,23.6442 4,20.0002 L4,16.0002 C4,13.1582 5.132,12.0002 6,12.0002 L6,8.0002 C3.8,8.0002 2,12.1582 2,16.0002 L2,20.0002 C2,25.4662 7.2,30.0002 12,30.0002 L22,30.0002 L22,28.0002 L12,28.0002 Z M14.274,2.0002 L22,2.0002 L22,17.0002 L22,18.0002 L19,18.0002 L14.274,18.0002 C11.914,18.0002 10,15.8482 10,13.1922 L10,6.8062 C10,4.1522 11.914,2.0002 14.274,2.0002 Z M23,16.0002 L30,16.0002 L30,14.0002 L23,14.0002 L23,16.0002 Z M23,6.0002 L30,6.0002 L30,4.0002 L23,4.0002 L23,6.0002 Z"/>
</svg>
