<svg xmlns="http://www.w3.org/2000/svg" width="40" height="40" viewBox="0 0 40 40">
  <g fill="none" fill-rule="evenodd" transform="translate(4 4)">
    <path fill="#40A0CF" d="M11.4971,5 C10.6731,5 10.0041,4.329 10.0041,3.5 C10.0041,2.671 10.6731,2 11.4971,2 C12.3211,2 12.9901,2.671 12.9901,3.5 C12.9901,4.329 12.3211,5 11.4971,5 Z M23.8851,3.5 C23.7131,1.657 22.2541,0.191 20.4201,0.018 L20.4201,0 L11.8951,0 C9.7691,0 8.0471,1.731 8.0471,3.867 L8.0471,7 L9.6421,7 L11.8951,7 L14.1481,7 L16.0091,7 L16.0091,8.033 L4.1001,8.033 L4.1001,8.041 C4.0231,8.036 3.9451,8.033 3.8681,8.033 C1.7421,8.033 0.0191,9.765 0.0191,11.9 L0.0191,19.756 C0.0081,19.88 0.0001,20.006 0.0001,20.133 C0.0001,22.269 1.7231,24 3.8481,24 L7.0181,24 L7.0181,20.625 C7.0181,17.795 9.3031,15.5 12.1191,15.5 C12.1661,15.5 12.2131,15.502 12.2601,15.503 L12.2601,15.5 L19.6571,15.5 L19.6571,15.479 C19.7881,15.493 19.9211,15.5 20.0551,15.5 C22.0121,15.5 23.6251,14.032 23.8701,12.133 L23.9031,12.133 L23.9031,3.5 L23.8851,3.5 Z"/>
    <path fill="#FFC900" d="M20.5029,27 C21.3269,27 21.9949,27.672 21.9949,28.5 C21.9949,29.328 21.3269,30 20.5029,30 C19.6789,30 19.0099,29.328 19.0099,28.5 C19.0099,27.672 19.6789,27 20.5029,27 Z M8.1149,28.5 C8.2869,30.343 9.7459,31.809 11.5799,31.982 L11.5799,32 L20.1049,32 C22.2309,32 23.9529,30.269 23.9529,28.134 L23.9529,25 L22.3579,25 L20.1049,25 L17.8519,25 L15.9909,25 L15.9909,23.967 L27.8999,23.967 L27.8999,23.959 C27.9769,23.964 28.0549,23.967 28.1329,23.967 C30.2579,23.967 31.9809,22.235 31.9809,20.1 L31.9809,12.244 C31.9919,12.12 31.9999,11.994 31.9999,11.867 C31.9999,9.731 30.2769,8 28.1519,8 L24.9819,8 L24.9819,11.375 C24.9819,14.206 22.6969,16.5 19.8809,16.5 C19.8339,16.5 19.7869,16.498 19.7399,16.497 L19.7399,16.5 L12.3429,16.5 L12.3429,16.521 C12.2119,16.507 12.0789,16.5 11.9449,16.5 C9.9879,16.5 8.3739,17.968 8.1299,19.866 L8.0969,19.866 L8.0969,28.5 L8.1149,28.5 Z"/>
  </g>
</svg>
