<svg width="40" height="40" viewBox="0 0 40 40" xmlns="http://www.w3.org/2000/svg">
  <g transform="matrix(2.57 0 0 2.57 -.571 -.571)" stroke="#CED0D6" stroke-linecap="round" stroke-linejoin="round">
    <path d="m12.8 1.5h-9.53c-0.957 0-1.73 0.776-1.73 1.73v9.53c0 0.957 0.776 1.73 1.73 1.73h9.53c0.957 0 1.73-0.776 1.73-1.73v-9.53c0-0.957-0.776-1.73-1.73-1.73z" fill="#43454A"/>
    <path d="m11.8 3.5h-2.54a0.73 0.73 0 0 0-0.73 0.73v2.54c0 0.403 0.327 0.73 0.73 0.73h2.54a0.73 0.73 0 0 0 0.73-0.73v-2.54a0.73 0.73 0 0 0-0.73-0.73zm-6.27 3h-1a1 1 0 0 0-1 1v2a1 1 0 0 0 1 1h1a1 1 0 0 0 1-1v-2a1 1 0 0 0-1-1zm5.25 3h-1.5a0.75 0.75 0 0 0-0.75 0.75v1.5c0 0.414 0.336 0.75 0.75 0.75h1.5a0.75 0.75 0 0 0 0.75-0.75v-1.5a0.75 0.75 0 0 0-0.75-0.75z" fill="none"/>
  </g>
</svg>
