<svg xmlns="http://www.w3.org/2000/svg" xmlns:xlink="http://www.w3.org/1999/xlink" width="16" height="16" viewBox="0 0 16 16">
  <defs>
    <linearGradient id="idea-ce-eap_16-b" x1="50%" x2="50%" y1="-11.618%" y2="60.589%">
      <stop offset="0%" stop-color="#A6A5A5"/>
      <stop offset="0%" stop-color="#989898" stop-opacity=".568"/>
      <stop offset="100%"/>
    </linearGradient>
    <polygon id="idea-ce-eap_16-a" points="0 14 14 14 14 0 0 0"/>
  </defs>
  <g fill="none" fill-rule="evenodd">
    <polygon fill="#087CFA" points="0 16 16 16 16 0 0 0"/>
    <g transform="translate(1 1)">
      <use fill="#000" xlink:href="#idea-ce-eap_16-a"/>
      <use fill="url(#idea-ce-eap_16-b)" xlink:href="#idea-ce-eap_16-a"/>
      <polygon fill="#FFF" points="4.165 3.014 4.165 5.985 4.83 5.985 4.83 7 2.17 7 2.17 5.985 2.835 5.985 2.835 3.014 2.17 3.014 2.17 2 4.83 2 4.83 3.014"/>
      <path fill="#FFF" d="M5.7769,6.26015764 L6.6149,5.49951847 C6.9609,5.80931792 7.2979,5.9927518 7.7199,5.9927518 C8.2209,5.9927518 8.5319,5.74572751 8.5319,5.17585958 L8.5319,1.9996 L9.8969,1.9996 L9.8969,5.22477528 C9.8969,5.80931792 9.6899,6.24548293 9.3269,6.54223819 C8.9559,6.84470028 8.4119,6.9996 7.7549,6.9996 C6.8139,6.9996 6.1919,6.66126639 5.7769,6.26015764"/>
      <polygon fill="#FFF" points="2 12 8 12 8 11 2 11"/>
    </g>
    <g transform="translate(3 9)">
      <polygon fill="#D99E2B" points="0 7 13 7 13 0 0 0"/>
      <polygon fill="#000" points="1 1 4 1 4 1.8 1.8 1.8 1.8 3 3.5 3 3.5 3.8 1.8 3.8 1.8 5.2 3.998 5.2 3.998 6 1 6"/>
      <path fill="#000" d="M11.2 2.709C11.2 3.204 11.0134 3.584 10.5554 3.584L9.8 3.584 9.8 1.791 10.4364 1.791C10.9834 1.791 11.16 2.084 11.2 2.541L11.2 2.709zM8.9974 1L8.9974 6 9.8 6 9.8 4.375 10.3954 4.375C11.3114 4.393 12.0004 3.645 12.0004 2.792L12.0004 2.585C12.0004 1.66 11.3694 1 10.5474 1L8.9974 1zM5.8008 4L6.5208 2.041 7.2798 4 5.8008 4zM6.8798 1L6.1598 1 4.2808 6 5.0398 6 5.4808 4.8 7.5188 4.8 7.9598 6 8.7578 6 6.8798 1z"/>
    </g>
    <polygon fill="#FFF" points="5.165 4.014 5.165 6.985 5.83 6.985 5.83 8 3.17 8 3.17 6.985 3.835 6.985 3.835 4.014 3.17 4.014 3.17 3 5.83 3 5.83 4.014"/>
    <path fill="#FFF" d="M7.6149,6.49951847 C7.9609,6.80931792 8.2979,6.9927518 8.7199,6.9927518 C9.2209,6.9927518 9.5319,6.74572751 9.5319,6.17585958 L9.5319,2.9996 L10.8969,2.9996 L10.8969,6.22477528 C10.8969,6.80931792 10.6899,7.24548293 10.3269,7.54223819 C9.9559,7.84470028 9.4119,7.9996 8.7549,7.9996 C7.8139,7.9996 7.1919,7.66126639 6.7769,7.26015764 L7.6149,6.49951847 Z"/>
  </g>
</svg>
