<svg width="16" height="16" viewBox="0 0 16 16" fill="none" xmlns="http://www.w3.org/2000/svg">
<path d="M16 0H0V16H16V0Z" fill="#087CFA"/>
<path d="M15 1H1V15H15V1Z" fill="black"/>
<path d="M9 12H3V13H9V12Z" fill="white"/>
<path d="M6.0125 4.09998V3.00623H3.03125V4.09998H3.86875V7.87498H3.03125V8.96873H6.0125V7.87498H5.18125V4.09998H6.0125Z" fill="white"/>
<path d="M8.87505 9.05623C8.4063 9.05623 8.0188 8.96873 7.7063 8.79373C7.3938 8.61873 7.1313 8.40623 6.92505 8.16248L7.75005 7.24373C7.9188 7.43123 8.0938 7.57498 8.26255 7.68123C8.43755 7.78748 8.62505 7.83748 8.83755 7.83748C9.08755 7.83748 9.2813 7.76248 9.42505 7.59998C9.5688 7.44373 9.63755 7.19373 9.63755 6.84373V3.00623H10.9813V6.90623C10.9813 7.26248 10.9313 7.57498 10.8375 7.83748C10.7438 8.09998 10.6 8.31873 10.4188 8.49998C10.2375 8.68123 10.0125 8.81873 9.75005 8.91248C9.4938 9.00623 9.20005 9.05623 8.87505 9.05623Z" fill="white"/>
</svg>
