<svg width="32" height="32" viewBox="0 0 32 32" fill="none" xmlns="http://www.w3.org/2000/svg">
  <path d="M30 2H2V30H30V2Z" fill="url(#paint0_linear)"/>
  <path d="M26 6H6V26H26V6Z" fill="url(#paint1_linear)"/>
  <path d="M16 23H8V24H16V23Z" fill="white"/>
  <path d="M12.4526 9.45029V8H8.51111V9.45029H9.61052V14.4444H8.51111V15.883H12.4526V14.4444H11.3415V9.45029H12.4526Z" fill="white"/>
  <path d="M16.2421 16C15.6222 16 15.1076 15.8831 14.6982 15.6491C14.2772 15.4152 13.938 15.1345 13.669 14.8187L14.7567 13.6024C14.9789 13.848 15.2129 14.0468 15.4351 14.1871C15.669 14.3275 15.9146 14.3977 16.1953 14.3977C16.5228 14.3977 16.7801 14.2924 16.9672 14.0819C17.1544 13.8714 17.2479 13.5439 17.2479 13.0877V8.01172H19.0257V13.1696C19.0257 13.6374 18.9672 14.0468 18.8386 14.3977C18.7099 14.7486 18.5228 15.0409 18.2889 15.2749C18.0433 15.5205 17.7509 15.6959 17.4 15.8246C17.0491 15.9415 16.6632 16 16.2421 16Z" fill="white"/>
  <defs>
    <linearGradient id="paint0_linear" x1="33.1407" y1="33.1196" x2="-6.41115" y2="-6.43197" gradientUnits="userSpaceOnUse">
      <stop offset="0.3475" stop-color="#087CFA"/>
      <stop offset="0.8562" stop-color="#FE2857"/>
      <stop offset="1" stop-color="#FE2857"/>
    </linearGradient>
    <linearGradient id="paint1_linear" x1="15.9733" y1="1.139" x2="15.9733" y2="19.075" gradientUnits="userSpaceOnUse">
      <stop offset="0.0842986" stop-color="#878585"/>
      <stop offset="0.5377"/>
    </linearGradient>
  </defs>
  <path fill-rule="evenodd" clip-rule="evenodd" d="M14 32H32V22H14V32Z" fill="#D99E2B"/>
  <path fill-rule="evenodd" clip-rule="evenodd" d="M16 30H19.75V29.0505H16.9V27.45H19.4V26.5H16.9V24.95H19.7V24H16V30Z" fill="black"/>
  <path fill-rule="evenodd" clip-rule="evenodd" d="M22.3999 27.65L23.2999 25.25L24.2499 27.65H22.3999ZM20.5 30H21.45L22 28.5505H24.55L25.0995 30H26.0995L23.75 24H22.8495L20.5 30Z" fill="black"/>
  <path fill-rule="evenodd" clip-rule="evenodd" d="M27.407 27.1002V24.9502H28.2995C28.9845 24.9502 29.2995 25.3002 29.35 25.8502V26.0502C29.35 26.6442 29.0225 27.1002 28.45 27.1002H27.407ZM27.407 30V28.05H28.25C29.3955 28.071 30.2555 27.174 30.2555 26.152V25.902C30.2555 24.7925 29.4675 24 28.44 24H26.5V30H27.407Z" fill="black"/>
</svg>