<svg xmlns="http://www.w3.org/2000/svg" xmlns:xlink="http://www.w3.org/1999/xlink" width="64" height="64" viewBox="0 0 64 64">
  <defs>
    <linearGradient id="idea-ce-eap-b" x1="60.958%" x2="33.882%" y1="100%" y2="57.698%">
      <stop offset="0%" stop-color="#2773E7"/>
      <stop offset="100%" stop-color="#FC801D"/>
    </linearGradient>
    <polygon id="idea-ce-eap-a" points="0 52 14.5 49 23 24.5 0 18.5"/>
    <linearGradient id="idea-ce-eap-c" x1="56.288%" x2="26.808%" y1="30.518%" y2="106.868%">
      <stop offset="0%" stop-color="#FE2857"/>
      <stop offset="100%" stop-color="#9039D0"/>
    </linearGradient>
    <linearGradient id="idea-ce-eap-d" x1="50%" x2="50%" y1="0%" y2="75.199%">
      <stop offset="0%" stop-color="#2773E7"/>
      <stop offset="100%" stop-color="#9039D0"/>
    </linearGradient>
    <linearGradient id="idea-ce-eap-f" x1="50%" x2="50%" y1="-11.618%" y2="60.589%">
      <stop offset="0%" stop-color="#A6A5A5"/>
      <stop offset="0%" stop-color="#989898" stop-opacity=".568"/>
      <stop offset="100%"/>
    </linearGradient>
    <polygon id="idea-ce-eap-e" points="0 40 40 40 40 0 0 0"/>
  </defs>
  <g fill="none" fill-rule="evenodd">
    <g transform="translate(4 4)">
      <use fill="#F97A12" xlink:href="#idea-ce-eap-a"/>
      <use fill="url(#idea-ce-eap-b)" xlink:href="#idea-ce-eap-a"/>
      <polygon fill="#2773E7" points="9.5 56 56 56 56 43 56 0 24.5 0"/>
      <polygon fill="url(#idea-ce-eap-c)" points="0 0 0 21 10.5 27.5 0 48.5 0 56 12.5 56 24 50 46.5 24 25.5 0"/>
      <polygon fill="url(#idea-ce-eap-d)" points="40.5 29.5 56 15 56 0 25 0"/>
    </g>
    <g transform="translate(12 12)">
      <use fill="#000" xlink:href="#idea-ce-eap-e"/>
      <use fill="url(#idea-ce-eap-f)" xlink:href="#idea-ce-eap-e"/>
      <polygon fill="#FFF" points="4 35 19 35 19 32.5 4 32.5"/>
      <path fill="#FFF" d="M14.0898,19.7417 L16.5048,17.0537 C17.4998,18.1487 18.4708,18.7957 19.6908,18.7957 C21.1338,18.7957 22.2958,17.9247 22.2958,15.9087 L22.2958,4.9997 L25.9998,4.9997 L25.9998,16.0837 C25.9998,18.1487 25.3848,19.6917 24.3388,20.7377 C23.2688,21.8067 21.6918,22.3547 19.7998,22.3547 C17.0858,22.3547 15.2838,21.1597 14.0898,19.7417"/>
      <polygon fill="#FFF" points="12 8.072 12 5 4 5 4 8.072 6.244 8.072 6.244 18.825 4 18.825 4 22 12 22 12 18.825 9.756 18.825 9.756 8.072"/>
    </g>
    <g transform="translate(28 44)">
      <polygon fill="#D99E2B" points="0 20 36 20 36 0 0 0"/>
      <polygon fill="#000" points="4 16 11.5 16 11.5 14.101 5.8 14.101 5.8 10.9 10.8 10.9 10.8 9 5.8 9 5.8 5.9 11.4 5.9 11.4 4 4 4"/>
      <path fill="#000" d="M16.2002 11.2996L18.0002 6.4996 19.9002 11.2996 16.2002 11.2996zM12.4002 15.9996L14.3002 15.9996 15.4002 13.1006 20.5002 13.1006 21.5992 15.9996 23.5992 15.9996 18.9002 3.9996 17.0992 3.9996 12.4002 15.9996zM25.8145 10.2L25.8145 5.9 27.5995 5.9C28.9695 5.9 29.5995 6.6 29.7005 7.7L29.7005 8.1C29.7005 9.288 29.0455 10.2 27.9005 10.2L25.8145 10.2zM25.8145 16L25.8145 12.1 27.5005 12.1C29.7915 12.142 31.5115 10.348 31.5115 8.304L31.5115 7.804C31.5115 5.585 29.9355 4 27.8805 4L24.0005 4 24.0005 16 25.8145 16z"/>
    </g>
  </g>
</svg>
