<svg width="64" height="64" viewBox="0 0 64 64" fill="none" xmlns="http://www.w3.org/2000/svg">
<path d="M58 6H6V58H58V6Z" fill="url(#paint0_linear)"/>
<path d="M51 13H13V51H51V13Z" fill="url(#paint1_linear)"/>
<path d="M32.1444 44H18V46.3222H32.1444V44Z" fill="white"/>
<path d="M24.8935 20.3707V17.75H17.7711V20.3707H19.7578V29.3951H17.7711V31.9946H24.8935V29.3951H22.8857V20.3707H24.8935Z" fill="white"/>
<path d="M31.7411 32.2062C30.621 32.2062 29.6911 31.9949 28.9513 31.5722C28.1905 31.1495 27.5776 30.6423 27.0915 30.0716L29.057 27.8737C29.4586 28.3175 29.8813 28.6768 30.2828 28.9304C30.7055 29.184 31.1493 29.3108 31.6566 29.3108C32.2483 29.3108 32.7133 29.1206 33.0514 28.7402C33.3896 28.3597 33.5587 27.768 33.5587 26.9437V17.7714H36.7711V27.0917C36.7711 27.9371 36.6654 28.6768 36.433 29.3108C36.2005 29.9448 35.8623 30.4732 35.4396 30.8959C34.9958 31.3397 34.4674 31.6567 33.8334 31.8892C33.1994 32.1006 32.5019 32.2062 31.7411 32.2062Z" fill="white"/>
<defs>
<linearGradient id="paint0_linear" x1="63.8328" y1="63.7936" x2="-9.6207" y2="-9.65938" gradientUnits="userSpaceOnUse">
<stop offset="0.3475" stop-color="#087CFA"/>
<stop offset="0.8562" stop-color="#FE2857"/>
<stop offset="1" stop-color="#FE2857"/>
</linearGradient>
<linearGradient id="paint1_linear" x1="31.9493" y1="3.7641" x2="31.9493" y2="37.8425" gradientUnits="userSpaceOnUse">
<stop offset="0.0842986" stop-color="#878585"/>
<stop offset="0.5377"/>
</linearGradient>
</defs>
</svg>
