<svg width="16" height="16" viewBox="0 0 16 16" fill="none" xmlns="http://www.w3.org/2000/svg">
<path d="M16 0H0V16H16V0Z" fill="#087CFA"/>
<path d="M15 1H1V15H15V1Z" fill="black"/>
<path d="M9 12H3V13H9V12Z" fill="white"/>
<path d="M6.0125 4.09998V3.00623H3.03125V4.09998H3.86875V7.87498H3.03125V8.96873H6.0125V7.87498H5.18125V4.09998H6.0125Z" fill="white"/>
<path d="M8.87496 9.05623C8.40621 9.05623 8.01871 8.96873 7.70621 8.79373C7.39371 8.61873 7.13121 8.40623 6.92496 8.16248L7.74996 7.24373C7.91871 7.43123 8.09371 7.57498 8.26246 7.68123C8.43746 7.78748 8.62496 7.83748 8.83746 7.83748C9.08746 7.83748 9.28121 7.76248 9.42496 7.59998C9.56871 7.44373 9.63746 7.19373 9.63746 6.84373V3.00623H10.9812V6.90623C10.9812 7.26248 10.9312 7.57498 10.8375 7.83748C10.7437 8.09998 10.6 8.31873 10.4187 8.49998C10.2375 8.68123 10.0125 8.81873 9.74996 8.91248C9.49371 9.00623 9.19996 9.05623 8.87496 9.05623Z" fill="white"/>
</svg>
