<svg xmlns="http://www.w3.org/2000/svg" xmlns:xlink="http://www.w3.org/1999/xlink" width="16" height="16" viewBox="0 0 16 16">
  <defs>
    <linearGradient id="idea-ce-eap_16-b" x1="50%" x2="50%" y1="-11.618%" y2="60.589%">
      <stop offset="0%" stop-color="#A6A5A5"/>
      <stop offset="0%" stop-color="#989898" stop-opacity=".568"/>
      <stop offset="100%"/>
    </linearGradient>
    <polygon id="idea-ce-eap_16-a" points="0 14 14 14 14 0 0 0"/>
  </defs>
  <g fill="none" fill-rule="evenodd">
    <polygon fill="#087CFA" points="0 16 16 16 16 0 0 0"/>
    <g transform="translate(1 1)">
      <use fill="#000" xlink:href="#idea-ce-eap_16-a"/>
      <use fill="url(#idea-ce-eap_16-b)" xlink:href="#idea-ce-eap_16-a"/>
      <polygon fill="#FFF" points="4.165 3.217 4.165 6.782 4.83 6.782 4.83 8 2.17 8 2.17 6.782 2.835 6.782 2.835 3.217 2.17 3.217 2.17 2 4.83 2 4.83 3.217"/>
      <path fill="#FFF" d="M5.7769,7.2256 L6.6149,6.2926 C6.9609,6.6726 7.2979,6.8976 7.7199,6.8976 C8.2209,6.8976 8.5319,6.5946 8.5319,5.8956 L8.5319,1.9996 L9.8969,1.9996 L9.8969,5.9556 C9.8969,6.6726 9.6899,7.2076 9.3269,7.5716 C8.9559,7.9426 8.4119,8.1326 7.7549,8.1326 C6.8139,8.1326 6.1919,7.7176 5.7769,7.2256"/>
      <polygon fill="#FFF" points="2 12 8 12 8 11 2 11"/>
    </g>
    <g transform="translate(7 11)">
      <polygon fill="#D99E2B" points="0 5 9 5 9 0 0 0"/>
      <polygon fill="#000" points="1 4 2.875 4 2.875 3.525 1.45 3.525 1.45 2.725 2.7 2.725 2.7 2.25 1.45 2.25 1.45 1.475 2.85 1.475 2.85 1 1 1"/>
      <path fill="#000" d="M4.05005 2.8249L4.50005 1.6249 4.97505 2.8249 4.05005 2.8249zM3.10005 3.9999L3.57505 3.9999 3.85005 3.27515 5.12505 3.27515 5.3998 3.9999 5.8998 3.9999 4.72505.9999 4.2748.9999 3.10005 3.9999zM6.453625 2.55L6.453625 1.475 6.899875 1.475C7.242375 1.475 7.399875 1.65 7.425125 1.925L7.425125 2.025C7.425125 2.322 7.261375 2.55 6.975125 2.55L6.453625 2.55zM6.453625 4L6.453625 3.025 6.875125 3.025C7.447875 3.0355 7.877875 2.587 7.877875 2.076L7.877875 1.951C7.877875 1.39625 7.483875 1 6.970125 1L6.000125 1 6.000125 4 6.453625 4z"/>
    </g>
  </g>
</svg>
