<svg width="16" height="16" viewBox="0 0 16 16" fill="none" xmlns="http://www.w3.org/2000/svg">
<path d="M15 1H1V15H15V1Z" fill="url(#paint0_linear)"/>
<path d="M13 3H3V13H13V3Z" fill="url(#paint1_linear)"/>
<path d="M8 11.5H4V12H8V11.5Z" fill="white"/>
<path d="M6.22636 4.72514V4H4.25562V4.72514H4.80532V7.2222H4.25562V7.9415H6.22636V7.2222H5.67081V4.72514H6.22636Z" fill="white"/>
<path d="M8.12102 8C7.81107 8 7.55377 7.94155 7.34907 7.82455C7.13857 7.7076 6.96897 7.56725 6.83447 7.40935L7.37832 6.8012C7.48942 6.924 7.60642 7.0234 7.71752 7.09355C7.83447 7.16375 7.95727 7.19885 8.09762 7.19885C8.26137 7.19885 8.39002 7.1462 8.48357 7.04095C8.57717 6.9357 8.62392 6.77195 8.62392 6.54385V4.00586H9.51282V6.5848C9.51282 6.8187 9.48357 7.0234 9.41927 7.19885C9.35492 7.3743 9.26137 7.52045 9.14442 7.63745C9.02162 7.76025 8.87542 7.84795 8.69997 7.9123C8.52452 7.97075 8.33157 8 8.12102 8Z" fill="white"/>
<defs>
<linearGradient id="paint0_linear" x1="16.5704" y1="16.5598" x2="-3.20558" y2="-3.21599" gradientUnits="userSpaceOnUse">
<stop offset="0.3475" stop-color="#087CFA"/>
<stop offset="0.8562" stop-color="#FE2857"/>
<stop offset="1" stop-color="#FE2857"/>
</linearGradient>
<linearGradient id="paint1_linear" x1="7.98665" y1="0.5695" x2="7.98665" y2="9.5375" gradientUnits="userSpaceOnUse">
<stop offset="0.0842986" stop-color="#878585"/>
<stop offset="0.5377"/>
</linearGradient>
</defs>
</svg>
