<svg xmlns="http://www.w3.org/2000/svg" xmlns:xlink="http://www.w3.org/1999/xlink" width="64" height="64" viewBox="0 0 64 64">
  <defs>
    <linearGradient id="idea-ce-b" x1="60.958%" x2="33.882%" y1="100%" y2="57.698%">
      <stop offset="0%" stop-color="#2773E7"/>
      <stop offset="100%" stop-color="#FC801D"/>
    </linearGradient>
    <polygon id="idea-ce-a" points="0 52 14.5 49 23 24.5 0 18.5"/>
    <linearGradient id="idea-ce-c" x1="56.288%" x2="26.808%" y1="30.518%" y2="106.868%">
      <stop offset="0%" stop-color="#FE2857"/>
      <stop offset="100%" stop-color="#9039D0"/>
    </linearGradient>
    <linearGradient id="idea-ce-d" x1="50%" x2="50%" y1="0%" y2="75.199%">
      <stop offset="0%" stop-color="#2773E7"/>
      <stop offset="100%" stop-color="#9039D0"/>
    </linearGradient>
    <linearGradient id="idea-ce-f" x1="50%" x2="50%" y1="-11.618%" y2="60.589%">
      <stop offset="0%" stop-color="#A6A5A5"/>
      <stop offset="0%" stop-color="#989898" stop-opacity=".568"/>
      <stop offset="100%"/>
    </linearGradient>
    <polygon id="idea-ce-e" points="0 40 40 40 40 0 0 0"/>
  </defs>
  <g fill="none" fill-rule="evenodd">
    <g transform="translate(4 4)">
      <use fill="#F97A12" xlink:href="#idea-ce-a"/>
      <use fill="url(#idea-ce-b)" xlink:href="#idea-ce-a"/>
      <polygon fill="#2773E7" points="9.5 56 56 56 56 43 56 0 24.5 0"/>
      <polygon fill="url(#idea-ce-c)" points="0 0 0 21 10.5 27.5 0 48.5 0 56 12.5 56 24 50 46.5 24 25.5 0"/>
      <polygon fill="url(#idea-ce-d)" points="40.5 29.5 56 15 56 0 25 0"/>
    </g>
    <g transform="translate(12 12)">
      <use fill="#000" xlink:href="#idea-ce-e"/>
      <use fill="url(#idea-ce-f)" xlink:href="#idea-ce-e"/>
      <polygon fill="#FFF" points="4 35 19 35 19 32.5 4 32.5"/>
    </g>
    <path fill="#FFF" d="M26.0898,31.7417 L28.5048,29.0537 C29.4998,30.1487 30.4708,30.7957 31.6908,30.7957 C33.1338,30.7957 34.2958,29.9247 34.2958,27.9087 L34.2958,16.9997 L37.9998,16.9997 L37.9998,28.0837 C37.9998,30.1487 37.3848,31.6917 36.3388,32.7377 C35.2688,33.8067 33.6918,34.3547 31.7998,34.3547 C29.0858,34.3547 27.2838,33.1597 26.0898,31.7417"/>
    <polygon fill="#FFF" points="24 20.072 24 17 16 17 16 20.072 18.244 20.072 18.244 30.825 16 30.825 16 34 24 34 24 30.825 21.756 30.825 21.756 20.072"/>
  </g>
</svg>
