<svg width="64" height="64" viewBox="0 0 64 64" fill="none" xmlns="http://www.w3.org/2000/svg">
<path d="M59 5H5V59H59V5Z" fill="url(#paint0_linear)"/>
<path d="M49.2001 14.8H14.8V49.2001H49.2001V14.8Z" fill="url(#paint1_linear)"/>
<path d="M54.4001 9.59998H9.6001V54.3H54.3001V9.59998H54.4001Z" fill="url(#paint2_linear)"/>
<path d="M14.8 14.8H49.2L59 5H5L14.8 14.8Z" fill="url(#paint3_linear)"/>
<path d="M49.2 49.2H14.8L5 59H59L49.2 49.2Z" fill="url(#paint4_linear)"/>
<path d="M49.2 14.8V49.2L59 59V5L49.2 14.8Z" fill="url(#paint5_linear)"/>
<path d="M14.8 49.2V14.8L5 5V59L14.8 49.2Z" fill="url(#paint6_linear)"/>
<path d="M9.6 9.6H54.4L59 5H5L9.6 9.6Z" fill="url(#paint7_linear)"/>
<path d="M9.6 9.6H54.4L59 5H5L9.6 9.6Z" fill="url(#paint8_linear)"/>
<path d="M9.6 9.6H54.4L59 5H5L9.6 9.6Z" fill="url(#paint9_linear)"/>
<path d="M54.4001 9.59998H9.6001L14.8001 14.8H49.2001L54.4001 9.59998Z" fill="url(#paint10_linear)"/>
<path d="M54.4 54.4H9.6L5 59H59L54.4 54.4Z" fill="url(#paint11_linear)"/>
<path d="M54.4 54.4H9.6L5 59H59L54.4 54.4Z" fill="url(#paint12_linear)"/>
<path d="M54.4 54.4H9.6L5 59H59L54.4 54.4Z" fill="url(#paint13_linear)"/>
<path d="M54.3999 54.4L58.9999 59V5L54.3999 9.6V54.4Z" fill="url(#paint14_linear)"/>
<path d="M54.3999 54.4L58.9999 59V5L54.3999 9.6V54.4Z" fill="url(#paint15_linear)"/>
<path d="M54.3999 54.4L58.9999 59V5L54.3999 9.6V54.4Z" fill="url(#paint16_linear)"/>
<path d="M54.3999 54.4L58.9999 59V5L54.3999 9.6V54.4Z" fill="url(#paint17_linear)"/>
<path d="M9.6 54.4V9.6L5 5V59L9.6 54.4Z" fill="url(#paint18_linear)"/>
<path d="M9.6 54.4V9.6L5 5V59L9.6 54.4Z" fill="url(#paint19_linear)"/>
<path d="M9.6001 9.59998V54.4L14.8001 49.2V14.8L9.6001 9.59998Z" fill="url(#paint20_linear)"/>
<path d="M52 12H12V52H52V12Z" fill="url(#paint21_linear)"/>
<path d="M32 44.45H17V46.95H32V44.45Z" fill="white"/>
<path d="M24.45 19.75V17H17V19.75H19.1V29.2H17V31.9H24.45V29.2H22.4V19.75H24.45Z" fill="white"/>
<path d="M31.65 32.15C30.5 32.15 29.5 31.95 28.7 31.5C27.9 31.05 27.25 30.55 26.75 29.9L28.8 27.6C29.25 28.05 29.65 28.45 30.1 28.7C30.55 28.95 31 29.1 31.55 29.1C32.15 29.1 32.65 28.9 33 28.5C33.35 28.1 33.55 27.5 33.55 26.6V17H36.9V26.75C36.9 27.65 36.8 28.4 36.55 29.05C36.3 29.7 35.95 30.25 35.5 30.7C35.05 31.15 34.5 31.5 33.85 31.75C33.15 32 32.45 32.15 31.65 32.15Z" fill="white"/>
<defs>
<linearGradient id="paint0_linear" x1="65.0367" y1="65.0361" x2="-11.2416" y2="-11.2412" gradientUnits="userSpaceOnUse">
<stop offset="0.3475" stop-color="#087CFA"/>
<stop offset="0.8562" stop-color="#FE2857"/>
<stop offset="1" stop-color="#FE2857"/>
</linearGradient>
<linearGradient id="paint1_linear" x1="53.0233" y1="53.0231" x2="4.48265" y2="4.48295" gradientUnits="userSpaceOnUse">
<stop offset="0.3475" stop-color="#087CFA"/>
<stop offset="0.8562" stop-color="#FE2857"/>
<stop offset="1" stop-color="#FE2857"/>
</linearGradient>
<linearGradient id="paint2_linear" x1="59.3665" y1="59.3662" x2="-3.8198" y2="-3.81983" gradientUnits="userSpaceOnUse">
<stop  offset="0" stop-color="#087CFA"/>
<stop offset="0.2816" stop-color="#0855FA"/>
<stop offset="0.7644" stop-color="#E0326B"/>
<stop offset="0.7721" stop-color="#FE2857"/>
<stop offset="1" stop-color="#FE2857"/>
</linearGradient>
<linearGradient id="paint3_linear" x1="62.8806" y1="20.3153" x2="6.9594" y2="-2.091" gradientUnits="userSpaceOnUse">
<stop offset="0.3475" stop-color="#087CFA"/>
<stop offset="0.7698" stop-color="#F01A72"/>
<stop offset="0.9872" stop-color="#FE2857"/>
</linearGradient>
<linearGradient id="paint4_linear" x1="65.1222" y1="60.4848" x2="14.8184" y2="52.0272" gradientUnits="userSpaceOnUse">
<stop offset="0.2513" stop-color="#087CFA" stop-opacity="0.9703"/>
<stop offset="0.5721" stop-color="#087CFA"/>
<stop offset="0.8921" stop-color="#087CFA" stop-opacity="0.5"/>
</linearGradient>
<linearGradient id="paint5_linear" x1="53.4586" y1="6.0591" x2="55.0996" y2="60.6547" gradientUnits="userSpaceOnUse">
<stop offset="0.018393" stop-color="#429EFA"/>
<stop offset="0.518" stop-color="#087CFA"/>
<stop offset="1" stop-color="#965CF3" stop-opacity="0.9769"/>
</linearGradient>
<linearGradient id="paint6_linear" x1="12.1513" y1="55.0079" x2="6.0921" y2="6.0927" gradientUnits="userSpaceOnUse">
<stop offset="0.323" stop-color="#087CFA"/>
<stop offset="0.7201" stop-color="#DF0373"/>
<stop offset="1" stop-color="#FE2857"/>
</linearGradient>
<linearGradient id="paint7_linear" x1="29.8167" y1="7.2101" x2="16.6885" y2="17.6875" gradientUnits="userSpaceOnUse">
<stop offset="0.1018" stop-color="#FF00BB" stop-opacity="0"/>
<stop offset="0.8133" stop-color="#FCBD36"/>
<stop offset="1" stop-color="white" stop-opacity="0.9"/>
</linearGradient>
<linearGradient id="paint8_linear" x1="59.8518" y1="11.5121" x2="42.1791" y2="8.6087" gradientUnits="userSpaceOnUse">
<stop offset="0.018393" stop-color="#00FFFA"/>
<stop offset="0.8562" stop-color="#07C3F2" stop-opacity="0"/>
</linearGradient>
<linearGradient id="paint9_linear" x1="32.7994" y1="-1.1959" x2="31.7708" y2="6.7755" gradientUnits="userSpaceOnUse">
<stop offset="0.2032" stop-color="#087CFA"/>
<stop offset="1" stop-color="#6D6E71" stop-opacity="0"/>
</linearGradient>
<linearGradient id="paint10_linear" x1="48.3261" y1="5.41548" x2="19.9237" y2="15.6404" gradientUnits="userSpaceOnUse">
<stop offset="0.1744" stop-color="#0861FA"/>
<stop offset="0.723" stop-color="#0855FA" stop-opacity="0"/>
</linearGradient>
<linearGradient id="paint11_linear" x1="64.7697" y1="62.5817" x2="14.4658" y2="54.1241" gradientUnits="userSpaceOnUse">
<stop  offset="0" stop-color="#434FCF" stop-opacity="0"/>
<stop offset="1" stop-color="#1B6EEC"/>
</linearGradient>
<linearGradient id="paint12_linear" x1="31.9999" y1="51.1904" x2="31.9999" y2="57.7763" gradientUnits="userSpaceOnUse">
<stop offset="0.018393" stop-color="#42FFFA"/>
<stop offset="0.8562" stop-color="#07C3F2" stop-opacity="0"/>
</linearGradient>
<linearGradient id="paint13_linear" x1="56.7772" y1="47.5188" x2="40.9981" y2="53.9566" gradientUnits="userSpaceOnUse">
<stop offset="0.018393" stop-color="#FF39FF" stop-opacity="0.5"/>
<stop offset="0.8562" stop-color="#FF318C" stop-opacity="0"/>
</linearGradient>
<linearGradient id="paint14_linear" x1="55.9702" y1="5.9836" x2="57.6113" y2="60.5791" gradientUnits="userSpaceOnUse">
<stop offset="0.018393" stop-color="#085EFA"/>
<stop offset="0.8562" stop-color="#FF45ED" stop-opacity="0"/>
</linearGradient>
<linearGradient id="paint15_linear" x1="48.3596" y1="31.5322" x2="59.8468" y2="32.0371" gradientUnits="userSpaceOnUse">
<stop offset="0.018393" stop-color="#42FFFA"/>
<stop offset="0.8562" stop-color="#07C3F2" stop-opacity="0"/>
</linearGradient>
<linearGradient id="paint16_linear" x1="39.0349" y1="-2.4303" x2="62.1354" y2="39.6051" gradientUnits="userSpaceOnUse">
<stop offset="0.018393" stop-color="#42FFFA"/>
<stop offset="0.8562" stop-color="#07C3F2" stop-opacity="0"/>
</linearGradient>
<linearGradient id="paint17_linear" x1="47.0559" y1="7.0134" x2="54.8823" y2="25.4434" gradientUnits="userSpaceOnUse">
<stop offset="0.018393" stop-color="#42FFFA" stop-opacity="0.5"/>
<stop offset="0.8562" stop-color="#07C3F2" stop-opacity="0"/>
</linearGradient>
<linearGradient id="paint18_linear" x1="3.9081" y1="43.471" x2="12.4919" y2="8.757" gradientUnits="userSpaceOnUse">
<stop offset="0.4995" stop-color="#FF318C" stop-opacity="0"/>
<stop offset="0.9613" stop-color="#FCBD36"/>
</linearGradient>
<linearGradient id="paint19_linear" x1="-5.754" y1="55.6869" x2="6.3317" y2="31.6441" gradientUnits="userSpaceOnUse">
<stop offset="0.00131053" stop-color="#5AFFFA" stop-opacity="0.5"/>
<stop offset="0.9231" stop-color="#07C3F2" stop-opacity="0"/>
</linearGradient>
<linearGradient id="paint20_linear" x1="4.894" y1="34.6457" x2="15.75" y2="28.5866" gradientUnits="userSpaceOnUse">
<stop offset="0.018393" stop-color="#0855FA"/>
<stop offset="0.723" stop-color="#0855FA" stop-opacity="0"/>
</linearGradient>
<linearGradient id="paint21_linear" x1="12.0609" y1="12.0609" x2="47.1087" y2="47.1087" gradientUnits="userSpaceOnUse">
<stop offset="0.1196" stop-color="#5A044A"/>
<stop offset="0.3733" stop-color="#39032F"/>
<stop offset="0.7299" stop-color="#10010D"/>
<stop offset="0.9138"/>
</linearGradient>
</defs>
</svg>
