<svg xmlns="http://www.w3.org/2000/svg" xmlns:xlink="http://www.w3.org/1999/xlink" width="16" height="16" viewBox="0 0 16 16">
  <defs>
    <linearGradient id="idea-ce-eap_16@2x-b" x1="65.347%" x2="27.427%" y1="100%" y2="57.698%">
      <stop offset="0%" stop-color="#2773E7"/>
      <stop offset="100%" stop-color="#FC801D"/>
    </linearGradient>
    <polygon id="idea-ce-eap_16@2x-a" points="0 13 4.098 12.284 6.5 6.433 0 5"/>
    <linearGradient id="idea-ce-eap_16@2x-c" x1="56.154%" x2="27.304%" y1="30.518%" y2="106.868%">
      <stop offset="0%" stop-color="#FE2857"/>
      <stop offset="100%" stop-color="#9039D0"/>
    </linearGradient>
    <linearGradient id="idea-ce-eap_16@2x-d" x1="50%" x2="50%" y1="0%" y2="75.199%">
      <stop offset="0%" stop-color="#2773E7"/>
      <stop offset="100%" stop-color="#9039D0"/>
    </linearGradient>
    <linearGradient id="idea-ce-eap_16@2x-f" x1="50%" x2="50%" y1="-11.618%" y2="60.589%">
      <stop offset="0%" stop-color="#A6A5A5"/>
      <stop offset="0%" stop-color="#989898" stop-opacity=".568"/>
      <stop offset="100%"/>
    </linearGradient>
    <polygon id="idea-ce-eap_16@2x-e" points="0 10 10 10 10 0 0 0"/>
  </defs>
  <g fill="none" fill-rule="evenodd">
    <g transform="translate(1 1)">
      <use fill="#F97A12" xlink:href="#idea-ce-eap_16@2x-a"/>
      <use fill="url(#idea-ce-eap_16@2x-b)" xlink:href="#idea-ce-eap_16@2x-a"/>
      <polygon fill="#2773E7" points="2.5 14 14 14 14 10.75 14 0 6.21 0"/>
      <polygon fill="url(#idea-ce-eap_16@2x-c)" points="0 0 0 5.25 2.597 6.875 0 12.125 0 14 3.091 14 11.5 6 6.306 0"/>
      <polygon fill="url(#idea-ce-eap_16@2x-d)" points="10.5 7 14 3.559 14 0 7 0"/>
      <g transform="translate(2 2)">
        <use fill="#000" xlink:href="#idea-ce-eap_16@2x-e"/>
        <use fill="url(#idea-ce-eap_16@2x-f)" xlink:href="#idea-ce-eap_16@2x-e"/>
        <polygon fill="#FFF" points="1 8.5 5 8.5 5 8 1 8"/>
        <path fill="#FFF" d="M3.50415,4.83445 L4.11315,4.14995 C4.36465,4.42895 4.60915,4.59395 4.91715,4.59395 C5.28165,4.59395 5.50765,4.37195 5.50765,3.85845 L5.50765,0.99995 L6.50015,0.99995 L6.50015,3.90295 C6.50015,4.42895 6.34915,4.82195 6.08565,5.08795 C5.81565,5.36045 5.42015,5.49995 4.94215,5.49995 C4.25765,5.49995 3.80565,5.19595 3.50415,4.83445"/>
        <polygon fill="#FFF" points="1 1 1 2 1.5 2 1.5 4.5 1 4.5 1 5.5 3 5.5 3 4.5 2.5 4.5 2.5 2 3 2 3 1"/>
      </g>
    </g>
    <g transform="translate(7 11)">
      <polygon fill="#D99E2B" points="0 5 9 5 9 0 0 0"/>
      <polygon fill="#000" points="1 4 2.875 4 2.875 3.525 1.45 3.525 1.45 2.725 2.7 2.725 2.7 2.25 1.45 2.25 1.45 1.475 2.85 1.475 2.85 1 1 1"/>
      <path fill="#000" d="M4.05005 2.8249L4.50005 1.6249 4.97505 2.8249 4.05005 2.8249zM3.10005 3.9999L3.57505 3.9999 3.85005 3.27515 5.12505 3.27515 5.3998 3.9999 5.8998 3.9999 4.72505.9999 4.2748.9999 3.10005 3.9999zM6.453625 2.55L6.453625 1.475 6.899875 1.475C7.242375 1.475 7.399875 1.65 7.425125 1.925L7.425125 2.025C7.425125 2.322 7.261375 2.55 6.975125 2.55L6.453625 2.55zM6.453625 4L6.453625 3.025 6.875125 3.025C7.447875 3.0355 7.877875 2.587 7.877875 2.076L7.877875 1.951C7.877875 1.39625 7.483875 1 6.970125 1L6.000125 1 6.000125 4 6.453625 4z"/>
    </g>
  </g>
</svg>
