<svg width="16" height="16" viewBox="0 0 16 16" fill="none" xmlns="http://www.w3.org/2000/svg">
<path d="M15 1H1V15H15V1Z" fill="url(#paint0_linear)"/>
<path d="M13 3H3V13H13V3Z" fill="url(#paint1_linear)"/>
<path d="M8 11.5H4V12H8V11.5Z" fill="white"/>
<path d="M6.22636 4.72514V4H4.25562V4.72514H4.80532V7.2222H4.25562V7.9415H6.22636V7.2222H5.67081V4.72514H6.22636Z" fill="white"/>
<path d="M8.12102 8C7.81107 8 7.55377 7.94155 7.34907 7.82455C7.13857 7.7076 6.96897 7.56725 6.83447 7.40935L7.37832 6.8012C7.48942 6.924 7.60642 7.0234 7.71752 7.09355C7.83447 7.16375 7.95727 7.19885 8.09762 7.19885C8.26137 7.19885 8.39002 7.1462 8.48357 7.04095C8.57717 6.9357 8.62392 6.77195 8.62392 6.54385V4.00586H9.51282V6.5848C9.51282 6.8187 9.48357 7.0234 9.41927 7.19885C9.35492 7.3743 9.26137 7.52045 9.14442 7.63745C9.02162 7.76025 8.87542 7.84795 8.69997 7.9123C8.52452 7.97075 8.33157 8 8.12102 8Z" fill="white"/>
<path fill-rule="evenodd" clip-rule="evenodd" d="M7 16H16V11H7V16Z" fill="#D99E2B"/>
<path fill-rule="evenodd" clip-rule="evenodd" d="M8 15H9.875V14.5253H8.45V13.725H9.7V13.25H8.45V12.475H9.85V12H8V15Z" fill="black"/>
<path fill-rule="evenodd" clip-rule="evenodd" d="M11.2 13.825L11.65 12.625L12.125 13.825H11.2ZM10.25 15H10.725L11 14.2753H12.275L12.5498 15H13.0498L11.875 12H11.4248L10.25 15Z" fill="black"/>
<path fill-rule="evenodd" clip-rule="evenodd" d="M13.7035 13.5501V12.4751H14.1497C14.4922 12.4751 14.6498 12.6501 14.675 12.9251V13.0251C14.675 13.3221 14.5113 13.5501 14.225 13.5501H13.7035ZM13.7035 15V14.025H14.125C14.6977 14.0355 15.1278 13.587 15.1278 13.076V12.951C15.1278 12.3963 14.7338 12 14.22 12H13.25V15H13.7035Z" fill="black"/>
<defs>
<linearGradient id="paint0_linear" x1="16.5704" y1="16.5598" x2="-3.20558" y2="-3.21599" gradientUnits="userSpaceOnUse">
<stop offset="0.3475" stop-color="#087CFA"/>
<stop offset="0.8562" stop-color="#FE2857"/>
<stop offset="1" stop-color="#FE2857"/>
</linearGradient>
<linearGradient id="paint1_linear" x1="7.98665" y1="0.5695" x2="7.98665" y2="9.5375" gradientUnits="userSpaceOnUse">
<stop offset="0.0842986" stop-color="#878585"/>
<stop offset="0.5377"/>
</linearGradient>
</defs>
</svg>
