<!-- Copyright 2000-2024 JetBrains s.r.o. and contributors. Use of this source code is governed by the Apache 2.0 license. -->
<svg width="16" height="16" viewBox="0 0 16 16" fill="none" xmlns="http://www.w3.org/2000/svg">
<path fill-rule="evenodd" clip-rule="evenodd" d="M7.5 16C8.88071 16 10 14.8807 10 13.5C10 13.3288 9.98278 13.1616 9.94999 13H11.05C11.0172 13.1616 11 13.3288 11 13.5C11 14.8807 12.1193 16 13.5 16C14.8807 16 16 14.8807 16 13.5C16 12.1193 14.8807 11 13.5 11C12.6821 11 11.9559 11.3928 11.4998 12H9.50018C9.04408 11.3928 8.31791 11 7.5 11C6.11929 11 5 12.1193 5 13.5C5 14.8807 6.11929 16 7.5 16ZM7.5 15C8.32843 15 9 14.3284 9 13.5C9 12.6716 8.32843 12 7.5 12C6.67157 12 6 12.6716 6 13.5C6 14.3284 6.67157 15 7.5 15ZM13.5 15C14.3284 15 15 14.3284 15 13.5C15 12.6716 14.3284 12 13.5 12C12.6716 12 12 12.6716 12 13.5C12 14.3284 12.6716 15 13.5 15Z" fill="#CED0D6"/>
<path d="M14.6496 10.1932C14.877 9.5033 15 8.76602 15 8C15 4.13401 11.866 1 8 1C4.13401 1 1 4.13401 1 8C1 10.3826 2.1904 12.4872 4.0089 13.7515C4.003 13.6684 4 13.5846 4 13.5C4 11.567 5.567 10 7.5 10C8.45406 10 9.31899 10.3825 9.9494 11H11.0506C11.681 10.3825 12.5459 10 13.5 10C13.9027 10 14.2895 10.068 14.6496 10.1932Z" fill="#25324D"/>
<path d="M14.6496 10.1932C14.877 9.5033 15 8.76602 15 8C15 4.13401 11.866 1 8 1C4.13401 1 1 4.13401 1 8C1 10.3826 2.1904 12.4872 4.0089 13.7515C4.003 13.6684 4 13.5846 4 13.5C4 13.1812 4.04262 12.8724 4.12247 12.5789C2.82411 11.4783 2 9.83539 2 8C2 4.68629 4.68629 2 8 2C11.3137 2 14 4.68629 14 8C14 8.70257 13.8792 9.37694 13.6574 10.0035C14.0035 10.0188 14.3366 10.0844 14.6496 10.1932Z" fill="#548AF7"/>
<path d="M9.94853 10.9992C10.5769 10.6122 11.0393 10.0252 11.2118 9.32459H10.1966C9.99622 9.79018 9.60699 10.1712 9.09921 10.3861C9.413 10.5476 9.69911 10.755 9.94853 10.9992Z" fill="#548AF7"/>
<path d="M6.72246 10.0867C6.16647 9.6318 5.82647 8.89155 5.82647 8C5.82647 6.49655 6.79332 5.42334 8.13241 5.42334C9.1041 5.42334 9.88241 5.94544 10.1966 6.67541H11.2118C10.8976 5.39917 9.62136 4.5 8.13241 4.5C6.21321 4.5 4.78711 5.99378 4.78711 8C4.78711 8.9934 5.13677 9.86116 5.72281 10.4841C6.02914 10.3032 6.36544 10.1677 6.72246 10.0867Z" fill="#548AF7"/>
</svg>
