<svg width="16" height="16" viewBox="0 0 16 16" fill="none" xmlns="http://www.w3.org/2000/svg">
<path d="M5.5 12V10C5.5 9.72386 5.72386 9.5 6 9.5H14C14.2761 9.5 14.5 9.72386 14.5 10V12C14.5 12.2761 14.2761 12.5 14 12.5H6C5.72386 12.5 5.5 12.2761 5.5 12Z" fill="#EDF3FF" stroke="#3574F0"/>
<path d="M5.5 6V4C5.5 3.72386 5.72386 3.5 6 3.5H14C14.2761 3.5 14.5 3.72386 14.5 4V6C14.5 6.27614 14.2761 6.5 14 6.5H6C5.72386 6.5 5.5 6.27614 5.5 6Z" fill="#EDF3FF" stroke="#3574F0"/>
<path d="M2.76298 3.07467C2.91038 3.16578 3.00011 3.32671 3.00011 3.5V6H3.50011C3.77625 6 4.00011 6.22386 4.00011 6.5C4.00011 6.77614 3.77625 7 3.50011 7H1.50011C1.22397 7 1.00011 6.77614 1.00011 6.5C1.00011 6.22386 1.22397 6 1.50011 6H2.00011V4.30902L1.72372 4.44721C1.47673 4.57071 1.17639 4.4706 1.0529 4.22361C0.929401 3.97662 1.02951 3.67628 1.2765 3.55279L2.2765 3.05279C2.4315 2.97529 2.61557 2.98357 2.76298 3.07467Z" fill="#6C707E"/>
<path d="M2.50001 8.5C1.67159 8.5 1.00001 9.17157 1.00001 10C1.00001 10.2761 1.22387 10.5 1.50001 10.5C1.77616 10.5 2.00001 10.2761 2.00001 10C2.00001 9.72386 2.22387 9.5 2.50001 9.5C2.77616 9.5 3.00001 9.72386 3.00001 10V10.0607C3.00001 10.2094 2.94095 10.352 2.8358 10.4571L1.14646 12.1464C1.00346 12.2894 0.960684 12.5045 1.03807 12.6913C1.11547 12.8782 1.29778 13 1.50001 13H3.50001C3.77616 13 4.00001 12.7761 4.00001 12.5C4.00001 12.2239 3.77616 12 3.50001 12H2.70712L3.54291 11.1642C3.83559 10.8715 4.00001 10.4746 4.00001 10.0607V10C4.00001 9.17157 3.32844 8.5 2.50001 8.5Z" fill="#6C707E"/>
</svg>
