<svg width="16" height="16" viewBox="0 0 16 16" fill="none" xmlns="http://www.w3.org/2000/svg">
<path d="M7.99979 1.5C7.99979 1.22386 7.77593 1 7.49979 1C7.22365 1 6.99979 1.22386 6.99979 1.5V2.56574L6.27714 2.08397C6.04737 1.9308 5.73694 1.99289 5.58376 2.22265C5.43059 2.45241 5.49267 2.76285 5.72244 2.91603L6.99979 3.76759V7.1342L4.08407 5.4508L3.98526 3.9188C3.96749 3.64323 3.72969 3.43425 3.45412 3.45202C3.17855 3.46979 2.96956 3.70759 2.98734 3.98316L3.04323 4.84988L2.12027 4.31701C1.88113 4.17894 1.57533 4.26087 1.43726 4.50002C1.29919 4.73917 1.38113 5.04496 1.62027 5.18303L2.54323 5.7159L1.76469 6.10085C1.51715 6.22325 1.4157 6.52313 1.53809 6.77067C1.66049 7.01821 1.96038 7.11966 2.20791 6.99726L3.58407 6.31683L6.49937 7.99998L3.58399 9.68317L2.20784 9.00274C1.9603 8.88034 1.66041 8.98179 1.53802 9.22933C1.41563 9.47687 1.51708 9.77675 1.76461 9.89915L2.54316 10.2841L1.6202 10.817C1.38105 10.955 1.29912 11.2608 1.43719 11.5C1.57526 11.7391 1.88105 11.8211 2.1202 11.683L3.04316 11.1501L2.98726 12.0168C2.96949 12.2924 3.17848 12.5302 3.45405 12.548C3.72962 12.5658 3.96742 12.3568 3.98519 12.0812L4.08399 10.5492L6.99979 8.86576V12.2324L5.72244 13.084C5.49267 13.2372 5.43059 13.5476 5.58376 13.7774C5.73694 14.0071 6.04737 14.0692 6.27714 13.916L6.99979 13.4343V14.5C6.99979 14.7761 7.22365 15 7.49979 15C7.77593 15 7.99979 14.7761 7.99979 14.5V1.5Z" fill="#3574F0"/>
<path d="M10.9997 1.5C10.9997 1.22386 10.7759 1 10.4997 1C10.2236 1 9.99973 1.22386 9.99973 1.5V14.5C9.99973 14.7761 10.2236 15 10.4997 15C10.7759 15 10.9997 14.7761 10.9997 14.5V1.5Z" fill="#3574F0"/>
<path d="M13.9997 1.5C13.9997 1.22386 13.7759 1 13.4997 1C13.2236 1 12.9997 1.22386 12.9997 1.5V14.5C12.9997 14.7761 13.2236 15 13.4997 15C13.7759 15 13.9997 14.7761 13.9997 14.5V1.5Z" fill="#3574F0"/>
</svg>
