<!-- Copyright 2000-2026 JetBrains s.r.o. and contributors. Use of this source code is governed by the Apache 2.0 license. -->
<svg width="16" height="16" viewBox="0 0 16 16" fill="none" xmlns="http://www.w3.org/2000/svg">
  <path fill-rule="evenodd" clip-rule="evenodd" d="M4.956 11.595L3.186 12.86C2.849 13.101 2.38 13.022 2.14 12.686C1.899 12.349 1.978 11.88 2.314 11.64L4.212 10.284C4.101 9.956 4.03 9.61 4.008 9.25H1.75C1.336 9.25 1 8.914 1 8.5C1 8.086 1.336 7.75 1.75 7.75H4V7C4 6.848 4.011 6.699 4.033 6.554C4.032 6.564 4.03 6.574 4.028 6.584L2.314 5.36C1.978 5.12 1.899 4.651 2.14 4.314C2.38 3.978 2.849 3.899 3.186 4.14L4.626 5.169C4.614 5.184 4.603 5.2 4.592 5.216C4.949 4.735 5.445 4.364 6.022 4.165C6.018 4.167 6.013 4.168 6.009 4.17C6.004 4.114 6 4.057 6 4C6 2.895 6.895 2 8 2C9.105 2 10 2.895 10 4C10 4.057 9.995 4.114 9.99 4.17C9.987 4.169 9.984 4.168 9.981 4.167C10.538 4.36 11.019 4.712 11.372 5.169L12.815 4.14C13.151 3.899 13.62 3.978 13.86 4.314C14.101 4.651 14.022 5.12 13.686 5.36L11.971 6.584C11.99 6.72 12 6.859 12 7V7.75H14.25C14.664 7.75 15 8.086 15 8.5C15 8.914 14.664 9.25 14.25 9.25H11.992C11.97 9.61 11.898 9.956 11.787 10.284L13.686 11.64C14.022 11.88 14.101 12.349 13.86 12.686C13.62 13.022 13.152 13.101 12.815 12.86L11.042 11.595C10.308 12.454 9.218 13 8 13C6.781 13 5.69 12.455 4.956 11.595ZM7 5.5C6.172 5.5 5.5 6.172 5.5 7V9C5.5 10.381 6.619 11.5 8 11.5C9.381 11.5 10.5 10.381 10.5 9V7C10.5 6.172 9.828 5.5 9 5.5H7Z" fill="white" color-fill-key="icon-over-accent"/>
</svg>