<!-- Copyright 2000-2026 JetBrains s.r.o. and contributors. Use of this source code is governed by the Apache 2.0 license. -->
<svg width="16" height="16" viewBox="0 0 16 16" fill="none" xmlns="http://www.w3.org/2000/svg">
<path fill-rule="evenodd" clip-rule="evenodd" d="M8 2C9.105 2 10 2.895 10 4C10 4.057 9.995 4.114 9.99 4.17C10.544 4.364 11.022 4.714 11.373 5.169L12.815 4.14C13.152 3.899 13.62 3.978 13.86 4.314C14.101 4.651 14.023 5.12 13.686 5.36L11.971 6.584C11.99 6.72 12 6.859 12 7V7.75H14C14.414 7.75 14.75 8.086 14.75 8.5C14.75 8.914 14.414 9.25 14 9.25H11.992C11.97 9.61 11.898 9.956 11.787 10.284L13.686 11.64C14.023 11.88 14.101 12.349 13.86 12.686C13.62 13.023 13.152 13.101 12.815 12.86L11.042 11.595C10.308 12.454 9.218 13 8 13L7.794 12.995C6.658 12.938 5.648 12.406 4.956 11.595L3.186 12.86C2.849 13.101 2.38 13.023 2.14 12.686C1.899 12.349 1.978 11.88 2.314 11.64L4.211 10.284C4.1 9.956 4.03 9.61 4.008 9.25H2C1.586 9.25 1.25 8.914 1.25 8.5C1.25 8.086 1.586 7.75 2 7.75H4V7C4 6.859 4.009 6.72 4.028 6.584L2.314 5.36C1.978 5.12 1.899 4.651 2.14 4.314C2.38 3.978 2.849 3.899 3.186 4.14L4.626 5.169C4.977 4.714 5.456 4.364 6.009 4.17C6.004 4.114 6 4.057 6 4C6 2.895 6.895 2 8 2ZM7 5.5C6.901 5.5 6.804 5.509 6.711 5.527C6.707 5.528 6.704 5.529 6.7 5.529C6.694 5.531 6.687 5.533 6.681 5.534C6.64 5.543 6.6 5.553 6.561 5.565C6.551 5.568 6.542 5.571 6.532 5.574C6.497 5.586 6.462 5.599 6.428 5.613C6.418 5.617 6.409 5.621 6.399 5.625C6.366 5.639 6.334 5.655 6.303 5.672C6.289 5.679 6.276 5.686 6.263 5.693C6.237 5.708 6.212 5.723 6.188 5.739C6.174 5.748 6.161 5.756 6.148 5.765C6.036 5.842 5.934 5.935 5.847 6.04C5.63 6.3 5.5 6.635 5.5 7V9C5.5 10.102 6.213 11.035 7.203 11.368C7.214 11.372 7.225 11.376 7.236 11.38C7.298 11.4 7.361 11.416 7.425 11.431C7.445 11.435 7.464 11.442 7.484 11.446C7.547 11.459 7.61 11.468 7.674 11.477C7.695 11.479 7.717 11.484 7.738 11.486C7.824 11.495 7.912 11.5 8 11.5C8.088 11.5 8.175 11.495 8.261 11.486C8.282 11.484 8.304 11.479 8.325 11.477C8.389 11.468 8.452 11.459 8.515 11.446C8.533 11.442 8.551 11.436 8.569 11.432C9.675 11.174 10.5 10.185 10.5 9V7C10.5 6.635 10.369 6.3 10.152 6.04C10.094 5.97 10.029 5.904 9.958 5.846C9.957 5.845 9.955 5.844 9.954 5.843L9.875 5.781C9.869 5.777 9.863 5.773 9.856 5.769C9.835 5.753 9.812 5.74 9.789 5.726C9.775 5.717 9.76 5.708 9.745 5.699C9.726 5.688 9.708 5.678 9.688 5.668C9.662 5.654 9.636 5.641 9.608 5.629C9.594 5.622 9.579 5.616 9.564 5.61C9.536 5.599 9.508 5.589 9.479 5.579C9.464 5.574 9.449 5.569 9.435 5.564C9.4 5.554 9.365 5.545 9.33 5.537C9.319 5.535 9.307 5.532 9.296 5.529C9.293 5.529 9.291 5.528 9.288 5.527C9.195 5.509 9.098 5.5 9 5.5H7Z" fill="#FFAF0F" color-fill-key="icon-yellow-solid"/>
</svg>