<!-- Copyright 2000-2024 JetBrains s.r.o. and contributors. Use of this source code is governed by the Apache 2.0 license. -->
<svg width="16" height="16" viewBox="0 0 16 16" fill="none" xmlns="http://www.w3.org/2000/svg">
<circle cx="8" cy="8" r="7" fill="#45322B"/>
<path d="M7.25726 12H8.2744V7.32741H9.82869V6.43027H8.2744V5.48C8.2744 5.12 8.52012 4.87429 8.8744 4.87429H9.88012V4H8.77726C7.8744 4 7.25726 4.57143 7.25726 5.40571V6.43027H6.12012V7.32741H7.25726V12Z" fill="#C77D55"/>
<path d="M4.80127 2.92271C5.03476 2.77528 5.10452 2.46647 4.95708 2.23299C4.80965 1.9995 4.50085 1.92974 4.26736 2.07717C2.30511 3.31623 1 5.5055 1 7.99994C1 11.8659 4.13401 14.9999 8 14.9999C11.866 14.9999 15 11.8659 15 7.99994C15 6.04098 14.195 4.27007 12.899 3H15.5C15.7761 3 16 2.77614 16 2.5C16 2.22386 15.7761 2 15.5 2H11.5C11.2239 2 11 2.22386 11 2.5V6.5C11 6.77614 11.2239 7 11.5 7C11.7761 7 12 6.77614 12 6.5V3.52769C13.2282 4.62688 14 6.22329 14 7.99994C14 11.3137 11.3137 13.9999 8 13.9999C4.68629 13.9999 2 11.3137 2 7.99994C2 5.86286 3.11694 3.98628 4.80127 2.92271Z" fill="#C77D55"/>
</svg>
