<svg width="16" height="16" viewBox="0 0 16 16" fill="none" xmlns="http://www.w3.org/2000/svg">
<path fill-rule="evenodd" clip-rule="evenodd" d="M5.31766 1.73227C3.94933 3.26592 0.999999 6.92789 1 10C1 12.7614 3.23858 15 6 15C8.76142 15 11 12.7614 11 10C11 6.92789 8.05067 3.26592 6.68234 1.73227C6.26905 1.26906 6 1 6 1C6 1 5.73094 1.26906 5.31766 1.73227Z" fill="#F2FCF3"/>
<path fill-rule="evenodd" clip-rule="evenodd" d="M4.31373 4.58124C3.07307 6.31817 2 8.34156 2 10C2 12.2091 3.79086 14 6 14C8.20914 14 10 12.2091 10 10C10 8.34156 8.92693 6.31817 7.68627 4.58124C7.08627 3.74124 6.48415 3.01848 6.03141 2.50537C6.02086 2.49341 6.01038 2.48156 6 2.46984C5.98961 2.48156 5.97914 2.49341 5.96859 2.50537C5.51584 3.01848 4.91373 3.74124 4.31373 4.58124ZM5.31766 1.73227C3.94933 3.26592 0.999999 6.92789 1 10C1 12.7614 3.23858 15 6 15C8.76142 15 11 12.7614 11 10C11 6.92789 8.05067 3.26592 6.68234 1.73227C6.26905 1.26906 6 1 6 1C6 1 5.73094 1.26906 5.31766 1.73227Z" fill="#208A3C"/>
<path d="M9.37535 14.9613C9.58003 14.9869 9.78855 15 10.0001 15C12.7616 15 15.0001 12.7614 15.0001 10C15.0001 6.92789 12.0508 3.26591 10.6825 1.73227C10.2692 1.26906 10.0001 1 10.0001 1C10.0001 1 9.73108 1.26906 9.31779 1.73227C9.12069 1.95319 8.89078 2.21827 8.6416 2.51939C8.84323 2.77774 9.05096 3.0533 9.25948 3.34294C9.51787 3.02498 9.75928 2.74274 9.96872 2.50537L10.0001 2.46984L10.0315 2.50537C10.4843 3.01848 11.0864 3.74124 11.6864 4.58124C12.9271 6.31817 14.0001 8.34155 14.0001 10C14.0001 12.0399 12.4731 13.7232 10.4998 13.9691C10.1683 14.3446 9.7905 14.6784 9.37535 14.9613Z" fill="#208A3C"/>
</svg>
