<!-- Copyright 2000-2025 JetBrains s.r.o. and contributors. Use of this source code is governed by the Apache 2.0 license. -->
<svg width="16" height="16" viewBox="0 0 16 16" fill="none" xmlns="http://www.w3.org/2000/svg">
<path d="M12.5 10C11.1193 10 10 11.1193 10 12.5V15.5C10 15.7761 9.77614 16 9.5 16C9.22386 16 9 15.7761 9 15.5V12.5C9 10.567 10.567 9 12.5 9C14.433 9 16 10.567 16 12.5V15.5C16 15.7761 15.7761 16 15.5 16C15.2239 16 15 15.7761 15 15.5V12.5C15 11.1193 13.8807 10 12.5 10Z" fill="#CED0D6"/>
<path d="M11.5 14C11.7761 14 12 14.2239 12 14.5V15.5C12 15.7761 11.7761 16 11.5 16C11.2239 16 11 15.7761 11 15.5V14.5C11 14.2239 11.2239 14 11.5 14Z" fill="#CED0D6"/>
<path d="M13.5 14C13.7761 14 14 14.2239 14 14.5V15.5C14 15.7761 13.7761 16 13.5 16C13.2239 16 13 15.7761 13 15.5V14.5C13 14.2239 13.2239 14 13.5 14Z" fill="#CED0D6"/>
</svg>
