<!-- Copyright 2000-2025 JetBrains s.r.o. and contributors. Use of this source code is governed by the Apache 2.0 license. -->
<svg width="16" height="16" viewBox="0 0 16 16" fill="none" xmlns="http://www.w3.org/2000/svg">
<path d="M15.8001 9.10003C16.021 9.26571 16.0658 9.57912 15.9001 9.80003C15.8586 9.85524 15.8149 9.90788 15.7359 9.99414C15.637 10.102 15.4933 10.2458 15.3124 10.3905C14.961 10.6716 14.4141 11 13.7501 11C13.0972 11 12.6111 10.6754 12.255 10.4376L12.2227 10.4161C11.8316 10.1553 11.5773 10 11.2501 10C10.9141 10 10.586 10.1716 10.3124 10.3905C10.1808 10.4958 10.0745 10.602 10.0015 10.6816C9.95064 10.7371 9.92359 10.7701 9.89992 10.8003C9.73419 11.021 9.42093 11.0657 9.2001 10.9C8.98137 10.736 8.93687 10.4171 9.10099 10.1988C9.14236 10.1441 9.18582 10.0916 9.26433 10.0059C9.36322 9.89804 9.50691 9.75427 9.68775 9.6096C10.0392 9.32843 10.5861 9.00003 11.2501 9.00003C11.903 9.00003 12.3891 9.32465 12.7452 9.56249C13.1561 9.83688 13.414 10 13.7501 10C14.0861 10 14.4142 9.82843 14.6877 9.6096C14.8194 9.50427 14.9257 9.39804 14.9987 9.31842C15.0496 9.26294 15.0766 9.22999 15.1003 9.19979C15.266 8.97908 15.5793 8.9344 15.8001 9.10003Z" fill="#6C707E"/>
<path d="M15.8001 11.6C16.021 11.7657 16.0658 12.0791 15.9001 12.3C15.8586 12.3552 15.8149 12.4079 15.7359 12.4941C15.637 12.602 15.4933 12.7458 15.3124 12.8905C14.961 13.1716 14.4141 13.5 13.7501 13.5C13.0972 13.5 12.6111 13.1754 12.255 12.9376L12.2227 12.9161C11.8316 12.6553 11.5773 12.5 11.2501 12.5C10.9141 12.5 10.586 12.6716 10.3124 12.8905C10.1808 12.9958 10.0745 13.102 10.0015 13.1816C9.95064 13.2371 9.92359 13.2701 9.89992 13.3003C9.73419 13.521 9.42093 13.5657 9.2001 13.4C8.98137 13.236 8.93687 12.9171 9.10099 12.6988C9.14236 12.6441 9.18582 12.5916 9.26433 12.5059C9.36322 12.398 9.50691 12.2543 9.68775 12.1096C10.0392 11.8284 10.5861 11.5 11.2501 11.5C11.903 11.5 12.3891 11.8247 12.7452 12.0625C13.1561 12.3369 13.414 12.5 13.7501 12.5C14.0861 12.5 14.4142 12.3284 14.6877 12.1096C14.8194 12.0043 14.9257 11.898 14.9987 11.8184C15.0496 11.7629 15.0766 11.73 15.1003 11.6998C15.266 11.4791 15.5793 11.4344 15.8001 11.6Z" fill="#6C707E"/>
<path d="M15.9001 14.8C16.0658 14.5791 16.021 14.2657 15.8001 14.1C15.5793 13.9344 15.266 13.9791 15.1003 14.1998C15.0766 14.23 15.0496 14.2629 14.9987 14.3184C14.9257 14.398 14.8194 14.5043 14.6877 14.6096C14.4142 14.8284 14.0861 15 13.7501 15C13.414 15 13.1561 14.8369 12.7452 14.5625C12.3891 14.3247 11.903 14 11.2501 14C10.5861 14 10.0392 14.3284 9.68775 14.6096C9.50691 14.7543 9.36322 14.898 9.26433 15.0059C9.18582 15.0916 9.14236 15.1441 9.10099 15.1988C8.93687 15.4171 8.98137 15.736 9.2001 15.9C9.42093 16.0657 9.73419 16.021 9.89992 15.8003C9.92359 15.7701 9.95064 15.7371 10.0015 15.6816C10.0745 15.602 10.1808 15.4958 10.3124 15.3905C10.586 15.1716 10.9141 15 11.2501 15C11.5773 15 11.8316 15.1553 12.2227 15.4161C12.2334 15.4231 12.2441 15.4303 12.255 15.4376C12.6111 15.6754 13.0972 16 13.7501 16C14.4141 16 14.961 15.6716 15.3124 15.3905C15.4933 15.2458 15.637 15.102 15.7359 14.9941C15.8149 14.9079 15.8586 14.8552 15.9001 14.8Z" fill="#6C707E"/>
</svg>
