<!-- Copyright 2000-2024 JetBrains s.r.o. and contributors. Use of this source code is governed by the Apache 2.0 license. -->
<svg width="16" height="16" viewBox="0 0 16 16" fill="none" xmlns="http://www.w3.org/2000/svg">
<path fill-rule="evenodd" clip-rule="evenodd" d="M15.827 11.1757C16.0613 11.4101 16.0613 11.7899 15.827 12.0243L12.0301 15.8211C11.7958 16.0555 11.4159 16.0555 11.1816 15.8211L9.17574 13.8153C8.94142 13.581 8.94142 13.2011 9.17574 12.9668C9.41005 12.7324 9.78995 12.7324 10.0243 12.9668L11.6059 14.5483L14.9785 11.1757C15.2128 10.9414 15.5927 10.9414 15.827 11.1757Z" fill="#C77D55"/>
<path d="M12.596 12.144L11.5 10.5V5.5L13.5 2.5H2.5L4.5 5.5L4.5 10.5L2.5 13.5L8.00369 13.5C7.9735 13.055 8.12847 12.5998 8.46863 12.2596C9.09347 11.6348 10.1065 11.6348 10.7314 12.2596L11.6059 13.1341L12.596 12.144Z" fill="#43454A"/>
<path fill-rule="evenodd" clip-rule="evenodd" d="M12.9566 11.7834L12 10.3486V5.65139L13.916 2.77735C14.0183 2.62392 14.0278 2.42665 13.9408 2.26407C13.8538 2.10149 13.6844 2 13.5 2H2.5C2.3156 2 2.14617 2.10149 2.05916 2.26407C1.97215 2.42665 1.98169 2.62392 2.08398 2.77735L4 5.65139L4 10.3486L2.08398 13.2227C1.98169 13.3761 1.97215 13.5734 2.05916 13.7359C2.14617 13.8985 2.3156 14 2.5 14L8.11998 14C7.98926 13.682 7.96536 13.3303 8.04826 13L3.43426 13L4.76759 11H11.2324L12.2354 12.5045L12.9566 11.7834ZM11 6V10H5L5 6H11ZM11.2324 5H4.76759L3.43426 3L12.5657 3L11.2324 5Z" fill="#CED0D6"/>
</svg>
