<!-- Copyright 2000-2023 JetBrains s.r.o. and contributors. Use of this source code is governed by the Apache 2.0 license. -->
<svg width="16" height="16" viewBox="0 0 16 16" fill="none" xmlns="http://www.w3.org/2000/svg">
<path fill-rule="evenodd" clip-rule="evenodd" d="M6.62541 6.54724C6.11375 5.62455 5.12981 5 4 5C2.69378 5 1.58254 5.83481 1.17071 7H0.5C0.223858 7 0 7.22386 0 7.5C0 7.77614 0.223858 8 0.5 8H1C1 9.65685 2.34315 11 4 11C5.65685 11 7 9.65685 7 8C7 7.44772 7.44772 7 8 7C8.55228 7 9 7.44772 9 8C9 9.65685 10.3431 11 12 11C13.6569 11 15 9.65685 15 8H15.5C15.7761 8 16 7.77614 16 7.5C16 7.22386 15.7761 7 15.5 7H14.8293C14.4175 5.83481 13.3062 5 12 5C10.8702 5 9.88625 5.62455 9.37459 6.54724C9.01621 6.20803 8.5324 6 8 6C7.4676 6 6.98379 6.20803 6.62541 6.54724ZM4 10C5.10457 10 6 9.10457 6 8C6 6.89543 5.10457 6 4 6C2.89543 6 2 6.89543 2 8C2 9.10457 2.89543 10 4 10ZM10 8C10 9.10457 10.8954 10 12 10C13.1046 10 14 9.10457 14 8C14 6.89543 13.1046 6 12 6C10.8954 6 10 6.89543 10 8Z" fill="#CED0D6"/>
</svg>
