<!-- Copyright 2000-2024 JetBrains s.r.o. and contributors. Use of this source code is governed by the Apache 2.0 license. -->
<svg width="16" height="16" viewBox="0 0 16 16" fill="none" xmlns="http://www.w3.org/2000/svg">
<path d="M8.85355 3.14742C9.04882 3.34269 9.04882 3.65927 8.85355 3.85453L5.70735 7.00074L13.5009 7.00074C13.777 7.00074 14.0009 7.2246 14.0009 7.50074C14.0009 7.77688 13.777 8.00074 13.5009 8.00074L5.70687 8.00074L8.85356 11.1474C9.04882 11.3427 9.04882 11.6593 8.85356 11.8545C8.65829 12.0498 8.34171 12.0498 8.14645 11.8545L4.14645 7.85453C4.05268 7.76076 4 7.63359 4 7.50098C4 7.36837 4.05268 7.24119 4.14645 7.14742L8.14645 3.14742C8.34171 2.95216 8.65829 2.95216 8.85355 3.14742Z" fill="#548AF7"/>
<path d="M2.5 11.5V3.5" stroke="#CED0D6" stroke-linecap="round" stroke-linejoin="round"/>
</svg>
