<!-- Copyright 2000-2024 JetBrains s.r.o. and contributors. Use of this source code is governed by the Apache 2.0 license. -->
<svg width="16" height="16" viewBox="0 0 16 16" fill="none" xmlns="http://www.w3.org/2000/svg">
<path d="M7.14645 3.14742C6.95118 3.34269 6.95118 3.65927 7.14645 3.85453L10.2927 7.00074L2.49914 7.00074C2.223 7.00074 1.99914 7.2246 1.99914 7.50074C1.99914 7.77688 2.223 8.00074 2.49914 8.00074L10.2931 8.00074L7.14644 11.1474C6.95118 11.3427 6.95118 11.6593 7.14644 11.8545C7.34171 12.0498 7.65829 12.0498 7.85355 11.8545L11.8536 7.85453C11.9473 7.76076 12 7.63359 12 7.50098C12 7.36837 11.9473 7.24119 11.8536 7.14742L7.85355 3.14742C7.65829 2.95216 7.34171 2.95216 7.14645 3.14742Z" fill="#57965C"/>
<path d="M13.5 11.5V3.5" stroke="#CED0D6" stroke-linecap="round" stroke-linejoin="round"/>
</svg>
