<!-- Copyright 2000-2025 JetBrains s.r.o. and contributors. Use of this source code is governed by the Apache 2.0 license. -->
<svg width="16" height="16" viewBox="0 0 16 16" fill="none" xmlns="http://www.w3.org/2000/svg">
<path fill-rule="evenodd" clip-rule="evenodd" d="M3.75 1C3.94898 1 4.13967 1.07912 4.28027 1.21973L5.06055 2H5.43945L6.21973 1.21973L6.23828 1.20312L6.31445 1.14062L6.33398 1.12598C6.45625 1.04447 6.60081 1 6.75 1H10.25C13.225 1 15 3.64927 15 6.25L14.9941 6.34668C14.9653 6.56878 14.8379 6.76908 14.6445 6.88867C14.4235 7.02489 14.1469 7.03668 13.915 6.9209L12.0732 6H10.5605L10 6.56055V14.25C10 14.6642 9.66421 15 9.25 15H6.75C6.33579 15 6 14.6642 6 14.25V6.56055L5.43945 6H5.06055L4.28027 6.78027C4.13967 6.92088 3.94898 7 3.75 7H1.75C1.36183 7 1.04253 6.70512 1.00391 6.32715L1 6.25V1.75C1 1.33579 1.33579 1 1.75 1H3.75ZM7.5 13.5H8.5V7H7.5V13.5ZM2.5 5.5H3.43945L4.21973 4.71973L4.23828 4.70312L4.31445 4.64062L4.33398 4.62598C4.45625 4.54447 4.60081 4.5 4.75 4.5H5.75C5.94898 4.5 6.13967 4.57912 6.28027 4.71973L7.06055 5.5H8.93945L9.71973 4.71973L9.73828 4.70312L9.81445 4.64062L9.83398 4.62598C9.95625 4.54447 10.1008 4.5 10.25 4.5H12.25C12.3662 4.5 12.4808 4.5271 12.585 4.5791L13.208 4.89062C12.7346 3.57093 11.702 2.5 10.25 2.5H7.06055L6.28027 3.28027C6.13967 3.42088 5.94898 3.5 5.75 3.5H4.75C4.55102 3.5 4.36033 3.42088 4.21973 3.28027L3.43945 2.5H2.5V5.5Z" fill="white"/>
</svg>
