<!-- Copyright 2000-2021 JetBrains s.r.o. and contributors. Use of this source code is governed by the Apache 2.0 license that can be found in the LICENSE file. -->
<svg width="16" height="16" viewBox="0 0 16 16" fill="none" xmlns="http://www.w3.org/2000/svg">
<path d="M13.842 13.7496C14.2007 13.9567 14.6594 13.8338 14.8665 13.4751C15.0736 13.1164 14.9507 12.6577 14.592 12.4506L13.842 13.7496ZM11.625 12.4696L13.842 13.7496L14.592 12.4506L12.375 11.1706L11.625 12.4696Z" fill="white"/>
<path d="M14.9001 9.75C15.3144 9.75 15.6501 9.41421 15.6501 9C15.6501 8.58579 15.3144 8.25 14.9001 8.25L14.9001 9.75ZM12.4001 9.75L14.9001 9.75L14.9001 8.25L12.4001 8.25L12.4001 9.75Z" fill="white"/>
<path d="M14.5741 5.45962C14.9383 5.26246 15.0738 4.80732 14.8766 4.44304C14.6795 4.07876 14.2243 3.94329 13.8601 4.14046L14.5741 5.45962ZM12.357 6.65961L14.5741 5.45962L13.8601 4.14046L11.643 5.34045L12.357 6.65961Z" fill="white"/>
<path d="M2.15489 13.7496C1.79617 13.9567 1.33748 13.8338 1.13037 13.4751C0.923267 13.1164 1.04617 12.6577 1.40489 12.4506L2.15489 13.7496ZM4.375 12.4678L2.15489 13.7496L1.40489 12.4506L3.625 11.1688L4.375 12.4678Z" fill="white"/>
<path d="M1.1001 9.75C0.685884 9.75 0.350097 9.41421 0.350098 9C0.350098 8.58579 0.685884 8.25 1.1001 8.25L1.1001 9.75ZM3.6001 9.75L1.1001 9.75L1.1001 8.25L3.6001 8.25L3.6001 9.75Z" fill="white"/>
<path d="M1.42328 5.45984C1.05889 5.26288 0.923154 4.80782 1.12011 4.44343C1.31707 4.07904 1.77213 3.9433 2.13652 4.14026L1.42328 5.45984ZM3.64338 6.65982L1.42328 5.45984L2.13652 4.14026L4.35662 5.34024L3.64338 6.65982Z" fill="white"/>
<path d="M10.2439 4.75357C10.3448 4.48836 10.4001 4.20064 10.4001 3.9C10.4001 2.57452 9.32558 1.5 8.0001 1.5C6.67461 1.5 5.6001 2.57452 5.6001 3.9C5.6001 4.22223 5.6636 4.52963 5.77877 4.81036" stroke="white" stroke-width="1.5"/>
<path d="M4 7.5C4 5.84315 5.34315 4.5 7 4.5H9C10.6569 4.5 12 5.84315 12 7.5V10C12 12.2091 10.2091 14 8 14V14C5.79086 14 4 12.2091 4 10V7.5Z" stroke="white" stroke-width="1.5"/>
</svg>
