<!-- Copyright 2000-2021 JetBrains s.r.o. and contributors. Use of this source code is governed by the Apache 2.0 license that can be found in the LICENSE file. -->
<svg width="16" height="16" viewBox="0 0 16 16" fill="none" xmlns="http://www.w3.org/2000/svg">
<path fill-rule="evenodd" clip-rule="evenodd" d="M13.7001 1.49999C13.7001 1.11339 13.3867 0.799988 13.0001 0.799988C12.6135 0.799988 12.3001 1.11339 12.3001 1.49999V3.53358C11.1859 2.46076 9.6702 1.8 8.00005 1.8C4.57588 1.8 1.80005 4.57583 1.80005 8C1.80005 11.4242 4.57588 14.2 8.00005 14.2C10.4719 14.2 12.6045 12.7534 13.6001 10.6638C13.7663 10.3148 13.6182 9.89706 13.2692 9.73078C12.9202 9.5645 12.5024 9.71263 12.3362 10.0616C11.564 11.6823 9.91186 12.8 8.00005 12.8C5.34908 12.8 3.20005 10.651 3.20005 8C3.20005 5.34903 5.34908 3.2 8.00005 3.2C9.42114 3.2 10.6982 3.81709 11.5779 4.79999H9.00005C8.61345 4.79999 8.30005 5.11339 8.30005 5.49999C8.30005 5.88659 8.61345 6.19999 9.00005 6.19999H13.0001H13.7001V5.49999V1.49999Z" fill="white"/>
</svg>
