<!-- Copyright 2000-2021 JetBrains s.r.o. and contributors. Use of this source code is governed by the Apache 2.0 license that can be found in the LICENSE file. -->
<svg width="16" height="16" viewBox="0 0 16 16" fill="none" xmlns="http://www.w3.org/2000/svg">
<path fill-rule="evenodd" clip-rule="evenodd" d="M13.7 1.50001C13.7 1.11341 13.3866 0.800006 13 0.800006C12.6134 0.800006 12.3 1.11341 12.3 1.50001V3.5336C11.1859 2.46078 9.67015 1.80001 8 1.80001C4.57583 1.80001 1.8 4.57585 1.8 8.00001C1.8 11.4242 4.57583 14.2 8 14.2C10.4718 14.2 12.6044 12.7535 13.6 10.6638C13.7663 10.3148 13.6182 9.89708 13.2691 9.7308C12.9201 9.56452 12.5024 9.71265 12.3361 10.0617C11.564 11.6823 9.91182 12.8 8 12.8C5.34903 12.8 3.2 10.651 3.2 8.00001C3.2 5.34905 5.34903 3.20001 8 3.20001C9.42109 3.20001 10.6982 3.8171 11.5778 4.80001H9C8.6134 4.80001 8.3 5.11341 8.3 5.50001C8.3 5.88661 8.6134 6.20001 9 6.20001H13H13.7V5.50001V1.50001Z" fill="white"/>
</svg>
