<!-- Copyright 2000-2022 JetBrains s.r.o. and contributors. Use of this source code is governed by the Apache 2.0 license. -->
<svg width="16" height="16" viewBox="0 0 16 16" fill="none" xmlns="http://www.w3.org/2000/svg">
<path fill-rule="evenodd" clip-rule="evenodd" d="M13.7 1.50005C13.7 1.11345 13.3866 0.800049 13 0.800049C12.6134 0.800049 12.3 1.11345 12.3 1.50005V3.53364C11.1858 2.46082 9.67014 1.80005 7.99999 1.80005C4.57582 1.80005 1.79999 4.57588 1.79999 8.00005C1.79999 11.4242 4.57582 14.2 7.99999 14.2C10.4718 14.2 12.6044 12.7535 13.6 10.6639C13.7663 10.3148 13.6181 9.89712 13.2691 9.73083C12.9201 9.56455 12.5024 9.71269 12.3361 10.0617C11.564 11.6824 9.9118 12.8 7.99999 12.8C5.34902 12.8 3.19999 10.651 3.19999 8.00005C3.19999 5.34908 5.34902 3.20005 7.99999 3.20005C9.42108 3.20005 10.6982 3.81714 11.5778 4.80005H8.99999C8.61339 4.80005 8.29999 5.11345 8.29999 5.50005C8.29999 5.88665 8.61339 6.20005 8.99999 6.20005H13H13.7V5.50005V1.50005Z" fill="white"/>
</svg>
