<!-- Copyright 2000-2021 JetBrains s.r.o. and contributors. Use of this source code is governed by the Apache 2.0 license that can be found in the LICENSE file. -->
<svg width="16" height="16" viewBox="0 0 16 16" fill="none" xmlns="http://www.w3.org/2000/svg">
<path fill-rule="evenodd" clip-rule="evenodd" d="M3.6836 8.62367L2.69336 8.57796L4.11719 9.98857L4.97266 10.9616C5.49274 11.5091 4.71181 12.3606 4.1875 11.8041L1.18164 8.46694C0.94276 8.20069 0.951608 7.78945 1.18164 7.53306L4.1875 4.19592C4.69826 3.62665 5.49288 4.49076 4.97266 5.03837L4.11719 6.01143L2.69922 7.42204L3.6836 7.37633L12.3164 7.37633L13.3066 7.42204L11.8828 6.01143L11.0273 5.03837C10.5073 4.49091 11.2882 3.63937 11.8125 4.19592L14.8184 7.53306C15.0572 7.79931 15.0484 8.21055 14.8184 8.46694L11.8125 11.8041C11.3017 12.3733 10.5071 11.5092 11.0273 10.9616L11.8828 9.98857L13.3008 8.57796L12.3164 8.62367H3.6836Z" fill="#AFB1B3"/>
</svg>
