<!-- Copyright 2000-2021 JetBrains s.r.o. Use of this source code is governed by the Apache 2.0 license that can be found in the LICENSE file. -->
<svg xmlns="http://www.w3.org/2000/svg" width="12" height="12" viewBox="0 0 12 12">
  <g fill="#6E6E6E" fill-rule="evenodd">
    <path d="M1.41342712,3.59632034 L4.24264069,6.42553391 L3.53553391,7.13264069 L1.70974346e-14,3.59710678 L3.53553391,0.06 L4.24264069,0.767106781 L1.41342712,3.59632034 Z" transform="translate(0 .9)"/>
    <path d="M4,7 L7,7 C8.65685425,7 10,5.65685425 10,4 C10,2.34314575 8.65685425,1 7,1 L0,1 L0,0 L7,0 C9.209139,-4.05812251e-16 11,1.790861 11,4 C11,6.209139 9.209139,8 7,8 L4,8 L4,7 Z" transform="translate(1 4)"/>
  </g>
</svg>
