<svg xmlns="http://www.w3.org/2000/svg" width="16" height="16" viewBox="0 0 16 16">
  <g fill="none" fill-rule="evenodd">
    <path fill="#9AA7B0" d="M10.0229852,7.68161185 L9.625,8 L1.02298518,8 L1.02298518,7 L10.0229852,7 L10.0229852,7.68161185 Z M8.37525,8.9998 L7.12525,9.9998 L1.00326371,9.9998 L1.00326371,8.9998 L8.37525,8.9998 Z M9.625375,13.0003 L10.0035634,13.3028507 L10.0035634,14.0003 L1.00356342,14.0003 L1.00356342,13.0003 L9.625375,13.0003 Z M7.1245,10.9996 L8.37575,12.0006 L1.01681098,12.0006 L1.01681098,10.9996 L7.1245,10.9996 Z"/>
    <path fill="#40B6E0" d="M14,1.08632316 L14,9 C14,9.551 13.552,10 13,10 L12,10 L12,7 L8.073,10.5 L12,14 L12,11 L13,11 C14.1,11 15,10.1 15,9 L15,1.08632316 L14,1.08632316 Z"/>
  </g>
</svg>
