<svg xmlns="http://www.w3.org/2000/svg" width="16" height="16" viewBox="0 0 16 16">
  <g fill="none" fill-rule="evenodd">
    <polygon fill="#9AA7B0" points="1.023 7 10 7 10 6 1.023 6"/>
    <polygon fill="#9AA7B0" points="1.003 8 1.003 9 8.254 9 9.375 8"/>
    <polygon fill="#9AA7B0" points="1.004 12 1.004 13 9.375 13 8.254 12"/>
    <polygon fill="#9AA7B0" points="1.017 10 1.017 11.001 7.131 11.001 6.57 10.5 7.131 10"/>
    <polygon fill="#9AA7B0" points="1.012 15 10.012 15 10.012 14 1.012 14"/>
    <path fill="#40B6E0" d="M14,1.08632316 L14,9 C14,9.551 13.552,10 13,10 L12,10 L12,7 L8.073,10.5 L12,14 L12,11 L13,11 C14.1,11 15,10.1 15,9 L15,1.08632316 L14,1.08632316 Z"/>
  </g>
</svg>
