<!-- Copyright 2000-2022 JetBrains s.r.o. and contributors. Use of this source code is governed by the Apache 2.0 license. -->
<svg width="16" height="16" viewBox="0 0 16 16" fill="none" xmlns="http://www.w3.org/2000/svg">
<path fill-rule="evenodd" clip-rule="evenodd" d="M15 8C15 6.20854 14.3166 4.41709 12.9497 3.05025C10.2161 0.316583 5.78392 0.316582 3.05025 3.05025C0.316583 5.78392 0.316583 10.2161 3.05025 12.9497C4.41707 14.3166 6.20849 15 7.99992 15V8H15Z" fill="#25324D"/>
<path fill-rule="evenodd" clip-rule="evenodd" d="M14.9144 6.90481L13.9266 7.06045C13.736 5.85124 13.1756 4.69027 12.2427 3.75736C11.3098 2.82445 10.1488 2.26404 8.93963 2.07352L9.09527 1.0857C10.5063 1.30802 11.8624 1.96287 12.9498 3.05025C14.0372 4.13763 14.6921 5.49375 14.9144 6.90481ZM6.90489 1.0857L7.06053 2.07352C5.85132 2.26404 4.69035 2.82445 3.75744 3.75736C2.82453 4.69027 2.26412 5.85124 2.0736 7.06045L1.08579 6.90481C1.30811 5.49375 1.96295 4.13763 3.05033 3.05025C4.13771 1.96287 5.49383 1.30802 6.90489 1.0857ZM1.08579 9.09519C1.30811 10.5063 1.96295 11.8624 3.05033 12.9497C4.13771 14.0371 5.49383 14.692 6.90489 14.9143L7.06053 13.9265C5.85132 13.736 4.69035 13.1755 3.75744 12.2426C2.82453 11.3097 2.26412 10.1488 2.0736 8.93955L1.08579 9.09519Z" fill="#548AF7"/>
<path fill-rule="evenodd" clip-rule="evenodd" d="M8 10.6021C6.71588 10.5333 5.80284 9.46779 5.80284 8C5.80284 6.48204 6.77936 5.39434 8.13295 5.39434C9.11914 5.39434 9.90229 5.92611 10.2213 6.66091H11.2075C10.8836 5.3895 9.61223 4.5 8.13295 4.5C6.21859 4.5 4.79248 5.99378 4.79248 8C4.79248 9.95949 6.15293 11.4301 8 11.4976V10.6021Z" fill="#548AF7"/>
<path d="M16 16H9V9H16L12.5 12.5L16 16Z" fill="url(#paint0_linear_2344_34144)"/>
<defs>
<linearGradient id="paint0_linear_2344_34144" x1="16" y1="9" x2="9" y2="16" gradientUnits="userSpaceOnUse">
<stop offset="0.00343514" stop-color="#E44857"/>
<stop offset="0.4689" stop-color="#C711E1"/>
<stop offset="1" stop-color="#7F52FF"/>
</linearGradient>
</defs>
</svg>
