<!-- Copyright 2000-2022 JetBrains s.r.o. and contributors. Use of this source code is governed by the Apache 2.0 license. -->
<svg width="16" height="16" viewBox="0 0 16 16" fill="none" xmlns="http://www.w3.org/2000/svg">
<path fill-rule="evenodd" clip-rule="evenodd" d="M15 8C15 4.13401 11.866 1 8 1C4.13401 1 1 4.13401 1 8C1 11.866 4.13401 15 8 15V8H15Z" fill="#253627"/>
<path fill-rule="evenodd" clip-rule="evenodd" d="M9.76895 6.35862V5.38506H10.6942V8H9.68814C9.66996 6.966 8.95203 6.18966 7.99883 6.18966C7.03332 6.18966 6.30918 6.98621 6.30918 8.04023C6.30918 9.09425 7.03332 9.8908 7.99883 9.8908C7.99922 9.8908 7.99961 9.8908 8 9.8908V10.7745C7.97028 10.7754 7.94039 10.7759 7.91033 10.7759C6.42182 10.7759 5.30343 9.60115 5.30343 8.04023C5.30343 6.47931 6.42182 5.3046 7.91033 5.3046C8.75515 5.3046 9.39401 5.69 9.73918 6.35862H9.76895ZM15.0382 8C15.0388 7.97332 15.0391 7.9465 15.0391 7.91954C15.0391 4.11379 11.8931 1 8.03906 1C4.18504 1 1.03906 4.18621 1.03906 8.08046C1.03906 11.8733 4.1638 14.9789 8 14.9999V13.9941C4.71896 13.9732 2.04481 11.3182 2.04481 8.08046C2.04481 4.74138 4.74021 2.00575 8.03906 2.00575C11.3379 2.00575 14.0333 4.66897 14.0333 7.91954C14.0333 7.94657 14.0329 7.97339 14.0321 8H15.0382Z" fill="#57965C"/>
<path d="M16 16H9V9H16L12.5 12.5L16 16Z" fill="url(#paint0_linear_2344_34083)"/>
<defs>
<linearGradient id="paint0_linear_2344_34083" x1="16" y1="9" x2="9" y2="16" gradientUnits="userSpaceOnUse">
<stop offset="0.00343514" stop-color="#E44857"/>
<stop offset="0.4689" stop-color="#C711E1"/>
<stop offset="1" stop-color="#7F52FF"/>
</linearGradient>
</defs>
</svg>
