<!-- Copyright 2000-2022 JetBrains s.r.o. and contributors. Use of this source code is governed by the Apache 2.0 license. -->
<svg width="16" height="16" viewBox="0 0 16 16" fill="none" xmlns="http://www.w3.org/2000/svg">
<path fill-rule="evenodd" clip-rule="evenodd" d="M15 8C15 4.13401 11.866 1 8 1C4.13401 1 1 4.13401 1 8C1 11.866 4.13401 15 8 15V8H15Z" fill="#253627"/>
<path fill-rule="evenodd" clip-rule="evenodd" d="M10 5.5V4.5H8.5H7.5H6V5.5L7.5 5.5V10.5H6V11.5L7.5 11.5H8V8H8.5V5.5L10 5.5Z" fill="#57965C"/>
<path fill-rule="evenodd" clip-rule="evenodd" d="M8 14C4.68629 14 2 11.3137 2 8C2 4.68629 4.68629 2 8 2C11.3137 2 14 4.68629 14 8H15C15 4.13401 11.866 1 8 1C4.13401 1 1 4.13401 1 8C1 11.866 4.13401 15 8 15V14Z" fill="#57965C"/>
<path d="M16 16H9V9H16L12.5 12.5L16 16Z" fill="url(#paint0_linear_2426_34228)"/>
<defs>
<linearGradient id="paint0_linear_2426_34228" x1="16" y1="9" x2="9" y2="16" gradientUnits="userSpaceOnUse">
<stop offset="0.00343514" stop-color="#E44857"/>
<stop offset="0.4689" stop-color="#C711E1"/>
<stop offset="1" stop-color="#7F52FF"/>
</linearGradient>
</defs>
</svg>
