<!-- Copyright 2000-2024 JetBrains s.r.o. and contributors. Use of this source code is governed by the Apache 2.0 license. -->
<svg width="64" height="64" viewBox="0 0 64 64" fill="none" xmlns="http://www.w3.org/2000/svg">
<g clip-path="url(#clip0_4372_11421)">
<path d="M59.9273 0H24.9606C23.8807 0 22.8445 0.4288 22.0806 1.19273L1.19273 22.08C0.4288 22.8439 0 23.8796 0 24.96V59.9273C0 62.1766 1.82342 64 4.07273 64H39.0388C40.1199 64 41.1567 63.57 41.9206 62.8055L62.8073 41.895C63.57 41.1316 63.9983 40.096 63.9983 39.0167L64 4.07273C64 1.82342 62.1766 0 59.9273 0Z" fill="url(#paint0_radial_4372_11421)"/>
<path d="M52 12H12V52H52V12Z" fill="black"/>
<path d="M17.1001 16.9666H23.542C24.5922 16.9666 25.5178 17.1596 26.3183 17.5454C27.1187 17.9313 27.7331 18.4739 28.162 19.1744C28.5978 19.8749 28.816 20.6857 28.816 21.6073C28.816 22.5289 28.5944 23.3649 28.1517 24.0723C27.7159 24.7797 27.0906 25.3304 26.2758 25.7231C25.4685 26.109 24.5285 26.3019 23.457 26.3019H20.0274V31.9721H17.1012V16.9666H17.1001ZM23.3485 23.8696C23.8418 23.8696 24.2701 23.7801 24.6347 23.6015C25.0062 23.4154 25.2922 23.1553 25.492 22.8189C25.6918 22.4761 25.7923 22.0793 25.7923 21.6291C25.7923 21.1789 25.6924 20.7782 25.492 20.4503C25.2916 20.1138 25.0062 19.8566 24.6347 19.6786C24.2701 19.4925 23.8418 19.4001 23.3485 19.4001H20.0256V23.8696H23.3485ZM37.2895 32.23C35.8534 32.23 34.5528 31.8935 33.3878 31.2222C32.2228 30.543 31.3086 29.6145 30.6437 28.4357C29.9794 27.2499 29.6469 25.9276 29.6469 24.4697C29.6469 23.0118 29.9794 21.6934 30.6437 20.5146C31.3081 19.3289 32.2228 18.3993 33.3878 17.728C34.5523 17.0487 35.8528 16.71 37.2895 16.71C38.5039 16.71 39.619 16.935 40.6336 17.3852C41.6482 17.8354 42.4911 18.4676 43.1629 19.2824C43.8416 20.0903 44.2953 21.0187 44.5244 22.069H41.4587C41.2583 21.5263 40.9586 21.0509 40.5584 20.6432C40.1651 20.2292 39.6902 19.9105 39.1327 19.6895C38.5751 19.4684 37.9676 19.357 37.3107 19.357C36.4247 19.357 35.6243 19.5781 34.91 20.0214C34.1951 20.4646 33.6347 21.0756 33.227 21.8542C32.8268 22.6259 32.627 23.4981 32.627 24.4697C32.627 25.4412 32.8268 26.3174 33.227 27.0955C33.6341 27.8672 34.1951 28.4741 34.91 28.9174C35.6243 29.3607 36.4247 29.5818 37.3107 29.5818C37.9682 29.5818 38.5757 29.4704 39.1327 29.2493C39.6896 29.0282 40.1651 28.7136 40.5584 28.3059C40.9586 27.8919 41.2583 27.4124 41.4587 26.8698H44.5244C44.2958 27.92 43.8416 28.8525 43.1629 29.6673C42.4911 30.4752 41.6482 31.1034 40.6336 31.5536C39.619 32.0037 38.5039 32.2288 37.2895 32.2288V32.23Z" fill="white"/>
<path d="M33 44H17V47H33V44Z" fill="white"/>
</g>
<defs>
<radialGradient id="paint0_radial_4372_11421" cx="0" cy="0" r="1" gradientUnits="userSpaceOnUse" gradientTransform="translate(60.4997 3.4997) rotate(135) scale(82.3779)">
<stop offset="0.0566846" stop-color="#F0EB18"/>
<stop offset="0.6" stop-color="#00C4F4"/>
</radialGradient>
<clipPath id="clip0_4372_11421">
<rect width="64" height="64" fill="white"/>
</clipPath>
</defs>
<path d="M56.1887 64H23.8113C21.7397 64 19.7528 63.1771 18.2879 61.7122C16.823 60.2473 16 58.2604 16 56.1887V47.8113C16 46.7855 16.202 45.7697 16.5946 44.822C16.9872 43.8743 17.5626 43.0132 18.2879 42.2878C19.0133 41.5625 19.8743 40.9872 20.8221 40.5946C21.7698 40.202 22.7855 40 23.8113 40H56.1887C58.2604 40 60.2472 40.8229 61.7121 42.2878C63.177 43.7527 64 45.7396 64 47.8113V56.1887C64 58.2604 63.177 60.2473 61.7121 61.7122C60.2472 63.1771 58.2604 64 56.1887 64Z" fill="#FDB60D"/>
<path d="M24.9124 46.7561H33.1512V48.8945H27.2997V51.1102H32.4492V53.2476H27.2997V55.5415H33.2294V57.679H24.9124V46.7561Z" fill="black"/>
<path d="M39.1113 46.679H41.327L46.0082 57.679H43.4959L42.4973 55.2296H37.8791L36.8805 57.679H34.4312L39.1113 46.679ZM41.6399 53.1074L40.1882 49.5651L38.7375 53.1074H41.6399Z" fill="black"/>
<path d="M47.6936 46.7561H52.1564C54.7621 46.7561 56.3378 48.3013 56.3378 50.5321V50.5636C56.3378 53.0911 54.372 54.4026 51.9228 54.4026H50.0972V57.6788H47.6936L47.6936 46.7561ZM51.9999 52.2643C52.2361 52.2943 52.4759 52.274 52.7037 52.205C52.9315 52.1359 53.1422 52.0194 53.3219 51.8633C53.5016 51.7072 53.6463 51.5149 53.7466 51.299C53.8468 51.083 53.9004 50.8484 53.9037 50.6104V50.5789C53.9037 49.503 53.155 48.925 51.9532 48.925H50.0972V52.2643H51.9999Z" fill="black"/>
</svg>