<svg xmlns="http://www.w3.org/2000/svg" xmlns:xlink="http://www.w3.org/1999/xlink" width="16" height="16" viewBox="0 0 16 16">
  <defs>
    <linearGradient id="pycharm-ce_16-b" x1="50%" x2="50%" y1="-11.618%" y2="60.589%">
      <stop offset="0%" stop-color="#A6A5A5"/>
      <stop offset="0%" stop-color="#989898" stop-opacity=".568"/>
      <stop offset="100%"/>
    </linearGradient>
    <polygon id="pycharm-ce_16-a" points="0 14 14 14 14 0 0 0"/>
  </defs>
  <g fill="none" fill-rule="evenodd">
    <polygon fill="#21D789" points="0 16 16 16 16 0 0 0"/>
    <g transform="translate(1 1)">
      <use fill="#000" xlink:href="#pycharm-ce_16-a"/>
      <use fill="url(#pycharm-ce_16-b)" xlink:href="#pycharm-ce_16-a"/>
      <polygon fill="#FFF" points="2 12 8 12 8 11 2 11"/>
    </g>
    <path fill="#FFF" d="M5.3657 6.0259C6.0257 6.0259 6.4117 5.6309 6.4117 5.1169L6.4117 5.0999C6.4117 4.5089 5.9997 4.1919 5.3397 4.1919L4.3197 4.1919 4.3197 6.0259 5.3657 6.0259zM2.9997 2.9999L5.4507 2.9999C6.8827 2.9999 7.7487 3.8489 7.7487 5.0739L7.7487 5.0909C7.7487 6.4799 6.6687 7.1999 5.3227 7.1999L4.3197 7.1999 4.3197 8.9999 2.9997 8.9999 2.9997 2.9999zM8.0234 6.0059L8.0234 5.9889C8.0234 4.2889 9.3044 2.8969 11.1414 2.8969 12.2684 2.8969 12.9434 3.2729 13.4984 3.8189L12.6614 4.7849C12.2004 4.3659 11.7304 4.1099 11.1324 4.1099 10.1244 4.1099 9.3984 4.9469 9.3984 5.9719L9.3984 5.9889C9.3984 7.0139 10.1074 7.8679 11.1324 7.8679 11.8154 7.8679 12.2344 7.5949 12.7044 7.1679L13.5414 8.0139C12.9264 8.6709 12.2424 9.0809 11.0894 9.0809 9.3304 9.0809 8.0234 7.7229 8.0234 6.0059"/>
  </g>
</svg>
