<!-- Copyright 2000-2024 JetBrains s.r.o. and contributors. Use of this source code is governed by the Apache 2.0 license. -->
<svg width="16" height="16" viewBox="0 0 16 16" fill="none" xmlns="http://www.w3.org/2000/svg">
<g clip-path="url(#clip0_4372_11417)">
<g clip-path="url(#clip1_4372_11417)">
<path d="M16 0H0V16H16V0Z" fill="#F0EB18"/>
<path d="M15 1H1V15H15V1Z" fill="black"/>
<path d="M2.90222 2.86674H5.14602C5.51182 2.86674 5.83422 2.93394 6.11302 3.06834C6.39182 3.20274 6.60582 3.39174 6.75522 3.63574C6.90702 3.87974 6.98302 4.16214 6.98302 4.48314C6.98302 4.80414 6.90582 5.09534 6.75162 5.34174C6.59982 5.58814 6.38202 5.77994 6.09822 5.91674C5.81702 6.05114 5.48962 6.11834 5.11642 6.11834H3.92182V8.09334H2.90262V2.86674H2.90222ZM5.07862 5.27114C5.25042 5.27114 5.39962 5.23994 5.52662 5.17774C5.65602 5.11294 5.75562 5.02234 5.82522 4.90514C5.89482 4.78574 5.92982 4.64754 5.92982 4.49074C5.92982 4.33394 5.89502 4.19434 5.82522 4.08014C5.75542 3.96294 5.65602 3.87334 5.52662 3.81134C5.39962 3.74654 5.25042 3.71434 5.07862 3.71434H3.92122V5.27114H5.07862ZM9.93442 8.18314C9.43422 8.18314 8.98122 8.06594 8.57542 7.83214C8.16962 7.59554 7.85122 7.27214 7.61962 6.86154C7.38822 6.44854 7.27242 5.98794 7.27242 5.48014C7.27242 4.97234 7.38822 4.51314 7.61962 4.10254C7.85102 3.68954 8.16962 3.36574 8.57542 3.13194C8.98102 2.89534 9.43402 2.77734 9.93442 2.77734C10.3574 2.77734 10.7458 2.85574 11.0992 3.01254C11.4526 3.16934 11.7462 3.38954 11.9802 3.67334C12.2166 3.95474 12.3746 4.27814 12.4544 4.64394H11.3866C11.3168 4.45494 11.2124 4.28934 11.073 4.14734C10.936 4.00314 10.7706 3.89214 10.5764 3.81514C10.3822 3.73814 10.1706 3.69934 9.94182 3.69934C9.63322 3.69934 9.35442 3.77634 9.10562 3.93074C8.85662 4.08514 8.66142 4.29794 8.51942 4.56914C8.38002 4.83794 8.31042 5.14174 8.31042 5.48014C8.31042 5.81854 8.38002 6.12374 8.51942 6.39474C8.66122 6.66354 8.85662 6.87494 9.10562 7.02934C9.35442 7.18374 9.63322 7.26074 9.94182 7.26074C10.1708 7.26074 10.3824 7.22194 10.5764 7.14494C10.7704 7.06794 10.936 6.95834 11.073 6.81634C11.2124 6.67214 11.3168 6.50514 11.3866 6.31614H12.4544C12.3748 6.68194 12.2166 7.00674 11.9802 7.29054C11.7462 7.57194 11.4526 7.79074 11.0992 7.94754C10.7458 8.10434 10.3574 8.18274 9.93442 8.18274V8.18314Z" fill="white"/>
<path d="M8 12H3V13H8V12Z" fill="white"/>
</g>
</g>
<defs>
<clipPath id="clip0_4372_11417">
<rect width="16" height="16" fill="white"/>
</clipPath>
<clipPath id="clip1_4372_11417">
<rect width="16" height="16" fill="white"/>
</clipPath>
</defs>
</svg>
