<svg xmlns="http://www.w3.org/2000/svg" xmlns:xlink="http://www.w3.org/1999/xlink" width="16" height="16" viewBox="0 0 16 16">
  <defs>
    <linearGradient id="pycharm-ce_16@2x-b" x1="33.061%" x2="62.3%" y1="11.236%" y2="54.987%">
      <stop offset="0%" stop-color="#21D789"/>
      <stop offset="100%" stop-color="#07C3F2"/>
    </linearGradient>
    <polygon id="pycharm-ce_16@2x-a" points="8 8.152 10.43 8.152 14 10 14 0 10.157 0"/>
    <linearGradient id="pycharm-ce_16@2x-d" x1="50%" x2="110.769%" y1="26.504%" y2="58.411%">
      <stop offset="0%" stop-color="#21D789"/>
      <stop offset="100%" stop-color="#07C3F2"/>
    </linearGradient>
    <polygon id="pycharm-ce_16@2x-c" points="0 0 0 10.887 0 12 2.308 11.332 4.692 10.367 4.771 8.734 5.704 4.008 10.5 0"/>
    <linearGradient id="pycharm-ce_16@2x-f" x1="16.751%" x2="127.338%" y1="86.735%" y2="16.208%">
      <stop offset="0%" stop-color="#21D789"/>
      <stop offset="100%" stop-color="#FCF84A"/>
    </linearGradient>
    <polygon id="pycharm-ce_16@2x-e" points="0 10.571 0 14 6.877 14 7 11.551 2.333 8"/>
    <linearGradient id="pycharm-ce_16@2x-h" x1="17.087%" x2="109.484%" y1="104.762%" y2="3.399%">
      <stop offset="0%" stop-color="#21D789"/>
      <stop offset="100%" stop-color="#FCF84A"/>
    </linearGradient>
    <polygon id="pycharm-ce_16@2x-g" points="10.283 0 9.087 0 5.5 4 11 3"/>
    <linearGradient id="pycharm-ce_16@2x-j" x1="-17.316%" x2="59.89%" y1="25.401%" y2="77.245%">
      <stop offset="0%" stop-color="#21D789"/>
      <stop offset="100%" stop-color="#FCF84A"/>
    </linearGradient>
    <polygon id="pycharm-ce_16@2x-i" points="6.341 3.375 5.6 4.05 3.5 12.5 6.835 14 14 14 14 10.125 11.035 5.375 10.269 3"/>
    <linearGradient id="pycharm-ce_16@2x-l" x1="50%" x2="50%" y1="-11.618%" y2="60.589%">
      <stop offset="0%" stop-color="#A6A5A5"/>
      <stop offset="0%" stop-color="#989898" stop-opacity=".568"/>
      <stop offset="100%"/>
    </linearGradient>
    <polygon id="pycharm-ce_16@2x-k" points="0 10 10 10 10 0 0 0"/>
  </defs>
  <g fill="none" fill-rule="evenodd">
    <g transform="translate(1 1)">
      <use fill="#07C3F2" xlink:href="#pycharm-ce_16@2x-a"/>
      <use fill="url(#pycharm-ce_16@2x-b)" xlink:href="#pycharm-ce_16@2x-a"/>
      <use fill="#21D789" xlink:href="#pycharm-ce_16@2x-c"/>
      <use fill="url(#pycharm-ce_16@2x-d)" xlink:href="#pycharm-ce_16@2x-c"/>
      <use fill="#FCF84A" xlink:href="#pycharm-ce_16@2x-e"/>
      <use fill="url(#pycharm-ce_16@2x-f)" xlink:href="#pycharm-ce_16@2x-e"/>
      <use fill="#21D789" xlink:href="#pycharm-ce_16@2x-g"/>
      <use fill="url(#pycharm-ce_16@2x-h)" xlink:href="#pycharm-ce_16@2x-g"/>
      <use fill="#FCF84A" xlink:href="#pycharm-ce_16@2x-i"/>
      <use fill="url(#pycharm-ce_16@2x-j)" xlink:href="#pycharm-ce_16@2x-i"/>
      <g transform="translate(2 2)">
        <use fill="#000" xlink:href="#pycharm-ce_16@2x-k"/>
        <use fill="url(#pycharm-ce_16@2x-l)" xlink:href="#pycharm-ce_16@2x-k"/>
        <polygon fill="#FFF" points="1 8.5 5 8.5 5 8 1 8"/>
      </g>
    </g>
    <path fill="#FFF" d="M7.6 6.25C7.6 4.98569762 8.55305646 3.95 9.91931871 3.95 10.7575362 3.95 11.2598227 4.22904806 11.6719552 4.63581428L11.0494634 5.35382641C10.7070929 5.04258049 10.3572095 4.85261316 9.91287914 4.85261316 9.16266916 4.85261316 8.62281848 5.47510499 8.62281848 6.23712086L8.62281848 6.25C8.62281848 7.01201587 9.14979001 7.64738684 9.91287914 7.64738684 10.420532 7.64738684 10.7317779 7.44454036 11.0816612 7.12685488L11.7041531 7.75578628C11.2458703 8.24519365 10.7382175 8.55 9.88068129 8.55 8.57237517 8.55 7.6 7.5389874 7.6 6.26287914L7.6 6.25zM5.71489412 6.26971765C6.19348235 6.26971765 6.47301176 5.97430588 6.47301176 5.58783529L6.47301176 5.57512941C6.47301176 5.13148235 6.17442353 4.89324706 5.69583529 4.89324706L4.95677647 4.89324706 4.95677647 6.26971765 5.71489412 6.26971765zM3.9996 3.9996L5.77736471 3.9996C6.81501176 3.9996 7.44183529 4.63701176 7.44183529 5.55501176L7.44183529 5.56877647C7.44183529 6.6096 6.65936471 7.1496 5.68418824 7.1496L4.95677647 7.1496 4.95677647 8.4996 3.9996 8.4996 3.9996 3.9996z"/>
  </g>
</svg>
