<svg width="16" height="16" viewBox="0 0 16 16" fill="none" xmlns="http://www.w3.org/2000/svg">
<path d="M16 0H0V16H16V0Z" fill="#FCF84A"/>
<path d="M15 1H1V15H15V1Z" fill="black"/>
<path d="M9 12H3V13H9V12Z" fill="white"/>
<path d="M8 6.1C8 4.4 9.3 3 11.1 3C12.2 3 12.9 3.4 13.5 3.9L12.7 4.9C12.2 4.5 11.7 4.2 11.1 4.2C10.1 4.2 9.4 5 9.4 6.1C9.4 7.1 10.1 8 11.1 8C11.8 8 12.2 7.7 12.7 7.3L13.5 8.1C12.9 8.8 12.2 9.2 11.1 9.2C9.3 9.2 8 7.8 8 6.1Z" fill="white"/>
<path d="M3 3.09998H5.4C6.8 3.09998 7.6 3.89998 7.6 5.19998C7.6 6.59998 6.5 7.29998 5.2 7.29998H4.2V9.09998H3V3.09998ZM5.3 6.09998C5.9 6.09998 6.3 5.69998 6.3 5.19998C6.3 4.59998 5.9 4.29998 5.3 4.29998H4.3V6.09998H5.3V6.09998Z" fill="white"/>
</svg>
