<svg xmlns="http://www.w3.org/2000/svg" xmlns:xlink="http://www.w3.org/1999/xlink" width="16" height="16" viewBox="0 0 16 16">
  <defs>
    <linearGradient id="pycharm-ce-eap_16-b" x1="50%" x2="50%" y1="-11.618%" y2="60.589%">
      <stop offset="0%" stop-color="#A6A5A5"/>
      <stop offset="0%" stop-color="#989898" stop-opacity=".568"/>
      <stop offset="100%"/>
    </linearGradient>
    <polygon id="pycharm-ce-eap_16-a" points="0 14 14 14 14 0 0 0"/>
  </defs>
  <g fill="none" fill-rule="evenodd">
    <polygon fill="#21D789" points="0 16 16 16 16 0 0 0"/>
    <g transform="translate(1 1)">
      <use fill="#000" xlink:href="#pycharm-ce-eap_16-a"/>
      <use fill="url(#pycharm-ce-eap_16-b)" xlink:href="#pycharm-ce-eap_16-a"/>
      <polygon fill="#FFF" points="2 12 8 12 8 11 2 11"/>
    </g>
    <g transform="translate(3 9)">
      <polygon fill="#D99E2B" points="0 7 13 7 13 0 0 0"/>
      <polygon fill="#000" points="1 1 4 1 4 1.8 1.8 1.8 1.8 3 3.5 3 3.5 3.8 1.8 3.8 1.8 5.2 3.998 5.2 3.998 6 1 6"/>
      <path fill="#000" d="M11.2 2.709C11.2 3.204 11.0134 3.584 10.5554 3.584L9.8 3.584 9.8 1.791 10.4364 1.791C10.9834 1.791 11.16 2.084 11.2 2.541L11.2 2.709zM8.9974 1L8.9974 6 9.8 6 9.8 4.375 10.3954 4.375C11.3114 4.393 12.0004 3.645 12.0004 2.792L12.0004 2.585C12.0004 1.66 11.3694 1 10.5474 1L8.9974 1zM5.8008 4L6.5208 2.041 7.2798 4 5.8008 4zM6.8798 1L6.1598 1 4.2808 6 5.0398 6 5.4808 4.8 7.5188 4.8 7.9598 6 8.7578 6 6.8798 1z"/>
    </g>
    <path fill="#FFF" d="M5.05 5.5C5.62 5.5 6 5.16666667 6 4.75 6 4.25 5.62 4 5.05 4L4.1 4 4.1 5.5 5.05 5.5zM3 3L5.04444444 3C6.28888889 3 7 3.70175439 7 4.75438596 7 5.89473684 6.11111111 6.50877193 4.95555556 6.50877193L4.06666667 6.50877193 4.06666667 8 3 8 3 3zM7.7998 5.4998L7.7998 5.4998C7.7998 4.16646667 8.95364615 2.9998 10.6844154 2.9998 11.7430692 2.9998 12.3190308 3.33313333 12.7998 3.7498L12.0305692 4.4998C11.6459538 4.16646667 11.1651846 3.9998 10.5882615 3.9998 9.72287692 3.9998 9.0498 4.66646667 9.0498 5.4998 9.0498 6.33313333 9.72287692 6.9998 10.6844154 6.9998 11.3574923 6.9998 11.7430692 6.7498 12.1267231 6.41646667L12.7998 7.16646667C12.2238385 7.66646667 11.6459538 7.9998 10.5882615 7.9998 8.95364615 7.9998 7.7998 6.91646667 7.7998 5.4998"/>
  </g>
</svg>
