<!-- Copyright 2000-2023 JetBrains s.r.o. and contributors. Use of this source code is governed by the Apache 2.0 license. -->
<svg width="16" height="16" viewBox="0 0 16 16" fill="none" xmlns="http://www.w3.org/2000/svg">
<rect x="7" y="4.5" width="2" height="4" fill="#E05555"/>
<rect x="7" y="9.5" width="2" height="2" fill="#E05555"/>
<path fill-rule="evenodd" clip-rule="evenodd" d="M4.95101 4.03688C5.79489 3.38669 6.85227 3 7.99997 3C9.14763 3 10.205 3.38667 11.0489 4.03683L12.4716 2.61414C11.2588 1.60615 9.70018 1 7.99997 1C6.29973 1 4.74107 1.60617 3.52832 2.6142L4.95101 4.03688Z" fill="#E05555"/>
<path opacity="0.8" fill-rule="evenodd" clip-rule="evenodd" d="M3.6387 5.55296L2.18602 4.10028C1.43703 5.21472 1 6.55632 1 7.99999C1 9.7002 1.60615 11.2588 2.61414 12.4716L4.03683 11.0489C3.38667 10.205 3 9.14766 3 7.99999C3 7.11105 3.23198 6.2763 3.6387 5.55296Z" fill="#E05555"/>
<path opacity="0.6" fill-rule="evenodd" clip-rule="evenodd" d="M11.8996 13.814C10.7851 14.563 9.44355 15 7.99988 15C6.55618 15 5.21455 14.563 4.1001 13.8139L5.55277 12.3613C6.27613 12.768 7.11091 13 7.99988 13C8.88881 13 9.72357 12.768 10.4469 12.3613L11.8996 13.814Z" fill="#E05555"/>
<path opacity="0.4" fill-rule="evenodd" clip-rule="evenodd" d="M13.3858 12.4717C14.3938 11.2589 15 9.70024 15 8C15 6.5563 14.563 5.21467 13.814 4.10022L12.3613 5.5529C12.768 6.27625 13 7.11103 13 8C13 9.1477 12.6133 10.2051 11.9631 11.049L13.3858 12.4717Z" fill="#E05555"/>
</svg>
