<svg xmlns="http://www.w3.org/2000/svg" width="16" height="16" viewBox="0 0 16 16">
  <g fill="#9AA7B0" fill-opacity=".8" fill-rule="evenodd" transform="translate(-.4)">
    <rect width="6" height="2" x="5.778" y="6.778" transform="rotate(-45 8.778 7.778)"/>
    <path d="M7.47817459,3.97817459 L7.47817459,5.37817456 L5.47817459,5.37817456 C4.04223423,5.37817456 2.87817457,6.54223423 2.87817457,7.97817459 C2.87817457,9.41411495 4.04223423,10.5781746 5.47817459,10.5781746 L7.47817459,10.5781746 L7.47817459,11.9781746 L5.47817459,11.9781746 C3.26903559,11.9781746 1.4781746,10.1873136 1.4781746,7.97817459 C1.4781746,5.76903559 3.26903559,3.97817459 5.47817459,3.97817459 L7.47817459,3.97817459 Z M9.47817459,3.97817459 L11.4781746,3.97817459 C13.6873136,3.97817459 15.4781746,5.76903559 15.4781746,7.97817459 C15.4781746,10.1873136 13.6873136,11.9781746 11.4781746,11.9781746 L9.47817459,11.9781746 L9.47817459,10.5781746 L11.4781746,10.5781746 C12.914115,10.5781746 14.0781746,9.41411495 14.0781746,7.97817459 C14.0781746,6.54223423 12.914115,5.37817456 11.4781746,5.37817456 L9.47817459,5.37817456 L9.47817459,3.97817459 Z" transform="rotate(-45 8.478 7.978)"/>
  </g>
</svg>
