<svg xmlns="http://www.w3.org/2000/svg" width="16" height="16" viewBox="0 0 16 16">
  <g fill="#9AA7B0" fill-rule="evenodd" transform="translate(7 7)">
    <polygon points="2.986 4.236 6.736 4.236 6.736 5.486 2.986 5.486" transform="rotate(-45 4.861 4.861)"/>
    <path d="M4.23635912,2.36135912 L4.23635912,3.2363591 L2.98635912,3.2363591 C2.0888964,3.2363591 1.36135911,3.96389639 1.36135911,4.86135912 C1.36135911,5.75882184 2.0888964,6.48635913 2.98635912,6.48635913 L4.23635912,6.48635913 L4.23635912,7.36135912 L2.98635912,7.36135912 C1.60564725,7.36135912 0.486359123,6.24207099 0.486359123,4.86135912 C0.486359123,3.48064724 1.60564725,2.36135912 2.98635912,2.36135912 L4.23635912,2.36135912 Z M5.48635912,2.36135912 L6.73635912,2.36135912 C8.11707098,2.36135912 9.23635911,3.48064724 9.23635911,4.86135912 C9.23635911,6.24207099 8.11707098,7.36135912 6.73635912,7.36135912 L5.48635912,7.36135912 L5.48635912,6.48635913 L6.73635912,6.48635913 C7.63382186,6.48635913 8.36135911,5.75882184 8.36135911,4.86135912 C8.36135911,3.96389639 7.63382186,3.2363591 6.73635912,3.2363591 L5.48635912,3.2363591 L5.48635912,2.36135912 Z" transform="rotate(-45 4.861 4.861)"/>
  </g>
</svg>
