<?xml version="1.0" encoding="UTF-8"?>
<svg id="Layer_1" data-name="Layer 1" xmlns="http://www.w3.org/2000/svg" version="1.1" viewBox="0 0 40 40">
  <defs>
    <style>
      .cls-1 {
        fill: #98d81d;
      }

      .cls-1, .cls-2 {
        stroke-width: 0px;
      }

      .cls-2 {
        fill: #5f8916;
      }
    </style>
  </defs>
  <path class="cls-1" d="M30.13,17.56c-2.6-7.12-10.13-14.38-10.13-14.38,0,0-7.53,7.26-10.13,14.38-.57,1.33-.89,2.8-.89,4.35,0,6.09,4.93,11.02,11.02,11.02s11.02-4.93,11.02-11.02c0-1.55-.32-3.01-.89-4.35Z"/>
  <path class="cls-2" d="M31.87,21.91c0-1.61-.32-3.18-.95-4.66-2.64-7.21-10.01-14.38-10.33-14.68l-.59-.57-.59.57c-.31.3-7.7,7.48-10.32,14.66-.64,1.49-.96,3.06-.96,4.69,0,6.26,4.87,11.39,11.02,11.83v3.42c0,.47.38.85.85.85s.85-.38.85-.85v-3.42c6.15-.44,11.02-5.57,11.02-11.83ZM20.85,32.04v-2.99l6.44-6.51c.33-.33.33-.87,0-1.2-.33-.33-.87-.33-1.2,0l-5.24,5.29v-5.92l4.73-4.79c.33-.33.33-.87,0-1.2-.33-.33-.87-.33-1.2,0l-3.52,3.56v-5.5c0-.47-.38-.85-.85-.85s-.85.38-.85.85v5.32l-3.53-3.4c-.34-.33-.88-.31-1.2.02-.33.34-.31.88.02,1.2l4.71,4.53v5.88l-5.25-5.02c-.34-.32-.88-.31-1.2.03-.32.34-.31.88.03,1.2l6.43,6.14v3.34c-5.21-.43-9.32-4.81-9.32-10.13,0-1.39.28-2.74.84-4.06,2.08-5.7,7.52-11.61,9.33-13.47,1.8,1.86,7.25,7.76,9.33,13.47l.02.04c.55,1.27.83,2.62.83,4.01,0,5.32-4.11,9.69-9.32,10.13Z"/>
</svg>