<svg xmlns="http://www.w3.org/2000/svg" fill="black" height="24" viewBox="0 96 960 960" width="24"><path d="M783.522 945.087 529.848 691.413q-29.761 23.044-68.642 36.565-38.88 13.522-83.119 13.522-111.152 0-188.326-77.174Q112.587 587.152 112.587 476q0-111.152 77.174-188.326Q266.935 210.5 378.087 210.5q111.152 0 188.326 77.174Q643.587 364.848 643.587 476q0 44.478-13.522 83.12-13.521 38.641-36.565 68.163l253.913 254.152-63.891 63.652ZM378.087 650.5q72.848 0 123.674-50.826Q552.587 548.848 552.587 476q0-72.848-50.826-123.674Q450.935 301.5 378.087 301.5q-72.848 0-123.674 50.826Q203.587 403.152 203.587 476q0 72.848 50.826 123.674Q305.239 650.5 378.087 650.5Z"/></svg>
