<!-- Copyright 2000-2023 JetBrains s.r.o. and contributors. Use of this source code is governed by the Apache 2.0 license. -->
<svg xmlns="http://www.w3.org/2000/svg" width="16" height="16" viewBox="0 0 16 16">
  <path fill="#BE1E2D" fill-rule="evenodd" d="M9.40319005 6.34613522C9.60837951 6.34696634 9.77445737 6.51411972 9.77347957 6.71940698 9.7727951 6.92464536 9.60564172 7.0906743 9.40010998 7.08974542 9.19511608 7.08886539 9.02913602 6.92185865 9.02977158 6.71647363 9.03074937 6.51113746 9.19785387 6.34530407 9.40319005 6.34613522M10.6767631 7.04061139C10.8889438 7.18498227 10.9441401 7.47401737 10.7994759 7.68629583 10.6553006 7.8985743 10.3661677 7.95362395 10.1540848 7.80925308 9.9419041 7.66488221 9.88680557 7.37589602 10.0310298 7.16351975 10.1754495 6.95133908 10.4645335 6.89624055 10.6767631 7.04061139M11.5111612 8.65064239C11.6303051 8.94852649 11.4852986 9.2865 11.1871701 9.40554609 10.8893838 9.52454328 10.5513125 9.3797324 10.4323153 9.08170165 10.3131714 8.78362199 10.4581779 8.44569737 10.7562086 8.32655351 11.0541416 8.20760521 11.3923107 8.35266052 11.5111612 8.65064239M11.2506776 10.9021044C11.1658053 11.2941498 10.7790889 11.5431932 10.3870924 11.458272 9.99519372 11.3732042 9.7461992 10.9867323 9.83116925 10.5948824 9.9161393 10.2028859 10.3026602 9.95394028 10.6946567 10.0386659 11.0866043 10.123636 11.335501 10.5102057 11.2506776 10.9021044M9.40651452 13.0533917C9.04473179 13.4003609 8.46998613 13.3881385 8.12321247 13.0259647 7.77634104 12.6642797 7.78846567 12.0895829 8.15044395 11.7428093 8.51252003 11.3956934 9.08716793 11.4079647 9.43408824 11.7698941 9.7807641 12.1318724 9.76839504 12.7066181 9.40651452 13.0533917M5.99206766 13.9937335C5.37454364 14.1003127 4.78747779 13.685876 4.68119188 13.068303 4.57471044 12.4508279 4.98880499 11.8638598 5.60657348 11.7574273 6.22404864 11.6509458 6.81101669 12.0650892 6.91759593 12.6830044 7.02383292 13.3003818 6.60973838 13.8874476 5.99206766 13.9937335M1.79621896 12.5815097C1.08174693 12.2601097.763133671 11.4205782 1.08448475 10.706204 1.4059336 9.99192747 2.24556291 9.67316753 2.95998605 9.99461639 3.67440919 10.3159186 3.99292466 11.1555479 3.67167137 11.8700199 3.35012474 12.5842475 2.51054432 12.9029096 1.79621896 12.5815097M6.2616936 8.17504475C6.15966107 7.9968423 6.22150637 7.76965253 6.39970882 7.66771779 6.57791127 7.56573418 6.80519884 7.6274328 6.90708466 7.8057819 7.00897051 7.98403323 6.94727188 8.21107636 6.76911832 8.31310888 6.5908181 8.41504361 6.36372609 8.3532472 6.2616936 8.17504475M6.22610199 6.72493152C6.24502224 6.46889691 6.46800753 6.27671204 6.72418882 6.29553452 6.97993011 6.31450368 7.17226165 6.53714671 7.15334138 6.79323023 7.13442113 7.04926487 6.91158251 7.24140083 6.65559678 7.22252946 6.39956214 7.2036581 6.20737727 6.98086836 6.22610199 6.72493152M7.20335541 5.19727945C7.40179813 4.94510708 7.76710092 4.90174205 8.01922438 5.10023366 8.27139672 5.2986275 8.31481066 5.66407697 8.11636793 5.91610263 7.91753409 6.16822609 7.55252462 6.21159115 7.3003034 6.01309954 7.0483755 5.81451014 7.00481489 5.44930511 7.20335541 5.19727945M9.28360619 4.29712487C9.66553142 4.17446095 10.0744437 4.38488162 10.196912 4.76680686 10.3192826 5.14887877 10.1091553 5.55779106 9.72708337 5.68021051 9.34540257 5.80253219 8.93644141 5.59225819 8.81387528 5.21033296 8.69126028 4.8284566 8.90177871 4.41954432 9.28360619 4.29712487M12.0684533 4.81838536C12.5500643 4.95845394 12.8267793 5.46226086 12.6864662 5.94362747 12.5466421 6.42484741 12.042884 6.70170897 11.5614197 6.5616404 11.0802486 6.42157179 10.8033381 5.91791155 10.9434067 5.43644717 11.0835242 4.95508055 11.5873311 4.67836564 12.0684533 4.81838536M14.5904212 7.30520172C14.9914134 7.78691054 14.9259014 8.50240925 14.4443392 8.90330364 13.9627282 9.3042958 13.2473273 9.23912603 12.8462862 8.7573683 12.4451962 8.27580613 12.5107082 7.56035632 12.9923682 7.15916858 13.4739792 6.75837198 14.1893313 6.8237373 14.5904212 7.30520172M15.4652021 11.6451768C15.5441588 12.4243786 14.9763065 13.1204193 14.1969581 13.1992293 13.4175118 13.2779904 12.7216178 12.7103826 12.6429545 11.9309363 12.5641445 11.1513434 13.1319968 10.455645 13.911443 10.376835 14.690547 10.2981228 15.3862455 10.8657306 15.4652021 11.6451768M9.41639023 9.98122064C9.31318435 10.1586409 9.08535902 10.2188239 8.90784101 10.1153736 8.73061636 10.01207 8.67048221 9.78434239 8.77373697 9.60711773 8.87723614 9.42964864 9.10476818 9.36936781 9.2820906 9.47286701 9.45970637 9.57612178 9.5195472 9.80375155 9.41639023 9.98122064M8.17801767 10.7368088C7.9469656 10.8486192 7.66902845 10.7516223 7.55760916 10.5205214 7.44570095 10.2893227 7.54260006 10.0115322 7.77384769 9.89996622 8.00494864 9.78849801 8.28288576 9.88520156 8.39450064 10.1163514 8.50596882 10.3473546 8.4092653 10.6252917 8.17801767 10.7368088M6.3665128 10.6547721C6.04907289 10.6088159 5.8288743 10.3141097 5.87468383 9.99662086 5.92068891 9.67903427 6.21505296 9.45864015 6.53259063 9.50469412 6.85027501 9.55060141 7.07052245 9.84525881 7.02461516 10.162552 6.97875675 10.4802853 6.68409939 10.7006305 6.3665128 10.6547721M4.54689228 9.30307357C4.24998597 9.0335943 4.22749678 8.57432579 4.49702493 8.27727283 4.76655308 7.98036652 5.22591936 7.95792622 5.52297234 8.22750325 5.81997642 8.49698251 5.84222116 8.95625103 5.57264413 9.25340178 5.30311599 9.55035697 4.84389636 9.57260172 4.54689228 9.30307357M3.60581713 6.63057467C3.48642883 6.14358576 3.78431292 5.6521479 4.27130181 5.53271072 4.75814407 5.41342018 5.24987525 5.71115761 5.36916579 6.19804873 5.48860297 6.68498876 5.19066998 7.1764755 4.70372998 7.29596159 4.21683887 7.41539877 3.72520544 7.11741691 3.60581713 6.63057467M4.49873605 3.20322095C4.71521902 2.61512844 5.36769908 2.31411542 5.95574273 2.5305984 6.54373746 2.74732581 6.84494603 3.39951256 6.62831639 3.98760505 6.41173565 4.57574646 5.75945115 4.87685727 5.17130974 4.66022763 4.58326609 4.44359798 4.2821064 3.79131348 4.49873605 3.20322095M7.81985274.275665222C8.45527035-.182381065 9.34183363-.0384502009 9.79958658.596918521 10.2576329 1.23253169 10.1138976 2.11914386 9.47818662 2.57704348 8.8428668 3.03508977 7.95640129 2.89120779 7.49811057 2.25554573 7.04050429 1.62012812 7.18419069.733662619 7.81985274.275665222" transform="translate(-.3 .6)"/>
</svg>
