<!-- Copyright 2000-2024 JetBrains s.r.o. and contributors. Use of this source code is governed by the Apache 2.0 license. -->
<svg width="24" height="24" viewBox="0 0 24 24" fill="none" xmlns="http://www.w3.org/2000/svg">
<path d="M4.88958 17.6448C4.65063 17.849 4.31712 17.9013 4.02708 17.7802L2.5125 17.1448C2.20364 17.016 2.00181 16.7149 2 16.3802V7.49299C2.00181 7.15835 2.20364 6.85726 2.5125 6.72842L4.02708 6.10344C4.31712 5.98232 4.65063 6.03468 4.88958 6.23885L5.22917 6.5201C5.08876 6.41916 4.90363 6.40541 4.74984 6.48449C4.59606 6.56358 4.49956 6.72216 4.5 6.89509V16.9781C4.49956 17.1511 4.59606 17.3096 4.74984 17.3887C4.90363 17.4678 5.08876 17.4541 5.22917 17.3531L4.88958 17.6448Z" fill="#52218A"/>
<path d="M2.5125 17.1454C2.20364 17.0166 2.00181 16.7155 2 16.3809V16.3121C2.0021 16.5089 2.12382 16.6846 2.30734 16.7557C2.49085 16.8268 2.69917 16.779 2.83333 16.635L15.75 2.35418C16.1248 1.98122 16.6938 1.88445 17.1708 2.11252L21.2917 4.0958C21.7248 4.30406 22.0002 4.74223 22 5.22285V5.27076C21.9997 4.96581 21.8239 4.68827 21.5482 4.55779C21.2726 4.42732 20.9464 4.46725 20.7104 4.66036L5.22917 17.3538L4.88958 17.6454C4.65063 17.8496 4.31712 17.902 4.02708 17.7808L2.5125 17.1454Z" fill="#6C33AF"/>
<path d="M2.5125 6.728C2.20364 6.85683 2.00181 7.15792 2 7.49256V7.56131C2.0021 7.36452 2.12382 7.18883 2.30734 7.11772C2.49085 7.04661 2.69917 7.09441 2.83333 7.2384L15.75 21.5193C16.1248 21.8922 16.6938 21.989 17.1708 21.7609L21.2917 19.7776C21.7248 19.5694 22.0002 19.1312 22 18.6506V18.6027C21.9997 18.9076 21.8239 19.1852 21.5482 19.3156C21.2726 19.4461 20.9464 19.4062 20.7104 19.2131L5.22917 6.51967L4.88958 6.22801C4.64852 6.02736 4.3152 5.97905 4.02708 6.10302L2.5125 6.728Z" fill="#854CC7"/>
<path d="M17.1708 21.762C16.6938 21.99 16.1248 21.8933 15.75 21.5203C15.9599 21.7287 16.2745 21.7906 16.5478 21.6772C16.821 21.5638 16.9993 21.2974 17 21.0016V2.87708C17.001 2.58051 16.8233 2.31253 16.5497 2.19807C16.2761 2.08362 15.9605 2.14523 15.75 2.35418C16.1248 1.98122 16.6938 1.88445 17.1708 2.11252L21.2917 4.09371C21.7248 4.30198 22.0002 4.74015 22 5.22076V18.6537C22.0002 19.1343 21.7248 19.5725 21.2917 19.7808L17.1708 21.762Z" fill="#B179F1"/>
<path fill-rule="evenodd" clip-rule="evenodd" d="M17.1708 21.7611C16.9161 21.8833 16.6275 21.9156 16.3521 21.8528C16.1242 21.8002 15.9156 21.6847 15.75 21.5195L9.10833 14.1738L5.22917 17.3529L4.88958 17.6342C4.68229 17.8114 4.40139 17.876 4.1375 17.8071C4.09943 17.7987 4.0624 17.7861 4.02708 17.7696L2.5125 17.1446C2.22347 17.0253 2.02558 16.7542 2 16.4425V16.38V7.49278V7.43028C2.02558 7.11864 2.22347 6.84755 2.5125 6.72822L4.02708 6.09282C4.0624 6.07631 4.09943 6.06373 4.1375 6.05532C4.40139 5.98642 4.68229 6.051 4.88958 6.22823L5.22917 6.51989L9.10833 9.69897L15.75 2.35334C15.8869 2.21623 16.0538 2.11282 16.2375 2.05127C16.5447 1.94987 16.8793 1.97153 17.1708 2.11168L21.2917 4.09287C21.7248 4.30114 22.0002 4.73931 22 5.21993V18.6529C22.0002 19.1335 21.7248 19.5717 21.2917 19.7799L17.1708 21.7611ZM11.8354 11.9364L17 7.70319V16.1696L11.8354 11.9364ZM7.08542 11.9364L4.5 9.07607V14.7967L7.08542 11.9364Z" fill="url(#paint0_linear_649_71688)" fill-opacity="0.25"/>
<defs>
<linearGradient id="paint0_linear_649_71688" x1="2562" y1="2.11261" x2="2562" y2="5095.3" gradientUnits="userSpaceOnUse">
<stop stop-color="white"/>
<stop offset="1" stop-color="white" stop-opacity="0"/>
</linearGradient>
</defs>
</svg>
