<!-- Copyright 2000-2024 JetBrains s.r.o. and contributors. Use of this source code is governed by the Apache 2.0 license. -->
<svg width="20" height="20" viewBox="0 0 20 20" fill="none" xmlns="http://www.w3.org/2000/svg">
  <path d="M4.07596 14.7046C3.87682 14.8748 3.5989 14.9184 3.35721 14.8175L2.09505 14.288C1.83767 14.1806 1.66948 13.9297 1.66797 13.6508V6.24481C1.66948 5.96594 1.83767 5.71503 2.09505 5.60767L3.35721 5.08685C3.5989 4.98591 3.87682 5.02955 4.07596 5.1997L4.35894 5.43406C4.24193 5.34995 4.08766 5.33849 3.95951 5.4044C3.83135 5.4703 3.75094 5.60245 3.7513 5.74656V14.1491C3.75094 14.2932 3.83135 14.4254 3.95951 14.4913C4.08766 14.5572 4.24193 14.5457 4.35894 14.4616L4.07596 14.7046Z" fill="#52218A"/>
  <path d="M2.09505 14.2885C1.83767 14.1811 1.66948 13.9302 1.66797 13.6514V13.5941C1.66972 13.7581 1.77115 13.9045 1.92408 13.9637C2.07701 14.023 2.25061 13.9832 2.36241 13.8632L13.1263 1.96247C13.4387 1.65167 13.9128 1.57103 14.3103 1.76108L17.7444 3.41381C18.1053 3.58737 18.3348 3.95251 18.3346 4.35302V4.39295C18.3344 4.13882 18.1879 3.90754 17.9582 3.79881C17.7285 3.69009 17.4567 3.72336 17.26 3.88429L4.35894 14.4621L4.07596 14.7052C3.87682 14.8753 3.5989 14.9189 3.35721 14.818L2.09505 14.2885Z" fill="#6C33AF"/>
  <path d="M2.09505 5.60667C1.83767 5.71403 1.66948 5.96494 1.66797 6.2438V6.30109C1.66972 6.1371 1.77115 5.99069 1.92408 5.93144C2.07701 5.87218 2.25061 5.91201 2.36241 6.032L13.1263 17.9327C13.4387 18.2435 13.9128 18.3241 14.3103 18.1341L17.7444 16.4814C18.1053 16.3078 18.3348 15.9427 18.3346 15.5422V15.5022C18.3344 15.7564 18.1879 15.9876 17.9582 16.0964C17.7285 16.2051 17.4567 16.1718 17.26 16.0109L4.35894 5.43306L4.07596 5.19001C3.87507 5.0228 3.5973 4.98254 3.35721 5.08585L2.09505 5.60667Z" fill="#854CC7"/>
  <path d="M14.309 18.1356C13.9115 18.3257 13.4374 18.245 13.125 17.9342C13.2999 18.1079 13.5621 18.1595 13.7898 18.065C14.0175 17.9705 14.1661 17.7485 14.1667 17.502V2.39822C14.1675 2.15108 14.0194 1.92776 13.7914 1.83238C13.5634 1.737 13.3004 1.78834 13.125 1.96247C13.4374 1.65167 13.9115 1.57103 14.309 1.76108L17.7431 3.41208C18.104 3.58563 18.3335 3.95077 18.3333 4.35129V15.5454C18.3335 15.9459 18.104 16.3111 17.7431 16.4846L14.309 18.1356Z" fill="#B179F1"/>
  <path fill-rule="evenodd" clip-rule="evenodd" d="M14.3103 18.1346C14.0981 18.2364 13.8576 18.2634 13.628 18.211C13.4381 18.1672 13.2643 18.0709 13.1263 17.9332L7.59158 11.8119L4.35894 14.4611L4.07595 14.6955C3.90321 14.8432 3.66912 14.897 3.44922 14.8396C3.41749 14.8325 3.38664 14.8221 3.35721 14.8083L2.09505 14.2875C1.8542 14.188 1.68929 13.9621 1.66797 13.7024V13.6504V6.24431V6.19223C1.68929 5.93253 1.8542 5.70662 2.09505 5.60717L3.35721 5.07767C3.38664 5.06391 3.41749 5.05343 3.44922 5.04643C3.66912 4.98901 3.90321 5.04282 4.07595 5.19052L4.35894 5.43357L7.59158 8.0828L13.1263 1.96144C13.2404 1.84718 13.3795 1.761 13.5326 1.70971C13.7886 1.62522 14.0674 1.64326 14.3103 1.76006L17.7444 3.41105C18.1053 3.58461 18.3348 3.94975 18.3346 4.35026V15.5444C18.3348 15.9449 18.1053 16.3101 17.7444 16.4836L14.3103 18.1346ZM9.86415 9.94733L14.168 6.41965V13.475L9.86415 9.94733ZM5.90582 9.94733L3.7513 7.56372V12.3309L5.90582 9.94733Z" fill="url(#paint0_linear_3889_2763)" fill-opacity="0.25"/>
  <defs>
    <linearGradient id="paint0_linear_3889_2763" x1="2135" y1="1.76083" x2="2135" y2="4246.09" gradientUnits="userSpaceOnUse">
      <stop stop-color="white"/>
      <stop offset="1" stop-color="white" stop-opacity="0"/>
    </linearGradient>
  </defs>
</svg>
