<!-- Copyright 2000-2024 JetBrains s.r.o. and contributors. Use of this source code is governed by the Apache 2.0 license. -->
<svg width="20" height="20" viewBox="0 0 20 20" fill="none" xmlns="http://www.w3.org/2000/svg">
<path d="M4.07205 14.7046C3.87292 14.8748 3.59499 14.9184 3.3533 14.8175L2.09115 14.288C1.83376 14.1806 1.66557 13.9297 1.66406 13.6508V6.24481C1.66557 5.96594 1.83376 5.71503 2.09115 5.60767L3.3533 5.08685C3.59499 4.98591 3.87292 5.02955 4.07205 5.1997L4.35503 5.43406C4.23803 5.34995 4.08375 5.33849 3.9556 5.4044C3.82745 5.4703 3.74703 5.60245 3.7474 5.74656V14.1491C3.74703 14.2932 3.82745 14.4254 3.9556 14.4913C4.08375 14.5572 4.23803 14.5457 4.35503 14.4616L4.07205 14.7046Z" fill="#52218A"/>
<path d="M2.09115 14.2895C1.83376 14.1821 1.66557 13.9312 1.66406 13.6524V13.5951C1.66581 13.7591 1.76725 13.9055 1.92018 13.9647C2.07311 14.024 2.24671 13.9841 2.35851 13.8642L13.1224 1.96344C13.4347 1.65265 13.9089 1.57201 14.3064 1.76206L17.7404 3.41479C18.1014 3.58835 18.3309 3.95349 18.3307 4.354V4.39393C18.3305 4.1398 18.184 3.90852 17.9543 3.79979C17.7245 3.69106 17.4528 3.72434 17.2561 3.88526L4.35503 14.4631L4.07205 14.7061C3.87292 14.8763 3.59499 14.9199 3.3533 14.819L2.09115 14.2895Z" fill="#6C33AF"/>
<path d="M2.09115 5.60862C1.83376 5.71598 1.66557 5.96689 1.66406 6.24576V6.30304C1.66581 6.13905 1.76725 5.99265 1.92018 5.93339C2.07311 5.87413 2.24671 5.91396 2.35851 6.03396L13.1224 17.9347C13.4347 18.2455 13.9089 18.3261 14.3064 18.136L17.7404 16.4833C18.1014 16.3098 18.3309 15.9446 18.3307 15.5441V15.5042C18.3305 15.7583 18.184 15.9896 17.9543 16.0983C17.7245 16.207 17.4528 16.1738 17.2561 16.0128L4.35503 5.43501L4.07205 5.19197C3.87116 5.02475 3.59339 4.9845 3.3533 5.0878L2.09115 5.60862Z" fill="#854CC7"/>
<path d="M14.3051 18.1366C13.9076 18.3267 13.4334 18.246 13.1211 17.9352C13.296 18.1089 13.5582 18.1605 13.7859 18.066C14.0136 17.9715 14.1622 17.7494 14.1628 17.5029V2.39919C14.1636 2.15205 14.0155 1.92873 13.7875 1.83335C13.5595 1.73798 13.2965 1.78932 13.1211 1.96344C13.4334 1.65265 13.9076 1.57201 14.3051 1.76206L17.7391 3.41305C18.1001 3.58661 18.3296 3.95175 18.3294 4.35226V15.5464C18.3296 15.9469 18.1001 16.312 17.7391 16.4856L14.3051 18.1366Z" fill="#B179F1"/>
<path fill-rule="evenodd" clip-rule="evenodd" d="M14.3064 18.1356C14.0942 18.2374 13.8537 18.2643 13.6241 18.212C13.4342 18.1681 13.2604 18.0719 13.1224 17.9342L7.58767 11.8128L4.35503 14.4621L4.07205 14.6964C3.8993 14.8441 3.66522 14.8979 3.44531 14.8405C3.41359 14.8335 3.38273 14.823 3.3533 14.8093L2.09115 14.2885C1.85029 14.189 1.68538 13.9631 1.66406 13.7034V13.6513V6.24528V6.1932C1.68538 5.9335 1.85029 5.7076 2.09115 5.60815L3.3533 5.07865C3.38273 5.06489 3.41359 5.05441 3.44531 5.0474C3.66522 4.98998 3.8993 5.0438 4.07205 5.19149L4.35503 5.43454L7.58767 8.08377L13.1224 1.96242C13.2365 1.84816 13.3755 1.76198 13.5286 1.71069C13.7847 1.6262 14.0634 1.64424 14.3064 1.76104L17.7404 3.41203C18.1014 3.58559 18.3309 3.95073 18.3307 4.35124V15.5454C18.3309 15.9459 18.1014 16.311 17.7404 16.4846L14.3064 18.1356ZM9.86024 9.94831L14.1641 6.42063V13.476L9.86024 9.94831ZM5.90191 9.94831L3.7474 7.56469V12.3319L5.90191 9.94831Z" fill="url(#paint0_linear_2696_93890)" fill-opacity="0.25"/>
<defs>
<linearGradient id="paint0_linear_2696_93890" x1="2135" y1="1.76181" x2="2135" y2="4246.09" gradientUnits="userSpaceOnUse">
<stop stop-color="white"/>
<stop offset="1" stop-color="white" stop-opacity="0"/>
</linearGradient>
</defs>
</svg>
