<!-- Copyright 2000-2024 JetBrains s.r.o. and contributors. Use of this source code is governed by the Apache 2.0 license. -->
<svg width="48" height="48" viewBox="0 0 48 48" fill="none" xmlns="http://www.w3.org/2000/svg">
<path d="M9.77917 35.2896C9.30125 35.6979 8.63423 35.8026 8.05417 35.5604L5.025 34.2896C4.40728 34.0319 4.00363 33.4297 4 32.7605V14.986C4.00363 14.3167 4.40728 13.7145 5.025 13.4568L8.05417 12.2069C8.63423 11.9646 9.30125 12.0694 9.77917 12.4777L10.4583 13.0402C10.1775 12.8383 9.80725 12.8108 9.49969 12.969C9.19213 13.1272 8.99913 13.4443 9 13.7902V33.9563C8.99913 34.3021 9.19213 34.6193 9.49969 34.7775C9.80725 34.9356 10.1775 34.9081 10.4583 34.7063L9.77917 35.2896Z" fill="#52218A"/>
<path d="M5.025 34.2909C4.40728 34.0332 4.00363 33.431 4 32.7617V32.6242C4.0042 33.0178 4.24764 33.3692 4.61467 33.5114C4.9817 33.6536 5.39835 33.558 5.66667 33.2701L31.5 4.70836C32.2497 3.96245 33.3876 3.76891 34.3417 4.22504L42.5833 8.19159C43.4497 8.60813 44.0004 9.48446 44 10.4457V10.5415C43.9995 9.93161 43.6477 9.37653 43.0965 9.11559C42.5452 8.85465 41.8929 8.9345 41.4208 9.32073L10.4583 34.7075L9.77917 35.2908C9.30125 35.6992 8.63423 35.8039 8.05417 35.5617L5.025 34.2909Z" fill="#6C33AF"/>
<path d="M5.025 13.456C4.40728 13.7137 4.00363 14.3158 4 14.9851V15.1226C4.0042 14.729 4.24764 14.3777 4.61467 14.2354C4.9817 14.0932 5.39835 14.1888 5.66667 14.4768L31.5 43.0385C32.2497 43.7844 33.3876 43.978 34.3417 43.5218L42.5833 39.5553C43.4497 39.1387 44.0004 38.2624 44 37.3012V37.2053C43.9995 37.8152 43.6477 38.3703 43.0965 38.6313C42.5452 38.8922 41.8929 38.8124 41.4208 38.4261L10.4583 13.0393L9.77917 12.456C9.29703 12.0547 8.63039 11.9581 8.05417 12.206L5.025 13.456Z" fill="#854CC7"/>
<path d="M34.3417 43.5239C33.3876 43.9801 32.2497 43.7865 31.5 43.0406C31.9199 43.4574 32.5491 43.5812 33.0955 43.3544C33.642 43.1276 33.9987 42.5948 34 42.0031V5.75416C34.002 5.16102 33.6466 4.62505 33.0994 4.39615C32.5522 4.16724 31.9209 4.29046 31.5 4.70836C32.2497 3.96245 33.3876 3.76891 34.3417 4.22504L42.5833 8.18742C43.4497 8.60396 44.0004 9.4803 44 10.4415V37.3074C44.0004 38.2687 43.4497 39.145 42.5833 39.5615L34.3417 43.5239Z" fill="#B179F1"/>
<path fill-rule="evenodd" clip-rule="evenodd" d="M34.3417 43.5223C33.8322 43.7667 33.255 43.8313 32.7042 43.7056C32.2483 43.6004 31.8311 43.3694 31.5 43.0389L18.2167 28.3477L10.4583 34.7058L9.77917 35.2683C9.36458 35.6228 8.80277 35.752 8.275 35.6142C8.19886 35.5973 8.1248 35.5722 8.05417 35.5392L5.025 34.2892C4.44695 34.0505 4.05116 33.5083 4 32.8851V32.7601V14.9856V14.8606C4.05116 14.2373 4.44695 13.6951 5.025 13.4564L8.05417 12.1856C8.1248 12.1526 8.19886 12.1275 8.275 12.1106C8.80277 11.9728 9.36458 12.102 9.77917 12.4565L10.4583 13.0398L18.2167 19.3979L31.5 4.70668C31.7738 4.43246 32.1076 4.22563 32.475 4.10253C33.0894 3.89974 33.7585 3.94305 34.3417 4.22336L42.5833 8.18575C43.4497 8.60228 44.0004 9.47862 44 10.4399V37.3058C44.0004 38.267 43.4497 39.1433 42.5833 39.5599L34.3417 43.5223ZM23.6708 23.8728L34 15.4064V32.3392L23.6708 23.8728ZM14.1708 23.8728L9 18.1521V29.5935L14.1708 23.8728Z" fill="url(#paint0_linear_3892_31705)" fill-opacity="0.25"/>
<defs>
<linearGradient id="paint0_linear_3892_31705" x1="5124" y1="4.22522" x2="5124" y2="10190.6" gradientUnits="userSpaceOnUse">
<stop stop-color="white"/>
<stop offset="1" stop-color="white" stop-opacity="0"/>
</linearGradient>
</defs>
</svg>
