<!-- Copyright 2000-2022 JetBrains s.r.o. and contributors. Use of this source code is governed by the Apache 2.0 license. -->
<svg width="20" height="20" viewBox="0 0 20 20" fill="none" xmlns="http://www.w3.org/2000/svg">
<path d="M3.98011 2.55974L3.89728 1.81433C3.64217 1.84267 3.41928 1.99951 3.30645 2.23006L3.98011 2.55974ZM17.316 8.77649L18.0239 9.02425C18.1002 8.80624 18.0718 8.56522 17.9469 8.37092L17.316 8.77649ZM5.18325 17.5L4.59223 17.9617C4.73437 18.1437 4.95238 18.25 5.18326 18.25L5.18325 17.5ZM4.06293 3.30515C5.45456 3.15053 7.77158 3.2879 10.1705 4.14352C12.5592 4.9955 14.9895 6.54444 16.6851 9.18206L17.9469 8.37092C16.0328 5.39341 13.2991 3.66685 10.6744 2.73069C8.05982 1.79815 5.51376 1.63472 3.89728 1.81433L4.06293 3.30515ZM3.74294 3.27125C4.63816 3.56966 5.99245 4.31978 7.38437 5.38612C8.7694 6.44717 10.1329 7.77658 11.0768 9.19252L12.3249 8.36047C11.2634 6.7683 9.76923 5.32356 8.29659 4.19538C6.83084 3.07248 5.32746 2.21829 4.21728 1.84823L3.74294 3.27125ZM3.30645 2.23006C2.0753 4.74579 1.74518 7.828 2.03055 10.6689C2.31508 13.5014 3.22362 16.2099 4.59223 17.9617L5.77427 17.0383C4.63616 15.5815 3.78997 13.1762 3.52304 10.5189C3.25695 7.86999 3.57861 5.08639 4.65376 2.88941L3.30645 2.23006ZM16.6081 8.52873C15.6255 11.3361 13.6062 13.393 11.3841 14.7549C9.1507 16.1237 6.77785 16.75 5.18325 16.75L5.18326 18.25C7.09813 18.25 9.73882 17.5226 12.168 16.0338C14.6085 14.538 16.9008 12.2331 18.0239 9.02425L16.6081 8.52873ZM10.9584 8.67042C10.732 10.2551 9.88873 11.9401 8.72792 13.4292C7.569 14.9158 6.14301 16.1433 4.83234 16.8372L5.53417 18.1628C7.06448 17.3527 8.64662 15.9732 9.91091 14.3514C11.1733 12.732 12.1683 10.8073 12.4433 8.88256L10.9584 8.67042ZM11.7008 9.52649H17.316V8.02649H11.7008V9.52649Z" fill="#EBECF0"/>
</svg>
