<!-- Copyright 2000-2022 JetBrains s.r.o. and contributors. Use of this source code is governed by the Apache 2.0 license. -->
<svg width="16" height="16" viewBox="0 0 16 16" fill="none" xmlns="http://www.w3.org/2000/svg">
<path d="M2.78247 1.55177L2.72725 1.05483C2.55718 1.07373 2.40858 1.17829 2.33336 1.33199L2.78247 1.55177ZM14.3402 6.93963L14.8122 7.1048C14.863 6.95946 14.8441 6.79878 14.7608 6.66925L14.3402 6.93963ZM3.82519 14.5L3.43118 14.8078C3.52594 14.9291 3.67128 15 3.82519 15L3.82519 14.5ZM2.83768 2.04872C4.06624 1.91221 6.09723 2.03387 8.19785 2.7831C10.2917 3.52991 12.4283 4.89008 13.9196 7.21L14.7608 6.66925C13.1238 4.12272 10.785 2.64414 8.53379 1.84121C6.28939 1.04071 4.10571 0.901669 2.72725 1.05483L2.83768 2.04872ZM2.62435 2.02612C3.42171 2.2919 4.61034 2.95242 5.82405 3.88223C7.03317 4.80852 8.2279 5.97221 9.05775 7.21698L9.8898 6.66228C8.98163 5.30002 7.69972 4.05945 6.43219 3.0884C5.16926 2.12088 3.88125 1.39099 2.94058 1.07743L2.62435 2.02612ZM2.33336 1.33199C1.28197 3.48041 0.996705 6.1218 1.2421 8.56468C1.48694 11.002 2.2681 13.3191 3.43118 14.8078L4.21921 14.1922C3.20979 12.9001 2.47019 10.7852 2.23709 8.46473C2.00455 6.14979 2.28417 3.70748 3.23157 1.77156L2.33336 1.33199ZM13.8683 6.77445C13.0027 9.24767 11.2253 11.0551 9.27767 12.2488C7.32246 13.4471 5.23921 14 3.82519 14L3.82519 15C5.45272 15 7.71454 14.3797 9.80023 13.1014C11.8935 11.8184 13.8529 9.84564 14.8122 7.1048L13.8683 6.77445ZM8.9788 6.86891C8.77774 8.27631 8.03173 9.76063 7.01553 11.0642C6.0006 12.3661 4.74913 13.4451 3.59125 14.0581L4.05914 14.9419C5.36344 14.2514 6.71901 13.071 7.8042 11.679C8.88812 10.2886 9.7353 8.64447 9.96875 7.01034L8.9788 6.86891ZM9.47378 7.43963H14.3402V6.43963H9.47378V7.43963Z" fill="#6C707E"/>
</svg>
