<svg width="20" height="20" viewBox="0 0 20 20" fill="none" xmlns="http://www.w3.org/2000/svg">
<path d="M18.6913 9.4855C18.8813 9.80219 18.8813 10.1978 18.6913 10.5145L14.7913 17.0145C14.6106 17.3157 14.2851 17.5 13.9338 17.5L6.06619 17.5C5.71493 17.5 5.38942 17.3157 5.2087 17.0145L1.3087 10.5145C1.11869 10.1978 1.11869 9.80219 1.3087 9.4855L5.2087 2.9855C5.38942 2.6843 5.71493 2.5 6.06619 2.5L13.9338 2.5C14.2851 2.5 14.6106 2.6843 14.7913 2.9855L18.6913 9.4855Z" stroke="#CED0D6" stroke-width="1.5"/>
<path d="M14.125 9.78349C14.2917 9.87972 14.2917 10.1203 14.125 10.2165L8.125 13.6806C7.95833 13.7768 7.75 13.6566 7.75 13.4641L7.75 6.5359C7.75 6.34345 7.95833 6.22317 8.125 6.31939L14.125 9.78349Z" stroke="#CED0D6" stroke-width="1.5"/>
</svg>
