<svg width="24" height="24" viewBox="0 0 24 24" fill="none" xmlns="http://www.w3.org/2000/svg">
<path d="M16.2804 8.03003C16.5732 7.73716 16.5732 7.26235 16.2804 6.96948L12.5304 3.21948C12.2376 2.92679 11.7627 2.92674 11.4699 3.21948L7.71989 6.96948C7.42704 7.26232 7.42715 7.73712 7.71989 8.03003C8.01279 8.32283 8.48757 8.32289 8.78043 8.03003L11.2502 5.5603L11.2502 15.7712C11.2502 16.1854 11.586 16.5212 12.0002 16.5212C12.4144 16.5212 12.7502 16.1855 12.7502 15.7712L12.7502 5.5603L15.2199 8.03003C15.5128 8.32279 15.9876 8.32279 16.2804 8.03003Z" fill="#548AF7"/>
<path d="M20.25 15C20.6642 15 21 15.3358 21 15.75V20.25C21 20.6382 20.7051 20.9575 20.3271 20.9961C20.3018 20.9987 20.276 21 20.25 21H3.75C3.33579 21 3 20.6642 3 20.25V15.75C3 15.3358 3.33579 15 3.75 15C4.16421 15 4.5 15.3358 4.5 15.75V19.5H19.5V15.75C19.5 15.3358 19.8358 15 20.25 15Z" fill="#548AF7"/>
</svg>
