<svg width="24" height="24" viewBox="0 0 24 24" fill="none" xmlns="http://www.w3.org/2000/svg">
<path d="M21.4182 8.25381C19.1066 6.53021 15.4507 5.00179 11.9985 5.00179C8.53333 5.00179 4.88927 6.52528 2.58171 8.24869C2.26957 8.48182 1.84382 8.16126 2.05791 7.8354C3.07992 6.27991 4.59885 4.68233 5.90098 3.82003C7.6902 2.63518 9.81823 2 11.9985 2C14.1788 2 16.3068 2.63518 18.0961 3.82003C19.3995 4.68318 20.9202 6.28309 21.9422 7.84005C22.156 8.16582 21.7303 8.48657 21.4182 8.25381Z" fill="#E66D17"/>
<path d="M2.58184 15.7462C4.8934 17.4698 8.54933 18.9982 12.0015 18.9982C15.4667 18.9982 19.1107 17.4747 21.4183 15.7513C21.7304 15.5182 22.1562 15.8387 21.9421 16.1646C20.9201 17.7201 19.4012 19.3177 18.099 20.18C16.3098 21.3648 14.1818 22 12.0015 22C9.82115 22 7.69317 21.3648 5.90391 20.18C4.60049 19.3168 3.07985 17.7169 2.0578 16.16C1.84395 15.8342 2.26968 15.5134 2.58184 15.7462Z" fill="#E66D17"/>
</svg>
