<svg width="24" height="24" viewBox="0 0 24 24" fill="none" xmlns="http://www.w3.org/2000/svg">
<path fill-rule="evenodd" clip-rule="evenodd" d="M18 7.5V9C18 11.0711 16.3211 12.75 14.25 12.75H9.75C8.50736 12.75 7.5 13.7574 7.5 15L7.5 19.5C7.5 19.5 7.5 22 12 22C16.5 22 16.5 19.5 16.5 19.5V18H12.75C12.3358 18 12 17.6642 12 17.25C12 16.8358 12.3358 16.5 12.75 16.5L19.5 16.5C19.5 16.5 22 16.5 22 12C22 7.5 19.5 7.5 19.5 7.5H18ZM15 19.75C15 20.1642 14.6642 20.5 14.25 20.5C13.8358 20.5 13.5 20.1642 13.5 19.75C13.5 19.3358 13.8358 19 14.25 19C14.6642 19 15 19.3358 15 19.75Z" fill="#FFAF0F"/>
<path fill-rule="evenodd" clip-rule="evenodd" d="M7.5 4.5V6H11.25C11.6642 6 12 6.33579 12 6.75C12 7.16421 11.6642 7.5 11.25 7.5H4.5C4.5 7.5 2 7.5 2 12C2 16.5 4.5 16.5 4.5 16.5H6V15C6 12.9289 7.67893 11.25 9.75 11.25H14.25C15.4926 11.25 16.5 10.2426 16.5 9V4.5C16.5 4.5 16.5 2 12 2C7.5 2 7.5 4.5 7.5 4.5ZM9.75 5C10.1642 5 10.5 4.66421 10.5 4.25C10.5 3.83579 10.1642 3.5 9.75 3.5C9.33579 3.5 9 3.83579 9 4.25C9 4.66421 9.33579 5 9.75 5Z" fill="#4682FA"/>
</svg>
