<svg xmlns="http://www.w3.org/2000/svg" width="16" height="16" viewBox="0 0 16 16">
  <path fill="#9AA7B0" fill-opacity=".8" fill-rule="evenodd" d="M8 7.7C5.95654643 7.7 4.3 6.04345357 4.3 4 4.3 1.95654643 5.95654643.3 8 .3 10.0434536.3 11.7 1.95654643 11.7 4 11.7 6.04345357 10.0434536 7.7 8 7.7zM8 6.7C9.49116882 6.7 10.7 5.49116882 10.7 4 10.7 2.50883118 9.49116882 1.3 8 1.3 6.50883118 1.3 5.3 2.50883118 5.3 4 5.3 5.49116882 6.50883118 6.7 8 6.7zM8 5.5C7.17157288 5.5 6.5 4.82842712 6.5 4 6.5 3.17157288 7.17157288 2.5 8 2.5 8.82842712 2.5 9.5 3.17157288 9.5 4 9.5 4.82842712 8.82842712 5.5 8 5.5zM8 15.7C5.95654643 15.7 4.3 14.0434536 4.3 12 4.3 9.95654643 5.95654643 8.3 8 8.3 10.0434536 8.3 11.7 9.95654643 11.7 12 11.7 14.0434536 10.0434536 15.7 8 15.7zM8 14.7C9.49116882 14.7 10.7 13.4911688 10.7 12 10.7 10.5088312 9.49116882 9.3 8 9.3 6.50883118 9.3 5.3 10.5088312 5.3 12 5.3 13.4911688 6.50883118 14.7 8 14.7zM8 13.5C7.17157288 13.5 6.5 12.8284271 6.5 12 6.5 11.1715729 7.17157288 10.5 8 10.5 8.82842712 10.5 9.5 11.1715729 9.5 12 9.5 12.8284271 8.82842712 13.5 8 13.5z"/>
</svg>
