<!-- Copyright 2000-2023 JetBrains s.r.o. and contributors. Use of this source code is governed by the Apache 2.0 license. -->
<svg width="16" height="16" viewBox="0 0 16 16" fill="none" xmlns="http://www.w3.org/2000/svg">
<path d="M3.5 15C3.22386 15 3 14.7761 3 14.5L3 9.5C3 9.22386 3.22386 9 3.5 9C3.77614 9 4 9.22386 4 9.5L4 14.5C4 14.7761 3.77614 15 3.5 15Z" fill="#548AF7"/>
<path d="M5.5 15C5.22386 15 5 14.7761 5 14.5L5 11.5C5 11.2239 5.22386 11 5.5 11C5.77614 11 6 11.2239 6 11.5V14.5C6 14.7761 5.77614 15 5.5 15Z" fill="#548AF7"/>
<path d="M1 14.5C1 14.7761 1.22386 15 1.5 15C1.77614 15 2 14.7761 2 14.5L2 10.5C2 10.2239 1.77614 10 1.5 10C1.22386 10 1 10.2239 1 10.5V14.5Z" fill="#548AF7"/>
<path d="M10.1642 10.8716C9.30227 11.5769 8.20055 12 7 12V11C9.20914 11 11 9.20914 11 7C11 4.79086 9.20914 3 7 3C4.79086 3 3 4.79086 3 7C3 7.3612 3.04788 7.71123 3.13763 8.04406C2.78309 8.13202 2.47835 8.34608 2.27375 8.6359C2.09636 8.12332 2 7.57291 2 7C2 4.23858 4.23858 2 7 2C9.76142 2 12 4.23858 12 7C12 8.20072 11.5768 9.30259 10.8713 10.1646L13.8526 13.1421C14.0479 13.3373 14.0481 13.6538 13.853 13.8492C13.6578 14.0446 13.3413 14.0448 13.1459 13.8497L10.1642 10.8716Z" fill="#CED0D6"/>
</svg>
