<!-- Copyright 2000-2022 JetBrains s.r.o. and contributors. Use of this source code is governed by the Apache 2.0 license. -->
<svg width="16" height="16" viewBox="0 0 16 16" fill="none" xmlns="http://www.w3.org/2000/svg">
<path fill-rule="evenodd" clip-rule="evenodd" d="M13.9725 1.10833C14.6262 1.32824 15.1092 1.84175 15.3414 2.32069C15.4079 2.44926 15.4552 2.58476 15.4853 2.72421C15.5017 2.78332 15.5182 2.84852 15.5339 2.91944C15.6117 3.27076 15.6702 3.76551 15.6003 4.35409C15.5072 5.1369 15.1907 6.05408 14.4403 6.99991H13.0919C13.7633 6.34804 14.153 5.71938 14.3723 5.16023C13.9864 5.41155 13.5118 5.56974 12.9631 5.56974C12.3136 5.56974 11.693 5.30247 11.1163 5.01322C10.9342 4.92189 10.7555 4.82798 10.5764 4.73383C10.1568 4.51322 9.73457 4.29128 9.25922 4.09801C7.96767 3.57289 6.38031 3.30785 4.14479 4.41003C3.96408 4.49913 3.86133 4.72613 3.93545 4.95614L4.05405 5.32421L4.63233 7.22548C4.67094 7.33227 4.7682 7.42278 4.95385 7.46382C5.15073 7.50733 5.37364 7.47309 5.5254 7.38787L5.53236 7.38396C6.15742 7.04596 6.73098 6.64731 7.257 6.17349C7.46217 5.98868 7.77832 6.00518 7.96314 6.21036C8.14796 6.41553 8.13145 6.73169 7.92628 6.9165C7.33875 7.44573 6.70052 7.88889 6.01126 8.26191C5.63407 8.47236 5.16003 8.53353 4.73802 8.44025C4.30675 8.34492 3.86226 8.06763 3.68344 7.54134L3.68085 7.53371L3.29932 6.27948C2.61709 6.82654 2.13015 7.47984 1.81716 8.23856C1.45899 9.10679 1.31833 10.1386 1.40261 11.3465H2.01951C2.3114 10.5997 3.0366 10.0836 3.87007 10.0836C4.70328 10.0836 5.4283 10.5994 5.72037 11.3458H6.37966C6.67173 10.5994 7.39674 10.0836 8.22996 10.0836C8.86772 10.0836 9.44464 10.3832 9.81064 10.8608L9.09067 11.5808C8.92126 11.2817 8.59835 11.0836 8.22996 11.0836C7.78042 11.0836 7.39357 11.3863 7.27807 11.8094C7.20194 12.0884 6.94583 12.3458 6.58831 12.3458H5.51172C5.15419 12.3458 4.89808 12.0884 4.82195 11.8094C4.70646 11.3863 4.3196 11.0836 3.87007 11.0836C3.42039 11.0836 3.03345 11.3864 2.91808 11.8098C2.84203 12.0889 2.58589 12.3465 2.22824 12.3465H1.03552C0.727153 12.3465 0.470493 12.1127 0.439053 11.8083C0.286208 10.3282 0.420154 9.00277 0.892733 7.8572C1.32137 6.81815 2.01842 5.95228 2.98427 5.26478L2.98364 5.26285C2.76989 4.59951 3.04147 3.83907 3.70259 3.51312C6.23123 2.26642 8.12036 2.55547 9.63586 3.17165C10.1591 3.38439 10.6516 3.64317 11.0871 3.87199C11.2552 3.96037 11.4149 4.04427 11.5646 4.11934C12.1339 4.40488 12.5694 4.56974 12.9631 4.56974C13.5754 4.56974 14.0245 4.26055 14.2837 3.86414C14.501 3.53172 14.5557 3.1912 14.5092 2.94845C14.4963 2.90499 14.4841 2.86834 14.4736 2.83899C14.4621 2.80658 14.4527 2.78323 14.447 2.76963L14.4417 2.75714C14.309 2.483 14.0166 2.17822 13.6537 2.05614C13.3287 1.94681 12.8789 1.96002 12.3296 2.44C12.1217 2.6217 11.8058 2.60044 11.6241 2.3925C11.4424 2.18457 11.4637 1.8687 11.6716 1.68699C12.4598 0.998205 13.2757 0.873898 13.9725 1.10833Z" fill="#6C707E"/>
<path fill-rule="evenodd" clip-rule="evenodd" d="M9.25933 6.32003C9.16406 6.25882 9.1068 6.14729 9.14402 6.04034C9.24352 5.75444 9.50016 5.54321 9.8117 5.50936C10.1856 5.46872 10.5372 5.69461 10.6556 6.05159C10.7543 6.34903 10.6688 6.67024 10.4501 6.87955C10.3683 6.95785 10.2431 6.95212 10.1478 6.89091L9.25933 6.32003Z" fill="#6C707E"/>
<path d="M9.64645 13.1464C9.45118 13.3417 9.45118 13.6583 9.64645 13.8536C9.84171 14.0488 10.1583 14.0488 10.3536 13.8536L9.64645 13.1464ZM10.3536 13.8536L14.8536 9.35355L14.1464 8.64645L9.64645 13.1464L10.3536 13.8536Z" fill="#3574F0"/>
<path d="M14.5 9H15C15 8.72386 14.7761 8.5 14.5 8.5V9ZM11.5 8.5C11.2239 8.5 11 8.72386 11 9C11 9.27614 11.2239 9.5 11.5 9.5V8.5ZM14 12C14 12.2761 14.2239 12.5 14.5 12.5C14.7761 12.5 15 12.2761 15 12H14ZM14.5 8.5H11.5V9.5H14.5V8.5ZM14 9V12H15V9H14Z" fill="#3574F0"/>
</svg>
