<!-- Copyright 2000-2023 JetBrains s.r.o. and contributors. Use of this source code is governed by the Apache 2.0 license. -->
<svg width="16" height="16" viewBox="0 0 16 16" fill="none" xmlns="http://www.w3.org/2000/svg">
<path fill-rule="evenodd" clip-rule="evenodd" d="M12.5 11C12.2239 11 12 11.2239 12 11.5C12 11.7761 12.2239 12 12.5 12H14.2929L11.1464 15.1464C10.9512 15.3417 10.9512 15.6583 11.1464 15.8535C11.3417 16.0488 11.6583 16.0488 11.8536 15.8535L15 12.7071V14.5C15 14.7761 15.2239 15 15.5 15C15.7761 15 16 14.7761 16 14.5V11.5C16 11.2239 15.7761 11 15.5 11H12.5Z" fill="#3574F0"/>
<path d="M9.14516 7.04054C9.10794 7.14749 9.1652 7.25903 9.26046 7.32024L10.1489 7.89111C10.2442 7.95233 10.3694 7.95806 10.4513 7.87976C10.6699 7.67044 10.7554 7.34924 10.6567 7.0518C10.5383 6.69482 10.1868 6.46893 9.81284 6.50956C9.50129 6.54342 9.24466 6.75464 9.14516 7.04054Z" fill="#6C707E"/>
<path fill-rule="evenodd" clip-rule="evenodd" d="M15.3424 3.32081C15.1102 2.84187 14.6272 2.32836 13.9735 2.10846C13.2766 1.87402 12.4608 1.99833 11.6726 2.68712C11.4647 2.86882 11.4434 3.18469 11.6251 3.39262C11.8068 3.60056 12.1227 3.62183 12.3306 3.44012C12.8799 2.96014 13.3297 2.94694 13.6547 3.05626C14.0176 3.17834 14.3099 3.48313 14.4427 3.75726L14.448 3.76976C14.4537 3.78335 14.463 3.8067 14.4746 3.83911C14.485 3.86846 14.4973 3.90511 14.5102 3.94857C14.5567 4.19132 14.5019 4.53184 14.2846 4.86426C14.0255 5.26068 13.5764 5.56986 12.9641 5.56986C12.5703 5.56986 12.1349 5.405 11.5656 5.11946C11.4159 5.0444 11.2562 4.96049 11.088 4.87212C10.6526 4.64329 10.1601 4.38452 9.63684 4.17177C8.12133 3.55559 6.23221 3.26654 3.70356 4.51324C3.04245 4.83919 2.77087 5.59964 2.98462 6.26297L2.98524 6.2649C2.0194 6.9524 1.32235 7.81828 0.893709 8.85733C0.421131 10.0029 0.287185 11.3284 0.44003 12.8084C0.47147 13.1129 0.72813 13.3466 1.0365 13.3466H2.22921C2.58686 13.3466 2.84301 13.089 2.91905 12.8099C3.03442 12.3866 3.42137 12.0837 3.87104 12.0837C4.32058 12.0837 4.70743 12.3864 4.82293 12.8096C4.89906 13.0885 5.15517 13.346 5.5127 13.346H6.58928C6.94681 13.346 7.20292 13.0885 7.27905 12.8096C7.39455 12.3864 7.7814 12.0837 8.23094 12.0837C8.68524 12.0837 9.07037 12.3849 9.18377 12.8055C9.25918 13.0852 9.51545 13.3442 9.87417 13.3442H11.0151C11.3436 13.3442 11.6064 13.0819 11.6155 12.76L11.617 12.7127C11.243 12.4399 11 11.9983 11 11.5C11 10.7119 11.6077 10.0658 12.3801 10.0047C12.5202 9.80944 12.6813 9.63957 12.8647 9.50217C14.7965 8.05711 15.4592 6.54912 15.6013 5.35421C15.6712 4.76563 15.6126 4.27088 15.5349 3.91956C15.5192 3.84864 15.5027 3.78344 15.4862 3.72433C15.4562 3.58488 15.4089 3.44938 15.3424 3.32081ZM14.3732 6.16035C13.9873 6.41167 13.5127 6.56986 12.9641 6.56986C12.3146 6.56986 11.694 6.3026 11.1173 6.01334C10.9352 5.92201 10.7565 5.8281 10.5774 5.73396C10.1577 5.51334 9.73555 5.2914 9.2602 5.09813C7.96865 4.57301 6.38129 4.30797 4.14577 5.41016C3.96505 5.49925 3.8623 5.72625 3.93642 5.95627L4.05503 6.32433L4.63331 8.2256C4.67191 8.33239 4.76918 8.4229 4.95483 8.46394C5.1517 8.50746 5.37461 8.47321 5.52638 8.38799L5.53333 8.38409C6.1584 8.04609 6.73196 7.64743 7.25797 7.17361C7.46315 6.9888 7.7793 7.0053 7.96412 7.21048C8.14893 7.41566 8.13243 7.73181 7.92725 7.91662C7.33973 8.44585 6.7015 8.88902 6.01224 9.26203C5.63504 9.47248 5.16101 9.53365 4.73899 9.44037C4.30773 9.34504 3.86324 9.06775 3.68442 8.54146L3.68182 8.53383L3.3003 7.2796C2.61807 7.82667 2.13113 8.47996 1.81814 9.23868C1.45997 10.1069 1.31931 11.1387 1.40359 12.3466H2.02048C2.31238 11.5998 3.03758 11.0837 3.87104 11.0837C4.70426 11.0837 5.42928 11.5995 5.72134 12.346H6.38064C6.6727 11.5995 7.39772 11.0837 8.23094 11.0837C9.06318 11.0837 9.79183 11.5939 10.0834 12.3442H10.6357C10.7325 11.0352 11.1525 9.53507 12.2655 8.70158C13.4659 7.80367 14.0761 6.91818 14.3732 6.16035Z" fill="#6C707E"/>
</svg>
