<!-- Copyright 2000-2023 JetBrains s.r.o. and contributors. Use of this source code is governed by the Apache 2.0 license. -->
<svg width="16" height="16" viewBox="0 0 16 16" fill="none" xmlns="http://www.w3.org/2000/svg">
<path d="M8.5 8C8.77614 8 9 8.22386 9 8.5V9.326L9.181 9.16238C9.90358 8.44447 10.9005 8 12.0002 8C13.1046 8 14.1053 8.44826 14.8286 9.17157C15.1887 9.5316 15.4806 9.96029 15.6831 10.4368C15.8159 10.7493 15.9101 11.0822 15.9597 11.4292C15.9988 11.7026 15.8089 11.9559 15.5356 11.995C15.2622 12.0341 15.0089 11.8442 14.9698 11.5708C14.9326 11.3108 14.8621 11.0617 14.7627 10.8279C14.6111 10.4711 14.3922 10.1493 14.1215 9.87868C13.5781 9.33524 12.8288 9 12.0002 9C11.1716 9 10.4223 9.33524 9.87888 9.87868L9.86997 9.88759L9.74562 10H10.5C10.7761 10 11 10.2239 11 10.5C11 10.7761 10.7761 11 10.5 11H8.5C8.22386 11 8 10.7761 8 10.5V8.5C8 8.22386 8.22386 8 8.5 8Z" fill="#3574F0"/>
<path d="M8.46491 12.005C8.73827 11.9659 8.99157 12.1558 9.03067 12.4292C9.12449 13.0851 9.43079 13.6732 9.87894 14.1213C10.4224 14.6648 11.1717 15 12.0003 15C12.8288 15 13.5781 14.6648 14.1216 14.1213L14.1305 14.1124L14.2487 14H13.5C13.2239 14 13 13.7761 13 13.5C13 13.2239 13.2239 13 13.5 13H15.5C15.7761 13 16 13.2239 16 13.5V15.5C16 15.7761 15.7761 16 15.5 16C15.2239 16 15 15.7761 15 15.5V14.6657L14.8241 14.833C14.1011 15.5536 13.1024 16 12.0003 16C10.8958 16 9.89515 15.5517 9.17184 14.8284C8.57574 14.2323 8.16618 13.4477 8.04075 12.5708C8.00165 12.2974 8.19155 12.0441 8.46491 12.005Z" fill="#3574F0"/>
<path d="M15.3414 2.32069C15.1092 1.84175 14.6262 1.32824 13.9725 1.10833C13.2757 0.873898 12.4598 0.998205 11.6716 1.68699C11.4637 1.8687 11.4424 2.18457 11.6241 2.3925C11.8058 2.60044 12.1217 2.6217 12.3296 2.44C12.8789 1.96002 13.3287 1.94682 13.6537 2.05614C14.0166 2.17822 14.309 2.483 14.4417 2.75714L14.447 2.76963C14.4527 2.78323 14.4621 2.80658 14.4736 2.83899C14.4841 2.86834 14.4963 2.90499 14.5092 2.94845C14.5557 3.1912 14.501 3.53172 14.2837 3.86414C14.0245 4.26055 13.5754 4.56974 12.9631 4.56974C12.5694 4.56974 12.1339 4.40488 11.5646 4.11934C11.4149 4.04427 11.2552 3.96037 11.0871 3.87199C10.6516 3.64317 10.1591 3.38439 9.63586 3.17165C8.12036 2.55547 6.23123 2.26642 3.70259 3.51312C3.04147 3.83907 2.76989 4.59951 2.98364 5.26285L2.98427 5.26478C2.01842 5.95228 1.32137 6.81815 0.892733 7.8572C0.420154 9.00277 0.286208 10.3282 0.439053 11.8083C0.470493 12.1127 0.727153 12.3465 1.03552 12.3465H2.22824C2.58589 12.3465 2.84203 12.0889 2.91808 11.8098C3.03345 11.3864 3.42039 11.0836 3.87007 11.0836C4.3196 11.0836 4.70645 11.3863 4.82195 11.8094C4.89808 12.0884 5.15419 12.3458 5.51172 12.3458H7.01177C7.00397 12.2316 7 12.1163 7 12C7 11.7783 7.01443 11.5599 7.04241 11.3458H5.72037C5.4283 10.5994 4.70328 10.0836 3.87007 10.0836C3.0366 10.0836 2.3114 10.5997 2.01951 11.3465H1.40261C1.31833 10.1386 1.45899 9.10679 1.81716 8.23856C2.13015 7.47984 2.61709 6.82654 3.29932 6.27948L3.68085 7.53371L3.68344 7.54134C3.86226 8.06763 4.30675 8.34492 4.73802 8.44025C5.16003 8.53353 5.63407 8.47236 6.01126 8.26191C6.70052 7.88889 7.33875 7.44573 7.92628 6.9165C8.13145 6.73169 8.14796 6.41553 7.96314 6.21036C7.77832 6.00518 7.46217 5.98868 7.257 6.17349C6.73098 6.64731 6.15745 7.04602 5.53239 7.38402L5.5254 7.38787C5.37364 7.47309 5.15073 7.50733 4.95385 7.46382C4.7682 7.42278 4.67094 7.33227 4.63233 7.22548L4.05399 5.32423L4.05153 5.31639L3.93545 4.95614C3.86133 4.72613 3.96408 4.49913 4.14479 4.41003C6.38031 3.30785 7.96767 3.57289 9.25922 4.09801C9.73457 4.29128 10.1568 4.51322 10.5764 4.73383C10.7555 4.82798 10.9342 4.92189 11.1163 5.01322C11.693 5.30247 12.3136 5.56974 12.9631 5.56974C13.5118 5.56974 13.9864 5.41155 14.3723 5.16023C14.142 5.74737 13.724 6.41106 12.9891 7.09783C13.3623 7.17272 13.7205 7.28916 14.0586 7.44212C15.0871 6.34211 15.4928 5.25844 15.6003 4.35408C15.6702 3.76551 15.6117 3.27076 15.5339 2.91944C15.5182 2.84852 15.5017 2.78332 15.4853 2.72421C15.4552 2.58476 15.4079 2.44926 15.3414 2.32069Z" fill="#6C707E"/>
<path d="M9.14402 6.01568C9.1068 6.12263 9.16406 6.23416 9.25933 6.29538L10.1478 6.86625C10.2431 6.92746 10.3683 6.93319 10.4501 6.85489C10.6688 6.64558 10.7543 6.32437 10.6556 6.02694C10.5372 5.66995 10.1856 5.44406 9.8117 5.4847C9.50016 5.51856 9.24352 5.72978 9.14402 6.01568Z" fill="#6C707E"/>
</svg>
