<!-- Copyright 2000-2022 JetBrains s.r.o. and contributors. Use of this source code is governed by the Apache 2.0 license. -->
<svg width="16" height="16" viewBox="0 0 16 16" fill="none" xmlns="http://www.w3.org/2000/svg">
<path fill-rule="evenodd" clip-rule="evenodd" d="M15.2238 4.49867C15.582 2.93562 15.2238 1.20095 13.1621 1.20095C11.5848 1.20095 10.6229 1.78903 9.48446 2.76224C9.28702 1.89438 8.6834 1.2309 7.44866 1.20608C6.18382 1.13659 5.07731 1.66511 4.12783 2.41318C4.22722 1.95949 4.01496 1.48649 3.49919 1.38208C3.04541 1.29022 2.59936 1.5661 2.5029 1.99827L0.674778 10.1894C0.578324 10.6215 0.867995 11.0464 1.32178 11.1382C1.77556 11.2301 2.22161 10.9542 2.31807 10.522L3.73837 4.16628L3.7399 4.16398L3.74084 4.17069C4.4504 3.17572 5.72182 2.6293 6.65007 2.72885C7.42991 2.82527 7.96685 3.37561 7.7054 4.4947L6.61422 9.43633C7.14438 8.58665 7.89999 7.89216 8.79733 7.43657L9.52649 4.16628C10.839 2.32583 14.0739 2.02014 13.5034 4.49867L12.9319 7.09494C13.4918 7.27058 14.0132 7.53334 14.4801 7.86735L15.2238 4.49867Z" fill="#CED0D6"/>
<path d="M8.55847 12.7336V12.2384C8.55847 10.7341 9.77793 9.51465 11.2822 9.51465C11.8303 9.51465 12.3406 9.67655 12.7679 9.95513" stroke="#548AF7" stroke-linecap="round"/>
<path d="M7.30179 11.3935L8.28539 12.9233L9.81517 11.9397" stroke="#548AF7" stroke-linecap="round"/>
<path d="M14.0245 11.9773V12.4726C14.0245 13.9768 12.8051 15.1963 11.3008 15.1963C10.7527 15.1963 10.2424 15.0344 9.81513 14.7558" stroke="#548AF7" stroke-linecap="round"/>
<path d="M15.2812 13.3174L14.2976 11.7876L12.7678 12.7712" stroke="#548AF7" stroke-linecap="round"/>
</svg>
