<!-- Copyright 2000-2022 JetBrains s.r.o. and contributors. Use of this source code is governed by the Apache 2.0 license. -->
<svg width="12" height="12" viewBox="0 0 12 12" fill="none" xmlns="http://www.w3.org/2000/svg">
<path d="M6.58106 1.6006C7.61191 1.6006 7.79098 2.46793 7.61191 3.24946L6.9482 6.25585C6.90048 6.47204 6.67777 6.61045 6.45077 6.56499C6.22378 6.51954 6.07845 6.30744 6.12618 6.09125L6.75168 3.24946C7.03697 2.01019 5.4195 2.16304 4.76325 3.08326L4.05538 6.25806C4.00765 6.47425 3.78494 6.61265 3.55795 6.5672C3.54864 6.56533 3.53946 6.56319 3.53043 6.56077C3.31435 6.50763 3.17837 6.30137 3.22476 6.09125L3.8527 3.24747C3.98343 2.68793 3.71496 2.41276 3.32503 2.36455C2.86091 2.31477 2.2252 2.58798 1.87042 3.08547L1.86995 3.08211L1.86918 3.08326L1.15903 6.26113C1.11081 6.47722 0.887779 6.61516 0.660888 6.56923C0.433998 6.5233 0.289162 6.31089 0.337389 6.09481L1.25145 1.99926C1.29968 1.78317 1.52271 1.64523 1.7496 1.69116C2.00748 1.74337 2.11361 1.97987 2.06391 2.20671C2.53866 1.83268 3.09191 1.56842 3.72433 1.60316C4.3417 1.61557 4.64351 1.94731 4.74223 2.38124C5.31144 1.89464 5.79238 1.6006 6.58106 1.6006Z" fill="#3574F0" stroke="#3574F0" stroke-width="0.2" stroke-linecap="round"/>
<path fill-rule="evenodd" clip-rule="evenodd" d="M11.8536 9.64646C12.0488 9.4512 12.0488 9.13462 11.8536 8.93935C11.6583 8.74409 11.3417 8.74409 11.1464 8.93935L10 10.0858L10 5.5C10 5.22386 9.77614 5 9.5 5C9.22386 5 9 5.22386 9 5.5L9 10.0858L7.85355 8.93935C7.65829 8.74409 7.34171 8.74409 7.14645 8.93935C6.95118 9.13462 6.95118 9.4512 7.14645 9.64646L9.14645 11.6465L9.5 12L9.85355 11.6465L11.8536 9.64646Z" fill="#6C707E"/>
</svg>
