<!-- Copyright 2000-2022 JetBrains s.r.o. and contributors. Use of this source code is governed by the Apache 2.0 license. -->
<svg width="16" height="17" viewBox="0 0 16 17" fill="none" xmlns="http://www.w3.org/2000/svg">
<path d="M12 5.5C11.7239 5.5 11.5 5.72386 11.5 6C11.5 6.27614 11.7239 6.5 12 6.5V5.5ZM15 6.5C15.2761 6.5 15.5 6.27614 15.5 6C15.5 5.72386 15.2761 5.5 15 5.5V6.5ZM12 6.5H15V5.5H12V6.5Z" fill="#CED0D6"/>
<rect x="1" y="7" width="3" height="2" fill="#43454A" stroke="#CED0D6"/>
<path fill-rule="evenodd" clip-rule="evenodd" d="M7.74795 12.0109L8.3125 9H12V3H10C8.80691 3 8.06933 3.68324 7.29816 4.3976C6.4534 5.18013 5.56832 6 4 6V10C5.56832 10 6.4534 10.8199 7.29816 11.6024C7.44816 11.7414 7.59689 11.8791 7.74795 12.0109Z" fill="#43454A"/>
<path fill-rule="evenodd" clip-rule="evenodd" d="M10 2.5C8.60529 2.5 7.73186 3.31175 6.98176 4.00888C6.93688 4.05059 6.89243 4.0919 6.84834 4.1326C6.04652 4.87275 5.29551 5.5 4 5.5C3.72386 5.5 3.50001 5.7244 3.5 6.00053V10C3.50002 10.2762 3.72387 10.5 4 10.5C5.29551 10.5 6.04652 11.1273 6.84834 11.8674C6.89235 11.908 6.93672 11.9493 6.98152 11.9909L6.98177 11.9911C7.1895 12.1842 7.4067 12.386 7.64181 12.577L7.85583 11.4356C7.77134 11.3587 7.68514 11.279 7.59646 11.1971L7.52663 11.1326C6.7874 10.4502 5.9064 9.67682 4.49999 9.52618L4.49999 6.47382C5.9064 6.32318 6.7874 5.54977 7.52663 4.8674L7.59646 4.8029C8.40484 4.05595 9.00653 3.5 10 3.5H11.5V9H12.5V3C12.5 2.72386 12.2761 2.5 12 2.5H10Z" fill="#CED0D6"/>
<path d="M14.5811 10.6006C15.6119 10.6006 15.791 11.4679 15.6119 12.2495L14.9482 15.2559C14.9005 15.472 14.6778 15.6104 14.4508 15.565C14.2238 15.5195 14.0785 15.3074 14.1262 15.0912L14.7517 12.2495C15.037 11.0102 13.4195 11.163 12.7632 12.0833L12.0554 15.2581C12.0077 15.4742 11.7849 15.6127 11.5579 15.5672C11.5486 15.5653 11.5395 15.5632 11.5304 15.5608C11.3144 15.5076 11.1784 15.3014 11.2248 15.0912L11.8527 12.2475C11.9834 11.6879 11.715 11.4128 11.325 11.3645C10.8609 11.3148 10.2252 11.588 9.87042 12.0855L9.86995 12.0821L9.86918 12.0833L9.15903 15.2611C9.11081 15.4772 8.88778 15.6152 8.66089 15.5692C8.434 15.5233 8.28916 15.3109 8.33739 15.0948L9.25145 10.9993C9.29968 10.7832 9.52271 10.6452 9.7496 10.6912C10.0075 10.7434 10.1136 10.9799 10.0639 11.2067C10.5387 10.8327 11.0919 10.5684 11.7243 10.6032C12.3417 10.6156 12.6435 10.9473 12.7422 11.3812C13.3114 10.8946 13.7924 10.6006 14.5811 10.6006Z" fill="#548AF7" stroke="#548AF7" stroke-width="0.2" stroke-linecap="round"/>
</svg>
