<!-- Copyright 2000-2022 JetBrains s.r.o. and contributors. Use of this source code is governed by the Apache 2.0 license. -->
<svg width="16" height="16" viewBox="0 0 16 16" fill="none" xmlns="http://www.w3.org/2000/svg">
<path fill-rule="evenodd" clip-rule="evenodd" d="M15.2238 6.49867C15.582 4.93562 15.2238 3.20095 13.1621 3.20095C11.5848 3.20095 10.6229 3.78903 9.48446 4.76224C9.28702 3.89438 8.6834 3.2309 7.44866 3.20608C6.18382 3.13659 5.07731 3.66511 4.12783 4.41318C4.22722 3.95949 4.01496 3.48649 3.49919 3.38208C3.04541 3.29022 2.59936 3.5661 2.5029 3.99827L0.674778 12.1894C0.578324 12.6215 0.867995 13.0464 1.32178 13.1382C1.77556 13.2301 2.22161 12.9542 2.31807 12.522L3.73837 6.16628L3.7399 6.16398L3.74084 6.17069C4.4504 5.17572 5.72182 4.6293 6.65007 4.72885C7.42991 4.82527 7.96685 5.37561 7.7054 6.4947L6.83323 10.4445L8.87628 9.08248L9.52649 6.16628C10.839 4.32583 14.0739 4.02014 13.5034 6.49867L12.9528 9H14.6716L15.2238 6.49867Z" fill="#548AF7"/>
<path d="M15.5 14.5H13.5" stroke="#CED0D6" stroke-linecap="round" stroke-linejoin="round"/>
<path d="M15.5 11.5H13.5" stroke="#CED0D6" stroke-linecap="round" stroke-linejoin="round"/>
<path d="M13.5 10.5V15.5H11.5C10.3954 15.5 9.5 14.6046 9.5 13.5V12.5C9.5 11.3954 10.3954 10.5 11.5 10.5H13.5Z" stroke="#CED0D6" stroke-linecap="round" stroke-linejoin="round"/>
<path d="M9.5 13.5H8.5V12.5H9.5" stroke="#CED0D6" stroke-linecap="round" stroke-linejoin="round"/>
</svg>
