<!-- Copyright 2000-2022 JetBrains s.r.o. and contributors. Use of this source code is governed by the Apache 2.0 license. -->
<svg width="16" height="16" viewBox="0 0 16 16" fill="none" xmlns="http://www.w3.org/2000/svg">
<path d="M15.2238 4.49891C15.582 2.93587 15.2238 1.2012 13.1621 1.2012C11.5848 1.2012 10.6229 1.78927 9.48446 2.76249C9.28702 1.89462 8.6834 1.23114 7.44866 1.20633C6.18382 1.13683 5.07731 1.66536 4.12783 2.41342C4.22722 1.95973 4.01496 1.48674 3.49919 1.38233C3.04541 1.29046 2.59936 1.56634 2.5029 1.99851L0.674778 10.1896C0.578324 10.6218 0.867995 11.0466 1.32178 11.1385C1.77556 11.2303 2.22161 10.9544 2.31807 10.5223L3.73837 4.16652L3.7399 4.16422L3.74084 4.17093C4.4504 3.17597 5.72182 2.62955 6.65007 2.7291C7.42991 2.82551 7.96685 3.37585 7.7054 4.49494L6.61431 9.43619C7.14447 8.58656 7.90007 7.89211 8.79739 7.43654L9.52649 4.16652C10.839 2.32608 14.0739 2.02039 13.5034 4.49891L12.932 7.09496C13.4919 7.2706 14.0133 7.53337 14.4802 7.86738L15.2238 4.49891Z" fill="#CED0D6"/>
<path d="M8.55847 12.7336V12.2384C8.55847 10.7341 9.77793 9.51465 11.2822 9.51465C11.8303 9.51465 12.3406 9.67655 12.7679 9.95513" stroke="#548AF7" stroke-linecap="round"/>
<path d="M7.30179 11.3938L8.28539 12.9236L9.81517 11.9399" stroke="#548AF7" stroke-linecap="round"/>
<path d="M14.0245 11.9773V12.4726C14.0245 13.9768 12.8051 15.1963 11.3008 15.1963C10.7527 15.1963 10.2424 15.0344 9.81513 14.7558" stroke="#548AF7" stroke-linecap="round"/>
<path d="M15.2812 13.3172L14.2976 11.7874L12.7678 12.771" stroke="#548AF7" stroke-linecap="round"/>
</svg>
