<svg width="16" height="16" viewBox="0 0 16 16" fill="none" xmlns="http://www.w3.org/2000/svg">
<g clip-path="url(#clip0_13567_10625)">
<path d="M8.5 8C8.77614 8 9 8.22386 9 8.5V9.326L9.181 9.16238C9.90358 8.44447 10.9005 8 12.0002 8C13.1046 8 14.1053 8.44826 14.8286 9.17157C15.1887 9.5316 15.4806 9.96029 15.6831 10.4368C15.8159 10.7493 15.9101 11.0822 15.9597 11.4292C15.9988 11.7026 15.8089 11.9559 15.5356 11.995C15.2622 12.0341 15.0089 11.8442 14.9698 11.5708C14.9326 11.3108 14.8621 11.0617 14.7627 10.8279C14.6111 10.4711 14.3922 10.1493 14.1215 9.87868C13.5781 9.33524 12.8288 9 12.0002 9C11.1716 9 10.4223 9.33524 9.87888 9.87868L9.86997 9.88759L9.74562 10H10.5C10.7761 10 11 10.2239 11 10.5C11 10.7761 10.7761 11 10.5 11H8.5C8.22386 11 8 10.7761 8 10.5V8.5C8 8.22386 8.22386 8 8.5 8Z" fill="#CED0D6"/>
<path d="M8.46491 12.005C8.73827 11.9659 8.99157 12.1558 9.03067 12.4292C9.12449 13.0851 9.43079 13.6732 9.87894 14.1213C10.4224 14.6648 11.1717 15 12.0003 15C12.8288 15 13.5781 14.6648 14.1216 14.1213L14.1305 14.1124L14.2487 14H13.5C13.2239 14 13 13.7761 13 13.5C13 13.2239 13.2239 13 13.5 13H15.5C15.7761 13 16 13.2239 16 13.5V15.5C16 15.7761 15.7761 16 15.5 16C15.2239 16 15 15.7761 15 15.5V14.6657L14.8241 14.833C14.1011 15.5536 13.1024 16 12.0003 16C10.8958 16 9.89515 15.5517 9.17184 14.8284C8.57574 14.2323 8.16618 13.4477 8.04075 12.5708C8.00165 12.2974 8.19155 12.0441 8.46491 12.005Z" fill="#CED0D6"/>
<path fill-rule="evenodd" clip-rule="evenodd" d="M5.42422 4.8L6.1 5.34063V6.89736L5.94469 7.25974C5.65129 7.94436 5.5 8.68144 5.5 9.42628V14.5C5.5 14.7761 5.72386 15 6 15H8.00004C7.76924 14.6926 7.57279 14.3573 7.4167 14H6.5V9.42628C6.5 8.81687 6.62378 8.2138 6.86384 7.65366L7.05957 7.19695C7.08625 7.13471 7.1 7.0677 7.1 6.99999V5.6H8.3V6.99999L9.3 7V5.34971L10.566 4.40019C11.086 4.4018 11.4859 4.41685 11.9596 4.555C12.4863 4.70862 13.1354 5.02538 14.1129 5.70962C14.2884 5.83247 14.5227 5.82987 14.6954 5.70314C14.8681 5.57641 14.9409 5.35373 14.8764 5.14944C14.2454 3.15141 13.2725 2.08144 12.233 1.53281C11.2232 0.999853 10.2194 0.999946 9.61815 1L6.59961 1C6.536 1 6.47297 1.01214 6.41391 1.03577L5.50332 1.4H4.51764L3.82322 1.05279C3.75379 1.01808 3.67723 1 3.59961 1H1.59961C1.32347 1 1.09961 1.22386 1.09961 1.5V4.7C1.09961 4.97615 1.32347 5.2 1.59961 5.2H3.59961C3.67723 5.2 3.75379 5.18193 3.82322 5.14722L4.51764 4.8H5.42422ZM11.7662 2.4172C10.9865 2.00567 10.2006 2 9.59961 2H6.6959L5.7853 2.36424C5.72624 2.38787 5.66322 2.4 5.59961 2.4H4.39961C4.32199 2.4 4.24543 2.38193 4.176 2.34722L3.48158 2H2.09961V4.2H3.48158L4.176 3.85279C4.24543 3.81808 4.32199 3.8 4.39961 3.8H5.59961C5.71315 3.8 5.8233 3.83865 5.91196 3.90957L6.65 4.5H8.76628L10.0996 3.5C10.1862 3.43509 10.2914 3.4 10.3996 3.4L10.4214 3.4C11.0096 3.39997 11.5708 3.39995 12.2396 3.595C12.577 3.69342 12.934 3.83878 13.3348 4.04939C12.852 3.17911 12.2931 2.69527 11.7662 2.4172Z" fill="#CED0D6"/>
</g>
<defs>
<clipPath id="clip0_13567_10625">
<rect width="16" height="16" fill="white"/>
</clipPath>
</defs>
</svg>
