<!-- Copyright 2000-2022 JetBrains s.r.o. and contributors. Use of this source code is governed by the Apache 2.0 license. -->
<svg width="16" height="17" viewBox="0 0 16 17" fill="none" xmlns="http://www.w3.org/2000/svg">
<path d="M1 3.86667C1 2.83574 1.7835 2 2.75 2H6.03823C6.29871 2 6.5489 2.10163 6.73559 2.28327L8.5 4L13 4C14.1046 4 15 4.89543 15 6V7.38947C14.1372 6.82692 13.1068 6.5 12 6.5C8.96243 6.5 6.5 8.96243 6.5 12C6.5 12.7056 6.63286 13.3801 6.87494 14H2.75C1.7835 14 1 13.1643 1 12.1333V3.86667Z" fill="#43454A"/>
<path d="M6.03823 3L8.09379 5H13C13.5523 5 14 5.44772 14 6V6.87494C14.3525 7.01259 14.6872 7.18555 15 7.38947V6C15 4.89543 14.1046 4 13 4L8.5 4L6.73559 2.28327C6.5489 2.10163 6.29871 2 6.03823 2H2.75C1.7835 2 1 2.83574 1 3.86667V12.1333C1 13.1643 1.7835 14 2.75 14H6.87494C6.75003 13.6801 6.65419 13.3457 6.59069 13H2.75C2.3956 13 2 12.6738 2 12.1333V3.86667C2 3.32624 2.3956 3 2.75 3H6.03823Z" fill="#CED0D6"/>
<path d="M9.4037 11.4315L8.94984 10.6649C9.04944 10.4378 9.1738 10.2236 9.31961 10.026L10.2095 10.0358C10.6169 10.0403 10.9943 9.82234 11.1942 9.4673L11.6307 8.69162C11.7518 8.67829 11.875 8.67143 12 8.67143C12.125 8.67143 12.2482 8.67829 12.3692 8.69161L12.8058 9.4673C13.0056 9.82234 13.3831 10.0403 13.7905 10.0358L14.6804 10.026C14.8262 10.2236 14.9506 10.4377 15.0502 10.6648L14.5963 11.4315C14.3887 11.7821 14.3887 12.2179 14.5963 12.5685L15.0502 13.3352C14.9506 13.5623 14.8262 13.7764 14.6804 13.974L13.7905 13.9642C13.3831 13.9597 13.0056 14.1777 12.8058 14.5327L12.3692 15.3084C12.2482 15.3217 12.125 15.3286 12 15.3286C11.875 15.3286 11.7518 15.3217 11.6307 15.3084L11.1942 14.5327C10.9943 14.1777 10.6169 13.9597 10.2095 13.9642L9.31962 13.974C9.1738 13.7764 9.04944 13.5622 8.94984 13.3351L9.4037 12.5685C9.61126 12.2179 9.61126 11.7821 9.4037 11.4315ZM10.5219 9.08893C10.4602 9.19852 10.3437 9.26579 10.218 9.26441L9.20702 9.25333C9.04998 9.25161 8.89527 9.31723 8.79388 9.44425C8.54095 9.76114 8.33399 10.1164 8.18314 10.5C8.12359 10.6513 8.14414 10.8183 8.22419 10.9535L8.73989 11.8245C8.80396 11.9327 8.80396 12.0673 8.73989 12.1755L8.22419 13.0465C8.14414 13.1817 8.1236 13.3487 8.18314 13.5C8.33399 13.8836 8.54095 14.2389 8.79388 14.5557C8.89527 14.6828 9.04998 14.7484 9.20702 14.7467L10.218 14.7356C10.3437 14.7342 10.4602 14.8015 10.5219 14.9111L11.0181 15.7926C11.0952 15.9297 11.2298 16.031 11.3909 16.055C11.5897 16.0847 11.7931 16.1 12 16.1C12.2069 16.1 12.4103 16.0847 12.6091 16.0551C12.7702 16.0311 12.9047 15.9297 12.9819 15.7926L13.4781 14.9111C13.5398 14.8015 13.6563 14.7342 13.782 14.7356L14.793 14.7467C14.9501 14.7484 15.1048 14.6828 15.2062 14.5557C15.4591 14.2389 15.666 13.8837 15.8169 13.5001C15.8764 13.3487 15.8559 13.1818 15.7758 13.0466L15.2601 12.1755C15.196 12.0673 15.196 11.9327 15.2601 11.8245L15.7758 10.9534C15.8559 10.8182 15.8764 10.6513 15.8169 10.4999C15.666 10.1164 15.4591 9.76111 15.2062 9.44425C15.1048 9.31722 14.9501 9.25161 14.793 9.25333L13.782 9.26441C13.6563 9.26579 13.5398 9.19852 13.4781 9.08893L12.9819 8.20737C12.9047 8.07026 12.7702 7.96894 12.6091 7.94494C12.4103 7.91533 12.2069 7.9 12 7.9C11.7931 7.9 11.5897 7.91534 11.3909 7.94495C11.2298 7.96895 11.0952 8.07027 11.0181 8.20738L10.5219 9.08893Z" fill="#548AF7" stroke="#548AF7" stroke-width="0.2"/>
<path d="M13 12C13 12.5523 12.5523 13 12 13C11.4477 13 11 12.5523 11 12C11 11.4477 11.4477 11 12 11C12.5523 11 13 11.4477 13 12Z" fill="#548AF7"/>
</svg>
