<!-- Copyright 2000-2025 JetBrains s.r.o. and contributors. Use of this source code is governed by the Apache 2.0 license. -->
<svg width="16" height="16" viewBox="0 0 16 16" fill="none" xmlns="http://www.w3.org/2000/svg">
<path fill-rule="evenodd" clip-rule="evenodd" d="M2.14648 2.14648C2.34175 1.95122 2.65825 1.95122 2.85352 2.14648L13.8535 13.1465L13.918 13.2246C14.0461 13.4187 14.0244 13.6827 13.8535 13.8535C13.6827 14.0244 13.4187 14.0461 13.2246 13.918L13.1465 13.8535L12.293 13H4C1.79086 13 0 11.2091 0 9C0 7.33887 1.01253 5.91415 2.4541 5.30957C2.66401 4.82669 2.94152 4.3802 3.27441 3.98145L2.14648 2.85352C1.95122 2.65825 1.95122 2.34175 2.14648 2.14648ZM3.98535 4.69238C3.73843 5.00027 3.53066 5.34096 3.37109 5.70801L3.21094 6.07617L2.84082 6.23145C1.75772 6.68569 1 7.75568 1 9C1 10.6569 2.34315 12 4 12H11.293L3.98535 4.69238Z" fill="#6C707E"/>
<path d="M7.5 2C10.0223 2 12.1464 3.69843 12.7949 6.01367C14.5898 6.16349 16 7.66637 16 9.5C16 10.6911 15.4041 11.7418 14.4951 12.374L13.7705 11.6494C14.5054 11.2141 15 10.4161 15 9.5C15 8.19137 13.9935 7.1168 12.7119 7.00977L12.0195 6.95215L11.832 6.2832C11.301 4.38801 9.56171 3 7.5 3C6.80546 3 6.14727 3.15718 5.55957 3.43848L4.81836 2.69727C5.61165 2.25324 6.52619 2 7.5 2Z" fill="#6C707E"/>
</svg>
