<!-- Copyright 2000-2022 JetBrains s.r.o. and contributors. Use of this source code is governed by the Apache 2.0 license. -->
<svg width="16" height="16" viewBox="0 0 16 16" fill="none" xmlns="http://www.w3.org/2000/svg">
<path d="M2.69698 4.81823C2.6079 4.97744 2.5265 5.14154 2.45328 5.31002C1.01216 5.9148 0 7.3392 0 9C0 11.2091 1.79086 13 4 13H10.8788L9.87876 12H4C2.34315 12 1 10.6569 1 9C1 7.75597 1.75745 6.68652 2.84025 6.23211L3.21044 6.07675L3.37043 5.70856C3.39221 5.65844 3.41488 5.60879 3.4384 5.55965L2.69698 4.81823Z" fill="#6C707E"/>
<path d="M5.55989 3.43849L4.81833 2.69693C5.61167 2.25303 6.52629 2 7.5 2C10.0221 2 12.1476 3.69755 12.7965 6.01238C14.5907 6.16287 16 7.66685 16 9.5C16 10.6909 15.4052 11.7429 14.4965 12.3751L13.7733 11.6519C14.5077 11.2164 15 10.4157 15 9.5C15 8.19112 13.9934 7.11629 12.7129 7.00888L12.021 6.95085L11.8336 6.28227C11.3026 4.38782 9.56206 3 7.5 3C6.80556 3 6.14755 3.15732 5.55989 3.43849Z" fill="#6C707E"/>
<path d="M1.28258 1.98958L1.98969 1.28247L14.7176 14.0104L14.0105 14.7175L1.28258 1.98958Z" fill="#6C707E"/>
</svg>
