<!-- Copyright 2000-2022 JetBrains s.r.o. and contributors. Use of this source code is governed by the Apache 2.0 license. -->
<svg width="16" height="16" viewBox="0 0 16 16" fill="none" xmlns="http://www.w3.org/2000/svg">
<path fill-rule="evenodd" clip-rule="evenodd" d="M7.80265 4.71673L8.09379 5H8.5H13C13.5523 5 14 5.44772 14 6V8H15V6C15 4.89543 14.1046 4 13 4L8.5 4L6.73559 2.28327C6.5489 2.10163 6.29871 2 6.03823 2H2.75C1.7835 2 1 2.83574 1 3.86667V12.1333C1 13.1643 1.7835 14 2.75 14H6V13H2.75C2.3956 13 2 12.6738 2 12.1333V3.86667C2 3.32624 2.3956 3 2.75 3H6.03823L7.80265 4.71673Z" fill="#6C707E"/>
<path d="M8.55841 12.2336V11.7384C8.55841 10.2341 9.77787 9.01465 11.2821 9.01465C11.8303 9.01465 12.3406 9.17655 12.7678 9.45513" stroke="#3574F0" stroke-linecap="round"/>
<path d="M7.30175 10.8935L8.28534 12.4233L9.81512 11.4397" stroke="#3574F0" stroke-linecap="round"/>
<path d="M14.0246 11.4776V11.9728C14.0246 13.4771 12.8051 14.6965 11.3008 14.6965C10.7527 14.6965 10.2424 14.5346 9.81514 14.256" stroke="#3574F0" stroke-linecap="round"/>
<path d="M15.2812 12.8177L14.2976 11.2879L12.7678 12.2715" stroke="#3574F0" stroke-linecap="round"/>
</svg>
