<svg width="16" height="16" viewBox="0 0 1024 1024" fill="none" xmlns="http://www.w3.org/2000/svg">
<path d="M543.5 406.195L549 369.195L492 392.695L428 421.695L445 433.695L508 440.195L543.5 406.195Z" fill="url(#paint0_linear_5_2)"/>
<path d="M556.5 299.195L608.5 332.695L591 351.195L556.5 363.695L530.5 377.695L491 393.695L439.5 416.195L390.5 427.695L400 391.195L317 377.695L294 357.695L286 299.195L299.5 286.195L341.5 250.695L366 234.695L396.5 231.195V261.695L429.5 254.195L492.5 273.195H510L523 310.195L556.5 299.195Z" fill="#E9D77A" stroke="black"/>
<path d="M586 353.195L609 334.695L619 348.195L628.5 377.695V409.195L616.5 440.695L594.5 472.195L558 502.195L535.5 533.195L526 559.695L504 568.195L437 599.195L390.5 647.695L397 602.695L421.5 536.195L457 493.195L502 448.695L541 401.195L547.5 365.195L586 353.195Z" fill="#FDF7DD" stroke="black"/>
<path d="M636.5 274.195L560 296.695V297.195L609.5 331.195L632 383.695L613 450.195L579 481.695L537.5 535.195L526 556.195L560 585.695L570 556.195L628.5 495.195L660 443.195L667.5 363.195L636.5 274.195Z" fill="#19A2F4" stroke="black"/>
<path d="M657.5 446.695L736.5 433.695L717 380.195L669 367.695L657.5 446.695Z" fill="url(#paint1_linear_5_2)"/>
<path d="M230.5 185.695L298.5 126.195L351.5 154.695L325 181.695L357.5 217.695H385L395 225.195L364.5 233.195L317.5 270.695L270.5 251.195V233.195L257.5 204.195L220.5 199.695L230.5 185.695Z" fill="url(#paint2_linear_5_2)"/>
<path d="M200 461.195L297 474.695L313.5 499.195L355 461.195L380 503.695L423.5 463.195L454.5 486.695L416 556.195L386.5 647.195L333.5 590.695V566.695L276.5 556.195L226.5 503.695L219.5 521.195L195 499.195L200 461.195Z" fill="url(#paint3_linear_5_2)"/>
<path d="M553.5 581.695L638 487.695L655.5 481.695L688 504.695L716 487.695L732 498.695H752.5L768.5 476.695L790.5 466.195L825 478.695V487.695L724.5 518.695L713 546.695H662.5L641 599.695H575.5L553.5 581.695Z" fill="url(#paint4_linear_5_2)"/>
<path d="M848.5 566.695L829.5 484.695L727.5 518.695L713 545.195H661.5L642.5 600.195H576.5L527 559.195L435.5 600.195L385.5 649.195L338 591.695L335 566.695L277.5 556.195L225.5 499.195L218.5 518.195L190 499.195C187.333 511.028 181.8 536.695 181 544.695C180 554.695 163 653.695 169.5 736.695C176 819.695 271 910.695 305.5 925.195C340 939.695 474 985.195 646 951.195C783.6 923.995 838.333 780.195 848.5 711.695V566.695Z" fill="url(#paint5_radial_5_2)"/>
<path d="M571 77.1947C463.861 37.8394 340.581 83.6949 294 121.695L352.5 151.195L325 181.695L358 217.195L396 217.195L396 258.695L462.5 244.695L485.5 270.195L508.5 276.195L523 309.695L643 270.195L675.5 364.695L714 382.695L738.5 431.695L754 438.269C776.5 364.695 769.5 390.695 776.5 336.433C773.5 273.195 764.226 234.29 745 211.195C725.774 188.1 704.923 126.389 571 77.1947Z" fill="url(#paint6_radial_5_2)"/>
<path d="M510 439.695C492.5 440.361 450.1 438.395 420.5 425.195" stroke="black" stroke-width="16"/>
<path d="M547 377.195C563.333 390.695 602.6 413.195 629 395.195" stroke="black" stroke-width="10"/>
<path d="M524.5 430.195C526.5 446.528 541.7 478.795 586.5 477.195" stroke="black" stroke-width="10"/>
<path d="M471 477.195C475.348 491.921 495.835 521.939 543 524.195" stroke="black" stroke-width="10"/>
<path d="M417.5 556.195C427.667 566.361 456.1 584.595 488.5 576.195" stroke="black" stroke-width="10"/>
<path d="M552.5 298.695C610.5 316.695 637 364.695 628.5 406.195C611.673 488.349 562.5 470.695 524.5 557.695" stroke="black" stroke-width="10"/>
<path d="M168 416.195C281 469.695 341.333 419.028 366 388.695L332.5 381.195C310.5 427.995 214.167 424.028 168 416.195Z" fill="#E356E9"/>
<path d="M366 388.695L369.879 391.849L374.977 385.581L367.092 383.816L366 388.695ZM168 416.195L168.836 411.265C166.374 410.847 163.981 412.311 163.231 414.693C162.481 417.075 163.603 419.645 165.86 420.714L168 416.195ZM332.5 381.195L333.592 376.316L329.68 375.44L327.975 379.068L332.5 381.195ZM362.121 385.54C350.162 400.246 329.689 419.713 298.677 429.097C267.772 438.448 225.721 437.991 170.14 411.676L165.86 420.714C223.279 447.899 267.895 448.858 301.573 438.668C335.144 428.51 357.171 407.477 369.879 391.849L362.121 385.54ZM167.164 421.124C190.562 425.094 226.689 428.099 259.903 424.147C276.512 422.171 292.64 418.428 306.149 412.027C319.678 405.617 330.883 396.387 337.025 383.322L327.975 379.068C323.117 389.403 314.031 397.227 301.867 402.99C289.683 408.763 274.717 412.314 258.722 414.217C226.728 418.024 191.605 415.128 168.836 411.265L167.164 421.124ZM367.092 383.816L333.592 376.316L331.408 386.074L364.908 393.574L367.092 383.816Z" fill="black"/>
<path d="M388 645.195C393.333 607.861 417 525.595 459 487.195C511.5 439.195 547 411.195 549.5 367.695C533.833 370.361 508.227 383.217 485 396.695C444.5 420.195 394 428.695 388.5 428.695C390.5 419.361 398.4 396.795 396 391.195C393 384.195 321 390.195 294 361.695L285.5 303.195C286.333 299.361 291.2 288.095 296 285.695C298.632 284.379 324.871 269.582 337 257.195C360.5 233.195 374.547 230.695 396 230.695" stroke="black" stroke-width="16"/>
<path d="M446 375.195C420.5 388.695 399.667 379.861 387.5 380.195L400 404.695C409 405.195 431.46 403.67 445 396.695C461.5 388.195 487.5 358.195 497.5 350.195C505.5 343.795 521 334.861 527.5 331.195C520 331.195 515.4 331.395 511 332.195C505.5 333.195 483.5 351.195 481 353.695C478.5 356.195 458.577 368.537 446 375.195Z" fill="black"/>
<path d="M298.5 127.695L353 152.695L324 180.695L358 218.695H396.5V262.195L463 247.195L484.5 271.195L508.5 276.195L522 308.695L640.5 271.195L676 372.695L715 380.695L739 435.695" stroke="black" stroke-width="10"/>
<path d="M313.5 273.695L310 266.695L299 268.195L296 256.195L272 254.695V228.195C272 228.195 261 210.195 255.5 204.195C251.1 199.395 225.333 202.195 213 204.195C251 156.028 350.5 53.6361 501.5 67.6948C646.5 81.1948 839 204.195 754 438.195L734.5 433.695L716.5 441.195L707 433.695L661 441.195" stroke="black" stroke-width="16"/>
<path d="M632.5 483.695L657.5 480.695L686 504.695L717 485.195L730 499.195H755.5L766.5 476.195L791 466.695L824.5 476.195C824.5 476.195 985.5 987.336 491 966.195C11.4999 945.695 205 466.695 205 466.695L231 459.695L301 476.195L314 499.195L356 459.695L381.5 504.695L424 464.695L455 489.195" stroke="black" stroke-width="16"/>
<path d="M827 484.695L724.5 520.695L712.5 546.195H661.5L641.5 600.195H576L529 557.695L435.5 600.195L385 652.195L335.5 591.195V566.695L277 557.695L226.5 500.195L219.5 520.695L199.5 500.195" stroke="black" stroke-width="10"/>
<path d="M631 275.695C653.833 304.195 687.2 389.295 654 451.695C612.5 529.695 569.5 546.195 556 582.695" stroke="black" stroke-width="16"/>
<path d="M326.5 301.195V285.695C320 285.195 312 291.195 309 294.195C306 297.195 308.5 306.195 311 308.695C313 310.695 316.167 309.528 317.5 308.695L326.5 301.195Z" fill="black"/>
<path d="M353.482 303.385L367.808 297.468C370.752 303.285 368.26 312.97 366.632 316.888C365.005 320.806 355.732 321.931 352.467 320.574C349.855 319.489 349.725 316.117 349.986 314.566L353.482 303.385Z" fill="black"/>
<path d="M552 364.195C571 361.695 598.691 349.657 606.5 335.695" stroke="black" stroke-width="10"/>
<path d="M442.67 349.364C466.788 355.842 492.259 339.056 499.559 311.873C503.314 297.893 501.532 283.885 495.635 272.695L486 270.695L462 247.695L444 252.165C429.317 257.545 416.952 270.796 412.219 288.415C404.919 315.599 418.552 342.886 442.67 349.364Z" fill="black"/>
<path d="M458.438 268.743C460.823 266.79 464.898 265.325 469.371 266.79C474.478 268.463 481.05 272.649 483.783 278.02C487.262 284.856 487.262 292.668 486.765 302.433C486.342 310.738 480.867 332.561 462.5 334.195C445.102 335.742 444.306 318.104 445 303.195C446 281.695 453.667 272.649 458.438 268.743Z" fill="#FECD10"/>
<path d="M446.814 272.167C446.593 271.194 446.029 269.422 444.314 268.167C442.783 267.047 440.814 266.667 438.814 266.667C436.314 266.667 435.346 267.238 433.689 268.922C432.279 270.353 429.963 274.617 432.667 280.492C435.301 286.214 438.775 284.645 442.542 281.619C446.217 278.666 447.257 274.113 446.814 272.167Z" fill="white"/>
<mask id="mask0_5_2" style="mask-type:alpha" maskUnits="userSpaceOnUse" x="444" y="266" width="43" height="69">
<path d="M458.438 268.743C460.823 266.79 464.898 265.325 469.371 266.79C474.478 268.463 481.05 272.649 483.783 278.02C487.262 284.856 487.262 292.668 486.765 302.433C486.342 310.738 480.867 332.561 462.5 334.195C445.102 335.742 444.306 318.104 445 303.195C446 281.695 453.667 272.649 458.438 268.743Z" fill="#FE9F10"/>
</mask>
<g mask="url(#mask0_5_2)">
<g filter="url(#filter0_f_5_2)">
<path d="M492 309.695L489 276.195L477 265.195L467.5 264.195L460 267.195C483.5 274.695 482.5 310.195 476 328.695L492 309.695Z" fill="#FE9F10"/>
</g>
</g>
<defs>
<filter id="filter0_f_5_2" x="451" y="255.195" width="50" height="82.5" filterUnits="userSpaceOnUse" color-interpolation-filters="sRGB">
<feFlood flood-opacity="0" result="BackgroundImageFix"/>
<feBlend mode="normal" in="SourceGraphic" in2="BackgroundImageFix" result="shape"/>
<feGaussianBlur stdDeviation="4.5" result="effect1_foregroundBlur_5_2"/>
</filter>
<linearGradient id="paint0_linear_5_2" x1="488.5" y1="369.195" x2="488.5" y2="440.195" gradientUnits="userSpaceOnUse">
<stop stop-color="#714D29"/>
<stop offset="1" stop-color="#C1A180"/>
</linearGradient>
<linearGradient id="paint1_linear_5_2" x1="697" y1="367.695" x2="697" y2="446.695" gradientUnits="userSpaceOnUse">
<stop stop-color="#714D29"/>
<stop offset="1" stop-color="#C1A180"/>
</linearGradient>
<linearGradient id="paint2_linear_5_2" x1="307.75" y1="126.195" x2="307.75" y2="270.695" gradientUnits="userSpaceOnUse">
<stop stop-color="#714D29"/>
<stop offset="1" stop-color="#C1A180"/>
</linearGradient>
<linearGradient id="paint3_linear_5_2" x1="324.75" y1="461.195" x2="324.75" y2="647.195" gradientUnits="userSpaceOnUse">
<stop stop-color="#C1A180"/>
<stop offset="1" stop-color="#714D29"/>
</linearGradient>
<linearGradient id="paint4_linear_5_2" x1="689.25" y1="466.195" x2="689.25" y2="599.695" gradientUnits="userSpaceOnUse">
<stop stop-color="#C1A180"/>
<stop offset="1" stop-color="#714D29"/>
</linearGradient>
<radialGradient id="paint5_radial_5_2" cx="0" cy="0" r="1" gradientUnits="userSpaceOnUse" gradientTransform="translate(283.5 642.695) rotate(17.4274) scale(512.526 728.349)">
<stop stop-color="white"/>
<stop offset="1" stop-color="#BBBBBB"/>
</radialGradient>
<radialGradient id="paint6_radial_5_2" cx="0" cy="0" r="1" gradientUnits="userSpaceOnUse" gradientTransform="translate(436.5 102.195) rotate(30.5854) scale(363.585 350.906)">
<stop stop-color="white"/>
<stop offset="1" stop-color="#C0C0C0"/>
</radialGradient>
</defs>
</svg>
