<svg width="40" height="40" viewBox="0 0 40 40" fill="none" xmlns="http://www.w3.org/2000/svg">
<path d="M28 8V20C28 23.866 24.866 27 21 27H20V25C20 22.7909 18.2091 21 16 21H6.07227C6.02553 20.6733 6 20.3396 6 20V8H28Z" fill="#FFF4EB"/>
<path d="M34 8V12.1455C34 12.7136 33.679 13.2332 33.1709 13.4873L31 14.5723V8H34Z" fill="#FFF4EB"/>
<path d="M31.5 32C32.3284 32 33 32.6716 33 33.5C33 34.3284 32.3284 35 31.5 35H20V32H31.5Z" fill="#E66D17"/>
<path fill-rule="evenodd" clip-rule="evenodd" d="M34.5 5C35.8807 5 37 6.11929 37 7.5V12.1455C37 13.8499 36.0371 15.4086 34.5127 16.1709L31 17.9268V20C31 25.5228 26.5228 30 21 30H20V27H21C24.866 27 28 23.866 28 20V8H6V20C6 20.3396 6.02553 20.6733 6.07227 21H3.0498C3.01715 20.6711 3 20.3375 3 20V8C3 6.34315 4.34315 5 6 5H34.5ZM31 14.5723L33.1709 13.4873C33.679 13.2332 34 12.7136 34 12.1455V8H31V14.5723Z" fill="#E66D17"/>
<path d="M13 33C13.5523 33 14 33.4477 14 34C14 34.5523 13.5523 35 13 35H9C8.44772 35 8 34.5523 8 34C8 33.4477 8.44772 33 9 33H13Z" fill="#6C707E"/>
<path d="M4.29297 26.793C4.68349 26.4024 5.31651 26.4024 5.70703 26.793L8.20703 29.293C8.59754 29.6835 8.59755 30.3165 8.20703 30.707L5.70703 33.207C5.31651 33.5976 4.68349 33.5975 4.29297 33.207C3.90244 32.8165 3.90244 32.1835 4.29297 31.793L6.08594 30L4.29297 28.207C3.90244 27.8165 3.90244 27.1835 4.29297 26.793Z" fill="#6C707E"/>
<path fill-rule="evenodd" clip-rule="evenodd" d="M16 23C17.1046 23 18 23.8954 18 25V37C18 38.0357 17.2128 38.887 16.2041 38.9893L16 39H2L1.7959 38.9893C0.787223 38.887 0 38.0357 0 37V25C0 23.8954 0.895431 23 2 23H16ZM2 37H16V25H2V37Z" fill="#6C707E"/>
</svg>
