<!-- Copyright 2000-2023 JetBrains s.r.o. and contributors. Use of this source code is governed by the Apache 2.0 license. -->
<svg width="16" height="16" viewBox="0 0 16 16" fill="none" xmlns="http://www.w3.org/2000/svg">
<path fill-rule="evenodd" clip-rule="evenodd" d="M4.19306 6.34848C5.04122 6.0281 5.85274 5.96513 6.55611 5.92719C6.64623 5.92233 6.73427 5.91786 6.82055 5.91348C7.43529 5.88228 7.96186 5.85554 8.52154 5.72433L8.52266 5.72407C9.90789 5.40096 11.4581 4.36933 12.0449 3.17167L13.1088 1L13.8934 3.28357C14.3228 4.53336 14.8172 6.1955 14.9587 7.87787C15.0991 9.54668 14.9047 11.3859 13.7858 12.8498C12.6316 14.3595 10.8669 14.7865 9.2918 14.903C8.49416 14.962 7.68694 14.9453 6.95762 14.9236L6.67181 14.9149C6.04413 14.8954 5.49374 14.8783 5.00581 14.8996L4.9978 14.9001L4.95111 14.9032C4.90953 14.9062 4.84878 14.9109 4.77532 14.9176C4.62629 14.9312 4.43448 14.9523 4.24795 14.9826C4.03864 15.0165 3.80724 15.0043 3.57859 14.9162C3.35522 14.8302 3.19454 14.695 3.08492 14.572C2.90264 14.3675 2.80274 14.1231 2.76153 14.0223L2.72278 13.9275C2.70621 13.8868 2.69455 13.8582 2.68495 13.836C1.33026 13.1485 0.845643 11.5236 1.04186 10.1251C1.25338 8.61754 2.25367 7.08072 4.19306 6.34848ZM6.70602 13.9328C8.95611 14.003 11.5907 14.0851 12.9862 12.2597C14.7995 9.88712 13.7885 6.0505 12.9458 3.59782C12.1953 5.12988 10.3486 6.308 8.75357 6.68003C8.09855 6.8336 7.47651 6.86467 6.86792 6.89507C6.08745 6.93405 5.3291 6.97193 4.55165 7.26564C1.3967 8.45667 1.44493 12.1521 3.18287 12.9822L3.28634 13.0365C3.28634 13.0365 5.84152 12.5361 7.25502 12.0246C9.31827 11.2771 11.585 9.43241 12.3303 7.28803C11.9348 9.5168 9.98556 11.662 8.02841 12.6472C7.36711 12.981 6.79894 13.1502 6.03436 13.3778C5.59352 13.5091 5.08739 13.6598 4.46046 13.8727C4.25001 13.9442 4.08516 14.0131 4.08516 14.0131C4.52096 13.9425 4.95325 13.9184 4.95325 13.9184C5.48453 13.8948 6.08041 13.9133 6.70602 13.9328Z" fill="#57965C"/>
<path fill-rule="evenodd" clip-rule="evenodd" d="M12.9857 12.2597C11.2022 14.5927 7.39483 13.8099 4.95277 13.9184C4.95277 13.9184 4.52047 13.9425 4.08467 14.0131C4.08467 14.0131 4.24952 13.9442 4.45997 13.8727C6.17423 13.2906 6.98533 13.1734 8.02792 12.6472C9.98507 11.662 11.9343 9.51681 12.3298 7.28804C11.5845 9.43241 9.31778 11.2771 7.25453 12.0246C5.84103 12.5362 3.28585 13.0356 3.28585 13.0365L3.18238 12.9823C1.44444 12.1521 1.39622 8.45668 4.55116 7.26565C5.93485 6.7429 7.25804 7.03054 8.75308 6.68004C10.3481 6.308 12.1948 5.12989 12.9454 3.59782C13.788 6.0505 14.799 9.88712 12.9857 12.2597Z" fill="#253627"/>
</svg>
