<!-- Copyright 2000-2023 JetBrains s.r.o. and contributors. Use of this source code is governed by the Apache 2.0 license. -->
<svg xmlns="http://www.w3.org/2000/svg" xmlns:xlink="http://www.w3.org/1999/xlink" contentStyleType="text/css" height="957px" preserveAspectRatio="none" style="width:1271px;height:957px;background:#FFFFFF;" version="1.1" viewBox="0 0 1271 957" width="1271px" zoomAndPan="magnify">
  <style>
  @import url('https://fonts.googleapis.com/css?family=Roboto|Roboto+Mono&amp;display=swap');
  .text {
    font-family: 'Roboto', sans-serif;
    font-size: 14px;
  }
  .code {
    font-family: 'Roboto Mono', monospace;
    font-size: 14px;
  }
</style>
  <defs>
    <filter height="300%" id="f1oijfvpifuah8" width="300%" x="-1" y="-1">
      <feGaussianBlur result="blurOut" stdDeviation="2.0"/>
      <feColorMatrix in="blurOut" result="blurOut2" type="matrix" values="0 0 0 0 0 0 0 0 0 0 0 0 0 0 0 0 0 0 .4 0"/>
      <feOffset dx="4.0" dy="4.0" in="blurOut2" result="blurOut3"/>
      <feBlend in="SourceGraphic" in2="blurOut3" mode="normal"/>
    </filter>
    <style type="text/css">@import url('https://fonts.googleapis.com/css?family=Roboto:400,100,100italic,300,300italic,400italic,500,500italic,700,700italic,900,900italic');</style>
  </defs>
  <g>
    <path d="M753.5,10 L753.5,43.9766 L733.5,47.9766 L753.5,51.9766 L753.5,85.9531 A0,0 0 0 0 753.5,85.9531 L1083.5,85.9531 A0,0 0 0 0 1083.5,85.9531 L1083.5,20 L1073.5,10 L753.5,10 A0,0 0 0 0 753.5,10 " fill="#FAFAFA" filter="url(#f1oijfvpifuah8)" style="stroke:#181818;stroke-width:0.5;"/>
    <path d="M1073.5,10 L1073.5,20 L1083.5,20 L1073.5,10 " fill="#FAFAFA" style="stroke:#181818;stroke-width:0.5;"/>
    <text class="text" textLength="94" x="759.5" y="28.5352">In any thread.</text>
    <text class="text" textLength="142" x="759.5" y="45.0234">Get on demand only.</text>
    <text class="text" textLength="136" x="759.5" y="61.5117">Do not cache result.</text>
    <text class="text" textLength="309" x="759.5" y="78">Do not request in constructor unless needed.</text>
    <rect fill="#F1F1F1" filter="url(#f1oijfvpifuah8)" height="36.4883" rx="12.5" ry="12.5" style="stroke:#181818;stroke-width:1.0;" width="90" x="643.5" y="29.7324"/>
    <text class="text" textLength="70" x="653.5" y="53.2676">getService</text>
    <rect fill="#F1F1F1" filter="url(#f1oijfvpifuah8)" height="36.4883" rx="12.5" ry="12.5" style="stroke:#181818;stroke-width:1.0;" width="96" x="640.5" y="206.4414"/>
    <text class="text" textLength="46" x="650.5" y="229.9766">Return</text>
    <text class="code" textLength="26" x="700.5" y="229.9766">null</text>
    <polygon fill="#F1F1F1" filter="url(#f1oijfvpifuah8)" points="592,156.1973,785,156.1973,797,168.1973,785,180.1973,592,180.1973,580,168.1973,592,156.1973" style="stroke:#181818;stroke-width:1.0;"/>
    <text class="text" textLength="18" x="692.5" y="193.7324">no</text>
    <text class="text" textLength="11" x="592" y="173.4883">Is</text>
    <a href="http://www.jetbrains.org/intellij/sdk/docs/basics/plugin_structure/plugin_services.html?search=ser#how-to-declare-a-service" target="_top" title="http://www.jetbrains.org/intellij/sdk/docs/basics/plugin_structure/plugin_services.html?search=ser#how-to-declare-a-service" xlink:actuate="onRequest" xlink:href="http://www.jetbrains.org/intellij/sdk/docs/basics/plugin_structure/plugin_services.html?search=ser#how-to-declare-a-service" xlink:show="new" xlink:title="http://www.jetbrains.org/intellij/sdk/docs/basics/plugin_structure/plugin_services.html?search=ser#how-to-declare-a-service" xlink:type="simple">
      <text fill="#1D1D1D" font-family="Roboto" font-size="14" lengthAdjust="spacing" text-decoration="underline" textLength="130" x="607" y="173.4883">Service Declaration</text>
    </a>
    <text class="text" textLength="44" x="741" y="173.4883">Found</text>
    <text class="text" textLength="22" x="797" y="165.2441">yes</text>
    <polygon fill="#F1F1F1" filter="url(#f1oijfvpifuah8)" points="638,105.9531,739,105.9531,751,117.9531,739,129.9531,638,129.9531,626,117.9531,638,105.9531" style="stroke:#181818;stroke-width:1.0;"/>
    <text class="text" textLength="18" x="692.5" y="143.4883">no</text>
    <text class="text" textLength="11" x="638" y="123.2441">Is</text>
    <a href="http://www.jetbrains.org/intellij/sdk/docs/basics/plugin_structure/plugin_services.html?search=ser#light-service" target="_top" title="http://www.jetbrains.org/intellij/sdk/docs/basics/plugin_structure/plugin_services.html?search=ser#light-service" xlink:actuate="onRequest" xlink:href="http://www.jetbrains.org/intellij/sdk/docs/basics/plugin_structure/plugin_services.html?search=ser#light-service" xlink:show="new" xlink:title="http://www.jetbrains.org/intellij/sdk/docs/basics/plugin_structure/plugin_services.html?search=ser#light-service" xlink:type="simple">
      <text fill="#1D1D1D" font-family="Roboto" font-size="14" lengthAdjust="spacing" text-decoration="underline" textLength="86" x="653" y="123.2441">Light Service</text>
    </a>
    <text class="text" textLength="22" x="751" y="115">yes</text>
    <polygon fill="#F1F1F1" filter="url(#f1oijfvpifuah8)" points="688.5,284.9297,700.5,296.9297,688.5,308.9297,676.5,296.9297,688.5,284.9297" style="stroke:#181818;stroke-width:1.0;"/>
    <polygon fill="#F1F1F1" filter="url(#f1oijfvpifuah8)" points="621.5,379.1738,755.5,379.1738,767.5,391.1738,755.5,403.1738,621.5,403.1738,609.5,391.1738,621.5,379.1738" style="stroke:#181818;stroke-width:1.0;"/>
    <text class="text" textLength="134" x="621.5" y="396.4648">Is Container Active?</text>
    <text class="text" textLength="39" x="570.5" y="388.2207">active</text>
    <text class="text" textLength="220" x="767.5" y="388.2207">disposed or dispose in progress</text>
    <rect fill="none" filter="url(#f1oijfvpifuah8)" height="427.1504" style="stroke:#000000;stroke-width:1.5;" width="949" x="11" y="413.1738"/>
    <path d="M223,413.1738 L223,422.6621 L213,432.6621 L11,432.6621 " fill="none" style="stroke:#000000;stroke-width:1.5;"/>
    <text class="text" textLength="202" x="14" y="427.709">synchronized on service class</text>
    <polygon fill="#F1F1F1" filter="url(#f1oijfvpifuah8)" points="225,499.9063,318,499.9063,330,511.9063,318,523.9063,225,523.9063,213,511.9063,225,499.9063" style="stroke:#181818;stroke-width:1.0;"/>
    <text class="text" textLength="93" x="225" y="517.1973">Is Initializing?</text>
    <text class="text" textLength="22" x="191" y="508.9531">yes</text>
    <text class="text" textLength="18" x="330" y="508.9531">no</text>
    <rect fill="#F1F1F1" filter="url(#f1oijfvpifuah8)" height="52.9766" rx="12.5" ry="12.5" style="stroke:#181818;stroke-width:1.0;" width="200" x="23" y="533.9063"/>
    <text class="text" textLength="44" x="43.5" y="557.4414">Throw</text>
    <text class="code" textLength="111" x="91.5" y="557.4414">PluginException</text>
    <text class="text" textLength="180" x="33" y="573.9297">Cyclic Service Initialization</text>
    <rect fill="none" filter="url(#f1oijfvpifuah8)" height="250.418" style="stroke:#000000;stroke-width:1.5;" width="675" x="243" y="533.9063"/>
    <path d="M356,533.9063 L356,543.3945 L346,553.3945 L243,553.3945 " fill="none" style="stroke:#000000;stroke-width:1.5;"/>
    <text class="text" textLength="103" x="246" y="548.4414">non cancelable</text>
    <path d="M503,570.3945 L503,587.8828 L483,591.8828 L503,595.8828 L503,613.3711 A0,0 0 0 0 503,613.3711 L908,613.3711 A0,0 0 0 0 908,613.3711 L908,580.3945 L898,570.3945 L503,570.3945 A0,0 0 0 0 503,570.3945 " fill="#FAFAFA" filter="url(#f1oijfvpifuah8)" style="stroke:#181818;stroke-width:0.5;"/>
    <path d="M898,570.3945 L898,580.3945 L908,580.3945 L898,570.3945 " fill="#FAFAFA" style="stroke:#181818;stroke-width:0.5;"/>
    <text class="text" textLength="384" x="509" y="588.9297">Avoid getting other services to reduce initialization tree.</text>
    <text class="text" textLength="341" x="509" y="605.418">As less dependencies, as more faster and reliable.</text>
    <rect fill="#F1F1F1" filter="url(#f1oijfvpifuah8)" height="36.4883" style="stroke:#181818;stroke-width:1.0;" width="126" x="357" y="573.6387"/>
    <text class="text" textLength="106" x="367" y="597.1738">Create Instance</text>
    <rect fill="#F1F1F1" filter="url(#f1oijfvpifuah8)" height="52.9766" style="stroke:#181818;stroke-width:1.0;" width="334" x="253" y="646.3711"/>
    <text class="text" textLength="314" x="263" y="669.9063">Register to be Disposed on Container Dispose</text>
    <text class="text" textLength="93" x="334" y="686.3945">if Implements</text>
    <text class="code" textLength="75" x="431" y="686.3945">Disposable</text>
    <rect fill="#F1F1F1" filter="url(#f1oijfvpifuah8)" height="52.9766" style="stroke:#181818;stroke-width:1.0;" width="299" x="270.5" y="719.3477"/>
    <text class="text" textLength="142" x="349" y="742.8828">Load Persistent State</text>
    <text class="text" textLength="93" x="280.5" y="759.3711">if Implements</text>
    <text class="code" textLength="182" x="377.5" y="759.3711">PersistentStateComponent</text>
    <polygon fill="#F1F1F1" filter="url(#f1oijfvpifuah8)" points="183.5,449.6621,359.5,449.6621,371.5,461.6621,359.5,473.6621,183.5,473.6621,171.5,461.6621,183.5,449.6621" style="stroke:#181818;stroke-width:1.0;"/>
    <text class="text" textLength="18" x="275.5" y="487.1973">no</text>
    <text class="text" textLength="176" x="183.5" y="466.9531">Is Created and Initialized?</text>
    <text class="text" textLength="22" x="371.5" y="458.709">yes</text>
    <polygon fill="#F1F1F1" filter="url(#f1oijfvpifuah8)" points="271.5,804.3242,283.5,816.3242,271.5,828.3242,259.5,816.3242,271.5,804.3242" style="stroke:#181818;stroke-width:1.0;"/>
    <rect fill="#F1F1F1" filter="url(#f1oijfvpifuah8)" height="36.4883" rx="12.5" ry="12.5" style="stroke:#181818;stroke-width:1.0;" width="251" x="980" y="413.1738"/>
    <text class="text" textLength="44" x="990" y="436.709">Throw</text>
    <text class="code" textLength="183" x="1038" y="436.709">ProcessCanceledException</text>
    <polygon fill="#F1F1F1" filter="url(#f1oijfvpifuah8)" points="600.5,328.9297,776.5,328.9297,788.5,340.9297,776.5,352.9297,600.5,352.9297,588.5,340.9297,600.5,328.9297" style="stroke:#181818;stroke-width:1.0;"/>
    <text class="text" textLength="18" x="692.5" y="366.4648">no</text>
    <text class="text" textLength="176" x="600.5" y="346.2207">Is Created and Initialized?</text>
    <text class="text" textLength="22" x="788.5" y="337.9766">yes</text>
    <polygon fill="#F1F1F1" filter="url(#f1oijfvpifuah8)" points="688.5,860.3242,700.5,872.3242,688.5,884.3242,676.5,872.3242,688.5,860.3242" style="stroke:#181818;stroke-width:1.0;"/>
    <rect fill="#F1F1F1" filter="url(#f1oijfvpifuah8)" height="36.4883" rx="12.5" ry="12.5" style="stroke:#181818;stroke-width:1.0;" width="127" x="625" y="904.3242"/>
    <text class="text" textLength="107" x="635" y="927.8594">Return Instance</text>
    <line style="stroke:#181818;stroke-width:1.0;" x1="688.5" x2="688.5" y1="180.1973" y2="206.4414"/>
    <polygon fill="#181818" points="684.5,196.4414,688.5,206.4414,692.5,196.4414,688.5,200.4414" style="stroke:#181818;stroke-width:1.0;"/>
    <line style="stroke:#181818;stroke-width:1.0;" x1="797" x2="809" y1="168.1973" y2="168.1973"/>
    <polygon fill="#181818" points="805,211.6855,809,221.6855,813,211.6855,809,215.6855" style="stroke:#181818;stroke-width:1.0;"/>
    <line style="stroke:#181818;stroke-width:1.0;" x1="809" x2="809" y1="168.1973" y2="264.9297"/>
    <line style="stroke:#181818;stroke-width:1.0;" x1="809" x2="688.5" y1="264.9297" y2="264.9297"/>
    <line style="stroke:#181818;stroke-width:1.0;" x1="688.5" x2="688.5" y1="264.9297" y2="284.9297"/>
    <polygon fill="#181818" points="684.5,274.9297,688.5,284.9297,692.5,274.9297,688.5,278.9297" style="stroke:#181818;stroke-width:1.0;"/>
    <line style="stroke:#181818;stroke-width:1.0;" x1="688.5" x2="688.5" y1="129.9531" y2="156.1973"/>
    <polygon fill="#181818" points="684.5,146.1973,688.5,156.1973,692.5,146.1973,688.5,150.1973" style="stroke:#181818;stroke-width:1.0;"/>
    <line style="stroke:#181818;stroke-width:1.0;" x1="751" x2="819" y1="117.9531" y2="117.9531"/>
    <polygon fill="#181818" points="815,205.6855,819,215.6855,823,205.6855,819,209.6855" style="stroke:#181818;stroke-width:1.0;"/>
    <line style="stroke:#181818;stroke-width:1.0;" x1="819" x2="819" y1="117.9531" y2="296.9297"/>
    <line style="stroke:#181818;stroke-width:1.0;" x1="819" x2="700.5" y1="296.9297" y2="296.9297"/>
    <polygon fill="#181818" points="710.5,292.9297,700.5,296.9297,710.5,300.9297,706.5,296.9297" style="stroke:#181818;stroke-width:1.0;"/>
    <line style="stroke:#181818;stroke-width:1.0;" x1="688.5" x2="688.5" y1="66.2207" y2="105.9531"/>
    <polygon fill="#181818" points="684.5,95.9531,688.5,105.9531,692.5,95.9531,688.5,99.9531" style="stroke:#181818;stroke-width:1.0;"/>
    <line style="stroke:#181818;stroke-width:1.0;" x1="420" x2="420" y1="610.127" y2="646.3711"/>
    <polygon fill="#181818" points="416,636.3711,420,646.3711,424,636.3711,420,640.3711" style="stroke:#181818;stroke-width:1.0;"/>
    <line style="stroke:#181818;stroke-width:1.0;" x1="420" x2="420" y1="699.3477" y2="719.3477"/>
    <polygon fill="#181818" points="416,709.3477,420,719.3477,424,709.3477,420,713.3477" style="stroke:#181818;stroke-width:1.0;"/>
    <line style="stroke:#181818;stroke-width:1.0;" x1="213" x2="123" y1="511.9063" y2="511.9063"/>
    <line style="stroke:#181818;stroke-width:1.0;" x1="123" x2="123" y1="511.9063" y2="533.9063"/>
    <polygon fill="#181818" points="119,523.9063,123,533.9063,127,523.9063,123,527.9063" style="stroke:#181818;stroke-width:1.0;"/>
    <line style="stroke:#181818;stroke-width:1.0;" x1="330" x2="420" y1="511.9063" y2="511.9063"/>
    <line style="stroke:#181818;stroke-width:1.0;" x1="420" x2="420" y1="511.9063" y2="573.6387"/>
    <polygon fill="#181818" points="416,563.6387,420,573.6387,424,563.6387,420,567.6387" style="stroke:#181818;stroke-width:1.0;"/>
    <line style="stroke:#181818;stroke-width:1.0;" x1="420" x2="420" y1="772.3242" y2="789.3242"/>
    <line style="stroke:#181818;stroke-width:1.0;" x1="420" x2="271.5" y1="789.3242" y2="789.3242"/>
    <line style="stroke:#181818;stroke-width:1.0;" x1="271.5" x2="271.5" y1="789.3242" y2="804.3242"/>
    <polygon fill="#181818" points="267.5,794.3242,271.5,804.3242,275.5,794.3242,271.5,798.3242" style="stroke:#181818;stroke-width:1.0;"/>
    <line style="stroke:#181818;stroke-width:1.0;" x1="271.5" x2="271.5" y1="473.6621" y2="499.9063"/>
    <polygon fill="#181818" points="267.5,489.9063,271.5,499.9063,275.5,489.9063,271.5,493.9063" style="stroke:#181818;stroke-width:1.0;"/>
    <line style="stroke:#181818;stroke-width:1.0;" x1="371.5" x2="938" y1="461.6621" y2="461.6621"/>
    <polygon fill="#181818" points="934,645.6152,938,655.6152,942,645.6152,938,649.6152" style="stroke:#181818;stroke-width:1.0;"/>
    <line style="stroke:#181818;stroke-width:1.0;" x1="938" x2="938" y1="461.6621" y2="816.3242"/>
    <line style="stroke:#181818;stroke-width:1.0;" x1="938" x2="283.5" y1="816.3242" y2="816.3242"/>
    <polygon fill="#181818" points="293.5,812.3242,283.5,816.3242,293.5,820.3242,289.5,816.3242" style="stroke:#181818;stroke-width:1.0;"/>
    <line style="stroke:#181818;stroke-width:1.0;" x1="609.5" x2="271.5" y1="391.1738" y2="391.1738"/>
    <line style="stroke:#181818;stroke-width:1.0;" x1="271.5" x2="271.5" y1="391.1738" y2="449.6621"/>
    <polygon fill="#181818" points="267.5,439.6621,271.5,449.6621,275.5,439.6621,271.5,443.6621" style="stroke:#181818;stroke-width:1.0;"/>
    <line style="stroke:#181818;stroke-width:1.0;" x1="767.5" x2="1105.5" y1="391.1738" y2="391.1738"/>
    <line style="stroke:#181818;stroke-width:1.0;" x1="1105.5" x2="1105.5" y1="391.1738" y2="413.1738"/>
    <polygon fill="#181818" points="1101.5,403.1738,1105.5,413.1738,1109.5,403.1738,1105.5,407.1738" style="stroke:#181818;stroke-width:1.0;"/>
    <line style="stroke:#181818;stroke-width:1.0;" x1="271.5" x2="271.5" y1="828.3242" y2="845.3242"/>
    <line style="stroke:#181818;stroke-width:1.0;" x1="271.5" x2="688.5" y1="845.3242" y2="845.3242"/>
    <line style="stroke:#181818;stroke-width:1.0;" x1="688.5" x2="688.5" y1="845.3242" y2="860.3242"/>
    <polygon fill="#181818" points="684.5,850.3242,688.5,860.3242,692.5,850.3242,688.5,854.3242" style="stroke:#181818;stroke-width:1.0;"/>
    <line style="stroke:#181818;stroke-width:1.0;" x1="688.5" x2="688.5" y1="352.9297" y2="379.1738"/>
    <polygon fill="#181818" points="684.5,369.1738,688.5,379.1738,692.5,369.1738,688.5,373.1738" style="stroke:#181818;stroke-width:1.0;"/>
    <line style="stroke:#181818;stroke-width:1.0;" x1="788.5" x2="1245" y1="340.9297" y2="340.9297"/>
    <polygon fill="#181818" points="1241,623.3711,1245,633.3711,1249,623.3711,1245,627.3711" style="stroke:#181818;stroke-width:1.0;"/>
    <line style="stroke:#181818;stroke-width:1.0;" x1="1245" x2="1245" y1="340.9297" y2="872.3242"/>
    <line style="stroke:#181818;stroke-width:1.0;" x1="1245" x2="700.5" y1="872.3242" y2="872.3242"/>
    <polygon fill="#181818" points="710.5,868.3242,700.5,872.3242,710.5,876.3242,706.5,872.3242" style="stroke:#181818;stroke-width:1.0;"/>
    <line style="stroke:#181818;stroke-width:1.0;" x1="688.5" x2="688.5" y1="308.9297" y2="328.9297"/>
    <polygon fill="#181818" points="684.5,318.9297,688.5,328.9297,692.5,318.9297,688.5,322.9297" style="stroke:#181818;stroke-width:1.0;"/>
    <line style="stroke:#181818;stroke-width:1.0;" x1="688.5" x2="688.5" y1="884.3242" y2="904.3242"/>
    <polygon fill="#181818" points="684.5,894.3242,688.5,904.3242,692.5,894.3242,688.5,898.3242" style="stroke:#181818;stroke-width:1.0;"/>
  </g>
</svg>
