<!-- Copyright 2000-2023 JetBrains s.r.o. and contributors. Use of this source code is governed by the Apache 2.0 license. -->
<svg xmlns="http://www.w3.org/2000/svg" contentStyleType="text/css" height="970px" preserveAspectRatio="none" style="width:998px;height:970px;background:#FFFFFF;" version="1.1" viewBox="0 0 998 970" width="998px" zoomAndPan="magnify">
  <style>
  @import url('https://fonts.googleapis.com/css?family=Roboto|Roboto+Mono&amp;display=swap');
  .text {
    font-family: 'Roboto', sans-serif;
    font-size: 14px;
  }
  .code {
    font-family: 'Roboto Mono', monospace;
    font-size: 14px;
  }
</style>
  <defs>
    <filter height="300%" id="f14pe4mlkrvjnh" width="300%" x="-1" y="-1">
      <feGaussianBlur result="blurOut" stdDeviation="2.0"/>
      <feColorMatrix in="blurOut" result="blurOut2" type="matrix" values="0 0 0 0 0 0 0 0 0 0 0 0 0 0 0 0 0 0 .4 0"/>
      <feOffset dx="4.0" dy="4.0" in="blurOut2" result="blurOut3"/>
      <feBlend in="SourceGraphic" in2="blurOut3" mode="normal"/>
    </filter>
    <style type="text/css">@import url('https://fonts.googleapis.com/css?family=Roboto:400,100,100italic,300,300italic,400italic,500,500italic,700,700italic,900,900italic');</style>
  </defs>
  <g>
    <path d="M388.25,16 L388.25,25.2441 L368.25,29.2441 L388.25,33.2441 L388.25,42.4883 A0,0 0 0 0 388.25,42.4883 L718.25,42.4883 A0,0 0 0 0 718.25,42.4883 L718.25,26 L708.25,16 L388.25,16 A0,0 0 0 0 388.25,16 " fill="#FAFAFA" filter="url(#f14pe4mlkrvjnh)" style="stroke:#181818;stroke-width:0.5;"/>
    <path d="M708.25,16 L708.25,26 L718.25,26 L708.25,16 " fill="#FAFAFA" style="stroke:#181818;stroke-width:0.5;"/>
    <text class="text" textLength="169" x="394.25" y="34.5352">Externally called method</text>
    <text class="code" textLength="136" x="567.25" y="34.5352">IconLoader.findIcon</text>
    <rect fill="#F1F1F1" filter="url(#f14pe4mlkrvjnh)" height="36.4883" rx="12.5" ry="12.5" style="stroke:#181818;stroke-width:1.0;" width="84" x="284.25" y="11"/>
    <text class="text" textLength="64" x="294.25" y="34.5352">find-icon</text>
    <path d="M407.25,64.2441 L407.25,81.7324 L387.25,85.7324 L407.25,89.7324 L407.25,107.2207 A0,0 0 0 0 407.25,107.2207 L986.25,107.2207 A0,0 0 0 0 986.25,107.2207 L986.25,74.2441 L976.25,64.2441 L407.25,64.2441 A0,0 0 0 0 407.25,64.2441 " fill="#FAFAFA" filter="url(#f14pe4mlkrvjnh)" style="stroke:#181818;stroke-width:0.5;"/>
    <path d="M976.25,64.2441 L976.25,74.2441 L986.25,74.2441 L976.25,64.2441 " fill="#FAFAFA" style="stroke:#181818;stroke-width:0.5;"/>
    <text class="text" textLength="165" x="413.25" y="82.7793">Internally called method</text>
    <text class="code" textLength="198" x="582.25" y="82.7793">CachedImageIcon.loadImage</text>
    <text class="text" textLength="4" x="780.25" y="82.7793">.</text>
    <text class="text" textLength="185" x="413.25" y="99.2676">Called numerous times per</text>
    <text class="code" textLength="122" x="602.25" y="99.2676">CachedImageIcon</text>
    <text class="text" textLength="243" x="728.25" y="99.2676">instance — to compute a new scale.</text>
    <rect fill="#F1F1F1" filter="url(#f14pe4mlkrvjnh)" height="36.4883" rx="12.5" ry="12.5" style="stroke:#181818;stroke-width:1.0;" width="122" x="265.25" y="67.4883"/>
    <text class="text" textLength="102" x="275.25" y="91.0234">find-icon-load</text>
    <polygon fill="#F1F1F1" filter="url(#f14pe4mlkrvjnh)" points="305.25,127.2207,347.25,127.2207,359.25,139.2207,347.25,151.2207,305.25,151.2207,293.25,139.2207,305.25,127.2207" style="stroke:#181818;stroke-width:1.0;"/>
    <text class="text" textLength="42" x="305.25" y="144.5117">Is SVG</text>
    <text class="text" textLength="22" x="271.25" y="136.2676">yes</text>
    <text class="text" textLength="18" x="359.25" y="136.2676">no</text>
    <rect fill="#F1F1F1" filter="url(#f14pe4mlkrvjnh)" height="36.4883" style="stroke:#181818;stroke-width:1.0;" width="81" x="234.25" y="161.2207"/>
    <text class="text" textLength="61" x="244.25" y="184.7559">svg-load</text>
    <rect fill="#F1F1F1" filter="url(#f14pe4mlkrvjnh)" height="36.4883" style="stroke:#181818;stroke-width:1.0;" width="85" x="335.25" y="161.2207"/>
    <text class="text" textLength="65" x="345.25" y="184.7559">png-load</text>
    <polygon fill="#F1F1F1" filter="url(#f14pe4mlkrvjnh)" points="326.25,203.709,338.25,215.709,326.25,227.709,314.25,215.709,326.25,203.709" style="stroke:#181818;stroke-width:1.0;"/>
    <polygon fill="#F1F1F1" filter="url(#f14pe4mlkrvjnh)" points="238.75,297.9531,413.75,297.9531,425.75,309.9531,413.75,321.9531,238.75,321.9531,226.75,309.9531,238.75,297.9531" style="stroke:#181818;stroke-width:1.0;"/>
    <text class="text" textLength="175" x="238.75" y="315.2441">Is resourceClass Provided</text>
    <text class="text" textLength="22" x="204.75" y="307">yes</text>
    <text class="text" textLength="18" x="425.75" y="307">no</text>
    <rect fill="#F1F1F1" filter="url(#f14pe4mlkrvjnh)" height="36.4883" style="stroke:#181818;stroke-width:1.0;" width="159" x="103.5" y="331.9531"/>
    <text class="text" textLength="139" x="113.5" y="355.4883">load-from-resource</text>
    <polygon fill="#F1F1F1" filter="url(#f14pe4mlkrvjnh)" points="89,388.4414,277,388.4414,289,400.4414,277,412.4414,89,412.4414,77,400.4414,89,388.4414" style="stroke:#181818;stroke-width:1.0;"/>
    <text class="text" textLength="188" x="89" y="405.7324">Is prebuiltCacheId Provided</text>
    <text class="text" textLength="22" x="55" y="397.4883">yes</text>
    <rect fill="#F1F1F1" filter="url(#f14pe4mlkrvjnh)" height="36.4883" style="stroke:#181818;stroke-width:1.0;" width="105" x="14.5" y="422.4414"/>
    <text class="text" textLength="85" x="24.5" y="445.9766">svg-prebuilt</text>
    <rect fill="#F1F1F1" filter="url(#f14pe4mlkrvjnh)" height="36.4883" rx="12.5" ry="12.5" style="stroke:#181818;stroke-width:1.0;" width="112" x="11" y="493.9297"/>
    <text class="text" textLength="92" x="21" y="517.4648">Return Image</text>
    <rect fill="#F1F1F1" filter="url(#f14pe4mlkrvjnh)" height="36.4883" rx="12.5" ry="12.5" style="stroke:#181818;stroke-width:1.0;" width="96" x="251" y="472.6855"/>
    <text class="text" textLength="46" x="261" y="496.2207">Return</text>
    <text class="code" textLength="26" x="311" y="496.2207">null</text>
    <polygon fill="#F1F1F1" filter="url(#f14pe4mlkrvjnh)" points="241.5,422.4414,356.5,422.4414,368.5,434.4414,356.5,446.4414,241.5,446.4414,229.5,434.4414,241.5,422.4414" style="stroke:#181818;stroke-width:1.0;"/>
    <text class="text" textLength="18" x="303" y="459.9766">no</text>
    <text class="text" textLength="115" x="241.5" y="439.7324">Is Resource Exist</text>
    <text class="text" textLength="22" x="368.5" y="431.4883">yes</text>
    <rect fill="#F1F1F1" filter="url(#f14pe4mlkrvjnh)" height="36.4883" style="stroke:#181818;stroke-width:1.0;" width="118" x="410.5" y="331.9531"/>
    <text class="text" textLength="98" x="420.5" y="355.4883">load-from-url</text>
    <polygon fill="#F1F1F1" filter="url(#f14pe4mlkrvjnh)" points="326.25,551.418,338.25,563.418,326.25,575.418,314.25,563.418,326.25,551.418" style="stroke:#181818;stroke-width:1.0;"/>
    <polygon fill="#F1F1F1" filter="url(#f14pe4mlkrvjnh)" points="305.25,601.918,347.25,601.918,359.25,613.918,347.25,625.918,305.25,625.918,293.25,613.918,305.25,601.918" style="stroke:#181818;stroke-width:1.0;"/>
    <text class="text" textLength="42" x="305.25" y="619.209">Is SVG</text>
    <text class="text" textLength="22" x="271.25" y="610.9648">yes</text>
    <text class="text" textLength="18" x="359.25" y="610.9648">no</text>
    <rect fill="#F1F1F1" filter="url(#f14pe4mlkrvjnh)" height="36.4883" style="stroke:#181818;stroke-width:1.0;" width="129" x="189.25" y="635.918"/>
    <text class="text" textLength="109" x="199.25" y="659.4531">svg-cache-read</text>
    <rect fill="#F1F1F1" filter="url(#f14pe4mlkrvjnh)" height="36.4883" style="stroke:#181818;stroke-width:1.0;" width="101" x="203.25" y="742.6504"/>
    <text class="text" textLength="81" x="213.25" y="766.1855">svg-decode</text>
    <polygon fill="#F1F1F1" filter="url(#f14pe4mlkrvjnh)" points="220.75,692.4063,286.75,692.4063,298.75,704.4063,286.75,716.4063,220.75,716.4063,208.75,704.4063,220.75,692.4063" style="stroke:#181818;stroke-width:1.0;"/>
    <text class="text" textLength="18" x="257.75" y="729.9414">no</text>
    <text class="text" textLength="66" x="220.75" y="709.6973">Is Cached</text>
    <text class="text" textLength="22" x="298.75" y="701.4531">yes</text>
    <polygon fill="#F1F1F1" filter="url(#f14pe4mlkrvjnh)" points="253.75,799.1387,265.75,811.1387,253.75,823.1387,241.75,811.1387,253.75,799.1387" style="stroke:#181818;stroke-width:1.0;"/>
    <rect fill="#F1F1F1" filter="url(#f14pe4mlkrvjnh)" height="36.4883" style="stroke:#181818;stroke-width:1.0;" width="105" x="346.25" y="635.918"/>
    <text class="text" textLength="85" x="356.25" y="659.4531">png-decode</text>
    <polygon fill="#F1F1F1" filter="url(#f14pe4mlkrvjnh)" points="326.25,829.1387,338.25,841.1387,326.25,853.1387,314.25,841.1387,326.25,829.1387" style="stroke:#181818;stroke-width:1.0;"/>
    <polygon fill="#F1F1F1" filter="url(#f14pe4mlkrvjnh)" points="293.25,247.709,359.25,247.709,371.25,259.709,359.25,271.709,293.25,271.709,281.25,259.709,293.25,247.709" style="stroke:#181818;stroke-width:1.0;"/>
    <text class="text" textLength="18" x="330.25" y="285.2441">no</text>
    <text class="text" textLength="66" x="293.25" y="265">Is Cached</text>
    <text class="text" textLength="22" x="371.25" y="256.7559">yes</text>
    <polygon fill="#F1F1F1" filter="url(#f14pe4mlkrvjnh)" points="326.25,873.1387,338.25,885.1387,326.25,897.1387,314.25,885.1387,326.25,873.1387" style="stroke:#181818;stroke-width:1.0;"/>
    <rect fill="#F1F1F1" filter="url(#f14pe4mlkrvjnh)" height="36.4883" rx="12.5" ry="12.5" style="stroke:#181818;stroke-width:1.0;" width="112" x="270.25" y="917.1387"/>
    <text class="text" textLength="92" x="280.25" y="940.6738">Return Image</text>
    <line style="stroke:#181818;stroke-width:1.0;" x1="326.25" x2="326.25" y1="47.4883" y2="67.4883"/>
    <polygon fill="#181818" points="322.25,57.4883,326.25,67.4883,330.25,57.4883,326.25,61.4883" style="stroke:#181818;stroke-width:1.0;"/>
    <line style="stroke:#181818;stroke-width:1.0;" x1="293.25" x2="274.75" y1="139.2207" y2="139.2207"/>
    <line style="stroke:#181818;stroke-width:1.0;" x1="274.75" x2="274.75" y1="139.2207" y2="161.2207"/>
    <polygon fill="#181818" points="270.75,151.2207,274.75,161.2207,278.75,151.2207,274.75,155.2207" style="stroke:#181818;stroke-width:1.0;"/>
    <line style="stroke:#181818;stroke-width:1.0;" x1="359.25" x2="377.75" y1="139.2207" y2="139.2207"/>
    <line style="stroke:#181818;stroke-width:1.0;" x1="377.75" x2="377.75" y1="139.2207" y2="161.2207"/>
    <polygon fill="#181818" points="373.75,151.2207,377.75,161.2207,381.75,151.2207,377.75,155.2207" style="stroke:#181818;stroke-width:1.0;"/>
    <line style="stroke:#181818;stroke-width:1.0;" x1="274.75" x2="274.75" y1="197.709" y2="215.709"/>
    <line style="stroke:#181818;stroke-width:1.0;" x1="274.75" x2="314.25" y1="215.709" y2="215.709"/>
    <polygon fill="#181818" points="304.25,211.709,314.25,215.709,304.25,219.709,308.25,215.709" style="stroke:#181818;stroke-width:1.0;"/>
    <line style="stroke:#181818;stroke-width:1.0;" x1="377.75" x2="377.75" y1="197.709" y2="215.709"/>
    <line style="stroke:#181818;stroke-width:1.0;" x1="377.75" x2="338.25" y1="215.709" y2="215.709"/>
    <polygon fill="#181818" points="348.25,211.709,338.25,215.709,348.25,219.709,344.25,215.709" style="stroke:#181818;stroke-width:1.0;"/>
    <line style="stroke:#181818;stroke-width:1.0;" x1="326.25" x2="326.25" y1="103.9766" y2="127.2207"/>
    <polygon fill="#181818" points="322.25,117.2207,326.25,127.2207,330.25,117.2207,326.25,121.2207" style="stroke:#181818;stroke-width:1.0;"/>
    <line style="stroke:#181818;stroke-width:1.0;" x1="67" x2="67" y1="458.9297" y2="493.9297"/>
    <polygon fill="#181818" points="63,483.9297,67,493.9297,71,483.9297,67,487.9297" style="stroke:#181818;stroke-width:1.0;"/>
    <line style="stroke:#181818;stroke-width:1.0;" x1="299" x2="299" y1="446.4414" y2="472.6855"/>
    <polygon fill="#181818" points="295,462.6855,299,472.6855,303,462.6855,299,466.6855" style="stroke:#181818;stroke-width:1.0;"/>
    <line style="stroke:#181818;stroke-width:1.0;" x1="368.5" x2="380.5" y1="434.4414" y2="434.4414"/>
    <polygon fill="#181818" points="376.5,480.9297,380.5,490.9297,384.5,480.9297,380.5,484.9297" style="stroke:#181818;stroke-width:1.0;"/>
    <line style="stroke:#181818;stroke-width:1.0;" x1="380.5" x2="380.5" y1="434.4414" y2="546.418"/>
    <line style="stroke:#181818;stroke-width:1.0;" x1="380.5" x2="183" y1="546.418" y2="546.418"/>
    <line style="stroke:#181818;stroke-width:1.0;" x1="183" x2="183" y1="546.418" y2="563.418"/>
    <line style="stroke:#181818;stroke-width:1.0;" x1="183" x2="314.25" y1="563.418" y2="563.418"/>
    <polygon fill="#181818" points="304.25,559.418,314.25,563.418,304.25,567.418,308.25,563.418" style="stroke:#181818;stroke-width:1.0;"/>
    <line style="stroke:#181818;stroke-width:1.0;" x1="77" x2="67" y1="400.4414" y2="400.4414"/>
    <line style="stroke:#181818;stroke-width:1.0;" x1="67" x2="67" y1="400.4414" y2="422.4414"/>
    <polygon fill="#181818" points="63,412.4414,67,422.4414,71,412.4414,67,416.4414" style="stroke:#181818;stroke-width:1.0;"/>
    <line style="stroke:#181818;stroke-width:1.0;" x1="289" x2="299" y1="400.4414" y2="400.4414"/>
    <line style="stroke:#181818;stroke-width:1.0;" x1="299" x2="299" y1="400.4414" y2="422.4414"/>
    <polygon fill="#181818" points="295,412.4414,299,422.4414,303,412.4414,299,416.4414" style="stroke:#181818;stroke-width:1.0;"/>
    <line style="stroke:#181818;stroke-width:1.0;" x1="183" x2="183" y1="368.4414" y2="388.4414"/>
    <polygon fill="#181818" points="179,378.4414,183,388.4414,187,378.4414,183,382.4414" style="stroke:#181818;stroke-width:1.0;"/>
    <line style="stroke:#181818;stroke-width:1.0;" x1="226.75" x2="183" y1="309.9531" y2="309.9531"/>
    <line style="stroke:#181818;stroke-width:1.0;" x1="183" x2="183" y1="309.9531" y2="331.9531"/>
    <polygon fill="#181818" points="179,321.9531,183,331.9531,187,321.9531,183,325.9531" style="stroke:#181818;stroke-width:1.0;"/>
    <line style="stroke:#181818;stroke-width:1.0;" x1="425.75" x2="469.5" y1="309.9531" y2="309.9531"/>
    <line style="stroke:#181818;stroke-width:1.0;" x1="469.5" x2="469.5" y1="309.9531" y2="331.9531"/>
    <polygon fill="#181818" points="465.5,321.9531,469.5,331.9531,473.5,321.9531,469.5,325.9531" style="stroke:#181818;stroke-width:1.0;"/>
    <line style="stroke:#181818;stroke-width:1.0;" x1="469.5" x2="469.5" y1="368.4414" y2="563.418"/>
    <line style="stroke:#181818;stroke-width:1.0;" x1="469.5" x2="338.25" y1="563.418" y2="563.418"/>
    <polygon fill="#181818" points="348.25,559.418,338.25,563.418,348.25,567.418,344.25,563.418" style="stroke:#181818;stroke-width:1.0;"/>
    <line style="stroke:#181818;stroke-width:1.0;" x1="253.75" x2="253.75" y1="716.4063" y2="742.6504"/>
    <polygon fill="#181818" points="249.75,732.6504,253.75,742.6504,257.75,732.6504,253.75,736.6504" style="stroke:#181818;stroke-width:1.0;"/>
    <line style="stroke:#181818;stroke-width:1.0;" x1="298.75" x2="314.25" y1="704.4063" y2="704.4063"/>
    <polygon fill="#181818" points="310.25,750.8945,314.25,760.8945,318.25,750.8945,314.25,754.8945" style="stroke:#181818;stroke-width:1.0;"/>
    <line style="stroke:#181818;stroke-width:1.0;" x1="314.25" x2="314.25" y1="704.4063" y2="811.1387"/>
    <line style="stroke:#181818;stroke-width:1.0;" x1="314.25" x2="265.75" y1="811.1387" y2="811.1387"/>
    <polygon fill="#181818" points="275.75,807.1387,265.75,811.1387,275.75,815.1387,271.75,811.1387" style="stroke:#181818;stroke-width:1.0;"/>
    <line style="stroke:#181818;stroke-width:1.0;" x1="253.75" x2="253.75" y1="779.1387" y2="799.1387"/>
    <polygon fill="#181818" points="249.75,789.1387,253.75,799.1387,257.75,789.1387,253.75,793.1387" style="stroke:#181818;stroke-width:1.0;"/>
    <line style="stroke:#181818;stroke-width:1.0;" x1="253.75" x2="253.75" y1="672.4063" y2="692.4063"/>
    <polygon fill="#181818" points="249.75,682.4063,253.75,692.4063,257.75,682.4063,253.75,686.4063" style="stroke:#181818;stroke-width:1.0;"/>
    <line style="stroke:#181818;stroke-width:1.0;" x1="293.25" x2="253.75" y1="613.918" y2="613.918"/>
    <line style="stroke:#181818;stroke-width:1.0;" x1="253.75" x2="253.75" y1="613.918" y2="635.918"/>
    <polygon fill="#181818" points="249.75,625.918,253.75,635.918,257.75,625.918,253.75,629.918" style="stroke:#181818;stroke-width:1.0;"/>
    <line style="stroke:#181818;stroke-width:1.0;" x1="359.25" x2="398.75" y1="613.918" y2="613.918"/>
    <line style="stroke:#181818;stroke-width:1.0;" x1="398.75" x2="398.75" y1="613.918" y2="635.918"/>
    <polygon fill="#181818" points="394.75,625.918,398.75,635.918,402.75,625.918,398.75,629.918" style="stroke:#181818;stroke-width:1.0;"/>
    <line style="stroke:#181818;stroke-width:1.0;" x1="253.75" x2="253.75" y1="823.1387" y2="841.1387"/>
    <line style="stroke:#181818;stroke-width:1.0;" x1="253.75" x2="314.25" y1="841.1387" y2="841.1387"/>
    <polygon fill="#181818" points="304.25,837.1387,314.25,841.1387,304.25,845.1387,308.25,841.1387" style="stroke:#181818;stroke-width:1.0;"/>
    <line style="stroke:#181818;stroke-width:1.0;" x1="398.75" x2="398.75" y1="672.4063" y2="841.1387"/>
    <line style="stroke:#181818;stroke-width:1.0;" x1="398.75" x2="338.25" y1="841.1387" y2="841.1387"/>
    <polygon fill="#181818" points="348.25,837.1387,338.25,841.1387,348.25,845.1387,344.25,841.1387" style="stroke:#181818;stroke-width:1.0;"/>
    <line style="stroke:#181818;stroke-width:1.0;" x1="326.25" x2="326.25" y1="575.418" y2="601.918"/>
    <polygon fill="#181818" points="322.25,591.918,326.25,601.918,330.25,591.918,326.25,595.918" style="stroke:#181818;stroke-width:1.0;"/>
    <line style="stroke:#181818;stroke-width:1.0;" x1="326.25" x2="326.25" y1="271.709" y2="297.9531"/>
    <polygon fill="#181818" points="322.25,287.9531,326.25,297.9531,330.25,287.9531,326.25,291.9531" style="stroke:#181818;stroke-width:1.0;"/>
    <line style="stroke:#181818;stroke-width:1.0;" x1="371.25" x2="548.5" y1="259.709" y2="259.709"/>
    <polygon fill="#181818" points="544.5,571.918,548.5,581.918,552.5,571.918,548.5,575.918" style="stroke:#181818;stroke-width:1.0;"/>
    <line style="stroke:#181818;stroke-width:1.0;" x1="548.5" x2="548.5" y1="259.709" y2="885.1387"/>
    <line style="stroke:#181818;stroke-width:1.0;" x1="548.5" x2="338.25" y1="885.1387" y2="885.1387"/>
    <polygon fill="#181818" points="348.25,881.1387,338.25,885.1387,348.25,889.1387,344.25,885.1387" style="stroke:#181818;stroke-width:1.0;"/>
    <line style="stroke:#181818;stroke-width:1.0;" x1="326.25" x2="326.25" y1="853.1387" y2="873.1387"/>
    <polygon fill="#181818" points="322.25,863.1387,326.25,873.1387,330.25,863.1387,326.25,867.1387" style="stroke:#181818;stroke-width:1.0;"/>
    <line style="stroke:#181818;stroke-width:1.0;" x1="326.25" x2="326.25" y1="227.709" y2="247.709"/>
    <polygon fill="#181818" points="322.25,237.709,326.25,247.709,330.25,237.709,326.25,241.709" style="stroke:#181818;stroke-width:1.0;"/>
    <line style="stroke:#181818;stroke-width:1.0;" x1="326.25" x2="326.25" y1="897.1387" y2="917.1387"/>
    <polygon fill="#181818" points="322.25,907.1387,326.25,917.1387,330.25,907.1387,326.25,911.1387" style="stroke:#181818;stroke-width:1.0;"/>
  </g>
</svg>
