<svg width="16" height="16" viewBox="0 0 16 16" fill="none" xmlns="http://www.w3.org/2000/svg">
<path fill-rule="evenodd" clip-rule="evenodd" d="M6.68017 12.0708L13.7512 4.99977L11.8228 3.0713L6.68017 8.21389L4.10887 5.64259L2.1804 7.57107L6.68017 12.0708Z" fill="#499C54"/>
<path fill-rule="evenodd" clip-rule="evenodd" d="M2.70711 15.0142L2 14.3071L4.70711 11.6L5.41421 12.3071L2.70711 15.0142Z" fill="#C75450"/>
<path fill-rule="evenodd" clip-rule="evenodd" d="M4 12.3071L4.70711 11.6L7.41421 14.3071L6.70711 15.0142L4 12.3071Z" fill="#C75450"/>
<path fill-rule="evenodd" clip-rule="evenodd" d="M6.70711 15.0142L6 14.3071L8.70711 11.6L9.41421 12.3071L6.70711 15.0142Z" fill="#C75450"/>
<path fill-rule="evenodd" clip-rule="evenodd" d="M8 12.3071L8.70711 11.6L11.4142 14.3071L10.7071 15.0142L8 12.3071Z" fill="#C75450"/>
<path fill-rule="evenodd" clip-rule="evenodd" d="M10.7071 15.0142L10 14.3071L12.7071 11.6L13.4142 12.3071L10.7071 15.0142Z" fill="#C75450"/>
</svg>
