<svg width="16" height="16" viewBox="0 0 16 16" fill="none" xmlns="http://www.w3.org/2000/svg">
    <path d="M11.2375 2.51381C11.2546 2.51328 11.2729 2.51267 11.2911 2.51207C11.325 2.51096 11.3586 2.50985 11.3845 2.50924L11.3865 2.50918C12.0809 2.4899 12.7757 2.501 13.469 2.54244C13.4778 2.71486 13.4867 2.93495 13.4927 3.19413C13.5084 3.87028 13.5041 4.80948 13.4242 5.86077C13.2628 7.98462 12.7984 10.4803 11.6398 12.2143L11.6389 12.2157C11.4596 12.486 11.2575 12.7405 11.0349 12.9765C9.06104 15.054 5.58398 15.0133 3.31159 12.8135C1.04386 10.6181 0.903969 7.16603 2.9004 5.10326C3.60123 4.4178 4.43928 3.88843 5.35945 3.55002L5.3595 3.55015L5.37034 3.54587C5.41915 3.52661 5.4766 3.50615 5.53195 3.48644C5.5651 3.47463 5.5975 3.46309 5.62684 3.45223L5.62692 3.45221C7.45076 2.7773 9.54826 2.56596 11.2375 2.51381ZM11.2375 2.51381L11.2221 2.01404M11.2375 2.51381L11.2221 2.01404M11.2221 2.01404C11.2367 2.01359 11.2535 2.01304 11.271 2.01246C11.3064 2.0113 11.3446 2.01004 11.3726 2.00937L13.9403 2.07374C13.9403 2.07374 14.5219 8.80075 12.0555 12.4921C11.8604 12.7863 11.6404 13.0633 11.3981 13.3202C9.20719 15.627 5.40829 15.5391 2.96382 13.1727C0.519352 10.8063 0.330475 7.03384 2.54592 4.75058C3.29819 4.01345 4.19833 3.4443 5.18686 3.08075C5.24202 3.05899 5.31762 3.032 5.3786 3.01023C5.40838 2.9996 5.43467 2.99021 5.45339 2.98328C7.35228 2.28061 9.51301 2.06681 11.2221 2.01404Z" fill="#EFE5FF" stroke="#834DF0"/>
    <path d="M5.33959 7.1012C4.42275 8.0461 4.50092 9.60729 5.51254 10.5866C6.52416 11.5659 8.0963 11.6023 9.00299 10.6476C9.10327 10.5414 9.19429 10.4267 9.27506 10.305" stroke="#834DF0" stroke-linecap="round"/>
</svg>
