<svg width="40" height="40" viewBox="0 0 40 40" fill="none" xmlns="http://www.w3.org/2000/svg">
  <path fill-rule="evenodd" clip-rule="evenodd" d="M34 5H6C3.79086 5 2 6.79086 2 9V11V13V31C2 33.2091 3.79086 35 6 35H34C36.2091 35 38 33.2091 38 31V13V11V9C38 6.79086 36.2091 5 34 5ZM36 11V9C36 7.89543 35.1046 7 34 7H6C4.89543 7 4 7.89543 4 9V11H36ZM4 13V31C4 32.1046 4.89543 33 6 33H34C35.1046 33 36 32.1046 36 31V13H4Z" fill="#E66D17"/>
  <path fill-rule="evenodd" clip-rule="evenodd" d="M10 22C9.44772 22 9 22.4477 9 23C9 23.5523 9.44772 24 10 24H15C15.5523 24 16 23.5523 16 23C16 22.4477 15.5523 22 15 22H10ZM25 22C24.4477 22 24 22.4477 24 23C24 23.5523 24.4477 24 25 24H30C30.5523 24 31 23.5523 31 23C31 22.4477 30.5523 22 30 22H25Z" fill="#E66D17"/>
  <path fill-rule="evenodd" clip-rule="evenodd" d="M25 23C25 25.7614 22.7614 28 20 28C17.2386 28 15 25.7614 15 23C15 20.2386 17.2386 18 20 18C22.7614 18 25 20.2386 25 23ZM20 26C21.6569 26 23 24.6569 23 23C23 21.3431 21.6569 20 20 20C18.3431 20 17 21.3431 17 23C17 24.6569 18.3431 26 20 26Z" fill="#E66D17"/>
</svg>
