<svg width="20" height="20" viewBox="0 0 20 20" fill="none" xmlns="http://www.w3.org/2000/svg">
<g clip-path="url(#clip0_2132_144159)">
<mask id="mask0_2132_144159" style="mask-type:alpha" maskUnits="userSpaceOnUse" x="1" y="1" width="18" height="18">
<path fill-rule="evenodd" clip-rule="evenodd" d="M13.4827 18.2228C13.7452 18.325 14.0445 18.3185 14.3095 18.191L17.7409 16.5399C18.1014 16.3664 18.3307 16.0014 18.3307 15.6011V4.40546C18.3307 4.00513 18.1014 3.64021 17.7409 3.46671L14.3095 1.81554C13.9618 1.64822 13.5548 1.6892 13.2496 1.91107C13.2061 1.94276 13.1645 1.97815 13.1256 2.01715L6.55658 8.01016L3.69526 5.83818C3.4289 5.636 3.05633 5.65256 2.80895 5.8776L1.89123 6.7124C1.58864 6.98765 1.58829 7.4637 1.89048 7.73941L4.37191 10.0033L1.89048 12.2671C1.58829 12.5428 1.58864 13.0189 1.89123 13.2941L2.80895 14.1289C3.05633 14.354 3.4289 14.3705 3.69526 14.1683L6.55658 11.9964L13.1256 17.9894C13.2295 18.0933 13.3515 18.1716 13.4827 18.2228ZM14.1666 6.21973L9.18225 10.0033L14.1666 13.7868V6.21973Z" fill="white"/>
</mask>
<g mask="url(#mask0_2132_144159)">
<path d="M17.7433 3.46914L14.3092 1.8157C13.9117 1.62431 13.4367 1.70504 13.1247 2.017L1.88281 12.267C1.58043 12.5427 1.58078 13.0187 1.88356 13.294L2.80183 14.1288C3.04937 14.3538 3.42216 14.3704 3.68868 14.1682L17.2265 3.89809C17.6807 3.55354 18.333 3.87747 18.333 4.44756V4.40769C18.333 4.00752 18.1038 3.64274 17.7433 3.46914Z" fill="#0065A9"/>
<g filter="url(#filter0_d_2132_144159)">
<path d="M17.7433 16.5355L14.3092 18.189C13.9117 18.3804 13.4367 18.2996 13.1247 17.9877L1.88281 7.73773C1.58043 7.46203 1.58078 6.98596 1.88356 6.71071L2.80183 5.87591C3.04937 5.65088 3.42216 5.63431 3.68868 5.8365L17.2265 16.1066C17.6807 16.4511 18.333 16.1272 18.333 15.5571V15.597C18.333 15.9972 18.1038 16.3619 17.7433 16.5355Z" fill="#007ACC"/>
</g>
<g filter="url(#filter1_d_2132_144159)">
<path d="M14.3096 18.191C13.912 18.3823 13.437 18.3013 13.125 17.9894C13.5094 18.3738 14.1667 18.1015 14.1667 17.5579V2.44862C14.1667 1.905 13.5094 1.63275 13.125 2.01715C13.437 1.70517 13.912 1.62432 14.3096 1.81554L17.7431 3.46672C18.1039 3.64022 18.3333 4.00513 18.3333 4.40547V15.6011C18.3333 16.0014 18.1039 16.3664 17.7431 16.5399L14.3096 18.191Z" fill="#1F9CF0"/>
</g>
<g style="mix-blend-mode:overlay" opacity="0.25">
<path fill-rule="evenodd" clip-rule="evenodd" d="M13.4749 18.2228C13.7374 18.325 14.0367 18.3185 14.3017 18.191L17.733 16.5399C18.0936 16.3664 18.3229 16.0015 18.3229 15.6011V4.40547C18.3229 4.00512 18.0936 3.64021 17.7331 3.46671L14.3017 1.81554C13.954 1.64822 13.547 1.68921 13.2418 1.91107C13.1982 1.94276 13.1567 1.97815 13.1177 2.01715L6.54876 8.01016L3.68745 5.83819C3.4211 5.63599 3.04852 5.65257 2.80114 5.87759L1.88342 6.71239C1.58082 6.98766 1.58048 7.46371 1.88267 7.73941L4.3641 10.0033L1.88267 12.2671C1.58048 12.5428 1.58082 13.0189 1.88342 13.2941L2.80114 14.1289C3.04852 14.354 3.4211 14.3705 3.68745 14.1683L6.54876 11.9964L13.1177 17.9894C13.2217 18.0933 13.3437 18.1717 13.4749 18.2228ZM14.1588 6.21974L9.17443 10.0033L14.1588 13.7868V6.21974Z" fill="url(#paint0_linear_2132_144159)"/>
</g>
</g>
</g>
<defs>
<filter id="filter0_d_2132_144159" x="0.26736" y="4.30642" width="19.4536" height="15.3735" filterUnits="userSpaceOnUse" color-interpolation-filters="sRGB">
<feFlood flood-opacity="0" result="BackgroundImageFix"/>
<feColorMatrix in="SourceAlpha" type="matrix" values="0 0 0 0 0 0 0 0 0 0 0 0 0 0 0 0 0 0 127 0" result="hardAlpha"/>
<feOffset/>
<feGaussianBlur stdDeviation="0.694445"/>
<feColorMatrix type="matrix" values="0 0 0 0 0 0 0 0 0 0 0 0 0 0 0 0 0 0 0.25 0"/>
<feBlend mode="overlay" in2="BackgroundImageFix" result="effect1_dropShadow_2132_144159"/>
<feBlend mode="normal" in="SourceGraphic" in2="effect1_dropShadow_2132_144159" result="shape"/>
</filter>
<filter id="filter1_d_2132_144159" x="11.7361" y="0.324001" width="7.98481" height="19.3579" filterUnits="userSpaceOnUse" color-interpolation-filters="sRGB">
<feFlood flood-opacity="0" result="BackgroundImageFix"/>
<feColorMatrix in="SourceAlpha" type="matrix" values="0 0 0 0 0 0 0 0 0 0 0 0 0 0 0 0 0 0 127 0" result="hardAlpha"/>
<feOffset/>
<feGaussianBlur stdDeviation="0.694445"/>
<feColorMatrix type="matrix" values="0 0 0 0 0 0 0 0 0 0 0 0 0 0 0 0 0 0 0.25 0"/>
<feBlend mode="overlay" in2="BackgroundImageFix" result="effect1_dropShadow_2132_144159"/>
<feBlend mode="normal" in="SourceGraphic" in2="effect1_dropShadow_2132_144159" result="shape"/>
</filter>
<linearGradient id="paint0_linear_2132_144159" x1="9.98958" y1="1.71289" x2="9.98958" y2="18.2936" gradientUnits="userSpaceOnUse">
<stop stop-color="white"/>
<stop offset="1" stop-color="white" stop-opacity="0"/>
</linearGradient>
<clipPath id="clip0_2132_144159">
<rect width="16.6667" height="16.6667" fill="white" transform="translate(1.66797 1.66602)"/>
</clipPath>
</defs>
</svg>
