<svg width="24" height="24" viewBox="0 0 24 24" fill="none" xmlns="http://www.w3.org/2000/svg">
<g clip-path="url(#clip0_2132_144146)">
<mask id="mask0_2132_144146" style="mask-type:alpha" maskUnits="userSpaceOnUse" x="2" y="2" width="20" height="20">
<path fill-rule="evenodd" clip-rule="evenodd" d="M16.1824 21.8626C16.4974 21.9853 16.8566 21.9775 17.1745 21.8245L21.2922 19.8432C21.7248 19.635 22 19.197 22 18.7166V5.28187C22 4.80147 21.7249 4.36357 21.2922 4.15537L17.1745 2.17396C16.7572 1.97318 16.2689 2.02236 15.9027 2.2886C15.8504 2.32663 15.8006 2.36909 15.7538 2.41589L7.87102 9.60751L4.43744 7.00113C4.1178 6.75851 3.67073 6.77839 3.37387 7.04843L2.27261 8.05019C1.90949 8.38049 1.90907 8.95175 2.27171 9.28261L5.24942 11.9992L2.27171 14.7158C1.90907 15.0467 1.90949 15.618 2.27261 15.9483L3.37387 16.95C3.67073 17.2201 4.1178 17.2399 4.43744 16.9973L7.87102 14.3909L15.7538 21.5826C15.8785 21.7073 16.0249 21.8013 16.1824 21.8626ZM17.003 7.45899L11.0218 11.9992L17.003 16.5394V7.45899Z" fill="white"/>
</mask>
<g mask="url(#mask0_2132_144146)">
<path d="M21.2927 4.15828L17.1718 2.17415C16.6948 1.94449 16.1248 2.04136 15.7504 2.41571L2.26015 14.7157C1.8973 15.0465 1.89772 15.6178 2.26105 15.9481L3.36298 16.9498C3.66002 17.2199 4.10738 17.2398 4.4272 16.9971L20.6726 4.67302C21.2176 4.25956 22.0004 4.64828 22.0004 5.33238V5.28454C22.0004 4.80434 21.7254 4.3666 21.2927 4.15828Z" fill="#0065A9"/>
<g filter="url(#filter0_d_2132_144146)">
<path d="M21.2927 19.8403L17.1718 21.8245C16.6948 22.0542 16.1248 21.9572 15.7504 21.5829L2.26015 9.28293C1.8973 8.95209 1.89772 8.38081 2.26105 8.05051L3.36298 7.04875C3.66002 6.77871 4.10738 6.75883 4.4272 7.00145L20.6726 19.3256C21.2176 19.739 22.0004 19.3503 22.0004 18.6662V18.7141C22.0004 19.1943 21.7254 19.632 21.2927 19.8403Z" fill="#007ACC"/>
</g>
<g filter="url(#filter1_d_2132_144146)">
<path d="M17.1716 21.8245C16.6944 22.054 16.1244 21.9569 15.75 21.5826C16.2113 22.0438 17 21.7171 17 21.0648V2.93366C17 2.28131 16.2113 1.95461 15.75 2.41589C16.1244 2.04151 16.6944 1.9445 17.1716 2.17396L21.2917 4.15537C21.7247 4.36357 22 4.80147 22 5.28187V18.7167C22 19.1971 21.7247 19.635 21.2917 19.8432L17.1716 21.8245Z" fill="#1F9CF0"/>
</g>
<g style="mix-blend-mode:overlay" opacity="0.25">
<path fill-rule="evenodd" clip-rule="evenodd" d="M16.1707 21.8626C16.4857 21.9853 16.8449 21.9775 17.1628 21.8245L21.2804 19.8432C21.7131 19.635 21.9883 19.1971 21.9883 18.7166V5.28188C21.9883 4.80146 21.7131 4.36356 21.2805 4.15536L17.1628 2.17396C16.7455 1.97318 16.2572 2.02236 15.891 2.28859C15.8387 2.32663 15.7888 2.36909 15.7421 2.41589L7.8593 9.6075L4.42572 7.00114C4.1061 6.7585 3.65901 6.7784 3.36215 7.04842L2.26089 8.05018C1.89777 8.3805 1.89735 8.95176 2.25999 9.2826L5.2377 11.9992L2.25999 14.7159C1.89735 15.0467 1.89777 15.618 2.26089 15.9483L3.36215 16.95C3.65901 17.2201 4.1061 17.2399 4.42572 16.9973L7.8593 14.3909L15.7421 21.5826C15.8668 21.7073 16.0132 21.8013 16.1707 21.8626ZM16.9913 7.459L11.0101 11.9992L16.9913 16.5395V7.459Z" fill="url(#paint0_linear_2132_144146)"/>
</g>
</g>
</g>
<defs>
<filter id="filter0_d_2132_144146" x="0.321613" y="5.16536" width="23.3451" height="18.4486" filterUnits="userSpaceOnUse" color-interpolation-filters="sRGB">
<feFlood flood-opacity="0" result="BackgroundImageFix"/>
<feColorMatrix in="SourceAlpha" type="matrix" values="0 0 0 0 0 0 0 0 0 0 0 0 0 0 0 0 0 0 127 0" result="hardAlpha"/>
<feOffset/>
<feGaussianBlur stdDeviation="0.833334"/>
<feColorMatrix type="matrix" values="0 0 0 0 0 0 0 0 0 0 0 0 0 0 0 0 0 0 0.25 0"/>
<feBlend mode="overlay" in2="BackgroundImageFix" result="effect1_dropShadow_2132_144146"/>
<feBlend mode="normal" in="SourceGraphic" in2="effect1_dropShadow_2132_144146" result="shape"/>
</filter>
<filter id="filter1_d_2132_144146" x="14.0833" y="0.384113" width="9.58334" height="23.2298" filterUnits="userSpaceOnUse" color-interpolation-filters="sRGB">
<feFlood flood-opacity="0" result="BackgroundImageFix"/>
<feColorMatrix in="SourceAlpha" type="matrix" values="0 0 0 0 0 0 0 0 0 0 0 0 0 0 0 0 0 0 127 0" result="hardAlpha"/>
<feOffset/>
<feGaussianBlur stdDeviation="0.833334"/>
<feColorMatrix type="matrix" values="0 0 0 0 0 0 0 0 0 0 0 0 0 0 0 0 0 0 0.25 0"/>
<feBlend mode="overlay" in2="BackgroundImageFix" result="effect1_dropShadow_2132_144146"/>
<feBlend mode="normal" in="SourceGraphic" in2="effect1_dropShadow_2132_144146" result="shape"/>
</filter>
<linearGradient id="paint0_linear_2132_144146" x1="11.9883" y1="2.05078" x2="11.9883" y2="21.9477" gradientUnits="userSpaceOnUse">
<stop stop-color="white"/>
<stop offset="1" stop-color="white" stop-opacity="0"/>
</linearGradient>
<clipPath id="clip0_2132_144146">
<rect width="20" height="20" fill="white" transform="translate(2 2)"/>
</clipPath>
</defs>
</svg>
