<svg width="48" height="48" viewBox="0 0 48 48" fill="none" xmlns="http://www.w3.org/2000/svg">
<g clip-path="url(#clip0_2132_144133)">
<mask id="mask0_2132_144133" style="mask-type:alpha" maskUnits="userSpaceOnUse" x="4" y="4" width="40" height="40">
<path fill-rule="evenodd" clip-rule="evenodd" d="M32.3648 43.7311C32.9948 43.9766 33.7131 43.9608 34.349 43.6548L42.5843 39.6922C43.4497 39.2758 44 38.4 44 37.4392V10.5696C44 9.60879 43.4497 8.73299 42.5844 8.31659L34.349 4.35377C33.5145 3.95222 32.5378 4.05058 31.8054 4.58305C31.7008 4.65912 31.6011 4.74404 31.5076 4.83764L15.742 19.2209L8.87488 14.0081C8.2356 13.5229 7.34145 13.5626 6.74773 14.1027L4.54521 16.1062C3.81898 16.7668 3.81815 17.9094 4.54341 18.5711L10.4988 24.0043L4.54341 29.4376C3.81815 30.0992 3.81898 31.2418 4.54521 31.9024L6.74773 33.9059C7.34145 34.446 8.2356 34.4858 8.87488 34.0005L15.742 28.7878L31.5076 43.171C31.757 43.4205 32.0498 43.6084 32.3648 43.7311ZM34.0061 14.9238L22.0436 24.0043L34.0061 33.0848V14.9238Z" fill="white"/>
</mask>
<g mask="url(#mask0_2132_144133)">
<path d="M42.5854 8.32242L34.3436 4.35416C33.3896 3.89483 32.2496 4.08859 31.5009 4.83727L4.52031 29.4372C3.7946 30.0989 3.79543 31.2414 4.52211 31.902L6.72596 33.9055C7.32005 34.4456 8.21475 34.4854 8.85439 34.0001L41.3452 9.3519C42.4353 8.52498 44.0009 9.30242 44.0009 10.6706V10.5749C44.0009 9.61454 43.4507 8.73906 42.5854 8.32242Z" fill="#0065A9"/>
<g filter="url(#filter0_d_2132_144133)">
<path d="M42.5854 39.6845L34.3436 43.6528C33.3896 44.1122 32.2496 43.9184 31.5009 43.1697L4.52031 18.5698C3.7946 17.9081 3.79543 16.7655 4.52211 16.1049L6.72596 14.1014C7.32005 13.5613 8.21475 13.5216 8.85439 14.0068L41.3452 38.6551C42.4353 39.482 44.0009 38.7045 44.0009 37.3364V37.4321C44.0009 38.3924 43.4507 39.2679 42.5854 39.6845Z" fill="#007ACC"/>
</g>
<g filter="url(#filter1_d_2132_144133)">
<path d="M34.3431 43.6548C33.3888 44.1139 32.2488 43.9197 31.5 43.171C32.4226 44.0935 34 43.4401 34 42.1354V5.87317C34 4.56848 32.4226 3.91508 31.5 4.83764C32.2488 4.08888 33.3888 3.89486 34.3431 4.35377L42.5835 8.3166C43.4494 8.733 44 9.6088 44 10.5696V37.4392C44 38.4 43.4494 39.2758 42.5834 39.6922L34.3431 43.6548Z" fill="#1F9CF0"/>
</g>
<g style="mix-blend-mode:overlay" opacity="0.25">
<path fill-rule="evenodd" clip-rule="evenodd" d="M32.3413 43.7311C32.9713 43.9765 33.6897 43.9608 34.3256 43.6549L42.5609 39.6922C43.4262 39.2758 43.9766 38.4 43.9766 37.4391V10.5696C43.9766 9.60878 43.4263 8.73298 42.5609 8.31658L34.3256 4.35377C33.4911 3.95222 32.5144 4.05058 31.782 4.58305C31.6774 4.65912 31.5777 4.74404 31.4842 4.83764L15.7186 19.2209L8.85143 14.0081C8.21219 13.5229 7.31802 13.5627 6.7243 14.1027L4.52178 16.1062C3.79554 16.7669 3.79471 17.9094 4.51998 18.5711L10.4754 24.0043L4.51998 29.4376C3.79471 30.0993 3.79554 31.2418 4.52178 31.9024L6.7243 33.9059C7.31802 34.446 8.21219 34.4857 8.85143 34.0005L15.7186 28.7877L31.4842 43.171C31.7336 43.4205 32.0264 43.6085 32.3413 43.7311ZM33.9826 14.9239L22.0202 24.0043L33.9826 33.0848V14.9239Z" fill="url(#paint0_linear_2132_144133)"/>
</g>
</g>
</g>
<defs>
<filter id="filter0_d_2132_144133" x="0.643227" y="10.3346" width="46.6901" height="36.8991" filterUnits="userSpaceOnUse" color-interpolation-filters="sRGB">
<feFlood flood-opacity="0" result="BackgroundImageFix"/>
<feColorMatrix in="SourceAlpha" type="matrix" values="0 0 0 0 0 0 0 0 0 0 0 0 0 0 0 0 0 0 127 0" result="hardAlpha"/>
<feOffset/>
<feGaussianBlur stdDeviation="1.66667"/>
<feColorMatrix type="matrix" values="0 0 0 0 0 0 0 0 0 0 0 0 0 0 0 0 0 0 0.25 0"/>
<feBlend mode="overlay" in2="BackgroundImageFix" result="effect1_dropShadow_2132_144133"/>
<feBlend mode="normal" in="SourceGraphic" in2="effect1_dropShadow_2132_144133" result="shape"/>
</filter>
<filter id="filter1_d_2132_144133" x="28.1667" y="0.774086" width="19.1667" height="46.4596" filterUnits="userSpaceOnUse" color-interpolation-filters="sRGB">
<feFlood flood-opacity="0" result="BackgroundImageFix"/>
<feColorMatrix in="SourceAlpha" type="matrix" values="0 0 0 0 0 0 0 0 0 0 0 0 0 0 0 0 0 0 127 0" result="hardAlpha"/>
<feOffset/>
<feGaussianBlur stdDeviation="1.66667"/>
<feColorMatrix type="matrix" values="0 0 0 0 0 0 0 0 0 0 0 0 0 0 0 0 0 0 0.25 0"/>
<feBlend mode="overlay" in2="BackgroundImageFix" result="effect1_dropShadow_2132_144133"/>
<feBlend mode="normal" in="SourceGraphic" in2="effect1_dropShadow_2132_144133" result="shape"/>
</filter>
<linearGradient id="paint0_linear_2132_144133" x1="23.9766" y1="4.10742" x2="23.9766" y2="43.9012" gradientUnits="userSpaceOnUse">
<stop stop-color="white"/>
<stop offset="1" stop-color="white" stop-opacity="0"/>
</linearGradient>
<clipPath id="clip0_2132_144133">
<rect width="40" height="40" fill="white" transform="translate(4 4)"/>
</clipPath>
</defs>
</svg>
