<svg fill="none" width="40" height="40" viewBox="0 0 40 40" xmlns="http://www.w3.org/2000/svg">
  <defs>
    <mask id="cutout-mask">
      <rect width="16" height="16" fill="#fff"/>
      <g stroke="#000" stroke-linecap="round" stroke-linejoin="round" stroke-width="3">
        <path d="m9.05 12c0.232-1.14 1.24-2 2.45-2h2c0.276 0 0.5 0.224 0.5 0.5v0.5h1.5c0.276 0 0.5 0.224 0.5 0.5s-0.224 0.5-0.5 0.5h-1.5v2h1.5c0.276 0 0.5 0.224 0.5 0.5s-0.224 0.5-0.5 0.5h-1.5v0.5c0 0.276-0.224 0.5-0.5 0.5h-2c-1.21 0-2.22-0.859-2.45-2h-0.55c-0.276 0-0.5-0.224-0.5-0.5v-1c0-0.276 0.224-0.5 0.5-0.5zm0.95 1.5v-1c0-0.828 0.672-1.5 1.5-1.5h1.5v4h-1.5c-0.828 0-1.5-0.672-1.5-1.5z" fill="#000" stroke="#000"/>
      </g>
    </mask>
  </defs>
  <g transform="matrix(2.43 0 0 2.43 -1.86 -1.86)" mask="url(#cutout-mask)">
    <path d="m2 13.5c0-0.276 0.224-0.5 0.5-0.5h11c0.276 0 0.5 0.224 0.5 0.5s-0.224 0.5-0.5 0.5h-11c-0.276 0-0.5-0.224-0.5-0.5z" fill="#CED0D6"/>
    <path d="m13.5 4v6c0 0.828-0.672 1.5-1.5 1.5h-8c-0.828 0-1.5-0.672-1.5-1.5v-6c0-0.828 0.672-1.5 1.5-1.5h8c0.828 0 1.5 0.672 1.5 1.5z" fill="#43454A" stroke="#CED0D6"/>
  </g>
  <g transform="matrix(2.43 0 0 2.43 -1.86 -1.86)">
    <path d="m9.05 12c0.232-1.14 1.24-2 2.45-2h2c0.276 0 0.5 0.224 0.5 0.5v0.5h1.5c0.276 0 0.5 0.224 0.5 0.5s-0.224 0.5-0.5 0.5h-1.5v2h1.5c0.276 0 0.5 0.224 0.5 0.5s-0.224 0.5-0.5 0.5h-1.5v0.5c0 0.276-0.224 0.5-0.5 0.5h-2c-1.21 0-2.22-0.859-2.45-2h-0.55c-0.276 0-0.5-0.224-0.5-0.5v-1c0-0.276 0.224-0.5 0.5-0.5zm0.95 1.5v-1c0-0.828 0.672-1.5 1.5-1.5h1.5v4h-1.5c-0.828 0-1.5-0.672-1.5-1.5z" clip-rule="evenodd" fill="#548AF7" fill-rule="evenodd"/>
  </g>
</svg>
