<!-- Copyright 2000-2024 JetBrains s.r.o. and contributors. Use of this source code is governed by the Apache 2.0 license. -->
<svg viewBox="0 0 68 74" fill="none" xmlns="http://www.w3.org/2000/svg"><path fill-rule="evenodd" clip-rule="evenodd" d="M35.999 2.663a5.01 5.01 0 0 0-4.998 0l-26.5 15.253a4.994 4.994 0 0 0-1.198.962l11.108 6.366c.268-.29.58-.54.931-.744l16.156-9.342a4 4 0 0 1 4.004 0L51.657 24.5c.351.203.664.455.932.744l11.108-6.366a4.991 4.991 0 0 0-1.198-.962l-26.5-15.253Zm28.723 17.933-11.183 6.408c.076.31.116.632.116.959v17.794a4 4 0 0 1-1.958 3.44l-16.235 9.638a3.998 3.998 0 0 1-.962.412v12.63a5.005 5.005 0 0 0 1.428-.569l26.62-15.73A4.986 4.986 0 0 0 65 51.284V22.237c0-.567-.097-1.12-.278-1.64ZM2 22.237c0-.567.097-1.12.278-1.64l11.183 6.407c-.076.31-.116.632-.116.959v18.633a4 4 0 0 0 2.08 3.509l16.074 8.8c.32.174.656.302 1.001.384v12.638a5.005 5.005 0 0 1-1.517-.533L4.603 57.02A4.987 4.987 0 0 1 2 52.642V22.237ZM30.002.935a7.014 7.014 0 0 1 6.996 0l26.5 15.253A6.98 6.98 0 0 1 67 22.238v29.047a6.98 6.98 0 0 1-3.433 6.009l-26.62 15.731a7.014 7.014 0 0 1-6.923.12L3.644 58.771A6.981 6.981 0 0 1 0 52.641V22.238a6.98 6.98 0 0 1 3.502-6.05L30.002.936Zm-8.604 27.552 10.582-6.11c.94-.542 2.1-.542 3.04 0l10.582 6.11a2.996 2.996 0 0 1 1.503 2.593v11.653c0 1.056-.56 2.034-1.473 2.576l-10.643 6.308a3.044 3.044 0 0 1-3.009.052l-10.52-5.75a2.996 2.996 0 0 1-1.565-2.627V31.08c0-1.068.573-2.056 1.503-2.593Z" fill="#4285F4"/></svg>