<!-- Copyright 2000-2022 JetBrains s.r.o. and contributors. Use of this source code is governed by the Apache 2.0 license. -->
<svg width="16" height="16" viewBox="0 0 16 16" fill="none" xmlns="http://www.w3.org/2000/svg">
<path d="M7.39619 15.7304C7.58149 15.8371 7.7914 15.8925 8.00275 15.8925L8.00217 15.8895C8.21642 15.8895 8.42633 15.8345 8.61162 15.7273L14.3934 12.3877C14.7669 12.1705 15 11.7666 15 11.3338V4.66024C15 4.22595 14.7669 3.82206 14.3934 3.60637L8.61162 0.265243C8.24827 0.0582327 7.76187 0.0582327 7.39562 0.265243L1.60656 3.60492C1.23162 3.81917 1 4.2245 1 4.65879V11.3324C1 11.7652 1.23162 12.1705 1.60656 12.3877L3.12367 13.262C3.85906 13.6239 4.12253 13.6239 4.45693 13.6239C5.5441 13.6239 6.16948 12.9653 6.16948 11.8188V5.22916C6.16948 5.13506 6.0942 5.06268 6.003 5.06268H5.2705C5.1764 5.06268 5.10257 5.13506 5.10257 5.22916V11.8159C5.10257 12.3254 4.57709 12.8321 3.7172 12.4021L2.13349 11.4872C2.07848 11.4568 2.04374 11.396 2.04374 11.3324V4.65879C2.04374 4.5951 2.07935 4.53285 2.13537 4.501L7.91517 1.16567C7.96873 1.13382 8.03966 1.13382 8.09323 1.16567L13.8742 4.501C13.9289 4.53429 13.9636 4.59365 13.9636 4.66024V11.3338C13.9636 11.3975 13.9289 11.4597 13.8753 11.4901L8.09207 14.8284C8.04242 14.8573 7.96641 14.8573 7.91285 14.8284L6.42961 13.9482C6.38546 13.9222 6.329 13.9135 6.28587 13.9381C5.87546 14.1711 5.79744 14.2015 5.41295 14.3362C5.31784 14.369 5.17713 14.4261 5.46549 14.5873L7.39619 15.7304Z" fill="#57965C"/>
<path d="M6.72799 9.15818C6.72799 10.1324 7.25855 11.294 9.789 11.294L9.78061 11.3008C11.6133 11.3008 12.6643 10.5785 12.6643 9.31902C12.6643 8.06971 11.8203 7.73676 10.0426 7.5008C8.24757 7.26339 8.06517 7.14034 8.06517 6.71908C8.06517 6.37165 8.22006 5.90841 9.55043 5.90841C10.7389 5.90841 11.1761 6.16464 11.3571 6.96517C11.373 7.04045 11.441 7.09546 11.5192 7.09546H12.2705C12.3168 7.09546 12.3617 7.07519 12.3936 7.0419C12.4254 7.00715 12.4428 6.96083 12.4384 6.91306C12.3226 5.53202 11.4048 4.88928 9.55333 4.88928C7.90448 4.88928 6.92009 5.58414 6.92009 6.75093C6.92009 8.0176 7.89869 8.36648 9.48239 8.52282C11.3759 8.70812 11.5235 8.98461 11.5235 9.35665C11.5235 10.003 11.0053 10.2784 9.7864 10.2784C8.25625 10.2784 7.9204 9.89445 7.80749 9.13328C7.79446 9.05178 7.72497 8.99171 7.64246 8.99171H6.89549C6.80269 8.99171 6.72799 9.06554 6.72799 9.15818Z" fill="#57965C"/>
</svg>
