<svg width="20" height="22" viewBox="0 0 20 22" fill="none" xmlns="http://www.w3.org/2000/svg">
  <path d="M17.14 4.00005C16.7941 3.62974 16.4123 3.29476 16 3.00005L15.86 2.89005C14.1549 1.65696 12.1043 0.993164 10 0.993164C7.89578 0.993164 5.84514 1.65696 4.14004 2.89005L4.00004 3.00005C3.58781 3.29476 3.20593 3.62974 2.86004 4.00005C1.02777 5.86934 0.00146484 8.38253 0.00146484 11.0001C0.00146484 13.6176 1.02777 16.1308 2.86004 18.0001C3.20593 18.3704 3.58781 18.7054 4.00004 19.0001L4.14004 19.1101C5.84514 20.3431 7.89578 21.0069 10 21.0069C12.1043 21.0069 14.1549 20.3431 15.86 19.1101L16 19.0001C16.4123 18.7054 16.7941 18.3704 17.14 18.0001C18.9723 16.1308 19.9986 13.6176 19.9986 11.0001C19.9986 8.38253 18.9723 5.86934 17.14 4.00005ZM18.14 11.7901V12.0501C18.14 12.2301 18.09 12.4001 18.06 12.5701C18.03 12.7401 18.01 12.7701 17.99 12.8801C17.97 12.9901 17.92 13.1801 17.88 13.3301C17.84 13.4801 17.8 13.5401 17.77 13.6401C17.74 13.7401 17.68 13.9201 17.62 14.0601C17.5794 14.166 17.5327 14.2695 17.48 14.3701C17.42 14.5001 17.36 14.6401 17.3 14.7601L17.12 15.0701C17.05 15.1901 16.98 15.3201 16.9 15.4401C16.82 15.5601 16.77 15.6301 16.7 15.7301L16.45 16.0801L16.21 16.3601L16 16.5801C14.5893 15.0644 13.805 13.0707 13.805 11.0001C13.805 8.92945 14.5893 6.93571 16 5.42005L16.21 5.65005L16.44 5.93005C16.53 6.04005 16.61 6.16005 16.69 6.27005C16.77 6.38005 16.84 6.46005 16.9 6.56005C16.96 6.66005 17.05 6.81005 17.12 6.93005C17.19 7.05005 17.24 7.13005 17.29 7.23005C17.34 7.33005 17.41 7.49005 17.47 7.63005C17.5227 7.73058 17.5694 7.83409 17.61 7.94005C17.67 8.07005 17.71 8.22005 17.76 8.36005C17.8027 8.46117 17.8394 8.56467 17.87 8.67005C17.87 8.82005 17.94 8.97005 17.98 9.13005C18.02 9.29005 18.03 9.33005 18.05 9.43005C18.07 9.53005 18.1 9.77005 18.13 9.95005V10.2101C18.1834 10.7354 18.1834 11.2647 18.13 11.7901H18.14ZM1.84004 10.2101V9.95005C1.84004 9.77005 1.84004 9.60005 1.92004 9.43005C2.00004 9.26005 1.92004 9.23005 1.99004 9.12005C2.06004 9.01005 2.06004 8.82005 2.10004 8.67005C2.14004 8.52005 2.18004 8.46005 2.21004 8.36005C2.24004 8.26005 2.30004 8.08005 2.36004 7.94005C2.40064 7.83409 2.44739 7.73058 2.50004 7.63005L2.68004 7.24005L2.86004 6.93005C2.93004 6.81005 3.00004 6.68005 3.08004 6.56005C3.14096 6.45955 3.20775 6.36272 3.28004 6.27005L3.53004 5.92005L3.77004 5.64005L4.00004 5.42005C5.41864 6.93112 6.20572 8.92745 6.20004 11.0001C6.20776 13.073 5.42039 15.0701 4.00004 16.5801L3.79004 16.3501L3.56004 16.0701L3.30004 15.7301C3.24004 15.6301 3.16004 15.5401 3.10004 15.4401C3.04004 15.3401 2.95004 15.1901 2.88004 15.0701C2.81004 14.9501 2.76004 14.8701 2.71004 14.7701C2.66004 14.6701 2.59004 14.5101 2.53004 14.3701C2.47739 14.2695 2.43064 14.166 2.39004 14.0601C2.33004 13.9301 2.29004 13.7801 2.24004 13.6401C2.19739 13.5389 2.16066 13.4354 2.13004 13.3301C2.13004 13.1801 2.06004 13.0301 2.02004 12.8701C1.98004 12.7101 2.02004 12.6701 1.95004 12.5701C1.88004 12.4701 1.90004 12.2301 1.87004 12.0501V11.7901C1.81669 11.2647 1.81669 10.7354 1.87004 10.2101H1.84004ZM5.37004 17.7501C7.06543 15.9115 8.00466 13.501 8.00004 11.0001C8.00466 8.49914 7.06543 6.08859 5.37004 4.25005C6.72961 3.30639 8.34507 2.8007 10 2.8007C11.655 2.8007 13.2705 3.30639 14.63 4.25005C12.9435 6.09351 12.0082 8.50153 12.0082 11.0001C12.0082 13.4986 12.9435 15.9066 14.63 17.7501C13.2705 18.6937 11.655 19.1994 10 19.1994C8.34507 19.1994 6.72961 18.6937 5.37004 17.7501Z" fill="#9AA7B0" fill-opacity="0.8"/>
</svg>
