<svg width="20" height="20" viewBox="0 0 20 20" fill="none" xmlns="http://www.w3.org/2000/svg">
  <path d="M11.24 6.60961C11.24 6.85486 11.1673 7.0946 11.0311 7.29852C10.8948 7.50243 10.7012 7.66137 10.4746 7.75522C10.248 7.84907 9.99867 7.87363 9.75814 7.82578C9.5176 7.77794 9.29665 7.65984 9.12324 7.48642C8.94982 7.313 8.83172 7.09206 8.78387 6.85152C8.73603 6.61098 8.76058 6.36166 8.85444 6.13508C8.94829 5.9085 9.10723 5.71484 9.31114 5.57859C9.51506 5.44233 9.7548 5.36961 10 5.36961C10.3281 5.37222 10.642 5.50371 10.874 5.73569C11.106 5.96767 11.2374 6.28155 11.24 6.60961ZM6.00005 5.36961C5.75616 5.37551 5.51944 5.45322 5.31951 5.59301C5.11957 5.7328 4.96532 5.92846 4.87605 6.1555C4.78678 6.38254 4.76646 6.63086 4.81764 6.86939C4.86882 7.10792 4.98923 7.32605 5.16378 7.49648C5.33833 7.6669 5.55928 7.78206 5.79896 7.82752C6.03864 7.87299 6.28641 7.84674 6.51125 7.75207C6.73608 7.6574 6.928 7.49851 7.06297 7.2953C7.19795 7.09208 7.26998 6.85357 7.27005 6.60961C7.2701 6.44421 7.23706 6.28048 7.17287 6.12805C7.10869 5.97562 7.01466 5.83756 6.89632 5.72202C6.77798 5.60647 6.63772 5.51577 6.48379 5.45525C6.32987 5.39473 6.16539 5.36561 6.00005 5.36961ZM13.94 5.36961C13.6957 5.37355 13.4579 5.44961 13.2567 5.58824C13.0554 5.72687 12.8996 5.92188 12.8088 6.14878C12.718 6.37568 12.6963 6.62434 12.7464 6.86355C12.7964 7.10275 12.9161 7.32182 13.0903 7.49325C13.2645 7.66467 13.4854 7.7808 13.7254 7.82704C13.9654 7.87329 14.2137 7.84759 14.4391 7.75318C14.6645 7.65877 14.857 7.49985 14.9924 7.29639C15.1278 7.09293 15.2 6.854 15.2 6.60961C15.2002 6.28756 15.0751 5.97807 14.8511 5.74664C14.6272 5.51521 14.3219 5.38 14 5.36961H13.94ZM19.9 11.9996C19.8986 12.4148 19.8087 12.8248 19.6363 13.2025C19.4638 13.5801 19.2128 13.9166 18.9 14.1896V16.9996C18.8974 17.6353 18.6437 18.2442 18.1942 18.6938C17.7447 19.1433 17.1358 19.397 16.5 19.3996H3.50005C2.86434 19.397 2.25542 19.1433 1.8059 18.6938C1.35638 18.2442 1.10268 17.6353 1.10005 16.9996V14.1896C0.786441 13.9174 0.534958 13.581 0.362611 13.2032C0.190264 12.8253 0.101074 12.4149 0.101074 11.9996C0.101074 11.5843 0.190264 11.1739 0.362611 10.7961C0.534958 10.4182 0.786441 10.0818 1.10005 9.80961V8.29961C1.10005 6.25744 1.9113 4.29892 3.35533 2.85489C4.79936 1.41086 6.75788 0.599609 8.80005 0.599609H11.2C13.2422 0.599609 15.2007 1.41086 16.6448 2.85489C18.0888 4.29892 18.9 6.25744 18.9 8.29961V9.80961C19.2128 10.0826 19.4638 10.4191 19.6363 10.7968C19.8087 11.1744 19.8986 11.5845 19.9 11.9996ZM17.1 14.8996H13.51L12.76 15.7396C12.5804 15.9325 12.3629 16.0864 12.1212 16.1916C11.8795 16.2967 11.6187 16.351 11.355 16.351C11.0914 16.351 10.8306 16.2967 10.5889 16.1916C10.3472 16.0864 10.1297 15.9325 9.95005 15.7396L9.18005 14.8796H2.90005V16.9996C2.90005 17.1587 2.96326 17.3114 3.07578 17.4239C3.18831 17.5364 3.34092 17.5996 3.50005 17.5996H16.5C16.5788 17.5996 16.6569 17.5841 16.7297 17.5539C16.8025 17.5238 16.8686 17.4796 16.9243 17.4239C16.98 17.3682 17.0242 17.302 17.0544 17.2292C17.0845 17.1564 17.1 17.0784 17.1 16.9996V14.8996ZM18.1 11.9996C18.1033 11.7248 18.0017 11.4591 17.8159 11.2565C17.6301 11.054 17.3741 10.9299 17.1 10.9096L15.1 13.0996H17C17.2918 13.0996 17.5716 12.9837 17.7779 12.7774C17.9842 12.5711 18.1 12.2913 18.1 11.9996ZM3.00005 13.0996H7.57005L5.57005 10.8996H3.00005C2.70831 10.8996 2.42852 11.0155 2.22223 11.2218C2.01594 11.4281 1.90005 11.7079 1.90005 11.9996C1.90005 12.2913 2.01594 12.5711 2.22223 12.7774C2.42852 12.9837 2.70831 13.0996 3.00005 13.0996ZM14.59 10.9996H8.10005L11.27 14.5396C11.2945 14.5583 11.3243 14.5684 11.355 14.5684C11.3858 14.5684 11.4156 14.5583 11.44 14.5396L14.59 10.9996ZM2.90005 9.09961H17.1V8.29961C17.0974 6.73564 16.4749 5.23649 15.3691 4.1306C14.2632 3.02471 12.764 2.40225 11.2 2.39961H8.80005C7.23608 2.40225 5.73693 3.02471 4.63104 4.1306C3.52515 5.23649 2.90269 6.73564 2.90005 8.29961V9.09961Z" fill="#9AA7B0" fill-opacity="0.8"/>
</svg>
