<svg width="20" height="18" viewBox="0 0 20 18" fill="none" xmlns="http://www.w3.org/2000/svg">
  <path d="M18.0001 3.59961H15.5401C15.5111 3.61033 15.4791 3.61033 15.4501 3.59961L14.0501 1.48961C13.8749 1.22859 13.6383 1.01458 13.3611 0.866372C13.0838 0.718166 12.7745 0.640299 12.4601 0.63961H7.5401C7.23776 0.643823 6.94068 0.719384 6.67307 0.860141C6.40546 1.0009 6.17488 1.20287 6.0001 1.44961L4.4601 3.59961H2.0001C1.49619 3.59961 1.01291 3.79979 0.656595 4.15611C0.300276 4.51243 0.100098 4.9957 0.100098 5.49961V15.9996C0.100098 16.5035 0.300276 16.9868 0.656595 17.3431C1.01291 17.6994 1.49619 17.8996 2.0001 17.8996H18.0001C18.504 17.8996 18.9873 17.6994 19.3436 17.3431C19.6999 16.9868 19.9001 16.5035 19.9001 15.9996V5.49961C19.9001 4.9957 19.6999 4.51243 19.3436 4.15611C18.9873 3.79979 18.504 3.59961 18.0001 3.59961ZM18.1001 15.9996C18.1017 16.0131 18.1002 16.0268 18.0958 16.0397C18.0913 16.0526 18.084 16.0643 18.0744 16.0739C18.0647 16.0835 18.0531 16.0908 18.0402 16.0953C18.0273 16.0997 18.0136 16.1012 18.0001 16.0996H2.0001C1.98658 16.1012 1.97287 16.0997 1.96001 16.0953C1.94714 16.0908 1.93546 16.0835 1.92583 16.0739C1.9162 16.0643 1.90888 16.0526 1.90443 16.0397C1.89997 16.0268 1.89849 16.0131 1.9001 15.9996V5.49961C1.9001 5.47309 1.91063 5.44765 1.92939 5.4289C1.94814 5.41015 1.97358 5.39961 2.0001 5.39961H4.4601C4.77446 5.39892 5.08384 5.32105 5.36107 5.17285C5.63831 5.02464 5.87491 4.81063 6.0501 4.54961L7.5401 2.39961H12.5401L14.0001 4.54961C14.1753 4.81063 14.4119 5.02464 14.6891 5.17285C14.9664 5.32105 15.2757 5.39892 15.5901 5.39961H18.0001C18.0266 5.39961 18.0521 5.41015 18.0708 5.4289C18.0896 5.44765 18.1001 5.47309 18.1001 5.49961V15.9996ZM10.0001 5.09961C9.05272 5.09961 8.12663 5.38054 7.33892 5.90687C6.5512 6.4332 5.93726 7.1813 5.57471 8.05656C5.21217 8.93181 5.11731 9.89492 5.30214 10.8241C5.48696 11.7533 5.94316 12.6068 6.61306 13.2767C7.28295 13.9465 8.13645 14.4027 9.06561 14.5876C9.99478 14.7724 10.9579 14.6775 11.8332 14.315C12.7084 13.9524 13.4565 13.3385 13.9828 12.5508C14.5092 11.7631 14.7901 10.837 14.7901 9.88961C14.7875 8.62004 14.2819 7.40321 13.3842 6.50549C12.4865 5.60776 11.2697 5.10225 10.0001 5.09961ZM10.0001 12.8796C9.40675 12.8796 8.82673 12.7037 8.33339 12.374C7.84004 12.0444 7.45552 11.5758 7.22846 11.0277C7.0014 10.4795 6.94199 9.87628 7.05774 9.29434C7.1735 8.71239 7.45922 8.17785 7.87878 7.75829C8.29833 7.33873 8.83288 7.05301 9.41483 6.93725C9.99677 6.8215 10.6 6.88091 11.1481 7.10797C11.6963 7.33503 12.1649 7.71955 12.4945 8.2129C12.8242 8.70625 13.0001 9.28627 13.0001 9.87961C13.0001 10.6753 12.684 11.4383 12.1214 12.0009C11.5588 12.5635 10.7957 12.8796 10.0001 12.8796ZM4.0001 2.39961H1.0001V0.599609H4.0001V2.39961Z" fill="#9AA7B0" fill-opacity="0.8"/>
</svg>
