<svg width="20" height="20" viewBox="0 0 20 20" fill="none" xmlns="http://www.w3.org/2000/svg">
  <path d="M10 0C8.02219 0 6.08879 0.58649 4.4443 1.6853C2.79981 2.78412 1.51809 4.3459 0.761209 6.17317C0.00433284 8.00043 -0.193701 10.0111 0.192152 11.9509C0.578004 13.8907 1.53041 15.6725 2.92894 17.0711C4.32746 18.4696 6.10929 19.422 8.0491 19.8079C9.98891 20.1937 11.9996 19.9957 13.8268 19.2388C15.6541 18.4819 17.2159 17.2002 18.3147 15.5557C19.4135 13.9112 20 11.9778 20 10C20 7.34784 18.9464 4.8043 17.0711 2.92893C15.1957 1.05357 12.6522 0 10 0ZM10 18.2C8.3782 18.2 6.79281 17.7191 5.44433 16.8181C4.09585 15.917 3.04483 14.6364 2.42419 13.138C1.80355 11.6397 1.64117 9.9909 1.95757 8.40026C2.27396 6.80961 3.05494 5.34852 4.20173 4.20172C5.34852 3.05493 6.80962 2.27396 8.40026 1.95756C9.99091 1.64116 11.6397 1.80355 13.138 2.42419C14.6364 3.04483 15.917 4.09584 16.8181 5.44432C17.7191 6.79281 18.2 8.37819 18.2 10C18.1974 12.174 17.3326 14.2581 15.7954 15.7954C14.2581 17.3326 12.174 18.1974 10 18.2ZM10.9 9.43L14.46 11.09L13.7 12.72L9.10001 10.57V4H10.9V9.43Z" fill="#9AA7B0" fill-opacity="0.8"/>
</svg>
