<svg width="20" height="18" viewBox="0 0 20 18" fill="none" xmlns="http://www.w3.org/2000/svg">
  <path d="M5.69992 5.16961V12.7996C5.69992 13.6748 6.0476 14.5142 6.66647 15.1331C7.28534 15.7519 8.12471 16.0996 8.99992 16.0996V17.8996C7.64813 17.897 6.35246 17.3588 5.3966 16.4029C4.44073 15.4471 3.90256 14.1514 3.89992 12.7996V5.16961L1.43992 7.63961L0.169922 6.35961L4.79992 1.72961L9.43992 6.35961L8.16992 7.63961L5.69992 5.16961ZM18.5599 10.3596L16.0999 12.8296V5.19961C16.0973 3.84782 15.5591 2.55215 14.6032 1.59628C13.6474 0.640421 12.3517 0.102252 10.9999 0.0996094V1.89961C11.8751 1.89961 12.7145 2.24729 13.3334 2.86616C13.9522 3.48503 14.2999 4.32439 14.2999 5.19961V12.8296L11.8299 10.3596L10.5599 11.6396L15.1999 16.2696L19.8299 11.6396L18.5599 10.3596Z" fill="#9AA7B0" fill-opacity="0.8"/>
</svg>
