<?xml version="1.0" encoding="UTF-8" standalone="no"?><svg xmlns="http://www.w3.org/2000/svg" xmlns:xlink="http://www.w3.org/1999/xlink" contentScriptType="application/ecmascript" contentStyleType="text/css" height="477px" preserveAspectRatio="none" style="width:915px;height:477px;background:#FFFFFF;" version="1.1" viewBox="0 0 915 477" width="915px" zoomAndPan="magnify"><defs><filter height="300%" id="f85pf6syqyrma" width="300%" x="-1" y="-1"><feGaussianBlur result="blurOut" stdDeviation="2.0"/><feColorMatrix in="blurOut" result="blurOut2" type="matrix" values="0 0 0 0 0 0 0 0 0 0 0 0 0 0 0 0 0 0 .4 0"/><feOffset dx="4.0" dy="4.0" in="blurOut2" result="blurOut3"/><feBlend in="SourceGraphic" in2="blurOut3" mode="normal"/></filter></defs><g><!--MD5=[d0c29b9b459c8bf02413943eadc8dc43]
cluster IDEA FIR Plugin--><polygon fill="#FFFFFF" filter="url(#f85pf6syqyrma)" points="16,6,135,6,142,28.4883,898,28.4883,898,368,16,368,16,6" style="stroke:#000000;stroke-width:1.5;"/><line style="stroke:#000000;stroke-width:1.5;" x1="16" x2="142" y1="28.4883" y2="28.4883"/><text fill="#000000" font-family="sans-serif" font-size="14" font-weight="bold" lengthAdjust="spacing" textLength="113" x="20" y="21.5352">IDEA FIR Plugin</text><!--MD5=[3656660b710fa6dbfefbf2beae49a6eb]
cluster Plugin Subsystems--><polygon fill="#FFFFFF" filter="url(#f85pf6syqyrma)" points="40,49,183,49,190,71.4883,874,71.4883,874,146,40,146,40,49" style="stroke:#000000;stroke-width:1.5;"/><line style="stroke:#000000;stroke-width:1.5;" x1="40" x2="190" y1="71.4883" y2="71.4883"/><text fill="#000000" font-family="sans-serif" font-size="14" font-weight="bold" lengthAdjust="spacing" textLength="137" x="44" y="64.5352">Plugin Subsystems</text><!--MD5=[e5e4aff23692c45099a835661ee4ea5b]
entity ll--><rect fill="#FEFECE" filter="url(#f85pf6syqyrma)" height="51.1992" style="stroke:#A80036;stroke-width:1.5;" width="173" x="341.5" y="301"/><rect fill="#FEFECE" height="10" style="stroke:#A80036;stroke-width:1.5;" width="15" x="494.5" y="306"/><rect fill="#FEFECE" height="2" style="stroke:#A80036;stroke-width:1.5;" width="4" x="492.5" y="308"/><rect fill="#FEFECE" height="2" style="stroke:#A80036;stroke-width:1.5;" width="4" x="492.5" y="312"/><text fill="#000000" font-family="sans-serif" font-size="18" font-weight="bold" lengthAdjust="spacing" textLength="133" x="356.5" y="338.4023">Low-Level API</text><!--MD5=[bc98c22ec29a4ee6d970209b2caf4b56]
entity analysis--><rect fill="#FEFECE" filter="url(#f85pf6syqyrma)" height="51.1992" style="stroke:#A80036;stroke-width:1.5;" width="154" x="351" y="190"/><rect fill="#FEFECE" height="10" style="stroke:#A80036;stroke-width:1.5;" width="15" x="485" y="195"/><rect fill="#FEFECE" height="2" style="stroke:#A80036;stroke-width:1.5;" width="4" x="483" y="197"/><rect fill="#FEFECE" height="2" style="stroke:#A80036;stroke-width:1.5;" width="4" x="483" y="201"/><text fill="#000000" font-family="sans-serif" font-size="18" font-weight="bold" lengthAdjust="spacing" textLength="114" x="366" y="227.4023">Analysis API</text><!--MD5=[571c783fa29527d429d45289a24921cc]
entity Other subsystems...--><rect fill="#FEFECE" filter="url(#f85pf6syqyrma)" height="46.4883" style="stroke:#A80036;stroke-width:1.5;" width="174" x="684" y="84"/><rect fill="#FEFECE" height="10" style="stroke:#A80036;stroke-width:1.5;" width="15" x="838" y="89"/><rect fill="#FEFECE" height="2" style="stroke:#A80036;stroke-width:1.5;" width="4" x="836" y="91"/><rect fill="#FEFECE" height="2" style="stroke:#A80036;stroke-width:1.5;" width="4" x="836" y="95"/><text fill="#000000" font-family="sans-serif" font-size="14" lengthAdjust="spacing" textLength="134" x="699" y="117.5352">Other subsystems...</text><!--MD5=[edf9ae99e6703459d2d20b59cd1d1c0d]
entity Highlighting--><rect fill="#FEFECE" filter="url(#f85pf6syqyrma)" height="46.4883" style="stroke:#A80036;stroke-width:1.5;" width="125" x="523.5" y="84"/><rect fill="#FEFECE" height="10" style="stroke:#A80036;stroke-width:1.5;" width="15" x="628.5" y="89"/><rect fill="#FEFECE" height="2" style="stroke:#A80036;stroke-width:1.5;" width="4" x="626.5" y="91"/><rect fill="#FEFECE" height="2" style="stroke:#A80036;stroke-width:1.5;" width="4" x="626.5" y="95"/><text fill="#000000" font-family="sans-serif" font-size="14" lengthAdjust="spacing" textLength="85" x="538.5" y="117.5352">Highlighting</text><!--MD5=[b3da2733087c08e258610b598fdd6789]
entity Completion--><rect fill="#FEFECE" filter="url(#f85pf6syqyrma)" height="46.4883" style="stroke:#A80036;stroke-width:1.5;" width="120" x="368" y="84"/><rect fill="#FEFECE" height="10" style="stroke:#A80036;stroke-width:1.5;" width="15" x="468" y="89"/><rect fill="#FEFECE" height="2" style="stroke:#A80036;stroke-width:1.5;" width="4" x="466" y="91"/><rect fill="#FEFECE" height="2" style="stroke:#A80036;stroke-width:1.5;" width="4" x="466" y="95"/><text fill="#000000" font-family="sans-serif" font-size="14" lengthAdjust="spacing" textLength="80" x="383" y="117.5352">Completion</text><!--MD5=[1d085ddff522cc5769a2492b7fc9c7ab]
entity Find Usages--><rect fill="#FEFECE" filter="url(#f85pf6syqyrma)" height="46.4883" style="stroke:#A80036;stroke-width:1.5;" width="123" x="209.5" y="84"/><rect fill="#FEFECE" height="10" style="stroke:#A80036;stroke-width:1.5;" width="15" x="312.5" y="89"/><rect fill="#FEFECE" height="2" style="stroke:#A80036;stroke-width:1.5;" width="4" x="310.5" y="91"/><rect fill="#FEFECE" height="2" style="stroke:#A80036;stroke-width:1.5;" width="4" x="310.5" y="95"/><text fill="#000000" font-family="sans-serif" font-size="14" lengthAdjust="spacing" textLength="83" x="224.5" y="117.5352">Find Usages</text><!--MD5=[d04a9a2bee163f2ba04888c3d8e4c6ed]
entity Inspections--><rect fill="#FEFECE" filter="url(#f85pf6syqyrma)" height="46.4883" style="stroke:#A80036;stroke-width:1.5;" width="118" x="56" y="84"/><rect fill="#FEFECE" height="10" style="stroke:#A80036;stroke-width:1.5;" width="15" x="154" y="89"/><rect fill="#FEFECE" height="2" style="stroke:#A80036;stroke-width:1.5;" width="4" x="152" y="91"/><rect fill="#FEFECE" height="2" style="stroke:#A80036;stroke-width:1.5;" width="4" x="152" y="95"/><text fill="#000000" font-family="sans-serif" font-size="14" lengthAdjust="spacing" textLength="78" x="71" y="117.5352">Inspections</text><!--MD5=[4e3a09270b53cd499ac6247cc36ef03d]
entity fir--><rect fill="#FEFECE" filter="url(#f85pf6syqyrma)" height="51.1992" style="stroke:#A80036;stroke-width:1.5;" width="158" x="349" y="412"/><rect fill="#FEFECE" height="10" style="stroke:#A80036;stroke-width:1.5;" width="15" x="487" y="417"/><rect fill="#FEFECE" height="2" style="stroke:#A80036;stroke-width:1.5;" width="4" x="485" y="419"/><rect fill="#FEFECE" height="2" style="stroke:#A80036;stroke-width:1.5;" width="4" x="485" y="423"/><text fill="#000000" font-family="sans-serif" font-size="18" font-weight="bold" lengthAdjust="spacing" textLength="118" x="364" y="449.4023">FIR Compiler</text><!--MD5=[47ad573ba6a053d9e1e44c8699adcd6f]
link Highlighting to analysis--><path d="M553.26,130.07 C528.72,146.61 494.99,169.34 468.71,187.06 " fill="none" id="Highlighting-to-analysis" style="stroke:#A80036;stroke-width:1.0;"/><polygon fill="#A80036" points="464.56,189.86,474.2565,188.1344,468.7026,187.0602,469.7768,181.5063,464.56,189.86" style="stroke:#A80036;stroke-width:1.0;"/><!--MD5=[55a83d7621c017c8bd183dea3518c40f]
link Completion to analysis--><path d="M428,130.07 C428,145.86 428,167.3 428,184.62 " fill="none" id="Completion-to-analysis" style="stroke:#A80036;stroke-width:1.0;"/><polygon fill="#A80036" points="428,189.86,432,180.86,428,184.86,424,180.86,428,189.86" style="stroke:#A80036;stroke-width:1.0;"/><!--MD5=[54959ee5a3b15b5107ac6a1d8f07e6bb]
link Find Usages to analysis--><path d="M303.53,130.07 C327.81,146.54 361.16,169.16 387.22,186.84 " fill="none" id="Find Usages-to-analysis" style="stroke:#A80036;stroke-width:1.0;"/><polygon fill="#A80036" points="391.67,189.86,386.4532,181.5063,387.5274,187.0602,381.9735,188.1344,391.67,189.86" style="stroke:#A80036;stroke-width:1.0;"/><!--MD5=[35c745b18bef14dbde27458fb16fae59]
link Inspections to analysis--><path d="M147.26,130.1 C160.64,138.51 176.62,147.59 192,154 C241.35,174.56 299.5,189.56 345.73,199.49 " fill="none" id="Inspections-to-analysis" style="stroke:#A80036;stroke-width:1.0;"/><polygon fill="#A80036" points="350.73,200.55,342.7598,194.7641,345.8395,199.5092,341.0945,202.5889,350.73,200.55" style="stroke:#A80036;stroke-width:1.0;"/><!--MD5=[7b3935d33fb7ced6c9a1fc0e18ea2f28]
link Other subsystems... to analysis--><path d="M725.13,130.05 C706.98,138.25 685.76,147.21 666,154 C615.04,171.51 556.38,186.48 510.05,197.14 " fill="none" id="Other subsystems...-to-analysis" style="stroke:#A80036;stroke-width:1.0;"/><polygon fill="#A80036" points="505.04,198.29,514.7053,200.1825,509.9141,197.1751,512.9215,192.3839,505.04,198.29" style="stroke:#A80036;stroke-width:1.0;"/><!--MD5=[1d8267d94116d3ab6b94e1c2c89a1056]
link analysis to ll--><path d="M428,241.23 C428,257.4 428,278.61 428,295.7 " fill="none" id="analysis-to-ll" style="stroke:#A80036;stroke-width:1.0;"/><polygon fill="#A80036" points="428,300.86,432,291.86,428,295.86,424,291.86,428,300.86" style="stroke:#A80036;stroke-width:1.0;"/><!--MD5=[05fd97e95d1bbf6ed9865676fe40841d]
link ll to fir--><path d="M428,352.23 C428,368.4 428,389.61 428,406.7 " fill="none" id="ll-to-fir" style="stroke:#A80036;stroke-width:1.0;"/><polygon fill="#A80036" points="428,411.86,432,402.86,428,406.86,424,402.86,428,411.86" style="stroke:#A80036;stroke-width:1.0;"/><!--MD5=[92b54db9f50aacdc41878d127b18a8aa]
@startuml

component fir[
= FIR Compiler
]

package "IDEA FIR Plugin" {
    component ll [
    = Low-Level API
    ]

    component analysis [
    = Analysis API
    ]

    package "Plugin Subsystems" {
        [Other subsystems...]
        [Highlighting]
        [Completion]
        [Find Usages]
        [Inspections]
    }
}

[Highlighting] - -> [analysis]
[Completion]   - -> [analysis]
[Find Usages]  - -> [analysis]
[Inspections]  - -> [analysis]
[Other subsystems...]  - ->[analysis]


[analysis] - -> [ll]
[ll] - -> [fir]

@enduml

PlantUML version 1.2021.16(Wed Dec 08 18:25:22 CET 2021)
--></g></svg>