<svg fill="none" height="48" viewBox="0 0 48 48" width="48" xmlns="http://www.w3.org/2000/svg" xmlns:xlink="http://www.w3.org/1999/xlink"><linearGradient id="a" gradientUnits="userSpaceOnUse" x1="0" x2="47.98" y1=".009761" y2="48.0297"><stop offset="0" stop-color="#014feb"/><stop offset="1" stop-color="#00b7ff"/></linearGradient><path d="m9.08379 9.1162h-.05003c-5.02209 0-9.03376 4.4282-9.03376 9.8959v.8796c0 5.4677 4.3118 10.5956 9.03376 10.5956h2.96124v-8.3165h-5.60234l11.73494-14.82386 12.005 14.82386h-6.1326v11.0554h-6.1025l11.9649 14.7738 11.7349-14.8238h-5.6023v-2.6989h2.2109c4.9821 0 9.7941-5.1279 9.7941-10.5956v-.8796c0-5.4677-5.1121-9.8959-9.7941-9.8959h-2.6411c-1.5206-5.23781-6.8728-9.1062-13.2455-9.1062s-11.7349 3.86839-13.25552 9.1062" fill="url(#a)"/></svg>